<?xml version="1.0" encoding="UTF-8" standalone="no"?>
<!-- Creator: CorelDRAW X7 -->

<svg
   xmlns:dc="http://purl.org/dc/elements/1.1/"
   xmlns:cc="http://creativecommons.org/ns#"
   xmlns:rdf="http://www.w3.org/1999/02/22-rdf-syntax-ns#"
   xmlns:svg="http://www.w3.org/2000/svg"
   xmlns="http://www.w3.org/2000/svg"
   xmlns:sodipodi="http://sodipodi.sourceforge.net/DTD/sodipodi-0.dtd"
   xmlns:inkscape="http://www.inkscape.org/namespaces/inkscape"
   xml:space="preserve"
   width="7.8740005in"
   height="7.8740005in"
   version="1.1"
   style="clip-rule:evenodd;fill-rule:evenodd;image-rendering:optimizeQuality;shape-rendering:geometricPrecision;text-rendering:geometricPrecision"
   viewBox="0 0 7874.0005 7874.0005"
   id="svg2"
   inkscape:version="0.91 r13725"
   sodipodi:docname="Ariadna - Sectorial - USAriadna - [N3] [Vyo].svg"><metadata
     id="metadata38"><rdf:RDF><cc:Work
         rdf:about=""><dc:format>image/svg+xml</dc:format><dc:type
           rdf:resource="http://purl.org/dc/dcmitype/StillImage" /></cc:Work></rdf:RDF></metadata><sodipodi:namedview
     pagecolor="#ffffff"
     bordercolor="#666666"
     borderopacity="1"
     objecttolerance="10"
     gridtolerance="10"
     guidetolerance="10"
     inkscape:pageopacity="0"
     inkscape:pageshadow="2"
     inkscape:window-width="640"
     inkscape:window-height="480"
     id="namedview36"
     showgrid="false"
     inkscape:zoom="0.23838384"
     inkscape:cx="736.83001"
     inkscape:cy="849.33005"
     inkscape:window-x="0"
     inkscape:window-y="0"
     inkscape:window-maximized="0"
     inkscape:current-layer="svg2" /><defs
     id="defs4"><style
       type="text/css"
       id="style6"><![CDATA[
    .fil3 {fill:none}
    .fil2 {fill:#064466}
    .fil1 {fill:#E32527}
    .fil0 {fill:white}
    .fil4 {fill:white;fill-rule:nonzero}
   ]]></style></defs><g
     id="Layer_x0020_1"
     transform="translate(3937,-7063)"><metadata
       id="CorelCorpID_0Corel-Layer" /><circle
       class="fil0"
       cy="11000"
       r="2756"
       id="circle10"
       cx="0"
       style="fill:#ffffff" /><path
       class="fil1"
       d="m -276,8535 c 91,-10 183,-15 276,-15 93,0 185,5 276,15 l 0,4930 c -91,10 -183,15 -276,15 -93,0 -185,-5 -276,-15 l 0,-4930 z m -1653,906 0,3118 c -345,-426 -551,-968 -551,-1559 0,-591 206,-1133 551,-1559 z m 3858,3118 0,-3118 c 345,426 551,968 551,1559 0,591 -206,1133 -551,1559 z M -1378,8937 c 170,-113 355,-207 551,-276 0,1559 0,3119 0,4678 -196,-69 -381,-163 -551,-276 0,-1589 0,-2616 0,-4126 z m 2756,4126 c -170,113 -355,207 -551,276 l 0,-4678 c 196,69 381,163 551,276 l 0,4126 z"
       id="path12"
       inkscape:connector-curvature="0"
       style="fill:#e32527" /><path
       class="fil2"
       d="m 0,7063 c 2174,0 3937,1763 3937,3937 0,2174 -1763,3937 -3937,3937 -2174,0 -3937,-1763 -3937,-3937 0,-2174 1763,-3937 3937,-3937 z m 0,1220 c 1500,0 2717,1217 2717,2717 0,1500 -1217,2717 -2717,2717 -1500,0 -2717,-1217 -2717,-2717 0,-1500 1217,-2717 2717,-2717 z"
       id="path14"
       inkscape:connector-curvature="0"
       style="fill:#064466" /><circle
       class="fil3"
       cy="11000"
       r="3740"
       id="circle16"
       cx="0"
       style="fill:none" /><circle
       class="fil3"
       cy="11000"
       r="3740"
       id="circle18"
       cx="0"
       style="fill:none" /><path
       class="fil4"
       d="m -2583,8505 118,-139 284,243 c 44,37 72,74 84,110 13,37 10,77 -7,120 -11,25 -27,52 -49,80 -22,29 -48,61 -79,97 -32,37 -61,71 -87,101 -26,30 -51,56 -74,77 -23,21 -45,37 -67,49 -22,11 -44,17 -67,17 -23,-1 -47,-7 -73,-19 -25,-12 -53,-32 -84,-58 l -277,-237 119,-138 236,202 c 19,16 35,29 49,39 13,9 25,16 36,19 12,3 22,3 32,0 10,-4 21,-11 33,-21 12,-10 25,-24 40,-41 15,-16 33,-37 53,-61 16,-19 30,-34 41,-48 12,-14 22,-27 30,-39 8,-11 14,-22 17,-32 4,-10 4,-20 2,-30 -2,-16 -10,-30 -22,-43 -13,-12 -29,-27 -49,-44 l -239,-204 z"
       id="path20"
       inkscape:connector-curvature="0"
       style="fill:#ffffff;fill-rule:nonzero" /><path
       id="1"
       class="fil4"
       d="m -1718,8059 c -8,-11 -16,-19 -24,-24 -7,-4 -17,-5 -28,-3 -10,3 -23,8 -38,16 -15,8 -33,20 -56,34 -4,3 -7,5 -9,7 -3,1 -6,4 -9,7 -32,22 -58,41 -80,55 -22,14 -39,27 -51,38 -12,11 -19,21 -21,31 -2,10 2,21 11,35 8,13 18,19 31,19 13,1 28,-4 44,-14 23,-14 44,-27 65,-40 20,-12 39,-24 56,-35 11,-7 22,-14 32,-22 11,-7 22,-14 32,-21 41,-27 78,-49 109,-66 32,-18 61,-28 87,-31 26,-3 50,3 73,17 23,14 46,40 70,76 17,26 28,50 35,71 7,21 8,41 5,59 -3,19 -10,37 -23,54 -12,17 -28,34 -50,52 -12,10 -37,28 -74,55 -37,27 -85,60 -144,99 -59,38 -108,67 -147,88 -39,20 -71,30 -96,29 -17,0 -32,-4 -44,-10 -12,-6 -23,-14 -32,-23 -9,-10 -18,-20 -26,-33 -8,-13 -17,-27 -27,-41 l 149,-98 c 4,6 7,12 11,17 4,7 9,11 14,14 6,3 13,5 22,4 9,-1 20,-5 34,-12 7,-4 20,-11 38,-22 17,-11 40,-26 67,-43 35,-23 63,-41 85,-56 21,-15 38,-28 48,-39 10,-11 16,-21 17,-30 0,-9 -3,-19 -11,-31 -7,-10 -15,-18 -23,-21 -9,-3 -18,-3 -28,-1 -10,3 -21,8 -33,15 -12,7 -25,15 -39,24 -49,32 -92,59 -130,84 -38,25 -71,45 -100,61 -29,17 -55,28 -77,36 -22,7 -43,9 -62,6 -18,-3 -36,-12 -53,-27 -17,-14 -34,-35 -52,-62 -16,-25 -27,-47 -35,-68 -7,-20 -10,-40 -8,-59 2,-18 9,-36 21,-53 11,-17 28,-35 50,-54 15,-12 39,-31 73,-56 34,-25 78,-55 132,-90 28,-18 53,-34 76,-49 23,-14 44,-26 63,-36 19,-9 36,-17 52,-22 16,-5 31,-7 46,-6 16,1 30,4 42,9 12,5 23,12 33,20 9,9 19,19 28,30 9,12 18,25 27,39 l -148,97 z"
       inkscape:connector-curvature="0"
       style="fill:#ffffff;fill-rule:nonzero" /><path
       id="2"
       class="fil4"
       d="m -805,7876 -188,-189 -56,261 244,-72 z m 97,98 -367,109 -26,120 -192,57 148,-663 234,-69 478,477 -191,56 -84,-87 z"
       inkscape:connector-curvature="0"
       style="fill:#ffffff;fill-rule:nonzero" /><path
       id="3"
       class="fil4"
       d="m -213,7679 c 4,-15 11,-29 18,-40 8,-12 19,-22 31,-29 12,-8 27,-13 46,-17 18,-4 40,-6 66,-7 40,0 71,4 94,12 22,8 39,19 50,35 11,16 18,36 21,60 3,23 5,51 5,82 l -144,1 c -1,-12 -3,-22 -4,-31 -1,-9 -4,-17 -10,-23 -5,-6 -14,-11 -25,-14 -12,-3 -29,-5 -50,-5 -66,1 -98,33 -97,98 l 1,211 -154,1 -3,-415 154,-1 1,82 z"
       inkscape:connector-curvature="0"
       style="fill:#ffffff;fill-rule:nonzero" /><path
       id="4"
       class="fil4"
       d="m 356,7610 -35,414 -152,-13 34,-413 153,12 z m 14,-176 -9,112 -153,-13 9,-112 153,13 z"
       inkscape:connector-curvature="0"
       style="fill:#ffffff;fill-rule:nonzero" /><path
       id="5"
       class="fil4"
       d="m 579,7920 c -2,11 -2,21 2,28 3,8 9,14 17,19 8,5 19,9 32,13 13,3 27,6 43,10 27,6 49,11 68,14 19,3 34,4 47,3 12,-1 21,-4 28,-9 6,-5 10,-13 13,-25 2,-10 2,-19 -2,-25 -3,-7 -10,-12 -19,-17 -9,-5 -21,-9 -35,-13 -15,-4 -33,-8 -53,-13 -20,-4 -38,-8 -54,-11 -17,-3 -31,-4 -42,-4 -12,0 -22,2 -30,7 -7,4 -12,12 -15,23 z m 233,123 c -8,13 -18,24 -29,31 -11,8 -24,13 -40,15 -15,3 -33,3 -54,1 -21,-2 -45,-6 -73,-13 -40,-9 -74,-17 -101,-26 -27,-9 -48,-20 -63,-33 -14,-14 -23,-30 -27,-50 -3,-20 -1,-46 5,-76 7,-32 18,-55 32,-70 13,-16 31,-26 52,-30 21,-5 45,-5 74,-1 29,5 62,11 98,19 24,5 44,10 61,14 18,3 33,8 45,13 13,5 23,12 32,20 8,9 16,20 22,34 l 10,-44 c 3,-16 4,-29 2,-38 -2,-10 -8,-17 -19,-24 -11,-7 -26,-13 -47,-18 -20,-5 -47,-11 -79,-18 -27,-6 -46,-9 -57,-7 -12,1 -20,9 -23,24 l -150,-33 c 7,-27 18,-48 34,-62 15,-14 36,-22 64,-25 27,-2 60,-1 100,6 40,6 89,16 146,29 37,8 69,17 96,27 27,10 47,23 63,37 15,14 25,32 29,52 5,20 4,44 -2,72 l -61,274 -154,-35 14,-65 z"
       inkscape:connector-curvature="0"
       style="fill:#ffffff;fill-rule:nonzero" /><path
       id="6"
       class="fil4"
       d="m 1444,8023 c -28,-14 -51,-24 -68,-30 -18,-6 -33,-7 -45,-5 -13,3 -24,10 -33,22 -9,12 -19,29 -30,50 -10,19 -16,34 -18,46 -2,13 0,24 6,33 6,10 16,20 29,29 14,9 31,19 53,30 31,16 56,28 75,36 20,9 36,12 49,12 14,-1 26,-6 36,-17 10,-10 20,-26 32,-48 11,-21 17,-38 20,-52 2,-14 -1,-27 -8,-38 -7,-11 -19,-22 -35,-32 -17,-10 -38,-22 -63,-36 z m 29,267 c -13,14 -26,24 -40,31 -14,7 -30,10 -47,10 -16,0 -35,-3 -55,-10 -20,-6 -43,-16 -68,-29 -45,-24 -80,-45 -107,-65 -27,-20 -46,-41 -57,-64 -11,-22 -15,-46 -11,-72 4,-27 16,-58 34,-93 21,-40 41,-72 59,-97 19,-24 40,-41 64,-49 24,-8 52,-8 85,0 33,8 74,25 123,50 23,13 44,24 60,34 17,11 31,22 41,33 11,11 19,24 25,39 6,14 11,32 14,53 l 113,-217 132,70 -274,525 -133,-69 42,-80 z"
       inkscape:connector-curvature="0"
       style="fill:#ffffff;fill-rule:nonzero" /><path
       id="7"
       class="fil4"
       d="m 1978,8326 c 16,-10 31,-17 46,-21 15,-3 30,-3 47,1 17,5 35,13 55,25 21,12 44,29 71,51 42,34 70,68 85,102 14,35 14,70 0,107 -6,15 -14,29 -23,42 -9,13 -19,26 -30,40 l -137,169 -123,-99 137,-169 c 11,-15 19,-27 24,-38 5,-11 6,-22 3,-33 -3,-10 -10,-22 -21,-34 -11,-12 -27,-26 -48,-43 -22,-18 -41,-31 -58,-37 -17,-7 -31,-10 -45,-8 -13,3 -26,9 -37,19 -12,10 -24,23 -37,38 l -116,145 -120,-97 261,-322 119,96 -53,66 z"
       inkscape:connector-curvature="0"
       style="fill:#ffffff;fill-rule:nonzero" /><path
       id="8"
       class="fil4"
       d="m 2361,8934 c -10,7 -15,15 -17,23 -3,8 -2,16 1,25 4,9 9,19 17,30 7,11 16,23 26,36 17,22 31,40 44,54 12,15 23,26 33,33 10,7 19,11 28,11 8,0 17,-4 26,-11 8,-6 13,-13 15,-20 1,-7 0,-16 -4,-25 -4,-10 -11,-21 -19,-33 -9,-13 -20,-27 -33,-44 -12,-16 -24,-31 -34,-43 -11,-13 -21,-23 -30,-31 -9,-7 -18,-12 -27,-13 -8,-2 -17,1 -26,8 z m 100,244 c -15,5 -29,6 -42,5 -13,-1 -27,-6 -40,-14 -14,-8 -28,-19 -42,-34 -15,-15 -31,-34 -48,-57 -25,-32 -46,-61 -61,-85 -15,-24 -24,-46 -27,-65 -2,-20 1,-38 11,-56 10,-17 28,-35 53,-55 25,-19 48,-30 68,-33 21,-3 40,0 59,10 19,10 38,26 58,48 19,22 40,47 63,77 14,19 27,36 38,50 11,14 20,27 26,39 6,12 10,23 11,35 1,12 0,25 -4,40 l 36,-27 c 13,-10 22,-20 26,-28 4,-9 4,-19 0,-31 -4,-12 -12,-26 -24,-43 -12,-17 -29,-39 -49,-65 -17,-22 -30,-36 -39,-42 -10,-6 -21,-5 -34,4 l -93,-121 c 23,-17 45,-26 65,-27 21,0 43,7 65,22 23,15 47,38 74,69 27,31 58,69 93,115 24,30 42,58 56,83 14,25 22,48 25,68 3,21 -1,41 -10,59 -10,18 -26,36 -49,54 l -222,171 -96,-125 53,-41 z"
       inkscape:connector-curvature="0"
       style="fill:#ffffff;fill-rule:nonzero" /><path
       class="fil4"
       d="m -3250,12493 -34,-60 560,8 39,68 -276,488 -34,-58 63,-109 -193,-337 -125,0 z m 181,0 165,289 162,-286 -327,-3 z m 408,779 c -23,7 -46,5 -70,-5 -24,-10 -51,-34 -82,-74 -50,-64 -75,-114 -73,-148 1,-35 20,-66 55,-93 l 8,-7 157,-123 31,40 -146,115 c -38,30 -57,57 -55,83 3,24 21,57 53,99 34,43 65,71 92,85 27,13 60,4 99,-26 l 146,-115 31,40 -267,209 -31,-39 52,-41 z m 286,-2 c 19,-10 39,-12 61,-7 22,5 49,23 81,53 47,44 74,81 82,111 7,29 -10,66 -51,109 l -11,12 -36,-35 c 29,-31 44,-56 45,-76 1,-20 -14,-45 -46,-75 l -12,-12 c -36,-34 -66,-53 -91,-58 -24,-4 -52,10 -84,43 l -131,138 -36,-35 234,-246 36,35 -41,43 z m 451,311 c 47,33 81,61 101,82 20,22 31,47 31,76 1,30 -14,66 -45,109 -46,65 -88,97 -124,96 -37,-1 -92,-27 -166,-79 -65,-47 -106,-88 -121,-123 -15,-35 -1,-83 42,-144 31,-43 61,-72 89,-86 29,-14 58,-13 88,3 9,5 20,10 32,17 12,6 22,12 30,18 l 43,31 z m -176,248 c 27,20 50,35 68,45 18,10 35,16 50,19 28,6 57,-13 89,-58 25,-34 40,-64 46,-88 6,-24 0,-45 -18,-63 l -46,-40 -44,-31 -12,-9 c -45,-32 -80,-48 -105,-47 -25,0 -54,23 -87,70 -31,43 -43,78 -36,104 7,26 33,55 79,87 l 16,11 z m 436,1 c 16,-14 36,-22 58,-22 23,0 53,11 91,33 56,32 91,62 105,89 14,26 6,66 -24,118 l -8,14 -43,-25 c 22,-37 30,-66 27,-86 -4,-19 -25,-40 -62,-62 l -15,-8 c -43,-25 -77,-37 -102,-35 -25,1 -49,22 -72,61 l -95,165 -43,-26 169,-293 44,25 -30,52 z m 536,511 c -13,10 -27,16 -41,18 -6,0 -14,0 -22,-1 -8,-1 -17,-3 -25,-6 l -88,-31 -41,-16 c -55,-22 -89,-44 -101,-68 -12,-23 -12,-50 0,-81 14,-33 29,-55 47,-64 18,-9 39,-11 63,-4 l 62,19 49,20 87,37 c 17,7 29,14 37,22 7,9 14,22 18,40 l 14,-34 c 7,-19 12,-36 14,-50 2,-13 -1,-26 -9,-38 -5,-6 -11,-12 -20,-18 -8,-6 -19,-11 -31,-16 l -56,-25 -44,-17 c -8,-3 -15,-5 -23,-8 -8,-3 -19,-6 -32,-9 -13,-3 -24,-2 -34,5 -10,6 -18,18 -25,34 l -51,-20 c 13,-34 30,-55 50,-62 19,-8 41,-8 64,-1 23,6 41,12 55,16 13,4 26,9 39,14 l 75,32 c 18,7 39,19 61,36 20,15 31,33 33,56 2,23 -3,49 -15,79 l -77,197 -47,-18 14,-38 z m -158,-64 14,6 c 8,3 18,7 32,12 13,6 23,9 28,11 8,3 15,6 21,7 6,1 19,3 40,5 21,2 36,-9 46,-34 8,-21 7,-37 -4,-47 -10,-11 -23,-21 -39,-30 l -51,-23 -42,-16 c -32,-13 -55,-21 -68,-25 -13,-3 -26,-5 -39,-5 -12,-1 -22,3 -29,10 -8,7 -13,16 -18,28 -6,15 -6,30 0,43 6,13 24,25 54,37 l 55,21 z m 543,218 -58,-7 62,-478 58,8 -27,207 445,57 26,-207 58,8 -62,477 -58,-7 29,-223 -444,-57 -29,222 z m 830,-279 c 58,-1 101,1 130,6 29,5 53,19 71,43 18,23 28,61 29,114 2,80 -12,130 -42,151 -31,22 -91,33 -181,35 -80,2 -137,-7 -170,-26 -33,-19 -51,-66 -52,-140 -1,-54 5,-95 20,-123 14,-28 38,-44 71,-50 11,-1 23,-3 36,-5 14,-2 25,-3 35,-3 l 53,-2 z m 7,305 c 34,-1 61,-2 82,-5 20,-3 37,-8 51,-15 26,-11 38,-44 37,-99 -1,-43 -6,-75 -16,-98 -9,-23 -26,-36 -52,-40 l -61,-5 -53,2 -15,0 c -56,1 -93,9 -113,25 -20,15 -29,51 -28,108 1,53 12,88 33,105 21,16 60,24 116,23 l 19,-1 z m 334,-263 c 3,-21 14,-39 31,-54 17,-15 47,-26 91,-34 63,-11 109,-11 137,1 28,11 47,47 58,106 l 3,15 -49,9 c -8,-42 -19,-70 -35,-82 -16,-13 -45,-15 -88,-8 l -17,3 c -48,9 -81,21 -100,39 -18,17 -23,48 -15,93 l 33,187 -50,9 -59,-335 50,-8 10,59 z m 748,69 c -5,16 -12,29 -22,40 -5,4 -11,8 -18,13 -7,4 -15,7 -24,10 l -88,28 -43,12 c -57,16 -98,19 -121,8 -24,-12 -40,-33 -49,-65 -10,-35 -11,-61 -2,-79 9,-18 24,-32 47,-41 l 62,-23 50,-14 93,-23 c 17,-5 31,-7 42,-5 11,2 24,9 39,20 l -10,-34 c -6,-20 -12,-36 -19,-49 -7,-12 -17,-20 -31,-24 -7,-2 -15,-3 -26,-3 -10,0 -22,2 -34,6 l -60,15 -46,13 c -7,2 -15,4 -23,7 -8,3 -18,7 -30,12 -12,5 -21,14 -25,25 -4,11 -3,25 2,42 l -53,15 c -10,-35 -10,-61 1,-79 12,-18 28,-32 51,-40 22,-9 40,-16 53,-21 14,-4 27,-9 40,-12 l 79,-21 c 19,-5 42,-8 70,-8 25,0 45,8 60,25 15,17 27,41 36,72 l 58,203 -48,14 -11,-39 z m -165,46 14,-4 c 9,-3 20,-6 34,-10 14,-4 23,-7 29,-8 8,-2 15,-5 20,-8 6,-2 18,-9 35,-20 18,-10 23,-29 16,-54 -6,-22 -17,-34 -31,-36 -15,-3 -31,-2 -50,0 l -54,13 -43,12 c -33,10 -56,17 -69,22 -13,5 -24,12 -35,19 -10,7 -16,16 -17,26 -1,10 0,21 3,33 5,16 13,28 26,34 13,7 34,6 66,-3 l 56,-16 z m 497,-132 -60,34 8,-559 68,-39 488,276 -58,33 -109,-63 -337,194 0,124 z m 0,-180 289,-166 -285,-161 -4,327 z m 778,-410 c 7,23 5,46 -5,70 -10,23 -35,51 -74,81 -65,51 -114,75 -149,73 -34,-1 -65,-20 -92,-55 l -7,-8 -123,-157 40,-31 114,146 c 30,38 58,57 83,55 25,-2 58,-20 100,-53 43,-34 71,-64 85,-91 13,-27 5,-60 -26,-100 l -114,-146 39,-31 209,267 -40,32 -40,-52 z m -3,-288 c -10,-19 -13,-39 -8,-61 5,-22 23,-49 53,-81 45,-47 82,-74 111,-82 29,-7 66,10 109,51 l 12,11 -34,36 c -31,-29 -57,-44 -77,-45 -20,-1 -45,14 -75,46 l -12,12 c -34,36 -53,66 -58,90 -4,25 10,53 43,85 l 138,131 -35,36 -246,-234 35,-36 44,41 z m 494,-201 25,-27 37,-48 16,-22 5,-7 c 12,-17 21,-32 28,-44 7,-12 11,-24 14,-36 2,-12 2,-22 -2,-31 -3,-10 -10,-18 -19,-27 l 31,-43 c 36,25 49,57 39,94 -9,37 -31,79 -64,125 -37,52 -66,88 -87,109 -21,20 -47,31 -78,32 -31,2 -70,-14 -115,-46 -57,-40 -87,-78 -91,-114 -5,-36 14,-83 54,-140 l 20,-28 c 16,-22 30,-40 43,-56 13,-16 25,-29 36,-39 21,-19 46,-28 74,-28 29,1 65,16 107,46 l 14,10 -222,312 c 28,19 52,31 72,34 20,4 41,-5 63,-26 z m -138,-244 -23,33 c -17,23 -31,45 -40,64 -10,19 -14,36 -13,49 1,14 6,26 14,37 4,5 8,10 13,14 5,4 10,9 17,14 l 191,-269 c -11,-8 -23,-15 -34,-19 -12,-5 -23,-6 -35,-3 -12,2 -25,9 -40,22 -6,5 -14,13 -23,24 -9,10 -18,22 -27,34 z m 541,-399 c 8,14 13,28 13,42 0,7 -1,14 -2,22 -2,9 -5,17 -9,24 l -40,85 -20,39 c -28,53 -54,84 -78,93 -24,10 -51,7 -80,-8 -33,-17 -52,-34 -60,-53 -7,-19 -6,-39 3,-63 l 25,-59 25,-47 46,-84 c 8,-15 17,-27 26,-33 9,-7 23,-12 41,-15 l -32,-16 c -19,-10 -35,-16 -48,-20 -14,-3 -27,-2 -39,6 -6,3 -13,9 -20,17 -7,8 -14,17 -19,29 l -31,54 -21,42 c -4,7 -7,14 -11,22 -3,7 -7,18 -12,30 -4,13 -4,24 1,35 6,10 16,20 32,28 l -25,49 c -32,-17 -51,-36 -57,-56 -5,-20 -4,-42 5,-64 9,-22 17,-40 22,-53 6,-13 12,-25 18,-37 l 39,-72 c 9,-17 24,-36 43,-57 16,-18 36,-27 59,-27 22,1 48,9 77,23 l 188,97 -23,45 -36,-18 z m -80,150 7,-12 c 4,-8 9,-18 16,-31 7,-13 11,-22 14,-27 4,-7 6,-14 8,-20 2,-6 6,-19 10,-39 4,-21 -6,-37 -29,-49 -21,-11 -36,-11 -48,-2 -12,9 -23,21 -33,36 l -28,49 -21,39 c -16,31 -26,53 -31,66 -5,13 -8,25 -10,38 -2,12 1,22 7,30 6,8 15,15 26,21 15,7 29,9 43,4 13,-5 28,-21 42,-50 l 27,-53 z"
       id="path30"
       inkscape:connector-curvature="0"
       style="fill:#ffffff;fill-rule:nonzero" /><polygon
       class="fil0"
       points="1075,12480 0,11699 -1075,12480 -665,11216 -1740,10435 -411,10435 0,9170 411,10435 1740,10435 665,11216 "
       id="polygon32"
       style="fill:#ffffff" /><polygon
       class="fil2"
       points="572,11186 926,12274 0,11602 -926,12274 -572,11186 -1498,10513 -354,10513 0,9425 354,10513 1498,10513 "
       id="polygon34"
       style="fill:#064466" /></g></svg>