<?xml version="1.0" encoding="UTF-8" standalone="no"?>
<!-- Creator: CorelDRAW X7 -->

<svg
   xmlns:dc="http://purl.org/dc/elements/1.1/"
   xmlns:cc="http://creativecommons.org/ns#"
   xmlns:rdf="http://www.w3.org/1999/02/22-rdf-syntax-ns#"
   xmlns:svg="http://www.w3.org/2000/svg"
   xmlns="http://www.w3.org/2000/svg"
   xmlns:sodipodi="http://sodipodi.sourceforge.net/DTD/sodipodi-0.dtd"
   xmlns:inkscape="http://www.inkscape.org/namespaces/inkscape"
   xml:space="preserve"
   width="7.8740005in"
   height="7.8740005in"
   version="1.1"
   style="clip-rule:evenodd;fill-rule:evenodd;image-rendering:optimizeQuality;shape-rendering:geometricPrecision;text-rendering:geometricPrecision"
   viewBox="0 0 7874.0005 7874.0005"
   id="svg3635"
   inkscape:version="0.91 r13725"
   sodipodi:docname="Haqqislam - Sectorial - Qapu Khalqi - [N3] [Vyo].svg"><metadata
     id="metadata3674"><rdf:RDF><cc:Work
         rdf:about=""><dc:format>image/svg+xml</dc:format><dc:type
           rdf:resource="http://purl.org/dc/dcmitype/StillImage" /></cc:Work></rdf:RDF></metadata><sodipodi:namedview
     pagecolor="#ffffff"
     bordercolor="#666666"
     borderopacity="1"
     objecttolerance="10"
     gridtolerance="10"
     guidetolerance="10"
     inkscape:pageopacity="0"
     inkscape:pageshadow="2"
     inkscape:window-width="640"
     inkscape:window-height="480"
     id="namedview3672"
     showgrid="false"
     inkscape:zoom="0.23838384"
     inkscape:cx="736.83001"
     inkscape:cy="849.33005"
     inkscape:window-x="0"
     inkscape:window-y="0"
     inkscape:window-maximized="0"
     inkscape:current-layer="svg3635" /><defs
     id="defs3637"><style
       type="text/css"
       id="style3639"><![CDATA[
    .fil0 {fill:#749D25}
    .fil1 {fill:#E2001A}
    .fil2 {fill:white}
   ]]></style></defs><g
     id="Layer_x0020_1"
     transform="translate(3937,-7063)"><metadata
       id="CorelCorpID_0Corel-Layer" /><circle
       class="fil0"
       cy="11000"
       r="3937"
       id="circle3643"
       cx="0"
       style="fill:#749d25" /><circle
       class="fil1"
       cy="11000"
       r="3465"
       id="circle3645"
       cx="0"
       style="fill:#e2001a" /><g
       id="_778976960"><path
         class="fil2"
         d="m -413,8146 c 174,0 315,141 315,315 0,174 -141,315 -315,315 -35,0 -69,-6 -100,-17 -235,469 -97,1158 277,1552 -453,-177 -709,-846 -709,-1378 0,-433 276,-787 532,-787 z"
         id="path3648"
         inkscape:connector-curvature="0"
         style="fill:#ffffff" /><path
         class="fil2"
         d="m 413,8146 c -174,0 -315,141 -315,315 0,174 141,315 315,315 35,0 69,-6 100,-17 235,469 97,1158 -277,1552 453,-177 709,-846 709,-1378 0,-433 -276,-787 -532,-787 z"
         id="path3650"
         inkscape:connector-curvature="0"
         style="fill:#ffffff" /></g><g
       id="_778976896"><path
         class="fil2"
         d="m -2842,10511 c 53,-165 231,-256 396,-202 166,54 256,231 203,397 -11,33 -27,63 -47,90 374,368 1072,450 1562,216 -309,376 -1024,412 -1530,248 -412,-134 -663,-506 -584,-749 z"
         id="path3653"
         inkscape:connector-curvature="0"
         style="fill:#ffffff" /><path
         class="fil2"
         d="m -2587,9725 c -54,165 37,343 202,397 166,53 343,-37 397,-203 11,-33 16,-67 16,-100 518,-78 1131,266 1390,743 -29,-485 -586,-935 -1092,-1099 -412,-134 -834,18 -913,262 z"
         id="path3655"
         inkscape:connector-curvature="0"
         style="fill:#ffffff" /></g><g
       id="_778977856"><path
         class="fil2"
         d="m -1343,13552 c -141,-102 -172,-299 -70,-440 102,-140 299,-172 440,-69 28,20 52,44 71,71 466,-241 759,-879 688,-1418 262,410 76,1102 -236,1532 -255,350 -686,475 -893,324 z"
         id="path3658"
         inkscape:connector-curvature="0"
         style="fill:#ffffff" /><path
         class="fil2"
         d="m -2012,13066 c 141,102 338,71 440,-69 102,-141 71,-338 -70,-440 -28,-21 -59,-36 -90,-46 85,-517 602,-994 1136,-1092 -471,-123 -1071,268 -1383,698 -255,350 -240,799 -33,949 z"
         id="path3660"
         inkscape:connector-curvature="0"
         style="fill:#ffffff" /></g><g
       id="_778977504"><path
         class="fil2"
         d="m 2012,13066 c -141,102 -338,71 -440,-69 -102,-141 -71,-338 70,-440 28,-21 59,-36 90,-46 -85,-517 -602,-994 -1136,-1092 471,-123 1071,268 1383,698 255,350 240,799 33,949 z"
         id="path3663"
         inkscape:connector-curvature="0"
         style="fill:#ffffff" /><path
         class="fil2"
         d="m 1343,13552 c 141,-102 172,-299 70,-440 -102,-140 -299,-172 -440,-69 -28,20 -52,44 -71,71 -466,-241 -759,-879 -688,-1418 -262,410 -76,1102 236,1532 255,350 686,475 893,324 z"
         id="path3665"
         inkscape:connector-curvature="0"
         style="fill:#ffffff" /></g><g
       id="_778978272"><path
         class="fil2"
         d="m 2587,9725 c 54,165 -37,343 -202,397 -166,53 -343,-37 -397,-203 -11,-33 -16,-67 -16,-100 -518,-78 -1131,266 -1390,743 29,-485 586,-935 1092,-1099 412,-134 834,18 913,262 z"
         id="path3668"
         inkscape:connector-curvature="0"
         style="fill:#ffffff" /><path
         class="fil2"
         d="m 2842,10511 c -53,-165 -231,-256 -396,-202 -166,54 -256,231 -203,397 11,33 27,63 47,90 -374,368 -1072,450 -1562,216 309,376 1024,412 1530,248 412,-134 663,-506 584,-749 z"
         id="path3670"
         inkscape:connector-curvature="0"
         style="fill:#ffffff" /></g></g></svg>