<?xml version="1.0" encoding="UTF-8" standalone="no"?>
<!-- Creator: CorelDRAW X7 -->

<svg
   xmlns:dc="http://purl.org/dc/elements/1.1/"
   xmlns:cc="http://creativecommons.org/ns#"
   xmlns:rdf="http://www.w3.org/1999/02/22-rdf-syntax-ns#"
   xmlns:svg="http://www.w3.org/2000/svg"
   xmlns="http://www.w3.org/2000/svg"
   xmlns:sodipodi="http://sodipodi.sourceforge.net/DTD/sodipodi-0.dtd"
   xmlns:inkscape="http://www.inkscape.org/namespaces/inkscape"
   xml:space="preserve"
   width="7.8740005in"
   height="7.8740005in"
   version="1.1"
   style="clip-rule:evenodd;fill-rule:evenodd;image-rendering:optimizeQuality;shape-rendering:geometricPrecision;text-rendering:geometricPrecision"
   viewBox="0 0 7874.0005 7874.0005"
   id="svg3519"
   inkscape:version="0.91 r13725"
   sodipodi:docname="Combined Army - Sectorial - Shasvastii Expeditionary Force - [N3] [Vyo].svg"><metadata
     id="metadata3533"><rdf:RDF><cc:Work
         rdf:about=""><dc:format>image/svg+xml</dc:format><dc:type
           rdf:resource="http://purl.org/dc/dcmitype/StillImage" /></cc:Work></rdf:RDF></metadata><sodipodi:namedview
     pagecolor="#ffffff"
     bordercolor="#666666"
     borderopacity="1"
     objecttolerance="10"
     gridtolerance="10"
     guidetolerance="10"
     inkscape:pageopacity="0"
     inkscape:pageshadow="2"
     inkscape:window-width="640"
     inkscape:window-height="480"
     id="namedview3531"
     showgrid="false"
     inkscape:zoom="0.23838384"
     inkscape:cx="736.83001"
     inkscape:cy="849.33005"
     inkscape:window-x="0"
     inkscape:window-y="0"
     inkscape:window-maximized="0"
     inkscape:current-layer="svg3519" /><defs
     id="defs3521"><style
       type="text/css"
       id="style3523"><![CDATA[
    .fil0 {fill:#27357E}
    .fil1 {fill:#FFF700}
   ]]></style></defs><g
     id="Layer_x0020_1"
     transform="translate(3937,-7063)"><metadata
       id="CorelCorpID_0Corel-Layer" /><circle
       class="fil0"
       cy="11000"
       r="3937"
       id="circle3527"
       cx="0"
       style="fill:#27357e" /><path
       class="fil1"
       d="m 0,8323 c 1283,0 2323,1040 2323,2323 l 0,0 0,2795 -1260,-730 0,-2065 C 1063,10059 587,9583 0,9583 c -587,0 -1063,475 -1063,1062 l -1097,857 c -105,-265 -163,-554 -163,-856 0,-1283 1040,-2323 2323,-2323 z m -1189,4319 -1094,855 0,-1599 224,-176 1031,-805 c 120,456 535,792 1028,792 334,0 632,-154 827,-395 l 0,1503 c -257,98 -536,152 -827,152 -434,0 -841,-120 -1189,-327 z"
       id="path3529"
       inkscape:connector-curvature="0"
       style="fill:#fff700" /></g></svg>