<?xml version="1.0" encoding="UTF-8" standalone="no"?>
<!-- Creator: CorelDRAW X7 -->

<svg
   xmlns:dc="http://purl.org/dc/elements/1.1/"
   xmlns:cc="http://creativecommons.org/ns#"
   xmlns:rdf="http://www.w3.org/1999/02/22-rdf-syntax-ns#"
   xmlns:svg="http://www.w3.org/2000/svg"
   xmlns="http://www.w3.org/2000/svg"
   xmlns:sodipodi="http://sodipodi.sourceforge.net/DTD/sodipodi-0.dtd"
   xmlns:inkscape="http://www.inkscape.org/namespaces/inkscape"
   xml:space="preserve"
   width="7.8740005in"
   height="7.8740005in"
   version="1.1"
   style="clip-rule:evenodd;fill-rule:evenodd;image-rendering:optimizeQuality;shape-rendering:geometricPrecision;text-rendering:geometricPrecision"
   viewBox="0 0 7874.0005 7874.0005"
   id="svg2"
   inkscape:version="0.91 r13725"
   sodipodi:docname="Aleph - Main Logo - [N3] [Vyo].svg"><metadata
     id="metadata18"><rdf:RDF><cc:Work
         rdf:about=""><dc:format>image/svg+xml</dc:format><dc:type
           rdf:resource="http://purl.org/dc/dcmitype/StillImage" /></cc:Work></rdf:RDF></metadata><sodipodi:namedview
     pagecolor="#ffffff"
     bordercolor="#666666"
     borderopacity="1"
     objecttolerance="10"
     gridtolerance="10"
     guidetolerance="10"
     inkscape:pageopacity="0"
     inkscape:pageshadow="2"
     inkscape:window-width="640"
     inkscape:window-height="480"
     id="namedview16"
     showgrid="false"
     inkscape:zoom="0.23838384"
     inkscape:cx="736.83001"
     inkscape:cy="849.33005"
     inkscape:window-x="0"
     inkscape:window-y="0"
     inkscape:window-maximized="0"
     inkscape:current-layer="svg2" /><defs
     id="defs4"><style
       type="text/css"
       id="style6"><![CDATA[
    .fil0 {fill:black}
    .fil1 {fill:white}
   ]]></style></defs><g
     id="Layer_x0020_1"
     transform="translate(3937,-7063)"><metadata
       id="CorelCorpID_0Corel-Layer" /><circle
       class="fil0"
       cy="11000"
       r="3937"
       id="circle10"
       cx="0"
       style="fill:#000000" /><path
       class="fil1"
       d="m 276,7428 c 1849,140 3307,1686 3307,3572 0,554 -126,1079 -351,1548 l -605,-350 c -132,-76 -301,-31 -377,101 -76,132 -31,301 101,377 l 605,349 c -646,941 -1729,1558 -2956,1558 -1227,0 -2310,-617 -2956,-1558 l 605,-349 c 132,-76 177,-245 101,-377 -76,-132 -245,-177 -377,-101 l -605,350 c -225,-469 -351,-994 -351,-1548 0,-1886 1458,-3432 3307,-3572 l 0,698 c 0,152 124,276 276,276 152,0 276,-124 276,-276 l 0,-698 z"
       id="path12"
       inkscape:connector-curvature="0"
       style="fill:#ffffff" /><path
       class="fil0"
       d="m -1417,9863 1141,-659 0,930 c 0,152 124,275 276,275 152,0 276,-123 276,-275 l 0,-930 1141,659 960,-553 c 132,-77 300,-31 376,100 76,132 31,301 -101,377 l -959,554 0,1318 -805,-465 c -132,-76 -300,-31 -377,101 -76,132 -31,301 101,377 l 805,465 -1141,659 0,1108 c 0,152 -124,275 -276,275 -152,0 -276,-123 -276,-275 l 0,-1108 -1141,-659 805,-465 c 132,-76 177,-245 101,-377 -77,-132 -245,-177 -377,-101 l -805,465 0,-1318 -959,-554 c -132,-76 -177,-245 -101,-377 76,-131 244,-177 376,-100 l 960,553 z"
       id="path14"
       inkscape:connector-curvature="0"
       style="fill:#000000" /></g></svg>