<?xml version="1.0" encoding="UTF-8" standalone="no"?>
<!-- Creator: CorelDRAW X7 -->

<svg
   xmlns:dc="http://purl.org/dc/elements/1.1/"
   xmlns:cc="http://creativecommons.org/ns#"
   xmlns:rdf="http://www.w3.org/1999/02/22-rdf-syntax-ns#"
   xmlns:svg="http://www.w3.org/2000/svg"
   xmlns="http://www.w3.org/2000/svg"
   xmlns:sodipodi="http://sodipodi.sourceforge.net/DTD/sodipodi-0.dtd"
   xmlns:inkscape="http://www.inkscape.org/namespaces/inkscape"
   xml:space="preserve"
   width="7.8740005in"
   height="7.8740005in"
   version="1.1"
   style="clip-rule:evenodd;fill-rule:evenodd;image-rendering:optimizeQuality;shape-rendering:geometricPrecision;text-rendering:geometricPrecision"
   viewBox="0 0 7874.0005 7874.0005"
   id="svg3364"
   inkscape:version="0.91 r13725"
   sodipodi:docname="Ariadna - Main Logo - [N3] [Vyo].svg"><metadata
     id="metadata3380"><rdf:RDF><cc:Work
         rdf:about=""><dc:format>image/svg+xml</dc:format><dc:type
           rdf:resource="http://purl.org/dc/dcmitype/StillImage" /></cc:Work></rdf:RDF></metadata><sodipodi:namedview
     pagecolor="#ffffff"
     bordercolor="#666666"
     borderopacity="1"
     objecttolerance="10"
     gridtolerance="10"
     guidetolerance="10"
     inkscape:pageopacity="0"
     inkscape:pageshadow="2"
     inkscape:window-width="640"
     inkscape:window-height="480"
     id="namedview3378"
     showgrid="false"
     inkscape:zoom="0.23838384"
     inkscape:cx="736.83001"
     inkscape:cy="849.33005"
     inkscape:window-x="0"
     inkscape:window-y="0"
     inkscape:window-maximized="0"
     inkscape:current-layer="svg3364" /><defs
     id="defs3366"><style
       type="text/css"
       id="style3368"><![CDATA[
    .fil1 {fill:#009FE1}
    .fil2 {fill:#E2001A}
    .fil0 {fill:white}
   ]]></style></defs><g
     id="Layer_x0020_1"
     transform="translate(3937,-7063)"><metadata
       id="CorelCorpID_0Corel-Layer" /><circle
       class="fil0"
       cy="11000"
       r="3937"
       id="circle3372"
       cx="0"
       style="fill:#ffffff" /><path
       class="fil1"
       d="m 591,8267 c 1069,231 1911,1073 2142,2142 l -1315,0 C 1262,10036 964,9738 591,9582 l 0,-1315 z m 2142,3324 c -231,1069 -1073,1911 -2142,2142 l 0,-1315 c 373,-156 671,-454 827,-827 l 1315,0 z m -3324,2142 c -1069,-231 -1911,-1073 -2142,-2142 l 1315,0 c 156,373 454,671 827,827 l 0,1315 z m -2142,-3324 c 231,-1069 1073,-1911 2142,-2142 l 0,1315 c -373,156 -671,454 -827,827 l -1315,0 z"
       id="path3374"
       inkscape:connector-curvature="0"
       style="fill:#009fe1" /><path
       class="fil2"
       d="m 591,9582 c 373,156 671,454 827,827 l 2475,0 c 29,193 44,390 44,591 0,201 -15,398 -44,591 l -2475,0 c -156,373 -454,671 -827,827 l 0,2475 c -193,29 -390,44 -591,44 -201,0 -398,-15 -591,-44 l 0,-2475 c -373,-156 -671,-454 -827,-827 l -2475,0 c -29,-193 -44,-390 -44,-591 0,-201 15,-398 44,-591 l 2475,0 c 156,-373 454,-671 827,-827 l 0,-2475 c 193,-29 390,-44 591,-44 201,0 398,15 591,44 l 0,2475 z"
       id="path3376"
       inkscape:connector-curvature="0"
       style="fill:#e2001a" /></g></svg>