<?xml version="1.0" encoding="UTF-8" standalone="no"?>
<!-- Creator: CorelDRAW X7 -->

<svg
   xmlns:dc="http://purl.org/dc/elements/1.1/"
   xmlns:cc="http://creativecommons.org/ns#"
   xmlns:rdf="http://www.w3.org/1999/02/22-rdf-syntax-ns#"
   xmlns:svg="http://www.w3.org/2000/svg"
   xmlns="http://www.w3.org/2000/svg"
   xmlns:sodipodi="http://sodipodi.sourceforge.net/DTD/sodipodi-0.dtd"
   xmlns:inkscape="http://www.inkscape.org/namespaces/inkscape"
   xml:space="preserve"
   width="7.8740005in"
   height="7.8740005in"
   version="1.1"
   style="clip-rule:evenodd;fill-rule:evenodd;image-rendering:optimizeQuality;shape-rendering:geometricPrecision;text-rendering:geometricPrecision"
   viewBox="0 0 7874.0005 7874.0005"
   id="svg3382"
   inkscape:version="0.91 r13725"
   sodipodi:docname="Ariadna - Sectorial - Caledonian Highlander Army v2 - [N3] [Vyo].svg"><metadata
     id="metadata3400"><rdf:RDF><cc:Work
         rdf:about=""><dc:format>image/svg+xml</dc:format><dc:type
           rdf:resource="http://purl.org/dc/dcmitype/StillImage" /></cc:Work></rdf:RDF></metadata><sodipodi:namedview
     pagecolor="#ffffff"
     bordercolor="#666666"
     borderopacity="1"
     objecttolerance="10"
     gridtolerance="10"
     guidetolerance="10"
     inkscape:pageopacity="0"
     inkscape:pageshadow="2"
     inkscape:window-width="640"
     inkscape:window-height="480"
     id="namedview3398"
     showgrid="false"
     inkscape:zoom="0.23838384"
     inkscape:cx="736.83001"
     inkscape:cy="849.33005"
     inkscape:window-x="0"
     inkscape:window-y="0"
     inkscape:window-maximized="0"
     inkscape:current-layer="svg3382" /><defs
     id="defs3384"><style
       type="text/css"
       id="style3386"><![CDATA[
    .fil1 {fill:#034871}
    .fil2 {fill:#E32527}
    .fil0 {fill:white}
   ]]></style></defs><g
     id="Layer_x0020_1"
     transform="translate(3937,-7063)"><metadata
       id="CorelCorpID_0Corel-Layer" /><circle
       class="fil0"
       cy="11000"
       r="3937"
       id="circle3390"
       cx="0"
       style="fill:#ffffff" /><path
       class="fil1"
       d="m 0,7063 c 33,0 65,0 98,1 l 7,0 c 32,1 64,2 96,4 l 4,0 c 31,2 63,4 94,6 l 7,1 c 32,2 63,5 94,8 l 6,1 c 31,3 61,6 91,10 l 7,1 c 31,4 62,8 92,13 l 8,1 c 30,5 59,10 88,15 l 8,1 c 29,5 59,11 88,17 l 11,2 c 29,6 58,12 86,19 l 6,1 c 29,7 58,14 87,21 l 12,4 c 28,7 56,14 84,22 l 9,3 c 27,8 54,16 80,24 5,1 10,3 14,4 27,9 54,17 81,26 4,2 8,3 12,5 25,8 50,17 75,26 5,2 10,3 15,5 26,10 52,20 78,30 5,2 10,4 15,6 23,9 47,19 70,29 5,2 10,4 15,6 25,11 50,21 75,32 5,3 11,6 17,8 22,10 45,21 67,32 6,2 12,5 18,8 23,11 46,23 68,34 7,3 13,7 19,10 22,11 43,22 64,34 7,3 14,7 21,11 21,11 42,23 62,35 7,4 14,7 20,11 21,12 42,24 62,37 7,4 15,9 22,13 19,12 39,24 58,36 7,5 13,9 20,13 20,13 41,27 61,41 7,4 14,9 21,13 18,13 36,26 55,38 368,261 690,583 950,951 13,18 26,37 39,55 4,7 9,14 13,20 14,21 28,42 41,63 4,6 8,12 12,19 13,19 25,39 37,59 4,6 8,13 13,20 12,21 25,42 37,63 4,7 7,13 11,19 12,21 24,43 36,64 3,6 6,12 10,19 11,21 23,43 35,66 3,5 5,11 8,17 12,23 24,47 35,70 3,6 5,11 8,16 11,23 22,46 32,69 3,5 5,10 7,16 12,25 23,50 33,75 2,5 4,9 6,14 10,24 20,48 30,72 1,5 3,9 5,14 10,26 20,52 30,79 2,4 3,9 5,13 9,25 18,51 27,76 1,4 2,8 3,11 10,28 19,55 27,83 l 4,12 c 8,27 17,54 24,82 l 2,6 c 8,29 16,58 24,87 l 2,11 c 8,29 15,58 22,87 l 1,5 c 7,29 13,58 19,87 l 2,10 c 6,30 12,60 17,90 l 1,6 c 5,30 10,59 15,89 l 1,8 c 5,30 9,61 13,92 l 1,7 c 4,30 7,60 10,91 l 1,6 c 3,31 6,62 8,94 l 1,7 c 2,31 4,63 6,94 l 0,4 c 2,32 3,64 4,96 l 0,7 c 1,33 1,65 1,98 0,33 0,65 -1,98 l 0,7 c -1,32 -2,64 -4,96 l 0,4 c -2,31 -4,63 -6,94 l -1,7 c -2,32 -5,63 -8,94 l -1,6 c -3,31 -6,61 -10,91 l -1,7 c -4,31 -8,62 -13,92 l -1,8 c -5,30 -10,59 -15,88 l -1,8 c -5,29 -11,59 -17,88 l -2,11 c -6,29 -12,58 -19,86 l -1,6 c -7,29 -14,58 -21,87 l -4,12 c -7,28 -14,56 -22,84 l -3,9 c -8,27 -16,54 -24,80 -1,5 -3,10 -4,14 -9,27 -17,54 -26,81 -2,4 -3,8 -5,12 -8,25 -17,50 -26,75 -2,5 -3,10 -5,15 -10,26 -20,52 -30,78 -2,5 -4,10 -6,15 -9,23 -19,47 -29,70 -2,5 -4,10 -6,15 -11,25 -21,50 -32,75 -3,5 -6,11 -8,17 -10,22 -21,45 -32,67 -2,6 -5,12 -8,18 -11,23 -23,46 -34,68 -3,7 -7,13 -10,19 -11,22 -22,43 -34,64 -3,7 -7,14 -11,21 -11,21 -23,42 -35,62 -4,7 -7,14 -11,20 -12,21 -24,42 -37,62 -4,7 -9,15 -13,22 -12,19 -24,39 -36,58 -5,7 -9,13 -13,20 -13,20 -27,41 -40,61 -5,7 -10,14 -14,21 -13,18 -26,36 -38,55 -261,368 -583,690 -951,950 -18,13 -37,26 -56,39 -6,4 -13,9 -19,13 -21,14 -42,28 -63,41 -6,4 -12,8 -18,12 -20,13 -40,25 -60,37 -6,4 -13,8 -20,13 -21,12 -42,25 -64,37 -6,4 -12,7 -18,11 -21,12 -43,24 -64,36 -6,3 -12,6 -19,10 -21,12 -44,23 -66,35 -5,3 -11,5 -17,8 -23,12 -47,24 -71,36 -5,2 -10,4 -15,7 -23,11 -46,22 -69,32 -5,3 -10,5 -16,7 -25,12 -50,23 -75,33 -5,2 -9,4 -14,6 -24,10 -48,20 -72,30 -5,1 -9,3 -14,5 -26,10 -52,20 -79,30 -4,2 -8,3 -13,5 -25,9 -51,18 -77,27 -3,1 -7,2 -10,3 -28,10 -55,19 -83,27 l -12,4 c -27,8 -54,17 -82,24 l -6,2 c -29,8 -58,16 -87,24 l -11,2 c -29,8 -58,15 -87,22 l -5,1 c -29,7 -58,13 -87,19 l -10,2 c -30,6 -60,12 -90,17 l -6,1 c -29,5 -59,10 -89,15 l -8,1 c -30,5 -61,9 -92,13 l -7,1 c -30,4 -60,7 -91,10 l -6,1 c -31,3 -62,6 -94,8 l -7,1 c -31,2 -63,4 -94,6 l -4,0 c -32,2 -64,3 -96,4 l -7,0 c -33,1 -65,1 -98,1 -33,0 -65,0 -98,-1 l -7,0 c -32,-1 -64,-2 -96,-4 l -4,0 c -31,-2 -63,-4 -94,-6 l -7,-1 c -32,-2 -63,-5 -94,-8 l -6,-1 c -31,-3 -61,-6 -91,-10 l -7,-1 c -31,-4 -62,-8 -92,-13 l -8,-1 c -30,-5 -60,-10 -89,-15 l -6,-1 c -30,-5 -60,-11 -90,-17 l -10,-2 c -29,-6 -58,-12 -87,-19 l -5,-1 c -29,-7 -58,-14 -87,-22 l -11,-2 c -29,-8 -58,-16 -87,-24 l -6,-2 c -28,-7 -55,-16 -82,-24 -4,-1 -8,-3 -12,-4 -28,-8 -55,-17 -83,-27 -3,-1 -7,-2 -10,-3 -26,-9 -52,-18 -77,-27 -5,-2 -9,-3 -13,-5 -27,-10 -53,-20 -79,-30 -5,-2 -9,-4 -14,-5 -24,-10 -48,-20 -72,-30 -5,-2 -9,-4 -14,-6 -25,-10 -50,-21 -75,-33 -6,-2 -11,-4 -16,-7 -23,-10 -46,-21 -69,-32 -5,-3 -10,-5 -15,-7 -24,-12 -48,-24 -71,-36 -6,-3 -12,-5 -17,-8 -22,-12 -45,-23 -66,-35 -7,-4 -13,-7 -19,-10 -21,-12 -43,-24 -64,-36 -6,-4 -12,-7 -18,-11 -22,-12 -43,-25 -64,-37 -7,-5 -14,-9 -20,-13 -20,-12 -40,-24 -60,-37 -6,-4 -12,-8 -18,-12 -21,-13 -42,-27 -63,-41 -6,-4 -13,-9 -19,-13 -19,-13 -38,-26 -56,-39 -368,-260 -690,-582 -951,-950 -12,-18 -25,-37 -38,-55 -4,-7 -9,-14 -14,-21 -13,-20 -27,-41 -40,-61 -4,-7 -8,-13 -13,-20 -12,-19 -24,-39 -36,-58 -4,-7 -9,-15 -13,-22 -13,-20 -25,-41 -37,-62 -4,-6 -7,-13 -11,-20 -12,-20 -24,-41 -35,-62 -4,-7 -8,-14 -11,-21 -12,-21 -23,-42 -34,-64 -3,-6 -7,-12 -10,-19 -11,-22 -23,-45 -34,-68 -3,-6 -6,-12 -8,-18 -11,-22 -22,-45 -32,-67 -2,-6 -5,-12 -8,-17 -11,-25 -21,-50 -32,-75 -2,-5 -4,-10 -6,-15 -10,-23 -20,-47 -29,-70 -2,-5 -4,-10 -6,-15 -10,-26 -20,-52 -30,-78 -2,-5 -3,-10 -5,-15 -9,-25 -18,-50 -26,-75 -2,-4 -3,-8 -5,-12 -9,-27 -17,-54 -26,-81 -1,-4 -3,-9 -4,-14 -8,-26 -16,-53 -24,-80 -1,-3 -2,-6 -3,-9 -8,-28 -15,-56 -22,-84 l -4,-12 c -7,-29 -14,-58 -21,-87 l -1,-6 c -7,-28 -13,-57 -19,-86 l -2,-11 c -6,-29 -12,-59 -17,-88 l -1,-8 c -5,-29 -10,-58 -15,-88 l -1,-8 c -5,-30 -9,-61 -13,-92 l -1,-7 c -4,-30 -7,-60 -10,-91 l -1,-6 c -3,-31 -6,-62 -8,-94 l -1,-7 c -2,-31 -4,-63 -6,-94 l 0,-4 c -2,-32 -3,-64 -4,-96 l 0,-7 c -1,-33 -1,-65 -1,-98 0,-33 0,-65 1,-98 l 0,-7 c 1,-32 2,-64 4,-96 l 0,-4 c 2,-31 4,-63 6,-94 l 1,-7 c 2,-32 5,-63 8,-94 l 1,-6 c 3,-31 6,-61 10,-91 l 1,-7 c 4,-31 8,-62 13,-92 l 1,-8 c 5,-30 10,-59 15,-88 l 1,-8 c 5,-29 11,-59 17,-88 l 2,-11 c 6,-29 12,-58 19,-86 l 1,-6 c 7,-29 14,-58 21,-87 l 4,-12 c 7,-28 14,-56 22,-84 l 3,-9 c 8,-27 16,-54 24,-80 1,-5 3,-10 4,-14 9,-27 17,-54 26,-81 2,-4 3,-8 5,-12 8,-25 17,-50 26,-75 2,-5 3,-10 5,-15 10,-26 20,-52 30,-78 2,-5 4,-10 6,-15 9,-23 19,-47 29,-70 2,-5 4,-10 6,-15 11,-25 21,-50 32,-75 3,-5 6,-11 8,-17 10,-22 21,-45 32,-67 2,-6 5,-12 8,-18 11,-23 23,-46 34,-68 3,-7 7,-13 10,-19 11,-22 22,-43 34,-64 3,-7 7,-14 11,-21 11,-21 23,-42 35,-62 4,-7 7,-14 11,-20 12,-21 24,-42 37,-62 4,-7 9,-15 13,-22 12,-19 24,-39 36,-58 5,-7 9,-13 13,-20 13,-20 27,-41 40,-61 5,-7 10,-14 14,-21 13,-18 26,-36 38,-55 261,-368 583,-690 951,-950 18,-13 37,-26 56,-39 6,-4 13,-9 19,-13 21,-14 42,-28 63,-41 6,-4 12,-8 18,-12 20,-13 40,-25 60,-37 6,-4 13,-8 20,-13 21,-12 42,-25 64,-37 6,-4 12,-7 18,-11 21,-12 43,-24 64,-36 6,-3 12,-6 19,-10 21,-12 44,-23 66,-35 5,-3 11,-5 17,-8 23,-12 47,-24 71,-35 5,-3 10,-5 15,-8 23,-11 46,-22 69,-32 5,-3 10,-5 16,-7 25,-12 50,-23 75,-33 5,-2 9,-4 14,-6 24,-10 48,-20 72,-30 5,-1 9,-3 14,-5 26,-10 52,-20 79,-30 4,-2 8,-3 13,-5 25,-9 51,-18 77,-27 3,-1 7,-2 10,-3 28,-10 55,-19 83,-27 l 12,-4 c 27,-8 54,-17 82,-24 l 6,-2 c 29,-8 58,-16 87,-24 l 11,-2 c 29,-8 58,-15 87,-22 l 5,-1 c 29,-7 58,-13 87,-19 l 10,-2 c 30,-6 60,-12 90,-17 l 6,-1 c 29,-5 59,-10 89,-15 l 8,-1 c 30,-5 61,-9 92,-13 l 7,-1 c 30,-4 60,-7 91,-10 l 6,-1 c 31,-3 62,-6 94,-8 l 7,-1 c 31,-2 63,-4 94,-6 l 4,0 c 32,-2 64,-3 96,-4 l 7,0 c 33,-1 65,-1 98,-1 z M 2230,7851 0,10081 -2230,7851 c -356,252 -667,563 -919,919 l 2230,2230 -2230,2230 c 252,356 563,667 919,919 L 0,11919 2230,14149 c 356,-252 667,-563 919,-919 L 919,11000 3149,8770 c -252,-356 -563,-667 -919,-919 z"
       id="path3392"
       inkscape:connector-curvature="0"
       style="fill:#034871" /><path
       class="fil0"
       d="m -491,9609 c -53,-15 -101,-56 -126,-105 -10,-20 -17,-54 -23,-76 -2,-9 -8,-31 -14,-43 -43,-5 -74,-31 -74,-78 0,-41 27,-69 69,-69 44,0 119,71 154,105 -6,-35 -7,-67 -7,-105 0,-58 74,-108 128,-108 17,0 29,2 44,9 0,0 1,0 1,1 1,0 3,0 4,0 4,0 7,0 10,-1 20,-1 42,-8 62,-13 28,-8 55,-13 84,-15 0,-2 1,-3 1,-4 2,-28 3,-57 32,-71 28,-14 56,-13 86,-14 20,-1 40,2 60,6 25,6 50,15 74,22 6,2 24,7 33,8 1,-4 1,-8 1,-11 3,-20 15,-33 32,-41 14,-7 27,-8 41,-8 4,0 10,1 14,1 22,-17 39,-40 61,-57 19,-14 38,-23 61,-28 14,-3 27,2 36,12 10,10 13,23 10,36 -11,43 12,75 8,117 24,2 48,8 67,23 36,28 44,74 44,117 0,66 -12,98 -43,135 48,32 79,79 96,137 16,54 16,105 16,161 0,35 7,72 18,105 5,17 19,36 29,50 18,28 32,56 32,91 0,19 -14,36 -34,39 1,0 3,0 4,0 19,6 46,10 63,-4 30,-24 32,-96 31,-132 -1,-41 -7,-82 -14,-123 -3,-13 1,-25 11,-35 8,-8 16,-15 25,-20 -2,-15 -7,-29 -14,-43 -7,-16 -4,-33 8,-45 6,-6 13,-10 20,-13 -3,-14 -4,-29 -1,-44 2,-12 8,-21 18,-27 3,-2 7,-4 11,-5 0,-5 1,-11 3,-16 6,-15 19,-24 35,-24 6,-5 11,-22 12,-28 1,-8 5,-14 11,-20 68,-69 169,-90 264,-90 216,0 334,171 334,374 0,91 -22,157 -71,230 72,28 127,92 135,173 4,37 -2,73 -19,106 -6,13 -17,21 -31,22 -13,1 -26,-4 -35,-15 -22,-28 -66,-55 -105,-70 59,58 77,142 77,223 0,16 -9,30 -24,36 -15,7 -32,3 -43,-8 -58,-58 -147,-87 -228,-87 -16,0 -38,2 -51,12 -10,7 -15,21 -18,35 27,-3 55,0 80,6 77,20 133,77 171,144 8,14 7,31 -3,43 -9,12 -23,18 -37,16 29,23 52,56 63,98 4,13 1,27 -9,37 -10,10 -23,15 -37,12 -36,-7 -63,-2 -80,17 36,-5 74,-2 106,4 17,3 29,16 31,33 1,7 0,13 -2,19 46,14 71,58 74,118 2,21 -14,39 -35,41 -101,10 -174,66 -174,172 0,20 3,43 5,64 4,36 10,89 -19,117 9,50 2,100 -27,145 -58,90 -186,127 -289,143 -47,80 -126,228 -123,307 1,23 22,52 38,68 15,16 47,42 70,42 51,0 61,5 97,41 27,27 41,37 41,77 0,26 0,52 0,79 0,17 -3,33 -15,46 -13,15 -34,19 -51,29 -5,3 -16,8 -23,12 0,0 0,1 0,1 0,15 22,50 30,64 22,39 39,77 39,123 0,53 -34,100 -75,130 -10,8 -24,10 -36,6 -7,-2 -12,-6 -16,-10 -6,95 -35,198 -105,250 -10,8 -21,10 -33,7 -12,-3 -21,-10 -26,-21 -5,-11 -12,-19 -19,-25 0,27 -1,54 -5,81 -10,77 -39,166 -108,210 -41,27 -89,32 -137,21 -20,-5 -34,-25 -30,-46 5,-22 5,-39 -1,-56 -63,17 -137,68 -181,104 -9,7 -19,10 -30,8 -12,-1 -21,-7 -27,-16 -44,-61 -42,-139 -5,-200 -36,-15 -78,-13 -113,3 -13,5 -26,4 -37,-3 -12,-8 -18,-19 -18,-33 -1,-59 35,-113 76,-153 20,-19 45,-39 72,-55 -26,-12 -53,-20 -79,-25 -15,-3 -26,-14 -30,-28 -4,-15 0,-30 12,-40 112,-103 243,-106 368,-32 40,-11 74,-61 92,-92 19,-35 48,-102 48,-142 0,-57 -30,-83 -67,-120 -7,-7 -15,-13 -24,-17 -17,-9 -37,-16 -55,-22 -25,-9 -48,-18 -70,-33 -60,-40 -89,-104 -103,-171 -21,-6 -39,-5 -62,5 -14,7 -28,15 -43,21 -22,8 -44,12 -68,12 -75,0 -168,-21 -247,-48 20,77 69,169 103,224 17,25 9,56 -11,72 3,66 -7,127 -32,190 -21,51 -51,97 -72,148 -4,10 -11,18 -22,22 -11,4 -22,3 -32,-2 -3,-2 -7,-4 -10,-6 -18,29 -42,57 -66,78 -41,37 -95,70 -152,70 -20,0 -36,-14 -39,-33 -2,1 -4,2 -6,3 -27,15 -53,50 -74,74 -10,12 -20,23 -31,34 -12,11 -24,22 -37,32 -71,57 -148,75 -229,20 -12,-8 -18,-21 -17,-36 2,-14 10,-26 23,-32 11,-6 18,-27 31,-47 -20,-8 -41,-11 -62,-11 -20,1 -61,6 -77,18 -12,9 -26,10 -40,4 -13,-6 -21,-17 -23,-32 -8,-80 6,-135 56,-182 -32,-22 -67,-32 -111,-39 -14,-2 -26,-11 -31,-25 -5,-13 -3,-28 7,-39 33,-40 92,-74 150,-97 -14,-8 -28,-13 -41,-17 -15,-3 -25,-14 -29,-29 -3,-14 1,-29 13,-39 78,-67 195,-46 281,-6 5,2 9,4 14,7 26,13 50,28 76,42 13,6 33,17 48,17 30,0 98,-65 120,-87 11,-11 65,-63 70,-80 -2,-5 -10,-14 -13,-17 -14,-16 -28,-31 -41,-48 -33,-44 -61,-99 -83,-150 -25,-57 -63,-157 -63,-219 0,-82 93,-112 159,-127 13,-3 24,-7 33,-17 6,-7 12,-16 17,-23 8,-13 16,-25 25,-36 28,-35 63,-60 104,-79 58,-26 119,-37 182,-30 21,2 41,7 61,11 7,2 21,6 29,6 1,-7 1,-16 1,-20 0,-17 -10,-26 -26,-32 -87,-38 -176,-73 -265,-108 -40,-16 -74,-44 -97,-80 -18,-29 -27,-60 -28,-91 -3,22 -4,50 -4,62 0,23 0,51 5,73 3,14 -1,27 -11,37 -10,10 -23,14 -37,10 -28,-7 -49,-31 -66,-55 -1,4 -3,7 -4,11 -13,30 -36,56 -57,81 -14,16 -40,40 -40,63 0,14 -7,26 -19,33 -12,8 -26,8 -38,2 -31,-15 -51,-37 -62,-64 -8,7 -16,15 -26,21 -17,13 -25,24 -29,44 -4,15 -6,31 -10,46 -6,23 -17,43 -32,61 -51,61 -139,70 -196,13 -9,-10 -13,-22 -11,-35 2,-12 10,-23 21,-28 5,-3 17,-13 25,-22 -13,-2 -30,-2 -37,-2 -36,0 -66,14 -83,47 -6,13 -18,20 -32,21 -14,2 -27,-5 -35,-16 -36,-52 -47,-111 -26,-170 4,-12 10,-24 17,-35 -24,1 -46,7 -67,19 -12,7 -25,8 -38,1 -12,-6 -20,-18 -21,-32 -5,-61 13,-119 62,-158 -6,1 -13,3 -20,6 -13,4 -25,2 -36,-6 -10,-7 -16,-19 -16,-32 0,-99 85,-196 187,-196 49,0 93,12 133,40 14,9 27,20 40,32 4,3 7,6 11,9 119,-56 259,-167 293,-299 -98,-38 -216,-154 -278,-217 -13,-12 -21,-28 -24,-44 -73,-16 -136,-54 -171,-124 -5,-11 -6,-23 0,-34 3,-8 9,-14 16,-18 -73,-7 -132,-49 -147,-136 -3,-14 2,-28 13,-37 11,-9 25,-12 39,-7 15,6 35,10 51,4 7,-2 14,-6 16,-13 6,-15 -13,-32 -24,-39 -13,-9 -28,-15 -43,-21 -19,-8 -39,-16 -58,-27 -53,-31 -83,-75 -93,-136 -2,-14 3,-28 14,-37 12,-9 26,-11 40,-6 29,12 51,16 75,7 -6,-11 -16,-21 -23,-26 -18,-12 -23,-35 -12,-53 10,-18 -5,-53 -14,-68 -10,-17 -25,-36 -42,-45 -13,-9 -20,-23 -18,-39 2,-16 12,-29 28,-33 45,-13 91,-12 133,3 -2,-7 -4,-14 -7,-21 -6,-14 -20,-40 -35,-47 -14,-7 -22,-21 -21,-37 1,-16 10,-29 25,-35 32,-12 65,-16 98,-13 -4,-6 -6,-14 -5,-22 1,-16 11,-28 25,-34 59,-22 124,-27 176,15 59,48 74,137 74,209 0,39 -4,74 -9,112 -1,11 -3,26 -3,39 4,3 7,6 11,10 14,15 17,35 17,56 0,19 -2,38 -4,57 61,83 116,160 209,212 4,3 7,5 10,9 61,-49 133,-87 201,-115 38,-16 78,-30 118,-43 -22,-2 -41,-18 -56,-34 -22,-22 -27,-84 -27,-114 -1,-21 0,-49 7,-74 z m 802,972 c 2,3 4,6 6,10 48,123 121,233 221,320 63,56 105,120 147,192 22,38 55,99 94,121 15,9 31,12 48,12 5,0 10,-1 15,-2 28,-9 48,-41 60,-67 18,-41 26,-91 26,-136 -1,-27 -4,-54 -11,-80 -13,-47 -31,-93 -49,-139 -37,-91 -75,-179 -99,-275 -22,-89 -25,-179 -1,-268 20,-77 58,-146 107,-209 31,-40 85,-97 137,-159 -35,15 -72,22 -110,20 -2,17 -6,34 -12,50 -9,26 -22,50 -42,69 -82,82 -203,22 -281,-32 -16,-11 -22,-32 -13,-49 4,-10 11,-16 20,-20 -22,1 -43,0 -63,-3 2,5 5,11 7,16 12,26 23,51 34,76 6,14 14,33 22,45 18,27 32,32 44,68 4,12 3,23 -4,33 -6,11 -16,17 -28,19 -39,5 -78,5 -116,-1 2,13 2,26 2,40 0,18 -2,35 -7,52 -3,11 -7,21 -10,32 -1,5 -2,10 -2,15 0,43 69,92 69,157 0,22 -18,40 -40,40 -43,0 -87,-6 -128,-21 -8,28 -20,55 -43,74 z m 817,-843 c 21,-38 33,-74 33,-106 0,-56 -49,-118 -108,-118 -35,0 -68,15 -93,40 -16,16 -35,44 -35,68 0,21 11,69 40,69 35,0 57,-27 76,-53 9,-11 21,-17 35,-16 14,1 26,9 32,22 15,30 22,62 20,94 z m -1507,83 c 18,-5 37,-10 55,-14 17,-4 35,-8 52,-11 -23,-4 -47,-7 -72,-7 -6,0 -10,1 -13,5 -9,10 -13,20 -22,27 z"
       id="path3394"
       inkscape:connector-curvature="0"
       style="fill:#ffffff" /><path
       class="fil2"
       d="m -1004,9494 c 0,-108 -39,-246 -197,-187 49,30 69,69 59,118 -29,-49 -98,-79 -177,-49 39,20 79,98 69,177 -39,-39 -98,-59 -167,-39 49,29 98,118 69,167 29,20 49,59 49,79 -50,33 -89,29 -138,10 20,118 118,118 177,157 87,58 30,158 -79,118 17,95 99,118 187,99 0,29 -19,69 -59,78 30,59 89,99 178,109 -10,19 0,40 9,49 128,128 227,207 296,216 -20,178 -207,315 -345,374 -39,-29 -78,-88 -177,-88 -79,0 -148,79 -148,157 59,-19 99,-9 148,30 -39,0 -148,29 -138,157 49,-29 108,-29 168,-19 -40,29 -109,118 -40,216 20,-39 59,-69 118,-69 158,0 49,89 30,99 39,39 100,35 138,-10 49,-59 9,-108 78,-158 33,-23 50,-49 79,-78 -10,59 10,98 49,118 0,-40 34,-70 49,-89 51,-59 69,-79 60,-167 39,20 68,108 108,118 -12,-52 -7,-165 10,-187 29,-39 51,-53 108,-79 -82,113 -33,219 59,256 98,40 173,68 266,108 35,16 49,40 49,69 0,50 -10,59 -39,59 -40,0 -128,-49 -256,10 -130,60 -99,138 -187,158 -40,9 -128,29 -128,88 0,69 70,258 137,345 69,88 104,76 -19,197 -48,47 -106,98 -148,98 -44,0 -97,-42 -155,-69 -61,-29 -170,-59 -239,0 40,10 89,40 119,69 -50,10 -158,49 -207,108 69,10 118,30 167,79 -59,39 -88,79 -79,177 34,-24 158,-49 227,20 -40,10 -40,69 -78,87 88,61 160,5 216,-48 54,-51 88,-128 167,-128 10,10 10,30 10,40 88,0 187,-109 207,-177 19,0 19,29 39,39 39,-99 118,-177 98,-354 10,9 31,-4 20,-20 -53,-83 -118,-217 -118,-305 69,29 197,69 295,69 89,0 99,-69 207,-30 39,227 172,172 246,246 29,30 79,69 79,148 0,69 -79,266 -187,275 -109,-68 -227,-78 -335,20 49,10 108,30 148,69 -59,20 -187,108 -186,203 58,-26 133,-24 186,23 -40,40 -69,119 -20,187 49,-39 148,-108 226,-118 20,30 30,59 20,109 177,39 217,-197 197,-335 49,10 79,29 98,69 79,-59 99,-207 89,-315 39,10 59,29 69,69 39,-30 59,-67 59,-99 0,-78 -69,-136 -69,-187 0,-29 14,-31 42,-47 37,-21 47,-12 47,-41 0,-10 0,-58 0,-79 0,-20 0,-20 -30,-49 -30,-30 -30,-30 -69,-30 -59,0 -145,-84 -148,-147 -3,-91 79,-246 138,-345 138,-20 355,-79 296,-275 49,9 19,-109 19,-158 0,-108 69,-197 210,-211 -3,-65 -33,-94 -92,-84 0,-20 0,-40 20,-49 -49,-10 -118,-10 -157,19 0,-78 49,-138 147,-118 -29,-108 -147,-138 -236,-88 20,-69 138,-79 216,-59 -88,-158 -216,-138 -255,-119 -10,-108 38,-137 108,-137 101,0 197,39 256,98 0,-217 -138,-246 -197,-246 108,-79 256,20 295,69 49,-99 -20,-227 -147,-236 49,-69 98,-130 98,-256 0,-177 -98,-335 -295,-335 -109,0 -187,30 -237,79 -4,24 -19,59 -49,59 10,10 0,29 10,39 -14,5 -24,5 -39,0 -5,26 4,51 19,69 -19,0 -39,0 -49,10 14,30 20,59 20,89 -20,0 -30,9 -39,19 19,109 49,355 -130,304 228,159 277,-8 277,-97 158,29 266,-98 207,-217 -30,40 -59,69 -108,69 -50,0 -79,-55 -79,-108 0,-59 69,-148 167,-148 89,0 148,89 148,158 0,148 -220,357 -295,453 -89,113 -145,258 -99,443 38,151 108,271 148,413 39,143 -20,335 -128,335 -148,0 -158,-197 -315,-335 -132,-116 -199,-250 -232,-336 -4,4 -8,8 -12,14 -37,53 -51,100 -51,164 l 0,55 -52,-17 c -80,-27 -137,-101 -178,-175 -41,38 -56,80 -56,147 l 0,51 -49,-12 c -86,-22 -150,-112 -164,-199 -71,-1 -115,38 -144,107 l -18,41 -39,-23 c -55,-33 -87,-86 -97,-149 -4,-25 -5,-53 -2,-80 -33,4 -65,13 -89,36 l -28,28 -28,-28 c -48,-48 -70,-118 -70,-185 0,-51 18,-100 46,-141 9,-15 22,-30 35,-44 -29,-14 -63,-22 -91,-22 l -65,0 30,-57 c 20,-38 47,-72 79,-101 -103,-58 -157,-136 -231,-235 10,-89 10,-99 -20,-109 -10,-39 10,-88 10,-177 z M 157,9041 c 20,-9 42,4 60,-10 39,-29 59,-68 108,-78 -20,78 39,118 -20,167 89,-10 138,0 138,99 0,78 -20,98 -69,147 145,51 138,217 138,286 0,41 8,82 20,118 13,41 59,78 59,128 -69,9 -119,-10 -168,-40 40,49 96,203 118,236 20,30 30,30 40,60 -69,9 -128,0 -177,-20 25,33 29,59 29,98 0,45 -20,66 -20,99 0,59 69,108 69,157 -78,0 -128,-19 -157,-39 -20,128 -44,85 -89,147 -49,69 -59,128 -59,187 -88,-29 -147,-137 -177,-196 -59,39 -108,88 -108,206 -79,-19 -138,-115 -138,-197 -128,-19 -187,60 -217,128 -98,-59 -88,-187 -68,-236 -99,0 -138,20 -168,49 -39,-39 -59,-98 -59,-157 0,-89 69,-167 108,-187 -39,-39 -108,-59 -157,-59 108,-207 492,-305 659,-315 109,-6 256,-89 286,-197 -71,107 -158,148 -295,148 -60,0 -111,-20 -187,-20 -69,0 -40,80 -99,20 -16,-17 -29,-168 10,-177 67,-17 118,29 187,-10 29,-10 59,-99 59,-148 -61,-40 -141,-29 -207,-29 -49,0 -59,0 -69,-50 -5,-28 -9,-49 -9,-118 0,-34 54,-69 88,-69 30,0 24,10 49,10 50,0 94,-26 168,-29 44,-2 17,-68 39,-79 20,-10 42,-9 69,-10 95,-3 197,89 207,-10 0,-5 4,-7 9,-10 z m -739,445 c 20,40 64,77 110,87 7,-9 17,-16 29,-19 44,-11 74,-1 117,4 22,3 40,2 60,-10 l 4,-1 1,-1 c 10,-10 22,-43 25,-56 3,-10 6,-21 8,-32 -50,-21 -115,-13 -166,-13 -5,0 -10,0 -16,0 -26,6 -49,6 -62,-10 -60,-69 -158,-157 -187,-157 -20,0 -30,9 -30,29 0,20 10,39 49,39 30,0 44,114 58,140 z"
       id="path3396"
       inkscape:connector-curvature="0"
       style="fill:#e32527" /></g></svg>