<?xml version="1.0" encoding="UTF-8" standalone="no"?>
<!-- Creator: CorelDRAW X7 -->

<svg
   xmlns:dc="http://purl.org/dc/elements/1.1/"
   xmlns:cc="http://creativecommons.org/ns#"
   xmlns:rdf="http://www.w3.org/1999/02/22-rdf-syntax-ns#"
   xmlns:svg="http://www.w3.org/2000/svg"
   xmlns="http://www.w3.org/2000/svg"
   xmlns:sodipodi="http://sodipodi.sourceforge.net/DTD/sodipodi-0.dtd"
   xmlns:inkscape="http://www.inkscape.org/namespaces/inkscape"
   xml:space="preserve"
   width="7.8740005in"
   height="7.8740005in"
   version="1.1"
   style="clip-rule:evenodd;fill-rule:evenodd;image-rendering:optimizeQuality;shape-rendering:geometricPrecision;text-rendering:geometricPrecision"
   viewBox="0 0 7874.0005 7874.0005"
   id="svg3501"
   inkscape:version="0.91 r13725"
   sodipodi:docname="Combined Army - Sectorial - Morat Aggression Force - [N3] [Vyo].svg"><metadata
     id="metadata3517"><rdf:RDF><cc:Work
         rdf:about=""><dc:format>image/svg+xml</dc:format><dc:type
           rdf:resource="http://purl.org/dc/dcmitype/StillImage" /></cc:Work></rdf:RDF></metadata><sodipodi:namedview
     pagecolor="#ffffff"
     bordercolor="#666666"
     borderopacity="1"
     objecttolerance="10"
     gridtolerance="10"
     guidetolerance="10"
     inkscape:pageopacity="0"
     inkscape:pageshadow="2"
     inkscape:window-width="640"
     inkscape:window-height="480"
     id="namedview3515"
     showgrid="false"
     inkscape:zoom="0.23838384"
     inkscape:cx="736.83001"
     inkscape:cy="849.33005"
     inkscape:window-x="0"
     inkscape:window-y="0"
     inkscape:window-maximized="0"
     inkscape:current-layer="svg3501" /><defs
     id="defs3503"><style
       type="text/css"
       id="style3505"><![CDATA[
    .fil0 {fill:black}
    .fil2 {fill:red}
    .fil1 {fill:white}
   ]]></style></defs><g
     id="Layer_x0020_1"
     transform="translate(3937,-7063)"><metadata
       id="CorelCorpID_0Corel-Layer" /><circle
       class="fil0"
       cy="11000"
       r="3937"
       id="circle3509"
       cx="0"
       style="fill:#000000" /><path
       class="fil1"
       d="m 982,10250 c -11,242 -56,476 -130,697 95,100 182,207 262,320 131,-196 240,-408 322,-633 -144,-137 -295,-265 -454,-384 z M 197,8133 c 1495,101 2677,1346 2677,2867 0,1521 -1182,2766 -2677,2867 l 0,-553 c 1191,-99 2126,-1097 2126,-2314 0,-430 -117,-833 -321,-1179 -101,1722 -1504,3093 -3238,3146 306,192 659,316 1039,347 l 0,553 c -1495,-101 -2677,-1346 -2677,-2867 0,-1521 1182,-2766 2677,-2867 l 0,553 c -307,25 -598,111 -860,245 990,187 1886,639 2613,1279 38,-190 58,-387 58,-588 0,-104 -5,-206 -16,-307 C 1227,8962 738,8731 197,8686 l 0,-553 z m -1733,1125 c -291,257 -518,586 -651,959 371,919 1048,1683 1905,2163 155,-60 303,-131 444,-215 -969,-454 -1722,-1291 -2065,-2316 l 0,0 c 474,-160 981,-247 1509,-247 83,0 165,3 246,7 -436,-179 -902,-299 -1388,-351 z m -782,1601 c -3,47 -5,94 -5,141 0,595 224,1138 592,1549 129,17 259,26 392,26 186,0 367,-17 542,-50 -632,-424 -1155,-996 -1521,-1666 z m 3177,735 c -55,-87 -115,-169 -180,-248 -91,170 -201,328 -328,473 63,28 126,55 190,80 114,-93 220,-196 318,-305 z M -969,10034 c 269,30 527,96 769,193 2,-31 3,-62 3,-93 0,-45 -2,-90 -6,-134 -63,-3 -127,-4 -191,-4 -195,0 -387,13 -575,38 z m 1163,2 c 2,32 3,65 3,98 0,94 -7,186 -22,276 124,71 242,151 354,240 40,-166 62,-338 62,-516 0,-9 0,-17 -1,-25 -130,-31 -262,-55 -396,-73 z M -7,11628 c 162,-170 296,-366 397,-582 -102,-89 -210,-170 -324,-242 -93,226 -231,429 -403,597 105,82 215,157 330,227 z m -629,-486 c 155,-144 276,-322 351,-523 -286,-124 -600,-197 -929,-208 160,269 355,514 578,731 z"
       id="path3511"
       inkscape:connector-curvature="0"
       style="fill:#ffffff" /><path
       class="fil2"
       d="m 859,11594 c -55,-87 -115,-169 -180,-248 -91,170 -201,328 -328,473 63,28 126,55 190,80 114,-93 220,-196 318,-305 z m -866,34 c 162,-170 296,-366 397,-582 -102,-89 -210,-170 -324,-242 -93,226 -231,429 -403,597 105,82 215,157 330,227 z m -629,-486 c 155,-144 276,-322 351,-523 -286,-124 -600,-197 -929,-208 160,269 355,514 578,731 z"
       id="path3513"
       inkscape:connector-curvature="0"
       style="fill:#ff0000" /></g></svg>