<?xml version="1.0" encoding="UTF-8" standalone="no"?>
<!-- Creator: CorelDRAW X7 -->

<svg
   xmlns:dc="http://purl.org/dc/elements/1.1/"
   xmlns:cc="http://creativecommons.org/ns#"
   xmlns:rdf="http://www.w3.org/1999/02/22-rdf-syntax-ns#"
   xmlns:svg="http://www.w3.org/2000/svg"
   xmlns="http://www.w3.org/2000/svg"
   xmlns:sodipodi="http://sodipodi.sourceforge.net/DTD/sodipodi-0.dtd"
   xmlns:inkscape="http://www.inkscape.org/namespaces/inkscape"
   xml:space="preserve"
   width="7.8740005in"
   height="7.8740005in"
   version="1.1"
   style="clip-rule:evenodd;fill-rule:evenodd;image-rendering:optimizeQuality;shape-rendering:geometricPrecision;text-rendering:geometricPrecision"
   viewBox="0 0 7874.0005 7874.0005"
   id="svg3462"
   inkscape:version="0.91 r13725"
   sodipodi:docname="Combined Army - Main Logo - [N3] [Vyo].svg"><metadata
     id="metadata3499"><rdf:RDF><cc:Work
         rdf:about=""><dc:format>image/svg+xml</dc:format><dc:type
           rdf:resource="http://purl.org/dc/dcmitype/StillImage" /></cc:Work></rdf:RDF></metadata><sodipodi:namedview
     pagecolor="#ffffff"
     bordercolor="#666666"
     borderopacity="1"
     objecttolerance="10"
     gridtolerance="10"
     guidetolerance="10"
     inkscape:pageopacity="0"
     inkscape:pageshadow="2"
     inkscape:window-width="640"
     inkscape:window-height="480"
     id="namedview3497"
     showgrid="false"
     inkscape:zoom="0.23838384"
     inkscape:cx="736.83001"
     inkscape:cy="849.33005"
     inkscape:window-x="0"
     inkscape:window-y="0"
     inkscape:window-maximized="0"
     inkscape:current-layer="svg3462" /><defs
     id="defs3464"><style
       type="text/css"
       id="style3466"><![CDATA[
    .fil0 {fill:black}
    .fil1 {fill:#938FBE}
    .fil2 {fill:#D2CDE4}
   ]]></style></defs><g
     id="Layer_x0020_1"
     transform="translate(3937,-7063)"><metadata
       id="CorelCorpID_0Corel-Layer" /><circle
       class="fil0"
       cy="11000"
       r="3937"
       id="circle3470"
       cx="0"
       style="fill:#000000" /><g
       id="_721529088"><path
         class="fil1"
         d="m -1024,11512 c 552,1023 1300,1378 2284,1378 -748,354 -1260,708 -1536,1378 -866,-788 -1181,-2008 -748,-2756 z"
         id="path3473"
         inkscape:connector-curvature="0"
         style="fill:#938fbe" /><path
         class="fil2"
         d="m -1024,11512 c 552,1023 1300,1378 2284,1378 -551,157 -1221,157 -1654,157 -512,-472 -669,-984 -630,-1535 z"
         id="path3475"
         inkscape:connector-curvature="0"
         style="fill:#d2cde4" /></g><g
       id="_721501792"><path
         class="fil1"
         d="m 170,12132 c 1144,-208 1712,-810 2017,-1746 105,821 284,1417 836,1886 -1017,580 -2275,503 -2853,-140 z"
         id="path3478"
         inkscape:connector-curvature="0"
         style="fill:#938fbe" /><path
         class="fil2"
         d="m 170,12132 c 1144,-208 1712,-810 2017,-1746 -21,573 -228,1209 -362,1621 -607,341 -1143,332 -1655,125 z"
         id="path3480"
         inkscape:connector-curvature="0"
         style="fill:#d2cde4" /></g><g
       id="_721505312"><path
         class="fil1"
         d="M 1129,11188 C 1285,10036 888,9309 92,8731 c 813,153 1435,167 2052,-213 238,1146 -225,2319 -1015,2670 z"
         id="path3483"
         inkscape:connector-curvature="0"
         style="fill:#938fbe" /><path
         class="fil2"
         d="M 1129,11188 C 1285,10036 888,9309 92,8731 c 538,196 1079,590 1430,844 136,683 -37,1190 -393,1613 z"
         id="path3485"
         inkscape:connector-curvature="0"
         style="fill:#d2cde4" /></g><g
       id="_721531520"><path
         class="fil1"
         d="m 527,9984 c -1047,-504 -1861,-351 -2657,228 397,-727 603,-1314 432,-2018 1164,128 2136,931 2225,1790 z"
         id="path3488"
         inkscape:connector-curvature="0"
         style="fill:#938fbe" /><path
         class="fil2"
         d="m 527,9984 c -1047,-504 -1861,-351 -2657,228 353,-452 895,-845 1245,-1100 692,82 1120,403 1412,872 z"
         id="path3490"
         inkscape:connector-curvature="0"
         style="fill:#d2cde4" /></g><g
       id="_721512384"><path
         class="fil1"
         d="m -803,10185 c -803,840 -909,1661 -605,2597 -568,-602 -1063,-979 -1785,-1034 481,-1067 1545,-1744 2390,-1563 z"
         id="path3493"
         inkscape:connector-curvature="0"
         style="fill:#938fbe" /><path
         class="fil2"
         d="m -803,10185 c -803,840 -909,1661 -605,2597 -320,-475 -527,-1112 -661,-1524 291,-633 730,-940 1266,-1073 z"
         id="path3495"
         inkscape:connector-curvature="0"
         style="fill:#d2cde4" /></g></g></svg>