<?xml version="1.0" encoding="UTF-8" standalone="no"?>
<!-- Creator: CorelDRAW X7 -->

<svg
   xmlns:dc="http://purl.org/dc/elements/1.1/"
   xmlns:cc="http://creativecommons.org/ns#"
   xmlns:rdf="http://www.w3.org/1999/02/22-rdf-syntax-ns#"
   xmlns:svg="http://www.w3.org/2000/svg"
   xmlns="http://www.w3.org/2000/svg"
   xmlns:sodipodi="http://sodipodi.sourceforge.net/DTD/sodipodi-0.dtd"
   xmlns:inkscape="http://www.inkscape.org/namespaces/inkscape"
   xml:space="preserve"
   width="7.8740005in"
   height="7.8740005in"
   version="1.1"
   style="clip-rule:evenodd;fill-rule:evenodd;image-rendering:optimizeQuality;shape-rendering:geometricPrecision;text-rendering:geometricPrecision"
   viewBox="0 0 7874.0005 7874.0005"
   id="svg3573"
   inkscape:version="0.91 r13725"
   sodipodi:docname="Haqqislam - Sectorial - Hassassin Bahram - [N3] [Vyo].svg"><metadata
     id="metadata3633"><rdf:RDF><cc:Work
         rdf:about=""><dc:format>image/svg+xml</dc:format><dc:type
           rdf:resource="http://purl.org/dc/dcmitype/StillImage" /></cc:Work></rdf:RDF></metadata><sodipodi:namedview
     pagecolor="#ffffff"
     bordercolor="#666666"
     borderopacity="1"
     objecttolerance="10"
     gridtolerance="10"
     guidetolerance="10"
     inkscape:pageopacity="0"
     inkscape:pageshadow="2"
     inkscape:window-width="640"
     inkscape:window-height="480"
     id="namedview3631"
     showgrid="false"
     inkscape:zoom="0.23838384"
     inkscape:cx="736.83001"
     inkscape:cy="849.33005"
     inkscape:window-x="0"
     inkscape:window-y="0"
     inkscape:window-maximized="0"
     inkscape:current-layer="svg3573" /><defs
     id="defs3575"><style
       type="text/css"
       id="style3577"><![CDATA[
    .fil1 {fill:black}
    .fil0 {fill:#B2C801}
    .fil3 {fill:#EECE00}
    .fil5 {fill:#EECE00}
    .fil4 {fill:#F8DB46}
    .fil2 {fill:white}
   ]]></style></defs><g
     id="Layer_x0020_1"
     transform="translate(3937,-7063)"><metadata
       id="CorelCorpID_0Corel-Layer" /><circle
       class="fil0"
       cy="11000"
       r="3937"
       id="circle3581"
       cx="0"
       style="fill:#b2c801" /><circle
       class="fil1"
       cy="11000"
       r="3819"
       id="circle3583"
       cx="0"
       style="fill:#000000" /><g
       id="_778795552"><path
         class="fil2"
         d="m 1142,11472 c -79,0 -209,-75 -209,-231 78,0 228,42 275,157 21,51 12,74 -66,74 z m -197,-433 c 16,-59 144,-287 208,-229 117,103 -126,213 -208,229 z m 972,5 -827,0 c 68,-53 134,-58 162,-129 40,-102 26,-215 -48,-247 -106,-48 -266,226 -311,376 l -866,0 c -5,-187 -51,-279 -162,-364 -36,43 -71,94 -31,162 75,128 222,254 5,496 -342,382 -599,218 -717,178 0,79 373,229 573,119 187,-102 283,-214 332,-394 l 827,0 c 12,199 71,383 314,393 113,4 154,-96 136,-205 -18,-109 -87,-162 -135,-188 l 827,0 c 0,-236 -1,-387 -50,-507 -27,-65 -49,-82 -81,-101 -144,269 54,91 52,411 z"
         id="path3586"
         inkscape:connector-curvature="0"
         style="fill:#ffffff" /><path
         class="fil2"
         d="m -1847,11003 c 22,-19 263,-151 313,60 -365,23 -470,123 -461,278 14,254 132,333 132,569 158,-157 -157,-512 40,-630 70,-42 195,-61 468,-57 -1,-115 18,-140 -43,-230 -176,-258 -396,-220 -449,10 z"
         id="path3588"
         inkscape:connector-curvature="0"
         style="fill:#ffffff" /><path
         class="fil2"
         d="m -1134,11239 c 207,-165 46,-809 15,-1149 -204,71 32,685 -15,1149 z"
         id="path3590"
         inkscape:connector-curvature="0"
         style="fill:#ffffff" /><polygon
         class="fil2"
         points="1714,11378 1650,11517 1791,11577 1869,11454 "
         id="polygon3592"
         style="fill:#ffffff" /></g><g
       id="_778802112"><polygon
         class="fil3"
         points="-2579,8421 518,8421 951,8854 -2146,8854 -2146,9558 -2579,9991 "
         id="polygon3595"
         style="fill:#eece00" /><polygon
         class="fil4"
         points="-2205,9558 -2205,8795 830,8795 515,8480 -2520,8480 -2520,9873 "
         id="polygon3597"
         style="fill:#f8db46" /><polygon
         class="fil3"
         points="-2579,13579 -2579,10482 -2146,10049 -2146,13146 -1442,13146 -1009,13579 "
         id="polygon3599"
         style="fill:#eece00" /><polygon
         class="fil4"
         points="-1442,13205 -2205,13205 -2205,10170 -2520,10485 -2520,13520 -1127,13520 "
         id="polygon3601"
         style="fill:#f8db46" /><polygon
         class="fil3"
         points="2579,13579 -518,13579 -951,13146 2146,13146 2146,12442 2579,12009 "
         id="polygon3603"
         style="fill:#eece00" /><polygon
         class="fil4"
         points="2205,12442 2205,13205 -830,13205 -515,13520 2520,13520 2520,12127 "
         id="polygon3605"
         style="fill:#f8db46" /><polygon
         class="fil3"
         points="2579,8421 2579,11518 2146,11951 2146,8854 1442,8854 1009,8421 "
         id="polygon3607"
         style="fill:#eece00" /><polygon
         class="fil4"
         points="1442,8795 2205,8795 2205,11830 2520,11515 2520,8480 1127,8480 "
         id="polygon3609"
         style="fill:#f8db46" /><polygon
         class="fil3"
         points="-3647,11000 -1457,8810 -845,8810 -3034,11000 -2537,11497 -2537,12110 "
         id="polygon3611"
         style="fill:#eece00" /><polygon
         class="fil4"
         points="-2579,11539 -3118,11000 -972,8854 -1418,8854 -3563,11000 -2579,11985 "
         id="polygon3613"
         style="fill:#f8db46" /><polygon
         class="fil3"
         points="0,14647 -2190,12457 -2190,11845 0,14034 497,13537 1110,13537 "
         id="polygon3615"
         style="fill:#eece00" /><polygon
         class="fil4"
         points="539,13579 0,14118 -2146,11972 -2146,12418 0,14563 985,13579 "
         id="polygon3617"
         style="fill:#f8db46" /><polygon
         class="fil3"
         points="3647,11000 1457,13190 845,13190 3034,11000 2537,10503 2537,9890 "
         id="polygon3619"
         style="fill:#eece00" /><polygon
         class="fil4"
         points="2579,10461 3118,11000 972,13146 1418,13146 3563,11000 2579,10015 "
         id="polygon3621"
         style="fill:#f8db46" /><polygon
         class="fil3"
         points="0,7353 2190,9543 2190,10155 0,7966 -497,8463 -1110,8463 "
         id="polygon3623"
         style="fill:#eece00" /><polygon
         class="fil4"
         points="-539,8421 0,7882 2146,10028 2146,9582 0,7437 -985,8421 "
         id="polygon3625"
         style="fill:#f8db46" /></g><path
       class="fil5"
       d="m -1161,13803 595,-246 -842,-349 247,595 z m -1642,-1642 595,247 -349,-842 -246,595 z m 829,813 -1395,-578 578,-1396 -578,-1396 1395,-578 578,-1395 1396,578 1396,-578 578,1395 1395,578 -578,1396 578,1396 -1395,578 -578,1395 -1396,-578 -1396,578 -578,-1395 z m -583,-2540 349,-842 -595,247 246,595 z m 915,-1076 -680,1642 680,1642 1642,680 1642,-680 680,-1642 L 1642,9358 0,8678 -1642,9358 Z m 2803,4445 247,-595 -842,349 595,246 z m 1642,-1642 -246,-595 -349,842 595,-247 z m 0,-2322 -595,-247 349,842 246,-595 z m -1642,-1642 -595,246 842,349 -247,-595 z m -2322,0 -247,595 842,-349 -595,-246 z"
       id="path3627"
       inkscape:connector-curvature="0"
       style="fill:#eece00" /><path
       class="fil4"
       d="m 1440,8869 -2804,-1161 -533,1286 412,-170 292,-705 2803,1162 -170,-412 z m -1929,-394 -2803,1161 533,1287 170,-412 -292,-704 2804,-1161 -412,-171 z m -2036,3014 1161,2803 1287,-533 -412,-170 -704,292 -1161,-2804 -171,412 z m 3014,2036 2803,-1161 -533,-1287 -170,412 292,704 -2804,1161 412,171 z M 2525,10511 1364,7708 77,8241 l 412,170 704,-292 1161,2804 171,-412 z m -4656,-951 -1161,2804 1286,533 -170,-412 -705,-292 1162,-2803 -412,170 z m 691,3571 2804,1161 533,-1286 -412,170 -292,705 -2803,-1162 170,412 z m 3571,-691 1161,-2804 -1286,-533 170,412 705,292 -1162,2803 412,-170 z"
       id="path3629"
       inkscape:connector-curvature="0"
       style="fill:#f8db46" /></g></svg>