<?xml version="1.0" encoding="UTF-8" standalone="no"?>
<!-- Creator: CorelDRAW X7 -->

<svg
   xmlns:dc="http://purl.org/dc/elements/1.1/"
   xmlns:cc="http://creativecommons.org/ns#"
   xmlns:rdf="http://www.w3.org/1999/02/22-rdf-syntax-ns#"
   xmlns:svg="http://www.w3.org/2000/svg"
   xmlns="http://www.w3.org/2000/svg"
   xmlns:sodipodi="http://sodipodi.sourceforge.net/DTD/sodipodi-0.dtd"
   xmlns:inkscape="http://www.inkscape.org/namespaces/inkscape"
   xml:space="preserve"
   width="7.8740005in"
   height="7.8740005in"
   version="1.1"
   style="clip-rule:evenodd;fill-rule:evenodd;image-rendering:optimizeQuality;shape-rendering:geometricPrecision;text-rendering:geometricPrecision"
   viewBox="0 0 7874.0005 7874.0005"
   id="svg3535"
   inkscape:version="0.91 r13725"
   sodipodi:docname="Haqqislam - Main Logo - [N3] [Vyo].svg"><metadata
     id="metadata3571"><rdf:RDF><cc:Work
         rdf:about=""><dc:format>image/svg+xml</dc:format><dc:type
           rdf:resource="http://purl.org/dc/dcmitype/StillImage" /></cc:Work></rdf:RDF></metadata><sodipodi:namedview
     pagecolor="#ffffff"
     bordercolor="#666666"
     borderopacity="1"
     objecttolerance="10"
     gridtolerance="10"
     guidetolerance="10"
     inkscape:pageopacity="0"
     inkscape:pageshadow="2"
     inkscape:window-width="640"
     inkscape:window-height="480"
     id="namedview3569"
     showgrid="false"
     inkscape:zoom="0.23838384"
     inkscape:cx="736.83001"
     inkscape:cy="849.33005"
     inkscape:window-x="0"
     inkscape:window-y="0"
     inkscape:window-maximized="0"
     inkscape:current-layer="svg3535" /><defs
     id="defs3537"><style
       type="text/css"
       id="style3539"><![CDATA[
    .fil2 {fill:black}
    .fil0 {fill:#B2C801}
    .fil1 {fill:#F8DB46}
   ]]></style></defs><g
     id="Layer_x0020_1"
     transform="translate(3937,-7063)"><metadata
       id="CorelCorpID_0Corel-Layer" /><circle
       class="fil0"
       cy="11000"
       r="3937"
       id="circle3543"
       cx="0"
       style="fill:#b2c801" /><path
       class="fil1"
       d="m 374,7142 c 276,0 545,34 801,99 632,198 1196,551 1647,1014 498,571 800,1318 800,2135 0,1794 -1454,3248 -3248,3248 -1794,0 -3248,-1454 -3248,-3248 0,-1794 1454,-3248 3248,-3248 z"
       id="path3545"
       inkscape:connector-curvature="0"
       style="fill:#f8db46" /><path
       class="fil2"
       d="m 630,11453 c -46,-515 -68,-1299 -94,-1814 -72,11 -104,89 -150,159 -65,99 -52,121 -42,255 14,187 18,388 30,578 16,273 101,910 11,1135 -119,303 -583,333 -826,117 -284,-253 -255,-553 -150,-981 32,-130 158,-512 158,-709 0,-158 -48,-315 -158,-315 -205,0 -362,262 -511,551 -165,320 -323,669 -571,669 -197,0 -296,-177 -296,-315 0,-234 168,-531 99,-531 -88,0 -207,304 -217,610 -9,314 95,630 414,630 256,0 453,-256 572,-652 71,-236 239,-664 432,-568 78,39 7,324 -34,466 -116,397 -159,570 -143,971 19,492 354,866 708,866 243,0 542,-213 686,-563 104,323 343,563 672,563 335,0 650,-295 650,-866 0,-550 -148,-887 -197,-1418 118,138 187,244 217,374 20,87 39,237 59,237 18,0 39,-79 39,-178 0,-275 -103,-423 -133,-476 -85,-153 -241,-350 -261,-587 -62,73 -98,174 -137,256 -36,74 -79,130 -79,177 0,99 315,1182 315,1595 0,315 -295,433 -433,433 -204,0 -504,-193 -631,-437 7,-74 8,-151 1,-232 z"
       id="path3547"
       inkscape:connector-curvature="0"
       style="fill:#000000" /><path
       class="fil2"
       d="m 2185,12319 c 197,-158 256,-768 256,-1083 0,-472 -59,-1201 -118,-1614 295,177 236,335 197,591 78,-79 137,-237 137,-355 0,-138 -123,-280 -196,-354 -217,-217 -178,-492 -276,-807 -98,59 -157,118 -197,216 177,709 236,1477 236,2087 0,455 0,886 -39,1319 z"
       id="path3549"
       inkscape:connector-curvature="0"
       style="fill:#000000" /><path
       class="fil2"
       d="m 531,8539 c -19,40 -79,102 -118,118 2,149 32,311 -10,415 l -120,21 c -103,-114 -63,-251 -64,-423 -101,40 -118,161 -119,301 -4,515 276,267 362,219 124,64 199,168 340,0 86,-102 32,-313 44,-395 20,0 40,0 60,-19 -40,-40 -79,-119 -99,-217 -45,28 -98,98 -98,197 0,65 39,197 39,276 0,59 -27,78 -79,78 -39,0 -136,-28 -136,-147 l -2,-424 z"
       id="path3551"
       inkscape:connector-curvature="0"
       style="fill:#000000" /><path
       class="fil2"
       d="m -638,8868 c -130,6 -169,-34 -169,-92 0,-60 51,-138 138,-138 78,0 97,28 98,79 1,42 -26,108 -67,151 z m -749,523 c 180,2 317,-83 471,-171 195,-114 247,-186 272,-198 40,-5 100,-4 152,29 0,-97 -20,-98 -39,-138 29,-43 118,-137 118,-275 0,-99 -59,-158 -138,-158 -158,0 -374,177 -374,335 0,79 88,163 157,188 -98,107 -465,284 -619,388 z"
       id="path3553"
       inkscape:connector-curvature="0"
       style="fill:#000000" /><path
       class="fil2"
       d="m 1181,9209 c 315,-158 847,-512 1024,-709 66,-73 59,-138 59,-197 -158,118 -807,591 -1044,729 0,78 -16,122 -39,177 z"
       id="path3555"
       inkscape:connector-curvature="0"
       style="fill:#000000" /><path
       class="fil2"
       d="m -354,10902 c 52,-37 157,-59 177,19 17,69 -30,102 -59,158 -42,80 -95,198 -99,275 -1,35 31,30 40,79 51,-28 112,-433 295,-433 79,0 79,79 39,157 217,-68 178,-334 -118,-236 0,-78 -51,-177 -138,-177 -59,0 -126,74 -137,158 z"
       id="path3557"
       inkscape:connector-curvature="0"
       style="fill:#000000" /><path
       class="fil2"
       d="m 415,8516 c 176,-193 193,-617 57,-862 -34,64 -56,132 -118,196 59,89 135,277 61,666 z"
       id="path3559"
       inkscape:connector-curvature="0"
       style="fill:#000000" /><path
       class="fil2"
       d="m 39,10803 c 40,0 86,-20 79,-98 -4,-46 -42,-77 -59,-59 -20,19 -27,36 -59,19 0,-137 177,-177 177,-374 0,-28 -10,-65 -39,-98 -51,162 58,92 -137,325 -43,61 -80,91 -80,147 0,79 35,138 118,138 z"
       id="path3561"
       inkscape:connector-curvature="0"
       style="fill:#000000" /><path
       class="fil2"
       d="m -1150,11626 c -40,-11 -96,-17 -120,20 -16,27 0,66 40,88 42,-27 69,-45 80,-108 z m 1,-49 c -1,-23 -4,-40 3,-54 29,9 41,38 44,71 23,11 44,27 60,46 20,24 32,53 29,83 -1,8 -2,15 -5,22 -2,6 -5,11 -8,17 -37,57 -122,59 -179,39 -6,-3 -12,-5 -18,-7 -57,33 -123,52 -177,65 -59,14 -121,23 -182,28 -24,1 -101,16 -150,-24 112,-32 323,-31 460,-102 -30,-23 -50,-62 -46,-100 1,-7 3,-14 5,-21 3,-6 5,-12 9,-17 32,-50 100,-58 155,-46 z m 47,73 c -6,39 -40,84 -70,108 40,11 82,9 105,-18 30,-34 -4,-70 -35,-90 z"
       id="path3563"
       inkscape:connector-curvature="0"
       style="fill:#000000" /><path
       class="fil2"
       d="m 1299,10882 c -52,-37 -141,-45 -157,10 -19,69 10,111 39,167 42,80 95,179 99,256 1,35 -31,49 -40,98 -52,-27 -112,-413 -295,-413 -39,0 -79,39 -39,138 -218,-63 -162,-322 137,-236 0,-79 32,-158 118,-158 59,0 127,54 138,138 z"
       id="path3565"
       inkscape:connector-curvature="0"
       style="fill:#000000" /><path
       class="fil2"
       d="m 906,10783 c -40,0 -86,-20 -79,-98 4,-45 38,-69 55,-51 20,19 31,28 63,12 0,-138 -166,-189 -166,-385 0,-29 7,-79 48,-88 -7,67 -40,138 117,325 43,61 80,91 80,148 0,78 -35,137 -118,137 z"
       id="path3567"
       inkscape:connector-curvature="0"
       style="fill:#000000" /></g></svg>