<?xml version="1.0" encoding="UTF-8" standalone="no"?>
<!-- Creator: CorelDRAW X7 -->

<svg
   xmlns:dc="http://purl.org/dc/elements/1.1/"
   xmlns:cc="http://creativecommons.org/ns#"
   xmlns:rdf="http://www.w3.org/1999/02/22-rdf-syntax-ns#"
   xmlns:svg="http://www.w3.org/2000/svg"
   xmlns="http://www.w3.org/2000/svg"
   xmlns:sodipodi="http://sodipodi.sourceforge.net/DTD/sodipodi-0.dtd"
   xmlns:inkscape="http://www.inkscape.org/namespaces/inkscape"
   xml:space="preserve"
   width="7.8740005in"
   height="7.8740005in"
   version="1.1"
   style="clip-rule:evenodd;fill-rule:evenodd;image-rendering:optimizeQuality;shape-rendering:geometricPrecision;text-rendering:geometricPrecision"
   viewBox="0 0 7874.0005 7874.0005"
   id="svg3402"
   inkscape:version="0.91 r13725"
   sodipodi:docname="Ariadna - Sectorial - Force de RR Merovingienne v3 - [N3] [Vyo].svg"><metadata
     id="metadata3422"><rdf:RDF><cc:Work
         rdf:about=""><dc:format>image/svg+xml</dc:format><dc:type
           rdf:resource="http://purl.org/dc/dcmitype/StillImage" /></cc:Work></rdf:RDF></metadata><sodipodi:namedview
     pagecolor="#ffffff"
     bordercolor="#666666"
     borderopacity="1"
     objecttolerance="10"
     gridtolerance="10"
     guidetolerance="10"
     inkscape:pageopacity="0"
     inkscape:pageshadow="2"
     inkscape:window-width="640"
     inkscape:window-height="480"
     id="namedview3420"
     showgrid="false"
     inkscape:zoom="0.23838384"
     inkscape:cx="736.83001"
     inkscape:cy="849.33005"
     inkscape:window-x="0"
     inkscape:window-y="0"
     inkscape:window-maximized="0"
     inkscape:current-layer="svg3402" /><defs
     id="defs3404"><style
       type="text/css"
       id="style3406"><![CDATA[
    .fil2 {fill:black}
    .fil4 {fill:#08085A}
    .fil0 {fill:#E32527}
    .fil3 {fill:yellow}
    .fil1 {fill:white}
   ]]></style></defs><g
     id="Layer_x0020_1"
     transform="translate(3937,-7063)"><metadata
       id="CorelCorpID_0Corel-Layer" /><path
       class="fil0"
       d="m 0,7063 c 2174,0 3937,1763 3937,3937 0,2174 -1763,3937 -3937,3937 -232,0 -458,-20 -679,-59 l 0,-7756 c 221,-39 447,-59 679,-59 z"
       id="path3410"
       inkscape:connector-curvature="0"
       style="fill:#e32527" /><path
       class="fil1"
       d="m -679,14879 c -600,-105 -1153,-345 -1627,-688 l 0,-6382 c 474,-343 1027,-583 1627,-688 l 0,7758 z"
       id="path3412"
       inkscape:connector-curvature="0"
       style="fill:#ffffff" /><path
       class="fil2"
       d="m 2077,9809 0,49 0,23 -22,-3 c -49,-7 -95,-18 -140,-38 -41,-18 -81,-44 -118,-77 l -50,18 30,91 c 38,11 70,29 85,63 15,33 14,77 -12,142 36,13 68,29 90,45 l 154,-122 12,-4 246,-9 132,-170 12,-15 15,10 29,20 16,10 -9,16 -138,236 -6,10 -11,0 -160,0 -224,200 0,7 c 0,7 0,15 -1,23 l 159,-80 9,-4 8,4 206,93 226,-189 14,-11 13,12 29,30 14,13 -13,14 -276,295 -12,13 -14,-10 -147,-111 -166,85 1336,494 c 24,9 46,20 64,33 41,30 65,69 74,116 8,46 1,98 -20,156 -20,54 -54,114 -99,177 -16,22 -32,41 -49,57 -91,90 -200,115 -313,98 -34,-5 -68,-14 -102,-26 -12,19 -27,39 -44,58 -21,22 -45,44 -74,64 -19,14 -38,25 -57,35 -117,57 -237,38 -346,-23 -107,-60 -204,-160 -281,-266 -42,-59 -79,-120 -107,-177 l -78,-160 c 5,42 8,88 8,142 0,335 -31,605 -89,790 -60,189 -149,292 -266,292 -117,0 -206,-103 -265,-292 -59,-185 -89,-455 -89,-790 0,-54 3,-100 8,-142 l -79,160 c -28,57 -64,118 -107,177 -76,106 -174,206 -281,266 -109,61 -228,80 -346,23 -19,-10 -38,-21 -57,-35 -28,-20 -53,-42 -73,-64 -18,-19 -32,-39 -45,-58 -87,31 -174,41 -255,20 -77,-19 -148,-66 -208,-149 -46,-63 -80,-123 -100,-177 -21,-58 -28,-110 -19,-156 8,-47 33,-86 73,-116 19,-13 40,-24 65,-33 l 1335,-494 -165,-85 -148,111 -14,10 -12,-13 -276,-295 -12,-14 13,-13 29,-30 13,-12 14,11 227,189 205,-93 8,-4 9,4 160,80 c -1,-8 -2,-16 -2,-23 l 1,-7 -224,-200 -160,0 -12,0 -5,-10 -138,-236 -9,-16 15,-10 29,-20 16,-10 11,15 132,170 247,9 11,4 155,122 c 21,-16 53,-32 89,-45 -26,-65 -27,-109 -12,-142 15,-34 47,-52 85,-63 l 30,-91 -49,-18 c -38,33 -77,59 -119,77 -44,20 -91,31 -139,38 l -22,3 0,-23 0,-49 0,-14 13,-5 c 39,-13 81,-32 124,-57 43,-26 88,-58 136,-97 l 8,-7 11,4 117,45 c 14,-9 34,-17 53,-17 12,0 24,3 34,7 7,3 13,7 19,10 l 117,-45 11,-4 9,7 c 47,39 92,71 136,97 43,25 84,44 123,57 l 14,5 0,14 z"
       id="path3414"
       inkscape:connector-curvature="0"
       style="fill:#000000" /><path
       class="fil3"
       d="m 1249,10459 c -8,-25 -15,-49 -19,-72 l -2,-6 -175,-88 -208,95 -11,5 -10,-8 -222,-185 -4,3 251,269 143,-108 10,-7 11,5 208,108 28,-11 z m 672,667 c -97,-27 -200,-41 -307,-41 -106,0 -209,14 -307,41 3,-23 6,-45 11,-64 95,-24 194,-36 296,-36 102,0 202,12 297,36 4,19 8,41 10,64 z m -618,42 c 100,-29 205,-44 311,-44 107,0 212,15 312,44 1,21 2,42 3,66 -102,-28 -207,-43 -315,-43 -107,0 -213,15 -314,43 0,-24 1,-45 3,-66 z m -35,-789 c 4,21 10,43 18,67 l 95,-35 18,-7 7,18 16,43 24,66 4,11 -8,8 59,73 8,10 -5,12 -52,105 c 25,28 52,51 80,68 27,15 54,25 82,25 28,0 56,-10 83,-25 27,-17 54,-40 79,-68 l -51,-105 -6,-12 8,-10 60,-73 -9,-8 5,-11 24,-66 15,-43 7,-18 18,7 96,35 c 7,-24 13,-46 17,-67 6,-26 9,-49 9,-68 0,-28 -3,-58 -10,-84 -7,-26 -17,-49 -34,-66 -23,-22 -70,-43 -126,-59 -59,-17 -127,-27 -185,-27 -58,0 -126,10 -185,27 -56,16 -103,37 -125,59 -17,17 -28,40 -35,66 -7,26 -9,56 -9,84 0,19 3,42 8,68 z m -44,-124 c 2,-13 4,-26 7,-38 7,-24 16,-47 30,-66 l -146,-116 -250,-9 -9,-1 -5,-7 -121,-155 118,202 156,0 13,5 207,185 z m 192,-190 2,-1 c 63,-17 134,-29 196,-29 62,0 134,12 196,29 l 2,1 c 23,-55 25,-90 15,-113 -11,-24 -38,-37 -70,-45 l -10,-3 -4,-10 -39,-118 -6,-18 18,-7 78,-29 12,-5 9,9 c 36,35 75,60 116,78 34,15 70,25 106,31 l 0,-12 c -37,-14 -77,-32 -117,-56 -43,-26 -87,-56 -132,-93 l -118,45 -12,5 -9,-9 c -3,-4 -9,-8 -16,-10 -6,-3 -12,-4 -19,-4 -14,0 -28,7 -35,14 l -9,9 -12,-5 -117,-45 c -46,37 -90,67 -132,93 -41,24 -80,42 -118,56 l 0,12 c 36,-6 72,-16 106,-31 41,-18 80,-43 117,-78 l 9,-9 11,5 79,29 17,7 -5,18 -40,118 -3,10 -11,3 c -32,8 -59,21 -69,45 -11,23 -9,58 14,113 z m 551,86 c 14,19 24,42 30,66 3,12 6,25 7,38 l 207,-185 13,-5 156,0 118,-202 -120,155 -6,7 -9,1 -250,9 -146,116 z m 33,230 -1,6 c -5,23 -11,47 -20,72 l 28,11 208,-108 11,-5 10,7 144,108 250,-269 -3,-3 -223,185 -9,8 -11,-5 -208,-95 -176,88 z m -186,198 -49,60 310,628 c 27,55 62,114 103,171 74,102 167,198 268,254 99,56 206,74 310,22 17,-8 34,-18 51,-31 26,-19 49,-38 68,-59 14,-15 26,-30 36,-46 -66,-28 -132,-66 -195,-112 -64,-47 -125,-101 -181,-157 l -721,-730 z m 20,289 -39,-80 c -18,18 -36,35 -55,48 33,5 65,14 94,32 z m 14,61 c -46,-49 -110,-57 -175,-57 -19,6 -39,10 -59,10 -20,0 -40,-4 -59,-10 -65,0 -128,8 -175,57 -20,21 -37,50 -50,90 92,-22 188,-33 284,-33 97,0 192,11 284,33 -13,-40 -30,-69 -50,-90 z m -549,346 c 0,20 0,41 1,61 99,-30 205,-47 314,-47 110,0 215,17 315,47 0,-20 0,-41 0,-61 -100,-29 -206,-45 -315,-45 -109,0 -215,16 -315,45 z m 1,102 c 1,22 1,43 2,64 100,-30 205,-45 312,-45 107,0 212,15 312,45 1,-21 1,-42 2,-64 -100,-32 -206,-48 -314,-48 -108,0 -213,16 -314,48 z m 4,105 c 1,20 2,40 3,60 97,-31 200,-48 307,-48 107,0 211,17 307,48 2,-20 3,-40 4,-60 -99,-31 -203,-47 -311,-47 -108,0 -212,16 -310,47 z m 6,101 c 2,29 4,58 7,85 95,-29 195,-44 297,-44 102,0 202,15 298,44 2,-27 5,-56 7,-85 -97,-33 -200,-50 -305,-50 -105,0 -207,17 -304,50 z m 11,125 c 2,21 5,41 7,60 90,-30 186,-46 286,-46 100,0 196,16 286,46 3,-19 5,-39 7,-60 -92,-29 -191,-45 -293,-45 -102,0 -201,16 -293,45 z m 13,100 c 1,5 2,10 2,16 89,-29 183,-44 278,-44 96,0 189,15 278,44 1,-6 2,-11 2,-16 -89,-30 -183,-46 -280,-46 -96,0 -191,16 -280,46 z m 9,55 c 3,19 7,37 11,55 81,-29 169,-44 260,-44 91,0 179,15 261,44 4,-18 7,-36 10,-55 -85,-29 -176,-44 -271,-44 -95,0 -186,15 -271,44 z m 19,93 c 1,5 2,10 4,14 78,-28 162,-43 248,-43 86,0 170,15 249,43 1,-4 2,-9 3,-14 -80,-28 -165,-43 -252,-43 -87,0 -172,15 -252,43 z m 14,53 c 3,12 7,24 10,35 2,5 3,9 4,14 70,-26 146,-40 224,-40 79,0 154,14 224,40 1,-5 3,-9 4,-14 4,-11 7,-23 11,-35 -75,-28 -155,-42 -239,-42 -84,0 -164,14 -238,42 z m 28,86 c 1,4 3,9 5,13 64,-27 134,-41 205,-41 72,0 141,14 206,41 1,-4 3,-9 5,-13 -67,-25 -138,-38 -211,-38 -73,0 -144,13 -210,38 z m 20,49 c 7,15 14,29 22,42 52,-21 109,-32 168,-32 60,0 116,11 168,32 8,-13 15,-27 22,-42 -58,-24 -123,-38 -190,-38 -67,0 -131,14 -190,38 z m 44,76 c 41,58 90,89 146,89 56,0 105,-31 147,-89 -47,-18 -96,-27 -147,-27 -51,0 -100,9 -146,27 z m -74,-1352 c 29,-18 61,-27 95,-32 -19,-13 -38,-30 -56,-48 l -39,80 z m 69,-229 -49,-60 -16,16 -705,714 c -61,62 -128,120 -199,170 -57,40 -117,74 -176,99 10,16 22,31 36,46 19,21 41,40 67,59 17,13 34,23 51,31 105,52 211,34 310,-22 102,-56 195,-152 268,-254 41,-57 77,-116 104,-171 l 309,-628 z m 1916,379 -1431,-528 -96,-36 -8,24 -20,54 739,750 c 54,54 114,107 176,152 103,74 212,130 317,146 101,15 198,-7 279,-87 16,-15 30,-32 45,-52 44,-60 75,-116 94,-168 19,-51 25,-96 18,-135 -7,-37 -26,-67 -58,-91 -15,-11 -34,-21 -55,-29 z m -2153,-508 -1377,508 c -21,8 -39,18 -54,29 -33,24 -52,54 -59,91 -7,39 -1,84 18,135 19,52 51,108 95,168 54,75 117,117 185,134 78,20 162,8 248,-25 64,-24 128,-60 190,-104 68,-47 134,-104 193,-164 l 705,-714 34,-36 -19,-54 -9,-24 -96,36 -49,18 -5,2 z"
       id="path3416"
       inkscape:connector-curvature="0"
       style="fill:#ffff00" /><path
       class="fil4"
       d="m -2306,14191 c -988,-715 -1631,-1878 -1631,-3191 0,-1313 643,-2476 1631,-3191 l 0,6382 z"
       id="path3418"
       inkscape:connector-curvature="0"
       style="fill:#08085a" /></g></svg>