<?xml version="1.0" encoding="UTF-8" standalone="no"?>
<!-- Creator: CorelDRAW X7 -->

<svg
   xmlns:dc="http://purl.org/dc/elements/1.1/"
   xmlns:cc="http://creativecommons.org/ns#"
   xmlns:rdf="http://www.w3.org/1999/02/22-rdf-syntax-ns#"
   xmlns:svg="http://www.w3.org/2000/svg"
   xmlns="http://www.w3.org/2000/svg"
   xmlns:sodipodi="http://sodipodi.sourceforge.net/DTD/sodipodi-0.dtd"
   xmlns:inkscape="http://www.inkscape.org/namespaces/inkscape"
   xml:space="preserve"
   width="7.8740005in"
   height="7.8740005in"
   version="1.1"
   style="clip-rule:evenodd;fill-rule:evenodd;image-rendering:optimizeQuality;shape-rendering:geometricPrecision;text-rendering:geometricPrecision"
   viewBox="0 0 7874.0005 7874.0005"
   id="svg3742"
   inkscape:version="0.91 r13725"
   sodipodi:docname="Nomads - Sectorial - Jurisdictional Command of Bakunin - [N3] [Vyo].svg"><metadata
     id="metadata3800"><rdf:RDF><cc:Work
         rdf:about=""><dc:format>image/svg+xml</dc:format><dc:type
           rdf:resource="http://purl.org/dc/dcmitype/StillImage" /></cc:Work></rdf:RDF></metadata><sodipodi:namedview
     pagecolor="#ffffff"
     bordercolor="#666666"
     borderopacity="1"
     objecttolerance="10"
     gridtolerance="10"
     guidetolerance="10"
     inkscape:pageopacity="0"
     inkscape:pageshadow="2"
     inkscape:window-width="640"
     inkscape:window-height="480"
     id="namedview3798"
     showgrid="false"
     inkscape:zoom="0.23838384"
     inkscape:cx="736.83001"
     inkscape:cy="849.33005"
     inkscape:window-x="0"
     inkscape:window-y="0"
     inkscape:window-maximized="0"
     inkscape:current-layer="svg3742" /><defs
     id="defs3744"><style
       type="text/css"
       id="style3746"><![CDATA[
    .fil2 {fill:none}
    .fil1 {fill:#FF7B00}
    .fil0 {fill:white}
    .fil3 {fill:black;fill-rule:nonzero}
   ]]></style></defs><g
     id="Layer_x0020_1"
     transform="translate(3937,-7063)"><metadata
       id="CorelCorpID_0Corel-Layer" /><circle
       class="fil0"
       cy="11000"
       r="3839"
       id="circle3750"
       cx="0"
       style="fill:#ffffff" /><path
       class="fil1"
       d="m 697,7807 c 1470,319 2571,1628 2571,3193 0,346 -54,680 -154,993 l -751,-378 c 51,-196 78,-403 78,-615 0,-1123 -759,-2069 -1792,-2354 l 48,-839 z m -1346,839 c -1033,285 -1792,1231 -1792,2354 0,212 27,419 78,615 l -751,378 c -100,-313 -154,-647 -154,-993 0,-1565 1101,-2874 2571,-3193 l 48,839 z m 3065,4554 c -597,656 -1459,1068 -2416,1068 -957,0 -1819,-412 -2416,-1068 l 703,-462 c 440,435 1045,703 1713,703 668,0 1273,-268 1713,-703 l 703,462 z"
       id="path3752"
       inkscape:connector-curvature="0"
       style="fill:#ff7b00" /><path
       class="fil1"
       d="m 0,7063 c 2174,0 3937,1763 3937,3937 0,2174 -1763,3937 -3937,3937 -2174,0 -3937,-1763 -3937,-3937 0,-2174 1763,-3937 3937,-3937 z m -3464,5348 1801,-905 -236,-410 1013,416 -147,1085 -236,-410 -1685,1107 c 684,880 1753,1446 2954,1446 1201,0 2270,-566 2954,-1446 l -1685,-1107 -236,410 -147,-1085 1013,-416 -236,410 1801,905 c 178,-435 276,-912 276,-1411 C 3740,9107 2334,7543 510,7295 l -116,2012 472,0 -866,669 -866,-669 472,0 -116,-2012 c -1824,248 -3230,1812 -3230,3705 0,499 98,976 276,1411 z"
       id="path3754"
       inkscape:connector-curvature="0"
       style="fill:#ff7b00" /><circle
       class="fil2"
       cy="11000"
       r="3661"
       id="circle3756"
       cx="0"
       style="fill:none" /><path
       class="fil3"
       d="m 1630,13536 -59,-108 -211,115 c -47,25 -63,50 -50,75 l 18,33 c 14,25 43,26 87,2 l 215,-117 z m -136,-255 -228,125 c -44,24 -60,48 -48,71 l 18,31 c 14,26 48,24 102,-5 l 214,-117 -58,-105 z m -229,373 c -17,-31 -13,-61 13,-90 -46,9 -78,-3 -97,-37 l -9,-16 c -29,-54 -5,-102 72,-144 l 262,-143 c 10,-6 19,-3 25,8 l 163,299 c 6,10 3,18 -7,23 l -250,137 c -78,43 -132,36 -163,-20 l -9,-17 z"
       id="path3758"
       inkscape:connector-curvature="0"
       style="fill:#000000;fill-rule:nonzero" /><path
       id="1"
       class="fil3"
       d="m 1003,13647 -218,67 162,140 56,-207 z m -261,33 276,-86 33,-108 c 1,-4 3,-8 6,-11 3,-3 6,-5 9,-6 7,-3 15,-2 22,0 7,3 12,8 14,16 2,4 2,9 0,14 l -110,375 c -2,7 -5,13 -11,19 -5,5 -11,8 -18,10 -14,5 -27,2 -39,-8 l -305,-245 c -3,-2 -5,-3 -7,-6 -1,-2 -2,-4 -3,-6 -2,-7 -1,-14 3,-20 4,-6 10,-10 17,-12 4,-1 8,-2 12,-1 5,0 9,2 14,5 l 87,70 z"
       inkscape:connector-curvature="0"
       style="fill:#000000;fill-rule:nonzero" /><path
       id="2"
       class="fil3"
       d="m 462,13831 -298,-106 c -5,-2 -9,-4 -12,-8 -3,-3 -4,-7 -5,-10 -1,-7 1,-13 4,-19 4,-5 10,-9 17,-10 4,0 8,0 14,2 l 320,117 -22,-143 c -2,-15 6,-24 23,-27 19,-3 29,4 31,19 l 51,332 c 2,16 -6,25 -25,28 -17,2 -27,-4 -30,-19 l -20,-138 -258,199 c -5,4 -10,6 -15,7 -7,1 -14,-1 -19,-5 -6,-5 -10,-10 -11,-16 0,-3 0,-7 2,-10 1,-4 4,-7 8,-11 l 245,-182 z"
       inkscape:connector-curvature="0"
       style="fill:#000000;fill-rule:nonzero" /><path
       id="3"
       class="fil3"
       d="m -380,13755 c 6,-69 70,-99 194,-88 l 84,7 c 117,9 172,49 167,118 l -21,252 c -2,15 -11,22 -29,21 -19,-2 -28,-10 -27,-26 l 20,-248 c 4,-42 -31,-66 -105,-72 l -102,-8 c -81,-7 -123,11 -126,53 l -21,248 c -1,15 -11,22 -29,20 -19,-1 -27,-9 -26,-25 l 21,-252 z"
       inkscape:connector-curvature="0"
       style="fill:#000000;fill-rule:nonzero" /><path
       id="4"
       class="fil3"
       d="m -906,13566 c 3,-13 9,-21 17,-25 8,-4 17,-5 25,-3 4,1 8,3 12,6 5,3 8,7 11,11 l 246,374 73,-275 c 4,-16 15,-21 33,-16 17,4 24,14 20,30 l -83,312 c -3,12 -9,19 -17,23 -9,3 -17,3 -25,1 -5,-1 -10,-3 -14,-6 -5,-3 -8,-7 -11,-12 l -244,-367 -73,272 c -4,15 -15,20 -34,15 -16,-4 -23,-14 -19,-29 l 83,-311 z"
       inkscape:connector-curvature="0"
       style="fill:#000000;fill-rule:nonzero" /><path
       id="5"
       class="fil3"
       d="m -1047,13486 c 6,-15 17,-19 35,-12 17,7 23,17 18,32 l -120,313 c -6,15 -18,19 -36,12 -17,-7 -23,-17 -17,-32 l 120,-313 z"
       inkscape:connector-curvature="0"
       style="fill:#000000;fill-rule:nonzero" /><path
       id="6"
       class="fil3"
       d="m -1538,13236 c 7,-11 15,-17 24,-19 8,-2 17,-1 25,4 3,2 7,5 10,9 3,4 5,8 7,14 l 132,428 147,-245 c 8,-14 20,-16 36,-6 16,9 20,20 11,34 l -166,278 c -6,10 -14,15 -23,16 -9,1 -17,-1 -24,-5 -5,-3 -9,-6 -12,-10 -3,-4 -6,-9 -7,-14 l -133,-421 -145,242 c -8,13 -21,15 -37,5 -15,-9 -18,-20 -10,-34 l 165,-276 z"
       inkscape:connector-curvature="0"
       style="fill:#000000;fill-rule:nonzero" /><ellipse
       class="fil2"
       transform="matrix(0.756098,-1.3096,1.69559,0.978947,1.72428e-4,11000)"
       rx="2421"
       ry="1870"
       id="ellipse3766"
       cx="0"
       cy="0"
       style="fill:none" /><path
       class="fil3"
       d="m -3013,11141 123,4 7,-240 c 2,-53 -11,-80 -39,-81 l -38,-1 c -29,-1 -44,24 -46,73 l -7,245 z m 288,13 8,-261 c 1,-50 -11,-76 -37,-76 l -36,-1 c -30,-1 -45,29 -47,90 l -8,244 120,4 z m -205,-387 c 35,1 58,20 70,56 16,-44 43,-65 81,-64 l 19,1 c 61,2 90,47 88,135 l -10,298 c 0,12 -6,17 -19,17 l -341,-11 c -11,0 -17,-6 -16,-18 l 8,-285 c 3,-88 36,-132 101,-130 l 19,1 z"
       id="path3768"
       inkscape:connector-curvature="0"
       style="fill:#000000;fill-rule:nonzero" /><path
       id="path3770"
       class="fil3"
       d="m -2790,10553 41,-225 -198,79 157,146 z m 91,-247 -52,284 81,79 c 3,4 6,7 7,11 1,4 2,8 1,11 -1,7 -5,14 -10,19 -6,5 -13,7 -21,6 -4,-1 -8,-4 -13,-7 l -280,-271 c -6,-5 -10,-11 -12,-19 -2,-7 -2,-14 -1,-21 3,-14 11,-24 25,-30 l 359,-157 c 3,-2 5,-3 8,-3 3,0 5,0 7,0 7,2 13,5 16,12 4,6 5,13 3,20 0,4 -2,8 -5,12 -2,4 -6,7 -10,9 l -103,45 z"
       inkscape:connector-curvature="0"
       style="fill:#000000;fill-rule:nonzero" /><path
       id="path3772"
       class="fil3"
       d="m -2682,9980 245,-200 c 4,-3 8,-5 13,-6 4,0 8,0 11,1 6,3 11,7 14,14 3,6 3,12 0,19 -1,4 -5,7 -9,11 l -266,213 133,55 c 15,6 18,18 11,34 -7,18 -18,23 -32,17 l -310,-130 c -15,-6 -18,-18 -11,-35 7,-16 18,-22 32,-16 l 129,54 -36,-324 c -1,-6 -1,-11 1,-15 3,-7 8,-12 15,-15 6,-2 13,-3 19,0 3,1 5,3 8,6 2,3 4,7 4,13 l 29,304 z"
       inkscape:connector-curvature="0"
       style="fill:#000000;fill-rule:nonzero" /><path
       id="path3774"
       class="fil3"
       d="m -2198,9291 c 57,40 50,110 -22,212 l -49,69 c -67,96 -129,124 -186,84 l -207,-146 c -13,-9 -14,-21 -3,-35 11,-16 23,-20 35,-11 l 204,144 c 34,24 73,6 116,-55 l 59,-84 c 46,-66 52,-111 18,-135 l -204,-143 c -13,-9 -14,-21 -3,-37 11,-15 22,-18 35,-9 l 207,146 z"
       inkscape:connector-curvature="0"
       style="fill:#000000;fill-rule:nonzero" /><path
       id="path3776"
       class="fil3"
       d="m -1769,8932 c 9,10 13,19 13,28 0,9 -4,16 -10,23 -3,3 -7,5 -11,7 -5,3 -10,4 -16,4 l -447,25 202,202 c 12,11 11,23 -2,36 -13,13 -25,14 -37,3 l -229,-229 c -8,-9 -12,-17 -10,-26 1,-9 5,-17 11,-23 3,-3 8,-6 12,-9 5,-2 10,-3 16,-3 l 440,-27 -199,-200 c -11,-10 -10,-23 4,-36 12,-13 24,-13 35,-2 l 228,227 z"
       inkscape:connector-curvature="0"
       style="fill:#000000;fill-rule:nonzero" /><path
       id="path3778"
       class="fil3"
       d="m -1630,8849 c 9,12 6,24 -8,36 -15,11 -28,11 -37,-1 l -205,-266 c -10,-12 -7,-25 9,-37 14,-11 26,-10 35,2 l 206,266 z"
       inkscape:connector-curvature="0"
       style="fill:#000000;fill-rule:nonzero" /><path
       id="path3780"
       class="fil3"
       d="m -1171,8547 c 6,11 8,21 5,30 -3,8 -8,15 -16,19 -4,2 -8,3 -13,4 -5,1 -10,0 -16,-1 l -436,-102 137,251 c 8,14 4,25 -13,34 -15,9 -27,6 -35,-8 l -155,-284 c -6,-11 -7,-20 -3,-28 4,-8 9,-14 17,-18 4,-3 9,-5 14,-6 6,-1 11,0 17,1 l 430,98 -135,-247 c -8,-13 -3,-25 14,-34 15,-8 26,-6 34,8 l 154,283 z"
       inkscape:connector-curvature="0"
       style="fill:#000000;fill-rule:nonzero" /><ellipse
       class="fil2"
       transform="matrix(0.756098,1.3096,-1.69559,0.978947,1.10484e-4,11000)"
       rx="2421"
       ry="1870"
       id="ellipse3782"
       cx="0"
       cy="0"
       style="fill:none" /><path
       class="fil3"
       d="m 1381,8315 -63,106 207,122 c 46,27 76,28 91,4 l 19,-32 c 14,-26 0,-51 -42,-76 l -212,-124 z m -149,247 225,132 c 43,25 72,27 85,4 l 18,-31 c 15,-25 -4,-54 -57,-85 l -211,-123 -60,103 z m 438,5 c -18,30 -46,42 -84,35 32,35 38,69 18,102 l -9,16 c -31,53 -85,57 -161,13 l -257,-151 c -11,-6 -12,-15 -6,-26 l 172,-294 c 6,-10 14,-12 24,-6 l 246,144 c 77,45 99,95 67,151 l -10,16 z"
       id="path3784"
       inkscape:connector-curvature="0"
       style="fill:#000000;fill-rule:nonzero" /><path
       id="path3786"
       class="fil3"
       d="m 1788,8808 171,151 35,-210 -206,59 z m 164,206 -217,-192 -109,29 c -5,1 -9,1 -13,0 -4,-1 -7,-2 -10,-4 -6,-5 -9,-12 -11,-19 -1,-8 1,-14 6,-21 3,-3 7,-5 13,-7 l 376,-101 c 8,-2 15,-2 22,0 8,2 14,5 19,10 11,9 15,22 13,37 l -51,388 c 1,4 0,7 -1,9 -1,2 -3,4 -4,5 -5,6 -11,9 -19,9 -7,-1 -13,-4 -19,-9 -3,-2 -5,-5 -7,-10 -2,-4 -3,-8 -2,-14 l 14,-110 z"
       inkscape:connector-curvature="0"
       style="fill:#000000;fill-rule:nonzero" /><path
       id="path3788"
       class="fil3"
       d="m 2221,9183 61,311 c 0,5 0,9 -2,14 -1,4 -3,7 -6,9 -5,5 -11,6 -18,6 -7,0 -12,-3 -17,-9 -2,-3 -4,-7 -5,-13 l -62,-335 -112,91 c -12,10 -24,8 -35,-6 -12,-15 -12,-27 1,-37 l 261,-211 c 12,-10 24,-8 36,7 11,14 11,25 -2,35 l -108,88 303,122 c 5,2 10,5 12,9 5,5 7,12 6,19 0,7 -3,13 -8,17 -3,2 -6,4 -10,4 -3,1 -8,0 -13,-2 l -282,-119 z"
       inkscape:connector-curvature="0"
       style="fill:#000000;fill-rule:nonzero" /><path
       id="path3790"
       class="fil3"
       d="m 2582,9947 c -62,31 -121,-9 -176,-120 l -38,-76 c -52,-105 -47,-173 15,-204 l 226,-113 c 14,-7 25,-2 33,14 9,18 6,30 -8,37 l -222,110 c -38,19 -41,62 -8,128 l 46,92 c 36,72 73,99 111,80 l 223,-111 c 13,-7 25,-2 33,15 8,16 5,28 -9,35 l -226,113 z"
       inkscape:connector-curvature="0"
       style="fill:#000000;fill-rule:nonzero" /><path
       id="path3792"
       class="fil3"
       d="m 2672,10502 c -12,4 -23,3 -30,-2 -8,-5 -13,-12 -15,-21 -1,-4 -1,-9 -1,-13 1,-5 3,-10 6,-15 l 207,-397 -277,70 c -15,4 -25,-3 -30,-21 -4,-17 1,-28 17,-32 l 313,-80 c 12,-2 21,-1 28,5 7,5 12,12 14,21 1,5 1,10 1,15 0,5 -2,10 -5,15 l -202,392 273,-69 c 15,-4 25,4 29,22 5,17 -1,28 -16,31 l -312,79 z"
       inkscape:connector-curvature="0"
       style="fill:#000000;fill-rule:nonzero" /><path
       id="path3794"
       class="fil3"
       d="m 2679,10663 c -15,2 -25,-6 -27,-25 -3,-19 3,-29 18,-31 l 333,-51 c 15,-2 24,6 27,26 3,17 -3,28 -19,30 l -332,51 z"
       inkscape:connector-curvature="0"
       style="fill:#000000;fill-rule:nonzero" /><path
       id="path3796"
       class="fil3"
       d="m 2711,11212 c -13,0 -22,-4 -28,-10 -6,-7 -9,-15 -9,-25 0,-4 1,-8 3,-13 1,-4 4,-8 9,-12 l 304,-328 -285,-6 c -16,0 -24,-9 -23,-28 0,-18 8,-27 24,-27 l 324,7 c 12,0 20,4 25,11 6,7 8,15 8,24 0,5 -1,10 -3,15 -2,5 -5,10 -9,14 l -298,324 281,6 c 16,0 23,10 23,29 -1,17 -9,26 -24,26 l -322,-7 z"
       inkscape:connector-curvature="0"
       style="fill:#000000;fill-rule:nonzero" /></g></svg>