<?xml version="1.0" encoding="UTF-8" standalone="no"?>
<!-- Creator: CorelDRAW X7 -->

<svg
   xmlns:dc="http://purl.org/dc/elements/1.1/"
   xmlns:cc="http://creativecommons.org/ns#"
   xmlns:rdf="http://www.w3.org/1999/02/22-rdf-syntax-ns#"
   xmlns:svg="http://www.w3.org/2000/svg"
   xmlns="http://www.w3.org/2000/svg"
   xmlns:sodipodi="http://sodipodi.sourceforge.net/DTD/sodipodi-0.dtd"
   xmlns:inkscape="http://www.inkscape.org/namespaces/inkscape"
   xml:space="preserve"
   width="7.8740005in"
   height="7.8740005in"
   version="1.1"
   style="clip-rule:evenodd;fill-rule:evenodd;image-rendering:optimizeQuality;shape-rendering:geometricPrecision;text-rendering:geometricPrecision"
   viewBox="0 0 7874.0005 7874.0005"
   id="svg3676"
   inkscape:version="0.91 r13725"
   sodipodi:docname="Mercs - Main Logo - [N3] [Vyo].svg"><metadata
     id="metadata3720"><rdf:RDF><cc:Work
         rdf:about=""><dc:format>image/svg+xml</dc:format><dc:type
           rdf:resource="http://purl.org/dc/dcmitype/StillImage" /></cc:Work></rdf:RDF></metadata><sodipodi:namedview
     pagecolor="#ffffff"
     bordercolor="#666666"
     borderopacity="1"
     objecttolerance="10"
     gridtolerance="10"
     guidetolerance="10"
     inkscape:pageopacity="0"
     inkscape:pageshadow="2"
     inkscape:window-width="640"
     inkscape:window-height="480"
     id="namedview3718"
     showgrid="false"
     inkscape:zoom="0.23838384"
     inkscape:cx="736.83001"
     inkscape:cy="849.33005"
     inkscape:window-x="0"
     inkscape:window-y="0"
     inkscape:window-maximized="0"
     inkscape:current-layer="svg3676" /><defs
     id="defs3678"><style
       type="text/css"
       id="style3680"><![CDATA[
    .fil1 {fill:#72825F}
    .fil0 {fill:#E3AD32}
   ]]></style></defs><g
     id="Layer_x0020_1"
     transform="translate(3937,-7063)"><metadata
       id="CorelCorpID_0Corel-Layer" /><circle
       class="fil0"
       cy="11000"
       r="3937"
       id="circle3684"
       cx="0"
       style="fill:#e3ad32" /><polygon
       class="fil1"
       points="-354,11551 -354,10449 -157,10449 -157,11551 "
       id="polygon3686"
       style="fill:#72825f" /><polygon
       class="fil1"
       points="-1476,11551 -1476,10449 -1280,10449 -1280,11551 "
       id="polygon3688"
       style="fill:#72825f" /><polygon
       class="fil1"
       points="-3012,11551 -3012,10449 -2815,10449 -2815,11551 "
       id="polygon3690"
       style="fill:#72825f" /><rect
       class="fil1"
       x="-1122"
       y="10449"
       width="413"
       height="197"
       id="rect3692"
       style="fill:#72825f" /><rect
       class="fil1"
       x="-1122"
       y="11354"
       width="413"
       height="197"
       id="rect3694"
       style="fill:#72825f" /><rect
       class="fil1"
       x="-1122"
       y="10882"
       width="335"
       height="197"
       id="rect3696"
       style="fill:#72825f" /><rect
       class="fil1"
       x="1437"
       y="10449"
       width="413"
       height="197"
       id="rect3698"
       style="fill:#72825f" /><rect
       class="fil1"
       x="1437"
       y="11354"
       width="413"
       height="197"
       id="rect3700"
       style="fill:#72825f" /><polygon
       class="fil1"
       points="-1870,10449 -1870,11551 -2067,11551 -2067,10908 -2343,11551 -2539,11551 -2657,11276 -2657,10816 -2441,11322 -2067,10449 "
       id="polygon3702"
       style="fill:#72825f" /><path
       class="fil1"
       d="m 1043,10449 237,0 0,197 -197,0 0,708 197,0 0,197 -237,0 c -87,0 -157,-70 -157,-157 l 0,-788 c 0,-87 70,-157 157,-157 z"
       id="path3704"
       inkscape:connector-curvature="0"
       style="fill:#72825f" /><rect
       class="fil1"
       x="2598"
       y="10449"
       width="335"
       height="197"
       id="rect3706"
       style="fill:#72825f" /><rect
       class="fil1"
       x="2106"
       y="11354"
       width="335"
       height="197"
       id="rect3708"
       style="fill:#72825f" /><path
       class="fil1"
       d="m 394,11079 -235,0 472,472 -80,0 -197,0 -1,0 -354,-353 1,-1 0,0 0,-315 354,0 0,-234 -354,-1 0,-198 394,0 c 87,0 157,70 157,157 l 0,0 0,315 c 0,87 -70,158 -157,158 z"
       id="path3710"
       inkscape:connector-curvature="0"
       style="fill:#72825f" /><path
       class="fil1"
       d="m 2244,10449 197,0 0,197 -158,0 0,236 158,0 0,197 -197,0 c -87,0 -157,-71 -157,-158 l 0,-315 c 0,-87 70,-157 157,-157 z"
       id="path3712"
       inkscape:connector-curvature="0"
       style="fill:#72825f" /><path
       class="fil1"
       d="m 2854,11551 -256,0 0,-197 217,0 0,-275 -217,0 0,-197 256,0 c 87,0 158,70 158,157 l 0,355 c 0,87 -71,157 -158,157 z"
       id="path3714"
       inkscape:connector-curvature="0"
       style="fill:#72825f" /><path
       class="fil1"
       d="m 0,7181 c 1797,0 3304,1242 3711,2913 l -694,0 C 2684,8980 1749,8126 591,7906 l 0,1092 c 568,168 1036,571 1289,1096 l -3760,0 c 253,-525 721,-928 1289,-1096 l 0,-1092 c -1158,220 -2093,1074 -2426,2188 l -694,0 C -3304,8423 -1797,7181 0,7181 Z m 3711,4725 c -407,1671 -1914,2913 -3711,2913 -1797,0 -3304,-1242 -3711,-2913 l 694,0 c 333,1114 1268,1968 2426,2188 l 0,-1092 c -568,-168 -1036,-571 -1289,-1096 l 3760,0 c -253,525 -721,928 -1289,1096 l 0,1092 c 1158,-220 2093,-1074 2426,-2188 l 694,0 z"
       id="path3716"
       inkscape:connector-curvature="0"
       style="fill:#72825f" /></g></svg>