<?xml version="1.0" encoding="UTF-8" standalone="no"?>
<!-- Creator: CorelDRAW X7 -->

<svg
   xmlns:dc="http://purl.org/dc/elements/1.1/"
   xmlns:cc="http://creativecommons.org/ns#"
   xmlns:rdf="http://www.w3.org/1999/02/22-rdf-syntax-ns#"
   xmlns:svg="http://www.w3.org/2000/svg"
   xmlns="http://www.w3.org/2000/svg"
   xmlns:sodipodi="http://sodipodi.sourceforge.net/DTD/sodipodi-0.dtd"
   xmlns:inkscape="http://www.inkscape.org/namespaces/inkscape"
   xml:space="preserve"
   width="7.8740005in"
   height="7.8740005in"
   version="1.1"
   style="clip-rule:evenodd;fill-rule:evenodd;image-rendering:optimizeQuality;shape-rendering:geometricPrecision;text-rendering:geometricPrecision"
   viewBox="0 0 7874.0005 7874.0005"
   id="svg3802"
   inkscape:version="0.91 r13725"
   sodipodi:docname="Nomads - Sectorial - Jurisdictional Command of Corregidor - [N3] [Vyo].svg"><metadata
     id="metadata3894"><rdf:RDF><cc:Work
         rdf:about=""><dc:format>image/svg+xml</dc:format><dc:type
           rdf:resource="http://purl.org/dc/dcmitype/StillImage" /></cc:Work></rdf:RDF></metadata><sodipodi:namedview
     pagecolor="#ffffff"
     bordercolor="#666666"
     borderopacity="1"
     objecttolerance="10"
     gridtolerance="10"
     guidetolerance="10"
     inkscape:pageopacity="0"
     inkscape:pageshadow="2"
     inkscape:window-width="640"
     inkscape:window-height="480"
     id="namedview3892"
     showgrid="false"
     inkscape:zoom="0.23838384"
     inkscape:cx="736.83001"
     inkscape:cy="849.33005"
     inkscape:window-x="0"
     inkscape:window-y="0"
     inkscape:window-maximized="0"
     inkscape:current-layer="svg3802" /><defs
     id="defs3804"><style
       type="text/css"
       id="style3806"><![CDATA[
    .fil3 {fill:none}
    .fil1 {fill:black}
    .fil0 {fill:#FF7B00}
    .fil2 {fill:white}
    .fil4 {fill:white;fill-rule:nonzero}
   ]]></style></defs><g
     id="Layer_x0020_1"
     transform="translate(3937,-7063)"><metadata
       id="CorelCorpID_0Corel-Layer" /><circle
       class="fil0"
       cy="11000"
       r="3937"
       id="circle3810"
       cx="0"
       style="fill:#ff7b00" /><circle
       class="fil1"
       cy="11000"
       r="3780"
       id="circle3812"
       cx="0"
       style="fill:#000000" /><circle
       class="fil0"
       cy="11000"
       r="3110"
       id="circle3814"
       cx="0"
       style="fill:#ff7b00" /><g
       id="_883907440"><path
         class="fil2"
         d="m 858,12040 -494,1895 c 0,0 0,1 0,2 l 0,0 0,0 c -6,20 -25,35 -48,35 l -632,0 c -24,0 -43,-16 -48,-37 l -494,-1895 c -7,-26 8,-53 34,-60 16,-4 32,0 44,9 l 0,0 c 214,170 485,271 780,271 295,0 566,-101 780,-271 l 0,0 c 12,-9 28,-13 44,-9 26,7 41,34 34,60 l 0,0 z"
         id="path3817"
         inkscape:connector-curvature="0"
         style="fill:#ffffff" /><path
         class="fil1"
         d="m 729,12146 c -216,138 -468,212 -729,212 -261,0 -513,-74 -729,-212 l 451,1728 556,0 451,-1728 z"
         id="path3819"
         inkscape:connector-curvature="0"
         style="fill:#000000" /></g><circle
       class="fil3"
       cy="11000"
       r="3839"
       id="circle3821"
       cx="0"
       style="fill:none" /><path
       class="fil4"
       d="m 3588,11468 c 8,-65 -3,-100 -33,-104 l -200,-26 c -36,-5 -59,29 -68,101 l -29,215 c -2,14 -10,20 -25,19 -17,-3 -24,-11 -22,-25 l 30,-224 c 14,-105 54,-153 119,-144 l 202,26 c 61,8 85,64 72,167 l -30,227 c -2,14 -11,20 -26,18 -15,-2 -22,-10 -20,-24 l 30,-226 z"
       id="path3823"
       inkscape:connector-curvature="0"
       style="fill:#ffffff;fill-rule:nonzero" /><path
       id="1"
       class="fil4"
       d="m 3354,12205 c 39,12 67,-14 85,-76 l 40,-136 c 20,-65 10,-104 -28,-115 l -178,-52 c -37,-11 -65,16 -84,82 l -39,133 c -19,64 -10,101 27,112 l 177,52 z m -195,4 c -66,-19 -83,-85 -50,-197 l 31,-106 c 33,-111 82,-157 148,-138 l 183,54 c 65,19 82,84 49,196 l -31,105 c -33,112 -82,159 -148,140 l -182,-54 z"
       inkscape:connector-curvature="0"
       style="fill:#ffffff;fill-rule:nonzero" /><path
       id="2"
       class="fil4"
       d="m 3107,12759 c 31,15 61,-6 91,-63 l 116,-227 -129,-67 -122,236 c -26,52 -27,84 -1,97 l 45,24 z m -67,30 c -57,-29 -62,-88 -16,-177 l 66,-129 -212,173 c -9,6 -18,8 -26,4 -6,-3 -11,-9 -14,-16 -4,-6 -3,-13 0,-20 2,-4 5,-7 9,-9 l 299,-232 -123,-64 c -15,-7 -18,-20 -9,-37 9,-18 21,-23 36,-16 l 316,163 c 11,5 13,14 8,25 l -131,255 c -50,97 -105,131 -165,100 l -38,-20 z"
       inkscape:connector-curvature="0"
       style="fill:#ffffff;fill-rule:nonzero" /><path
       id="3"
       class="fil4"
       d="m 2777,13245 c 28,20 61,4 98,-49 l 149,-207 -119,-85 -154,216 c -34,47 -39,79 -16,95 l 42,30 z m -72,21 c -51,-37 -48,-96 11,-178 l 84,-118 -235,140 c -10,5 -19,5 -26,0 -6,-4 -10,-10 -12,-17 -3,-7 -1,-14 3,-20 2,-4 6,-6 10,-8 l 330,-186 -113,-81 c -13,-9 -14,-22 -3,-38 12,-17 24,-20 38,-10 l 289,207 c 10,7 11,16 4,26 l -167,233 c -64,89 -123,114 -178,75 l -35,-25 z"
       inkscape:connector-curvature="0"
       style="fill:#ffffff;fill-rule:nonzero" /><path
       id="4"
       class="fil4"
       d="m 2565,13374 -252,241 c -10,9 -20,8 -31,-3 -12,-12 -12,-22 -2,-32 l 252,-240 -52,-54 c -23,-25 -58,-15 -104,29 l -183,175 c -10,10 -21,10 -31,-1 -12,-12 -12,-23 -1,-33 l 183,-176 c 75,-71 134,-83 178,-37 l 140,147 c 45,47 29,107 -48,180 l -50,47 c -10,10 -20,9 -31,-2 -11,-11 -11,-21 -1,-31 l 34,-32 c 59,-56 76,-97 53,-121 l -54,-57 z"
       inkscape:connector-curvature="0"
       style="fill:#ffffff;fill-rule:nonzero" /><path
       id="5"
       class="fil4"
       d="m 1767,13874 c -38,-52 -17,-107 63,-165 l 130,-94 c 87,-63 149,-68 187,-16 l 120,167 c 37,50 12,107 -76,171 l -51,37 c -11,8 -21,6 -30,-7 -9,-12 -8,-22 3,-31 l 37,-26 c 65,-47 88,-84 69,-110 l -120,-166 c -20,-27 -57,-20 -112,20 l -129,93 c -48,35 -62,65 -43,90 l 62,86 c 9,13 6,26 -10,38 -17,11 -29,11 -39,-2 l -61,-85 z"
       inkscape:connector-curvature="0"
       style="fill:#ffffff;fill-rule:nonzero" /><path
       id="6"
       class="fil4"
       d="m 1586,13882 c -8,-15 -3,-27 14,-37 17,-9 30,-7 38,7 l 175,306 c 8,14 4,26 -14,37 -17,9 -29,7 -37,-7 l -176,-306 z"
       inkscape:connector-curvature="0"
       style="fill:#ffffff;fill-rule:nonzero" /><path
       id="7"
       class="fil4"
       d="m 1242,14355 c 15,31 50,33 108,7 l 238,-109 -126,-275 -236,108 c -59,27 -81,58 -65,92 l 81,177 z m -134,-153 c -29,-63 3,-116 96,-158 l 275,-126 c 12,-5 20,-2 26,10 l 149,326 c 5,11 1,19 -10,24 l -275,126 c -93,43 -153,34 -180,-25 l -81,-177 z"
       inkscape:connector-curvature="0"
       style="fill:#ffffff;fill-rule:nonzero" /><path
       id="8"
       class="fil4"
       d="m 664,14497 c 9,38 45,51 108,36 l 138,-31 c 66,-15 95,-43 86,-82 l -41,-180 c -9,-37 -46,-48 -113,-33 l -135,31 c -65,15 -93,41 -85,78 l 42,181 z m -99,-169 c -15,-67 34,-114 148,-140 l 107,-24 c 113,-26 177,-6 193,61 l 42,185 c 15,67 -34,113 -147,139 l -107,25 c -114,26 -179,6 -194,-61 l -42,-185 z"
       inkscape:connector-curvature="0"
       style="fill:#ffffff;fill-rule:nonzero" /><path
       id="9"
       class="fil4"
       d="m 76,14571 c 2,35 36,49 101,44 l 254,-21 -12,-145 -264,22 c -58,4 -86,21 -84,49 l 5,51 z m -62,-41 c -6,-63 42,-99 142,-107 l 145,-12 -259,-89 c -11,-4 -16,-11 -17,-19 -1,-8 1,-15 5,-21 5,-6 10,-10 18,-11 4,0 8,1 12,3 l 355,132 -11,-138 c -1,-17 8,-26 27,-28 20,-1 31,6 33,23 l 28,355 c 1,12 -5,18 -17,19 l -286,23 c -109,9 -166,-20 -172,-87 l -3,-43 z"
       inkscape:connector-curvature="0"
       style="fill:#ffffff;fill-rule:nonzero" /><g
       id="_786309856"><path
         class="fil2"
         d="m 472,9737 1888,-520 c 0,0 1,0 1,0 l 1,0 0,0 c 20,-5 43,3 54,23 l 316,548 c 12,20 8,45 -8,60 l -1394,1375 c -19,19 -50,19 -69,0 -12,-11 -16,-27 -14,-42 l 0,0 c 39,-270 -9,-556 -156,-811 -147,-255 -370,-439 -625,-540 l 0,0 c -13,-6 -25,-18 -29,-33 -7,-26 9,-53 35,-60 l 0,0 z"
         id="path3835"
         inkscape:connector-curvature="0"
         style="fill:#ffffff" /><path
         class="fil1"
         d="m 628,9796 c 227,118 418,299 548,525 131,226 192,481 181,737 L 2628,9804 2350,9322 628,9796 Z"
         id="path3837"
         inkscape:connector-curvature="0"
         style="fill:#000000" /></g><g
       id="_786313472"><path
         class="fil2"
         d="M -1330,11223 -2724,9848 c 0,-1 -1,-1 -1,-1 l 0,0 0,-1 c -15,-15 -19,-39 -7,-58 l 316,-548 c 12,-20 35,-29 57,-23 l 1887,519 c 26,7 42,34 35,61 -4,15 -16,27 -29,33 l 0,0 c -255,101 -478,285 -625,540 -147,255 -195,541 -156,811 l 0,0 c 2,15 -2,31 -14,42 -19,19 -50,19 -69,0 l 0,0 z"
         id="path3840"
         inkscape:connector-curvature="0"
         style="fill:#ffffff" /><path
         class="fil1"
         d="m -1357,11058 c -11,-256 50,-511 181,-737 130,-226 321,-407 548,-525 l -1722,-474 -278,482 1271,1254 z"
         id="path3842"
         inkscape:connector-curvature="0"
         style="fill:#000000" /></g><circle
       class="fil2"
       cy="11000"
       r="984"
       id="circle3844"
       cx="0"
       style="fill:#ffffff" /><circle
       class="fil1"
       cy="11000"
       r="886"
       id="circle3846"
       cx="0"
       style="fill:#000000" /><ellipse
       class="fil3"
       transform="matrix(0.792683,-1.37297,1.77763,1.02632,1.80771e-4,11000)"
       rx="2421"
       ry="1870"
       id="ellipse3848"
       cx="0"
       cy="0"
       style="fill:none" /><path
       class="fil4"
       d="m -2199,13868 c 52,41 87,49 107,25 l 124,-159 c 23,-28 5,-65 -52,-110 l -171,-134 c -11,-9 -12,-19 -3,-31 10,-13 21,-15 32,-6 l 178,139 c 83,66 104,124 63,176 l -126,161 c -38,48 -98,40 -179,-24 l -180,-141 c -11,-9 -12,-20 -3,-31 10,-13 20,-14 31,-5 l 179,140 z"
       id="path3850"
       inkscape:connector-curvature="0"
       style="fill:#ffffff;fill-rule:nonzero" /><path
       id="path3852"
       class="fil4"
       d="m -2718,13303 c -29,28 -20,65 24,112 l 99,102 c 48,49 86,59 114,32 l 134,-129 c 27,-27 17,-65 -31,-114 l -96,-99 c -46,-48 -83,-59 -111,-33 l -133,129 z m 93,-171 c 50,-48 115,-30 197,54 l 76,78 c 81,84 96,150 47,198 l -137,132 c -49,47 -114,29 -195,-54 l -76,-79 c -81,-84 -97,-150 -48,-198 l 136,-131 z"
       inkscape:connector-curvature="0"
       style="fill:#ffffff;fill-rule:nonzero" /><path
       id="path3854"
       class="fil4"
       d="m -3072,12812 c -29,19 -26,55 10,110 l 139,213 122,-80 -145,-222 c -32,-49 -60,-65 -83,-50 l -43,29 z m 6,-74 c 53,-35 107,-11 162,73 l 80,122 -46,-270 c -1,-11 2,-20 9,-24 7,-4 13,-6 21,-5 8,0 14,4 18,10 2,3 3,7 3,12 l 54,375 117,-76 c 14,-9 26,-5 37,11 11,17 9,30 -5,39 l -297,195 c -11,7 -19,5 -26,-6 l -157,-240 c -60,-92 -62,-156 -6,-193 l 36,-23 z"
       inkscape:connector-curvature="0"
       style="fill:#ffffff;fill-rule:nonzero" /><path
       id="path3856"
       class="fil4"
       d="m -3330,12280 c -31,14 -34,51 -7,110 l 104,232 133,-59 -109,-242 c -23,-53 -48,-74 -74,-62 l -47,21 z m 18,-72 c 58,-26 108,7 149,98 l 59,132 -3,-273 c 1,-12 5,-19 13,-23 7,-3 14,-3 22,-2 7,2 12,7 15,14 2,3 3,7 2,12 l -5,379 126,-57 c 15,-7 27,-1 35,16 8,19 5,31 -10,38 l -325,146 c -11,5 -19,2 -24,-10 l -118,-261 c -45,-100 -36,-164 25,-192 l 39,-17 z"
       inkscape:connector-curvature="0"
       style="fill:#ffffff;fill-rule:nonzero" /><path
       id="path3858"
       class="fil4"
       d="m -3334,12037 -88,-338 c -4,-13 2,-22 18,-26 15,-4 24,1 28,14 l 88,338 72,-19 c 33,-9 41,-44 25,-106 l -64,-245 c -3,-14 2,-23 17,-27 15,-4 25,1 29,15 l 64,246 c 26,100 8,158 -53,174 l -197,51 c -63,16 -107,-27 -134,-129 l -18,-67 c -3,-14 3,-22 18,-26 14,-4 23,1 27,14 l 12,45 c 20,79 47,114 80,106 l 76,-20 z"
       inkscape:connector-curvature="0"
       style="fill:#ffffff;fill-rule:nonzero" /><path
       id="path3860"
       class="fil4"
       d="m -3365,11091 c 65,-5 101,41 110,139 l 14,160 c 9,107 -18,163 -82,168 l -205,18 c -62,6 -98,-45 -108,-153 l -5,-63 c -1,-14 6,-21 21,-23 15,-1 23,5 25,19 l 4,46 c 7,79 26,118 58,115 l 205,-18 c 32,-3 46,-38 40,-107 l -14,-158 c -5,-58 -24,-86 -56,-83 l -105,9 c -16,2 -25,-8 -27,-28 -1,-20 6,-30 21,-32 l 104,-9 z"
       inkscape:connector-curvature="0"
       style="fill:#ffffff;fill-rule:nonzero" /><path
       id="path3862"
       class="fil4"
       d="m -3287,10933 c 16,0 24,10 24,30 -1,20 -9,29 -25,29 l -353,-6 c -16,0 -24,-10 -24,-31 0,-19 9,-28 25,-28 l 353,6 z"
       inkscape:connector-curvature="0"
       style="fill:#ffffff;fill-rule:nonzero" /><path
       id="path3864"
       class="fil4"
       d="m -3525,10399 c -34,-3 -54,27 -60,90 l -24,261 302,27 23,-259 c 6,-64 -10,-98 -47,-101 l -194,-18 z m 199,-40 c 69,6 99,60 89,162 l -27,301 c -1,13 -8,18 -21,17 l -357,-32 c -12,-1 -18,-8 -16,-21 l 27,-302 c 9,-101 46,-149 111,-143 l 194,18 z"
       inkscape:connector-curvature="0"
       style="fill:#ffffff;fill-rule:nonzero" /><path
       id="path3866"
       class="fil4"
       d="m -3359,9824 c -38,-12 -67,13 -86,74 l -43,136 c -20,65 -12,103 26,116 l 177,55 c 37,12 65,-15 86,-80 l 41,-132 c 21,-64 13,-101 -24,-113 l -177,-56 z m 196,0 c 65,21 81,87 46,199 l -33,104 c -36,111 -86,156 -152,135 l -181,-57 c -65,-20 -80,-86 -45,-197 l 33,-105 c 35,-111 86,-157 151,-136 l 181,57 z"
       inkscape:connector-curvature="0"
       style="fill:#ffffff;fill-rule:nonzero" /><path
       id="path3868"
       class="fil4"
       d="m -3127,9279 c -31,-15 -61,7 -89,65 l -110,230 131,63 115,-239 c 25,-52 25,-84 -1,-97 l -46,-22 z m 67,-32 c 57,27 64,86 20,176 l -63,131 208,-178 c 9,-7 18,-8 25,-4 7,3 12,8 15,15 4,6 4,13 0,20 -1,4 -4,7 -8,9 l -293,240 125,60 c 15,7 18,20 10,37 -9,19 -21,24 -36,17 l -320,-155 c -11,-5 -14,-13 -8,-25 l 124,-258 c 47,-98 102,-133 162,-104 l 39,19 z"
       inkscape:connector-curvature="0"
       style="fill:#ffffff;fill-rule:nonzero" /><ellipse
       class="fil3"
       transform="matrix(0.792683,1.37297,-1.77763,1.02632,1.1583e-4,11000)"
       rx="2421"
       ry="1870"
       id="ellipse3870"
       cx="0"
       cy="0"
       style="fill:none" /><path
       class="fil4"
       d="m -1388,7660 c -61,25 -85,52 -73,81 l 77,186 c 14,34 54,36 121,9 l 201,-84 c 13,-5 23,-1 29,13 6,15 3,26 -11,31 l -208,86 c -98,41 -160,31 -185,-30 l -78,-189 c -24,-57 12,-105 108,-145 l 212,-88 c 13,-5 23,-1 28,13 6,15 3,24 -11,30 l -210,87 z"
       id="path3872"
       inkscape:connector-curvature="0"
       style="fill:#ffffff;fill-rule:nonzero" /><path
       id="path3874"
       class="fil4"
       d="m -639,7488 c -11,-39 -47,-50 -109,-34 l -137,36 c -67,18 -95,46 -85,84 l 47,180 c 10,37 48,47 114,29 l 134,-35 c 65,-17 92,-44 83,-80 l -47,-180 z m 104,165 c 17,67 -31,115 -144,145 l -106,28 c -112,29 -177,11 -195,-56 l -48,-184 c -17,-66 30,-114 143,-143 l 106,-28 c 113,-30 178,-11 196,55 l 48,183 z"
       inkscape:connector-curvature="0"
       style="fill:#ffffff;fill-rule:nonzero" /><path
       id="path3876"
       class="fil4"
       d="m -26,7436 c -1,-35 -34,-51 -99,-49 l -255,10 5,146 265,-10 c 58,-2 87,-18 86,-46 l -2,-51 z m 60,44 c 2,63 -47,96 -147,100 l -145,6 254,100 c 11,5 16,12 16,20 1,8 -1,15 -6,21 -4,6 -10,9 -18,9 -4,1 -8,0 -12,-3 l -349,-147 5,138 c 1,17 -9,26 -28,27 -21,0 -31,-8 -32,-25 l -13,-355 c 0,-12 6,-18 19,-19 l 286,-10 c 110,-4 166,27 168,94 l 2,44 z"
       inkscape:connector-curvature="0"
       style="fill:#ffffff;fill-rule:nonzero" /><path
       id="path3878"
       class="fil4"
       d="m 551,7465 c 3,-34 -28,-54 -93,-59 l -254,-20 -11,145 264,21 c 58,4 88,-8 90,-36 l 4,-51 z m 55,51 c -5,63 -58,90 -158,82 l -144,-11 241,129 c 10,6 14,14 14,22 -1,8 -4,14 -9,20 -5,5 -12,8 -19,7 -4,0 -8,-2 -12,-4 l -329,-187 -11,138 c -2,17 -12,24 -31,23 -21,-2 -30,-11 -29,-27 l 28,-355 c 1,-12 8,-18 21,-17 l 285,23 c 110,9 162,47 156,114 l -3,43 z"
       inkscape:connector-curvature="0"
       style="fill:#ffffff;fill-rule:nonzero" /><path
       id="path3880"
       class="fil4"
       d="m 775,7591 334,99 c 13,4 18,14 13,29 -4,15 -13,21 -26,17 l -334,-99 -22,71 c -9,33 16,58 78,76 l 242,72 c 14,5 19,14 15,29 -5,15 -14,21 -29,17 l -243,-73 c -99,-29 -139,-74 -121,-135 l 58,-195 c 19,-62 79,-78 181,-48 l 66,20 c 13,4 18,13 13,28 -4,15 -13,20 -26,16 l -45,-13 c -78,-23 -122,-19 -132,14 l -22,75 z"
       inkscape:connector-curvature="0"
       style="fill:#ffffff;fill-rule:nonzero" /><path
       id="path3882"
       class="fil4"
       d="m 1605,8034 c -27,59 -85,68 -174,27 l -147,-67 c -97,-44 -132,-95 -106,-154 l 86,-187 c 26,-57 88,-63 186,-18 l 57,26 c 13,6 16,16 10,29 -6,15 -16,19 -29,13 l -41,-19 c -73,-33 -116,-35 -129,-6 l -86,187 c -13,30 11,59 73,87 l 145,66 c 53,24 87,22 100,-7 l 44,-97 c 6,-14 19,-17 37,-9 18,8 24,20 17,34 l -43,95 z"
       inkscape:connector-curvature="0"
       style="fill:#ffffff;fill-rule:nonzero" /><path
       id="path3884"
       class="fil4"
       d="m 1703,8184 c -8,14 -21,16 -38,6 -17,-10 -21,-22 -13,-36 l 180,-303 c 9,-15 22,-16 39,-6 17,10 21,22 12,36 l -180,303 z"
       inkscape:connector-curvature="0"
       style="fill:#ffffff;fill-rule:nonzero" /><path
       id="path3886"
       class="fil4"
       d="m 2285,8244 c 20,-28 4,-60 -48,-97 l -213,-151 -175,247 212,150 c 53,37 90,41 112,10 l 112,-159 z m -65,193 c -40,56 -102,55 -185,-4 l -247,-175 c -10,-7 -11,-17 -4,-27 l 207,-293 c 7,-9 16,-11 26,-3 l 247,175 c 84,59 106,115 69,168 l -113,159 z"
       inkscape:connector-curvature="0"
       style="fill:#ffffff;fill-rule:nonzero" /><path
       id="path3888"
       class="fil4"
       d="m 2698,8672 c 29,-28 21,-65 -23,-112 l -97,-103 c -47,-50 -85,-61 -114,-33 l -135,127 c -28,26 -19,64 28,114 l 95,100 c 46,49 83,60 110,34 l 136,-127 z m -96,170 c -50,48 -115,29 -196,-56 l -75,-80 c -79,-85 -94,-151 -44,-198 l 138,-130 c 50,-47 115,-28 195,56 l 75,80 c 80,85 95,151 45,198 l -138,130 z"
       inkscape:connector-curvature="0"
       style="fill:#ffffff;fill-rule:nonzero" /><path
       id="path3890"
       class="fil4"
       d="m 3056,9148 c 29,-20 25,-56 -12,-110 l -144,-210 -121,83 150,218 c 33,48 61,64 85,48 l 42,-29 z m -5,74 c -52,36 -107,13 -164,-70 l -82,-120 52,269 c 1,11 -2,19 -9,24 -6,4 -13,6 -21,6 -7,-1 -13,-4 -18,-10 -2,-4 -3,-8 -3,-12 l -62,-374 -115,78 c -14,10 -26,7 -37,-9 -11,-17 -10,-30 4,-40 l 293,-201 c 10,-7 19,-5 26,6 l 162,236 c 62,90 65,155 10,193 l -36,24 z"
       inkscape:connector-curvature="0"
       style="fill:#ffffff;fill-rule:nonzero" /></g></svg>