<?xml version="1.0" encoding="UTF-8" standalone="no"?>
<!-- Creator: CorelDRAW X7 -->

<svg
   xmlns:dc="http://purl.org/dc/elements/1.1/"
   xmlns:cc="http://creativecommons.org/ns#"
   xmlns:rdf="http://www.w3.org/1999/02/22-rdf-syntax-ns#"
   xmlns:svg="http://www.w3.org/2000/svg"
   xmlns="http://www.w3.org/2000/svg"
   xmlns:sodipodi="http://sodipodi.sourceforge.net/DTD/sodipodi-0.dtd"
   xmlns:inkscape="http://www.inkscape.org/namespaces/inkscape"
   xml:space="preserve"
   width="7.8740005in"
   height="7.8740005in"
   version="1.1"
   style="clip-rule:evenodd;fill-rule:evenodd;image-rendering:optimizeQuality;shape-rendering:geometricPrecision;text-rendering:geometricPrecision"
   viewBox="0 0 7874.0005 7874.0005"
   id="svg3722"
   inkscape:version="0.91 r13725"
   sodipodi:docname="Nomads - Main Logo v2 - [N3] [Vyo].svg"><metadata
     id="metadata3740"><rdf:RDF><cc:Work
         rdf:about=""><dc:format>image/svg+xml</dc:format><dc:type
           rdf:resource="http://purl.org/dc/dcmitype/StillImage" /></cc:Work></rdf:RDF></metadata><sodipodi:namedview
     pagecolor="#ffffff"
     bordercolor="#666666"
     borderopacity="1"
     objecttolerance="10"
     gridtolerance="10"
     guidetolerance="10"
     inkscape:pageopacity="0"
     inkscape:pageshadow="2"
     inkscape:window-width="640"
     inkscape:window-height="480"
     id="namedview3738"
     showgrid="false"
     inkscape:zoom="0.23838384"
     inkscape:cx="736.83001"
     inkscape:cy="849.33005"
     inkscape:window-x="0"
     inkscape:window-y="0"
     inkscape:window-maximized="0"
     inkscape:current-layer="svg3722" /><defs
     id="defs3724"><style
       type="text/css"
       id="style3726"><![CDATA[
    .fil0 {fill:black}
    .fil1 {fill:#E2001A}
    .fil2 {fill:white}
   ]]></style></defs><g
     id="Layer_x0020_1"
     transform="translate(3937,-7063)"><metadata
       id="CorelCorpID_0Corel-Layer" /><path
       class="fil0"
       d="m 3937,11000 c 0,2174 -1763,3937 -3937,3937 -2174,0 -3937,-1763 -3937,-3937 l 3109,0 338,283 411,2355 158,0 411,-2355 338,-283 3109,0 z"
       id="path3730"
       inkscape:connector-curvature="0"
       style="fill:#000000" /><path
       class="fil1"
       d="M 3937,11000 C 3937,8826 2174,7063 0,7063 c -2174,0 -3937,1763 -3937,3937 l 3109,0 -1496,-1251 79,-136 2245,821 2245,-821 79,136 -1496,1251 3109,0 z"
       id="path3732"
       inkscape:connector-curvature="0"
       style="fill:#e2001a" /><polygon
       class="fil0"
       points="544,11314 128,13697 -128,13697 -544,11314 -2400,9763 -2271,9540 0,10371 2271,9540 2400,9763 "
       id="polygon3734"
       style="fill:#000000" /><polygon
       class="fil2"
       points="490,11283 79,13638 -79,13638 -490,11283 -2324,9749 -2245,9613 0,10434 2245,9613 2324,9749 "
       id="polygon3736"
       style="fill:#ffffff" /></g></svg>