<?xml version="1.0" encoding="UTF-8" standalone="no"?>
<!-- Creator: CorelDRAW X7 -->

<svg
   xmlns:dc="http://purl.org/dc/elements/1.1/"
   xmlns:cc="http://creativecommons.org/ns#"
   xmlns:rdf="http://www.w3.org/1999/02/22-rdf-syntax-ns#"
   xmlns:svg="http://www.w3.org/2000/svg"
   xmlns="http://www.w3.org/2000/svg"
   xmlns:sodipodi="http://sodipodi.sourceforge.net/DTD/sodipodi-0.dtd"
   xmlns:inkscape="http://www.inkscape.org/namespaces/inkscape"
   xml:space="preserve"
   width="7.8740005in"
   height="7.8740005in"
   version="1.1"
   style="clip-rule:evenodd;fill-rule:evenodd;image-rendering:optimizeQuality;shape-rendering:geometricPrecision;text-rendering:geometricPrecision"
   viewBox="0 0 7874.0005 7874.0005"
   id="svg4017"
   inkscape:version="0.91 r13725"
   sodipodi:docname="PanOceania - Sectorial - Neoterran Capitaline Army v2 - [N3] [Vyo].svg"><metadata
     id="metadata4039"><rdf:RDF><cc:Work
         rdf:about=""><dc:format>image/svg+xml</dc:format><dc:type
           rdf:resource="http://purl.org/dc/dcmitype/StillImage" /></cc:Work></rdf:RDF></metadata><sodipodi:namedview
     pagecolor="#ffffff"
     bordercolor="#666666"
     borderopacity="1"
     objecttolerance="10"
     gridtolerance="10"
     guidetolerance="10"
     inkscape:pageopacity="0"
     inkscape:pageshadow="2"
     inkscape:window-width="640"
     inkscape:window-height="480"
     id="namedview4037"
     showgrid="false"
     inkscape:zoom="0.23838384"
     inkscape:cx="736.83001"
     inkscape:cy="849.33005"
     inkscape:window-x="0"
     inkscape:window-y="0"
     inkscape:window-maximized="0"
     inkscape:current-layer="svg4017" /><defs
     id="defs4019"><style
       type="text/css"
       id="style4021"><![CDATA[
    .fil2 {fill:black}
    .fil1 {fill:#009FE1}
    .fil3 {fill:#E2001A}
    .fil0 {fill:white}
   ]]></style></defs><g
     id="Layer_x0020_1"
     transform="translate(3937,-7063)"><metadata
       id="CorelCorpID_0Corel-Layer" /><path
       class="fil0"
       d="m 0,7063 c -2174,0 -3937,1763 -3937,3937 0,2174 1763,3937 3937,3937 L 0,7063 Z"
       id="path4025"
       inkscape:connector-curvature="0"
       style="fill:#ffffff" /><path
       class="fil1"
       d="m 0,7063 c 2174,0 3937,1763 3937,3937 0,2174 -1763,3937 -3937,3937 L 0,7063 Z"
       id="path4027"
       inkscape:connector-curvature="0"
       style="fill:#009fe1" /><path
       class="fil2"
       d="m 335,13897 0,292 -670,0 0,-292 c -296,-103 -530,-337 -633,-633 l -292,0 0,-670 292,0 c 65,-186 183,-350 338,-472 l 0,-492 -492,0 c -122,155 -286,273 -472,338 l 0,292 -670,0 0,-292 c -296,-103 -530,-337 -633,-633 l -292,0 0,-670 292,0 c 103,-296 337,-530 633,-633 l 0,-292 670,0 0,292 c 186,65 350,183 472,338 l 492,0 0,-492 c -155,-122 -273,-286 -338,-472 l -292,0 0,-670 292,0 c 103,-296 337,-530 633,-633 l 0,-292 670,0 0,292 c 296,103 530,337 633,633 l 292,0 0,670 -292,0 c -65,186 -183,350 -338,472 l 0,492 492,0 c 122,-155 286,-273 472,-338 l 0,-292 670,0 0,292 c 296,103 530,337 633,633 l 292,0 0,670 -292,0 c -103,296 -337,530 -633,633 l 0,292 -670,0 0,-292 c -186,-65 -350,-183 -472,-338 l -492,0 0,492 c 155,122 273,286 338,472 l 292,0 0,670 -292,0 c -103,296 -337,530 -633,633 z"
       id="path4029"
       inkscape:connector-curvature="0"
       style="fill:#000000" /><path
       class="fil3"
       d="m 295,13868 0,282 -590,0 0,-282 c -306,-96 -548,-337 -644,-644 l -281,0 0,-590 281,0 c 62,-199 186,-370 348,-492 l 0,-551 -551,0 c -122,162 -293,286 -492,348 l 0,281 -590,0 0,-281 c -307,-96 -548,-338 -644,-644 l -282,0 0,-590 282,0 c 96,-306 337,-548 644,-644 l 0,-281 590,0 0,281 c 199,62 370,186 492,348 l 551,0 0,-551 c -162,-122 -286,-293 -348,-492 l -281,0 0,-590 281,0 c 96,-307 338,-548 644,-644 l 0,-282 590,0 0,282 c 306,96 548,337 644,644 l 281,0 0,590 -281,0 c -62,199 -186,370 -348,492 l 0,551 551,0 c 122,-162 293,-286 492,-348 l 0,-281 590,0 0,281 c 307,96 548,338 644,644 l 282,0 0,590 -282,0 c -96,306 -337,548 -644,644 l 0,281 -590,0 0,-281 c -199,-62 -370,-186 -492,-348 l -551,0 0,551 c 162,122 286,293 348,492 l 281,0 0,590 -281,0 c -96,307 -338,548 -644,644 z"
       id="path4031"
       inkscape:connector-curvature="0"
       style="fill:#e2001a" /><path
       class="fil2"
       d="m -218,9599 c -212,-88 -353,-296 -353,-528 0,-315 256,-571 571,-571 315,0 571,256 571,571 0,232 -141,440 -353,528 -61,424 -94,853 -99,1282 429,-5 858,-38 1282,-99 88,-212 296,-353 528,-353 315,0 571,256 571,571 0,315 -256,571 -571,571 -232,0 -440,-141 -528,-353 -424,-61 -853,-94 -1282,-99 5,429 38,858 99,1282 212,88 353,296 353,528 0,315 -256,571 -571,571 -315,0 -571,-256 -571,-571 0,-232 141,-440 353,-528 61,-424 94,-853 99,-1282 -429,5 -858,38 -1282,99 -88,212 -296,353 -528,353 -315,0 -571,-256 -571,-571 0,-315 256,-571 571,-571 232,0 440,141 528,353 424,61 853,94 1282,99 -5,-429 -38,-858 -99,-1282 z"
       id="path4033"
       inkscape:connector-curvature="0"
       style="fill:#000000" /><path
       class="fil0"
       d="m 182,12430 c 204,74 349,270 349,499 0,294 -237,532 -531,532 -294,0 -531,-238 -531,-532 0,-229 145,-425 349,-499 64,-442 99,-893 103,-1351 -458,4 -909,39 -1351,103 -74,204 -270,349 -499,349 -294,0 -532,-237 -532,-531 0,-294 238,-531 532,-531 229,0 425,145 499,349 442,64 893,99 1351,103 -4,-458 -39,-909 -103,-1351 -204,-74 -349,-270 -349,-499 0,-294 237,-532 531,-532 294,0 531,238 531,532 0,229 -145,425 -349,499 -64,442 -99,893 -103,1351 458,-4 909,-39 1351,-103 74,-204 270,-349 499,-349 294,0 532,237 532,531 0,294 -238,531 -532,531 -229,0 -425,-145 -499,-349 -442,-64 -893,-99 -1351,-103 4,458 39,909 103,1351 z"
       id="path4035"
       inkscape:connector-curvature="0"
       style="fill:#ffffff" /></g></svg>