<?xml version="1.0" encoding="UTF-8" standalone="no"?>
<!-- Creator: CorelDRAW X7 -->

<svg
   xmlns:dc="http://purl.org/dc/elements/1.1/"
   xmlns:cc="http://creativecommons.org/ns#"
   xmlns:rdf="http://www.w3.org/1999/02/22-rdf-syntax-ns#"
   xmlns:svg="http://www.w3.org/2000/svg"
   xmlns="http://www.w3.org/2000/svg"
   xmlns:sodipodi="http://sodipodi.sourceforge.net/DTD/sodipodi-0.dtd"
   xmlns:inkscape="http://www.inkscape.org/namespaces/inkscape"
   xml:space="preserve"
   width="7.8740005in"
   height="7.8740005in"
   version="1.1"
   style="clip-rule:evenodd;fill-rule:evenodd;image-rendering:optimizeQuality;shape-rendering:geometricPrecision;text-rendering:geometricPrecision"
   viewBox="0 0 7874.0005 7874.0005"
   id="svg3922"
   inkscape:version="0.91 r13725"
   sodipodi:docname="PanOceania - Sectorial - Military Orders - [N3] [Vyo].svg"><metadata
     id="metadata4015"><rdf:RDF><cc:Work
         rdf:about=""><dc:format>image/svg+xml</dc:format><dc:type
           rdf:resource="http://purl.org/dc/dcmitype/StillImage" /></cc:Work></rdf:RDF></metadata><sodipodi:namedview
     pagecolor="#ffffff"
     bordercolor="#666666"
     borderopacity="1"
     objecttolerance="10"
     gridtolerance="10"
     guidetolerance="10"
     inkscape:pageopacity="0"
     inkscape:pageshadow="2"
     inkscape:window-width="640"
     inkscape:window-height="480"
     id="namedview4013"
     showgrid="false"
     inkscape:zoom="0.23838384"
     inkscape:cx="736.83001"
     inkscape:cy="849.33005"
     inkscape:window-x="0"
     inkscape:window-y="0"
     inkscape:window-maximized="0"
     inkscape:current-layer="svg3922" /><defs
     id="defs3924"><style
       type="text/css"
       id="style3926"><![CDATA[
    .fil4 {fill:none}
    .fil0 {fill:black}
    .fil3 {fill:#009FE1}
    .fil2 {fill:#E2001A}
    .fil1 {fill:white}
    .fil5 {fill:white;fill-rule:nonzero}
   ]]></style></defs><g
     id="Layer_x0020_1"
     transform="translate(3937,-7063)"><metadata
       id="CorelCorpID_0Corel-Layer" /><circle
       class="fil0"
       cy="11000"
       r="3937"
       id="circle3930"
       cx="0"
       style="fill:#000000" /><circle
       class="fil1"
       cy="11000"
       r="3307"
       id="circle3932"
       cx="0"
       style="fill:#ffffff" /><g
       id="_1138333088"><circle
         class="fil0"
         cy="8972"
         r="1142"
         id="circle3935"
         cx="0"
         style="fill:#000000" /><path
         class="fil1"
         d="M 0,8972 236,9622 0,9504 -236,9622 0,8972 -236,8323 0,8441 236,8323 0,8972 Z m 0,0 -650,237 119,-237 L -650,8736 0,8972 650,8736 531,8972 650,9209 0,8972 Z"
         id="path3937"
         inkscape:connector-curvature="0"
         style="fill:#ffffff" /></g><g
       id="_1138328192"><circle
         class="fil0"
         cx="-1192"
         cy="12640"
         r="1142"
         id="circle3940"
         style="fill:#000000" /><circle
         class="fil1"
         cx="-1192"
         cy="12640"
         r="906"
         id="circle3942"
         style="fill:#ffffff" /><path
         class="fil2"
         d="m -896,13113 0,-99 -99,0 0,-78 99,0 0,-99 78,0 0,99 99,0 0,78 -99,0 0,99 -78,0 z m -375,-1221 158,0 197,0 0,158 -197,0 0,512 512,0 0,-197 157,0 0,197 0,157 0,197 -157,0 0,-197 -512,0 0,512 197,0 0,157 -197,0 -158,0 -196,0 0,-157 196,0 0,-512 -511,0 0,197 -158,0 0,-197 0,-157 0,-197 158,0 0,197 511,0 0,-512 -196,0 0,-158 196,0 z m -295,551 0,-98 -98,0 0,-79 98,0 0,-98 79,0 0,98 98,0 0,79 -98,0 0,98 -79,0 z m 670,0 0,-98 -99,0 0,-79 99,0 0,-98 78,0 0,98 99,0 0,79 -99,0 0,98 -78,0 z m -670,670 0,-99 -98,0 0,-78 98,0 0,-99 79,0 0,99 98,0 0,78 -98,0 0,99 -79,0 z"
         id="path3944"
         inkscape:connector-curvature="0"
         style="fill:#e2001a" /></g><g
       id="_1138327424"><circle
         class="fil0"
         cx="1192"
         cy="12640"
         r="1142"
         id="circle3947"
         style="fill:#000000" /><circle
         class="fil3"
         cx="1192"
         cy="12640"
         r="1122"
         id="circle3949"
         style="fill:#009fe1" /><circle
         class="fil0"
         cx="1192"
         cy="12640"
         r="906"
         id="circle3951"
         style="fill:#000000" /><circle
         class="fil1"
         cx="1192"
         cy="12640"
         r="886"
         id="circle3953"
         style="fill:#ffffff" /><path
         class="fil0"
         d="m 1369,13211 c -59,0 -79,-19 -98,-39 59,98 -60,157 -79,256 -20,-99 -138,-158 -79,-256 -20,20 -39,39 -98,39 -59,0 -99,-39 -99,-98 0,-59 40,-118 79,-138 -20,98 79,98 98,39 l 0,-275 -275,0 c -59,19 -59,118 39,98 -20,40 -79,79 -138,79 -59,0 -98,-39 -98,-99 0,-59 20,-78 39,-98 -98,59 -157,-59 -256,-79 99,-19 158,-137 256,-78 -19,-20 -39,-40 -39,-99 0,-59 39,-98 98,-98 59,0 118,39 138,78 -98,-19 -98,79 -39,99 l 275,0 0,-276 c -19,-59 -118,-59 -98,40 -39,-20 -79,-79 -79,-138 0,-59 40,-99 99,-99 59,0 78,20 98,40 -59,-99 59,-158 79,-256 19,98 137,158 79,256 19,-20 39,-40 98,-40 59,0 98,40 98,99 0,59 -39,118 -78,138 19,-99 -79,-99 -99,-40 l 0,276 276,0 c 59,-20 59,-118 -40,-99 20,-39 79,-78 138,-78 59,0 99,39 99,98 0,59 -20,79 -40,99 99,-59 158,59 256,78 -98,20 -158,138 -256,79 20,20 40,39 40,98 0,60 -40,99 -99,99 -59,0 -118,-39 -138,-79 99,20 99,-79 40,-98 l -276,0 0,275 c 20,59 118,59 99,-39 39,20 78,79 78,138 0,59 -39,98 -98,98 z"
         id="path3955"
         inkscape:connector-curvature="0"
         style="fill:#000000" /><polygon
         class="fil2"
         points="1251,12247 1251,12581 1585,12581 1585,12699 1251,12699 1251,13034 1133,13034 1133,12699 798,12699 798,12581 1133,12581 1133,12247 "
         id="polygon3957"
         style="fill:#e2001a" /></g><g
       id="_1138346368"><circle
         class="fil0"
         cx="1928"
         cy="10373"
         r="1142"
         id="circle3960"
         style="fill:#000000" /><circle
         class="fil1"
         cx="1928"
         cy="10373"
         r="1122"
         id="circle3962"
         style="fill:#ffffff" /><path
         class="fil0"
         d="m 1928,9448 c 511,0 926,414 926,925 0,511 -415,926 -926,926 -511,0 -925,-415 -925,-926 0,-511 414,-925 925,-925 z m 197,1122 687,0 c 3,-13 6,-26 8,-39 l -734,0 0,734 c 13,-2 26,-5 39,-8 l 0,-687 z m 660,99 -561,0 0,561 c 262,-91 470,-299 561,-561 z M 2086,9482 c 13,2 26,5 39,7 l 0,688 687,0 c 3,13 6,26 8,39 l -734,0 0,-734 z m 138,35 c 262,91 470,299 561,561 l -561,0 0,-561 z m -453,1748 c -13,-2 -27,-5 -40,-8 l 0,-687 -687,0 c -3,-13 -5,-26 -8,-39 l 735,0 0,734 z m -138,-35 c -263,-91 -470,-299 -561,-561 l 561,0 0,561 z m -597,-1014 c 3,-13 5,-26 8,-39 l 687,0 0,-688 c 13,-2 27,-5 40,-7 l 0,734 -735,0 z m 36,-138 c 91,-262 298,-470 561,-561 l 0,561 -561,0 z"
         id="path3964"
         inkscape:connector-curvature="0"
         style="fill:#000000" /></g><g
       id="_1138334336"><circle
         class="fil0"
         cx="-1928"
         cy="10373"
         r="1142"
         id="circle3967"
         style="fill:#000000" /><circle
         class="fil2"
         cx="-1928"
         cy="10373"
         r="1122"
         id="circle3969"
         style="fill:#e2001a" /><circle
         class="fil0"
         cx="-1928"
         cy="10373"
         r="1102"
         id="circle3971"
         style="fill:#000000" /><path
         class="fil2"
         d="m -2598,9586 512,0 c 0,27 4,59 24,79 l -536,0 c -21,0 -39,18 -39,39 l 0,1339 c 0,21 18,39 39,39 l 622,0 8,79 -630,0 c -65,0 -118,-53 -118,-118 l 0,-1339 c 0,-65 53,-118 118,-118 z m 827,0 512,0 c 65,0 118,53 118,118 l 0,1339 c 0,65 -53,118 -118,118 l -630,0 8,-79 622,0 c 21,0 39,-18 39,-39 l 0,-1339 c 0,-21 -18,-39 -39,-39 l -535,0 c 19,-20 23,-52 23,-79 z"
         id="path3973"
         inkscape:connector-curvature="0"
         style="fill:#e2001a" /><path
         class="fil2"
         d="m -1928,11358 -118,-1162 c 39,0 78,-61 78,-98 l 0,-40 -177,0 c -39,0 -59,99 20,99 -20,20 -40,39 -79,39 -39,0 -59,-39 -79,-78 -19,-40 -59,-79 -118,-99 59,-20 99,-59 118,-98 20,-40 40,-79 79,-79 39,0 59,20 79,39 -79,0 -59,99 -20,99 l 177,0 0,-335 c 0,-20 -3,-37 -25,-48 -5,-2 -11,-1 -13,4 -2,5 0,11 4,14 13,6 15,18 15,30 0,10 -10,20 -20,20 -20,0 -59,0 -59,-79 0,-79 118,-138 137,-217 20,79 138,138 138,217 0,79 -39,79 -59,79 -9,0 -19,-10 -19,-20 l 0,0 c 0,-12 1,-24 14,-30 5,-3 7,-9 4,-14 -2,-5 -8,-6 -13,-4 -21,11 -25,28 -25,48 l 0,335 177,0 c 40,0 59,-99 -19,-99 19,-19 39,-39 78,-39 40,0 59,39 79,79 20,39 59,78 118,98 -59,20 -98,59 -118,99 -20,39 -39,78 -79,78 -39,0 -59,-19 -78,-39 78,0 59,-99 19,-99 l -177,0 0,40 c 0,37 39,98 79,98 l -118,1162 z"
         id="path3975"
         inkscape:connector-curvature="0"
         style="fill:#e2001a" /></g><circle
       class="fil4"
       cy="11000"
       r="3898"
       id="circle3977"
       cx="0"
       style="fill:none" /><path
       class="fil5"
       d="m -2602,13559 c -37,34 -38,34 -115,-47 -74,-77 -74,-80 -12,-138 36,-35 53,-46 68,-44 14,2 28,14 71,60 16,16 36,39 46,51 15,17 18,24 17,31 -1,7 -4,11 -17,25 l 70,73 12,-11 c 40,-38 50,-63 39,-95 -7,-24 -27,-49 -86,-111 -118,-124 -151,-145 -194,-130 -20,7 -42,25 -97,78 -28,26 -48,47 -58,58 -24,29 -31,50 -23,76 9,30 35,63 123,155 53,55 81,79 106,93 33,16 60,9 98,-27 4,-4 9,-9 22,-23 l -70,-74 z m 300,125 c -60,-53 -90,-72 -118,-74 -28,-2 -49,10 -85,52 -45,51 -55,72 -50,100 5,28 24,52 90,110 66,56 92,73 121,73 28,1 47,-12 90,-61 38,-44 48,-66 41,-94 -6,-27 -29,-54 -89,-106 z m -43,50 c 19,17 34,33 39,44 7,15 3,27 -17,51 -33,37 -47,36 -98,-8 -22,-19 -36,-34 -40,-45 -8,-15 -3,-26 17,-49 33,-38 48,-37 99,7 z m 284,344 c -15,15 -26,12 -72,-20 -26,-19 -40,-32 -43,-43 -3,-10 -1,-18 13,-38 l 188,134 c 7,-8 13,-17 15,-19 32,-46 41,-73 32,-100 -9,-25 -29,-45 -92,-90 -62,-44 -90,-58 -118,-58 -30,0 -50,15 -86,67 -35,49 -43,72 -35,100 9,25 32,49 87,89 104,73 139,79 183,29 l -72,-51 z m -74,-141 c 20,-26 36,-24 84,11 29,20 42,33 43,45 1,7 0,12 -11,27 l -116,-83 z m 321,-6 -166,289 76,44 167,-289 -77,-44 z m 85,161 -119,205 77,44 118,-205 -76,-44 z m 48,-84 -33,57 77,45 33,-58 -77,-44 z m 227,123 -122,310 319,126 32,-79 -221,-87 91,-231 -99,-39 z m 551,541 64,-227 -85,-25 -26,92 c -12,42 -18,53 -33,61 -14,6 -30,5 -60,-4 -32,-9 -45,-16 -52,-28 -7,-12 -6,-22 3,-56 l 30,-104 -86,-24 -29,104 c -18,62 -18,81 -3,108 14,26 41,43 93,58 57,16 87,12 108,-13 l 5,1 -10,34 81,23 z m 87,-219 77,130 -122,102 108,19 71,-68 5,0 41,89 112,20 -81,-144 112,-91 -111,-20 -58,54 -4,-1 -33,-69 -117,-21 z m 497,-15 -8,333 104,3 3,-249 11,1 170,252 176,4 8,-333 -103,-3 -4,249 -10,0 -169,-253 -178,-4 z m 666,82 c -79,6 -114,14 -135,32 -21,18 -27,42 -23,97 5,68 13,89 36,106 24,16 54,19 142,12 86,-6 116,-13 137,-34 20,-19 24,-42 19,-106 -4,-59 -13,-81 -37,-96 -24,-15 -59,-17 -139,-11 z m 6,66 c 26,-2 47,-1 58,3 16,5 22,17 24,48 4,50 -7,59 -73,64 -29,2 -50,1 -61,-3 -16,-6 -21,-16 -23,-47 -4,-50 8,-60 75,-65 z m 216,74 c 5,27 14,42 30,53 24,15 54,15 139,0 68,-12 109,-24 128,-37 23,-16 30,-39 24,-74 -9,-52 -38,-68 -106,-56 -90,15 -104,17 -119,19 -14,1 -22,-2 -24,-12 -2,-14 14,-22 68,-31 29,-6 48,-6 56,-3 3,1 5,3 8,10 l 89,-16 c -7,-28 -14,-39 -28,-47 -23,-13 -52,-13 -132,1 -63,11 -103,22 -121,34 -24,14 -32,38 -26,73 9,50 40,66 106,55 86,-15 108,-18 120,-20 13,0 21,5 23,14 3,17 -13,25 -69,35 -55,9 -72,6 -78,-14 l -88,16 z m 335,-290 15,52 -45,13 17,61 45,-13 19,66 c 8,30 8,30 11,36 8,24 16,36 31,44 22,11 45,10 100,-6 58,-16 82,-31 93,-57 8,-21 8,-36 -3,-79 l -78,22 2,9 c 8,27 3,35 -24,43 -17,5 -27,4 -34,-3 -5,-6 -6,-9 -13,-33 l -19,-66 135,-39 -18,-61 -134,39 -15,-53 -85,25 z m 268,-24 87,220 82,-32 -36,-91 c -13,-34 -15,-47 -12,-61 4,-13 17,-25 35,-32 18,-7 32,-8 41,-4 7,3 13,10 19,26 l 0,1 0,1 78,-31 -6,-15 c -13,-32 -24,-48 -40,-58 -20,-11 -47,-9 -83,5 -47,18 -66,38 -70,72 l -4,2 -13,-33 -78,30 z m 394,-84 c -8,-21 -3,-25 53,-54 48,-25 57,-24 73,9 l 6,11 -3,2 c -20,-7 -32,-4 -68,14 -57,29 -78,42 -94,57 -27,24 -30,52 -11,90 26,50 56,54 125,18 52,-27 72,-39 82,-51 10,-14 15,-25 14,-41 l 3,-2 15,29 76,-39 -66,-127 c -19,-38 -32,-52 -53,-59 -27,-9 -44,-4 -113,32 -65,34 -100,56 -113,75 -17,25 -18,45 -5,76 l 79,-40 z m 81,28 c 34,-17 47,-23 53,-24 10,-1 17,3 22,11 9,19 -4,32 -59,61 -42,21 -57,23 -66,6 -4,-8 -3,-16 3,-24 5,-6 21,-17 47,-30 z m 378,-94 196,-139 c 92,-65 113,-86 120,-120 7,-32 -6,-64 -57,-135 -31,-44 -45,-61 -65,-76 -26,-19 -55,-22 -86,-8 -26,12 -36,18 -105,67 l -196,140 193,271 z m 32,-127 -95,-134 114,-82 c 51,-36 63,-42 78,-38 15,3 28,16 52,50 44,61 42,69 -33,122 l -116,82 z m 606,-387 -164,-171 -64,61 66,69 c 30,32 37,43 35,59 -1,15 -11,29 -33,50 -24,23 -36,31 -51,30 -13,0 -22,-6 -46,-31 l -74,-78 -64,61 74,79 c 45,46 60,56 91,57 30,1 58,-13 97,-51 43,-41 55,-69 44,-100 l 4,-3 24,26 61,-58 z m -140,-184 150,0 26,157 72,-83 -23,-96 3,-3 98,9 74,-86 -165,-3 -20,-144 -75,86 17,77 -3,3 -77,-7 -77,90 z"
       id="path3979"
       inkscape:connector-curvature="0"
       style="fill:#ffffff;fill-rule:nonzero" /><circle
       class="fil4"
       cy="11000"
       r="3898"
       id="circle3981"
       cx="0"
       style="fill:none" /><path
       class="fil5"
       d="m -3191,12198 -31,-97 -78,25 -39,-122 c -22,-70 -31,-92 -46,-111 -26,-32 -58,-35 -127,-13 -83,27 -102,53 -91,118 4,17 6,27 25,84 l 69,217 318,-101 z m -188,-47 -81,26 -39,-121 c -13,-43 -14,-44 -13,-52 1,-13 9,-20 31,-27 23,-7 33,-7 41,1 7,7 7,9 22,52 l 39,121 z"
       id="path3983"
       inkscape:connector-curvature="0"
       style="fill:#ffffff;fill-rule:nonzero" /><path
       id="1"
       class="fil5"
       d="m -3378,11423 -19,-114 -300,226 25,156 358,121 -19,-115 -61,-19 -35,-217 51,-38 z m -117,84 24,147 -136,-43 -3,-20 115,-84 z"
       inkscape:connector-curvature="0"
       style="fill:#ffffff;fill-rule:nonzero" /><polygon
       id="2"
       class="fil5"
       points="-3649,11172 -3649,11161 -3404,10982 -3407,10805 -3740,10811 -3739,10914 -3490,10908 -3490,10918 -3735,11097 -3732,11275 -3399,11269 -3401,11165 "
       style="fill:#ffffff;fill-rule:nonzero" /><path
       id="3"
       class="fil5"
       d="m -3706,10470 c -18,137 -18,169 -2,197 16,27 49,40 141,51 96,13 131,10 154,-13 22,-23 30,-54 48,-192 17,-136 18,-169 2,-197 -17,-27 -48,-39 -144,-51 -94,-13 -128,-9 -151,13 -22,23 -30,54 -48,192 z m 86,11 c 12,-93 15,-105 31,-113 12,-7 32,-8 79,-2 40,6 54,11 61,23 9,15 8,33 -2,113 -10,81 -15,99 -26,111 -11,10 -25,12 -66,6 -44,-5 -62,-10 -73,-18 -17,-12 -17,-23 -4,-120 z"
       inkscape:connector-curvature="0"
       style="fill:#ffffff;fill-rule:nonzero" /><path
       id="4"
       class="fil5"
       d="m -3360,9884 c 48,14 48,15 19,122 -29,104 -31,105 -113,82 -48,-13 -66,-22 -72,-36 -6,-12 -3,-31 14,-92 6,-22 15,-50 20,-66 8,-20 12,-27 19,-30 6,-2 10,-2 30,2 l 26,-98 -16,-4 c -53,-15 -79,-10 -101,15 -17,19 -28,49 -51,131 -45,165 -47,204 -11,234 16,12 42,22 116,42 37,11 65,17 79,20 38,6 59,1 78,-20 21,-22 36,-62 69,-184 21,-74 27,-111 25,-139 -2,-37 -23,-56 -73,-70 -5,-1 -12,-3 -31,-7 l -27,98 z"
       inkscape:connector-curvature="0"
       style="fill:#ffffff;fill-rule:nonzero" /><polygon
       id="5"
       class="fil5"
       points="-3101,9393 -3212,9640 -3260,9619 -3155,9386 -3222,9355 -3327,9589 -3371,9569 -3261,9323 -3333,9291 -3484,9628 -3180,9764 -3028,9426 "
       style="fill:#ffffff;fill-rule:nonzero" /><path
       id="6"
       class="fil5"
       d="m -2808,9069 62,-97 -375,-32 -85,134 187,327 63,-98 -33,-54 118,-186 63,6 z m -143,-15 -80,125 -72,-122 10,-17 142,14 z"
       inkscape:connector-curvature="0"
       style="fill:#ffffff;fill-rule:nonzero" /><polygon
       id="7"
       class="fil5"
       points="-2839,8698 -2832,8690 -2530,8724 -2412,8593 -2661,8371 -2730,8448 -2543,8612 -2550,8619 -2852,8584 -2970,8717 -2721,8939 -2652,8862 "
       style="fill:#ffffff;fill-rule:nonzero" /><polygon
       id="8"
       class="fil5"
       points="-2513,8231 -2590,8304 -2359,8545 -2282,8471 "
       style="fill:#ffffff;fill-rule:nonzero" /><path
       id="9"
       class="fil5"
       d="m -1945,8198 90,-71 -342,-155 -125,98 67,371 91,-72 -12,-62 173,-136 58,27 z m -131,-62 -117,92 -27,-140 16,-12 128,60 z"
       inkscape:connector-curvature="0"
       style="fill:#ffffff;fill-rule:nonzero" /><polygon
       id="10"
       class="fil5"
       points="-1528,7865 -1765,7996 -1791,7950 -1567,7826 -1603,7762 -1826,7885 -1850,7843 -1615,7713 -1653,7644 -1975,7823 -1814,8114 -1489,7935 "
       style="fill:#ffffff;fill-rule:nonzero" /><path
       id="11"
       class="fil5"
       d="m -1041,7622 c 14,47 13,48 -93,82 -102,33 -104,32 -130,-49 -15,-47 -18,-68 -9,-80 7,-12 24,-19 84,-38 22,-7 51,-16 67,-20 21,-5 29,-5 35,-1 5,4 8,8 15,26 l 96,-31 -5,-15 c -17,-53 -35,-73 -68,-77 -25,-4 -56,3 -138,29 -162,52 -196,72 -201,118 -2,20 4,48 28,121 11,36 21,63 27,77 15,35 31,50 58,54 31,5 72,-4 193,-43 73,-23 107,-38 130,-54 29,-23 34,-50 18,-100 -1,-5 -4,-12 -10,-30 l -97,31 z"
       inkscape:connector-curvature="0"
       style="fill:#ffffff;fill-rule:nonzero" /><polygon
       id="12"
       class="fil5"
       points="-762,7554 -535,7517 -516,7636 -411,7619 -465,7290 -570,7307 -551,7425 -777,7462 -796,7344 -901,7361 -847,7690 -742,7673 "
       style="fill:#ffffff;fill-rule:nonzero" /><path
       id="13"
       class="fil5"
       d="m -340,7601 102,-2 -2,-85 144,-2 c 42,-1 49,0 56,8 8,8 11,20 11,58 l 1,17 100,-2 -1,-31 c 1,-77 -9,-92 -60,-97 21,-3 30,-7 40,-15 16,-15 21,-34 20,-82 -1,-57 -9,-80 -35,-95 -21,-12 -21,-12 -136,-10 l -246,4 6,334 z m 99,-170 -2,-82 143,-3 c 47,0 48,0 56,3 9,5 14,15 14,36 0,22 -3,32 -11,37 -7,4 -7,4 -57,6 l -143,3 z"
       inkscape:connector-curvature="0"
       style="fill:#ffffff;fill-rule:nonzero" /><polygon
       id="14"
       class="fil5"
       points="269,7271 163,7262 135,7595 241,7603 "
       style="fill:#ffffff;fill-rule:nonzero" /><path
       id="15"
       class="fil5"
       d="m 316,7495 -2,15 c -6,48 -1,68 22,85 22,17 63,27 161,39 102,14 144,16 165,10 34,-9 50,-35 58,-91 6,-48 0,-71 -23,-89 -19,-15 -41,-21 -147,-37 -72,-12 -98,-17 -106,-20 -9,-4 -13,-12 -12,-23 4,-25 11,-26 96,-15 75,10 87,12 94,20 5,6 6,10 4,27 l 97,12 c 1,-6 2,-13 3,-15 5,-41 -1,-63 -21,-79 -22,-17 -56,-26 -148,-38 -120,-16 -149,-16 -177,-6 -24,10 -40,38 -46,87 -4,34 -1,56 9,72 13,19 35,29 83,37 11,1 44,7 80,14 35,6 68,11 79,13 32,4 39,10 37,30 -2,14 -7,21 -15,24 -10,2 -21,1 -97,-9 -71,-9 -82,-11 -91,-18 -7,-6 -8,-13 -6,-33 l -97,-12 z"
       inkscape:connector-curvature="0"
       style="fill:#ffffff;fill-rule:nonzero" /><polygon
       id="16"
       class="fil5"
       points="889,7711 991,7742 1062,7503 1204,7546 1228,7464 842,7349 817,7431 960,7473 "
       style="fill:#ffffff;fill-rule:nonzero" /><polygon
       id="17"
       class="fil5"
       points="1398,7531 1299,7492 1178,7803 1277,7842 "
       style="fill:#ffffff;fill-rule:nonzero" /><polygon
       id="18"
       class="fil5"
       points="1691,7756 1707,7765 1693,8044 1766,8086 1999,7931 2013,7939 1888,8155 1975,8204 2140,7914 1981,7824 1787,7963 1808,7726 1648,7635 1483,7925 1570,7975 "
       style="fill:#ffffff;fill-rule:nonzero" /><polygon
       id="19"
       class="fil5"
       points="2316,8063 2232,7997 2026,8259 2109,8325 "
       style="fill:#ffffff;fill-rule:nonzero" /><polygon
       id="20"
       class="fil5"
       points="2481,8529 2301,8375 2463,8186 2382,8117 2165,8370 2426,8594 "
       style="fill:#ffffff;fill-rule:nonzero" /><polygon
       id="21"
       class="fil5"
       points="2767,8482 2693,8406 2453,8637 2526,8713 "
       style="fill:#ffffff;fill-rule:nonzero" /><polygon
       id="22"
       class="fil5"
       points="2653,8864 2717,8949 2915,8799 3005,8917 3072,8865 2828,8544 2760,8596 2850,8714 "
       style="fill:#ffffff;fill-rule:nonzero" /><path
       id="23"
       class="fil5"
       d="m 3131,8941 -134,74 c -49,28 -49,28 -60,35 -39,25 -54,39 -61,61 -11,35 3,74 65,184 36,66 55,96 75,120 25,29 61,39 97,25 22,-9 27,-11 93,-46 l 135,-75 -50,-88 -134,74 c -6,4 -21,11 -33,17 -26,12 -35,15 -46,12 -16,-4 -29,-21 -63,-82 -42,-76 -46,-95 -26,-113 11,-9 11,-9 57,-35 l 134,-75 -49,-88 z"
       inkscape:connector-curvature="0"
       style="fill:#ffffff;fill-rule:nonzero" /><polygon
       id="24"
       class="fil5"
       points="3355,9541 3361,9558 3175,9766 3206,9844 3484,9870 3490,9886 3257,9975 3293,10068 3604,9946 3537,9775 3299,9762 3464,9591 3397,9420 3087,9541 3123,9634 "
       style="fill:#ffffff;fill-rule:nonzero" /><path
       id="25"
       class="fil5"
       d="m 3704,10464 c -18,-138 -25,-169 -48,-192 -22,-22 -57,-26 -149,-14 -97,12 -129,24 -146,52 -15,28 -15,60 2,198 18,136 26,168 48,191 23,22 57,26 152,14 95,-12 127,-24 143,-52 16,-28 16,-60 -2,-197 z m -86,11 c 12,92 12,105 -1,117 -10,10 -29,15 -76,21 -40,5 -55,4 -66,-7 -11,-11 -16,-29 -26,-109 -10,-81 -10,-100 -2,-114 8,-13 21,-18 62,-23 43,-5 62,-6 75,0 19,7 22,18 34,115 z"
       inkscape:connector-curvature="0"
       style="fill:#ffffff;fill-rule:nonzero" /><path
       id="26"
       class="fil5"
       d="m 3409,10799 -2,101 85,2 -3,143 c -1,42 -2,50 -10,57 -9,7 -21,9 -59,8 l -17,0 -2,100 31,1 c 77,3 92,-6 99,-57 3,21 6,31 14,41 14,17 33,22 81,23 57,1 80,-6 96,-31 13,-21 13,-21 16,-136 l 4,-246 -333,-6 z m 166,104 82,2 -3,143 c -1,47 -1,48 -5,55 -5,10 -15,14 -36,13 -22,0 -32,-3 -37,-13 -4,-7 -4,-7 -4,-57 l 3,-143 z"
       inkscape:connector-curvature="0"
       style="fill:#ffffff;fill-rule:nonzero" /><path
       id="27"
       class="fil5"
       d="m 3399,11274 -30,238 c -15,112 -14,142 6,170 19,27 52,39 138,50 54,7 75,8 99,3 33,-6 54,-25 65,-57 9,-27 11,-39 22,-123 l 31,-239 -331,-42 z m 72,110 164,21 -18,139 c -8,62 -12,75 -25,84 -13,8 -31,9 -72,4 -75,-10 -79,-17 -67,-108 l 18,-140 z"
       inkscape:connector-curvature="0"
       style="fill:#ffffff;fill-rule:nonzero" /><path
       id="28"
       class="fil5"
       d="m 3585,12081 c 39,-133 44,-165 33,-194 -12,-30 -43,-47 -131,-73 -94,-28 -128,-30 -154,-11 -26,19 -39,49 -78,183 -38,131 -44,163 -33,193 13,30 42,47 134,74 92,27 126,29 152,10 25,-19 38,-49 77,-182 z m -83,-24 c -26,90 -31,101 -48,107 -13,5 -33,2 -78,-11 -39,-12 -52,-19 -58,-33 -6,-15 -2,-33 20,-110 23,-79 30,-96 44,-106 12,-8 26,-8 66,4 42,13 59,20 69,30 14,14 13,25 -15,119 z"
       inkscape:connector-curvature="0"
       style="fill:#ffffff;fill-rule:nonzero" /></g></svg>