<?xml version="1.0" encoding="UTF-8" standalone="no"?>
<!-- Creator: CorelDRAW X7 -->

<svg
   xmlns:dc="http://purl.org/dc/elements/1.1/"
   xmlns:cc="http://creativecommons.org/ns#"
   xmlns:rdf="http://www.w3.org/1999/02/22-rdf-syntax-ns#"
   xmlns:svg="http://www.w3.org/2000/svg"
   xmlns="http://www.w3.org/2000/svg"
   xmlns:sodipodi="http://sodipodi.sourceforge.net/DTD/sodipodi-0.dtd"
   xmlns:inkscape="http://www.inkscape.org/namespaces/inkscape"
   xml:space="preserve"
   width="7.8740005in"
   height="7.8740005in"
   version="1.1"
   style="clip-rule:evenodd;fill-rule:evenodd;image-rendering:optimizeQuality;shape-rendering:geometricPrecision;text-rendering:geometricPrecision"
   viewBox="0 0 7874.0005 7874.0005"
   id="svg4041"
   inkscape:version="0.91 r13725"
   sodipodi:docname="PanOceania - Sectorial - Shock Army of Acontecimento - [N3] [Vyo].svg"><metadata
     id="metadata4059"><rdf:RDF><cc:Work
         rdf:about=""><dc:format>image/svg+xml</dc:format><dc:type
           rdf:resource="http://purl.org/dc/dcmitype/StillImage" /></cc:Work></rdf:RDF></metadata><sodipodi:namedview
     pagecolor="#ffffff"
     bordercolor="#666666"
     borderopacity="1"
     objecttolerance="10"
     gridtolerance="10"
     guidetolerance="10"
     inkscape:pageopacity="0"
     inkscape:pageshadow="2"
     inkscape:window-width="640"
     inkscape:window-height="480"
     id="namedview4057"
     showgrid="false"
     inkscape:zoom="0.23838384"
     inkscape:cx="736.83001"
     inkscape:cy="849.33005"
     inkscape:window-x="0"
     inkscape:window-y="0"
     inkscape:window-maximized="0"
     inkscape:current-layer="svg4041" /><defs
     id="defs4043"><style
       type="text/css"
       id="style4045"><![CDATA[
    .fil1 {fill:#009FE1}
    .fil2 {fill:#27357E}
    .fil3 {fill:#A0D211}
    .fil0 {fill:white}
   ]]></style></defs><g
     id="Layer_x0020_1"
     transform="translate(3937,-7063)"><metadata
       id="CorelCorpID_0Corel-Layer" /><path
       class="fil0"
       d="m 0,7063 c -2174,0 -3937,1763 -3937,3937 0,2174 1763,3937 3937,3937 L 0,7063 Z"
       id="path4049"
       inkscape:connector-curvature="0"
       style="fill:#ffffff" /><path
       class="fil1"
       d="m 0,7063 c 2174,0 3937,1763 3937,3937 0,2174 -1763,3937 -3937,3937 L 0,7063 Z"
       id="path4051"
       inkscape:connector-curvature="0"
       style="fill:#009fe1" /><path
       class="fil2"
       d="m -315,12214 -653,653 c -3,3 -8,8 -13,13 51,10 143,10 174,10 43,0 79,35 79,79 l 0,314 c 0,44 -36,79 -79,79 l -1378,0 c -43,0 -79,-35 -79,-79 l 0,-314 c 0,-44 36,-79 79,-79 129,0 229,-45 318,-135 l 1362,-1361 -1362,-1362 c -89,-89 -189,-134 -318,-134 -43,0 -79,-36 -79,-79 l 0,-315 c 0,-43 36,-79 79,-79 l 1378,0 c 43,0 79,36 79,79 l 0,315 c 0,43 -36,79 -79,79 -31,0 -123,-1 -174,9 5,6 10,11 13,14 l 653,653 0,-2586 c 0,-13 -2,-26 -9,-37 -35,-57 -191,-61 -247,-61 -43,0 -79,-36 -79,-79 l 0,-157 c 0,-44 36,-79 79,-79 l 807,0 c 417,0 1040,50 1308,421 91,125 129,271 129,425 0,154 -38,300 -129,426 -251,348 -816,413 -1229,420 l 0,1307 653,-653 c 3,-3 8,-8 13,-14 -51,-10 -143,-9 -174,-9 -43,0 -79,-36 -79,-79 l 0,-315 c 0,-43 36,-79 79,-79 l 1378,0 c 43,0 79,36 79,79 l 0,315 c 0,43 -36,79 -79,79 -129,0 -229,45 -318,134 l -1362,1362 1362,1361 c 89,90 189,135 318,135 43,0 79,35 79,79 l 0,314 c 0,44 -36,79 -79,79 l -1378,0 c -43,0 -79,-35 -79,-79 l 0,-314 c 0,-44 36,-79 79,-79 31,0 123,0 174,-10 -5,-5 -10,-10 -13,-13 l -653,-653 0,1817 c 0,21 4,42 17,58 44,55 175,61 239,61 43,0 79,35 79,78 l 0,118 c 0,44 -36,79 -79,79 l -1142,0 c -43,0 -79,-35 -79,-79 l 0,-118 c 0,-43 36,-78 79,-78 64,0 195,-6 239,-61 13,-16 17,-37 17,-58 l 0,-1817 z m 630,-4291 0,957 c 243,-18 563,-99 673,-322 24,-49 36,-102 36,-156 0,-55 -12,-108 -36,-157 C 878,8022 558,7941 315,7923 Z"
       id="path4053"
       inkscape:connector-curvature="0"
       style="fill:#27357e" /><path
       class="fil3"
       d="m -571,14346 1142,0 0,-118 c -177,0 -335,-39 -335,-197 l 0,-2007 788,787 c 157,158 -79,158 -217,158 l 0,314 1378,0 0,-314 c -216,0 -335,-119 -374,-158 L 394,11394 1811,9976 c 39,-39 158,-157 374,-157 l 0,-315 -1378,0 0,315 c 138,0 374,0 217,157 l -788,788 0,-1575 c 750,0 1358,-177 1358,-768 0,-590 -608,-767 -1358,-767 l -807,0 0,157 c 217,0 335,51 335,177 l 0,2776 -788,-788 c -157,-157 79,-157 217,-157 l 0,-315 -1378,0 0,315 c 216,0 335,118 374,157 l 1417,1418 -1417,1417 c -39,39 -158,158 -374,158 l 0,314 1378,0 0,-314 c -138,0 -374,0 -217,-158 l 788,-787 0,2007 c 0,158 -158,197 -335,197 l 0,118 z M 236,7841 c 473,9 866,206 866,561 0,354 -393,551 -866,561 l 0,-1122 z"
       id="path4055"
       inkscape:connector-curvature="0"
       style="fill:#a0d211" /></g></svg>