<?xml version="1.0" encoding="UTF-8" standalone="no"?>
<!-- Creator: CorelDRAW X7 -->

<svg
   xmlns:dc="http://purl.org/dc/elements/1.1/"
   xmlns:cc="http://creativecommons.org/ns#"
   xmlns:rdf="http://www.w3.org/1999/02/22-rdf-syntax-ns#"
   xmlns:svg="http://www.w3.org/2000/svg"
   xmlns="http://www.w3.org/2000/svg"
   xmlns:sodipodi="http://sodipodi.sourceforge.net/DTD/sodipodi-0.dtd"
   xmlns:inkscape="http://www.inkscape.org/namespaces/inkscape"
   xml:space="preserve"
   width="7.8740005in"
   height="7.8740005in"
   version="1.1"
   style="clip-rule:evenodd;fill-rule:evenodd;image-rendering:optimizeQuality;shape-rendering:geometricPrecision;text-rendering:geometricPrecision"
   viewBox="0 0 7874.0005 7874.0005"
   id="svg3896"
   inkscape:version="0.91 r13725"
   sodipodi:docname="PanOceania - Main Logo - [N3] [Vyo].svg"><metadata
     id="metadata3920"><rdf:RDF><cc:Work
         rdf:about=""><dc:format>image/svg+xml</dc:format><dc:type
           rdf:resource="http://purl.org/dc/dcmitype/StillImage" /></cc:Work></rdf:RDF></metadata><sodipodi:namedview
     pagecolor="#ffffff"
     bordercolor="#666666"
     borderopacity="1"
     objecttolerance="10"
     gridtolerance="10"
     guidetolerance="10"
     inkscape:pageopacity="0"
     inkscape:pageshadow="2"
     inkscape:window-width="640"
     inkscape:window-height="480"
     id="namedview3918"
     showgrid="false"
     inkscape:zoom="0.23838384"
     inkscape:cx="736.83001"
     inkscape:cy="849.33005"
     inkscape:window-x="0"
     inkscape:window-y="0"
     inkscape:window-maximized="0"
     inkscape:current-layer="svg3896" /><defs
     id="defs3898"><style
       type="text/css"
       id="style3900"><![CDATA[
    .fil0 {fill:#009FE1}
    .fil1 {fill:white}
   ]]></style></defs><g
     id="Layer_x0020_1"
     transform="translate(3937,-7063)"><metadata
       id="CorelCorpID_0Corel-Layer" /><path
       class="fil0"
       d="m 0,7063 c 2174,0 3937,1763 3937,3937 0,2174 -1763,3937 -3937,3937 -14,0 -27,0 -41,-1 1,-12 2,-25 2,-38 0,-482 -630,-818 -630,-1300 0,-481 630,-817 630,-1299 0,-481 -630,-818 -630,-1299 0,-481 630,-818 630,-1299 0,-481 -630,-818 -630,-1299 0,-482 630,-818 630,-1300 0,-13 -1,-26 -2,-38 14,-1 27,-1 41,-1 z"
       id="path3904"
       inkscape:connector-curvature="0"
       style="fill:#009fe1" /><path
       class="fil1"
       d="m -41,14936 c -2155,-21 -3896,-1775 -3896,-3936 0,-2161 1741,-3915 3896,-3936 1,12 2,25 2,38 0,482 -630,818 -630,1300 0,481 630,818 630,1299 0,481 -630,818 -630,1299 0,481 630,818 630,1299 0,482 -630,818 -630,1299 0,482 630,818 630,1300 0,13 -1,26 -2,38 z"
       id="path3906"
       inkscape:connector-curvature="0"
       style="fill:#ffffff" /><circle
       class="fil0"
       cx="-1024"
       cy="9701"
       r="571"
       id="circle3908"
       style="fill:#009fe1" /><circle
       class="fil0"
       cx="-1024"
       cy="12299"
       r="571"
       id="circle3910"
       style="fill:#009fe1" /><circle
       class="fil1"
       cx="315"
       cy="8402"
       r="571"
       id="circle3912"
       style="fill:#ffffff" /><circle
       class="fil1"
       cx="315"
       cy="11000"
       r="571"
       id="circle3914"
       style="fill:#ffffff" /><circle
       class="fil1"
       cx="315"
       cy="13598"
       r="571"
       id="circle3916"
       style="fill:#ffffff" /></g></svg>