<?xml version="1.0" encoding="UTF-8" standalone="no"?>
<!-- Creator: CorelDRAW X7 -->

<svg
   xmlns:dc="http://purl.org/dc/elements/1.1/"
   xmlns:cc="http://creativecommons.org/ns#"
   xmlns:rdf="http://www.w3.org/1999/02/22-rdf-syntax-ns#"
   xmlns:svg="http://www.w3.org/2000/svg"
   xmlns="http://www.w3.org/2000/svg"
   xmlns:sodipodi="http://sodipodi.sourceforge.net/DTD/sodipodi-0.dtd"
   xmlns:inkscape="http://www.inkscape.org/namespaces/inkscape"
   xml:space="preserve"
   width="7.8740005in"
   height="7.8740005in"
   version="1.1"
   style="clip-rule:evenodd;fill-rule:evenodd;image-rendering:optimizeQuality;shape-rendering:geometricPrecision;text-rendering:geometricPrecision"
   viewBox="0 0 7874.0005 7874.0005"
   id="svg4061"
   inkscape:version="0.91 r13725"
   sodipodi:docname="Tohaa - Main Logo v2 - [N3] [Vyo].svg"><metadata
     id="metadata4138"><rdf:RDF><cc:Work
         rdf:about=""><dc:format>image/svg+xml</dc:format><dc:type
           rdf:resource="http://purl.org/dc/dcmitype/StillImage" /></cc:Work></rdf:RDF></metadata><sodipodi:namedview
     pagecolor="#ffffff"
     bordercolor="#666666"
     borderopacity="1"
     objecttolerance="10"
     gridtolerance="10"
     guidetolerance="10"
     inkscape:pageopacity="0"
     inkscape:pageshadow="2"
     inkscape:window-width="640"
     inkscape:window-height="480"
     id="namedview4136"
     showgrid="false"
     inkscape:zoom="0.23838384"
     inkscape:cx="736.83001"
     inkscape:cy="849.33005"
     inkscape:window-x="0"
     inkscape:window-y="0"
     inkscape:window-maximized="0"
     inkscape:current-layer="svg4061" /><defs
     id="defs4063"><style
       type="text/css"
       id="style4065"><![CDATA[
    .fil0 {fill:black}
    .fil1 {fill:#3F3F3F}
    .fil9 {fill:#4C4C3F}
    .fil8 {fill:#595940}
    .fil7 {fill:#656540}
    .fil6 {fill:#727241}
    .fil5 {fill:#7F7F41}
    .fil4 {fill:#8C8C41}
    .fil3 {fill:#989842}
    .fil2 {fill:#A5A542}
    .fil10 {fill:white}
   ]]></style></defs><g
     id="Layer_x0020_1"
     transform="translate(3937,-7063)"><metadata
       id="CorelCorpID_0Corel-Layer" /><circle
       class="fil0"
       cy="11000"
       r="3937"
       id="circle4069"
       cx="0"
       style="fill:#000000" /><circle
       class="fil1"
       cy="11000"
       r="3898"
       id="circle4071"
       cx="0"
       style="fill:#3f3f3f" /><circle
       class="fil2"
       cy="11000"
       r="3898"
       id="circle4073"
       cx="0"
       style="fill:#a5a542" /><g
       id="_778835776"><path
         class="fil3"
         d="m 0,7142 c 2131,0 3858,1727 3858,3858 0,2131 -1727,3858 -3858,3858 -2131,0 -3858,-1727 -3858,-3858 0,-2131 1727,-3858 3858,-3858 z"
         id="path4076"
         inkscape:connector-curvature="0"
         style="fill:#989842" /><path
         class="fil4"
         d="m 0,7181 c 2109,0 3819,1710 3819,3819 0,2109 -1710,3819 -3819,3819 -2109,0 -3819,-1710 -3819,-3819 0,-2109 1710,-3819 3819,-3819 z"
         id="path4078"
         inkscape:connector-curvature="0"
         style="fill:#8c8c41" /><path
         class="fil5"
         d="m 0,7220 c 2087,0 3780,1693 3780,3780 0,2087 -1693,3780 -3780,3780 -2087,0 -3780,-1693 -3780,-3780 0,-2087 1693,-3780 3780,-3780 z"
         id="path4080"
         inkscape:connector-curvature="0"
         style="fill:#7f7f41" /><path
         class="fil6"
         d="m 0,7260 c 2066,0 3740,1674 3740,3740 0,2066 -1674,3740 -3740,3740 -2066,0 -3740,-1674 -3740,-3740 0,-2066 1674,-3740 3740,-3740 z"
         id="path4082"
         inkscape:connector-curvature="0"
         style="fill:#727241" /><path
         class="fil7"
         d="m 0,7299 c 2044,0 3701,1657 3701,3701 0,2044 -1657,3701 -3701,3701 -2044,0 -3701,-1657 -3701,-3701 0,-2044 1657,-3701 3701,-3701 z"
         id="path4084"
         inkscape:connector-curvature="0"
         style="fill:#656540" /><path
         class="fil8"
         d="m 0,7339 c 2022,0 3661,1639 3661,3661 0,2022 -1639,3661 -3661,3661 -2022,0 -3661,-1639 -3661,-3661 0,-2022 1639,-3661 3661,-3661 z"
         id="path4086"
         inkscape:connector-curvature="0"
         style="fill:#595940" /><path
         class="fil9"
         d="m 0,7378 c 2000,0 3622,1622 3622,3622 0,2000 -1622,3622 -3622,3622 -2000,0 -3622,-1622 -3622,-3622 0,-2000 1622,-3622 3622,-3622 z"
         id="path4088"
         inkscape:connector-curvature="0"
         style="fill:#4c4c3f" /><path
         class="fil1"
         d="m 0,7417 c 1979,0 3583,1604 3583,3583 0,1979 -1604,3583 -3583,3583 -1979,0 -3583,-1604 -3583,-3583 0,-1979 1604,-3583 3583,-3583 z"
         id="path4090"
         inkscape:connector-curvature="0"
         style="fill:#3f3f3f" /></g><g
       id="_778828544"><path
         class="fil1"
         d="m -1060,8562 c 0,-3 0,-7 1,-10 l 0,-8 1,-1 c 48,-488 486,-849 976,-808 l 2,0 21,2 23,3 23,4 23,4 22,4 23,5 22,6 21,6 22,6 21,8 21,7 21,8 21,9 20,9 20,10 20,10 19,10 19,11 19,12 19,11 18,13 18,12 17,13 17,14 17,14 16,14 16,15 16,14 16,16 14,16 15,16 14,16 14,17 13,17 13,17 12,16 1,2 c 8,12 16,24 24,36 7,11 14,23 20,34 l 2,4 10,19 11,19 9,20 8,18 1,2 c 11,26 22,52 30,79 l 1,3 7,19 0,2 c 6,21 12,41 16,62 l 3,14 1,2 c 2,9 3,18 5,27 l 0,2 1,2 c 2,13 4,27 6,41 l 0,3 2,15 c 202,1225 895,2314 1911,3024 410,286 511,851 225,1261 -237,339 -677,477 -1063,329 -533,-205 -1096,-311 -1668,-311 -677,0 -1342,146 -1955,434 -452,212 -992,17 -1205,-435 -174,-370 -77,-814 237,-1077 8,-8 17,-14 25,-21 973,-790 1584,-1937 1689,-3187 z"
         id="path4093"
         inkscape:connector-curvature="0"
         style="fill:#3f3f3f" /><path
         class="fil9"
         d="m -1021,8565 c 0,-3 1,-6 1,-10 l 0,-6 1,0 c 45,-468 465,-814 934,-775 l 2,1 20,2 22,2 22,3 22,4 21,5 21,4 21,6 21,6 21,6 20,7 20,7 20,8 20,8 19,9 20,9 18,10 19,10 18,10 18,11 18,11 17,12 17,12 17,13 17,13 16,13 15,13 16,14 15,15 14,14 15,15 14,16 13,15 13,17 13,16 13,16 11,16 1,1 c 8,12 15,23 22,35 7,11 14,22 20,33 l 2,3 10,18 9,19 9,19 8,17 1,2 c 11,24 21,50 29,75 l 1,3 6,19 0,1 c 6,20 11,40 16,60 l 3,12 0,1 c 2,9 4,19 5,28 l 0,2 1,1 c 2,13 4,26 5,40 l 1,3 2,15 c 203,1236 902,2335 1928,3051 392,274 488,814 214,1206 -226,324 -647,457 -1016,315 -538,-207 -1106,-314 -1682,-314 -682,0 -1354,148 -1972,438 -432,203 -949,17 -1152,-415 -167,-355 -74,-779 226,-1031 8,-7 16,-14 25,-20 981,-797 1597,-1954 1703,-3215 z"
         id="path4095"
         inkscape:connector-curvature="0"
         style="fill:#4c4c3f" /><path
         class="fil8"
         d="m -982,8568 c 1,-3 1,-6 1,-9 l 1,-4 0,-1 c 19,-204 114,-392 267,-530 171,-154 396,-230 625,-210 l 1,0 20,2 21,2 21,3 20,4 21,4 20,5 20,5 20,5 20,6 19,7 20,7 19,7 18,8 19,9 18,8 18,9 18,10 17,10 18,10 16,11 17,11 16,12 16,12 16,12 15,13 15,13 15,13 14,14 14,14 14,14 13,15 13,15 13,15 12,16 12,16 11,15 0,1 c 8,11 15,22 22,33 7,10 13,21 19,31 l 1,3 10,17 9,18 9,18 7,17 1,1 c 10,24 20,48 28,73 l 1,2 5,18 1,2 c 5,18 10,37 15,56 l 2,11 0,1 c 2,9 4,18 5,28 l 1,1 0,2 c 2,12 4,25 5,38 l 1,3 2,16 c 205,1247 910,2355 1944,3077 374,261 466,777 205,1152 -216,309 -617,435 -970,300 -542,-208 -1115,-316 -1696,-316 -688,0 -1365,149 -1989,442 -412,194 -906,15 -1099,-397 -159,-339 -71,-743 215,-984 8,-7 16,-13 24,-20 990,-803 1611,-1970 1718,-3242 z"
         id="path4097"
         inkscape:connector-curvature="0"
         style="fill:#595940" /><path
         class="fil7"
         d="m -942,8571 c 0,-3 0,-6 0,-9 l 1,-2 0,0 c 18,-195 108,-375 255,-507 162,-146 377,-218 594,-200 l 3,0 18,2 20,2 19,3 20,4 20,4 19,4 19,5 19,5 19,6 18,6 19,7 18,7 18,7 17,8 18,9 17,8 17,9 16,10 17,10 16,10 16,11 15,11 15,11 15,12 15,12 14,12 14,13 14,13 13,13 13,14 13,14 12,14 12,15 12,15 11,15 10,14 1,1 c 7,11 14,21 21,32 6,10 12,20 18,30 l 1,2 9,17 9,17 8,17 7,16 1,1 c 10,23 19,46 27,70 l 0,2 6,17 0,1 c 5,18 10,36 14,54 l 2,9 0,0 c 2,10 4,19 6,29 l 0,2 c 2,12 4,24 5,36 l 1,3 2,17 c 206,1258 917,2376 1961,3105 356,248 444,740 195,1096 -206,295 -588,415 -924,286 -546,-210 -1124,-319 -1710,-319 -694,0 -1377,151 -2005,446 -393,185 -863,15 -1048,-378 -151,-322 -67,-708 206,-937 7,-6 15,-13 23,-19 998,-810 1625,-1987 1733,-3270 l 0,0 z"
         id="path4099"
         inkscape:connector-curvature="0"
         style="fill:#656540" /><path
         class="fil6"
         d="m -903,8575 c 15,-190 101,-365 243,-493 154,-139 358,-207 565,-190 l 2,0 17,2 19,2 19,3 19,3 18,4 19,4 18,5 18,5 18,5 17,6 18,7 17,6 17,7 17,8 16,8 17,8 16,9 15,9 16,9 15,10 15,10 15,11 14,10 14,12 14,11 14,12 13,12 13,12 13,13 12,13 12,13 12,14 11,14 11,14 11,14 10,14 1,1 c 6,9 13,19 19,30 6,9 12,18 17,28 l 2,3 8,15 9,16 7,17 7,15 1,1 c 9,22 18,44 25,66 l 1,2 5,16 0,1 c 5,17 10,34 14,52 l 1,6 0,1 c 2,10 4,19 6,29 l 0,2 c 2,11 4,23 5,34 l 1,3 1,17 c 209,1269 926,2397 1978,3132 339,236 422,703 186,1041 -196,280 -559,395 -878,273 -551,-212 -1133,-322 -1724,-322 -700,0 -1388,152 -2022,449 -373,176 -820,15 -995,-359 -144,-306 -64,-672 195,-890 7,-6 15,-12 22,-18 1007,-817 1639,-2003 1748,-3297 l 0,0 z"
         id="path4101"
         inkscape:connector-curvature="0"
         style="fill:#727241" /><path
         class="fil5"
         d="m 516,8416 0,1 5,16 1,1 c 4,16 9,32 12,48 l 2,5 0,1 c 2,10 4,19 5,28 l 0,3 c 2,11 4,22 5,32 l 1,2 1,18 0,0 c 210,1280 933,2418 1995,3159 320,224 399,666 175,987 -185,265 -529,374 -831,258 -555,-214 -1142,-324 -1738,-324 -706,0 -1400,153 -2039,453 -353,166 -776,13 -942,-340 -137,-291 -61,-637 184,-844 7,-6 15,-12 22,-17 1015,-824 1652,-2020 1762,-3325 l 0,0 c 14,-180 96,-346 230,-466 146,-132 340,-197 536,-181 l 1,0 17,2 18,2 18,3 18,3 17,4 18,3 17,5 17,5 17,5 16,5 17,6 16,7 16,7 16,7 16,7 15,8 15,8 15,9 15,9 15,9 14,10 14,9 13,11 14,10 13,11 13,11 12,12 13,11 12,12 11,13 12,12 11,13 11,13 10,14 10,13 10,14 c 7,9 13,19 19,28 6,10 11,19 16,27 l 1,3 8,15 8,15 8,15 7,15 0,1 c 9,20 17,41 24,63 z"
         id="path4103"
         inkscape:connector-curvature="0"
         style="fill:#7f7f41" /><path
         class="fil4"
         d="m 497,8495 c 2,9 4,19 5,28 l 1,2 c 1,11 3,21 4,31 l 0,2 2,16 0,2 c 211,1291 940,2439 2011,3186 303,212 377,629 166,932 -175,251 -499,354 -784,244 -560,-215 -1152,-327 -1753,-327 -711,0 -1411,155 -2056,457 -334,157 -733,13 -890,-321 -129,-274 -57,-602 175,-797 6,-5 13,-11 20,-16 1024,-831 1667,-2037 1777,-3353 l 0,0 c 14,-170 91,-326 218,-440 138,-125 320,-186 506,-170 l 17,1 17,2 17,3 16,3 17,3 16,4 17,4 16,4 16,5 15,6 16,5 15,6 16,7 15,6 14,7 15,8 14,8 14,8 14,8 14,9 13,9 13,9 13,10 13,10 12,10 13,11 11,10 12,12 12,11 11,12 10,11 11,13 10,12 10,13 10,12 9,13 c 6,9 12,18 18,27 5,9 10,18 15,26 l 1,2 8,14 7,15 7,14 7,15 c 8,19 16,39 22,59 l 1,1 5,16 c 4,15 8,31 12,46 l 1,3 0,1 z"
         id="path4105"
         inkscape:connector-curvature="0"
         style="fill:#8c8c41" /><path
         class="fil3"
         d="m 458,8502 c 2,9 4,19 6,28 l 0,2 c 2,10 3,19 4,29 l 0,2 2,16 0,2 c 213,1302 948,2460 2028,3214 285,199 355,592 156,877 -100,143 -253,238 -426,263 -105,16 -213,4 -312,-34 -565,-217 -1162,-329 -1767,-329 -717,0 -1423,155 -2072,461 -315,147 -691,12 -838,-303 -121,-258 -54,-566 164,-750 7,-5 13,-10 19,-15 1033,-837 1681,-2054 1793,-3380 l 0,-1 c 12,-160 85,-307 204,-414 130,-117 302,-175 476,-160 l 16,1 16,2 16,3 16,2 16,4 15,3 16,4 15,4 15,5 15,5 14,5 15,6 14,6 14,6 14,7 14,7 13,7 13,8 13,8 13,8 13,8 12,9 12,9 12,10 12,9 12,10 11,10 11,11 10,10 11,11 10,12 10,11 9,12 10,11 9,13 9,12 c 5,8 11,17 16,25 5,8 10,17 15,25 l 1,1 7,14 7,13 6,14 7,14 c 8,18 15,37 21,56 l 1,1 4,14 c 4,15 8,29 12,44 l 0,1 0,1 z"
         id="path4107"
         inkscape:connector-curvature="0"
         style="fill:#989842" /></g><path
       class="fil2"
       d="m -746,8588 c 0,0 0,0 0,-1 0,1 0,1 0,1 z m 1171,-51 0,1 c 2,10 3,19 4,28 l 0,1 1,11 1,4 0,4 c 218,1339 977,2496 2044,3241 268,187 333,555 146,822 -157,226 -445,308 -691,216 -552,-215 -1153,-332 -1781,-332 -747,0 -1455,166 -2089,464 -295,139 -647,12 -786,-284 -116,-247 -45,-534 154,-702 7,-6 13,-11 19,-16 1012,-820 1691,-2033 1807,-3407 0,0 0,0 0,-1 28,-324 313,-565 638,-538 l 15,2 15,1 15,3 15,2 15,3 14,3 14,4 15,4 7,2 7,2 14,5 13,5 14,5 13,6 13,6 13,6 13,7 13,6 12,8 13,7 12,8 11,8 12,8 11,8 12,9 11,9 10,10 11,9 9,9 1,1 10,10 10,10 7,8 2,3 10,10 9,11 8,11 8,10 1,2 8,11 c 6,8 11,16 16,24 5,8 9,15 14,23 l 0,2 7,12 5,9 2,4 6,12 5,11 1,2 c 7,18 14,35 20,53 l 0,1 4,12 1,2 c 4,13 7,27 10,40 0,0 0,0 0,0 2,10 4,19 6,29 z"
       id="path4109"
       inkscape:connector-curvature="0"
       style="fill:#a5a542" /><path
       class="fil10"
       d="m 405,8820 c -442,1366 -1465,2470 -2778,3022 912,-814 1518,-1963 1627,-3254 27,-325 313,-566 638,-539 325,27 567,313 539,638 -4,46 -13,91 -26,133 z"
       id="path4111"
       inkscape:connector-curvature="0"
       style="fill:#ffffff" /><path
       class="fil10"
       d="m -2315,11884 c 1404,-300 2872,34 4006,894 -1161,-382 -2459,-333 -3631,219 -295,139 -647,12 -786,-283 -139,-296 -12,-647 283,-786 42,-20 85,-34 128,-44 z"
       id="path4113"
       inkscape:connector-curvature="0"
       style="fill:#ffffff" /><path
       class="fil10"
       d="M 1699,12707 C 737,11642 292,10204 470,8791 c 250,1197 941,2296 2005,3035 268,187 334,555 148,823 -187,268 -555,334 -823,148 -38,-27 -71,-57 -101,-90 z"
       id="path4115"
       inkscape:connector-curvature="0"
       style="fill:#ffffff" /><path
       class="fil2"
       d="m 1198,12449 c -379,-221 -788,-391 -1212,-505 -571,-152 -1169,-202 -1757,-144 l -550,54 480,-274 c 900,-514 1619,-1303 2047,-2247 l 228,-503 -2,552 c -2,439 55,879 168,1303 154,571 409,1112 754,1594 l 321,449 -477,-279 z"
       id="path4117"
       inkscape:connector-curvature="0"
       style="fill:#a5a542" /><g
       id="_778840480"><path
         class="fil3"
         d="m 1606,12664 -268,-374 C 992,11807 735,11263 581,10690 467,10264 410,9823 412,9382 l 2,-460 -190,419 c -430,948 -1152,1740 -2056,2256 l -399,228 458,-45 c 590,-57 1191,-8 1764,145 426,114 836,285 1217,507 l 398,232 z"
         id="path4120"
         inkscape:connector-curvature="0"
         style="fill:#989842" /><path
         class="fil4"
         d="m 1536,12601 -214,-300 C 974,11816 717,11271 562,10695 448,10267 390,9825 392,9382 l 2,-368 -152,335 c -432,952 -1157,1747 -2064,2265 l -320,183 367,-36 c 593,-58 1196,-9 1771,145 428,115 840,286 1222,509 l 318,186 z"
         id="path4122"
         inkscape:connector-curvature="0"
         style="fill:#8c8c41" /><path
         class="fil5"
         d="m 1466,12538 -160,-225 C 957,11826 698,11278 543,10700 428,10271 371,9826 373,9382 l 1,-276 -114,252 c -433,955 -1161,1753 -2072,2273 l -240,137 275,-27 c 595,-58 1201,-8 1778,146 430,115 843,287 1227,511 l 238,140 z"
         id="path4124"
         inkscape:connector-curvature="0"
         style="fill:#7f7f41" /><path
         class="fil6"
         d="m 1397,12474 -107,-150 C 939,11836 680,11286 524,10705 409,10274 351,9828 353,9382 l 1,-184 -76,168 c -435,959 -1166,1760 -2080,2282 l -160,92 183,-18 c 598,-59 1206,-9 1786,146 430,116 845,289 1231,513 l 159,93 z"
         id="path4126"
         inkscape:connector-curvature="0"
         style="fill:#727241" /><path
         class="fil7"
         d="m 1327,12411 -53,-75 C 922,11845 662,11293 505,10710 389,10278 331,9830 333,9382 l 1,-92 -38,84 c -437,963 -1171,1767 -2089,2291 l -80,46 92,-9 c 600,-59 1210,-9 1793,147 432,116 849,290 1236,515 l 79,47 z"
         id="path4128"
         inkscape:connector-curvature="0"
         style="fill:#656540" /><path
         class="fil8"
         d="M 1258,12347 C 905,11855 643,11300 486,10715 370,10281 312,9831 314,9382 l 0,0 c -439,967 -1175,1774 -2097,2300 l 0,0 c 602,-58 1215,-8 1800,148 434,117 852,291 1241,517 z"
         id="path4130"
         inkscape:connector-curvature="0"
         style="fill:#595940" /><path
         class="fil9"
         d="M 1191,12286 C 862,11810 617,11279 467,10720 358,10313 300,9892 294,9470 c -431,909 -1126,1671 -1991,2185 576,-46 1160,7 1719,156 407,109 801,269 1169,475 z"
         id="path4132"
         inkscape:connector-curvature="0"
         style="fill:#4c4c3f" /><path
         class="fil1"
         d="M 1128,12230 C 822,11769 592,11260 448,10725 346,10343 288,9948 276,9553 c -423,854 -1081,1576 -1893,2076 552,-35 1110,20 1644,163 383,103 753,250 1101,438 z"
         id="path4134"
         inkscape:connector-curvature="0"
         style="fill:#3f3f3f" /></g></g></svg>