<?xml version="1.0" encoding="UTF-8" standalone="no"?>
<!-- Creator: CorelDRAW X7 -->

<svg
   xmlns:dc="http://purl.org/dc/elements/1.1/"
   xmlns:cc="http://creativecommons.org/ns#"
   xmlns:rdf="http://www.w3.org/1999/02/22-rdf-syntax-ns#"
   xmlns:svg="http://www.w3.org/2000/svg"
   xmlns="http://www.w3.org/2000/svg"
   xmlns:sodipodi="http://sodipodi.sourceforge.net/DTD/sodipodi-0.dtd"
   xmlns:inkscape="http://www.inkscape.org/namespaces/inkscape"
   xml:space="preserve"
   width="7.8740005in"
   height="7.8740005in"
   version="1.1"
   style="clip-rule:evenodd;fill-rule:evenodd;image-rendering:optimizeQuality;shape-rendering:geometricPrecision;text-rendering:geometricPrecision"
   viewBox="0 0 7874.0005 7874.0005"
   id="svg4160"
   inkscape:version="0.91 r13725"
   sodipodi:docname="Yu Jing - Sectorial - Imperial Service - [N3] [Vyo].svg"><metadata
     id="metadata4190"><rdf:RDF><cc:Work
         rdf:about=""><dc:format>image/svg+xml</dc:format><dc:type
           rdf:resource="http://purl.org/dc/dcmitype/StillImage" /></cc:Work></rdf:RDF></metadata><sodipodi:namedview
     pagecolor="#ffffff"
     bordercolor="#666666"
     borderopacity="1"
     objecttolerance="10"
     gridtolerance="10"
     guidetolerance="10"
     inkscape:pageopacity="0"
     inkscape:pageshadow="2"
     inkscape:window-width="640"
     inkscape:window-height="480"
     id="namedview4188"
     showgrid="false"
     inkscape:zoom="0.23838384"
     inkscape:cx="736.83001"
     inkscape:cy="849.33005"
     inkscape:window-x="0"
     inkscape:window-y="0"
     inkscape:window-maximized="0"
     inkscape:current-layer="svg4160" /><defs
     id="defs4162"><style
       type="text/css"
       id="style4164"><![CDATA[
    .fil0 {fill:black}
    .fil1 {fill:yellow}
   ]]></style></defs><g
     id="Layer_x0020_1"
     transform="translate(3937,-7063)"><metadata
       id="CorelCorpID_0Corel-Layer" /><circle
       class="fil0"
       cy="11000"
       r="3937"
       id="circle4168"
       cx="0"
       style="fill:#000000" /><circle
       class="fil1"
       cy="11000"
       r="3858"
       id="circle4170"
       cx="0"
       style="fill:#ffff00" /><circle
       class="fil0"
       cy="11000"
       r="3701"
       id="circle4172"
       cx="0"
       style="fill:#000000" /><path
       class="fil1"
       d="m 382,13294 c -212,241 -312,605 -382,1092 -70,-487 -170,-851 -382,-1092 135,-63 264,-144 383,-244 2,3 5,6 9,9 116,95 241,174 372,235 z"
       id="path4174"
       inkscape:connector-curvature="0"
       style="fill:#ffff00" /><path
       class="fil1"
       d="m 60,12998 c 656,542 1629,506 2243,-108 652,-653 652,-1710 0,-2362 -652,-653 -1710,-653 -2362,0 -171,171 -591,590 -748,748 -295,295 294,892 295,885 L 531,11118 c 327,-326 855,-326 1182,0 326,326 326,855 0,1181 -287,287 -731,322 -1056,104 l -11,11 c -177,177 -354,354 -531,531 -18,18 -37,36 -55,53 z"
       id="path4176"
       inkscape:connector-curvature="0"
       style="fill:#ffff00" /><path
       class="fil1"
       d="m -1470,10075 c -305,64 -596,215 -833,453 -652,652 -652,1709 0,2362 635,635 1653,652 2309,51 l 0,0 1,-1 0,-1 c 5,-4 9,-8 13,-11 l 1,-1 c 4,-4 7,-8 11,-11 9,-9 18,-17 27,-26 l 8,-8 0,-1 8,-7 1,-1 7,-7 1,-1 7,-8 1,0 498,-499 1,0 11,-11 c 1,-1 2,-2 3,-3 82,-81 340,-341 340,-635 0,-315 -79,-374 -295,-591 l -1181,1181 c -327,326 -855,326 -1182,0 -326,-326 -326,-855 0,-1181 238,-238 584,-302 880,-193 -62,-65 -123,-132 -182,-199 -140,-160 -277,-331 -390,-511 -27,-42 -49,-90 -65,-140 z"
       id="path4178"
       inkscape:connector-curvature="0"
       style="fill:#ffff00" /><path
       class="fil1"
       d="m -2913,10921 c -6,215 25,336 85,403 -74,329 -52,675 66,994 -260,-194 -329,-518 -329,-747 0,-276 99,-492 178,-650 z"
       id="path4180"
       inkscape:connector-curvature="0"
       style="fill:#ffff00" /><path
       class="fil1"
       d="m 2913,12496 c 6,-214 -25,-336 -85,-402 74,-329 52,-676 -66,-994 260,193 329,517 329,746 0,276 -99,493 -178,650 z"
       id="path4182"
       inkscape:connector-curvature="0"
       style="fill:#ffff00" /><path
       class="fil1"
       d="m 2235,10359 0,0 c -193,-377 -975,-875 -1251,-993 177,193 275,411 316,603 334,34 661,164 935,390 z"
       id="path4184"
       inkscape:connector-curvature="0"
       style="fill:#ffff00" /><path
       class="fil1"
       d="m -472,8323 c 125,-167 38,-464 -138,-630 197,118 440,324 767,669 352,371 650,788 670,847 L 236,9031 c -101,-30 -233,16 -302,96 l -366,422 c -95,109 -13,314 78,427 l 324,404 -620,620 c -246,-247 -514,-549 -689,-827 -122,-194 -123,-539 36,-749 l 831,-1101 z"
       id="path4186"
       inkscape:connector-curvature="0"
       style="fill:#ffff00" /></g></svg>