<?xml version="1.0" encoding="UTF-8" standalone="no"?>
<!-- Creator: CorelDRAW X7 -->

<svg
   xmlns:dc="http://purl.org/dc/elements/1.1/"
   xmlns:cc="http://creativecommons.org/ns#"
   xmlns:rdf="http://www.w3.org/1999/02/22-rdf-syntax-ns#"
   xmlns:svg="http://www.w3.org/2000/svg"
   xmlns="http://www.w3.org/2000/svg"
   xmlns:sodipodi="http://sodipodi.sourceforge.net/DTD/sodipodi-0.dtd"
   xmlns:inkscape="http://www.inkscape.org/namespaces/inkscape"
   xml:space="preserve"
   width="7.8740005in"
   height="7.8740005in"
   version="1.1"
   style="clip-rule:evenodd;fill-rule:evenodd;image-rendering:optimizeQuality;shape-rendering:geometricPrecision;text-rendering:geometricPrecision"
   viewBox="0 0 7874.0005 7874.0005"
   id="svg4192"
   inkscape:version="0.91 r13725"
   sodipodi:docname="Yu Jing - Sectorial - Japanese Sectorial Army - [N3] [Vyo].svg"><metadata
     id="metadata4206"><rdf:RDF><cc:Work
         rdf:about=""><dc:format>image/svg+xml</dc:format><dc:type
           rdf:resource="http://purl.org/dc/dcmitype/StillImage" /></cc:Work></rdf:RDF></metadata><sodipodi:namedview
     pagecolor="#ffffff"
     bordercolor="#666666"
     borderopacity="1"
     objecttolerance="10"
     gridtolerance="10"
     guidetolerance="10"
     inkscape:pageopacity="0"
     inkscape:pageshadow="2"
     inkscape:window-width="640"
     inkscape:window-height="480"
     id="namedview4204"
     showgrid="false"
     inkscape:zoom="0.23838384"
     inkscape:cx="736.83001"
     inkscape:cy="849.33005"
     inkscape:window-x="0"
     inkscape:window-y="0"
     inkscape:window-maximized="0"
     inkscape:current-layer="svg4192" /><defs
     id="defs4194"><style
       type="text/css"
       id="style4196"><![CDATA[
    .fil1 {fill:red}
    .fil0 {fill:white}
   ]]></style></defs><g
     id="Layer_x0020_1"
     transform="translate(3937,-7063)"><metadata
       id="CorelCorpID_0Corel-Layer" /><circle
       class="fil0"
       cy="11000"
       r="3937"
       id="circle4200"
       cx="0"
       style="fill:#ffffff" /><path
       class="fil1"
       d="m 0,7063 c 2174,0 3937,1763 3937,3937 0,2174 -1763,3937 -3937,3937 -2174,0 -3937,-1763 -3937,-3937 0,-2174 1763,-3937 3937,-3937 z m 420,3973 c 237,40 463,114 673,217 L 2555,8215 C 2121,7817 1593,7518 1008,7357 l -588,3679 z m 1353,710 c 162,166 302,355 413,561 l 1569,-878 c 16,-141 25,-284 25,-429 0,-392 -60,-771 -171,-1127 l -1836,1873 z m 675,1332 c 21,131 32,265 32,402 0,95 -5,188 -15,280 l 99,16 c 269,-248 503,-536 690,-853 l -806,155 z m -4913,682 c -10,-92 -15,-185 -15,-280 0,-137 11,-271 32,-402 l -806,-155 c 187,317 421,605 690,853 l 99,-16 z m 279,-1453 c 111,-206 251,-395 413,-561 L -3609,9873 c -111,356 -171,735 -171,1127 0,145 9,288 25,429 l 1569,878 z m 1093,-1054 c 210,-103 436,-177 673,-217 l -588,-3679 c -585,161 -1113,460 -1547,858 l 1462,3038 z"
       id="path4202"
       inkscape:connector-curvature="0"
       style="fill:#ff0000" /></g></svg>