<?xml version="1.0" encoding="UTF-8" standalone="no"?>
<!-- Creator: CorelDRAW X7 -->

<svg
   xmlns:dc="http://purl.org/dc/elements/1.1/"
   xmlns:cc="http://creativecommons.org/ns#"
   xmlns:rdf="http://www.w3.org/1999/02/22-rdf-syntax-ns#"
   xmlns:svg="http://www.w3.org/2000/svg"
   xmlns="http://www.w3.org/2000/svg"
   xmlns:sodipodi="http://sodipodi.sourceforge.net/DTD/sodipodi-0.dtd"
   xmlns:inkscape="http://www.inkscape.org/namespaces/inkscape"
   xml:space="preserve"
   width="7.8740005in"
   height="7.8740005in"
   version="1.1"
   style="clip-rule:evenodd;fill-rule:evenodd;image-rendering:optimizeQuality;shape-rendering:geometricPrecision;text-rendering:geometricPrecision"
   viewBox="0 0 7874.0005 7874.0005"
   id="svg4140"
   inkscape:version="0.91 r13725"
   sodipodi:docname="Yu Jing - Main Logo - [N3] [Vyo].svg"><metadata
     id="metadata4158"><rdf:RDF><cc:Work
         rdf:about=""><dc:format>image/svg+xml</dc:format><dc:type
           rdf:resource="http://purl.org/dc/dcmitype/StillImage" /></cc:Work></rdf:RDF></metadata><sodipodi:namedview
     pagecolor="#ffffff"
     bordercolor="#666666"
     borderopacity="1"
     objecttolerance="10"
     gridtolerance="10"
     guidetolerance="10"
     inkscape:pageopacity="0"
     inkscape:pageshadow="2"
     inkscape:window-width="640"
     inkscape:window-height="480"
     id="namedview4156"
     showgrid="false"
     inkscape:zoom="0.23838384"
     inkscape:cx="736.83001"
     inkscape:cy="849.33005"
     inkscape:window-x="0"
     inkscape:window-y="0"
     inkscape:window-maximized="0"
     inkscape:current-layer="svg4140" /><defs
     id="defs4142"><style
       type="text/css"
       id="style4144"><![CDATA[
    .fil1 {fill:#B7C72C}
    .fil0 {fill:white}
   ]]></style></defs><g
     id="Layer_x0020_1"
     transform="translate(3937,-7063)"><metadata
       id="CorelCorpID_0Corel-Layer" /><circle
       class="fil0"
       cy="11000"
       r="3937"
       id="circle4148"
       cx="0"
       style="fill:#ffffff" /><circle
       class="fil1"
       cy="11000"
       r="3937"
       id="circle4150"
       cx="0"
       style="fill:#b7c72c" /><path
       class="fil0"
       d="m -2480,12693 2185,0 0,-1417 -1477,0 c -86,0 -157,-71 -157,-158 l 0,-275 c 0,-87 71,-158 157,-158 l 1477,0 0,-1378 -2185,0 c -87,0 -158,-71 -158,-157 l 0,-276 c 0,-87 71,-157 158,-157 l 4960,0 c 87,0 158,70 158,157 l 0,276 c 0,86 -71,157 -158,157 l -2185,0 0,1378 1516,0 c 87,0 158,71 158,158 l 0,275 c 0,87 -71,158 -158,158 l -1516,0 0,1417 2185,0 c 87,0 158,71 158,157 l 0,276 c 0,87 -71,157 -158,157 l -4960,0 c -87,0 -158,-70 -158,-157 l 0,-276 c 0,-86 71,-157 158,-157 z"
       id="path4152"
       inkscape:connector-curvature="0"
       style="fill:#ffffff" /><path
       class="fil0"
       d="m 1572,12404 c -128,-82 -752,-561 -641,-735 111,-175 809,188 938,270 128,82 166,252 84,381 -82,128 -252,166 -381,84 z"
       id="path4154"
       inkscape:connector-curvature="0"
       style="fill:#ffffff" /></g></svg>