<?xml version="1.0" encoding="UTF-8" standalone="no"?>
<!-- Creator: CorelDRAW X7 -->

<svg
   xmlns:dc="http://purl.org/dc/elements/1.1/"
   xmlns:cc="http://creativecommons.org/ns#"
   xmlns:rdf="http://www.w3.org/1999/02/22-rdf-syntax-ns#"
   xmlns:svg="http://www.w3.org/2000/svg"
   xmlns="http://www.w3.org/2000/svg"
   xmlns:sodipodi="http://sodipodi.sourceforge.net/DTD/sodipodi-0.dtd"
   xmlns:inkscape="http://www.inkscape.org/namespaces/inkscape"
   xml:space="preserve"
   width="7.8740005in"
   height="7.8740005in"
   version="1.1"
   style="clip-rule:evenodd;fill-rule:evenodd;image-rendering:optimizeQuality;shape-rendering:geometricPrecision;text-rendering:geometricPrecision"
   viewBox="0 0 7874.0005 7874.0005"
   id="svg4297"
   inkscape:version="0.91 r13725"
   sodipodi:docname="PanOceania - Kamau - [N3] [Vyo].svg"><metadata
     id="metadata4321"><rdf:RDF><cc:Work
         rdf:about=""><dc:format>image/svg+xml</dc:format><dc:type
           rdf:resource="http://purl.org/dc/dcmitype/StillImage" /></cc:Work></rdf:RDF></metadata><sodipodi:namedview
     pagecolor="#ffffff"
     bordercolor="#666666"
     borderopacity="1"
     objecttolerance="10"
     gridtolerance="10"
     guidetolerance="10"
     inkscape:pageopacity="0"
     inkscape:pageshadow="2"
     inkscape:window-width="640"
     inkscape:window-height="480"
     id="namedview4319"
     showgrid="false"
     inkscape:zoom="0.23838384"
     inkscape:cx="736.83001"
     inkscape:cy="849.33005"
     inkscape:window-x="0"
     inkscape:window-y="0"
     inkscape:window-maximized="0"
     inkscape:current-layer="svg4297" /><defs
     id="defs4299"><style
       type="text/css"
       id="style4301"><![CDATA[
    .fil4 {fill:none}
    .fil0 {fill:#00C0FF}
    .fil3 {fill:#CCCCCC}
    .fil2 {fill:#FEFEFE}
    .fil1 {fill:white}
    .fil5 {fill:white;fill-rule:nonzero}
   ]]></style></defs><g
     id="Layer_x0020_1"
     transform="translate(3937,-7063)"><metadata
       id="CorelCorpID_0Corel-Layer" /><circle
       class="fil0"
       cy="11000"
       r="3937"
       id="circle4305"
       cx="0"
       style="fill:#00c0ff" /><circle
       class="fil1"
       cy="11000"
       r="3858"
       id="circle4307"
       cx="0"
       style="fill:#ffffff" /><circle
       class="fil0"
       cy="11000"
       r="3543"
       id="circle4309"
       cx="0"
       style="fill:#00c0ff" /><path
       class="fil2"
       d="m -3543,11000 c 452,354 1240,748 1575,807 889,157 433,295 1929,295 1047,0 1555,-393 1555,-689 0,-157 -177,-374 -571,-374 -551,0 -945,611 -2244,611 -532,0 -1063,-138 -2244,-650 z"
       id="path4311"
       inkscape:connector-curvature="0"
       style="fill:#fefefe" /><path
       class="fil3"
       d="m 3543,11000 c -452,-354 -1240,-748 -1575,-807 -889,-157 -433,-295 -1929,-295 -1047,0 -1555,393 -1555,689 0,157 177,374 571,374 551,0 945,-611 2244,-611 532,0 1063,138 2244,650 z"
       id="path4313"
       inkscape:connector-curvature="0"
       style="fill:#cccccc" /><circle
       class="fil4"
       cy="11000"
       r="3898"
       id="circle4315"
       cx="0"
       style="fill:none" /><path
       class="fil5"
       d="m -2864,11943 23,52 -167,76 31,67 281,176 40,91 -319,-203 -62,393 -41,-91 55,-345 -30,-68 -176,80 -23,-52 388,-176 z m 95,1079 44,-83 -170,-264 -95,5 -31,-49 446,-26 45,70 -207,395 -32,-48 z m 69,-129 116,-219 -12,-17 -248,14 144,222 z m 279,-33 72,75 -92,380 382,-79 72,75 -280,270 -36,-37 245,-237 -15,-15 -396,80 -29,-31 94,-394 -16,-16 -246,236 -36,-37 281,-270 z m 585,1035 10,-93 -256,-182 -86,40 -48,-34 405,-190 68,48 -46,445 -47,-34 z m 16,-145 26,-246 -17,-12 -224,105 215,153 z m 256,-140 47,23 -87,171 c -26,50 -41,81 -45,92 -5,14 -6,25 -3,34 3,9 12,18 25,28 23,15 57,34 102,57 62,31 106,51 131,59 15,5 27,6 36,2 9,-3 18,-12 26,-26 7,-12 22,-41 45,-85 l 87,-171 46,24 -87,170 c -23,46 -40,78 -51,95 -18,28 -40,44 -65,46 -15,1 -32,-2 -50,-9 -18,-6 -61,-26 -128,-58 -58,-31 -93,-49 -104,-55 -11,-7 -23,-15 -35,-25 -20,-16 -31,-38 -31,-64 0,-13 3,-27 9,-41 6,-15 21,-47 46,-97 l 86,-170 z m 579,241 61,14 123,411 19,4 284,-318 62,14 -324,363 -85,-19 -140,-469 z m 953,580 -40,-85 -314,-24 -52,78 -59,-4 250,-371 82,6 190,404 -57,-4 z m -61,-133 -105,-224 -20,-2 -139,206 264,20 z m 186,129 -30,-388 242,-19 c 66,-4 108,-6 126,-4 32,1 56,14 70,38 9,16 15,38 17,68 2,22 2,40 1,51 -2,12 -6,22 -11,29 -10,12 -25,22 -46,28 17,1 31,7 41,16 8,7 14,16 17,27 3,11 5,33 8,65 l 4,55 -52,4 -3,-37 c -2,-32 -4,-53 -7,-65 -5,-25 -20,-38 -45,-40 -9,-1 -18,-1 -25,-1 -8,1 -33,2 -77,5 l -190,15 12,149 -52,4 z m 37,-199 190,-14 c 50,-4 83,-7 97,-9 14,-3 25,-7 33,-14 13,-10 18,-32 15,-66 -2,-29 -9,-48 -22,-56 -9,-5 -21,-8 -39,-8 -17,0 -49,1 -95,5 l -190,14 11,148 z m 408,-237 51,-11 43,186 c 12,55 21,88 24,99 5,14 12,24 20,29 8,5 21,6 37,5 27,-3 65,-11 115,-22 68,-16 114,-28 138,-38 15,-6 25,-13 29,-22 5,-8 6,-20 3,-36 -2,-15 -9,-46 -20,-95 l -43,-186 51,-12 43,186 c 11,51 18,86 21,106 4,33 -2,59 -20,77 -11,11 -26,19 -44,26 -18,6 -63,18 -136,37 -64,14 -102,22 -115,24 -13,2 -27,3 -43,4 -26,0 -48,-10 -65,-30 -8,-10 -14,-22 -19,-37 -5,-15 -14,-50 -27,-103 l -43,-187 z m 468,-114 79,-35 451,170 11,-5 -141,-310 47,-22 161,355 -80,36 -450,-170 -10,4 140,310 -47,22 -161,-355 z m 1065,-139 -84,-44 -264,171 6,94 -49,32 -27,-446 70,-45 396,207 -48,31 z m -129,-68 -219,-116 -18,11 15,248 222,-143 z m 386,-148 -310,-293 183,-193 c 50,-52 83,-84 99,-97 27,-22 56,-29 84,-20 20,6 41,20 65,42 18,17 30,31 38,42 7,11 11,21 12,32 2,16 -4,35 -17,55 15,-11 30,-17 46,-17 12,0 23,4 33,10 11,7 29,22 55,47 l 43,42 -39,41 -29,-28 c -25,-24 -43,-40 -54,-48 -23,-16 -44,-16 -66,0 -8,7 -15,13 -21,19 -6,6 -25,26 -58,60 l -144,152 119,112 -39,42 z m -116,-188 143,-152 c 38,-40 62,-66 72,-79 9,-12 15,-24 18,-35 3,-18 -9,-39 -37,-65 -23,-22 -43,-32 -60,-29 -10,2 -22,10 -37,22 -14,12 -39,37 -74,74 l -143,152 118,112 z m 509,-250 -317,-225 220,-310 37,26 -190,268 97,69 182,-257 37,26 -182,257 109,78 190,-269 38,26 -221,311 z m 179,-665 118,-226 c 53,28 87,48 101,59 16,13 26,25 31,37 5,13 6,28 3,46 -4,25 -25,75 -64,149 -36,70 -64,118 -84,145 -17,23 -38,36 -61,38 -27,2 -75,-15 -144,-51 -47,-25 -83,-47 -106,-68 -22,-20 -31,-44 -26,-73 5,-29 27,-80 64,-152 12,-24 27,-50 44,-79 16,-29 28,-48 35,-58 15,-21 33,-34 54,-41 13,-4 26,-4 39,-2 13,3 30,9 50,20 l -24,47 c -27,-13 -46,-18 -57,-15 -6,2 -13,7 -19,14 -7,7 -15,20 -26,37 -14,24 -31,54 -50,91 -26,48 -42,84 -51,106 -8,23 -11,39 -8,49 3,10 11,20 26,31 14,10 39,25 73,43 52,27 87,42 105,46 11,3 21,2 28,-1 8,-4 16,-10 23,-21 16,-21 43,-69 83,-145 22,-42 36,-74 43,-96 7,-20 6,-35 -1,-45 -8,-10 -30,-25 -65,-44 l -94,180 -40,-21 z m 254,-258 21,-59 61,21 -20,59 -62,-21 z"
       id="path4317"
       inkscape:connector-curvature="0"
       style="fill:#ffffff;fill-rule:nonzero" /></g></svg>