<?xml version="1.0" encoding="UTF-8" standalone="no"?>
<!-- Creator: CorelDRAW X7 -->

<svg
   xmlns:dc="http://purl.org/dc/elements/1.1/"
   xmlns:cc="http://creativecommons.org/ns#"
   xmlns:rdf="http://www.w3.org/1999/02/22-rdf-syntax-ns#"
   xmlns:svg="http://www.w3.org/2000/svg"
   xmlns="http://www.w3.org/2000/svg"
   xmlns:sodipodi="http://sodipodi.sourceforge.net/DTD/sodipodi-0.dtd"
   xmlns:inkscape="http://www.inkscape.org/namespaces/inkscape"
   xml:space="preserve"
   width="7.8740005in"
   height="7.8740005in"
   version="1.1"
   style="clip-rule:evenodd;fill-rule:evenodd;image-rendering:optimizeQuality;shape-rendering:geometricPrecision;text-rendering:geometricPrecision"
   viewBox="0 0 7874.0005 7874.0005"
   id="svg5167"
   inkscape:version="0.91 r13725"
   sodipodi:docname="PanOceania - Svalarheima Nisses - [N3] [Vyo].svg"><metadata
     id="metadata5202"><rdf:RDF><cc:Work
         rdf:about=""><dc:format>image/svg+xml</dc:format><dc:type
           rdf:resource="http://purl.org/dc/dcmitype/StillImage" /></cc:Work></rdf:RDF></metadata><sodipodi:namedview
     pagecolor="#ffffff"
     bordercolor="#666666"
     borderopacity="1"
     objecttolerance="10"
     gridtolerance="10"
     guidetolerance="10"
     inkscape:pageopacity="0"
     inkscape:pageshadow="2"
     inkscape:window-width="640"
     inkscape:window-height="480"
     id="namedview5200"
     showgrid="false"
     inkscape:zoom="0.23838384"
     inkscape:cx="736.83001"
     inkscape:cy="849.60005"
     inkscape:window-x="0"
     inkscape:window-y="0"
     inkscape:window-maximized="0"
     inkscape:current-layer="svg5167" /><defs
     id="defs5169"><style
       type="text/css"
       id="style5171"><![CDATA[
    .fil4 {fill:none}
    .fil0 {fill:black}
    .fil1 {fill:white}
    .fil2 {fill:white}
    .fil3 {fill:white;fill-rule:nonzero}
   ]]></style></defs><g
     id="Layer_x0020_1"
     transform="translate(3937,-7066)"><metadata
       id="CorelCorpID_0Corel-Layer" /><circle
       class="fil0"
       cy="11003"
       r="3937"
       id="circle5175"
       cx="0"
       style="fill:#000000" /><circle
       class="fil1"
       cy="11003"
       r="3780"
       id="circle5177"
       cx="0"
       style="fill:#ffffff" /><circle
       class="fil0"
       cy="11003"
       r="3701"
       id="circle5179"
       cx="0"
       style="fill:#000000" /><circle
       class="fil1"
       cy="11000"
       r="2244"
       id="circle5181"
       cx="0"
       style="fill:#ffffff" /><circle
       class="fil0"
       cx="3"
       cy="11000"
       r="2047"
       id="circle5183"
       style="fill:#000000" /><polygon
       class="fil2"
       points="1299,9740 2441,9740 0,13717 -2441,9740 -1299,9740 -236,12693 -709,8717 709,8717 236,12693 "
       id="polygon5185"
       style="fill:#ffffff" /><polygon
       class="fil3"
       points="-1548,7989 -1532,7982 -1124,8220 -874,8107 -1089,7635 -1235,7701 -1072,8051 -1086,8058 -1494,7819 -1745,7934 -1530,8406 -1384,8339 "
       id="polygon5187"
       style="fill:#ffffff;fill-rule:nonzero" /><path
       id="1"
       class="fil3"
       d="m -863,7749 83,358 134,-30 -82,-359 -135,31 z m -33,-147 23,101 134,-31 -23,-101 -134,31 z"
       inkscape:connector-curvature="0"
       style="fill:#ffffff;fill-rule:nonzero" /><path
       id="2"
       class="fil3"
       d="m -594,7943 c 6,42 19,67 44,83 36,25 83,27 216,9 105,-15 170,-31 201,-51 36,-22 49,-58 41,-113 -11,-81 -55,-107 -161,-93 -141,19 -164,21 -186,23 -23,1 -34,-5 -37,-20 -3,-23 22,-33 108,-45 45,-6 74,-6 87,-1 5,2 7,5 12,16 l 138,-20 c -9,-43 -19,-61 -40,-74 -34,-22 -81,-24 -205,-6 -99,13 -162,28 -190,45 -38,22 -52,58 -45,113 11,78 59,104 162,91 133,-18 168,-22 187,-23 20,-1 33,8 35,22 4,26 -21,38 -109,50 -86,12 -113,6 -120,-25 l -138,19 z"
       inkscape:connector-curvature="0"
       style="fill:#ffffff;fill-rule:nonzero" /><path
       id="3"
       class="fil3"
       d="m -5,7880 c -3,42 4,69 25,91 30,32 75,44 209,55 106,9 173,8 207,-5 40,-14 61,-47 65,-102 7,-81 -31,-116 -137,-126 -142,-12 -164,-15 -186,-18 -23,-4 -33,-12 -32,-27 2,-23 29,-28 115,-21 46,4 74,10 85,18 5,3 6,7 8,18 l 140,11 c 0,-44 -5,-64 -23,-81 -29,-29 -74,-41 -199,-51 -100,-8 -164,-7 -195,3 -42,13 -64,45 -69,100 -6,78 35,115 138,125 134,11 169,14 188,18 20,4 30,15 29,29 -2,27 -29,32 -117,25 -86,-7 -112,-19 -112,-51 L -5,7880 Z"
       inkscape:connector-curvature="0"
       style="fill:#ffffff;fill-rule:nonzero" /><path
       id="4"
       class="fil3"
       d="m 930,8028 c -14,30 -33,31 -116,7 -47,-14 -75,-27 -85,-42 -10,-13 -10,-26 0,-62 l 345,101 c 5,-14 10,-31 11,-35 24,-83 24,-127 -3,-163 -25,-33 -65,-52 -181,-86 -114,-33 -161,-39 -202,-25 -45,15 -66,48 -94,142 -26,89 -26,128 0,164 26,34 71,57 174,87 188,55 244,46 282,-49 L 930,8028 Z M 750,7859 c 16,-49 41,-54 129,-28 52,15 78,28 86,45 6,10 6,17 -2,45 l -213,-62 z"
       inkscape:connector-curvature="0"
       style="fill:#ffffff;fill-rule:nonzero" /><path
       id="5"
       class="fil3"
       d="m 1147,8088 c -20,39 -23,66 -13,94 15,41 52,70 171,133 94,49 156,74 192,75 43,3 75,-19 100,-68 38,-72 17,-119 -77,-169 -125,-67 -145,-78 -164,-90 -19,-12 -25,-24 -19,-37 11,-21 38,-14 114,26 41,21 65,38 72,49 3,5 2,9 0,20 l 124,65 c 18,-41 21,-61 11,-84 -16,-38 -53,-66 -163,-124 -89,-47 -149,-71 -181,-74 -44,-4 -77,17 -102,66 -37,69 -14,118 78,168 119,63 150,80 166,90 16,11 22,26 15,39 -12,23 -39,18 -118,-24 -76,-40 -95,-60 -82,-90 l -124,-65 z"
       inkscape:connector-curvature="0"
       style="fill:#ffffff;fill-rule:nonzero" /><circle
       class="fil4"
       cy="11000"
       r="3740"
       id="circle5194"
       cx="0"
       style="fill:none" /><path
       class="fil3"
       d="m -2882,12937 87,110 90,-71 173,220 c 14,19 30,32 47,40 17,8 34,12 52,11 17,-1 34,-5 50,-12 16,-8 32,-17 46,-28 l 31,-24 c 19,-15 34,-30 46,-46 11,-16 19,-32 22,-51 4,-18 2,-38 -6,-60 -7,-22 -21,-45 -41,-71 l -237,-301 -360,283 z m 358,-102 127,162 c 13,16 19,31 18,43 -1,12 -8,23 -21,33 l -14,11 c -11,9 -23,13 -34,13 -12,-1 -23,-7 -32,-19 l -135,-172 91,-71 z m 22,578 118,103 85,-34 214,187 -20,90 118,103 112,-511 -138,-120 -489,182 z m 487,-42 -44,189 -136,-118 180,-71 z m 125,554 126,63 151,-296 1,0 84,417 194,99 208,-409 -125,-64 -151,297 -1,0 -84,-417 -194,-99 -209,409 z m 738,183 c -9,32 -12,59 -9,83 3,23 11,43 24,59 13,16 31,30 53,42 22,11 49,21 82,30 l 217,61 c 32,9 61,15 86,16 24,2 47,-1 67,-8 20,-7 37,-20 51,-38 15,-18 26,-43 35,-75 l 37,-132 c 9,-31 12,-59 9,-82 -2,-24 -10,-43 -24,-60 -13,-16 -31,-30 -53,-41 -22,-12 -49,-22 -82,-31 l -217,-61 c -32,-9 -61,-14 -86,-16 -24,-2 -47,0 -66,8 -20,7 -37,20 -52,38 -15,19 -26,44 -35,75 l -37,132 z m 164,-51 c 8,-30 21,-50 36,-61 16,-12 40,-13 74,-3 l 158,44 c 33,10 54,23 61,41 8,17 8,41 -1,71 l -13,48 c -10,33 -21,55 -35,65 -14,10 -36,10 -67,2 l -174,-49 c -30,-8 -49,-21 -56,-36 -7,-16 -6,-41 4,-74 l 13,-48 z m 541,236 c 0,33 3,60 12,82 9,22 21,39 38,52 17,12 38,21 62,27 24,5 53,9 87,9 l 226,5 c 35,1 63,-2 85,-9 23,-6 40,-15 53,-27 12,-12 21,-26 26,-42 5,-17 8,-35 8,-56 l 1,-43 -140,-3 c -1,14 -2,25 -5,34 -3,8 -8,14 -14,18 -6,5 -14,7 -24,8 -10,1 -24,2 -41,1 l -150,-3 c -32,-1 -53,-8 -64,-21 -10,-14 -15,-38 -14,-73 l 1,-49 c 0,-31 7,-54 19,-69 12,-15 36,-22 71,-21 l 153,3 c 22,1 38,4 49,11 11,7 16,18 16,33 l -1,13 141,3 c 1,-36 -1,-64 -6,-85 -5,-21 -16,-39 -31,-52 -15,-14 -37,-23 -66,-30 -29,-6 -69,-10 -118,-11 l -165,-3 c -34,-1 -63,1 -88,5 -24,5 -45,13 -62,24 -18,12 -31,29 -41,51 -9,21 -14,48 -15,81 l -3,137 z m 743,171 503,-87 -19,-109 -364,63 -13,-72 337,-59 -16,-93 -337,58 -12,-72 355,-62 -18,-105 -494,86 78,452 z m 609,-96 146,-57 8,-91 265,-105 71,59 145,-57 -403,-334 -170,68 -62,517 z m 186,-452 148,126 -167,67 19,-193 z m 550,147 118,-76 -180,-280 1,-1 402,137 183,-118 -248,-385 -118,76 180,280 -1,1 -402,-137 -184,118 249,385 z m 644,-455 101,-97 -317,-331 -102,97 318,331 z m 201,-169 98,-123 -38,-83 177,-223 91,16 97,-122 -516,-88 -114,144 205,479 z m -65,-485 192,36 -112,141 -80,-177 z"
       id="path5196"
       inkscape:connector-curvature="0"
       style="fill:#ffffff;fill-rule:nonzero" /><circle
       class="fil4"
       cy="11000"
       r="3780"
       id="circle5198"
       cx="0"
       style="fill:none" /></g></svg>