<?xml version="1.0" encoding="UTF-8" standalone="no"?>
<!-- Creator: CorelDRAW X7 -->

<svg
   xmlns:dc="http://purl.org/dc/elements/1.1/"
   xmlns:cc="http://creativecommons.org/ns#"
   xmlns:rdf="http://www.w3.org/1999/02/22-rdf-syntax-ns#"
   xmlns:svg="http://www.w3.org/2000/svg"
   xmlns="http://www.w3.org/2000/svg"
   xmlns:sodipodi="http://sodipodi.sourceforge.net/DTD/sodipodi-0.dtd"
   xmlns:inkscape="http://www.inkscape.org/namespaces/inkscape"
   xml:space="preserve"
   width="7.8740005in"
   height="7.8740005in"
   version="1.1"
   style="clip-rule:evenodd;fill-rule:evenodd;image-rendering:optimizeQuality;shape-rendering:geometricPrecision;text-rendering:geometricPrecision"
   viewBox="0 0 7874.0005 7874.0005"
   id="svg3462"
   inkscape:version="0.91 r13725"
   sodipodi:docname="PanOceania - Aquila Guard - [N3] Vyo].svg"><metadata
     id="metadata3498"><rdf:RDF><cc:Work
         rdf:about=""><dc:format>image/svg+xml</dc:format><dc:type
           rdf:resource="http://purl.org/dc/dcmitype/StillImage" /></cc:Work></rdf:RDF></metadata><sodipodi:namedview
     pagecolor="#ffffff"
     bordercolor="#666666"
     borderopacity="1"
     objecttolerance="10"
     gridtolerance="10"
     guidetolerance="10"
     inkscape:pageopacity="0"
     inkscape:pageshadow="2"
     inkscape:window-width="640"
     inkscape:window-height="480"
     id="namedview3496"
     showgrid="false"
     inkscape:zoom="0.23838384"
     inkscape:cx="736.83001"
     inkscape:cy="849.33005"
     inkscape:window-x="0"
     inkscape:window-y="0"
     inkscape:window-maximized="0"
     inkscape:current-layer="svg3462" /><defs
     id="defs3464"><style
       type="text/css"
       id="style3466"><![CDATA[
    .fil2 {fill:none}
    .fil0 {fill:#0080B1}
    .fil3 {fill:#E2001A}
    .fil1 {fill:white}
    .fil4 {fill:white}
    .fil5 {fill:#E2001A;fill-rule:nonzero}
   ]]></style></defs><g
     id="Layer_x0020_1"
     transform="translate(3937,-7063)"><metadata
       id="CorelCorpID_0Corel-Layer" /><circle
       class="fil0"
       cy="11000"
       r="3937"
       id="circle3470"
       cx="0"
       style="fill:#0080b1" /><circle
       class="fil1"
       cy="11000"
       r="3858"
       id="circle3472"
       cx="0"
       style="fill:#ffffff" /><circle
       class="fil0"
       cy="11000"
       r="3386"
       id="circle3474"
       cx="0"
       style="fill:#0080b1" /><circle
       class="fil2"
       cy="11000"
       r="3898"
       id="circle3476"
       cx="0"
       style="fill:none" /><path
       class="fil3"
       d="m -549,8855 c -12,-78 -62,-269 64,-488 186,171 196,368 208,446 -51,-72 -149,-136 -129,-60 93,345 354,1648 463,2359 120,778 319,1943 308,2781 -261,-797 -422,-1967 -541,-2745 -109,-703 -254,-2033 -269,-2389 -3,-78 -77,12 -104,96 z"
       id="path3478"
       inkscape:connector-curvature="0"
       style="fill:#e2001a" /><path
       class="fil1"
       d="m 253,9409 1889,-410 c -354,293 -432,843 -1072,1061 l -643,218 c -80,27 -153,118 -149,202 L 439,13204 28,9762 c -18,-156 91,-324 225,-353 z m -1129,173 -1924,177 c 425,174 665,675 1341,690 l 679,15 c 84,2 182,67 202,148 L 89,13258 -555,9852 c -29,-155 -184,-282 -321,-270 z"
       id="path3480"
       inkscape:connector-curvature="0"
       style="fill:#ffffff" /><circle
       class="fil2"
       cy="11000"
       r="3898"
       id="circle3482"
       cx="0"
       style="fill:none" /><g
       id="_902075824"><path
         class="fil4"
         d="m 2034,13298 -27,-27 277,-291 c 38,-41 89,-77 147,-75 58,3 112,42 152,81 l 115,109 c 41,39 83,90 89,148 5,58 -29,111 -67,151 l -277,292 -224,-213 c 5,11 10,23 13,35 2,11 3,21 2,31 4,0 7,1 10,2 17,5 32,15 46,26 15,12 29,28 42,44 l 78,101 -157,123 -62,-81 c -5,-5 -16,-19 -23,-24 -2,1 -5,3 -6,3 l -118,92 83,108 -142,110 4,4 -194,101 -76,-64 -169,87 12,99 -195,101 -62,-646 186,-97 427,359 -317,-407 318,-247 c 19,-16 42,-29 67,-34 16,-4 32,-4 48,-1 z M 788,14372 c 3,28 3,58 -2,85 -6,28 -19,54 -40,73 -20,17 -44,28 -70,34 -31,8 -64,13 -96,17 l -143,19 c -28,4 -58,5 -86,1 -27,-3 -52,-13 -74,-29 -24,-17 -41,-41 -53,-68 -15,-32 -23,-68 -27,-103 l -21,-154 c -4,-35 -6,-72 0,-107 5,-28 15,-56 34,-79 17,-22 39,-38 64,-48 26,-11 55,-17 83,-21 l 179,-23 c 31,-4 65,-6 96,1 7,2 15,4 22,7 l -4,-11 189,-62 108,324 c 3,10 13,36 22,43 4,3 16,0 21,-2 l 113,-37 c 4,-2 16,-6 17,-11 4,-11 -4,-38 -8,-48 l -107,-324 189,-63 118,357 c 19,56 30,121 8,177 -22,55 -70,88 -125,106 l -164,54 c -54,18 -112,21 -163,-10 -36,-23 -62,-59 -80,-98 z m -228,-198 c -6,-1 -16,0 -20,0 l -130,17 c -7,1 -18,3 -25,7 -1,0 -2,1 -3,2 -2,4 -3,12 -3,16 0,16 2,34 4,49 l 8,65 c 2,16 5,33 10,48 1,4 4,12 7,15 1,1 2,1 3,2 8,1 18,0 26,-1 l 2,0 -23,-179 148,-20 -1,-4 c 0,-4 -1,-12 -3,-17 z m -1193,192 213,-376 208,27 167,629 -217,-29 -25,-96 -188,-25 -47,87 -166,-22 -2,7 -48,-13 -2,-1 0,0 -402,-112 109,-390 -146,375 -185,-72 143,-368 -82,160 c -26,52 -64,106 -120,130 -55,23 -112,12 -163,-15 l -154,-78 c -51,-26 -94,-65 -107,-123 -4,-16 -5,-31 -4,-47 l -133,66 -19,-74 c -14,-2 -28,-6 -41,-12 -25,-11 -49,-27 -70,-43 l -152,-120 c -23,-17 -44,-37 -61,-60 -16,-22 -27,-46 -31,-73 -4,-29 1,-59 12,-86 12,-33 32,-64 54,-91 l 96,-123 c 22,-28 47,-55 76,-75 24,-16 51,-28 81,-31 27,-3 54,2 79,12 26,12 50,28 72,45 l 152,119 c 22,18 44,38 61,61 9,13 17,27 23,42 l 10,-19 177,90 -155,305 c -5,9 -17,34 -15,46 1,5 12,11 16,13 l 106,54 c 4,2 15,8 20,5 10,-5 24,-29 29,-39 l 155,-304 159,81 4,-9 185,72 0,2 173,48 -105,374 260,73 0,3 z m -1887,-896 -131,-137 -91,38 -152,-158 603,-241 145,151 -263,596 -151,-158 40,-91 z m 108,-236 -49,20 27,28 22,-48 z m 343,481 -15,-67 141,-72 -56,-43 c -4,-4 -18,-14 -24,-11 -16,6 -35,27 -44,40 l -35,44 c -8,11 -30,40 -32,54 1,4 12,13 15,16 l 50,39 z m 175,-100 12,53 c 5,-10 10,-19 11,-27 0,-7 -13,-18 -17,-21 l -6,-5 z m 1543,655 -25,46 38,5 -13,-51 z m 1873,-355 6,52 34,-18 -40,-34 z m 364,-293 30,39 126,-98 c 0,-1 2,-2 3,-3 -2,-4 -7,-10 -9,-13 l -10,-13 c -2,-3 -7,-8 -10,-11 -4,2 -10,6 -12,8 l -118,91 z m 409,-351 130,124 120,-126 c 4,-4 14,-16 14,-22 -2,-10 -24,-33 -31,-39 l -51,-49 c -7,-7 -31,-28 -41,-29 -6,0 -18,11 -21,15 l -120,126 z"
         id="path3485"
         inkscape:connector-curvature="0"
         style="fill:#ffffff" /></g><path
       class="fil5"
       d="m -2826,13227 93,97 91,-38 169,176 -41,91 93,96 228,-517 -108,-113 -525,208 z m 491,-68 -88,192 -106,-111 194,-81 z m 237,379 c 22,-28 42,-46 61,-53 18,-7 39,-2 63,17 l 110,87 c 24,18 34,37 32,57 -3,20 -15,44 -37,72 l -33,42 -32,-144 -105,53 32,142 -1,2 c 0,-1 -2,-3 -6,-5 -3,-2 -6,-4 -9,-6 l -121,-95 c -21,-17 -31,-34 -29,-52 2,-18 15,-42 40,-73 l 35,-44 z m -163,7 c -23,30 -39,56 -49,81 -9,24 -12,46 -9,66 3,20 11,38 24,56 13,17 30,35 53,53 l 152,119 c 22,17 42,29 61,38 20,8 38,12 57,11 l 14,54 104,-51 -14,-61 c 9,-8 19,-19 31,-34 l 96,-122 c 23,-30 39,-57 49,-81 9,-24 12,-46 9,-66 -3,-20 -11,-39 -24,-56 -13,-18 -31,-35 -53,-53 l -152,-119 c -23,-18 -44,-31 -64,-39 -19,-9 -39,-12 -60,-10 -20,2 -40,10 -62,25 -21,15 -44,37 -67,66 l -96,123 z m 483,360 c -30,58 -40,107 -31,147 9,40 38,72 87,97 l 154,78 c 49,25 92,30 129,14 38,-16 72,-54 101,-112 l 153,-300 -107,-54 -137,269 c -15,29 -30,48 -46,56 -15,8 -34,7 -56,-4 l -106,-55 c -22,-11 -34,-25 -37,-42 -2,-17 4,-41 19,-70 l 137,-269 -107,-55 -153,300 z m 465,427 112,44 189,-487 -112,-44 -189,487 z m 220,82 376,106 36,-130 -260,-73 104,-374 -115,-32 -141,503 z m 416,109 133,17 47,-87 242,32 25,97 132,17 -145,-546 -155,-21 -279,491 z m 340,-360 52,205 -153,-20 101,-185 z m 573,233 c 5,37 13,68 23,91 11,24 25,42 41,53 17,12 35,19 57,22 21,3 46,3 75,-1 l 143,-19 c 39,-5 70,-10 92,-16 21,-5 39,-14 53,-26 13,-12 23,-29 27,-51 5,-22 5,-51 0,-88 l -20,-148 -267,36 14,107 148,-19 2,15 c 2,12 1,22 -1,30 -2,8 -6,14 -11,19 -6,4 -12,8 -19,10 -7,2 -15,4 -24,5 l -127,17 c -16,2 -28,2 -38,0 -10,-1 -18,-6 -25,-13 -7,-7 -12,-17 -16,-30 -4,-14 -8,-32 -11,-55 l -8,-65 c -3,-22 -5,-41 -4,-55 0,-14 3,-26 8,-34 4,-8 11,-15 20,-19 9,-4 21,-8 37,-10 l 130,-17 c 21,-2 37,-1 47,5 11,7 17,22 20,45 l 118,-15 -3,-16 c -3,-29 -8,-52 -15,-71 -6,-19 -15,-35 -28,-48 -12,-13 -29,-21 -51,-26 -21,-5 -49,-6 -82,-1 l -179,23 c -29,4 -53,10 -73,18 -20,8 -36,20 -49,36 -12,16 -21,37 -25,62 -5,26 -5,57 0,94 l 21,155 z m 570,-85 c 21,62 48,104 83,125 35,22 78,24 130,6 l 164,-54 c 52,-17 85,-45 100,-83 15,-37 12,-88 -8,-150 l -106,-319 -114,38 95,286 c 10,32 13,56 8,73 -5,16 -20,28 -43,36 l -113,38 c -23,7 -42,6 -56,-4 -14,-11 -26,-31 -37,-63 l -95,-287 -114,38 106,320 z m 594,-2 119,-62 -11,-98 216,-113 76,65 119,-62 -433,-364 -139,73 53,561 z m 72,-490 160,138 -136,71 -24,-209 z m 359,-204 148,-115 c 16,-12 30,-18 41,-18 11,1 23,10 37,27 l 10,14 c 12,15 18,28 18,40 0,11 -7,21 -19,31 l -157,122 -78,-101 z m 146,384 95,-73 -83,-108 149,-116 c 15,-11 28,-15 40,-11 12,4 27,17 44,39 l 38,49 95,-74 -54,-70 c -13,-16 -25,-29 -36,-38 -12,-9 -22,-15 -32,-18 -10,-3 -19,-4 -28,-3 -8,1 -18,4 -27,8 l -1,-1 c 16,-22 21,-44 16,-66 -5,-21 -19,-47 -42,-76 l -20,-27 c -15,-19 -30,-35 -45,-48 -14,-12 -29,-21 -44,-26 -15,-5 -31,-6 -48,-3 -16,4 -33,13 -51,27 l -287,223 321,412 z m 464,-369 250,-263 c 41,-43 60,-83 57,-120 -4,-37 -29,-78 -77,-123 l -115,-110 c -47,-45 -90,-68 -127,-70 -37,-1 -76,20 -117,63 l -250,263 379,360 z m -202,-358 147,-154 c 18,-19 36,-28 53,-27 17,1 38,15 65,39 l 51,49 c 26,25 40,46 43,63 2,17 -6,35 -24,54 l -147,154 -188,-178 z"
       id="path3487"
       inkscape:connector-curvature="0"
       style="fill:#e2001a;fill-rule:nonzero" /><circle
       class="fil2"
       cy="11000"
       r="3898"
       id="circle3489"
       cx="0"
       style="fill:none" /><g
       id="_902059056"><path
         class="fil4"
         d="m 2745,8870 c 36,-20 76,-28 116,-8 37,19 79,75 103,109 32,45 74,101 62,158 -7,35 -31,58 -58,79 l -33,26 -5,-7 c -9,23 -28,45 -57,65 -40,29 -88,48 -135,26 -43,-19 -86,-78 -113,-115 -29,-42 -70,-97 -65,-151 1,-6 1,-11 3,-16 3,-14 9,-26 16,-37 -15,4 -30,7 -46,5 -51,-4 -91,-46 -123,-82 -18,-20 -32,-38 -40,-58 l -99,87 -113,-128 146,-129 c -8,3 -17,5 -26,7 -62,8 -123,-43 -167,-81 -40,-34 -86,-77 -91,-132 -2,-20 1,-38 8,-55 -10,6 -20,10 -31,14 -9,3 -18,5 -27,6 -54,5 -111,-36 -154,-66 -45,-31 -95,-66 -108,-122 -3,-12 -3,-24 -2,-36 l -26,50 -152,-79 84,-162 c 4,-8 19,-35 21,-44 -4,-6 -22,-15 -27,-18 -4,-2 -25,-13 -30,-11 -11,6 -30,45 -35,55 l -77,146 -135,-71 -1,3 -156,-71 73,-159 -138,-46 13,-41 c 1,-3 4,-10 5,-15 -3,-2 -7,-3 -9,-4 -3,-1 -10,-2 -13,0 -11,10 -21,43 -25,55 l -55,161 -162,-55 126,-373 158,54 -1,0 c 19,0 39,4 61,11 44,15 81,41 93,89 l 0,1 c 3,14 4,28 2,43 l 91,-197 155,72 -62,135 11,-20 147,77 -1,2 c 22,3 44,11 67,23 50,26 92,57 101,115 2,10 3,19 3,28 0,30 -11,60 -25,89 27,-36 60,-70 104,-79 60,-12 116,27 163,59 47,33 104,74 114,134 6,33 -3,62 -17,90 25,-21 54,-37 88,-38 58,-1 106,41 147,77 41,35 91,76 97,133 6,56 -31,105 -66,146 l 135,-119 110,125 -1,0 c 21,13 40,32 59,54 35,40 70,87 61,142 -3,28 -17,52 -36,74 z m -74,71 c -1,0 -1,1 -2,1 l 1,1 c 0,-1 0,-2 1,-2 z m -686,-728 c -3,-6 -21,-19 -26,-23 -6,-4 -21,-14 -30,-17 -8,6 -20,23 -24,29 -3,5 -13,20 -16,27 5,8 21,20 28,24 5,4 21,15 29,17 2,-2 4,-5 6,-6 l 16,-19 14,-24 c 1,-2 3,-5 3,-8 z M -130,7524 c 5,-40 22,-76 61,-96 38,-19 108,-19 150,-18 55,1 125,0 163,44 25,26 29,59 30,93 l 2,42 -9,0 c 13,21 19,49 18,84 0,50 -13,99 -59,125 -40,23 -114,23 -159,22 -51,-1 -120,-1 -161,-37 -4,-3 -8,-7 -11,-12 -3,-3 -5,-6 -7,-9 l 4,47 -166,13 0,-2 c -21,9 -45,13 -70,15 -55,4 -107,-1 -146,-44 -6,-7 -12,-14 -17,-22 -5,-9 -10,-19 -14,-30 1,25 -3,50 -15,71 -26,49 -84,67 -134,78 -27,7 -53,11 -76,9 l 0,1 -142,33 1,3 -164,52 -1,-3 -138,56 -69,-169 c -3,-8 -15,-37 -21,-44 -7,-1 -25,6 -31,9 -4,1 -26,11 -28,16 -3,12 15,52 19,62 l 63,153 -159,65 -4,-10 -124,80 -101,-156 c -5,-8 -19,-30 -27,-38 -4,1 -16,8 -19,10 -3,2 -17,12 -18,15 0,12 23,46 29,56 l 92,142 -144,93 -101,-156 c -5,-7 -20,-32 -26,-38 -6,1 -15,7 -19,9 -4,3 -17,12 -19,18 1,11 24,46 29,54 l 92,142 -144,93 -60,-92 c 14,24 22,49 20,77 l 0,1 c 0,4 -1,8 -1,12 -5,29 -21,51 -40,73 -31,35 -70,68 -105,99 -35,31 -74,66 -113,93 -24,16 -48,29 -78,30 -4,1 -8,1 -11,0 l -1,0 c -33,-2 -59,-17 -84,-37 -37,-29 -72,-69 -102,-104 -30,-34 -64,-72 -88,-111 -16,-27 -28,-55 -25,-87 l 0,-1 c 0,-4 1,-8 1,-12 6,-29 21,-52 40,-73 31,-35 70,-69 106,-100 35,-31 73,-65 111,-92 24,-16 49,-29 78,-30 4,0 9,0 13,0 32,1 59,16 83,36 36,29 71,68 101,103 23,26 49,55 71,85 l -130,-200 139,-91 1,2 c 13,-17 30,-31 50,-44 37,-24 74,-36 111,-31 9,-36 35,-64 73,-89 44,-29 91,-45 143,-26 56,21 84,67 115,115 l 34,52 -97,-237 154,-63 1,2 c 17,-15 38,-26 62,-36 51,-21 102,-33 153,-3 8,5 15,10 23,16 18,16 33,38 44,61 l -81,-256 164,-52 80,255 -61,-265 167,-38 29,125 c 18,-10 40,-17 65,-23 48,-11 106,-20 150,7 51,30 66,90 78,144 0,-3 0,-6 -1,-10 l -13,-182 171,-13 13,182 c 1,7 3,42 8,48 6,2 24,1 30,0 4,0 28,-2 31,-6 7,-9 2,-54 1,-64 l -12,-166 171,-13 8,108 z m 7,91 1,15 5,0 c -2,-5 -4,-10 -6,-15 z m -2671,1492 -170,-133 102,-131 2,1 c 7,-21 19,-41 36,-62 34,-43 72,-79 131,-78 9,0 18,1 28,2 45,9 88,44 123,71 l 144,113 -106,135 -144,-113 c -6,-5 -31,-25 -39,-28 -6,3 -19,19 -23,24 -3,3 -17,22 -16,28 4,11 39,37 48,44 l 130,102 -96,122 7,4 -103,160 -440,-283 103,-160 283,182 z m 3400,-1350 -18,107 -182,-30 86,-516 275,46 c 31,5 65,9 95,19 l 1,1 c 107,37 102,122 86,219 -12,70 -28,152 -106,176 -44,13 -99,1 -143,-6 l -94,-16 z m -3003,662 0,0 c 4,16 40,55 50,67 6,6 33,37 42,40 12,-4 61,-48 71,-56 9,-9 58,-51 64,-63 -3,-9 -29,-39 -35,-45 -9,-11 -45,-52 -60,-59 -16,8 -58,47 -68,56 -10,9 -54,46 -64,60 z m 1607,-749 c -1,7 3,27 4,33 2,6 6,24 10,33 11,1 34,-3 43,-5 7,-2 27,-7 36,-13 0,-9 -5,-29 -6,-36 -1,-6 -5,-22 -9,-29 -11,-1 -32,3 -40,5 -7,1 -31,7 -38,12 z m 1428,-100 91,15 c 9,1 23,4 34,5 1,-6 3,-14 3,-18 1,-3 2,-10 3,-15 -11,-3 -25,-4 -33,-6 l -93,-15 -5,34 z m 1907,1144 c -8,3 -25,18 -30,22 -4,4 -18,16 -21,23 2,8 19,27 24,32 5,6 20,22 29,27 9,-4 25,-19 31,-23 4,-4 17,-16 20,-22 -3,-8 -18,-24 -22,-29 -5,-6 -23,-26 -31,-30 z"
         id="path3492"
         inkscape:connector-curvature="0"
         style="fill:#ffffff" /></g><path
       class="fil5"
       d="m -3126,9073 374,241 61,-94 -374,-240 -61,93 z m 217,-106 248,195 58,-73 -100,-78 c -45,-36 -56,-47 -61,-65 -4,-18 2,-36 23,-63 21,-27 37,-38 52,-38 16,-1 26,5 66,36 l 113,89 57,-73 -113,-89 c -68,-53 -90,-64 -128,-65 -36,0 -63,18 -99,64 -37,47 -43,79 -21,117 l -3,4 -38,-30 -54,69 z m 474,-724 c -109,96 -131,122 -134,158 -3,37 22,77 103,170 86,97 121,126 159,128 37,1 66,-17 175,-113 108,-95 130,-122 133,-158 3,-38 -21,-76 -105,-172 -84,-96 -120,-124 -157,-126 -37,-1 -66,17 -174,113 z m 76,86 c 73,-64 84,-71 105,-64 17,6 36,23 78,71 36,40 46,57 45,74 -1,19 -14,33 -77,89 -65,57 -81,68 -100,67 -18,-1 -32,-13 -68,-54 -39,-44 -54,-64 -59,-81 -8,-25 -1,-34 76,-102 z m 279,-203 172,265 78,-51 -71,-109 c -28,-43 -36,-61 -35,-79 1,-16 14,-32 37,-47 22,-14 39,-18 52,-13 14,5 20,12 47,53 l 80,124 78,-51 -71,-109 c -28,-43 -36,-60 -35,-78 1,-17 13,-32 35,-47 23,-15 39,-19 54,-14 13,5 18,9 47,53 l 80,124 78,-51 -81,-123 c -44,-69 -62,-87 -95,-100 -34,-12 -66,-5 -109,22 -51,33 -66,66 -54,114 -42,-28 -80,-26 -130,6 -46,30 -63,61 -54,101 l -4,2 -25,-39 -74,47 z m 567,-339 119,293 86,-35 -48,-117 c -22,-54 -26,-68 -21,-87 5,-17 20,-30 51,-43 32,-13 51,-15 65,-7 13,7 19,17 38,64 l 54,133 86,-35 -54,-133 c -33,-80 -46,-101 -78,-120 -32,-18 -64,-17 -118,6 -56,22 -77,47 -77,91 l -4,2 -18,-44 -81,32 z m 393,-151 95,301 88,-28 -95,-301 -88,28 z m -39,-123 27,84 88,-28 -27,-84 -88,28 z m 181,-58 100,433 85,-20 -10,-40 5,-1 c 27,34 52,39 119,23 62,-14 94,-32 109,-58 14,-28 14,-61 -4,-137 -18,-79 -32,-108 -61,-126 -26,-15 -62,-15 -121,-2 -60,14 -81,30 -90,73 l -4,1 -38,-167 -90,21 z m 217,164 c 25,-5 48,-7 61,-4 17,4 26,18 35,58 9,39 9,57 0,68 -8,11 -28,21 -59,28 -36,8 -60,8 -73,1 -12,-6 -18,-21 -27,-58 -14,-62 -4,-77 63,-93 z m 610,154 -23,-315 -93,7 10,127 c 4,58 2,75 -10,91 -10,13 -27,19 -59,22 -35,2 -50,-1 -62,-13 -11,-12 -14,-26 -18,-72 l -11,-143 -92,7 11,143 c 6,86 13,110 37,137 25,27 57,36 114,32 62,-5 90,-22 101,-63 l 5,-1 3,48 87,-7 z m 55,-103 c 0,36 6,58 21,76 22,25 52,33 142,35 72,1 117,-5 139,-18 27,-14 39,-43 40,-90 1,-70 -26,-98 -97,-100 -96,-2 -111,-3 -127,-4 -15,-2 -22,-9 -22,-21 0,-20 18,-26 76,-25 31,0 51,4 58,10 4,2 5,5 7,15 l 94,1 c -2,-38 -6,-55 -19,-68 -21,-23 -52,-30 -136,-32 -67,-1 -110,4 -131,14 -27,14 -41,43 -42,91 -1,67 28,95 98,98 91,1 115,2 127,4 14,2 21,11 21,23 0,23 -18,29 -78,28 -58,0 -76,-9 -77,-36 l -94,-1 z m 547,131 105,18 18,-107 132,22 c 77,13 101,14 126,7 43,-13 62,-49 78,-145 19,-114 6,-152 -60,-175 -17,-6 -28,-8 -90,-19 l -236,-39 -73,438 z m 141,-199 19,-112 131,22 c 47,9 48,9 55,14 11,9 13,22 8,53 -5,31 -11,43 -22,48 -10,5 -12,4 -60,-3 l -131,-22 z m 420,-2 -101,299 87,29 42,-123 c 16,-46 24,-62 37,-74 13,-10 32,-13 52,-6 18,6 30,16 34,27 3,9 2,21 -6,42 l 0,2 -1,1 83,28 7,-20 c 15,-44 19,-69 14,-92 -7,-28 -29,-47 -68,-60 -49,-17 -79,-11 -108,21 l -4,-1 15,-45 -83,-28 z m 344,121 -132,286 84,39 132,-286 -84,-39 z m 54,-118 -37,81 84,39 37,-81 -84,-39 z m 101,188 -146,279 82,43 59,-112 c 27,-51 35,-63 53,-71 16,-8 35,-5 65,11 30,16 44,29 47,44 4,15 0,26 -24,71 l -66,127 82,43 66,-127 c 41,-77 48,-100 42,-137 -7,-36 -29,-60 -81,-87 -53,-27 -85,-27 -119,1 l -4,-2 22,-43 -78,-40 z m 470,499 c -24,27 -43,26 -87,-4 -20,-15 -36,-29 -41,-41 -8,-16 -3,-33 20,-66 24,-34 39,-47 55,-46 12,1 32,10 53,25 44,30 53,51 35,82 l 78,54 c 32,-50 41,-74 36,-101 -6,-34 -31,-62 -98,-108 -69,-48 -100,-60 -134,-53 -31,6 -56,29 -99,91 -47,69 -60,101 -53,133 8,32 30,56 93,99 80,56 109,66 146,54 25,-7 42,-23 74,-65 l -78,-54 z m 288,271 c -21,19 -33,15 -77,-23 -25,-22 -38,-38 -39,-51 -1,-13 4,-22 25,-47 l 183,158 c 9,-9 18,-21 21,-24 48,-56 65,-89 62,-122 -3,-30 -22,-54 -83,-107 -61,-52 -89,-68 -121,-67 -35,0 -62,20 -117,83 -52,61 -67,90 -64,123 3,31 24,59 78,106 100,87 140,93 202,31 l -70,-60 z m -49,-170 c 29,-32 47,-30 94,10 27,24 39,40 38,54 0,10 -3,15 -19,34 l -113,-98 z m -7,435 62,70 129,-114 2,3 c -15,38 -8,64 33,111 82,92 118,92 221,2 59,-52 79,-77 82,-107 6,-32 -9,-63 -51,-111 -48,-54 -74,-65 -114,-52 l -3,-3 32,-29 -58,-65 -335,295 z m 393,-108 c 43,49 43,66 -2,106 -32,28 -47,37 -62,34 -13,-2 -31,-15 -54,-41 -45,-51 -45,-70 1,-110 52,-46 67,-45 117,11 z m 44,265 c -29,21 -44,39 -49,62 -8,32 4,62 56,135 42,58 73,92 97,102 27,13 58,5 96,-22 57,-41 64,-79 23,-138 -55,-78 -64,-91 -71,-104 -8,-13 -7,-23 3,-30 17,-12 32,-1 66,46 17,26 26,43 26,53 0,4 -2,7 -9,14 l 55,77 c 30,-24 41,-38 44,-56 6,-30 -6,-59 -55,-128 -39,-55 -69,-87 -89,-97 -27,-14 -59,-8 -98,20 -54,39 -60,79 -20,137 52,73 65,93 72,104 6,12 3,24 -7,31 -18,13 -34,3 -69,-46 -34,-47 -37,-66 -16,-84 l -55,-76 z"
       id="path3494"
       inkscape:connector-curvature="0"
       style="fill:#e2001a;fill-rule:nonzero" /></g></svg>