<?xml version="1.0" encoding="UTF-8" standalone="no"?>
<!-- Creator: CorelDRAW X7 -->

<svg
   xmlns:dc="http://purl.org/dc/elements/1.1/"
   xmlns:cc="http://creativecommons.org/ns#"
   xmlns:rdf="http://www.w3.org/1999/02/22-rdf-syntax-ns#"
   xmlns:svg="http://www.w3.org/2000/svg"
   xmlns="http://www.w3.org/2000/svg"
   xmlns:sodipodi="http://sodipodi.sourceforge.net/DTD/sodipodi-0.dtd"
   xmlns:inkscape="http://www.inkscape.org/namespaces/inkscape"
   xml:space="preserve"
   width="7.8740005in"
   height="7.8740005in"
   version="1.1"
   style="clip-rule:evenodd;fill-rule:evenodd;image-rendering:optimizeQuality;shape-rendering:geometricPrecision;text-rendering:geometricPrecision"
   viewBox="0 0 7874.0005 7874.0005"
   id="svg3706"
   inkscape:version="0.91 r13725"
   sodipodi:docname="PanOceania - Croc Men - [N3] [Vyo].svg"><metadata
     id="metadata3782"><rdf:RDF><cc:Work
         rdf:about=""><dc:format>image/svg+xml</dc:format><dc:type
           rdf:resource="http://purl.org/dc/dcmitype/StillImage" /></cc:Work></rdf:RDF></metadata><sodipodi:namedview
     pagecolor="#ffffff"
     bordercolor="#666666"
     borderopacity="1"
     objecttolerance="10"
     gridtolerance="10"
     guidetolerance="10"
     inkscape:pageopacity="0"
     inkscape:pageshadow="2"
     inkscape:window-width="640"
     inkscape:window-height="480"
     id="namedview3780"
     showgrid="false"
     inkscape:zoom="0.23838384"
     inkscape:cx="736.83001"
     inkscape:cy="849.33005"
     inkscape:window-x="0"
     inkscape:window-y="0"
     inkscape:window-maximized="0"
     inkscape:current-layer="svg3706" /><defs
     id="defs3708"><style
       type="text/css"
       id="style3710"><![CDATA[
    .fil0 {fill:none}
    .fil1 {fill:#00C0FF}
    .fil3 {fill:#2E3192}
    .fil4 {fill:#2E3192}
    .fil2 {fill:#E2001A}
    .fil5 {fill:white}
    .fil6 {fill:white;fill-rule:nonzero}
   ]]></style></defs><g
     id="Layer_x0020_1"
     transform="translate(3937,-7063)"><metadata
       id="CorelCorpID_0Corel-Layer" /><path
       class="fil0"
       d="m -195,9302 c -250,28 -612,56 -891,334 -244,244 -306,585 -501,779 -306,307 -584,195 -751,28 -279,-278 -362,-696 -362,-1030 0,-405 139,-640 473,-974 223,-223 427,-362 752,-362 445,0 584,195 584,362 0,407 -163,448 -362,696 -222,278 -417,640 -640,640 -216,0 -289,-193 -278,-445 10,-238 194,-752 612,-724"
       id="path3714"
       inkscape:connector-curvature="0"
       style="fill:none" /><path
       class="fil0"
       d="m 2478,8244 c -557,557 -947,779 -1615,779 -668,0 -1002,-249 -1002,-668 0,-278 334,-501 724,-501 263,0 501,113 501,334 0,167 -167,390 -501,390 -223,0 -307,-124 -307,-251 0,-55 84,-139 195,-139 54,0 139,84 139,139"
       id="path3716"
       inkscape:connector-curvature="0"
       style="fill:none" /><path
       class="fil0"
       d="m 2723,8456 c -557,557 -746,790 -746,1681 0,445 361,752 640,752 278,0 584,-251 584,-696 0,-263 -139,-474 -361,-474 -167,0 -418,195 -418,474 0,167 111,278 223,278 111,0 195,-83 195,-139 0,-111 -56,-167 -167,-167"
       id="path3718"
       inkscape:connector-curvature="0"
       style="fill:none" /><path
       class="fil0"
       d="m 501,12503 c 251,-28 613,-55 891,-334 244,-244 306,-584 501,-779 306,-306 585,-195 752,-28 278,278 362,696 362,1030 0,405 -167,668 -502,1002 -222,223 -427,362 -751,362 -446,0 -557,-223 -557,-390 0,-407 136,-420 334,-668 223,-278 446,-668 668,-668 216,0 289,193 279,445 -11,238 -195,752 -613,724"
       id="path3720"
       inkscape:connector-curvature="0"
       style="fill:none" /><circle
       class="fil1"
       cy="11000"
       r="3937"
       id="circle3722"
       cx="0"
       style="fill:#00c0ff" /><path
       class="fil2"
       d="m -1197,11195 c 0,223 139,529 306,696 167,167 473,306 696,306 -501,334 -1642,974 -1809,807 -167,-167 473,-1308 807,-1809 z"
       id="path3724"
       inkscape:connector-curvature="0"
       style="fill:#e2001a" /><circle
       class="fil3"
       transform="matrix(0.707107,0.707107,-0.707107,0.707107,-2700.37,11055.7)"
       r="157"
       id="circle3726"
       cx="0"
       cy="0"
       style="fill:#2e3192" /><circle
       class="fil3"
       transform="matrix(0.618718,0.618718,-0.618718,0.618718,-2254.95,11194.9)"
       r="157"
       id="circle3728"
       cx="0"
       cy="0"
       style="fill:#2e3192" /><circle
       class="fil3"
       transform="matrix(0.53033,0.53033,-0.53033,0.53033,-1837.36,11222.7)"
       r="157"
       id="circle3730"
       cx="0"
       cy="0"
       style="fill:#2e3192" /><circle
       class="fil3"
       transform="matrix(0.441942,0.441942,-0.441942,0.441942,-1545.06,11041.8)"
       r="157"
       id="circle3732"
       cx="0"
       cy="0"
       style="fill:#2e3192" /><circle
       class="fil3"
       transform="matrix(0.441942,0.441942,-0.441942,0.441942,-1099.63,12099.6)"
       r="157"
       id="circle3734"
       cx="0"
       cy="0"
       style="fill:#2e3192" /><circle
       class="fil3"
       transform="matrix(0.53033,0.53033,-0.53033,0.53033,-1294.51,12294.5)"
       r="157"
       id="circle3736"
       cx="0"
       cy="0"
       style="fill:#2e3192" /><circle
       class="fil3"
       transform="matrix(0.618718,0.618718,-0.618718,0.618718,-1531.14,12531.1)"
       r="157"
       id="circle3738"
       cx="0"
       cy="0"
       style="fill:#2e3192" /><circle
       class="fil3"
       transform="matrix(-0.707107,-0.707107,-0.707107,0.707107,-194.872,13728.2)"
       r="157"
       id="circle3740"
       cx="0"
       cy="0"
       style="fill:#2e3192" /><circle
       class="fil3"
       transform="matrix(-0.618718,-0.618718,-0.618718,0.618718,-222.711,13282.8)"
       r="157"
       id="circle3742"
       cx="0"
       cy="0"
       style="fill:#2e3192" /><circle
       class="fil3"
       transform="matrix(-0.53033,-0.53033,-0.53033,0.53033,-139.194,12893)"
       r="157"
       id="circle3744"
       cx="0"
       cy="0"
       style="fill:#2e3192" /><circle
       class="fil3"
       transform="matrix(-0.441942,-0.441942,-0.441942,0.441942,111.355,12670.3)"
       r="157"
       id="circle3746"
       cx="0"
       cy="0"
       style="fill:#2e3192" /><path
       class="fil4"
       d="m 1615,9552 c 222,223 222,836 111,1170 -84,-529 -251,-752 -445,-947 -195,-195 -362,-362 -836,-501 307,-84 947,56 1170,278 z"
       id="path3748"
       inkscape:connector-curvature="0"
       style="fill:#2e3192" /><path
       class="fil4"
       d="m 1155,11821 c 251,-250 279,-835 167,-1169 -83,529 -250,696 -445,891 -195,195 -529,417 -1002,501 334,111 1030,28 1280,-223 z"
       id="path3750"
       inkscape:connector-curvature="0"
       style="fill:#2e3192" /><path
       class="fil4"
       d="m -905,9928 c -250,251 -278,835 -167,1169 84,-529 251,-696 446,-890 194,-195 529,-418 1002,-502 -334,-111 -1030,-27 -1281,223 z"
       id="path3752"
       inkscape:connector-curvature="0"
       style="fill:#2e3192" /><path
       class="fil4"
       d="m -182,9419 c -307,34 -589,69 -820,300 -226,226 -283,562 -501,780 -281,281 -632,315 -919,28 -288,-288 -396,-717 -396,-1114 0,-470 186,-736 507,-1058 245,-245 478,-396 836,-396 180,0 384,30 531,143 106,81 171,202 171,337 0,179 -27,338 -135,485 -74,101 -173,185 -253,285 -34,42 -67,86 -99,130 -88,120 -174,247 -275,356 -94,102 -213,198 -358,198 -87,0 -170,-24 -238,-80 -140,-115 -166,-318 -158,-488 7,-172 78,-373 169,-517 128,-201 321,-337 569,-320 65,4 114,61 110,126 -4,65 -61,114 -126,110 -75,-5 -144,13 -207,54 -160,107 -271,371 -279,557 -4,82 1,237 72,296 25,20 56,26 88,26 65,0 144,-78 185,-122 93,-102 176,-224 258,-335 34,-47 69,-94 105,-139 200,-250 336,-267 336,-622 0,-62 -31,-113 -79,-150 -101,-78 -265,-94 -387,-94 -292,0 -470,128 -669,327 -275,276 -438,488 -438,891 0,332 86,705 327,947 194,194 397,159 585,-28 89,-90 153,-228 210,-341 80,-160 162,-310 291,-439 143,-142 313,-235 506,-291 151,-43 300,-59 455,-77 65,-7 123,40 131,105 7,64 -40,123 -105,130 z"
       id="path3754"
       inkscape:connector-curvature="0"
       style="fill:#2e3192" /><path
       class="fil4"
       d="m 495,8339 c -2,-11 -19,-30 -32,-32 -22,-3 -65,10 -66,32 -5,98 99,121 188,121 106,0 215,-28 296,-101 45,-42 87,-107 87,-171 0,-173 -254,-216 -383,-216 -140,0 -288,33 -408,105 -85,49 -169,127 -192,226 -4,17 -6,35 -6,52 0,471 511,550 884,550 224,0 442,-26 653,-105 339,-128 625,-387 878,-640 46,-46 121,-46 167,0 46,46 46,121 0,167 -519,520 -940,815 -1698,815 -366,0 -830,-74 -1030,-424 -63,-111 -90,-235 -90,-363 0,-36 4,-71 12,-106 38,-164 160,-292 301,-376 158,-93 346,-137 529,-137 206,0 455,65 567,256 35,60 52,127 52,196 0,132 -68,257 -164,345 -124,114 -289,163 -455,163 -191,0 -370,-84 -415,-283 -7,-28 -10,-57 -10,-86 0,-72 45,-138 100,-182 60,-48 136,-75 213,-75 121,0 258,137 258,257 0,66 -53,119 -119,119 -61,0 -107,-48 -117,-107 z"
       id="path3756"
       inkscape:connector-curvature="0"
       style="fill:#2e3192" /><path
       class="fil4"
       d="m 2721,10320 c 9,-33 -8,-37 -48,-37 -66,0 -119,-53 -119,-118 0,-65 53,-118 119,-118 176,0 285,108 285,285 0,73 -45,138 -100,183 -61,48 -136,74 -213,74 -95,0 -182,-47 -243,-118 -66,-77 -98,-177 -98,-278 0,-161 67,-312 181,-425 91,-91 223,-167 355,-167 78,0 153,20 220,59 184,108 260,329 260,533 0,219 -68,434 -220,596 -125,132 -300,218 -483,218 -193,0 -381,-109 -510,-246 -161,-169 -249,-391 -249,-624 0,-358 25,-726 193,-1050 141,-269 375,-501 589,-714 46,-46 121,-46 167,0 46,46 46,121 0,167 -564,564 -712,772 -712,1597 0,173 64,336 183,462 84,88 213,172 339,172 118,0 231,-59 311,-144 110,-118 155,-276 155,-434 0,-149 -63,-355 -243,-355 -66,0 -144,53 -188,97 -69,69 -112,159 -112,258 0,44 12,90 41,125 16,17 39,35 64,35 23,0 70,-9 76,-33 z"
       id="path3758"
       inkscape:connector-curvature="0"
       style="fill:#2e3192" /><path
       class="fil4"
       d="m 488,12386 c 307,-34 589,-69 820,-300 226,-226 283,-562 502,-780 280,-281 631,-314 918,-28 288,288 397,717 397,1114 0,469 -214,764 -536,1086 -245,245 -477,396 -835,396 -184,0 -386,-35 -525,-163 -97,-89 -150,-214 -150,-345 0,-169 19,-328 120,-470 34,-47 74,-89 115,-132 43,-45 85,-90 125,-140 50,-62 98,-128 145,-192 85,-115 172,-236 271,-337 91,-93 208,-183 344,-183 88,0 170,24 238,80 141,115 166,319 159,489 -8,171 -78,372 -170,516 -128,201 -321,337 -569,320 -65,-4 -114,-61 -110,-126 5,-64 61,-114 126,-110 75,5 144,-12 207,-54 160,-107 272,-371 280,-557 3,-82 -2,-237 -72,-295 -25,-21 -57,-27 -89,-27 -128,0 -355,329 -424,423 -50,68 -99,136 -152,201 -200,251 -308,238 -308,594 0,228 261,272 439,272 291,0 469,-128 668,-327 274,-275 466,-518 466,-919 0,-332 -85,-705 -327,-947 -194,-194 -397,-159 -584,28 -90,90 -154,228 -210,341 -81,160 -163,310 -292,439 -142,143 -313,235 -506,291 -151,43 -300,59 -455,77 -65,7 -123,-40 -130,-105 -7,-64 39,-123 104,-130 z"
       id="path3760"
       inkscape:connector-curvature="0"
       style="fill:#2e3192" /><path
       class="fil4"
       d="m 2784,8216 c 1537,1538 1537,4030 0,5568 -1538,1537 -4030,1537 -5568,0 -1537,-1538 -1537,-4030 0,-5568 1538,-1537 4030,-1537 5568,0 z m -223,223 c 1415,1414 1415,3708 0,5122 -1414,1415 -3708,1415 -5122,0 -1415,-1414 -1415,-3708 0,-5122 1414,-1415 3708,-1415 5122,0 z"
       id="path3762"
       inkscape:connector-curvature="0"
       style="fill:#2e3192" /><path
       class="fil4"
       d="m -327,11397 c 101,-101 233,-168 369,-208 112,-34 237,-54 355,-54 150,0 340,5 477,73 19,10 27,34 17,53 -9,20 -33,28 -53,18 -123,-62 -306,-66 -441,-66 -110,0 -228,19 -332,51 -123,37 -245,97 -336,188 -16,16 -41,16 -56,0 -15,-15 -15,-40 0,-55 z"
       id="path3764"
       inkscape:connector-curvature="0"
       style="fill:#2e3192" /><path
       class="fil4"
       d="m 315,11305 c 170,0 354,30 453,89 -305,88 -318,354 -542,354 -112,0 -157,-45 -216,-128 -29,-41 -40,-106 -118,-138 69,-86 295,-177 423,-177 z"
       id="path3766"
       inkscape:connector-curvature="0"
       style="fill:#2e3192" /><path
       class="fil5"
       d="m 305,11502 c 70,0 138,37 138,59 -59,20 -138,128 -217,128 -69,0 -137,-59 -157,-108 128,0 142,-79 236,-79 z"
       id="path3768"
       inkscape:connector-curvature="0"
       style="fill:#ffffff" /><path
       class="fil4"
       d="m -397,11327 c 101,-101 168,-233 208,-369 34,-112 54,-237 54,-355 0,-150 -5,-340 -73,-477 -10,-19 -34,-27 -53,-17 -20,9 -28,33 -18,53 62,123 66,306 66,441 0,110 -19,228 -51,332 -37,123 -97,245 -188,336 -16,16 -16,41 0,56 15,15 40,15 55,0 z"
       id="path3770"
       inkscape:connector-curvature="0"
       style="fill:#2e3192" /><path
       class="fil4"
       d="m -305,10685 c 0,-170 -30,-354 -89,-453 -88,305 -354,318 -354,542 0,112 45,157 128,216 41,29 106,40 138,118 86,-69 177,-295 177,-423 z"
       id="path3772"
       inkscape:connector-curvature="0"
       style="fill:#2e3192" /><path
       class="fil5"
       d="m -502,10695 c 0,-70 -37,-138 -59,-138 -20,59 -128,138 -128,217 0,69 59,137 108,157 0,-128 79,-142 79,-236 z"
       id="path3774"
       inkscape:connector-curvature="0"
       style="fill:#ffffff" /><ellipse
       class="fil0"
       transform="matrix(1.19628,1.07714,-1.39461,1.54887,1.80825e-4,11000)"
       rx="2421"
       ry="1870"
       id="ellipse3776"
       cx="0"
       cy="0"
       style="fill:none" /><path
       class="fil6"
       d="m -3375,10398 18,-98 9,-43 22,-83 c 21,-67 64,-93 130,-79 l 73,14 65,13 c 6,1 14,4 23,7 9,4 20,8 34,14 23,10 40,26 49,48 9,22 10,50 3,83 l -5,44 -10,48 -3,14 -11,54 -13,54 c -3,12 -9,29 -19,51 -9,22 -25,35 -47,40 -21,4 -49,3 -82,-4 l 10,-46 3,1 c 17,3 31,5 43,6 12,0 21,-3 27,-9 6,-7 13,-20 21,-42 3,-10 7,-22 11,-36 3,-14 7,-31 11,-50 l 12,-62 12,-63 c 3,-16 4,-29 3,-40 -1,-11 -4,-20 -8,-26 -7,-11 -18,-19 -34,-25 -17,-5 -30,-9 -40,-12 -10,-3 -20,-5 -29,-7 l -52,-11 c -48,-10 -83,-12 -103,-6 -21,5 -36,29 -45,71 l -18,89 -18,85 c -7,34 -8,60 -3,75 6,16 25,27 57,34 l 16,3 -10,48 c -50,-10 -82,-25 -97,-44 -15,-19 -16,-55 -5,-110 z m 224,687 c -34,0 -58,-5 -71,-15 -13,-11 -22,-33 -27,-68 -4,25 -10,44 -19,56 -10,13 -26,19 -50,19 l -106,-1 0,-48 87,1 c 28,1 47,-5 57,-17 10,-12 15,-33 15,-64 l 3,-265 -158,-2 1,-47 389,4 -4,317 c 0,47 -8,80 -24,101 -16,20 -47,30 -93,29 z m 4,-49 c 30,1 50,-6 59,-20 10,-14 14,-38 15,-71 l 3,-260 -153,-2 -3,261 c 0,33 5,57 15,71 10,14 32,21 64,21 z m 126,228 22,171 c 11,80 7,132 -11,158 -19,25 -67,43 -146,54 l -14,2 -12,1 c -27,4 -57,6 -87,7 -31,1 -57,-7 -76,-24 -20,-17 -32,-43 -37,-80 l -8,-44 -6,-51 -12,-86 -1,-11 c -3,-22 -5,-45 -5,-67 -1,-23 1,-42 5,-57 4,-16 13,-29 27,-41 13,-11 33,-20 57,-26 13,-3 26,-5 40,-8 14,-3 29,-5 46,-7 11,-2 22,-3 33,-5 11,-1 23,-3 35,-4 12,-2 32,-1 59,1 27,3 48,14 62,34 15,20 24,48 29,83 z m -350,56 11,100 5,36 1,13 c 4,28 9,56 15,82 2,13 6,24 12,33 6,9 14,15 23,19 17,7 41,8 72,4 l 80,-10 9,-1 7,-1 6,-1 c 8,-1 15,-2 22,-3 7,-2 13,-3 19,-5 18,-4 31,-10 40,-18 8,-8 13,-17 15,-28 2,-11 3,-22 2,-34 l -4,-35 -11,-91 -13,-89 c -6,-44 -15,-73 -29,-85 -13,-12 -41,-16 -83,-10 l -59,5 -28,4 c -49,6 -81,16 -97,29 -16,12 -21,41 -15,86 z m 125,775 -33,-95 -14,-41 -23,-83 c -14,-68 10,-113 74,-133 l 70,-25 63,-21 c 6,-2 14,-3 23,-5 10,-1 22,-3 36,-5 26,-3 48,2 67,17 19,15 34,38 44,71 l 18,40 15,47 4,13 18,53 15,53 c 4,12 7,30 9,54 3,23 -4,43 -21,58 -16,15 -40,27 -72,38 l -15,-45 3,-1 c 17,-6 30,-11 40,-17 11,-5 17,-12 19,-21 2,-8 2,-24 -2,-46 -2,-11 -5,-23 -9,-37 -4,-14 -9,-30 -15,-49 l -20,-60 -22,-60 c -5,-15 -11,-27 -17,-36 -7,-10 -13,-16 -20,-19 -11,-7 -25,-8 -42,-4 -17,3 -30,7 -40,9 -11,3 -20,5 -29,8 l -51,17 c -47,15 -77,30 -92,46 -15,15 -16,43 -3,83 l 28,87 27,82 c 11,34 23,56 35,67 12,11 35,11 66,1 l 16,-5 15,46 c -49,16 -84,20 -106,11 -22,-9 -42,-40 -59,-93 z m 539,389 c -1,-8 -4,-23 -11,-43 -4,-10 -9,-22 -14,-34 -6,-13 -12,-27 -20,-42 l -7,-15 c -4,-7 -11,-19 -20,-34 -9,-15 -16,-27 -20,-35 -15,-24 -27,-40 -37,-49 -10,-8 -20,-11 -31,-10 -10,1 -21,4 -33,10 -21,11 -32,24 -35,39 -1,16 3,35 14,57 l 19,38 42,82 19,38 c 5,10 8,17 10,22 2,5 6,15 11,30 9,23 10,45 4,66 -7,21 -26,39 -58,56 -22,10 -41,16 -58,17 -17,0 -34,-6 -49,-18 -14,-12 -28,-28 -42,-50 -14,-21 -27,-45 -41,-72 l -14,-28 c -4,-9 -9,-18 -14,-28 -5,-10 -10,-20 -15,-31 -4,-8 -8,-16 -11,-24 -4,-8 -9,-23 -17,-46 -8,-23 -7,-44 2,-63 9,-19 32,-38 69,-57 l 22,42 -8,4 c -17,8 -29,17 -36,24 -7,8 -10,19 -7,35 2,9 5,19 7,28 3,10 8,20 13,32 l 33,68 c 18,36 35,65 50,89 16,23 30,37 44,42 13,5 30,2 50,-8 25,-13 38,-27 39,-42 1,-16 -5,-37 -19,-64 l -40,-80 -45,-94 c -16,-32 -22,-60 -19,-84 4,-25 20,-45 50,-60 24,-12 45,-18 64,-18 20,0 38,7 54,22 8,8 17,16 25,26 8,10 15,20 21,32 14,23 29,50 44,81 6,10 11,21 16,30 4,9 9,17 12,24 6,11 13,31 22,58 7,13 10,25 10,37 1,11 -2,23 -6,35 -8,21 -27,39 -58,55 l -22,-42 c 17,-8 27,-16 33,-23 5,-7 8,-15 8,-25 z m 684,929 c -17,18 -31,31 -44,40 -13,11 -27,16 -40,16 -14,1 -27,-2 -40,-8 -13,-6 -29,-18 -49,-37 l -198,-186 -105,110 -34,-32 267,-283 235,221 c 30,29 47,55 49,78 2,23 -12,50 -41,81 z m -38,-31 c 19,-20 28,-37 28,-52 1,-15 -9,-32 -29,-51 l -197,-185 -109,115 178,167 c 28,26 50,41 67,43 16,2 37,-10 62,-37 z m -90,294 -45,-32 410,-189 52,36 -31,452 -45,-31 8,-101 -258,-179 -91,44 z m 132,-63 221,153 18,-264 -239,111 z m 826,310 c -15,31 -30,50 -45,58 -15,7 -39,5 -73,-5 21,14 36,28 43,42 7,13 6,31 -5,53 l -46,95 -42,-21 37,-78 c 13,-25 16,-45 9,-59 -7,-13 -24,-27 -52,-40 l -238,-116 -69,142 -42,-20 169,-351 285,138 c 42,20 69,42 81,65 12,23 8,55 -12,97 z m -43,-24 c 13,-27 15,-48 6,-63 -8,-14 -28,-29 -58,-43 l -234,-113 -66,137 235,114 c 30,14 53,20 70,16 17,-3 33,-19 47,-48 z m 16,303 -53,-18 341,-296 60,19 97,443 -52,-17 -20,-99 -298,-99 -75,67 z m 108,-97 256,84 -57,-258 -199,174 z m 902,127 c -3,18 -6,35 -10,50 -3,14 -8,29 -14,45 -10,27 -24,48 -41,61 -18,13 -37,20 -59,21 -10,0 -21,-1 -35,-2 -14,-1 -28,-3 -41,-5 l -5,-1 -301,-49 63,-383 321,52 c 62,11 101,32 116,64 7,16 11,36 13,60 1,25 -1,54 -7,87 z m -48,-7 c 8,-54 8,-93 -2,-117 -9,-25 -38,-42 -89,-50 l -263,-43 -51,306 259,43 c 54,8 89,2 106,-19 17,-22 30,-62 40,-120 z m 176,198 -47,-1 8,-389 47,1 -8,389 z m 451,-357 c -8,-3 -23,-5 -45,-6 -11,-1 -23,-1 -36,0 -14,0 -30,1 -47,2 l -16,1 c -9,1 -22,2 -39,5 -17,3 -31,4 -41,5 -27,5 -47,10 -58,16 -12,6 -19,14 -22,24 -3,10 -4,22 -3,35 2,23 9,39 23,47 14,8 34,11 58,9 l 42,-3 92,-7 42,-3 c 11,-1 19,-2 25,-2 5,0 16,1 31,2 25,0 46,8 63,22 17,14 26,39 29,75 2,23 0,43 -6,59 -6,16 -18,29 -36,39 -16,8 -36,15 -61,19 -25,5 -53,8 -83,11 l -31,2 c -10,1 -20,2 -31,2 -11,1 -22,2 -34,3 -9,1 -18,1 -27,1 -9,0 -25,-1 -49,-2 -24,-2 -43,-10 -58,-26 -14,-15 -23,-44 -26,-86 l 47,-4 1,8 c 1,20 4,34 8,44 5,9 15,16 31,19 9,2 18,3 28,4 10,1 21,1 34,0 l 76,-4 c 40,-3 73,-7 101,-13 27,-5 46,-13 55,-24 10,-10 14,-27 12,-49 -2,-28 -10,-46 -24,-52 -14,-7 -36,-9 -66,-7 l -89,7 -104,5 c -36,2 -64,-3 -86,-15 -21,-12 -33,-35 -35,-69 -2,-26 0,-48 7,-66 7,-18 21,-32 41,-41 10,-5 22,-9 34,-13 12,-4 24,-6 37,-7 27,-5 58,-8 92,-11 12,-1 23,-2 34,-2 10,-1 19,-2 27,-2 12,-1 33,-1 62,1 14,-1 27,1 37,5 11,4 21,10 31,19 16,16 26,40 28,75 l -47,4 c -1,-19 -4,-31 -9,-39 -4,-8 -11,-14 -19,-17 z m 246,-98 168,-38 c 78,-18 131,-20 158,-4 28,16 50,62 68,140 l 3,13 3,12 c 6,27 11,56 15,87 4,31 -1,56 -16,77 -15,21 -41,36 -77,44 l -43,13 -50,11 -85,20 -10,2 c -22,5 -44,9 -67,12 -22,3 -41,3 -57,0 -16,-2 -30,-10 -43,-22 -12,-13 -23,-32 -31,-56 -4,-12 -8,-24 -12,-38 -4,-14 -8,-29 -12,-46 -2,-10 -5,-21 -7,-32 -3,-11 -5,-22 -8,-34 -3,-12 -4,-32 -5,-59 0,-27 9,-49 28,-65 19,-16 45,-29 80,-37 z m 90,343 98,-20 36,-8 12,-3 c 28,-7 55,-14 80,-23 13,-3 24,-8 32,-15 8,-7 13,-15 16,-24 6,-18 5,-42 -2,-73 l -18,-78 -2,-9 -2,-7 -1,-6 c -2,-8 -4,-15 -6,-21 -2,-7 -4,-13 -6,-19 -6,-17 -13,-30 -22,-38 -8,-7 -18,-12 -29,-12 -11,-1 -22,-1 -34,1 l -34,8 -90,19 -88,22 c -43,10 -70,22 -81,36 -11,15 -12,43 -2,84 l 11,58 6,28 c 11,48 24,79 38,94 14,14 43,16 88,6 z"
       id="path3778"
       inkscape:connector-curvature="0"
       style="fill:#ffffff;fill-rule:nonzero" /></g></svg>