<?xml version="1.0" encoding="UTF-8" standalone="no"?>
<!-- Creator: CorelDRAW X7 -->

<svg
   xmlns:dc="http://purl.org/dc/elements/1.1/"
   xmlns:cc="http://creativecommons.org/ns#"
   xmlns:rdf="http://www.w3.org/1999/02/22-rdf-syntax-ns#"
   xmlns:svg="http://www.w3.org/2000/svg"
   xmlns="http://www.w3.org/2000/svg"
   xmlns:sodipodi="http://sodipodi.sourceforge.net/DTD/sodipodi-0.dtd"
   xmlns:inkscape="http://www.inkscape.org/namespaces/inkscape"
   xml:space="preserve"
   width="7.8740005in"
   height="7.8740005in"
   version="1.1"
   style="clip-rule:evenodd;fill-rule:evenodd;image-rendering:optimizeQuality;shape-rendering:geometricPrecision;text-rendering:geometricPrecision"
   viewBox="0 0 7874.0005 7874.0005"
   id="svg5306"
   inkscape:version="0.91 r13725"
   sodipodi:docname="PanOceania - Trauma-Docs - [N3] [Vyo].svg"><metadata
     id="metadata5349"><rdf:RDF><cc:Work
         rdf:about=""><dc:format>image/svg+xml</dc:format><dc:type
           rdf:resource="http://purl.org/dc/dcmitype/StillImage" /></cc:Work></rdf:RDF></metadata><sodipodi:namedview
     pagecolor="#ffffff"
     bordercolor="#666666"
     borderopacity="1"
     objecttolerance="10"
     gridtolerance="10"
     guidetolerance="10"
     inkscape:pageopacity="0"
     inkscape:pageshadow="2"
     inkscape:window-width="640"
     inkscape:window-height="480"
     id="namedview5347"
     showgrid="false"
     inkscape:zoom="0.23838384"
     inkscape:cx="736.83001"
     inkscape:cy="849.33005"
     inkscape:window-x="0"
     inkscape:window-y="0"
     inkscape:window-maximized="0"
     inkscape:current-layer="svg5306" /><defs
     id="defs5308"><style
       type="text/css"
       id="style5310"><![CDATA[
    .fil3 {fill:none}
    .fil0 {fill:#00C0FF}
    .fil4 {fill:#E2001A}
    .fil1 {fill:white}
    .fil2 {fill:white;fill-rule:nonzero}
   ]]></style></defs><g
     id="Layer_x0020_1"
     transform="translate(3937,-7063)"><metadata
       id="CorelCorpID_0Corel-Layer" /><circle
       class="fil0"
       cy="11000"
       r="3937"
       id="circle5314"
       cx="0"
       style="fill:#00c0ff" /><circle
       class="fil1"
       cy="11000"
       r="3819"
       id="circle5316"
       cx="0"
       style="fill:#ffffff" /><circle
       class="fil0"
       cy="11000"
       r="3661"
       id="circle5318"
       cx="0"
       style="fill:#00c0ff" /><circle
       class="fil1"
       cy="11000"
       r="2756"
       id="circle5320"
       cx="0"
       style="fill:#ffffff" /><polygon
       class="fil2"
       points="-1966,8215 -2074,8289 -2142,8190 -1803,7958 -1736,8056 -1851,8135 -1625,8464 -1740,8544 "
       id="polygon5322"
       style="fill:#ffffff;fill-rule:nonzero" /><path
       id="1"
       class="fil2"
       d="m -1665,8065 105,-55 22,53 2,-1 c -2,-26 1,-45 9,-60 7,-14 21,-27 42,-37 16,-9 31,-14 43,-16 12,-1 24,0 35,6 11,6 22,15 33,29 11,13 22,31 35,54 5,10 9,18 14,25 l -96,51 c 0,-3 -1,-6 -3,-9 -8,-15 -15,-26 -21,-33 -5,-7 -11,-12 -17,-12 -5,-1 -12,1 -21,6 -12,6 -19,15 -21,27 -2,11 1,25 10,40 l 5,11 99,186 -105,56 -170,-321 z"
       inkscape:connector-curvature="0"
       style="fill:#ffffff;fill-rule:nonzero" /><path
       id="2"
       class="fil2"
       d="m -1193,7953 -109,46 -4,-9 c -8,-19 -12,-35 -12,-49 -1,-14 3,-27 11,-38 8,-12 21,-23 38,-34 18,-11 41,-23 69,-35 44,-18 79,-28 106,-31 27,-3 49,2 66,15 17,13 32,36 45,68 l 92,217 -109,46 -19,-55 -3,1 c 2,17 0,31 -4,43 -4,12 -12,22 -24,31 -12,9 -29,18 -52,28 -20,8 -39,14 -55,16 -16,2 -30,0 -42,-4 -13,-5 -24,-13 -34,-25 -10,-11 -19,-27 -27,-46 -7,-18 -12,-34 -12,-49 -1,-14 1,-28 7,-40 7,-12 16,-23 29,-33 13,-11 31,-20 52,-30 22,-9 39,-14 52,-17 13,-3 25,-3 34,0 9,3 18,9 28,18 l 2,0 -28,-66 c -6,-16 -15,-26 -25,-29 -11,-4 -26,-1 -45,7 -16,6 -25,13 -29,21 -4,7 -3,18 2,33 z m 79,82 c -20,8 -32,16 -37,24 -5,9 -5,19 0,33 7,14 14,22 24,24 10,1 26,-3 49,-13 20,-8 32,-16 36,-24 5,-8 4,-20 -3,-35 -5,-13 -12,-20 -22,-21 -10,-1 -25,3 -47,12 z"
       inkscape:connector-curvature="0"
       style="fill:#ffffff;fill-rule:nonzero" /><path
       id="3"
       class="fil2"
       d="m -576,7668 81,354 -116,26 -11,-74 -2,0 c -1,29 -10,51 -24,67 -15,17 -38,29 -68,35 -40,10 -72,7 -96,-8 -24,-15 -40,-42 -49,-83 l -55,-239 116,-27 46,202 c 4,18 7,29 9,33 1,5 4,9 7,13 9,11 25,14 46,9 27,-6 44,-20 49,-42 2,-8 0,-26 -7,-55 l -42,-185 116,-26 z"
       inkscape:connector-curvature="0"
       style="fill:#ffffff;fill-rule:nonzero" /><path
       id="4"
       class="fil2"
       d="m -465,7649 118,-9 1,56 3,-1 c 5,-21 16,-37 32,-48 15,-11 37,-18 64,-20 70,-6 109,16 114,64 l 2,0 c 2,-17 6,-31 14,-42 8,-11 19,-20 32,-27 14,-7 31,-11 51,-12 25,-2 48,0 67,6 20,7 35,17 45,31 10,16 17,41 20,76 l 20,243 -119,10 -16,-204 c -2,-28 -7,-46 -14,-55 -7,-9 -20,-13 -38,-11 -19,1 -32,7 -40,17 -8,10 -11,25 -9,46 l 17,215 -117,9 -18,-214 c -2,-25 -6,-41 -12,-48 -6,-7 -18,-9 -35,-8 -20,2 -34,7 -43,17 -8,10 -11,26 -9,47 l 17,214 -118,10 -29,-362 z"
       inkscape:connector-curvature="0"
       style="fill:#ffffff;fill-rule:nonzero" /><path
       id="5"
       class="fil2"
       d="m 334,7747 -117,-17 1,-10 c 3,-20 8,-36 15,-48 7,-12 17,-21 29,-27 13,-5 30,-8 50,-9 21,0 47,2 77,6 47,7 82,16 107,27 25,12 41,28 49,48 8,20 9,47 4,81 l -33,233 -117,-17 12,-58 -3,0 c -8,15 -16,27 -26,35 -10,8 -22,12 -37,14 -15,1 -34,0 -58,-3 -22,-3 -41,-8 -56,-15 -15,-6 -26,-14 -34,-25 -9,-11 -14,-23 -16,-38 -3,-15 -2,-33 0,-54 3,-19 8,-36 15,-49 7,-13 16,-23 27,-30 12,-7 26,-12 42,-14 17,-2 37,-1 60,2 23,3 41,7 54,11 12,5 22,10 28,18 6,7 11,17 15,31 l 2,0 10,-70 c 3,-17 0,-29 -7,-38 -7,-8 -21,-14 -42,-16 -17,-3 -29,-2 -36,2 -7,5 -12,15 -15,30 z m 25,110 c -21,-3 -35,-2 -44,2 -9,4 -14,14 -16,28 -2,15 1,26 8,32 8,7 24,12 48,15 21,3 36,2 44,-2 8,-5 13,-15 16,-32 1,-13 -1,-23 -9,-29 -8,-6 -23,-11 -47,-14 z"
       inkscape:connector-curvature="0"
       style="fill:#ffffff;fill-rule:nonzero" /><polygon
       id="6"
       class="fil2"
       points="567,7879 592,7765 773,7805 747,7919 "
       style="fill:#ffffff;fill-rule:nonzero" /><path
       id="7"
       class="fil2"
       d="m 739,8068 165,-491 257,86 c 43,15 77,33 101,56 24,23 38,50 43,82 5,32 0,68 -14,110 0,0 -4,13 -14,39 l -17,52 c -13,37 -25,65 -34,84 -10,20 -21,35 -32,47 -12,11 -26,21 -42,28 -20,10 -43,14 -68,13 -26,-2 -57,-9 -95,-22 l -250,-84 z m 170,-68 107,36 c 12,4 21,6 29,7 8,0 15,-1 22,-3 6,-3 12,-7 19,-13 10,-8 19,-22 27,-43 0,0 4,-9 11,-27 4,-11 8,-22 12,-33 13,-38 20,-67 22,-85 3,-19 0,-33 -9,-42 -8,-10 -23,-18 -45,-25 l -106,-36 -89,264 z"
       inkscape:connector-curvature="0"
       style="fill:#ffffff;fill-rule:nonzero" /><path
       id="8"
       class="fil2"
       d="m 1546,7994 c 38,20 64,37 80,50 16,14 26,30 31,48 6,17 6,36 2,56 -5,20 -16,46 -32,77 -21,39 -39,69 -55,89 -17,21 -34,35 -51,42 -18,7 -39,8 -62,2 -22,-6 -51,-18 -85,-36 -23,-12 -42,-23 -58,-34 -16,-11 -28,-22 -36,-32 -9,-10 -16,-22 -20,-35 -4,-13 -6,-26 -5,-39 1,-12 5,-27 12,-45 7,-18 19,-42 35,-73 19,-37 36,-63 50,-78 15,-16 31,-26 50,-31 12,-3 25,-3 37,-2 13,1 28,5 44,11 16,7 37,16 63,30 z m -42,78 c -16,-8 -28,-12 -39,-12 -10,0 -19,5 -28,15 -9,9 -19,25 -31,48 -10,19 -18,35 -23,48 -5,12 -7,23 -7,32 1,8 4,15 10,22 6,6 15,12 28,19 16,8 29,12 38,11 10,-1 20,-7 30,-20 10,-12 22,-32 37,-61 11,-21 18,-37 20,-48 2,-12 1,-22 -5,-30 -5,-8 -15,-16 -30,-24 z"
       inkscape:connector-curvature="0"
       style="fill:#ffffff;fill-rule:nonzero" /><path
       id="9"
       class="fil2"
       d="m 1832,8428 94,66 c -17,25 -31,43 -41,53 -11,10 -22,18 -35,23 -19,8 -38,8 -57,2 -20,-6 -46,-20 -79,-43 -38,-27 -65,-50 -81,-69 -16,-20 -24,-41 -26,-65 -1,-17 2,-35 10,-54 8,-19 23,-43 44,-73 22,-32 42,-55 60,-72 18,-16 36,-26 54,-30 18,-5 38,-3 58,4 21,8 46,21 74,41 39,28 67,52 82,72 15,20 21,41 18,63 -3,21 -16,48 -38,79 l -93,-65 c 12,-17 17,-30 16,-39 -2,-9 -10,-19 -26,-31 -16,-11 -28,-17 -37,-18 -9,-2 -18,2 -27,11 -9,8 -22,24 -39,47 -18,26 -30,46 -35,58 -6,13 -7,23 -3,31 4,8 13,17 29,28 12,9 22,14 30,16 8,2 15,0 22,-5 7,-5 15,-15 26,-30 z"
       inkscape:connector-curvature="0"
       style="fill:#ffffff;fill-rule:nonzero" /><circle
       class="fil3"
       cy="11000"
       r="3898"
       id="circle5333"
       cx="0"
       style="fill:none" /><path
       class="fil2"
       d="m -2925,12881 90,116 95,-74 179,229 c 16,19 32,33 50,41 18,9 35,13 53,12 18,-1 36,-6 53,-13 17,-8 33,-17 48,-29 l 32,-25 c 20,-16 36,-31 48,-48 12,-16 20,-34 23,-53 4,-19 2,-39 -6,-62 -8,-23 -22,-48 -43,-74 l -246,-314 -376,294 z m 373,-106 132,169 c 14,17 20,32 19,45 -1,12 -8,24 -21,34 l -15,12 c -12,9 -24,14 -36,13 -12,0 -23,-7 -33,-20 l -141,-179 95,-74 z m 5,597 123,108 88,-36 223,196 -21,94 123,107 117,-532 -143,-126 -510,189 z m 508,-43 -47,198 -141,-124 188,-74 z m 111,576 130,66 158,-309 1,1 88,434 202,103 217,-427 -131,-66 -157,310 -1,-1 -89,-434 -202,-103 -216,426 z m 751,190 c -9,33 -12,62 -9,86 3,24 11,45 25,62 14,17 32,31 55,43 23,12 52,22 85,32 l 227,63 c 34,9 64,15 89,16 26,2 50,-1 70,-8 21,-8 39,-21 54,-40 15,-19 27,-45 36,-78 l 38,-138 c 9,-33 13,-62 10,-86 -3,-24 -12,-45 -26,-62 -14,-17 -32,-31 -55,-43 -23,-12 -51,-22 -85,-32 l -227,-63 c -34,-9 -63,-15 -89,-17 -26,-2 -49,1 -70,9 -20,7 -38,21 -53,40 -16,19 -28,45 -37,79 l -38,137 z m 171,-53 c 9,-32 21,-53 37,-65 17,-12 42,-13 77,-3 l 165,46 c 35,10 56,24 64,42 8,19 8,43 -1,75 l -14,49 c -9,35 -22,58 -36,68 -15,10 -38,11 -70,2 l -181,-50 c -32,-9 -52,-22 -59,-38 -7,-16 -6,-42 4,-77 l 14,-49 z m 548,245 c -1,34 3,62 12,85 9,23 23,41 40,54 18,13 39,22 64,28 26,6 56,9 91,9 l 236,5 c 36,1 65,-3 89,-9 23,-7 42,-17 55,-29 13,-13 22,-28 27,-44 5,-17 8,-37 8,-59 l 1,-45 -147,-2 c 0,15 -1,27 -4,35 -4,9 -8,16 -15,20 -6,4 -15,7 -25,8 -10,1 -25,1 -43,1 l -156,-3 c -33,-1 -56,-8 -67,-22 -10,-14 -16,-39 -15,-75 l 1,-52 c 1,-32 7,-56 20,-72 13,-15 37,-22 74,-22 l 159,3 c 23,1 40,5 52,11 11,7 16,19 16,35 l 0,13 146,3 c 1,-37 -1,-67 -7,-89 -5,-22 -15,-40 -31,-54 -16,-14 -39,-24 -70,-30 -30,-7 -71,-11 -123,-12 l -172,-3 c -35,-1 -65,1 -91,6 -25,5 -47,13 -65,25 -18,13 -32,30 -42,53 -10,22 -15,51 -16,85 l -2,143 z m 758,175 524,-90 -20,-113 -379,65 -13,-75 351,-60 -16,-98 -352,60 -13,-75 371,-64 -19,-109 -515,88 81,471 z m 617,-98 153,-60 8,-95 276,-110 74,62 151,-60 -421,-347 -177,70 -64,540 z m 193,-472 155,132 -174,69 19,-201 z m 565,167 119,-85 -201,-283 1,-1 425,123 185,-132 -277,-389 -119,85 201,283 -1,1 -426,-123 -184,132 277,389 z m 644,-484 106,-101 -331,-345 -106,102 331,344 z m 193,-170 102,-128 -39,-86 185,-232 94,17 102,-127 -537,-93 -119,149 212,500 z m -66,-505 199,38 -117,146 -82,-184 z"
       id="path5335"
       inkscape:connector-curvature="0"
       style="fill:#ffffff;fill-rule:nonzero" /><circle
       class="fil3"
       cy="11000"
       r="3898"
       id="circle5337"
       cx="0"
       style="fill:none" /><polygon
       class="fil0"
       points="2165,11394 2165,10449 -827,10449 -827,13165 118,13165 118,11394 "
       id="polygon5339"
       style="fill:#00c0ff" /><polygon
       class="fil4"
       points="-1004,9996 -1004,9209 -59,9209 -59,10941 -1909,10941 -1909,9996 "
       id="polygon5341"
       style="fill:#e2001a" /><polygon
       class="fil4"
       points="-1004,12004 -1004,12791 -59,12791 -59,11059 -1909,11059 -1909,12004 "
       id="polygon5343"
       style="fill:#e2001a" /><polygon
       class="fil4"
       points="1004,9996 1004,9209 59,9209 59,10941 1909,10941 1909,9996 "
       id="polygon5345"
       style="fill:#e2001a" /></g></svg>