<?xml version="1.0" encoding="UTF-8" standalone="no"?>
<!-- Creator: CorelDRAW X7 -->

<svg
   xmlns:dc="http://purl.org/dc/elements/1.1/"
   xmlns:cc="http://creativecommons.org/ns#"
   xmlns:rdf="http://www.w3.org/1999/02/22-rdf-syntax-ns#"
   xmlns:svg="http://www.w3.org/2000/svg"
   xmlns="http://www.w3.org/2000/svg"
   xmlns:sodipodi="http://sodipodi.sourceforge.net/DTD/sodipodi-0.dtd"
   xmlns:inkscape="http://www.inkscape.org/namespaces/inkscape"
   xml:space="preserve"
   width="7.8740005in"
   height="7.8740005in"
   version="1.1"
   style="clip-rule:evenodd;fill-rule:evenodd;image-rendering:optimizeQuality;shape-rendering:geometricPrecision;text-rendering:geometricPrecision"
   viewBox="0 0 7874.0005 7874.0005"
   id="svg4974"
   inkscape:version="0.91 r13725"
   sodipodi:docname="PanOceania - Remote 3 Clipper Dronbots - [N3] [Vyo].svg"><metadata
     id="metadata5030"><rdf:RDF><cc:Work
         rdf:about=""><dc:format>image/svg+xml</dc:format><dc:type
           rdf:resource="http://purl.org/dc/dcmitype/StillImage" /></cc:Work></rdf:RDF></metadata><sodipodi:namedview
     pagecolor="#ffffff"
     bordercolor="#666666"
     borderopacity="1"
     objecttolerance="10"
     gridtolerance="10"
     guidetolerance="10"
     inkscape:pageopacity="0"
     inkscape:pageshadow="2"
     inkscape:window-width="640"
     inkscape:window-height="480"
     id="namedview5028"
     showgrid="false"
     inkscape:zoom="0.23838384"
     inkscape:cx="736.83001"
     inkscape:cy="849.33005"
     inkscape:window-x="0"
     inkscape:window-y="0"
     inkscape:window-maximized="0"
     inkscape:current-layer="svg4974" /><defs
     id="defs4976"><style
       type="text/css"
       id="style4978"><![CDATA[
    .fil4 {fill:none}
    .fil0 {fill:#00C0FF}
    .fil1 {fill:white}
    .fil2 {fill:white}
    .fil3 {fill:#00C0FF;fill-rule:nonzero}
   ]]></style></defs><g
     id="Layer_x0020_1"
     transform="translate(3937,-7063)"><metadata
       id="CorelCorpID_0Corel-Layer" /><circle
       class="fil0"
       cy="11000"
       r="3937"
       id="circle4982"
       cx="0"
       style="fill:#00c0ff" /><circle
       class="fil1"
       cy="11000"
       r="3780"
       id="circle4984"
       cx="0"
       style="fill:#ffffff" /><circle
       class="fil0"
       cy="11000"
       r="2795"
       id="circle4986"
       cx="0"
       style="fill:#00c0ff" /><polygon
       class="fil2"
       points="-2047,11000 0,8441 2047,11000 0,13559 "
       id="polygon4988"
       style="fill:#ffffff" /><polygon
       class="fil0"
       points="0,8567 -1946,11000 1946,11000 "
       id="polygon4990"
       style="fill:#00c0ff" /><rect
       class="fil0"
       x="-177"
       y="11000"
       width="354"
       height="748"
       id="rect4992"
       style="fill:#00c0ff" /><rect
       class="fil1"
       x="-177"
       y="10252"
       width="354"
       height="748"
       id="rect4994"
       style="fill:#ffffff" /><path
       class="fil3"
       d="m -2333,8818 85,-96 11,9 c 23,20 39,37 51,52 11,14 18,28 21,42 3,13 3,29 0,48 -3,14 -6,26 -11,36 -5,10 -13,22 -24,36 -10,14 -27,33 -50,59 -18,20 -32,36 -43,47 -11,10 -21,19 -29,25 -9,6 -19,11 -29,15 -25,10 -50,12 -75,6 -24,-5 -50,-19 -78,-41 -12,-8 -33,-26 -66,-54 l -21,-17 -19,-17 c -29,-25 -49,-48 -62,-68 -12,-21 -19,-42 -20,-65 -1,-26 4,-51 16,-74 12,-23 37,-55 74,-98 28,-31 48,-52 62,-63 14,-11 30,-19 46,-24 12,-4 24,-5 36,-3 13,1 25,5 38,11 13,6 26,15 40,26 8,6 14,11 18,15 5,3 10,8 17,14 l -84,96 c -2,-2 -4,-3 -5,-4 -1,-1 -2,-1 -3,-2 -12,-10 -23,-17 -31,-19 -9,-2 -17,1 -27,7 -10,7 -22,19 -37,35 -15,18 -25,32 -28,44 -3,12 -1,23 6,35 5,8 14,18 27,31 13,13 37,35 73,67 20,17 35,28 48,33 13,5 25,5 36,0 11,-5 24,-16 40,-34 14,-16 24,-30 29,-41 6,-11 7,-21 3,-30 -3,-9 -11,-19 -23,-30 -4,-4 -8,-7 -12,-9 z"
       id="path4996"
       inkscape:connector-curvature="0"
       style="fill:#00c0ff;fill-rule:nonzero" /><polygon
       id="1"
       class="fil3"
       points="-2400,8463 -2320,8387 -1989,8737 -2069,8813 "
       style="fill:#00c0ff;fill-rule:nonzero" /><path
       id="2"
       class="fil3"
       d="m -2144,8242 50,64 -87,67 -50,-63 87,-68 z m 89,114 207,265 -86,68 -208,-266 87,-67 z"
       inkscape:connector-curvature="0"
       style="fill:#00c0ff;fill-rule:nonzero" /><path
       id="3"
       class="fil3"
       d="m -1977,8292 92,-60 27,50 2,-2 c -1,-18 -1,-33 1,-45 3,-12 8,-23 17,-32 8,-9 21,-20 40,-32 17,-11 33,-19 48,-24 15,-4 29,-6 42,-4 19,3 35,11 50,24 15,14 35,39 58,75 26,39 42,71 49,96 7,25 6,47 -4,66 -9,19 -28,37 -56,56 -17,10 -32,18 -44,22 -13,4 -25,4 -37,1 -11,-3 -23,-10 -35,-20 l -2,1 111,169 -95,62 -264,-403 z m 189,-30 c -15,10 -24,18 -29,27 -4,8 -5,18 -2,29 4,11 12,27 25,46 15,24 28,40 38,49 9,9 19,14 29,13 10,-1 22,-6 37,-16 13,-8 22,-17 26,-25 5,-8 5,-18 1,-30 -4,-12 -13,-28 -26,-48 -15,-22 -27,-38 -36,-47 -9,-9 -19,-13 -28,-12 -10,0 -22,5 -35,14 z"
       inkscape:connector-curvature="0"
       style="fill:#00c0ff;fill-rule:nonzero" /><path
       id="4"
       class="fil3"
       d="m -1610,8065 97,-52 23,52 2,-1 c -1,-18 1,-33 5,-45 3,-12 10,-23 19,-31 9,-8 23,-18 42,-28 19,-10 35,-16 50,-19 16,-4 29,-4 42,0 19,4 35,14 48,29 14,14 31,41 51,79 22,41 35,74 40,100 5,25 2,47 -9,65 -12,18 -32,35 -61,51 -18,9 -33,15 -46,18 -14,3 -26,2 -37,-2 -11,-5 -22,-12 -33,-24 l -1,1 95,179 -101,53 -226,-425 z m 190,-13 c -15,8 -25,16 -30,24 -6,7 -7,17 -5,28 3,12 10,28 21,49 13,24 24,42 33,52 8,10 18,15 28,15 9,1 22,-3 38,-12 14,-7 23,-15 28,-23 5,-7 6,-17 3,-29 -3,-13 -10,-29 -22,-51 -12,-23 -22,-40 -31,-49 -8,-10 -17,-15 -27,-15 -9,0 -21,3 -36,11 z"
       inkscape:connector-curvature="0"
       style="fill:#00c0ff;fill-rule:nonzero" /><path
       id="5"
       class="fil3"
       d="m -932,8016 102,-31 2,6 c 9,30 10,55 2,76 -7,16 -19,30 -36,41 -16,11 -43,22 -78,33 -21,6 -39,11 -55,14 -15,3 -29,4 -42,4 -13,-1 -24,-2 -33,-6 -9,-3 -18,-8 -27,-14 -6,-5 -11,-10 -17,-17 -5,-7 -10,-15 -15,-24 -5,-9 -10,-21 -14,-34 -5,-13 -11,-29 -16,-47 -10,-31 -15,-57 -16,-79 -1,-21 2,-39 10,-54 8,-15 21,-28 38,-39 18,-11 42,-21 73,-31 42,-12 75,-18 100,-16 25,2 46,13 61,31 16,19 30,49 43,90 l 9,30 -206,64 c 1,3 2,8 4,12 5,17 10,28 16,36 6,7 13,11 22,13 9,1 21,-1 35,-5 12,-4 22,-8 28,-12 7,-5 11,-10 12,-16 1,-7 1,-15 -2,-25 z m -132,-62 105,-32 c -2,-3 -3,-6 -4,-10 -5,-17 -12,-27 -20,-29 -8,-3 -23,-1 -46,6 -14,4 -24,8 -30,13 -6,4 -10,9 -10,15 -1,7 0,16 3,28 0,1 1,3 1,4 0,2 1,3 1,5 z"
       inkscape:connector-curvature="0"
       style="fill:#00c0ff;fill-rule:nonzero" /><path
       id="6"
       class="fil3"
       d="m -816,7749 108,-24 7,54 2,-1 c 5,-23 12,-40 23,-51 10,-11 25,-19 46,-24 17,-4 31,-5 43,-4 11,2 21,7 30,14 8,8 16,19 22,34 7,15 13,34 18,58 2,10 4,18 7,26 l -98,22 c 0,-3 0,-5 -1,-9 -3,-15 -7,-26 -10,-34 -4,-9 -8,-14 -13,-16 -5,-2 -11,-2 -20,0 -12,3 -20,9 -25,19 -5,11 -5,23 -2,39 l 3,11 43,190 -107,25 -76,-329 z"
       inkscape:connector-curvature="0"
       style="fill:#00c0ff;fill-rule:nonzero" /><path
       id="7"
       class="fil3"
       d="m -243,7991 -1,-482 252,0 c 42,0 77,6 105,19 28,13 49,33 62,59 14,27 20,61 20,101 1,0 1,13 0,39 l 0,51 c 0,36 -2,64 -5,84 -3,20 -7,37 -14,51 -6,13 -16,26 -28,37 -15,15 -34,25 -57,31 -22,7 -52,10 -89,10 l -245,0 z m 129,-111 105,0 c 11,0 21,-1 28,-3 7,-1 13,-4 18,-8 5,-4 9,-10 14,-17 6,-10 9,-26 10,-46 0,-1 1,-10 2,-27 0,-11 0,-22 0,-33 0,-38 -1,-65 -5,-82 -4,-17 -10,-28 -20,-34 -10,-6 -26,-9 -48,-9 l -104,0 0,259 z"
       inkscape:connector-curvature="0"
       style="fill:#00c0ff;fill-rule:nonzero" /><path
       id="8"
       class="fil3"
       d="m 303,7660 109,15 -13,53 2,1 c 13,-20 26,-34 39,-40 14,-7 31,-9 53,-6 17,3 31,7 41,13 10,5 17,13 23,23 5,10 8,24 8,40 1,16 0,36 -4,60 -1,10 -2,19 -3,26 l -99,-14 c 1,-2 2,-5 2,-8 3,-16 3,-28 3,-36 0,-9 -2,-16 -6,-19 -4,-4 -10,-6 -19,-8 -12,-1 -22,2 -30,9 -8,8 -14,20 -16,36 l -1,11 -28,193 -109,-16 48,-333 z"
       inkscape:connector-curvature="0"
       style="fill:#00c0ff;fill-rule:nonzero" /><path
       id="9"
       class="fil3"
       d="m 807,7741 c 39,9 67,18 84,26 18,8 31,20 40,34 9,15 14,32 15,51 0,19 -3,44 -10,76 -9,40 -18,72 -27,94 -10,23 -22,40 -36,50 -14,11 -32,17 -54,17 -22,0 -50,-3 -85,-11 -24,-5 -44,-11 -61,-17 -16,-6 -30,-12 -40,-19 -10,-8 -19,-16 -26,-27 -7,-11 -12,-22 -14,-34 -2,-11 -2,-26 0,-43 2,-18 6,-43 13,-74 8,-37 17,-65 26,-82 9,-18 22,-31 37,-40 10,-6 21,-9 33,-11 12,-2 26,-3 42,-1 16,2 37,6 63,11 z m -18,80 c -16,-3 -28,-4 -37,-1 -10,3 -17,9 -22,20 -6,11 -11,28 -16,52 -5,19 -8,35 -9,48 -1,12 -1,23 2,30 2,8 7,14 13,18 7,4 17,7 30,10 16,4 29,4 37,1 9,-3 16,-12 22,-25 6,-14 12,-36 18,-65 5,-21 7,-37 6,-48 0,-11 -4,-20 -11,-26 -7,-6 -18,-10 -33,-14 z"
       inkscape:connector-curvature="0"
       style="fill:#00c0ff;fill-rule:nonzero" /><path
       id="10"
       class="fil3"
       d="m 1067,7821 103,39 -27,60 2,1 c 17,-22 34,-35 51,-40 17,-4 38,-2 64,8 26,9 45,20 59,33 14,13 22,28 25,45 2,17 -1,37 -9,59 l -83,223 -103,-38 67,-180 5,-12 c 6,-17 7,-30 4,-39 -4,-10 -13,-17 -27,-22 -38,-14 -63,-3 -76,32 l -69,185 -104,-38 118,-316 z"
       inkscape:connector-curvature="0"
       style="fill:#00c0ff;fill-rule:nonzero" /><path
       id="11"
       class="fil3"
       d="m 1315,8282 235,-419 97,54 -97,172 2,1 c 13,-10 25,-16 36,-19 11,-3 23,-3 36,0 13,3 28,10 44,19 38,21 61,45 67,71 4,18 4,35 -1,52 -6,17 -19,44 -40,82 -21,37 -36,62 -47,75 -10,13 -22,23 -37,31 -30,17 -68,13 -115,-13 -13,-8 -24,-15 -32,-23 -8,-7 -14,-15 -18,-23 -4,-8 -7,-17 -7,-27 -1,-11 0,-22 2,-35 l -2,-1 -27,58 -96,-55 z m 273,-140 c -20,-11 -36,-14 -48,-9 -12,6 -25,21 -40,47 -15,26 -24,46 -29,59 -4,12 -4,23 0,31 4,7 13,15 27,23 16,9 29,14 38,14 9,1 18,-3 26,-12 8,-9 19,-26 32,-50 13,-24 22,-41 25,-52 3,-11 2,-20 -3,-28 -4,-7 -14,-15 -28,-23 z"
       inkscape:connector-curvature="0"
       style="fill:#00c0ff;fill-rule:nonzero" /><path
       id="12"
       class="fil3"
       d="m 1978,8292 c 33,23 56,41 69,56 12,14 20,30 23,47 3,17 1,34 -5,52 -7,18 -20,40 -38,67 -24,34 -44,59 -62,77 -17,17 -35,28 -52,32 -17,5 -36,3 -56,-5 -21,-8 -46,-23 -75,-43 -20,-14 -36,-27 -50,-39 -13,-11 -23,-23 -30,-33 -7,-11 -11,-23 -14,-35 -2,-13 -2,-25 0,-36 2,-12 8,-25 17,-41 8,-16 22,-37 40,-63 22,-31 41,-53 56,-66 15,-13 31,-20 49,-22 12,-2 23,-1 35,1 11,3 24,8 39,16 14,8 32,19 54,35 z m -47,67 c -14,-9 -25,-15 -34,-16 -10,-1 -19,3 -28,10 -10,8 -21,22 -35,42 -11,16 -20,30 -26,41 -6,11 -9,21 -10,29 -1,8 1,15 6,21 5,6 13,14 24,21 13,10 25,15 34,15 9,1 19,-4 30,-15 10,-10 24,-27 41,-52 13,-18 21,-32 24,-43 4,-10 3,-19 -1,-28 -4,-7 -13,-16 -25,-25 z"
       inkscape:connector-curvature="0"
       style="fill:#00c0ff;fill-rule:nonzero" /><path
       id="13"
       class="fil3"
       d="m 2379,8641 -55,57 -92,-88 -94,99 c -12,13 -20,23 -21,29 -2,7 0,13 7,20 9,9 18,12 26,9 7,-2 19,-11 34,-28 l 5,-5 64,61 c -2,3 -4,4 -6,6 -1,1 -2,2 -4,4 -22,22 -38,37 -47,44 -10,7 -20,11 -33,12 -9,2 -19,1 -30,-2 -10,-3 -21,-9 -34,-18 -12,-9 -26,-20 -41,-35 -22,-21 -37,-39 -44,-56 -8,-16 -9,-32 -5,-50 2,-8 5,-16 10,-23 5,-8 13,-17 24,-28 l 109,-115 -29,-28 54,-58 30,29 49,-52 80,76 -49,52 92,88 z"
       inkscape:connector-curvature="0"
       style="fill:#00c0ff;fill-rule:nonzero" /><path
       id="14"
       class="fil3"
       d="m 2566,8994 -68,-78 c 1,-2 2,-4 3,-4 4,-7 6,-12 7,-16 0,-4 -1,-10 -5,-16 -4,-6 -11,-15 -21,-26 -13,-14 -22,-22 -29,-25 -8,-2 -15,0 -24,7 -11,10 -13,20 -7,32 2,3 7,9 13,18 l 9,12 10,12 9,11 c 13,17 24,31 31,42 8,12 14,21 17,29 3,8 5,16 6,25 1,12 -1,24 -7,36 -6,12 -16,24 -29,35 -17,15 -33,25 -48,30 -15,5 -31,6 -46,2 -16,-4 -32,-13 -50,-27 -18,-13 -37,-32 -58,-56 -21,-24 -37,-45 -47,-62 -11,-18 -17,-33 -18,-47 -2,-14 1,-27 9,-41 7,-13 19,-26 35,-41 l 74,85 -5,4 c -10,9 -14,17 -13,25 2,8 11,20 26,38 14,16 25,26 33,29 9,3 17,1 26,-7 7,-6 11,-11 13,-16 2,-5 1,-11 -2,-17 -3,-6 -9,-15 -17,-26 -23,-26 -39,-46 -48,-58 -9,-13 -17,-25 -21,-37 -9,-19 -10,-37 -5,-54 6,-16 18,-34 39,-51 15,-14 30,-23 43,-28 14,-5 27,-5 41,-1 13,4 28,13 44,26 16,13 35,32 57,57 26,30 44,55 53,75 10,20 12,38 7,53 -5,16 -17,33 -37,51 z"
       inkscape:connector-curvature="0"
       style="fill:#00c0ff;fill-rule:nonzero" /><circle
       class="fil4"
       cy="11000"
       r="3898"
       id="circle5012"
       cx="0"
       style="fill:none" /><path
       class="fil3"
       d="m -2934,12934 90,115 95,-74 179,229 c 16,20 32,33 50,42 18,8 36,12 53,11 18,-1 36,-5 53,-13 17,-7 33,-17 48,-28 l 32,-26 c 20,-15 36,-31 48,-47 12,-16 20,-34 24,-53 3,-19 1,-40 -7,-63 -8,-22 -22,-47 -43,-74 l -246,-314 -376,295 z m 373,-106 133,169 c 13,17 19,32 18,44 -1,13 -8,24 -21,35 l -15,11 c -12,9 -24,14 -36,14 -12,-1 -23,-7 -33,-20 l -141,-179 95,-74 z m 9,592 123,108 88,-35 224,196 -22,93 123,108 117,-533 -143,-126 -510,189 z m 508,-43 -47,198 -141,-123 188,-75 z m 114,572 131,66 157,-310 2,1 88,434 202,103 216,-426 -130,-66 -157,309 -2,0 -88,-434 -202,-103 -217,426 z m 753,187 c -9,33 -12,61 -9,86 3,24 11,45 25,62 14,16 32,31 55,43 23,12 51,22 85,32 l 227,63 c 34,9 63,15 89,16 26,2 49,-1 70,-8 21,-8 39,-21 54,-40 15,-19 27,-45 36,-78 l 38,-138 c 9,-33 13,-62 10,-86 -3,-24 -12,-45 -26,-62 -14,-17 -32,-31 -55,-43 -23,-12 -51,-22 -85,-32 l -227,-63 c -34,-9 -63,-15 -89,-17 -26,-2 -49,1 -70,9 -20,7 -38,20 -53,40 -15,19 -28,45 -37,78 l -38,138 z m 171,-54 c 9,-31 21,-52 37,-64 17,-12 42,-13 77,-3 l 165,46 c 35,10 56,24 64,42 8,18 8,43 -1,75 l -14,49 c -10,35 -22,58 -36,68 -15,10 -38,11 -70,2 l -181,-50 c -32,-9 -52,-22 -59,-38 -7,-17 -6,-42 4,-77 l 14,-50 z m 548,244 c -1,34 3,63 12,85 9,23 23,41 40,54 18,13 39,22 64,28 26,6 56,9 91,10 l 236,4 c 36,1 65,-2 89,-9 23,-7 42,-16 55,-29 13,-12 22,-27 27,-44 5,-17 8,-36 8,-58 l 1,-45 -146,-3 c -1,15 -2,27 -5,36 -3,9 -8,15 -15,19 -6,5 -14,7 -25,8 -10,2 -24,2 -42,2 l -157,-3 c -33,-1 -55,-9 -66,-23 -11,-14 -16,-39 -16,-75 l 1,-51 c 1,-33 8,-57 20,-72 13,-16 38,-23 74,-22 l 160,3 c 22,0 40,4 51,11 11,7 17,18 16,35 l 0,13 147,3 c 0,-37 -2,-67 -7,-89 -6,-22 -16,-40 -32,-54 -16,-14 -39,-24 -69,-31 -31,-6 -72,-10 -123,-11 l -172,-4 c -36,0 -66,2 -91,6 -26,5 -47,13 -65,26 -19,12 -33,30 -42,52 -10,23 -16,51 -16,85 l -3,143 z m 758,177 524,-91 -20,-113 -379,66 -13,-76 351,-61 -16,-97 -352,61 -13,-76 371,-64 -19,-109 -515,89 81,471 z m 618,-97 152,-60 9,-95 276,-110 73,62 152,-60 -421,-347 -177,70 -64,540 z m 193,-472 155,132 -174,69 19,-201 z m 558,158 123,-80 -188,-291 1,-1 419,142 191,-123 -259,-401 -123,79 188,292 -1,1 -419,-143 -191,123 259,402 z m 656,-467 105,-102 -331,-344 -105,101 331,345 z m 196,-167 102,-128 -39,-87 185,-232 94,17 102,-128 -538,-92 -119,150 213,500 z m -67,-506 200,38 -117,146 -83,-184 z"
       id="path5014"
       inkscape:connector-curvature="0"
       style="fill:#00c0ff;fill-rule:nonzero" /><circle
       class="fil4"
       cy="11000"
       r="3898"
       id="circle5016"
       cx="0"
       style="fill:none" /><g
       id="_915807104"><rect
         class="fil0"
         x="453"
         y="11000"
         width="354"
         height="748"
         id="rect5019"
         style="fill:#00c0ff" /><rect
         class="fil1"
         x="453"
         y="10252"
         width="354"
         height="748"
         id="rect5021"
         style="fill:#ffffff" /></g><g
       id="_915814432"><rect
         class="fil0"
         x="-807"
         y="11000"
         width="354"
         height="748"
         id="rect5024"
         style="fill:#00c0ff" /><rect
         class="fil1"
         x="-807"
         y="10252"
         width="354"
         height="748"
         id="rect5026"
         style="fill:#ffffff" /></g></g></svg>