<?xml version="1.0" encoding="UTF-8" standalone="no"?>
<!-- Creator: CorelDRAW X7 -->

<svg
   xmlns:dc="http://purl.org/dc/elements/1.1/"
   xmlns:cc="http://creativecommons.org/ns#"
   xmlns:rdf="http://www.w3.org/1999/02/22-rdf-syntax-ns#"
   xmlns:svg="http://www.w3.org/2000/svg"
   xmlns="http://www.w3.org/2000/svg"
   xmlns:sodipodi="http://sodipodi.sourceforge.net/DTD/sodipodi-0.dtd"
   xmlns:inkscape="http://www.inkscape.org/namespaces/inkscape"
   xml:space="preserve"
   width="7.8740005in"
   height="7.8740005in"
   version="1.1"
   style="clip-rule:evenodd;fill-rule:evenodd;image-rendering:optimizeQuality;shape-rendering:geometricPrecision;text-rendering:geometricPrecision"
   viewBox="0 0 7874.0005 7874.0005"
   id="svg3921"
   inkscape:version="0.91 r13725"
   sodipodi:docname="PanOceania - Father-Officer Gabriele De Fersen - [N3] [Vyo].svg"><metadata
     id="metadata3975"><rdf:RDF><cc:Work
         rdf:about=""><dc:format>image/svg+xml</dc:format><dc:type
           rdf:resource="http://purl.org/dc/dcmitype/StillImage" /></cc:Work></rdf:RDF></metadata><sodipodi:namedview
     pagecolor="#ffffff"
     bordercolor="#666666"
     borderopacity="1"
     objecttolerance="10"
     gridtolerance="10"
     guidetolerance="10"
     inkscape:pageopacity="0"
     inkscape:pageshadow="2"
     inkscape:window-width="640"
     inkscape:window-height="480"
     id="namedview3973"
     showgrid="false"
     inkscape:zoom="0.23838384"
     inkscape:cx="736.83001"
     inkscape:cy="849.33005"
     inkscape:window-x="0"
     inkscape:window-y="0"
     inkscape:window-maximized="0"
     inkscape:current-layer="svg3921" /><defs
     id="defs3923"><style
       type="text/css"
       id="style3925"><![CDATA[
    .fil4 {fill:none}
    .fil0 {fill:black}
    .fil1 {fill:#E2001A}
    .fil2 {fill:white}
    .fil3 {fill:#E2001A;fill-rule:nonzero}
    .fil5 {fill:white;fill-rule:nonzero}
   ]]></style></defs><g
     id="Layer_x0020_1"
     transform="translate(3937,-7063)"><metadata
       id="CorelCorpID_0Corel-Layer" /><circle
       class="fil0"
       cy="11000"
       r="3937"
       id="circle3929"
       cx="0"
       style="fill:#000000" /><circle
       class="fil1"
       cy="11000"
       r="3150"
       id="circle3931"
       cx="0"
       style="fill:#e2001a" /><polygon
       class="fil2"
       points="-315,9543 -1496,8953 1496,8953 315,9543 315,10685 1457,10685 2047,9504 2047,12496 1457,11315 315,11315 315,12457 1496,13047 -1496,13047 -315,12457 -315,11315 -1457,11315 -2047,12496 -2047,9504 -1457,10685 -315,10685 "
       id="polygon3933"
       style="fill:#ffffff" /><path
       class="fil3"
       d="m -1260,10823 1083,0 0,-1083 0,-20 20,0 314,0 20,0 0,20 0,1083 1083,0 20,0 0,20 0,314 0,20 -20,0 -1083,0 0,1083 0,20 -20,0 -314,0 -20,0 0,-20 0,-1083 -1083,0 -20,0 0,-20 0,-314 0,-20 20,0 z m 1103,39 -1083,0 0,276 1083,0 19,0 0,19 0,1083 276,0 0,-1083 0,-19 19,0 1083,0 0,-276 -1083,0 -19,0 0,-19 0,-1083 -276,0 0,1083 0,19 -19,0 z"
       id="path3935"
       inkscape:connector-curvature="0"
       style="fill:#e2001a;fill-rule:nonzero" /><circle
       class="fil4"
       cy="11000"
       r="3898"
       id="circle3937"
       cx="0"
       style="fill:none" /><path
       class="fil5"
       d="m -2832,13363 90,93 78,-74 126,132 c 37,39 43,47 42,60 -1,15 -10,28 -45,61 l -16,15 88,93 29,-28 c 73,-66 79,-88 39,-140 21,16 33,22 49,24 28,3 50,-10 94,-52 53,-51 67,-78 59,-115 -7,-31 -7,-31 -108,-137 l -217,-227 -308,295 z m 245,-55 75,-73 127,132 c 41,44 42,45 45,55 4,13 -1,26 -21,45 -20,19 -32,25 -45,21 -10,-3 -10,-3 -55,-48 l -126,-132 z m 466,582 c -20,19 -35,14 -91,-30 -32,-25 -49,-43 -52,-57 -4,-14 0,-24 19,-48 l 232,182 c 9,-9 17,-20 20,-23 43,-56 56,-90 46,-125 -9,-33 -33,-60 -111,-121 -77,-60 -111,-79 -147,-81 -38,-2 -65,16 -114,80 -48,60 -60,90 -50,125 9,33 37,65 105,119 128,100 173,110 231,49 l -88,-70 z m -86,-184 c 27,-32 47,-28 107,18 35,28 51,46 52,61 1,10 -1,15 -15,34 l -144,-113 z m 754,212 -98,-56 -82,142 -4,-2 c 0,-44 -17,-66 -87,-106 -66,-39 -97,-51 -129,-49 -39,2 -67,28 -106,94 -37,65 -46,96 -36,128 11,33 41,61 111,101 71,41 103,47 140,27 l 5,3 -20,34 92,53 214,-369 z m -281,70 c 70,40 77,58 46,112 -18,31 -31,42 -47,43 -16,1 -44,-11 -79,-31 -73,-42 -80,-58 -46,-115 30,-52 49,-54 126,-9 z m 269,57 -125,275 103,47 125,-275 -103,-47 z m 51,-113 -35,77 103,47 35,-77 -103,-47 z m 99,188 -98,286 107,37 40,-118 c 16,-47 26,-63 43,-72 15,-7 39,-6 71,5 30,11 48,23 54,36 6,15 5,23 -11,68 l -46,133 107,37 41,-118 c 16,-46 25,-62 42,-71 16,-8 38,-7 70,4 31,11 47,22 55,36 6,14 6,20 -10,68 l -46,134 106,36 47,-133 c 25,-74 28,-99 12,-133 -16,-35 -48,-58 -107,-78 -70,-24 -110,-19 -143,17 -9,-50 -41,-81 -110,-104 -62,-22 -105,-19 -132,10 l -6,-2 15,-43 -101,-35 z m 855,218 c -102,-13 -147,-12 -177,5 -32,18 -46,46 -55,115 -11,87 -8,116 17,142 26,28 63,39 174,53 110,15 149,13 181,-6 30,-19 42,-47 52,-129 10,-75 5,-104 -22,-130 -26,-24 -69,-36 -170,-50 z m -11,85 c 33,4 60,11 73,19 18,11 23,27 17,66 -8,63 -24,72 -109,61 -36,-5 -62,-11 -75,-20 -18,-11 -21,-25 -16,-64 8,-64 25,-73 110,-62 z m 845,74 c 4,64 2,64 -139,75 -137,10 -139,9 -148,-100 -4,-63 -1,-89 13,-102 13,-12 36,-17 116,-23 30,-2 68,-4 88,-4 29,0 39,2 45,9 5,7 7,12 10,37 l 129,-10 -1,-21 c -6,-70 -22,-100 -62,-116 -30,-11 -71,-12 -180,-4 -218,17 -265,31 -286,87 -8,24 -8,60 -1,158 4,49 8,85 11,104 8,48 24,71 57,85 36,15 90,16 252,4 97,-8 144,-16 178,-30 42,-19 57,-52 52,-118 0,-7 -2,-16 -4,-40 l -130,9 z m 282,-84 c -3,-27 4,-32 83,-50 67,-15 77,-11 88,35 l 3,15 -5,2 c -22,-15 -37,-16 -89,-4 -79,18 -109,27 -134,41 -40,21 -53,55 -41,108 16,69 52,84 149,61 73,-16 101,-25 117,-38 18,-13 27,-25 31,-46 l 4,-1 10,40 106,-24 -41,-178 c -13,-53 -24,-74 -47,-90 -31,-19 -55,-18 -151,4 -92,21 -141,39 -163,58 -29,25 -37,49 -31,92 l 111,-25 z m 91,61 c 47,-11 66,-15 73,-13 13,2 21,9 24,20 6,26 -15,39 -92,57 -59,13 -78,10 -83,-13 -3,-11 1,-21 11,-28 7,-7 31,-15 67,-23 z m 348,174 107,-36 -52,-156 5,-2 c 33,27 64,28 136,4 142,-48 163,-82 121,-206 -24,-72 -40,-98 -70,-111 -32,-15 -73,-11 -147,14 -82,27 -109,48 -116,90 l -5,2 -13,-39 -101,34 135,406 z m 95,-402 c 77,-25 95,-20 113,35 13,39 14,56 3,69 -9,11 -33,24 -73,37 -79,27 -99,21 -117,-34 -21,-64 -12,-78 74,-107 z m 199,-239 32,62 -53,27 37,72 53,-27 41,78 c 18,35 18,35 22,42 17,28 30,40 51,47 30,9 59,1 123,-32 69,-36 95,-61 103,-97 5,-28 0,-46 -25,-98 l -92,48 5,11 c 17,31 13,43 -20,60 -19,10 -32,11 -42,4 -8,-5 -10,-9 -25,-37 l -40,-78 158,-83 -37,-72 -159,83 -32,-62 -100,52 z m 332,-97 163,254 96,-62 -164,-254 -95,62 z m -67,-105 46,72 95,-61 -46,-72 -95,61 z m 188,42 303,147 116,-90 -69,-330 -101,79 58,227 -206,-112 -101,79 z m 374,-297 197,229 86,-74 -198,-229 -85,74 z m -81,-94 55,65 86,-74 -56,-65 -85,74 z m 348,133 c 26,23 47,32 72,30 36,-2 67,-25 143,-104 60,-64 94,-108 103,-136 12,-33 1,-63 -32,-94 -48,-46 -90,-40 -151,23 -81,84 -94,97 -108,110 -13,12 -24,14 -33,6 -14,-13 -3,-33 46,-84 26,-28 44,-43 55,-46 4,-1 7,0 16,5 l 79,-84 c -28,-23 -44,-30 -64,-27 -33,3 -64,26 -135,101 -57,60 -89,101 -99,126 -13,34 -4,64 29,96 47,44 91,37 151,-24 76,-80 96,-101 108,-111 13,-11 25,-12 34,-4 16,15 5,35 -45,88 -49,52 -69,62 -89,45 l -80,84 z"
       id="path3939"
       inkscape:connector-curvature="0"
       style="fill:#ffffff;fill-rule:nonzero" /><circle
       class="fil4"
       cy="11000"
       r="3898"
       id="circle3941"
       cx="0"
       style="fill:none" /><path
       class="fil5"
       d="m -3299,12760 c 71,136 92,166 124,181 32,14 70,4 161,-43 96,-51 125,-75 131,-111 6,-35 -7,-69 -79,-205 -70,-135 -91,-165 -123,-180 -33,-15 -69,-5 -164,44 -93,49 -123,74 -129,109 -5,35 7,69 79,205 z m 85,-45 c -48,-92 -53,-104 -44,-122 7,-14 24,-27 71,-52 40,-21 56,-25 71,-18 16,7 28,24 69,103 43,81 50,100 47,118 -3,17 -15,27 -56,48 -43,23 -62,30 -78,30 -23,-1 -29,-10 -80,-107 z"
       id="path3943"
       inkscape:connector-curvature="0"
       style="fill:#ffffff;fill-rule:nonzero" /><path
       id="1"
       class="fil5"
       d="m -3112,12315 -34,-108 -90,29 -48,-152 c -14,-44 -16,-53 -9,-63 6,-11 18,-17 58,-30 l 18,-6 -33,-106 -33,11 c -83,24 -95,38 -84,95 -11,-22 -18,-30 -30,-38 -20,-13 -42,-12 -93,4 -61,20 -82,35 -90,67 -6,28 -6,28 32,149 l 83,260 353,-112 z m -212,-51 -87,28 -48,-152 c -15,-50 -16,-51 -14,-60 1,-11 10,-19 33,-26 23,-8 34,-8 43,0 7,6 7,6 25,59 l 48,151 z"
       inkscape:connector-curvature="0"
       style="fill:#ffffff;fill-rule:nonzero" /><path
       id="2"
       class="fil5"
       d="m -3271,11833 -43,-264 c -20,-123 -31,-155 -60,-179 -29,-23 -68,-25 -163,-9 -60,9 -83,15 -107,28 -32,16 -49,44 -51,81 -1,33 0,45 16,138 l 43,264 365,-59 z m -111,-95 -181,30 -25,-155 c -11,-67 -11,-83 0,-96 10,-13 30,-20 75,-28 83,-13 89,-7 106,94 l 25,155 z"
       inkscape:connector-curvature="0"
       style="fill:#ffffff;fill-rule:nonzero" /><path
       id="3"
       class="fil5"
       d="m -3739,11058 c 3,154 8,189 29,217 22,28 61,36 164,35 108,-2 145,-11 167,-40 20,-28 24,-64 22,-219 -2,-152 -7,-188 -29,-216 -23,-28 -59,-36 -166,-34 -106,1 -143,10 -164,39 -21,29 -25,64 -23,218 z m 96,-1 c -1,-104 0,-118 16,-130 13,-9 35,-13 87,-14 45,0 61,3 72,16 11,14 13,34 15,124 1,91 -1,111 -12,126 -10,13 -25,17 -71,18 -49,0 -69,-2 -83,-9 -20,-11 -22,-23 -24,-131 z"
       inkscape:connector-curvature="0"
       style="fill:#ffffff;fill-rule:nonzero" /><path
       id="4"
       class="fil5"
       d="m -3345,10601 43,-263 c 8,-53 13,-81 14,-86 4,-33 5,-54 2,-67 -7,-33 -31,-51 -82,-59 -58,-10 -82,2 -98,49 -5,-39 -24,-55 -76,-64 -48,-7 -74,-1 -91,24 -13,18 -14,22 -34,143 l -44,263 366,60 z m -204,-142 -58,-10 26,-157 c 9,-51 9,-52 11,-58 5,-10 14,-14 29,-12 13,3 22,9 24,18 1,8 0,24 -6,62 l -26,157 z m 134,22 -61,-10 26,-158 c 10,-65 10,-65 13,-70 5,-11 14,-15 30,-12 16,2 23,8 26,18 2,9 2,9 -9,74 l -25,158 z"
       inkscape:connector-curvature="0"
       style="fill:#ffffff;fill-rule:nonzero" /><polygon
       id="5"
       class="fil5"
       points="-3306,9955 -3338,10069 -3243,10095 -3212,9981 "
       style="fill:#ffffff;fill-rule:nonzero" /><polygon
       id="6"
       class="fil5"
       points="-3353,9552 -3344,9534 -3034,9536 -2991,9453 -3174,9202 -3165,9186 -2920,9314 -2869,9216 -3199,9047 -3292,9228 -3128,9436 -3392,9424 -3486,9606 -3156,9775 -3105,9676 "
       style="fill:#ffffff;fill-rule:nonzero" /><path
       id="7"
       class="fil5"
       d="m -2589,8848 79,-100 -411,-77 -108,138 170,383 79,-101 -30,-64 152,-193 69,14 z m -157,-33 -103,131 -66,-144 14,-17 155,30 z"
       inkscape:connector-curvature="0"
       style="fill:#ffffff;fill-rule:nonzero" /><path
       id="8"
       class="fil5"
       d="m -2495,8728 81,-78 -65,-68 115,-110 c 34,-32 41,-37 53,-36 12,0 23,8 52,38 l 14,14 80,-76 -24,-25 c -58,-64 -76,-69 -122,-34 14,-18 19,-29 21,-43 2,-24 -9,-43 -45,-82 -45,-46 -68,-58 -100,-51 -28,6 -28,6 -120,95 l -197,189 257,267 z m -48,-213 -63,-65 115,-110 c 38,-36 39,-37 47,-40 11,-4 22,1 39,19 16,17 22,27 19,38 -3,9 -3,9 -42,48 l -115,110 z"
       inkscape:connector-curvature="0"
       style="fill:#ffffff;fill-rule:nonzero" /><polygon
       id="9"
       class="fil5"
       points="-2256,8021 -2350,8094 -2121,8386 -2028,8313 "
       style="fill:#ffffff;fill-rule:nonzero" /><path
       id="10"
       class="fil5"
       d="m -1645,8057 108,-70 -364,-206 -147,95 35,418 109,-70 -8,-70 206,-133 61,36 z m -138,-82 -139,89 -16,-157 19,-12 136,80 z"
       inkscape:connector-curvature="0"
       style="fill:#ffffff;fill-rule:nonzero" /><polygon
       id="11"
       class="fil5"
       points="-1172,7734 -1446,7860 -1470,7806 -1212,7688 -1246,7614 -1504,7732 -1527,7683 -1255,7559 -1291,7479 -1664,7650 -1510,7987 -1135,7815 "
       style="fill:#ffffff;fill-rule:nonzero" /><polygon
       id="12"
       class="fil5"
       points="-544,7290 -664,7318 -732,7618 -753,7623 -946,7383 -1067,7410 -806,7730 -637,7692 "
       style="fill:#ffffff;fill-rule:nonzero" /><polygon
       id="13"
       class="fil5"
       points="-363,7280 -480,7295 -433,7662 -316,7647 "
       style="fill:#ffffff;fill-rule:nonzero" /><path
       id="14"
       class="fil5"
       d="m -257,7638 113,-1 -2,-94 160,-3 c 46,0 55,1 63,9 9,10 11,23 12,65 l 0,19 111,-2 0,-34 c 0,-86 -10,-102 -67,-108 23,-4 34,-8 45,-17 18,-16 23,-37 22,-91 -1,-63 -10,-88 -38,-105 -24,-14 -24,-14 -152,-12 l -273,4 6,370 z m 110,-188 -2,-91 159,-2 c 53,-1 54,-1 62,3 11,5 15,16 16,40 0,24 -3,35 -13,41 -8,5 -8,5 -63,7 l -159,2 z"
       inkscape:connector-curvature="0"
       style="fill:#ffffff;fill-rule:nonzero" /><path
       id="15"
       class="fil5"
       d="m 502,7458 -9,73 147,19 c -4,29 -7,35 -13,40 -12,8 -33,7 -128,-5 l -68,-10 c -30,-5 -39,-8 -47,-17 -11,-11 -12,-32 -4,-93 12,-95 13,-95 145,-78 84,11 110,16 120,25 7,6 7,11 5,32 l 112,15 c 6,-54 5,-77 -8,-98 -21,-31 -71,-47 -207,-65 -128,-17 -189,-17 -217,-2 -34,18 -48,53 -61,152 -16,121 -13,149 16,175 29,24 68,35 193,51 99,13 139,16 178,13 45,-3 72,-26 82,-68 4,-17 14,-81 19,-116 l 1,-10 -256,-33 z"
       inkscape:connector-curvature="0"
       style="fill:#ffffff;fill-rule:nonzero" /><polygon
       id="16"
       class="fil5"
       points="977,7388 862,7362 780,7723 895,7749 "
       style="fill:#ffffff;fill-rule:nonzero" /><polygon
       id="17"
       class="fil5"
       points="1159,7542 1171,7547 1253,7874 1435,7945 1569,7600 1462,7558 1365,7817 1354,7813 1273,7485 1089,7414 955,7759 1062,7801 "
       style="fill:#ffffff;fill-rule:nonzero" /><polygon
       id="18"
       class="fil5"
       points="1760,7702 1654,7648 1485,7978 1591,8032 "
       style="fill:#ffffff;fill-rule:nonzero" /><path
       id="19"
       class="fil5"
       d="m 1700,7945 -10,15 c -28,45 -32,68 -17,96 14,27 50,56 144,115 96,62 137,83 161,87 38,8 67,-12 101,-64 28,-46 33,-72 19,-100 -12,-24 -32,-41 -131,-107 -67,-46 -90,-63 -97,-70 -7,-9 -8,-17 -1,-29 15,-23 23,-20 103,30 72,46 82,54 85,65 3,8 1,13 -8,28 l 92,59 c 4,-6 8,-13 10,-14 24,-39 28,-64 16,-90 -14,-27 -44,-52 -131,-108 -113,-71 -142,-86 -175,-88 -30,-2 -58,19 -88,66 -20,31 -27,55 -24,76 4,25 22,46 66,76 10,6 41,28 74,52 33,22 63,43 73,50 30,19 35,29 23,48 -9,13 -16,18 -25,17 -12,-2 -23,-9 -95,-54 -67,-43 -77,-51 -82,-62 -5,-9 -3,-17 9,-35 l -92,-59 z"
       inkscape:connector-curvature="0"
       style="fill:#ffffff;fill-rule:nonzero" /><path
       id="20"
       class="fil5"
       d="m 2166,8415 192,185 c 90,87 118,106 156,107 37,1 69,-21 136,-90 41,-43 56,-62 69,-87 15,-32 13,-64 -9,-95 -18,-27 -27,-36 -95,-101 l -192,-186 -257,267 z m 145,9 127,-132 113,108 c 49,48 59,60 58,78 -1,16 -12,34 -44,67 -58,60 -67,59 -141,-12 l -113,-109 z"
       inkscape:connector-curvature="0"
       style="fill:#ffffff;fill-rule:nonzero" /><polygon
       id="21"
       class="fil5"
       points="2870,9069 2688,8829 2735,8794 2907,9020 2972,8970 2800,8744 2843,8712 3024,8950 3093,8897 2845,8571 2550,8795 2800,9123 "
       style="fill:#ffffff;fill-rule:nonzero" /><polygon
       id="22"
       class="fil5"
       points="3214,9258 3222,9276 3028,9518 3067,9603 3377,9615 3385,9632 3132,9745 3178,9846 3515,9691 3430,9507 3166,9506 3339,9306 3253,9120 2917,9275 2963,9375 "
       style="fill:#ffffff;fill-rule:nonzero" /><polygon
       id="23"
       class="fil5"
       points="3389,10276 3305,9987 3362,9971 3441,10243 3519,10220 3440,9948 3492,9933 3575,10220 3659,10195 3544,9802 3189,9905 3304,10301 "
       style="fill:#ffffff;fill-rule:nonzero" /><path
       id="24"
       class="fil5"
       d="m 3308,10344 14,112 94,-12 20,158 c 6,47 6,55 -2,64 -8,10 -21,14 -63,19 l -19,2 14,111 34,-5 c 86,-8 101,-20 100,-78 6,23 12,33 22,42 18,17 40,20 93,13 63,-8 87,-20 100,-50 12,-26 12,-26 -5,-152 l -34,-271 -368,47 z m 200,88 90,-11 20,157 c 6,52 6,53 4,62 -4,11 -14,17 -38,20 -24,3 -35,1 -43,-8 -5,-7 -5,-7 -13,-62 l -20,-158 z"
       inkscape:connector-curvature="0"
       style="fill:#ffffff;fill-rule:nonzero" /><path
       id="25"
       class="fil5"
       d="m 3505,11205 c -55,-2 -55,-4 -53,-127 2,-119 4,-121 98,-119 56,1 78,6 88,19 9,12 11,32 10,102 0,26 -2,59 -3,77 -3,24 -5,33 -12,38 -6,4 -11,5 -33,6 l -1,112 18,1 c 61,1 88,-11 105,-45 13,-24 17,-60 18,-155 4,-190 -5,-232 -51,-254 -21,-9 -53,-13 -137,-14 -43,-1 -75,0 -92,1 -41,3 -63,15 -77,42 -17,30 -22,77 -24,218 -2,85 1,126 11,156 13,39 40,54 98,55 6,0 14,0 35,0 l 2,-113 z"
       inkscape:connector-curvature="0"
       style="fill:#ffffff;fill-rule:nonzero" /><polygon
       id="26"
       class="fil5"
       points="3374,11784 3423,11487 3481,11496 3435,11776 3515,11790 3561,11510 3615,11518 3566,11813 3652,11827 3719,11423 3353,11363 3286,11769 "
       style="fill:#ffffff;fill-rule:nonzero" /><path
       id="27"
       class="fil5"
       d="m 3281,11813 -87,253 c -41,118 -46,151 -31,186 14,33 47,54 139,85 57,20 80,25 107,26 36,1 64,-16 83,-48 17,-28 21,-40 52,-129 l 87,-253 -350,-120 z m 53,136 173,59 -51,148 c -22,65 -29,78 -45,85 -16,7 -36,4 -79,-11 -80,-27 -83,-36 -49,-133 l 51,-148 z"
       inkscape:connector-curvature="0"
       style="fill:#ffffff;fill-rule:nonzero" /><polygon
       id="28"
       class="fil5"
       points="2996,12732 3133,12464 3186,12491 3056,12744 3129,12781 3259,12528 3307,12553 3170,12819 3248,12858 3435,12494 3105,12325 2917,12692 "
       style="fill:#ffffff;fill-rule:nonzero" /></g></svg>