<?xml version="1.0" encoding="UTF-8" standalone="no"?>
<!-- Creator: CorelDRAW X7 -->

<svg
   xmlns:dc="http://purl.org/dc/elements/1.1/"
   xmlns:cc="http://creativecommons.org/ns#"
   xmlns:rdf="http://www.w3.org/1999/02/22-rdf-syntax-ns#"
   xmlns:svg="http://www.w3.org/2000/svg"
   xmlns="http://www.w3.org/2000/svg"
   xmlns:sodipodi="http://sodipodi.sourceforge.net/DTD/sodipodi-0.dtd"
   xmlns:inkscape="http://www.inkscape.org/namespaces/inkscape"
   xml:space="preserve"
   width="7.8740005in"
   height="7.8740005in"
   version="1.1"
   style="clip-rule:evenodd;fill-rule:evenodd;image-rendering:optimizeQuality;shape-rendering:geometricPrecision;text-rendering:geometricPrecision"
   viewBox="0 0 7874.0005 7874.0005"
   id="svg4749"
   inkscape:version="0.91 r13725"
   sodipodi:docname="PanOceania - Order Sergeants - [N3] [Vyo].svg"><metadata
     id="metadata4787"><rdf:RDF><cc:Work
         rdf:about=""><dc:format>image/svg+xml</dc:format><dc:type
           rdf:resource="http://purl.org/dc/dcmitype/StillImage" /></cc:Work></rdf:RDF></metadata><sodipodi:namedview
     pagecolor="#ffffff"
     bordercolor="#666666"
     borderopacity="1"
     objecttolerance="10"
     gridtolerance="10"
     guidetolerance="10"
     inkscape:pageopacity="0"
     inkscape:pageshadow="2"
     inkscape:window-width="640"
     inkscape:window-height="480"
     id="namedview4785"
     showgrid="false"
     inkscape:zoom="0.23838384"
     inkscape:cx="736.83001"
     inkscape:cy="849.33005"
     inkscape:window-x="0"
     inkscape:window-y="0"
     inkscape:window-maximized="0"
     inkscape:current-layer="svg4749" /><defs
     id="defs4751"><style
       type="text/css"
       id="style4753"><![CDATA[
    .fil2 {fill:none}
    .fil0 {fill:#4060A0}
    .fil1 {fill:white}
    .fil3 {fill:white;fill-rule:nonzero}
   ]]></style></defs><g
     id="Layer_x0020_1"
     transform="translate(3937,-7063)"><metadata
       id="CorelCorpID_0Corel-Layer" /><circle
       class="fil0"
       cy="11000"
       r="3937"
       id="circle4757"
       cx="0"
       style="fill:#4060a0" /><circle
       class="fil1"
       cy="11000"
       r="3780"
       id="circle4759"
       cx="0"
       style="fill:#ffffff" /><circle
       class="fil0"
       cy="11000"
       r="2992"
       id="circle4761"
       cx="0"
       style="fill:#4060a0" /><circle
       class="fil1"
       cy="11000"
       r="2835"
       id="circle4763"
       cx="0"
       style="fill:#ffffff" /><circle
       class="fil2"
       cy="11000"
       r="3898"
       id="circle4765"
       cx="0"
       style="fill:none" /><g
       id="_1069138224"><path
         class="fil0"
         d="m 2285,13324 c -8,-1 -15,-4 -21,-10 l -70,-66 c -15,-15 -16,-40 -1,-56 l 91,-95 c 14,-16 39,-16 55,-1 l 70,66 c 6,5 9,12 11,20 8,1 15,4 21,10 l 247,235 c 16,15 17,40 2,56 l -91,95 c -15,16 -40,17 -55,2 l -52,-49 c 12,21 20,43 21,70 0,1 0,1 0,1 1,72 -54,123 -104,166 -45,39 -96,83 -158,80 -41,-2 -67,-20 -95,-49 -13,-13 -25,-28 -37,-42 l -40,-46 -22,20 c -8,6 -17,9 -26,9 0,2 -1,5 -2,7 31,7 60,27 85,66 32,50 42,105 8,155 -31,49 -118,105 -166,137 -39,25 -83,53 -126,71 -30,13 -59,19 -91,15 -45,-7 -73,-33 -98,-70 -6,-9 -8,-19 -6,-30 2,-6 5,-12 9,-17 -21,-8 -40,-22 -58,-44 l 93,179 c 10,19 3,43 -17,53 l -116,60 c -20,10 -43,3 -53,-16 l -75,-144 c -4,8 -11,15 -21,19 l -115,45 c -20,8 -43,-2 -51,-22 l -1,-3 c -2,-3 -5,-12 -8,-16 -8,0 -23,5 -29,7 -8,4 -25,13 -29,22 -3,16 11,49 16,62 l 53,132 c 8,20 -2,43 -23,51 l -122,48 c -20,8 -43,-1 -51,-22 l -65,-163 38,162 c 4,21 -9,42 -30,47 l -128,30 c -21,5 -42,-9 -47,-30 l -38,-162 c -1,-6 -9,-37 -14,-40 -7,-5 -50,4 -58,6 -11,3 -52,12 -59,23 -7,11 2,50 5,61 l 33,142 c 4,22 -9,43 -30,48 l -128,29 c -21,5 -42,-8 -47,-29 l -22,-93 c -6,56 -30,100 -92,124 0,0 -1,0 -1,0 -27,10 -56,14 -85,18 -45,4 -91,6 -136,7 -67,1 -137,3 -205,-1 -35,-3 -72,-8 -105,-23 -55,-26 -75,-71 -83,-129 0,-1 0,-1 0,-2 -4,-40 -5,-81 -6,-121 0,-41 -1,-83 1,-124 2,-24 5,-48 14,-70 0,-1 0,-1 1,-1 5,-12 11,-23 18,-32 29,-36 73,-49 117,-57 32,-5 65,-8 97,-10 47,-3 94,-4 140,-5 47,-1 96,-2 143,1 28,2 56,7 82,18 5,2 10,5 15,7 4,-11 15,-21 28,-24 l 128,-29 c 21,-5 42,8 47,29 l 25,107 c 30,-22 69,-35 107,-44 63,-14 131,-23 188,12 16,11 29,23 40,36 l -14,-35 c -8,-20 2,-43 22,-51 l 116,-46 c 11,-4 22,-3 32,2 24,-28 57,-47 96,-62 50,-20 108,-33 158,-6 0,0 0,0 1,0 0,0 0,1 1,1 l -2,-3 c -4,-8 -5,-16 -4,-23 -7,-4 -13,-9 -16,-17 l -45,-85 c -10,-19 -2,-43 17,-53 l 117,-61 c 19,-10 43,-2 53,17 l 44,85 c 4,8 5,16 4,23 7,4 13,9 16,17 l 30,56 c -10,-35 -5,-72 20,-106 31,-44 112,-96 157,-125 37,-24 78,-51 119,-68 28,-13 56,-20 86,-16 0,0 1,0 2,0 -7,-16 -3,-34 10,-45 l 23,-20 -26,-30 c -14,-16 -12,-41 4,-55 l 100,-86 c 16,-14 41,-13 55,4 l 26,30 128,-111 c 8,-7 19,-10 30,-9 0,0 0,0 0,-1 z m 93,99 c 4,14 0,30 -12,40 l -128,111 40,45 c 4,5 12,16 18,21 4,-2 8,-6 10,-7 2,-2 6,-6 10,-9 -3,-3 -5,-6 -7,-8 l -9,-10 c -14,-17 -12,-42 4,-56 l 92,-79 c 7,-6 15,-9 23,-9 l -41,-39 z m -1960,966 -11,-48 c -3,1 -6,2 -10,2 l -151,3 c -21,0 -38,-16 -40,-37 0,-4 0,-11 -1,-17 -7,-1 -17,-1 -22,-1 -33,-2 -67,-2 -100,-1 -12,0 -103,2 -112,9 -8,10 -7,73 -7,84 0,11 1,70 7,78 11,9 103,6 117,5 17,0 106,-1 128,-8 1,-7 0,-22 0,-28 0,-21 17,-39 39,-39 l 151,-4 c 4,0 8,1 12,2 z m -1372,-204 c 19,-26 46,-43 83,-48 53,-9 147,13 199,25 43,10 91,21 132,37 28,12 53,27 71,50 27,33 26,69 20,109 -2,12 -8,21 -17,27 -2,1 -5,3 -7,4 17,27 22,61 11,107 -13,58 -45,103 -105,114 -57,12 -157,-11 -214,-24 -45,-11 -96,-22 -139,-40 -29,-13 -54,-29 -73,-55 -22,-30 -27,-62 -23,-97 -13,24 -31,45 -55,59 -34,19 -72,20 -109,14 -50,-9 -103,-29 -150,-47 -59,-23 -141,-55 -177,-111 -39,-61 -16,-126 9,-189 1,-4 3,-8 4,-12 l -79,155 c -9,19 -33,27 -52,17 l -118,-60 c -19,-9 -27,-33 -17,-53 l 219,-429 c 10,-19 34,-27 53,-17 l 117,60 c 19,10 27,33 17,53 l -99,195 c 19,-27 45,-47 81,-56 30,-7 59,-5 88,2 42,9 86,26 126,41 40,16 83,33 120,54 26,15 48,33 64,58 12,18 18,37 20,57 z m -29,138 c -3,8 -6,15 -9,23 5,-3 10,-5 16,-5 -3,-6 -5,-11 -7,-18 z m -623,-489 c 1,8 -1,15 -5,23 l -171,295 c -11,19 -35,25 -54,14 l -114,-66 c -19,-11 -25,-35 -14,-54 l 99,-171 -124,152 c -13,17 -38,20 -55,6 l -115,-94 c -9,-7 -14,-16 -15,-26 -1,-11 2,-21 9,-29 l 157,-189 -272,119 c -14,6 -29,4 -41,-6 l -97,-79 c -12,-10 -17,-24 -14,-39 l 61,-293 -154,194 c -7,8 -16,13 -27,14 -11,1 -20,-2 -29,-8 l -115,-94 c -17,-14 -20,-39 -6,-56 l 304,-373 c 14,-17 39,-20 55,-6 l 213,172 c 12,10 17,25 13,40 l -63,255 237,-113 c 14,-7 29,-5 42,5 l 211,171 c 4,4 8,8 10,13 4,1 8,2 11,4 l 114,67 c 19,10 25,35 14,53 l -48,83 c -4,7 -10,13 -17,16 z"
         id="path4768"
         inkscape:connector-curvature="0"
         style="fill:#4060a0" /></g><path
       class="fil3"
       d="m -2367,13098 -304,374 115,94 224,-282 21,17 -82,397 97,79 372,-162 20,16 -230,278 115,93 304,-373 -211,-172 -312,149 83,-335 -212,-173 z m 608,673 -171,295 114,66 171,-295 -114,-66 z m 71,-121 -49,83 114,66 48,-83 -113,-66 z m 182,106 -219,429 117,60 219,-429 -117,-60 z m 341,559 c -16,27 -34,26 -111,-4 -44,-17 -69,-32 -78,-46 -8,-13 -8,-25 5,-58 l 320,125 c 6,-13 12,-28 13,-32 29,-75 32,-115 9,-151 -22,-33 -58,-54 -165,-96 -106,-41 -150,-51 -191,-42 -43,11 -66,39 -99,124 -31,80 -34,117 -11,153 21,33 63,58 158,95 175,69 228,65 272,-20 l -122,-48 z m -158,-173 c 18,-44 42,-46 124,-14 48,19 71,33 78,49 5,10 4,17 -5,42 l -197,-77 z m 349,238 c -8,39 -4,64 12,88 25,33 66,51 190,79 100,23 163,31 197,24 40,-7 63,-34 75,-84 17,-74 -14,-112 -113,-135 -133,-31 -153,-37 -174,-43 -21,-6 -29,-16 -26,-29 5,-21 31,-22 111,-3 43,10 69,19 78,28 4,3 5,7 5,17 l 131,30 c 6,-40 4,-59 -11,-78 -24,-30 -65,-47 -182,-74 -93,-21 -154,-29 -185,-25 -41,7 -66,33 -77,83 -17,71 17,110 114,134 125,29 158,37 175,42 18,7 27,18 24,32 -6,24 -32,25 -115,6 -80,-18 -103,-32 -98,-62 l -131,-30 z m 1230,50 c 0,71 -2,72 -167,76 -160,3 -162,1 -164,-122 -2,-72 3,-101 21,-115 15,-13 43,-16 136,-18 34,-1 79,0 103,1 33,1 45,4 51,12 6,8 7,14 10,43 l 150,-4 0,-23 c -2,-80 -19,-115 -65,-135 -33,-15 -81,-18 -208,-16 -254,6 -310,19 -337,80 -12,28 -15,69 -12,179 1,56 3,97 5,118 7,55 24,82 61,100 41,19 104,23 293,19 113,-2 168,-8 208,-22 51,-19 70,-55 69,-131 -1,-7 -2,-18 -3,-45 l -151,3 z m 143,-300 108,470 128,-30 -33,-142 c -20,-89 -6,-110 84,-131 84,-20 103,-10 120,63 l 37,162 128,-29 -37,-163 c -18,-78 -33,-106 -70,-129 -36,-23 -82,-25 -158,-7 -81,18 -119,46 -130,93 l -6,1 -43,-187 -128,29 z m 549,23 126,318 122,-49 -52,-131 c -20,-49 -23,-68 -18,-88 7,-19 26,-37 53,-47 25,-10 47,-13 60,-7 10,5 18,15 27,37 l 1,3 1,1 115,-46 -9,-22 c -18,-47 -34,-69 -58,-83 -30,-16 -70,-13 -124,8 -69,27 -97,56 -104,106 l -6,2 -19,-47 -115,45 z m 422,-169 157,303 117,-60 -157,-303 -117,60 z m -65,-124 44,85 117,-60 -44,-86 -117,61 z m 369,239 c 22,33 42,48 71,53 41,6 82,-11 189,-81 86,-55 136,-95 155,-124 22,-33 20,-69 -8,-112 -41,-64 -90,-68 -176,-14 -115,73 -133,85 -152,95 -19,10 -32,10 -39,-1 -12,-19 6,-38 75,-83 37,-23 62,-35 75,-36 5,0 8,2 16,9 l 113,-73 c -25,-33 -40,-44 -64,-46 -38,-5 -79,13 -180,78 -80,52 -128,89 -146,115 -25,34 -23,70 5,113 39,62 91,65 175,12 108,-70 137,-87 153,-96 17,-8 31,-6 39,5 13,21 -4,41 -75,86 -70,45 -96,52 -114,28 l -112,72 z m 298,-572 51,59 -52,45 60,70 52,-45 65,75 c 29,33 29,33 36,41 26,26 44,36 69,37 36,1 66,-15 130,-70 68,-60 91,-95 91,-136 -2,-32 -11,-52 -53,-102 l -91,79 9,10 c 27,31 25,45 -7,72 -20,17 -33,22 -46,17 -11,-3 -14,-7 -38,-34 l -65,-75 157,-136 -60,-70 -157,136 -52,-59 -99,86 z m 351,-211 248,235 90,-95 -247,-235 -91,95 z m -102,-97 70,67 91,-96 -70,-66 -91,95 z"
       id="path4770"
       inkscape:connector-curvature="0"
       style="fill:#ffffff;fill-rule:nonzero" /><circle
       class="fil2"
       cy="11000"
       r="3898"
       id="circle4772"
       cx="0"
       style="fill:none" /><g
       id="_1069142096"><path
         class="fil0"
         d="m 2015,8502 428,-185 c 15,-6 31,-4 43,7 l 134,128 c 12,11 16,27 10,42 l -181,491 c -5,13 -15,21 -28,25 -14,3 -26,-1 -36,-10 l -99,-93 c -12,-11 -15,-28 -10,-43 l 23,-58 -150,-141 -56,26 c -15,6 -32,4 -44,-8 l -99,-93 c -4,-4 -7,-8 -9,-13 -10,2 -22,-1 -31,-8 l -97,-78 c -17,-14 -19,-39 -6,-56 l 303,-375 c 14,-16 38,-19 55,-5 l 98,78 c 16,14 19,39 5,55 l -253,314 z m -725,-429 213,-374 c 11,-18 35,-25 54,-14 l 181,103 c 13,7 20,20 20,34 l 0,288 112,-201 c 6,-10 14,-16 24,-19 11,-3 21,-1 30,4 l 106,60 c 18,11 25,35 14,54 l -238,418 c -11,19 -35,26 -54,15 l -180,-102 c -12,-8 -20,-20 -20,-35 l -1,-289 -112,202 c -6,9 -14,16 -24,18 -11,3 -21,2 -30,-3 l -106,-60 c -6,-4 -11,-9 -14,-15 -8,2 -16,2 -24,-1 l -128,-43 c -15,-6 -25,-19 -26,-35 l -4,-62 -195,-66 -41,47 c -10,12 -27,16 -42,11 l -129,-44 c -7,5 -16,7 -25,6 l -431,-61 c -22,-3 -37,-22 -34,-44 l 67,-477 c 3,-22 23,-37 44,-34 l 429,60 c 21,3 37,23 34,45 l -16,112 c -3,19 -18,33 -37,34 9,8 13,20 12,33 l -15,105 c -3,17 -16,30 -32,33 l 6,1 c 21,3 36,23 33,45 l -3,25 302,-336 c 11,-12 27,-16 42,-11 l 176,60 c 15,5 25,18 26,34 l 36,479 z m -2859,139 -175,-389 c -9,-20 -1,-43 19,-52 l 191,-86 c 13,-6 27,-5 39,4 l 232,169 -96,-209 c -4,-10 -5,-20 -1,-30 4,-10 11,-18 21,-22 l 110,-50 c 20,-9 43,0 52,19 l 199,440 c 9,19 0,43 -20,52 l -189,85 c -13,6 -27,4 -39,-4 l -235,-170 97,210 c 5,10 5,20 1,31 -4,10 -11,17 -20,22 l -111,50 c -8,3 -16,4 -23,3 -3,6 -7,11 -14,16 l -111,77 c -13,10 -30,10 -44,1 l -52,-34 -168,118 13,60 c 4,16 -2,32 -16,41 l -112,78 c -11,8 -24,9 -37,4 -12,-5 -21,-15 -24,-28 l -105,-514 c -3,-16 3,-31 16,-40 l 152,-106 c 13,-9 30,-10 43,-1 l 407,255 z m -751,574 57,54 c 16,14 17,39 2,55 l -82,87 c -15,16 -40,16 -56,1 l -350,-330 c -16,-15 -17,-40 -2,-56 l 184,-195 c 25,-25 49,-53 77,-75 0,-1 1,-1 1,-1 98,-74 169,-22 247,52 56,53 119,116 92,200 -15,47 -60,92 -94,127 l -76,81 z M -796,7428 c 51,-12 107,-26 159,-32 31,-3 61,-3 90,11 4,2 7,3 11,5 30,18 48,45 61,76 20,46 32,102 43,150 12,49 25,104 27,154 2,34 -2,66 -21,95 0,0 -1,0 -1,1 -2,3 -4,6 -7,9 -20,25 -47,38 -76,49 -49,18 -105,30 -156,41 -51,12 -108,26 -160,32 -32,3 -62,3 -91,-11 -3,-1 -7,-3 -10,-5 0,0 0,0 -1,-1 -30,-18 -47,-45 -60,-76 -20,-47 -33,-103 -45,-152 -11,-48 -23,-102 -25,-151 -2,-33 2,-66 21,-95 0,0 0,0 0,0 3,-4 5,-7 8,-10 20,-24 46,-38 76,-48 49,-18 106,-31 157,-42 z m 779,117 c -3,0 -7,-1 -10,-1 -25,-2 -52,-2 -77,-2 -12,1 -67,1 -81,6 -6,14 -6,73 -6,86 1,12 0,70 6,80 12,6 72,5 84,5 13,-1 73,0 92,-5 1,-8 1,-24 1,-30 0,-21 17,-39 39,-39 l 119,-2 c 22,0 39,17 40,38 1,16 2,31 2,47 1,68 -10,134 -78,166 0,0 0,0 -1,0 -51,22 -124,23 -179,24 -54,0 -111,1 -164,-4 -31,-3 -61,-9 -88,-25 -48,-29 -61,-77 -66,-130 0,0 0,-1 0,-1 -3,-40 -4,-81 -4,-121 -1,-40 -2,-82 1,-123 1,-23 3,-46 11,-68 0,0 0,0 0,-1 5,-15 13,-30 23,-43 25,-30 62,-42 99,-48 57,-10 123,-11 181,-11 38,-1 77,-1 115,3 24,2 48,8 70,20 62,36 69,104 70,169 l 0,24 c 0,21 -17,39 -39,40 l -119,1 c -21,0 -38,-16 -40,-37 0,-4 0,-12 -1,-18 z m -2448,1104 75,-79 c 8,-9 16,-18 24,-27 1,-1 3,-3 4,-5 -4,-5 -12,-13 -15,-16 -3,-3 -10,-9 -15,-13 -2,2 -3,3 -5,5 -8,8 -17,17 -25,25 l -75,80 32,30 z m 561,-412 -62,-40 16,72 46,-32 z m 1054,-584 c 0,0 0,1 0,1 0,0 0,1 0,1 -4,17 10,72 14,90 1,7 13,58 20,62 8,5 94,-16 104,-18 10,-2 94,-21 100,-30 3,-8 -7,-54 -9,-63 -4,-16 -18,-77 -29,-89 -18,-1 -86,16 -100,19 -15,3 -83,18 -100,27 z m 1922,165 -5,-74 -49,56 54,18 z m 1299,804 27,-70 -68,30 41,40 z"
         id="path4775"
         inkscape:connector-curvature="0"
         style="fill:#4060a0" /></g><path
       class="fil3"
       d="m -2372,8955 82,-87 -86,-81 104,-109 c 59,-63 76,-85 85,-112 15,-48 -5,-87 -82,-159 -91,-86 -134,-97 -196,-50 -16,13 -25,21 -73,72 l -184,195 350,331 z m -91,-250 -90,-85 103,-108 c 37,-38 38,-39 46,-42 16,-6 29,0 54,23 24,24 32,36 29,50 -2,12 -3,13 -40,53 l -102,109 z m 799,-359 111,-78 -443,-278 -153,106 106,514 112,-78 -20,-86 213,-148 74,48 z m -169,-111 -143,100 -43,-193 20,-13 166,106 z m 124,-428 199,439 110,-50 -150,-326 12,-5 335,242 189,-85 -198,-439 -111,50 150,326 -11,5 -334,-243 -191,86 z m 922,-341 c -159,36 -194,51 -217,84 -22,34 -20,85 10,215 31,137 51,182 87,204 35,20 73,17 232,-20 157,-36 193,-50 216,-84 22,-35 20,-83 -11,-218 -31,-135 -50,-180 -86,-200 -35,-20 -73,-18 -231,19 z m 28,122 c 107,-25 121,-26 137,-8 14,14 24,40 39,107 13,56 14,78 4,94 -12,18 -32,25 -124,46 -94,22 -115,24 -133,13 -17,-10 -25,-28 -39,-86 -14,-62 -18,-89 -13,-108 5,-28 17,-32 129,-58 z m 790,96 c 0,72 -1,72 -132,74 -126,2 -127,-1 -129,-123 -1,-73 3,-102 17,-115 13,-13 34,-16 108,-17 27,0 62,1 81,2 26,2 35,5 40,13 5,8 6,15 8,43 l 119,-2 -1,-24 c -1,-79 -14,-114 -50,-135 -27,-15 -64,-19 -164,-18 -201,3 -245,15 -267,76 -9,28 -11,68 -10,179 1,55 2,97 4,118 5,54 18,82 47,100 33,20 82,25 231,23 90,-1 133,-7 165,-20 40,-19 55,-54 55,-130 -1,-7 -1,-18 -2,-45 l -120,1 z m 261,-291 -67,477 431,61 16,-115 -315,-44 11,-76 297,42 15,-105 -297,-42 9,-69 313,44 16,-113 -429,-60 z m 834,682 128,44 -39,-522 -175,-60 -351,390 129,44 57,-67 245,83 6,88 z m -11,-201 -166,-56 131,-149 22,8 13,197 z m 422,-155 -238,418 105,61 175,-314 11,7 2,413 180,103 238,-419 -105,-60 -175,314 -11,-7 0,-413 -182,-103 z m 604,366 -303,375 97,78 303,-374 -97,-79 z m 172,793 99,93 181,-491 -134,-127 -482,208 99,94 81,-37 188,178 -32,82 z m 74,-187 -127,-120 180,-81 17,16 -70,185 z"
       id="path4777"
       inkscape:connector-curvature="0"
       style="fill:#ffffff;fill-rule:nonzero" /><path
       class="fil0"
       d="m 391,10661 c -31,733 92,1543 515,2465 -512,-236 -1300,-236 -1812,0 423,-922 508,-1731 512,-2465 -629,52 -1041,233 -1535,496 197,-472 197,-1338 0,-1811 590,315 1063,512 1929,512 866,0 1339,-197 1929,-512 -197,473 -197,1339 0,1811 -495,-264 -907,-445 -1538,-496 z"
       id="path4779"
       inkscape:connector-curvature="0"
       style="fill:#4060a0" /><path
       class="fil1"
       d="m 315,10604 0,-28 c 363,23 705,90 1057,229 143,57 283,122 420,192 -119,-438 -119,-1052 0,-1490 -137,70 -277,135 -420,192 -452,178 -888,238 -1372,238 -484,0 -920,-60 -1372,-238 -143,-57 -283,-122 -420,-192 119,438 119,1052 0,1490 137,-70 277,-135 420,-192 352,-139 694,-206 1057,-229 l 0,30 c 0,404 -24,802 -95,1200 -71,407 -188,798 -347,1177 460,-151 1054,-151 1513,0 -323,-761 -485,-1543 -441,-2379 z"
       id="path4781"
       inkscape:connector-curvature="0"
       style="fill:#ffffff" /><path
       class="fil0"
       d="m 157,10600 0,-188 c 552,15 966,112 1420,310 -42,-302 -42,-638 0,-940 -496,216 -944,312 -1577,312 -633,0 -1081,-96 -1577,-312 42,302 42,638 0,940 454,-198 868,-295 1420,-310 l 0,194 c 0,768 -94,1455 -343,2151 323,-59 675,-59 997,-1 -255,-691 -378,-1403 -340,-2156 z"
       id="path4783"
       inkscape:connector-curvature="0"
       style="fill:#4060a0" /></g></svg>