<?xml version="1.0" encoding="UTF-8" standalone="no"?>
<!-- Creator: CorelDRAW X7 -->

<svg
   xmlns:dc="http://purl.org/dc/elements/1.1/"
   xmlns:cc="http://creativecommons.org/ns#"
   xmlns:rdf="http://www.w3.org/1999/02/22-rdf-syntax-ns#"
   xmlns:svg="http://www.w3.org/2000/svg"
   xmlns="http://www.w3.org/2000/svg"
   xmlns:sodipodi="http://sodipodi.sourceforge.net/DTD/sodipodi-0.dtd"
   xmlns:inkscape="http://www.inkscape.org/namespaces/inkscape"
   xml:space="preserve"
   width="7.8740005in"
   height="7.8740005in"
   version="1.1"
   style="clip-rule:evenodd;fill-rule:evenodd;image-rendering:optimizeQuality;shape-rendering:geometricPrecision;text-rendering:geometricPrecision"
   viewBox="0 0 7874.0005 7874.0005"
   id="svg4556"
   inkscape:version="0.91 r13725"
   sodipodi:docname="Yu Jing - Yan Huo Invincibles, Fire Support Heavy Regiment - [N3] [Vyo].svg"><metadata
     id="metadata4596"><rdf:RDF><cc:Work
         rdf:about=""><dc:format>image/svg+xml</dc:format><dc:type
           rdf:resource="http://purl.org/dc/dcmitype/StillImage" /></cc:Work></rdf:RDF></metadata><sodipodi:namedview
     pagecolor="#ffffff"
     bordercolor="#666666"
     borderopacity="1"
     objecttolerance="10"
     gridtolerance="10"
     guidetolerance="10"
     inkscape:pageopacity="0"
     inkscape:pageshadow="2"
     inkscape:window-width="640"
     inkscape:window-height="480"
     id="namedview4594"
     showgrid="false"
     inkscape:zoom="0.23838384"
     inkscape:cx="736.83001"
     inkscape:cy="849.33005"
     inkscape:window-x="0"
     inkscape:window-y="0"
     inkscape:window-maximized="0"
     inkscape:current-layer="svg4556" /><defs
     id="defs4558"><style
       type="text/css"
       id="style4560"><![CDATA[
    .str0 {stroke:black;stroke-width:3}
    .fil4 {fill:none}
    .fil0 {fill:black}
    .fil2 {fill:#E2001A}
    .fil1 {fill:yellow}
    .fil3 {fill:yellow;fill-rule:nonzero}
   ]]></style></defs><g
     id="Layer_x0020_1"
     transform="translate(3937,-7063)"><metadata
       id="CorelCorpID_0Corel-Layer" /><circle
       class="fil0"
       cy="11000"
       r="3937"
       id="circle4564"
       cx="0"
       style="fill:#000000" /><path
       class="fil1"
       d="m -2714,8513 c 26,-28 55,-2 29,27 -502,587 -768,1301 -840,2016 l -188,-188 c 132,-682 475,-1322 999,-1855 z m 232,213 c -520,526 -863,1191 -955,1918 l 95,95 125,-124 c 65,-676 324,-1344 764,-1863 25,-29 -2,-53 -29,-26 z m -901,2139 c -2,45 -3,90 -3,135 0,148 10,294 28,438 l -416,-223 c -3,-71 -6,-143 -6,-215 0,-169 12,-335 33,-499 l 364,364 z m 47,718 c 36,209 92,412 165,605 l -457,-125 c -67,-228 -112,-465 -135,-709 l 427,229 z m 219,743 c 118,275 271,533 454,765 l -486,0 c -183,-275 -331,-575 -437,-894 l 469,129 z m 551,883 c 55,64 112,126 172,185 219,219 468,409 741,561 l -549,117 c -167,-120 -325,-254 -471,-399 -143,-144 -275,-299 -394,-464 l 501,0 z m -290,-2789 c -21,108 -37,218 -47,330 l -382,636 c -14,-126 -22,-255 -22,-386 0,-44 1,-88 2,-131 l 449,-449 z m -57,576 c -1,127 7,255 24,381 l -224,742 c -63,-177 -112,-360 -145,-548 l 345,-575 z m 69,639 c 49,221 123,433 220,631 l 1,748 c -169,-219 -311,-460 -420,-718 l 199,-661 z m 338,851 c 124,210 274,403 446,574 97,97 200,187 310,269 l 142,562 c -269,-150 -514,-337 -730,-553 -58,-57 -114,-117 -168,-180 l 0,-672 z m -328,-2254 c 104,-448 297,-891 613,-1267 26,-30 -1,-54 -29,-26 -443,445 -736,980 -846,1554 l 262,-261 z"
       id="path4566"
       inkscape:connector-curvature="0"
       style="fill:#ffff00" /><path
       class="fil1"
       d="m 2714,8513 c -26,-28 -55,-2 -29,27 502,587 768,1301 840,2016 l 188,-188 C 3581,9686 3238,9046 2714,8513 Z m -232,213 c 520,526 863,1191 955,1918 l -95,95 -125,-124 c -65,-676 -324,-1344 -764,-1863 -25,-29 2,-53 29,-26 z m 901,2139 c 2,45 3,90 3,135 0,148 -10,294 -28,438 l 416,-223 c 3,-71 6,-143 6,-215 0,-169 -12,-335 -33,-499 l -364,364 z m -47,718 c -36,209 -92,412 -165,605 l 457,-125 c 67,-228 112,-465 135,-709 l -427,229 z m -219,743 c -118,275 -271,533 -454,765 l 486,0 c 183,-275 331,-575 437,-894 l -469,129 z m -551,883 c -55,64 -112,126 -172,185 -219,219 -468,409 -741,561 l 549,117 c 167,-120 325,-254 471,-399 143,-144 275,-299 394,-464 l -501,0 z m 290,-2789 c 21,108 37,218 47,330 l 382,636 c 14,-126 22,-255 22,-386 0,-44 -1,-88 -2,-131 l -449,-449 z m 57,576 c 1,127 -7,255 -24,381 l 224,742 c 63,-177 112,-360 145,-548 l -345,-575 z m -69,639 c -49,221 -123,433 -220,631 l -1,748 c 169,-219 311,-460 420,-718 l -199,-661 z m -338,851 c -124,210 -274,403 -446,574 -97,97 -200,187 -310,269 l -142,562 c 269,-150 514,-337 730,-553 58,-57 114,-117 168,-180 l 0,-672 z m 328,-2254 c -104,-448 -297,-891 -613,-1267 -26,-30 1,-54 29,-26 443,445 736,980 846,1554 l -262,-261 z"
       id="path4568"
       inkscape:connector-curvature="0"
       style="fill:#ffff00" /><path
       class="fil2"
       d="M 1110,13609 C 859,13268 455,13047 0,13047 c -455,0 -859,221 -1110,562 -1014,-432 -1725,-1437 -1725,-2609 0,-1566 1269,-2835 2835,-2835 1566,0 2835,1269 2835,2835 0,1172 -711,2177 -1725,2609 z"
       id="path4570"
       inkscape:connector-curvature="0"
       style="fill:#e2001a" /><path
       class="fil3"
       d="m -573,7409 393,-55 92,651 -49,7 -6,-45 -296,41 6,46 -48,7 -92,-652 z m 351,0 -296,41 72,510 296,-42 -72,-509 z m -503,-11 49,-7 c 11,85 23,179 35,283 11,-43 22,-95 34,-156 l 50,15 c -13,58 -27,114 -43,167 l -40,-14 c 5,40 7,77 7,112 55,54 97,97 125,129 l -38,42 c -24,-34 -54,-70 -88,-107 -5,88 -25,162 -59,221 -12,-12 -26,-25 -42,-37 52,-94 67,-223 43,-389 -8,-68 -19,-154 -33,-259 z m 427,281 c 44,54 83,107 119,157 l -43,32 c -31,-48 -66,-98 -107,-151 -7,70 -30,135 -70,193 -11,-7 -26,-16 -45,-26 54,-76 76,-164 66,-262 l -92,12 -6,-48 93,-13 c -3,-27 -7,-64 -13,-111 l 47,-7 c 6,46 11,83 14,111 l 111,-15 7,48 -112,16 c 3,30 3,59 1,86 l 30,-22 z m -504,-117 40,-20 c 22,46 45,97 70,154 l -45,25 c -26,-68 -48,-121 -65,-159 z m 862,384 c 211,-58 331,-171 358,-338 14,-83 26,-163 37,-242 l 59,9 c -10,72 -24,162 -42,269 14,178 103,306 267,383 -22,21 -40,38 -55,52 -138,-80 -221,-194 -248,-342 -52,122 -166,211 -342,268 -6,-14 -18,-34 -34,-59 z m 465,-243 c 62,-53 121,-117 178,-190 l 48,39 c -61,69 -122,134 -185,193 l -41,-42 z m -347,-231 49,-27 c 38,68 77,145 116,230 l -56,29 c -40,-97 -76,-175 -109,-232 z"
       id="path4572"
       inkscape:connector-curvature="0"
       style="fill:#ffff00;fill-rule:nonzero" /><circle
       class="fil4 str0"
       cy="11000"
       r="3898"
       id="circle4574"
       cx="0"
       style="fill:none;stroke:#000000;stroke-width:3" /><polygon
       class="fil1"
       points="0,13598 -2250,12299 -2250,9701 0,8402 2250,9701 2250,12299 "
       id="polygon4576"
       style="fill:#ffff00" /><circle
       class="fil2"
       cy="11000"
       r="1457"
       id="circle4578"
       cx="0"
       style="fill:#e2001a" /><path
       class="fil2"
       d="m 0,8953 c 115,431 302,1130 472,1229 171,98 870,-89 1301,-206 -316,315 -828,827 -828,1024 0,197 512,709 828,1024 -431,-117 -1130,-304 -1301,-206 -170,99 -357,798 -472,1229 -115,-431 -302,-1130 -472,-1229 -171,-98 -870,89 -1301,206 316,-315 828,-827 828,-1024 0,-197 -512,-709 -828,-1024 431,117 1130,304 1301,206 170,-99 357,-798 472,-1229 z"
       id="path4580"
       inkscape:connector-curvature="0"
       style="fill:#e2001a" /><path
       class="fil1"
       d="m 0,9105 c -30,111 -61,222 -93,332 -49,163 -101,331 -168,487 -37,87 -107,243 -192,292 -85,49 -254,32 -348,20 -169,-21 -340,-59 -506,-98 -112,-27 -223,-56 -334,-85 81,81 162,163 241,246 117,124 235,253 338,389 57,75 156,214 156,312 0,98 -99,237 -156,312 -103,136 -221,265 -338,389 -79,83 -160,165 -241,246 111,-29 222,-58 334,-85 166,-39 337,-77 506,-98 94,-12 263,-29 348,20 85,49 155,205 192,292 67,156 119,324 168,487 32,110 63,221 93,332 30,-111 61,-222 93,-332 49,-163 101,-331 168,-487 37,-87 107,-243 192,-292 85,-49 254,-32 348,-20 169,21 340,59 506,98 112,27 223,56 334,85 -81,-81 -162,-163 -241,-246 -117,-124 -235,-253 -338,-389 -57,-75 -156,-214 -156,-312 0,-98 99,-237 156,-312 103,-136 221,-265 338,-389 79,-83 160,-165 241,-246 -111,29 -222,58 -334,85 -166,39 -337,77 -506,98 -94,12 -263,29 -348,-20 -85,-49 -155,-205 -192,-292 C 194,9768 142,9600 93,9437 61,9327 30,9216 0,9105 Z"
       id="path4582"
       inkscape:connector-curvature="0"
       style="fill:#ffff00" /><path
       class="fil2"
       d="m -801,12742 c 30,-52 206,-5 395,103 188,109 317,239 287,291 -30,52 -207,6 -395,-103 -189,-109 -317,-239 -287,-291 z m -307,-3307 c 30,52 -99,182 -287,291 -188,108 -365,154 -395,103 -30,-52 98,-182 287,-291 188,-109 365,-155 395,-103 z m 989,-571 c 30,52 -99,182 -287,291 -189,108 -365,155 -395,103 -30,-52 98,-182 287,-291 188,-109 365,-155 395,-103 z m -1790,2313 c 59,0 108,176 108,394 0,217 -49,394 -108,394 -60,0 -109,-177 -109,-394 0,-218 49,-394 109,-394 z m 0,-1142 c 59,0 108,177 108,394 0,218 -49,394 -108,394 -60,0 -109,-176 -109,-394 0,-217 49,-394 109,-394 z M 801,9258 c -30,52 -206,5 -395,-103 -188,-109 -317,-239 -287,-291 30,-52 207,-6 395,103 189,109 317,239 287,291 z m 989,571 c -30,51 -207,5 -395,-103 -188,-109 -317,-239 -287,-291 30,-52 207,-6 395,103 189,109 317,239 287,291 z m 119,994 c -59,0 -108,-176 -108,-394 0,-217 49,-394 108,-394 60,0 109,177 109,394 0,218 -49,394 -109,394 z m 0,1142 c -59,0 -108,-177 -108,-394 0,-218 49,-394 108,-394 60,0 109,176 109,394 0,217 -49,394 -109,394 z m -801,600 c -30,-52 99,-182 287,-291 188,-108 365,-154 395,-103 30,52 -98,182 -287,291 -188,109 -365,155 -395,103 z m -989,571 c -30,-52 99,-182 287,-291 189,-108 365,-155 395,-103 30,52 -98,182 -287,291 -188,109 -365,155 -395,103 z m -1909,-965 c 30,-51 207,-5 395,103 188,109 317,239 287,291 -30,52 -207,6 -395,-103 -189,-109 -317,-239 -287,-291 z"
       id="path4584"
       inkscape:connector-curvature="0"
       style="fill:#e2001a" /><path
       class="fil0"
       d="m 0,13047 c 761,0 1378,617 1378,1378 l -2756,0 c 0,-761 617,-1378 1378,-1378 z"
       id="path4586"
       inkscape:connector-curvature="0"
       style="fill:#000000" /><path
       class="fil2"
       d="m 0,10331 c 84,0 165,15 239,44 97,-145 199,-236 243,-210 45,25 17,159 -60,315 125,102 213,248 239,415 174,11 304,54 304,105 0,51 -130,94 -304,105 -26,167 -114,313 -239,415 77,156 105,290 60,315 -44,26 -146,-65 -243,-210 -74,29 -155,44 -239,44 -84,0 -165,-15 -239,-44 -97,145 -199,236 -243,210 -45,-25 -17,-159 60,-315 -125,-102 -213,-248 -239,-415 -174,-11 -304,-54 -304,-105 0,-51 130,-94 304,-105 26,-167 114,-313 239,-415 -77,-156 -105,-290 -60,-315 44,-26 146,65 243,210 74,-29 155,-44 239,-44 z"
       id="path4588"
       inkscape:connector-curvature="0"
       style="fill:#e2001a" /><path
       class="fil2"
       d="m 1148,14602 c -362,115 -748,178 -1148,178 -400,0 -786,-63 -1148,-178 -9,-58 -13,-117 -13,-177 0,-641 520,-1161 1161,-1161 641,0 1161,520 1161,1161 0,60 -4,119 -13,177 z"
       id="path4590"
       inkscape:connector-curvature="0"
       style="fill:#e2001a" /><polygon
       class="fil1"
       points="271,14151 440,14669 0,14348 -440,14669 -271,14151 -711,13832 -167,13833 0,13316 167,13833 711,13832 "
       id="polygon4592"
       style="fill:#ffff00" /></g></svg>