<?xml version="1.0" encoding="UTF-8" standalone="no"?>
<!-- Creator: CorelDRAW X7 -->

<svg
   xmlns:dc="http://purl.org/dc/elements/1.1/"
   xmlns:cc="http://creativecommons.org/ns#"
   xmlns:rdf="http://www.w3.org/1999/02/22-rdf-syntax-ns#"
   xmlns:svg="http://www.w3.org/2000/svg"
   xmlns="http://www.w3.org/2000/svg"
   xmlns:sodipodi="http://sodipodi.sourceforge.net/DTD/sodipodi-0.dtd"
   xmlns:inkscape="http://www.inkscape.org/namespaces/inkscape"
   xml:space="preserve"
   width="7.8740005in"
   height="7.8740005in"
   version="1.1"
   style="clip-rule:evenodd;fill-rule:evenodd;image-rendering:optimizeQuality;shape-rendering:geometricPrecision;text-rendering:geometricPrecision"
   viewBox="0 0 7874.0005 7874.0005"
   id="svg4510"
   inkscape:version="0.91 r13725"
   sodipodi:docname="Yu Jing - Wu Ming Assault Corps - [N3] [Vyo].svg"><metadata
     id="metadata4554"><rdf:RDF><cc:Work
         rdf:about=""><dc:format>image/svg+xml</dc:format><dc:type
           rdf:resource="http://purl.org/dc/dcmitype/StillImage" /></cc:Work></rdf:RDF></metadata><sodipodi:namedview
     pagecolor="#ffffff"
     bordercolor="#666666"
     borderopacity="1"
     objecttolerance="10"
     gridtolerance="10"
     guidetolerance="10"
     inkscape:pageopacity="0"
     inkscape:pageshadow="2"
     inkscape:window-width="640"
     inkscape:window-height="480"
     id="namedview4552"
     showgrid="false"
     inkscape:zoom="0.23838384"
     inkscape:cx="736.83001"
     inkscape:cy="849.33005"
     inkscape:window-x="0"
     inkscape:window-y="0"
     inkscape:window-maximized="0"
     inkscape:current-layer="svg4510" /><defs
     id="defs4512"><style
       type="text/css"
       id="style4514"><![CDATA[
    .fil4 {fill:none}
    .fil1 {fill:black}
    .fil0 {fill:#E2001A}
    .fil2 {fill:#FFF700}
    .fil5 {fill:black;fill-rule:nonzero}
    .fil3 {fill:black;fill-rule:nonzero}
   ]]></style></defs><g
     id="Layer_x0020_1"
     transform="translate(3937,-7063)"><metadata
       id="CorelCorpID_0Corel-Layer" /><circle
       class="fil0"
       cy="11000"
       r="3937"
       id="circle4518"
       cx="0"
       style="fill:#e2001a" /><path
       class="fil1"
       d="m -2714,8513 c 26,-28 55,-2 29,27 -502,587 -768,1301 -840,2016 l -188,-188 c 132,-682 475,-1322 999,-1855 z m 232,213 c -520,526 -863,1191 -955,1918 l 95,95 125,-124 c 65,-676 324,-1344 764,-1863 25,-29 -2,-53 -29,-26 z m -901,2139 c -2,45 -3,90 -3,135 0,148 10,294 28,438 l -416,-223 c -3,-71 -6,-143 -6,-215 0,-169 12,-335 33,-499 l 364,364 z m 47,718 c 36,209 92,412 165,605 l -457,-125 c -67,-228 -112,-465 -135,-709 l 427,229 z m 219,743 c 118,275 271,533 454,765 l -486,0 c -183,-275 -331,-575 -437,-894 l 469,129 z m 551,883 c 55,64 112,126 172,185 219,219 468,409 741,561 l -549,117 c -167,-120 -325,-254 -471,-399 -143,-144 -275,-299 -394,-464 l 501,0 z m -290,-2789 c -21,108 -37,218 -47,330 l -382,636 c -14,-126 -22,-255 -22,-386 0,-44 1,-88 2,-131 l 449,-449 z m -57,576 c -1,127 7,255 24,381 l -224,742 c -63,-177 -112,-360 -145,-548 l 345,-575 z m 69,639 c 49,221 123,433 220,631 l 1,748 c -169,-219 -311,-460 -420,-718 l 199,-661 z m 338,851 c 124,210 274,403 446,574 97,97 200,187 310,269 l 142,562 c -269,-150 -514,-337 -730,-553 -58,-57 -114,-117 -168,-180 l 0,-672 z m -328,-2254 c 104,-448 297,-891 613,-1267 26,-30 -1,-54 -29,-26 -443,445 -736,980 -846,1554 l 262,-261 z"
       id="path4520"
       inkscape:connector-curvature="0"
       style="fill:#000000" /><path
       class="fil1"
       d="m 2714,8513 c -26,-28 -55,-2 -29,27 502,587 768,1301 840,2016 l 188,-188 C 3581,9686 3238,9046 2714,8513 Z m -232,213 c 520,526 863,1191 955,1918 l -95,95 -125,-124 c -65,-676 -324,-1344 -764,-1863 -25,-29 2,-53 29,-26 z m 901,2139 c 2,45 3,90 3,135 0,148 -10,294 -28,438 l 416,-223 c 3,-71 6,-143 6,-215 0,-169 -12,-335 -33,-499 l -364,364 z m -47,718 c -36,209 -92,412 -165,605 l 457,-125 c 67,-228 112,-465 135,-709 l -427,229 z m -219,743 c -118,275 -271,533 -454,765 l 486,0 c 183,-275 331,-575 437,-894 l -469,129 z m -551,883 c -55,64 -112,126 -172,185 -219,219 -468,409 -741,561 l 549,117 c 167,-120 325,-254 471,-399 143,-144 275,-299 394,-464 l -501,0 z m 290,-2789 c 21,108 37,218 47,330 l 382,636 c 14,-126 22,-255 22,-386 0,-44 -1,-88 -2,-131 l -449,-449 z m 57,576 c 1,127 -7,255 -24,381 l 224,742 c 63,-177 112,-360 145,-548 l -345,-575 z m -69,639 c -49,221 -123,433 -220,631 l -1,748 c 169,-219 311,-460 420,-718 l -199,-661 z m -338,851 c -124,210 -274,403 -446,574 -97,97 -200,187 -310,269 l -142,562 c 269,-150 514,-337 730,-553 58,-57 114,-117 168,-180 l 0,-672 z m 328,-2254 c -104,-448 -297,-891 -613,-1267 -26,-30 1,-54 29,-26 443,445 736,980 846,1554 l -262,-261 z"
       id="path4522"
       inkscape:connector-curvature="0"
       style="fill:#000000" /><path
       class="fil2"
       d="m 0,14780 c -763,0 -1473,-227 -2067,-615 l 617,-132 -152,-599 c 460,303 1010,479 1602,479 592,0 1142,-176 1602,-479 l -152,599 617,132 c -594,388 -1304,615 -2067,615 z"
       id="path4524"
       inkscape:connector-curvature="0"
       style="fill:#fff700" /><path
       class="fil3"
       d="m -502,14055 -246,-32 c -15,-2 -26,-2 -35,1 l -10,-39 c 11,4 25,7 41,9 l 526,69 42,-45 c 6,-6 13,-9 20,-8 7,1 23,16 46,44 22,27 34,44 33,51 -1,3 -6,4 -16,3 l -323,-43 -29,223 159,21 42,-49 c 5,-6 9,-8 13,-8 4,1 11,6 21,15 10,9 22,21 36,36 14,15 22,25 25,30 3,4 4,8 3,11 -1,7 -7,10 -20,9 l -283,-38 -40,309 224,29 43,-41 c 6,-7 14,-9 21,-8 8,1 24,14 48,40 23,26 35,41 34,47 -1,5 -8,7 -22,5 l -712,-93 c -15,-2 -27,-2 -35,1 l -10,-38 c 11,4 24,7 40,9 l 290,38 41,-308 -208,-27 c -14,-2 -26,-2 -35,1 l -10,-39 c 11,4 25,8 41,10 l 215,28 30,-223 z m 120,338 c 51,40 86,69 103,90 18,20 26,38 24,53 -2,14 -8,28 -19,42 -10,14 -20,20 -28,19 -8,-1 -14,-4 -18,-8 -3,-4 -8,-20 -15,-48 -6,-29 -14,-53 -23,-74 -8,-21 -20,-41 -35,-62 l 11,-12 z m 822,-318 c -22,-57 -47,-97 -78,-120 l 5,-13 c 87,3 132,22 137,55 1,10 -2,23 -9,37 -7,15 -18,28 -34,38 l 227,-30 31,-61 c 5,-10 10,-15 16,-16 5,-1 12,1 19,6 7,4 20,13 36,26 17,13 29,22 35,28 6,5 9,11 10,15 0,5 -5,8 -16,10 l -695,91 c -15,2 -26,5 -34,10 l -19,-32 c 12,1 26,1 42,-1 l 327,-43 z m -107,124 271,-35 18,-35 c 3,-5 6,-8 9,-9 5,0 20,5 45,16 24,11 39,18 43,20 5,3 7,5 8,8 0,6 -11,17 -35,34 l 13,107 7,36 c 1,5 -1,10 -5,13 -3,3 -12,8 -25,14 -13,6 -23,9 -28,10 -5,1 -8,0 -10,-3 -1,-2 -2,-6 -3,-12 l -3,-20 -107,14 29,223 c 6,42 5,69 -3,82 -8,12 -21,23 -39,33 -19,9 -30,14 -34,15 -5,0 -9,-4 -13,-14 -7,-18 -17,-31 -32,-40 -14,-9 -41,-18 -80,-26 l 0,-14 c 56,2 90,2 103,0 13,-2 21,-5 24,-8 2,-4 2,-10 1,-19 l -29,-222 -121,16 c 1,12 1,20 -1,23 -3,3 -12,8 -27,15 -15,7 -25,11 -31,11 -5,1 -8,-3 -8,-10 0,-18 -1,-38 -4,-59 l -16,-124 c -3,-23 -7,-46 -12,-69 46,11 78,21 95,29 z m 302,118 -17,-132 -302,40 17,132 302,-40 z m -321,111 c 16,5 32,11 47,18 16,7 27,13 32,16 5,3 8,6 8,10 1,5 -2,8 -10,9 -7,2 -13,5 -16,8 -4,4 -18,22 -41,53 -24,31 -48,59 -73,84 -25,25 -63,57 -114,94 l -9,-10 c 53,-66 92,-118 115,-156 24,-38 44,-80 61,-126 z m 263,-21 c 62,15 120,33 173,53 53,21 81,48 86,81 2,16 0,33 -5,49 -5,16 -12,25 -22,27 -4,0 -8,-1 -12,-4 -3,-2 -9,-8 -16,-18 -30,-38 -60,-70 -91,-95 -31,-25 -71,-51 -119,-79 l 6,-14 z"
       id="path4526"
       inkscape:connector-curvature="0"
       style="fill:#000000;fill-rule:nonzero" /><circle
       class="fil4"
       cy="11000"
       r="3898"
       id="circle4528"
       cx="0"
       style="fill:none" /><circle
       class="fil4"
       cy="11000"
       r="3898"
       id="circle4530"
       cx="0"
       style="fill:none" /><circle
       class="fil4"
       cy="11000"
       r="3898"
       id="circle4532"
       cx="0"
       style="fill:none" /><path
       class="fil5"
       d="m -795,7667 92,-28 12,-43 c 2,-5 5,-9 9,-10 4,-1 19,3 46,14 26,10 40,18 42,23 1,5 -8,17 -27,36 l 50,168 15,40 c 1,3 1,6 0,8 0,3 -4,7 -10,14 -6,7 -14,14 -23,21 -9,6 -15,10 -18,11 -4,1 -6,0 -8,-5 l -18,-61 -97,29 48,161 c 5,15 11,32 17,49 l 8,25 c 1,3 0,7 -4,13 -4,6 -12,13 -24,23 -12,10 -20,15 -24,17 -3,1 -6,-3 -9,-10 l -7,-29 c -5,-19 -11,-41 -18,-65 l -50,-165 -89,26 11,38 c 1,3 1,6 1,9 -1,3 -4,7 -10,13 -6,6 -14,13 -23,20 -10,7 -16,11 -18,12 -3,0 -4,-1 -5,-4 l -7,-26 c -3,-13 -7,-29 -13,-49 l -56,-187 c -6,-20 -13,-40 -21,-60 26,2 54,7 83,15 l 82,-24 -37,-125 c -7,-24 -14,-45 -21,-63 67,-3 101,0 103,7 2,5 -6,14 -22,28 l 40,134 z m 156,167 -52,-174 -97,29 52,174 97,-29 z m -212,-126 -89,27 52,173 89,-26 -52,-174 z m -379,-71 c 43,11 76,23 99,35 23,12 37,26 42,41 5,16 5,33 0,50 -5,18 -15,28 -30,33 -5,1 -11,0 -16,-4 -5,-4 -9,-10 -11,-19 -8,-27 -20,-50 -33,-69 -14,-18 -32,-36 -55,-54 l 4,-13 z m 201,52 -1,235 c -1,34 -1,61 1,81 2,21 7,41 13,61 6,21 13,42 22,64 9,22 15,36 16,42 10,33 5,53 -14,59 -15,4 -29,3 -42,-4 -13,-7 -22,-18 -26,-32 -1,-4 -2,-8 -2,-12 -2,-22 -6,-45 -10,-71 -5,-26 -9,-45 -12,-55 -3,-11 -7,-19 -12,-23 -4,-5 -12,-8 -23,-10 -11,-2 -29,-4 -55,-4 l -2,-15 c 24,-3 43,-6 56,-10 14,-4 24,-11 31,-21 7,-10 12,-30 16,-60 l 30,-227 14,2 z"
       id="path4534"
       inkscape:connector-curvature="0"
       style="fill:#000000;fill-rule:nonzero" /><path
       id="1"
       class="fil5"
       d="m 37,7536 c -29,42 -62,77 -99,106 l -8,-8 c 49,-69 86,-148 111,-238 18,5 34,11 48,18 14,6 23,11 26,13 4,3 5,6 5,9 0,3 -3,5 -10,7 -7,2 -13,5 -18,10 -5,5 -12,16 -21,31 l 119,0 19,-26 c 4,-6 8,-9 11,-9 4,0 12,4 23,13 11,10 21,18 32,24 10,7 15,12 15,17 0,4 -1,7 -4,9 -3,3 -8,4 -16,4 -7,0 -14,2 -19,5 -6,3 -12,8 -17,16 -25,34 -50,61 -73,83 41,23 107,40 196,49 l 0,13 c -21,3 -36,8 -46,13 -11,6 -21,16 -31,30 -2,3 -5,5 -8,5 -6,0 -26,-8 -60,-25 -34,-16 -63,-34 -87,-54 -53,42 -121,73 -204,94 l -5,-13 c 75,-34 133,-71 176,-112 -22,-23 -40,-51 -55,-84 z m 22,-31 -7,11 c 24,35 46,60 67,77 23,-25 44,-54 62,-89 l -122,1 z m -264,24 57,0 29,-40 c 3,-4 7,-6 11,-6 4,0 13,6 26,17 14,12 23,22 29,30 5,8 8,13 8,16 0,3 -5,5 -15,5 l -155,0 c -19,45 -36,78 -48,99 l 112,0 25,-35 c 3,-4 7,-6 10,-6 4,0 15,8 34,24 18,16 27,27 27,31 0,5 -4,8 -12,7 l -104,1 0,112 20,0 24,-34 c 3,-5 7,-8 12,-8 4,0 14,8 31,25 17,17 25,28 25,32 0,5 -3,7 -10,7 l -102,1 1,143 108,-67 9,11 c -54,53 -92,90 -113,113 -21,23 -34,38 -40,47 -6,9 -10,14 -12,14 -2,0 -4,-1 -6,-2 -2,-2 -7,-9 -14,-22 -8,-13 -16,-26 -24,-40 24,-12 36,-27 36,-43 l -1,-154 -64,0 c -12,0 -23,2 -32,4 l -13,-30 c 11,3 23,4 38,4 l 71,-1 0,-112 -50,0 c -17,27 -40,56 -69,87 l -11,-9 c 54,-81 96,-195 125,-343 18,5 34,11 49,18 15,6 25,11 29,13 4,3 6,6 6,9 0,3 -5,6 -14,9 -10,3 -17,10 -22,23 l -21,50 z m 344,241 58,0 23,-32 c 4,-5 7,-8 10,-8 6,0 18,9 39,26 20,17 30,27 30,30 0,3 -3,5 -11,5 l -149,1 0,57 60,0 25,-31 c 2,-3 6,-5 10,-5 5,0 17,8 35,24 19,16 28,26 28,30 0,4 -4,6 -12,6 l -146,0 0,64 106,0 27,-36 c 3,-4 6,-7 9,-7 4,0 17,9 38,27 21,18 32,29 32,32 0,4 -5,6 -14,6 l -198,0 c 1,34 1,57 1,71 l 1,37 c 0,4 -2,8 -6,11 -5,4 -13,8 -26,12 -12,5 -21,8 -25,8 -4,0 -6,-3 -6,-9 l 1,-45 c 0,-20 1,-48 0,-84 l -125,0 c -13,0 -23,1 -32,4 l -13,-30 c 11,3 23,4 38,4 l 132,-1 0,-64 -73,1 c -12,0 -23,1 -32,4 l -13,-32 c 11,3 23,4 38,4 l 80,-1 0,-57 -93,0 c -14,0 -26,1 -35,4 l -12,-29 c 11,2 24,3 39,3 l 101,0 c 0,-26 -1,-50 -3,-74 32,4 54,7 64,11 11,3 17,6 17,9 0,5 -6,11 -18,19 l 0,35 z"
       inkscape:connector-curvature="0"
       style="fill:#000000;fill-rule:nonzero" /><path
       id="2"
       class="fil5"
       d="m 1027,7684 c -69,168 -130,279 -186,334 -55,56 -145,94 -271,116 l -6,-15 c 89,-31 155,-65 197,-103 42,-38 81,-92 116,-161 35,-70 76,-168 122,-294 23,13 43,25 60,35 16,11 26,17 28,20 2,2 2,4 1,7 0,3 -5,5 -13,6 -7,2 -14,4 -19,7 -32,148 -44,267 -34,356 10,90 42,165 95,227 l -3,10 c -22,-8 -39,-11 -52,-10 -13,2 -26,7 -40,15 -2,1 -5,2 -8,1 -14,-4 -29,-49 -44,-135 -16,-86 3,-225 57,-416 z m -290,-152 76,23 27,-23 c 4,-3 8,-4 10,-3 5,2 14,11 29,28 14,17 22,28 25,33 3,5 5,9 3,13 -1,3 -5,6 -14,7 -8,1 -16,3 -22,5 -6,3 -17,12 -33,28 -16,15 -49,46 -99,91 34,35 54,67 60,95 6,29 6,52 1,70 -5,18 -15,34 -29,48 -14,13 -31,23 -52,29 -21,5 -36,6 -45,4 -6,-2 -8,-7 -6,-15 3,-15 1,-28 -6,-40 -7,-12 -20,-24 -37,-36 l 7,-14 c 18,12 33,19 47,23 31,9 50,-1 59,-31 6,-19 7,-39 4,-59 -4,-20 -15,-47 -35,-82 46,-60 81,-109 103,-147 l -93,-28 -158,534 c -2,5 -4,8 -6,9 -3,2 -13,3 -29,4 -17,1 -28,0 -35,-2 -1,0 -2,-1 -2,-3 1,-2 4,-10 9,-26 5,-15 13,-39 23,-73 l 132,-446 c 10,-33 16,-58 19,-74 24,19 46,38 67,58 z"
       inkscape:connector-curvature="0"
       style="fill:#000000;fill-rule:nonzero" /><path
       class="fil2"
       d="m 2515,11157 c -82,1319 -1176,2363 -2515,2363 -1339,0 -2433,-1044 -2515,-2363 l 1464,0 c 76,513 517,906 1051,906 534,0 975,-393 1051,-906 l 1464,0 z"
       id="path4538"
       inkscape:connector-curvature="0"
       style="fill:#fff700" /><path
       class="fil2"
       d="m 0,8480 c 1339,0 2433,1044 2515,2363 l -1464,0 C 975,10330 534,9937 0,9937 c -534,0 -975,393 -1051,906 l -1464,0 C -2433,9524 -1339,8480 0,8480 Z"
       id="path4540"
       inkscape:connector-curvature="0"
       style="fill:#fff700" /><path
       class="fil0"
       d="m -2429,10764 1312,0 c 110,-524 575,-906 1117,-906 542,0 1007,382 1117,906 l 1312,0 C 2310,9519 1260,8559 0,8559 c -1260,0 -2310,960 -2429,2205 z"
       id="path4542"
       inkscape:connector-curvature="0"
       style="fill:#e2001a" /><path
       class="fil2"
       d="m 834,10764 c -103,-364 -438,-630 -834,-630 -396,0 -731,266 -834,630 l 1668,0 z"
       id="path4544"
       inkscape:connector-curvature="0"
       style="fill:#fff700" /><path
       class="fil4"
       d="m 0,7102 c 2153,0 3898,1745 3898,3898 0,2153 -1745,3898 -3898,3898 -2153,0 -3898,-1745 -3898,-3898 0,-2153 1745,-3898 3898,-3898 z"
       id="path4546"
       inkscape:connector-curvature="0"
       style="fill:none" /><polygon
       class="fil0"
       points="-827,8362 -1142,8362 -1417,7496 -1063,7496 -1006,7826 "
       id="polygon4548"
       style="fill:#e2001a" /><path
       class="fil3"
       d="m -1266,7671 c 46,-5 102,9 148,31 28,14 15,60 -11,68 -5,1 -9,1 -14,0 -5,-2 -10,-7 -17,-15 -17,-18 -34,-32 -50,-42 -17,-10 -38,-20 -64,-29 l 8,-13 z m 224,258 11,5 c -14,93 -19,175 -42,266 3,24 4,36 1,36 -4,2 -37,-12 -72,-38 42,-75 83,-185 102,-269 z"
       id="path4550"
       inkscape:connector-curvature="0"
       style="fill:#000000;fill-rule:nonzero" /></g></svg>