<?xml version="1.0" encoding="UTF-8" standalone="no"?>
<!-- Creator: CorelDRAW X7 -->

<svg
   xmlns:dc="http://purl.org/dc/elements/1.1/"
   xmlns:cc="http://creativecommons.org/ns#"
   xmlns:rdf="http://www.w3.org/1999/02/22-rdf-syntax-ns#"
   xmlns:svg="http://www.w3.org/2000/svg"
   xmlns="http://www.w3.org/2000/svg"
   xmlns:sodipodi="http://sodipodi.sourceforge.net/DTD/sodipodi-0.dtd"
   xmlns:inkscape="http://www.inkscape.org/namespaces/inkscape"
   xml:space="preserve"
   width="7.8740005in"
   height="7.8740005in"
   version="1.1"
   style="clip-rule:evenodd;fill-rule:evenodd;image-rendering:optimizeQuality;shape-rendering:geometricPrecision;text-rendering:geometricPrecision"
   viewBox="0 0 7874.0005 7874.0005"
   id="svg4363"
   inkscape:version="0.91 r13725"
   sodipodi:docname="Yu Jing - Shaolin Warrior Monks v2 - [N3] [Vyo].svg"><metadata
     id="metadata4411"><rdf:RDF><cc:Work
         rdf:about=""><dc:format>image/svg+xml</dc:format><dc:type
           rdf:resource="http://purl.org/dc/dcmitype/StillImage" /></cc:Work></rdf:RDF></metadata><sodipodi:namedview
     pagecolor="#ffffff"
     bordercolor="#666666"
     borderopacity="1"
     objecttolerance="10"
     gridtolerance="10"
     guidetolerance="10"
     inkscape:pageopacity="0"
     inkscape:pageshadow="2"
     inkscape:window-width="640"
     inkscape:window-height="480"
     id="namedview4409"
     showgrid="false"
     inkscape:zoom="0.23838384"
     inkscape:cx="736.83001"
     inkscape:cy="849.33005"
     inkscape:window-x="0"
     inkscape:window-y="0"
     inkscape:window-maximized="0"
     inkscape:current-layer="svg4363" /><defs
     id="defs4365"><style
       type="text/css"
       id="style4367"><![CDATA[
    .fil1 {fill:none}
    .fil0 {fill:#E2001A}
    .fil2 {fill:white}
    .fil3 {fill:#E2001A;fill-rule:nonzero}
    .fil4 {fill:white;fill-rule:nonzero}
   ]]></style></defs><g
     id="Layer_x0020_1"
     transform="translate(3937,-7063)"><metadata
       id="CorelCorpID_0Corel-Layer" /><circle
       class="fil0"
       cy="11000"
       r="3937"
       id="circle4371"
       cx="0"
       style="fill:#e2001a" /><circle
       class="fil1"
       cy="11000"
       r="3937"
       id="circle4373"
       cx="0"
       style="fill:none" /><path
       class="fil2"
       d="m -2714,8513 c 26,-28 55,-2 29,27 -502,587 -768,1301 -840,2016 l -188,-188 c 132,-682 475,-1322 999,-1855 z m 232,213 c -520,526 -863,1191 -955,1918 l 95,95 125,-124 c 65,-676 324,-1344 764,-1863 25,-29 -2,-53 -29,-26 z m -901,2139 c -2,45 -3,90 -3,135 0,148 10,294 28,438 l -416,-223 c -3,-71 -6,-143 -6,-215 0,-169 12,-335 33,-499 l 364,364 z m 47,718 c 36,209 92,412 165,605 l -457,-125 c -67,-228 -112,-465 -135,-709 l 427,229 z m 219,743 c 118,275 271,533 454,765 l -486,0 c -183,-275 -331,-575 -437,-894 l 469,129 z m 551,883 c 55,64 112,126 172,185 219,219 468,409 741,561 l -549,117 c -167,-120 -325,-254 -471,-399 -143,-144 -275,-299 -394,-464 l 501,0 z m -290,-2789 c -21,108 -37,218 -47,330 l -382,636 c -14,-126 -22,-255 -22,-386 0,-44 1,-88 2,-131 l 449,-449 z m -57,576 c -1,127 7,255 24,381 l -224,742 c -63,-177 -112,-360 -145,-548 l 345,-575 z m 69,639 c 49,221 123,433 220,631 l 1,748 c -169,-219 -311,-460 -420,-718 l 199,-661 z m 338,851 c 124,210 274,403 446,574 97,97 200,187 310,269 l 142,562 c -269,-150 -514,-337 -730,-553 -58,-57 -114,-117 -168,-180 l 0,-672 z m -328,-2254 c 104,-448 297,-891 613,-1267 26,-30 -1,-54 -29,-26 -443,445 -736,980 -846,1554 l 262,-261 z"
       id="path4375"
       inkscape:connector-curvature="0"
       style="fill:#ffffff" /><path
       class="fil2"
       d="m 2714,8513 c -26,-28 -55,-2 -29,27 502,587 768,1301 840,2016 l 188,-188 C 3581,9686 3238,9046 2714,8513 Z m -232,213 c 520,526 863,1191 955,1918 l -95,95 -125,-124 c -65,-676 -324,-1344 -764,-1863 -25,-29 2,-53 29,-26 z m 901,2139 c 2,45 3,90 3,135 0,148 -10,294 -28,438 l 416,-223 c 3,-71 6,-143 6,-215 0,-169 -12,-335 -33,-499 l -364,364 z m -47,718 c -36,209 -92,412 -165,605 l 457,-125 c 67,-228 112,-465 135,-709 l -427,229 z m -219,743 c -118,275 -271,533 -454,765 l 486,0 c 183,-275 331,-575 437,-894 l -469,129 z m -551,883 c -55,64 -112,126 -172,185 -219,219 -468,409 -741,561 l 549,117 c 167,-120 325,-254 471,-399 143,-144 275,-299 394,-464 l -501,0 z m 290,-2789 c 21,108 37,218 47,330 l 382,636 c 14,-126 22,-255 22,-386 0,-44 -1,-88 -2,-131 l -449,-449 z m 57,576 c 1,127 -7,255 -24,381 l 224,742 c 63,-177 112,-360 145,-548 l -345,-575 z m -69,639 c -49,221 -123,433 -220,631 l -1,748 c 169,-219 311,-460 420,-718 l -199,-661 z m -338,851 c -124,210 -274,403 -446,574 -97,97 -200,187 -310,269 l -142,562 c 269,-150 514,-337 730,-553 58,-57 114,-117 168,-180 l 0,-672 z m 328,-2254 c -104,-448 -297,-891 -613,-1267 -26,-30 1,-54 29,-26 443,445 736,980 846,1554 l -262,-261 z"
       id="path4377"
       inkscape:connector-curvature="0"
       style="fill:#ffffff" /><path
       class="fil2"
       d="m 0,14780 c -763,0 -1473,-227 -2067,-615 l 617,-132 -152,-599 c 460,303 1010,479 1602,479 592,0 1142,-176 1602,-479 l -152,599 617,132 c -594,388 -1304,615 -2067,615 z"
       id="path4379"
       inkscape:connector-curvature="0"
       style="fill:#ffffff" /><path
       class="fil3"
       d="m -502,14055 -246,-32 c -15,-2 -26,-2 -35,1 l -10,-39 c 11,4 25,7 41,9 l 526,69 42,-45 c 6,-6 13,-9 20,-8 7,1 23,16 46,44 22,27 34,44 33,51 -1,3 -6,4 -16,3 l -323,-43 -29,223 159,21 42,-49 c 5,-6 9,-8 13,-8 4,1 11,6 21,15 10,9 22,21 36,36 14,15 22,25 25,30 3,4 4,8 3,11 -1,7 -7,10 -20,9 l -283,-38 -40,309 224,29 43,-41 c 6,-7 14,-9 21,-8 8,1 24,14 48,40 23,26 35,41 34,47 -1,5 -8,7 -22,5 l -712,-93 c -15,-2 -27,-2 -35,1 l -10,-38 c 11,4 24,7 40,9 l 290,38 41,-308 -208,-27 c -14,-2 -26,-2 -35,1 l -10,-39 c 11,4 25,8 41,10 l 215,28 30,-223 z m 120,338 c 51,40 86,69 103,90 18,20 26,38 24,53 -2,14 -8,28 -19,42 -10,14 -20,20 -28,19 -8,-1 -14,-4 -18,-8 -3,-4 -8,-20 -15,-48 -6,-29 -14,-53 -23,-74 -8,-21 -20,-41 -35,-62 l 11,-12 z m 822,-318 c -22,-57 -47,-97 -78,-120 l 5,-13 c 87,3 132,22 137,55 1,10 -2,23 -9,37 -7,15 -18,28 -34,38 l 227,-30 31,-61 c 5,-10 10,-15 16,-16 5,-1 12,1 19,6 7,4 20,13 36,26 17,13 29,22 35,28 6,5 9,11 10,15 0,5 -5,8 -16,10 l -695,91 c -15,2 -26,5 -34,10 l -19,-32 c 12,1 26,1 42,-1 l 327,-43 z m -107,124 271,-35 18,-35 c 3,-5 6,-8 9,-9 5,0 20,5 45,16 24,11 39,18 43,20 5,3 7,5 8,8 0,6 -11,17 -35,34 l 13,107 7,36 c 1,5 -1,10 -5,13 -3,3 -12,8 -25,14 -13,6 -23,9 -28,10 -5,1 -8,0 -10,-3 -1,-2 -2,-6 -3,-12 l -3,-20 -107,14 29,223 c 6,42 5,69 -3,82 -8,12 -21,23 -39,33 -19,9 -30,14 -34,15 -5,0 -9,-4 -13,-14 -7,-18 -17,-31 -32,-40 -14,-9 -41,-18 -80,-26 l 0,-14 c 56,2 90,2 103,0 13,-2 21,-5 24,-8 2,-4 2,-10 1,-19 l -29,-222 -121,16 c 1,12 1,20 -1,23 -3,3 -12,8 -27,15 -15,7 -25,11 -31,11 -5,1 -8,-3 -8,-10 0,-18 -1,-38 -4,-59 l -16,-124 c -3,-23 -7,-46 -12,-69 46,11 78,21 95,29 z m 302,118 -17,-132 -302,40 17,132 302,-40 z m -321,111 c 16,5 32,11 47,18 16,7 27,13 32,16 5,3 8,6 8,10 1,5 -2,8 -10,9 -7,2 -13,5 -16,8 -4,4 -18,22 -41,53 -24,31 -48,59 -73,84 -25,25 -63,57 -114,94 l -9,-10 c 53,-66 92,-118 115,-156 24,-38 44,-80 61,-126 z m 263,-21 c 62,15 120,33 173,53 53,21 81,48 86,81 2,16 0,33 -5,49 -5,16 -12,25 -22,27 -4,0 -8,-1 -12,-4 -3,-2 -9,-8 -16,-18 -30,-38 -60,-70 -91,-95 -31,-25 -71,-51 -119,-79 l 6,-14 z"
       id="path4381"
       inkscape:connector-curvature="0"
       style="fill:#e2001a;fill-rule:nonzero" /><circle
       class="fil1"
       cy="11000"
       r="3898"
       id="circle4383"
       cx="0"
       style="fill:none" /><circle
       class="fil1"
       cy="11000"
       r="3898"
       id="circle4385"
       cx="0"
       style="fill:none" /><circle
       class="fil1"
       cy="11000"
       r="3898"
       id="circle4387"
       cx="0"
       style="fill:none" /><path
       class="fil4"
       d="m -1674,8264 56,-38 c 16,22 33,38 51,47 19,10 41,13 68,11 26,-3 53,-11 79,-26 24,-13 43,-28 57,-45 15,-17 23,-34 25,-52 2,-17 -1,-33 -9,-47 -8,-15 -20,-25 -34,-32 -15,-6 -34,-7 -58,-4 -15,2 -47,10 -96,23 -49,14 -85,21 -107,21 -29,1 -54,-5 -74,-16 -21,-11 -37,-28 -49,-50 -13,-23 -19,-49 -16,-77 2,-28 13,-55 33,-80 20,-25 45,-46 77,-63 35,-19 69,-31 101,-34 33,-4 63,2 89,15 26,14 48,35 64,62 l -57,37 c -20,-28 -43,-44 -70,-49 -27,-5 -58,2 -94,22 -38,21 -61,43 -71,66 -10,23 -9,45 2,64 9,17 23,28 41,32 18,4 55,-2 112,-18 57,-17 97,-26 121,-28 34,-2 63,3 87,15 23,12 42,30 56,56 14,25 20,52 17,82 -2,30 -13,59 -33,86 -20,27 -46,50 -80,68 -43,24 -82,37 -117,41 -36,3 -69,-3 -99,-19 -30,-16 -54,-39 -72,-70 z"
       id="path4389"
       inkscape:connector-curvature="0"
       style="fill:#ffffff;fill-rule:nonzero" /><polygon
       id="1"
       class="fil4"
       points="-1129,7843 -862,7760 -927,7549 -860,7528 -700,8041 -768,8062 -843,7821 -1110,7903 -1035,8145 -1103,8166 -1262,7653 -1194,7632 "
       style="fill:#ffffff;fill-rule:nonzero" /><path
       id="2"
       class="fil4"
       d="m -621,8026 129,-560 75,-11 293,500 -80,12 -85,-152 -222,31 -35,169 -75,11 z m 122,-240 180,-26 -76,-139 c -23,-42 -41,-77 -53,-105 -2,35 -7,70 -14,106 l -37,164 z"
       inkscape:connector-curvature="0"
       style="fill:#ffffff;fill-rule:nonzero" /><path
       id="3"
       class="fil4"
       d="m -44,7693 c 7,-89 37,-156 89,-202 51,-47 115,-67 190,-60 50,4 93,19 131,46 37,27 65,62 82,106 18,44 24,93 20,146 -5,54 -20,102 -45,143 -26,41 -59,71 -101,89 -42,19 -86,26 -133,23 -50,-4 -94,-20 -132,-48 -37,-28 -65,-63 -82,-107 -16,-44 -23,-89 -19,-136 z m 73,7 c -6,65 8,117 39,157 32,40 74,62 126,66 53,5 98,-11 136,-45 37,-35 59,-86 65,-155 3,-44 -1,-82 -13,-116 -12,-34 -31,-61 -58,-81 -27,-20 -58,-32 -93,-34 -50,-5 -95,9 -134,40 -39,32 -62,88 -68,168 z"
       inkscape:connector-curvature="0"
       style="fill:#ffffff;fill-rule:nonzero" /><polygon
       id="4"
       class="fil4"
       points="637,7967 895,8025 882,8087 554,8014 671,7490 740,7505 "
       style="fill:#ffffff;fill-rule:nonzero" /><polygon
       id="5"
       class="fil4"
       points="1058,8156 991,8133 1162,7624 1229,7647 "
       style="fill:#ffffff;fill-rule:nonzero" /><polygon
       id="6"
       class="fil4"
       points="1564,8266 1761,7893 1821,7924 1571,8400 1507,8366 1453,7861 1257,8234 1197,8203 1447,7727 1511,7761 "
       style="fill:#ffffff;fill-rule:nonzero" /><circle
       class="fil2"
       cy="11000"
       r="2205"
       id="circle4397"
       cx="0"
       style="fill:#ffffff" /><circle
       class="fil0"
       cy="11000"
       r="2087"
       id="circle4399"
       cx="0"
       style="fill:#e2001a" /><path
       class="fil2"
       d="m -59,11154 c -124,463 -588,741 -1036,621 -448,-120 -711,-593 -587,-1056 62,-232 294,-371 518,-311 224,60 356,297 294,528 -62,232 69,468 293,528 224,60 456,-79 518,-310 z m -1358,-558 c 49,0 88,40 88,89 0,49 -39,89 -88,89 -49,0 -89,-40 -89,-89 0,-49 40,-89 89,-89 z"
       id="path4401"
       inkscape:connector-curvature="0"
       style="fill:#ffffff" /><path
       class="fil2"
       d="m 163,10974 c 463,-124 935,139 1055,587 120,448 -158,912 -621,1036 -231,62 -468,-69 -528,-293 -60,-224 79,-456 311,-518 231,-62 371,-294 310,-518 -60,-224 -296,-356 -527,-294 z m 196,1455 c -24,-42 -10,-96 33,-121 42,-24 96,-10 121,33 24,42 10,96 -33,121 -42,24 -96,10 -121,-33 z"
       id="path4403"
       inkscape:connector-curvature="0"
       style="fill:#ffffff" /><path
       class="fil2"
       d="m -103,10872 c -339,-339 -348,-880 -20,-1208 328,-328 868,-319 1207,20 170,170 174,440 10,604 -164,164 -434,160 -604,-10 -169,-169 -439,-174 -603,-10 -164,164 -160,435 10,604 z m 1161,-898 c -24,43 -78,57 -121,33 -42,-25 -57,-79 -32,-121 24,-43 78,-57 121,-33 42,25 57,79 32,121 z"
       id="path4405"
       inkscape:connector-curvature="0"
       style="fill:#ffffff" /><circle
       class="fil2"
       cy="11000"
       r="108"
       id="circle4407"
       cx="0"
       style="fill:#ffffff" /></g></svg>