<?xml version="1.0" encoding="UTF-8" standalone="no"?>
<!-- Creator: CorelDRAW X7 -->

<svg
   xmlns:dc="http://purl.org/dc/elements/1.1/"
   xmlns:cc="http://creativecommons.org/ns#"
   xmlns:rdf="http://www.w3.org/1999/02/22-rdf-syntax-ns#"
   xmlns:svg="http://www.w3.org/2000/svg"
   xmlns="http://www.w3.org/2000/svg"
   xmlns:sodipodi="http://sodipodi.sourceforge.net/DTD/sodipodi-0.dtd"
   xmlns:inkscape="http://www.inkscape.org/namespaces/inkscape"
   xml:space="preserve"
   width="7.8740005in"
   height="7.8740005in"
   version="1.1"
   style="clip-rule:evenodd;fill-rule:evenodd;image-rendering:optimizeQuality;shape-rendering:geometricPrecision;text-rendering:geometricPrecision"
   viewBox="0 0 7874.0005 7874.0005"
   id="svg4598"
   inkscape:version="0.91 r13725"
   sodipodi:docname="Yu Jing - Yaopu Pangguling - [N3] [Vyo].svg"><metadata
     id="metadata4641"><rdf:RDF><cc:Work
         rdf:about=""><dc:format>image/svg+xml</dc:format><dc:type
           rdf:resource="http://purl.org/dc/dcmitype/StillImage" /></cc:Work></rdf:RDF></metadata><sodipodi:namedview
     pagecolor="#ffffff"
     bordercolor="#666666"
     borderopacity="1"
     objecttolerance="10"
     gridtolerance="10"
     guidetolerance="10"
     inkscape:pageopacity="0"
     inkscape:pageshadow="2"
     inkscape:window-width="640"
     inkscape:window-height="480"
     id="namedview4639"
     showgrid="false"
     inkscape:zoom="0.23838384"
     inkscape:cx="736.83001"
     inkscape:cy="849.33005"
     inkscape:window-x="0"
     inkscape:window-y="0"
     inkscape:window-maximized="0"
     inkscape:current-layer="svg4598" /><defs
     id="defs4600"><style
       type="text/css"
       id="style4602"><![CDATA[
    .fil2 {fill:none}
    .fil0 {fill:#E2001A}
    .fil1 {fill:white}
    .fil4 {fill:#E2001A;fill-rule:nonzero}
    .fil3 {fill:white;fill-rule:nonzero}
   ]]></style></defs><g
     id="Layer_x0020_1"
     transform="translate(3937,-7063)"><metadata
       id="CorelCorpID_0Corel-Layer" /><circle
       class="fil0"
       cy="11000"
       r="3937"
       id="circle4606"
       cx="0"
       style="fill:#e2001a" /><circle
       class="fil1"
       cy="11000"
       r="3819"
       id="circle4608"
       cx="0"
       style="fill:#ffffff" /><circle
       class="fil2"
       cy="11000"
       r="3898"
       id="circle4610"
       cx="0"
       style="fill:none" /><path
       class="fil0"
       d="m -2659,8563 c 25,-28 54,-2 28,26 -491,576 -752,1276 -823,1976 l -184,-184 c 130,-669 466,-1295 979,-1818 z m 227,209 c -510,515 -846,1167 -936,1879 l 94,94 122,-123 c 64,-662 317,-1316 749,-1824 25,-29 -2,-53 -29,-26 z m -883,2096 c -2,44 -2,88 -2,132 0,145 9,289 27,429 l -407,-218 c -4,-70 -6,-140 -6,-211 0,-166 11,-329 32,-489 l 356,357 z m 47,703 c 35,205 89,403 161,593 l -448,-122 c -65,-224 -110,-456 -132,-695 l 419,224 z m 214,728 c 116,270 266,522 445,750 l -476,0 c -179,-270 -324,-564 -429,-876 l 460,126 z m 540,866 c 54,62 110,122 168,181 215,215 459,400 726,550 l -537,114 c -164,-118 -319,-249 -462,-391 -140,-141 -269,-293 -386,-454 l 491,0 z m -284,-2733 c -21,105 -37,213 -46,323 l -374,624 c -15,-125 -22,-251 -22,-379 0,-43 1,-86 2,-128 l 440,-440 z m -57,564 c 0,125 8,250 24,373 l -219,727 c -62,-173 -110,-352 -142,-537 l 337,-563 z m 68,626 c 49,217 121,424 216,619 l 1,732 c -166,-215 -304,-451 -412,-703 l 195,-648 z m 331,834 c 122,205 269,394 438,562 94,95 196,184 303,264 l 140,550 c -264,-147 -505,-329 -716,-541 -57,-56 -112,-115 -164,-176 l -1,-659 z m -321,-2209 c 102,-438 291,-873 601,-1241 25,-29 -1,-53 -28,-26 -435,437 -721,961 -829,1524 l 256,-257 z"
       id="path4612"
       inkscape:connector-curvature="0"
       style="fill:#e2001a" /><path
       class="fil0"
       d="m 2659,8563 c -25,-28 -54,-2 -28,26 491,576 752,1276 823,1976 l 184,-184 C 3508,9712 3172,9086 2659,8563 Z m -227,209 c 510,515 846,1167 936,1879 l -94,94 -122,-123 c -64,-662 -317,-1316 -749,-1824 -25,-29 2,-53 29,-26 z m 883,2096 c 2,44 2,88 2,132 0,145 -9,289 -27,429 l 407,-218 c 4,-70 6,-140 6,-211 0,-166 -11,-329 -32,-489 l -356,357 z m -47,703 c -35,205 -89,403 -161,593 l 448,-122 c 65,-224 110,-456 132,-695 l -419,224 z m -214,728 c -116,270 -266,522 -445,750 l 476,0 c 179,-270 324,-564 429,-876 l -460,126 z m -540,866 c -54,62 -110,122 -168,181 -215,215 -459,400 -726,550 l 537,114 c 164,-118 319,-249 462,-391 140,-141 269,-293 386,-454 l -491,0 z m 284,-2733 c 21,105 37,213 46,323 l 374,624 c 15,-125 22,-251 22,-379 0,-43 -1,-86 -2,-128 l -440,-440 z m 57,564 c 0,125 -8,250 -24,373 l 219,727 c 62,-173 110,-352 142,-537 l -337,-563 z m -68,626 c -49,217 -121,424 -216,619 l -1,732 c 166,-215 304,-451 412,-703 l -195,-648 z m -331,834 c -122,205 -269,394 -438,562 -94,95 -196,184 -303,264 l -140,550 c 264,-147 505,-329 716,-541 57,-56 112,-115 164,-176 l 1,-659 z m 321,-2209 c -102,-438 -291,-873 -601,-1241 -25,-29 1,-53 28,-26 435,437 721,961 829,1524 l -256,-257 z"
       id="path4614"
       inkscape:connector-curvature="0"
       style="fill:#e2001a" /><path
       class="fil0"
       d="m 0,14703 c -748,0 -1443,-221 -2025,-602 l 604,-129 -148,-587 c 450,297 989,470 1569,470 580,0 1119,-173 1569,-470 l -148,587 604,129 c -582,381 -1277,602 -2025,602 z"
       id="path4616"
       inkscape:connector-curvature="0"
       style="fill:#e2001a" /><circle
       class="fil2"
       cy="11000"
       r="3819"
       id="circle4618"
       cx="0"
       style="fill:none" /><path
       class="fil3"
       d="m -806,14463 324,42 34,-262 -274,-36 7,-59 275,37 26,-198 -294,-39 8,-58 662,87 -8,59 -303,-40 -26,197 284,38 -8,58 -284,-37 -34,262 332,44 -7,59 -722,-96 8,-58 z m 495,-130 52,-30 c 36,54 68,106 97,157 l -57,33 c -24,-46 -54,-100 -92,-160 z m 431,-200 538,-71 34,254 -59,8 -4,-30 -173,23 25,191 c 8,59 -16,93 -73,101 -36,5 -69,10 -99,14 -6,-22 -12,-41 -19,-60 34,-1 63,-4 88,-7 32,-3 45,-22 41,-55 l -23,-176 -188,24 5,34 -59,8 -34,-258 z m 486,-12 -421,56 16,120 421,-55 -16,-121 z m -600,-95 348,-46 c -18,-25 -38,-50 -60,-76 l 52,-34 c 24,27 47,56 71,86 l -28,19 354,-46 7,52 -737,98 -7,-53 z m 248,382 47,40 c -61,59 -122,114 -184,166 -12,-16 -26,-32 -42,-46 64,-49 123,-102 179,-160 z m 298,12 30,-50 c 74,31 145,64 214,97 l -33,57 c -58,-32 -129,-67 -211,-104 z"
       id="path4620"
       inkscape:connector-curvature="0"
       style="fill:#ffffff;fill-rule:nonzero" /><circle
       class="fil2"
       cy="11000"
       r="3898"
       id="circle4622"
       cx="0"
       style="fill:none" /><path
       class="fil4"
       d="m -1892,8366 c 14,18 24,37 30,58 6,21 8,42 6,62 -4,25 -12,49 -26,71 -14,22 -35,45 -65,68 l -46,36 120,155 -55,43 -323,-415 104,-81 c 25,-19 47,-33 68,-43 20,-9 41,-14 61,-15 24,-2 46,3 67,12 22,9 41,26 59,49 z m -56,45 c -11,-14 -23,-24 -36,-31 -13,-7 -27,-9 -43,-8 -13,1 -26,5 -40,11 -13,7 -29,17 -46,30 l -46,36 128,165 38,-30 c 22,-17 39,-33 50,-47 11,-14 18,-30 19,-46 2,-15 1,-28 -3,-41 -4,-13 -11,-26 -21,-39 z"
       id="path4624"
       inkscape:connector-curvature="0"
       style="fill:#e2001a;fill-rule:nonzero" /><path
       id="1"
       class="fil4"
       d="m -1671,8660 -141,-535 71,-48 437,341 -62,41 -120,-96 -167,111 41,147 -59,39 z m 136,-337 -204,-162 69,251 135,-89 z"
       inkscape:connector-curvature="0"
       style="fill:#e2001a;fill-rule:nonzero" /><polygon
       id="2"
       class="fil4"
       points="-1192,8381 -1252,8405 -1451,7919 -1360,7882 -1006,8186 -1164,7802 -1103,7777 -905,8263 -977,8292 -1364,7961 "
       style="fill:#e2001a;fill-rule:nonzero" /><path
       id="3"
       class="fil4"
       d="m -586,8195 c -36,8 -70,10 -103,6 -33,-4 -62,-15 -89,-32 -27,-18 -49,-42 -69,-73 -19,-31 -33,-68 -43,-112 -10,-41 -12,-80 -8,-115 4,-35 14,-67 30,-95 16,-27 37,-50 65,-70 28,-19 60,-32 96,-41 17,-4 34,-6 50,-7 17,-1 32,-1 48,0 12,1 26,2 41,5 16,3 29,6 38,8 l 19,82 -6,2 c -10,-6 -20,-11 -31,-16 -11,-5 -25,-9 -43,-13 -16,-4 -33,-6 -52,-7 -19,0 -38,2 -59,7 -49,11 -85,39 -106,83 -22,44 -26,97 -12,159 8,34 19,63 33,87 14,24 30,43 49,58 19,14 40,24 63,28 22,5 47,4 73,-2 19,-4 37,-10 56,-17 18,-7 33,-15 45,-23 l -30,-133 -118,27 -14,-60 186,-43 51,224 c -8,6 -18,13 -32,23 -13,9 -25,17 -37,23 -16,9 -30,16 -43,22 -13,6 -29,11 -48,15 z"
       inkscape:connector-curvature="0"
       style="fill:#e2001a;fill-rule:nonzero" /><path
       id="4"
       class="fil4"
       d="m -110,8136 c -37,0 -71,-5 -102,-16 -31,-11 -58,-27 -80,-50 -23,-23 -40,-52 -52,-86 -12,-34 -19,-74 -19,-118 -1,-43 4,-81 16,-114 11,-34 28,-63 49,-87 21,-23 48,-41 79,-54 31,-13 65,-20 102,-21 18,0 34,1 51,4 16,2 31,5 46,10 12,3 25,8 40,14 14,6 26,11 35,15 l 1,84 -6,0 c -8,-7 -18,-14 -27,-21 -9,-7 -22,-14 -40,-22 -14,-7 -30,-12 -48,-17 -19,-4 -38,-6 -60,-6 -50,1 -91,21 -121,59 -31,39 -45,89 -44,153 0,35 5,66 13,92 9,26 21,48 36,66 16,18 34,32 55,41 22,9 46,13 72,13 20,0 39,-2 59,-5 19,-3 36,-7 49,-13 l -2,-135 -121,2 0,-62 189,-3 4,229 c -9,4 -21,9 -36,16 -15,6 -29,11 -41,15 -18,5 -33,9 -47,12 -14,3 -30,4 -50,5 z"
       inkscape:connector-curvature="0"
       style="fill:#e2001a;fill-rule:nonzero" /><path
       id="5"
       class="fil4"
       d="m 333,8155 c -30,-4 -56,-12 -78,-24 -22,-11 -39,-26 -53,-44 -15,-21 -25,-45 -28,-71 -4,-26 -3,-58 2,-95 l 49,-324 69,11 -48,323 c -4,24 -5,44 -5,61 1,17 5,32 11,47 8,15 19,27 34,37 14,10 33,16 56,20 22,3 42,2 59,-3 18,-4 33,-13 44,-25 11,-12 19,-26 24,-42 6,-15 10,-34 14,-58 l 49,-324 69,10 -49,324 c -5,36 -13,66 -24,91 -12,25 -28,45 -49,60 -19,13 -40,22 -63,27 -23,4 -51,4 -83,-1 z"
       inkscape:connector-curvature="0"
       style="fill:#e2001a;fill-rule:nonzero" /><polygon
       id="6"
       class="fil4"
       points="843,7701 708,8143 933,8212 915,8271 623,8182 776,7680 "
       style="fill:#e2001a;fill-rule:nonzero" /><polygon
       id="7"
       class="fil4"
       points="1028,8256 1172,7862 1109,7839 1128,7789 1320,7860 1301,7910 1238,7887 1094,8280 1157,8303 1139,8353 947,8283 965,8233 "
       style="fill:#e2001a;fill-rule:nonzero" /><polygon
       id="8"
       class="fil4"
       points="1276,8418 1218,8386 1474,7928 1561,7976 1542,8442 1745,8078 1802,8111 1546,8569 1478,8531 1496,8023 "
       style="fill:#e2001a;fill-rule:nonzero" /><path
       id="9"
       class="fil4"
       d="m 1800,8774 c -28,-23 -51,-49 -67,-78 -17,-28 -26,-58 -29,-90 -2,-32 3,-65 16,-99 13,-34 34,-69 62,-103 27,-33 56,-58 87,-77 30,-18 62,-29 94,-33 31,-4 63,-1 95,9 32,10 62,27 91,51 14,11 26,23 37,35 11,13 20,25 29,38 7,11 14,23 21,37 7,14 13,25 17,34 l -54,66 -5,-4 c -1,-12 -4,-23 -7,-34 -2,-12 -8,-26 -16,-43 -6,-14 -15,-29 -26,-44 -11,-16 -25,-30 -41,-44 -39,-32 -83,-43 -131,-34 -49,10 -93,39 -133,88 -23,27 -39,53 -50,79 -10,25 -15,50 -15,74 0,24 5,46 16,67 10,21 25,40 46,56 15,13 31,24 48,35 16,10 32,17 46,21 l 86,-104 -93,-77 40,-48 147,121 -147,178 c -9,-3 -22,-7 -37,-11 -16,-5 -30,-10 -42,-16 -16,-7 -31,-14 -43,-21 -13,-6 -26,-16 -42,-29 z"
       inkscape:connector-curvature="0"
       style="fill:#e2001a;fill-rule:nonzero" /><circle
       class="fil2"
       cy="11000"
       r="3898"
       id="circle4635"
       cx="0"
       style="fill:none" /><path
       class="fil0"
       d="m -2103,10685 4206,0 C 1951,9660 1067,8874 0,8874 c -1067,0 -1951,786 -2103,1811 z M 0,12496 c -152,0 -276,-123 -276,-276 0,-152 124,-275 276,-275 152,0 276,123 276,275 0,153 -124,276 -276,276 z M 0,9504 c 152,0 276,123 276,276 0,152 -124,275 -276,275 -152,0 -276,-123 -276,-275 0,-153 124,-276 276,-276 z m 2103,1811 -4206,0 c 152,1025 1036,1811 2103,1811 1067,0 1951,-786 2103,-1811 z M 161,13593 C 1521,13510 2598,12381 2598,11000 2598,9619 1521,8490 161,8407 L 0,8756 -161,8407 c -1360,83 -2437,1212 -2437,2593 0,1381 1077,2510 2437,2593 l 161,-349 161,349 z"
       id="path4637"
       inkscape:connector-curvature="0"
       style="fill:#e2001a" /></g></svg>