<?xml version="1.0" encoding="UTF-8" standalone="no"?>
<!-- Creator: CorelDRAW X7 -->

<svg
   xmlns:dc="http://purl.org/dc/elements/1.1/"
   xmlns:cc="http://creativecommons.org/ns#"
   xmlns:rdf="http://www.w3.org/1999/02/22-rdf-syntax-ns#"
   xmlns:svg="http://www.w3.org/2000/svg"
   xmlns="http://www.w3.org/2000/svg"
   xmlns:sodipodi="http://sodipodi.sourceforge.net/DTD/sodipodi-0.dtd"
   xmlns:inkscape="http://www.inkscape.org/namespaces/inkscape"
   xml:space="preserve"
   width="7.8740005in"
   height="7.8740005in"
   version="1.1"
   style="clip-rule:evenodd;fill-rule:evenodd;image-rendering:optimizeQuality;shape-rendering:geometricPrecision;text-rendering:geometricPrecision"
   viewBox="0 0 7874.0005 7874.0005"
   id="svg3817"
   inkscape:version="0.91 r13725"
   sodipodi:docname="Yu Jing - Kempeitai - [N3] [Vyo].svg"><metadata
     id="metadata3835"><rdf:RDF><cc:Work
         rdf:about=""><dc:format>image/svg+xml</dc:format><dc:type
           rdf:resource="http://purl.org/dc/dcmitype/StillImage" /></cc:Work></rdf:RDF></metadata><sodipodi:namedview
     pagecolor="#ffffff"
     bordercolor="#666666"
     borderopacity="1"
     objecttolerance="10"
     gridtolerance="10"
     guidetolerance="10"
     inkscape:pageopacity="0"
     inkscape:pageshadow="2"
     inkscape:window-width="640"
     inkscape:window-height="480"
     id="namedview3833"
     showgrid="false"
     inkscape:zoom="0.23838384"
     inkscape:cx="736.83001"
     inkscape:cy="849.33005"
     inkscape:window-x="0"
     inkscape:window-y="0"
     inkscape:window-maximized="0"
     inkscape:current-layer="svg3817" /><defs
     id="defs3819"><style
       type="text/css"
       id="style3821"><![CDATA[
    .fil0 {fill:#E2001A}
    .fil1 {fill:white}
    .fil2 {fill:white;fill-rule:nonzero}
   ]]></style></defs><g
     id="Layer_x0020_1"
     transform="translate(3937,-7063)"><metadata
       id="CorelCorpID_0Corel-Layer" /><circle
       class="fil0"
       cy="11000"
       r="3937"
       id="circle3825"
       cx="0"
       style="fill:#e2001a" /><circle
       class="fil1"
       cy="11000"
       r="3819"
       id="circle3827"
       cx="0"
       style="fill:#ffffff" /><circle
       class="fil0"
       cy="11000"
       r="2756"
       id="circle3829"
       cx="0"
       style="fill:#e2001a" /><path
       class="fil2"
       d="m -1369,13049 c -66,44 -139,69 -213,76 -106,10 -216,-16 -312,-81 -29,-19 -57,-42 -83,-67 -25,-26 -48,-54 -67,-83 -65,-96 -91,-206 -81,-312 7,-74 32,-147 76,-213 -77,15 -154,11 -226,-11 -102,-31 -193,-98 -257,-194 -19,-29 -36,-60 -50,-94 -15,-35 -25,-69 -32,-102 -22,-114 -5,-225 45,-319 35,-67 87,-124 152,-168 -77,-16 -147,-49 -204,-97 -83,-68 -141,-164 -164,-278 -7,-34 -10,-69 -10,-106 0,-37 3,-72 10,-106 23,-114 81,-210 164,-278 57,-48 127,-81 204,-97 -65,-44 -117,-101 -152,-168 -50,-94 -67,-205 -45,-319 7,-33 17,-67 32,-102 14,-34 31,-65 50,-94 64,-96 155,-163 257,-194 72,-22 149,-26 226,-11 -44,-66 -69,-139 -76,-213 -10,-106 16,-216 81,-312 19,-29 42,-57 67,-83 26,-25 54,-48 83,-67 96,-65 206,-91 312,-81 74,7 147,32 213,76 -15,-77 -11,-154 11,-226 31,-102 98,-193 194,-257 29,-19 60,-36 94,-50 35,-15 69,-25 102,-32 114,-22 225,-5 319,45 67,35 124,87 168,152 16,-77 49,-146 97,-204 68,-83 164,-141 278,-164 34,-7 69,-10 106,-10 37,0 72,3 106,10 114,23 210,81 278,164 48,58 81,127 97,204 44,-65 101,-117 168,-152 94,-50 205,-67 319,-45 33,7 67,17 102,32 34,14 65,31 94,50 96,64 163,155 194,257 22,72 26,149 11,226 66,-44 139,-69 213,-76 106,-10 216,16 312,81 29,19 57,42 83,67 25,26 48,54 67,83 65,96 91,206 81,312 -7,74 -32,147 -76,213 77,-15 154,-11 226,11 102,31 193,98 257,194 19,29 36,60 50,94 15,35 25,69 32,102 22,114 5,225 -45,319 -35,67 -87,124 -152,168 77,16 147,49 204,97 83,68 141,164 164,278 7,34 10,69 10,106 0,37 -3,72 -10,106 -23,114 -81,210 -164,278 -57,48 -127,81 -204,97 65,44 117,101 152,168 50,94 67,205 45,319 -7,33 -17,67 -32,102 -14,34 -31,65 -50,94 -64,96 -155,163 -257,194 -72,22 -149,26 -226,11 44,66 69,139 76,213 10,106 -16,216 -81,312 -19,29 -42,57 -67,83 -26,25 -54,48 -83,67 -96,65 -206,91 -312,81 -74,-7 -147,-32 -213,-76 15,77 11,154 -11,226 -31,102 -98,193 -194,257 -29,19 -60,36 -94,50 -35,15 -69,25 -102,32 -114,22 -225,5 -319,-45 -67,-35 -124,-87 -168,-152 -16,77 -49,147 -97,204 -68,83 -164,141 -278,164 -34,7 -69,10 -106,10 -37,0 -72,-3 -106,-10 -114,-23 -210,-81 -278,-164 -48,-57 -81,-127 -97,-204 -44,65 -101,117 -168,152 -94,50 -205,67 -319,45 -33,-7 -67,-17 -102,-32 -34,-14 -65,-31 -94,-50 -96,-64 -163,-155 -194,-257 -22,-72 -26,-149 -11,-226 z M 0,11315 c 87,0 166,-35 223,-92 57,-57 92,-136 92,-223 0,-87 -35,-166 -92,-223 -57,-57 -136,-92 -223,-92 -87,0 -166,35 -223,92 -57,57 -92,136 -92,223 0,87 35,166 92,223 57,57 136,92 223,92 z m 278,-37 c -9,9 -18,18 -28,26 l 1041,1557 c 17,25 36,49 57,70 69,68 154,108 242,116 88,8 180,-14 260,-68 25,-16 48,-36 71,-58 22,-23 42,-46 58,-71 54,-80 76,-172 68,-260 -8,-88 -48,-173 -116,-242 -21,-21 -45,-40 -70,-57 L 304,11250 c -8,10 -17,19 -26,28 z m -93,70 c -22,11 -46,21 -70,29 l 365,1836 c 6,31 15,60 26,86 37,90 101,159 180,200 78,42 171,56 266,37 30,-5 59,-14 88,-26 29,-12 56,-27 80,-43 81,-54 137,-130 163,-215 26,-85 22,-178 -15,-268 -11,-27 -25,-54 -43,-80 L 185,11348 Z m -147,44 c -13,1 -25,2 -38,2 -13,0 -25,-1 -38,-2 l -365,1836 c -6,31 -9,61 -9,90 0,97 32,185 89,254 56,68 136,117 232,136 29,6 59,9 91,9 32,0 62,-3 91,-9 96,-19 176,-68 232,-136 57,-69 89,-157 89,-254 0,-29 -3,-59 -9,-90 L 38,11392 Z m -153,-15 c -24,-8 -48,-18 -70,-29 l -1040,1556 c -18,26 -32,53 -43,80 -37,90 -41,183 -15,268 26,85 82,161 163,215 24,16 51,31 80,43 29,12 58,21 88,26 95,19 188,5 266,-37 79,-41 143,-110 180,-200 11,-26 20,-55 26,-86 l 365,-1836 z m -135,-73 c -10,-8 -19,-17 -28,-26 -9,-9 -18,-18 -26,-28 l -1557,1041 c -25,17 -49,36 -70,57 -68,69 -108,154 -116,242 -8,88 14,180 68,260 16,25 36,48 58,71 23,22 46,42 71,58 80,54 172,76 260,68 88,-8 173,-48 242,-116 21,-21 40,-45 57,-70 l 1041,-1557 z m -98,-119 c -11,-22 -21,-46 -29,-70 l -1836,365 c -31,6 -60,15 -86,26 -90,37 -159,101 -200,180 -42,78 -56,171 -37,266 5,30 14,59 26,88 12,29 27,56 43,80 54,81 130,137 215,163 85,26 178,22 268,-15 27,-11 54,-25 80,-43 l 1556,-1040 z m -44,-147 c -1,-13 -2,-25 -2,-38 0,-13 1,-25 2,-38 l -1836,-365 c -31,-6 -61,-9 -90,-9 -97,0 -185,32 -254,89 -68,56 -117,136 -136,232 -6,29 -9,59 -9,91 0,32 3,62 9,91 19,96 68,176 136,232 69,57 157,89 254,89 29,0 59,-3 90,-9 l 1836,-365 z m 15,-153 c 8,-24 18,-48 29,-70 L -1904,9775 c -26,-18 -53,-32 -80,-43 -90,-37 -183,-41 -268,-15 -85,26 -161,82 -215,163 -16,24 -31,51 -43,80 -12,29 -21,58 -26,88 -19,95 -5,188 37,266 41,79 110,143 200,180 26,11 55,20 86,26 l 1836,365 z m 73,-135 c 8,-10 17,-19 26,-28 9,-9 18,-18 28,-26 L -1291,9139 c -17,-25 -36,-49 -57,-70 -69,-68 -154,-108 -242,-116 -88,-8 -180,14 -260,68 -25,16 -48,36 -71,58 -22,23 -42,46 -58,71 -54,80 -76,172 -68,260 8,88 48,173 116,242 21,21 45,40 70,57 l 1557,1041 z m 119,-98 c 22,-11 46,-21 70,-29 L -480,8787 c -6,-31 -15,-60 -26,-86 -37,-90 -101,-159 -180,-200 -78,-42 -171,-56 -266,-37 -30,5 -59,14 -88,26 -29,12 -56,27 -80,43 -81,54 -137,130 -163,215 -26,85 -22,178 15,268 11,27 25,54 43,80 l 1040,1556 z m 147,-44 c 13,-1 25,-2 38,-2 13,0 25,1 38,2 L 403,8772 c 6,-31 9,-61 9,-90 0,-97 -32,-185 -89,-254 -56,-68 -136,-117 -232,-136 -29,-6 -59,-9 -91,-9 -32,0 -62,3 -91,9 -96,19 -176,68 -232,136 -57,69 -89,157 -89,254 0,29 3,59 9,90 l 365,1836 z m 153,15 c 24,8 48,18 70,29 L 1225,9096 c 18,-26 32,-53 43,-80 37,-90 41,-183 15,-268 -26,-85 -82,-161 -163,-215 -24,-16 -51,-31 -80,-43 -29,-12 -58,-21 -88,-26 -95,-19 -188,-5 -266,37 -79,41 -143,110 -180,200 -11,26 -20,55 -26,86 l -365,1836 z m 135,73 c 10,8 19,17 28,26 9,9 18,18 26,28 L 1861,9709 c 25,-17 49,-36 70,-57 68,-69 108,-154 116,-242 8,-88 -14,-180 -68,-260 -16,-25 -36,-48 -58,-71 -23,-22 -46,-42 -71,-58 -80,-54 -172,-76 -260,-68 -88,8 -173,48 -242,116 -21,21 -40,45 -57,70 L 250,10696 Z m 98,119 c 11,22 21,46 29,70 l 1836,-365 c 31,-6 60,-15 86,-26 90,-37 159,-101 200,-180 42,-78 56,-171 37,-266 -5,-30 -14,-59 -26,-88 -12,-29 -27,-56 -43,-80 -54,-81 -130,-137 -215,-163 -85,-26 -178,-22 -268,15 -27,11 -54,25 -80,43 L 348,10815 Z m 44,147 c 1,13 2,25 2,38 0,13 -1,25 -2,38 l 1836,365 c 31,6 61,9 90,9 97,0 185,-32 254,-89 68,-56 117,-136 136,-232 6,-29 9,-59 9,-91 0,-32 -3,-62 -9,-91 -19,-96 -68,-176 -136,-232 -69,-57 -157,-89 -254,-89 -29,0 -59,3 -90,9 l -1836,365 z m -15,153 c -8,24 -18,48 -29,70 l 1556,1040 c 26,18 53,32 80,43 90,37 183,41 268,15 85,-26 161,-82 215,-163 16,-24 31,-51 43,-80 12,-29 21,-58 26,-88 19,-95 5,-188 -37,-266 -41,-79 -110,-143 -200,-180 -26,-11 -55,-20 -86,-26 L 377,11115 Z"
       id="path3831"
       inkscape:connector-curvature="0"
       style="fill:#ffffff;fill-rule:nonzero" /></g></svg>