<?xml version="1.0" encoding="UTF-8" standalone="no"?>
<!-- Creator: CorelDRAW X7 -->

<svg
   xmlns:dc="http://purl.org/dc/elements/1.1/"
   xmlns:cc="http://creativecommons.org/ns#"
   xmlns:rdf="http://www.w3.org/1999/02/22-rdf-syntax-ns#"
   xmlns:svg="http://www.w3.org/2000/svg"
   xmlns="http://www.w3.org/2000/svg"
   xmlns:sodipodi="http://sodipodi.sourceforge.net/DTD/sodipodi-0.dtd"
   xmlns:inkscape="http://www.inkscape.org/namespaces/inkscape"
   xml:space="preserve"
   width="7.8740005in"
   height="7.8740005in"
   version="1.1"
   style="clip-rule:evenodd;fill-rule:evenodd;image-rendering:optimizeQuality;shape-rendering:geometricPrecision;text-rendering:geometricPrecision"
   viewBox="0 0 7874.0005 7874.0005"
   id="svg4413"
   inkscape:version="0.91 r13725"
   sodipodi:docname="Yu Jing - Su-Jian Immediate Action Unit - [N3] [Vyo].svg"><metadata
     id="metadata4445"><rdf:RDF><cc:Work
         rdf:about=""><dc:format>image/svg+xml</dc:format><dc:type
           rdf:resource="http://purl.org/dc/dcmitype/StillImage" /></cc:Work></rdf:RDF></metadata><sodipodi:namedview
     pagecolor="#ffffff"
     bordercolor="#666666"
     borderopacity="1"
     objecttolerance="10"
     gridtolerance="10"
     guidetolerance="10"
     inkscape:pageopacity="0"
     inkscape:pageshadow="2"
     inkscape:window-width="640"
     inkscape:window-height="480"
     id="namedview4443"
     showgrid="false"
     inkscape:zoom="0.23838384"
     inkscape:cx="736.83001"
     inkscape:cy="849.33005"
     inkscape:window-x="0"
     inkscape:window-y="0"
     inkscape:window-maximized="0"
     inkscape:current-layer="svg4413" /><defs
     id="defs4415"><style
       type="text/css"
       id="style4417"><![CDATA[
    .fil1 {fill:black}
    .fil0 {fill:yellow}
    .fil2 {fill:yellow;fill-rule:nonzero}
   ]]></style></defs><g
     id="Layer_x0020_1"
     transform="translate(3937,-7063)"><metadata
       id="CorelCorpID_0Corel-Layer" /><circle
       class="fil0"
       cy="11000"
       r="3937"
       id="circle4421"
       cx="0"
       style="fill:#ffff00" /><circle
       class="fil1"
       cy="11000"
       r="3858"
       id="circle4423"
       cx="0"
       style="fill:#000000" /><path
       class="fil2"
       d="m 3368,11013 -1687,2921 -3369,0 -1687,-2920 1687,-2921 3369,0 1687,2920 z m -2025,-2329 -2693,0 -1346,2330 1346,2330 2693,0 1345,-2330 -1345,-2330 z"
       id="path4425"
       inkscape:connector-curvature="0"
       style="fill:#ffff00;fill-rule:nonzero" /><path
       class="fil1"
       d="m 0,12158 1345,-779 c 38,-49 75,-99 111,-149 145,-202 272,-412 382,-636 132,-270 238,-553 328,-840 26,-82 124,-75 117,7 -28,375 -71,750 -140,1120 -219,1167 -744,2521 -2143,2521 -379,0 -730,-100 -1038,-324 -925,-672 -1166,-2254 -1245,-3317 -7,-82 91,-89 117,-7 90,287 196,570 328,840 110,224 237,434 382,636 36,50 73,100 111,149 L 0,12158 Z"
       id="path4427"
       inkscape:connector-curvature="0"
       style="fill:#000000" /><path
       class="fil0"
       d="m 0,12204 -1371,-795 -3,-3 c -39,-50 -77,-101 -114,-153 -146,-204 -274,-416 -385,-642 -133,-272 -240,-557 -331,-845 -3,-10 -9,-21 -18,-27 -4,-3 -10,-5 -15,-3 -7,3 -8,16 -7,22 28,374 71,747 140,1115 215,1147 727,2489 2104,2489 370,0 713,-97 1015,-316 913,-663 1151,-2239 1229,-3288 1,-6 0,-19 -7,-22 -5,-2 -11,0 -15,3 -9,6 -15,17 -18,27 -91,288 -198,573 -331,845 -111,226 -239,438 -385,642 -37,52 -75,103 -114,153 l -3,3 -1371,795 z"
       id="path4429"
       inkscape:connector-curvature="0"
       style="fill:#ffff00" /><path
       class="fil1"
       d="M -1006,10990 0,12132 1006,10990 c 97,-258 162,-522 207,-793 62,-365 90,-738 106,-1107 4,-101 120,-104 137,-23 42,203 76,409 104,614 28,207 51,415 69,622 13,166 25,334 25,500 0,84 -4,169 -10,252 -8,128 -21,255 -39,382 -45,317 -120,639 -242,936 -247,602 -672,1048 -1363,1048 -331,0 -626,-102 -875,-322 -221,-194 -377,-456 -488,-726 -122,-297 -197,-619 -242,-936 -18,-127 -31,-254 -39,-382 -6,-83 -10,-168 -10,-252 0,-166 12,-334 25,-500 18,-207 41,-415 69,-622 28,-205 62,-411 104,-614 17,-81 133,-78 137,23 16,369 44,742 106,1107 45,271 110,535 207,793 z"
       id="path4431"
       inkscape:connector-curvature="0"
       style="fill:#000000" /><path
       class="fil0"
       d="m 0,13382 c 321,0 608,-99 849,-312 216,-191 369,-448 478,-712 120,-294 194,-613 239,-926 18,-126 31,-253 39,-379 5,-83 9,-167 9,-250 0,-165 -11,-332 -25,-496 -17,-207 -40,-414 -68,-620 -28,-205 -61,-410 -103,-612 -8,-37 -57,-37 -60,16 -16,371 -44,746 -106,1113 -46,274 -112,542 -210,803 l -1,3 -1041,1181 -1041,-1181 -1,-3 c -98,-261 -164,-529 -210,-803 -62,-367 -90,-742 -106,-1113 -3,-53 -52,-53 -60,-16 -42,202 -75,407 -103,612 -28,206 -51,413 -68,620 -14,164 -25,331 -25,496 0,83 4,167 9,250 8,126 21,253 39,379 45,313 119,632 239,926 241,587 652,1024 1327,1024 z"
       id="path4433"
       inkscape:connector-curvature="0"
       style="fill:#ffff00" /><path
       class="fil1"
       d="m -261,11787 522,0 c 54,-181 87,-372 109,-559 30,-248 41,-500 41,-750 1,-306 -15,-612 -41,-917 -31,-361 -77,-720 -134,-1078 -1,-10 0,-20 4,-30 3,-8 8,-15 15,-21 32,-32 78,-21 97,20 143,301 272,610 385,923 130,361 242,732 324,1107 84,381 140,777 140,1168 0,148 -11,296 -34,443 -64,420 -237,900 -599,1154 -169,119 -362,174 -568,174 -206,0 -399,-55 -568,-174 -362,-254 -535,-734 -599,-1154 -23,-147 -34,-295 -34,-443 0,-391 56,-787 140,-1168 82,-375 194,-746 324,-1107 113,-313 242,-622 385,-923 11,-25 33,-42 62,-38 33,4 59,36 54,69 -57,358 -103,717 -134,1078 -26,305 -42,611 -41,917 0,250 11,502 41,750 22,187 55,378 109,559 z"
       id="path4435"
       inkscape:connector-curvature="0"
       style="fill:#000000" /><path
       class="fil0"
       d="m 275,8477 c 57,359 103,719 134,1081 26,306 42,613 42,920 -1,252 -12,505 -42,754 -23,195 -58,393 -115,581 l -4,14 -580,0 -4,-14 c -57,-188 -92,-386 -115,-581 -30,-249 -41,-502 -42,-754 0,-307 16,-614 42,-920 31,-362 77,-722 134,-1081 2,-17 -27,-40 -42,-8 -142,300 -270,608 -383,920 -130,359 -241,728 -323,1101 -83,379 -138,771 -138,1160 0,146 10,292 33,437 93,614 414,1295 1128,1295 198,0 383,-53 545,-167 353,-247 521,-719 583,-1128 23,-145 33,-291 33,-437 0,-389 -55,-781 -138,-1160 C 941,10117 830,9748 700,9389 587,9077 459,8769 317,8469 c -15,-32 -44,-9 -42,8 z"
       id="path4437"
       inkscape:connector-curvature="0"
       style="fill:#ffff00" /><path
       class="fil1"
       d="m 354,13022 c 0,170 -12,341 -46,507 -26,123 -63,237 -105,354 -38,108 -74,213 -101,324 -37,149 -55,302 -63,455 l -1,19 -76,0 -1,-19 c -8,-153 -26,-306 -63,-455 -27,-111 -63,-216 -101,-324 -42,-117 -79,-231 -105,-354 -34,-166 -46,-337 -46,-507 -27,-10 -57,-30 -78,-46 -43,-32 -82,-71 -115,-113 -92,-117 -142,-257 -142,-406 0,-61 5,-121 13,-180 11,-88 27,-175 41,-262 13,-81 25,-165 25,-247 0,-96 -31,-181 -20,-278 6,-46 41,-78 88,-55 25,13 51,24 78,31 22,5 45,8 66,5 115,-18 122,-208 122,-294 0,-283 -245,-494 -498,-572 -43,-13 -84,-77 -72,-122 40,-144 75,-289 117,-432 39,-132 85,-273 150,-395 44,-83 115,-190 215,-208 10,-2 19,-3 29,-3 131,0 207,216 335,216 128,0 204,-216 335,-216 10,0 19,1 29,3 100,18 171,125 215,208 65,122 111,263 150,395 42,143 77,288 117,432 12,45 -29,109 -72,122 -253,78 -498,289 -498,572 0,86 7,276 122,294 48,7 102,-15 144,-36 47,-23 82,9 88,55 11,97 -20,182 -20,278 0,82 12,166 25,247 14,87 30,174 41,262 8,59 13,119 13,180 0,149 -50,289 -142,406 -33,42 -72,81 -115,113 -21,16 -50,36 -78,46 z"
       id="path4439"
       inkscape:connector-curvature="0"
       style="fill:#000000" /><path
       class="fil0"
       d="m 0,14642 0,0 c 8,-150 28,-298 63,-445 28,-112 65,-218 103,-327 41,-116 78,-228 103,-349 35,-168 46,-341 46,-513 l 0,-15 15,-4 c 25,-6 58,-29 78,-44 40,-30 77,-67 108,-107 87,-110 134,-241 134,-381 0,-59 -5,-117 -13,-175 -11,-88 -27,-174 -41,-261 -14,-83 -25,-168 -25,-253 0,-92 30,-182 20,-274 -1,-5 -3,-11 -5,-16 -6,-12 -13,-14 -26,-8 -28,14 -57,27 -87,34 -26,7 -54,10 -81,6 -142,-23 -156,-222 -156,-333 0,-301 257,-526 526,-609 23,-7 52,-51 46,-75 -40,-143 -75,-288 -117,-431 -21,-70 -43,-139 -68,-207 -23,-61 -48,-122 -79,-180 -37,-70 -102,-173 -187,-189 -7,-1 -15,-2 -22,-2 -106,0 -187,217 -335,217 -148,0 -229,-217 -335,-217 -7,0 -15,1 -22,2 -85,16 -150,119 -187,189 -31,58 -56,119 -79,180 -25,68 -47,137 -68,207 -42,143 -77,288 -117,431 -6,24 23,68 46,75 269,83 526,308 526,609 0,111 -14,310 -156,333 -57,9 -118,-14 -168,-40 -6,-2 -13,-5 -19,-1 -7,5 -11,17 -12,25 -10,92 20,182 20,274 0,85 -11,170 -25,253 -14,87 -30,173 -41,261 -8,58 -13,116 -13,175 0,140 47,271 134,381 31,40 68,77 108,107 20,15 53,38 78,44 l 15,4 0,15 c 0,172 11,345 46,513 25,121 62,233 103,349 38,109 75,215 103,327 35,147 55,295 63,445 z"
       id="path4441"
       inkscape:connector-curvature="0"
       style="fill:#ffff00" /></g></svg>