<?xml version="1.0" encoding="UTF-8" standalone="no"?>
<!-- Creator: CorelDRAW X7 -->

<svg
   xmlns:dc="http://purl.org/dc/elements/1.1/"
   xmlns:cc="http://creativecommons.org/ns#"
   xmlns:rdf="http://www.w3.org/1999/02/22-rdf-syntax-ns#"
   xmlns:svg="http://www.w3.org/2000/svg"
   xmlns="http://www.w3.org/2000/svg"
   xmlns:sodipodi="http://sodipodi.sourceforge.net/DTD/sodipodi-0.dtd"
   xmlns:inkscape="http://www.inkscape.org/namespaces/inkscape"
   xml:space="preserve"
   width="7.8740005in"
   height="7.8740005in"
   version="1.1"
   style="clip-rule:evenodd;fill-rule:evenodd;image-rendering:optimizeQuality;shape-rendering:geometricPrecision;text-rendering:geometricPrecision"
   viewBox="0 0 7874.0005 7874.0005"
   id="svg3939"
   inkscape:version="0.91 r13725"
   sodipodi:docname="Yu Jing - O-Yoroi Kidobutai - [N3] [Vyo].svg"><metadata
     id="metadata3957"><rdf:RDF><cc:Work
         rdf:about=""><dc:format>image/svg+xml</dc:format><dc:type
           rdf:resource="http://purl.org/dc/dcmitype/StillImage" /></cc:Work></rdf:RDF></metadata><sodipodi:namedview
     pagecolor="#ffffff"
     bordercolor="#666666"
     borderopacity="1"
     objecttolerance="10"
     gridtolerance="10"
     guidetolerance="10"
     inkscape:pageopacity="0"
     inkscape:pageshadow="2"
     inkscape:window-width="640"
     inkscape:window-height="480"
     id="namedview3955"
     showgrid="false"
     inkscape:zoom="0.23838384"
     inkscape:cx="736.83001"
     inkscape:cy="849.33005"
     inkscape:window-x="0"
     inkscape:window-y="0"
     inkscape:window-maximized="0"
     inkscape:current-layer="svg3939" /><defs
     id="defs3941"><style
       type="text/css"
       id="style3943"><![CDATA[
    .fil0 {fill:#E2001A}
    .fil1 {fill:white}
   ]]></style></defs><g
     id="Layer_x0020_1"
     transform="translate(3937,-7063)"><metadata
       id="CorelCorpID_0Corel-Layer" /><circle
       class="fil0"
       cy="11000"
       r="3937"
       id="circle3947"
       cx="0"
       style="fill:#e2001a" /><circle
       class="fil1"
       cy="11000"
       r="3819"
       id="circle3949"
       cx="0"
       style="fill:#ffffff" /><path
       class="fil0"
       d="m 2854,11693 c 0,104 -52,379 -288,788 -565,979 -1605,1513 -2661,1481 771,-204 1573,-731 2060,-1563 -536,-8 -1030,-58 -1416,-217 -442,-182 -740,-489 -809,-998 -260,-92 -490,-28 -702,136 -164,126 -322,307 -476,523 41,14 81,32 119,55 339,195 455,629 260,968 -196,339 -630,455 -968,259 -90,-51 -302,-235 -539,-644 -565,-979 -508,-2146 49,-3044 -210,769 -154,1727 323,2565 275,-460 566,-863 896,-1117 378,-292 794,-397 1269,-202 210,-179 269,-411 233,-676 -27,-206 -105,-433 -215,-674 -33,28 -68,54 -107,76 -339,196 -772,80 -968,-259 -196,-339 -80,-773 259,-968 90,-52 355,-145 827,-145 1130,0 2113,633 2612,1564 -561,-566 -1419,-996 -2383,-1002 261,468 465,921 520,1335 63,473 -53,885 -460,1199 50,271 221,439 469,540 192,79 428,125 691,151 -8,-42 -12,-86 -12,-131 0,-391 317,-708 709,-708 391,0 708,317 708,708 z"
       id="path3951"
       inkscape:connector-curvature="0"
       style="fill:#e2001a" /><path
       class="fil0"
       d="m 0,7417 c 1979,0 3583,1604 3583,3583 0,1979 -1604,3583 -3583,3583 -1979,0 -3583,-1604 -3583,-3583 0,-1979 1604,-3583 3583,-3583 z m 0,394 c 1761,0 3189,1428 3189,3189 0,1761 -1428,3189 -3189,3189 -1761,0 -3189,-1428 -3189,-3189 0,-1761 1428,-3189 3189,-3189 z"
       id="path3953"
       inkscape:connector-curvature="0"
       style="fill:#e2001a" /></g></svg>