<?xml version="1.0" encoding="UTF-8" standalone="no"?>
<!-- Creator: CorelDRAW X7 -->

<svg
   xmlns:dc="http://purl.org/dc/elements/1.1/"
   xmlns:cc="http://creativecommons.org/ns#"
   xmlns:rdf="http://www.w3.org/1999/02/22-rdf-syntax-ns#"
   xmlns:svg="http://www.w3.org/2000/svg"
   xmlns="http://www.w3.org/2000/svg"
   xmlns:sodipodi="http://sodipodi.sourceforge.net/DTD/sodipodi-0.dtd"
   xmlns:inkscape="http://www.inkscape.org/namespaces/inkscape"
   xml:space="preserve"
   width="7.8740005in"
   height="7.8740005in"
   version="1.1"
   style="clip-rule:evenodd;fill-rule:evenodd;image-rendering:optimizeQuality;shape-rendering:geometricPrecision;text-rendering:geometricPrecision"
   viewBox="0 0 7874.0005 7874.0005"
   id="svg4684"
   inkscape:version="0.91 r13725"
   sodipodi:docname="Yu Jing - Yaoxie Rui Shi - [N3] [Vyo].svg"><metadata
     id="metadata4723"><rdf:RDF><cc:Work
         rdf:about=""><dc:format>image/svg+xml</dc:format><dc:type
           rdf:resource="http://purl.org/dc/dcmitype/StillImage" /></cc:Work></rdf:RDF></metadata><sodipodi:namedview
     pagecolor="#ffffff"
     bordercolor="#666666"
     borderopacity="1"
     objecttolerance="10"
     gridtolerance="10"
     guidetolerance="10"
     inkscape:pageopacity="0"
     inkscape:pageshadow="2"
     inkscape:window-width="640"
     inkscape:window-height="480"
     id="namedview4721"
     showgrid="false"
     inkscape:zoom="0.23838384"
     inkscape:cx="736.83001"
     inkscape:cy="849.33005"
     inkscape:window-x="0"
     inkscape:window-y="0"
     inkscape:window-maximized="0"
     inkscape:current-layer="svg4684" /><defs
     id="defs4686"><style
       type="text/css"
       id="style4688"><![CDATA[
    .fil2 {fill:none}
    .fil0 {fill:#E2001A}
    .fil1 {fill:white}
    .fil4 {fill:#E2001A;fill-rule:nonzero}
    .fil3 {fill:white;fill-rule:nonzero}
   ]]></style></defs><g
     id="Layer_x0020_1"
     transform="translate(3937,-7063)"><metadata
       id="CorelCorpID_0Corel-Layer" /><circle
       class="fil0"
       cy="11000"
       r="3937"
       id="circle4692"
       cx="0"
       style="fill:#e2001a" /><circle
       class="fil1"
       cy="11000"
       r="3819"
       id="circle4694"
       cx="0"
       style="fill:#ffffff" /><circle
       class="fil2"
       cy="11000"
       r="3898"
       id="circle4696"
       cx="0"
       style="fill:none" /><path
       class="fil0"
       d="m -2659,8563 c 25,-28 54,-2 28,26 -491,576 -752,1276 -823,1976 l -184,-184 c 130,-669 466,-1295 979,-1818 z m 227,209 c -510,515 -846,1167 -936,1879 l 94,94 122,-123 c 64,-662 317,-1316 749,-1824 25,-29 -2,-53 -29,-26 z m -883,2096 c -2,44 -2,88 -2,132 0,145 9,289 27,429 l -407,-218 c -4,-70 -6,-140 -6,-211 0,-166 11,-329 32,-489 l 356,357 z m 47,703 c 35,205 89,403 161,593 l -448,-122 c -65,-224 -110,-456 -132,-695 l 419,224 z m 214,728 c 116,270 266,522 445,750 l -476,0 c -179,-270 -324,-564 -429,-876 l 460,126 z m 540,866 c 54,62 110,122 168,181 215,215 459,400 726,550 l -537,114 c -164,-118 -319,-249 -462,-391 -140,-141 -269,-293 -386,-454 l 491,0 z m -284,-2733 c -21,105 -37,213 -46,323 l -374,624 c -15,-125 -22,-251 -22,-379 0,-43 1,-86 2,-128 l 440,-440 z m -57,564 c 0,125 8,250 24,373 l -219,727 c -62,-173 -110,-352 -142,-537 l 337,-563 z m 68,626 c 49,217 121,424 216,619 l 1,732 c -166,-215 -304,-451 -412,-703 l 195,-648 z m 331,834 c 122,205 269,394 438,562 94,95 196,184 303,264 l 140,550 c -264,-147 -505,-329 -716,-541 -57,-56 -112,-115 -164,-176 l -1,-659 z m -321,-2209 c 102,-438 291,-873 601,-1241 25,-29 -1,-53 -28,-26 -435,437 -721,961 -829,1524 l 256,-257 z"
       id="path4698"
       inkscape:connector-curvature="0"
       style="fill:#e2001a" /><path
       class="fil0"
       d="m 2659,8563 c -25,-28 -54,-2 -28,26 491,576 752,1276 823,1976 l 184,-184 C 3508,9712 3172,9086 2659,8563 Z m -227,209 c 510,515 846,1167 936,1879 l -94,94 -122,-123 c -64,-662 -317,-1316 -749,-1824 -25,-29 2,-53 29,-26 z m 883,2096 c 2,44 2,88 2,132 0,145 -9,289 -27,429 l 407,-218 c 4,-70 6,-140 6,-211 0,-166 -11,-329 -32,-489 l -356,357 z m -47,703 c -35,205 -89,403 -161,593 l 448,-122 c 65,-224 110,-456 132,-695 l -419,224 z m -214,728 c -116,270 -266,522 -445,750 l 476,0 c 179,-270 324,-564 429,-876 l -460,126 z m -540,866 c -54,62 -110,122 -168,181 -215,215 -459,400 -726,550 l 537,114 c 164,-118 319,-249 462,-391 140,-141 269,-293 386,-454 l -491,0 z m 284,-2733 c 21,105 37,213 46,323 l 374,624 c 15,-125 22,-251 22,-379 0,-43 -1,-86 -2,-128 l -440,-440 z m 57,564 c 0,125 -8,250 -24,373 l 219,727 c 62,-173 110,-352 142,-537 l -337,-563 z m -68,626 c -49,217 -121,424 -216,619 l -1,732 c 166,-215 304,-451 412,-703 l -195,-648 z m -331,834 c -122,205 -269,394 -438,562 -94,95 -196,184 -303,264 l -140,550 c 264,-147 505,-329 716,-541 57,-56 112,-115 164,-176 l 1,-659 z m 321,-2209 c -102,-438 -291,-873 -601,-1241 -25,-29 1,-53 28,-26 435,437 721,961 829,1524 l -256,-257 z"
       id="path4700"
       inkscape:connector-curvature="0"
       style="fill:#e2001a" /><path
       class="fil0"
       d="m 0,14703 c -748,0 -1443,-221 -2025,-602 l 604,-129 -148,-587 c 450,297 989,470 1569,470 580,0 1119,-173 1569,-470 l -148,587 604,129 c -582,381 -1277,602 -2025,602 z"
       id="path4702"
       inkscape:connector-curvature="0"
       style="fill:#e2001a" /><circle
       class="fil2"
       cy="11000"
       r="3819"
       id="circle4704"
       cx="0"
       style="fill:none" /><path
       class="fil3"
       d="m -806,14463 324,42 34,-262 -274,-36 7,-59 275,37 26,-198 -294,-39 8,-58 662,87 -8,59 -303,-40 -26,197 284,38 -8,58 -284,-37 -34,262 332,44 -7,59 -722,-96 8,-58 z m 495,-130 52,-30 c 36,54 68,106 97,157 l -57,33 c -24,-46 -54,-100 -92,-160 z m 431,-200 538,-71 34,254 -59,8 -4,-30 -173,23 25,191 c 8,59 -16,93 -73,101 -36,5 -69,10 -99,14 -6,-22 -12,-41 -19,-60 34,-1 63,-4 88,-7 32,-3 45,-22 41,-55 l -23,-176 -188,24 5,34 -59,8 -34,-258 z m 486,-12 -421,56 16,120 421,-55 -16,-121 z m -600,-95 348,-46 c -18,-25 -38,-50 -60,-76 l 52,-34 c 24,27 47,56 71,86 l -28,19 354,-46 7,52 -737,98 -7,-53 z m 248,382 47,40 c -61,59 -122,114 -184,166 -12,-16 -26,-32 -42,-46 64,-49 123,-102 179,-160 z m 298,12 30,-50 c 74,31 145,64 214,97 l -33,57 c -58,-32 -129,-67 -211,-104 z"
       id="path4706"
       inkscape:connector-curvature="0"
       style="fill:#ffffff;fill-rule:nonzero" /><circle
       class="fil2"
       cy="11000"
       r="3898"
       id="circle4708"
       cx="0"
       style="fill:none" /><path
       class="fil4"
       d="m -820,8228 -84,34 -233,-130 -74,30 79,193 -64,27 -199,-486 125,-51 c 28,-12 52,-20 72,-25 20,-4 41,-4 63,0 21,4 40,12 57,25 17,14 31,33 41,58 15,36 18,69 10,101 -9,31 -26,59 -52,83 l 259,141 z m -282,-292 c -6,-14 -14,-26 -23,-35 -10,-9 -21,-14 -34,-17 -12,-2 -24,-2 -38,0 -13,3 -28,8 -47,15 l -64,26 75,183 57,-23 c 19,-7 35,-16 48,-25 14,-10 24,-21 30,-36 5,-13 8,-27 7,-41 0,-14 -4,-30 -11,-47 z"
       id="path4710"
       inkscape:connector-curvature="0"
       style="fill:#e2001a;fill-rule:nonzero" /><path
       id="1"
       class="fil4"
       d="m -595,8197 c -30,7 -57,9 -81,6 -25,-3 -46,-10 -66,-22 -22,-14 -39,-32 -52,-55 -13,-23 -24,-53 -32,-90 l -73,-319 68,-15 73,318 c 5,24 11,44 18,59 6,15 16,29 27,39 12,12 27,20 45,23 17,4 37,3 60,-3 21,-4 39,-12 54,-23 15,-11 26,-24 32,-40 5,-15 8,-31 7,-48 0,-16 -3,-36 -8,-59 l -74,-320 68,-16 73,319 c 8,36 12,67 10,94 -1,27 -9,52 -23,74 -13,19 -29,35 -49,48 -20,13 -45,23 -77,30 z"
       inkscape:connector-curvature="0"
       style="fill:#e2001a;fill-rule:nonzero" /><polygon
       id="2"
       class="fil4"
       points="-268,8082 -302,7665 -369,7671 -374,7617 -170,7601 -166,7654 -233,7660 -199,8076 -132,8071 -128,8124 -331,8141 -336,8087 "
       style="fill:#e2001a;fill-rule:nonzero" /><path
       id="3"
       class="fil4"
       d="m 328,8153 c -37,-6 -69,-14 -94,-26 -25,-12 -48,-25 -70,-40 l 13,-87 5,1 c 20,25 43,45 70,61 27,16 54,26 80,30 38,6 68,3 90,-10 22,-13 35,-33 39,-59 3,-20 0,-38 -8,-53 -8,-14 -23,-26 -44,-36 -16,-7 -30,-13 -42,-18 -13,-5 -29,-11 -48,-20 -18,-7 -33,-15 -46,-25 -13,-9 -24,-20 -33,-33 -9,-13 -15,-28 -19,-44 -3,-17 -4,-35 -1,-55 7,-42 28,-75 65,-99 37,-23 81,-31 132,-23 29,4 56,11 81,21 25,9 48,21 68,35 l -12,83 -6,-1 c -14,-17 -33,-34 -57,-49 -24,-15 -50,-25 -79,-29 -32,-5 -59,-1 -81,11 -22,12 -34,30 -38,54 -3,22 0,41 9,56 10,14 25,26 47,36 14,6 31,13 51,21 21,8 37,16 51,22 34,16 57,37 71,61 13,25 17,53 12,85 -3,21 -10,40 -21,58 -12,19 -26,34 -43,45 -19,13 -39,22 -61,27 -23,5 -49,5 -81,0 z"
       inkscape:connector-curvature="0"
       style="fill:#e2001a;fill-rule:nonzero" /><polygon
       id="4"
       class="fil4"
       points="726,7946 652,8191 585,8171 738,7669 805,7689 744,7886 977,7957 1037,7760 1104,7780 951,8282 884,8262 959,8016 "
       style="fill:#e2001a;fill-rule:nonzero" /><polygon
       id="5"
       class="fil4"
       points="1116,8287 1293,7908 1232,7880 1255,7831 1440,7917 1417,7966 1356,7937 1180,8317 1240,8345 1218,8393 1033,8307 1056,8259 "
       style="fill:#e2001a;fill-rule:nonzero" /><circle
       class="fil2"
       cy="11000"
       r="3898"
       id="circle4717"
       cx="0"
       style="fill:none" /><path
       class="fil0"
       d="m -2323,11000 1162,-2012 974,0 187,437 187,-437 974,0 1162,2012 -487,844 -472,-57 285,381 -488,844 -2322,0 -488,-844 285,-381 -472,57 -487,-844 z m 945,-1378 c 118,1142 1102,945 1378,1772 276,-827 1260,-630 1378,-1772 276,2598 -1181,2008 -1378,2913 -197,-905 -1654,-315 -1378,-2913 z"
       id="path4719"
       inkscape:connector-curvature="0"
       style="fill:#e2001a" /></g></svg>