<?xml version="1.0" encoding="UTF-8" standalone="no"?>
<!-- Creator: CorelDRAW X7 -->

<svg
   xmlns:dc="http://purl.org/dc/elements/1.1/"
   xmlns:cc="http://creativecommons.org/ns#"
   xmlns:rdf="http://www.w3.org/1999/02/22-rdf-syntax-ns#"
   xmlns:svg="http://www.w3.org/2000/svg"
   xmlns="http://www.w3.org/2000/svg"
   xmlns:sodipodi="http://sodipodi.sourceforge.net/DTD/sodipodi-0.dtd"
   xmlns:inkscape="http://www.inkscape.org/namespaces/inkscape"
   xml:space="preserve"
   width="7.8740005in"
   height="7.8740005in"
   version="1.1"
   style="clip-rule:evenodd;fill-rule:evenodd;image-rendering:optimizeQuality;shape-rendering:geometricPrecision;text-rendering:geometricPrecision"
   viewBox="0 0 7874.0005 7874.0005"
   id="svg4120"
   inkscape:version="0.91 r13725"
   sodipodi:docname="Yu Jing - Raiden Seibutai - [N3] [Vyo].svg"><metadata
     id="metadata4140"><rdf:RDF><cc:Work
         rdf:about=""><dc:format>image/svg+xml</dc:format><dc:type
           rdf:resource="http://purl.org/dc/dcmitype/StillImage" /></cc:Work></rdf:RDF></metadata><sodipodi:namedview
     pagecolor="#ffffff"
     bordercolor="#666666"
     borderopacity="1"
     objecttolerance="10"
     gridtolerance="10"
     guidetolerance="10"
     inkscape:pageopacity="0"
     inkscape:pageshadow="2"
     inkscape:window-width="640"
     inkscape:window-height="480"
     id="namedview4138"
     showgrid="false"
     inkscape:zoom="0.23838384"
     inkscape:cx="736.83001"
     inkscape:cy="849.33005"
     inkscape:window-x="0"
     inkscape:window-y="0"
     inkscape:window-maximized="0"
     inkscape:current-layer="svg4120" /><defs
     id="defs4122"><style
       type="text/css"
       id="style4124"><![CDATA[
    .fil0 {fill:#E2001A}
    .fil1 {fill:white}
    .fil2 {fill:#E2001A;fill-rule:nonzero}
   ]]></style></defs><g
     id="Layer_x0020_1"
     transform="translate(3937,-7063)"><metadata
       id="CorelCorpID_0Corel-Layer" /><circle
       class="fil0"
       cy="11000"
       r="3937"
       id="circle4128"
       cx="0"
       style="fill:#e2001a" /><circle
       class="fil1"
       cy="11000"
       r="3819"
       id="circle4130"
       cx="0"
       style="fill:#ffffff" /><path
       class="fil2"
       d="m -543,10933 1021,0 0,465 -466,0 0,31 c 0,71 40,107 118,107 l 236,0 c 89,0 140,-27 152,-80 11,-48 22,-113 33,-194 34,19 66,35 96,46 -13,72 -25,131 -37,178 -22,97 -93,145 -213,145 l -282,0 c -132,0 -198,-66 -198,-199 l 0,-34 -367,0 0,77 -93,0 0,-542 z m -104,-447 571,0 0,-77 -468,0 0,-79 1031,0 0,79 -468,0 0,77 574,0 0,276 -95,0 0,-196 -479,0 0,310 -95,0 0,-310 -476,0 0,196 -95,0 0,-276 z m 1030,832 0,-114 -371,0 0,114 371,0 z m 0,-305 -371,0 0,114 371,0 0,-114 z m -833,114 367,0 0,-114 -367,0 0,114 z m 0,191 367,0 0,-114 -367,0 0,114 z m 534,-678 342,0 0,71 -342,0 0,-71 z m 0,145 342,0 0,71 -342,0 0,-71 z m -565,-145 340,0 0,71 -340,0 0,-71 z m 0,145 340,0 0,71 -340,0 0,-71 z"
       id="path4132"
       inkscape:connector-curvature="0"
       style="fill:#e2001a;fill-rule:nonzero" /><path
       class="fil0"
       d="m -644,13631 -369,-34 c -83,-7 -150,-63 -172,-144 l -138,-512 -405,-32 c -97,-8 -173,-84 -181,-181 l -32,-405 -512,-138 c -81,-22 -137,-89 -144,-172 l -34,-369 -253,50 c -68,14 -132,-6 -180,-55 l -492,-504 c -74,-76 -74,-199 1,-275 l 492,-499 c 47,-49 111,-69 178,-55 l 254,50 34,-369 c 7,-83 63,-150 144,-172 l 512,-138 32,-405 c 8,-97 84,-173 181,-181 l 405,-32 138,-512 c 22,-81 89,-137 172,-144 l 369,-34 -50,-253 c -14,-68 6,-132 55,-180 l 504,-492 c 76,-74 199,-74 275,1 l 499,492 c 49,47 69,111 55,178 l -50,254 369,34 c 83,7 150,63 172,144 l 138,512 405,32 c 97,8 173,84 181,181 l 32,405 512,138 c 81,22 137,89 144,172 l 34,369 253,-50 c 68,-14 132,6 180,55 l 492,504 c 74,76 74,199 -1,275 l -492,499 c -47,49 -111,69 -178,55 l -254,-50 -34,369 c -7,83 -63,150 -144,172 l -512,138 -32,405 c -8,97 -84,173 -181,181 l -405,32 -138,512 c -22,81 -89,137 -172,144 l -369,34 50,253 c 14,68 -6,132 -55,180 l -504,492 c -76,74 -199,74 -275,-1 l -499,-492 c -49,-47 -69,-111 -55,-178 l 50,-254 z m 47,-35 -412,-38 c -67,-6 -120,-51 -138,-116 l -145,-538 -433,-34 c -78,-7 -138,-67 -145,-145 l -34,-433 -538,-145 c -65,-18 -110,-71 -116,-138 l -38,-412 -296,59 c -54,10 -105,-6 -143,-45 l -492,-503 c -60,-61 -60,-160 0,-221 l 492,-499 c 38,-39 89,-54 143,-44 l 296,59 38,-412 c 6,-67 51,-120 116,-138 l 538,-145 34,-433 c 7,-78 67,-138 145,-145 l 433,-34 145,-538 c 18,-65 71,-110 138,-116 l 412,-38 -59,-296 c -10,-54 6,-105 45,-143 l 503,-492 c 61,-60 160,-60 221,0 l 499,492 c 39,38 54,89 44,143 l -59,296 412,38 c 67,6 120,51 138,116 l 145,538 433,34 c 78,7 138,67 145,145 l 34,433 538,145 c 65,18 110,71 116,138 l 38,412 296,-59 c 54,-10 105,6 143,45 l 492,503 c 60,61 60,160 0,221 l -492,499 c -38,39 -89,54 -143,44 l -296,-59 -38,412 c -6,67 -51,120 -116,138 l -538,145 -34,433 c -7,78 -67,138 -145,145 l -433,34 -145,538 c -18,65 -71,110 -138,116 l -412,38 59,296 c 10,54 -6,105 -45,143 l -503,492 c -61,60 -160,60 -221,0 l -499,-492 c -39,-38 -54,-89 -44,-143 l 59,-296 z"
       id="path4134"
       inkscape:connector-curvature="0"
       style="fill:#e2001a" /><path
       class="fil0"
       d="m -2401,10005 -40,429 1455,290 c 22,-80 54,-155 94,-226 l -960,-641 -549,148 z M 2,7585 501,8077 122,9984 c -40,-5 -81,-8 -122,-8 -41,0 -82,3 -122,8 L -501,8077 2,7585 Z m -1715,1702 450,-36 631,944 c -65,50 -123,108 -173,173 l -944,-631 36,-450 z m -1702,1711 492,-499 1907,379 c -5,40 -8,81 -8,122 0,41 3,82 8,122 l -1907,379 -492,-503 z m 1702,1715 -36,-450 944,-631 c 50,65 108,123 173,173 l -631,944 -450,-36 z m 1711,1702 -499,-492 379,-1907 c 40,5 81,8 122,8 41,0 82,-3 122,-8 l 379,1907 -503,492 z m 1715,-1702 -450,36 -631,-944 c 65,-50 123,-108 173,-173 l 944,631 -36,450 z m 1702,-1711 -492,499 -1907,-379 c 5,-40 8,-81 8,-122 0,-41 -3,-82 -8,-122 l 1907,-379 492,503 z m -4410,-2403 429,-40 290,1455 c -80,22 -155,54 -226,94 l -641,-960 148,-549 z m -1406,3396 -40,-429 1455,-290 c 22,80 54,155 94,226 l -960,641 -549,-148 z m 3396,1406 -429,40 -290,-1455 c 80,-22 155,-54 226,-94 l 641,960 -148,549 z m 1406,-3396 40,429 -1455,290 c -22,-80 -54,-155 -94,-226 l 960,-641 549,148 z m -688,-718 36,450 -944,631 c -50,-65 -108,-123 -173,-173 l 631,-944 450,36 z M 995,8599 566,8559 276,10014 c 80,22 155,54 226,94 l 641,-960 -148,-549 z m 1406,3396 40,-429 -1455,-290 c -22,80 -54,155 -94,226 l 960,641 549,-148 z m -3396,1406 429,40 290,-1455 c -80,-22 -155,-54 -226,-94 l -641,960 148,549 z"
       id="path4136"
       inkscape:connector-curvature="0"
       style="fill:#e2001a" /></g></svg>