<?xml version="1.0" encoding="UTF-8" standalone="no"?>
<!-- Creator: CorelDRAW X7 -->

<svg
   xmlns:dc="http://purl.org/dc/elements/1.1/"
   xmlns:cc="http://creativecommons.org/ns#"
   xmlns:rdf="http://www.w3.org/1999/02/22-rdf-syntax-ns#"
   xmlns:svg="http://www.w3.org/2000/svg"
   xmlns="http://www.w3.org/2000/svg"
   xmlns:sodipodi="http://sodipodi.sourceforge.net/DTD/sodipodi-0.dtd"
   xmlns:inkscape="http://www.inkscape.org/namespaces/inkscape"
   xml:space="preserve"
   width="7.8740005in"
   height="7.8740005in"
   version="1.1"
   style="clip-rule:evenodd;fill-rule:evenodd;image-rendering:optimizeQuality;shape-rendering:geometricPrecision;text-rendering:geometricPrecision"
   viewBox="0 0 7874.0005 7874.0005"
   id="svg3901"
   inkscape:version="0.91 r13725"
   sodipodi:docname="Ariadna - Kazak Spetsnazs - [N3] [Vyo].svg"><metadata
     id="metadata3947"><rdf:RDF><cc:Work
         rdf:about=""><dc:format>image/svg+xml</dc:format><dc:type
           rdf:resource="http://purl.org/dc/dcmitype/StillImage" /></cc:Work></rdf:RDF></metadata><sodipodi:namedview
     pagecolor="#ffffff"
     bordercolor="#666666"
     borderopacity="1"
     objecttolerance="10"
     gridtolerance="10"
     guidetolerance="10"
     inkscape:pageopacity="0"
     inkscape:pageshadow="2"
     inkscape:window-width="640"
     inkscape:window-height="480"
     id="namedview3945"
     showgrid="false"
     inkscape:zoom="0.23838384"
     inkscape:cx="736.83001"
     inkscape:cy="849.33005"
     inkscape:window-x="0"
     inkscape:window-y="0"
     inkscape:window-maximized="0"
     inkscape:current-layer="svg3901" /><defs
     id="defs3903"><style
       type="text/css"
       id="style3905"><![CDATA[
    .fil5 {fill:none}
    .fil0 {fill:black}
    .fil3 {fill:#0080FF}
    .fil2 {fill:red}
    .fil1 {fill:white}
    .fil4 {fill:white;fill-rule:nonzero}
   ]]></style></defs><g
     id="Layer_x0020_1"
     transform="translate(3937,-7063)"><metadata
       id="CorelCorpID_0Corel-Layer" /><circle
       class="fil0"
       cy="11000"
       r="3937"
       id="circle3909"
       cx="0"
       style="fill:#000000" /><circle
       class="fil1"
       cy="11000"
       r="3858"
       id="circle3911"
       cx="0"
       style="fill:#ffffff" /><circle
       class="fil2"
       cy="11000"
       r="3720"
       id="circle3913"
       cx="0"
       style="fill:#ff0000" /><circle
       class="fil3"
       cy="11000"
       r="2874"
       id="circle3915"
       cx="0"
       style="fill:#0080ff" /><path
       class="fil4"
       d="m 0,8087 c 805,0 1533,326 2060,853 527,527 853,1256 853,2060 0,805 -326,1533 -853,2060 -527,527 -1255,853 -2060,853 -805,0 -1533,-326 -2060,-853 -527,-527 -853,-1255 -853,-2060 0,-804 326,-1533 853,-2060 527,-527 1255,-853 2060,-853 z m 1977,936 c -8,-8 -16,-16 -24,-24 l 0,0 0,0 c -8,-8 -16,-15 -23,-22 l -1,-1 c -8,-8 -15,-15 -23,-22 l -3,-2 c -7,-7 -14,-14 -22,-21 l -2,-2 c -2,-2 -5,-4 -7,-6 -203,-92 -420,-169 -649,-230 97,253 178,537 240,844 307,62 591,143 844,240 -61,-229 -138,-446 -230,-649 -4,-5 -9,-10 -14,-15 -3,-4 -7,-8 -11,-12 l -9,-10 c -6,-6 -11,-12 -17,-18 l -4,-4 c -7,-7 -14,-14 -21,-22 l -1,-1 c -8,-8 -15,-15 -23,-23 z m -314,-271 c -4,-3 -8,-6 -12,-9 l -9,-7 c -7,-4 -13,-9 -19,-13 l -8,-6 c -6,-4 -13,-9 -19,-13 l -10,-7 c -6,-4 -12,-8 -17,-12 l -10,-7 c -7,-4 -13,-8 -19,-12 l -10,-7 c -6,-3 -12,-7 -17,-11 l -11,-7 c -6,-4 -12,-7 -18,-11 l -11,-7 c -6,-4 -12,-7 -17,-11 l -12,-7 c -6,-3 -12,-7 -18,-10 l -10,-7 c -6,-3 -12,-7 -19,-10 -4,-3 -8,-5 -12,-7 -5,-3 -11,-7 -17,-10 l -11,-6 c -6,-4 -12,-7 -19,-11 -3,-2 -7,-4 -11,-6 -6,-3 -12,-6 -18,-9 -4,-2 -8,-5 -12,-7 -6,-3 -12,-6 -18,-9 l -12,-6 c -6,-3 -12,-6 -19,-10 l -11,-5 c -6,-3 -12,-6 -18,-9 l -13,-6 c -6,-3 -12,-6 -18,-9 -5,-2 -9,-4 -14,-6 -5,-3 -11,-6 -17,-8 -4,-2 -9,-4 -13,-6 -6,-3 -11,-5 -17,-8 -4,-2 -9,-3 -13,-5 9,20 19,40 28,61 15,35 31,71 45,107 165,42 324,91 476,149 z M 690,8290 c -6,-2 -12,-3 -18,-5 -4,-1 -9,-2 -14,-3 -6,-2 -12,-3 -19,-5 -5,-1 -11,-2 -16,-3 -6,-2 -11,-3 -17,-4 -5,-1 -11,-3 -17,-4 -6,-1 -12,-2 -18,-4 -5,-1 -10,-2 -15,-3 -7,-1 -14,-2 -21,-4 l -11,-2 c -7,-1 -14,-3 -22,-4 -5,-1 -9,-2 -14,-3 -7,-1 -14,-2 -21,-3 l -13,-2 c -8,-2 -16,-3 -24,-4 l -10,-2 c -8,-1 -16,-2 -24,-3 l -9,-2 c -9,-1 -18,-2 -26,-3 l -7,-1 c -10,-1 -20,-2 -29,-3 l -9,-1 c -9,-1 -18,-2 -27,-3 l -8,-1 c -8,-1 -17,-2 -26,-3 l -8,0 c -9,-1 -18,-2 -28,-3 l -7,0 c -10,-1 -20,-2 -31,-2 l -5,-1 c -10,0 -19,-1 -29,-1 l -7,-1 c -9,0 -18,0 -28,-1 l -7,0 c -10,0 -20,-1 -30,-1 l -4,0 c -11,0 -21,-1 -32,-1 l 0,254 c 368,3 722,46 1055,122 -8,-18 -16,-35 -24,-53 -20,-47 -42,-92 -64,-136 -9,-4 -18,-8 -28,-11 l 0,0 c -10,-4 -19,-7 -28,-11 l -2,0 c -22,-8 -45,-16 -68,-24 l -3,-1 c -9,-3 -17,-5 -26,-8 l -6,-2 c -8,-2 -16,-5 -24,-7 l -9,-3 c -9,-3 -19,-6 -28,-9 l -9,-2 c -7,-2 -14,-4 -21,-6 l -11,-3 c -7,-2 -14,-4 -21,-6 l -12,-3 c -7,-2 -13,-4 -20,-5 z m -729,-86 c -11,0 -21,1 -32,1 l -4,0 c -10,0 -20,1 -30,1 l -7,0 c -10,1 -19,1 -28,1 l -7,1 c -10,0 -19,1 -29,1 l -5,1 c -11,0 -21,1 -31,2 l -7,0 c -10,1 -19,2 -28,3 l -8,0 c -9,1 -18,2 -26,3 l -8,1 c -9,1 -18,2 -27,3 l -9,1 c -9,1 -19,2 -29,3 l -7,1 c -8,1 -17,2 -26,3 l -9,2 c -8,1 -16,2 -24,3 l -10,2 c -8,1 -16,2 -24,4 -4,0 -9,1 -13,2 -7,1 -14,2 -21,3 -5,1 -9,2 -14,3 -8,1 -15,3 -22,4 l -11,2 c -7,2 -14,3 -21,4 -5,1 -10,2 -15,3 -6,2 -12,3 -18,4 -6,1 -12,3 -17,4 -6,1 -11,2 -17,4 -5,1 -11,2 -16,3 -7,2 -13,3 -19,5 -5,1 -10,2 -14,3 -6,2 -12,3 -18,5 -7,1 -13,3 -20,5 l -12,3 c -7,2 -14,4 -21,6 l -11,3 c -7,2 -14,4 -21,6 l -9,2 c -9,3 -19,6 -28,9 l -9,3 c -8,2 -16,5 -24,7 l -6,2 c -9,3 -17,5 -26,8 l -3,1 c -23,8 -46,16 -68,24 l -2,0 c -9,4 -18,7 -28,11 l 0,0 c -10,3 -19,7 -28,11 -22,44 -44,89 -64,136 -8,18 -16,35 -24,53 333,-76 687,-119 1055,-122 l 0,-254 z m -1088,236 c -6,3 -11,5 -17,8 -4,2 -9,4 -13,6 -6,2 -12,5 -17,8 -5,2 -9,4 -14,6 -6,3 -12,6 -18,9 l -13,6 c -6,3 -12,6 -18,9 -4,2 -7,3 -11,5 -7,4 -13,7 -19,10 -4,2 -8,4 -12,6 -6,3 -12,6 -18,9 -4,2 -8,5 -12,7 -6,3 -12,6 -18,9 l -11,6 c -7,4 -13,7 -19,11 l -11,6 c -6,3 -12,7 -17,10 l -12,7 c -7,3 -13,7 -19,10 l -10,7 c -6,3 -12,7 -18,10 l -12,7 c -5,4 -11,7 -17,11 l -11,7 c -6,4 -12,7 -18,11 l -11,7 c -5,4 -11,8 -17,11 l -10,7 c -6,4 -12,8 -19,12 l -10,7 c -5,4 -11,8 -17,12 l -10,7 c -6,4 -13,9 -19,13 l -8,6 c -6,4 -12,9 -19,13 l -9,7 c -4,3 -8,6 -12,9 152,-58 311,-107 476,-149 14,-36 30,-72 45,-107 9,-21 19,-41 28,-61 -4,2 -9,3 -13,5 z m -745,483 c -2,2 -5,4 -7,6 l -2,2 c -8,7 -15,14 -22,21 l -3,2 c -8,7 -15,14 -23,22 l -1,1 c -7,7 -15,14 -23,22 l 0,0 0,0 c -8,8 -16,16 -24,24 -8,8 -15,15 -23,23 l -1,1 c -7,8 -14,15 -21,22 l -4,4 c -6,6 -11,12 -17,18 l -9,10 c -4,4 -8,8 -11,12 -5,5 -10,10 -14,15 -92,203 -169,420 -230,649 253,-97 537,-178 844,-240 62,-307 143,-591 240,-844 -229,61 -446,138 -649,230 z m -838,1387 c -2,6 -3,12 -5,17 -1,5 -2,10 -3,15 -2,6 -3,12 -5,18 -1,6 -2,12 -3,18 -2,5 -3,10 -4,16 -1,6 -3,11 -4,17 -1,6 -2,12 -4,17 -1,6 -2,11 -3,16 -1,7 -3,14 -4,21 l -2,11 c -1,7 -3,15 -4,22 -1,5 -2,9 -3,14 -1,7 -2,14 -3,21 -1,5 -2,9 -2,13 -2,8 -3,16 -4,24 l -2,10 c -1,8 -2,16 -3,24 l -2,9 c -1,9 -2,17 -3,26 l -1,8 c -1,10 -2,19 -3,28 l -1,9 c -1,9 -2,17 -3,26 l -1,9 c -1,9 -2,17 -3,26 l 0,8 c -1,9 -2,18 -3,28 l 0,7 c -1,10 -2,20 -2,31 l -1,5 c 0,10 -1,19 -1,29 l -1,7 c 0,9 0,18 -1,28 l 0,7 c 0,10 -1,20 -1,30 l 0,4 c 0,11 -1,21 -1,32 l 254,0 c 3,-368 46,-722 122,-1055 -18,8 -35,16 -53,24 -47,20 -92,42 -136,64 -20,51 -39,103 -56,156 l 0,2 c -3,9 -6,18 -9,28 l -1,2 c -4,14 -8,27 -11,40 l -1,2 c -2,8 -5,17 -7,25 l -2,7 c -2,8 -4,15 -6,23 l -3,10 c -2,7 -3,14 -5,21 z m -86,729 c 0,11 1,21 1,32 l 0,4 c 0,10 1,20 1,30 l 0,7 c 1,10 1,19 1,28 l 1,7 c 0,10 1,19 1,29 l 1,5 c 0,11 1,21 2,31 l 0,7 c 1,10 2,19 3,28 l 0,8 c 1,9 2,17 3,26 l 1,9 c 1,9 2,17 3,26 l 1,9 c 1,9 2,18 3,28 l 1,8 c 1,9 2,17 3,26 l 2,9 c 1,8 2,16 3,24 l 2,10 c 1,8 2,16 4,24 l 2,13 c 1,7 2,14 3,21 1,5 2,9 3,14 1,7 3,15 4,22 l 2,11 c 1,7 3,14 4,21 1,5 2,10 3,16 2,5 3,11 4,17 1,6 3,11 4,17 1,6 2,11 4,16 1,6 2,12 3,18 2,6 3,12 5,18 1,5 2,10 3,15 2,5 3,11 5,17 2,7 3,14 5,21 l 3,10 c 2,8 4,15 6,23 l 2,7 c 2,8 5,17 7,25 l 1,2 c 3,13 7,26 11,40 l 1,2 c 3,10 6,19 9,28 l 0,2 c 17,53 36,105 56,156 44,22 89,44 136,64 18,8 35,16 53,24 -76,-333 -119,-687 -122,-1055 l -254,0 z m 733,1848 c 3,4 7,8 11,12 l 9,10 c 6,6 11,12 17,18 l 4,4 c 7,7 14,14 21,22 l 1,1 c 8,8 15,15 23,23 8,8 16,16 24,24 l 0,0 0,0 c 8,8 16,15 23,22 l 1,1 c 8,8 15,15 23,22 l 3,2 c 7,7 14,14 22,21 l 2,2 c 2,2 5,4 7,6 203,92 420,169 649,230 -97,-253 -178,-537 -240,-844 -307,-62 -591,-143 -844,-240 61,229 138,446 230,649 4,5 9,10 14,15 z m 400,361 c 4,3 8,6 12,9 l 9,7 c 7,4 13,9 19,13 l 8,6 c 6,4 13,9 19,13 l 10,7 c 6,4 12,8 17,12 l 10,7 c 7,4 13,8 19,12 l 10,7 c 6,3 12,7 17,11 l 11,7 c 6,4 12,7 18,11 l 11,7 c 6,4 12,7 17,11 l 12,7 c 6,3 12,7 18,10 l 10,7 c 6,3 12,7 19,10 4,3 8,5 12,7 5,3 11,7 17,10 l 11,6 c 6,4 12,7 19,11 3,2 7,4 11,6 6,3 12,6 18,9 4,2 8,5 12,7 6,3 12,6 18,9 l 12,6 c 6,3 12,6 19,10 l 11,5 c 6,3 12,6 18,9 l 13,6 c 6,3 12,6 18,9 5,2 9,4 14,6 5,3 11,6 17,8 4,2 9,4 13,6 6,3 11,5 17,8 4,2 9,3 13,5 -9,-20 -19,-40 -28,-61 -15,-35 -31,-71 -45,-107 -165,-42 -324,-91 -476,-149 z m 973,462 c 6,2 12,3 18,5 4,1 9,2 14,3 6,2 12,3 19,5 5,1 11,2 16,3 6,2 11,3 17,4 5,1 11,3 17,4 6,1 12,2 18,4 5,1 10,2 15,3 7,1 14,2 21,4 l 11,2 c 7,1 14,3 22,4 5,1 9,2 14,3 7,1 14,2 21,3 l 13,2 c 8,2 16,3 24,4 l 10,2 c 8,1 16,2 24,3 l 9,2 c 9,1 18,2 26,3 l 7,1 c 10,1 20,2 29,3 l 9,1 c 9,1 18,2 27,3 l 8,1 c 8,1 17,2 26,3 l 8,0 c 9,1 18,2 28,3 l 7,0 c 10,1 20,2 31,2 l 5,1 c 10,0 19,1 29,1 l 7,1 c 9,0 18,0 28,1 l 7,0 c 10,0 20,1 30,1 l 4,0 c 11,0 21,1 32,1 l 0,-254 c -368,-3 -722,-46 -1055,-122 8,18 16,35 24,53 20,47 42,92 64,136 9,4 18,8 28,11 l 0,0 c 10,4 19,7 28,11 l 2,0 c 22,8 45,16 68,24 l 3,1 c 9,3 17,5 26,8 l 6,2 c 8,2 16,5 24,7 l 9,3 c 9,3 19,6 28,9 l 9,2 c 7,2 14,4 21,6 l 11,3 c 7,2 14,4 21,6 l 12,3 c 7,2 13,4 20,5 z m 729,86 c 11,0 21,-1 32,-1 l 4,0 c 10,0 20,-1 30,-1 l 7,0 c 10,-1 19,-1 28,-1 l 7,-1 c 10,0 19,-1 29,-1 l 5,-1 c 11,0 21,-1 31,-2 l 7,0 c 10,-1 19,-2 28,-3 l 8,0 c 9,-1 18,-2 26,-3 l 8,-1 c 9,-1 18,-2 27,-3 l 9,-1 c 9,-1 19,-2 29,-3 l 7,-1 c 8,-1 17,-2 26,-3 l 9,-2 c 8,-1 16,-2 24,-3 l 10,-2 c 8,-1 16,-2 24,-4 4,0 9,-1 13,-2 7,-1 14,-2 21,-3 5,-1 9,-2 14,-3 8,-1 15,-3 22,-4 l 11,-2 c 7,-2 14,-3 21,-4 5,-1 10,-2 15,-3 6,-2 12,-3 18,-4 6,-1 12,-3 17,-4 6,-1 11,-2 17,-4 5,-1 11,-2 16,-3 7,-2 13,-3 19,-5 5,-1 10,-2 14,-3 6,-2 12,-3 18,-5 7,-1 13,-3 20,-5 l 12,-3 c 7,-2 14,-4 21,-6 l 11,-3 c 7,-2 14,-4 21,-6 l 9,-2 c 9,-3 19,-6 28,-9 l 9,-3 c 8,-2 16,-5 24,-7 l 6,-2 c 9,-3 17,-5 26,-8 l 3,-1 c 23,-8 46,-16 68,-24 l 2,0 c 9,-4 18,-7 28,-11 l 0,0 c 10,-3 19,-7 28,-11 22,-44 44,-89 64,-136 8,-18 16,-35 24,-53 -333,76 -687,119 -1055,122 l 0,254 z m 1088,-236 c 6,-3 11,-5 17,-8 4,-2 9,-4 13,-6 6,-2 12,-5 17,-8 5,-2 9,-4 14,-6 6,-3 12,-6 18,-9 l 13,-6 c 6,-3 12,-6 18,-9 4,-2 7,-3 11,-5 7,-4 13,-7 19,-10 4,-2 8,-4 12,-6 6,-3 12,-6 18,-9 4,-2 8,-5 12,-7 6,-3 12,-6 18,-9 l 11,-6 c 7,-4 13,-7 19,-11 l 11,-6 c 6,-3 12,-7 17,-10 l 12,-7 c 7,-3 13,-7 19,-10 l 10,-7 c 6,-3 12,-7 18,-10 l 12,-7 c 5,-4 11,-7 17,-11 l 11,-7 c 6,-4 12,-7 18,-11 l 11,-7 c 5,-4 11,-8 17,-11 l 10,-7 c 6,-4 12,-8 19,-12 l 10,-7 c 5,-4 11,-8 17,-12 l 10,-7 c 6,-4 13,-9 19,-13 l 8,-6 c 6,-4 12,-9 19,-13 l 9,-7 c 4,-3 8,-6 12,-9 -152,58 -311,107 -476,149 -14,36 -30,72 -45,107 -9,21 -19,41 -28,61 4,-2 9,-3 13,-5 z m 745,-483 c 2,-2 5,-4 7,-6 l 2,-2 c 8,-7 15,-14 22,-21 l 3,-2 c 8,-7 15,-14 23,-22 l 1,-1 c 7,-7 15,-14 23,-22 l 0,0 0,0 c 8,-8 16,-16 24,-24 8,-8 15,-15 23,-23 l 1,-1 c 7,-8 14,-15 21,-22 l 4,-4 c 6,-6 11,-12 17,-18 l 9,-10 c 4,-4 8,-8 11,-12 5,-5 10,-10 14,-15 92,-203 169,-420 230,-649 -253,97 -537,178 -844,240 -62,307 -143,591 -240,844 229,-61 446,-138 649,-230 z m 838,-1387 c 2,-6 3,-12 5,-17 1,-5 2,-10 3,-15 2,-6 3,-12 5,-18 1,-6 2,-12 3,-18 2,-5 3,-10 4,-16 1,-6 3,-11 4,-17 1,-6 2,-12 4,-17 1,-6 2,-11 3,-16 1,-7 3,-14 4,-21 l 2,-11 c 1,-7 3,-15 4,-22 1,-5 2,-9 3,-14 1,-7 2,-14 3,-21 1,-5 2,-9 2,-13 2,-8 3,-16 4,-24 l 2,-10 c 1,-8 2,-16 3,-24 l 2,-9 c 1,-9 2,-17 3,-26 l 1,-8 c 1,-10 2,-19 3,-28 l 1,-9 c 1,-9 2,-17 3,-26 l 1,-9 c 1,-9 2,-17 3,-26 l 0,-8 c 1,-9 2,-18 3,-28 l 0,-7 c 1,-10 2,-20 2,-31 l 1,-5 c 0,-10 1,-19 1,-29 l 1,-7 c 0,-9 0,-18 1,-28 l 0,-7 c 0,-10 1,-20 1,-30 l 0,-4 c 0,-11 1,-21 1,-32 l -254,0 c -3,368 -46,722 -122,1055 18,-8 35,-16 53,-24 47,-20 92,-42 136,-64 20,-51 39,-103 56,-156 l 0,-2 c 3,-9 6,-18 9,-28 l 1,-2 c 4,-14 8,-27 11,-40 l 1,-2 c 2,-8 5,-17 7,-25 l 2,-7 c 2,-8 4,-15 6,-23 l 3,-10 c 2,-7 3,-14 5,-21 z m 86,-729 c 0,-11 -1,-21 -1,-32 l 0,-4 c 0,-10 -1,-20 -1,-30 l 0,-7 c -1,-10 -1,-19 -1,-28 l -1,-7 c 0,-10 -1,-19 -1,-29 l -1,-5 c 0,-11 -1,-21 -2,-31 l 0,-7 c -1,-10 -2,-19 -3,-28 l 0,-8 c -1,-9 -2,-17 -3,-26 l -1,-9 c -1,-9 -2,-17 -3,-26 l -1,-9 c -1,-9 -2,-18 -3,-28 l -1,-8 c -1,-9 -2,-17 -3,-26 l -2,-9 c -1,-8 -2,-16 -3,-24 l -2,-10 c -1,-8 -2,-16 -4,-24 l -2,-13 c -1,-7 -2,-14 -3,-21 -1,-5 -2,-9 -3,-14 -1,-7 -3,-15 -4,-22 l -2,-11 c -1,-7 -3,-14 -4,-21 -1,-5 -2,-10 -3,-16 -2,-5 -3,-11 -4,-17 -1,-6 -3,-11 -4,-17 -1,-6 -2,-11 -4,-16 -1,-6 -2,-12 -3,-18 -2,-6 -3,-12 -5,-18 -1,-5 -2,-10 -3,-15 -2,-5 -3,-11 -5,-17 -2,-7 -3,-14 -5,-21 l -3,-10 c -2,-8 -4,-15 -6,-23 l -2,-7 c -2,-8 -5,-17 -7,-25 l -1,-2 c -3,-13 -7,-26 -11,-40 l -1,-2 c -3,-10 -6,-19 -9,-28 l 0,-2 c -17,-53 -36,-105 -56,-156 -44,-22 -89,-44 -136,-64 -18,-8 -35,-16 -53,-24 76,333 119,687 122,1055 l 254,0 z m -332,78 -861,0 c -2,475 -46,928 -124,1341 312,-65 598,-149 852,-250 83,-342 130,-709 133,-1091 z m -939,0 -1486,0 0,1486 c 482,-2 941,-48 1358,-128 80,-417 126,-876 128,-1358 z m -1564,0 -1486,0 c 2,482 48,941 128,1358 417,80 876,126 1358,128 l 0,-1486 z m -1564,0 -861,0 c 3,382 50,749 133,1091 254,101 540,185 852,250 -78,-413 -122,-866 -124,-1341 z m -861,-78 861,0 c 2,-475 46,-928 124,-1341 -312,65 -598,149 -852,250 -83,342 -130,709 -133,1091 z m 939,0 1486,0 0,-1486 c -482,2 -941,48 -1358,128 -80,417 -126,876 -128,1358 z m 1564,0 1486,0 c -2,-482 -48,-941 -128,-1358 C 980,9523 521,9477 39,9475 l 0,1486 z m 1564,0 861,0 c -3,-382 -50,-749 -133,-1091 -254,-101 -540,-185 -852,-250 78,413 122,866 124,1341 z M 39,8536 l 0,861 c 475,2 928,46 1341,124 -65,-312 -149,-598 -250,-852 C 788,8586 421,8539 39,8536 Z m 0,4067 0,861 c 382,-3 749,-50 1091,-133 101,-254 185,-540 250,-852 -413,78 -866,122 -1341,124 z m -78,861 0,-861 c -475,-2 -928,-46 -1341,-124 65,312 149,598 250,852 342,83 709,130 1091,133 z m 0,-4067 0,-861 c -382,3 -749,50 -1091,133 -101,254 -185,540 -250,852 413,-78 866,-122 1341,-124 z m 2436,416 c 37,14 72,30 107,45 21,9 41,19 61,28 -79,-183 -178,-356 -293,-516 l -1,-2 c -8,-10 -15,-21 -23,-31 58,152 107,311 149,476 z m 168,2301 c -20,9 -40,19 -61,28 -35,15 -70,31 -107,45 -42,165 -91,324 -149,476 8,-10 15,-21 23,-31 l 1,-2 c 115,-160 214,-333 293,-516 z m -4962,73 c -37,-14 -72,-30 -107,-45 -21,-9 -41,-19 -61,-28 79,183 178,356 293,516 l 1,2 c 8,10 15,21 23,31 -58,-152 -107,-311 -149,-476 z m -168,-2301 c 20,-9 40,-19 61,-28 35,-15 70,-31 107,-45 42,-165 91,-324 149,-476 -8,10 -15,21 -23,31 l -1,2 c -115,160 -214,333 -293,516 z"
       id="path3917"
       inkscape:connector-curvature="0"
       style="fill:#ffffff;fill-rule:nonzero" /><path
       class="fil1"
       d="m 0,11807 c 866,0 1476,787 1476,1398 0,39 -10,131 -38,198 l -533,1267 c -290,71 -593,110 -905,110 -312,0 -615,-39 -905,-110 l -533,-1267 c -28,-67 -38,-159 -38,-198 0,-611 610,-1398 1476,-1398 z"
       id="path3919"
       inkscape:connector-curvature="0"
       style="fill:#ffffff" /><g
       id="_872358608"><path
         class="fil1"
         d="m 0,12792 c 119,-596 517,-1690 1034,-1690 179,0 378,159 477,358 99,-79 179,-99 278,-99 358,0 497,437 358,1113 279,-338 458,-974 458,-1471 0,-795 -358,-1551 -1034,-2068 0,398 -279,656 -696,656 -438,0 -577,-378 -497,-954 -318,358 -318,497 -378,497 -60,0 -60,-139 -378,-497 80,576 -59,954 -497,954 -417,0 -696,-258 -696,-656 -676,517 -1034,1273 -1034,2068 0,497 179,1133 458,1471 -139,-676 0,-1113 358,-1113 99,0 179,20 278,99 99,-199 298,-358 477,-358 517,0 915,1094 1034,1690 z"
         id="path3922"
         inkscape:connector-curvature="0"
         style="fill:#ffffff" /><path
         class="fil0"
         d="m 0,12531 c 49,-186 112,-370 182,-544 133,-328 431,-944 852,-944 201,0 390,159 496,330 79,-51 157,-72 259,-72 74,0 144,16 208,53 149,86 217,256 245,418 24,140 22,292 7,440 100,-186 171,-399 217,-589 48,-200 79,-413 79,-620 0,-767 -338,-1464 -923,-1950 -51,375 -353,598 -747,598 -133,0 -262,-33 -365,-120 -110,-93 -166,-228 -192,-367 -21,-110 -25,-226 -19,-341 -53,69 -103,140 -148,214 -18,31 -36,63 -55,92 -18,28 -38,52 -71,61 -8,3 -17,4 -25,4 -8,0 -17,-1 -25,-4 -33,-9 -53,-33 -71,-61 -19,-29 -37,-61 -55,-92 -45,-74 -95,-145 -148,-214 6,115 2,231 -19,341 -26,139 -82,274 -192,367 -103,87 -232,120 -365,120 -394,0 -696,-223 -747,-598 -585,486 -923,1183 -923,1950 0,207 31,420 79,620 46,190 117,403 217,589 -15,-148 -17,-300 7,-440 28,-162 96,-332 245,-418 64,-37 134,-53 208,-53 102,0 180,21 259,72 106,-171 295,-330 496,-330 421,0 719,616 852,944 70,174 133,358 182,544 z"
         id="path3924"
         inkscape:connector-curvature="0"
         style="fill:#000000" /></g><path
       class="fil2"
       d="m 1292,13345 c 9,-20 14,-44 14,-68 0,-94 -77,-171 -171,-171 -80,0 -148,56 -166,131 l -371,1435 c 52,-8 104,-17 156,-28 l 538,-1299 z m -2261,-108 371,1435 c -52,-8 -104,-17 -156,-28 l -538,-1299 c -9,-20 -14,-44 -14,-68 0,-94 77,-171 171,-171 81,0 148,56 166,131 z m 196,129 c -5,-18 -8,-37 -8,-56 0,-113 91,-204 204,-204 106,0 194,82 202,186 l 1,2 124,1418 c -60,-4 -120,-10 -179,-16 l -344,-1330 z m 985,-28 c 1,-6 1,-12 1,-18 0,-118 -95,-214 -213,-214 -118,0 -213,96 -213,214 0,6 0,12 1,18 l 0,0 120,1381 c 31,1 61,1 92,1 31,0 61,0 92,-1 l 120,-1381 0,0 z m 561,28 c 5,-18 8,-37 8,-56 0,-113 -91,-204 -204,-204 -106,0 -193,82 -202,186 l -1,2 -124,1418 c 60,-4 120,-10 179,-16 l 344,-1330 z"
       id="path3926"
       inkscape:connector-curvature="0"
       style="fill:#ff0000" /><path
       class="fil1"
       d="m 3146,9456 c 229,466 358,990 358,1544 0,1493 -934,2768 -2250,3273 l 197,-477 c 1009,-525 1699,-1580 1699,-2796 0,-498 -116,-969 -322,-1388 l 318,-156 z m -5974,156 c -206,419 -322,890 -322,1388 0,1216 690,2271 1699,2796 l 197,477 c -1316,-505 -2250,-1780 -2250,-3273 0,-554 129,-1078 358,-1544 l 318,156 z"
       id="path3928"
       inkscape:connector-curvature="0"
       style="fill:#ffffff" /><circle
       class="fil5"
       cy="11000"
       r="3898"
       id="circle3930"
       cx="0"
       style="fill:none" /><path
       class="fil4"
       d="m -2372,9007 c 3,1 4,3 5,5 0,2 0,4 0,7 -1,2 -2,6 -4,10 -2,4 -5,9 -9,15 -5,6 -8,11 -12,15 -3,3 -6,6 -8,7 -3,2 -6,3 -8,3 -3,0 -6,-1 -8,-2 l -134,-32 c -18,-4 -34,-6 -49,-6 -14,-1 -28,1 -40,5 -12,4 -24,10 -34,19 -11,8 -20,20 -30,33 l -16,24 191,129 c 1,2 3,3 4,5 0,2 0,4 -1,7 0,3 -2,6 -4,10 -2,4 -4,9 -8,15 -4,5 -7,9 -10,13 -3,3 -6,6 -9,8 -2,1 -4,2 -6,2 -2,0 -4,0 -6,-2 l -418,-283 c -2,-1 -3,-3 -4,-5 -1,-1 0,-4 0,-6 1,-3 2,-7 4,-11 2,-4 5,-9 9,-14 4,-6 7,-10 10,-14 3,-3 6,-6 8,-7 3,-2 5,-3 7,-3 2,0 3,1 5,2 l 178,121 17,-25 c 9,-13 15,-26 19,-38 3,-13 4,-25 3,-37 -1,-12 -5,-25 -11,-37 -6,-13 -14,-27 -24,-41 l -73,-97 c -2,-2 -3,-4 -4,-7 -1,-2 -2,-5 -1,-8 0,-3 1,-6 3,-11 3,-4 6,-9 10,-16 4,-5 7,-10 10,-13 3,-4 6,-6 8,-7 2,-2 4,-3 6,-2 2,0 4,1 6,2 2,1 5,4 7,7 3,2 5,6 9,10 l 67,96 c 10,14 18,27 25,39 6,12 11,24 13,35 3,11 4,22 4,32 0,11 -2,22 -6,33 l 1,0 c 11,-8 22,-14 32,-19 11,-5 22,-8 34,-10 12,-2 26,-3 40,-1 14,1 31,4 49,8 l 132,29 c 7,2 12,3 15,4 2,2 5,3 6,4 z"
       id="path3932"
       inkscape:connector-curvature="0"
       style="fill:#ffffff;fill-rule:nonzero" /><path
       id="1"
       class="fil4"
       d="m -1993,8624 c 6,3 10,5 13,8 3,2 4,5 3,8 0,3 -2,6 -5,10 -3,4 -8,9 -14,15 -6,5 -11,10 -15,13 -4,3 -7,5 -10,6 -2,1 -4,2 -7,1 -1,0 -4,-1 -6,-2 l -121,-62 -159,151 56,121 c 1,3 1,5 2,7 0,2 -1,5 -2,8 -1,2 -3,5 -6,9 -3,4 -7,8 -13,13 -5,6 -10,10 -14,13 -4,3 -8,4 -11,4 -2,0 -5,-1 -7,-4 -3,-3 -5,-7 -8,-13 l -208,-476 c -1,-3 -2,-6 -2,-8 0,-3 1,-6 3,-9 1,-3 4,-7 7,-11 4,-3 9,-8 15,-14 6,-6 11,-11 16,-14 4,-4 8,-7 11,-8 4,-2 7,-2 9,-2 3,0 6,1 9,2 l 464,234 z m -461,-158 0,0 114,253 133,-126 -247,-127 z"
       inkscape:connector-curvature="0"
       style="fill:#ffffff;fill-rule:nonzero" /><path
       id="2"
       class="fil4"
       d="m -1722,8280 c 13,19 22,39 25,60 4,20 3,41 -3,62 -6,20 -17,41 -33,61 -16,20 -37,39 -63,57 -14,9 -28,17 -41,23 -13,6 -25,10 -36,13 -11,3 -19,4 -26,5 -6,1 -11,1 -14,0 -3,0 -6,-1 -8,-2 -2,-1 -5,-2 -7,-4 -2,-3 -5,-6 -8,-9 -3,-3 -6,-8 -10,-13 -4,-7 -7,-12 -7,-15 -1,-4 1,-6 3,-8 3,-2 8,-3 14,-4 7,0 16,-1 26,-3 11,-1 23,-4 36,-9 13,-5 28,-13 43,-24 15,-10 27,-21 37,-33 10,-12 16,-24 20,-37 4,-13 5,-25 4,-38 -2,-13 -7,-25 -14,-36 -9,-12 -19,-22 -30,-29 -12,-7 -24,-11 -38,-12 -14,-1 -29,1 -45,6 -15,5 -32,14 -49,25 l -51,36 c -3,1 -5,3 -7,3 -2,0 -5,0 -7,-1 -2,-1 -5,-3 -7,-6 -3,-3 -6,-6 -9,-11 -3,-4 -5,-8 -7,-11 -1,-3 -2,-6 -2,-9 0,-2 0,-5 1,-7 1,-2 3,-3 5,-5 l 48,-33 c 15,-10 27,-21 37,-33 10,-12 17,-24 21,-36 4,-13 5,-25 3,-38 -2,-13 -7,-25 -15,-37 -7,-10 -15,-18 -24,-24 -9,-6 -18,-10 -29,-11 -10,-1 -22,0 -33,4 -12,3 -25,10 -38,19 -14,10 -26,20 -35,31 -9,10 -16,20 -22,30 -6,9 -10,17 -13,24 -4,7 -7,11 -10,13 -1,1 -3,2 -4,2 -1,0 -3,-1 -5,-2 -2,-1 -4,-4 -6,-6 -2,-3 -4,-6 -8,-11 -1,-3 -3,-5 -5,-9 -2,-2 -3,-5 -4,-8 -1,-2 -2,-5 -2,-8 -1,-2 -1,-5 0,-8 1,-3 3,-8 7,-17 5,-8 11,-16 18,-26 8,-10 17,-20 28,-31 11,-11 24,-21 38,-31 22,-15 42,-25 62,-31 19,-6 38,-8 55,-6 17,2 33,8 47,17 15,10 27,23 38,39 11,15 18,29 21,44 4,15 5,29 4,43 -2,13 -6,27 -12,39 -6,12 -14,23 -24,33 l 0,1 c 15,-8 30,-12 46,-14 16,-2 31,-2 46,2 15,4 29,10 43,19 13,9 25,21 35,35 z"
       inkscape:connector-curvature="0"
       style="fill:#ffffff;fill-rule:nonzero" /><path
       id="3"
       class="fil4"
       d="m -1186,8119 c 5,4 8,8 10,11 2,3 3,6 2,9 -1,2 -4,5 -8,8 -4,3 -10,6 -17,10 -8,4 -14,8 -18,10 -5,2 -8,3 -11,3 -3,1 -5,0 -7,0 -2,-1 -4,-2 -6,-4 l -101,-91 -192,106 23,131 c 1,3 1,5 1,8 -1,2 -2,4 -3,6 -2,3 -5,5 -9,8 -4,3 -9,6 -16,10 -7,3 -12,6 -17,8 -5,2 -9,2 -11,2 -3,-1 -5,-3 -7,-6 -1,-4 -3,-8 -4,-15 l -80,-513 c -1,-3 -1,-6 0,-8 0,-3 2,-5 4,-8 3,-3 6,-5 11,-8 4,-3 10,-7 17,-10 8,-5 14,-8 19,-10 5,-3 10,-4 13,-5 4,-1 7,-1 10,0 2,1 5,3 7,5 l 390,343 z m -406,-269 0,0 47,274 160,-89 -207,-185 z"
       inkscape:connector-curvature="0"
       style="fill:#ffffff;fill-rule:nonzero" /><path
       id="4"
       class="fil4"
       d="m -718,7995 c 1,3 1,5 0,7 0,2 -2,3 -4,5 -2,2 -5,4 -9,6 -5,2 -10,3 -16,5 -8,3 -14,4 -19,5 -5,0 -9,1 -12,0 -3,0 -5,-1 -7,-3 -2,-1 -4,-4 -6,-6 l -83,-109 c -11,-15 -22,-27 -33,-37 -11,-9 -23,-16 -35,-21 -12,-5 -25,-7 -38,-7 -14,0 -28,2 -44,7 l -28,9 66,220 c 0,2 1,4 0,6 -1,2 -2,4 -4,5 -3,2 -6,4 -10,6 -4,2 -9,4 -16,5 -6,2 -11,4 -16,4 -5,1 -9,1 -11,1 -3,0 -5,-1 -7,-2 -1,-1 -2,-3 -3,-5 l -145,-484 c 0,-2 0,-4 0,-6 1,-2 2,-3 5,-5 2,-2 5,-4 10,-6 4,-2 9,-3 15,-5 7,-2 12,-3 17,-4 4,-1 8,-1 11,-1 2,0 5,1 6,2 2,1 3,3 3,5 l 62,206 28,-9 c 15,-4 29,-10 39,-17 11,-8 19,-16 26,-27 7,-10 12,-22 15,-35 4,-14 6,-29 6,-47 l 6,-121 c 0,-3 0,-6 1,-8 1,-3 2,-5 4,-7 2,-2 6,-4 10,-6 4,-2 10,-4 17,-6 7,-2 13,-4 17,-4 4,-1 8,-1 11,-1 2,0 5,1 6,2 1,2 2,3 2,5 1,3 2,7 2,10 0,4 0,9 0,14 l -9,117 c -1,17 -3,33 -5,46 -3,13 -7,25 -12,35 -4,11 -10,20 -17,28 -7,7 -16,15 -25,21 l 0,1 c 13,0 26,2 37,5 11,3 22,8 33,14 10,6 21,14 31,24 11,10 21,23 33,38 l 83,106 c 5,6 8,10 9,12 2,3 3,5 3,7 z"
       inkscape:connector-curvature="0"
       style="fill:#ffffff;fill-rule:nonzero" /><path
       id="5"
       class="fil4"
       d="m -9,7843 c 1,4 1,8 1,11 0,3 0,6 -1,9 0,2 -1,4 -2,6 -1,2 -3,5 -5,8 -3,3 -8,7 -16,14 -8,6 -19,12 -31,18 -12,7 -27,12 -43,17 -16,5 -34,9 -54,10 -34,3 -65,0 -94,-9 -28,-9 -53,-24 -74,-45 -21,-20 -38,-47 -51,-78 -13,-32 -22,-69 -25,-112 -4,-43 -1,-82 7,-117 9,-35 22,-66 41,-91 18,-25 41,-45 68,-60 27,-15 58,-23 92,-26 15,-1 30,-1 45,1 14,1 28,4 40,7 13,4 24,8 34,12 10,5 17,9 21,13 4,3 6,6 8,8 1,1 2,4 3,6 1,3 1,6 2,9 1,4 1,8 2,13 0,5 0,10 0,13 0,4 -1,8 -2,10 0,3 -2,5 -3,6 -1,2 -3,2 -5,2 -4,1 -10,-1 -17,-6 -7,-5 -16,-10 -27,-16 -12,-5 -25,-10 -41,-14 -15,-4 -34,-5 -55,-3 -24,2 -44,8 -63,19 -18,11 -33,26 -45,45 -12,19 -21,42 -26,69 -5,27 -7,57 -4,90 3,33 9,63 18,88 9,24 21,45 36,61 15,16 32,28 52,35 20,7 43,10 67,8 21,-2 39,-6 54,-12 15,-7 28,-13 39,-21 10,-7 19,-13 25,-19 7,-6 12,-9 16,-9 2,0 4,0 5,1 2,0 3,2 4,4 1,2 2,5 2,9 1,4 2,9 2,16 z"
       inkscape:connector-curvature="0"
       style="fill:#ffffff;fill-rule:nonzero" /><path
       id="6"
       class="fil4"
       d="m 506,7950 c -1,2 -1,4 -2,5 -2,2 -4,3 -6,4 -3,1 -7,1 -11,1 -5,0 -11,0 -17,0 -7,-1 -12,-2 -17,-3 -4,0 -8,-2 -10,-3 -3,-1 -5,-3 -6,-4 -1,-2 -1,-4 -1,-6 l 37,-453 -236,-20 -38,454 c 0,2 -1,4 -2,5 -2,1 -4,2 -6,3 -3,1 -7,2 -11,2 -5,0 -10,0 -17,-1 -7,0 -12,-1 -17,-2 -4,-1 -8,-2 -10,-3 -3,-2 -5,-3 -6,-5 -1,-1 -1,-3 -1,-5 l 41,-486 c 0,-9 3,-16 8,-21 5,-4 12,-6 19,-5 l 327,27 c 7,1 13,3 17,8 4,6 6,13 5,22 l -40,486 z"
       inkscape:connector-curvature="0"
       style="fill:#ffffff;fill-rule:nonzero" /><path
       id="7"
       class="fil4"
       d="m 970,8050 c -2,5 -3,9 -5,12 -1,4 -3,6 -5,8 -2,2 -4,4 -6,4 -2,1 -4,1 -6,0 l -243,-71 c -6,-2 -11,-6 -15,-11 -4,-6 -5,-14 -2,-24 l 133,-451 c 3,-10 8,-16 14,-18 7,-3 13,-3 19,-2 l 240,71 c 2,0 3,2 5,3 1,2 2,4 2,6 1,3 1,6 0,10 0,4 -1,8 -3,13 -1,5 -2,9 -4,12 -2,4 -3,6 -5,8 -2,2 -4,3 -6,4 -2,0 -4,0 -6,0 l -197,-58 -47,158 169,50 c 3,1 4,2 6,3 1,2 2,4 2,7 1,2 1,5 1,9 -1,4 -2,8 -3,13 -2,5 -3,9 -5,12 -1,3 -3,6 -5,7 -2,2 -3,3 -5,4 -2,0 -4,0 -6,-1 l -170,-50 -53,181 200,59 c 2,1 4,2 5,3 2,2 3,4 4,6 0,3 0,6 0,10 -1,4 -2,8 -3,13 z"
       inkscape:connector-curvature="0"
       style="fill:#ffffff;fill-rule:nonzero" /><path
       id="8"
       class="fil4"
       d="m 1456,8427 c -1,2 -2,4 -3,5 -2,0 -4,1 -6,1 -2,-1 -5,-1 -9,-2 -4,-1 -8,-3 -14,-6 -5,-2 -9,-4 -13,-6 -3,-3 -5,-4 -7,-6 -2,-2 -3,-4 -3,-5 -1,-2 -1,-4 0,-6 l 54,-116 -326,-150 c -7,-4 -12,-8 -14,-14 -2,-7 -1,-14 3,-23 l 204,-443 c 1,-1 2,-3 4,-4 1,-1 4,-1 7,-1 3,0 6,1 11,2 4,2 9,4 15,6 6,3 11,6 15,8 4,2 7,5 9,7 2,2 3,4 3,6 1,2 0,4 0,5 l -191,415 214,98 191,-414 c 1,-2 2,-3 4,-4 1,-1 4,-1 7,-1 3,0 6,1 11,2 4,2 9,4 15,7 6,2 11,5 15,7 4,2 7,5 9,7 2,2 3,4 3,6 1,2 0,4 0,5 l -191,415 48,22 c 5,2 8,5 9,9 1,4 0,9 -3,15 l -71,153 z"
       inkscape:connector-curvature="0"
       style="fill:#ffffff;fill-rule:nonzero" /><path
       id="9"
       class="fil4"
       d="m 1931,8592 c -1,1 -3,3 -5,3 -1,1 -4,1 -6,0 -3,-1 -7,-2 -11,-4 -4,-2 -8,-5 -14,-9 -5,-4 -10,-7 -13,-10 -3,-3 -6,-6 -7,-8 -2,-3 -3,-5 -3,-7 0,-2 1,-4 2,-5 l 134,-192 -196,-137 -134,191 c -1,2 -3,3 -5,4 -2,1 -4,1 -7,0 -2,-1 -6,-2 -10,-4 -4,-2 -9,-5 -14,-9 -6,-4 -10,-7 -13,-11 -4,-3 -6,-6 -8,-8 -2,-2 -2,-4 -2,-6 0,-2 0,-4 1,-6 l 290,-414 c 2,-2 3,-3 5,-4 2,0 4,0 7,1 3,0 6,2 10,4 4,2 9,5 14,9 6,3 10,7 14,10 3,3 6,6 7,8 2,3 3,5 3,7 0,2 -1,3 -2,5 l -121,173 196,137 121,-172 c 1,-2 3,-3 5,-4 1,-1 4,-1 6,0 3,1 7,2 10,4 4,2 9,5 15,9 5,4 10,7 13,10 3,4 6,6 7,9 2,2 3,4 3,6 0,2 -1,4 -2,6 l -290,414 z"
       inkscape:connector-curvature="0"
       style="fill:#ffffff;fill-rule:nonzero" /><path
       id="10"
       class="fil4"
       d="m 2354,8981 c -3,5 -5,9 -8,12 -3,3 -5,4 -8,4 -3,-1 -6,-2 -10,-6 -4,-3 -9,-8 -15,-14 -5,-6 -10,-11 -13,-15 -3,-4 -5,-7 -6,-10 -1,-2 -2,-4 -2,-6 1,-2 1,-4 3,-7 l 62,-121 -151,-159 -122,56 c -2,1 -4,2 -6,2 -3,0 -5,0 -8,-1 -2,-1 -5,-4 -9,-7 -4,-3 -8,-7 -13,-12 -6,-6 -10,-11 -13,-15 -3,-4 -5,-8 -5,-10 0,-3 2,-6 5,-8 2,-3 7,-5 12,-8 l 477,-208 c 3,-1 6,-2 8,-2 3,0 6,1 9,3 3,1 6,4 10,8 4,3 9,8 15,14 6,6 10,11 14,16 4,4 6,8 8,12 2,3 2,6 2,9 0,2 -1,5 -2,8 l -234,465 z m 158,-462 -1,0 -253,114 126,133 128,-247 z"
       inkscape:connector-curvature="0"
       style="fill:#ffffff;fill-rule:nonzero" /><path
       id="11"
       class="fil4"
       d="m 2700,9248 c -19,13 -39,22 -59,26 -21,4 -42,3 -62,-3 -21,-6 -42,-17 -62,-32 -20,-16 -39,-37 -57,-63 -10,-14 -18,-28 -24,-41 -6,-13 -10,-25 -13,-36 -3,-10 -5,-19 -5,-26 -1,-6 -1,-11 -1,-14 1,-3 1,-6 2,-8 1,-2 3,-4 5,-7 2,-2 5,-5 8,-8 4,-3 8,-6 13,-10 7,-5 12,-7 16,-8 3,0 6,1 8,4 2,3 3,7 3,14 1,7 2,16 3,26 2,11 5,22 10,36 5,13 13,27 24,43 10,15 21,27 33,36 13,10 25,16 38,20 12,4 25,5 38,3 12,-1 24,-6 36,-14 12,-9 22,-19 28,-30 7,-12 11,-24 12,-38 1,-14 -1,-28 -6,-44 -5,-16 -14,-33 -26,-50 l -35,-51 c -2,-2 -3,-5 -4,-7 0,-2 0,-4 1,-6 1,-3 3,-5 6,-8 2,-2 6,-5 11,-8 4,-3 7,-5 11,-7 3,-2 6,-3 8,-3 3,0 5,0 8,2 1,1 3,2 5,4 l 33,48 c 11,15 22,27 33,37 12,9 24,16 37,20 12,4 25,5 38,4 12,-2 25,-8 37,-16 10,-7 18,-15 23,-24 6,-9 10,-19 11,-29 1,-11 0,-22 -4,-34 -3,-12 -10,-24 -19,-37 -10,-14 -20,-26 -31,-35 -11,-9 -21,-16 -30,-22 -10,-5 -18,-10 -25,-13 -7,-3 -11,-6 -13,-9 -1,-1 -2,-3 -2,-4 1,-2 1,-3 2,-5 1,-2 3,-4 6,-6 3,-2 6,-5 11,-8 2,-2 5,-4 8,-6 3,-1 6,-3 9,-4 2,-1 5,-1 7,-2 3,0 6,0 9,0 3,1 8,3 16,7 8,5 17,11 27,18 10,8 20,17 31,28 11,11 21,23 31,38 15,21 26,41 32,61 6,19 8,38 6,55 -2,17 -7,33 -17,48 -9,14 -22,27 -38,38 -15,10 -29,17 -44,21 -15,4 -29,5 -43,4 -13,-2 -26,-5 -39,-12 -12,-6 -24,-14 -33,-23 l -1,0 c 7,15 12,30 14,45 3,16 2,32 -2,47 -3,15 -9,29 -18,42 -9,14 -21,26 -35,36 z"
       inkscape:connector-curvature="0"
       style="fill:#ffffff;fill-rule:nonzero" /></g></svg>