<?xml version="1.0" encoding="UTF-8" standalone="no"?>
<!-- Creator: CorelDRAW X7 -->

<svg
   xmlns:dc="http://purl.org/dc/elements/1.1/"
   xmlns:cc="http://creativecommons.org/ns#"
   xmlns:rdf="http://www.w3.org/1999/02/22-rdf-syntax-ns#"
   xmlns:svg="http://www.w3.org/2000/svg"
   xmlns="http://www.w3.org/2000/svg"
   xmlns:sodipodi="http://sodipodi.sourceforge.net/DTD/sodipodi-0.dtd"
   xmlns:inkscape="http://www.inkscape.org/namespaces/inkscape"
   xml:space="preserve"
   width="7.8740005in"
   height="7.8740005in"
   version="1.1"
   style="clip-rule:evenodd;fill-rule:evenodd;image-rendering:optimizeQuality;shape-rendering:geometricPrecision;text-rendering:geometricPrecision"
   viewBox="0 0 7874.0005 7874.0005"
   id="svg3473"
   inkscape:version="0.91 r13725"
   sodipodi:docname="ariadna_sas.svg"><metadata
     id="metadata3528"><rdf:RDF><cc:Work
         rdf:about=""><dc:format>image/svg+xml</dc:format><dc:type
           rdf:resource="http://purl.org/dc/dcmitype/StillImage" /></cc:Work></rdf:RDF></metadata><sodipodi:namedview
     pagecolor="#ffffff"
     bordercolor="#666666"
     borderopacity="1"
     objecttolerance="10"
     gridtolerance="10"
     guidetolerance="10"
     inkscape:pageopacity="0"
     inkscape:pageshadow="2"
     inkscape:window-width="640"
     inkscape:window-height="480"
     id="namedview3526"
     showgrid="false"
     inkscape:zoom="0.23838384"
     inkscape:cx="736.83001"
     inkscape:cy="849.33005"
     inkscape:window-x="0"
     inkscape:window-y="0"
     inkscape:window-maximized="0"
     inkscape:current-layer="svg3473" /><defs
     id="defs3475"><style
       type="text/css"
       id="style3477"><![CDATA[
    .fil5 {fill:none}
    .fil0 {fill:black}
    .fil4 {fill:#009FE2}
    .fil2 {fill:#009FE3}
    .fil3 {fill:#FEE75C}
    .fil1 {fill:#FFCC00}
    .fil6 {fill:white;fill-rule:nonzero}
   ]]></style></defs><g
     id="Layer_x0020_1"
     transform="translate(3937,-7063)"><metadata
       id="CorelCorpID_0Corel-Layer" /><circle
       class="fil0"
       cy="11000"
       r="3937"
       id="circle3481"
       cx="0"
       style="fill:#000000" /><circle
       class="fil1"
       cy="11000"
       r="3858"
       id="circle3483"
       cx="0"
       style="fill:#ffcc00" /><circle
       class="fil2"
       cy="11000"
       r="3583"
       id="circle3485"
       cx="0"
       style="fill:#009fe3" /><path
       class="fil1"
       d="m 2137,12260 c 218,-369 343,-800 343,-1260 C 2480,9630 1370,8520 0,8520 c -1370,0 -2480,1110 -2480,2480 0,460 125,891 343,1260 l 4274,0 z m -116,-197 c 173,-328 262,-691 262,-1063 C 2283,9739 1261,8717 0,8717 c -1261,0 -2283,1022 -2283,2283 0,372 89,735 262,1063 l 4042,0 z"
       id="path3487"
       inkscape:connector-curvature="0"
       style="fill:#ffcc00" /><g
       id="Right_x0020_Wing"><path
         class="fil0"
         d="m 2070,8889 c 7,-6 14,-12 20,-17 31,-27 96,-81 140,-60 29,14 34,53 34,82 0,145 -99,296 -220,425 10,-5 19,-11 29,-16 37,-19 96,-46 136,-21 29,17 35,53 35,84 0,155 -151,318 -301,447 6,-3 13,-5 19,-8 43,-17 110,-38 152,-7 25,19 32,50 32,80 0,161 -242,334 -442,434 80,-10 245,-23 245,58 0,184 -178,295 -349,361 58,2 114,12 161,35 13,7 25,17 30,32 19,54 -59,120 -95,148 -74,57 -166,105 -253,138 -34,14 -71,26 -108,35 16,1 33,1 48,2 52,0 106,-3 158,0 35,2 87,7 108,40 12,19 10,41 4,62 -50,147 -250,279 -421,347 26,-1 53,-2 78,1 21,3 43,12 52,33 23,54 -64,119 -102,143 -46,29 -100,51 -155,65 2,0 3,0 4,0 35,6 73,12 107,23 26,8 60,22 69,51 6,17 1,34 -8,49 -75,122 -243,157 -386,165 20,11 40,23 59,34 43,26 176,109 151,173 -3,7 -7,14 -11,20 -49,74 -170,78 -248,66 -11,-1 -21,-3 -31,-5 49,52 90,113 113,180 6,17 7,35 -2,50 -29,55 -151,42 -201,36 -24,-2 -47,-6 -70,-9 11,10 22,21 33,32 21,22 41,46 53,75 7,19 11,39 11,59 0,36 -11,70 -38,94 -42,40 -108,42 -162,30 -24,-6 -48,-15 -70,-27 37,76 61,177 -38,217 -7,3 -15,5 -24,6 -41,5 -82,-16 -116,-39 -40,-26 -78,-59 -116,-89 -34,-28 -73,-57 -113,-76 -7,-3 -12,-9 -12,-17 -7,-374 -13,-748 -20,-1122 0,-6 2,-11 7,-15 60,-56 113,-120 160,-188 94,-138 164,-302 187,-468 21,-143 7,-298 -75,-421 -33,-50 -29,-165 -1,-217 74,-135 153,-266 237,-394 132,-202 273,-397 414,-593 53,-72 100,-151 146,-228 53,-91 104,-183 157,-274 54,-96 110,-191 169,-284 171,-266 374,-511 531,-787 25,-42 72,-109 130,-95 70,16 84,126 84,184 0,81 -54,192 -92,263 -29,56 -62,111 -95,166 2,-4 5,-7 7,-10 30,-39 64,-83 101,-116 25,-23 59,-49 94,-42 15,2 28,10 38,20 46,46 45,92 45,152 0,128 -96,294 -213,448 z"
         id="path3490"
         inkscape:connector-curvature="0"
         style="fill:#000000" /><path
         class="fil3"
         d="m 383,12830 c -2,-3 -4,-5 -5,-8 -7,-8 -5,-21 4,-27 9,-6 21,-4 27,4 2,2 4,5 6,7 34,45 87,77 142,90 40,10 94,11 127,-20 18,-17 25,-40 25,-65 0,-15 -3,-30 -9,-44 -9,-24 -27,-44 -45,-62 -25,-27 -53,-51 -78,-77 -7,-6 -8,-15 -4,-23 4,-8 13,-12 21,-10 44,8 87,15 131,20 28,3 147,14 163,-15 3,-6 1,-13 -1,-19 -31,-90 -97,-168 -171,-227 -8,-6 -10,-18 -4,-26 5,-9 16,-12 25,-7 34,17 73,28 110,34 63,9 189,9 217,-63 5,-12 -23,-41 -30,-48 -30,-29 -69,-54 -104,-76 -41,-25 -86,-49 -130,-67 -9,-4 -14,-13 -12,-22 2,-9 10,-16 19,-16 139,0 355,-16 436,-148 3,-4 7,-12 5,-17 -9,-27 -121,-43 -145,-47 -41,-6 -86,-12 -125,-25 -9,-3 -15,-12 -13,-22 1,-10 10,-17 19,-17 88,0 181,-27 256,-74 25,-15 53,-36 71,-60 5,-6 19,-25 15,-34 -2,-5 -16,-8 -22,-9 -29,-4 -66,-1 -96,1 -34,1 -76,5 -109,-1 -9,-2 -16,-9 -16,-19 -1,-9 6,-18 15,-20 166,-37 460,-189 517,-361 3,-8 6,-20 1,-28 -11,-18 -59,-21 -77,-22 -52,-3 -105,0 -156,0 -55,-1 -118,-4 -169,-23 -9,-4 -14,-12 -13,-22 1,-9 9,-16 18,-17 71,-5 144,-25 210,-51 84,-32 172,-78 243,-132 23,-19 50,-42 68,-66 6,-8 18,-27 14,-38 -2,-5 -7,-8 -11,-10 -84,-42 -212,-33 -303,-18 -10,2 -20,-5 -22,-15 -2,-10 4,-20 14,-23 174,-48 477,-156 477,-375 0,-1 0,-3 0,-4 -7,-16 -58,-20 -72,-21 -51,-3 -107,3 -157,11 -53,7 -107,18 -159,33 -10,3 -21,-3 -24,-13 -3,-11 3,-22 13,-25 50,-15 101,-36 148,-59 59,-28 116,-60 171,-95 92,-60 277,-195 277,-319 0,-16 -2,-38 -16,-48 -55,-42 -251,81 -298,111 -16,11 -33,21 -49,32 -9,6 -20,4 -27,-5 -6,-8 -4,-20 4,-27 154,-119 485,-364 485,-575 0,-15 -2,-42 -17,-51 -23,-14 -76,12 -97,23 -55,29 -110,69 -160,106 -34,25 -67,50 -101,75 -28,21 -57,42 -87,61 -9,5 -21,3 -27,-6 -6,-9 -4,-21 5,-27 184,-132 503,-407 503,-653 0,-10 -1,-42 -11,-47 -20,-9 -83,43 -97,55 -60,50 -116,110 -170,167 -35,36 -70,73 -106,108 -30,30 -62,60 -96,87 -8,6 -19,5 -26,-3 -7,-7 -7,-19 0,-26 158,-168 526,-559 526,-794 0,-48 3,-88 -34,-124 -4,-5 -10,-8 -16,-10 -45,-7 -135,114 -158,144 -41,53 -81,107 -122,161 -47,61 -95,120 -148,177 -7,8 -18,8 -26,2 -8,-6 -10,-18 -4,-26 40,-61 81,-122 121,-183 71,-107 142,-217 201,-330 34,-63 88,-171 88,-244 0,-34 -5,-73 -18,-105 -6,-15 -18,-37 -36,-41 -34,-8 -73,54 -87,77 -157,276 -361,521 -532,788 -59,92 -114,187 -168,282 -53,92 -104,184 -158,275 -46,78 -94,158 -147,231 -140,195 -282,390 -413,591 -83,128 -162,258 -235,392 -22,39 -26,138 -1,176 87,131 103,296 81,449 -24,171 -96,341 -194,484 -46,68 -99,132 -159,189 6,367 13,734 19,1101 40,20 77,47 111,75 37,29 74,61 113,88 24,16 59,36 89,32 5,-1 10,-2 15,-4 17,-7 31,-17 39,-34 27,-62 -46,-176 -82,-224 z"
         id="path3492"
         inkscape:connector-curvature="0"
         style="fill:#fee75c" /></g><g
       id="Left_x0020_Wing"><path
         class="fil0"
         d="m -2070,8889 c -7,-6 -14,-12 -20,-17 -31,-27 -96,-81 -140,-60 -29,14 -34,53 -34,82 0,145 99,296 220,425 -10,-5 -19,-11 -29,-16 -37,-19 -96,-46 -136,-21 -29,17 -35,53 -35,84 0,155 151,318 301,447 -6,-3 -13,-5 -19,-8 -43,-17 -110,-38 -152,-7 -25,19 -32,50 -32,80 0,161 242,334 442,434 -80,-10 -245,-23 -245,58 0,184 178,295 349,361 -58,2 -114,12 -161,35 -13,7 -25,17 -30,32 -19,54 59,120 95,148 74,57 166,105 253,138 34,14 71,26 108,35 -16,1 -33,1 -48,2 -52,0 -106,-3 -158,0 -35,2 -88,7 -108,40 -12,19 -10,41 -4,62 50,147 250,279 421,347 -26,-1 -53,-2 -78,1 -21,3 -43,12 -52,33 -23,54 64,119 102,143 46,29 100,51 155,65 -2,0 -3,0 -4,0 -35,6 -73,12 -107,23 -26,8 -60,22 -69,51 -6,17 -1,34 8,49 75,122 243,157 386,165 -20,11 -40,23 -59,34 -43,26 -176,109 -151,173 3,7 7,14 11,20 49,74 170,78 248,66 11,-1 21,-3 31,-5 -49,52 -90,113 -113,180 -6,17 -7,35 2,50 29,55 151,42 201,36 24,-2 47,-6 70,-9 -11,10 -22,21 -33,32 -21,22 -41,46 -53,75 -7,19 -11,39 -11,59 0,36 11,70 38,94 42,40 108,42 162,30 24,-6 48,-15 70,-27 -37,76 -61,177 38,217 7,3 15,5 24,6 41,5 82,-16 116,-39 40,-26 78,-59 116,-89 34,-28 73,-57 113,-76 7,-3 12,-9 12,-17 7,-374 13,-748 20,-1122 0,-6 -2,-11 -7,-15 -60,-56 -113,-120 -160,-188 -94,-138 -164,-302 -187,-468 -21,-143 -7,-298 75,-421 33,-50 29,-165 1,-217 -74,-135 -153,-266 -237,-394 -132,-202 -273,-397 -414,-593 -53,-72 -100,-151 -146,-228 -53,-91 -104,-183 -157,-274 -54,-96 -110,-191 -169,-284 -171,-266 -374,-511 -531,-787 -25,-42 -72,-109 -130,-95 -70,16 -84,126 -84,184 0,81 54,192 92,263 29,56 62,111 95,166 -2,-4 -5,-7 -7,-10 -30,-39 -64,-83 -101,-116 -25,-23 -59,-49 -94,-42 -15,2 -28,10 -38,20 -46,46 -45,92 -45,152 0,128 96,294 213,448 z"
         id="path3495"
         inkscape:connector-curvature="0"
         style="fill:#000000" /><path
         class="fil3"
         d="m -383,12830 c 2,-3 4,-5 5,-8 7,-8 5,-21 -4,-27 -9,-6 -21,-4 -27,4 -2,2 -4,5 -6,7 -34,45 -87,77 -142,90 -40,10 -94,11 -127,-20 -18,-17 -25,-40 -25,-65 0,-15 3,-30 9,-44 9,-24 27,-44 45,-62 25,-27 53,-51 78,-77 7,-6 8,-15 4,-23 -4,-8 -13,-12 -21,-10 -44,8 -87,15 -131,20 -28,3 -147,14 -163,-15 -3,-6 -1,-13 1,-19 31,-90 97,-168 171,-227 8,-6 10,-18 4,-26 -5,-9 -16,-12 -25,-7 -34,17 -73,28 -110,34 -63,9 -189,9 -217,-63 -5,-12 23,-41 30,-48 30,-29 69,-54 104,-76 41,-25 86,-49 130,-67 9,-4 14,-13 12,-22 -2,-9 -10,-16 -19,-16 -139,0 -355,-16 -436,-148 -3,-4 -7,-12 -5,-17 9,-27 121,-43 145,-47 41,-6 86,-12 125,-25 9,-3 15,-12 13,-22 -1,-10 -10,-17 -19,-17 -88,0 -181,-27 -256,-74 -25,-15 -53,-36 -71,-60 -5,-6 -19,-25 -15,-34 2,-5 16,-8 22,-9 29,-4 66,-1 96,1 34,1 76,5 109,-1 9,-2 16,-9 16,-19 1,-9 -6,-18 -15,-20 -166,-37 -460,-189 -517,-361 -3,-8 -6,-20 -1,-28 11,-18 59,-21 77,-22 52,-3 105,0 156,0 55,-1 118,-4 169,-23 9,-4 14,-12 13,-22 -1,-9 -9,-16 -18,-17 -71,-5 -144,-25 -210,-51 -84,-32 -172,-78 -243,-132 -23,-19 -50,-42 -68,-66 -6,-8 -18,-27 -14,-38 2,-5 7,-8 11,-10 84,-42 212,-33 303,-18 10,2 20,-5 22,-15 2,-10 -4,-20 -14,-23 -174,-48 -477,-156 -477,-375 0,-1 0,-3 0,-4 7,-16 58,-20 72,-21 51,-3 107,3 157,11 53,7 107,18 159,33 10,3 21,-3 24,-13 3,-11 -3,-22 -13,-25 -50,-15 -101,-36 -148,-59 -59,-28 -116,-60 -171,-95 -92,-60 -277,-195 -277,-319 0,-16 2,-38 16,-48 55,-42 251,81 298,111 16,11 33,21 49,32 9,6 20,4 27,-5 6,-8 4,-20 -4,-27 -154,-119 -485,-364 -485,-575 0,-15 2,-42 17,-51 23,-14 76,12 97,23 55,29 110,69 160,106 34,25 67,50 101,75 28,21 57,42 87,61 9,5 21,3 27,-6 6,-9 4,-21 -5,-27 -184,-132 -503,-407 -503,-653 0,-10 1,-42 11,-47 20,-9 83,43 97,55 60,50 116,110 170,167 35,36 70,73 106,108 30,30 62,60 96,87 8,6 19,5 26,-3 7,-7 7,-19 0,-26 -158,-168 -526,-559 -526,-794 0,-48 -3,-88 34,-124 4,-5 10,-8 16,-10 45,-7 135,114 158,144 41,53 81,107 122,161 47,61 95,120 148,177 7,8 18,8 26,2 8,-6 10,-18 4,-26 -40,-61 -81,-122 -121,-183 -71,-107 -142,-217 -201,-330 -34,-63 -88,-171 -88,-244 0,-34 4,-73 18,-105 6,-15 18,-37 36,-41 34,-8 73,54 87,77 157,276 361,521 532,788 59,92 114,187 168,282 53,92 104,184 158,275 46,78 94,158 147,231 140,195 282,390 413,591 83,128 162,258 235,392 22,39 26,138 1,176 -87,131 -103,296 -81,449 24,171 96,341 194,484 46,68 99,132 159,189 -6,367 -13,734 -19,1101 -40,20 -77,47 -111,75 -37,29 -74,61 -113,88 -24,16 -59,36 -89,32 -5,-1 -10,-2 -15,-4 -17,-7 -31,-17 -39,-34 -27,-62 46,-176 82,-224 z"
         id="path3497"
         inkscape:connector-curvature="0"
         style="fill:#fee75c" /></g><g
       id="Knife"><path
         class="fil4"
         d="m -240,11079 8,-63 0,-1453 2,0 -42,-231 0,-209 51,-229 449,0 52,229 0,209 -42,231 2,0 0,1454 6,62 408,0 0,157 -393,0 19,194 0,1843 -3,8 c -103,328 -175,686 -194,1029 l -9,155 -96,-121 c -182,-227 -289,-694 -289,-982 l 0,-1676 53,-450 -388,0 0,-157 406,0 z"
         id="path3500"
         inkscape:connector-curvature="0"
         style="fill:#009fe2" /><path
         class="fil0"
         d="m -587,11138 400,0 14,-118 0,-217 39,0 0,-79 -39,0 0,-216 39,0 0,-79 -39,0 0,-216 39,0 0,-79 -39,0 0,-217 39,0 0,-78 -39,0 0,-217 39,0 0,-79 -39,0 -40,-216 0,-197 40,-177 354,0 39,177 0,197 -39,216 -49,0 0,79 49,0 0,217 -49,0 0,78 49,0 0,217 -49,0 0,79 49,0 0,216 -49,0 0,79 49,0 0,216 -49,0 0,79 49,0 0,217 11,118 402,0 0,39 -398,0 24,256 0,1831 c -98,315 -177,689 -196,1043 -158,-197 -276,-636 -276,-945 l 0,-1673 60,-512 -395,0 0,-39 z"
         id="path3502"
         inkscape:connector-curvature="0"
         style="fill:#000000" /></g><circle
       class="fil5"
       cy="11000"
       r="3898"
       id="circle3504"
       cx="0"
       style="fill:none" /><path
       class="fil6"
       d="m -2672,11725 -565,246 -13,-80 373,-148 c 39,-16 78,-31 117,-44 -65,-5 -103,-8 -113,-10 l -415,-51 -15,-94 286,-130 c 71,-33 138,-58 202,-78 -39,-2 -83,-5 -133,-10 l -393,-34 -12,-79 614,72 12,75 -431,193 c -35,16 -58,26 -66,29 28,2 52,4 72,7 l 468,56 12,80 z"
       id="path3506"
       inkscape:connector-curvature="0"
       style="fill:#ffffff;fill-rule:nonzero" /><polygon
       id="1"
       class="fil6"
       points="-3108,10938 -3083,10629 -3327,10609 -3320,10531 -2726,10580 -2733,10658 -3013,10635 -3038,10944 -2758,10967 -2765,11045 -3359,10996 -3352,10918 "
       style="fill:#ffffff;fill-rule:nonzero" /><path
       id="2"
       class="fil6"
       d="m -2993,10393 c -96,-26 -163,-73 -203,-139 -39,-66 -48,-140 -25,-221 14,-52 40,-97 78,-132 37,-36 81,-58 133,-68 51,-10 106,-7 163,9 58,17 107,43 147,79 39,37 65,79 76,129 12,50 11,100 -3,150 -15,54 -42,98 -80,134 -38,35 -82,57 -134,66 -51,10 -102,7 -152,-7 z m 23,-78 c 69,20 129,16 179,-10 50,-26 83,-67 99,-123 16,-57 9,-110 -21,-158 -30,-48 -82,-83 -156,-103 -47,-13 -90,-17 -129,-11 -39,6 -73,22 -101,47 -27,25 -46,56 -57,94 -15,54 -9,106 17,155 26,49 82,85 169,109 z"
       inkscape:connector-curvature="0"
       style="fill:#ffffff;fill-rule:nonzero" /><path
       id="3"
       class="fil6"
       d="m 2554,9917 525,-325 23,78 -348,200 c -36,22 -73,42 -109,60 65,-4 103,-6 113,-6 l 419,-9 27,92 -264,169 c -65,42 -128,78 -188,106 38,-4 82,-7 132,-10 l 394,-21 23,76 -618,16 -22,-72 398,-253 c 34,-21 54,-34 62,-38 -28,2 -52,3 -72,3 l -472,11 -23,-77 z"
       inkscape:connector-curvature="0"
       style="fill:#ffffff;fill-rule:nonzero" /><polygon
       id="4"
       class="fil6"
       points="2739,10668 2727,10590 3316,10498 3328,10576 "
       style="fill:#ffffff;fill-rule:nonzero" /><polygon
       id="5"
       class="fil6"
       points="2881,11201 3349,11206 3348,11281 2752,11276 2753,11195 3224,10886 2756,10881 2756,10806 3353,10811 3352,10892 "
       style="fill:#ffffff;fill-rule:nonzero" /><path
       id="6"
       class="fil6"
       d="m 2929,11423 -9,74 c -30,-3 -56,0 -77,8 -21,9 -41,25 -58,49 -17,24 -29,53 -37,86 -6,29 -7,56 -3,80 4,25 12,44 25,58 13,15 28,24 46,28 18,4 35,2 51,-6 16,-7 32,-23 46,-45 10,-14 27,-47 51,-98 24,-50 45,-85 61,-104 20,-25 43,-42 67,-51 25,-9 50,-10 77,-4 30,6 55,20 77,42 22,23 36,51 43,86 6,35 5,72 -4,111 -9,43 -24,80 -45,110 -21,30 -47,51 -78,63 -31,12 -63,15 -98,9 l 11,-75 c 37,4 68,-4 92,-23 23,-19 40,-50 50,-95 10,-47 9,-83 -4,-108 -12,-25 -31,-40 -55,-45 -21,-4 -39,-1 -56,12 -17,11 -39,47 -67,107 -28,59 -49,100 -65,121 -23,30 -48,51 -76,62 -27,11 -56,13 -88,6 -31,-6 -58,-22 -81,-45 -24,-24 -40,-54 -48,-90 -8,-37 -7,-76 2,-118 11,-52 28,-95 51,-127 23,-33 52,-56 88,-69 35,-14 72,-17 111,-9 z"
       inkscape:connector-curvature="0"
       style="fill:#ffffff;fill-rule:nonzero" /><circle
       class="fil5"
       cy="11000"
       r="3898"
       id="circle3514"
       cx="0"
       style="fill:none" /><path
       class="fil6"
       d="m -1317,8567 -247,-543 187,-85 c 43,-19 76,-31 100,-36 35,-7 67,-6 98,3 39,11 75,32 106,63 32,31 58,71 80,119 19,42 31,80 36,117 5,36 4,68 -1,96 -6,27 -15,51 -27,71 -13,20 -30,39 -53,57 -22,18 -50,34 -83,49 l -196,89 z m 43,-97 116,-52 c 36,-17 62,-33 80,-49 17,-16 29,-32 36,-50 9,-25 12,-54 8,-87 -4,-33 -15,-70 -33,-111 -26,-57 -55,-96 -88,-118 -32,-22 -64,-32 -96,-30 -22,1 -55,11 -98,31 l -114,52 189,414 z"
       id="path3516"
       inkscape:connector-curvature="0"
       style="fill:#ffffff;fill-rule:nonzero" /><path
       id="path3518"
       class="fil6"
       d="m -826,8339 137,-624 84,-13 331,553 -89,14 -96,-169 -247,38 -37,188 -83,13 z m 133,-268 200,-30 -86,-154 c -27,-47 -47,-86 -61,-116 -1,39 -6,78 -14,117 l -39,183 z"
       inkscape:connector-curvature="0"
       style="fill:#ffffff;fill-rule:nonzero" /><path
       id="path3520"
       class="fil6"
       d="m -210,8243 5,-596 265,2 c 53,1 93,7 121,18 28,11 50,30 66,57 16,27 24,57 24,90 -1,43 -15,78 -42,107 -28,29 -70,47 -128,54 21,10 37,20 48,30 22,22 44,48 64,80 l 103,163 -100,0 -78,-125 c -22,-36 -41,-64 -56,-83 -14,-19 -28,-33 -39,-40 -12,-8 -24,-13 -36,-16 -9,-2 -24,-4 -44,-4 l -92,-1 -2,265 -79,-1 z m 82,-332 170,2 c 36,0 64,-3 84,-11 21,-7 36,-19 47,-35 11,-16 16,-34 16,-54 1,-28 -9,-51 -30,-69 -20,-19 -52,-28 -96,-29 l -189,-1 -2,197 z"
       inkscape:connector-curvature="0"
       style="fill:#ffffff;fill-rule:nonzero" /><polygon
       id="polygon3522"
       class="fil6"
       points="925,7836 581,7762 542,7940 864,8010 850,8078 527,8009 485,8207 842,8284 827,8353 393,8259 518,7677 940,7768 "
       style="fill:#ffffff;fill-rule:nonzero" /><path
       id="path3524"
       class="fil6"
       d="m 990,8205 70,26 c -10,28 -13,54 -9,77 3,23 15,45 35,67 19,22 44,41 75,55 27,13 53,20 78,22 24,2 45,-2 62,-11 17,-10 29,-23 37,-39 8,-17 10,-34 6,-52 -4,-17 -15,-35 -34,-54 -12,-13 -39,-37 -83,-72 -44,-35 -74,-63 -89,-82 -19,-26 -30,-52 -34,-78 -3,-26 1,-51 13,-76 13,-27 32,-49 59,-65 27,-17 58,-24 93,-22 36,1 71,11 108,28 40,19 72,42 96,69 25,27 40,57 44,90 5,33 0,65 -13,97 l -71,-27 c 12,-36 12,-67 -1,-95 -13,-27 -40,-50 -82,-70 -43,-20 -78,-27 -105,-21 -28,7 -46,21 -57,44 -9,19 -10,38 -1,57 7,19 37,49 89,89 52,41 86,71 103,91 25,29 40,59 44,88 4,29 0,58 -14,87 -13,29 -34,52 -62,70 -29,17 -62,26 -99,26 -38,-1 -75,-10 -114,-28 -49,-23 -86,-49 -113,-79 -26,-30 -42,-64 -47,-101 -6,-37 0,-74 16,-111 z"
       inkscape:connector-curvature="0"
       style="fill:#ffffff;fill-rule:nonzero" /></g></svg>