<?xml version="1.0" encoding="UTF-8" standalone="no"?>
<!-- Creator: CorelDRAW X7 -->

<svg
   xmlns:dc="http://purl.org/dc/elements/1.1/"
   xmlns:cc="http://creativecommons.org/ns#"
   xmlns:rdf="http://www.w3.org/1999/02/22-rdf-syntax-ns#"
   xmlns:svg="http://www.w3.org/2000/svg"
   xmlns="http://www.w3.org/2000/svg"
   xmlns:sodipodi="http://sodipodi.sourceforge.net/DTD/sodipodi-0.dtd"
   xmlns:inkscape="http://www.inkscape.org/namespaces/inkscape"
   xml:space="preserve"
   width="7.8740005in"
   height="7.8740005in"
   version="1.1"
   style="clip-rule:evenodd;fill-rule:evenodd;image-rendering:optimizeQuality;shape-rendering:geometricPrecision;text-rendering:geometricPrecision"
   viewBox="0 0 7874.0005 7874.0005"
   id="svg4285"
   inkscape:version="0.91 r13725"
   sodipodi:docname="Ariadna - Scouts - [N3] [Vyo].svg"><metadata
     id="metadata4322"><rdf:RDF><cc:Work
         rdf:about=""><dc:format>image/svg+xml</dc:format><dc:type
           rdf:resource="http://purl.org/dc/dcmitype/StillImage" /></cc:Work></rdf:RDF></metadata><sodipodi:namedview
     pagecolor="#ffffff"
     bordercolor="#666666"
     borderopacity="1"
     objecttolerance="10"
     gridtolerance="10"
     guidetolerance="10"
     inkscape:pageopacity="0"
     inkscape:pageshadow="2"
     inkscape:window-width="640"
     inkscape:window-height="480"
     id="namedview4320"
     showgrid="false"
     inkscape:zoom="0.23838384"
     inkscape:cx="736.83001"
     inkscape:cy="849.33005"
     inkscape:window-x="0"
     inkscape:window-y="0"
     inkscape:window-maximized="0"
     inkscape:current-layer="svg4285" /><defs
     id="defs4287"><style
       type="text/css"
       id="style4289"><![CDATA[
    .fil4 {fill:none}
    .fil0 {fill:black}
    .fil2 {fill:#0080FF}
    .fil1 {fill:#FFD600}
    .fil5 {fill:black;fill-rule:nonzero}
    .fil3 {fill:black;fill-rule:nonzero}
   ]]></style></defs><g
     id="Layer_x0020_1"
     transform="translate(3937,-7063)"><metadata
       id="CorelCorpID_0Corel-Layer" /><circle
       class="fil0"
       cy="11000"
       r="3937"
       id="circle4293"
       cx="0"
       style="fill:#000000" /><circle
       class="fil1"
       cy="11000"
       r="3661"
       id="circle4295"
       cx="0"
       style="fill:#ffd600" /><circle
       class="fil2"
       cy="11000"
       r="2205"
       id="circle4297"
       cx="0"
       style="fill:#0080ff" /><path
       class="fil3"
       d="m 0,8756 c 620,0 1181,251 1587,657 406,406 657,967 657,1587 0,620 -251,1181 -657,1587 -406,406 -967,657 -1587,657 -620,0 -1181,-251 -1587,-657 -406,-406 -657,-967 -657,-1587 0,-620 251,-1181 657,-1587 406,-406 967,-657 1587,-657 z m 39,79 0,512 c 441,10 840,193 1130,484 299,299 485,712 485,1169 0,457 -186,870 -485,1169 -290,291 -689,474 -1130,484 l 0,512 c 583,-10 1109,-251 1492,-634 392,-392 634,-933 634,-1531 0,-598 -242,-1139 -634,-1531 C 1148,9086 622,8845 39,8835 Z m -78,4330 0,-512 c -441,-10 -840,-193 -1130,-484 -299,-299 -485,-712 -485,-1169 0,-457 186,-870 485,-1169 290,-291 689,-474 1130,-484 l 0,-512 c -583,10 -1109,251 -1492,634 -392,392 -634,933 -634,1531 0,598 242,1139 634,1531 383,383 909,624 1492,634 z m 78,-3739 0,591 c 256,10 487,118 657,287 178,178 288,424 288,696 0,272 -110,518 -288,696 -170,169 -401,277 -657,287 l 0,591 c 420,-10 798,-184 1075,-460 285,-285 461,-679 461,-1114 0,-435 -176,-829 -461,-1114 C 837,9610 459,9436 39,9426 Z m -78,3148 0,-591 c -256,-10 -487,-118 -657,-287 -178,-178 -288,-424 -288,-696 0,-272 110,-518 288,-696 170,-169 401,-277 657,-287 l 0,-591 c -420,10 -798,184 -1075,460 -285,285 -461,679 -461,1114 0,435 176,829 461,1114 277,276 655,450 1075,460 z m 78,-2479 0,1810 c 235,-10 446,-109 601,-265 164,-164 266,-390 266,-640 0,-250 -102,-476 -266,-640 -155,-156 -366,-255 -601,-265 z m -78,1810 0,-1810 c -235,10 -446,109 -601,265 -164,164 -266,390 -266,640 0,250 102,476 266,640 155,156 366,255 601,265 z"
       id="path4299"
       inkscape:connector-curvature="0"
       style="fill:#000000;fill-rule:nonzero" /><path
       class="fil0"
       d="m 0,12792 c 119,-596 517,-1690 1034,-1690 179,0 378,159 477,358 99,-79 179,-99 278,-99 358,0 497,437 358,1113 279,-338 458,-974 458,-1471 0,-795 -358,-1551 -1034,-2068 0,398 -279,656 -696,656 -438,0 -577,-378 -497,-954 -318,358 -318,497 -378,497 -60,0 -60,-139 -378,-497 80,576 -59,954 -497,954 -417,0 -696,-258 -696,-656 -676,517 -1034,1273 -1034,2068 0,497 179,1133 458,1471 -139,-676 0,-1113 358,-1113 99,0 179,20 278,99 99,-199 298,-358 477,-358 517,0 915,1094 1034,1690 z"
       id="path4301"
       inkscape:connector-curvature="0"
       style="fill:#000000" /><circle
       class="fil4"
       cy="11000"
       r="3898"
       id="circle4303"
       cx="0"
       style="fill:none" /><path
       class="fil5"
       d="m -2290,8802 c 28,22 50,46 64,71 15,26 23,53 25,81 2,28 -3,57 -14,88 -11,30 -30,61 -55,94 l -33,42 159,124 c 3,2 5,4 5,8 1,3 1,7 -1,12 -2,5 -5,11 -9,18 -4,7 -10,15 -18,25 -8,10 -15,18 -20,24 -6,6 -11,10 -16,13 -4,3 -8,4 -11,4 -3,0 -6,-1 -9,-3 l -448,-349 c -12,-10 -19,-20 -20,-31 -1,-11 3,-21 11,-32 l 91,-117 c 9,-12 19,-23 28,-33 9,-10 21,-21 35,-34 15,-12 32,-23 52,-32 20,-9 40,-14 61,-16 20,-1 41,2 62,9 20,7 41,18 61,34 z m -75,112 c -18,-14 -34,-22 -50,-24 -16,-3 -31,-2 -43,3 -13,5 -23,11 -32,20 -10,9 -18,19 -26,29 l -34,43 169,132 35,-45 c 13,-17 21,-32 26,-46 4,-15 5,-28 2,-41 -2,-13 -8,-26 -16,-38 -8,-12 -18,-23 -31,-33 z"
       id="path4305"
       inkscape:connector-curvature="0"
       style="fill:#000000;fill-rule:nonzero" /><path
       id="1"
       class="fil5"
       d="m -1577,8704 c 11,6 19,11 24,15 5,5 8,9 7,14 0,5 -4,11 -10,18 -6,6 -15,15 -27,26 -12,11 -22,19 -29,25 -8,6 -13,10 -18,12 -5,2 -9,3 -12,2 -3,0 -6,-2 -10,-4 l -117,-66 -176,158 52,119 c 2,4 4,8 4,12 1,3 0,8 -3,12 -2,4 -6,10 -12,16 -6,6 -14,14 -25,23 -11,10 -20,18 -27,23 -7,5 -13,7 -18,6 -5,0 -9,-4 -13,-9 -4,-6 -8,-15 -13,-26 l -228,-547 c -2,-5 -4,-10 -4,-15 0,-4 1,-9 4,-14 3,-5 8,-11 15,-18 7,-7 17,-16 30,-27 14,-13 26,-23 34,-30 9,-8 17,-13 22,-16 6,-2 12,-3 16,-3 4,1 10,3 15,7 l 519,287 z m -525,-152 0,0 112,260 134,-120 -246,-140 z"
       inkscape:connector-curvature="0"
       style="fill:#000000;fill-rule:nonzero" /><path
       id="2"
       class="fil5"
       d="m -1252,8385 c 15,28 23,56 24,83 1,27 -5,53 -17,78 -12,25 -29,48 -53,70 -23,22 -52,42 -85,60 -18,10 -36,18 -52,23 -17,6 -32,10 -46,12 -13,2 -24,3 -33,3 -9,0 -15,0 -20,-1 -4,-1 -7,-2 -10,-4 -3,-2 -6,-5 -10,-9 -3,-5 -7,-10 -11,-17 -4,-7 -9,-16 -15,-26 -6,-12 -10,-21 -10,-26 0,-6 2,-10 6,-12 4,-2 10,-2 18,-2 8,0 18,0 31,-1 12,-1 26,-3 42,-7 15,-3 32,-10 51,-20 16,-9 29,-18 39,-28 11,-11 19,-22 24,-34 5,-11 7,-23 7,-35 0,-12 -4,-24 -10,-36 -7,-13 -15,-24 -25,-31 -10,-8 -22,-13 -36,-15 -13,-2 -28,-2 -44,2 -17,4 -35,12 -56,23 l -58,31 c -5,3 -9,4 -12,4 -3,0 -6,-1 -9,-3 -4,-2 -7,-6 -11,-11 -3,-6 -7,-13 -12,-22 -5,-9 -8,-15 -10,-21 -3,-6 -4,-10 -4,-14 0,-4 1,-8 3,-10 1,-3 4,-5 7,-7 l 60,-32 c 18,-10 32,-20 44,-30 11,-11 20,-22 25,-34 6,-11 8,-23 8,-35 -1,-13 -4,-25 -11,-37 -5,-11 -12,-19 -20,-26 -8,-7 -17,-11 -27,-13 -10,-3 -21,-2 -34,0 -12,2 -25,8 -40,15 -17,10 -32,20 -44,31 -11,11 -21,22 -29,31 -8,10 -14,19 -19,26 -5,8 -9,13 -13,15 -2,1 -4,1 -6,1 -2,-1 -4,-2 -7,-4 -3,-3 -6,-6 -9,-11 -3,-5 -7,-12 -12,-20 -3,-6 -5,-11 -8,-16 -2,-5 -4,-10 -5,-15 -1,-4 -2,-8 -2,-12 -1,-4 0,-8 2,-12 1,-5 5,-12 12,-21 7,-10 16,-21 27,-32 12,-11 25,-22 41,-34 15,-11 33,-22 51,-33 30,-16 58,-26 84,-32 25,-6 49,-7 70,-3 21,4 40,13 57,26 17,13 31,31 43,54 10,17 16,35 19,52 3,17 3,34 0,50 -3,16 -9,31 -17,45 -8,15 -19,28 -33,39 l 1,1 c 19,-7 37,-11 56,-11 18,0 36,3 53,9 16,6 31,15 45,27 14,12 26,27 35,44 z"
       inkscape:connector-curvature="0"
       style="fill:#000000;fill-rule:nonzero" /><path
       id="3"
       class="fil5"
       d="m -739,8184 c 7,22 9,42 9,61 -1,19 -5,37 -11,54 -6,16 -15,32 -27,46 -12,14 -25,26 -41,38 -15,11 -33,21 -51,30 -19,9 -41,17 -65,24 l -161,49 c -11,3 -20,2 -29,-2 -9,-4 -15,-13 -19,-26 l -158,-528 c -4,-13 -3,-24 2,-32 5,-9 13,-14 23,-17 l 152,-46 c 37,-11 69,-17 97,-19 27,-1 52,2 73,9 22,8 40,20 55,36 15,17 27,38 35,64 4,15 6,29 6,43 0,14 -1,28 -6,40 -3,13 -10,25 -17,36 -9,12 -19,22 -30,31 18,-2 35,-2 52,2 17,3 32,10 47,19 14,9 27,21 38,35 11,15 20,33 26,53 z m -235,-207 c -3,-12 -9,-23 -15,-31 -7,-9 -15,-15 -24,-19 -10,-4 -21,-6 -33,-6 -12,0 -28,2 -47,8 l -62,19 47,157 68,-21 c 18,-5 32,-11 41,-19 9,-7 16,-16 21,-25 5,-9 8,-20 8,-31 1,-10 -1,-21 -4,-32 z m 109,250 c -4,-15 -10,-26 -18,-36 -8,-10 -18,-17 -29,-22 -12,-4 -25,-7 -40,-7 -15,0 -34,4 -57,11 l -72,21 51,172 89,-26 c 17,-5 31,-11 41,-18 11,-7 20,-16 26,-25 6,-10 11,-21 12,-33 2,-11 1,-24 -3,-37 z"
       inkscape:connector-curvature="0"
       style="fill:#000000;fill-rule:nonzero" /><path
       id="4"
       class="fil5"
       d="m -266,8242 c 2,10 2,18 2,24 1,6 0,12 -1,16 -1,4 -3,7 -5,9 -2,2 -4,3 -7,4 l -314,47 c -11,2 -20,0 -28,-5 -8,-5 -14,-15 -16,-29 l -82,-545 c -2,-14 0,-24 6,-32 7,-7 15,-12 26,-13 l 311,-47 c 3,-1 6,0 8,1 3,1 5,4 8,7 2,4 4,9 5,15 2,7 4,14 5,24 2,9 2,17 3,23 0,7 -1,12 -2,16 -1,4 -2,7 -4,9 -2,2 -5,4 -8,4 l -223,34 24,152 188,-28 c 3,-1 6,0 9,1 2,2 5,4 7,8 2,3 4,8 6,14 2,6 3,14 5,23 1,9 2,17 2,23 0,6 -1,11 -2,15 -1,4 -2,7 -4,9 -3,2 -5,3 -8,4 l -189,28 27,176 225,-34 c 3,0 5,0 8,2 3,1 5,4 7,7 3,4 5,9 6,15 2,6 4,14 5,23 z"
       inkscape:connector-curvature="0"
       style="fill:#000000;fill-rule:nonzero" /><path
       id="5"
       class="fil5"
       d="m 386,8436 c 0,3 -1,6 -2,8 -2,3 -5,4 -9,6 -4,1 -10,2 -17,3 -7,1 -17,1 -28,1 -11,0 -20,-1 -27,-1 -7,-1 -13,-2 -17,-4 -5,-1 -8,-3 -9,-5 -2,-3 -3,-6 -3,-9 l 1,-149 -420,-3 -1,149 c 0,4 -1,6 -3,9 -2,2 -5,4 -9,5 -5,2 -11,3 -18,3 -7,1 -16,1 -27,1 -11,0 -21,0 -28,-1 -7,-1 -13,-2 -17,-4 -4,-1 -7,-3 -9,-5 -1,-2 -2,-5 -2,-8 l 1,-228 c 0,-9 2,-16 6,-20 4,-4 10,-6 18,-6 l 29,0 c 8,-11 16,-22 23,-33 7,-12 14,-26 20,-42 7,-16 13,-35 20,-58 6,-22 13,-49 19,-81 7,-32 13,-71 20,-115 6,-44 13,-96 21,-155 2,-15 6,-25 11,-32 6,-7 14,-10 25,-10 l 323,2 c 12,0 21,4 27,11 7,6 10,16 10,30 l -4,487 54,0 c 9,0 15,3 19,8 3,4 5,11 5,19 l -2,227 z M 185,7757 38,7756 c -6,50 -13,93 -19,131 -5,37 -11,70 -17,99 -6,28 -12,52 -18,73 -6,20 -12,38 -18,53 -6,15 -13,27 -19,38 -7,11 -14,21 -20,29 l 255,2 3,-424 z"
       inkscape:connector-curvature="0"
       style="fill:#000000;fill-rule:nonzero" /><path
       id="6"
       class="fil5"
       d="m 844,8379 c -1,3 -2,6 -5,8 -2,2 -6,3 -11,4 -5,0 -11,0 -19,0 -8,-1 -19,-3 -31,-5 -11,-3 -21,-6 -29,-8 -8,-3 -14,-6 -19,-8 -5,-3 -8,-6 -10,-9 -1,-2 -2,-5 -1,-9 l 45,-210 c -17,-2 -34,-5 -50,-7 -17,-2 -33,-5 -50,-9 -34,-7 -64,-17 -91,-29 -26,-12 -48,-28 -65,-47 -17,-20 -28,-44 -33,-72 -6,-29 -4,-63 5,-103 l 38,-177 c 1,-3 2,-6 5,-7 2,-2 6,-4 11,-4 4,-1 11,-1 19,0 8,1 18,2 30,5 12,2 22,5 30,8 7,2 14,5 19,8 4,3 8,5 9,8 2,3 2,6 2,9 l -35,164 c -5,19 -6,36 -5,51 1,15 5,28 12,39 7,11 18,21 32,29 14,8 32,15 55,19 14,3 28,6 42,8 14,2 28,3 42,5 l 58,-271 c 1,-4 3,-6 6,-8 2,-2 7,-3 12,-4 5,0 12,0 21,1 8,1 18,2 30,5 12,3 22,5 29,8 8,2 14,5 18,8 4,2 7,5 9,8 1,3 2,6 1,9 l -126,583 z"
       inkscape:connector-curvature="0"
       style="fill:#000000;fill-rule:nonzero" /><path
       id="7"
       class="fil5"
       d="m 1401,8636 c -1,3 -4,5 -7,7 -3,1 -7,1 -12,1 -5,-1 -11,-3 -19,-5 -8,-3 -18,-7 -29,-12 -11,-6 -20,-11 -27,-15 -7,-4 -13,-8 -16,-12 -4,-3 -6,-6 -7,-9 -1,-3 0,-6 1,-9 l 143,-301 c 5,-12 10,-23 16,-34 6,-11 11,-20 15,-29 l -1,0 c -4,3 -9,6 -15,10 -6,4 -12,8 -18,13 -7,4 -14,8 -21,13 -7,4 -14,8 -21,12 l -339,202 c -3,2 -7,4 -11,5 -3,1 -7,2 -12,1 -5,0 -10,-2 -16,-4 -6,-2 -13,-6 -23,-10 -11,-5 -20,-10 -27,-14 -7,-4 -12,-8 -15,-11 -3,-4 -5,-7 -5,-10 -1,-3 0,-6 1,-9 l 256,-541 c 1,-3 4,-5 7,-6 3,-1 7,-2 12,-1 5,1 12,2 19,5 8,3 18,7 29,12 11,6 20,10 27,15 7,4 13,8 17,11 3,4 6,7 6,10 1,3 1,6 -1,9 l -143,303 c -5,9 -9,19 -15,30 -5,10 -10,20 -16,30 l 1,1 c 9,-7 21,-15 34,-23 14,-9 27,-17 41,-25 l 339,-202 c 3,-2 7,-4 10,-5 4,-1 8,-1 12,-1 5,0 10,2 17,4 6,2 13,5 23,10 11,5 20,10 26,14 7,4 12,7 15,11 4,3 6,6 6,9 1,3 0,6 -1,10 l -256,540 z"
       inkscape:connector-curvature="0"
       style="fill:#000000;fill-rule:nonzero" /><path
       id="8"
       class="fil5"
       d="m 1852,8977 c -2,3 -5,5 -8,5 -3,1 -7,0 -12,-2 -5,-2 -11,-5 -18,-10 -7,-4 -16,-11 -26,-19 -11,-9 -20,-17 -26,-23 -6,-6 -11,-11 -14,-16 -2,-4 -4,-9 -4,-13 0,-4 1,-8 3,-12 l 49,-141 c 7,-21 12,-39 15,-55 3,-15 3,-29 1,-42 -2,-13 -6,-24 -13,-35 -7,-10 -16,-20 -28,-29 l -23,-18 -159,196 c -2,2 -5,4 -8,5 -3,0 -7,0 -12,-2 -5,-1 -11,-5 -17,-9 -7,-5 -16,-11 -25,-19 -10,-8 -18,-14 -24,-20 -6,-6 -10,-11 -13,-16 -2,-4 -4,-8 -4,-11 0,-4 1,-7 3,-9 l 377,-463 c 2,-3 5,-5 8,-5 3,-1 7,0 12,2 5,1 11,5 18,9 7,5 15,11 25,19 10,8 17,15 23,21 6,5 10,10 13,15 3,4 4,8 4,11 0,3 -1,6 -3,9 l -150,184 22,18 c 12,9 23,16 34,20 11,4 23,5 35,4 12,-1 25,-4 40,-10 14,-6 30,-14 48,-25 l 112,-71 c 4,-3 8,-4 12,-6 4,0 8,0 13,2 5,2 11,5 18,9 7,5 16,12 27,21 9,8 17,15 23,20 6,6 10,11 13,15 3,5 4,8 4,11 0,3 -2,6 -4,8 -3,4 -6,7 -11,11 -5,4 -13,9 -22,14 l -104,61 c -19,11 -36,20 -51,26 -15,6 -30,11 -43,13 -13,3 -25,4 -37,3 -12,-1 -23,-4 -35,-8 l 0,0 c 6,13 12,25 15,37 4,12 6,26 7,40 0,14 -1,30 -5,47 -3,18 -8,38 -16,61 l -42,134 c -5,14 -8,23 -11,28 -2,4 -4,8 -6,10 z"
       inkscape:connector-curvature="0"
       style="fill:#000000;fill-rule:nonzero" /><path
       id="9"
       class="fil5"
       d="m 2235,9396 c -3,2 -6,3 -9,3 -3,0 -7,-1 -11,-3 -5,-3 -10,-7 -16,-13 -6,-5 -14,-13 -22,-22 -8,-9 -15,-17 -20,-24 -5,-7 -8,-12 -10,-17 -2,-4 -3,-8 -2,-11 0,-3 2,-6 4,-8 l 248,-222 c 10,-9 19,-17 28,-25 10,-8 18,-15 26,-20 l -1,-1 c -5,1 -11,2 -18,4 -7,1 -14,2 -22,4 -8,1 -16,3 -24,4 -8,1 -16,2 -24,3 l -390,55 c -5,0 -9,0 -13,0 -4,0 -7,-2 -11,-4 -4,-2 -9,-5 -13,-10 -5,-4 -11,-10 -17,-18 -9,-9 -15,-17 -20,-23 -5,-7 -8,-12 -10,-17 -1,-4 -2,-8 -1,-11 1,-3 3,-5 5,-7 l 446,-399 c 2,-2 5,-3 8,-3 3,0 7,1 12,4 4,2 10,6 16,12 6,5 13,13 21,22 9,9 15,17 20,24 5,7 8,12 10,17 2,5 3,9 3,12 -1,3 -2,5 -5,8 l -249,223 c -8,7 -16,14 -25,22 -9,7 -18,15 -27,21 l 1,1 c 11,-2 24,-5 40,-8 16,-3 32,-5 48,-7 l 390,-55 c 4,0 8,0 11,0 4,1 8,2 12,4 4,2 8,6 13,10 5,4 11,10 18,18 8,9 14,17 19,23 4,6 7,12 9,16 2,5 3,8 2,11 -1,3 -2,6 -5,8 l -445,399 z"
       inkscape:connector-curvature="0"
       style="fill:#000000;fill-rule:nonzero" /><path
       class="fil5"
       d="m -1551,13966 c -3,12 -6,21 -9,27 -3,7 -7,10 -12,11 -5,1 -11,0 -19,-5 -8,-4 -19,-10 -33,-19 -14,-9 -25,-16 -32,-21 -8,-5 -13,-10 -16,-14 -4,-4 -5,-7 -6,-11 0,-3 0,-7 2,-11 l 32,-129 -201,-128 -100,83 c -3,4 -7,6 -10,7 -4,2 -8,2 -13,1 -5,-1 -11,-3 -19,-7 -7,-5 -17,-10 -29,-18 -13,-8 -22,-15 -29,-20 -6,-5 -10,-10 -11,-15 -1,-5 1,-10 6,-16 4,-5 11,-11 21,-19 l 464,-370 c 4,-3 9,-6 13,-7 4,-2 9,-2 14,0 6,1 14,5 22,10 9,4 21,11 35,20 16,11 29,19 38,25 9,7 16,13 21,18 4,5 6,9 7,14 0,4 0,10 -2,16 l -134,578 z m 3,-547 -1,-1 -218,181 150,94 69,-274 z m 633,384 c -13,33 -29,61 -49,82 -20,22 -44,38 -70,47 -27,10 -56,14 -89,12 -32,-2 -68,-10 -107,-25 l -49,-19 -72,188 c -2,3 -4,5 -7,7 -2,1 -6,2 -12,2 -5,0 -11,-2 -19,-4 -8,-2 -18,-5 -30,-9 -11,-5 -21,-9 -28,-13 -7,-4 -13,-7 -17,-11 -4,-3 -6,-6 -7,-9 -1,-3 -1,-7 0,-9 l 205,-531 c 5,-14 13,-23 23,-28 11,-4 22,-4 34,1 l 139,53 c 14,6 27,11 39,17 12,6 27,15 43,25 16,10 32,23 46,40 15,16 25,34 33,54 7,19 10,39 9,61 0,22 -6,45 -15,69 z m -128,-39 c 8,-21 11,-40 9,-56 -3,-16 -8,-29 -16,-40 -8,-10 -18,-19 -29,-25 -11,-6 -23,-12 -36,-17 l -51,-19 -77,200 54,21 c 19,8 36,11 51,11 15,0 29,-3 41,-9 11,-6 22,-15 31,-27 9,-11 17,-24 23,-39 z m 590,588 c -1,3 -2,5 -5,7 -3,2 -6,4 -11,4 -6,1 -12,0 -21,-1 -8,-1 -18,-3 -30,-5 -12,-3 -22,-6 -30,-8 -8,-3 -14,-6 -18,-8 -5,-3 -7,-6 -9,-9 -1,-3 -1,-6 -1,-9 l 74,-324 c 3,-13 6,-25 9,-37 3,-12 6,-22 9,-31 l -1,0 c -4,4 -8,8 -13,13 -5,5 -10,10 -15,16 -6,6 -11,11 -17,17 -7,6 -12,12 -18,17 l -287,271 c -4,3 -7,5 -10,7 -3,2 -7,3 -12,4 -4,0 -10,0 -16,-1 -6,-1 -15,-3 -24,-5 -13,-3 -23,-5 -30,-8 -7,-2 -13,-5 -17,-8 -4,-2 -7,-5 -7,-8 -1,-3 -2,-6 -1,-9 l 133,-583 c 1,-4 2,-6 5,-8 3,-2 7,-3 12,-4 5,0 12,0 20,1 8,1 18,3 30,6 12,3 23,5 30,8 8,3 14,5 18,8 5,3 8,5 9,8 1,3 2,6 1,9 l -75,327 c -2,10 -5,21 -7,32 -3,12 -6,22 -9,33 l 0,0 c 8,-8 18,-18 29,-29 11,-12 23,-23 35,-33 l 287,-271 c 3,-3 6,-5 9,-7 3,-2 7,-3 11,-4 5,0 11,0 17,1 7,1 15,2 25,4 12,3 21,6 29,8 7,3 12,5 17,8 4,2 6,5 8,8 1,3 1,6 0,9 l -133,584 z m 677,-12 c 3,12 5,21 6,28 1,7 0,12 -4,15 -3,4 -10,6 -19,6 -9,1 -22,1 -38,1 -16,0 -29,-1 -38,-2 -10,0 -17,-1 -22,-3 -4,-1 -8,-4 -10,-6 -2,-3 -3,-6 -4,-10 l -40,-128 -238,-4 -42,122 c -1,5 -3,9 -5,12 -2,3 -6,5 -11,7 -4,2 -11,3 -20,3 -8,1 -20,1 -34,1 -15,-1 -26,-1 -35,-2 -8,-2 -14,-4 -17,-8 -3,-4 -4,-9 -3,-16 1,-7 3,-16 7,-27 l 205,-557 c 2,-6 4,-10 7,-14 3,-3 7,-5 12,-7 6,-2 14,-3 24,-3 10,-1 24,-1 40,0 20,0 35,1 46,1 12,1 21,2 27,4 6,2 11,5 13,8 3,4 5,9 7,15 l 186,564 z m -282,-469 -1,0 -92,267 177,3 -84,-270 z m 992,554 c 1,3 0,6 -1,8 -1,3 -4,5 -8,7 -4,2 -9,4 -16,6 -7,2 -16,4 -27,6 -11,2 -20,3 -27,4 -7,0 -13,0 -17,-1 -5,-1 -8,-2 -10,-4 -3,-2 -4,-4 -4,-8 l -25,-146 -415,71 25,146 c 0,3 0,6 -2,9 -1,2 -4,5 -8,7 -4,2 -9,4 -16,6 -7,2 -16,4 -27,6 -11,2 -20,3 -27,3 -8,1 -14,1 -18,0 -5,-1 -8,-2 -10,-4 -2,-2 -3,-5 -4,-8 l -38,-224 c -2,-9 -2,-16 2,-21 3,-4 9,-7 17,-9 l 29,-5 c 6,-12 11,-24 16,-37 5,-13 9,-28 13,-45 4,-17 7,-37 9,-60 3,-23 4,-51 5,-83 1,-33 0,-72 -1,-116 -1,-45 -3,-97 -6,-157 -1,-15 1,-26 5,-33 5,-8 13,-12 24,-14 l 318,-55 c 11,-2 21,0 28,6 8,5 13,15 15,28 l 82,480 53,-9 c 9,-2 15,0 19,3 5,5 8,11 9,19 l 38,224 z m -316,-633 -146,25 c 3,50 5,93 5,131 1,38 1,72 0,101 -1,28 -3,53 -5,75 -3,21 -5,39 -9,55 -3,16 -8,29 -12,41 -5,12 -10,22 -15,32 l 253,-43 -71,-417 z m 851,249 c 1,3 1,6 0,10 -1,3 -4,6 -8,9 -3,3 -9,7 -16,11 -7,4 -17,8 -28,13 -12,4 -22,8 -30,10 -8,2 -14,3 -19,4 -5,0 -9,-1 -12,-2 -3,-2 -5,-4 -6,-7 l -95,-238 -220,88 94,237 c 2,3 2,6 1,10 -1,3 -3,6 -7,9 -4,3 -10,7 -17,11 -7,4 -16,8 -28,13 -12,5 -21,8 -29,10 -9,2 -15,3 -20,4 -5,0 -9,-1 -12,-2 -3,-2 -5,-4 -6,-7 l -221,-555 c -2,-3 -2,-6 -1,-9 1,-3 4,-7 8,-10 3,-3 9,-7 16,-11 8,-4 17,-8 29,-13 11,-4 21,-8 29,-10 8,-2 15,-3 20,-3 5,-1 9,0 11,2 3,1 5,4 6,7 l 86,216 221,-88 -86,-216 c -2,-3 -2,-6 -1,-9 1,-4 4,-7 7,-10 4,-3 10,-7 17,-11 7,-4 17,-8 29,-13 11,-4 21,-8 29,-10 8,-2 14,-3 19,-3 5,-1 9,0 12,2 3,1 5,4 6,7 l 222,554 z m 558,-379 c 10,8 17,15 22,20 4,5 6,10 5,15 -1,5 -6,10 -13,16 -7,5 -17,12 -31,21 -14,9 -25,16 -33,21 -8,4 -14,7 -19,9 -5,1 -9,1 -12,0 -3,-1 -6,-3 -10,-6 l -103,-84 -201,129 34,126 c 1,4 2,9 2,12 0,4 -2,8 -5,12 -2,4 -7,9 -14,14 -7,5 -17,12 -28,19 -13,8 -23,14 -31,18 -7,4 -14,5 -18,4 -5,-2 -9,-6 -12,-12 -3,-6 -5,-15 -9,-27 l -141,-576 c -1,-6 -2,-11 -1,-15 0,-5 2,-9 6,-14 4,-4 10,-10 18,-16 8,-5 19,-13 33,-22 16,-10 29,-18 39,-24 10,-6 18,-10 24,-12 7,-2 12,-2 16,0 4,1 9,4 14,8 l 468,364 z m -495,-232 -1,1 73,273 148,-96 -220,-178 z"
       id="path4316"
       inkscape:connector-curvature="0"
       style="fill:#000000;fill-rule:nonzero" /><circle
       class="fil4"
       cy="11000"
       r="3898"
       id="circle4318"
       cx="0"
       style="fill:none" /></g></svg>