<?xml version="1.0" encoding="UTF-8" standalone="no"?>
<!-- Creator: CorelDRAW X7 -->

<svg
   xmlns:dc="http://purl.org/dc/elements/1.1/"
   xmlns:cc="http://creativecommons.org/ns#"
   xmlns:rdf="http://www.w3.org/1999/02/22-rdf-syntax-ns#"
   xmlns:svg="http://www.w3.org/2000/svg"
   xmlns="http://www.w3.org/2000/svg"
   xmlns:sodipodi="http://sodipodi.sourceforge.net/DTD/sodipodi-0.dtd"
   xmlns:inkscape="http://www.inkscape.org/namespaces/inkscape"
   xml:space="preserve"
   width="7.8740005in"
   height="7.8740005in"
   version="1.1"
   style="clip-rule:evenodd;fill-rule:evenodd;image-rendering:optimizeQuality;shape-rendering:geometricPrecision;text-rendering:geometricPrecision"
   viewBox="0 0 7874.0005 7874.0005"
   id="svg3790"
   inkscape:version="0.91 r13725"
   sodipodi:docname="Ariadna - Irmandinhos - [N3] [Vyo].svg"><metadata
     id="metadata3839"><rdf:RDF><cc:Work
         rdf:about=""><dc:format>image/svg+xml</dc:format><dc:type
           rdf:resource="http://purl.org/dc/dcmitype/StillImage" /></cc:Work></rdf:RDF></metadata><sodipodi:namedview
     pagecolor="#ffffff"
     bordercolor="#666666"
     borderopacity="1"
     objecttolerance="10"
     gridtolerance="10"
     guidetolerance="10"
     inkscape:pageopacity="0"
     inkscape:pageshadow="2"
     inkscape:window-width="640"
     inkscape:window-height="480"
     id="namedview3837"
     showgrid="false"
     inkscape:zoom="0.23838384"
     inkscape:cx="736.83001"
     inkscape:cy="849.33005"
     inkscape:window-x="0"
     inkscape:window-y="0"
     inkscape:window-maximized="0"
     inkscape:current-layer="svg3790" /><defs
     id="defs3792"><style
       type="text/css"
       id="style3794"><![CDATA[
    .fil2 {fill:none}
    .fil0 {fill:black}
    .fil5 {fill:#E32527}
    .fil1 {fill:white}
    .fil4 {fill:#B1DFF9;fill-rule:nonzero}
    .fil3 {fill:white;fill-rule:nonzero}
   ]]></style></defs><g
     id="Layer_x0020_1"
     transform="translate(3937,-7063)"><metadata
       id="CorelCorpID_0Corel-Layer" /><circle
       class="fil0"
       cy="11000"
       r="3937"
       id="circle3798"
       cx="0"
       style="fill:#000000" /><circle
       class="fil1"
       cy="11000"
       r="3858"
       id="circle3800"
       cx="0"
       style="fill:#ffffff" /><circle
       class="fil0"
       cy="11000"
       r="3583"
       id="circle3802"
       cx="0"
       style="fill:#000000" /><circle
       class="fil2"
       cy="11000"
       r="3898"
       id="circle3804"
       cx="0"
       style="fill:none" /><path
       class="fil3"
       d="m -2712,11664 29,101 -92,70 52,183 115,8 29,98 -510,-47 -28,-98 405,-315 z m -132,222 -152,113 188,13 -36,-126 z"
       id="path3806"
       inkscape:connector-curvature="0"
       style="fill:#ffffff;fill-rule:nonzero" /><polygon
       id="1"
       class="fil3"
       points="-2933,11344 -3248,11392 -3261,11304 -2790,11232 -2775,11327 -3054,11564 -2746,11517 -2733,11606 -3204,11678 -3218,11585 "
       style="fill:#ffffff;fill-rule:nonzero" /><polygon
       id="2"
       class="fil3"
       points="-3269,11148 -3264,10769 -3184,10770 -3185,10911 -2789,10916 -2790,11012 -3186,11007 -3188,11149 "
       style="fill:#ffffff;fill-rule:nonzero" /><polygon
       id="3"
       class="fil3"
       points="-3116,10293 -3156,10547 -3052,10563 -3015,10327 -2935,10339 -2973,10576 -2844,10596 -2803,10333 -2724,10345 -2780,10704 -3251,10630 -3196,10280 "
       style="fill:#ffffff;fill-rule:nonzero" /><path
       id="4"
       class="fil3"
       d="m -2857,10223 25,-91 c 31,6 57,3 77,-7 20,-11 35,-30 45,-58 11,-29 14,-53 7,-72 -7,-20 -18,-32 -35,-39 -10,-4 -20,-4 -30,-1 -10,4 -20,12 -32,25 -7,9 -23,31 -47,65 -30,43 -58,72 -83,84 -35,18 -70,20 -105,7 -23,-9 -41,-23 -56,-44 -15,-20 -23,-44 -24,-73 -1,-28 5,-59 18,-93 22,-56 50,-93 85,-112 36,-19 74,-21 115,-7 l -30,91 c -25,-5 -44,-3 -59,6 -15,9 -27,26 -37,51 -10,26 -12,49 -7,68 3,12 10,20 22,25 10,4 21,3 32,-3 14,-8 34,-32 61,-72 28,-39 51,-68 70,-84 19,-17 40,-28 64,-32 24,-5 49,-1 78,9 25,10 46,26 63,49 17,23 26,49 27,79 1,30 -6,65 -21,103 -22,57 -51,95 -89,115 -37,20 -82,24 -134,11 z"
       inkscape:connector-curvature="0"
       style="fill:#ffffff;fill-rule:nonzero" /><polygon
       id="5"
       class="fil3"
       points="-2461,9381 -2689,9134 -2611,9012 -2209,9269 -2257,9344 -2574,9142 -2308,9424 -2358,9502 -2725,9380 -2409,9582 -2457,9657 -2859,9401 -2781,9279 "
       style="fill:#ffffff;fill-rule:nonzero" /><path
       id="6"
       class="fil3"
       d="m -2319,9045 c -36,-34 -61,-67 -74,-100 -11,-25 -16,-50 -18,-77 -1,-27 3,-52 12,-75 11,-30 30,-59 56,-87 49,-52 103,-77 164,-78 61,-1 119,25 176,79 56,53 85,109 88,169 3,61 -20,116 -68,167 -48,52 -103,78 -163,79 -60,1 -118,-25 -173,-77 z m 65,-75 c 40,37 78,57 115,58 38,1 70,-13 96,-41 26,-28 38,-60 35,-97 -3,-37 -25,-74 -65,-112 -40,-38 -78,-57 -114,-58 -36,-1 -68,13 -95,41 -27,29 -39,62 -36,98 3,37 24,74 64,111 z"
       inkscape:connector-curvature="0"
       style="fill:#ffffff;fill-rule:nonzero" /><path
       id="7"
       class="fil3"
       d="m -1760,8820 -267,-396 168,-113 c 42,-29 75,-46 99,-52 24,-6 48,-3 72,7 23,10 43,27 59,51 20,29 28,60 24,91 -5,31 -23,61 -54,89 24,-1 46,0 65,5 20,4 49,15 89,33 l 100,45 -95,64 -116,-47 c -41,-17 -68,-27 -81,-30 -13,-3 -25,-3 -35,0 -11,3 -25,10 -44,23 l -16,11 112,165 -80,54 z m -74,-282 59,-40 c 38,-26 61,-44 68,-54 7,-9 11,-20 11,-31 0,-12 -4,-24 -12,-36 -9,-13 -19,-21 -32,-25 -13,-3 -26,-1 -41,5 -7,4 -27,16 -59,38 l -62,42 68,101 z"
       inkscape:connector-curvature="0"
       style="fill:#ffffff;fill-rule:nonzero" /><polygon
       id="8"
       class="fil3"
       points="-1610,8153 -1279,7969 -1240,8039 -1363,8108 -1171,8454 -1255,8501 -1447,8155 -1571,8223 "
       style="fill:#ffffff;fill-rule:nonzero" /><path
       id="9"
       class="fil3"
       d="m -1070,8155 c -13,-47 -17,-88 -12,-124 3,-26 11,-51 24,-75 13,-24 29,-44 48,-59 25,-20 56,-35 93,-46 68,-20 128,-14 180,16 53,30 90,83 112,157 21,75 17,138 -11,192 -28,53 -76,89 -143,109 -68,19 -129,14 -181,-16 -52,-30 -89,-81 -110,-154 z m 95,-31 c 15,52 38,88 70,108 32,20 66,24 103,14 37,-11 63,-33 79,-66 16,-34 17,-77 1,-130 -15,-53 -38,-89 -68,-108 -31,-19 -65,-23 -103,-12 -38,11 -65,33 -81,65 -16,33 -16,76 -1,129 z"
       inkscape:connector-curvature="0"
       style="fill:#ffffff;fill-rule:nonzero" /><path
       id="10"
       class="fil3"
       d="m -523,8094 91,-23 c 11,30 25,51 45,63 19,12 43,16 72,12 31,-5 53,-15 66,-31 14,-15 19,-31 17,-49 -2,-11 -7,-20 -14,-27 -8,-6 -20,-11 -38,-15 -11,-2 -38,-5 -79,-9 -53,-5 -91,-15 -115,-30 -32,-21 -52,-51 -57,-88 -4,-24 -1,-48 10,-71 10,-23 27,-42 51,-56 24,-15 54,-25 91,-31 59,-9 105,-3 139,19 34,21 55,53 63,96 l -94,19 c -8,-24 -20,-40 -35,-48 -15,-9 -36,-11 -62,-7 -28,4 -49,13 -63,27 -9,9 -12,19 -10,32 1,11 7,20 18,26 14,8 44,14 92,18 48,4 84,10 108,18 24,9 44,22 60,40 15,19 26,43 30,73 4,27 1,53 -11,79 -11,26 -30,47 -56,62 -25,16 -59,27 -100,33 -59,9 -107,2 -143,-20 -36,-23 -62,-60 -76,-112 z"
       inkscape:connector-curvature="0"
       style="fill:#ffffff;fill-rule:nonzero" /><path
       id="11"
       class="fil3"
       d="m 560,8198 c 21,20 44,37 70,51 l -45,62 c -14,-6 -27,-14 -39,-24 -3,-2 -22,-19 -57,-52 -33,9 -69,11 -106,5 -73,-11 -126,-41 -161,-90 -34,-49 -45,-112 -33,-190 12,-77 41,-133 89,-170 48,-36 107,-49 178,-38 69,11 122,41 156,90 34,49 46,112 34,189 -7,41 -18,75 -34,105 -12,22 -29,43 -52,62 z m -68,-66 c 14,-12 26,-28 36,-48 9,-19 16,-42 20,-68 8,-55 2,-97 -18,-128 -19,-31 -49,-49 -88,-55 -38,-6 -72,3 -100,26 -29,23 -47,62 -55,116 -9,56 -3,99 17,130 20,31 48,49 85,55 14,2 27,2 40,-1 -17,-16 -36,-29 -54,-39 l 35,-50 c 29,16 57,36 82,62 z"
       inkscape:connector-curvature="0"
       style="fill:#ffffff;fill-rule:nonzero" /><path
       id="12"
       class="fil3"
       d="m 845,7829 91,31 -82,244 c -13,39 -21,65 -22,77 -2,20 2,38 13,54 11,16 29,28 54,37 26,9 48,10 64,4 17,-6 29,-17 37,-31 8,-15 18,-40 30,-76 l 84,-250 91,31 -80,238 c -18,54 -33,91 -46,112 -12,21 -28,37 -46,48 -18,10 -40,17 -66,19 -25,1 -55,-4 -91,-16 -43,-15 -74,-31 -93,-48 -19,-17 -32,-36 -40,-57 -8,-20 -11,-39 -9,-58 3,-28 13,-67 30,-118 l 81,-241 z"
       inkscape:connector-curvature="0"
       style="fill:#ffffff;fill-rule:nonzero" /><polygon
       id="13"
       class="fil3"
       points="1655,8266 1428,8144 1378,8237 1589,8351 1551,8421 1340,8308 1278,8422 1513,8549 1475,8619 1155,8447 1382,8027 1693,8195 "
       style="fill:#ffffff;fill-rule:nonzero" /><polygon
       id="14"
       class="fil3"
       points="2236,8709 2040,8542 1971,8623 2154,8778 2102,8839 1919,8684 1835,8783 2038,8956 1986,9017 1710,8782 2018,8418 2288,8647 "
       style="fill:#ffffff;fill-rule:nonzero" /><path
       id="15"
       class="fil3"
       d="m 2165,8967 64,70 c -22,23 -34,46 -36,69 -1,23 7,46 24,69 19,25 38,40 58,45 20,5 37,2 51,-9 9,-6 15,-15 17,-25 3,-10 1,-23 -4,-40 -3,-11 -13,-36 -29,-74 -21,-49 -30,-88 -27,-116 3,-39 20,-70 51,-92 19,-15 41,-23 67,-24 25,-2 50,4 74,18 25,15 48,37 69,66 36,48 53,92 50,132 -3,40 -22,74 -56,101 l -61,-75 c 17,-18 26,-35 26,-53 1,-17 -7,-36 -23,-58 -17,-23 -35,-37 -53,-43 -12,-4 -23,-2 -33,6 -9,6 -14,16 -15,28 -1,16 8,46 27,91 20,44 31,79 35,104 4,25 1,48 -8,71 -8,22 -25,43 -49,61 -22,16 -47,25 -75,27 -29,2 -56,-5 -82,-20 -26,-15 -51,-40 -76,-73 -36,-48 -52,-94 -49,-136 3,-43 24,-83 63,-120 z"
       inkscape:connector-curvature="0"
       style="fill:#ffffff;fill-rule:nonzero" /><path
       id="16"
       class="fil3"
       d="m 2633,9624 19,96 c -53,12 -98,10 -136,-7 -38,-17 -70,-48 -94,-93 -30,-56 -37,-112 -18,-169 18,-56 61,-102 127,-138 69,-38 133,-50 191,-35 59,15 104,52 136,111 28,51 35,101 22,149 -7,29 -25,57 -53,85 l -66,-73 c 19,-16 30,-36 34,-59 5,-22 0,-45 -12,-67 -17,-31 -42,-50 -75,-57 -32,-8 -74,2 -124,30 -53,28 -85,58 -97,90 -12,31 -10,62 7,92 12,23 30,38 53,47 23,8 52,7 86,-2 z"
       inkscape:connector-curvature="0"
       style="fill:#ffffff;fill-rule:nonzero" /><path
       id="17"
       class="fil3"
       d="m 2579,9867 456,-140 60,194 c 15,49 22,86 20,110 -1,25 -10,47 -27,67 -17,19 -39,33 -66,42 -34,10 -65,9 -94,-4 -28,-14 -52,-40 -70,-78 -5,24 -13,44 -23,61 -10,18 -29,43 -58,75 l -72,83 -34,-110 79,-97 c 28,-34 46,-57 52,-69 7,-11 10,-23 11,-33 0,-11 -3,-27 -9,-48 l -6,-19 -190,58 -29,-92 z m 292,12 21,68 c 13,44 24,71 31,81 7,10 16,16 27,20 11,3 23,3 37,-1 15,-5 26,-13 33,-24 7,-11 10,-25 8,-40 -2,-8 -8,-31 -19,-68 l -23,-72 -115,36 z"
       inkscape:connector-curvature="0"
       style="fill:#ffffff;fill-rule:nonzero" /><path
       id="18"
       class="fil3"
       d="m 2792,10761 -16,-103 101,-58 -29,-189 -113,-22 -16,-101 500,110 16,101 -443,262 z m 160,-204 165,-92 -185,-37 20,129 z"
       inkscape:connector-curvature="0"
       style="fill:#ffffff;fill-rule:nonzero" /><polygon
       id="19"
       class="fil3"
       points="2920,10948 3274,11062 3275,11164 2796,10997 2795,10894 3271,10719 3272,10824 "
       style="fill:#ffffff;fill-rule:nonzero" /><path
       id="20"
       class="fil3"
       d="m 3030,11244 c 48,8 87,21 118,41 22,14 41,32 57,54 16,21 27,44 33,67 8,31 9,66 3,105 -11,69 -41,121 -91,156 -50,35 -113,46 -189,34 -76,-12 -133,-42 -169,-90 -37,-48 -49,-106 -39,-176 12,-70 42,-122 91,-157 49,-34 111,-46 186,-34 z m -12,99 c -53,-9 -96,-3 -127,17 -31,21 -50,50 -56,88 -6,38 3,71 26,100 24,28 63,47 117,55 54,9 96,3 127,-16 30,-20 48,-49 54,-88 7,-39 -2,-73 -25,-101 -23,-29 -62,-47 -116,-55 z"
       inkscape:connector-curvature="0"
       style="fill:#ffffff;fill-rule:nonzero" /><path
       id="21"
       class="fil3"
       d="m 2856,11776 -23,91 c -32,-5 -58,-2 -77,9 -20,11 -35,31 -45,58 -10,29 -12,54 -5,73 7,19 19,32 35,38 11,4 21,4 31,0 9,-3 20,-12 31,-25 7,-10 23,-32 46,-66 29,-44 56,-73 81,-86 35,-19 70,-22 105,-9 23,8 42,22 57,42 16,21 24,45 26,73 1,28 -4,59 -17,94 -20,56 -47,94 -82,114 -35,19 -74,22 -115,9 l 28,-92 c 25,4 44,2 59,-7 15,-9 27,-27 36,-52 9,-26 11,-49 6,-68 -4,-12 -11,-20 -23,-24 -10,-4 -21,-3 -32,3 -14,8 -34,33 -60,73 -26,40 -49,69 -68,86 -18,17 -39,28 -63,33 -24,5 -50,3 -78,-7 -26,-10 -47,-26 -65,-48 -17,-22 -26,-49 -28,-79 -1,-30 5,-64 19,-103 20,-57 49,-96 86,-117 38,-21 82,-25 135,-13 z"
       inkscape:connector-curvature="0"
       style="fill:#ffffff;fill-rule:nonzero" /><polygon
       class="fil4"
       points="2067,12161 217,12152 -1722,9381 -1378,9051 -768,8736 -199,8616 2176,12010 "
       id="polygon3829"
       style="fill:#b1dff9;fill-rule:nonzero" /><path
       class="fil5"
       d="m 2137,12260 c 218,-369 343,-800 343,-1260 C 2480,9630 1370,8520 0,8520 c -1370,0 -2480,1110 -2480,2480 0,460 125,891 343,1260 l 4274,0 z m -116,-197 c 173,-328 262,-691 262,-1063 C 2283,9739 1261,8717 0,8717 c -1261,0 -2283,1022 -2283,2283 0,372 89,735 262,1063 l 4042,0 z"
       id="path3831"
       inkscape:connector-curvature="0"
       style="fill:#e32527" /><path
       class="fil0"
       d="m -39,14338 -1816,-2196 667,0 -424,-797 -148,134 -36,-835 598,604 -202,10 904,1192 -436,38 656,611 0,-3571 c -111,-85 -177,-217 -177,-359 0,-216 154,-403 367,-444 l 172,0 c 213,41 367,228 367,444 0,142 -66,274 -177,359 l 0,3571 656,-611 -436,-38 904,-1192 -202,-10 598,-604 -36,835 -148,-134 -424,797 667,0 -1816,2196 -78,0 z"
       id="path3833"
       inkscape:connector-curvature="0"
       style="fill:#000000" /><path
       class="fil5"
       d="m -1752,10744 27,650 124,-113 479,900 -650,0 1693,2047 0,-4815 c -103,-33 -177,-130 -177,-244 0,-114 74,-210 177,-243 l 0,-163 c -190,37 -334,205 -334,406 0,141 70,265 177,340 l 0,3680 -788,-732 453,-40 -906,-1195 189,-9 -464,-469 z m 3504,0 -27,650 -124,-113 -479,900 650,0 -1693,2047 0,-4815 c 103,-33 177,-130 177,-244 0,-114 -74,-210 -177,-243 l 0,-163 c 190,37 334,205 334,406 0,141 -70,265 -177,340 l 0,3680 788,-732 -453,-40 906,-1195 -189,-9 464,-469 z"
       id="path3835"
       inkscape:connector-curvature="0"
       style="fill:#e32527" /></g></svg>