<?xml version="1.0" encoding="UTF-8" standalone="no"?>
<!-- Creator: CorelDRAW X7 -->

<svg
   xmlns:dc="http://purl.org/dc/elements/1.1/"
   xmlns:cc="http://creativecommons.org/ns#"
   xmlns:rdf="http://www.w3.org/1999/02/22-rdf-syntax-ns#"
   xmlns:svg="http://www.w3.org/2000/svg"
   xmlns="http://www.w3.org/2000/svg"
   xmlns:sodipodi="http://sodipodi.sourceforge.net/DTD/sodipodi-0.dtd"
   xmlns:inkscape="http://www.inkscape.org/namespaces/inkscape"
   xml:space="preserve"
   width="7.8740005in"
   height="7.8740005in"
   version="1.1"
   style="clip-rule:evenodd;fill-rule:evenodd;image-rendering:optimizeQuality;shape-rendering:geometricPrecision;text-rendering:geometricPrecision"
   viewBox="0 0 7874.0005 7874.0005"
   id="svg2"
   inkscape:version="0.91 r13725"
   sodipodi:docname="Ariadna - 9th Wulver Grenadiers - [N3] [Vyo].svg"><metadata
     id="metadata32"><rdf:RDF><cc:Work
         rdf:about=""><dc:format>image/svg+xml</dc:format><dc:type
           rdf:resource="http://purl.org/dc/dcmitype/StillImage" /></cc:Work></rdf:RDF></metadata><sodipodi:namedview
     pagecolor="#ffffff"
     bordercolor="#666666"
     borderopacity="1"
     objecttolerance="10"
     gridtolerance="10"
     guidetolerance="10"
     inkscape:pageopacity="0"
     inkscape:pageshadow="2"
     inkscape:window-width="640"
     inkscape:window-height="480"
     id="namedview30"
     showgrid="false"
     inkscape:zoom="0.23838384"
     inkscape:cx="736.83001"
     inkscape:cy="849.33005"
     inkscape:window-x="0"
     inkscape:window-y="0"
     inkscape:window-maximized="0"
     inkscape:current-layer="svg2" /><defs
     id="defs4"><style
       type="text/css"
       id="style6"><![CDATA[
    .fil4 {fill:none}
    .fil0 {fill:#00659B}
    .fil2 {fill:#E32527}
    .fil3 {fill:#FFCC00}
    .fil1 {fill:white}
    .fil5 {fill:white;fill-rule:nonzero}
   ]]></style></defs><g
     id="Layer_x0020_1"
     transform="translate(3937,-7063)"><metadata
       id="CorelCorpID_0Corel-Layer" /><circle
       class="fil0"
       cy="11000"
       r="3937"
       id="circle10"
       cx="0"
       style="fill:#00659b" /><circle
       class="fil1"
       cy="11000"
       r="3819"
       id="circle12"
       cx="0"
       style="fill:#ffffff" /><circle
       class="fil0"
       cy="11000"
       r="3661"
       id="circle14"
       cx="0"
       style="fill:#00659b" /><circle
       class="fil2"
       cy="11000"
       r="2559"
       id="circle16"
       cx="0"
       style="fill:#e32527" /><circle
       class="fil3"
       cy="11000"
       r="2402"
       id="circle18"
       cx="0"
       style="fill:#ffcc00" /><path
       class="fil2"
       d="m -394,11827 788,0 c 21,0 39,17 39,39 l 0,79 c 0,22 -18,39 -39,39 l -788,0 c -21,0 -39,-17 -39,-39 l 0,-79 c 0,-22 18,-39 39,-39 z m 394,433 c 261,0 472,211 472,472 0,261 -211,473 -472,473 -261,0 -472,-212 -472,-473 0,-261 211,-472 472,-472 z m 292,-217 c 268,114 456,380 456,689 0,413 -335,748 -748,748 -413,0 -748,-335 -748,-748 0,-309 188,-575 456,-689 l 584,0 z M 0,12181 c 304,0 551,247 551,551 0,305 -247,551 -551,551 -304,0 -551,-246 -551,-551 0,-304 247,-551 551,-551 z m -217,-2067 c 0,-728 217,-1279 256,-1653 79,315 158,925 158,1240 0,605 -158,1181 -158,2067 l -78,0 c -40,-807 -178,-1103 -178,-1654 z m -334,99 c 0,-571 216,-906 394,-1103 -60,217 -119,532 -119,1024 0,605 178,925 197,1634 l -78,0 c -60,-768 -394,-827 -394,-1555 z m -355,118 c 0,-492 276,-689 355,-768 -59,197 -79,354 -79,650 0,708 453,1043 433,1555 l -79,0 c -39,-670 -630,-551 -630,-1437 z m 1437,-217 c 0,-571 -157,-964 -314,-1102 59,216 59,374 59,649 0,650 -217,1201 -197,2107 l 78,0 c 0,-768 374,-886 374,-1654 z m 414,236 c 0,-334 -276,-689 -374,-767 39,177 59,393 59,511 0,768 -453,1162 -433,1674 l 79,0 c 0,-611 669,-670 669,-1418 z m -118,807 c -296,0 -532,355 -512,611 l 59,0 c 59,-177 177,-237 315,-237 328,0 335,355 157,453 257,40 394,-216 394,-433 0,-177 -145,-394 -413,-394 z m -1654,0 c 296,0 532,355 512,611 l -59,0 c -59,-177 -177,-237 -315,-237 -328,0 -335,355 -157,453 -257,40 -394,-216 -394,-433 0,-177 145,-394 413,-394 z"
       id="path20"
       inkscape:connector-curvature="0"
       style="fill:#e32527" /><circle
       class="fil4"
       cy="11000"
       r="3898"
       id="circle22"
       cx="0"
       style="fill:none" /><circle
       class="fil4"
       cy="11000"
       r="3898"
       id="circle24"
       cx="0"
       style="fill:none" /><path
       class="fil5"
       d="m -3192,11573 c 3,16 10,27 21,35 11,7 25,9 42,6 17,-2 29,-9 37,-20 8,-11 11,-24 8,-39 -2,-16 -9,-27 -20,-35 -12,-7 -26,-10 -42,-7 -17,3 -29,10 -37,21 -8,10 -11,24 -9,39 z m -55,14 c -3,-5 -5,-10 -7,-16 -2,-6 -3,-12 -4,-18 -5,-29 1,-54 19,-76 18,-22 43,-36 75,-42 39,-6 72,0 99,19 28,19 44,48 51,87 7,39 0,72 -19,99 -19,27 -48,43 -87,50 -21,4 -44,3 -68,-2 -25,-5 -57,-15 -96,-32 l -83,-33 -16,-93 136,57 z m -69,271 262,-75 -21,-73 81,-24 68,235 -81,24 -21,-73 -262,75 -26,-89 z m 64,236 332,-134 34,86 -129,52 46,115 129,-52 35,86 -332,133 -34,-86 135,-54 -46,-115 -135,55 -35,-86 z m 659,542 -119,128 c -6,6 -11,11 -17,17 -6,6 -14,13 -22,20 12,-5 22,-9 30,-12 8,-3 15,-5 20,-7 l 165,-59 50,79 -352,113 -46,-72 105,-118 c 4,-4 11,-12 22,-24 5,-5 9,-9 12,-12 -3,2 -8,3 -14,5 -15,6 -26,10 -32,12 l -151,48 -47,-72 248,-275 51,79 -122,125 c -7,7 -13,13 -19,19 -7,6 -13,13 -20,19 6,-3 13,-5 20,-8 7,-3 18,-6 31,-11 l 167,-57 40,63 z m 126,186 57,73 -137,107 c -20,16 -34,28 -42,35 -8,8 -15,16 -19,23 -5,8 -6,17 -5,27 2,10 7,20 15,30 7,10 16,17 25,21 9,4 19,4 28,1 8,-2 16,-6 26,-12 9,-6 24,-17 44,-32 l 20,-15 117,-93 57,73 -149,117 c -31,24 -55,40 -72,48 -18,8 -35,12 -52,11 -18,0 -37,-6 -55,-17 -18,-12 -36,-29 -54,-51 -18,-23 -30,-45 -37,-65 -7,-21 -8,-40 -4,-58 4,-17 12,-32 24,-47 12,-15 33,-35 64,-59 l 29,-23 120,-94 z m -23,528 258,-248 64,67 -197,190 79,83 -60,57 -144,-149 z m 256,244 129,-363 74,65 -81,195 c -1,2 -3,7 -7,14 -4,8 -9,17 -16,30 9,-7 17,-13 25,-18 7,-5 13,-8 16,-10 l 182,-106 74,65 -343,174 -53,-46 z m 211,169 207,-292 170,120 -46,64 -96,-68 -36,51 91,64 -44,62 -91,-64 -35,50 96,68 -46,65 -170,-120 z m 249,165 180,-308 84,49 c 33,19 55,34 66,44 11,11 19,23 24,36 5,14 7,30 5,46 -2,17 -7,33 -17,48 -14,24 -31,40 -50,49 -20,8 -42,9 -67,1 l 7,171 -90,-53 4,-160 -71,121 -75,-44 z m 170,-119 15,9 c 17,10 31,14 43,13 12,-2 21,-9 29,-22 9,-16 12,-29 8,-40 -3,-11 -14,-21 -31,-31 l -16,-10 -48,81 z m 481,287 25,-71 171,61 c 0,2 -1,5 -2,7 -1,3 -2,7 -4,13 -21,58 -51,97 -92,119 -40,22 -87,23 -140,4 -25,-9 -47,-21 -64,-36 -18,-16 -31,-35 -41,-57 -10,-22 -15,-45 -15,-70 -1,-25 3,-49 12,-74 9,-25 21,-46 37,-65 15,-18 34,-32 56,-44 22,-10 45,-16 69,-17 24,-1 47,2 71,11 32,11 57,27 77,49 19,22 33,48 40,80 l -89,11 c -5,-16 -11,-29 -20,-40 -10,-10 -21,-18 -35,-23 -26,-9 -50,-7 -72,6 -21,13 -37,35 -49,67 -11,32 -12,60 -4,84 8,23 26,40 52,49 22,8 43,9 61,3 19,-6 33,-19 43,-37 l -87,-30 z m 211,208 79,-348 95,21 c 36,9 62,16 76,23 13,7 24,16 33,27 10,12 16,26 19,43 3,16 3,33 -1,51 -6,27 -18,47 -34,61 -17,14 -38,21 -63,21 l 58,161 -102,-23 -45,-154 -31,137 -84,-20 z m 126,-164 17,4 c 19,4 34,4 45,-1 10,-5 17,-15 21,-30 4,-17 2,-31 -4,-40 -7,-9 -20,-16 -40,-21 l -18,-4 -21,92 z m 200,235 48,-354 206,28 -10,78 -117,-16 -8,61 110,15 -11,76 -110,-15 -8,60 117,16 -11,79 -206,-28 z m 297,43 6,-357 89,1 125,186 c 3,4 7,12 12,23 6,12 12,25 18,41 -1,-15 -3,-28 -3,-40 -1,-11 -1,-21 -1,-30 l 3,-177 89,2 -6,357 -89,-1 -125,-187 c -3,-4 -7,-12 -12,-23 -6,-12 -12,-25 -18,-41 2,16 3,29 3,40 1,12 1,22 1,31 l -3,177 -89,-2 z m 514,-135 91,-7 -43,-115 c -1,-4 -3,-9 -6,-17 -2,-8 -5,-18 -9,-30 -2,9 -3,17 -4,25 -2,8 -3,16 -4,23 l -25,121 z m -120,143 90,-366 116,-8 144,347 -92,7 -22,-62 -131,10 -13,65 -92,7 z m 411,-41 -60,-352 69,-12 c 52,-9 89,-13 112,-11 22,1 43,7 61,16 24,12 43,29 59,51 15,23 25,50 30,81 6,31 5,59 -2,86 -7,26 -19,49 -38,68 -14,14 -31,26 -51,35 -20,8 -52,16 -95,24 l -15,2 -70,12 z m 77,-94 15,-3 c 36,-6 61,-18 75,-36 13,-19 17,-45 12,-78 -6,-34 -19,-57 -38,-70 -19,-13 -47,-16 -82,-10 l -16,2 34,195 z m 310,13 -99,-344 90,-26 99,344 -90,26 z m 191,-53 -132,-332 193,-77 29,73 -109,44 23,57 103,-41 28,71 -103,42 22,56 110,-44 30,75 -194,76 z m 277,-112 -147,-326 88,-40 c 35,-15 60,-24 75,-27 15,-3 29,-3 43,1 15,4 28,11 41,22 12,11 22,25 29,42 12,25 15,48 10,69 -4,21 -17,40 -37,55 l 144,93 -96,43 -128,-95 57,127 -79,36 z m 2,-207 15,-7 c 19,-9 30,-18 36,-28 5,-11 5,-23 -1,-37 -8,-16 -17,-26 -28,-29 -11,-4 -25,-1 -44,7 l -17,8 39,86 z m 253,-51 c 20,8 38,12 54,12 15,1 29,-2 40,-9 11,-6 18,-14 22,-24 3,-10 2,-20 -3,-29 -6,-10 -13,-17 -22,-19 -10,-2 -26,0 -51,6 -33,8 -60,9 -79,3 -20,-7 -36,-22 -49,-44 -17,-30 -21,-60 -13,-89 8,-30 28,-53 58,-70 16,-9 33,-16 50,-20 17,-3 35,-4 53,-2 l 10,75 c -14,-3 -27,-4 -39,-2 -12,1 -23,4 -32,9 -10,6 -16,13 -20,21 -3,8 -2,16 2,24 4,8 11,13 18,14 8,2 21,1 39,-4 l 4,-1 c 38,-9 66,-11 82,-6 12,4 22,10 32,19 10,8 18,19 25,32 19,33 24,66 15,97 -10,32 -31,58 -66,77 -20,12 -41,19 -62,21 -21,2 -44,0 -69,-7 l 1,-84 z m 448,-157 -218,-283 76,-59 c 30,-23 52,-38 66,-44 14,-6 28,-9 42,-9 16,0 31,4 45,12 15,8 28,19 39,34 17,22 25,43 26,65 0,22 -8,42 -24,62 l 161,57 -82,64 -148,-63 86,111 -69,53 z m -46,-202 13,-11 c 16,-12 25,-24 28,-35 3,-11 0,-23 -9,-35 -11,-14 -22,-22 -34,-22 -11,-1 -25,5 -41,17 l -15,11 58,75 z m 303,-12 -248,-258 150,-144 54,57 -85,81 43,45 80,-77 53,55 -80,77 42,44 85,-82 56,58 -150,144 z m 212,-418 -59,-46 114,-143 c 2,2 4,3 6,5 3,2 6,5 11,8 48,39 75,80 82,126 8,45 -6,89 -41,133 -17,22 -36,38 -56,49 -20,12 -42,18 -67,20 -23,2 -47,-1 -71,-8 -24,-8 -45,-20 -65,-35 -21,-17 -38,-36 -50,-57 -12,-20 -20,-43 -23,-67 -3,-25 -1,-48 6,-71 7,-23 18,-44 34,-64 20,-26 44,-45 71,-56 27,-11 56,-15 89,-12 l -19,88 c -17,-1 -31,1 -44,6 -13,5 -24,13 -33,25 -18,22 -24,45 -18,69 5,25 21,48 47,69 27,21 53,32 78,31 25,0 46,-11 64,-33 14,-18 22,-37 22,-57 0,-20 -6,-37 -21,-52 l -57,72 z m 267,-133 -292,-207 54,-76 292,207 -54,76 z m 302,-503 -43,75 -144,-60 c -10,-4 -21,-9 -33,-14 -13,-6 -26,-12 -40,-19 12,9 26,22 43,39 3,3 6,6 8,8 l 122,123 -31,54 -168,-44 c -2,0 -6,-1 -10,-2 -23,-6 -42,-12 -56,-17 12,7 23,15 34,22 11,8 21,16 32,24 l 124,94 -43,75 -284,-223 46,-80 185,47 c 1,1 3,1 7,2 16,4 30,8 41,13 -6,-4 -11,-8 -17,-14 -6,-5 -13,-12 -21,-20 l -134,-136 46,-79 336,132 z m 27,-76 -333,-129 75,-194 73,28 -42,110 57,23 40,-104 72,28 -40,103 56,22 43,-110 74,29 -75,194 z m 109,-279 -343,-99 25,-86 212,-72 c 4,-1 12,-3 25,-5 12,-3 27,-5 44,-7 -15,-2 -28,-5 -39,-7 -12,-3 -22,-5 -30,-7 l -170,-49 25,-86 343,99 -24,86 -213,72 c -5,1 -13,3 -25,5 -13,3 -27,5 -44,7 15,3 28,5 39,7 12,3 22,5 30,8 l 170,49 -25,85 z m 119,-468 -269,-46 -13,75 -83,-14 41,-241 83,14 -13,75 269,46 -15,91 z"
       id="path26"
       inkscape:connector-curvature="0"
       style="fill:#ffffff;fill-rule:nonzero" /><path
       class="fil5"
       d="m -2159,9139 113,-105 -38,-100 204,-192 99,44 113,-105 -566,-242 -131,123 206,577 z m -52,-543 210,93 -129,121 -81,-214 z m 506,-341 -99,65 217,332 100,-66 -218,-331 z m -91,-139 -100,65 64,98 100,-66 -64,-97 z m 413,411 104,-58 -106,-192 c -11,-20 -13,-37 -8,-53 6,-16 18,-29 37,-39 20,-11 36,-13 48,-7 13,6 25,21 38,45 l 91,-50 c -1,-2 -2,-4 -4,-7 -5,-11 -9,-20 -12,-25 -27,-48 -54,-78 -83,-90 -28,-13 -61,-9 -99,12 -26,15 -45,32 -57,53 -13,21 -14,46 -5,75 l -1,1 -37,-66 -98,54 192,347 z m 351,-290 c 13,41 31,66 54,76 23,10 54,9 93,-2 l 78,-23 c 15,-5 27,-9 35,-13 9,-4 16,-9 22,-14 6,-6 11,-12 15,-20 5,-8 9,-19 14,-32 l 13,43 109,-32 -74,-250 c -14,-45 -34,-76 -61,-93 -28,-17 -61,-20 -100,-8 l -133,39 c -26,8 -47,16 -63,24 -16,8 -28,18 -36,29 -9,12 -13,27 -13,44 -1,17 3,39 10,64 l 111,-33 c -3,-13 -3,-22 2,-27 5,-6 16,-11 33,-16 l 68,-20 c 21,-7 37,-7 46,-2 9,5 17,17 22,36 l 10,34 c -14,-10 -30,-15 -48,-13 -18,1 -45,7 -80,18 -32,9 -58,18 -76,26 -19,7 -34,17 -46,28 -12,11 -19,25 -21,42 -3,17 0,38 7,63 l 9,32 z m 177,-33 c -22,7 -38,9 -49,7 -10,-3 -18,-11 -21,-23 -5,-16 -5,-29 1,-38 6,-9 21,-17 44,-24 l 51,-15 c 29,-9 49,-12 59,-9 10,3 17,12 22,27 2,7 3,14 3,19 -1,5 -3,10 -8,15 -5,5 -13,10 -24,15 -10,6 -26,11 -45,17 l -33,9 z m 339,-203 c 4,56 18,96 43,121 25,26 65,36 120,32 l 63,-5 c 30,-2 52,-7 66,-14 14,-7 26,-19 37,-35 l 2,26 c 3,33 -2,56 -13,70 -12,14 -31,22 -58,24 l -86,6 c -19,2 -30,-8 -31,-28 l -123,10 c 3,47 16,78 38,94 21,16 53,23 96,19 l 132,-10 c 36,-2 65,-9 87,-19 22,-11 39,-24 50,-40 10,-16 17,-33 20,-53 3,-19 3,-40 1,-63 l -28,-371 -111,8 4,55 -2,0 c -8,-14 -16,-24 -23,-31 -6,-7 -13,-12 -21,-16 -8,-3 -16,-6 -26,-6 -10,-1 -23,-1 -38,0 l -70,5 c -50,4 -86,18 -107,42 -22,24 -31,66 -26,125 l 4,54 z m 192,43 c -29,2 -49,-2 -59,-12 -11,-11 -17,-31 -19,-62 -3,-31 0,-52 9,-64 9,-12 28,-20 57,-22 l 58,-4 c 29,-2 49,2 60,12 10,11 17,32 19,63 2,30 -1,52 -10,63 -9,12 -28,19 -57,22 l -58,4 z m 368,114 119,9 15,-199 c 2,-28 11,-49 26,-63 15,-13 36,-19 62,-17 l 27,2 c 51,4 75,25 72,64 l -17,227 119,9 18,-227 c 3,-40 0,-73 -9,-98 -9,-25 -22,-44 -38,-56 -16,-12 -34,-20 -52,-25 -19,-4 -40,-7 -65,-9 -34,-2 -61,1 -83,9 -21,9 -37,26 -49,51 l -1,0 17,-229 -119,-9 -42,561 z m 548,-56 c -12,42 -12,73 3,94 14,21 40,37 78,49 l 78,24 c 15,5 27,8 37,9 9,2 18,2 26,0 7,-1 15,-4 23,-8 8,-5 18,-11 30,-19 l -13,43 108,33 76,-249 c 14,-45 14,-82 1,-111 -14,-29 -40,-50 -79,-62 l -133,-41 c -26,-7 -47,-12 -65,-15 -18,-2 -33,0 -47,5 -13,5 -25,15 -35,29 -10,14 -19,34 -26,59 l 110,34 c 5,-13 10,-20 17,-22 7,-2 19,0 37,5 l 67,21 c 22,6 35,14 40,24 4,9 4,23 -2,43 l -10,33 c -7,-16 -18,-29 -33,-38 -16,-8 -42,-18 -77,-29 -32,-10 -58,-16 -78,-20 -20,-4 -38,-5 -53,-2 -16,3 -30,10 -41,23 -12,13 -21,32 -29,57 l -10,31 z m 165,71 c -22,-6 -37,-14 -44,-22 -7,-8 -9,-18 -5,-30 5,-17 12,-27 22,-31 10,-5 27,-3 50,4 l 50,15 c 30,9 48,18 55,26 7,7 8,19 3,34 -2,8 -5,13 -8,17 -3,4 -8,7 -15,9 -7,2 -16,2 -28,0 -12,-2 -28,-6 -47,-12 l -33,-10 z m 306,191 108,51 93,-199 c 10,-21 22,-33 38,-38 16,-4 34,-2 53,7 21,10 33,21 35,35 2,13 -3,32 -14,57 l 93,43 c 1,-1 3,-4 4,-6 6,-11 10,-20 12,-25 24,-50 32,-90 25,-120 -7,-30 -30,-54 -69,-73 -27,-12 -52,-17 -76,-15 -24,3 -45,16 -64,40 l -1,0 32,-69 -101,-47 -168,359 z m 612,77 c 14,-20 27,-33 40,-37 12,-5 29,0 51,15 l 58,40 c 21,14 33,28 37,43 4,15 -2,34 -18,58 l -22,32 c -16,24 -31,36 -47,38 -15,2 -33,-4 -54,-18 l -58,-40 c -22,-14 -33,-28 -33,-42 -1,-13 6,-29 20,-50 l 26,-39 z m -129,-16 c -16,24 -28,45 -36,63 -7,19 -11,38 -9,56 1,19 9,37 24,57 14,19 36,39 67,59 l 29,20 c 28,19 54,28 76,27 22,-1 43,-11 64,-28 l 1,0 -41,61 92,63 316,-466 -98,-67 -135,198 -1,-1 c 7,-13 11,-26 11,-38 0,-13 -2,-24 -7,-34 -5,-11 -11,-21 -19,-29 -8,-9 -18,-17 -29,-24 l -29,-20 c -31,-21 -58,-35 -81,-41 -23,-6 -43,-6 -61,-1 -18,6 -34,15 -48,30 -15,14 -30,32 -46,56 l -40,59 z m 469,384 c -19,18 -33,36 -41,54 -9,17 -12,34 -11,50 1,17 5,32 13,47 8,15 19,30 32,44 l 32,34 c 31,34 63,50 96,50 33,-1 64,-15 94,-42 l 35,-33 -72,-76 -19,18 c -13,12 -25,18 -34,18 -10,-1 -21,-8 -34,-22 -11,-11 -17,-21 -19,-30 -1,-9 3,-18 13,-28 l 112,-104 126,136 79,-74 -127,-135 68,-64 -81,-87 -69,64 -40,-44 -79,73 41,44 -115,107 z"
       id="path28"
       inkscape:connector-curvature="0"
       style="fill:#ffffff;fill-rule:nonzero" /></g></svg>