<?xml version="1.0" encoding="UTF-8" standalone="no"?>
<!-- Creator: CorelDRAW X7 -->

<svg
   xmlns:dc="http://purl.org/dc/elements/1.1/"
   xmlns:cc="http://creativecommons.org/ns#"
   xmlns:rdf="http://www.w3.org/1999/02/22-rdf-syntax-ns#"
   xmlns:svg="http://www.w3.org/2000/svg"
   xmlns="http://www.w3.org/2000/svg"
   xmlns:sodipodi="http://sodipodi.sourceforge.net/DTD/sodipodi-0.dtd"
   xmlns:inkscape="http://www.inkscape.org/namespaces/inkscape"
   xml:space="preserve"
   width="7.8740005in"
   height="7.8740005in"
   version="1.1"
   style="clip-rule:evenodd;fill-rule:evenodd;image-rendering:optimizeQuality;shape-rendering:geometricPrecision;text-rendering:geometricPrecision"
   viewBox="0 0 7874.0005 7874.0005"
   id="svg3521"
   inkscape:version="0.91 r13725"
   sodipodi:docname="Ariadna - Caledonian Mormaers - [N3] [Vyo].svg"><metadata
     id="metadata3575"><rdf:RDF><cc:Work
         rdf:about=""><dc:format>image/svg+xml</dc:format><dc:type
           rdf:resource="http://purl.org/dc/dcmitype/StillImage" /></cc:Work></rdf:RDF></metadata><sodipodi:namedview
     pagecolor="#ffffff"
     bordercolor="#666666"
     borderopacity="1"
     objecttolerance="10"
     gridtolerance="10"
     guidetolerance="10"
     inkscape:pageopacity="0"
     inkscape:pageshadow="2"
     inkscape:window-width="640"
     inkscape:window-height="480"
     id="namedview3573"
     showgrid="false"
     inkscape:zoom="0.23838384"
     inkscape:cx="736.83001"
     inkscape:cy="849.33005"
     inkscape:window-x="0"
     inkscape:window-y="0"
     inkscape:window-maximized="0"
     inkscape:current-layer="svg3521" /><defs
     id="defs3523"><style
       type="text/css"
       id="style3525"><![CDATA[
    .fil0 {fill:none}
    .fil4 {fill:black}
    .fil1 {fill:#015385}
    .fil6 {fill:#FFCC00}
    .fil2 {fill:white}
    .fil3 {fill:#015385;fill-rule:nonzero}
    .fil5 {fill:#FFCC00;fill-rule:nonzero}
   ]]></style></defs><g
     id="Layer_x0020_1"
     transform="translate(3937,-7063)"><metadata
       id="CorelCorpID_0Corel-Layer" /><path
       class="fil0"
       d="m 476,10401 170,164 889,-1044 c 27,-32 -18,-75 -48,-47 l -1011,927 z"
       id="path3529"
       inkscape:connector-curvature="0"
       style="fill:none" /><circle
       class="fil1"
       cy="11000"
       r="3937"
       id="circle3531"
       cx="0"
       style="fill:#015385" /><circle
       class="fil2"
       cy="11000"
       r="3780"
       id="circle3533"
       cx="0"
       style="fill:#ffffff" /><circle
       class="fil1"
       cy="11000"
       r="3150"
       id="circle3535"
       cx="0"
       style="fill:#015385" /><path
       class="fil2"
       d="m 0,13992 -418,-987 c -255,-53 -493,-154 -704,-292 l -994,403 403,-994 c -138,-211 -239,-449 -292,-704 l -987,-418 987,-418 c 53,-255 154,-493 292,-704 l -403,-994 994,403 c 323,-211 708,-334 1122,-334 414,0 800,123 1122,334 l 994,-403 -403,994 c 138,211 239,449 292,704 l 987,418 -987,418 c -53,255 -154,493 -292,704 l 403,994 -994,-403 c -211,138 -449,239 -704,292 L 0,13992 Z m -433,-5905 433,354 433,-354 39,433 532,-99 -423,533 c -185,-52 -380,-80 -581,-80 -201,0 -396,28 -581,80 l -423,-533 532,99 39,-433 z m -1130,3975 1062,-1062 -1062,-1062 c -206,303 -327,668 -327,1062 0,394 121,759 327,1062 z M -1062,9437 0,10499 1062,9437 C 759,9231 394,9110 0,9110 c -394,0 -759,121 -1062,327 z m 2625,501 -1062,1062 1062,1062 c 206,-303 327,-668 327,-1062 0,-394 -121,-759 -327,-1062 z M 1062,12563 0,11501 -1062,12563 c 303,206 668,327 1062,327 394,0 759,-121 1062,-327 z"
       id="path3537"
       inkscape:connector-curvature="0"
       style="fill:#ffffff" /><circle
       class="fil0"
       cy="11000"
       r="3898"
       id="circle3539"
       cx="0"
       style="fill:none" /><path
       class="fil3"
       d="m -1675,13905 c 16,-26 1,-54 -48,-85 l -200,-127 -147,231 199,126 c 49,31 83,33 101,4 l 95,-149 z m -50,177 c -34,53 -90,55 -168,5 l -231,-147 c -9,-6 -11,-14 -5,-24 l 174,-274 c 6,-9 14,-10 24,-4 l 231,147 c 78,49 101,99 69,149 l -94,148 z m 214,-140 c -8,16 -22,18 -43,8 -19,-10 -25,-23 -17,-38 8,-16 21,-19 41,-9 21,11 27,24 19,39 z m -141,258 c -7,14 -18,16 -32,9 -14,-7 -18,-17 -11,-31 l 98,-193 c 7,-13 17,-16 30,-9 16,8 20,18 14,31 l -99,193 z m 119,60 c -6,13 -17,16 -32,10 -15,-7 -20,-18 -13,-31 l 132,-291 c 6,-14 17,-17 32,-10 15,7 20,17 14,31 l -133,291 z m 163,-74 250,97 15,-38 c 8,-23 -5,-41 -41,-55 l -125,-49 c -47,-18 -76,-15 -85,9 l -14,36 z m 288,133 c -6,14 -16,19 -30,13 l -274,-107 -12,32 c -9,23 10,44 58,63 l 51,20 c 13,5 17,14 12,26 -5,13 -14,17 -27,12 l -39,-15 c -87,-34 -120,-77 -99,-130 l 38,-98 c 21,-52 74,-61 159,-28 l 105,41 c 72,28 99,65 82,110 l -24,61 z m 363,77 -224,-52 c -38,-8 -59,-1 -65,23 l -8,37 c -6,23 12,39 53,48 l 161,37 c 39,9 62,-4 70,-38 l 13,-55 z m 31,79 c -12,53 -56,70 -133,52 l -142,-32 c -80,-19 -114,-53 -103,-103 l 8,-35 c 12,-52 57,-69 135,-51 l 212,49 c 3,-27 -13,-45 -50,-53 l -59,-14 c -11,-2 -16,-11 -13,-24 3,-13 11,-19 22,-16 l 52,12 c 76,17 108,53 96,106 l -25,109 z m 392,64 c -6,48 -44,68 -113,59 l -210,-28 c -15,-1 -21,-9 -20,-22 2,-15 11,-21 25,-19 l 219,29 c 30,4 46,-5 48,-25 l 3,-17 c 2,-20 -13,-32 -47,-36 l -116,-16 c -77,-10 -112,-38 -106,-84 l 2,-18 c 6,-44 45,-61 118,-52 l 58,8 c 14,2 21,9 19,23 -2,14 -10,19 -24,18 l -70,-10 c -32,-4 -50,3 -52,20 l -2,16 c -3,20 15,33 54,38 l 119,15 c 71,10 104,38 97,85 l -2,16 z m 579,34 -3,-146 c -1,-30 -27,-45 -80,-44 l -112,3 c -50,1 -74,15 -73,43 l 2,108 c 1,28 29,41 86,40 l 180,-4 z m 52,37 c 1,55 -43,83 -134,85 l -42,1 c -14,0 -22,-7 -22,-20 0,-14 7,-21 21,-21 l 48,-1 c 54,-1 80,-13 80,-36 l 0,-3 -172,4 c -97,2 -145,-25 -147,-80 l -2,-108 c -1,-56 42,-85 131,-87 l 89,-1 c 96,-3 145,24 146,80 l 4,187 z m 424,-148 c 9,53 -32,87 -124,103 l -85,15 c -92,16 -143,-2 -152,-55 l -30,-175 c -3,-14 4,-22 20,-25 16,-3 26,3 28,17 l 31,175 c 4,25 33,33 88,23 l 101,-18 c 53,-9 78,-26 73,-50 l -30,-176 c -3,-14 4,-22 21,-25 17,-3 26,3 28,16 l 31,175 z m 536,-274 c -10,-28 -40,-34 -89,-18 l -183,61 48,143 c 8,26 39,30 90,13 l 114,-38 c 44,-15 61,-36 52,-64 l -32,-97 z m 80,82 c 17,54 -17,95 -104,124 l -87,29 c -90,30 -143,19 -160,-34 l -81,-243 c -5,-14 1,-24 16,-29 16,-5 26,-1 31,13 l 20,62 175,-58 c 86,-29 139,-17 156,37 l 34,99 z m 318,-239 -203,106 c -34,18 -46,38 -35,60 l 18,33 c 10,20 34,21 71,2 l 146,-76 c 36,-19 46,-44 29,-75 l -26,-50 z m 76,41 c 24,47 2,89 -67,125 l -130,67 c -73,38 -121,34 -145,-11 l -16,-32 c -25,-47 -1,-89 70,-126 l 193,-101 c -16,-22 -40,-25 -73,-8 l -54,28 c -10,6 -19,2 -25,-10 -7,-12 -4,-21 6,-26 l 47,-25 c 69,-36 117,-29 142,19 l 52,100 z m 339,-209 c 26,41 10,80 -49,118 l -178,115 c -13,8 -22,6 -30,-5 -7,-12 -5,-22 7,-30 l 186,-120 c 25,-16 32,-33 21,-50 l -9,-14 c -11,-17 -31,-17 -59,2 l -99,63 c -65,42 -111,44 -136,5 l -9,-15 c -25,-38 -6,-77 56,-116 l 49,-32 c 12,-8 22,-6 30,5 7,12 5,22 -7,29 l -59,38 c -28,18 -37,34 -28,49 l 9,14 c 11,17 33,15 66,-6 l 101,-65 c 60,-39 103,-39 129,1 l 9,14 z"
       id="path3541"
       inkscape:connector-curvature="0"
       style="fill:#015385;fill-rule:nonzero" /><circle
       class="fil0"
       cy="11000"
       r="3898"
       id="circle3543"
       cx="0"
       style="fill:none" /><g
       id="_819015904"><path
         class="fil4"
         d="m -3021,9387 c 16,9 34,16 52,20 16,2 32,3 48,-1 15,-3 28,-9 40,-18 13,-10 24,-23 32,-37 8,-15 15,-31 19,-48 5,-17 7,-35 8,-52 l 0,-34 87,50 0,12 c 0,20 -4,41 -10,60 -7,22 -17,42 -28,62 -15,26 -33,49 -57,67 -22,17 -47,29 -74,36 -27,7 -55,8 -83,3 -30,-4 -59,-15 -85,-30 -28,-16 -52,-36 -72,-61 -19,-22 -33,-48 -41,-76 -8,-28 -10,-57 -7,-85 3,-31 14,-59 29,-85 5,-10 11,-19 17,-27 6,-9 13,-17 20,-25 6,-7 13,-15 20,-21 7,-7 14,-13 21,-18 l 11,-8 84,48 -23,18 c -7,5 -13,11 -19,16 -7,6 -14,12 -20,19 -7,7 -13,14 -18,21 -6,7 -11,14 -15,22 -8,14 -13,29 -15,45 -1,15 1,31 6,45 5,16 15,31 26,44 13,15 29,28 47,38 z m 373,-400 -73,105 71,101 -61,89 -267,-394 49,-71 464,109 -62,89 -121,-28 z m 204,-203 88,-99 68,60 -154,174 -332,-293 67,-75 263,233 z m 26,-395 57,60 103,-97 62,67 -102,97 58,62 103,-97 63,66 -176,166 -304,-322 175,-166 63,67 -102,97 z m 574,-293 c 18,26 32,55 38,87 5,31 5,61 -2,91 -8,31 -22,59 -40,84 -21,28 -46,52 -74,72 l -103,72 -254,-364 107,-74 c 28,-20 59,-37 92,-49 28,-9 58,-14 88,-12 29,2 56,12 81,27 27,17 49,40 67,66 z m 430,-235 c 15,28 26,59 32,90 4,29 4,58 -3,85 -6,28 -19,52 -37,74 -19,24 -43,42 -70,56 -26,14 -53,23 -83,26 -27,3 -54,0 -80,-9 -26,-9 -50,-24 -71,-43 -22,-20 -40,-45 -55,-72 -15,-28 -26,-58 -31,-89 -5,-29 -5,-57 3,-85 7,-28 20,-53 38,-75 20,-23 44,-42 71,-57 26,-13 53,-22 82,-25 28,-2 54,1 80,10 26,9 49,24 69,43 23,20 41,45 55,71 z m 173,-118 c -1,0 -2,-1 -3,-2 l 82,260 -91,29 -134,-423 90,-28 264,190 c 3,3 6,5 9,7 l -82,-258 91,-29 134,423 -85,27 -275,-196 z m 539,124 -98,23 -100,-432 98,-22 100,431 z m 279,-165 -127,18 -26,120 -107,15 110,-462 85,-12 233,415 -108,15 -60,-109 z m 282,-178 c -1,-1 -1,-2 -2,-3 l 4,272 -97,2 -6,-443 94,-2 199,259 c 2,3 4,6 6,9 l -4,-271 96,-1 6,443 -89,1 -207,-266 z m 913,120 -124,210 -80,-13 -52,-245 -53,227 -95,-15 103,-432 97,16 65,309 162,-271 99,16 -53,441 -95,-16 26,-227 z m 590,189 c -10,31 -25,60 -44,85 -17,23 -38,43 -64,57 -24,14 -51,21 -79,23 -30,2 -60,-3 -89,-13 -27,-9 -53,-23 -75,-42 -21,-19 -37,-40 -49,-65 -11,-26 -16,-53 -17,-81 0,-31 6,-61 15,-90 11,-30 25,-59 44,-84 18,-23 39,-42 64,-56 25,-14 52,-21 80,-23 31,-2 62,4 91,13 27,10 53,24 74,43 21,18 37,40 48,65 11,25 16,52 16,80 0,30 -5,60 -15,88 z m 151,140 -81,154 -89,-47 205,-392 99,52 c 19,9 37,21 54,34 15,12 29,26 39,43 10,16 15,34 16,53 1,21 -6,42 -15,61 -8,14 -19,28 -32,38 -11,10 -25,17 -39,22 -14,5 -28,8 -43,8 -5,0 -10,0 -15,-1 l 23,236 -106,-56 -16,-205 z m 565,285 -202,137 -67,-46 57,-243 -144,182 -80,-55 278,-346 80,55 -73,308 262,-177 83,58 -236,375 -79,-54 121,-194 z m 249,366 -94,-88 -110,55 -78,-74 429,-204 63,59 -178,441 -79,-74 47,-115 z m 371,51 -63,56 94,105 -69,61 -93,-106 -64,57 93,105 -68,61 -160,-181 332,-293 160,180 -69,61 -93,-106 z m 67,376 -142,101 -58,-82 361,-257 64,91 c 13,17 24,35 33,54 8,18 14,37 15,57 2,19 -2,37 -9,54 -9,20 -24,35 -41,47 -14,10 -29,17 -46,21 -15,3 -30,4 -45,2 -14,-2 -28,-7 -42,-13 -4,-2 -9,-5 -13,-7 l -85,220 -70,-97 78,-191 z m 239,474 c -16,9 -33,15 -51,18 -18,2 -36,1 -54,-4 -18,-6 -35,-16 -49,-28 -17,-14 -30,-32 -41,-51 -5,-10 -10,-20 -15,-31 -4,-10 -7,-21 -10,-32 -2,-9 -4,-19 -5,-29 -2,-10 -2,-19 -1,-28 l 0,-11 98,-54 -4,38 c -1,8 -2,16 -1,24 0,10 1,20 3,29 1,10 3,19 6,28 2,7 5,14 8,21 5,7 10,15 16,20 4,4 9,8 15,10 5,2 10,2 16,1 6,-1 12,-3 17,-6 5,-3 11,-7 14,-12 3,-5 5,-10 5,-16 2,-8 1,-16 1,-24 -2,-12 -3,-24 -5,-35 -2,-17 -4,-34 -4,-51 -1,-16 0,-31 4,-46 4,-15 11,-28 20,-40 10,-13 23,-23 38,-31 16,-9 34,-15 54,-16 18,-1 35,2 52,9 17,6 33,16 46,29 15,13 27,28 36,45 9,17 17,34 23,53 5,15 8,31 10,47 l 1,13 -87,49 -2,-31 c -1,-7 -2,-14 -3,-20 -1,-8 -3,-16 -5,-24 -3,-8 -5,-16 -8,-24 -3,-7 -6,-13 -9,-20 -4,-7 -9,-13 -14,-19 -5,-3 -9,-7 -15,-9 l 0,0 c -4,-1 -9,-2 -13,-2 -5,1 -10,3 -15,5 -4,3 -8,6 -11,10 -2,5 -4,11 -5,16 -1,8 0,17 1,26 1,12 2,24 4,36 2,17 4,34 4,50 0,16 -1,31 -6,46 -4,15 -11,28 -20,40 -11,13 -24,23 -39,31 z m -5833,-586 51,72 35,-50 -86,-22 z m 685,-783 149,213 19,-13 c 18,-12 35,-28 48,-46 11,-15 20,-31 24,-50 4,-17 4,-34 0,-52 -4,-19 -13,-37 -24,-53 -11,-16 -24,-30 -41,-40 -13,-9 -28,-14 -44,-15 -17,-1 -34,3 -49,8 -21,8 -41,19 -59,32 l -23,16 z m 642,-241 c -9,-18 -21,-35 -35,-50 -11,-11 -23,-21 -38,-28 -13,-5 -26,-8 -40,-7 -16,1 -31,6 -45,14 -13,7 -25,17 -35,29 -8,12 -14,25 -17,39 -3,17 -3,33 0,49 4,19 11,38 20,55 10,17 21,33 35,47 11,11 24,21 39,27 13,6 26,9 41,8 15,-1 29,-5 42,-12 14,-8 27,-17 37,-30 9,-11 15,-24 18,-38 3,-15 2,-31 -1,-47 -4,-19 -11,-38 -21,-56 z m 991,-378 -18,86 60,-8 -42,-78 z m 1774,269 c 6,-19 11,-39 12,-60 1,-15 0,-31 -5,-46 -5,-14 -12,-25 -23,-35 -11,-10 -25,-18 -40,-23 -15,-5 -30,-7 -45,-5 -15,2 -29,6 -41,14 -14,9 -26,20 -35,34 -12,15 -20,33 -27,52 -6,18 -10,37 -11,57 0,16 2,32 7,47 5,13 13,25 23,35 11,11 24,18 38,23 15,5 31,8 47,7 14,-2 27,-6 39,-13 14,-8 25,-20 34,-33 12,-16 20,-35 27,-54 z m 332,10 -39,74 9,5 c 16,8 35,16 53,12 14,-2 23,-11 30,-23 5,-9 7,-19 1,-28 -8,-14 -28,-27 -42,-34 l -12,-6 z m 806,636 -79,40 44,41 35,-81 z m 508,496 -68,49 6,8 c 10,15 25,30 42,35 14,4 25,1 37,-7 8,-6 14,-14 14,-25 -1,-16 -14,-36 -23,-49 l -8,-11 z"
         id="path3546"
         inkscape:connector-curvature="0"
         style="fill:#000000" /></g><path
       class="fil5"
       d="m -3032,9405 c 20,11 39,18 59,22 19,3 38,3 55,-1 17,-4 34,-11 48,-22 15,-11 27,-26 37,-44 9,-16 16,-34 21,-52 5,-19 7,-38 7,-57 l 49,27 c -1,17 -4,36 -10,55 -6,18 -14,38 -25,58 -14,25 -31,45 -52,61 -20,16 -42,27 -66,33 -24,6 -49,7 -76,3 -26,-4 -52,-13 -78,-28 -27,-15 -49,-33 -67,-55 -17,-21 -30,-45 -37,-69 -8,-25 -10,-51 -7,-78 3,-26 11,-52 26,-77 4,-9 10,-17 16,-25 6,-8 12,-16 18,-23 7,-8 13,-15 20,-21 6,-6 12,-12 19,-16 l 47,27 c -6,5 -13,10 -20,16 -7,7 -14,13 -21,20 -6,8 -13,15 -19,23 -6,8 -12,16 -16,24 -10,17 -15,35 -17,53 -2,19 1,36 7,54 6,18 16,34 30,50 13,16 31,30 52,42 z"
       id="path3548"
       inkscape:connector-curvature="0"
       style="fill:#ffcc00;fill-rule:nonzero" /><path
       id="1"
       class="fil5"
       d="m -2499,8938 -38,55 -120,-29 -88,128 71,101 -37,54 -244,-358 33,-49 423,98 z m -355,-24 c -3,-1 -7,-3 -13,-4 -5,-2 -11,-5 -16,-7 l -1,1 c 5,4 9,9 13,13 3,5 6,9 9,12 l 83,117 67,-97 -142,-35 z"
       inkscape:connector-curvature="0"
       style="fill:#ffcc00;fill-rule:nonzero" /><polygon
       id="2"
       class="fil5"
       points="-2703,8576 -2441,8812 -2352,8713 -2314,8748 -2443,8892 -2744,8622 "
       style="fill:#ffcc00;fill-rule:nonzero" /><polygon
       id="3"
       class="fil5"
       points="-2382,8254 -2346,8292 -2448,8389 -2363,8478 -2261,8381 -2225,8418 -2327,8515 -2241,8606 -2139,8508 -2103,8546 -2249,8685 -2528,8393 "
       style="fill:#ffcc00;fill-rule:nonzero" /><path
       id="4"
       class="fil5"
       d="m -1911,8144 c -15,-20 -30,-36 -47,-46 -16,-10 -34,-16 -52,-17 -19,-1 -38,2 -58,9 -21,8 -42,19 -63,34 l -39,27 171,246 34,-24 c 22,-16 40,-32 53,-51 14,-18 23,-37 27,-57 5,-20 5,-40 1,-61 -5,-20 -14,-40 -27,-60 z m 51,-37 c 18,26 30,53 35,81 5,27 5,55 -2,82 -7,27 -19,53 -37,77 -18,25 -41,47 -70,67 l -86,60 -231,-331 91,-63 c 30,-21 59,-36 87,-46 28,-9 55,-13 81,-11 25,2 49,10 71,24 23,14 43,34 61,60 z"
       inkscape:connector-curvature="0"
       style="fill:#ffcc00;fill-rule:nonzero" /><path
       id="5"
       class="fil5"
       d="m -1485,7905 c -11,-21 -24,-39 -38,-54 -14,-14 -29,-25 -45,-32 -16,-7 -32,-10 -49,-9 -17,1 -35,7 -53,16 -17,9 -31,21 -41,35 -11,15 -17,30 -21,48 -3,17 -3,36 0,56 4,20 11,40 22,60 12,21 24,38 38,52 14,14 30,25 46,31 16,7 32,10 49,10 18,-1 35,-6 51,-15 18,-10 33,-21 44,-35 10,-14 18,-29 21,-46 4,-17 3,-35 -1,-55 -4,-19 -11,-40 -23,-62 z m 53,-35 c 15,29 25,57 30,84 4,28 4,53 -2,77 -6,24 -17,46 -33,66 -17,20 -38,37 -64,51 -26,14 -51,22 -76,24 -25,3 -49,0 -72,-8 -23,-8 -44,-21 -64,-38 -19,-18 -36,-40 -51,-67 -15,-29 -25,-56 -29,-83 -5,-28 -4,-53 2,-77 6,-25 18,-47 34,-67 17,-20 39,-38 66,-52 25,-14 49,-21 74,-24 25,-2 49,1 71,9 23,8 44,21 63,39 20,18 36,40 51,66 z"
       inkscape:connector-curvature="0"
       style="fill:#ffcc00;fill-rule:nonzero" /><path
       id="6"
       class="fil5"
       d="m -905,7902 -57,18 -266,-192 c -2,-2 -5,-4 -10,-8 -4,-4 -10,-8 -15,-13 -5,-4 -11,-9 -16,-13 -5,-5 -9,-8 -11,-11 l 94,306 -55,16 -118,-385 62,-19 254,186 c 4,4 9,8 15,12 6,5 11,10 17,15 6,5 11,9 16,14 5,4 9,8 12,11 l -94,-306 54,-16 118,385 z"
       inkscape:connector-curvature="0"
       style="fill:#ffcc00;fill-rule:nonzero" /><polygon
       id="7"
       class="fil5"
       points="-816,7460 -726,7853 -785,7867 -876,7473 "
       style="fill:#ffcc00;fill-rule:nonzero" /><path
       id="8"
       class="fil5"
       d="m -287,7782 -65,9 -60,-109 -154,21 -26,120 -66,9 102,-421 59,-8 210,379 z m -219,-280 c -2,-3 -4,-7 -6,-12 -2,-5 -4,-11 -6,-17 l -1,1 c -1,6 -1,12 -2,18 -1,6 -2,10 -3,14 l -30,141 116,-16 -68,-129 z"
       inkscape:connector-curvature="0"
       style="fill:#ffcc00;fill-rule:nonzero" /><path
       id="9"
       class="fil5"
       d="m 135,7771 -60,1 -200,-260 c -2,-2 -4,-5 -8,-10 -3,-5 -7,-10 -11,-16 -4,-6 -7,-12 -11,-18 -4,-6 -6,-10 -8,-13 l 4,319 -57,1 -5,-403 65,-1 191,251 c 3,4 7,9 11,15 4,6 8,13 12,19 4,6 8,12 12,18 3,6 6,10 8,14 l -4,-319 57,-1 4,403 z"
       inkscape:connector-curvature="0"
       style="fill:#ffcc00;fill-rule:nonzero" /><path
       id="10"
       class="fil5"
       d="m 824,7860 -56,-9 29,-262 c 0,-2 0,-6 1,-10 0,-4 1,-9 2,-14 0,-5 1,-10 2,-14 0,-5 1,-9 1,-12 -2,5 -4,9 -6,14 -3,5 -5,10 -7,14 -2,5 -4,9 -6,12 -2,3 -3,6 -4,8 l -142,244 -54,-9 -60,-277 c -1,-2 -1,-5 -2,-9 -1,-3 -2,-8 -2,-13 -1,-4 -2,-9 -2,-15 -1,-5 -2,-10 -2,-15 -1,4 -1,8 -2,12 -1,5 -2,9 -3,14 -1,5 -2,10 -3,15 -1,4 -2,8 -2,12 l -58,254 -56,-9 91,-393 65,10 68,312 c 1,3 1,6 2,10 0,4 1,9 1,13 1,4 1,8 1,13 0,4 1,8 1,11 1,-3 2,-7 4,-11 2,-4 4,-8 5,-12 2,-5 4,-8 6,-12 2,-4 3,-7 5,-9 l 161,-274 67,10 -45,401 z"
       inkscape:connector-curvature="0"
       style="fill:#ffcc00;fill-rule:nonzero" /><path
       id="11"
       class="fil5"
       d="m 1281,7811 c 8,-23 12,-45 13,-65 1,-20 -1,-38 -7,-54 -6,-16 -15,-30 -27,-42 -13,-12 -29,-21 -48,-27 -18,-7 -36,-9 -54,-7 -17,2 -34,8 -49,18 -15,9 -28,22 -40,38 -12,17 -22,36 -29,58 -7,22 -11,43 -12,63 -1,20 2,38 8,54 6,17 15,31 28,43 12,12 27,21 45,27 20,6 38,9 55,7 18,-1 34,-6 48,-15 15,-9 28,-22 40,-39 11,-16 21,-36 29,-59 z m 62,14 c -11,31 -24,58 -41,80 -17,22 -36,39 -57,51 -22,12 -45,19 -71,21 -26,2 -53,-2 -81,-11 -27,-10 -50,-22 -69,-39 -19,-16 -34,-36 -44,-58 -9,-22 -15,-46 -15,-73 -1,-26 4,-54 14,-83 10,-30 23,-56 40,-78 16,-22 36,-39 57,-51 22,-12 46,-19 72,-21 27,-2 54,2 83,12 27,9 50,22 68,38 19,17 33,36 42,58 10,22 15,46 15,72 1,26 -4,54 -13,82 z"
       inkscape:connector-curvature="0"
       style="fill:#ffcc00;fill-rule:nonzero" /><path
       id="12"
       class="fil5"
       d="m 1664,7892 c 9,-18 9,-33 1,-47 -8,-15 -25,-28 -50,-42 l -30,-15 -56,110 26,13 c 25,13 47,18 66,14 19,-3 33,-15 43,-33 z m -51,306 -64,-33 -18,-210 -25,-13 -82,158 -55,-28 186,-359 81,42 c 19,10 36,21 51,33 15,11 26,24 34,37 9,14 13,28 14,44 1,15 -4,32 -13,50 -7,14 -15,25 -26,33 -10,8 -21,15 -33,19 -12,4 -24,6 -37,7 -13,0 -25,-1 -37,-5 l 24,225 z"
       inkscape:connector-curvature="0"
       style="fill:#ffcc00;fill-rule:nonzero" /><path
       id="13"
       class="fil5"
       d="m 2032,8477 -47,-32 139,-225 c 1,-2 3,-5 5,-9 3,-3 5,-7 8,-11 3,-4 5,-8 8,-12 2,-4 5,-8 6,-10 -3,3 -7,6 -12,10 -4,3 -8,7 -12,10 -4,3 -7,5 -10,8 -3,2 -5,4 -7,5 l -233,160 -45,-32 64,-276 c 0,-2 1,-5 2,-9 1,-3 2,-8 4,-12 1,-5 3,-10 4,-15 2,-5 3,-10 5,-14 -2,3 -4,6 -7,10 -2,4 -5,7 -8,12 -3,3 -6,7 -9,11 -3,4 -5,7 -8,10 l -161,205 -47,-32 252,-317 54,38 -73,311 c 0,3 -1,6 -3,10 -1,4 -2,8 -4,12 -1,4 -3,8 -4,12 -2,4 -3,7 -5,10 3,-2 6,-5 9,-8 3,-3 7,-6 10,-9 3,-3 7,-5 10,-8 3,-2 6,-5 9,-6 l 263,-179 56,39 -213,343 z"
       inkscape:connector-curvature="0"
       style="fill:#ffcc00;fill-rule:nonzero" /><path
       id="14"
       class="fil5"
       d="m 2349,8781 -47,-46 47,-114 -112,-108 -110,55 -48,-46 392,-183 43,41 -165,401 z m 82,-346 c 1,-3 3,-7 6,-12 2,-5 5,-10 9,-15 l -1,-1 c -5,4 -10,7 -15,10 -5,3 -9,5 -13,7 l -129,64 85,81 58,-134 z"
       inkscape:connector-curvature="0"
       style="fill:#ffcc00;fill-rule:nonzero" /><polygon
       id="15"
       class="fil5"
       points="2831,8716 2792,8751 2699,8646 2607,8728 2701,8833 2662,8867 2569,8762 2475,8845 2569,8950 2530,8985 2396,8834 2697,8566 "
       style="fill:#ffcc00;fill-rule:nonzero" /><path
       id="16"
       class="fil5"
       d="m 2937,9052 c 16,-11 23,-25 23,-41 -1,-16 -10,-36 -26,-60 l -19,-27 -101,71 17,24 c 16,23 34,38 52,43 19,6 36,2 54,-10 z m -188,248 -41,-60 81,-194 -16,-23 -146,103 -35,-51 331,-231 52,75 c 12,17 22,34 30,52 8,17 12,33 13,49 2,16 -1,31 -8,45 -6,14 -18,27 -35,39 -12,8 -25,14 -38,17 -13,2 -26,3 -38,1 -13,-2 -24,-6 -36,-11 -11,-6 -22,-13 -31,-21 l -83,210 z"
       inkscape:connector-curvature="0"
       style="fill:#ffcc00;fill-rule:nonzero" /><path
       id="17"
       class="fil5"
       d="m 2996,9507 c -14,8 -29,13 -45,15 -15,3 -30,1 -45,-3 -15,-4 -29,-12 -42,-24 -14,-11 -26,-26 -37,-45 -5,-9 -10,-19 -14,-29 -4,-9 -7,-19 -9,-28 -3,-10 -4,-19 -6,-28 -1,-9 -1,-17 0,-24 l 54,-31 c -1,9 -1,18 -1,28 1,10 2,20 3,31 2,10 5,20 7,30 3,10 7,18 11,25 6,10 12,19 19,25 7,7 15,11 23,14 8,2 16,3 24,2 8,-2 16,-5 25,-9 9,-5 16,-11 20,-18 4,-7 7,-15 8,-24 2,-9 2,-19 1,-29 -2,-11 -3,-23 -5,-36 -3,-18 -4,-35 -5,-49 0,-15 1,-28 4,-40 3,-13 8,-23 16,-33 7,-10 18,-18 32,-26 14,-9 29,-13 45,-14 15,-1 30,1 44,7 15,5 28,14 41,25 12,11 23,25 32,40 9,17 16,33 21,49 5,15 8,29 10,43 l -49,28 c -1,-7 -2,-14 -3,-22 -2,-8 -4,-17 -6,-26 -3,-8 -6,-17 -9,-25 -3,-8 -6,-16 -10,-23 -6,-9 -12,-17 -18,-23 -7,-6 -14,-10 -21,-13 -8,-3 -15,-4 -22,-3 -8,1 -15,3 -23,8 -8,4 -14,10 -18,17 -4,6 -6,14 -7,23 -1,9 -1,19 0,30 1,12 3,24 5,37 2,18 4,34 4,48 0,15 -1,28 -5,40 -3,12 -9,23 -17,33 -8,10 -19,19 -32,27 z"
       inkscape:connector-curvature="0"
       style="fill:#ffcc00;fill-rule:nonzero" /><path
       class="fil1"
       d="m -1116,11942 -38,-4 c -139,-11 -279,-16 -419,-13 l -31,1 -57,-115 41,-29 c 185,-129 281,-207 281,-447 0,-863 402,-1577 1356,-1614 l 75,-3 6,75 c 11,126 24,257 53,382 37,-69 98,-132 180,-186 l 122,-80 0,146 c 0,42 4,83 14,123 8,33 20,65 29,98 l 937,-860 c 29,-26 67,-36 105,-26 78,22 112,118 57,182 l -886,1041 666,666 c 16,16 28,36 36,58 31,90 -26,186 -82,252 -31,38 -75,81 -119,111 -30,98 -101,192 -170,261 -73,73 -195,1 -172,-94 28,-109 -23,-239 -130,-282 -112,-46 -301,-73 -423,-73 -36,0 -68,-1 -98,-3 216,228 398,646 469,886 l 59,200 -177,-111 c -328,-207 -720,-354 -1097,-444 l -38,-9 -16,-37 c -34,-80 -61,-166 -82,-253 4,61 9,118 15,167 l 12,106 -105,-20 c -111,-20 -222,-37 -334,-48 l -39,-4 z"
       id="path3567"
       inkscape:connector-curvature="0"
       style="fill:#015385" /><path
       class="fil6"
       d="m 20,9799 c 10,127 27,288 64,431 -364,-13 -658,201 -869,527 -196,302 -320,702 -363,1103 -141,-12 -284,-17 -427,-14 197,-137 315,-235 315,-511 0,-689 276,-1496 1280,-1536 z m 633,758 882,-1036 c 27,-32 -18,-75 -48,-47 l -298,273 c -21,19 -24,37 -16,55 -17,-4 -10,-32 -71,25 -28,25 -23,47 -19,68 -21,-7 -12,-40 -71,14 -31,29 -33,61 -22,84 -34,-10 -18,-47 -70,1 -34,31 -47,78 -31,105 -29,-9 -32,-47 -66,-16 -35,32 -46,91 -36,122 -35,-18 -16,-75 -60,-34 -42,38 -58,81 -36,134 -48,-9 -26,-77 -61,-45 -42,38 -37,102 -20,130 -29,-8 -39,-20 -45,-44 -3,-16 -26,0 -51,22 1,17 1,34 1,51 l 138,138 z m -545,-247 c 30,90 72,168 128,218 -101,-199 -43,-353 138,-473 0,197 79,236 59,394 295,295 571,571 886,886 85,85 -99,275 -177,315 -20,98 -99,196 -158,256 -17,17 -43,-3 -39,-20 37,-147 -33,-316 -177,-374 -118,-48 -326,-79 -453,-79 -256,0 -315,-39 -492,-236 20,118 70,192 197,256 236,118 492,630 590,964 -298,-187 -689,-350 -1120,-454 -132,-312 -190,-829 -100,-1081 -155,224 -160,675 -118,1035 -112,-21 -226,-38 -341,-50 41,-389 161,-776 350,-1067 198,-306 471,-506 806,-491 6,0 13,1 21,1 z"
       id="path3569"
       inkscape:connector-curvature="0"
       style="fill:#ffcc00" /><path
       class="fil1"
       d="m 453,10803 c 59,0 138,-20 157,-59 40,20 71,81 91,120 -27,-21 -37,-33 -71,-41 -19,-5 -31,42 -59,39 -47,-5 -83,-29 -118,-59 z"
       id="path3571"
       inkscape:connector-curvature="0"
       style="fill:#015385" /></g></svg>