<?xml version="1.0" encoding="UTF-8" standalone="no"?>
<!-- Creator: CorelDRAW X7 -->

<svg
   xmlns:dc="http://purl.org/dc/elements/1.1/"
   xmlns:cc="http://creativecommons.org/ns#"
   xmlns:rdf="http://www.w3.org/1999/02/22-rdf-syntax-ns#"
   xmlns:svg="http://www.w3.org/2000/svg"
   xmlns="http://www.w3.org/2000/svg"
   xmlns:sodipodi="http://sodipodi.sourceforge.net/DTD/sodipodi-0.dtd"
   xmlns:inkscape="http://www.inkscape.org/namespaces/inkscape"
   xml:space="preserve"
   width="7.8740005in"
   height="7.8740005in"
   version="1.1"
   style="clip-rule:evenodd;fill-rule:evenodd;image-rendering:optimizeQuality;shape-rendering:geometricPrecision;text-rendering:geometricPrecision"
   viewBox="0 0 7874.0005 7874.0005"
   id="svg2"
   inkscape:version="0.91 r13725"
   sodipodi:docname="Ariadna - Highlander Caterans v2 - [N3] [Vyo].svg"><metadata
     id="metadata33"><rdf:RDF><cc:Work
         rdf:about=""><dc:format>image/svg+xml</dc:format><dc:type
           rdf:resource="http://purl.org/dc/dcmitype/StillImage" /></cc:Work></rdf:RDF></metadata><sodipodi:namedview
     pagecolor="#ffffff"
     bordercolor="#666666"
     borderopacity="1"
     objecttolerance="10"
     gridtolerance="10"
     guidetolerance="10"
     inkscape:pageopacity="0"
     inkscape:pageshadow="2"
     inkscape:window-width="640"
     inkscape:window-height="480"
     id="namedview31"
     showgrid="false"
     inkscape:zoom="0.23838384"
     inkscape:cx="736.83001"
     inkscape:cy="849.33005"
     inkscape:window-x="0"
     inkscape:window-y="0"
     inkscape:window-maximized="0"
     inkscape:current-layer="svg2" /><defs
     id="defs4"><style
       type="text/css"
       id="style6"><![CDATA[
    .fil2 {fill:none}
    .fil5 {fill:black}
    .fil0 {fill:#015385}
    .fil6 {fill:#FFCC00}
    .fil1 {fill:white}
    .fil3 {fill:#FFCC00;fill-rule:nonzero}
    .fil4 {fill:white;fill-rule:nonzero}
   ]]></style></defs><g
     id="Layer_x0020_1"
     transform="translate(3937,-7063)"><metadata
       id="CorelCorpID_0Corel-Layer" /><circle
       class="fil0"
       cy="11000"
       r="3937"
       id="circle10"
       cx="0"
       style="fill:#015385" /><circle
       class="fil1"
       cy="11000"
       r="3819"
       id="circle12"
       cx="0"
       style="fill:#ffffff" /><circle
       class="fil0"
       cy="11000"
       r="3543"
       id="circle14"
       cx="0"
       style="fill:#015385" /><path
       class="fil1"
       d="m 0,8520 c 1370,0 2480,1110 2480,2480 0,1370 -1110,2480 -2480,2480 -1370,0 -2480,-1110 -2480,-2480 0,-1370 1110,-2480 2480,-2480 z m -1863,3731 1251,-1251 -1251,-1251 c -241,358 -381,788 -381,1251 0,463 140,893 381,1251 z M -1251,9137 0,10388 1251,9137 C 893,8896 463,8756 0,8756 c -463,0 -893,140 -1251,381 z m 3114,612 -1251,1251 1251,1251 c 241,-358 381,-788 381,-1251 0,-463 -140,-893 -381,-1251 z M 1251,12863 0,11612 -1251,12863 c 358,241 788,381 1251,381 463,0 893,-140 1251,-381 z"
       id="path16"
       inkscape:connector-curvature="0"
       style="fill:#ffffff" /><circle
       class="fil2"
       cy="11000"
       r="3898"
       id="circle18"
       cx="0"
       style="fill:none" /><circle
       class="fil2"
       cy="11000"
       r="3898"
       id="circle20"
       cx="0"
       style="fill:none" /><path
       class="fil3"
       d="m -2759,10842 -492,-73 11,-69 189,28 45,-309 -188,-28 10,-70 491,73 -10,70 -247,-37 -46,309 247,37 -10,69 z m 104,-585 -479,-131 18,-68 479,131 -18,68 z m -38,-607 103,-220 15,7 c 70,33 115,83 134,150 19,67 9,141 -30,223 -12,26 -25,48 -40,69 -15,20 -32,38 -49,53 -41,35 -85,55 -132,62 -46,7 -93,0 -138,-21 -37,-18 -68,-40 -92,-69 -23,-28 -40,-62 -49,-101 -8,-33 -10,-68 -5,-104 5,-37 17,-74 35,-113 24,-51 53,-92 86,-122 33,-30 71,-50 114,-60 l 11,70 c -36,6 -67,20 -94,42 -27,23 -50,53 -67,91 -29,61 -35,120 -18,175 17,55 54,96 111,122 54,26 107,27 160,4 52,-23 93,-65 121,-126 25,-53 32,-104 22,-152 -11,-49 -37,-85 -79,-110 l -72,152 -47,-22 z m 387,-175 -392,-305 43,-55 151,117 192,-247 -151,-117 44,-56 391,306 -43,55 -197,-153 -192,247 197,153 -43,55 z m 350,-418 -339,-363 51,-47 301,322 162,-152 39,41 -214,199 z m 243,-689 22,204 156,-103 -178,-101 z m -72,-109 507,284 -63,42 -148,-85 -192,126 20,169 -63,42 -61,-578 z m 564,261 -200,-476 551,199 -147,-348 62,-26 200,476 -549,-195 145,344 -62,26 z m 614,-271 44,-7 c 71,-11 120,-22 147,-31 27,-10 48,-22 65,-38 21,-20 36,-45 44,-73 8,-29 10,-60 4,-94 -5,-34 -16,-64 -32,-88 -17,-24 -38,-43 -65,-56 -20,-10 -45,-15 -74,-17 -29,-1 -78,4 -148,15 l -44,7 59,382 z m -61,65 -77,-490 112,-18 c 82,-12 141,-18 176,-16 35,2 66,9 94,21 37,17 66,40 89,72 22,31 37,68 44,112 7,44 4,84 -8,120 -12,37 -33,68 -63,95 -23,21 -50,37 -81,49 -31,12 -81,23 -150,34 l -25,4 -111,17 z m 543,-70 2,-497 310,1 0,55 -240,-2 -1,143 240,1 0,55 -240,-1 -1,190 240,1 0,55 -310,-1 z m 380,7 73,-492 136,21 c 39,5 68,11 85,18 18,6 33,15 45,26 16,14 27,31 33,52 7,20 9,42 5,65 -6,41 -23,69 -53,86 -30,17 -70,22 -122,14 l -12,-2 187,268 -88,-14 -177,-265 -10,-2 -35,235 -67,-10 z m 133,-432 -25,164 53,8 c 54,8 91,7 111,-2 21,-9 33,-28 37,-57 5,-32 -1,-55 -18,-70 -17,-16 -52,-27 -105,-35 l -53,-8 z m 1085,407 c -14,-36 -33,-66 -57,-90 -24,-25 -53,-45 -88,-62 -28,-13 -58,-21 -89,-24 -31,-3 -61,0 -89,8 -28,8 -53,21 -73,38 -21,17 -37,39 -50,66 -10,21 -16,41 -18,62 -2,20 0,41 5,61 9,36 26,68 51,96 25,29 55,51 91,68 34,16 68,25 103,27 35,1 70,-4 105,-16 l -34,71 c -34,4 -68,2 -102,-3 -34,-6 -68,-17 -100,-32 -28,-13 -54,-30 -78,-49 -23,-20 -43,-42 -60,-66 -28,-41 -45,-83 -50,-126 -5,-43 2,-84 21,-124 16,-34 37,-62 64,-84 27,-22 60,-38 99,-48 38,-10 76,-12 114,-8 38,5 77,16 116,35 30,14 58,32 83,53 26,22 48,47 69,77 l -33,70 z m 313,187 -180,100 155,104 25,-204 z m 73,-108 -67,578 -63,-43 22,-169 -190,-128 -149,83 -62,-42 509,-279 z m -23,636 301,-321 -121,-114 38,-41 294,275 -39,41 -121,-113 -301,322 -51,-49 z m 214,197 398,-297 186,248 -44,33 -143,-193 -114,85 143,193 -44,33 -143,-193 -153,114 144,193 -44,32 -186,-248 z m 249,320 435,-238 66,121 c 19,34 32,60 37,78 6,18 8,35 7,52 -2,21 -9,40 -21,58 -13,18 -29,32 -50,43 -35,20 -69,23 -100,10 -32,-14 -60,-43 -85,-89 l -6,-11 -100,311 -42,-78 104,-302 -5,-9 -207,114 -33,-60 z m 424,-155 -145,80 25,47 c 26,48 49,77 69,88 19,10 41,8 67,-6 28,-15 43,-34 45,-57 2,-23 -10,-58 -35,-105 l -26,-47 z m 244,646 -202,-36 54,179 148,-143 z m 125,-38 -416,406 -22,-72 123,-117 -67,-220 -168,-29 -22,-72 572,104 z m -401,441 511,-76 -330,484 373,-55 10,66 -510,75 325,-483 -369,55 -10,-66 z"
       id="path22"
       inkscape:connector-curvature="0"
       style="fill:#ffcc00;fill-rule:nonzero" /><path
       class="fil4"
       d="m -2349,12426 c -41,-64 -77,-86 -106,-66 l -194,126 c -34,22 -29,68 16,138 l 136,208 c 9,14 6,26 -8,35 -16,10 -28,9 -37,-5 l -141,-217 c -66,-101 -68,-173 -4,-214 l 195,-127 c 60,-39 122,-8 186,91 l 143,220 c 9,14 6,25 -8,35 -15,10 -27,7 -36,-6 l -142,-218 z m 260,797 c -48,46 -113,28 -194,-57 l -76,-78 c -83,-85 -100,-151 -51,-198 l 161,-156 c 13,-12 26,-11 40,4 15,15 16,28 3,41 l -161,156 c -23,22 -11,58 38,109 l 91,93 c 47,49 82,62 104,41 l 162,-158 c 13,-12 27,-10 42,6 14,15 15,28 3,40 l -162,157 z m 333,-104 c -14,17 -32,15 -54,-4 -21,-19 -24,-36 -10,-52 15,-17 33,-16 53,2 22,20 26,38 11,54 z m -254,271 c -12,14 -26,14 -42,0 -15,-13 -16,-27 -4,-41 l 182,-205 c 12,-14 26,-14 40,-2 16,15 18,29 6,43 l -182,205 z m 562,69 -209,-131 c -54,-34 -92,-34 -114,1 l -66,105 c -20,31 -4,64 49,96 l 123,78 c 59,37 98,40 118,8 l 99,-157 z m -50,196 c -36,57 -104,55 -204,-8 l -100,-63 c -97,-61 -129,-118 -95,-172 l 77,-123 c 38,-60 105,-60 203,2 l 197,123 43,-69 c 10,-16 24,-19 41,-8 18,11 22,25 12,41 l -174,277 z m 291,-182 c -10,20 -28,23 -54,10 -24,-13 -32,-29 -22,-48 10,-20 27,-24 52,-11 26,13 34,30 24,49 z m -176,327 c -9,17 -22,20 -41,11 -18,-9 -23,-22 -14,-39 l 123,-245 c 9,-16 21,-20 38,-11 20,10 25,23 17,39 l -123,245 z m 248,136 c -107,-41 -148,-93 -124,-156 l 51,-134 c 24,-63 85,-76 182,-40 l 216,83 c 19,7 25,18 19,34 -7,17 -19,22 -37,15 l -225,-86 c -52,-20 -84,-15 -96,15 l -50,132 c -12,33 11,61 72,84 l 213,81 c 16,6 21,18 14,35 -6,16 -17,20 -33,14 l -202,-77 z m 794,172 c -3,19 -15,26 -37,23 -21,-4 -30,-15 -27,-33 l 35,-208 c 6,-39 -25,-64 -95,-76 l -227,-37 -44,266 c -3,18 -15,26 -36,22 -21,-3 -30,-14 -26,-32 l 66,-399 c 3,-18 14,-26 35,-22 21,3 30,14 27,32 l -13,81 207,35 c 125,20 181,67 169,139 l -34,209 z m 363,-388 c 0,-1 -1,-2 -1,-3 l 0,-5 c 0,-8 3,-14 9,-18 5,-5 12,-7 20,-7 8,0 17,2 25,7 8,5 13,12 14,22 l 22,107 c 1,0 1,2 1,4 l 0,4 c 0,8 -3,14 -8,18 -6,4 -12,6 -20,6 -6,0 -13,-2 -20,-6 -6,-4 -11,-11 -13,-20 l -29,-109 z m 621,343 c 3,19 -7,29 -28,32 -21,3 -33,-4 -35,-23 l -32,-225 c -4,-28 -34,-38 -91,-30 l -156,21 c -57,8 -84,26 -80,55 l 31,225 c 3,18 -6,29 -27,32 -21,3 -32,-5 -35,-24 l -31,-225 c -9,-62 42,-101 152,-117 l 121,-16 c 111,-16 171,8 180,70 l 31,225 z m 378,-507 c -69,32 -96,63 -82,96 l 95,210 c 17,38 64,39 139,5 l 227,-102 c 15,-7 26,-2 33,13 8,17 4,29 -11,36 l -235,106 c -111,50 -181,41 -213,-28 l -96,-213 c -29,-64 11,-121 119,-170 l 239,-108 c 15,-6 26,-2 33,14 7,16 3,28 -12,34 l -236,107 z m 557,140 c 9,16 4,29 -14,40 -19,10 -33,7 -42,-9 l -197,-353 c -9,-16 -5,-29 14,-39 18,-11 32,-8 41,8 l 198,353 z m 340,-433 -235,168 c -40,29 -51,56 -33,81 l 27,39 c 17,24 47,20 90,-10 l 170,-121 c 41,-30 49,-63 23,-99 l -42,-58 z m 102,38 c 39,55 18,111 -62,168 l -150,107 c -85,61 -145,64 -183,11 l -27,-36 c -39,-55 -17,-112 66,-171 l 223,-159 c -23,-26 -54,-25 -92,3 l -62,44 c -13,9 -24,6 -34,-8 -10,-14 -9,-25 3,-34 l 55,-39 c 80,-57 140,-58 181,-1 l 82,115 z m 429,-345 c 13,13 13,27 -2,43 -14,15 -28,17 -42,4 l -165,-156 c -21,-20 -51,-9 -90,33 l -109,115 c -40,42 -49,73 -28,92 l 165,156 c 14,13 13,27 -1,42 -14,15 -28,17 -42,4 l -165,-156 c -46,-43 -31,-106 45,-186 l 84,-89 c 77,-82 139,-101 185,-58 l 165,156 z m 308,-471 c 16,10 18,24 7,42 -12,18 -25,22 -41,12 l -193,-121 c -24,-15 -51,2 -81,50 l -84,134 c -31,49 -34,81 -10,96 l 192,121 c 16,10 18,24 7,41 -11,18 -24,22 -40,12 l -193,-121 c -53,-33 -50,-97 9,-191 l 65,-104 c 59,-95 116,-126 169,-92 l 193,121 z"
       id="path24"
       inkscape:connector-curvature="0"
       style="fill:#ffffff;fill-rule:nonzero" /><g
       id="_911508176"><path
         class="fil5"
         d="m 92,9467 c 79,5 157,15 235,31 l 39,8 -116,532 -37,-5 c -51,-9 -102,-14 -153,-16 l -40,-2 33,-550 39,2 z m -151,2464 0,-718 -323,-559 382,-507 382,507 -323,559 0,718 c 36,-49 74,-97 112,-144 84,-102 175,-202 273,-292 69,-64 162,-142 250,-177 183,-73 322,-273 391,-450 53,-134 81,-289 57,-432 l -11,-68 64,24 c 164,62 269,-40 345,-179 l 38,-68 33,71 c 82,181 208,264 400,177 l 61,-27 -5,66 c -16,200 -93,349 -241,481 -49,44 -101,81 -150,123 -29,24 -66,58 -78,95 -2,9 -4,17 -4,26 0,6 1,11 3,17 9,34 48,73 72,98 36,39 72,80 82,134 l 9,43 -44,4 c -149,11 -315,36 -453,95 -83,35 -178,94 -209,184 -27,80 2,163 43,232 l 32,54 -63,5 c -139,12 -281,25 -418,53 -114,23 -226,58 -327,116 -121,71 -213,168 -288,286 l -33,52 -33,-52 c -75,-118 -167,-215 -288,-286 -101,-58 -213,-93 -327,-116 -137,-28 -279,-41 -418,-53 l -63,-5 32,-54 c 41,-69 70,-152 43,-232 -31,-90 -126,-149 -209,-184 -138,-59 -304,-84 -453,-95 l -44,-4 9,-43 c 10,-54 46,-95 82,-134 27,-28 75,-73 75,-115 0,-9 -2,-17 -4,-26 -12,-37 -49,-71 -78,-95 -49,-42 -101,-79 -150,-123 -148,-132 -225,-281 -241,-481 l -5,-66 61,27 c 192,87 318,4 400,-177 l 33,-71 38,68 c 76,139 181,241 345,179 l 64,-24 -11,68 c -24,143 4,298 57,432 69,177 208,377 391,450 88,35 181,113 250,177 98,90 189,190 273,292 38,47 76,95 112,144 z m 217,-1749 c 133,14 266,46 388,102 l 39,18 -182,315 -335,-445 90,10 z m 496,160 c 134,85 252,216 252,382 0,118 -59,219 -142,298 l -32,31 -303,-402 191,-331 34,22 z m 11,758 c -151,99 -342,151 -521,169 l -76,7 339,-588 293,389 -35,23 z m -809,169 c -179,-18 -370,-70 -521,-169 l -35,-23 293,-389 339,588 -76,-7 z m -620,-247 c -83,-79 -142,-180 -142,-298 0,-166 118,-297 252,-382 l 34,-22 191,331 -303,402 -32,-31 z m 218,-738 c 122,-56 255,-88 388,-102 l 90,-10 -335,445 -182,-315 39,-18 z M 619,9591 c 89,38 174,85 253,140 l 33,23 -288,418 -31,-17 c -57,-30 -117,-55 -178,-75 l -41,-14 216,-491 36,16 z m -1491,140 c 79,-55 164,-102 253,-140 l 36,-16 216,491 -41,14 c -61,20 -121,45 -178,75 l -31,17 -288,-418 33,-23 z m 545,-233 c 78,-16 156,-26 235,-31 l 39,-2 33,550 -40,2 c -51,2 -102,7 -153,16 l -37,5 -116,-532 39,-8 z"
         id="path27"
         inkscape:connector-curvature="0"
         style="fill:#000000" /></g><path
       class="fil6"
       d="m 90,9507 c 78,4 155,14 229,30 l -100,457 c -51,-9 -104,-14 -158,-16 l 29,-471 z m -70,2547 0,-852 315,-545 -335,-444 -335,444 315,545 0,852 c -198,-290 -504,-626 -689,-700 -295,-118 -531,-571 -472,-925 -161,61 -291,-9 -394,-197 -92,203 -242,292 -453,197 40,492 473,532 473,728 0,97 -138,158 -158,256 532,40 847,237 650,571 492,40 827,99 1063,473 236,-374 571,-433 1063,-473 -197,-334 118,-531 650,-571 -20,-98 -158,-159 -158,-256 0,-196 433,-236 473,-728 -211,95 -361,6 -453,-197 -103,188 -233,258 -394,197 59,354 -177,807 -472,925 -185,74 -491,410 -689,700 z m 134,-1833 c 140,14 268,49 375,98 l -130,227 -245,-325 z m 479,154 c 145,92 233,214 233,349 0,99 -47,192 -129,270 l -261,-346 157,-273 z m 11,692 c -129,84 -305,143 -504,163 l 272,-471 232,308 z m -784,163 c -199,-20 -375,-79 -504,-163 l 232,-308 272,471 z m -597,-236 c -82,-78 -129,-171 -129,-270 0,-135 88,-257 233,-349 l 157,273 -261,346 z m 208,-675 c 107,-49 235,-84 375,-98 l -245,325 -130,-227 z M 603,9627 c 88,38 171,84 247,137 l -246,357 c -57,-31 -118,-57 -183,-79 l 182,-415 z m -1453,137 c 76,-53 159,-99 247,-137 l 182,415 c -65,22 -126,48 -183,79 l -246,-357 z m 531,-227 c 74,-16 151,-26 229,-30 l 29,471 c -54,2 -107,7 -158,16 l -100,-457 z"
       id="path29"
       inkscape:connector-curvature="0"
       style="fill:#ffcc00" /></g></svg>