<?xml version="1.0" encoding="UTF-8" standalone="no"?>
<!-- Creator: CorelDRAW X7 -->

<svg
   xmlns:dc="http://purl.org/dc/elements/1.1/"
   xmlns:cc="http://creativecommons.org/ns#"
   xmlns:rdf="http://www.w3.org/1999/02/22-rdf-syntax-ns#"
   xmlns:svg="http://www.w3.org/2000/svg"
   xmlns="http://www.w3.org/2000/svg"
   xmlns:sodipodi="http://sodipodi.sourceforge.net/DTD/sodipodi-0.dtd"
   xmlns:inkscape="http://www.inkscape.org/namespaces/inkscape"
   xml:space="preserve"
   width="7.8740005in"
   height="7.8740005in"
   version="1.1"
   style="clip-rule:evenodd;fill-rule:evenodd;image-rendering:optimizeQuality;shape-rendering:geometricPrecision;text-rendering:geometricPrecision"
   viewBox="0 0 7874.0005 7874.0005"
   id="svg4622"
   inkscape:version="0.91 r13725"
   sodipodi:docname="Ariadna - Zouaves - [N3] [Vyo].svg"><metadata
     id="metadata4646"><rdf:RDF><cc:Work
         rdf:about=""><dc:format>image/svg+xml</dc:format><dc:type
           rdf:resource="http://purl.org/dc/dcmitype/StillImage" /></cc:Work></rdf:RDF></metadata><sodipodi:namedview
     pagecolor="#ffffff"
     bordercolor="#666666"
     borderopacity="1"
     objecttolerance="10"
     gridtolerance="10"
     guidetolerance="10"
     inkscape:pageopacity="0"
     inkscape:pageshadow="2"
     inkscape:window-width="640"
     inkscape:window-height="480"
     id="namedview4644"
     showgrid="false"
     inkscape:zoom="0.23838384"
     inkscape:cx="736.83001"
     inkscape:cy="849.33005"
     inkscape:window-x="0"
     inkscape:window-y="0"
     inkscape:window-maximized="0"
     inkscape:current-layer="svg4622" /><defs
     id="defs4624"><style
       type="text/css"
       id="style4626"><![CDATA[
    .fil3 {fill:none}
    .fil1 {fill:black}
    .fil0 {fill:#E32527}
    .fil2 {fill:white;fill-rule:nonzero}
   ]]></style></defs><g
     id="Layer_x0020_1"
     transform="translate(3937,-7063)"><metadata
       id="CorelCorpID_0Corel-Layer" /><circle
       class="fil0"
       cy="11000"
       r="3937"
       id="circle4630"
       cx="0"
       style="fill:#e32527" /><circle
       class="fil1"
       cy="11000"
       r="3858"
       id="circle4632"
       cx="0"
       style="fill:#000000" /><path
       class="fil0"
       d="m 0,8402 c 476,0 922,128 1306,351 -637,672 -952,1538 -952,2326 0,67 3,132 7,197 l -163,0 L 123,9767 503,9971 0,8402 Z m 1306,351 c 773,451 1292,1288 1292,2247 0,728 -299,1386 -781,1858 -430,-421 -990,-1527 -990,-2409 0,-98 0,-236 28,-288 l 445,240 c -434,-661 -158,-1330 6,-1648 z m -1,4494 c -298,174 -634,290 -993,333 l -96,-1950 194,0 c 145,711 551,1237 895,1617 z m -1617,333 c -359,-43 -695,-159 -993,-333 344,-380 750,-906 895,-1617 l 194,0 -96,1950 z m -1505,-722 c -482,-472 -781,-1130 -781,-1858 0,-959 519,-1796 1292,-2247 164,318 440,987 6,1648 l 445,-240 c 28,52 28,190 28,288 0,882 -560,1988 -990,2409 z m 511,-4105 C -922,8530 -476,8402 0,8402 l -503,1569 380,-204 -75,1509 -163,0 c 4,-65 7,-130 7,-197 0,-788 -315,-1654 -952,-2326 z"
       id="path4634"
       inkscape:connector-curvature="0"
       style="fill:#e32527" /><path
       class="fil2"
       d="m -3032,10092 c -19,-5 -34,14 -46,58 l -3,11 c -13,44 -9,69 9,74 l 123,34 c 17,5 33,-14 45,-58 l 3,-12 c 12,-43 9,-68 -9,-73 l -122,-34 z m -41,-168 c 5,-19 17,-26 35,-21 17,5 23,17 18,36 l -5,18 c -12,43 -9,67 10,73 l 35,9 23,-82 c 6,-19 17,-26 35,-21 18,5 25,17 19,36 l -22,82 34,9 c 17,5 32,-13 43,-53 l 6,-21 c 5,-19 17,-26 34,-21 18,5 25,17 20,36 l -8,28 c -11,40 -30,66 -56,78 16,25 18,59 6,100 l -5,20 c -24,84 -62,119 -115,105 l -126,-36 c -53,-14 -68,-64 -45,-147 l 6,-20 c 12,-45 31,-73 56,-87 -15,-24 -16,-56 -5,-97 l 7,-24 z m 99,-167 c 18,7 23,22 13,47 -9,24 -22,32 -40,25 -18,-6 -22,-22 -13,-46 10,-24 23,-33 40,-26 z m 225,93 c 18,6 23,20 15,40 -7,19 -20,26 -38,19 l -146,-56 c -17,-7 -22,-19 -15,-39 8,-20 21,-27 38,-20 l 146,56 z m 58,-127 c 17,8 21,21 12,40 -9,20 -22,26 -39,18 l -221,-102 c -17,-7 -21,-21 -12,-40 9,-19 22,-25 39,-17 l 221,101 z m 137,-499 c -11,-7 -25,4 -44,33 l -47,74 c -18,27 -21,45 -10,52 l 86,55 80,-125 c 14,-22 16,-37 5,-44 l -70,-45 z m 105,-9 c 42,27 42,71 2,134 l -76,119 30,19 c 16,10 18,24 6,42 -11,18 -25,22 -41,12 l -164,-106 c -40,-26 -39,-72 3,-137 l 42,-65 c 44,-69 86,-90 125,-65 l 73,47 z m 156,-315 c -10,-8 -25,-2 -44,20 l -61,69 c -21,24 -26,41 -15,51 l 59,52 c 10,9 26,2 48,-23 l 61,-68 c 19,-22 23,-38 13,-47 l -61,-54 z m 104,6 c 38,33 31,78 -20,136 l -53,60 c -52,59 -96,71 -134,38 l -60,-53 c -38,-33 -31,-80 22,-139 l 52,-60 c 51,-57 95,-69 133,-35 l 60,53 z m 303,-274 c 32,36 17,81 -45,135 l -52,45 c -62,55 -109,65 -140,29 l -90,-102 c -12,-14 -11,-28 5,-42 16,-14 31,-14 43,0 l 87,99 c 9,11 27,4 54,-20 l 62,-54 c 26,-23 35,-40 26,-50 l -88,-99 c -12,-14 -10,-28 7,-43 15,-14 29,-14 42,0 l 89,102 z m 101,-202 c -24,17 -32,31 -25,42 l 75,107 c 11,15 8,29 -10,42 -18,12 -32,10 -43,-5 l -75,-107 c -28,-41 -11,-83 51,-126 l 14,-10 c 15,-11 28,-9 39,6 10,15 8,28 -5,37 l -21,14 z m 483,-241 101,-46 -7,-15 c -5,-11 -18,-11 -40,-1 l -31,14 c -25,11 -35,22 -30,34 l 7,14 z m -65,12 c -5,-11 -19,-11 -44,0 l -25,12 c -28,12 -39,25 -33,39 l 33,73 c 6,12 22,12 49,0 l 18,-8 c 30,-14 42,-27 37,-39 l -35,-77 z m 235,-57 c 7,16 3,28 -14,35 l -133,61 5,12 c 6,12 25,10 59,-5 l 30,-13 c 18,-8 31,-4 38,13 8,16 2,28 -15,37 l -20,9 c -42,18 -75,24 -99,18 -10,22 -35,42 -74,60 -73,32 -119,26 -140,-20 l -33,-73 c -21,-46 6,-86 81,-120 37,-17 67,-22 89,-15 11,-22 38,-43 80,-62 l 1,0 c 65,-29 106,-23 124,18 l 21,45 z m 100,-197 c 6,18 -4,31 -28,40 -25,8 -40,3 -46,-15 -6,-18 3,-31 28,-39 25,-8 40,-4 46,14 z m 71,233 c 6,17 -1,30 -22,37 -20,6 -33,1 -39,-17 l -49,-149 c -6,-17 1,-29 20,-36 21,-7 34,-1 40,16 l 50,149 z m 132,-42 c 5,18 -3,30 -23,36 -20,6 -33,0 -39,-18 l -67,-234 c -6,-18 2,-30 22,-35 21,-6 34,0 39,18 l 68,233 z m 120,9 c 0,8 -3,14 -8,18 -4,4 -9,7 -14,8 -6,2 -11,1 -17,-2 -5,-3 -9,-7 -10,-13 l 0,-1 c 0,-1 0,-2 0,-2 l -3,-68 c 0,-4 1,-7 2,-10 1,-3 3,-6 5,-9 3,-2 5,-5 8,-6 4,-2 7,-3 10,-4 7,-1 13,-1 18,1 6,3 9,7 11,14 0,1 0,2 0,3 0,1 0,2 0,4 l -2,67 z m 448,-270 -142,19 c -32,5 -47,15 -45,32 l 10,73 c 2,15 19,21 50,17 l 90,-13 c 35,-5 52,-15 50,-30 l -13,-98 z m 77,95 c 6,47 -31,77 -113,88 l -73,10 c -80,11 -124,-6 -130,-51 l -12,-87 c -7,-50 30,-80 110,-91 l 133,-18 -5,-38 c -3,-18 7,-29 27,-32 22,-3 34,5 36,24 l 27,195 z m 157,-66 190,3 0,-20 c 1,-11 -11,-16 -33,-17 l -107,-1 c -33,-1 -49,5 -50,17 l 0,18 z m 252,22 c 0,19 -10,28 -29,28 l -224,-3 0,22 c 0,12 16,17 49,18 l 44,1 c 19,0 29,9 28,27 0,18 -10,27 -29,27 l -33,0 c -83,-2 -123,-27 -123,-78 l 2,-80 c 0,-50 41,-75 123,-74 l 90,2 c 69,1 104,24 103,68 l -1,42 z m 390,154 c -3,18 -15,26 -36,22 -21,-3 -30,-14 -27,-33 l 21,-129 c 3,-13 -10,-21 -38,-26 l -98,-17 c -28,-4 -44,0 -46,13 l -22,129 c -3,18 -15,26 -35,22 -21,-3 -30,-14 -27,-33 l 22,-134 c 8,-46 50,-62 128,-49 l 76,13 c 77,13 112,42 105,87 l -23,135 z m 198,-107 -42,145 c -6,18 -19,24 -39,18 -20,-6 -28,-18 -22,-36 l 42,-145 -7,-2 c -19,-5 -25,-17 -20,-34 5,-18 17,-24 36,-18 l 7,2 10,-37 c 6,-17 19,-23 39,-17 20,6 28,18 23,36 l -11,36 65,19 c 18,6 24,17 19,35 -5,17 -17,23 -35,18 l -65,-20 z m 531,218 c 6,-12 -7,-25 -38,-39 l -80,-37 c -30,-13 -48,-14 -53,-2 l -43,93 135,62 c 24,11 39,10 45,-2 l 34,-75 z m 24,102 c -21,45 -65,52 -132,21 l -129,-59 -15,33 c -7,17 -21,21 -40,12 -20,-9 -25,-22 -17,-39 l 81,-177 c 20,-44 66,-49 137,-16 l 69,31 c 75,35 102,73 82,116 l -36,78 z m 336,103 c 7,-11 -2,-25 -27,-40 l -77,-50 c -27,-17 -45,-20 -53,-7 l -42,66 c -8,12 2,26 30,44 l 77,50 c 24,15 40,17 48,5 l 44,-68 z m 10,104 c -27,42 -73,43 -137,1 l -68,-43 c -66,-43 -85,-85 -58,-127 l 43,-67 c 28,-43 75,-43 141,0 l 67,42 c 64,42 83,84 55,127 l -43,67 z m 319,257 c -32,36 -78,27 -141,-26 l -52,-45 c -62,-54 -78,-99 -47,-136 l 88,-102 c 13,-14 27,-15 43,-1 16,14 18,28 6,42 l -87,100 c -9,11 1,28 28,51 l 62,53 c 26,23 44,30 53,20 l 86,-101 c 12,-14 26,-13 43,1 16,14 18,27 6,41 l -88,103 z m 218,66 c -21,-22 -36,-28 -45,-19 l -95,90 c -14,12 -28,11 -43,-4 -15,-16 -15,-30 -1,-43 l 94,-90 c 37,-34 81,-24 132,31 l 13,13 c 12,14 12,27 -1,39 -13,13 -26,13 -37,1 l -17,-18 z m 344,424 -83,-116 c -19,-27 -35,-35 -49,-26 l -60,43 c -13,9 -10,26 8,52 l 53,74 c 21,29 38,39 50,31 l 81,-58 z m -48,112 c -39,28 -83,9 -131,-59 l -43,-60 c -47,-66 -52,-112 -14,-138 l 71,-51 c 41,-29 84,-11 131,55 l 78,109 31,-22 c 15,-11 29,-8 41,9 13,18 11,32 -4,43 l -160,114 z m 139,100 90,168 17,-9 c 10,-5 9,-18 -1,-37 l -51,-95 c -15,-29 -28,-41 -39,-35 l -16,8 z m 103,232 c -17,9 -30,5 -39,-13 l -105,-197 -20,11 c -10,5 -7,22 9,52 l 20,38 c 9,17 6,30 -10,38 -16,9 -29,5 -38,-12 l -16,-30 c -39,-72 -36,-121 9,-144 l 71,-38 c 44,-24 85,0 124,72 l 42,80 c 33,61 29,102 -10,123 l -37,20 z m 55,415 c -17,6 -30,-1 -36,-22 -7,-20 -1,-33 17,-39 l 125,-40 c 12,-4 13,-20 5,-46 l -31,-95 c -9,-27 -19,-39 -31,-35 l -125,40 c -18,6 -30,-1 -37,-21 -6,-21 -1,-34 17,-40 l 130,-41 c 44,-14 78,16 102,91 l 23,73 c 25,75 15,119 -28,133 l -131,42 z m 191,119 -146,34 c -19,4 -30,-4 -35,-25 -5,-20 2,-33 20,-37 l 147,-34 -2,-7 c -4,-19 3,-31 21,-35 17,-4 28,4 32,23 l 2,7 37,-9 c 18,-4 30,4 35,25 4,21 -2,33 -20,37 l -38,9 16,66 c 4,18 -3,30 -21,34 -17,4 -28,-3 -33,-22 l -15,-66 z"
       id="path4636"
       inkscape:connector-curvature="0"
       style="fill:#ffffff;fill-rule:nonzero" /><circle
       class="fil3"
       cy="11000"
       r="3543"
       id="circle4638"
       cx="0"
       style="fill:none" /><circle
       class="fil3"
       cy="11000"
       r="3543"
       id="circle4640"
       cx="0"
       style="fill:none" /><path
       class="fil2"
       d="m -3348,10906 389,166 -3,-145 62,-2 5,231 -386,-164 4,175 -65,1 -6,-262 z m 261,574 c 23,-3 44,-9 63,-18 19,-9 36,-20 50,-34 14,-13 24,-28 31,-44 6,-17 8,-33 6,-50 -2,-16 -8,-32 -18,-46 -11,-14 -24,-26 -42,-35 -17,-10 -36,-17 -57,-20 -21,-4 -42,-4 -65,-1 -22,3 -43,8 -62,17 -19,9 -36,20 -50,34 -15,14 -25,29 -31,45 -6,16 -8,33 -6,49 2,17 8,32 18,46 10,14 24,26 42,36 17,9 36,16 57,20 21,3 42,4 64,1 z m 8,57 c -32,4 -62,4 -91,-2 -29,-5 -56,-15 -80,-30 -25,-14 -44,-32 -59,-52 -14,-21 -23,-43 -26,-67 -3,-24 -1,-48 8,-72 9,-24 24,-46 43,-65 20,-21 43,-37 70,-50 26,-12 56,-21 88,-25 31,-4 62,-3 91,2 29,5 56,15 80,30 25,14 44,32 58,52 15,21 23,43 27,68 3,24 0,48 -9,71 -8,24 -22,46 -42,66 -20,20 -44,36 -71,49 -27,13 -56,21 -87,25 z m 225,-10 13,54 -265,61 c -39,9 -67,23 -83,41 -17,18 -22,42 -15,69 6,28 20,46 43,55 23,10 55,10 94,1 l 264,-61 13,54 -271,63 c -59,13 -106,12 -140,-4 -35,-16 -57,-47 -68,-93 -11,-46 -4,-84 20,-113 24,-29 65,-51 124,-64 l 271,-63 z m -161,453 30,91 85,-66 c 6,-4 12,-8 20,-13 7,-4 15,-10 24,-15 -10,1 -19,2 -27,3 -9,1 -17,1 -25,1 l -107,-1 z m -118,202 96,-74 -42,-128 -122,-2 -18,-55 493,11 -389,303 -18,-55 z m 59,183 360,-331 24,53 -186,168 c -10,10 -20,19 -30,26 -9,8 -19,14 -27,20 11,-3 22,-5 34,-7 13,-2 25,-4 39,-5 l 248,-29 24,53 -486,52 z m 94,163 388,-222 95,166 -54,31 -67,-118 -97,56 67,117 -55,32 -67,-118 -126,72 67,118 -56,32 -95,-166 z m 192,156 47,23 c -15,14 -23,29 -26,44 -3,15 0,30 10,45 9,14 21,21 36,23 16,2 32,-3 49,-14 22,-14 33,-41 32,-80 0,-5 0,-10 0,-12 -1,-45 4,-78 14,-99 9,-21 26,-39 49,-55 31,-19 61,-27 90,-24 29,4 52,19 69,45 14,21 20,42 18,63 -1,22 -10,41 -27,60 l -48,-21 c 8,-13 13,-25 14,-36 1,-10 -2,-20 -7,-29 -8,-12 -19,-20 -32,-21 -14,-2 -28,1 -42,11 -23,14 -33,44 -32,89 0,4 0,6 1,8 1,40 -3,70 -13,91 -9,21 -26,40 -51,56 -35,22 -69,32 -101,28 -32,-3 -58,-20 -77,-49 -15,-25 -21,-50 -16,-75 4,-25 19,-49 43,-71 z m 158,259 8,50 -168,45 -5,-33 165,-62 z m 319,110 7,7 c 20,21 37,32 50,33 13,1 28,-6 45,-22 17,-17 26,-33 27,-47 0,-15 -10,-32 -29,-53 l -7,-7 -93,89 z m -43,36 -144,139 -37,-38 323,-309 54,56 c 16,16 26,30 32,42 6,12 9,24 9,37 -1,15 -5,30 -13,46 -9,16 -20,31 -35,45 -26,25 -51,40 -75,44 -23,5 -46,-1 -66,-17 l -66,226 -43,-46 65,-220 -4,-5 z m 6,294 308,-324 138,132 -42,45 -99,-94 -77,81 99,94 -44,46 -99,-94 -99,105 98,93 -45,48 -138,-132 z m 384,-312 89,-30 38,37 -106,13 -21,-20 z m 93,423 107,83 c -2,3 -5,6 -8,11 -8,11 -14,19 -17,23 -39,49 -80,79 -123,90 -44,10 -85,0 -124,-31 -22,-18 -39,-37 -49,-59 -11,-23 -16,-47 -16,-75 1,-26 7,-54 18,-82 11,-29 27,-56 47,-82 21,-26 44,-48 68,-65 25,-17 51,-29 78,-35 26,-7 52,-7 76,-2 25,5 47,15 67,31 21,17 36,37 45,60 9,23 12,50 9,81 l -57,7 c 2,-21 -1,-40 -7,-55 -6,-16 -16,-29 -30,-40 -29,-23 -63,-30 -100,-20 -38,10 -72,34 -103,73 -31,40 -47,80 -48,119 -1,39 14,70 43,93 25,20 51,28 77,24 26,-4 50,-19 70,-45 l 4,-5 -65,-51 38,-48 z m 19,293 240,-377 47,30 -240,377 -47,-30 z m 459,11 c 1,-4 5,-13 11,-27 4,-12 8,-22 11,-30 -6,8 -12,16 -19,24 -7,8 -14,16 -23,23 l -188,172 31,-257 c 1,-11 3,-21 4,-31 2,-9 4,-19 7,-28 -5,9 -10,17 -15,26 -6,9 -12,17 -19,26 l -133,180 -45,-24 283,-378 -38,298 c 0,4 -2,12 -3,23 -2,10 -5,23 -8,39 9,-10 21,-22 36,-36 4,-4 8,-7 10,-9 l 216,-206 -138,452 -46,-23 66,-214 z m 20,258 162,-417 178,70 -22,58 -127,-50 -40,104 126,50 -23,59 -126,-49 -53,134 126,50 -23,60 -178,-69 z m 235,100 125,-447 136,322 c 4,9 7,18 11,29 3,10 7,21 10,33 l 84,-298 49,14 -125,447 -139,-328 c -3,-9 -7,-18 -10,-28 -3,-9 -6,-19 -8,-29 l -84,299 -49,-14 z m 565,-249 -86,375 -54,-13 86,-375 -89,-20 14,-61 231,54 -14,60 -88,-20 z m 175,328 47,-23 c 2,20 9,36 19,47 11,11 25,17 42,19 17,1 30,-4 41,-15 11,-11 17,-27 18,-47 2,-26 -13,-51 -45,-74 -4,-3 -7,-6 -10,-7 -36,-27 -59,-51 -70,-71 -11,-20 -16,-45 -14,-73 3,-36 15,-65 36,-86 20,-21 46,-30 76,-28 26,2 46,10 62,24 16,14 27,33 31,57 l -45,26 c -6,-14 -13,-25 -20,-32 -8,-7 -17,-11 -28,-12 -15,-1 -27,3 -37,12 -9,10 -15,23 -16,40 -2,27 15,53 52,79 3,3 5,4 7,5 32,23 54,45 65,65 11,20 16,45 13,74 -3,42 -16,75 -38,98 -22,24 -51,34 -85,31 -29,-2 -53,-12 -70,-31 -17,-19 -27,-45 -31,-78 z m 337,-151 14,1 c 31,0 52,-4 62,-12 11,-9 16,-24 17,-46 0,-24 -5,-41 -16,-51 -10,-10 -31,-15 -60,-16 l -14,0 -3,124 z m -5,60 -4,200 -52,-1 9,-447 85,2 c 25,1 43,3 55,7 11,3 22,10 30,18 11,10 19,25 24,42 6,18 9,38 8,59 0,21 -4,40 -10,58 -7,18 -15,32 -26,42 -9,8 -20,13 -32,16 -11,3 -30,5 -55,4 l -11,0 -21,0 z m 199,201 -34,-446 190,-14 5,62 -135,10 8,111 135,-10 5,64 -135,10 11,144 135,-10 5,64 -190,15 z m 25,-494 39,-86 52,-4 -62,88 -29,2 z m 442,97 c -19,-14 -37,-24 -56,-30 -19,-6 -38,-7 -57,-3 -37,6 -64,27 -82,62 -18,35 -22,77 -13,126 8,47 26,84 54,111 28,27 59,38 93,32 20,-4 38,-12 55,-24 16,-13 31,-29 44,-51 l 14,81 c -12,16 -26,29 -42,39 -16,10 -35,17 -55,20 -26,5 -50,4 -74,-4 -24,-7 -46,-20 -66,-38 -21,-18 -38,-41 -51,-68 -14,-27 -24,-57 -30,-89 -5,-32 -6,-63 -2,-93 4,-30 12,-57 25,-81 13,-25 29,-45 49,-60 20,-15 42,-24 67,-29 20,-3 40,-3 59,2 19,4 38,12 58,25 l 10,72 z m 127,318 -101,-435 54,-13 101,436 -54,12 z m 153,-220 92,-26 -62,-89 c -4,-5 -8,-12 -12,-19 -5,-8 -10,-16 -14,-26 0,10 1,19 1,28 1,9 1,17 1,24 l -6,108 z m 196,127 -69,-100 -130,37 -7,121 -56,17 32,-493 287,401 -57,17 z m 85,-33 -164,-416 51,-20 141,355 116,-46 24,60 -168,67 z m 357,-229 40,-24 c 23,-12 38,-24 47,-34 9,-10 15,-23 18,-36 4,-19 4,-40 -1,-62 -5,-22 -15,-45 -29,-70 -14,-24 -29,-44 -46,-60 -16,-15 -33,-26 -52,-32 -13,-5 -27,-5 -41,-3 -14,3 -33,12 -58,26 l -18,10 -17,10 157,275 z m -16,84 -222,-388 65,-37 c 43,-24 74,-38 95,-43 20,-4 40,-3 61,2 27,7 53,22 77,44 24,22 46,50 66,84 19,35 32,68 39,99 6,32 5,61 -2,89 -5,20 -15,38 -28,53 -14,15 -38,33 -73,53 l -13,7 -65,37 z m 52,-538 32,-20 92,143 -32,20 -92,-143 z m 320,315 -259,-364 45,-32 259,364 -45,32 z m 111,-77 -286,-367 340,82 c 9,2 19,5 29,8 10,3 22,7 34,12 l -191,-245 40,-31 286,366 -346,-83 c -9,-2 -19,-5 -28,-8 -10,-3 -19,-7 -29,-11 l 191,245 -40,32 z m 109,-601 267,278 -41,38 -266,-278 -66,63 -42,-45 171,-164 43,45 -66,63 z m 380,159 -338,-292 125,-145 47,41 -89,102 85,73 89,-102 48,42 -89,102 109,95 89,-103 49,43 -125,144 z m -10,-387 6,-8 c 17,-24 25,-42 23,-55 -2,-14 -12,-27 -30,-40 -20,-14 -37,-20 -52,-17 -14,2 -29,15 -45,38 l -6,8 104,74 z m 44,36 163,116 -30,42 -364,-259 45,-63 c 13,-18 25,-32 35,-40 10,-8 22,-13 34,-15 15,-2 31,-1 49,4 17,6 34,14 50,26 30,20 49,42 57,65 9,22 8,45 -4,69 l 234,21 -36,51 -229,-22 -4,5 z m 360,-144 -474,-121 31,-49 243,64 c 14,3 26,7 38,11 11,4 22,8 32,12 -9,-8 -17,-16 -25,-25 -9,-9 -17,-19 -26,-29 l -159,-193 31,-49 309,379 z m 79,-172 -397,-205 87,-170 55,29 -62,120 100,52 62,-121 56,29 -62,121 129,66 62,-121 57,30 -87,170 z m 115,-227 -432,-169 333,-104 c 10,-3 19,-5 30,-8 10,-2 22,-4 34,-7 l -288,-113 18,-47 433,169 -340,105 c -9,3 -19,5 -28,8 -10,2 -20,3 -31,5 l 290,113 -19,48 z m -206,-573 370,105 -15,54 -370,-106 -25,87 -60,-17 65,-228 60,17 -25,88 z m 403,-25 -435,-100 12,-54 435,100 -12,54 z m -149,-451 c -23,-3 -45,-2 -66,1 -20,4 -40,10 -57,20 -17,10 -31,21 -41,35 -10,14 -17,30 -19,46 -2,17 0,33 7,50 6,16 16,31 30,45 14,13 31,25 50,33 20,9 41,15 63,18 23,3 44,3 65,-1 21,-4 40,-10 57,-20 17,-10 31,-21 41,-35 10,-14 17,-30 19,-47 2,-16 0,-32 -6,-48 -7,-16 -17,-31 -31,-45 -14,-14 -31,-25 -50,-34 -20,-9 -40,-15 -62,-18 z m 7,-57 c 32,4 61,12 87,25 27,12 51,29 70,49 20,20 34,42 43,66 9,23 12,47 9,71 -3,25 -12,47 -27,68 -15,20 -34,38 -58,52 -24,15 -51,24 -80,30 -29,5 -59,6 -91,2 -32,-5 -61,-13 -88,-26 -27,-12 -50,-29 -70,-49 -20,-20 -34,-42 -43,-65 -8,-24 -11,-48 -8,-72 3,-25 12,-47 26,-68 15,-20 34,-37 58,-52 25,-14 52,-24 81,-30 29,-5 60,-6 91,-1 z m 225,-36 -465,-10 278,-212 c 8,-5 16,-11 25,-17 9,-6 19,-12 30,-19 l -309,-6 1,-52 464,11 -283,215 c -8,6 -16,12 -24,17 -9,5 -18,10 -27,15 l 311,7 -1,51 z"
       id="path4642"
       inkscape:connector-curvature="0"
       style="fill:#ffffff;fill-rule:nonzero" /></g></svg>