<?xml version="1.0" encoding="UTF-8" standalone="no"?>
<!-- Creator: CorelDRAW X7 -->

<svg
   xmlns:dc="http://purl.org/dc/elements/1.1/"
   xmlns:cc="http://creativecommons.org/ns#"
   xmlns:rdf="http://www.w3.org/1999/02/22-rdf-syntax-ns#"
   xmlns:svg="http://www.w3.org/2000/svg"
   xmlns="http://www.w3.org/2000/svg"
   xmlns:sodipodi="http://sodipodi.sourceforge.net/DTD/sodipodi-0.dtd"
   xmlns:inkscape="http://www.inkscape.org/namespaces/inkscape"
   xml:space="preserve"
   width="7.8740005in"
   height="7.8740005in"
   version="1.1"
   style="clip-rule:evenodd;fill-rule:evenodd;image-rendering:optimizeQuality;shape-rendering:geometricPrecision;text-rendering:geometricPrecision"
   viewBox="0 0 7874.0005 7874.0005"
   id="svg4789"
   inkscape:version="0.91 r13725"
   sodipodi:docname="Ariadna - Van Zant - [N3] [Vyo].svg"><metadata
     id="metadata4827"><rdf:RDF><cc:Work
         rdf:about=""><dc:format>image/svg+xml</dc:format><dc:type
           rdf:resource="http://purl.org/dc/dcmitype/StillImage" /></cc:Work></rdf:RDF></metadata><sodipodi:namedview
     pagecolor="#ffffff"
     bordercolor="#666666"
     borderopacity="1"
     objecttolerance="10"
     gridtolerance="10"
     guidetolerance="10"
     inkscape:pageopacity="0"
     inkscape:pageshadow="2"
     inkscape:window-width="640"
     inkscape:window-height="480"
     id="namedview4825"
     showgrid="false"
     inkscape:zoom="0.23838384"
     inkscape:cx="736.83001"
     inkscape:cy="849.69005"
     inkscape:window-x="0"
     inkscape:window-y="0"
     inkscape:window-maximized="0"
     inkscape:current-layer="svg4789" /><defs
     id="defs4791"><style
       type="text/css"
       id="style4793"><![CDATA[
    .fil1 {fill:black}
    .fil0 {fill:#FFD600}
    .fil2 {fill:white}
    .fil3 {fill:#FFD600;fill-rule:nonzero}
    .fil4 {fill:white;fill-rule:nonzero}
   ]]></style></defs><g
     id="Layer_x0020_1"
     transform="translate(3937,-7067)"><metadata
       id="CorelCorpID_0Corel-Layer" /><circle
       class="fil0"
       cy="11004"
       r="3937"
       id="circle4797"
       cx="0"
       style="fill:#ffd600" /><circle
       class="fil1"
       cy="11004"
       r="3780"
       id="circle4799"
       cx="0"
       style="fill:#000000" /><circle
       class="fil2"
       cy="11004"
       r="3406"
       id="circle4801"
       cx="0"
       style="fill:#ffffff" /><circle
       class="fil1"
       cy="11004"
       r="3248"
       id="circle4803"
       cx="0"
       style="fill:#000000" /><path
       class="fil3"
       d="m -1570,8777 108,-52 c 7,-3 14,-1 20,8 l 151,316 c 27,57 64,82 112,75 12,-3 23,-6 32,-11 l 3,-1 53,112 c -111,52 -203,46 -275,-20 -23,-21 -42,-48 -58,-82 l -154,-326 c -2,-10 1,-16 8,-19 z m 339,-161 107,-51 c 8,-4 14,-1 21,7 l 143,302 c 33,68 43,125 31,171 -7,43 -33,85 -78,126 -25,19 -46,34 -65,43 l -53,-112 c 19,-9 35,-27 46,-54 10,-29 4,-65 -16,-107 l -144,-305 c -2,-10 1,-17 8,-20 z m 603,-169 4,0 20,111 -1,0 c -48,9 -73,27 -75,55 0,6 1,10 1,12 4,24 25,37 61,41 22,2 34,3 34,4 l 23,129 c -60,-1 -107,-5 -141,-12 l -34,-12 c -49,-22 -77,-59 -86,-109 l -4,-18 c -11,-64 16,-117 82,-160 35,-19 73,-33 116,-41 z m 25,-4 5,-1 c 108,-20 184,1 227,63 14,20 22,36 24,48 -2,8 -6,13 -13,14 -14,5 -44,12 -88,20 -29,5 -43,5 -44,0 l -24,-23 c -21,-11 -43,-14 -67,-10 l -20,-111 z m 41,227 1,0 c 66,1 116,5 152,13 71,19 113,60 124,125 l 4,18 c 8,45 -4,88 -35,128 -39,44 -99,73 -179,88 l -21,-116 c 42,-8 71,-23 85,-46 4,-13 5,-23 3,-31 -6,-33 -43,-49 -110,-48 l -24,-131 z m -137,220 c 29,-5 44,-4 45,3 17,22 36,34 57,37 23,3 43,3 60,0 l 21,115 -5,1 c -113,21 -197,-1 -251,-66 -18,-24 -28,-41 -30,-52 l 0,-3 c -2,-9 7,-15 28,-19 36,-8 61,-13 75,-16 z m 741,-512 118,-2 c -49,170 -83,284 -102,342 l 2,2 c -23,78 -37,125 -43,139 -25,77 -39,119 -42,125 -4,3 -8,5 -11,5 l -123,2 c -10,-2 -14,-6 -15,-13 l 0,-2 c 8,-25 59,-176 154,-454 l 47,-136 c 0,-3 5,-5 15,-8 z m 141,-2 c 10,-1 19,12 26,38 134,353 204,537 208,552 l 0,2 c -2,9 -7,13 -14,13 l -122,2 c -10,1 -18,-12 -23,-36 -2,-4 -16,-40 -41,-110 l -171,2 c 17,-57 29,-97 35,-121 l 97,-1 -52,-150 c 36,-125 55,-189 57,-191 z m 466,42 133,33 -143,578 c -2,7 -10,10 -23,9 l -112,-28 c -10,-5 -15,-11 -13,-18 l 141,-565 c 4,-8 9,-11 17,-9 z m 154,38 137,34 c 75,19 127,56 157,110 18,38 21,79 10,124 -14,58 -48,100 -102,125 -23,9 -41,13 -54,13 l -1,2 c 56,164 84,251 86,260 l -1,3 c -5,9 -11,12 -18,10 l -129,-32 c -11,-2 -18,-13 -21,-32 -41,-130 -63,-203 -66,-216 l -92,-23 30,-120 106,26 c 50,12 83,6 99,-18 5,-9 9,-16 10,-23 l 3,-11 c 7,-31 -3,-54 -32,-71 -16,-6 -33,-12 -53,-17 l -98,-25 29,-119 z m 571,175 122,58 -254,539 c -5,7 -11,9 -18,6 l -111,-52 c -8,-6 -11,-13 -8,-19 l 247,-526 c 3,-7 10,-8 22,-6 z m 141,67 238,112 c 11,7 15,14 11,22 l -39,84 c -7,8 -14,10 -22,7 l -240,-113 52,-112 z m -116,248 241,113 c 9,4 11,13 5,26 l -34,73 c -6,13 -14,17 -23,12 l -241,-113 52,-111 z"
       id="path4805"
       inkscape:connector-curvature="0"
       style="fill:#ffd600;fill-rule:nonzero" /><path
       class="fil4"
       d="m -2956,11243 c 8,68 30,116 66,144 35,28 86,37 152,29 61,-8 107,-31 136,-71 30,-39 40,-90 32,-153 l -10,-79 -387,49 11,81 z m -100,21 -27,-212 588,-75 26,208 c 7,57 8,103 1,138 -6,35 -20,69 -42,100 -23,32 -53,59 -89,79 -37,20 -79,33 -126,39 -53,6 -102,2 -147,-14 -45,-15 -84,-42 -116,-79 -19,-20 -33,-44 -44,-72 -10,-27 -18,-65 -24,-112 z m 436,625 c 25,-18 42,-41 49,-67 8,-26 6,-55 -4,-87 -10,-28 -26,-50 -49,-67 -24,-16 -50,-24 -78,-23 l 82,244 z m -162,-221 c -29,13 -49,34 -59,63 -10,27 -9,59 2,94 8,24 20,43 36,59 15,15 33,26 53,31 l 38,113 c -52,-4 -98,-20 -136,-50 -39,-29 -66,-69 -83,-119 -11,-33 -16,-66 -14,-98 1,-32 10,-62 24,-92 14,-28 32,-53 56,-74 23,-21 49,-36 78,-46 29,-10 59,-14 89,-12 29,2 58,10 86,24 31,16 57,36 79,60 22,25 38,53 48,84 14,39 18,78 12,117 -5,40 -19,76 -41,110 -14,21 -31,38 -51,53 -20,14 -45,27 -74,36 -3,1 -6,2 -11,3 -5,2 -8,3 -11,4 l -121,-360 z m 222,473 c -32,20 -51,48 -58,84 -8,36 -1,70 20,103 18,29 45,48 81,56 36,9 68,4 97,-14 30,-20 50,-48 58,-84 7,-37 2,-70 -17,-100 -20,-31 -48,-52 -83,-61 -35,-9 -68,-3 -98,16 z m -42,359 47,-30 c -26,1 -50,-6 -72,-20 -21,-15 -42,-38 -62,-70 -38,-59 -50,-120 -37,-184 13,-64 47,-114 104,-150 27,-17 55,-28 85,-33 30,-5 60,-4 90,3 32,7 61,20 86,38 25,18 47,42 66,73 19,29 30,57 34,84 4,26 1,52 -9,77 l 45,-29 58,91 -377,240 -58,-90 z m 136,189 271,-230 -47,-55 71,-60 46,55 111,-93 71,84 -110,94 47,56 -71,59 -47,-55 -271,229 -71,-84 z m 641,-178 -134,142 c 25,-4 49,-2 71,5 22,8 42,20 62,39 43,40 64,84 64,131 -1,46 -23,93 -68,140 l -176,187 -80,-76 135,-144 c 42,-44 66,-79 70,-105 4,-26 -7,-51 -33,-76 -27,-26 -54,-35 -83,-28 -28,7 -63,32 -104,75 l -132,140 -78,-74 407,-430 79,74 z m 535,583 -51,77 -66,-44 -196,296 -89,-59 196,-296 -47,-31 51,-77 44,29 7,-10 c 26,-39 57,-61 93,-65 35,-4 77,10 124,41 1,1 4,3 8,6 5,3 8,5 10,7 l -51,78 -7,-5 c -21,-13 -38,-20 -51,-20 -14,1 -25,9 -35,24 l -4,6 64,43 z m 160,154 c -41,-15 -72,-18 -95,-9 -23,9 -44,35 -63,77 l -96,208 -100,-47 187,-406 94,43 -22,47 c 24,-11 47,-17 69,-17 21,0 44,5 66,15 l -40,89 z m 30,166 c -12,40 -10,75 6,105 16,30 43,51 83,64 39,11 74,9 104,-8 31,-16 52,-45 64,-85 11,-36 8,-69 -9,-100 -17,-30 -44,-51 -81,-62 -38,-12 -73,-10 -104,6 -31,16 -52,43 -63,80 z m -110,-32 c 10,-30 24,-57 44,-81 20,-23 44,-42 73,-56 29,-15 60,-24 92,-26 32,-3 64,0 95,10 32,10 61,24 86,43 24,18 45,41 62,69 17,29 27,59 32,91 4,32 2,63 -7,93 -10,32 -25,60 -44,84 -20,23 -44,42 -73,57 -30,16 -60,24 -93,27 -32,2 -65,-2 -99,-12 -34,-10 -63,-25 -88,-45 -25,-20 -45,-45 -61,-75 -15,-29 -24,-59 -28,-89 -3,-30 0,-60 9,-90 z m 631,-43 -5,50 c 18,-18 38,-31 60,-39 21,-7 45,-10 72,-7 38,4 70,14 96,30 25,15 46,38 63,67 21,-25 44,-42 69,-53 24,-10 51,-14 79,-11 57,6 100,28 127,66 27,37 37,88 30,152 l -27,255 -108,-11 21,-197 c 7,-61 4,-103 -8,-126 -12,-23 -35,-37 -70,-40 -36,-4 -63,5 -81,28 -19,23 -31,64 -37,123 l -21,191 -109,-12 21,-197 c 7,-60 4,-102 -8,-125 -12,-24 -36,-37 -72,-41 -37,-4 -64,5 -83,28 -19,23 -31,63 -38,123 l -20,191 -106,-12 47,-445 108,12 z m 955,475 -47,-352 -71,10 -13,-92 72,-9 -19,-144 110,-15 19,144 72,-9 12,91 -72,10 46,352 -109,14 z m 227,-635 52,188 c 10,-23 24,-43 42,-58 17,-15 39,-26 65,-33 57,-15 105,-11 145,14 39,25 68,68 85,130 l 68,248 -107,29 -52,-190 c -16,-59 -34,-98 -54,-115 -20,-17 -47,-21 -82,-11 -36,10 -58,28 -67,56 -9,28 -6,71 10,129 l 51,185 -103,28 -157,-572 104,-28 z m 763,66 c -20,-24 -43,-39 -70,-44 -26,-6 -55,-3 -87,10 -27,12 -48,30 -63,54 -15,25 -21,51 -18,79 l 238,-99 z m -209,177 c 15,28 38,47 67,55 28,8 60,5 94,-9 23,-10 41,-23 56,-40 14,-16 23,-35 27,-55 l 110,-46 c 0,52 -13,99 -39,139 -27,41 -65,71 -113,91 -33,14 -65,21 -97,22 -32,0 -64,-6 -94,-18 -29,-12 -55,-28 -78,-50 -22,-22 -39,-47 -51,-75 -12,-29 -18,-58 -18,-88 0,-30 6,-59 18,-88 13,-31 31,-59 54,-83 23,-23 49,-42 80,-54 37,-16 76,-23 116,-20 40,3 77,14 113,34 21,12 40,27 56,46 16,20 30,43 41,72 1,2 3,6 4,10 2,5 3,9 4,11 l -350,146 z m 779,-593 c -25,-9 -49,-12 -72,-8 -24,4 -46,15 -68,33 -29,24 -45,54 -48,89 -3,36 7,69 32,98 24,30 54,46 90,49 36,3 69,-8 99,-33 23,-19 38,-39 46,-61 7,-22 7,-45 -1,-70 l 91,-75 c 24,52 30,103 17,153 -12,51 -41,95 -87,133 -27,22 -56,38 -86,48 -31,10 -63,14 -96,11 -31,-2 -61,-11 -89,-25 -29,-15 -52,-33 -71,-57 -21,-24 -35,-50 -43,-79 -9,-28 -11,-58 -8,-89 3,-35 13,-67 29,-97 16,-29 37,-55 65,-78 45,-37 93,-57 146,-60 53,-3 101,12 145,44 l -91,74 z m 319,94 -424,-413 75,-77 425,413 -76,77 z m 18,-361 c 33,26 66,37 100,33 34,-3 64,-21 90,-53 26,-32 36,-65 32,-100 -4,-34 -22,-64 -55,-91 -29,-24 -61,-33 -96,-28 -35,4 -65,21 -89,51 -25,31 -35,64 -32,99 3,35 20,64 50,89 z m -70,89 c -25,-20 -44,-43 -59,-71 -14,-27 -22,-56 -25,-88 -3,-33 1,-65 10,-96 10,-30 24,-58 45,-84 21,-26 45,-47 72,-63 26,-16 55,-27 87,-32 33,-5 65,-4 97,4 31,8 59,22 83,41 26,22 47,46 62,73 14,27 23,56 26,89 3,33 0,65 -10,96 -10,30 -26,60 -48,87 -22,28 -47,50 -75,65 -28,15 -59,25 -92,29 -33,3 -64,0 -93,-8 -29,-8 -56,-22 -80,-42 z m 646,-589 -44,-21 c 11,23 17,46 16,69 0,24 -6,47 -18,71 -26,54 -61,87 -106,101 -45,13 -97,6 -155,-22 l -232,-114 48,-100 181,88 c 54,27 95,38 121,35 27,-4 48,-22 63,-54 17,-33 17,-62 2,-88 -16,-25 -50,-51 -104,-77 l -174,-85 48,-98 402,197 -48,98 z m -45,-596 c -37,-8 -71,-2 -102,17 -30,20 -49,49 -58,86 -8,37 -2,72 18,104 20,32 47,51 82,59 37,8 71,1 101,-19 30,-22 50,-52 59,-92 7,-36 1,-68 -18,-98 -19,-30 -46,-49 -82,-57 z m -185,-45 -176,-39 23,-106 579,127 -23,106 -36,-8 c 11,25 18,50 21,75 2,25 1,52 -5,79 -7,29 -17,56 -31,80 -15,24 -33,44 -54,61 -29,23 -60,39 -95,47 -34,8 -69,8 -104,1 -32,-7 -62,-21 -88,-41 -27,-21 -48,-46 -65,-76 -14,-25 -23,-52 -27,-82 -4,-29 -2,-59 5,-90 6,-30 16,-55 28,-77 12,-21 28,-40 48,-57 z m 294,-187 6,1 c 20,1 36,-3 49,-12 13,-10 21,-23 22,-40 1,-16 -2,-30 -10,-41 -9,-10 -20,-17 -34,-18 -14,-1 -25,2 -34,9 -9,7 -19,19 -29,38 -5,10 -13,25 -23,46 -10,21 -17,34 -22,39 -15,17 -31,28 -49,35 -17,7 -36,10 -58,8 -37,-3 -68,-20 -92,-50 -23,-30 -34,-65 -30,-105 3,-42 17,-74 42,-96 25,-23 59,-34 100,-33 l -8,99 -2,0 c -15,-2 -26,2 -35,9 -9,7 -14,18 -15,32 -1,12 3,23 10,32 7,8 17,13 29,14 19,2 39,-18 59,-59 5,-11 9,-19 12,-25 21,-39 42,-66 63,-79 21,-13 48,-18 82,-16 42,4 75,22 100,54 24,32 35,70 31,115 -4,46 -21,82 -52,107 -31,26 -71,38 -120,37 l 8,-101 z"
       id="path4807"
       inkscape:connector-curvature="0"
       style="fill:#ffffff;fill-rule:nonzero" /><path
       class="fil0"
       d="m 0,9496 c 80,0 496,928 561,975 64,47 1076,156 1100,232 25,76 -729,759 -754,835 -24,76 184,1072 120,1119 -65,47 -947,-460 -1027,-460 -80,0 -962,507 -1027,460 -64,-47 144,-1043 120,-1119 -25,-76 -779,-759 -754,-835 24,-76 1036,-185 1100,-232 65,-47 481,-975 561,-975 z"
       id="path4809"
       inkscape:connector-curvature="0"
       style="fill:#ffd600" /><path
       class="fil1"
       d="m 0,9543 c -29,32 -79,120 -92,143 -58,102 -112,207 -166,311 -55,109 -110,218 -167,326 -20,38 -41,77 -64,115 -11,19 -30,52 -49,65 -18,13 -55,22 -77,27 -43,9 -86,17 -129,25 -120,20 -241,39 -362,58 -115,19 -232,38 -346,61 -26,6 -126,27 -165,44 22,37 90,112 108,132 78,87 162,170 244,253 86,87 173,173 258,260 30,31 61,63 90,96 15,17 40,46 47,67 7,21 3,59 1,82 -4,43 -10,87 -16,130 -17,121 -37,241 -56,362 -18,116 -36,232 -49,349 -3,26 -13,127 -9,170 42,-10 134,-51 158,-62 107,-48 212,-101 317,-154 109,-55 217,-111 327,-165 39,-19 79,-39 119,-56 21,-9 55,-24 78,-24 23,0 57,15 78,24 40,17 80,37 119,56 110,54 218,110 327,165 105,53 210,106 317,154 24,11 116,52 158,62 4,-43 -6,-144 -9,-170 -13,-117 -31,-233 -49,-349 -19,-121 -39,-241 -56,-362 -6,-43 -12,-87 -16,-130 -2,-23 -6,-61 1,-82 7,-21 32,-50 47,-67 29,-33 59,-65 90,-96 85,-87 172,-173 258,-260 82,-83 166,-166 244,-253 18,-20 86,-95 108,-132 -39,-17 -139,-38 -165,-44 -114,-23 -231,-42 -346,-61 -121,-19 -242,-38 -362,-58 -43,-8 -86,-16 -129,-25 -22,-5 -59,-14 -77,-27 -19,-13 -38,-46 -49,-65 -23,-38 -44,-77 -64,-115 C 368,10215 313,10106 258,9997 204,9893 150,9788 92,9686 79,9663 29,9575 0,9543 Z"
       id="path4811"
       inkscape:connector-curvature="0"
       style="fill:#000000" /><path
       class="fil0"
       d="m 0,9609 c -25,38 -52,87 -64,108 -56,97 -107,198 -159,298 -55,109 -110,218 -167,326 -25,46 -83,164 -125,194 -41,30 -171,49 -223,58 -120,21 -241,40 -361,59 -111,18 -223,36 -333,58 -24,5 -79,16 -122,28 28,36 66,77 82,95 76,83 156,163 235,243 86,86 173,172 258,260 37,37 131,129 146,178 16,48 -6,178 -13,230 -17,121 -37,241 -56,362 -17,111 -35,223 -47,335 -3,23 -10,79 -12,125 43,-16 94,-40 116,-50 102,-46 203,-97 303,-148 109,-55 218,-112 327,-165 47,-23 164,-84 215,-84 51,0 168,61 215,84 109,53 218,110 327,165 100,51 201,102 303,148 22,10 73,34 116,50 -2,-46 -9,-102 -12,-125 -12,-112 -30,-224 -47,-335 -19,-121 -39,-241 -56,-362 -7,-52 -29,-182 -13,-230 15,-49 109,-141 146,-178 85,-88 172,-174 258,-260 79,-80 159,-160 235,-243 16,-18 54,-59 82,-95 -43,-12 -98,-23 -122,-28 -110,-22 -222,-40 -333,-58 -120,-19 -241,-38 -361,-59 -52,-9 -182,-28 -223,-58 -42,-30 -100,-148 -125,-194 -57,-108 -112,-217 -167,-326 C 171,9915 120,9814 64,9717 52,9696 25,9647 0,9609 Z"
       id="path4813"
       inkscape:connector-curvature="0"
       style="fill:#ffd600" /><path
       class="fil1"
       d="m 658,10539 c 0,2 1,3 1,5 -5,21 -34,66 -45,82 -7,9 -13,18 -21,27 -10,12 -29,18 -42,27 -19,14 -28,38 -27,60 -17,-18 -34,-36 -52,-55 -163,-176 -414,-403 -472,-571 -58,168 -309,395 -472,571 -18,19 -35,37 -52,55 1,-22 -8,-46 -27,-60 -13,-9 -32,-15 -42,-27 -8,-9 -15,-18 -21,-27 -11,-16 -40,-61 -45,-82 0,-2 1,-3 1,-5 -29,6 -58,11 -86,16 -120,20 -241,39 -362,58 -57,9 -114,19 -171,28 13,22 31,41 53,54 -6,81 41,140 118,146 9,64 50,106 118,119 5,44 21,94 60,110 17,7 35,10 53,8 65,-8 112,-76 144,-127 26,-43 57,-105 98,-135 18,-13 36,-19 58,-20 -118,131 -212,268 -212,499 0,40 6,39 39,40 36,0 34,-30 60,-29 16,0 7,20 -5,33 -18,17 -66,75 -55,114 15,51 39,98 96,145 25,21 61,17 101,7 89,-20 177,-74 211,-66 -34,52 -24,96 -5,215 0,6 -1,12 -3,17 -10,18 -17,34 -22,55 -4,20 0,40 16,60 26,34 58,62 100,91 17,13 39,17 61,21 11,1 16,6 18,12 15,35 38,73 77,73 l 196,0 c 39,0 62,-38 77,-73 2,-6 7,-11 18,-12 22,-4 44,-8 61,-21 42,-29 74,-57 100,-91 16,-20 20,-40 16,-60 -5,-21 -12,-37 -22,-55 -2,-5 -3,-11 -3,-17 19,-119 29,-163 -5,-215 34,-8 122,46 211,66 40,10 76,14 101,-7 57,-47 81,-94 96,-145 11,-39 -37,-97 -55,-114 -12,-13 -21,-33 -5,-33 26,-1 24,29 60,29 33,-1 39,0 39,-40 0,-231 -94,-368 -212,-499 22,1 40,7 58,20 41,30 72,92 98,135 32,51 79,119 144,127 18,2 36,-1 53,-8 39,-16 55,-66 60,-110 68,-13 109,-55 118,-119 77,-6 124,-65 118,-146 22,-13 40,-32 53,-54 -57,-9 -114,-19 -171,-28 -121,-19 -242,-38 -362,-58 -28,-5 -57,-10 -86,-16 z"
       id="path4815"
       inkscape:connector-curvature="0"
       style="fill:#000000" /><path
       class="fil0"
       d="m 1255,10562 c 56,-10 92,-38 116,-69 40,4 64,-8 75,-30 129,38 156,-24 149,-64 l 0,0 c 111,14 182,-33 159,-91 58,8 203,-30 191,-91 46,0 98,-36 103,-79 2,-20 -4,-39 -16,-57 120,-4 173,-63 184,-106 3,-14 0,-27 -7,-40 81,-35 113,-92 117,-128 3,-37 -9,-72 -60,-102 131,-46 206,-144 204,-189 -1,-22 -16,-43 -43,-61 79,-51 108,-110 108,-152 0,-77 -117,-141 -295,-143 -125,-1 -476,80 -689,167 l 0,0 c -22,1 -48,5 -78,11 -113,25 -843,355 -1036,530 -29,26 -10,79 7,115 40,87 69,128 145,233 50,70 86,132 105,193 11,34 -7,86 5,131 4,17 -34,89 -76,138 -16,19 -38,26 -49,34 -13,10 -16,43 2,44 101,5 140,96 189,174 43,69 91,127 148,104 25,-10 37,-62 39,-110 104,-4 120,-69 115,-125 86,15 132,-39 114,-124 0,0 0,-1 -1,-2 l 0,0 c 55,-21 82,-69 75,-111 z m -2510,0 c -56,-10 -92,-38 -116,-69 -40,4 -64,-8 -75,-30 -129,38 -156,-24 -149,-64 l 0,0 c -111,14 -182,-33 -159,-91 -58,8 -203,-30 -191,-91 -46,0 -98,-36 -103,-79 -2,-20 4,-39 16,-57 -120,-4 -173,-63 -184,-106 -3,-14 0,-27 7,-40 -81,-35 -113,-92 -117,-128 -3,-37 9,-72 60,-102 -131,-46 -206,-144 -204,-189 1,-22 16,-43 43,-61 -79,-51 -108,-110 -108,-152 0,-77 117,-141 295,-143 125,-1 476,80 689,167 l 0,0 c 22,1 48,5 78,11 113,25 843,355 1036,530 29,26 10,79 -7,115 -40,87 -69,128 -145,233 -50,70 -86,132 -105,193 -11,34 7,86 -5,131 -4,17 34,89 76,138 16,19 38,26 49,34 13,10 16,43 -2,44 -101,5 -140,96 -189,174 -43,69 -91,127 -148,104 -25,-10 -37,-62 -39,-110 -104,-4 -120,-69 -115,-125 -86,15 -132,-39 -114,-124 0,0 0,-1 1,-2 l 0,0 c -55,-21 -82,-69 -75,-111 z"
       id="path4817"
       inkscape:connector-curvature="0"
       style="fill:#ffd600" /><path
       class="fil1"
       d="m 1249,10320 0,0 c -27,19 -65,32 -101,34 4,9 7,19 8,30 l 0,0 c 41,-1 81,8 110,16 10,3 20,9 19,-9 -2,-28 -24,-58 -36,-71 z m -2498,0 0,0 c 27,19 65,32 101,34 -4,9 -7,19 -8,30 l 0,0 c -41,-1 -81,8 -110,16 -10,3 -20,9 -19,-9 2,-28 24,-58 36,-71 z m -93,-638 c 127,27 588,152 782,273 35,22 -20,39 -36,32 l 0,0 c -234,-101 -583,-151 -714,-156 -36,-2 -71,0 -101,6 -79,-6 -143,-35 -136,-106 9,-78 121,-66 205,-49 z m -61,-258 c 97,28 720,330 887,455 30,22 7,53 -29,38 -221,-139 -736,-279 -856,-289 -125,-57 -203,-138 -189,-192 17,-61 93,-41 187,-12 z m 195,644 c 128,-11 318,-7 579,47 29,7 27,51 -16,49 -180,-8 -383,-1 -549,43 -86,23 -156,-12 -166,-41 -10,-27 -12,-84 152,-98 z m -125,-189 c 131,-2 487,46 733,149 27,11 32,60 -23,46 -261,-62 -475,-51 -591,-48 -41,1 -76,6 -106,14 -69,-19 -109,-78 -112,-101 -5,-28 32,-59 99,-60 z m 660,328 c 15,7 5,12 -3,24 -8,12 -9,25 -35,25 -180,-1 -261,16 -389,54 -75,23 -149,-19 -148,-50 l 0,0 c 22,-1 46,-4 71,-10 221,-54 324,-54 504,-43 z m -397,135 c 80,-35 227,-59 339,-52 19,2 12,46 -27,53 -55,11 -175,63 -213,81 -56,27 -131,34 -138,-11 -6,-34 11,-58 39,-71 z m 157,102 c 41,-17 61,-32 166,-41 11,-1 9,20 -6,27 -64,29 -81,61 -132,91 -51,31 -104,43 -120,6 -15,-33 50,-65 92,-83 z m 13,130 c 16,-6 32,-14 46,-23 26,-16 42,-31 57,-45 19,-19 54,-34 51,0 -5,52 -33,78 -75,101 -20,12 -61,11 -79,-33 z m 200,71 c -22,3 -54,-2 -68,-23 21,-16 31,-30 38,-43 17,9 32,41 30,66 z m 47,82 c -44,25 -64,49 -99,102 -49,74 -93,159 -133,145 -14,-6 -29,-42 -23,-74 12,-62 68,-192 116,-245 27,25 67,27 88,29 19,1 26,33 51,43 z m -382,-161 0,0 c 19,20 51,25 84,21 l 1,1 c 1,2 2,4 3,6 -49,33 -94,109 -111,156 -60,23 -86,-14 -82,-59 4,-35 59,-104 105,-125 z m 187,84 c -22,29 -81,149 -96,214 -19,28 -80,5 -77,-61 2,-43 54,-143 97,-181 21,18 50,26 76,28 l 0,0 z m -320,-7 c -37,-16 -56,-52 -45,-84 10,-30 46,-75 86,-98 21,21 52,29 84,28 -7,10 -11,22 -11,35 -46,23 -92,76 -114,119 z M -2236,9224 c 90,3 414,87 590,144 -7,12 -13,27 -17,45 -3,15 -1,30 4,46 -188,-52 -394,-68 -495,-67 -78,1 -149,12 -203,30 -76,-39 -98,-81 -98,-116 0,-47 86,-87 219,-82 z m 86,440 c -131,-11 -251,-104 -249,-142 3,-38 123,-78 256,-79 94,-1 353,23 520,80 31,39 78,78 135,110 -229,-17 -508,0 -633,25 -10,2 -20,4 -29,6 z m 539,81 c -197,-3 -465,79 -523,127 -72,11 -139,-24 -132,-74 9,-54 75,-80 168,-97 94,-17 347,-40 518,-28 -22,20 -31,43 -31,72 z m -432,132 c 78,-37 296,-85 446,-80 l 0,0 c 17,30 46,53 82,69 l 0,0 c -3,0 -6,1 -9,3 -126,21 -339,79 -451,157 -102,4 -174,-27 -184,-64 -7,-23 77,-67 116,-85 z m 138,279 c -40,1 -64,-14 -65,-41 -2,-40 67,-87 166,-127 108,-44 241,-74 299,-74 -1,7 -2,15 -1,24 2,15 5,28 11,41 -136,16 -328,96 -410,177 z m 502,-94 c -109,41 -252,112 -320,195 -64,7 -147,-13 -133,-54 24,-76 276,-169 386,-186 18,19 42,34 67,45 z m -3,135 c -63,36 -118,81 -151,125 -51,44 -151,21 -121,-27 50,-77 154,-143 253,-166 -2,23 6,49 19,68 z m 68,51 c -44,36 -106,110 -113,152 -53,46 -103,18 -97,-10 8,-39 88,-128 165,-168 12,11 27,20 45,26 z m 63,48 c -38,33 -58,118 -72,136 -15,21 -72,23 -67,-12 5,-38 70,-136 106,-164 6,1 11,2 17,3 l 0,0 c 1,13 6,25 16,37 z m 87,129 c 16,-1 36,4 25,11 -27,17 -59,51 -73,80 -12,25 -61,-14 -60,-39 2,-28 71,-50 108,-52 z m 2530,-743 c -127,27 -588,152 -782,273 -35,22 20,39 36,32 l 0,0 c 234,-101 583,-151 714,-156 36,-2 71,0 101,6 79,-6 143,-35 136,-106 -9,-78 -121,-66 -205,-49 z m 61,-258 c -97,28 -720,330 -887,455 -30,22 -7,53 29,38 221,-139 736,-279 856,-289 125,-57 203,-138 189,-192 -17,-61 -93,-41 -187,-12 z m -195,644 c -128,-11 -318,-7 -579,47 -29,7 -27,51 16,49 180,-8 383,-1 549,43 86,23 156,-12 166,-41 10,-27 12,-84 -152,-98 z m 125,-189 c -131,-2 -487,46 -733,149 -27,11 -32,60 23,46 261,-62 475,-51 591,-48 41,1 76,6 106,14 69,-19 109,-78 112,-101 5,-28 -32,-59 -99,-60 z m -660,328 c -15,7 -5,12 3,24 8,12 9,25 35,25 180,-1 261,16 389,54 75,23 149,-19 147,-50 l 0,0 c -21,-1 -45,-4 -70,-10 -221,-54 -324,-54 -504,-43 z m 397,135 c -80,-35 -227,-59 -339,-52 -19,2 -12,46 27,53 55,11 175,63 212,81 57,27 132,34 139,-11 6,-34 -11,-58 -39,-71 z m -157,102 c -41,-17 -61,-32 -166,-41 -11,-1 -9,20 6,27 64,29 81,61 132,91 51,31 104,43 120,6 15,-33 -50,-65 -92,-83 z m -13,130 c -16,-6 -32,-14 -46,-23 -26,-16 -42,-31 -57,-45 -19,-19 -54,-34 -51,0 5,52 33,78 74,101 21,12 62,11 80,-33 z m -200,71 c 22,3 54,-2 68,-23 -21,-16 -31,-30 -38,-43 -17,9 -32,41 -30,66 z m -47,82 c 44,25 64,49 99,102 49,74 93,159 133,145 14,-6 28,-42 23,-74 -12,-62 -68,-192 -116,-245 -27,25 -67,27 -88,29 -19,1 -26,33 -51,43 z m 382,-161 0,0 c -20,20 -51,25 -84,21 l -1,1 c -1,2 -2,4 -3,6 49,33 94,109 111,156 60,23 86,-14 82,-59 -4,-35 -59,-104 -105,-125 z m -187,84 c 22,29 81,149 96,214 19,28 80,5 77,-61 -2,-43 -54,-143 -97,-181 -21,18 -51,26 -76,28 l 0,0 z m 320,-7 c 37,-16 56,-52 45,-84 -10,-30 -46,-75 -86,-98 -21,21 -52,29 -84,28 7,10 11,22 11,35 46,23 92,76 114,119 z M 2236,9224 c -90,3 -414,87 -590,144 7,12 13,27 17,45 3,15 1,30 -4,46 188,-52 394,-68 495,-67 78,1 149,12 203,30 76,-39 98,-81 98,-116 0,-47 -86,-87 -219,-82 z m -86,440 c 131,-11 251,-104 249,-142 -3,-38 -123,-78 -256,-79 -94,-1 -353,23 -520,80 -31,39 -78,78 -135,110 229,-17 508,0 633,25 10,2 20,4 29,6 z m -539,81 c 197,-3 465,79 523,127 72,11 139,-24 132,-74 -9,-54 -75,-80 -168,-97 -94,-17 -347,-40 -518,-28 22,20 31,43 31,72 z m 432,132 c -78,-37 -296,-85 -446,-80 l 0,0 c -17,30 -46,53 -82,69 l 0,0 c 3,0 6,1 9,3 126,21 339,79 451,157 102,4 174,-27 184,-64 7,-23 -77,-67 -116,-85 z m -138,279 c 40,1 64,-14 65,-41 2,-40 -67,-87 -166,-127 -108,-44 -241,-74 -299,-74 1,7 2,15 1,24 -2,15 -5,28 -11,41 136,16 328,96 410,177 z m -502,-94 c 109,41 252,112 320,195 64,7 147,-13 133,-54 -24,-76 -276,-169 -386,-186 -18,19 -42,34 -67,45 z m 3,135 c 63,36 118,81 151,125 51,44 151,21 121,-27 -50,-77 -154,-143 -253,-166 2,23 -6,49 -19,68 z m -68,51 c 44,36 106,110 113,152 53,46 102,18 97,-10 -8,-39 -88,-128 -165,-168 -12,11 -27,20 -45,26 z m -63,48 c 38,33 58,118 72,136 15,21 72,23 67,-12 -5,-38 -70,-136 -106,-164 -6,1 -11,2 -17,3 l 0,0 c -1,13 -6,25 -16,37 z m -87,129 c -16,-1 -36,4 -25,11 27,17 59,51 73,80 12,25 61,-14 60,-39 -2,-28 -71,-50 -108,-52 z"
       id="path4819"
       inkscape:connector-curvature="0"
       style="fill:#000000" /><path
       class="fil2"
       d="m 214,11527 c -8,12 9,47 3,83 -4,16 8,44 20,44 14,0 43,-46 28,-75 -10,-22 -5,-45 6,-45 12,0 16,6 22,13 30,33 31,120 6,204 -1,5 -10,22 -3,32 9,14 20,41 25,57 2,9 -1,19 -6,26 -18,23 -39,43 -72,68 -12,9 -60,17 -74,19 -22,3 -33,21 -39,42 -4,15 -18,50 -51,48 l -158,0 c -33,2 -47,-33 -51,-48 -6,-21 -17,-39 -39,-42 -14,-2 -62,-10 -74,-19 -33,-25 -54,-45 -72,-68 -5,-7 -8,-17 -6,-26 5,-16 16,-43 25,-57 7,-10 -2,-27 -3,-32 -25,-84 -24,-171 6,-204 6,-7 10,-13 22,-13 11,0 16,23 6,45 -15,29 14,75 28,75 12,0 24,-28 20,-44 -6,-36 11,-71 3,-83 -14,-23 -48,-39 -74,-45 -50,-11 -110,22 -143,35 -59,23 -90,40 -154,55 -16,4 -25,4 -37,-7 -42,-37 -67,-67 -83,-118 -3,-10 1,-22 5,-28 8,-15 55,-74 75,-89 24,-21 5,-29 5,-44 -3,-105 27,-237 36,-253 -30,5 -90,106 -116,200 -3,12 -14,27 -27,26 -9,0 -17,-6 -15,-17 25,-139 97,-274 164,-356 217,-268 345,-313 578,-614 233,301 361,346 578,614 67,82 139,217 164,356 2,11 -6,17 -15,17 -13,1 -24,-14 -27,-26 -26,-94 -86,-195 -116,-200 9,16 39,148 36,253 0,15 -19,23 5,44 20,15 67,74 75,89 4,6 8,18 5,28 -16,51 -41,81 -83,118 -12,11 -21,11 -37,7 -64,-15 -95,-32 -154,-55 -33,-13 -93,-46 -143,-35 -26,6 -60,22 -74,45 z"
       id="path4821"
       inkscape:connector-curvature="0"
       style="fill:#ffffff" /><path
       class="fil1"
       d="m -286,11000 c 54,49 112,115 171,169 28,26 7,61 0,107 -3,21 7,46 -6,58 -12,12 -16,25 -28,25 -28,0 0,-89 -28,-89 -27,0 -14,46 -36,71 -34,42 -114,47 -130,47 -77,0 -169,-34 -193,-93 -12,-31 -7,-52 -11,-79 -5,-31 -11,-51 -11,-70 0,-29 36,-119 86,-146 50,-27 158,-25 186,0 z m 286,791 c 31,0 6,-51 39,-51 30,0 6,55 42,55 29,0 10,-47 37,-47 40,0 4,55 39,55 20,0 18,-23 30,-23 30,0 9,34 37,35 9,0 20,-5 20,-20 0,-59 -134,-136 -244,-136 -110,0 -244,77 -244,136 0,15 11,20 20,20 28,-1 7,-35 37,-35 12,0 10,23 30,23 35,0 -1,-55 39,-55 27,0 8,47 37,47 36,0 12,-55 42,-55 33,0 8,51 39,51 z m 0,-299 c -33,0 -25,37 -39,49 -19,16 -62,12 -69,0 -20,-29 49,-216 108,-216 59,0 128,187 108,216 -7,12 -50,16 -69,0 -14,-12 -6,-49 -39,-49 z m 286,-492 c -54,49 -112,115 -171,169 -28,26 -7,61 0,107 3,21 -7,46 6,58 12,12 16,25 28,25 28,0 0,-89 28,-89 27,0 14,46 36,71 34,42 114,47 130,47 77,0 169,-34 193,-93 12,-31 7,-52 11,-79 5,-31 11,-51 11,-70 0,-29 -36,-119 -86,-146 -50,-27 -158,-25 -186,0 z"
       id="path4823"
       inkscape:connector-curvature="0"
       style="fill:#000000" /></g></svg>