<?xml version="1.0" encoding="UTF-8" standalone="no"?>
<!-- Creator: CorelDRAW X7 -->

<svg
   xmlns:dc="http://purl.org/dc/elements/1.1/"
   xmlns:cc="http://creativecommons.org/ns#"
   xmlns:rdf="http://www.w3.org/1999/02/22-rdf-syntax-ns#"
   xmlns:svg="http://www.w3.org/2000/svg"
   xmlns="http://www.w3.org/2000/svg"
   xmlns:sodipodi="http://sodipodi.sourceforge.net/DTD/sodipodi-0.dtd"
   xmlns:inkscape="http://www.inkscape.org/namespaces/inkscape"
   xml:space="preserve"
   width="7.8740005in"
   height="7.8740005in"
   version="1.1"
   style="clip-rule:evenodd;fill-rule:evenodd;image-rendering:optimizeQuality;shape-rendering:geometricPrecision;text-rendering:geometricPrecision"
   viewBox="0 0 7874.0005 7874.0005"
   id="svg3577"
   inkscape:version="0.91 r13725"
   sodipodi:docname="Ariadna - The Scots Guards - [N3] [Vyo].svg"><metadata
     id="metadata3647"><rdf:RDF><cc:Work
         rdf:about=""><dc:format>image/svg+xml</dc:format><dc:type
           rdf:resource="http://purl.org/dc/dcmitype/StillImage" /></cc:Work></rdf:RDF></metadata><sodipodi:namedview
     pagecolor="#ffffff"
     bordercolor="#666666"
     borderopacity="1"
     objecttolerance="10"
     gridtolerance="10"
     guidetolerance="10"
     inkscape:pageopacity="0"
     inkscape:pageshadow="2"
     inkscape:window-width="640"
     inkscape:window-height="480"
     id="namedview3645"
     showgrid="false"
     inkscape:zoom="0.23838384"
     inkscape:cx="736.83001"
     inkscape:cy="849.33005"
     inkscape:window-x="0"
     inkscape:window-y="0"
     inkscape:window-maximized="0"
     inkscape:current-layer="svg3577" /><defs
     id="defs3579"><style
       type="text/css"
       id="style3581"><![CDATA[
    .fil3 {fill:none}
    .fil4 {fill:black}
    .fil0 {fill:#015385}
    .fil2 {fill:#FFCC00}
    .fil1 {fill:white}
    .fil6 {fill:#015385;fill-rule:nonzero}
    .fil5 {fill:#EECE00;fill-rule:nonzero}
   ]]></style></defs><g
     id="Layer_x0020_1"
     transform="translate(3937,-7063)"><metadata
       id="CorelCorpID_0Corel-Layer" /><circle
       class="fil0"
       cy="11000"
       r="3937"
       id="circle3585"
       cx="0"
       style="fill:#015385" /><circle
       class="fil1"
       cy="11000"
       r="3819"
       id="circle3587"
       cx="0"
       style="fill:#ffffff" /><circle
       class="fil0"
       cy="11000"
       r="2992"
       id="circle3589"
       cx="0"
       style="fill:#015385" /><path
       class="fil1"
       d="m 378,12158 c -21,-10 -42,-16 -63,-16 l -98,0 0,1474 -217,325 -217,-325 0,-1474 -98,0 c -21,0 -42,6 -63,16 l -1199,1198 c -307,-206 -573,-472 -779,-779 l 1198,-1199 c 10,-21 16,-42 16,-63 l 0,-98 -1474,0 -325,-217 325,-217 1474,0 0,-98 c 0,-21 -6,-42 -16,-63 L -2356,9423 c 206,-307 472,-573 779,-779 l 1199,1198 c 21,10 42,16 63,16 l 98,0 0,-1474 217,-325 217,325 0,1474 98,0 c 21,0 42,-6 63,-16 L 1577,8644 c 307,206 573,472 779,779 l -1198,1199 c -10,21 -16,42 -16,63 l 0,98 1474,0 325,217 -325,217 -1474,0 0,98 c 0,21 6,42 16,63 l 1198,1199 c -206,307 -472,573 -779,779 L 378,12158 Z"
       id="path3591"
       inkscape:connector-curvature="0"
       style="fill:#ffffff" /><path
       class="fil2"
       d="m 2598,10843 237,157 -237,157 -1456,0 0,-314 1456,0 z M 0,10764 c 130,0 236,106 236,236 0,130 -106,236 -236,236 -130,0 -236,-106 -236,-236 0,-130 106,-236 236,-236 z M -157,8402 0,8165 l 157,237 0,1456 -314,0 0,-1456 z m -158,1515 630,0 c 82,0 157,-59 216,-118 l 0,158 c 60,0 138,39 217,98 -79,59 -157,99 -217,99 l 0,157 c -59,-59 -134,-118 -216,-118 l -630,0 c -82,0 -157,59 -216,118 l 0,-157 c -60,0 -138,-40 -217,-99 79,-59 157,-98 217,-98 l 0,-158 c 59,59 134,118 216,118 z m 472,335 0,498 c -45,-29 -99,-45 -157,-45 -58,0 -112,16 -157,45 l 0,-498 314,0 z m -2755,905 -237,-157 237,-157 1456,0 0,314 -1456,0 z m 1515,158 0,-630 c 0,-82 -59,-157 -118,-216 l 158,0 c 0,-60 39,-138 98,-217 59,79 99,157 99,217 l 157,0 c -59,59 -118,134 -118,216 l 0,630 c 0,82 59,157 118,216 l -157,0 c 0,60 -40,138 -99,217 -59,-79 -98,-157 -98,-217 l -158,0 c 59,-59 118,-134 118,-216 z m 335,-472 498,0 c -29,45 -45,99 -45,157 0,58 16,112 45,157 l -498,0 0,-314 z m 905,2755 -157,237 -157,-237 0,-1456 314,0 0,1456 z m 158,-1515 -630,0 c -82,0 -157,59 -216,118 l 0,-158 c -60,0 -138,-39 -217,-98 79,-59 157,-99 217,-99 l 0,-157 c 59,59 134,118 216,118 l 630,0 c 82,0 157,-59 216,-118 l 0,157 c 60,0 138,40 217,99 -79,59 -157,98 -217,98 l 0,158 c -59,-59 -134,-118 -216,-118 z m -472,-335 0,-498 c 45,29 99,45 157,45 58,0 112,-16 157,-45 l 0,498 -314,0 z m 1240,-1063 0,630 c 0,82 59,157 118,216 l -158,0 c 0,60 -39,138 -98,217 -59,-79 -99,-157 -99,-217 l -157,0 c 59,-59 118,-134 118,-216 l 0,-630 c 0,-82 -59,-157 -118,-216 l 157,0 c 0,-60 40,-138 99,-217 59,79 98,157 98,217 l 158,0 c -59,59 -118,134 -118,216 z m -335,472 -498,0 c 29,-45 45,-99 45,-157 0,-58 -16,-112 -45,-157 l 498,0 0,314 z"
       id="path3593"
       inkscape:connector-curvature="0"
       style="fill:#ffcc00" /><circle
       class="fil3"
       cy="11000"
       r="3898"
       id="circle3595"
       cx="0"
       style="fill:none" /><circle
       class="fil3"
       cy="11000"
       r="3898"
       id="circle3597"
       cx="0"
       style="fill:none" /><g
       id="_902419840"><path
         class="fil4"
         d="m -3344,12333 326,-132 38,93 -326,132 39,95 -85,35 -115,-283 85,-34 38,94 z m 59,-303 188,-54 28,95 -426,124 -28,-96 144,-41 c 2,-1 3,-1 5,-2 -1,-1 -3,-3 -4,-5 -5,-7 -10,-14 -14,-21 -5,-9 -8,-17 -11,-26 -9,-31 -10,-63 8,-91 17,-27 46,-42 77,-51 l 173,-51 28,96 -171,50 c -9,2 -21,7 -27,15 -4,5 -3,12 -1,19 1,5 3,10 6,14 l 0,0 c 3,5 6,9 9,13 3,3 7,6 11,9 2,1 3,2 5,3 z m -34,-514 81,-14 7,9 c 13,16 23,32 32,50 9,20 15,42 18,63 4,21 5,43 1,64 -4,19 -12,38 -23,54 -12,16 -27,29 -44,39 -19,11 -40,18 -61,21 -21,4 -42,4 -62,-1 -20,-4 -38,-11 -54,-23 -16,-11 -28,-26 -38,-43 -11,-18 -18,-38 -21,-59 -4,-20 -4,-41 0,-60 3,-18 10,-34 21,-49 11,-15 25,-26 41,-35 18,-9 37,-15 56,-18 l 45,-8 1,10 z m 30,178 c 1,0 1,0 1,0 6,-5 11,-10 15,-16 4,-7 7,-15 8,-23 2,-9 1,-18 0,-27 -1,-7 -3,-14 -5,-20 -3,-7 -6,-15 -10,-22 -3,-7 -7,-14 -12,-21 -5,-7 -10,-14 -15,-20 l -8,-9 26,158 z m -96,-647 c 18,-1 37,1 54,6 18,5 33,14 47,26 14,13 25,29 33,46 9,20 14,42 15,64 1,11 1,23 1,34 -1,11 -2,22 -4,33 -2,10 -5,20 -8,30 -3,8 -6,17 -11,25 l -5,9 -111,9 20,-33 c 4,-7 8,-15 11,-22 4,-9 7,-18 9,-27 3,-10 5,-19 6,-28 1,-8 2,-15 2,-23 -1,-8 -3,-17 -6,-25 -2,-5 -5,-11 -10,-15 -4,-4 -8,-6 -13,-8 -6,-1 -12,-2 -19,-1 -5,0 -12,1 -17,4 -5,3 -9,8 -12,12 -4,7 -8,15 -10,23 -4,11 -8,22 -11,33 -5,17 -11,33 -18,48 -6,15 -13,28 -23,40 -10,12 -21,21 -35,28 -14,7 -31,11 -47,12 -19,1 -38,-1 -56,-8 -17,-7 -31,-17 -44,-30 -12,-14 -22,-29 -29,-46 -8,-18 -12,-37 -14,-56 -1,-19 -1,-39 2,-58 2,-15 6,-31 11,-46 l 4,-13 100,-8 -11,30 c -3,6 -5,12 -6,19 -2,8 -4,16 -5,24 -2,8 -3,16 -3,25 -1,7 -1,14 -1,22 1,7 2,15 5,22 3,6 6,11 10,15 3,3 7,6 11,7 5,2 10,2 15,2 5,0 10,-2 14,-4 5,-4 8,-8 11,-13 5,-7 8,-15 11,-23 4,-12 8,-23 12,-35 4,-16 10,-32 17,-47 7,-14 15,-28 25,-39 10,-12 22,-21 35,-28 15,-7 32,-11 48,-12 z m -76,-146 c 18,0 37,-2 55,-8 15,-5 30,-13 42,-23 11,-10 20,-22 26,-36 7,-15 10,-31 10,-48 1,-17 -1,-34 -6,-51 -4,-17 -10,-34 -18,-49 l -16,-30 100,2 6,10 c 9,18 15,38 20,58 4,22 6,45 5,68 0,29 -6,58 -18,85 -11,26 -26,49 -47,68 -21,19 -45,33 -71,43 -29,10 -59,14 -90,14 -31,0 -62,-6 -92,-18 -27,-11 -51,-27 -72,-48 -21,-20 -37,-44 -48,-71 -11,-28 -16,-58 -15,-88 0,-11 0,-21 2,-32 1,-10 3,-21 5,-31 2,-10 5,-19 8,-29 3,-9 6,-17 10,-26 l 5,-11 98,1 -12,27 c -4,8 -7,16 -10,23 -3,9 -5,18 -8,26 -2,9 -4,18 -6,28 -1,8 -2,17 -2,26 0,16 3,32 9,46 6,15 15,27 27,37 12,12 27,20 43,26 19,7 40,10 60,11 z m 78,-728 c 32,5 63,14 91,30 26,13 48,31 66,53 18,22 30,47 36,75 7,29 6,60 1,89 -4,29 -14,57 -30,82 -14,23 -33,43 -56,58 -23,15 -49,25 -77,30 -30,5 -61,4 -91,-1 -31,-5 -62,-14 -90,-29 -25,-14 -48,-32 -65,-55 -18,-22 -29,-48 -36,-75 -7,-30 -6,-62 -1,-92 5,-28 14,-56 30,-80 15,-23 33,-42 56,-57 24,-15 49,-24 77,-29 29,-5 60,-4 89,1 z m -47,-275 338,94 -27,97 -338,-94 -28,98 -88,-24 82,-294 88,25 -27,98 z m 362,-336 c 17,7 32,16 46,29 13,12 24,27 31,43 7,18 11,37 10,56 0,22 -5,44 -13,64 -4,11 -9,21 -14,31 -6,10 -11,19 -18,28 -6,9 -13,16 -20,24 -6,6 -13,12 -20,18 l -9,6 -104,-40 32,-21 c 7,-4 13,-10 19,-15 8,-6 14,-13 21,-21 6,-7 12,-14 17,-22 4,-6 8,-13 11,-20 3,-8 5,-17 6,-25 0,-6 -1,-12 -3,-18 -2,-5 -5,-9 -9,-13 -4,-4 -10,-7 -16,-9 -5,-2 -12,-4 -17,-3 -6,0 -11,3 -16,6 -7,4 -14,9 -19,15 -9,9 -17,17 -25,26 -11,13 -23,25 -36,36 -11,10 -24,19 -38,26 -14,6 -28,10 -43,10 -16,0 -33,-3 -48,-9 -18,-7 -34,-17 -47,-31 -12,-14 -21,-29 -27,-46 -6,-18 -8,-36 -7,-54 1,-20 5,-39 12,-57 7,-18 15,-35 26,-51 9,-13 19,-26 30,-38 l 9,-9 93,36 -22,21 c -5,5 -10,10 -14,15 -5,6 -10,13 -15,19 -4,7 -9,14 -13,22 -4,6 -7,13 -10,19 -2,8 -4,15 -5,23 0,6 0,12 2,17 l 0,0 c 2,5 4,8 7,12 4,3 9,6 14,8 4,1 9,3 14,2 6,-1 11,-4 15,-7 8,-4 14,-10 20,-16 9,-9 17,-18 25,-27 12,-12 24,-24 36,-35 12,-10 25,-19 39,-25 14,-6 29,-9 44,-9 17,-1 33,3 49,9 z m 274,-395 -47,-30 -48,76 -77,-50 103,-160 171,110 -1,11 c -1,27 -6,53 -15,79 -9,26 -22,51 -37,74 -17,27 -38,51 -64,69 -23,16 -49,28 -77,34 -28,5 -56,4 -84,-2 -29,-6 -56,-19 -81,-35 -28,-18 -53,-40 -72,-67 -17,-25 -29,-52 -35,-82 -5,-29 -4,-58 2,-87 7,-31 19,-59 36,-86 14,-22 31,-42 50,-59 19,-17 39,-31 62,-42 l 10,-5 93,61 -36,14 c -10,4 -20,9 -30,14 -10,6 -19,13 -28,20 -9,7 -17,14 -25,22 -7,8 -14,16 -19,25 -11,15 -18,33 -22,51 -3,17 -3,33 1,49 4,17 12,31 23,45 11,15 26,28 43,39 16,10 33,18 51,23 16,4 32,6 48,3 15,-3 30,-9 43,-18 16,-10 28,-25 39,-41 6,-11 12,-22 16,-34 3,-7 5,-14 7,-21 z m 222,-287 c 7,-9 13,-19 17,-31 3,-9 4,-19 2,-29 -1,-11 -6,-21 -12,-30 -7,-12 -18,-22 -29,-31 l -210,-165 61,-78 205,159 c 21,17 41,37 56,61 13,20 22,43 24,67 3,24 0,48 -8,70 -9,25 -22,48 -38,68 -15,20 -33,37 -54,51 -20,12 -41,20 -64,23 -24,3 -47,1 -70,-7 -25,-8 -48,-22 -69,-38 l -209,-164 62,-79 207,162 c 12,9 25,17 39,22 10,4 22,6 33,5 10,-1 20,-5 29,-11 11,-6 20,-15 28,-25 z m 312,-371 -93,88 49,113 -79,74 -179,-440 62,-59 431,203 -78,74 -113,-53 z m 177,-225 108,137 -79,63 -274,-349 88,-69 c 17,-13 34,-25 53,-35 18,-9 36,-15 56,-18 19,-2 37,0 55,7 20,8 36,23 49,39 10,14 18,28 22,45 4,14 5,29 4,45 -2,14 -5,28 -11,42 -2,5 -4,9 -7,13 l 225,76 -95,74 -194,-70 z m 521,-394 c 16,28 27,58 30,91 2,30 -1,60 -11,89 -10,30 -27,57 -48,81 -23,26 -51,47 -81,64 l -109,61 -217,-386 113,-64 c 30,-17 63,-31 96,-39 30,-7 60,-9 90,-4 28,5 54,17 77,35 25,19 45,44 60,72 z m 349,-53 c 8,17 12,35 13,53 1,18 -2,36 -9,53 -7,18 -18,33 -32,47 -15,15 -34,27 -54,36 -11,4 -21,9 -32,12 -11,3 -22,6 -33,7 -10,2 -20,3 -30,3 -9,0 -18,0 -27,-1 l -11,-2 -46,-102 38,8 c 8,1 16,2 24,3 10,0 19,0 29,-1 9,0 19,-2 28,-4 8,-1 15,-3 22,-6 7,-4 15,-8 22,-14 4,-4 8,-9 10,-14 2,-5 3,-10 3,-15 0,-7 -2,-13 -5,-18 -2,-6 -6,-11 -10,-15 -5,-4 -10,-6 -15,-7 -8,-2 -17,-3 -25,-2 -12,0 -24,0 -35,1 -17,1 -35,1 -52,0 -15,-1 -30,-3 -45,-9 -14,-5 -27,-12 -38,-23 -11,-11 -20,-25 -27,-40 -8,-17 -12,-36 -11,-55 0,-18 5,-36 13,-52 8,-16 19,-31 33,-43 14,-13 30,-24 48,-32 17,-8 36,-14 54,-18 16,-3 32,-5 48,-6 l 13,0 41,91 -31,0 c -6,0 -13,0 -20,1 -8,0 -16,2 -24,3 -8,1 -16,3 -24,6 -8,1 -15,4 -21,7 -7,3 -14,7 -20,12 -4,4 -8,9 -10,14 l -1,0 c -2,4 -2,9 -2,13 0,5 1,10 3,15 2,5 5,9 9,12 5,3 10,5 15,6 9,2 18,2 26,2 12,0 24,0 37,-1 16,-1 33,-1 50,0 16,2 31,5 45,10 14,6 27,14 38,24 12,12 21,26 28,41 z m 172,5 c 1,12 1,25 0,38 -1,14 -2,28 -3,42 -2,14 -3,28 -5,42 -2,12 -3,25 -5,37 l -2,13 -81,26 0,-27 c 0,-13 0,-25 -1,-37 0,-12 -1,-25 -2,-38 -1,-12 -2,-25 -3,-38 -2,-11 -3,-22 -5,-32 l -3,-17 109,-35 1,26 z m 260,-283 c 5,-2 9,-3 13,-4 18,-4 36,-5 54,-3 18,1 35,6 51,14 16,9 30,20 41,35 13,15 20,34 25,53 5,20 6,40 3,61 -3,19 -9,37 -19,53 -10,17 -24,31 -40,42 -17,12 -36,20 -56,25 -21,5 -43,6 -64,3 -19,-3 -37,-10 -54,-21 -16,-11 -29,-25 -39,-42 -11,-18 -19,-38 -23,-59 -6,-24 -7,-48 -6,-72 1,-26 6,-53 12,-79 7,-28 16,-55 27,-81 12,-28 26,-54 42,-80 l 4,-7 114,-26 -20,38 c -8,16 -17,33 -25,49 -7,16 -14,33 -21,49 -6,15 -12,31 -17,46 0,2 -1,4 -2,6 z m 244,19 -48,6 -11,-79 55,-8 c 1,-7 2,-14 3,-21 2,-11 4,-23 6,-35 l 2,-14 71,-10 9,68 71,-10 11,80 -71,9 17,126 c 1,3 2,7 4,8 1,2 3,1 5,1 6,-1 13,-2 19,-3 5,-2 11,-3 17,-5 l 22,-8 10,72 -10,7 c -9,7 -19,11 -29,15 -11,4 -23,6 -34,8 -26,3 -53,0 -73,-19 -19,-18 -27,-46 -30,-72 l -16,-116 z m 312,-15 15,195 -99,7 -34,-442 99,-7 11,149 c 1,2 1,4 1,6 2,-1 4,-3 6,-3 7,-4 15,-8 24,-10 9,-3 18,-4 27,-5 32,-2 64,3 88,26 22,23 31,55 34,86 l 13,180 -99,7 -13,-177 c -1,-10 -3,-22 -10,-29 -4,-6 -11,-6 -18,-6 -5,1 -10,2 -15,3 l -1,0 c -4,2 -9,4 -13,7 -4,2 -8,5 -12,9 -1,1 -3,2 -4,4 z m 485,-19 c -1,18 0,37 4,55 5,16 11,31 21,43 9,12 21,22 34,29 15,8 31,12 47,13 17,1 35,0 52,-3 17,-3 34,-9 50,-16 l 30,-13 -7,99 -11,5 c -19,8 -39,14 -59,17 -22,3 -45,3 -68,1 -29,-2 -58,-9 -84,-23 -25,-12 -47,-29 -65,-51 -18,-22 -30,-47 -38,-74 -9,-29 -11,-60 -9,-90 2,-32 10,-62 24,-91 12,-26 30,-50 51,-69 22,-20 47,-34 74,-43 29,-10 59,-13 89,-11 11,1 22,2 32,4 11,2 21,5 31,8 9,2 19,5 28,9 9,3 17,7 25,11 l 11,6 -7,98 -26,-14 c -8,-4 -15,-7 -23,-11 -8,-3 -16,-6 -25,-9 -9,-3 -18,-6 -27,-8 -8,-2 -17,-3 -26,-4 -16,-1 -32,1 -47,6 -15,6 -27,14 -39,25 -12,12 -21,26 -28,42 -8,18 -12,38 -14,59 z m 438,262 c -7,3 -15,6 -22,8 -19,5 -39,5 -58,1 -15,-2 -30,-7 -43,-14 -12,-7 -23,-15 -31,-26 -7,-11 -12,-23 -15,-35 -2,-13 -2,-26 0,-39 5,-33 23,-58 53,-72 33,-16 74,-14 109,-8 5,1 11,1 16,3 -1,-4 -2,-8 -3,-11 -4,-8 -15,-10 -22,-12 -12,-2 -24,-2 -35,-1 -13,1 -26,3 -39,6 l -29,6 15,-87 12,-3 c 15,-4 30,-7 45,-7 16,-1 32,0 47,3 17,2 34,7 50,14 15,6 28,15 38,28 11,13 17,28 20,44 3,18 2,37 -1,55 l -17,98 c 0,0 0,1 0,2 2,0 5,0 8,1 3,0 6,0 10,0 l 24,-1 -12,69 -9,4 c -8,5 -18,7 -27,8 -10,0 -20,0 -30,-2 -8,-1 -17,-4 -25,-7 -6,-3 -13,-7 -19,-13 -3,-4 -7,-8 -10,-12 z m 228,79 -95,-28 125,-425 96,28 -126,425 z m 348,-2 -26,77 -11,2 c -20,4 -40,5 -59,4 -22,-1 -44,-6 -65,-13 -20,-7 -39,-17 -56,-30 -15,-13 -28,-28 -37,-46 -9,-18 -13,-37 -13,-57 -1,-22 3,-43 10,-64 7,-20 17,-38 30,-54 13,-15 28,-28 46,-36 18,-9 37,-13 56,-14 22,-1 42,3 63,10 18,6 37,15 52,28 14,12 25,26 33,42 8,17 11,35 11,53 0,20 -4,39 -10,58 l -15,43 -9,-3 z m -171,-59 c 0,1 0,1 0,2 1,7 3,14 7,20 4,7 10,13 16,18 7,6 16,10 25,13 6,2 13,3 19,4 8,2 16,2 23,3 9,0 17,0 26,-1 8,-1 16,-2 24,-4 l 12,-3 -152,-52 z m 353,261 c -5,0 -10,-1 -14,-2 -9,-1 -18,-3 -26,-5 -9,-3 -18,-6 -27,-11 -16,-8 -31,-20 -43,-34 -11,-14 -20,-29 -25,-47 -5,-18 -5,-37 -3,-56 3,-21 11,-42 21,-61 10,-19 23,-36 39,-50 14,-13 31,-23 50,-30 19,-6 39,-7 58,-5 22,2 42,9 61,19 12,6 24,14 34,24 2,1 3,2 4,4 l 69,-132 88,46 -205,393 -85,-45 4,-8 z m 464,111 c -11,18 -26,34 -43,46 -16,12 -34,21 -53,25 -20,4 -40,4 -60,-1 -21,-4 -41,-13 -60,-25 -18,-12 -34,-26 -46,-43 -12,-15 -21,-33 -25,-52 -4,-19 -4,-38 0,-58 4,-20 12,-40 24,-57 11,-19 26,-35 44,-49 16,-12 34,-20 54,-24 20,-4 40,-3 60,1 22,6 42,15 61,27 18,12 34,25 47,43 12,15 20,33 24,52 4,19 3,38 -2,57 -4,21 -14,40 -25,58 z m 158,55 -122,153 -78,-62 185,-231 75,60 -5,8 c 3,0 5,1 8,2 9,2 17,5 25,9 8,4 16,9 24,15 24,20 44,46 46,79 2,32 -14,61 -33,85 l -114,142 -77,-62 111,-139 c 6,-7 13,-18 13,-28 0,-7 -4,-12 -9,-16 -4,-3 -9,-6 -13,-8 -4,-2 -9,-3 -14,-5 -5,-1 -10,-1 -15,-2 -2,0 -5,0 -7,0 z m 363,104 c -5,6 -12,11 -19,14 l 0,0 c -7,2 -14,3 -21,3 -7,0 -14,-1 -20,-4 l 0,0 c -7,-3 -12,-7 -18,-11 -10,-9 -18,-21 -20,-35 -4,-15 1,-30 11,-42 10,-11 24,-18 39,-17 15,1 27,6 38,16 5,4 9,9 13,15 l 0,0 c 4,6 7,13 8,20 1,7 1,13 -1,20 l 0,1 c -1,7 -5,14 -10,20 z m -234,259 -76,-65 193,-224 76,65 -193,224 z m 171,147 c -8,-2 -16,-4 -24,-7 -18,-7 -33,-19 -46,-34 -11,-11 -20,-23 -26,-37 -5,-12 -9,-26 -8,-39 0,-13 3,-26 8,-37 6,-12 14,-23 24,-32 24,-22 53,-32 86,-25 35,7 67,33 91,59 4,4 8,8 11,12 2,-3 4,-7 4,-10 1,-9 -5,-17 -10,-23 -9,-8 -18,-16 -28,-22 -10,-7 -22,-14 -34,-19 l -27,-12 65,-61 11,5 c 15,6 28,13 41,22 12,9 25,19 35,30 12,13 23,27 32,42 7,14 12,29 13,45 1,16 -4,32 -11,47 -8,16 -21,31 -34,43 l -72,68 c -1,1 -1,1 -2,2 2,2 4,3 6,5 2,2 5,4 8,6 l 20,14 -51,48 -10,-2 c -10,-1 -18,-5 -26,-11 -9,-5 -16,-11 -23,-19 -6,-6 -11,-13 -15,-20 -4,-7 -7,-14 -8,-22 -1,-5 -1,-10 0,-16 z m 301,72 -156,120 -60,-79 234,-180 59,76 -7,6 c 3,1 5,2 8,4 7,4 15,9 21,15 8,6 14,13 20,20 19,25 32,55 26,87 -6,32 -27,57 -52,76 l -144,110 -61,-79 142,-108 c 7,-6 16,-14 19,-24 2,-7 -2,-13 -6,-18 -3,-4 -6,-8 -10,-10 -4,-3 -8,-6 -13,-8 -4,-3 -9,-5 -14,-6 -2,-1 -4,-1 -6,-2 z m 117,508 -55,-85 372,-241 55,84 -372,242 z m 253,56 -173,92 -47,-88 261,-139 45,85 -7,5 c 2,1 4,3 6,5 7,5 14,11 19,18 7,7 12,15 16,24 15,27 23,59 12,90 -11,30 -37,51 -64,65 l -161,86 -46,-88 157,-84 c 8,-4 19,-11 23,-20 3,-6 1,-13 -3,-19 -2,-4 -5,-8 -8,-12 -3,-3 -7,-7 -11,-10 -4,-3 -9,-5 -13,-8 -2,-1 -4,-2 -6,-2 z m 246,291 21,54 -74,30 -22,-54 -200,80 -37,-93 200,-80 -17,-44 74,-29 18,44 34,-14 c 28,-11 60,-17 90,-5 28,11 46,33 57,61 3,6 4,12 6,18 1,6 2,13 2,19 l 1,14 -82,33 -3,-25 c -1,-2 -1,-4 -1,-6 -1,-2 -1,-4 -2,-7 -1,-2 -1,-4 -2,-7 0,-1 -1,-3 -2,-4 0,-3 -2,-3 -4,-4 -5,-2 -15,2 -19,4 l -38,15 z m -176,340 c -6,-5 -12,-11 -17,-17 -14,-14 -22,-32 -28,-50 -5,-15 -8,-30 -7,-45 0,-14 3,-27 9,-39 6,-12 14,-22 24,-30 10,-8 22,-14 34,-18 31,-10 62,-6 89,14 29,22 46,59 57,93 2,5 3,10 5,15 3,-2 6,-5 8,-8 5,-7 2,-17 0,-24 -4,-12 -9,-22 -15,-32 -7,-11 -14,-22 -23,-32 l -19,-22 84,-27 9,9 c 10,11 19,24 27,37 7,13 14,28 19,43 5,16 9,33 10,51 1,16 -1,32 -7,46 -7,15 -17,28 -30,38 -15,11 -32,19 -50,24 l -94,31 c 0,0 -1,0 -2,0 1,3 2,5 3,8 1,3 3,6 5,9 l 12,21 -67,21 -8,-6 c -8,-5 -14,-13 -19,-21 -6,-8 -10,-17 -13,-27 -2,-8 -4,-17 -5,-25 0,-8 1,-15 3,-23 1,-5 4,-10 6,-14 z m 238,192 -191,44 -23,-97 288,-66 22,94 -9,2 c 2,2 4,5 5,7 6,7 10,14 14,22 4,9 7,18 9,27 7,31 7,64 -12,91 -18,26 -48,39 -79,46 l -177,41 -22,-97 173,-40 c 9,-2 22,-6 28,-13 4,-6 4,-13 2,-19 -1,-5 -3,-10 -5,-14 -2,-4 -5,-9 -8,-13 -3,-4 -7,-7 -11,-11 -1,-1 -3,-2 -4,-4 z m 67,250 -7,-47 80,-11 7,55 c 7,1 14,2 21,3 12,2 23,4 35,5 l 15,3 9,71 -67,9 9,71 -79,11 -10,-71 -125,17 c -3,0 -7,1 -9,3 -1,2 -1,4 -1,6 1,6 2,12 4,19 1,5 3,11 5,16 l 7,23 -72,10 -7,-10 c -6,-9 -11,-19 -14,-29 -4,-12 -7,-23 -8,-35 -4,-26 -1,-53 18,-72 19,-19 46,-27 72,-31 l 117,-16 z m 97,287 c 5,5 11,11 15,17 6,9 9,18 10,28 0,9 0,17 -1,25 -2,8 -3,15 -6,23 l -3,13 -87,7 4,-25 c 1,-7 1,-13 1,-20 0,-7 0,-14 0,-20 -1,-4 -1,-7 -3,-10 -2,-3 -4,-5 -7,-6 -5,-2 -10,-3 -15,-4 -6,-1 -13,-1 -20,0 l -166,12 -8,-99 190,-14 c 7,-1 15,-2 22,-3 8,-1 16,-2 24,-4 7,-1 14,-3 20,-4 5,-1 9,-2 13,-4 l 25,-9 7,88 -10,6 c -2,1 -4,3 -5,3 z m -245,216 c 39,-16 78,-32 117,-49 42,-17 83,-35 125,-52 l 28,-11 -2,109 -144,53 142,55 -1,105 -255,-108 c -10,-4 -21,-8 -32,-12 -15,-4 -30,-9 -44,-13 -16,-5 -32,-9 -48,-14 -16,-4 -31,-9 -47,-13 l -15,-4 2,-101 24,6 c 14,4 28,8 42,12 13,3 25,7 38,12 12,4 25,8 37,13 11,4 22,8 33,12 z m 116,481 -173,-23 14,-100 439,60 -15,110 c -3,21 -7,42 -14,62 -6,19 -15,37 -27,52 -12,15 -27,26 -45,33 -19,8 -41,9 -62,6 -16,-2 -32,-7 -47,-16 -13,-8 -24,-18 -34,-30 -9,-11 -16,-24 -22,-38 -1,-4 -3,-9 -4,-14 l -214,102 17,-119 187,-85 z m -160,494 -79,-18 -4,-11 c -5,-19 -9,-39 -10,-59 -1,-21 2,-44 7,-65 5,-21 12,-41 24,-59 11,-17 25,-31 41,-41 17,-11 36,-17 56,-20 21,-3 43,-1 64,4 21,5 40,12 58,24 16,11 30,25 40,42 11,17 17,35 20,55 3,21 1,42 -3,63 -5,19 -12,38 -23,55 -10,15 -23,28 -38,37 -16,10 -34,15 -52,17 -20,1 -39,-1 -59,-5 l -44,-10 2,-9 z m 41,-177 c -1,1 -1,1 -2,1 -7,1 -13,4 -19,9 -7,5 -12,11 -16,17 -5,8 -8,17 -10,26 -2,7 -3,13 -3,20 -1,8 -1,16 0,24 1,8 2,16 3,25 2,8 4,16 7,24 l 4,11 36,-157 z m -218,371 c 0,-3 -1,-7 -1,-10 -1,-18 2,-36 8,-53 6,-18 15,-35 28,-50 11,-13 25,-23 41,-30 15,-7 33,-10 50,-10 19,0 38,4 55,10 22,8 42,19 59,33 17,14 30,31 39,50 9,20 14,41 14,62 1,24 -4,47 -11,69 -4,10 -8,20 -12,30 -4,9 -9,18 -13,27 -5,8 -9,16 -15,24 -4,7 -8,13 -13,19 l -9,11 -231,-80 c -24,-8 -47,-18 -69,-31 -18,-12 -35,-27 -46,-45 -12,-19 -17,-40 -18,-62 -1,-25 5,-50 13,-74 5,-15 12,-30 19,-44 7,-13 14,-25 23,-37 l 9,-11 87,30 -16,22 c -9,12 -17,24 -24,37 -6,12 -12,24 -16,36 -3,9 -5,20 -4,29 1,8 4,14 9,21 7,7 14,13 23,17 7,4 14,8 21,10 z m -12,151 c 8,4 14,9 19,15 5,6 9,12 12,20 2,7 3,15 2,23 0,8 -2,16 -6,23 -3,8 -8,14 -13,20 -6,5 -12,10 -20,13 l 0,0 c -7,3 -15,4 -22,4 -8,0 -16,-2 -24,-5 -7,-4 -14,-8 -19,-15 -5,-6 -9,-12 -11,-19 -3,-8 -4,-15 -4,-24 1,-8 3,-16 6,-23 4,-8 8,-14 14,-20 6,-5 13,-10 20,-12 7,-3 15,-5 22,-5 9,0 16,2 24,5 z m -6414,-590 -14,-81 c -3,2 -7,5 -9,9 -6,9 -6,20 -4,31 2,13 6,26 16,34 3,3 7,6 11,7 z m -22,-1428 c -20,-3 -41,-5 -61,-3 -16,2 -32,6 -46,13 -12,7 -22,16 -30,28 -9,13 -14,28 -16,43 -3,16 -3,31 2,46 4,14 10,27 20,38 11,12 24,22 39,29 17,9 36,15 55,18 20,3 39,4 59,2 16,-2 31,-7 45,-15 13,-7 23,-16 31,-28 9,-12 14,-26 17,-41 2,-16 3,-32 -1,-47 -4,-14 -10,-26 -19,-37 -11,-12 -24,-21 -38,-28 -18,-9 -38,-15 -57,-18 z m 965,-1850 36,81 44,-42 -80,-39 z m 236,-280 52,66 8,-6 c 14,-11 29,-26 33,-44 3,-14 0,-25 -9,-36 -7,-9 -14,-14 -25,-13 -16,1 -36,15 -48,25 l -11,8 z m 326,-225 128,227 20,-11 c 19,-11 37,-24 52,-41 13,-14 23,-30 29,-47 5,-17 7,-35 5,-52 -2,-20 -9,-38 -19,-56 -9,-16 -21,-32 -36,-44 -13,-9 -27,-15 -43,-18 -16,-3 -34,-1 -50,3 -21,6 -42,15 -61,26 l -25,13 z m 1070,-263 c 0,4 0,9 0,13 1,9 2,17 4,25 2,10 6,21 11,30 4,6 9,13 15,17 5,4 10,6 16,7 7,1 14,1 21,-1 7,-1 13,-4 19,-8 5,-3 9,-8 12,-13 3,-6 4,-13 5,-20 1,-8 0,-17 -2,-26 -2,-8 -5,-17 -10,-24 -4,-5 -8,-10 -14,-13 -5,-3 -12,-4 -18,-5 -8,0 -16,1 -23,2 -8,2 -16,5 -23,9 -4,2 -9,4 -13,7 z m 1492,45 c -4,0 -9,-1 -14,-2 -9,-2 -20,-3 -29,-2 -5,1 -11,2 -15,4 -3,1 -5,3 -6,5 -2,3 -3,5 -3,9 -1,4 -1,8 2,12 2,4 7,6 11,6 10,2 19,1 29,-1 7,-2 15,-5 22,-9 l 3,-22 z m 438,46 78,26 c 0,-4 -1,-8 -3,-12 -5,-10 -16,-15 -26,-19 -12,-4 -25,-6 -38,-1 -4,1 -8,3 -11,6 z m 361,255 50,-96 c -2,-3 -5,-6 -7,-9 -3,-3 -7,-7 -11,-10 -3,-3 -7,-5 -11,-7 -8,-4 -15,-7 -23,-8 -8,-1 -15,-1 -22,1 -8,2 -15,7 -21,12 -10,8 -17,20 -22,30 -5,10 -10,20 -11,30 -1,8 -2,15 0,22 2,6 4,11 8,16 4,5 9,9 15,12 5,2 10,4 16,6 6,1 12,2 18,2 5,0 11,0 16,-1 2,0 3,0 5,0 z m 341,139 c 10,-14 19,-33 16,-50 -2,-16 -13,-26 -25,-34 -14,-9 -28,-14 -44,-10 -18,5 -31,20 -40,35 -6,9 -11,18 -13,28 -2,7 -3,15 -2,23 2,7 4,13 8,19 5,7 12,13 19,17 12,8 26,13 41,9 17,-6 31,-22 40,-37 z m 602,536 c -3,-4 -6,-8 -10,-11 -6,-7 -14,-14 -22,-19 -4,-3 -9,-5 -14,-6 -3,-1 -6,-1 -8,0 -3,1 -5,3 -8,5 -3,3 -6,7 -6,12 0,4 3,8 6,11 7,7 15,13 23,16 8,3 15,6 23,7 l 16,-15 z m 772,1300 c -1,-4 -3,-9 -4,-14 -3,-9 -7,-19 -12,-27 -3,-4 -7,-8 -11,-11 -2,-2 -4,-3 -7,-3 -3,0 -6,0 -9,1 -4,2 -8,4 -10,8 -2,4 -2,9 0,13 3,9 8,17 14,24 5,6 11,12 18,16 l 21,-7 z m 358,1500 -84,-11 -1,10 c -2,17 -3,39 7,54 7,12 18,18 31,20 11,1 20,0 27,-8 11,-13 16,-36 18,-51 l 2,-14 z m -216,316 -18,81 c 4,-1 8,-2 12,-5 9,-6 13,-17 16,-27 3,-13 3,-26 -3,-38 -2,-4 -4,-8 -7,-11 z m -212,378 110,38 c 0,0 0,0 0,0 3,-6 5,-12 7,-18 4,-12 7,-24 6,-36 -1,-10 -4,-19 -9,-27 -5,-8 -12,-14 -20,-20 -9,-6 -18,-10 -29,-14 -9,-3 -19,-6 -28,-6 -6,0 -13,0 -18,3 -5,2 -8,5 -11,9 -5,5 -8,11 -10,18 -3,9 -3,18 -3,27 1,9 2,18 5,26 z"
         id="path3600"
         inkscape:connector-curvature="0"
         style="fill:#000000" /></g><polygon
       class="fil5"
       points="-3006,12283 -3331,12416 -3292,12511 -3341,12530 -3441,12285 -3392,12265 -3354,12359 -3029,12227 "
       id="polygon3602"
       style="fill:#eece00;fill-rule:nonzero" /><path
       id="1"
       class="fil5"
       d="m -3159,11836 17,58 -152,44 c -17,5 -29,13 -37,23 -7,9 -8,22 -4,36 2,7 5,13 8,19 4,6 8,11 12,16 4,4 9,8 14,12 4,3 9,6 13,8 l 177,-52 17,58 -387,113 -17,-57 125,-37 c 2,-1 5,-1 9,-2 3,-1 7,-2 10,-3 4,-1 8,-2 11,-3 4,-1 7,-2 10,-2 -5,-3 -10,-7 -15,-12 -5,-4 -10,-10 -14,-15 -5,-6 -9,-12 -13,-19 -4,-7 -7,-14 -9,-22 -9,-30 -7,-55 5,-75 13,-19 35,-34 66,-43 l 154,-45 z"
       inkscape:connector-curvature="0"
       style="fill:#eece00;fill-rule:nonzero" /><path
       id="2"
       class="fil5"
       d="m -3417,11663 c 3,20 11,35 23,46 12,11 28,17 48,18 l -22,-134 c -19,4 -32,12 -41,24 -8,13 -11,28 -8,46 z m 106,119 c -20,3 -38,3 -55,-1 -17,-4 -33,-11 -46,-21 -13,-10 -24,-22 -33,-37 -9,-15 -15,-33 -18,-53 -3,-19 -3,-37 0,-53 4,-15 10,-29 19,-41 9,-11 20,-21 35,-28 14,-8 31,-13 50,-16 l 25,-4 31,193 c 10,-2 19,-7 28,-12 8,-6 15,-13 20,-22 5,-9 8,-18 10,-29 2,-11 2,-22 1,-34 -2,-8 -4,-15 -6,-23 -3,-8 -6,-16 -10,-24 -4,-8 -8,-16 -13,-24 -5,-8 -11,-16 -17,-23 l 46,-7 c 11,14 21,30 29,46 7,17 13,36 16,58 4,21 3,40 0,57 -3,18 -10,33 -20,46 -9,14 -22,25 -37,34 -16,8 -34,14 -55,18 z"
       inkscape:connector-curvature="0"
       style="fill:#eece00;fill-rule:nonzero" /><path
       id="3"
       class="fil5"
       d="m -3385,11067 c 16,-1 32,1 47,5 15,5 28,12 39,22 12,11 22,24 29,40 7,16 12,35 14,56 1,11 1,21 0,32 0,11 -1,21 -3,30 -2,10 -4,19 -7,27 -3,9 -6,16 -9,22 l -63,5 c 5,-7 9,-15 13,-24 4,-10 7,-19 10,-30 3,-10 5,-20 6,-30 2,-10 2,-19 2,-27 -1,-12 -4,-22 -7,-31 -4,-9 -9,-16 -15,-22 -6,-5 -13,-9 -21,-12 -8,-2 -17,-3 -26,-2 -11,1 -20,3 -27,8 -7,4 -12,10 -17,18 -5,7 -9,16 -13,26 -3,11 -7,22 -11,35 -5,17 -11,32 -16,46 -6,14 -13,25 -21,35 -7,9 -17,17 -28,23 -11,5 -24,9 -39,10 -17,1 -33,-1 -47,-7 -15,-5 -27,-14 -38,-25 -10,-11 -19,-24 -26,-39 -6,-16 -10,-33 -12,-51 -1,-19 -1,-36 1,-52 3,-16 6,-31 10,-44 l 56,-4 c -2,6 -4,13 -6,21 -2,8 -4,17 -6,25 -1,9 -2,18 -3,27 -1,9 0,17 0,25 1,11 3,21 7,29 3,8 8,15 13,21 6,5 12,9 19,12 7,2 15,3 23,2 10,-1 17,-3 24,-8 6,-4 12,-10 17,-18 4,-8 8,-17 12,-27 4,-11 7,-23 11,-36 5,-17 11,-32 17,-45 6,-13 13,-25 21,-34 9,-10 18,-17 30,-23 11,-6 24,-9 40,-11 z"
       inkscape:connector-curvature="0"
       style="fill:#eece00;fill-rule:nonzero" /><path
       id="4"
       class="fil5"
       d="m -3462,10921 c 23,0 44,-3 62,-9 19,-6 35,-15 49,-27 13,-12 24,-26 31,-43 8,-16 11,-35 12,-55 0,-19 -2,-38 -7,-56 -5,-19 -12,-37 -21,-54 l 55,1 c 9,15 15,33 19,52 4,20 5,41 5,64 0,28 -6,54 -16,78 -10,23 -24,44 -43,61 -18,16 -39,29 -64,39 -25,9 -52,13 -82,13 -31,-1 -59,-6 -85,-17 -26,-10 -48,-25 -66,-43 -19,-18 -33,-40 -43,-65 -10,-24 -15,-51 -15,-80 0,-10 1,-20 2,-29 1,-11 3,-20 5,-30 2,-9 5,-18 7,-27 3,-8 6,-16 9,-23 l 55,0 c -3,8 -6,16 -9,25 -4,8 -7,18 -9,27 -3,10 -5,19 -6,29 -2,10 -3,20 -3,29 0,20 3,38 11,55 7,17 18,31 31,44 14,12 31,22 51,30 19,7 41,11 65,11 z"
       inkscape:connector-curvature="0"
       style="fill:#eece00;fill-rule:nonzero" /><path
       id="5"
       class="fil5"
       d="m -3393,10257 c -24,-4 -46,-5 -66,-3 -20,3 -37,8 -53,16 -14,8 -27,20 -36,34 -10,14 -16,31 -20,52 -3,19 -2,37 3,54 5,17 14,32 25,45 12,13 27,24 45,34 18,9 38,15 61,19 23,3 45,4 65,1 19,-2 37,-8 52,-17 15,-8 27,-20 37,-34 10,-14 17,-30 20,-49 3,-20 2,-39 -2,-56 -4,-17 -12,-32 -23,-45 -12,-13 -26,-23 -45,-32 -18,-9 -39,-15 -63,-19 z m 4,-63 c 32,5 61,14 85,27 25,13 45,29 60,48 16,19 26,41 33,66 5,25 6,52 1,82 -4,28 -13,53 -26,75 -14,21 -30,38 -50,52 -21,13 -44,22 -70,27 -26,5 -54,5 -84,0 -32,-5 -60,-14 -84,-27 -24,-13 -44,-29 -60,-48 -15,-20 -26,-42 -32,-68 -6,-25 -6,-53 -2,-84 5,-27 14,-52 27,-73 13,-21 30,-38 50,-51 20,-13 43,-22 69,-27 26,-4 53,-4 83,1 z"
       inkscape:connector-curvature="0"
       style="fill:#eece00;fill-rule:nonzero" /><polygon
       id="6"
       class="fil5"
       points="-3133,10065 -3472,9973 -3499,10071 -3549,10058 -3480,9802 -3429,9816 -3456,9914 -3117,10006 "
       style="fill:#eece00;fill-rule:nonzero" /><path
       id="7"
       class="fil5"
       d="m -3076,9581 c 16,5 29,14 41,24 11,11 20,23 26,37 6,14 9,30 8,48 0,18 -4,37 -12,57 -3,10 -8,19 -13,29 -5,9 -10,18 -16,26 -6,8 -12,15 -18,21 -6,6 -12,12 -18,16 l -58,-23 c 7,-4 14,-10 22,-16 7,-7 15,-15 22,-23 7,-8 13,-16 18,-24 6,-9 10,-16 13,-24 5,-11 7,-21 7,-31 1,-10 -1,-18 -4,-26 -3,-8 -7,-14 -13,-20 -7,-5 -14,-10 -23,-13 -10,-4 -19,-5 -27,-4 -8,0 -16,3 -24,8 -7,5 -15,11 -22,19 -8,7 -16,16 -25,26 -12,13 -24,25 -35,34 -11,10 -22,18 -33,23 -12,5 -23,8 -36,9 -12,0 -25,-3 -40,-8 -16,-7 -29,-15 -39,-27 -11,-11 -18,-24 -23,-38 -5,-15 -7,-31 -6,-47 0,-17 4,-34 11,-51 6,-18 14,-33 23,-47 9,-13 18,-25 28,-35 l 52,20 c -4,5 -10,10 -15,17 -5,6 -11,13 -16,20 -5,8 -10,15 -14,23 -4,8 -8,15 -11,22 -4,11 -6,20 -6,29 -1,9 0,18 3,25 2,7 6,13 12,19 5,5 12,9 19,12 9,4 18,5 25,3 8,-1 16,-4 23,-9 8,-5 15,-11 23,-19 8,-8 17,-17 26,-27 12,-13 23,-24 34,-34 11,-9 23,-16 34,-21 12,-5 24,-8 37,-8 12,-1 26,2 40,8 z"
       inkscape:connector-curvature="0"
       style="fill:#eece00;fill-rule:nonzero" /><path
       id="8"
       class="fil5"
       d="m -3010,9272 c 19,12 38,21 58,26 19,5 37,6 55,3 18,-3 35,-10 52,-21 16,-11 30,-27 43,-48 8,-11 14,-23 19,-37 5,-14 8,-26 9,-38 l -74,-47 -48,76 -44,-28 82,-128 144,93 c -1,24 -6,49 -14,73 -8,24 -20,47 -34,70 -17,27 -37,48 -59,64 -22,15 -45,25 -69,30 -25,5 -50,5 -76,-1 -25,-6 -50,-16 -75,-32 -28,-18 -50,-38 -66,-62 -17,-23 -27,-48 -32,-73 -5,-26 -5,-53 1,-80 6,-27 17,-54 33,-79 14,-21 29,-40 47,-56 17,-16 36,-29 57,-39 l 52,34 c -12,5 -23,10 -33,16 -11,6 -21,13 -31,21 -10,8 -19,16 -27,25 -8,8 -15,17 -21,27 -13,19 -21,39 -24,59 -4,19 -3,38 1,57 5,18 14,35 26,52 13,16 29,30 48,43 z"
       inkscape:connector-curvature="0"
       style="fill:#eece00;fill-rule:nonzero" /><path
       id="9"
       class="fil5"
       d="m -2556,8893 c 9,-12 16,-24 20,-37 4,-13 5,-26 3,-38 -2,-13 -7,-25 -15,-38 -7,-12 -19,-24 -34,-36 l -194,-152 38,-48 188,148 c 22,17 40,36 52,55 12,19 19,39 21,59 2,20 0,41 -7,62 -8,20 -19,41 -35,61 -15,20 -32,35 -50,46 -17,12 -36,19 -56,21 -19,3 -39,1 -60,-6 -21,-7 -42,-19 -64,-36 l -193,-151 38,-49 191,151 c 16,11 30,20 45,25 14,5 28,7 41,5 14,-1 26,-5 38,-12 12,-8 23,-18 33,-30 z"
       inkscape:connector-curvature="0"
       style="fill:#eece00;fill-rule:nonzero" /><path
       id="10"
       class="fil5"
       d="m -2105,8492 -48,46 -112,-53 -112,107 49,113 -48,45 -165,-399 43,-41 393,182 z m -342,-97 c -3,-1 -7,-3 -12,-6 -5,-3 -9,-6 -14,-10 l -1,1 c 3,5 7,10 9,15 3,6 5,10 7,14 l 58,131 85,-81 -132,-64 z"
       inkscape:connector-curvature="0"
       style="fill:#eece00;fill-rule:nonzero" /><path
       id="11"
       class="fil5"
       d="m -2092,8113 c -12,-16 -26,-22 -43,-21 -16,2 -36,11 -58,29 l -26,20 76,97 23,-18 c 23,-17 36,-35 40,-54 5,-19 1,-37 -12,-53 z m 257,174 -57,45 -198,-72 -23,18 110,140 -48,38 -249,-318 72,-56 c 17,-13 34,-24 50,-33 17,-9 33,-14 49,-16 16,-2 31,0 45,6 15,6 28,17 41,33 9,11 16,24 19,37 3,13 4,25 3,38 -1,12 -4,24 -9,36 -5,12 -11,23 -19,32 l 214,72 z"
       inkscape:connector-curvature="0"
       style="fill:#eece00;fill-rule:nonzero" /><path
       id="12"
       class="fil5"
       d="m -1636,7930 c -12,-22 -26,-38 -41,-50 -16,-12 -33,-19 -51,-22 -19,-3 -38,-2 -59,4 -21,6 -43,15 -66,28 l -41,23 148,261 37,-21 c 23,-13 42,-29 57,-46 15,-17 26,-35 32,-54 7,-20 9,-40 6,-61 -3,-21 -10,-41 -22,-62 z m 55,-32 c 16,27 25,55 28,83 2,28 -1,55 -10,82 -9,26 -23,51 -43,74 -21,23 -46,43 -76,60 l -92,52 -199,-351 96,-54 c 31,-19 62,-31 91,-38 28,-7 56,-8 81,-4 25,4 48,15 69,31 21,15 39,37 55,65 z"
       inkscape:connector-curvature="0"
       style="fill:#eece00;fill-rule:nonzero" /><path
       id="13"
       class="fil5"
       d="m -1232,7844 c 7,15 10,30 11,46 1,15 -1,30 -7,44 -6,15 -15,28 -27,41 -13,12 -29,23 -49,32 -9,4 -19,8 -29,11 -10,3 -20,6 -30,7 -10,2 -19,3 -28,3 -9,0 -16,0 -24,-1 l -26,-57 c 8,2 18,3 28,3 10,1 20,1 31,0 10,-1 21,-3 31,-5 10,-2 18,-4 25,-8 11,-5 20,-10 27,-17 7,-6 12,-13 15,-21 4,-8 5,-16 5,-24 -1,-8 -3,-17 -7,-25 -4,-10 -10,-17 -16,-22 -7,-5 -15,-9 -23,-11 -9,-2 -19,-3 -30,-2 -10,0 -23,0 -36,1 -18,1 -34,1 -49,0 -15,0 -28,-3 -39,-7 -12,-4 -23,-10 -32,-19 -9,-8 -16,-19 -23,-33 -7,-16 -10,-31 -10,-47 1,-15 4,-30 11,-43 7,-14 16,-27 29,-38 12,-12 26,-21 43,-29 17,-8 34,-13 50,-17 15,-3 30,-5 44,-5 l 23,51 c -6,0 -14,0 -22,1 -8,1 -17,2 -26,3 -9,2 -17,4 -26,7 -8,2 -16,5 -23,8 -10,5 -19,10 -25,16 -7,6 -12,13 -15,20 -3,7 -5,14 -5,22 0,7 2,15 6,22 3,9 9,15 15,20 6,4 14,8 23,9 9,2 19,3 30,3 11,0 24,-1 37,-2 18,-1 34,-1 48,0 15,1 28,4 40,9 11,4 22,11 31,20 9,8 17,20 24,34 z"
       inkscape:connector-curvature="0"
       style="fill:#eece00;fill-rule:nonzero" /><path
       id="14"
       class="fil5"
       d="m -1059,7843 c 0,11 0,23 -1,36 -1,14 -2,27 -4,41 -1,14 -3,28 -5,41 -2,14 -3,27 -5,38 l -44,14 c 0,-12 0,-24 0,-37 -1,-13 -1,-26 -2,-39 -1,-13 -2,-26 -4,-39 -1,-12 -2,-23 -4,-34 l 69,-21 z"
       inkscape:connector-curvature="0"
       style="fill:#eece00;fill-rule:nonzero" /><path
       id="15"
       class="fil5"
       d="m -676,7677 c -3,-13 -7,-23 -13,-31 -6,-8 -12,-14 -20,-19 -8,-4 -17,-6 -26,-7 -10,-1 -19,0 -30,2 -9,3 -19,6 -27,10 -9,5 -16,9 -22,13 -1,8 -2,17 -1,27 0,9 2,19 4,28 3,14 8,26 13,35 6,10 13,18 20,23 8,6 16,9 25,11 9,2 18,1 28,-1 10,-2 19,-6 26,-11 8,-6 13,-12 18,-20 4,-8 7,-17 8,-27 1,-10 0,-21 -3,-33 z m 60,-18 c 4,19 5,36 2,53 -2,17 -8,33 -16,47 -9,13 -20,25 -34,35 -14,10 -31,17 -50,22 -20,4 -39,5 -56,3 -17,-3 -32,-9 -46,-18 -13,-9 -24,-21 -33,-36 -10,-16 -17,-33 -21,-54 -5,-19 -6,-41 -5,-66 1,-24 5,-49 11,-75 7,-25 16,-52 27,-78 11,-27 25,-52 40,-77 l 65,-15 c -9,17 -18,34 -26,50 -8,17 -15,34 -22,50 -7,17 -12,32 -17,48 -5,15 -9,29 -11,42 5,-2 12,-5 20,-8 7,-2 15,-5 25,-7 16,-4 32,-5 48,-3 16,1 30,5 43,12 14,7 25,17 35,29 10,13 17,28 21,46 z"
       inkscape:connector-curvature="0"
       style="fill:#eece00;fill-rule:nonzero" /><path
       id="16"
       class="fil5"
       d="m -366,7747 c -7,5 -15,9 -24,12 -10,3 -20,5 -31,7 -25,3 -44,-1 -56,-14 -13,-12 -21,-32 -24,-60 l -18,-136 -48,6 -5,-40 49,-7 c 2,-11 4,-23 6,-36 3,-12 4,-23 6,-34 l 37,-5 9,67 71,-9 5,41 -71,9 19,145 c 1,9 5,16 10,21 5,5 12,6 21,5 7,-1 14,-2 21,-4 6,-1 12,-3 18,-5 l 5,37 z"
       inkscape:connector-curvature="0"
       style="fill:#eece00;fill-rule:nonzero" /><path
       id="17"
       class="fil5"
       d="m -61,7725 -60,5 -13,-158 c -1,-18 -6,-31 -14,-40 -8,-9 -20,-13 -35,-12 -7,0 -14,2 -20,4 -7,2 -12,5 -18,9 -5,3 -10,7 -14,11 -4,3 -8,7 -11,11 l 14,184 -59,5 -33,-402 60,-5 10,129 c 1,3 1,6 1,9 0,4 0,8 0,12 1,3 1,7 1,11 0,3 0,7 0,10 4,-4 9,-9 15,-12 5,-4 11,-8 18,-12 7,-3 14,-6 21,-8 7,-2 15,-4 23,-4 32,-3 56,4 72,20 17,16 26,40 29,73 l 13,160 z"
       inkscape:connector-curvature="0"
       style="fill:#eece00;fill-rule:nonzero" /><path
       id="18"
       class="fil5"
       d="m 241,7543 c -1,23 0,44 5,63 5,19 13,35 24,49 11,15 24,26 40,35 16,8 34,14 55,15 18,2 37,1 56,-3 19,-3 38,-9 55,-17 l -4,55 c -16,7 -34,12 -54,15 -20,3 -41,3 -63,1 -29,-2 -55,-9 -77,-21 -23,-12 -43,-28 -58,-47 -16,-19 -27,-42 -35,-67 -7,-26 -9,-53 -7,-83 3,-31 10,-59 22,-84 13,-24 28,-45 48,-63 19,-17 42,-30 67,-38 26,-8 53,-11 81,-9 10,1 20,2 30,4 10,2 19,4 29,7 9,3 18,6 26,9 9,4 16,7 23,11 l -5,54 c -7,-3 -14,-7 -23,-11 -9,-4 -18,-7 -27,-10 -9,-4 -19,-6 -29,-9 -9,-2 -19,-3 -28,-4 -20,-2 -38,1 -56,7 -17,6 -32,15 -45,28 -14,13 -25,29 -34,48 -8,19 -14,41 -16,65 z"
       inkscape:connector-curvature="0"
       style="fill:#eece00;fill-rule:nonzero" /><path
       id="19"
       class="fil5"
       d="m 718,7686 c -5,-1 -10,-2 -16,-4 -5,-1 -11,-2 -18,-3 -13,-2 -25,-3 -34,-2 -9,2 -17,4 -23,7 -5,3 -10,7 -13,12 -2,5 -4,10 -5,16 -2,10 0,19 5,27 5,7 13,12 25,14 11,2 23,1 36,-2 13,-4 24,-9 35,-16 l 8,-49 z m 37,131 c -7,-2 -14,-3 -19,-6 -6,-2 -10,-5 -14,-9 -4,-3 -7,-7 -9,-11 -2,-5 -3,-9 -4,-15 -11,8 -24,14 -39,17 -14,5 -30,5 -49,2 -14,-2 -26,-6 -37,-12 -10,-5 -18,-12 -24,-20 -6,-9 -10,-18 -12,-28 -2,-9 -2,-20 0,-31 4,-27 18,-47 41,-58 24,-11 56,-14 97,-7 7,1 13,2 19,3 6,2 12,3 19,5 3,-19 2,-34 -5,-45 -6,-11 -18,-18 -36,-21 -12,-2 -25,-3 -39,-2 -14,2 -28,4 -42,7 l 8,-46 c 12,-3 26,-6 40,-6 15,-1 30,0 43,2 18,3 33,7 46,12 12,6 23,13 30,23 8,9 13,21 16,34 2,14 2,30 -1,49 l -16,97 c -1,8 0,14 3,18 4,4 7,6 11,7 5,0 8,1 12,1 3,0 7,0 12,0 l -6,36 c -5,2 -12,4 -20,5 -8,0 -16,0 -25,-1 z"
       inkscape:connector-curvature="0"
       style="fill:#eece00;fill-rule:nonzero" /><polygon
       id="20"
       class="fil5"
       points="1030,7475 913,7861 856,7844 973,7458 "
       style="fill:#eece00;fill-rule:nonzero" /><path
       id="21"
       class="fil5"
       d="m 1189,7724 c -19,-6 -36,-7 -51,-1 -15,5 -28,16 -38,33 l 128,44 c 5,-19 5,-35 -2,-48 -7,-13 -19,-22 -37,-28 z m -154,38 c 6,-18 15,-34 27,-48 11,-13 24,-24 39,-31 14,-7 31,-11 48,-12 18,-1 36,2 55,9 19,6 35,14 47,24 12,10 21,22 28,35 6,14 9,28 9,45 0,16 -3,33 -9,51 l -9,25 -185,-63 c -2,11 -3,21 -2,31 2,10 5,19 10,28 5,8 12,16 21,23 8,6 18,12 30,16 7,2 15,4 23,5 8,1 17,2 26,3 9,0 18,0 27,-1 10,-1 19,-3 28,-5 l -15,45 c -18,3 -36,5 -54,4 -18,-1 -38,-5 -59,-13 -20,-6 -37,-15 -50,-26 -14,-11 -25,-24 -32,-39 -7,-15 -11,-31 -12,-49 -1,-18 2,-37 9,-57 z"
       inkscape:connector-curvature="0"
       style="fill:#eece00;fill-rule:nonzero" /><path
       id="22"
       class="fil5"
       d="m 1410,7907 c -7,13 -11,25 -13,36 -2,11 -1,21 1,30 2,8 6,16 12,23 6,7 13,12 21,16 7,4 14,6 21,8 7,2 14,2 21,3 7,0 13,0 19,-1 6,-1 12,-2 16,-3 l 59,-114 c -1,-3 -3,-6 -6,-10 -3,-4 -6,-8 -9,-12 -4,-4 -8,-7 -13,-11 -5,-4 -10,-7 -15,-10 -9,-5 -19,-8 -29,-10 -10,-1 -20,-1 -30,2 -10,3 -20,9 -29,17 -10,8 -18,20 -26,36 z m 119,203 -51,-27 8,-21 c -5,2 -12,2 -19,2 -7,0 -14,0 -22,-1 -8,-1 -16,-3 -23,-5 -8,-2 -16,-5 -23,-9 -15,-8 -28,-18 -38,-29 -9,-12 -17,-25 -21,-40 -4,-14 -5,-30 -2,-47 2,-18 8,-36 18,-55 10,-18 21,-33 34,-45 13,-12 28,-21 43,-26 16,-5 33,-7 50,-5 18,2 36,8 54,17 11,6 21,13 30,21 8,7 16,15 21,24 l 73,-140 53,27 -185,359 z"
       inkscape:connector-curvature="0"
       style="fill:#eece00;fill-rule:nonzero" /><path
       id="23"
       class="fil5"
       d="m 1853,8152 c 15,-24 21,-45 18,-64 -2,-19 -14,-35 -34,-48 -20,-13 -40,-17 -59,-11 -20,5 -37,19 -52,43 -7,12 -13,23 -15,34 -3,11 -4,21 -2,31 2,9 5,19 11,27 6,9 14,16 24,22 20,13 40,17 58,11 19,-6 36,-21 51,-45 z m 51,32 c -11,17 -24,31 -38,41 -15,11 -30,18 -46,22 -16,3 -34,3 -51,-1 -18,-3 -36,-11 -54,-22 -17,-11 -31,-24 -41,-38 -11,-14 -18,-29 -22,-45 -4,-16 -4,-32 0,-49 3,-17 10,-34 21,-51 11,-18 24,-32 39,-43 14,-11 30,-18 46,-21 17,-4 34,-3 52,1 18,4 36,12 55,24 17,11 31,24 42,37 10,14 17,29 20,44 4,16 3,32 -1,49 -4,17 -11,35 -22,52 z"
       inkscape:connector-curvature="0"
       style="fill:#eece00;fill-rule:nonzero" /><path
       id="24"
       class="fil5"
       d="m 2087,8483 -47,-38 98,-124 c 12,-14 17,-27 18,-39 0,-12 -6,-23 -18,-32 -5,-5 -10,-8 -16,-11 -6,-2 -12,-4 -19,-6 -6,-1 -12,-2 -18,-2 -6,0 -11,0 -17,0 l -115,145 -47,-37 160,-201 45,37 -15,21 c 6,-1 13,-1 19,0 7,0 14,1 21,3 6,2 13,4 20,8 7,3 14,7 21,13 25,20 38,41 39,64 1,22 -8,47 -28,72 l -101,127 z"
       inkscape:connector-curvature="0"
       style="fill:#eece00;fill-rule:nonzero" /><path
       id="25"
       class="fil5"
       d="m 2425,8341 c -3,4 -7,7 -11,8 -4,2 -8,3 -13,3 -4,0 -9,-1 -13,-3 -4,-2 -9,-5 -12,-8 -8,-7 -13,-14 -15,-23 -2,-9 1,-18 7,-25 7,-8 15,-12 24,-11 9,0 17,4 25,10 4,4 7,7 10,12 2,4 4,8 5,12 1,5 0,9 -1,13 0,4 -3,8 -6,12 z m -220,245 -46,-39 167,-195 45,39 -166,195 z"
       inkscape:connector-curvature="0"
       style="fill:#eece00;fill-rule:nonzero" /><path
       id="26"
       class="fil5"
       d="m 2465,8678 c -3,-4 -6,-8 -10,-12 -4,-5 -8,-9 -12,-14 -10,-10 -19,-17 -27,-22 -8,-5 -15,-8 -22,-8 -6,-1 -12,-1 -17,1 -6,2 -10,5 -14,9 -8,8 -12,16 -12,25 -1,9 3,18 11,26 8,9 18,15 30,21 12,5 25,8 37,8 l 36,-34 z m -49,127 c -5,-6 -9,-11 -12,-17 -3,-5 -5,-10 -6,-15 -1,-5 -1,-10 0,-15 1,-4 3,-9 5,-14 -13,-1 -27,-4 -41,-9 -13,-6 -27,-15 -40,-29 -10,-10 -17,-21 -22,-31 -4,-11 -7,-21 -7,-31 1,-11 3,-20 7,-29 4,-9 11,-18 19,-26 20,-19 43,-26 68,-21 26,5 53,23 82,53 4,5 8,9 12,14 4,5 8,10 13,16 14,-13 21,-26 23,-39 2,-13 -3,-26 -16,-39 -9,-9 -19,-17 -30,-25 -12,-7 -24,-14 -37,-20 l 33,-32 c 12,5 24,11 37,20 12,8 23,17 32,27 13,13 22,26 29,38 7,12 10,24 11,36 0,12 -2,25 -9,37 -6,12 -16,25 -30,38 l -71,69 c -6,5 -8,10 -8,15 0,5 1,9 4,13 3,3 6,5 9,7 2,3 6,5 9,8 l -25,25 c -7,-1 -13,-4 -20,-8 -6,-5 -13,-10 -19,-16 z"
       inkscape:connector-curvature="0"
       style="fill:#eece00;fill-rule:nonzero" /><path
       id="27"
       class="fil5"
       d="m 2629,9062 -36,-48 127,-95 c 14,-11 23,-22 26,-34 3,-12 1,-24 -8,-36 -4,-5 -9,-10 -14,-14 -5,-4 -11,-7 -16,-10 -6,-3 -12,-5 -17,-7 -6,-2 -11,-3 -17,-4 l -148,111 -36,-47 205,-155 35,47 -20,17 c 6,1 12,2 19,4 6,2 12,5 18,9 7,3 13,7 19,12 6,5 11,11 16,18 20,25 27,49 22,72 -4,22 -19,43 -45,62 l -130,98 z"
       inkscape:connector-curvature="0"
       style="fill:#eece00;fill-rule:nonzero" /><polygon
       id="28"
       class="fil5"
       points="3140,9094 2801,9313 2768,9262 3107,9043 "
       style="fill:#eece00;fill-rule:nonzero" /><path
       id="29"
       class="fil5"
       d="m 2965,9613 -29,-53 140,-74 c 16,-9 27,-19 32,-30 5,-11 4,-23 -3,-36 -3,-6 -7,-11 -12,-16 -4,-5 -9,-9 -14,-13 -5,-3 -10,-7 -16,-9 -5,-3 -10,-5 -15,-7 l -164,87 -28,-53 226,-120 27,51 -21,14 c 5,2 11,4 17,7 6,3 11,7 17,11 6,5 11,10 16,16 5,6 10,12 14,20 15,28 19,53 11,74 -8,21 -27,40 -55,55 l -143,76 z"
       inkscape:connector-curvature="0"
       style="fill:#eece00;fill-rule:nonzero" /><path
       id="30"
       class="fil5"
       d="m 3269,9678 21,55 -38,15 -21,-55 -200,79 -22,-56 200,-78 -17,-45 38,-15 17,45 52,-21 c 30,-12 55,-13 76,-5 21,9 36,25 46,50 2,5 3,10 4,16 2,6 2,11 3,16 l -46,17 c 0,-1 -1,-4 -1,-6 -1,-3 -1,-6 -2,-9 -1,-2 -1,-5 -2,-7 -1,-3 -2,-5 -2,-6 -3,-8 -9,-13 -17,-16 -8,-3 -19,-1 -32,4 l -57,22 z"
       inkscape:connector-curvature="0"
       style="fill:#eece00;fill-rule:nonzero" /><path
       id="31"
       class="fil5"
       d="m 3233,9991 c -1,-4 -2,-9 -4,-15 -1,-6 -3,-11 -5,-18 -4,-13 -9,-23 -14,-31 -5,-8 -10,-14 -16,-17 -6,-4 -11,-6 -17,-6 -5,-1 -11,0 -16,2 -10,3 -17,8 -22,17 -4,8 -5,17 -1,28 3,11 9,22 18,31 9,10 19,18 30,25 l 47,-16 z m -99,93 c -3,-7 -4,-14 -4,-20 -1,-6 0,-11 1,-16 2,-5 4,-10 7,-13 3,-4 6,-8 11,-11 -12,-7 -23,-15 -33,-26 -10,-11 -18,-26 -24,-43 -4,-14 -6,-27 -6,-39 1,-11 3,-22 8,-30 4,-10 10,-17 18,-24 8,-6 17,-11 28,-14 27,-9 50,-5 71,11 21,15 37,43 50,83 2,6 4,12 5,18 2,6 3,12 5,19 18,-6 31,-14 38,-24 7,-11 8,-25 2,-42 -4,-12 -9,-24 -16,-36 -8,-12 -16,-23 -25,-34 l 44,-14 c 9,9 17,20 25,33 7,13 13,26 17,39 5,17 9,32 9,46 1,14 -1,27 -6,38 -4,11 -12,21 -23,29 -11,9 -26,16 -44,22 l -94,30 c -7,2 -12,6 -14,11 -2,4 -3,9 -2,13 2,4 3,7 4,10 2,4 4,7 6,11 l -34,11 c -5,-3 -10,-9 -14,-15 -4,-7 -7,-15 -10,-23 z"
       inkscape:connector-curvature="0"
       style="fill:#eece00;fill-rule:nonzero" /><path
       id="32"
       class="fil5"
       d="m 3218,10407 -13,-58 154,-36 c 18,-4 31,-10 38,-20 8,-9 10,-21 7,-35 -1,-7 -4,-13 -7,-19 -3,-6 -6,-11 -10,-16 -4,-5 -8,-9 -13,-13 -4,-4 -9,-8 -13,-11 l -181,42 -13,-59 249,-57 13,57 -24,7 c 5,4 10,7 15,12 4,4 9,9 13,15 5,6 8,12 12,19 3,7 6,15 8,23 7,31 4,56 -9,74 -14,19 -36,32 -68,39 l -158,36 z"
       inkscape:connector-curvature="0"
       style="fill:#eece00;fill-rule:nonzero" /><path
       id="33"
       class="fil5"
       d="m 3254,10642 c -4,-7 -8,-15 -11,-25 -4,-9 -6,-19 -7,-30 -4,-25 1,-44 13,-56 12,-13 32,-21 60,-25 l 137,-18 -7,-47 41,-5 6,49 c 12,2 24,4 36,6 12,2 24,4 35,6 l 5,37 -68,8 9,71 -40,6 -10,-71 -145,19 c -9,1 -15,4 -20,10 -5,5 -7,12 -6,20 1,8 2,15 4,22 2,6 3,12 5,18 l -37,5 z"
       inkscape:connector-curvature="0"
       style="fill:#eece00;fill-rule:nonzero" /><path
       id="34"
       class="fil5"
       d="m 3527,10802 c 0,7 0,14 -1,21 -1,6 -3,13 -5,20 l -48,4 c 1,-7 2,-15 2,-23 0,-8 0,-15 -1,-22 -1,-8 -3,-15 -7,-20 -4,-5 -8,-9 -14,-12 -6,-3 -13,-5 -21,-5 -8,-1 -16,-1 -24,-1 l -146,12 -5,-59 169,-14 c 8,-1 16,-2 24,-3 9,-1 17,-3 25,-4 8,-2 15,-4 21,-5 7,-2 12,-4 15,-5 l 4,51 c -1,1 -4,2 -7,3 -3,2 -7,3 -10,4 -4,1 -8,3 -12,4 -5,1 -9,2 -13,3 5,2 11,5 17,8 6,3 12,7 17,11 5,4 10,9 13,14 4,5 6,11 7,18 z"
       inkscape:connector-curvature="0"
       style="fill:#eece00;fill-rule:nonzero" /><path
       id="35"
       class="fil5"
       d="m 3522,11153 -228,-97 c -9,-3 -20,-7 -34,-11 -14,-5 -28,-9 -44,-14 -16,-5 -32,-9 -48,-14 -16,-5 -32,-9 -48,-13 l 1,-61 c 15,4 29,8 42,12 12,3 25,7 37,11 12,5 24,9 36,13 12,5 26,10 40,15 41,-17 83,-34 125,-52 42,-18 84,-35 124,-52 l -1,66 -165,61 c -2,1 -5,1 -8,2 -3,1 -6,2 -8,2 2,1 5,2 7,3 3,1 5,2 8,3 l 165,64 -1,62 z"
       inkscape:connector-curvature="0"
       style="fill:#eece00;fill-rule:nonzero" /><path
       id="36"
       class="fil5"
       d="m 3519,11569 c 20,3 34,-2 45,-15 11,-12 18,-33 22,-61 l 4,-33 -122,-16 -4,30 c -4,28 -1,50 9,66 10,17 25,27 46,29 z m -305,56 10,-72 191,-88 3,-28 -176,-23 8,-61 400,53 -12,91 c -3,21 -7,41 -13,59 -6,17 -14,33 -24,45 -10,12 -22,21 -36,27 -15,6 -32,8 -52,5 -15,-2 -28,-6 -40,-13 -11,-7 -21,-15 -29,-25 -8,-10 -14,-21 -18,-32 -5,-12 -8,-24 -9,-37 l -203,99 z"
       inkscape:connector-curvature="0"
       style="fill:#eece00;fill-rule:nonzero" /><path
       id="37"
       class="fil5"
       d="m 3381,11847 c 5,-20 3,-37 -4,-51 -7,-15 -19,-26 -37,-34 l -30,132 c 19,3 35,0 47,-8 12,-8 20,-21 24,-39 z m -54,-149 c 19,4 36,11 51,21 14,10 26,22 35,36 8,14 14,30 16,47 3,17 2,36 -2,56 -5,19 -11,35 -20,48 -9,14 -20,24 -32,32 -13,7 -27,12 -43,13 -16,2 -34,1 -53,-4 l -25,-5 43,-191 c -10,-2 -20,-1 -30,1 -10,3 -19,7 -27,13 -8,6 -15,14 -21,23 -5,9 -10,20 -12,32 -2,7 -3,15 -3,23 -1,8 -1,17 0,26 0,9 2,18 3,27 2,9 5,18 8,27 l -46,-10 c -5,-17 -9,-35 -9,-53 -1,-19 1,-39 6,-61 4,-20 11,-37 21,-52 10,-15 21,-27 35,-36 14,-9 30,-14 48,-17 17,-2 36,-1 57,4 z"
       inkscape:connector-curvature="0"
       style="fill:#eece00;fill-rule:nonzero" /><path
       id="38"
       class="fil5"
       d="m 3211,12077 c -13,-5 -24,-7 -34,-8 -10,0 -19,1 -26,5 -8,3 -14,8 -19,14 -5,7 -10,15 -13,24 -3,11 -5,22 -4,36 1,13 4,26 9,40 l 135,47 c 3,-5 6,-11 9,-17 2,-6 5,-13 7,-20 6,-16 8,-31 7,-44 -2,-13 -6,-25 -12,-35 -7,-10 -15,-19 -25,-26 -10,-7 -22,-12 -34,-16 z m 19,-59 c 20,7 38,17 53,30 14,12 25,27 33,43 8,16 12,34 12,54 1,20 -3,40 -10,62 -4,10 -7,19 -11,28 -5,9 -9,18 -13,26 -5,8 -9,16 -13,23 -5,6 -9,12 -13,17 l -218,-76 c -25,-8 -47,-18 -65,-29 -17,-11 -31,-24 -40,-39 -9,-15 -14,-32 -15,-52 0,-19 4,-41 13,-67 5,-14 11,-28 17,-41 7,-13 14,-24 22,-34 l 48,17 c -10,13 -18,26 -25,39 -8,14 -13,27 -18,39 -5,15 -7,28 -5,39 2,11 7,21 14,30 7,8 16,16 28,22 11,7 24,12 38,17 l 19,7 c -4,-14 -7,-28 -7,-42 -1,-15 1,-30 7,-45 6,-18 14,-32 23,-44 10,-11 22,-20 34,-25 13,-6 27,-9 43,-8 15,0 32,3 49,9 z"
       inkscape:connector-curvature="0"
       style="fill:#eece00;fill-rule:nonzero" /><path
       id="39"
       class="fil5"
       d="m 3035,12311 c 5,2 9,6 13,9 3,4 6,9 7,14 2,5 3,10 2,15 0,6 -1,11 -4,17 -2,5 -5,10 -9,13 -4,4 -9,7 -13,9 -5,2 -10,3 -15,3 -5,0 -11,-1 -16,-3 -5,-2 -9,-6 -12,-9 -4,-4 -6,-9 -8,-14 -2,-5 -3,-10 -2,-15 0,-6 1,-11 4,-17 2,-5 5,-10 9,-14 4,-3 9,-6 14,-8 4,-2 10,-3 15,-3 5,0 10,1 15,3 z"
       inkscape:connector-curvature="0"
       style="fill:#eece00;fill-rule:nonzero" /><path
       class="fil6"
       d="m -2756,13144 134,156 57,-184 -191,28 z m 121,203 -170,-197 -100,12 c -5,1 -9,0 -12,-1 -4,-1 -7,-3 -8,-5 -5,-5 -7,-11 -8,-18 0,-7 2,-13 8,-18 3,-2 7,-4 12,-5 l 348,-44 c 7,-1 14,0 20,3 6,3 11,6 15,11 9,10 11,21 8,35 l -93,340 c 0,3 -1,5 -3,7 -1,2 -2,4 -4,5 -5,4 -11,6 -17,5 -7,-2 -12,-5 -16,-10 -3,-2 -4,-6 -5,-10 -2,-4 -2,-8 -1,-13 l 26,-97 z m 303,23 c -12,11 -25,9 -41,-7 -14,-15 -15,-28 -3,-39 12,-12 25,-10 39,5 15,16 17,29 5,41 z m -207,187 c -10,10 -20,9 -31,-3 -10,-10 -11,-21 -1,-30 l 149,-143 c 10,-9 20,-9 30,1 11,12 12,23 2,32 l -149,143 z m 287,-10 c -34,-30 -59,-35 -77,-14 l -107,122 c -9,11 -19,11 -32,0 -11,-10 -13,-21 -3,-31 l 106,-123 c 35,-39 82,-33 143,20 l 16,14 c 9,7 9,16 0,26 -8,10 -16,12 -23,5 l -23,-19 z m 412,492 c -25,38 -65,40 -121,5 l -169,-108 c -12,-8 -15,-17 -8,-28 7,-11 17,-13 29,-6 l 176,113 c 24,15 41,14 52,-2 l 8,-14 c 10,-16 2,-33 -25,-50 l -94,-60 c -62,-39 -81,-77 -57,-114 l 9,-15 c 23,-35 63,-35 122,3 l 47,30 c 11,7 14,16 7,27 -7,11 -16,13 -28,6 l -56,-36 c -26,-17 -44,-18 -52,-4 l -9,13 c -10,16 0,34 31,54 l 96,61 c 58,36 74,74 50,112 l -8,13 z m 375,73 c 12,-22 -3,-44 -42,-64 l -97,-49 c -43,-22 -70,-21 -83,4 l -46,90 c -12,23 4,46 47,68 l 96,49 c 40,20 66,18 78,-5 l 47,-93 z m -4,115 c -24,47 -73,52 -145,15 l -85,-44 c -74,-37 -99,-80 -76,-127 l 46,-89 c 24,-48 74,-53 149,-15 l 84,43 c 72,37 97,79 72,127 l -45,90 z m 373,213 c -5,13 -15,16 -30,10 -15,-5 -20,-15 -15,-28 l 62,-159 c 8,-20 -8,-37 -48,-53 l -111,-43 c -40,-16 -64,-14 -72,6 l -62,159 c -5,13 -15,17 -29,11 -15,-6 -20,-15 -15,-28 l 62,-159 c 17,-44 65,-51 143,-21 l 85,34 c 78,30 109,68 92,112 l -62,159 z m 627,9 -213,-38 c -37,-6 -57,2 -61,25 l -6,35 c -4,22 13,36 52,43 l 154,27 c 38,6 59,-7 65,-40 l 9,-52 z m 34,73 c -9,50 -50,69 -123,56 l -136,-24 c -77,-13 -111,-44 -102,-92 l 5,-33 c 9,-50 51,-68 126,-55 l 203,36 c 1,-26 -16,-42 -50,-48 l -57,-10 c -11,-2 -16,-10 -13,-23 2,-12 8,-17 20,-16 l 49,9 c 73,13 105,45 96,96 l -18,104 z m 207,-130 c -45,-3 -69,8 -71,35 l -12,162 c -1,14 -9,20 -25,19 -16,-1 -23,-9 -22,-23 l 12,-162 c 4,-52 46,-75 126,-69 l 21,1 c 12,1 17,8 16,21 -1,13 -6,19 -16,18 l -29,-2 z m 600,-10 -184,14 c -48,3 -71,21 -69,51 l 7,93 c 2,28 26,40 72,37 l 109,-9 c 52,-4 77,-20 75,-48 l -10,-138 z m 57,140 c 4,51 -38,80 -126,86 l -89,7 c -86,6 -131,-14 -134,-62 l -8,-108 c -4,-53 37,-83 123,-89 l 174,-14 -5,-61 c -1,-14 6,-21 21,-22 16,-2 24,5 25,19 l 19,244 z m 426,-72 c 8,50 -31,82 -118,97 l -80,14 c -88,15 -136,-2 -144,-51 l -29,-166 c -3,-13 4,-21 19,-24 15,-3 24,3 27,16 l 28,166 c 5,23 32,31 84,22 l 96,-17 c 50,-9 73,-25 69,-48 l -29,-167 c -2,-13 5,-20 21,-23 15,-3 24,2 27,15 l 29,166 z m 103,-187 56,194 c 4,14 -1,23 -16,27 -16,4 -25,0 -29,-14 l -56,-194 -22,6 c -13,4 -21,-1 -25,-14 -3,-12 2,-20 14,-23 l 22,-7 -16,-59 c -4,-13 2,-22 17,-27 15,-4 24,1 28,14 l 17,59 90,-26 c 13,-3 21,1 25,14 3,12 -1,20 -14,24 l -91,26 z m 555,14 c 5,13 0,22 -14,28 -15,6 -25,2 -31,-11 l -58,-147 c -11,-27 -41,-31 -90,-12 l -160,64 74,188 c 5,13 1,23 -14,29 -15,5 -25,2 -30,-11 l -112,-282 c -5,-13 0,-22 14,-28 15,-6 25,-2 31,11 l 22,57 147,-58 c 88,-35 142,-27 162,23 l 59,149 z m 199,-85 c -74,43 -124,42 -149,-3 l -53,-93 c -25,-44 -4,-85 63,-124 l 151,-86 c 13,-7 23,-5 29,6 6,11 3,21 -9,28 l -157,89 c -37,21 -49,42 -37,63 l 52,92 c 13,23 41,22 83,-2 l 148,-85 c 12,-6 21,-3 28,9 6,11 3,19 -8,26 l -141,80 z m 511,-353 c 8,12 5,22 -8,31 -13,10 -23,9 -31,-3 l -92,-129 c -17,-24 -48,-20 -91,10 l -140,101 117,164 c 8,12 6,22 -7,31 -13,10 -23,8 -31,-3 l -176,-247 c -8,-11 -6,-21 7,-31 13,-9 23,-8 32,4 l 35,50 128,-92 c 78,-55 132,-60 164,-15 l 93,129 z m 215,-357 -157,150 c -27,25 -32,47 -16,63 l 25,26 c 15,16 37,10 65,-17 l 113,-108 c 28,-27 30,-52 7,-76 l -37,-38 z m 79,16 c 35,37 26,81 -28,132 l -100,96 c -56,54 -101,63 -134,28 l -24,-25 c -35,-36 -25,-80 30,-133 l 149,-143 c -20,-16 -43,-12 -68,12 l -42,40 c -8,8 -17,7 -26,-3 -9,-9 -9,-17 -1,-25 l 36,-35 c 54,-51 99,-58 134,-20 l 74,76 z m 134,-58 c 10,10 10,20 -1,31 -11,12 -22,13 -32,3 l -219,-208 c -11,-10 -10,-21 1,-32 11,-11 21,-12 31,-3 l 220,209 z m 220,-344 c 36,29 34,69 -7,121 l -125,157 c -9,11 -18,13 -28,5 -11,-8 -12,-18 -3,-29 l 130,-164 c 17,-22 18,-39 3,-52 l -12,-9 c -15,-12 -33,-6 -53,19 l -69,88 c -46,57 -86,72 -120,45 l -13,-11 c -34,-26 -29,-66 15,-121 l 34,-43 c 9,-11 18,-12 28,-4 10,8 11,17 3,28 l -42,52 c -19,24 -22,41 -9,52 l 12,9 c 15,12 34,4 57,-25 l 71,-89 c 42,-54 81,-66 116,-38 l 12,9 z"
       id="path3643"
       inkscape:connector-curvature="0"
       style="fill:#015385;fill-rule:nonzero" /></g></svg>