<?xml version="1.0" encoding="UTF-8" standalone="no"?>
<!-- Creator: CorelDRAW X7 -->

<svg
   xmlns:dc="http://purl.org/dc/elements/1.1/"
   xmlns:cc="http://creativecommons.org/ns#"
   xmlns:rdf="http://www.w3.org/1999/02/22-rdf-syntax-ns#"
   xmlns:svg="http://www.w3.org/2000/svg"
   xmlns="http://www.w3.org/2000/svg"
   xmlns:sodipodi="http://sodipodi.sourceforge.net/DTD/sodipodi-0.dtd"
   xmlns:inkscape="http://www.inkscape.org/namespaces/inkscape"
   xml:space="preserve"
   width="7.8740005in"
   height="7.8740005in"
   version="1.1"
   style="clip-rule:evenodd;fill-rule:evenodd;image-rendering:optimizeQuality;shape-rendering:geometricPrecision;text-rendering:geometricPrecision"
   viewBox="0 0 7874.0005 7874.0005"
   id="svg3751"
   inkscape:version="0.91 r13725"
   sodipodi:docname="Haqqislam - Maghariba Guard - [N3] [Vyo].svg"><metadata
     id="metadata3771"><rdf:RDF><cc:Work
         rdf:about=""><dc:format>image/svg+xml</dc:format><dc:type
           rdf:resource="http://purl.org/dc/dcmitype/StillImage" /></cc:Work></rdf:RDF></metadata><sodipodi:namedview
     pagecolor="#ffffff"
     bordercolor="#666666"
     borderopacity="1"
     objecttolerance="10"
     gridtolerance="10"
     guidetolerance="10"
     inkscape:pageopacity="0"
     inkscape:pageshadow="2"
     inkscape:window-width="640"
     inkscape:window-height="480"
     id="namedview3769"
     showgrid="false"
     inkscape:zoom="0.23838384"
     inkscape:cx="736.83001"
     inkscape:cy="849.33005"
     inkscape:window-x="0"
     inkscape:window-y="0"
     inkscape:window-maximized="0"
     inkscape:current-layer="svg3751" /><defs
     id="defs3753"><style
       type="text/css"
       id="style3755"><![CDATA[
    .fil0 {fill:none}
    .fil3 {fill:#6F3F82}
    .fil2 {fill:#B2C801}
    .fil1 {fill:#EECE00}
   ]]></style></defs><g
     id="Layer_x0020_1"
     transform="translate(3937,-7063)"><metadata
       id="CorelCorpID_0Corel-Layer" /><circle
       class="fil0"
       cy="11512"
       r="2244"
       id="circle3759"
       cx="0"
       style="fill:none" /><circle
       class="fil0"
       cy="11512"
       r="1102"
       id="circle3761"
       cx="0"
       style="fill:none" /><circle
       class="fil1"
       cy="11000"
       r="3937"
       id="circle3763"
       cx="0"
       style="fill:#eece00" /><circle
       class="fil2"
       cy="11000"
       r="3819"
       id="circle3765"
       cx="0"
       style="fill:#b2c801" /><path
       class="fil3"
       d="m 1410,9766 c 509,412 834,1041 834,1746 0,1239 -1005,2244 -2244,2244 -422,0 -816,-117 -1153,-319 84,9 171,13 259,13 382,0 782,-84 1124,-280 343,-197 626,-507 770,-957 66,-205 102,-437 102,-701 0,-398 -211,-747 -527,-941 181,-346 469,-620 835,-805 z m -2786,3518 c -528,-410 -868,-1051 -868,-1772 0,-705 325,-1334 834,-1746 366,185 654,459 835,805 -316,194 -527,543 -527,941 0,432 249,807 611,987 185,-327 255,-646 255,-987 0,-1103 -709,-1811 -1654,-2047 315,-315 1103,-512 1418,-276 -40,-354 78,-827 472,-984 394,157 512,630 472,984 315,-236 1103,-39 1418,276 -945,236 -1654,944 -1654,2047 0,341 70,660 255,987 161,-80 300,-199 404,-344 -2,8 -4,15 -7,22 -134,419 -397,707 -717,890 -322,185 -702,265 -1065,265 -167,0 -330,-17 -482,-48 z"
       id="path3767"
       inkscape:connector-curvature="0"
       style="fill:#6f3f82" /></g></svg>