<?xml version="1.0" encoding="UTF-8" standalone="no"?>
<!-- Creator: CorelDRAW X7 -->

<svg
   xmlns:dc="http://purl.org/dc/elements/1.1/"
   xmlns:cc="http://creativecommons.org/ns#"
   xmlns:rdf="http://www.w3.org/1999/02/22-rdf-syntax-ns#"
   xmlns:svg="http://www.w3.org/2000/svg"
   xmlns="http://www.w3.org/2000/svg"
   xmlns:sodipodi="http://sodipodi.sourceforge.net/DTD/sodipodi-0.dtd"
   xmlns:inkscape="http://www.inkscape.org/namespaces/inkscape"
   xml:space="preserve"
   width="7.8740005in"
   height="7.8740005in"
   version="1.1"
   style="clip-rule:evenodd;fill-rule:evenodd;image-rendering:optimizeQuality;shape-rendering:geometricPrecision;text-rendering:geometricPrecision"
   viewBox="0 0 7874.0005 7874.0005"
   id="svg3540"
   inkscape:version="0.91 r13725"
   sodipodi:docname="Haqqislam - Hassassin Fiday - [N3] [Vyo].svg"><metadata
     id="metadata3556"><rdf:RDF><cc:Work
         rdf:about=""><dc:format>image/svg+xml</dc:format><dc:type
           rdf:resource="http://purl.org/dc/dcmitype/StillImage" /></cc:Work></rdf:RDF></metadata><sodipodi:namedview
     pagecolor="#ffffff"
     bordercolor="#666666"
     borderopacity="1"
     objecttolerance="10"
     gridtolerance="10"
     guidetolerance="10"
     inkscape:pageopacity="0"
     inkscape:pageshadow="2"
     inkscape:window-width="640"
     inkscape:window-height="480"
     id="namedview3554"
     showgrid="false"
     inkscape:zoom="0.23838384"
     inkscape:cx="736.83001"
     inkscape:cy="849.33005"
     inkscape:window-x="0"
     inkscape:window-y="0"
     inkscape:window-maximized="0"
     inkscape:current-layer="svg3540" /><defs
     id="defs3542"><style
       type="text/css"
       id="style3544"><![CDATA[
    .fil1 {fill:#B2C801}
    .fil0 {fill:#EECE00}
   ]]></style></defs><g
     id="Layer_x0020_1"
     transform="translate(3937,-7063)"><metadata
       id="CorelCorpID_0Corel-Layer" /><circle
       class="fil0"
       cy="11000"
       r="3937"
       id="circle3548"
       cx="0"
       style="fill:#eece00" /><circle
       class="fil1"
       cy="11000"
       r="3819"
       id="circle3550"
       cx="0"
       style="fill:#b2c801" /><path
       class="fil0"
       d="m 0,13953 c 344,0 675,-59 982,-168 L -180,12310 c -64,6 -129,9 -194,9 -1131,0 -2047,-917 -2047,-2047 0,-1131 916,-2048 2047,-2048 l 1384,0 C 695,8110 355,8047 0,8047 c -1631,0 -2953,1322 -2953,2953 0,1631 1322,2953 2953,2953 z M 934,8697 c 452,375 739,941 739,1575 0,883 -559,1636 -1343,1923 l 1096,1391 c 910,-503 1527,-1472 1527,-2586 0,-931 -432,-1762 -1105,-2303 l -914,0 z"
       id="path3552"
       inkscape:connector-curvature="0"
       style="fill:#eece00" /></g></svg>