<?xml version="1.0" encoding="UTF-8" standalone="no"?>
<!-- Creator: CorelDRAW X7 -->

<svg
   xmlns:dc="http://purl.org/dc/elements/1.1/"
   xmlns:cc="http://creativecommons.org/ns#"
   xmlns:rdf="http://www.w3.org/1999/02/22-rdf-syntax-ns#"
   xmlns:svg="http://www.w3.org/2000/svg"
   xmlns="http://www.w3.org/2000/svg"
   xmlns:sodipodi="http://sodipodi.sourceforge.net/DTD/sodipodi-0.dtd"
   xmlns:inkscape="http://www.inkscape.org/namespaces/inkscape"
   xml:space="preserve"
   width="7.8740005in"
   height="7.8740005in"
   version="1.1"
   style="clip-rule:evenodd;fill-rule:evenodd;image-rendering:optimizeQuality;shape-rendering:geometricPrecision;text-rendering:geometricPrecision"
   viewBox="0 0 7874.0005 7874.0005"
   id="svg4708"
   inkscape:version="0.91 r13725"
   sodipodi:docname="Haqqislam - Ghazi Muttawi'ah - [N3] [Vyo].svg"><metadata
     id="metadata4736"><rdf:RDF><cc:Work
         rdf:about=""><dc:format>image/svg+xml</dc:format><dc:type
           rdf:resource="http://purl.org/dc/dcmitype/StillImage" /></cc:Work></rdf:RDF></metadata><sodipodi:namedview
     pagecolor="#ffffff"
     bordercolor="#666666"
     borderopacity="1"
     objecttolerance="10"
     gridtolerance="10"
     guidetolerance="10"
     inkscape:pageopacity="0"
     inkscape:pageshadow="2"
     inkscape:window-width="640"
     inkscape:window-height="480"
     id="namedview4734"
     showgrid="false"
     inkscape:zoom="0.23838384"
     inkscape:cx="736.83001"
     inkscape:cy="849.33005"
     inkscape:window-x="0"
     inkscape:window-y="0"
     inkscape:window-maximized="0"
     inkscape:current-layer="svg4708" /><defs
     id="defs4710"><style
       type="text/css"
       id="style4712"><![CDATA[
    .fil0 {fill:#A6CC39}
    .fil1 {fill:white}
    .fil2 {fill:white;fill-rule:nonzero}
   ]]></style></defs><g
     id="Layer_x0020_1"
     transform="translate(3937,-7063)"><metadata
       id="CorelCorpID_0Corel-Layer" /><circle
       class="fil0"
       cy="11000"
       r="3937"
       id="circle4716"
       cx="0"
       style="fill:#a6cc39" /><path
       class="fil1"
       d="m -1810,7592 5668,3408 -5668,3408 c -1218,-648 -2048,-1931 -2048,-3408 0,-1477 830,-2760 2048,-3408 z"
       id="path4718"
       inkscape:connector-curvature="0"
       style="fill:#ffffff" /><circle
       class="fil1"
       cx="276"
       cy="11000"
       r="2402"
       id="circle4720"
       style="fill:#ffffff" /><circle
       class="fil0"
       cx="276"
       cy="11000"
       r="2323"
       id="circle4722"
       style="fill:#a6cc39" /><circle
       class="fil1"
       cx="-138"
       cy="11000"
       r="2303"
       id="circle4724"
       style="fill:#ffffff" /><path
       class="fil2"
       d="m 276,13323 c 1282,0 2322,-1040 2322,-2323 0,-1283 -1040,-2323 -2322,-2323 -1283,0 -2323,1040 -2323,2323 0,1283 1040,2323 2323,2323 z m 0,79 c -1327,0 -2402,-1076 -2402,-2402 0,-1326 1075,-2402 2402,-2402 1326,0 2401,1076 2401,2402 0,1326 -1075,2402 -2401,2402 z"
       id="path4726"
       inkscape:connector-curvature="0"
       style="fill:#ffffff;fill-rule:nonzero" /><circle
       class="fil0"
       cx="-354"
       cy="11000"
       r="2106"
       id="circle4728"
       style="fill:#a6cc39" /><circle
       class="fil1"
       cx="295"
       cy="11000"
       r="1870"
       id="circle4730"
       style="fill:#ffffff" /><circle
       class="fil0"
       cx="217"
       cy="11000"
       r="1654"
       id="circle4732"
       style="fill:#a6cc39" /></g></svg>