<?xml version="1.0" encoding="UTF-8" standalone="no"?>
<!-- Creator: CorelDRAW X7 -->

<svg
   xmlns:dc="http://purl.org/dc/elements/1.1/"
   xmlns:cc="http://creativecommons.org/ns#"
   xmlns:rdf="http://www.w3.org/1999/02/22-rdf-syntax-ns#"
   xmlns:svg="http://www.w3.org/2000/svg"
   xmlns="http://www.w3.org/2000/svg"
   xmlns:sodipodi="http://sodipodi.sourceforge.net/DTD/sodipodi-0.dtd"
   xmlns:inkscape="http://www.inkscape.org/namespaces/inkscape"
   xml:space="preserve"
   width="7.8740005in"
   height="7.8740005in"
   version="1.1"
   style="clip-rule:evenodd;fill-rule:evenodd;image-rendering:optimizeQuality;shape-rendering:geometricPrecision;text-rendering:geometricPrecision"
   viewBox="0 0 7874.0005 7874.0005"
   id="svg5836"
   inkscape:version="0.91 r13725"
   sodipodi:docname="haqqislam_najjarun_engineer.svg"><metadata
     id="metadata5862"><rdf:RDF><cc:Work
         rdf:about=""><dc:format>image/svg+xml</dc:format><dc:type
           rdf:resource="http://purl.org/dc/dcmitype/StillImage" /></cc:Work></rdf:RDF></metadata><sodipodi:namedview
     pagecolor="#ffffff"
     bordercolor="#666666"
     borderopacity="1"
     objecttolerance="10"
     gridtolerance="10"
     guidetolerance="10"
     inkscape:pageopacity="0"
     inkscape:pageshadow="2"
     inkscape:window-width="640"
     inkscape:window-height="480"
     id="namedview5860"
     showgrid="false"
     inkscape:zoom="0.23838384"
     inkscape:cx="736.83001"
     inkscape:cy="849.33005"
     inkscape:window-x="0"
     inkscape:window-y="0"
     inkscape:window-maximized="0"
     inkscape:current-layer="svg5836" /><defs
     id="defs5838"><style
       type="text/css"
       id="style5840"><![CDATA[
    .fil0 {fill:none}
    .fil2 {fill:#B2C801}
    .fil1 {fill:#EECE00}
    .fil3 {fill:white}
    .fil4 {fill:white;fill-rule:nonzero}
   ]]></style></defs><g
     id="Layer_x0020_1"
     transform="translate(3937,-7063)"><metadata
       id="CorelCorpID_0Corel-Layer" /><circle
       class="fil0"
       cy="11000"
       r="2835"
       id="circle5844"
       cx="0"
       style="fill:none" /><circle
       class="fil0"
       cx="-197"
       cy="10803"
       r="2638"
       id="circle5846"
       style="fill:none" /><circle
       class="fil1"
       cy="11000"
       r="3937"
       id="circle5848"
       cx="0"
       style="fill:#eece00" /><circle
       class="fil2"
       cy="11000"
       r="3819"
       id="circle5850"
       cx="0"
       style="fill:#b2c801" /><path
       class="fil3"
       d="m 0,8165 c 345,0 676,62 982,175 l 155,-187 863,550 -94,199 c 219,199 407,433 556,692 l 239,-44 308,976 -200,92 c 17,125 26,252 26,382 0,172 -16,341 -45,505 l 211,120 -392,946 -211,-58 c -160,252 -358,477 -586,667 l 85,228 -908,473 -124,-181 c -273,87 -563,135 -865,135 -4,0 -8,0 -13,-1 l -82,230 -999,-222 21,-218 c -278,-113 -533,-270 -759,-461 l -210,123 -623,-812 156,-154 c -208,-394 -326,-843 -326,-1320 0,-34 1,-67 2,-100 51,1412 1212,2541 2636,2541 1457,0 2638,-1181 2638,-2638 0,-1424 -1129,-2585 -2541,-2636 33,-1 66,-2 100,-2 z"
       id="path5852"
       inkscape:connector-curvature="0"
       style="fill:#ffffff" /><path
       class="fil4"
       d="m 671,12801 -79,10 c -46,6 -80,2 -101,-13 -22,-14 -35,-42 -41,-81 -2,-15 -2,-34 -1,-57 0,-8 1,-20 2,-34 -63,29 -110,52 -141,70 -58,34 -101,69 -130,107 -37,46 -53,96 -46,148 11,82 61,139 152,169 79,26 180,31 304,15 l 105,-13 5,6 -118,107 -33,5 c -82,10 -151,11 -208,3 -67,-10 -121,-33 -159,-69 -44,-41 -71,-100 -81,-176 -8,-65 0,-124 27,-177 20,-42 52,-81 97,-119 13,-12 49,-38 109,-81 -16,0 -32,0 -49,1 -17,1 -33,2 -46,4 -39,5 -70,11 -93,17 -8,2 -32,11 -73,25 8,-39 18,-67 30,-83 28,-36 75,-58 143,-67 37,-5 77,-6 121,-5 44,2 81,1 110,-3 20,-2 39,-6 57,-10 18,-4 37,-8 57,-13 l -10,100 c -16,4 -33,9 -52,15 -13,4 -29,9 -51,16 l 3,32 c 4,32 16,52 37,60 13,5 33,6 62,2 l 78,-10 13,99 z m 328,-98 c 9,15 10,36 2,60 -22,30 -58,78 -108,144 -9,-14 -10,-32 -4,-54 21,-28 57,-78 110,-150 z m 147,-212 -37,23 c -21,13 -41,21 -59,24 -19,4 -37,4 -56,1 -8,22 -17,38 -26,49 -13,16 -34,33 -63,51 l -32,20 c -18,11 -37,18 -58,22 -13,2 -32,4 -54,4 -9,22 -18,38 -29,51 -10,12 -30,28 -59,46 l -95,58 -53,-85 95,-59 c 27,-16 45,-30 53,-42 15,-19 15,-40 1,-62 -6,-10 -12,-19 -19,-28 -7,-9 -15,-18 -25,-29 l 2,-41 c 28,24 49,41 63,52 25,17 48,28 68,32 24,6 47,2 68,-11 l 33,-20 c 25,-16 41,-31 48,-45 8,-17 6,-35 -5,-53 -6,-11 -13,-20 -20,-29 -7,-8 -15,-18 -24,-27 l 1,-42 39,40 c 31,31 57,50 79,56 19,6 37,3 57,-9 8,-5 14,-12 16,-21 2,-9 0,-18 -5,-26 -11,-19 -30,-34 -56,-46 -4,-2 -19,-8 -44,-18 l -1,-72 c 26,12 46,24 60,36 20,18 42,45 65,82 l 72,118 z m -121,-860 34,88 -98,37 -34,-86 98,-39 z m -47,132 35,88 -98,39 -35,-87 98,-40 z m 662,208 -54,62 c -18,21 -52,24 -101,9 -37,-11 -80,-31 -128,-60 9,22 12,44 9,65 -2,21 -10,39 -23,54 -29,33 -55,59 -79,77 -24,19 -39,25 -46,19 -25,-22 -39,-62 -41,-121 -2,-58 6,-122 26,-190 -3,-2 -10,-5 -21,-12 -12,-7 -19,-11 -21,-13 -10,-9 -18,-22 -24,-39 -5,-14 -9,-30 -11,-49 20,13 40,25 60,37 19,11 39,23 61,34 l 86,52 c 47,29 84,49 108,60 38,17 61,21 70,11 l 54,-62 75,66 z m -326,-17 -54,-32 c -13,33 -21,60 -24,83 -3,23 0,46 7,70 8,-4 16,-9 25,-16 8,-7 19,-17 31,-31 15,-18 20,-42 15,-74 z m 523,-516 -14,42 c -8,23 -18,42 -30,56 -12,15 -27,27 -43,36 7,22 11,40 11,54 0,21 -5,48 -17,80 l -12,36 c -6,19 -17,37 -30,53 -9,11 -22,24 -40,38 7,22 11,41 11,57 0,16 -6,41 -17,74 l -37,105 -94,-33 36,-105 c 10,-30 15,-52 14,-66 -1,-24 -14,-41 -39,-49 -11,-4 -21,-7 -32,-9 -11,-3 -23,-5 -37,-7 l -26,-33 c 37,1 64,1 82,0 31,-3 55,-9 73,-18 22,-11 37,-28 45,-52 l 13,-37 c 10,-27 13,-49 9,-65 -5,-18 -17,-30 -38,-37 -11,-4 -22,-7 -33,-10 -11,-2 -23,-4 -36,-6 l -26,-33 56,7 c 43,4 75,2 96,-7 18,-8 31,-22 38,-43 3,-10 3,-19 -1,-27 -4,-8 -10,-14 -20,-17 -20,-7 -45,-7 -72,0 -5,1 -20,6 -45,14 l -47,-55 c 27,-7 50,-10 68,-10 28,1 62,8 103,22 l 131,45 z m 57,-366 -44,254 c -4,21 -13,40 -29,55 -15,15 -31,21 -48,18 -15,-3 -28,-6 -39,-9 -11,-4 -24,-9 -37,-16 l 2,-11 c 16,-2 28,-7 37,-17 7,-8 12,-20 15,-36 l 38,-220 c -67,-12 -124,-12 -168,0 -56,15 -97,48 -123,100 l -109,-28 c 43,-60 103,-98 178,-113 61,-12 137,-10 228,6 l 99,17 z m -546,-228 83,45 -51,92 -83,-44 51,-93 z m 534,-36 -6,328 -101,-2 6,-287 c -45,0 -80,4 -104,15 -17,7 -40,24 -72,53 l -94,-47 c 36,-27 63,-44 83,-50 30,-10 79,-14 147,-13 l 141,3 z m -207,-691 82,194 c 1,-27 8,-52 21,-76 16,-31 39,-52 67,-64 28,-12 52,-17 72,-15 26,2 43,14 53,37 17,42 19,87 4,135 -17,57 -55,98 -114,122 l -38,15 49,118 -93,39 -56,-135 c -39,1 -75,0 -109,-3 -44,-3 -81,-11 -113,-22 -36,-13 -58,-29 -67,-50 -5,-11 1,-25 17,-41 15,-16 34,-29 55,-38 32,-13 60,-16 87,-8 15,5 45,26 89,64 l -98,-233 92,-39 z m -108,252 c -34,14 -48,28 -42,42 6,15 31,27 73,34 20,3 53,7 98,10 -22,-28 -45,-51 -68,-67 -26,-19 -47,-26 -61,-19 z m 290,-146 c -28,11 -47,43 -55,95 -7,43 -7,82 1,117 39,-17 67,-40 84,-69 21,-35 22,-76 4,-121 -4,-8 -9,-15 -15,-20 -6,-4 -13,-5 -19,-2 z m -301,-305 131,253 -89,46 -104,-201 -403,288 1,33 c -24,12 -47,21 -70,28 -22,6 -46,10 -69,12 l 2,-11 c 19,-10 28,-29 27,-57 -2,-20 -5,-41 -7,-62 17,-9 36,-17 56,-24 21,-8 37,-12 49,-13 l 4,29 372,-269 100,-52 z m -233,-47 c 26,-18 53,-30 83,-38 16,-4 43,-7 82,-11 l 1,12 c -10,5 -21,12 -33,20 -13,7 -21,12 -25,15 -33,23 -77,58 -132,104 -55,47 -111,96 -170,148 -36,32 -72,64 -108,98 -18,4 -38,7 -60,10 -22,3 -42,6 -61,9 32,-30 77,-71 133,-123 57,-51 109,-97 156,-136 58,-50 103,-86 134,-108 z"
       id="path5854"
       inkscape:connector-curvature="0"
       style="fill:#ffffff;fill-rule:nonzero" /><circle
       class="fil0"
       cy="11000"
       r="3898"
       id="circle5856"
       cx="0"
       style="fill:none" /><path
       class="fil3"
       d="m 0,7496 c 1935,0 3504,1569 3504,3504 0,1935 -1569,3504 -3504,3504 -1935,0 -3504,-1569 -3504,-3504 0,-1935 1569,-3504 3504,-3504 z m 0,276 c 1783,0 3228,1445 3228,3228 0,1783 -1445,3228 -3228,3228 -1783,0 -3228,-1445 -3228,-3228 0,-1783 1445,-3228 3228,-3228 z"
       id="path5858"
       inkscape:connector-curvature="0"
       style="fill:#ffffff" /></g></svg>