<?xml version="1.0" encoding="UTF-8" standalone="no"?>
<!-- Creator: CorelDRAW X7 -->

<svg
   xmlns:dc="http://purl.org/dc/elements/1.1/"
   xmlns:cc="http://creativecommons.org/ns#"
   xmlns:rdf="http://www.w3.org/1999/02/22-rdf-syntax-ns#"
   xmlns:svg="http://www.w3.org/2000/svg"
   xmlns="http://www.w3.org/2000/svg"
   xmlns:sodipodi="http://sodipodi.sourceforge.net/DTD/sodipodi-0.dtd"
   xmlns:inkscape="http://www.inkscape.org/namespaces/inkscape"
   xml:space="preserve"
   width="7.8740005in"
   height="7.8740005in"
   version="1.1"
   style="clip-rule:evenodd;fill-rule:evenodd;image-rendering:optimizeQuality;shape-rendering:geometricPrecision;text-rendering:geometricPrecision"
   viewBox="0 0 7874.0005 7874.0005"
   id="svg3522"
   inkscape:version="0.91 r13725"
   sodipodi:docname="Haqqislam - Hassassin Farzans - [N3] [Vyo].svg"><metadata
     id="metadata3538"><rdf:RDF><cc:Work
         rdf:about=""><dc:format>image/svg+xml</dc:format><dc:type
           rdf:resource="http://purl.org/dc/dcmitype/StillImage" /></cc:Work></rdf:RDF></metadata><sodipodi:namedview
     pagecolor="#ffffff"
     bordercolor="#666666"
     borderopacity="1"
     objecttolerance="10"
     gridtolerance="10"
     guidetolerance="10"
     inkscape:pageopacity="0"
     inkscape:pageshadow="2"
     inkscape:window-width="640"
     inkscape:window-height="480"
     id="namedview3536"
     showgrid="false"
     inkscape:zoom="0.23838384"
     inkscape:cx="736.83001"
     inkscape:cy="849.33005"
     inkscape:window-x="0"
     inkscape:window-y="0"
     inkscape:window-maximized="0"
     inkscape:current-layer="svg3522" /><defs
     id="defs3524"><style
       type="text/css"
       id="style3526"><![CDATA[
    .fil1 {fill:#B2C801}
    .fil0 {fill:#EECE00}
   ]]></style></defs><g
     id="Layer_x0020_1"
     transform="translate(3937,-7063)"><metadata
       id="CorelCorpID_0Corel-Layer" /><circle
       class="fil0"
       cy="11000"
       r="3937"
       id="circle3530"
       cx="0"
       style="fill:#eece00" /><circle
       class="fil1"
       cy="11000"
       r="3819"
       id="circle3532"
       cx="0"
       style="fill:#b2c801" /><path
       class="fil0"
       d="m 296,14096 c 1579,-149 2814,-1478 2814,-3096 0,-1598 -1205,-2914 -2756,-3090 1268,173 2244,1259 2244,2574 0,1063 -638,1977 -1552,2380 -72,-926 -370,-1846 -1046,-2691 -676,845 -974,1765 -1046,2691 -914,-403 -1552,-1317 -1552,-2380 0,-1315 976,-2401 2244,-2574 -1551,176 -2756,1492 -2756,3090 0,1618 1235,2947 2814,3096 -40,-250 -58,-508 -58,-773 0,-643 110,-1242 354,-1798 244,556 354,1155 354,1798 0,265 -18,523 -58,773 z"
       id="path3534"
       inkscape:connector-curvature="0"
       style="fill:#eece00" /></g></svg>