<?xml version="1.0" encoding="UTF-8" standalone="no"?>
<!-- Creator: CorelDRAW X7 -->

<svg
   xmlns:dc="http://purl.org/dc/elements/1.1/"
   xmlns:cc="http://creativecommons.org/ns#"
   xmlns:rdf="http://www.w3.org/1999/02/22-rdf-syntax-ns#"
   xmlns:svg="http://www.w3.org/2000/svg"
   xmlns="http://www.w3.org/2000/svg"
   xmlns:sodipodi="http://sodipodi.sourceforge.net/DTD/sodipodi-0.dtd"
   xmlns:inkscape="http://www.inkscape.org/namespaces/inkscape"
   xml:space="preserve"
   width="7.8740005in"
   height="7.8740005in"
   version="1.1"
   style="clip-rule:evenodd;fill-rule:evenodd;image-rendering:optimizeQuality;shape-rendering:geometricPrecision;text-rendering:geometricPrecision"
   viewBox="0 0 7874.0005 7874.0005"
   id="svg3600"
   inkscape:version="0.91 r13725"
   sodipodi:docname="Haqqislam - Hassassin Muyibs - [N3] [Vyo].svg"><metadata
     id="metadata3616"><rdf:RDF><cc:Work
         rdf:about=""><dc:format>image/svg+xml</dc:format><dc:type
           rdf:resource="http://purl.org/dc/dcmitype/StillImage" /></cc:Work></rdf:RDF></metadata><sodipodi:namedview
     pagecolor="#ffffff"
     bordercolor="#666666"
     borderopacity="1"
     objecttolerance="10"
     gridtolerance="10"
     guidetolerance="10"
     inkscape:pageopacity="0"
     inkscape:pageshadow="2"
     inkscape:window-width="640"
     inkscape:window-height="480"
     id="namedview3614"
     showgrid="false"
     inkscape:zoom="0.23838384"
     inkscape:cx="736.83001"
     inkscape:cy="849.33005"
     inkscape:window-x="0"
     inkscape:window-y="0"
     inkscape:window-maximized="0"
     inkscape:current-layer="svg3600" /><defs
     id="defs3602"><style
       type="text/css"
       id="style3604"><![CDATA[
    .fil2 {fill:black}
    .fil1 {fill:#B2C801}
    .fil0 {fill:#EECE00}
   ]]></style></defs><g
     id="Layer_x0020_1"
     transform="translate(3937,-7063)"><metadata
       id="CorelCorpID_0Corel-Layer" /><circle
       class="fil0"
       cy="11000"
       r="3937"
       id="circle3608"
       cx="0"
       style="fill:#eece00" /><circle
       class="fil1"
       cy="11000"
       r="3819"
       id="circle3610"
       cx="0"
       style="fill:#b2c801" /><path
       class="fil2"
       d="m -2086,11890 c 13,490 252,921 511,1098 748,-512 1260,-1220 1536,-1555 l 0,-588 c -457,356 -1322,779 -2047,1045 z m 4172,0 c -13,490 -252,921 -511,1098 C 827,12476 315,11768 39,11433 l 0,-588 c 457,356 1322,779 2047,1045 z m -978,886 c -372,358 -856,540 -1069,409 l 0,-1623 c 312,401 648,835 1069,1214 z m 229,-2920 c 579,176 1345,609 1596,829 -925,118 -2303,-79 -2894,-394 l 0,-275 c 308,0 628,-11 931,-65 127,-23 249,-54 367,-95 z M 39,9071 c 138,-158 355,-256 611,-256 433,0 1043,276 1417,531 -551,414 -906,591 -2028,591 l 0,-866 z m 2204,1727 c 310,308 552,730 552,1147 C 1831,11728 492,11118 39,10744 l 0,-364 c 220,110 483,185 719,240 321,75 652,124 980,152 165,14 335,24 505,26 z m -3351,1978 c 372,358 856,540 1069,409 l 0,-1623 c -312,401 -648,835 -1069,1214 z m -229,-2920 c -579,176 -1345,609 -1596,829 925,118 2303,-79 2894,-394 l 0,-275 c -308,0 -628,-11 -931,-65 -127,-23 -249,-54 -367,-95 z M -39,9071 c -138,-158 -355,-256 -611,-256 -433,0 -1043,276 -1417,531 551,414 906,591 2028,591 l 0,-866 z m -2204,1727 c -310,308 -552,730 -552,1147 964,-217 2303,-827 2756,-1201 l 0,-364 c -220,110 -483,185 -719,240 -321,75 -652,124 -980,152 -165,14 -335,24 -505,26 z"
       id="path3612"
       inkscape:connector-curvature="0"
       style="fill:#000000" /></g></svg>