<?xml version="1.0" encoding="UTF-8" standalone="no"?>
<!-- Creator: CorelDRAW X7 -->

<svg
   xmlns:dc="http://purl.org/dc/elements/1.1/"
   xmlns:cc="http://creativecommons.org/ns#"
   xmlns:rdf="http://www.w3.org/1999/02/22-rdf-syntax-ns#"
   xmlns:svg="http://www.w3.org/2000/svg"
   xmlns="http://www.w3.org/2000/svg"
   xmlns:sodipodi="http://sodipodi.sourceforge.net/DTD/sodipodi-0.dtd"
   xmlns:inkscape="http://www.inkscape.org/namespaces/inkscape"
   xml:space="preserve"
   width="7.8740005in"
   height="7.8740005in"
   version="1.1"
   style="clip-rule:evenodd;fill-rule:evenodd;image-rendering:optimizeQuality;shape-rendering:geometricPrecision;text-rendering:geometricPrecision"
   viewBox="0 0 7874.0005 7874.0005"
   id="svg3791"
   inkscape:version="0.91 r13725"
   sodipodi:docname="Haqqislam - Odalisques - [N3] [Vyo].svg"><metadata
     id="metadata3807"><rdf:RDF><cc:Work
         rdf:about=""><dc:format>image/svg+xml</dc:format><dc:type
           rdf:resource="http://purl.org/dc/dcmitype/StillImage" /></cc:Work></rdf:RDF></metadata><sodipodi:namedview
     pagecolor="#ffffff"
     bordercolor="#666666"
     borderopacity="1"
     objecttolerance="10"
     gridtolerance="10"
     guidetolerance="10"
     inkscape:pageopacity="0"
     inkscape:pageshadow="2"
     inkscape:window-width="640"
     inkscape:window-height="480"
     id="namedview3805"
     showgrid="false"
     inkscape:zoom="0.23838384"
     inkscape:cx="736.83001"
     inkscape:cy="849.33005"
     inkscape:window-x="0"
     inkscape:window-y="0"
     inkscape:window-maximized="0"
     inkscape:current-layer="svg3791" /><defs
     id="defs3793"><style
       type="text/css"
       id="style3795"><![CDATA[
    .fil1 {fill:#A6CC39}
    .fil0 {fill:#EECE00}
    .fil2 {fill:white}
   ]]></style></defs><g
     id="Layer_x0020_1"
     transform="translate(3937,-7063)"><metadata
       id="CorelCorpID_0Corel-Layer" /><circle
       class="fil0"
       cy="11000"
       r="3937"
       id="circle3799"
       cx="0"
       style="fill:#eece00" /><circle
       class="fil1"
       cy="11000"
       r="3819"
       id="circle3801"
       cx="0"
       style="fill:#a6cc39" /><path
       class="fil2"
       d="m 0,9819 c 228,0 504,190 705,472 l -1410,0 c 201,-282 477,-472 705,-472 z m 0,3445 c -236,0 -1949,-236 -1949,-2107 0,-137 0,-275 -20,-413 99,79 138,158 197,256 20,-669 217,-1280 591,-1693 0,79 20,197 39,236 276,-295 551,-590 985,-807 -611,650 -1047,1398 -1063,2166 -20,944 826,1397 1220,1397 394,0 1240,-453 1220,-1397 -16,-768 -452,-1516 -1063,-2166 434,217 709,512 985,807 19,-39 39,-157 39,-236 374,413 571,1024 591,1693 59,-98 98,-177 197,-256 -20,138 -20,276 -20,413 0,1871 -1713,2107 -1949,2107 z m 815,-2795 c 36,68 68,141 94,216 l -1818,0 c 26,-75 58,-148 94,-216 l 1630,0 z m 143,393 c 17,83 26,168 26,253 0,8 0,15 0,23 l -1968,0 c 0,-8 0,-15 0,-23 0,-85 9,-170 26,-253 l 1916,0 z m 3,453 c -17,74 -44,143 -77,207 l -1768,0 c -33,-64 -60,-133 -77,-207 l 1922,0 z m -267,463 c -238,240 -557,364 -694,364 -137,0 -456,-124 -694,-364 l 1388,0 z"
       id="path3803"
       inkscape:connector-curvature="0"
       style="fill:#ffffff" /></g></svg>