<?xml version="1.0" encoding="UTF-8" standalone="no"?>
<!-- Creator: CorelDRAW X7 -->

<svg
   xmlns:dc="http://purl.org/dc/elements/1.1/"
   xmlns:cc="http://creativecommons.org/ns#"
   xmlns:rdf="http://www.w3.org/1999/02/22-rdf-syntax-ns#"
   xmlns:svg="http://www.w3.org/2000/svg"
   xmlns="http://www.w3.org/2000/svg"
   xmlns:sodipodi="http://sodipodi.sourceforge.net/DTD/sodipodi-0.dtd"
   xmlns:inkscape="http://www.inkscape.org/namespaces/inkscape"
   xml:space="preserve"
   width="7.8740005in"
   height="7.8740005in"
   version="1.1"
   style="clip-rule:evenodd;fill-rule:evenodd;image-rendering:optimizeQuality;shape-rendering:geometricPrecision;text-rendering:geometricPrecision"
   viewBox="0 0 7874.0005 7874.0005"
   id="svg3464"
   inkscape:version="0.91 r13725"
   sodipodi:docname="Nomads - Corregidor Alguaciles - [N3] [Vyo].svg"><metadata
     id="metadata3488"><rdf:RDF><cc:Work
         rdf:about=""><dc:format>image/svg+xml</dc:format><dc:type
           rdf:resource="http://purl.org/dc/dcmitype/StillImage" /></cc:Work></rdf:RDF></metadata><sodipodi:namedview
     pagecolor="#ffffff"
     bordercolor="#666666"
     borderopacity="1"
     objecttolerance="10"
     gridtolerance="10"
     guidetolerance="10"
     inkscape:pageopacity="0"
     inkscape:pageshadow="2"
     inkscape:window-width="640"
     inkscape:window-height="480"
     id="namedview3486"
     showgrid="false"
     inkscape:zoom="0.23838384"
     inkscape:cx="736.83001"
     inkscape:cy="849.33005"
     inkscape:window-x="0"
     inkscape:window-y="0"
     inkscape:window-maximized="0"
     inkscape:current-layer="svg3464" /><defs
     id="defs3466"><style
       type="text/css"
       id="style3468"><![CDATA[
    .fil4 {fill:none}
    .fil0 {fill:black}
    .fil3 {fill:black}
    .fil1 {fill:#FCB316}
    .fil2 {fill:white}
    .fil5 {fill:white;fill-rule:nonzero}
   ]]></style></defs><g
     id="Layer_x0020_1"
     transform="translate(3937,-7063)"><metadata
       id="CorelCorpID_0Corel-Layer" /><circle
       class="fil0"
       cy="11000"
       r="3937"
       id="circle3472"
       cx="0"
       style="fill:#000000" /><circle
       class="fil1"
       cy="11000"
       r="3780"
       id="circle3474"
       cx="0"
       style="fill:#fcb316" /><path
       class="fil2"
       d="m 0,8323 c 1479,0 2677,1198 2677,2677 0,1297 -922,2378 -2146,2624 l 559,-1151 0,0 c 84,-172 130,-364 130,-567 0,-188 -39,-366 -111,-527 78,-118 124,-260 124,-412 0,-413 -335,-748 -748,-748 -284,0 -531,158 -657,391 -674,48 -1206,609 -1206,1296 0,123 17,242 49,355 l 0,0 350,1231 c -994,-391 -1698,-1359 -1698,-2492 0,-1479 1198,-2677 2677,-2677 z"
       id="path3476"
       inkscape:connector-curvature="0"
       style="fill:#ffffff" /><path
       class="fil3"
       d="m 0,8441 c -1413,0 -2559,1146 -2559,2559 0,995 568,1857 1397,2281 l -280,-987 c -37,-126 -54,-257 -54,-388 0,-722 542,-1326 1253,-1408 158,-246 432,-397 728,-397 478,0 866,387 866,866 0,148 -38,293 -110,422 65,165 98,339 98,517 0,213 -48,423 -141,615 0,1 -1,2 -1,3 l -449,924 C 1796,13128 2559,12153 2559,11000 2559,9587 1413,8441 0,8441 Z"
       id="path3478"
       inkscape:connector-curvature="0"
       style="fill:#000000" /><circle
       class="fil4"
       cy="11000"
       r="3740"
       id="circle3480"
       cx="0"
       style="fill:none" /><path
       class="fil5"
       d="m -3081,9995 -65,230 210,-64 -145,-166 z m -172,258 95,-336 -87,-101 c -7,-7 -10,-15 -11,-24 -1,-9 -1,-17 1,-24 2,-7 5,-13 10,-19 4,-6 9,-11 15,-15 6,-4 13,-7 20,-8 7,-2 14,-2 21,0 10,3 18,9 25,17 l 324,380 c 10,10 16,22 18,34 3,12 3,24 -1,36 -3,11 -9,21 -17,31 -9,9 -20,15 -34,20 l -473,155 0,0 c -11,4 -22,4 -32,2 -7,-2 -14,-6 -18,-11 -5,-5 -9,-10 -12,-17 -3,-6 -5,-13 -6,-20 0,-7 0,-14 2,-21 3,-9 7,-16 12,-22 6,-7 14,-11 24,-15 l 124,-42 z m -198,453 c 12,-162 66,-240 162,-233 l 332,26 c 33,2 48,22 45,60 -3,38 -21,55 -53,53 l -327,-25 c -34,-3 -53,38 -60,122 l -21,281 c -3,32 -21,47 -55,44 -32,-2 -46,-19 -44,-51 l 21,-277 z m 192,1011 c -92,12 -146,-48 -163,-180 l -26,-195 c -19,-143 17,-221 108,-233 l 248,-32 c 90,-12 145,54 164,198 l 10,75 c 4,31 -11,49 -44,53 -32,4 -51,-9 -55,-40 l -7,-53 c -11,-84 -30,-124 -59,-120 l -236,31 c -29,4 -40,40 -30,109 l 25,194 c 7,57 24,84 49,80 l 127,-16 c 33,-5 52,12 57,49 5,38 -9,59 -43,63 l -125,17 z m 249,673 c -95,38 -175,-23 -238,-182 l -40,-101 c -61,-152 -44,-247 51,-285 l 300,-120 c 31,-12 54,-1 67,34 15,36 6,59 -25,72 l -290,115 c -40,17 -45,62 -15,138 l 48,121 c 33,83 70,116 110,100 l 291,-116 c 30,-12 53,-1 67,35 13,34 5,57 -26,69 l -300,120 z m 214,246 129,201 92,-200 -221,-1 z m 79,299 -189,-293 -133,-2 c -9,0 -18,-2 -25,-7 -8,-5 -13,-11 -17,-17 -4,-6 -7,-13 -8,-20 -2,-7 -2,-15 -1,-22 1,-7 3,-14 6,-20 4,-6 9,-11 16,-15 8,-6 17,-8 29,-8 l 498,8 c 15,0 27,3 38,10 11,6 20,14 26,24 7,10 10,21 12,34 1,12 -1,25 -7,38 l -198,458 1,-1 c -5,11 -12,20 -20,26 -7,4 -13,6 -20,7 -7,0 -14,-1 -21,-3 -7,-2 -13,-5 -19,-9 -5,-4 -10,-10 -14,-16 -5,-7 -8,-15 -9,-23 -1,-9 1,-18 5,-28 l 50,-121 z m 510,158 c -49,-46 -82,-59 -101,-40 l -162,171 c -23,24 -8,62 47,113 l 192,183 c 23,21 23,44 0,68 -23,24 -46,25 -68,4 l -200,-190 c -104,-99 -123,-182 -58,-251 l 171,-180 c 61,-65 143,-49 245,48 l 203,193 c 22,21 23,44 0,68 -23,24 -46,25 -69,4 l -200,-191 z m 166,648 c -20,26 -45,27 -75,4 -30,-23 -35,-48 -14,-74 l 265,-338 c 21,-26 46,-27 76,-3 29,22 34,47 13,73 l -265,338 z m 311,259 c -141,-81 -187,-164 -139,-246 l 167,-289 c 17,-28 42,-33 75,-14 32,19 40,43 24,71 l -165,284 c -17,28 11,64 85,107 l 243,141 c 28,16 33,39 16,69 -16,27 -38,33 -66,17 l -240,-140 z m 581,-59 382,133 c 29,9 38,30 27,61 -11,32 -31,42 -59,32 l -382,-133 -21,61 c -11,30 15,55 76,76 l 290,101 c 29,10 38,31 27,62 -11,31 -30,42 -59,32 l -293,-102 c -131,-46 -181,-112 -151,-198 l 81,-233 c 15,-44 43,-71 85,-82 41,-10 95,-4 163,20 l 80,28 c 29,10 38,31 27,62 -11,31 -31,41 -59,31 l -55,-19 c -80,-27 -126,-27 -136,2 l -23,66 z m 1014,402 c -11,86 -83,121 -215,104 l -317,-42 c -31,-4 -45,-22 -40,-56 4,-32 22,-46 53,-42 l 325,43 c 52,6 80,-4 83,-32 l 4,-29 c 4,-32 -26,-52 -90,-60 l -145,-19 c -137,-18 -201,-67 -190,-148 l 6,-49 c 12,-89 79,-125 203,-109 l 80,11 c 31,4 44,22 40,56 -4,32 -22,46 -53,42 l -91,-12 c -41,-5 -64,7 -68,37 l -3,22 c -3,27 23,44 78,51 l 147,20 c 145,19 211,72 200,160 l -7,52 z m 559,-333 c -66,12 -96,31 -92,57 l 41,233 c 5,32 45,42 118,29 l 262,-45 c 31,-5 49,8 55,40 5,33 -7,52 -38,58 l -271,47 c -142,24 -221,-10 -237,-103 l -42,-245 c -16,-88 46,-144 185,-168 l 275,-48 c 31,-5 49,8 55,41 5,32 -7,52 -38,57 l -273,47 z m 845,-183 c -14,-34 -51,-40 -111,-16 l -161,64 c -65,25 -90,56 -76,90 l 79,200 c 13,34 52,38 117,13 l 157,-63 c 63,-24 87,-54 74,-88 l -79,-200 z m 187,165 c 36,91 -18,165 -163,222 l -125,50 c -144,57 -235,41 -270,-50 l -86,-215 c -36,-91 18,-165 163,-222 l 125,-50 c 144,-57 235,-40 271,51 l 85,214 z m 416,-527 c -17,-27 -53,-22 -108,13 l -244,158 73,113 254,-164 c 48,-31 66,-57 53,-76 l -28,-44 z m 122,-18 c 49,76 16,151 -99,225 l -66,42 232,-37 c 12,-1 22,0 30,5 9,4 16,10 20,17 4,6 7,12 8,19 1,7 2,14 1,21 -2,7 -4,13 -7,19 -4,6 -9,11 -15,15 -7,4 -14,7 -23,7 l 1,0 -431,50 79,123 c 18,28 11,52 -20,72 -32,21 -57,17 -75,-11 l -234,-363 c -16,-25 -12,-45 13,-61 l 294,-190 c 123,-79 211,-78 263,3 l 29,44 z m 343,-427 c -23,-21 -57,-9 -102,39 l -200,210 98,93 208,-219 c 39,-42 51,-71 33,-87 l -37,-36 z m 114,-46 c 66,63 51,143 -42,242 l -55,57 217,-91 c 11,-4 21,-5 30,-3 10,2 18,6 24,13 5,4 9,10 12,16 3,6 5,13 5,20 1,7 0,14 -2,20 -2,7 -6,13 -11,18 -5,6 -12,10 -20,13 l 0,0 -406,150 106,101 c 24,22 23,47 -3,74 -26,28 -51,30 -76,7 l -313,-297 c -21,-21 -22,-41 -2,-63 l 241,-253 c 101,-107 187,-126 257,-60 l 38,36 z m 114,-129 217,-341 c 16,-25 39,-29 66,-12 28,18 34,40 18,65 l -217,341 54,35 c 26,17 57,-2 92,-57 l 164,-259 c 17,-26 39,-30 67,-12 28,18 34,39 17,65 l -166,262 c -75,116 -150,150 -228,101 l -208,-132 c -39,-25 -59,-59 -60,-102 0,-42 19,-94 57,-154 l 46,-72 c 16,-26 38,-29 67,-11 27,17 33,39 16,64 l -31,49 c -45,72 -55,116 -29,133 l 58,37 z m 657,-952 c 86,33 105,112 57,236 l -72,183 c -52,135 -121,185 -207,152 l -232,-91 c -85,-33 -101,-117 -49,-252 l 28,-71 c 11,-29 32,-38 63,-26 31,12 41,33 29,62 l -19,50 c -31,79 -33,123 -6,134 l 222,86 c 28,11 54,-16 79,-81 l 71,-182 c 21,-54 20,-85 -4,-94 l -119,-47 c -31,-12 -40,-36 -26,-71 13,-35 36,-46 67,-34 l 118,46 z m 129,-213 c 32,8 44,30 35,66 -8,37 -28,52 -61,45 l -419,-96 c -32,-8 -44,-30 -35,-68 8,-36 29,-50 61,-43 l 419,96 z m -256,-682 c -31,-3 -49,28 -54,92 l -22,296 325,25 22,-295 c 5,-65 -10,-98 -46,-101 l -225,-17 z m 239,-96 c 98,8 142,81 131,220 l -28,366 c -2,29 -18,42 -48,40 l -433,-33 c -30,-2 -44,-18 -41,-47 l 28,-368 c 10,-137 62,-203 155,-196 l 236,18 z m -308,-569 c -37,6 -50,41 -39,105 l 30,170 c 12,69 36,100 73,93 l 212,-37 c 36,-6 48,-43 36,-112 l -29,-166 c -11,-66 -35,-97 -71,-90 l -212,37 z m 200,-150 c 96,-17 157,51 184,204 l 23,133 c 27,153 -8,238 -103,255 l -228,39 c -97,17 -159,-51 -185,-204 l -23,-133 c -27,-153 8,-238 104,-255 l 228,-39 z m -431,-511 c -29,12 -32,48 -8,108 l 108,271 125,-50 -112,-281 c -21,-53 -42,-76 -64,-67 l -49,19 z m 7,-123 c 83,-33 150,13 201,140 l 29,73 8,-234 c 1,-12 5,-22 11,-29 5,-8 12,-13 21,-17 6,-2 13,-3 20,-3 7,0 14,1 20,3 6,2 12,6 17,10 5,5 9,11 12,18 3,7 4,15 3,24 l 0,-1 -34,432 136,-54 c 31,-12 53,-1 66,34 15,36 6,59 -25,72 l -402,159 c -27,11 -46,3 -57,-24 l -129,-325 c -54,-137 -36,-223 54,-259 l 49,-19 z"
       id="path3482"
       inkscape:connector-curvature="0"
       style="fill:#ffffff;fill-rule:nonzero" /><path
       class="fil2"
       d="m 930,11568 c 35,106 54,220 54,338 0,587 -476,1063 -1063,1063 -587,0 -1063,-476 -1063,-1063 0,-528 384,-965 887,-1049 -5,36 -8,73 -8,110 0,413 335,748 748,748 167,0 320,-55 445,-147 z"
       id="path3484"
       inkscape:connector-curvature="0"
       style="fill:#ffffff" /></g></svg>