<?xml version="1.0" encoding="UTF-8" standalone="no"?>
<!-- Creator: CorelDRAW X7 -->

<svg
   xmlns:dc="http://purl.org/dc/elements/1.1/"
   xmlns:cc="http://creativecommons.org/ns#"
   xmlns:rdf="http://www.w3.org/1999/02/22-rdf-syntax-ns#"
   xmlns:svg="http://www.w3.org/2000/svg"
   xmlns="http://www.w3.org/2000/svg"
   xmlns:sodipodi="http://sodipodi.sourceforge.net/DTD/sodipodi-0.dtd"
   xmlns:inkscape="http://www.inkscape.org/namespaces/inkscape"
   xml:space="preserve"
   width="7.8740005in"
   height="7.8740005in"
   version="1.1"
   style="clip-rule:evenodd;fill-rule:evenodd;image-rendering:optimizeQuality;shape-rendering:geometricPrecision;text-rendering:geometricPrecision"
   viewBox="0 0 7874.0005 7874.0005"
   id="svg3727"
   inkscape:version="0.91 r13725"
   sodipodi:docname="Nomads - Hellcats - [N3] [Vyo].svg"><metadata
     id="metadata3756"><rdf:RDF><cc:Work
         rdf:about=""><dc:format>image/svg+xml</dc:format><dc:type
           rdf:resource="http://purl.org/dc/dcmitype/StillImage" /></cc:Work></rdf:RDF></metadata><sodipodi:namedview
     pagecolor="#ffffff"
     bordercolor="#666666"
     borderopacity="1"
     objecttolerance="10"
     gridtolerance="10"
     guidetolerance="10"
     inkscape:pageopacity="0"
     inkscape:pageshadow="2"
     inkscape:window-width="640"
     inkscape:window-height="480"
     id="namedview3754"
     showgrid="false"
     inkscape:zoom="0.23838384"
     inkscape:cx="736.83001"
     inkscape:cy="849.33005"
     inkscape:window-x="0"
     inkscape:window-y="0"
     inkscape:window-maximized="0"
     inkscape:current-layer="svg3727" /><defs
     id="defs3729"><style
       type="text/css"
       id="style3731"><![CDATA[
    .fil0 {fill:black}
    .fil2 {fill:#FFA000}
    .fil1 {fill:white}
    .fil3 {fill:white;fill-rule:nonzero}
   ]]></style></defs><g
     id="Layer_x0020_1"
     transform="translate(3937,-7063)"><metadata
       id="CorelCorpID_0Corel-Layer" /><circle
       class="fil0"
       cy="11000"
       r="3937"
       id="circle3735"
       cx="0"
       style="fill:#000000" /><circle
       class="fil1"
       cy="11000"
       r="3780"
       id="circle3737"
       cx="0"
       style="fill:#ffffff" /><circle
       class="fil0"
       cy="11000"
       r="3406"
       id="circle3739"
       cx="0"
       style="fill:#000000" /><circle
       class="fil2"
       cy="11000"
       r="3268"
       id="circle3741"
       cx="0"
       style="fill:#ffa000" /><path
       class="fil0"
       d="m 0,7772 c 1783,0 3228,1445 3228,3228 0,1783 -1445,3228 -3228,3228 -1783,0 -3228,-1445 -3228,-3228 0,-1783 1445,-3228 3228,-3228 z m -3084,3031 2927,0 c 1338,0 785,-865 157,-1693 L -826,8021 c -1245,345 -2174,1449 -2258,2782 z m 2396,-2817 3562,3408 -5940,0 c 194,1521 1493,2697 3066,2697 1707,0 3091,-1384 3091,-3091 C 3091,9293 1707,7909 0,7909 c -237,0 -467,27 -688,77 z"
       id="path3743"
       inkscape:connector-curvature="0"
       style="fill:#000000" /><path
       class="fil3"
       d="m -2072,12094 c 0,36 -20,53 -60,53 -39,0 -59,-17 -59,-53 l 0,-172 -415,0 0,172 c 0,36 -20,53 -60,53 -40,0 -60,-17 -60,-53 l 0,-454 c 0,-35 21,-53 61,-53 40,0 59,18 59,53 l 0,177 415,0 0,-177 c 0,-35 20,-53 59,-53 40,0 60,18 60,53 l 0,454 z"
       id="path3745"
       inkscape:connector-curvature="0"
       style="fill:#ffffff;fill-rule:nonzero" /><path
       id="1"
       class="fil3"
       d="m -1800,11817 428,0 c 32,0 48,18 48,53 0,35 -16,52 -48,52 l -428,0 0,69 c 0,32 34,49 103,49 l 325,0 c 32,0 49,17 49,53 0,34 -17,52 -49,52 l -328,0 c -147,0 -220,-49 -220,-146 l 0,-261 c 0,-49 19,-86 56,-111 38,-25 95,-37 171,-37 l 89,0 c 33,0 49,18 49,53 0,35 -16,52 -49,52 l -61,0 c -90,0 -135,16 -135,49 l 0,73 z"
       inkscape:connector-curvature="0"
       style="fill:#ffffff;fill-rule:nonzero" /><path
       id="2"
       class="fil3"
       d="m -955,12145 c -172,0 -258,-51 -258,-152 l 0,-353 c 0,-35 20,-53 60,-53 40,0 60,18 60,53 l 0,347 c 0,35 45,53 134,53 l 298,0 c 34,0 51,18 51,54 0,34 -17,51 -51,51 l -294,0 z"
       inkscape:connector-curvature="0"
       style="fill:#ffffff;fill-rule:nonzero" /><path
       id="3"
       class="fil3"
       d="m -280,12145 c -172,0 -258,-51 -258,-152 l 0,-353 c 0,-35 20,-53 60,-53 40,0 60,18 60,53 l 0,347 c 0,35 45,53 134,53 l 298,0 c 34,0 51,18 51,54 0,34 -17,51 -51,51 l -294,0 z"
       inkscape:connector-curvature="0"
       style="fill:#ffffff;fill-rule:nonzero" /><path
       id="4"
       class="fil3"
       d="m 363,11695 c -71,0 -106,14 -106,42 l 0,251 c 0,34 39,52 118,52 l 281,0 c 33,0 50,17 50,52 0,35 -17,53 -50,53 l -291,0 c -152,0 -228,-50 -228,-150 l 0,-263 c 0,-95 74,-142 224,-142 l 295,0 c 33,0 50,17 50,52 0,35 -17,53 -50,53 l -293,0 z"
       inkscape:connector-curvature="0"
       style="fill:#ffffff;fill-rule:nonzero" /><path
       id="5"
       class="fil3"
       d="m 1022,11905 253,0 -125,-196 -128,196 z m 312,101 -369,0 -78,118 c -6,8 -13,14 -22,18 -8,4 -17,5 -25,5 -7,0 -14,-1 -22,-4 -7,-3 -14,-7 -20,-11 -6,-5 -10,-11 -14,-18 -3,-7 -5,-14 -5,-22 0,-10 3,-20 10,-31 l 293,-439 c 9,-13 19,-22 30,-28 12,-6 24,-9 37,-9 13,0 25,3 37,9 11,6 21,15 30,28 l 294,438 0,-1 c 7,11 11,22 11,33 0,8 -2,15 -5,22 -4,6 -9,12 -14,17 -6,5 -12,8 -19,11 -7,3 -15,4 -23,4 -9,0 -18,-2 -26,-6 -8,-3 -15,-10 -21,-19 l -79,-115 z"
       inkscape:connector-curvature="0"
       style="fill:#ffffff;fill-rule:nonzero" /><path
       id="6"
       class="fil3"
       d="m 1831,11695 0,399 c 0,36 -20,53 -60,53 -40,0 -60,-17 -60,-53 l 0,-399 -188,0 c -34,0 -50,-18 -50,-54 0,-34 16,-51 50,-51 l 497,0 c 33,0 49,17 49,51 0,36 -16,54 -49,54 l -189,0 z"
       inkscape:connector-curvature="0"
       style="fill:#ffffff;fill-rule:nonzero" /><path
       id="7"
       class="fil3"
       d="m 2726,12006 c 0,92 -71,139 -212,139 l -338,0 c -34,0 -50,-18 -50,-53 0,-35 16,-52 49,-52 l 348,0 c 55,0 83,-15 83,-45 l 0,-31 c 0,-34 -35,-50 -103,-50 l -155,0 c -146,0 -220,-43 -220,-130 l 0,-52 c 0,-95 66,-142 198,-142 l 85,0 c 33,0 50,18 50,53 0,35 -17,52 -50,52 l -97,0 c -44,0 -66,16 -66,48 l 0,23 c 0,29 30,44 89,44 l 157,0 c 154,0 232,47 232,141 l 0,55 z"
       inkscape:connector-curvature="0"
       style="fill:#ffffff;fill-rule:nonzero" /></g></svg>