<?xml version="1.0" encoding="UTF-8" standalone="no"?>
<!-- Creator: CorelDRAW X7 -->

<svg
   xmlns:dc="http://purl.org/dc/elements/1.1/"
   xmlns:cc="http://creativecommons.org/ns#"
   xmlns:rdf="http://www.w3.org/1999/02/22-rdf-syntax-ns#"
   xmlns:svg="http://www.w3.org/2000/svg"
   xmlns="http://www.w3.org/2000/svg"
   xmlns:sodipodi="http://sodipodi.sourceforge.net/DTD/sodipodi-0.dtd"
   xmlns:inkscape="http://www.inkscape.org/namespaces/inkscape"
   xml:space="preserve"
   width="7.8740005in"
   height="7.8740005in"
   version="1.1"
   style="clip-rule:evenodd;fill-rule:evenodd;image-rendering:optimizeQuality;shape-rendering:geometricPrecision;text-rendering:geometricPrecision"
   viewBox="0 0 7874.0005 7874.0005"
   id="svg3796"
   inkscape:version="0.91 r13725"
   sodipodi:docname="Nomads - Intruders - [N3] [Vyo].svg"><metadata
     id="metadata3847"><rdf:RDF><cc:Work
         rdf:about=""><dc:format>image/svg+xml</dc:format><dc:type
           rdf:resource="http://purl.org/dc/dcmitype/StillImage" /></cc:Work></rdf:RDF></metadata><sodipodi:namedview
     pagecolor="#ffffff"
     bordercolor="#666666"
     borderopacity="1"
     objecttolerance="10"
     gridtolerance="10"
     guidetolerance="10"
     inkscape:pageopacity="0"
     inkscape:pageshadow="2"
     inkscape:window-width="640"
     inkscape:window-height="480"
     id="namedview3845"
     showgrid="false"
     inkscape:zoom="0.23838384"
     inkscape:cx="736.83001"
     inkscape:cy="849.33005"
     inkscape:window-x="0"
     inkscape:window-y="0"
     inkscape:window-maximized="0"
     inkscape:current-layer="svg3796" /><defs
     id="defs3798"><style
       type="text/css"
       id="style3800"><![CDATA[
    .fil2 {fill:none}
    .fil0 {fill:black}
    .fil1 {fill:#FFA000}
    .fil4 {fill:white}
    .fil3 {fill:white;fill-rule:nonzero}
   ]]></style></defs><g
     id="Layer_x0020_1"
     transform="translate(3937,-7063)"><metadata
       id="CorelCorpID_0Corel-Layer" /><circle
       class="fil0"
       cy="11000"
       r="3937"
       id="circle3804"
       cx="0"
       style="fill:#000000" /><circle
       class="fil1"
       cy="11020"
       r="3780"
       id="circle3806"
       cx="0"
       style="fill:#ffa000" /><circle
       class="fil2"
       cy="11000"
       r="3898"
       id="circle3808"
       cx="0"
       style="fill:none" /><path
       class="fil3"
       d="m -2391,8941 c 23,20 23,44 0,70 -24,28 -47,31 -70,10 l -304,-265 c -23,-21 -23,-45 1,-72 23,-26 46,-29 70,-9 l 303,266 z"
       id="path3810"
       inkscape:connector-curvature="0"
       style="fill:#ffffff;fill-rule:nonzero" /><path
       id="1"
       class="fil3"
       d="m -1875,8421 c 7,8 12,16 15,24 2,8 3,16 3,24 -1,7 -3,15 -7,22 -3,6 -8,12 -14,18 -6,5 -13,9 -21,13 -8,3 -16,5 -25,5 l -492,-2 200,224 c 21,23 18,46 -8,70 -27,24 -51,24 -71,1 l -261,-291 c -7,-7 -11,-14 -13,-22 -3,-8 -4,-16 -3,-24 1,-7 3,-15 7,-22 4,-6 9,-13 15,-18 6,-6 14,-10 22,-14 8,-3 17,-5 25,-4 l 487,-1 -197,-220 c -21,-23 -18,-47 8,-71 27,-23 50,-24 71,-1 l 259,289 z"
       inkscape:connector-curvature="0"
       style="fill:#ffffff;fill-rule:nonzero" /><path
       id="2"
       class="fil3"
       d="m -1673,7914 174,309 c 16,28 8,50 -23,67 -31,18 -54,13 -70,-14 l -174,-310 -146,82 c -25,15 -46,8 -62,-19 -14,-27 -9,-47 17,-62 l 385,-217 c 25,-14 45,-8 60,19 15,27 11,48 -15,62 l -146,83 z"
       inkscape:connector-curvature="0"
       style="fill:#ffffff;fill-rule:nonzero" /><path
       id="3"
       class="fil3"
       d="m -868,7635 c -8,-28 -42,-33 -100,-14 l -261,83 38,121 271,-87 c 52,-16 74,-35 67,-56 l -15,-47 z m 115,15 c 26,81 -23,140 -145,179 l -70,23 220,23 c 11,2 20,6 27,12 6,6 11,13 13,21 2,6 3,12 3,19 -1,6 -2,13 -5,19 -2,6 -6,11 -11,15 -4,5 -10,8 -17,10 -7,3 -14,3 -23,1 l 1,0 -403,-61 41,132 c 10,29 -2,50 -36,60 -34,11 -56,2 -66,-28 l -123,-388 c -8,-26 1,-44 27,-52 l 313,-100 c 132,-41 212,-19 239,68 l 15,47 z"
       inkscape:connector-curvature="0"
       style="fill:#ffffff;fill-rule:nonzero" /><path
       id="4"
       class="fil3"
       d="m 10,7731 c 8,96 -69,150 -230,163 l -102,9 c -153,12 -234,-30 -242,-125 l -24,-303 c -3,-31 13,-48 49,-51 35,-3 55,11 57,42 l 24,293 c 3,41 43,58 119,52 l 123,-10 c 84,-7 124,-30 121,-71 l -24,-294 c -2,-30 14,-47 50,-50 34,-3 52,11 55,42 l 24,303 z"
       inkscape:connector-curvature="0"
       style="fill:#ffffff;fill-rule:nonzero" /><path
       id="5"
       class="fil3"
       d="m 702,7606 c 5,-29 -22,-49 -81,-59 l -275,-47 -53,303 274,47 c 61,10 93,-1 99,-34 l 36,-210 z m 68,232 c -16,91 -88,125 -217,103 l -340,-58 c -27,-5 -38,-21 -33,-49 l 69,-402 c 5,-28 20,-39 48,-35 l 341,59 c 128,22 184,76 169,163 l -37,219 z"
       inkscape:connector-curvature="0"
       style="fill:#ffffff;fill-rule:nonzero" /><path
       id="6"
       class="fil3"
       d="m 1093,7775 355,135 c 27,10 35,29 24,58 -11,29 -30,39 -56,28 l -356,-134 -22,57 c -10,27 14,52 71,73 l 270,102 c 27,11 35,30 24,59 -11,29 -30,38 -57,28 L 1073,8078 C 951,8032 905,7969 936,7888 l 82,-217 c 15,-41 43,-66 82,-75 39,-9 90,-1 154,23 l 74,28 c 27,10 35,30 23,59 -10,28 -29,38 -56,27 l -50,-19 c -75,-28 -118,-28 -129,-1 l -23,62 z"
       inkscape:connector-curvature="0"
       style="fill:#ffffff;fill-rule:nonzero" /><path
       id="7"
       class="fil3"
       d="m 2077,8212 c 16,-25 -2,-54 -53,-87 l -230,-146 -69,108 239,152 c 45,29 74,34 86,15 l 27,-42 z m 63,98 c -46,71 -123,73 -230,4 l -63,-40 122,183 c 6,10 9,19 9,28 -1,9 -3,17 -8,24 -3,5 -7,10 -13,14 -5,4 -11,6 -17,8 -6,2 -12,2 -19,2 -6,-1 -12,-3 -18,-7 -7,-4 -12,-10 -16,-16 l 0,0 -210,-347 -74,116 c -17,27 -40,30 -70,11 -30,-19 -37,-42 -20,-69 l 218,-343 c 15,-23 34,-27 57,-13 l 277,177 c 116,74 150,149 101,226 l -26,42 z"
       inkscape:connector-curvature="0"
       style="fill:#ffffff;fill-rule:nonzero" /><path
       id="8"
       class="fil3"
       d="m 2501,8934 c -60,57 -133,40 -220,-52 l -208,-219 c -21,-22 -20,-44 3,-65 22,-21 44,-21 64,1 l 214,225 c 34,36 61,45 80,27 l 20,-20 c 22,-20 12,-53 -30,-97 l -95,-100 c -90,-96 -108,-170 -52,-222 l 34,-32 c 61,-58 132,-45 212,40 l 53,55 c 20,22 19,43 -4,65 -22,21 -43,21 -64,-1 l -59,-62 c -27,-29 -51,-33 -72,-14 l -14,15 c -19,17 -11,46 26,84 l 96,102 c 95,100 112,179 52,236 l -36,34 z"
       inkscape:connector-curvature="0"
       style="fill:#ffffff;fill-rule:nonzero" /><path
       class="fil4"
       d="m -2044,11112 0,0 -678,105 c -51,8 -100,-17 -123,-64 -24,-46 -15,-100 22,-137 l 1046,-1042 380,-1427 c 13,-51 55,-85 107,-88 52,-3 98,27 117,75 l 248,639 c 278,-141 592,-220 925,-220 333,0 647,79 925,220 l 248,-639 c 19,-48 65,-78 117,-75 52,3 94,37 107,88 l 380,1427 1046,1042 c 37,37 46,91 22,137 -23,47 -72,72 -123,64 l -678,-105 c 0,1 0,3 0,5 -38,669 -397,1252 -925,1598 l 430,534 c 32,40 35,95 7,138 -29,44 -80,63 -130,50 L 0,13051 l -1426,386 c -50,13 -101,-6 -130,-50 -28,-43 -25,-98 7,-138 l 430,-534 c -530,-347 -889,-932 -925,-1603 z m 0,0 0,0 0,0 0,0 z M 0,9701 c 238,0 461,64 653,176 l -320,824 c -13,35 -11,70 8,102 18,32 48,52 84,58 l 874,135 c 0,2 0,3 0,4 0,482 -262,903 -652,1127 L 92,11438 c -23,-29 -55,-44 -92,-44 -37,0 -69,15 -92,44 l -555,689 c -390,-224 -652,-645 -652,-1127 0,-1 0,-2 0,-4 l 874,-135 c 36,-6 66,-26 84,-58 19,-32 21,-67 8,-102 l -320,-824 c 192,-112 415,-176 653,-176 z"
       id="path3820"
       inkscape:connector-curvature="0"
       style="fill:#ffffff" /><path
       class="fil0"
       d="m 79,9072 c 331,14 640,110 908,270 l 296,-765 387,1457 1,2 1069,1064 -811,-126 c 0,9 0,17 0,26 0,323 -79,628 -220,896 l -444,-256 c 97,-193 152,-410 152,-640 0,-35 -1,-71 -4,-106 L 443,10744 798,9829 C 591,9687 345,9599 79,9585 l 0,-513 z m 1551,2960 c -171,270 -408,495 -688,651 l 515,640 -1457,-394 -1457,394 515,-640 c -280,-156 -517,-381 -688,-651 l 444,-256 c 140,214 338,389 570,501 l 616,-765 616,765 c 232,-112 430,-287 570,-501 l 444,256 z m -3339,-136 c -141,-268 -220,-573 -220,-896 0,-9 0,-17 0,-26 l -811,126 1069,-1064 1,-2 387,-1457 296,765 c 268,-160 577,-256 908,-270 l 0,513 c -266,14 -512,102 -719,244 l 355,915 -970,150 c -3,35 -4,71 -4,106 0,230 55,447 152,640 l -444,256 z"
       id="path3822"
       inkscape:connector-curvature="0"
       style="fill:#000000" /><circle
       class="fil2"
       cy="11000"
       r="3898"
       id="circle3824"
       cx="0"
       style="fill:none" /><path
       class="fil3"
       d="m 2868,13024 c 36,-51 44,-84 23,-99 l -181,-130 c -25,-18 -58,2 -99,59 l -145,203 c -17,24 -39,27 -63,9 -26,-18 -30,-39 -13,-63 l 151,-211 c 78,-109 154,-138 226,-87 l 190,136 c 68,49 64,127 -13,235 l -153,213 c -17,25 -38,28 -63,10 -25,-18 -29,-39 -12,-63 l 152,-212 z"
       id="path3826"
       inkscape:connector-curvature="0"
       style="fill:#ffffff;fill-rule:nonzero" /><path
       id="path3828"
       class="fil3"
       d="m 2158,13698 c 23,28 57,22 104,-17 l 124,-105 c 51,-42 64,-77 41,-104 l -131,-156 c -22,-26 -58,-18 -108,24 l -122,102 c -48,41 -61,75 -39,101 l 131,155 z m -217,-91 c -59,-70 -32,-152 79,-247 l 98,-81 c 111,-95 197,-107 256,-37 l 139,167 c 60,70 34,152 -78,246 l -97,82 c -112,94 -198,106 -257,36 l -140,-166 z"
       inkscape:connector-curvature="0"
       style="fill:#ffffff;fill-rule:nonzero" /><path
       id="path3830"
       class="fil3"
       d="m 1494,14133 c 14,26 48,24 102,-5 l 238,-130 -61,-112 -248,135 c -47,26 -65,49 -55,68 l 24,44 z m -115,8 c -41,-75 -5,-142 107,-203 l 65,-36 -220,19 c -11,0 -21,-2 -28,-7 -8,-4 -14,-10 -18,-18 -3,-5 -5,-12 -6,-18 -1,-7 0,-13 1,-20 2,-6 4,-12 8,-17 4,-5 8,-10 14,-13 7,-4 15,-5 23,-5 l -1,0 406,-16 -66,-121 c -15,-28 -7,-50 24,-67 32,-17 55,-12 70,15 l 195,357 c 13,24 8,43 -16,56 l -288,157 c -121,66 -203,59 -247,-20 l -23,-43 z"
       inkscape:connector-curvature="0"
       style="fill:#ffffff;fill-rule:nonzero" /><path
       id="path3832"
       class="fil3"
       d="m 777,14386 c 9,28 42,34 101,16 l 263,-78 -37,-122 -273,81 c -51,16 -74,34 -68,56 l 14,47 z m -114,-17 c -25,-81 25,-140 148,-176 l 71,-21 -220,-28 c -11,-2 -20,-6 -26,-12 -7,-6 -11,-13 -14,-21 -1,-7 -2,-13 -2,-20 1,-6 2,-12 5,-18 3,-6 7,-11 11,-16 5,-4 11,-7 17,-9 8,-2 15,-3 23,-1 l 0,0 402,68 -39,-132 c -9,-30 3,-50 37,-60 34,-10 56,-1 65,30 l 116,389 c 8,27 -1,44 -27,52 l -316,94 c -132,39 -211,16 -237,-71 l -14,-48 z"
       inkscape:connector-curvature="0"
       style="fill:#ffffff;fill-rule:nonzero" /><path
       id="path3834"
       class="fil3"
       d="m 382,14381 -379,31 c -28,2 -44,-12 -46,-43 -3,-31 10,-47 39,-50 l 379,-30 -5,-62 c -3,-29 -34,-41 -95,-36 l -288,23 c -29,2 -44,-12 -47,-43 -2,-30 11,-47 40,-49 l 290,-24 c 130,-10 199,27 206,113 l 18,231 c 4,44 -10,78 -42,102 -31,25 -81,40 -148,46 l -80,6 c -28,3 -44,-12 -46,-43 -3,-30 11,-47 39,-49 l 54,-4 c 80,-7 119,-25 116,-54 l -5,-65 z"
       inkscape:connector-curvature="0"
       style="fill:#ffffff;fill-rule:nonzero" /><path
       id="path3836"
       class="fil3"
       d="m -774,14149 c 15,-85 84,-117 207,-96 l 182,31 c 134,23 193,77 178,162 l -39,232 c -15,84 -89,114 -224,91 l -71,-12 c -29,-5 -40,-23 -35,-53 5,-30 22,-43 51,-38 l 50,9 c 78,13 119,6 124,-20 l 38,-222 c 5,-28 -25,-47 -89,-58 l -180,-31 c -53,-9 -82,-2 -86,22 l -20,118 c -6,31 -26,44 -61,38 -35,-6 -50,-25 -45,-56 l 20,-117 z"
       inkscape:connector-curvature="0"
       style="fill:#ffffff;fill-rule:nonzero" /><path
       id="path3838"
       class="fil3"
       d="m -992,13994 c 11,-29 33,-38 66,-25 34,12 45,33 34,62 l -142,379 c -11,29 -33,37 -67,24 -33,-12 -44,-33 -33,-62 l 142,-378 z"
       inkscape:connector-curvature="0"
       style="fill:#ffffff;fill-rule:nonzero" /><path
       id="path3840"
       class="fil3"
       d="m -1707,14022 c -13,26 7,53 61,80 l 249,124 138,-276 -248,-124 c -55,-27 -89,-26 -104,5 l -96,191 z m 2,-243 c 41,-83 120,-95 237,-36 l 309,154 c 25,12 31,31 18,56 l -183,366 c -12,25 -31,31 -55,19 l -310,-155 c -116,-58 -155,-126 -116,-205 l 100,-199 z"
       inkscape:connector-curvature="0"
       style="fill:#ffffff;fill-rule:nonzero" /><path
       id="path3842"
       class="fil3"
       d="m -2346,13540 c -24,26 -13,60 33,99 l 122,107 c 49,43 85,51 108,25 l 134,-153 c 23,-26 9,-60 -40,-103 l -118,-104 c -48,-42 -83,-50 -106,-24 l -133,153 z m 57,-228 c 60,-69 145,-55 255,41 l 95,83 c 110,96 135,179 75,247 l -143,164 c -60,69 -146,55 -255,-41 l -96,-83 c -110,-96 -134,-179 -74,-248 l 143,-163 z"
       inkscape:connector-curvature="0"
       style="fill:#ffffff;fill-rule:nonzero" /><path
       id="9"
       class="fil3"
       d="m -2873,12949 c -24,18 -17,51 21,99 l 168,215 100,-79 -175,-223 c -33,-42 -58,-56 -76,-42 l -38,30 z m -27,-113 c 66,-53 139,-28 218,72 l 46,59 -55,-213 c -2,-12 -1,-21 2,-30 3,-8 8,-15 15,-20 5,-4 10,-7 17,-9 6,-2 13,-2 19,-2 7,1 13,2 19,5 5,3 10,7 15,12 4,6 7,13 9,21 l -1,0 83,397 109,-85 c 25,-19 48,-15 70,13 22,28 21,52 -4,72 l -321,251 c -22,17 -41,15 -58,-7 l -202,-259 c -85,-109 -92,-191 -20,-247 l 39,-30 z"
       inkscape:connector-curvature="0"
       style="fill:#ffffff;fill-rule:nonzero" /></g></svg>