<?xml version="1.0" encoding="UTF-8" standalone="no"?>
<!-- Creator: CorelDRAW X7 -->

<svg
   xmlns:dc="http://purl.org/dc/elements/1.1/"
   xmlns:cc="http://creativecommons.org/ns#"
   xmlns:rdf="http://www.w3.org/1999/02/22-rdf-syntax-ns#"
   xmlns:svg="http://www.w3.org/2000/svg"
   xmlns="http://www.w3.org/2000/svg"
   xmlns:sodipodi="http://sodipodi.sourceforge.net/DTD/sodipodi-0.dtd"
   xmlns:inkscape="http://www.inkscape.org/namespaces/inkscape"
   xml:space="preserve"
   width="7.8740005in"
   height="7.8740005in"
   version="1.1"
   style="clip-rule:evenodd;fill-rule:evenodd;image-rendering:optimizeQuality;shape-rendering:geometricPrecision;text-rendering:geometricPrecision"
   viewBox="0 0 7874.0005 7874.0005"
   id="svg4353"
   inkscape:version="0.91 r13725"
   sodipodi:docname="Nomads - Reverend Moiras - [N3] [Vyo].svg"><metadata
     id="metadata4373"><rdf:RDF><cc:Work
         rdf:about=""><dc:format>image/svg+xml</dc:format><dc:type
           rdf:resource="http://purl.org/dc/dcmitype/StillImage" /></cc:Work></rdf:RDF></metadata><sodipodi:namedview
     pagecolor="#ffffff"
     bordercolor="#666666"
     borderopacity="1"
     objecttolerance="10"
     gridtolerance="10"
     guidetolerance="10"
     inkscape:pageopacity="0"
     inkscape:pageshadow="2"
     inkscape:window-width="640"
     inkscape:window-height="480"
     id="namedview4371"
     showgrid="false"
     inkscape:zoom="0.23838384"
     inkscape:cx="736.83001"
     inkscape:cy="849.33005"
     inkscape:window-x="0"
     inkscape:window-y="0"
     inkscape:window-maximized="0"
     inkscape:current-layer="svg4353" /><defs
     id="defs4355"><style
       type="text/css"
       id="style4357"><![CDATA[
    .fil2 {fill:none}
    .fil0 {fill:#FFA000}
    .fil1 {fill:white}
    .fil3 {fill:black;fill-rule:nonzero}
   ]]></style></defs><g
     id="Layer_x0020_1"
     transform="translate(3937,-7063)"><metadata
       id="CorelCorpID_0Corel-Layer" /><circle
       class="fil0"
       cy="11000"
       r="3937"
       id="circle4361"
       cx="0"
       style="fill:#ffa000" /><circle
       class="fil1"
       cy="11000"
       r="3465"
       id="circle4363"
       cx="0"
       style="fill:#ffffff" /><circle
       class="fil2"
       cy="11000"
       r="3661"
       id="circle4365"
       cx="0"
       style="fill:none" /><path
       class="fil3"
       d="m -2636,9874 c 38,19 76,-6 113,-78 l 146,-280 -161,-83 -151,292 c -33,63 -34,103 -3,119 l 56,30 z m -84,37 c -69,-36 -75,-109 -18,-219 l 83,-160 -264,213 c -12,8 -22,10 -32,5 -8,-4 -14,-11 -18,-19 -4,-9 -3,-17 1,-26 2,-4 6,-8 10,-11 l 373,-286 -153,-79 c -18,-9 -22,-25 -11,-46 12,-22 27,-29 45,-19 l 391,203 c 14,7 16,17 9,31 l -163,315 c -63,121 -131,162 -205,123 l -48,-25 z m -71,95 -117,416 c -4,16 -16,21 -35,16 -19,-5 -26,-16 -22,-32 l 117,-416 -89,-25 c -40,-12 -71,21 -93,98 l -84,301 c -5,17 -17,24 -35,18 -19,-5 -26,-17 -21,-34 l 85,-303 c 34,-123 89,-173 165,-152 l 242,68 c 78,22 98,96 63,222 l -23,82 c -5,17 -16,23 -35,18 -18,-5 -25,-16 -20,-33 l 15,-55 c 28,-97 21,-152 -20,-163 l -93,-26 z m -360,694 393,295 c 11,8 16,19 15,32 -1,10 -5,18 -12,25 -7,7 -15,10 -24,9 -5,-1 -11,-3 -17,-7 l -397,-313 c -17,-13 -25,-30 -24,-48 2,-20 12,-35 31,-45 l 438,-248 c 7,-4 14,-6 20,-6 10,1 18,5 23,13 5,8 8,17 7,27 -1,12 -7,21 -19,28 l -434,238 z m 188,426 57,428 c 3,17 -6,27 -26,29 -19,3 -30,-4 -32,-21 l -58,-428 -91,12 c -42,6 -57,48 -47,127 l 42,310 c 2,18 -6,28 -25,31 -20,2 -31,-5 -33,-24 l -42,-312 c -17,-126 14,-194 92,-204 l 249,-34 c 80,-10 128,49 146,180 l 11,84 c 2,17 -6,27 -25,30 -19,2 -29,-5 -31,-22 l -8,-57 c -13,-100 -41,-147 -83,-142 l -96,13 z m 314,973 c 41,-13 49,-58 24,-134 l -97,-301 -172,56 101,313 c 22,68 50,97 84,86 l 60,-20 z m -32,86 c -74,25 -131,-22 -169,-141 l -56,-171 -33,338 c -3,14 -9,22 -19,26 -9,2 -18,2 -26,-1 -9,-3 -15,-9 -18,-19 -2,-4 -2,-9 -1,-15 l 58,-466 -163,53 c -20,7 -34,-1 -41,-24 -8,-24 -2,-39 18,-46 l 419,-135 c 14,-5 24,0 29,15 l 109,338 c 42,129 23,206 -56,232 l -51,16 z m 24,116 212,375 c 9,15 4,27 -13,37 -17,10 -30,7 -38,-7 l -213,-376 -80,45 c -37,21 -35,66 4,135 l 154,272 c 9,16 5,29 -11,38 -18,10 -31,7 -40,-9 l -155,-274 c -63,-111 -60,-185 9,-224 l 218,-124 c 70,-40 138,-2 203,112 l 42,74 c 8,15 4,27 -13,37 -16,9 -29,6 -37,-9 l -28,-49 c -50,-88 -93,-122 -130,-101 l -84,48 z m 473,1033 c -13,11 -25,16 -37,15 -11,-2 -21,-7 -29,-16 -4,-4 -6,-9 -9,-15 -2,-6 -3,-12 -3,-20 l 6,-582 -279,245 c -16,13 -31,11 -47,-7 -16,-18 -16,-34 0,-47 l 317,-278 c 11,-10 23,-14 34,-11 12,2 21,8 28,16 5,5 8,11 11,17 2,6 4,13 3,21 l -3,573 276,-241 c 15,-13 31,-10 47,8 15,17 15,33 0,46 l -315,276 z m 692,110 c 24,-34 4,-74 -60,-120 l -264,-187 -217,306 263,186 c 65,46 111,50 138,12 l 140,-197 z m -81,239 c -49,70 -126,68 -229,-5 l -305,-216 c -13,-10 -15,-21 -6,-34 l 257,-362 c 8,-12 19,-14 32,-5 l 306,217 c 103,73 131,142 85,208 l -140,197 z m 1020,486 c -6,19 -21,26 -45,19 -22,-6 -30,-19 -25,-39 l 96,-345 -362,277 c -18,13 -36,17 -54,11 -22,-5 -36,-18 -43,-38 l -172,-424 -96,344 c -5,20 -20,27 -42,21 -24,-7 -32,-20 -27,-40 l 114,-410 c 7,-27 24,-37 51,-29 18,5 32,17 40,37 l 195,470 404,-307 c 7,-6 15,-9 24,-10 9,-2 17,-2 25,1 28,7 38,25 30,53 l -113,409 z m 611,-300 c 1,-50 -39,-75 -119,-77 l -175,-3 c -85,-2 -128,22 -129,72 l -4,230 c -1,47 41,71 126,73 l 171,3 c 83,1 125,-21 125,-69 l 5,-229 z m 68,231 c -1,86 -75,128 -219,125 l -136,-3 c -144,-2 -215,-46 -214,-131 l 5,-236 c 1,-85 74,-126 218,-123 l 136,3 c 145,2 216,46 215,131 l -5,234 z m 189,85 c 2,20 -10,31 -34,33 -25,2 -38,-7 -39,-28 l -33,-435 c -2,-20 10,-31 35,-33 24,-2 37,7 38,27 l 33,436 z m 545,-449 c -10,-42 -54,-54 -132,-36 l -308,71 41,176 320,-74 c 70,-16 101,-41 93,-75 l -14,-62 z m 83,39 c 18,76 -34,129 -155,157 l -175,40 333,62 c 14,4 22,11 24,22 2,8 1,17 -3,26 -4,8 -10,14 -20,16 -4,1 -9,1 -15,-1 l -459,-98 39,168 c 4,20 -5,33 -28,38 -25,6 -39,-2 -44,-22 l -99,-429 c -3,-15 3,-24 18,-27 l 346,-80 c 132,-31 207,-5 226,76 l 12,52 z m 203,39 270,-123 -230,-154 -40,277 z m 331,-85 -343,155 -24,144 c -1,6 -4,12 -7,16 -3,4 -7,7 -10,9 -9,4 -19,5 -29,3 -9,-2 -16,-8 -21,-18 -2,-5 -3,-12 -2,-19 l 82,-501 c 2,-9 6,-18 12,-25 6,-8 13,-14 21,-17 17,-8 35,-6 52,4 l 433,268 c 4,2 7,4 9,6 2,3 4,6 5,8 4,9 4,18 -1,26 -4,8 -11,15 -19,19 -5,2 -10,3 -16,3 -6,0 -12,-2 -18,-5 l -124,-76 z m 602,-401 c 46,60 21,128 -76,203 l -258,199 c -14,11 -28,8 -40,-8 -12,-14 -10,-27 4,-38 l 266,-205 c 53,-42 68,-78 44,-109 l -26,-33 c -26,-34 -71,-26 -134,23 l -118,91 c -101,78 -172,90 -214,35 l -30,-39 c -47,-60 -26,-125 62,-193 l 65,-50 c 14,-11 27,-9 39,6 11,15 10,28 -5,39 l -73,57 c -44,34 -53,68 -28,101 l 23,29 c 22,28 61,20 117,-23 l 120,-93 c 53,-41 99,-65 137,-71 39,-5 70,7 93,38 l 32,41 z m 40,-506 124,101 197,-242 c 44,-54 51,-92 23,-115 l -38,-31 c -29,-24 -64,-11 -105,39 l -201,248 z m 288,239 213,-263 c 42,-50 49,-86 23,-108 l -36,-29 c -30,-25 -70,-6 -121,56 l -200,247 121,97 z m 93,-561 c 35,28 45,66 28,114 51,-33 96,-34 135,-3 l 19,16 c 61,50 56,119 -16,208 l -245,301 c -9,12 -20,13 -33,3 l -344,-280 c -12,-9 -13,-20 -3,-32 l 233,-287 c 73,-90 142,-109 206,-56 l 20,16 z m 199,-101 123,-270 -275,35 152,235 z m 194,-282 -156,342 76,125 c 3,5 5,11 5,16 1,6 0,10 -1,14 -5,9 -11,16 -20,21 -9,4 -18,5 -28,0 -5,-2 -9,-7 -14,-13 l -267,-431 c -5,-8 -8,-17 -8,-27 0,-10 1,-19 5,-27 8,-17 22,-27 42,-31 l 502,-82 c 4,-2 8,-2 11,-2 3,1 6,2 8,3 10,4 15,11 17,20 3,9 2,18 -2,27 -2,4 -6,9 -10,13 -5,4 -10,6 -17,8 l -143,24 z m -12,-353 270,-311 c 4,-5 9,-8 15,-10 6,-2 10,-3 15,-2 8,2 15,7 20,14 5,7 7,16 5,25 -1,5 -4,10 -10,16 l -292,332 182,41 c 20,5 28,19 22,42 -5,23 -18,32 -38,28 l -426,-97 c -20,-5 -27,-19 -21,-43 5,-23 17,-32 37,-27 l 177,40 -119,-407 c -2,-8 -2,-14 -1,-20 2,-9 7,-17 15,-22 9,-5 17,-6 25,-5 4,1 8,3 11,7 4,3 7,8 9,15 l 104,384 z m 216,-989 c 90,1 134,83 131,244 l -2,111 c -3,152 -49,227 -139,225 l -330,-6 c -20,0 -30,-12 -29,-36 0,-25 11,-37 31,-37 l 323,6 c 55,1 83,-46 85,-143 l 3,-133 c 2,-105 -25,-158 -80,-159 l -323,-6 c -20,0 -30,-13 -30,-37 1,-24 11,-36 31,-35 l 329,6 z m -23,-683 c 17,-3 30,0 39,7 9,7 15,17 17,28 1,6 1,11 0,18 -2,6 -4,12 -9,18 l -309,494 366,-63 c 21,-4 33,7 37,30 4,24 -4,37 -25,40 l -415,72 c -15,2 -27,-1 -35,-9 -9,-8 -14,-17 -16,-28 -1,-7 -1,-14 0,-20 1,-7 4,-13 8,-20 l 302,-487 -361,62 c -20,3 -32,-8 -36,-32 -4,-23 4,-36 24,-39 l 413,-71 z m -63,-187 c 19,-7 33,2 40,25 8,24 2,38 -17,45 l -415,136 c -20,6 -33,-3 -41,-27 -7,-22 -2,-37 18,-43 l 415,-136 z m -321,-628 c 15,-8 28,-10 39,-6 11,4 20,11 25,22 3,5 5,10 5,16 1,7 1,14 -2,21 l -141,564 329,-172 c 18,-10 33,-4 44,17 11,21 8,36 -11,46 l -372,196 c -14,7 -26,8 -37,3 -10,-5 -18,-12 -23,-22 -3,-6 -6,-13 -7,-19 -1,-7 0,-14 2,-21 l 136,-557 -324,170 c -18,10 -33,3 -44,-19 -11,-20 -7,-35 11,-44 l 370,-195 z"
       id="path4367"
       inkscape:connector-curvature="0"
       style="fill:#000000;fill-rule:nonzero" /><path
       class="fil0"
       d="m 0,8638 c 1305,0 2362,1057 2362,2362 0,1305 -1057,2362 -2362,2362 -1305,0 -2362,-1057 -2362,-2362 0,-1305 1057,-2362 2362,-2362 z m 99,1383 c 465,46 834,415 880,880 l 478,-276 134,-78 C 1435,9998 1002,9565 453,9409 l -78,134 -276,478 z m 880,1078 c -46,465 -415,834 -880,880 l 276,478 78,134 c 549,-156 982,-589 1138,-1138 l -134,-78 -478,-276 z m -1078,880 c -465,-46 -834,-415 -880,-880 l -478,276 -134,78 c 156,549 589,982 1138,1138 l 78,-134 276,-478 z m -880,-1078 c 46,-465 415,-834 880,-880 l -276,-478 -78,-134 c -549,156 -982,589 -1138,1138 l 134,78 478,276 z M 0,10252 c 413,0 748,335 748,748 0,413 -335,748 -748,748 -413,0 -748,-335 -748,-748 0,-413 335,-748 748,-748 z M 574,9199 c 582,185 1042,645 1227,1227 l 278,-160 C 1858,9639 1361,9142 734,8921 l -160,278 z m 1227,2375 c -185,582 -645,1042 -1227,1227 l 160,278 c 627,-221 1124,-718 1345,-1345 l -278,-160 z m -2375,1227 c -582,-185 -1042,-645 -1227,-1227 l -278,160 c 221,627 718,1124 1345,1345 l 160,-278 z m -1227,-2375 c 185,-582 645,-1042 1227,-1227 l -160,-278 c -627,221 -1124,718 -1345,1345 l 278,160 z m 3907,-79 0,653 0,653 c 64,-206 99,-426 99,-653 0,-227 -35,-447 -99,-653 z M 0,8795 c 227,0 447,35 653,99 l -653,0 -653,0 c 206,-64 426,-99 653,-99 z m 653,4311 c -206,64 -426,99 -653,99 -227,0 -447,-35 -653,-99 l 653,0 653,0 z m -2759,-1453 c -64,-206 -99,-426 -99,-653 0,-227 35,-447 99,-653 l 0,653 0,653 z"
       id="path4369"
       inkscape:connector-curvature="0"
       style="fill:#ffa000" /></g></svg>