<?xml version="1.0" encoding="UTF-8" standalone="no"?>
<!-- Creator: CorelDRAW X7 -->

<svg
   xmlns:dc="http://purl.org/dc/elements/1.1/"
   xmlns:cc="http://creativecommons.org/ns#"
   xmlns:rdf="http://www.w3.org/1999/02/22-rdf-syntax-ns#"
   xmlns:svg="http://www.w3.org/2000/svg"
   xmlns="http://www.w3.org/2000/svg"
   xmlns:sodipodi="http://sodipodi.sourceforge.net/DTD/sodipodi-0.dtd"
   xmlns:inkscape="http://www.inkscape.org/namespaces/inkscape"
   xml:space="preserve"
   width="7.8740005in"
   height="7.8740005in"
   version="1.1"
   style="clip-rule:evenodd;fill-rule:evenodd;image-rendering:optimizeQuality;shape-rendering:geometricPrecision;text-rendering:geometricPrecision"
   viewBox="0 0 7874.0005 7874.0005"
   id="svg4925"
   inkscape:version="0.91 r13725"
   sodipodi:docname="Nomads - Zeros - [N3] [Vyo].svg"><metadata
     id="metadata4945"><rdf:RDF><cc:Work
         rdf:about=""><dc:format>image/svg+xml</dc:format><dc:type
           rdf:resource="http://purl.org/dc/dcmitype/StillImage" /></cc:Work></rdf:RDF></metadata><sodipodi:namedview
     pagecolor="#ffffff"
     bordercolor="#666666"
     borderopacity="1"
     objecttolerance="10"
     gridtolerance="10"
     guidetolerance="10"
     inkscape:pageopacity="0"
     inkscape:pageshadow="2"
     inkscape:window-width="640"
     inkscape:window-height="480"
     id="namedview4943"
     showgrid="false"
     inkscape:zoom="0.23838384"
     inkscape:cx="736.83001"
     inkscape:cy="849.33005"
     inkscape:window-x="0"
     inkscape:window-y="0"
     inkscape:window-maximized="0"
     inkscape:current-layer="svg4925" /><defs
     id="defs4927"><style
       type="text/css"
       id="style4929"><![CDATA[
    .fil3 {fill:none}
    .fil0 {fill:black}
    .fil2 {fill:#FFA000}
    .fil1 {fill:white}
    .fil4 {fill:black;fill-rule:nonzero}
   ]]></style></defs><g
     id="Layer_x0020_1"
     transform="translate(3937,-7063)"><metadata
       id="CorelCorpID_0Corel-Layer" /><circle
       class="fil0"
       cy="11000"
       r="3937"
       id="circle4933"
       cx="0"
       style="fill:#000000" /><circle
       class="fil1"
       cy="11000"
       r="3780"
       id="circle4935"
       cx="0"
       style="fill:#ffffff" /><path
       class="fil2"
       d="m -2717,10945 c 399,-96 147,-589 412,-1109 125,-245 298,-496 514,-666 49,-38 77,-47 116,-80 113,-92 52,-33 103,-117 -391,60 -712,488 -900,736 -181,240 -110,358 -252,576 -104,158 -106,82 -83,321 11,118 35,258 90,339 z m 3951,404 c -86,67 -566,974 -1557,765 -1268,-268 -1509,-2242 47,-2571 534,-113 928,1 1285,409 43,51 77,98 107,168 l 97,224 c 311,149 414,14 447,496 50,729 -440,1617 -1004,1958 -702,425 -1603,348 -2287,-88 -215,-137 -391,-315 -563,-414 39,214 566,551 740,670 1030,708 2376,627 3166,-214 415,-441 254,-216 577,-842 164,-316 233,-832 230,-1224 -8,-1010 -286,-381 -547,-906 -67,-135 -157,-172 -323,-390 -317,-419 -941,-617 -1531,-621 -455,-3 -837,93 -1136,307 -567,406 -926,1051 -807,2057 40,344 -278,526 295,963 202,155 706,433 1016,452 508,32 838,-21 1191,-280 252,-186 544,-454 557,-919 z"
       id="path4937"
       inkscape:connector-curvature="0"
       style="fill:#ffa000" /><ellipse
       class="fil3"
       transform="matrix(0,-1.60976,2.08421,0,3.80704e-5,11000)"
       rx="2421"
       ry="1870"
       id="ellipse4939"
       cx="0"
       cy="0"
       style="fill:none" /><path
       class="fil4"
       d="m -1634,8031 -393,257 c -17,11 -32,8 -44,-10 -11,-16 -7,-30 11,-42 l 461,-302 c 11,-7 21,-9 32,-6 10,2 18,7 24,16 2,3 3,7 4,12 1,5 0,10 -2,15 l -203,614 408,-267 c 18,-11 32,-8 43,8 12,19 9,34 -9,45 l -460,301 c -13,9 -26,12 -39,10 -13,-3 -22,-8 -28,-17 -6,-9 -7,-20 -3,-33 l 198,-601 z m 434,-20 489,-149 c 19,-5 32,2 38,22 6,21 0,34 -19,39 l -490,149 29,95 c 13,43 65,51 155,24 l 354,-108 c 21,-6 34,1 40,20 6,21 -1,34 -22,41 l -357,108 c -144,44 -228,25 -253,-57 l -78,-259 c -25,-83 37,-147 186,-192 l 96,-29 c 20,-6 33,1 39,21 6,19 -1,32 -21,38 l -65,19 c -114,35 -165,74 -152,118 l 31,100 z M 82,7672 c -4,-46 -53,-66 -148,-59 l -373,29 15,194 388,-30 c 85,-6 126,-28 123,-66 l -5,-68 z m 90,54 c 6,85 -64,132 -211,144 l -212,16 378,118 c 15,6 23,15 24,26 1,10 -2,19 -8,27 -6,9 -15,14 -26,15 -6,0 -12,-1 -18,-4 l -519,-175 14,185 c 2,22 -11,34 -40,36 -29,2 -45,-8 -47,-30 l -35,-473 c -2,-16 7,-25 26,-26 l 419,-32 c 160,-12 244,27 251,116 l 4,57 z m 780,102 c 11,-52 -29,-89 -121,-109 l -203,-46 c -98,-22 -153,-7 -165,45 l -54,242 c -11,49 32,85 130,107 l 198,44 c 96,22 149,8 160,-42 l 55,-241 z m 30,261 c -21,90 -115,116 -282,79 L 543,8132 C 377,8095 304,8031 324,7942 l 55,-247 c 20,-90 113,-115 280,-78 l 157,35 c 167,38 241,101 221,190 l -55,247 z m 676,354 c -38,72 -121,73 -250,5 l -341,-181 c -19,-10 -23,-25 -13,-45 10,-17 24,-21 42,-11 l 352,187 c 70,37 115,37 135,0 l 21,-40 c 22,-40 -9,-83 -93,-127 l -156,-83 c -133,-71 -182,-139 -148,-205 l 25,-46 c 39,-73 117,-79 234,-16 l 85,45 c 19,10 24,24 14,43 -9,18 -24,21 -43,11 l -97,-52 c -58,-30 -98,-26 -119,14 l -19,36 c -18,33 11,70 85,109 l 158,84 c 71,38 120,75 145,112 26,36 29,73 9,110 l -26,50 z m 957,403 -140,100 215,301 c 48,67 87,89 119,66 l 43,-31 c 33,-23 28,-66 -17,-129 l -220,-307 z m -331,230 233,327 c 45,63 83,84 112,63 l 41,-30 c 34,-24 23,-74 -32,-151 l -218,-306 -136,97 z m 588,301 c -40,28 -84,25 -131,-10 23,67 13,117 -31,148 l -21,15 c -70,50 -144,20 -223,-91 l -267,-373 c -11,-15 -9,-28 5,-38 l 389,-278 c 13,-9 25,-6 36,9 l 255,357 c 79,111 83,193 10,245 l -22,16 z m 20,405 105,335 190,-241 -295,-94 z m 58,400 -132,-425 -154,-54 c -7,-3 -12,-6 -17,-11 -4,-4 -7,-9 -8,-13 -4,-12 -4,-23 -1,-34 4,-11 11,-18 22,-21 6,-2 13,-2 20,1 l 534,182 c 10,3 19,9 27,18 7,9 13,18 16,28 6,21 3,41 -10,59 l -335,457 c -2,4 -4,8 -7,10 -3,2 -6,3 -9,4 -10,3 -20,1 -28,-5 -9,-7 -15,-16 -18,-27 -2,-5 -2,-11 -2,-18 1,-7 3,-14 7,-21 l 95,-130 z m 215,426 -176,445 c -3,7 -7,12 -12,16 -5,5 -10,7 -15,7 -9,1 -17,-2 -25,-9 -8,-6 -12,-15 -13,-26 -1,-6 1,-13 4,-22 l 193,-476 -201,16 c -22,1 -34,-12 -36,-40 -3,-28 7,-43 30,-45 l 469,-35 c 22,-2 34,12 36,41 2,27 -8,41 -30,43 l -194,15 254,421 c 5,8 7,15 8,22 1,12 -2,22 -9,30 -7,9 -14,13 -23,14 -5,0 -9,-1 -14,-3 -5,-3 -10,-8 -14,-15 l -232,-399 z m -205,1255 c -96,-16 -128,-118 -98,-306 l 21,-130 c 28,-178 90,-259 186,-243 l 350,56 c 22,3 30,19 26,46 -5,29 -18,42 -39,39 l -345,-55 c -58,-10 -96,42 -114,155 l -25,156 c -20,123 -1,189 58,198 l 344,55 c 21,4 30,20 25,48 -4,28 -17,40 -39,37 l -350,-56 z m -451,727 c -16,-9 -26,-19 -28,-32 -3,-14 -1,-26 5,-39 3,-6 8,-11 13,-16 5,-5 12,-9 20,-12 l 610,-258 -353,-188 c -19,-10 -23,-28 -9,-53 13,-25 29,-32 49,-22 l 400,213 c 15,8 23,19 24,32 2,13 0,26 -7,37 -3,7 -8,14 -14,19 -5,6 -12,10 -20,13 l -600,258 348,185 c 19,10 22,28 8,54 -13,24 -29,31 -48,21 l -398,-212 z m -146,167 c -18,-12 -18,-30 -2,-54 17,-24 34,-30 52,-17 l 385,271 c 18,13 18,31 0,56 -16,23 -33,28 -50,15 l -385,-271 z m -549,612 c -13,-13 -18,-26 -17,-40 1,-13 7,-25 17,-35 5,-4 10,-8 17,-11 7,-3 15,-5 23,-5 l 660,-61 -279,-286 c -16,-16 -14,-34 7,-54 20,-19 38,-21 53,-5 l 317,325 c 11,12 16,24 13,37 -3,13 -9,25 -18,34 -6,5 -12,10 -19,14 -7,3 -15,5 -24,6 l -650,62 276,283 c 15,15 12,33 -9,54 -20,19 -37,20 -52,5 l -315,-323 z m -2020,591 c -1,-18 4,-31 15,-40 10,-9 22,-13 36,-13 7,0 13,1 21,3 7,3 13,6 20,12 l 517,414 -3,-400 c 0,-22 14,-34 43,-34 27,0 42,11 42,33 l 3,454 c 0,16 -5,28 -16,36 -11,8 -23,11 -36,12 -8,0 -16,-2 -24,-4 -8,-2 -15,-6 -21,-12 l -512,-405 3,395 c 0,21 -15,32 -44,33 -27,0 -41,-11 -41,-33 l -3,-451 z m -772,201 c -12,53 28,89 121,110 l 203,45 c 98,22 152,7 164,-45 l 54,-241 c 11,-50 -32,-86 -130,-108 l -198,-44 c -95,-22 -149,-7 -160,42 l -54,241 z m -30,-261 c 20,-90 114,-116 281,-78 l 157,35 c 167,37 240,101 220,190 l -56,248 c -20,89 -113,115 -279,77 l -157,-35 c -168,-38 -242,-101 -222,-190 l 56,-247 z m -909,-622 c 12,-19 30,-20 56,-5 23,14 29,30 18,49 l -198,331 480,-168 c 24,-8 45,-6 64,6 23,13 36,32 38,55 l 84,505 198,-330 c 11,-19 29,-22 53,-7 24,14 31,31 19,50 l -235,393 c -15,26 -37,31 -65,14 -19,-12 -31,-29 -35,-53 l -97,-561 -537,187 c -9,3 -18,4 -29,2 -10,-1 -20,-4 -28,-9 -29,-18 -36,-40 -20,-67 l 234,-392 z m -341,-119 -228,-268 -80,297 308,-29 z m -211,-345 290,339 162,-12 c 7,0 14,1 19,4 6,2 11,5 14,9 8,9 12,19 13,30 1,12 -2,21 -11,28 -5,5 -11,7 -19,8 l -562,42 c -11,1 -22,-1 -32,-6 -11,-5 -19,-11 -26,-19 -14,-17 -19,-37 -14,-59 l 128,-551 c -1,-5 0,-9 3,-12 2,-3 4,-5 6,-7 8,-7 18,-9 28,-7 10,3 19,9 27,17 4,5 7,10 9,17 2,7 3,14 2,21 l -37,158 z m -656,-690 c -41,19 -43,71 -5,156 l 158,350 368,-166 -157,-348 c -39,-86 -81,-119 -127,-99 l -237,107 z m 202,-185 c 84,-37 157,12 219,149 l 182,404 c 8,17 4,29 -13,36 l -435,197 c -14,6 -26,1 -33,-16 l -183,-405 c -62,-136 -53,-222 26,-258 l 237,-107 z m -118,-754 c 80,-13 132,52 155,196 l 61,382 c 3,21 -6,33 -28,36 -19,4 -31,-5 -34,-26 l -63,-393 c -13,-79 -40,-115 -81,-108 l -45,7 c -45,7 -61,58 -46,151 l 28,174 c 24,149 -1,230 -74,242 l -52,8 c -81,13 -133,-46 -154,-177 l -15,-95 c -3,-21 5,-34 26,-37 20,-3 31,6 35,27 l 17,109 c 11,65 38,94 83,87 l 40,-7 c 37,-6 49,-50 36,-134 l -29,-176 c -12,-80 -12,-141 2,-183 13,-43 41,-68 82,-74 l 56,-9 z"
       id="path4941"
       inkscape:connector-curvature="0"
       style="fill:#000000;fill-rule:nonzero" /></g></svg>