<?xml version="1.0" encoding="UTF-8" standalone="no"?>
<!-- Creator: CorelDRAW X7 -->

<svg
   xmlns:dc="http://purl.org/dc/elements/1.1/"
   xmlns:cc="http://creativecommons.org/ns#"
   xmlns:rdf="http://www.w3.org/1999/02/22-rdf-syntax-ns#"
   xmlns:svg="http://www.w3.org/2000/svg"
   xmlns="http://www.w3.org/2000/svg"
   xmlns:sodipodi="http://sodipodi.sourceforge.net/DTD/sodipodi-0.dtd"
   xmlns:inkscape="http://www.inkscape.org/namespaces/inkscape"
   xml:space="preserve"
   width="7.8740005in"
   height="7.8740005in"
   version="1.1"
   style="clip-rule:evenodd;fill-rule:evenodd;image-rendering:optimizeQuality;shape-rendering:geometricPrecision;text-rendering:geometricPrecision"
   viewBox="0 0 7874.0005 7874.0005"
   id="svg3628"
   inkscape:version="0.91 r13725"
   sodipodi:docname="Nomads - Die Morlock Gruppe - [N3] [Vyo].svg"><metadata
     id="metadata3652"><rdf:RDF><cc:Work
         rdf:about=""><dc:format>image/svg+xml</dc:format><dc:type
           rdf:resource="http://purl.org/dc/dcmitype/StillImage" /></cc:Work></rdf:RDF></metadata><sodipodi:namedview
     pagecolor="#ffffff"
     bordercolor="#666666"
     borderopacity="1"
     objecttolerance="10"
     gridtolerance="10"
     guidetolerance="10"
     inkscape:pageopacity="0"
     inkscape:pageshadow="2"
     inkscape:window-width="640"
     inkscape:window-height="480"
     id="namedview3650"
     showgrid="false"
     inkscape:zoom="0.23838384"
     inkscape:cx="736.83001"
     inkscape:cy="849.33005"
     inkscape:window-x="0"
     inkscape:window-y="0"
     inkscape:window-maximized="0"
     inkscape:current-layer="svg3628" /><defs
     id="defs3630"><style
       type="text/css"
       id="style3632"><![CDATA[
    .fil1 {fill:none}
    .fil4 {fill:black}
    .fil0 {fill:#E32527}
    .fil2 {fill:white}
    .fil3 {fill:black;fill-rule:nonzero}
   ]]></style></defs><g
     id="Layer_x0020_1"
     transform="translate(3937,-7063)"><metadata
       id="CorelCorpID_0Corel-Layer" /><path
       class="fil0"
       d="m 1653,11896 c -106,394 -413,722 -835,835 -631,169 -1278,-205 -1447,-835 -54,-199 65,-405 264,-458 200,-54 405,65 459,265 76,257 479,517 772,517 293,0 622,-164 673,-354 8,-32 41,-50 72,-42 32,8 50,41 42,72 z m -2282,-611 c 106,-394 413,-722 835,-835 630,-169 1278,205 1447,835 53,199 -65,405 -265,458 -199,54 -405,-65 -458,-264 -77,-257 -479,-518 -773,-518 -293,0 -621,164 -672,354 -9,32 -41,51 -73,42 -31,-8 -50,-41 -41,-72 z"
       id="path3636"
       inkscape:connector-curvature="0"
       style="fill:#e32527" /><path
       class="fil1"
       d="m 512,10409 c 652,0 1181,529 1181,1182 0,652 -529,1181 -1181,1181 -653,0 -1181,-529 -1181,-1181 0,-653 528,-1182 1181,-1182 z"
       id="path3638"
       inkscape:connector-curvature="0"
       style="fill:none" /><circle
       class="fil2"
       cy="11000"
       r="3937"
       id="circle3640"
       cx="0"
       style="fill:#ffffff" /><ellipse
       class="fil1"
       transform="matrix(-1.40817,-0.813008,1.05263,-1.82321,-2.44223e-4,11000)"
       rx="2421"
       ry="1870"
       id="ellipse3642"
       cx="0"
       cy="0"
       style="fill:none" /><path
       class="fil3"
       d="m -3357,9884 c 26,9 49,-13 68,-66 l 78,-219 -230,-83 -79,218 c -19,54 -14,86 14,97 l 149,53 z m -166,-4 c -53,-19 -64,-72 -33,-157 l 91,-254 c 4,-10 11,-14 21,-10 l 273,98 c 9,3 12,10 8,21 l -91,253 c -31,86 -71,120 -121,102 l -148,-53 z m 61,124 -76,301 c -3,12 -11,16 -23,13 -13,-3 -18,-11 -15,-23 l 76,-301 -58,-15 c -27,-6 -47,18 -61,74 l -55,218 c -3,12 -11,17 -23,14 -13,-3 -17,-11 -14,-24 l 55,-219 c 22,-89 59,-127 109,-114 l 159,40 c 51,13 65,65 42,157 l -15,59 c -3,12 -11,17 -23,14 -12,-3 -16,-11 -13,-23 l 10,-40 c 18,-70 13,-109 -14,-116 l -61,-15 z m -66,727 c 28,3 44,-25 50,-82 l 22,-226 -118,-12 -23,235 c -5,52 4,79 27,81 l 42,4 z m -43,48 c -51,-5 -72,-52 -63,-141 l 12,-129 -110,214 c -5,9 -11,13 -18,12 -6,-1 -11,-3 -15,-8 -5,-4 -7,-10 -6,-17 0,-4 1,-7 4,-10 l 158,-292 -111,-11 c -14,-1 -20,-11 -18,-28 2,-18 9,-26 23,-25 l 286,28 c 10,1 14,7 13,19 l -24,253 c -10,98 -42,144 -96,138 l -35,-3 z m -150,808 c -14,1 -22,-7 -23,-26 -2,-16 4,-24 18,-26 l 233,-22 -255,-174 c -13,-9 -20,-20 -21,-34 -1,-16 3,-29 14,-38 l 217,-223 -233,22 c -14,2 -21,-6 -23,-23 -1,-17 5,-27 18,-28 l 277,-26 c 18,-2 28,7 30,27 1,13 -3,25 -13,36 l -240,249 285,195 c 4,4 8,8 11,14 3,5 5,11 6,17 2,21 -7,32 -25,34 l -276,26 z m 304,359 c 32,-8 41,-40 27,-96 l -30,-122 c -15,-59 -38,-85 -69,-77 l -146,35 c -30,8 -38,41 -23,100 l 29,120 c 14,58 37,83 67,76 l 145,-36 z m -133,87 c -55,13 -94,-31 -119,-132 l -24,-95 c -24,-101 -10,-157 44,-171 l 150,-37 c 54,-13 93,31 118,131 l 23,95 c 25,102 10,159 -43,172 l -149,37 z m 286,351 c 26,-10 30,-41 11,-96 l -74,-215 -111,38 77,224 c 16,49 36,69 57,62 l 40,-13 z m -19,61 c -48,16 -87,-17 -116,-102 l -42,-122 -12,240 c -1,10 -5,16 -11,18 -6,2 -12,2 -18,-1 -6,-2 -10,-6 -12,-13 -1,-3 -1,-7 -1,-11 l 24,-331 -107,36 c -12,5 -22,-1 -27,-18 -6,-17 -3,-27 10,-32 l 273,-93 c 9,-4 15,0 19,11 l 83,241 c 32,93 22,148 -30,165 l -33,12 z m -88,262 c -50,-96 -50,-157 -2,-183 l 197,-101 c 11,-6 21,-2 29,14 8,15 7,26 -5,32 l -196,102 c -27,14 -23,52 10,117 l 95,182 c 6,12 3,21 -9,27 -11,6 -19,3 -25,-9 l -94,-181 z m 508,391 c 27,-17 25,-50 -7,-99 l -68,-105 c -34,-51 -64,-68 -91,-50 l -126,82 c -26,16 -22,50 11,101 l 67,104 c 33,49 62,66 88,49 l 126,-82 z m -98,126 c -47,31 -99,3 -156,-85 l -53,-82 c -56,-86 -61,-145 -15,-175 l 129,-84 c 47,-31 98,-2 155,84 l 53,82 c 57,88 62,146 16,177 l -129,83 z m 273,13 c -39,-44 -68,-58 -87,-41 l -122,108 c -22,19 -12,53 31,102 l 127,145 c 9,10 9,19 -1,27 -10,8 -19,8 -27,-2 l -133,-151 c -62,-71 -73,-124 -33,-159 l 124,-109 c 38,-33 87,-15 148,54 l 135,154 c 8,9 8,18 -1,26 -10,9 -19,8 -27,-2 l -134,-152 z m 159,348 105,270 c 2,5 2,9 2,13 -1,4 -2,7 -4,9 -4,4 -9,6 -15,6 -6,1 -12,-1 -17,-6 -2,-3 -5,-6 -7,-12 l -110,-291 -83,89 c -10,10 -20,10 -33,-2 -13,-12 -14,-23 -5,-33 l 194,-209 c 9,-9 20,-8 33,4 13,11 14,22 5,31 l -81,87 287,83 c 6,2 10,4 13,7 5,4 8,10 9,17 0,6 -1,11 -5,15 -2,2 -5,4 -8,5 -3,1 -7,0 -12,-1 l -268,-82 z m 670,626 c -30,43 -81,40 -153,-9 l -118,-81 c -79,-54 -103,-103 -74,-145 l 94,-138 c 29,-42 83,-35 162,19 l 47,32 c 10,7 11,15 5,25 -8,11 -16,12 -27,5 l -33,-22 c -59,-41 -96,-50 -110,-29 l -94,137 c -15,22 2,50 53,85 l 117,80 c 42,29 71,33 86,12 l 48,-71 c 8,-10 19,-11 34,0 14,10 18,20 10,31 l -47,69 z m 453,37 c 12,-25 -8,-50 -60,-75 l -205,-98 -51,106 213,102 c 47,22 75,23 85,2 l 18,-37 z m 31,56 c -23,46 -74,50 -155,12 l -116,-56 163,176 c 6,8 8,15 5,21 -3,6 -7,10 -13,12 -6,3 -12,3 -18,0 -3,-2 -6,-4 -8,-7 l -220,-249 -49,101 c -5,12 -16,15 -32,7 -16,-7 -21,-17 -15,-30 l 124,-260 c 4,-8 11,-10 22,-5 l 230,110 c 88,42 120,87 97,136 l -15,32 z m 389,263 c -20,55 -84,63 -194,24 l -74,-27 c -103,-37 -145,-83 -125,-138 l 73,-203 c 4,-12 14,-16 30,-10 17,6 24,15 19,28 l -71,199 c -12,34 14,62 79,86 l 91,32 c 71,26 112,22 124,-12 l 72,-199 c 4,-13 15,-16 31,-10 16,6 22,15 18,27 l -73,203 z m 449,-71 c 5,-25 -19,-42 -73,-53 l -231,-46 -24,124 227,45 c 56,11 86,4 91,-21 l 10,-49 z m 41,61 c -10,49 -62,65 -155,46 l -222,-44 -19,98 c -3,14 -13,19 -31,15 -17,-3 -24,-12 -21,-25 l 56,-283 c 2,-9 8,-13 19,-11 l 259,52 c 92,18 134,51 125,97 l -11,55 z m 403,-24 c 1,-25 -26,-39 -80,-42 l -235,-11 -6,125 232,12 c 56,3 85,-9 87,-35 l 2,-49 z m 49,54 c -2,51 -51,73 -147,69 l -225,-11 -5,100 c -1,13 -10,19 -28,19 -17,-1 -26,-8 -25,-22 l 14,-288 c 0,-9 6,-14 18,-13 l 263,12 c 94,5 140,31 138,79 l -3,55 z m 90,15 310,-15 c 12,0 19,6 19,19 1,13 -5,19 -17,20 l -310,15 3,60 c 1,28 30,40 87,37 l 225,-11 c 13,0 20,5 20,18 1,13 -5,20 -18,20 l -227,11 c -91,5 -138,-19 -140,-70 l -8,-164 c -3,-53 43,-82 138,-86 l 61,-3 c 12,-1 19,5 19,18 1,12 -5,19 -17,19 l -41,2 c -73,4 -109,19 -107,47 l 3,63 z m 583,-158 25,102 218,-53 c 49,-12 70,-30 64,-52 l -7,-32 c -6,-24 -32,-30 -77,-19 l -223,54 z m 55,239 237,-58 c 46,-11 66,-27 61,-49 l -7,-30 c -6,-24 -37,-29 -93,-16 l -222,54 24,99 z m 302,-263 c 7,28 -4,52 -35,71 44,2 69,19 77,51 l 4,15 c 12,51 -22,86 -102,105 l -271,67 c -10,2 -17,-2 -20,-12 l -69,-282 c -2,-9 2,-15 13,-18 l 259,-63 c 81,-20 127,-3 140,49 l 4,17 z m 172,44 202,-70 -150,-111 -52,181 z m 242,-42 -256,87 -29,95 c -2,4 -4,7 -7,10 -2,3 -5,5 -8,5 -7,3 -13,3 -20,1 -7,-2 -11,-6 -14,-12 -1,-4 -1,-8 1,-13 l 101,-327 c 2,-6 5,-12 11,-16 5,-5 10,-9 16,-11 13,-4 25,-2 36,5 l 283,195 c 3,1 5,3 6,5 2,2 2,3 3,5 2,6 1,12 -3,17 -3,6 -9,9 -15,12 -4,1 -7,1 -12,1 -4,0 -8,-1 -12,-4 l -81,-55 z m 180,-169 290,-8 c 5,0 9,1 12,3 4,2 6,4 8,6 2,5 3,11 1,17 -2,6 -6,10 -12,13 -3,2 -7,3 -13,3 l -312,5 57,109 c 6,12 1,22 -14,30 -15,8 -26,6 -32,-6 l -131,-254 c -7,-12 -2,-22 14,-30 15,-7 25,-5 31,6 l 55,106 174,-242 c 4,-5 7,-8 11,-10 6,-3 13,-4 19,-2 6,1 11,4 13,9 1,3 2,6 2,9 -1,3 -2,7 -5,11 l -168,225 z m 662,-308 c 32,49 -1,105 -98,169 l -66,43 c -92,60 -154,65 -186,16 l -118,-181 c -7,-11 -3,-21 11,-30 15,-10 26,-10 33,2 l 116,177 c 19,30 58,26 116,-12 l 81,-52 c 63,-41 85,-77 65,-107 l -115,-177 c -7,-11 -4,-22 11,-31 14,-10 25,-9 32,2 l 118,181 z m 396,-271 c 7,8 10,16 9,24 -1,8 -5,15 -12,21 -2,2 -6,5 -10,6 -4,2 -9,3 -14,3 l -402,16 161,182 c 9,10 6,21 -7,33 -12,11 -23,11 -32,1 l -182,-206 c -7,-8 -9,-15 -7,-23 2,-8 6,-15 12,-20 4,-3 8,-6 12,-8 5,-2 9,-3 14,-3 l 397,-18 -159,-180 c -9,-9 -6,-20 7,-32 12,-11 23,-12 32,-2 l 181,206 z m 93,-88 c 10,9 8,20 -4,33 -12,13 -22,15 -32,6 l -209,-194 c -10,-9 -9,-20 4,-34 11,-12 22,-14 32,-5 l 209,194 z m 314,-382 c 8,7 12,15 12,23 0,8 -3,15 -8,22 -3,3 -6,6 -10,8 -4,2 -8,4 -13,5 l -395,76 186,156 c 10,8 10,19 -1,33 -11,13 -22,15 -32,6 l -211,-177 c -8,-7 -11,-14 -10,-22 0,-8 3,-15 9,-21 3,-4 6,-7 10,-10 4,-2 9,-4 14,-5 l 389,-77 -183,-154 c -10,-8 -10,-19 2,-33 11,-13 21,-15 31,-6 l 210,176 z"
       id="path3644"
       inkscape:connector-curvature="0"
       style="fill:#000000;fill-rule:nonzero" /><path
       class="fil4"
       d="m 0,14228 c 1405,0 2600,-897 3044,-2150 L -2455,8903 c -482,564 -773,1297 -773,2097 0,1783 1445,3228 3228,3228 z"
       id="path3646"
       inkscape:connector-curvature="0"
       style="fill:#000000" /><path
       class="fil0"
       d="m 1653,11896 c -106,394 -413,722 -835,835 -631,169 -1278,-205 -1447,-835 -54,-199 65,-405 264,-458 200,-54 405,65 459,265 76,257 479,517 772,517 293,0 622,-164 673,-354 8,-32 41,-50 72,-42 32,8 50,41 42,72 z m -2282,-611 c 98,-365 369,-674 745,-807 l 1550,895 c 4,169 -107,325 -278,370 -199,54 -405,-65 -458,-264 -77,-257 -479,-518 -773,-518 -293,0 -621,164 -672,354 -9,32 -41,51 -73,42 -31,-8 -50,-41 -41,-72 z"
       id="path3648"
       inkscape:connector-curvature="0"
       style="fill:#e32527" /></g></svg>