<?xml version="1.0" encoding="UTF-8" standalone="no"?>
<!-- Creator: CorelDRAW X7 -->

<svg
   xmlns:dc="http://purl.org/dc/elements/1.1/"
   xmlns:cc="http://creativecommons.org/ns#"
   xmlns:rdf="http://www.w3.org/1999/02/22-rdf-syntax-ns#"
   xmlns:svg="http://www.w3.org/2000/svg"
   xmlns="http://www.w3.org/2000/svg"
   xmlns:sodipodi="http://sodipodi.sourceforge.net/DTD/sodipodi-0.dtd"
   xmlns:inkscape="http://www.inkscape.org/namespaces/inkscape"
   xml:space="preserve"
   width="7.8740005in"
   height="7.8740005in"
   version="1.1"
   style="clip-rule:evenodd;fill-rule:evenodd;image-rendering:optimizeQuality;shape-rendering:geometricPrecision;text-rendering:geometricPrecision"
   viewBox="0 0 7874.0005 7874.0005"
   id="svg4540"
   inkscape:version="0.91 r13725"
   sodipodi:docname="Nomads - Stempler Zond - [N3] [Vyo].svg"><metadata
     id="metadata4595"><rdf:RDF><cc:Work
         rdf:about=""><dc:format>image/svg+xml</dc:format><dc:type
           rdf:resource="http://purl.org/dc/dcmitype/StillImage" /></cc:Work></rdf:RDF></metadata><sodipodi:namedview
     pagecolor="#ffffff"
     bordercolor="#666666"
     borderopacity="1"
     objecttolerance="10"
     gridtolerance="10"
     guidetolerance="10"
     inkscape:pageopacity="0"
     inkscape:pageshadow="2"
     inkscape:window-width="640"
     inkscape:window-height="480"
     id="namedview4593"
     showgrid="false"
     inkscape:zoom="0.23838384"
     inkscape:cx="736.83001"
     inkscape:cy="849.33005"
     inkscape:window-x="0"
     inkscape:window-y="0"
     inkscape:window-maximized="0"
     inkscape:current-layer="svg4540" /><defs
     id="defs4542"><style
       type="text/css"
       id="style4544"><![CDATA[
    .fil2 {fill:none}
    .fil0 {fill:black}
    .fil4 {fill:#E2001A}
    .fil1 {fill:white}
    .fil3 {fill:white;fill-rule:nonzero}
   ]]></style></defs><g
     id="Layer_x0020_1"
     transform="translate(3937,-7063)"><metadata
       id="CorelCorpID_0Corel-Layer" /><circle
       class="fil0"
       cy="11000"
       r="3937"
       id="circle4548"
       cx="0"
       style="fill:#000000" /><circle
       class="fil1"
       cy="11000"
       r="3780"
       id="circle4550"
       cx="0"
       style="fill:#ffffff" /><path
       class="fil0"
       d="m 0,7378 c 2000,0 3622,1622 3622,3622 0,2000 -1622,3622 -3622,3622 -2000,0 -3622,-1622 -3622,-3622 0,-2000 1622,-3622 3622,-3622 z m 0,905 c 1500,0 2717,1217 2717,2717 0,1500 -1217,2717 -2717,2717 -1500,0 -2717,-1217 -2717,-2717 0,-1500 1217,-2717 2717,-2717 z"
       id="path4552"
       inkscape:connector-curvature="0"
       style="fill:#000000" /><path
       class="fil1"
       d="m 512,14427 c -167,25 -338,38 -512,38 -174,0 -345,-13 -512,-38 l 0,-2 c -108,0 -196,-88 -197,-197 l 0,0 0,0 0,-200 c 0,-108 88,-196 197,-196 l 0,-3 c 166,29 337,45 512,45 175,0 346,-16 512,-45 l 0,3 c 109,0 197,88 197,196 l 0,200 0,0 0,0 c -1,109 -89,197 -197,197 l 0,2 z"
       id="path4554"
       inkscape:connector-curvature="0"
       style="fill:#ffffff" /><path
       class="fil1"
       d="m 2712,8843 c 105,133 201,274 288,425 87,150 162,305 224,462 l -2,1 c 54,94 22,214 -72,269 l 0,0 0,0 -173,100 c -94,54 -215,22 -269,-73 l -3,2 c -57,-159 -129,-315 -216,-466 -87,-151 -186,-292 -295,-421 l 2,-1 c -54,-94 -22,-215 72,-269 l 173,-100 1,0 0,0 c 94,-54 214,-22 268,72 l 2,-1 z"
       id="path4556"
       inkscape:connector-curvature="0"
       style="fill:#ffffff" /><path
       class="fil1"
       d="m -3224,9730 c 62,-157 137,-312 224,-462 87,-151 183,-292 288,-425 l 2,1 c 54,-94 174,-126 268,-72 l 0,0 1,0 173,100 c 94,54 126,175 72,269 l 2,1 c -109,129 -208,270 -295,421 -87,151 -159,307 -216,466 l -3,-2 c -54,95 -175,127 -269,73 l -173,-100 0,0 0,0 c -94,-55 -126,-175 -72,-269 l -2,-1 z"
       id="path4558"
       inkscape:connector-curvature="0"
       style="fill:#ffffff" /><ellipse
       class="fil2"
       transform="matrix(1.58018,-0.307156,0.397686,2.04592,3.02895e-4,11000)"
       rx="2421"
       ry="1870"
       id="ellipse4560"
       cx="0"
       cy="0"
       style="fill:none" /><path
       class="fil3"
       d="m -1700,8457 c 41,54 20,112 -63,175 l -198,149 c -20,15 -37,12 -53,-9 -15,-20 -13,-37 7,-52 l 203,-153 c 32,-25 42,-46 29,-63 l -14,-19 c -15,-19 -43,-14 -83,16 l -90,68 c -86,65 -148,72 -186,22 l -23,-30 c -41,-56 -24,-112 54,-171 l 50,-37 c 19,-15 37,-12 53,9 15,20 12,37 -7,52 l -57,43 c -25,19 -31,38 -17,57 l 10,14 c 13,16 36,12 71,-14 l 92,-70 c 90,-68 156,-74 198,-19 l 24,32 z"
       id="path4562"
       inkscape:connector-curvature="0"
       style="fill:#ffffff;fill-rule:nonzero" /><path
       id="1"
       class="fil3"
       d="m -1584,8124 140,258 c 13,23 6,42 -20,55 -26,14 -45,10 -57,-13 l -140,-258 -121,66 c -22,12 -39,6 -51,-17 -12,-22 -7,-39 15,-50 l 320,-174 c 21,-11 37,-6 49,16 13,23 8,40 -13,51 l -122,66 z"
       inkscape:connector-curvature="0"
       style="fill:#ffffff;fill-rule:nonzero" /><path
       id="2"
       class="fil3"
       d="m -1196,8028 301,-90 c 22,-7 37,2 45,27 7,24 -1,40 -23,46 l -301,90 15,48 c 6,23 34,27 82,13 l 228,-68 c 23,-7 38,2 46,26 7,25 -1,40 -24,47 l -230,69 c -103,31 -165,12 -185,-56 l -55,-183 c -10,-35 -5,-65 16,-90 22,-26 59,-46 112,-62 l 63,-19 c 23,-7 38,2 45,27 8,24 0,40 -23,46 l -43,13 c -63,19 -91,40 -84,63 l 15,53 z"
       inkscape:connector-curvature="0"
       style="fill:#ffffff;fill-rule:nonzero" /><path
       id="3"
       class="fil3"
       d="m -72,7990 c 3,26 -10,41 -39,44 -27,4 -43,-7 -46,-33 l -31,-223 -147,261 c -11,18 -26,29 -47,32 -21,3 -39,-3 -54,-18 l -215,-213 30,224 c 4,26 -9,40 -37,44 -29,4 -45,-7 -49,-32 l -43,-322 c -4,-31 9,-49 40,-53 19,-2 36,4 52,18 l 264,257 181,-319 c 9,-17 24,-26 44,-29 32,-4 49,10 54,42 l 43,320 z"
       inkscape:connector-curvature="0"
       style="fill:#ffffff;fill-rule:nonzero" /><path
       id="4"
       class="fil3"
       d="m 475,7774 c 1,-21 -22,-33 -69,-37 l -233,-20 -10,115 230,19 c 50,4 76,-5 77,-27 l 5,-50 z m 80,64 c -6,68 -64,98 -176,89 l -222,-19 -9,102 c -2,25 -17,37 -47,35 -29,-3 -43,-17 -41,-43 l 28,-334 c 2,-23 14,-33 37,-31 l 280,23 c 109,9 161,47 156,113 l -6,65 z"
       inkscape:connector-curvature="0"
       style="fill:#ffffff;fill-rule:nonzero" /><path
       id="5"
       class="fil3"
       d="M 804,8156 C 683,8120 633,8067 654,7996 l 74,-249 c 7,-24 25,-32 53,-24 28,8 39,25 31,49 l -72,245 c -8,25 20,46 83,65 l 210,63 c 23,7 31,23 24,48 -7,24 -23,32 -46,25 l -207,-62 z"
       inkscape:connector-curvature="0"
       style="fill:#ffffff;fill-rule:nonzero" /><path
       id="6"
       class="fil3"
       d="m 1305,8078 277,148 c 21,11 25,28 13,50 -12,23 -29,29 -49,18 l -277,-148 -24,44 c -11,21 6,44 50,67 l 210,113 c 21,11 25,28 13,51 -12,22 -28,28 -49,16 l -212,-113 c -95,-51 -126,-107 -93,-170 l 91,-169 c 17,-32 42,-50 75,-53 33,-3 74,9 123,35 l 58,31 c 21,11 25,28 13,51 -12,23 -28,28 -49,17 l -40,-21 c -58,-31 -93,-36 -104,-15 l -26,48 z"
       inkscape:connector-curvature="0"
       style="fill:#ffffff;fill-rule:nonzero" /><path
       id="7"
       class="fil3"
       d="m 2082,8511 c 16,-19 4,-45 -35,-77 l -173,-143 -68,81 181,149 c 34,29 57,36 69,21 l 26,-31 z m 42,87 c -45,54 -108,47 -189,-20 l -48,-39 82,162 c 4,8 5,16 4,23 -1,8 -4,14 -8,19 -4,4 -8,8 -12,10 -5,3 -10,5 -15,5 -6,1 -11,1 -16,0 -5,-1 -10,-4 -15,-7 -4,-4 -8,-10 -11,-16 l 1,1 -139,-306 -72,87 c -16,20 -36,21 -58,3 -23,-19 -26,-39 -9,-59 l 214,-259 c 15,-18 31,-19 48,-5 l 209,173 c 88,73 108,138 60,196 l -26,32 z"
       inkscape:connector-curvature="0"
       style="fill:#ffffff;fill-rule:nonzero" /><ellipse
       class="fil2"
       transform="matrix(-0.362116,1.5685,-2.03079,-0.468845,-1.04842e-4,11000)"
       rx="2421"
       ry="1870"
       id="ellipse4571"
       cx="0"
       cy="0"
       style="fill:none" /><path
       class="fil3"
       d="m -2226,13407 192,176 c 18,16 18,34 1,54 -17,18 -35,19 -52,3 l -262,-240 c -5,-5 -9,-9 -11,-15 -2,-5 -3,-11 -3,-16 0,-6 1,-11 3,-16 2,-5 5,-10 9,-14 8,-9 18,-13 30,-13 l 391,10 -201,-185 c -17,-16 -17,-33 0,-52 17,-19 35,-20 52,-4 l 261,239 c 6,5 10,11 13,17 3,6 4,12 5,19 0,6 -1,12 -3,18 -2,6 -5,11 -9,15 -8,9 -20,13 -34,13 l -382,-9 z"
       id="path4573"
       inkscape:connector-curvature="0"
       style="fill:#ffffff;fill-rule:nonzero" /><path
       id="path4575"
       class="fil3"
       d="m -2631,12889 c -23,19 -19,47 12,86 l 84,105 c 34,42 62,54 85,35 l 131,-104 c 22,-18 16,-48 -18,-90 l -81,-102 c -33,-40 -60,-52 -82,-34 l -131,104 z m 80,-176 c 59,-48 126,-25 201,69 l 66,82 c 75,94 83,165 24,212 l -140,112 c -59,48 -127,24 -202,-69 l -65,-82 c -76,-94 -84,-165 -24,-212 l 140,-112 z"
       inkscape:connector-curvature="0"
       style="fill:#ffffff;fill-rule:nonzero" /><path
       id="path4577"
       class="fil3"
       d="m -2785,12130 c 8,-3 15,-5 22,-6 7,0 14,1 20,3 5,3 11,6 15,10 5,5 9,10 11,16 3,5 5,12 6,19 1,7 0,14 -2,21 l -114,391 223,-107 c 23,-12 41,-4 54,22 13,26 7,45 -16,56 l -290,140 c -8,3 -15,5 -21,5 -7,0 -14,-1 -19,-3 -6,-3 -12,-6 -16,-11 -5,-4 -8,-9 -11,-15 -3,-7 -5,-13 -6,-20 -1,-8 0,-15 2,-21 l 111,-388 -220,106 c -23,11 -41,3 -54,-23 -12,-26 -7,-45 16,-56 l 289,-139 z"
       inkscape:connector-curvature="0"
       style="fill:#ffffff;fill-rule:nonzero" /><path
       id="path4579"
       class="fil3"
       d="m -3172,11685 c -23,5 -29,32 -17,81 l 53,224 247,-60 -53,-223 c -12,-49 -32,-70 -58,-63 l -172,41 z m 155,-128 c 74,-17 123,26 149,131 l 66,277 c 5,22 -3,35 -26,41 l -328,79 c -22,5 -36,-3 -41,-25 l -67,-278 c -25,-104 -2,-165 68,-182 l 179,-43 z"
       inkscape:connector-curvature="0"
       style="fill:#ffffff;fill-rule:nonzero" /><ellipse
       class="fil2"
       transform="matrix(-0.804878,1.39409,-1.80498,-1.04211,-1.83552e-4,11000)"
       rx="2421"
       ry="1870"
       id="ellipse4581"
       cx="0"
       cy="0"
       style="fill:none" /><path
       class="fil3"
       d="m 3188,11788 64,-252 c 6,-24 22,-32 48,-25 24,6 33,21 27,44 l -89,344 c -1,6 -4,11 -8,16 -3,4 -8,8 -12,10 -5,3 -10,5 -16,5 -6,1 -11,0 -16,-1 -12,-3 -20,-10 -25,-20 l -176,-350 -68,264 c -6,23 -21,32 -46,25 -24,-6 -34,-21 -28,-44 l 88,-343 c 2,-7 5,-13 9,-19 4,-5 9,-9 14,-13 5,-3 11,-5 17,-6 6,-1 12,0 18,1 12,3 21,11 28,24 l 171,340 z"
       id="path4583"
       inkscape:connector-curvature="0"
       style="fill:#ffffff;fill-rule:nonzero" /><path
       id="path4585"
       class="fil3"
       d="m 2923,12394 c 27,12 50,-5 70,-51 l 54,-123 c 22,-49 19,-79 -7,-91 l -153,-67 c -26,-12 -50,7 -71,56 l -53,120 c -21,48 -18,77 7,89 l 153,67 z m -193,11 c -70,-31 -80,-101 -31,-211 l 42,-96 c 48,-110 107,-150 176,-119 l 164,72 c 70,31 80,101 32,211 l -42,96 c -49,110 -108,150 -177,119 l -164,-72 z"
       inkscape:connector-curvature="0"
       style="fill:#ffffff;fill-rule:nonzero" /><path
       id="path4587"
       class="fil3"
       d="m 2343,12891 c -7,-4 -13,-10 -17,-16 -3,-6 -6,-12 -7,-18 0,-6 0,-13 2,-19 1,-6 4,-12 7,-17 4,-5 9,-10 15,-14 6,-4 12,-7 19,-9 l 396,-91 -203,-142 c -21,-15 -24,-34 -7,-58 17,-24 36,-29 57,-14 l 264,185 c 7,4 12,10 15,16 3,5 6,11 6,18 1,6 1,12 -1,19 -2,6 -4,12 -8,17 -4,6 -9,11 -15,15 -6,4 -12,7 -20,8 l -391,93 200,139 c 21,15 23,34 6,59 -16,23 -35,28 -56,13 l -262,-184 z"
       inkscape:connector-curvature="0"
       style="fill:#ffffff;fill-rule:nonzero" /><path
       id="path4589"
       class="fil3"
       d="m 2150,13441 c 17,17 43,8 79,-27 l 163,-162 -179,-180 -162,161 c -36,36 -44,63 -25,83 l 124,125 z m -189,-66 c -53,-54 -42,-119 35,-195 l 201,-200 c 17,-16 33,-16 49,1 l 238,239 c 16,16 16,32 0,48 l -203,201 c -76,76 -139,88 -190,36 l -130,-130 z"
       inkscape:connector-curvature="0"
       style="fill:#ffffff;fill-rule:nonzero" /><polygon
       class="fil4"
       points="0,11394 -2080,12201 -1040,10400 0,8598 1040,10400 2080,12201 "
       id="polygon4591"
       style="fill:#e2001a" /></g></svg>