<?xml version="1.0" encoding="UTF-8" standalone="no"?>
<!-- Creator: CorelDRAW X7 -->

<svg
   xmlns:dc="http://purl.org/dc/elements/1.1/"
   xmlns:cc="http://creativecommons.org/ns#"
   xmlns:rdf="http://www.w3.org/1999/02/22-rdf-syntax-ns#"
   xmlns:svg="http://www.w3.org/2000/svg"
   xmlns="http://www.w3.org/2000/svg"
   xmlns:sodipodi="http://sodipodi.sourceforge.net/DTD/sodipodi-0.dtd"
   xmlns:inkscape="http://www.inkscape.org/namespaces/inkscape"
   xml:space="preserve"
   width="7.8740005in"
   height="7.8740005in"
   version="1.1"
   style="clip-rule:evenodd;fill-rule:evenodd;image-rendering:optimizeQuality;shape-rendering:geometricPrecision;text-rendering:geometricPrecision"
   viewBox="0 0 7874.0005 7874.0005"
   id="svg4250"
   inkscape:version="0.91 r13725"
   sodipodi:docname="Nomads - Reaktion Zond - [N3] [Vyo].svg"><metadata
     id="metadata4305"><rdf:RDF><cc:Work
         rdf:about=""><dc:format>image/svg+xml</dc:format><dc:type
           rdf:resource="http://purl.org/dc/dcmitype/StillImage" /></cc:Work></rdf:RDF></metadata><sodipodi:namedview
     pagecolor="#ffffff"
     bordercolor="#666666"
     borderopacity="1"
     objecttolerance="10"
     gridtolerance="10"
     guidetolerance="10"
     inkscape:pageopacity="0"
     inkscape:pageshadow="2"
     inkscape:window-width="640"
     inkscape:window-height="480"
     id="namedview4303"
     showgrid="false"
     inkscape:zoom="0.23838384"
     inkscape:cx="736.83001"
     inkscape:cy="849.33005"
     inkscape:window-x="0"
     inkscape:window-y="0"
     inkscape:window-maximized="0"
     inkscape:current-layer="svg4250" /><defs
     id="defs4252"><style
       type="text/css"
       id="style4254"><![CDATA[
    .fil3 {fill:none}
    .fil0 {fill:black}
    .fil2 {fill:#E2001A}
    .fil1 {fill:white}
    .fil4 {fill:white;fill-rule:nonzero}
   ]]></style></defs><g
     id="Layer_x0020_1"
     transform="translate(3937,-7063)"><metadata
       id="CorelCorpID_0Corel-Layer" /><circle
       class="fil0"
       cy="11000"
       r="3937"
       id="circle4258"
       cx="0"
       style="fill:#000000" /><circle
       class="fil1"
       cy="11000"
       r="3780"
       id="circle4260"
       cx="0"
       style="fill:#ffffff" /><path
       class="fil2"
       d="m 0,7378 c 2000,0 3622,1622 3622,3622 0,2000 -1622,3622 -3622,3622 -2000,0 -3622,-1622 -3622,-3622 0,-2000 1622,-3622 3622,-3622 z m 0,905 c 1500,0 2717,1217 2717,2717 0,1500 -1217,2717 -2717,2717 -1500,0 -2717,-1217 -2717,-2717 0,-1500 1217,-2717 2717,-2717 z"
       id="path4262"
       inkscape:connector-curvature="0"
       style="fill:#e2001a" /><path
       class="fil1"
       d="m 512,14427 c -167,25 -338,38 -512,38 -174,0 -345,-13 -512,-38 l 0,-2 c -108,0 -196,-88 -197,-197 l 0,0 0,0 0,-200 c 0,-108 88,-196 197,-196 l 0,-3 c 166,29 337,45 512,45 175,0 346,-16 512,-45 l 0,3 c 109,0 197,88 197,196 l 0,200 0,0 0,0 c -1,109 -89,197 -197,197 l 0,2 z"
       id="path4264"
       inkscape:connector-curvature="0"
       style="fill:#ffffff" /><path
       class="fil1"
       d="m 2712,8843 c 105,133 201,274 288,425 87,150 162,305 224,462 l -2,1 c 54,94 22,214 -72,269 l 0,0 0,0 -173,100 c -94,54 -215,22 -269,-73 l -3,2 c -57,-159 -129,-315 -216,-466 -87,-151 -186,-292 -295,-421 l 2,-1 c -54,-94 -22,-215 72,-269 l 173,-100 1,0 0,0 c 94,-54 214,-22 268,72 l 2,-1 z"
       id="path4266"
       inkscape:connector-curvature="0"
       style="fill:#ffffff" /><path
       class="fil1"
       d="m -3224,9730 c 62,-157 137,-312 224,-462 87,-151 183,-292 288,-425 l 2,1 c 54,-94 174,-126 268,-72 l 0,0 1,0 173,100 c 94,54 126,175 72,269 l 2,1 c -109,129 -208,270 -295,421 -87,151 -159,307 -216,466 l -3,-2 c -54,95 -175,127 -269,73 l -173,-100 0,0 0,0 c -94,-55 -126,-175 -72,-269 l -2,-1 z"
       id="path4268"
       inkscape:connector-curvature="0"
       style="fill:#ffffff" /><ellipse
       class="fil3"
       transform="matrix(1.58018,-0.307156,0.397686,2.04592,3.02895e-4,11000)"
       rx="2421"
       ry="1870"
       id="ellipse4270"
       cx="0"
       cy="0"
       style="fill:none" /><path
       class="fil4"
       d="m -1715,8234 c -15,-20 -42,-15 -83,14 l -182,132 61,86 190,-137 c 36,-26 48,-47 38,-62 l -24,-33 z m 94,-19 c 41,57 19,116 -66,178 l -50,36 177,-38 c 9,-1 17,-1 24,2 7,3 12,7 16,13 3,4 5,9 7,14 1,5 2,11 1,16 -1,5 -2,11 -5,15 -2,5 -6,9 -10,12 -5,4 -11,6 -18,7 l 1,0 -331,56 67,92 c 15,21 11,40 -13,57 -24,17 -43,16 -58,-5 l -197,-273 c -14,-18 -11,-34 7,-48 l 220,-158 c 92,-67 160,-70 204,-9 l 24,33 z"
       id="path4272"
       inkscape:connector-curvature="0"
       style="fill:#ffffff;fill-rule:nonzero" /><path
       id="1"
       class="fil4"
       d="m -1408,8131 285,-131 c 21,-10 37,-4 48,19 10,24 5,40 -16,50 l -285,132 21,46 c 11,21 38,22 84,1 l 216,-100 c 22,-10 38,-4 49,19 10,23 5,40 -17,50 l -218,101 c -98,45 -162,36 -191,-29 l -81,-173 c -15,-33 -14,-64 4,-92 17,-28 51,-54 102,-77 l 60,-28 c 21,-10 37,-3 48,21 11,22 5,39 -16,49 l -41,18 c -60,28 -85,53 -75,75 l 23,49 z"
       inkscape:connector-curvature="0"
       style="fill:#ffffff;fill-rule:nonzero" /><path
       id="2"
       class="fil4"
       d="m -790,7972 180,-43 -122,-118 -58,161 z m 239,20 -263,62 -36,97 c -3,7 -7,13 -13,17 -5,4 -11,6 -17,8 -5,1 -10,1 -16,0 -6,0 -11,-2 -16,-5 -5,-2 -9,-5 -13,-10 -4,-4 -6,-9 -7,-15 -2,-7 -2,-15 1,-23 l 136,-363 c 4,-10 10,-18 17,-25 7,-6 16,-10 25,-12 9,-2 18,-2 27,0 10,3 18,7 26,15 l 284,263 0,0 c 7,6 11,13 13,21 1,6 1,11 0,16 -1,6 -4,11 -7,15 -3,4 -7,8 -12,11 -5,3 -10,5 -15,7 -7,1 -13,1 -20,0 -6,-1 -12,-5 -18,-10 l -76,-69 z"
       inkscape:connector-curvature="0"
       style="fill:#ffffff;fill-rule:nonzero" /><path
       id="3"
       class="fil4"
       d="m -158,7840 254,136 c 8,4 14,9 17,15 3,6 5,13 5,19 0,5 -1,10 -3,15 -2,5 -5,9 -9,13 -3,4 -7,7 -12,9 -5,3 -10,4 -16,4 -3,0 -7,-1 -10,-1 -4,-1 -8,-3 -11,-5 l -272,-156 -1,120 c 0,26 -15,39 -43,38 -29,0 -44,-13 -43,-39 l 3,-333 c 0,-26 15,-39 45,-38 28,0 42,13 41,39 l -1,115 261,-146 c 7,-4 14,-6 22,-6 6,0 12,2 17,4 6,2 10,6 14,10 4,4 7,8 9,13 2,6 3,11 3,16 0,6 -2,12 -5,17 -4,5 -9,10 -17,14 l -248,127 z"
       inkscape:connector-curvature="0"
       style="fill:#ffffff;fill-rule:nonzero" /><path
       id="4"
       class="fil4"
       d="m 486,7752 -44,290 c -4,26 -20,36 -49,32 -29,-5 -42,-20 -38,-45 l 44,-290 -136,-21 c -24,-4 -34,-19 -30,-45 3,-24 17,-35 42,-31 l 360,55 c 24,4 34,18 30,42 -4,26 -18,38 -41,34 l -138,-21 z"
       inkscape:connector-curvature="0"
       style="fill:#ffffff;fill-rule:nonzero" /><path
       id="5"
       class="fil4"
       d="m 776,8111 c -6,24 -24,33 -52,26 -29,-7 -40,-23 -34,-48 l 80,-324 c 7,-25 24,-34 54,-26 28,6 39,22 32,47 l -80,325 z"
       inkscape:connector-curvature="0"
       style="fill:#ffffff;fill-rule:nonzero" /><path
       id="6"
       class="fil4"
       d="m 1340,8042 c 10,-28 -8,-50 -55,-68 l -125,-47 c -51,-19 -81,-15 -92,13 l -58,157 c -10,26 10,49 60,68 l 123,46 c 49,18 78,14 88,-12 l 59,-157 z m 21,192 c -27,71 -96,86 -209,43 l -98,-37 C 941,8198 898,8142 925,8071 l 63,-168 c 27,-71 96,-86 209,-43 l 98,36 c 113,43 156,100 129,171 l -63,167 z"
       inkscape:connector-curvature="0"
       style="fill:#ffffff;fill-rule:nonzero" /><path
       id="7"
       class="fil4"
       d="m 1856,8620 c -5,7 -10,13 -16,17 -6,4 -12,6 -18,7 -6,2 -12,2 -19,0 -6,-1 -12,-3 -17,-7 -5,-3 -10,-8 -15,-14 -4,-5 -7,-11 -9,-18 l -110,-392 -133,209 c -14,22 -33,25 -57,10 -25,-16 -30,-35 -16,-57 l 172,-272 c 5,-6 10,-12 15,-15 6,-4 12,-6 18,-8 7,-1 13,-1 19,1 6,1 12,4 18,7 6,4 11,9 15,15 5,5 8,12 9,19 l 111,387 131,-206 c 13,-22 33,-25 57,-9 25,15 30,34 16,55 l -171,271 z"
       inkscape:connector-curvature="0"
       style="fill:#ffffff;fill-rule:nonzero" /><ellipse
       class="fil3"
       transform="matrix(-1.15796,-1.11823,1.44781,-1.49926,-1.90194e-4,11000)"
       rx="2421"
       ry="1870"
       id="ellipse4281"
       cx="0"
       cy="0"
       style="fill:none" /><path
       class="fil4"
       d="m -2051,13561 206,159 c 19,14 21,32 5,53 -15,19 -32,22 -51,7 l -282,-217 c -5,-3 -8,-8 -11,-13 -3,-5 -4,-11 -5,-16 0,-6 0,-11 2,-16 2,-6 4,-10 8,-15 7,-9 16,-14 28,-15 l 391,-24 -216,-166 c -19,-15 -21,-32 -5,-52 15,-21 33,-23 51,-9 l 281,216 c 6,5 10,10 14,16 3,6 5,12 6,18 1,6 1,12 -1,18 -1,6 -4,11 -8,16 -7,10 -18,15 -33,16 l -380,24 z"
       id="path4283"
       inkscape:connector-curvature="0"
       style="fill:#ffffff;fill-rule:nonzero" /><path
       id="path4285"
       class="fil4"
       d="m -2499,13057 c -22,20 -16,48 17,86 l 88,102 c 36,41 65,51 87,32 l 126,-110 c 21,-18 14,-48 -22,-89 l -86,-99 c -34,-39 -62,-50 -84,-31 l -126,109 z m 73,-179 c 57,-50 125,-30 205,62 l 69,79 c 79,91 90,161 33,211 l -135,118 c -58,50 -126,29 -206,-62 l -69,-79 c -79,-91 -90,-162 -32,-212 l 135,-117 z"
       inkscape:connector-curvature="0"
       style="fill:#ffffff;fill-rule:nonzero" /><path
       id="path4287"
       class="fil4"
       d="m -2704,12322 c 8,-4 15,-7 22,-8 7,0 14,0 20,2 6,2 11,5 16,9 5,4 9,9 12,14 4,6 6,12 8,19 1,8 1,15 -1,21 l -83,398 214,-124 c 22,-13 41,-7 55,18 15,25 12,45 -11,58 l -278,161 c -7,5 -13,7 -20,8 -7,0 -13,-1 -19,-2 -6,-2 -12,-5 -17,-10 -5,-4 -9,-9 -12,-15 -4,-6 -6,-12 -8,-19 -1,-8 -1,-15 1,-22 l 80,-393 -211,123 c -23,13 -41,6 -56,-19 -15,-25 -11,-44 11,-57 l 277,-162 z"
       inkscape:connector-curvature="0"
       style="fill:#ffffff;fill-rule:nonzero" /><path
       id="path4289"
       class="fil4"
       d="m -3115,11899 c -23,7 -27,35 -13,82 l 69,220 241,-75 -68,-219 c -15,-48 -35,-68 -62,-60 l -167,52 z m 145,-136 c 73,-23 125,17 157,121 l 85,272 c 6,21 -1,36 -24,42 l -322,100 c -22,7 -36,0 -43,-22 l -85,-273 c -31,-103 -12,-165 57,-186 l 175,-54 z"
       inkscape:connector-curvature="0"
       style="fill:#ffffff;fill-rule:nonzero" /><ellipse
       class="fil3"
       transform="matrix(-0.389435,1.56194,-2.0223,-0.504216,-1.09798e-4,11000)"
       rx="2421"
       ry="1870"
       id="ellipse4291"
       cx="0"
       cy="0"
       style="fill:none" /><path
       class="fil4"
       d="m 3250,11495 32,-259 c 3,-24 17,-34 44,-31 24,3 35,17 32,41 l -44,352 c -1,6 -3,12 -6,17 -3,5 -7,9 -11,12 -5,3 -10,5 -15,7 -6,1 -11,1 -16,1 -12,-2 -21,-8 -28,-17 l -219,-325 -33,271 c -3,23 -17,34 -43,30 -25,-3 -36,-16 -34,-40 l 44,-351 c 1,-8 3,-14 7,-20 3,-6 7,-11 12,-15 5,-4 10,-6 16,-8 6,-2 12,-2 18,-2 12,2 23,9 31,20 l 213,317 z"
       id="path4293"
       inkscape:connector-curvature="0"
       style="fill:#ffffff;fill-rule:nonzero" /><path
       id="path4295"
       class="fil4"
       d="m 3032,12133 c 28,10 50,-9 66,-56 l 43,-127 c 17,-51 12,-82 -16,-91 l -158,-54 c -27,-9 -49,12 -67,63 l -42,124 c -16,49 -11,79 15,88 l 159,53 z m -192,28 c -72,-24 -88,-93 -49,-207 l 33,-99 c 39,-114 94,-159 165,-135 l 170,58 c 72,24 89,93 50,207 l -33,99 c -39,114 -94,159 -166,135 l -170,-58 z"
       inkscape:connector-curvature="0"
       style="fill:#ffffff;fill-rule:nonzero" /><path
       id="path4297"
       class="fil4"
       d="m 2503,12681 c -8,-5 -14,-9 -18,-15 -4,-5 -7,-11 -9,-17 -1,-6 -2,-13 -1,-19 1,-6 3,-12 6,-18 3,-5 8,-11 13,-15 5,-5 11,-9 18,-11 l 385,-133 -217,-120 c -22,-12 -27,-31 -13,-56 14,-26 33,-32 55,-20 l 281,156 c 7,4 13,8 17,14 4,5 7,11 8,17 2,6 2,13 1,19 -1,6 -3,12 -7,18 -3,6 -7,12 -13,16 -5,5 -11,9 -18,11 l -380,133 214,119 c 23,12 27,31 13,57 -14,25 -33,31 -55,19 l -280,-155 z"
       inkscape:connector-curvature="0"
       style="fill:#ffffff;fill-rule:nonzero" /><path
       id="path4299"
       class="fil4"
       d="m 2351,13244 c 19,16 44,5 76,-33 l 149,-173 -192,-165 -148,172 c -33,38 -39,66 -18,85 l 133,114 z m -193,-51 c -58,-49 -51,-115 19,-197 l 185,-215 c 15,-17 31,-18 49,-3 l 255,220 c 17,15 19,31 4,48 l -186,216 c -70,81 -132,98 -187,51 l -139,-120 z"
       inkscape:connector-curvature="0"
       style="fill:#ffffff;fill-rule:nonzero" /><polygon
       class="fil2"
       points="0,11394 -2080,12201 -1040,10400 0,8598 1040,10400 2080,12201 "
       id="polygon4301"
       style="fill:#e2001a" /></g></svg>