<?xml version="1.0" encoding="UTF-8" standalone="no"?>
<!-- Creator: CorelDRAW X7 -->

<svg
   xmlns:dc="http://purl.org/dc/elements/1.1/"
   xmlns:cc="http://creativecommons.org/ns#"
   xmlns:rdf="http://www.w3.org/1999/02/22-rdf-syntax-ns#"
   xmlns:svg="http://www.w3.org/2000/svg"
   xmlns="http://www.w3.org/2000/svg"
   xmlns:sodipodi="http://sodipodi.sourceforge.net/DTD/sodipodi-0.dtd"
   xmlns:inkscape="http://www.inkscape.org/namespaces/inkscape"
   xml:space="preserve"
   width="7.8740005in"
   height="7.8740005in"
   version="1.1"
   style="clip-rule:evenodd;fill-rule:evenodd;image-rendering:optimizeQuality;shape-rendering:geometricPrecision;text-rendering:geometricPrecision"
   viewBox="0 0 7874.0005 7874.0005"
   id="svg3918"
   inkscape:version="0.91 r13725"
   sodipodi:docname="Nomads - Meteor Zond - [N3] [Vyo].svg"><metadata
     id="metadata3971"><rdf:RDF><cc:Work
         rdf:about=""><dc:format>image/svg+xml</dc:format><dc:type
           rdf:resource="http://purl.org/dc/dcmitype/StillImage" /></cc:Work></rdf:RDF></metadata><sodipodi:namedview
     pagecolor="#ffffff"
     bordercolor="#666666"
     borderopacity="1"
     objecttolerance="10"
     gridtolerance="10"
     guidetolerance="10"
     inkscape:pageopacity="0"
     inkscape:pageshadow="2"
     inkscape:window-width="640"
     inkscape:window-height="480"
     id="namedview3969"
     showgrid="false"
     inkscape:zoom="0.23838384"
     inkscape:cx="736.83001"
     inkscape:cy="849.33005"
     inkscape:window-x="0"
     inkscape:window-y="0"
     inkscape:window-maximized="0"
     inkscape:current-layer="svg3918" /><defs
     id="defs3920"><style
       type="text/css"
       id="style3922"><![CDATA[
    .fil2 {fill:none}
    .fil0 {fill:black}
    .fil1 {fill:#E2001A}
    .fil4 {fill:white}
    .fil3 {fill:white;fill-rule:nonzero}
   ]]></style></defs><g
     id="Layer_x0020_1"
     transform="translate(3937,-7063)"><metadata
       id="CorelCorpID_0Corel-Layer" /><circle
       class="fil0"
       cy="11000"
       r="3937"
       id="circle3926"
       cx="0"
       style="fill:#000000" /><circle
       class="fil0"
       cy="11000"
       r="3780"
       id="circle3928"
       cx="0"
       style="fill:#000000" /><path
       class="fil1"
       d="m 0,7378 c 2000,0 3622,1622 3622,3622 0,2000 -1622,3622 -3622,3622 -2000,0 -3622,-1622 -3622,-3622 0,-2000 1622,-3622 3622,-3622 z m 0,905 c 1500,0 2717,1217 2717,2717 0,1500 -1217,2717 -2717,2717 -1500,0 -2717,-1217 -2717,-2717 0,-1500 1217,-2717 2717,-2717 z"
       id="path3930"
       inkscape:connector-curvature="0"
       style="fill:#e2001a" /><path
       class="fil0"
       d="m 512,14427 c -167,25 -338,38 -512,38 -174,0 -345,-13 -512,-38 l 0,-2 c -108,0 -196,-88 -197,-197 l 0,0 0,0 0,-200 c 0,-108 88,-196 197,-196 l 0,-3 c 166,29 337,45 512,45 175,0 346,-16 512,-45 l 0,3 c 109,0 197,88 197,196 l 0,200 0,0 0,0 c -1,109 -89,197 -197,197 l 0,2 z"
       id="path3932"
       inkscape:connector-curvature="0"
       style="fill:#000000" /><path
       class="fil0"
       d="m 2712,8843 c 105,133 201,274 288,425 87,150 162,305 224,462 l -2,1 c 54,94 22,214 -72,269 l 0,0 0,0 -173,100 c -94,54 -215,22 -269,-73 l -3,2 c -57,-159 -129,-315 -216,-466 -87,-151 -186,-292 -295,-421 l 2,-1 c -54,-94 -22,-215 72,-269 l 173,-100 1,0 0,0 c 94,-54 214,-22 268,72 l 2,-1 z"
       id="path3934"
       inkscape:connector-curvature="0"
       style="fill:#000000" /><path
       class="fil0"
       d="m -3224,9730 c 62,-157 137,-312 224,-462 87,-151 183,-292 288,-425 l 2,1 c 54,-94 174,-126 268,-72 l 0,0 1,0 173,100 c 94,54 126,175 72,269 l 2,1 c -109,129 -208,270 -295,421 -87,151 -159,307 -216,466 l -3,-2 c -54,95 -175,127 -269,73 l -173,-100 0,0 0,0 c -94,-55 -126,-175 -72,-269 l -2,-1 z"
       id="path3936"
       inkscape:connector-curvature="0"
       style="fill:#000000" /><ellipse
       class="fil2"
       transform="matrix(1.58018,-0.307156,0.397686,2.04592,3.02895e-4,11000)"
       rx="2421"
       ry="1870"
       id="ellipse3938"
       cx="0"
       cy="0"
       style="fill:none" /><path
       class="fil3"
       d="m -1009,8168 c 11,24 3,42 -24,54 -26,12 -44,6 -55,-17 l -95,-205 -64,293 c -5,21 -16,36 -35,45 -20,9 -39,8 -57,-2 l -269,-139 95,205 c 11,23 4,41 -22,53 -26,12 -45,6 -56,-17 l -136,-294 c -14,-29 -6,-50 22,-63 17,-8 36,-7 56,2 l 327,167 80,-359 c 4,-18 15,-31 33,-40 29,-13 50,-5 64,24 l 136,293 z"
       id="path3940"
       inkscape:connector-curvature="0"
       style="fill:#ffffff;fill-rule:nonzero" /><path
       id="1"
       class="fil3"
       d="m -842,7919 305,-72 c 23,-5 38,4 43,29 6,25 -2,40 -25,45 l -306,72 12,49 c 5,24 33,30 82,18 l 232,-54 c 23,-6 37,4 43,29 6,25 -3,40 -26,45 l -234,55 c -105,25 -166,3 -182,-66 l -44,-187 c -8,-35 -1,-64 22,-88 23,-24 62,-43 116,-56 l 64,-15 c 23,-5 37,5 43,30 6,24 -3,39 -26,45 l -43,10 c -65,15 -94,34 -89,58 l 13,53 z"
       inkscape:connector-curvature="0"
       style="fill:#ffffff;fill-rule:nonzero" /><path
       id="2"
       class="fil3"
       d="m -228,7724 15,293 c 2,26 -12,40 -41,41 -30,2 -45,-10 -47,-36 l -15,-293 -138,7 c -24,1 -37,-11 -39,-37 -1,-25 11,-38 35,-39 l 364,-19 c 24,-2 37,10 38,35 1,26 -10,39 -34,41 l -138,7 z"
       inkscape:connector-curvature="0"
       style="fill:#ffffff;fill-rule:nonzero" /><path
       id="3"
       class="fil3"
       d="m 147,7807 312,26 c 24,2 34,15 32,41 -2,25 -15,37 -38,35 l -313,-26 -4,50 c -2,24 22,38 72,42 l 238,20 c 23,2 34,16 32,41 -2,25 -15,37 -39,35 L 200,8051 C 92,8042 42,8002 48,7932 l 15,-191 c 3,-36 19,-62 49,-78 29,-16 71,-21 127,-17 l 65,6 c 24,2 34,16 32,41 -2,25 -15,37 -38,35 l -45,-4 c -66,-5 -100,4 -102,28 l -4,55 z"
       inkscape:connector-curvature="0"
       style="fill:#ffffff;fill-rule:nonzero" /><path
       id="4"
       class="fil3"
       d="m 1017,7921 c 9,-28 -11,-49 -59,-64 l -129,-38 c -51,-15 -81,-9 -90,19 l -47,161 c -8,27 13,48 65,63 l 125,38 c 50,15 80,8 88,-19 l 47,-160 z m 36,191 c -22,72 -91,91 -206,57 L 746,8139 C 631,8105 584,8051 605,7979 l 52,-172 c 21,-73 90,-92 206,-58 l 100,30 c 115,34 162,88 141,161 l -51,172 z"
       inkscape:connector-curvature="0"
       style="fill:#ffffff;fill-rule:nonzero" /><path
       id="5"
       class="fil3"
       d="m 1618,8184 c 12,-22 -5,-44 -49,-68 l -198,-106 -50,93 206,110 c 39,21 63,23 72,7 l 19,-36 z m 58,77 c -33,61 -96,67 -189,18 l -54,-29 112,143 c 6,7 8,15 9,22 0,8 -2,15 -5,21 -2,4 -6,9 -10,12 -4,4 -8,6 -13,8 -5,2 -11,3 -16,3 -5,0 -11,-2 -16,-4 -5,-3 -10,-8 -13,-14 l 0,1 -195,-273 -54,100 c -12,23 -31,28 -57,14 -26,-14 -33,-32 -21,-55 l 159,-297 c 10,-20 26,-25 46,-14 l 239,127 c 100,54 133,114 97,180 l -19,37 z"
       inkscape:connector-curvature="0"
       style="fill:#ffffff;fill-rule:nonzero" /><ellipse
       class="fil2"
       transform="matrix(-0.755735,-1.42133,1.84025,-0.978478,-0.00358395,11000)"
       rx="2421"
       ry="1870"
       id="ellipse3947"
       cx="0"
       cy="0"
       style="fill:none" /><path
       class="fil3"
       d="m -2352,13284 181,187 c 17,18 16,36 -3,54 -18,17 -36,17 -52,0 l -247,-255 c -5,-5 -8,-10 -10,-15 -1,-6 -2,-11 -2,-17 1,-5 2,-11 4,-16 3,-5 6,-9 10,-13 8,-8 18,-12 30,-11 l 390,34 -189,-196 c -17,-17 -16,-35 3,-53 18,-18 36,-18 52,-1 l 246,255 c 5,5 9,11 12,17 2,7 3,13 3,19 0,6 -1,12 -3,18 -3,6 -6,10 -11,15 -8,8 -20,12 -34,11 l -380,-33 z"
       id="path3949"
       inkscape:connector-curvature="0"
       style="fill:#ffffff;fill-rule:nonzero" /><path
       id="path3951"
       class="fil3"
       d="m -2728,12751 c -24,17 -21,46 9,86 l 79,108 c 32,44 60,57 83,39 l 135,-99 c 23,-17 19,-47 -13,-90 l -77,-105 c -31,-42 -58,-55 -81,-38 l -135,99 z m 87,-173 c 61,-45 127,-19 198,78 l 62,85 c 72,97 77,168 16,212 l -144,106 c -62,45 -128,19 -199,-78 l -62,-85 c -71,-97 -76,-168 -15,-213 l 144,-105 z"
       inkscape:connector-curvature="0"
       style="fill:#ffffff;fill-rule:nonzero" /><path
       id="path3953"
       class="fil3"
       d="m -2846,11984 c 8,-3 16,-5 23,-5 7,0 13,1 19,4 6,2 11,5 15,10 5,5 8,10 11,16 2,6 4,12 5,19 0,8 -1,14 -3,21 l -126,387 226,-100 c 24,-11 42,-3 53,23 12,27 6,46 -18,57 l -294,130 c -7,3 -14,5 -21,4 -7,0 -13,-1 -19,-3 -5,-3 -10,-7 -15,-11 -4,-5 -8,-11 -11,-17 -2,-6 -4,-13 -5,-20 0,-7 1,-14 3,-21 l 123,-383 -223,99 c -23,10 -41,2 -53,-25 -11,-26 -6,-45 18,-55 l 292,-130 z"
       inkscape:connector-curvature="0"
       style="fill:#ffffff;fill-rule:nonzero" /><path
       id="path3955"
       class="fil3"
       d="m -3205,11522 c -24,5 -31,32 -21,80 l 47,225 248,-51 -46,-224 c -10,-49 -29,-71 -56,-65 l -172,35 z m 158,-123 c 75,-15 123,30 145,136 l 58,279 c 4,22 -5,35 -28,40 l -331,68 c -22,5 -36,-4 -40,-26 l -58,-280 c -22,-105 3,-165 74,-179 l 180,-38 z"
       inkscape:connector-curvature="0"
       style="fill:#ffffff;fill-rule:nonzero" /><ellipse
       class="fil2"
       transform="matrix(-0.876736,1.35006,-1.74797,-1.13514,-1.95954e-4,11000)"
       rx="2421"
       ry="1870"
       id="ellipse3957"
       cx="0"
       cy="0"
       style="fill:none" /><path
       class="fil3"
       d="m 3148,11940 67,-252 c 6,-23 22,-32 47,-25 24,6 33,21 27,45 l -91,343 c -1,6 -4,11 -8,16 -4,4 -8,8 -13,10 -5,3 -10,4 -15,5 -6,0 -11,0 -17,-1 -11,-3 -19,-10 -25,-21 l -173,-351 -70,264 c -6,23 -21,31 -46,25 -25,-7 -34,-22 -28,-45 l 90,-342 c 2,-7 5,-13 10,-19 4,-5 9,-9 14,-13 5,-3 11,-5 17,-6 6,-1 12,0 18,1 12,3 21,11 27,24 l 169,342 z"
       id="path3959"
       inkscape:connector-curvature="0"
       style="fill:#ffffff;fill-rule:nonzero" /><path
       id="path3961"
       class="fil3"
       d="m 2848,12545 c 26,13 50,-3 73,-47 l 60,-120 c 24,-48 23,-79 -4,-92 l -150,-75 c -25,-13 -50,5 -74,53 l -59,117 c -23,46 -22,76 4,89 l 150,75 z m -194,2 c -68,-34 -75,-105 -21,-213 l 47,-94 c 53,-107 114,-144 182,-111 l 160,81 c 68,34 75,105 21,212 l -46,94 c -54,108 -115,145 -183,111 l -160,-80 z"
       inkscape:connector-curvature="0"
       style="fill:#ffffff;fill-rule:nonzero" /><path
       id="path3963"
       class="fil3"
       d="m 2241,13012 c -7,-5 -12,-11 -15,-17 -4,-6 -6,-12 -6,-19 -1,-6 0,-12 2,-18 2,-6 4,-12 8,-17 4,-5 9,-10 15,-13 6,-4 13,-7 20,-8 l 400,-74 -196,-151 c -21,-16 -22,-35 -5,-58 18,-23 37,-27 58,-11 l 255,197 c 6,5 11,10 14,16 3,6 5,12 6,18 0,7 0,13 -2,19 -2,6 -5,12 -10,17 -4,6 -9,10 -15,14 -6,4 -13,7 -20,8 l -395,74 193,149 c 21,16 22,35 4,59 -18,22 -37,26 -57,10 l -254,-195 z"
       inkscape:connector-curvature="0"
       style="fill:#ffffff;fill-rule:nonzero" /><path
       id="path3965"
       class="fil3"
       d="m 2015,13552 c 16,19 43,11 80,-21 l 173,-151 -166,-191 -173,150 c -38,33 -47,60 -29,81 l 115,132 z m -184,-78 c -50,-58 -34,-122 47,-192 l 215,-187 c 17,-15 33,-13 48,4 l 222,255 c 15,17 14,33 -3,48 l -216,188 c -81,70 -145,77 -192,23 l -121,-139 z"
       inkscape:connector-curvature="0"
       style="fill:#ffffff;fill-rule:nonzero" /><polygon
       class="fil4"
       points="-341,11197 -2080,9799 0,9799 2080,9799 1040,11600 0,13402 "
       id="polygon3967"
       style="fill:#ffffff" /></g></svg>