<?xml version="1.0" encoding="UTF-8" standalone="no"?>
<!-- Creator: CorelDRAW X7 -->

<svg
   xmlns:dc="http://purl.org/dc/elements/1.1/"
   xmlns:cc="http://creativecommons.org/ns#"
   xmlns:rdf="http://www.w3.org/1999/02/22-rdf-syntax-ns#"
   xmlns:svg="http://www.w3.org/2000/svg"
   xmlns="http://www.w3.org/2000/svg"
   xmlns:sodipodi="http://sodipodi.sourceforge.net/DTD/sodipodi-0.dtd"
   xmlns:inkscape="http://www.inkscape.org/namespaces/inkscape"
   xml:space="preserve"
   width="7.8740005in"
   height="7.8740005in"
   version="1.1"
   style="clip-rule:evenodd;fill-rule:evenodd;image-rendering:optimizeQuality;shape-rendering:geometricPrecision;text-rendering:geometricPrecision"
   viewBox="0 0 7874.0005 7874.0005"
   id="svg4677"
   inkscape:version="0.91 r13725"
   sodipodi:docname="Nomads - Transductor Zond - [N3] [Vyo].svg"><metadata
     id="metadata4735"><rdf:RDF><cc:Work
         rdf:about=""><dc:format>image/svg+xml</dc:format><dc:type
           rdf:resource="http://purl.org/dc/dcmitype/StillImage" /></cc:Work></rdf:RDF></metadata><sodipodi:namedview
     pagecolor="#ffffff"
     bordercolor="#666666"
     borderopacity="1"
     objecttolerance="10"
     gridtolerance="10"
     guidetolerance="10"
     inkscape:pageopacity="0"
     inkscape:pageshadow="2"
     inkscape:window-width="640"
     inkscape:window-height="480"
     id="namedview4733"
     showgrid="false"
     inkscape:zoom="0.23838384"
     inkscape:cx="736.83001"
     inkscape:cy="849.33005"
     inkscape:window-x="0"
     inkscape:window-y="0"
     inkscape:window-maximized="0"
     inkscape:current-layer="svg4677" /><defs
     id="defs4679"><style
       type="text/css"
       id="style4681"><![CDATA[
    .fil3 {fill:none}
    .fil0 {fill:black}
    .fil2 {fill:#E2001A}
    .fil1 {fill:white}
    .fil4 {fill:white;fill-rule:nonzero}
   ]]></style></defs><g
     id="Layer_x0020_1"
     transform="translate(3937,-7063)"><metadata
       id="CorelCorpID_0Corel-Layer" /><circle
       class="fil0"
       cy="11000"
       r="3937"
       id="circle4685"
       cx="0"
       style="fill:#000000" /><circle
       class="fil1"
       cy="11000"
       r="3780"
       id="circle4687"
       cx="0"
       style="fill:#ffffff" /><path
       class="fil2"
       d="m 0,7378 c 2000,0 3622,1622 3622,3622 0,2000 -1622,3622 -3622,3622 -2000,0 -3622,-1622 -3622,-3622 0,-2000 1622,-3622 3622,-3622 z m 0,905 c 1500,0 2717,1217 2717,2717 0,1500 -1217,2717 -2717,2717 -1500,0 -2717,-1217 -2717,-2717 0,-1500 1217,-2717 2717,-2717 z"
       id="path4689"
       inkscape:connector-curvature="0"
       style="fill:#e2001a" /><path
       class="fil1"
       d="m 512,14427 c -167,25 -338,38 -512,38 -174,0 -345,-13 -512,-38 l 0,-2 c -108,0 -196,-88 -197,-197 l 0,0 0,0 0,-200 c 0,-108 88,-196 197,-196 l 0,-3 c 166,29 337,45 512,45 175,0 346,-16 512,-45 l 0,3 c 109,0 197,88 197,196 l 0,200 0,0 0,0 c -1,109 -89,197 -197,197 l 0,2 z"
       id="path4691"
       inkscape:connector-curvature="0"
       style="fill:#ffffff" /><path
       class="fil1"
       d="m 2712,8843 c 105,133 201,274 288,425 87,150 162,305 224,462 l -2,1 c 54,94 22,214 -72,269 l 0,0 0,0 -173,100 c -94,54 -215,22 -269,-73 l -3,2 c -57,-159 -129,-315 -216,-466 -87,-151 -186,-292 -295,-421 l 2,-1 c -54,-94 -22,-215 72,-269 l 173,-100 1,0 0,0 c 94,-54 214,-22 268,72 l 2,-1 z"
       id="path4693"
       inkscape:connector-curvature="0"
       style="fill:#ffffff" /><path
       class="fil1"
       d="m -3224,9730 c 62,-157 137,-312 224,-462 87,-151 183,-292 288,-425 l 2,1 c 54,-94 174,-126 268,-72 l 0,0 1,0 173,100 c 94,54 126,175 72,269 l 2,1 c -109,129 -208,270 -295,421 -87,151 -159,307 -216,466 l -3,-2 c -54,95 -175,127 -269,73 l -173,-100 0,0 0,0 c -94,-55 -126,-175 -72,-269 l -2,-1 z"
       id="path4695"
       inkscape:connector-curvature="0"
       style="fill:#ffffff" /><ellipse
       class="fil3"
       transform="matrix(1.58018,-0.307156,0.397686,2.04592,3.02895e-4,11000)"
       rx="2421"
       ry="1870"
       id="ellipse4697"
       cx="0"
       cy="0"
       style="fill:none" /><path
       class="fil4"
       d="m -2142,8562 149,171 c 13,15 11,30 -6,45 -17,15 -32,15 -45,0 l -149,-171 -81,70 c -14,13 -27,11 -41,-4 -12,-14 -11,-28 3,-40 l 212,-186 c 14,-12 27,-11 39,4 14,15 13,28 -1,41 l -80,70 z"
       id="path4699"
       inkscape:connector-curvature="0"
       style="fill:#ffffff;fill-rule:nonzero" /><path
       id="1"
       class="fil4"
       d="m -1717,8270 c -12,-16 -33,-12 -64,11 l -141,102 48,66 146,-106 c 28,-20 37,-36 29,-48 l -18,-25 z m 73,-15 c 31,44 14,90 -52,138 l -38,28 137,-30 c 7,-1 13,0 18,2 5,2 9,6 12,10 3,3 5,7 6,11 1,4 1,8 1,12 -1,4 -2,8 -4,12 -2,3 -4,6 -8,9 -4,3 -8,5 -14,5 l 1,0 -256,44 52,71 c 12,16 8,31 -10,44 -18,13 -34,12 -45,-5 l -152,-210 c -11,-14 -9,-27 6,-37 l 169,-123 c 72,-51 124,-53 158,-6 l 19,25 z"
       inkscape:connector-curvature="0"
       style="fill:#ffffff;fill-rule:nonzero" /><path
       id="2"
       class="fil4"
       d="m -1422,8208 130,-60 -111,-71 -19,131 z m 185,-22 -190,88 -12,79 c -1,6 -3,10 -7,14 -3,4 -7,7 -11,9 -4,2 -8,3 -13,3 -4,0 -8,0 -13,-1 -4,-1 -8,-3 -11,-6 -3,-2 -6,-6 -8,-10 -2,-5 -3,-11 -2,-18 l 46,-295 c 2,-9 5,-16 9,-22 5,-6 10,-10 17,-13 6,-3 13,-4 21,-4 7,0 15,3 22,7 l 255,155 0,0 c 6,3 11,8 13,14 2,4 3,8 3,12 -1,4 -1,8 -3,12 -2,4 -4,7 -7,11 -4,3 -7,5 -11,7 -5,2 -10,3 -15,3 -5,0 -10,-2 -16,-5 l -67,-40 z"
       inkscape:connector-curvature="0"
       style="fill:#ffffff;fill-rule:nonzero" /><path
       id="3"
       class="fil4"
       d="m -699,8048 c 2,6 3,12 2,18 0,5 -2,10 -5,14 -2,4 -5,8 -9,11 -4,3 -9,5 -13,6 -5,2 -11,2 -16,2 -6,-1 -11,-2 -16,-4 l -281,-138 52,184 c 6,19 -2,32 -24,38 -22,6 -35,0 -41,-19 l -69,-239 c -1,-6 -2,-12 -1,-17 1,-5 3,-10 5,-14 3,-4 6,-8 10,-10 4,-3 9,-5 14,-7 5,-1 10,-2 16,-2 5,1 11,2 15,5 l 280,134 -52,-181 c -6,-19 3,-31 25,-38 21,-6 35,1 40,20 l 68,237 z"
       inkscape:connector-curvature="0"
       style="fill:#ffffff;fill-rule:nonzero" /><path
       id="4"
       class="fil4"
       d="m -284,7935 c 8,52 -27,84 -107,96 l -190,29 c -18,2 -29,-6 -32,-26 -3,-19 5,-30 23,-33 l 195,-30 c 32,-4 46,-15 43,-32 l -2,-17 c -3,-19 -24,-26 -62,-20 l -87,13 c -83,13 -128,-5 -135,-53 l -4,-30 c -8,-53 24,-85 98,-96 l 48,-7 c 19,-3 30,6 33,26 3,19 -5,30 -24,33 l -54,8 c -25,4 -36,14 -33,32 l 2,13 c 2,17 20,22 53,17 l 89,-13 c 86,-13 134,7 142,59 l 4,31 z"
       inkscape:connector-curvature="0"
       style="fill:#ffffff;fill-rule:nonzero" /><path
       id="5"
       class="fil4"
       d="m 115,7782 c 0,-18 -19,-28 -57,-28 l -179,-2 -1,196 177,1 c 39,1 59,-10 59,-31 l 1,-136 z m 67,140 c -1,58 -43,88 -126,87 l -221,-2 c -17,0 -26,-9 -26,-27 l 3,-261 c 0,-18 9,-27 26,-27 l 222,2 c 82,1 124,29 123,86 l -1,142 z"
       inkscape:connector-curvature="0"
       style="fill:#ffffff;fill-rule:nonzero" /><path
       id="6"
       class="fil4"
       d="m 651,7978 c -9,60 -65,83 -167,68 l -64,-10 c -97,-14 -141,-52 -132,-112 l 29,-192 c 3,-20 16,-28 38,-24 23,3 33,14 30,34 l -28,185 c -4,26 18,42 66,49 l 77,12 c 53,8 81,-1 85,-27 l 28,-185 c 3,-19 16,-27 38,-24 22,3 31,15 28,34 l -28,192 z"
       inkscape:connector-curvature="0"
       style="fill:#ffffff;fill-rule:nonzero" /><path
       id="7"
       class="fil4"
       d="m 924,7885 c -38,-11 -60,-9 -65,6 l -40,136 c -6,20 13,35 56,48 l 152,45 c 18,6 24,18 19,37 -6,19 -18,26 -36,20 l -158,-47 c -82,-24 -116,-64 -100,-118 l 43,-143 c 15,-51 63,-65 145,-41 l 160,48 c 18,5 24,17 19,36 -6,19 -18,26 -36,20 l -159,-47 z"
       inkscape:connector-curvature="0"
       style="fill:#ffffff;fill-rule:nonzero" /><path
       id="8"
       class="fil4"
       d="m 1368,8055 -95,206 c -9,18 -23,22 -43,13 -21,-10 -27,-24 -19,-42 l 96,-206 -97,-45 c -17,-8 -21,-21 -13,-39 8,-17 21,-22 38,-14 l 255,118 c 17,8 22,21 14,38 -9,18 -22,24 -38,16 l -98,-45 z"
       inkscape:connector-curvature="0"
       style="fill:#ffffff;fill-rule:nonzero" /><path
       id="9"
       class="fil4"
       d="m 1802,8336 c 12,-19 2,-39 -31,-60 l -87,-55 c -36,-22 -59,-24 -71,-5 l -70,109 c -11,19 0,39 36,62 l 85,54 c 34,21 57,23 69,4 l 69,-109 z m -14,149 c -31,50 -86,49 -165,0 l -68,-44 c -79,-50 -103,-99 -71,-148 l 74,-117 c 31,-50 86,-50 165,0 l 68,43 c 79,50 102,100 71,150 l -74,116 z"
       inkscape:connector-curvature="0"
       style="fill:#ffffff;fill-rule:nonzero" /><path
       id="10"
       class="fil4"
       d="m 2192,8631 c 12,-15 3,-34 -28,-59 l -135,-110 -51,64 140,114 c 27,22 45,27 54,16 l 20,-25 z m 33,67 c -34,42 -83,37 -146,-14 l -37,-30 64,124 c 3,7 4,13 3,19 -1,5 -3,10 -6,14 -3,4 -6,6 -10,8 -3,2 -7,4 -11,4 -4,1 -9,1 -13,0 -4,-1 -7,-3 -11,-5 -3,-3 -6,-7 -8,-12 l 0,0 -109,-236 -55,68 c -13,16 -28,17 -45,3 -18,-15 -21,-30 -8,-45 l 164,-202 c 11,-14 23,-15 37,-4 l 163,133 c 68,55 84,106 48,151 l -20,24 z"
       inkscape:connector-curvature="0"
       style="fill:#ffffff;fill-rule:nonzero" /><ellipse
       class="fil3"
       transform="matrix(-0.755735,-1.42133,1.84025,-0.978478,-1.07774e-4,11000)"
       rx="2421"
       ry="1870"
       id="ellipse4711"
       cx="0"
       cy="0"
       style="fill:none" /><path
       class="fil4"
       d="m -2352,13284 181,188 c 17,17 16,35 -3,53 -18,18 -36,18 -52,0 l -247,-255 c -5,-5 -8,-10 -9,-15 -2,-6 -3,-11 -3,-17 1,-5 2,-10 4,-15 3,-5 6,-10 10,-14 8,-8 19,-12 30,-11 l 390,34 -189,-196 c -17,-17 -16,-35 3,-53 18,-18 36,-18 52,-1 l 246,255 c 5,5 9,11 12,17 2,7 3,13 3,19 0,6 -1,12 -3,18 -3,6 -6,11 -10,15 -9,8 -21,12 -35,11 l -380,-33 z"
       id="path4713"
       inkscape:connector-curvature="0"
       style="fill:#ffffff;fill-rule:nonzero" /><path
       id="path4715"
       class="fil4"
       d="m -2728,12751 c -23,17 -20,46 9,86 l 79,108 c 32,44 60,57 83,39 l 135,-99 c 23,-16 19,-47 -13,-90 l -77,-105 c -31,-42 -58,-55 -81,-38 l -135,99 z m 87,-173 c 61,-45 127,-19 199,78 l 61,85 c 72,97 77,168 16,212 l -144,106 c -62,45 -128,19 -199,-78 l -62,-85 c -71,-97 -76,-168 -15,-213 l 144,-105 z"
       inkscape:connector-curvature="0"
       style="fill:#ffffff;fill-rule:nonzero" /><path
       id="path4717"
       class="fil4"
       d="m -2846,11984 c 8,-3 16,-5 23,-5 7,0 13,1 19,4 6,2 11,6 15,10 5,5 8,10 11,16 2,6 4,12 5,20 0,7 -1,13 -3,20 l -126,387 226,-100 c 24,-11 42,-3 53,24 12,27 6,45 -18,56 l -294,130 c -7,3 -14,5 -21,4 -7,0 -13,-1 -19,-3 -5,-3 -10,-6 -15,-11 -4,-5 -8,-10 -11,-16 -2,-7 -4,-14 -5,-21 0,-7 1,-14 3,-21 l 123,-383 -223,99 c -23,10 -41,2 -53,-25 -11,-26 -5,-45 18,-55 l 292,-130 z"
       inkscape:connector-curvature="0"
       style="fill:#ffffff;fill-rule:nonzero" /><path
       id="path4719"
       class="fil4"
       d="m -3205,11522 c -24,5 -31,32 -21,80 l 47,225 248,-51 -46,-224 c -10,-49 -29,-71 -56,-65 l -172,35 z m 158,-122 c 75,-16 123,29 145,135 l 58,279 c 4,22 -5,35 -28,40 l -331,68 c -22,5 -36,-4 -40,-26 l -58,-280 c -22,-105 3,-165 74,-179 l 180,-37 z"
       inkscape:connector-curvature="0"
       style="fill:#ffffff;fill-rule:nonzero" /><ellipse
       class="fil3"
       transform="matrix(-0.876736,1.35006,-1.74797,-1.13514,-1.95954e-4,11000)"
       rx="2421"
       ry="1870"
       id="ellipse4721"
       cx="0"
       cy="0"
       style="fill:none" /><path
       class="fil4"
       d="m 3148,11940 67,-252 c 6,-23 22,-32 47,-25 24,6 33,21 27,45 l -91,343 c -1,6 -4,11 -8,16 -4,4 -8,8 -13,10 -5,3 -10,4 -15,5 -6,0 -11,0 -17,-1 -11,-4 -19,-10 -25,-21 l -173,-351 -70,264 c -6,23 -21,31 -46,25 -25,-7 -34,-22 -28,-45 l 90,-342 c 2,-7 5,-14 10,-19 4,-5 9,-10 14,-13 5,-3 11,-5 17,-6 6,-1 12,0 18,1 12,3 21,11 27,24 l 169,342 z"
       id="path4723"
       inkscape:connector-curvature="0"
       style="fill:#ffffff;fill-rule:nonzero" /><path
       id="path4725"
       class="fil4"
       d="m 2848,12545 c 26,13 50,-3 73,-47 l 60,-120 c 24,-48 23,-79 -4,-92 l -150,-75 c -25,-13 -50,5 -74,53 l -59,117 c -23,46 -22,76 4,89 l 150,75 z m -194,1 c -68,-33 -75,-104 -21,-212 l 47,-94 c 53,-107 114,-144 182,-111 l 160,81 c 68,34 75,104 21,212 l -46,94 c -54,108 -115,145 -183,111 l -160,-81 z"
       inkscape:connector-curvature="0"
       style="fill:#ffffff;fill-rule:nonzero" /><path
       id="path4727"
       class="fil4"
       d="m 2241,13012 c -7,-6 -12,-11 -15,-17 -4,-6 -6,-12 -6,-19 -1,-6 0,-12 2,-18 2,-6 5,-12 8,-17 4,-5 9,-10 15,-14 6,-4 13,-6 20,-7 l 400,-74 -196,-151 c -21,-16 -22,-35 -5,-58 18,-23 37,-27 58,-11 l 255,197 c 6,4 11,10 14,16 4,6 5,12 6,18 1,7 0,13 -2,19 -2,6 -5,12 -9,17 -5,5 -10,10 -16,14 -6,4 -13,7 -20,8 l -395,74 193,149 c 21,16 22,35 4,59 -18,22 -37,26 -57,10 l -254,-195 z"
       inkscape:connector-curvature="0"
       style="fill:#ffffff;fill-rule:nonzero" /><path
       id="path4729"
       class="fil4"
       d="m 2015,13552 c 16,18 43,11 80,-21 l 173,-151 -166,-191 -173,150 c -37,33 -47,59 -29,81 l 115,132 z m -184,-78 c -50,-58 -34,-122 47,-192 l 215,-187 c 17,-15 33,-13 48,4 l 222,255 c 15,17 14,33 -3,48 l -216,188 c -80,70 -144,77 -192,23 l -121,-139 z"
       inkscape:connector-curvature="0"
       style="fill:#ffffff;fill-rule:nonzero" /><polygon
       class="fil0"
       points="0,11394 -2080,12201 -1040,10400 0,8598 1040,10400 2080,12201 "
       id="polygon4731"
       style="fill:#000000" /></g></svg>