<?xml version="1.0" encoding="UTF-8" standalone="no"?>
<!-- Creator: CorelDRAW X7 -->

<svg
   xmlns:dc="http://purl.org/dc/elements/1.1/"
   xmlns:cc="http://creativecommons.org/ns#"
   xmlns:rdf="http://www.w3.org/1999/02/22-rdf-syntax-ns#"
   xmlns:svg="http://www.w3.org/2000/svg"
   xmlns="http://www.w3.org/2000/svg"
   xmlns:sodipodi="http://sodipodi.sourceforge.net/DTD/sodipodi-0.dtd"
   xmlns:inkscape="http://www.inkscape.org/namespaces/inkscape"
   xml:space="preserve"
   width="7.8740005in"
   height="7.8740005in"
   version="1.1"
   style="clip-rule:evenodd;fill-rule:evenodd;image-rendering:optimizeQuality;shape-rendering:geometricPrecision;text-rendering:geometricPrecision"
   viewBox="0 0 7874.0005 7874.0005"
   id="svg4947"
   inkscape:version="0.91 r13725"
   sodipodi:docname="Nomads - Zoe - [N3] [Vyo].svg"><metadata
     id="metadata4963"><rdf:RDF><cc:Work
         rdf:about=""><dc:format>image/svg+xml</dc:format><dc:type
           rdf:resource="http://purl.org/dc/dcmitype/StillImage" /></cc:Work></rdf:RDF></metadata><sodipodi:namedview
     pagecolor="#ffffff"
     bordercolor="#666666"
     borderopacity="1"
     objecttolerance="10"
     gridtolerance="10"
     guidetolerance="10"
     inkscape:pageopacity="0"
     inkscape:pageshadow="2"
     inkscape:window-width="640"
     inkscape:window-height="480"
     id="namedview4961"
     showgrid="false"
     inkscape:zoom="0.23838384"
     inkscape:cx="736.83001"
     inkscape:cy="849.33005"
     inkscape:window-x="0"
     inkscape:window-y="0"
     inkscape:window-maximized="0"
     inkscape:current-layer="svg4947" /><defs
     id="defs4949"><style
       type="text/css"
       id="style4951"><![CDATA[
    .fil0 {fill:black}
    .fil2 {fill:#FFA000}
    .fil1 {fill:white}
   ]]></style></defs><g
     id="Layer_x0020_1"
     transform="translate(3937,-7063)"><metadata
       id="CorelCorpID_0Corel-Layer" /><circle
       class="fil0"
       cy="11000"
       r="3937"
       id="circle4955"
       cx="0"
       style="fill:#000000" /><circle
       class="fil1"
       cy="11000"
       r="3740"
       id="circle4957"
       cx="0"
       style="fill:#ffffff" /><path
       class="fil2"
       d="m 0,8126 c 1587,0 2874,1287 2874,2874 0,1587 -1287,2874 -2874,2874 -1587,0 -2874,-1287 -2874,-2874 0,-1587 1287,-2874 2874,-2874 z m -197,2402 394,0 0,2786 C 1388,13215 2323,12217 2323,11000 2323,9717 1283,8677 0,8677 c -1283,0 -2323,1040 -2323,2323 0,1217 935,2215 2126,2314 l 0,-2786 z"
       id="path4959"
       inkscape:connector-curvature="0"
       style="fill:#ffa000" /></g></svg>