<?xml version="1.0" encoding="UTF-8" standalone="no"?>
<!-- Creator: CorelDRAW X7 -->

<svg
   xmlns:dc="http://purl.org/dc/elements/1.1/"
   xmlns:cc="http://creativecommons.org/ns#"
   xmlns:rdf="http://www.w3.org/1999/02/22-rdf-syntax-ns#"
   xmlns:svg="http://www.w3.org/2000/svg"
   xmlns="http://www.w3.org/2000/svg"
   xmlns:sodipodi="http://sodipodi.sourceforge.net/DTD/sodipodi-0.dtd"
   xmlns:inkscape="http://www.inkscape.org/namespaces/inkscape"
   xml:space="preserve"
   width="7.8740005in"
   height="7.8740005in"
   version="1.1"
   style="clip-rule:evenodd;fill-rule:evenodd;image-rendering:optimizeQuality;shape-rendering:geometricPrecision;text-rendering:geometricPrecision"
   viewBox="0 0 7874.0005 7874.0005"
   id="svg4193"
   inkscape:version="0.91 r13725"
   sodipodi:docname="Nomads - Prowlers - [N3] [Vyo].svg"><metadata
     id="metadata4248"><rdf:RDF><cc:Work
         rdf:about=""><dc:format>image/svg+xml</dc:format><dc:type
           rdf:resource="http://purl.org/dc/dcmitype/StillImage" /></cc:Work></rdf:RDF></metadata><sodipodi:namedview
     pagecolor="#ffffff"
     bordercolor="#666666"
     borderopacity="1"
     objecttolerance="10"
     gridtolerance="10"
     guidetolerance="10"
     inkscape:pageopacity="0"
     inkscape:pageshadow="2"
     inkscape:window-width="640"
     inkscape:window-height="480"
     id="namedview4246"
     showgrid="false"
     inkscape:zoom="0.23838384"
     inkscape:cx="736.83001"
     inkscape:cy="849.33005"
     inkscape:window-x="0"
     inkscape:window-y="0"
     inkscape:window-maximized="0"
     inkscape:current-layer="svg4193" /><defs
     id="defs4195"><style
       type="text/css"
       id="style4197"><![CDATA[
    .fil0 {fill:none}
    .fil1 {fill:#FFA000}
    .fil2 {fill:white}
    .fil3 {fill:black;fill-rule:nonzero}
   ]]></style></defs><g
     id="Layer_x0020_1"
     transform="translate(3937,-7063)"><metadata
       id="CorelCorpID_0Corel-Layer" /><polygon
       class="fil0"
       points="0,10606 2046,9819 341,11197 0,13362 -341,11197 -2046,9819 "
       id="polygon4201"
       style="fill:none" /><circle
       class="fil1"
       cy="11000"
       r="3937"
       id="circle4203"
       cx="0"
       style="fill:#ffa000" /><circle
       class="fil2"
       cy="11000"
       r="3465"
       id="circle4205"
       cx="0"
       style="fill:#ffffff" /><circle
       class="fil0"
       cy="11000"
       r="3898"
       id="circle4207"
       cx="0"
       style="fill:none" /><path
       class="fil3"
       d="m -1759,13364 c 13,-16 0,-41 -40,-76 l -195,-173 -74,84 193,170 c 42,37 70,47 84,31 l 32,-36 z m 36,105 c -45,50 -114,33 -207,-49 l -187,-165 -65,73 c -17,19 -37,18 -62,-4 -24,-21 -28,-42 -12,-61 l 216,-243 c 15,-17 31,-17 50,0 l 235,207 c 92,81 116,146 74,194 l -42,48 z m 453,196 c 12,-20 -6,-44 -55,-73 l -217,-128 -51,87 225,133 c 43,26 69,31 78,15 l 20,-34 z m 64,83 c -35,59 -103,58 -204,-2 l -59,-35 124,156 c 6,8 9,16 10,23 0,8 -1,15 -5,20 -2,5 -6,9 -10,12 -5,3 -9,5 -15,6 -5,2 -11,2 -17,1 -5,-1 -11,-3 -16,-6 -6,-3 -12,-8 -16,-14 l 1,0 -217,-295 -56,95 c -13,22 -33,24 -61,8 -29,-17 -36,-36 -24,-58 l 165,-280 c 12,-19 28,-23 50,-10 l 261,154 c 110,65 146,128 109,191 l -20,34 z m 465,121 c 9,-27 -12,-50 -65,-69 l -141,-51 c -56,-21 -89,-18 -99,9 l -55,152 c -10,26 14,49 71,70 l 137,49 c 55,20 87,17 96,-8 l 56,-152 z m 35,191 c -25,69 -101,80 -228,34 l -109,-40 c -127,-46 -177,-103 -153,-172 l 60,-163 c 25,-70 101,-82 227,-36 l 110,40 c 127,46 177,104 152,173 l -59,164 z m 449,-122 -142,239 c -5,9 -13,16 -24,20 -11,4 -22,6 -33,5 -11,-1 -22,-4 -32,-10 -10,-6 -17,-14 -21,-25 l -138,-323 c -2,-7 -3,-13 -2,-16 0,-5 2,-11 5,-15 4,-5 8,-9 13,-12 4,-3 10,-5 16,-6 7,-2 13,-2 19,-2 9,1 17,3 24,7 8,5 13,11 16,19 l 109,273 140,-242 c 6,-12 15,-20 25,-24 11,-5 22,-6 34,-6 10,1 21,5 30,10 10,6 16,14 21,25 l 103,263 147,-253 c 4,-7 10,-13 18,-16 8,-3 17,-4 25,-3 6,0 12,2 18,4 6,2 11,6 16,9 4,4 8,9 11,14 3,5 4,10 3,16 0,3 0,6 -1,8 -2,3 -3,5 -4,8 l -185,297 c -7,10 -15,18 -26,22 -11,4 -22,6 -33,5 -11,-1 -21,-4 -31,-10 -10,-6 -17,-15 -22,-25 l -99,-256 z m 686,260 c -139,19 -214,-7 -224,-79 l -34,-248 c -3,-25 11,-40 44,-44 32,-4 50,6 53,30 l 34,245 c 3,25 41,32 114,22 l 242,-33 c 27,-4 42,7 46,33 3,23 -9,37 -36,41 l -239,33 z m 377,-311 333,-107 c 25,-8 42,-1 49,23 8,24 -1,40 -26,48 l -333,107 15,46 c 7,22 38,25 91,8 l 253,-82 c 25,-8 42,0 49,24 8,23 -1,39 -26,47 l -255,82 c -115,37 -182,23 -203,-43 l -57,-177 c -11,-33 -5,-63 19,-89 24,-26 66,-49 125,-68 l 70,-22 c 25,-9 41,-1 49,24 7,23 -1,39 -26,47 l -48,15 c -70,23 -102,45 -95,67 l 16,50 z m 782,-405 c -11,-20 -42,-17 -91,11 l -219,123 49,88 228,-128 c 44,-24 61,-44 52,-59 l -19,-35 z m 104,-13 c 33,59 -2,117 -105,175 l -59,33 197,-29 c 10,-1 18,0 25,4 7,3 12,8 15,13 2,5 4,10 4,15 1,6 0,11 -1,16 -2,6 -4,10 -8,15 -3,5 -8,9 -13,12 -6,3 -13,5 -20,6 l 0,0 -364,39 54,96 c 12,22 4,41 -24,56 -29,17 -50,14 -62,-8 l -159,-284 c -11,-19 -6,-35 17,-47 l 263,-149 c 111,-62 185,-61 220,2 l 20,35 z m 498,-225 c 43,50 21,113 -67,188 l -210,180 c -20,18 -39,17 -55,-2 -16,-19 -14,-37 7,-54 l 215,-185 c 34,-30 45,-53 31,-69 l -15,-17 c -15,-18 -44,-8 -87,28 l -95,82 c -92,79 -157,94 -197,48 l -24,-28 c -44,-51 -25,-112 56,-182 l 53,-46 c 21,-17 40,-17 56,2 16,19 14,37 -7,55 l -60,52 c -28,23 -34,43 -19,61 l 11,12 c 13,16 39,8 75,-23 l 98,-84 c 96,-82 165,-98 209,-47 l 25,29 z"
       id="path4209"
       inkscape:connector-curvature="0"
       style="fill:#000000;fill-rule:nonzero" /><circle
       class="fil0"
       cy="11000"
       r="3898"
       id="circle4211"
       cx="0"
       style="fill:none" /><path
       class="fil3"
       d="m -1979,8486 50,72 204,-141 c 39,-27 54,-49 43,-64 l -17,-25 c -11,-16 -34,-11 -70,13 l -210,145 z m 90,134 48,69 221,-153 c 37,-25 50,-44 40,-58 l -15,-23 c -12,-17 -40,-9 -86,22 l -208,143 z m 284,-328 c 17,24 15,53 -5,87 46,-12 79,-4 99,25 l 10,15 c 39,57 14,116 -77,179 l -270,187 c -21,14 -38,12 -51,-7 l -186,-269 c -12,-18 -8,-35 13,-49 l 259,-179 c 45,-31 84,-47 117,-48 33,-1 60,14 81,44 l 10,15 z m 368,-78 190,-80 -148,-89 -42,169 z m 263,-32 -279,116 -27,102 c -2,7 -6,13 -11,18 -5,6 -11,9 -17,12 -6,2 -12,4 -18,4 -6,0 -12,0 -18,-1 -6,-2 -11,-4 -16,-7 -4,-4 -7,-8 -10,-13 -2,-7 -3,-15 -1,-23 l 102,-381 c 2,-11 7,-20 15,-28 7,-8 15,-14 25,-18 9,-3 19,-5 30,-5 11,0 21,3 30,9 l 342,195 0,-1 c 8,5 14,11 17,18 2,6 3,11 2,16 -1,6 -3,11 -5,16 -3,5 -7,9 -12,13 -4,4 -10,7 -16,10 -7,3 -14,4 -21,4 -7,0 -14,-2 -22,-6 l -90,-50 z m 407,-206 302,84 c 9,2 16,6 21,11 5,5 8,11 9,17 0,5 0,10 -1,15 -2,5 -4,10 -8,14 -3,4 -7,8 -12,11 -5,3 -10,5 -17,6 -3,1 -7,1 -11,1 -4,0 -9,-1 -13,-2 l -324,-99 18,115 c 4,25 -10,40 -41,45 -32,5 -50,-5 -54,-30 l -51,-319 c -3,-25 11,-40 43,-45 31,-5 48,5 52,30 l 18,110 263,-187 c 7,-6 15,-9 23,-10 7,-1 13,-1 20,0 6,1 12,4 16,7 5,3 9,7 13,11 3,5 5,9 6,14 1,6 0,12 -3,18 -3,5 -9,11 -17,16 l -252,167 z m 993,56 c -6,77 -83,109 -231,98 l -94,-7 c -141,-11 -209,-54 -203,-131 l 18,-243 c 2,-25 19,-36 52,-34 33,3 48,17 46,41 l -18,235 c -2,33 32,52 102,57 l 113,9 c 77,5 116,-8 119,-41 l 17,-234 c 2,-25 20,-36 53,-34 31,3 46,16 44,41 l -18,243 z m 652,238 c -3,8 -6,15 -11,20 -4,5 -10,9 -16,11 -6,3 -13,4 -20,4 -7,0 -14,0 -20,-3 -7,-2 -14,-5 -21,-9 -6,-5 -12,-10 -16,-16 l -246,-351 -70,229 c -8,25 -27,32 -57,23 -32,-10 -44,-27 -36,-51 l 91,-298 c 2,-7 5,-13 10,-18 5,-5 10,-8 17,-11 6,-3 12,-4 19,-4 7,0 15,1 21,4 8,2 15,5 21,10 7,4 12,9 16,16 l 246,346 70,-227 c 7,-24 26,-31 57,-21 31,9 43,25 35,49 l -90,297 z m 212,120 c -11,22 -31,25 -60,10 -29,-16 -38,-34 -26,-56 l 152,-286 c 12,-22 32,-25 62,-9 28,15 36,33 25,55 l -153,286 z m 578,344 c -5,7 -10,12 -16,16 -6,3 -12,5 -19,6 -6,0 -13,0 -20,-2 -7,-2 -13,-5 -19,-9 -6,-4 -11,-9 -16,-15 -5,-7 -9,-13 -11,-20 l -131,-409 -135,199 c -14,21 -35,22 -61,4 -27,-18 -33,-38 -19,-59 l 175,-257 c 4,-7 9,-12 15,-15 6,-3 12,-5 19,-5 7,-1 13,0 20,2 7,2 13,5 19,9 7,5 12,10 17,16 5,6 9,13 11,20 l 132,404 133,-196 c 14,-21 35,-22 62,-4 26,18 33,38 19,58 l -175,257 z"
       id="path4213"
       inkscape:connector-curvature="0"
       style="fill:#000000;fill-rule:nonzero" /><path
       class="fil1"
       d="m -597,11345 -1622,-1312 c -106,-86 -134,-234 -65,-352 68,-118 210,-168 337,-119 L 0,10311 1947,9562 c 127,-49 269,1 337,119 69,118 41,266 -65,352 L 597,11345 272,13405 c -21,135 -135,233 -272,233 -137,0 -251,-98 -272,-233 l -325,-2060 z"
       id="path4215"
       inkscape:connector-curvature="0"
       style="fill:#ffa000" /><circle
       class="fil2"
       cx="2046"
       cy="9819"
       r="197"
       id="circle4217"
       style="fill:#ffffff" /><g
       id="_883916880"><path
         class="fil1"
         d="M 1867,9382 C 1414,8860 745,8530 0,8530 c -142,0 -281,12 -417,35 4,9 7,18 10,27 7,23 11,46 13,69 128,-22 260,-33 394,-33 703,0 1334,306 1769,791 l 98,-37 z"
         id="path4220"
         inkscape:connector-curvature="0"
         style="fill:#ffa000" /><circle
         class="fil1"
         transform="matrix(0.441371,-0.134941,0.134941,0.441371,-707.908,8684.54)"
         r="256"
         id="circle4222"
         cx="0"
         cy="0"
         style="fill:#ffa000" /><circle
         class="fil1"
         transform="matrix(0.616851,-0.314301,0.314301,0.616851,-1099.23,8842.64)"
         r="256"
         id="circle4224"
         cx="0"
         cy="0"
         style="fill:#ffa000" /><circle
         class="fil1"
         transform="matrix(0.691344,-0.611649,0.611649,0.691344,-1604.38,9186.58)"
         r="256"
         id="circle4226"
         cx="0"
         cy="0"
         style="fill:#ffa000" /></g><g
       id="_883910480"><path
         class="fil1"
         d="m -2335,10193 c -225,653 -177,1397 196,2042 71,123 151,238 238,344 6,-8 13,-16 19,-23 16,-17 34,-32 53,-45 -83,-100 -158,-209 -225,-325 -352,-609 -403,-1308 -199,-1927 l -82,-66 z"
         id="path4229"
         inkscape:connector-curvature="0"
         style="fill:#ffa000" /><circle
         class="fil1"
         transform="matrix(-0.337548,-0.314768,0.314768,-0.337548,-1651.3,12770.8)"
         r="256"
         id="circle4231"
         cx="0"
         cy="0"
         style="fill:#ffa000" /><circle
         class="fil1"
         transform="matrix(-0.580618,-0.377058,0.377058,-0.580618,-1318.71,13030.6)"
         r="256"
         id="circle4233"
         cx="0"
         cy="0"
         style="fill:#ffa000" /><circle
         class="fil1"
         transform="matrix(-0.875376,-0.292897,0.292897,-0.875376,-768.277,13296.1)"
         r="256"
         id="circle4235"
         cx="0"
         cy="0"
         style="fill:#ffa000" /></g><g
       id="_883905296"><path
         class="fil1"
         d="m 468,13426 c 679,-132 1299,-545 1671,-1191 72,-123 131,-249 179,-378 -10,-1 -20,-3 -30,-5 -23,-6 -45,-14 -65,-23 -46,121 -102,241 -169,357 -351,609 -932,1003 -1569,1136 l -17,104 z"
         id="path4238"
         inkscape:connector-curvature="0"
         style="fill:#ffa000" /><circle
         class="fil1"
         transform="matrix(-0.103824,0.449709,-0.449709,-0.103824,2359.2,11544.7)"
         r="256"
         id="circle4240"
         cx="0"
         cy="0"
         style="fill:#ffa000" /><circle
         class="fil1"
         transform="matrix(-0.0362326,0.691359,-0.691359,-0.0362326,2417.94,11126.7)"
         r="256"
         id="circle4242"
         cx="0"
         cy="0"
         style="fill:#ffa000" /><circle
         class="fil1"
         transform="matrix(0.184032,0.904546,-0.904546,0.184032,2372.65,10517.3)"
         r="256"
         id="circle4244"
         cx="0"
         cy="0"
         style="fill:#ffa000" /></g></g></svg>