<?xml version="1.0" encoding="UTF-8" standalone="no"?>
<!-- Creator: CorelDRAW X7 -->

<svg
   xmlns:dc="http://purl.org/dc/elements/1.1/"
   xmlns:cc="http://creativecommons.org/ns#"
   xmlns:rdf="http://www.w3.org/1999/02/22-rdf-syntax-ns#"
   xmlns:svg="http://www.w3.org/2000/svg"
   xmlns="http://www.w3.org/2000/svg"
   xmlns:sodipodi="http://sodipodi.sourceforge.net/DTD/sodipodi-0.dtd"
   xmlns:inkscape="http://www.inkscape.org/namespaces/inkscape"
   xml:space="preserve"
   width="7.8740005in"
   height="5.7880001in"
   version="1.1"
   style="clip-rule:evenodd;fill-rule:evenodd;image-rendering:optimizeQuality;shape-rendering:geometricPrecision;text-rendering:geometricPrecision"
   viewBox="0 0 7874.0005 5788.0001"
   id="svg4965"
   inkscape:version="0.91 r13725"
   sodipodi:docname="Nomads - Zondbots.svg"><metadata
     id="metadata5027"><rdf:RDF><cc:Work
         rdf:about=""><dc:format>image/svg+xml</dc:format><dc:type
           rdf:resource="http://purl.org/dc/dcmitype/StillImage" /></cc:Work></rdf:RDF></metadata><sodipodi:namedview
     pagecolor="#ffffff"
     bordercolor="#666666"
     borderopacity="1"
     objecttolerance="10"
     gridtolerance="10"
     guidetolerance="10"
     inkscape:pageopacity="0"
     inkscape:pageshadow="2"
     inkscape:window-width="640"
     inkscape:window-height="480"
     id="namedview5025"
     showgrid="false"
     inkscape:zoom="0.23838384"
     inkscape:cx="736.83001"
     inkscape:cy="755.46005"
     inkscape:window-x="0"
     inkscape:window-y="0"
     inkscape:window-maximized="0"
     inkscape:current-layer="svg4965" /><defs
     id="defs4967"><style
       type="text/css"
       id="style4969"><![CDATA[
    .fil2 {fill:black}
    .fil3 {fill:#E2001A}
    .fil0 {fill:#FFA000}
    .fil4 {fill:#FFD600}
    .fil1 {fill:white}
    .fil5 {fill:black;fill-rule:nonzero}
   ]]></style></defs><g
     id="Layer_x0020_1"
     transform="translate(3937,-8106)"><metadata
       id="CorelCorpID_0Corel-Layer" /><polygon
       class="fil0"
       points="-630,11925 -2835,11925 -3937,10016 -2835,8106 -630,8106 472,10016 "
       id="polygon4973"
       style="fill:#ffa000" /><polygon
       class="fil1"
       points="-675,11846 382,10016 -675,8185 -2789,8185 -3846,10016 -2789,11846 "
       id="polygon4975"
       style="fill:#ffffff" /><polygon
       class="fil2"
       points="2835,13894 630,13894 -472,11984 630,10075 2835,10075 3937,11984 "
       id="polygon4977"
       style="fill:#000000" /><polygon
       class="fil1"
       points="2789,13815 3846,11984 2789,10154 675,10154 -382,11984 675,13815 "
       id="polygon4979"
       style="fill:#ffffff" /><polygon
       class="fil3"
       points="1153,13278 1732,12075 2312,13278 1732,12555 "
       id="polygon4981"
       style="fill:#e2001a" /><polygon
       class="fil2"
       points="2383,13244 1803,12041 3105,12338 2179,12340 "
       id="polygon4983"
       style="fill:#000000" /><polygon
       class="fil3"
       points="3123,12261 1821,11964 2865,11131 2289,11857 "
       id="polygon4985"
       style="fill:#e2001a" /><polygon
       class="fil2"
       points="359,12338 1661,12041 1082,13244 1286,12340 "
       id="polygon4987"
       style="fill:#000000" /><polygon
       class="fil3"
       points="600,11131 1644,11964 342,12261 1176,11857 "
       id="polygon4989"
       style="fill:#e2001a" /><polygon
       class="fil2"
       points="1693,11903 649,11070 1485,11470 "
       id="polygon4991"
       style="fill:#000000" /><polygon
       class="fil3"
       points="1693,11903 1485,11470 1693,10567 "
       id="polygon4993"
       style="fill:#e2001a" /><polygon
       class="fil3"
       points="1772,11902 1772,10567 1980,11470 "
       id="polygon4995"
       style="fill:#e2001a" /><polygon
       class="fil2"
       points="1772,11902 1980,11470 2816,11070 "
       id="polygon4997"
       style="fill:#000000" /><path
       class="fil0"
       d="m -1732,8648 c 314,0 604,106 835,285 -33,12 -63,29 -91,52 -46,39 -79,90 -96,144 -182,-133 -406,-211 -648,-211 -607,0 -1099,491 -1099,1098 0,174 41,338 113,484 -57,8 -112,31 -159,70 -27,23 -50,50 -67,80 -100,-190 -156,-405 -156,-634 0,-756 612,-1368 1368,-1368 z m -649,2254 c 182,133 406,212 649,212 606,0 1098,-492 1098,-1098 0,-174 -41,-339 -113,-485 57,-7 112,-30 159,-70 28,-23 50,-50 68,-79 99,189 155,405 155,634 0,755 -612,1367 -1367,1367 -315,0 -604,-106 -835,-284 32,-12 62,-30 90,-53 47,-39 79,-89 96,-144 z"
       id="path4999"
       inkscape:connector-curvature="0"
       style="fill:#ffa000" /><circle
       class="fil0"
       cx="-2478"
       cy="10016"
       r="228"
       id="circle5001"
       style="fill:#ffa000" /><circle
       class="fil0"
       cx="-986"
       cy="10016"
       r="228"
       id="circle5003"
       style="fill:#ffa000" /><circle
       class="fil0"
       cx="-1732"
       cy="9270"
       r="228"
       id="circle5005"
       style="fill:#ffa000" /><circle
       class="fil0"
       cx="-1732"
       cy="10762"
       r="228"
       id="circle5007"
       style="fill:#ffa000" /><circle
       class="fil0"
       transform="matrix(0.431133,0.301882,-0.301882,0.431133,-2694.98,11390.6)"
       r="433"
       id="circle5009"
       cx="0"
       cy="0"
       style="fill:#ffa000" /><circle
       class="fil0"
       transform="matrix(-0.431133,-0.301882,0.301882,-0.431133,-769.588,8640.88)"
       r="433"
       id="circle5011"
       cx="0"
       cy="0"
       style="fill:#ffa000" /><circle
       class="fil4"
       transform="matrix(-0.338309,-0.403181,0.403181,-0.338309,-787.823,9223.25)"
       r="433"
       id="circle5013"
       cx="0"
       cy="0"
       style="fill:#ffd600" /><circle
       class="fil4"
       transform="matrix(0.338309,0.403181,-0.403181,0.338309,-2676.74,10808.2)"
       r="433"
       id="circle5015"
       cx="0"
       cy="0"
       style="fill:#ffd600" /><path
       class="fil5"
       d="m -452,11148 76,-131 c 6,-10 14,-12 25,-6 11,6 13,14 7,24 l -76,132 21,12 c 11,6 22,-2 34,-23 l 58,-100 c 5,-10 14,-12 25,-5 10,6 13,14 7,24 l -58,101 c -26,45 -54,59 -84,42 l -81,-47 c -15,-8 -23,-21 -24,-37 -1,-16 5,-36 19,-59 l 16,-28 c 6,-10 14,-11 25,-5 11,6 13,14 7,24 l -11,19 c -16,28 -19,44 -9,50 l 23,13 z m 300,-335 c 4,2 6,5 9,7 2,3 3,6 4,9 0,3 0,6 0,9 -1,3 -2,6 -3,9 -2,2 -4,5 -6,7 -3,2 -6,4 -9,5 l -188,61 104,60 c 11,7 13,16 6,28 -7,12 -16,15 -27,9 l -135,-78 c -4,-2 -6,-4 -8,-7 -2,-3 -3,-5 -4,-8 -1,-3 -1,-6 0,-9 1,-4 2,-6 3,-9 2,-3 4,-6 7,-8 2,-2 5,-4 9,-5 l 185,-62 -103,-59 c -10,-6 -12,-15 -5,-28 7,-12 16,-15 27,-8 l 134,77 z m 116,-258 c 31,18 33,48 8,92 l -37,64 c -27,47 -56,62 -85,44 l -82,-47 c -30,-17 -31,-49 -3,-96 l 14,-25 c 6,-10 14,-12 25,-6 11,6 13,14 7,25 l -10,17 c -16,28 -19,44 -10,50 l 78,44 c 10,6 21,-3 34,-25 l 37,-64 c 11,-19 12,-31 4,-35 l -42,-24 c -11,-7 -13,-16 -6,-28 7,-13 16,-16 27,-9 l 41,23 z"
       id="path5017"
       inkscape:connector-curvature="0"
       style="fill:#000000;fill-rule:nonzero" /><path
       class="fil2"
       d="m -3701,9918 c 5,-9 2,-21 -7,-26 -9,-5 -20,-2 -26,7 -5,9 -2,20 7,25 9,6 21,3 26,-6 z m 90,-165 37,190 66,-115 c 6,-10 14,-12 25,-6 11,7 13,15 7,25 l -85,148 c -2,4 -4,6 -7,8 -3,2 -6,3 -8,4 -3,1 -6,1 -9,1 -3,0 -6,-1 -8,-3 -5,-3 -9,-8 -10,-14 l -45,-231 c -2,-10 4,-20 15,-22 10,-2 20,5 22,15 z m 135,-182 c -13,-8 -25,-1 -37,20 l -33,57 c -13,23 -13,37 -1,45 l 70,40 c 12,7 25,-1 38,-24 l 31,-55 c 13,-22 14,-36 2,-43 l -70,-40 z m 93,4 c 32,19 34,53 4,104 l -25,44 c -29,51 -60,67 -91,48 l -76,-43 c -32,-19 -33,-53 -4,-104 l 25,-44 c 30,-50 60,-66 92,-48 l 75,43 z m 168,-229 c 4,3 7,5 9,8 2,2 3,5 4,8 1,3 1,6 0,9 0,3 -1,6 -3,9 -2,2 -4,5 -6,7 -3,3 -6,4 -9,5 l -188,62 104,60 c 11,6 13,15 6,27 -7,12 -16,15 -27,9 l -135,-78 c -3,-2 -6,-4 -8,-7 -2,-2 -3,-5 -4,-8 0,-3 0,-6 0,-9 1,-3 2,-6 3,-9 2,-3 4,-5 7,-8 3,-2 6,-4 9,-5 l 185,-61 -102,-60 c -11,-6 -13,-15 -6,-27 7,-13 16,-15 27,-9 l 134,77 z m 19,-268 c -10,-6 -22,2 -34,23 l -56,97 107,61 55,-96 c 13,-22 13,-36 1,-42 l -73,-43 z m 96,7 c 32,18 35,50 9,96 l -69,119 c -6,10 -13,12 -23,6 l -142,-82 c -9,-5 -11,-13 -6,-22 l 69,-121 c 26,-45 55,-58 85,-41 l 77,45 z m -43,-134 38,22 53,-94 c 11,-18 12,-29 4,-34 l -13,-7 c -8,-5 -17,1 -27,17 l -55,96 z m 69,41 37,21 58,-101 c 10,-17 11,-27 3,-31 l -11,-7 c -9,-5 -20,2 -32,23 l -55,95 z m 45,-185 c 12,7 18,20 17,37 17,-12 33,-15 48,-6 l 8,5 c 30,17 33,46 9,88 l -71,123 c -6,10 -13,12 -23,6 l -142,-82 c -9,-5 -12,-13 -6,-22 l 68,-119 c 12,-21 25,-34 39,-40 14,-6 29,-4 45,5 l 8,5 z m 115,-211 c -12,-7 -24,0 -36,21 l -33,57 c -13,22 -14,37 -1,44 l 70,41 c 12,7 24,-1 37,-24 l 32,-55 c 13,-22 13,-36 1,-43 l -70,-41 z m 94,5 c 32,18 33,53 4,104 l -26,44 c -29,50 -59,66 -91,48 l -75,-43 c -32,-19 -34,-53 -4,-104 l 25,-44 c 29,-51 60,-67 92,-48 l 75,43 z m -13,-187 123,71 c 11,6 13,15 6,28 -8,12 -17,15 -27,9 l -123,-71 -34,58 c -6,10 -14,12 -25,6 -11,-6 -13,-15 -7,-25 l 88,-153 c 6,-10 14,-12 25,-6 11,6 13,15 8,25 l -34,58 z"
       id="path5019"
       inkscape:connector-curvature="0"
       style="fill:#000000" /><path
       class="fil2"
       d="m 2802,10328 c 5,9 16,12 25,7 9,-5 12,-17 7,-26 -5,-8 -16,-12 -25,-6 -9,5 -12,16 -7,25 z m 97,161 -182,-63 66,114 c 5,10 3,18 -8,25 -11,6 -19,4 -25,-6 l -86,-149 c -1,-3 -2,-6 -3,-9 0,-4 0,-7 1,-10 0,-3 2,-5 3,-8 2,-2 4,-4 7,-5 5,-3 11,-4 18,-1 l 221,76 c 10,3 16,14 12,24 -3,10 -14,15 -24,12 z m 91,207 c 12,-7 12,-21 0,-42 l -33,-56 c -13,-23 -25,-31 -38,-24 l -70,41 c -11,7 -11,22 2,44 l 32,55 c 13,22 25,30 37,23 l 70,-41 z m -51,79 c -32,19 -63,2 -92,-48 l -25,-44 c -29,-51 -28,-85 3,-104 l 76,-43 c 32,-19 62,-2 92,48 l 25,44 c 29,51 28,85 -4,104 l -75,43 z m 114,260 c -3,2 -7,3 -10,4 -4,0 -7,0 -10,-1 -3,-1 -5,-2 -8,-4 -2,-2 -4,-4 -6,-7 -1,-3 -2,-6 -3,-9 -1,-4 -1,-7 0,-10 l 41,-194 -104,60 c -11,7 -20,4 -27,-8 -7,-13 -5,-22 6,-28 l 135,-78 c 3,-2 6,-3 10,-4 3,0 6,0 9,1 3,1 6,3 8,5 2,2 4,4 6,7 2,3 3,6 3,9 1,4 1,7 0,11 l -39,191 103,-59 c 10,-6 19,-3 26,9 7,12 5,21 -5,27 l -135,78 z m 223,150 c 10,-6 9,-19 -3,-40 l -56,-97 -106,61 56,97 c 12,21 24,28 36,22 l 73,-43 z m -54,81 c -32,18 -61,5 -87,-41 l -69,-119 c -6,-10 -4,-18 6,-23 l 142,-82 c 10,-6 17,-4 23,6 l 69,120 c 26,45 24,76 -7,94 l -77,45 z m 138,29 -38,22 54,93 c 10,18 20,25 28,20 l 13,-7 c 8,-5 8,-16 -2,-32 l -55,-96 z m -71,39 -36,21 59,101 c 9,17 18,23 25,19 l 12,-7 c 9,-5 7,-18 -5,-39 l -55,-95 z m 139,131 c -13,8 -27,7 -41,-3 2,21 -4,36 -19,45 l -8,4 c -30,18 -57,6 -81,-36 l -71,-124 c -6,-9 -4,-17 6,-22 l 142,-82 c 10,-6 17,-4 23,6 l 68,118 c 12,21 17,39 15,54 -2,15 -10,27 -26,36 l -8,4 z m 124,206 c 13,-7 13,-21 1,-42 l -33,-57 c -13,-23 -26,-30 -38,-23 l -70,40 c -12,7 -11,22 2,44 l 31,55 c 13,22 26,30 37,23 l 70,-40 z m -51,79 c -32,18 -62,2 -91,-49 l -26,-44 c -29,-50 -28,-85 4,-103 l 75,-44 c 32,-18 63,-2 92,48 l 26,44 c 29,51 27,86 -4,104 l -76,44 z m 169,82 -123,71 c -11,6 -20,3 -27,-9 -7,-12 -5,-22 6,-28 l 123,-71 -34,-58 c -6,-10 -3,-19 8,-25 10,-6 19,-4 24,6 l 89,153 c 6,10 3,18 -7,25 -11,6 -20,4 -25,-6 l -34,-58 z"
       id="path5021"
       inkscape:connector-curvature="0"
       style="fill:#000000" /><path
       class="fil5"
       d="m 209,12643 c 10,-5 9,-19 -3,-40 l -56,-96 -106,61 55,96 c 12,21 24,29 36,22 l 74,-43 z m -54,81 c -32,18 -62,5 -88,-40 l -69,-120 c -5,-10 -3,-17 7,-23 l 141,-82 c 10,-5 18,-3 23,6 l 69,120 c 26,45 24,77 -6,94 l -77,45 z m 189,161 c 12,-7 12,-21 0,-42 l -33,-57 c -13,-22 -25,-30 -38,-23 l -70,40 c -12,7 -11,22 2,45 l 32,55 c 13,22 25,29 37,22 l 70,-40 z m -51,79 c -32,18 -63,2 -92,-49 l -25,-44 c -30,-50 -28,-85 3,-103 l 76,-44 c 32,-18 62,-2 92,49 l 25,44 c 29,50 28,85 -4,103 l -75,44 z m 156,61 c -13,-22 -23,-30 -32,-25 l -77,44 c -11,6 -9,22 5,46 l 50,86 c 6,11 3,19 -7,25 -11,6 -19,4 -25,-6 l -52,-90 c -27,-46 -25,-79 6,-97 l 81,-46 c 29,-17 56,-3 83,43 l 52,91 c 6,11 4,19 -7,25 -10,6 -19,4 -25,-6 l -52,-90 z"
       id="path5023"
       inkscape:connector-curvature="0"
       style="fill:#000000;fill-rule:nonzero" /></g></svg>