<?xml version="1.0" encoding="UTF-8" standalone="no"?>
<!-- Creator: CorelDRAW X7 -->

<svg
   xmlns:dc="http://purl.org/dc/elements/1.1/"
   xmlns:cc="http://creativecommons.org/ns#"
   xmlns:rdf="http://www.w3.org/1999/02/22-rdf-syntax-ns#"
   xmlns:svg="http://www.w3.org/2000/svg"
   xmlns="http://www.w3.org/2000/svg"
   xmlns:sodipodi="http://sodipodi.sourceforge.net/DTD/sodipodi-0.dtd"
   xmlns:inkscape="http://www.inkscape.org/namespaces/inkscape"
   xml:space="preserve"
   width="7.8740005in"
   height="7.8740005in"
   version="1.1"
   style="clip-rule:evenodd;fill-rule:evenodd;image-rendering:optimizeQuality;shape-rendering:geometricPrecision;text-rendering:geometricPrecision"
   viewBox="0 0 7874.0005 7874.0005"
   id="svg2"
   inkscape:version="0.91 r13725"
   sodipodi:docname="Nomads - Bakunin Uberfallkommando - [N3] [Vyo].svg"><metadata
     id="metadata28"><rdf:RDF><cc:Work
         rdf:about=""><dc:format>image/svg+xml</dc:format><dc:type
           rdf:resource="http://purl.org/dc/dcmitype/StillImage" /></cc:Work></rdf:RDF></metadata><sodipodi:namedview
     pagecolor="#ffffff"
     bordercolor="#666666"
     borderopacity="1"
     objecttolerance="10"
     gridtolerance="10"
     guidetolerance="10"
     inkscape:pageopacity="0"
     inkscape:pageshadow="2"
     inkscape:window-width="640"
     inkscape:window-height="480"
     id="namedview26"
     showgrid="false"
     inkscape:zoom="0.23838384"
     inkscape:cx="736.83001"
     inkscape:cy="849.33005"
     inkscape:window-x="0"
     inkscape:window-y="0"
     inkscape:window-maximized="0"
     inkscape:current-layer="svg2" /><defs
     id="defs4"><style
       type="text/css"
       id="style6"><![CDATA[
    .fil2 {fill:none}
    .fil0 {fill:#FFA000}
    .fil1 {fill:white}
    .fil3 {fill:black;fill-rule:nonzero}
   ]]></style></defs><g
     id="Layer_x0020_1"
     transform="translate(3937,-7063)"><metadata
       id="CorelCorpID_0Corel-Layer" /><circle
       class="fil0"
       cy="11000"
       r="3937"
       id="circle10"
       cx="0"
       style="fill:#ffa000" /><circle
       class="fil1"
       cy="11000"
       r="3661"
       id="circle12"
       cx="0"
       style="fill:#ffffff" /><path
       class="fil0"
       d="m 796,13680 c 1156,-343 1999,-1413 1999,-2680 0,-224 -26,-442 -76,-650 -41,435 -287,837 -683,1066 -351,202 -753,233 -1110,118 277,253 452,616 452,1021 0,457 -225,872 -582,1125 z m 1745,-2372 c -40,333 -147,663 -325,971 -178,309 -410,566 -678,767 50,-156 76,-321 76,-491 0,-259 -61,-504 -170,-721 243,-15 485,-84 710,-214 147,-85 277,-190 387,-312 z m -4079,1738 c -267,-201 -500,-458 -678,-766 -178,-309 -285,-639 -325,-972 110,122 240,227 387,312 225,130 467,199 710,214 -109,217 -170,462 -170,721 0,170 27,335 76,491 z m 535,-4401 c 308,-131 647,-204 1003,-204 356,0 695,73 1003,204 -160,35 -316,95 -463,180 -225,129 -406,305 -540,507 -134,-202 -315,-378 -540,-507 -147,-85 -303,-145 -463,-180 z m 2924,325 C 1420,8496 744,8205 0,8205 c -744,0 -1420,291 -1921,765 396,-182 868,-169 1263,59 351,202 579,536 658,902 79,-366 307,-700 658,-902 395,-228 867,-241 1263,-59 z m -4640,1380 c -50,208 -76,426 -76,650 0,1267 843,2337 1999,2680 -357,-253 -582,-668 -582,-1125 0,-405 175,-769 452,-1021 -357,115 -759,84 -1110,-118 -396,-229 -642,-631 -683,-1066 z"
       id="path14"
       inkscape:connector-curvature="0"
       style="fill:#ffa000" /><path
       class="fil0"
       d="m 0,11413 c 631,0 1142,512 1142,1142 0,536 -369,985 -866,1108 l 0,-370 c 299,-112 511,-400 511,-738 0,-367 -251,-675 -590,-762 l 0,1943 -394,0 0,-1943 c -339,87 -590,395 -590,762 0,338 212,626 511,738 l 0,370 c -497,-123 -866,-572 -866,-1108 0,-630 511,-1142 1142,-1142 z"
       id="path16"
       inkscape:connector-curvature="0"
       style="fill:#ffa000" /><path
       class="fil0"
       d="M 358,10793 C 43,10247 230,9549 776,9234 c 464,-268 1037,-173 1393,196 l -321,185 c -246,-203 -602,-243 -895,-74 -318,183 -459,554 -365,892 l 1683,-972 197,341 -1683,972 c 245,251 638,314 955,130 293,-169 436,-497 384,-812 l 320,-185 c 142,492 -63,1036 -526,1304 -546,315 -1245,128 -1560,-418 z"
       id="path18"
       inkscape:connector-curvature="0"
       style="fill:#ffa000" /><path
       class="fil0"
       d="m -358,10793 c -315,546 -1014,733 -1560,418 -463,-268 -668,-812 -526,-1304 l 320,185 c -52,315 91,643 384,812 317,184 710,121 955,-130 l -1683,-972 197,-341 1683,972 c 94,-338 -47,-709 -365,-892 -293,-169 -649,-129 -895,74 l -321,-185 c 356,-369 929,-464 1393,-196 546,315 733,1013 418,1559 z"
       id="path20"
       inkscape:connector-curvature="0"
       style="fill:#ffa000" /><circle
       class="fil2"
       cy="11000"
       r="3898"
       id="circle22"
       cx="0"
       style="fill:none" /><path
       class="fil3"
       d="m -2398,9015 -121,-85 -165,236 c -37,52 -42,88 -15,107 l 38,26 c 28,20 60,6 94,-43 l 169,-241 z m -281,-202 -179,256 c -35,50 -40,83 -14,101 l 35,25 c 29,20 65,0 107,-60 l 169,-240 -118,-82 z m -49,523 c -34,-24 -45,-58 -34,-103 -44,34 -85,38 -123,11 l -19,-13 c -60,-42 -59,-106 1,-193 l 206,-293 c 8,-12 18,-13 31,-4 l 335,235 c 11,7 13,17 5,29 l -197,280 c -61,87 -123,109 -186,65 l -19,-14 z m -242,161 -114,249 254,-32 -140,-217 z m -179,261 144,-316 -70,-115 c -3,-6 -5,-11 -5,-16 -1,-5 0,-9 1,-12 4,-9 10,-15 18,-20 8,-4 17,-4 26,0 5,2 9,6 13,12 l 247,398 c 5,7 7,16 8,25 0,9 -2,17 -5,24 -7,16 -20,26 -39,29 l -463,76 c -4,2 -7,3 -11,2 -3,-1 -5,-2 -7,-3 -9,-3 -14,-10 -16,-18 -2,-9 -1,-17 3,-25 1,-4 4,-8 9,-12 4,-3 9,-6 15,-8 l 132,-21 z m -13,389 -249,287 c -4,5 -9,8 -14,10 -5,1 -10,2 -13,1 -8,-2 -15,-6 -19,-13 -5,-7 -7,-14 -5,-23 1,-4 4,-9 9,-15 l 270,-306 -168,-38 c -18,-4 -25,-17 -21,-38 5,-22 17,-31 36,-27 l 393,90 c 18,5 25,18 20,40 -5,21 -16,29 -35,25 l -163,-38 109,376 c 2,8 3,14 1,19 -2,9 -6,15 -14,20 -7,5 -15,6 -22,4 -4,0 -8,-2 -11,-5 -3,-4 -6,-8 -8,-15 l -96,-354 z m -218,979 c -83,-1 -123,-76 -120,-225 l 2,-102 c 2,-141 45,-210 128,-208 l 304,5 c 19,1 28,12 28,34 -1,23 -10,34 -29,34 l -299,-6 c -50,-1 -77,43 -78,132 l -3,123 c -2,97 23,146 73,147 l 299,6 c 19,0 28,11 27,34 0,22 -10,33 -28,32 l -304,-6 z m 11,699 c -16,3 -27,1 -36,-6 -9,-6 -14,-15 -16,-26 -1,-5 0,-10 1,-16 1,-6 3,-12 7,-17 l 285,-456 -338,58 c -19,4 -30,-6 -34,-28 -4,-21 4,-34 23,-37 l 383,-66 c 14,-2 25,0 33,8 7,7 12,16 14,26 1,6 1,12 0,19 -1,6 -3,12 -7,17 l -278,451 333,-58 c 18,-3 29,7 33,30 4,20 -4,32 -22,35 l -381,66 z m 59,243 c -18,6 -30,-2 -37,-23 -7,-22 -2,-36 16,-41 l 383,-126 c 18,-5 31,3 38,25 7,21 1,34 -17,40 l -383,125 z m 292,659 c -14,6 -26,7 -36,3 -10,-4 -18,-11 -22,-21 -2,-5 -3,-10 -4,-16 0,-6 1,-12 3,-19 l 161,-512 -312,141 c -17,8 -31,2 -40,-19 -9,-19 -4,-33 13,-41 l 354,-160 c 13,-6 24,-6 34,-1 9,5 16,12 20,22 3,5 4,11 5,18 1,6 0,12 -3,19 l -156,506 308,-139 c 17,-8 30,-1 40,20 9,19 4,32 -13,40 l -352,159 z m 714,750 c -60,58 -141,33 -244,-74 l -71,-74 c -97,-101 -116,-181 -56,-238 l 219,-211 c 14,-13 28,-11 43,4 16,17 17,32 4,45 l -216,207 c -36,35 -24,84 38,148 l 85,89 c 67,70 119,88 156,52 l 215,-206 c 14,-13 28,-12 44,4 15,16 16,31 2,44 l -219,210 z m 327,-75 -86,120 235,167 c 53,37 88,42 108,15 l 26,-37 c 20,-29 6,-61 -43,-95 l -240,-170 z m -203,279 255,181 c 49,35 83,40 101,15 l 25,-36 c 20,-29 0,-65 -60,-107 l -238,-169 -83,116 z m 523,53 c -25,34 -59,45 -104,32 34,45 37,86 11,124 l -13,18 c -43,60 -107,60 -194,-2 l -292,-207 c -11,-8 -13,-18 -4,-31 l 237,-333 c 8,-12 18,-13 29,-5 l 279,198 c 87,62 109,124 64,186 l -13,20 z m 135,145 363,166 c 14,6 17,18 10,34 -8,17 -19,22 -33,15 l -362,-165 -36,78 c -16,35 9,68 76,98 l 263,120 c 15,7 19,18 12,34 -8,17 -19,22 -35,15 l -264,-121 c -107,-48 -145,-106 -115,-172 l 97,-211 c 30,-68 101,-76 211,-26 l 72,33 c 14,6 18,18 11,34 -8,16 -18,20 -33,13 l -48,-21 c -85,-39 -135,-41 -152,-5 l -37,81 z m 976,240 c 8,-38 -23,-66 -96,-82 l -284,-65 -37,162 296,68 c 64,15 100,6 108,-25 l 13,-58 z m 53,67 c -16,70 -80,93 -192,67 l -162,-37 252,186 c 10,9 13,18 11,28 -2,8 -6,15 -13,20 -6,6 -14,7 -23,5 -4,-1 -8,-3 -12,-6 l -342,-267 -35,155 c -4,19 -17,25 -39,21 -23,-6 -32,-18 -28,-36 l 91,-397 c 3,-13 12,-18 26,-15 l 319,73 c 122,28 175,80 158,155 l -11,48 z m 178,105 -13,171 c -2,19 -13,28 -36,26 -23,-1 -33,-12 -32,-31 l 24,-314 c 5,-75 67,-108 185,-99 l 60,5 c 18,1 27,10 25,27 -1,18 -11,27 -29,25 l -53,-4 c -77,-5 -117,11 -120,51 l -7,88 395,30 c 17,2 25,11 24,28 -2,19 -11,28 -28,27 l -395,-30 z m 612,23 272,-36 -163,-198 -109,234 z m 316,13 -344,46 -60,121 c -3,5 -7,9 -11,12 -4,3 -7,5 -11,6 -9,1 -18,-1 -26,-5 -8,-5 -13,-12 -14,-22 -1,-5 1,-11 3,-17 l 206,-421 c 4,-8 10,-14 17,-19 8,-5 16,-8 24,-10 17,-2 32,4 44,18 l 311,352 c 4,2 6,5 7,8 1,3 2,6 2,8 1,9 -1,17 -7,23 -6,6 -14,10 -23,11 -4,1 -9,0 -14,-1 -6,-2 -11,-5 -15,-9 l -89,-101 z m 475,4 c -133,43 -211,28 -236,-46 l -97,-296 c -6,-18 1,-30 22,-37 22,-7 36,-2 42,16 l 97,296 c 13,40 64,45 152,16 l 251,-82 c 16,-6 27,1 33,19 5,16 0,27 -16,32 l -248,82 z m 565,-242 c -121,69 -201,70 -239,2 l -154,-271 c -9,-16 -4,-30 15,-41 20,-11 34,-9 43,8 l 154,271 c 21,36 72,31 152,-14 l 230,-131 c 15,-8 27,-4 36,13 9,14 5,26 -9,34 l -228,129 z m 325,-483 375,-65 c 6,0 11,0 17,2 5,2 9,5 11,8 5,6 7,13 6,22 0,8 -4,15 -10,20 -4,3 -10,5 -17,6 l -403,65 106,137 c 11,15 9,29 -9,42 -17,14 -32,13 -43,-2 l -248,-319 c -11,-14 -8,-29 10,-43 17,-13 31,-12 43,3 l 102,132 154,-359 c 3,-7 7,-12 11,-16 7,-5 15,-7 24,-6 8,1 15,4 20,10 2,4 4,7 4,12 1,4 0,10 -3,16 l -150,335 z m 555,-688 c -34,-29 -76,-17 -124,39 l -106,123 c -51,59 -59,104 -25,134 l 161,138 c 33,29 75,13 126,-46 l 103,-119 c 50,-58 59,-101 26,-130 l -161,-139 z m 205,89 c 60,51 46,128 -41,229 l -82,95 c -87,100 -160,125 -220,74 l -164,-143 c -59,-51 -45,-127 41,-227 l 82,-95 c 88,-101 161,-126 220,-75 l 164,142 z m 516,-726 c 17,9 20,23 9,44 -10,19 -23,24 -40,15 l -293,-152 180,380 c 9,18 9,35 1,51 -10,18 -24,28 -43,31 l -416,75 293,152 c 17,8 20,23 10,42 -10,20 -24,25 -41,16 l -348,-181 c -23,-11 -29,-29 -17,-51 8,-16 22,-25 41,-29 l 462,-86 -201,-424 c -3,-8 -4,-15 -4,-24 0,-8 2,-16 6,-22 12,-24 30,-30 53,-17 l 348,180 z m 225,-885 c 18,5 25,18 20,41 -5,21 -17,29 -35,24 l -323,-73 271,322 c 13,16 17,32 13,50 -5,20 -16,33 -34,40 l -384,177 322,74 c 19,4 26,17 21,38 -5,22 -17,31 -36,26 l -382,-87 c -26,-6 -35,-21 -30,-46 4,-17 15,-30 33,-38 l 425,-200 -300,-360 c -5,-6 -9,-13 -11,-21 -1,-9 -1,-16 0,-24 6,-26 22,-36 48,-30 l 382,87 z m -151,-312 -6,-274 -214,140 220,134 z m 48,-312 7,347 113,73 c 5,4 9,8 12,12 2,4 3,8 3,12 1,9 -2,18 -7,25 -6,8 -13,11 -23,12 -6,0 -11,-2 -17,-5 l -395,-252 c -8,-5 -13,-11 -18,-20 -4,-8 -6,-16 -6,-24 0,-17 7,-31 22,-42 l 385,-270 c 3,-3 6,-5 9,-6 3,0 6,-1 8,-1 9,0 17,3 22,10 5,7 8,15 8,24 1,4 0,9 -3,14 -2,5 -5,10 -10,14 l -110,77 z m -59,-801 c 15,-3 27,-2 36,4 9,6 14,15 17,26 1,4 1,10 1,16 -1,6 -3,11 -7,17 l -259,471 334,-77 c 19,-4 31,4 36,26 5,21 -2,34 -21,38 l -379,88 c -14,3 -25,1 -33,-6 -8,-7 -13,-15 -16,-25 -1,-6 -1,-13 -1,-19 1,-6 3,-12 7,-18 l 252,-465 -329,76 c -18,4 -30,-5 -35,-28 -5,-20 2,-33 20,-37 l 377,-87 z m -524,-474 c -36,16 -39,57 -9,123 l 123,273 316,-143 -123,-271 c -30,-67 -65,-92 -104,-74 l -203,92 z m 175,-153 c 72,-32 132,5 181,111 l 142,315 c 6,13 2,23 -12,29 l -373,169 c -12,5 -22,2 -28,-12 l -142,-315 c -48,-106 -38,-175 29,-205 l 203,-92 z m -517,-371 c -37,27 -35,70 8,130 l 94,132 c 46,64 87,82 124,56 l 173,-123 c 35,-26 30,-70 -15,-134 l -92,-128 c -44,-63 -84,-81 -119,-56 l -173,123 z m 134,-178 c 65,-46 136,-15 213,94 l 73,102 c 77,109 83,186 19,231 l -177,126 c -63,46 -134,14 -211,-94 l -73,-102 c -77,-109 -84,-186 -20,-231 l 176,-126 z"
       id="path24"
       inkscape:connector-curvature="0"
       style="fill:#000000;fill-rule:nonzero" /></g></svg>