<?xml version="1.0" encoding="UTF-8" standalone="no"?>
<!-- Creator: CorelDRAW X7 -->

<svg
   xmlns:dc="http://purl.org/dc/elements/1.1/"
   xmlns:cc="http://creativecommons.org/ns#"
   xmlns:rdf="http://www.w3.org/1999/02/22-rdf-syntax-ns#"
   xmlns:svg="http://www.w3.org/2000/svg"
   xmlns="http://www.w3.org/2000/svg"
   xmlns:sodipodi="http://sodipodi.sourceforge.net/DTD/sodipodi-0.dtd"
   xmlns:inkscape="http://www.inkscape.org/namespaces/inkscape"
   xml:space="preserve"
   width="7.8740005in"
   height="7.8740005in"
   version="1.1"
   style="clip-rule:evenodd;fill-rule:evenodd;image-rendering:optimizeQuality;shape-rendering:geometricPrecision;text-rendering:geometricPrecision"
   viewBox="0 0 7874.0005 7874.0005"
   id="svg4375"
   inkscape:version="0.91 r13725"
   sodipodi:docname="Nomads - Riot Grrls - [N3] [Vyo].svg"><metadata
     id="metadata4405"><rdf:RDF><cc:Work
         rdf:about=""><dc:format>image/svg+xml</dc:format><dc:type
           rdf:resource="http://purl.org/dc/dcmitype/StillImage" /></cc:Work></rdf:RDF></metadata><sodipodi:namedview
     pagecolor="#ffffff"
     bordercolor="#666666"
     borderopacity="1"
     objecttolerance="10"
     gridtolerance="10"
     guidetolerance="10"
     inkscape:pageopacity="0"
     inkscape:pageshadow="2"
     inkscape:window-width="640"
     inkscape:window-height="480"
     id="namedview4403"
     showgrid="false"
     inkscape:zoom="0.23838384"
     inkscape:cx="736.83001"
     inkscape:cy="849.33005"
     inkscape:window-x="0"
     inkscape:window-y="0"
     inkscape:window-maximized="0"
     inkscape:current-layer="svg4375" /><defs
     id="defs4377"><style
       type="text/css"
       id="style4379"><![CDATA[
    .fil2 {fill:none}
    .fil0 {fill:#FFA000}
    .fil1 {fill:white}
    .fil3 {fill:black;fill-rule:nonzero}
   ]]></style></defs><g
     id="Layer_x0020_1"
     transform="translate(3937,-7063)"><metadata
       id="CorelCorpID_0Corel-Layer" /><circle
       class="fil0"
       cy="11000"
       r="3937"
       id="circle4383"
       cx="0"
       style="fill:#ffa000" /><circle
       class="fil1"
       cy="11000"
       r="3543"
       id="circle4385"
       cx="0"
       style="fill:#ffffff" /><path
       class="fil0"
       d="m -1417,12358 807,0 0,-1161 39,-40 -197,-255 -177,-473 0,-216 453,236 295,-295 374,-119 40,79 -374,650 78,295 0,-335 492,-708 374,-99 -157,-354 -236,79 -276,0 -20,-256 709,-355 512,827 -748,1221 0,78 39,40 0,1161 807,0 0,1221 -807,0 0,807 -1220,0 0,-807 -807,0 0,-1221 z M 689,11870 C 1525,11584 2126,10791 2126,9858 2126,8684 1174,7732 0,7732 c -1174,0 -2126,952 -2126,2126 0,933 601,1726 1437,2012 l 0,-683 c -479,-250 -807,-751 -807,-1329 0,-826 670,-1496 1496,-1496 826,0 1496,670 1496,1496 0,578 -328,1079 -807,1329 l 0,683 z m -1614,-2307 492,591 -131,168 -39,-20 -519,-463 197,-276 z M 354,8480 596,9049 236,9229 -20,8756 354,8480 Z m -492,315 256,493 -102,51 29,381 298,0 51,99 -276,118 -610,-866 354,-276 z m -413,374 512,768 -296,157 -511,-629 295,-296 z"
       id="path4387"
       inkscape:connector-curvature="0"
       style="fill:#ffa000" /><ellipse
       class="fil2"
       transform="matrix(0,3.70093,-3.80769,0,0,11000)"
       rx="1053"
       ry="1024"
       id="ellipse4389"
       cx="0"
       cy="0"
       style="fill:none" /><path
       class="fil3"
       d="m 2349,12861 c -29,-27 -69,-14 -120,40 l -200,211 121,115 208,-220 c 46,-48 57,-84 33,-106 l -42,-40 z m 84,-12 c 52,49 39,116 -40,199 l -114,121 288,-122 c 13,-4 23,-3 30,4 6,5 10,13 11,21 1,9 -1,16 -7,23 -3,3 -7,5 -12,7 l -403,159 115,109 c 14,13 13,28 -2,44 -16,17 -31,18 -45,5 l -295,-279 c -10,-10 -10,-20 0,-30 l 225,-238 c 86,-91 157,-110 213,-57 l 36,34 z m 296,10 c 16,10 17,25 4,43 -13,19 -28,23 -43,12 l -329,-233 c -15,-11 -16,-26 -2,-45 12,-18 26,-21 41,-11 l 329,234 z m 24,-660 c -41,-21 -78,1 -113,66 l -74,144 c -37,69 -34,114 6,136 l 188,98 c 39,20 76,-5 112,-74 l 73,-140 c 36,-68 34,-112 -4,-132 l -188,-98 z m 219,39 c 70,36 75,114 13,232 l -58,111 c -62,118 -128,159 -197,123 l -193,-101 c -69,-36 -73,-113 -12,-231 l 58,-111 c 62,-119 128,-160 197,-124 l 192,101 z m -166,-401 360,104 c 18,6 24,19 18,41 -6,21 -18,29 -37,24 l -360,-104 -52,179 c -4,16 -16,22 -34,17 -15,-5 -21,-15 -16,-32 l 122,-422 c 5,-16 15,-22 31,-17 18,5 24,16 20,31 l -52,179 z m 413,-1021 c 74,1 110,58 108,170 l -3,184 c -2,122 -40,183 -113,182 l -235,-4 c -72,-1 -107,-64 -105,-187 l 2,-72 c 0,-16 9,-24 26,-24 18,0 27,9 26,25 l -1,52 c -1,91 16,137 53,138 l 235,4 c 37,0 57,-38 58,-117 l 3,-182 c 1,-66 -17,-100 -53,-101 l -121,-2 c -19,0 -27,-12 -27,-35 0,-22 10,-34 28,-33 l 119,2 z m -313,-545 c -39,6 -53,46 -40,119 l 48,288 165,-28 -51,-299 c -11,-66 -32,-96 -64,-90 l -58,10 z m 41,-75 c 71,-12 116,39 135,152 l 28,163 76,-303 c 4,-13 11,-20 21,-21 8,-2 16,0 24,4 7,4 12,10 13,19 1,4 0,9 -1,14 l -116,418 157,-27 c 19,-3 30,6 34,28 4,23 -4,36 -23,39 l -401,68 c -13,2 -21,-4 -24,-18 l -54,-323 c -21,-124 6,-192 82,-205 l 49,-8 z m -243,-483 c -37,14 -41,56 -14,125 l 108,271 155,-62 -112,-282 c -25,-61 -52,-86 -82,-74 l -55,22 z m 24,-82 c 68,-27 123,13 165,120 l 62,154 10,-313 c 1,-13 6,-21 16,-25 7,-3 16,-3 24,-1 8,3 14,8 17,16 2,4 2,9 2,14 l -25,433 147,-59 c 18,-7 31,0 39,20 9,22 4,36 -13,43 l -378,151 c -13,5 -22,1 -28,-13 l -121,-304 c -46,-116 -34,-189 38,-217 l 45,-19 z m 94,-394 c 76,117 82,197 16,239 l -261,170 c -16,10 -30,6 -42,-13 -12,-19 -11,-33 5,-43 l 262,-170 c 35,-23 27,-73 -23,-151 l -144,-222 c -9,-14 -6,-26 10,-37 15,-9 26,-6 35,8 l 142,219 z m -624,-603 c 51,-48 115,-31 193,52 l 207,219 c 11,12 10,24 -4,37 -12,12 -24,12 -35,0 l -213,-225 c -43,-46 -78,-56 -104,-31 l -28,26 c -29,28 -18,68 33,122 l 94,99 c 81,86 99,151 52,194 l -32,31 c -52,49 -113,36 -184,-39 l -52,-55 c -11,-12 -10,-24 2,-37 13,-12 25,-11 37,1 l 59,62 c 35,38 67,43 95,16 l 25,-24 c 23,-22 13,-57 -33,-105 l -95,-101 c -43,-45 -69,-85 -78,-120 -9,-35 0,-64 26,-89 l 35,-33 z"
       id="path4391"
       inkscape:connector-curvature="0"
       style="fill:#000000;fill-rule:nonzero" /><ellipse
       class="fil2"
       transform="matrix(0,-3.70093,3.80769,0,0,11000)"
       rx="1053"
       ry="1024"
       id="ellipse4393"
       cx="0"
       cy="0"
       style="fill:none" /><path
       class="fil3"
       d="m -2659,12908 123,-82 -158,-240 c -35,-53 -67,-71 -95,-52 l -38,25 c -29,19 -27,53 6,103 l 162,246 z m 291,-187 -172,-261 c -34,-50 -63,-67 -89,-50 l -36,24 c -30,20 -25,60 16,122 l 161,244 120,-79 z m -468,-238 c 34,-23 70,-21 108,7 -16,-54 -4,-94 35,-119 l 18,-12 c 62,-41 121,-17 180,71 l 197,299 c 7,12 5,22 -8,30 l -341,225 c -11,8 -21,6 -29,-6 l -188,-285 c -59,-89 -56,-155 8,-197 l 20,-13 z"
       id="path4395"
       inkscape:connector-curvature="0"
       style="fill:#000000;fill-rule:nonzero" /><path
       id="1"
       class="fil3"
       d="m -2835,12160 -77,-263 -170,192 247,71 z m -35,-314 98,333 129,41 c 5,2 10,5 14,8 3,4 6,7 7,11 2,9 2,17 -1,26 -3,8 -10,14 -19,17 -5,1 -11,1 -18,0 l -447,-139 c -9,-2 -16,-7 -22,-14 -7,-6 -11,-14 -13,-21 -5,-17 -2,-32 10,-47 l 300,-362 c 2,-4 4,-6 7,-8 3,-1 5,-2 7,-3 9,-3 17,-1 24,4 7,5 12,11 15,20 1,4 1,9 1,15 -1,5 -3,11 -7,16 l -85,103 z"
       inkscape:connector-curvature="0"
       style="fill:#000000;fill-rule:nonzero" /><path
       id="2"
       class="fil3"
       d="m -3057,11534 127,-358 c 2,-6 5,-10 10,-14 4,-3 8,-5 12,-6 8,-1 15,0 22,5 7,5 11,11 13,19 0,5 -1,11 -3,18 l -141,383 171,-25 c 19,-3 30,6 33,28 4,22 -4,34 -23,37 l -399,60 c -19,2 -30,-7 -33,-30 -3,-21 5,-33 23,-36 l 166,-24 -239,-311 c -4,-6 -7,-11 -8,-17 -1,-9 1,-16 6,-23 5,-8 12,-12 19,-13 4,0 8,0 13,2 4,1 8,5 12,10 l 219,295 z"
       inkscape:connector-curvature="0"
       style="fill:#000000;fill-rule:nonzero" /><path
       id="3"
       class="fil3"
       d="m -2967,10544 c 83,7 118,85 106,233 l -8,101 c -12,140 -59,207 -142,200 l -303,-25 c -18,-2 -27,-13 -25,-35 2,-23 12,-34 31,-32 l 297,24 c 51,4 80,-38 87,-126 l 10,-123 c 8,-96 -13,-147 -64,-151 l -297,-24 c -19,-2 -27,-14 -25,-36 2,-22 12,-32 31,-31 l 302,25 z"
       inkscape:connector-curvature="0"
       style="fill:#000000;fill-rule:nonzero" /><path
       id="4"
       class="fil3"
       d="m -2729,9935 c 15,4 25,11 30,21 5,10 6,20 3,31 -1,4 -4,9 -7,14 -4,5 -8,9 -14,12 l -454,289 330,93 c 19,5 25,18 19,39 -6,21 -18,29 -37,24 l -374,-105 c -13,-4 -22,-11 -26,-21 -4,-10 -4,-20 -2,-30 2,-6 5,-12 8,-17 4,-5 9,-10 15,-13 l 445,-287 -326,-91 c -17,-5 -23,-19 -17,-41 6,-20 17,-28 35,-23 l 372,105 z"
       inkscape:connector-curvature="0"
       style="fill:#000000;fill-rule:nonzero" /><path
       id="5"
       class="fil3"
       d="m -2633,9787 c 17,8 21,22 11,43 -9,20 -23,27 -40,19 l -365,-171 c -17,-8 -20,-22 -11,-43 10,-20 23,-26 40,-18 l 365,170 z"
       inkscape:connector-curvature="0"
       style="fill:#000000;fill-rule:nonzero" /><path
       id="6"
       class="fil3"
       d="m -2326,9226 c 13,9 21,18 23,29 2,11 0,21 -6,30 -3,4 -7,8 -11,11 -5,4 -11,7 -17,8 l -517,145 288,184 c 16,11 19,25 7,44 -12,18 -26,22 -42,12 l -328,-209 c -12,-8 -18,-17 -19,-27 0,-11 2,-21 7,-30 4,-5 8,-9 13,-13 5,-4 10,-7 17,-9 l 509,-145 -285,-182 c -16,-10 -17,-25 -5,-44 11,-18 25,-22 41,-12 l 325,208 z"
       inkscape:connector-curvature="0"
       style="fill:#000000;fill-rule:nonzero" /></g></svg>