<?xml version="1.0" encoding="UTF-8" standalone="no"?>
<!-- Creator: CorelDRAW X7 -->

<svg
   xmlns:dc="http://purl.org/dc/elements/1.1/"
   xmlns:cc="http://creativecommons.org/ns#"
   xmlns:rdf="http://www.w3.org/1999/02/22-rdf-syntax-ns#"
   xmlns:svg="http://www.w3.org/2000/svg"
   xmlns="http://www.w3.org/2000/svg"
   xmlns:sodipodi="http://sodipodi.sourceforge.net/DTD/sodipodi-0.dtd"
   xmlns:inkscape="http://www.inkscape.org/namespaces/inkscape"
   xml:space="preserve"
   width="7.8740005in"
   height="7.8740005in"
   version="1.1"
   style="clip-rule:evenodd;fill-rule:evenodd;image-rendering:optimizeQuality;shape-rendering:geometricPrecision;text-rendering:geometricPrecision"
   viewBox="0 0 7874.0005 7874.0005"
   id="svg3580"
   inkscape:version="0.91 r13725"
   sodipodi:docname="Combined Army - Morat Vanguard Infantry - [N3] [Vyo].svg"><metadata
     id="metadata3598"><rdf:RDF><cc:Work
         rdf:about=""><dc:format>image/svg+xml</dc:format><dc:type
           rdf:resource="http://purl.org/dc/dcmitype/StillImage" /></cc:Work></rdf:RDF></metadata><sodipodi:namedview
     pagecolor="#ffffff"
     bordercolor="#666666"
     borderopacity="1"
     objecttolerance="10"
     gridtolerance="10"
     guidetolerance="10"
     inkscape:pageopacity="0"
     inkscape:pageshadow="2"
     inkscape:window-width="640"
     inkscape:window-height="480"
     id="namedview3596"
     showgrid="false"
     inkscape:zoom="0.23838384"
     inkscape:cx="736.83001"
     inkscape:cy="849.33005"
     inkscape:window-x="0"
     inkscape:window-y="0"
     inkscape:window-maximized="0"
     inkscape:current-layer="svg3580" /><defs
     id="defs3582"><style
       type="text/css"
       id="style3584"><![CDATA[
    .fil0 {fill:black}
    .fil1 {fill:#F08501}
    .fil3 {fill:white}
    .fil2 {fill:#FFFF40;fill-rule:nonzero}
   ]]></style></defs><g
     id="Layer_x0020_1"
     transform="translate(3937,-7063)"><metadata
       id="CorelCorpID_0Corel-Layer" /><circle
       class="fil0"
       cy="11000"
       r="3937"
       id="circle3588"
       cx="0"
       style="fill:#000000" /><polygon
       class="fil1"
       points="512,13618 374,12457 1280,11394 2008,9465 2598,10744 2028,12693 "
       id="polygon3590"
       style="fill:#f08501" /><path
       class="fil2"
       d="m -2639,11077 c 93,-116 192,-227 297,-332 241,-241 513,-452 809,-626 l 478,191 c -376,180 -717,422 -1008,713 -147,147 -281,306 -402,477 l -174,-423 z m 909,1775 c 117,-352 315,-667 571,-924 318,-318 727,-546 1183,-641 l 94,107 59,264 c -409,70 -776,267 -1057,548 -155,155 -283,335 -380,533 l -470,113 z m -528,-854 c 140,-242 311,-465 508,-661 327,-327 724,-584 1167,-745 l 281,321 c -448,136 -848,380 -1170,702 -246,246 -447,538 -588,862 l -198,-479 z"
       id="path3592"
       inkscape:connector-curvature="0"
       style="fill:#ffff40;fill-rule:nonzero" /><path
       class="fil3"
       d="m 197,8133 c 1495,101 2677,1346 2677,2867 0,1521 -1182,2766 -2677,2867 l 0,-553 c 12,-1 24,-2 36,-3 -5,-216 -18,-422 -40,-618 -406,183 -860,284 -1349,322 287,165 612,270 959,299 l 0,553 c -1495,-101 -2677,-1346 -2677,-2867 0,-1521 1182,-2766 2677,-2867 l 0,553 c -774,65 -1440,509 -1811,1146 971,160 1613,546 2024,1129 208,295 354,639 451,1027 29,-22 57,-44 84,-66 589,-491 970,-1318 1038,-2616 C 1218,8958 734,8731 197,8686 l 0,-553 z m -82,4075 c -85,-394 -220,-737 -421,-1021 -364,-516 -956,-853 -1876,-985 -91,249 -141,518 -141,798 0,601 228,1148 603,1560 692,11 1320,-88 1835,-352 z m 449,285 c 33,235 52,484 61,745 979,-273 1698,-1172 1698,-2238 0,-421 -112,-816 -308,-1157 -145,1157 -560,1938 -1163,2440 -92,77 -188,146 -288,210 z"
       id="path3594"
       inkscape:connector-curvature="0"
       style="fill:#ffffff" /></g></svg>