<?xml version="1.0" encoding="UTF-8" standalone="no"?>
<!-- Creator: CorelDRAW X7 -->

<svg
   xmlns:dc="http://purl.org/dc/elements/1.1/"
   xmlns:cc="http://creativecommons.org/ns#"
   xmlns:rdf="http://www.w3.org/1999/02/22-rdf-syntax-ns#"
   xmlns:svg="http://www.w3.org/2000/svg"
   xmlns="http://www.w3.org/2000/svg"
   xmlns:sodipodi="http://sodipodi.sourceforge.net/DTD/sodipodi-0.dtd"
   xmlns:inkscape="http://www.inkscape.org/namespaces/inkscape"
   xml:space="preserve"
   width="7.8740005in"
   height="7.8740005in"
   version="1.1"
   style="clip-rule:evenodd;fill-rule:evenodd;image-rendering:optimizeQuality;shape-rendering:geometricPrecision;text-rendering:geometricPrecision"
   viewBox="0 0 7874.0005 7874.0005"
   id="svg2"
   inkscape:version="0.91 r13725"
   sodipodi:docname="combined_army_shrouded.svg"><metadata
     id="metadata22"><rdf:RDF><cc:Work
         rdf:about=""><dc:format>image/svg+xml</dc:format><dc:type
           rdf:resource="http://purl.org/dc/dcmitype/StillImage" /></cc:Work></rdf:RDF></metadata><sodipodi:namedview
     pagecolor="#ffffff"
     bordercolor="#666666"
     borderopacity="1"
     objecttolerance="10"
     gridtolerance="10"
     guidetolerance="10"
     inkscape:pageopacity="0"
     inkscape:pageshadow="2"
     inkscape:window-width="640"
     inkscape:window-height="480"
     id="namedview20"
     showgrid="false"
     inkscape:zoom="0.23838384"
     inkscape:cx="736.83001"
     inkscape:cy="849.33005"
     inkscape:window-x="0"
     inkscape:window-y="0"
     inkscape:window-maximized="0"
     inkscape:current-layer="svg2" /><defs
     id="defs4"><style
       type="text/css"
       id="style6"><![CDATA[
    .fil1 {fill:#403273}
    .fil0 {fill:#FFF700}
   ]]></style></defs><g
     id="Layer_x0020_1"
     transform="translate(3937,-7063)"><metadata
       id="CorelCorpID_0Corel-Layer" /><circle
       class="fil0"
       cy="11000"
       r="3937"
       id="circle10"
       cx="0"
       style="fill:#fff700" /><circle
       class="fil1"
       cy="11000"
       r="3780"
       id="circle12"
       cx="0"
       style="fill:#403273" /><path
       class="fil0"
       d="m 516,11384 c -7,118 138,295 492,295 591,0 1575,-255 2205,-531 0,492 -295,1183 -788,1358 -610,217 -1220,217 -1811,217 -275,0 -512,-473 -512,-748 l 0,-3267 310,-618 c 114,50 219,113 281,164 l -177,3130 z"
       id="path14"
       inkscape:connector-curvature="0"
       style="fill:#fff700" /><polygon
       class="fil0"
       points="0,12220 -433,13087 0,13953 433,13087 "
       id="polygon16"
       style="fill:#fff700" /><path
       class="fil0"
       d="m -516,11384 c 7,118 -138,295 -492,295 -591,0 -1575,-255 -2205,-531 0,492 295,1183 788,1358 610,217 1220,217 1811,217 275,0 512,-473 512,-748 l 0,-3267 -310,-618 c -114,50 -219,113 -281,164 l 177,3130 z"
       id="path18"
       inkscape:connector-curvature="0"
       style="fill:#fff700" /></g></svg>