<?xml version="1.0" encoding="UTF-8" standalone="no"?>
<!-- Creator: CorelDRAW X7 -->

<svg
   xmlns:dc="http://purl.org/dc/elements/1.1/"
   xmlns:cc="http://creativecommons.org/ns#"
   xmlns:rdf="http://www.w3.org/1999/02/22-rdf-syntax-ns#"
   xmlns:svg="http://www.w3.org/2000/svg"
   xmlns="http://www.w3.org/2000/svg"
   xmlns:sodipodi="http://sodipodi.sourceforge.net/DTD/sodipodi-0.dtd"
   xmlns:inkscape="http://www.inkscape.org/namespaces/inkscape"
   xml:space="preserve"
   width="7.8740005in"
   height="7.8740005in"
   version="1.1"
   style="clip-rule:evenodd;fill-rule:evenodd;image-rendering:optimizeQuality;shape-rendering:geometricPrecision;text-rendering:geometricPrecision"
   viewBox="0 0 7874.0005 7874.0005"
   id="svg2"
   inkscape:version="0.91 r13725"
   sodipodi:docname="combined_army_slave_drone.svg"><metadata
     id="metadata25"><rdf:RDF><cc:Work
         rdf:about=""><dc:format>image/svg+xml</dc:format><dc:type
           rdf:resource="http://purl.org/dc/dcmitype/StillImage" /></cc:Work></rdf:RDF></metadata><sodipodi:namedview
     pagecolor="#ffffff"
     bordercolor="#666666"
     borderopacity="1"
     objecttolerance="10"
     gridtolerance="10"
     guidetolerance="10"
     inkscape:pageopacity="0"
     inkscape:pageshadow="2"
     inkscape:window-width="640"
     inkscape:window-height="480"
     id="namedview23"
     showgrid="false"
     inkscape:zoom="0.23838384"
     inkscape:cx="736.83001"
     inkscape:cy="849.33005"
     inkscape:window-x="0"
     inkscape:window-y="0"
     inkscape:window-maximized="0"
     inkscape:current-layer="svg2" /><defs
     id="defs4"><style
       type="text/css"
       id="style6"><![CDATA[
    .fil0 {fill:black}
    .fil1 {fill:#FFF700}
   ]]></style></defs><g
     id="Layer_x0020_1"
     transform="translate(3937,-7063)"><metadata
       id="CorelCorpID_0Corel-Layer" /><circle
       class="fil0"
       cy="11000"
       r="3937"
       id="circle10"
       cx="0"
       style="fill:#000000" /><polygon
       class="fil1"
       points="1685,13972 -1724,13972 -3429,11020 -1724,8067 1685,8067 3390,11020 "
       id="polygon12"
       style="fill:#fff700" /><g
       id="_804887760"><path
         class="fil0"
         d="m -295,10143 343,1617 c 131,616 -29,1031 -332,1624 28,-455 -20,-1027 -126,-1527 l -344,-1617 c -131,-616 140,-1169 457,-1624 -42,317 -105,1027 2,1527 z"
         id="path15"
         inkscape:connector-curvature="0"
         style="fill:#000000" /><path
         class="fil0"
         d="m 476,10143 344,1617 c 131,616 -29,1031 -332,1624 28,-455 -20,-1027 -126,-1527 L 18,10240 c -131,-616 139,-1169 456,-1624 -41,317 -104,1027 2,1527 z"
         id="path17"
         inkscape:connector-curvature="0"
         style="fill:#000000" /><path
         class="fil0"
         d="m -957,10143 344,1617 c 131,616 -29,1031 -332,1624 27,-455 -20,-1027 -126,-1527 l -344,-1617 c -131,-616 139,-1169 456,-1624 -41,317 -104,1027 2,1527 z"
         id="path19"
         inkscape:connector-curvature="0"
         style="fill:#000000" /><path
         class="fil0"
         d="m 1138,10143 344,1617 c 130,616 -29,1031 -333,1624 28,-455 -20,-1027 -126,-1527 L 679,10240 c -131,-616 140,-1169 457,-1624 -42,317 -104,1027 2,1527 z"
         id="path21"
         inkscape:connector-curvature="0"
         style="fill:#000000" /></g></g></svg>