<?xml version="1.0" encoding="UTF-8" standalone="no"?>
<!-- Creator: CorelDRAW X7 -->

<svg
   xmlns:dc="http://purl.org/dc/elements/1.1/"
   xmlns:cc="http://creativecommons.org/ns#"
   xmlns:rdf="http://www.w3.org/1999/02/22-rdf-syntax-ns#"
   xmlns:svg="http://www.w3.org/2000/svg"
   xmlns="http://www.w3.org/2000/svg"
   xmlns:sodipodi="http://sodipodi.sourceforge.net/DTD/sodipodi-0.dtd"
   xmlns:inkscape="http://www.inkscape.org/namespaces/inkscape"
   xml:space="preserve"
   width="7.8740005in"
   height="7.8740005in"
   version="1.1"
   style="clip-rule:evenodd;fill-rule:evenodd;image-rendering:optimizeQuality;shape-rendering:geometricPrecision;text-rendering:geometricPrecision"
   viewBox="0 0 7874.0005 7874.0005"
   id="svg2"
   inkscape:version="0.91 r13725"
   sodipodi:docname="combined_army_cadmus_naish_agent_sheskiin.svg"><metadata
     id="metadata26"><rdf:RDF><cc:Work
         rdf:about=""><dc:format>image/svg+xml</dc:format><dc:type
           rdf:resource="http://purl.org/dc/dcmitype/StillImage" /></cc:Work></rdf:RDF></metadata><sodipodi:namedview
     pagecolor="#ffffff"
     bordercolor="#666666"
     borderopacity="1"
     objecttolerance="10"
     gridtolerance="10"
     guidetolerance="10"
     inkscape:pageopacity="0"
     inkscape:pageshadow="2"
     inkscape:window-width="640"
     inkscape:window-height="480"
     id="namedview24"
     showgrid="false"
     inkscape:zoom="0.23838384"
     inkscape:cx="736.83001"
     inkscape:cy="849.33005"
     inkscape:window-x="0"
     inkscape:window-y="0"
     inkscape:window-maximized="0"
     inkscape:current-layer="svg2" /><defs
     id="defs4"><style
       type="text/css"
       id="style6"><![CDATA[
    .fil2 {fill:none}
    .fil1 {fill:#403273}
    .fil0 {fill:#FFF700}
   ]]></style></defs><g
     id="Layer_x0020_1"
     transform="translate(3937,-7063)"><metadata
       id="CorelCorpID_0Corel-Layer" /><circle
       class="fil0"
       cy="11000"
       r="3937"
       id="circle10"
       cx="0"
       style="fill:#fff700" /><circle
       class="fil1"
       cy="11000"
       r="3780"
       id="circle12"
       cx="0"
       style="fill:#403273" /><path
       class="fil0"
       d="m 386,9520 393,-794 c 34,-69 187,-115 393,-13 433,217 1042,769 1358,1162 178,-293 203,-918 -59,-1201 -325,-350 -687,-580 -1102,-787 -208,-104 -580,76 -670,256 l -501,1002 188,375 z m -772,0 -393,-794 c -34,-69 -187,-115 -393,-13 -433,217 -1042,769 -1358,1162 -178,-293 -203,-918 59,-1201 325,-350 687,-580 1102,-787 208,-104 580,76 670,256 l 501,1002 -188,375 z m 952,361 198,-323 c 33,-53 168,-106 325,-4 262,171 647,546 847,850 142,-219 188,-627 20,-847 -209,-272 -473,-433 -748,-590 -127,-73 -353,10 -430,135 l -331,540 119,239 z m -1132,0 -198,-323 c -33,-53 -168,-106 -325,-4 -262,171 -647,546 -847,850 -142,-219 -188,-627 -20,-847 209,-272 473,-433 748,-590 127,-73 353,10 430,135 l 331,540 -119,239 z"
       id="path14"
       inkscape:connector-curvature="0"
       style="fill:#fff700" /><polygon
       class="fil0"
       points="0,9189 -433,10055 0,10921 433,10055 "
       id="polygon16"
       style="fill:#fff700" /><line
       class="fil2"
       x1="610"
       y1="11315"
       x2="728"
       y2="11315"
       id="line18"
       style="fill:none" /><polygon
       class="fil0"
       points="0,11059 -512,11925 0,13697 512,11925 "
       id="polygon20"
       style="fill:#fff700" /><path
       class="fil0"
       d="m -551,12499 -228,460 c -34,69 -187,115 -393,13 -433,-217 -1042,-769 -1358,-1162 -178,293 -203,918 59,1201 325,350 687,580 1102,787 208,104 580,-76 670,-255 l 285,-571 -137,-473 z m 1102,0 228,460 c 34,69 187,115 393,13 433,-217 1042,-769 1358,-1162 178,293 203,918 -59,1201 -325,350 -687,580 -1102,787 -208,104 -580,-76 -670,-255 l -285,-571 137,-473 z m -1243,-490 -72,118 c -33,53 -168,106 -325,4 -262,-171 -647,-546 -847,-850 -142,219 -188,627 -20,847 209,272 473,433 748,590 127,73 353,-10 430,-134 l 171,-279 -85,-296 z m 1384,0 72,118 c 33,53 168,106 325,4 262,-171 647,-546 847,-850 142,219 188,627 20,847 -209,272 -473,433 -748,590 -127,73 -353,-10 -430,-134 l -171,-279 85,-296 z"
       id="path22"
       inkscape:connector-curvature="0"
       style="fill:#fff700" /></g></svg>