<?xml version="1.0" encoding="UTF-8" standalone="no"?>
<!-- Creator: CorelDRAW X7 -->

<svg
   xmlns:dc="http://purl.org/dc/elements/1.1/"
   xmlns:cc="http://creativecommons.org/ns#"
   xmlns:rdf="http://www.w3.org/1999/02/22-rdf-syntax-ns#"
   xmlns:svg="http://www.w3.org/2000/svg"
   xmlns="http://www.w3.org/2000/svg"
   xmlns:sodipodi="http://sodipodi.sourceforge.net/DTD/sodipodi-0.dtd"
   xmlns:inkscape="http://www.inkscape.org/namespaces/inkscape"
   xml:space="preserve"
   width="7.8740005in"
   height="7.8740005in"
   version="1.1"
   style="clip-rule:evenodd;fill-rule:evenodd;image-rendering:optimizeQuality;shape-rendering:geometricPrecision;text-rendering:geometricPrecision"
   viewBox="0 0 7874.0005 7874.0005"
   id="svg3840"
   inkscape:version="0.91 r13725"
   sodipodi:docname="Aleph - Scylla, Steel Phalanx's NCO - [N3] [Vyo].svg"><metadata
     id="metadata3890"><rdf:RDF><cc:Work
         rdf:about=""><dc:format>image/svg+xml</dc:format><dc:type
           rdf:resource="http://purl.org/dc/dcmitype/StillImage" /></cc:Work></rdf:RDF></metadata><sodipodi:namedview
     pagecolor="#ffffff"
     bordercolor="#666666"
     borderopacity="1"
     objecttolerance="10"
     gridtolerance="10"
     guidetolerance="10"
     inkscape:pageopacity="0"
     inkscape:pageshadow="2"
     inkscape:window-width="640"
     inkscape:window-height="480"
     id="namedview3888"
     showgrid="false"
     inkscape:zoom="0.23838384"
     inkscape:cx="736.83001"
     inkscape:cy="849.33005"
     inkscape:window-x="0"
     inkscape:window-y="0"
     inkscape:window-maximized="0"
     inkscape:current-layer="svg3840" /><defs
     id="defs3842"><style
       type="text/css"
       id="style3844"><![CDATA[
    .fil1 {fill:black}
    .fil0 {fill:white}
   ]]></style></defs><g
     id="Layer_x0020_1"
     transform="translate(3937,-7063)"><metadata
       id="CorelCorpID_0Corel-Layer" /><circle
       class="fil0"
       cy="11000"
       r="3937"
       id="circle3848"
       cx="0"
       style="fill:#ffffff" /><path
       class="fil1"
       d="m 741,7293 c 1733,345 3039,1873 3039,3707 0,2087 -1693,3780 -3780,3780 -2087,0 -3780,-1693 -3780,-3780 0,-1834 1306,-3362 3039,-3707 57,-11 113,26 124,83 12,58 -25,114 -83,125 l 0,0 c -1293,314 -2253,1479 -2253,2869 0,1631 1322,2953 2953,2953 1631,0 2953,-1322 2953,-2953 0,-1390 -960,-2555 -2253,-2869 l 0,0 c -58,-11 -95,-67 -83,-125 11,-57 67,-94 124,-83 z"
       id="path3850"
       inkscape:connector-curvature="0"
       style="fill:#000000" /><circle
       class="fil1"
       cy="10370"
       r="630"
       id="circle3852"
       cx="0"
       style="fill:#000000" /><path
       class="fil1"
       d="m -2598,10370 1771,-236 c 59,59 79,157 79,236 0,79 -20,177 -79,236 l -1771,-236 z"
       id="path3854"
       inkscape:connector-curvature="0"
       style="fill:#000000" /><path
       class="fil1"
       d="m -2598,10370 1771,-236 c 59,59 79,157 79,236 0,79 -20,177 -79,236 l -1771,-236 z"
       id="path3856"
       inkscape:connector-curvature="0"
       style="fill:#000000" /><path
       class="fil1"
       d="m 0,7772 236,1771 c -59,59 -157,79 -236,79 -79,0 -177,-20 -236,-79 L 0,7772 Z"
       id="path3858"
       inkscape:connector-curvature="0"
       style="fill:#000000" /><path
       class="fil1"
       d="m 0,12969 -236,-1772 c 59,-59 157,-79 236,-79 79,0 177,20 236,79 L 0,12969 Z"
       id="path3860"
       inkscape:connector-curvature="0"
       style="fill:#000000" /><path
       class="fil1"
       d="m 2598,10370 -1771,236 c -59,-59 -79,-157 -79,-236 0,-79 20,-177 79,-236 l 1771,236 z"
       id="path3862"
       inkscape:connector-curvature="0"
       style="fill:#000000" /><path
       class="fil1"
       d="m -1837,8533 1419,1085 c 0,84 -55,167 -111,223 -56,56 -139,111 -223,111 L -1837,8533 Z"
       id="path3864"
       inkscape:connector-curvature="0"
       style="fill:#000000" /><path
       class="fil1"
       d="M 1837,8533 752,9952 c -84,0 -167,-55 -223,-111 -56,-56 -111,-139 -111,-223 L 1837,8533 Z"
       id="path3866"
       inkscape:connector-curvature="0"
       style="fill:#000000" /><path
       class="fil1"
       d="m -1837,12207 1085,-1419 c 84,0 167,55 223,111 56,56 111,139 111,223 l -1419,1085 z"
       id="path3868"
       inkscape:connector-curvature="0"
       style="fill:#000000" /><path
       class="fil1"
       d="M 1837,12207 418,11122 c 0,-84 55,-167 111,-223 56,-56 139,-111 223,-111 l 1085,1419 z"
       id="path3870"
       inkscape:connector-curvature="0"
       style="fill:#000000" /><path
       class="fil1"
       d="m -765,8524 448,773 c -15,39 -57,67 -94,82 -36,15 -85,25 -124,9 l -230,-864 z"
       id="path3872"
       inkscape:connector-curvature="0"
       style="fill:#000000" /><path
       class="fil1"
       d="m -1846,9605 864,230 c 16,39 6,88 -9,125 -15,36 -43,78 -82,94 l -773,-449 z"
       id="path3874"
       inkscape:connector-curvature="0"
       style="fill:#000000" /><path
       class="fil1"
       d="m -1846,11135 773,-448 c 39,16 67,57 82,94 15,36 25,85 9,124 l -864,230 z"
       id="path3876"
       inkscape:connector-curvature="0"
       style="fill:#000000" /><path
       class="fil1"
       d="m -765,12216 230,-864 c 39,-16 88,-6 124,9 37,15 79,43 94,82 l -448,773 z"
       id="path3878"
       inkscape:connector-curvature="0"
       style="fill:#000000" /><path
       class="fil1"
       d="m 765,12216 -448,-773 c 15,-39 57,-67 94,-82 36,-15 85,-25 124,-9 l 230,864 z"
       id="path3880"
       inkscape:connector-curvature="0"
       style="fill:#000000" /><path
       class="fil1"
       d="m 1846,11135 -864,-230 c -16,-39 -6,-88 9,-124 15,-37 43,-78 82,-94 l 773,448 z"
       id="path3882"
       inkscape:connector-curvature="0"
       style="fill:#000000" /><path
       class="fil1"
       d="m 1846,9605 -773,449 c -39,-16 -67,-58 -82,-94 -15,-37 -25,-86 -9,-125 l 864,-230 z"
       id="path3884"
       inkscape:connector-curvature="0"
       style="fill:#000000" /><path
       class="fil1"
       d="m 765,8524 -230,864 c -39,16 -88,6 -124,-9 -37,-15 -79,-43 -94,-82 l 448,-773 z"
       id="path3886"
       inkscape:connector-curvature="0"
       style="fill:#000000" /></g></svg>