<?xml version="1.0" encoding="UTF-8" standalone="no"?>
<!-- Creator: CorelDRAW X7 -->

<svg
   xmlns:dc="http://purl.org/dc/elements/1.1/"
   xmlns:cc="http://creativecommons.org/ns#"
   xmlns:rdf="http://www.w3.org/1999/02/22-rdf-syntax-ns#"
   xmlns:svg="http://www.w3.org/2000/svg"
   xmlns="http://www.w3.org/2000/svg"
   xmlns:sodipodi="http://sodipodi.sourceforge.net/DTD/sodipodi-0.dtd"
   xmlns:inkscape="http://www.inkscape.org/namespaces/inkscape"
   xml:space="preserve"
   width="7.8740005in"
   height="7.8740005in"
   version="1.1"
   style="clip-rule:evenodd;fill-rule:evenodd;image-rendering:optimizeQuality;shape-rendering:geometricPrecision;text-rendering:geometricPrecision"
   viewBox="0 0 7874.0005 7874.0005"
   id="svg2"
   inkscape:version="0.91 r13725"
   sodipodi:docname="Aleph - Acmon - [N3] [Vyo].svg"><metadata
     id="metadata22"><rdf:RDF><cc:Work
         rdf:about=""><dc:format>image/svg+xml</dc:format><dc:type
           rdf:resource="http://purl.org/dc/dcmitype/StillImage" /></cc:Work></rdf:RDF></metadata><sodipodi:namedview
     pagecolor="#ffffff"
     bordercolor="#666666"
     borderopacity="1"
     objecttolerance="10"
     gridtolerance="10"
     guidetolerance="10"
     inkscape:pageopacity="0"
     inkscape:pageshadow="2"
     inkscape:window-width="640"
     inkscape:window-height="480"
     id="namedview20"
     showgrid="false"
     inkscape:zoom="0.23838384"
     inkscape:cx="736.83001"
     inkscape:cy="849.33005"
     inkscape:window-x="0"
     inkscape:window-y="0"
     inkscape:window-maximized="0"
     inkscape:current-layer="svg2" /><defs
     id="defs4"><style
       type="text/css"
       id="style6"><![CDATA[
    .fil2 {fill:none}
    .fil1 {fill:black}
    .fil0 {fill:white}
    .fil3 {fill:white;fill-rule:nonzero}
   ]]></style></defs><g
     id="Layer_x0020_1"
     transform="translate(3937,-7063)"><metadata
       id="CorelCorpID_0Corel-Layer" /><circle
       class="fil0"
       cy="11000"
       r="3937"
       id="circle10"
       cx="0"
       style="fill:#ffffff" /><path
       class="fil1"
       d="m 741,7293 c 1733,345 3039,1873 3039,3707 0,2087 -1693,3780 -3780,3780 -2087,0 -3780,-1693 -3780,-3780 0,-1834 1306,-3362 3039,-3707 57,-11 113,26 124,83 12,58 -25,114 -83,125 l 0,0 c -1293,314 -2253,1479 -2253,2869 0,1631 1322,2953 2953,2953 1631,0 2953,-1322 2953,-2953 0,-1390 -960,-2555 -2253,-2869 l 0,0 c -58,-11 -95,-67 -83,-125 11,-57 67,-94 124,-83 z"
       id="path12"
       inkscape:connector-curvature="0"
       style="fill:#000000" /><path
       class="fil1"
       d="m -2559,9524 5118,0 c -295,334 -1575,393 -1575,1141 0,394 236,611 433,729 120,71 192,200 177,413 l -3070,0 c 0,-118 10,-225 118,-315 211,-177 571,-386 571,-689 0,-728 -1522,-751 -1772,-1279 z"
       id="path14"
       inkscape:connector-curvature="0"
       style="fill:#000000" /><circle
       class="fil2"
       cy="11000"
       r="3898"
       id="circle16"
       cx="0"
       style="fill:none" /><path
       class="fil3"
       d="m -1301,14134 -7,2 c -75,-46 -121,-74 -136,-83 -63,-37 -123,-71 -178,-101 l -2,-7 17,-29 8,-3 47,24 c 19,10 32,10 39,-1 3,-7 7,-24 11,-53 l 16,-123 c -47,-29 -95,-57 -145,-86 -26,-16 -66,-39 -120,-69 l -56,44 c -42,33 -67,55 -73,66 -7,12 -3,24 12,35 8,7 25,18 50,35 l 2,8 -17,29 -8,2 c -62,-39 -103,-64 -121,-74 -14,-9 -49,-28 -106,-59 l -3,-7 18,-31 9,-1 c 36,19 61,25 76,19 14,-6 83,-53 205,-142 l 314,-227 c 24,-18 60,-45 108,-80 l 73,42 -69,744 c -3,28 0,46 7,54 9,11 24,22 45,35 l 2,7 -18,30 z m -179,-443 34,-310 -249,184 c 27,17 64,39 109,66 43,25 79,45 106,60 z m 1089,597 c -80,43 -149,58 -208,45 -26,-6 -47,-19 -64,-38 -19,-22 -38,-58 -56,-109 -20,-55 -37,-112 -53,-174 l -59,33 c -3,12 -5,21 -7,29 -13,60 -24,116 -33,168 -34,-2 -80,-4 -140,-6 l -16,-9 c 25,-97 43,-164 51,-203 24,-103 38,-172 42,-207 2,-12 1,-20 -2,-24 -2,-5 -10,-8 -21,-11 -13,-3 -35,-6 -67,-10 l -6,-5 6,-28 7,-5 c 118,1 202,1 251,-1 l 10,9 c -7,13 -29,102 -66,265 46,-32 103,-68 170,-105 67,-37 117,-62 152,-76 35,-14 66,-17 93,-11 15,3 34,11 56,23 l 8,16 c -5,15 -14,38 -25,69 l -29,76 -34,8 -9,-4 c 4,-50 -11,-79 -45,-87 -36,-8 -93,3 -172,34 43,143 85,236 127,281 15,16 35,27 58,32 28,7 54,2 80,-14 l 8,8 -7,31 z m 949,-15 -5,34 c -14,12 -39,25 -73,41 -34,16 -65,24 -92,25 -22,0 -40,-4 -54,-12 -13,-8 -22,-18 -27,-30 -5,-12 -8,-32 -10,-60 -43,39 -83,67 -120,84 -37,17 -75,25 -115,26 -63,1 -108,-16 -134,-52 14,135 35,242 63,321 l -8,12 c -67,8 -111,11 -132,12 l -12,-8 7,-252 c 2,-80 1,-181 -1,-303 -1,-88 -6,-176 -13,-263 52,-4 102,-9 150,-15 l 13,7 c -3,48 -4,116 -2,203 1,62 6,113 16,155 10,41 26,71 49,89 23,17 48,26 75,25 25,0 49,-7 74,-22 24,-14 42,-31 55,-52 12,-20 19,-47 21,-81 2,-33 3,-91 1,-174 0,-40 -3,-85 -9,-135 12,-1 36,-4 72,-9 37,-6 62,-10 75,-13 l 14,6 c -3,60 -4,108 -3,144 0,36 1,99 2,187 1,50 6,84 14,101 9,18 22,26 41,26 14,0 36,-7 65,-20 l 3,3 z m 698,-418 c 19,59 25,113 16,160 -8,47 -33,89 -74,125 -41,37 -93,65 -155,85 -64,21 -120,29 -169,25 -50,-4 -93,-23 -130,-55 -38,-33 -66,-80 -86,-140 -18,-56 -22,-108 -11,-156 11,-48 36,-89 76,-124 39,-34 90,-61 153,-81 94,-31 173,-33 240,-5 66,27 113,82 140,166 z m -440,152 c 24,72 53,123 89,153 35,30 76,38 123,22 50,-16 81,-49 90,-98 9,-49 3,-108 -20,-177 -9,-28 -21,-57 -37,-86 -16,-28 -32,-50 -48,-64 -17,-14 -36,-23 -57,-27 -22,-4 -45,-2 -70,6 -29,10 -53,26 -72,49 -18,23 -26,53 -24,90 1,37 10,81 26,132 z m 834,-628 -7,-11 c 45,-61 76,-97 91,-107 11,-8 22,-7 33,1 10,8 18,16 24,25 13,20 21,45 25,75 3,29 5,97 6,202 1,95 5,178 12,250 -36,32 -65,58 -86,81 l -16,3 c -77,-63 -146,-116 -208,-160 -96,-69 -155,-106 -176,-110 -14,-4 -28,-2 -39,6 -10,6 -25,20 -45,42 l -7,0 -17,-27 0,-9 c 11,-15 32,-40 62,-74 29,-34 47,-54 53,-60 6,-5 12,-10 18,-14 9,-6 18,-8 26,-7 8,2 19,9 34,20 l 95,72 115,87 c 41,32 87,67 138,104 -1,-78 -4,-139 -8,-182 -5,-43 -9,-77 -14,-100 -4,-24 -11,-44 -22,-60 -9,-14 -21,-26 -35,-35 -15,-9 -32,-13 -52,-12 z"
       id="path18"
       inkscape:connector-curvature="0"
       style="fill:#ffffff;fill-rule:nonzero" /></g></svg>