<?xml version="1.0" encoding="UTF-8" standalone="no"?>
<!-- Creator: CorelDRAW X7 -->

<svg
   xmlns:dc="http://purl.org/dc/elements/1.1/"
   xmlns:cc="http://creativecommons.org/ns#"
   xmlns:rdf="http://www.w3.org/1999/02/22-rdf-syntax-ns#"
   xmlns:svg="http://www.w3.org/2000/svg"
   xmlns="http://www.w3.org/2000/svg"
   xmlns:sodipodi="http://sodipodi.sourceforge.net/DTD/sodipodi-0.dtd"
   xmlns:inkscape="http://www.inkscape.org/namespaces/inkscape"
   xml:space="preserve"
   width="7.8740005in"
   height="7.8740005in"
   version="1.1"
   style="clip-rule:evenodd;fill-rule:evenodd;image-rendering:optimizeQuality;shape-rendering:geometricPrecision;text-rendering:geometricPrecision"
   viewBox="0 0 7874.0005 7874.0005"
   id="svg3623"
   inkscape:version="0.91 r13725"
   sodipodi:docname="Tohaa - Diplomatic Delegates - [N3] [Vyo].svg"><metadata
     id="metadata3766"><rdf:RDF><cc:Work
         rdf:about=""><dc:format>image/svg+xml</dc:format><dc:type
           rdf:resource="http://purl.org/dc/dcmitype/StillImage" /></cc:Work></rdf:RDF></metadata><sodipodi:namedview
     pagecolor="#ffffff"
     bordercolor="#666666"
     borderopacity="1"
     objecttolerance="10"
     gridtolerance="10"
     guidetolerance="10"
     inkscape:pageopacity="0"
     inkscape:pageshadow="2"
     inkscape:window-width="640"
     inkscape:window-height="480"
     id="namedview3764"
     showgrid="false"
     inkscape:zoom="0.23838384"
     inkscape:cx="736.83001"
     inkscape:cy="849.33005"
     inkscape:window-x="0"
     inkscape:window-y="0"
     inkscape:window-maximized="0"
     inkscape:current-layer="svg3623" /><defs
     id="defs3625"><style
       type="text/css"
       id="style3627"><![CDATA[
    .fil0 {fill:black}
    .fil7 {fill:#3F3F3F}
    .fil6 {fill:#4A523A}
    .fil5 {fill:#546535}
    .fil4 {fill:#5F772F}
    .fil3 {fill:#698A2A}
    .fil2 {fill:#749D25}
    .fil12 {fill:#80E010}
    .fil11 {fill:#99E640}
    .fil10 {fill:#B3EC70}
    .fil9 {fill:#CCF39F}
    .fil8 {fill:#E6F9CF}
    .fil1 {fill:white}
   ]]></style></defs><g
     id="Layer_x0020_1"
     transform="translate(3937,-7063)"><metadata
       id="CorelCorpID_0Corel-Layer" /><circle
       class="fil0"
       cy="11000"
       r="3937"
       id="circle3631"
       cx="0"
       style="fill:#000000" /><circle
       class="fil1"
       cy="11000"
       r="3858"
       id="circle3633"
       cx="0"
       style="fill:#ffffff" /><g
       id="_1138813104"><path
         class="fil2"
         d="m 0,10783 c 51,0 77,13 100,24 24,12 42,20 99,-13 l 0,0 34,-20 0,0 c 255,-147 400,-346 521,-538 l -228,90 c -74,29 -194,-40 -205,-118 L 127,8891 c -16,-104 59,-234 157,-273 l 1238,-490 c 73,-29 193,40 204,118 l 188,1273 c 194,-11 348,-1 381,1 l 0,0 c 65,4 79,-4 94,-13 l 0,0 153,-88 c 15,-9 30,-18 46,-41 17,-26 35,-70 56,-148 30,-110 93,-160 143,-199 25,-19 46,-36 55,-55 15,-30 28,-65 38,-101 9,-36 16,-72 18,-106 2,-32 -7,-69 -26,-110 -20,-41 -50,-86 -90,-131 -271,-305 -588,-560 -935,-758 -351,-201 -734,-343 -1133,-421 l 0,0 c -50,-8 -97,-10 -136,-5 -39,4 -71,15 -95,31 -28,19 -57,42 -83,69 -26,26 -50,54 -69,83 -11,17 -15,43 -19,74 -9,64 -21,143 -101,224 -41,40 -69,74 -92,100 -48,55 -71,83 -119,83 -48,0 -71,-28 -119,-83 -23,-26 -51,-59 -92,-100 -80,-81 -92,-160 -101,-224 -4,-31 -8,-57 -19,-74 -19,-29 -43,-57 -69,-83 -26,-27 -55,-50 -83,-69 -24,-16 -56,-27 -95,-31 -40,-5 -86,-3 -137,5 -398,78 -781,220 -1132,421 -347,198 -664,453 -935,758 -40,45 -70,90 -90,131 -19,41 -28,78 -26,110 2,34 9,70 18,106 10,36 23,71 38,101 l 0,0 c 9,19 30,36 54,55 51,39 114,89 144,199 21,78 39,122 56,148 16,23 31,32 46,41 l 153,88 c 15,9 29,17 94,13 33,-2 187,-12 381,-1 l 188,-1273 c 11,-78 131,-147 204,-118 l 1238,490 c 98,39 173,169 157,273 l -194,1317 c -11,78 -131,147 -205,118 l -228,-90 c 121,192 266,391 521,538 l 34,20 c 58,33 75,25 99,13 23,-11 50,-24 100,-24 z"
         id="path3636"
         inkscape:connector-curvature="0"
         style="fill:#749d25" /><g
         id="g3638"><path
           class="fil3"
           d="m -712,7368 c -395,78 -776,219 -1125,419 -349,199 -663,454 -930,754 -34,38 -65,81 -87,127 -14,30 -26,66 -24,99 2,35 8,70 17,103 9,33 21,67 36,98 0,0 1,0 1,1 9,16 34,35 49,46 30,24 57,47 82,76 33,40 54,84 68,134 11,43 29,104 54,142 11,17 21,25 39,35 l 153,88 c 8,5 13,7 22,9 19,4 42,2 61,1 121,-8 244,-8 365,-2 l 185,-1255 c 7,-49 48,-89 89,-113 41,-24 97,-38 143,-20 l 1237,490 c 106,42 187,181 170,294 l -194,1317 c -8,49 -48,89 -89,113 -41,24 -97,38 -143,20 l -171,-68 c 129,198 268,359 480,481 l 35,20 c 17,10 45,26 66,19 5,-2 10,-4 15,-6 37,-19 66,-26 108,-26 42,0 71,7 108,26 5,2 10,4 15,6 21,7 48,-8 65,-18 1,-1 1,-1 1,-1 l 35,-20 c 0,0 0,0 1,0 212,-123 350,-283 479,-481 l -171,68 c -46,18 -102,4 -143,-20 -41,-24 -81,-64 -89,-113 L 107,8894 c -17,-113 64,-252 170,-294 l 1237,-490 c 46,-18 102,-4 143,20 41,24 82,64 89,113 l 185,1255 c 121,-6 244,-6 365,2 0,0 0,0 0,0 19,1 42,3 61,-1 9,-2 14,-4 22,-9 0,0 1,0 1,0 l 152,-88 c 18,-10 28,-18 39,-35 25,-38 43,-99 54,-142 14,-50 35,-94 68,-134 25,-29 52,-52 82,-76 15,-11 41,-31 50,-47 15,-31 27,-65 36,-98 9,-33 15,-68 17,-103 3,-33 -10,-69 -24,-99 -22,-46 -53,-89 -87,-127 -266,-300 -581,-555 -930,-754 -350,-200 -731,-341 -1126,-419 -43,-7 -88,-10 -131,-5 -29,4 -61,12 -86,28 -28,19 -55,42 -80,66 -24,25 -47,52 -66,81 -11,15 -14,48 -17,66 -5,38 -11,73 -24,109 -18,49 -46,90 -82,126 -32,32 -62,65 -91,99 -37,43 -72,90 -134,90 -62,0 -96,-47 -134,-90 -29,-34 -59,-67 -91,-99 -36,-36 -64,-77 -82,-126 -13,-36 -19,-71 -24,-109 -3,-18 -6,-51 -17,-66 -19,-29 -42,-56 -66,-81 -25,-24 -52,-47 -80,-66 -25,-16 -57,-24 -86,-28 -43,-5 -89,-2 -132,5 z"
           id="path3640"
           inkscape:connector-curvature="0"
           style="fill:#698a2a" /><path
           class="fil4"
           d="m -708,7388 c -393,77 -772,218 -1119,416 -347,198 -660,451 -925,750 -33,37 -63,78 -84,122 -13,27 -25,60 -23,90 2,33 9,67 17,99 9,32 20,64 35,94 0,0 0,1 0,1 7,12 33,31 44,40 31,24 60,48 85,79 35,41 58,89 72,141 11,41 27,100 51,136 10,15 18,20 33,29 l 153,88 c 6,4 9,5 16,7 17,3 39,2 56,1 115,-8 233,-9 349,-3 l 183,-1238 c 8,-55 52,-100 98,-127 47,-27 108,-42 160,-22 l 1237,491 c 115,45 200,193 182,315 l -194,1317 c -8,55 -52,100 -98,127 -47,27 -108,42 -160,22 l -113,-45 c 119,171 249,312 439,422 l 34,20 c 11,6 37,22 51,17 4,-1 8,-3 12,-5 40,-20 72,-28 117,-28 45,0 77,8 117,28 4,2 8,4 12,5 13,5 38,-9 49,-16 1,0 1,-1 2,-1 l 34,-20 c 0,0 1,0 1,-1 190,-110 320,-250 438,-421 l -113,45 c -52,20 -113,5 -160,-22 -46,-27 -90,-72 -98,-127 L 88,8897 c -18,-122 67,-270 182,-315 l 1237,-491 c 52,-20 113,-5 160,22 46,27 90,72 98,127 l 183,1238 c 116,-6 234,-5 349,3 0,0 0,0 0,0 17,1 39,2 56,-1 7,-2 10,-3 16,-7 0,0 1,0 2,-1 l 151,-87 c 15,-9 23,-14 33,-29 24,-36 40,-95 51,-136 14,-52 37,-100 72,-141 25,-31 54,-55 85,-79 11,-9 38,-29 44,-41 15,-30 26,-62 35,-94 8,-32 15,-66 17,-99 2,-30 -10,-63 -23,-90 -21,-44 -51,-85 -84,-122 -265,-299 -578,-552 -925,-750 -347,-199 -726,-339 -1119,-417 -41,-6 -85,-9 -126,-4 -26,3 -55,10 -77,24 -27,19 -53,41 -77,64 -23,24 -46,50 -64,77 -8,12 -11,45 -13,59 -6,39 -12,76 -26,113 -19,51 -48,95 -86,133 -32,31 -61,64 -90,98 -42,48 -79,96 -149,96 -70,0 -107,-47 -149,-96 -29,-34 -58,-67 -90,-98 -38,-38 -67,-82 -86,-133 -14,-37 -20,-74 -26,-113 -2,-14 -5,-47 -13,-59 -19,-27 -41,-53 -64,-77 -24,-23 -50,-45 -77,-64 -22,-14 -52,-21 -77,-24 -42,-5 -85,-2 -126,5 z"
           id="path3642"
           inkscape:connector-curvature="0"
           style="fill:#5f772f" /><path
           class="fil5"
           d="m -705,7407 c -391,77 -767,217 -1113,414 -345,197 -656,449 -920,746 -31,35 -60,75 -81,118 -11,23 -22,54 -20,80 2,32 8,64 16,95 8,31 19,62 34,90 0,0 0,1 0,1 5,8 30,27 38,33 83,66 135,125 164,231 10,38 26,97 48,130 8,12 14,16 26,23 l 154,88 c 15,9 44,6 60,5 111,-7 223,-8 334,-4 l 180,-1219 c 17,-116 176,-208 285,-165 l 1238,490 c 123,49 213,206 194,337 l -195,1317 c -17,115 -176,207 -284,164 l -51,-20 c 107,144 227,265 394,362 l 34,20 c 7,4 27,15 35,16 3,-1 7,-4 10,-5 42,-21 77,-30 125,-30 48,0 83,9 125,30 3,1 7,4 10,5 8,-1 25,-11 33,-15 1,0 1,-1 2,-1 l 34,-20 c 1,0 1,-1 2,-1 166,-96 286,-217 392,-361 l -51,20 c -108,43 -267,-49 -284,-164 L 68,8900 c -19,-131 71,-288 194,-337 l 1238,-490 c 109,-43 268,49 285,165 l 180,1219 c 111,-4 223,-3 334,4 0,0 0,0 0,0 16,1 45,4 60,-5 1,0 1,-1 2,-1 l 152,-87 c 12,-7 18,-11 25,-23 23,-33 39,-92 49,-130 29,-106 80,-165 164,-231 8,-6 34,-26 38,-34 15,-28 26,-59 34,-90 8,-31 14,-63 16,-95 2,-26 -9,-57 -20,-80 -21,-43 -50,-83 -81,-118 -264,-297 -575,-549 -920,-746 -346,-197 -723,-337 -1114,-414 -39,-6 -80,-9 -119,-5 -23,3 -50,9 -69,22 -26,17 -51,39 -74,61 -23,23 -44,48 -62,74 -5,8 -9,41 -10,51 -15,105 -40,179 -118,257 -31,31 -60,63 -88,97 -47,54 -87,103 -164,103 -77,0 -117,-49 -164,-103 -28,-34 -57,-66 -89,-97 -77,-78 -102,-152 -117,-257 -1,-10 -6,-43 -10,-51 -18,-26 -39,-51 -62,-74 -23,-22 -48,-44 -74,-61 -19,-13 -46,-19 -69,-21 -39,-5 -81,-2 -120,4 z"
           id="path3644"
           inkscape:connector-curvature="0"
           style="fill:#546535" /><path
           class="fil6"
           d="m -702,7426 c -388,77 -762,216 -1106,412 -343,196 -653,447 -915,742 -30,34 -58,73 -78,113 -9,20 -20,48 -18,71 2,30 7,61 15,91 8,29 18,58 32,85 6,9 25,23 33,29 87,68 141,130 171,241 9,35 25,93 46,124 6,9 10,11 19,17 l 154,88 c 1,1 2,1 3,2 10,3 36,1 46,0 106,-7 212,-8 318,-4 l 178,-1202 c 19,-129 191,-228 311,-180 l 1238,490 c 132,52 227,217 206,357 l -194,1317 c -18,124 -178,220 -297,185 95,119 203,219 346,302 l 34,20 c 5,3 16,9 23,12 1,-1 2,-1 3,-2 46,-22 83,-31 134,-31 51,0 88,9 134,31 1,1 2,1 3,2 6,-3 15,-8 21,-11 1,0 1,-1 2,-1 l 34,-20 c 1,0 2,-1 2,-1 142,-83 250,-183 344,-301 -119,35 -279,-61 -297,-185 L 49,8902 c -21,-140 74,-305 206,-357 l 1238,-490 c 120,-48 292,51 311,180 l 178,1202 c 106,-4 212,-3 318,4 0,0 0,0 0,0 11,1 36,3 46,0 1,-1 2,-1 3,-2 1,0 2,-1 3,-1 l 151,-87 c 9,-6 13,-8 19,-17 21,-31 37,-89 46,-124 30,-111 84,-173 171,-241 8,-6 27,-21 33,-29 14,-27 24,-56 32,-85 8,-30 13,-61 15,-91 2,-23 -9,-51 -18,-71 -20,-40 -48,-79 -78,-113 -262,-295 -572,-546 -915,-742 -344,-196 -719,-335 -1107,-412 -37,-5 -77,-8 -114,-4 -19,2 -44,7 -60,18 -25,17 -49,38 -71,59 -21,22 -42,45 -58,70 -4,10 -7,34 -8,43 -16,110 -43,188 -124,269 -30,30 -59,62 -87,95 -51,59 -95,111 -179,111 -84,0 -128,-51 -179,-111 -28,-33 -57,-65 -87,-95 -81,-81 -108,-159 -124,-269 -1,-9 -4,-33 -8,-43 -16,-25 -37,-48 -58,-70 -22,-21 -46,-42 -71,-59 -16,-11 -41,-16 -60,-18 -37,-4 -77,-1 -115,4 z"
           id="path3646"
           inkscape:connector-curvature="0"
           style="fill:#4a523a" /><path
           class="fil7"
           d="m -698,7446 c -386,76 -758,214 -1100,409 -341,195 -649,444 -910,738 -29,33 -56,70 -75,109 -8,16 -18,42 -17,60 2,30 8,59 15,88 7,27 17,54 29,79 7,8 22,18 29,24 91,71 147,137 178,251 9,34 24,91 43,119 4,6 7,7 13,10 l 154,89 c 10,1 28,0 38,0 100,-7 202,-8 302,-5 l 175,-1185 c 21,-141 206,-248 339,-195 l 1237,490 c 140,55 241,229 219,378 l -195,1317 c -17,118 -148,211 -268,209 85,100 183,186 308,258 l 34,20 c 3,2 8,5 13,7 46,-21 85,-31 137,-31 52,0 91,10 137,31 4,-2 8,-4 11,-6 0,0 1,-1 2,-1 l 34,-20 c 1,0 2,-1 3,-1 123,-72 220,-158 305,-257 -120,2 -251,-91 -268,-209 L 29,8905 C 7,8756 108,8582 248,8527 l 1237,-490 c 133,-53 318,54 339,195 l 175,1185 c 100,-3 202,-2 302,5 0,0 0,0 1,0 9,0 27,1 37,0 1,0 2,-1 3,-1 l 151,-87 c 6,-4 9,-5 13,-11 19,-29 34,-85 43,-119 31,-114 87,-180 178,-251 7,-6 22,-16 29,-24 12,-25 22,-52 29,-79 7,-29 13,-58 15,-88 1,-18 -9,-44 -17,-60 -19,-39 -46,-76 -75,-109 -261,-294 -569,-543 -910,-738 -342,-195 -714,-333 -1101,-409 -35,-6 -73,-9 -108,-4 -15,1 -38,6 -51,14 -24,17 -47,36 -68,57 -20,20 -39,42 -55,65 -3,10 -5,28 -6,37 -16,114 -45,196 -129,280 -30,30 -58,62 -86,94 -56,64 -103,117 -194,117 -91,0 -138,-53 -193,-117 -29,-32 -57,-64 -87,-94 -84,-84 -113,-166 -129,-280 -1,-9 -3,-27 -6,-37 -16,-23 -35,-45 -55,-65 -21,-21 -44,-40 -68,-56 -13,-9 -36,-14 -51,-15 -36,-5 -74,-2 -109,4 z"
           id="path3648"
           inkscape:connector-curvature="0"
           style="fill:#3f3f3f" /></g><path
         class="fil1"
         d="m -1060,9911 c -39,-15 -69,-67 -63,-108 l 77,-521 c 5,-31 52,-58 81,-47 l 490,194 c 39,16 68,67 62,108 l -77,522 c -4,30 -52,58 -81,46 l -489,-194 z"
         id="path3650"
         inkscape:connector-curvature="0"
         style="fill:#ffffff" /><g
         id="g3652"><path
           class="fil8"
           d="m -1053,9893 490,194 c 17,7 51,-13 54,-31 l 77,-522 c 5,-32 -20,-74 -50,-86 l -490,-194 c -17,-7 -52,13 -54,31 l -77,521 c -5,32 20,75 50,87 z"
           id="path3654"
           inkscape:connector-curvature="0"
           style="fill:#e6f9cf" /><path
           class="fil9"
           d="m -1046,9875 489,194 c 8,1 26,-10 28,-16 l 77,-521 c 4,-23 -16,-58 -37,-66 l -490,-194 c -7,-1 -26,9 -28,16 l -77,521 c -3,23 16,57 38,66 z"
           id="path3656"
           inkscape:connector-curvature="0"
           style="fill:#ccf39f" /><path
           class="fil10"
           d="m -554,10048 c 2,-1 5,-2 7,-4 l 76,-515 c 2,-14 -13,-40 -26,-45 l -484,-192 c -3,1 -5,3 -7,4 l -76,516 c -2,14 12,39 25,44 l 485,192 z"
           id="path3658"
           inkscape:connector-curvature="0"
           style="fill:#b3ec70" /><path
           class="fil11"
           d="m -564,10023 73,-497 c 1,-6 -8,-21 -13,-24 l -467,-185 -74,497 c 0,7 8,21 14,24 l 467,185 z"
           id="path3660"
           inkscape:connector-curvature="0"
           style="fill:#99e640" /><path
           class="fil12"
           d="m -1021,9821 441,175 69,-469 c 0,-3 -2,-6 -4,-8 l -441,-174 -69,469 c 1,2 3,5 4,7 z"
           id="path3662"
           inkscape:connector-curvature="0"
           style="fill:#80e010" /></g><path
         class="fil1"
         d="m 413,9537 c -6,-41 23,-92 62,-108 l 490,-194 c 29,-11 76,16 81,47 l 77,521 c 6,41 -24,93 -63,108 l -489,194 c -29,12 -77,-16 -81,-46 l -77,-522 z"
         id="path3664"
         inkscape:connector-curvature="0"
         style="fill:#ffffff" /><g
         id="g3666"><path
           class="fil8"
           d="m 432,9534 77,522 c 3,18 37,38 54,31 l 490,-194 c 30,-12 55,-55 50,-87 l -77,-521 c -2,-18 -37,-38 -54,-31 l -490,194 c -30,12 -55,54 -50,86 z"
           id="path3668"
           inkscape:connector-curvature="0"
           style="fill:#e6f9cf" /><path
           class="fil9"
           d="m 452,9532 76,520 c 3,7 21,18 28,17 l 490,-194 c 22,-9 41,-43 38,-66 l -77,-521 c -2,-7 -21,-17 -28,-16 l -490,194 c -21,8 -41,43 -37,66 z"
           id="path3670"
           inkscape:connector-curvature="0"
           style="fill:#ccf39f" /><path
           class="fil10"
           d="m 547,10044 c 2,2 5,3 7,4 l 485,-192 c 13,-5 27,-30 25,-44 l -76,-516 c -2,-1 -4,-3 -7,-4 l -484,192 c -13,5 -28,31 -26,45 l 76,515 z"
           id="path3672"
           inkscape:connector-curvature="0"
           style="fill:#b3ec70" /><path
           class="fil11"
           d="m 564,10023 467,-185 c 6,-3 14,-17 14,-23 l -74,-498 -467,185 c -5,3 -14,18 -13,24 l 73,497 z"
           id="path3674"
           inkscape:connector-curvature="0"
           style="fill:#99e640" /><path
           class="fil12"
           d="m 511,9527 69,469 441,-175 c 1,-2 3,-5 4,-7 l -69,-469 -441,174 c -2,2 -4,5 -4,8 z"
           id="path3676"
           inkscape:connector-curvature="0"
           style="fill:#80e010" /></g></g><g
       id="_783307936"><path
         class="fil2"
         d="m -187,11108 c -26,-43 -28,-73 -30,-98 -2,-27 -3,-46 -61,-80 l 0,0 -34,-19 0,0 c -255,-147 -500,-173 -727,-182 l 193,153 c 61,49 61,187 0,236 l -1044,827 c -82,65 -232,65 -315,0 l -1043,-827 c -62,-49 -62,-187 0,-236 l 1008,-799 c -106,-162 -175,-301 -189,-330 l 0,0 c -29,-59 -44,-67 -58,-75 l 0,0 -153,-89 c -15,-9 -30,-17 -59,-19 -31,-2 -78,4 -156,25 -110,30 -185,-1 -244,-24 -29,-12 -54,-22 -75,-21 -34,2 -70,9 -106,18 -36,10 -71,23 -101,38 -29,14 -57,41 -82,77 -26,38 -49,87 -69,144 -129,387 -191,789 -189,1189 2,404 70,807 202,1191 l 0,0 c 18,48 40,89 64,121 23,31 48,53 74,66 30,15 65,28 101,38 36,9 72,16 106,18 21,1 46,-9 75,-21 59,-23 134,-53 244,-24 55,15 98,23 133,30 71,13 107,20 131,61 24,41 12,76 -13,144 -11,33 -25,75 -40,130 -30,110 -93,160 -143,199 -25,19 -46,36 -55,55 -15,30 -28,65 -38,101 -9,36 -16,72 -18,106 -2,29 5,62 21,97 15,37 40,77 73,117 266,306 581,566 930,770 345,201 725,348 1124,430 59,12 113,16 159,12 44,-3 81,-14 108,-32 28,-19 57,-42 83,-69 26,-26 50,-54 69,-83 l 0,0 c 11,-17 15,-43 19,-74 9,-64 21,-143 101,-224 58,-57 86,-95 100,-123 13,-25 13,-42 13,-60 l 0,-177 c 0,-17 0,-33 -36,-88 -19,-27 -104,-155 -191,-329 l -1197,474 c -73,29 -193,-40 -204,-118 l -195,-1317 c -15,-104 60,-234 158,-273 l 1237,-490 c 74,-29 194,40 205,118 l 36,243 c 106,-201 206,-426 206,-720 l 0,-39 c 0,-67 -16,-78 -38,-93 -21,-14 -45,-31 -70,-75 z"
         id="path3679"
         inkscape:connector-curvature="0"
         style="fill:#749d25" /><g
         id="g3681"><path
           class="fil3"
           d="m -2789,13432 c 264,304 577,563 925,766 347,202 725,347 1118,428 50,10 103,16 153,12 33,-3 71,-10 99,-29 28,-19 55,-42 80,-66 24,-25 47,-52 66,-81 0,0 1,0 1,0 10,-16 13,-48 16,-66 5,-38 11,-73 24,-109 18,-49 46,-90 82,-126 32,-32 76,-77 96,-118 10,-18 11,-31 11,-51 l 0,-177 c 0,-9 -1,-15 -4,-23 -6,-18 -18,-38 -29,-54 -67,-100 -129,-207 -184,-315 l -1179,467 c -46,18 -102,4 -143,-20 -41,-24 -82,-64 -89,-113 l -194,-1317 c -17,-113 63,-252 170,-294 l 1237,-490 c 46,-18 102,-4 143,20 41,24 81,64 89,113 l 26,183 c 107,-211 177,-412 177,-657 l 0,-39 c 0,-21 0,-53 -17,-67 -4,-4 -9,-7 -13,-10 -35,-23 -55,-44 -77,-81 -21,-37 -28,-65 -31,-106 -1,-6 -1,-11 -2,-17 -5,-21 -31,-37 -49,-47 0,0 0,0 -1,-1 l -34,-19 c 0,0 -1,-1 -1,-1 -212,-122 -420,-162 -656,-175 l 145,114 c 38,31 53,87 53,134 0,47 -15,103 -53,134 l -1044,826 c -89,71 -250,71 -339,0 l -1043,-826 c -39,-31 -54,-86 -54,-134 0,-47 15,-103 54,-134 l 994,-788 c -66,-101 -127,-208 -181,-317 0,0 0,0 0,0 -8,-16 -19,-37 -31,-52 -6,-6 -11,-10 -19,-14 0,0 -1,-1 -1,-1 l -152,-88 c -18,-10 -29,-15 -50,-16 -45,-3 -107,12 -150,24 -49,13 -99,17 -150,8 -37,-6 -71,-19 -106,-33 -18,-7 -48,-20 -66,-19 -35,2 -70,8 -103,17 -33,9 -67,21 -98,37 -30,14 -55,43 -74,70 -29,42 -50,91 -66,139 -127,381 -190,781 -188,1183 2,402 70,803 200,1184 16,40 36,81 62,116 17,24 40,47 66,60 31,16 65,28 98,37 33,9 68,15 103,17 18,1 48,-12 66,-19 35,-14 69,-27 106,-33 51,-9 101,-5 150,8 44,12 87,21 131,29 56,11 114,17 145,71 31,54 8,107 -11,161 -15,42 -29,85 -40,128 -14,50 -35,94 -68,134 -25,29 -52,52 -82,76 -15,11 -41,31 -50,47 -15,31 -27,65 -36,98 -9,33 -15,68 -17,103 -2,29 7,61 19,88 17,40 42,78 70,111 z"
           id="path3683"
           inkscape:connector-curvature="0"
           style="fill:#698a2a" /><path
           class="fil4"
           d="m -2774,13420 c 263,301 574,559 920,761 345,201 721,345 1112,425 48,10 99,16 148,12 29,-2 64,-9 89,-25 27,-19 53,-41 77,-64 23,-24 45,-50 64,-78 0,0 0,0 0,0 8,-13 11,-44 13,-58 6,-39 12,-76 26,-113 19,-51 48,-95 86,-133 30,-30 74,-74 93,-112 8,-16 8,-26 8,-43 l 0,-177 c 0,-7 0,-10 -2,-17 -6,-16 -18,-35 -27,-49 -65,-96 -124,-198 -177,-301 l -1163,461 c -52,20 -113,5 -160,-22 -46,-27 -90,-72 -98,-127 l -195,-1317 c -18,-122 68,-270 182,-315 l 1238,-491 c 52,-20 113,-5 160,22 46,27 90,72 98,127 l 18,120 c 89,-188 146,-371 146,-591 l 0,-39 c 0,-12 0,-43 -10,-53 -3,-3 -8,-5 -11,-8 -37,-25 -60,-48 -83,-87 -22,-39 -31,-71 -34,-115 0,-4 -1,-9 -2,-14 -2,-13 -27,-27 -38,-34 -1,0 -1,0 -2,-1 l -34,-19 c 0,-1 -1,-1 -1,-1 -190,-110 -377,-152 -584,-168 l 95,75 c 44,35 61,95 61,149 0,54 -17,114 -61,149 l -1043,827 c -97,76 -268,76 -364,0 l -1043,-827 c -44,-35 -62,-95 -62,-149 0,-54 18,-114 62,-149 l 980,-777 c -63,-98 -121,-200 -173,-304 0,0 0,0 0,0 -7,-15 -17,-35 -28,-48 -5,-5 -8,-7 -14,-10 0,0 -1,-1 -1,-1 l -152,-88 c -15,-8 -23,-13 -41,-14 -43,-2 -103,13 -144,24 -52,14 -104,18 -158,9 -39,-7 -74,-20 -111,-35 -13,-5 -43,-18 -57,-17 -33,2 -67,8 -99,16 -32,9 -64,20 -94,35 -27,13 -50,40 -67,65 -27,40 -48,87 -63,133 -127,379 -190,777 -188,1176 2,401 70,799 200,1178 15,39 34,78 58,111 16,21 36,43 60,55 30,15 62,26 94,35 32,8 66,14 99,16 14,1 44,-12 57,-17 37,-15 72,-28 111,-35 54,-9 106,-5 158,9 43,12 86,21 130,29 63,12 123,20 158,80 35,61 12,117 -9,177 -15,43 -29,84 -40,127 -14,52 -37,100 -72,141 -25,31 -54,55 -85,79 -11,9 -38,29 -44,41 -15,30 -26,62 -35,94 -8,32 -15,66 -17,99 -1,26 7,55 18,79 16,38 41,74 67,107 z"
           id="path3685"
           inkscape:connector-curvature="0"
           style="fill:#5f772f" /><path
           class="fil5"
           d="m -2759,13407 c 262,300 571,556 915,757 343,200 717,343 1106,423 46,9 95,15 142,12 26,-2 58,-8 80,-23 26,-17 51,-39 74,-61 23,-23 44,-48 62,-74 0,-1 0,-1 0,-1 5,-9 9,-40 10,-50 15,-105 40,-179 117,-257 28,-28 71,-71 89,-107 7,-13 7,-20 7,-34 l 0,-177 c 0,-18 -17,-41 -27,-55 -61,-92 -118,-189 -170,-287 l -1146,454 c -109,43 -268,-49 -285,-165 l -194,-1316 c -19,-131 71,-288 194,-337 l 1238,-490 c 108,-43 267,49 284,164 l 8,54 c 72,-164 117,-329 117,-522 l 0,-39 c 0,-8 0,-31 -4,-38 -2,-2 -6,-5 -8,-6 -40,-27 -65,-52 -89,-94 -24,-42 -33,-76 -37,-124 0,-2 0,-7 -1,-10 -4,-7 -21,-17 -29,-22 0,0 -1,0 -2,0 l -34,-20 c 0,-1 -1,-1 -2,-1 -166,-96 -331,-139 -509,-159 l 43,34 c 92,72 92,256 0,328 l -1043,827 c -104,82 -285,82 -388,0 l -1044,-827 c -91,-72 -91,-256 0,-328 l 967,-766 c -60,-94 -115,-192 -164,-291 0,0 0,0 0,0 -8,-15 -19,-41 -35,-50 0,-1 -1,-1 -1,-1 l -152,-88 c -12,-7 -18,-10 -32,-11 -41,-2 -99,13 -138,23 -106,28 -183,13 -281,-27 -9,-3 -40,-16 -49,-16 -32,2 -64,8 -95,16 -31,9 -62,20 -90,34 -24,12 -45,37 -59,58 -27,38 -47,84 -61,129 -126,377 -189,772 -187,1169 2,399 69,795 198,1172 14,36 33,74 56,106 14,18 32,38 53,48 28,14 59,25 90,34 31,8 63,14 95,16 9,0 40,-13 49,-16 98,-40 175,-55 281,-27 43,11 85,20 129,28 70,14 132,24 171,91 39,67 16,126 -8,193 -14,42 -28,83 -39,125 -29,106 -81,165 -164,231 -8,6 -34,26 -38,34 -15,28 -26,59 -34,90 -8,31 -14,63 -16,95 -2,23 7,49 16,70 15,36 39,71 64,102 z"
           id="path3687"
           inkscape:connector-curvature="0"
           style="fill:#546535" /><path
           class="fil6"
           d="m -2744,13394 c 260,298 568,553 910,753 341,199 713,342 1100,421 44,9 92,15 137,11 22,-2 51,-7 70,-19 25,-17 49,-38 71,-59 21,-22 42,-45 58,-70 4,-10 7,-34 8,-43 16,-110 43,-188 124,-269 26,-26 68,-68 85,-102 4,-10 4,-14 4,-25 l 0,-177 c 0,-1 0,-2 0,-4 -3,-10 -17,-32 -23,-40 -59,-88 -113,-180 -163,-273 l -1130,447 c -120,48 -292,-51 -311,-180 l -195,-1317 c -20,-140 75,-305 207,-357 l 1237,-490 c 116,-46 279,44 309,164 55,-141 89,-285 89,-450 l 0,-39 c 0,-6 -1,-18 -2,-27 -1,0 -2,-1 -2,-1 -42,-29 -69,-56 -95,-100 -25,-45 -36,-82 -39,-132 0,-1 0,-2 -1,-3 -5,-5 -14,-10 -19,-13 -1,-1 -2,-1 -2,-1 l -34,-20 c -1,-1 -2,-1 -3,-1 -142,-82 -283,-125 -432,-148 90,86 86,273 -12,350 l -1043,827 c -111,88 -302,88 -413,0 l -1043,-827 c -102,-81 -102,-279 0,-360 l 953,-755 c -57,-90 -109,-183 -156,-277 0,0 0,-1 0,-1 -5,-9 -16,-32 -23,-39 -1,-1 -2,-2 -3,-2 -1,-1 -2,-1 -3,-1 l -151,-88 c -9,-5 -13,-8 -24,-8 -37,-3 -95,12 -131,22 -110,30 -191,14 -293,-27 -10,-4 -32,-14 -42,-15 -30,2 -61,8 -90,15 -29,8 -59,19 -86,33 -21,9 -40,33 -52,51 -26,37 -45,81 -59,124 -125,375 -187,768 -185,1163 2,396 68,790 197,1165 13,35 31,71 53,101 11,15 28,34 46,43 27,13 57,24 86,32 29,7 60,13 90,15 10,-1 32,-11 42,-15 102,-41 183,-57 293,-27 42,11 84,20 127,28 77,15 143,27 185,100 42,73 20,136 -6,209 -15,42 -28,82 -39,124 -30,111 -84,173 -171,241 -8,6 -27,21 -33,29 -14,27 -24,56 -32,85 -8,30 -13,61 -15,91 -2,20 6,44 14,61 15,35 37,68 61,97 z"
           id="path3689"
           inkscape:connector-curvature="0"
           style="fill:#4a523a" /><path
           class="fil7"
           d="m -2729,13382 c 259,296 565,549 905,748 339,198 709,340 1094,419 42,8 88,14 131,10 18,-1 46,-5 61,-16 24,-16 47,-35 68,-56 20,-20 39,-42 55,-65 3,-10 5,-28 6,-37 16,-114 45,-196 129,-280 24,-24 65,-66 81,-97 3,-6 2,-9 2,-16 l 0,-177 c -4,-10 -14,-25 -19,-33 -56,-84 -108,-171 -156,-260 l -1113,441 c -133,53 -318,-54 -339,-195 l -194,-1317 c -22,-149 78,-323 219,-378 l 1237,-491 c 110,-43 257,24 315,129 44,-124 70,-252 70,-396 l 0,-39 c 0,-4 0,-10 0,-15 -42,-29 -70,-58 -96,-103 -26,-46 -37,-84 -41,-135 -4,-2 -8,-4 -11,-6 -1,0 -1,-1 -2,-1 l -34,-20 c -1,-1 -2,-1 -3,-2 -124,-71 -247,-112 -375,-136 62,103 47,264 -46,337 l -1044,827 c -118,94 -319,94 -437,0 l -1043,-827 c -112,-88 -112,-302 0,-390 l 939,-744 c -53,-86 -103,-175 -147,-265 -1,0 -1,0 -1,0 -4,-9 -12,-25 -18,-33 -1,-1 -2,-1 -3,-2 l -151,-87 c -6,-3 -8,-5 -15,-6 -35,-2 -91,13 -125,22 -114,31 -199,15 -306,-28 -9,-4 -25,-11 -35,-13 -28,2 -57,7 -84,14 -28,8 -56,18 -83,31 -16,8 -34,30 -44,45 -24,36 -43,78 -56,119 -124,373 -187,764 -185,1157 2,394 69,786 196,1158 13,33 30,68 51,96 9,12 24,30 38,37 27,13 55,23 83,31 27,7 56,12 84,14 10,-2 26,-9 35,-13 107,-43 192,-59 306,-28 42,11 84,20 126,28 83,16 152,30 198,109 46,79 23,146 -5,226 -14,41 -27,81 -38,123 -31,114 -87,180 -178,251 -7,6 -22,16 -29,24 -12,25 -22,52 -29,79 -7,29 -13,58 -15,88 -1,16 7,37 13,51 14,33 36,65 58,93 z"
           id="path3691"
           inkscape:connector-curvature="0"
           style="fill:#3f3f3f" /></g><path
         class="fil1"
         d="m -413,12463 c 6,41 -23,92 -62,108 l -490,194 c -29,11 -76,-16 -81,-47 l -77,-521 c -6,-41 24,-93 63,-108 l 489,-194 c 29,-12 77,16 81,46 l 77,522 z"
         id="path3693"
         inkscape:connector-curvature="0"
         style="fill:#ffffff" /><g
         id="g3695"><path
           class="fil8"
           d="m -432,12466 -77,-522 c -3,-18 -37,-38 -54,-31 l -490,194 c -30,12 -55,55 -50,87 l 77,521 c 2,18 37,38 54,31 l 490,-194 c 30,-12 55,-54 50,-86 z"
           id="path3697"
           inkscape:connector-curvature="0"
           style="fill:#e6f9cf" /><path
           class="fil9"
           d="m -452,12468 -76,-520 c -3,-7 -21,-18 -28,-17 l -490,194 c -22,9 -41,43 -38,66 l 77,521 c 2,7 21,17 28,16 l 490,-194 c 21,-8 41,-43 37,-66 z"
           id="path3699"
           inkscape:connector-curvature="0"
           style="fill:#ccf39f" /><path
           class="fil10"
           d="m -547,11956 c -2,-2 -5,-3 -7,-4 l -485,192 c -13,5 -27,30 -25,44 l 76,516 c 2,1 4,3 7,4 l 484,-192 c 13,-5 28,-31 26,-45 l -76,-515 z"
           id="path3701"
           inkscape:connector-curvature="0"
           style="fill:#b3ec70" /><path
           class="fil11"
           d="m -564,11977 -467,185 c -6,3 -14,17 -14,23 l 74,498 467,-185 c 5,-3 14,-18 13,-24 l -73,-497 z"
           id="path3703"
           inkscape:connector-curvature="0"
           style="fill:#99e640" /><path
           class="fil12"
           d="m -511,12473 -69,-469 -441,175 c -1,2 -3,5 -4,7 l 69,469 441,-174 c 2,-2 4,-5 4,-8 z"
           id="path3705"
           inkscape:connector-curvature="0"
           style="fill:#80e010" /></g><path
         class="fil1"
         d="m -1473,11374 c -33,26 -92,26 -125,0 l -413,-327 c -24,-20 -24,-74 0,-94 l 413,-327 c 33,-26 92,-26 125,0 l 413,327 c 24,20 24,74 0,94 l -413,327 z"
         id="path3707"
         inkscape:connector-curvature="0"
         style="fill:#ffffff" /><g
         id="g3709"><path
           class="fil8"
           d="m -1485,11359 413,-328 c 14,-11 14,-51 0,-62 l -413,-328 c -26,-20 -75,-20 -101,0 l -413,328 c -14,11 -14,51 0,62 l 413,328 c 26,20 75,20 101,0 z"
           id="path3711"
           inkscape:connector-curvature="0"
           style="fill:#e6f9cf" /><path
           class="fil9"
           d="m -1498,11343 413,-327 c 5,-5 5,-27 0,-32 l -413,-327 c -18,-15 -57,-15 -75,0 l -413,327 c -5,5 -5,27 0,32 l 413,327 c 18,15 57,15 75,0 z"
           id="path3713"
           inkscape:connector-curvature="0"
           style="fill:#ccf39f" /><path
           class="fil10"
           d="m -1101,11004 c 0,-2 0,-6 0,-8 l -409,-324 c -11,-8 -40,-8 -51,0 l -409,324 c 0,2 0,6 0,8 l 409,324 c 11,8 40,8 51,0 l 409,-324 z"
           id="path3715"
           inkscape:connector-curvature="0"
           style="fill:#b3ec70" /><path
           class="fil11"
           d="m -1128,11000 -394,-312 c -5,-3 -22,-3 -27,0 l -394,312 394,312 c 5,3 22,3 27,0 l 394,-312 z"
           id="path3717"
           inkscape:connector-curvature="0"
           style="fill:#99e640" /><path
           class="fil12"
           d="m -1531,11295 371,-295 -371,-295 c -3,0 -6,0 -9,0 l -371,295 371,295 c 3,0 6,0 9,0 z"
           id="path3719"
           inkscape:connector-curvature="0"
           style="fill:#80e010" /></g></g><g
       id="_783314048"><path
         class="fil2"
         d="m 188,11108 c -26,44 -50,61 -71,75 -23,15 -38,26 -38,93 l 0,0 0,39 0,0 c 0,294 100,519 206,720 l 36,-243 c 11,-78 131,-147 205,-118 l 1237,490 c 98,39 173,169 158,273 l -195,1317 c -11,78 -131,147 -204,118 L 325,13398 c -87,174 -172,302 -191,329 l 0,0 c -36,55 -36,71 -36,88 l 0,0 0,177 c 0,17 0,35 13,60 14,28 42,66 100,123 80,81 92,160 101,224 4,31 8,57 19,74 19,29 43,57 69,83 26,27 55,50 83,69 27,18 64,29 108,32 46,4 100,0 159,-12 400,-82 779,-229 1124,-430 349,-204 664,-464 931,-771 l 0,0 c 32,-40 57,-79 72,-116 16,-35 23,-68 21,-97 -2,-34 -8,-70 -18,-106 -10,-36 -22,-71 -38,-101 -9,-19 -30,-36 -55,-55 -50,-39 -113,-89 -143,-199 -14,-55 -29,-97 -40,-130 -24,-68 -37,-103 -13,-144 24,-41 60,-48 131,-62 35,-6 78,-14 133,-29 110,-30 185,1 244,24 29,12 54,22 75,21 34,-2 70,-9 106,-18 36,-10 71,-23 101,-38 26,-13 51,-35 74,-66 24,-33 46,-74 65,-122 131,-384 199,-786 201,-1190 2,-400 -60,-802 -189,-1189 -19,-57 -43,-106 -69,-144 -25,-36 -53,-63 -82,-77 -30,-15 -65,-28 -101,-38 -36,-9 -72,-16 -106,-18 l 0,0 c -21,-1 -46,9 -75,21 -59,23 -134,54 -244,24 -78,-21 -125,-27 -156,-25 -28,2 -43,10 -59,19 l -153,89 c -14,8 -29,16 -58,75 -14,29 -83,168 -189,330 l 1008,799 c 62,49 62,187 0,236 l -1043,827 c -83,65 -233,65 -315,0 L 846,11118 c -61,-49 -61,-187 0,-236 l 193,-153 c -227,9 -472,35 -727,182 l -34,19 c -58,34 -59,53 -61,80 -2,25 -4,55 -29,98 z"
         id="path3722"
         inkscape:connector-curvature="0"
         style="fill:#749d25" /><g
         id="g3724"><path
           class="fil3"
           d="m 3501,12199 c 130,-380 198,-781 200,-1183 2,-402 -61,-802 -188,-1183 -16,-48 -37,-97 -66,-139 -19,-27 -44,-56 -74,-70 -31,-16 -65,-28 -98,-37 -33,-9 -68,-15 -103,-17 0,0 0,0 -1,0 -18,-1 -48,12 -64,19 -36,14 -70,27 -107,33 -51,9 -101,5 -150,-8 -43,-12 -105,-27 -150,-24 -21,1 -32,6 -50,16 l -153,89 c -8,4 -13,8 -19,14 -12,15 -23,36 -31,52 -54,109 -115,216 -181,317 l 994,788 c 39,31 54,87 54,134 0,47 -15,103 -54,134 l -1043,826 c -89,71 -250,71 -339,0 L 834,11134 c -38,-31 -54,-87 -54,-134 0,-47 16,-103 54,-134 l 145,-114 c -236,13 -444,53 -657,176 l -34,19 c -18,11 -45,27 -50,48 -1,6 -1,11 -2,17 -3,41 -10,69 -31,106 -22,37 -42,58 -77,81 -4,3 -9,6 -13,10 -16,14 -17,45 -17,65 0,1 0,1 0,2 l 0,39 c 0,0 0,1 0,1 1,245 70,445 177,656 l 26,-183 c 8,-49 48,-89 89,-113 41,-24 97,-38 143,-20 l 1237,490 c 107,42 187,181 170,294 l -194,1317 c -7,49 -48,89 -89,113 -41,24 -97,38 -143,20 L 335,13423 c -55,108 -117,214 -184,315 0,0 0,0 0,0 -11,16 -23,36 -29,54 -3,8 -4,14 -4,23 0,0 0,1 0,1 l 0,176 c 0,20 1,33 11,51 20,41 64,86 96,118 36,36 64,77 82,126 13,36 19,71 24,109 3,18 6,51 17,66 19,29 42,56 66,81 25,24 52,47 80,66 28,19 66,26 99,29 50,4 103,-2 153,-12 393,-81 771,-226 1118,-428 348,-204 661,-463 926,-766 27,-34 52,-72 69,-111 12,-27 21,-59 19,-88 -2,-35 -8,-70 -17,-103 -9,-33 -21,-67 -36,-98 -9,-16 -35,-36 -50,-47 -30,-24 -57,-47 -82,-76 -33,-40 -54,-84 -68,-134 -11,-43 -25,-85 -40,-128 -19,-54 -42,-107 -11,-161 31,-54 88,-60 145,-71 44,-8 87,-17 131,-29 49,-13 99,-17 150,-8 37,6 71,19 106,33 18,7 48,20 66,19 35,-2 70,-8 103,-17 33,-9 67,-21 98,-37 26,-13 49,-37 66,-60 26,-35 46,-76 62,-117 z"
           id="path3726"
           inkscape:connector-curvature="0"
           style="fill:#698a2a" /><path
           class="fil4"
           d="m 3483,12193 c 129,-379 197,-777 199,-1177 2,-400 -61,-798 -188,-1177 -15,-46 -36,-93 -63,-133 -17,-25 -40,-51 -67,-65 -30,-15 -62,-26 -94,-35 -32,-8 -66,-14 -99,-16 0,0 -1,0 -1,-1 -14,0 -43,13 -56,18 -37,15 -72,28 -111,35 -54,9 -106,5 -158,-9 -41,-11 -101,-26 -144,-24 -17,1 -26,6 -41,14 l -153,89 c -6,3 -9,5 -14,10 -11,13 -21,33 -28,48 -52,104 -110,206 -173,304 l 980,777 c 44,35 62,95 62,149 0,54 -18,114 -62,149 l -1043,827 c -96,76 -267,76 -364,0 L 822,11149 c -44,-35 -61,-95 -61,-149 0,-54 17,-114 61,-149 l 95,-75 c -207,17 -395,59 -585,169 l -34,19 c -11,7 -38,22 -41,35 0,5 -1,10 -1,14 -3,44 -12,76 -34,115 -23,39 -46,62 -83,87 -3,3 -8,5 -11,8 -10,9 -10,38 -10,51 0,0 0,1 0,2 l 0,39 c 0,1 0,1 0,2 0,219 57,402 146,589 l 18,-120 c 8,-55 52,-100 98,-127 47,-27 108,-42 160,-22 l 1238,491 c 114,45 200,193 182,315 l -195,1317 c -8,55 -52,100 -98,127 -47,27 -108,42 -160,22 L 344,13448 c -53,103 -112,205 -177,301 0,0 0,0 0,0 -9,14 -21,33 -27,49 -2,7 -2,10 -2,17 0,1 0,1 0,2 l 0,175 c 0,17 0,27 8,43 19,38 63,82 93,112 38,38 67,82 86,133 14,37 20,74 26,113 2,14 5,47 13,59 19,27 41,53 64,77 24,23 50,45 77,64 25,16 60,23 89,25 49,4 100,-2 148,-12 391,-80 767,-224 1112,-425 346,-202 657,-460 921,-762 26,-32 50,-68 66,-106 11,-24 19,-53 18,-79 -2,-33 -9,-67 -17,-99 -9,-32 -20,-64 -35,-94 -6,-12 -33,-32 -44,-41 -31,-24 -60,-48 -85,-79 -35,-41 -58,-89 -72,-141 -11,-43 -25,-84 -40,-127 -21,-60 -44,-116 -9,-177 35,-60 95,-68 158,-80 44,-8 87,-17 130,-29 52,-14 104,-18 158,-9 39,7 74,20 111,35 13,5 43,18 57,17 33,-2 67,-8 99,-16 32,-9 64,-20 94,-35 23,-12 44,-34 60,-55 24,-33 44,-73 59,-111 z"
           id="path3728"
           inkscape:connector-curvature="0"
           style="fill:#5f772f" /><path
           class="fil5"
           d="m 3464,12186 c 129,-377 196,-773 198,-1171 2,-397 -61,-792 -186,-1169 -15,-45 -35,-91 -62,-129 -14,-22 -35,-46 -59,-58 -28,-14 -59,-25 -90,-34 -31,-8 -63,-14 -95,-16 0,0 -1,0 -1,0 -10,0 -39,13 -48,16 -98,40 -175,55 -281,27 -38,-10 -98,-25 -138,-23 -14,1 -20,4 -32,11 l -153,89 c -16,9 -27,35 -35,50 -49,99 -104,197 -164,291 l 967,766 c 91,72 91,256 0,328 l -1044,827 c -103,82 -284,82 -388,0 L 810,11164 c -92,-72 -92,-256 0,-328 l 42,-34 c -178,20 -343,63 -510,160 l -34,20 c -7,3 -26,15 -31,22 -1,3 -1,8 -1,10 -4,48 -13,82 -37,124 -24,42 -49,67 -89,94 -2,1 -6,4 -9,6 -3,7 -3,27 -3,36 0,0 0,1 0,2 l 0,39 c 0,1 0,1 0,2 0,193 45,356 117,520 l 8,-54 c 17,-115 176,-207 284,-164 l 1238,490 c 123,49 213,206 194,337 l -194,1316 c -17,116 -176,208 -285,165 L 353,13473 c -51,98 -108,195 -169,287 0,0 0,0 0,0 -10,14 -27,37 -27,55 0,1 0,1 0,2 l 0,175 c 0,14 0,21 7,34 18,36 60,79 89,107 77,78 102,152 117,257 1,10 6,43 10,51 18,26 39,51 62,74 23,22 48,44 74,61 22,15 54,21 80,23 47,3 96,-3 142,-12 389,-80 763,-223 1106,-423 344,-201 654,-457 916,-758 24,-30 48,-65 63,-101 9,-21 18,-47 16,-70 -2,-32 -8,-64 -16,-95 -8,-31 -19,-62 -34,-90 -4,-8 -30,-28 -38,-34 -84,-66 -135,-125 -164,-231 -11,-42 -25,-83 -39,-125 -24,-67 -47,-126 -8,-193 39,-67 101,-77 171,-91 44,-8 86,-17 129,-28 106,-28 183,-13 281,27 9,3 40,16 49,16 32,-2 64,-8 95,-16 31,-9 62,-20 90,-34 21,-10 39,-30 53,-49 24,-31 42,-69 56,-106 z"
           id="path3730"
           inkscape:connector-curvature="0"
           style="fill:#546535" /><path
           class="fil6"
           d="m 3446,12179 c 128,-374 194,-768 196,-1164 2,-395 -60,-788 -185,-1163 -14,-43 -33,-87 -59,-124 -12,-18 -31,-42 -52,-51 -27,-14 -57,-25 -86,-33 -29,-7 -60,-13 -90,-15 -10,1 -32,11 -41,15 -103,41 -184,57 -294,27 -36,-10 -94,-25 -131,-22 -11,0 -15,3 -24,8 l -154,89 c -1,1 -2,1 -3,2 -7,7 -19,31 -23,40 -47,94 -99,188 -156,277 l 953,755 c 102,81 102,279 0,360 l -1043,827 c -111,88 -302,88 -413,0 L 798,11180 c -98,-77 -102,-264 -12,-350 -150,23 -291,66 -434,149 l -35,20 c -5,3 -15,9 -22,14 0,1 0,2 0,3 -3,50 -14,87 -39,132 -26,44 -53,71 -95,100 0,0 -1,1 -2,2 -1,7 -2,17 -2,23 0,1 0,2 0,3 l 0,39 c 0,1 0,2 0,2 1,165 34,308 89,448 30,-120 193,-210 309,-164 l 1237,490 c 132,52 227,217 207,357 l -195,1317 c -19,129 -191,228 -311,180 L 363,13498 c -50,93 -104,185 -163,273 0,0 0,0 0,0 -6,9 -20,30 -23,40 0,2 0,3 0,4 0,1 0,2 0,3 l 0,174 c 0,11 0,15 5,25 16,34 58,76 84,102 81,81 108,159 124,269 1,9 4,33 8,43 16,25 37,48 58,70 22,21 46,42 71,59 19,12 49,17 70,19 45,4 93,-2 137,-11 387,-79 759,-222 1100,-421 342,-200 650,-455 911,-753 23,-29 45,-62 60,-97 8,-17 16,-41 14,-61 -2,-30 -7,-61 -15,-91 -8,-29 -18,-58 -32,-85 -6,-8 -25,-23 -33,-29 -87,-68 -141,-130 -171,-241 -11,-42 -24,-82 -39,-124 -26,-73 -48,-136 -6,-209 42,-73 108,-85 185,-100 43,-8 85,-17 127,-28 110,-30 191,-14 294,27 9,4 31,14 41,15 30,-2 61,-8 90,-15 29,-8 59,-19 86,-32 18,-9 35,-28 46,-43 23,-31 40,-67 54,-102 z"
           id="path3732"
           inkscape:connector-curvature="0"
           style="fill:#4a523a" /><path
           class="fil7"
           d="m 3427,12172 c 127,-372 193,-763 196,-1157 2,-393 -61,-784 -185,-1157 -13,-41 -32,-83 -56,-119 -10,-15 -28,-37 -44,-45 -27,-13 -55,-23 -83,-31 -27,-7 -56,-12 -84,-14 -10,2 -26,9 -35,13 -107,43 -192,59 -306,28 -33,-9 -91,-24 -125,-22 -7,1 -9,3 -15,6 l -154,89 c -6,9 -14,25 -18,33 -45,90 -94,179 -148,265 l 939,744 c 112,88 112,302 0,390 l -1043,827 c -118,94 -319,94 -437,0 L 785,11195 c -93,-73 -108,-234 -46,-337 -129,24 -253,66 -378,138 l -34,20 c -3,2 -8,4 -13,7 -4,51 -15,89 -41,134 -26,46 -54,75 -96,104 0,4 0,8 0,12 0,1 0,2 0,3 l 0,39 c 0,1 0,2 0,3 0,143 26,270 70,393 58,-105 204,-172 315,-129 l 1237,491 c 141,55 241,229 219,378 l -194,1317 c -21,141 -206,248 -339,195 L 372,13522 c -48,89 -100,176 -156,260 0,0 0,0 0,0 -5,8 -15,23 -19,33 0,1 0,2 0,3 l 0,174 c 0,7 -1,10 2,16 16,31 57,73 81,97 84,84 113,166 129,280 1,9 3,27 6,37 16,23 35,45 55,65 21,21 44,40 68,56 15,11 43,15 61,16 43,4 89,-2 131,-10 385,-79 755,-221 1094,-419 340,-199 646,-452 905,-749 23,-28 44,-59 58,-92 6,-14 14,-35 13,-51 -2,-30 -8,-59 -15,-88 -7,-27 -17,-54 -29,-79 -7,-8 -22,-18 -29,-24 -91,-71 -147,-137 -178,-251 -11,-42 -24,-82 -38,-123 -28,-80 -51,-147 -5,-226 46,-79 115,-94 198,-109 42,-8 84,-17 126,-28 114,-31 199,-15 306,28 9,4 25,11 35,13 28,-2 57,-7 84,-14 28,-8 56,-18 83,-31 14,-7 29,-25 38,-37 22,-29 38,-63 51,-97 z"
           id="path3734"
           inkscape:connector-curvature="0"
           style="fill:#3f3f3f" /></g><path
         class="fil1"
         d="m 1473,10626 c 33,-26 92,-26 125,0 l 413,327 c 24,20 24,74 0,94 l -413,327 c -33,26 -92,26 -125,0 l -413,-327 c -24,-20 -24,-74 0,-94 l 413,-327 z"
         id="path3736"
         inkscape:connector-curvature="0"
         style="fill:#ffffff" /><g
         id="g3738"><path
           class="fil8"
           d="m 1485,10641 -413,328 c -14,11 -14,51 0,62 l 413,328 c 26,20 75,20 101,0 l 413,-328 c 14,-11 14,-51 0,-62 l -413,-328 c -26,-20 -75,-20 -101,0 z"
           id="path3740"
           inkscape:connector-curvature="0"
           style="fill:#e6f9cf" /><path
           class="fil9"
           d="m 1498,10657 -413,327 c -5,5 -5,27 0,32 l 413,327 c 18,15 57,15 75,0 l 413,-327 c 5,-5 5,-27 0,-32 l -413,-327 c -18,-15 -57,-15 -75,0 z"
           id="path3742"
           inkscape:connector-curvature="0"
           style="fill:#ccf39f" /><path
           class="fil10"
           d="m 1101,10996 c 0,2 0,6 0,8 l 409,324 c 11,8 40,8 51,0 l 409,-324 c 0,-2 0,-6 0,-8 l -409,-324 c -11,-8 -40,-8 -51,0 l -409,324 z"
           id="path3744"
           inkscape:connector-curvature="0"
           style="fill:#b3ec70" /><path
           class="fil11"
           d="m 1128,11000 394,312 c 5,3 22,3 27,0 l 394,-312 -394,-312 c -5,-3 -22,-3 -27,0 l -394,312 z"
           id="path3746"
           inkscape:connector-curvature="0"
           style="fill:#99e640" /><path
           class="fil12"
           d="m 1531,10705 -371,295 371,295 c 3,0 6,0 9,0 l 371,-295 -371,-295 c -3,0 -6,0 -9,0 z"
           id="path3748"
           inkscape:connector-curvature="0"
           style="fill:#80e010" /></g><path
         class="fil1"
         d="m 1060,12089 c 39,15 69,67 63,108 l -77,521 c -5,31 -52,58 -81,47 l -490,-194 c -39,-16 -68,-67 -62,-108 l 77,-522 c 4,-30 52,-58 81,-46 l 489,194 z"
         id="path3750"
         inkscape:connector-curvature="0"
         style="fill:#ffffff" /><g
         id="g3752"><path
           class="fil8"
           d="m 1053,12107 -490,-194 c -17,-7 -51,13 -54,31 l -77,522 c -5,32 20,74 50,86 l 490,194 c 17,7 52,-13 54,-31 l 77,-521 c 5,-32 -20,-75 -50,-87 z"
           id="path3754"
           inkscape:connector-curvature="0"
           style="fill:#e6f9cf" /><path
           class="fil9"
           d="m 1046,12125 -489,-194 c -8,-1 -26,10 -28,16 l -77,521 c -4,23 16,58 37,66 l 490,194 c 7,1 26,-9 28,-16 l 77,-521 c 3,-23 -16,-57 -38,-66 z"
           id="path3756"
           inkscape:connector-curvature="0"
           style="fill:#ccf39f" /><path
           class="fil10"
           d="m 554,11952 c -2,1 -5,2 -7,4 l -76,515 c -2,14 13,40 26,45 l 484,192 c 3,-1 5,-3 7,-4 l 76,-516 c 2,-14 -12,-39 -25,-44 l -485,-192 z"
           id="path3758"
           inkscape:connector-curvature="0"
           style="fill:#b3ec70" /><path
           class="fil11"
           d="m 564,11977 -73,497 c -1,6 8,21 13,24 l 467,185 74,-497 c 0,-7 -8,-21 -14,-24 l -467,-185 z"
           id="path3760"
           inkscape:connector-curvature="0"
           style="fill:#99e640" /><path
           class="fil12"
           d="m 1021,12179 -441,-175 -69,470 c 0,2 2,5 4,7 l 441,174 69,-469 c -1,-2 -3,-5 -4,-7 z"
           id="path3762"
           inkscape:connector-curvature="0"
           style="fill:#80e010" /></g></g></g></svg>