<?xml version="1.0" encoding="UTF-8" standalone="no"?>
<!-- Creator: CorelDRAW X7 -->

<svg
   xmlns:dc="http://purl.org/dc/elements/1.1/"
   xmlns:cc="http://creativecommons.org/ns#"
   xmlns:rdf="http://www.w3.org/1999/02/22-rdf-syntax-ns#"
   xmlns:svg="http://www.w3.org/2000/svg"
   xmlns="http://www.w3.org/2000/svg"
   xmlns:sodipodi="http://sodipodi.sourceforge.net/DTD/sodipodi-0.dtd"
   xmlns:inkscape="http://www.inkscape.org/namespaces/inkscape"
   xml:space="preserve"
   width="7.8740005in"
   height="7.8740005in"
   version="1.1"
   style="clip-rule:evenodd;fill-rule:evenodd;image-rendering:optimizeQuality;shape-rendering:geometricPrecision;text-rendering:geometricPrecision"
   viewBox="0 0 7874.0005 7874.0005"
   id="svg3354"
   inkscape:version="0.91 r13725"
   sodipodi:docname="mercs_mcmurrough.svg"><metadata
     id="metadata3400"><rdf:RDF><cc:Work
         rdf:about=""><dc:format>image/svg+xml</dc:format><dc:type
           rdf:resource="http://purl.org/dc/dcmitype/StillImage" /></cc:Work></rdf:RDF></metadata><sodipodi:namedview
     pagecolor="#ffffff"
     bordercolor="#666666"
     borderopacity="1"
     objecttolerance="10"
     gridtolerance="10"
     guidetolerance="10"
     inkscape:pageopacity="0"
     inkscape:pageshadow="2"
     inkscape:window-width="640"
     inkscape:window-height="480"
     id="namedview3398"
     showgrid="false"
     inkscape:zoom="0.23838384"
     inkscape:cx="736.83001"
     inkscape:cy="849.33005"
     inkscape:window-x="0"
     inkscape:window-y="0"
     inkscape:window-maximized="0"
     inkscape:current-layer="svg3354" /><defs
     id="defs3356"><style
       type="text/css"
       id="style3358"><![CDATA[
    .fil3 {fill:none}
    .fil1 {fill:black}
    .fil2 {fill:#E32527}
    .fil0 {fill:white}
    .fil4 {fill:#E32527;fill-rule:nonzero}
    .fil5 {fill:white;fill-rule:nonzero}
   ]]></style></defs><g
     id="Layer_x0020_1"
     transform="translate(3937,-7063)"><metadata
       id="CorelCorpID_0Corel-Layer" /><circle
       class="fil0"
       cy="11000"
       r="3937"
       id="circle3362"
       cx="0"
       style="fill:#ffffff" /><circle
       class="fil1"
       cy="11000"
       r="3858"
       id="circle3364"
       cx="0"
       style="fill:#000000" /><circle
       class="fil0"
       cy="11000"
       r="3071"
       id="circle3366"
       cx="0"
       style="fill:#ffffff" /><circle
       class="fil2"
       cy="11000"
       r="2992"
       id="circle3368"
       cx="0"
       style="fill:#e32527" /><circle
       class="fil0"
       cy="7457"
       r="236"
       id="circle3370"
       cx="0"
       style="fill:#ffffff" /><path
       class="fil1"
       d="m 233,7766 c 14,30 21,62 21,96 l 0,510 c 4,23 39,59 56,72 15,12 39,26 60,26 25,0 71,-18 95,-28 53,-22 105,-45 160,-62 49,-16 101,-26 153,-26 82,0 167,37 236,79 82,50 284,203 214,319 -21,36 -59,51 -99,51 l -510,0 c -6,47 -17,94 -36,137 192,54 375,135 545,241 l 982,-394 c 30,-12 62,-5 85,18 23,23 30,55 18,85 l -393,982 c 211,339 321,728 321,1128 0,400 -110,789 -321,1128 l 393,982 c 12,30 5,62 -18,85 -23,23 -55,30 -85,18 l -982,-394 c -249,155 -526,256 -816,299 l 0,729 c 0,131 -19,267 -43,395 -27,149 -64,300 -110,445 -16,49 -33,101 -53,149 -20,46 -47,101 -106,101 -59,0 -86,-55 -106,-101 -20,-48 -37,-100 -53,-149 -46,-145 -83,-296 -110,-445 -24,-128 -43,-264 -43,-395 l 0,-729 c -290,-43 -567,-144 -816,-299 l -982,394 c -30,12 -62,5 -85,-18 -23,-23 -30,-55 -18,-85 l 393,-982 c -211,-339 -321,-728 -321,-1128 0,-400 110,-789 321,-1128 l -393,-982 c -12,-30 -5,-62 18,-85 23,-23 55,-30 85,-18 l 982,394 c 170,-106 353,-187 545,-241 -19,-43 -30,-90 -36,-137 l -510,0 c -40,0 -78,-15 -99,-51 -70,-116 132,-269 214,-319 69,-42 154,-79 236,-79 52,0 104,10 153,26 55,17 107,40 160,62 24,10 70,28 95,28 21,0 45,-14 60,-26 17,-13 52,-49 56,-72 l 0,-510 c 0,-34 7,-66 21,-96 -97,-73 -157,-188 -157,-313 0,-215 175,-390 390,-390 215,0 390,175 390,390 0,125 -60,240 -157,313 z M 0,7377 c -43,0 -76,34 -76,76 0,42 33,77 76,77 43,0 76,-35 76,-77 0,-42 -33,-76 -76,-76 z"
       id="path3372"
       inkscape:connector-curvature="0"
       style="fill:#000000" /><path
       class="fil0"
       d="m 175,8374 c 0,59 98,175 195,175 96,0 253,-116 408,-116 194,0 487,291 351,291 l -584,0 c 0,86 -15,189 -87,265 239,54 462,150 662,280 l 1020,-409 -409,1020 c 210,322 331,707 331,1120 0,413 -121,798 -331,1120 l 409,1020 -1020,-409 c -261,169 -563,281 -887,318 l 0,798 c 0,389 -194,1011 -233,1011 -39,0 -233,-622 -233,-1011 l 0,-798 c -324,-37 -626,-149 -887,-318 l -1020,409 409,-1020 c -210,-322 -331,-707 -331,-1120 0,-413 121,-798 331,-1120 l -409,-1020 1020,409 c 200,-130 423,-226 662,-280 -72,-76 -87,-179 -87,-265 l -584,0 c -136,0 157,-291 351,-291 155,0 312,116 408,116 97,0 195,-116 195,-175 l 0,-512 c 0,-48 22,-92 57,-120 -113,-47 -193,-159 -193,-289 0,-172 139,-311 311,-311 172,0 311,139 311,311 0,130 -80,242 -193,289 35,28 57,72 57,120 l 0,512 z m -39,564 c 117,0 214,-117 214,-214 l -214,0 0,214 z m -272,0 c -117,0 -214,-117 -214,-214 l 214,0 0,214 z M 0,7298 c 86,0 155,69 155,155 0,86 -69,156 -155,156 -86,0 -155,-70 -155,-156 0,-86 69,-155 155,-155 z"
       id="path3374"
       inkscape:connector-curvature="0"
       style="fill:#ffffff" /><circle
       class="fil1"
       cy="11000"
       r="1890"
       id="circle3376"
       cx="0"
       style="fill:#000000" /><circle
       class="fil2"
       cy="11000"
       r="1732"
       id="circle3378"
       cx="0"
       style="fill:#e32527" /><circle
       class="fil1"
       cy="11000"
       r="1614"
       id="circle3380"
       cx="0"
       style="fill:#000000" /><circle
       class="fil0"
       cy="11000"
       r="1457"
       id="circle3382"
       cx="0"
       style="fill:#ffffff" /><path
       class="fil1"
       d="m -1130,10559 c 421,-479 1168,-422 1571,-747 19,115 0,172 -19,287 57,77 460,135 383,326 96,19 479,230 460,268 -13,27 -38,58 -96,58 0,77 -57,192 -153,268 -19,-134 -156,-230 -250,-230 -133,0 -210,116 -210,230 0,153 249,268 402,153 49,147 -57,192 -76,327 -86,-146 -345,-135 -518,-212 -195,-85 -326,-210 -326,-325 -38,-19 -95,-39 -172,-19 0,-58 19,-96 57,-135 -40,-22 -230,-77 -383,-57 0,-58 38,-135 96,-211 -115,19 -211,230 -211,307 76,-39 288,-19 364,19 -76,39 -115,115 -115,191 154,-76 290,-9 307,77 19,96 50,126 96,173 323,336 662,309 705,784 -220,157 -490,251 -782,251 -637,0 -1169,-443 -1307,-1038 10,-325 195,-601 444,-726 -57,-38 -134,-38 -267,-19 z m 1552,-268 c 77,38 172,38 229,96 -18,57 -76,96 -114,96 -20,-58 -77,-116 -115,-192 z"
       id="path3384"
       inkscape:connector-curvature="0"
       style="fill:#000000" /><circle
       class="fil3"
       cy="11000"
       r="3898"
       id="circle3386"
       cx="0"
       style="fill:none" /><circle
       class="fil3"
       cy="11000"
       r="3898"
       id="circle3388"
       cx="0"
       style="fill:none" /><path
       class="fil4"
       d="m -2341,13301 -76,81 151,144 c 34,31 59,38 76,20 l 24,-24 c 18,-19 11,-44 -20,-74 l -155,-147 z m -181,186 165,157 c 32,30 55,36 72,19 l 22,-23 c 18,-19 8,-48 -31,-84 l -154,-147 -74,78 z m 375,87 c -22,23 -48,28 -79,15 19,35 17,66 -7,91 l -12,12 c -38,40 -84,34 -140,-19 l -189,-179 c -7,-7 -7,-15 1,-23 l 211,-223 c 7,-7 15,-7 22,0 l 180,171 c 56,53 65,101 25,142 l -12,13 z m 235,368 c -29,41 -79,37 -148,-12 l -65,-46 c -70,-50 -90,-95 -61,-136 l 97,-138 c 8,-11 18,-12 30,-3 13,9 15,18 7,29 l -97,138 c -14,19 -1,44 41,73 l 77,55 c 40,28 67,33 80,14 l 98,-138 c 8,-11 18,-12 31,-3 12,9 15,19 7,30 l -97,137 z m 375,142 -181,-106 c -31,-18 -53,-17 -64,3 l -18,31 c -11,19 0,38 32,57 l 131,76 c 32,19 56,14 73,-15 l 27,-46 z m 5,80 c -26,43 -70,47 -132,11 l -115,-67 c -65,-38 -86,-78 -61,-120 l 17,-29 c 25,-44 70,-47 133,-10 l 173,100 c 10,-23 0,-44 -29,-61 l -48,-28 c -10,-6 -11,-14 -5,-26 7,-11 15,-13 24,-8 l 42,25 c 62,36 80,76 54,121 l -53,92 z m 103,101 c -6,13 -16,16 -29,9 -14,-6 -19,-16 -13,-28 l 126,-276 c 6,-13 15,-16 29,-10 14,7 18,16 13,29 l -126,276 z m 431,-53 -168,-59 c -45,-15 -72,-8 -82,21 l -31,88 c -9,26 8,47 50,61 l 100,35 c 48,17 76,12 85,-14 l 46,-132 z m -5,152 c -17,47 -65,57 -146,29 l -81,-28 c -79,-28 -110,-64 -95,-109 l 36,-103 c 18,-50 66,-61 145,-34 l 159,56 20,-58 c 5,-13 14,-18 28,-13 14,5 19,15 15,28 l -81,232 z m 403,155 c -3,13 -12,18 -27,15 -15,-4 -21,-12 -18,-26 l 36,-154 c 6,-29 -16,-49 -66,-60 l -162,-38 -45,198 c -4,13 -13,19 -28,15 -15,-3 -20,-12 -17,-25 l 67,-296 c 4,-13 12,-19 27,-15 15,3 21,12 18,25 l -14,60 149,34 c 90,21 128,58 116,111 l -36,156 z m 1508,-71 c 3,14 -3,22 -18,26 -15,3 -24,-2 -28,-16 l -38,-166 c -5,-20 -27,-26 -68,-17 l -112,26 c -41,9 -59,24 -54,45 l 39,166 c 3,14 -3,23 -18,26 -15,3 -24,-2 -27,-15 l -38,-167 c -11,-46 23,-78 102,-96 l 86,-20 c 80,-18 125,-4 135,42 l 39,166 z m 309,-271 c -8,-23 -32,-28 -73,-15 l -99,33 c -45,15 -63,35 -54,62 l 32,95 c 8,25 34,30 79,15 l 99,-32 c 41,-14 57,-33 49,-58 l -33,-100 z m 77,85 c 17,50 -13,87 -88,112 l -87,29 c -76,26 -123,13 -140,-37 l -31,-95 c -17,-51 13,-89 91,-115 l 86,-29 c 75,-24 121,-11 137,39 l 32,96 z m 211,-342 55,96 181,-103 c 41,-23 55,-46 42,-67 l -17,-30 c -13,-23 -38,-24 -75,-2 l -186,106 z m 126,226 197,-112 c 38,-22 51,-43 40,-63 l -16,-28 c -14,-23 -43,-22 -90,5 l -185,105 54,93 z m 191,-333 c 16,27 13,54 -9,80 40,-8 69,3 86,33 l 8,15 c 27,48 8,90 -59,128 l -226,129 c -9,5 -16,3 -22,-7 l -152,-267 c -5,-9 -3,-16 6,-21 l 216,-123 c 67,-38 115,-32 143,18 l 9,15 z m 355,-150 -165,129 c -29,21 -36,42 -21,60 l 21,28 c 14,18 36,15 66,-9 l 119,-93 c 29,-22 34,-47 13,-73 l -33,-42 z m 76,25 c 31,40 19,82 -38,126 l -106,83 c -59,46 -104,50 -134,11 l -20,-27 c -31,-39 -18,-82 40,-127 l 158,-122 c -18,-19 -41,-17 -68,3 l -44,35 c -8,6 -17,4 -25,-6 -8,-10 -7,-18 1,-25 l 39,-30 c 56,-44 100,-45 132,-4 l 65,83 z m 291,-261 c 32,33 25,72 -21,116 l -140,135 c -10,9 -19,9 -28,0 -10,-10 -9,-19 0,-29 l 146,-140 c 20,-19 23,-35 10,-49 l -11,-12 c -14,-14 -31,-10 -54,12 l -78,74 c -51,49 -92,58 -122,26 l -12,-12 c -29,-30 -20,-69 29,-116 l 39,-37 c 9,-9 19,-9 28,0 9,10 8,19 -1,28 l -47,45 c -21,21 -26,37 -15,49 l 11,11 c 13,14 33,8 58,-16 l 80,-76 c 47,-46 87,-53 118,-20 l 10,11 z"
       id="path3390"
       inkscape:connector-curvature="0"
       style="fill:#e32527;fill-rule:nonzero" /><path
       class="fil5"
       d="m -3214,11285 -346,26 10,134 -51,4 -25,-320 52,-4 10,134 346,-26 4,52 z m -12,-242 -399,-6 3,-220 51,1 -2,168 120,2 3,-164 51,1 -2,163 124,2 3,-173 51,1 -3,225 z m -152,-397 15,-113 -150,38 135,75 z m 150,142 -373,-211 6,-37 416,-105 -7,54 -123,30 -21,154 110,62 -8,53 z m 55,-393 -389,-88 24,-104 c 8,-36 24,-62 47,-78 23,-15 51,-19 85,-11 26,6 45,16 58,30 13,14 21,34 24,59 5,-5 10,-10 18,-14 6,-4 18,-8 33,-14 l 162,-54 -14,62 -116,38 c -34,11 -57,22 -68,31 -12,9 -19,22 -22,37 l -4,16 174,39 -12,51 z m -209,-101 10,-42 c 5,-24 4,-43 -3,-57 -7,-14 -21,-23 -42,-28 -21,-5 -37,-3 -49,6 -13,9 -21,26 -27,51 l -10,43 121,27 z m 281,-209 -375,-134 17,-48 327,116 59,-164 48,18 -76,212 z m -33,-400 48,-104 -155,-7 107,111 z m 103,179 -296,-310 16,-35 429,21 -22,49 -126,-6 -66,142 88,91 -23,48 z m 237,-668 56,32 c 0,24 -3,48 -8,70 -6,22 -14,43 -25,62 -10,18 -23,34 -37,48 -15,13 -31,24 -50,33 -30,14 -62,20 -96,19 -33,-2 -66,-12 -96,-29 -24,-14 -44,-31 -61,-52 -16,-21 -29,-44 -36,-69 -8,-27 -10,-54 -7,-80 4,-26 13,-51 27,-77 11,-18 23,-34 37,-49 15,-15 32,-30 53,-43 l 54,30 c -24,14 -43,27 -59,42 -16,14 -29,30 -38,47 -21,37 -26,74 -15,113 12,39 36,69 74,90 38,22 76,28 114,18 39,-9 69,-32 89,-68 11,-19 18,-39 22,-62 4,-23 5,-48 2,-75 z m 120,-17 -314,-246 32,-41 135,106 130,-166 -135,-106 32,-41 314,246 -32,41 -137,-107 -130,166 137,107 -32,41 z m 224,-763 c 9,-3 17,-3 23,-1 7,1 13,5 18,10 7,7 10,15 11,24 0,8 -3,15 -9,21 -8,7 -17,10 -29,7 -11,-2 -23,-10 -34,-21 -14,-15 -22,-32 -25,-50 -2,-18 2,-37 11,-56 l 8,7 c -1,9 1,18 4,27 4,9 9,18 17,26 l 5,6 z m -75,70 c 9,-2 17,-2 23,0 7,1 13,5 18,10 7,7 10,15 10,23 1,9 -2,16 -8,22 -8,7 -17,10 -29,7 -12,-3 -23,-10 -34,-21 -14,-15 -22,-32 -25,-50 -2,-19 2,-37 11,-56 l 8,7 c -1,10 0,19 4,27 4,9 9,18 17,26 l 5,5 z m 272,-259 -65,51 179,228 65,-51 c 35,-28 55,-60 60,-96 4,-36 -8,-72 -35,-107 -28,-36 -60,-56 -96,-60 -37,-5 -72,7 -108,35 z m -33,-43 c 21,-17 41,-29 60,-36 18,-8 38,-12 58,-13 30,0 60,6 88,20 28,15 53,35 74,62 21,27 36,56 43,87 7,31 6,62 -2,91 -5,19 -14,37 -26,53 -12,17 -29,33 -50,50 l -106,83 -245,-314 106,-83 z m 466,149 -217,-334 185,-120 27,43 -141,91 66,102 137,-89 28,43 -137,89 68,104 145,-94 28,43 -189,122 z m 242,-341 100,-53 -118,-100 18,153 z m -27,206 -48,-426 33,-18 329,276 -47,25 -97,-81 -137,73 14,126 -47,25 z m 355,-177 -150,-369 99,-41 c 34,-13 64,-15 90,-5 25,10 45,31 58,63 10,24 13,46 8,65 -4,19 -15,36 -34,53 7,1 14,3 21,6 7,4 18,11 31,20 l 137,102 -59,24 -97,-73 c -29,-23 -51,-35 -65,-39 -14,-4 -28,-3 -43,3 l -15,6 67,165 -48,20 z m -37,-229 40,-16 c 23,-10 38,-21 45,-35 7,-14 7,-31 -1,-51 -8,-20 -19,-32 -34,-37 -14,-5 -33,-2 -57,8 l -40,16 47,115 z m 579,-153 47,162 c -20,18 -40,32 -59,44 -19,11 -38,20 -57,25 -21,6 -41,9 -62,9 -20,0 -39,-4 -58,-10 -31,-11 -59,-29 -82,-54 -22,-25 -39,-54 -49,-88 -7,-26 -10,-52 -7,-79 2,-27 10,-52 22,-75 13,-25 30,-46 50,-62 20,-16 45,-29 74,-37 19,-6 40,-9 61,-10 21,0 43,2 67,6 l 17,59 c -26,-6 -50,-10 -71,-11 -21,0 -41,2 -60,8 -41,12 -70,35 -89,71 -19,36 -22,74 -10,116 12,42 35,72 70,92 34,21 72,25 112,13 12,-3 23,-8 35,-15 11,-6 22,-14 33,-23 l -21,-74 -66,19 -15,-51 118,-35 z m 173,-163 c -8,-3 -15,-7 -19,-12 -5,-5 -8,-12 -9,-20 -2,-9 0,-17 4,-25 5,-7 11,-11 20,-13 10,-1 19,2 27,11 8,8 14,21 16,37 4,20 1,38 -7,55 -8,16 -22,29 -40,40 l -3,-10 c 6,-8 10,-16 12,-25 2,-9 2,-20 0,-31 l -1,-7 z m -102,17 c -8,-3 -15,-7 -19,-12 -5,-5 -8,-12 -9,-19 -2,-10 0,-18 4,-26 5,-7 11,-11 19,-13 10,-1 20,2 28,11 8,9 14,21 16,37 4,20 1,38 -7,55 -8,16 -21,29 -40,40 l -2,-10 c 5,-8 9,-16 11,-25 2,-9 2,-19 1,-31 l -2,-7 z"
       id="path3392"
       inkscape:connector-curvature="0"
       style="fill:#ffffff;fill-rule:nonzero" /><circle
       class="fil3"
       cy="11000"
       r="3898"
       id="circle3394"
       cx="0"
       style="fill:none" /><path
       class="fil5"
       d="m 832,7872 128,-377 46,15 77,203 186,-114 45,16 -128,377 -51,-17 100,-295 -178,109 -74,-194 -100,294 -51,-17 z m 793,228 -29,57 c -26,0 -51,-3 -74,-8 -24,-5 -46,-13 -67,-24 -19,-10 -36,-22 -51,-37 -15,-15 -28,-31 -38,-50 -17,-30 -25,-63 -25,-97 0,-34 8,-66 24,-98 13,-23 29,-44 50,-61 21,-18 45,-30 71,-38 27,-8 55,-11 82,-8 27,3 54,12 82,26 19,10 37,22 54,37 16,14 32,32 48,53 l -29,54 c -15,-23 -31,-43 -47,-59 -16,-15 -33,-28 -51,-37 -40,-21 -79,-26 -119,-14 -40,12 -69,38 -90,76 -20,39 -24,77 -11,116 12,39 37,69 76,89 20,11 42,18 66,22 24,3 50,4 78,1 z m 363,227 -34,55 c -26,-2 -50,-7 -73,-14 -24,-8 -45,-18 -64,-30 -19,-12 -35,-26 -49,-42 -13,-16 -24,-33 -33,-53 -14,-32 -19,-65 -16,-98 3,-34 14,-66 33,-96 14,-22 33,-41 55,-57 22,-15 47,-26 73,-31 29,-6 56,-6 83,-1 27,6 53,17 79,33 19,12 35,26 51,42 15,16 29,34 43,56 l -34,53 c -13,-25 -27,-46 -41,-63 -15,-17 -31,-31 -48,-42 -37,-25 -77,-33 -117,-24 -40,8 -72,31 -96,68 -23,36 -31,74 -22,114 9,40 32,72 68,96 19,12 41,21 64,27 24,5 50,8 78,7 z m 19,141 260,-302 36,31 -4,217 215,-36 36,32 -260,301 -41,-35 203,-235 -205,34 3,-208 -203,236 -40,-35 z m 653,63 36,41 -172,152 c -19,16 -31,29 -38,38 -6,9 -10,19 -11,29 -3,17 -2,34 3,51 5,16 14,31 28,46 22,25 46,40 73,43 27,4 51,-4 73,-24 l 191,-168 36,41 -192,170 c -33,29 -70,41 -111,37 -41,-5 -78,-26 -111,-63 -19,-22 -32,-45 -40,-70 -7,-25 -9,-50 -4,-76 3,-16 8,-30 17,-43 9,-13 25,-30 48,-51 l 174,-153 z m -20,605 334,-217 61,95 c 21,32 30,63 25,91 -4,28 -21,51 -50,70 -22,15 -43,21 -62,20 -20,-1 -40,-10 -61,-27 1,8 0,16 -2,24 -2,8 -6,19 -13,35 l -71,157 -36,-56 51,-112 c 16,-34 24,-58 25,-73 0,-15 -4,-30 -13,-44 l -9,-14 -149,97 -30,-46 z m 219,-77 25,39 c 14,21 29,34 44,40 16,5 32,2 50,-10 18,-12 28,-25 30,-41 1,-15 -5,-34 -20,-57 l -25,-38 -104,67 z m -36,372 351,-188 53,100 c 19,34 25,65 18,93 -7,27 -26,49 -56,66 -24,12 -45,17 -64,14 -20,-3 -39,-13 -58,-32 0,8 -1,15 -4,23 -3,8 -8,19 -16,34 l -85,151 -31,-59 61,-107 c 18,-33 29,-56 31,-71 2,-15 -1,-30 -9,-45 l -8,-14 -157,84 -26,-49 z m 225,-58 22,41 c 12,22 25,37 40,43 15,7 32,5 51,-5 19,-10 30,-23 33,-38 3,-16 -2,-35 -15,-59 l -21,-40 -110,58 z m 140,341 c -19,6 -36,15 -52,28 -15,13 -27,28 -36,45 -10,17 -15,36 -17,55 -2,20 0,39 6,58 6,19 16,36 28,51 13,14 28,26 46,35 18,8 37,13 57,15 20,1 39,-1 59,-7 19,-7 36,-16 51,-28 15,-13 28,-28 37,-47 10,-17 16,-36 18,-55 2,-19 -1,-38 -7,-57 -5,-19 -15,-35 -28,-50 -13,-14 -28,-26 -46,-35 -18,-9 -36,-14 -56,-16 -20,-1 -40,1 -60,8 z m -16,-57 c 26,-8 52,-11 79,-9 27,3 53,10 77,23 24,12 45,29 63,49 17,21 30,44 38,70 9,27 12,54 10,81 -2,27 -9,52 -22,76 -13,26 -30,47 -50,64 -21,17 -45,30 -72,39 -26,8 -52,11 -79,9 -27,-2 -53,-9 -77,-22 -24,-13 -46,-29 -63,-50 -17,-20 -30,-44 -39,-71 -8,-26 -11,-52 -9,-79 3,-27 10,-53 22,-77 13,-25 30,-46 51,-64 20,-17 44,-30 71,-39 z m 360,471 9,54 -226,37 c -25,5 -42,9 -52,13 -10,5 -19,11 -25,18 -12,14 -20,29 -24,45 -4,17 -5,35 -2,54 6,33 19,58 40,76 21,17 46,23 75,18 l 251,-42 9,54 -253,42 c -44,8 -82,-2 -114,-27 -32,-26 -52,-63 -61,-112 -4,-29 -3,-56 3,-80 7,-25 19,-48 37,-67 10,-12 23,-21 37,-27 14,-7 37,-13 68,-18 l 228,-38 z m -102,814 -168,12 c -13,-24 -23,-47 -31,-70 -7,-22 -11,-43 -13,-64 -2,-23 0,-45 4,-66 4,-20 12,-40 22,-58 17,-30 40,-54 69,-72 29,-18 61,-28 96,-31 27,-2 53,1 79,10 26,8 49,21 69,39 22,19 39,41 51,65 11,25 19,53 21,85 2,21 1,43 -3,65 -4,22 -10,45 -19,68 l -62,5 c 12,-26 20,-50 25,-72 5,-21 7,-42 5,-63 -3,-45 -20,-81 -51,-108 -32,-27 -69,-39 -112,-36 -43,4 -78,21 -105,52 -27,31 -38,69 -35,113 1,13 4,26 7,39 4,13 10,26 17,40 l 77,-6 -5,-72 53,-4 9,129 z m -196,115 398,30 -5,54 -171,-13 -16,222 171,13 -5,55 -397,-30 4,-55 173,13 17,-222 -173,-13 4,-54 z"
       id="path3396"
       inkscape:connector-curvature="0"
       style="fill:#ffffff;fill-rule:nonzero" /></g></svg>