<?xml version="1.0" encoding="UTF-8" standalone="no"?>
<!-- Creator: CorelDRAW X7 -->

<svg
   xmlns:dc="http://purl.org/dc/elements/1.1/"
   xmlns:cc="http://creativecommons.org/ns#"
   xmlns:rdf="http://www.w3.org/1999/02/22-rdf-syntax-ns#"
   xmlns:svg="http://www.w3.org/2000/svg"
   xmlns="http://www.w3.org/2000/svg"
   xmlns:sodipodi="http://sodipodi.sourceforge.net/DTD/sodipodi-0.dtd"
   xmlns:inkscape="http://www.inkscape.org/namespaces/inkscape"
   xml:space="preserve"
   width="7.8740005in"
   height="7.8740005in"
   version="1.1"
   style="clip-rule:evenodd;fill-rule:evenodd;image-rendering:optimizeQuality;shape-rendering:geometricPrecision;text-rendering:geometricPrecision"
   viewBox="0 0 7874.0005 7874.0005"
   id="svg3407"
   inkscape:version="0.91 r13725"
   sodipodi:docname="Mercs - Authorized Bounty Hunter - [N3] [Vyo].svg"><metadata
     id="metadata3439"><rdf:RDF><cc:Work
         rdf:about=""><dc:format>image/svg+xml</dc:format><dc:type
           rdf:resource="http://purl.org/dc/dcmitype/StillImage" /></cc:Work></rdf:RDF></metadata><sodipodi:namedview
     pagecolor="#ffffff"
     bordercolor="#666666"
     borderopacity="1"
     objecttolerance="10"
     gridtolerance="10"
     guidetolerance="10"
     inkscape:pageopacity="0"
     inkscape:pageshadow="2"
     inkscape:window-width="640"
     inkscape:window-height="480"
     id="namedview3437"
     showgrid="false"
     inkscape:zoom="0.23838384"
     inkscape:cx="736.83001"
     inkscape:cy="849.33005"
     inkscape:window-x="0"
     inkscape:window-y="0"
     inkscape:window-maximized="0"
     inkscape:current-layer="svg3407" /><defs
     id="defs3409"><style
       type="text/css"
       id="style3411"><![CDATA[
    .fil3 {fill:none}
    .fil0 {fill:black}
    .fil1 {fill:#C0C0A0}
    .fil4 {fill:white}
    .fil2 {fill:black;fill-rule:nonzero}
   ]]></style></defs><g
     id="Layer_x0020_1"
     transform="translate(3937,-7063)"><metadata
       id="CorelCorpID_0Corel-Layer" /><circle
       class="fil0"
       cy="11000"
       r="3937"
       id="circle3415"
       cx="0"
       style="fill:#000000" /><circle
       class="fil1"
       cy="11000"
       r="3858"
       id="circle3417"
       cx="0"
       style="fill:#c0c0a0" /><path
       class="fil2"
       d="m -2733,8619 106,93 166,-187 61,54 -165,188 159,141 -69,79 -389,-344 244,-276 62,54 -175,198 z m 493,-574 83,-65 213,272 c 45,56 62,103 53,140 -9,37 -50,83 -122,140 -77,60 -134,91 -171,92 -38,1 -78,-26 -122,-82 l -216,-276 83,-65 216,276 c 24,30 45,45 63,44 17,-1 48,-18 91,-52 44,-34 69,-60 74,-77 5,-17 -6,-42 -31,-74 l -214,-273 z m 302,-208 211,375 229,-128 43,77 -320,180 -255,-453 92,-51 z m 393,-209 178,392 238,-108 37,81 -335,151 -214,-473 96,-43 z m 985,-150 -100,23 c -2,-4 -3,-8 -3,-10 -9,-27 -20,-44 -33,-48 -13,-5 -40,-2 -81,7 -49,11 -80,23 -93,35 -13,12 -17,31 -11,58 8,32 18,49 32,53 14,4 55,-1 124,-13 82,-15 137,-16 165,-4 28,12 48,45 60,99 16,67 12,114 -12,140 -23,26 -82,50 -177,72 -85,19 -144,23 -177,10 -32,-13 -55,-49 -69,-107 l -4,-19 100,-23 3,11 c 8,35 19,55 35,60 15,4 52,0 111,-14 46,-10 74,-22 85,-34 11,-12 12,-34 4,-67 -5,-25 -14,-40 -25,-46 -12,-5 -34,-5 -66,0 l -58,10 c -87,15 -144,17 -172,5 -28,-12 -49,-47 -62,-105 -13,-59 -8,-101 16,-127 24,-26 80,-50 166,-69 81,-19 138,-23 171,-12 33,12 55,44 67,96 l 4,19 z m 479,229 -240,19 -27,101 -112,9 146,-531 159,-12 227,503 -110,8 -43,-97 z m -30,-70 -117,-262 -73,277 190,-15 z m 795,-286 -70,514 -177,-24 -120,-304 c -6,-15 -15,-41 -26,-79 l -13,-39 -13,-40 -4,0 -3,34 -3,34 -9,67 -40,295 -104,-14 70,-514 178,24 108,280 c 9,25 20,55 32,90 l 16,45 15,45 3,1 4,-34 3,-33 8,-66 41,-296 104,14 z m 390,446 102,30 -5,17 c -21,70 -48,110 -81,123 -33,12 -96,4 -189,-23 -106,-31 -166,-66 -181,-106 -14,-39 -1,-128 40,-267 24,-82 57,-132 97,-148 41,-16 113,-8 218,23 76,22 124,48 143,76 20,29 20,75 1,138 l -3,11 -101,-30 3,-12 c 10,-33 10,-56 -1,-69 -10,-13 -39,-26 -86,-40 -63,-19 -103,-23 -120,-12 -17,11 -36,51 -57,122 -28,95 -39,153 -33,174 6,21 41,41 103,59 50,15 84,20 102,14 18,-5 32,-24 42,-57 l 6,-23 z m 473,-72 -180,392 -96,-44 180,-392 -146,-67 36,-80 394,181 -37,80 -151,-70 z m 346,86 -257,451 -92,-53 257,-450 92,52 z m 299,192 c 84,57 128,107 134,150 7,42 -21,108 -83,197 -68,98 -122,151 -164,159 -42,9 -109,-19 -201,-83 -84,-58 -129,-108 -136,-150 -7,-41 19,-105 78,-190 71,-102 127,-157 169,-167 42,-9 110,19 203,84 z m -54,64 c -59,-41 -98,-57 -118,-50 -19,7 -57,52 -115,134 -42,62 -62,102 -59,123 3,20 32,50 89,90 54,37 91,53 112,46 20,-7 55,-45 105,-117 49,-71 74,-117 72,-137 -1,-20 -30,-50 -86,-89 z m 722,560 -378,356 -123,-130 98,-311 c 5,-16 14,-42 29,-78 l 14,-39 15,-38 -2,-3 -24,24 -24,24 -49,48 -216,204 -73,-77 378,-356 123,130 -92,286 c -8,26 -19,56 -31,91 l -16,44 -17,45 3,3 23,-24 24,-24 48,-46 217,-206 73,77 z"
       id="path3419"
       inkscape:connector-curvature="0"
       style="fill:#000000;fill-rule:nonzero" /><circle
       class="fil3"
       cy="11000"
       r="3858"
       id="circle3421"
       cx="0"
       style="fill:none" /><circle
       class="fil3"
       cy="11000"
       r="3819"
       id="circle3423"
       cx="0"
       style="fill:none" /><path
       class="fil2"
       d="m -3496,11534 -26,-205 -89,-18 -12,-95 461,100 18,135 -420,218 -13,-94 81,-41 z m 59,-29 219,-112 -240,-50 21,162 z m 398,423 25,87 -284,82 c -60,17 -103,16 -129,-4 -26,-19 -50,-66 -72,-142 -23,-80 -29,-135 -18,-166 11,-30 46,-53 105,-70 l 289,-82 25,86 -289,83 c -32,9 -51,21 -56,36 -5,14 -1,44 12,89 13,46 26,74 38,83 12,10 35,10 68,0 l 286,-82 z m 55,371 -343,136 -34,-84 344,-136 -52,-129 70,-28 138,345 -70,28 -53,-132 z m 342,480 -386,220 -45,-78 168,-96 -112,-195 -167,96 -45,-78 386,-221 45,78 -157,90 111,195 157,-90 45,79 z m 166,205 c 53,68 77,120 72,157 -6,36 -45,83 -119,140 -80,63 -138,93 -174,89 -36,-3 -84,-43 -144,-119 -54,-68 -78,-120 -73,-156 5,-37 42,-82 112,-137 83,-65 143,-97 180,-94 37,3 85,43 146,120 z m -61,39 c -38,-48 -66,-72 -84,-71 -17,1 -60,28 -128,81 -50,40 -77,68 -80,86 -2,17 14,49 51,96 35,44 61,66 80,66 18,0 57,-23 115,-69 59,-46 90,-78 94,-95 4,-16 -12,-48 -48,-94 z m -90,475 307,-322 170,162 c 43,40 65,75 68,104 3,29 -12,61 -47,97 -30,33 -56,51 -75,55 -19,5 -44,-2 -73,-22 l -2,3 c 36,38 36,77 -2,117 l -67,71 -66,-62 56,-59 c 32,-34 30,-67 -5,-100 l -95,-91 -103,109 -66,-62 z m 218,-98 94,90 c 23,22 41,32 56,31 14,0 32,-12 53,-34 22,-23 33,-41 33,-54 0,-13 -10,-29 -32,-50 l -99,-94 -105,111 z m 504,143 -274,350 -71,-56 274,-350 71,56 z m 366,243 -38,59 -385,112 -1,2 226,144 -38,59 -323,-205 39,-61 382,-112 1,-2 -211,-134 38,-60 310,198 z m 82,119 -48,105 204,93 -25,56 -205,-93 -52,115 218,99 -29,64 -300,-136 184,-405 297,135 -29,65 -215,-98 z m 167,481 145,-420 222,76 c 63,22 103,50 120,85 16,34 13,83 -9,148 -36,105 -69,169 -100,191 -31,23 -82,22 -153,-2 l -225,-78 z m 109,-37 122,42 c 41,14 71,15 89,1 18,-13 38,-50 59,-110 21,-62 29,-103 24,-124 -5,-21 -28,-38 -68,-52 l -127,-44 -99,287 z m 562,222 58,-441 232,30 c 55,7 91,20 109,39 18,19 23,51 18,96 -7,54 -35,83 -83,87 l 0,2 c 53,14 76,53 68,115 -6,45 -21,75 -44,91 -23,15 -61,19 -112,13 l -246,-32 z m 123,-244 110,14 c 36,5 59,4 70,-2 11,-6 18,-23 22,-49 4,-36 -15,-56 -58,-62 l -129,-16 -15,115 z m -24,185 99,13 31,4 c 31,4 51,2 62,-5 11,-6 18,-23 21,-48 4,-27 1,-45 -8,-53 -10,-8 -34,-15 -74,-20 l -115,-15 -16,124 z m 587,-340 c 87,-2 143,10 169,36 25,26 39,86 41,179 2,102 -9,166 -33,193 -25,27 -85,42 -182,44 -87,2 -143,-10 -169,-36 -26,-25 -40,-82 -42,-171 -2,-106 9,-173 33,-201 24,-27 85,-42 183,-44 z m -5,72 c -62,1 -97,9 -107,24 -10,15 -14,65 -12,152 1,63 8,102 20,115 13,12 49,18 107,17 57,-2 91,-10 102,-25 10,-15 15,-59 13,-133 -1,-75 -8,-119 -19,-132 -10,-14 -45,-20 -104,-18 z m 553,-127 89,-16 51,292 c 11,61 5,103 -16,127 -22,25 -72,43 -150,57 -82,15 -137,15 -166,1 -29,-14 -49,-52 -59,-112 l -52,-296 89,-15 52,296 c 6,32 15,52 30,58 14,7 44,6 90,-2 47,-8 76,-18 87,-29 10,-11 12,-34 6,-68 l -51,-293 z m 572,-164 141,422 -145,49 -207,-188 c -10,-10 -27,-27 -51,-51 l -24,-25 -25,-26 -3,1 11,28 10,27 19,55 81,242 -86,28 -141,-421 146,-49 189,174 c 17,16 37,35 59,57 l 29,29 29,29 3,-1 -10,-27 -10,-27 -19,-54 -81,-243 85,-29 z m 261,-41 170,328 -80,42 -170,-328 -123,64 -34,-67 329,-171 35,67 -127,65 z m 469,-368 0,327 92,142 -76,49 -92,-142 -294,-139 89,-56 124,59 c 7,4 19,10 37,20 l 18,9 18,10 2,-1 -1,-21 -2,-20 c -1,-18 -2,-32 -2,-42 l -2,-138 89,-57 z m 426,-389 307,321 -65,62 -133,-139 -162,155 133,140 -65,62 -308,-321 65,-63 126,131 162,-155 -125,-131 65,-62 z m 235,-294 56,-71 232,184 c 49,38 73,74 72,106 0,33 -24,80 -73,142 -52,65 -93,102 -124,111 -31,8 -70,-6 -118,-44 l -236,-186 56,-71 236,186 c 26,21 46,29 61,24 15,-4 37,-25 66,-62 29,-37 45,-64 45,-79 1,-15 -12,-34 -40,-55 l -233,-185 z m 309,-509 386,221 -77,133 -279,-3 c -14,0 -38,-1 -72,-4 l -35,-3 -35,-2 -2,3 26,13 26,14 51,28 221,127 -45,78 -386,-221 77,-133 257,4 c 23,1 50,2 82,3 l 41,2 40,3 2,-3 -25,-13 -26,-14 -50,-28 -222,-127 45,-78 z m 160,-211 344,134 -33,84 -344,-134 -51,129 -70,-28 136,-346 70,28 -52,133 z m 82,-267 111,31 61,-215 60,17 -62,215 121,35 66,-230 68,20 -90,316 -428,-122 90,-314 68,19 -65,228 z m 441,-240 -441,-57 30,-234 c 8,-58 22,-96 44,-116 21,-19 57,-26 106,-19 44,5 74,15 89,28 15,13 23,37 25,71 l 3,1 c 10,-52 42,-75 96,-68 l 97,13 -12,90 -80,-11 c -46,-6 -71,15 -78,64 l -16,129 148,20 -11,89 z m -208,-118 17,-129 c 4,-31 2,-52 -7,-63 -9,-12 -29,-19 -60,-23 -32,-4 -53,-3 -63,5 -10,7 -17,26 -21,55 l -18,135 152,20 z"
       id="path3425"
       inkscape:connector-curvature="0"
       style="fill:#000000;fill-rule:nonzero" /><circle
       class="fil3"
       cy="11000"
       r="3819"
       id="circle3427"
       cx="0"
       style="fill:none" /><path
       class="fil0"
       d="m 1084,10201 c -309,295 -659,366 -1084,366 -425,0 -775,-71 -1084,-366 -1,1 -2,2 -3,4 -39,52 -113,62 -165,23 -52,-39 -63,-113 -24,-165 294,-392 802,-559 1276,-559 474,0 982,167 1276,559 39,52 28,126 -24,165 -52,39 -126,29 -165,-23 -1,-2 -2,-3 -3,-4 z M 0,9701 c 87,0 157,70 157,157 0,87 -70,158 -157,158 -87,0 -157,-71 -157,-158 0,-87 70,-157 157,-157 z m 507,115 c 3,14 5,28 5,42 0,174 -229,315 -512,315 -283,0 -512,-141 -512,-315 0,-14 2,-28 5,-42 -150,47 -292,118 -412,216 262,249 558,299 919,299 361,0 657,-50 919,-299 -120,-98 -262,-169 -412,-216 z"
       id="path3429"
       inkscape:connector-curvature="0"
       style="fill:#000000" /><path
       class="fil4"
       d="m 394,8126 c 1034,128 1811,857 1811,1906 0,378 -79,732 -158,968 236,-236 428,-791 355,-1558 748,1024 236,2205 -630,2756 393,-40 669,-158 905,-433 -157,748 -630,1181 -1693,1023 276,315 709,315 866,237 -354,433 -826,551 -1378,236 -39,275 -393,787 -472,787 -79,0 -433,-512 -472,-787 -552,315 -1024,197 -1378,-236 157,78 590,78 866,-237 -1063,158 -1536,-275 -1693,-1023 236,275 512,393 905,433 -866,-551 -1378,-1732 -630,-2756 -73,767 119,1322 355,1558 -79,-236 -158,-590 -158,-968 0,-1049 777,-1778 1811,-1906 -618,205 -1063,875 -1063,1693 0,818 652,1552 1457,1552 805,0 1457,-734 1457,-1552 0,-818 -445,-1488 -1063,-1693 z"
       id="path3431"
       inkscape:connector-curvature="0"
       style="fill:#ffffff" /><path
       class="fil0"
       d="m 551,10647 c -257,467 -371,1500 -551,3188 -180,-1688 -294,-2721 -551,-3188 172,43 355,58 551,58 196,0 379,-15 551,-58 z"
       id="path3433"
       inkscape:connector-curvature="0"
       style="fill:#000000" /><path
       class="fil0"
       d="m 0,8244 c -157,0 -276,118 -276,197 40,0 99,39 99,118 0,59 -20,79 -20,236 0,108 40,256 40,355 0,98 -158,98 -237,98 -118,0 -197,-59 -236,-59 -103,0 -265,179 -150,329 245,-103 516,-152 780,-152 264,0 535,49 780,152 115,-150 -47,-329 -150,-329 -39,0 -118,59 -236,59 -79,0 -236,0 -236,-98 0,-99 39,-255 39,-355 0,-157 -20,-177 -20,-236 0,-79 59,-118 99,-118 0,-79 -118,-197 -276,-197 z"
       id="path3435"
       inkscape:connector-curvature="0"
       style="fill:#000000" /></g></svg>