<?xml version="1.0" encoding="UTF-8" standalone="no"?>
<!-- Creator: CorelDRAW X7 -->

<svg
   xmlns:dc="http://purl.org/dc/elements/1.1/"
   xmlns:cc="http://creativecommons.org/ns#"
   xmlns:rdf="http://www.w3.org/1999/02/22-rdf-syntax-ns#"
   xmlns:svg="http://www.w3.org/2000/svg"
   xmlns="http://www.w3.org/2000/svg"
   xmlns:sodipodi="http://sodipodi.sourceforge.net/DTD/sodipodi-0.dtd"
   xmlns:inkscape="http://www.inkscape.org/namespaces/inkscape"
   xml:space="preserve"
   width="7.8740005in"
   height="7.8740005in"
   version="1.1"
   style="clip-rule:evenodd;fill-rule:evenodd;image-rendering:optimizeQuality;shape-rendering:geometricPrecision;text-rendering:geometricPrecision"
   viewBox="0 0 7874.0005 7874.0005"
   id="svg3430"
   inkscape:version="0.91 r13725"
   sodipodi:docname="Aleph - Asura - [N3] [Vyo].svg"><metadata
     id="metadata3444"><rdf:RDF><cc:Work
         rdf:about=""><dc:format>image/svg+xml</dc:format><dc:type
           rdf:resource="http://purl.org/dc/dcmitype/StillImage" /></cc:Work></rdf:RDF></metadata><sodipodi:namedview
     pagecolor="#ffffff"
     bordercolor="#666666"
     borderopacity="1"
     objecttolerance="10"
     gridtolerance="10"
     guidetolerance="10"
     inkscape:pageopacity="0"
     inkscape:pageshadow="2"
     inkscape:window-width="640"
     inkscape:window-height="480"
     id="namedview3442"
     showgrid="false"
     inkscape:zoom="0.23838384"
     inkscape:cx="736.83001"
     inkscape:cy="849.33005"
     inkscape:window-x="0"
     inkscape:window-y="0"
     inkscape:window-maximized="0"
     inkscape:current-layer="svg3430" /><defs
     id="defs3432"><style
       type="text/css"
       id="style3434"><![CDATA[
    .fil1 {fill:black}
    .fil0 {fill:white}
   ]]></style></defs><g
     id="Layer_x0020_1"
     transform="translate(3937,-7063)"><metadata
       id="CorelCorpID_0Corel-Layer" /><circle
       class="fil0"
       cy="11000"
       r="3937"
       id="circle3438"
       cx="0"
       style="fill:#ffffff" /><path
       class="fil1"
       d="m 741,7293 c 1733,345 3039,1873 3039,3707 0,1768 -1215,3253 -2856,3665 L 692,12640 c 801,-285 1375,-1049 1375,-1948 0,-973 -672,-1789 -1577,-2009 l 0,0 c -40,-8 -66,-47 -58,-87 8,-40 47,-66 87,-58 1213,241 2127,1311 2127,2595 0,258 -38,508 -107,745 263,-442 414,-957 414,-1508 0,-1390 -960,-2555 -2253,-2869 l 0,0 c -58,-11 -95,-67 -83,-125 11,-57 67,-94 124,-83 z m -221,7451 c -170,23 -344,36 -520,36 -176,0 -350,-13 -520,-36 L 0,10213 520,14744 Z m -1444,-79 c -1641,-412 -2856,-1897 -2856,-3665 0,-1834 1306,-3362 3039,-3707 57,-11 113,26 124,83 12,58 -25,114 -83,125 l 0,0 c -1293,314 -2253,1479 -2253,2869 0,551 151,1066 414,1508 -69,-237 -107,-487 -107,-745 0,-1284 914,-2354 2127,-2595 40,-8 79,18 87,58 8,40 -18,79 -58,87 l 0,0 c -905,220 -1577,1036 -1577,2009 0,899 574,1663 1375,1948 l -232,2025 z"
       id="path3440"
       inkscape:connector-curvature="0"
       style="fill:#000000" /></g></svg>