<?xml version="1.0" encoding="UTF-8" standalone="no"?>
<!-- Creator: CorelDRAW X7 -->

<svg
   xmlns:dc="http://purl.org/dc/elements/1.1/"
   xmlns:cc="http://creativecommons.org/ns#"
   xmlns:rdf="http://www.w3.org/1999/02/22-rdf-syntax-ns#"
   xmlns:svg="http://www.w3.org/2000/svg"
   xmlns="http://www.w3.org/2000/svg"
   xmlns:sodipodi="http://sodipodi.sourceforge.net/DTD/sodipodi-0.dtd"
   xmlns:inkscape="http://www.inkscape.org/namespaces/inkscape"
   xml:space="preserve"
   width="7.8740005in"
   height="7.8740005in"
   version="1.1"
   style="clip-rule:evenodd;fill-rule:evenodd;image-rendering:optimizeQuality;shape-rendering:geometricPrecision;text-rendering:geometricPrecision"
   viewBox="0 0 7874.0005 7874.0005"
   id="svg3488"
   inkscape:version="0.91 r13725"
   sodipodi:docname="Aleph - Dakini Tactbot - [N3] [Vyo].svg"><metadata
     id="metadata3510"><rdf:RDF><cc:Work
         rdf:about=""><dc:format>image/svg+xml</dc:format><dc:type
           rdf:resource="http://purl.org/dc/dcmitype/StillImage" /></cc:Work></rdf:RDF></metadata><sodipodi:namedview
     pagecolor="#ffffff"
     bordercolor="#666666"
     borderopacity="1"
     objecttolerance="10"
     gridtolerance="10"
     guidetolerance="10"
     inkscape:pageopacity="0"
     inkscape:pageshadow="2"
     inkscape:window-width="640"
     inkscape:window-height="480"
     id="namedview3508"
     showgrid="false"
     inkscape:zoom="0.23838384"
     inkscape:cx="736.83001"
     inkscape:cy="849.33005"
     inkscape:window-x="0"
     inkscape:window-y="0"
     inkscape:window-maximized="0"
     inkscape:current-layer="svg3488" /><defs
     id="defs3490"><style
       type="text/css"
       id="style3492"><![CDATA[
    .str0 {stroke:black;stroke-width:3}
    .fil1 {fill:none}
    .fil2 {fill:black}
    .fil0 {fill:white}
   ]]></style></defs><g
     id="Layer_x0020_1"
     transform="translate(3937,-7063)"><metadata
       id="CorelCorpID_0Corel-Layer" /><circle
       class="fil0"
       cy="11000"
       r="3937"
       id="circle3496"
       cx="0"
       style="fill:#ffffff" /><circle
       class="fil1"
       cy="11000"
       r="3937"
       id="circle3498"
       cx="0"
       style="fill:none" /><path
       class="fil2"
       d="m 741,7293 c 1733,345 3039,1873 3039,3707 0,2087 -1693,3780 -3780,3780 -2087,0 -3780,-1693 -3780,-3780 0,-1834 1306,-3362 3039,-3707 57,-11 113,26 124,83 12,58 -25,114 -83,125 l 0,0 c -1293,314 -2253,1479 -2253,2869 0,1460 1059,2672 2451,2910 L 0,9031 502,13280 C 1894,13042 2953,11830 2953,10370 2953,8980 1993,7815 700,7501 l 0,0 c -58,-11 -95,-67 -83,-125 11,-57 67,-94 124,-83 z"
       id="path3500"
       inkscape:connector-curvature="0"
       style="fill:#000000" /><polyline
       class="fil1 str0"
       points="-231,7504 0,8638 231,7504 "
       id="polyline3502"
       style="fill:none;stroke:#000000;stroke-width:3" /><path
       class="fil2 str0"
       d="M 231,7505 0,8638 -231,7505 c -4,-16 -5,-32 -5,-48 0,-131 106,-237 236,-237 130,0 236,106 236,237 0,16 -1,32 -5,48 z"
       id="path3504"
       inkscape:connector-curvature="0"
       style="fill:#000000;stroke:#000000;stroke-width:3" /><path
       class="fil1 str0"
       d="M 231,7505 0,8638 -231,7505 c -4,-16 -5,-32 -5,-48 0,-131 106,-237 236,-237 130,0 236,106 236,237 0,16 -1,32 -5,48 z"
       id="path3506"
       inkscape:connector-curvature="0"
       style="fill:none;stroke:#000000;stroke-width:3" /></g></svg>