<?xml version="1.0" encoding="UTF-8" standalone="no"?>
<!-- Creator: CorelDRAW X7 -->

<svg
   xmlns:dc="http://purl.org/dc/elements/1.1/"
   xmlns:cc="http://creativecommons.org/ns#"
   xmlns:rdf="http://www.w3.org/1999/02/22-rdf-syntax-ns#"
   xmlns:svg="http://www.w3.org/2000/svg"
   xmlns="http://www.w3.org/2000/svg"
   xmlns:sodipodi="http://sodipodi.sourceforge.net/DTD/sodipodi-0.dtd"
   xmlns:inkscape="http://www.inkscape.org/namespaces/inkscape"
   xml:space="preserve"
   width="7.8740005in"
   height="8.3299999in"
   version="1.1"
   style="clip-rule:evenodd;fill-rule:evenodd;image-rendering:optimizeQuality;shape-rendering:geometricPrecision;text-rendering:geometricPrecision"
   viewBox="0 0 7874.0005 8329.9999"
   id="svg3706"
   inkscape:version="0.91 r13725"
   sodipodi:docname="Aleph - Nagas - [N3] [Vyo].svg"><metadata
     id="metadata3740"><rdf:RDF><cc:Work
         rdf:about=""><dc:format>image/svg+xml</dc:format><dc:type
           rdf:resource="http://purl.org/dc/dcmitype/StillImage" /></cc:Work></rdf:RDF></metadata><sodipodi:namedview
     pagecolor="#ffffff"
     bordercolor="#666666"
     borderopacity="1"
     objecttolerance="10"
     gridtolerance="10"
     guidetolerance="10"
     inkscape:pageopacity="0"
     inkscape:pageshadow="2"
     inkscape:window-width="640"
     inkscape:window-height="480"
     id="namedview3738"
     showgrid="false"
     inkscape:zoom="0.23838384"
     inkscape:cx="736.83001"
     inkscape:cy="849.33005"
     inkscape:window-x="0"
     inkscape:window-y="0"
     inkscape:window-maximized="0"
     inkscape:current-layer="svg3706" /><defs
     id="defs3708"><style
       type="text/css"
       id="style3710"><![CDATA[
    .fil2 {fill:none}
    .fil1 {fill:black}
    .fil0 {fill:white}
   ]]></style></defs><g
     id="Layer_x0020_1"
     transform="translate(3937,-6607)"><metadata
       id="CorelCorpID_0Corel-Layer" /><circle
       class="fil0"
       cy="11000"
       r="3937"
       id="circle3714"
       cx="0"
       style="fill:#ffffff" /><path
       class="fil1"
       d="m 408,8888 c 672,180 1167,793 1167,1521 0,75 -5,148 -15,220 l 0,0 c -10,64 -122,102 -251,84 -129,-18 -226,-86 -217,-150 7,-50 10,-101 10,-154 0,-510 -346,-939 -817,-1065 l 0,0 c -63,-16 -86,-132 -53,-258 34,-126 113,-215 176,-198 z m -1968,1741 c 10,64 122,102 251,84 129,-18 226,-86 217,-150 l 0,0 c -7,-50 -10,-101 -10,-154 0,-510 346,-939 817,-1065 l 0,0 0,0 c 63,-16 86,-132 53,-258 -34,-126 -113,-215 -176,-198 -672,180 -1167,793 -1167,1521 0,75 5,148 15,220 z"
       id="path3716"
       inkscape:connector-curvature="0"
       style="fill:#000000" /><path
       class="fil1"
       d="m 741,7293 c 1733,345 3039,1873 3039,3707 0,2087 -1693,3780 -3780,3780 -2087,0 -3780,-1693 -3780,-3780 0,-1834 1306,-3362 3039,-3707 57,-11 113,26 124,83 12,58 -25,114 -83,125 l 0,0 c -1293,314 -2253,1479 -2253,2869 0,1631 1322,2953 2953,2953 1631,0 2953,-1322 2953,-2953 0,-1390 -960,-2555 -2253,-2869 l 0,0 c -58,-11 -95,-67 -83,-125 11,-57 67,-94 124,-83 z"
       id="path3718"
       inkscape:connector-curvature="0"
       style="fill:#000000" /><circle
       class="fil2"
       cy="10409"
       r="2756"
       id="circle3720"
       cx="0"
       style="fill:none" /><line
       class="fil2"
       x1="3899"
       y1="10957"
       x2="-3899"
       y2="9862"
       id="line3722"
       style="fill:none" /><line
       class="fil2"
       x1="3899"
       y1="9862"
       x2="-3899"
       y2="10957"
       id="line3724"
       style="fill:none" /><line
       class="fil2"
       x1="1019"
       y1="14212"
       x2="-1019"
       y2="6607"
       id="line3726"
       style="fill:none" /><line
       class="fil2"
       x1="1019"
       y1="6607"
       x2="-1019"
       y2="14212"
       id="line3728"
       style="fill:none" /><path
       class="fil1"
       d="m 1416,11100 c -256,524 -794,884 -1416,884 -622,0 -1160,-360 -1416,-884 l 425,-207 0,0 c 179,366 556,619 991,619 435,0 812,-253 991,-619 l 0,0 425,207 z"
       id="path3730"
       inkscape:connector-curvature="0"
       style="fill:#000000" /><circle
       class="fil2"
       cy="10409"
       r="2756"
       id="circle3732"
       cx="0"
       style="fill:none" /><path
       class="fil1"
       d="m 2102,11937 c -472,649 -1238,1071 -2102,1071 -864,0 -1630,-422 -2102,-1071 l -128,92 -248,-411 921,-449 155,259 -318,231 c 386,531 1013,876 1720,876 707,0 1333,-345 1720,-876 l -318,-231 155,-259 921,449 -248,411 -128,-92 z"
       id="path3734"
       inkscape:connector-curvature="0"
       style="fill:#000000" /><path
       class="fil1"
       d="m 2105,10705 c -9,65 89,132 218,150 129,18 241,-19 250,-84 l 0,0 c 17,-118 25,-239 25,-362 0,-1202 -816,-2213 -1925,-2510 -63,-17 -142,72 -176,198 -33,126 -10,242 53,259 l 0,0 c 908,242 1576,1070 1576,2053 0,101 -7,200 -21,296 z m -4678,66 c -17,-118 -25,-239 -25,-362 0,-1202 816,-2213 1925,-2510 63,-17 142,72 176,198 33,126 10,242 -53,259 l 0,0 c -908,242 -1576,1070 -1576,2053 0,101 7,200 21,296 l 0,0 0,0 c 9,65 -89,132 -218,150 -129,18 -241,-19 -250,-84 z"
       id="path3736"
       inkscape:connector-curvature="0"
       style="fill:#000000" /></g></svg>