<?xml version="1.0" encoding="UTF-8" standalone="no"?>
<!-- Creator: CorelDRAW X7 -->

<svg
   xmlns:dc="http://purl.org/dc/elements/1.1/"
   xmlns:cc="http://creativecommons.org/ns#"
   xmlns:rdf="http://www.w3.org/1999/02/22-rdf-syntax-ns#"
   xmlns:svg="http://www.w3.org/2000/svg"
   xmlns="http://www.w3.org/2000/svg"
   xmlns:sodipodi="http://sodipodi.sourceforge.net/DTD/sodipodi-0.dtd"
   xmlns:inkscape="http://www.inkscape.org/namespaces/inkscape"
   xml:space="preserve"
   width="7.8740005in"
   height="7.8740005in"
   version="1.1"
   style="clip-rule:evenodd;fill-rule:evenodd;image-rendering:optimizeQuality;shape-rendering:geometricPrecision;text-rendering:geometricPrecision"
   viewBox="0 0 7874.0005 7874.0005"
   id="svg3538"
   inkscape:version="0.91 r13725"
   sodipodi:docname="Aleph - Dasyus - [N3] [Vyo].svg"><metadata
     id="metadata3558"><rdf:RDF><cc:Work
         rdf:about=""><dc:format>image/svg+xml</dc:format><dc:type
           rdf:resource="http://purl.org/dc/dcmitype/StillImage" /></cc:Work></rdf:RDF></metadata><sodipodi:namedview
     pagecolor="#ffffff"
     bordercolor="#666666"
     borderopacity="1"
     objecttolerance="10"
     gridtolerance="10"
     guidetolerance="10"
     inkscape:pageopacity="0"
     inkscape:pageshadow="2"
     inkscape:window-width="640"
     inkscape:window-height="480"
     id="namedview3556"
     showgrid="false"
     inkscape:zoom="0.23838384"
     inkscape:cx="736.83001"
     inkscape:cy="849.33005"
     inkscape:window-x="0"
     inkscape:window-y="0"
     inkscape:window-maximized="0"
     inkscape:current-layer="svg3538" /><defs
     id="defs3540"><style
       type="text/css"
       id="style3542"><![CDATA[
    .fil1 {fill:black}
    .fil0 {fill:white}
   ]]></style></defs><g
     id="Layer_x0020_1"
     transform="translate(3937,-7063)"><metadata
       id="CorelCorpID_0Corel-Layer" /><circle
       class="fil0"
       cy="11000"
       r="3937"
       id="circle3546"
       cx="0"
       style="fill:#ffffff" /><path
       class="fil1"
       d="m 741,7293 c 1733,345 3039,1873 3039,3707 0,2087 -1693,3780 -3780,3780 -2087,0 -3780,-1693 -3780,-3780 0,-1834 1306,-3362 3039,-3707 57,-11 113,26 124,83 12,58 -25,114 -83,125 l 0,0 c -1293,314 -2253,1479 -2253,2869 0,1631 1322,2953 2953,2953 1631,0 2953,-1322 2953,-2953 0,-1390 -960,-2555 -2253,-2869 l 0,0 c -58,-11 -95,-67 -83,-125 11,-57 67,-94 124,-83 z"
       id="path3548"
       inkscape:connector-curvature="0"
       style="fill:#000000" /><path
       class="fil1"
       d="m 0,13047 c 987,0 1849,-534 2313,-1328 -158,-68 -310,-147 -455,-237 -378,631 -1069,1053 -1858,1053 -789,0 -1480,-422 -1858,-1053 -145,90 -297,169 -455,237 464,794 1326,1328 2313,1328 z m 2448,-1592 c 147,-332 229,-699 229,-1085 C 2677,8891 1479,7693 0,7693 c -1479,0 -2677,1198 -2677,2677 0,386 82,753 229,1085 159,-67 311,-146 455,-237 -111,-260 -172,-547 -172,-848 0,-1196 969,-2165 2165,-2165 1196,0 2165,969 2165,2165 0,301 -61,588 -172,848 144,91 296,170 455,237 z"
       id="path3550"
       inkscape:connector-curvature="0"
       style="fill:#000000" /><rect
       class="fil1"
       x="-276"
       y="7220"
       width="551"
       height="1614"
       id="rect3552"
       style="fill:#000000" /><path
       class="fil1"
       d="m -1792,11440 c 365,609 1031,1017 1792,1017 761,0 1427,-408 1792,-1017 C 1004,10924 447,10084 309,9110 l -220,0 -178,0 -220,0 c -138,974 -695,1814 -1483,2330 z M 0,9573 c 200,776 642,1454 1241,1949 -309,333 -751,541 -1241,541 -490,0 -932,-208 -1241,-541 599,-495 1041,-1173 1241,-1949 z"
       id="path3554"
       inkscape:connector-curvature="0"
       style="fill:#000000" /></g></svg>