<?xml version="1.0" encoding="UTF-8" standalone="no"?>
<!-- Creator: CorelDRAW X7 -->

<svg
   xmlns:dc="http://purl.org/dc/elements/1.1/"
   xmlns:cc="http://creativecommons.org/ns#"
   xmlns:rdf="http://www.w3.org/1999/02/22-rdf-syntax-ns#"
   xmlns:svg="http://www.w3.org/2000/svg"
   xmlns="http://www.w3.org/2000/svg"
   xmlns:sodipodi="http://sodipodi.sourceforge.net/DTD/sodipodi-0.dtd"
   xmlns:inkscape="http://www.inkscape.org/namespaces/inkscape"
   xml:space="preserve"
   width="7.8740005in"
   height="7.8740005in"
   version="1.1"
   style="clip-rule:evenodd;fill-rule:evenodd;image-rendering:optimizeQuality;shape-rendering:geometricPrecision;text-rendering:geometricPrecision"
   viewBox="0 0 7874.0005 7874.0005"
   id="svg3816"
   inkscape:version="0.91 r13725"
   sodipodi:docname="Aleph - Samekh Rebots - [N3] [Vyo].svg"><metadata
     id="metadata3838"><rdf:RDF><cc:Work
         rdf:about=""><dc:format>image/svg+xml</dc:format><dc:type
           rdf:resource="http://purl.org/dc/dcmitype/StillImage" /></cc:Work></rdf:RDF></metadata><sodipodi:namedview
     pagecolor="#ffffff"
     bordercolor="#666666"
     borderopacity="1"
     objecttolerance="10"
     gridtolerance="10"
     guidetolerance="10"
     inkscape:pageopacity="0"
     inkscape:pageshadow="2"
     inkscape:window-width="640"
     inkscape:window-height="480"
     id="namedview3836"
     showgrid="false"
     inkscape:zoom="0.23838384"
     inkscape:cx="736.83001"
     inkscape:cy="849.33005"
     inkscape:window-x="0"
     inkscape:window-y="0"
     inkscape:window-maximized="0"
     inkscape:current-layer="svg3816" /><defs
     id="defs3818"><style
       type="text/css"
       id="style3820"><![CDATA[
    .fil1 {fill:black}
    .fil0 {fill:white}
   ]]></style></defs><g
     id="Layer_x0020_1"
     transform="translate(3937,-7063)"><metadata
       id="CorelCorpID_0Corel-Layer" /><circle
       class="fil0"
       cy="11000"
       r="3937"
       id="circle3824"
       cx="0"
       style="fill:#ffffff" /><path
       class="fil1"
       d="m 741,7293 c 1733,345 3039,1873 3039,3707 0,2087 -1693,3780 -3780,3780 -2087,0 -3780,-1693 -3780,-3780 0,-1834 1306,-3362 3039,-3707 57,-11 113,26 124,83 12,58 -25,114 -83,125 l 0,0 c -1293,314 -2253,1479 -2253,2869 0,1631 1322,2953 2953,2953 1631,0 2953,-1322 2953,-2953 0,-1390 -960,-2555 -2253,-2869 l 0,0 c -58,-11 -95,-67 -83,-125 11,-57 67,-94 124,-83 z"
       id="path3826"
       inkscape:connector-curvature="0"
       style="fill:#000000" /><path
       class="fil1"
       d="m 365,8215 c 1044,174 1840,1081 1840,2175 0,1217 -987,2204 -2205,2204 -1218,0 -2205,-987 -2205,-2204 0,-1094 796,-2001 1840,-2175 l 45,232 c -935,153 -1649,964 -1649,1943 0,1087 882,1968 1969,1968 1087,0 1969,-881 1969,-1968 0,-979 -714,-1790 -1649,-1943 l 45,-232 z"
       id="path3828"
       inkscape:connector-curvature="0"
       style="fill:#000000" /><path
       class="fil1"
       d="m 1602,12534 -546,315 c -32,18 -66,21 -100,8 -35,-13 -59,-38 -71,-72 L 480,11610 c -19,-54 3,-112 52,-141 l 137,-79 c 49,-28 110,-18 148,25 l 815,939 c 24,28 33,61 27,97 -6,36 -26,64 -57,83 z"
       id="path3830"
       inkscape:connector-curvature="0"
       style="fill:#000000" /><path
       class="fil1"
       d="m -1056,12849 -546,-315 c -31,-19 -51,-47 -57,-83 -6,-36 3,-69 27,-97 l 815,-939 c 38,-43 99,-53 148,-25 l 137,79 c 49,29 71,87 52,141 l -405,1175 c -12,34 -36,59 -71,72 -34,13 -68,10 -100,-8 z"
       id="path3832"
       inkscape:connector-curvature="0"
       style="fill:#000000" /><path
       class="fil1"
       d="m 315,13047 -630,0 c -36,0 -68,-15 -91,-43 -23,-28 -32,-61 -25,-97 l 236,-1221 c 11,-56 59,-95 116,-95 l 158,0 c 57,0 105,39 116,95 l 236,1221 c 7,36 -2,69 -25,97 -23,28 -55,43 -91,43 z"
       id="path3834"
       inkscape:connector-curvature="0"
       style="fill:#000000" /></g></svg>