<?xml version="1.0" encoding="UTF-8" standalone="no"?>
<!-- Creator: CorelDRAW X7 -->

<svg
   xmlns:dc="http://purl.org/dc/elements/1.1/"
   xmlns:cc="http://creativecommons.org/ns#"
   xmlns:rdf="http://www.w3.org/1999/02/22-rdf-syntax-ns#"
   xmlns:svg="http://www.w3.org/2000/svg"
   xmlns="http://www.w3.org/2000/svg"
   xmlns:sodipodi="http://sodipodi.sourceforge.net/DTD/sodipodi-0.dtd"
   xmlns:inkscape="http://www.inkscape.org/namespaces/inkscape"
   xml:space="preserve"
   width="7.8740005in"
   height="7.8740005in"
   version="1.1"
   style="clip-rule:evenodd;fill-rule:evenodd;image-rendering:optimizeQuality;shape-rendering:geometricPrecision;text-rendering:geometricPrecision"
   viewBox="0 0 7874.0005 7874.0005"
   id="svg3778"
   inkscape:version="0.91 r13725"
   sodipodi:docname="Aleph - Post-Humans - [N3] [Vyo].svg"><metadata
     id="metadata3796"><rdf:RDF><cc:Work
         rdf:about=""><dc:format>image/svg+xml</dc:format><dc:type
           rdf:resource="http://purl.org/dc/dcmitype/StillImage" /></cc:Work></rdf:RDF></metadata><sodipodi:namedview
     pagecolor="#ffffff"
     bordercolor="#666666"
     borderopacity="1"
     objecttolerance="10"
     gridtolerance="10"
     guidetolerance="10"
     inkscape:pageopacity="0"
     inkscape:pageshadow="2"
     inkscape:window-width="640"
     inkscape:window-height="480"
     id="namedview3794"
     showgrid="false"
     inkscape:zoom="0.23838384"
     inkscape:cx="736.83001"
     inkscape:cy="849.33005"
     inkscape:window-x="0"
     inkscape:window-y="0"
     inkscape:window-maximized="0"
     inkscape:current-layer="svg3778" /><defs
     id="defs3780"><style
       type="text/css"
       id="style3782"><![CDATA[
    .fil1 {fill:black}
    .fil0 {fill:white}
   ]]></style></defs><g
     id="Layer_x0020_1"
     transform="translate(3937,-7063)"><metadata
       id="CorelCorpID_0Corel-Layer" /><circle
       class="fil0"
       cy="11000"
       r="3937"
       id="circle3786"
       cx="0"
       style="fill:#ffffff" /><path
       class="fil1"
       d="m 741,7293 c 1733,345 3039,1873 3039,3707 0,2087 -1693,3780 -3780,3780 -2087,0 -3780,-1693 -3780,-3780 0,-1834 1306,-3362 3039,-3707 57,-11 113,26 124,83 12,58 -25,114 -83,125 l 0,0 c -1293,314 -2253,1479 -2253,2869 0,1631 1322,2953 2953,2953 1631,0 2953,-1322 2953,-2953 0,-1390 -960,-2555 -2253,-2869 l 0,0 c -58,-11 -95,-67 -83,-125 11,-57 67,-94 124,-83 z"
       id="path3788"
       inkscape:connector-curvature="0"
       style="fill:#000000" /><path
       class="fil1"
       d="m 427,8370 -2,0 c -44,-13 -89,12 -102,56 -13,44 12,90 56,103 l 0,0 c 643,167 1117,752 1117,1447 0,827 -670,1496 -1496,1496 -826,0 -1496,-669 -1496,-1496 0,-695 474,-1280 1117,-1447 l 0,0 c 44,-13 69,-59 56,-103 -13,-44 -58,-69 -102,-56 l -2,0 c -860,195 -1502,963 -1502,1882 0,1065 864,1929 1929,1929 1065,0 1929,-864 1929,-1929 0,-919 -642,-1687 -1502,-1882 z"
       id="path3790"
       inkscape:connector-curvature="0"
       style="fill:#000000" /><path
       class="fil1"
       d="m -443,7942 c -16,-55 -74,-87 -129,-71 -1225,263 -2145,1352 -2145,2657 0,1500 1217,2716 2717,2716 1500,0 2717,-1216 2717,-2716 0,-1305 -920,-2394 -2145,-2657 -55,-16 -113,16 -129,71 -16,55 15,112 70,128 l 0,0 0,0 1,0 c 2,1 3,2 5,2 923,232 1607,1067 1607,2062 0,1174 -952,2126 -2126,2126 -1174,0 -2126,-952 -2126,-2126 0,-995 684,-1830 1607,-2062 2,0 3,-1 5,-2 l 1,0 0,0 0,0 c 55,-16 86,-73 70,-128 z"
       id="path3792"
       inkscape:connector-curvature="0"
       style="fill:#000000" /></g></svg>