<?xml version="1.0" encoding="UTF-8" standalone="no"?>
<!-- Creator: CorelDRAW X7 -->

<svg
   xmlns:dc="http://purl.org/dc/elements/1.1/"
   xmlns:cc="http://creativecommons.org/ns#"
   xmlns:rdf="http://www.w3.org/1999/02/22-rdf-syntax-ns#"
   xmlns:svg="http://www.w3.org/2000/svg"
   xmlns="http://www.w3.org/2000/svg"
   xmlns:sodipodi="http://sodipodi.sourceforge.net/DTD/sodipodi-0.dtd"
   xmlns:inkscape="http://www.inkscape.org/namespaces/inkscape"
   xml:space="preserve"
   width="7.8740005in"
   height="7.8740005in"
   version="1.1"
   style="clip-rule:evenodd;fill-rule:evenodd;image-rendering:optimizeQuality;shape-rendering:geometricPrecision;text-rendering:geometricPrecision"
   viewBox="0 0 7874.0005 7874.0005"
   id="svg3892"
   inkscape:version="0.91 r13725"
   sodipodi:docname="Aleph - Sophotects - [N3] [Vyo].svg"><metadata
     id="metadata3914"><rdf:RDF><cc:Work
         rdf:about=""><dc:format>image/svg+xml</dc:format><dc:type
           rdf:resource="http://purl.org/dc/dcmitype/StillImage" /></cc:Work></rdf:RDF></metadata><sodipodi:namedview
     pagecolor="#ffffff"
     bordercolor="#666666"
     borderopacity="1"
     objecttolerance="10"
     gridtolerance="10"
     guidetolerance="10"
     inkscape:pageopacity="0"
     inkscape:pageshadow="2"
     inkscape:window-width="640"
     inkscape:window-height="480"
     id="namedview3912"
     showgrid="false"
     inkscape:zoom="0.23838384"
     inkscape:cx="736.83001"
     inkscape:cy="849.33005"
     inkscape:window-x="0"
     inkscape:window-y="0"
     inkscape:window-maximized="0"
     inkscape:current-layer="svg3892" /><defs
     id="defs3894"><style
       type="text/css"
       id="style3896"><![CDATA[
    .fil1 {fill:black}
    .fil0 {fill:white}
   ]]></style></defs><g
     id="Layer_x0020_1"
     transform="translate(3937,-7063)"><metadata
       id="CorelCorpID_0Corel-Layer" /><circle
       class="fil0"
       cy="11000"
       r="3937"
       id="circle3900"
       cx="0"
       style="fill:#ffffff" /><path
       class="fil1"
       d="m 741,7293 c 1733,345 3039,1873 3039,3707 0,2087 -1693,3780 -3780,3780 -2087,0 -3780,-1693 -3780,-3780 0,-1834 1306,-3362 3039,-3707 57,-11 113,26 124,83 12,58 -25,114 -83,125 l 0,0 c -1293,314 -2253,1479 -2253,2869 0,1631 1322,2953 2953,2953 1631,0 2953,-1322 2953,-2953 0,-1390 -960,-2555 -2253,-2869 l 0,0 c -58,-11 -95,-67 -83,-125 11,-57 67,-94 124,-83 z"
       id="path3902"
       inkscape:connector-curvature="0"
       style="fill:#000000" /><g
       id="g3904"><path
         class="fil1"
         d="m 0,7732 c 1457,0 2638,1181 2638,2638 0,1274 -904,2338 -2105,2584 l 0,0 0,0 c -128,26 -253,-56 -279,-184 -27,-127 55,-252 183,-279 987,-202 1728,-1075 1728,-2121 0,-1196 -969,-2165 -2165,-2165 -1196,0 -2165,969 -2165,2165 0,1046 741,1919 1728,2121 128,27 210,152 183,279 -26,128 -151,210 -279,184 l 0,0 c -1201,-246 -2105,-1310 -2105,-2584 0,-1457 1181,-2638 2638,-2638 z m -533,5222 0,0 0,0 z"
         id="path3906"
         inkscape:connector-curvature="0"
         style="fill:#000000" /></g><path
       class="fil1"
       d="m 441,8817 c 676,192 1172,815 1172,1553 0,738 -496,1361 -1172,1553 l 0,0 0,0 c -126,36 -256,-37 -292,-163 -36,-125 37,-256 163,-292 404,-115 717,-447 804,-862 l -2235,0 c 88,416 402,749 807,863 126,36 199,166 163,292 -36,125 -166,198 -292,163 l 0,0 0,0 c -678,-192 -1175,-815 -1175,-1554 0,-739 497,-1362 1175,-1554 126,-35 256,38 292,163 36,126 -37,256 -163,292 l 0,0 0,0 c -405,114 -719,447 -807,863 l 2235,0 C 1029,9719 716,9387 312,9272 l 0,0 C 186,9236 113,9106 149,8980 185,8854 315,8782 441,8817 Z"
       id="path3908"
       inkscape:connector-curvature="0"
       style="fill:#000000" /><path
       class="fil1"
       d="m 0,7220 c 130,0 236,106 236,237 l 0,551 -472,0 0,-551 c 0,-131 106,-237 236,-237 z"
       id="path3910"
       inkscape:connector-curvature="0"
       style="fill:#000000" /></g></svg>