<?xml version="1.0" encoding="UTF-8" standalone="no"?>
<!-- Creator: CorelDRAW X7 -->

<svg
   xmlns:dc="http://purl.org/dc/elements/1.1/"
   xmlns:cc="http://creativecommons.org/ns#"
   xmlns:rdf="http://www.w3.org/1999/02/22-rdf-syntax-ns#"
   xmlns:svg="http://www.w3.org/2000/svg"
   xmlns="http://www.w3.org/2000/svg"
   xmlns:sodipodi="http://sodipodi.sourceforge.net/DTD/sodipodi-0.dtd"
   xmlns:inkscape="http://www.inkscape.org/namespaces/inkscape"
   xml:space="preserve"
   width="7.8740005in"
   height="7.8740005in"
   version="1.1"
   style="clip-rule:evenodd;fill-rule:evenodd;image-rendering:optimizeQuality;shape-rendering:geometricPrecision;text-rendering:geometricPrecision"
   viewBox="0 0 7874.0005 7874.0005"
   id="svg3598"
   inkscape:version="0.91 r13725"
   sodipodi:docname="Aleph - Garuda Tacbots - [N3] [Vyo].svg"><metadata
     id="metadata3616"><rdf:RDF><cc:Work
         rdf:about=""><dc:format>image/svg+xml</dc:format><dc:type
           rdf:resource="http://purl.org/dc/dcmitype/StillImage" /></cc:Work></rdf:RDF></metadata><sodipodi:namedview
     pagecolor="#ffffff"
     bordercolor="#666666"
     borderopacity="1"
     objecttolerance="10"
     gridtolerance="10"
     guidetolerance="10"
     inkscape:pageopacity="0"
     inkscape:pageshadow="2"
     inkscape:window-width="640"
     inkscape:window-height="480"
     id="namedview3614"
     showgrid="false"
     inkscape:zoom="0.23838384"
     inkscape:cx="736.83001"
     inkscape:cy="849.33005"
     inkscape:window-x="0"
     inkscape:window-y="0"
     inkscape:window-maximized="0"
     inkscape:current-layer="svg3598" /><defs
     id="defs3600"><style
       type="text/css"
       id="style3602"><![CDATA[
    .fil1 {fill:black}
    .fil0 {fill:white}
   ]]></style></defs><g
     id="Layer_x0020_1"
     transform="translate(3937,-7063)"><metadata
       id="CorelCorpID_0Corel-Layer" /><circle
       class="fil0"
       cy="11000"
       r="3937"
       id="circle3606"
       cx="0"
       style="fill:#ffffff" /><path
       class="fil1"
       d="m 727,7368 c 1697,338 2977,1836 2977,3633 0,2045 -1658,3704 -3704,3704 -2046,0 -3704,-1659 -3704,-3704 0,-1797 1280,-3295 2977,-3633 57,-11 111,25 123,82 11,56 -26,110 -82,122 l 0,0 c -1267,308 -2208,1450 -2208,2811 0,1599 1296,2894 2894,2894 1598,0 2894,-1295 2894,-2894 0,-1361 -941,-2503 -2208,-2811 l 0,0 c -56,-12 -93,-66 -82,-122 12,-57 66,-93 123,-82 z"
       id="path3608"
       inkscape:connector-curvature="0"
       style="fill:#000000" /><path
       class="fil1"
       d="m 2753,10743 c -169,1331 -1281,2368 -2645,2420 l 344,-635 c 784,-165 1414,-751 1641,-1511 -326,-191 -681,-340 -1056,-437 34,-197 55,-395 62,-593 605,144 1164,404 1654,756 z m -2861,2420 c -1364,-52 -2476,-1089 -2645,-2420 490,-352 1049,-612 1654,-756 7,198 28,396 62,593 -375,97 -730,246 -1056,437 227,760 857,1346 1641,1511 l 344,635 z"
       id="path3610"
       inkscape:connector-curvature="0"
       style="fill:#000000" /><path
       class="fil1"
       d="m 0,7142 c 591,698 945,1668 945,2677 0,800 -223,1576 -610,2211 L 174,10968 C 294,10595 354,10203 354,9819 354,9279 235,8724 0,8229 c -235,495 -354,1050 -354,1590 0,384 60,776 180,1149 l -161,1062 C -722,11395 -945,10619 -945,9819 -945,8810 -591,7840 0,7142 Z"
       id="path3612"
       inkscape:connector-curvature="0"
       style="fill:#000000" /></g></svg>