<?xml version="1.0" encoding="UTF-8" standalone="no"?>
<!-- Creator: CorelDRAW X7 -->

<svg
   xmlns:dc="http://purl.org/dc/elements/1.1/"
   xmlns:cc="http://creativecommons.org/ns#"
   xmlns:rdf="http://www.w3.org/1999/02/22-rdf-syntax-ns#"
   xmlns:svg="http://www.w3.org/2000/svg"
   xmlns="http://www.w3.org/2000/svg"
   xmlns:sodipodi="http://sodipodi.sourceforge.net/DTD/sodipodi-0.dtd"
   xmlns:inkscape="http://www.inkscape.org/namespaces/inkscape"
   xml:space="preserve"
   width="7.8740005in"
   height="7.8740005in"
   version="1.1"
   style="clip-rule:evenodd;fill-rule:evenodd;image-rendering:optimizeQuality;shape-rendering:geometricPrecision;text-rendering:geometricPrecision"
   viewBox="0 0 7874.0005 7874.0005"
   id="svg3970"
   inkscape:version="0.91 r13725"
   sodipodi:docname="Aleph - Zayin Rebots - [N3] [Vyo].svg"><metadata
     id="metadata4002"><rdf:RDF><cc:Work
         rdf:about=""><dc:format>image/svg+xml</dc:format><dc:type
           rdf:resource="http://purl.org/dc/dcmitype/StillImage" /></cc:Work></rdf:RDF></metadata><sodipodi:namedview
     pagecolor="#ffffff"
     bordercolor="#666666"
     borderopacity="1"
     objecttolerance="10"
     gridtolerance="10"
     guidetolerance="10"
     inkscape:pageopacity="0"
     inkscape:pageshadow="2"
     inkscape:window-width="640"
     inkscape:window-height="480"
     id="namedview4000"
     showgrid="false"
     inkscape:zoom="0.23838384"
     inkscape:cx="736.83001"
     inkscape:cy="849.33005"
     inkscape:window-x="0"
     inkscape:window-y="0"
     inkscape:window-maximized="0"
     inkscape:current-layer="svg3970" /><defs
     id="defs3972"><style
       type="text/css"
       id="style3974"><![CDATA[
    .fil1 {fill:black}
    .fil0 {fill:white}
   ]]></style></defs><g
     id="Layer_x0020_1"
     transform="translate(3937,-7063)"><metadata
       id="CorelCorpID_0Corel-Layer" /><circle
       class="fil0"
       cy="11000"
       r="3937"
       id="circle3978"
       cx="0"
       style="fill:#ffffff" /><path
       class="fil1"
       d="m 1602,12534 -546,315 c -32,18 -66,21 -100,8 -35,-13 -59,-38 -71,-72 L 480,11610 c -19,-54 3,-112 52,-141 l 137,-79 c 49,-28 110,-18 148,25 l 815,939 c 24,28 33,61 27,97 -6,36 -26,64 -57,83 z"
       id="path3980"
       inkscape:connector-curvature="0"
       style="fill:#000000" /><path
       class="fil1"
       d="m 741,7293 c 1733,345 3039,1873 3039,3707 0,2087 -1693,3780 -3780,3780 -2087,0 -3780,-1693 -3780,-3780 0,-1834 1306,-3362 3039,-3707 57,-11 113,26 124,83 12,58 -25,114 -83,125 l 0,0 c -1293,314 -2253,1479 -2253,2869 0,1631 1322,2953 2953,2953 1631,0 2953,-1322 2953,-2953 0,-1390 -960,-2555 -2253,-2869 l 0,0 c -58,-11 -95,-67 -83,-125 11,-57 67,-94 124,-83 z"
       id="path3982"
       inkscape:connector-curvature="0"
       style="fill:#000000" /><path
       class="fil1"
       d="m -1056,12849 -546,-315 c -31,-19 -51,-47 -57,-83 -6,-36 3,-69 27,-97 l 815,-939 c 38,-43 99,-53 148,-25 l 137,79 c 49,29 71,87 52,141 l -405,1175 c -12,34 -36,59 -71,72 -34,13 -68,10 -100,-8 z"
       id="path3984"
       inkscape:connector-curvature="0"
       style="fill:#000000" /><path
       class="fil1"
       d="m -1602,8246 546,-315 c 32,-18 66,-21 100,-9 35,13 59,38 71,73 l 405,1175 c 19,54 -3,112 -52,140 l -137,79 c -49,29 -110,19 -148,-25 l -815,-938 c -24,-28 -33,-61 -27,-97 6,-36 26,-65 57,-83 z"
       id="path3986"
       inkscape:connector-curvature="0"
       style="fill:#000000" /><path
       class="fil1"
       d="m 1056,7931 546,315 c 31,18 51,47 57,83 6,36 -3,69 -27,97 l -815,938 c -38,44 -99,54 -148,25 l -137,-79 c -49,-28 -71,-86 -52,-140 L 885,7995 c 12,-35 36,-60 71,-73 34,-12 68,-9 100,9 z"
       id="path3988"
       inkscape:connector-curvature="0"
       style="fill:#000000" /><path
       class="fil1"
       d="m -2459,9334 315,-546 c 18,-31 47,-51 83,-57 36,-6 69,3 97,27 l 939,815 c 43,37 53,99 24,148 l -78,137 c -29,49 -87,71 -141,52 l -1175,-406 c -35,-11 -60,-36 -72,-70 -13,-34 -10,-69 8,-100 z"
       id="path3990"
       inkscape:connector-curvature="0"
       style="fill:#000000" /><path
       class="fil1"
       d="m 2144,8788 315,546 c 18,31 21,66 8,100 -12,34 -37,59 -72,70 l -1175,406 c -54,19 -112,-3 -141,-52 l -78,-137 c -29,-49 -19,-111 24,-148 l 939,-815 c 28,-24 61,-33 97,-27 36,6 65,26 83,57 z"
       id="path3992"
       inkscape:connector-curvature="0"
       style="fill:#000000" /><path
       class="fil1"
       d="m -2144,11991 -315,-545 c -18,-32 -21,-66 -8,-101 12,-34 37,-58 72,-70 l 1175,-406 c 54,-18 112,3 141,53 l 78,136 c 29,50 19,111 -24,149 l -939,814 c -28,24 -61,34 -97,28 -36,-6 -65,-26 -83,-58 z"
       id="path3994"
       inkscape:connector-curvature="0"
       style="fill:#000000" /><path
       class="fil1"
       d="m 2459,11446 -315,545 c -18,32 -47,52 -83,58 -36,6 -69,-4 -97,-28 l -939,-814 c -43,-38 -53,-99 -24,-149 l 78,-136 c 29,-50 87,-71 141,-53 l 1175,406 c 35,12 60,36 72,70 13,35 10,69 -8,101 z"
       id="path3996"
       inkscape:connector-curvature="0"
       style="fill:#000000" /><path
       class="fil1"
       d="m 365,8215 c 925,154 1656,885 1810,1810 l -232,45 C 1807,9239 1151,8583 320,8447 l 45,-232 z m 1810,2539 c -154,926 -885,1656 -1810,1810 l -45,-232 c 831,-135 1487,-791 1623,-1622 l 232,44 z m -2540,1810 c -925,-154 -1655,-884 -1810,-1810 l 232,-44 c 136,831 792,1487 1623,1622 l -45,232 z m -1810,-2539 c 154,-925 885,-1656 1810,-1810 l 45,232 c -831,136 -1487,792 -1623,1623 l -232,-45 z"
       id="path3998"
       inkscape:connector-curvature="0"
       style="fill:#000000" /></g></svg>