<?xml version="1.0" encoding="UTF-8" standalone="no"?>
<!-- Creator: CorelDRAW X7 -->

<svg
   xmlns:dc="http://purl.org/dc/elements/1.1/"
   xmlns:cc="http://creativecommons.org/ns#"
   xmlns:rdf="http://www.w3.org/1999/02/22-rdf-syntax-ns#"
   xmlns:svg="http://www.w3.org/2000/svg"
   xmlns="http://www.w3.org/2000/svg"
   xmlns:sodipodi="http://sodipodi.sourceforge.net/DTD/sodipodi-0.dtd"
   xmlns:inkscape="http://www.inkscape.org/namespaces/inkscape"
   xml:space="preserve"
   width="7.8740005in"
   height="7.8740005in"
   version="1.1"
   style="clip-rule:evenodd;fill-rule:evenodd;image-rendering:optimizeQuality;shape-rendering:geometricPrecision;text-rendering:geometricPrecision"
   viewBox="0 0 7874.0005 7874.0005"
   id="svg2"
   inkscape:version="0.91 r13725"
   sodipodi:docname="Aleph - Achilles v2 (Hoplite Armor) - [N3] [Vyo].svg"><metadata
     id="metadata30"><rdf:RDF><cc:Work
         rdf:about=""><dc:format>image/svg+xml</dc:format><dc:type
           rdf:resource="http://purl.org/dc/dcmitype/StillImage" /></cc:Work></rdf:RDF></metadata><sodipodi:namedview
     pagecolor="#ffffff"
     bordercolor="#666666"
     borderopacity="1"
     objecttolerance="10"
     gridtolerance="10"
     guidetolerance="10"
     inkscape:pageopacity="0"
     inkscape:pageshadow="2"
     inkscape:window-width="640"
     inkscape:window-height="480"
     id="namedview28"
     showgrid="false"
     inkscape:zoom="0.23838384"
     inkscape:cx="736.83001"
     inkscape:cy="849.33005"
     inkscape:window-x="0"
     inkscape:window-y="0"
     inkscape:window-maximized="0"
     inkscape:current-layer="svg2" /><defs
     id="defs4"><style
       type="text/css"
       id="style6"><![CDATA[
    .str0 {stroke:black;stroke-width:3}
    .fil0 {fill:none}
    .fil2 {fill:black}
    .fil1 {fill:white}
    .fil3 {fill:white;fill-rule:nonzero}
   ]]></style></defs><g
     id="Layer_x0020_1"
     transform="translate(3937,-7063)"><metadata
       id="CorelCorpID_0Corel-Layer" /><circle
       class="fil0"
       cy="11000"
       r="3937"
       id="circle10"
       cx="0"
       style="fill:none" /><path
       class="fil0"
       d="m 741,7293 c 1733,345 3039,1873 3039,3707 0,2087 -1693,3780 -3780,3780 -2087,0 -3780,-1693 -3780,-3780 0,-1834 1306,-3362 3039,-3707 57,-11 113,26 124,83 12,58 -25,114 -83,125 l 0,0 c -1293,314 -2253,1479 -2253,2869 0,1631 1322,2953 2953,2953 1631,0 2953,-1322 2953,-2953 0,-1390 -960,-2555 -2253,-2869 l 0,0 c -58,-11 -95,-67 -83,-125 11,-57 67,-94 124,-83 z"
       id="path12"
       inkscape:connector-curvature="0"
       style="fill:none" /><circle
       class="fil1"
       cy="11000"
       r="3937"
       id="circle14"
       cx="0"
       style="fill:#ffffff" /><path
       class="fil2"
       d="m 741,7293 c 1733,345 3039,1873 3039,3707 0,2087 -1693,3780 -3780,3780 -2087,0 -3780,-1693 -3780,-3780 0,-1834 1306,-3362 3039,-3707 57,-11 113,26 124,83 12,58 -25,114 -83,125 l 0,0 c -1293,314 -2253,1479 -2253,2869 0,1631 1322,2953 2953,2953 1631,0 2953,-1322 2953,-2953 0,-1390 -960,-2555 -2253,-2869 l 0,0 c -58,-11 -95,-67 -83,-125 11,-57 67,-94 124,-83 z"
       id="path16"
       inkscape:connector-curvature="0"
       style="fill:#000000" /><path
       class="fil2"
       d="M 2147,8907 0,9898 -2147,8907 c -83,121 -156,249 -217,384 l 1931,1355 186,2311 c 82,7 164,12 247,12 83,0 165,-5 247,-12 L 433,10646 2364,9291 c -61,-135 -134,-263 -217,-384 z M 367,7797 c 689,98 1292,466 1697,994 L 0,9504 -2064,8791 c 405,-528 1008,-896 1697,-994 l -105,-183 944,0 -105,183 z m -120,5160 c 1319,-125 2351,-1235 2351,-2587 0,-385 -83,-750 -234,-1079 L 247,12957 Z M -2364,9291 c -151,329 -234,694 -234,1079 0,1352 1032,2462 2351,2587 L -2364,9291 Z"
       id="path18"
       inkscape:connector-curvature="0"
       style="fill:#000000" /><circle
       class="fil0"
       cy="11000"
       r="3898"
       id="circle20"
       cx="0"
       style="fill:none" /><path
       class="fil1 str0"
       d="m 69,9149 c -30,53 -108,53 -138,0 l -431,-748 c -32,-52 5,-120 67,-120 l 866,0 c 62,0 99,68 67,120 L 69,9149 Z"
       id="path22"
       inkscape:connector-curvature="0"
       style="fill:#ffffff;stroke:#000000;stroke-width:3" /><circle
       class="fil0"
       cy="11000"
       r="3898"
       id="circle24"
       cx="0"
       style="fill:none" /><path
       class="fil3"
       d="m -1735,13813 13,-20 c 16,6 28,9 37,10 9,1 17,0 24,-4 7,-4 13,-11 19,-21 6,-9 12,-20 16,-32 5,-12 10,-27 14,-43 l 18,-63 -192,-121 -40,32 c -20,15 -34,28 -43,37 -9,9 -16,18 -21,26 -11,17 -14,32 -11,45 4,13 14,26 29,39 l -12,21 -177,-112 13,-20 c 17,7 36,7 57,-1 21,-9 46,-24 75,-46 l 461,-348 65,41 -150,549 c -7,26 -11,46 -14,60 -2,15 -1,28 2,38 3,11 10,22 21,33 l -13,20 -191,-120 z m -17,-323 172,109 90,-316 -262,207 z m 389,595 c -35,30 -68,61 -98,93 l -90,-34 9,-22 c 20,-11 62,-40 125,-87 l 189,-143 c 4,-80 5,-141 4,-181 -1,-40 -5,-67 -11,-81 -7,-13 -16,-23 -30,-28 -10,-4 -26,-3 -47,3 l -8,-34 c 43,-14 79,-16 108,-5 30,12 47,35 53,68 5,34 1,109 -12,226 l 112,-101 c 45,-41 76,-70 94,-89 l 90,35 -9,22 c -21,10 -63,39 -125,86 l -164,124 c -8,128 -10,211 -5,248 5,37 18,59 39,67 11,4 26,3 48,-2 l 8,34 c -44,14 -79,16 -105,6 -33,-13 -52,-37 -58,-72 -5,-34 0,-118 16,-250 l -133,117 z m 608,-345 82,19 -76,336 c -12,51 0,81 36,89 16,4 34,1 52,-8 l 13,32 c -40,20 -76,26 -109,19 -69,-16 -94,-64 -76,-144 l 78,-343 z m 212,510 c 31,-34 62,-76 92,-126 l 180,-294 c -12,-66 -24,-113 -37,-140 -12,-28 -33,-42 -63,-45 -28,-2 -55,10 -82,35 l -22,-28 c 49,-45 95,-67 139,-63 30,2 53,13 69,31 15,19 27,47 36,86 8,39 19,114 31,224 17,144 31,235 43,273 12,39 29,59 50,60 15,1 29,-3 42,-12 l 16,30 c -34,23 -63,33 -89,31 -36,-2 -61,-23 -74,-62 -13,-38 -27,-140 -42,-306 l -3,0 c -64,108 -127,220 -189,337 l -98,-7 1,-24 z m 598,37 c 25,-38 49,-84 71,-138 l 133,-318 c -21,-63 -40,-108 -56,-133 -17,-25 -40,-37 -70,-34 -28,2 -53,17 -76,46 l -26,-24 c 42,-52 84,-80 128,-84 30,-2 55,5 73,21 18,16 34,43 49,80 14,37 35,109 65,216 37,140 65,228 83,264 18,36 37,53 58,52 15,-2 28,-8 40,-19 l 21,28 c -30,27 -58,42 -84,44 -36,3 -64,-14 -82,-50 -19,-37 -48,-135 -88,-297 l -3,0 c -47,117 -92,237 -136,362 l -99,8 -1,-24 z m 955,-212 c -42,67 -100,112 -175,134 -51,14 -94,15 -129,2 -34,-13 -57,-39 -68,-78 -8,-28 -6,-56 8,-84 13,-28 37,-53 72,-74 l -1,-5 c -73,2 -117,-24 -132,-77 -10,-32 -1,-62 24,-91 26,-30 66,-52 121,-68 40,-11 90,-17 151,-16 l 23,81 -48,14 c -33,-40 -73,-53 -122,-39 -25,7 -43,19 -55,36 -12,18 -14,38 -8,61 8,28 24,45 46,53 23,7 57,4 104,-10 l 27,-8 15,51 -43,12 c -41,12 -70,28 -87,49 -16,21 -21,45 -12,74 16,55 58,73 125,53 52,-15 94,-47 128,-96 l 36,26 z m -27,-337 -28,-17 c 20,-40 43,-66 68,-78 26,-11 49,-11 68,2 19,13 38,40 57,81 l 61,135 c 43,96 99,129 167,98 34,-15 56,-42 63,-79 8,-37 0,-81 -23,-132 -43,-95 -92,-154 -147,-177 l -11,-24 86,-38 c 49,42 91,101 125,177 31,69 39,134 23,196 -16,62 -54,106 -114,133 -56,26 -104,28 -143,9 -40,-20 -74,-62 -102,-125 l -58,-127 c -16,-36 -27,-57 -35,-64 -7,-7 -15,-8 -25,-4 -8,4 -19,15 -32,34 z m 186,-433 10,22 -26,213 -40,-1 -23,-199 79,-35 z m 600,-64 53,74 -49,35 c -42,-29 -81,-30 -116,-5 -27,19 -40,47 -40,85 0,37 15,78 47,122 28,39 57,64 87,76 30,11 74,8 132,-10 39,-11 69,-16 90,-14 22,3 41,15 57,37 18,27 27,59 24,96 -2,38 -13,84 -32,138 l -44,-11 c 24,-71 23,-123 -1,-156 -10,-15 -22,-23 -35,-25 -13,-2 -31,1 -55,7 -73,21 -131,25 -173,12 -43,-13 -81,-42 -115,-89 -38,-54 -53,-110 -44,-168 8,-58 40,-106 95,-146 37,-26 76,-45 119,-58 z"
       id="path26"
       inkscape:connector-curvature="0"
       style="fill:#ffffff;fill-rule:nonzero" /></g></svg>