<?xml version="1.0" encoding="UTF-8" standalone="no"?>
<!-- Creator: CorelDRAW X7 -->

<svg
   xmlns:dc="http://purl.org/dc/elements/1.1/"
   xmlns:cc="http://creativecommons.org/ns#"
   xmlns:rdf="http://www.w3.org/1999/02/22-rdf-syntax-ns#"
   xmlns:svg="http://www.w3.org/2000/svg"
   xmlns="http://www.w3.org/2000/svg"
   xmlns:sodipodi="http://sodipodi.sourceforge.net/DTD/sodipodi-0.dtd"
   xmlns:inkscape="http://www.inkscape.org/namespaces/inkscape"
   xml:space="preserve"
   width="7.8740005in"
   height="7.8740005in"
   version="1.1"
   style="clip-rule:evenodd;fill-rule:evenodd;image-rendering:optimizeQuality;shape-rendering:geometricPrecision;text-rendering:geometricPrecision"
   viewBox="0 0 7874.0005 7874.0005"
   id="svg3934"
   inkscape:version="0.91 r13725"
   sodipodi:docname="Aleph - Thorakitai - [N3] [Vyo].svg"><metadata
     id="metadata3950"><rdf:RDF><cc:Work
         rdf:about=""><dc:format>image/svg+xml</dc:format><dc:type
           rdf:resource="http://purl.org/dc/dcmitype/StillImage" /></cc:Work></rdf:RDF></metadata><sodipodi:namedview
     pagecolor="#ffffff"
     bordercolor="#666666"
     borderopacity="1"
     objecttolerance="10"
     gridtolerance="10"
     guidetolerance="10"
     inkscape:pageopacity="0"
     inkscape:pageshadow="2"
     inkscape:window-width="640"
     inkscape:window-height="480"
     id="namedview3948"
     showgrid="false"
     inkscape:zoom="0.23838384"
     inkscape:cx="736.83001"
     inkscape:cy="849.33005"
     inkscape:window-x="0"
     inkscape:window-y="0"
     inkscape:window-maximized="0"
     inkscape:current-layer="svg3934" /><defs
     id="defs3936"><style
       type="text/css"
       id="style3938"><![CDATA[
    .fil2 {fill:black}
    .fil1 {fill:black}
    .fil0 {fill:white}
   ]]></style></defs><g
     id="Layer_x0020_1"
     transform="translate(3937,-7063)"><metadata
       id="CorelCorpID_0Corel-Layer" /><circle
       class="fil0"
       cy="11000"
       r="3937"
       id="circle3942"
       cx="0"
       style="fill:#ffffff" /><path
       class="fil1"
       d="m 741,7293 c 1733,345 3039,1873 3039,3707 0,2087 -1693,3780 -3780,3780 -2087,0 -3780,-1693 -3780,-3780 0,-1834 1306,-3362 3039,-3707 57,-11 113,26 124,83 12,58 -25,114 -83,125 l 0,0 c -1293,314 -2253,1479 -2253,2869 0,1631 1322,2953 2953,2953 1631,0 2953,-1322 2953,-2953 0,-1390 -960,-2555 -2253,-2869 l 0,0 c -58,-11 -95,-67 -83,-125 11,-57 67,-94 124,-83 z"
       id="path3944"
       inkscape:connector-curvature="0"
       style="fill:#000000" /><path
       class="fil2"
       d="m 236,7585 c 1321,110 2381,1140 2539,2447 -138,-377 -500,-646 -925,-646 -543,0 -984,440 -984,984 0,544 441,984 984,984 425,0 787,-269 925,-646 -158,1307 -1218,2337 -2539,2447 l 0,-5570 z m -472,5570 c -1321,-110 -2381,-1140 -2539,-2447 138,377 500,646 925,646 543,0 984,-440 984,-984 0,-544 -441,-984 -984,-984 -425,0 -787,269 -925,646 158,-1307 1218,-2337 2539,-2447 l 0,5570 z"
       id="path3946"
       inkscape:connector-curvature="0"
       style="fill:#000000" /></g></svg>