<?xml version="1.0" encoding="UTF-8" standalone="no"?>
<!-- Creator: CorelDRAW X7 -->

<svg
   xmlns:dc="http://purl.org/dc/elements/1.1/"
   xmlns:cc="http://creativecommons.org/ns#"
   xmlns:rdf="http://www.w3.org/1999/02/22-rdf-syntax-ns#"
   xmlns:svg="http://www.w3.org/2000/svg"
   xmlns="http://www.w3.org/2000/svg"
   xmlns:sodipodi="http://sodipodi.sourceforge.net/DTD/sodipodi-0.dtd"
   xmlns:inkscape="http://www.inkscape.org/namespaces/inkscape"
   xml:space="preserve"
   width="7.8740005in"
   height="7.8740005in"
   version="1.1"
   style="clip-rule:evenodd;fill-rule:evenodd;image-rendering:optimizeQuality;shape-rendering:geometricPrecision;text-rendering:geometricPrecision"
   viewBox="0 0 7874.0005 7874.0005"
   id="svg2"
   inkscape:version="0.91 r13725"
   sodipodi:docname="ariadna_45th_highlanders_rifles.svg"><metadata
     id="metadata27"><rdf:RDF><cc:Work
         rdf:about=""><dc:format>image/svg+xml</dc:format><dc:type
           rdf:resource="http://purl.org/dc/dcmitype/StillImage" /></cc:Work></rdf:RDF></metadata><sodipodi:namedview
     pagecolor="#ffffff"
     bordercolor="#666666"
     borderopacity="1"
     objecttolerance="10"
     gridtolerance="10"
     guidetolerance="10"
     inkscape:pageopacity="0"
     inkscape:pageshadow="2"
     inkscape:window-width="640"
     inkscape:window-height="480"
     id="namedview25"
     showgrid="false"
     inkscape:zoom="0.23838384"
     inkscape:cx="736.83001"
     inkscape:cy="849.33005"
     inkscape:window-x="0"
     inkscape:window-y="0"
     inkscape:window-maximized="0"
     inkscape:current-layer="svg2" /><defs
     id="defs4"><style
       type="text/css"
       id="style6"><![CDATA[
    .fil2 {fill:none;fill-rule:nonzero}
    .fil1 {fill:#01669C}
    .fil0 {fill:#3688B8}
    .fil3 {fill:white}
    .fil5 {fill:#01669C;fill-rule:nonzero}
    .fil6 {fill:#FFD600;fill-rule:nonzero}
    .fil4 {fill:white;fill-rule:nonzero}
   ]]></style></defs><g
     id="Layer_x0020_1"
     transform="translate(3937,-7063)"><metadata
       id="CorelCorpID_0Corel-Layer" /><circle
       class="fil0"
       cy="11000"
       r="3937"
       id="circle10"
       cx="0"
       style="fill:#3688b8" /><circle
       class="fil1"
       cy="11000"
       r="3858"
       id="circle12"
       cx="0"
       style="fill:#01669c" /><path
       class="fil2"
       d="m -3286,12026 c 10,-92 30,-167 59,-224 29,-58 71,-97 125,-119 54,-21 104,-32 148,-32 56,0 108,13 157,40 48,27 87,66 118,116 l 31,-150 c -55,-22 -101,-37 -139,-44 -38,-8 -117,-12 -239,-12 -132,0 -230,41 -296,122 -66,82 -102,157 -109,227 -7,70 -11,108 -11,114 -1,6 -1,13 -1,22 0,136 62,254 184,356 123,102 250,152 382,152 37,-2 76,-5 117,-9 42,-4 75,-9 99,-16 -7,-69 -11,-140 -11,-212 0,-61 3,-121 8,-181 5,-60 10,-109 17,-147 -39,5 -83,7 -134,7 -71,0 -137,-2 -198,-7 -60,-4 -107,-10 -142,-17 2,12 4,24 5,36 1,11 1,22 1,34 0,14 0,27 -1,38 -1,11 -2,22 -3,33 0,9 2,15 4,20 8,0 40,-2 97,-7 56,-4 93,-7 111,-7 28,0 47,1 58,2 11,2 24,4 40,8 5,20 8,47 10,80 2,34 3,73 3,118 0,29 0,55 0,76 -1,22 -1,41 -2,56 -30,10 -56,17 -79,22 -22,5 -43,7 -62,7 -31,0 -61,-6 -92,-19 -30,-13 -68,-37 -114,-72 -46,-35 -81,-83 -107,-144 -25,-61 -37,-127 -37,-200 0,-22 1,-45 3,-67 z m 743,582 c 31,-88 65,-189 102,-305 37,-115 68,-225 94,-330 26,-104 45,-198 56,-280 -3,-1 -10,-1 -21,-1 -23,0 -56,4 -101,12 -44,8 -87,20 -130,34 0,-11 1,-30 4,-58 2,-27 3,-51 3,-70 19,0 86,2 203,4 117,2 196,3 237,3 l 33,0 c 78,0 138,-2 181,-7 -6,18 -10,35 -13,51 -3,16 -5,32 -5,47 -17,-5 -42,-10 -75,-14 -33,-4 -67,-6 -102,-6 -22,0 -44,1 -65,4 0,31 13,101 39,211 27,109 61,228 104,356 42,128 88,236 137,326 -41,0 -70,2 -88,4 -18,3 -49,9 -91,19 0,-67 -7,-133 -22,-199 -15,-65 -30,-124 -44,-176 l -191,0 c -12,39 -23,94 -33,165 -11,72 -21,138 -29,198 -24,-4 -47,-5 -69,-5 -19,0 -37,1 -53,4 -16,3 -36,7 -61,13 z m 334,-817 c -16,69 -31,141 -47,215 -16,74 -25,122 -27,145 22,2 37,4 44,4 7,0 19,1 37,1 14,0 25,-1 36,-2 10,0 21,-2 34,-6 0,-26 -9,-76 -26,-148 -17,-72 -34,-142 -51,-209 z m 411,-191 c 17,46 30,116 39,209 9,94 13,196 13,309 0,99 -3,192 -10,278 -7,87 -17,155 -30,205 18,-3 48,-5 91,-7 43,-1 92,-2 148,-2 65,0 127,1 186,4 58,3 107,8 145,15 0,-9 -1,-21 -2,-33 -1,-13 -1,-23 -1,-30 0,-16 2,-34 6,-54 -50,13 -115,21 -193,24 -79,2 -153,5 -223,6 -1,-44 -3,-96 -5,-157 -1,-61 -2,-135 -2,-222 0,-149 2,-262 7,-340 5,-77 13,-145 23,-205 -19,0 -39,1 -58,2 -20,2 -42,3 -65,4 -13,0 -26,0 -38,0 -14,-3 -24,-5 -31,-6 z m 922,761 c -1,0 -12,-54 -32,-161 -21,-107 -39,-215 -54,-322 -15,-108 -23,-200 -23,-278 -19,0 -38,1 -58,2 -20,2 -41,3 -65,4 -13,0 -26,0 -38,0 -14,-3 -24,-5 -31,-6 22,58 50,150 86,277 36,126 66,249 91,368 25,119 37,214 37,287 0,32 -3,57 -8,75 19,-3 35,-5 46,-6 11,-1 22,-2 34,-2 13,0 27,0 41,0 15,2 26,3 34,3 0,-4 -1,-9 -1,-16 0,-6 0,-11 0,-14 0,-55 12,-134 37,-236 24,-102 52,-202 83,-300 31,-99 52,-158 63,-178 12,24 28,74 47,150 20,77 38,162 54,256 15,94 23,173 23,237 0,46 -4,82 -12,109 20,-3 35,-6 46,-7 11,-1 23,-1 34,-1 13,0 27,0 41,0 15,3 26,5 35,6 -1,-5 -2,-14 -2,-26 0,-93 34,-248 101,-468 67,-219 130,-387 192,-505 -19,0 -39,1 -59,2 -19,2 -41,3 -64,3 -13,0 -26,0 -38,0 -14,-2 -25,-4 -31,-5 0,57 -12,141 -36,252 -24,111 -51,224 -81,339 -30,115 -46,173 -48,173 -9,-46 -21,-112 -36,-196 -16,-84 -31,-181 -46,-291 -14,-110 -22,-204 -22,-282 -19,0 -38,1 -58,2 -20,2 -41,3 -64,3 -14,0 -26,0 -39,0 -14,-2 -24,-4 -31,-5 2,17 3,31 3,43 0,65 -11,148 -32,251 -22,102 -47,204 -75,308 -28,103 -43,155 -44,155 z m 1591,-554 31,-150 c -54,-22 -100,-37 -138,-44 -38,-8 -118,-12 -239,-12 -132,0 -231,41 -297,122 -65,82 -101,157 -109,227 -7,70 -10,108 -11,114 0,6 0,13 0,22 0,136 61,254 184,356 122,102 249,152 381,152 32,0 67,-2 104,-5 37,-2 75,-9 113,-20 l 6,-168 c -36,38 -77,67 -123,88 -46,20 -94,30 -146,30 -80,0 -150,-22 -209,-67 -58,-45 -98,-99 -120,-163 -22,-63 -33,-132 -33,-207 l 489,56 99,-181 c -36,17 -70,30 -103,41 -33,11 -76,22 -129,33 -54,11 -109,16 -168,16 -51,0 -114,-7 -188,-21 0,-74 17,-145 51,-212 34,-67 79,-111 133,-133 55,-21 103,-32 146,-32 56,0 109,14 157,40 48,27 88,66 119,118 z m 242,219 c 9,-92 29,-167 58,-224 30,-58 71,-97 125,-119 54,-21 104,-32 148,-32 56,0 109,13 157,40 48,27 87,66 118,116 l 31,-150 c -55,-22 -101,-37 -139,-44 -38,-8 -117,-12 -239,-12 -132,0 -230,41 -296,122 -66,82 -102,157 -109,227 -7,70 -11,108 -11,114 0,6 -1,13 -1,22 0,136 62,254 184,356 123,102 250,152 382,152 37,-2 76,-5 118,-9 41,-4 74,-9 99,-16 -8,-69 -12,-140 -12,-212 0,-61 3,-121 8,-181 5,-60 11,-109 17,-147 -39,5 -83,7 -134,7 -71,0 -137,-2 -198,-7 -60,-4 -107,-10 -142,-17 3,12 4,24 5,36 1,11 1,22 1,34 0,14 0,27 -1,38 -1,11 -2,22 -2,33 0,9 1,15 3,20 9,0 41,-2 97,-7 56,-4 93,-7 111,-7 28,0 47,1 58,2 11,2 25,4 40,8 5,20 8,47 11,80 2,34 3,73 3,118 0,29 -1,55 -1,76 0,22 -1,41 -2,56 -30,10 -56,17 -78,22 -23,5 -44,7 -63,7 -30,0 -61,-6 -91,-19 -31,-13 -69,-37 -115,-72 -46,-35 -81,-83 -106,-144 -26,-61 -38,-127 -38,-200 0,-22 1,-45 4,-67 z m 724,-426 c 17,46 30,116 39,209 8,94 13,197 13,310 0,99 -4,192 -10,278 -7,86 -17,155 -30,205 20,-4 36,-7 49,-7 14,-1 29,-2 47,-2 28,0 57,2 90,5 -11,-116 -19,-222 -25,-318 -6,-96 -9,-193 -9,-291 0,-72 2,-141 6,-207 4,-65 11,-126 21,-182 -19,0 -38,1 -58,2 -20,2 -41,3 -64,4 -13,0 -26,0 -39,0 -14,-3 -24,-5 -30,-6 z m 318,1008 c 31,-88 65,-189 102,-305 36,-115 68,-225 94,-330 26,-104 44,-198 56,-280 -3,-1 -10,-1 -21,-1 -23,0 -57,4 -101,12 -44,8 -88,20 -130,34 0,-11 1,-30 3,-58 3,-27 4,-51 4,-70 18,0 86,2 203,4 117,2 196,3 236,3 l 34,0 c 77,0 137,-2 180,-7 -5,18 -10,35 -13,51 -2,16 -4,32 -4,47 -17,-5 -42,-10 -75,-14 -33,-4 -67,-6 -102,-6 -22,0 -44,1 -65,4 0,31 13,101 39,211 27,109 61,228 103,356 43,128 89,236 137,326 -40,0 -70,2 -88,4 -18,3 -48,9 -90,19 0,-67 -7,-133 -22,-199 -15,-65 -30,-124 -45,-176 l -190,0 c -12,39 -23,94 -34,165 -11,72 -20,138 -28,198 -24,-4 -47,-5 -70,-5 -19,0 -36,1 -52,4 -16,3 -37,7 -61,13 z m 334,-817 c -16,69 -32,141 -47,215 -16,74 -25,122 -28,145 23,2 37,4 44,4 7,0 20,1 38,1 13,0 25,-1 35,-2 11,0 22,-2 34,-6 0,-26 -8,-76 -25,-148 -17,-72 -34,-142 -51,-209 z m 974,803 c 20,-3 35,-5 43,-6 8,-1 17,-1 26,-1 8,0 16,0 25,0 16,3 30,5 42,6 -11,-116 -19,-222 -25,-318 -6,-97 -9,-194 -9,-292 0,-72 2,-141 7,-207 4,-65 11,-126 21,-182 -19,0 -38,1 -57,2 -19,1 -40,3 -62,3 -13,0 -26,0 -39,0 -13,-2 -23,-4 -29,-5 19,54 35,137 45,247 11,110 18,207 20,292 2,85 3,153 4,203 -2,0 -36,-46 -101,-137 -66,-90 -129,-190 -191,-300 -62,-109 -102,-207 -121,-293 -18,0 -33,0 -47,0 -14,0 -27,0 -37,0 -9,0 -19,-1 -30,-1 -12,-1 -28,-2 -48,-4 17,46 30,115 39,209 8,93 13,196 13,309 0,99 -4,192 -10,278 -7,86 -17,155 -30,205 20,-4 36,-7 49,-7 14,-1 28,-2 45,-2 16,0 33,0 49,0 17,3 29,4 38,5 -9,-96 -17,-185 -23,-269 -6,-84 -12,-175 -18,-273 -6,-99 -10,-169 -13,-210 3,0 43,52 120,158 77,105 147,214 210,325 62,111 94,200 94,265 z"
       id="path14"
       inkscape:connector-curvature="0"
       style="fill:none;fill-rule:nonzero" /><path
       class="fil3"
       d="M 2489,13948 868,12240 3528,9437 C 3351,9038 3108,8674 2814,8360 L 0,11325 -2814,8360 c -294,314 -537,678 -714,1077 l 2660,2803 -1621,1708 c 329,277 704,501 1113,657 L 0,13155 1376,14605 c 409,-156 784,-380 1113,-657 z"
       id="path16"
       inkscape:connector-curvature="0"
       style="fill:#ffffff" /><path
       class="fil4"
       d="m -3286,12026 c 10,-92 30,-167 59,-224 29,-58 71,-97 125,-119 54,-21 104,-32 148,-32 56,0 108,13 157,40 48,27 87,66 118,116 l 31,-150 c -55,-22 -101,-37 -139,-44 -38,-8 -117,-12 -239,-12 -132,0 -230,41 -296,122 -66,82 -102,157 -109,227 -7,70 -11,108 -11,114 -1,6 -1,13 -1,22 0,136 62,254 184,356 123,102 250,152 382,152 37,-2 76,-5 117,-9 42,-4 75,-9 99,-16 -7,-69 -11,-140 -11,-212 0,-61 3,-121 8,-181 5,-60 10,-109 17,-147 -39,5 -83,7 -134,7 -71,0 -137,-2 -198,-7 -60,-4 -107,-10 -142,-17 2,12 4,24 5,36 1,11 1,22 1,34 0,14 0,27 -1,38 -1,11 -2,22 -3,33 0,9 2,15 4,20 8,0 40,-2 97,-7 56,-4 93,-7 111,-7 28,0 47,1 58,2 11,2 24,4 40,8 5,20 8,47 10,80 2,34 3,73 3,118 0,29 0,55 0,76 -1,22 -1,41 -2,56 -30,10 -56,17 -79,22 -22,5 -43,7 -62,7 -31,0 -61,-6 -92,-19 -30,-13 -68,-37 -114,-72 -46,-35 -81,-83 -107,-144 -25,-61 -37,-127 -37,-200 0,-22 1,-45 3,-67 z m 743,582 c 31,-88 65,-189 102,-305 37,-115 68,-225 94,-330 26,-104 45,-198 56,-280 -3,-1 -10,-1 -21,-1 -23,0 -56,4 -101,12 -44,8 -87,20 -130,34 0,-11 1,-30 4,-58 2,-27 3,-51 3,-70 19,0 86,2 203,4 117,2 196,3 237,3 l 33,0 c 78,0 138,-2 181,-7 -6,18 -10,35 -13,51 -3,16 -5,32 -5,47 -17,-5 -42,-10 -75,-14 -33,-4 -67,-6 -102,-6 -22,0 -44,1 -65,4 0,31 13,101 39,211 27,109 61,228 104,356 42,128 88,236 137,326 -41,0 -70,2 -88,4 -18,3 -49,9 -91,19 0,-67 -7,-133 -22,-199 -15,-65 -30,-124 -44,-176 l -191,0 c -12,39 -23,94 -33,165 -11,72 -21,138 -29,198 -24,-4 -47,-5 -69,-5 -19,0 -37,1 -53,4 -16,3 -36,7 -61,13 z m 334,-817 c -16,69 -31,141 -47,215 -16,74 -25,122 -27,145 22,2 37,4 44,4 7,0 19,1 37,1 14,0 25,-1 36,-2 10,0 21,-2 34,-6 0,-26 -9,-76 -26,-148 -17,-72 -34,-142 -51,-209 z m 411,-191 c 17,46 30,116 39,209 9,94 13,196 13,309 0,99 -3,192 -10,278 -7,87 -17,155 -30,205 18,-3 48,-5 91,-7 43,-1 92,-2 148,-2 65,0 127,1 186,4 58,3 107,8 145,15 0,-9 -1,-21 -2,-33 -1,-13 -1,-23 -1,-30 0,-16 2,-34 6,-54 -50,13 -115,21 -193,24 -79,2 -153,5 -223,6 -1,-44 -3,-96 -5,-157 -1,-61 -2,-135 -2,-222 0,-149 2,-262 7,-340 5,-77 13,-145 23,-205 -19,0 -39,1 -58,2 -20,2 -42,3 -65,4 -13,0 -26,0 -38,0 -14,-3 -24,-5 -31,-6 z m 922,761 c -1,0 -12,-54 -32,-161 -21,-107 -39,-215 -54,-322 -15,-108 -23,-200 -23,-278 -19,0 -38,1 -58,2 -20,2 -41,3 -65,4 -13,0 -26,0 -38,0 -14,-3 -24,-5 -31,-6 22,58 50,150 86,277 36,126 66,249 91,368 25,119 37,214 37,287 0,32 -3,57 -8,75 19,-3 35,-5 46,-6 11,-1 22,-2 34,-2 13,0 27,0 41,0 15,2 26,3 34,3 0,-4 -1,-9 -1,-16 0,-6 0,-11 0,-14 0,-55 12,-134 37,-236 24,-102 52,-202 83,-300 31,-99 52,-158 63,-178 12,24 28,74 47,150 20,77 38,162 54,256 15,94 23,173 23,237 0,46 -4,82 -12,109 20,-3 35,-6 46,-7 11,-1 23,-1 34,-1 13,0 27,0 41,0 15,3 26,5 35,6 -1,-5 -2,-14 -2,-26 0,-93 34,-248 101,-468 67,-219 130,-387 192,-505 -19,0 -39,1 -59,2 -19,2 -41,3 -64,3 -13,0 -26,0 -38,0 -14,-2 -25,-4 -31,-5 0,57 -12,141 -36,252 -24,111 -51,224 -81,339 -30,115 -46,173 -48,173 -9,-46 -21,-112 -36,-196 -16,-84 -31,-181 -46,-291 -14,-110 -22,-204 -22,-282 -19,0 -38,1 -58,2 -20,2 -41,3 -64,3 -14,0 -26,0 -39,0 -14,-2 -24,-4 -31,-5 2,17 3,31 3,43 0,65 -11,148 -32,251 -22,102 -47,204 -75,308 -28,103 -43,155 -44,155 z m 1591,-554 31,-150 c -54,-22 -100,-37 -138,-44 -38,-8 -118,-12 -239,-12 -132,0 -231,41 -297,122 -65,82 -101,157 -109,227 -7,70 -10,108 -11,114 0,6 0,13 0,22 0,136 61,254 184,356 122,102 249,152 381,152 32,0 67,-2 104,-5 37,-2 75,-9 113,-20 l 6,-168 c -36,38 -77,67 -123,88 -46,20 -94,30 -146,30 -80,0 -150,-22 -209,-67 -58,-45 -98,-99 -120,-163 -22,-63 -33,-132 -33,-207 l 489,56 99,-181 c -36,17 -70,30 -103,41 -33,11 -76,22 -129,33 -54,11 -109,16 -168,16 -51,0 -114,-7 -188,-21 0,-74 17,-145 51,-212 34,-67 79,-111 133,-133 55,-21 103,-32 146,-32 56,0 109,14 157,40 48,27 88,66 119,118 z m 242,219 c 9,-92 29,-167 58,-224 30,-58 71,-97 125,-119 54,-21 104,-32 148,-32 56,0 109,13 157,40 48,27 87,66 118,116 l 31,-150 c -55,-22 -101,-37 -139,-44 -38,-8 -117,-12 -239,-12 -132,0 -230,41 -296,122 -66,82 -102,157 -109,227 -7,70 -11,108 -11,114 0,6 -1,13 -1,22 0,136 62,254 184,356 123,102 250,152 382,152 37,-2 76,-5 118,-9 41,-4 74,-9 99,-16 -8,-69 -12,-140 -12,-212 0,-61 3,-121 8,-181 5,-60 11,-109 17,-147 -39,5 -83,7 -134,7 -71,0 -137,-2 -198,-7 -60,-4 -107,-10 -142,-17 3,12 4,24 5,36 1,11 1,22 1,34 0,14 0,27 -1,38 -1,11 -2,22 -2,33 0,9 1,15 3,20 9,0 41,-2 97,-7 56,-4 93,-7 111,-7 28,0 47,1 58,2 11,2 25,4 40,8 5,20 8,47 11,80 2,34 3,73 3,118 0,29 -1,55 -1,76 0,22 -1,41 -2,56 -30,10 -56,17 -78,22 -23,5 -44,7 -63,7 -30,0 -61,-6 -91,-19 -31,-13 -69,-37 -115,-72 -46,-35 -81,-83 -106,-144 -26,-61 -38,-127 -38,-200 0,-22 1,-45 4,-67 z m 724,-426 c 17,46 30,116 39,209 8,94 13,197 13,310 0,99 -4,192 -10,278 -7,86 -17,155 -30,205 20,-4 36,-7 49,-7 14,-1 29,-2 47,-2 28,0 57,2 90,5 -11,-116 -19,-222 -25,-318 -6,-96 -9,-193 -9,-291 0,-72 2,-141 6,-207 4,-65 11,-126 21,-182 -19,0 -38,1 -58,2 -20,2 -41,3 -64,4 -13,0 -26,0 -39,0 -14,-3 -24,-5 -30,-6 z m 318,1008 c 31,-88 65,-189 102,-305 36,-115 68,-225 94,-330 26,-104 44,-198 56,-280 -3,-1 -10,-1 -21,-1 -23,0 -57,4 -101,12 -44,8 -88,20 -130,34 0,-11 1,-30 3,-58 3,-27 4,-51 4,-70 18,0 86,2 203,4 117,2 196,3 236,3 l 34,0 c 77,0 137,-2 180,-7 -5,18 -10,35 -13,51 -2,16 -4,32 -4,47 -17,-5 -42,-10 -75,-14 -33,-4 -67,-6 -102,-6 -22,0 -44,1 -65,4 0,31 13,101 39,211 27,109 61,228 103,356 43,128 89,236 137,326 -40,0 -70,2 -88,4 -18,3 -48,9 -90,19 0,-67 -7,-133 -22,-199 -15,-65 -30,-124 -45,-176 l -190,0 c -12,39 -23,94 -34,165 -11,72 -20,138 -28,198 -24,-4 -47,-5 -70,-5 -19,0 -36,1 -52,4 -16,3 -37,7 -61,13 z m 334,-817 c -16,69 -32,141 -47,215 -16,74 -25,122 -28,145 23,2 37,4 44,4 7,0 20,1 38,1 13,0 25,-1 35,-2 11,0 22,-2 34,-6 0,-26 -8,-76 -25,-148 -17,-72 -34,-142 -51,-209 z m 974,803 c 20,-3 35,-5 43,-6 8,-1 17,-1 26,-1 8,0 16,0 25,0 16,3 30,5 42,6 -11,-116 -19,-222 -25,-318 -6,-97 -9,-194 -9,-292 0,-72 2,-141 7,-207 4,-65 11,-126 21,-182 -19,0 -38,1 -57,2 -19,1 -40,3 -62,3 -13,0 -26,0 -39,0 -13,-2 -23,-4 -29,-5 19,54 35,137 45,247 11,110 18,207 20,292 2,85 3,153 4,203 -2,0 -36,-46 -101,-137 -66,-90 -129,-190 -191,-300 -62,-109 -102,-207 -121,-293 -18,0 -33,0 -47,0 -14,0 -27,0 -37,0 -9,0 -19,-1 -30,-1 -12,-1 -28,-2 -48,-4 17,46 30,115 39,209 8,93 13,196 13,309 0,99 -4,192 -10,278 -7,86 -17,155 -30,205 20,-4 36,-7 49,-7 14,-1 28,-2 45,-2 16,0 33,0 49,0 17,3 29,4 38,5 -9,-96 -17,-185 -23,-269 -6,-84 -12,-175 -18,-273 -6,-99 -10,-169 -13,-210 3,0 43,52 120,158 77,105 147,214 210,325 62,111 94,200 94,265 z"
       id="path18"
       inkscape:connector-curvature="0"
       style="fill:#ffffff;fill-rule:nonzero" /><path
       class="fil5"
       d="m 1167,12555 -299,-315 87,-92 c -1,-18 -2,-36 -2,-55 0,-22 1,-45 4,-67 9,-92 29,-167 58,-224 30,-58 71,-97 125,-119 54,-21 104,-32 148,-32 42,0 81,7 119,22 l 55,-59 c -2,0 -4,-1 -7,-1 -38,-8 -117,-12 -239,-12 -132,0 -230,41 -296,122 -66,82 -102,157 -109,227 -7,70 -11,108 -11,114 0,6 -1,13 -1,22 0,136 62,254 184,356 60,50 122,88 184,113 z m -2210,-499 134,142 c -20,-107 -38,-213 -53,-320 -15,-108 -23,-200 -23,-278 -19,0 -38,1 -58,2 -20,2 -41,3 -65,4 -13,0 -26,0 -38,0 -14,-3 -24,-5 -31,-6 22,58 50,150 86,277 17,60 33,120 48,179 z m 148,212 -84,89 c 11,68 16,127 16,175 0,32 -3,57 -8,75 19,-3 35,-5 46,-6 11,-1 22,-2 34,-2 13,0 27,0 41,0 15,2 26,3 34,3 0,-4 -1,-9 -1,-16 0,-6 0,-11 0,-14 0,-55 12,-134 37,-236 24,-102 52,-202 83,-300 31,-99 52,-158 63,-178 12,24 28,74 47,150 20,77 38,162 54,256 15,94 23,173 23,237 0,46 -4,82 -12,109 20,-3 35,-6 46,-7 11,-1 23,-1 34,-1 13,0 27,0 41,0 15,3 26,5 35,6 -1,-5 -2,-14 -2,-26 0,-93 34,-248 101,-468 67,-219 130,-387 192,-505 -19,0 -39,1 -59,2 -19,2 -41,3 -64,3 -13,0 -26,0 -38,0 -14,-2 -25,-4 -31,-5 0,57 -12,141 -36,252 -24,111 -51,224 -81,339 -30,115 -46,173 -48,173 -9,-46 -21,-112 -36,-196 -16,-84 -31,-181 -46,-291 -14,-110 -22,-204 -22,-282 -19,0 -38,1 -58,2 -20,2 -41,3 -64,3 -14,0 -26,0 -39,0 -14,-2 -24,-4 -31,-5 2,17 3,31 3,43 0,65 -11,148 -32,251 -22,102 -47,204 -75,308 -28,103 -43,155 -44,155 -1,0 -7,-31 -19,-93 z m -321,339 -4,3 4,1 0,-4 z m 1931,-800 31,-150 c -54,-22 -100,-37 -138,-44 -38,-8 -118,-12 -239,-12 -132,0 -231,41 -297,122 -65,82 -101,157 -109,227 -7,70 -10,108 -11,114 0,6 0,13 0,22 0,136 61,254 184,356 122,102 249,152 381,152 32,0 67,-2 104,-5 37,-2 75,-9 113,-20 l 6,-168 c -36,38 -77,67 -123,88 -46,20 -94,30 -146,30 -80,0 -150,-22 -209,-67 -58,-45 -98,-99 -120,-163 -22,-63 -33,-132 -33,-207 l 489,56 99,-181 c -36,17 -70,30 -103,41 -33,11 -76,22 -129,33 -54,11 -109,16 -168,16 -51,0 -114,-7 -188,-21 0,-74 17,-145 51,-212 34,-67 79,-111 133,-133 55,-21 103,-32 146,-32 56,0 109,14 157,40 48,27 88,66 119,118 z"
       id="path20"
       inkscape:connector-curvature="0"
       style="fill:#01669c;fill-rule:nonzero" /><path
       class="fil6"
       d="m -1259,10248 -1398,0 0,-644 1398,-1695 668,0 0,1733 348,0 0,606 -348,0 0,528 -668,0 0,-528 z m 0,-606 0,-890 -739,890 739,0 z"
       id="path22"
       inkscape:connector-curvature="0"
       style="fill:#ffd600;fill-rule:nonzero" /><path
       id="1"
       class="fil6"
       d="m 309,7957 1823,0 0,626 -1234,0 -66,422 c 85,-41 169,-72 253,-92 84,-21 166,-31 248,-31 276,0 501,85 673,256 172,170 258,384 258,644 0,181 -45,356 -133,524 -89,168 -214,296 -377,384 -163,89 -372,133 -625,133 -182,0 -339,-18 -469,-53 -130,-35 -241,-88 -332,-158 -91,-70 -164,-149 -221,-237 -57,-89 -104,-199 -142,-332 l 777,-86 c 18,127 63,224 132,290 69,67 152,99 247,99 108,0 196,-41 265,-124 70,-82 105,-206 105,-370 0,-168 -35,-290 -105,-368 -71,-78 -165,-118 -281,-118 -74,0 -146,19 -215,56 -52,27 -108,75 -169,146 L 66,9472 309,7957 Z"
       inkscape:connector-curvature="0"
       style="fill:#ffd600;fill-rule:nonzero" /></g></svg>