<?xml version="1.0" encoding="UTF-8" standalone="no"?>
<!-- Creator: CorelDRAW X7 -->

<svg
   xmlns:dc="http://purl.org/dc/elements/1.1/"
   xmlns:cc="http://creativecommons.org/ns#"
   xmlns:rdf="http://www.w3.org/1999/02/22-rdf-syntax-ns#"
   xmlns:svg="http://www.w3.org/2000/svg"
   xmlns="http://www.w3.org/2000/svg"
   xmlns:sodipodi="http://sodipodi.sourceforge.net/DTD/sodipodi-0.dtd"
   xmlns:inkscape="http://www.inkscape.org/namespaces/inkscape"
   xml:space="preserve"
   width="7.8740005in"
   height="7.8740005in"
   version="1.1"
   style="clip-rule:evenodd;fill-rule:evenodd;image-rendering:optimizeQuality;shape-rendering:geometricPrecision;text-rendering:geometricPrecision"
   viewBox="0 0 7874.0005 7874.0005"
   id="svg4570"
   inkscape:version="0.91 r13725"
   sodipodi:docname="Ariadna - William Wallace - [N3] [Vyo].svg"><metadata
     id="metadata4596"><rdf:RDF><cc:Work
         rdf:about=""><dc:format>image/svg+xml</dc:format><dc:type
           rdf:resource="http://purl.org/dc/dcmitype/StillImage" /></cc:Work></rdf:RDF></metadata><sodipodi:namedview
     pagecolor="#ffffff"
     bordercolor="#666666"
     borderopacity="1"
     objecttolerance="10"
     gridtolerance="10"
     guidetolerance="10"
     inkscape:pageopacity="0"
     inkscape:pageshadow="2"
     inkscape:window-width="640"
     inkscape:window-height="480"
     id="namedview4594"
     showgrid="false"
     inkscape:zoom="0.23838384"
     inkscape:cx="736.83001"
     inkscape:cy="849.33005"
     inkscape:window-x="0"
     inkscape:window-y="0"
     inkscape:window-maximized="0"
     inkscape:current-layer="svg4570" /><defs
     id="defs4572"><style
       type="text/css"
       id="style4574"><![CDATA[
    .fil3 {fill:none}
    .fil0 {fill:#4060A0}
    .fil1 {fill:white}
    .fil4 {fill:#4060A0;fill-rule:nonzero}
    .fil2 {fill:#FFD600;fill-rule:nonzero}
   ]]></style></defs><g
     id="Layer_x0020_1"
     transform="translate(3937,-7063)"><metadata
       id="CorelCorpID_0Corel-Layer" /><circle
       class="fil0"
       cy="11000"
       r="3937"
       id="circle4578"
       cx="0"
       style="fill:#4060a0" /><path
       class="fil1"
       d="m 623,14199 0,213 -1279,0 0,-230 c -535,-110 -1022,-352 -1426,-689 l 0,0 c -117,105 -527,-144 -713,-351 -77,-86 -70,-225 15,-301 l 65,-58 c -337,-512 -533,-1125 -533,-1783 0,-1794 1454,-3248 3248,-3248 1794,0 3248,1454 3248,3248 0,1083 -530,2042 -1345,2632 l 0,370 c 0,108 -89,197 -197,197 l -1083,0 z"
       id="path4580"
       inkscape:connector-curvature="0"
       style="fill:#ffffff" /><path
       class="fil0"
       d="m 1474,13932 -752,-307 0,147 804,328 -804,0 0,66 c 328,0 656,0 984,0 90,0 164,-74 164,-164 l 0,-306 c -79,55 -162,107 -246,155 0,88 -81,109 -150,81 z m -818,-902 0,171 c 534,-158 986,-506 1280,-965 -44,0 -89,6 -136,18 l -44,12 -20,-27 c -268,375 -642,647 -1080,791 z m -3148,103 c -23,-25 -20,-70 5,-93 l 375,-337 c -5,-7 -10,-14 -16,-22 -40,-54 -77,-102 -96,-147 -25,-55 -23,-101 25,-138 48,-36 94,-25 140,14 37,30 74,79 115,133 l 4,5 259,-233 c 13,-11 31,-16 47,-14 17,1 33,8 44,20 41,49 84,96 128,141 71,70 146,135 226,195 -7,-22 -26,-54 -47,-91 -29,-49 -63,-107 -86,-173 -15,-42 -27,-84 -39,-125 -31,-103 -60,-201 -120,-268 -61,-68 -171,-88 -242,-24 l -988,889 c -72,65 -78,183 -13,255 91,101 237,212 374,286 102,54 197,88 255,79 -125,-108 -243,-226 -350,-352 z m 408,401 c -76,39 -208,2 -344,-71 -143,-76 -295,-192 -391,-299 -89,-99 -82,-257 17,-347 l 44,-40 c -331,-512 -523,-1122 -523,-1777 0,-1812 1469,-3281 3281,-3281 1812,0 3281,1469 3281,3281 0,1088 -530,2052 -1345,2649 l 0,353 c 0,126 -104,230 -230,230 l -1050,0 0,147 49,0 c 55,0 -16,61 -16,115 l -1426,-2 32,-113 16,0 0,-171 c -522,-111 -998,-347 -1395,-674 z m -625,-801 198,-179 c -280,-451 -442,-984 -442,-1554 0,-1631 1322,-2953 2953,-2953 1631,0 2953,1322 2953,2953 0,184 -17,365 -50,540 46,57 135,114 235,163 50,-226 77,-461 77,-703 C 3215,9224 1776,7785 0,7785 c -1776,0 -3215,1439 -3215,3215 0,638 186,1233 506,1733 z m 696,-627 125,-113 c -156,-296 -245,-634 -245,-993 0,-1178 955,-2133 2133,-2133 1178,0 2133,955 2133,2133 0,58 -3,116 -7,173 29,1 58,0 86,-3 l 45,-4 20,41 c 3,5 6,11 9,17 7,-74 11,-149 11,-224 C 2297,9732 1268,8703 0,8703 c -1268,0 -2297,1029 -2297,2297 0,401 103,778 284,1106 z m 1324,913 c -312,-107 -591,-283 -819,-511 -46,-46 -89,-94 -131,-143 l -121,110 c 278,331 648,583 1071,716 l 0,-172 z m -1174,-452 -38,34 c 67,93 104,170 28,227 -48,37 -93,26 -140,-13 -19,-16 -38,-37 -58,-61 l -76,69 c 6,44 26,88 59,124 87,92 232,97 325,11 93,-87 98,-232 11,-325 -31,-33 -70,-55 -111,-66 z m -385,347 -196,175 c 447,523 1059,900 1755,1052 l 0,-269 c -618,-148 -1161,-490 -1559,-958 z m 5262,-793 -239,-109 c -12,31 -24,62 -36,92 l 239,109 c 13,-30 25,-61 36,-92 z m -839,-382 -150,-69 c -10,32 -22,63 -33,93 l 149,69 c 12,-31 23,-62 34,-93 z m 614,861 c -88,-40 -178,-73 -254,-86 -322,538 -811,966 -1395,1210 l 331,135 c 551,-284 1010,-723 1318,-1259 z m -1575,73 c 29,-21 57,-43 85,-65 l -1693,0 c -63,0 -120,25 -162,67 -42,42 -67,99 -67,162 l 0,1542 196,0 0,-1542 c 0,-90 74,-164 165,-164 l 1476,0 z m -329,194 c -21,-45 -76,-79 -163,-79 -131,0 -230,106 -230,197 l 0,1394 99,0 0,-1351 c 0,-98 95,-174 196,-174 45,0 73,3 92,10 2,1 4,2 6,3 z m -2882,-284 c -38,-51 -73,-97 -104,-123 -21,-18 -41,-25 -58,-11 -18,13 -17,33 -5,59 16,37 50,83 89,134 38,51 73,97 104,123 22,18 41,24 59,11 39,-29 -16,-103 -85,-193 z"
       id="path4582"
       inkscape:connector-curvature="0"
       style="fill:#4060a0" /><path
       class="fil1"
       d="m 669,10612 0,0 c -25,36 -49,72 -72,109 0,0 -1,0 -1,0 -7,5 -39,3 -47,2 -41,-3 -82,-11 -123,-15 -43,-4 -86,-3 -128,9 -78,21 -131,74 -163,146 -58,127 -21,230 74,322 29,28 62,54 92,82 6,6 29,29 30,38 0,0 -1,0 -1,0 -8,28 -16,57 -24,85 l 0,0 c -224,151 -344,61 -404,135 -206,254 -342,676 -393,1034 -42,15 -80,39 -111,70 -54,53 -87,127 -87,208 l 0,112 c -172,-61 -334,-143 -481,-245 16,-45 -16,-101 -57,-171 -27,-47 -59,-101 -81,-162 -14,-40 -26,-81 -38,-121 -32,-111 -63,-216 -133,-294 -17,-19 -36,-34 -57,-47 250,-451 404,-470 404,-614 0,-65 61,-123 115,-131 213,-33 190,-369 295,-673 50,-143 147,-262 251,-339 9,-7 28,-21 61,-21 49,0 47,16 82,16 49,0 49,-49 131,-49 82,0 82,49 148,49 65,0 66,-33 131,-33 115,0 115,148 213,148 22,0 49,-17 82,-17 99,0 269,286 292,367 z m -276,711 c -98,334 -184,800 -172,1130 l 147,-5 c 9,-273 86,-570 203,-881 316,18 980,302 1212,624 225,-59 448,7 640,256 100,-19 253,29 398,96 48,-88 92,-177 132,-269 L 904,11340 c -46,44 -99,63 -141,44 -66,-30 -80,-142 -31,-249 48,-107 142,-170 207,-140 43,20 64,72 60,136 l 2037,928 c 33,-95 62,-191 86,-290 -129,-63 -244,-139 -291,-218 -314,18 -510,-106 -613,-315 -395,36 -1045,-278 -1266,-505 158,-292 332,-546 532,-731 l -93,-115 c -256,208 -551,578 -739,871 -71,111 -349,-105 -458,134 -109,239 236,308 199,433 z m -1533,-1185 0,0 434,173 c -32,50 -59,103 -78,159 -14,42 -26,85 -37,127 l -427,-220 0,0 c -15,-7 -30,-14 -52,12 -78,83 -172,120 -246,87 -107,-49 -130,-229 -51,-402 79,-173 230,-274 337,-225 74,33 107,129 96,242 -5,34 10,40 24,47 z m -349,-15 c 36,-78 103,-124 151,-102 47,21 57,102 21,180 -36,79 -103,125 -151,103 -47,-21 -56,-102 -21,-181 z"
       id="path4584"
       inkscape:connector-curvature="0"
       style="fill:#ffffff" /><path
       class="fil2"
       d="m -2278,9915 -155,-88 c -23,-13 -43,-23 -60,-30 -17,-6 -36,-11 -57,-14 l 31,-54 0,0 34,-61 c 33,-58 67,-96 102,-115 34,-18 70,-17 106,3 39,22 58,56 57,100 -1,41 -20,95 -56,162 l 0,0 41,23 c 23,13 43,23 60,30 17,6 36,11 56,14 l -30,53 -31,54 c -13,-15 -26,-28 -41,-40 -14,-11 -33,-24 -57,-37 z m -26,-113 0,0 c 22,-40 33,-74 31,-100 -1,-26 -16,-46 -43,-62 -27,-15 -52,-17 -75,-7 -23,10 -45,32 -64,67 l -7,12 0,0 158,90 z m 242,-253 -141,-110 c -21,-16 -40,-29 -56,-38 -16,-9 -34,-16 -53,-22 l 38,-49 0,0 26,-34 c 44,-56 86,-93 128,-110 41,-17 77,-13 109,12 28,22 38,57 29,105 -3,15 -7,30 -13,46 l 0,0 61,-4 c 29,-2 59,-5 90,-11 32,-5 73,-13 124,-24 l -61,79 c -32,11 -74,22 -125,31 -51,9 -97,14 -138,16 l -23,1 0,0 57,45 c 21,16 40,29 56,38 16,9 33,16 53,22 l -38,49 -38,49 c -11,-17 -22,-33 -35,-46 -12,-13 -29,-28 -50,-45 z m -17,-121 0,0 c 21,-30 33,-59 36,-87 3,-31 -6,-55 -27,-72 -19,-15 -43,-17 -71,-7 -25,11 -50,30 -75,59 l 0,0 137,107 z m 592,-298 c -62,49 -127,73 -195,72 -67,-1 -121,-26 -160,-77 -38,-48 -48,-106 -29,-173 19,-67 62,-126 128,-178 63,-49 128,-73 195,-72 68,1 121,27 161,77 38,49 47,106 28,173 -19,67 -61,126 -128,178 z m -18,-51 c 42,-33 68,-71 77,-116 10,-45 1,-84 -26,-119 -32,-41 -74,-63 -125,-67 -52,-3 -100,13 -146,49 -42,32 -67,71 -77,115 -9,45 -1,85 27,119 32,41 73,63 125,67 51,3 100,-13 145,-48 z m 531,-272 c 0,-20 -2,-39 -6,-57 -4,-18 -10,-40 -20,-65 l -65,-167 c -9,-24 -19,-45 -28,-60 -9,-16 -21,-32 -35,-47 l 58,-23 58,-22 c 0,20 2,39 6,57 4,18 11,39 21,65 l 91,237 0,0 c 39,-16 72,-32 97,-46 38,-21 71,-44 97,-70 l -6,48 -7,49 0,0 -163,63 0,0 -98,38 z m 365,-253 -40,-174 c -6,-26 -12,-47 -19,-64 -7,-17 -16,-34 -28,-52 l 60,-13 61,-14 c -3,20 -3,39 -2,57 1,18 5,40 11,67 l 40,174 c 6,26 13,48 20,65 7,17 16,33 27,50 l -60,14 -60,14 c 2,-20 3,-39 1,-57 -1,-18 -4,-40 -11,-67 z m 240,-53 -13,-178 c -3,-27 -6,-49 -10,-67 -4,-17 -11,-36 -20,-54 l 62,-5 0,0 59,-5 c 58,-4 105,3 140,20 36,17 55,43 57,77 3,31 -16,58 -54,81 -8,5 -16,9 -25,13 l 0,0 c 19,3 36,8 50,15 44,19 67,47 70,85 2,37 -16,68 -55,91 -39,24 -96,38 -171,44 l -38,3 0,0 -62,4 c 6,-19 9,-38 11,-56 1,-18 1,-41 -1,-68 z m 65,-266 11,143 0,0 3,-1 c 35,-2 61,-11 80,-26 19,-15 28,-34 26,-57 -2,-21 -13,-37 -33,-48 -21,-10 -48,-14 -81,-12 l -6,1 z m 13,173 13,168 1,0 c 43,-3 76,-13 100,-29 24,-16 35,-37 33,-62 -2,-26 -16,-47 -43,-61 -27,-13 -61,-19 -104,-16 z m 339,192 c 9,-18 15,-36 19,-54 4,-18 7,-40 10,-67 l 13,-179 c 2,-26 2,-48 1,-67 -2,-18 -5,-37 -11,-57 l 104,8 0,0 204,16 0,0 -24,32 -24,34 c -21,-11 -42,-18 -62,-23 -20,-5 -45,-9 -75,-11 l -22,-2 0,0 -11,139 0,0 184,14 -28,32 -28,32 c -17,-9 -36,-17 -55,-21 -19,-5 -44,-9 -73,-11 l -3,0 0,0 -11,147 0,0 c 50,3 92,3 125,1 43,-3 83,-10 117,-22 l -26,41 -27,41 0,0 -193,-15 0,0 -104,-8 z m 459,-80 51,-171 c 8,-25 13,-47 15,-65 3,-18 3,-38 2,-58 l 59,18 0,0 41,12 c 68,20 118,47 149,79 30,32 40,67 28,106 -10,35 -39,56 -87,65 -15,3 -31,4 -48,5 l 0,0 26,55 c 12,26 26,53 43,81 16,27 38,63 67,106 l -95,-28 c -23,-26 -47,-61 -74,-106 -27,-44 -49,-85 -66,-123 l -9,-20 0,0 -21,69 c -8,26 -13,48 -15,66 -3,18 -3,37 -2,57 l -59,-17 -59,-18 c 12,-16 22,-32 30,-49 8,-17 16,-38 24,-64 z m 106,-59 0,0 c 36,9 68,10 94,2 30,-8 50,-25 57,-51 8,-24 1,-46 -19,-68 -18,-20 -46,-37 -82,-49 l 0,0 -50,166 z m 460,257 120,-226 0,0 c -26,-13 -50,-24 -70,-31 -38,-16 -72,-25 -100,-28 l 31,-25 32,-25 0,0 166,88 0,0 191,101 0,0 -28,25 -29,24 c -25,-23 -46,-42 -65,-57 -16,-12 -33,-23 -52,-34 l 0,0 -120,228 c -12,22 -20,41 -26,59 -6,17 -10,37 -13,60 l -56,-30 -57,-30 c 17,-15 31,-29 42,-44 11,-14 23,-33 34,-55 z m 341,185 345,-120 0,1 -46,361 c -6,42 -9,74 -9,97 -1,23 1,43 5,60 l -54,-44 -54,-44 c 8,-5 15,-16 22,-34 7,-17 13,-38 17,-62 l 6,-37 0,0 -161,-131 0,0 -6,3 c -27,11 -51,23 -72,37 -22,14 -34,26 -37,35 l -55,-44 -55,-44 c 20,0 40,-2 63,-7 23,-5 53,-14 91,-27 z m 267,-29 -138,53 0,0 114,93 0,0 24,-146 0,0 z m 253,508 204,-155 0,0 c -18,-23 -35,-42 -50,-57 -28,-30 -55,-53 -79,-68 l 39,-9 39,-9 0,0 114,150 0,0 130,171 0,0 -36,11 -36,10 c -13,-32 -24,-58 -35,-79 -10,-18 -21,-36 -33,-53 l 0,0 -205,156 c -20,15 -36,29 -48,42 -13,14 -25,30 -37,50 l -39,-51 -38,-52 c 21,-6 40,-13 56,-22 16,-8 34,-20 54,-35 z m 95,336 c 20,-3 38,-7 55,-14 17,-6 38,-16 62,-29 l 156,-87 c 23,-13 42,-25 56,-36 15,-11 28,-25 42,-41 l 51,92 0,0 99,179 0,0 -40,-2 -42,-2 c -3,-23 -8,-45 -15,-65 -7,-19 -17,-42 -32,-68 l -11,-20 0,0 -121,68 0,0 90,161 -43,-5 -42,-6 c -2,-20 -6,-39 -12,-58 -7,-19 -17,-41 -32,-67 l -1,-3 0,0 -129,72 0,0 c 25,44 48,79 68,105 26,35 53,64 82,86 l -48,1 -49,0 0,0 -94,-169 0,0 -50,-92 z"
       id="path4586"
       inkscape:connector-curvature="0"
       style="fill:#ffd600;fill-rule:nonzero" /><circle
       class="fil3"
       cy="11000"
       r="3117"
       id="circle4588"
       cx="0"
       style="fill:none" /><path
       class="fil1"
       d="m -443,14773 886,0 c 180,0 328,-148 328,-328 l 0,-788 c 0,-36 -30,-65 -66,-65 l -82,0 -1328,0 c -36,0 -66,29 -66,65 l 0,788 c 0,180 148,328 328,328 z"
       id="path4590"
       inkscape:connector-curvature="0"
       style="fill:#ffffff" /><path
       class="fil4"
       d="m 705,13559 c 55,0 99,44 99,98 l 0,788 c 0,198 -163,361 -361,361 l -886,0 c -198,0 -361,-163 -361,-361 l 0,-788 c 0,-54 44,-98 99,-98 l 1410,0 z m 0,66 c -109,0 -218,0 -328,0 l 0,393 c 0,99 -98,82 -164,148 -65,66 -68,164 -197,164 -129,0 -131,-98 -196,-164 -66,-66 -164,-49 -164,-148 l 0,-393 -361,0 c -18,0 -33,15 -33,32 l 0,788 c 0,162 133,295 295,295 l 886,0 c 162,0 295,-133 295,-295 l 0,-788 c 0,-17 -15,-32 -33,-32 z"
       id="path4592"
       inkscape:connector-curvature="0"
       style="fill:#4060a0;fill-rule:nonzero" /></g></svg>