<?xml version="1.0" encoding="UTF-8" standalone="no"?>
<!-- Creator: CorelDRAW X7 -->

<svg
   xmlns:dc="http://purl.org/dc/elements/1.1/"
   xmlns:cc="http://creativecommons.org/ns#"
   xmlns:rdf="http://www.w3.org/1999/02/22-rdf-syntax-ns#"
   xmlns:svg="http://www.w3.org/2000/svg"
   xmlns="http://www.w3.org/2000/svg"
   xmlns:sodipodi="http://sodipodi.sourceforge.net/DTD/sodipodi-0.dtd"
   xmlns:inkscape="http://www.inkscape.org/namespaces/inkscape"
   xml:space="preserve"
   width="7.8740005in"
   height="7.8740005in"
   version="1.1"
   style="clip-rule:evenodd;fill-rule:evenodd;image-rendering:optimizeQuality;shape-rendering:geometricPrecision;text-rendering:geometricPrecision"
   viewBox="0 0 7874.0005 7874.0005"
   id="svg3652"
   inkscape:version="0.91 r13725"
   sodipodi:docname="Ariadna - Foxtrot Rangers - [N3] [Vyo].svg"><metadata
     id="metadata3709"><rdf:RDF><cc:Work
         rdf:about=""><dc:format>image/svg+xml</dc:format><dc:type
           rdf:resource="http://purl.org/dc/dcmitype/StillImage" /></cc:Work></rdf:RDF></metadata><sodipodi:namedview
     pagecolor="#ffffff"
     bordercolor="#666666"
     borderopacity="1"
     objecttolerance="10"
     gridtolerance="10"
     guidetolerance="10"
     inkscape:pageopacity="0"
     inkscape:pageshadow="2"
     inkscape:window-width="640"
     inkscape:window-height="480"
     id="namedview3707"
     showgrid="false"
     inkscape:zoom="0.23838384"
     inkscape:cx="736.83001"
     inkscape:cy="849.33005"
     inkscape:window-x="0"
     inkscape:window-y="0"
     inkscape:window-maximized="0"
     inkscape:current-layer="svg3652" /><defs
     id="defs3654"><style
       type="text/css"
       id="style3656"><![CDATA[
    .fil2 {fill:none}
    .fil0 {fill:black}
    .fil4 {fill:#FFCC00}
    .fil5 {fill:white}
    .fil1 {fill:#FFCC00;fill-rule:nonzero}
    .fil3 {fill:white;fill-rule:nonzero}
   ]]></style></defs><g
     id="Layer_x0020_1"
     transform="translate(3937,-7063)"><metadata
       id="CorelCorpID_0Corel-Layer" /><circle
       class="fil0"
       cy="11000"
       r="3937"
       id="circle3660"
       cx="0"
       style="fill:#000000" /><path
       class="fil1"
       d="m 0,7339 c 1011,0 1926,409 2589,1072 663,663 1072,1578 1072,2589 0,1011 -409,1926 -1072,2589 -663,663 -1578,1072 -2589,1072 -1011,0 -1926,-409 -2589,-1072 -663,-663 -1072,-1578 -1072,-2589 0,-1011 409,-1926 1072,-2589 C -1926,7748 -1011,7339 0,7339 Z M 2478,8522 C 1844,7888 968,7496 0,7496 c -968,0 -1844,392 -2478,1026 -634,634 -1026,1510 -1026,2478 0,968 392,1844 1026,2478 634,634 1510,1026 2478,1026 968,0 1844,-392 2478,-1026 634,-634 1026,-1510 1026,-2478 0,-968 -392,-1844 -1026,-2478 z"
       id="path3662"
       inkscape:connector-curvature="0"
       style="fill:#ffcc00;fill-rule:nonzero" /><circle
       class="fil2"
       cy="11000"
       r="3898"
       id="circle3664"
       cx="0"
       style="fill:none" /><circle
       class="fil2"
       cy="11000"
       r="3898"
       id="circle3666"
       cx="0"
       style="fill:none" /><polygon
       class="fil3"
       points="-2950,11869 -3244,11714 -3182,11981 -3261,11999 -3350,11611 -3277,11595 -2976,11752 "
       id="polygon3668"
       style="fill:#ffffff;fill-rule:nonzero" /><path
       id="1"
       class="fil3"
       d="m -3300,11238 58,-9 19,140 73,-10 c 6,-1 11,-2 17,-3 5,-1 9,-3 13,-6 3,-2 6,-6 8,-12 1,-5 1,-12 0,-21 -1,-10 -3,-17 -6,-21 -2,-5 -6,-8 -10,-10 -4,-2 -8,-2 -14,-2 -5,1 -12,2 -18,3 l -10,-68 c 9,-1 17,-2 25,-3 7,-1 15,-1 21,-2 7,0 13,1 20,2 6,1 11,3 17,7 12,7 20,17 25,31 5,14 9,32 12,53 3,21 5,39 5,55 0,16 -2,29 -6,41 -5,11 -12,20 -22,26 -9,7 -23,11 -39,14 l -98,14 6,44 -58,8 -6,-44 -57,8 -13,-88 58,-8 -20,-139 z"
       inkscape:connector-curvature="0"
       style="fill:#ffffff;fill-rule:nonzero" /><path
       id="2"
       class="fil3"
       d="m -3400,11073 140,-1 c -9,-4 -16,-8 -22,-13 -6,-5 -10,-11 -14,-18 -3,-8 -6,-17 -7,-27 -2,-11 -2,-24 -2,-39 0,-20 1,-38 3,-54 2,-16 8,-30 17,-43 9,-14 20,-23 34,-29 14,-6 32,-9 53,-9 l 131,0 0,88 -116,1 c -11,0 -20,0 -27,1 -7,1 -13,4 -17,8 -5,5 -8,12 -10,21 -1,9 -2,22 -2,39 0,14 1,26 2,35 2,10 5,18 10,24 5,6 11,10 19,12 8,3 19,4 32,4 2,0 4,0 6,-1 2,0 4,0 7,0 l 97,-1 0,89 -333,1 -1,-88 z"
       inkscape:connector-curvature="0"
       style="fill:#ffffff;fill-rule:nonzero" /><polygon
       id="3"
       class="fil3"
       points="-3244,10260 -3287,10509 -3223,10520 -3182,10283 -3108,10296 -3149,10532 -3035,10552 -3052,10651 -3381,10594 -3321,10246 "
       style="fill:#ffffff;fill-rule:nonzero" /><path
       id="4"
       class="fil3"
       d="m -3133,10105 c 16,5 29,10 40,14 12,3 21,5 29,6 8,0 15,-1 20,-4 5,-3 10,-8 15,-15 5,-6 9,-16 14,-27 4,-11 9,-25 15,-41 12,-33 21,-58 26,-77 6,-18 8,-33 6,-43 -2,-11 -9,-19 -21,-25 -11,-7 -28,-14 -50,-22 -18,-7 -33,-11 -44,-13 -11,-2 -20,-1 -28,3 -7,3 -13,10 -18,21 -5,10 -11,25 -18,43 -12,33 -21,59 -29,80 -7,20 -11,36 -11,49 0,12 4,22 13,29 8,8 22,15 41,22 z m 8,112 c -30,-10 -55,-20 -77,-29 -21,-8 -38,-18 -51,-28 -13,-11 -21,-23 -26,-37 -4,-15 -5,-33 -1,-55 2,-15 10,-41 23,-78 13,-37 31,-86 52,-146 7,-20 15,-36 24,-50 9,-13 18,-23 29,-30 11,-7 24,-11 38,-13 14,-1 30,0 47,4 10,2 21,5 35,10 15,5 31,11 50,18 23,8 42,17 56,25 15,9 27,18 35,29 8,11 13,23 15,37 2,13 1,29 -2,48 -4,18 -9,39 -17,62 -7,24 -17,51 -28,82 -13,35 -25,65 -36,89 -11,25 -24,43 -38,56 -15,13 -32,20 -52,21 -20,1 -45,-4 -76,-15 z"
       inkscape:connector-curvature="0"
       style="fill:#ffffff;fill-rule:nonzero" /><polygon
       id="5"
       class="fil3"
       points="-2667,9478 -2826,9521 -2772,9677 -2836,9799 -2906,9573 -3127,9635 -3064,9515 -2908,9477 -2965,9326 -2904,9210 -2829,9426 -2603,9355 "
       style="fill:#ffffff;fill-rule:nonzero" /><polygon
       id="6"
       class="fil3"
       points="-2702,9073 -2787,9195 -2856,9147 -2627,8820 -2558,8869 -2643,8989 -2438,9132 -2497,9216 "
       style="fill:#ffffff;fill-rule:nonzero" /><path
       id="7"
       class="fil3"
       d="m -2365,8792 105,-111 c 2,-2 4,-3 5,-4 2,-1 3,-3 5,-5 8,-8 14,-16 18,-22 4,-5 6,-11 6,-16 -1,-5 -2,-9 -6,-14 -4,-5 -9,-10 -16,-17 -6,-6 -12,-10 -17,-12 -5,-3 -10,-3 -15,-2 -5,1 -10,4 -16,9 -5,5 -12,11 -20,19 l -110,116 61,59 z m 59,56 62,59 -71,74 -241,-230 214,-224 c 15,-15 28,-26 41,-34 12,-7 25,-12 37,-12 12,-1 24,2 36,8 13,7 26,17 40,30 14,14 24,26 31,36 6,11 9,20 10,29 0,9 -1,18 -5,27 -4,9 -9,19 -14,29 8,-5 15,-10 22,-15 7,-5 14,-9 21,-10 8,-2 16,-1 24,2 8,3 18,10 29,21 l 43,41 -70,75 -32,-31 c -11,-10 -20,-15 -29,-15 -9,-1 -20,5 -32,18 l -116,122 z"
       inkscape:connector-curvature="0"
       style="fill:#ffffff;fill-rule:nonzero" /><path
       id="8"
       class="fil3"
       d="m -2005,8436 c 9,14 18,25 24,34 8,10 14,17 20,22 6,5 12,8 18,9 6,0 13,-1 21,-4 8,-3 17,-8 27,-14 11,-7 23,-15 37,-25 29,-20 51,-36 66,-47 16,-12 26,-23 30,-33 4,-9 4,-20 -2,-32 -5,-12 -15,-27 -28,-47 -11,-15 -21,-27 -29,-36 -7,-8 -15,-12 -23,-13 -9,-1 -18,1 -28,6 -10,6 -24,14 -40,25 -29,20 -52,36 -70,49 -18,12 -30,23 -37,33 -8,10 -10,21 -8,31 3,11 10,25 22,42 z m -60,96 c -18,-26 -33,-48 -45,-68 -12,-19 -21,-37 -25,-53 -4,-16 -4,-31 0,-45 5,-14 15,-29 31,-45 11,-11 32,-28 65,-51 32,-22 74,-52 127,-88 17,-12 33,-21 48,-27 15,-6 29,-8 42,-8 13,1 26,4 38,11 12,7 24,18 36,31 6,7 14,17 23,29 8,12 18,27 30,43 13,20 24,38 31,53 7,16 11,30 11,44 1,13 -2,26 -9,38 -6,12 -16,25 -29,38 -14,13 -30,27 -50,42 -20,15 -44,31 -71,50 -31,21 -58,39 -81,52 -23,14 -44,21 -64,23 -19,2 -37,-2 -54,-12 -17,-11 -35,-30 -54,-57 z"
       inkscape:connector-curvature="0"
       style="fill:#ffffff;fill-rule:nonzero" /><polygon
       id="9"
       class="fil3"
       points="-1572,8075 -1703,8147 -1743,8074 -1394,7882 -1354,7955 -1482,8026 -1362,8244 -1452,8293 "
       style="fill:#ffffff;fill-rule:nonzero" /><path
       id="10"
       class="fil3"
       d="m -1023,7924 146,-43 c 2,-1 4,-2 6,-2 2,0 4,-1 6,-2 12,-3 21,-6 27,-10 6,-3 10,-7 12,-11 3,-4 3,-10 3,-16 -1,-6 -3,-13 -6,-22 -2,-9 -5,-15 -9,-20 -3,-4 -7,-7 -12,-9 -5,-1 -11,-1 -18,0 -7,2 -16,4 -27,7 l -153,46 25,82 z m 23,78 24,82 -98,29 -95,-319 297,-89 c 19,-6 37,-9 51,-9 15,-1 28,2 39,7 11,6 20,14 27,26 8,12 14,27 20,45 5,20 8,35 9,47 0,12 -2,23 -6,31 -4,8 -9,15 -17,20 -8,6 -17,12 -26,19 9,-1 18,-2 27,-3 8,-1 16,0 23,2 7,3 13,7 19,14 6,7 11,18 15,32 l 17,58 -98,29 -12,-42 c -5,-14 -10,-23 -18,-28 -8,-5 -20,-5 -37,0 l -161,49 z"
       inkscape:connector-curvature="0"
       style="fill:#ffffff;fill-rule:nonzero" /><path
       id="11"
       class="fil3"
       d="m -328,7814 -88,-121 -53,141 141,-20 z m 47,63 -214,30 -24,65 -112,15 138,-356 135,-19 227,305 -111,16 -39,-56 z"
       inkscape:connector-curvature="0"
       style="fill:#ffffff;fill-rule:nonzero" /><polygon
       id="12"
       class="fil3"
       points="16,7678 14,7929 -82,7928 -80,7595 82,7596 280,7847 282,7597 378,7598 376,7931 214,7930 "
       style="fill:#ffffff;fill-rule:nonzero" /><path
       id="13"
       class="fil3"
       d="m 662,7869 13,-62 223,50 c -6,25 -11,47 -15,65 -4,19 -9,35 -14,49 -5,13 -11,24 -18,32 -7,9 -15,14 -26,18 -11,4 -25,5 -41,4 -16,-2 -36,-5 -60,-10 -10,-3 -21,-5 -32,-8 -10,-2 -20,-4 -30,-7 l -31,-6 c -36,-8 -66,-16 -91,-24 -25,-7 -44,-17 -58,-30 -14,-13 -23,-29 -26,-49 -3,-20 0,-47 7,-80 2,-10 6,-24 10,-41 4,-17 10,-37 16,-60 3,-11 8,-20 14,-29 6,-9 14,-16 22,-22 8,-6 18,-11 27,-14 10,-3 20,-4 30,-3 20,1 40,4 60,7 19,4 39,8 59,12 26,6 50,11 71,16 21,4 39,9 55,14 16,5 30,10 41,16 11,6 19,12 26,20 6,8 10,15 13,23 3,7 5,15 5,23 0,8 0,16 -2,25 -1,9 -3,18 -6,28 l -97,-21 c 2,-9 2,-16 1,-21 -1,-5 -4,-9 -8,-13 -5,-3 -11,-6 -20,-9 -9,-3 -20,-6 -34,-9 l -25,-5 c -9,-2 -18,-4 -26,-6 -9,-2 -16,-4 -23,-6 -17,-3 -30,-6 -41,-8 -11,-2 -20,-1 -27,2 -8,3 -14,9 -19,19 -5,10 -9,24 -14,44 -4,18 -6,33 -8,45 -2,12 -3,23 -1,31 1,8 4,14 9,19 5,5 13,10 22,14 10,4 22,7 37,10 14,4 32,8 54,12 15,4 29,7 41,10 11,2 21,3 30,3 8,-1 15,-4 19,-8 5,-5 9,-12 12,-23 0,-2 0,-4 0,-5 0,-1 0,-2 1,-4 l -125,-28 z"
       inkscape:connector-curvature="0"
       style="fill:#ffffff;fill-rule:nonzero" /><polygon
       id="14"
       class="fil3"
       points="1344,7945 1090,7850 1069,7905 1307,7994 1283,8055 1046,7966 1026,8022 1279,8117 1253,8187 905,8057 1022,7745 1370,7875 "
       style="fill:#ffffff;fill-rule:nonzero" /><path
       id="15"
       class="fil3"
       d="m 1485,8119 133,74 c 2,2 4,3 5,4 2,1 4,2 6,3 10,6 19,10 26,12 6,3 12,3 17,2 4,-2 9,-5 12,-10 4,-4 8,-11 13,-19 4,-8 7,-14 8,-20 1,-5 0,-10 -3,-15 -2,-4 -6,-9 -12,-13 -6,-4 -14,-9 -24,-14 l -139,-79 -42,75 z m -40,70 -42,75 -89,-50 163,-291 270,152 c 18,10 33,21 43,31 11,10 18,21 21,33 4,11 4,24 1,37 -3,14 -10,29 -19,46 -10,17 -19,30 -28,39 -8,8 -17,14 -25,17 -9,3 -18,3 -27,2 -10,-2 -20,-4 -32,-6 7,6 14,12 21,17 6,6 11,12 14,18 4,7 5,15 4,24 -1,9 -5,20 -13,33 l -29,52 -90,-50 22,-38 c 7,-12 10,-23 8,-32 -2,-9 -10,-17 -26,-26 l -147,-83 z"
       inkscape:connector-curvature="0"
       style="fill:#ffffff;fill-rule:nonzero" /><path
       id="16"
       class="fil3"
       d="m 2107,8457 c 5,-6 8,-12 9,-17 1,-5 0,-10 -3,-15 -4,-6 -9,-12 -16,-18 -7,-7 -16,-15 -27,-24 -3,-2 -4,-3 -6,-4 -1,-1 -3,-2 -5,-4 -17,-13 -32,-24 -43,-33 -12,-9 -21,-16 -29,-21 -8,-4 -15,-6 -20,-5 -6,0 -12,4 -18,11 -5,7 -7,13 -5,20 2,7 8,14 16,21 11,10 22,19 32,28 10,9 20,17 29,24 5,5 11,9 17,14 6,4 11,9 17,13 21,17 39,33 54,47 15,14 25,28 31,41 6,14 7,28 4,42 -4,15 -14,32 -29,51 -11,13 -22,24 -32,31 -10,7 -20,12 -31,13 -10,2 -21,1 -32,-3 -12,-3 -24,-9 -37,-18 -7,-5 -21,-15 -42,-30 -21,-15 -47,-35 -78,-60 -30,-25 -54,-46 -72,-64 -18,-17 -29,-33 -33,-46 -2,-9 -3,-18 -2,-25 1,-8 4,-15 7,-22 4,-6 8,-13 13,-19 6,-7 12,-14 18,-22 l 78,63 c -2,3 -5,6 -7,9 -3,3 -5,7 -5,10 -1,4 0,8 1,13 2,4 6,10 13,16 3,3 9,8 18,16 9,8 21,17 35,28 18,15 33,27 44,36 12,9 22,16 29,19 8,4 14,5 19,4 5,-1 10,-5 15,-11 4,-5 7,-11 7,-16 0,-5 -1,-10 -4,-15 -3,-5 -8,-10 -14,-15 -6,-5 -12,-11 -20,-17 -25,-21 -47,-39 -67,-55 -20,-16 -36,-30 -50,-43 -14,-13 -24,-25 -32,-35 -8,-11 -13,-22 -14,-32 -2,-11 0,-22 5,-33 5,-12 13,-25 25,-39 10,-13 20,-23 30,-30 9,-8 19,-13 30,-15 10,-2 21,-1 32,2 11,3 24,9 38,18 9,5 23,15 42,29 20,14 43,33 71,55 15,12 28,23 40,33 11,10 21,19 30,27 8,9 15,17 20,24 6,8 9,16 11,24 3,9 4,17 3,24 0,7 -2,14 -5,21 -3,7 -7,13 -11,20 -5,7 -10,14 -16,22 l -78,-63 z"
       inkscape:connector-curvature="0"
       style="fill:#ffffff;fill-rule:nonzero" /><path
       id="17"
       class="fil3"
       d="m 2280,8719 77,-73 c 10,-10 20,-17 30,-21 9,-4 18,-6 28,-5 9,1 18,5 28,11 9,7 20,16 31,27 3,3 6,7 9,10 2,4 5,7 7,10 l -37,36 c -2,-2 -3,-4 -4,-5 -1,-1 -2,-2 -3,-3 -9,-9 -17,-13 -24,-12 -7,1 -15,6 -24,14 l 19,20 -68,64 -69,-73 z m 89,94 77,-73 c 11,-10 21,-17 30,-21 9,-4 18,-6 28,-5 9,1 19,5 28,11 10,7 20,16 31,27 3,4 6,7 9,10 3,4 5,7 7,10 l -37,36 c -1,-2 -2,-3 -3,-5 -2,-1 -3,-2 -4,-3 -9,-9 -16,-13 -24,-12 -7,1 -15,6 -24,14 l 19,20 -68,64 -69,-73 z"
       inkscape:connector-curvature="0"
       style="fill:#ffffff;fill-rule:nonzero" /><polygon
       id="18"
       class="fil3"
       points="2640,8983 2435,9127 2380,9048 2653,8857 2746,8989 2656,9297 2861,9154 2916,9232 2643,9424 2550,9291 "
       style="fill:#ffffff;fill-rule:nonzero" /><path
       id="19"
       class="fil3"
       d="m 2908,9610 6,-4 c 7,-3 12,-7 14,-12 3,-4 4,-9 3,-15 -1,-6 -3,-13 -6,-20 -4,-8 -9,-17 -14,-28 -6,-11 -12,-20 -17,-28 -5,-8 -10,-15 -15,-19 -5,-5 -10,-7 -16,-8 -5,-1 -12,1 -19,5 l -6,3 70,126 z m -116,-101 c -8,5 -14,9 -17,13 -4,5 -6,10 -7,16 0,5 1,12 4,20 3,8 8,17 14,29 8,14 14,25 19,34 5,9 10,16 14,20 4,4 9,6 13,6 4,0 9,-2 15,-4 l 41,74 c -14,8 -26,12 -38,13 -11,1 -22,-2 -33,-8 -11,-6 -21,-16 -31,-29 -10,-13 -21,-30 -32,-51 -16,-29 -29,-54 -39,-76 -9,-21 -14,-40 -15,-57 0,-17 5,-32 15,-45 9,-13 26,-26 48,-38 28,-15 50,-25 68,-28 17,-4 33,-2 47,5 14,8 27,21 40,40 13,19 27,44 44,75 13,24 23,44 29,62 7,18 8,33 6,46 -3,11 -6,20 -12,27 -5,7 -11,13 -19,19 -8,6 -16,11 -26,16 -9,5 -19,11 -30,18 l -110,-201 -8,4 z"
       inkscape:connector-curvature="0"
       style="fill:#ffffff;fill-rule:nonzero" /><polygon
       id="20"
       class="fil3"
       points="3046,9989 2900,9983 2865,9869 3063,9720 3090,9807 2939,9910 3125,9921 3149,10000 3001,10112 3184,10115 3211,10203 2963,10189 2927,10073 "
       style="fill:#ffffff;fill-rule:nonzero" /><path
       id="21"
       class="fil3"
       d="m 3200,10443 c -3,-17 -6,-30 -9,-39 -3,-9 -7,-16 -13,-20 -5,-3 -13,-5 -22,-4 -9,0 -22,2 -37,4 -11,2 -19,5 -24,9 -6,4 -9,10 -11,18 -2,8 -2,17 -1,29 1,11 3,25 6,42 2,13 5,23 7,32 2,8 6,15 11,20 4,5 11,8 18,9 8,1 19,0 32,-2 13,-2 23,-5 31,-9 7,-3 12,-8 15,-15 3,-6 4,-15 3,-27 -1,-12 -3,-28 -6,-47 z m 8,-73 c 9,2 17,5 23,9 7,4 12,9 17,16 4,8 8,17 11,28 3,12 6,26 9,42 5,26 7,48 7,66 1,19 -2,34 -7,46 -6,13 -15,23 -27,30 -13,7 -29,13 -50,16 -25,5 -46,7 -64,8 -18,1 -33,-1 -45,-8 -13,-6 -23,-17 -31,-34 -9,-16 -15,-39 -20,-70 -3,-14 -5,-27 -6,-39 -2,-13 -2,-24 -1,-34 1,-10 4,-19 8,-28 5,-8 12,-16 22,-22 l -140,24 -15,-88 332,-56 14,87 -37,7 z"
       inkscape:connector-curvature="0"
       style="fill:#ffffff;fill-rule:nonzero" /><path
       id="22"
       class="fil3"
       d="m 3184,10783 c -14,0 -24,1 -32,3 -7,2 -13,6 -17,12 -3,6 -6,14 -7,24 -1,11 -1,24 -1,41 0,18 1,33 2,43 2,11 4,19 9,25 4,5 10,9 18,10 8,2 18,2 31,2 11,0 20,-1 28,-2 7,-1 12,-5 17,-10 4,-6 7,-14 8,-25 2,-11 3,-26 3,-45 0,-17 -1,-31 -3,-41 -1,-10 -4,-18 -9,-23 -4,-6 -10,-9 -18,-11 -7,-2 -17,-3 -29,-3 z m -16,-87 c 19,0 35,0 49,1 14,0 26,2 37,5 10,4 18,9 25,15 7,7 12,16 17,28 4,12 6,27 8,45 2,18 3,40 3,66 0,31 -1,58 -2,80 -2,22 -6,40 -13,54 -7,14 -17,24 -30,30 -13,7 -31,10 -54,10 -21,0 -39,0 -54,-1 -15,-1 -28,-3 -38,-6 -11,-4 -20,-9 -27,-16 -6,-8 -12,-18 -16,-31 -4,-13 -6,-29 -8,-48 -1,-20 -2,-44 -2,-72 0,-29 1,-53 2,-74 2,-20 7,-37 14,-49 7,-13 17,-22 31,-28 14,-6 34,-9 58,-9 z"
       inkscape:connector-curvature="0"
       style="fill:#ffffff;fill-rule:nonzero" /><path
       id="23"
       class="fil3"
       d="m 3253,11190 c 9,3 16,7 22,12 6,5 11,12 14,19 4,7 6,16 8,26 1,11 1,23 0,38 -2,22 -6,40 -11,52 -6,12 -13,21 -23,26 -9,6 -21,9 -34,9 -13,0 -29,0 -46,-2 l 7,-80 c 6,0 12,-1 17,-1 5,0 10,-1 14,-4 3,-3 6,-7 9,-14 2,-6 4,-15 5,-28 3,-36 -14,-56 -50,-59 l -118,-10 7,-86 233,20 -8,86 -46,-4 z"
       inkscape:connector-curvature="0"
       style="fill:#ffffff;fill-rule:nonzero" /><path
       id="24"
       class="fil3"
       d="m 3233,11690 -57,-10 24,-139 -73,-12 c -6,-1 -11,-2 -17,-2 -5,-1 -10,-1 -14,1 -4,1 -8,4 -11,9 -3,4 -6,11 -7,21 -2,9 -2,16 -1,21 1,6 3,10 7,12 3,3 7,5 12,6 6,2 12,3 19,4 l -12,67 c -8,-2 -17,-3 -24,-5 -8,-1 -15,-3 -21,-4 -7,-2 -12,-5 -18,-8 -5,-3 -10,-7 -14,-12 -9,-10 -14,-23 -15,-37 0,-15 2,-33 5,-54 4,-21 8,-39 12,-54 5,-15 11,-28 19,-37 7,-9 17,-16 28,-19 11,-3 25,-4 42,-1 l 98,17 7,-44 57,9 -7,45 57,10 -15,87 -57,-10 -24,139 z"
       inkscape:connector-curvature="0"
       style="fill:#ffffff;fill-rule:nonzero" /><path
       id="25"
       class="fil3"
       d="m 3249,12021 -102,-30 c -14,-5 -25,-10 -34,-16 -8,-6 -14,-13 -18,-22 -3,-8 -4,-18 -4,-30 1,-11 4,-25 8,-40 2,-4 3,-8 5,-12 1,-5 3,-8 4,-12 l 50,15 c -1,2 -1,4 -2,5 0,2 -1,3 -1,5 -4,12 -3,21 2,27 4,6 12,10 24,14 l 8,-27 88,27 -28,96 z m 37,-124 -102,-31 c -14,-4 -25,-9 -34,-15 -8,-6 -14,-13 -17,-22 -4,-8 -5,-19 -4,-30 1,-12 3,-25 8,-40 1,-4 2,-8 4,-13 2,-4 3,-8 5,-11 l 50,15 c -1,2 -2,3 -2,5 -1,1 -1,3 -2,5 -3,12 -3,21 2,26 5,6 13,11 24,15 l 8,-27 89,27 -29,96 z"
       inkscape:connector-curvature="0"
       style="fill:#ffffff;fill-rule:nonzero" /><path
       class="fil3"
       d="m -1620,13431 -360,177 -114,-102 112,-251 -238,140 -114,-100 132,-378 87,77 -105,282 259,-146 102,90 -117,272 270,-137 86,76 z m 71,261 4,-6 c 5,-8 8,-14 8,-20 0,-6 -2,-11 -5,-17 -4,-5 -10,-10 -18,-16 -7,-6 -17,-12 -28,-19 -12,-8 -22,-14 -31,-19 -9,-5 -18,-8 -25,-10 -8,-2 -14,-1 -20,1 -6,2 -11,7 -16,15 l -4,6 135,85 z m -167,-35 c -5,8 -8,16 -9,22 -2,6 -1,12 2,18 3,6 8,12 15,18 7,6 16,13 28,20 16,10 28,18 38,24 10,5 18,9 24,11 6,2 11,2 15,-1 4,-2 9,-6 13,-12 l 80,51 c -9,14 -19,25 -30,32 -11,7 -23,11 -36,10 -14,0 -29,-4 -46,-11 -17,-8 -37,-18 -59,-32 -31,-20 -57,-38 -78,-53 -21,-16 -36,-32 -46,-48 -9,-16 -12,-33 -10,-51 3,-19 11,-40 27,-64 18,-29 35,-51 50,-64 15,-13 32,-20 49,-20 18,0 38,6 60,18 23,11 51,27 84,48 26,16 46,31 62,45 15,14 25,28 30,43 3,11 4,21 3,31 -1,10 -4,20 -9,29 -4,10 -9,20 -16,30 -6,10 -13,21 -20,34 l -216,-136 -5,8 z m 661,159 -22,58 -91,-35 -71,184 -89,-34 70,-184 -48,-18 23,-59 48,18 4,-11 c 7,-19 15,-34 24,-45 9,-12 20,-19 32,-24 12,-4 27,-5 43,-3 16,3 35,8 57,16 8,3 16,7 26,11 9,5 20,9 30,14 l -22,59 c -6,-3 -12,-5 -18,-8 -6,-2 -12,-4 -17,-6 -11,-5 -20,-7 -27,-8 -8,0 -14,1 -19,3 -5,3 -9,6 -12,12 -3,5 -6,11 -9,19 l -3,6 91,35 z m 245,183 2,-8 c 3,-8 3,-15 2,-21 -1,-5 -5,-10 -10,-14 -5,-4 -12,-7 -21,-11 -9,-3 -20,-6 -33,-10 -13,-3 -25,-6 -35,-9 -10,-2 -19,-3 -27,-2 -8,0 -14,3 -19,6 -5,4 -8,11 -11,20 l -2,7 154,42 z m -170,15 c -2,9 -3,17 -3,23 1,7 4,12 8,17 4,5 11,9 19,13 9,4 20,7 34,11 17,5 31,9 42,11 11,3 20,5 27,5 6,-1 11,-2 14,-6 4,-3 6,-8 9,-15 l 91,25 c -4,17 -11,30 -19,40 -8,10 -19,16 -32,20 -13,4 -29,5 -47,2 -19,-2 -41,-6 -66,-13 -35,-10 -65,-19 -90,-28 -25,-10 -44,-20 -57,-33 -14,-12 -22,-28 -25,-46 -3,-18 -1,-41 7,-69 9,-33 19,-58 30,-75 10,-17 24,-28 41,-34 16,-5 37,-5 62,0 25,4 57,12 95,22 29,8 53,16 72,25 19,9 32,19 41,32 6,10 10,19 12,29 1,10 1,20 0,30 -1,11 -4,22 -7,34 -3,11 -6,24 -10,38 l -245,-68 -3,10 z m 392,112 c -1,7 0,13 2,18 3,4 6,8 12,11 5,2 12,5 20,6 8,2 17,4 27,5 17,3 32,6 44,7 11,1 21,2 29,1 7,-1 13,-4 17,-7 4,-4 6,-9 7,-16 1,-6 1,-12 -2,-16 -2,-4 -6,-7 -12,-10 -6,-2 -13,-5 -23,-6 -9,-2 -20,-4 -33,-7 -13,-2 -24,-3 -34,-5 -11,-1 -20,-2 -27,-1 -7,0 -13,2 -18,5 -5,3 -8,8 -9,15 z m 150,69 c -4,9 -10,15 -17,20 -7,6 -15,9 -24,11 -10,2 -21,3 -34,3 -13,-1 -29,-3 -47,-6 -25,-4 -46,-9 -63,-13 -17,-5 -31,-11 -40,-19 -10,-8 -16,-18 -19,-30 -3,-12 -3,-28 1,-48 3,-19 9,-34 17,-44 8,-10 18,-17 31,-21 13,-3 29,-4 47,-2 18,2 39,4 62,8 15,3 28,5 39,7 10,2 20,4 28,7 8,3 15,6 20,11 6,5 11,12 15,21 l 5,-28 c 2,-10 2,-18 0,-24 -1,-6 -6,-11 -13,-14 -7,-4 -16,-7 -29,-10 -13,-3 -30,-6 -50,-9 -17,-3 -29,-4 -36,-2 -7,1 -12,6 -14,16 l -94,-16 c 3,-18 9,-31 19,-40 9,-9 22,-15 39,-18 16,-2 37,-2 63,0 25,3 56,8 91,14 24,4 44,8 61,14 17,5 31,12 41,21 10,8 16,19 20,31 3,12 3,27 0,45 l -29,173 -97,-16 7,-42 z m 275,-140 c 3,-10 8,-18 13,-25 5,-7 11,-13 19,-18 8,-4 18,-8 29,-10 11,-2 25,-3 41,-3 25,1 45,3 59,9 14,5 24,13 31,23 7,10 11,22 12,37 2,15 2,32 2,51 l -90,-1 c -1,-7 -1,-14 -2,-19 -1,-6 -3,-11 -6,-15 -3,-4 -8,-7 -15,-9 -8,-2 -18,-3 -32,-4 -41,0 -61,20 -62,60 l -2,132 -96,-2 4,-259 96,1 -1,52 z m 476,-10 c 3,-11 6,-21 11,-29 4,-9 11,-16 20,-22 9,-5 21,-10 35,-14 15,-4 32,-8 54,-11 33,-4 61,-2 83,6 21,8 38,23 49,45 4,10 7,19 9,29 2,10 3,20 5,31 l 18,134 -97,14 -19,-135 c -1,-11 -3,-21 -6,-27 -3,-7 -8,-12 -14,-16 -6,-3 -14,-5 -25,-5 -10,0 -23,1 -40,3 -18,3 -32,6 -42,11 -10,5 -18,10 -23,17 -4,7 -7,16 -7,25 -1,10 0,21 2,33 l 15,115 -95,13 -35,-257 95,-13 7,53 z m 419,10 c 4,14 8,25 13,33 5,7 11,12 18,14 7,2 17,2 28,0 11,-2 26,-6 43,-11 20,-5 36,-11 47,-15 11,-5 18,-11 23,-17 4,-6 6,-14 5,-23 0,-9 -3,-20 -7,-34 -3,-12 -7,-21 -10,-28 -4,-8 -10,-13 -17,-15 -7,-3 -17,-4 -29,-2 -12,1 -29,5 -49,11 -18,5 -32,10 -42,15 -11,5 -18,11 -23,17 -4,6 -6,14 -6,23 0,9 2,19 6,32 z m -88,43 c -6,-19 -11,-37 -14,-52 -4,-16 -6,-29 -5,-41 0,-12 3,-23 8,-32 5,-9 13,-18 25,-26 11,-8 26,-16 45,-23 19,-7 42,-15 69,-23 34,-10 62,-17 86,-22 24,-5 45,-6 62,-3 17,3 31,10 42,23 11,12 20,30 27,55 6,22 11,41 15,57 4,17 5,31 5,43 0,13 -4,24 -9,33 -6,10 -15,19 -28,27 -12,8 -29,16 -49,23 -21,8 -46,16 -76,25 -31,9 -57,15 -80,20 -22,4 -41,4 -57,1 -15,-4 -29,-13 -39,-26 -11,-13 -20,-33 -27,-59 z m 901,-220 -85,45 -64,-119 c -5,-10 -9,-17 -14,-23 -4,-5 -9,-9 -16,-11 -6,-1 -14,-1 -23,2 -9,3 -20,8 -35,15 -24,13 -39,26 -46,39 -6,12 -5,28 5,46 l 64,120 -85,45 -122,-229 85,-45 23,43 c -1,-10 -1,-19 1,-28 2,-8 5,-16 10,-24 5,-8 13,-15 22,-23 9,-7 21,-15 36,-23 29,-15 54,-24 76,-26 21,-1 41,5 59,19 -1,-8 -2,-16 -2,-24 1,-7 4,-16 9,-26 4,-6 11,-14 23,-25 11,-10 26,-19 42,-28 42,-22 77,-31 106,-26 28,5 52,26 72,62 l 70,132 -84,44 -60,-114 c -6,-10 -12,-19 -17,-25 -5,-7 -11,-11 -18,-13 -6,-1 -14,-1 -23,2 -10,3 -21,8 -35,15 -14,8 -24,15 -31,22 -8,7 -12,14 -14,21 -2,7 -2,15 1,23 2,8 6,18 12,28 l 58,109 z m 297,-283 c 5,6 10,10 15,11 5,2 10,1 16,-1 5,-2 12,-5 18,-10 7,-5 15,-10 23,-16 13,-11 25,-20 34,-28 9,-7 16,-14 20,-21 5,-6 7,-12 7,-17 0,-5 -2,-10 -6,-16 -4,-5 -9,-8 -13,-9 -5,-1 -10,-1 -16,2 -6,2 -13,6 -21,12 -7,5 -16,12 -27,20 -10,8 -19,15 -27,22 -8,6 -14,12 -19,18 -5,6 -8,11 -9,17 -1,5 1,11 5,16 z m 153,-62 c 3,9 4,18 4,26 -1,9 -4,17 -9,25 -5,9 -12,18 -22,27 -9,9 -21,19 -35,30 -21,16 -38,28 -53,38 -16,9 -29,15 -41,16 -13,2 -24,0 -35,-7 -11,-6 -23,-17 -34,-32 -13,-16 -20,-31 -22,-43 -1,-13 1,-26 7,-37 6,-12 16,-24 30,-36 14,-12 30,-26 48,-40 12,-9 23,-17 31,-24 9,-6 17,-12 25,-16 7,-4 15,-6 22,-7 8,0 16,0 25,3 l -17,-22 c -6,-9 -12,-14 -17,-17 -6,-2 -12,-3 -19,0 -8,2 -17,7 -28,15 -10,8 -24,18 -40,31 -14,10 -23,18 -27,24 -3,6 -3,13 3,21 l -76,58 c -10,-14 -16,-28 -16,-41 -1,-13 4,-26 13,-40 10,-14 24,-30 43,-46 20,-17 44,-36 72,-58 20,-15 37,-27 52,-35 16,-9 30,-14 43,-16 13,-1 25,1 37,7 11,6 22,16 33,31 l 107,138 -78,60 -26,-33 z m 96,-296 c -5,-11 -8,-21 -10,-30 -1,-10 1,-20 5,-30 4,-10 10,-21 19,-32 9,-12 22,-25 37,-40 25,-24 48,-39 70,-45 23,-6 45,-3 67,8 9,5 17,11 24,18 7,6 15,14 22,21 l 95,98 -71,69 -95,-98 c -7,-9 -15,-15 -21,-18 -7,-4 -13,-6 -20,-5 -7,1 -15,5 -23,11 -8,6 -18,15 -30,26 -14,13 -23,24 -28,34 -6,9 -9,19 -8,27 0,9 3,17 8,25 6,8 13,16 21,25 l 81,84 -69,67 -180,-187 69,-67 37,39 z"
       id="path3695"
       inkscape:connector-curvature="0"
       style="fill:#ffffff;fill-rule:nonzero" /><path
       class="fil4"
       d="m -2008,11866 c 1890,40 1221,1693 2008,1693 787,0 118,-1653 2008,-1693 130,-678 53,-1166 -154,-1511 l 331,-1324 -1102,709 -3,7 C 753,9627 376,9583 0,9583 c -376,0 -753,44 -1080,164 l -3,-7 -1102,-709 331,1324 c -207,345 -284,833 -154,1511 z"
       id="path3697"
       inkscape:connector-curvature="0"
       style="fill:#ffcc00" /><path
       class="fil0"
       d="m -2000,9205 1028,660 c 305,-119 649,-164 972,-164 323,0 667,45 972,164 l 1028,-660 -308,1233 c 194,315 273,752 158,1349 -1653,79 -1220,1615 -1850,1615 -630,0 -197,-1536 -1850,-1615 -115,-597 -36,-1034 158,-1349 l -308,-1233 z"
       id="path3699"
       inkscape:connector-curvature="0"
       style="fill:#000000" /><path
       class="fil5"
       d="m -1654,11748 c 1457,0 1063,1374 1654,1378 591,4 197,-1378 1654,-1378 102,-537 17,-928 -172,-1208 l 274,-1095 -930,597 C 554,9937 258,9898 0,9898 c -258,0 -554,39 -826,144 l -930,-597 274,1095 c -189,280 -274,671 -172,1208 z"
       id="path3701"
       inkscape:connector-curvature="0"
       style="fill:#ffffff" /><path
       class="fil0"
       d="m -455,11457 c -167,234 -624,41 -519,-404 96,177 283,322 519,404 z m 910,0 c 167,234 624,41 519,-404 -96,177 -283,322 -519,404 z"
       id="path3703"
       inkscape:connector-curvature="0"
       style="fill:#000000" /><path
       class="fil4"
       d="m -517,11517 c -15,10 -30,18 -46,24 -94,-39 -180,-87 -256,-143 -63,-47 -119,-99 -166,-155 -3,-22 -4,-45 -4,-69 52,71 117,136 193,192 82,61 176,112 279,151 z m 1502,-274 c -47,56 -103,108 -166,155 -76,56 -162,104 -256,143 -16,-6 -31,-14 -46,-24 103,-39 197,-90 279,-151 76,-56 141,-121 193,-192 0,24 -1,47 -4,69 z"
       id="path3705"
       inkscape:connector-curvature="0"
       style="fill:#ffcc00" /></g></svg>