<?xml version="1.0" encoding="UTF-8" standalone="no"?>
<!-- Creator: CorelDRAW X7 -->

<svg
   xmlns:dc="http://purl.org/dc/elements/1.1/"
   xmlns:cc="http://creativecommons.org/ns#"
   xmlns:rdf="http://www.w3.org/1999/02/22-rdf-syntax-ns#"
   xmlns:svg="http://www.w3.org/2000/svg"
   xmlns="http://www.w3.org/2000/svg"
   xmlns:sodipodi="http://sodipodi.sourceforge.net/DTD/sodipodi-0.dtd"
   xmlns:inkscape="http://www.inkscape.org/namespaces/inkscape"
   xml:space="preserve"
   width="7.8740005in"
   height="7.8740005in"
   version="1.1"
   style="clip-rule:evenodd;fill-rule:evenodd;image-rendering:optimizeQuality;shape-rendering:geometricPrecision;text-rendering:geometricPrecision"
   viewBox="0 0 7874.0005 7874.0005"
   id="svg4382"
   inkscape:version="0.91 r13725"
   sodipodi:docname="Ariadna - Troupes Metropolitaines - [N3] [Vyo].svg"><metadata
     id="metadata4410"><rdf:RDF><cc:Work
         rdf:about=""><dc:format>image/svg+xml</dc:format><dc:type
           rdf:resource="http://purl.org/dc/dcmitype/StillImage" /></cc:Work></rdf:RDF></metadata><sodipodi:namedview
     pagecolor="#ffffff"
     bordercolor="#666666"
     borderopacity="1"
     objecttolerance="10"
     gridtolerance="10"
     guidetolerance="10"
     inkscape:pageopacity="0"
     inkscape:pageshadow="2"
     inkscape:window-width="640"
     inkscape:window-height="480"
     id="namedview4408"
     showgrid="false"
     inkscape:zoom="0.23838384"
     inkscape:cx="736.83001"
     inkscape:cy="849.33005"
     inkscape:window-x="0"
     inkscape:window-y="0"
     inkscape:window-maximized="0"
     inkscape:current-layer="svg4382" /><defs
     id="defs4384"><style
       type="text/css"
       id="style4386"><![CDATA[
    .fil3 {fill:none}
    .fil1 {fill:black}
    .fil0 {fill:#E32527}
    .fil2 {fill:white;fill-rule:nonzero}
   ]]></style></defs><g
     id="Layer_x0020_1"
     transform="translate(3937,-7063)"><metadata
       id="CorelCorpID_0Corel-Layer" /><circle
       class="fil0"
       cy="11000"
       r="3937"
       id="circle4390"
       cx="0"
       style="fill:#e32527" /><circle
       class="fil1"
       cy="11000"
       r="3858"
       id="circle4392"
       cx="0"
       style="fill:#000000" /><circle
       class="fil0"
       cy="11000"
       r="2598"
       id="circle4394"
       cx="0"
       style="fill:#e32527" /><path
       class="fil2"
       d="m -3138,10543 211,29 c 19,3 26,18 22,45 -4,28 -15,40 -33,38 l -212,-29 -17,129 c -4,23 -15,33 -34,30 -18,-2 -25,-15 -22,-38 l 47,-341 c 3,-23 14,-33 32,-30 19,2 27,15 24,37 l -18,130 z m 222,-434 -57,204 c -8,28 -6,43 7,47 l 22,6 c 11,3 21,-10 30,-40 l 44,-158 c 7,-28 2,-45 -17,-51 l -29,-8 z m 61,-63 c 47,13 58,62 35,145 l -39,140 c -24,87 -59,125 -104,112 l -26,-7 c -41,-11 -49,-60 -25,-146 l 53,-192 c -13,0 -23,11 -29,34 l -17,61 c -6,21 -17,29 -34,24 -16,-4 -22,-17 -16,-38 l 14,-50 c 23,-84 59,-119 106,-106 l 82,23 z m 239,-439 c 17,7 20,23 9,48 -11,24 -25,32 -42,24 l -120,-55 c -11,-5 -24,8 -39,40 l -51,111 c -15,33 -17,52 -5,57 l 119,55 c 17,8 20,23 9,47 -11,24 -25,32 -42,24 l -124,-56 c -42,-20 -42,-73 -1,-162 l 40,-86 c 40,-89 81,-124 122,-105 l 125,58 z m -22,-250 126,81 c 16,10 17,26 3,48 -15,23 -30,28 -45,18 l -127,-81 -5,8 c -13,20 -27,25 -43,15 -15,-10 -16,-25 -3,-45 l 5,-8 -32,-20 c -16,-10 -16,-26 -2,-49 14,-22 29,-27 45,-17 l 32,20 45,-70 c 13,-20 27,-25 42,-15 15,10 17,24 4,44 l -45,71 z m 454,-625 c -13,-12 -39,2 -78,43 l -81,86 c -37,40 -50,66 -37,78 l 94,89 c 14,13 40,0 77,-40 l 98,-103 c 28,-30 35,-51 21,-64 l -94,-89 z m 153,30 c 20,19 25,45 14,78 8,-4 14,-5 19,-4 5,0 9,2 13,5 2,3 4,6 5,10 1,4 2,8 1,12 0,4 -1,9 -3,13 -2,5 -5,9 -8,13 -3,2 -5,5 -8,7 -3,2 -6,3 -10,5 l -72,30 -99,105 c -69,73 -123,91 -163,54 l -96,-91 c -39,-38 -25,-93 44,-166 l 102,-107 c 70,-74 125,-93 163,-56 l 98,92 z m 415,-298 c 28,39 0,88 -84,146 l -69,49 c -84,59 -140,69 -168,29 l -77,-110 c -11,-16 -6,-31 16,-46 21,-15 38,-15 48,0 l 76,109 c 8,11 30,4 67,-22 l 83,-58 c 35,-25 49,-43 42,-53 l -76,-109 c -11,-15 -5,-31 17,-46 21,-15 37,-15 48,0 l 77,111 z m 65,-187 c 2,8 0,14 -4,21 -4,6 -9,10 -15,13 -7,4 -14,6 -20,6 -7,-1 -11,-4 -15,-9 -1,-3 -2,-5 -2,-5 l -18,-65 c -2,-7 -1,-14 4,-21 5,-7 11,-13 18,-16 7,-5 15,-6 22,-6 7,0 12,3 15,9 1,2 1,3 1,4 l 14,69 z m 118,-142 c 10,17 0,33 -29,48 -28,15 -46,14 -55,-3 -9,-16 0,-32 28,-47 29,-15 48,-14 56,2 z m 108,218 c 9,17 2,31 -22,44 -23,12 -39,10 -47,-7 l -74,-138 c -9,-16 -2,-30 20,-42 24,-13 41,-11 49,5 l 74,138 z m 155,-73 c 8,17 0,31 -24,41 -24,11 -40,8 -48,-9 l -100,-221 c -7,-17 1,-31 25,-42 24,-11 39,-8 47,9 l 100,222 z m 328,-277 290,-66 c 21,-5 34,1 38,19 5,19 -4,30 -26,35 l -289,67 8,35 c 4,17 29,21 76,10 l 219,-51 c 22,-5 35,2 39,20 5,18 -4,30 -26,35 l -222,51 c -99,23 -154,9 -166,-41 l -31,-136 c -6,-26 2,-48 25,-67 22,-18 59,-34 110,-46 l 61,-13 c 22,-6 35,1 39,20 4,18 -5,29 -27,34 l -41,10 c -61,14 -89,29 -85,46 l 8,38 z m 822,30 c 2,19 -11,29 -37,31 -27,2 -41,-6 -42,-25 l -10,-131 c -1,-13 -19,-18 -54,-15 l -122,9 c -36,3 -53,11 -52,24 l 10,130 c 1,19 -11,29 -37,31 -27,2 -41,-6 -42,-25 l -10,-136 c -4,-46 43,-72 140,-79 l 95,-8 c 97,-7 147,12 151,57 l 10,137 z m 698,-111 c 3,-17 -19,-30 -67,-38 l -210,-35 -13,75 219,37 c 42,7 64,4 66,-10 l 5,-29 z m 76,43 c -8,50 -62,67 -160,50 l -58,-9 147,78 c 7,4 12,9 15,14 3,6 4,11 3,16 -1,3 -2,7 -5,10 -2,4 -5,6 -9,9 -4,2 -8,4 -13,5 -5,1 -10,1 -15,0 -6,-1 -11,-3 -16,-6 l 0,0 -264,-154 -13,81 c -3,19 -19,26 -45,21 -28,-4 -41,-16 -37,-34 l 40,-241 c 3,-17 15,-23 36,-19 l 253,42 c 106,18 155,54 146,107 l -5,30 z m 154,96 223,76 6,-19 c 4,-10 -7,-20 -34,-29 l -125,-42 c -39,-13 -60,-14 -64,-3 l -6,17 z m 291,117 c -6,19 -21,24 -44,16 l -262,-89 -7,22 c -4,10 14,22 53,35 l 51,18 c 22,7 31,20 25,37 -6,17 -20,22 -43,15 l -39,-14 c -96,-33 -137,-73 -120,-121 l 25,-76 c 17,-47 72,-55 168,-22 l 106,36 c 81,27 114,62 100,104 l -13,39 z m 385,271 c -22,39 -68,39 -137,0 l -181,-103 c -20,-12 -26,-26 -17,-42 9,-16 24,-18 45,-6 l 188,108 c 17,9 28,10 32,3 l 5,-9 c 4,-7 -4,-17 -24,-29 l -100,-56 c -75,-43 -102,-83 -80,-120 l 7,-12 c 20,-37 66,-34 139,7 l 49,28 c 21,12 28,26 18,42 -9,16 -24,18 -45,6 l -60,-35 c -20,-11 -31,-13 -35,-7 l -4,8 c -4,7 6,17 31,31 l 101,58 c 71,40 96,79 74,117 l -6,11 z m 209,9 -86,124 c -10,15 -27,15 -48,0 -22,-14 -27,-30 -17,-45 l 86,-124 -7,-5 c -20,-14 -25,-28 -14,-43 10,-15 25,-16 45,-2 l 7,5 22,-31 c 11,-15 27,-15 49,0 21,14 26,30 16,45 l -22,31 69,48 c 19,13 24,27 13,42 -10,15 -25,16 -44,3 l -69,-48 z m 185,181 171,162 13,-15 c 8,-8 1,-21 -19,-40 l -96,-91 c -30,-28 -49,-38 -57,-29 l -12,13 z m 215,228 c -14,14 -29,12 -47,-4 l -200,-190 -16,16 c -8,8 3,27 33,55 l 39,37 c 18,16 20,31 8,44 -13,13 -28,12 -45,-4 l -30,-29 c -74,-70 -94,-123 -59,-160 l 55,-58 c 34,-37 88,-20 161,49 l 82,76 c 62,59 78,105 47,138 l -28,30 z m 202,146 c -24,-28 -42,-37 -52,-28 l -97,86 c -15,12 -30,9 -48,-11 -17,-20 -19,-36 -5,-49 l 98,-86 c 37,-33 87,-14 148,56 l 15,17 c 15,17 16,31 2,43 -13,12 -27,10 -41,-5 l -20,-23 z m 224,422 -115,-177 c -16,-24 -29,-33 -40,-26 l -19,12 c -10,7 -7,23 10,50 l 89,137 c 16,25 32,32 49,21 l 26,-17 z m 6,88 c -40,26 -84,3 -132,-70 l -78,-121 c -50,-77 -55,-128 -16,-153 l 23,-15 c 35,-23 77,3 126,78 l 109,168 c 8,-11 6,-26 -6,-45 l -35,-53 c -12,-18 -10,-32 4,-42 15,-9 27,-4 39,14 l 29,44 c 47,72 50,122 9,149 l -72,46 z m 301,704 c -55,18 -102,-33 -141,-153 l -24,-76 c -37,-114 -28,-180 27,-198 l 174,-56 c 18,-6 31,5 39,31 9,27 4,43 -14,48 l -168,54 c -23,8 -26,40 -7,97 l 29,91 c 20,62 42,90 65,82 l 168,-54 c 18,-6 31,5 40,32 8,25 3,41 -15,46 l -173,56 z m 25,504 c -19,2 -30,-10 -34,-36 -3,-26 4,-41 23,-43 l 130,-18 c 12,-2 16,-20 12,-55 l -17,-122 c -5,-35 -14,-52 -27,-50 l -129,18 c -19,2 -30,-9 -34,-35 -3,-26 4,-41 23,-43 l 135,-19 c 45,-6 75,39 88,135 l 13,95 c 13,96 -3,148 -48,154 l -135,19 z"
       id="path4396"
       inkscape:connector-curvature="0"
       style="fill:#ffffff;fill-rule:nonzero" /><circle
       class="fil3"
       cy="11000"
       r="3543"
       id="circle4398"
       cx="0"
       style="fill:none" /><circle
       class="fil3"
       cy="11000"
       r="3543"
       id="circle4400"
       cx="0"
       style="fill:none" /><path
       class="fil2"
       d="m -3187,11719 378,-87 -32,-138 48,-11 77,335 -48,11 -32,-138 -377,87 -14,-59 z m 69,260 415,-137 37,112 c 11,32 17,56 19,72 1,16 0,31 -3,44 -5,18 -15,33 -28,46 -14,13 -30,23 -50,30 -34,11 -64,8 -88,-8 -25,-16 -45,-45 -58,-87 l -4,-10 -138,247 -23,-72 140,-239 -2,-8 -198,65 -19,-55 z m 392,-68 -139,46 14,43 c 15,44 30,73 45,84 14,12 34,14 59,6 27,-9 43,-23 48,-42 6,-19 1,-50 -13,-94 l -14,-43 z m -117,622 c 13,24 29,45 48,63 20,18 42,31 67,41 24,10 48,14 72,13 24,-1 47,-7 68,-18 22,-11 40,-27 55,-46 15,-20 25,-42 31,-67 6,-25 7,-51 4,-77 -4,-26 -12,-52 -24,-76 -13,-25 -30,-46 -49,-64 -20,-18 -41,-32 -65,-41 -25,-9 -49,-14 -73,-13 -24,1 -47,7 -69,19 -22,11 -40,26 -54,45 -14,19 -25,41 -31,67 -6,26 -7,52 -4,78 3,26 11,51 24,76 z m 284,154 c -28,15 -57,23 -87,24 -31,1 -62,-5 -93,-18 -30,-12 -59,-31 -84,-55 -26,-24 -47,-51 -63,-83 -17,-31 -27,-64 -32,-99 -5,-34 -4,-68 4,-100 7,-33 20,-62 38,-86 19,-25 42,-44 69,-59 28,-14 57,-22 88,-23 31,-1 62,5 93,18 30,12 58,30 84,54 25,24 46,52 62,83 17,32 28,65 33,100 5,35 4,68 -4,100 -7,33 -20,61 -38,86 -19,24 -42,44 -70,58 z m 213,-93 37,47 -214,168 c -34,27 -53,56 -56,86 -3,29 10,62 38,99 29,36 58,56 87,61 30,4 62,-8 97,-35 l 214,-168 37,48 -214,168 c -46,36 -91,51 -134,43 -43,-7 -85,-36 -125,-87 -40,-52 -58,-99 -55,-143 3,-43 28,-83 74,-120 l 214,-167 z m 156,560 -135,142 -42,-40 301,-317 76,73 c 27,25 45,45 56,59 10,15 17,29 21,44 5,18 5,36 -1,55 -5,19 -15,36 -30,51 -14,16 -31,26 -49,33 -19,6 -37,7 -56,3 -14,-3 -29,-9 -44,-18 -15,-10 -36,-27 -63,-53 l -12,-11 -22,-21 z m 33,-34 22,21 c 37,35 65,55 85,59 20,5 39,-2 57,-21 19,-20 26,-41 21,-61 -5,-21 -26,-49 -63,-83 l -22,-21 -100,106 z m 51,379 270,-343 208,163 -29,38 -162,-127 -77,99 161,126 -30,38 -161,-126 -103,131 161,127 -30,38 -208,-164 z m 578,113 c 21,27 33,54 36,80 4,26 -2,51 -17,74 -21,34 -51,53 -89,58 -38,5 -78,-6 -119,-32 -33,-21 -56,-46 -69,-75 -14,-30 -15,-60 -6,-93 l 58,10 c -8,26 -8,49 -1,70 6,20 21,37 42,51 25,16 50,23 74,20 23,-3 42,-14 54,-34 11,-17 15,-35 11,-54 -3,-19 -13,-40 -29,-62 l -40,-52 c -21,-28 -34,-55 -38,-80 -3,-24 2,-48 17,-71 16,-26 41,-40 75,-43 33,-3 67,6 102,29 25,16 44,35 57,56 12,21 18,44 17,69 l -57,-3 c 0,-20 -4,-38 -11,-52 -7,-15 -19,-27 -33,-36 -19,-12 -38,-17 -57,-15 -18,3 -32,12 -42,27 -8,13 -11,28 -8,43 3,16 12,33 27,53 l 46,62 z m 425,482 -44,-348 -157,260 -55,-20 245,-395 47,399 285,-283 -53,462 -55,-19 37,-301 -250,245 z m 345,90 74,-431 261,46 -8,47 -202,-36 -21,124 202,35 -8,48 -203,-36 -28,165 202,36 -8,47 -261,-45 z m 166,-459 86,-90 69,12 -115,85 -40,-7 z m 282,527 29,-386 -141,-11 4,-49 342,26 -3,49 -141,-10 -30,386 -60,-5 z m 268,16 -9,-437 118,-3 c 34,0 58,1 74,4 16,3 30,8 42,16 15,9 27,23 35,40 9,16 13,35 14,56 1,36 -10,63 -33,82 -23,19 -56,29 -100,30 l -11,0 196,205 -76,1 -188,-204 -8,0 4,208 -58,2 z m 50,-395 3,146 46,0 c 46,-1 78,-7 93,-18 16,-11 23,-29 23,-55 -1,-28 -9,-48 -26,-59 -16,-11 -47,-15 -93,-15 l -46,1 z m 562,306 c 27,-5 52,-14 75,-27 23,-13 42,-30 59,-51 17,-20 28,-41 34,-65 7,-23 8,-46 4,-70 -4,-24 -13,-46 -27,-66 -15,-20 -33,-37 -55,-50 -22,-14 -46,-23 -72,-27 -26,-5 -53,-5 -80,0 -27,5 -53,14 -76,27 -23,13 -42,30 -58,50 -17,20 -28,42 -35,65 -6,24 -7,47 -3,72 4,23 13,45 27,65 14,19 32,36 54,49 23,14 48,23 73,28 26,5 53,5 80,0 z m 234,-224 c 5,31 3,61 -5,91 -8,29 -23,57 -44,82 -22,26 -48,47 -78,64 -31,17 -64,29 -99,35 -35,6 -69,6 -104,0 -34,-6 -66,-17 -94,-34 -29,-17 -53,-38 -71,-63 -18,-24 -29,-52 -34,-83 -6,-31 -4,-61 4,-90 9,-30 24,-58 45,-83 21,-26 47,-47 78,-64 30,-17 63,-28 98,-35 35,-6 70,-6 104,0 35,5 66,17 95,33 29,17 52,38 70,63 17,25 29,53 35,84 z m 123,-26 61,186 -55,18 -138,-415 100,-33 c 35,-11 62,-18 79,-21 18,-2 34,-1 49,2 18,4 34,13 48,27 14,14 24,30 31,50 7,20 8,40 5,59 -3,20 -10,36 -22,51 -10,11 -23,22 -38,30 -15,9 -41,19 -76,31 l -16,5 -28,10 z m -15,-45 28,-10 c 49,-16 80,-32 94,-47 13,-15 16,-36 8,-60 -9,-27 -24,-42 -45,-47 -20,-5 -55,0 -102,16 l -29,9 46,139 z m 561,-10 c 24,-12 46,-28 63,-48 18,-19 32,-41 42,-66 9,-24 13,-48 13,-72 -1,-24 -7,-47 -19,-69 -11,-21 -26,-40 -46,-54 -19,-15 -41,-26 -66,-32 -26,-6 -52,-7 -78,-3 -26,3 -51,11 -76,24 -25,13 -46,29 -64,49 -18,19 -31,41 -41,65 -9,24 -13,49 -12,73 1,24 7,47 18,69 11,21 26,39 45,53 19,15 42,25 67,31 26,7 52,8 78,5 26,-4 52,-12 76,-25 z m 155,-284 c 14,28 22,57 23,88 1,31 -5,61 -17,92 -13,31 -31,59 -55,85 -24,25 -52,46 -83,63 -32,16 -65,27 -99,32 -35,4 -68,3 -101,-4 -33,-7 -61,-20 -86,-39 -24,-18 -44,-41 -58,-68 -15,-28 -22,-57 -23,-88 -1,-31 5,-62 17,-93 13,-31 31,-59 55,-84 24,-25 51,-46 83,-63 32,-16 65,-27 99,-32 35,-5 68,-4 101,3 32,8 61,20 85,39 25,18 44,42 59,69 z m 179,133 -254,-356 49,-34 225,315 154,-110 29,41 -203,144 z m 258,-190 -285,-331 45,-39 286,331 -46,39 z m 201,-179 -268,-280 -103,98 -34,-35 248,-238 34,35 -102,98 268,280 -43,42 z m -1,-498 69,166 105,-121 -174,-45 z m -87,-75 493,124 -43,49 -144,-38 -128,149 59,137 -43,48 -194,-469 z m 513,73 -356,-253 34,-49 356,253 -34,49 z m 105,-148 -403,-209 479,-166 -295,-152 26,-51 403,209 -475,167 291,151 -26,51 z m 242,-489 -414,-141 86,-250 45,15 -67,194 119,41 66,-195 46,16 -66,194 158,54 66,-194 46,16 -85,250 z m -80,-579 c 19,-30 40,-50 64,-62 23,-11 48,-14 75,-8 39,9 67,31 84,65 18,34 21,74 10,122 -9,38 -24,69 -48,91 -23,22 -51,34 -85,36 l -10,-58 c 27,-1 49,-9 66,-22 17,-13 29,-32 34,-57 7,-29 5,-55 -5,-76 -11,-21 -28,-35 -51,-40 -19,-5 -37,-2 -54,7 -17,10 -33,26 -49,49 l -36,55 c -19,30 -40,50 -62,62 -22,12 -46,15 -72,9 -31,-7 -53,-26 -67,-56 -13,-31 -16,-66 -7,-106 7,-30 18,-54 34,-73 16,-19 36,-32 60,-39 l 16,54 c -19,7 -34,17 -46,28 -11,12 -18,27 -22,44 -5,22 -4,41 5,57 8,17 21,27 40,32 15,3 29,1 42,-8 14,-8 28,-22 41,-43 l 43,-63 z"
       id="path4402"
       inkscape:connector-curvature="0"
       style="fill:#ffffff;fill-rule:nonzero" /><path
       class="fil1"
       d="M 0,11244 815,9708 c 124,-234 524,-172 524,111 l 0,2401 c 0,131 -107,237 -237,237 -130,0 -236,-106 -236,-237 l 0,-1600 -657,1239 c -42,79 -119,125 -209,125 -90,0 -167,-46 -209,-125 l -657,-1239 0,1600 c 0,131 -106,237 -236,237 -130,0 -237,-106 -237,-237 l 0,-2401 c 0,-283 398,-349 524,-111 L 0,11244 Z"
       id="path4404"
       inkscape:connector-curvature="0"
       style="fill:#000000" /><path
       class="fil1"
       d="m 0,8677 c 1283,0 2323,1040 2323,2323 0,1283 -1040,2323 -2323,2323 -1283,0 -2323,-1040 -2323,-2323 0,-1283 1040,-2323 2323,-2323 z m 0,158 c 1196,0 2165,969 2165,2165 0,1196 -969,2165 -2165,2165 -1196,0 -2165,-969 -2165,-2165 0,-1196 969,-2165 2165,-2165 z"
       id="path4406"
       inkscape:connector-curvature="0"
       style="fill:#000000" /></g></svg>