<?xml version="1.0" encoding="UTF-8" standalone="no"?>
<!-- Creator: CorelDRAW X7 -->

<svg
   xmlns:dc="http://purl.org/dc/elements/1.1/"
   xmlns:cc="http://creativecommons.org/ns#"
   xmlns:rdf="http://www.w3.org/1999/02/22-rdf-syntax-ns#"
   xmlns:svg="http://www.w3.org/2000/svg"
   xmlns="http://www.w3.org/2000/svg"
   xmlns:sodipodi="http://sodipodi.sourceforge.net/DTD/sodipodi-0.dtd"
   xmlns:inkscape="http://www.inkscape.org/namespaces/inkscape"
   xml:space="preserve"
   width="7.8740005in"
   height="7.8740005in"
   version="1.1"
   style="clip-rule:evenodd;fill-rule:evenodd;image-rendering:optimizeQuality;shape-rendering:geometricPrecision;text-rendering:geometricPrecision"
   viewBox="0 0 7874.0005 7874.0005"
   id="svg4324"
   inkscape:version="0.91 r13725"
   sodipodi:docname="Ariadna - Tankhunters Regiment - [N3] [Vyo].svg"><metadata
     id="metadata4380"><rdf:RDF><cc:Work
         rdf:about=""><dc:format>image/svg+xml</dc:format><dc:type
           rdf:resource="http://purl.org/dc/dcmitype/StillImage" /></cc:Work></rdf:RDF></metadata><sodipodi:namedview
     pagecolor="#ffffff"
     bordercolor="#666666"
     borderopacity="1"
     objecttolerance="10"
     gridtolerance="10"
     guidetolerance="10"
     inkscape:pageopacity="0"
     inkscape:pageshadow="2"
     inkscape:window-width="640"
     inkscape:window-height="480"
     id="namedview4378"
     showgrid="false"
     inkscape:zoom="0.23838384"
     inkscape:cx="736.83001"
     inkscape:cy="849.33005"
     inkscape:window-x="0"
     inkscape:window-y="0"
     inkscape:window-maximized="0"
     inkscape:current-layer="svg4324" /><defs
     id="defs4326"><style
       type="text/css"
       id="style4328"><![CDATA[
    .fil3 {fill:none}
    .fil0 {fill:#E2001A}
    .fil1 {fill:#FFD600}
    .fil2 {fill:white;fill-rule:nonzero}
   ]]></style></defs><g
     id="Layer_x0020_1"
     transform="translate(3937,-7063)"><metadata
       id="CorelCorpID_0Corel-Layer" /><circle
       class="fil0"
       cy="11000"
       r="3937"
       id="circle4332"
       cx="0"
       style="fill:#e2001a" /><circle
       class="fil1"
       cy="11000"
       r="3858"
       id="circle4334"
       cx="0"
       style="fill:#ffd600" /><circle
       class="fil0"
       cy="11000"
       r="3661"
       id="circle4336"
       cx="0"
       style="fill:#e2001a" /><path
       class="fil1"
       d="m 0,8185 c 1555,0 2815,1260 2815,2815 0,747 -291,1425 -765,1929 l -4100,0 c -474,-504 -765,-1182 -765,-1929 0,-1555 1260,-2815 2815,-2815 z"
       id="path4338"
       inkscape:connector-curvature="0"
       style="fill:#ffd600" /><path
       class="fil0"
       d="m -1981,12772 3962,0 c 436,-488 676,-1115 676,-1772 C 2657,9532 1468,8343 0,8343 c -1468,0 -2657,1189 -2657,2657 0,657 240,1284 676,1772 z"
       id="path4340"
       inkscape:connector-curvature="0"
       style="fill:#e2001a" /><path
       class="fil2"
       d="m -2159,13769 218,-646 106,0 218,646 -91,0 -58,-179 -248,0 -58,179 -87,0 z m 368,-254 -99,-303 -100,303 199,0 z"
       id="path4342"
       inkscape:connector-curvature="0"
       style="fill:#ffffff;fill-rule:nonzero" /><path
       id="1"
       class="fil2"
       d="m -1079,13318 c 0,28 -6,55 -15,80 -10,25 -24,46 -42,64 -22,22 -48,38 -78,50 -30,11 -68,17 -114,17 l -72,0 0,240 -87,0 0,-646 162,0 c 39,0 71,3 98,10 27,6 50,16 71,31 24,16 43,37 56,62 14,26 21,56 21,92 z m -90,2 c 0,-22 -4,-41 -12,-57 -7,-17 -19,-30 -34,-40 -14,-10 -30,-16 -48,-19 -18,-4 -40,-6 -67,-6 l -70,0 0,256 58,0 c 34,0 62,-3 84,-9 21,-5 38,-15 53,-29 12,-13 21,-27 27,-43 6,-15 9,-33 9,-53 z"
       inkscape:connector-curvature="0"
       style="fill:#ffffff;fill-rule:nonzero" /><polygon
       id="2"
       class="fil2"
       points="-840,13769 -927,13769 -927,13123 -841,13123 -841,13628 -554,13123 -463,13123 -463,13769 -549,13769 -549,13256 "
       style="fill:#ffffff;fill-rule:nonzero" /><path
       id="3"
       class="fil2"
       d="m -332,13769 218,-646 106,0 218,646 -91,0 -58,-179 -248,0 -58,179 -87,0 z m 368,-254 -99,-303 -100,303 199,0 z"
       inkscape:connector-curvature="0"
       style="fill:#ffffff;fill-rule:nonzero" /><path
       id="4"
       class="fil2"
       d="m 865,13916 -82,0 0,-148 -419,0 0,148 -81,0 0,-223 35,0 c 38,-62 68,-142 91,-242 23,-100 35,-209 35,-328 l 360,0 0,570 61,0 0,223 z m -148,-223 0,-495 -193,0 c -4,104 -18,199 -39,284 -22,85 -50,155 -84,211 l 316,0 z"
       inkscape:connector-curvature="0"
       style="fill:#ffffff;fill-rule:nonzero" /><polygon
       id="5"
       class="fil2"
       points="1104,13453 1104,13769 1018,13769 1018,13123 1104,13123 1104,13377 1400,13377 1400,13123 1486,13123 1486,13769 1400,13769 1400,13453 "
       style="fill:#ffffff;fill-rule:nonzero" /><path
       id="6"
       class="fil2"
       d="m 1617,13769 218,-646 106,0 218,646 -91,0 -58,-179 -247,0 -59,179 -87,0 z m 369,-254 -100,-303 -99,303 199,0 z"
       inkscape:connector-curvature="0"
       style="fill:#ffffff;fill-rule:nonzero" /><circle
       class="fil3"
       cy="11000"
       r="3898"
       id="circle4350"
       cx="0"
       style="fill:none" /><polygon
       class="fil2"
       points="-2876,11330 -2869,11416 -3513,11469 -3520,11383 -3017,11343 -3543,11097 -3550,11006 -2906,10954 -2899,11040 -3411,11081 "
       id="polygon4352"
       style="fill:#ffffff;fill-rule:nonzero" /><path
       id="path4354"
       class="fil2"
       d="m -2842,10546 c -6,41 -19,79 -38,112 -19,33 -45,60 -76,81 -32,21 -69,36 -113,44 -44,7 -92,7 -146,-1 -53,-8 -99,-22 -137,-41 -37,-20 -69,-45 -95,-75 -24,-30 -42,-63 -51,-101 -10,-37 -12,-77 -5,-120 3,-22 7,-41 13,-60 6,-18 13,-35 20,-50 7,-13 14,-27 23,-40 8,-13 18,-27 27,-40 l 103,16 -1,7 c -8,6 -18,15 -29,25 -11,10 -23,23 -35,39 -11,15 -21,31 -29,50 -9,18 -15,40 -19,65 -4,27 -2,54 5,80 8,26 21,50 40,71 19,22 44,40 75,55 31,15 68,25 109,31 43,7 82,7 115,1 33,-6 61,-16 86,-31 24,-15 43,-33 57,-56 14,-22 24,-47 28,-74 3,-24 4,-48 1,-69 -3,-22 -8,-42 -14,-60 -7,-17 -14,-32 -22,-45 -7,-12 -14,-23 -19,-30 l 1,-7 101,15 c 5,15 9,30 13,43 4,13 8,29 11,48 3,20 5,37 6,54 1,16 -1,37 -5,63 z"
       inkscape:connector-curvature="0"
       style="fill:#ffffff;fill-rule:nonzero" /><polygon
       id="polygon4356"
       class="fil2"
       points="-3429,10074 -3247,9586 -3175,9613 -3251,9817 -2719,10017 -2749,10097 -3281,9897 -3358,10101 "
       style="fill:#ffffff;fill-rule:nonzero" /><path
       id="path4358"
       class="fil2"
       d="m -2798,9153 c 24,13 45,31 62,52 17,21 29,43 35,67 9,30 10,61 6,93 -5,32 -19,68 -41,108 l -36,63 211,118 -42,75 -564,-315 79,-142 c 19,-33 37,-60 56,-80 19,-21 39,-36 61,-47 26,-13 54,-20 83,-19 28,0 58,9 90,27 z m -42,78 c -19,-10 -38,-16 -56,-18 -18,-1 -35,3 -52,11 -14,8 -27,19 -39,33 -13,14 -25,33 -38,56 l -35,63 223,124 29,-51 c 17,-31 28,-56 33,-78 6,-21 6,-42 0,-61 -5,-18 -12,-33 -23,-45 -10,-13 -24,-24 -42,-34 z"
       inkscape:connector-curvature="0"
       style="fill:#ffffff;fill-rule:nonzero" /><polygon
       id="polygon4360"
       class="fil2"
       points="-2498,8599 -2710,8836 -2578,8954 -2381,8733 -2324,8783 -2521,9004 -2342,9164 -2130,8927 -2073,8978 -2342,9279 -2824,8849 -2555,8548 "
       style="fill:#ffffff;fill-rule:nonzero" /><path
       id="path4362"
       class="fil2"
       d="m -1768,8456 c 19,24 32,50 38,78 6,28 6,54 0,79 -8,30 -20,57 -37,80 -17,24 -43,49 -78,76 l -148,115 -397,-510 312,-242 47,60 -244,190 109,139 82,-64 c 34,-27 64,-47 89,-60 26,-13 54,-19 85,-20 28,0 54,7 77,21 24,13 46,32 65,58 z m -69,55 c -14,-17 -28,-30 -44,-38 -15,-9 -33,-12 -51,-11 -19,2 -38,8 -56,19 -18,11 -42,28 -72,52 l -61,47 150,193 60,-46 c 30,-24 53,-44 67,-59 14,-16 24,-33 30,-51 6,-19 7,-37 3,-53 -3,-17 -12,-34 -26,-53 z"
       inkscape:connector-curvature="0"
       style="fill:#ffffff;fill-rule:nonzero" /><polygon
       id="polygon4364"
       class="fil2"
       points="-1474,8510 -1551,8552 -1859,7984 -1784,7943 -1543,8387 -1532,7806 -1452,7762 -1143,8331 -1219,8372 -1464,7921 "
       style="fill:#ffffff;fill-rule:nonzero" /><polygon
       id="7"
       class="fil2"
       points="-1244,7675 -747,7525 -725,7597 -932,7660 -767,8206 -849,8231 -1015,7685 -1222,7748 "
       style="fill:#ffffff;fill-rule:nonzero" /><polygon
       id="8"
       class="fil2"
       points="-108,7531 -425,7556 -411,7732 -115,7708 -109,7785 -405,7809 -386,8048 -68,8022 -62,8098 -465,8131 -517,7487 -114,7454 "
       style="fill:#ffffff;fill-rule:nonzero" /><path
       id="9"
       class="fil2"
       d="m 530,8140 -85,-7 47,-567 -219,-18 c -3,32 -7,64 -11,95 -4,30 -7,58 -10,82 -8,61 -15,111 -24,150 -8,39 -17,72 -28,98 -10,26 -21,46 -32,61 -12,15 -25,28 -38,38 -14,11 -28,18 -44,23 -15,5 -32,6 -52,5 -6,-1 -12,-2 -18,-3 -6,-1 -11,-1 -14,-1 l 6,-83 6,1 c 3,0 6,1 8,1 2,0 5,1 9,1 10,1 20,0 29,-2 9,-3 17,-7 24,-13 21,-18 39,-51 52,-100 13,-48 25,-114 36,-197 3,-28 8,-66 13,-112 5,-46 10,-89 15,-127 l 383,31 -53,644 z"
       inkscape:connector-curvature="0"
       style="fill:#ffffff;fill-rule:nonzero" /><polygon
       id="10"
       class="fil2"
       points="769,8203 687,8175 893,7563 974,7590 813,8068 1247,7682 1333,7711 1127,8323 1046,8296 1209,7810 "
       style="fill:#ffffff;fill-rule:nonzero" /><polygon
       id="11"
       class="fil2"
       points="1848,7974 2277,8269 2234,8332 2055,8209 1732,8678 1661,8630 1984,8160 1805,8037 "
       style="fill:#ffffff;fill-rule:nonzero" /><path
       id="12"
       class="fil2"
       d="m 1926,8821 621,-283 72,77 -321,602 -63,-67 92,-166 -170,-180 -171,81 -60,-64 z m 438,95 153,-280 -289,135 136,145 z"
       inkscape:connector-curvature="0"
       style="fill:#ffffff;fill-rule:nonzero" /><polygon
       id="13"
       class="fil2"
       points="2655,9192 2391,9366 2344,9294 2883,8939 2930,9011 2719,9150 2883,9397 3094,9258 3141,9330 2602,9686 2554,9614 2819,9439 "
       style="fill:#ffffff;fill-rule:nonzero" /><path
       id="14"
       class="fil2"
       d="m 2814,10288 -33,-105 214,-306 -17,-52 -282,89 -26,-81 616,-194 26,81 -278,88 c 12,32 28,55 49,69 21,14 48,23 80,25 14,1 27,2 40,3 12,0 23,0 31,0 52,2 92,13 117,33 26,20 46,53 61,99 l 8,25 -73,23 -7,-21 c -10,-33 -24,-55 -42,-64 -17,-10 -46,-14 -86,-14 -40,0 -71,-4 -92,-13 -22,-9 -42,-21 -61,-37 l -245,352 z"
       inkscape:connector-curvature="0"
       style="fill:#ffffff;fill-rule:nonzero" /><path
       id="15"
       class="fil2"
       d="m 3468,10740 c -25,29 -57,53 -96,72 -40,20 -86,34 -140,42 -52,7 -99,8 -143,1 -44,-7 -82,-21 -114,-42 -33,-21 -60,-48 -79,-81 -20,-33 -32,-70 -39,-112 -6,-43 -4,-83 5,-120 10,-36 27,-69 52,-99 25,-28 57,-52 97,-72 39,-19 85,-33 137,-40 54,-8 102,-9 145,-1 43,7 81,21 113,41 32,20 58,47 78,79 20,33 33,71 40,113 6,44 4,84 -6,121 -10,38 -27,70 -50,98 z m -249,25 c 43,-6 79,-17 111,-31 31,-13 56,-30 75,-50 19,-20 33,-43 40,-68 8,-26 9,-54 5,-83 -5,-31 -14,-57 -28,-79 -14,-21 -34,-39 -59,-53 -24,-14 -54,-23 -88,-27 -34,-4 -72,-3 -113,3 -84,13 -146,40 -185,82 -39,41 -55,92 -46,151 9,59 38,103 88,131 50,28 116,36 200,24 z"
       inkscape:connector-curvature="0"
       style="fill:#ffffff;fill-rule:nonzero" /><path
       id="16"
       class="fil2"
       d="m 3063,11479 c -32,-3 -60,-11 -83,-25 -24,-15 -43,-33 -57,-54 -17,-26 -28,-53 -34,-82 -5,-28 -6,-64 -3,-108 l 15,-185 644,53 -14,171 c -4,46 -8,81 -13,103 -5,23 -14,44 -27,65 -15,22 -32,37 -53,46 -21,9 -45,13 -72,10 -30,-2 -57,-12 -79,-30 -23,-19 -40,-42 -51,-72 l -3,0 c -14,38 -35,66 -64,85 -30,18 -65,26 -106,23 z m 298,-96 c 15,2 29,0 41,-4 12,-4 21,-12 29,-23 9,-13 15,-28 18,-45 3,-17 6,-41 8,-71 l 7,-82 -187,-16 -9,98 c -2,27 -2,47 0,60 1,13 6,26 13,41 7,13 18,24 31,30 13,7 29,11 49,12 z m -294,7 c 24,2 45,0 61,-6 16,-6 30,-19 43,-39 9,-13 14,-27 18,-43 3,-16 6,-39 8,-68 l 8,-98 -237,-19 -6,69 c -3,38 -3,68 -2,90 2,22 8,42 17,59 10,17 22,30 36,39 13,8 31,14 54,16 z"
       inkscape:connector-curvature="0"
       style="fill:#ffffff;fill-rule:nonzero" /><path
       class="fil1"
       d="m 39,8716 427,1322 -427,588 0,-1910 z m 491,1368 1389,-2 -1816,590 427,-588 z m 1414,72 -1126,815 -691,-224 1817,-591 z m -1150,890 431,1320 -1122,-1545 691,225 z m 368,1367 -1123,-819 0,-726 1123,1545 z m -1201,-819 -1123,819 1123,-1545 0,726 z m -1186,772 431,-1320 691,-225 -1122,1545 z m 407,-1395 -1126,-815 1817,591 -691,224 z m -1101,-889 1389,2 427,588 -1816,-590 z m 1453,-44 427,-1322 0,1910 -427,-588 z"
       id="path4376"
       inkscape:connector-curvature="0"
       style="fill:#ffd600" /></g></svg>