<?xml version="1.0" encoding="UTF-8" standalone="no"?>
<!-- Creator: CorelDRAW X7 -->

<svg
   xmlns:dc="http://purl.org/dc/elements/1.1/"
   xmlns:cc="http://creativecommons.org/ns#"
   xmlns:rdf="http://www.w3.org/1999/02/22-rdf-syntax-ns#"
   xmlns:svg="http://www.w3.org/2000/svg"
   xmlns="http://www.w3.org/2000/svg"
   xmlns:sodipodi="http://sodipodi.sourceforge.net/DTD/sodipodi-0.dtd"
   xmlns:inkscape="http://www.inkscape.org/namespaces/inkscape"
   xml:space="preserve"
   width="7.8740005in"
   height="7.8740005in"
   version="1.1"
   style="clip-rule:evenodd;fill-rule:evenodd;image-rendering:optimizeQuality;shape-rendering:geometricPrecision;text-rendering:geometricPrecision"
   viewBox="0 0 7874.0005 7874.0005"
   id="svg2"
   inkscape:version="0.91 r13725"
   sodipodi:docname="Ariadna - Airborne - [N3] [Vyo].svg"><metadata
     id="metadata56"><rdf:RDF><cc:Work
         rdf:about=""><dc:format>image/svg+xml</dc:format><dc:type
           rdf:resource="http://purl.org/dc/dcmitype/StillImage" /></cc:Work></rdf:RDF></metadata><sodipodi:namedview
     pagecolor="#ffffff"
     bordercolor="#666666"
     borderopacity="1"
     objecttolerance="10"
     gridtolerance="10"
     guidetolerance="10"
     inkscape:pageopacity="0"
     inkscape:pageshadow="2"
     inkscape:window-width="640"
     inkscape:window-height="480"
     id="namedview54"
     showgrid="false"
     inkscape:zoom="0.23838384"
     inkscape:cx="736.83001"
     inkscape:cy="849.33005"
     inkscape:window-x="0"
     inkscape:window-y="0"
     inkscape:window-maximized="0"
     inkscape:current-layer="svg2" /><defs
     id="defs4"><style
       type="text/css"
       id="style6"><![CDATA[
    .str3 {stroke:black;stroke-width:3}
    .str0 {stroke:black;stroke-width:3}
    .str1 {stroke:black;stroke-width:3}
    .str2 {stroke:yellow;stroke-width:3}
    .fil2 {fill:none}
    .fil4 {fill:none;fill-rule:nonzero}
    .fil0 {fill:black}
    .fil5 {fill:black}
    .fil1 {fill:#FFD600}
    .fil3 {fill:white;fill-rule:nonzero}
   ]]></style></defs><g
     id="Layer_x0020_1"
     transform="translate(3937,-7063)"><metadata
       id="CorelCorpID_0Corel-Layer" /><circle
       class="fil0"
       cy="11000"
       r="3937"
       id="circle10"
       cx="0"
       style="fill:#000000" /><circle
       class="fil1"
       cy="11000"
       r="3858"
       id="circle12"
       cx="0"
       style="fill:#ffd600" /><circle
       class="fil0"
       cy="11000"
       r="3780"
       id="circle14"
       cx="0"
       style="fill:#000000" /><polygon
       class="fil1"
       points="-1083,11302 -1752,13361 0,12088 1752,13361 1083,11302 2835,10029 669,10029 0,7969 -669,10029 -2835,10029 "
       id="polygon16"
       style="fill:#ffd600" /><polygon
       class="fil0"
       points="-990,11272 -1602,13155 0,11991 1602,13155 990,11272 2592,10108 612,10108 0,8224 -612,10108 -2592,10108 "
       id="polygon18"
       style="fill:#000000" /><path
       class="fil1"
       d="m 0,7693 c 1008,0 1899,229 2441,581 l 0,1535 C 1899,9458 1008,9228 0,9228 c -1008,0 -1899,230 -2441,581 l 0,-1535 c 542,-352 1433,-581 2441,-581 z"
       id="path20"
       inkscape:connector-curvature="0"
       style="fill:#ffd600" /><path
       class="fil0"
       d="m -2402,8295 0,1443 c 303,-183 658,-307 998,-389 456,-111 935,-160 1404,-160 469,0 948,49 1404,160 340,82 695,206 998,389 l 0,-1443 C 2098,8103 1733,7974 1386,7890 935,7780 463,7732 0,7732 c -463,0 -935,48 -1386,158 -347,84 -712,213 -1016,405 z"
       id="path22"
       inkscape:connector-curvature="0"
       style="fill:#000000" /><path
       class="fil1"
       d="m -2244,8384 0,1090 c 673,-325 1535,-443 2244,-443 709,0 1571,118 2244,443 l 0,-1090 C 1613,8016 705,7890 0,7890 c -705,0 -1613,126 -2244,494 z"
       id="path24"
       inkscape:connector-curvature="0"
       style="fill:#ffd600" /><path
       class="fil0"
       d="m -2165,8430 0,921 c 666,-291 1482,-398 2165,-398 683,0 1499,107 2165,398 l 0,-921 C 1549,8087 675,7969 0,7969 c -675,0 -1549,118 -2165,461 z"
       id="path26"
       inkscape:connector-curvature="0"
       style="fill:#000000" /><ellipse
       class="fil2"
       cy="10213"
       rx="2992"
       ry="1378"
       id="ellipse28"
       cx="0"
       style="fill:none" /><path
       class="fil3"
       d="m -1778,8420 106,-35 c -47,200 -79,334 -96,402 l 1,2 c -22,92 -35,147 -40,163 -24,93 -37,142 -40,150 -4,4 -7,7 -10,8 l -110,36 c -9,1 -13,-3 -13,-10 l 0,-3 c 7,-29 55,-208 145,-539 l 44,-161 c 0,-3 4,-7 13,-13 z m 127,-41 c 9,-4 17,8 22,34 116,349 175,531 179,547 l 0,2 c -2,10 -6,16 -13,19 l -109,35 c -9,3 -16,-8 -21,-33 -1,-4 -13,-40 -35,-110 l -153,51 c 16,-68 28,-115 33,-143 l 87,-28 -44,-149 c 34,-148 52,-223 54,-225 z m 256,-69 108,-26 c 10,0 15,4 15,12 l 0,634 c -1,10 -6,16 -13,17 l -113,27 c -9,0 -13,-4 -13,-11 l 0,-634 c 0,-8 5,-14 16,-19 z m 171,-45 128,-20 0,648 c 0,9 -6,15 -18,19 l -108,16 c -10,0 -15,-5 -15,-13 l 0,-633 c 2,-10 6,-16 13,-17 z m 148,-23 131,-20 c 72,-12 128,5 166,49 25,31 38,71 38,122 0,65 -22,121 -64,169 -19,18 -35,30 -46,35 l 0,3 c 86,145 132,222 135,230 l 0,4 c -2,11 -7,17 -14,18 l -124,19 c -10,2 -19,-7 -26,-25 -66,-116 -102,-181 -108,-194 l -88,14 0,-135 101,-16 c 49,-7 77,-27 85,-58 3,-12 5,-20 5,-27 l 0,-14 c 0,-33 -15,-53 -45,-58 -15,-1 -32,0 -52,3 l -94,15 0,-134 z m 414,-63 127,-7 0,664 -130,7 c -9,-1 -13,-6 -13,-14 l 0,-633 c 0,-8 5,-13 16,-17 z m 147,-8 78,-5 c 84,-5 141,5 172,29 42,27 63,72 63,134 0,59 -22,106 -66,140 39,14 66,37 81,70 11,23 16,48 16,76 l 0,3 c 0,90 -41,153 -123,189 -29,11 -58,18 -87,20 l -134,7 0,-130 115,-6 c 57,-4 85,-29 85,-77 l 0,-7 c 0,-27 -10,-46 -30,-56 -15,-8 -40,-11 -76,-8 l -94,5 0,-129 79,-5 c 46,-2 73,-12 82,-29 6,-12 9,-25 9,-39 0,-25 -8,-41 -23,-49 -12,-7 -35,-10 -69,-8 l -78,5 0,-130 z m 662,-18 0,131 c 0,2 -1,3 -2,3 l -2,0 c -47,-1 -84,25 -109,76 -14,33 -21,70 -21,110 l 0,13 c 0,92 29,154 85,186 18,7 34,11 49,11 l 0,134 c -107,-2 -186,-51 -237,-149 -26,-52 -38,-111 -38,-178 l 0,-18 c 0,-144 51,-242 154,-295 39,-17 80,-24 121,-24 z m 21,0 c 57,1 112,21 163,61 69,62 104,153 104,273 0,113 -33,202 -100,265 -51,43 -106,64 -165,64 l -2,0 0,-134 1,0 c 30,0 59,-16 86,-48 24,-38 36,-85 36,-140 l 0,-21 c -3,-90 -30,-148 -82,-174 -12,-7 -26,-11 -41,-12 l 0,-134 z m 317,14 129,13 0,649 c 0,8 -6,13 -18,13 l -108,-11 c -11,-4 -16,-10 -16,-18 l 0,-633 c 2,-10 6,-14 13,-13 z m 149,16 132,14 c 72,7 128,38 167,93 25,37 38,81 38,131 0,65 -22,116 -65,152 -19,14 -34,22 -46,24 l 0,2 c 87,168 133,257 136,267 l 0,3 c -2,10 -7,15 -14,14 l -124,-13 c -11,-1 -19,-12 -26,-31 -67,-135 -104,-209 -110,-223 l -88,-10 0,-135 102,11 c 49,5 77,-7 86,-36 3,-10 4,-19 4,-26 l 0,-13 c 0,-34 -15,-57 -45,-70 -15,-5 -33,-9 -52,-11 l -95,-10 0,-133 z m 409,51 113,23 0,650 c 0,8 -5,11 -16,11 l -94,-20 c -10,-2 -16,-10 -17,-24 l 0,-624 c 1,-12 6,-18 14,-16 z m 354,74 100,20 c 7,2 12,9 14,20 l 0,630 c -2,11 -7,16 -15,14 l -113,-24 0,-650 c 0,-7 5,-10 14,-10 z m -221,-45 c 5,1 16,24 34,69 102,235 153,353 153,354 l 0,277 -1,0 c -6,-1 -16,-21 -30,-59 -3,-6 -28,-63 -74,-172 -45,-102 -72,-165 -82,-189 l 0,-280 z m 376,83 122,40 0,664 -123,-40 c -7,-3 -11,-10 -14,-22 l 0,-628 c 2,-12 7,-16 15,-14 z m 141,46 264,87 c 10,5 14,12 14,20 l 0,104 c 0,7 -5,11 -15,10 l -263,-86 0,-135 z m 0,262 265,87 c 10,5 15,12 15,20 l 0,102 c -3,10 -7,13 -15,11 l -265,-87 0,-133 z m 0,268 280,92 c 9,5 14,12 14,20 l 0,104 c -2,9 -7,12 -13,10 l -281,-92 0,-134 z"
       id="path30"
       inkscape:connector-curvature="0"
       style="fill:#ffffff;fill-rule:nonzero" /><path
       id="1"
       class="fil4 str0"
       d="m -1778,8420 106,-35 c -47,200 -79,334 -96,402 l 1,2 c -22,92 -35,147 -40,163 -24,93 -37,142 -40,150 -4,4 -7,7 -10,8 l -110,36 c -9,1 -13,-3 -13,-10 l 0,-3 c 7,-29 55,-208 145,-539 l 44,-161 c 0,-3 4,-7 13,-13 z m 127,-41 c 9,-4 17,8 22,34 116,349 175,531 179,547 l 0,2 c -2,10 -6,16 -13,19 l -109,35 c -9,3 -16,-8 -21,-33 -1,-4 -13,-40 -35,-110 l -153,51 c 16,-68 28,-115 33,-143 l 87,-28 -44,-149 c 34,-148 52,-223 54,-225 z m 256,-69 108,-26 c 10,0 15,4 15,12 l 0,634 c -1,10 -6,16 -13,17 l -113,27 c -9,0 -13,-4 -13,-11 l 0,-634 c 0,-8 5,-14 16,-19 z m 171,-45 128,-20 0,648 c 0,9 -6,15 -18,19 l -108,16 c -10,0 -15,-5 -15,-13 l 0,-633 c 2,-10 6,-16 13,-17 z m 148,-23 131,-20 c 72,-12 128,5 166,49 25,31 38,71 38,122 0,65 -22,121 -64,169 -19,18 -35,30 -46,35 l 0,3 c 86,145 132,222 135,230 l 0,4 c -2,11 -7,17 -14,18 l -124,19 c -10,2 -19,-7 -26,-25 -66,-116 -102,-181 -108,-194 l -88,14 0,-135 101,-16 c 49,-7 77,-27 85,-58 3,-12 5,-20 5,-27 l 0,-14 c 0,-33 -15,-53 -45,-58 -15,-1 -32,0 -52,3 l -94,15 0,-134 z m 414,-63 127,-7 0,664 -130,7 c -9,-1 -13,-6 -13,-14 l 0,-633 c 0,-8 5,-13 16,-17 z m 147,-8 78,-5 c 84,-5 141,5 172,29 42,27 63,72 63,134 0,59 -22,106 -66,140 39,14 66,37 81,70 11,23 16,48 16,76 l 0,3 c 0,90 -41,153 -123,189 -29,11 -58,18 -87,20 l -134,7 0,-130 115,-6 c 57,-4 85,-29 85,-77 l 0,-7 c 0,-27 -10,-46 -30,-56 -15,-8 -40,-11 -76,-8 l -94,5 0,-129 79,-5 c 46,-2 73,-12 82,-29 6,-12 9,-25 9,-39 0,-25 -8,-41 -23,-49 -12,-7 -35,-10 -69,-8 l -78,5 0,-130 z m 662,-18 0,131 c 0,2 -1,3 -2,3 l -2,0 c -47,-1 -84,25 -109,76 -14,33 -21,70 -21,110 l 0,13 c 0,92 29,154 85,186 18,7 34,11 49,11 l 0,134 c -107,-2 -186,-51 -237,-149 -26,-52 -38,-111 -38,-178 l 0,-18 c 0,-144 51,-242 154,-295 39,-17 80,-24 121,-24 z m 21,0 c 57,1 112,21 163,61 69,62 104,153 104,273 0,113 -33,202 -100,265 -51,43 -106,64 -165,64 l -2,0 0,-134 1,0 c 30,0 59,-16 86,-48 24,-38 36,-85 36,-140 l 0,-21 c -3,-90 -30,-148 -82,-174 -12,-7 -26,-11 -41,-12 l 0,-134 z m 317,14 129,13 0,649 c 0,8 -6,13 -18,13 l -108,-11 c -11,-4 -16,-10 -16,-18 l 0,-633 c 2,-10 6,-14 13,-13 z m 149,16 132,14 c 72,7 128,38 167,93 25,37 38,81 38,131 0,65 -22,116 -65,152 -19,14 -34,22 -46,24 l 0,2 c 87,168 133,257 136,267 l 0,3 c -2,10 -7,15 -14,14 l -124,-13 c -11,-1 -19,-12 -26,-31 -67,-135 -104,-209 -110,-223 l -88,-10 0,-135 102,11 c 49,5 77,-7 86,-36 3,-10 4,-19 4,-26 l 0,-13 c 0,-34 -15,-57 -45,-70 -15,-5 -33,-9 -52,-11 l -95,-10 0,-133 z m 409,51 113,23 0,650 c 0,8 -5,11 -16,11 l -94,-20 c -10,-2 -16,-10 -17,-24 l 0,-624 c 1,-12 6,-18 14,-16 z m 354,74 100,20 c 7,2 12,9 14,20 l 0,630 c -2,11 -7,16 -15,14 l -113,-24 0,-650 c 0,-7 5,-10 14,-10 z m -221,-45 c 5,1 16,24 34,69 102,235 153,353 153,354 l 0,277 -1,0 c -6,-1 -16,-21 -30,-59 -3,-6 -28,-63 -74,-172 -45,-102 -72,-165 -82,-189 l 0,-280 z m 376,83 122,40 0,664 -123,-40 c -7,-3 -11,-10 -14,-22 l 0,-628 c 2,-12 7,-16 15,-14 z m 141,46 264,87 c 10,5 14,12 14,20 l 0,104 c 0,7 -5,11 -15,10 l -263,-86 0,-135 z m 0,262 265,87 c 10,5 15,12 15,20 l 0,102 c -3,10 -7,13 -15,11 l -265,-87 0,-133 z m 0,268 280,92 c 9,5 14,12 14,20 l 0,104 c -2,9 -7,12 -13,10 l -281,-92 0,-134 z"
       inkscape:connector-curvature="0"
       style="fill:none;fill-rule:nonzero;stroke:#000000;stroke-width:3" /><polygon
       class="fil1"
       points="512,11787 315,12496 472,12457 39,13953 -39,12654 -197,12713 -138,12024 -295,12083 -335,11551 315,11472 256,11827 "
       id="polygon33"
       style="fill:#ffd600" /><circle
       class="fil2"
       cy="11000"
       r="3898"
       id="circle35"
       cx="0"
       style="fill:none" /><path
       class="fil3"
       d="m -3591,11009 634,-48 14,180 c 5,71 5,121 1,149 -4,28 -14,53 -27,74 -16,25 -37,44 -62,58 -26,14 -55,23 -88,25 -49,4 -90,-5 -122,-27 -33,-22 -56,-55 -69,-101 l -243,192 -15,-195 238,-164 -249,19 -12,-162 z m 347,137 2,31 c 3,38 11,64 25,81 14,16 35,23 62,21 32,-3 54,-12 66,-29 12,-17 17,-45 14,-83 l -3,-34 -166,13 z m 44,692 c 24,-8 41,-22 52,-41 11,-19 14,-40 9,-63 -6,-24 -17,-42 -34,-54 -16,-11 -39,-16 -67,-15 l 40,173 z m -51,168 -75,-325 c -32,8 -56,23 -70,43 -14,21 -17,47 -10,77 5,23 14,41 26,55 12,14 28,23 46,27 l -19,124 c -36,-6 -67,-24 -93,-54 -25,-31 -44,-71 -55,-121 -18,-74 -11,-139 20,-193 31,-55 80,-90 148,-106 67,-15 127,-5 182,30 54,34 89,86 105,155 16,71 7,132 -28,183 -35,51 -92,86 -169,103 l -8,2 z m -143,183 400,-181 58,129 -81,37 c 41,4 74,15 101,33 26,17 46,43 62,77 12,26 18,51 19,75 0,24 -4,46 -14,65 -9,17 -22,32 -39,45 -17,13 -45,28 -83,46 l -229,103 -63,-141 214,-97 c 32,-14 52,-30 62,-47 10,-17 10,-37 -1,-59 -13,-30 -33,-46 -61,-50 -28,-4 -66,6 -115,28 l -167,75 -63,-138 z m 636,738 c 29,-18 47,-40 53,-66 7,-26 2,-52 -15,-78 -17,-26 -38,-42 -65,-46 -26,-5 -53,3 -82,21 -29,19 -47,41 -54,66 -6,26 -1,52 16,78 17,26 38,42 65,46 26,5 53,-2 82,-21 z m 456,-130 -565,364 -77,-119 59,-39 c -35,-1 -66,-7 -91,-20 -26,-13 -47,-32 -63,-57 -33,-52 -42,-105 -26,-158 16,-54 54,-100 115,-139 58,-38 116,-53 172,-46 55,7 99,35 131,84 20,31 30,60 32,87 1,27 -6,57 -23,89 8,-7 17,-15 28,-23 11,-8 22,-16 35,-24 l 193,-124 80,125 z m -50,526 c 16,-20 23,-40 23,-62 0,-22 -8,-42 -24,-59 -18,-18 -37,-28 -57,-29 -20,-1 -42,6 -65,21 l 123,129 z m 42,170 -231,-241 c -24,24 -37,48 -38,73 -1,25 9,49 30,72 17,17 33,28 51,33 17,6 35,6 54,0 l 46,116 c -34,13 -69,14 -107,1 -37,-13 -74,-38 -110,-75 -52,-55 -80,-114 -81,-177 -1,-63 23,-118 73,-166 49,-47 106,-70 171,-68 65,2 121,29 170,80 50,52 73,109 69,171 -4,62 -34,121 -92,176 l -5,5 z m 278,465 -350,-275 378,-117 -155,-122 69,-88 344,269 -380,107 167,132 -73,94 z m 243,144 50,-478 142,83 -32,205 c -1,2 -1,5 -2,8 -4,27 -9,47 -15,62 9,-11 23,-25 43,-41 5,-3 8,-6 10,-8 l 162,-129 139,80 -392,279 -105,-61 z m 742,96 c 10,-31 11,-58 2,-81 -10,-24 -28,-40 -54,-49 -27,-10 -51,-8 -73,4 -21,13 -38,34 -48,65 -11,31 -12,58 -3,81 9,23 27,39 54,49 27,9 51,8 73,-5 22,-12 38,-34 49,-64 z m 145,50 c -11,30 -26,56 -47,79 -21,23 -47,41 -76,55 -30,13 -61,20 -92,22 -32,1 -63,-4 -94,-15 -32,-11 -60,-27 -84,-47 -24,-21 -43,-46 -57,-75 -15,-28 -23,-58 -25,-88 -2,-31 2,-62 12,-92 11,-30 27,-57 47,-80 21,-23 46,-41 76,-54 28,-14 59,-21 90,-22 32,-1 63,4 95,15 32,11 60,27 84,47 24,20 43,45 58,74 15,29 23,59 25,90 2,31 -2,61 -12,91 z m 587,-113 -39,221 c -8,49 -18,84 -30,106 -12,22 -29,41 -51,56 -22,16 -48,26 -79,30 -30,5 -64,4 -103,-3 -38,-7 -70,-17 -97,-31 -27,-15 -48,-33 -65,-56 -16,-21 -25,-44 -29,-69 -3,-25 -1,-62 8,-111 l 38,-220 145,25 -40,230 c -6,36 -4,64 5,82 9,18 27,29 54,34 27,5 48,0 62,-13 15,-14 25,-39 32,-76 l 40,-230 149,25 z m 51,405 35,-118 c 22,20 47,36 74,47 26,11 54,17 81,18 19,0 34,-3 44,-9 11,-6 16,-15 16,-27 1,-19 -19,-34 -60,-44 -13,-4 -24,-7 -32,-9 -46,-14 -79,-31 -100,-53 -20,-21 -30,-48 -30,-81 1,-42 18,-76 50,-101 33,-25 77,-36 131,-35 28,0 57,4 86,11 29,7 58,18 88,32 l -34,106 c -20,-14 -41,-25 -62,-33 -21,-7 -42,-11 -63,-12 -18,0 -31,2 -40,8 -9,5 -14,13 -14,23 -1,16 19,29 60,41 9,3 16,5 21,6 53,16 90,35 110,56 21,21 31,50 30,85 -1,45 -19,81 -54,107 -35,27 -81,40 -138,39 -38,-1 -74,-6 -107,-15 -32,-10 -63,-24 -92,-42 z m 1098,-506 106,174 2,3 c 16,25 27,45 33,60 -1,-10 -1,-20 0,-30 0,-11 1,-24 3,-41 l 20,-204 156,-36 -80,469 -107,24 -108,-178 c -6,-11 -11,-21 -17,-31 -5,-11 -10,-21 -15,-32 1,18 1,40 -1,68 l -1,3 -18,207 -107,25 -277,-386 156,-36 107,174 c 8,13 15,24 20,34 5,10 9,19 13,29 0,-15 1,-36 3,-63 1,-4 1,-6 1,-8 l 20,-204 91,-21 z m 260,-228 c -10,-21 -10,-43 -2,-65 9,-22 23,-37 45,-47 22,-10 44,-11 65,-3 22,8 38,23 48,45 9,22 10,44 2,66 -8,22 -23,38 -45,48 -21,9 -43,9 -65,1 -22,-9 -38,-24 -48,-45 z m 244,521 -180,-400 141,-63 180,399 -141,64 z m 320,-149 -163,-286 -57,32 -54,-95 57,-32 -65,-114 132,-75 65,114 57,-33 54,95 -57,33 163,285 -132,76 z m 304,-167 -413,-531 120,-93 145,186 c 9,13 18,24 25,35 8,11 14,22 19,31 -4,-38 -1,-71 10,-99 12,-28 32,-53 60,-76 23,-17 45,-29 68,-35 24,-7 46,-8 67,-2 18,4 36,13 53,27 17,14 38,37 64,70 l 154,198 -122,95 -144,-185 c -22,-28 -42,-44 -61,-50 -19,-6 -38,-1 -58,15 -25,19 -36,43 -34,71 3,28 21,63 54,105 l 113,145 -120,93 z m 765,-1037 c -27,-21 -54,-31 -80,-29 -27,2 -50,15 -69,40 -20,24 -27,50 -23,76 4,26 20,50 46,71 27,22 54,31 80,30 27,-2 50,-15 69,-40 20,-24 27,-50 23,-76 -4,-27 -20,-50 -46,-72 z m -271,-389 527,418 -88,111 -56,-44 c 11,34 14,65 11,93 -4,29 -16,54 -34,78 -39,48 -86,73 -142,76 -56,2 -112,-20 -168,-64 -55,-44 -88,-93 -99,-148 -11,-56 2,-106 38,-152 23,-29 47,-48 72,-58 25,-10 55,-12 91,-7 -9,-5 -19,-12 -30,-19 -11,-8 -23,-16 -35,-26 l -179,-142 92,-116 z m 566,-105 c -29,-15 -56,-20 -80,-14 -24,6 -43,22 -56,47 -13,25 -14,49 -5,72 9,23 28,42 57,57 29,16 56,20 80,14 24,-5 42,-21 55,-47 13,-25 15,-49 6,-72 -9,-23 -28,-42 -57,-57 z m 71,-137 c 28,15 52,34 71,58 20,24 34,51 43,83 10,31 13,63 9,94 -3,31 -12,62 -27,91 -16,30 -35,55 -59,76 -24,21 -51,36 -82,46 -30,11 -60,15 -91,13 -31,-3 -61,-11 -89,-26 -29,-14 -53,-34 -72,-57 -20,-24 -35,-51 -44,-83 -9,-30 -12,-61 -9,-93 4,-31 13,-61 29,-92 15,-30 35,-55 58,-76 24,-21 51,-36 81,-46 32,-11 63,-15 93,-13 31,2 61,11 89,25 z m 140,-400 c -30,-10 -57,-11 -81,-1 -23,9 -39,28 -48,54 -9,27 -7,51 5,73 13,21 34,37 65,48 31,10 58,11 81,2 23,-10 39,-28 48,-55 10,-27 8,-51 -4,-72 -13,-22 -35,-38 -66,-49 z m 50,-145 c 30,10 56,26 79,47 23,20 42,45 55,75 14,30 22,60 23,92 1,31 -3,63 -14,94 -11,32 -26,60 -47,84 -20,24 -45,43 -74,58 -28,15 -58,23 -88,26 -31,2 -62,-2 -92,-13 -30,-10 -57,-25 -80,-46 -23,-20 -41,-45 -55,-75 -14,-29 -21,-59 -23,-90 -1,-32 4,-63 15,-96 11,-32 27,-60 47,-84 20,-24 44,-43 73,-58 29,-15 59,-24 90,-26 31,-2 61,2 91,12 z m 299,-650 -239,-18 c -38,-3 -64,0 -79,8 -16,9 -24,24 -26,48 -2,28 7,49 26,62 19,13 60,22 122,26 l 185,14 -11,149 -239,-18 c -38,-3 -65,0 -80,8 -15,8 -23,24 -25,47 -2,29 7,50 25,63 19,13 60,22 123,26 l 185,14 -11,150 -437,-33 11,-152 76,6 c -29,-20 -51,-43 -63,-68 -13,-25 -18,-53 -16,-86 3,-35 12,-64 27,-85 16,-22 38,-36 66,-44 -27,-19 -46,-42 -57,-67 -12,-26 -17,-55 -14,-88 2,-27 8,-49 18,-68 11,-19 25,-35 44,-47 14,-9 31,-16 50,-19 19,-3 49,-3 90,0 l 10,1 250,19 -11,152 z"
       id="path37"
       inkscape:connector-curvature="0"
       style="fill:#ffffff;fill-rule:nonzero" /><g
       id="_857016976"><path
         class="fil5 str1"
         d="m -3159,9987 950,-81 178,148 -1052,89 -6,-12 c -21,-39 -41,-79 -59,-119 l -11,-25 z m 1034,-88 505,-43 178,148 -505,42 -178,-147 z m 1450,441 15,-35 c -77,-36 -151,-80 -220,-129 -82,-58 -158,-123 -228,-194 l -7,-6 -244,20 -178,-147 559,-48 c 38,-3 105,-6 123,36 27,60 -82,167 -38,203 73,60 258,160 353,159 l 19,0 30,532 -27,-10 c -162,-57 -321,-132 -468,-220 -174,-104 -375,-254 -486,-426 l -18,-28 360,-31 7,7 c 68,67 142,129 220,185 72,51 148,95 228,132 z m 97,850 c -12,-2 -24,-4 -36,-7 l -28,-6 15,-24 c 27,-43 46,-91 58,-141 18,-68 23,-140 22,-211 l 0,-28 26,9 c 7,3 14,5 21,8 l 13,4 27,478 -126,-35 8,-47 z m -85,-461 c 21,8 42,17 63,25 l 12,4 1,13 c 3,77 -1,157 -20,232 -13,55 -36,108 -70,154 l -8,10 -13,-3 c -30,-7 -60,-16 -90,-25 l -24,-7 12,-22 c 36,-59 64,-123 83,-190 16,-56 26,-115 27,-174 l 1,-28 26,11 z m -134,-60 c 18,9 37,17 56,26 l 11,5 1,12 c 2,67 -8,134 -26,198 -20,69 -50,135 -88,196 l -8,13 -15,-5 c -33,-11 -67,-24 -100,-37 l -24,-10 17,-21 c 38,-47 68,-102 92,-158 27,-65 46,-135 56,-204 l 3,-27 25,12 z m -245,375 c -30,-14 -60,-29 -89,-44 l -23,-12 18,-19 c 48,-51 90,-108 122,-170 29,-57 51,-118 62,-181 l 5,-26 24,13 c 17,9 34,18 52,27 l 12,6 -2,14 c -8,75 -27,151 -56,220 -25,60 -58,118 -102,167 l -9,11 -14,-6 z m -12,-516 c 13,8 25,16 38,23 7,5 14,9 21,13 l 11,6 -2,13 c -9,69 -31,136 -63,198 -34,65 -78,124 -130,176 l -11,10 -13,-7 c -31,-18 -61,-38 -91,-57 l -20,-14 17,-17 c 50,-50 96,-105 134,-165 34,-53 61,-109 80,-168 l 8,-24 21,13 z m -94,-46 c -17,65 -45,126 -81,183 -39,60 -85,115 -137,165 l -12,12 -14,-10 c -11,-9 -23,-18 -34,-28 -27,-22 -53,-45 -78,-68 l -20,-19 23,-13 c 52,-30 102,-74 144,-117 45,-45 91,-101 121,-157 l 11,-20 18,14 c 17,12 34,25 51,37 l 11,8 -3,13 z m -314,411 c -133,21 -270,27 -405,18 -139,-10 -278,-37 -410,-82 l -89,-30 774,-66 7,6 c 39,39 79,76 122,111 3,3 7,6 11,9 l 34,28 -44,6 z m 199,-494 c -24,55 -80,118 -121,160 -41,42 -104,100 -157,123 l -12,6 -10,-10 c -30,-31 -59,-63 -86,-96 l -17,-21 25,-10 c 57,-22 115,-56 165,-92 47,-33 97,-74 132,-120 l 12,-17 16,14 c 16,14 31,27 47,40 l 12,9 -6,14 z m -364,297 -808,69 -5,-2 c -51,-25 -101,-53 -149,-83 l -49,-32 906,-76 6,8 c 23,30 48,59 73,87 l 26,29 z m -125,-302 c 59,-15 118,-38 173,-66 47,-24 97,-53 137,-89 l 14,-12 13,13 c 14,15 28,29 42,43 l 12,12 -9,14 c -32,45 -84,87 -129,118 -51,37 -119,78 -180,96 l -13,4 -8,-11 c -23,-30 -44,-61 -64,-92 l -15,-24 27,-6 z m -8,140 -925,79 -6,-5 c -35,-27 -69,-56 -102,-87 l -32,-30 982,-83 6,10 c 18,30 37,60 57,89 l 20,27 z m -80,-300 c 52,-6 104,-13 154,-26 57,-14 114,-35 162,-70 l 16,-11 12,16 c 10,13 20,27 30,40 l 12,14 -14,13 c -37,33 -84,61 -129,83 -58,30 -125,56 -190,68 l -14,3 -7,-12 c -16,-30 -32,-60 -47,-90 l -13,-25 28,-3 z m -25,136 -994,85 -7,-8 c -26,-28 -52,-58 -76,-89 l -22,-28 1034,-88 6,12 c 14,31 29,60 45,90 l 14,26 z m -1132,-87 c -17,-25 -33,-50 -49,-75 l -16,-27 1071,-91 5,14 c 9,25 19,50 29,75 l 10,25 -1044,88 -6,-9 z m 1066,-199 378,-32 6,12 c 3,5 6,10 9,15 l 8,15 -14,10 c -44,33 -98,53 -151,66 -57,14 -117,22 -176,27 l -14,2 -6,-14 c -10,-25 -21,-50 -31,-76 l -9,-25 z"
         id="path40"
         inkscape:connector-curvature="0"
         style="fill:#000000;stroke:#000000;stroke-width:3" /></g><path
       class="fil1 str2"
       d="m -3130,10004 915,-78 134,112 -991,84 c -20,-38 -40,-77 -58,-118 z m 1054,-90 449,-38 135,112 -449,38 -135,-112 z m 589,-50 511,-43 c 239,-20 -13,166 70,234 65,53 257,165 367,163 l 27,484 c -162,-57 -321,-132 -464,-218 -212,-127 -387,-276 -480,-420 l 319,-27 c 69,67 143,130 223,187 78,55 161,104 249,143 l 31,-72 c -83,-37 -161,-83 -235,-135 -80,-56 -155,-121 -225,-192 l -13,-13 -18,2 -227,19 -135,-112 z m 981,944 25,438 -83,-23 9,-49 c -19,-3 -37,-6 -55,-10 28,-45 48,-95 60,-147 19,-73 24,-148 23,-216 7,2 14,5 21,7 z m -101,-36 c 3,69 0,150 -19,226 -13,53 -34,104 -67,147 -30,-7 -60,-16 -90,-25 36,-60 65,-126 85,-194 16,-59 26,-119 28,-179 21,8 42,17 63,25 z m -142,-59 c 2,64 -7,129 -25,191 -19,68 -49,133 -85,192 -34,-12 -66,-24 -99,-37 39,-49 71,-106 95,-164 29,-69 47,-141 57,-209 19,9 38,18 57,27 z m -131,-64 c -8,68 -26,144 -55,216 -25,59 -57,115 -98,161 -30,-14 -60,-28 -89,-44 50,-52 93,-111 125,-174 31,-59 53,-122 65,-186 17,9 34,18 52,27 z m -125,-68 c -9,66 -30,131 -61,191 -33,62 -76,120 -127,171 -31,-18 -61,-37 -90,-57 54,-54 100,-110 137,-168 35,-55 62,-113 82,-173 12,8 25,16 37,23 8,4 15,9 22,13 z m -162,-104 c -17,62 -43,121 -79,177 -36,57 -80,111 -134,162 -11,-9 -22,-18 -33,-27 -27,-22 -53,-44 -78,-68 47,-27 101,-72 148,-120 51,-52 97,-111 124,-161 17,12 34,25 52,37 z m -298,397 c -259,40 -541,27 -806,-64 l 672,-57 c 40,40 81,77 123,112 4,3 8,6 11,9 z m 184,-483 c -19,42 -65,101 -118,155 -52,53 -110,100 -150,118 -29,-30 -57,-62 -85,-95 52,-20 114,-54 170,-94 53,-37 102,-81 135,-124 16,13 32,27 48,40 z m -387,289 -763,65 c -50,-24 -99,-51 -147,-82 l 837,-71 c 23,30 48,60 73,88 z m 282,-382 c -27,36 -73,77 -124,113 -61,44 -127,79 -174,93 -22,-29 -43,-59 -64,-91 57,-14 120,-38 178,-67 54,-27 104,-59 141,-92 13,15 28,29 43,44 z m -410,220 -883,75 c -34,-27 -68,-55 -100,-86 l 925,-79 c 19,31 38,61 58,90 z m 315,-323 c -31,28 -75,56 -124,81 -62,31 -130,55 -185,66 -17,-29 -33,-58 -47,-89 50,-5 104,-13 156,-26 61,-15 120,-38 169,-73 10,14 20,28 31,41 z m -416,158 -955,81 c -25,-28 -50,-57 -74,-88 l 984,-83 c 14,31 29,61 45,90 z m -1084,-81 c -16,-24 -32,-49 -48,-75 l 1024,-86 c 10,25 19,51 30,76 l -1006,85 z m 1078,-170 339,-29 c 3,5 6,10 9,16 -41,29 -91,49 -145,62 -57,14 -117,22 -172,27 -11,-25 -21,-50 -31,-76 z"
       id="path42"
       inkscape:connector-curvature="0"
       style="fill:#ffd600;stroke:#ffff00;stroke-width:3" /><g
       id="_857006224"><path
         class="fil5 str1"
         d="m 3156,10012 c -18,40 -38,80 -59,119 l -6,12 -1052,-89 178,-148 950,81 -11,25 z m -1023,-113 -178,147 -505,-42 178,-148 505,43 z m -1010,77 -7,6 c -70,71 -146,136 -228,194 -69,49 -143,93 -220,129 l 15,35 c 80,-37 156,-81 228,-132 78,-56 152,-118 220,-185 l 6,-7 361,31 -18,28 c -111,172 -312,322 -486,426 -147,88 -306,163 -468,220 l -28,10 31,-532 19,0 c 95,1 280,-99 353,-159 4,-3 7,-7 9,-13 7,-20 -11,-58 -20,-77 -15,-31 -42,-79 -27,-113 18,-42 85,-39 123,-36 l 558,48 -177,147 -244,-20 z m -537,1214 8,47 -126,35 27,-478 13,-4 c 7,-3 14,-5 21,-8 l 26,-9 0,28 c -1,71 4,143 22,211 12,50 31,98 58,141 l 15,24 -28,6 c -12,3 -24,5 -36,7 z m 112,-444 c 1,59 11,118 27,174 19,67 47,131 83,190 l 12,22 -24,7 c -30,9 -60,18 -90,25 l -13,3 -8,-10 c -34,-46 -57,-99 -70,-154 -19,-75 -24,-155 -20,-232 l 1,-13 12,-4 c 21,-8 42,-17 63,-25 l 26,-11 1,28 z m 135,-62 c 10,69 29,139 56,204 24,56 54,111 92,158 l 17,21 -24,10 c -33,13 -67,26 -100,37 l -15,5 -8,-13 c -38,-61 -68,-127 -88,-196 -18,-64 -28,-131 -26,-198 l 1,-12 11,-5 c 19,-9 38,-17 56,-26 l 25,-12 3,27 z m 194,355 c -44,-49 -77,-107 -102,-167 -29,-69 -48,-145 -56,-220 l -2,-14 12,-6 c 18,-9 35,-18 52,-27 l 24,-13 5,26 c 11,63 33,124 62,181 32,62 74,119 122,170 l 18,19 -23,12 c -29,15 -59,30 -90,44 l -13,6 -9,-11 z m 64,-500 c 19,59 46,115 80,168 38,60 84,115 134,165 l 17,17 -20,14 c -30,19 -60,39 -91,57 l -13,7 -11,-10 c -52,-52 -96,-111 -130,-176 -32,-62 -54,-129 -63,-198 l -2,-13 11,-6 c 7,-4 14,-8 21,-13 13,-7 25,-15 38,-23 l 21,-13 8,24 z m 73,-78 c 17,-12 34,-25 51,-37 l 18,-14 11,20 c 30,56 76,112 121,157 42,43 92,87 144,117 l 23,13 -20,19 c -25,23 -51,46 -78,68 -11,10 -23,19 -34,28 l -14,10 -12,-12 c -52,-50 -98,-105 -137,-165 -36,-57 -64,-118 -81,-183 l -3,-13 11,-8 z m 296,398 c 4,-3 8,-6 11,-9 43,-35 83,-72 122,-111 l 7,-6 774,66 -89,30 c -132,45 -271,72 -410,82 -135,9 -272,3 -405,-18 l -44,-6 34,-28 z m -183,-483 c 16,-13 31,-26 47,-40 l 16,-14 12,17 c 35,46 85,87 132,120 50,36 108,70 165,92 l 25,10 -17,21 c -27,33 -56,65 -86,96 l -10,10 -12,-6 c -53,-23 -116,-81 -157,-123 -41,-42 -97,-105 -121,-160 l -6,-14 12,-9 z m 384,291 c 25,-28 50,-57 73,-87 l 6,-8 906,76 -49,32 c -48,30 -98,58 -149,83 l -5,2 -808,-69 26,-29 z m 111,-243 c -20,31 -41,62 -64,92 l -8,11 -13,-4 c -61,-18 -129,-59 -181,-96 -44,-31 -96,-73 -128,-118 l -9,-14 12,-12 c 14,-14 28,-28 42,-43 l 13,-13 14,12 c 40,36 90,65 137,89 55,28 114,51 173,66 l 27,6 -15,24 z m 16,83 c 20,-29 39,-59 57,-89 l 6,-10 982,83 -32,30 c -33,31 -67,60 -102,87 l -6,5 -925,-79 20,-27 z m 75,-245 c -15,30 -31,60 -48,90 l -6,12 -14,-3 c -65,-12 -132,-38 -190,-68 -45,-22 -92,-50 -129,-83 l -14,-13 11,-14 c 11,-13 21,-27 31,-40 l 12,-16 16,11 c 48,35 105,56 161,70 51,13 103,20 155,26 l 28,3 -13,25 z m 24,82 c 16,-30 31,-59 45,-90 l 6,-12 1034,88 -22,28 c -24,31 -50,61 -76,89 l -7,8 -994,-85 14,-26 z m 1111,-52 -1043,-88 10,-25 c 10,-25 20,-50 29,-75 l 5,-14 1071,91 -16,27 c -16,25 -32,50 -49,75 l -7,9 z m -1068,-183 c -10,26 -21,51 -31,76 l -6,14 -14,-2 c -59,-5 -119,-13 -176,-27 -53,-13 -107,-33 -151,-66 l -14,-10 8,-15 c 3,-5 6,-10 9,-15 l 6,-12 378,32 -9,25 z"
         id="path45"
         inkscape:connector-curvature="0"
         style="fill:#000000;stroke:#000000;stroke-width:3" /></g><path
       class="fil1 str2"
       d="m 3138,10004 -915,-78 -134,112 991,84 c 20,-38 40,-77 58,-118 z m -1054,-90 -449,-38 -135,112 449,38 135,-112 z m -589,-50 -511,-43 c -239,-20 13,166 -71,234 -64,53 -256,165 -366,163 l -27,484 c 162,-57 321,-132 464,-218 212,-127 387,-276 480,-420 l -319,-27 c -69,67 -143,130 -223,187 -78,55 -161,104 -249,143 l -31,-72 c 83,-37 161,-83 235,-135 80,-56 155,-121 225,-192 l 13,-13 18,2 227,19 135,-112 z m -981,944 -25,438 83,-23 -9,-49 c 19,-3 37,-6 55,-10 -28,-45 -48,-95 -61,-147 -18,-73 -23,-148 -22,-216 -7,2 -14,5 -21,7 z m 101,-36 c -4,69 0,150 19,226 13,53 34,104 67,147 30,-7 60,-16 90,-25 -36,-60 -65,-126 -85,-194 -16,-59 -26,-119 -28,-179 -21,8 -42,17 -63,25 z m 142,-59 c -2,64 7,129 25,191 19,68 49,133 85,192 33,-12 66,-24 99,-37 -39,-49 -71,-106 -95,-164 -29,-69 -47,-141 -57,-209 -19,9 -38,18 -57,27 z m 131,-64 c 8,68 26,144 55,216 25,59 57,115 98,161 30,-14 60,-28 89,-44 -50,-52 -93,-111 -125,-174 -31,-59 -53,-122 -65,-186 -17,9 -34,18 -52,27 z m 125,-68 c 9,66 30,131 61,191 33,62 76,120 127,171 31,-18 61,-37 90,-57 -54,-54 -100,-110 -137,-168 -35,-55 -62,-113 -82,-173 -12,8 -25,16 -37,23 -8,4 -15,9 -22,13 z m 162,-104 c 17,62 43,121 79,177 36,57 80,111 134,162 11,-9 22,-18 33,-27 27,-22 53,-44 78,-68 -47,-27 -101,-72 -148,-120 -51,-52 -97,-111 -124,-161 -17,12 -34,25 -52,37 z m 298,397 c 258,40 541,27 806,-64 l -672,-57 c -40,40 -81,77 -123,112 -4,3 -8,6 -11,9 z m -184,-483 c 19,42 65,101 118,155 52,53 110,100 150,118 29,-30 57,-62 85,-95 -52,-20 -114,-54 -170,-94 -53,-37 -102,-81 -135,-124 -16,13 -32,27 -48,40 z m 387,289 763,65 c 50,-24 99,-51 147,-82 l -837,-71 c -23,30 -48,60 -73,88 z m -282,-382 c 27,36 73,77 124,113 61,44 127,79 174,93 22,-29 43,-59 64,-91 -57,-14 -120,-38 -178,-67 -54,-27 -104,-59 -141,-92 -13,15 -28,29 -43,44 z m 410,220 883,75 c 34,-27 68,-55 100,-86 l -925,-79 c -19,31 -38,61 -58,90 z m -315,-323 c 31,28 75,56 124,81 62,31 130,55 185,66 17,-29 33,-58 47,-89 -50,-5 -104,-13 -156,-26 -61,-15 -120,-38 -169,-73 -10,14 -20,28 -31,41 z m 416,158 955,81 c 25,-28 50,-57 74,-88 l -984,-83 c -14,31 -30,61 -45,90 z m 1084,-81 c 16,-24 32,-49 48,-75 l -1024,-86 c -10,25 -19,51 -30,76 l 1006,85 z m -1078,-170 -339,-29 c -3,5 -6,10 -9,16 41,29 91,49 145,62 57,14 117,22 172,27 11,-25 21,-50 31,-76 z"
       id="path47"
       inkscape:connector-curvature="0"
       style="fill:#ffd600;stroke:#ffff00;stroke-width:3" /><g
       id="_857020688"><path
         class="fil0 str3"
         d="m -58,9276 c 468,-1 1099,279 833,1218 l 45,114 -92,150 -137,157 5,194 42,213 -358,362 -276,-86 -285,91 -363,-365 55,-251 -22,-192 -113,-108 -97,-146 38,-128 C -999,9741 -526,9278 -58,9276 Z"
         id="path50"
         inkscape:connector-curvature="0"
         style="fill:#000000;stroke:#000000;stroke-width:3" /><path
         class="fil3"
         d="m -30,9318 c 19,0 35,0 54,0 252,12 505,125 645,329 l 0,0 1,2 c 20,29 38,59 53,92 l 0,1 1,2 c 42,74 66,155 77,239 5,37 7,73 7,110 l 0,1 0,2 c 0,127 -27,255 -55,378 -22,-34 -45,-68 -65,-102 -25,-41 -46,-81 -53,-122 l 0,-1 -1,-2 0,0 c -14,-34 -24,-68 -27,-102 l 0,-1 0,0 c -5,-27 -7,-53 -7,-79 l 0,-2 0,-1 c 0,-11 0,-21 1,-31 l 0,0 0,0 c 6,-72 33,-141 95,-209 l 3,-4 -16,-16 -5,6 c -65,71 -96,147 -102,224 l 0,0 c -1,11 -1,21 -1,31 0,27 3,54 8,81 3,37 14,73 28,108 9,46 31,89 56,130 26,42 55,83 78,124 14,24 26,48 34,72 l 0,0 0,1 0,0 0,1 1,1 c 2,3 3,7 3,13 l 0,0 -1,2 1,2 0,0 c 0,9 -3,21 -8,34 -6,13 -13,27 -21,40 l 0,0 0,0 c -16,27 -36,52 -47,65 -30,34 -56,66 -89,95 -5,-2 -11,-3 -16,-6 l 0,0 c -26,-11 -53,-29 -83,-40 l 0,0 c -9,-4 -18,-7 -27,-9 l 0,0 c -9,-2 -18,-3 -27,-3 -21,0 -42,6 -64,20 l -1,1 0,0 c -23,16 -39,35 -48,57 -10,20 -14,43 -14,65 1,51 18,103 33,146 l 0,2 0,1 c 0,2 -1,4 -2,6 l 0,1 c -1,-1 -2,-3 -4,-3 l 0,-1 -3,-2 -5,-2 -6,6 0,0 c -6,5 -10,12 -12,18 -2,-2 -3,-4 -4,-6 l 0,0 -3,-3 -1,-1 -1,0 c -1,-1 -4,-3 -9,-3 l 0,0 0,0 -7,0 -9,1 3,9 0,1 0,3 c -1,2 -2,5 -4,7 l 0,0 0,0 c -1,2 -2,4 -3,5 -3,-5 -6,-10 -10,-15 l 0,0 0,0 -3,-3 -4,-4 -8,5 0,0 c -8,4 -13,11 -16,17 l 0,0 0,0 c -2,2 -3,4 -4,5 -2,-4 -4,-9 -8,-14 l 0,0 c -1,-2 -3,-5 -6,-8 l 0,0 0,0 c -2,-2 -7,-6 -14,-6 -5,0 -10,3 -13,6 l -1,0 c -3,3 -5,7 -8,11 -4,-9 -11,-17 -20,-22 l 0,0 -3,-2 -5,-2 -6,5 0,0 c -9,7 -15,16 -20,26 -4,-8 -10,-16 -18,-22 l 0,0 0,0 0,-1 -1,0 c -4,-2 -8,-5 -13,-5 l 0,0 0,0 c -4,0 -7,1 -9,3 l 0,0 -1,0 c -3,2 -6,5 -7,7 -2,2 -3,5 -5,6 -4,6 -7,11 -9,17 -2,-4 -4,-8 -7,-11 -3,-5 -7,-11 -13,-17 l 0,0 0,0 c -5,-5 -12,-11 -21,-14 l 0,0 -2,-1 -2,0 -4,2 c -19,10 -33,29 -40,48 -2,4 -3,9 -4,13 -2,-4 -3,-9 -5,-13 -8,-19 -21,-38 -39,-48 l -2,-1 -3,-1 -4,1 0,0 0,0 c -9,3 -16,9 -21,14 l 0,0 0,0 c -6,6 -10,12 -13,17 -3,3 -5,7 -7,11 l -2,-4 2,0 0,-1 -9,-12 c -2,-2 -4,-5 -7,-8 l 0,0 0,0 c -1,-1 -3,-3 -5,-5 l 0,0 0,0 -1,0 0,0 c -3,-2 -6,-3 -9,-3 -4,0 -8,2 -11,4 l 0,0 -2,1 c -9,7 -15,15 -19,23 -5,-10 -11,-19 -20,-26 l -3,-2 -4,-3 -6,4 0,0 c -10,5 -17,13 -21,22 -3,-4 -5,-8 -8,-11 -4,-3 -9,-6 -15,-6 -6,0 -11,4 -13,6 l 0,0 0,0 c -2,2 -3,3 -4,5 l 0,0 -3,3 0,0 -1,1 0,1 c -2,4 -4,8 -6,13 -1,-2 -2,-4 -3,-6 l -1,0 0,0 c -3,-6 -8,-13 -16,-17 l 0,0 0,0 -4,-2 -5,-3 -6,7 c -4,5 -7,10 -10,15 l -1,-2 0,0 0,0 c -2,-3 -4,-6 -5,-9 l -1,-1 1,-3 0,0 -1,-1 1,-3 2,-6 -15,-1 -1,0 0,0 c -5,0 -7,2 -9,3 l 0,0 0,0 c -4,2 -6,5 -8,8 l 0,0 0,0 -1,1 c -2,-6 -6,-12 -12,-17 l -2,-3 -4,-3 -8,5 0,0 c -1,0 -3,2 -4,3 l 0,0 c -1,-3 -2,-5 -2,-7 l 1,-1 -1,-3 c 15,-42 32,-94 33,-145 0,-22 -4,-45 -14,-65 l 0,-1 0,0 0,0 c -9,-21 -25,-41 -48,-57 l -2,-1 -1,0 c -21,-13 -42,-19 -62,-19 -9,0 -18,1 -27,3 l 0,0 0,0 c -33,8 -63,26 -91,40 -10,5 -19,9 -28,13 l 0,0 0,0 c -2,1 -5,1 -7,2 -33,-29 -58,-61 -89,-95 l 0,0 c -11,-13 -31,-38 -47,-65 -8,-13 -15,-27 -20,-40 -6,-13 -9,-25 -9,-34 l 1,-2 -1,-2 c 0,-6 2,-10 3,-13 l 1,-1 0,-1 0,0 0,-1 1,0 c 5,-16 11,-31 19,-47 5,-8 9,-17 14,-25 24,-41 53,-82 78,-124 25,-41 47,-84 56,-130 15,-35 25,-71 29,-107 5,-28 7,-55 7,-82 0,-10 0,-20 -1,-31 l 0,0 c -6,-77 -37,-153 -102,-224 l -5,-6 -16,16 3,4 c 62,68 89,137 95,209 l 0,0 0,0 c 1,10 2,20 2,31 l 0,1 0,2 c 0,26 -3,52 -8,79 l 0,0 0,1 c -3,34 -13,68 -27,102 l 0,0 -1,2 0,1 c -7,41 -28,81 -53,122 -20,34 -43,68 -64,102 l 0,0 c -12,-49 -23,-99 -32,-148 -14,-76 -24,-153 -24,-231 0,-39 6,-75 11,-112 11,-84 35,-165 77,-240 15,-35 33,-65 54,-95 141,-205 393,-318 645,-330 z m -812,1008 c 11,58 24,116 37,172 -11,21 -21,43 -29,65 -5,11 -7,23 -7,34 l 0,0 0,0 c 0,19 5,36 12,53 6,17 15,33 24,49 18,31 39,58 53,73 l 0,0 0,0 c 31,35 59,73 99,107 l 0,0 2,2 12,10 4,-1 c 7,58 12,117 12,174 0,84 -11,166 -44,244 l 0,0 -2,3 -7,17 13,16 0,0 c 102,144 236,254 366,370 l 5,4 6,12 4,-3 5,5 17,-17 c 85,-47 183,-77 278,-77 85,0 167,24 236,78 l 4,2 21,18 22,-27 c 63,-55 128,-111 189,-170 63,-60 122,-123 173,-195 l 2,-2 10,-14 -8,-20 0,0 c -33,-78 -44,-160 -44,-244 0,-57 5,-116 12,-174 l 4,1 14,-12 0,0 c 40,-34 68,-72 99,-107 14,-15 35,-42 53,-73 9,-16 18,-32 24,-49 7,-17 12,-35 12,-53 l 0,0 c 0,-11 -2,-23 -7,-34 -8,-22 -18,-44 -29,-65 30,-131 61,-272 61,-415 0,-39 -2,-79 -8,-118 -11,-91 -37,-180 -82,-262 -16,-37 -36,-71 -57,-102 l -9,-13 -1,0 C 634,9482 532,9399 418,9342 298,9282 164,9247 30,9241 c -19,-1 -39,-1 -57,0 -135,6 -275,43 -394,103 -115,58 -214,139 -294,252 -27,38 -46,72 -62,108 -45,82 -70,170 -81,261 -6,39 -8,79 -8,118 0,82 10,164 24,243 z m 1396,-97 c -43,-41 -102,-66 -168,-66 -65,0 -125,25 -168,66 -42,40 -69,96 -69,157 l 0,2 c 0,63 26,119 69,160 43,41 103,66 168,66 66,0 125,-25 168,-66 43,-41 70,-97 70,-160 l 0,-2 c -1,-61 -27,-117 -70,-157 z m -422,490 c -9,-30 -27,-56 -40,-83 -11,-23 -27,-78 -31,-106 l -1,-9 -7,5 c -18,15 -30,33 -37,53 -7,20 -9,41 -10,62 l 0,2 c 0,54 14,113 15,164 l 0,2 c 0,5 0,10 -1,14 l 0,1 0,3 2,2 c 5,3 14,9 24,14 5,2 10,4 15,6 5,1 9,3 13,3 l 2,-1 2,0 2,-2 c 3,-5 13,-14 23,-22 5,-4 11,-7 16,-9 5,-3 10,-4 13,-4 l 3,0 6,1 0,-4 -1,-2 c -1,-28 1,-58 -8,-90 z m -201,-189 -7,-6 -1,9 c -3,28 -19,83 -31,106 -13,27 -30,54 -40,84 -9,31 -7,61 -8,89 l 0,3 -1,3 7,-1 2,0 c 3,0 8,1 13,4 8,3 16,9 24,15 7,6 13,13 16,17 l 1,1 2,1 2,0 c 4,0 8,-1 13,-3 7,-2 15,-6 22,-10 7,-4 14,-7 17,-10 l 2,-2 0,-3 0,0 c 0,-5 -1,-10 -1,-15 l 1,-2 c 0,-51 14,-110 14,-164 l 0,-2 c 0,-21 -3,-42 -10,-62 -7,-19 -19,-38 -37,-52 z m -158,-301 c -43,-41 -103,-66 -168,-66 -66,0 -125,25 -168,66 -43,40 -69,96 -70,157 l 0,2 c 0,63 27,119 70,160 43,41 102,66 168,66 65,0 125,-25 168,-66 43,-41 69,-97 69,-160 l 0,-2 c 0,-61 -27,-117 -69,-157 z m 839,1080 0,0 c -48,64 -103,122 -161,178 -60,56 -123,110 -185,163 -75,-55 -164,-79 -253,-79 -101,0 -202,31 -291,78 -94,-83 -188,-162 -268,-250 -14,-15 -27,-30 -40,-46 -7,-8 -13,-16 -19,-23 -5,-7 -11,-14 -16,-21 l 1,-3 -1,-1 c 4,-9 8,-18 11,-27 6,-16 10,-32 14,-47 15,-58 20,-116 21,-174 0,-70 -8,-140 -16,-208 l 0,0 0,-4 c 3,-1 6,-3 9,-5 l 1,0 0,0 0,0 c 24,-12 47,-25 70,-33 l -1,4 1,0 c -3,20 -5,39 -5,59 1,102 38,202 90,288 l 1,1 0,0 c 3,4 6,10 10,16 l 0,0 0,0 c 3,6 7,11 11,17 l 0,2 0,0 0,0 0,0 0,0 c 0,9 2,16 4,23 l 0,0 4,13 0,0 1,1 c 2,4 5,8 9,12 l 0,0 2,2 4,3 6,-3 1,-1 0,0 c 2,-1 3,-2 4,-3 1,2 2,5 3,7 3,5 6,9 10,13 l 0,0 3,2 3,3 7,-4 0,0 c 3,-1 5,-4 7,-5 l 0,0 0,0 0,0 0,0 0,-1 c 2,5 4,10 7,15 l 0,0 0,0 0,0 0,0 c 3,5 6,10 11,13 l 0,1 2,1 3,3 7,-3 0,0 0,0 c 6,-3 9,-7 12,-11 1,4 3,9 5,12 l 0,0 0,0 c 3,6 6,12 11,16 l 3,2 3,2 7,-3 0,0 c 3,-2 5,-4 7,-6 l 0,0 0,0 c 2,-2 4,-5 5,-7 2,4 3,9 5,13 l 0,0 0,0 c 3,6 7,12 12,16 l 0,0 2,2 4,4 7,-4 0,0 c 4,-2 6,-5 7,-7 3,-3 5,-7 7,-11 5,14 13,28 24,36 l 2,1 4,2 5,-2 c 8,-3 12,-9 15,-13 3,-4 5,-7 6,-11 l 0,2 c 4,12 10,25 18,35 l 1,0 0,0 c 2,3 5,6 9,8 l 0,1 2,1 4,2 5,-3 0,0 c 8,-3 12,-9 16,-14 l 0,0 0,0 c 3,-5 6,-11 8,-15 2,-3 3,-6 4,-9 l 1,1 0,0 0,0 c 0,2 1,3 1,4 l 0,1 0,0 c 7,18 19,36 35,46 l 0,0 2,1 3,2 5,-2 0,0 c 6,-2 11,-6 14,-10 l 1,0 3,-4 0,0 3,-4 0,0 0,0 c 4,-5 6,-9 8,-12 l 0,0 0,0 c 5,-9 9,-18 11,-28 2,8 5,17 9,24 l 0,0 4,7 0,1 1,0 c 1,2 3,5 5,8 l 0,0 0,0 c 4,6 9,12 17,15 l 0,0 2,1 4,1 5,-3 0,0 0,0 c 14,-10 25,-28 30,-46 1,2 2,4 3,6 l 0,1 8,14 0,0 c 4,5 8,11 16,14 l 0,0 2,2 4,1 5,-4 c 14,-9 23,-26 28,-44 l 0,0 0,0 c 2,3 4,6 6,10 l 0,0 0,0 c 3,4 7,10 15,13 l 0,0 2,1 4,1 5,-3 0,0 0,0 c 11,-8 19,-22 24,-36 l 1,2 0,1 2,2 0,0 c 1,2 2,5 4,7 l 0,0 0,0 c 1,1 3,4 7,6 l 0,0 3,1 4,2 6,-5 c 5,-4 9,-10 12,-16 l 0,0 0,0 c 2,-4 4,-9 5,-13 l 1,1 1,3 0,0 3,3 0,0 0,0 c 2,2 4,4 7,6 l 0,0 3,1 4,2 6,-5 c 5,-4 9,-9 11,-15 2,-3 4,-8 5,-12 3,4 6,8 12,11 l 0,0 3,1 4,2 5,-4 0,0 c 5,-4 9,-9 12,-14 l 0,0 2,-4 0,-1 0,0 c 1,-2 2,-5 3,-8 l 0,0 0,0 1,-2 0,1 0,0 0,0 1,0 0,0 c 1,2 3,4 6,5 l 0,0 3,1 4,2 5,-4 0,0 0,0 c 5,-4 8,-8 11,-13 1,-2 2,-5 3,-7 1,1 2,2 4,3 l 0,0 3,2 4,2 6,-5 0,0 3,-3 0,0 2,-2 1,-1 0,0 c 1,-2 2,-4 3,-6 l 0,0 2,-3 0,0 0,-1 c 1,-3 3,-7 3,-10 l 0,0 0,-1 c 2,-6 4,-14 4,-22 l 0,0 0,0 0,-2 c 4,-5 8,-11 11,-17 4,-7 7,-12 10,-16 l 2,-2 0,-1 c 52,-85 88,-184 89,-286 0,-20 -2,-40 -5,-59 l 1,0 -1,-4 c 3,1 6,2 8,3 24,9 48,23 72,35 l 0,4 0,0 c -8,68 -15,138 -16,208 1,83 12,167 46,248 l -1,1 1,3 z m -969,-172 0,0 -3,-1 c -1,8 0,15 -1,21 l -1,0 c -7,0 -13,-3 -19,-8 -3,-2 -4,-3 -5,-6 -1,-2 -1,-5 -1,-8 0,-2 0,-3 0,-5 1,-12 5,-27 13,-37 2,-2 4,-4 6,-6 2,3 4,7 5,11 2,6 3,12 4,17 0,2 0,3 0,5 0,5 0,11 -1,16 l 3,1 z m 54,66 0,0 c 2,0 4,1 4,1 1,0 1,0 1,2 l 0,0 c 1,3 1,6 1,9 0,5 0,9 -1,14 -1,10 -2,20 -6,28 l 0,0 c -1,2 -3,5 -5,8 l -1,2 c -2,-1 -3,-3 -4,-6 -3,-3 -5,-8 -6,-12 -2,-8 -4,-17 -4,-25 l 0,0 c -1,-4 -1,-9 -1,-14 0,-4 0,-7 1,-8 l 1,-1 c 1,-1 3,-1 6,-1 5,0 11,2 14,3 z m -2,-41 0,0 c 0,-2 0,-4 1,-6 l 0,0 c 0,-10 1,-21 3,-30 2,-8 6,-16 11,-23 2,2 5,5 7,9 3,5 5,10 8,15 l 0,0 c 2,3 2,6 2,9 0,3 0,6 -1,9 -1,6 -3,11 -3,17 l -1,4 c 0,7 2,13 2,17 l -1,3 0,0 0,1 c 0,0 -1,1 -3,1 l 0,0 -1,0 c -3,1 -6,1 -9,1 -6,0 -11,-2 -15,-6 0,-3 1,-7 1,-11 0,-3 -1,-7 -1,-10 z m 84,10 0,0 0,0 c 0,4 1,10 1,14 0,1 0,3 0,3 l 0,1 c -8,2 -19,5 -28,5 -3,0 -6,-1 -8,-2 -2,-1 -4,-2 -5,-4 l 0,0 0,0 c -2,-5 -3,-11 -3,-19 0,-7 1,-15 2,-22 2,-6 4,-12 5,-16 4,-10 8,-20 14,-29 1,-2 3,-4 4,-5 l 1,-1 0,0 1,0 1,1 c 7,6 10,13 12,21 2,7 2,15 2,24 0,5 0,10 1,15 l 0,0 0,0 0,0 c 0,4 0,9 0,14 z m 4,53 0,0 c 1,1 1,1 2,3 0,3 1,7 1,11 0,6 -1,12 -1,17 -1,12 -3,25 -7,34 -1,3 -3,7 -4,10 l -2,3 c -2,-2 -3,-4 -4,-7 -3,-5 -5,-10 -6,-16 -2,-9 -4,-20 -5,-30 0,-4 0,-11 0,-17 0,-4 0,-8 1,-10 l 1,-2 c 1,0 3,-1 5,-1 5,0 12,2 15,3 2,1 4,2 4,2 z m -67,-12 0,0 2,-2 c 1,-1 2,-1 5,-1 5,0 11,2 14,3 2,0 4,1 4,1 1,1 1,1 2,3 0,3 1,6 1,10 0,5 -1,11 -1,15 -1,11 -3,23 -7,31 -1,3 -3,7 -4,10 l -2,2 c -1,-2 -3,-4 -4,-6 -2,-5 -4,-10 -6,-15 -2,-8 -4,-18 -4,-27 0,-4 -1,-10 -1,-16 0,-4 0,-7 1,-8 z m -33,-63 0,0 c 0,1 0,4 0,6 0,6 -1,13 -1,19 l 0,0 c 0,3 -1,4 -1,5 l 0,0 c -1,0 -2,0 -4,-1 -3,0 -7,-2 -10,-3 -5,-3 -10,-6 -12,-9 l 0,0 c 0,-1 -1,-2 -1,-4 -1,-3 -1,-5 -1,-8 l 0,-3 0,-3 c 0,-2 0,-4 0,-5 0,-2 0,-4 0,-7 1,-7 2,-15 5,-22 1,-2 4,-8 7,-13 0,-2 1,-3 2,-4 2,3 3,6 5,9 2,3 4,6 4,7 3,5 6,11 7,16 0,2 1,4 1,6 0,4 -1,8 -1,14 z m -25,38 0,0 3,1 0,0 0,0 1,1 0,0 c 0,2 0,5 0,8 0,4 0,8 -1,12 l 0,0 c 0,9 -2,18 -5,25 -1,2 -2,5 -3,7 l -1,1 c -1,-1 -2,-2 -3,-4 -1,-3 -3,-7 -4,-11 -2,-7 -3,-15 -4,-22 0,-3 0,-8 0,-12 0,-2 0,-3 0,-5 l 0,0 0,0 0,-2 1,-1 c 1,0 2,-1 4,-1 4,0 9,2 12,3 z m -45,-12 0,0 1,0 2,-1 c 4,0 8,1 10,2 2,1 3,1 3,1 l 0,0 0,1 c 1,2 1,4 1,7 l 0,3 0,0 c 0,2 -1,5 -1,8 -1,8 -2,16 -4,22 -1,1 -2,4 -3,6 l -2,-3 c -1,-3 -3,-6 -4,-10 l 0,0 c -1,-6 -2,-13 -3,-19 0,-2 0,-5 0,-8 l 0,-3 c 0,-3 0,-6 0,-6 z m 215,18 0,0 0,0 0,0 c 0,2 1,4 1,6 -3,1 -7,2 -11,2 -3,0 -6,0 -9,-1 l 0,0 c -2,-1 -7,-3 -11,-5 -2,-1 -3,-2 -5,-3 0,-9 -3,-18 -3,-25 l 0,-1 0,0 c 0,-3 -1,-6 -1,-10 0,-1 0,-3 0,-5 0,-6 1,-12 1,-17 l 0,-1 c 2,-8 4,-17 8,-26 3,-7 7,-12 13,-16 12,10 18,28 18,44 l 0,3 c -1,9 -1,17 -2,26 l 0,0 0,1 c 0,4 0,9 0,15 0,4 0,9 1,13 z m 156,6 0,0 c -1,2 -3,4 -7,5 -4,1 -10,1 -15,1 -15,0 -31,-3 -39,-4 l 0,0 c -5,-1 -10,-2 -13,-3 -3,-2 -4,-3 -5,-6 0,-2 -1,-4 -1,-5 l 0,0 c 0,-3 -1,-6 -1,-9 0,-3 1,-7 1,-10 l 0,0 0,-1 c 0,-5 1,-10 2,-14 3,-18 7,-35 17,-49 3,-4 7,-9 11,-14 4,-4 8,-7 12,-9 12,7 23,23 29,38 5,13 9,28 10,42 1,6 2,15 2,23 0,6 -1,13 -3,15 z m 5,55 0,0 c 1,4 2,10 2,15 0,7 -1,15 -2,22 -2,17 -6,33 -14,46 -2,4 -5,10 -9,14 -3,4 -6,6 -9,8 -10,-7 -20,-21 -24,-35 -5,-13 -9,-27 -10,-40 0,-6 -2,-16 -2,-24 0,-5 1,-11 2,-13 1,-1 3,-3 6,-4 4,-1 8,-2 13,-2 12,0 25,3 32,5 l 0,0 c 4,0 8,1 11,2 2,2 3,3 4,6 z m -83,-8 0,0 c 0,4 1,9 1,14 0,7 -1,15 -2,21 -1,16 -4,32 -10,44 -2,4 -5,9 -8,13 -1,3 -3,5 -5,6 -7,-6 -14,-19 -18,-32 -3,-12 -7,-25 -7,-38 -1,-5 -1,-14 -1,-21 -1,-6 0,-11 1,-13 1,-2 2,-3 4,-4 3,-1 6,-1 10,-1 8,0 19,3 24,4 3,1 6,1 8,2 1,1 2,2 3,5 z m -12,-86 0,0 0,0 0,0 c 0,2 0,4 0,6 l 0,1 0,1 c 0,3 -1,6 -1,10 0,3 1,6 1,9 l 0,0 0,8 c -9,3 -21,6 -32,6 -8,0 -16,-1 -21,-5 -1,-1 -2,-3 -3,-5 0,-6 -1,-12 -1,-18 0,-2 0,-5 0,-7 l 0,-1 0,0 0,-1 1,0 0,0 0,-1 c 0,-15 3,-29 9,-42 6,-11 12,-22 21,-29 l 0,0 c 2,-2 3,-2 3,-2 l 1,1 c 0,0 1,1 3,2 1,2 2,4 4,7 11,14 16,32 16,50 0,3 0,7 -1,10 z m -53,71 0,0 c 1,1 2,2 2,4 1,4 1,8 1,12 0,7 0,13 -1,19 -1,14 -4,28 -10,39 -1,3 -3,8 -6,11 -2,3 -3,4 -5,6 -6,-6 -12,-17 -16,-28 -3,-11 -6,-23 -6,-34 -1,-5 -1,-12 -1,-19 0,-5 0,-9 1,-11 1,-1 1,-2 4,-3 2,-1 5,-1 8,-1 8,0 17,2 22,3 l 0,0 c 3,1 5,1 7,2 z m 246,-60 0,0 0,4 c 0,3 0,7 0,11 l 0,0 0,0 c 0,2 -1,4 -1,6 -1,3 -2,4 -5,6 -3,1 -8,2 -13,3 -4,1 -10,2 -17,3 -7,1 -14,1 -22,1 -5,0 -11,0 -15,-1 -4,-1 -6,-3 -7,-5 -2,-2 -3,-9 -3,-15 0,-8 1,-17 2,-23 1,-14 5,-29 10,-42 6,-15 17,-31 30,-38 3,2 7,5 11,9 4,5 8,10 11,14 10,14 14,31 17,48 1,6 2,12 2,18 l 0,1 0,0 z m 2,70 0,0 c 1,-1 4,-1 7,-2 5,-1 16,-4 24,-4 4,0 7,0 10,1 2,1 3,2 4,4 1,2 2,7 1,13 0,7 0,16 -1,21 0,13 -4,26 -7,38 -4,13 -11,26 -18,32 -2,-1 -4,-3 -5,-6 -3,-4 -6,-9 -8,-13 -6,-12 -9,-28 -10,-43 -1,-7 -2,-15 -2,-22 0,-5 1,-10 2,-14 l 0,0 c 0,-3 1,-4 3,-5 z m 65,-74 0,0 0,1 c 0,1 0,3 0,5 0,6 -1,12 -1,18 -1,2 -2,4 -3,5 -5,4 -13,5 -21,5 -11,0 -23,-3 -32,-6 0,-2 0,-5 0,-8 l 0,-1 0,0 c 0,-3 1,-6 1,-8 0,-3 0,-5 -1,-7 l 0,0 0,-1 0,0 0,0 c 0,-4 0,-7 0,-10 l 0,0 c 0,-4 -1,-7 -1,-11 0,-18 5,-35 16,-49 2,-4 4,-6 6,-8 l 1,-2 1,0 c 0,0 1,0 3,2 9,7 15,18 21,29 6,13 9,27 9,42 l 0,1 0,0 c 1,0 1,1 1,3 z m 10,0 0,0 0,0 c 0,-10 -1,-19 -2,-29 l 0,-3 c 0,-16 6,-34 18,-44 6,4 10,9 13,16 4,9 6,18 8,26 l 0,1 c 0,5 1,11 1,17 0,2 0,4 0,5 0,4 -1,7 -1,10 l 0,0 c 0,8 -2,16 -3,24 l -1,0 0,2 -1,1 c -2,1 -5,3 -8,4 -2,1 -3,2 -4,2 l -2,1 0,0 0,0 c -3,1 -6,1 -9,1 -4,0 -8,-1 -11,-2 0,-2 1,-4 1,-6 l 0,0 c 1,-5 1,-9 1,-13 0,-5 0,-9 0,-13 z m 15,59 0,0 c 3,0 6,0 8,1 3,1 4,2 4,3 l 0,0 c 1,2 1,6 1,11 0,7 0,14 -1,19 0,11 -3,23 -6,34 -4,11 -10,22 -16,28 -2,-2 -3,-3 -5,-6 -3,-3 -5,-8 -7,-11 -5,-11 -7,-25 -9,-39 -1,-6 -1,-12 -1,-19 0,-4 0,-8 1,-12 l 0,0 c 0,-3 1,-3 2,-4 2,-1 4,-1 7,-2 5,-1 14,-3 22,-3 z m -107,31 0,0 c 0,9 -1,18 -1,24 -1,13 -5,27 -9,40 -4,14 -13,28 -21,35 -2,-2 -5,-5 -7,-8 -3,-4 -6,-10 -8,-14 -8,-13 -11,-29 -13,-46 0,-7 -1,-15 -1,-23 0,-5 0,-10 1,-15 1,-3 2,-4 4,-5 2,-1 5,-2 9,-3 6,-1 18,-4 28,-4 4,0 8,1 11,2 3,1 4,2 5,4 1,2 2,7 2,13 z m 224,-75 0,0 c -4,4 -9,6 -15,6 -3,0 -6,0 -9,-1 -2,0 -4,-1 -4,-1 l -1,-1 0,-3 c 0,-4 2,-10 2,-17 l 0,-4 0,0 c -1,-6 -3,-11 -4,-17 -1,-3 -1,-6 -1,-9 0,-3 0,-6 2,-9 3,-5 5,-10 8,-15 2,-4 5,-7 7,-9 5,7 9,15 11,23 2,9 3,20 3,30 0,2 1,4 1,5 0,4 -1,8 -1,12 0,4 1,7 1,10 z m 12,17 0,0 c 3,0 5,0 6,1 l 1,1 c 1,1 1,4 1,8 0,5 0,10 -1,14 l 0,0 c 0,8 -2,17 -4,25 -1,4 -3,9 -5,12 -2,3 -3,5 -5,6 l -1,-2 c -2,-3 -4,-6 -5,-8 -4,-8 -5,-18 -6,-28 -1,-5 -1,-10 -1,-14 0,-4 0,-7 1,-9 0,-2 0,-2 1,-2 0,0 2,-1 4,-1 3,-1 9,-3 14,-3 z m 42,-11 0,0 0,0 0,0 c 0,2 0,3 0,5 0,4 0,9 0,12 -1,7 -2,15 -4,22 -1,4 -3,8 -4,11 -1,2 -2,3 -3,4 l -1,-1 c -1,-2 -2,-5 -3,-7 -3,-7 -5,-16 -6,-25 0,-4 0,-8 0,-12 0,-3 0,-6 0,-8 l 1,-1 0,0 0,0 1,-1 2,0 c 3,-1 8,-3 12,-3 l 0,0 c 2,0 3,1 4,1 l 1,1 0,0 0,2 z m 12,8 0,0 c 0,-3 -1,-6 -1,-8 l 0,0 0,-1 0,-3 c 0,-2 0,-4 1,-6 l 0,0 0,-1 1,0 1,-1 c 3,-1 7,-2 11,-2 l 2,1 1,0 c 0,0 0,3 0,6 l 0,3 0,0 0,0 c 0,3 0,6 0,8 l 0,0 c -1,6 -2,13 -3,19 -1,4 -3,7 -4,10 l -2,3 0,0 c -1,-2 -2,-5 -3,-6 l 0,0 c -2,-6 -3,-14 -4,-22 z m 15,-54 0,0 c -1,2 -2,4 -5,6 -6,5 -12,8 -19,8 l -1,0 c -1,-4 -1,-8 -1,-13 0,-2 0,-5 0,-8 l 0,0 c -1,-5 -1,-11 -1,-16 0,-2 0,-3 0,-5 0,-5 2,-11 4,-17 1,-4 3,-8 5,-11 2,2 4,4 6,6 8,10 12,25 13,37 0,2 0,3 0,5 0,3 0,6 -1,8 z m -39,6 0,0 0,1 c 0,2 0,4 0,5 0,6 -1,10 -2,12 l 0,0 c -2,3 -7,6 -12,9 -3,1 -7,3 -9,3 -3,1 -4,1 -5,1 l 0,0 c 0,-1 -1,-2 -1,-5 0,-5 0,-10 0,-14 -1,-4 -1,-8 -1,-11 l 0,-1 c 0,-5 -1,-9 -1,-13 0,-2 1,-4 1,-5 1,-6 4,-12 7,-17 0,-1 1,-3 2,-4 2,-3 4,-7 6,-10 l 1,-2 c 4,5 8,15 9,17 l 0,0 c 4,10 5,19 5,30 0,1 0,2 0,4 z m -70,61 0,0 c 3,0 4,0 5,1 l 2,1 0,1 c 1,1 1,4 1,8 0,6 -1,12 -1,16 0,9 -2,19 -4,27 -2,5 -4,10 -6,15 -1,2 -2,4 -4,6 -2,-3 -5,-8 -6,-11 -4,-9 -6,-21 -7,-32 0,-4 0,-10 0,-15 0,-4 0,-7 0,-10 l 0,0 c 1,-2 1,-2 2,-3 0,0 2,-1 4,-1 3,-1 9,-3 14,-3 z m -16,-21 0,0 0,0 0,0 c -1,2 -2,3 -5,4 -2,1 -5,2 -8,2 -9,0 -20,-3 -28,-5 l 0,-1 c 0,0 0,-1 0,-3 -1,-4 1,-9 1,-14 0,-5 0,-9 0,-14 1,-5 1,-10 1,-15 0,-9 0,-17 2,-24 2,-8 5,-15 11,-21 l 2,-1 1,0 c 1,0 3,3 5,6 6,9 10,19 14,29 1,4 3,10 5,16 1,7 2,15 2,22 0,8 -1,14 -3,19 z m -40,34 0,0 0,0 c 3,-1 10,-3 15,-3 2,0 4,1 5,1 l 1,2 c 1,2 1,6 1,10 0,6 0,13 0,17 -1,10 -3,21 -5,30 -1,6 -3,11 -6,16 -1,3 -2,5 -4,7 -2,-3 -5,-9 -6,-13 -4,-9 -6,-22 -7,-34 0,-5 -1,-11 -1,-17 0,-4 1,-8 1,-11 1,-2 1,-2 2,-3 0,0 2,-1 4,-2 z"
         id="path52"
         inkscape:connector-curvature="0"
         style="fill:#ffffff;fill-rule:nonzero" /></g></g></svg>