<?xml version="1.0" encoding="UTF-8" standalone="no"?>
<!-- Creator: CorelDRAW X7 -->

<svg
   xmlns:dc="http://purl.org/dc/elements/1.1/"
   xmlns:cc="http://creativecommons.org/ns#"
   xmlns:rdf="http://www.w3.org/1999/02/22-rdf-syntax-ns#"
   xmlns:svg="http://www.w3.org/2000/svg"
   xmlns="http://www.w3.org/2000/svg"
   xmlns:sodipodi="http://sodipodi.sourceforge.net/DTD/sodipodi-0.dtd"
   xmlns:inkscape="http://www.inkscape.org/namespaces/inkscape"
   xml:space="preserve"
   width="7.8740005in"
   height="7.8740005in"
   version="1.1"
   style="clip-rule:evenodd;fill-rule:evenodd;image-rendering:optimizeQuality;shape-rendering:geometricPrecision;text-rendering:geometricPrecision"
   viewBox="0 0 7874.0005 7874.0005"
   id="svg3510"
   inkscape:version="0.91 r13725"
   sodipodi:docname="Ariadna - Chasseurs - [N3] [Vyo].svg"><metadata
     id="metadata3547"><rdf:RDF><cc:Work
         rdf:about=""><dc:format>image/svg+xml</dc:format><dc:type
           rdf:resource="http://purl.org/dc/dcmitype/StillImage" /></cc:Work></rdf:RDF></metadata><sodipodi:namedview
     pagecolor="#ffffff"
     bordercolor="#666666"
     borderopacity="1"
     objecttolerance="10"
     gridtolerance="10"
     guidetolerance="10"
     inkscape:pageopacity="0"
     inkscape:pageshadow="2"
     inkscape:window-width="640"
     inkscape:window-height="480"
     id="namedview3545"
     showgrid="false"
     inkscape:zoom="0.23838384"
     inkscape:cx="736.83001"
     inkscape:cy="849.33005"
     inkscape:window-x="0"
     inkscape:window-y="0"
     inkscape:window-maximized="0"
     inkscape:current-layer="svg3510" /><defs
     id="defs3512"><style
       type="text/css"
       id="style3514"><![CDATA[
    .fil3 {fill:none}
    .fil1 {fill:black}
    .fil0 {fill:#E2001A}
    .fil2 {fill:white;fill-rule:nonzero}
   ]]></style></defs><g
     id="Layer_x0020_1"
     transform="translate(3937,-7063)"><metadata
       id="CorelCorpID_0Corel-Layer" /><circle
       class="fil0"
       cy="11000"
       r="3937"
       id="circle3518"
       cx="0"
       style="fill:#e2001a" /><circle
       class="fil1"
       cy="11000"
       r="3858"
       id="circle3520"
       cx="0"
       style="fill:#000000" /><circle
       class="fil0"
       cy="11000"
       r="2598"
       id="circle3522"
       cx="0"
       style="fill:#e2001a" /><path
       class="fil2"
       d="m -2287,8775 205,196 c 19,18 18,36 -2,57 -20,21 -39,22 -57,5 l -205,-196 -92,96 c -17,17 -34,17 -53,-1 -17,-16 -18,-33 -1,-51 l 244,-255 c 16,-17 33,-17 50,0 19,18 20,35 4,52 l -93,97 z"
       id="path3524"
       inkscape:connector-curvature="0"
       style="fill:#ffffff;fill-rule:nonzero" /><path
       id="1"
       class="fil2"
       d="m -1832,8518 c -10,-14 -30,-9 -60,14 l -91,71 c -32,25 -42,46 -30,62 l 65,83 c 11,14 34,9 66,-17 l 92,-71 c 29,-23 37,-41 26,-56 l -68,-86 z m 133,36 c 41,52 23,108 -53,168 l -81,63 c -78,61 -138,66 -179,13 l -65,-84 c -42,-53 -23,-111 56,-173 l 79,-62 c 76,-59 136,-63 177,-10 l 66,85 z"
       inkscape:connector-curvature="0"
       style="fill:#ffffff;fill-rule:nonzero" /><path
       id="2"
       class="fil2"
       d="m -1244,8296 c 30,56 0,109 -92,159 l -76,41 c -93,50 -155,47 -185,-9 l -86,-158 c -12,-23 -6,-40 17,-53 24,-13 42,-8 54,14 l 84,155 c 9,16 33,13 73,-9 l 92,-49 c 39,-21 54,-40 46,-55 l -84,-156 c -12,-21 -6,-39 19,-52 23,-13 41,-8 52,14 l 86,158 z"
       inkscape:connector-curvature="0"
       style="fill:#ffffff;fill-rule:nonzero" /><path
       id="3"
       class="fil2"
       d="m -1027,8275 c 23,60 -5,106 -85,138 l -37,14 c -22,9 -38,2 -46,-20 -9,-23 -3,-38 20,-47 l 40,-16 c 28,-11 39,-23 34,-35 l -78,-197 c -9,-23 -1,-40 24,-49 26,-10 43,-4 52,19 l 76,193 z m -110,-304 c 10,24 -1,42 -32,54 -30,12 -50,6 -60,-18 -9,-23 2,-41 32,-53 31,-12 51,-6 60,17 z"
       inkscape:connector-curvature="0"
       style="fill:#ffffff;fill-rule:nonzero" /><path
       id="4"
       class="fil2"
       d="m -670,7988 c -4,-16 -24,-21 -60,-12 l -113,25 c -40,10 -58,24 -53,44 l 23,103 c 4,18 26,23 67,13 l 113,-26 c 36,-8 52,-21 47,-40 l -24,-107 z m 105,90 c 14,65 -25,108 -120,129 l -100,23 c -97,22 -152,1 -167,-64 l -24,-104 c -15,-66 26,-110 124,-133 l 98,-22 c 95,-22 150,0 165,66 l 24,105 z"
       inkscape:connector-curvature="0"
       style="fill:#ffffff;fill-rule:nonzero" /><path
       id="5"
       class="fil2"
       d="m -47,8022 c 6,64 -44,100 -148,108 l -87,7 c -105,9 -160,-19 -165,-83 l -15,-179 c -2,-25 10,-39 37,-41 27,-2 42,9 44,34 l 14,176 c 2,18 25,26 71,22 l 103,-9 c 45,-3 66,-14 65,-31 l -15,-177 c -2,-25 11,-38 39,-40 27,-2 41,9 43,33 l 14,180 z"
       inkscape:connector-curvature="0"
       style="fill:#ffffff;fill-rule:nonzero" /><path
       id="6"
       class="fil2"
       d="m 223,7898 c -38,-3 -57,4 -59,22 l -14,173 c -2,26 -17,37 -44,35 -27,-3 -40,-16 -38,-41 l 14,-174 c 6,-66 56,-95 152,-87 l 23,2 c 23,2 34,15 32,39 -2,24 -14,35 -35,33 l -31,-2 z"
       inkscape:connector-curvature="0"
       style="fill:#ffffff;fill-rule:nonzero" /><path
       id="7"
       class="fil2"
       d="m 706,8116 c -10,59 -55,81 -135,67 l -210,-37 c -25,-4 -35,-18 -31,-41 5,-24 19,-34 43,-30 l 219,38 c 20,4 31,0 33,-12 l 2,-13 c 2,-12 -9,-19 -32,-24 l -116,-20 c -87,-15 -126,-51 -116,-107 l 3,-18 c 10,-55 56,-75 140,-60 l 58,10 c 24,4 35,18 31,42 -4,24 -19,33 -44,29 l -70,-12 c -22,-4 -34,-2 -36,8 l -2,13 c -2,10 11,18 40,23 l 118,20 c 82,15 118,51 108,108 l -3,16 z"
       inkscape:connector-curvature="0"
       style="fill:#ffffff;fill-rule:nonzero" /><path
       id="8"
       class="fil2"
       d="m 1430,8171 c 8,-18 -9,-37 -51,-56 l -206,-94 -46,101 203,93 c 44,20 70,20 79,1 l 21,-45 z m 52,85 c -28,61 -91,69 -190,24 l -196,-90 -41,90 c -10,22 -29,28 -54,16 -26,-12 -34,-29 -24,-52 l 136,-296 c 9,-20 24,-26 44,-17 l 247,113 c 96,44 131,96 105,154 l -27,58 z"
       inkscape:connector-curvature="0"
       style="fill:#ffffff;fill-rule:nonzero" /><path
       id="9"
       class="fil2"
       d="m 1687,8386 c -32,-20 -52,-22 -62,-7 l -93,146 c -14,21 -32,24 -55,10 -23,-15 -28,-33 -15,-55 l 94,-146 c 35,-56 94,-58 175,-6 l 19,12 c 20,13 23,29 10,50 -13,20 -29,25 -46,13 l -27,-17 z"
       inkscape:connector-curvature="0"
       style="fill:#ffffff;fill-rule:nonzero" /><path
       id="10"
       class="fil2"
       d="m 1864,8564 184,157 17,-20 c 9,-11 3,-26 -18,-45 l -104,-88 c -32,-27 -53,-35 -63,-23 l -16,19 z m 229,226 c -17,20 -35,21 -54,5 l -215,-184 -20,23 c -10,12 1,31 33,58 l 43,36 c 18,16 19,33 4,51 -16,19 -33,20 -52,5 l -32,-28 c -80,-68 -98,-128 -54,-179 l 70,-81 c 43,-51 104,-43 183,24 l 87,75 c 67,57 81,108 42,153 l -35,42 z m 50,-222 c 0,8 -2,14 -6,18 -2,3 -4,5 -8,6 -3,1 -7,2 -10,2 -4,0 -7,0 -11,-1 -3,-1 -6,-2 -8,-4 -6,-4 -8,-9 -8,-15 l -5,-89 -87,9 c -7,0 -13,-1 -18,-5 -5,-5 -8,-11 -9,-19 0,-8 2,-15 6,-20 2,-2 4,-3 6,-5 3,-1 5,-2 9,-2 l 106,-12 c 5,-1 10,0 14,1 4,1 8,3 12,7 8,6 12,14 12,24 l 5,105 z"
       inkscape:connector-curvature="0"
       style="fill:#ffffff;fill-rule:nonzero" /><path
       id="11"
       class="fil2"
       d="m 2297,8901 -149,133 c -19,17 -37,16 -55,-4 -18,-20 -17,-39 1,-56 l 150,-133 -7,-7 c -16,-19 -15,-36 3,-52 18,-16 35,-15 51,3 l 7,8 38,-35 c 18,-16 37,-15 55,6 18,19 17,38 -2,54 l -38,35 58,64 c 16,17 15,34 -3,51 -18,16 -35,15 -51,-3 l -58,-64 z"
       inkscape:connector-curvature="0"
       style="fill:#ffffff;fill-rule:nonzero" /><circle
       class="fil3"
       cy="11000"
       r="3543"
       id="circle3537"
       cx="0"
       style="fill:none" /><circle
       class="fil3"
       cy="11000"
       r="3543"
       id="circle3539"
       cx="0"
       style="fill:none" /><path
       class="fil2"
       d="m -3234,11584 122,-21 -58,-336 517,306 7,36 -396,69 14,84 -54,10 -15,-85 -122,22 -15,-85 z m 177,-30 249,-44 -286,-166 37,210 z m 201,577 c 30,-12 49,-32 57,-61 9,-28 7,-62 -6,-101 -12,-36 -30,-63 -55,-82 -25,-18 -53,-24 -82,-19 l 86,263 z m -21,95 -113,-342 -5,2 c -37,12 -62,35 -76,69 -14,34 -13,72 1,114 9,29 24,53 44,73 20,19 45,33 76,43 l -11,66 c -38,-11 -71,-31 -97,-60 -27,-28 -48,-65 -63,-109 -21,-66 -22,-125 -1,-177 21,-52 60,-87 115,-106 54,-17 104,-12 152,17 47,29 81,76 102,139 21,64 22,120 2,168 -20,48 -58,81 -114,100 l -12,3 z m 141,-357 162,53 31,96 -174,-92 -19,-57 z m 59,1070 184,-105 c 32,-18 51,-39 57,-64 6,-25 0,-54 -19,-88 -11,-18 -23,-33 -38,-45 -14,-12 -30,-20 -47,-25 -12,-3 -25,-3 -38,0 -13,2 -32,11 -57,25 l -162,92 -37,-65 184,-105 c 32,-18 51,-40 57,-65 6,-24 0,-54 -19,-87 -11,-18 -23,-33 -38,-46 -15,-12 -30,-20 -47,-25 -12,-3 -25,-3 -37,0 -12,2 -32,11 -58,26 l -162,92 -37,-65 313,-179 38,67 -49,27 c 30,5 56,16 79,33 23,17 42,41 59,71 19,32 29,62 31,91 2,28 -5,54 -19,78 31,4 59,15 83,33 23,17 44,41 61,71 25,44 35,84 30,120 -6,36 -26,64 -61,84 l -213,121 -38,-67 z m 536,257 c 21,-24 29,-50 25,-80 -4,-29 -21,-59 -50,-89 -26,-27 -54,-44 -85,-49 -30,-6 -58,0 -82,18 l 192,200 z m 22,95 -250,-261 -4,4 c -28,27 -41,58 -39,95 3,37 19,71 50,103 21,22 45,38 71,46 27,9 56,11 88,7 l 18,64 c -39,6 -77,2 -114,-12 -36,-14 -70,-38 -103,-72 -48,-50 -74,-103 -77,-159 -4,-56 16,-104 58,-145 41,-39 89,-55 144,-50 56,6 106,33 153,81 46,49 71,99 73,151 3,52 -17,99 -60,139 l -8,9 z m 310,384 48,28 c 77,45 132,73 165,85 33,12 63,18 91,16 35,-2 68,-12 97,-31 29,-20 53,-46 74,-81 20,-35 31,-69 33,-104 2,-34 -5,-67 -21,-100 -12,-24 -32,-48 -59,-71 -28,-24 -79,-57 -155,-101 l -48,-28 -225,387 z m -108,12 289,-498 121,70 c 90,52 150,92 183,120 32,29 58,60 75,92 24,43 35,87 34,132 -2,45 -15,90 -41,135 -26,44 -58,78 -96,102 -39,23 -83,35 -132,36 -37,1 -75,-5 -115,-18 -39,-14 -96,-42 -170,-85 l -27,-16 -121,-70 z m 649,352 190,-544 362,126 -20,60 -281,-98 -54,156 281,98 -21,60 -281,-98 -73,209 281,97 -21,60 -363,-126 z m 1424,-171 c -33,-32 -68,-57 -106,-75 -39,-17 -82,-27 -129,-31 -39,-3 -76,1 -114,10 -37,10 -70,24 -99,44 -29,21 -52,45 -68,72 -16,27 -25,57 -28,91 -2,27 0,52 7,75 6,23 17,45 32,65 27,35 61,63 102,84 41,20 86,33 136,37 46,3 90,-1 130,-13 41,-13 79,-32 114,-60 l -7,91 c -37,17 -77,30 -120,38 -42,7 -85,9 -130,6 -38,-3 -75,-11 -111,-22 -35,-12 -69,-28 -99,-48 -51,-33 -88,-71 -113,-116 -25,-44 -35,-92 -32,-143 4,-44 16,-83 38,-118 21,-35 52,-66 93,-92 39,-26 82,-44 128,-54 46,-11 95,-14 149,-10 42,3 82,11 121,24 38,13 76,32 113,56 l -7,89 z m 117,420 -99,-567 85,-15 38,218 382,-66 -38,-218 86,-15 99,567 -86,15 -50,-285 -381,67 49,285 -85,14 z m 771,-646 -30,239 216,-85 -186,-154 z m -56,-141 529,434 -88,35 -153,-129 -264,105 -23,198 -87,35 86,-678 z m 642,-22 c 49,-12 90,-14 125,-5 35,9 62,29 81,60 29,44 34,92 16,142 -19,50 -57,94 -116,133 -49,31 -95,47 -141,49 -45,1 -85,-12 -119,-41 l 49,-68 c 28,23 57,36 87,38 31,2 61,-7 92,-27 37,-24 61,-51 73,-82 12,-32 9,-60 -8,-87 -14,-22 -34,-35 -60,-41 -26,-6 -59,-4 -98,5 l -90,23 c -50,13 -91,15 -125,7 -33,-9 -60,-28 -79,-57 -22,-35 -24,-73 -6,-117 18,-43 52,-81 102,-113 37,-24 73,-38 107,-43 35,-5 68,-1 99,14 l -41,69 c -26,-10 -50,-14 -73,-12 -23,2 -45,9 -66,23 -28,18 -46,39 -55,63 -9,25 -7,47 7,68 11,17 27,28 48,31 22,5 50,2 84,-6 l 107,-26 z m 379,-293 c 46,-19 87,-27 123,-22 35,4 65,20 88,47 35,40 47,87 36,139 -12,52 -44,101 -97,148 -43,37 -87,60 -132,68 -45,7 -86,-1 -124,-24 l 39,-74 c 31,19 62,28 92,25 30,-2 59,-15 87,-39 33,-29 53,-59 61,-92 7,-32 0,-61 -20,-85 -17,-19 -39,-30 -66,-32 -26,-2 -58,4 -95,19 l -87,35 c -47,20 -88,28 -122,24 -35,-3 -63,-19 -86,-45 -27,-31 -35,-69 -23,-115 12,-45 40,-87 85,-126 33,-29 67,-48 101,-58 34,-10 67,-10 99,0 l -31,75 c -26,-7 -51,-7 -73,-2 -23,5 -44,15 -63,32 -25,21 -40,45 -45,70 -6,26 0,48 16,66 13,16 31,24 52,25 22,1 49,-6 82,-19 l 103,-40 z m 393,60 -436,-377 252,-290 47,41 -194,225 125,108 194,-225 48,42 -194,225 167,144 194,-225 48,42 -251,290 z m -166,-696 44,-76 311,178 c 50,29 95,37 134,23 40,-14 76,-49 109,-108 34,-58 46,-107 38,-148 -8,-41 -37,-76 -88,-104 l -311,-179 44,-76 311,178 c 67,39 106,89 116,148 11,60 -8,131 -55,213 -47,82 -98,134 -155,155 -57,22 -119,13 -187,-26 l -311,-178 z m 835,-369 -545,-186 55,-162 c 16,-46 29,-79 41,-99 11,-20 25,-37 40,-50 20,-16 42,-26 67,-30 25,-4 51,-2 76,7 45,15 74,42 86,82 13,39 8,90 -12,150 l -5,15 349,-175 -35,105 -346,163 -4,11 260,89 -27,80 z m -463,-247 182,62 21,-63 c 22,-64 30,-109 25,-135 -6,-26 -25,-45 -57,-56 -35,-12 -64,-9 -85,9 -22,17 -43,57 -65,120 l -21,63 z m 338,-580 c 22,-45 48,-78 77,-98 30,-20 62,-28 98,-24 53,7 92,34 119,80 26,47 35,105 26,175 -7,57 -25,103 -53,138 -28,36 -64,58 -108,66 l -21,-82 c 36,-6 65,-20 86,-42 21,-22 34,-51 38,-88 6,-43 1,-79 -15,-108 -16,-29 -40,-46 -72,-50 -25,-4 -49,3 -70,19 -21,16 -41,42 -59,78 l -41,84 c -22,46 -47,79 -75,99 -28,20 -60,28 -95,24 -40,-6 -71,-29 -93,-71 -21,-42 -28,-92 -20,-151 5,-43 18,-80 36,-110 19,-30 44,-52 75,-66 l 26,76 c -24,13 -43,29 -56,48 -14,18 -22,40 -25,66 -5,32 0,59 13,82 12,23 31,35 55,39 20,2 39,-3 56,-17 17,-14 33,-37 49,-68 l 49,-99 z"
       id="path3541"
       inkscape:connector-curvature="0"
       style="fill:#ffffff;fill-rule:nonzero" /><path
       class="fil1"
       d="m 1038,10940 145,-28 c -66,-207 -155,-355 -199,-384 -57,-38 -186,-40 -317,-61 160,124 288,286 371,473 z m -2783,654 c 19,50 43,97 72,142 31,-15 60,-17 78,-2 18,15 21,47 9,83 42,33 155,153 179,185 54,-32 125,-91 190,-128 -53,-137 -82,-285 -82,-441 0,-621 464,-1134 1064,-1211 -61,-276 -124,-570 -119,-836 4,-278 157,-630 275,-788 118,197 315,561 315,827 l 0,829 c 37,9 73,21 109,34 -6,-10 -10,-20 -14,-31 -57,-187 251,-447 687,-580 437,-134 837,-90 895,97 95,281 -350,479 -338,596 39,394 38,561 0,1024 -36,433 -272,759 -580,985 5,39 -15,79 -48,94 l -750,315 0,299 c 0,37 -42,78 -79,78 l -197,0 c -117,0 -315,-69 -315,-157 0,-79 237,-63 237,-158 l 0,-79 c -14,0 -27,1 -40,1 -448,0 -864,-253 -1178,-513 -46,6 -99,-13 -124,-43 -18,-21 -28,-56 -27,-89 -59,-66 -115,-127 -169,-170 -40,27 -80,37 -103,18 -21,-18 -21,-61 -1,-106 -43,-35 -93,-68 -134,-87 -43,13 -82,8 -106,-16 -47,-46 -22,-146 55,-223 77,-77 177,-101 223,-55 24,24 29,63 16,106 z m 1039,886 c -181,-109 -332,-264 -437,-448 -35,37 -75,74 -107,107 156,128 352,252 544,341 z m 704,626 98,0 c 19,0 42,-21 42,-41 l 0,-805 c -28,45 -42,145 -42,224 l 2,541 c 0,33 -7,41 -39,42 -24,0 -50,10 -61,39 z m 450,-1092 c 9,14 44,78 44,48 l 0,-62 c 0,-17 -20,-35 -37,-35 l -219,0 c 64,46 184,7 212,49 z m -271,-286 0,-2303 c 0,-215 -141,-507 -259,-715 -27,56 200,466 200,715 l 0,1788 c 0,211 28,357 59,515 z m 59,-1417 0,83 c 56,16 109,37 159,63 165,87 95,-2 -13,-78 -44,-31 -96,-54 -146,-68 z m 0,189 0,1406 236,0 c 38,0 79,41 79,78 l 0,79 c 0,37 -41,79 -79,79 l -157,0 c -56,0 -118,62 -118,118 l 0,70 373,-157 c 206,-180 336,-445 336,-740 0,-433 -281,-801 -670,-933 z m -393,1914 0,-154 c 0,-56 -63,-118 -119,-118 l -236,0 c -37,0 -79,-42 -79,-79 l 0,-79 c 0,-37 42,-78 79,-78 l 197,0 0,-434 c 158,-157 197,-315 197,-551 0,-133 -28,-293 -65,-467 -495,53 -880,471 -880,979 0,517 399,941 906,981 z m -48,-2058 c -5,-26 -11,-52 -17,-79 -576,71 -1021,561 -1021,1156 0,139 114,-275 126,-314 123,-407 479,-713 912,-763 z m 1246,-604 c -172,53 -362,138 -500,255 -53,44 -158,149 -134,227 24,79 170,107 238,114 58,6 102,8 164,4 -133,-100 -230,-78 -254,-161 -23,-81 305,-260 521,-326 184,-56 602,-134 636,-28 32,97 -45,126 -72,237 22,-16 43,-33 64,-50 52,-44 157,-148 133,-227 -24,-79 -170,-106 -238,-113 -180,-20 -385,16 -558,68 z m -2984,1825 c -13,22 47,-5 67,17 17,20 -48,112 17,66 28,-20 46,-56 56,-90 15,-48 -1,-62 -50,-50 -34,8 -72,27 -90,57 z m 2863,558 c 198,-198 340,-413 340,-741 0,-115 -14,-227 -37,-330 l -130,26 c 32,109 49,224 49,343 0,261 -82,504 -222,702 z"
       id="path3543"
       inkscape:connector-curvature="0"
       style="fill:#000000" /></g></svg>