<?xml version="1.0" encoding="UTF-8" standalone="no"?>
<!-- Creator: CorelDRAW X7 -->

<svg
   xmlns:dc="http://purl.org/dc/elements/1.1/"
   xmlns:cc="http://creativecommons.org/ns#"
   xmlns:rdf="http://www.w3.org/1999/02/22-rdf-syntax-ns#"
   xmlns:svg="http://www.w3.org/2000/svg"
   xmlns="http://www.w3.org/2000/svg"
   xmlns:sodipodi="http://sodipodi.sourceforge.net/DTD/sodipodi-0.dtd"
   xmlns:inkscape="http://www.inkscape.org/namespaces/inkscape"
   xml:space="preserve"
   width="7.8740005in"
   height="7.8740005in"
   version="1.1"
   style="clip-rule:evenodd;fill-rule:evenodd;image-rendering:optimizeQuality;shape-rendering:geometricPrecision;text-rendering:geometricPrecision"
   viewBox="0 0 7874.0005 7874.0005"
   id="svg4001"
   inkscape:version="0.91 r13725"
   sodipodi:docname="Ariadna - Loup-Garou - [N3] [Vyo].svg"><metadata
     id="metadata4056"><rdf:RDF><cc:Work
         rdf:about=""><dc:format>image/svg+xml</dc:format><dc:type
           rdf:resource="http://purl.org/dc/dcmitype/StillImage" /></cc:Work></rdf:RDF></metadata><sodipodi:namedview
     pagecolor="#ffffff"
     bordercolor="#666666"
     borderopacity="1"
     objecttolerance="10"
     gridtolerance="10"
     guidetolerance="10"
     inkscape:pageopacity="0"
     inkscape:pageshadow="2"
     inkscape:window-width="640"
     inkscape:window-height="480"
     id="namedview4054"
     showgrid="false"
     inkscape:zoom="0.23838384"
     inkscape:cx="736.83001"
     inkscape:cy="849.33005"
     inkscape:window-x="0"
     inkscape:window-y="0"
     inkscape:window-maximized="0"
     inkscape:current-layer="svg4001" /><defs
     id="defs4003"><style
       type="text/css"
       id="style4005"><![CDATA[
    .fil4 {fill:none}
    .fil2 {fill:black}
    .fil1 {fill:black}
    .fil0 {fill:#E2001A}
    .fil3 {fill:white;fill-rule:nonzero}
   ]]></style></defs><g
     id="Layer_x0020_1"
     transform="translate(3937,-7063)"><metadata
       id="CorelCorpID_0Corel-Layer" /><circle
       class="fil0"
       cy="11000"
       r="3937"
       id="circle4009"
       cx="0"
       style="fill:#e2001a" /><circle
       class="fil1"
       cy="11000"
       r="3858"
       id="circle4011"
       cx="0"
       style="fill:#000000" /><circle
       class="fil0"
       cy="11000"
       r="2717"
       id="circle4013"
       cx="0"
       style="fill:#e2001a" /><path
       class="fil2"
       d="m 709,10528 c -292,3 -276,-79 -433,-119 72,-107 155,-141 275,-39 47,40 63,89 158,158 z m 652,1597 c 27,-38 39,-73 50,-129 -34,36 -64,55 -108,74 -9,-9 -19,-18 -28,-26 15,-33 22,-66 24,-99 -22,22 -47,41 -78,52 -10,-8 -19,-15 -28,-22 16,-35 24,-71 27,-109 -30,29 -60,49 -90,61 -9,-7 -19,-14 -28,-20 8,-40 7,-80 0,-120 -21,31 -44,58 -73,74 -16,-8 -30,-16 -45,-23 9,-30 5,-51 -1,-81 -11,27 -24,41 -44,60 -12,-5 -23,-10 -33,-14 7,-31 5,-63 0,-94 -15,25 -34,51 -57,77 -23,-7 -40,-12 -62,-17 12,-33 7,-66 0,-100 -21,32 -45,61 -82,83 -18,-4 -35,-8 -52,-13 0,-23 -7,-46 -23,-70 -9,18 -16,35 -33,50 -40,-18 -81,-45 -125,-89 83,-99 193,-144 316,-160 7,26 5,53 -1,81 35,-25 64,-54 87,-87 11,0 21,0 32,0 5,29 5,58 0,87 42,-21 78,-49 109,-82 16,1 32,3 48,4 7,26 5,52 0,78 34,-16 64,-39 89,-67 23,3 46,7 68,10 8,32 6,64 0,97 34,-23 63,-51 84,-84 12,1 23,3 35,5 10,39 9,79 0,118 48,-31 85,-67 108,-109 17,0 33,0 49,0 6,29 4,49 0,70 64,-36 85,-57 103,-78 18,-2 36,-5 55,-7 6,23 4,53 0,85 43,-31 77,-67 105,-106 5,-1 10,-2 15,-4 27,45 35,96 37,149 44,-58 78,-120 94,-188 21,-5 43,-9 63,-9 79,0 131,-38 158,-118 39,-118 118,-197 118,-394 0,-87 -118,-78 -236,-78 -103,0 -276,-158 -433,-197 -259,-65 -551,-40 -670,-197 -148,-198 -275,-433 -669,-512 -290,-58 -433,-197 -512,-315 -18,39 -20,64 0,118 -178,-195 -275,-197 -472,-197 -242,0 -472,-118 -669,-275 0,118 39,157 39,236 -79,-39 -118,-39 -197,-39 79,393 259,566 355,905 -197,-433 -276,-512 -670,-748 43,74 40,118 118,236 -82,-55 -183,-166 -277,-256 -272,398 -431,879 -431,1398 0,144 12,284 35,421 l 1185,-224 -315,394 1181,-552 0,237 788,-552 -906,788 0,-315 -1456,787 236,-433 -619,242 c 60,176 138,344 234,499 l 1290,-583 42,274 549,-432 -670,709 -39,-315 -973,628 c 176,214 388,399 626,544 125,-46 240,8 308,88 0,-236 -40,-355 -40,-473 79,118 158,158 237,315 0,-275 -237,-472 -40,-551 170,-68 315,-118 473,-236 -40,118 -79,118 -118,236 236,-197 314,-197 511,-354 20,37 -1,95 -18,133 136,-55 176,-212 451,-212 -18,21 -39,79 -39,118 98,-82 236,-118 354,-118 158,0 394,236 473,236 39,0 45,-13 79,-39 39,-30 118,-40 39,-118 -6,-6 -11,-11 -17,-17 z"
       id="path4015"
       inkscape:connector-curvature="0"
       style="fill:#000000" /><path
       class="fil3"
       d="m -2978,10730 c -7,80 -33,119 -81,115 l -164,-14 c -16,-1 -24,-11 -22,-30 1,-19 10,-27 27,-26 l 162,14 c 16,1 26,-19 29,-61 l 12,-138 c 1,-16 10,-23 27,-22 16,1 23,10 21,26 l -11,136 z"
       id="path4017"
       inkscape:connector-curvature="0"
       style="fill:#ffffff;fill-rule:nonzero" /><path
       id="1"
       class="fil3"
       d="m -3071,10457 34,-154 -17,-4 c -9,-2 -16,6 -20,24 l -19,87 c -6,27 -4,41 6,43 l 16,4 z m 61,-202 c 16,4 23,14 19,30 l -41,181 20,4 c 10,3 18,-10 24,-37 l 8,-35 c 3,-16 13,-22 28,-18 15,3 22,13 18,28 l -6,28 c -15,66 -44,95 -87,85 l -69,-16 c -43,-9 -57,-47 -42,-113 l 17,-73 c 12,-56 38,-80 76,-72 l 35,8 z"
       inkscape:connector-curvature="0"
       style="fill:#ffffff;fill-rule:nonzero" /><path
       id="2"
       class="fil3"
       d="m -2810,9974 c -29,75 -66,105 -110,88 l -154,-60 c -15,-6 -19,-17 -12,-35 6,-17 17,-23 33,-17 l 151,58 c 15,6 30,-10 45,-49 l 50,-130 c 6,-15 17,-19 33,-13 14,6 19,16 13,30 l -49,128 z"
       inkscape:connector-curvature="0"
       style="fill:#ffffff;fill-rule:nonzero" /><path
       id="3"
       class="fil3"
       d="m -2775,9552 c -10,-5 -21,3 -32,25 l -34,67 c -13,24 -13,40 -1,46 l 61,31 c 11,6 23,-4 35,-28 l 35,-67 c 11,-22 11,-35 0,-41 l -64,-33 z m 89,-15 c 39,20 44,59 14,115 l -30,60 c -30,58 -64,77 -103,57 l -62,-32 c -40,-21 -44,-60 -14,-119 l 30,-58 c 29,-57 63,-75 103,-55 l 62,32 z"
       inkscape:connector-curvature="0"
       style="fill:#ffffff;fill-rule:nonzero" /><path
       id="4"
       class="fil3"
       d="m -2506,9250 c 35,23 34,63 -2,121 l -31,48 c -37,58 -73,76 -109,53 l -100,-64 c -14,-8 -16,-20 -6,-35 9,-15 21,-18 35,-9 l 97,62 c 10,6 23,-3 39,-28 l 37,-58 c 16,-24 19,-40 9,-46 l -98,-62 c -14,-9 -15,-21 -6,-36 10,-15 21,-18 35,-9 l 100,63 z"
       inkscape:connector-curvature="0"
       style="fill:#ffffff;fill-rule:nonzero" /><path
       id="5"
       class="fil3"
       d="m -2392,8978 c -9,-7 -22,1 -39,23 l -46,58 c -16,21 -20,35 -11,43 l 71,55 76,-97 c 14,-17 16,-29 7,-37 l -58,-45 z m 91,3 c 34,27 32,65 -6,113 l -73,93 25,19 c 13,10 14,22 3,36 -11,14 -23,16 -36,6 l -135,-106 c -33,-26 -29,-64 11,-115 l 40,-50 c 42,-54 79,-68 111,-42 l 60,46 z"
       inkscape:connector-curvature="0"
       style="fill:#ffffff;fill-rule:nonzero" /><path
       id="6"
       class="fil3"
       d="m -2051,8569 c -10,-11 -27,-6 -51,15 l -110,98 107,120 110,-98 c 24,-21 30,-38 18,-51 l -74,-84 z m 118,49 c 32,36 22,77 -29,122 l -136,121 c -11,10 -21,9 -31,-2 l -142,-160 c -10,-11 -9,-21 1,-31 l 137,-121 c 51,-46 92,-51 122,-17 l 78,88 z"
       inkscape:connector-curvature="0"
       style="fill:#ffffff;fill-rule:nonzero" /><path
       id="7"
       class="fil3"
       d="m -1860,8500 130,-91 -10,-14 c -5,-8 -15,-6 -31,4 l -73,52 c -22,15 -31,27 -25,36 l 9,13 z m 182,-108 c 10,14 8,26 -6,35 l -152,107 11,16 c 6,8 20,4 43,-12 l 29,-21 c 14,-9 25,-7 34,6 9,13 7,24 -6,33 l -23,16 c -56,39 -97,41 -122,5 l -40,-58 c -25,-36 -10,-73 45,-112 l 62,-43 c 47,-33 82,-34 104,-1 l 21,29 z"
       inkscape:connector-curvature="0"
       style="fill:#ffffff;fill-rule:nonzero" /><path
       id="8"
       class="fil3"
       d="m -1386,8279 c 19,34 5,64 -41,90 l -122,70 c -14,8 -25,5 -32,-8 -8,-14 -5,-25 9,-33 l 127,-73 c 11,-6 15,-13 11,-20 l -4,-7 c -4,-7 -13,-6 -26,2 l -67,38 c -51,29 -85,27 -104,-6 l -6,-11 c -18,-31 -3,-61 45,-89 l 34,-19 c 14,-8 25,-5 33,9 8,13 5,24 -10,32 l -40,24 c -13,7 -18,14 -15,19 l 4,8 c 4,6 14,4 30,-5 l 68,-39 c 48,-28 81,-25 100,8 l 6,10 z"
       inkscape:connector-curvature="0"
       style="fill:#ffffff;fill-rule:nonzero" /><path
       id="9"
       class="fil3"
       d="m -1360,8071 c 7,15 0,27 -20,36 -19,9 -32,6 -39,-10 -7,-14 -1,-26 19,-35 19,-9 33,-6 40,9 z m 84,195 c 6,15 2,27 -14,34 -16,7 -28,4 -35,-11 l -57,-125 c -6,-15 -2,-26 14,-33 16,-7 28,-4 35,11 l 57,124 z"
       inkscape:connector-curvature="0"
       style="fill:#ffffff;fill-rule:nonzero" /><path
       id="10"
       class="fil3"
       d="m -1184,8083 c -23,9 -33,19 -28,30 l 42,106 c 6,15 1,26 -16,33 -17,6 -28,2 -34,-13 l -42,-107 c -16,-40 5,-72 63,-95 l 14,-6 c 15,-5 25,-1 30,14 6,15 3,25 -10,30 l -19,8 z"
       inkscape:connector-curvature="0"
       style="fill:#ffffff;fill-rule:nonzero" /><path
       id="11"
       class="fil3"
       d="m -1033,8059 149,-51 -5,-16 c -3,-9 -14,-11 -31,-5 l -85,29 c -26,9 -37,18 -34,28 l 6,15 z m 204,-53 c 5,16 0,27 -15,32 l -176,60 6,19 c 4,10 18,10 44,1 l 35,-12 c 15,-5 25,0 30,15 5,15 0,25 -15,30 l -26,9 c -65,22 -105,12 -119,-30 l -23,-66 c -14,-41 11,-73 75,-95 l 71,-24 c 55,-19 88,-10 101,27 l 12,34 z"
       inkscape:connector-curvature="0"
       style="fill:#ffffff;fill-rule:nonzero" /><path
       id="12"
       class="fil3"
       d="m -515,7987 c 9,38 -13,63 -65,75 l -136,31 c -16,4 -25,-2 -29,-17 -3,-16 3,-25 18,-29 l 143,-32 c 12,-3 18,-9 16,-16 l -2,-9 c -1,-7 -10,-9 -25,-5 l -75,17 c -57,13 -90,1 -98,-36 l -3,-12 c -8,-35 15,-59 70,-72 l 37,-8 c 16,-4 26,2 30,18 3,15 -3,24 -19,28 l -46,10 c -14,4 -21,9 -20,15 l 2,8 c 2,7 12,8 30,4 l 77,-18 c 53,-12 84,1 93,38 l 2,10 z"
       inkscape:connector-curvature="0"
       style="fill:#ffffff;fill-rule:nonzero" /><path
       id="13"
       class="fil3"
       d="m -420,8050 c -2,7 -4,12 -8,15 -4,4 -9,6 -13,6 -5,1 -9,0 -14,-3 -4,-4 -6,-8 -7,-12 l 0,-1 c 0,-1 0,-2 0,-2 l 3,-59 c 0,-3 1,-6 2,-9 1,-3 3,-5 5,-7 3,-2 5,-3 8,-5 2,-1 5,-2 7,-2 6,-1 12,0 16,3 4,2 7,6 7,12 0,1 1,2 1,3 0,1 0,2 -1,3 l -6,58 z"
       inkscape:connector-curvature="0"
       style="fill:#ffffff;fill-rule:nonzero" /><path
       id="14"
       class="fil3"
       d="m -114,8010 c -81,1 -121,-22 -122,-69 l -2,-165 c 0,-16 9,-25 28,-25 19,0 28,8 28,24 l 2,163 c 0,16 21,24 63,24 l 139,-2 c 16,0 24,8 24,25 0,15 -7,23 -23,23 l -137,2 z"
       inkscape:connector-curvature="0"
       style="fill:#ffffff;fill-rule:nonzero" /><path
       id="15"
       class="fil3"
       d="m 143,7886 158,13 1,-17 c 1,-10 -8,-15 -27,-17 l -88,-7 c -28,-2 -42,2 -43,12 l -1,16 z m 208,33 c -1,17 -10,24 -26,23 l -185,-15 -2,20 c -1,10 12,16 40,18 l 36,3 c 16,2 23,10 22,26 -1,16 -10,23 -26,21 l -28,-2 c -68,-6 -100,-30 -96,-74 l 6,-70 c 3,-44 39,-63 106,-58 l 75,6 c 57,5 84,27 81,66 l -3,36 z"
       inkscape:connector-curvature="0"
       style="fill:#ffffff;fill-rule:nonzero" /><path
       id="16"
       class="fil3"
       d="m 657,8079 c -78,-18 -112,-50 -102,-96 l 36,-161 c 4,-16 15,-22 33,-18 18,5 26,15 22,30 l -36,159 c -3,16 15,29 56,38 l 136,31 c 15,3 21,13 17,29 -3,16 -13,21 -28,18 l -134,-30 z"
       inkscape:connector-curvature="0"
       style="fill:#ffffff;fill-rule:nonzero" /><path
       id="17"
       class="fil3"
       d="m 1077,8059 c 4,-11 -6,-20 -29,-28 l -72,-24 c -25,-9 -40,-7 -44,6 l -22,65 c -4,12 7,22 33,31 l 71,24 c 23,7 37,5 41,-6 l 22,-68 z m 29,86 c -14,41 -51,51 -112,31 l -63,-21 c -62,-21 -86,-52 -72,-93 l 23,-66 c 14,-43 52,-53 115,-32 l 62,21 c 60,20 83,51 69,93 l -22,67 z"
       inkscape:connector-curvature="0"
       style="fill:#ffffff;fill-rule:nonzero" /><path
       id="18"
       class="fil3"
       d="m 1415,8284 c -17,39 -57,44 -120,15 l -52,-23 c -62,-29 -85,-62 -68,-100 l 49,-108 c 7,-15 18,-19 34,-12 16,7 21,19 14,34 l -48,105 c -5,11 6,23 34,35 l 62,28 c 27,12 42,13 47,3 l 48,-106 c 7,-15 18,-19 35,-11 16,7 20,18 14,33 l -49,107 z"
       inkscape:connector-curvature="0"
       style="fill:#ffffff;fill-rule:nonzero" /><path
       id="19"
       class="fil3"
       d="m 1700,8371 c 6,-10 -3,-22 -27,-37 l -61,-40 c -23,-14 -38,-16 -44,-7 l -48,76 104,66 c 18,12 31,13 37,3 l 39,-61 z m 6,90 c -23,37 -61,38 -113,5 l -99,-63 -16,27 c -9,14 -21,16 -36,6 -15,-9 -18,-21 -10,-35 l 93,-145 c 22,-35 61,-35 115,0 l 54,34 c 57,37 75,72 53,107 l -41,64 z"
       inkscape:connector-curvature="0"
       style="fill:#ffffff;fill-rule:nonzero" /><path
       id="20"
       class="fil3"
       d="m 1979,8607 89,77 15,-107 -104,30 z m 80,131 -131,-112 -63,17 c -5,2 -9,2 -13,0 -4,-1 -8,-3 -11,-5 -2,-3 -4,-5 -6,-9 -2,-3 -3,-6 -4,-10 0,-3 0,-7 1,-10 0,-3 2,-7 4,-9 4,-4 8,-7 13,-8 l 237,-67 c 7,-2 13,-2 19,0 6,1 12,4 16,7 5,4 8,9 10,15 3,6 3,12 2,19 l -28,244 0,0 c -1,6 -3,11 -6,15 -3,3 -5,5 -9,6 -3,1 -6,2 -10,2 -3,0 -6,-1 -10,-2 -3,-1 -6,-3 -9,-5 -3,-3 -6,-6 -7,-10 -2,-4 -3,-8 -2,-14 l 7,-64 z"
       inkscape:connector-curvature="0"
       style="fill:#ffffff;fill-rule:nonzero" /><path
       id="21"
       class="fil3"
       d="m 2270,8820 -95,91 c -12,11 -24,10 -36,-3 -12,-12 -12,-24 0,-36 l 95,-91 -4,-4 c -12,-12 -11,-23 0,-34 11,-11 23,-10 34,1 l 4,5 24,-23 c 12,-11 24,-11 36,2 12,13 12,25 1,36 l -24,23 38,41 c 11,11 11,22 0,33 -12,11 -23,11 -34,-1 l -39,-40 z"
       inkscape:connector-curvature="0"
       style="fill:#ffffff;fill-rule:nonzero" /><path
       id="22"
       class="fil3"
       d="m 2396,8956 -99,88 c -13,11 -25,10 -36,-3 -12,-13 -12,-25 1,-36 l 98,-88 -4,-5 c -10,-12 -10,-23 2,-34 12,-10 23,-9 34,3 l 4,4 25,-22 c 12,-10 24,-9 35,4 12,13 12,25 0,36 l -25,22 37,42 c 11,12 10,23 -2,33 -11,11 -23,10 -33,-2 l -37,-42 z"
       inkscape:connector-curvature="0"
       style="fill:#ffffff;fill-rule:nonzero" /><path
       id="23"
       class="fil3"
       d="m 2478,9109 93,128 14,-10 c 8,-6 7,-16 -4,-31 l -53,-73 c -16,-22 -28,-30 -37,-24 l -13,10 z m 111,179 c -14,10 -25,9 -35,-5 l -109,-150 -16,12 c -8,5 -4,19 12,42 l 21,29 c 10,13 8,24 -5,33 -13,10 -24,8 -33,-5 l -16,-23 c -41,-55 -43,-96 -7,-122 l 57,-41 c 36,-26 73,-11 113,44 l 44,61 c 34,46 35,81 3,104 l -29,21 z"
       inkscape:connector-curvature="0"
       style="fill:#ffffff;fill-rule:nonzero" /><path
       id="24"
       class="fil3"
       d="m 2762,9326 c -14,9 -27,5 -39,-14 -11,-17 -10,-31 4,-40 14,-9 27,-5 38,13 12,19 11,32 -3,41 z m -181,111 c -14,9 -25,6 -35,-9 -10,-14 -7,-26 6,-35 l 116,-74 c 13,-9 24,-6 34,8 10,15 8,27 -6,36 l -115,74 z"
       inkscape:connector-curvature="0"
       style="fill:#ffffff;fill-rule:nonzero" /><path
       id="25"
       class="fil3"
       d="m 2735,9722 c -14,8 -26,4 -34,-12 -8,-15 -5,-27 9,-35 l 102,-54 c 10,-5 10,-18 -1,-39 l -39,-73 c -11,-21 -22,-29 -32,-24 l -101,54 c -15,8 -27,4 -35,-11 -8,-17 -5,-28 10,-36 l 105,-56 c 36,-19 69,1 99,59 l 30,56 c 31,58 29,96 -6,115 l -107,56 z"
       inkscape:connector-curvature="0"
       style="fill:#ffffff;fill-rule:nonzero" /><path
       id="26"
       class="fil3"
       d="m 2964,9936 -43,-112 c -10,-25 -22,-35 -36,-30 l -60,24 c -13,5 -14,19 -4,44 l 28,71 c 11,28 22,39 35,34 l 80,-31 z m -65,82 c -39,15 -72,-9 -97,-73 l -22,-57 c -25,-63 -19,-102 18,-117 l 71,-27 c 41,-17 74,7 99,70 l 41,104 31,-12 c 16,-6 26,-1 33,15 6,16 2,28 -13,34 l -161,63 z"
       inkscape:connector-curvature="0"
       style="fill:#ffffff;fill-rule:nonzero" /><path
       id="27"
       class="fil3"
       d="m 3032,10150 c -7,-24 -16,-34 -28,-30 l -109,32 c -16,4 -26,-2 -32,-19 -5,-18 1,-29 17,-33 l 109,-32 c 42,-13 71,12 89,72 l 4,15 c 5,14 -1,24 -16,28 -15,5 -25,0 -28,-13 l -6,-20 z"
       inkscape:connector-curvature="0"
       style="fill:#ffffff;fill-rule:nonzero" /><path
       id="28"
       class="fil3"
       d="m 3043,10312 25,156 17,-2 c 10,-2 13,-12 10,-30 l -14,-88 c -4,-27 -12,-40 -22,-38 l -16,2 z m 18,210 c -17,3 -26,-4 -29,-20 l -29,-184 -20,4 c -10,1 -12,16 -8,43 l 6,36 c 2,16 -4,25 -20,27 -16,3 -25,-4 -27,-20 l -5,-27 c -10,-68 6,-106 50,-112 l 69,-12 c 43,-7 70,24 81,91 l 12,74 c 9,57 -6,89 -44,95 l -36,5 z"
       inkscape:connector-curvature="0"
       style="fill:#ffffff;fill-rule:nonzero" /><path
       id="29"
       class="fil3"
       d="m 3048,10831 c -38,3 -60,-22 -64,-75 l -11,-139 c -2,-17 5,-25 21,-26 16,-2 25,6 26,22 l 12,145 c 1,13 5,20 13,19 l 9,-1 c 7,0 10,-9 9,-24 l -6,-77 c -5,-58 11,-88 49,-92 l 12,-1 c 36,-3 57,24 61,79 l 3,39 c 2,16 -6,25 -21,26 -16,2 -24,-6 -26,-22 l -4,-47 c -1,-15 -5,-22 -11,-22 l -9,1 c -6,1 -9,10 -8,29 l 7,79 c 4,54 -13,83 -51,86 l -11,1 z"
       inkscape:connector-curvature="0"
       style="fill:#ffffff;fill-rule:nonzero" /><circle
       class="fil4"
       cy="11000"
       r="3543"
       id="circle4048"
       cx="0"
       style="fill:none" /><circle
       class="fil4"
       cy="11000"
       r="3543"
       id="circle4050"
       cx="0"
       style="fill:none" /><path
       class="fil3"
       d="m -3255,12135 424,-168 24,60 -377,149 75,190 -48,19 -98,-250 z m 273,510 c 15,25 33,47 54,66 22,18 45,32 72,42 26,9 51,13 77,11 25,-1 48,-9 70,-21 23,-13 41,-30 55,-51 15,-21 25,-45 30,-72 5,-27 4,-55 -1,-83 -5,-27 -15,-54 -30,-80 -14,-26 -33,-48 -54,-67 -22,-19 -45,-32 -71,-41 -26,-10 -52,-14 -77,-12 -26,2 -49,9 -72,22 -22,13 -40,29 -54,50 -14,21 -23,45 -29,72 -5,28 -5,56 0,84 5,27 15,54 30,80 z m 307,156 c -29,16 -59,26 -91,28 -32,2 -65,-4 -98,-16 -33,-13 -63,-31 -92,-56 -28,-25 -51,-54 -70,-87 -19,-33 -32,-68 -39,-104 -7,-37 -8,-73 -2,-108 6,-35 18,-66 36,-93 18,-27 41,-48 69,-64 28,-17 59,-26 91,-28 32,-1 65,4 99,16 32,13 63,31 91,56 28,25 51,54 70,87 19,33 32,68 40,105 7,37 8,72 2,107 -6,35 -18,66 -36,92 -18,27 -42,49 -70,65 z m 224,-86 40,51 -224,176 c -36,28 -56,58 -58,90 -3,32 11,67 42,106 31,39 62,61 93,66 31,5 65,-7 101,-36 l 224,-175 40,51 -223,176 c -49,38 -96,53 -142,44 -45,-8 -90,-40 -133,-95 -43,-55 -63,-105 -61,-152 3,-46 29,-88 77,-126 l 224,-176 z m 179,594 -141,148 -45,-43 315,-331 82,78 c 28,28 48,49 59,64 11,16 19,31 23,47 6,19 6,39 0,58 -5,20 -15,38 -31,54 -15,16 -32,27 -52,34 -19,6 -39,7 -59,3 -15,-4 -31,-11 -47,-21 -16,-10 -38,-29 -67,-56 l -13,-13 -24,-22 z m 34,-36 24,23 c 40,37 70,59 92,64 21,6 41,-2 60,-21 20,-21 27,-43 21,-65 -6,-22 -29,-52 -68,-89 l -23,-22 -106,110 z m 616,498 187,120 -8,13 c -39,60 -89,95 -152,104 -63,9 -130,-9 -200,-54 -22,-13 -41,-28 -58,-44 -17,-17 -31,-34 -43,-52 -26,-41 -39,-83 -40,-127 -1,-43 11,-84 36,-123 21,-32 45,-58 74,-76 29,-18 61,-29 98,-33 31,-3 63,0 96,9 32,9 65,24 98,45 44,28 77,58 101,92 23,34 37,72 41,112 l -65,2 c -2,-34 -11,-65 -28,-92 -17,-27 -41,-51 -74,-72 -52,-33 -105,-46 -157,-37 -52,9 -94,38 -125,87 -30,46 -37,94 -22,145 14,51 47,93 99,126 46,29 91,42 136,38 46,-4 82,-24 109,-59 l -129,-83 26,-41 z m 440,84 -141,126 159,62 -18,-188 z m 44,-111 55,531 -65,-25 -14,-156 -196,-77 -117,105 -64,-26 401,-352 z m 109,545 125,-440 122,35 c 34,10 59,19 75,26 15,8 28,18 38,30 12,14 20,31 24,51 4,19 2,39 -3,60 -11,36 -30,60 -59,72 -29,12 -67,12 -113,-1 l -11,-3 139,265 -78,-22 -130,-263 -9,-3 -59,210 -61,-17 z m 172,-378 -41,147 47,13 c 48,14 82,18 101,12 20,-6 33,-22 40,-49 8,-28 6,-50 -8,-66 -14,-16 -44,-31 -92,-44 l -47,-13 z m 486,474 c 29,4 58,3 85,-3 28,-6 54,-17 77,-32 23,-15 42,-33 56,-54 14,-21 22,-44 26,-69 3,-26 0,-51 -8,-75 -8,-24 -21,-47 -40,-67 -18,-20 -40,-37 -66,-49 -25,-13 -52,-21 -82,-25 -29,-4 -58,-3 -86,3 -28,6 -53,16 -76,31 -23,16 -42,34 -56,55 -13,21 -22,45 -25,70 -4,25 -1,50 7,73 8,24 21,46 40,67 19,21 41,38 66,51 25,12 53,21 82,24 z m 310,-150 c -4,33 -15,62 -33,89 -18,27 -41,50 -71,68 -30,19 -64,32 -101,40 -36,8 -74,9 -111,4 -38,-5 -74,-16 -107,-32 -34,-17 -63,-38 -87,-64 -24,-26 -42,-54 -52,-84 -11,-31 -14,-62 -10,-94 4,-33 15,-62 33,-89 18,-27 42,-50 72,-69 30,-19 63,-32 100,-39 37,-8 74,-9 112,-4 38,5 74,15 107,32 34,16 63,37 87,63 24,26 41,54 52,84 10,31 13,62 9,95 z m 41,-238 65,-5 22,284 c 3,46 17,79 42,98 25,20 62,28 112,25 49,-4 85,-18 106,-41 22,-23 31,-58 27,-104 l -21,-284 65,-5 21,284 c 5,62 -9,109 -41,142 -33,33 -84,53 -154,58 -69,5 -123,-6 -160,-34 -37,-28 -57,-73 -62,-134 l -22,-284 z m 798,363 -125,-439 122,-35 c 34,-10 60,-15 77,-17 17,-1 33,1 48,5 18,6 34,16 47,31 14,14 23,32 29,53 11,36 7,67 -12,92 -18,26 -50,45 -96,58 l -11,3 258,153 -79,22 -249,-155 -9,2 60,210 -60,17 z m -53,-412 42,147 47,-14 c 49,-13 79,-28 93,-43 13,-15 16,-36 9,-62 -8,-28 -22,-45 -42,-52 -21,-7 -54,-3 -102,10 l -47,14 z m 440,296 -168,-425 265,-105 18,47 -205,81 48,122 205,-81 19,47 -206,81 65,162 205,-81 18,47 -264,105 z m -100,-501 30,-128 69,-28 -58,140 -41,16 z m 604,-1 193,-111 8,13 c 36,63 43,124 22,184 -21,60 -68,111 -140,152 -23,13 -45,23 -67,30 -22,8 -44,12 -65,14 -49,5 -92,-3 -131,-23 -39,-19 -70,-49 -93,-89 -19,-33 -30,-66 -33,-100 -2,-34 3,-68 17,-103 11,-29 28,-56 51,-80 23,-25 51,-47 85,-67 45,-25 88,-41 129,-46 41,-5 81,0 118,15 l -28,59 c -31,-15 -62,-21 -94,-18 -32,2 -65,13 -98,32 -55,31 -90,72 -106,122 -16,51 -10,101 19,151 27,48 67,77 118,87 52,11 105,1 158,-30 47,-26 79,-61 97,-103 17,-42 16,-83 -2,-124 l -134,77 -24,-42 z m 382,27 -282,-360 50,-40 282,360 -50,40 z m 351,-276 -348,-122 166,271 -46,44 -248,-419 397,143 -124,-404 407,268 -46,43 -263,-177 105,353 z m 248,-292 -358,-283 176,-224 39,31 -136,173 102,81 137,-172 40,31 -137,173 137,108 137,-172 40,31 -177,223 z m 238,-314 -412,-236 513,-161 -300,-172 30,-53 412,236 -510,163 297,170 -30,53 z m 309,-604 -377,-148 -56,142 -48,-19 135,-343 48,19 -55,141 377,148 -24,60 z"
       id="path4052"
       inkscape:connector-curvature="0"
       style="fill:#ffffff;fill-rule:nonzero" /></g></svg>