<?xml version="1.0" encoding="UTF-8" standalone="no"?>
<!-- Creator: CorelDRAW X7 -->

<svg
   xmlns:dc="http://purl.org/dc/elements/1.1/"
   xmlns:cc="http://creativecommons.org/ns#"
   xmlns:rdf="http://www.w3.org/1999/02/22-rdf-syntax-ns#"
   xmlns:svg="http://www.w3.org/2000/svg"
   xmlns="http://www.w3.org/2000/svg"
   xmlns:sodipodi="http://sodipodi.sourceforge.net/DTD/sodipodi-0.dtd"
   xmlns:inkscape="http://www.inkscape.org/namespaces/inkscape"
   xml:space="preserve"
   width="7.8740005in"
   height="7.8740005in"
   version="1.1"
   style="clip-rule:evenodd;fill-rule:evenodd;image-rendering:optimizeQuality;shape-rendering:geometricPrecision;text-rendering:geometricPrecision"
   viewBox="0 0 7874.0005 7874.0005"
   id="svg4214"
   inkscape:version="0.91 r13725"
   sodipodi:docname="Ariadna - Para-Commandos - [N3] [Vyo].svg"><metadata
     id="metadata4240"><rdf:RDF><cc:Work
         rdf:about=""><dc:format>image/svg+xml</dc:format><dc:type
           rdf:resource="http://purl.org/dc/dcmitype/StillImage" /></cc:Work></rdf:RDF></metadata><sodipodi:namedview
     pagecolor="#ffffff"
     bordercolor="#666666"
     borderopacity="1"
     objecttolerance="10"
     gridtolerance="10"
     guidetolerance="10"
     inkscape:pageopacity="0"
     inkscape:pageshadow="2"
     inkscape:window-width="640"
     inkscape:window-height="480"
     id="namedview4238"
     showgrid="false"
     inkscape:zoom="0.23838384"
     inkscape:cx="736.83001"
     inkscape:cy="849.33005"
     inkscape:window-x="0"
     inkscape:window-y="0"
     inkscape:window-maximized="0"
     inkscape:current-layer="svg4214" /><defs
     id="defs4216"><style
       type="text/css"
       id="style4218"><![CDATA[
    .fil3 {fill:none}
    .fil1 {fill:black}
    .fil0 {fill:#E32527}
    .fil2 {fill:white;fill-rule:nonzero}
   ]]></style></defs><g
     id="Layer_x0020_1"
     transform="translate(3937,-7063)"><metadata
       id="CorelCorpID_0Corel-Layer" /><circle
       class="fil0"
       cy="11000"
       r="3937"
       id="circle4222"
       cx="0"
       style="fill:#e32527" /><circle
       class="fil1"
       cy="11000"
       r="3858"
       id="circle4224"
       cx="0"
       style="fill:#000000" /><circle
       class="fil0"
       cy="11000"
       r="2598"
       id="circle4226"
       cx="0"
       style="fill:#e32527" /><path
       class="fil2"
       d="m -2816,9723 c -17,-7 -33,8 -47,44 l -68,179 98,37 66,-176 c 15,-38 13,-61 -6,-68 l -43,-16 z m 74,-48 c 58,22 71,76 39,162 l -65,171 86,33 c 22,8 29,23 20,45 -8,23 -23,30 -45,22 l -286,-108 c -19,-8 -26,-20 -19,-38 l 82,-214 c 31,-84 76,-116 132,-94 l 56,21 z m 181,-387 c -18,-12 -39,-1 -61,34 l -100,155 80,52 104,-162 c 20,-31 22,-50 8,-59 l -31,-20 z m 70,-41 c 53,35 56,88 10,161 l -27,42 129,-79 c 7,-3 14,-5 21,-4 6,0 12,2 17,6 4,2 8,5 11,9 3,4 5,8 7,13 1,4 2,9 1,13 0,5 -1,9 -4,13 -3,4 -7,7 -11,10 l 0,0 -247,135 86,55 c 20,13 24,29 11,49 -13,21 -30,25 -50,12 l -256,-165 c -18,-11 -22,-25 -12,-40 l 120,-187 c 51,-79 105,-100 162,-63 l 32,20 z m 105,-127 171,-192 c 13,-15 28,-14 45,1 18,16 20,31 7,45 l -170,192 34,30 c 16,15 38,7 65,-24 l 130,-146 c 13,-14 28,-14 45,2 18,15 20,30 7,45 l -131,147 c -58,66 -111,77 -160,34 l -130,-116 c -24,-21 -35,-46 -33,-74 3,-28 19,-59 50,-93 l 35,-40 c 13,-15 28,-14 46,2 17,15 19,30 7,44 l -25,28 c -36,40 -46,68 -29,82 l 36,33 z m 617,-457 c 48,54 31,117 -51,189 l -51,46 c -78,69 -141,76 -189,22 l -151,-171 c -16,-17 -14,-34 4,-50 18,-16 34,-15 50,3 l 146,165 c 20,23 50,17 88,-17 l 63,-55 c 42,-38 53,-68 33,-91 l -147,-165 c -15,-17 -14,-34 5,-50 17,-16 33,-15 49,3 l 151,171 z m 213,-175 -39,182 c -1,5 -3,9 -5,12 -2,3 -5,6 -8,8 -4,3 -9,4 -14,5 -4,1 -9,1 -14,0 -5,-1 -9,-3 -13,-5 -4,-3 -8,-6 -10,-10 -5,-7 -6,-15 -4,-25 l 43,-179 -177,-33 c -6,-1 -11,-3 -15,-5 -4,-3 -7,-6 -10,-10 -3,-4 -4,-9 -5,-14 -1,-4 -1,-9 0,-13 1,-5 3,-9 5,-13 3,-4 6,-7 10,-10 3,-2 7,-3 11,-4 4,-1 8,-1 13,0 l 183,39 39,-182 c 1,-5 2,-9 5,-13 2,-3 5,-6 9,-8 4,-2 8,-4 12,-5 5,0 9,0 14,1 4,0 9,2 13,5 4,2 7,6 9,9 3,4 5,9 6,14 0,5 0,10 -1,16 l -43,175 181,32 c 5,1 10,3 14,6 3,2 6,5 8,8 3,4 4,8 5,13 1,5 0,10 -1,14 -1,5 -3,9 -6,13 -3,5 -6,8 -10,10 -3,2 -6,4 -10,5 -4,1 -8,1 -13,0 l -182,-38 z m 451,-318 244,-81 c 18,-6 31,2 38,24 7,22 2,36 -16,42 l -244,81 14,44 c 7,20 30,24 70,11 l 184,-61 c 19,-6 32,2 39,24 8,22 2,36 -16,42 l -187,62 c -84,28 -136,11 -156,-50 l -55,-165 c -10,-31 -7,-58 9,-81 16,-23 46,-42 89,-56 l 51,-17 c 18,-6 31,2 39,24 7,22 1,36 -17,42 l -35,12 c -51,17 -73,36 -66,56 l 15,47 z m 449,-217 60,259 c 5,23 -4,37 -27,43 -24,5 -38,-4 -43,-26 l -60,-260 -110,25 c -20,5 -32,-4 -38,-28 -5,-22 3,-35 22,-40 l 291,-67 c 19,-4 31,5 36,27 5,23 -1,37 -21,41 l -110,26 z m 542,73 152,-1 -76,-130 -76,131 z m 188,66 -221,2 -46,79 c -3,6 -8,10 -13,13 -5,2 -10,3 -15,3 -4,0 -8,0 -13,-2 -4,-2 -8,-5 -12,-8 -4,-3 -6,-7 -8,-11 -3,-5 -4,-10 -4,-15 0,-7 2,-14 6,-21 l 172,-294 c 5,-9 11,-15 18,-19 7,-5 15,-7 22,-7 8,0 15,2 22,6 7,4 13,10 18,19 l 180,289 0,0 c 5,7 7,14 7,21 0,6 -1,11 -3,15 -2,5 -5,8 -8,12 -3,3 -7,5 -11,7 -5,2 -9,3 -14,3 -5,0 -11,-1 -15,-4 -5,-2 -9,-6 -13,-12 l -49,-76 z m 576,51 c -12,72 -72,99 -179,81 l -68,-11 C 300,8196 255,8152 266,8080 l 38,-225 c 3,-23 17,-33 41,-29 23,4 33,18 30,41 l -36,218 c -5,30 18,49 69,57 l 82,14 c 55,9 86,-1 91,-32 l 36,-217 c 3,-23 17,-33 41,-29 23,4 33,17 29,40 l -37,225 z m 457,-23 c 7,-21 -8,-38 -47,-51 l -179,-61 -74,218 178,61 c 39,13 63,7 71,-16 l 51,-151 z m 16,178 c -22,65 -75,84 -159,55 l -221,-75 c -17,-6 -23,-19 -16,-39 l 99,-290 c 6,-20 19,-27 36,-21 l 222,75 c 83,28 114,74 93,136 l -54,159 z m 231,50 132,75 0,-151 -132,76 z m 130,151 -193,-110 -79,45 c -6,3 -12,5 -17,4 -6,0 -11,-1 -15,-4 -4,-2 -7,-5 -10,-9 -3,-4 -5,-8 -7,-12 -1,-5 -2,-10 -1,-15 0,-5 2,-9 4,-14 4,-6 9,-11 15,-15 l 298,-167 c 9,-5 17,-8 25,-8 8,0 16,2 22,6 7,4 12,9 16,16 4,7 7,15 7,25 l 9,341 0,0 c 0,8 -1,16 -5,22 -3,5 -6,8 -10,11 -4,3 -8,5 -13,6 -4,1 -9,1 -14,1 -4,-1 -8,-2 -12,-5 -5,-2 -9,-6 -12,-11 -3,-4 -5,-10 -5,-17 l -3,-90 z m 400,17 c -33,-27 -56,-33 -68,-18 l -104,130 c -15,18 -4,42 33,72 l 131,106 c 15,12 16,27 1,45 -15,19 -30,22 -45,9 l -136,-110 c -71,-57 -85,-112 -43,-164 l 110,-136 c 39,-49 94,-45 164,11 l 137,111 c 16,13 17,28 2,46 -15,18 -30,21 -46,9 l -136,-111 z m 96,435 c -16,17 -32,18 -50,1 -17,-16 -18,-33 -2,-50 l 208,-221 c 16,-17 33,-17 51,0 17,16 17,33 1,50 l -208,220 z m 252,-8 170,193 c 13,14 11,29 -7,45 -17,15 -33,15 -45,1 l -170,-192 -35,30 c -16,14 -10,37 17,68 l 129,146 c 13,15 11,30 -7,45 -17,16 -32,16 -45,1 l -131,-147 c -58,-66 -63,-120 -15,-163 l 131,-115 c 24,-22 50,-30 78,-24 27,6 56,26 86,60 l 36,40 c 12,15 10,30 -8,45 -17,16 -32,16 -45,2 l -24,-28 c -36,-40 -62,-54 -78,-39 l -37,32 z m 363,683 c -61,40 -121,14 -180,-78 l -38,-57 c -56,-87 -55,-151 6,-190 l 191,-125 c 20,-12 36,-9 49,11 13,20 10,37 -9,50 l -185,120 c -26,17 -25,47 3,90 l 46,70 c 31,47 59,62 84,46 l 185,-121 c 20,-13 36,-9 50,12 12,19 9,35 -11,48 l -191,124 z m 140,245 -172,-73 c -4,-2 -8,-5 -10,-8 -3,-2 -5,-6 -6,-9 -2,-5 -3,-9 -3,-14 1,-5 1,-10 3,-14 2,-5 5,-9 8,-12 3,-4 7,-6 11,-8 8,-3 16,-3 25,1 l 168,77 66,-168 c 2,-5 5,-10 9,-13 3,-3 7,-6 11,-8 5,-2 9,-2 14,-2 5,0 9,1 14,3 4,2 8,4 11,7 4,3 6,7 8,11 1,4 2,8 2,12 0,4 -1,9 -3,13 l -74,172 172,73 c 4,2 8,5 11,8 3,3 5,6 7,10 1,4 2,9 2,13 0,5 -1,9 -3,13 -2,5 -5,9 -8,12 -3,3 -7,6 -11,8 -4,1 -9,2 -14,2 -5,0 -10,-1 -16,-4 l -163,-76 -67,171 c -2,6 -5,10 -8,13 -3,3 -7,5 -10,7 -4,2 -9,2 -14,2 -5,-1 -9,-2 -14,-4 -4,-2 -8,-4 -11,-8 -4,-4 -6,-8 -8,-12 -1,-3 -2,-7 -2,-11 -1,-4 0,-8 2,-12 l 73,-172 z"
       id="path4228"
       inkscape:connector-curvature="0"
       style="fill:#ffffff;fill-rule:nonzero" /><circle
       class="fil3"
       cy="11000"
       r="3543"
       id="circle4230"
       cx="0"
       style="fill:none" /><circle
       class="fil3"
       cy="11000"
       r="3543"
       id="circle4232"
       cx="0"
       style="fill:none" /><path
       class="fil2"
       d="m -3224,11162 369,-28 -7,-83 46,24 7,103 -411,31 -4,-47 z m 202,383 c 23,-5 39,-14 50,-29 11,-15 14,-34 11,-58 -3,-21 -11,-37 -26,-50 -15,-12 -33,-18 -55,-17 l 20,154 z m -29,51 -27,-200 -4,0 c -28,4 -49,15 -64,32 -15,18 -21,39 -17,64 2,17 8,32 20,44 11,12 26,23 46,31 l -18,35 c -25,-9 -45,-23 -59,-41 -14,-18 -23,-40 -27,-66 -5,-39 4,-72 27,-99 23,-27 55,-43 97,-49 41,-5 76,2 105,22 28,21 45,49 50,86 5,37 -3,69 -25,94 -21,25 -53,40 -96,46 l -8,1 z m -105,80 254,-58 8,37 -53,13 c 25,6 44,14 56,25 12,11 21,25 25,44 1,5 2,10 2,15 0,5 0,10 0,15 l -43,-5 c 1,-6 1,-10 1,-15 0,-5 -1,-9 -2,-13 -5,-22 -17,-37 -36,-44 -20,-8 -46,-8 -79,0 l -124,28 -9,-42 z m 94,361 387,-155 35,89 c 11,25 17,44 18,57 2,13 1,25 -2,37 -5,15 -13,29 -26,41 -12,12 -28,22 -46,29 -32,13 -59,14 -83,3 -23,-11 -42,-33 -55,-66 l -3,-8 -127,218 -23,-57 129,-212 -2,-6 -185,74 -17,-44 z m 365,-96 -129,52 14,34 c 14,36 28,57 42,65 14,9 32,8 56,-1 24,-10 39,-23 44,-39 5,-17 1,-42 -13,-76 l -14,-35 z m -254,380 370,-193 99,190 -40,22 -77,-148 -106,55 77,148 -41,21 -77,-147 -141,74 77,147 -41,22 -100,-191 z m 439,-151 114,4 26,50 -125,-24 -15,-30 z m -2,488 91,141 -12,8 c -55,36 -108,48 -160,38 -51,-10 -94,-41 -128,-94 -11,-16 -19,-33 -25,-49 -6,-17 -9,-34 -11,-51 -2,-38 6,-74 24,-107 18,-33 45,-61 80,-84 29,-19 59,-31 88,-37 29,-6 59,-6 89,1 25,6 48,16 68,32 21,15 40,35 56,60 21,33 33,66 37,98 3,32 -2,64 -17,95 l -50,-16 c 14,-26 20,-51 18,-77 -1,-25 -9,-50 -25,-74 -26,-40 -60,-63 -104,-70 -43,-7 -87,3 -132,32 -41,27 -68,62 -78,104 -11,43 -3,83 22,122 22,35 51,56 87,66 36,9 72,3 108,-16 l -63,-98 37,-24 z m -41,313 328,-258 30,38 -329,258 -29,-38 z m 207,266 129,-298 -240,159 -33,-34 370,-241 -150,342 347,-136 -255,360 -33,-35 169,-233 -304,116 z m 220,188 274,-314 162,142 -30,34 -125,-110 -79,90 125,110 -30,35 -125,-110 -105,120 125,110 -31,35 -161,-142 z m 228,191 232,-366 73,441 170,-267 39,25 -232,365 -75,-438 -168,265 -39,-25 z m 440,263 168,-330 -103,-52 22,-42 248,126 -21,42 -102,-52 -168,330 -44,-22 z m 411,131 29,9 c 49,13 83,20 102,21 20,1 38,-2 53,-9 20,-9 37,-23 52,-43 14,-19 25,-43 33,-71 8,-28 11,-54 8,-77 -2,-24 -10,-45 -22,-63 -9,-14 -23,-26 -41,-36 -17,-10 -50,-21 -97,-35 l -30,-8 -87,312 z m -60,32 112,-401 75,21 c 56,15 95,29 116,41 21,12 38,27 52,46 17,24 28,51 32,82 4,31 1,64 -9,101 -10,35 -25,65 -44,90 -19,24 -43,42 -70,53 -21,9 -44,13 -67,13 -24,0 -59,-7 -105,-20 l -17,-5 -75,-21 z m 399,110 71,-411 212,37 -8,45 -164,-29 -21,118 164,28 -7,46 -164,-29 -28,158 164,28 -8,46 -211,-37 z m 521,-118 -14,187 -47,-4 32,-415 85,6 c 30,2 52,6 65,10 14,4 26,10 36,19 12,10 21,24 27,41 6,17 9,35 7,55 -1,20 -7,38 -15,54 -9,16 -20,28 -33,37 -11,7 -24,11 -38,13 -14,2 -37,2 -67,0 l -13,-1 -25,-2 z m 4,-45 24,2 c 42,3 70,1 85,-8 15,-9 24,-26 26,-51 2,-26 -4,-45 -18,-57 -14,-12 -42,-20 -82,-23 l -25,-2 -10,139 z m 315,-88 -61,154 129,-2 -68,-152 z m -2,-110 194,430 -52,1 -56,-127 -159,3 -50,129 -53,1 176,-437 z m 236,416 -55,-413 95,-13 c 27,-4 47,-5 60,-3 13,1 25,5 36,11 13,8 24,20 33,35 8,15 14,33 17,52 4,34 -2,61 -18,81 -16,20 -42,33 -78,37 l -8,2 180,176 -61,8 -174,-177 -6,1 26,197 -47,6 z m -2,-378 18,138 36,-5 c 38,-5 63,-13 74,-24 11,-12 15,-30 12,-55 -3,-26 -12,-44 -27,-53 -14,-9 -40,-11 -77,-6 l -36,5 z m 367,-17 -20,165 125,-35 -105,-130 z m -30,-105 298,365 -51,15 -86,-109 -153,44 -15,138 -51,14 58,-467 z m 281,209 123,-41 14,43 -123,40 -14,-42 z m 433,-360 c -27,-12 -52,-18 -77,-18 -24,-1 -48,5 -73,16 -19,9 -37,21 -52,38 -15,17 -26,35 -33,56 -7,22 -10,43 -9,65 1,22 7,44 17,66 8,18 18,33 29,46 11,13 23,24 37,33 25,15 51,23 78,25 27,2 53,-3 78,-14 24,-11 43,-26 59,-45 16,-19 28,-43 35,-70 l 28,60 c -13,22 -28,41 -46,58 -18,16 -38,30 -61,40 -20,9 -40,14 -62,17 -21,2 -42,1 -64,-3 -35,-7 -67,-21 -94,-42 -27,-22 -48,-50 -63,-83 -13,-29 -20,-58 -22,-86 -1,-29 4,-57 15,-85 10,-28 25,-51 44,-71 19,-20 42,-36 69,-48 21,-10 44,-16 67,-18 23,-2 47,-1 73,4 l 27,59 z m 349,106 c 18,-12 34,-27 46,-46 12,-18 21,-38 25,-61 5,-22 5,-44 1,-66 -4,-22 -13,-43 -25,-62 -13,-20 -28,-36 -47,-50 -18,-13 -39,-22 -61,-27 -22,-5 -44,-6 -65,-2 -22,4 -42,12 -61,24 -19,12 -35,28 -47,46 -13,18 -21,38 -25,60 -5,23 -5,45 0,67 4,22 12,43 25,63 13,19 28,35 46,48 18,13 38,22 61,27 23,5 45,6 66,3 22,-4 42,-12 61,-24 z m 90,-263 c 16,25 26,52 32,80 5,28 4,56 -2,84 -6,29 -17,55 -34,79 -16,24 -37,43 -61,59 -24,16 -50,26 -79,31 -28,5 -57,5 -85,-1 -29,-6 -55,-18 -78,-34 -24,-16 -44,-37 -60,-62 -16,-25 -26,-51 -32,-80 -5,-28 -4,-56 2,-85 6,-28 17,-54 34,-78 16,-23 37,-43 61,-59 24,-15 51,-26 79,-31 29,-5 57,-5 85,1 29,6 55,17 78,34 23,16 43,37 60,62 z m 325,8 -292,-144 146,247 -35,31 -221,-382 333,168 -117,-354 346,274 -36,31 -224,-181 100,310 z m 331,-349 -314,-87 190,216 -29,38 -288,-335 359,103 -182,-326 391,205 -29,37 -254,-136 156,285 z m -43,-522 94,137 70,-109 -164,-28 z m -93,-58 465,76 -28,44 -136,-24 -86,134 80,114 -28,44 -267,-388 z m 485,38 -394,-180 427,-133 -288,-131 19,-43 394,180 -424,135 286,130 -20,42 z m 147,-467 10,-29 c 16,-48 25,-81 27,-101 2,-20 0,-37 -6,-53 -8,-20 -21,-38 -39,-54 -19,-15 -42,-28 -69,-37 -28,-10 -54,-14 -77,-13 -24,1 -46,7 -65,19 -14,8 -27,21 -38,38 -11,17 -24,49 -40,96 l -10,29 307,105 z m 28,61 -394,-134 25,-75 c 19,-54 35,-92 48,-112 13,-21 30,-37 49,-50 25,-16 53,-25 84,-27 31,-2 64,3 99,15 36,12 65,28 88,49 23,20 40,45 50,73 7,21 10,44 8,67 -1,24 -10,58 -26,104 l -5,16 -26,74 z m 119,-597 c 4,-22 4,-44 -1,-65 -5,-22 -15,-42 -28,-60 -14,-19 -30,-34 -49,-46 -19,-12 -40,-19 -63,-23 -23,-4 -45,-4 -67,1 -23,4 -43,13 -62,26 -18,13 -34,29 -46,47 -12,18 -19,39 -23,61 -4,22 -4,44 1,65 5,22 15,41 28,60 14,18 30,33 49,45 19,12 40,20 63,24 23,4 45,3 67,-1 22,-5 42,-14 61,-27 20,-13 35,-29 47,-47 12,-18 20,-38 23,-60 z m -132,-244 c 30,5 56,15 80,30 25,15 45,34 62,58 16,24 28,50 34,78 7,29 7,57 2,86 -4,28 -15,54 -30,79 -16,24 -35,45 -59,61 -24,17 -50,29 -78,35 -28,6 -56,7 -85,2 -30,-5 -56,-15 -81,-31 -24,-15 -45,-35 -61,-59 -17,-23 -28,-49 -35,-77 -6,-29 -7,-57 -2,-85 5,-29 16,-55 31,-80 15,-24 35,-45 58,-62 24,-17 50,-28 78,-34 28,-6 57,-7 86,-1 z m -24,-198 c 12,-27 28,-46 48,-59 19,-14 42,-20 68,-19 38,1 69,13 92,37 23,25 34,57 33,96 0,32 -9,59 -27,80 -17,22 -41,36 -72,43 l -21,-45 c 25,-5 44,-15 58,-28 13,-13 20,-30 20,-51 1,-24 -6,-44 -20,-59 -14,-16 -33,-24 -56,-24 -18,0 -34,4 -48,15 -14,10 -26,25 -36,46 l -23,50 c -12,26 -27,46 -46,59 -18,13 -40,19 -66,19 -29,-1 -54,-12 -73,-34 -19,-22 -28,-50 -27,-83 0,-24 6,-46 17,-63 11,-18 27,-32 48,-41 l 26,40 c -17,9 -29,19 -37,30 -8,11 -12,24 -13,38 0,19 5,34 16,46 12,11 26,17 44,18 14,0 27,-4 38,-13 11,-8 21,-22 30,-41 l 27,-57 z"
       id="path4234"
       inkscape:connector-curvature="0"
       style="fill:#ffffff;fill-rule:nonzero" /><path
       class="fil1"
       d="m -556,11946 c 13,79 -3,158 -60,221 -89,99 -245,68 -384,-5 -282,159 -248,498 16,649 -276,79 -551,-136 -551,-354 0,-151 72,-302 182,-384 -91,-45 -151,-203 -16,-381 134,-178 256,-180 376,-151 -4,-82 18,-168 68,-213 49,-44 130,-64 217,-54 7,-48 26,-89 57,-117 57,-52 172,-66 277,-30 2,-58 31,-94 66,-132 32,-34 88,-44 145,-30 l 6,-4 c 11,-37 -29,-81 -145,-95 -1,74 -68,122 -147,109 -2,0 -4,-1 -6,-1 -31,51 -77,86 -122,89 -54,2 -105,-28 -149,-82 -16,59 -60,94 -121,97 -47,2 -101,-17 -153,-52 -5,34 -19,61 -41,81 -51,46 -150,33 -255,-23 -10,30 -31,60 -66,90 -125,108 -291,28 -432,-87 -348,57 -481,289 -332,661 -157,0 -276,-233 -276,-394 0,-149 72,-335 214,-420 -88,-63 -99,-223 54,-382 170,-177 366,-115 505,-5 15,-27 42,-46 82,-54 144,-25 225,6 335,113 20,-52 66,-85 125,-88 74,-4 159,27 230,97 11,-62 58,-98 148,-104 81,-4 133,22 174,68 17,-71 76,-124 190,-128 74,-3 128,6 171,25 20,-70 82,-119 200,-108 36,3 67,7 94,12 6,-63 34,-106 77,-128 79,-39 123,-5 157,-39 79,-79 14,-211 79,-276 39,-39 26,-66 39,-118 -78,39 -118,79 -168,127 11,-127 50,-206 90,-285 -79,79 -118,119 -237,158 79,-118 79,-197 79,-354 -79,118 -275,315 -472,354 273,-273 339,-873 145,-1336 31,-1 61,-1 91,-1 909,0 1706,481 2149,1203 -165,356 86,821 253,921 -315,79 -512,-118 -630,-315 -40,158 -79,237 -197,315 39,-118 39,-197 -40,-275 0,197 -157,393 -315,433 79,-158 79,-315 79,-433 -79,197 -157,275 -275,315 39,-118 39,-276 39,-394 -79,197 -157,276 -276,315 -16,26 -14,52 0,79 102,-11 132,49 120,149 48,-25 100,-31 145,-12 42,18 71,55 83,101 73,-46 152,-56 210,-18 26,17 44,42 55,71 112,-82 237,-104 305,-45 20,17 33,41 40,68 93,-73 185,-103 277,-69 94,36 167,135 161,247 124,54 198,179 198,351 0,197 -294,574 -609,377 190,-38 383,-275 253,-482 -128,102 -289,147 -395,107 -60,-22 -97,-69 -108,-129 -105,67 -215,81 -278,27 -16,-14 -28,-32 -36,-53 -62,30 -127,32 -175,-1 -38,-25 -60,-66 -67,-115 -48,22 -101,21 -137,-4 -36,-24 -54,-52 -72,-82 -5,-8 -23,-23 -35,-25 24,38 30,96 12,148 -17,51 -38,87 -71,110 54,38 90,99 80,181 -10,83 -30,128 -76,154 84,40 124,120 114,204 -10,84 -52,108 -79,135 50,32 118,86 118,191 0,104 -129,289 -344,287 -76,203 88,528 272,528 -309,193 -650,-135 -552,-518 -160,10 -271,-14 -281,-179 -9,-157 53,-251 154,-304 -51,-38 -75,-98 -61,-190 18,-114 71,-176 153,-204 -48,-34 -64,-83 -55,-156 11,-87 74,-150 162,-181 -43,-39 -53,-91 -38,-155 11,-50 42,-92 85,-121 l 0,0 c -47,-1 -83,-12 -110,-32 -5,54 -28,106 -63,146 -28,33 -68,52 -113,53 3,62 -15,121 -51,164 -30,35 -78,54 -130,51 6,88 -22,172 -69,215 -30,26 -72,39 -119,40 4,92 -23,176 -74,222 -35,32 -85,47 -142,48 z"
       id="path4236"
       inkscape:connector-curvature="0"
       style="fill:#000000" /></g></svg>