<?xml version="1.0" encoding="UTF-8" standalone="no"?>
<!-- Creator: CorelDRAW X7 -->

<svg
   xmlns:dc="http://purl.org/dc/elements/1.1/"
   xmlns:cc="http://creativecommons.org/ns#"
   xmlns:rdf="http://www.w3.org/1999/02/22-rdf-syntax-ns#"
   xmlns:svg="http://www.w3.org/2000/svg"
   xmlns="http://www.w3.org/2000/svg"
   xmlns:sodipodi="http://sodipodi.sourceforge.net/DTD/sodipodi-0.dtd"
   xmlns:inkscape="http://www.inkscape.org/namespaces/inkscape"
   xml:space="preserve"
   width="7.8740005in"
   height="7.8740005in"
   version="1.1"
   style="clip-rule:evenodd;fill-rule:evenodd;image-rendering:optimizeQuality;shape-rendering:geometricPrecision;text-rendering:geometricPrecision"
   viewBox="0 0 7874.0005 7874.0005"
   id="svg3624"
   inkscape:version="0.91 r13725"
   sodipodi:docname="Ariadna - Equipe Mirage-5 - [N3] [Vyo].svg"><metadata
     id="metadata3650"><rdf:RDF><cc:Work
         rdf:about=""><dc:format>image/svg+xml</dc:format><dc:type
           rdf:resource="http://purl.org/dc/dcmitype/StillImage" /></cc:Work></rdf:RDF></metadata><sodipodi:namedview
     pagecolor="#ffffff"
     bordercolor="#666666"
     borderopacity="1"
     objecttolerance="10"
     gridtolerance="10"
     guidetolerance="10"
     inkscape:pageopacity="0"
     inkscape:pageshadow="2"
     inkscape:window-width="640"
     inkscape:window-height="480"
     id="namedview3648"
     showgrid="false"
     inkscape:zoom="0.23838384"
     inkscape:cx="736.83001"
     inkscape:cy="849.33005"
     inkscape:window-x="0"
     inkscape:window-y="0"
     inkscape:window-maximized="0"
     inkscape:current-layer="svg3624" /><defs
     id="defs3626"><style
       type="text/css"
       id="style3628"><![CDATA[
    .fil3 {fill:none}
    .fil1 {fill:black}
    .fil0 {fill:#E32527}
    .fil2 {fill:white;fill-rule:nonzero}
   ]]></style></defs><g
     id="Layer_x0020_1"
     transform="translate(3937,-7063)"><metadata
       id="CorelCorpID_0Corel-Layer" /><circle
       class="fil0"
       cy="11000"
       r="3937"
       id="circle3632"
       cx="0"
       style="fill:#e32527" /><circle
       class="fil1"
       cy="11000"
       r="3858"
       id="circle3634"
       cx="0"
       style="fill:#000000" /><circle
       class="fil0"
       cy="11000"
       r="2598"
       id="circle3636"
       cx="0"
       style="fill:#e32527" /><path
       class="fil2"
       d="m -2800,9319 c -47,73 -58,117 -33,133 l 162,104 c 29,19 69,-12 120,-92 l 154,-240 c 10,-16 22,-20 34,-12 13,8 14,20 4,36 l -160,249 c -75,117 -139,159 -192,125 l -163,-106 c -50,-31 -38,-104 35,-219 l 163,-252 c 10,-16 21,-20 33,-13 13,8 14,20 4,36 l -161,251 z m 658,-618 c -20,-19 -54,-4 -100,46 l -114,120 c -50,53 -65,91 -42,112 l 81,77 c 21,20 57,3 108,-51 l 113,-120 c 47,-49 60,-84 39,-104 l -85,-80 z m 135,26 c 42,41 21,106 -65,197 l -99,105 c -88,93 -153,119 -195,79 l -82,-77 c -43,-41 -20,-108 68,-202 l 98,-104 c 86,-90 150,-115 193,-75 l 82,77 z m 734,-421 c 9,13 3,26 -18,39 -20,13 -34,13 -42,0 l -100,-154 c -15,-23 -56,-13 -121,29 -78,50 -108,89 -90,117 l 96,147 c 8,13 3,26 -17,39 -21,14 -35,14 -44,1 l -96,-148 c -18,-27 -65,-16 -143,35 -66,43 -92,76 -77,99 l 100,154 c 9,13 3,26 -18,40 -20,12 -34,12 -42,-1 l -97,-148 c -33,-51 4,-111 110,-180 80,-52 138,-71 175,-57 4,-41 44,-86 119,-134 106,-69 176,-78 209,-27 l 96,149 z m 802,-246 c 4,15 -5,26 -29,33 -23,6 -36,2 -41,-13 l -51,-176 c -8,-26 -49,-29 -124,-7 -89,26 -129,54 -120,86 l 50,169 c 4,15 -5,26 -28,32 -24,7 -38,3 -42,-12 l -49,-169 c -9,-31 -58,-34 -147,-8 -76,22 -110,46 -102,73 l 51,176 c 4,15 -5,26 -29,33 -22,6 -36,2 -40,-13 l -50,-170 c -17,-58 36,-105 158,-141 90,-26 152,-28 183,-4 16,-37 67,-69 153,-94 121,-35 191,-23 208,35 l 49,170 z m 173,-153 388,-5 -1,-43 c 0,-26 -28,-38 -84,-38 l -194,3 c -74,1 -110,16 -110,43 l 1,40 z m 458,15 c 1,16 -10,24 -32,24 l -426,6 1,36 c 0,26 37,39 111,38 l 80,-1 c 20,-1 30,6 30,21 1,15 -9,22 -30,23 l -60,0 c -135,2 -202,-27 -203,-86 l -2,-111 c 0,-59 66,-90 198,-91 l 163,-3 c 112,-1 169,23 169,75 l 1,69 z m 452,185 c -2,15 -15,21 -39,17 -24,-4 -35,-14 -32,-29 l 55,-332 c 3,-15 16,-21 40,-17 24,4 35,14 32,29 l -56,332 z m 204,-203 c -4,8 -11,12 -19,13 -9,2 -17,2 -24,0 -8,-2 -15,-5 -19,-9 -5,-5 -7,-10 -5,-17 0,-1 0,-1 1,-2 0,-1 1,-2 2,-4 l 40,-82 c 5,-7 11,-12 20,-14 10,-3 19,-3 29,-1 8,2 16,6 22,11 6,5 8,11 7,17 -1,4 -2,6 -2,7 l -52,81 z m 154,150 362,138 16,-40 c 9,-24 -12,-46 -64,-66 l -181,-69 c -69,-27 -109,-27 -119,-1 l -14,38 z m 421,183 c -6,15 -19,18 -40,11 l -397,-152 -13,33 c -9,25 21,50 90,76 l 74,29 c 19,7 26,17 21,31 -6,14 -18,17 -37,10 l -56,-22 C 907,8205 855,8153 876,8097 l 40,-103 c 21,-55 94,-59 218,-12 l 152,59 c 104,40 148,84 129,132 l -24,64 z m -222,-276 c -3,1 -7,2 -10,1 -3,0 -7,-1 -10,-2 -5,-2 -10,-6 -13,-11 -3,-6 -4,-10 -3,-15 2,-4 6,-7 13,-9 l 129,-39 c 7,-2 14,-2 21,1 5,2 10,6 13,11 3,5 4,10 2,14 -1,3 -2,5 -4,6 -2,2 -5,3 -8,4 l -130,39 z m 398,559 c -109,-70 -149,-129 -118,-177 l 64,-100 c 31,-48 96,-39 196,25 l 223,143 c 19,13 25,25 17,36 -8,13 -21,13 -40,1 l -232,-149 c -54,-35 -88,-41 -103,-18 l -63,99 c -16,24 7,57 69,96 l 220,142 c 17,10 21,22 12,35 -7,12 -19,12 -36,2 l -209,-135 z m 373,252 c -10,12 -25,10 -43,-5 -18,-16 -22,-30 -12,-42 l 220,-255 c 10,-12 24,-10 42,6 18,16 23,30 13,41 l -220,255 z m 508,328 -219,-248 c -37,-43 -66,-55 -85,-38 l -30,26 c -18,16 -8,47 32,92 l 158,179 c 39,44 72,53 100,29 l 44,-40 z m -10,102 c -42,37 -100,13 -175,-72 l -140,-158 c -79,-90 -98,-152 -57,-188 l 28,-25 c 42,-37 102,-12 178,76 l 209,236 c 18,-23 9,-54 -26,-95 l -58,-65 c -12,-13 -12,-25 -1,-35 11,-9 22,-7 33,6 l 51,57 c 74,85 90,147 47,185 l -89,78 z m 307,33 c -15,10 -32,1 -50,-27 -17,-27 -18,-45 -3,-55 16,-10 32,-2 49,25 19,28 20,47 4,57 z m -266,158 c -13,9 -26,3 -39,-17 -12,-19 -12,-33 1,-42 l 192,-124 c 13,-8 25,-3 37,15 13,21 14,36 1,44 l -192,124 z m 339,132 c -34,-60 -64,-83 -89,-68 l -158,88 c -13,8 -26,1 -38,-20 -12,-21 -11,-35 3,-43 l 157,-88 c 51,-29 107,10 166,117 l 16,28 c 9,16 7,27 -5,34 -13,7 -23,4 -30,-9 l -22,-39 z"
       id="path3638"
       inkscape:connector-curvature="0"
       style="fill:#ffffff;fill-rule:nonzero" /><circle
       class="fil3"
       cy="11000"
       r="3543"
       id="circle3640"
       cx="0"
       style="fill:none" /><circle
       class="fil3"
       cy="11000"
       r="3543"
       id="circle3642"
       cx="0"
       style="fill:none" /><path
       class="fil2"
       d="m -3208,12096 554,-220 145,365 -61,24 -112,-283 -159,63 113,283 -61,24 -113,-283 -212,85 112,282 -61,25 -145,-365 z m 635,759 -14,145 c 35,14 70,20 105,16 35,-4 67,-16 97,-37 20,-14 37,-31 50,-49 14,-19 25,-39 31,-60 15,-45 17,-91 7,-140 -9,-49 -30,-96 -62,-141 -24,-33 -51,-61 -83,-84 -31,-24 -64,-40 -99,-50 -35,-10 -69,-13 -102,-8 -33,5 -63,16 -90,35 -34,25 -59,55 -74,92 -16,37 -21,79 -16,128 2,28 8,55 19,83 11,28 26,54 44,80 16,23 32,42 50,59 17,17 35,31 54,42 l 20,-200 63,89 z m -39,412 -63,-89 12,-130 c -28,-16 -55,-36 -81,-61 -26,-25 -51,-54 -75,-88 -24,-34 -43,-70 -57,-106 -14,-37 -22,-74 -25,-112 -5,-60 2,-113 21,-160 20,-47 51,-85 93,-115 34,-24 72,-39 114,-45 43,-5 87,-1 133,12 46,14 89,36 130,66 40,31 76,68 107,111 30,43 53,88 69,133 15,46 23,92 22,139 0,49 -11,94 -31,134 -20,40 -48,74 -85,100 -39,27 -81,43 -126,48 -46,4 -92,-4 -140,-23 l -18,186 z m 528,-383 68,59 -243,280 c -39,46 -56,90 -50,132 6,42 34,86 86,131 52,45 99,67 142,67 43,-1 84,-24 123,-69 l 243,-281 68,59 -243,280 c -53,61 -110,91 -173,90 -62,-1 -130,-33 -203,-96 -73,-63 -114,-126 -124,-187 -11,-62 11,-123 64,-184 l 242,-281 z m 195,926 321,-502 75,48 -321,502 -75,-48 z m 427,-56 -122,238 -77,-39 271,-531 139,71 c 49,25 83,45 104,61 21,16 38,33 50,51 15,23 23,48 24,75 1,27 -5,53 -18,79 -13,26 -31,46 -53,61 -23,15 -48,23 -75,24 -22,1 -46,-2 -70,-10 -25,-7 -62,-23 -111,-48 l -22,-12 -40,-20 z m 29,-57 40,20 c 67,35 116,52 146,51 30,-1 53,-17 69,-49 17,-33 17,-63 0,-89 -17,-26 -58,-56 -125,-90 l -40,-21 -90,178 z m 252,477 194,-563 371,127 -21,62 -288,-99 -55,161 288,99 -22,63 -287,-99 -75,216 288,99 -22,62 -371,-128 z m 1171,234 -221,-433 -103,403 -86,-2 165,-616 249,499 271,-487 137,622 -86,-2 -85,-406 -241,422 z m 526,-62 -103,-587 87,-15 103,587 -87,15 z m 264,-48 -163,-573 168,-48 c 48,-14 84,-22 107,-24 24,-2 46,0 66,6 25,7 46,20 64,39 18,19 31,42 39,69 13,47 7,87 -19,121 -26,34 -70,60 -133,78 l -15,4 351,195 -108,31 -340,-198 -12,3 78,273 -83,24 z m -64,-539 55,192 65,-19 c 67,-19 109,-39 128,-59 18,-20 23,-47 13,-81 -10,-37 -29,-59 -57,-67 -27,-8 -74,-3 -139,15 l -65,19 z m 594,-146 -5,249 211,-109 -206,-140 z m -72,-139 585,394 -85,45 -170,-118 -258,133 -2,207 -85,44 15,-705 z m 767,-135 242,-190 13,16 c 57,74 77,153 58,236 -19,84 -74,161 -164,232 -28,22 -56,40 -85,55 -28,14 -57,26 -85,33 -65,17 -125,16 -180,0 -55,-17 -102,-49 -139,-97 -30,-39 -50,-80 -59,-124 -9,-44 -7,-90 6,-139 10,-40 29,-80 56,-117 27,-38 62,-73 105,-107 56,-44 111,-74 165,-90 55,-16 108,-18 161,-6 l -29,83 c -43,-12 -86,-13 -129,-2 -43,10 -85,32 -126,64 -69,53 -110,115 -123,185 -14,70 2,135 49,194 44,56 101,85 172,88 72,2 141,-23 207,-75 59,-46 97,-99 114,-158 17,-59 9,-113 -22,-162 l -168,130 -39,-49 z m 509,-60 -468,-370 244,-308 51,41 -189,238 134,106 189,-239 51,41 -188,239 179,142 188,-239 52,41 -243,308 z m 141,-541 118,-206 56,32 -118,206 -56,-32 z m 123,-362 -8,14 -238,-188 119,-304 57,22 -97,248 125,100 c 0,-19 2,-38 5,-57 4,-19 9,-39 17,-59 27,-68 64,-115 112,-142 48,-27 100,-29 155,-7 63,24 104,67 123,127 18,60 12,129 -18,207 -19,48 -42,86 -68,115 -27,29 -58,49 -96,62 l -31,-79 c 32,-6 59,-19 83,-40 23,-20 42,-48 55,-82 19,-50 22,-95 9,-135 -14,-40 -42,-69 -84,-86 -41,-15 -79,-12 -116,9 -37,22 -65,60 -86,112 -11,27 -17,55 -20,82 -4,28 -3,54 2,81 z"
       id="path3644"
       inkscape:connector-curvature="0"
       style="fill:#ffffff;fill-rule:nonzero" /><polygon
       class="fil1"
       points="197,11059 591,10902 -1102,13224 -276,11335 -709,11492 118,10193 -276,10311 1102,8736 630,9839 945,9760 "
       id="polygon3646"
       style="fill:#000000" /></g></svg>