<?xml version="1.0" encoding="UTF-8" standalone="no"?>
<!-- Creator: CorelDRAW X7 -->

<svg
   xmlns:dc="http://purl.org/dc/elements/1.1/"
   xmlns:cc="http://creativecommons.org/ns#"
   xmlns:rdf="http://www.w3.org/1999/02/22-rdf-syntax-ns#"
   xmlns:svg="http://www.w3.org/2000/svg"
   xmlns="http://www.w3.org/2000/svg"
   xmlns:sodipodi="http://sodipodi.sourceforge.net/DTD/sodipodi-0.dtd"
   xmlns:inkscape="http://www.inkscape.org/namespaces/inkscape"
   xml:space="preserve"
   width="7.8740005in"
   height="7.8740005in"
   version="1.1"
   style="clip-rule:evenodd;fill-rule:evenodd;image-rendering:optimizeQuality;shape-rendering:geometricPrecision;text-rendering:geometricPrecision"
   viewBox="0 0 7874.0005 7874.0005"
   id="svg4166"
   inkscape:version="0.91 r13725"
   sodipodi:docname="Ariadna - Moblots - [N3] [Vyo].svg"><metadata
     id="metadata4212"><rdf:RDF><cc:Work
         rdf:about=""><dc:format>image/svg+xml</dc:format><dc:type
           rdf:resource="http://purl.org/dc/dcmitype/StillImage" /></cc:Work></rdf:RDF></metadata><sodipodi:namedview
     pagecolor="#ffffff"
     bordercolor="#666666"
     borderopacity="1"
     objecttolerance="10"
     gridtolerance="10"
     guidetolerance="10"
     inkscape:pageopacity="0"
     inkscape:pageshadow="2"
     inkscape:window-width="640"
     inkscape:window-height="480"
     id="namedview4210"
     showgrid="false"
     inkscape:zoom="0.23838384"
     inkscape:cx="736.83001"
     inkscape:cy="849.33005"
     inkscape:window-x="0"
     inkscape:window-y="0"
     inkscape:window-maximized="0"
     inkscape:current-layer="svg4166" /><defs
     id="defs4168"><style
       type="text/css"
       id="style4170"><![CDATA[
    .str0 {stroke:black;stroke-width:3}
    .fil3 {fill:none}
    .fil1 {fill:black}
    .fil0 {fill:#E32527}
    .fil2 {fill:white;fill-rule:nonzero}
   ]]></style></defs><g
     id="Layer_x0020_1"
     transform="translate(3937,-7063)"><metadata
       id="CorelCorpID_0Corel-Layer" /><circle
       class="fil0"
       cy="11000"
       r="3937"
       id="circle4174"
       cx="0"
       style="fill:#e32527" /><circle
       class="fil1"
       cy="11000"
       r="3858"
       id="circle4176"
       cx="0"
       style="fill:#000000" /><circle
       class="fil0"
       cy="11000"
       r="2598"
       id="circle4178"
       cx="0"
       style="fill:#e32527" /><path
       class="fil2"
       d="m -3126,11386 -35,-430 c -1,-17 8,-27 28,-28 20,-2 30,6 31,23 l 35,430 92,-7 c 42,-4 60,-45 53,-124 l -25,-312 c -1,-18 7,-28 26,-30 20,-1 31,7 32,25 l 26,314 c 10,127 -24,193 -103,200 l -250,20 c -80,7 -126,-56 -136,-187 l -7,-85 c -2,-17 7,-26 26,-28 19,-1 29,6 31,24 l 4,57 c 8,100 34,149 76,146 l 96,-8 z"
       id="path4180"
       inkscape:connector-curvature="0"
       style="fill:#ffffff;fill-rule:nonzero" /><path
       id="1"
       class="fil2"
       d="m -2840,10379 c 20,3 28,16 25,38 -3,23 -15,33 -35,31 l -244,-34 c -30,-5 -50,24 -58,86 l -24,169 c -8,62 2,95 33,99 l 244,34 c 20,3 28,16 25,38 -3,23 -14,32 -34,30 l -244,-34 c -68,-10 -94,-74 -77,-193 l 18,-131 c 17,-121 59,-176 127,-167 l 244,34 z"
       inkscape:connector-curvature="0"
       style="fill:#ffffff;fill-rule:nonzero" /><path
       id="2"
       class="fil2"
       d="m -2778,9637 -111,294 c -19,50 -12,81 19,92 l 48,19 c 30,11 55,-10 75,-63 l 80,-212 c 20,-51 7,-85 -38,-102 l -73,-28 z m 114,-27 c 69,26 84,89 46,189 l -71,187 c -40,105 -92,145 -158,120 l -46,-17 c -68,-26 -83,-90 -44,-193 l 106,-278 c -36,-9 -63,10 -82,58 l -29,78 c -6,15 -18,19 -36,12 -17,-6 -22,-17 -17,-32 l 26,-68 c 38,-100 92,-136 162,-110 l 143,54 z"
       inkscape:connector-curvature="0"
       style="fill:#ffffff;fill-rule:nonzero" /><path
       id="3"
       class="fil2"
       d="m -2399,9396 c 4,13 4,24 -1,31 -5,8 -13,12 -25,13 l -410,39 c -7,1 -14,0 -20,-4 -7,-5 -11,-12 -12,-21 -1,-9 0,-17 5,-24 2,-5 6,-8 9,-10 4,-2 9,-3 14,-3 l 374,-32 -130,-354 c -3,-7 -1,-15 4,-22 4,-8 11,-14 20,-18 10,-5 18,-5 25,-1 5,3 8,9 11,17 l 136,389 z"
       inkscape:connector-curvature="0"
       style="fill:#ffffff;fill-rule:nonzero" /><path
       id="4"
       class="fil2"
       d="m -2115,8760 -217,227 c -37,38 -43,69 -19,92 l 37,36 c 23,22 54,12 93,-29 l 157,-163 c 38,-40 39,-76 4,-109 l -55,-54 z m 115,20 c 53,50 42,114 -32,191 l -138,145 c -77,81 -142,97 -192,48 l -36,-34 c -52,-50 -41,-115 35,-194 l 206,-215 c -30,-22 -62,-15 -98,22 l -57,60 c -11,12 -24,11 -38,-2 -13,-13 -14,-25 -3,-37 l 50,-52 c 74,-77 138,-90 192,-38 l 111,106 z"
       inkscape:connector-curvature="0"
       style="fill:#ffffff;fill-rule:nonzero" /><path
       id="5"
       class="fil2"
       d="m -1510,8520 c 11,17 7,32 -12,45 -19,13 -34,11 -45,-5 l -141,-203 c -17,-25 -51,-20 -102,15 l -141,98 c -52,35 -69,66 -51,91 l 140,202 c 12,17 8,32 -11,45 -18,13 -33,11 -45,-6 l -140,-202 c -39,-56 -9,-119 90,-187 l 109,-76 c 100,-69 169,-75 208,-19 l 141,202 z"
       inkscape:connector-curvature="0"
       style="fill:#ffffff;fill-rule:nonzero" /><path
       id="6"
       class="fil2"
       d="m -1545,8206 144,255 c 9,17 5,31 -14,42 -21,12 -36,9 -46,-9 l -143,-255 -29,17 c -17,9 -30,6 -39,-11 -9,-16 -6,-29 11,-38 l 29,-17 -44,-77 c -10,-17 -4,-32 16,-44 19,-10 34,-7 43,11 l 44,77 119,-67 c 16,-9 29,-6 38,11 9,16 6,29 -11,38 l -118,67 z"
       inkscape:connector-curvature="0"
       style="fill:#ffffff;fill-rule:nonzero" /><path
       id="7"
       class="fil2"
       d="m -1320,8246 c -18,8 -30,4 -37,-12 -8,-17 -3,-29 14,-37 l 235,-108 c 16,-7 27,-2 34,14 8,16 4,28 -11,35 l -235,108 z"
       inkscape:connector-curvature="0"
       style="fill:#ffffff;fill-rule:nonzero" /><path
       id="8"
       class="fil2"
       d="m -591,8117 -57,-192 c -12,-40 -52,-50 -121,-29 l -148,44 c -65,19 -92,46 -81,82 l 42,143 c 11,36 54,44 129,21 l 236,-69 z m 82,30 c 21,71 -28,124 -147,160 l -55,16 c -19,5 -31,0 -36,-18 -5,-18 1,-30 20,-35 l 63,-19 c 70,-21 101,-46 92,-76 l -1,-4 -225,66 c -127,38 -201,20 -223,-52 l -42,-142 c -21,-73 26,-127 142,-161 l 117,-35 c 126,-37 201,-19 222,55 l 73,245 z"
       inkscape:connector-curvature="0"
       style="fill:#ffffff;fill-rule:nonzero" /><path
       id="9"
       class="fil2"
       d="m -33,7910 -312,25 c -53,4 -79,23 -76,57 l 4,51 c 3,31 33,45 89,40 l 225,-18 c 55,-4 81,-31 77,-78 l -7,-77 z m 74,91 c 6,72 -45,113 -151,122 l -200,16 c -111,9 -170,-21 -176,-91 l -4,-49 c -6,-73 46,-113 156,-122 l 296,-24 c -7,-37 -36,-53 -87,-49 l -83,7 c -16,1 -25,-8 -27,-27 -1,-18 6,-28 23,-29 l 71,-6 c 107,-9 163,24 169,99 l 13,153 z"
       inkscape:connector-curvature="0"
       style="fill:#ffffff;fill-rule:nonzero" /><path
       id="10"
       class="fil2"
       d="m 275,7819 c -65,-5 -99,11 -102,50 l -19,233 c -2,20 -14,30 -37,28 -23,-2 -33,-13 -31,-33 l 19,-234 c 6,-76 67,-109 182,-99 l 31,2 c 17,2 24,12 23,30 -2,19 -10,28 -23,27 l -43,-4 z"
       inkscape:connector-curvature="0"
       style="fill:#ffffff;fill-rule:nonzero" /><path
       id="11"
       class="fil2"
       d="m 792,7899 -263,-46 c -68,-12 -107,4 -114,47 l -23,133 c -7,39 22,65 88,77 l 155,27 c 75,13 115,-1 122,-40 l 35,-198 z m 30,217 c -13,72 -82,97 -207,75 L 489,8169 C 366,8148 310,8103 322,8035 l 27,-155 c 14,-75 82,-102 204,-81 l 249,44 15,-88 c 3,-20 16,-28 37,-24 23,4 33,16 29,36 l -61,349 z"
       inkscape:connector-curvature="0"
       style="fill:#ffffff;fill-rule:nonzero" /><path
       id="12"
       class="fil2"
       d="m 974,8065 343,130 19,-52 c 12,-31 -6,-56 -55,-75 l -172,-65 c -65,-24 -104,-20 -117,14 l -18,48 z m 395,180 c -7,19 -21,25 -40,18 l -376,-143 -17,44 c -12,32 15,60 80,84 l 70,27 c 18,7 24,19 17,37 -6,18 -19,23 -37,16 l -53,-20 C 894,8263 848,8204 876,8132 l 51,-135 c 27,-72 99,-85 217,-41 l 144,55 c 99,37 136,87 113,150 l -32,84 z"
       inkscape:connector-curvature="0"
       style="fill:#ffffff;fill-rule:nonzero" /><path
       id="13"
       class="fil2"
       d="m 1972,8340 -228,335 c -12,17 -28,19 -48,5 -20,-14 -24,-29 -13,-46 l 229,-335 -167,-114 c -15,-11 -17,-24 -5,-41 10,-15 22,-17 37,-7 l 394,269 c 15,10 17,23 7,37 -11,17 -25,20 -39,10 l -167,-113 z"
       inkscape:connector-curvature="0"
       style="fill:#ffffff;fill-rule:nonzero" /><path
       id="14"
       class="fil2"
       d="m 2338,8894 c 24,-26 14,-62 -33,-106 l -112,-108 c -51,-48 -90,-58 -118,-29 l -100,105 c -26,27 -14,65 36,113 l 113,108 c 47,45 83,53 109,26 l 105,-109 z m -55,157 c -52,54 -121,41 -206,-40 l -99,-95 c -87,-83 -104,-152 -52,-207 l 101,-105 c 53,-56 124,-42 212,42 l 97,94 c 85,81 101,150 48,205 l -101,106 z"
       inkscape:connector-curvature="0"
       style="fill:#ffffff;fill-rule:nonzero" /><path
       id="15"
       class="fil2"
       d="m 2598,9513 c -59,42 -126,11 -199,-93 l -67,-97 c -74,-105 -81,-178 -21,-220 l 199,-140 c 16,-11 30,-7 43,11 13,19 11,33 -5,44 l -199,140 c -28,20 -21,61 23,123 l 80,115 c 43,60 78,81 105,62 l 201,-141 c 15,-11 30,-6 43,13 13,18 12,33 -4,44 l -199,139 z"
       inkscape:connector-curvature="0"
       style="fill:#ffffff;fill-rule:nonzero" /><path
       id="16"
       class="fil2"
       d="m 2951,9506 c -22,12 -40,4 -55,-23 -14,-27 -10,-46 11,-57 21,-12 38,-4 53,23 15,27 11,46 -9,57 z m -359,181 c -65,36 -122,8 -170,-81 l -26,-47 c -9,-17 -6,-30 10,-39 17,-9 31,-5 40,12 l 28,51 c 25,47 52,63 80,48 l 265,-144 c 17,-9 31,-4 42,15 11,21 8,36 -10,45 l -259,140 z"
       inkscape:connector-curvature="0"
       style="fill:#ffffff;fill-rule:nonzero" /><path
       id="17"
       class="fil2"
       d="m 2994,10029 c 34,-13 39,-50 15,-110 l -58,-145 c -26,-64 -57,-90 -94,-75 l -135,54 c -35,14 -40,53 -14,118 l 57,145 c 24,60 54,83 89,69 l 140,-56 z m -115,120 c -70,28 -127,-12 -171,-122 l -50,-127 c -45,-112 -32,-182 39,-210 l 135,-54 c 72,-28 130,14 175,127 l 50,125 c 44,110 29,179 -42,207 l -136,54 z"
       inkscape:connector-curvature="0"
       style="fill:#ffffff;fill-rule:nonzero" /><path
       id="18"
       class="fil2"
       d="m 2979,10700 c -72,13 -118,-43 -140,-169 l -20,-116 c -22,-126 3,-196 74,-208 l 240,-41 c 19,-4 30,5 34,27 4,23 -4,35 -23,39 l -239,41 c -34,6 -45,46 -32,121 l 24,138 c 12,73 35,106 69,100 l 241,-41 c 18,-3 29,7 33,30 4,22 -3,35 -22,38 l -239,41 z"
       inkscape:connector-curvature="0"
       style="fill:#ffffff;fill-rule:nonzero" /><path
       id="19"
       class="fil2"
       d="m 3191,10921 c -1,-65 -20,-97 -59,-97 l -234,2 c -20,0 -31,-11 -31,-34 0,-23 10,-34 30,-35 l 235,-2 c 76,0 114,57 115,173 l 0,31 c 1,17 -9,25 -28,25 -18,0 -28,-7 -28,-20 l 0,-43 z"
       inkscape:connector-curvature="0"
       style="fill:#ffffff;fill-rule:nonzero" /><path
       id="20"
       class="fil2"
       d="m 2945,11455 c -66,-6 -95,-56 -87,-151 l 24,-289 c 1,-20 11,-29 29,-28 20,2 29,13 27,33 l -24,301 c -4,40 9,62 37,64 l 22,2 c 28,2 44,-20 48,-66 l 13,-160 c 9,-105 45,-155 108,-150 l 24,2 c 61,5 88,57 79,158 l -6,79 c -2,20 -12,29 -31,28 -19,-2 -27,-12 -25,-32 l 7,-96 c 4,-44 -6,-68 -29,-70 l -23,-2 c -28,-2 -43,23 -48,76 l -13,164 c -8,98 -45,144 -110,139 l -22,-2 z"
       inkscape:connector-curvature="0"
       style="fill:#ffffff;fill-rule:nonzero" /><circle
       class="fil3"
       cy="11000"
       r="3543"
       id="circle4202"
       cx="0"
       style="fill:none" /><circle
       class="fil3"
       cy="11000"
       r="3543"
       id="circle4204"
       cx="0"
       style="fill:none" /><path
       class="fil2"
       d="m -3146,12281 c -20,8 -35,0 -44,-23 -9,-22 -3,-38 17,-46 l 422,-167 c 19,-7 33,0 42,22 10,24 4,39 -15,47 l -422,167 z m 606,444 c -42,24 -84,17 -126,-20 12,54 -5,94 -50,120 l -25,15 c -76,43 -148,6 -215,-111 l -161,-281 c -10,-18 -6,-32 12,-42 17,-10 31,-6 41,12 l 168,293 c 37,65 74,86 112,65 l 44,-25 c 28,-20 26,-61 -9,-121 l -169,-296 c -11,-18 -7,-32 11,-42 18,-11 32,-7 43,12 l 169,295 c 36,63 70,85 102,67 l 43,-24 c 31,-18 29,-60 -8,-124 l -48,-84 c -10,-17 -6,-31 11,-41 17,-9 30,-5 40,12 l 38,66 c 69,121 70,200 2,239 l -25,15 z m -28,202 244,282 43,-38 c 27,-23 23,-55 -12,-95 l -122,-141 c -47,-53 -84,-68 -112,-43 l -41,35 z m 266,351 c -16,14 -31,13 -45,-3 l -267,-308 -37,32 c -26,22 -16,61 30,114 l 50,58 c 13,15 12,29 -3,41 -15,13 -29,12 -42,-2 l -38,-44 c -84,-98 -96,-173 -35,-225 l 113,-99 c 60,-52 132,-29 216,67 l 102,118 c 70,82 79,145 26,190 l -70,61 z m -9,-380 c -4,1 -8,0 -11,-2 -3,-1 -5,-3 -7,-6 -4,-4 -5,-10 -5,-17 1,-7 4,-12 9,-16 4,-4 10,-6 18,-6 l 151,4 c 8,1 15,4 19,9 4,4 6,10 5,17 -1,7 -4,12 -9,16 -3,3 -5,5 -8,5 -3,1 -6,1 -10,2 l -152,-6 z m 521,1015 c -13,17 -28,18 -47,3 -18,-14 -20,-29 -8,-46 l 153,-195 c 24,-29 6,-67 -53,-113 -70,-55 -119,-65 -146,-31 l -147,187 c -13,17 -28,18 -46,4 -18,-14 -21,-30 -8,-47 l 146,-187 c 28,-34 6,-79 -64,-134 -59,-47 -101,-55 -124,-26 l -153,195 c -13,16 -28,17 -47,3 -18,-14 -20,-29 -7,-46 l 148,-188 c 50,-64 124,-59 219,16 72,56 103,108 95,155 46,-18 102,0 170,53 95,75 118,144 67,209 l -148,188 z m 270,-85 340,154 23,-52 c 15,-32 -2,-59 -51,-81 l -169,-77 c -65,-29 -105,-27 -120,7 l -23,49 z m 389,208 c -9,20 -23,25 -42,16 l -372,-168 -20,44 c -14,32 11,63 75,92 l 70,31 c 18,8 22,21 14,39 -8,18 -21,23 -39,15 l -52,-24 c -118,-53 -160,-116 -127,-189 l 62,-137 c 33,-72 107,-82 224,-30 l 142,65 c 98,44 132,98 104,161 l -39,85 z m 1182,394 c -2,22 -17,31 -42,27 -23,-3 -33,-15 -30,-36 l 47,-369 -325,339 c -16,16 -34,23 -53,20 -22,-3 -38,-14 -48,-34 l -234,-409 -47,368 c -3,21 -16,30 -40,27 -24,-3 -35,-15 -32,-36 l 57,-438 c 3,-29 19,-42 47,-38 19,2 34,13 45,32 l 262,454 364,-377 c 6,-6 13,-11 22,-14 9,-3 17,-4 26,-3 29,4 41,21 38,51 l -57,436 z m 601,-437 c -6,-51 -50,-72 -130,-61 l -177,22 c -85,11 -125,42 -118,93 l 30,237 c 7,49 52,67 138,56 l 172,-22 c 83,-10 122,-40 116,-89 l -31,-236 z m 104,228 c 12,88 -56,141 -202,160 l -136,18 c -145,18 -223,-16 -235,-104 l -31,-242 c -11,-88 56,-141 201,-159 l 136,-18 c 146,-19 225,15 236,103 l 31,242 z m 71,-349 61,155 295,-116 c 65,-26 91,-57 77,-91 l -18,-48 c -15,-37 -53,-43 -113,-19 l -302,119 z m 139,364 320,-127 c 62,-24 86,-52 73,-85 l -18,-45 c -14,-38 -59,-41 -135,-11 l -299,118 59,150 z m 360,-457 c 17,44 7,83 -31,117 61,-4 102,19 121,67 l 9,24 c 30,76 -8,136 -117,179 l -366,145 c -14,5 -25,0 -31,-15 l -169,-429 c -6,-14 -2,-24 13,-30 l 350,-138 c 109,-43 179,-25 211,56 l 10,24 z m 465,140 c -129,83 -217,88 -264,14 l -190,-295 c -11,-18 -7,-33 14,-46 21,-14 37,-12 48,6 l 190,295 c 25,40 81,32 167,-23 l 244,-157 c 16,-10 30,-6 41,12 10,16 8,29 -8,39 l -242,155 z m 450,-839 c -36,-37 -83,-28 -142,28 l -129,123 c -62,59 -75,108 -39,145 l 164,172 c 34,36 82,24 144,-36 l 126,-120 c 61,-58 74,-104 40,-140 l -164,-172 z m 218,122 c 62,64 39,147 -67,249 l -100,95 c -105,101 -189,119 -250,55 l -169,-177 c -60,-63 -38,-145 68,-246 l 99,-96 c 107,-101 190,-120 251,-57 l 168,177 z m -33,-481 344,244 c 17,13 19,29 4,49 -14,20 -30,24 -47,12 l -344,-245 -119,168 c -10,15 -24,16 -41,4 -15,-10 -18,-23 -7,-38 l 280,-395 c 11,-15 24,-17 39,-6 17,12 20,26 10,40 l -119,167 z m 673,-546 c 71,32 81,105 30,219 l -137,301 c -7,17 -21,21 -40,12 -18,-8 -23,-20 -15,-37 l 141,-310 c 28,-63 24,-102 -13,-119 l -40,-18 c -40,-18 -77,10 -111,84 l -62,137 c -54,118 -113,162 -178,133 l -47,-21 c -72,-33 -85,-101 -38,-204 l 34,-76 c 8,-17 21,-21 39,-13 18,8 23,21 15,38 l -39,86 c -23,51 -15,85 25,103 l 35,17 c 33,15 65,-11 95,-77 l 63,-139 c 29,-63 59,-106 91,-129 32,-23 66,-26 103,-10 l 49,23 z"
       id="path4206"
       inkscape:connector-curvature="0"
       style="fill:#ffffff;fill-rule:nonzero" /><polygon
       class="fil1 str0"
       points="1102,12890 -1102,12890 0,11000 -1102,9110 1102,9110 0,11000 "
       id="polygon4208"
       style="fill:#000000;stroke:#000000;stroke-width:3" /></g></svg>