<?xml version="1.0" encoding="UTF-8" standalone="no"?>
<!-- Creator: CorelDRAW X7 -->

<svg
   xmlns:dc="http://purl.org/dc/elements/1.1/"
   xmlns:cc="http://creativecommons.org/ns#"
   xmlns:rdf="http://www.w3.org/1999/02/22-rdf-syntax-ns#"
   xmlns:svg="http://www.w3.org/2000/svg"
   xmlns="http://www.w3.org/2000/svg"
   xmlns:sodipodi="http://sodipodi.sourceforge.net/DTD/sodipodi-0.dtd"
   xmlns:inkscape="http://www.inkscape.org/namespaces/inkscape"
   xml:space="preserve"
   width="7.8740005in"
   height="7.8740005in"
   version="1.1"
   style="clip-rule:evenodd;fill-rule:evenodd;image-rendering:optimizeQuality;shape-rendering:geometricPrecision;text-rendering:geometricPrecision"
   viewBox="0 0 7874.0005 7874.0005"
   id="svg3949"
   inkscape:version="0.91 r13725"
   sodipodi:docname="Ariadna - Line Kazaks - [N3] [Vyo].svg"><metadata
     id="metadata3999"><rdf:RDF><cc:Work
         rdf:about=""><dc:format>image/svg+xml</dc:format><dc:type
           rdf:resource="http://purl.org/dc/dcmitype/StillImage" /></cc:Work></rdf:RDF></metadata><sodipodi:namedview
     pagecolor="#ffffff"
     bordercolor="#666666"
     borderopacity="1"
     objecttolerance="10"
     gridtolerance="10"
     guidetolerance="10"
     inkscape:pageopacity="0"
     inkscape:pageshadow="2"
     inkscape:window-width="640"
     inkscape:window-height="480"
     id="namedview3997"
     showgrid="false"
     inkscape:zoom="0.23838384"
     inkscape:cx="736.83001"
     inkscape:cy="849.33005"
     inkscape:window-x="0"
     inkscape:window-y="0"
     inkscape:window-maximized="0"
     inkscape:current-layer="svg3949" /><defs
     id="defs3951"><style
       type="text/css"
       id="style3953"><![CDATA[
    .fil4 {fill:none}
    .fil1 {fill:black}
    .fil0 {fill:#E2001A}
    .fil2 {fill:#FFD600}
    .fil3 {fill:white;fill-rule:nonzero}
   ]]></style></defs><g
     id="Layer_x0020_1"
     transform="translate(3937,-7063)"><metadata
       id="CorelCorpID_0Corel-Layer" /><circle
       class="fil0"
       cy="11000"
       r="3937"
       id="circle3957"
       cx="0"
       style="fill:#e2001a" /><circle
       class="fil1"
       cy="11000"
       r="3858"
       id="circle3959"
       cx="0"
       style="fill:#000000" /><circle
       class="fil0"
       cy="11000"
       r="3661"
       id="circle3961"
       cx="0"
       style="fill:#e2001a" /><polygon
       class="fil2"
       points="709,10075 2579,10075 2756,11000 2697,11492 709,11492 709,12831 -709,12831 -709,11492 -2697,11492 -2756,11000 -2579,10075 -709,10075 -709,8323 0,8264 709,8323 "
       id="polygon3963"
       style="fill:#ffd600" /><path
       class="fil1"
       d="m 0,8202 c 1544,0 2795,1251 2795,2795 0,741 -288,1415 -760,1916 l -4070,0 c -472,-501 -760,-1175 -760,-1916 0,-1544 1251,-2795 2795,-2795 z m -1995,4586 3990,0 c 440,-491 682,-1123 682,-1785 C 2677,9525 1479,8326 0,8326 c -1479,0 -2677,1199 -2677,2677 0,662 242,1294 682,1785 z"
       id="path3965"
       inkscape:connector-curvature="0"
       style="fill:#000000" /><path
       class="fil3"
       d="m -2159,13769 218,-646 106,0 218,646 -91,0 -58,-179 -248,0 -58,179 -87,0 z m 368,-254 -99,-303 -100,303 199,0 z"
       id="path3967"
       inkscape:connector-curvature="0"
       style="fill:#ffffff;fill-rule:nonzero" /><path
       id="1"
       class="fil3"
       d="m -1079,13318 c 0,28 -6,55 -15,80 -10,25 -24,46 -42,64 -22,22 -48,38 -78,50 -30,11 -68,17 -114,17 l -72,0 0,240 -87,0 0,-646 162,0 c 39,0 71,3 98,10 27,6 50,16 71,31 24,16 43,37 56,62 14,26 21,56 21,92 z m -90,2 c 0,-22 -4,-41 -12,-57 -7,-17 -19,-30 -34,-40 -14,-10 -30,-16 -48,-19 -18,-4 -40,-6 -67,-6 l -70,0 0,256 58,0 c 34,0 62,-3 84,-9 21,-5 38,-15 53,-29 12,-13 21,-27 27,-43 6,-15 9,-33 9,-53 z"
       inkscape:connector-curvature="0"
       style="fill:#ffffff;fill-rule:nonzero" /><polygon
       id="2"
       class="fil3"
       points="-840,13769 -927,13769 -927,13123 -841,13123 -841,13628 -554,13123 -463,13123 -463,13769 -549,13769 -549,13256 "
       style="fill:#ffffff;fill-rule:nonzero" /><path
       id="3"
       class="fil3"
       d="m -332,13769 218,-646 106,0 218,646 -91,0 -58,-179 -248,0 -58,179 -87,0 z m 368,-254 -99,-303 -100,303 199,0 z"
       inkscape:connector-curvature="0"
       style="fill:#ffffff;fill-rule:nonzero" /><path
       id="4"
       class="fil3"
       d="m 865,13916 -82,0 0,-148 -419,0 0,148 -81,0 0,-223 35,0 c 38,-62 68,-142 91,-242 23,-100 35,-209 35,-328 l 360,0 0,570 61,0 0,223 z m -148,-223 0,-495 -193,0 c -4,104 -18,199 -39,284 -22,85 -50,155 -84,211 l 316,0 z"
       inkscape:connector-curvature="0"
       style="fill:#ffffff;fill-rule:nonzero" /><polygon
       id="5"
       class="fil3"
       points="1104,13453 1104,13769 1018,13769 1018,13123 1104,13123 1104,13377 1400,13377 1400,13123 1486,13123 1486,13769 1400,13769 1400,13453 "
       style="fill:#ffffff;fill-rule:nonzero" /><path
       id="6"
       class="fil3"
       d="m 1617,13769 218,-646 106,0 218,646 -91,0 -58,-179 -247,0 -59,179 -87,0 z m 369,-254 -100,-303 -99,303 199,0 z"
       inkscape:connector-curvature="0"
       style="fill:#ffffff;fill-rule:nonzero" /><circle
       class="fil4"
       cy="11000"
       r="3898"
       id="circle3975"
       cx="0"
       style="fill:none" /><path
       class="fil3"
       d="m -2741,10170 -17,75 -504,-110 -43,195 c 29,7 57,14 84,21 27,7 52,14 73,19 54,14 98,27 132,39 35,13 63,25 85,37 22,12 39,24 51,37 12,12 22,25 30,38 8,14 13,28 15,42 2,14 2,30 -2,47 -1,6 -2,11 -4,16 -2,6 -3,10 -3,13 l -74,-16 2,-5 c 0,-3 1,-5 2,-7 0,-1 1,-4 2,-8 2,-9 2,-18 1,-26 -1,-9 -4,-17 -9,-23 -13,-21 -41,-41 -83,-58 -42,-18 -100,-37 -173,-56 -25,-7 -58,-16 -99,-26 -41,-10 -79,-20 -113,-28 l 74,-341 573,125 z"
       id="path3977"
       inkscape:connector-curvature="0"
       style="fill:#ffffff;fill-rule:nonzero" /><polygon
       id="polygon3979"
       class="fil3"
       points="-2631,9890 -2665,9962 -3196,9715 -3163,9644 -2748,9837 -3053,9409 -3018,9334 -2487,9581 -2520,9652 -2942,9456 "
       style="fill:#ffffff;fill-rule:nonzero" /><polygon
       id="polygon3981"
       class="fil3"
       points="-2546,9157 -2321,9333 -2368,9395 -2830,9034 -2782,8973 -2601,9115 -2435,8902 -2616,8760 -2568,8699 -2107,9059 -2154,9121 -2380,8944 "
       style="fill:#ffffff;fill-rule:nonzero" /><polygon
       id="polygon3983"
       class="fil3"
       points="-2010,8281 -2227,8473 -2121,8593 -1918,8415 -1873,8466 -2075,8645 -1931,8807 -1715,8616 -1669,8668 -1944,8911 -2331,8472 -2056,8229 "
       style="fill:#ffffff;fill-rule:nonzero" /><path
       id="path3985"
       class="fil3"
       d="m -1138,8371 -69,38 -223,-408 -7,534 -70,38 -281,-514 69,-37 219,401 8,-526 73,-40 281,514 z m -415,-640 c 18,35 22,69 13,101 -10,33 -35,61 -78,84 -42,23 -79,30 -112,20 -32,-10 -58,-32 -78,-66 l 61,-33 c 15,25 30,40 48,46 17,5 36,2 58,-10 22,-12 35,-26 40,-44 4,-17 0,-39 -14,-65 l 62,-33 z"
       inkscape:connector-curvature="0"
       style="fill:#ffffff;fill-rule:nonzero" /><polygon
       id="polygon3987"
       class="fil3"
       points="-939,7999 -856,8274 -930,8297 -1101,7737 -1026,7714 -959,7933 -702,7855 -769,7636 -694,7613 -524,8173 -599,8196 -682,7921 "
       style="fill:#ffffff;fill-rule:nonzero" /><path
       id="path3989"
       class="fil3"
       d="m 81,7961 c 1,29 -4,55 -15,78 -11,23 -26,42 -44,57 -22,17 -45,30 -70,37 -25,8 -58,12 -98,13 l -156,1 -7,-585 78,-1 3,229 81,-1 c 40,0 72,2 97,6 25,4 49,15 72,32 20,15 35,34 44,57 10,23 15,49 15,77 z m -81,3 c 0,-20 -4,-37 -10,-52 -7,-15 -17,-26 -31,-35 -14,-10 -31,-16 -50,-17 -19,-2 -45,-3 -80,-3 l -57,1 3,221 55,-1 c 35,0 61,-2 80,-6 19,-3 35,-10 49,-20 15,-10 25,-22 32,-36 6,-14 9,-31 9,-52 z m 214,177 -78,1 -7,-585 78,-1 7,585 z"
       inkscape:connector-curvature="0"
       style="fill:#ffffff;fill-rule:nonzero" /><path
       id="7"
       class="fil3"
       d="m 844,8258 -76,-17 99,-454 -357,398 -77,-17 125,-572 76,16 -97,447 352,-391 80,18 -125,572 z m 107,-756 c -10,39 -29,67 -57,85 -28,19 -66,23 -113,13 -47,-11 -80,-30 -98,-59 -18,-29 -24,-62 -16,-101 l 68,15 c -5,29 -4,51 6,66 9,16 26,26 50,31 24,5 44,3 59,-7 15,-10 25,-29 32,-58 l 69,15 z"
       inkscape:connector-curvature="0"
       style="fill:#ffffff;fill-rule:nonzero" /><path
       id="8"
       class="fil3"
       d="m 1735,8719 -84,-53 -29,-339 -41,-26 -145,227 -65,-41 315,-494 65,42 -142,222 c 27,15 51,22 74,19 23,-2 46,-12 70,-28 11,-8 20,-15 29,-22 9,-7 16,-13 22,-18 38,-29 71,-44 101,-45 29,-1 62,10 99,33 l 20,13 -37,58 -17,-10 c -27,-18 -49,-24 -66,-21 -18,4 -41,18 -68,41 -28,23 -52,38 -72,45 -19,6 -41,9 -63,9 l 34,388 z"
       inkscape:connector-curvature="0"
       style="fill:#ffffff;fill-rule:nonzero" /><path
       id="9"
       class="fil3"
       d="m 1805,8777 546,-289 70,66 -259,561 -59,-56 73,-154 -164,-156 -150,82 -57,-54 z m 402,64 124,-265 -257,139 133,126 z"
       inkscape:connector-curvature="0"
       style="fill:#ffffff;fill-rule:nonzero" /><path
       id="10"
       class="fil3"
       d="m 2658,9329 c -2,18 -7,34 -16,51 -9,17 -24,33 -46,48 -22,15 -45,25 -69,29 -24,5 -49,4 -73,-1 -25,-6 -49,-17 -73,-35 -23,-17 -45,-40 -64,-68 -21,-30 -38,-59 -49,-88 -12,-29 -20,-54 -24,-73 l 71,-50 4,4 c 0,25 5,53 13,84 9,31 21,59 39,83 11,16 24,30 39,43 15,12 31,21 48,24 17,4 32,5 47,2 15,-3 30,-10 47,-22 16,-12 28,-24 35,-38 7,-14 10,-28 10,-44 -1,-15 -5,-32 -12,-48 -7,-17 -17,-34 -29,-51 l -35,-50 53,-37 31,43 c 24,34 50,57 78,68 28,11 55,7 81,-11 12,-9 20,-18 25,-29 5,-11 7,-23 6,-36 -1,-15 -4,-28 -10,-40 -6,-13 -13,-26 -22,-39 -10,-14 -21,-26 -34,-37 -12,-11 -25,-21 -38,-30 -12,-8 -24,-14 -35,-19 -10,-5 -19,-9 -26,-12 l -3,-4 70,-49 c 17,9 38,25 61,46 23,21 44,44 61,68 17,25 30,48 39,69 8,21 13,42 14,63 0,24 -4,45 -12,63 -9,18 -23,34 -43,48 -26,18 -55,25 -86,21 -32,-3 -60,-17 -86,-41 l -5,4 c 6,12 11,26 15,42 3,16 4,32 3,49 z"
       inkscape:connector-curvature="0"
       style="fill:#ffffff;fill-rule:nonzero" /><path
       id="11"
       class="fil3"
       d="m 2518,9629 614,-63 40,87 -451,422 -34,-74 126,-116 -93,-204 -170,19 -32,-71 z m 347,209 214,-198 -289,33 75,165 z"
       inkscape:connector-curvature="0"
       style="fill:#ffffff;fill-rule:nonzero" /><path
       id="12"
       class="fil3"
       d="m 2852,10652 -22,-97 215,-262 -11,-47 -262,60 -17,-76 570,-131 18,76 -257,59 c 8,30 21,52 39,66 18,14 41,24 70,29 13,2 24,3 36,5 11,1 20,2 28,3 47,5 82,17 104,38 21,20 37,51 47,93 l 5,24 -67,15 -5,-19 c -7,-31 -18,-52 -33,-61 -15,-10 -41,-16 -77,-19 -36,-3 -63,-9 -82,-19 -19,-9 -36,-22 -52,-37 l -247,300 z"
       inkscape:connector-curvature="0"
       style="fill:#ffffff;fill-rule:nonzero" /></g></svg>