<?xml version="1.0" encoding="UTF-8" standalone="no"?>
<!-- Creator: CorelDRAW X7 -->

<svg
   xmlns:dc="http://purl.org/dc/elements/1.1/"
   xmlns:cc="http://creativecommons.org/ns#"
   xmlns:rdf="http://www.w3.org/1999/02/22-rdf-syntax-ns#"
   xmlns:svg="http://www.w3.org/2000/svg"
   xmlns="http://www.w3.org/2000/svg"
   xmlns:sodipodi="http://sodipodi.sourceforge.net/DTD/sodipodi-0.dtd"
   xmlns:inkscape="http://www.inkscape.org/namespaces/inkscape"
   xml:space="preserve"
   width="7.8740005in"
   height="7.8740005in"
   version="1.1"
   style="clip-rule:evenodd;fill-rule:evenodd;image-rendering:optimizeQuality;shape-rendering:geometricPrecision;text-rendering:geometricPrecision"
   viewBox="0 0 7874.0005 7874.0005"
   id="svg3549"
   inkscape:version="0.91 r13725"
   sodipodi:docname="Ariadna - Dog-Warriors - [N3] [Vyo].svg"><metadata
     id="metadata3598"><rdf:RDF><cc:Work
         rdf:about=""><dc:format>image/svg+xml</dc:format><dc:type
           rdf:resource="http://purl.org/dc/dcmitype/StillImage" /></cc:Work></rdf:RDF></metadata><sodipodi:namedview
     pagecolor="#ffffff"
     bordercolor="#666666"
     borderopacity="1"
     objecttolerance="10"
     gridtolerance="10"
     guidetolerance="10"
     inkscape:pageopacity="0"
     inkscape:pageshadow="2"
     inkscape:window-width="640"
     inkscape:window-height="480"
     id="namedview3596"
     showgrid="false"
     inkscape:zoom="0.23838384"
     inkscape:cx="736.83001"
     inkscape:cy="849.33005"
     inkscape:window-x="0"
     inkscape:window-y="0"
     inkscape:window-maximized="0"
     inkscape:current-layer="svg3549" /><defs
     id="defs3551"><style
       type="text/css"
       id="style3553"><![CDATA[
    .fil3 {fill:none}
    .fil0 {fill:black}
    .fil4 {fill:#E32527}
    .fil1 {fill:#FFD600}
    .fil2 {fill:#FFD600;fill-rule:nonzero}
   ]]></style></defs><g
     id="Layer_x0020_1"
     transform="translate(3937,-7063)"><metadata
       id="CorelCorpID_0Corel-Layer" /><circle
       class="fil0"
       cy="11000"
       r="3937"
       id="circle3557"
       cx="0"
       style="fill:#000000" /><circle
       class="fil1"
       cy="11000"
       r="3858"
       id="circle3559"
       cx="0"
       style="fill:#ffd600" /><circle
       class="fil0"
       cy="11000"
       r="3661"
       id="circle3561"
       cx="0"
       style="fill:#000000" /><path
       class="fil1"
       d="m 0,8185 c 1555,0 2815,1260 2815,2815 0,747 -291,1425 -765,1929 l -4100,0 c -474,-504 -765,-1182 -765,-1929 0,-1555 1260,-2815 2815,-2815 z"
       id="path3563"
       inkscape:connector-curvature="0"
       style="fill:#ffd600" /><path
       class="fil0"
       d="m -1981,12772 3962,0 c 436,-488 676,-1115 676,-1772 C 2657,9532 1468,8343 0,8343 c -1468,0 -2657,1189 -2657,2657 0,657 240,1284 676,1772 z"
       id="path3565"
       inkscape:connector-curvature="0"
       style="fill:#000000" /><path
       class="fil2"
       d="m -2159,13769 218,-646 106,0 218,646 -91,0 -58,-179 -248,0 -58,179 -87,0 z m 368,-254 -99,-303 -100,303 199,0 z"
       id="path3567"
       inkscape:connector-curvature="0"
       style="fill:#ffd600;fill-rule:nonzero" /><path
       id="1"
       class="fil2"
       d="m -1079,13318 c 0,28 -6,55 -15,80 -10,25 -24,46 -42,64 -22,22 -48,38 -78,50 -30,11 -68,17 -114,17 l -72,0 0,240 -87,0 0,-646 162,0 c 39,0 71,3 98,10 27,6 50,16 71,31 24,16 43,37 56,62 14,26 21,56 21,92 z m -90,2 c 0,-22 -4,-41 -12,-57 -7,-17 -19,-30 -34,-40 -14,-10 -30,-16 -48,-19 -18,-4 -40,-6 -67,-6 l -70,0 0,256 58,0 c 34,0 62,-3 84,-9 21,-5 38,-15 53,-29 12,-13 21,-27 27,-43 6,-15 9,-33 9,-53 z"
       inkscape:connector-curvature="0"
       style="fill:#ffd600;fill-rule:nonzero" /><polygon
       id="2"
       class="fil2"
       points="-840,13769 -927,13769 -927,13123 -841,13123 -841,13628 -554,13123 -463,13123 -463,13769 -549,13769 -549,13256 "
       style="fill:#ffd600;fill-rule:nonzero" /><path
       id="3"
       class="fil2"
       d="m -332,13769 218,-646 106,0 218,646 -91,0 -58,-179 -248,0 -58,179 -87,0 z m 368,-254 -99,-303 -100,303 199,0 z"
       inkscape:connector-curvature="0"
       style="fill:#ffd600;fill-rule:nonzero" /><path
       id="4"
       class="fil2"
       d="m 865,13916 -82,0 0,-148 -419,0 0,148 -81,0 0,-223 35,0 c 38,-62 68,-142 91,-242 23,-100 35,-209 35,-328 l 360,0 0,570 61,0 0,223 z m -148,-223 0,-495 -193,0 c -4,104 -18,199 -39,284 -22,85 -50,155 -84,211 l 316,0 z"
       inkscape:connector-curvature="0"
       style="fill:#ffd600;fill-rule:nonzero" /><polygon
       id="5"
       class="fil2"
       points="1104,13453 1104,13769 1018,13769 1018,13123 1104,13123 1104,13377 1400,13377 1400,13123 1486,13123 1486,13769 1400,13769 1400,13453 "
       style="fill:#ffd600;fill-rule:nonzero" /><path
       id="6"
       class="fil2"
       d="m 1617,13769 218,-646 106,0 218,646 -91,0 -58,-179 -247,0 -59,179 -87,0 z m 369,-254 -100,-303 -99,303 199,0 z"
       inkscape:connector-curvature="0"
       style="fill:#ffd600;fill-rule:nonzero" /><circle
       class="fil3"
       cy="11000"
       r="3898"
       id="circle3575"
       cx="0"
       style="fill:none" /><polygon
       class="fil2"
       points="-2624,8711 -2197,9116 -2258,9180 -2741,8721 -2409,8371 -1926,8830 -1987,8894 -2413,8489 "
       id="polygon3577"
       style="fill:#ffd600;fill-rule:nonzero" /><polygon
       id="polygon3579"
       class="fil2"
       points="-1794,8015 -2065,8199 -1962,8350 -1710,8178 -1666,8243 -1918,8415 -1779,8618 -1509,8434 -1464,8500 -1808,8734 -2183,8184 -1839,7949 "
       style="fill:#ffd600;fill-rule:nonzero" /><path
       id="path3581"
       class="fil2"
       d="m -1127,8343 c -39,18 -79,28 -118,30 -40,2 -77,-5 -114,-20 -36,-15 -70,-40 -101,-73 -31,-33 -58,-76 -82,-127 -23,-50 -36,-98 -41,-141 -4,-44 0,-85 12,-124 12,-39 31,-72 58,-102 26,-29 60,-53 101,-72 21,-9 40,-16 60,-22 19,-5 37,-8 55,-11 14,-1 30,-2 47,-3 16,0 33,1 50,2 l 44,98 -7,3 c -10,-4 -22,-7 -38,-11 -15,-4 -33,-7 -53,-9 -19,-1 -39,-1 -60,2 -21,3 -43,10 -67,21 -26,12 -48,28 -66,49 -18,21 -31,46 -39,75 -8,28 -10,60 -5,96 5,35 16,72 34,111 19,42 40,75 64,101 23,25 49,44 75,57 26,12 53,18 81,18 27,0 54,-6 79,-18 24,-10 44,-23 61,-38 17,-15 32,-30 43,-46 11,-15 20,-29 27,-43 7,-14 12,-25 16,-34 l 6,-3 44,96 c -11,12 -21,24 -30,35 -9,11 -21,23 -36,36 -15,14 -29,26 -43,36 -13,9 -32,20 -57,31 z"
       inkscape:connector-curvature="0"
       style="fill:#ffd600;fill-rule:nonzero" /><polygon
       id="polygon3583"
       class="fil2"
       points="-172,7767 -162,7838 -660,7912 -671,7842 "
       style="fill:#ffd600;fill-rule:nonzero" /><path
       id="path3585"
       class="fil2"
       d="m 738,7980 c -5,33 -16,61 -32,84 -17,23 -37,41 -60,54 -28,15 -57,24 -86,28 -30,4 -67,2 -112,-6 l -189,-30 106,-658 175,28 c 47,8 82,15 105,22 22,7 44,18 63,33 22,16 36,35 44,58 8,22 9,47 5,75 -5,31 -18,57 -38,79 -21,22 -46,37 -77,46 l -1,4 c 38,17 65,41 82,73 17,31 22,68 15,110 z m -74,-314 c 3,-16 2,-31 -1,-43 -4,-12 -11,-23 -22,-32 -13,-10 -28,-17 -45,-22 -17,-5 -41,-9 -71,-14 l -85,-14 -31,193 100,16 c 27,4 48,6 61,5 14,0 28,-4 43,-11 15,-6 26,-16 34,-29 8,-12 14,-29 17,-49 z m -17,303 c 4,-25 4,-45 -1,-63 -4,-17 -17,-33 -36,-47 -13,-10 -27,-17 -44,-22 -16,-4 -39,-9 -69,-14 l -99,-16 -40,242 72,11 c 38,7 69,10 91,10 23,0 44,-4 63,-13 18,-9 32,-20 42,-33 10,-13 17,-32 21,-55 z"
       inkscape:connector-curvature="0"
       style="fill:#ffd600;fill-rule:nonzero" /><path
       id="path3587"
       class="fil2"
       d="m 1451,7817 c 14,36 20,77 18,122 -2,46 -12,95 -31,147 -19,50 -42,94 -70,130 -28,36 -59,64 -94,82 -36,20 -73,31 -113,32 -39,1 -79,-5 -120,-20 -42,-16 -77,-37 -106,-64 -29,-27 -50,-58 -64,-96 -14,-36 -20,-77 -18,-123 2,-45 13,-93 31,-145 20,-52 43,-96 71,-131 27,-35 59,-62 93,-82 34,-19 71,-29 110,-31 40,-2 81,4 122,20 43,15 79,37 107,64 29,28 50,59 64,95 z m -100,237 c 16,-42 25,-80 27,-115 3,-36 0,-67 -8,-94 -9,-27 -23,-51 -42,-70 -20,-20 -44,-35 -73,-45 -31,-11 -59,-16 -85,-14 -27,3 -53,12 -78,27 -25,16 -47,38 -68,67 -21,29 -38,64 -53,104 -30,82 -36,152 -18,208 19,56 57,95 115,116 58,21 112,16 163,-14 50,-31 90,-88 120,-170 z"
       inkscape:connector-curvature="0"
       style="fill:#ffd600;fill-rule:nonzero" /><polygon
       id="polygon3589"
       class="fil2"
       points="1490,8517 1415,8468 1773,7907 1848,7954 1568,8393 2098,8114 2177,8164 1819,8726 1744,8678 2028,8232 "
       style="fill:#ffd600;fill-rule:nonzero" /><polygon
       id="7"
       class="fil2"
       points="2231,8669 1993,8892 1932,8828 2418,8371 2479,8436 2289,8615 2497,8837 2688,8658 2749,8723 2263,9180 2202,9115 2440,8891 "
       style="fill:#ffd600;fill-rule:nonzero" /><path
       class="fil4"
       d="m 1654,8992 c -197,827 -709,1575 -1536,2087 l -65,1250 c 147,-549 506,-858 873,-1153 361,-290 723,-545 924,-1121 56,-159 -18,-735 -196,-1063 z M 59,12614 c 433,-1023 1831,-1063 1870,-2283 4,-118 -20,-192 -49,-238 -108,435 -400,785 -758,1084 -72,60 -323,196 -394,256 -329,281 -601,600 -669,1181 z"
       id="path3592"
       inkscape:connector-curvature="0"
       style="fill:#e32527" /><path
       class="fil4"
       d="m -1654,8992 c 197,827 709,1575 1536,2087 l 65,1250 c -147,-549 -506,-858 -873,-1153 -361,-290 -723,-545 -924,-1121 -56,-159 18,-735 196,-1063 z m 1595,3622 c -433,-1023 -1831,-1063 -1870,-2283 -4,-118 20,-192 49,-238 108,435 400,785 758,1084 72,60 323,196 394,256 329,281 601,600 669,1181 z"
       id="path3594"
       inkscape:connector-curvature="0"
       style="fill:#e32527" /></g></svg>