<?xml version="1.0" encoding="UTF-8" standalone="no"?>
<!-- Creator: CorelDRAW X7 -->

<svg
   xmlns:dc="http://purl.org/dc/elements/1.1/"
   xmlns:cc="http://creativecommons.org/ns#"
   xmlns:rdf="http://www.w3.org/1999/02/22-rdf-syntax-ns#"
   xmlns:svg="http://www.w3.org/2000/svg"
   xmlns="http://www.w3.org/2000/svg"
   xmlns:sodipodi="http://sodipodi.sourceforge.net/DTD/sodipodi-0.dtd"
   xmlns:inkscape="http://www.inkscape.org/namespaces/inkscape"
   xml:space="preserve"
   width="7.8770003in"
   height="7.8770003in"
   version="1.1"
   style="clip-rule:evenodd;fill-rule:evenodd;image-rendering:optimizeQuality;shape-rendering:geometricPrecision;text-rendering:geometricPrecision"
   viewBox="0 0 7877.0003 7877.0003"
   id="svg5395"
   inkscape:version="0.91 r13725"
   sodipodi:docname="ariadna_traktor_mul.svg"><metadata
     id="metadata5609"><rdf:RDF><cc:Work
         rdf:about=""><dc:format>image/svg+xml</dc:format><dc:type
           rdf:resource="http://purl.org/dc/dcmitype/StillImage" /></cc:Work></rdf:RDF></metadata><sodipodi:namedview
     pagecolor="#ffffff"
     bordercolor="#666666"
     borderopacity="1"
     objecttolerance="10"
     gridtolerance="10"
     guidetolerance="10"
     inkscape:pageopacity="0"
     inkscape:pageshadow="2"
     inkscape:window-width="640"
     inkscape:window-height="480"
     id="namedview5607"
     showgrid="false"
     inkscape:zoom="0.23838384"
     inkscape:cx="736.96501"
     inkscape:cy="849.46505"
     inkscape:window-x="0"
     inkscape:window-y="0"
     inkscape:window-maximized="0"
     inkscape:current-layer="svg5395" /><defs
     id="defs5397"><style
       type="text/css"
       id="style5399"><![CDATA[
    .str2 {stroke:black;stroke-width:39.3701}
    .str0 {stroke:black;stroke-width:3}
    .str1 {stroke:white;stroke-width:3}
    .fil3 {fill:none}
    .fil0 {fill:black}
    .fil4 {fill:black}
    .fil5 {fill:#63B521}
    .fil1 {fill:#FFD600}
    .fil6 {fill:white}
    .fil2 {fill:white;fill-rule:nonzero}
   ]]></style></defs><g
     id="Layer_x0020_1"
     transform="translate(3938.5,-7061.5)"><metadata
       id="CorelCorpID_0Corel-Layer" /><circle
       class="fil0 str0"
       cy="11000"
       r="3937"
       id="circle5403"
       cx="0"
       style="fill:#000000;stroke:#000000;stroke-width:3" /><circle
       class="fil1 str0"
       cy="11000"
       r="3819"
       id="circle5405"
       cx="0"
       style="fill:#ffd600;stroke:#000000;stroke-width:3" /><circle
       class="fil0 str0"
       cy="11000"
       r="3701"
       id="circle5407"
       cx="0"
       style="fill:#000000;stroke:#000000;stroke-width:3" /><path
       class="fil1 str0"
       d="m 0,8185 c 1555,0 2815,1260 2815,2815 0,747 -291,1425 -765,1929 l -4100,0 c -474,-504 -765,-1182 -765,-1929 0,-1555 1260,-2815 2815,-2815 z"
       id="path5409"
       inkscape:connector-curvature="0"
       style="fill:#ffd600;stroke:#000000;stroke-width:3" /><path
       class="fil0 str1"
       d="m -1981,12772 3962,0 c 436,-488 676,-1115 676,-1772 C 2657,9532 1468,8343 0,8343 c -1468,0 -2657,1189 -2657,2657 0,657 240,1284 676,1772 z"
       id="path5411"
       inkscape:connector-curvature="0"
       style="fill:#000000;stroke:#ffffff;stroke-width:3" /><path
       class="fil2"
       d="m -2159,13769 218,-646 106,0 218,646 -91,0 -58,-179 -248,0 -58,179 -87,0 z m 368,-254 -99,-303 -100,303 199,0 z"
       id="path5413"
       inkscape:connector-curvature="0"
       style="fill:#ffffff;fill-rule:nonzero" /><path
       id="1"
       class="fil2"
       d="m -1079,13318 c 0,28 -6,55 -15,80 -10,25 -24,46 -42,64 -22,22 -48,38 -78,50 -30,11 -68,17 -114,17 l -72,0 0,240 -87,0 0,-646 162,0 c 39,0 71,3 98,10 27,6 50,16 71,31 24,16 43,37 56,62 14,26 21,56 21,92 z m -90,2 c 0,-22 -4,-41 -12,-57 -7,-17 -19,-30 -34,-40 -14,-10 -30,-16 -48,-19 -18,-4 -40,-6 -67,-6 l -70,0 0,256 58,0 c 34,0 62,-3 84,-9 21,-5 38,-15 53,-29 12,-13 21,-27 27,-43 6,-15 9,-33 9,-53 z"
       inkscape:connector-curvature="0"
       style="fill:#ffffff;fill-rule:nonzero" /><polygon
       id="2"
       class="fil2"
       points="-840,13769 -927,13769 -927,13123 -841,13123 -841,13628 -554,13123 -463,13123 -463,13769 -549,13769 -549,13256 "
       style="fill:#ffffff;fill-rule:nonzero" /><path
       id="3"
       class="fil2"
       d="m -332,13769 218,-646 106,0 218,646 -91,0 -58,-179 -248,0 -58,179 -87,0 z m 368,-254 -99,-303 -100,303 199,0 z"
       inkscape:connector-curvature="0"
       style="fill:#ffffff;fill-rule:nonzero" /><path
       id="4"
       class="fil2"
       d="m 865,13916 -82,0 0,-148 -419,0 0,148 -81,0 0,-223 35,0 c 38,-62 68,-142 91,-242 23,-100 35,-209 35,-328 l 360,0 0,570 61,0 0,223 z m -148,-223 0,-495 -193,0 c -4,104 -18,199 -39,284 -22,85 -50,155 -84,211 l 316,0 z"
       inkscape:connector-curvature="0"
       style="fill:#ffffff;fill-rule:nonzero" /><polygon
       id="5"
       class="fil2"
       points="1104,13453 1104,13769 1018,13769 1018,13123 1104,13123 1104,13377 1400,13377 1400,13123 1486,13123 1486,13769 1400,13769 1400,13453 "
       style="fill:#ffffff;fill-rule:nonzero" /><path
       id="6"
       class="fil2"
       d="m 1617,13769 218,-646 106,0 218,646 -91,0 -58,-179 -247,0 -59,179 -87,0 z m 369,-254 -100,-303 -99,303 199,0 z"
       inkscape:connector-curvature="0"
       style="fill:#ffffff;fill-rule:nonzero" /><circle
       class="fil3 str0"
       cy="11000"
       r="3898"
       id="circle5421"
       cx="0"
       style="fill:none;stroke:#000000;stroke-width:3" /><g
       id="_837969760"><g
         id="g5424"><path
           class="fil4"
           d="m 1722,9786 c 0,0 0,1 0,1 -1,0 -2,1 -3,2 -42,38 -113,60 -169,58 l -195,-3 c -60,-2 -116,-41 -127,-102 -7,-42 11,-81 42,-108 l 1,0 -100,-2 c -132,-2 -188,-132 -70,-213 l 4,-3 -78,-15 c -61,-11 -131,-46 -133,-118 -2,-61 41,-95 98,-101 l 22,-2 -95,-133 c -20,-27 -39,-59 -36,-93 2,-24 14,-43 31,-59 17,-15 38,-25 61,-25 36,1 65,23 90,45 l 122,109 5,-21 c 11,-57 49,-96 110,-88 71,10 99,83 104,146 l 6,79 3,-4 c 33,-39 83,-68 134,-48 56,22 76,85 72,140 l -9,99 0,0 c 30,-29 71,-43 112,-31 59,17 92,77 87,136 l -16,195 c -5,54 -33,121 -73,159 z"
           id="path5426"
           inkscape:connector-curvature="0"
           style="fill:#000000" /></g><g
         id="g5428"><path
           class="fil5"
           d="m 1772,9429 -16,195 c -5,53 -34,109 -63,136 -30,26 -89,49 -142,48 l -195,-4 c -80,-1 -123,-87 -60,-140 l 40,-34 c 14,-11 7,-34 -13,-35 l -151,-2 c -88,-1 -139,-80 -49,-142 l 52,-35 c 14,-10 -1,-27 -34,-34 l -106,-20 c -47,-8 -100,-32 -102,-80 -1,-36 21,-56 63,-61 l 49,-4 c 20,-2 19,-35 10,-48 L 951,9024 c -27,-37 -44,-70 -10,-100 33,-29 64,-9 97,21 l 134,118 c 12,11 44,15 48,-4 l 10,-48 c 9,-42 31,-61 67,-56 47,6 66,61 69,109 l 9,108 c 3,33 18,50 30,37 l 40,-48 c 71,-83 144,-25 136,63 l -13,150 c -2,20 20,30 33,18 l 38,-37 c 59,-57 140,-5 133,74 z"
           id="path5430"
           inkscape:connector-curvature="0"
           style="fill:#63b521" /><path
           class="fil0"
           d="m 1268,9255 154,171 59,-213 c 3,-10 13,-17 24,-14 10,3 16,14 14,25 l -66,236 187,208 23,-219 c 1,-11 11,-19 22,-18 10,1 18,11 17,22 l -27,255 21,22 c 7,8 6,21 -2,28 -8,7 -20,7 -27,-1 l -21,-23 -256,0 c -11,0 -20,-9 -20,-20 0,-10 9,-19 20,-19 l 221,0 -187,-208 -243,41 c -11,1 -21,-6 -23,-17 -1,-10 6,-21 17,-22 l 217,-37 -154,-171 -214,16 c -11,0 -20,-8 -21,-19 -1,-10 7,-20 18,-21 l 184,-13 -171,-189 c -7,-9 -6,-21 2,-28 8,-8 20,-7 28,1 l 170,190 33,-182 c 1,-10 12,-17 22,-16 11,2 18,13 16,23 l -37,212 z"
           id="path5432"
           inkscape:connector-curvature="0"
           style="fill:#000000" /></g><g
         id="g5434"><path
           class="fil4"
           d="m 1873,10616 c 0,0 -1,0 -1,0 -1,1 -2,1 -3,1 -54,16 -128,4 -178,-21 l -173,-89 c -102,-52 -101,-196 16,-225 l 0,-1 -89,-45 c -118,-59 -111,-201 31,-222 l 5,-1 -64,-48 c -50,-37 -98,-99 -68,-164 25,-56 78,-68 132,-48 l 21,8 -27,-162 c -6,-33 -9,-69 9,-99 12,-20 31,-32 53,-39 23,-6 45,-6 66,5 32,16 48,48 61,79 l 62,152 13,-18 c 36,-45 87,-63 138,-30 60,40 52,118 29,176 l -29,74 5,-2 c 47,-20 104,-25 142,16 40,43 31,110 2,157 l -51,85 0,0 c 40,-13 82,-7 114,21 46,42 50,110 19,161 l -100,168 c -28,47 -82,94 -135,111 z"
           id="path5436"
           inkscape:connector-curvature="0"
           style="fill:#000000" /></g><g
         id="g5438"><path
           class="fil5"
           d="m 2074,10317 -100,168 c -27,45 -78,84 -116,94 -38,11 -101,6 -149,-18 l -174,-89 c -70,-37 -71,-132 8,-152 l 51,-13 c 18,-5 21,-29 3,-38 l -134,-68 c -79,-40 -90,-132 19,-148 l 62,-10 c 17,-2 11,-24 -17,-45 l -86,-64 c -39,-29 -76,-73 -56,-117 15,-33 43,-41 83,-27 l 46,17 c 18,7 32,-22 30,-38 l -30,-176 c -8,-45 -9,-82 34,-94 43,-12 62,19 79,61 l 68,165 c 6,16 33,33 46,17 l 30,-39 c 25,-33 54,-41 84,-21 40,27 32,84 15,129 l -40,101 c -12,31 -5,53 10,46 l 58,-25 c 100,-44 140,41 95,116 l -78,129 c -11,18 5,36 22,31 l 50,-17 c 78,-25 128,57 87,125 z"
           id="path5440"
           inkscape:connector-curvature="0"
           style="fill:#63b521" /><path
           class="fil0"
           d="m 1697,9939 64,221 146,-165 c 7,-8 20,-9 28,-2 8,8 9,20 2,28 l -163,184 77,269 117,-187 c 5,-9 17,-12 27,-6 9,6 12,18 6,27 l -136,217 9,29 c 3,11 -3,22 -14,25 -10,3 -21,-3 -24,-14 l -9,-29 -230,-112 c -10,-5 -14,-17 -9,-27 5,-9 17,-13 26,-9 l 199,97 -77,-269 -236,-70 c -10,-3 -16,-14 -13,-24 3,-10 14,-16 24,-13 l 212,62 -64,-221 -199,-80 c -10,-4 -15,-15 -11,-26 4,-10 16,-14 26,-10 l 171,68 -71,-245 c -3,-10 3,-21 14,-24 10,-3 21,3 24,13 l 70,245 109,-148 c 6,-9 19,-11 28,-5 8,7 10,19 4,28 l -127,173 z"
           id="path5442"
           inkscape:connector-curvature="0"
           style="fill:#000000" /></g><g
         id="g5444"><path
           class="fil4"
           d="m 1645,11428 c -1,0 -1,0 -2,0 -1,0 -2,0 -3,-1 -55,-9 -116,-52 -150,-97 l -117,-156 c -68,-91 -4,-220 113,-195 l 1,0 -61,-80 c -33,-44 -49,-108 -13,-156 33,-44 90,-46 139,-30 l 5,1 -37,-70 c -29,-56 -44,-133 11,-178 47,-40 100,-27 140,15 l 15,16 46,-157 c 10,-32 23,-67 52,-86 20,-12 42,-15 65,-11 23,4 43,14 57,33 22,28 22,65 20,98 l -11,164 20,-10 c 52,-26 106,-20 137,33 36,62 -4,129 -51,171 l -58,54 5,0 c 51,2 104,23 120,76 17,57 -20,113 -66,142 l -84,54 1,0 c 119,17 133,161 39,223 l -163,106 c -46,30 -116,49 -170,41 z"
           id="path5446"
           inkscape:connector-curvature="0"
           style="fill:#000000" /></g><g
         id="g5448"><path
           class="fil5"
           d="m 1957,11248 -164,106 c -44,30 -107,42 -146,35 -39,-7 -93,-40 -125,-82 l -117,-157 c -48,-63 -7,-150 73,-133 l 52,11 c 18,4 31,-16 19,-32 l -91,-120 c -53,-71 -23,-159 82,-126 l 60,19 c 16,5 20,-17 5,-47 l -50,-97 c -22,-42 -36,-98 1,-129 28,-23 57,-18 86,12 l 34,36 c 14,14 39,-6 44,-22 l 50,-171 c 13,-43 28,-77 72,-69 44,7 47,44 44,89 l -11,178 c -1,17 16,45 34,36 l 44,-22 c 37,-19 67,-13 85,18 24,41 -8,90 -43,122 l -80,73 c -25,23 -29,46 -11,47 l 62,2 c 110,5 109,98 35,146 l -127,82 c -17,11 -11,34 7,37 l 52,7 c 81,12 90,107 24,151 z"
           id="path5450"
           inkscape:connector-curvature="0"
           style="fill:#63b521" /><path
           class="fil0"
           d="m 1783,10743 -40,226 204,-84 c 10,-4 22,1 26,11 4,10 -1,21 -11,25 l -227,94 -48,276 187,-117 c 9,-6 21,-3 27,6 6,9 3,22 -6,27 l -217,136 -6,30 c -2,11 -12,18 -23,16 -10,-2 -17,-12 -16,-23 l 6,-30 -158,-202 c -7,-8 -5,-21 3,-27 9,-7 21,-5 28,3 l 136,174 49,-275 -182,-166 c -8,-8 -8,-20 -1,-28 7,-8 20,-9 28,-1 l 163,149 40,-227 -145,-159 c -7,-8 -6,-21 2,-28 8,-7 20,-7 28,1 l 123,137 45,-251 c 1,-11 12,-18 22,-16 11,2 18,12 16,23 l -44,251 163,-86 c 9,-5 21,-2 26,8 6,9 2,21 -8,26 l -190,101 z"
           id="path5452"
           inkscape:connector-curvature="0"
           style="fill:#000000" /></g><g
         id="g5454"><path
           class="fil4"
           d="m 1083,12058 c 0,0 0,0 -1,-1 0,0 -1,-1 -2,-2 -46,-32 -82,-98 -92,-153 l -37,-191 c -11,-59 15,-122 73,-145 39,-16 81,-7 114,19 l 0,0 -19,-98 c -25,-129 91,-212 195,-113 l 3,4 -2,-80 c -1,-63 19,-138 88,-155 60,-14 102,20 119,75 l 7,21 110,-121 c 23,-24 49,-50 84,-54 23,-3 45,5 64,18 19,14 32,32 37,55 7,35 -9,68 -26,97 l -81,142 22,0 c 58,0 104,29 109,90 5,71 -61,114 -121,131 l -76,23 5,3 c 126,68 83,204 -48,219 l -99,12 1,1 c 99,67 51,202 -62,217 l -194,24 c -54,7 -125,-7 -171,-38 z"
           id="path5456"
           inkscape:connector-curvature="0"
           style="fill:#000000" /></g><g
         id="g5458"><path
           class="fil5"
           d="m 1443,12033 -194,24 c -53,6 -114,-10 -146,-33 -32,-24 -67,-77 -77,-129 l -37,-192 c -14,-78 60,-138 125,-87 l 41,32 c 15,11 36,-1 32,-21 l -29,-148 c -17,-86 49,-152 128,-76 l 46,43 c 12,12 26,-7 25,-41 l -2,-108 c -1,-47 11,-104 57,-116 35,-8 60,9 73,49 l 14,47 c 7,19 38,12 49,0 l 120,-132 c 31,-34 60,-57 96,-31 36,26 22,61 0,100 l -88,155 c -8,15 -5,47 15,47 l 48,-1 c 43,0 67,18 69,54 4,48 -46,77 -92,91 l -104,31 c -32,9 -46,28 -30,36 l 55,30 c 96,52 54,136 -33,146 l -150,18 c -20,3 -25,26 -10,37 l 44,29 c 67,46 33,136 -45,146 z"
           id="path5460"
           inkscape:connector-curvature="0"
           style="fill:#63b521" /><path
           class="fil0"
           d="m 1508,11503 -135,186 221,14 c 10,0 19,10 18,20 -1,11 -10,20 -21,19 l -245,-15 -165,226 220,-23 c 11,-1 20,7 22,17 1,11 -7,21 -18,22 l -255,27 -18,25 c -6,8 -18,10 -27,4 -9,-6 -11,-19 -5,-28 l 18,-24 -53,-251 c -2,-10 5,-21 15,-23 11,-2 21,4 24,15 l 46,216 164,-226 -90,-229 c -4,-10 1,-22 11,-26 10,-4 21,1 25,11 l 81,206 136,-186 -60,-207 c -3,-10 3,-21 13,-24 11,-3 22,3 25,13 l 51,177 150,-206 c 6,-9 19,-11 27,-4 9,6 11,18 5,27 l -150,206 184,-6 c 11,0 20,9 20,19 1,11 -8,20 -19,21 l -215,7 z"
           id="path5462"
           inkscape:connector-curvature="0"
           style="fill:#000000" /></g><g
         id="g5464"><path
           class="fil4"
           d="m 560,11977 25,-97 c 34,-127 174,-150 225,-16 l 1,5 33,-72 c 27,-57 77,-116 147,-101 60,13 83,62 74,120 l -3,22 152,-61 c 32,-12 67,-23 100,-12 22,8 38,24 49,45 11,20 15,42 9,65 -9,34 -38,57 -65,76 l -136,92 20,10 c 52,25 81,71 58,128 -26,66 -104,76 -166,65 l -78,-13 3,4 c 30,42 46,97 14,142 -34,48 -101,53 -153,35 l -94,-32 0,0 c 21,36 24,79 3,116 -31,54 -97,71 -154,52 l -184,-63 c -53,-18 -113,-63 -139,-113 -27,-49 -31,-124 -16,-178 l 51,-188 c 30,-110 171,-139 223,-32 l 1,1 z"
           id="path5466"
           inkscape:connector-curvature="0"
           style="fill:#000000" /></g><g
         id="g5468"><path
           class="fil5"
           d="m 637,12513 -185,-63 c -50,-18 -98,-60 -116,-94 -19,-35 -27,-98 -13,-150 l 51,-188 c 21,-77 114,-98 150,-24 l 23,47 c 8,17 32,15 38,-5 l 38,-145 c 23,-86 111,-116 150,-13 l 22,59 c 6,16 26,5 40,-25 l 45,-99 c 20,-43 56,-89 103,-79 35,8 49,34 43,76 l -7,48 c -3,20 29,28 44,22 l 166,-66 c 42,-17 78,-25 99,14 21,39 -6,65 -44,90 l -147,101 c -14,9 -25,39 -7,48 l 44,21 c 38,18 52,45 39,79 -18,44 -76,48 -123,40 l -107,-17 c -33,-6 -54,5 -44,19 l 37,51 c 64,90 -11,146 -94,117 l -142,-49 c -19,-7 -34,12 -25,28 l 26,46 c 41,71 -29,136 -104,111 z"
           id="path5470"
           inkscape:connector-curvature="0"
           style="fill:#63b521" /><path
           class="fil0"
           d="m 928,12065 -203,108 192,109 c 10,6 13,18 8,27 -6,9 -18,13 -27,7 l -214,-121 -247,132 207,75 c 11,4 16,15 12,25 -4,11 -15,16 -25,12 l -241,-88 -27,15 c -9,5 -21,1 -26,-8 -5,-10 -2,-22 8,-27 l 27,-14 62,-249 c 2,-10 13,-17 24,-14 10,3 16,13 14,24 l -53,214 246,-131 20,-246 c 0,-10 10,-18 21,-18 11,1 19,11 18,22 l -17,220 203,-108 37,-212 c 2,-11 12,-18 22,-16 11,2 18,12 16,23 l -31,181 225,-120 c 10,-5 22,-1 27,9 5,9 1,21 -8,26 l -226,120 168,75 c 10,5 15,16 10,26 -4,10 -16,15 -26,10 l -196,-88 z"
           id="path5472"
           inkscape:connector-curvature="0"
           style="fill:#000000" /></g></g><g
       id="_835863584"><g
         id="g5475"><path
           class="fil4"
           d="m -1722,9786 c 0,0 0,1 0,1 1,0 2,1 3,2 42,38 113,60 169,58 l 195,-3 c 60,-2 116,-41 127,-102 7,-42 -11,-81 -42,-108 l -1,0 100,-2 c 132,-2 188,-132 70,-213 l -4,-3 78,-15 c 61,-11 131,-46 133,-118 2,-61 -41,-95 -98,-101 l -22,-2 95,-133 c 20,-27 39,-59 36,-93 -2,-24 -14,-43 -31,-59 -17,-15 -38,-25 -61,-25 -36,1 -65,23 -90,45 l -122,109 -5,-21 c -11,-57 -49,-96 -110,-88 -71,10 -99,83 -104,146 l -6,79 -3,-4 c -33,-39 -83,-68 -134,-48 -56,22 -76,85 -72,140 l 9,99 0,0 c -30,-29 -71,-43 -112,-31 -59,17 -92,77 -87,136 l 16,195 c 5,54 33,121 73,159 z"
           id="path5477"
           inkscape:connector-curvature="0"
           style="fill:#000000" /></g><g
         id="g5479"><path
           class="fil5"
           d="m -1772,9429 16,195 c 5,53 34,109 63,136 30,26 89,49 142,48 l 195,-4 c 80,-1 123,-87 60,-140 l -40,-34 c -14,-11 -7,-34 13,-35 l 151,-2 c 88,-1 139,-80 49,-142 l -52,-35 c -14,-10 1,-27 34,-34 l 106,-20 c 47,-8 100,-32 102,-80 1,-36 -21,-56 -63,-61 l -49,-4 c -20,-2 -19,-35 -10,-48 l 104,-145 c 27,-37 44,-70 10,-100 -33,-29 -64,-9 -97,21 l -134,118 c -12,11 -44,15 -48,-4 l -10,-48 c -9,-42 -31,-61 -67,-56 -47,6 -66,61 -69,109 l -9,108 c -3,33 -18,50 -30,37 l -40,-48 c -71,-83 -144,-25 -136,63 l 13,150 c 2,20 -20,30 -33,18 l -38,-37 c -59,-57 -140,-5 -133,74 z"
           id="path5481"
           inkscape:connector-curvature="0"
           style="fill:#63b521" /><path
           class="fil0"
           d="m -1268,9255 -154,171 -59,-213 c -3,-10 -13,-17 -24,-14 -10,3 -16,14 -14,25 l 66,236 -187,208 -23,-219 c -1,-11 -11,-19 -22,-18 -10,1 -18,11 -17,22 l 27,255 -21,22 c -7,8 -6,21 2,28 8,7 20,7 27,-1 l 21,-23 256,0 c 11,0 20,-9 20,-20 0,-10 -9,-19 -20,-19 l -221,0 188,-208 242,41 c 11,1 21,-6 23,-17 1,-10 -6,-21 -17,-22 l -217,-37 154,-171 214,16 c 11,0 20,-8 21,-19 1,-10 -7,-20 -18,-21 l -184,-13 171,-189 c 7,-9 6,-21 -2,-28 -8,-8 -20,-7 -28,1 l -170,190 -33,-182 c -1,-10 -12,-17 -22,-16 -11,2 -18,13 -16,23 l 37,212 z"
           id="path5483"
           inkscape:connector-curvature="0"
           style="fill:#000000" /></g><g
         id="g5485"><path
           class="fil4"
           d="m -1873,10616 c 0,0 1,0 1,0 1,1 2,1 3,1 54,16 128,4 178,-21 l 173,-89 c 102,-52 101,-196 -16,-225 l 0,-1 89,-45 c 118,-59 111,-201 -31,-222 l -5,-1 64,-48 c 50,-37 98,-99 68,-164 -25,-56 -78,-68 -132,-48 l -21,8 27,-162 c 6,-33 9,-69 -9,-99 -12,-20 -31,-32 -53,-39 -23,-6 -45,-6 -66,5 -32,16 -48,48 -61,79 l -62,152 -13,-18 c -36,-45 -87,-63 -138,-30 -60,40 -52,118 -29,176 l 29,74 -5,-2 c -47,-20 -104,-25 -142,16 -40,43 -31,110 -2,157 l 51,85 0,0 c -40,-13 -82,-7 -114,21 -46,42 -50,110 -19,161 l 100,168 c 28,47 82,94 135,111 z"
           id="path5487"
           inkscape:connector-curvature="0"
           style="fill:#000000" /></g><g
         id="g5489"><path
           class="fil5"
           d="m -2074,10317 100,168 c 27,45 78,84 116,94 38,11 101,6 149,-18 l 174,-89 c 70,-37 71,-132 -8,-152 l -51,-13 c -18,-5 -21,-29 -3,-38 l 134,-68 c 79,-40 90,-132 -19,-148 l -62,-10 c -17,-2 -11,-24 17,-45 l 86,-64 c 39,-29 76,-73 56,-117 -15,-33 -43,-41 -83,-27 l -46,17 c -18,7 -32,-22 -30,-38 l 30,-176 c 8,-45 9,-82 -34,-94 -43,-12 -62,19 -79,61 l -68,165 c -6,16 -33,33 -46,17 l -30,-39 c -25,-33 -54,-41 -84,-21 -40,27 -32,84 -15,129 l 40,101 c 12,31 5,53 -10,46 l -58,-25 c -100,-44 -140,41 -95,116 l 78,129 c 11,18 -5,36 -22,31 l -50,-17 c -78,-25 -128,57 -87,125 z"
           id="path5491"
           inkscape:connector-curvature="0"
           style="fill:#63b521" /><path
           class="fil0"
           d="m -1697,9939 -64,221 -146,-165 c -7,-8 -20,-9 -28,-2 -8,8 -9,20 -2,28 l 163,184 -77,269 -117,-187 c -5,-9 -17,-12 -27,-6 -9,6 -12,18 -6,27 l 136,217 -9,29 c -3,11 3,22 14,25 10,3 21,-3 24,-14 l 9,-29 230,-112 c 10,-5 14,-17 9,-27 -5,-9 -17,-13 -26,-9 l -199,97 77,-269 236,-70 c 11,-3 16,-14 13,-24 -3,-10 -14,-16 -24,-13 l -212,62 64,-221 199,-80 c 10,-4 15,-15 11,-26 -4,-10 -16,-14 -26,-10 l -171,68 71,-245 c 3,-10 -3,-21 -14,-24 -10,-3 -21,3 -24,13 l -70,245 -109,-148 c -6,-9 -19,-11 -28,-5 -8,7 -10,19 -4,28 l 127,173 z"
           id="path5493"
           inkscape:connector-curvature="0"
           style="fill:#000000" /></g><g
         id="g5495"><path
           class="fil4"
           d="m -1645,11428 c 1,0 1,0 2,0 1,0 2,0 3,-1 55,-9 116,-52 150,-97 l 117,-156 c 68,-91 4,-220 -113,-195 l -1,0 61,-80 c 33,-44 49,-108 13,-156 -33,-44 -90,-46 -139,-30 l -5,1 37,-70 c 29,-56 44,-133 -11,-178 -47,-40 -100,-27 -140,15 l -15,16 -46,-157 c -10,-32 -23,-67 -52,-86 -20,-12 -42,-15 -65,-11 -23,4 -43,14 -57,33 -22,28 -22,65 -20,98 l 11,164 -20,-10 c -52,-26 -106,-20 -137,33 -36,62 4,129 51,171 l 58,54 -5,0 c -51,2 -104,23 -120,76 -17,57 20,113 66,142 l 84,54 -1,0 c -119,17 -133,161 -39,223 l 163,106 c 46,30 116,49 170,41 z"
           id="path5497"
           inkscape:connector-curvature="0"
           style="fill:#000000" /></g><g
         id="g5499"><path
           class="fil5"
           d="m -1957,11248 164,106 c 44,30 107,42 146,35 39,-7 93,-40 125,-82 l 117,-157 c 48,-63 7,-150 -73,-133 l -52,11 c -18,4 -31,-16 -19,-32 l 91,-120 c 53,-71 23,-159 -82,-126 l -60,19 c -16,5 -20,-17 -5,-47 l 50,-97 c 22,-42 36,-98 -1,-129 -28,-23 -57,-18 -86,12 l -34,36 c -14,14 -39,-6 -44,-22 l -50,-171 c -13,-43 -28,-77 -72,-69 -44,7 -47,44 -44,89 l 11,178 c 1,17 -16,45 -34,36 l -44,-22 c -37,-19 -67,-13 -85,18 -24,41 8,90 43,122 l 80,73 c 25,23 29,46 11,47 l -62,2 c -110,5 -109,98 -35,146 l 127,82 c 17,11 11,34 -7,37 l -52,7 c -81,12 -90,107 -24,151 z"
           id="path5501"
           inkscape:connector-curvature="0"
           style="fill:#63b521" /><path
           class="fil0"
           d="m -1783,10743 40,226 -204,-84 c -10,-4 -22,1 -26,11 -4,10 1,21 11,25 l 227,94 48,276 -187,-117 c -9,-6 -21,-3 -27,6 -6,9 -3,22 6,27 l 217,136 6,30 c 2,11 12,18 23,16 10,-2 17,-12 16,-23 l -6,-30 158,-202 c 7,-8 5,-21 -3,-27 -9,-7 -21,-5 -28,3 l -136,174 -49,-275 182,-166 c 8,-8 8,-20 1,-28 -7,-8 -20,-9 -28,-1 l -163,149 -40,-227 145,-159 c 7,-8 6,-21 -2,-28 -8,-7 -20,-7 -28,1 l -123,137 -45,-251 c -1,-11 -12,-18 -22,-16 -11,2 -18,12 -16,23 l 44,251 -163,-86 c -9,-5 -21,-2 -26,8 -5,9 -2,21 8,26 l 190,101 z"
           id="path5503"
           inkscape:connector-curvature="0"
           style="fill:#000000" /></g><g
         id="g5505"><path
           class="fil4"
           d="m -1083,12058 c 0,0 0,0 1,-1 0,0 1,-1 2,-2 46,-32 82,-98 92,-153 l 37,-191 c 11,-59 -15,-122 -73,-145 -39,-16 -81,-7 -114,19 l 0,0 19,-98 c 25,-129 -91,-212 -195,-113 l -3,4 2,-80 c 1,-63 -19,-138 -88,-155 -60,-14 -102,20 -119,75 l -7,21 -110,-121 c -23,-24 -49,-50 -84,-54 -23,-3 -45,5 -64,18 -19,14 -32,32 -37,55 -7,35 9,68 26,97 l 81,142 -22,0 c -58,0 -104,29 -109,90 -5,71 61,114 121,131 l 76,23 -5,3 c -126,68 -83,204 48,219 l 99,12 -1,1 c -99,67 -51,202 62,217 l 194,24 c 54,7 125,-7 171,-38 z"
           id="path5507"
           inkscape:connector-curvature="0"
           style="fill:#000000" /></g><g
         id="g5509"><path
           class="fil5"
           d="m -1443,12033 194,24 c 53,6 114,-10 146,-33 32,-24 67,-77 77,-129 l 37,-192 c 14,-78 -60,-138 -125,-87 l -41,32 c -15,11 -36,-1 -32,-21 l 29,-148 c 17,-86 -49,-152 -128,-76 l -46,43 c -12,12 -26,-7 -25,-41 l 2,-108 c 1,-47 -11,-104 -57,-116 -35,-8 -60,9 -73,49 l -14,47 c -7,19 -38,12 -49,0 l -120,-132 c -31,-34 -60,-57 -96,-31 -36,26 -22,61 0,100 l 88,155 c 9,15 5,47 -15,47 l -48,-1 c -43,0 -67,18 -69,54 -4,48 46,77 92,91 l 104,31 c 32,9 46,28 30,36 l -55,30 c -96,52 -54,136 33,146 l 150,18 c 20,3 25,26 10,37 l -44,29 c -67,46 -33,136 45,146 z"
           id="path5511"
           inkscape:connector-curvature="0"
           style="fill:#63b521" /><path
           class="fil0"
           d="m -1508,11503 135,186 -221,14 c -10,0 -19,10 -18,20 1,11 10,20 21,19 l 245,-15 165,226 -220,-23 c -11,-1 -20,7 -22,17 -1,11 7,21 18,22 l 255,27 18,25 c 6,8 18,10 27,4 9,-6 11,-19 5,-28 l -18,-24 53,-251 c 2,-10 -5,-21 -15,-23 -11,-2 -21,4 -24,15 l -46,216 -164,-226 90,-229 c 4,-10 -1,-22 -11,-26 -10,-4 -21,1 -25,11 l -81,206 -136,-186 60,-207 c 3,-10 -3,-21 -13,-24 -11,-3 -22,3 -25,13 l -51,177 -150,-206 c -6,-9 -19,-11 -27,-4 -9,6 -11,18 -5,27 l 150,206 -184,-6 c -11,0 -20,9 -20,19 -1,11 8,20 19,21 l 215,7 z"
           id="path5513"
           inkscape:connector-curvature="0"
           style="fill:#000000" /></g><g
         id="g5515"><path
           class="fil4"
           d="m -560,11977 -25,-97 c -34,-127 -174,-150 -225,-16 l -1,5 -33,-72 c -27,-57 -77,-116 -147,-101 -60,13 -83,62 -74,120 l 3,22 -152,-61 c -32,-12 -67,-23 -100,-12 -22,8 -38,24 -49,45 -11,20 -15,42 -9,65 9,34 38,57 65,76 l 136,92 -20,10 c -52,25 -81,71 -58,128 26,66 104,76 166,65 l 78,-13 -3,4 c -30,42 -46,97 -14,142 34,48 101,53 153,35 l 94,-32 0,0 c -21,36 -24,79 -3,116 31,54 97,71 154,52 l 184,-63 c 53,-18 113,-63 139,-113 27,-49 31,-124 16,-178 l -51,-188 c -30,-110 -171,-139 -223,-32 l -1,1 z"
           id="path5517"
           inkscape:connector-curvature="0"
           style="fill:#000000" /></g><g
         id="g5519"><path
           class="fil5"
           d="m -637,12513 185,-63 c 50,-18 98,-60 116,-94 19,-35 27,-98 13,-150 l -51,-188 c -21,-77 -114,-98 -150,-24 l -23,47 c -8,17 -32,15 -38,-5 l -38,-145 c -23,-86 -111,-116 -150,-13 l -22,59 c -6,16 -26,5 -40,-25 l -45,-99 c -20,-43 -56,-89 -103,-79 -35,8 -49,34 -43,76 l 7,48 c 3,20 -29,28 -44,22 l -166,-66 c -42,-17 -78,-25 -99,14 -21,39 6,65 44,90 l 147,101 c 14,9 25,39 7,48 l -44,21 c -38,18 -52,45 -39,79 18,44 76,48 123,40 l 107,-17 c 33,-6 54,5 44,19 l -37,51 c -64,90 11,146 94,117 l 142,-49 c 19,-7 34,12 25,28 l -26,46 c -41,71 29,136 104,111 z"
           id="path5521"
           inkscape:connector-curvature="0"
           style="fill:#63b521" /><path
           class="fil0"
           d="m -928,12065 203,108 -192,109 c -10,6 -13,18 -8,27 6,9 18,13 27,7 l 214,-121 247,132 -207,75 c -11,4 -16,15 -12,25 4,11 15,16 25,12 l 241,-88 27,15 c 9,5 21,1 26,-8 5,-10 2,-22 -8,-27 l -27,-14 -62,-249 c -2,-10 -13,-17 -24,-14 -10,3 -16,13 -14,24 l 53,214 -246,-131 -20,-246 c 0,-10 -10,-18 -21,-18 -11,1 -19,11 -18,22 l 17,220 -203,-108 -37,-212 c -2,-11 -12,-18 -22,-16 -11,2 -18,12 -16,23 l 31,181 -225,-120 c -10,-5 -22,-1 -27,9 -5,9 -1,21 8,26 l 226,120 -168,75 c -10,5 -15,16 -10,26 4,10 16,15 26,10 l 196,-88 z"
           id="path5523"
           inkscape:connector-curvature="0"
           style="fill:#000000" /></g></g><g
       id="_835858912"><polygon
         class="fil1 str2"
         points="335,12339 472,12516 236,12516 0,12752 -236,12516 -472,12516 -335,12339 -335,12201 0,12102 335,12201 "
         id="polygon5526"
         style="fill:#ffd600;stroke:#000000;stroke-width:39.37009811" /><polygon
         class="fil6 str2"
         points="-236,12299 -157,8913 0,8657 157,8913 236,12299 "
         id="polygon5528"
         style="fill:#ffffff;stroke:#000000;stroke-width:39.37009811" /><polygon
         class="fil6 str2"
         points="-197,11551 -197,12181 -551,12280 -217,10803 "
         id="polygon5530"
         style="fill:#ffffff;stroke:#000000;stroke-width:39.37009811" /><polygon
         class="fil6 str2"
         points="197,11551 197,12181 551,12280 217,10803 "
         id="polygon5532"
         style="fill:#ffffff;stroke:#000000;stroke-width:39.37009811" /><line
         class="fil3 str2"
         x1="-157"
         y1="8913"
         x2="157"
         y2="8913"
         id="line5534"
         style="fill:none;stroke:#000000;stroke-width:39.37009811" /></g><polygon
       class="fil2"
       points="-2973,12839 -3155,12514 -3107,12487 -3031,12623 -2673,12423 -2643,12477 -3001,12677 -2925,12813 "
       id="polygon5536"
       style="fill:#ffffff;fill-rule:nonzero" /><path
       id="path5538"
       class="fil2"
       d="m -3179,12099 c 18,-8 37,-12 57,-13 19,0 37,3 54,10 21,9 39,21 55,38 16,17 30,41 43,71 l 20,48 159,-67 24,57 -428,180 -45,-107 c -11,-26 -18,-48 -21,-68 -3,-19 -3,-38 1,-55 4,-21 13,-39 26,-55 13,-16 31,-29 55,-39 z m 26,58 c -15,6 -26,14 -35,24 -9,10 -15,21 -17,35 -2,11 -2,23 0,36 3,13 8,29 16,47 l 19,47 171,-72 -16,-39 c -10,-23 -20,-41 -29,-53 -10,-13 -22,-22 -35,-27 -12,-5 -24,-7 -36,-7 -12,1 -24,4 -38,9 z"
       inkscape:connector-curvature="0"
       style="fill:#ffffff;fill-rule:nonzero" /><path
       id="path5540"
       class="fil2"
       d="m -2875,11961 -489,-17 -22,-73 399,-283 19,63 -112,77 51,170 136,3 18,60 z m -251,-201 -188,131 229,6 -41,-137 z"
       inkscape:connector-curvature="0"
       style="fill:#ffffff;fill-rule:nonzero" /><path
       id="path5542"
       class="fil2"
       d="m -3030,11201 11,78 -189,193 6,38 211,-30 9,62 -460,65 -9,-62 207,-29 c -4,-24 -13,-42 -26,-55 -13,-12 -31,-21 -54,-27 -9,-3 -19,-5 -27,-6 -9,-2 -17,-4 -23,-5 -36,-7 -63,-19 -79,-37 -16,-17 -26,-43 -31,-77 l -3,-18 55,-8 2,15 c 3,25 11,42 22,51 11,9 31,15 59,20 29,5 50,11 64,20 14,9 27,20 39,33 l 216,-221 z"
       inkscape:connector-curvature="0"
       style="fill:#ffffff;fill-rule:nonzero" /><polygon
       id="polygon5544"
       class="fil2"
       points="-3490,11208 -3492,10834 -3437,10834 -3436,10990 -3027,10989 -3026,11051 -3436,11052 -3435,11208 "
       style="fill:#ffffff;fill-rule:nonzero" /><path
       id="path5546"
       class="fil2"
       d="m -3389,10402 c 22,-14 49,-24 81,-30 31,-5 66,-5 104,1 37,5 70,15 99,28 29,14 52,31 70,52 18,22 31,46 38,73 6,26 7,54 3,84 -4,31 -14,59 -28,82 -14,23 -32,42 -56,57 -23,15 -50,25 -81,30 -31,5 -66,5 -103,0 -39,-6 -72,-15 -100,-29 -28,-14 -51,-31 -70,-52 -18,-20 -30,-44 -37,-70 -7,-27 -8,-56 -4,-86 4,-32 14,-59 29,-83 14,-23 32,-42 55,-57 z m 176,35 c -31,-5 -58,-5 -82,-2 -25,3 -46,9 -63,19 -17,10 -31,23 -42,39 -10,16 -17,34 -20,56 -3,22 -2,42 3,60 6,17 16,34 30,49 14,14 32,26 55,36 23,10 49,17 79,21 60,9 108,3 144,-18 35,-21 56,-52 62,-95 6,-42 -5,-78 -33,-108 -29,-30 -73,-49 -133,-57 z"
       inkscape:connector-curvature="0"
       style="fill:#ffffff;fill-rule:nonzero" /><path
       id="path5548"
       class="fil2"
       d="m -3194,9967 c 19,6 37,15 52,26 15,12 27,26 36,42 11,20 17,41 19,64 2,23 -2,50 -11,82 l -14,50 166,48 -17,59 -446,-127 32,-112 c 8,-27 16,-49 26,-66 10,-17 21,-32 35,-43 16,-13 34,-22 55,-27 20,-4 42,-3 67,4 z m -16,63 c -16,-5 -30,-6 -43,-4 -12,2 -24,8 -34,16 -9,8 -17,18 -23,29 -6,12 -12,27 -17,46 l -14,49 178,51 11,-41 c 7,-24 11,-43 11,-59 0,-16 -3,-31 -10,-43 -7,-12 -15,-21 -24,-28 -9,-7 -21,-12 -35,-16 z"
       inkscape:connector-curvature="0"
       style="fill:#ffffff;fill-rule:nonzero" /><polygon
       id="7"
       class="fil2"
       points="-2811,9561 -2828,9594 -3126,9573 -2771,9760 -2798,9811 -3209,9595 -3170,9520 -2887,9538 -3064,9318 -3024,9242 -2613,9459 -2641,9513 -2996,9326 "
       style="fill:#ffffff;fill-rule:nonzero" /><path
       id="8"
       class="fil2"
       d="m -2757,8847 224,362 c 10,15 16,29 19,42 3,13 4,25 3,36 -1,11 -4,20 -8,29 -4,8 -8,16 -14,24 -5,7 -10,15 -17,24 -7,9 -11,14 -13,17 l -48,-33 3,-4 c 2,-2 5,-6 9,-11 4,-5 9,-11 15,-19 2,-4 5,-9 8,-14 4,-6 6,-11 7,-17 1,-6 1,-13 0,-20 -1,-7 -4,-16 -10,-25 l -14,-23 -376,-63 39,-57 297,54 -160,-251 36,-51 z"
       inkscape:connector-curvature="0"
       style="fill:#ffffff;fill-rule:nonzero" /><path
       id="9"
       class="fil2"
       d="m -2118,8832 -42,45 -297,-283 -109,114 c 17,17 33,33 48,49 16,16 30,31 42,43 31,32 55,59 73,81 19,22 33,42 43,60 9,17 16,32 19,46 3,13 5,26 4,38 0,13 -2,24 -6,35 -5,11 -12,21 -21,31 -3,3 -7,6 -10,9 -3,3 -6,6 -7,8 l -44,-41 3,-4 c 2,-1 3,-2 5,-3 1,-1 2,-2 4,-5 5,-5 9,-11 12,-17 3,-6 4,-13 4,-19 0,-20 -11,-45 -33,-74 -21,-29 -52,-66 -94,-109 -14,-15 -33,-34 -56,-58 -24,-24 -45,-46 -65,-65 l 191,-201 336,320 z"
       inkscape:connector-curvature="0"
       style="fill:#ffffff;fill-rule:nonzero" /><path
       id="10"
       class="fil2"
       d="m -1944,8660 -134,-472 63,-43 392,295 -53,36 -108,-82 -147,101 39,130 -52,35 z m 116,-301 -184,-140 65,222 119,-82 z"
       inkscape:connector-curvature="0"
       style="fill:#ffffff;fill-rule:nonzero" /><path
       id="11"
       class="fil2"
       d="m -1489,7988 c 10,18 16,36 18,56 3,19 2,37 -3,54 -7,22 -17,42 -32,59 -15,18 -37,35 -66,51 l -46,26 85,151 -54,30 -226,-406 102,-57 c 23,-13 45,-22 64,-28 19,-5 38,-7 56,-5 20,1 40,8 57,19 17,11 32,28 45,50 z m -56,33 c -7,-14 -17,-25 -27,-32 -11,-8 -23,-12 -36,-13 -12,-1 -24,1 -37,5 -12,4 -27,11 -44,20 l -45,25 90,161 37,-21 c 22,-12 38,-24 50,-34 12,-12 19,-24 23,-38 3,-13 4,-25 3,-36 -2,-12 -6,-24 -14,-37 z"
       inkscape:connector-curvature="0"
       style="fill:#ffffff;fill-rule:nonzero" /><polygon
       id="12"
       class="fil2"
       points="-1502,7835 -1157,7690 -1136,7740 -1280,7801 -1121,8178 -1178,8202 -1337,7825 -1481,7885 "
       style="fill:#ffffff;fill-rule:nonzero" /><polygon
       id="13"
       class="fil2"
       points="-869,8094 -929,8112 -1062,7667 -1003,7650 -899,7997 -806,7591 -743,7572 -610,8016 -670,8034 -775,7681 "
       style="fill:#ffffff;fill-rule:nonzero" /><path
       id="14"
       class="fil2"
       d="m -178,7963 -62,9 -57,-406 -156,22 c 3,24 5,46 7,69 2,22 4,42 6,59 5,44 7,80 7,109 1,29 0,54 -3,74 -3,19 -8,35 -13,48 -6,12 -13,23 -21,32 -8,10 -17,18 -27,23 -10,6 -22,10 -36,12 -4,1 -8,1 -13,1 -4,1 -8,1 -10,1 l -8,-59 4,0 c 2,-1 4,-1 5,-1 2,0 4,0 7,0 7,-1 14,-4 20,-7 6,-3 11,-7 15,-13 12,-15 19,-41 20,-77 2,-37 -1,-85 -6,-145 -2,-20 -5,-47 -9,-80 -3,-33 -7,-64 -10,-92 l 274,-39 66,460 z"
       inkscape:connector-curvature="0"
       style="fill:#ffffff;fill-rule:nonzero" /><path
       id="15"
       class="fil2"
       d="m 255,7969 -62,0 2,-409 -157,-1 c -1,23 -2,46 -3,69 -1,22 -2,42 -3,60 -2,43 -4,80 -8,108 -4,29 -9,53 -15,72 -5,19 -12,34 -20,46 -7,11 -16,21 -24,29 -10,8 -20,15 -30,19 -11,4 -23,6 -37,6 -5,0 -9,0 -14,-1 -4,0 -8,0 -10,0 l 0,-60 5,0 c 2,0 4,0 5,1 1,0 4,0 7,0 7,0 14,-1 20,-4 7,-2 12,-5 17,-10 14,-14 24,-39 31,-74 7,-36 12,-83 15,-144 1,-20 2,-47 3,-80 2,-34 3,-64 4,-92 l 276,1 -2,464 z"
       inkscape:connector-curvature="0"
       style="fill:#ffffff;fill-rule:nonzero" /><polygon
       id="16"
       class="fil2"
       points="703,7629 478,7591 457,7717 667,7752 658,7806 448,7771 419,7941 644,7979 635,8033 349,7985 426,7527 712,7575 "
       style="fill:#ffffff;fill-rule:nonzero" /><path
       id="17"
       class="fil2"
       d="m 1076,7816 c -5,19 -14,36 -26,52 -12,15 -26,27 -42,35 -20,11 -41,17 -64,19 -23,1 -50,-2 -82,-12 l -50,-15 -49,166 -60,-18 132,-445 112,33 c 26,8 48,17 65,27 18,10 32,22 43,35 13,17 22,35 26,55 4,20 3,43 -5,68 z m -61,-17 c 4,-15 5,-29 3,-42 -1,-13 -7,-25 -15,-35 -8,-9 -17,-17 -29,-23 -12,-6 -27,-12 -45,-18 l -49,-14 -53,177 40,12 c 24,7 44,11 60,11 16,1 30,-2 43,-9 11,-7 21,-15 28,-24 7,-9 12,-21 17,-35 z"
       inkscape:connector-curvature="0"
       style="fill:#ffffff;fill-rule:nonzero" /><polygon
       id="18"
       class="fil2"
       points="1100,8166 1043,8139 1237,7718 1294,7744 1142,8073 1481,7830 1541,7857 1346,8279 1290,8253 1444,7918 "
       style="fill:#ffffff;fill-rule:nonzero" /><path
       id="19"
       class="fil2"
       d="m 1687,8470 -54,-31 91,-161 -61,-34 -212,93 -64,-36 224,-96 c -22,-25 -35,-51 -39,-79 -4,-27 3,-57 21,-90 12,-21 26,-36 43,-46 17,-10 36,-16 55,-18 18,-2 37,0 56,6 19,6 40,15 60,27 l 108,60 -228,405 z m 62,-236 86,-153 -57,-32 c -15,-9 -28,-15 -39,-18 -11,-3 -21,-5 -32,-4 -12,1 -23,5 -33,13 -11,7 -19,17 -26,29 -8,15 -13,28 -15,39 -2,12 -2,23 2,35 4,13 11,24 21,33 10,9 23,18 39,27 l 54,31 z"
       inkscape:connector-curvature="0"
       style="fill:#ffffff;fill-rule:nonzero" /><polygon
       id="20"
       class="fil2"
       points="1969,8690 1924,8647 2244,8310 2289,8352 2039,8615 2438,8495 2485,8539 2165,8876 2120,8833 2375,8567 "
       style="fill:#ffffff;fill-rule:nonzero" /><polygon
       id="21"
       class="fil2"
       points="2735,8909 2399,9144 2364,9094 2744,8827 2938,9103 2557,9370 2522,9319 2857,9084 "
       style="fill:#ffffff;fill-rule:nonzero" /><path
       id="22"
       class="fil2"
       d="m 3127,9538 c -9,25 -25,49 -46,73 -22,23 -50,44 -84,62 -33,18 -65,31 -96,37 -31,6 -60,6 -87,0 -28,-6 -52,-17 -73,-35 -22,-17 -40,-39 -54,-65 -15,-28 -25,-55 -27,-82 -3,-28 0,-54 10,-80 9,-26 25,-50 46,-73 22,-23 50,-43 83,-62 34,-19 66,-31 97,-37 30,-5 59,-6 86,0 27,6 51,17 73,34 21,17 40,39 55,66 15,28 24,56 26,83 3,28 0,54 -9,79 z m -161,79 c 27,-15 50,-31 67,-48 18,-17 30,-35 38,-53 8,-19 12,-37 10,-57 -1,-19 -7,-38 -18,-57 -11,-19 -23,-35 -38,-46 -15,-11 -33,-18 -54,-21 -19,-3 -41,-2 -66,4 -24,5 -49,16 -75,30 -54,30 -88,63 -104,101 -16,39 -14,77 7,114 21,38 52,60 93,67 40,7 87,-4 140,-34 z"
       inkscape:connector-curvature="0"
       style="fill:#ffffff;fill-rule:nonzero" /><path
       id="23"
       class="fil2"
       d="m 2828,10241 -17,-56 101,-31 -88,-289 -102,32 -17,-56 153,-47 8,24 c 50,13 112,17 185,11 74,-5 151,-20 233,-45 l 75,248 -391,120 13,42 -153,47 z m 122,-148 340,-104 -41,-134 c -72,19 -140,30 -203,33 -63,3 -118,-1 -163,-13 l 67,218 z"
       inkscape:connector-curvature="0"
       style="fill:#ffffff;fill-rule:nonzero" /><path
       id="24"
       class="fil2"
       d="m 2912,10656 -10,-58 105,-18 -50,-297 -104,18 -10,-58 157,-26 4,24 c 48,20 109,32 183,36 74,5 153,0 237,-14 l 42,256 -405,67 8,44 -157,26 z m 139,-130 353,-59 -23,-139 c -75,10 -144,12 -207,7 -63,-6 -117,-17 -160,-35 l 37,226 z"
       inkscape:connector-curvature="0"
       style="fill:#ffffff;fill-rule:nonzero" /><polygon
       id="25"
       class="fil2"
       points="3451,10955 3432,10727 3306,10737 3323,10949 3268,10954 3251,10741 3079,10755 3098,10983 3043,10988 3019,10698 3482,10661 3506,10950 "
       style="fill:#ffffff;fill-rule:nonzero" /><path
       id="26"
       class="fil2"
       d="m 3336,11375 c -20,-1 -39,-7 -56,-15 -18,-9 -32,-20 -44,-34 -14,-17 -24,-37 -31,-59 -6,-22 -8,-50 -5,-83 l 4,-52 -172,-15 5,-61 462,38 -9,117 c -2,27 -7,50 -13,69 -6,19 -15,35 -26,49 -13,16 -29,29 -48,37 -19,8 -42,11 -67,9 z m 4,-64 c 16,2 30,0 42,-5 12,-4 22,-12 31,-22 7,-10 12,-21 16,-33 4,-13 7,-29 8,-49 l 4,-51 -184,-15 -3,42 c -2,25 -2,45 1,61 3,16 9,29 18,40 9,10 18,18 29,23 10,5 23,8 38,9 z"
       inkscape:connector-curvature="0"
       style="fill:#ffffff;fill-rule:nonzero" /><path
       id="27"
       class="fil2"
       d="m 2903,11926 17,-74 242,-105 6,-30 -208,-46 13,-60 209,46 6,-30 -175,-197 16,-70 196,223 c 11,-12 25,-21 40,-28 15,-7 39,-12 71,-14 28,-3 48,-7 60,-14 12,-7 21,-24 26,-50 l 3,-12 54,12 -4,15 c -7,35 -20,59 -37,75 -17,16 -44,26 -82,31 -9,1 -19,2 -28,3 -9,1 -17,2 -22,3 -24,4 -43,11 -56,21 -13,10 -22,24 -28,41 l 205,46 -14,60 -204,-46 c -3,19 0,36 7,51 7,15 21,30 41,44 9,6 17,11 24,16 8,4 14,8 19,12 32,19 53,40 62,62 9,22 9,50 2,83 l -3,16 -54,-12 3,-12 c 5,-27 4,-45 -4,-57 -8,-12 -24,-25 -48,-38 -25,-15 -43,-29 -54,-43 -11,-14 -19,-28 -25,-43 l -276,121 z"
       inkscape:connector-curvature="0"
       style="fill:#ffffff;fill-rule:nonzero" /><path
       id="28"
       class="fil2"
       d="m 2758,12284 27,-73 257,-80 14,-36 -199,-74 21,-58 435,163 -22,57 -196,-73 c -7,23 -8,43 -3,60 6,18 17,34 34,50 8,7 15,13 22,19 7,6 12,11 17,14 29,24 46,48 52,71 6,22 3,50 -9,82 l -7,18 -51,-19 5,-15 c 9,-24 11,-42 5,-55 -6,-13 -20,-28 -43,-46 -23,-18 -38,-34 -46,-48 -9,-14 -15,-30 -19,-48 l -294,91 z"
       inkscape:connector-curvature="0"
       style="fill:#ffffff;fill-rule:nonzero" /><path
       id="29"
       class="fil2"
       d="m 2760,12277 328,363 -37,67 -482,-91 32,-57 134,27 87,-155 -93,-100 31,-54 z m 29,320 226,44 -156,-169 -70,125 z"
       inkscape:connector-curvature="0"
       style="fill:#ffffff;fill-rule:nonzero" /><g
       id="_835861632"><rect
         class="fil1 str2"
         transform="matrix(0.642788,0.766044,-0.766044,0.642788,1358.55,9329.13)"
         width="512"
         height="197"
         rx="39"
         ry="39"
         id="rect5574"
         x="0"
         y="0"
         style="fill:#ffd600;stroke:#000000;stroke-width:39.37009811" /><rect
         class="fil1 str2"
         transform="matrix(0.494452,0.589265,-0.766044,0.642788,1245.71,9500.9)"
         width="512"
         height="197"
         rx="39"
         ry="39"
         id="rect5576"
         x="0"
         y="0"
         style="fill:#ffd600;stroke:#000000;stroke-width:39.37009811" /><path
         class="fil1 str2"
         d="m 1161,9706 121,145 c 22,26 17,64 -8,88 L 55,11107 c -25,24 -67,19 -89,-7 l -264,-315 c -22,-26 -20,-68 8,-89 l 1362,-998 c 28,-20 66,-19 89,8 z"
         id="path5578"
         inkscape:connector-curvature="0"
         style="fill:#ffd600;stroke:#000000;stroke-width:39.37009811" /><rect
         class="fil1 str2"
         transform="matrix(0.890014,1.06068,-0.766044,0.642788,-936.501,11126.4)"
         width="512"
         height="197"
         rx="39"
         ry="39"
         id="rect5580"
         x="0"
         y="0"
         style="fill:#ffd600;stroke:#000000;stroke-width:39.37009811" /><rect
         class="fil1 str2"
         transform="matrix(0.988904,1.17853,-0.766044,0.642788,-1112.6,11222.8)"
         width="512"
         height="197"
         rx="39"
         ry="39"
         id="rect5582"
         x="0"
         y="0"
         style="fill:#ffd600;stroke:#000000;stroke-width:39.37009811" /><path
         class="fil1 str2"
         d="m -1127,11512 233,278 c 20,23 17,58 -7,77 l -63,53 c -60,51 -190,-12 -257,-92 -67,-80 -107,-219 -47,-269 l 64,-54 c 23,-19 58,-16 77,7 z"
         id="path5584"
         inkscape:connector-curvature="0"
         style="fill:#ffd600;stroke:#000000;stroke-width:39.37009811" /><path
         class="fil1 str2"
         d="m -317,10762 303,361 c 13,16 10,40 -5,55 l -86,82 c -15,15 -41,12 -55,-5 l -313,-372 c -14,-17 -13,-43 5,-56 l 95,-70 c 18,-13 42,-12 56,5 z"
         id="path5586"
         inkscape:connector-curvature="0"
         style="fill:#ffd600;stroke:#000000;stroke-width:39.37009811" /><path
         class="fil1 str2"
         d="m -462,10895 291,347 c 22,27 17,65 -8,89 l -282,270 c -25,24 -67,19 -89,-8 l -324,-386 c -22,-26 -20,-68 8,-88 l 315,-231 c 28,-21 67,-19 89,7 z"
         id="path5588"
         inkscape:connector-curvature="0"
         style="fill:#ffd600;stroke:#000000;stroke-width:39.37009811" /></g><g
       id="_830982864"><rect
         class="fil1 str2"
         transform="matrix(0.642788,-0.766044,0.766044,0.642788,-1687.53,9721.2)"
         width="512"
         height="197"
         rx="39"
         ry="39"
         id="rect5591"
         x="0"
         y="0"
         style="fill:#ffd600;stroke:#000000;stroke-width:39.37009811" /><rect
         class="fil1 str2"
         transform="matrix(0.494452,-0.589265,0.766044,0.642788,-1498.78,9802.5)"
         width="512"
         height="197"
         rx="39"
         ry="39"
         id="rect5593"
         x="0"
         y="0"
         style="fill:#ffd600;stroke:#000000;stroke-width:39.37009811" /><path
         class="fil1 str2"
         d="m -1282,9851 121,-145 c 23,-27 61,-28 89,-8 l 1362,998 c 28,21 30,63 8,89 l -264,315 c -22,26 -64,31 -89,7 L -1274,9939 c -25,-24 -30,-62 -8,-88 z"
         id="path5595"
         inkscape:connector-curvature="0"
         style="fill:#ffd600;stroke:#000000;stroke-width:39.37009811" /><rect
         class="fil1 str2"
         transform="matrix(0.890014,-1.06068,0.766044,0.642788,480.983,11669.3)"
         width="512"
         height="197"
         rx="39"
         ry="39"
         id="rect5597"
         x="0"
         y="0"
         style="fill:#ffd600;stroke:#000000;stroke-width:39.37009811" /><rect
         class="fil1 str2"
         transform="matrix(0.988904,-1.17853,0.766044,0.642788,606.472,11826)"
         width="512"
         height="197"
         rx="39"
         ry="39"
         id="rect5599"
         x="0"
         y="0"
         style="fill:#ffd600;stroke:#000000;stroke-width:39.37009811" /><path
         class="fil1 str2"
         d="m 894,11790 233,-278 c 19,-23 54,-26 77,-7 l 64,54 c 60,50 20,189 -47,269 -67,80 -197,143 -257,92 l -63,-53 c -24,-19 -27,-54 -7,-77 z"
         id="path5601"
         inkscape:connector-curvature="0"
         style="fill:#ffd600;stroke:#000000;stroke-width:39.37009811" /><path
         class="fil1 str2"
         d="m 14,11123 303,-361 c 14,-17 38,-18 56,-5 l 95,70 c 18,13 19,39 5,56 l -313,372 c -14,17 -40,20 -55,5 l -86,-82 c -15,-15 -18,-39 -5,-55 z"
         id="path5603"
         inkscape:connector-curvature="0"
         style="fill:#ffd600;stroke:#000000;stroke-width:39.37009811" /><path
         class="fil1 str2"
         d="m 171,11242 291,-347 c 22,-26 61,-28 89,-7 l 315,231 c 28,20 30,62 8,88 l -324,386 c -22,27 -64,32 -89,8 l -282,-270 c -25,-24 -30,-62 -8,-89 z"
         id="path5605"
         inkscape:connector-curvature="0"
         style="fill:#ffd600;stroke:#000000;stroke-width:39.37009811" /></g></g></svg>