<?xml version="1.0" encoding="UTF-8" standalone="no"?>
<!-- Creator: CorelDRAW X7 -->

<svg
   xmlns:dc="http://purl.org/dc/elements/1.1/"
   xmlns:cc="http://creativecommons.org/ns#"
   xmlns:rdf="http://www.w3.org/1999/02/22-rdf-syntax-ns#"
   xmlns:svg="http://www.w3.org/2000/svg"
   xmlns="http://www.w3.org/2000/svg"
   xmlns:sodipodi="http://sodipodi.sourceforge.net/DTD/sodipodi-0.dtd"
   xmlns:inkscape="http://www.inkscape.org/namespaces/inkscape"
   xml:space="preserve"
   width="7.8740005in"
   height="7.8740005in"
   version="1.1"
   style="clip-rule:evenodd;fill-rule:evenodd;image-rendering:optimizeQuality;shape-rendering:geometricPrecision;text-rendering:geometricPrecision"
   viewBox="0 0 7874.0005 7874.0005"
   id="svg3453"
   inkscape:version="0.91 r13725"
   sodipodi:docname="Ariadna - Antipode Assault Pack - [N3] [Vyo].svg"><metadata
     id="metadata3519"><rdf:RDF><cc:Work
         rdf:about=""><dc:format>image/svg+xml</dc:format><dc:type
           rdf:resource="http://purl.org/dc/dcmitype/StillImage" /></cc:Work></rdf:RDF></metadata><sodipodi:namedview
     pagecolor="#ffffff"
     bordercolor="#666666"
     borderopacity="1"
     objecttolerance="10"
     gridtolerance="10"
     guidetolerance="10"
     inkscape:pageopacity="0"
     inkscape:pageshadow="2"
     inkscape:window-width="640"
     inkscape:window-height="480"
     id="namedview3517"
     showgrid="false"
     inkscape:zoom="0.23838384"
     inkscape:cx="736.83001"
     inkscape:cy="849.33005"
     inkscape:window-x="0"
     inkscape:window-y="0"
     inkscape:window-maximized="0"
     inkscape:current-layer="svg3453" /><defs
     id="defs3455"><style
       type="text/css"
       id="style3457"><![CDATA[
    .fil3 {fill:none}
    .fil4 {fill:black}
    .fil0 {fill:#E2001A}
    .fil1 {fill:#FFD600}
    .fil5 {fill:white}
    .fil2 {fill:#FFD600;fill-rule:nonzero}
   ]]></style></defs><g
     id="Layer_x0020_1"
     transform="translate(3937,-7063)"><metadata
       id="CorelCorpID_0Corel-Layer" /><circle
       class="fil0"
       cy="11000"
       r="3937"
       id="circle3461"
       cx="0"
       style="fill:#e2001a" /><circle
       class="fil1"
       cy="11000"
       r="3858"
       id="circle3463"
       cx="0"
       style="fill:#ffd600" /><circle
       class="fil0"
       cy="11000"
       r="3661"
       id="circle3465"
       cx="0"
       style="fill:#e2001a" /><path
       class="fil1"
       d="m 0,8185 c 1555,0 2815,1260 2815,2815 0,747 -291,1425 -765,1929 l -4100,0 c -474,-504 -765,-1182 -765,-1929 0,-1555 1260,-2815 2815,-2815 z"
       id="path3467"
       inkscape:connector-curvature="0"
       style="fill:#ffd600" /><path
       class="fil0"
       d="m -1981,12772 3962,0 c 436,-488 676,-1115 676,-1772 C 2657,9532 1468,8343 0,8343 c -1468,0 -2657,1189 -2657,2657 0,657 240,1284 676,1772 z"
       id="path3469"
       inkscape:connector-curvature="0"
       style="fill:#e2001a" /><path
       class="fil2"
       d="m -2159,13769 218,-646 106,0 218,646 -91,0 -58,-179 -248,0 -58,179 -87,0 z m 368,-254 -99,-303 -100,303 199,0 z"
       id="path3471"
       inkscape:connector-curvature="0"
       style="fill:#ffd600;fill-rule:nonzero" /><path
       id="1"
       class="fil2"
       d="m -1079,13318 c 0,28 -6,55 -15,80 -10,25 -24,46 -42,64 -22,22 -48,38 -78,50 -30,11 -68,17 -114,17 l -72,0 0,240 -87,0 0,-646 162,0 c 39,0 71,3 98,10 27,6 50,16 71,31 24,16 43,37 56,62 14,26 21,56 21,92 z m -90,2 c 0,-22 -4,-41 -12,-57 -7,-17 -19,-30 -34,-40 -14,-10 -30,-16 -48,-19 -18,-4 -40,-6 -67,-6 l -70,0 0,256 58,0 c 34,0 62,-3 84,-9 21,-5 38,-15 53,-29 12,-13 21,-27 27,-43 6,-15 9,-33 9,-53 z"
       inkscape:connector-curvature="0"
       style="fill:#ffd600;fill-rule:nonzero" /><polygon
       id="2"
       class="fil2"
       points="-840,13769 -927,13769 -927,13123 -841,13123 -841,13628 -554,13123 -463,13123 -463,13769 -549,13769 -549,13256 "
       style="fill:#ffd600;fill-rule:nonzero" /><path
       id="3"
       class="fil2"
       d="m -332,13769 218,-646 106,0 218,646 -91,0 -58,-179 -248,0 -58,179 -87,0 z m 368,-254 -99,-303 -100,303 199,0 z"
       inkscape:connector-curvature="0"
       style="fill:#ffd600;fill-rule:nonzero" /><path
       id="4"
       class="fil2"
       d="m 865,13916 -82,0 0,-148 -419,0 0,148 -81,0 0,-223 35,0 c 38,-62 68,-142 91,-242 23,-100 35,-209 35,-328 l 360,0 0,570 61,0 0,223 z m -148,-223 0,-495 -193,0 c -4,104 -18,199 -39,284 -22,85 -50,155 -84,211 l 316,0 z"
       inkscape:connector-curvature="0"
       style="fill:#ffd600;fill-rule:nonzero" /><polygon
       id="5"
       class="fil2"
       points="1104,13453 1104,13769 1018,13769 1018,13123 1104,13123 1104,13377 1400,13377 1400,13123 1486,13123 1486,13769 1400,13769 1400,13453 "
       style="fill:#ffd600;fill-rule:nonzero" /><path
       id="6"
       class="fil2"
       d="m 1617,13769 218,-646 106,0 218,646 -91,0 -58,-179 -247,0 -59,179 -87,0 z m 369,-254 -100,-303 -99,303 199,0 z"
       inkscape:connector-curvature="0"
       style="fill:#ffd600;fill-rule:nonzero" /><circle
       class="fil3"
       cy="11000"
       r="3898"
       id="circle3479"
       cx="0"
       style="fill:none" /><polygon
       class="fil2"
       points="-3521,10619 -2956,10710 -2920,10488 -3485,10397 -3472,10312 -2906,10404 -2870,10181 -3436,10090 -3422,10006 -2784,10109 -2897,10806 -3535,10703 "
       id="polygon3481"
       style="fill:#ffd600;fill-rule:nonzero" /><polygon
       id="polygon3483"
       class="fil2"
       points="-3316,9736 -3097,9265 -3027,9297 -3119,9494 -2602,9734 -2639,9813 -3155,9572 -3247,9769 "
       style="fill:#ffd600;fill-rule:nonzero" /><path
       id="path3485"
       class="fil2"
       d="m -2721,8714 315,502 c 14,21 23,40 27,58 5,18 6,35 4,50 -1,15 -5,28 -10,40 -6,12 -12,23 -19,34 -7,9 -15,20 -24,33 -9,12 -16,20 -18,24 l -67,-46 4,-5 c 3,-3 7,-8 13,-15 5,-7 12,-16 20,-27 3,-5 7,-12 12,-19 4,-8 7,-16 8,-23 1,-10 2,-19 0,-29 -1,-10 -6,-22 -15,-35 l -20,-31 -523,-85 54,-79 412,72 -223,-346 50,-73 z"
       inkscape:connector-curvature="0"
       style="fill:#ffd600;fill-rule:nonzero" /><path
       id="path3487"
       class="fil2"
       d="m -2122,8405 c 19,20 33,43 43,68 10,25 15,50 14,75 -1,31 -9,61 -23,90 -14,29 -37,59 -71,90 l -53,50 166,175 -63,60 -443,-471 118,-111 c 28,-26 53,-46 77,-60 24,-14 48,-22 73,-26 29,-5 57,-2 84,7 27,9 53,27 78,53 z m -64,62 c -15,-16 -31,-27 -48,-34 -17,-7 -34,-9 -53,-5 -16,2 -31,8 -47,18 -16,10 -33,24 -53,42 l -51,48 176,188 42,-40 c 25,-24 44,-45 55,-64 12,-18 18,-38 18,-58 1,-18 -2,-35 -8,-50 -7,-15 -17,-30 -31,-45 z"
       inkscape:connector-curvature="0"
       style="fill:#ffd600;fill-rule:nonzero" /><polygon
       id="polygon3489"
       class="fil2"
       points="-1544,8346 -1589,8371 -1918,8119 -1649,8607 -1719,8645 -2031,8080 -1928,8023 -1614,8261 -1652,7871 -1547,7813 -1236,8379 -1311,8421 -1580,7933 "
       style="fill:#ffd600;fill-rule:nonzero" /><path
       id="path3491"
       class="fil2"
       d="m -808,7620 c 32,20 60,48 85,84 26,36 46,80 62,132 15,50 22,97 22,142 -1,44 -9,83 -25,118 -16,37 -39,67 -69,91 -29,24 -64,42 -105,54 -41,13 -81,17 -119,13 -38,-4 -73,-16 -105,-37 -33,-20 -61,-48 -86,-85 -25,-36 -45,-80 -61,-130 -15,-52 -23,-100 -22,-143 1,-44 9,-83 25,-119 15,-34 38,-64 67,-88 29,-25 64,-43 106,-56 42,-13 82,-17 120,-12 39,4 74,16 105,36 z m 61,242 c -12,-41 -27,-76 -46,-105 -18,-29 -39,-52 -61,-68 -23,-16 -48,-26 -74,-30 -26,-3 -54,-1 -83,8 -30,9 -55,22 -74,39 -19,18 -34,40 -44,67 -11,26 -15,56 -14,91 1,34 7,72 20,112 24,81 60,138 107,171 48,33 100,40 157,23 58,-18 97,-53 118,-106 21,-54 19,-121 -6,-202 z"
       inkscape:connector-curvature="0"
       style="fill:#ffd600;fill-rule:nonzero" /><path
       id="path3493"
       class="fil2"
       d="m -9,7895 c 2,32 -2,61 -12,87 -10,25 -24,47 -44,64 -22,21 -47,37 -74,47 -27,10 -63,17 -107,20 l -185,15 -52,-644 171,-14 c 46,-3 81,-5 104,-3 23,1 46,6 68,16 24,10 42,25 54,44 13,20 20,43 22,70 2,30 -3,58 -17,83 -14,25 -35,46 -62,62 l 0,3 c 39,7 70,24 94,50 23,26 36,59 40,100 z m -143,-279 c -1,-15 -5,-28 -11,-39 -6,-11 -15,-20 -27,-25 -15,-7 -31,-10 -48,-11 -17,0 -41,1 -71,3 l -82,7 15,188 98,-7 c 27,-3 46,-6 59,-9 12,-4 25,-11 38,-21 12,-9 21,-21 25,-35 4,-14 6,-31 4,-51 z m 54,290 c -2,-25 -7,-44 -15,-59 -8,-15 -24,-28 -46,-37 -14,-6 -29,-9 -45,-10 -16,-1 -39,0 -69,3 l -97,7 19,238 70,-6 c 37,-3 67,-7 88,-12 22,-6 40,-14 56,-27 15,-12 26,-26 32,-41 7,-15 9,-34 7,-56 z"
       inkscape:connector-curvature="0"
       style="fill:#ffd600;fill-rule:nonzero" /><path
       id="7"
       class="fil2"
       d="m 66,8085 311,-607 105,16 119,671 -90,-13 -30,-186 -245,-37 -84,169 -86,-13 z m 402,-196 -54,-315 -143,285 197,30 z"
       inkscape:connector-curvature="0"
       style="fill:#ffd600;fill-rule:nonzero" /><path
       id="8"
       class="fil2"
       d="m 1094,8312 -81,-27 82,-244 -93,-31 -264,182 -98,-33 283,-190 c -37,-28 -61,-60 -74,-97 -13,-36 -11,-79 5,-128 11,-32 26,-56 47,-74 21,-19 44,-32 70,-40 25,-7 50,-9 78,-5 28,3 58,10 89,20 l 162,55 -206,612 z m 24,-339 77,-230 -85,-29 c -23,-8 -43,-13 -58,-15 -15,-1 -30,0 -45,4 -15,4 -29,13 -42,25 -12,13 -21,29 -27,47 -8,22 -11,41 -11,57 0,17 4,32 12,47 8,16 20,30 37,40 16,10 37,19 60,27 l 82,27 z"
       inkscape:connector-curvature="0"
       style="fill:#ffd600;fill-rule:nonzero" /><path
       id="9"
       class="fil2"
       d="m 1733,8693 c -35,-24 -63,-51 -84,-83 -21,-32 -35,-66 -40,-104 -5,-38 -2,-78 10,-121 13,-42 34,-86 65,-131 31,-44 63,-79 97,-104 34,-26 70,-43 109,-53 37,-9 75,-10 113,-2 37,7 74,23 110,48 18,12 34,25 48,38 13,14 26,27 36,40 9,12 18,24 26,38 8,13 16,27 23,42 l -58,85 -6,-4 c -2,-10 -6,-22 -10,-37 -4,-14 -11,-31 -19,-48 -9,-17 -20,-33 -32,-48 -13,-16 -30,-31 -51,-46 -22,-15 -47,-25 -74,-30 -26,-4 -53,-3 -81,5 -27,7 -55,22 -82,44 -27,21 -52,49 -76,83 -25,37 -42,71 -51,103 -9,33 -13,63 -10,92 3,28 11,53 25,76 14,22 32,41 54,56 21,15 41,25 62,32 21,7 41,11 59,13 19,2 35,2 50,1 15,-2 27,-3 36,-5 l 6,4 -59,84 c -15,-2 -30,-4 -44,-7 -13,-2 -29,-5 -47,-11 -19,-5 -36,-12 -51,-18 -15,-6 -33,-17 -54,-32 z"
       inkscape:connector-curvature="0"
       style="fill:#ffd600;fill-rule:nonzero" /><path
       id="10"
       class="fil2"
       d="m 2434,9072 c -23,22 -48,37 -74,45 -27,8 -52,10 -78,6 -31,-4 -58,-14 -83,-29 -25,-15 -52,-38 -82,-70 l -127,-135 470,-443 118,125 c 31,33 54,60 67,78 14,19 24,40 30,63 7,26 7,49 -1,71 -7,21 -21,42 -41,60 -22,21 -47,34 -76,39 -28,4 -57,1 -86,-10 l -3,2 c 19,36 26,70 20,105 -6,34 -24,65 -54,93 z m 129,-285 c 12,-11 20,-22 25,-33 4,-12 5,-24 2,-37 -4,-16 -11,-30 -21,-44 -11,-13 -26,-31 -47,-53 l -56,-60 -138,129 67,71 c 18,20 33,33 44,41 10,7 24,13 39,17 15,4 30,3 43,-2 14,-6 28,-15 42,-29 z m -192,223 c 18,-17 30,-33 36,-49 7,-15 7,-35 1,-58 -4,-15 -11,-29 -21,-42 -9,-13 -24,-30 -44,-51 l -67,-72 -173,163 48,51 c 25,27 47,48 64,61 18,14 36,23 56,27 19,4 36,4 52,0 15,-5 31,-15 48,-30 z"
       inkscape:connector-curvature="0"
       style="fill:#ffd600;fill-rule:nonzero" /><path
       id="11"
       class="fil2"
       d="m 3093,9433 c -13,35 -34,69 -65,101 -30,32 -68,61 -115,87 -46,25 -91,42 -134,51 -44,9 -84,9 -121,1 -39,-9 -73,-25 -103,-49 -29,-24 -54,-55 -75,-91 -21,-39 -33,-77 -37,-115 -4,-37 1,-74 14,-110 13,-36 35,-70 65,-102 30,-31 69,-60 115,-86 47,-26 92,-43 135,-51 42,-8 83,-8 120,-1 37,8 71,24 101,48 30,24 55,54 76,92 21,39 34,77 38,116 3,38 -1,74 -14,109 z m -223,110 c 37,-21 68,-43 92,-67 25,-24 42,-49 53,-74 11,-26 16,-52 14,-78 -2,-27 -10,-53 -24,-80 -16,-27 -33,-48 -54,-63 -21,-16 -46,-25 -74,-30 -28,-5 -58,-3 -92,5 -33,8 -68,22 -105,43 -74,41 -122,87 -144,140 -23,53 -19,106 10,158 28,53 71,84 128,93 56,9 121,-6 196,-47 z"
       inkscape:connector-curvature="0"
       style="fill:#ffd600;fill-rule:nonzero" /><path
       id="12"
       class="fil2"
       d="m 3244,10152 c -27,9 -54,12 -81,10 -26,-2 -51,-9 -73,-21 -28,-14 -51,-34 -71,-60 -20,-25 -37,-59 -50,-103 l -22,-70 -230,73 -26,-82 616,-194 49,155 c 11,36 18,68 20,96 2,27 -1,53 -8,77 -9,27 -23,52 -43,72 -20,21 -47,36 -81,47 z m -29,-85 c 21,-6 38,-16 52,-28 13,-12 22,-27 27,-45 5,-16 6,-33 4,-51 -2,-18 -7,-40 -15,-66 l -21,-68 -244,77 17,56 c 11,33 22,59 34,77 11,19 26,33 44,42 16,9 32,13 49,14 16,1 34,-1 53,-8 z"
       inkscape:connector-curvature="0"
       style="fill:#ffd600;fill-rule:nonzero" /><path
       id="13"
       class="fil2"
       d="m 2829,10341 672,121 16,104 -608,311 -13,-90 169,-84 -37,-245 -186,-31 -13,-86 z m 306,327 286,-143 -315,-54 29,197 z"
       inkscape:connector-curvature="0"
       style="fill:#ffd600;fill-rule:nonzero" /><polygon
       class="fil4"
       points="-2010,8974 2183,11120 -1596,10510 "
       id="polygon3502"
       style="fill:#000000" /><g
       id="_831307328"><polygon
         class="fil5"
         points="-1918,9088 -1549,10458 1823,11002 "
         id="polygon3505"
         style="fill:#ffffff" /></g><polygon
       class="fil4"
       points="-1289,10037 2904,12183 -876,11573 "
       id="polygon3507"
       style="fill:#000000" /><g
       id="_831307072"><polygon
         class="fil5"
         points="-1198,10151 -829,11521 2543,12065 "
         id="polygon3510"
         style="fill:#ffffff" /></g><polygon
       class="fil4"
       points="-2478,10352 1715,12498 -2065,11888 "
       id="polygon3512"
       style="fill:#000000" /><g
       id="_831309952"><polygon
         class="fil5"
         points="-2387,10466 -2018,11836 1354,12380 "
         id="polygon3515"
         style="fill:#ffffff" /></g></g></svg>