<?xml version="1.0" encoding="UTF-8" standalone="no"?>
<!-- Creator: CorelDRAW X7 -->

<svg
   xmlns:dc="http://purl.org/dc/elements/1.1/"
   xmlns:cc="http://creativecommons.org/ns#"
   xmlns:rdf="http://www.w3.org/1999/02/22-rdf-syntax-ns#"
   xmlns:svg="http://www.w3.org/2000/svg"
   xmlns="http://www.w3.org/2000/svg"
   xmlns:sodipodi="http://sodipodi.sourceforge.net/DTD/sodipodi-0.dtd"
   xmlns:inkscape="http://www.inkscape.org/namespaces/inkscape"
   xml:space="preserve"
   width="7.8740005in"
   height="7.8740005in"
   version="1.1"
   style="clip-rule:evenodd;fill-rule:evenodd;image-rendering:optimizeQuality;shape-rendering:geometricPrecision;text-rendering:geometricPrecision"
   viewBox="0 0 7874.0005 7874.0005"
   id="svg3364"
   inkscape:version="0.91 r13725"
   sodipodi:docname="Ariadna - 3rd Highlander Greys - [N3] [Vyo].svg"><metadata
     id="metadata3424"><rdf:RDF><cc:Work
         rdf:about=""><dc:format>image/svg+xml</dc:format><dc:type
           rdf:resource="http://purl.org/dc/dcmitype/StillImage" /></cc:Work></rdf:RDF></metadata><sodipodi:namedview
     pagecolor="#ffffff"
     bordercolor="#666666"
     borderopacity="1"
     objecttolerance="10"
     gridtolerance="10"
     guidetolerance="10"
     inkscape:pageopacity="0"
     inkscape:pageshadow="2"
     inkscape:window-width="640"
     inkscape:window-height="480"
     id="namedview3422"
     showgrid="false"
     inkscape:zoom="0.23838384"
     inkscape:cx="736.83001"
     inkscape:cy="849.33005"
     inkscape:window-x="0"
     inkscape:window-y="0"
     inkscape:window-maximized="0"
     inkscape:current-layer="svg3364" /><defs
     id="defs3366"><style
       type="text/css"
       id="style3368"><![CDATA[
    .fil2 {fill:none}
    .fil7 {fill:black}
    .fil3 {fill:black}
    .fil0 {fill:#00659B}
    .fil6 {fill:#E32527}
    .fil5 {fill:#FFCC00}
    .fil1 {fill:white}
    .fil4 {fill:#FFCC00;fill-rule:nonzero}
   ]]></style></defs><g
     id="Layer_x0020_1"
     transform="translate(3937,-7063)"><metadata
       id="CorelCorpID_0Corel-Layer" /><circle
       class="fil0"
       cy="11000"
       r="3937"
       id="circle3372"
       cx="0"
       style="fill:#00659b" /><circle
       class="fil1"
       cy="11000"
       r="3858"
       id="circle3374"
       cx="0"
       style="fill:#ffffff" /><path
       class="fil0"
       d="m 0,13913 c 562,0 1087,-159 1532,-435 L 0,11947 -1532,13478 c 445,276 970,435 1532,435 z m 2478,-1381 c 276,-445 435,-970 435,-1532 0,-562 -159,-1087 -435,-1532 L 947,11000 2478,12532 Z M 1532,8522 C 1087,8246 562,8087 0,8087 c -562,0 -1087,159 -1532,435 L 0,10053 1532,8522 Z m -4010,946 c -276,445 -435,970 -435,1532 0,562 159,1087 435,1532 L -947,11000 -2478,9468 Z"
       id="path3376"
       inkscape:connector-curvature="0"
       style="fill:#00659b" /><circle
       class="fil2"
       cy="11000"
       r="3898"
       id="circle3378"
       cx="0"
       style="fill:none" /><circle
       class="fil2"
       cy="11000"
       r="3898"
       id="circle3380"
       cx="0"
       style="fill:none" /><g
       id="_864076080"><path
         class="fil3"
         d="m 3180,11851 c -9,-7 -17,-14 -24,-23 -6,-9 -11,-18 -15,-29 -3,-11 -5,-22 -4,-33 2,-18 4,-35 7,-52 3,-17 6,-34 10,-51 5,-20 9,-40 14,-60 4,-16 8,-33 13,-49 4,-12 9,-25 15,-37 6,-11 14,-21 24,-28 7,-6 16,-11 25,-14 9,-3 18,-5 27,-5 8,0 17,1 26,2 9,2 17,4 26,6 l 8,1 0,0 20,4 c 19,5 38,10 58,14 15,4 31,8 45,14 13,4 25,10 35,18 10,9 18,20 22,32 5,14 5,28 4,43 -1,18 -5,36 -9,53 -2,9 -4,18 -6,27 -2,9 -4,17 -6,26 l -6,26 c -6,26 -13,52 -21,78 -6,21 -16,41 -31,57 -15,15 -34,24 -56,26 -25,4 -53,-1 -78,-7 -12,-2 -24,-6 -36,-9 -15,-4 -29,-8 -43,-12 l -73,215 12,4 69,-203 93,31 -69,203 13,5 74,-218 100,35 -114,335 -186,-64 c 8,4 15,9 21,14 10,8 18,17 23,28 2,3 3,6 4,9 9,-5 19,-7 29,-6 13,0 27,5 38,11 l 67,30 -52,115 -54,-25 c -4,-1 -12,-5 -15,-4 -3,2 -7,10 -9,13 l -50,112 69,32 -52,114 -306,-139 116,-257 c 7,-15 16,-30 26,-43 10,-11 22,-20 35,-25 11,-4 22,-6 34,-5 l -57,-19 115,-335 55,19 z m 106,-253 c -2,2 -3,7 -4,9 -3,9 -5,19 -7,28 l -5,21 c -2,7 -4,15 -6,22 -1,7 -3,13 -4,19 -3,11 -5,23 -7,34 -1,3 -1,8 0,12 1,2 6,5 8,6 10,5 24,8 35,11 13,3 26,5 39,8 6,1 14,2 21,1 2,-1 5,-1 7,-3 3,-3 5,-8 7,-11 4,-9 6,-19 8,-28 4,-15 7,-30 11,-46 2,-11 5,-23 8,-34 1,-6 2,-14 2,-20 0,-1 -1,-3 -1,-4 l -24,104 -94,-21 25,-107 -7,-1 c -3,0 -8,-1 -12,0 z m -639,1335 c -1,-4 -3,-7 -4,-11 -5,-12 -6,-24 -4,-37 2,-14 7,-27 13,-39 6,-13 14,-27 21,-40 12,-22 26,-44 40,-66 8,-12 15,-25 23,-37 7,-10 14,-20 22,-29 6,-8 13,-16 20,-22 8,-7 17,-12 26,-15 9,-3 18,-6 27,-6 8,0 17,1 25,4 8,2 15,6 22,9 8,4 15,9 22,13 l 17,11 -15,24 c 14,-8 30,-10 46,-7 19,3 39,13 55,23 13,8 25,17 35,28 9,10 16,21 20,33 3,12 4,25 1,37 -2,13 -7,26 -12,38 -7,14 -15,27 -22,40 -14,24 -29,48 -44,72 -14,24 -30,47 -47,69 -12,15 -27,31 -45,37 -9,4 -20,6 -30,6 -9,-1 -17,-3 -25,-6 -8,-3 -15,-7 -22,-11 -7,-5 -14,-9 -21,-14 l -17,-10 19,-30 c -5,3 -10,4 -15,6 -13,3 -27,1 -40,-2 -14,-5 -28,-13 -41,-21 -4,-2 -8,-5 -11,-7 l -139,174 10,7 133,-168 77,62 -133,167 11,9 142,-180 84,66 -221,278 -14,-12 8,8 -220,232 -167,-158 -155,133 13,15 154,-133 69,81 -154,132 67,78 -94,81 -220,-255 256,-221 1,1 72,-77 162,154 128,-134 -169,-135 220,-277 40,32 z m 181,-174 c 0,0 -1,0 -1,0 -3,2 -6,7 -9,10 -6,8 -11,16 -17,25 -1,1 -2,3 -3,4 0,1 -1,2 -1,3 l 0,1 -1,0 c -7,14 -15,28 -24,41 -4,7 -9,15 -13,23 0,1 -1,4 -1,5 1,1 3,2 3,3 1,0 1,0 1,0 3,-1 6,-4 7,-7 7,-10 14,-20 20,-30 6,-8 12,-17 18,-26 3,-5 6,-10 9,-15 3,-5 6,-11 10,-16 3,-6 7,-11 11,-17 l -2,-1 c -2,-1 -5,-3 -7,-3 z m 28,172 1,1 c 3,2 6,4 9,6 0,0 0,0 0,0 0,0 0,0 0,0 2,-1 5,-5 6,-6 4,-6 8,-11 11,-16 7,-11 14,-21 21,-32 8,-13 17,-27 25,-40 4,-7 9,-15 11,-23 1,-1 1,-2 1,-3 -1,-1 -2,-2 -3,-2 -1,-1 -3,-2 -3,-2 -1,0 -1,0 -1,1 -3,2 -6,5 -8,8 -4,6 -8,12 -12,18 -13,20 -27,41 -39,62 -7,9 -13,19 -19,28 z m -977,800 -52,-74 103,-73 195,275 -103,73 -127,-179 c 2,3 4,6 5,9 8,13 16,28 20,43 3,12 4,25 2,37 -1,3 -2,6 -3,9 11,1 20,6 28,12 10,8 18,20 24,31 l 37,64 -110,62 -29,-51 c -2,-4 -7,-11 -10,-13 -3,0 -11,4 -14,6 l -107,61 38,66 -110,63 -166,-293 245,-140 c 14,-8 30,-15 46,-19 14,-3 29,-4 43,0 15,4 27,12 37,22 3,3 6,6 8,9 z m -837,326 106,-41 120,70 39,-134 148,-58 -86,270 43,109 -119,47 -43,-108 -194,-106 15,52 -220,64 3,11 206,-59 27,95 -206,59 4,13 221,-63 29,102 -340,98 -50,-174 c 0,1 0,3 -1,4 0,12 -3,25 -10,35 -1,3 -3,5 -5,8 9,5 16,12 22,21 7,11 10,25 12,37 l 13,72 -125,22 -10,-58 c 0,-4 -2,-13 -5,-15 -3,-2 -12,0 -15,0 l -121,21 13,76 -124,21 -25,-142 c 0,7 0,14 1,21 0,16 -1,32 -2,47 -2,14 -4,27 -10,39 -6,12 -14,21 -25,29 -12,7 -27,12 -41,14 -17,3 -36,4 -54,5 -9,0 -18,0 -28,0 -8,0 -17,0 -26,0 l -26,1 c -27,0 -55,0 -82,-1 -21,-2 -43,-6 -62,-17 -19,-11 -32,-27 -39,-47 -10,-24 -12,-53 -13,-78 0,-12 0,-25 1,-38 0,-18 0,-37 1,-56 0,-11 2,-23 7,-34 4,-11 9,-21 16,-29 7,-9 15,-16 25,-22 9,-6 20,-10 31,-12 17,-3 35,-5 52,-6 17,-2 35,-2 52,-3 21,0 41,-1 62,-1 16,0 33,0 50,1 13,1 27,2 40,6 12,3 23,8 33,16 3,3 7,6 10,9 l -6,-34 278,-48 c 16,-3 34,-4 50,-2 15,1 29,6 41,14 4,3 9,7 12,11 l -10,-37 340,-98 0,1 z m -805,274 c -2,-1 -7,-1 -10,-1 -10,-1 -19,-1 -29,-1 l -21,1 c -8,0 -15,0 -23,0 -7,0 -13,0 -20,0 -11,0 -23,1 -34,2 -4,0 -8,1 -11,3 -3,2 -4,6 -4,9 -3,11 -3,25 -3,36 1,13 1,27 2,40 1,7 2,15 4,21 1,2 2,5 4,6 4,2 9,3 13,4 10,1 20,1 29,1 16,0 31,0 47,-1 12,0 24,0 35,0 7,-1 14,-1 20,-3 1,0 3,-1 4,-2 l -107,2 -2,-96 109,-2 0,-7 c -1,-3 -1,-8 -3,-12 z m -755,-140 1,-6 280,37 c 16,2 33,6 48,12 14,6 26,14 35,26 9,12 14,26 16,40 2,17 1,33 -1,50 -2,15 -5,32 -11,46 -4,11 -11,22 -20,30 -2,2 -5,4 -8,6 8,7 13,16 15,26 3,13 3,27 1,40 l -10,72 -125,-16 8,-59 c 1,-3 1,-12 -1,-15 -2,-3 -11,-4 -14,-5 l -122,-16 -10,76 -125,-16 37,-280 -13,57 -224,-51 -3,12 209,48 -22,95 -209,-47 -3,13 224,51 -24,104 -345,-79 32,-140 c -5,13 -10,27 -15,40 -11,28 -30,51 -57,63 -28,12 -58,9 -87,-1 l -284,-99 78,-222 -109,214 -148,-75 -41,-228 -84,164 -107,-54 0,1 -117,-75 6,-60 -133,-85 -53,31 -118,-75 5,-4 -227,-199 209,-238 -233,223 -88,-91 82,-78 -107,-112 -82,79 -87,-91 149,-143 -16,12 c -16,12 -32,24 -48,37 -12,9 -25,18 -39,26 -11,7 -23,13 -36,16 -13,2 -26,1 -38,-3 -14,-5 -26,-14 -36,-24 -13,-12 -25,-26 -36,-40 -6,-8 -12,-15 -17,-22 -6,-7 -11,-14 -16,-21 l -17,-21 c -16,-21 -33,-43 -48,-66 -12,-18 -21,-38 -24,-60 -3,-21 3,-41 14,-59 13,-22 35,-41 55,-57 10,-7 20,-15 30,-22 15,-11 31,-22 46,-33 9,-7 20,-12 31,-15 11,-3 23,-5 34,-4 11,0 21,2 32,6 10,4 20,10 28,18 13,12 25,24 37,38 11,13 22,26 33,40 12,16 25,32 38,48 10,13 20,27 29,41 7,11 14,23 19,35 5,12 8,24 8,36 -1,10 -2,20 -5,29 -3,6 -6,13 -10,19 l 46,-44 87,90 -77,75 107,111 77,-74 87,90 4,-4 95,83 -148,168 147,128 -41,46 278,-158 118,75 -34,375 152,-298 148,75 42,228 83,-165 96,49 1,-4 255,89 c 9,4 18,7 26,11 11,5 22,10 33,16 26,12 40,34 45,62 1,4 2,8 2,12 l 14,-64 341,78 z m -2032,-1004 5,-5 -6,4 1,1 z m -153,-40 -67,-84 76,-59 67,85 5,-4 c 3,-2 6,-6 8,-9 0,-3 -3,-7 -5,-9 -5,-8 -11,-16 -16,-23 l -14,-17 c -4,-6 -9,-12 -14,-18 -4,-6 -8,-11 -12,-16 -7,-9 -14,-18 -21,-26 -3,-3 -6,-6 -10,-7 -3,-1 -7,1 -10,2 -10,4 -21,13 -30,20 -10,8 -21,16 -31,25 -5,5 -10,10 -14,16 -1,2 -2,4 -2,7 0,4 3,9 4,13 5,8 11,16 17,23 9,13 19,25 29,37 7,10 14,19 22,28 3,5 8,11 13,14 1,1 3,2 5,2 z m -57,-460 9,-6 69,106 -283,183 -69,-106 265,-171 -289,151 -58,-112 100,-52 -72,-137 -100,52 -59,-112 299,-156 58,112 -94,50 71,137 95,-50 58,111 z m -464,-695 c 11,0 22,2 33,7 16,7 29,20 38,35 12,19 21,42 28,62 3,11 7,22 9,34 3,9 4,20 4,30 0,3 -1,7 -1,11 l 91,-30 35,105 -320,105 -35,-105 8,-3 c -8,-7 -14,-16 -19,-26 -6,-11 -10,-23 -15,-35 -6,-20 -12,-41 -15,-61 -2,-17 -2,-34 3,-50 6,-16 16,-29 29,-39 15,-10 33,-18 51,-24 2,0 5,-1 7,-2 l -26,-94 16,-6 c 5,-2 9,-4 14,-6 0,0 1,-1 1,0 0,-1 0,-3 0,-3 0,-6 -2,-13 -3,-18 -6,-20 -16,-24 -35,-18 l -121,34 -31,-108 238,-68 31,108 -6,2 c 5,5 10,12 13,18 6,11 10,22 13,34 5,16 9,35 8,52 -2,14 -6,28 -16,39 -7,9 -17,15 -27,20 z m -204,-506 c 1,10 3,21 4,32 3,20 7,40 10,60 2,9 3,18 5,27 1,4 2,10 4,13 0,1 1,2 1,2 2,0 5,0 6,0 3,-1 9,-2 11,-4 1,-3 0,-12 0,-15 l -18,-104 94,-16 13,76 c 2,8 3,17 5,25 1,3 2,8 3,11 1,0 1,0 1,0 1,1 4,0 6,0 2,0 5,-1 8,-2 0,-9 0,-18 -1,-27 -1,-10 -2,-20 -4,-31 -2,-13 -5,-27 -8,-41 -1,-7 -3,-16 -6,-23 -1,-1 -2,-4 -3,-4 -2,-1 -7,0 -9,0 -2,0 -3,1 -4,1 0,0 0,0 -1,0 l -22,8 -21,-122 20,-3 c 13,-2 27,-3 41,-4 12,0 24,1 36,5 12,4 21,11 30,20 8,10 14,22 19,34 6,16 11,32 14,48 5,22 9,44 13,66 5,25 9,51 11,76 2,19 3,39 -2,57 -5,17 -15,31 -29,40 -16,10 -35,15 -53,18 -12,2 -25,4 -37,2 -10,-1 -20,-4 -28,-11 0,2 -1,3 -2,5 -6,10 -15,17 -25,22 -12,6 -26,10 -39,12 -17,3 -35,4 -52,0 -16,-4 -29,-14 -39,-27 -11,-14 -18,-31 -22,-48 -6,-23 -11,-46 -15,-68 -1,-6 -2,-12 -2,-17 -1,-6 -2,-11 -3,-17 -3,-21 -6,-43 -10,-64 -3,-19 -5,-38 -3,-57 2,-19 10,-36 25,-49 16,-15 42,-22 64,-26 3,0 6,-1 9,-1 3,0 6,-1 9,-1 l 18,-1 19,113 -19,3 c -6,2 -16,3 -22,7 z m 6848,-118 121,16 -16,124 -121,-16 16,-124 z m -6629,780 c -3,-10 -7,-21 -12,-30 -1,-3 -4,-7 -6,-8 -2,-2 -5,-1 -7,-1 -8,1 -17,4 -25,7 -5,1 -13,4 -17,7 -1,1 -2,1 -2,2 -1,3 0,8 0,11 2,9 5,17 7,26 4,12 8,24 13,35 2,4 5,10 8,13 2,1 3,1 5,1 7,0 16,-3 23,-5 7,-2 15,-5 21,-9 1,-1 2,-2 3,-4 1,-4 0,-10 -1,-14 -3,-10 -6,-21 -10,-31 z m 1353,1709 6,-61 -54,31 48,30 z m 667,384 118,41 c 8,3 17,6 25,7 3,0 6,0 9,-1 4,-3 8,-8 10,-12 6,-11 10,-23 14,-35 4,-10 7,-20 9,-30 1,-5 2,-11 1,-16 -1,-3 -2,-5 -4,-7 -4,-4 -11,-7 -16,-9 l -129,-45 -37,107 z m 778,108 108,14 c 3,0 5,1 8,1 1,1 2,1 3,1 6,1 14,2 20,1 1,0 2,0 3,0 0,0 0,-1 0,-2 2,-6 3,-12 4,-18 0,-3 1,-9 0,-12 0,-1 0,-1 0,-1 -1,-1 -4,-2 -6,-2 -7,-2 -14,-3 -21,-4 l -114,-15 -5,37 z m 892,-8 108,-19 c 2,0 5,0 7,-1 1,0 3,0 4,0 6,-1 13,-2 19,-5 1,0 2,-1 3,-1 0,0 0,-1 0,-2 -1,-6 -2,-12 -3,-18 0,-3 -1,-9 -3,-12 0,0 0,0 0,-1 -2,0 -5,0 -6,0 -7,1 -14,2 -21,3 l -114,20 6,36 z m 1202,-415 95,-54 c 2,-2 4,-3 7,-4 1,0 2,-1 3,-2 5,-3 12,-6 16,-11 1,0 2,-1 2,-1 0,-1 0,-2 0,-2 -2,-6 -5,-11 -8,-16 -2,-3 -5,-8 -8,-11 0,0 0,0 0,0 -2,0 -5,1 -6,1 -6,3 -13,7 -19,10 l -100,58 18,32 z m 1360,-1464 45,-99 c 1,-2 2,-5 4,-7 0,-1 1,-2 1,-3 3,-6 6,-12 7,-19 0,0 1,-2 1,-2 0,-1 -1,-1 -2,-1 -5,-4 -10,-6 -16,-9 -3,-1 -8,-3 -12,-4 0,0 0,0 -1,0 -1,1 -2,4 -3,5 -4,6 -7,12 -10,19 l -48,105 34,15 z"
         id="path3383"
         inkscape:connector-curvature="0"
         style="fill:#000000" /></g><path
       class="fil4"
       d="m -3389,11720 c -17,3 -32,3 -43,0 -12,-3 -21,-10 -29,-20 -7,-10 -13,-24 -18,-41 -5,-18 -10,-40 -14,-67 -2,-6 -2,-12 -3,-16 -1,-4 -1,-10 -2,-16 -3,-24 -7,-46 -11,-66 -3,-19 -4,-36 -3,-51 2,-15 8,-27 19,-36 10,-10 28,-17 54,-21 3,-1 6,-1 8,-1 2,-1 5,-1 8,-1 l 14,76 c -14,2 -23,5 -30,9 -6,4 -9,10 -8,17 0,7 2,19 4,34 2,16 5,37 10,61 1,11 3,20 5,28 1,8 3,14 6,19 3,5 6,8 10,10 5,2 10,2 18,1 13,-2 21,-7 25,-13 3,-6 3,-16 1,-28 l -3,-18 -12,-67 56,-9 10,56 c 2,10 3,19 5,26 1,7 3,13 6,17 2,4 5,7 9,9 5,1 10,2 17,0 8,-1 14,-3 18,-6 4,-2 7,-6 7,-11 0,-11 0,-22 -1,-33 -1,-11 -3,-21 -5,-32 -3,-17 -5,-31 -7,-42 -3,-11 -5,-20 -9,-27 -3,-7 -7,-11 -12,-14 -5,-2 -12,-3 -21,-1 -1,0 -2,0 -4,1 -1,0 -2,0 -4,1 l -13,-79 c 15,-2 27,-4 39,-4 11,0 20,1 28,4 9,3 16,7 22,14 6,7 11,17 16,29 5,12 9,27 13,45 4,17 8,39 13,64 5,30 9,55 11,75 2,21 1,37 -2,50 -4,13 -11,22 -21,29 -10,7 -25,12 -45,15 -13,2 -24,3 -31,2 -8,-1 -14,-4 -19,-8 -5,-4 -9,-9 -13,-15 -3,-7 -7,-15 -11,-23 0,10 0,19 -1,27 0,8 -2,16 -6,22 -3,6 -9,11 -17,15 -8,4 -19,7 -34,10 z m 116,105 c 8,0 15,1 22,3 7,2 13,5 18,10 5,5 10,11 14,19 4,7 8,17 11,29 6,19 8,34 7,45 -1,11 -5,21 -11,28 -6,7 -15,13 -26,18 -11,4 -24,8 -39,13 l -19,-66 c 6,-2 10,-4 15,-6 4,-2 7,-4 10,-8 2,-3 3,-8 3,-13 0,-6 -1,-14 -4,-24 -9,-30 -29,-40 -60,-31 l -101,29 -21,-70 201,-58 20,70 -40,12 z m 83,317 c -5,-15 -9,-26 -13,-33 -4,-8 -9,-13 -14,-16 -6,-4 -12,-5 -20,-4 -7,2 -17,4 -28,8 -10,3 -18,7 -23,10 -5,4 -8,8 -9,14 -2,5 -2,11 0,19 2,8 4,17 8,28 5,16 9,28 13,37 4,9 9,16 14,20 5,4 11,6 18,6 7,0 17,-2 28,-6 12,-4 20,-8 26,-12 6,-4 9,-9 11,-15 1,-7 1,-14 -1,-23 -2,-9 -6,-20 -10,-33 z m -84,102 c -10,1 -18,0 -25,-2 -8,-3 -14,-7 -20,-12 -6,-6 -11,-13 -16,-22 -5,-9 -10,-20 -14,-33 -7,-22 -12,-41 -14,-57 -3,-16 -2,-30 2,-41 4,-11 11,-21 22,-29 11,-8 26,-15 45,-21 21,-7 39,-12 55,-14 15,-3 28,-1 40,4 11,5 21,14 30,28 8,13 17,33 25,58 4,12 7,22 9,31 2,9 3,18 3,25 0,8 -2,15 -5,22 -3,7 -8,14 -14,23 l 117,-39 22,68 -283,93 -22,-68 43,-14 z m 353,408 95,-49 40,77 -264,137 -40,-76 101,-53 -90,-172 -101,52 -40,-76 264,-138 40,77 -95,49 90,172 z m 212,129 -250,161 -47,-72 250,-162 47,73 z m -33,285 45,-35 119,152 c -18,14 -34,26 -48,37 -14,10 -26,19 -37,26 -11,6 -21,10 -30,12 -9,2 -19,2 -28,-2 -9,-3 -19,-10 -29,-19 -10,-10 -21,-22 -34,-39 -5,-7 -11,-14 -17,-21 -5,-7 -11,-15 -16,-21 l -16,-21 c -19,-25 -35,-46 -47,-64 -12,-19 -19,-36 -21,-52 -2,-16 1,-32 11,-47 9,-15 26,-32 50,-51 7,-6 17,-13 30,-22 12,-10 28,-20 45,-33 8,-6 17,-10 26,-12 9,-3 18,-4 27,-4 9,1 18,2 26,5 8,3 15,8 22,14 12,12 24,24 35,37 11,12 22,25 32,39 14,18 27,34 38,48 11,15 21,28 29,39 7,12 13,23 17,33 4,9 6,19 6,28 0,8 -2,15 -4,22 -2,7 -6,13 -10,18 -4,6 -10,11 -16,16 -6,6 -12,11 -20,17 l -52,-66 c 6,-6 10,-10 13,-14 2,-4 3,-9 2,-13 -1,-5 -4,-11 -8,-17 -5,-7 -10,-15 -18,-24 l -13,-17 c -5,-6 -10,-12 -14,-18 -4,-6 -8,-11 -12,-16 -9,-11 -16,-20 -22,-27 -6,-7 -13,-12 -20,-13 -6,-2 -14,-1 -23,3 -9,4 -20,11 -34,22 -13,10 -23,19 -32,26 -8,8 -14,15 -18,21 -3,6 -5,12 -5,18 1,6 3,13 7,21 4,8 10,17 18,27 8,10 18,22 29,36 8,11 16,20 22,28 6,8 12,14 18,18 6,4 12,6 18,6 6,-1 12,-4 20,-10 1,-1 2,-2 3,-3 1,0 2,-1 3,-2 l -67,-86 z m 402,335 78,-74 60,63 -215,206 -60,-63 82,-78 -135,-141 -81,79 -60,-63 214,-206 60,63 -77,74 134,140 z m 236,69 -147,168 146,128 -49,55 -211,-185 196,-223 65,57 z m 264,421 13,-131 -115,66 102,65 z m -6,69 -154,-98 -53,31 -80,-52 292,-166 98,62 -30,334 -80,-51 7,-60 z m 596,46 -135,265 -122,-62 -49,-276 -102,199 -72,-37 135,-265 122,62 50,276 101,-199 72,37 z m 36,247 137,48 c 11,4 21,7 29,8 8,1 15,-1 21,-5 6,-3 12,-10 17,-19 5,-9 10,-21 16,-37 4,-13 7,-23 9,-33 2,-9 3,-17 1,-24 -1,-7 -5,-13 -10,-18 -5,-4 -13,-9 -23,-12 l -147,-52 -50,144 z m -106,40 98,-281 236,83 c 7,2 16,6 25,10 10,5 21,10 33,15 18,9 30,25 34,49 4,23 0,53 -13,90 -3,9 -7,19 -12,32 -5,13 -10,27 -17,44 -10,25 -25,42 -46,51 -21,9 -45,9 -72,0 l -266,-93 z m 410,134 66,-290 307,70 -15,65 -224,-51 -11,51 209,48 -13,57 -209,-48 -12,52 224,51 -15,65 -307,-70 z m 477,-61 128,16 c 2,1 4,1 5,1 1,1 3,1 5,1 10,2 18,2 24,2 6,-1 11,-2 14,-5 4,-3 6,-7 7,-12 2,-5 3,-12 4,-20 1,-8 1,-14 0,-19 -1,-5 -3,-9 -6,-12 -3,-3 -8,-5 -14,-6 -6,-2 -14,-3 -23,-4 l -134,-18 -10,76 z m -10,71 -10,76 -86,-11 39,-295 260,34 c 18,3 32,6 43,11 12,5 21,12 27,20 7,9 11,19 12,31 2,12 2,27 -1,44 -2,18 -5,32 -9,41 -4,10 -9,18 -15,23 -6,5 -13,9 -21,11 -8,2 -17,4 -27,5 8,3 15,6 22,8 7,2 12,6 17,10 5,5 8,11 10,18 2,8 2,19 0,32 l -7,53 -86,-11 6,-39 c 1,-13 0,-22 -4,-29 -4,-7 -14,-11 -28,-13 l -142,-19 z m 595,-9 -1,-57 193,-4 c 0,23 1,43 1,61 0,17 0,32 -2,44 -1,13 -4,24 -8,32 -4,9 -10,16 -18,21 -8,6 -19,9 -33,12 -14,2 -31,3 -51,4 -9,0 -18,0 -28,0 -9,0 -18,0 -26,1 l -27,0 c -31,1 -58,0 -80,-1 -21,-1 -39,-6 -53,-14 -14,-8 -25,-21 -31,-37 -7,-17 -10,-41 -11,-71 0,-9 0,-22 0,-37 1,-16 1,-35 2,-56 0,-10 2,-19 5,-28 4,-9 8,-17 14,-24 5,-7 12,-13 19,-18 8,-4 16,-7 24,-9 17,-2 34,-4 51,-6 17,-1 33,-2 50,-2 23,0 44,-1 62,-1 18,-1 34,0 48,1 15,0 27,2 37,5 10,2 19,7 26,12 6,5 11,11 15,17 4,6 7,12 9,19 1,6 3,14 3,22 1,8 1,17 1,26 l -84,1 c -1,-7 -2,-13 -4,-18 -1,-4 -4,-7 -9,-9 -4,-2 -10,-4 -18,-4 -8,0 -18,-1 -30,0 l -22,0 c -7,0 -15,0 -22,0 -7,0 -14,0 -20,1 -14,0 -26,0 -35,1 -9,1 -17,3 -22,7 -6,5 -10,11 -12,21 -2,9 -3,23 -2,41 0,16 1,30 2,41 1,11 2,19 5,26 3,7 7,12 12,15 5,4 12,6 20,7 9,2 20,2 33,2 12,0 28,-1 46,-1 14,0 26,0 36,-1 10,0 18,-1 25,-3 7,-3 12,-6 15,-11 3,-5 5,-12 4,-22 0,-2 0,-3 0,-4 0,-1 0,-3 0,-4 l -109,2 z m 313,-64 127,-22 c 2,-1 4,-1 6,-1 1,0 3,0 5,-1 10,-1 18,-3 23,-5 6,-3 10,-5 12,-9 2,-4 4,-8 3,-14 0,-5 -1,-12 -2,-20 -2,-8 -3,-14 -6,-18 -2,-4 -5,-8 -9,-9 -4,-2 -9,-3 -16,-2 -6,0 -14,1 -23,3 l -133,23 13,75 z m 12,71 13,76 -85,14 -51,-293 259,-44 c 17,-3 32,-4 44,-3 12,1 23,5 32,11 8,6 15,15 20,26 6,11 10,25 13,42 3,18 4,32 3,43 -1,10 -3,19 -8,26 -4,7 -9,12 -16,16 -7,5 -15,9 -24,13 8,1 16,1 23,1 7,0 13,2 19,5 6,3 11,8 15,14 4,7 8,17 10,30 l 9,53 -85,15 -7,-39 c -2,-12 -6,-21 -12,-26 -6,-6 -17,-7 -31,-4 l -141,24 z m 331,18 -82,-286 303,-87 18,65 -221,63 14,50 207,-59 16,56 -206,59 14,51 221,-63 19,64 -303,87 z m 472,-337 43,-149 100,-40 -75,238 38,97 -82,33 -38,-97 -220,-121 100,-40 134,79 z m 395,-164 113,-63 c 2,-1 3,-2 5,-3 1,0 2,-1 4,-2 9,-5 16,-10 20,-14 5,-4 7,-8 9,-12 1,-4 0,-9 -2,-14 -2,-5 -5,-11 -9,-18 -4,-7 -8,-12 -12,-15 -3,-4 -7,-5 -12,-6 -4,0 -9,1 -15,3 -6,3 -12,7 -21,11 l -117,67 37,66 z m 36,63 38,67 -75,43 -147,-259 228,-129 c 15,-9 29,-15 41,-18 12,-3 23,-3 33,0 10,3 20,8 28,17 9,9 18,21 26,36 9,15 15,28 18,39 2,10 3,19 1,27 -1,7 -4,14 -10,21 -5,6 -11,13 -18,20 8,-2 15,-4 22,-7 7,-2 14,-3 20,-2 6,1 13,4 19,8 6,5 13,14 19,26 l 27,46 -76,43 -19,-34 c -6,-11 -13,-18 -20,-21 -8,-3 -18,-1 -31,7 l -124,70 z m 214,-403 173,242 -71,50 -173,-242 71,-50 z m 234,206 -194,-226 226,-195 46,53 -162,139 38,45 154,-133 43,51 -154,132 67,78 -64,56 z m 108,-497 162,154 134,-141 54,51 -194,204 -216,-205 60,-63 z m 380,39 -233,-185 196,-247 52,42 -142,180 40,32 134,-168 46,37 -134,168 42,33 143,-180 52,41 -196,247 z m 197,-615 c -5,-4 -11,-5 -15,-6 -5,0 -9,1 -13,4 -4,3 -9,8 -14,14 -5,7 -10,15 -17,26 -1,2 -2,4 -3,5 -1,1 -2,3 -3,5 -9,16 -17,29 -23,39 -7,11 -12,20 -15,27 -3,7 -4,13 -2,18 1,4 5,9 12,13 6,4 12,5 18,3 6,-2 11,-7 17,-15 7,-10 13,-20 20,-30 6,-9 12,-18 17,-26 3,-5 7,-11 10,-16 3,-5 6,-11 9,-15 13,-20 24,-37 35,-51 10,-13 21,-23 32,-30 11,-6 23,-8 36,-6 13,2 29,9 48,21 13,8 23,16 30,24 8,8 13,17 16,26 2,9 3,18 1,28 -2,10 -5,21 -11,33 -3,6 -10,19 -21,38 -11,19 -25,43 -43,72 -18,28 -34,50 -47,67 -13,16 -25,27 -36,31 -8,3 -15,4 -22,4 -6,0 -13,-2 -19,-4 -6,-3 -12,-6 -19,-10 -6,-4 -13,-8 -21,-13 l 46,-72 c 3,2 6,4 9,5 3,2 6,3 9,4 3,0 6,-1 10,-3 4,-1 8,-5 13,-12 2,-2 6,-8 12,-16 5,-9 12,-19 20,-32 11,-17 19,-30 26,-41 6,-11 11,-20 13,-27 2,-7 3,-12 1,-16 -2,-4 -5,-8 -11,-12 -6,-3 -11,-5 -15,-5 -5,0 -9,2 -13,5 -4,3 -8,8 -11,13 -4,6 -8,12 -12,18 -16,23 -29,44 -40,62 -12,18 -22,34 -31,47 -10,12 -19,22 -27,30 -8,8 -17,12 -26,14 -9,3 -19,2 -30,-1 -10,-4 -23,-10 -36,-18 -13,-8 -23,-16 -31,-24 -7,-7 -13,-16 -16,-24 -3,-9 -4,-18 -2,-28 1,-10 5,-21 11,-34 4,-8 10,-21 20,-38 10,-18 23,-40 39,-65 9,-14 17,-26 24,-37 7,-11 14,-20 20,-28 6,-8 12,-14 18,-19 6,-6 13,-9 20,-12 7,-2 14,-4 20,-4 7,0 13,1 19,3 6,2 13,4 19,8 6,3 13,7 21,12 l -46,71 z m 209,-256 53,-118 c 1,-2 2,-4 3,-5 0,-1 1,-3 2,-5 4,-9 7,-16 8,-22 2,-6 2,-11 0,-15 -2,-4 -5,-7 -9,-10 -5,-3 -11,-6 -18,-10 -8,-3 -14,-5 -19,-5 -5,-1 -9,0 -13,2 -3,3 -7,7 -10,12 -3,5 -7,12 -11,21 l -56,123 70,32 z m 65,29 70,32 -36,79 -270,-123 108,-239 c 8,-16 15,-28 23,-38 8,-9 17,-16 27,-20 10,-3 21,-4 33,-2 13,2 26,6 42,13 16,8 29,15 37,22 8,6 14,13 17,21 4,7 5,14 5,23 -1,8 -2,17 -3,27 5,-7 9,-13 14,-19 4,-6 9,-10 14,-13 6,-3 13,-5 21,-4 7,0 18,3 30,9 l 49,22 -36,79 -36,-17 c -12,-5 -21,-7 -29,-5 -7,2 -14,10 -20,24 l -60,129 z m 199,-267 -282,-96 102,-298 63,21 -74,218 49,16 69,-202 56,19 -69,203 50,17 74,-218 63,22 -101,298 z m 42,-547 -55,-13 43,-188 c 22,5 42,10 58,14 17,4 32,8 44,12 12,4 21,10 28,16 8,6 13,13 16,23 3,9 5,20 4,34 -1,14 -4,31 -9,51 -2,9 -4,18 -6,26 -2,9 -4,18 -6,27 l -6,25 c -7,31 -14,56 -21,77 -6,21 -15,38 -26,49 -12,12 -26,19 -44,21 -18,2 -42,0 -71,-7 -9,-2 -21,-5 -36,-9 -15,-4 -33,-9 -54,-15 -10,-2 -18,-6 -26,-12 -8,-5 -14,-12 -20,-19 -5,-7 -9,-15 -12,-23 -3,-8 -4,-17 -3,-25 1,-17 3,-34 6,-51 3,-17 7,-33 10,-50 5,-22 10,-42 14,-60 4,-18 8,-33 13,-47 4,-13 9,-24 14,-34 5,-9 11,-16 18,-22 6,-5 13,-8 20,-11 6,-2 13,-3 20,-3 7,0 15,0 22,2 8,1 17,3 26,5 l -19,82 c -8,-1 -14,-2 -18,-1 -5,1 -9,3 -12,7 -3,4 -6,9 -8,17 -2,7 -5,17 -8,28 l -4,21 c -2,8 -4,15 -6,22 -1,7 -3,14 -4,20 -4,14 -6,25 -8,34 -1,9 -1,17 2,23 3,7 9,12 17,16 9,5 22,9 39,13 16,4 30,6 41,8 10,2 20,2 27,1 7,-1 13,-3 17,-7 5,-5 9,-11 12,-19 3,-8 7,-18 9,-31 3,-12 7,-27 11,-45 3,-13 6,-25 8,-35 2,-10 3,-18 2,-25 0,-7 -2,-13 -6,-17 -4,-5 -11,-8 -21,-10 -2,0 -3,-1 -4,-1 -1,0 -2,0 -4,0 l -24,106 z m 78,-313 82,10 -11,85 -82,-11 11,-84 z"
       id="path3385"
       inkscape:connector-curvature="0"
       style="fill:#ffcc00;fill-rule:nonzero" /><g
       id="_864078768"><path
         class="fil3"
         d="m 2320,8440 17,16 32,-34 65,61 -32,34 58,55 -53,56 -58,-55 -58,62 c -1,1 -4,5 -5,7 0,0 0,1 0,1 1,0 1,1 2,1 3,0 10,-7 12,-10 l 20,-20 59,56 -21,22 c -6,6 -12,13 -19,19 -37,33 -78,16 -110,-15 -39,-36 -45,-78 -7,-117 l 63,-67 -15,-14 -109,126 -67,-58 161,-187 67,58 -2,3 z m -336,-97 17,14 c -5,-24 7,-47 22,-65 16,-19 36,-35 63,-33 26,3 56,25 76,41 19,15 46,39 53,63 7,24 -5,48 -20,66 l -12,16 -16,-13 c 1,1 1,3 1,4 7,24 -6,47 -20,65 -17,20 -39,37 -67,35 -28,-2 -58,-24 -80,-41 -19,-16 -47,-40 -54,-65 -5,-15 -3,-30 3,-44 -11,9 -25,14 -40,14 -28,0 -60,-19 -82,-35 -21,-14 -50,-36 -60,-61 -7,-20 -3,-39 6,-57 -33,38 -83,24 -125,0 -27,-15 -62,-39 -69,-71 -4,-16 -1,-33 5,-51 l -8,13 -1,1 c -32,39 -85,21 -123,1 -27,-14 -61,-36 -69,-67 -8,-31 10,-71 24,-98 14,-27 37,-64 67,-75 30,-11 66,2 92,16 24,13 56,32 67,58 11,26 0,55 -12,79 l -4,7 c 15,-23 35,-47 60,-55 31,-9 67,7 94,22 25,15 56,37 64,68 7,30 -11,67 -26,92 l -11,22 0,0 -3,4 21,15 c -6,-24 4,-47 17,-67 15,-20 34,-38 61,-37 26,1 58,21 78,35 20,14 49,36 58,59 9,24 -1,49 -15,68 l -11,16 -17,-11 c 1,1 1,2 2,4 6,16 2,33 -6,48 z m -379,-260 c 1,-2 3,-5 4,-8 1,-2 2,-3 3,-5 l -78,-41 10,-17 c 7,-14 0,-19 -12,-26 -4,-2 -17,-8 -20,-7 -7,4 -21,31 -25,38 -4,7 -17,33 -16,40 2,4 16,13 21,15 3,2 12,6 17,7 4,-4 9,-14 11,-17 l 9,-18 76,39 z m 66,65 c -3,6 -5,13 -5,16 2,5 15,13 19,15 4,3 15,9 21,10 2,-2 4,-6 5,-8 l 5,-7 -45,-26 z m 275,83 c -4,-5 -14,-12 -18,-14 -2,-2 -14,-9 -17,-8 -1,0 -1,1 -2,1 0,1 -1,2 -1,3 7,7 20,17 26,22 3,2 5,4 8,6 l 0,-2 c 1,-1 2,-3 2,-4 l 0,0 1,-1 c 0,-1 1,-2 1,-3 z m -85,50 -4,4 c -1,0 -2,2 -3,3 l 0,0 c 0,0 -1,1 -1,2 1,4 13,14 16,16 4,2 23,16 27,9 1,-1 3,-3 3,-4 -1,-2 -6,-6 -7,-7 -9,-6 -20,-14 -31,-23 z m 269,88 c -5,-5 -14,-12 -17,-15 -3,-2 -14,-10 -17,-9 -1,0 -1,1 -2,1 0,1 -1,2 -2,3 7,8 20,19 25,24 3,1 5,3 7,6 l 1,-2 c 1,-1 1,-2 2,-4 l 0,0 1,-1 c 0,0 1,-2 2,-3 z m -89,44 -4,4 c -1,0 -2,1 -3,2 l -1,1 c 0,0 -1,1 -1,1 1,5 12,15 16,18 3,2 21,17 26,11 0,-1 2,-3 2,-5 0,-1 -4,-5 -6,-6 -8,-7 -19,-16 -29,-26 z m -870,-500 c 11,-24 27,-38 47,-44 l -19,-7 7,-19 c 9,-22 23,-45 47,-52 25,-6 59,5 81,14 26,9 61,25 75,49 15,24 9,55 -1,79 l -55,146 -85,-33 2,-4 c -15,0 -30,-4 -44,-9 -28,-11 -49,-28 -59,-50 l -7,21 -222,-75 108,-318 90,30 -79,234 114,38 z m 119,-36 c 12,5 26,11 37,20 1,-5 3,-11 3,-13 -3,-4 -15,-9 -19,-10 -4,-2 -14,-5 -18,-3 -1,1 -2,3 -3,5 l 0,1 z m -3621,669 121,129 -69,65 -231,-244 92,-87 171,60 c 6,3 13,5 19,7 l -123,-130 69,-66 231,245 -92,87 -185,-65 c -1,0 -2,0 -3,-1 z m 402,-246 1,0 6,8 0,0 0,0 10,14 c 39,50 5,98 -38,131 -24,19 -59,43 -92,37 -32,-5 -63,-41 -82,-65 -19,-24 -42,-59 -38,-91 3,-32 32,-59 56,-78 23,-18 55,-38 86,-33 31,4 58,35 76,58 l 15,19 z m -104,95 c 5,5 10,10 13,11 5,0 18,-9 21,-12 4,-2 14,-11 17,-15 -1,-3 -4,-7 -5,-8 l -5,-7 -41,31 z m 113,-262 c 7,-12 19,-22 31,-30 21,-14 45,-22 66,-18 6,-21 21,-38 41,-51 50,-33 95,-23 127,27 l 86,132 -75,48 -80,-123 c -7,-11 -14,-19 -27,-11 -17,11 -16,22 -5,39 l 77,118 -75,49 -81,-125 c -2,-3 -9,-13 -13,-16 -3,1 -10,5 -12,6 -18,12 -17,23 -6,40 l 77,118 -75,48 -135,-207 76,-49 3,5 z m 345,-211 c 26,-14 64,-31 94,-21 29,9 52,46 66,72 14,27 35,70 28,101 -7,32 -41,55 -68,69 -26,14 -67,33 -97,22 -31,-10 -55,-51 -69,-78 -14,-26 -34,-67 -26,-98 9,-30 46,-53 72,-67 z m 551,-120 -10,159 -75,24 -101,-124 45,142 -91,29 -101,-321 118,-37 101,125 c 6,8 12,16 18,24 0,-10 0,-20 1,-29 l 9,-161 120,-38 102,320 -91,29 -45,-142 z m 335,-47 0,0 2,10 0,1 0,0 4,16 c 14,62 -38,91 -90,103 -30,7 -72,14 -99,-5 -27,-19 -40,-64 -47,-94 -7,-30 -13,-71 3,-99 17,-27 55,-40 84,-47 29,-6 67,-11 93,6 25,18 38,57 44,86 l 6,23 z m -135,43 c 2,6 5,13 7,15 5,2 20,-1 24,-2 5,-1 17,-4 22,-7 1,-3 0,-7 -1,-9 l -2,-9 -50,12 z m 312,-307 56,331 -95,15 -55,-331 94,-15 z m 134,78 c 12,-7 26,-10 42,-11 25,-2 49,1 66,16 15,-16 36,-24 61,-26 59,-4 94,26 98,85 l 12,157 -89,6 -11,-146 c -1,-13 -3,-24 -18,-23 -21,2 -25,12 -23,32 l 10,141 -89,6 -11,-148 c 0,-4 -1,-15 -3,-20 -4,-1 -12,-1 -15,-1 -21,2 -25,13 -23,33 l 10,139 -89,7 -18,-246 89,-7 1,6 z M 6,7550 c 14,-5 30,-8 46,-8 28,1 60,7 78,32 18,24 20,65 19,94 0,30 -3,72 -22,96 -19,25 -50,31 -79,30 -16,0 -31,-3 -45,-9 l -1,95 -92,-1 5,-336 91,1 0,6 z m 276,245 c -14,4 -29,5 -45,4 -58,-4 -88,-39 -83,-96 l 12,-159 89,7 -11,146 c -1,5 -1,17 0,22 4,2 13,3 16,3 24,2 29,-13 31,-35 l 10,-133 89,7 -19,246 -90,-7 1,-5 z m 227,-210 c 14,-3 29,-3 44,0 57,9 87,44 78,102 l -27,159 -88,-15 25,-150 1,-13 c 0,-6 -10,-8 -15,-8 -21,-4 -31,1 -35,22 l -23,141 -88,-15 41,-243 88,15 -1,5 z m 343,210 0,0 -2,10 0,0 0,0 -4,17 c -15,62 -74,65 -126,53 -30,-6 -71,-19 -87,-48 -16,-28 -8,-75 -1,-105 6,-30 19,-69 46,-87 26,-18 66,-12 95,-6 29,7 65,19 81,46 16,27 9,67 3,96 l -5,24 z m -140,-21 c -1,7 -1,14 0,17 3,4 18,8 22,9 5,1 17,4 23,3 2,-2 3,-7 3,-9 l 2,-8 -50,-12 z m 1668,596 -52,61 -68,-58 53,-61 67,58 z m -4416,-61 c -1,-2 -3,-3 -4,-4 -6,2 -17,10 -21,13 -3,3 -14,12 -15,15 0,2 1,4 2,6 l 38,-30 z m 497,-317 c -4,2 -17,10 -19,14 -1,7 11,31 15,38 4,7 19,35 25,39 5,1 20,-6 24,-8 4,-2 17,-10 19,-14 0,-9 -15,-38 -19,-45 -3,-7 -16,-29 -22,-32 -5,-1 -19,5 -23,8 z m 749,-274 c -1,-2 -2,-4 -3,-5 -5,-1 -19,2 -24,3 -4,1 -17,4 -20,7 -1,1 -1,4 0,6 l 47,-11 z m 822,-97 c -4,0 -19,0 -21,4 -5,6 -6,34 -6,43 0,8 0,35 5,42 3,5 17,5 22,6 4,0 19,-1 22,-4 4,-7 5,-35 6,-43 0,-8 0,-37 -5,-44 -3,-3 -19,-4 -23,-4 z m 745,97 c 0,-3 1,-5 0,-7 -4,-3 -18,-6 -23,-7 -4,-1 -18,-4 -21,-3 -1,1 -2,3 -3,6 l 47,11 z m 472,243 c 5,4 18,9 22,11 8,3 24,10 28,-1 5,-12 -15,-19 -23,-22 -6,-2 -20,-8 -24,1 -1,2 -3,8 -3,11 z m 501,152 c 1,-2 1,-4 1,-6 -3,-4 -15,-12 -19,-14 -4,-2 -16,-9 -20,-9 -1,1 -3,3 -5,5 l 43,24 z"
         id="path3388"
         inkscape:connector-curvature="0"
         style="fill:#000000" /></g><path
       class="fil4"
       d="m -2285,8309 205,214 -69,65 -173,-59 c -9,-3 -23,-8 -44,-17 l -21,-9 -22,-9 -1,2 14,13 14,14 27,28 117,122 -41,39 -204,-214 69,-66 159,56 c 14,5 31,11 50,19 l 25,9 25,10 1,-1 -13,-13 -14,-14 -26,-27 -118,-124 40,-38 z"
       id="path3390"
       inkscape:connector-curvature="0"
       style="fill:#ffcc00;fill-rule:nonzero" /><path
       id="1"
       class="fil4"
       d="m -1972,8358 40,-31 5,7 c 25,32 13,66 -35,104 -32,25 -58,36 -76,33 -19,-3 -42,-23 -70,-58 -25,-32 -37,-57 -35,-77 2,-19 19,-40 49,-64 29,-23 53,-33 71,-30 18,3 40,20 64,51 l 9,12 -110,87 c 2,4 4,6 5,7 12,16 23,25 32,26 10,2 22,-3 36,-15 15,-11 23,-20 25,-27 2,-6 -1,-15 -10,-25 z m -35,-46 -6,-7 c -10,-13 -18,-19 -26,-19 -8,-1 -19,5 -34,17 -14,11 -22,21 -23,29 -1,8 5,20 17,35 l 72,-55 z"
       inkscape:connector-curvature="0"
       style="fill:#ffcc00;fill-rule:nonzero" /><path
       id="2"
       class="fil4"
       d="m -1971,8183 42,-27 16,27 1,0 c -4,-25 8,-46 34,-63 32,-21 56,-21 74,-2 l 0,-1 c -5,-26 6,-49 33,-66 41,-27 74,-19 100,21 l 75,115 -42,27 -69,-106 c -16,-24 -34,-30 -54,-17 -25,16 -29,38 -11,66 l 65,102 -41,27 -70,-108 c -9,-15 -17,-23 -24,-25 -7,-2 -16,1 -29,9 -26,17 -29,39 -11,67 l 65,101 -42,27 -112,-174 z"
       inkscape:connector-curvature="0"
       style="fill:#ffcc00;fill-rule:nonzero" /><path
       id="3"
       class="fil4"
       d="m -1566,7940 c 35,-19 61,-26 78,-21 17,6 35,27 55,63 22,41 30,70 27,88 -4,19 -24,37 -58,56 -37,20 -65,27 -82,21 -17,-6 -37,-29 -58,-69 -20,-38 -28,-66 -24,-83 5,-17 25,-36 62,-55 z m 18,35 c -18,9 -28,19 -30,28 -1,9 5,26 18,50 14,27 26,43 34,48 9,4 22,1 41,-9 18,-10 28,-19 29,-29 1,-10 -6,-29 -21,-56 -13,-24 -23,-37 -32,-41 -8,-4 -21,-1 -39,9 z"
       inkscape:connector-curvature="0"
       style="fill:#ffcc00;fill-rule:nonzero" /><path
       id="4"
       class="fil4"
       d="m -999,7623 87,282 -54,17 -47,-154 c -4,-13 -8,-27 -12,-42 l -6,-22 -5,-21 -2,0 0,22 0,22 c -1,19 -1,33 -2,43 l -13,179 -49,15 -111,-140 c -6,-7 -15,-19 -26,-35 l -12,-17 -13,-18 -1,1 7,20 7,20 c 6,16 11,30 14,41 l 48,154 -54,17 -87,-283 88,-27 90,116 c 7,8 15,19 26,35 l 12,17 13,18 2,-1 0,-21 0,-21 c 0,-18 0,-33 1,-43 l 9,-147 90,-27 z"
       inkscape:connector-curvature="0"
       style="fill:#ffcc00;fill-rule:nonzero" /><path
       id="5"
       class="fil4"
       d="m -753,7790 49,-11 2,8 c 9,39 -16,66 -76,79 -40,10 -68,9 -83,-2 -16,-11 -28,-38 -39,-83 -9,-39 -8,-67 2,-83 10,-17 33,-29 71,-38 36,-8 62,-7 77,3 15,11 27,35 36,74 l 4,14 -137,32 c 0,4 1,7 1,9 5,20 11,32 19,37 7,6 20,6 39,2 17,-4 29,-9 33,-14 4,-5 5,-14 2,-27 z m -12,-57 -2,-8 c -4,-16 -9,-26 -16,-29 -7,-4 -19,-4 -38,1 -18,4 -29,9 -33,16 -4,7 -4,21 0,40 l 89,-20 z"
       inkscape:connector-curvature="0"
       style="fill:#ffcc00;fill-rule:nonzero" /><polygon
       id="6"
       class="fil4"
       points="-581,7523 -525,7514 -479,7806 -534,7815 "
       style="fill:#ffcc00;fill-rule:nonzero" /><path
       id="7"
       class="fil4"
       d="m -448,7588 49,-4 1,32 1,0 c 9,-24 29,-37 61,-39 37,-3 59,8 65,33 l 1,0 c 8,-26 28,-41 61,-44 48,-4 74,19 78,67 l 11,137 -49,4 -11,-126 c -2,-30 -15,-43 -40,-42 -30,3 -44,21 -41,54 l 10,120 -49,4 -11,-128 c -1,-17 -4,-28 -9,-33 -5,-5 -15,-7 -30,-6 -31,3 -45,21 -42,54 l 10,120 -50,4 -16,-207 z"
       inkscape:connector-curvature="0"
       style="fill:#ffcc00;fill-rule:nonzero" /><path
       id="8"
       class="fil4"
       d="m -66,7563 51,1 -2,31 1,0 c 12,-22 34,-33 67,-33 30,1 51,8 62,24 11,15 16,42 16,82 -1,41 -7,69 -18,84 -12,15 -32,23 -63,22 -32,0 -54,-11 -63,-33 l -1,0 -2,119 -52,-1 4,-296 z m 98,38 c -19,0 -32,4 -38,13 -6,8 -9,26 -9,54 0,26 2,44 9,53 6,9 18,14 37,14 20,0 32,-4 38,-12 6,-8 9,-26 10,-54 0,-28 -3,-47 -8,-55 -6,-8 -19,-13 -39,-13 z"
       inkscape:connector-curvature="0"
       style="fill:#ffcc00;fill-rule:nonzero" /><path
       id="9"
       class="fil4"
       d="m 370,7581 -17,206 -50,-4 6,-35 -1,0 c -12,24 -35,35 -70,32 -46,-4 -68,-29 -64,-76 l 11,-138 50,4 -11,127 c -1,17 0,29 5,35 4,6 14,9 30,11 31,2 49,-15 52,-53 l 9,-113 50,4 z"
       inkscape:connector-curvature="0"
       style="fill:#ffcc00;fill-rule:nonzero" /><path
       id="10"
       class="fil4"
       d="m 436,7587 49,8 -8,34 1,0 c 14,-23 37,-31 71,-26 48,8 69,34 61,79 l -22,139 -49,-7 20,-124 1,-7 1,-15 c 0,-16 -10,-25 -32,-29 -33,-5 -52,8 -57,39 l -20,122 -49,-8 33,-205 z"
       inkscape:connector-curvature="0"
       style="fill:#ffcc00;fill-rule:nonzero" /><path
       id="11"
       class="fil4"
       d="m 779,7798 49,10 -1,8 c -9,40 -43,53 -103,40 -40,-9 -65,-22 -74,-38 -10,-17 -9,-47 1,-92 8,-39 21,-64 37,-75 16,-10 43,-11 80,-3 37,8 59,20 69,36 9,16 10,43 1,82 l -4,15 -137,-31 c -1,5 -2,8 -2,9 -5,20 -5,34 0,42 5,8 16,14 35,18 17,4 30,5 36,2 6,-3 11,-10 13,-23 z m 14,-58 1,-8 c 4,-16 3,-27 -1,-33 -5,-6 -16,-11 -35,-15 -18,-5 -30,-4 -37,0 -7,5 -12,17 -17,37 l 89,19 z"
       inkscape:connector-curvature="0"
       style="fill:#ffcc00;fill-rule:nonzero" /><polygon
       id="12"
       class="fil4"
       points="1147,7978 962,7916 1057,7635 1110,7653 1032,7887 1164,7931 "
       style="fill:#ffcc00;fill-rule:nonzero" /><path
       id="13"
       class="fil4"
       d="m 1272,7869 -47,-18 c 9,-23 20,-37 34,-41 14,-4 36,1 68,13 35,13 57,27 66,41 8,15 7,36 -3,63 l -49,126 -46,-18 13,-25 -2,-1 c -16,16 -40,18 -72,5 -47,-18 -63,-46 -48,-86 15,-40 47,-51 95,-33 32,12 49,27 50,44 l 1,1 12,-32 c 6,-15 7,-26 4,-33 -4,-7 -14,-14 -30,-20 -24,-9 -39,-4 -46,14 z m 12,63 c -27,-10 -43,-6 -50,12 -5,12 -5,22 -1,28 4,6 14,12 31,19 29,10 46,6 54,-13 7,-19 -4,-35 -34,-46 z"
       inkscape:connector-curvature="0"
       style="fill:#ffcc00;fill-rule:nonzero" /><path
       id="14"
       class="fil4"
       d="m 1538,8070 44,22 -3,7 -18,26 c -18,23 -51,22 -98,-2 -35,-18 -55,-36 -60,-55 -5,-18 3,-46 22,-84 19,-37 38,-59 56,-66 18,-7 44,-2 77,15 31,16 51,32 57,47 6,16 3,36 -11,62 l -43,-22 c 11,-22 4,-39 -21,-52 -17,-9 -30,-11 -38,-7 -8,5 -19,20 -33,47 -13,26 -19,43 -18,52 2,10 12,19 32,29 15,8 26,11 32,8 7,-2 15,-11 23,-27 z"
       inkscape:connector-curvature="0"
       style="fill:#ffcc00;fill-rule:nonzero" /><path
       id="15"
       class="fil4"
       d="m 1729,8190 43,24 -4,7 c -20,36 -57,39 -109,9 -36,-20 -56,-40 -60,-58 -5,-19 4,-48 27,-87 19,-35 39,-56 57,-61 18,-6 44,1 78,20 32,18 50,36 55,54 4,18 -3,44 -23,79 l -7,13 -122,-69 c -3,4 -5,6 -5,8 -11,18 -15,31 -12,40 2,9 11,18 27,27 16,9 28,13 34,13 7,-1 14,-7 21,-19 z m 29,-51 3,-7 c 9,-15 11,-25 9,-32 -3,-8 -12,-16 -29,-25 -16,-9 -28,-13 -36,-10 -8,2 -16,12 -26,30 l 79,44 z"
       inkscape:connector-curvature="0"
       style="fill:#ffcc00;fill-rule:nonzero" /><path
       id="16"
       class="fil4"
       d="m 2000,8274 -40,-28 c 1,-1 1,-2 2,-3 5,-9 6,-16 3,-20 -2,-5 -11,-12 -26,-23 -21,-14 -37,-15 -46,-1 -7,9 -9,16 -6,21 2,4 14,14 35,30 28,22 45,39 49,51 5,12 0,28 -13,48 -15,21 -30,31 -48,31 -17,0 -41,-10 -71,-31 -29,-20 -47,-38 -52,-52 -6,-15 -2,-32 12,-52 l 3,-5 42,30 c -2,2 -4,3 -5,5 -12,14 -6,29 19,47 26,17 44,19 55,4 9,-15 6,-28 -10,-39 -37,-25 -58,-45 -65,-60 -7,-15 -3,-33 12,-55 13,-20 28,-29 43,-29 16,1 38,11 69,32 28,20 45,36 50,50 6,13 2,29 -12,49 z"
       inkscape:connector-curvature="0"
       style="fill:#ffcc00;fill-rule:nonzero" /><path
       id="17"
       class="fil4"
       d="m 2180,8417 -38,-31 c 1,-1 2,-2 2,-3 6,-9 7,-15 5,-20 -2,-5 -10,-13 -24,-24 -20,-17 -36,-18 -46,-5 -7,9 -10,16 -8,20 2,5 13,16 33,33 27,24 42,42 45,54 4,13 -2,29 -17,47 -16,20 -32,29 -49,28 -18,-1 -41,-14 -69,-37 -28,-22 -44,-40 -49,-55 -4,-15 1,-32 16,-51 l 3,-4 41,32 c -3,2 -5,3 -6,5 -13,13 -8,29 16,48 25,19 43,22 54,8 11,-14 9,-27 -7,-39 -34,-28 -54,-50 -60,-65 -6,-15 0,-33 16,-54 15,-18 30,-27 45,-25 16,1 38,13 66,36 27,22 43,39 47,53 4,14 -1,30 -16,49 z"
       inkscape:connector-curvature="0"
       style="fill:#ffcc00;fill-rule:nonzero" /><path
       id="18"
       class="fil4"
       d="m 2352,8371 -27,32 -38,-33 27,-31 38,32 z m -58,68 -134,158 -38,-33 134,-157 38,32 z"
       inkscape:connector-curvature="0"
       style="fill:#ffcc00;fill-rule:nonzero" /><path
       id="19"
       class="fil4"
       d="m 2433,8575 -27,27 -57,-55 -73,75 c -13,14 -14,26 -3,36 11,11 25,8 41,-8 l 6,-7 30,30 -7,7 c -6,7 -12,13 -17,17 -24,21 -52,16 -84,-15 -32,-30 -34,-60 -6,-89 l 77,-81 -20,-18 26,-28 20,19 32,-34 36,35 -32,33 58,56 z"
       inkscape:connector-curvature="0"
       style="fill:#ffcc00;fill-rule:nonzero" /><path
       class="fil3"
       d="m 316,10454 c 55,147 162,295 280,399 70,61 116,133 163,212 28,49 66,118 116,147 21,12 43,17 67,17 8,0 17,-1 25,-3 39,-13 67,-54 83,-90 23,-51 33,-111 32,-167 0,-32 -4,-65 -13,-96 -15,-55 -35,-109 -56,-162 -42,-103 -85,-202 -112,-310 -25,-97 -27,-196 -2,-293 22,-84 64,-160 117,-229 28,-35 59,-69 88,-102 37,-42 74,-85 109,-129 54,-69 136,-183 136,-273 0,-38 -18,-78 -42,-106 -27,-33 -64,-54 -107,-54 -47,0 -90,20 -123,53 -24,24 -48,62 -48,96 0,40 21,104 70,104 50,0 80,-34 108,-71 l 19,-26 14,29 c 23,45 28,95 11,142 -16,49 -52,87 -97,111 -46,24 -98,31 -149,25 -4,36 -17,73 -35,102 -14,22 -31,42 -52,57 -87,60 -184,5 -253,-56 l -43,-39 58,5 c 20,2 39,-2 56,-12 79,-51 78,-230 63,-311 l -2,-11 8,-7 c 12,-12 23,-21 38,-26 -2,-26 -8,-51 -20,-75 l -6,-13 10,-9 c 10,-10 22,-14 36,-16 -8,-20 -11,-42 -8,-63 l 4,-23 21,7 c 5,1 10,2 14,3 -1,-3 -1,-6 -1,-9 0,-3 0,-8 -1,-10 l -19,-30 35,0 c 22,0 34,-34 37,-51 l 1,-6 5,-4 c 73,-74 183,-96 283,-96 232,0 356,184 356,401 0,101 -25,172 -81,255 -5,7 -11,15 -16,22 89,20 160,92 170,186 4,37 -2,74 -19,107 l -14,28 -19,-24 c -36,-45 -110,-86 -165,-99 -30,-7 -59,-8 -88,-2 30,8 58,23 82,42 73,61 94,158 94,248 l 0,48 -34,-34 c -70,-71 -179,-106 -277,-106 -82,0 -107,39 -106,109 36,-9 78,-8 112,1 81,20 139,81 179,152 l 22,40 -44,-11 c -25,-6 -53,-10 -79,-10 -24,0 -59,3 -88,14 93,-11 186,38 213,140 l 9,31 -32,-7 c -47,-9 -101,-4 -133,36 -10,12 -17,25 -21,40 51,-20 117,-21 164,-1 l 27,12 -21,21 c -9,8 -10,13 -8,20 71,-5 106,42 110,116 l 0,19 -18,2 c -128,13 -222,87 -222,221 0,24 5,51 7,75 3,33 11,98 -21,119 -1,1 -2,1 -3,2 12,56 8,112 -25,162 -64,98 -213,137 -324,154 -56,93 -154,273 -150,374 2,59 89,149 149,149 51,0 56,3 92,40 13,12 32,30 37,47 3,7 3,15 3,23 0,29 0,59 0,89 0,49 -29,45 -63,64 -7,4 -30,15 -35,21 -3,4 -3,12 -3,16 0,25 24,63 36,85 23,40 42,81 42,129 0,51 -35,98 -75,127 l -24,18 -7,-29 c -7,-27 -18,-44 -38,-54 5,117 -18,276 -111,346 l -18,14 -11,-21 c -17,-34 -40,-51 -72,-61 4,44 3,89 -3,132 -18,135 -87,278 -248,242 l -19,-4 4,-19 c 7,-38 5,-66 -13,-98 -79,15 -177,81 -236,129 l -16,13 -13,-17 c -49,-69 -41,-159 10,-222 -50,-36 -119,-37 -175,-12 l -27,12 -1,-30 c 0,-60 39,-115 80,-156 30,-28 73,-60 115,-81 -39,-28 -90,-44 -135,-53 l -39,-8 29,-26 c 123,-112 263,-112 400,-28 57,-10 104,-74 130,-120 25,-43 59,-124 59,-174 0,-35 -10,-65 -29,-94 -16,-23 -36,-41 -55,-60 -10,-10 -22,-18 -34,-25 -21,-11 -44,-18 -66,-26 -26,-9 -51,-19 -74,-35 -67,-44 -96,-118 -110,-194 -37,-12 -66,-13 -102,4 -43,19 -67,34 -117,34 -96,0 -220,-31 -315,-68 13,99 81,231 130,308 15,23 2,47 -17,54 5,77 -5,148 -35,222 -23,58 -58,110 -81,168 l -8,20 -19,-10 c -7,-4 -13,-9 -18,-15 -3,-3 -6,-9 -10,-14 -19,43 -54,85 -87,115 -42,38 -98,73 -157,73 l -19,0 0,-19 c 0,-6 -1,-17 -3,-25 -14,1 -28,6 -41,13 -35,19 -65,60 -91,90 -11,13 -22,25 -34,37 -79,75 -167,128 -271,57 l -28,-20 31,-14 c 28,-14 35,-59 63,-85 -32,-22 -71,-29 -110,-29 -28,1 -79,8 -102,25 l -28,20 -3,-34 c -10,-95 8,-152 78,-206 -48,-41 -97,-59 -163,-68 l -35,-5 23,-27 c 44,-53 135,-99 209,-121 -29,-22 -66,-42 -98,-49 l -37,-10 29,-24 c 81,-70 206,-45 294,-4 5,2 10,5 15,7 29,15 57,33 86,48 19,10 45,22 67,22 45,0 122,-74 154,-106 17,-16 91,-85 88,-112 -2,-9 -12,-22 -18,-29 -16,-19 -33,-37 -49,-57 -37,-48 -68,-110 -92,-166 -19,-43 -36,-89 -49,-134 -10,-32 -20,-72 -20,-105 0,-79 100,-107 161,-120 20,-5 36,-13 51,-28 8,-9 15,-19 21,-30 9,-13 18,-26 28,-38 30,-37 66,-63 109,-83 63,-28 126,-40 195,-32 22,2 44,7 66,12 11,3 28,7 39,7 5,0 14,0 18,-3 7,-5 8,-36 8,-44 0,-31 -17,-49 -45,-61 -100,-43 -201,-83 -302,-123 -41,-16 -76,-44 -99,-81 -37,-59 -35,-124 -10,-183 -21,13 -39,29 -59,56 -11,14 -14,88 -14,107 -1,28 0,62 6,90 l 7,31 -31,-8 c -33,-8 -59,-50 -77,-78 -5,-7 -11,-17 -19,-27 0,65 -23,93 -74,155 -22,25 -52,52 -52,88 l 0,32 -28,-14 c -44,-22 -64,-58 -69,-100 -17,19 -35,37 -57,53 -25,18 -37,35 -44,65 -3,17 -5,34 -10,51 -7,23 -17,42 -32,60 -48,58 -132,67 -186,13 l -20,-19 25,-13 c 10,-5 26,-20 34,-28 5,-6 19,-22 17,-30 -1,-4 -9,-7 -12,-9 -18,-7 -45,-8 -64,-8 -50,0 -94,22 -117,68 l -15,30 -19,-27 c -36,-52 -47,-111 -26,-171 9,-26 24,-52 43,-73 -47,-4 -95,0 -136,25 l -28,16 -2,-32 c -5,-63 13,-122 65,-161 17,-13 38,-24 60,-31 -34,-17 -66,-19 -111,-4 l -25,9 0,-27 c 0,-100 85,-200 188,-200 50,0 95,13 137,42 15,10 29,22 43,34 8,8 16,15 24,22 155,-69 338,-213 368,-388 -109,-30 -257,-177 -328,-248 -14,-14 -22,-34 -22,-54 -82,-13 -156,-53 -195,-131 l -11,-22 24,-6 c 22,-5 40,-24 48,-46 -99,13 -189,-22 -209,-133 l -6,-34 32,12 c 24,8 51,13 75,5 15,-5 29,-16 34,-31 11,-30 -13,-58 -37,-74 -16,-11 -35,-19 -53,-26 -21,-9 -43,-18 -63,-29 -55,-31 -84,-76 -94,-138 l -6,-34 33,13 c 49,20 84,22 128,-3 -5,-17 -19,-39 -29,-49 -5,-6 -11,-10 -17,-14 l -15,-11 9,-16 c 18,-30 0,-76 -16,-103 -13,-23 -33,-47 -55,-61 l -39,-23 43,-12 c 63,-18 126,-11 178,23 -1,-27 -7,-54 -18,-78 -9,-23 -28,-55 -51,-66 l -40,-20 42,-16 c 43,-16 91,-20 135,-6 20,6 38,16 54,28 -8,-27 -29,-48 -57,-65 l -35,-21 38,-15 c 58,-21 124,-28 175,13 60,49 76,145 76,219 0,43 -5,82 -10,125 -3,18 -6,42 -4,63 7,3 13,6 18,12 12,13 14,30 14,47 0,24 -4,50 -6,74 65,107 160,223 278,275 68,-60 153,-105 237,-140 75,-31 155,-56 234,-75 63,-14 130,-27 194,-30 37,-3 79,-13 120,-31 -39,10 -82,14 -130,14 -14,0 -28,-1 -42,-3 -27,-3 -53,-8 -80,-12 -31,-5 -60,-8 -91,-8 -44,0 -35,35 -63,46 -24,10 -48,-14 -63,-29 -19,-19 -24,-87 -24,-113 -1,-35 1,-111 44,-122 45,-11 79,-1 123,5 32,4 57,2 85,-14 l 2,-1 2,-1 c 6,-2 16,-17 19,-23 10,-17 17,-37 23,-56 5,-18 10,-40 11,-59 -63,-36 -146,-25 -215,-25 -64,0 -85,-5 -98,-72 -1,-5 -2,-10 -3,-15 -8,-41 -9,-82 -9,-124 0,-52 73,-98 121,-98 15,0 25,2 39,8 6,3 10,3 17,3 4,0 9,0 13,0 25,-2 51,-10 75,-17 34,-8 67,-15 102,-16 3,0 6,-1 8,-3 13,-15 -5,-68 29,-85 27,-14 57,-12 87,-13 21,-1 42,2 62,7 31,7 60,18 91,27 12,3 38,11 50,4 10,-5 12,-22 13,-32 2,-14 11,-21 23,-27 11,-5 22,-6 35,-6 6,0 15,1 21,0 3,-1 5,-1 8,-3 46,-35 68,-81 131,-93 l 30,-7 -7,31 c -6,24 -5,46 0,70 4,22 11,44 9,67 -1,9 -4,18 -7,26 83,-2 133,26 133,135 0,82 -17,112 -64,161 64,31 105,86 125,157 17,59 18,115 18,176 0,43 8,87 21,128 7,22 24,43 36,62 17,28 32,56 32,90 l 0,17 -16,3 c -53,7 -98,1 -142,-16 12,22 23,45 33,69 14,29 26,58 39,86 8,17 17,39 27,55 19,28 35,36 47,72 l 8,22 -24,3 c -54,8 -109,6 -162,-7 9,23 11,47 11,78 0,17 -3,34 -8,51 -3,13 -8,25 -11,37 -2,8 -3,16 -3,24 0,61 78,114 78,179 l 0,20 -20,0 c -55,0 -114,-8 -164,-33 -7,37 -19,77 -48,101 -7,5 -14,10 -21,15 z"
       id="path3411"
       inkscape:connector-curvature="0"
       style="fill:#000000" /><path
       class="fil5"
       d="m -1145,9218 c 0,-123 -45,-280 -224,-213 56,33 78,78 67,134 -34,-56 -112,-89 -202,-56 45,23 90,113 79,202 -45,-45 -113,-67 -191,-45 56,34 112,135 78,191 34,23 56,68 56,90 -56,37 -101,34 -157,11 23,135 135,135 202,180 100,66 34,179 -89,134 19,108 112,135 213,113 0,33 -23,78 -68,89 34,68 101,113 202,124 -11,22 1,45 12,56 146,146 258,235 336,247 -22,202 -235,359 -392,426 -45,-34 -90,-101 -202,-101 -90,0 -169,90 -169,180 68,-23 112,-12 169,33 -45,0 -169,34 -158,180 57,-34 124,-34 191,-23 -45,34 -123,135 -45,247 23,-45 68,-78 135,-78 180,0 56,101 34,112 45,45 114,40 157,-11 56,-68 11,-124 90,-180 37,-26 56,-56 89,-90 -11,68 11,113 56,135 0,-45 39,-80 56,-101 58,-68 79,-90 68,-191 45,23 78,124 123,135 -13,-59 -8,-188 11,-213 34,-45 59,-61 124,-90 -93,128 -38,250 67,292 112,45 197,77 303,123 40,18 56,45 56,79 0,56 -11,67 -45,67 -45,0 -146,-56 -291,11 -148,68 -113,157 -214,180 -45,10 -145,33 -145,101 0,78 79,293 157,392 78,101 117,87 -23,225 -55,54 -121,112 -168,112 -51,0 -111,-48 -176,-79 -71,-33 -194,-67 -273,1 45,11 101,44 135,78 -56,11 -180,56 -236,124 79,11 135,33 191,89 -67,45 -101,90 -90,202 39,-28 180,-56 258,23 -45,11 -45,78 -89,99 100,69 183,6 246,-54 62,-59 101,-146 191,-146 11,11 11,33 11,45 101,0 213,-124 236,-202 22,0 22,33 45,44 45,-112 134,-201 112,-403 11,11 34,-4 22,-23 -60,-95 -134,-247 -134,-348 78,34 224,79 336,79 101,0 113,-79 236,-34 45,258 196,196 280,281 34,33 90,78 90,168 0,79 -90,303 -213,314 -123,-78 -258,-90 -381,23 56,11 123,33 168,78 -67,23 -213,124 -212,231 66,-29 152,-27 212,27 -45,45 -79,135 -23,213 57,-44 169,-123 259,-134 22,33 33,67 22,123 202,45 247,-224 224,-381 56,11 90,33 113,78 89,-67 112,-235 101,-359 44,11 67,34 78,79 45,-34 67,-76 67,-112 0,-90 -78,-156 -78,-214 0,-33 16,-36 48,-54 42,-24 53,-13 53,-47 0,-11 0,-65 0,-89 0,-23 0,-23 -34,-57 -33,-33 -33,-33 -78,-33 -68,0 -166,-96 -169,-169 -4,-103 90,-280 157,-392 158,-23 404,-90 337,-314 56,11 22,-124 22,-180 0,-123 79,-224 240,-241 -4,-73 -38,-107 -105,-96 -4,-19 -13,-34 9,-56 -53,-22 -136,-15 -181,19 0,-90 71,-153 183,-131 -33,-123 -168,-157 -269,-101 23,-78 157,-90 247,-67 -101,-180 -247,-157 -292,-135 -11,-123 43,-157 124,-157 115,0 224,45 291,112 0,-247 -157,-280 -224,-280 123,-90 292,22 337,78 56,-112 -23,-258 -169,-269 56,-78 112,-147 112,-292 0,-202 -112,-381 -336,-381 -124,0 -213,33 -269,90 -6,27 -23,67 -57,67 9,14 0,34 12,45 -16,6 -28,5 -45,0 -5,29 4,58 22,78 -22,0 -45,0 -56,12 16,33 23,67 23,101 -23,0 -34,11 -45,22 22,123 8,360 -140,347 205,184 308,-10 308,-111 180,33 303,-113 236,-247 -34,45 -68,78 -124,78 -56,0 -90,-63 -90,-123 0,-67 79,-168 191,-168 101,0 168,101 168,179 0,168 -251,407 -336,516 -101,129 -165,295 -112,505 43,173 123,309 168,471 45,163 -22,382 -146,382 -168,0 -179,-224 -359,-382 -126,-110 -230,-261 -283,-400 -5,6 -10,12 -15,19 -46,64 -64,124 -64,202 l 0,27 -26,-8 c -93,-31 -158,-129 -203,-214 -70,52 -96,110 -96,206 l 0,25 -25,-6 c -94,-23 -163,-130 -171,-226 -103,-10 -169,41 -210,136 l -9,21 -19,-12 c -56,-33 -89,-88 -99,-152 -6,-35 -5,-77 4,-114 -55,2 -110,10 -150,50 l -14,14 -14,-14 c -50,-50 -73,-123 -73,-193 0,-53 19,-104 48,-147 15,-23 38,-50 62,-68 -41,-30 -100,-46 -147,-46 l -32,0 15,-29 c 22,-41 51,-77 86,-110 -119,-56 -216,-174 -282,-285 12,-101 12,-112 -22,-123 -11,-45 11,-101 11,-202 z M 179,8702 c 23,-11 47,4 67,-11 45,-34 68,-79 124,-90 -23,90 45,135 -23,191 101,-12 157,0 157,112 0,90 -22,112 -78,168 165,58 157,247 157,326 0,46 9,93 22,134 16,48 68,90 68,146 -79,11 -135,-11 -191,-45 45,56 109,231 135,269 22,34 33,34 45,68 -79,11 -146,0 -202,-23 29,38 33,68 33,113 0,50 -22,74 -22,112 0,67 78,123 78,179 -89,0 -145,-22 -179,-45 -23,146 -50,97 -101,169 -56,78 -67,146 -67,213 -101,-34 -169,-157 -202,-225 -68,45 -124,101 -124,236 -90,-22 -157,-131 -157,-224 -146,-23 -213,67 -247,146 -112,-68 -101,-214 -78,-270 -113,0 -157,23 -191,56 -45,-44 -67,-112 -67,-179 0,-101 78,-191 123,-213 -45,-45 -123,-68 -180,-68 124,-235 562,-347 752,-359 124,-7 292,-101 326,-224 -82,122 -180,168 -337,168 -67,0 -125,-22 -213,-22 -79,0 -45,91 -112,22 -19,-19 -34,-191 11,-202 77,-19 135,34 213,-11 34,-11 67,-112 67,-168 -70,-46 -160,-34 -235,-34 -56,0 -68,0 -79,-56 -6,-33 -11,-56 -11,-135 0,-38 62,-78 101,-78 34,0 27,11 56,11 56,0 107,-30 191,-34 50,-2 20,-77 45,-89 22,-12 48,-11 78,-12 108,-3 225,101 236,-11 1,-6 5,-8 11,-11 z"
       id="path3413"
       inkscape:connector-curvature="0"
       style="fill:#ffcc00" /><g
       id="_864077296"><path
         class="fil3"
         d="m -281,9319 c -32,18 -61,21 -97,17 -41,-6 -75,-16 -116,-6 -5,1 -8,4 -11,8 l -8,9 -12,-3 c -62,-14 -128,-70 -156,-126 -13,-25 -33,-135 -51,-149 -41,0 -74,-20 -74,-64 0,-34 20,-54 54,-54 54,0 180,133 217,177 6,6 34,4 42,4 13,-2 26,-4 38,-8 6,-2 12,-4 18,-6 l 3,-1 3,0 c 69,-2 145,-8 207,27 l 11,6 -1,13 c -2,21 -6,43 -12,63 -6,21 -14,42 -25,61 -6,11 -17,28 -30,32 z"
         id="path3416"
         inkscape:connector-curvature="0"
         style="fill:#000000" /></g><path
       class="fil6"
       d="m -664,9209 c 22,44 81,101 143,116 6,-7 13,-12 22,-14 45,-11 79,-1 123,5 32,4 57,2 85,-14 l 2,-1 2,-1 c 6,-2 16,-17 19,-23 10,-17 17,-37 23,-56 5,-18 10,-40 11,-59 -57,-33 -131,-27 -197,-25 -6,2 -12,4 -17,6 -29,9 -87,16 -102,-2 -67,-79 -169,-170 -202,-170 -23,0 -34,11 -34,34 0,22 11,45 56,45 34,0 51,129 66,159 z"
       id="path3418"
       inkscape:connector-curvature="0"
       style="fill:#e32527" /><path
       class="fil7"
       d="m -116,8876 c 24,5 41,-12 47,8 5,17 -19,23 -27,33 -7,10 -9,24 -25,22 -18,-2 -36,-19 -36,-37 0,-17 17,-30 41,-26 z"
       id="path3420"
       inkscape:connector-curvature="0"
       style="fill:#000000" /></g></svg>