<?xml version="1.0" encoding="UTF-8" standalone="no"?>
<!-- Creator: CorelDRAW X7 -->

<svg
   xmlns:dc="http://purl.org/dc/elements/1.1/"
   xmlns:cc="http://creativecommons.org/ns#"
   xmlns:rdf="http://www.w3.org/1999/02/22-rdf-syntax-ns#"
   xmlns:svg="http://www.w3.org/2000/svg"
   xmlns="http://www.w3.org/2000/svg"
   xmlns:sodipodi="http://sodipodi.sourceforge.net/DTD/sodipodi-0.dtd"
   xmlns:inkscape="http://www.inkscape.org/namespaces/inkscape"
   xml:space="preserve"
   width="7.8740005in"
   height="7.8740005in"
   version="1.1"
   style="clip-rule:evenodd;fill-rule:evenodd;image-rendering:optimizeQuality;shape-rendering:geometricPrecision;text-rendering:geometricPrecision"
   viewBox="0 0 7874.0005 7874.0005"
   id="svg3600"
   inkscape:version="0.91 r13725"
   sodipodi:docname="Ariadna - Dozers, Field Engineers - [N3] [Vyo].svg"><metadata
     id="metadata3622"><rdf:RDF><cc:Work
         rdf:about=""><dc:format>image/svg+xml</dc:format><dc:type
           rdf:resource="http://purl.org/dc/dcmitype/StillImage" /></cc:Work></rdf:RDF></metadata><sodipodi:namedview
     pagecolor="#ffffff"
     bordercolor="#666666"
     borderopacity="1"
     objecttolerance="10"
     gridtolerance="10"
     guidetolerance="10"
     inkscape:pageopacity="0"
     inkscape:pageshadow="2"
     inkscape:window-width="640"
     inkscape:window-height="480"
     id="namedview3620"
     showgrid="false"
     inkscape:zoom="0.23838384"
     inkscape:cx="736.83001"
     inkscape:cy="849.33005"
     inkscape:window-x="0"
     inkscape:window-y="0"
     inkscape:window-maximized="0"
     inkscape:current-layer="svg3600" /><defs
     id="defs3602"><style
       type="text/css"
       id="style3604"><![CDATA[
    .fil0 {fill:black}
    .fil1 {fill:#FFD600}
    .fil2 {fill:white}
   ]]></style></defs><g
     id="Layer_x0020_1"
     transform="translate(3937,-7063)"><metadata
       id="CorelCorpID_0Corel-Layer" /><circle
       class="fil0"
       cy="11000"
       r="3937"
       id="circle3608"
       cx="0"
       style="fill:#000000" /><circle
       class="fil1"
       cy="11000"
       r="3819"
       id="circle3610"
       cx="0"
       style="fill:#ffd600" /><circle
       class="fil0"
       cy="11000"
       r="3661"
       id="circle3612"
       cx="0"
       style="fill:#000000" /><path
       class="fil1"
       d="m 3222,11906 c 17,-58 31,-117 44,-176 l -386,-77 0,0 c 48,-210 73,-429 73,-653 0,-224 -25,-443 -73,-653 l 0,0 386,-77 c -85,-383 -236,-742 -440,-1064 l -328,219 0,0 c -92,-145 -196,-281 -310,-408 l -224,343 c 371,444 595,1016 595,1640 0,319 -58,624 -165,906 l 828,0 z M 1877,8721 c -96,-79 -197,-152 -302,-219 l 0,0 219,-328 C 1472,7970 1113,7819 730,7734 l -77,386 c -140,-32 -285,-54 -432,-65 l 48,400 c 502,53 961,250 1334,551 l 274,-285 z M -221,8055 c -147,11 -292,33 -432,65 l -77,-386 c -383,85 -742,236 -1064,440 l 219,328 0,0 c -105,67 -206,140 -302,219 l 274,285 c 373,-301 832,-498 1334,-551 l 48,-400 z m -1967,962 c -114,127 -218,263 -310,408 l -328,-219 c -204,322 -355,681 -440,1064 l 386,77 c -48,210 -73,429 -73,653 0,224 25,443 73,653 l -386,77 c 13,59 27,118 44,176 l 828,0 c -107,-282 -165,-587 -165,-906 0,-624 224,-1196 595,-1640 l -224,-343 z"
       id="path3614"
       inkscape:connector-curvature="0"
       style="fill:#ffd600" /><path
       class="fil2"
       d="m -2756,12339 1552,0 c 32,90 75,176 126,255 l -1914,0 236,-255 z M 0,10980 c 227,0 435,82 596,218 l -112,112 c -112,-92 -251,-152 -403,-168 12,168 65,311 153,423 -66,-46 -147,-73 -234,-73 -87,0 -168,27 -234,73 88,-112 141,-255 153,-423 -152,16 -291,76 -403,168 l -112,-112 c 161,-136 369,-218 596,-218 z m 0,-275 c 663,0 1201,537 1201,1201 0,663 -538,1200 -1201,1200 -663,0 -1201,-537 -1201,-1200 0,-664 538,-1201 1201,-1201 z m 0,157 c 576,0 1043,467 1043,1044 0,576 -467,1043 -1043,1043 -576,0 -1043,-467 -1043,-1043 0,-577 467,-1044 1043,-1044 z m 0,709 c 185,0 335,150 335,335 0,184 -150,334 -335,334 -185,0 -335,-150 -335,-334 0,-185 150,-335 335,-335 z m 707,-262 c 136,161 218,369 218,597 0,227 -82,435 -218,596 l -111,-112 c 91,-113 151,-251 167,-403 -168,12 -311,65 -422,153 46,-67 72,-148 72,-234 0,-87 -26,-168 -72,-235 111,88 254,141 422,153 -16,-152 -76,-290 -167,-403 l 111,-112 z m -111,1304 c -161,136 -369,218 -596,218 -227,0 -435,-82 -596,-218 l 112,-112 c 112,92 251,152 403,168 -12,-168 -65,-311 -153,-423 66,46 147,73 234,73 87,0 168,-27 234,-73 -88,112 -141,255 -153,423 152,-16 291,-76 403,-168 l 112,112 z m -1303,-111 c -136,-161 -218,-369 -218,-596 0,-228 82,-436 218,-597 l 111,112 c -91,113 -151,251 -167,403 168,-12 311,-65 422,-153 -46,67 -72,148 -72,235 0,86 26,167 72,234 -111,-88 -254,-141 -422,-153 16,152 76,290 167,403 l -111,112 z m 1911,-163 1552,0 236,255 -1914,0 c 51,-79 94,-165 126,-255 z M 0,7535 l 256,2126 256,-590 0,1299 1890,-1968 -1260,1929 866,-433 -1103,1103 c -232,-232 -552,-375 -905,-375 -353,0 -673,143 -905,375 l -1103,-1103 866,433 -1260,-1929 1890,1968 0,-1299 256,590 L 0,7535 Z m 1038,3622 773,0 394,788 -926,0 c 0,-13 1,-26 1,-39 0,-280 -90,-538 -242,-749 z m -2317,788 -926,0 394,-788 773,0 c -152,211 -242,469 -242,749 0,13 1,26 1,39 z m -1280,98 1287,0 c 7,68 20,133 37,197 l -1324,0 0,-197 z m 3831,0 1287,0 0,197 -1324,0 c 17,-64 30,-129 37,-197 z"
       id="path3616"
       inkscape:connector-curvature="0"
       style="fill:#ffffff" /><path
       class="fil1"
       d="m 236,13796 c 103,-2 203,-8 319,-31 246,-49 454,-101 682,-215 261,-131 498,-318 711,-523 l -196,-196 709,0 0,708 -179,-178 c -250,242 -528,460 -837,615 -266,132 -510,195 -799,252 -167,33 -357,64 -487,183 l -159,146 -159,-146 c -130,-119 -320,-150 -487,-183 -289,-57 -533,-120 -799,-252 -309,-155 -587,-373 -837,-615 l -179,178 0,-708 709,0 -196,196 c 213,205 450,392 711,523 228,114 436,166 682,215 116,23 216,29 319,31 l 0,-633 c 76,14 155,22 236,22 81,0 160,-8 236,-22 l 0,633 z m -2434,-519 c 677,657 1181,757 1575,835 218,44 399,79 544,212 l 79,73 79,-73 c 145,-133 326,-168 544,-212 394,-78 898,-178 1575,-835 l -167,-167 c -627,606 -1090,699 -1453,771 -219,43 -406,80 -578,205 -172,-125 -359,-162 -578,-205 -363,-72 -826,-165 -1453,-771 l -167,167 z"
       id="path3618"
       inkscape:connector-curvature="0"
       style="fill:#ffd600" /></g></svg>