<?xml version="1.0" encoding="UTF-8" standalone="no"?>
<!-- Creator: CorelDRAW X7 -->

<svg
   xmlns:dc="http://purl.org/dc/elements/1.1/"
   xmlns:cc="http://creativecommons.org/ns#"
   xmlns:rdf="http://www.w3.org/1999/02/22-rdf-syntax-ns#"
   xmlns:svg="http://www.w3.org/2000/svg"
   xmlns="http://www.w3.org/2000/svg"
   xmlns:sodipodi="http://sodipodi.sourceforge.net/DTD/sodipodi-0.dtd"
   xmlns:inkscape="http://www.inkscape.org/namespaces/inkscape"
   xml:space="preserve"
   width="7.8740005in"
   height="7.8740005in"
   version="1.1"
   style="clip-rule:evenodd;fill-rule:evenodd;image-rendering:optimizeQuality;shape-rendering:geometricPrecision;text-rendering:geometricPrecision"
   viewBox="0 0 7874.0005 7874.0005"
   id="svg4791"
   inkscape:version="0.91 r13725"
   sodipodi:docname="ariadna_mavericks.svg"><metadata
     id="metadata4853"><rdf:RDF><cc:Work
         rdf:about=""><dc:format>image/svg+xml</dc:format><dc:type
           rdf:resource="http://purl.org/dc/dcmitype/StillImage" /></cc:Work></rdf:RDF></metadata><sodipodi:namedview
     pagecolor="#ffffff"
     bordercolor="#666666"
     borderopacity="1"
     objecttolerance="10"
     gridtolerance="10"
     guidetolerance="10"
     inkscape:pageopacity="0"
     inkscape:pageshadow="2"
     inkscape:window-width="640"
     inkscape:window-height="480"
     id="namedview4851"
     showgrid="false"
     inkscape:zoom="0.23838384"
     inkscape:cx="736.83001"
     inkscape:cy="849.33005"
     inkscape:window-x="0"
     inkscape:window-y="0"
     inkscape:window-maximized="0"
     inkscape:current-layer="svg4791" /><defs
     id="defs4793"><style
       type="text/css"
       id="style4795"><![CDATA[
    .fil4 {fill:none}
    .fil2 {fill:black}
    .fil0 {fill:#C7B467}
    .fil1 {fill:white}
    .fil3 {fill:#E7EFC6;fill-rule:nonzero}
    .fil5 {fill:white;fill-rule:nonzero}
   ]]></style></defs><g
     id="Layer_x0020_1"
     transform="translate(3937,-7063)"><metadata
       id="CorelCorpID_0Corel-Layer" /><circle
       class="fil0"
       cy="11000"
       r="3937"
       id="circle4799"
       cx="0"
       style="fill:#c7b467" /><circle
       class="fil1"
       cy="11000"
       r="3839"
       id="circle4801"
       cx="0"
       style="fill:#ffffff" /><circle
       class="fil2"
       cy="11000"
       r="3740"
       id="circle4803"
       cx="0"
       style="fill:#000000" /><circle
       class="fil0"
       cy="11000"
       r="2992"
       id="circle4805"
       cx="0"
       style="fill:#c7b467" /><path
       class="fil3"
       d="m -2392,10581 -14,102 -68,-10 c -20,-2 -32,-3 -37,-1 -5,1 -9,6 -10,13 -1,8 1,14 7,17 6,3 19,6 38,9 l 182,25 c 19,2 32,3 38,1 6,-1 10,-6 11,-14 1,-7 -2,-13 -7,-16 -5,-3 -19,-6 -40,-9 l -50,-7 14,-101 16,2 c 40,5 68,12 85,20 16,8 29,23 39,44 10,21 13,46 9,75 -4,30 -13,54 -26,72 -14,18 -30,28 -50,32 -20,4 -49,3 -88,-2 l -114,-16 c -28,-4 -49,-8 -63,-11 -14,-4 -27,-12 -39,-23 -11,-12 -20,-26 -25,-44 -5,-18 -6,-38 -3,-61 4,-30 13,-53 27,-71 15,-18 31,-29 49,-33 18,-4 46,-3 82,2 l 37,5 z"
       id="path4807"
       inkscape:connector-curvature="0"
       style="fill:#e7efc6;fill-rule:nonzero" /><path
       id="1"
       class="fil3"
       d="m -2269,10325 -27,125 68,15 c 14,3 24,5 28,3 5,-1 8,-4 9,-10 2,-7 0,-13 -5,-17 -5,-3 -15,-7 -31,-10 l -42,-10 21,-91 23,5 c 20,5 34,9 44,14 10,5 20,13 30,25 10,11 16,25 19,40 3,15 2,33 -2,54 -5,21 -12,38 -21,52 -10,15 -20,25 -33,31 -12,7 -24,10 -37,11 -14,0 -32,-2 -55,-7 l -92,-21 c -28,-6 -49,-15 -63,-26 -15,-11 -24,-26 -29,-45 -5,-18 -4,-39 0,-61 7,-27 17,-48 31,-63 14,-16 30,-25 49,-28 18,-4 43,-2 73,5 l 42,9 z m -73,85 -23,-5 c -16,-3 -27,-5 -32,-4 -5,1 -8,4 -10,9 -1,7 0,11 4,14 3,2 14,5 32,9 l 23,6 6,-29 z"
       inkscape:connector-curvature="0"
       style="fill:#e7efc6;fill-rule:nonzero" /><polygon
       id="2"
       class="fil3"
       points="-2474,10199 -2441,10103 -2068,10234 -2102,10330 "
       style="fill:#e7efc6;fill-rule:nonzero" /><path
       id="3"
       class="fil3"
       d="m -2108,9932 -53,116 64,29 c 13,6 22,9 27,9 5,0 8,-3 11,-9 3,-6 2,-12 -2,-17 -4,-4 -13,-10 -28,-17 l -39,-17 39,-85 22,9 c 18,9 32,16 40,23 9,7 17,17 24,30 7,14 11,28 11,44 -1,15 -5,33 -14,52 -9,19 -19,35 -31,47 -12,12 -25,20 -38,23 -14,4 -27,5 -39,3 -13,-2 -31,-8 -53,-18 l -86,-40 c -25,-11 -44,-24 -56,-38 -11,-14 -18,-30 -18,-50 -1,-19 3,-39 13,-60 11,-25 25,-43 42,-55 17,-12 35,-18 54,-17 19,0 42,7 71,20 l 39,18 z m -89,68 -21,-10 c -16,-7 -26,-11 -31,-11 -5,0 -9,2 -11,7 -3,6 -3,11 0,14 3,3 13,9 30,16 l 21,10 12,-26 z"
       inkscape:connector-curvature="0"
       style="fill:#e7efc6;fill-rule:nonzero" /><path
       id="4"
       class="fil3"
       d="m -2182,9724 35,25 c -20,-28 -23,-54 -12,-78 l 100,56 c -9,15 -14,28 -14,38 1,10 4,17 11,23 6,6 23,17 51,32 l 111,63 -48,86 -283,-159 49,-86 z"
       inkscape:connector-curvature="0"
       style="fill:#e7efc6;fill-rule:nonzero" /><path
       id="5"
       class="fil3"
       d="m -1797,9467 -79,100 55,43 c 11,9 19,14 24,15 5,1 9,-1 13,-5 4,-6 5,-12 2,-17 -3,-6 -10,-13 -23,-23 l -34,-27 58,-73 19,15 c 16,12 27,23 34,31 7,9 12,20 16,35 4,15 4,30 0,45 -4,15 -13,31 -26,48 -13,16 -27,29 -41,37 -15,9 -29,14 -43,14 -14,1 -26,-2 -38,-7 -12,-5 -28,-15 -47,-29 l -74,-59 c -22,-17 -37,-34 -46,-50 -8,-16 -10,-34 -6,-53 4,-19 13,-37 27,-55 17,-22 35,-37 55,-44 19,-8 38,-9 56,-4 18,5 39,17 64,36 l 34,27 z m -103,45 -18,-15 c -14,-10 -23,-16 -28,-18 -5,-1 -9,0 -12,5 -4,5 -5,10 -3,13 2,4 10,12 25,23 l 18,15 18,-23 z"
       inkscape:connector-curvature="0"
       style="fill:#e7efc6;fill-rule:nonzero" /><path
       id="6"
       class="fil3"
       d="m -1845,9211 37,35 18,-19 37,36 -18,19 125,120 c 15,14 24,22 28,22 3,0 10,-6 21,-18 l 38,37 -28,28 c -15,17 -27,27 -35,33 -8,6 -17,9 -27,9 -10,1 -18,-1 -26,-6 -7,-4 -23,-18 -46,-40 l -119,-114 -14,15 -37,-35 14,-15 -37,-36 69,-71 z"
       inkscape:connector-curvature="0"
       style="fill:#e7efc6;fill-rule:nonzero" /><path
       id="7"
       class="fil3"
       d="m -1536,8901 202,343 -122,96 -291,-274 86,-67 c 77,78 140,145 191,201 -43,-64 -80,-120 -112,-170 l -39,-63 85,-66 z"
       inkscape:connector-curvature="0"
       style="fill:#e7efc6;fill-rule:nonzero" /><path
       id="8"
       class="fil3"
       d="m -1422,8823 30,42 -84,58 -29,-42 83,-58 z m 41,58 185,266 -83,58 -185,-266 83,-58 z"
       inkscape:connector-curvature="0"
       style="fill:#e7efc6;fill-rule:nonzero" /><path
       id="9"
       class="fil3"
       d="m -1132,8735 124,217 c 16,29 26,48 30,57 3,10 4,22 1,36 -3,14 -10,28 -22,41 -12,13 -29,26 -51,39 -27,16 -52,23 -74,24 -22,0 -40,-14 -56,-40 l 83,-48 c 7,13 15,16 24,11 6,-4 10,-8 10,-13 0,-5 -4,-14 -11,-26 l -12,-21 c -3,11 -8,20 -15,28 -6,8 -13,15 -22,20 -16,9 -30,13 -44,12 -13,0 -25,-5 -34,-13 -9,-8 -19,-21 -30,-40 l -58,-102 c -15,-27 -22,-49 -19,-66 3,-17 15,-31 34,-42 11,-7 22,-10 33,-11 12,0 23,2 35,7 l -6,-25 80,-45 z m -43,123 c -8,-13 -13,-20 -17,-23 -3,-3 -7,-3 -12,0 -5,3 -8,7 -7,12 0,5 3,14 10,26 l 54,94 c 7,13 12,21 16,24 4,2 8,3 13,0 6,-4 8,-8 7,-13 -1,-6 -6,-17 -15,-33 l -49,-87 z"
       inkscape:connector-curvature="0"
       style="fill:#e7efc6;fill-rule:nonzero" /><path
       id="10"
       class="fil3"
       d="m -1011,8602 22,47 -93,42 -21,-47 92,-42 z m 30,65 135,294 -93,42 -135,-294 93,-42 z"
       inkscape:connector-curvature="0"
       style="fill:#e7efc6;fill-rule:nonzero" /><polygon
       id="11"
       class="fil3"
       points="-957,8582 -863,8545 -718,8912 -813,8949 "
       style="fill:#e7efc6;fill-rule:nonzero" /><path
       id="12"
       class="fil3"
       d="m -656,8687 -89,26 -6,-21 c -7,-24 -9,-43 -8,-58 2,-14 10,-29 23,-44 14,-15 34,-26 61,-34 32,-10 58,-11 77,-5 20,7 34,18 42,33 8,16 20,49 35,101 l 46,156 -92,27 -8,-28 c -3,13 -8,23 -15,32 -8,8 -18,14 -31,18 -16,4 -33,4 -49,-1 -17,-5 -30,-23 -39,-55 l -7,-25 c -7,-24 -8,-41 -3,-51 4,-11 20,-26 45,-46 28,-21 42,-34 43,-39 1,-5 0,-14 -4,-27 -5,-16 -9,-26 -13,-30 -4,-5 -9,-6 -15,-4 -6,2 -9,5 -10,10 0,4 2,15 8,32 l 9,33 z m 43,34 c -12,15 -18,27 -18,35 -1,9 1,20 5,34 5,16 9,26 13,30 3,4 8,5 14,3 6,-1 10,-4 10,-9 1,-4 -1,-14 -5,-29 l -19,-64 z"
       inkscape:connector-curvature="0"
       style="fill:#e7efc6;fill-rule:nonzero" /><path
       id="13"
       class="fil3"
       d="m -385,8501 2,30 c 6,-13 13,-23 23,-30 9,-8 21,-12 34,-14 17,-2 31,0 43,6 11,7 20,16 24,28 5,11 9,31 13,59 l 30,225 -98,13 -29,-222 c -3,-22 -6,-36 -8,-40 -2,-5 -6,-7 -13,-6 -7,1 -11,4 -12,10 -1,6 0,21 3,45 l 30,217 -98,13 -43,-321 99,-13 z"
       inkscape:connector-curvature="0"
       style="fill:#e7efc6;fill-rule:nonzero" /><path
       id="14"
       class="fil3"
       d="m 17,8576 -87,0 -1,-17 c 0,-15 -1,-25 -3,-28 -1,-4 -6,-6 -12,-6 -6,0 -10,2 -13,5 -2,4 -4,10 -4,17 0,10 1,17 3,22 1,4 5,9 12,15 7,5 21,13 43,23 29,14 48,27 57,39 9,13 13,31 14,54 0,26 -3,46 -10,60 -7,13 -18,24 -34,31 -16,8 -35,11 -58,12 -25,0 -46,-4 -64,-11 -18,-8 -30,-18 -37,-32 -7,-13 -10,-33 -11,-60 l 0,-16 87,-1 1,21 c 0,17 1,29 3,34 3,5 7,7 13,7 7,0 12,-1 15,-5 3,-4 4,-11 4,-22 0,-16 -2,-25 -6,-29 -4,-4 -23,-15 -57,-34 -30,-16 -47,-31 -54,-44 -6,-13 -10,-29 -10,-47 0,-26 3,-45 10,-57 7,-13 18,-22 34,-29 16,-7 36,-10 57,-11 22,0 40,3 55,8 15,5 27,12 35,21 8,9 13,17 15,25 1,8 3,20 3,36 l 0,19 z"
       inkscape:connector-curvature="0"
       style="fill:#e7efc6;fill-rule:nonzero" /><circle
       class="fil4"
       cy="11000"
       r="2677"
       id="circle4823"
       cx="0"
       style="fill:none" /><path
       class="fil5"
       d="m -3397,11897 39,120 c -22,7 -36,12 -42,15 -6,2 -10,6 -12,12 -3,5 -3,12 0,19 2,7 5,11 10,14 5,3 11,3 17,2 6,-2 18,-5 36,-11 l 76,-26 c -14,-1 -27,-7 -37,-17 -10,-10 -18,-23 -24,-41 -8,-22 -8,-43 -2,-64 7,-21 17,-36 32,-46 15,-10 37,-20 65,-29 l 39,-13 c 33,-11 59,-18 76,-21 17,-2 35,-1 52,6 18,6 34,18 48,35 14,17 26,38 34,64 11,32 15,60 13,84 -2,23 -10,43 -23,60 -13,17 -28,29 -46,37 -18,8 -53,21 -106,38 l -66,22 c -58,19 -96,31 -116,36 -20,4 -40,4 -61,-3 -22,-6 -40,-19 -55,-36 -16,-18 -28,-41 -37,-68 -11,-34 -15,-63 -11,-88 4,-25 14,-46 31,-62 16,-16 40,-29 70,-39 z m 189,70 c -21,7 -32,14 -35,21 -3,7 -4,13 -2,18 3,9 8,14 15,16 8,2 20,0 38,-6 l 87,-29 c 21,-7 34,-13 39,-19 5,-6 7,-13 4,-22 -2,-5 -6,-10 -13,-13 -7,-4 -21,-3 -44,5 l -89,29 z m 431,504 -92,42 -31,-71 -369,167 -54,-120 368,-167 -32,-71 92,-41 118,261 z m 163,274 -439,250 -65,-114 184,-105 -19,-34 -184,106 -65,-115 439,-250 65,114 -157,90 19,33 157,-90 65,115 z m 341,420 -382,330 -76,-87 258,-223 -288,188 -52,-61 221,-254 -253,217 -75,-87 382,-330 111,129 c -20,23 -44,51 -71,82 l -85,98 198,-132 112,130 z m 40,446 c -35,37 -60,62 -77,76 -16,13 -34,22 -56,26 -21,4 -42,2 -64,-6 -22,-8 -44,-21 -64,-41 -20,-19 -34,-39 -44,-60 -9,-21 -13,-42 -10,-64 3,-22 10,-41 23,-58 12,-17 37,-44 72,-82 l 60,-63 c 35,-36 61,-62 77,-75 16,-14 35,-23 56,-27 21,-4 43,-2 65,6 22,8 43,22 63,41 20,19 35,39 44,60 10,21 13,43 10,65 -2,22 -10,41 -23,58 -12,16 -36,44 -72,81 l -60,63 z m 19,-211 c 16,-17 26,-29 29,-35 2,-7 1,-13 -5,-18 -5,-5 -10,-6 -17,-5 -6,1 -18,12 -36,30 l -162,171 c -21,22 -32,35 -35,42 -3,7 -2,13 5,19 6,6 13,7 20,3 7,-4 21,-17 41,-39 l 160,-168 z m 423,180 -62,79 -61,-48 -250,319 -103,-82 249,-318 -61,-48 62,-79 226,177 z m 108,416 c -28,43 -48,72 -61,89 -14,16 -30,29 -50,37 -20,8 -42,10 -65,6 -23,-3 -47,-13 -71,-28 -22,-15 -40,-31 -54,-50 -13,-19 -21,-40 -22,-62 -2,-22 2,-42 11,-61 9,-19 28,-50 56,-94 l 46,-73 c 27,-43 48,-73 61,-89 13,-17 30,-29 50,-37 20,-8 42,-10 65,-6 23,3 46,13 70,28 23,14 41,31 54,50 14,19 21,40 23,62 1,21 -2,42 -11,61 -10,19 -28,50 -56,94 l -46,73 z m -22,-211 c 12,-20 19,-33 21,-40 1,-7 -2,-12 -8,-17 -6,-3 -12,-4 -18,-1 -5,2 -15,15 -29,37 l -127,198 c -16,25 -24,41 -26,48 -2,7 1,13 8,17 7,5 14,5 21,0 6,-6 17,-21 33,-46 l 125,-196 z m 213,-26 83,42 c 55,28 92,50 109,64 18,14 28,33 31,57 4,24 -4,55 -24,93 -18,35 -34,56 -49,64 -15,8 -36,6 -62,-5 20,18 31,34 35,47 3,14 3,26 1,35 -2,9 -13,31 -31,68 l -61,119 -109,-56 77,-150 c 12,-24 18,-40 17,-47 -1,-8 -9,-16 -25,-24 l -104,203 -117,-60 229,-450 z m 79,137 -52,100 c 14,7 24,9 31,8 7,0 15,-11 25,-31 l 13,-24 c 7,-15 10,-25 7,-33 -3,-7 -11,-13 -24,-20 z m 340,51 -184,471 -122,-48 183,-471 123,48 z m 244,78 -27,97 -176,266 94,26 -28,97 -233,-65 20,-70 187,-292 -86,-24 28,-97 221,62 z m 42,12 213,49 -22,98 -85,-19 -22,94 80,18 -22,93 -80,-18 -24,108 94,22 -23,98 -222,-51 113,-492 z m 245,54 97,13 c 63,8 105,16 127,25 21,9 37,20 47,35 9,15 15,30 16,47 0,16 -2,48 -9,96 l -23,175 c -5,45 -11,75 -18,90 -6,14 -15,25 -26,33 -12,7 -26,11 -42,12 -16,2 -39,0 -70,-4 l -165,-21 66,-501 z m 119,102 -43,330 c 19,3 30,1 36,-6 5,-7 10,-28 14,-61 l 26,-195 c 3,-23 4,-37 3,-44 0,-7 -3,-12 -8,-15 -4,-4 -14,-7 -28,-9 z m 335,-56 93,-2 c 62,-1 104,0 126,5 22,4 40,16 55,35 14,19 22,51 22,94 1,39 -3,65 -13,79 -9,14 -28,22 -57,26 26,6 44,14 53,25 10,10 15,20 18,29 2,9 4,34 5,75 l 2,133 -122,3 -3,-168 c -1,-27 -3,-44 -8,-51 -4,-6 -15,-9 -33,-8 l 5,228 -132,2 -11,-505 z m 134,84 2,112 c 15,0 25,-3 31,-7 6,-4 8,-17 8,-39 l -1,-28 c 0,-16 -3,-27 -9,-32 -6,-5 -16,-7 -31,-6 z m 190,-90 217,-28 13,100 -87,11 13,96 81,-11 12,95 -81,11 15,110 95,-13 13,101 -226,29 -65,-501 z m 598,121 -128,30 -20,-86 c -6,-25 -11,-40 -15,-45 -4,-6 -11,-8 -20,-5 -10,2 -16,7 -17,15 -1,9 1,25 7,50 l 52,228 c 6,24 11,40 15,46 5,7 12,9 22,7 9,-2 15,-7 16,-15 1,-8 -1,-26 -8,-53 l -14,-62 128,-29 5,19 c 12,51 16,88 14,111 -2,23 -14,45 -35,67 -21,22 -49,37 -85,45 -38,9 -70,9 -98,1 -27,-8 -48,-23 -61,-45 -14,-22 -26,-58 -37,-106 l -33,-144 c -8,-35 -13,-62 -15,-80 -2,-19 2,-37 10,-57 8,-19 22,-36 41,-50 19,-14 43,-25 71,-31 37,-9 70,-9 98,0 28,9 48,24 61,43 13,21 24,53 35,99 l 11,47 z m 361,-32 c 16,48 27,82 31,103 4,21 3,42 -3,62 -6,21 -18,39 -36,54 -17,16 -39,28 -66,37 -26,9 -50,12 -73,11 -23,-2 -44,-9 -62,-22 -18,-12 -32,-28 -40,-47 -9,-19 -22,-53 -39,-102 l -27,-83 c -16,-48 -26,-82 -30,-103 -5,-21 -4,-41 3,-62 6,-20 18,-39 35,-54 18,-16 40,-28 67,-37 25,-9 50,-12 73,-10 23,1 44,8 62,21 18,12 31,28 40,47 9,19 22,53 38,103 l 27,82 z m -177,-116 c -7,-22 -13,-36 -18,-42 -4,-5 -10,-7 -18,-4 -6,2 -10,6 -12,12 -1,6 2,22 10,46 l 74,224 c 10,28 16,45 21,51 4,5 10,7 19,4 8,-3 12,-8 12,-16 0,-9 -5,-27 -15,-55 l -73,-220 z m 381,-295 208,461 -104,47 -157,-181 94,209 -100,46 -208,-461 100,-45 161,177 -94,-207 100,-46 z m 142,-72 110,-71 c 34,-22 62,-36 84,-42 21,-7 43,-5 64,5 22,9 45,32 68,69 16,25 23,44 22,59 -2,15 -12,32 -32,52 30,-10 53,-12 71,-4 18,7 35,25 53,52 l 26,40 c 18,29 29,52 31,70 2,18 -2,34 -13,49 -11,14 -39,35 -83,64 l -128,82 -273,-425 z m 157,1 61,95 c 4,-3 8,-6 11,-7 10,-7 15,-14 15,-21 -1,-8 -9,-24 -25,-49 -9,-13 -16,-22 -22,-26 -6,-3 -11,-5 -16,-4 -5,1 -13,5 -24,12 z m 103,161 77,119 c 15,-10 23,-19 25,-26 1,-7 -4,-19 -15,-36 l -26,-40 c -11,-18 -20,-28 -27,-30 -6,-1 -17,3 -34,13 z m 205,-487 370,352 -106,83 -62,-67 -37,29 50,76 -107,83 -258,-439 150,-117 z m 145,299 c -41,-41 -89,-93 -147,-155 49,84 87,145 111,183 l 36,-28 z m 82,-508 70,73 -56,53 280,292 -95,91 -280,-292 -56,54 -70,-73 207,-198 z m 209,-234 76,66 -51,59 306,264 -86,100 -306,-264 -51,58 -76,-66 188,-217 z m 129,-173 456,231 -78,109 -78,-46 -28,38 70,59 -78,111 -374,-347 110,-155 z m 225,245 c -50,-28 -112,-64 -185,-107 71,67 125,114 159,143 l 26,-36 z m -95,-444 341,217 43,-67 85,54 -114,178 -426,-271 71,-111 z m 109,-204 449,232 -60,117 -449,-232 60,-117 z m 409,-198 c 47,19 80,33 99,43 19,10 34,24 45,42 12,18 18,38 19,62 1,23 -3,48 -14,75 -10,25 -22,46 -39,62 -16,17 -34,29 -55,34 -22,6 -42,6 -63,1 -20,-5 -54,-17 -103,-36 l -80,-31 c -48,-19 -81,-33 -99,-43 -19,-10 -35,-24 -46,-42 -12,-18 -18,-39 -19,-62 -1,-23 4,-48 14,-75 10,-25 23,-46 39,-63 16,-17 34,-28 56,-34 21,-5 42,-6 62,0 20,5 55,17 103,36 l 81,31 z m -203,63 c -22,-9 -36,-13 -43,-13 -7,0 -12,3 -15,11 -3,6 -2,12 2,17 3,5 17,13 41,22 l 220,86 c 27,10 45,16 52,16 7,1 12,-3 15,-11 4,-8 2,-15 -4,-20 -7,-5 -24,-13 -52,-24 l -216,-84 z m 25,-484 486,139 -31,110 -240,3 221,63 -30,106 -486,-140 30,-105 239,-8 -219,-63 30,-105 z"
       id="path4825"
       inkscape:connector-curvature="0"
       style="fill:#ffffff;fill-rule:nonzero" /><circle
       class="fil4"
       cy="11000"
       r="3898"
       id="circle4827"
       cx="0"
       style="fill:none" /><path
       class="fil5"
       d="m -1415,7601 274,500 -114,63 -184,-338 139,363 -81,44 -228,-304 180,330 -113,62 -274,-501 168,-92 c 22,28 46,60 74,98 l 88,118 -98,-250 169,-93 z"
       id="path4829"
       inkscape:connector-curvature="0"
       style="fill:#ffffff;fill-rule:nonzero" /><path
       id="path4831"
       class="fil5"
       d="m -1003,7475 252,519 -145,46 -38,-96 -51,16 23,101 -147,46 -99,-567 205,-65 z m 35,374 c -27,-60 -58,-133 -94,-222 19,109 34,188 46,237 l 48,-15 z"
       inkscape:connector-curvature="0"
       style="fill:#ffffff;fill-rule:nonzero" /><path
       id="path4833"
       class="fil5"
       d="m -490,7368 21,575 -222,38 -179,-548 154,-27 c 44,152 79,281 105,387 -11,-110 -19,-207 -25,-293 l -8,-106 154,-26 z"
       inkscape:connector-curvature="0"
       style="fill:#ffffff;fill-rule:nonzero" /><polygon
       id="polygon4835"
       class="fil5"
       points="-257,7460 -249,7568 -156,7560 -147,7669 -240,7676 -230,7801 -121,7792 -112,7906 -368,7927 -415,7358 -168,7338 -159,7452 "
       style="fill:#ffffff;fill-rule:nonzero" /><path
       id="path4837"
       class="fil5"
       d="m -65,7338 105,1 c 70,0 117,3 142,9 25,5 45,19 60,42 16,22 23,57 23,106 0,44 -6,74 -17,89 -11,16 -33,25 -66,27 30,8 49,18 59,30 11,12 17,24 19,34 3,10 4,38 3,84 l -1,151 -138,-1 2,-190 c 0,-30 -2,-49 -7,-57 -5,-7 -17,-11 -38,-11 l -2,257 -148,-1 4,-570 z m 148,99 -1,126 c 16,1 28,-2 35,-6 7,-5 10,-20 10,-45 l 0,-31 c 0,-18 -3,-30 -9,-36 -7,-5 -18,-8 -35,-8 z"
       inkscape:connector-curvature="0"
       style="fill:#ffffff;fill-rule:nonzero" /><polygon
       id="polygon4839"
       class="fil5"
       points="399,7358 546,7379 467,7944 320,7923 "
       style="fill:#ffffff;fill-rule:nonzero" /><path
       id="path4841"
       class="fil5"
       d="m 935,7708 -145,-32 21,-97 c 7,-28 9,-46 8,-54 -2,-7 -8,-12 -19,-15 -11,-2 -20,0 -25,8 -5,8 -11,26 -17,54 l -58,259 c -6,27 -8,45 -7,54 2,9 8,14 19,17 11,2 19,0 24,-8 5,-7 11,-26 18,-57 l 16,-70 144,33 -4,21 c -13,58 -26,98 -40,120 -13,22 -36,39 -68,51 -32,12 -68,14 -109,5 -42,-10 -76,-25 -100,-47 -24,-21 -37,-47 -40,-76 -3,-29 1,-71 13,-125 l 37,-163 c 9,-40 17,-70 24,-90 7,-19 20,-37 37,-52 18,-16 40,-26 67,-31 26,-6 55,-5 87,2 43,10 76,26 100,48 24,23 38,48 41,74 3,27 -1,66 -12,118 l -12,53 z"
       inkscape:connector-curvature="0"
       style="fill:#ffffff;fill-rule:nonzero" /><polygon
       id="polygon4843"
       class="fil5"
       points="1111,8113 1141,7863 1055,8092 916,8040 1117,7506 1256,7558 1178,7765 1317,7581 1447,7630 1277,7841 1254,8167 "
       style="fill:#ffffff;fill-rule:nonzero" /><path
       id="path4845"
       class="fil5"
       d="m 1731,7967 -122,-64 20,-37 c 9,-18 13,-30 12,-36 0,-7 -4,-12 -11,-16 -8,-4 -16,-4 -24,1 -7,4 -14,13 -21,26 -9,17 -13,31 -13,42 0,10 7,27 21,50 40,65 62,113 66,143 3,31 -8,70 -34,120 -19,36 -37,60 -54,73 -17,13 -41,19 -71,17 -30,-1 -62,-10 -94,-26 -35,-19 -61,-41 -79,-67 -18,-27 -26,-52 -23,-77 3,-24 15,-56 35,-94 l 17,-33 122,64 -32,62 c -10,19 -15,32 -14,39 1,7 5,13 14,17 9,5 17,5 25,0 8,-4 15,-13 22,-27 16,-30 22,-51 19,-65 -4,-13 -16,-39 -38,-78 -21,-38 -35,-65 -40,-81 -6,-15 -7,-33 -5,-54 2,-21 10,-45 24,-72 20,-39 40,-64 59,-77 19,-13 43,-19 70,-17 27,1 57,10 88,27 34,17 60,38 79,62 18,23 27,46 26,66 -1,21 -12,52 -33,92 l -11,20 z"
       inkscape:connector-curvature="0"
       style="fill:#ffffff;fill-rule:nonzero" /><circle
       class="fil4"
       cy="11000"
       r="3898"
       id="circle4847"
       cx="0"
       style="fill:none" /><path
       class="fil2"
       d="m 0,8087 c 1609,0 2913,1304 2913,2913 0,1609 -1304,2913 -2913,2913 -1609,0 -2913,-1304 -2913,-2913 0,-1609 1304,-2913 2913,-2913 z m 1679,4404 c -4,36 -55,22 -65,84 -7,50 32,89 44,98 44,35 86,17 112,-8 13,-13 22,-45 43,-37 24,9 -7,85 -41,104 -40,23 -123,36 -182,-29 -80,-90 -29,-198 26,-217 45,-16 65,-10 63,5 z m -482,-1550 c 53,-44 144,64 200,120 64,64 136,83 138,136 5,82 -123,166 -186,108 -60,-57 -140,-160 -168,-226 -30,-70 -16,-112 16,-138 z M 827,9189 c -197,118 -551,354 -630,551 590,-275 1378,-275 1890,-157 -367,62 -748,197 -1024,354 526,58 1024,236 1417,512 -354,-79 -748,-79 -1102,-40 236,119 512,434 512,512 0,79 -79,197 -79,315 0,430 276,1142 276,1299 0,79 -48,78 -79,158 -25,63 4,186 -39,236 -99,113 -158,158 -315,236 -79,40 -78,-77 -119,-157 -78,-158 -315,-473 -315,-118 0,236 158,236 79,315 -39,39 -341,-162 -433,-355 -48,-101 79,-281 79,-393 0,-197 -92,-460 -276,-551 -315,-158 -354,-394 -354,-591 0,-132 0,-236 79,-394 -118,79 -197,276 -197,433 0,276 118,512 315,630 -79,79 -118,158 -118,355 0,307 225,990 602,1315 1074,-403 1839,-1439 1839,-2654 C 2835,9434 1566,8165 0,8165 c -1566,0 -2835,1269 -2835,2835 0,679 240,1303 638,1791 -62,-284 -126,-581 -126,-885 79,157 236,314 354,393 -196,-393 -236,-827 -196,-1220 78,197 157,275 315,354 -158,-354 -119,-787 0,-1181 39,197 118,394 236,512 -40,-355 157,-945 354,-1142 -39,197 -39,394 79,591 105,-462 394,-827 748,-945 -118,157 -158,393 -158,551 355,-354 945,-591 1418,-630 z m -2033,4377 c -205,-950 -109,-1931 497,-2802 -542,387 -893,1612 -755,2664 83,50 169,96 258,138 z"
       id="path4849"
       inkscape:connector-curvature="0"
       style="fill:#000000" /></g></svg>