<?xml version="1.0" encoding="UTF-8" standalone="no"?>
<!-- Creator: CorelDRAW X7 -->

<svg
   xmlns:dc="http://purl.org/dc/elements/1.1/"
   xmlns:cc="http://creativecommons.org/ns#"
   xmlns:rdf="http://www.w3.org/1999/02/22-rdf-syntax-ns#"
   xmlns:svg="http://www.w3.org/2000/svg"
   xmlns="http://www.w3.org/2000/svg"
   xmlns:sodipodi="http://sodipodi.sourceforge.net/DTD/sodipodi-0.dtd"
   xmlns:inkscape="http://www.inkscape.org/namespaces/inkscape"
   xml:space="preserve"
   width="7.8740005in"
   height="7.8740005in"
   version="1.1"
   style="clip-rule:evenodd;fill-rule:evenodd;image-rendering:optimizeQuality;shape-rendering:geometricPrecision;text-rendering:geometricPrecision"
   viewBox="0 0 7874.0005 7874.0005"
   id="svg3729"
   inkscape:version="0.91 r13725"
   sodipodi:docname="Ariadna - Marauders - [N3] [Vyo].svg"><metadata
     id="metadata3792"><rdf:RDF><cc:Work
         rdf:about=""><dc:format>image/svg+xml</dc:format><dc:type
           rdf:resource="http://purl.org/dc/dcmitype/StillImage" /></cc:Work></rdf:RDF></metadata><sodipodi:namedview
     pagecolor="#ffffff"
     bordercolor="#666666"
     borderopacity="1"
     objecttolerance="10"
     gridtolerance="10"
     guidetolerance="10"
     inkscape:pageopacity="0"
     inkscape:pageshadow="2"
     inkscape:window-width="640"
     inkscape:window-height="480"
     id="namedview3790"
     showgrid="false"
     inkscape:zoom="0.23838384"
     inkscape:cx="736.83001"
     inkscape:cy="849.33005"
     inkscape:window-x="0"
     inkscape:window-y="0"
     inkscape:window-maximized="0"
     inkscape:current-layer="svg3729" /><defs
     id="defs3731"><style
       type="text/css"
       id="style3733"><![CDATA[
    .fil4 {fill:none}
    .fil0 {fill:black}
    .fil1 {fill:#222220}
    .fil2 {fill:#FFD600}
    .fil3 {fill:white}
    .fil5 {fill:black;fill-rule:nonzero}
    .fil6 {fill:#333333;fill-rule:nonzero}
   ]]></style></defs><g
     id="Layer_x0020_1"
     transform="translate(3937,-7063)"><metadata
       id="CorelCorpID_0Corel-Layer" /><circle
       class="fil0"
       cy="11000"
       r="3937"
       id="circle3737"
       cx="0"
       style="fill:#000000" /><circle
       class="fil1"
       cy="11000"
       r="3150"
       id="circle3739"
       cx="0"
       style="fill:#222220" /><path
       class="fil2"
       d="m 0,7142 c 2131,0 3858,1727 3858,3858 0,2131 -1727,3858 -3858,3858 -2131,0 -3858,-1727 -3858,-3858 0,-2131 1727,-3858 3858,-3858 z M -591,9976 1702,8257 C 1208,7949 625,7772 0,7772 c -1783,0 -3228,1445 -3228,3228 0,772 271,1480 723,2036 l 1403,-1130 -552,-197 1930,-1418 -867,-315 z m 3084,-1027 -1666,1185 945,275 -2363,1378 867,237 -2778,1017 c 592,724 1493,1187 2502,1187 1783,0 3228,-1445 3228,-3228 0,-779 -275,-1493 -735,-2051 z"
       id="path3741"
       inkscape:connector-curvature="0"
       style="fill:#ffd600" /><path
       class="fil3"
       d="m -1831,8814 254,475 c -84,5 -165,28 -237,63 l -17,-538 z m 3327,2006 -269,829 -873,0 706,513 -270,829 706,-512 706,512 -270,-829 706,-513 -872,0 -270,-829 z M -1535,9366 c 304,0 551,247 551,551 0,305 -247,552 -551,552 -305,0 -552,-247 -552,-552 0,-304 247,-551 552,-551 z m 41,-77 254,-475 -17,538 c -72,-36 -152,-58 -237,-63 z m 309,105 457,-284 -284,457 c -46,-68 -105,-127 -173,-173 z m 215,245 537,-17 -474,254 c -5,-85 -28,-165 -63,-237 z m 63,320 474,254 -537,-17 c 35,-73 58,-153 63,-237 z m -105,309 284,457 -457,-284 c 68,-46 127,-105 173,-173 z m -245,214 17,538 -254,-474 c 85,-6 165,-28 237,-64 z m -320,64 -254,474 17,-538 c 72,36 153,58 237,64 z m -309,-105 -457,284 284,-457 c 46,68 105,127 173,173 z m -215,-245 -537,17 474,-254 c 6,84 28,164 63,237 z m -63,-320 -474,-254 537,17 c -35,72 -57,152 -63,237 z m 105,-309 -284,-457 457,284 c -68,46 -127,105 -173,173 z"
       id="path3743"
       inkscape:connector-curvature="0"
       style="fill:#ffffff" /><circle
       class="fil4"
       cy="11000"
       r="3898"
       id="circle3745"
       cx="0"
       style="fill:none" /><path
       class="fil5"
       d="m -3706,10659 -19,226 72,19 19,-231 -72,-14 z m 254,9 c -17,-1 -34,0 -50,3 -16,2 -30,8 -43,16 -12,7 -23,17 -31,30 -8,13 -13,28 -15,46 0,2 0,5 0,8 -1,2 -1,5 0,7 l 67,6 c 3,-8 7,-15 11,-20 4,-5 9,-9 14,-11 6,-3 12,-4 19,-4 8,-1 16,0 26,0 10,1 18,2 26,4 8,1 15,3 20,7 6,3 11,7 15,13 4,6 7,13 10,23 l 69,5 c -3,-43 -16,-75 -38,-96 -22,-21 -56,-33 -100,-37 z m -141,155 c 1,4 1,7 2,10 1,2 2,4 3,6 2,2 3,4 5,6 1,2 3,4 5,8 l -31,-14 -5,70 105,31 6,-75 c -9,-5 -15,-9 -19,-14 -3,-5 -5,-12 -6,-22 l -65,-6 z m 276,22 -68,-5 c -1,9 -4,17 -7,22 -4,5 -8,9 -13,12 -5,2 -12,4 -19,5 -7,0 -15,1 -24,1 l 0,0 -1,0 1,0 -3,81 c 18,0 34,-3 50,-7 15,-5 29,-12 41,-21 12,-9 21,-20 29,-33 7,-13 12,-29 13,-47 l 1,-8 z"
       id="path3747"
       inkscape:connector-curvature="0"
       style="fill:#000000;fill-rule:nonzero" /><path
       id="1"
       class="fil5"
       d="m -3625,10464 -67,-10 c -1,20 1,38 4,53 4,15 10,27 19,37 9,10 21,18 35,24 15,7 32,11 54,15 l 2,0 16,-76 c -8,-1 -17,-2 -24,-3 -8,-1 -14,-3 -20,-6 -6,-2 -10,-6 -13,-11 -4,-5 -6,-13 -6,-23 z m 239,-128 c -9,-1 -19,-1 -30,0 -11,2 -21,4 -31,8 -11,4 -19,10 -27,17 -7,8 -12,16 -14,27 -7,-19 -16,-34 -27,-44 -11,-10 -27,-17 -47,-20 -18,-3 -33,-3 -47,0 -13,3 -25,8 -35,15 -9,8 -17,17 -24,29 -6,12 -12,26 -16,42 l 66,11 c 5,-12 11,-19 19,-20 8,-1 18,0 31,2 9,1 16,5 21,10 5,6 9,13 12,20 2,8 4,16 4,25 1,9 0,17 -1,24 l -1,3 c 0,0 0,0 0,0 0,0 0,1 -1,3 l 67,11 c 0,-8 1,-17 2,-27 1,-7 4,-15 7,-22 4,-7 8,-13 13,-18 5,-5 12,-9 18,-11 7,-3 15,-4 23,-2 8,1 16,3 23,4 7,2 13,5 19,8 5,4 9,8 12,14 3,5 4,12 4,21 l 67,10 c 4,-37 -3,-67 -21,-92 -19,-25 -47,-41 -86,-48 z m 101,183 -68,-11 c -3,11 -7,19 -13,24 -5,5 -12,8 -20,9 -7,1 -16,0 -24,-1 -9,-2 -19,-3 -29,-5 l -9,78 c 21,3 40,4 58,3 18,-2 34,-6 48,-13 15,-8 27,-18 36,-32 10,-13 17,-31 21,-52 z"
       inkscape:connector-curvature="0"
       style="fill:#000000;fill-rule:nonzero" /><path
       id="2"
       class="fil5"
       d="m -3396,9980 c -23,-5 -46,-9 -69,-12 -23,-3 -44,-2 -64,2 -20,3 -37,12 -52,24 -15,13 -26,33 -33,59 l 68,15 c 2,-4 4,-8 7,-12 3,-4 6,-8 10,-11 7,-5 16,-8 26,-8 10,0 21,1 33,4 11,3 22,6 33,9 11,4 20,7 29,9 9,2 22,4 37,7 16,3 31,7 45,11 15,5 27,12 36,20 10,8 13,19 10,32 l 69,15 c 2,-30 -1,-54 -11,-73 -9,-18 -23,-34 -40,-45 -18,-12 -38,-21 -62,-28 -23,-6 -47,-12 -72,-18 z m 173,213 -67,-16 c -2,5 -4,9 -7,13 -3,4 -6,8 -10,11 -8,7 -18,10 -30,11 -11,0 -23,0 -36,-3 -13,-2 -25,-5 -37,-9 -13,-4 -24,-7 -33,-9 -12,-2 -24,-5 -37,-8 -13,-3 -26,-6 -37,-11 -11,-5 -20,-12 -28,-20 -7,-9 -11,-20 -11,-35 l -68,-15 c -5,26 -3,48 5,67 8,19 20,34 37,47 16,13 35,24 56,32 22,9 44,15 65,20 16,4 32,7 48,10 17,3 33,4 49,5 16,1 31,0 46,-2 14,-2 28,-6 40,-13 12,-7 23,-16 33,-28 9,-13 17,-28 22,-47 z"
       inkscape:connector-curvature="0"
       style="fill:#000000;fill-rule:nonzero" /><path
       id="3"
       class="fil5"
       d="m -3389,9645 -69,-25 -90,247 69,25 90,-247 z m 36,29 -28,79 c 7,12 15,25 25,37 16,22 31,41 45,56 14,16 27,30 42,43 14,12 30,24 47,35 18,10 38,22 63,33 l 31,-84 c -49,-18 -93,-44 -132,-77 -38,-34 -69,-74 -93,-122 z"
       inkscape:connector-curvature="0"
       style="fill:#000000;fill-rule:nonzero" /><path
       id="4"
       class="fil5"
       d="m -2817,8729 c -43,-19 -79,-23 -111,-13 -31,10 -60,32 -86,67 l 61,43 c 13,-15 26,-23 40,-25 14,-2 30,1 49,8 l 47,-80 z m 125,78 -61,76 c 17,15 28,31 33,46 5,15 2,32 -9,52 l 0,-1 63,44 c 12,-22 20,-42 26,-60 5,-18 7,-36 6,-53 -2,-17 -8,-34 -17,-51 -9,-16 -23,-34 -41,-53 z m 4,248 -63,-44 c -10,14 -22,23 -35,28 -14,4 -27,6 -42,4 -14,-2 -28,-7 -42,-14 -14,-7 -27,-15 -40,-23 -13,-9 -25,-19 -37,-30 -13,-10 -22,-22 -30,-34 -7,-13 -11,-26 -11,-40 -1,-14 3,-29 14,-45 l -1,0 -61,-43 c -17,25 -28,51 -32,76 -4,25 -3,49 3,73 7,23 19,45 35,66 17,21 37,40 62,57 24,17 49,29 75,37 25,8 50,11 75,9 24,-1 48,-9 70,-21 23,-13 43,-31 60,-56 z"
       inkscape:connector-curvature="0"
       style="fill:#000000;fill-rule:nonzero" /><path
       id="5"
       class="fil5"
       d="m -2430,8436 c -45,-44 -91,-68 -137,-73 -47,-5 -94,13 -141,54 l 56,55 c 15,-13 30,-21 43,-23 14,-2 27,-1 41,4 13,5 25,13 38,23 12,10 25,21 37,33 13,12 24,24 33,35 9,12 15,23 19,35 4,12 5,24 3,37 -2,13 -9,28 -19,43 l 56,54 7,-8 c 21,-21 34,-43 40,-67 5,-23 6,-47 1,-71 -5,-24 -14,-47 -28,-70 -13,-22 -30,-43 -49,-61 z m -58,255 c -16,10 -30,17 -43,20 -13,2 -26,1 -38,-3 -13,-3 -25,-10 -37,-19 -12,-9 -24,-20 -37,-32 -12,-11 -23,-23 -32,-35 -10,-12 -17,-24 -21,-37 -5,-13 -7,-26 -5,-40 1,-13 8,-27 19,-42 l -1,0 -56,-54 c -20,23 -34,46 -42,70 -7,24 -9,48 -6,72 4,24 12,47 26,70 13,23 30,45 51,65 18,17 37,32 57,44 20,12 41,21 63,26 21,5 43,6 65,2 22,-3 44,-12 65,-27 5,-4 10,-8 14,-12 5,-5 9,-9 14,-14 l -56,-54 z"
       inkscape:connector-curvature="0"
       style="fill:#000000;fill-rule:nonzero" /><path
       id="6"
       class="fil5"
       d="m -1928,8285 -252,-322 -67,53 252,321 67,-52 z m -236,-101 -114,-144 -5,4 c 21,49 42,99 63,147 21,49 43,97 68,145 -41,-34 -84,-67 -126,-99 -43,-32 -85,-64 -129,-96 l -3,2 116,148 c 1,1 3,3 7,6 3,3 7,5 11,8 5,3 9,6 13,9 4,3 6,5 8,6 l 127,121 72,-56 -89,-155 c -1,-2 -2,-5 -4,-10 -2,-4 -4,-9 -6,-14 -1,-5 -3,-9 -5,-13 -2,-5 -3,-7 -4,-9 z m -24,304 -252,-321 -67,53 252,321 67,-53 z"
       inkscape:connector-curvature="0"
       style="fill:#000000;fill-rule:nonzero" /><path
       id="7"
       class="fil5"
       d="m -1771,7858 c -13,-19 -26,-35 -38,-47 -13,-12 -26,-20 -40,-24 -14,-4 -28,-4 -44,0 -15,4 -32,12 -51,23 l -51,33 41,63 3,-2 c 10,-7 20,-13 28,-18 9,-6 18,-9 26,-10 8,-1 16,1 24,6 8,5 17,15 26,29 7,10 11,19 13,27 2,7 2,14 1,20 -2,6 -6,11 -12,16 -6,5 -13,10 -21,15 l -24,16 40,62 39,-25 c 19,-12 35,-25 46,-37 13,-13 20,-27 24,-41 3,-15 3,-31 -2,-48 -5,-17 -14,-36 -28,-58 z m -39,352 -222,-343 -77,50 222,343 77,-50 z"
       inkscape:connector-curvature="0"
       style="fill:#000000;fill-rule:nonzero" /><path
       id="8"
       class="fil5"
       d="m -1310,7712 c -26,-57 -60,-96 -101,-118 -42,-22 -92,-22 -151,-1 l 33,71 c 18,-6 34,-8 48,-5 13,3 25,9 36,18 10,10 19,21 27,35 8,14 16,29 23,44 7,17 13,32 17,46 4,14 6,27 5,39 0,13 -4,25 -11,36 -7,11 -18,22 -33,33 l 32,70 10,-4 c 27,-12 47,-28 61,-48 14,-20 23,-42 28,-66 4,-24 4,-49 -1,-75 -4,-26 -12,-51 -23,-75 z m -147,216 c -19,4 -35,5 -48,2 -13,-2 -25,-7 -35,-15 -10,-8 -19,-19 -27,-32 -7,-13 -15,-27 -22,-43 -7,-15 -13,-30 -17,-45 -5,-14 -7,-28 -7,-42 1,-14 4,-26 11,-39 6,-12 17,-22 32,-32 l 0,0 -32,-71 c -28,14 -49,30 -65,50 -16,19 -26,41 -32,64 -5,24 -6,49 -2,75 4,27 12,53 24,80 10,22 23,42 37,61 14,19 31,35 49,47 18,13 38,22 60,27 22,4 45,4 70,-3 6,-1 12,-3 18,-6 6,-2 11,-5 17,-7 l -31,-71 z"
       inkscape:connector-curvature="0"
       style="fill:#000000;fill-rule:nonzero" /><path
       id="9"
       class="fil5"
       d="m -956,7511 c -3,-4 -5,-10 -8,-15 -2,-5 -5,-10 -8,-15 -17,-27 -38,-44 -65,-52 -26,-8 -53,-8 -83,0 l -8,1 22,72 c 10,-2 19,-3 25,-3 6,1 12,3 16,7 5,3 9,8 12,15 4,7 8,15 12,24 l 85,-34 z m 58,165 c -7,-22 -15,-39 -26,-51 -12,-13 -24,-22 -38,-28 -13,-6 -28,-10 -43,-11 -16,-1 -31,-1 -46,0 -16,1 -31,3 -45,5 -15,1 -28,2 -40,2 -12,0 -22,-2 -30,-6 -9,-4 -15,-11 -18,-21 -2,-7 -3,-14 -2,-20 1,-6 3,-11 7,-15 3,-4 8,-8 13,-10 5,-3 11,-5 17,-7 l -22,-70 -3,1 c -19,6 -36,13 -51,23 -15,9 -27,20 -36,33 -9,13 -14,28 -16,45 -2,18 0,37 7,58 6,20 15,35 25,45 11,11 23,19 36,24 13,5 28,8 43,8 15,1 30,1 46,0 15,-1 30,-2 45,-3 15,-2 28,-2 40,-1 12,0 22,3 31,7 8,5 14,12 18,23 2,8 3,15 2,21 -2,6 -4,11 -8,16 -4,5 -8,9 -14,12 -5,3 -11,6 -17,9 l 23,72 c 5,-2 9,-3 13,-5 4,-2 7,-3 11,-5 3,-1 6,-3 10,-5 3,-3 7,-5 12,-8 11,-7 21,-16 30,-27 9,-10 16,-21 21,-33 6,-12 9,-25 10,-38 1,-14 -1,-27 -5,-40 z m -144,176 -24,-73 c -12,2 -23,4 -30,4 -8,0 -14,-2 -19,-6 -6,-4 -10,-9 -15,-16 -5,-7 -11,-16 -17,-28 l -86,32 c 14,40 33,68 58,84 26,16 58,19 98,11 6,-1 12,-2 18,-4 5,-1 11,-3 17,-4 z"
       inkscape:connector-curvature="0"
       style="fill:#000000;fill-rule:nonzero" /><polygon
       id="10"
       class="fil5"
       points="-816,7773 -726,7752 -817,7355 -907,7375 "
       style="fill:#000000;fill-rule:nonzero" /><path
       id="11"
       class="fil5"
       d="m -417,7362 -12,-76 -88,15 12,75 88,-14 z m -249,41 -12,-76 -83,13 13,76 82,-13 z m 182,306 -65,-403 -92,15 65,403 92,-15 z"
       inkscape:connector-curvature="0"
       style="fill:#000000;fill-rule:nonzero" /><path
       id="12"
       class="fil5"
       d="m -36,7342 -1,-76 -162,2 1,76 162,-2 z m -13,154 -1,-73 -147,2 1,73 147,-2 z m 22,178 -2,-75 -165,2 1,76 166,-3 z m -211,3 -6,-408 -91,1 6,409 91,-2 z"
       inkscape:connector-curvature="0"
       style="fill:#000000;fill-rule:nonzero" /><path
       id="13"
       class="fil5"
       d="m 501,7548 21,-251 -92,-8 -21,246 c -1,12 -1,23 -2,34 0,10 -2,20 -5,28 -4,8 -9,14 -16,19 -8,4 -18,6 -33,5 l 0,1 -6,77 c 29,2 53,0 71,-5 19,-5 34,-13 46,-25 11,-13 20,-29 25,-48 6,-20 10,-44 12,-73 z m -197,149 5,-78 c -12,-2 -22,-6 -28,-11 -7,-5 -11,-11 -14,-17 -2,-7 -3,-15 -3,-25 1,-9 1,-20 2,-32 l 22,-256 -92,-8 -22,257 c -2,28 -1,52 2,72 3,20 9,37 19,50 10,14 23,25 41,32 18,8 40,13 68,16 z"
       inkscape:connector-curvature="0"
       style="fill:#000000;fill-rule:nonzero" /><path
       id="14"
       class="fil5"
       d="m 879,7725 77,-340 -90,-21 -40,198 53,163 z m -12,58 -149,-452 -84,-19 148,451 85,20 z m -235,-53 41,-200 -53,-163 -77,343 89,20 z"
       inkscape:connector-curvature="0"
       style="fill:#000000;fill-rule:nonzero" /><polygon
       id="15"
       class="fil5"
       points="927,7804 1015,7830 1132,7439 1045,7413 "
       style="fill:#000000;fill-rule:nonzero" /><path
       id="16"
       class="fil5"
       d="m 1479,7648 28,-71 -83,-33 -28,72 83,32 z m -235,-91 28,-71 -78,-30 -28,71 78,30 z m 2,357 147,-381 -86,-34 -147,381 86,34 z"
       inkscape:connector-curvature="0"
       style="fill:#000000;fill-rule:nonzero" /><path
       id="17"
       class="fil5"
       d="m 1500,7930 -78,-35 -37,78 41,18 c -9,14 -20,23 -31,30 -12,7 -26,11 -42,10 l 0,1 -13,28 c 28,3 50,1 66,-4 17,-6 30,-14 41,-26 10,-11 19,-25 27,-43 7,-17 16,-36 26,-57 z"
       inkscape:connector-curvature="0"
       style="fill:#000000;fill-rule:nonzero" /><path
       id="18"
       class="fil5"
       d="m 1991,8323 220,-344 -72,-46 -219,344 71,46 z m 17,-256 99,-154 -6,-4 c -40,36 -79,73 -118,108 -39,36 -77,73 -114,113 19,-51 36,-102 52,-152 15,-51 31,-102 47,-153 l -3,-3 -101,158 c 0,2 -2,4 -3,9 -1,4 -3,9 -4,14 -1,5 -3,9 -4,14 -1,5 -3,8 -3,10 l -72,160 77,49 116,-135 c 2,-2 5,-4 8,-8 4,-3 8,-6 12,-9 3,-4 7,-7 11,-10 3,-3 5,-5 6,-7 z m -294,79 219,-344 -72,-46 -220,344 73,46 z"
       inkscape:connector-curvature="0"
       style="fill:#000000;fill-rule:nonzero" /><path
       id="19"
       class="fil5"
       d="m 2318,8604 157,-403 -80,-68 -372,218 79,68 227,-148 c 9,-6 17,-11 25,-17 7,-6 15,-12 23,-19 -15,23 -28,47 -38,72 -10,26 -21,51 -32,75 l -35,-29 -64,42 69,59 -37,84 78,66 z"
       inkscape:connector-curvature="0"
       style="fill:#000000;fill-rule:nonzero" /><path
       id="20"
       class="fil5"
       d="m 2575,8887 c 4,-13 8,-24 13,-34 5,-11 12,-21 20,-31 6,-8 13,-17 22,-27 8,-9 15,-19 22,-30 7,-10 12,-21 15,-32 3,-11 3,-22 -1,-34 -1,-2 -2,-4 -2,-6 -1,-2 -2,-4 -2,-6 7,9 16,14 26,17 11,3 22,3 33,2 11,-2 22,-5 33,-9 10,-5 19,-11 27,-18 15,-14 27,-27 34,-40 7,-13 11,-26 12,-38 1,-13 -1,-24 -6,-36 -5,-12 -12,-23 -19,-35 -8,-11 -17,-22 -27,-34 -11,-11 -20,-22 -30,-34 l -58,52 1,1 c 5,6 10,11 15,16 5,5 10,10 15,16 5,6 10,12 13,17 4,6 6,11 6,16 1,6 -1,11 -4,17 -3,6 -9,12 -17,20 -10,9 -19,15 -26,19 -7,4 -14,6 -20,5 -6,0 -12,-3 -18,-7 -6,-5 -12,-11 -20,-19 -4,-5 -8,-10 -12,-15 -4,-5 -9,-10 -13,-15 l -56,48 c 4,4 6,7 7,8 2,2 3,3 4,4 1,1 2,3 3,4 1,2 3,5 6,9 8,11 12,21 12,30 1,9 -1,18 -5,25 -4,8 -10,16 -17,23 -7,8 -13,15 -20,24 -6,8 -12,17 -17,26 -5,9 -9,19 -13,28 l 64,73 z m -165,-187 305,-271 -61,-68 -305,271 61,68 z"
       inkscape:connector-curvature="0"
       style="fill:#000000;fill-rule:nonzero" /><path
       id="21"
       class="fil5"
       d="m 2826,9228 246,-355 -61,-85 -413,125 61,84 256,-91 c 9,-3 19,-6 27,-10 9,-4 18,-9 27,-13 -20,19 -38,39 -54,61 -15,22 -31,44 -48,66 l -27,-37 -73,25 54,74 -55,73 60,83 z"
       inkscape:connector-curvature="0"
       style="fill:#000000;fill-rule:nonzero" /><path
       id="22"
       class="fil5"
       d="m 3131,9457 218,-125 -46,-81 -214,123 c -10,6 -20,12 -29,17 -9,6 -18,10 -26,12 -9,2 -17,1 -25,-3 -8,-3 -15,-11 -23,-23 l 0,0 -68,39 c 16,25 31,43 45,56 15,13 31,20 47,23 17,2 35,0 54,-6 19,-7 42,-18 67,-32 z m -235,-78 67,-40 c -5,-11 -7,-21 -7,-29 0,-8 3,-15 7,-21 4,-6 10,-12 18,-17 8,-5 17,-10 27,-16 l 224,-129 -46,-80 -224,129 c -24,14 -43,28 -58,41 -15,14 -25,29 -31,45 -6,16 -7,33 -3,52 4,19 12,41 26,65 z"
       inkscape:connector-curvature="0"
       style="fill:#000000;fill-rule:nonzero" /><path
       id="23"
       class="fil5"
       d="m 3336,9827 c 23,-9 43,-20 61,-34 18,-13 32,-28 44,-46 11,-17 19,-36 24,-58 5,-21 5,-45 2,-69 -1,-6 -2,-10 -2,-12 0,-2 0,-4 0,-6 -1,-2 -1,-4 -2,-6 -1,-2 -2,-6 -4,-11 l -11,-28 0,0 -72,28 c 2,4 3,6 3,7 0,0 0,1 0,1 0,0 0,0 0,1 0,1 1,3 2,7 6,18 8,34 6,48 -1,14 -6,26 -14,37 -7,11 -17,20 -30,28 -13,8 -27,16 -43,22 -20,8 -37,14 -53,20 -15,6 -29,8 -41,7 -12,0 -23,-5 -32,-14 -10,-9 -18,-24 -27,-46 -1,-4 -3,-8 -4,-12 -2,-4 -3,-8 -5,-12 l -71,27 c 11,25 20,46 29,63 8,17 19,31 31,43 13,11 28,19 47,24 19,5 43,8 73,9 15,0 30,-2 45,-5 15,-3 30,-7 44,-13 z m -285,-162 380,-149 -33,-85 -380,149 33,85 z"
       inkscape:connector-curvature="0"
       style="fill:#000000;fill-rule:nonzero" /><path
       id="24"
       class="fil5"
       d="m 3561,10134 73,-21 -45,-155 -73,21 45,155 z m -152,28 70,-20 -41,-141 -70,21 41,140 z m -166,69 73,-21 -47,-159 -73,21 47,159 z m -59,-202 392,-115 -25,-87 -393,115 26,87 z"
       inkscape:connector-curvature="0"
       style="fill:#000000;fill-rule:nonzero" /><path
       id="25"
       class="fil5"
       d="m 3305,10603 c 10,-8 19,-16 29,-22 10,-6 21,-11 33,-15 10,-4 21,-8 33,-11 12,-4 24,-8 35,-13 11,-5 21,-12 30,-19 8,-8 14,-18 17,-30 0,-2 1,-4 1,-6 1,-2 1,-4 2,-6 2,11 6,21 13,28 8,8 17,15 27,19 10,5 21,8 32,10 12,1 23,1 33,0 20,-4 37,-9 50,-16 13,-7 23,-16 30,-26 8,-9 12,-21 14,-33 3,-13 3,-26 3,-40 0,-13 -2,-28 -5,-42 -2,-15 -5,-30 -7,-45 l -76,12 0,2 c 1,7 3,14 4,21 2,7 3,14 4,22 2,8 2,15 2,21 0,7 -1,13 -3,17 -3,5 -7,9 -13,12 -6,3 -14,6 -25,7 -13,3 -24,3 -32,3 -8,-1 -15,-3 -20,-6 -5,-4 -8,-9 -11,-16 -2,-7 -4,-16 -6,-27 -1,-6 -2,-13 -3,-19 -1,-6 -2,-13 -3,-19 l -72,10 c 0,5 1,9 1,11 1,2 1,4 1,5 0,1 0,3 0,5 0,2 0,6 1,11 0,13 -1,24 -6,32 -4,8 -10,14 -18,18 -7,5 -16,8 -26,11 -10,2 -20,5 -30,9 -10,3 -19,8 -28,13 -9,5 -18,10 -27,16 l 16,96 z m -40,-246 403,-65 -14,-90 -404,65 15,90 z"
       inkscape:connector-curvature="0"
       style="fill:#000000;fill-rule:nonzero" /><path
       id="26"
       class="fil5"
       d="m 3623,10934 c 5,-2 11,-3 17,-4 5,-1 11,-3 16,-5 30,-10 52,-27 65,-51 13,-24 20,-51 19,-82 l 0,-8 -74,6 c -1,11 -2,19 -4,25 -2,6 -5,11 -10,14 -4,4 -10,7 -17,9 -7,2 -16,4 -26,6 l 14,90 z m -173,20 c 22,-1 41,-6 55,-14 15,-8 27,-18 36,-30 8,-13 15,-26 20,-41 4,-14 8,-29 10,-45 2,-15 4,-30 6,-44 1,-15 3,-28 6,-40 3,-11 7,-21 13,-28 5,-8 13,-12 24,-12 8,-1 15,0 20,2 6,2 10,6 13,10 3,4 6,9 7,15 2,6 3,12 3,19 l 73,-6 0,-4 c -1,-19 -5,-38 -11,-54 -6,-17 -14,-31 -25,-43 -10,-11 -24,-20 -40,-26 -16,-5 -36,-8 -58,-6 -20,2 -37,7 -50,15 -13,8 -23,17 -31,29 -8,12 -13,26 -18,40 -4,15 -7,30 -9,45 -3,16 -5,31 -7,45 -2,15 -5,28 -8,39 -3,12 -8,21 -14,29 -6,7 -15,11 -26,12 -9,1 -16,0 -21,-3 -6,-2 -11,-6 -14,-10 -4,-5 -7,-11 -9,-17 -2,-6 -3,-12 -4,-19 l -76,6 c 0,6 1,11 2,15 1,4 1,8 2,11 1,4 2,8 4,11 1,4 2,9 4,14 5,12 11,24 19,35 8,11 18,21 28,28 11,8 23,14 36,18 12,4 26,6 40,4 z m -140,-180 76,-6 c 1,-13 2,-23 3,-31 2,-7 5,-13 10,-17 5,-5 11,-8 19,-11 8,-3 18,-7 31,-11 l -12,-91 c -43,5 -74,18 -95,39 -21,21 -32,52 -33,93 0,6 0,12 0,18 1,6 1,12 1,17 z"
       inkscape:connector-curvature="0"
       style="fill:#000000;fill-rule:nonzero" /><circle
       class="fil4"
       cy="11000"
       r="3898"
       id="circle3775"
       cx="0"
       style="fill:none" /><path
       class="fil6"
       d="m -3200,12986 357,-253 89,124 c 22,32 35,57 38,75 4,18 0,37 -9,57 -10,20 -26,38 -48,54 -28,20 -55,29 -81,27 -27,-1 -51,-12 -73,-34 0,19 -3,37 -8,53 -5,16 -16,41 -34,75 l -44,85 -50,-71 47,-98 c 17,-35 28,-58 31,-68 3,-11 4,-20 2,-28 -2,-8 -7,-19 -17,-33 l -9,-12 -149,106 -42,-59 z m 248,-87 31,44 c 19,26 32,43 40,48 8,6 16,8 27,8 10,-1 21,-5 33,-14 12,-8 19,-16 23,-26 4,-9 4,-19 1,-28 -2,-7 -13,-24 -31,-50 l -33,-47 -91,65 z m 215,682 -51,-59 55,-88 -95,-109 -94,42 -50,-58 422,-181 50,59 -237,394 z m 44,-213 90,-144 -154,69 64,75 z m 34,290 302,-317 51,48 -95,314 201,-212 49,46 -302,317 -52,-50 92,-306 -197,206 -49,-46 z m 547,255 43,-60 128,91 -101,142 c -24,6 -51,6 -82,0 -32,-6 -59,-17 -83,-34 -29,-21 -49,-46 -61,-76 -12,-29 -15,-63 -7,-101 7,-37 24,-75 51,-113 28,-39 59,-68 91,-87 33,-18 65,-27 96,-26 30,1 60,12 89,32 35,25 57,54 65,86 8,33 3,69 -15,108 l -68,-28 c 8,-22 10,-41 6,-60 -5,-18 -16,-32 -32,-44 -25,-18 -52,-23 -82,-14 -29,8 -58,32 -86,72 -31,43 -46,82 -45,116 1,30 14,53 38,71 12,8 26,14 42,17 16,4 33,4 49,2 l 32,-45 -68,-49 z m 150,295 219,-379 230,133 -37,64 -168,-97 -48,84 156,90 -37,64 -156,-90 -59,103 173,100 -37,64 -236,-136 z m 355,191 181,-398 139,63 c 36,16 59,31 71,45 12,14 19,32 21,54 2,22 -3,46 -14,70 -14,32 -33,53 -57,66 -23,12 -50,14 -80,7 10,16 16,33 20,49 4,16 7,43 9,82 l 4,96 -79,-36 -8,-109 c -3,-39 -6,-64 -9,-74 -2,-11 -6,-19 -12,-26 -5,-6 -16,-12 -31,-19 l -13,-6 -76,166 -66,-30 z m 170,-200 49,22 c 30,14 50,21 59,22 10,2 19,-1 27,-6 9,-6 16,-16 22,-29 6,-13 8,-24 7,-34 -2,-10 -6,-18 -14,-25 -5,-5 -22,-14 -52,-28 l -52,-23 -46,101 z m 250,225 70,10 c -8,56 10,90 52,102 22,6 40,5 55,-2 15,-8 25,-20 30,-36 2,-9 2,-18 0,-26 -2,-8 -7,-15 -15,-22 -7,-7 -26,-20 -56,-39 -27,-18 -46,-34 -57,-48 -11,-14 -18,-31 -21,-51 -4,-19 -3,-39 3,-58 6,-23 17,-43 33,-58 16,-15 34,-25 55,-29 21,-4 45,-3 72,5 41,11 70,31 86,60 17,28 20,63 10,105 l -71,-17 c 3,-23 1,-41 -7,-52 -7,-12 -21,-21 -39,-26 -19,-5 -35,-6 -47,-1 -13,5 -20,13 -24,25 -3,11 -1,22 6,32 7,11 26,26 56,44 33,21 55,38 67,54 13,16 21,34 24,53 3,21 1,43 -6,68 -10,37 -30,65 -60,83 -29,19 -68,21 -116,8 -84,-24 -118,-86 -100,-184 z m 575,287 55,-430 72,9 -46,357 179,23 -10,73 -250,-32 z m 372,43 10,-438 266,6 -2,74 -193,-4 -3,96 181,5 -2,74 -180,-5 -3,119 200,5 -1,74 -273,-6 z m 726,-21 -78,6 -38,-97 -144,11 -22,101 -77,6 106,-447 77,-6 176,426 z m -145,-163 -62,-158 -36,166 98,-8 z m 175,-288 130,-23 c 33,-6 59,-7 77,-2 18,4 35,14 52,29 18,15 33,35 46,62 13,26 23,60 30,101 7,38 8,71 4,100 -3,29 -10,52 -20,71 -10,18 -24,33 -40,44 -17,12 -40,20 -69,25 l -134,24 -76,-431 z m 84,60 50,285 54,-9 c 23,-4 39,-9 49,-15 9,-7 17,-15 22,-24 5,-10 8,-25 9,-45 1,-19 -2,-44 -7,-75 -6,-32 -12,-57 -20,-74 -8,-18 -17,-31 -28,-40 -12,-9 -24,-14 -38,-15 -10,-1 -30,1 -59,6 l -32,6 z m 690,191 -134,-338 -99,39 -27,-69 265,-104 27,68 -99,39 134,339 -67,26 z m 274,-110 -200,-389 64,-33 79,153 126,-65 -79,-153 64,-33 201,389 -64,33 -88,-170 -126,65 87,170 -64,33 z m 380,-204 -237,-368 224,-144 40,62 -163,105 52,81 152,-97 40,62 -152,98 65,100 168,-109 40,63 -229,147 z m 536,-390 -364,-257 53,-51 247,180 -161,-262 62,-59 258,177 -172,-259 52,-50 241,375 -56,54 -278,-187 175,285 -57,54 z m 539,-574 -51,60 -95,-42 -95,109 56,87 -51,58 -239,-391 50,-59 425,178 z m -218,-13 -155,-68 91,143 64,-75 z m 303,-119 -156,-99 -283,-25 45,-71 190,21 -100,-162 45,-71 143,247 155,100 -39,60 z"
       id="path3777"
       inkscape:connector-curvature="0"
       style="fill:#333333;fill-rule:nonzero" /><circle
       class="fil4"
       cy="11000"
       r="3898"
       id="circle3779"
       cx="0"
       style="fill:none" /><path
       class="fil5"
       d="m -3334,9478 -35,-16 -14,31 -35,-15 4,57 10,5 -10,23 36,15 10,-22 84,38 c 15,7 29,8 39,5 10,-4 19,-14 26,-30 3,-5 5,-11 7,-16 2,-6 4,-12 6,-17 l -37,-16 c 0,2 -1,4 -2,7 -1,2 -2,5 -3,7 -3,7 -6,10 -11,11 -4,1 -9,0 -15,-3 l -73,-33 13,-31 z"
       id="path3781"
       inkscape:connector-curvature="0"
       style="fill:#000000;fill-rule:nonzero" /><path
       id="path3783"
       class="fil5"
       d="m -3118,9364 -103,-54 c -8,-5 -16,-8 -25,-10 -8,-2 -16,-2 -23,-1 -8,2 -15,5 -21,10 -7,5 -13,12 -17,21 -3,5 -5,11 -5,16 -1,5 -1,9 0,12 1,3 1,4 1,5 l 35,18 c 0,0 0,-1 -1,-3 0,-1 -1,-3 -1,-6 -1,-2 0,-4 0,-6 3,-5 6,-9 10,-11 3,-2 7,-3 11,-3 4,0 8,1 12,2 4,2 8,4 13,6 l 91,48 23,-44 z m -52,98 -206,-109 -23,44 206,109 23,-44 z"
       inkscape:connector-curvature="0"
       style="fill:#000000;fill-rule:nonzero" /><g
       id="_845595040"><path
         class="fil2"
         d="m 1388,7654 -119,310 -160,-61 119,-310 -113,-43 56,-146 387,149 -56,145 -114,-44 z m -1882,-242 55,328 -169,29 -55,-328 -120,21 -26,-154 409,-69 26,153 -120,20 z"
         id="path3786"
         inkscape:connector-curvature="0"
         style="fill:#ffd600" /><path
         class="fil0"
         d="m 1166,7527 27,-72 314,121 -27,71 -314,-120 z m -1929,-187 12,76 332,-57 -13,-75 -331,56 z m 279,368 -49,-291 -92,16 49,290 92,-15 z m 1730,205 106,-274 -86,-33 -106,274 86,33 z"
         id="path3788"
         inkscape:connector-curvature="0"
         style="fill:#000000" /></g></g></svg>