<?xml version="1.0" encoding="UTF-8" standalone="no"?>
<!-- Creator: CorelDRAW X7 -->

<svg
   xmlns:dc="http://purl.org/dc/elements/1.1/"
   xmlns:cc="http://creativecommons.org/ns#"
   xmlns:rdf="http://www.w3.org/1999/02/22-rdf-syntax-ns#"
   xmlns:svg="http://www.w3.org/2000/svg"
   xmlns="http://www.w3.org/2000/svg"
   xmlns:sodipodi="http://sodipodi.sourceforge.net/DTD/sodipodi-0.dtd"
   xmlns:inkscape="http://www.inkscape.org/namespaces/inkscape"
   xml:space="preserve"
   width="7.8740005in"
   height="7.8740005in"
   version="1.1"
   style="clip-rule:evenodd;fill-rule:evenodd;image-rendering:optimizeQuality;shape-rendering:geometricPrecision;text-rendering:geometricPrecision"
   viewBox="0 0 7874.0005 7874.0005"
   id="svg2"
   inkscape:version="0.91 r13725"
   sodipodi:docname="Ariadna - 112 Emergency Service - [N3] [Vyo].svg"><metadata
     id="metadata38"><rdf:RDF><cc:Work
         rdf:about=""><dc:format>image/svg+xml</dc:format><dc:type
           rdf:resource="http://purl.org/dc/dcmitype/StillImage" /></cc:Work></rdf:RDF></metadata><sodipodi:namedview
     pagecolor="#ffffff"
     bordercolor="#666666"
     borderopacity="1"
     objecttolerance="10"
     gridtolerance="10"
     guidetolerance="10"
     inkscape:pageopacity="0"
     inkscape:pageshadow="2"
     inkscape:window-width="640"
     inkscape:window-height="480"
     id="namedview36"
     showgrid="false"
     inkscape:zoom="0.23838384"
     inkscape:cx="736.83001"
     inkscape:cy="849.33005"
     inkscape:window-x="0"
     inkscape:window-y="0"
     inkscape:window-maximized="0"
     inkscape:current-layer="svg2" /><defs
     id="defs4"><style
       type="text/css"
       id="style6"><![CDATA[
    .fil4 {fill:none}
    .fil0 {fill:black}
    .fil6 {fill:#015385}
    .fil1 {fill:#FFCC00}
    .fil2 {fill:#FFD600}
    .fil3 {fill:white}
    .fil5 {fill:white;fill-rule:nonzero}
   ]]></style></defs><g
     id="Layer_x0020_1"
     transform="translate(3937,-7063)"><metadata
       id="CorelCorpID_0Corel-Layer" /><circle
       class="fil0"
       cy="11000"
       r="3937"
       id="circle10"
       cx="0"
       style="fill:#000000" /><circle
       class="fil1"
       cy="11000"
       r="3780"
       id="circle12"
       cx="0"
       style="fill:#ffcc00" /><circle
       class="fil0"
       cy="11000"
       r="3661"
       id="circle14"
       cx="0"
       style="fill:#000000" /><circle
       class="fil2"
       cy="11000"
       r="2874"
       id="circle16"
       cx="0"
       style="fill:#ffd600" /><circle
       class="fil3"
       cy="11000"
       r="2756"
       id="circle18"
       cx="0"
       style="fill:#ffffff" /><circle
       class="fil4"
       cy="11000"
       r="3898"
       id="circle20"
       cx="0"
       style="fill:none" /><path
       class="fil5"
       d="m -1778,13456 -298,382 -191,-150 35,-45 150,118 82,-105 -140,-110 35,-45 140,110 111,-142 -150,-118 35,-45 191,150 z m -473,-417 37,35 -286,304 268,-137 23,21 -122,276 287,-304 34,33 -332,352 -51,-48 115,-263 -253,133 -53,-49 333,-353 z m -49,-63 -382,299 -149,-192 45,-35 117,150 105,-81 -110,-141 45,-35 110,140 142,-110 -118,-151 46,-35 149,191 z m -345,-489 36,56 -94,208 32,49 161,-105 29,43 -406,265 -55,-84 c -12,-19 -21,-35 -27,-49 -5,-14 -7,-30 -5,-48 1,-17 7,-33 17,-49 10,-17 26,-31 47,-45 30,-20 59,-30 87,-31 28,-1 53,6 76,20 l 102,-230 z m -231,283 c -12,8 -21,16 -28,25 -7,10 -11,20 -12,31 -1,9 0,18 3,28 3,9 9,20 17,32 l 27,43 153,-100 -25,-37 c -8,-13 -17,-23 -26,-31 -9,-8 -20,-13 -33,-14 -12,-2 -24,0 -36,3 -13,4 -26,11 -40,20 z m 153,-461 c 13,24 20,49 22,74 2,25 -3,50 -14,74 -11,24 -28,48 -52,71 -24,23 -54,44 -90,64 -34,18 -67,31 -99,38 -31,7 -60,9 -87,5 -27,-4 -50,-13 -71,-28 -22,-15 -39,-34 -52,-58 -6,-12 -11,-23 -14,-35 -4,-11 -7,-23 -8,-35 -2,-9 -2,-19 -2,-32 0,-12 0,-22 0,-29 l 69,-37 2,3 c -3,9 -6,19 -8,28 -3,9 -4,20 -5,35 0,12 1,25 3,39 3,14 8,28 15,41 18,33 48,51 90,55 42,3 88,-9 139,-37 29,-15 53,-32 71,-48 19,-17 32,-35 42,-53 9,-18 14,-35 14,-53 1,-18 -4,-36 -13,-53 -7,-13 -15,-25 -24,-36 -9,-12 -19,-21 -28,-27 l -109,60 42,78 -50,27 -67,-123 186,-101 c 6,4 15,9 25,16 10,7 19,14 26,21 10,9 19,17 26,25 7,8 14,18 21,31 z m -96,-169 -463,142 -72,-231 55,-17 56,182 127,-39 -52,-170 54,-17 53,170 172,-53 -56,-182 54,-17 72,232 z m -156,-555 13,56 -369,261 408,-94 10,47 -472,109 -16,-71 339,-238 -374,86 -11,-47 472,-109 z m -25,-229 c 4,25 2,49 -5,71 -8,23 -21,43 -40,62 -18,18 -43,33 -73,46 -30,13 -65,22 -105,28 -40,6 -76,7 -107,3 -31,-4 -59,-12 -83,-25 -24,-12 -43,-28 -57,-47 -14,-20 -23,-42 -27,-68 -2,-13 -2,-26 -1,-37 0,-12 2,-23 4,-33 2,-8 5,-18 9,-27 3,-9 7,-19 12,-28 l 77,-11 1,4 c -5,6 -10,12 -16,20 -7,8 -12,18 -18,29 -5,11 -9,22 -11,34 -3,12 -3,26 -1,41 2,16 8,31 19,45 10,13 24,24 42,33 18,8 40,14 65,16 26,3 54,2 84,-2 33,-5 61,-12 84,-22 22,-10 41,-21 56,-34 14,-13 24,-27 30,-43 6,-16 8,-31 6,-48 -2,-14 -6,-28 -13,-40 -6,-11 -13,-22 -21,-31 -8,-8 -16,-15 -24,-21 -8,-6 -15,-11 -20,-14 l -1,-4 76,-11 c 6,8 12,15 18,22 5,7 11,15 17,26 6,10 11,20 15,29 3,9 6,22 8,37 z m -514,-433 272,128 214,-2 1,52 -208,2 -275,134 -1,-57 213,-103 -215,-99 -1,-55 z m 519,-313 c -4,27 -11,51 -21,69 -10,18 -22,36 -34,51 l -81,-11 1,-4 c 22,-14 40,-31 54,-50 14,-20 22,-40 25,-60 4,-28 -1,-50 -13,-66 -13,-17 -31,-27 -55,-30 -19,-3 -35,-1 -48,4 -13,6 -24,17 -32,33 -6,11 -11,21 -15,31 -4,9 -10,21 -17,35 -6,12 -13,24 -21,33 -8,10 -18,18 -30,24 -12,7 -25,11 -40,13 -15,3 -32,3 -50,0 -39,-6 -70,-22 -93,-50 -23,-28 -32,-61 -26,-99 3,-21 8,-41 16,-60 8,-18 19,-35 31,-50 l 76,11 0,4 c -16,10 -30,24 -43,42 -13,17 -21,37 -24,58 -4,23 0,43 12,60 12,17 29,26 52,30 20,2 37,0 50,-6 13,-7 24,-18 31,-34 6,-10 12,-23 19,-38 6,-15 12,-27 18,-37 14,-25 32,-42 54,-51 22,-10 48,-12 78,-8 18,3 36,8 54,17 17,9 31,19 43,32 12,15 20,30 26,47 5,16 6,36 3,60 z m 18,-189 -473,-107 54,-236 56,12 -42,187 129,29 39,-174 56,13 -39,173 176,40 42,-186 55,12 -53,237 z m 171,-573 -23,62 -223,50 -20,55 181,66 -17,49 -456,-166 34,-94 c 8,-21 16,-38 24,-51 8,-13 19,-24 34,-33 15,-9 32,-14 51,-16 19,-1 40,2 64,11 33,12 59,29 76,51 18,21 28,46 30,73 l 245,-57 z m -365,-15 c -13,-5 -25,-7 -37,-7 -12,0 -22,3 -31,8 -9,5 -16,12 -21,20 -6,8 -11,19 -16,33 l -17,47 171,63 15,-43 c 5,-14 8,-27 9,-39 1,-12 -2,-24 -8,-35 -6,-10 -15,-19 -25,-27 -11,-7 -24,-14 -40,-20 z m 56,-472 384,324 -24,51 -496,-83 23,-49 411,71 -320,-267 22,-47 z m 531,56 -75,131 -43,-24 25,-43 -336,-191 -24,43 -43,-24 74,-132 43,25 -24,43 335,191 25,-43 43,24 z m 126,-174 c -15,21 -32,37 -53,48 -21,12 -44,18 -70,19 -27,1 -55,-4 -86,-15 -31,-11 -63,-28 -96,-51 -34,-23 -61,-46 -81,-70 -20,-24 -35,-48 -44,-74 -9,-25 -13,-50 -10,-73 2,-24 11,-47 26,-69 7,-11 15,-20 24,-28 8,-8 17,-15 25,-21 7,-5 16,-10 25,-14 9,-5 18,-9 28,-12 l 64,43 -3,4 c -6,1 -15,2 -25,4 -10,2 -21,5 -32,9 -11,5 -22,10 -32,18 -10,7 -19,17 -28,29 -9,14 -15,29 -16,46 -1,17 1,35 9,53 7,18 19,37 36,56 17,19 39,38 64,55 28,19 53,32 76,41 24,8 45,12 65,12 19,0 36,-3 51,-11 15,-7 27,-18 37,-31 8,-12 14,-25 17,-38 4,-13 5,-26 5,-38 0,-12 -1,-22 -3,-32 -2,-10 -3,-17 -5,-24 l 2,-3 63,44 c 0,10 -1,19 -1,28 -1,9 -2,19 -5,30 -3,12 -6,22 -9,32 -4,9 -10,20 -18,33 z m 91,-142 -362,-322 162,-182 43,38 -127,143 99,88 118,-133 43,38 -118,133 134,120 127,-143 43,39 -162,181 z m 285,-291 c -21,20 -41,33 -60,41 -19,9 -39,15 -59,19 l -55,-59 2,-3 c 26,3 51,1 74,-5 23,-7 42,-17 57,-31 20,-19 31,-39 31,-60 1,-21 -7,-40 -24,-58 -13,-14 -27,-23 -40,-26 -14,-4 -29,-2 -45,5 -12,5 -22,10 -32,15 -9,4 -20,10 -35,17 -12,6 -25,10 -37,12 -12,3 -25,3 -39,0 -13,-2 -26,-7 -39,-14 -13,-8 -26,-18 -39,-32 -27,-29 -40,-61 -41,-97 0,-36 14,-68 41,-94 16,-14 33,-27 51,-36 18,-9 36,-16 55,-20 l 53,57 -3,2 c -19,-2 -39,0 -60,6 -21,5 -39,15 -55,30 -17,16 -26,35 -28,55 -1,20 6,38 22,55 14,15 28,24 43,27 14,3 30,1 45,-6 11,-5 24,-11 38,-19 15,-7 27,-13 38,-17 26,-11 51,-13 74,-7 23,7 45,21 66,43 12,14 23,30 31,47 8,18 13,35 13,52 1,19 -2,36 -8,53 -6,16 -18,32 -35,48 z m 393,-316 c -20,14 -43,23 -66,26 -24,4 -48,1 -73,-7 -24,-9 -49,-23 -74,-44 -25,-21 -49,-49 -72,-82 -23,-33 -40,-65 -51,-94 -10,-30 -15,-58 -15,-86 0,-26 6,-50 17,-72 11,-21 27,-39 49,-54 10,-8 21,-14 32,-18 10,-5 21,-8 31,-11 9,-2 18,-3 28,-4 10,-1 20,-2 30,-2 l 45,64 -4,2 c -6,-1 -15,-3 -25,-5 -10,-2 -21,-3 -33,-3 -12,0 -24,2 -36,5 -12,3 -24,9 -37,18 -13,9 -24,22 -31,37 -7,15 -11,33 -11,53 1,20 6,41 15,65 9,24 22,49 40,74 19,28 38,49 57,65 19,16 37,28 56,35 18,7 35,9 52,8 16,-2 31,-7 45,-17 12,-8 22,-18 30,-29 8,-11 14,-22 18,-33 4,-11 7,-22 8,-31 2,-10 3,-18 3,-24 l 4,-3 44,63 c -5,9 -8,18 -12,26 -4,8 -9,17 -15,27 -7,10 -13,19 -20,26 -6,8 -16,16 -29,25 z m 388,-238 -57,32 -228,-128 -28,16 108,194 -45,25 -236,-423 45,-25 106,191 c 18,-11 29,-24 33,-41 5,-16 5,-36 1,-59 -3,-10 -5,-19 -7,-28 -2,-9 -4,-17 -5,-23 -9,-37 -10,-66 -3,-86 8,-20 24,-37 49,-51 l 14,-8 28,50 -12,6 c -18,11 -29,23 -31,36 -2,13 0,34 8,62 8,29 11,51 10,67 -2,16 -5,32 -11,47 l 261,146 z m 122,-516 c 22,14 42,34 62,60 19,26 37,57 52,95 15,36 25,70 30,103 4,32 4,61 -2,87 -6,27 -17,49 -32,67 -16,18 -35,32 -59,41 -24,10 -48,14 -71,12 -24,-2 -47,-10 -69,-25 -23,-14 -43,-34 -63,-60 -19,-26 -36,-58 -51,-94 -16,-38 -26,-73 -30,-104 -4,-32 -4,-61 2,-87 5,-25 16,-47 31,-66 15,-18 35,-32 59,-42 24,-10 49,-14 73,-11 24,2 46,10 68,24 z m 64,175 c -12,-29 -25,-54 -40,-75 -14,-21 -29,-37 -45,-48 -16,-11 -32,-18 -48,-20 -17,-3 -34,0 -50,7 -18,7 -31,17 -41,30 -10,12 -17,29 -20,49 -3,19 -3,41 2,66 4,25 12,52 24,81 25,59 53,100 86,123 32,23 65,27 98,14 34,-14 54,-41 60,-80 7,-39 -1,-88 -26,-147 z m 338,-200 c 6,20 8,40 8,60 -1,19 -4,37 -10,53 -9,19 -20,36 -35,49 -15,13 -35,23 -62,31 l -42,12 51,174 -49,14 -137,-465 93,-27 c 22,-6 42,-10 58,-10 17,0 33,4 48,11 17,7 32,19 46,35 13,16 23,37 31,63 z m -52,16 c -4,-15 -11,-29 -18,-39 -8,-11 -18,-18 -29,-23 -10,-4 -20,-6 -31,-6 -11,1 -24,3 -40,8 l -41,12 55,184 33,-10 c 20,-6 35,-13 46,-20 11,-8 20,-18 25,-31 4,-11 7,-23 7,-35 0,-12 -2,-25 -7,-40 z m 155,307 51,-499 63,-11 207,458 -54,8 -56,-127 -147,24 -13,139 -51,8 z m 187,-224 -95,-215 -22,234 117,-19 z m 417,150 -52,4 -15,-193 -58,5 -100,201 -62,4 108,-211 c -26,-9 -48,-24 -64,-46 -16,-22 -25,-53 -28,-91 -2,-25 0,-47 7,-65 7,-19 17,-34 29,-47 12,-12 26,-21 42,-26 16,-6 34,-9 54,-11 l 102,-8 37,484 z m -71,-242 -13,-182 -54,4 c -15,1 -27,3 -35,6 -9,3 -17,8 -24,15 -8,8 -13,17 -17,30 -3,12 -4,25 -3,40 1,17 4,31 8,43 4,11 10,20 17,29 9,9 19,14 30,17 12,2 25,3 40,2 l 51,-4 z m 596,280 -51,-7 59,-424 -175,-24 -60,423 -52,-8 68,-479 279,39 -68,480 z m 441,-350 c 10,23 15,52 16,84 1,33 -3,69 -12,108 -8,38 -20,72 -35,101 -15,29 -32,53 -51,70 -21,19 -42,31 -65,37 -23,6 -47,6 -72,0 -25,-6 -47,-16 -65,-32 -18,-15 -33,-35 -42,-60 -10,-24 -16,-52 -17,-85 0,-32 4,-68 12,-107 9,-39 21,-73 36,-102 14,-28 31,-51 51,-70 19,-17 40,-29 63,-35 24,-7 48,-7 73,-1 26,6 48,17 66,32 18,16 32,36 42,60 z m -48,180 c 7,-31 10,-59 10,-85 0,-25 -3,-47 -9,-65 -6,-18 -16,-33 -28,-45 -12,-11 -27,-19 -45,-22 -18,-5 -35,-4 -50,1 -16,4 -31,14 -45,28 -14,14 -26,33 -37,56 -10,23 -19,50 -26,80 -14,62 -14,112 -1,149 13,38 38,61 73,69 35,7 66,-3 95,-31 28,-28 49,-73 63,-135 z m 364,383 -49,-18 148,-391 -195,230 -29,-11 7,-301 -148,390 -45,-17 172,-453 65,25 -5,287 183,-220 67,26 -171,453 z m 514,-217 c 3,25 1,54 -6,85 -8,32 -21,66 -40,101 -18,35 -38,65 -60,89 -22,24 -45,42 -68,54 -25,13 -49,19 -72,18 -24,0 -47,-6 -70,-18 -23,-12 -41,-28 -55,-48 -13,-19 -21,-42 -24,-69 -4,-26 -1,-55 6,-86 8,-32 21,-65 40,-100 19,-36 39,-66 60,-89 22,-24 45,-42 68,-54 23,-12 47,-18 71,-18 24,0 47,6 70,18 24,12 42,28 55,48 14,21 22,43 25,69 z m -93,161 c 15,-28 25,-54 32,-79 7,-24 9,-46 8,-65 -1,-20 -6,-36 -15,-51 -9,-14 -22,-25 -38,-33 -16,-9 -33,-13 -49,-13 -16,1 -33,6 -50,16 -17,10 -34,25 -50,44 -17,20 -32,43 -47,71 -29,56 -43,104 -40,144 4,40 21,68 53,85 32,16 65,15 99,-5 35,-20 67,-58 97,-114 z m 300,622 -41,-27 62,-91 -340,-234 274,-399 43,29 -243,353 111,77 243,-354 43,30 -243,353 111,76 243,-353 43,29 -243,354 30,20 -93,137 z m 381,27 c -16,17 -33,30 -51,39 -19,9 -37,13 -54,13 -20,1 -38,-2 -55,-9 -16,-7 -34,-20 -53,-38 l -80,-75 332,-353 38,35 -130,139 43,41 c 19,18 34,34 43,48 10,14 15,31 16,52 1,18 -3,37 -11,55 -9,18 -21,35 -38,53 z m -40,-36 c 12,-12 20,-24 25,-36 5,-12 7,-24 6,-35 -2,-13 -6,-24 -14,-34 -8,-9 -20,-22 -37,-38 l -32,-29 -125,133 31,28 c 17,16 31,27 42,34 10,6 22,10 34,10 13,1 25,-1 36,-7 11,-5 23,-14 34,-26 z m 136,401 c -17,-22 -29,-43 -35,-63 -6,-20 -10,-41 -12,-61 l 64,-49 2,3 c -5,26 -6,50 -2,74 5,24 13,44 25,60 17,22 36,35 57,37 20,3 40,-3 59,-18 16,-11 26,-24 31,-37 5,-14 5,-29 -1,-45 -3,-13 -7,-23 -11,-33 -4,-10 -8,-22 -13,-37 -5,-13 -8,-26 -9,-38 -1,-13 1,-25 4,-38 4,-13 10,-26 19,-38 9,-12 21,-24 36,-36 31,-23 65,-33 101,-30 36,4 65,20 88,51 13,17 23,35 31,54 7,18 12,37 14,57 l -62,46 -2,-3 c 4,-18 4,-38 1,-60 -4,-22 -12,-41 -24,-58 -15,-19 -32,-30 -52,-33 -20,-4 -39,2 -57,15 -17,13 -27,26 -32,40 -4,15 -3,30 2,46 4,11 8,24 14,40 6,15 11,28 14,39 8,27 7,52 -2,74 -9,23 -25,43 -49,61 -15,12 -32,20 -50,27 -19,6 -36,9 -53,7 -19,-1 -36,-6 -52,-14 -15,-7 -30,-21 -44,-40 z m 116,149 406,-265 133,204 -48,31 -105,-160 -111,73 98,149 -48,31 -98,-149 -151,98 105,160 -48,31 -133,-203 z m 284,527 -27,-61 125,-191 -24,-54 -176,79 -21,-47 442,-199 41,91 c 9,20 15,38 18,53 4,15 3,31 -1,48 -4,16 -13,32 -25,46 -13,14 -30,27 -54,37 -32,15 -62,21 -90,17 -27,-3 -52,-14 -72,-32 l -136,213 z m 272,-245 c 13,-6 23,-12 31,-21 9,-8 14,-17 17,-27 3,-10 3,-19 1,-29 -1,-10 -5,-21 -11,-34 l -21,-47 -166,75 19,41 c 6,14 13,25 20,35 8,9 18,15 31,19 11,3 23,3 36,1 13,-1 27,-6 43,-13 z m 292,394 -503,19 -17,-54 422,-273 17,52 -352,225 417,-19 16,50 z m -415,312 -42,-145 47,-14 14,48 370,-109 -14,-48 48,-13 42,144 -47,14 -14,-47 -371,108 14,48 -47,14 z m 27,213 c -4,-25 -3,-49 4,-71 8,-23 20,-44 39,-62 18,-19 42,-35 72,-48 29,-14 64,-24 104,-31 40,-6 76,-8 107,-4 31,3 59,11 84,23 23,11 43,27 57,46 15,19 24,41 29,67 2,13 2,25 2,37 -1,12 -2,22 -4,33 -2,8 -4,18 -8,27 -3,9 -7,19 -12,28 l -76,13 -1,-4 c 4,-6 10,-12 16,-21 6,-8 11,-18 17,-29 4,-11 8,-22 10,-34 3,-12 3,-26 0,-41 -2,-16 -9,-31 -20,-44 -10,-14 -25,-24 -43,-33 -18,-8 -39,-13 -65,-15 -25,-2 -54,0 -84,5 -33,5 -61,13 -83,23 -23,10 -41,22 -55,36 -15,13 -24,27 -30,43 -6,16 -7,32 -5,48 3,14 7,28 14,39 6,12 14,22 22,31 8,8 17,15 25,21 8,6 14,10 20,13 l 1,4 -76,13 c -7,-8 -13,-15 -18,-22 -6,-7 -12,-15 -18,-25 -6,-10 -11,-20 -15,-29 -4,-9 -7,-21 -10,-37 z m 32,166 484,-36 18,242 -57,4 -15,-190 -132,10 14,177 -58,4 -13,-177 -180,13 15,191 -57,4 -19,-242 z m 230,788 c -44,-3 -83,-13 -118,-30 -34,-17 -60,-39 -78,-64 -14,-21 -23,-41 -27,-62 -4,-20 -4,-46 -2,-77 l 7,-89 483,36 -6,88 c -3,36 -9,65 -17,85 -9,20 -19,37 -32,50 -23,24 -51,41 -86,52 -36,11 -77,15 -124,11 z m 5,-54 c 37,3 69,1 96,-7 27,-8 49,-21 65,-39 11,-13 20,-27 25,-42 6,-15 10,-34 12,-57 l 2,-39 -371,-29 -3,39 c -2,23 -1,43 2,61 3,17 11,33 22,48 14,19 33,34 57,45 25,11 56,18 93,20 z m 228,217 -184,-41 5,-35 188,19 -9,57 z m -551,114 c 5,-22 13,-40 24,-55 11,-15 25,-27 42,-35 19,-10 41,-15 65,-15 25,0 54,3 87,11 l 295,67 -11,50 -295,-66 c -21,-5 -40,-8 -55,-9 -16,-2 -30,0 -43,3 -14,4 -26,11 -35,21 -9,11 -16,24 -20,41 -3,15 -3,30 1,44 4,13 11,25 22,35 11,9 23,16 37,22 14,5 32,10 53,15 l 296,67 -12,50 -295,-66 c -32,-8 -60,-17 -82,-27 -23,-11 -40,-25 -54,-42 -11,-15 -19,-32 -23,-49 -3,-18 -3,-38 3,-62 z m -158,489 24,-63 223,-46 21,-55 -180,-68 18,-49 454,172 -36,93 c -8,21 -16,38 -24,51 -8,13 -20,24 -35,32 -15,9 -32,14 -50,16 -19,1 -41,-3 -64,-12 -34,-13 -59,-30 -76,-52 -17,-22 -27,-46 -29,-74 l -246,55 z m 365,19 c 13,5 25,7 37,8 12,0 22,-3 32,-8 8,-5 15,-11 20,-20 6,-8 12,-19 17,-32 l 18,-48 -170,-64 -16,42 c -6,14 -9,27 -10,39 -1,12 2,24 8,35 6,11 14,20 25,27 10,8 23,15 39,21 z m -465,147 c 13,-25 29,-44 49,-60 20,-15 43,-25 70,-29 26,-5 56,-3 88,4 32,7 66,20 102,40 35,18 64,38 87,60 24,22 41,46 53,71 11,23 17,48 16,74 -1,26 -7,51 -20,75 -6,12 -13,22 -21,32 -7,9 -16,18 -24,25 -7,7 -16,13 -26,20 -10,7 -18,12 -25,16 l -69,-37 2,-4 c 10,-2 19,-5 27,-8 9,-3 20,-8 32,-16 11,-6 21,-14 31,-24 10,-10 19,-22 26,-35 18,-33 16,-68 -4,-105 -20,-37 -56,-69 -108,-96 -29,-15 -55,-26 -80,-32 -24,-6 -46,-8 -66,-5 -20,2 -38,7 -53,17 -15,10 -27,24 -36,41 -7,13 -13,26 -17,40 -5,14 -7,26 -7,38 l 110,58 42,-79 51,27 -66,124 -187,-99 c 0,-8 0,-18 0,-30 0,-12 1,-24 2,-34 2,-13 4,-25 7,-35 3,-10 7,-22 14,-34 z m -87,173 411,257 -128,206 -49,-31 101,-161 -112,-71 -94,151 -49,-30 94,-151 -152,-96 -102,162 -48,-30 128,-206 z m -345,460 38,-44 428,143 -317,-273 32,-36 367,316 -48,55 -392,-132 291,250 -31,37 -368,-316 z m -167,158 c 18,-17 38,-30 61,-37 23,-7 47,-9 73,-4 25,4 52,15 80,31 28,17 57,40 85,69 28,29 50,57 65,85 15,27 25,54 29,81 4,27 3,51 -5,74 -7,23 -20,44 -39,62 -9,9 -19,17 -29,23 -9,6 -19,11 -29,15 -8,4 -17,7 -26,10 -10,2 -20,4 -30,6 l -54,-56 3,-3 c 6,1 15,1 25,2 10,0 21,-1 34,-3 11,-2 23,-6 34,-11 11,-5 22,-13 33,-24 12,-11 21,-25 25,-41 5,-17 6,-35 2,-54 -4,-19 -12,-40 -25,-62 -13,-22 -30,-44 -52,-67 -23,-23 -45,-42 -66,-54 -22,-13 -42,-21 -61,-25 -19,-4 -37,-4 -53,0 -16,5 -30,13 -41,24 -11,10 -19,21 -25,34 -6,12 -10,24 -13,35 -2,12 -3,23 -3,33 0,9 0,18 1,24 l -3,3 -54,-56 c 3,-9 5,-18 8,-27 2,-8 5,-18 10,-28 5,-12 10,-21 15,-30 6,-8 14,-18 25,-29 z m -119,120 293,386 -193,147 -35,-45 152,-116 -80,-106 -142,108 -35,-46 142,-107 -109,-144 -152,116 -34,-46 193,-147 z"
       id="path22"
       inkscape:connector-curvature="0"
       style="fill:#ffffff;fill-rule:nonzero" /><path
       class="fil5"
       d="m -817,13835 -311,106 88,146 251,-83 57,15 -118,423 217,60 160,-571 -344,-96 z m 694,111 -274,181 122,119 222,-143 58,1 -8,438 225,4 12,-592 -357,-8 z m 681,179 -5,-20 c -9,-45 -7,-60 11,-71 22,-12 81,-29 216,-60 114,-26 146,-32 167,-32 26,1 37,12 44,44 11,48 1,54 -124,91 -81,25 -140,43 -180,54 -67,20 -104,31 -111,34 -117,38 -162,71 -176,128 -7,32 -2,75 22,176 6,28 8,37 18,65 l 861,-198 -31,-133 -659,152 -1,-6 c -6,-28 -1,-41 24,-56 13,-9 55,-21 354,-107 121,-33 184,-68 207,-112 16,-33 17,-70 1,-137 -22,-95 -48,-130 -105,-142 -53,-12 -92,-5 -386,63 -366,84 -407,116 -366,290 0,3 3,16 7,26 l 212,-49 z"
       id="path24"
       inkscape:connector-curvature="0"
       style="fill:#ffffff;fill-rule:nonzero" /><circle
       class="fil4"
       cy="11000"
       r="3898"
       id="circle26"
       cx="0"
       style="fill:none" /><polygon
       class="fil6"
       points="1833,9214 2463,10305 1260,11000 2463,11695 1833,12786 630,12091 630,13480 -630,13480 -630,12091 -1833,12786 -2463,11695 -1260,11000 -2463,10305 -1833,9214 -630,9909 -630,8520 630,8520 630,9909 "
       id="polygon28"
       style="fill:#015385" /><polygon
       class="fil3"
       points="-59,12929 -138,9071 138,9071 59,12929 "
       id="polygon30"
       style="fill:#ffffff" /><path
       class="fil6"
       d="m -413,12226 c 0,-2 0,-4 0,-6 0,-2 0,-4 0,-7 1,-22 5,-43 13,-64 40,-101 163,-164 255,-210 22,-11 43,-21 65,-32 l 5,244 c -6,3 -12,6 -18,9 -22,12 -47,25 -66,41 -4,3 -17,14 -18,19 0,32 30,64 52,83 41,38 91,70 137,101 50,33 103,68 147,109 40,36 77,83 77,141 l 0,118 c 0,43 -35,78 -79,78 -43,0 -78,-35 -78,-78 l 0,-79 c 0,-31 -45,-64 -67,-80 -55,-38 -119,-69 -177,-102 -107,-60 -248,-147 -248,-285 z m 495,-432 c 6,-8 11,-16 13,-25 2,-7 3,-14 3,-21 0,-6 -12,-20 -16,-24 -19,-18 -43,-35 -64,-49 -67,-45 -137,-84 -204,-127 -106,-69 -250,-174 -257,-311 0,-4 0,-7 0,-11 0,-2 0,-5 0,-8 2,-59 19,-114 53,-163 60,-86 163,-137 259,-174 10,-4 20,-8 30,-11 l 6,313 c -15,10 -27,21 -31,33 -1,3 -2,7 -2,10 0,3 0,5 1,8 6,34 54,70 81,88 58,39 121,73 181,110 113,70 235,164 239,308 0,3 0,5 0,8 0,3 0,6 0,7 -1,28 -6,54 -16,80 -41,104 -151,175 -245,225 -12,6 -24,12 -37,19 l 6,-285 z m 21,-996 c 30,-12 84,-37 92,-64 1,-3 2,-6 2,-10 0,-63 -84,-125 -129,-157 -46,-33 -94,-63 -141,-94 -53,-34 -105,-69 -155,-108 -152,-117 -271,-259 -274,-459 0,-3 0,-6 0,-8 0,-2 0,-4 0,-5 3,-496 462,-517 797,-304 61,36 99,100 99,171 0,40 -12,78 -35,111 l 0,1 c -1,1 -2,2 -2,3 l -2,3 c -16,20 -34,37 -56,50 l -3,2 c -23,14 -49,22 -76,25 l -4,1 -4,0 c -20,2 -40,0 -60,-4 l -4,-1 -4,-1 c -21,-6 -40,-15 -58,-27 -42,-29 -127,-102 -176,-104 -6,0 -13,0 -18,2 -19,8 -20,61 -20,77 0,13 2,27 5,40 15,66 66,124 115,168 66,62 143,115 217,168 144,105 336,245 342,440 0,4 0,7 0,10 0,4 0,7 0,9 -2,58 -18,112 -52,160 -65,93 -181,144 -285,180 -39,13 -78,25 -118,37 l 7,-312 z"
       id="path32"
       inkscape:connector-curvature="0"
       style="fill:#015385" /><path
       class="fil3"
       d="m 327,9849 0,0 c -1,1 -2,2 -2,3 l -2,2 0,0 c -12,17 -27,30 -44,40 l -1,1 -2,1 c -18,11 -39,18 -61,20 l 0,0 -3,1 -2,0 -1,0 c -16,1 -32,0 -47,-4 l -2,0 -2,0 -3,-1 -1,0 c -16,-5 -32,-13 -46,-22 -46,-31 -133,-108 -197,-110 -44,-2 -78,19 -78,118 0,312 668,470 679,818 0,3 0,6 0,8 0,3 0,6 0,8 -10,366 -679,309 -679,494 0,167 495,245 501,517 1,1 1,3 1,5 0,2 0,4 -1,6 -7,271 -551,349 -551,466 0,158 414,276 414,434 l 0,118 c 0,21 -18,39 -40,39 -21,0 -39,-18 -39,-39 l 0,-79 c 0,-158 -492,-236 -492,-468 0,-2 0,-3 0,-5 0,-1 0,-3 0,-5 8,-231 512,-272 512,-467 0,-117 -530,-272 -541,-514 0,-2 -1,-5 -1,-8 0,-2 1,-4 1,-6 7,-357 639,-319 639,-496 0,-235 -692,-353 -698,-820 -1,-2 -1,-4 -1,-6 0,-2 0,-3 0,-5 3,-476 444,-457 738,-270 47,27 79,78 79,137 0,33 -10,63 -27,89 z"
       id="path34"
       inkscape:connector-curvature="0"
       style="fill:#ffffff" /></g></svg>