<?xml version="1.0" encoding="UTF-8" standalone="no"?>
<svg
   xmlns:dc="http://purl.org/dc/elements/1.1/"
   xmlns:cc="http://creativecommons.org/ns#"
   xmlns:rdf="http://www.w3.org/1999/02/22-rdf-syntax-ns#"
   xmlns:svg="http://www.w3.org/2000/svg"
   xmlns="http://www.w3.org/2000/svg"
   xmlns:xlink="http://www.w3.org/1999/xlink"
   xmlns:sodipodi="http://sodipodi.sourceforge.net/DTD/sodipodi-0.dtd"
   xmlns:inkscape="http://www.inkscape.org/namespaces/inkscape"
   viewBox="0 0 566.9292 566.9292"
   id="svg2"
   height="566.9292"
   width="566.9292"
   version="1.1"
   inkscape:version="0.91 r13725"
   sodipodi:docname="ariadna_intel_spec_ops.svg">
  <sodipodi:namedview
     pagecolor="#ffffff"
     bordercolor="#666666"
     borderopacity="1"
     objecttolerance="10"
     gridtolerance="10"
     guidetolerance="10"
     inkscape:pageopacity="0"
     inkscape:pageshadow="2"
     inkscape:window-width="1920"
     inkscape:window-height="1137"
     id="namedview123"
     showgrid="false"
     inkscape:zoom="0.42140707"
     inkscape:cx="-40.910963"
     inkscape:cy="-29.062736"
     inkscape:window-x="2040"
     inkscape:window-y="392"
     inkscape:window-maximized="1"
     inkscape:current-layer="svg2" />
  <metadata
     id="metadata244">
    <rdf:RDF>
      <cc:Work
         rdf:about="">
        <dc:format>image/svg+xml</dc:format>
        <dc:type
           rdf:resource="http://purl.org/dc/dcmitype/StillImage" />
        <dc:title />
      </cc:Work>
    </rdf:RDF>
  </metadata>
  <defs
     id="defs242" />
  <g
     id="g3246"
     transform="translate(283.4646,-508.5354)">
    <path
       d="m -283.4646,508.5354 566.9292,0 0,566.9292 -566.9292,0 0,-566.9292 z"
       style="fill:none"
       id="path4"
       inkscape:connector-curvature="0" />
    <path
       d="M 0,508.5354 A 283.4646,283.4646 0 0 1 283.4646,792 283.4646,283.4646 0 1 1 0,508.5354 Z"
       style="fill:#000000;fill-rule:evenodd"
       id="path10"
       inkscape:connector-curvature="0" />
    <path
       d="M 0,517.0394 A 274.9606,274.9606 0 0 1 274.9606,792 274.9606,274.9606 0 1 1 0,517.0394 Z"
       style="fill:#fff700;fill-rule:evenodd"
       id="path12"
       inkscape:connector-curvature="0" />
    <path
       inkscape:connector-curvature="0"
       d="M -251.48515,880.05904 A 266.4567,266.4567 0 0 1 -88.059039,540.51485 266.4567,266.4567 0 1 1 -251.48515,880.05904 Z"
       style="fill:#e2001a;fill-rule:evenodd"
       id="path14" />
    <g
       id="g16">
      <path
         d="m 16.9135,980.6199 c 0.7857,-0.5233 1.7206,-0.7492 2.6884,-0.7492 l 0.606,0 c 0.2296,-0.3578 0.4527,-0.7195 0.6712,-1.0837 0.4941,-0.8235 0.9071,-1.7144 1.2669,-2.6039 0.5082,-1.2577 0.9204,-2.5727 1.2962,-3.8753 0.5304,-1.8388 0.9202,-3.757 1.2853,-5.6349 0.5215,-2.6856 0.9433,-5.3989 1.3325,-8.1066 0.5304,-3.6929 0.9919,-7.3981 1.4176,-11.1044 l 0.0077,-0.0595 c 0.1814,-1.3315 0.5607,-2.6924 1.4397,-3.7415 1.0106,-1.2061 2.4599,-1.7342 4.0088,-1.7342 l 23.256,0 c 1.4992,0 2.9049,0.4921 3.9614,1.5755 1.1007,1.1287 1.5134,2.6328 1.5134,4.1751 l 0,32.1934 1.0293,0 c 1.3875,0 2.6954,0.4705 3.5727,1.5874 l 0.0346,0.0439 0.0326,0.0451 c 0.6577,0.9082 0.9227,1.9814 0.9227,3.0903 l 0,16.3199 c 0,0.7985 -0.2327,1.5758 -0.6993,2.2241 -0.4876,0.7021 -1.1945,1.1622 -1.9959,1.4451 -0.5887,0.2078 -1.2175,0.3214 -1.8365,0.3943 -0.7679,0.09 -1.5619,0.1032 -2.3349,0.1032 -0.7549,0 -1.5288,-0.014 -2.2788,-0.1038 -0.6066,-0.072 -1.2215,-0.1859 -1.8006,-0.3827 -0.7429,-0.2522 -1.4114,-0.6431 -1.9236,-1.2478 l -0.0346,-0.041 -0.0331,-0.042 c -0.529,-0.6747 -0.796,-1.495 -0.796,-2.3494 l 0,-7.8573 -24.6427,0 0,7.8573 c 0,0.8544 -0.267,1.6747 -0.796,2.3494 l -0.0331,0.042 -0.0346,0.041 c -0.5122,0.6047 -1.1806,0.9956 -1.9236,1.2478 -0.5876,0.1996 -1.2166,0.3121 -1.8323,0.3836 -0.7557,0.088 -1.5344,0.1029 -2.2949,0.1029 -0.7646,0 -1.5472,-0.014 -2.3072,-0.1029 -0.621,-0.072 -1.256,-0.184 -1.8479,-0.3889 -0.8163,-0.2824 -1.538,-0.7348 -2.0355,-1.4497 -0.4672,-0.6483 -0.7002,-1.4264 -0.7002,-2.2252 l 0,-7.7258 c -0.9334,0.0785 -1.8949,0.0845 -2.8292,0.0845 -0.9789,0 -1.9718,8e-4 -2.9492,-0.0522 -0.7356,-0.0397 -1.5038,-0.1196 -2.2105,-0.335 -0.847,-0.2586 -1.5996,-0.7101 -2.1441,-1.4179 -0.3793,-0.4842 -0.6457,-1.048 -0.8184,-1.6368 l -2.334,-7.1421 -13.0397,0 -2.2218,6.8879 c -0.1663,0.5663 -0.4005,1.1061 -0.7381,1.5919 -0.4961,0.7427 -1.2141,1.2475 -2.0404,1.5721 -0.7126,0.2798 -1.4992,0.3935 -2.2592,0.4518 -0.8827,0.0678 -1.7796,0.0803 -2.6648,0.0803 -0.9457,0 -1.9233,-0.0168 -2.863,-0.1273 -1.169,-0.1378 -2.2811,-0.5513 -3.0711,-1.463 -0.8297,-0.9575 -1.0956,-2.1824 -0.9147,-3.4188 0.1207,-0.8246 0.3807,-1.6645 0.6437,-2.4543 l 14.0162,-40.3801 c 0.2123,-0.6363 0.512,-1.2486 0.9247,-1.7796 0.5731,-0.767 1.3776,-1.2597 2.2833,-1.5485 0.7789,-0.2483 1.6228,-0.3419 2.4366,-0.3824 1.0029,-0.0496 2.0163,-0.0513 3.0204,-0.0513 1.1386,0 2.2864,8e-4 3.4242,0.0507 0.8555,0.0374 1.7586,0.1222 2.5835,0.3609 0.9357,0.2707 1.781,0.7509 2.4001,1.5165 l 0.0456,0.0561 0.0428,0.0587 c 0.406,0.5581 0.7045,1.1872 0.9074,1.8456 l 12.208,35.0207 z m -140.8513,10.891 c -0.3793,-0.4842 -0.6457,-1.048 -0.8184,-1.6368 l -2.334,-7.1421 -13.0397,0 -2.2218,6.8879 c -0.1663,0.5663 -0.4005,1.1061 -0.7381,1.5919 -0.4961,0.7427 -1.2141,1.2475 -2.0404,1.5721 -0.7126,0.2798 -1.4992,0.3935 -2.2592,0.4518 -0.8827,0.0678 -1.7796,0.0803 -2.6648,0.0803 -0.9457,0 -1.9233,-0.0168 -2.863,-0.1273 -1.169,-0.1378 -2.2811,-0.5513 -3.0711,-1.463 -0.8297,-0.9575 -1.0956,-2.1824 -0.9147,-3.4188 0.1207,-0.8246 0.3807,-1.6645 0.6437,-2.4543 l 14.0162,-40.3801 c 0.2123,-0.6363 0.512,-1.2486 0.9247,-1.7796 0.5731,-0.767 1.3776,-1.2597 2.2833,-1.5485 0.7789,-0.2483 1.6228,-0.3419 2.4366,-0.3824 1.0029,-0.0496 2.0163,-0.0513 3.0204,-0.0513 1.1386,0 2.2864,8e-4 3.4242,0.0507 0.8555,0.0374 1.7586,0.1222 2.5835,0.3609 0.9357,0.2707 1.781,0.7509 2.4001,1.5165 l 0.0456,0.0561 0.0428,0.0587 c 0.406,0.5581 0.7045,1.1872 0.9074,1.8456 l 14.0613,40.3371 c 0.2616,0.7965 0.5184,1.6483 0.64,2.4786 0.1902,1.3005 -0.1326,2.5869 -1.0766,3.5308 l -0.0473,0.0473 -0.0496,0.0451 c -0.8388,0.7631 -1.9222,1.0806 -3.0285,1.1821 -0.9737,0.0892 -1.9812,0.0958 -2.9588,0.0958 -0.9789,0 -1.9718,8e-4 -2.9492,-0.0522 -0.7356,-0.0397 -1.5038,-0.1196 -2.2105,-0.335 -0.847,-0.2586 -1.5996,-0.7101 -2.1441,-1.4179 z m 29.5543,-14.1789 0,11.6733 c 0,0.8941 -0.2979,1.7275 -0.8612,2.4219 l -0.0294,0.0366 -0.0309,0.0354 c -0.527,0.6072 -1.2181,1.0174 -1.9727,1.2776 -0.6341,0.2189 -1.3161,0.3274 -1.9803,0.4096 -0.8486,0.1052 -1.7254,0.1296 -2.58,0.1296 -0.8536,0 -1.7218,-0.0264 -2.5699,-0.1282 -0.6429,-0.0773 -1.2989,-0.191 -1.9182,-0.3832 l -0.0423,-0.013 -0.0416,-0.0145 c -0.819,-0.2823 -1.5625,-0.743 -2.0846,-1.4468 -0.5018,-0.6763 -0.7742,-1.4828 -0.7742,-2.325 l 0,-40.932 c 0,-1.6979 0.4847,-3.3304 1.7377,-4.5306 1.1559,-1.1078 2.6382,-1.616 4.229,-1.616 l 10.728,0 c 1.1097,0 2.2223,0.0348 3.3281,0.1304 1.2762,0.1102 2.5554,0.3228 3.8109,0.5717 1.709,0.3388 3.3457,0.9629 4.8881,1.7674 1.6582,0.8649 3.1524,1.9933 4.3911,3.3985 1.2578,1.4264 2.1887,3.0642 2.8092,4.8611 0.6584,1.9066 0.9232,3.9178 0.9232,5.9295 0,2.6841 -0.3968,5.3564 -1.4065,7.8545 -0.9454,2.3386 -2.3537,4.3745 -4.2446,6.0429 -1.9268,1.7003 -4.1899,2.8812 -6.6303,3.6593 -2.7907,0.8901 -5.7903,1.19 -8.7091,1.19 l -0.9695,0 z m 37.5123,-33.723 c 0.5235,0.6733 0.8036,1.4857 0.8036,2.3403 l 0,19.2439 14.0219,-20.9104 0.0368,-0.0501 c 0.2639,-0.3583 0.5471,-0.6948 0.872,-0.9995 0.4858,-0.4556 1.0581,-0.7835 1.6772,-1.0216 l 0.0448,-0.0173 0.0456,-0.0156 c 0.5831,-0.2018 1.2016,-0.3186 1.8145,-0.3813 0.6902,-0.0706 1.3949,-0.0867 2.0886,-0.0867 0.8166,0 1.654,0.0122 2.4661,0.1003 0.6355,0.0692 1.2716,0.188 1.8811,0.3836 l 0.0587,0.0189 0.0581,0.0216 c 0.7874,0.2914 1.4839,0.7412 1.9862,1.4264 0.4978,0.6792 0.7404,1.4836 0.7404,2.3238 l 0,43.092 c 0,0.9145 -0.3209,1.7771 -0.9207,2.4687 -0.5301,0.6114 -1.2169,1.006 -1.974,1.2671 l -0.0417,0.0145 -0.0422,0.013 c -0.6392,0.1984 -1.3213,0.311 -1.9863,0.3773 -0.8308,0.083 -1.6792,0.0981 -2.5137,0.0981 -0.8346,0 -1.683,-0.0151 -2.5138,-0.0981 -0.6667,-0.0666 -1.351,-0.1806 -1.9899,-0.3861 l -0.0556,-0.0184 c -0.805,-0.2775 -1.5236,-0.7124 -2.0443,-1.3964 -0.5233,-0.6732 -0.8031,-1.4853 -0.8031,-2.3397 l 0,-19.2399 -14.0099,20.9246 -0.0522,0.0688 c -0.2716,0.3566 -0.563,0.7008 -0.8898,1.008 -0.5218,0.4904 -1.1341,0.8331 -1.8096,1.0627 -0.593,0.2013 -1.2178,0.3085 -1.8408,0.3578 -0.6614,0.0521 -1.3357,0.0567 -1.999,0.0567 -0.8303,0 -1.6849,-0.0114 -2.5107,-0.1001 -0.6517,-0.07 -1.324,-0.1891 -1.9443,-0.4039 l -0.0569,-0.0204 c -0.8544,-0.3161 -1.6008,-0.8482 -2.0821,-1.6348 -0.3974,-0.6497 -0.5967,-1.3909 -0.5967,-2.1515 l 0,-43.056 c 0,-0.9144 0.3209,-1.777 0.9207,-2.4687 0.54,-0.623 1.2405,-1.0187 2.0143,-1.2767 l 0.0405,-0.0133 0.0409,-0.0122 c 0.6307,-0.1894 1.2971,-0.3013 1.9516,-0.3688 0.8243,-0.085 1.6705,-0.0989 2.4988,-0.0989 0.8353,0 1.6911,0.013 2.5225,0.0989 0.6557,0.0675 1.3232,0.1809 1.9534,0.3764 l 0.0422,0.0131 0.0417,0.0144 c 0.807,0.2784 1.5318,0.709 2.0551,1.3955 z m 151.2065,29.835 -11.3947,0 0,15.5613 c 0,0.8422 -0.2724,1.6487 -0.7741,2.325 -0.5222,0.7038 -1.2657,1.1645 -2.0846,1.4468 l -0.0417,0.0145 -0.0422,0.013 c -0.612,0.1899 -1.2609,0.3033 -1.8959,0.3818 -0.8487,0.1052 -1.7254,0.1296 -2.5801,0.1296 -0.8535,0 -1.7217,-0.0264 -2.5698,-0.1282 -0.6429,-0.0773 -1.2989,-0.191 -1.9182,-0.3832 l -0.0423,-0.013 -0.0417,-0.0145 c -0.7545,-0.2602 -1.4462,-0.6704 -1.9731,-1.2779 l -0.0309,-0.0354 -0.0295,-0.0366 c -0.5596,-0.6899 -0.8612,-1.5346 -0.8612,-2.4219 l 0,-42.984 c 0,-0.8872 0.3016,-1.7319 0.8612,-2.4219 l 0.0295,-0.0366 0.0309,-0.0354 c 0.5269,-0.6072 1.218,-1.0174 1.9726,-1.2776 0.6412,-0.2214 1.3308,-0.3302 2.0027,-0.411 0.8481,-0.1018 1.7163,-0.1281 2.5698,-0.1281 0.8547,0 1.7314,0.0244 2.5801,0.1295 0.635,0.0785 1.2839,0.1919 1.8959,0.3818 l 0.0422,0.0131 0.0417,0.0144 c 0.8189,0.2824 1.5624,0.743 2.0846,1.4468 0.5017,0.6764 0.7741,1.4828 0.7741,2.325 l 0,13.9054 11.3947,0 0,-13.9054 c 0,-0.8872 0.3016,-1.7319 0.8612,-2.4219 l 0.0295,-0.0366 0.0309,-0.0354 c 0.5156,-0.5941 1.1843,-1.0052 1.921,-1.2679 l 0.0553,-0.0199 0.0564,-0.0173 c 0.6174,-0.1919 1.2656,-0.3064 1.9066,-0.3835 0.8594,-0.1032 1.741,-0.1281 2.6058,-0.1281 0.8434,0 1.7065,0.0258 2.5441,0.1295 0.6642,0.0822 1.3462,0.1908 1.9803,0.4096 0.7546,0.2602 1.4457,0.6704 1.9727,1.2776 l 0.0309,0.0354 0.0294,0.0366 c 0.5596,0.69 0.8612,1.5347 0.8612,2.4219 l 0,42.984 c 0,0.8873 -0.3016,1.732 -0.8612,2.4219 l -0.0294,0.0366 -0.0309,0.0354 c -0.527,0.6075 -1.2187,1.0177 -1.9732,1.2779 l -0.0417,0.0145 -0.0422,0.013 c -0.612,0.1899 -1.2609,0.3033 -1.8959,0.3818 -0.8376,0.1038 -1.7007,0.1296 -2.5441,0.1296 -0.8648,0 -1.7464,-0.025 -2.6058,-0.1282 -0.641,-0.0771 -1.2892,-0.1916 -1.9066,-0.3835 l -0.0564,-0.0173 -0.0553,-0.0198 c -0.7367,-0.2628 -1.4054,-0.6738 -1.921,-1.268 l -0.0309,-0.0354 -0.0295,-0.0366 c -0.5596,-0.6899 -0.8612,-1.5346 -0.8612,-2.4219 l 0,-15.5613 z m 48.1031,18.0669 c -0.3793,-0.4842 -0.6457,-1.048 -0.8184,-1.6368 l -2.334,-7.1421 -13.0397,0 -2.2218,6.8879 c -0.1664,0.5663 -0.4005,1.1061 -0.7381,1.5919 -0.4961,0.7427 -1.2141,1.2475 -2.0404,1.5721 -0.7126,0.2798 -1.4992,0.3935 -2.2592,0.4518 -0.8827,0.0678 -1.7796,0.0803 -2.6648,0.0803 -0.9457,0 -1.9234,-0.0168 -2.863,-0.1273 -1.169,-0.1378 -2.2811,-0.5513 -3.0711,-1.463 -0.8297,-0.9575 -1.0956,-2.1824 -0.9147,-3.4188 0.1207,-0.8246 0.3807,-1.6645 0.6437,-2.4543 l 14.0162,-40.3801 c 0.2123,-0.6363 0.5119,-1.2486 0.9247,-1.7796 0.5731,-0.767 1.3776,-1.2597 2.2833,-1.5485 0.7789,-0.2483 1.6228,-0.3419 2.4366,-0.3824 1.0029,-0.0496 2.0163,-0.0513 3.0203,-0.0513 1.1387,0 2.2865,8e-4 3.4243,0.0507 0.8555,0.0374 1.7586,0.1222 2.5835,0.3609 0.9357,0.2707 1.781,0.7509 2.4001,1.5165 l 0.0456,0.0561 0.0428,0.0587 c 0.406,0.5581 0.7044,1.1872 0.9074,1.8456 l 14.0613,40.3371 c 0.2616,0.7965 0.5184,1.6483 0.64,2.4786 0.1902,1.3005 -0.1326,2.5869 -1.0766,3.5308 l -0.0473,0.0473 -0.0496,0.0451 c -0.8388,0.7631 -1.9222,1.0806 -3.0286,1.1821 -0.9737,0.0892 -1.9811,0.0958 -2.9588,0.0958 -0.9788,0 -1.9717,8e-4 -2.9491,-0.0522 -0.7356,-0.0397 -1.5038,-0.1196 -2.2105,-0.335 -0.847,-0.2586 -1.5996,-0.7101 -2.1441,-1.4179 z m -276.1299,-29.0795 -2.456,7.5033 4.9354,0 -2.4794,-7.5033 z m 39.308,-7.7074 0,9.8107 1.3414,0 c 0.8685,0 1.8742,-0.0791 2.69,-0.4017 0.525,-0.2075 1.0078,-0.5054 1.3853,-0.9292 0.4057,-0.4552 0.6869,-0.9975 0.8776,-1.5741 0.2523,-0.7608 0.3484,-1.5732 0.3484,-2.3723 0,-0.83 -0.0992,-1.8462 -0.5048,-2.5889 -0.2481,-0.4538 -0.595,-0.9448 -1.0486,-1.2143 -0.4821,-0.2863 -0.9966,-0.487 -1.5525,-0.5678 -0.7982,-0.1165 -1.6053,-0.1624 -2.4114,-0.1624 l -1.1254,0 z m 89.572,7.7074 -2.456,7.5033 4.9354,0 -2.4794,-7.5033 z m 51.5908,-7.3474 -5.2634,0 c -0.2931,2.3303 -0.6122,4.6579 -0.9683,6.9791 -0.3707,2.4189 -0.7719,4.8413 -1.26,7.2397 -0.3744,1.84 -0.7931,3.6839 -1.3141,5.4885 -0.4006,1.3875 -0.8493,2.7745 -1.3947,4.1125 -0.1321,0.324 -0.2698,0.6466 -0.4141,0.9669 l 10.6146,0 0,-24.7867 z m 85.9054,7.3474 -2.456,7.5033 4.9354,0 -2.4794,-7.5033 z"
         style="fill:#000000;fill-rule:evenodd"
         id="path18"
         inkscape:connector-curvature="0" />
    </g>
    <text
       x="-154.09514"
       y="989.23779"
       id="text20">
      <tspan
         font-size="72.0000"
         id="tspan24"
         style="font-size:72px;font-family:Calibri;letter-spacing:1.29000008px;fill:#ffffff">АРИАДНА</tspan>
    </text>
    <path
       d="m 0,585.0709 c 114.2804,0 206.9289,92.6489 206.9289,206.9291 0,52.4795 -19.696,102.5467 -55.4483,140.9533 l -3.3633,3.6131 -296.2349,0 -3.3633,-3.6128 C -187.2334,894.5467 -206.9291,844.4795 -206.9291,792 -206.9291,677.7196 -114.2804,585.0709 0,585.0709 Z"
       style="fill:#ffff00;fill-rule:evenodd"
       id="path26"
       inkscape:connector-curvature="0" />
    <path
       d="m 0,596.4094 c 108.0224,0 195.5903,87.5691 195.5903,195.5906 0,51.4789 -19.8978,98.303 -52.4089,133.2278 l -286.363,0 C -175.693,890.303 -195.5906,843.4789 -195.5906,792 -195.5906,683.9785 -108.0227,596.4094 0,596.4094 Z"
       style="fill:#000000;fill-rule:evenodd"
       id="path28"
       inkscape:connector-curvature="0" />
    <path
       d="M 0,1072.6299 A 280.6299,280.6299 0 0 1 -280.6299,792 280.6299,280.6299 0 1 1 0,1072.6299 Z"
       style="fill:none"
       id="path30"
       inkscape:connector-curvature="0" />
    <g
       id="g32">
      <path
         d="m 223.5288,840.6717 21.0447,15.3998 c 0.4553,0.3331 0.8493,0.7512 1.1387,1.2362 0.3597,0.6023 0.5326,1.2824 0.5357,1.9803 0.0117,0.4955 -0.0504,0.9924 -0.1522,1.4765 -0.1046,0.4967 -0.2443,0.9902 -0.3872,1.4772 -0.1499,0.5105 -0.3059,1.0258 -0.4927,1.5242 -0.1763,0.4708 -0.3931,0.9343 -0.6706,1.3549 -0.3654,0.5766 -0.8609,1.0517 -1.4627,1.3785 l -0.0391,0.0213 -0.0397,0.0201 c -0.5349,0.2693 -1.1188,0.4184 -1.6495,0.4371 l -33.6858,2.0543 c -0.6046,0.0306 -1.2075,0.019 -1.798,-0.1301 -1.0006,-0.2523 -1.8383,-0.8941 -2.3026,-1.8196 l -0.0431,-0.0859 -0.0371,-0.0884 c -0.3124,-0.7444 -0.3436,-1.5429 -0.2047,-2.3293 0.0936,-0.5289 0.2359,-1.0576 0.3872,-1.5729 0.144,-0.4901 0.2937,-0.9885 0.478,-1.4652 0.1825,-0.4717 0.4039,-0.9321 0.7066,-1.3394 0.4196,-0.5647 0.965,-0.9992 1.6266,-1.247 0.3441,-0.1287 0.6978,-0.2103 1.0613,-0.2591 l 0.1125,-0.015 6.9035,-0.3665 2.8582,-9.7387 -5.4219,-3.8256 c -0.3841,-0.271 -0.7194,-0.5828 -0.9969,-0.9638 -0.364,-0.5003 -0.578,-1.0661 -0.6653,-1.6183 -0.1021,-0.5672 -0.0644,-1.1421 0.0315,-1.707 0.085,-0.5009 0.2168,-1.0004 0.36,-1.488 0.1536,-0.5224 0.3245,-1.0513 0.5485,-1.5482 0.3523,-0.7824 0.8597,-1.4573 1.6177,-1.8854 0.5669,-0.3242 1.1968,-0.4688 1.8298,-0.445 -0.7637,-1.2645 -1.2677,-2.6697 -1.5863,-4.1159 -0.5134,-2.3315 -0.3413,-4.964 -0.009,-7.3108 l 1.1537,-8.1448 c 0.1494,-1.0551 0.6369,-1.9985 1.4049,-2.7377 1.0593,-1.0196 2.476,-1.2847 3.8902,-1.0843 l 30.1105,4.2656 c 1.4065,0.1993 2.6801,0.8538 3.4092,2.118 0.5278,0.9153 0.741,1.9472 0.5927,2.9937 l -2.4817,17.519 c -0.0938,0.6627 -0.3611,1.2897 -0.7333,1.7368 -0.4436,0.5706 -1.0369,0.9751 -1.7212,1.2036 -0.4782,0.1598 -0.9737,0.2262 -1.4766,0.2321 -0.4377,0.005 -0.8796,-0.0368 -1.3121,-0.0981 -0.415,-0.0586 -0.8275,-0.1406 -1.23,-0.2582 -0.5156,-0.1511 -1.002,-0.3623 -1.4391,-0.6792 l -0.0584,-0.0434 c -0.4661,-0.3563 -0.8476,-0.7891 -1.1115,-1.3164 -0.3243,-0.6474 -0.432,-1.3683 -0.3305,-2.0834 l 1.6852,-11.8968 -4.9731,-0.7044 -0.4774,3.3687 c -0.2857,2.0166 -0.7574,4.1366 -1.6452,5.98 -0.752,1.561 -1.7564,2.9775 -3.0714,4.1145 -1.2835,1.1095 -2.7552,1.887 -4.3968,2.317 -1.671,0.438 -3.3905,0.4879 -5.0964,0.2461 -0.0964,-0.0136 -0.1922,-0.0281 -0.288,-0.0437 z M 210.2562,709.9781 c 0.003,0.003 0.006,0.006 0.008,0.01 0.1258,0.1279 0.5286,0.2776 0.6925,0.3311 0.7939,0.2603 1.7932,0.3439 2.6229,0.3827 1.6177,0.0754 3.3083,-0.0391 4.9195,-0.1859 2.503,-0.2279 5.0071,-0.5831 7.4877,-0.9856 3.4784,-0.5644 6.9457,-1.2388 10.3972,-1.9489 l 0.0513,-0.01 c 1.1033,-0.2061 2.2589,-0.2372 3.3089,0.218 1.1747,0.5091 1.978,1.4967 2.3604,2.7077 l 4.5607,14.4439 c 0.3758,1.1905 0.2908,2.4349 -0.3393,3.5212 -0.6177,1.0644 -1.6396,1.7371 -2.793,2.1013 l -30.1581,9.5224 c -0.6982,0.2203 -1.4349,0.2228 -2.1297,-0.01 l -0.0586,-0.0195 -0.0576,-0.0222 c -0.6035,-0.2318 -1.118,-0.6264 -1.5264,-1.1242 l -0.0485,-0.0606 c -0.2784,-0.3589 -0.5049,-0.762 -0.6931,-1.1744 -0.2001,-0.438 -0.362,-0.8958 -0.5068,-1.3547 -0.1449,-0.4587 -0.2753,-0.9264 -0.3629,-1.3998 -0.0827,-0.4461 -0.1289,-0.9068 -0.1068,-1.3606 l 0.005,-0.0748 c 0.0479,-0.6398 0.2412,-1.2569 0.5993,-1.7921 l 0.0379,-0.0567 0.0406,-0.055 c 0.4354,-0.5876 1.0386,-1.0071 1.7353,-1.2271 l 25.507,-8.0538 -1.2668,-4.0127 c -2.7584,0.5128 -5.523,0.9972 -8.2941,1.4284 -2.7701,0.4311 -5.5616,0.7894 -8.3569,1.0111 -2.1166,0.1678 -4.3129,0.2475 -6.4301,0.053 -1.7155,-0.1576 -3.4509,-0.5068 -5.0315,-1.2084 -1.4884,-0.6608 -2.7915,-1.6203 -3.7902,-2.914 -0.9399,-1.2172 -1.6007,-2.6099 -2.0625,-4.072 -0.1825,-0.5786 -0.2324,-1.1908 -0.1363,-1.7904 l 0.0116,-0.0663 c 0.0893,-0.4827 0.2719,-0.9334 0.5346,-1.3391 -0.3092,-0.2602 -0.6088,-0.5315 -0.8997,-0.8073 -0.8427,-0.7988 -1.5979,-1.6945 -2.2912,-2.6246 -0.8365,-1.1222 -1.5262,-2.3451 -2.1016,-3.6198 -0.999,-2.2128 -1.6345,-4.5698 -1.7107,-7.0039 -0.074,-2.3536 0.3824,-4.6414 1.3665,-6.7804 1.0222,-2.221 2.5356,-4.1389 4.3484,-5.7688 2.0562,-1.8491 4.4748,-3.2823 6.988,-4.4167 2.6064,-1.1767 5.3716,-2.0472 8.2233,-2.3519 2.5214,-0.2699 5.0624,-0.1315 7.5027,0.5862 2.3443,0.6894 4.4374,1.8536 6.2541,3.4866 1.8643,1.6761 3.2814,3.7327 4.3101,6.0115 0.4733,1.0488 0.8557,2.1393 1.1162,3.2604 0.2333,1.0029 0.4102,2.0214 0.4981,3.0475 0.0822,0.9581 0.083,1.9244 -0.0227,2.8808 -0.0799,0.7246 -0.199,1.5154 -0.4507,2.2011 -0.1718,0.4678 -0.3713,0.9295 -0.6145,1.2632 -0.245,0.3611 -0.5457,0.6695 -0.8836,0.9436 -0.2599,0.2109 -0.5377,0.3997 -0.8243,0.5718 -0.3291,0.1975 -0.6752,0.3656 -1.0247,0.5232 -0.3975,0.1795 -0.8065,0.3416 -1.2257,0.4621 -0.4403,0.1261 -0.8907,0.2086 -1.2705,0.2174 -0.6166,0.0332 -1.2368,-0.0774 -1.7955,-0.3419 -0.7319,-0.3398 -1.3011,-0.9382 -1.6325,-1.673 -0.4317,-0.9569 -0.371,-1.9808 -0.1372,-2.9763 0.1293,-0.55 0.2101,-1.1231 0.2713,-1.6844 0.0794,-0.7262 0.0516,-1.4842 -0.0179,-2.2099 -0.0844,-0.8804 -0.4138,-1.7957 -0.7752,-2.5968 -0.4167,-0.923 -0.9848,-1.751 -1.7674,-2.4015 -0.7521,-0.6248 -1.6112,-1.0179 -2.5654,-1.2294 -1.228,-0.2724 -2.5208,-0.2458 -3.7596,-0.0641 -1.6693,0.245 -3.3193,0.8181 -4.8526,1.5101 -1.5117,0.6825 -3.0226,1.525 -4.2973,2.5942 -0.898,0.7535 -1.7402,1.6555 -2.2879,2.7003 -0.4379,0.8354 -0.6658,1.715 -0.6638,2.6583 0.002,1.0897 0.3052,2.1501 0.7511,3.1374 0.3651,0.8093 0.836,1.6441 1.4381,2.3029 0.4946,0.5411 1.0459,1.0842 1.6435,1.5126 0.4858,0.3486 0.9898,0.6979 1.508,0.9972 0.8688,0.5014 1.6501,1.1361 2.0733,2.0727 0.2591,0.5734 0.3648,1.1988 0.2914,1.8249 -0.0904,0.7739 -0.4524,1.4443 -0.9987,1.9888 l -0.045,0.044 c -0.1265,0.1207 -0.2603,0.2338 -0.3994,0.3401 z m -37.88,-61.6612 5.4227,-1.4048 c 0.9428,-0.2444 1.8989,-0.4527 2.8638,-0.5877 0.8397,-0.1173 1.6909,-0.1712 2.5387,-0.1425 0.008,-0.8272 0.116,-1.6504 0.3252,-2.4585 0.3183,-1.2317 0.8577,-2.3704 1.5931,-3.4073 0.7684,-1.0837 1.7435,-2.0018 2.8221,-2.772 1.3808,-0.9864 2.9027,-1.7277 4.5553,-2.1294 1.6761,-0.4073 3.3755,-0.4116 5.0573,-0.028 1.7549,0.4002 3.367,1.2194 4.8121,2.2807 1.8663,1.3706 3.5147,3.4226 4.8529,5.296 l 4.1114,5.7563 c 0.6182,0.8654 0.9167,1.889 0.8705,2.9512 -0.0638,1.4581 -0.8912,2.626 -2.0478,3.452 l -25.7349,18.3824 c -0.5961,0.4258 -1.2962,0.6562 -2.0296,0.6494 l -0.0635,-8e-4 -0.0635,-0.003 c -0.644,-0.0349 -1.254,-0.2509 -1.7951,-0.5976 l -0.0627,-0.0411 c -0.3759,-0.2551 -0.7166,-0.5686 -1.0233,-0.9028 -0.3257,-0.3546 -0.6213,-0.7404 -0.9011,-1.1319 -0.2795,-0.3912 -0.548,-0.7957 -0.7778,-1.2183 -0.2163,-0.3974 -0.3986,-0.8173 -0.5177,-1.2544 l -0.0235,-0.0867 -0.0181,-0.0882 c -0.1103,-0.5366 -0.1191,-1.0967 3e-4,-1.633 l 0.0139,-0.0626 0.0167,-0.0621 c 0.2069,-0.7645 0.6698,-1.4111 1.3133,-1.8706 l 9.2865,-6.6336 -0.3347,-0.4686 c -0.3376,-0.4725 -0.9479,-1.2838 -1.4389,-1.6092 -0.3053,-0.2021 -0.6395,-0.341 -1.0009,-0.4011 -0.4878,-0.0814 -0.9867,-0.0635 -1.474,0.0136 -0.8085,0.1275 -1.6104,0.3002 -2.4007,0.513 l -8.1788,2.2045 -0.074,0.0156 c -0.3696,0.0788 -0.7426,0.1347 -1.1205,0.1386 -0.7379,0.0207 -1.4414,-0.193 -2.0696,-0.5811 -0.4308,-0.2664 -0.8093,-0.6054 -1.1517,-0.9771 -0.3305,-0.3585 -0.6318,-0.7534 -0.9153,-1.15 -0.3127,-0.4379 -0.6216,-0.8957 -0.8668,-1.3756 -0.1982,-0.3878 -0.3637,-0.7917 -0.4788,-1.2124 l -0.006,-0.0238 c -0.5329,-0.1794 -1.0168,-0.4779 -1.4514,-0.8481 -0.4084,-0.3484 -0.792,-0.739 -1.1596,-1.1299 -0.3501,-0.3722 -0.7044,-0.754 -1.0222,-1.1543 -0.3144,-0.396 -0.599,-0.8198 -0.7971,-1.2866 -0.2733,-0.6449 -0.3728,-1.3437 -0.2517,-2.0365 0.0635,-0.3619 0.1723,-0.7086 0.3146,-1.0468 l 0.0437,-0.1037 3.1785,-6.1379 -6.9509,-7.3956 -6.0446,2.7388 c -0.4269,0.1937 -0.8651,0.3249 -1.3331,0.3714 -0.6143,0.0609 -1.2158,-0.0414 -1.7348,-0.2452 -0.5428,-0.2001 -1.0159,-0.5216 -1.4559,-0.8915 -0.3892,-0.3271 -0.7531,-0.6934 -1.1009,-1.0636 -0.3731,-0.3968 -0.7427,-0.8124 -1.0579,-1.2574 -0.4933,-0.6965 -0.8198,-1.4808 -0.8062,-2.3457 3e-4,-0.0184 6e-4,-0.0368 8e-4,-0.0553 -0.0269,0.008 -0.0541,0.0168 -0.0813,0.0244 -0.7279,0.2123 -1.4757,0.1627 -2.1869,-0.0921 -0.3904,-0.1398 -0.7643,-0.3291 -1.1217,-0.538 -0.4334,-0.2534 -0.8382,-0.5562 -1.2274,-0.8722 -0.402,-0.326 -0.8025,-0.673 -1.1489,-1.0585 -0.2721,-0.303 -0.5272,-0.6228 -0.741,-0.97 -0.3971,-0.6446 -0.6001,-1.3691 -0.5408,-2.1268 0.051,-0.7101 0.3262,-1.3768 0.7744,-1.929 l 7.7525,-9.5536 -7.6323,-6.1934 -7.7525,9.5538 c -0.4484,0.5525 -1.0445,0.9593 -1.7291,1.1554 -0.7231,0.2118 -1.463,0.1636 -2.1711,-0.0844 -0.394,-0.1381 -0.7735,-0.3288 -1.1338,-0.5395 -0.4405,-0.2576 -0.8524,-0.5675 -1.2481,-0.8889 -0.3889,-0.3155 -0.7696,-0.6503 -1.1072,-1.0208 -0.2863,-0.314 -0.5599,-0.6514 -0.7801,-1.0153 -0.3881,-0.6409 -0.5874,-1.3547 -0.5295,-2.1048 0.0501,-0.7112 0.3254,-1.379 0.7744,-1.9321 l 20.6422,-25.4383 c 0.449,-0.5537 1.0462,-0.961 1.7322,-1.1563 0.7228,-0.2109 1.463,-0.1621 2.1705,0.0862 0.4005,0.1409 0.7863,0.3387 1.1517,0.5536 0.4323,0.2542 0.8385,0.5578 1.2274,0.8733 0.3955,0.3212 0.7835,0.6602 1.1262,1.0381 0.2804,0.309 0.5446,0.6409 0.7608,0.9978 0.398,0.6568 0.5976,1.3892 0.5259,2.16 -0.0647,0.6939 -0.3308,1.3362 -0.7702,1.8776 l -6.8338,8.4215 7.6323,6.1934 6.8338,-8.4217 c 0.4385,-0.5406 1.0117,-0.9329 1.6761,-1.1393 0.7464,-0.2321 1.5151,-0.1862 2.2453,0.076 0.3833,0.1378 0.7487,0.3212 1.1007,0.525 0.449,0.2596 0.8717,0.5802 1.2739,0.9071 0.3889,0.3155 0.7679,0.6488 1.105,1.0202 0.2769,0.3055 0.538,0.6315 0.7551,0.983 0.3971,0.6435 0.6007,1.3669 0.5431,2.1234 -0.0496,0.7121 -0.3254,1.3811 -0.7747,1.935 L 148.6125,625.765 178.38,612.8915 c 0.5176,-0.2239 1.0774,-0.3521 1.6421,-0.3566 0.703,-0.005 1.3754,0.1896 1.9797,0.5411 0.4332,0.241 0.83,0.546 1.196,0.8788 0.375,0.3415 0.7302,0.7118 1.0774,1.0814 0.3648,0.3881 0.7305,0.7838 1.0658,1.1976 0.3167,0.3904 0.6064,0.8116 0.8286,1.2637 0.3107,0.6041 0.47,1.275 0.4484,1.9556 l -0.001,0.0462 -0.003,0.0462 c -0.0385,0.5979 -0.2058,1.1776 -0.4581,1.6441 l -13.7792,27.1273 z M 68.6384,577.9344 c 0.0025,-3e-4 0.0054,-9e-4 0.0079,-10e-4 0.6506,-0.125 1.3198,-0.0657 1.9392,0.1684 0.2137,0.0811 0.4286,0.1143 0.6534,0.0992 0.178,-0.0195 0.5454,-0.2437 0.6888,-0.339 0.6956,-0.4623 1.3796,-1.1954 1.9236,-1.8229 1.0607,-1.224 2.0171,-2.6227 2.8993,-3.979 1.3703,-2.107 2.641,-4.294 3.8602,-6.4911 1.7099,-3.0813 3.3265,-6.222 4.9054,-9.3722 l 0.0232,-0.0456 c 0.5216,-0.9958 1.2101,-1.9211 2.2192,-2.465 1.1274,-0.6078 2.4004,-0.6271 3.5881,-0.1778 l 14.1676,5.3587 c 1.1676,0.4416 2.0925,1.2787 2.5554,2.446 0.4539,1.1437 0.3498,2.3626 -0.0782,3.4942 L 96.8031,594.388 c -0.2585,0.684 -0.7117,1.2634 -1.3237,1.6651 l -0.057,0.0374 -0.0587,0.0349 c -0.5542,0.3265 -1.1798,0.4852 -1.8207,0.4974 l -0.0759,6e-4 c -0.4544,-0.004 -0.9114,-0.0754 -1.3522,-0.1828 -0.4674,-0.1143 -0.9272,-0.2702 -1.377,-0.4405 -0.4502,-0.1701 -0.8983,-0.3575 -1.3247,-0.5817 -0.4016,-0.2112 -0.792,-0.4601 -1.135,-0.7586 l -0.0547,-0.0487 c -0.4748,-0.4354 -0.8404,-0.9715 -1.0386,-1.5869 l -0.0193,-0.0595 -0.0164,-0.0604 c -0.1939,-0.7066 -0.1502,-1.4419 0.1088,-2.1268 l 9.4627,-25.0186 -3.9359,-1.4887 c -1.3045,2.4837 -2.6354,4.9549 -4.0116,7.3981 -1.3763,2.4426 -2.8228,4.8569 -4.3787,7.1895 -1.1787,1.7663 -2.4755,3.5408 -3.9388,5.0834 -1.1854,1.2498 -2.5336,2.3964 -4.0631,3.2034 -1.44,0.76 -3.0011,1.19 -4.6347,1.1739 -1.5383,-0.0154 -3.0413,-0.3589 -4.4756,-0.9015 -0.5539,-0.2094 -1.0539,-0.538 -1.4601,-0.9686 -0.3952,0.0159 -0.7915,-0.034 -1.1758,-0.1496 l -15.6955,-4.7177 c -1.0037,-0.3019 -1.8507,-0.9221 -2.4655,-1.7703 -0.8666,-1.1951 -0.9363,-2.6376 -0.5225,-4.0144 l 8.7616,-29.1495 c 0.4139,-1.3762 1.2674,-2.5415 2.649,-3.0609 0.9785,-0.3679 2.0313,-0.4189 3.0334,-0.1179 l 15.5145,4.6633 c 0.637,0.1916 1.1994,0.5488 1.6413,1.0457 0.4853,0.5454 0.7707,1.2112 0.8629,1.9332 l 0.0085,0.0681 0.0054,0.0686 c 0.0294,0.3758 0.0249,0.7531 -0.0134,1.1281 -0.0481,0.4717 -0.1627,0.9377 -0.299,1.391 -0.1321,0.4385 -0.2883,0.866 -0.4995,1.273 -0.1817,0.3498 -0.398,0.684 -0.6463,0.9902 l -0.0663,0.0819 -0.0723,0.0765 c -0.4368,0.4641 -0.9847,0.8105 -1.5945,0.997 l -0.0516,0.0159 -0.0518,0.0136 c -0.641,0.17 -1.3082,0.1576 -1.9438,-0.0332 l -10.076,-3.0288 -1.4457,4.8101 8.2664,2.4846 c 0.6883,0.2069 1.287,0.6071 1.736,1.1693 l 0.0329,0.0416 0.0317,0.0425 c 0.3229,0.4371 0.5465,0.9343 0.6656,1.4641 0.1224,0.544 0.1179,1.0919 0.0363,1.641 -0.0633,0.4229 -0.1656,0.8399 -0.2886,1.2492 -0.1208,0.4026 -0.2648,0.8003 -0.4467,1.1793 -0.2331,0.4861 -0.5247,0.9269 -0.9151,1.3022 -0.4666,0.449 -1.0346,0.7713 -1.6653,0.923 l -0.0448,0.0107 -0.0451,0.009 c -0.597,0.1233 -1.2036,0.0887 -1.7861,-0.0862 l -8.2661,-2.4848 -1.8811,6.2583 10.2572,3.0829 c 0.4708,0.1418 0.9011,0.3737 1.2719,0.6855 z M -6.4208,563.1599 2.4205,539.4555 c 0.1973,-0.529 0.4932,-1.0219 0.8819,-1.4324 0.483,-0.5102 1.089,-0.8597 1.7608,-1.0519 0.4734,-0.1454 0.9681,-0.2206 1.4613,-0.2537 0.5063,-0.0343 1.0193,-0.0338 1.5265,-0.0281 0.5326,0.006 1.0712,0.0162 1.6021,0.0607 0.5003,0.0422 1.0049,0.125 1.4845,0.2775 0.6531,0.1947 1.2436,0.542 1.7212,1.0307 l 0.0329,0.0337 0.032,0.0346 c 0.4042,0.4419 0.7061,0.9638 0.8677,1.4686 l 11.1158,31.866 c 0.1936,0.5737 0.3458,1.1574 0.3622,1.7662 0.0281,1.0273 -0.3628,2.0106 -1.1239,2.7068 l -0.0723,0.0661 -0.0762,0.0609 c -0.6324,0.5026 -1.3921,0.7489 -2.187,0.8283 -0.5346,0.0536 -1.0819,0.0601 -1.6188,0.0542 -0.5111,-0.005 -1.0315,-0.0145 -1.5404,-0.0624 -0.5028,-0.0476 -1.0054,-0.1361 -1.4791,-0.3164 -0.6579,-0.2508 -1.2246,-0.6584 -1.6429,-1.2291 -0.2172,-0.2962 -0.3921,-0.6145 -0.5372,-0.9515 l -0.0448,-0.1032 -2.2255,-6.5444 -10.1486,-0.1094 -2.2116,6.2566 c -0.1564,0.4431 -0.3656,0.8507 -0.657,1.2209 -0.3827,0.4862 -0.8691,0.8456 -1.378,1.08 -0.5198,0.2526 -1.0797,0.3714 -1.6506,0.4323 -0.5051,0.0541 -1.0216,0.0626 -1.5293,0.057 -0.5448,-0.006 -1.1004,-0.0267 -1.6398,-0.1075 -0.8473,-0.1269 -1.6336,-0.432 -2.2507,-1.0434 -0.6285,-0.6154 -0.9729,-1.4244 -1.0233,-2.2873 -0.0961,0.0947 -0.1942,0.1877 -0.294,0.279 -0.8572,0.7854 -1.8229,1.4397 -2.8559,1.9717 -1.0496,0.5403 -2.1597,0.9548 -3.3001,1.2569 -1.2727,0.3374 -2.5897,0.5239 -3.901,0.6231 l -8.8934,0.6741 c -1.0454,0.0793 -2.0588,-0.1953 -2.9376,-0.766 -1.2379,-0.8039 -1.8212,-2.1248 -1.9298,-3.558 l -2.3003,-30.3508 c -0.1089,-1.4338 0.2687,-2.8279 1.372,-3.809 0.7826,-0.6961 1.7427,-1.1202 2.7878,-1.1993 l 7.7358,-0.5865 c 1.9187,-0.1457 3.9778,-0.1582 5.866,0.2512 1.5919,0.3452 3.1133,0.9564 4.4376,1.9142 1.2991,0.94 2.3202,2.1512 3.041,3.5833 0.7283,1.4468 1.1027,3.0268 1.2246,4.6363 0.0777,1.0233 0.0349,2.0512 -0.1497,3.0612 -0.1825,0.9995 -0.5071,1.9647 -0.9654,2.8715 -0.1423,0.2814 -0.2974,0.5547 -0.4649,0.8192 0.6222,0.4152 1.2004,0.8937 1.7285,1.4315 0.921,0.9371 1.6404,2.0384 2.1799,3.2343 0.5148,1.1409 0.8254,2.3482 0.9657,3.5861 z m -67.098,17.8067 -6.6858,-28.9636 c -0.1706,-0.739 -0.0918,-1.5131 0.2319,-2.1988 0.2806,-0.6049 0.7265,-1.0962 1.2716,-1.476 l 0.0694,-0.0485 0.0723,-0.0442 c 0.3668,-0.2242 0.7597,-0.4048 1.1631,-0.5525 0.4365,-0.1599 0.8898,-0.2834 1.3422,-0.3878 0.4688,-0.108 0.9451,-0.2009 1.4238,-0.2511 0.4519,-0.0476 0.9151,-0.0573 1.3666,8e-4 l 0.0737,0.0102 c 0.7058,0.1098 1.3578,0.3969 1.8873,0.8794 0.5227,0.4697 0.8836,1.0873 1.042,1.7733 l 2.2632,9.8042 1.842,-0.4252 c 2.1197,-0.4893 4.4563,-0.8895 6.6381,-0.786 1.8015,0.0856 3.5595,0.4697 5.1877,1.2583 1.5965,0.7732 2.9588,1.8881 4.0663,3.2734 0.5049,0.6316 0.9315,1.3079 1.2887,2.0186 l -4.3954,-19.0421 c -0.1707,-0.7398 -0.0922,-1.5128 0.2318,-2.1991 0.2812,-0.6057 0.7283,-1.0978 1.2745,-1.4777 l 0.0666,-0.0462 0.0695,-0.0425 c 0.367,-0.2254 0.7605,-0.4059 1.1644,-0.5542 0.4371,-0.1601 0.891,-0.284 1.3442,-0.3883 0.4606,-0.1063 0.9298,-0.1965 1.4003,-0.2469 0.4573,-0.0488 0.9284,-0.0621 1.385,-0.004 l 0.0783,0.0108 c 0.7058,0.1097 1.3575,0.3968 1.887,0.8793 0.5227,0.4697 0.8838,1.0874 1.0423,1.7733 l 7.3803,31.9734 c 0.1644,0.7124 0.1094,1.446 -0.1769,2.1203 l -0.0255,0.0596 -0.0278,0.0584 c -0.2792,0.5819 -0.7123,1.0627 -1.2402,1.4298 l -0.0617,0.0416 c -0.3861,0.254 -0.8173,0.449 -1.2513,0.6061 -0.4447,0.1607 -0.9056,0.2854 -1.3663,0.3917 -0.4674,0.108 -0.9462,0.2021 -1.4238,0.2495 -0.4204,0.0414 -0.8467,0.0499 -1.2674,0.009 l -0.0827,-0.008 -0.082,-0.0125 c -0.6369,-0.0992 -1.2441,-0.3384 -1.7515,-0.741 l -0.0493,-0.0391 -0.0474,-0.0411 c -0.5533,-0.4805 -0.9255,-1.116 -1.0902,-1.8295 l -1.4879,-6.4457 c -8e-4,0.5471 -0.0337,1.0951 -0.1,1.6424 -0.2115,1.7439 -0.7977,3.3713 -1.715,4.8697 -1.0131,1.6548 -2.4571,2.9931 -4.0566,4.0714 -2.1014,1.417 -4.813,2.2558 -7.2633,2.8213 l -6.9363,1.601 c -0.4805,0.1108 -0.9658,0.1539 -1.4587,0.1227 -0.654,-0.0411 -1.2921,-0.2344 -1.8579,-0.5652 -0.0666,-0.0388 -0.1318,-0.0794 -0.1958,-0.1216 l 2.9029,6.4307 c 0.2625,0.5811 0.3733,1.205 0.2988,1.8405 -0.0927,0.7932 -0.4731,1.4939 -1.046,2.0418 l -0.0386,0.0369 -0.0399,0.0354 c -0.2614,0.2322 -0.5494,0.4385 -0.8439,0.6267 -0.3937,0.252 -0.8229,0.4638 -1.2487,0.656 -0.3974,0.1791 -0.8067,0.3413 -1.2262,0.4617 -0.3362,0.0964 -0.6818,0.1755 -1.029,0.2183 l -0.0519,0.007 -0.0521,0.004 c -0.7257,0.0623 -1.4434,-0.076 -2.0739,-0.4502 -0.612,-0.3634 -1.0675,-0.8997 -1.3592,-1.546 l -2.2405,-4.9629 -18.2605,8.2432 2.2405,4.9629 c 0.29,0.642 0.3918,1.347 0.2605,2.0415 -0.1318,0.6973 -0.4844,1.3124 -0.9844,1.8096 l -0.0735,0.0732 -0.0785,0.0674 c -0.2528,0.2172 -0.5247,0.4144 -0.8053,0.5944 -0.3736,0.2401 -0.7753,0.4428 -1.1798,0.6257 -0.4201,0.1896 -0.8558,0.3673 -1.2997,0.4935 -0.3191,0.0907 -0.6457,0.1641 -0.9745,0.21 l -0.1046,0.0148 -0.1055,0.007 c -0.7018,0.0453 -1.398,-0.0973 -2.006,-0.4584 -0.612,-0.3634 -1.0676,-0.8997 -1.3593,-1.546 l -1.9953,-4.4198 -12.9928,8.475 c -0.8774,0.5723 -1.8993,0.8201 -2.9433,0.743 -1.472,-0.1086 -2.6192,-0.9853 -3.4047,-2.1895 l -16.6294,-25.4937 c -0.7846,-1.203 -1.1251,-2.6084 -0.6313,-3.9985 0.3507,-0.9873 0.9879,-1.8213 1.8661,-2.3942 l 13.5686,-8.8506 c 0.5573,-0.3634 1.1934,-0.5632 1.8584,-0.5805 0.7245,-0.0187 1.4244,0.1942 2.0316,0.5862 l 0.0592,0.0385 0.0575,0.0411 c 0.3056,0.2197 0.5905,0.4658 0.8519,0.7365 0.3293,0.3407 0.6114,0.7288 0.8699,1.1251 0.2506,0.3838 0.4762,0.7792 0.6511,1.2038 0.1505,0.3649 0.267,0.7461 0.3407,1.1339 l 0.0193,0.1023 0.0119,0.1035 c 0.0732,0.6347 -0.0161,1.2801 -0.2687,1.8677 l -0.0187,0.0437 -0.0204,0.0431 c -0.2835,0.6029 -0.7231,1.1055 -1.2816,1.4697 l -8.812,5.7481 2.7439,4.2069 7.2292,-4.716 c 0.5995,-0.3909 1.3,-0.5927 2.016,-0.5726 l 0.0527,10e-4 0.0528,0.003 c 0.5425,0.0354 1.0672,0.1856 1.5488,0.4365 0.493,0.2571 0.9074,0.6126 1.2733,1.0275 0.2838,0.3218 0.5372,0.6696 0.7713,1.0287 0.2294,0.3518 0.4405,0.7181 0.6129,1.1013 0.2208,0.4915 0.3696,0.9984 0.4051,1.5384 0.0419,0.6451 -0.0794,1.2923 -0.3702,1.8711 l -0.0205,0.0411 -0.0221,0.0403 c -0.2905,0.5346 -0.7066,0.9745 -1.2163,1.307 l -7.2295,4.7155 3.5702,5.4734 8.9709,-5.8516 c 0.5555,-0.3623 1.1885,-0.5618 1.8513,-0.5802 0.4033,-0.8156 1.0916,-1.4369 1.9403,-1.8199 l 0.4983,-0.2251 c 0.0451,-0.2505 0.0859,-0.5017 0.1227,-0.7537 0.1041,-0.7135 0.1321,-1.4448 0.1194,-2.1648 -0.0184,-1.0298 -0.1383,-2.0781 -0.2857,-3.0966 -0.2197,-1.5168 -0.559,-3.0415 -0.9171,-4.5312 -0.5229,-2.1764 -1.1216,-4.3398 -1.7489,-6.4882 -0.8717,-2.986 -1.8066,-5.9561 -2.7618,-8.9161 l -0.0253,-0.0779 -0.0206,-0.0791 c -0.2512,-0.9655 -0.3442,-1.9709 -0.0871,-2.9463 0.3308,-1.2544 1.2138,-2.2017 2.3871,-2.7312 l 14.3549,-6.48 c 1.1027,-0.4978 2.3173,-0.5542 3.4452,-0.1092 l 0.0403,0.0159 0.0397,0.017 c 1.1364,0.489 1.9264,1.4137 2.4273,2.5234 l 10.5389,23.3456 0.5173,-0.2333 c 1.1226,-0.5068 2.3681,-0.5184 3.4498,0.1106 0.3251,0.189 0.6097,0.4203 0.8589,0.6837 z m -96.3479,62.0453 c -0.005,-0.8456 0.3107,-1.6705 0.9159,-2.3128 0.5944,-0.631 1.3498,-0.9641 2.169,-1.1903 0.4743,-0.1309 0.9516,-0.3039 1.4148,-0.4691 0.5434,-0.1942 1.0888,-0.5057 1.5755,-0.8121 0.6868,-0.4326 1.3258,-1.0282 1.8805,-1.6169 0.5358,-0.5692 1.0324,-1.213 1.3802,-1.916 0.2565,-0.5187 0.4501,-1.0703 0.506,-1.6492 0.0408,-0.4229 -0.009,-0.826 -0.1517,-1.2257 -0.1375,-0.386 -0.369,-0.6984 -0.6664,-0.9785 -0.3747,-0.3529 -0.7928,-0.6386 -1.2807,-0.8101 -0.4065,-0.1432 -0.8084,-0.1772 -1.2362,-0.1196 -0.5936,0.0796 -1.1846,0.3393 -1.6999,0.6352 -0.8039,0.4612 -1.5239,1.1001 -2.1566,1.7722 l -2.7459,2.9155 c -0.4306,0.4572 -0.9335,0.822 -1.5293,1.0295 -0.6248,0.2217 -1.2884,0.2614 -1.9384,0.1318 l -0.0487,-0.0102 c -0.5562,-0.121 -1.0743,-0.3682 -1.5406,-0.6911 -0.3583,-0.2483 -0.6911,-0.5332 -1.008,-0.8317 -0.3102,-0.2917 -0.6078,-0.6026 -0.8691,-0.9394 -0.3167,-0.4082 -0.5667,-0.8546 -0.7334,-1.3444 l -0.0326,-0.0956 -0.0255,-0.0978 c -0.1723,-0.6565 -0.18,-1.3436 0.0176,-1.9944 0.1692,-0.5791 0.4754,-1.1018 0.8892,-1.5415 l 2.579,-2.7386 c 0.5604,-0.5949 1.0667,-1.2506 1.4516,-1.9734 0.2554,-0.4794 0.4575,-1.0134 0.5173,-1.556 0.0434,-0.3943 -0.002,-0.7639 -0.1406,-1.1352 -0.1559,-0.4179 -0.464,-0.7889 -0.7849,-1.0908 -0.2713,-0.2554 -0.5808,-0.4862 -0.9286,-0.6253 -0.2234,-0.0896 -0.4266,-0.125 -0.6656,-0.1012 -0.3464,0.0348 -0.6894,0.1774 -0.9918,0.3438 -0.5233,0.2872 -1.008,0.7328 -1.4148,1.1645 -0.5153,0.5474 -1.0003,1.1548 -1.3555,1.8201 -0.2934,0.5502 -0.5925,1.1475 -0.7895,1.7402 -0.1667,0.5017 -0.3209,1.0097 -0.4501,1.5222 -0.205,0.8116 -0.4981,1.5888 -1.0826,2.2096 -0.4923,0.5227 -1.1276,0.8819 -1.8382,1.0043 -0.6381,0.1103 -1.2929,0.0207 -1.8876,-0.2287 -0.4204,-0.1721 -0.8031,-0.4164 -1.1568,-0.7005 -0.2778,-0.2231 -0.5437,-0.4626 -0.8028,-0.7067 -0.2177,-0.2052 -0.4275,-0.4192 -0.6279,-0.6414 -0.2415,-0.2679 -0.4669,-0.5494 -0.6599,-0.8541 -0.2013,-0.3178 -0.3747,-0.6469 -0.4788,-0.934 -0.1771,-0.449 -0.2678,-0.917 -0.2976,-1.3972 l -0.005,-0.0896 0,-0.0896 c 9e-4,-0.6364 0.1749,-1.3221 0.3512,-1.9312 0.241,-0.832 0.5808,-1.6418 0.9652,-2.4171 0.4493,-0.906 0.9695,-1.781 1.529,-2.6229 0.6727,-1.0123 1.4406,-1.9562 2.2734,-2.8403 1.2155,-1.2912 2.5943,-2.4721 4.1528,-3.3305 1.4,-0.7707 2.9046,-1.2971 4.5,-1.4581 1.563,-0.1579 3.1082,0.0561 4.5677,0.6367 1.4355,0.5711 2.7148,1.4306 3.8373,2.4876 1.0202,0.961 1.8932,2.0597 2.5177,3.3186 0.5672,1.1437 0.9448,2.3649 1.0735,3.6371 0.0218,0.2143 0.0366,0.428 0.0445,0.6412 0.5355,-0.0666 1.0763,-0.0941 1.6194,-0.0811 1.3612,0.0323 2.6788,0.3144 3.9444,0.817 1.3388,0.5315 2.5376,1.3116 3.5853,2.2983 1.326,1.2489 2.4035,2.7162 3.1062,4.4022 0.6956,1.6696 0.9694,3.4526 0.8464,5.2563 -0.1287,1.8847 -0.6976,3.6887 -1.5369,5.3736 -0.9442,1.8961 -2.2533,3.6068 -3.7015,5.1443 -0.83,0.8813 -1.7277,1.7133 -2.7099,2.4228 -0.7881,0.5692 -1.6192,1.0962 -2.4908,1.5276 -0.593,0.2937 -1.2147,0.5811 -1.8454,0.7914 0.002,0.0168 0.003,0.0335 0.005,0.0502 l 0.008,0.0978 0.002,0.0984 c 0.0148,0.8044 -0.2517,1.5599 -0.6695,2.2376 -0.282,0.457 -0.6097,0.8958 -0.9403,1.3187 -0.3146,0.4028 -0.6377,0.811 -0.985,1.186 -0.3433,0.3711 -0.7189,0.7169 -1.1503,0.9837 -0.597,0.369 -1.2685,0.5728 -1.9735,0.5587 -0.3685,-0.007 -0.7293,-0.0624 -1.0865,-0.1523 l -0.1071,-0.0272 -6.5489,-2.2053 -6.2501,7.9965 3.6275,5.5565 c 0.2568,0.3931 0.4535,0.8064 0.5706,1.2625 0.1539,0.5987 0.144,1.2076 0.0221,1.747 -0.1143,0.5687 -0.3606,1.0865 -0.6596,1.5786 -0.2639,0.4343 -0.5709,0.8496 -0.8836,1.2496 -0.3353,0.4291 -0.6894,0.8574 -1.0806,1.2367 -0.6162,0.5973 -1.3373,1.0375 -2.1996,1.1554 -1.0066,0.144 -1.99,-0.1712 -2.7647,-0.826 -0.4776,-0.4034 -0.858,-0.9037 -1.1693,-1.4102 l -17.937,-28.5384 c -0.2999,-0.4774 -0.512,-1.0111 -0.6021,-1.5684 -0.1123,-0.692 -0.0213,-1.3904 0.2333,-2.0398 0.1723,-0.4646 0.413,-0.9037 0.6862,-1.3159 0.2804,-0.4226 0.5922,-0.8297 0.9043,-1.2291 0.328,-0.4198 0.6633,-0.841 1.0213,-1.2356 0.3373,-0.3722 0.7095,-0.7225 1.1223,-1.0111 0.5513,-0.4005 1.186,-0.6591 1.8649,-0.7418 l 0.0473,-0.006 0.0473,-0.004 c 0.5962,-0.0521 1.194,0.025 1.6918,0.2027 l 27.2497,8.9408 z m -38.2734,90.6647 c 0.0337,0.1154 0.0624,0.233 0.0862,0.3521 l 0.0176,0.0887 0.0119,0.0896 c 0.0606,0.4544 0.0535,0.9156 0.007,1.3708 -0.0487,0.4796 -0.1397,0.9587 -0.2457,1.4287 -0.1191,0.5286 -0.2563,1.0695 -0.451,1.5755 -0.184,0.4779 -0.4238,0.9405 -0.7316,1.3507 l -0.0389,0.0507 c -0.4053,0.5156 -0.9113,0.9235 -1.5148,1.1863 -0.4326,0.1882 -0.8881,0.294 -1.3558,0.3336 l -8.729,1.2093 c -0.8521,0.1182 -1.7192,0.2993 -2.5294,0.5939 -0.5236,0.1907 -1.0485,0.4458 -1.4819,0.8005 -0.3827,0.3123 -0.6832,0.6874 -0.9207,1.1205 -0.1829,0.3339 -0.3325,0.688 -0.455,1.0511 l 11.7462,2.6492 c 0.6936,0.1565 1.3227,0.5103 1.802,1.0361 0.5111,0.5542 0.7968,1.2393 0.8887,1.9843 0.051,0.4144 0.0487,0.839 0.0198,1.2551 -0.0354,0.5089 -0.1307,1.0148 -0.2427,1.5115 -0.1099,0.4889 -0.2412,0.9791 -0.4234,1.4462 -0.1545,0.3966 -0.3357,0.792 -0.5647,1.1512 -0.4022,0.6315 -0.9524,1.1264 -1.6498,1.4076 -0.6596,0.2705 -1.3804,0.3201 -2.0752,0.1633 l -31.9836,-7.2136 c -0.6874,-0.155 -1.3073,-0.5133 -1.7799,-1.0344 -0.5085,-0.5536 -0.7925,-1.237 -0.8844,-1.98 -0.0519,-0.4217 -0.0462,-0.8557 -0.0156,-1.2792 0.036,-0.5003 0.1279,-0.9992 0.2381,-1.4882 0.1123,-0.4972 0.2438,-0.9953 0.4303,-1.4703 0.1522,-0.3875 0.3322,-0.7711 0.5559,-1.1228 0.4122,-0.6492 0.9808,-1.154 1.7042,-1.4318 0.6403,-0.2455 1.3275,-0.2997 1.9967,-0.1486 l 10.8204,2.4407 c 0.0352,-0.3266 0.0457,-0.6557 0.0162,-0.97 -0.0411,-0.44 -0.1491,-0.8692 -0.3518,-1.2635 -0.2407,-0.4677 -0.5961,-0.8815 -0.9754,-1.2424 -0.5919,-0.5632 -1.2946,-1.0496 -1.9871,-1.4794 l -6.6345,-4.119 c -0.337,-0.1964 -0.6556,-0.432 -0.9382,-0.7013 l -0.0397,-0.0385 c -0.485,-0.4805 -0.819,-1.0795 -0.9967,-1.7371 l -0.0232,-0.0865 -0.0182,-0.0876 c -0.1023,-0.5023 -0.1221,-1.017 -0.0833,-1.5276 0.0405,-0.532 0.1457,-1.0692 0.263,-1.5893 0.1063,-0.4723 0.2297,-0.9477 0.3949,-1.4029 0.1525,-0.4204 0.3413,-0.826 0.5851,-1.2016 l 0.0496,-0.0763 0.0541,-0.0728 c 0.4814,-0.6466 1.1404,-1.1211 1.9293,-1.3159 0.5556,-0.1369 1.1239,-0.1369 1.6815,-0.0107 0.4516,0.102 0.8861,0.2673 1.296,0.4807 0.3166,0.1647 0.6267,0.3422 0.9306,0.5293 l 0.0411,0.0252 6.3227,4.2004 c 0.9649,0.6125 1.8969,1.2824 2.7669,2.0242 0.7818,0.6664 1.4944,1.4145 2.0982,2.2464 0.087,0.1199 0.1712,0.2413 0.2528,0.364 0.2506,-0.1749 0.5077,-0.3401 0.7708,-0.4961 0.9445,-0.5606 1.9735,-0.9793 3.0263,-1.2875 1.146,-0.3356 2.3368,-0.5587 3.5155,-0.7429 l 5.7679,-0.9014 -23.457,-19.5682 c -0.4331,-0.3614 -0.7999,-0.8036 -1.0581,-1.3062 -0.3203,-0.6233 -0.4496,-1.3135 -0.4088,-2.0097 0.0201,-0.4955 0.1137,-0.9882 0.2463,-1.4653 0.1358,-0.4884 0.3062,-0.9722 0.4797,-1.4485 0.1822,-0.5006 0.3705,-1.0051 0.589,-1.491 0.2058,-0.4578 0.451,-0.9059 0.754,-1.3076 0.4008,-0.5522 0.925,-0.9944 1.5455,-1.283 l 0.0411,-0.019 0.0416,-0.0178 c 0.5494,-0.2344 1.1475,-0.347 1.675,-0.3319 l 33.7485,0.0884 c 0.606,0.008 1.2073,0.0578 1.7878,0.2446 0.9805,0.3158 1.7745,1.0075 2.1795,1.9588 l 0.0383,0.0901 0.032,0.0927 c 0.2637,0.7608 0.2441,1.5625 0.0559,2.3366 -0.1267,0.5219 -0.3025,1.0406 -0.4862,1.5452 -0.1749,0.4801 -0.356,0.9686 -0.5703,1.4329 -0.2117,0.4583 -0.4615,0.9028 -0.7889,1.2897 -0.4549,0.5378 -1.0281,0.9375 -1.7053,1.1424 -0.3512,0.1066 -0.7101,0.1658 -1.076,0.1911 l -0.112,0.008 -6.9117,-0.0723 -3.471,9.5372 5.1684,4.1624 c 0.3656,0.2942 0.6803,0.6264 0.9329,1.0236 0.3322,0.5227 0.5096,1.1015 0.5618,1.6582 0.0663,0.5746 -0.008,1.1421 -0.1395,1.7014 -0.1168,0.4949 -0.28,0.9847 -0.4538,1.4621 -0.1862,0.5119 -0.3906,1.029 -0.6457,1.5109 -0.161,0.3038 -0.3456,0.589 -0.5596,0.8461 z m -14.5851,53.1658 -27.8751,-2.1121 c -1.4331,-0.1086 -2.7547,-0.692 -3.5586,-1.9301 -0.5703,-0.8788 -0.845,-1.8919 -0.7656,-2.9373 l 0.5862,-7.7358 c 0.1451,-1.9184 0.4431,-3.956 1.1322,-5.7608 0.5808,-1.5216 1.4144,-2.9333 2.5611,-4.098 1.1247,-1.1433 2.4763,-1.9701 4.0011,-2.467 1.5392,-0.5015 3.1586,-0.6339 4.7676,-0.5117 1.023,0.0774 2.0324,0.2747 3.0033,0.6092 0.9603,0.3311 1.8657,0.7976 2.6929,1.3872 0.2571,0.1832 0.5037,0.3776 0.7401,0.5829 0.5043,-0.5525 1.0647,-1.052 1.6761,-1.4933 1.0656,-0.7691 2.2624,-1.3145 3.5258,-1.6674 1.3685,-0.3824 2.789,-0.4921 4.2035,-0.3846 1.2747,0.0963 2.5389,0.3481 3.7329,0.8115 1.1183,0.434 2.162,1.0128 3.0997,1.7632 0.9102,0.7285 1.6931,1.5868 2.3425,2.5551 0.6472,0.9658 1.1484,2.0191 1.5188,3.1204 0.3762,1.1191 0.6188,2.2793 0.7456,3.4526 0.1414,1.3087 0.1272,2.6388 0.0277,3.9501 l -0.6738,8.8934 c -0.0791,1.0454 -0.5031,2.0055 -1.1996,2.7881 -0.3189,0.3583 -0.6812,0.6401 -1.0743,0.8536 0.1085,0.0785 0.2131,0.1638 0.3132,0.2559 l 0.0723,0.0666 0.0677,0.0715 c 0.5539,0.5859 0.8646,1.3209 1.0123,2.105 0.0995,0.5275 0.1528,1.0723 0.1933,1.6075 0.0389,0.5094 0.0746,1.0284 0.0709,1.5395 -0.004,0.5063 -0.0488,1.0154 -0.188,1.5035 -0.1933,0.6763 -0.5499,1.2759 -1.0817,1.7413 -0.2758,0.2418 -0.5779,0.4428 -0.9002,0.6168 l -0.1001,0.0539 -6.3292,2.7825 0.7671,10.1202 6.4238,1.6631 c 0.4539,0.1177 0.8771,0.2906 1.2705,0.548 0.5199,0.3401 0.9221,0.7962 1.1945,1.2767 0.2985,0.4975 0.4658,1.0463 0.576,1.6123 0.0973,0.4984 0.1506,1.0117 0.1888,1.5177 0.0414,0.5431 0.0681,1.0981 0.0343,1.6421 -0.0533,0.8566 -0.2897,1.6676 -0.8473,2.3358 -0.6477,0.7852 -1.5851,1.2138 -2.5996,1.2517 -0.6236,0.0233 -1.2438,-0.0904 -1.8142,-0.2548 l -32.4805,-9.0108 c -0.5437,-0.1508 -1.0601,-0.4028 -1.5026,-0.754 -0.5502,-0.4374 -0.9508,-1.0108 -1.2005,-1.6636 -0.1857,-0.4595 -0.3033,-0.9465 -0.379,-1.4355 -0.0777,-0.5012 -0.1216,-1.0122 -0.1599,-1.5179 -0.0402,-0.531 -0.0765,-1.0684 -0.0776,-1.6011 -0.001,-0.502 0.0379,-1.0116 0.1482,-1.5026 0.1383,-0.6693 0.4343,-1.2892 0.8824,-1.8082 l 0.0287,-0.0332 0.0295,-0.0323 c 0.4053,-0.4411 0.8994,-0.7872 1.3889,-0.9921 l 29.7879,-13.3747 z m -18.2064,59.1491 c 0.078,-0.0136 0.1562,-0.0264 0.2347,-0.0374 0.4539,-0.0644 0.9125,-0.0836 1.2887,-0.0397 0.6159,0.0524 1.2149,0.2472 1.7322,0.5873 0.6764,0.4377 1.1563,1.1072 1.3831,1.8794 0.2959,1.0063 0.0946,2.0157 -0.2742,2.9687 -0.204,0.5273 -0.3636,1.0837 -0.5017,1.6314 -0.1789,0.7078 -0.256,1.4626 -0.2871,2.1906 -0.038,0.8838 0.1615,1.8354 0.409,2.6787 0.2852,0.972 0.7333,1.8709 1.4187,2.6229 0.6585,0.7229 1.4548,1.2308 2.3704,1.5721 1.1789,0.4394 2.463,0.5916 3.7153,0.5825 1.6872,-0.0122 3.4008,-0.3515 5.0148,-0.8251 1.5914,-0.4672 3.204,-1.0928 4.614,-1.9758 0.9938,-0.6225 1.9522,-1.3994 2.6393,-2.3587 0.5491,-0.7665 0.8963,-1.6067 1.0244,-2.541 0.148,-1.0797 -0.005,-2.1713 -0.3103,-3.2108 -0.2501,-0.8521 -0.6007,-1.7441 -1.1061,-2.4797 -0.4153,-0.6046 -0.8864,-1.2181 -1.419,-1.7249 -0.4332,-0.4124 -0.8845,-0.8283 -1.3564,-1.1965 -0.7915,-0.6171 -1.478,-1.3535 -1.7671,-2.3406 -0.1766,-0.6026 -0.1951,-1.2376 -0.036,-1.8465 0.197,-0.7551 0.6491,-1.3694 1.2668,-1.8334 l 0.043,-0.0318 c 0.353,-0.2545 0.7447,-0.4566 1.1469,-0.621 0.3969,-0.1622 0.8116,-0.2914 1.2229,-0.4122 0.3135,-0.0921 0.6302,-0.1752 0.9505,-0.2401 0.3617,-0.0734 0.7242,-0.1219 1.0939,-0.1247 0.3792,-0.003 0.7591,0.0334 1.1284,0.1208 l 0.0488,0.0116 0.0482,0.0133 c 0.3957,0.1083 0.7778,0.2801 1.1372,0.4765 0.5616,0.307 1.1078,0.7634 1.59,1.1829 0.7189,0.6253 1.3652,1.3507 1.9587,2.0945 0.7243,0.9077 1.3485,1.8989 1.9066,2.916 0.6735,1.2269 1.1877,2.5333 1.5815,3.8753 0.6808,2.3198 0.9861,4.7616 0.727,7.1728 -0.2522,2.3453 -1.0179,4.5411 -2.2904,6.5273 -1.3186,2.0582 -3.0829,3.7488 -5.1032,5.1126 -2.2921,1.5471 -4.8852,2.6325 -7.531,3.4089 -2.7437,0.8053 -5.6036,1.2858 -8.4691,1.194 -2.5348,-0.0814 -5.0324,-0.5692 -7.3503,-1.6172 -2.226,-1.0066 -4.1383,-2.4486 -5.7121,-4.3166 -1.6151,-1.9176 -2.7345,-4.1502 -3.4387,-6.5497 -0.324,-1.1041 -0.5519,-2.2369 -0.6553,-3.3835 -0.0922,-1.0253 -0.127,-2.0585 -0.0723,-3.0872 0.0513,-0.9606 0.1834,-1.9173 0.4204,-2.8502 0.1811,-0.7138 0.409,-1.4913 0.7384,-2.0943 0.2058,-0.3943 0.4394,-0.782 0.7325,-1.1185 -0.2631,0.0266 -0.527,0.0411 -0.7909,0.0374 -0.4141,-0.006 -0.8334,-0.0502 -1.237,-0.1446 l -0.0743,-0.0184 c -0.7305,-0.1922 -1.3782,-0.578 -1.8553,-1.1659 -0.4042,-0.4878 -0.6695,-1.0689 -0.7719,-1.6957 l -3.8151,-23.3968 c -0.1023,-0.6274 -0.0352,-1.2637 0.1942,-1.855 0.2517,-0.671 0.7001,-1.2099 1.2285,-1.59 0.434,-0.3288 0.9238,-0.5513 1.4408,-0.7135 0.4088,-0.1278 0.8312,-0.2188 1.2535,-0.2877 0.4215,-0.0686 0.8493,-0.1162 1.2768,-0.1224 0.5329,-0.008 1.0576,0.0513 1.5644,0.2233 l 0.0573,0.0202 c 0.6241,0.2264 1.1704,0.5813 1.5902,1.0978 0.4053,0.4881 0.6715,1.0704 0.7738,1.698 l 1.0863,6.6622 26.4265,-4.3092 c 0.6866,-0.112 1.3746,-0.0241 2.0078,0.2631 0.7061,0.32 1.2433,0.8574 1.6163,1.5295 0.203,0.3657 0.36,0.7609 0.489,1.158 0.1576,0.485 0.2588,0.9898 0.3407,1.4927 0.0808,0.4944 0.1423,0.9978 0.1483,1.4993 0.005,0.4252 -0.015,0.8594 -0.0927,1.2781 -0.14,0.7549 -0.4779,1.4346 -1.0446,1.9621 -0.5094,0.4746 -1.135,0.7773 -1.8227,0.8896 l -26.4262,4.3089 1.0865,6.6628 c 0.102,0.6271 0.0349,1.2631 -0.1939,1.8547 -0.0938,0.2498 -0.216,0.4831 -0.3623,0.6985 z m 43.4883,-168.4321 8.208,4.6658 c 0.6696,0.3807 1.1934,0.9576 1.484,1.6705 0.2545,0.6137 0.3155,1.2747 0.2202,1.9304 l -0.009,0.0595 c -0.0697,0.4164 -0.1944,0.8238 -0.3447,1.2178 -0.1819,0.4768 -0.4203,0.9337 -0.6723,1.377 -0.2517,0.4428 -0.5225,0.8813 -0.8391,1.2816 -0.2591,0.3271 -0.5431,0.6426 -0.86,0.9147 -0.5698,0.4887 -1.2422,0.8028 -1.9933,0.868 -0.7036,0.0655 -1.4157,-0.0987 -2.0291,-0.4473 l -27.3767,-15.5622 c -1.2427,-0.7064 -2.1937,-1.7926 -2.4284,-3.2389 -0.1775,-1.0942 0.003,-2.1832 0.5519,-3.1487 l 3.607,-6.3456 c 0.3938,-0.6923 0.8127,-1.372 1.2688,-2.0248 0.5284,-0.756 1.1274,-1.4735 1.7442,-2.1586 0.8799,-0.9771 1.9233,-1.7813 3.0555,-2.4452 1.2194,-0.7149 2.5387,-1.2067 3.9308,-1.4522 1.4034,-0.2474 2.8315,-0.2112 4.229,0.0576 1.4782,0.2843 2.8856,0.8464 4.1918,1.5888 1.7005,0.9666 3.2233,2.1932 4.4337,3.7369 1.1514,1.4689 1.967,3.1207 2.3896,4.9391 0.4298,1.8496 0.4173,3.7378 0.076,5.6004 -0.3881,2.1206 -1.2651,4.1491 -2.3258,6.0154 l -0.512,0.9 z m 58.0995,-77.6724 c 0.7481,6e-4 1.4947,0.0782 2.2326,0.233 1.286,0.2693 2.4953,0.7866 3.6073,1.4828 1.2065,0.7552 2.2405,1.728 3.1156,2.8474 0.7874,1.0074 1.453,2.111 1.9148,3.3058 0.4326,1.1185 0.7078,2.2799 0.7846,3.4784 0.0749,1.1633 -0.032,2.3207 -0.3107,3.4531 -0.2778,1.1291 -0.7185,2.2088 -1.2832,3.2242 -0.5735,1.0318 -1.2677,1.9924 -2.0492,2.8763 -0.8719,0.9864 -1.8646,1.8717 -2.9009,2.6818 l -7.0271,5.4927 c -0.826,0.6455 -1.8213,0.9785 -2.869,0.991 -1.476,0.0176 -2.694,-0.7583 -3.5793,-1.8907 l -18.7446,-23.9814 c -0.8845,-1.1313 -1.3434,-2.5027 -0.9703,-3.9297 0.265,-1.0136 0.8288,-1.8992 1.6551,-2.5449 l 6.1124,-4.7775 c 1.5156,-1.1849 3.2221,-2.3377 5.0204,-3.0441 1.5154,-0.595 3.1218,-0.9301 4.7543,-0.8674 1.6024,0.0618 3.1237,0.5034 4.5181,1.2954 1.4083,0.8002 2.596,1.9074 3.5901,3.1793 0.6318,0.8085 1.1662,1.6875 1.5726,2.6303 0.4023,0.9329 0.667,1.9162 0.7886,2.9248 0.0377,0.3132 0.0604,0.6264 0.0678,0.9394 z M 49.2613,550.241 c -0.5845,0.2407 -1.2248,0.3217 -1.8516,0.233 l -6.6835,-0.9468 -3.7556,26.5111 c -0.0978,0.6896 -0.3872,1.3212 -0.8513,1.8405 -0.5153,0.5774 -1.1877,0.9295 -1.9394,1.0854 -0.4096,0.0847 -0.8337,0.1171 -1.2515,0.1219 -0.5097,0.006 -1.0216,-0.0479 -1.5259,-0.1194 -0.4964,-0.07 -0.9955,-0.161 -1.4763,-0.305 -0.4071,-0.1219 -0.8152,-0.2701 -1.1917,-0.4688 -0.6792,-0.3586 -1.2277,-0.8841 -1.5624,-1.5826 -0.2999,-0.6256 -0.4034,-1.3167 -0.3059,-2.0038 l 3.7556,-26.5108 -6.6838,-0.9467 c -0.6293,-0.089 -1.2158,-0.3427 -1.7127,-0.7373 -0.5564,-0.4331 -0.9428,-1.0199 -1.1667,-1.6869 l -0.0329,-0.0978 -0.0255,-0.0998 c -0.1004,-0.3912 -0.1559,-0.7945 -0.1726,-1.1979 -0.0193,-0.4618 0.0198,-0.9241 0.0844,-1.381 0.0647,-0.4564 0.1554,-0.912 0.2991,-1.3502 0.129,-0.3932 0.2959,-0.7792 0.506,-1.1361 l 0.0405,-0.0672 c 0.4005,-0.6392 0.961,-1.1421 1.6634,-1.4224 0.5842,-0.2401 1.2237,-0.3212 1.8501,-0.2325 l 23.4718,3.3251 c 0.6293,0.089 1.2169,0.343 1.7132,0.7378 0.5658,0.4405 0.9471,1.0299 1.1503,1.6419 0.186,0.5133 0.2523,1.0476 0.2532,1.5908 8e-4,0.4288 -0.0383,0.8597 -0.0984,1.2841 -0.0598,0.4218 -0.1417,0.8435 -0.2628,1.2526 -0.1505,0.5097 -0.3625,0.9924 -0.6758,1.4244 l -0.0433,0.0584 c -0.402,0.5258 -0.9017,0.9397 -1.518,1.186 z m 67.1967,15.9588 c 0.6157,-0.2546 1.2796,-0.3144 1.9375,-0.224 l 0.0816,0.0114 0.0808,0.0159 c 0.4215,0.083 0.8328,0.216 1.2297,0.3801 0.4294,0.1777 0.8467,0.394 1.2506,0.6233 0.4187,0.2378 0.8323,0.4924 1.2189,0.7798 0.3643,0.271 0.7115,0.5772 1.0043,0.9253 l 0.0465,0.0567 c 0.4459,0.5587 0.7317,1.212 0.7949,1.9258 0.0663,0.6985 -0.0868,1.4009 -0.4337,2.0112 l -4.9193,8.6536 2.0033,1.1387 c 1.91,1.0859 3.9464,2.397 5.4912,3.9719 1.2649,1.29 2.3091,2.7737 2.9784,4.458 0.6636,1.6711 0.9009,3.4243 0.7503,5.2155 -0.161,1.9154 -0.8127,3.7261 -1.7583,5.3898 -0.8218,1.4451 -1.8598,2.7468 -3.1104,3.8443 -1.3303,1.1676 -2.8803,1.9902 -4.5811,2.4792 -1.8853,0.542 -3.858,0.5491 -5.7855,0.2529 -2.5257,-0.3878 -5.1322,-1.6368 -7.3361,-2.8897 l -6.5489,-3.723 c -0.4232,-0.2404 -0.813,-0.5417 -1.1494,-0.8935 -0.4391,-0.4583 -0.7623,-0.9978 -0.9661,-1.5979 l -0.0266,-0.0782 -0.0221,-0.0799 c -0.1449,-0.5256 -0.1899,-1.0701 -0.161,-1.6132 0.0394,-0.7393 0.2761,-1.4378 0.6403,-2.0781 l 15.6294,-27.4938 c 0.3764,-0.6622 0.9553,-1.1758 1.6608,-1.4621 z m 95.2506,177.7345 c 0.2515,-0.4745 0.5956,-0.8855 0.9584,-1.1633 0.3206,-0.2633 0.6846,-0.4703 1.0639,-0.6361 0.3617,-0.1582 0.7381,-0.267 1.1216,-0.3569 0.37,-0.087 0.7458,-0.1559 1.1206,-0.2168 0.8685,-0.1415 1.7835,-0.2081 2.6433,0.0198 1.3634,0.3611 2.3828,1.3924 2.6118,2.7978 0.1052,0.6463 0.0187,1.2935 -0.1987,1.9072 l -0.017,0.0464 c -0.0762,0.2041 -0.1494,0.4091 -0.2174,0.6163 l -0.023,0.0672 c -0.032,0.0901 -0.0482,0.2316 -0.0572,0.326 l -0.007,0.0637 c -0.0198,0.1664 0.01,0.3898 0.0366,0.5531 0.0207,0.1267 0.0491,0.263 0.0921,0.3886 0.2381,0.1823 0.5879,0.3458 0.8578,0.4638 0.2633,0.115 0.5411,0.2174 0.824,0.3101 l 21.0118,-15.1356 0.0346,-0.0233 c 0.4969,-0.3364 1.0355,-0.6253 1.6144,-0.7914 1.1335,-0.3254 2.3147,-0.0859 3.1405,0.6395 0.6448,0.5321 1.0349,1.2461 1.2736,2.0347 0.1635,0.54 0.2693,1.1047 0.36,1.6611 0.0827,0.508 0.1533,1.0273 0.1771,1.5421 0.0247,0.5283 0.002,1.0488 -0.1221,1.5652 -0.1506,0.6285 -0.4233,1.209 -0.8493,1.6971 -0.2914,0.3411 -0.6321,0.6271 -1.0054,0.874 l -11.242,7.9625 c -0.5746,0.4147 -1.1517,0.8254 -1.7311,1.2331 0.7586,0.1618 1.5129,0.3274 2.2592,0.4957 l 12.7333,2.7366 c 0.496,0.0913 0.9632,0.2687 1.3895,0.5392 0.557,0.3455 0.9961,0.8382 1.2705,1.3458 0.2645,0.4559 0.4453,0.9559 0.5729,1.4658 0.119,0.4763 0.2038,0.9664 0.2826,1.4508 0.0932,0.5701 0.1644,1.1577 0.1599,1.7359 -0.006,0.7181 -0.116,1.4046 -0.4641,2.0416 -0.4997,0.9283 -1.3722,1.5562 -2.4165,1.7271 -0.6146,0.1004 -1.226,0.0431 -1.7476,-0.095 l -24.6625,-5.7356 c -1.87,-0.4348 -3.7792,-0.9122 -5.5925,-1.546 -1.421,-0.4966 -2.8559,-1.1446 -4.0717,-2.0421 -1.1392,-0.8413 -2.0817,-1.8924 -2.7062,-3.1697 -0.5644,-1.1534 -0.9159,-2.4009 -1.122,-3.6657 -0.0836,-0.5125 -0.1304,-1.0299 -0.1443,-1.5489 -0.0133,-0.5139 3e-4,-1.0298 0.0519,-1.4763 0.0423,-0.4688 0.1262,-0.9246 0.2359,-1.3821 l 0.0133,-0.055 0.0153,-0.0547 c 0.1188,-0.4204 0.2585,-0.8309 0.4708,-1.2133 z m 19.2736,50.2954 -12.0055,0.1265 c -0.7115,0.008 -1.4063,-0.1919 -1.9942,-0.5945 -0.5953,-0.4022 -1.0247,-0.9714 -1.2918,-1.6358 l -0.0187,-0.0474 c -0.1511,-0.3965 -0.2486,-0.8132 -0.3172,-1.2314 -0.083,-0.5034 -0.1068,-1.0182 -0.1119,-1.5275 -0.005,-0.5009 0.009,-1.0055 0.0799,-1.5021 0.0598,-0.4181 0.1483,-0.8357 0.2897,-1.2342 l 0.019,-0.0516 c 0.2735,-0.7246 0.7404,-1.3408 1.4026,-1.7504 0.5533,-0.3467 1.1849,-0.5148 1.8363,-0.5216 l 12.0067,-0.1267 c -0.0445,-0.2931 -0.1086,-0.5808 -0.1985,-0.851 -0.1564,-0.4705 -0.3809,-0.9172 -0.6993,-1.2994 -0.3228,-0.3872 -0.7089,-0.6978 -1.1474,-0.9447 -0.6523,-0.3674 -1.3595,-0.6489 -2.0452,-0.8694 l -8.6936,-2.7031 -0.0689,-0.0253 c -0.326,-0.1202 -0.6426,-0.2678 -0.9425,-0.4439 l -0.0573,-0.0334 -0.0555,-0.0363 c -0.5474,-0.3566 -0.9729,-0.8456 -1.2827,-1.4176 l -0.0439,-0.0811 -0.0383,-0.0836 c -0.2137,-0.4638 -0.3512,-0.9578 -0.4306,-1.4616 -0.0845,-0.5357 -0.1049,-1.0933 -0.1105,-1.635 -0.005,-0.4881 0.005,-0.9836 0.0606,-1.4692 0.0513,-0.449 0.1406,-0.9011 0.2931,-1.3274 l 0.0253,-0.0678 c 0.269,-0.6945 0.7103,-1.294 1.3325,-1.7045 0.5743,-0.39 1.2476,-0.5833 1.942,-0.5904 0.163,-0.002 0.3229,0.003 0.4856,0.0173 0.2191,0.0193 0.4363,0.0555 0.6514,0.1009 0.2115,0.0445 0.421,0.0964 0.6285,0.157 0.2202,0.0647 0.439,0.135 0.6134,0.1965 l 7.7496,2.5826 c 1.1832,0.3943 2.3689,0.843 3.4798,1.4131 0.9771,0.5012 1.9154,1.0908 2.7491,1.8085 0.2593,0.2234 0.5059,0.4584 0.7395,0.7047 0.0695,-0.0624 0.1401,-0.1239 0.2115,-0.1843 0.8039,-0.6803 1.7022,-1.2421 2.6422,-1.7141 1.0621,-0.5332 2.1926,-0.9626 3.3137,-1.3538 l 7.1022,-2.4781 c 0.3322,-0.1159 0.6681,-0.2239 1.0074,-0.3172 0.4456,-0.1224 0.9048,-0.1927 1.3671,-0.1978 0.6367,-0.007 1.2498,0.1414 1.8037,0.4567 0.654,0.3721 1.139,0.945 1.4494,1.6248 l 0.0377,0.0825 0.0326,0.0847 c 0.1582,0.4144 0.2577,0.8527 0.3192,1.2915 0.0663,0.4745 0.0876,0.9632 0.0924,1.4422 0.006,0.5406 -0.003,1.0976 -0.0768,1.6339 -0.0701,0.5049 -0.1965,1.0015 -0.4011,1.4692 l -0.0358,0.082 -0.0411,0.0796 c -0.3517,0.6834 -0.8866,1.2453 -1.5735,1.5976 l -0.0714,0.0354 c -0.186,0.0888 -0.3736,0.1738 -0.5627,0.2557 l -0.1315,0.0567 -8.1717,2.5943 c -0.6778,0.2231 -1.3751,0.4904 -1.9985,0.8405 -0.3472,0.195 -0.6661,0.4385 -0.9161,0.7506 -0.2361,0.2945 -0.3818,0.6636 -0.4788,1.025 -0.0689,0.2562 -0.1165,0.5281 -0.1482,0.8045 l 11.0704,-0.1165 c 0.6264,-0.007 1.2302,0.1468 1.775,0.4569 0.6943,0.3952 1.19,1.0134 1.4848,1.7484 l 0.019,0.0491 c 0.15,0.3951 0.2469,0.8107 0.3155,1.2271 0.0817,0.4952 0.1069,1 0.112,1.5012 0.005,0.5097 -0.008,1.025 -0.0799,1.5301 -0.0601,0.4187 -0.1486,0.8365 -0.2906,1.2354 l -0.0173,0.0467 c -0.2591,0.6886 -0.6928,1.2807 -1.3048,1.6977 -0.5678,0.3869 -1.22,0.5967 -1.9077,0.6038 l -11.0511,0.1165 c 0.0388,0.2276 0.0907,0.451 0.1593,0.6644 0.1289,0.4026 0.3146,0.7824 0.5896,1.1058 0.2905,0.3416 0.6573,0.6132 1.0465,0.8323 0.5675,0.3195 1.2053,0.5499 1.8281,0.7344 l 8.0629,2.3902 c 0.3821,0.1134 0.752,0.2634 1.0227,0.4232 0.6367,0.3476 1.1435,0.8652 1.489,1.503 l 0.0295,0.0558 c 0.2483,0.4842 0.3988,1.0165 0.4833,1.5525 0.0831,0.5276 0.1046,1.0749 0.11,1.6084 0.005,0.487 -0.005,0.9802 -0.0612,1.4644 -0.0513,0.4416 -0.1432,0.8782 -0.2934,1.2971 l -0.0301,0.0839 -0.0354,0.0817 c -0.3195,0.7409 -0.8515,1.3549 -1.5749,1.7263 -0.5083,0.2608 -1.0602,0.3912 -1.6311,0.3974 -0.4986,0.006 -0.9949,-0.0748 -1.4729,-0.2137 -0.2077,-0.0607 -0.4305,-0.1046 -0.6423,-0.1508 l -0.1426,-0.0312 -7.1382,-2.348 c -1.0567,-0.3475 -2.109,-0.7392 -3.1187,-1.2081 -0.9436,-0.4382 -1.8515,-0.9748 -2.6124,-1.6104 -0.1581,-0.1272 -0.3121,-0.259 -0.4617,-0.3957 -0.2804,0.3099 -0.5791,0.6032 -0.8958,0.8799 -0.8362,0.7296 -1.7776,1.3382 -2.7629,1.8465 -1.097,0.5661 -2.2615,1.0301 -3.4254,1.4389 l -7.6362,2.6795 c -0.1931,0.0723 -0.3858,0.1458 -0.5814,0.2109 -0.2373,0.0854 -0.4709,0.1613 -0.6704,0.2056 -0.1338,0.0323 -0.2665,0.0578 -0.4008,0.0858 -0.2526,0.0531 -0.5004,0.0871 -0.7592,0.0896 -0.7786,0.008 -1.5298,-0.2191 -2.1486,-0.6953 -0.5131,-0.3895 -0.898,-0.902 -1.1537,-1.4927 l -0.0275,-0.0658 c -0.1772,-0.4394 -0.2798,-0.9116 -0.3416,-1.3805 -0.0643,-0.4864 -0.085,-0.9839 -0.0901,-1.4743 -0.006,-0.5332 0.004,-1.0805 0.0762,-1.6092 0.0689,-0.5068 0.1956,-1.012 0.4003,-1.4817 l 0.028,-0.0623 c 0.3116,-0.6701 0.7835,-1.2317 1.4162,-1.62 0.2954,-0.1815 0.6078,-0.326 0.9301,-0.4527 l 0.0609,-0.0241 8.6267,-2.9376 c 0.7211,-0.2454 1.493,-0.5544 2.135,-0.9691 0.4391,-0.2835 0.8405,-0.6271 1.162,-1.0412 0.2772,-0.3572 0.4575,-0.7631 0.572,-1.1991 0.068,-0.2582 0.1174,-0.5235 0.1519,-0.7917 z m -469.8102,10.8692 5.7164,1.5024 -0.2937,-3.8759 -5.4227,2.3735 z m -6.353,-30.1924 5.3853,0.4079 0.176,-2.3247 c 0.0374,-0.4943 0.0655,-1.2699 -0.0981,-1.7487 -0.1108,-0.3242 -0.269,-0.6199 -0.4668,-0.8348 -0.2152,-0.2245 -0.4709,-0.3869 -0.7586,-0.5034 -0.4082,-0.1647 -0.8334,-0.2631 -1.2725,-0.2965 -0.4515,-0.034 -0.9181,-0.019 -1.3589,0.0927 -0.2191,0.0556 -0.4002,0.1463 -0.5675,0.2982 -0.2197,0.1998 -0.3784,0.5187 -0.4861,0.7894 -0.2602,0.6537 -0.36,1.5753 -0.4127,2.2709 l -0.1401,1.849 z m 14.6461,1.1098 6.3544,0.4813 0.2837,-3.7426 c 0.0462,-0.6111 0.0428,-1.281 -0.0969,-1.881 -0.0955,-0.4108 -0.2543,-0.7858 -0.4972,-1.1302 -0.2007,-0.2849 -0.4592,-0.4978 -0.7631,-0.667 -0.3886,-0.2169 -0.8606,-0.3081 -1.2994,-0.3416 -0.5258,-0.0397 -1.1069,-0.0227 -1.6115,0.1451 -0.3614,0.12 -0.6656,0.3025 -0.9329,0.5729 -0.3415,0.3456 -0.5734,0.8059 -0.7426,1.2561 -0.3082,0.8197 -0.4332,1.8541 -0.4989,2.7218 l -0.1956,2.5852 z m 5.2679,-64.5038 4.5898,3.7244 1.3295,-3.6527 -5.9193,-0.0717 z m 12.6604,-42.5727 6.9953,3.9767 0.6228,-1.0958 c 0.3719,-0.654 0.7733,-1.4891 0.8847,-2.2414 0.0756,-0.5136 0.0728,-1.0242 -0.0692,-1.5262 -0.1327,-0.4688 -0.3694,-0.8796 -0.6857,-1.2495 -0.4187,-0.4895 -0.9244,-0.8807 -1.4831,-1.1982 -0.5916,-0.3362 -1.351,-0.6758 -2.0455,-0.6826 -0.4436,-0.005 -0.9419,0.0505 -1.3342,0.2753 -0.4173,0.2392 -0.8014,0.5403 -1.0993,0.9204 -0.4074,0.5193 -0.7878,1.0652 -1.114,1.6393 l -0.6718,1.182 z m 22.3168,-22.0425 3.2131,4.9615 2.3939,-3.0628 -5.607,-1.8987 z m 34.7483,-45.4274 3.3256,4.2548 1.8371,-1.4361 c 0.3903,-0.3053 0.9831,-0.807 1.2265,-1.25 0.1653,-0.3008 0.277,-0.6166 0.3025,-0.9077 0.021,-0.3093 -0.0317,-0.6095 -0.1392,-0.8994 -0.1533,-0.4128 -0.3668,-0.7932 -0.6378,-1.1401 -0.2789,-0.3569 -0.6043,-0.6917 -0.9839,-0.9423 -0.1888,-0.1244 -0.3776,-0.1973 -0.6023,-0.2185 -0.296,-0.0278 -0.6384,0.0694 -0.9114,0.1723 -0.6582,0.2483 -1.4065,0.7954 -1.9562,1.2249 l -1.4609,1.1421 z m 9.0453,11.5721 3.9246,5.0207 2.9571,-2.3113 c 0.483,-0.3776 0.9759,-0.8314 1.3255,-1.3388 0.2389,-0.3473 0.409,-0.7172 0.5003,-1.1288 0.0754,-0.3401 0.0581,-0.6744 -0.0213,-1.0131 -0.1015,-0.4328 -0.352,-0.8436 -0.623,-1.1903 -0.3249,-0.4155 -0.7288,-0.8333 -1.1929,-1.0936 -0.3316,-0.1859 -0.6715,-0.2882 -1.051,-0.3036 -0.4856,-0.0195 -0.982,0.1188 -1.429,0.2971 -0.8132,0.3246 -1.6622,0.9292 -2.3479,1.4652 l -2.0424,1.5965 z m 50.3181,-47.3374 -4.337,1.9576 c 0.6154,1.9607 1.2109,3.9285 1.7685,5.9051 0.591,2.0959 1.154,4.2032 1.6566,6.3224 0.3767,1.588 0.7259,3.2003 0.9677,4.8149 0.1763,1.1792 0.3087,2.3769 0.3464,3.5697 l 8.1295,-3.6697 -8.5317,-18.9 z m 30.2938,2.9625 1.6762,7.2615 1.7631,-0.4071 c 0.9196,-0.2123 2.5282,-0.6262 3.3066,-1.1849 0.3589,-0.2574 0.8224,-0.6443 1.0262,-1.0482 0.1908,-0.3782 0.3067,-0.7676 0.3294,-1.1917 0.0243,-0.451 0.0136,-0.9301 -0.0885,-1.3723 -0.1318,-0.5717 -0.3396,-1.1701 -0.6729,-1.6579 -0.2325,-0.3405 -0.5222,-0.5982 -0.8839,-0.7954 -0.462,-0.2523 -0.9952,-0.3666 -1.5162,-0.4065 -1.0168,-0.0786 -2.4973,0.2386 -3.4838,0.4663 l -1.4562,0.3362 z m 40.2327,-21.4243 0.4082,5.385 2.3247,-0.1761 c 0.4944,-0.0377 1.2654,-0.1264 1.7138,-0.3602 0.3039,-0.1585 0.5726,-0.3595 0.7552,-0.5874 0.1894,-0.2466 0.3118,-0.5244 0.3832,-0.8266 0.1012,-0.4269 0.1344,-0.8648 0.1015,-1.3022 -0.0343,-0.4518 -0.1196,-0.9102 -0.2965,-1.3292 -0.0879,-0.2083 -0.2049,-0.3738 -0.3804,-0.5161 -0.2302,-0.1871 -0.5698,-0.296 -0.8535,-0.3615 -0.686,-0.1587 -1.6109,-0.1187 -2.3068,-0.066 l -1.8494,0.1403 z m 1.1101,14.6461 0.4819,6.3544 3.7426,-0.2838 c 0.6111,-0.0465 1.273,-0.1508 1.8453,-0.3792 0.3915,-0.1562 0.7382,-0.37 1.0423,-0.6617 0.2514,-0.2412 0.4224,-0.5295 0.5443,-0.8552 0.1556,-0.4167 0.1749,-0.8963 0.1417,-1.3354 -0.04,-0.5258 -0.1443,-1.0978 -0.3864,-1.5718 -0.1729,-0.3387 -0.3988,-0.6123 -0.7061,-0.8353 -0.3934,-0.2858 -0.8835,-0.4457 -1.3544,-0.5452 -0.8569,-0.1811 -1.8983,-0.1488 -2.766,-0.083 l -2.5852,0.1962 z m 32.2889,-9.0808 -1.9902,5.5658 3.8868,0.0417 -1.8966,-5.6075 z m 106.3593,36.7188 -3.71,6.526 1.9406,1.1032 c 0.8334,0.4737 2.3457,1.2881 3.3109,1.4071 0.4504,0.0556 1.0474,0.078 1.4822,-0.0839 0.3781,-0.1406 0.7197,-0.3384 1.0071,-0.6233 0.3289,-0.3263 0.6344,-0.6908 0.864,-1.0948 0.3016,-0.5303 0.5704,-1.1335 0.6679,-1.7402 0.0646,-0.4025 0.0363,-0.7798 -0.0933,-1.1661 -0.1669,-0.4972 -0.502,-0.9477 -0.8555,-1.3278 -0.701,-0.7543 -2.0661,-1.552 -2.9551,-2.0574 l -1.6588,-0.9428 z m 58.3324,36.455 -5.3929,2.4196 2.6621,2.8327 2.7308,-5.2523 z m 27.9457,23.5777 -0.8685,-1.2163 c -0.5259,-0.7359 -1.3729,-1.8896 -2.1034,-2.4339 -0.3407,-0.2539 -0.7755,-0.5212 -1.1965,-0.6131 -0.2965,-0.0646 -0.5626,-0.0575 -0.854,0.025 -0.4451,0.1258 -0.8487,0.3353 -1.2243,0.6037 -0.3668,0.262 -0.6852,0.5715 -0.9352,0.9479 -0.1944,0.2926 -0.3075,0.6033 -0.3543,0.9519 -0.0607,0.453 0.0346,0.9482 0.167,1.3802 0.2571,0.8399 0.9504,1.8678 1.4561,2.5756 l 0.9474,1.326 4.9657,-3.547 z m 28.9236,173.827 -6.5773,-0.9317 -0.4178,2.95 c -0.1153,0.8144 -0.2063,1.8011 -0.0734,2.6192 0.0655,0.4022 0.1888,0.8348 0.4258,1.1724 0.2214,0.3149 0.5096,0.557 0.8421,0.7498 0.4388,0.2542 0.9522,0.3894 1.4514,0.4603 0.4992,0.0706 1.0298,0.0834 1.5219,-0.0391 0.3679,-0.0916 0.6837,-0.2446 0.976,-0.4856 0.3398,-0.2798 0.5961,-0.6806 0.7883,-1.0718 0.3625,-0.7381 0.5499,-1.8005 0.6641,-2.6075 l 0.3989,-2.816 z m 0.9683,34.1895 -4.8169,-3.4256 -1.0948,3.7298 5.9117,-0.3042 z"
         style="fill:#000000;fill-rule:evenodd"
         id="path34"
         inkscape:connector-curvature="0" />
    </g>
    <text
       sodipodi:linespacing="0%"
       style="line-height:0%;letter-spacing:4.23999977px;word-spacing:0.20999999px"
       id="text36">
      <textPath
         style="line-height:0%;letter-spacing:4.23999977px;word-spacing:0.20999999px"
         id="textPath3108"
         xlink:href="#path14"><tspan
   dx="0 0 -1.67 0 0 0 0 0 0 0 0 0 0 0 0 0 0 0 0 0 0 0 0 0 6.4000001 -2.8399999"
   dy="47.380001"
   style="font-size:54px;line-height:0%;font-family:Calibri;letter-spacing:4.23999977px;word-spacing:0.20999999px;fill:#ffffff"
   id="tspan40"
   font-size="54.0000">СТАВКА <tspan
   dx="0 0 0 0 0 0 1.52 2.6500001 0 0 0 -2.25 0 0 0 1.52"
   id="tspan3120"
   style="letter-spacing:4.3300004px">РАЗВЕДЫВАТЕЛЬНАЯ</tspan>
<tspan
   dx="19.059999 5.8200002 1.63 4.0100002 5.52 2.55"
   id="tspan3240"
   style="letter-spacing:1.72000003px">СЛУЖБА</tspan>
</tspan>
</textPath>
    </text>
    <g
       id="g50">
      <g
         id="g52">
        <path
           d="m 45.0674,808.125 18.8867,8.807 -2.2987,2.8215 c -0.9171,1.1255 -1.2723,3.1074 -1.3811,4.5104 -0.1803,2.3224 0.1131,4.7987 0.7099,7.0456 0.5226,1.966 1.332,3.9615 2.4819,5.6474 l 1.4913,2.1873 -2.0802,1.6372 c -3.5129,2.7651 -7.5909,2.2912 -11.4463,0.4935 -2.0781,-0.9691 -3.8094,-2.3869 -5.1596,-4.2401 -2.5006,-3.432 -3.314,-7.8082 -3.7477,-11.9435 -0.2968,-2.8339 -0.3873,-5.7501 -0.8248,-8.5579 -0.1987,-1.2762 -0.6248,-3.5041 -1.6523,-4.4067 -0.1427,-0.1254 -0.2987,-0.2269 -0.4708,-0.3071 l -2.5691,-1.198 2.396,-5.1381 5.6648,2.6415 z"
           style="fill:#000000;fill-rule:evenodd"
           id="path54"
           inkscape:connector-curvature="0" />
      </g>
      <path
         d="M 52.6289,838.7057 C 40.9513,833.2603 48.443,812.8269 40.7737,809.2506 l 7.0066,3.2673 c 3.0986,7.0746 0.9873,13.1274 6.3762,19.8628 -3.6824,-7.3472 -1.5263,-11.9715 -4.0407,-18.7738 l 9.3419,4.3562 c -3.3239,4.0798 -2.5552,14.3999 1.6663,20.5909 -2.2458,1.7676 -4.992,1.7852 -8.4951,0.1517 z"
         style="fill:#ffff00;fill-rule:evenodd"
         id="path56"
         inkscape:connector-curvature="0" />
      <g
         id="g58">
        <path
           d="m 59.1972,814.7139 18.8867,8.807 -2.2987,2.8214 c -0.9171,1.1256 -1.2723,3.1074 -1.381,4.5105 -0.1803,2.3223 0.1131,4.7986 0.7099,7.0455 0.5225,1.9661 1.332,3.9615 2.4819,5.6474 l 1.4912,2.1873 -2.0802,1.6373 c -3.5128,2.765 -7.5909,2.2912 -11.4463,0.4934 -2.0781,-0.969 -3.8093,-2.3868 -5.1596,-4.24 -2.5006,-3.4321 -3.314,-7.8083 -3.7477,-11.9436 -0.2968,-2.8338 -0.3872,-5.75 -0.8248,-8.5578 -0.1987,-1.2762 -0.6248,-3.5041 -1.6523,-4.4068 -0.1427,-0.1253 -0.2986,-0.2268 -0.4708,-0.3071 l -2.569,-1.1979 2.3959,-5.1382 5.6648,2.6416 z"
           style="fill:#000000;fill-rule:evenodd"
           id="path60"
           inkscape:connector-curvature="0" />
      </g>
      <path
         d="m 66.7587,845.2945 c -11.6776,-5.4453 -4.1858,-25.8788 -11.8552,-29.455 l 7.0067,3.2672 c 3.0986,7.0747 0.9872,13.1275 6.3762,19.8628 -3.6824,-7.3471 -1.5263,-11.9715 -4.0407,-18.7737 l 9.3419,4.3562 c -3.324,4.0798 -2.5553,14.3999 1.6662,20.5909 -2.2458,1.7676 -4.992,1.7852 -8.4951,0.1516 z"
         style="fill:#ffff00;fill-rule:evenodd"
         id="path62"
         inkscape:connector-curvature="0" />
      <g
         id="g64">
        <path
           d="m 73.327,821.3027 18.8868,8.807 -2.2987,2.8215 c -0.9171,1.1255 -1.2723,3.1074 -1.3811,4.5104 -0.1803,2.3224 0.1131,4.7987 0.7099,7.0456 0.5226,1.966 1.332,3.9615 2.4819,5.6474 l 1.4913,2.1873 -2.0802,1.6372 c -3.5129,2.7651 -7.5909,2.2913 -11.4463,0.4935 -2.0781,-0.9691 -3.8094,-2.3869 -5.1596,-4.2401 -2.5006,-3.432 -3.314,-7.8082 -3.7477,-11.9435 -0.2968,-2.8339 -0.3873,-5.7501 -0.8248,-8.5579 -0.1987,-1.2762 -0.6248,-3.5041 -1.6524,-4.4067 -0.1426,-0.1254 -0.2986,-0.2269 -0.4707,-0.3071 l -2.5691,-1.198 2.396,-5.1381 5.6647,2.6415 z"
           style="fill:#000000;fill-rule:evenodd"
           id="path66"
           inkscape:connector-curvature="0" />
      </g>
      <path
         d="M 80.8886,851.8834 C 69.211,846.438 76.7028,826.0046 69.0334,822.4283 l 7.0067,3.2673 c 3.0985,7.0746 0.9872,13.1275 6.3761,19.8628 -3.6824,-7.3472 -1.5263,-11.9715 -4.0407,-18.7738 l 9.3419,4.3562 c -3.3239,4.0798 -2.5552,14.3999 1.6663,20.5909 -2.2458,1.7677 -4.992,1.7852 -8.4951,0.1517 z"
         style="fill:#ffff00;fill-rule:evenodd"
         id="path68"
         inkscape:connector-curvature="0" />
      <g
         id="g70">
        <path
           d="m 87.4569,827.8916 18.8869,8.8071 -2.2986,2.8215 c -0.917,1.1253 -1.2725,3.107 -1.3814,4.5103 -0.1799,2.3222 0.1133,4.7984 0.7101,7.0453 0.5224,1.9663 1.3319,3.9617 2.4817,5.6476 l 1.4913,2.1873 -2.0802,1.6373 c -3.5129,2.765 -7.5909,2.2912 -11.4463,0.4934 -2.0781,-0.969 -3.8093,-2.3868 -5.1596,-4.24 -2.5006,-3.4321 -3.314,-7.8082 -3.7477,-11.9436 -0.2968,-2.8338 -0.3873,-5.75 -0.8248,-8.5578 -0.1987,-1.2762 -0.6248,-3.5041 -1.6523,-4.4068 -0.1427,-0.1253 -0.2987,-0.2268 -0.4708,-0.3071 l -2.569,-1.1979 2.3959,-5.1382 5.6648,2.6416 z"
           style="fill:#000000;fill-rule:evenodd"
           id="path72"
           inkscape:connector-curvature="0" />
      </g>
      <path
         d="M 95.0185,858.4723 C 83.3409,853.0269 90.8326,832.5935 83.1633,829.0172 l 7.0066,3.2673 c 3.0986,7.0746 0.9873,13.1274 6.3762,19.8628 -3.6824,-7.3472 -1.5263,-11.9716 -4.0407,-18.7738 l 9.3419,4.3562 c -3.3239,4.0798 -2.5553,14.3999 1.6662,20.5909 -2.2457,1.7676 -4.9919,1.7852 -8.495,0.1517 z"
         style="fill:#ffff00;fill-rule:evenodd"
         id="path74"
         inkscape:connector-curvature="0" />
      <g
         id="g76">
        <path
           d="m 101.587,834.4805 18.8864,8.8069 -2.2987,2.8215 c -0.9169,1.1253 -1.2724,3.107 -1.3813,4.5103 -0.1799,2.3222 0.1132,4.7984 0.71,7.0453 0.5225,1.9663 1.3319,3.9617 2.4818,5.6477 l 1.4913,2.1873 -2.0802,1.6372 c -3.5129,2.7651 -7.5909,2.2912 -11.4463,0.4934 -2.0779,-0.9689 -3.8091,-2.3867 -5.1591,-4.2398 -2.5009,-3.4321 -3.3146,-7.8082 -3.748,-11.9436 -0.297,-2.834 -0.3875,-5.7502 -0.8249,-8.5582 -0.1988,-1.276 -0.6247,-3.5038 -1.6524,-4.4065 -0.1425,-0.1252 -0.2984,-0.2268 -0.4705,-0.307 l -2.5691,-1.198 2.3959,-5.1381 5.6651,2.6416 z"
           style="fill:#000000;fill-rule:evenodd"
           id="path78"
           inkscape:connector-curvature="0" />
      </g>
      <path
         d="m 109.1481,865.061 c -11.6776,-5.4453 -4.1859,-25.8788 -11.8552,-29.4551 l 7.0066,3.2673 c 3.0986,7.0746 0.9873,13.1275 6.3762,19.8628 -3.6824,-7.3472 -1.5263,-11.9715 -4.0407,-18.7738 l 9.3419,4.3562 c -3.3239,4.0798 -2.5553,14.3999 1.6663,20.5909 -2.2458,1.7677 -4.992,1.7852 -8.4951,0.1517 z"
         style="fill:#ffff00;fill-rule:evenodd"
         id="path80"
         inkscape:connector-curvature="0" />
      <g
         id="g82">
        <path
           d="m 115.7168,841.0694 18.8865,8.8069 -2.2987,2.8214 c -0.917,1.1253 -1.2725,3.1071 -1.3813,4.5103 -0.18,2.3223 0.1132,4.7985 0.71,7.0453 0.5224,1.9664 1.3319,3.9618 2.4818,5.6477 l 1.4912,2.1873 -2.0802,1.6372 c -3.5128,2.7651 -7.5909,2.2913 -11.4463,0.4935 -2.0778,-0.9689 -3.8091,-2.3867 -5.1591,-4.2398 -2.5008,-3.4322 -3.3146,-7.8082 -3.7479,-11.9436 -0.2971,-2.834 -0.3875,-5.7502 -0.8249,-8.5583 -0.1989,-1.2759 -0.6247,-3.5037 -1.6525,-4.4065 -0.1424,-0.1252 -0.2984,-0.2267 -0.4705,-0.307 l -2.5691,-1.1979 2.396,-5.1382 5.665,2.6417 z"
           style="fill:#000000;fill-rule:evenodd"
           id="path84"
           inkscape:connector-curvature="0" />
      </g>
      <path
         d="m 123.2779,871.6499 c -11.6776,-5.4454 -4.1858,-25.8788 -11.8552,-29.4551 l 7.0067,3.2673 c 3.0985,7.0746 0.9872,13.1274 6.3761,19.8628 -3.6823,-7.3472 -1.5262,-11.9715 -4.0406,-18.7738 l 9.3419,4.3562 c -3.324,4.0798 -2.5553,14.3999 1.6662,20.5909 -2.2458,1.7676 -4.992,1.7852 -8.4951,0.1517 z"
         style="fill:#ffff00;fill-rule:evenodd"
         id="path86"
         inkscape:connector-curvature="0" />
      <g
         id="g88">
        <path
           d="m 129.8467,847.6582 18.8864,8.8069 -2.2987,2.8215 c -0.9169,1.1253 -1.2724,3.107 -1.3813,4.5103 -0.1799,2.3222 0.1132,4.7984 0.71,7.0453 0.5225,1.9663 1.3319,3.9617 2.4818,5.6477 l 1.4913,2.1873 -2.0802,1.6372 c -3.5129,2.7651 -7.5909,2.2912 -11.4463,0.4934 -2.0779,-0.9689 -3.8091,-2.3867 -5.1591,-4.2398 -2.5009,-3.4321 -3.3147,-7.8082 -3.748,-11.9436 -0.2971,-2.834 -0.3875,-5.7502 -0.8249,-8.5582 -0.1988,-1.276 -0.6247,-3.5038 -1.6525,-4.4065 -0.1424,-0.1252 -0.2983,-0.2267 -0.4705,-0.307 l -2.569,-1.198 2.3959,-5.1381 5.6651,2.6416 z"
           style="fill:#000000;fill-rule:evenodd"
           id="path90"
           inkscape:connector-curvature="0" />
      </g>
      <path
         d="m 137.4078,878.2387 c -11.6776,-5.4453 -4.1858,-25.8788 -11.8552,-29.455 l 7.0067,3.2672 c 3.0985,7.0747 0.9872,13.1275 6.3761,19.8628 -3.6824,-7.3471 -1.5263,-11.9715 -4.0407,-18.7737 l 9.3419,4.3562 c -3.3239,4.0798 -2.5552,14.3999 1.6663,20.5909 -2.2458,1.7676 -4.992,1.7852 -8.4951,0.1516 z"
         style="fill:#ffff00;fill-rule:evenodd"
         id="path92"
         inkscape:connector-curvature="0" />
      <g
         id="g94">
        <path
           d="m 51.1455,807.8316 -10.5449,-4.9172 2.3959,-5.1381 2.5691,1.198 c 0.1721,0.0802 0.3501,0.1345 0.5378,0.1632 1.352,0.2069 3.3325,-0.8987 4.4379,-1.5668 2.4321,-1.4697 4.7242,-3.2749 7.0859,-4.8691 5.4786,-3.6975 11.6038,-6.6191 18.1228,-3.5792 3.8554,1.7978 6.8397,4.6172 6.9795,9.0855 l 0.083,2.646 -2.6342,0.2635 c -2.0306,0.2029 -4.0795,0.8654 -5.9215,1.7289 -2.1048,0.9871 -4.1904,2.3541 -5.8535,3.985 -1.0049,0.9852 -2.2947,2.5312 -2.5675,3.9572 l -0.6837,3.5745 -14.0066,-6.5314 z"
           style="fill:#000000;fill-rule:evenodd"
           id="path96"
           inkscape:connector-curvature="0" />
      </g>
      <path
         d="m 74.5519,791.6915 c -11.6776,-5.4453 -22.5149,13.4281 -30.1842,9.8518 l 7.0066,3.2672 c 7.4112,-2.1738 10.6908,-7.6819 19.3143,-7.8831 -7.9952,1.9018 -10.1518,6.5259 -16.9788,8.9722 l 9.3419,4.3562 c 0.9887,-5.1687 9.3885,-11.2135 16.8446,-11.9592 -0.0895,-2.8566 -1.8413,-4.9715 -5.3444,-6.6051 z"
         style="fill:#ffff00;fill-rule:evenodd"
         id="path98"
         inkscape:connector-curvature="0" />
      <g
         id="g100">
        <path
           d="m 65.2754,814.4205 -10.545,-4.9172 2.3959,-5.1382 2.5691,1.198 c 0.1721,0.0803 0.3501,0.1345 0.5379,0.1633 1.3519,0.2069 3.3325,-0.8988 4.4378,-1.5669 2.4322,-1.4697 4.7243,-3.2749 7.0859,-4.8691 5.4786,-3.6975 11.6038,-6.619 18.1228,-3.5792 3.8554,1.7978 6.8397,4.6172 6.9796,9.0856 l 0.0829,2.6459 -2.6341,0.2636 c -2.0307,0.2028 -4.0795,0.8654 -5.9215,1.7289 -2.1049,0.987 -4.1904,2.354 -5.8536,3.9849 -1.0048,0.9852 -2.2947,2.5312 -2.5674,3.9572 l -0.6838,3.5745 -14.0065,-6.5313 z"
           style="fill:#000000;fill-rule:evenodd"
           id="path102"
           inkscape:connector-curvature="0" />
      </g>
      <path
         d="m 88.6818,798.2804 c -11.6776,-5.4454 -22.5149,13.428 -30.1843,9.8517 l 7.0067,3.2673 c 7.4112,-2.1739 10.6908,-7.6819 19.3143,-7.8831 -7.9952,1.9017 -10.1518,6.5259 -16.9788,8.9722 l 9.3419,4.3562 c 0.9887,-5.1688 9.3884,-11.2136 16.8445,-11.9592 -0.0894,-2.8566 -1.8412,-4.9716 -5.3443,-6.6051 z"
         style="fill:#ffff00;fill-rule:evenodd"
         id="path104"
         inkscape:connector-curvature="0" />
      <g
         id="g106">
        <path
           d="m 79.4057,821.0096 -10.5455,-4.9175 2.396,-5.1381 2.569,1.198 c 0.1722,0.0802 0.3502,0.1345 0.5379,0.1632 1.3519,0.2069 3.3325,-0.8987 4.4379,-1.5668 2.4321,-1.4697 4.7242,-3.2749 7.0858,-4.8691 5.4787,-3.6975 11.6039,-6.6191 18.1229,-3.5792 3.8554,1.7978 6.8397,4.6172 6.9795,9.0855 l 0.0829,2.646 -2.6341,0.2636 c -2.0306,0.2028 -4.0795,0.8653 -5.9215,1.7288 -2.1048,0.9871 -4.1904,2.3541 -5.8535,3.985 -1.0049,0.9852 -2.2947,2.5312 -2.5675,3.9572 l -0.6838,3.5745 -14.006,-6.5311 z"
           style="fill:#000000;fill-rule:evenodd"
           id="path108"
           inkscape:connector-curvature="0" />
      </g>
      <path
         d="m 102.8117,804.8693 c -11.6776,-5.4454 -22.515,13.428 -30.1843,9.8517 l 7.0066,3.2673 c 7.4112,-2.1739 10.6909,-7.6819 19.3144,-7.8832 -7.9953,1.9018 -10.1518,6.526 -16.9789,8.9722 l 9.3419,4.3562 c 0.9887,-5.1687 9.3885,-11.2135 16.8446,-11.9591 -0.0895,-2.8566 -1.8412,-4.9716 -5.3443,-6.6051 z"
         style="fill:#ffff00;fill-rule:evenodd"
         id="path110"
         inkscape:connector-curvature="0" />
      <g
         id="g112">
        <path
           d="m 93.5356,827.5984 -10.5455,-4.9174 2.3959,-5.1381 2.5691,1.1979 c 0.1721,0.0803 0.3501,0.1345 0.5378,0.1633 1.352,0.2069 3.3326,-0.8988 4.4379,-1.5669 2.4321,-1.4697 4.7242,-3.2749 7.0859,-4.8691 5.4786,-3.6975 11.6038,-6.619 18.1228,-3.5792 3.8554,1.7978 6.8397,4.6172 6.9795,9.0856 l 0.083,2.6459 -2.6342,0.2636 c -2.0306,0.2028 -4.0795,0.8654 -5.9216,1.7291 -2.1048,0.9871 -4.1901,2.3542 -5.8534,3.9847 -1.005,0.9855 -2.2946,2.5316 -2.5672,3.9574 l -0.6838,3.5744 -14.0062,-6.5312 z"
           style="fill:#000000;fill-rule:evenodd"
           id="path114"
           inkscape:connector-curvature="0" />
      </g>
      <path
         d="m 116.9415,811.4581 c -11.6776,-5.4453 -22.5149,13.4281 -30.1843,9.8518 l 7.0067,3.2672 c 7.4112,-2.1738 10.6908,-7.6819 19.3143,-7.8831 -7.9952,1.9018 -10.1518,6.5259 -16.9788,8.9722 l 9.3419,4.3562 c 0.9887,-5.1687 9.3885,-11.2135 16.8446,-11.9592 -0.0895,-2.8566 -1.8413,-4.9715 -5.3444,-6.6051 z"
         style="fill:#ffff00;fill-rule:evenodd"
         id="path116"
         inkscape:connector-curvature="0" />
      <g
         id="g118">
        <path
           d="m 107.6651,834.1871 -10.5452,-4.9173 2.396,-5.1381 2.569,1.198 c 0.1721,0.0802 0.3502,0.1345 0.5376,0.1631 1.3522,0.207 3.3325,-0.8988 4.4378,-1.5666 2.4322,-1.4699 4.7243,-3.2751 7.0862,-4.8692 5.4784,-3.6976 11.6038,-6.6191 18.1226,-3.5793 3.8554,1.7978 6.8397,4.6172 6.9795,9.0855 l 0.083,2.6459 -2.6342,0.2636 c -2.0306,0.2029 -4.0795,0.8654 -5.9216,1.7292 -2.1048,0.987 -4.1901,2.3541 -5.8534,3.9847 -1.005,0.9854 -2.2946,2.5315 -2.5672,3.9573 l -0.6838,3.5745 -14.0063,-6.5313 z"
           style="fill:#000000;fill-rule:evenodd"
           id="path120"
           inkscape:connector-curvature="0" />
      </g>
      <path
         d="m 131.0711,818.0469 c -11.6776,-5.4454 -22.5149,13.428 -30.1842,9.8517 l 7.0066,3.2673 c 7.4112,-2.1739 10.6908,-7.6819 19.3143,-7.8832 -7.9952,1.9018 -10.1518,6.526 -16.9788,8.9722 l 9.3419,4.3562 c 0.9887,-5.1687 9.3885,-11.2135 16.8446,-11.9591 -0.0895,-2.8566 -1.8413,-4.9716 -5.3444,-6.6051 z"
         style="fill:#ffff00;fill-rule:evenodd"
         id="path122"
         inkscape:connector-curvature="0" />
      <g
         id="g124">
        <path
           d="m 121.795,840.776 -10.5453,-4.9173 2.396,-5.1381 2.5691,1.1979 c 0.1721,0.0803 0.3501,0.1345 0.5375,0.1631 1.3522,0.2071 3.3326,-0.8987 4.4378,-1.5665 2.4323,-1.47 4.7243,-3.2752 7.0862,-4.8692 5.4784,-3.6977 11.6039,-6.6191 18.1226,-3.5794 3.8554,1.7978 6.8397,4.6172 6.9795,9.0856 l 0.083,2.6459 -2.6341,0.2636 c -2.0307,0.2028 -4.0795,0.8654 -5.9217,1.7291 -2.1048,0.9871 -4.1901,2.3542 -5.8534,3.9847 -1.005,0.9854 -2.2945,2.5316 -2.5672,3.9573 l -0.6838,3.5745 -14.0062,-6.5312 z"
           style="fill:#000000;fill-rule:evenodd"
           id="path126"
           inkscape:connector-curvature="0" />
      </g>
      <path
         d="m 145.201,824.6357 c -11.6776,-5.4453 -22.5149,13.4281 -30.1843,9.8518 l 7.0067,3.2672 c 7.4112,-2.1738 10.6908,-7.6819 19.3143,-7.8831 -7.9952,1.9018 -10.1518,6.5259 -16.9788,8.9722 l 9.3419,4.3562 c 0.9887,-5.1687 9.3884,-11.2135 16.8445,-11.9592 -0.0894,-2.8566 -1.8412,-4.9715 -5.3443,-6.6051 z"
         style="fill:#ffff00;fill-rule:evenodd"
         id="path128"
         inkscape:connector-curvature="0" />
      <g
         id="g130">
        <path
           d="m 135.9248,847.3649 -10.5452,-4.9174 2.3959,-5.1381 2.5691,1.198 c 0.1721,0.0802 0.3501,0.1345 0.5376,0.1631 1.3522,0.207 3.3325,-0.8988 4.4377,-1.5666 2.4323,-1.4699 4.7244,-3.2751 7.0863,-4.8692 5.4784,-3.6976 11.6038,-6.6191 18.1226,-3.5793 3.8553,1.7978 6.8396,4.6172 6.9795,9.0855 l 0.0829,2.6459 -2.6341,0.2636 c -2.0306,0.2029 -4.0795,0.8654 -5.9216,1.7292 -2.1049,0.987 -4.1902,2.3541 -5.8534,3.9847 -1.005,0.9854 -2.2946,2.5315 -2.5672,3.9573 l -0.6838,3.5745 -14.0063,-6.5312 z"
           style="fill:#000000;fill-rule:evenodd"
           id="path132"
           inkscape:connector-curvature="0" />
      </g>
      <path
         d="m 159.3309,831.2246 c -11.6777,-5.4454 -22.515,13.428 -30.1843,9.8517 l 7.0066,3.2673 c 7.4112,-2.1739 10.6908,-7.6819 19.3143,-7.8832 -7.9952,1.9018 -10.1517,6.526 -16.9788,8.9722 l 9.3419,4.3562 c 0.9887,-5.1687 9.3885,-11.2135 16.8446,-11.9591 -0.0895,-2.8566 -1.8412,-4.9716 -5.3443,-6.6051 z"
         style="fill:#ffff00;fill-rule:evenodd"
         id="path134"
         inkscape:connector-curvature="0" />
      <g
         id="g136">
        <path
           d="m -89.7859,735.8588 241.9675,112.8314 -5.9898,12.8453 -241.9676,-112.8314 11.7337,35.5533 -83.5493,-76.8607 112.5831,14.5974 -34.7776,13.8647 z"
           style="fill:#000000;fill-rule:evenodd"
           id="path138"
           inkscape:connector-curvature="0" />
      </g>
      <path
         d="m -159.1006,711.3561 92.9062,12.046 -30.7353,12.2532 245.3444,114.406 -3.594,7.7072 -245.3443,-114.406 10.3697,31.4208 -68.9467,-63.4272 z"
         style="fill:#ffff00;fill-rule:evenodd"
         id="path140"
         inkscape:connector-curvature="0" />
    </g>
    <g
       id="g142">
      <g
         id="g144">
        <path
           d="m -46.2653,805.5562 -18.8867,8.807 -0.6838,-3.5745 c -0.2727,-1.426 -1.5626,-2.972 -2.5674,-3.9572 -1.6632,-1.6309 -3.7487,-2.9979 -5.8536,-3.985 -1.842,-0.8634 -3.8908,-1.526 -5.9215,-1.7288 l -2.6341,-0.2636 0.0829,-2.6459 c 0.1399,-4.4684 3.1242,-7.2878 6.9796,-9.0856 2.0781,-0.969 4.277,-1.3839 6.5645,-1.227 4.2365,0.2905 8.1117,2.4803 11.5583,4.8062 2.3616,1.5942 4.6537,3.3994 7.0859,4.8691 1.1053,0.6681 3.0859,1.7738 4.4378,1.5668 0.1878,-0.0287 0.3658,-0.0829 0.5379,-0.1632 l 2.5691,-1.198 2.3959,5.1382 -5.6648,2.6415 z"
           style="fill:#000000;fill-rule:evenodd"
           id="path146"
           inkscape:connector-curvature="0" />
      </g>
      <path
         d="m -74.5519,791.6918 c 11.6776,-5.4454 22.5149,13.428 30.1843,9.8517 l -7.0067,3.2673 c -7.4112,-2.1739 -10.6908,-7.6819 -19.3143,-7.8832 7.9953,1.9018 10.1518,6.526 16.9789,8.9722 l -9.3419,4.3562 c -0.9887,-5.1687 -9.3885,-11.2135 -16.8446,-11.9591 0.0894,-2.8566 1.8412,-4.9716 5.3443,-6.6051 z"
         style="fill:#ffff00;fill-rule:evenodd"
         id="path148"
         inkscape:connector-curvature="0" />
      <g
         id="g150">
        <path
           d="m -60.3951,812.145 -18.8867,8.8071 -0.6838,-3.5745 c -0.2728,-1.4261 -1.5626,-2.9721 -2.5675,-3.9572 -1.6631,-1.6309 -3.7487,-2.9979 -5.8535,-3.985 -1.842,-0.8635 -3.8909,-1.526 -5.9215,-1.7289 l -2.6341,-0.2636 0.0829,-2.6459 c 0.1398,-4.4683 3.1241,-7.2877 6.9795,-9.0855 2.0781,-0.9691 4.2771,-1.3839 6.5646,-1.2271 4.2365,0.2905 8.1117,2.4804 11.5583,4.8063 2.3616,1.5942 4.6537,3.3994 7.0858,4.8691 1.1054,0.668 3.086,1.7737 4.4379,1.5668 0.1877,-0.0287 0.3657,-0.083 0.5379,-0.1632 l 2.569,-1.198 2.396,5.1381 -5.6648,2.6415 z"
           style="fill:#000000;fill-rule:evenodd"
           id="path152"
           inkscape:connector-curvature="0" />
      </g>
      <path
         d="m -88.6817,798.2806 c 11.6776,-5.4453 22.5149,13.4281 30.1842,9.8518 l -7.0066,3.2672 c -7.4112,-2.1738 -10.6908,-7.6819 -19.3143,-7.8831 7.9952,1.9018 10.1517,6.5259 16.9788,8.9722 l -9.3419,4.3562 c -0.9887,-5.1687 -9.3885,-11.2135 -16.8446,-11.9592 0.0895,-2.8566 1.8413,-4.9715 5.3444,-6.6051 z"
         style="fill:#ffff00;fill-rule:evenodd"
         id="path154"
         inkscape:connector-curvature="0" />
      <g
         id="g156">
        <path
           d="m -74.525,818.7339 -18.8867,8.807 -0.6838,-3.5745 c -0.2727,-1.426 -1.5625,-2.972 -2.5674,-3.9572 -1.6632,-1.6309 -3.7487,-2.9979 -5.8535,-3.985 -1.842,-0.8634 -3.8909,-1.526 -5.9215,-1.7288 l -2.6342,-0.2636 0.083,-2.6459 c 0.1398,-4.4684 3.1241,-7.2878 6.9795,-9.0856 2.0781,-0.969 4.277,-1.3839 6.5646,-1.227 4.2365,0.2905 8.1116,2.4803 11.5582,4.8062 2.3617,1.5942 4.6538,3.3994 7.0859,4.8691 1.1053,0.6681 3.0859,1.7738 4.4379,1.5668 0.1877,-0.0287 0.3657,-0.0829 0.5378,-0.1632 l 2.5691,-1.198 2.3959,5.1382 -5.6648,2.6415 z"
           style="fill:#000000;fill-rule:evenodd"
           id="path158"
           inkscape:connector-curvature="0" />
      </g>
      <path
         d="m -102.8116,804.8695 c 11.6776,-5.4454 22.5149,13.428 30.1843,9.8517 l -7.0067,3.2673 c -7.4112,-2.1739 -10.6908,-7.6819 -19.3143,-7.8832 7.9952,1.9018 10.1518,6.526 16.9788,8.9722 l -9.3419,4.3563 c -0.9887,-5.1688 -9.3884,-11.2136 -16.8445,-11.9592 0.0894,-2.8566 1.8412,-4.9716 5.3443,-6.6051 z"
         style="fill:#ffff00;fill-rule:evenodd"
         id="path160"
         inkscape:connector-curvature="0" />
      <g
         id="g162">
        <path
           d="m -88.6548,825.3227 -18.887,8.8072 -0.6837,-3.5745 c -0.2727,-1.4258 -1.5623,-2.9719 -2.5672,-3.9573 -1.6633,-1.6306 -3.7486,-2.9977 -5.8535,-3.9847 -1.8421,-0.8638 -3.891,-1.5263 -5.9216,-1.7292 l -2.6341,-0.2636 0.0829,-2.6459 c 0.1399,-4.4683 3.1242,-7.2877 6.9796,-9.0855 2.0781,-0.9691 4.277,-1.3839 6.5645,-1.2271 4.2365,0.2905 8.1117,2.4804 11.5583,4.8063 2.3616,1.5942 4.6537,3.3994 7.0859,4.8691 1.1053,0.668 3.0859,1.7737 4.4378,1.5668 0.1877,-0.0287 0.3657,-0.083 0.5379,-0.1632 l 2.569,-1.198 2.396,5.1381 -5.6648,2.6415 z"
           style="fill:#000000;fill-rule:evenodd"
           id="path164"
           inkscape:connector-curvature="0" />
      </g>
      <path
         d="m -116.9415,811.4584 c 11.6776,-5.4454 22.5149,13.428 30.1843,9.8517 l -7.0067,3.2673 c -7.4112,-2.1739 -10.6908,-7.6819 -19.3143,-7.8832 7.9953,1.9018 10.1518,6.526 16.9789,8.9722 l -9.3419,4.3562 c -0.9887,-5.1687 -9.3885,-11.2135 -16.8446,-11.9591 0.0895,-2.8566 1.8412,-4.9716 5.3443,-6.6051 z"
         style="fill:#ffff00;fill-rule:evenodd"
         id="path166"
         inkscape:connector-curvature="0" />
      <g
         id="g168">
        <path
           d="m -102.7849,831.9117 -18.8864,8.8069 -0.6838,-3.5745 c -0.2727,-1.4257 -1.5622,-2.9719 -2.5672,-3.9573 -1.6633,-1.6305 -3.7486,-2.9976 -5.8534,-3.9847 -1.8422,-0.8637 -3.891,-1.5263 -5.9217,-1.7291 l -2.6341,-0.2636 0.0829,-2.6459 c 0.1399,-4.4684 3.1242,-7.2878 6.9796,-9.0856 2.0778,-0.9689 4.2768,-1.3838 6.564,-1.2268 4.2368,0.2904 8.1121,2.4799 11.5585,4.8061 2.3619,1.5941 4.654,3.3993 7.0863,4.8692 1.1052,0.6679 3.0855,1.7737 4.4377,1.5666 0.1875,-0.0286 0.3655,-0.0828 0.5376,-0.1631 l 2.5691,-1.198 2.3959,5.1382 -5.665,2.6416 z"
           style="fill:#000000;fill-rule:evenodd"
           id="path170"
           inkscape:connector-curvature="0" />
      </g>
      <path
         d="m -131.0711,818.0471 c 11.6776,-5.4454 22.5149,13.428 30.1843,9.8517 l -7.0067,3.2673 c -7.4112,-2.1739 -10.6908,-7.6819 -19.3143,-7.8831 7.9953,1.9018 10.1518,6.5259 16.9789,8.9722 l -9.3419,4.3562 c -0.9887,-5.1688 -9.3885,-11.2136 -16.8446,-11.9592 0.0895,-2.8566 1.8412,-4.9716 5.3443,-6.6051 z"
         style="fill:#ffff00;fill-rule:evenodd"
         id="path172"
         inkscape:connector-curvature="0" />
      <g
         id="g174">
        <path
           d="m -116.9147,838.5006 -18.8865,8.8069 -0.6838,-3.5745 c -0.2726,-1.4258 -1.5622,-2.9719 -2.5672,-3.9573 -1.6633,-1.6306 -3.7486,-2.9977 -5.8534,-3.9848 -1.8421,-0.8637 -3.891,-1.5262 -5.9216,-1.7291 l -2.6341,-0.2636 0.0829,-2.6459 c 0.1398,-4.4683 3.1241,-7.2877 6.9795,-9.0855 2.0779,-0.969 4.2768,-1.3838 6.5641,-1.2268 4.2367,0.2903 8.112,2.4798 11.5585,4.8061 2.3619,1.5941 4.654,3.3993 7.0863,4.8692 1.1052,0.6678 3.0855,1.7736 4.4377,1.5666 0.1875,-0.0286 0.3655,-0.0829 0.5376,-0.1631 l 2.5691,-1.198 2.3959,5.1381 -5.665,2.6417 z"
           style="fill:#000000;fill-rule:evenodd"
           id="path176"
           inkscape:connector-curvature="0" />
      </g>
      <path
         d="m -145.2009,824.636 c 11.6776,-5.4454 22.5149,13.428 30.1842,9.8517 l -7.0066,3.2673 c -7.4112,-2.1739 -10.6908,-7.6819 -19.3143,-7.8832 7.9952,1.9018 10.1518,6.526 16.9788,8.9722 l -9.3419,4.3562 c -0.9887,-5.1687 -9.3885,-11.2135 -16.8446,-11.9591 0.0895,-2.8566 1.8413,-4.9716 5.3444,-6.6051 z"
         style="fill:#ffff00;fill-rule:evenodd"
         id="path178"
         inkscape:connector-curvature="0" />
      <g
         id="g180">
        <path
           d="m -131.0446,845.0894 -18.8864,8.8069 -0.6838,-3.5745 c -0.2726,-1.4257 -1.5622,-2.9719 -2.5672,-3.9573 -1.6633,-1.6305 -3.7486,-2.9976 -5.8534,-3.9847 -1.8421,-0.8637 -3.891,-1.5263 -5.9216,-1.7291 l -2.6342,-0.2636 0.083,-2.6459 c 0.1398,-4.4684 3.1241,-7.2878 6.9795,-9.0856 2.0779,-0.9689 4.2768,-1.3838 6.5641,-1.2268 4.2367,0.2904 8.112,2.4799 11.5585,4.8061 2.3619,1.5941 4.654,3.3993 7.0862,4.8692 1.1052,0.6679 3.0856,1.7737 4.4378,1.5666 0.1874,-0.0286 0.3654,-0.0828 0.5376,-0.1631 l 2.569,-1.198 2.396,5.1382 -5.6651,2.6416 z"
           style="fill:#000000;fill-rule:evenodd"
           id="path182"
           inkscape:connector-curvature="0" />
      </g>
      <path
         d="m -159.3308,831.2248 c 11.6776,-5.4453 22.5149,13.4281 30.1843,9.8518 l -7.0067,3.2672 c -7.4112,-2.1738 -10.6908,-7.6819 -19.3143,-7.8831 7.9952,1.9018 10.1518,6.5259 16.9788,8.9722 l -9.3419,4.3562 c -0.9887,-5.1687 -9.3884,-11.2135 -16.8445,-11.9592 0.0894,-2.8566 1.8412,-4.9715 5.3443,-6.6051 z"
         style="fill:#ffff00;fill-rule:evenodd"
         id="path184"
         inkscape:connector-curvature="0" />
      <g
         id="g186">
        <path
           d="m -49.9475,810.4009 10.545,-4.9172 2.3959,5.1381 -2.569,1.198 c -0.1722,0.0803 -0.3281,0.1818 -0.4708,0.3071 -1.0275,0.9026 -1.4536,3.1306 -1.6524,4.4068 -0.4375,2.8078 -0.5279,5.724 -0.8247,8.5578 -0.6892,6.5736 -2.3883,13.1437 -8.9073,16.1836 -3.8554,1.7978 -7.9335,2.2716 -11.4463,-0.4935 l -2.0802,-1.6372 1.4912,-2.1873 c 1.1499,-1.6859 1.9594,-3.6813 2.4819,-5.6474 0.5968,-2.2469 0.8902,-4.7232 0.7099,-7.0456 -0.1087,-1.403 -0.464,-3.3848 -1.381,-4.5104 l -2.2987,-2.8214 14.0065,-6.5314 z"
           style="fill:#000000;fill-rule:evenodd"
           id="path188"
           inkscape:connector-curvature="0" />
      </g>
      <path
         d="m -52.6288,838.7059 c 11.6776,-5.4453 4.1858,-25.8788 11.8552,-29.4551 l -7.0067,3.2673 c -3.0985,7.0746 -0.9872,13.1275 -6.3761,19.8628 3.6823,-7.3471 1.5262,-11.9715 4.0406,-18.7738 l -9.3419,4.3562 c 3.324,4.0798 2.5553,14.3999 -1.6662,20.5909 2.2458,1.7677 4.992,1.7852 8.4951,0.1517 z"
         style="fill:#ffff00;fill-rule:evenodd"
         id="path190"
         inkscape:connector-curvature="0" />
      <g
         id="g192">
        <path
           d="m -64.0773,816.9898 10.5449,-4.9172 2.396,5.1381 -2.5691,1.198 c -0.1721,0.0802 -0.3281,0.1817 -0.4707,0.3071 -1.0276,0.9026 -1.4537,3.1305 -1.6524,4.4067 -0.4375,2.8078 -0.528,5.724 -0.8248,8.5579 -0.6891,6.5736 -2.3883,13.1437 -8.9073,16.1835 -3.8554,1.7978 -7.9334,2.2717 -11.4463,-0.4934 l -2.0802,-1.6372 1.4913,-2.1873 c 1.1499,-1.686 1.9593,-3.6814 2.4819,-5.6475 0.5968,-2.2468 0.8902,-4.7231 0.7099,-7.0455 -0.1088,-1.403 -0.464,-3.3849 -1.3811,-4.5104 l -2.2987,-2.8215 14.0066,-6.5313 z"
           style="fill:#000000;fill-rule:evenodd"
           id="path194"
           inkscape:connector-curvature="0" />
      </g>
      <path
         d="m -66.7587,845.2948 c 11.6776,-5.4454 4.1859,-25.8788 11.8552,-29.4551 l -7.0066,3.2673 c -3.0986,7.0746 -0.9873,13.1274 -6.3762,19.8628 3.6824,-7.3472 1.5263,-11.9715 4.0407,-18.7738 l -9.3419,4.3562 c 3.3239,4.0798 2.5552,14.3999 -1.6663,20.5909 2.2458,1.7676 4.992,1.7852 8.4951,0.1517 z"
         style="fill:#ffff00;fill-rule:evenodd"
         id="path196"
         inkscape:connector-curvature="0" />
      <g
         id="g198">
        <path
           d="m -78.2077,823.5789 10.5455,-4.9175 2.3959,5.1381 -2.569,1.198 c -0.1721,0.0803 -0.3281,0.1818 -0.4708,0.3071 -1.0275,0.9026 -1.4536,3.1306 -1.6523,4.4068 -0.4375,2.8078 -0.528,5.724 -0.8248,8.5578 -0.6892,6.5736 -2.3883,13.1437 -8.9073,16.1836 -3.8554,1.7978 -7.9335,2.2716 -11.4463,-0.4935 l -2.0802,-1.6372 1.4913,-2.1873 c 1.1498,-1.6859 1.9593,-3.6813 2.4818,-5.6474 0.5969,-2.2469 0.8902,-4.7232 0.71,-7.0456 -0.1088,-1.403 -0.464,-3.3848 -1.3811,-4.5104 l -2.2987,-2.8214 14.006,-6.5311 z"
           style="fill:#000000;fill-rule:evenodd"
           id="path200"
           inkscape:connector-curvature="0" />
      </g>
      <path
         d="m -80.8886,851.8836 c 11.6777,-5.4453 4.1859,-25.8788 11.8553,-29.455 l -7.0067,3.2672 c -3.0986,7.0747 -0.9873,13.1275 -6.3762,19.8628 3.6824,-7.3471 1.5263,-11.9715 4.0407,-18.7737 l -9.3419,4.3562 c 3.324,4.0798 2.5553,14.3999 -1.6662,20.5909 2.2458,1.7676 4.9919,1.7852 8.495,0.1516 z"
         style="fill:#ffff00;fill-rule:evenodd"
         id="path202"
         inkscape:connector-curvature="0" />
      <g
         id="g204">
        <path
           d="m -92.3375,830.1677 10.5455,-4.9174 2.3959,5.1381 -2.5691,1.198 c -0.1721,0.0802 -0.3281,0.1817 -0.4707,0.3071 -1.0276,0.9026 -1.4537,3.1305 -1.6524,4.4067 -0.4375,2.8078 -0.5279,5.724 -0.8248,8.5579 -0.6891,6.5736 -2.3883,13.1437 -8.9073,16.1835 -3.8553,1.7978 -7.9334,2.2717 -11.4462,-0.4934 l -2.0802,-1.6372 1.4912,-2.1873 c 1.1499,-1.686 1.9593,-3.6814 2.4818,-5.6477 0.5968,-2.2469 0.8899,-4.7231 0.71,-7.0453 -0.1089,-1.4033 -0.4643,-3.385 -1.3813,-4.5103 l -2.2987,-2.8215 14.0063,-6.5312 z"
           style="fill:#000000;fill-rule:evenodd"
           id="path206"
           inkscape:connector-curvature="0" />
      </g>
      <path
         d="m -95.0184,858.4725 c 11.6776,-5.4454 4.1858,-25.8788 11.8552,-29.4551 l -7.0067,3.2673 c -3.0985,7.0746 -0.9872,13.1274 -6.3761,19.8628 3.6824,-7.3472 1.5263,-11.9715 4.0407,-18.7738 l -9.3419,4.3562 c 3.3239,4.0798 2.5552,14.3999 -1.6663,20.5909 2.2458,1.7677 4.992,1.7852 8.4951,0.1517 z"
         style="fill:#ffff00;fill-rule:evenodd"
         id="path208"
         inkscape:connector-curvature="0" />
      <g
         id="g210">
        <path
           d="m -106.4671,836.7564 10.5452,-4.9173 2.396,5.1381 -2.5691,1.198 c -0.1721,0.0803 -0.3281,0.1818 -0.4705,0.307 -1.0278,0.9027 -1.4536,3.1306 -1.6525,4.4065 -0.4374,2.8081 -0.5278,5.7243 -0.8249,8.5582 -0.6889,6.5735 -2.3883,13.1437 -8.907,16.1835 -3.8554,1.7978 -7.9335,2.2716 -11.4463,-0.4935 l -2.0802,-1.6372 1.4912,-2.1873 c 1.1499,-1.6859 1.9594,-3.6813 2.4818,-5.6477 0.5968,-2.2468 0.89,-4.723 0.71,-7.0453 -0.1089,-1.4033 -0.4643,-3.385 -1.3813,-4.5103 l -2.2987,-2.8214 14.0063,-6.5313 z"
           style="fill:#000000;fill-rule:evenodd"
           id="path212"
           inkscape:connector-curvature="0" />
      </g>
      <path
         d="m -109.148,865.0612 c 11.6776,-5.4453 4.1858,-25.8787 11.8552,-29.455 l -7.0067,3.2672 c -3.0985,7.0747 -0.9872,13.1275 -6.3761,19.8628 3.6823,-7.3471 1.5262,-11.9715 4.0407,-18.7737 l -9.342,4.3562 c 3.324,4.0798 2.5553,14.3999 -1.6662,20.5909 2.2458,1.7676 4.992,1.7852 8.4951,0.1516 z"
         style="fill:#ffff00;fill-rule:evenodd"
         id="path214"
         inkscape:connector-curvature="0" />
      <g
         id="g216">
        <path
           d="m -120.5969,843.3453 10.5452,-4.9173 2.3959,5.1381 -2.569,1.198 c -0.1722,0.0802 -0.3281,0.1817 -0.4705,0.3069 -1.0278,0.9028 -1.4537,3.1306 -1.6525,4.4065 -0.4374,2.8081 -0.5279,5.7243 -0.8249,8.5583 -0.6889,6.5735 -2.3883,13.1437 -8.9071,16.1834 -3.8554,1.7978 -7.9334,2.2717 -11.4463,-0.4934 l -2.0802,-1.6372 1.4913,-2.1873 c 1.1499,-1.686 1.9593,-3.6814 2.4818,-5.6477 0.5968,-2.2469 0.8899,-4.7231 0.71,-7.0453 -0.1089,-1.4033 -0.4644,-3.385 -1.3813,-4.5103 l -2.2987,-2.8215 14.0063,-6.5312 z"
           style="fill:#000000;fill-rule:evenodd"
           id="path218"
           inkscape:connector-curvature="0" />
      </g>
      <path
         d="m -123.2779,871.6501 c 11.6776,-5.4454 4.1859,-25.8788 11.8552,-29.4551 l -7.0066,3.2673 c -3.0986,7.0746 -0.9873,13.1275 -6.3762,19.8628 3.6824,-7.3472 1.5263,-11.9715 4.0407,-18.7738 l -9.3419,4.3562 c 3.3239,4.0798 2.5552,14.3999 -1.6663,20.5909 2.2458,1.7677 4.992,1.7852 8.4951,0.1517 z"
         style="fill:#ffff00;fill-rule:evenodd"
         id="path220"
         inkscape:connector-curvature="0" />
      <g
         id="g222">
        <path
           d="m -134.7268,849.9341 10.5452,-4.9173 2.396,5.1382 -2.5691,1.1979 c -0.1721,0.0803 -0.3281,0.1818 -0.4705,0.307 -1.0278,0.9028 -1.4536,3.1306 -1.6524,4.4065 -0.4374,2.8081 -0.5279,5.7243 -0.825,8.5582 -0.6889,6.5735 -2.3883,13.1437 -8.907,16.1835 -3.8554,1.7978 -7.9334,2.2716 -11.4463,-0.4935 l -2.0802,-1.6372 1.4913,-2.1873 c 1.1498,-1.6859 1.9593,-3.6813 2.4817,-5.6477 0.5968,-2.2468 0.89,-4.723 0.7101,-7.0453 -0.1089,-1.4033 -0.4644,-3.385 -1.3814,-4.5103 l -2.2987,-2.8214 14.0063,-6.5313 z"
           style="fill:#000000;fill-rule:evenodd"
           id="path224"
           inkscape:connector-curvature="0" />
      </g>
      <path
         d="m -137.4077,878.239 c 11.6776,-5.4454 4.1858,-25.8788 11.8552,-29.4551 l -7.0067,3.2673 c -3.0986,7.0746 -0.9872,13.1274 -6.3762,19.8628 3.6824,-7.3472 1.5263,-11.9715 4.0407,-18.7738 l -9.3419,4.3562 c 3.324,4.0798 2.5553,14.3999 -1.6662,20.5909 2.2458,1.7676 4.992,1.7852 8.4951,0.1517 z"
         style="fill:#ffff00;fill-rule:evenodd"
         id="path226"
         inkscape:connector-curvature="0" />
      <g
         id="g228">
        <path
           d="M 95.7759,748.7044 -146.1917,861.5357 -152.1816,848.6904 89.786,735.8591 55.0084,721.9944 167.5915,707.397 84.0422,784.2576 95.7759,748.7044 Z"
           style="fill:#000000;fill-rule:evenodd"
           id="path230"
           inkscape:connector-curvature="0" />
      </g>
      <path
         d="m 159.1007,711.3563 -68.9468,63.4273 10.3697,-31.4208 -245.3443,114.4059 -3.5939,-7.7072 245.3443,-114.4059 -30.7352,-12.2533 92.9062,-12.046 z"
         style="fill:#ffff00;fill-rule:evenodd"
         id="path232"
         inkscape:connector-curvature="0" />
    </g>
    <g
       id="g234">
      <path
         d="m 11.4712,901.7101 0.4499,1.3788 c 0.6063,1.8573 1.3241,3.6828 2.0495,5.4964 l 0.8067,2.0168 L 0,921.685 l -14.7773,-11.0829 0.8067,-2.0168 c 0.7254,-1.8136 1.4432,-3.6391 2.0495,-5.4964 l 0.4499,-1.3788 0.3206,-1.2699 c 1.0009,-3.9654 1.2293,-7.9863 1.2293,-12.0622 0,-4.7013 -1.2957,-9.9559 -2.3079,-14.5421 -1.6214,-7.3474 -3.0399,-14.5043 -3.8566,-22.0013 l -0.0334,-0.307 -0.0221,0 -0.1038,-1.1537 -0.1831,-1.681 0.0323,0 c -0.3308,-3.7553 -0.523,-7.5212 -0.587,-11.2904 l -9e-4,-0.0482 -0.0241,0 0,-1.4266 -0.0238,-1.408 0.0238,0 c 0,-3.7789 0.0474,-7.5623 0.1956,-11.3386 l -0.0258,0 0.0893,-1.5965 0.0493,-1.2381 0.0202,0 0.0087,-0.1585 c 0.3547,-6.3371 1.027,-13.7081 3.623,-19.6841 l -18.1335,0 0,-12.7559 15.5905,0 c 0,-26.2559 0.0871,-52.5319 0.5984,-78.783 0.3419,-17.5422 0.8241,-35.1935 2.0662,-52.6972 0.4317,-6.084 0.9632,-12.1754 1.7172,-18.2287 0.5721,-4.5947 1.2717,-9.209 2.261,-13.7336 1.2262,-5.6081 3.1314,-12.2791 6.7101,-16.8803 L 0,604.5483 l 2.2377,2.8769 c 3.5787,4.6012 5.4839,11.2722 6.7101,16.8803 0.9893,4.5246 1.6889,9.1389 2.261,13.7336 0.754,6.0533 1.2855,12.1447 1.7172,18.2287 1.2421,17.5037 1.7243,35.155 2.0662,52.6972 0.5113,26.2511 0.5984,52.5271 0.5984,78.783 l 15.5905,0 0,12.7559 -18.1335,0 c 2.596,5.976 3.2683,13.347 3.623,19.6841 l 0.0087,0.1585 0.0202,0 0.0493,1.2381 0.0893,1.5965 -0.0258,0 c 0.1482,3.7763 0.1956,7.5597 0.1956,11.3386 l 0.0238,0 -0.0238,1.408 0,1.4266 -0.0241,0 -9e-4,0.0482 c -0.064,3.7692 -0.2562,7.5351 -0.587,11.2904 l 0.0323,0 -0.1831,1.681 -0.1038,1.1537 -0.0221,0 -0.0334,0.307 c -0.8167,7.497 -2.2352,14.6539 -3.8566,22.0013 -1.0122,4.5862 -2.3079,9.8408 -2.3079,14.5421 0,4.0759 0.2284,8.0968 1.2293,12.0622 l 0.3206,1.2699 z"
         style="fill:#000000;fill-rule:evenodd"
         id="path236"
         inkscape:connector-curvature="0" />
    </g>
    <path
       d="m -12.7559,787.748 11.3386,0 0,-145.9842 c 0,-5.6693 0,-11.3386 1.4173,-17.0079 1.4173,5.6693 1.4173,11.3386 1.4173,17.0079 l 0,145.9842 11.3386,0 C 12.7559,663.0236 9.9213,621.9213 0,609.1654 -9.9213,621.9213 -12.7559,663.0236 -12.7559,787.748 Z m -15.5906,2.8347 56.693,0 0,7.0866 -56.693,0 0,-7.0866 z m 18.4252,9.9212 19.8426,0 c 2.0418,4.0839 3.348,9.639 3.9191,19.8426 l -27.6808,0 c 0.5711,-10.2036 1.8773,-15.7587 3.9191,-19.8426 z m 23.8967,22.6772 c 0.1318,3.3095 0.1978,7.06 0.1978,11.3386 l -28.3464,0 c 0,-4.2786 0.066,-8.0291 0.1978,-11.3386 l 27.9508,0 z m 0.1732,14.1732 c -0.0692,4.072 -0.2843,7.8384 -0.5987,11.3386 l -27.0998,0 c -0.3144,-3.5002 -0.5295,-7.2666 -0.5987,-11.3386 l 28.2972,0 z m -0.8808,14.1733 c -1.9097,17.5305 -6.1812,28.0462 -6.1812,36.8504 0,5.5182 0.4388,9.282 1.3156,12.7559 l -16.8044,0 c 0.8768,-3.4739 1.3156,-7.2377 1.3156,-12.7559 0,-8.8042 -4.2715,-19.3199 -6.1812,-36.8504 l 26.5356,0 z m -4.0413,52.4409 c 0.5842,1.7898 1.2883,3.6096 2.1121,5.6693 L 0,918.1417 -11.3386,909.6378 c 0.8238,-2.0597 1.5279,-3.8795 2.1121,-5.6693 l 18.453,0 z"
       style="fill:#ffff00;fill-rule:evenodd"
       id="path238"
       inkscape:connector-curvature="0" />
  </g>
</svg>
