<?xml version="1.0" encoding="UTF-8" standalone="no"?>
<!-- Creator: CorelDRAW X7 -->

<svg
   xmlns:dc="http://purl.org/dc/elements/1.1/"
   xmlns:cc="http://creativecommons.org/ns#"
   xmlns:rdf="http://www.w3.org/1999/02/22-rdf-syntax-ns#"
   xmlns:svg="http://www.w3.org/2000/svg"
   xmlns="http://www.w3.org/2000/svg"
   xmlns:sodipodi="http://sodipodi.sourceforge.net/DTD/sodipodi-0.dtd"
   xmlns:inkscape="http://www.inkscape.org/namespaces/inkscape"
   xml:space="preserve"
   width="7.8740005in"
   height="7.8740005in"
   version="1.1"
   style="clip-rule:evenodd;fill-rule:evenodd;image-rendering:optimizeQuality;shape-rendering:geometricPrecision;text-rendering:geometricPrecision"
   viewBox="0 0 7874.0005 7874.0005"
   id="svg4412"
   inkscape:version="0.91 r13725"
   sodipodi:docname="Ariadna - USAriadna Grunts - [N3] [Vyo].svg"><metadata
     id="metadata4454"><rdf:RDF><cc:Work
         rdf:about=""><dc:format>image/svg+xml</dc:format><dc:type
           rdf:resource="http://purl.org/dc/dcmitype/StillImage" /></cc:Work></rdf:RDF></metadata><sodipodi:namedview
     pagecolor="#ffffff"
     bordercolor="#666666"
     borderopacity="1"
     objecttolerance="10"
     gridtolerance="10"
     guidetolerance="10"
     inkscape:pageopacity="0"
     inkscape:pageshadow="2"
     inkscape:window-width="640"
     inkscape:window-height="480"
     id="namedview4452"
     showgrid="false"
     inkscape:zoom="0.23838384"
     inkscape:cx="736.83001"
     inkscape:cy="849.33005"
     inkscape:window-x="0"
     inkscape:window-y="0"
     inkscape:window-maximized="0"
     inkscape:current-layer="svg4412" /><defs
     id="defs4414"><style
       type="text/css"
       id="style4416"><![CDATA[
    .fil2 {fill:none}
    .fil0 {fill:black}
    .fil4 {fill:#FFCC00}
    .fil5 {fill:white}
    .fil1 {fill:#FFCC00;fill-rule:nonzero}
    .fil3 {fill:white;fill-rule:nonzero}
   ]]></style></defs><g
     id="Layer_x0020_1"
     transform="translate(3937,-7063)"><metadata
       id="CorelCorpID_0Corel-Layer" /><circle
       class="fil0"
       cy="11000"
       r="3937"
       id="circle4420"
       cx="0"
       style="fill:#000000" /><path
       class="fil1"
       d="m 0,7339 c 1011,0 1926,409 2589,1072 663,663 1072,1578 1072,2589 0,1011 -409,1926 -1072,2589 -663,663 -1578,1072 -2589,1072 -1011,0 -1926,-409 -2589,-1072 -663,-663 -1072,-1578 -1072,-2589 0,-1011 409,-1926 1072,-2589 C -1926,7748 -1011,7339 0,7339 Z M 2478,8522 C 1844,7888 968,7496 0,7496 c -968,0 -1844,392 -2478,1026 -634,634 -1026,1510 -1026,2478 0,968 392,1844 1026,2478 634,634 1510,1026 2478,1026 968,0 1844,-392 2478,-1026 634,-634 1026,-1510 1026,-2478 0,-968 -392,-1844 -1026,-2478 z"
       id="path4422"
       inkscape:connector-curvature="0"
       style="fill:#ffcc00;fill-rule:nonzero" /><circle
       class="fil2"
       cy="11000"
       r="3740"
       id="circle4424"
       cx="0"
       style="fill:none" /><circle
       class="fil2"
       cy="11000"
       r="3740"
       id="circle4426"
       cx="0"
       style="fill:none" /><path
       class="fil3"
       d="m -3316,10706 1,-137 280,1 c 43,0 77,8 102,22 24,15 42,39 53,73 7,19 10,42 11,69 2,27 2,58 2,93 0,37 0,71 0,101 -1,30 -2,56 -5,80 -3,23 -8,43 -15,60 -7,17 -17,31 -30,43 -13,11 -30,19 -51,24 -20,5 -45,8 -76,8 l -273,-1 0,-137 234,1 c 18,0 34,-1 46,-2 12,-1 22,-3 30,-6 8,-4 14,-9 18,-16 5,-7 7,-16 9,-28 2,-11 3,-25 3,-42 1,-17 1,-38 1,-62 0,-18 0,-33 0,-47 0,-14 -1,-26 -2,-36 -1,-11 -3,-20 -5,-27 -3,-7 -8,-14 -14,-18 -9,-8 -20,-12 -33,-14 -14,-1 -30,-1 -50,-1 l -236,-1 z"
       id="path4428"
       inkscape:connector-curvature="0"
       style="fill:#ffffff;fill-rule:nonzero" /><path
       id="1"
       class="fil3"
       d="m -3032,10034 c -10,-3 -18,-3 -24,-2 -7,1 -13,5 -18,12 -5,7 -9,16 -13,28 -5,12 -10,27 -15,47 -1,3 -2,6 -3,8 0,2 -1,5 -1,8 -7,29 -13,52 -18,71 -6,19 -9,34 -11,46 -1,12 0,22 4,28 4,7 11,12 23,15 11,3 20,2 28,-5 7,-6 13,-16 17,-29 6,-19 12,-37 17,-54 6,-18 11,-34 15,-49 2,-9 5,-18 7,-28 3,-9 5,-18 8,-27 10,-35 20,-66 29,-91 10,-26 21,-46 34,-60 14,-14 30,-23 50,-26 20,-3 45,0 77,9 22,6 40,13 55,22 14,9 24,19 32,31 7,12 12,26 13,42 2,15 1,33 -3,53 -2,12 -6,35 -14,68 -8,34 -19,76 -34,127 -14,51 -27,91 -39,122 -12,31 -26,53 -40,64 -10,8 -20,14 -30,16 -10,3 -20,4 -30,3 -10,-1 -20,-3 -31,-6 -11,-3 -23,-7 -35,-10 l 36,-129 c 5,1 10,2 15,4 5,1 10,2 15,1 4,-1 9,-4 14,-9 5,-4 9,-12 13,-24 2,-5 6,-15 10,-30 5,-15 11,-34 17,-57 9,-30 16,-55 21,-74 5,-19 8,-34 8,-46 0,-11 -1,-19 -5,-25 -4,-5 -11,-9 -21,-12 -9,-3 -17,-3 -24,0 -6,2 -12,6 -16,13 -4,6 -8,15 -12,25 -3,10 -6,20 -10,32 -12,42 -23,79 -32,112 -9,32 -18,61 -26,84 -9,23 -18,43 -27,58 -9,15 -19,27 -31,34 -13,7 -27,11 -44,11 -16,0 -36,-3 -60,-10 -21,-6 -39,-13 -53,-21 -14,-8 -25,-18 -33,-29 -8,-12 -13,-25 -15,-41 -2,-15 -1,-34 2,-55 2,-14 7,-37 14,-68 7,-31 17,-69 30,-116 7,-24 14,-46 19,-65 6,-20 12,-37 18,-51 6,-15 12,-28 19,-38 6,-11 14,-19 23,-26 10,-8 19,-13 28,-16 9,-3 19,-5 29,-5 9,0 20,1 30,4 11,2 22,4 35,8 l -37,128 z"
       inkscape:connector-curvature="0"
       style="fill:#ffffff;fill-rule:nonzero" /><path
       id="2"
       class="fil3"
       d="m -2641,9480 -200,1 111,167 89,-168 z m 105,-1 -134,254 50,77 -70,133 -278,-427 86,-161 506,-8 -69,132 -91,0 z"
       inkscape:connector-curvature="0"
       style="fill:#ffffff;fill-rule:nonzero" /><path
       id="3"
       class="fil3"
       d="m -2417,9064 131,-155 c 3,-3 5,-5 6,-7 2,-1 4,-3 6,-6 11,-12 18,-22 23,-30 4,-8 6,-16 6,-22 -1,-7 -4,-13 -9,-19 -6,-6 -13,-13 -23,-21 -9,-8 -17,-13 -24,-16 -7,-3 -13,-3 -20,-1 -7,2 -13,6 -20,13 -7,7 -16,16 -25,27 l -138,163 87,74 z m 82,70 87,74 -88,104 -339,-289 268,-314 c 17,-21 34,-38 51,-48 16,-12 32,-18 48,-20 16,-2 33,1 49,9 17,8 36,20 55,37 21,17 35,32 44,46 10,13 15,26 16,38 2,12 0,24 -4,36 -5,12 -10,25 -16,40 10,-8 19,-15 28,-22 8,-8 18,-12 27,-15 10,-3 20,-2 32,1 11,4 25,12 40,26 l 61,51 -88,104 -45,-38 c -14,-12 -28,-18 -40,-18 -12,0 -25,9 -40,27 l -146,171 z"
       inkscape:connector-curvature="0"
       style="fill:#ffffff;fill-rule:nonzero" /><polygon
       id="4"
       class="fil3"
       points="-2201,8518 -2098,8428 -1805,8762 -1908,8852 "
       style="fill:#ffffff;fill-rule:nonzero" /><path
       id="5"
       class="fil3"
       d="m -1506,8345 -176,-95 16,199 160,-104 z m 92,50 -240,157 7,92 -126,82 -36,-507 152,-100 447,239 -125,81 -79,-44 z"
       inkscape:connector-curvature="0"
       style="fill:#ffffff;fill-rule:nonzero" /><path
       id="6"
       class="fil3"
       d="m -1058,8204 219,-67 c 18,-6 33,-12 44,-18 11,-6 19,-14 24,-24 4,-10 5,-23 3,-38 -2,-16 -6,-36 -14,-60 -5,-18 -11,-34 -17,-47 -6,-13 -13,-23 -21,-30 -8,-7 -18,-11 -29,-12 -11,-1 -25,1 -41,6 l -234,72 66,218 z m -98,143 -131,-425 376,-115 c 12,-3 26,-7 42,-11 16,-3 35,-7 56,-11 31,-6 60,2 87,26 27,25 49,64 66,120 4,13 9,30 14,49 6,20 12,43 19,69 10,39 6,74 -13,103 -18,30 -49,52 -93,65 l -423,130 z"
       inkscape:connector-curvature="0"
       style="fill:#ffffff;fill-rule:nonzero" /><polygon
       id="7"
       class="fil3"
       points="-424,7813 -398,8145 -525,8156 -561,7713 -346,7695 -53,8006 -80,7674 48,7663 84,8107 -131,8124 "
       style="fill:#ffffff;fill-rule:nonzero" /><path
       id="8"
       class="fil3"
       d="m 589,8011 -64,-189 -124,157 188,32 z m 33,99 -283,-48 -56,72 -149,-25 318,-397 180,30 166,478 -147,-24 -29,-86 z"
       inkscape:connector-curvature="0"
       style="fill:#ffffff;fill-rule:nonzero" /><path
       id="9"
       class="fil3"
       d="m 1288,8242 36,-77 276,128 c -14,31 -27,58 -38,81 -11,23 -22,43 -32,59 -10,16 -21,29 -32,37 -11,9 -25,14 -40,16 -15,1 -33,-1 -54,-7 -21,-6 -46,-16 -75,-30 -13,-6 -26,-12 -39,-18 -13,-6 -26,-12 -39,-18 l -37,-18 c -45,-20 -82,-39 -112,-56 -31,-17 -53,-35 -68,-56 -14,-20 -21,-44 -19,-71 2,-27 12,-61 31,-102 6,-13 14,-29 25,-50 10,-21 23,-46 38,-74 7,-13 15,-24 26,-34 11,-10 23,-17 35,-23 13,-5 26,-8 39,-10 14,-1 27,0 40,4 26,8 51,17 76,27 24,10 49,21 73,32 33,15 62,29 88,40 26,13 49,24 68,35 20,11 36,22 49,32 12,11 22,22 28,34 6,12 10,23 11,33 2,11 2,21 0,31 -2,11 -5,22 -10,33 -4,11 -9,23 -15,35 l -120,-55 c 4,-11 6,-20 6,-27 0,-7 -2,-13 -7,-19 -5,-6 -12,-12 -23,-18 -11,-6 -25,-13 -42,-21 l -31,-14 c -11,-5 -22,-10 -32,-15 -11,-5 -20,-10 -29,-14 -20,-9 -37,-17 -50,-22 -14,-6 -26,-7 -36,-5 -11,1 -21,8 -30,19 -9,11 -19,29 -31,53 -10,22 -18,41 -24,57 -5,15 -9,28 -9,39 -1,11 1,21 6,29 5,8 14,15 25,23 11,8 26,16 45,24 18,9 40,19 66,31 20,9 37,17 51,24 15,6 28,10 39,12 11,2 20,0 28,-4 7,-5 14,-14 20,-27 2,-2 2,-4 3,-6 0,-1 1,-3 2,-5 l -156,-72 z"
       inkscape:connector-curvature="0"
       style="fill:#ffffff;fill-rule:nonzero" /><path
       id="10"
       class="fil3"
       d="m 1797,8469 157,129 c 3,2 5,4 7,6 1,2 4,4 6,6 13,10 23,17 31,22 8,4 16,6 22,5 7,0 13,-3 19,-9 6,-5 13,-13 21,-22 7,-10 12,-18 15,-25 2,-7 2,-13 0,-20 -2,-6 -6,-13 -13,-20 -7,-7 -16,-15 -28,-24 l -165,-136 -72,88 z m -69,84 -72,88 -106,-86 282,-344 320,262 c 21,17 37,34 49,50 11,16 18,32 20,48 2,16 0,33 -8,50 -7,17 -19,35 -35,55 -17,21 -32,36 -45,45 -13,9 -26,15 -38,17 -12,1 -24,0 -36,-4 -12,-4 -25,-9 -40,-16 8,10 16,20 23,28 7,9 12,18 15,28 3,9 3,20 -1,31 -3,12 -11,25 -24,41 l -51,62 -106,-87 37,-45 c 12,-15 18,-28 18,-40 0,-12 -9,-25 -28,-40 l -174,-143 z"
       inkscape:connector-curvature="0"
       style="fill:#ffffff;fill-rule:nonzero" /><path
       id="11"
       class="fil3"
       d="m 2668,9024 82,108 -223,169 c -34,26 -65,41 -94,45 -29,3 -58,-5 -87,-25 -16,-11 -33,-28 -51,-48 -17,-21 -36,-45 -58,-73 -22,-30 -42,-56 -60,-80 -18,-24 -33,-47 -45,-67 -12,-20 -20,-39 -25,-57 -5,-18 -5,-35 -2,-52 4,-17 13,-33 26,-50 13,-17 31,-34 55,-52 l 218,-166 82,109 -185,141 c -15,11 -27,21 -36,29 -9,9 -16,16 -20,24 -4,8 -6,16 -5,24 1,7 4,17 10,27 5,10 13,22 23,36 10,13 23,30 37,49 11,14 21,27 29,38 8,11 16,20 23,28 8,7 15,13 21,17 7,4 14,6 22,7 12,0 23,-3 35,-10 11,-7 25,-17 41,-29 l 187,-142 z"
       inkscape:connector-curvature="0"
       style="fill:#ffffff;fill-rule:nonzero" /><polygon
       id="12"
       class="fil3"
       points="2794,9424 2499,9581 2439,9468 2831,9258 2932,9448 2764,9841 3058,9684 3118,9797 2726,10006 2625,9817 "
       style="fill:#ffffff;fill-rule:nonzero" /><polygon
       id="13"
       class="fil3"
       points="3104,10177 3060,9983 3168,9958 3287,10476 3178,10501 3135,10310 2810,10384 2779,10251 "
       style="fill:#ffffff;fill-rule:nonzero" /><path
       id="14"
       class="fil3"
       d="m 3179,11013 c 10,-1 18,-3 24,-6 6,-3 11,-8 14,-16 3,-8 5,-18 5,-31 1,-12 2,-29 2,-49 0,-3 0,-6 0,-8 0,-3 -1,-5 -1,-9 -1,-29 -2,-53 -2,-73 0,-19 -1,-35 -3,-47 -2,-12 -6,-21 -11,-26 -6,-5 -14,-8 -27,-8 -11,0 -19,4 -25,12 -5,8 -8,19 -9,33 0,20 -1,39 -1,57 0,18 -1,35 -1,51 0,9 0,19 1,29 0,10 0,19 0,28 0,37 -1,69 -3,96 -2,27 -7,50 -16,67 -9,18 -23,31 -41,39 -18,9 -43,13 -76,13 -23,0 -43,-2 -59,-7 -16,-4 -29,-11 -40,-21 -10,-9 -18,-21 -24,-36 -6,-15 -10,-32 -12,-53 -2,-12 -3,-35 -5,-69 -2,-34 -3,-78 -3,-131 0,-53 2,-96 5,-129 3,-33 10,-57 20,-72 8,-11 16,-19 25,-24 8,-5 18,-8 27,-10 10,-2 21,-3 32,-3 11,0 24,0 37,0 l 0,134 c -5,0 -10,0 -15,0 -6,0 -10,1 -14,3 -5,2 -9,6 -12,12 -3,6 -5,15 -6,27 -1,5 -1,16 -1,32 -1,16 -1,36 -1,60 0,31 0,56 1,76 0,20 2,35 4,46 3,11 7,19 12,23 6,4 14,6 24,6 10,0 17,-2 23,-6 5,-4 9,-10 12,-17 2,-8 4,-17 4,-28 0,-10 1,-21 1,-34 0,-43 0,-82 0,-116 0,-34 0,-63 2,-88 2,-25 5,-46 9,-63 5,-17 12,-31 22,-41 9,-11 22,-18 38,-23 16,-5 37,-7 61,-7 22,0 41,2 57,6 16,3 29,10 40,19 11,9 19,20 25,35 6,14 11,32 14,53 1,14 3,37 5,69 2,32 3,72 3,120 0,25 0,48 -1,68 0,21 -1,39 -3,54 -1,16 -4,30 -7,42 -4,12 -8,22 -15,31 -7,10 -15,18 -23,23 -8,6 -16,10 -26,13 -9,2 -19,4 -30,5 -11,1 -23,1 -36,1 l 0,-132 z"
       inkscape:connector-curvature="0"
       style="fill:#ffffff;fill-rule:nonzero" /><path
       class="fil3"
       d="m -1636,13335 c -5,-9 -17,-23 -36,-43 -9,-9 -20,-20 -33,-31 -13,-11 -27,-23 -44,-36 l -16,-13 c -9,-6 -22,-16 -40,-28 -18,-12 -32,-22 -41,-29 -29,-19 -52,-31 -67,-34 -16,-4 -29,-3 -40,4 -11,6 -22,16 -32,29 -18,22 -24,43 -18,62 6,19 21,38 45,56 l 42,33 89,70 42,32 c 10,9 18,15 23,20 5,4 14,14 28,28 22,21 35,45 39,72 3,26 -9,57 -36,93 -19,23 -37,39 -56,49 -19,9 -40,11 -65,6 -21,-6 -45,-17 -72,-34 -27,-17 -55,-37 -84,-59 l -30,-24 c -10,-8 -20,-16 -31,-24 -11,-8 -22,-17 -34,-26 -8,-7 -17,-14 -24,-22 -8,-7 -23,-22 -44,-43 -21,-21 -31,-45 -31,-71 0,-26 16,-60 48,-101 l 46,36 -6,8 c -15,19 -24,35 -28,47 -4,12 -1,26 11,43 7,9 15,18 23,27 8,9 18,19 31,28 l 72,60 c 39,31 74,55 103,73 30,17 54,25 71,24 18,-2 35,-13 52,-35 22,-28 29,-51 22,-68 -7,-18 -25,-38 -55,-62 l -87,-68 -100,-82 c -34,-27 -56,-56 -65,-85 -9,-29 -1,-59 25,-92 20,-26 41,-44 62,-54 21,-11 45,-12 71,-5 14,5 28,11 42,17 15,7 28,15 40,24 29,19 60,42 93,68 12,9 23,18 33,26 10,8 19,15 27,20 12,10 30,28 55,54 14,11 24,23 30,35 7,13 10,27 12,44 2,27 -10,58 -37,91 l -46,-36 c 14,-17 22,-32 25,-42 2,-11 1,-22 -4,-32 z m 258,555 c -18,16 -40,24 -66,25 -26,1 -61,-10 -105,-32 -73,-38 -116,-72 -129,-104 -13,-32 -10,-68 10,-107 l 5,-10 90,-178 45,23 -84,166 c -22,43 -27,76 -15,98 13,21 43,44 91,68 49,25 88,37 118,38 30,1 57,-21 79,-66 l 84,-165 46,23 -154,302 -45,-23 30,-58 z m 462,209 c -13,10 -27,16 -41,19 -6,1 -14,1 -22,0 -9,-1 -17,-3 -25,-5 l -89,-29 -41,-15 c -57,-20 -91,-41 -104,-64 -12,-23 -13,-50 -2,-81 12,-34 27,-56 45,-66 17,-9 38,-11 62,-6 l 63,18 49,17 89,35 c 17,6 29,13 37,21 8,8 15,21 20,39 l 12,-34 c 7,-19 11,-36 13,-50 2,-14 -2,-27 -11,-38 -4,-6 -11,-11 -20,-17 -8,-6 -19,-11 -31,-16 l -57,-22 -45,-16 c -7,-3 -15,-5 -23,-8 -8,-2 -19,-5 -32,-8 -13,-2 -24,0 -34,6 -10,7 -18,19 -24,36 l -51,-19 c 12,-34 28,-56 47,-64 20,-8 41,-9 64,-3 24,6 42,11 56,15 13,3 27,8 39,12 l 76,30 c 19,6 40,18 63,34 20,14 32,32 34,55 3,22 -2,49 -12,79 l -71,200 -48,-17 14,-38 z m -160,-59 13,5 c 8,3 19,7 33,12 13,4 23,8 28,10 8,2 15,4 21,6 6,1 20,2 41,4 20,1 35,-11 44,-36 8,-21 6,-37 -5,-47 -10,-11 -24,-20 -40,-28 l -52,-22 -42,-15 c -32,-11 -55,-19 -69,-22 -13,-3 -26,-5 -39,-5 -12,0 -22,4 -29,11 -7,8 -13,17 -17,29 -5,16 -5,30 1,43 7,13 25,24 56,35 l 56,20 z m 961,-194 c -10,-4 -28,-10 -54,-16 -13,-2 -28,-4 -45,-7 -16,-2 -36,-4 -57,-5 l -20,-2 c -11,-1 -27,-1 -49,-1 -21,0 -38,0 -50,-1 -35,0 -60,3 -75,8 -15,6 -26,14 -31,26 -6,11 -9,25 -10,42 -2,28 4,49 19,62 16,12 39,19 69,21 l 53,4 113,9 53,4 c 13,1 23,2 30,3 6,1 19,3 38,8 31,5 55,18 73,38 17,20 25,52 21,97 -2,29 -8,53 -19,72 -10,18 -27,32 -50,41 -21,7 -47,11 -79,12 -32,1 -66,0 -103,-3 l -38,-3 c -13,-1 -26,-2 -39,-3 -13,-1 -28,-2 -42,-3 -12,-1 -22,-2 -33,-4 -11,-2 -31,-6 -60,-12 -29,-6 -51,-20 -66,-42 -14,-21 -20,-58 -16,-110 l 59,4 -1,10 c -2,24 -1,43 2,55 4,12 15,22 34,29 10,4 22,7 34,10 12,3 26,6 41,7 l 94,9 c 49,4 91,5 126,3 34,-2 59,-8 72,-19 14,-11 22,-30 24,-58 2,-35 -4,-58 -20,-69 -15,-10 -42,-17 -80,-20 l -110,-8 -128,-14 c -44,-3 -78,-14 -102,-34 -23,-19 -34,-49 -31,-90 3,-33 10,-59 22,-80 12,-21 31,-35 57,-43 14,-4 29,-7 44,-10 16,-2 31,-3 47,-1 34,-1 72,1 114,4 15,1 29,2 42,3 13,1 24,2 34,3 15,1 41,5 76,13 17,2 32,6 45,13 12,7 23,17 33,30 17,21 24,53 21,96 l -58,-4 c 1,-23 0,-39 -4,-49 -4,-11 -11,-19 -20,-25 z m 203,137 c 10,-24 24,-41 45,-50 20,-10 45,-15 76,-18 l 53,-4 c 78,-6 133,0 165,19 32,18 51,64 57,138 5,61 -2,106 -20,135 -17,29 -55,45 -113,50 l -62,4 -73,6 c -28,2 -50,0 -68,-7 -18,-6 -32,-21 -43,-45 l 16,203 -51,3 -37,-484 51,-4 4,54 z m 342,92 c -4,-60 -17,-97 -38,-109 -20,-12 -63,-15 -128,-10 l -17,1 c -11,1 -20,2 -29,2 -9,1 -18,2 -26,2 -8,1 -15,2 -22,3 -7,2 -17,5 -28,9 -20,6 -33,19 -40,40 -6,23 -8,51 -5,86 4,62 19,98 45,108 25,10 73,13 143,7 62,-4 103,-15 123,-30 19,-15 26,-52 22,-109 z m 298,-243 c 56,-13 99,-20 129,-20 29,-1 55,8 77,27 23,19 40,54 52,106 18,78 14,130 -11,157 -25,27 -82,50 -169,70 -79,19 -136,22 -172,10 -37,-12 -63,-55 -80,-127 -12,-53 -14,-94 -5,-124 8,-31 28,-52 60,-64 10,-3 21,-8 34,-12 12,-5 24,-8 34,-11 l 51,-12 z m 69,297 c 32,-7 59,-15 78,-22 20,-7 36,-15 48,-24 23,-17 28,-52 16,-105 -10,-41 -21,-72 -35,-93 -14,-20 -34,-30 -60,-28 l -60,8 -52,12 -15,3 c -54,13 -89,28 -106,47 -16,19 -18,56 -5,112 12,52 30,84 54,96 24,12 63,11 118,-1 l 19,-5 z m 264,-318 c -4,-34 5,-60 25,-79 20,-19 50,-37 90,-55 l 6,-3 c 34,-16 62,-26 83,-31 23,-7 45,-7 66,-2 22,5 38,14 49,29 12,14 23,32 32,54 l 84,186 -46,21 -82,-182 c -17,-38 -38,-58 -64,-60 -26,-3 -61,6 -104,26 -50,22 -85,45 -106,67 -20,23 -21,56 -1,100 l 79,174 -46,21 -140,-309 46,-21 29,64 z m 630,-367 -197,127 88,138 c 20,31 39,48 57,52 18,3 43,-6 74,-26 30,-19 49,-37 58,-53 9,-16 5,-37 -11,-62 l -21,-32 39,-26 c 34,53 50,92 48,117 -1,25 -29,55 -83,90 -44,29 -81,44 -109,46 -28,1 -55,-18 -81,-59 l -13,-20 -89,-137 -69,45 -24,-37 70,-44 -42,-65 42,-27 42,64 197,-127 24,36 z m 290,101 31,-21 47,-37 20,-18 7,-6 c 16,-13 28,-25 38,-35 10,-10 17,-21 22,-32 5,-11 7,-21 6,-31 -1,-9 -5,-19 -13,-30 l 41,-35 c 29,34 34,67 16,101 -19,34 -49,69 -92,106 -49,42 -86,70 -111,85 -26,14 -54,19 -84,13 -30,-6 -64,-31 -101,-73 -45,-52 -65,-97 -60,-132 4,-36 33,-77 86,-123 l 26,-23 c 20,-17 39,-32 55,-44 16,-12 31,-21 44,-29 25,-13 51,-16 79,-9 28,7 59,31 93,70 l 10,13 -289,250 c 22,25 42,42 61,50 19,8 41,5 68,-10 z m -76,-270 -30,26 c -22,19 -40,37 -54,53 -15,16 -23,31 -25,44 -2,14 0,27 5,40 3,5 6,11 9,16 4,6 8,12 14,18 l 250,-215 c -10,-11 -19,-20 -29,-27 -10,-7 -21,-11 -33,-12 -12,0 -27,4 -44,12 -8,4 -17,10 -28,18 -12,8 -23,17 -35,27 z"
       id="path4444"
       inkscape:connector-curvature="0"
       style="fill:#ffffff;fill-rule:nonzero" /><polygon
       class="fil4"
       points="973,11316 1574,13166 0,12023 -1574,13166 -973,11316 -2546,10173 -601,10173 0,8323 601,10173 2546,10173 "
       id="polygon4446"
       style="fill:#ffcc00" /><polygon
       class="fil0"
       points="-834,11271 -1349,12857 0,11877 1349,12857 834,11271 2183,10291 515,10291 0,8705 -515,10291 -2183,10291 "
       id="polygon4448"
       style="fill:#000000" /><polygon
       class="fil5"
       points="-695,11226 -1124,12547 0,11731 1124,12547 695,11226 1819,10409 429,10409 0,9087 -429,10409 -1819,10409 "
       id="polygon4450"
       style="fill:#ffffff" /></g></svg>