<?xml version="1.0" encoding="UTF-8" standalone="no"?>
<!-- Creator: CorelDRAW X7 -->

<svg
   xmlns:dc="http://purl.org/dc/elements/1.1/"
   xmlns:cc="http://creativecommons.org/ns#"
   xmlns:rdf="http://www.w3.org/1999/02/22-rdf-syntax-ns#"
   xmlns:svg="http://www.w3.org/2000/svg"
   xmlns="http://www.w3.org/2000/svg"
   xmlns:sodipodi="http://sodipodi.sourceforge.net/DTD/sodipodi-0.dtd"
   xmlns:inkscape="http://www.inkscape.org/namespaces/inkscape"
   xml:space="preserve"
   width="7.8740005in"
   height="7.8740005in"
   version="1.1"
   style="clip-rule:evenodd;fill-rule:evenodd;image-rendering:optimizeQuality;shape-rendering:geometricPrecision;text-rendering:geometricPrecision"
   viewBox="0 0 7874.0005 7874.0005"
   id="svg3428"
   inkscape:version="0.91 r13725"
   sodipodi:docname="Ariadna - Briscards - [N3] [Vyo].svg"><metadata
     id="metadata3477"><rdf:RDF><cc:Work
         rdf:about=""><dc:format>image/svg+xml</dc:format><dc:type
           rdf:resource="http://purl.org/dc/dcmitype/StillImage" /></cc:Work></rdf:RDF></metadata><sodipodi:namedview
     pagecolor="#ffffff"
     bordercolor="#666666"
     borderopacity="1"
     objecttolerance="10"
     gridtolerance="10"
     guidetolerance="10"
     inkscape:pageopacity="0"
     inkscape:pageshadow="2"
     inkscape:window-width="640"
     inkscape:window-height="480"
     id="namedview3475"
     showgrid="false"
     inkscape:zoom="0.23838384"
     inkscape:cx="736.83001"
     inkscape:cy="849.33005"
     inkscape:window-x="0"
     inkscape:window-y="0"
     inkscape:window-maximized="0"
     inkscape:current-layer="svg3428" /><defs
     id="defs3430"><style
       type="text/css"
       id="style3432"><![CDATA[
    .fil3 {fill:none}
    .fil1 {fill:black}
    .fil0 {fill:#E32527}
    .fil2 {fill:white;fill-rule:nonzero}
   ]]></style></defs><g
     id="Layer_x0020_1"
     transform="translate(3937,-7063)"><metadata
       id="CorelCorpID_0Corel-Layer" /><circle
       class="fil0"
       cy="11000"
       r="3937"
       id="circle3436"
       cx="0"
       style="fill:#e32527" /><circle
       class="fil1"
       cy="11000"
       r="3858"
       id="circle3438"
       cx="0"
       style="fill:#000000" /><circle
       class="fil0"
       cy="11000"
       r="2441"
       id="circle3440"
       cx="0"
       style="fill:#e32527" /><path
       class="fil1"
       d="M 0,9071 787,8756 0,11000 -787,8756 0,9071 Z M -590,8962 0,10643 590,8962 0,9198 -590,8962 Z M -689,8859 0,10822 689,8859 0,9134 -689,8859 Z"
       id="path3442"
       inkscape:connector-curvature="0"
       style="fill:#000000" /><path
       class="fil1"
       d="m -1835,10404 -56,-846 1891,1442 -2378,55 543,-651 z m -285,527 1781,-41 -1417,-1081 42,634 -406,488 z m -129,62 2079,-48 -1653,-1262 49,741 -475,569 z"
       id="path3444"
       inkscape:connector-curvature="0"
       style="fill:#000000" /><path
       class="fil1"
       d="m -1134,12561 -822,-208 1956,-1353 -682,2278 -452,-717 z m 413,434 511,-1706 -1465,1013 616,156 338,537 z m 20,142 596,-1993 -1711,1183 719,182 396,628 z"
       id="path3446"
       inkscape:connector-curvature="0"
       style="fill:#000000" /><path
       class="fil1"
       d="m 1134,12561 -452,717 -682,-2278 1956,1353 -822,208 z m 541,-259 -1465,-1013 511,1706 338,-537 616,-156 z m 141,25 -1711,-1183 596,1993 396,-628 719,-182 z"
       id="path3448"
       inkscape:connector-curvature="0"
       style="fill:#000000" /><path
       class="fil1"
       d="m 1835,10404 543,651 -2378,-55 1891,-1442 -56,846 z m -79,-595 -1417,1081 1781,41 -406,-488 42,-634 z m 67,-126 -1653,1262 2079,48 -475,-569 49,-741 z"
       id="path3450"
       inkscape:connector-curvature="0"
       style="fill:#000000" /><circle
       class="fil0"
       cy="11000"
       r="1004"
       id="circle3452"
       cx="0"
       style="fill:#e32527" /><path
       class="fil1"
       d="m 0,10114 c 489,0 886,397 886,886 0,489 -397,886 -886,886 -489,0 -886,-397 -886,-886 0,-489 397,-886 886,-886 z m 0,-118 c 554,0 1004,450 1004,1004 0,554 -450,1004 -1004,1004 -554,0 -1004,-450 -1004,-1004 0,-554 450,-1004 1004,-1004 z m 0,59 c 522,0 945,423 945,945 0,522 -423,945 -945,945 -522,0 -945,-423 -945,-945 0,-522 423,-945 945,-945 z m 0,256 c 381,0 689,308 689,689 0,381 -308,689 -689,689 -381,0 -689,-308 -689,-689 0,-381 308,-689 689,-689 z"
       id="path3454"
       inkscape:connector-curvature="0"
       style="fill:#000000" /><path
       class="fil2"
       d="m -2072,8652 109,-97 -129,-36 20,133 z m 173,-75 -159,141 11,81 c 1,6 0,11 -2,16 -2,5 -5,9 -9,12 -3,3 -6,5 -11,7 -4,1 -8,2 -13,2 -4,0 -8,0 -12,-2 -5,-1 -8,-4 -11,-7 -4,-5 -7,-11 -8,-17 l -41,-302 c -1,-9 -1,-16 2,-24 3,-7 7,-13 12,-18 6,-5 12,-8 20,-10 7,-2 15,-1 23,1 l 295,76 0,0 c 7,2 13,5 17,10 4,3 6,7 7,11 1,4 1,8 0,13 0,4 -2,8 -4,12 -2,4 -5,7 -8,10 -4,4 -8,6 -13,8 -5,1 -11,1 -17,-1 l -79,-19 z"
       id="path3456"
       inkscape:connector-curvature="0"
       style="fill:#ffffff;fill-rule:nonzero" /><path
       id="1"
       class="fil2"
       d="m -1718,8320 c -25,17 -34,31 -26,43 l 76,119 c 11,17 8,32 -11,43 -18,13 -33,10 -44,-7 l -77,-119 c -29,-45 -11,-88 54,-130 l 16,-11 c 16,-10 29,-7 40,10 10,16 8,29 -6,38 l -22,14 z"
       inkscape:connector-curvature="0"
       style="fill:#ffffff;fill-rule:nonzero" /><path
       id="2"
       class="fil2"
       d="m -1376,8127 -130,69 c -30,16 -41,32 -32,48 l 37,71 c 8,15 26,14 55,-1 l 83,-44 c 33,-17 45,-33 38,-48 l -51,-95 z m 111,69 c 24,46 -1,89 -76,129 l -68,36 c -74,39 -122,37 -145,-7 l -45,-84 c -25,-48 -1,-92 73,-131 l 122,-65 -19,-36 c -9,-18 -5,-32 14,-42 20,-11 34,-7 44,11 l 100,189 z"
       inkscape:connector-curvature="0"
       style="fill:#ffffff;fill-rule:nonzero" /><path
       id="3"
       class="fil2"
       d="m -1140,8064 185,-64 -7,-20 c -3,-11 -16,-13 -38,-5 l -104,35 c -33,11 -47,23 -43,35 l 7,19 z m 253,-66 c 6,20 0,33 -19,39 l -218,75 8,24 c 4,11 23,12 55,0 l 42,-14 c 19,-7 31,-1 38,18 6,18 0,31 -19,37 l -32,12 c -81,27 -130,15 -147,-37 l -28,-82 c -18,-52 13,-91 92,-118 l 88,-30 c 68,-23 109,-12 125,34 l 15,42 z"
       inkscape:connector-curvature="0"
       style="fill:#ffffff;fill-rule:nonzero" /><path
       id="4"
       class="fil2"
       d="m -731,7900 36,159 c 5,20 -3,33 -25,37 -21,5 -34,-2 -38,-22 l -37,-159 -7,1 c -20,5 -32,-3 -36,-22 -4,-19 3,-30 23,-35 l 7,-2 -9,-40 c -5,-20 4,-32 25,-37 21,-5 34,3 39,22 l 9,41 68,-16 c 19,-4 31,3 35,22 4,19 -3,31 -22,35 l -68,16 z"
       inkscape:connector-curvature="0"
       style="fill:#ffffff;fill-rule:nonzero" /><path
       id="5"
       class="fil2"
       d="m -332,7870 195,-16 -2,-21 c -1,-12 -13,-17 -36,-15 l -110,9 c -33,3 -50,11 -49,23 l 2,20 z m 261,-2 c 2,21 -8,32 -28,34 l -229,19 2,24 c 1,13 18,18 52,15 l 45,-4 c 20,-1 31,7 32,27 2,19 -7,30 -27,32 l -34,3 c -85,6 -130,-18 -134,-72 l -7,-87 c -5,-54 35,-84 119,-91 l 93,-8 c 71,-6 108,16 112,64 l 4,44 z"
       inkscape:connector-curvature="0"
       style="fill:#ffffff;fill-rule:nonzero" /><path
       id="6"
       class="fil2"
       d="m 103,7817 -2,164 c -1,20 -12,30 -33,30 -22,0 -33,-11 -33,-31 l 3,-164 -8,0 c -20,0 -30,-10 -30,-30 1,-19 11,-29 31,-28 l 8,0 0,-41 c 1,-21 12,-31 34,-30 22,0 32,10 32,31 l -1,41 70,1 c 20,0 29,10 29,30 0,19 -10,29 -30,28 l -70,-1 z"
       inkscape:connector-curvature="0"
       style="fill:#ffffff;fill-rule:nonzero" /><path
       id="7"
       class="fil2"
       d="m 553,7913 143,32 -46,-126 -97,94 z m 163,97 -208,-47 -59,56 c -4,4 -9,7 -14,8 -5,1 -10,0 -15,0 -4,-1 -8,-3 -12,-6 -3,-2 -7,-5 -9,-9 -3,-3 -5,-7 -6,-11 -1,-5 -1,-9 0,-13 1,-6 4,-12 9,-17 l 221,-209 c 6,-6 13,-10 21,-12 7,-2 14,-2 21,-1 8,2 14,5 20,10 6,5 10,11 13,20 l 110,283 0,0 c 3,7 4,13 2,20 -1,4 -2,8 -5,11 -3,4 -6,6 -10,8 -4,2 -8,4 -12,4 -5,1 -9,1 -13,0 -6,-2 -10,-4 -14,-7 -4,-3 -8,-8 -10,-14 l -30,-74 z"
       inkscape:connector-curvature="0"
       style="fill:#ffffff;fill-rule:nonzero" /><path
       id="8"
       class="fil2"
       d="m 1196,8170 c -19,48 -67,57 -146,27 l -66,-25 c -79,-31 -110,-71 -91,-119 l 52,-137 c 8,-19 22,-24 42,-16 20,8 27,21 20,40 l -52,134 c -5,13 9,27 44,40 l 78,30 c 33,13 53,13 58,0 l 52,-134 c 7,-19 21,-24 42,-16 20,8 27,21 20,40 l -53,136 z"
       inkscape:connector-curvature="0"
       style="fill:#ffffff;fill-rule:nonzero" /><path
       id="9"
       class="fil2"
       d="m 1570,8225 -132,-67 c -30,-16 -49,-15 -58,1 l -37,72 c -7,14 3,29 32,44 l 84,43 c 33,17 54,18 61,4 l 50,-97 z m 6,131 c -24,46 -74,50 -150,11 l -67,-35 c -75,-38 -100,-79 -78,-123 l 44,-84 c 24,-49 74,-54 148,-16 l 124,63 18,-36 c 10,-18 24,-22 43,-12 19,10 25,24 15,42 l -97,190 z"
       inkscape:connector-curvature="0"
       style="fill:#ffffff;fill-rule:nonzero" /><path
       id="10"
       class="fil2"
       d="m 1750,8385 161,111 12,-18 c 7,-9 0,-21 -19,-34 l -90,-62 c -29,-20 -46,-24 -53,-13 l -11,16 z m 203,164 c -12,17 -26,20 -43,8 l -189,-130 -14,20 c -8,10 3,25 31,44 l 37,26 c 17,11 19,24 8,41 -11,16 -25,18 -41,7 l -29,-19 c -70,-49 -89,-95 -58,-141 l 49,-71 c 31,-45 81,-43 151,4 l 76,53 c 59,41 75,81 47,121 l -25,37 z"
       inkscape:connector-curvature="0"
       style="fill:#ffffff;fill-rule:nonzero" /><path
       id="11"
       class="fil2"
       d="m 2120,8623 -106,124 c -14,16 -28,16 -45,2 -17,-14 -19,-29 -5,-45 l 106,-123 -6,-6 c -15,-13 -16,-27 -4,-42 13,-14 27,-16 42,-2 l 6,5 27,-32 c 13,-15 28,-16 45,-1 17,14 18,29 5,44 l -27,31 53,46 c 15,12 16,26 3,41 -13,15 -26,16 -41,4 l -53,-46 z"
       inkscape:connector-curvature="0"
       style="fill:#ffffff;fill-rule:nonzero" /><circle
       class="fil3"
       cy="11000"
       r="3543"
       id="circle3469"
       cx="0"
       style="fill:none" /><circle
       class="fil3"
       cy="11000"
       r="3543"
       id="circle3471"
       cx="0"
       style="fill:none" /><path
       class="fil2"
       d="m -2870,9697 c 14,-15 28,-24 43,-27 15,-3 31,-1 47,6 23,11 39,29 47,54 8,25 6,53 -8,82 -13,30 -33,50 -57,61 -25,11 -50,11 -73,0 -15,-7 -27,-17 -34,-30 -8,-14 -10,-30 -9,-50 -16,18 -34,29 -53,33 -20,5 -39,2 -59,-7 -28,-13 -47,-34 -57,-63 -9,-29 -6,-61 9,-94 15,-34 37,-57 66,-69 28,-12 56,-11 85,1 21,10 36,24 45,42 10,17 12,38 8,61 z m 71,23 c -15,-7 -30,-8 -44,-2 -15,6 -26,17 -34,34 -7,16 -8,32 -3,46 5,15 14,26 29,32 14,7 29,7 44,1 15,-6 26,-17 33,-33 7,-16 8,-32 3,-47 -5,-15 -14,-25 -28,-31 z m -144,-83 c -11,-5 -24,-7 -37,-6 -13,0 -25,5 -36,14 -11,8 -20,19 -25,32 -10,20 -11,39 -5,58 7,19 20,32 39,41 19,9 38,9 56,2 19,-8 33,-22 42,-42 9,-20 11,-40 4,-58 -7,-19 -19,-32 -38,-41 z m -121,403 c 19,5 36,4 50,-5 14,-8 25,-22 32,-43 6,-18 6,-35 0,-51 -7,-16 -18,-28 -35,-36 l -47,135 z m -43,31 60,-176 -3,-1 c -22,-8 -43,-7 -62,1 -18,9 -31,24 -39,46 -5,15 -6,30 -2,44 3,15 11,30 23,44 l -28,22 c -15,-17 -25,-36 -29,-57 -3,-21 -1,-42 7,-65 11,-34 31,-58 60,-71 28,-14 60,-14 94,-3 33,12 57,31 71,59 14,28 15,58 4,91 -11,33 -30,55 -57,68 -27,12 -57,12 -92,0 l -7,-2 z m 194,-95 63,77 -17,49 -56,-97 10,-29 z m -385,436 128,30 c 22,5 39,4 52,-3 13,-7 22,-20 26,-39 3,-11 3,-21 1,-31 -2,-9 -6,-18 -12,-26 -5,-6 -11,-11 -18,-14 -7,-4 -19,-8 -37,-12 l -113,-26 9,-38 128,30 c 23,5 40,4 53,-3 13,-7 21,-20 26,-39 2,-11 2,-21 0,-31 -2,-10 -6,-19 -12,-27 -4,-5 -10,-10 -17,-13 -7,-4 -19,-8 -37,-12 l -113,-26 9,-38 218,50 -9,39 -34,-8 c 12,12 20,26 24,41 3,15 3,31 -1,48 -4,18 -11,33 -22,44 -10,12 -24,19 -40,22 13,14 22,28 26,43 4,15 4,31 0,49 -6,25 -17,44 -34,55 -17,11 -38,14 -62,8 l -148,-34 9,-39 z m 100,301 c 20,1 36,-3 48,-14 12,-11 19,-27 22,-49 3,-19 -1,-36 -10,-50 -10,-15 -23,-24 -42,-28 l -18,141 z m -36,39 24,-184 -4,-1 c -24,-3 -44,2 -60,14 -17,12 -26,30 -29,53 -2,15 0,30 6,44 7,13 17,26 32,38 l -23,27 c -19,-14 -32,-31 -40,-50 -8,-20 -10,-41 -7,-65 5,-36 20,-63 45,-82 25,-19 56,-26 92,-21 34,4 62,19 81,43 19,25 27,54 22,88 -4,35 -18,61 -42,78 -24,17 -54,24 -90,19 l -7,-1 z m -113,206 358,-8 2,88 c 0,25 -1,44 -3,55 -2,12 -7,23 -13,32 -8,11 -19,20 -33,26 -14,7 -29,10 -46,11 -29,0 -52,-8 -67,-25 -16,-17 -24,-41 -25,-75 l 0,-8 -167,147 -1,-56 167,-141 0,-6 -171,4 -1,-44 z m 323,36 -120,3 1,34 c 1,35 6,58 14,70 9,11 24,17 46,17 22,-1 38,-7 47,-20 9,-12 13,-35 13,-70 l -1,-34 z m -313,245 357,-27 15,197 -39,3 -12,-153 -102,8 12,153 -40,3 -11,-153 -137,10 12,153 -40,3 -15,-197 z m 397,33 89,46 4,51 -91,-66 -2,-31 z m -150,410 27,152 -12,2 c -55,10 -102,1 -140,-26 -37,-27 -61,-70 -71,-127 -3,-17 -5,-34 -4,-50 1,-17 4,-32 8,-47 10,-33 28,-60 53,-81 25,-22 56,-36 91,-42 30,-5 57,-5 82,1 26,6 49,17 71,34 18,14 33,31 44,52 12,20 20,44 24,71 7,35 6,67 -2,96 -7,28 -22,53 -44,74 l -34,-32 c 19,-17 32,-36 39,-58 7,-22 8,-46 4,-72 -8,-43 -28,-75 -60,-97 -32,-22 -71,-29 -115,-21 -42,7 -74,27 -97,59 -22,32 -29,69 -22,111 7,37 23,66 49,87 25,20 56,29 90,26 l -18,-106 37,-6 z m -105,227 c 7,-2 15,-1 22,3 7,4 12,10 14,18 2,8 2,16 -2,23 -4,8 -10,13 -17,15 -8,2 -15,1 -22,-3 -7,-4 -12,-11 -14,-19 -3,-8 -2,-16 2,-23 3,-7 9,-12 17,-14 z m 125,325 11,26 c 19,42 34,70 45,85 11,15 23,25 36,32 18,9 37,14 58,13 21,-1 42,-6 65,-16 23,-11 41,-23 55,-38 14,-16 24,-33 29,-52 3,-15 3,-31 -1,-49 -3,-18 -15,-48 -33,-89 l -12,-26 -253,114 z m -55,-25 325,-147 30,66 c 22,48 35,84 40,106 4,22 4,43 0,63 -6,26 -18,49 -35,69 -18,20 -42,37 -71,50 -29,13 -57,20 -84,20 -27,0 -52,-7 -75,-20 -18,-10 -33,-23 -47,-40 -13,-17 -29,-46 -47,-86 l -7,-15 -29,-66 z m 477,192 -120,62 -14,-27 120,-62 14,27 z m -278,222 311,-177 22,38 -310,178 -23,-39 z m 62,121 304,-214 -75,389 222,-157 24,34 -303,215 72,-387 -219,155 -25,-35 z m 236,332 271,-234 129,150 -29,25 -101,-116 -77,67 100,116 -30,26 -100,-116 -134,115 -29,-33 z m 438,73 -136,48 83,86 53,-134 z m 68,-65 -150,380 -34,-35 46,-111 -102,-106 -112,41 -34,-35 386,-134 z m -122,408 229,-293 40,394 168,-213 33,26 -229,292 -42,-391 -165,211 -34,-26 z m 377,285 170,-268 -89,-57 21,-34 217,138 -22,34 -89,-56 -170,267 -38,-24 z m 169,106 180,-309 171,99 -20,33 -132,-76 -52,88 133,77 -20,34 -132,-76 -69,118 133,77 -20,34 -172,-99 z m 241,130 148,-325 80,36 c 23,10 39,19 49,27 9,7 17,15 22,25 7,12 10,26 10,41 0,15 -4,31 -11,46 -12,27 -29,43 -51,50 -22,7 -48,3 -78,-10 l -7,-4 60,215 -52,-24 -54,-211 -6,-3 -70,155 -40,-18 z m 173,-275 -50,109 31,14 c 32,15 55,21 69,18 15,-3 26,-14 35,-34 9,-21 11,-38 3,-51 -7,-14 -26,-27 -57,-42 l -31,-14 z m 86,386 130,-333 41,16 -130,333 -41,-16 z m 125,51 97,-345 191,54 -11,38 -147,-42 -28,99 147,41 -10,38 -148,-41 -37,132 148,41 -11,38 -191,-53 z m 467,75 28,4 c 45,8 77,12 95,11 18,0 34,-4 47,-11 17,-10 32,-23 43,-41 11,-17 19,-38 23,-63 4,-25 4,-47 0,-67 -5,-20 -14,-37 -27,-52 -10,-12 -23,-21 -41,-28 -17,-7 -48,-14 -92,-22 l -28,-5 -48,274 z m -52,31 62,-352 71,13 c 52,9 89,18 110,27 20,8 38,20 52,35 18,19 31,42 37,68 7,26 8,55 2,87 -5,31 -16,58 -31,80 -15,22 -35,39 -59,51 -18,9 -38,14 -59,16 -22,1 -54,-2 -98,-10 l -16,-2 -71,-13 z m 377,53 27,-357 197,15 -2,39 -153,-12 -8,103 153,11 -3,40 -153,-12 -10,137 152,11 -3,40 -197,-15 z m 603,11 -135,-248 -29,246 -43,3 47,-376 154,285 108,-305 104,365 -43,3 -66,-238 -97,265 z m 435,-117 c 19,-4 38,-12 54,-24 16,-11 30,-26 42,-43 11,-17 18,-35 22,-54 3,-19 3,-38 -2,-57 -4,-20 -12,-37 -24,-53 -12,-16 -26,-29 -43,-39 -18,-11 -36,-17 -56,-20 -20,-3 -40,-2 -60,2 -20,5 -39,13 -55,24 -17,12 -30,26 -41,43 -11,17 -19,35 -22,54 -4,19 -3,39 1,58 5,19 13,37 24,52 12,16 26,29 44,39 18,11 36,18 56,21 19,3 39,2 60,-3 z m 162,-189 c 6,25 6,50 2,74 -5,24 -15,47 -29,69 -15,21 -33,39 -55,54 -22,15 -46,25 -71,31 -26,6 -52,7 -78,3 -26,-3 -51,-12 -73,-24 -23,-13 -41,-30 -56,-50 -15,-19 -25,-42 -31,-66 -6,-25 -6,-50 -2,-74 5,-25 15,-48 29,-69 15,-22 33,-39 55,-54 22,-15 45,-25 71,-31 26,-6 52,-7 78,-4 27,4 51,12 73,25 23,13 41,29 56,49 15,20 25,42 31,67 z m 110,153 -136,-346 360,165 -100,-253 40,-15 136,345 -359,-162 99,250 -40,16 z m 436,-183 -146,-281 -94,49 -19,-36 228,-118 19,36 -94,48 146,282 -40,20 z m 109,-375 13,144 104,-59 -117,-85 z m -47,-81 333,238 -42,24 -97,-71 -127,72 12,120 -42,24 -37,-407 z m 407,-52 122,-96 7,10 c 35,44 49,89 43,136 -7,46 -33,87 -79,122 -14,11 -28,20 -43,27 -14,7 -29,12 -44,15 -34,6 -67,3 -97,-9 -31,-12 -58,-32 -80,-60 -18,-24 -31,-48 -38,-73 -6,-25 -8,-51 -3,-78 4,-23 12,-44 25,-64 13,-20 30,-38 52,-55 28,-22 57,-36 85,-43 29,-6 58,-5 87,4 l -12,46 c -24,-9 -47,-12 -70,-8 -23,4 -44,14 -65,31 -35,26 -54,59 -58,98 -4,39 7,76 35,112 27,33 59,53 98,57 38,5 74,-6 108,-32 30,-23 48,-51 54,-84 6,-32 0,-63 -19,-92 l -85,65 -23,-29 z m 285,6 -257,-268 396,16 -188,-196 31,-29 257,268 -394,-14 186,194 -31,29 z m 286,-289 -271,-234 130,-150 29,26 -100,116 78,67 100,-116 30,26 -100,116 103,89 100,-116 30,26 -129,150 z m 264,-337 -301,-192 24,-38 267,170 76,-119 34,22 -100,157 z m 126,-204 -310,-178 98,-171 34,19 -76,133 89,51 76,-133 34,20 -76,133 119,68 76,-133 35,20 -99,171 z m 4,-448 c 19,-18 39,-29 59,-34 20,-4 41,-2 61,8 30,13 49,34 59,63 9,28 6,58 -9,92 -12,26 -29,46 -50,58 -22,12 -46,16 -73,12 l -1,-45 c 22,4 41,3 56,-4 16,-7 27,-19 35,-36 9,-21 11,-40 6,-58 -6,-17 -17,-30 -35,-38 -15,-7 -29,-8 -44,-4 -15,4 -30,13 -45,27 l -36,34 c -20,19 -39,30 -58,35 -19,5 -39,2 -59,-7 -23,-10 -38,-28 -45,-53 -7,-25 -4,-51 9,-79 9,-21 21,-37 36,-48 16,-11 33,-17 53,-18 l 5,43 c -16,1 -29,6 -39,13 -11,6 -19,16 -24,27 -7,16 -8,30 -4,44 4,14 14,24 27,30 12,5 24,6 35,2 12,-3 25,-11 39,-24 l 42,-40 z m 284,-187 -344,-98 22,-75 c 7,-27 14,-46 20,-58 7,-11 14,-21 23,-28 11,-9 24,-15 39,-18 14,-3 29,-2 44,2 19,6 32,15 42,27 10,13 14,28 14,47 10,-20 23,-34 42,-42 19,-8 40,-9 63,-3 13,4 26,11 37,20 11,8 19,19 26,31 6,12 9,27 9,43 0,16 -5,42 -16,77 l -21,75 z m -149,-88 125,36 10,-33 c 6,-23 10,-40 11,-50 2,-11 1,-20 -2,-27 -2,-9 -8,-17 -16,-23 -7,-7 -16,-12 -27,-15 -13,-4 -24,-4 -35,-2 -11,2 -20,8 -28,16 -5,5 -9,11 -13,18 -3,7 -7,19 -12,35 l -4,12 -9,33 z m -147,-42 115,33 9,-33 c 9,-31 11,-53 6,-68 -5,-15 -17,-26 -37,-31 -22,-7 -39,-5 -52,4 -12,9 -22,30 -32,62 l -9,33 z m 377,-154 -352,-61 15,-87 c 5,-25 9,-43 14,-54 5,-11 11,-20 19,-28 10,-10 22,-16 37,-20 15,-3 31,-4 47,-1 29,5 50,18 62,37 12,20 15,46 9,78 l -1,8 192,-111 -9,55 -192,106 -1,6 168,30 -8,42 z m -309,-98 118,21 6,-34 c 6,-34 6,-58 -1,-71 -6,-13 -20,-22 -41,-25 -22,-4 -39,-1 -50,9 -12,11 -20,33 -26,66 l -6,34 z m 357,-179 -355,-46 6,-44 354,46 -5,44 z m -170,-286 c 12,-23 26,-41 43,-52 18,-11 38,-15 60,-14 33,3 58,16 77,39 18,24 26,53 23,90 -2,29 -11,53 -27,72 -16,19 -37,31 -64,36 l -16,-42 c 22,-4 39,-12 51,-23 12,-12 19,-27 20,-46 2,-23 -3,-41 -14,-56 -11,-15 -27,-23 -46,-24 -16,-1 -30,2 -43,11 -12,9 -23,23 -33,41 l -22,45 c -12,24 -26,41 -42,52 -17,11 -36,16 -58,14 -25,-2 -45,-13 -60,-34 -15,-21 -22,-47 -20,-78 2,-22 8,-41 19,-57 10,-16 24,-28 43,-36 l 19,39 c -14,7 -25,16 -33,26 -7,10 -11,21 -12,34 -2,17 2,31 11,42 9,12 21,18 36,19 13,1 24,-2 34,-10 10,-7 19,-19 27,-36 l 27,-52 z m -73,-416 c -18,18 -31,38 -39,58 -9,21 -13,43 -12,68 0,20 4,39 13,58 8,19 19,35 33,48 14,14 30,25 48,31 17,7 37,10 58,10 17,0 32,-3 46,-7 14,-5 26,-12 38,-21 20,-15 35,-34 46,-56 10,-22 15,-46 15,-72 -1,-24 -6,-46 -16,-66 -10,-20 -24,-39 -43,-55 l 56,-1 c 13,18 23,38 30,59 7,21 11,44 12,66 0,20 -2,40 -7,59 -6,18 -13,36 -24,53 -17,28 -39,49 -65,64 -26,15 -55,23 -86,24 -28,0 -53,-4 -76,-13 -23,-9 -43,-24 -62,-43 -18,-19 -32,-40 -41,-63 -9,-23 -14,-48 -15,-76 0,-21 2,-42 8,-63 6,-20 15,-41 28,-61 l 55,-1 z m -25,-164 139,42 -16,-118 -123,76 z m -93,12 347,-217 6,48 -102,62 18,146 115,34 7,48 -391,-121 z m 339,-255 -348,80 -20,-86 c -6,-24 -9,-43 -9,-54 0,-12 2,-24 7,-34 5,-12 14,-23 26,-32 13,-10 27,-16 43,-20 29,-6 53,-3 71,10 19,14 32,36 39,69 l 2,7 134,-178 13,56 -135,172 1,6 166,-39 10,43 z m -323,30 116,-27 -7,-33 c -8,-34 -18,-56 -29,-66 -11,-9 -26,-12 -47,-7 -23,5 -37,15 -43,29 -6,14 -6,37 2,70 l 8,34 z m 208,-335 -9,-26 c -14,-44 -26,-74 -36,-90 -9,-15 -20,-27 -32,-35 -17,-11 -35,-17 -56,-19 -21,-1 -43,2 -67,10 -24,8 -43,18 -59,32 -15,13 -26,30 -33,48 -5,14 -7,31 -5,49 2,19 10,50 24,93 l 9,26 264,-88 z m 52,31 -339,113 -23,-69 c -16,-50 -26,-87 -28,-109 -2,-22 0,-43 6,-62 9,-26 23,-48 42,-66 20,-18 45,-33 76,-43 30,-10 58,-13 85,-11 27,3 51,12 73,28 17,11 31,26 42,45 12,18 24,48 38,90 l 6,15 22,69 z m -361,-403 c -1,-26 3,-48 13,-66 10,-19 25,-32 45,-42 30,-13 59,-14 86,-2 28,12 49,34 64,67 12,27 16,52 11,77 -5,24 -18,44 -40,62 l -34,-29 c 18,-14 29,-29 34,-45 5,-16 4,-33 -4,-50 -9,-21 -22,-35 -39,-42 -17,-8 -35,-7 -53,1 -14,6 -25,16 -32,30 -6,14 -9,31 -9,52 l 2,49 c 1,27 -3,50 -12,67 -9,18 -24,31 -44,40 -23,10 -46,10 -69,-1 -23,-12 -41,-31 -54,-59 -9,-21 -13,-40 -12,-59 2,-19 9,-36 21,-52 l 36,24 c -9,14 -15,27 -17,39 -2,12 0,24 6,36 6,16 17,26 30,32 13,5 27,5 40,-1 12,-5 20,-14 25,-25 6,-11 8,-26 7,-45 l -1,-58 z"
       id="path3473"
       inkscape:connector-curvature="0"
       style="fill:#ffffff;fill-rule:nonzero" /></g></svg>