<?xml version="1.0" encoding="UTF-8" standalone="no"?>
<!-- Creator: CorelDRAW X7 -->

<svg
   xmlns:dc="http://purl.org/dc/elements/1.1/"
   xmlns:cc="http://creativecommons.org/ns#"
   xmlns:rdf="http://www.w3.org/1999/02/22-rdf-syntax-ns#"
   xmlns:svg="http://www.w3.org/2000/svg"
   xmlns="http://www.w3.org/2000/svg"
   xmlns:sodipodi="http://sodipodi.sourceforge.net/DTD/sodipodi-0.dtd"
   xmlns:inkscape="http://www.inkscape.org/namespaces/inkscape"
   xml:space="preserve"
   width="7.8740005in"
   height="7.8740005in"
   version="1.1"
   style="clip-rule:evenodd;fill-rule:evenodd;image-rendering:optimizeQuality;shape-rendering:geometricPrecision;text-rendering:geometricPrecision"
   viewBox="0 0 7874.0005 7874.0005"
   id="svg2"
   inkscape:version="0.91 r13725"
   sodipodi:docname="combined_army_malignos.svg"><metadata
     id="metadata20"><rdf:RDF><cc:Work
         rdf:about=""><dc:format>image/svg+xml</dc:format><dc:type
           rdf:resource="http://purl.org/dc/dcmitype/StillImage" /></cc:Work></rdf:RDF></metadata><sodipodi:namedview
     pagecolor="#ffffff"
     bordercolor="#666666"
     borderopacity="1"
     objecttolerance="10"
     gridtolerance="10"
     guidetolerance="10"
     inkscape:pageopacity="0"
     inkscape:pageshadow="2"
     inkscape:window-width="640"
     inkscape:window-height="480"
     id="namedview18"
     showgrid="false"
     inkscape:zoom="0.23838384"
     inkscape:cx="736.83001"
     inkscape:cy="849.33005"
     inkscape:window-x="0"
     inkscape:window-y="0"
     inkscape:window-maximized="0"
     inkscape:current-layer="svg2" /><defs
     id="defs4"><style
       type="text/css"
       id="style6"><![CDATA[
    .fil1 {fill:#403273}
    .fil0 {fill:#FFF700}
   ]]></style></defs><g
     id="Layer_x0020_1"
     transform="translate(3937,-7063)"><metadata
       id="CorelCorpID_0Corel-Layer" /><circle
       class="fil0"
       cy="11000"
       r="3937"
       id="circle10"
       cx="0"
       style="fill:#fff700" /><circle
       class="fil1"
       cy="11000"
       r="3780"
       id="circle12"
       cx="0"
       style="fill:#403273" /><path
       class="fil0"
       d="m 618,9518 110,281 c 23,58 165,119 335,40 283,-132 685,-456 925,-729 110,236 138,613 -59,807 -244,241 -544,400 -827,532 -132,61 -352,-104 -413,-236 l -98,-211 -17,304 95,418 c 19,80 154,182 414,119 432,-106 1108,-471 1515,-768 97,329 12,897 -315,1102 -404,254 -847,387 -1279,492 -169,42 -389,-160 -488,-335 l -24,414 c -7,118 138,295 492,295 591,0 1575,-256 2205,-531 0,492 -294,1183 -787,1358 -611,217 -1221,217 -1811,217 -276,0 -512,-473 -512,-748 l 0,-3977 c 197,20 472,158 590,256 l -51,900 z"
       id="path14"
       inkscape:connector-curvature="0"
       style="fill:#fff700" /><path
       class="fil0"
       d="m -618,9518 -110,281 c -23,58 -165,119 -335,40 -283,-132 -685,-456 -925,-729 -110,236 -138,613 59,807 244,241 544,400 827,532 132,61 352,-104 413,-236 l 98,-211 17,304 -95,418 c -19,80 -154,182 -414,119 -432,-106 -1108,-471 -1515,-768 -97,329 -12,897 315,1102 404,254 847,387 1279,492 169,42 389,-160 488,-335 l 24,414 c 7,118 -138,295 -492,295 -591,0 -1575,-256 -2205,-531 0,492 294,1183 787,1358 611,217 1221,217 1811,217 276,0 512,-473 512,-748 l 0,-3977 c -197,20 -472,158 -590,256 l 51,900 z"
       id="path16"
       inkscape:connector-curvature="0"
       style="fill:#fff700" /></g></svg>