<?xml version="1.0" encoding="UTF-8" standalone="no"?>
<!-- Creator: CorelDRAW X7 -->

<svg
   xmlns:dc="http://purl.org/dc/elements/1.1/"
   xmlns:cc="http://creativecommons.org/ns#"
   xmlns:rdf="http://www.w3.org/1999/02/22-rdf-syntax-ns#"
   xmlns:svg="http://www.w3.org/2000/svg"
   xmlns="http://www.w3.org/2000/svg"
   xmlns:sodipodi="http://sodipodi.sourceforge.net/DTD/sodipodi-0.dtd"
   xmlns:inkscape="http://www.inkscape.org/namespaces/inkscape"
   xml:space="preserve"
   width="7.8740005in"
   height="7.8740005in"
   version="1.1"
   style="clip-rule:evenodd;fill-rule:evenodd;image-rendering:optimizeQuality;shape-rendering:geometricPrecision;text-rendering:geometricPrecision"
   viewBox="0 0 7874.0005 7874.0005"
   id="svg2"
   inkscape:version="0.91 r13725"
   sodipodi:docname="combined_army_ko_dali.svg"><metadata
     id="metadata18"><rdf:RDF><cc:Work
         rdf:about=""><dc:format>image/svg+xml</dc:format><dc:type
           rdf:resource="http://purl.org/dc/dcmitype/StillImage" /></cc:Work></rdf:RDF></metadata><sodipodi:namedview
     pagecolor="#ffffff"
     bordercolor="#666666"
     borderopacity="1"
     objecttolerance="10"
     gridtolerance="10"
     guidetolerance="10"
     inkscape:pageopacity="0"
     inkscape:pageshadow="2"
     inkscape:window-width="640"
     inkscape:window-height="480"
     id="namedview16"
     showgrid="false"
     inkscape:zoom="0.23838384"
     inkscape:cx="736.83001"
     inkscape:cy="849.33005"
     inkscape:window-x="0"
     inkscape:window-y="0"
     inkscape:window-maximized="0"
     inkscape:current-layer="svg2" /><defs
     id="defs4"><style
       type="text/css"
       id="style6"><![CDATA[
    .fil0 {fill:black}
    .fil1 {fill:#FFF700}
   ]]></style></defs><g
     id="Layer_x0020_1"
     transform="translate(3937,-7063)"><metadata
       id="CorelCorpID_0Corel-Layer" /><circle
       class="fil0"
       cy="11000"
       r="3937"
       id="circle10"
       cx="0"
       style="fill:#000000" /><circle
       class="fil1"
       cy="11000"
       r="3701"
       id="circle12"
       cx="0"
       style="fill:#fff700" /><path
       class="fil0"
       d="m -2362,10705 c -142,0 -256,-115 -256,-256 0,-142 114,-256 256,-256 l 973,0 -59,-279 c -187,-880 199,-1670 652,-2320 -59,453 -149,1468 3,2181 l 491,2311 c 187,880 -41,1473 -474,2320 39,-650 -29,-1468 -181,-2181 l -5,-24 -1400,0 c -142,0 -256,-115 -256,-256 0,-141 114,-256 256,-256 l 1291,0 -50,-236 -1241,0 c -142,0 -256,-115 -256,-256 0,-141 114,-256 256,-256 l 1132,0 -50,-236 -1082,0 z m 3301,-930 89,418 1334,0 c 142,0 256,114 256,256 0,141 -114,256 -256,256 l -1225,0 50,236 1175,0 c 142,0 256,115 256,256 0,141 -114,256 -256,256 l -1066,0 50,236 1016,0 c 142,0 256,115 256,256 0,141 -114,256 -256,256 l -909,0 c 144,818 -83,1395 -497,2205 39,-650 -29,-1468 -180,-2181 L 284,9914 C 97,9034 483,8244 936,7594 c -59,453 -148,1468 3,2181 z"
       id="path14"
       inkscape:connector-curvature="0"
       style="fill:#000000" /></g></svg>