<?xml version="1.0" encoding="UTF-8" standalone="no"?>
<!-- Creator: CorelDRAW X7 -->

<svg
   xmlns:dc="http://purl.org/dc/elements/1.1/"
   xmlns:cc="http://creativecommons.org/ns#"
   xmlns:rdf="http://www.w3.org/1999/02/22-rdf-syntax-ns#"
   xmlns:svg="http://www.w3.org/2000/svg"
   xmlns="http://www.w3.org/2000/svg"
   xmlns:sodipodi="http://sodipodi.sourceforge.net/DTD/sodipodi-0.dtd"
   xmlns:inkscape="http://www.inkscape.org/namespaces/inkscape"
   xml:space="preserve"
   width="7.8740005in"
   height="7.8740005in"
   version="1.1"
   style="clip-rule:evenodd;fill-rule:evenodd;image-rendering:optimizeQuality;shape-rendering:geometricPrecision;text-rendering:geometricPrecision"
   viewBox="0 0 7874.0005 7874.0005"
   id="svg3344"
   inkscape:version="0.91 r13725"
   sodipodi:docname="Combined Army - Charontids - [N3] [Vyo].svg"><metadata
     id="metadata3358"><rdf:RDF><cc:Work
         rdf:about=""><dc:format>image/svg+xml</dc:format><dc:type
           rdf:resource="http://purl.org/dc/dcmitype/StillImage" /></cc:Work></rdf:RDF></metadata><sodipodi:namedview
     pagecolor="#ffffff"
     bordercolor="#666666"
     borderopacity="1"
     objecttolerance="10"
     gridtolerance="10"
     guidetolerance="10"
     inkscape:pageopacity="0"
     inkscape:pageshadow="2"
     inkscape:window-width="640"
     inkscape:window-height="480"
     id="namedview3356"
     showgrid="false"
     inkscape:zoom="0.23838384"
     inkscape:cx="736.83001"
     inkscape:cy="849.33005"
     inkscape:window-x="0"
     inkscape:window-y="0"
     inkscape:window-maximized="0"
     inkscape:current-layer="svg3344" /><defs
     id="defs3346"><style
       type="text/css"
       id="style3348"><![CDATA[
    .fil0 {fill:black}
    .fil1 {fill:#F6E50D}
   ]]></style></defs><g
     id="Layer_x0020_1"
     transform="translate(3937,-7063)"><metadata
       id="CorelCorpID_0Corel-Layer" /><circle
       class="fil0"
       cy="11000"
       r="3937"
       id="circle3352"
       cx="0"
       style="fill:#000000" /><path
       class="fil1"
       d="m 2100,7857 c 328,220 620,490 865,799 l -1922,1281 -886,2776 0,748 1339,-2461 -256,-886 2108,-868 c 189,360 322,754 387,1170 l -270,-66 -473,-315 -1575,138 1437,79 374,472 551,281 c 0,87 -3,174 -9,259 l -1821,484 -866,1614 -483,1370 c -195,31 -396,48 -600,48 -204,0 -405,-17 -600,-48 l -483,-1370 -866,-1614 -1821,-484 c -6,-85 -9,-172 -9,-259 l 551,-281 374,-472 1437,-79 -1575,-138 -473,315 -270,66 c 65,-416 198,-810 387,-1170 l 2108,868 -256,886 1339,2461 0,-748 -886,-2776 -1922,-1281 c 245,-309 537,-579 865,-799 l 1628,1627 0,788 472,472 472,-472 0,-788 1628,-1627 z"
       id="path3354"
       inkscape:connector-curvature="0"
       style="fill:#f6e50d" /></g></svg>