<?xml version="1.0" encoding="UTF-8" standalone="no"?>
<!-- Creator: CorelDRAW X7 -->

<svg
   xmlns:dc="http://purl.org/dc/elements/1.1/"
   xmlns:cc="http://creativecommons.org/ns#"
   xmlns:rdf="http://www.w3.org/1999/02/22-rdf-syntax-ns#"
   xmlns:svg="http://www.w3.org/2000/svg"
   xmlns="http://www.w3.org/2000/svg"
   xmlns:sodipodi="http://sodipodi.sourceforge.net/DTD/sodipodi-0.dtd"
   xmlns:inkscape="http://www.inkscape.org/namespaces/inkscape"
   xml:space="preserve"
   width="7.8740005in"
   height="7.8740005in"
   version="1.1"
   style="clip-rule:evenodd;fill-rule:evenodd;image-rendering:optimizeQuality;shape-rendering:geometricPrecision;text-rendering:geometricPrecision"
   viewBox="0 0 7874.0005 7874.0005"
   id="svg3564"
   inkscape:version="0.91 r13725"
   sodipodi:docname="Combined Army - Med-Tech Obsidon Mechanoids - [N3] [Vyo].svg"><metadata
     id="metadata3578"><rdf:RDF><cc:Work
         rdf:about=""><dc:format>image/svg+xml</dc:format><dc:type
           rdf:resource="http://purl.org/dc/dcmitype/StillImage" /></cc:Work></rdf:RDF></metadata><sodipodi:namedview
     pagecolor="#ffffff"
     bordercolor="#666666"
     borderopacity="1"
     objecttolerance="10"
     gridtolerance="10"
     guidetolerance="10"
     inkscape:pageopacity="0"
     inkscape:pageshadow="2"
     inkscape:window-width="640"
     inkscape:window-height="480"
     id="namedview3576"
     showgrid="false"
     inkscape:zoom="0.23838384"
     inkscape:cx="736.83001"
     inkscape:cy="849.33005"
     inkscape:window-x="0"
     inkscape:window-y="0"
     inkscape:window-maximized="0"
     inkscape:current-layer="svg3564" /><defs
     id="defs3566"><style
       type="text/css"
       id="style3568"><![CDATA[
    .fil0 {fill:black}
    .fil1 {fill:#F6E50D}
   ]]></style></defs><g
     id="Layer_x0020_1"
     transform="translate(3937,-7063)"><metadata
       id="CorelCorpID_0Corel-Layer" /><circle
       class="fil0"
       cy="11000"
       r="3937"
       id="circle3572"
       cx="0"
       style="fill:#000000" /><path
       class="fil1"
       d="m 0,7220 c 1447,0 2703,813 3338,2007 L 1339,10882 433,11236 0,14701 -433,11236 -1339,10882 -3338,9227 C -2703,8033 -1447,7220 0,7220 Z m 3464,2266 c 203,464 316,976 316,1514 0,122 -6,242 -18,360 l -219,270 -1771,512 -1434,2622 c -66,6 -132,10 -199,13 l 609,-2399 787,-472 1929,-2420 z m 96,2786 c -152,424 -377,813 -660,1152 l -1050,56 -1173,1239 c -61,11 -122,21 -184,29 l 924,-1307 2143,-1169 z m -1364,1804 c -380,272 -813,475 -1280,592 l 462,-440 818,-152 z m -2335,701 c -67,-3 -133,-7 -199,-13 l -1434,-2622 -1771,-512 -219,-270 c -12,-118 -18,-238 -18,-360 0,-538 113,-1050 316,-1514 l 1929,2420 787,472 609,2399 z m -354,-29 c -62,-8 -123,-18 -184,-29 l -1173,-1239 -1050,-56 c -283,-339 -508,-728 -660,-1152 l 2143,1169 924,1307 z m -423,-80 c -467,-117 -900,-320 -1280,-592 l 818,152 462,440 z m 680,-5007 236,-433 236,433 0,985 -236,433 -236,-433 0,-985 z"
       id="path3574"
       inkscape:connector-curvature="0"
       style="fill:#f6e50d" /></g></svg>