<?xml version="1.0" encoding="UTF-8" standalone="no"?>
<!-- Creator: CorelDRAW X7 -->

<svg
   xmlns:dc="http://purl.org/dc/elements/1.1/"
   xmlns:cc="http://creativecommons.org/ns#"
   xmlns:rdf="http://www.w3.org/1999/02/22-rdf-syntax-ns#"
   xmlns:svg="http://www.w3.org/2000/svg"
   xmlns="http://www.w3.org/2000/svg"
   xmlns:sodipodi="http://sodipodi.sourceforge.net/DTD/sodipodi-0.dtd"
   xmlns:inkscape="http://www.inkscape.org/namespaces/inkscape"
   xml:space="preserve"
   width="7.8740005in"
   height="7.8740005in"
   version="1.1"
   style="clip-rule:evenodd;fill-rule:evenodd;image-rendering:optimizeQuality;shape-rendering:geometricPrecision;text-rendering:geometricPrecision"
   viewBox="0 0 7874.0005 7874.0005"
   id="svg3704"
   inkscape:version="0.91 r13725"
   sodipodi:docname="Combined Army - Raktorak, Morat Sergeant Major - [N3] [Vyo].svg"><metadata
     id="metadata3722"><rdf:RDF><cc:Work
         rdf:about=""><dc:format>image/svg+xml</dc:format><dc:type
           rdf:resource="http://purl.org/dc/dcmitype/StillImage" /></cc:Work></rdf:RDF></metadata><sodipodi:namedview
     pagecolor="#ffffff"
     bordercolor="#666666"
     borderopacity="1"
     objecttolerance="10"
     gridtolerance="10"
     guidetolerance="10"
     inkscape:pageopacity="0"
     inkscape:pageshadow="2"
     inkscape:window-width="640"
     inkscape:window-height="480"
     id="namedview3720"
     showgrid="false"
     inkscape:zoom="0.23838384"
     inkscape:cx="736.83001"
     inkscape:cy="849.33005"
     inkscape:window-x="0"
     inkscape:window-y="0"
     inkscape:window-maximized="0"
     inkscape:current-layer="svg3704" /><defs
     id="defs3706"><style
       type="text/css"
       id="style3708"><![CDATA[
    .fil0 {fill:black}
    .fil1 {fill:#E32527}
    .fil3 {fill:white}
    .fil2 {fill:#FFCC00;fill-rule:nonzero}
   ]]></style></defs><g
     id="Layer_x0020_1"
     transform="translate(3937,-7063)"><metadata
       id="CorelCorpID_0Corel-Layer" /><circle
       class="fil0"
       cy="11000"
       r="3937"
       id="circle3712"
       cx="0"
       style="fill:#000000" /><path
       class="fil1"
       d="m -472,9524 2500,19 157,729 -433,-20 c 394,531 197,1693 -276,2106 224,-1007 130,-1635 -236,-2047 l -925,0 -787,-787 z"
       id="path3714"
       inkscape:connector-curvature="0"
       style="fill:#e32527" /><path
       class="fil2"
       d="m -2235,10223 c 411,411 803,823 1148,1328 160,235 308,488 442,769 -35,-259 -104,-508 -201,-750 -235,-582 -640,-1122 -1150,-1623 l 815,-325 c 836,339 1189,661 1614,1339 412,656 346,1590 294,2531 l -470,-24 c 46,-841 -127,-1553 -487,-2126 -147,-235 -326,-447 -535,-637 140,223 260,452 356,690 266,658 345,1370 166,2139 l -457,6 c -189,-709 -458,-1256 -777,-1723 -320,-469 -696,-864 -1092,-1260 l 334,-334 z"
       id="path3716"
       inkscape:connector-curvature="0"
       style="fill:#ffcc00;fill-rule:nonzero" /><path
       class="fil3"
       d="m 197,8133 c 1495,101 2677,1346 2677,2867 0,1521 -1182,2766 -2677,2867 l 0,-553 c 46,-3 93,-9 138,-16 30,-60 58,-124 86,-190 272,-655 280,-1281 59,-1823 -84,-206 -201,-401 -349,-582 -87,37 -172,75 -256,116 -680,332 -1284,811 -1854,1398 377,611 1028,1034 1782,1097 l 0,553 c -1495,-101 -2677,-1346 -2677,-2867 0,-1521 1182,-2766 2677,-2867 l 0,553 c -600,50 -1136,329 -1519,749 424,-144 867,-234 1314,-282 612,-66 1231,-53 1820,7 C 1074,8895 654,8724 197,8686 l 0,-553 z m -2391,2102 c -83,240 -129,497 -129,765 0,237 36,465 102,681 568,-562 1174,-1025 1854,-1357 25,-12 49,-23 73,-35 -166,-131 -353,-250 -560,-356 -71,-36 -147,-72 -229,-108 -387,92 -762,225 -1111,410 z m 2002,-549 c 172,114 330,239 471,372 475,-161 985,-262 1540,-292 -641,-96 -1331,-138 -2011,-80 z m 1208,3403 c 774,-377 1307,-1170 1307,-2089 0,-242 -37,-475 -106,-695 -560,-2 -1069,69 -1541,205 128,180 234,370 314,568 249,610 268,1298 26,2011 z"
       id="path3718"
       inkscape:connector-curvature="0"
       style="fill:#ffffff" /></g></svg>