<?xml version="1.0" encoding="UTF-8" standalone="no"?>
<!-- Creator: CorelDRAW X7 -->

<svg
   xmlns:dc="http://purl.org/dc/elements/1.1/"
   xmlns:cc="http://creativecommons.org/ns#"
   xmlns:rdf="http://www.w3.org/1999/02/22-rdf-syntax-ns#"
   xmlns:svg="http://www.w3.org/2000/svg"
   xmlns="http://www.w3.org/2000/svg"
   xmlns:sodipodi="http://sodipodi.sourceforge.net/DTD/sodipodi-0.dtd"
   xmlns:inkscape="http://www.inkscape.org/namespaces/inkscape"
   xml:space="preserve"
   width="7.8740005in"
   height="7.8740005in"
   version="1.1"
   style="clip-rule:evenodd;fill-rule:evenodd;image-rendering:optimizeQuality;shape-rendering:geometricPrecision;text-rendering:geometricPrecision"
   viewBox="0 0 7874.0005 7874.0005"
   id="svg3459"
   inkscape:version="0.91 r13725"
   sodipodi:docname="Combined Army - Kurgat Regiment of Assault Engineers - [N3] [Vyo].svg"><metadata
     id="metadata3483"><rdf:RDF><cc:Work
         rdf:about=""><dc:format>image/svg+xml</dc:format><dc:type
           rdf:resource="http://purl.org/dc/dcmitype/StillImage" /></cc:Work></rdf:RDF></metadata><sodipodi:namedview
     pagecolor="#ffffff"
     bordercolor="#666666"
     borderopacity="1"
     objecttolerance="10"
     gridtolerance="10"
     guidetolerance="10"
     inkscape:pageopacity="0"
     inkscape:pageshadow="2"
     inkscape:window-width="640"
     inkscape:window-height="480"
     id="namedview3481"
     showgrid="false"
     inkscape:zoom="0.23838384"
     inkscape:cx="736.83001"
     inkscape:cy="849.33005"
     inkscape:window-x="0"
     inkscape:window-y="0"
     inkscape:window-maximized="0"
     inkscape:current-layer="svg3459" /><defs
     id="defs3461"><style
       type="text/css"
       id="style3463"><![CDATA[
    .fil0 {fill:black}
    .fil2 {fill:#E32527}
    .fil1 {fill:#FFD600}
    .fil3 {fill:#A6CC39;fill-rule:nonzero}
    .fil4 {fill:white;fill-rule:nonzero}
   ]]></style></defs><g
     id="Layer_x0020_1"
     transform="translate(3937,-7063)"><metadata
       id="CorelCorpID_0Corel-Layer" /><circle
       class="fil0"
       cy="11000"
       r="3937"
       id="circle3467"
       cx="0"
       style="fill:#000000" /><polygon
       class="fil1"
       points="-413,10370 433,9346 1634,9957 512,10469 -413,11571 -748,13008 -1417,12024 -1555,10862 -2480,11059 -2382,9740 -1043,8539 -807,8717 -1535,10685 "
       id="polygon3469"
       style="fill:#ffd600" /><polygon
       class="fil2"
       points="1850,12319 1339,12594 1555,11315 1476,10213 1969,10134 2087,11059 "
       id="polygon3471"
       style="fill:#e32527" /><path
       class="fil3"
       d="m 1550,10129 c 159,678 175,1370 34,1984 -26,115 -58,227 -95,336 125,-165 218,-337 285,-518 188,-509 173,-1107 41,-1841 l 386,-69 c 299,684 219,1479 4,2062 -218,590 -724,1069 -1495,1527 l -227,-318 c 366,-314 602,-758 718,-1267 127,-555 112,-1185 -34,-1807 l 383,-89 z"
       id="path3473"
       inkscape:connector-curvature="0"
       style="fill:#a6cc39;fill-rule:nonzero" /><polygon
       class="fil2"
       points="-807,13402 -2362,12476 -2539,11059 -1575,10862 -1398,12063 "
       id="polygon3475"
       style="fill:#e32527" /><polygon
       class="fil2"
       points="433,9327 689,8539 2205,9484 1988,9996 "
       id="polygon3477"
       style="fill:#e32527" /><path
       class="fil4"
       d="m 268,9884 c 51,51 110,101 174,145 78,53 163,97 251,120 160,-78 331,-141 512,-187 C 903,9850 651,9704 467,9576 408,9684 341,9787 268,9884 Z M 197,8133 c 1495,101 2677,1346 2677,2867 0,1521 -1182,2766 -2677,2867 l 0,-553 c 1191,-99 2126,-1097 2126,-2314 0,-254 -41,-498 -116,-727 -166,-12 -326,-12 -478,0 -627,51 -1137,306 -1508,712 -377,411 -616,980 -699,1652 -24,202 -35,412 -31,630 102,22 206,39 312,47 l 0,553 c -1495,-101 -2677,-1346 -2677,-2867 0,-1521 1182,-2766 2677,-2867 l 0,553 c -51,4 -102,10 -153,18 -442,519 -780,1152 -918,1813 300,-115 565,-260 790,-435 434,-338 726,-793 851,-1375 -58,-9 -117,-16 -176,-21 l 0,-553 z m 1757,1611 c -280,-435 -702,-771 -1200,-941 -31,143 -72,280 -120,411 168,123 421,277 734,390 178,65 375,116 586,140 z M -990,8898 c -725,342 -1244,1048 -1323,1882 219,-32 426,-74 622,-127 92,-621 346,-1226 701,-1755 z m -1326,2279 c 62,820 549,1521 1242,1883 -481,-619 -672,-1308 -653,-1993 -188,45 -384,82 -589,110 z m 987,-222 c 0,9 -1,19 -2,28 -33,573 98,1152 454,1681 3,-25 6,-50 9,-74 26,-215 67,-420 122,-616 -142,-185 -234,-396 -287,-624 -36,-155 -54,-316 -58,-481 -77,31 -156,59 -238,86 z m 633,-267 c -8,200 4,394 46,573 19,82 45,161 77,236 91,-202 200,-389 326,-559 -99,-99 -166,-203 -208,-307 -10,-23 -18,-46 -25,-68 -69,44 -141,85 -216,125 z m 574,-390 c -2,61 6,123 31,185 21,52 53,104 101,156 87,-87 180,-168 278,-242 -23,-14 -45,-28 -67,-43 -79,-54 -150,-114 -213,-175 -42,41 -85,81 -130,119 z"
       id="path3479"
       inkscape:connector-curvature="0"
       style="fill:#ffffff;fill-rule:nonzero" /></g></svg>