<?xml version="1.0" encoding="UTF-8" standalone="no"?>
<!-- Creator: CorelDRAW X7 -->

<svg
   xmlns:dc="http://purl.org/dc/elements/1.1/"
   xmlns:cc="http://creativecommons.org/ns#"
   xmlns:rdf="http://www.w3.org/1999/02/22-rdf-syntax-ns#"
   xmlns:svg="http://www.w3.org/2000/svg"
   xmlns="http://www.w3.org/2000/svg"
   xmlns:sodipodi="http://sodipodi.sourceforge.net/DTD/sodipodi-0.dtd"
   xmlns:inkscape="http://www.inkscape.org/namespaces/inkscape"
   xml:space="preserve"
   width="7.8740005in"
   height="7.8740005in"
   version="1.1"
   style="clip-rule:evenodd;fill-rule:evenodd;image-rendering:optimizeQuality;shape-rendering:geometricPrecision;text-rendering:geometricPrecision"
   viewBox="0 0 7874.0005 7874.0005"
   id="svg3879"
   inkscape:version="0.91 r13725"
   sodipodi:docname="Combined Army - Yaogat Strike Infantry - [N3] [Vyo].svg"><metadata
     id="metadata3897"><rdf:RDF><cc:Work
         rdf:about=""><dc:format>image/svg+xml</dc:format><dc:type
           rdf:resource="http://purl.org/dc/dcmitype/StillImage" /></cc:Work></rdf:RDF></metadata><sodipodi:namedview
     pagecolor="#ffffff"
     bordercolor="#666666"
     borderopacity="1"
     objecttolerance="10"
     gridtolerance="10"
     guidetolerance="10"
     inkscape:pageopacity="0"
     inkscape:pageshadow="2"
     inkscape:window-width="640"
     inkscape:window-height="480"
     id="namedview3895"
     showgrid="false"
     inkscape:zoom="0.23838384"
     inkscape:cx="736.83001"
     inkscape:cy="849.33005"
     inkscape:window-x="0"
     inkscape:window-y="0"
     inkscape:window-maximized="0"
     inkscape:current-layer="svg3879" /><defs
     id="defs3881"><style
       type="text/css"
       id="style3883"><![CDATA[
    .fil0 {fill:black}
    .fil1 {fill:#FFCC00}
    .fil2 {fill:#E32527;fill-rule:nonzero}
    .fil3 {fill:white;fill-rule:nonzero}
   ]]></style></defs><g
     id="Layer_x0020_1"
     transform="translate(3937,-7063)"><metadata
       id="CorelCorpID_0Corel-Layer" /><circle
       class="fil0"
       cy="11000"
       r="3937"
       id="circle3887"
       cx="0"
       style="fill:#000000" /><path
       class="fil1"
       d="m -1012,8601 1476,1752 -492,138 c -566,-257 -1417,-389 -2303,-276 l 354,-925 965,-689 z"
       id="path3889"
       inkscape:connector-curvature="0"
       style="fill:#ffcc00" /><path
       class="fil2"
       d="m 580,8376 c 817,1057 1166,2262 1086,3561 381,-1075 -150,-2650 -406,-3004 l 709,374 649,1693 -610,1634 -630,453 -190,-1937 C 1112,10262 797,9426 207,8664 l 373,-288 z m -1551,4984 c 231,-387 515,-775 838,-1134 138,-153 284,-301 436,-443 -186,75 -381,167 -577,270 -451,239 -902,543 -1259,872 l -632,-567 1181,-1240 1476,-590 158,275 c -276,59 -768,453 -1059,789 490,-251 977,-428 1356,-490 l 215,580 c -338,247 -657,541 -944,860 -303,336 -568,697 -783,1058 l -406,-240 z"
       id="path3891"
       inkscape:connector-curvature="0"
       style="fill:#e32527;fill-rule:nonzero" /><path
       class="fil3"
       d="m 197,8133 c 1495,101 2677,1346 2677,2867 0,1521 -1182,2766 -2677,2867 l 0,-553 c 264,-22 515,-88 746,-191 135,-829 -4,-1571 -340,-2258 -23,-47 -46,-93 -71,-139 -579,150 -1112,382 -1545,709 -348,263 -633,589 -826,985 388,500 975,838 1642,894 l 0,553 c -1495,-101 -2677,-1346 -2677,-2867 0,-1521 1182,-2766 2677,-2867 l 0,553 c -86,7 -170,19 -253,35 625,610 1138,1246 1476,1937 325,665 486,1375 428,2153 530,-425 869,-1079 869,-1811 0,-1217 -935,-2215 -2126,-2314 l 0,-553 z m 84,2172 C -46,9813 -470,9344 -961,8885 c -803,365 -1362,1175 -1362,2115 0,339 73,662 204,952 215,-350 495,-646 822,-894 451,-340 993,-587 1578,-753 z"
       id="path3893"
       inkscape:connector-curvature="0"
       style="fill:#ffffff;fill-rule:nonzero" /></g></svg>