<?xml version="1.0" encoding="UTF-8" standalone="no"?>
<!-- Creator: CorelDRAW X7 -->

<svg
   xmlns:dc="http://purl.org/dc/elements/1.1/"
   xmlns:cc="http://creativecommons.org/ns#"
   xmlns:rdf="http://www.w3.org/1999/02/22-rdf-syntax-ns#"
   xmlns:svg="http://www.w3.org/2000/svg"
   xmlns="http://www.w3.org/2000/svg"
   xmlns:sodipodi="http://sodipodi.sourceforge.net/DTD/sodipodi-0.dtd"
   xmlns:inkscape="http://www.inkscape.org/namespaces/inkscape"
   xml:space="preserve"
   width="7.8740005in"
   height="7.8740005in"
   version="1.1"
   style="clip-rule:evenodd;fill-rule:evenodd;image-rendering:optimizeQuality;shape-rendering:geometricPrecision;text-rendering:geometricPrecision"
   viewBox="0 0 7874.0005 7874.0005"
   id="svg3863"
   inkscape:version="0.91 r13725"
   sodipodi:docname="Combined Army - Unidron Batroides - [N3] [Vyo].svg"><metadata
     id="metadata3877"><rdf:RDF><cc:Work
         rdf:about=""><dc:format>image/svg+xml</dc:format><dc:type
           rdf:resource="http://purl.org/dc/dcmitype/StillImage" /></cc:Work></rdf:RDF></metadata><sodipodi:namedview
     pagecolor="#ffffff"
     bordercolor="#666666"
     borderopacity="1"
     objecttolerance="10"
     gridtolerance="10"
     guidetolerance="10"
     inkscape:pageopacity="0"
     inkscape:pageshadow="2"
     inkscape:window-width="640"
     inkscape:window-height="480"
     id="namedview3875"
     showgrid="false"
     inkscape:zoom="0.23838384"
     inkscape:cx="736.83001"
     inkscape:cy="849.33005"
     inkscape:window-x="0"
     inkscape:window-y="0"
     inkscape:window-maximized="0"
     inkscape:current-layer="svg3863" /><defs
     id="defs3865"><style
       type="text/css"
       id="style3867"><![CDATA[
    .fil0 {fill:black}
    .fil1 {fill:#F6E50D}
   ]]></style></defs><g
     id="Layer_x0020_1"
     transform="translate(3937,-7063)"><metadata
       id="CorelCorpID_0Corel-Layer" /><circle
       class="fil0"
       cy="11000"
       r="3937"
       id="circle3871"
       cx="0"
       style="fill:#000000" /><path
       class="fil1"
       d="m 197,7226 c 1404,72 2605,910 3194,2104 l -2328,2024 -433,1418 -433,-1103 0,827 560,2208 c -244,49 -498,76 -757,76 -259,0 -513,-27 -757,-76 l 560,-2208 0,-827 -433,1103 -433,-1418 -2328,-2024 c 589,-1194 1790,-2032 3194,-2104 l 0,546 197,511 197,-511 0,-546 z m 3488,2932 c 62,271 95,553 95,842 0,24 -1,48 -1,73 l -236,-152 0,-157 -2086,866 1811,-433 354,709 48,0 c -294,1197 -1160,2170 -2291,2614 l -434,-961 512,-827 -118,-1260 2346,-1314 z m -5064,4362 c -1131,-444 -1997,-1417 -2291,-2614 l 48,0 354,-709 1811,433 -2086,-866 0,157 -236,152 c 0,-25 -1,-49 -1,-73 0,-289 33,-571 95,-842 l 2346,1314 -118,1260 512,827 -434,961 z"
       id="path3873"
       inkscape:connector-curvature="0"
       style="fill:#f6e50d" /></g></svg>