<?xml version="1.0" encoding="UTF-8" standalone="no"?>
<!-- Creator: CorelDRAW X7 -->

<svg
   xmlns:dc="http://purl.org/dc/elements/1.1/"
   xmlns:cc="http://creativecommons.org/ns#"
   xmlns:rdf="http://www.w3.org/1999/02/22-rdf-syntax-ns#"
   xmlns:svg="http://www.w3.org/2000/svg"
   xmlns="http://www.w3.org/2000/svg"
   xmlns:sodipodi="http://sodipodi.sourceforge.net/DTD/sodipodi-0.dtd"
   xmlns:inkscape="http://www.inkscape.org/namespaces/inkscape"
   xml:space="preserve"
   width="7.8740005in"
   height="7.8740005in"
   version="1.1"
   style="clip-rule:evenodd;fill-rule:evenodd;image-rendering:optimizeQuality;shape-rendering:geometricPrecision;text-rendering:geometricPrecision"
   viewBox="0 0 7874.0005 7874.0005"
   id="svg3768"
   inkscape:version="0.91 r13725"
   sodipodi:docname="Combined Army - Sogarat Tempest Regiment - [N3] [Vyo].svg"><metadata
     id="metadata3786"><rdf:RDF><cc:Work
         rdf:about=""><dc:format>image/svg+xml</dc:format><dc:type
           rdf:resource="http://purl.org/dc/dcmitype/StillImage" /></cc:Work></rdf:RDF></metadata><sodipodi:namedview
     pagecolor="#ffffff"
     bordercolor="#666666"
     borderopacity="1"
     objecttolerance="10"
     gridtolerance="10"
     guidetolerance="10"
     inkscape:pageopacity="0"
     inkscape:pageshadow="2"
     inkscape:window-width="640"
     inkscape:window-height="480"
     id="namedview3784"
     showgrid="false"
     inkscape:zoom="0.23838384"
     inkscape:cx="736.83001"
     inkscape:cy="849.33005"
     inkscape:window-x="0"
     inkscape:window-y="0"
     inkscape:window-maximized="0"
     inkscape:current-layer="svg3768" /><defs
     id="defs3770"><style
       type="text/css"
       id="style3772"><![CDATA[
    .fil0 {fill:black}
    .fil1 {fill:#0080B1}
    .fil2 {fill:#E32527}
    .fil3 {fill:white;fill-rule:nonzero}
   ]]></style></defs><g
     id="Layer_x0020_1"
     transform="translate(3937,-7063)"><metadata
       id="CorelCorpID_0Corel-Layer" /><circle
       class="fil0"
       cy="11000"
       r="3937"
       id="circle3776"
       cx="0"
       style="fill:#000000" /><polygon
       class="fil1"
       points="1988,12634 623,12617 1052,11619 1101,10731 2441,10409 2441,11551 "
       id="polygon3778"
       style="fill:#0080b1" /><path
       class="fil2"
       d="m -748,8598 363,273 -1450,1154 -389,-147 590,-748 886,-532 z m -1621,2304 473,374 c -40,263 -38,671 131,1112 64,168 153,341 273,512 l -258,-179 -707,-993 88,-826 z m 654,517 514,408 c 99,630 551,1260 945,1516 l -661,-102 c -343,-296 -548,-619 -665,-923 -133,-345 -153,-666 -133,-899 z M 5,9163 l 271,203 88,139 -1206,896 -480,-181 L 5,9163 Z m 614,739 464,724 -1270,24 -132,-50 938,-698 z"
       id="path3780"
       inkscape:connector-curvature="0"
       style="fill:#e32527" /><path
       class="fil3"
       d="m 197,8133 c 1495,101 2677,1346 2677,2867 0,1521 -1182,2766 -2677,2867 l 0,-553 c 395,-33 762,-165 1076,-371 -574,-61 -1124,-244 -1638,-501 -747,-375 -1414,-909 -1958,-1455 0,4 0,9 0,13 0,1217 935,2215 2126,2314 l 0,553 c -1495,-101 -2677,-1346 -2677,-2867 0,-1521 1182,-2766 2677,-2867 l 0,553 c -19,1 -37,3 -56,5 143,94 278,192 405,293 544,436 922,933 1085,1473 6,19 12,38 17,58 310,-43 628,-119 956,-231 C 1928,9411 1143,8765 197,8686 l 0,-553 z m 1125,2769 c 34,418 -59,854 -298,1298 -49,91 -105,183 -167,275 278,65 564,99 853,97 380,-414 613,-966 613,-1572 0,-113 -8,-224 -24,-332 -334,111 -659,188 -977,234 z M -1974,9776 c 631,371 1269,626 1935,730 292,46 589,62 894,47 -143,-456 -472,-883 -947,-1263 -208,-166 -444,-323 -707,-472 -490,180 -903,520 -1175,958 z m 2904,1166 c -351,21 -693,4 -1029,-48 -711,-112 -1388,-380 -2053,-768 -47,114 -85,233 -113,356 554,596 1268,1203 2075,1609 210,105 426,197 648,271 84,-116 157,-232 220,-348 198,-370 277,-729 252,-1072 z"
       id="path3782"
       inkscape:connector-curvature="0"
       style="fill:#ffffff;fill-rule:nonzero" /></g></svg>