<?xml version="1.0" encoding="UTF-8" standalone="no"?>
<!-- Creator: CorelDRAW X7 -->

<svg
   xmlns:dc="http://purl.org/dc/elements/1.1/"
   xmlns:cc="http://creativecommons.org/ns#"
   xmlns:rdf="http://www.w3.org/1999/02/22-rdf-syntax-ns#"
   xmlns:svg="http://www.w3.org/2000/svg"
   xmlns="http://www.w3.org/2000/svg"
   xmlns:sodipodi="http://sodipodi.sourceforge.net/DTD/sodipodi-0.dtd"
   xmlns:inkscape="http://www.inkscape.org/namespaces/inkscape"
   xml:space="preserve"
   width="7.8740005in"
   height="7.8740005in"
   version="1.1"
   style="clip-rule:evenodd;fill-rule:evenodd;image-rendering:optimizeQuality;shape-rendering:geometricPrecision;text-rendering:geometricPrecision"
   viewBox="0 0 7874.0005 7874.0005"
   id="svg2"
   inkscape:version="0.91 r13725"
   sodipodi:docname="combined_army_umbra_legates.svg"><metadata
     id="metadata26"><rdf:RDF><cc:Work
         rdf:about=""><dc:format>image/svg+xml</dc:format><dc:type
           rdf:resource="http://purl.org/dc/dcmitype/StillImage" /></cc:Work></rdf:RDF></metadata><sodipodi:namedview
     pagecolor="#ffffff"
     bordercolor="#666666"
     borderopacity="1"
     objecttolerance="10"
     gridtolerance="10"
     guidetolerance="10"
     inkscape:pageopacity="0"
     inkscape:pageshadow="2"
     inkscape:window-width="640"
     inkscape:window-height="480"
     id="namedview24"
     showgrid="false"
     inkscape:zoom="0.23838384"
     inkscape:cx="736.83001"
     inkscape:cy="849.33005"
     inkscape:window-x="0"
     inkscape:window-y="0"
     inkscape:window-maximized="0"
     inkscape:current-layer="svg2" /><defs
     id="defs4"><style
       type="text/css"
       id="style6"><![CDATA[
    .fil1 {fill:black}
    .fil0 {fill:#E2001A}
   ]]></style></defs><g
     id="Layer_x0020_1"
     transform="translate(3937,-7063)"><metadata
       id="CorelCorpID_0Corel-Layer" /><circle
       class="fil0"
       cy="11000"
       r="3937"
       id="circle10"
       cx="0"
       style="fill:#e2001a" /><circle
       class="fil1"
       cy="11000"
       r="3819"
       id="circle12"
       cx="0"
       style="fill:#000000" /><path
       class="fil0"
       d="m -1673,10213 1338,0 0,236 c -177,111 -295,306 -295,531 0,348 282,630 630,630 348,0 630,-282 630,-630 0,-225 -118,-420 -295,-531 l 0,-236 1338,0 689,315 c -374,-59 -708,-79 -1181,-79 l -577,0 c 162,146 262,341 262,531 0,479 -388,866 -866,866 -478,0 -866,-387 -866,-866 0,-190 100,-385 262,-531 l -577,0 c -473,0 -807,20 -1181,79 l 689,-315 z"
       id="path14"
       inkscape:connector-curvature="0"
       style="fill:#e2001a" /><path
       class="fil0"
       d="m 232,11108 c 90,40 167,103 225,180 -99,147 -267,243 -457,243 -190,0 -358,-96 -457,-243 58,-77 135,-140 225,-180 41,87 129,148 232,148 103,0 191,-61 232,-148 z m 328,633 c -52,262 -283,460 -560,460 -277,0 -508,-198 -560,-460 157,116 350,184 560,184 210,0 403,-68 560,-184 z"
       id="path16"
       inkscape:connector-curvature="0"
       style="fill:#e2001a" /><path
       class="fil0"
       d="M 481,12067 0,13913 -481,12067 c 119,130 290,213 481,213 191,0 362,-83 481,-213 z"
       id="path18"
       inkscape:connector-curvature="0"
       style="fill:#e2001a" /><path
       class="fil0"
       d="m -3248,10114 c 472,315 1260,709 1831,709 256,0 492,-158 551,-276 118,118 -158,276 -158,512 0,150 79,295 178,413 -119,-39 -232,-121 -335,-236 -177,-197 -739,-236 -1102,-236 -276,0 -729,-571 -965,-886 z"
       id="path20"
       inkscape:connector-curvature="0"
       style="fill:#e2001a" /><path
       class="fil0"
       d="m 3248,10114 c -472,315 -1260,709 -1831,709 -256,0 -492,-158 -551,-276 -118,118 158,276 158,512 0,150 -79,295 -178,413 119,-39 232,-121 335,-236 177,-197 739,-236 1102,-236 276,0 729,-571 965,-886 z"
       id="path22"
       inkscape:connector-curvature="0"
       style="fill:#e2001a" /></g></svg>