<?xml version="1.0" encoding="UTF-8" standalone="no"?>
<!-- Creator: CorelDRAW X7 -->

<svg
   xmlns:dc="http://purl.org/dc/elements/1.1/"
   xmlns:cc="http://creativecommons.org/ns#"
   xmlns:rdf="http://www.w3.org/1999/02/22-rdf-syntax-ns#"
   xmlns:svg="http://www.w3.org/2000/svg"
   xmlns="http://www.w3.org/2000/svg"
   xmlns:sodipodi="http://sodipodi.sourceforge.net/DTD/sodipodi-0.dtd"
   xmlns:inkscape="http://www.inkscape.org/namespaces/inkscape"
   xml:space="preserve"
   width="7.8740005in"
   height="7.8740005in"
   version="1.1"
   style="clip-rule:evenodd;fill-rule:evenodd;image-rendering:optimizeQuality;shape-rendering:geometricPrecision;text-rendering:geometricPrecision"
   viewBox="0 0 7874.0005 7874.0005"
   id="svg3680"
   inkscape:version="0.91 r13725"
   sodipodi:docname="Combined Army - Raicho Armoured Brigade - [N3] [Vyo].svg"><metadata
     id="metadata3702"><rdf:RDF><cc:Work
         rdf:about=""><dc:format>image/svg+xml</dc:format><dc:type
           rdf:resource="http://purl.org/dc/dcmitype/StillImage" /></cc:Work></rdf:RDF></metadata><sodipodi:namedview
     pagecolor="#ffffff"
     bordercolor="#666666"
     borderopacity="1"
     objecttolerance="10"
     gridtolerance="10"
     guidetolerance="10"
     inkscape:pageopacity="0"
     inkscape:pageshadow="2"
     inkscape:window-width="640"
     inkscape:window-height="480"
     id="namedview3700"
     showgrid="false"
     inkscape:zoom="0.23838384"
     inkscape:cx="736.83001"
     inkscape:cy="849.33005"
     inkscape:window-x="0"
     inkscape:window-y="0"
     inkscape:window-maximized="0"
     inkscape:current-layer="svg3680" /><defs
     id="defs3682"><style
       type="text/css"
       id="style3684"><![CDATA[
    .fil0 {fill:black}
    .fil1 {fill:#E32527}
    .fil3 {fill:white}
    .fil2 {fill:#FFCC00;fill-rule:nonzero}
    .fil4 {fill:white;fill-rule:nonzero}
   ]]></style></defs><g
     id="Layer_x0020_1"
     transform="translate(3937,-7063)"><metadata
       id="CorelCorpID_0Corel-Layer" /><circle
       class="fil0"
       cy="11000"
       r="3937"
       id="circle3688"
       cx="0"
       style="fill:#000000" /><polygon
       class="fil1"
       points="-1334,12022 -212,12986 -1098,13380 -1807,12908 -2496,11805 -2614,10408 -1905,9285 -1669,9404 -1728,11077 "
       id="polygon3690"
       style="fill:#e32527" /><path
       class="fil2"
       d="m -1289,8990 c -320,1053 -332,1940 20,2638 351,695 1074,1217 2228,1545 l -107,378 c -1267,-360 -2070,-950 -2472,-1747 -400,-793 -394,-1776 -44,-2928 l 375,114 z"
       id="path3692"
       inkscape:connector-curvature="0"
       style="fill:#ffcc00;fill-rule:nonzero" /><path
       class="fil2"
       d="m -598,8689 c -300,1097 -234,1952 159,2609 394,660 1125,1134 2153,1464 l -120,374 C 475,12776 -329,12247 -776,11499 -1225,10749 -1307,9793 -977,8586 l 379,103 z"
       id="path3694"
       inkscape:connector-curvature="0"
       style="fill:#ffcc00;fill-rule:nonzero" /><path
       class="fil3"
       d="m 197,8133 c 1495,101 2677,1346 2677,2867 0,1521 -1182,2766 -2677,2867 l 0,-553 c 1191,-99 2126,-1097 2126,-2314 0,-1217 -935,-2215 -2126,-2314 l 0,-553 z m -394,5734 c -1495,-101 -2677,-1346 -2677,-2867 0,-1521 1182,-2766 2677,-2867 l 0,553 c -1191,99 -2126,1097 -2126,2314 0,1217 935,2215 2126,2314 l 0,553 z"
       id="path3696"
       inkscape:connector-curvature="0"
       style="fill:#ffffff" /><path
       class="fil4"
       d="m -1463,8580 c 792,52 1425,384 1947,951 277,300 520,666 739,1091 l -194,501 C 787,10589 513,10143 195,9797 -258,9305 -806,9017 -1489,8972 l 26,-392 z m 2492,2543 204,488 c -165,324 -360,637 -593,916 -432,519 -989,920 -1703,1067 l -79,-385 c 617,-126 1102,-477 1481,-933 285,-342 512,-743 690,-1153 z"
       id="path3698"
       inkscape:connector-curvature="0"
       style="fill:#ffffff;fill-rule:nonzero" /></g></svg>