<?xml version="1.0" encoding="UTF-8" standalone="no"?>
<!-- Creator: CorelDRAW X7 -->

<svg
   xmlns:dc="http://purl.org/dc/elements/1.1/"
   xmlns:cc="http://creativecommons.org/ns#"
   xmlns:rdf="http://www.w3.org/1999/02/22-rdf-syntax-ns#"
   xmlns:svg="http://www.w3.org/2000/svg"
   xmlns="http://www.w3.org/2000/svg"
   xmlns:sodipodi="http://sodipodi.sourceforge.net/DTD/sodipodi-0.dtd"
   xmlns:inkscape="http://www.inkscape.org/namespaces/inkscape"
   xml:space="preserve"
   width="7.8740005in"
   height="7.8740005in"
   version="1.1"
   style="clip-rule:evenodd;fill-rule:evenodd;image-rendering:optimizeQuality;shape-rendering:geometricPrecision;text-rendering:geometricPrecision"
   viewBox="0 0 7874.0005 7874.0005"
   id="svg2"
   inkscape:version="0.91 r13725"
   sodipodi:docname="combined_army_speculo_killers.svg"><metadata
     id="metadata20"><rdf:RDF><cc:Work
         rdf:about=""><dc:format>image/svg+xml</dc:format><dc:type
           rdf:resource="http://purl.org/dc/dcmitype/StillImage" /></cc:Work></rdf:RDF></metadata><sodipodi:namedview
     pagecolor="#ffffff"
     bordercolor="#666666"
     borderopacity="1"
     objecttolerance="10"
     gridtolerance="10"
     guidetolerance="10"
     inkscape:pageopacity="0"
     inkscape:pageshadow="2"
     inkscape:window-width="640"
     inkscape:window-height="480"
     id="namedview18"
     showgrid="false"
     inkscape:zoom="0.23838384"
     inkscape:cx="736.83001"
     inkscape:cy="849.33005"
     inkscape:window-x="0"
     inkscape:window-y="0"
     inkscape:window-maximized="0"
     inkscape:current-layer="svg2" /><defs
     id="defs4"><style
       type="text/css"
       id="style6"><![CDATA[
    .fil1 {fill:#403273}
    .fil0 {fill:#FFF700}
   ]]></style></defs><g
     id="Layer_x0020_1"
     transform="translate(3937,-7063)"><metadata
       id="CorelCorpID_0Corel-Layer" /><circle
       class="fil0"
       cy="11000"
       r="3937"
       id="circle10"
       cx="0"
       style="fill:#fff700" /><circle
       class="fil1"
       cy="11000"
       r="3780"
       id="circle12"
       cx="0"
       style="fill:#403273" /><g
       id="g14"><path
         class="fil0"
         d="m 610,11315 64,0 -64,0 z M -507,9521 -738,9897 c -32,53 -167,106 -324,3 -262,-170 -647,-545 -847,-849 -142,219 -188,627 -20,847 208,272 472,433 748,590 126,73 353,-10 429,-135 l 365,-593 -120,-239 z m 837,354 422,854 c 34,69 188,115 393,13 433,-217 1042,-770 1358,-1162 179,293 204,918 -59,1201 -324,350 -686,580 -1102,787 -207,104 -576,-74 -668,-253 l -1,-2 0,-1 -531,-1061 188,-376 z m 177,-354 231,376 c 32,53 167,106 324,3 262,-170 647,-545 847,-849 142,219 189,627 20,847 -208,272 -472,433 -748,590 -126,73 -353,-10 -429,-135 L 387,9760 507,9521 Z M -433,9228 0,10094 433,9228 0,8362 -433,9228 Z m -79,2953 512,1772 512,-1772 -512,-866 -512,866 z m 182,-2306 -422,854 c -34,69 -188,115 -393,13 -433,-217 -1042,-770 -1358,-1162 -179,293 -204,918 59,1201 324,350 686,580 1102,787 208,104 579,-76 669,-256 l 531,-1061 -188,-376 z"
         id="path16"
         inkscape:connector-curvature="0"
         style="fill:#fff700" /></g></g></svg>