<?xml version="1.0" encoding="UTF-8" standalone="no"?>
<!-- Creator: CorelDRAW X7 -->

<svg
   xmlns:dc="http://purl.org/dc/elements/1.1/"
   xmlns:cc="http://creativecommons.org/ns#"
   xmlns:rdf="http://www.w3.org/1999/02/22-rdf-syntax-ns#"
   xmlns:svg="http://www.w3.org/2000/svg"
   xmlns="http://www.w3.org/2000/svg"
   xmlns:sodipodi="http://sodipodi.sourceforge.net/DTD/sodipodi-0.dtd"
   xmlns:inkscape="http://www.inkscape.org/namespaces/inkscape"
   xml:space="preserve"
   width="7.8739996in"
   height="7.8739996in"
   version="1.1"
   style="clip-rule:evenodd;fill-rule:evenodd;image-rendering:optimizeQuality;shape-rendering:geometricPrecision;text-rendering:geometricPrecision"
   viewBox="0 0 7873.9995 7873.9995"
   id="svg2"
   inkscape:version="0.91 r13725"
   sodipodi:docname="combined_army_skiavoros.svg"><metadata
     id="metadata22"><rdf:RDF><cc:Work
         rdf:about=""><dc:format>image/svg+xml</dc:format><dc:type
           rdf:resource="http://purl.org/dc/dcmitype/StillImage" /></cc:Work></rdf:RDF></metadata><sodipodi:namedview
     pagecolor="#ffffff"
     bordercolor="#666666"
     borderopacity="1"
     objecttolerance="10"
     gridtolerance="10"
     guidetolerance="10"
     inkscape:pageopacity="0"
     inkscape:pageshadow="2"
     inkscape:window-width="640"
     inkscape:window-height="480"
     id="namedview20"
     showgrid="false"
     inkscape:zoom="0.23838384"
     inkscape:cx="736.83001"
     inkscape:cy="849.32997"
     inkscape:window-x="0"
     inkscape:window-y="0"
     inkscape:window-maximized="0"
     inkscape:current-layer="svg2" /><defs
     id="defs4"><style
       type="text/css"
       id="style6"><![CDATA[
    .fil1 {fill:black}
    .fil0 {fill:#FFF700}
   ]]></style></defs><g
     id="Layer_x0020_1"
     transform="translate(3937,-7063)"><metadata
       id="CorelCorpID_0Corel-Layer" /><circle
       class="fil0"
       cy="11000"
       r="3937"
       id="circle10"
       cx="0"
       style="fill:#fff700" /><path
       class="fil1"
       d="m -439,9775 491,2311 c 187,880 -41,1473 -474,2320 39,-650 -29,-1468 -180,-2181 l -491,-2311 c -188,-880 198,-1670 651,-2320 -59,453 -148,1468 3,2181 z"
       id="path12"
       inkscape:connector-curvature="0"
       style="fill:#000000" /><path
       class="fil1"
       d="m 664,9775 491,2311 c 187,880 -42,1473 -475,2320 40,-650 -28,-1468 -180,-2181 L 9,9914 c -187,-880 199,-1670 652,-2320 -60,453 -149,1468 3,2181 z"
       id="path14"
       inkscape:connector-curvature="0"
       style="fill:#000000" /><path
       class="fil1"
       d="m -1384,9775 491,2311 c 188,880 -41,1473 -474,2320 39,-650 -29,-1468 -180,-2181 l -491,-2311 c -187,-880 199,-1670 651,-2320 -59,453 -148,1468 3,2181 z"
       id="path16"
       inkscape:connector-curvature="0"
       style="fill:#000000" /><path
       class="fil1"
       d="m 1608,9775 492,2311 c 187,880 -42,1473 -475,2320 39,-650 -28,-1468 -180,-2181 L 954,9914 c -187,-880 199,-1670 651,-2320 -59,453 -148,1468 3,2181 z"
       id="path18"
       inkscape:connector-curvature="0"
       style="fill:#000000" /></g></svg>