<?xml version="1.0" encoding="UTF-8" standalone="no"?>
<!-- Creator: CorelDRAW X7 -->

<svg
   xmlns:dc="http://purl.org/dc/elements/1.1/"
   xmlns:cc="http://creativecommons.org/ns#"
   xmlns:rdf="http://www.w3.org/1999/02/22-rdf-syntax-ns#"
   xmlns:svg="http://www.w3.org/2000/svg"
   xmlns="http://www.w3.org/2000/svg"
   xmlns:sodipodi="http://sodipodi.sourceforge.net/DTD/sodipodi-0.dtd"
   xmlns:inkscape="http://www.inkscape.org/namespaces/inkscape"
   xml:space="preserve"
   width="7.8740005in"
   height="7.8740005in"
   version="1.1"
   style="clip-rule:evenodd;fill-rule:evenodd;image-rendering:optimizeQuality;shape-rendering:geometricPrecision;text-rendering:geometricPrecision"
   viewBox="0 0 7874.0005 7874.0005"
   id="svg3899"
   inkscape:version="0.91 r13725"
   sodipodi:docname="Combined Army - Zerat Special Missions Regiment - [N3] [Vyo].svg"><metadata
     id="metadata3917"><rdf:RDF><cc:Work
         rdf:about=""><dc:format>image/svg+xml</dc:format><dc:type
           rdf:resource="http://purl.org/dc/dcmitype/StillImage" /></cc:Work></rdf:RDF></metadata><sodipodi:namedview
     pagecolor="#ffffff"
     bordercolor="#666666"
     borderopacity="1"
     objecttolerance="10"
     gridtolerance="10"
     guidetolerance="10"
     inkscape:pageopacity="0"
     inkscape:pageshadow="2"
     inkscape:window-width="640"
     inkscape:window-height="480"
     id="namedview3915"
     showgrid="false"
     inkscape:zoom="0.23838384"
     inkscape:cx="736.83001"
     inkscape:cy="849.33005"
     inkscape:window-x="0"
     inkscape:window-y="0"
     inkscape:window-maximized="0"
     inkscape:current-layer="svg3899" /><defs
     id="defs3901"><style
       type="text/css"
       id="style3903"><![CDATA[
    .fil0 {fill:black}
    .fil1 {fill:#A6CC39}
    .fil2 {fill:#E32527}
    .fil3 {fill:white}
   ]]></style></defs><g
     id="Layer_x0020_1"
     transform="translate(3937,-7063)"><metadata
       id="CorelCorpID_0Corel-Layer" /><circle
       class="fil0"
       cy="11000"
       r="3937"
       id="circle3907"
       cx="0"
       style="fill:#000000" /><path
       class="fil1"
       d="m 335,9543 c 728,20 1196,-138 1456,-512 l 670,768 256,945 -1693,394 -1792,-453 -1260,-1102 256,-118 c 1851,1378 3170,1279 4075,807 l -39,-118 c -828,427 -2185,275 -2874,-414 1063,394 2047,394 2657,-39 l -118,-158 c -394,335 -1161,374 -1594,0 z m -2638,1280 1260,1496 1988,669 20,177 c -1516,296 -2594,-378 -3386,-1968 l 118,-374 z"
       id="path3909"
       inkscape:connector-curvature="0"
       style="fill:#a6cc39" /><polygon
       class="fil2"
       points="2323,12260 1516,13028 -1083,12319 -2461,10528 -2028,9602 118,11079 2461,10902 "
       id="polygon3911"
       style="fill:#e32527" /><path
       class="fil3"
       d="m 197,8133 c 1495,101 2677,1346 2677,2867 0,1521 -1182,2766 -2677,2867 l 0,-553 c 215,-18 421,-65 615,-137 -773,-84 -1433,-327 -1971,-691 -492,-334 -879,-768 -1154,-1274 101,1119 995,2008 2116,2102 l 0,553 c -1495,-101 -2677,-1346 -2677,-2867 0,-1521 1182,-2766 2677,-2867 l 0,553 c -602,50 -1139,330 -1523,753 520,693 1113,1121 1763,1316 684,205 1441,156 2253,-108 C 2135,9595 1270,8776 197,8686 l 0,-553 z m 41,4464 c 342,-169 654,-409 881,-690 147,-182 257,-380 315,-584 -231,27 -457,37 -679,26 -152,253 -407,479 -725,653 -196,108 -418,196 -655,259 260,142 548,255 863,336 z m 1696,-1362 c -51,349 -213,679 -448,969 -153,189 -337,362 -542,513 191,17 390,24 597,21 449,-398 742,-967 778,-1605 -130,39 -258,73 -385,102 z m -3110,647 c 361,-34 701,-141 979,-293 164,-90 304,-194 411,-306 -103,-20 -205,-46 -306,-76 -146,-44 -290,-98 -430,-162 -207,100 -458,163 -720,189 -165,16 -337,18 -505,5 159,239 350,454 571,643 z m -852,-1160 c 233,53 494,67 740,43 75,-7 147,-18 217,-32 -333,-231 -647,-529 -939,-898 -74,128 -137,264 -186,406 45,166 101,327 168,481 z"
       id="path3913"
       inkscape:connector-curvature="0"
       style="fill:#ffffff" /></g></svg>