<?xml version="1.0" encoding="UTF-8" standalone="no"?>
<!-- Creator: CorelDRAW X7 -->

<svg
   xmlns:dc="http://purl.org/dc/elements/1.1/"
   xmlns:cc="http://creativecommons.org/ns#"
   xmlns:rdf="http://www.w3.org/1999/02/22-rdf-syntax-ns#"
   xmlns:svg="http://www.w3.org/2000/svg"
   xmlns="http://www.w3.org/2000/svg"
   xmlns:sodipodi="http://sodipodi.sourceforge.net/DTD/sodipodi-0.dtd"
   xmlns:inkscape="http://www.inkscape.org/namespaces/inkscape"
   xml:space="preserve"
   width="7.8740005in"
   height="7.8740005in"
   version="1.1"
   style="clip-rule:evenodd;fill-rule:evenodd;image-rendering:optimizeQuality;shape-rendering:geometricPrecision;text-rendering:geometricPrecision"
   viewBox="0 0 7874.0005 7874.0005"
   id="svg3746"
   inkscape:version="0.91 r13725"
   sodipodi:docname="Combined Army - Rodok, Morat Armed Imposition Detachment - [N3] [Vyo].svg"><metadata
     id="metadata3766"><rdf:RDF><cc:Work
         rdf:about=""><dc:format>image/svg+xml</dc:format><dc:type
           rdf:resource="http://purl.org/dc/dcmitype/StillImage" /></cc:Work></rdf:RDF></metadata><sodipodi:namedview
     pagecolor="#ffffff"
     bordercolor="#666666"
     borderopacity="1"
     objecttolerance="10"
     gridtolerance="10"
     guidetolerance="10"
     inkscape:pageopacity="0"
     inkscape:pageshadow="2"
     inkscape:window-width="640"
     inkscape:window-height="480"
     id="namedview3764"
     showgrid="false"
     inkscape:zoom="0.23838384"
     inkscape:cx="736.83001"
     inkscape:cy="849.33005"
     inkscape:window-x="0"
     inkscape:window-y="0"
     inkscape:window-maximized="0"
     inkscape:current-layer="svg3746" /><defs
     id="defs3748"><style
       type="text/css"
       id="style3750"><![CDATA[
    .fil0 {fill:black}
    .fil1 {fill:#E2001A}
    .fil2 {fill:#FFD600}
    .fil4 {fill:white}
    .fil3 {fill:white;fill-rule:nonzero}
   ]]></style></defs><g
     id="Layer_x0020_1"
     transform="translate(3937,-7063)"><metadata
       id="CorelCorpID_0Corel-Layer" /><circle
       class="fil0"
       cy="11000"
       r="3937"
       id="circle3754"
       cx="0"
       style="fill:#000000" /><path
       class="fil1"
       d="m -2618,10626 827,-1634 1397,-374 c -492,374 -866,925 -1004,1437 l -1043,1457 -177,-886 z m 3622,2697 C 807,12614 256,12043 -295,11748 l 177,-295 c 748,354 1234,852 1594,1634 l -472,236 z M 2146,12181 C 1742,11600 1085,11224 418,11031 l 192,-248 c 532,60 1395,387 1851,1044 l -315,354 z"
       id="path3756"
       inkscape:connector-curvature="0"
       style="fill:#e2001a" /><path
       class="fil2"
       d="m -1969,10744 827,-650 c 301,516 433,1123 414,1890 l -355,1477 -945,-886 -413,-906 472,-925 z m 1378,-945 c 288,395 510,783 635,1271 l -339,304 c -59,-531 -256,-1043 -551,-1417 l 255,-158 z m 552,-197 c 306,336 454,597 669,985 l -197,157 C 224,10330 16,9974 -295,9661 l 256,-59 z m 374,-118 1752,-39 236,728 -1299,256 C 886,10094 630,9740 335,9484 Z"
       id="path3758"
       inkscape:connector-curvature="0"
       style="fill:#ffd600" /><path
       class="fil3"
       d="m 2547,10448 c -1871,79 -3057,1083 -3397,2930 l -386,-71 c 374,-2029 1711,-3165 3768,-3251 l 15,392 z m -5244,1253 C -1718,9699 74,8652 2284,9356 l -119,374 c -2022,-645 -3616,318 -4508,2144 l -354,-173 z"
       id="path3760"
       inkscape:connector-curvature="0"
       style="fill:#ffffff;fill-rule:nonzero" /><path
       class="fil4"
       d="m 197,8133 c 1495,101 2677,1346 2677,2867 0,1521 -1182,2766 -2677,2867 l 0,-553 c 1191,-99 2126,-1097 2126,-2314 0,-1217 -935,-2215 -2126,-2314 l 0,-553 z m -394,5734 c -1495,-101 -2677,-1346 -2677,-2867 0,-1521 1182,-2766 2677,-2867 l 0,553 c -1191,99 -2126,1097 -2126,2314 0,1217 935,2215 2126,2314 l 0,553 z"
       id="path3762"
       inkscape:connector-curvature="0"
       style="fill:#ffffff" /></g></svg>