<?xml version="1.0" encoding="UTF-8" standalone="no"?>
<!-- Creator: CorelDRAW X7 -->

<svg
   xmlns:dc="http://purl.org/dc/elements/1.1/"
   xmlns:cc="http://creativecommons.org/ns#"
   xmlns:rdf="http://www.w3.org/1999/02/22-rdf-syntax-ns#"
   xmlns:svg="http://www.w3.org/2000/svg"
   xmlns="http://www.w3.org/2000/svg"
   xmlns:sodipodi="http://sodipodi.sourceforge.net/DTD/sodipodi-0.dtd"
   xmlns:inkscape="http://www.inkscape.org/namespaces/inkscape"
   xml:space="preserve"
   width="7.8740005in"
   height="7.8740005in"
   version="1.1"
   style="clip-rule:evenodd;fill-rule:evenodd;image-rendering:optimizeQuality;shape-rendering:geometricPrecision;text-rendering:geometricPrecision"
   viewBox="0 0 7874.0005 7874.0005"
   id="svg3360"
   inkscape:version="0.91 r13725"
   sodipodi:docname="Combined Army - Daturazi Witch Soldiers - [N3] [Vyo].svg"><metadata
     id="metadata3384"><rdf:RDF><cc:Work
         rdf:about=""><dc:format>image/svg+xml</dc:format><dc:type
           rdf:resource="http://purl.org/dc/dcmitype/StillImage" /></cc:Work></rdf:RDF></metadata><sodipodi:namedview
     pagecolor="#ffffff"
     bordercolor="#666666"
     borderopacity="1"
     objecttolerance="10"
     gridtolerance="10"
     guidetolerance="10"
     inkscape:pageopacity="0"
     inkscape:pageshadow="2"
     inkscape:window-width="640"
     inkscape:window-height="480"
     id="namedview3382"
     showgrid="false"
     inkscape:zoom="0.23838384"
     inkscape:cx="736.83001"
     inkscape:cy="849.33005"
     inkscape:window-x="0"
     inkscape:window-y="0"
     inkscape:window-maximized="0"
     inkscape:current-layer="svg3360" /><defs
     id="defs3362"><style
       type="text/css"
       id="style3364"><![CDATA[
    .fil1 {fill:none}
    .fil0 {fill:black}
    .fil4 {fill:#A6CC39}
    .fil5 {fill:#E32527}
    .fil3 {fill:#FFCC00}
    .fil6 {fill:white}
    .fil2 {fill:#FFCC00;fill-rule:nonzero}
   ]]></style></defs><g
     id="Layer_x0020_1"
     transform="translate(3937,-7063)"><metadata
       id="CorelCorpID_0Corel-Layer" /><circle
       class="fil0"
       cy="11000"
       r="3937"
       id="circle3368"
       cx="0"
       style="fill:#000000" /><path
       class="fil1"
       d="m -787,8500 c -217,1043 -374,2362 433,3209"
       id="path3370"
       inkscape:connector-curvature="0"
       style="fill:none" /><path
       class="fil2"
       d="m -595,8540 c -106,508 -197,1082 -164,1627 32,523 180,1022 547,1406 l -285,271 c -440,-462 -617,-1046 -654,-1654 -36,-588 60,-1195 171,-1730 l 385,80 z"
       id="path3372"
       inkscape:connector-curvature="0"
       style="fill:#ffcc00;fill-rule:nonzero" /><path
       class="fil3"
       d="m -2067,9406 866,-591 c -571,1654 -334,2972 768,3720 l 138,453 -807,394 -1162,-1024 -354,-1555 551,-1397 z"
       id="path3374"
       inkscape:connector-curvature="0"
       style="fill:#ffcc00" /><polygon
       class="fil4"
       points="492,12378 -236,13028 -335,11965 -177,10783 472,9878 886,10488 1063,11492 "
       id="polygon3376"
       style="fill:#a6cc39" /><polygon
       class="fil5"
       points="2539,11433 1969,12713 965,13362 1181,11394 965,10390 551,9760 1673,9130 2421,10055 "
       id="polygon3378"
       style="fill:#e32527" /><path
       class="fil6"
       d="m 650,13230 c 97,-339 165,-666 201,-978 -178,256 -382,492 -605,690 -161,142 -331,266 -510,366 22,2 45,5 67,6 l 0,553 c -1495,-101 -2677,-1346 -2677,-2867 0,-1521 1182,-2766 2677,-2867 l 0,553 c -99,8 -196,23 -291,43 426,240 772,517 1044,825 231,-181 491,-334 769,-462 C 1000,8866 614,8721 197,8686 l 0,-553 c 1495,101 2677,1346 2677,2867 0,1521 -1182,2766 -2677,2867 l 0,-553 c 156,-13 307,-41 453,-84 z m 550,-241 c 361,-218 658,-533 856,-907 -64,32 -129,63 -194,91 -184,82 -372,146 -548,179 -26,208 -64,420 -114,637 z m 1067,-1481 c 37,-163 56,-333 56,-508 0,-67 -3,-134 -9,-200 -88,104 -186,206 -287,300 -220,203 -463,375 -681,469 6,122 6,247 1,373 114,-30 235,-75 357,-128 198,-88 394,-197 563,-306 z m -57,-1225 c -72,-221 -175,-426 -305,-612 -102,164 -226,334 -360,490 -126,146 -261,281 -396,390 70,194 121,395 154,603 146,-80 306,-201 458,-342 177,-164 338,-351 449,-529 z M -1091,8949 c -733,390 -1232,1162 -1232,2051 0,965 588,1792 1426,2143 152,-38 300,-99 443,-179 -222,-1123 -74,-1978 313,-2626 101,-169 218,-323 349,-464 -312,-357 -741,-668 -1299,-925 z m 1888,916 c 69,101 131,205 187,311 88,-79 177,-171 262,-270 141,-164 270,-344 366,-511 -299,126 -575,281 -815,470 z m -348,328 c -94,107 -179,222 -254,347 -319,535 -449,1245 -294,2180 29,-23 57,-47 85,-72 359,-318 662,-745 879,-1200 -24,-263 -78,-513 -164,-749 -65,-176 -149,-345 -252,-506 z"
       id="path3380"
       inkscape:connector-curvature="0"
       style="fill:#ffffff" /></g></svg>