<?xml version="1.0" encoding="UTF-8" standalone="no"?>
<!-- Creator: CorelDRAW X7 -->

<svg
   xmlns:dc="http://purl.org/dc/elements/1.1/"
   xmlns:cc="http://creativecommons.org/ns#"
   xmlns:rdf="http://www.w3.org/1999/02/22-rdf-syntax-ns#"
   xmlns:svg="http://www.w3.org/2000/svg"
   xmlns="http://www.w3.org/2000/svg"
   xmlns:sodipodi="http://sodipodi.sourceforge.net/DTD/sodipodi-0.dtd"
   xmlns:inkscape="http://www.inkscape.org/namespaces/inkscape"
   xml:space="preserve"
   width="7.8740005in"
   height="7.8740005in"
   version="1.1"
   style="clip-rule:evenodd;fill-rule:evenodd;image-rendering:optimizeQuality;shape-rendering:geometricPrecision;text-rendering:geometricPrecision"
   viewBox="0 0 7874.0005 7874.0005"
   id="svg3841"
   inkscape:version="0.91 r13725"
   sodipodi:docname="Combined Army - Treitak Spec-Ops - [N3] [Vyo].svg"><metadata
     id="metadata3861"><rdf:RDF><cc:Work
         rdf:about=""><dc:format>image/svg+xml</dc:format><dc:type
           rdf:resource="http://purl.org/dc/dcmitype/StillImage" /></cc:Work></rdf:RDF></metadata><sodipodi:namedview
     pagecolor="#ffffff"
     bordercolor="#666666"
     borderopacity="1"
     objecttolerance="10"
     gridtolerance="10"
     guidetolerance="10"
     inkscape:pageopacity="0"
     inkscape:pageshadow="2"
     inkscape:window-width="640"
     inkscape:window-height="480"
     id="namedview3859"
     showgrid="false"
     inkscape:zoom="0.23838384"
     inkscape:cx="736.83001"
     inkscape:cy="849.33005"
     inkscape:window-x="0"
     inkscape:window-y="0"
     inkscape:window-maximized="0"
     inkscape:current-layer="svg3841" /><defs
     id="defs3843"><style
       type="text/css"
       id="style3845"><![CDATA[
    .fil0 {fill:black}
    .fil1 {fill:#A6CC39}
    .fil3 {fill:#E32527}
    .fil2 {fill:#FFCC00}
    .fil4 {fill:white;fill-rule:nonzero}
   ]]></style></defs><g
     id="Layer_x0020_1"
     transform="translate(3937,-7063)"><metadata
       id="CorelCorpID_0Corel-Layer" /><circle
       class="fil0"
       cy="11000"
       r="3937"
       id="circle3849"
       cx="0"
       style="fill:#000000" /><polygon
       class="fil1"
       points="-1555,13067 -2362,12102 -2382,11571 -728,12024 -866,12614 "
       id="polygon3851"
       style="fill:#a6cc39" /><polygon
       class="fil2"
       points="1280,11453 2047,9819 2618,10075 2343,12161 "
       id="polygon3853"
       style="fill:#ffcc00" /><path
       class="fil3"
       d="m -1654,9720 c 922,-92 1542,-162 2067,-1082 l 453,-40 1240,847 -886,1811 -1456,709 -2166,-434 99,-354 1653,-492 1004,-1181 c -452,315 -1319,512 -2008,216 z"
       id="path3855"
       inkscape:connector-curvature="0"
       style="fill:#e32527" /><path
       class="fil4"
       d="m 1470,11278 c 166,52 307,134 427,239 107,93 195,202 269,325 101,-261 157,-545 157,-842 0,-324 -66,-632 -186,-912 -43,120 -89,235 -137,345 -149,332 -326,613 -530,845 z m -893,649 c 152,160 242,353 284,558 46,223 32,459 -21,681 423,-164 787,-449 1048,-813 -73,-197 -167,-366 -301,-482 -133,-116 -316,-186 -571,-185 -119,83 -245,154 -377,214 -21,9 -42,18 -62,27 z m -281,1377 c 7,-15 14,-32 21,-49 86,-214 127,-458 83,-676 -41,-198 -159,-377 -391,-489 l -4,-1 c -183,30 -374,43 -572,38 35,113 40,226 15,339 -26,115 -83,225 -169,327 -83,98 -194,192 -333,277 261,133 551,219 857,244 l 0,553 c -1495,-101 -2677,-1346 -2677,-2867 0,-1521 1182,-2766 2677,-2867 l 0,553 c -1144,96 -2052,1021 -2121,2173 29,-2 59,-3 89,-5 782,-46 1418,-267 1856,-641 424,-362 666,-875 674,-1516 -34,-5 -69,-9 -104,-11 l 0,-553 c 1495,101 2677,1346 2677,2867 0,1521 -1182,2766 -2677,2867 l 0,-553 c 33,-2 66,-6 99,-10 z m -1796,-530 c 193,-88 334,-184 417,-284 38,-45 62,-88 71,-127 7,-33 5,-67 -8,-103 -23,-60 -74,-125 -155,-193 l 1,-2 c -65,-11 -131,-24 -198,-38 -260,-57 -532,-138 -815,-242 140,388 379,728 687,989 z M 1811,9545 c -269,-334 -629,-592 -1042,-737 -35,737 -332,1333 -835,1763 -496,423 -1190,680 -2026,746 285,108 558,191 820,248 664,145 1242,119 1717,-95 470,-213 850,-616 1125,-1229 92,-207 173,-438 241,-696 z"
       id="path3857"
       inkscape:connector-curvature="0"
       style="fill:#ffffff;fill-rule:nonzero" /></g></svg>