<?xml version="1.0" encoding="UTF-8" standalone="no"?>
<!-- Creator: CorelDRAW X7 -->

<svg
   xmlns:dc="http://purl.org/dc/elements/1.1/"
   xmlns:cc="http://creativecommons.org/ns#"
   xmlns:rdf="http://www.w3.org/1999/02/22-rdf-syntax-ns#"
   xmlns:svg="http://www.w3.org/2000/svg"
   xmlns="http://www.w3.org/2000/svg"
   xmlns:sodipodi="http://sodipodi.sourceforge.net/DTD/sodipodi-0.dtd"
   xmlns:inkscape="http://www.inkscape.org/namespaces/inkscape"
   xml:space="preserve"
   width="7.8740005in"
   height="7.8740005in"
   version="1.1"
   style="clip-rule:evenodd;fill-rule:evenodd;image-rendering:optimizeQuality;shape-rendering:geometricPrecision;text-rendering:geometricPrecision"
   viewBox="0 0 7874.0005 7874.0005"
   id="svg3971"
   inkscape:version="0.91 r13725"
   sodipodi:docname="Haqqislam - Sekban - [N3] [Vyo].svg"><metadata
     id="metadata3993"><rdf:RDF><cc:Work
         rdf:about=""><dc:format>image/svg+xml</dc:format><dc:type
           rdf:resource="http://purl.org/dc/dcmitype/StillImage" /></cc:Work></rdf:RDF></metadata><sodipodi:namedview
     pagecolor="#ffffff"
     bordercolor="#666666"
     borderopacity="1"
     objecttolerance="10"
     gridtolerance="10"
     guidetolerance="10"
     inkscape:pageopacity="0"
     inkscape:pageshadow="2"
     inkscape:window-width="640"
     inkscape:window-height="480"
     id="namedview3991"
     showgrid="false"
     inkscape:zoom="0.23838384"
     inkscape:cx="736.83001"
     inkscape:cy="849.33005"
     inkscape:window-x="0"
     inkscape:window-y="0"
     inkscape:window-maximized="0"
     inkscape:current-layer="svg3971" /><defs
     id="defs3973"><style
       type="text/css"
       id="style3975"><![CDATA[
    .fil2 {fill:black}
    .fil1 {fill:#B2C801}
    .fil0 {fill:#EECE00}
   ]]></style></defs><g
     id="Layer_x0020_1"
     transform="translate(3937,-7063)"><metadata
       id="CorelCorpID_0Corel-Layer" /><circle
       class="fil0"
       cy="11000"
       r="3937"
       id="circle3979"
       cx="0"
       style="fill:#eece00" /><circle
       class="fil1"
       cy="11000"
       r="3819"
       id="circle3981"
       cx="0"
       style="fill:#b2c801" /><path
       class="fil2"
       d="m 0,8520 c 1652,0 3037,809 3407,1898 C 2739,9798 1199,9228 0,9228 c -1199,0 -2739,570 -3407,1190 C -3037,9329 -1652,8520 0,8520 Z m 3407,3062 c -370,1089 -1755,1898 -3407,1898 -1652,0 -3037,-809 -3407,-1898 668,620 2208,1190 3407,1190 1199,0 2739,-570 3407,-1190 z"
       id="path3983"
       inkscape:connector-curvature="0"
       style="fill:#000000" /><path
       class="fil2"
       d="m 0,9307 c 435,0 787,758 787,1693 0,935 -352,1693 -787,1693 -435,0 -787,-758 -787,-1693 0,-935 352,-1693 787,-1693 z"
       id="path3985"
       inkscape:connector-curvature="0"
       style="fill:#000000" /><path
       class="fil2"
       d="m 1742,9748 c 600,218 1014,605 1014,1252 0,647 -414,1034 -1014,1252 354,-262 581,-661 581,-1252 0,-591 -227,-990 -581,-1252 z m -3484,2504 c -600,-218 -1014,-605 -1014,-1252 0,-647 414,-1034 1014,-1252 -354,262 -581,661 -581,1252 0,591 227,990 581,1252 z"
       id="path3987"
       inkscape:connector-curvature="0"
       style="fill:#000000" /><path
       class="fil2"
       d="m 758,9491 c 690,201 1250,694 1250,1509 0,815 -560,1308 -1250,1509 415,-274 699,-791 699,-1509 0,-718 -284,-1235 -699,-1509 z m -1516,3018 c -690,-201 -1250,-694 -1250,-1509 0,-815 560,-1308 1250,-1509 -415,274 -699,791 -699,1509 0,718 284,1235 699,1509 z"
       id="path3989"
       inkscape:connector-curvature="0"
       style="fill:#000000" /></g></svg>