<?xml version="1.0" encoding="UTF-8" standalone="no"?>
<!-- Creator: CorelDRAW X7 -->

<svg
   xmlns:dc="http://purl.org/dc/elements/1.1/"
   xmlns:cc="http://creativecommons.org/ns#"
   xmlns:rdf="http://www.w3.org/1999/02/22-rdf-syntax-ns#"
   xmlns:svg="http://www.w3.org/2000/svg"
   xmlns="http://www.w3.org/2000/svg"
   xmlns:sodipodi="http://sodipodi.sourceforge.net/DTD/sodipodi-0.dtd"
   xmlns:inkscape="http://www.inkscape.org/namespaces/inkscape"
   xml:space="preserve"
   width="7.8740005in"
   height="7.8740005in"
   version="1.1"
   style="clip-rule:evenodd;fill-rule:evenodd;image-rendering:optimizeQuality;shape-rendering:geometricPrecision;text-rendering:geometricPrecision"
   viewBox="0 0 7874.0005 7874.0005"
   id="svg2"
   inkscape:version="0.91 r13725"
   sodipodi:docname="Haqqislam - Ahl Fassed Regiment - [N3] [Vyo].svg"><metadata
     id="metadata22"><rdf:RDF><cc:Work
         rdf:about=""><dc:format>image/svg+xml</dc:format><dc:type
           rdf:resource="http://purl.org/dc/dcmitype/StillImage" /></cc:Work></rdf:RDF></metadata><sodipodi:namedview
     pagecolor="#ffffff"
     bordercolor="#666666"
     borderopacity="1"
     objecttolerance="10"
     gridtolerance="10"
     guidetolerance="10"
     inkscape:pageopacity="0"
     inkscape:pageshadow="2"
     inkscape:window-width="640"
     inkscape:window-height="480"
     id="namedview20"
     showgrid="false"
     inkscape:zoom="0.23838384"
     inkscape:cx="736.83001"
     inkscape:cy="849.33005"
     inkscape:window-x="0"
     inkscape:window-y="0"
     inkscape:window-maximized="0"
     inkscape:current-layer="svg2" /><defs
     id="defs4"><style
       type="text/css"
       id="style6"><![CDATA[
    .fil0 {fill:#A6CC39}
    .fil1 {fill:#EECE00}
    .fil2 {fill:#F8DB46}
   ]]></style></defs><g
     id="Layer_x0020_1"
     transform="translate(3937,-7063)"><metadata
       id="CorelCorpID_0Corel-Layer" /><circle
       class="fil0"
       cy="11000"
       r="3937"
       id="circle10"
       cx="0"
       style="fill:#a6cc39" /><polygon
       class="fil1"
       points="-614,11354 -2318,9661 0,10291 2318,9661 614,11354 250,12732 512,13008 0,13677 -512,13008 -250,12732 "
       id="polygon12"
       style="fill:#eece00" /><polygon
       class="fil2"
       points="508,11293 1918,9893 0,10414 -1918,9893 -508,11293 -119,12766 -357,13016 0,13483 357,13016 119,12766 "
       id="polygon14"
       style="fill:#f8db46" /><polygon
       class="fil1"
       points="0,11709 -2318,12339 -614,10646 0,8323 614,10646 2318,12339 "
       id="polygon16"
       style="fill:#eece00" /><polygon
       class="fil2"
       points="0,11586 1918,12107 508,10707 0,8785 -508,10707 -1918,12107 "
       id="polygon18"
       style="fill:#f8db46" /></g></svg>