<?xml version="1.0" encoding="UTF-8" standalone="no"?>
<!-- Creator: CorelDRAW X7 -->

<svg
   xmlns:dc="http://purl.org/dc/elements/1.1/"
   xmlns:cc="http://creativecommons.org/ns#"
   xmlns:rdf="http://www.w3.org/1999/02/22-rdf-syntax-ns#"
   xmlns:svg="http://www.w3.org/2000/svg"
   xmlns="http://www.w3.org/2000/svg"
   xmlns:sodipodi="http://sodipodi.sourceforge.net/DTD/sodipodi-0.dtd"
   xmlns:inkscape="http://www.inkscape.org/namespaces/inkscape"
   xml:space="preserve"
   width="7.8740005in"
   height="7.8740005in"
   version="1.1"
   style="clip-rule:evenodd;fill-rule:evenodd;image-rendering:optimizeQuality;shape-rendering:geometricPrecision;text-rendering:geometricPrecision"
   viewBox="0 0 7874.0005 7874.0005"
   id="svg3576"
   inkscape:version="0.91 r13725"
   sodipodi:docname="Haqqislam - Hassassin Lasiqs - [N3] [Vyo].svg"><metadata
     id="metadata3598"><rdf:RDF><cc:Work
         rdf:about=""><dc:format>image/svg+xml</dc:format><dc:type
           rdf:resource="http://purl.org/dc/dcmitype/StillImage" /></cc:Work></rdf:RDF></metadata><sodipodi:namedview
     pagecolor="#ffffff"
     bordercolor="#666666"
     borderopacity="1"
     objecttolerance="10"
     gridtolerance="10"
     guidetolerance="10"
     inkscape:pageopacity="0"
     inkscape:pageshadow="2"
     inkscape:window-width="640"
     inkscape:window-height="480"
     id="namedview3596"
     showgrid="false"
     inkscape:zoom="0.23838384"
     inkscape:cx="736.83001"
     inkscape:cy="849.33005"
     inkscape:window-x="0"
     inkscape:window-y="0"
     inkscape:window-maximized="0"
     inkscape:current-layer="svg3576" /><defs
     id="defs3578"><style
       type="text/css"
       id="style3580"><![CDATA[
    .fil2 {fill:black}
    .fil1 {fill:#B2C801}
    .fil0 {fill:#EECE00}
   ]]></style></defs><g
     id="Layer_x0020_1"
     transform="translate(3937,-7063)"><metadata
       id="CorelCorpID_0Corel-Layer" /><circle
       class="fil0"
       cy="11000"
       r="3937"
       id="circle3584"
       cx="0"
       style="fill:#eece00" /><circle
       class="fil1"
       cy="11000"
       r="3819"
       id="circle3586"
       cx="0"
       style="fill:#b2c801" /><path
       class="fil2"
       d="m -827,10173 c 433,-433 650,-2126 670,-2716 l 0,2697 c 0,378 -311,689 -689,689 l -2697,0 c 590,-20 2283,-237 2716,-670 z"
       id="path3588"
       inkscape:connector-curvature="0"
       style="fill:#000000" /><path
       class="fil2"
       d="m -827,11827 c -433,-433 -2126,-650 -2716,-670 l 2697,0 c 378,0 689,311 689,689 l 0,2697 c -20,-590 -237,-2283 -670,-2716 z"
       id="path3590"
       inkscape:connector-curvature="0"
       style="fill:#000000" /><path
       class="fil2"
       d="m 827,11827 c -433,433 -650,2126 -670,2716 l 0,-2697 c 0,-378 311,-689 689,-689 l 2697,0 c -590,20 -2283,237 -2716,670 z"
       id="path3592"
       inkscape:connector-curvature="0"
       style="fill:#000000" /><path
       class="fil2"
       d="m 827,10173 c 433,433 2126,650 2716,670 l -2697,0 c -378,0 -689,-311 -689,-689 l 0,-2697 c 20,590 237,2283 670,2716 z"
       id="path3594"
       inkscape:connector-curvature="0"
       style="fill:#000000" /></g></svg>