<?xml version="1.0" encoding="UTF-8" standalone="no"?>
<!-- Creator: CorelDRAW X7 -->

<svg
   xmlns:dc="http://purl.org/dc/elements/1.1/"
   xmlns:cc="http://creativecommons.org/ns#"
   xmlns:rdf="http://www.w3.org/1999/02/22-rdf-syntax-ns#"
   xmlns:svg="http://www.w3.org/2000/svg"
   xmlns="http://www.w3.org/2000/svg"
   xmlns:sodipodi="http://sodipodi.sourceforge.net/DTD/sodipodi-0.dtd"
   xmlns:inkscape="http://www.inkscape.org/namespaces/inkscape"
   xml:space="preserve"
   width="7.8740005in"
   height="7.8740005in"
   version="1.1"
   style="clip-rule:evenodd;fill-rule:evenodd;image-rendering:optimizeQuality;shape-rendering:geometricPrecision;text-rendering:geometricPrecision"
   viewBox="0 0 7874.0005 7874.0005"
   id="svg3636"
   inkscape:version="0.91 r13725"
   sodipodi:docname="Haqqislam - Janissaries v2 - [N3] [Vyo].svg"><metadata
     id="metadata3654"><rdf:RDF><cc:Work
         rdf:about=""><dc:format>image/svg+xml</dc:format><dc:type
           rdf:resource="http://purl.org/dc/dcmitype/StillImage" /></cc:Work></rdf:RDF></metadata><sodipodi:namedview
     pagecolor="#ffffff"
     bordercolor="#666666"
     borderopacity="1"
     objecttolerance="10"
     gridtolerance="10"
     guidetolerance="10"
     inkscape:pageopacity="0"
     inkscape:pageshadow="2"
     inkscape:window-width="640"
     inkscape:window-height="480"
     id="namedview3652"
     showgrid="false"
     inkscape:zoom="0.23838384"
     inkscape:cx="736.83001"
     inkscape:cy="849.33005"
     inkscape:window-x="0"
     inkscape:window-y="0"
     inkscape:window-maximized="0"
     inkscape:current-layer="svg3636" /><defs
     id="defs3638"><style
       type="text/css"
       id="style3640"><![CDATA[
    .fil1 {fill:#B2C801}
    .fil0 {fill:#EECE00}
    .fil2 {fill:#F8DB46;fill-rule:nonzero}
   ]]></style></defs><g
     id="Layer_x0020_1"
     transform="translate(3937,-7063)"><metadata
       id="CorelCorpID_0Corel-Layer" /><circle
       class="fil0"
       cy="11000"
       r="3937"
       id="circle3644"
       cx="0"
       style="fill:#eece00" /><circle
       class="fil1"
       cy="11000"
       r="3819"
       id="circle3646"
       cx="0"
       style="fill:#b2c801" /><path
       class="fil2"
       d="m -1850,9622 350,827 3000,0 350,-827 512,0 -555,1299 -3614,0 -555,-1299 512,0 z m 0,2756 350,-827 3000,0 350,827 512,0 -555,-1299 -3614,0 -555,1299 512,0 z"
       id="path3648"
       inkscape:connector-curvature="0"
       style="fill:#f8db46;fill-rule:nonzero" /><path
       class="fil2"
       d="M 305,9926 0,9370 -305,9926 0,10411 305,9926 Z m -29,-1361 669,1221 89,162 -99,156 -514,817 -842,0 -514,-817 -99,-156 89,-162 669,-1221 276,-502 276,502 z m 145,2514 514,817 99,156 -89,162 -669,1221 -276,502 -276,-502 -669,-1221 -89,-162 99,-156 514,-817 842,0 z m -116,995 -305,-485 -305,485 305,556 305,-556 z"
       id="path3650"
       inkscape:connector-curvature="0"
       style="fill:#f8db46;fill-rule:nonzero" /></g></svg>