<?xml version="1.0" encoding="UTF-8" standalone="no"?>
<!-- Creator: CorelDRAW X7 -->

<svg
   xmlns:dc="http://purl.org/dc/elements/1.1/"
   xmlns:cc="http://creativecommons.org/ns#"
   xmlns:rdf="http://www.w3.org/1999/02/22-rdf-syntax-ns#"
   xmlns:svg="http://www.w3.org/2000/svg"
   xmlns="http://www.w3.org/2000/svg"
   xmlns:sodipodi="http://sodipodi.sourceforge.net/DTD/sodipodi-0.dtd"
   xmlns:inkscape="http://www.inkscape.org/namespaces/inkscape"
   xml:space="preserve"
   width="7.8740005in"
   height="7.8740005in"
   version="1.1"
   style="clip-rule:evenodd;fill-rule:evenodd;image-rendering:optimizeQuality;shape-rendering:geometricPrecision;text-rendering:geometricPrecision"
   viewBox="0 0 7874.0005 7874.0005"
   id="svg3558"
   inkscape:version="0.91 r13725"
   sodipodi:docname="Haqqislam - Hassassin Husam Yasbir - [N3] [Vyo].svg"><metadata
     id="metadata3574"><rdf:RDF><cc:Work
         rdf:about=""><dc:format>image/svg+xml</dc:format><dc:type
           rdf:resource="http://purl.org/dc/dcmitype/StillImage" /></cc:Work></rdf:RDF></metadata><sodipodi:namedview
     pagecolor="#ffffff"
     bordercolor="#666666"
     borderopacity="1"
     objecttolerance="10"
     gridtolerance="10"
     guidetolerance="10"
     inkscape:pageopacity="0"
     inkscape:pageshadow="2"
     inkscape:window-width="640"
     inkscape:window-height="480"
     id="namedview3572"
     showgrid="false"
     inkscape:zoom="0.23838384"
     inkscape:cx="736.83001"
     inkscape:cy="849.33005"
     inkscape:window-x="0"
     inkscape:window-y="0"
     inkscape:window-maximized="0"
     inkscape:current-layer="svg3558" /><defs
     id="defs3560"><style
       type="text/css"
       id="style3562"><![CDATA[
    .fil1 {fill:#B2C801}
    .fil0 {fill:#EECE00}
    .fil2 {fill:white;fill-rule:nonzero}
   ]]></style></defs><g
     id="Layer_x0020_1"
     transform="translate(3937,-7063)"><metadata
       id="CorelCorpID_0Corel-Layer" /><circle
       class="fil0"
       cy="11000"
       r="3937"
       id="circle3566"
       cx="0"
       style="fill:#eece00" /><circle
       class="fil1"
       cy="11000"
       r="3819"
       id="circle3568"
       cx="0"
       style="fill:#b2c801" /><path
       class="fil2"
       d="m 339,14092 -228,228 -111,111 -111,-111 -228,-228 c -724,-79 -1373,-405 -1860,-893 -488,-487 -814,-1136 -893,-1860 l -228,-228 -111,-111 111,-111 228,-228 c 79,-724 405,-1373 893,-1860 487,-488 1136,-814 1860,-893 l 228,-228 111,-111 111,111 228,228 c 724,79 1373,405 1860,893 488,487 814,1136 893,1860 l 228,228 111,111 -111,111 -228,228 c -79,724 -405,1373 -893,1860 -487,488 -1136,814 -1860,893 z M 837,9712 c 420,274 698,749 698,1288 0,848 -687,1535 -1535,1535 -848,0 -1535,-687 -1535,-1535 0,-539 278,-1014 698,-1288 -212,250 -344,593 -344,973 0,761 529,1378 1181,1378 652,0 1181,-617 1181,-1378 0,-380 -132,-723 -344,-973 z M 0,10606 c 217,0 394,177 394,394 0,217 -177,394 -394,394 -217,0 -394,-177 -394,-394 0,-217 177,-394 394,-394 z m -733,3092 -1784,-1783 c -68,-187 -115,-383 -140,-586 l 2459,2459 c 66,5 132,7 198,7 772,0 1471,-313 1977,-818 339,-340 592,-767 721,-1244 L 915,13517 c -187,67 -383,115 -586,140 l 2459,-2459 c 5,-66 7,-132 7,-198 0,-772 -313,-1471 -818,-1977 -340,-339 -767,-592 -1244,-721 l 1784,1783 c 68,187 115,383 140,586 L 198,8212 c -66,-5 -132,-7 -198,-7 -772,0 -1471,313 -1977,818 -339,340 -592,767 -721,1244 L -915,8483 c 187,-68 383,-115 586,-140 l -2459,2459 c -5,66 -7,132 -7,198 0,772 313,1471 818,1977 340,339 767,592 1244,721 z"
       id="path3570"
       inkscape:connector-curvature="0"
       style="fill:#ffffff;fill-rule:nonzero" /></g></svg>