<?xml version="1.0" encoding="UTF-8" standalone="no"?>
<!-- Creator: CorelDRAW X7 -->

<svg
   xmlns:dc="http://purl.org/dc/elements/1.1/"
   xmlns:cc="http://creativecommons.org/ns#"
   xmlns:rdf="http://www.w3.org/1999/02/22-rdf-syntax-ns#"
   xmlns:svg="http://www.w3.org/2000/svg"
   xmlns="http://www.w3.org/2000/svg"
   xmlns:sodipodi="http://sodipodi.sourceforge.net/DTD/sodipodi-0.dtd"
   xmlns:inkscape="http://www.inkscape.org/namespaces/inkscape"
   xml:space="preserve"
   width="7.8740005in"
   height="7.8740005in"
   version="1.1"
   style="clip-rule:evenodd;fill-rule:evenodd;image-rendering:optimizeQuality;shape-rendering:geometricPrecision;text-rendering:geometricPrecision"
   viewBox="0 0 7874.0005 7874.0005"
   id="svg3995"
   inkscape:version="0.91 r13725"
   sodipodi:docname="Haqqislam - Special Deterrance Group Azra'il v2 - [N3] [Vyo].svg"><metadata
     id="metadata4017"><rdf:RDF><cc:Work
         rdf:about=""><dc:format>image/svg+xml</dc:format><dc:type
           rdf:resource="http://purl.org/dc/dcmitype/StillImage" /></cc:Work></rdf:RDF></metadata><sodipodi:namedview
     pagecolor="#ffffff"
     bordercolor="#666666"
     borderopacity="1"
     objecttolerance="10"
     gridtolerance="10"
     guidetolerance="10"
     inkscape:pageopacity="0"
     inkscape:pageshadow="2"
     inkscape:window-width="640"
     inkscape:window-height="480"
     id="namedview4015"
     showgrid="false"
     inkscape:zoom="0.23838384"
     inkscape:cx="736.83001"
     inkscape:cy="849.33005"
     inkscape:window-x="0"
     inkscape:window-y="0"
     inkscape:window-maximized="0"
     inkscape:current-layer="svg3995" /><defs
     id="defs3997"><style
       type="text/css"
       id="style3999"><![CDATA[
    .str0 {stroke:#A7CD39;stroke-width:3}
    .fil1 {fill:none}
    .fil2 {fill:#B2C801}
    .fil0 {fill:#EECE00}
    .fil3 {fill:#F8DB46}
   ]]></style></defs><g
     id="Layer_x0020_1"
     transform="translate(3937,-7063)"><metadata
       id="CorelCorpID_0Corel-Layer" /><circle
       class="fil0"
       cy="11000"
       r="3937"
       id="circle4003"
       cx="0"
       style="fill:#eece00" /><path
       class="fil1"
       d="m 0,8520 c 1370,0 2480,1110 2480,2480 0,1370 -1110,2480 -2480,2480 -1370,0 -2480,-1110 -2480,-2480 0,-1370 1110,-2480 2480,-2480 z m -793,507 1808,2820 878,121 c 149,-290 233,-619 233,-968 0,-1174 -952,-2126 -2126,-2126 -280,0 -548,54 -793,153 z m 2230,3539 -2219,-598 -754,502 c 387,404 932,656 1536,656 554,0 1059,-212 1437,-560 z m -3308,-556 1076,-2444 -319,-377 c -607,375 -1012,1045 -1012,1811 0,366 92,710 255,1010 z"
       id="path4005"
       inkscape:connector-curvature="0"
       style="fill:none" /><circle
       class="fil2 str0"
       cy="11000"
       r="3819"
       id="circle4007"
       cx="0"
       style="fill:#b2c801;stroke:#a7cd39;stroke-width:3" /><circle
       class="fil1"
       cy="11000"
       r="2835"
       id="circle4009"
       cx="0"
       style="fill:none" /><path
       class="fil0"
       d="m 0,8165 c 1566,0 2835,1269 2835,2835 0,1566 -1269,2835 -2835,2835 -1566,0 -2835,-1269 -2835,-2835 0,-1566 1269,-2835 2835,-2835 z m 0,355 c 1370,0 2480,1110 2480,2480 0,1370 -1110,2480 -2480,2480 -1370,0 -2480,-1110 -2480,-2480 0,-1370 1110,-2480 2480,-2480 z m -793,507 1808,2820 878,121 c 149,-290 233,-619 233,-968 0,-1174 -952,-2126 -2126,-2126 -280,0 -548,54 -793,153 z m 2230,3539 -2219,-598 -754,502 c 387,404 932,656 1536,656 554,0 1059,-212 1437,-560 z m -3308,-556 1076,-2444 -319,-377 c -607,375 -1012,1045 -1012,1811 0,366 92,710 255,1010 z"
       id="path4011"
       inkscape:connector-curvature="0"
       style="fill:#eece00" /><path
       class="fil3"
       d="m 0,8244 c -1522,0 -2756,1234 -2756,2756 0,1522 1234,2756 2756,2756 1522,0 2756,-1234 2756,-2756 C 2756,9478 1522,8244 0,8244 Z m 0,197 c 1413,0 2559,1146 2559,2559 0,1413 -1146,2559 -2559,2559 -1413,0 -2559,-1146 -2559,-2559 0,-1413 1146,-2559 2559,-2559 z m -674,626 1735,2707 787,109 c 132,-276 199,-577 199,-883 0,-1131 -916,-2047 -2047,-2047 -230,0 -458,38 -674,114 z m 1947,3537 -2041,-551 -644,429 c 380,363 883,565 1412,565 465,0 911,-156 1273,-443 z m -3148,-781 988,-2243 -243,-287 c -571,378 -917,1016 -917,1707 0,285 58,564 172,823 z"
       id="path4013"
       inkscape:connector-curvature="0"
       style="fill:#f8db46" /></g></svg>