<?xml version="1.0" encoding="UTF-8" standalone="no"?>
<!-- Creator: CorelDRAW X7 -->

<svg
   xmlns:dc="http://purl.org/dc/elements/1.1/"
   xmlns:cc="http://creativecommons.org/ns#"
   xmlns:rdf="http://www.w3.org/1999/02/22-rdf-syntax-ns#"
   xmlns:svg="http://www.w3.org/2000/svg"
   xmlns="http://www.w3.org/2000/svg"
   xmlns:sodipodi="http://sodipodi.sourceforge.net/DTD/sodipodi-0.dtd"
   xmlns:inkscape="http://www.inkscape.org/namespaces/inkscape"
   xml:space="preserve"
   width="7.8740005in"
   height="7.8740005in"
   version="1.1"
   style="clip-rule:evenodd;fill-rule:evenodd;image-rendering:optimizeQuality;shape-rendering:geometricPrecision;text-rendering:geometricPrecision"
   viewBox="0 0 7874.0005 7874.0005"
   id="svg3875"
   inkscape:version="0.91 r13725"
   sodipodi:docname="Haqqislam - Remote 3 Fanous Remotes - [N3] [Vyo].svg"><metadata
     id="metadata3909"><rdf:RDF><cc:Work
         rdf:about=""><dc:format>image/svg+xml</dc:format><dc:type
           rdf:resource="http://purl.org/dc/dcmitype/StillImage" /></cc:Work></rdf:RDF></metadata><sodipodi:namedview
     pagecolor="#ffffff"
     bordercolor="#666666"
     borderopacity="1"
     objecttolerance="10"
     gridtolerance="10"
     guidetolerance="10"
     inkscape:pageopacity="0"
     inkscape:pageshadow="2"
     inkscape:window-width="640"
     inkscape:window-height="480"
     id="namedview3907"
     showgrid="false"
     inkscape:zoom="0.23838384"
     inkscape:cx="736.83001"
     inkscape:cy="849.33005"
     inkscape:window-x="0"
     inkscape:window-y="0"
     inkscape:window-maximized="0"
     inkscape:current-layer="svg3875" /><defs
     id="defs3877"><style
       type="text/css"
       id="style3879"><![CDATA[
    .fil3 {fill:none}
    .fil0 {fill:#B2C801}
    .fil1 {fill:white}
    .fil2 {fill:#B2C801;fill-rule:nonzero}
   ]]></style></defs><g
     id="Layer_x0020_1"
     transform="translate(3937,-7063)"><metadata
       id="CorelCorpID_0Corel-Layer" /><circle
       class="fil0"
       cy="11000"
       r="3937"
       id="circle3883"
       cx="0"
       style="fill:#b2c801" /><circle
       class="fil1"
       cy="11000"
       r="3780"
       id="circle3885"
       cx="0"
       style="fill:#ffffff" /><circle
       class="fil0"
       cy="11000"
       r="2756"
       id="circle3887"
       cx="0"
       style="fill:#b2c801" /><polygon
       class="fil1"
       points="-2047,11000 0,8441 2047,11000 0,13559 "
       id="polygon3889"
       style="fill:#ffffff" /><polygon
       class="fil0"
       points="0,8567 -1946,11000 0,13433 "
       id="polygon3891"
       style="fill:#b2c801" /><polygon
       class="fil1"
       points="-397,11054 -278,11422 -591,11195 -903,11422 -784,11054 -1096,10827 -710,10827 -591,10460 -471,10827 -85,10827 "
       id="polygon3893"
       style="fill:#ffffff" /><polygon
       class="fil0"
       points="784,10543 903,10910 591,10683 278,10910 397,10543 85,10316 471,10316 591,9948 710,10316 1096,10316 "
       id="polygon3895"
       style="fill:#b2c801" /><polygon
       class="fil0"
       points="784,11527 903,11894 591,11667 278,11894 397,11527 85,11300 471,11300 591,10933 710,11300 1096,11300 "
       id="polygon3897"
       style="fill:#b2c801" /><path
       class="fil2"
       d="m -2500,8500 82,-73 130,146 143,-127 -130,-146 82,-73 344,388 -82,73 -151,-170 -142,126 151,170 -83,74 -344,-388 z m 671,-521 95,-53 444,346 -98,55 -91,-72 -205,114 13,115 -99,55 -59,-560 z m 115,94 19,193 135,-75 -154,-118 z m 962,-74 130,83 -125,38 -64,-41 c -34,32 -76,55 -125,70 -81,25 -157,20 -227,-15 -70,-34 -116,-87 -137,-158 -15,-48 -16,-95 -3,-142 13,-48 38,-90 75,-127 37,-37 81,-63 132,-79 77,-23 151,-18 222,15 71,34 118,87 141,160 20,67 14,133 -19,196 z m -89,-56 c 13,-36 14,-72 3,-108 -15,-47 -44,-82 -89,-104 -45,-22 -92,-25 -141,-10 -51,16 -89,45 -113,87 -24,42 -29,88 -14,137 17,55 52,92 105,111 41,14 83,15 126,2 25,-8 47,-19 66,-34 l -134,-85 125,-38 66,42 z m 788,-37 109,109 -130,10 -54,-54 c -40,23 -86,36 -136,40 -86,7 -159,-15 -219,-64 -60,-49 -94,-111 -99,-185 -4,-49 6,-96 29,-139 23,-44 57,-79 101,-107 44,-28 93,-44 146,-48 80,-6 152,15 213,64 62,48 96,111 102,187 5,70 -15,132 -62,187 z m -74,-75 c 21,-32 29,-67 27,-105 -4,-49 -25,-89 -64,-120 -39,-31 -84,-45 -136,-41 -52,4 -96,24 -129,60 -33,36 -48,79 -44,131 5,57 31,100 78,130 37,24 78,33 123,30 26,-2 49,-8 71,-18 l -112,-113 131,-10 55,56 z m 313,-359 107,8 -39,517 -108,-8 40,-517 z m 579,146 -90,51 c -22,-40 -47,-62 -76,-67 -14,-2 -26,0 -36,5 -10,5 -16,12 -17,21 -2,8 0,17 5,26 7,11 30,38 68,78 36,38 58,62 65,71 19,24 31,45 37,65 6,20 8,40 4,62 -7,42 -28,74 -65,96 -36,22 -80,29 -132,21 -40,-7 -73,-21 -100,-44 -27,-23 -48,-55 -63,-97 l 98,-35 c 20,50 48,78 83,83 19,3 35,1 49,-7 14,-7 22,-18 24,-30 2,-12 -1,-24 -8,-37 -8,-13 -26,-35 -54,-64 -54,-55 -88,-97 -102,-124 -14,-28 -19,-54 -15,-79 6,-35 26,-63 59,-84 34,-20 73,-27 117,-20 28,5 54,15 77,31 24,16 48,42 72,78 z m 226,-12 102,35 -137,402 151,52 -30,88 -253,-86 167,-491 z m 584,232 96,51 -48,561 -100,-52 11,-116 -207,-109 -90,73 -100,-53 438,-355 z m -16,148 -152,121 136,72 16,-193 z m 538,161 80,68 -135,361 337,-187 80,68 -266,456 -79,-68 167,-289 -305,170 -73,-62 122,-327 -260,208 -80,-69 412,-329 z"
       id="path3899"
       inkscape:connector-curvature="0"
       style="fill:#b2c801;fill-rule:nonzero" /><circle
       class="fil3"
       cy="11000"
       r="3898"
       id="circle3901"
       cx="0"
       style="fill:none" /><path
       class="fil2"
       d="m -2218,12940 191,200 -74,71 -118,-124 -74,71 119,123 -74,72 -119,-124 -181,174 -73,-76 403,-387 z m 357,527 81,64 -254,325 -82,-64 27,-35 c -27,3 -52,1 -73,-5 -21,-6 -41,-16 -60,-31 -42,-33 -66,-77 -71,-134 -5,-57 11,-109 49,-157 39,-50 86,-80 141,-88 55,-9 103,3 146,37 19,15 35,33 46,54 12,20 19,44 22,70 l 28,-36 z m -138,-1 c -25,-20 -53,-27 -84,-22 -31,4 -57,21 -79,48 -22,28 -31,58 -29,90 3,31 17,57 42,76 26,20 54,28 85,23 31,-4 57,-21 80,-50 22,-28 32,-57 28,-88 -3,-31 -17,-56 -43,-77 z m 276,106 89,52 -21,36 c 30,-5 56,-6 76,-3 20,3 39,10 56,20 36,20 59,50 69,89 8,33 1,70 -23,111 l -137,236 -89,-52 91,-156 c 25,-42 39,-72 43,-88 5,-16 4,-31 -1,-43 -5,-13 -15,-24 -29,-32 -18,-10 -37,-13 -57,-9 -20,5 -39,16 -56,34 -9,10 -25,33 -46,71 l -84,142 -89,-52 208,-356 z m 550,277 c 37,14 67,36 92,67 25,30 41,64 47,102 6,39 2,75 -12,111 -14,37 -37,67 -67,92 -30,24 -64,39 -102,45 -39,6 -76,1 -114,-13 -55,-22 -95,-60 -119,-114 -24,-55 -25,-110 -3,-166 23,-60 65,-101 124,-124 53,-20 104,-20 154,0 z m -33,91 c -31,-12 -60,-11 -88,2 -28,13 -48,36 -61,68 -13,34 -13,64 -1,93 11,28 32,48 63,60 30,12 59,11 87,-2 28,-13 49,-36 62,-69 12,-33 13,-64 1,-92 -11,-28 -33,-48 -63,-60 z m 277,18 102,23 -44,194 c -9,37 -12,64 -10,80 1,16 7,29 17,40 9,11 23,18 40,22 16,4 32,3 45,-2 14,-6 25,-16 34,-30 7,-10 15,-35 24,-73 l 45,-197 101,24 -39,170 c -16,70 -33,117 -50,140 -21,29 -46,48 -77,59 -30,11 -65,12 -106,2 -44,-10 -78,-28 -101,-54 -22,-26 -35,-57 -38,-95 -3,-26 4,-72 18,-136 l 39,-167 z m 683,185 -72,55 c -23,-29 -44,-45 -65,-48 -12,-1 -21,0 -28,4 -7,4 -12,10 -12,17 -1,5 0,11 4,16 3,5 13,13 28,23 l 35,24 c 37,24 62,48 74,70 12,22 16,47 12,74 -5,36 -22,65 -52,85 -30,21 -67,28 -112,23 -60,-8 -105,-38 -134,-89 l 72,-61 c 11,16 23,29 39,40 15,11 28,17 41,19 13,1 25,0 34,-6 9,-5 14,-12 15,-21 3,-15 -10,-33 -38,-52 l -33,-22 c -61,-42 -89,-88 -82,-138 4,-32 20,-58 48,-78 28,-19 61,-26 100,-21 27,3 51,13 73,27 22,15 39,35 53,59 z m 280,-193 113,-9 c 61,-4 106,-2 133,7 27,9 49,26 67,50 18,24 28,54 31,89 3,36 -4,67 -20,93 -15,26 -40,47 -75,62 l 151,238 -116,9 -143,-227 -11,1 18,236 -105,8 -43,-557 z m 122,210 34,-3 c 34,-2 57,-8 69,-18 12,-10 18,-25 16,-46 -1,-12 -5,-23 -12,-31 -7,-9 -16,-15 -27,-18 -11,-3 -30,-3 -59,-1 l -29,2 8,115 z m 737,47 -324,75 c 12,28 30,48 54,60 24,12 52,15 83,8 38,-9 67,-30 88,-62 l 94,20 c -15,35 -35,63 -61,84 -26,22 -59,37 -100,46 -63,15 -119,7 -168,-24 -48,-30 -80,-76 -93,-135 -14,-62 -6,-117 24,-167 30,-49 75,-81 135,-95 63,-14 119,-6 168,25 49,31 81,80 96,146 l 4,19 z m -118,-55 c -12,-21 -29,-36 -52,-45 -23,-9 -47,-11 -73,-5 -28,7 -51,20 -69,41 -11,12 -19,32 -25,59 l 219,-50 z m 110,-177 96,-39 18,45 c 9,-24 22,-45 39,-62 17,-17 37,-31 61,-40 24,-10 48,-12 72,-8 24,4 46,15 67,33 6,-29 18,-54 36,-74 17,-21 40,-36 66,-47 27,-11 54,-14 80,-10 26,5 47,15 64,32 17,17 35,49 53,95 l 90,224 -96,39 -77,-194 c -18,-44 -35,-71 -52,-82 -17,-11 -36,-12 -58,-3 -17,6 -30,17 -39,32 -10,14 -15,31 -15,50 1,19 8,47 22,83 l 69,173 -96,38 -74,-185 c -13,-34 -26,-58 -37,-71 -11,-14 -23,-22 -36,-25 -14,-4 -28,-3 -42,3 -16,7 -29,17 -38,32 -10,15 -14,32 -14,51 0,20 8,48 22,85 l 68,170 -96,38 -153,-383 z m 776,-382 c 33,-21 69,-32 108,-35 40,-2 76,6 111,23 34,18 62,43 83,75 21,33 32,69 34,107 2,39 -6,76 -23,110 -18,34 -44,62 -78,84 -50,32 -104,42 -162,30 -58,-13 -103,-44 -136,-95 -35,-54 -44,-112 -27,-174 15,-54 44,-95 90,-125 z m 54,81 c -27,18 -44,42 -50,72 -5,30 1,60 20,90 19,30 44,48 74,55 30,8 58,2 86,-15 27,-18 43,-42 49,-73 6,-30 0,-60 -20,-90 -19,-30 -43,-48 -73,-55 -30,-7 -58,-2 -86,16 z m 104,-368 82,-63 93,120 49,-37 55,70 -49,38 198,256 -81,63 -199,-256 -42,33 -54,-71 41,-32 -93,-121 z m 695,-124 -229,241 c 24,17 50,24 77,21 27,-3 52,-16 74,-40 26,-28 39,-61 39,-100 l 89,-35 c 8,37 6,72 -4,104 -10,32 -29,63 -58,93 -44,47 -95,71 -153,73 -57,1 -108,-19 -153,-61 -45,-44 -69,-94 -71,-152 -3,-58 17,-110 60,-154 44,-47 96,-71 154,-72 58,-1 111,21 161,68 l 14,14 z m -130,19 c -21,-10 -44,-13 -68,-8 -24,5 -45,17 -63,36 -20,21 -32,45 -35,72 -3,16 1,38 11,63 l 155,-163 z"
       id="path3903"
       inkscape:connector-curvature="0"
       style="fill:#b2c801;fill-rule:nonzero" /><circle
       class="fil3"
       cy="11000"
       r="3898"
       id="circle3905"
       cx="0"
       style="fill:none" /></g></svg>