<?xml version="1.0" encoding="UTF-8" standalone="no"?>
<!-- Creator: CorelDRAW X7 -->

<svg
   xmlns:dc="http://purl.org/dc/elements/1.1/"
   xmlns:cc="http://creativecommons.org/ns#"
   xmlns:rdf="http://www.w3.org/1999/02/22-rdf-syntax-ns#"
   xmlns:svg="http://www.w3.org/2000/svg"
   xmlns="http://www.w3.org/2000/svg"
   xmlns:sodipodi="http://sodipodi.sourceforge.net/DTD/sodipodi-0.dtd"
   xmlns:inkscape="http://www.inkscape.org/namespaces/inkscape"
   xml:space="preserve"
   width="7.8740005in"
   height="7.8740005in"
   version="1.1"
   style="clip-rule:evenodd;fill-rule:evenodd;image-rendering:optimizeQuality;shape-rendering:geometricPrecision;text-rendering:geometricPrecision"
   viewBox="0 0 7874.0005 7874.0005"
   id="svg2"
   inkscape:version="0.91 r13725"
   sodipodi:docname="haqqislam_bashi_bazouk.svg"><metadata
     id="metadata24"><rdf:RDF><cc:Work
         rdf:about=""><dc:format>image/svg+xml</dc:format><dc:type
           rdf:resource="http://purl.org/dc/dcmitype/StillImage" /></cc:Work></rdf:RDF></metadata><sodipodi:namedview
     pagecolor="#ffffff"
     bordercolor="#666666"
     borderopacity="1"
     objecttolerance="10"
     gridtolerance="10"
     guidetolerance="10"
     inkscape:pageopacity="0"
     inkscape:pageshadow="2"
     inkscape:window-width="640"
     inkscape:window-height="480"
     id="namedview22"
     showgrid="false"
     inkscape:zoom="0.23838384"
     inkscape:cx="736.83001"
     inkscape:cy="849.33005"
     inkscape:window-x="0"
     inkscape:window-y="0"
     inkscape:window-maximized="0"
     inkscape:current-layer="svg2" /><defs
     id="defs4"><style
       type="text/css"
       id="style6"><![CDATA[
    .fil1 {fill:#B2C801}
    .fil0 {fill:#EECE00}
    .fil2 {fill:white}
    .fil3 {fill:white;fill-rule:nonzero}
   ]]></style></defs><g
     id="Layer_x0020_1"
     transform="translate(3937,-7063)"><metadata
       id="CorelCorpID_0Corel-Layer" /><circle
       class="fil0"
       cy="11000"
       r="3937"
       id="circle10"
       cx="0"
       style="fill:#eece00" /><circle
       class="fil1"
       cy="11000"
       r="3819"
       id="circle12"
       cx="0"
       style="fill:#b2c801" /><path
       class="fil2"
       d="m 0,13717 c 1500,0 2717,-1217 2717,-2717 C 2717,9500 1500,8283 0,8283 c -1424,0 -2592,1096 -2707,2490 -5,74 -9,150 -10,227 0,650 229,1247 610,1714 -62,-150 -97,-315 -97,-488 0,-353 144,-673 375,-904 232,-232 552,-375 905,-375 353,0 673,143 905,375 231,231 374,551 374,904 0,354 -143,674 -374,905 -232,232 -552,375 -905,375 -49,0 -98,-3 -146,-8 329,140 690,219 1070,219 z m -2279,-1389 c -90,-226 -140,-472 -140,-731 0,-1087 882,-1968 1969,-1968 1087,0 1968,881 1968,1968 0,1088 -881,1969 -1968,1969 -67,0 -132,-3 -197,-10 264,-54 500,-186 683,-369 246,-246 398,-586 398,-961 0,-375 -152,-714 -398,-960 -245,-246 -585,-398 -960,-398 -375,0 -715,152 -961,398 -245,246 -397,585 -397,960 0,35 1,69 3,102 z"
       id="path14"
       inkscape:connector-curvature="0"
       style="fill:#ffffff" /><circle
       class="fil2"
       cx="237"
       cy="10686"
       r="315"
       id="circle16"
       style="fill:#ffffff" /><path
       class="fil3"
       d="m -509,11952 c 76,0 145,-31 194,-81 50,-50 81,-119 81,-195 0,-76 -31,-145 -81,-195 -49,-50 -118,-81 -194,-81 -77,0 -145,31 -195,81 -50,50 -81,119 -81,195 0,76 31,145 81,195 50,50 118,81 195,81 z m 250,-25 c -64,64 -153,103 -250,103 -98,0 -187,-39 -251,-103 -64,-65 -104,-153 -104,-251 0,-98 40,-186 104,-250 64,-65 153,-104 251,-104 97,0 186,39 250,104 64,64 104,152 104,250 0,98 -40,186 -104,251 z"
       id="path18"
       inkscape:connector-curvature="0"
       style="fill:#ffffff;fill-rule:nonzero" /><circle
       class="fil2"
       cx="-1280"
       cy="12698"
       r="472"
       id="circle20"
       style="fill:#ffffff" /></g></svg>