<?xml version="1.0" encoding="UTF-8" standalone="no"?>
<!-- Creator: CorelDRAW X7 -->

<svg
   xmlns:dc="http://purl.org/dc/elements/1.1/"
   xmlns:cc="http://creativecommons.org/ns#"
   xmlns:rdf="http://www.w3.org/1999/02/22-rdf-syntax-ns#"
   xmlns:svg="http://www.w3.org/2000/svg"
   xmlns="http://www.w3.org/2000/svg"
   xmlns:sodipodi="http://sodipodi.sourceforge.net/DTD/sodipodi-0.dtd"
   xmlns:inkscape="http://www.inkscape.org/namespaces/inkscape"
   xml:space="preserve"
   width="7.8740005in"
   height="7.8740005in"
   version="1.1"
   style="clip-rule:evenodd;fill-rule:evenodd;image-rendering:optimizeQuality;shape-rendering:geometricPrecision;text-rendering:geometricPrecision"
   viewBox="0 0 7874.0005 7874.0005"
   id="svg3350"
   inkscape:version="0.91 r13725"
   sodipodi:docname="Haqqislam - Al Hawwa' Unit v2 - [N3] [Vyo].svg"><metadata
     id="metadata3366"><rdf:RDF><cc:Work
         rdf:about=""><dc:format>image/svg+xml</dc:format><dc:type
           rdf:resource="http://purl.org/dc/dcmitype/StillImage" /></cc:Work></rdf:RDF></metadata><sodipodi:namedview
     pagecolor="#ffffff"
     bordercolor="#666666"
     borderopacity="1"
     objecttolerance="10"
     gridtolerance="10"
     guidetolerance="10"
     inkscape:pageopacity="0"
     inkscape:pageshadow="2"
     inkscape:window-width="640"
     inkscape:window-height="480"
     id="namedview3364"
     showgrid="false"
     inkscape:zoom="0.23838384"
     inkscape:cx="736.83001"
     inkscape:cy="849.33005"
     inkscape:window-x="0"
     inkscape:window-y="0"
     inkscape:window-maximized="0"
     inkscape:current-layer="svg3350" /><defs
     id="defs3352"><style
       type="text/css"
       id="style3354"><![CDATA[
    .fil1 {fill:#B2C801}
    .fil0 {fill:#EECE00}
    .fil2 {fill:white}
   ]]></style></defs><g
     id="Layer_x0020_1"
     transform="translate(3937,-7063)"><metadata
       id="CorelCorpID_0Corel-Layer" /><circle
       class="fil0"
       cy="11000"
       r="3937"
       id="circle3358"
       cx="0"
       style="fill:#eece00" /><circle
       class="fil1"
       cy="11000"
       r="3819"
       id="circle3360"
       cx="0"
       style="fill:#b2c801" /><path
       class="fil2"
       d="m 831,8166 7,2 c 891,396 1545,1404 1632,2615 C 2303,10271 1981,9829 1559,9512 1386,8941 1134,8472 831,8166 Z m 373,1122 C 844,9099 435,8992 0,8992 c -435,0 -844,107 -1204,296 281,-756 716,-1241 1204,-1241 488,0 923,485 1204,1241 z m -2763,224 c -422,317 -744,759 -911,1271 87,-1211 742,-2219 1632,-2615 l 7,-2 c -302,306 -555,774 -728,1346 z m 3733,-510 c 483,525 779,1227 779,1998 0,655 -213,1259 -574,1749 239,-496 377,-1073 377,-1690 0,-776 -218,-1490 -582,-2057 z m -4553,3747 c -361,-490 -574,-1094 -574,-1749 0,-771 296,-1473 779,-1998 -364,567 -582,1281 -582,2057 0,617 138,1194 377,1690 z M 0,11394 c 696,0 1260,564 1260,1260 0,695 -564,1259 -1260,1259 -696,0 -1260,-564 -1260,-1259 0,-696 564,-1260 1260,-1260 z m 0,1299 c 304,0 551,247 551,551 0,72 -14,141 -39,204 261,-169 433,-461 433,-794 0,-522 -423,-945 -945,-945 -522,0 -945,423 -945,945 0,333 172,625 433,794 -25,-63 -39,-132 -39,-204 0,-304 247,-551 551,-551 z M 0,9898 c 588,0 1119,248 1492,646 28,247 43,505 43,771 0,185 -7,366 -21,542 -227,-615 -819,-1054 -1514,-1054 -695,0 -1287,439 -1514,1054 -14,-176 -21,-357 -21,-542 0,-266 15,-524 43,-771 373,-398 904,-646 1492,-646 z m 1803,1076 c 156,289 244,619 244,971 0,549 -216,1048 -568,1415 209,-578 332,-1283 332,-2045 0,-115 -3,-229 -8,-341 z m -3282,2386 c -352,-367 -568,-866 -568,-1415 0,-352 88,-682 244,-971 -5,112 -8,226 -8,341 0,762 123,1467 332,2045 z"
       id="path3362"
       inkscape:connector-curvature="0"
       style="fill:#ffffff" /></g></svg>