<?xml version="1.0" encoding="UTF-8" standalone="no"?>
<!-- Creator: CorelDRAW X7 -->

<svg
   xmlns:dc="http://purl.org/dc/elements/1.1/"
   xmlns:cc="http://creativecommons.org/ns#"
   xmlns:rdf="http://www.w3.org/1999/02/22-rdf-syntax-ns#"
   xmlns:svg="http://www.w3.org/2000/svg"
   xmlns="http://www.w3.org/2000/svg"
   xmlns:sodipodi="http://sodipodi.sourceforge.net/DTD/sodipodi-0.dtd"
   xmlns:inkscape="http://www.inkscape.org/namespaces/inkscape"
   xml:space="preserve"
   width="7.8740005in"
   height="7.8740005in"
   version="1.1"
   style="clip-rule:evenodd;fill-rule:evenodd;image-rendering:optimizeQuality;shape-rendering:geometricPrecision;text-rendering:geometricPrecision"
   viewBox="0 0 7874.0005 7874.0005"
   id="svg3368"
   inkscape:version="0.91 r13725"
   sodipodi:docname="Haqqislam - Asawira Regiment - [N3] [Vyo].svg"><metadata
     id="metadata3394"><rdf:RDF><cc:Work
         rdf:about=""><dc:format>image/svg+xml</dc:format><dc:type
           rdf:resource="http://purl.org/dc/dcmitype/StillImage" /></cc:Work></rdf:RDF></metadata><sodipodi:namedview
     pagecolor="#ffffff"
     bordercolor="#666666"
     borderopacity="1"
     objecttolerance="10"
     gridtolerance="10"
     guidetolerance="10"
     inkscape:pageopacity="0"
     inkscape:pageshadow="2"
     inkscape:window-width="640"
     inkscape:window-height="480"
     id="namedview3392"
     showgrid="false"
     inkscape:zoom="0.23838384"
     inkscape:cx="736.83001"
     inkscape:cy="849.33005"
     inkscape:window-x="0"
     inkscape:window-y="0"
     inkscape:window-maximized="0"
     inkscape:current-layer="svg3368" /><defs
     id="defs3370"><style
       type="text/css"
       id="style3372"><![CDATA[
    .fil1 {fill:#A6CC39}
    .fil0 {fill:#EECE00}
    .fil2 {fill:#F8DB46}
   ]]></style></defs><g
     id="Layer_x0020_1"
     transform="translate(3937,-7063)"><metadata
       id="CorelCorpID_0Corel-Layer" /><circle
       class="fil0"
       cy="11000"
       r="3937"
       id="circle3376"
       cx="0"
       style="fill:#eece00" /><circle
       class="fil1"
       cy="11000"
       r="3819"
       id="circle3378"
       cx="0"
       style="fill:#a6cc39" /><path
       class="fil2"
       d="m -1102,9465 c 33,-316 708,-827 1063,-945 -158,708 -158,2086 0,3307 -158,275 -158,708 0,945 -355,0 -978,-162 -1063,-276 -118,-157 315,-551 551,-669 -355,-827 -630,-1614 -551,-2362 z"
       id="path3380"
       inkscape:connector-curvature="0"
       style="fill:#f8db46" /><path
       class="fil2"
       d="m -2008,10016 c 24,-317 433,-788 788,-906 -276,709 236,2087 590,2717 -354,157 -827,551 -630,787 -315,0 -748,-197 -748,-275 0,-197 630,-433 866,-512 -393,-473 -905,-1299 -866,-1811 z"
       id="path3382"
       inkscape:connector-curvature="0"
       style="fill:#f8db46" /><path
       class="fil2"
       d="m -2559,10606 c 0,-157 0,-393 354,-826 -78,669 473,1456 985,2047 -355,79 -1063,393 -985,590 -118,0 -354,-157 -354,-236 0,-118 630,-315 866,-354 -354,-315 -866,-827 -866,-1221 z"
       id="path3384"
       inkscape:connector-curvature="0"
       style="fill:#f8db46" /><path
       class="fil2"
       d="M 1102,9465 C 1069,9149 394,8638 39,8520 c 158,708 158,2086 0,3307 158,275 158,708 0,945 355,0 978,-162 1063,-276 118,-157 -315,-551 -551,-669 355,-827 630,-1614 551,-2362 z"
       id="path3386"
       inkscape:connector-curvature="0"
       style="fill:#f8db46" /><path
       class="fil2"
       d="m 2008,10016 c -24,-317 -433,-788 -788,-906 276,709 -236,2087 -590,2717 354,157 827,551 630,787 315,0 748,-197 748,-275 0,-197 -630,-433 -866,-512 393,-473 905,-1299 866,-1811 z"
       id="path3388"
       inkscape:connector-curvature="0"
       style="fill:#f8db46" /><path
       class="fil2"
       d="m 2559,10606 c 0,-157 0,-393 -354,-826 78,669 -473,1456 -985,2047 355,79 1063,393 985,590 118,0 354,-157 354,-236 0,-118 -630,-315 -866,-354 354,-315 866,-827 866,-1221 z"
       id="path3390"
       inkscape:connector-curvature="0"
       style="fill:#f8db46" /></g></svg>