<?xml version="1.0" encoding="UTF-8" standalone="no"?>
<!-- Creator: CorelDRAW X7 -->

<svg
   xmlns:dc="http://purl.org/dc/elements/1.1/"
   xmlns:cc="http://creativecommons.org/ns#"
   xmlns:rdf="http://www.w3.org/1999/02/22-rdf-syntax-ns#"
   xmlns:svg="http://www.w3.org/2000/svg"
   xmlns="http://www.w3.org/2000/svg"
   xmlns:sodipodi="http://sodipodi.sourceforge.net/DTD/sodipodi-0.dtd"
   xmlns:inkscape="http://www.inkscape.org/namespaces/inkscape"
   xml:space="preserve"
   width="7.8740005in"
   height="5.7880001in"
   version="1.1"
   style="clip-rule:evenodd;fill-rule:evenodd;image-rendering:optimizeQuality;shape-rendering:geometricPrecision;text-rendering:geometricPrecision"
   viewBox="0 0 7874.0005 5788.0001"
   id="svg6404"
   inkscape:version="0.91 r13725"
   sodipodi:docname="haqqislam_nasmat_remotes.svg"><metadata
     id="metadata6453"><rdf:RDF><cc:Work
         rdf:about=""><dc:format>image/svg+xml</dc:format><dc:type
           rdf:resource="http://purl.org/dc/dcmitype/StillImage" /></cc:Work></rdf:RDF></metadata><sodipodi:namedview
     pagecolor="#ffffff"
     bordercolor="#666666"
     borderopacity="1"
     objecttolerance="10"
     gridtolerance="10"
     guidetolerance="10"
     inkscape:pageopacity="0"
     inkscape:pageshadow="2"
     inkscape:window-width="640"
     inkscape:window-height="480"
     id="namedview6451"
     showgrid="false"
     inkscape:zoom="0.23838384"
     inkscape:cx="736.83001"
     inkscape:cy="755.46005"
     inkscape:window-x="0"
     inkscape:window-y="0"
     inkscape:window-maximized="0"
     inkscape:current-layer="svg6404" /><defs
     id="defs6406"><style
       type="text/css"
       id="style6408"><![CDATA[
    .fil0 {fill:#B2C801}
    .fil1 {fill:white}
    .fil3 {fill:#B2C801;fill-rule:nonzero}
    .fil2 {fill:white;fill-rule:nonzero}
   ]]></style></defs><g
     id="Layer_x0020_1"
     transform="translate(3937,-8106)"><metadata
       id="CorelCorpID_0Corel-Layer" /><polygon
       class="fil0"
       points="-630,11925 -2835,11925 -3937,10016 -2835,8106 -630,8106 472,10016 "
       id="polygon6412"
       style="fill:#b2c801" /><polygon
       class="fil1"
       points="-675,11846 382,10016 -675,8185 -2789,8185 -3846,10016 -2789,11846 "
       id="polygon6414"
       style="fill:#ffffff" /><polygon
       class="fil0"
       points="2835,13894 630,13894 -472,11984 630,10075 2835,10075 3937,11984 "
       id="polygon6416"
       style="fill:#b2c801" /><polygon
       class="fil1"
       points="2789,13815 3846,11984 2789,10154 675,10154 -382,11984 675,13815 "
       id="polygon6418"
       style="fill:#ffffff" /><polygon
       class="fil0"
       points="2766,13775 3801,11984 2766,10193 698,10193 -336,11984 698,13775 "
       id="polygon6420"
       style="fill:#b2c801" /><path
       class="fil1"
       d="m 1329,10478 c 183,-49 368,-63 546,-47 l 56,-121 537,169 -22,119 c 145,75 278,172 394,289 l 121,-58 302,475 -93,77 c 27,64 50,131 68,200 25,91 41,183 48,274 l 130,34 -74,558 -121,0 c -48,156 -121,304 -216,437 l 78,109 -415,381 -92,-78 c -132,85 -280,151 -440,194 -2,1 -5,1 -7,2 l -11,133 -562,25 -20,-119 c -164,-21 -322,-67 -469,-137 l -94,96 -447,-343 61,-104 c -166,-180 -293,-402 -361,-655 -4,-18 -9,-36 -13,-54 228,743 1005,1178 1762,975 774,-207 1233,-1003 1026,-1777 -203,-757 -968,-1212 -1725,-1038 17,-6 35,-11 53,-16 z"
       id="path6422"
       inkscape:connector-curvature="0"
       style="fill:#ffffff" /><path
       class="fil2"
       d="m 2331,12819 -38,20 c -23,11 -41,15 -54,12 -14,-4 -26,-15 -36,-34 -4,-7 -8,-17 -11,-29 -2,-4 -4,-10 -6,-17 -26,26 -46,46 -58,62 -23,28 -39,54 -47,78 -10,31 -8,59 5,84 21,40 57,59 108,57 45,-1 98,-17 158,-48 l 51,-27 3,2 -40,77 -16,8 c -39,21 -74,34 -105,41 -36,7 -67,5 -94,-6 -30,-12 -54,-37 -73,-74 -17,-32 -23,-63 -20,-95 3,-25 12,-51 27,-79 5,-8 18,-28 41,-61 -8,3 -16,6 -25,10 -8,3 -16,7 -23,10 -18,10 -33,19 -44,26 -3,3 -14,12 -32,27 -3,-22 -3,-38 0,-48 7,-24 27,-44 60,-61 18,-9 38,-18 61,-25 22,-7 41,-15 55,-22 9,-5 18,-10 27,-16 8,-5 17,-11 26,-17 l 14,53 c -7,4 -15,10 -24,17 -5,4 -13,10 -22,18 l 7,15 c 8,16 18,23 30,24 7,0 18,-3 32,-11 l 38,-19 25,48 z m 174,-88 c 8,7 11,17 10,31 -8,19 -21,49 -38,90 -7,-6 -10,-16 -9,-28 7,-17 19,-49 37,-93 z m 50,-131 -16,17 c -10,10 -19,17 -28,21 -9,4 -19,7 -29,7 -2,13 -4,23 -7,29 -5,11 -14,22 -27,36 l -15,14 c -7,8 -16,14 -27,19 -7,3 -16,6 -28,9 -2,13 -4,23 -8,31 -4,8 -12,18 -26,32 l -42,43 -39,-39 43,-43 c 12,-12 19,-21 22,-28 5,-12 3,-23 -8,-33 -4,-5 -8,-9 -13,-13 -5,-3 -10,-7 -17,-11 l -4,-22 c 17,9 31,15 39,19 16,6 29,8 40,8 14,0 25,-5 35,-15 l 14,-15 c 11,-11 18,-21 20,-30 2,-9 -1,-19 -10,-27 -4,-4 -9,-8 -14,-12 -5,-4 -10,-8 -16,-12 l -5,-22 26,16 c 20,13 36,19 48,20 11,0 20,-4 29,-13 4,-3 6,-8 6,-13 0,-5 -2,-9 -6,-13 -9,-8 -20,-14 -36,-17 -2,0 -11,-1 -25,-3 l -10,-38 c 15,3 27,7 36,11 13,7 28,18 45,35 l 53,52 z m -205,-411 32,39 -43,37 -33,-39 44,-37 z m -1,76 33,39 -43,37 -34,-38 44,-38 z m 375,-10 -16,42 c -6,14 -23,21 -51,22 -21,1 -46,-2 -76,-9 9,11 14,21 16,33 3,11 2,21 -2,31 -9,22 -18,40 -27,54 -9,13 -16,19 -20,17 -17,-7 -31,-25 -42,-54 -12,-30 -19,-64 -21,-102 -1,-1 -6,-1 -13,-3 -7,-1 -11,-2 -13,-3 -6,-2 -13,-8 -19,-15 -5,-7 -9,-15 -14,-23 13,2 25,5 37,8 12,2 25,5 38,7 l 53,11 c 29,6 51,10 66,12 22,2 35,0 37,-7 l 17,-41 50,20 z m -170,49 -33,-7 c -1,19 0,35 2,47 3,12 8,23 16,34 4,-3 7,-7 10,-12 3,-5 7,-12 10,-22 5,-11 3,-25 -5,-40 z m 229,-364 -5,24 c -3,13 -7,23 -12,32 -6,8 -13,16 -21,22 6,11 9,21 10,28 1,11 0,26 -4,44 l -4,20 c -2,11 -7,21 -13,31 -4,6 -10,14 -18,23 5,11 8,21 9,30 1,9 0,22 -4,40 l -13,59 -53,-11 13,-59 c 3,-16 4,-29 3,-36 -2,-13 -10,-21 -24,-24 -6,-1 -12,-2 -18,-3 -6,0 -13,-1 -21,-1 l -16,-16 c 20,-2 35,-3 44,-5 17,-4 29,-9 38,-15 12,-7 18,-17 21,-31 l 5,-20 c 3,-16 3,-28 0,-36 -4,-9 -11,-15 -23,-18 -6,-1 -12,-2 -18,-2 -7,-1 -13,-1 -20,-1 l -16,-16 30,0 c 24,-1 41,-5 51,-11 10,-5 15,-13 18,-25 1,-6 0,-11 -2,-15 -3,-4 -7,-6 -12,-7 -12,-3 -25,-1 -39,5 -3,1 -10,4 -23,10 l -29,-26 c 14,-6 26,-9 36,-10 15,-2 34,0 57,5 l 73,15 z m -56,-182 26,137 c 3,11 1,22 -4,33 -5,11 -12,17 -21,19 -8,1 -15,2 -21,2 -7,1 -14,0 -22,0 l -1,-7 c 8,-3 13,-9 15,-15 3,-6 3,-13 1,-21 l -23,-119 c -36,7 -65,18 -85,32 -25,18 -40,43 -43,75 l -61,6 c 11,-39 34,-69 69,-91 28,-18 67,-31 117,-41 l 53,-10 z m -303,-20 50,8 -9,56 -50,-7 9,-57 z m 266,-115 56,169 -52,17 -48,-147 c -24,7 -40,16 -51,26 -7,6 -16,20 -27,40 l -56,-7 c 13,-20 24,-34 33,-41 13,-10 38,-21 73,-33 l 72,-24 z m -206,-336 70,90 c -3,-15 -3,-29 0,-43 4,-18 13,-33 26,-43 13,-10 25,-16 36,-18 13,-3 24,1 32,12 15,19 23,43 21,70 -1,32 -15,59 -42,80 l -18,13 42,55 -42,33 -49,-63 c -20,6 -39,11 -57,14 -24,5 -44,6 -62,5 -21,-2 -35,-7 -42,-17 -4,-5 -3,-13 2,-24 6,-11 14,-20 24,-28 15,-11 29,-16 44,-16 9,1 28,8 56,21 l -84,-108 43,-33 z m -22,146 c -15,13 -21,22 -16,29 6,7 20,9 43,7 12,-1 29,-4 53,-8 -16,-12 -31,-21 -45,-26 -16,-6 -28,-7 -35,-2 z m 131,-117 c -13,10 -18,30 -15,58 2,23 8,43 17,61 18,-14 30,-30 35,-48 6,-22 0,-43 -16,-64 -3,-4 -6,-6 -10,-8 -4,-1 -8,-1 -11,1 z m -199,-112 112,105 -37,39 -89,-83 -153,220 6,17 c -9,10 -19,19 -30,26 -10,8 -21,14 -33,19 l -1,-5 c 8,-9 9,-20 3,-34 -4,-10 -9,-21 -14,-31 7,-8 15,-15 24,-22 9,-8 17,-13 22,-16 l 8,14 140,-205 42,-44 z m -119,8 c 10,-13 21,-25 35,-34 8,-5 21,-12 40,-21 l 3,6 c -4,5 -9,10 -14,16 -5,6 -8,10 -10,13 -12,17 -28,43 -48,77 -19,33 -39,69 -59,106 -13,23 -25,46 -37,70 -9,5 -19,10 -29,16 -10,6 -20,11 -30,16 11,-22 27,-51 46,-87 19,-37 37,-70 54,-98 21,-36 37,-63 49,-80 z"
       id="path6424"
       inkscape:connector-curvature="0"
       style="fill:#ffffff;fill-rule:nonzero" /><path
       class="fil3"
       d="m -1643,10888 c -56,22 -101,38 -139,40 -48,2 -80,-14 -95,-47 -8,-18 -10,-39 -7,-63 2,-8 6,-25 14,-51 l 15,-1 c -3,12 -5,23 -7,35 -2,17 0,31 4,42 10,22 36,31 77,28 36,-4 79,-14 128,-33 144,-58 273,-145 380,-253 8,-7 15,-14 22,-21 l -10,-16 c -12,-19 -31,-29 -47,-35 -16,-5 -34,-5 -57,0 l -6,-62 c 18,-1 29,-1 33,0 32,4 62,22 91,56 l 23,27 c 66,-75 123,-159 168,-249 -25,-13 -42,-15 -66,-13 -34,2 -67,21 -98,55 l -49,-37 c 43,-38 87,-56 132,-56 34,0 52,6 92,29 35,-73 62,-151 81,-232 -20,-3 -39,-2 -56,3 -33,9 -61,33 -84,73 l -56,-26 c 35,-46 74,-73 118,-82 45,-9 58,-8 85,1 5,-27 10,-55 13,-82 0,-52 -7,-92 -19,-127 -13,-8 -34,-22 -42,-23 -33,-6 -77,5 -107,16 -18,7 -40,17 -65,30 -13,7 -29,15 -47,26 l -6,30 c -13,-1 -25,-3 -38,-5 -12,-3 -24,-7 -35,-13 9,-7 15,-19 18,-37 2,-15 3,-34 1,-56 22,0 36,1 42,1 6,1 13,3 22,6 1,3 0,8 0,18 l -1,6 c 23,-14 46,-26 71,-37 25,-10 46,-17 63,-19 14,-2 45,-3 58,-2 16,1 34,7 47,12 -4,-9 -8,-18 -12,-26 -41,-85 -87,-177 -67,-271 7,-33 27,-58 62,-63 73,0 74,64 89,135 16,80 25,163 25,249 0,309 -116,590 -307,804 l 0,0 0,0 c -15,16 -30,32 -46,48 -115,115 -252,206 -405,268 z m 709,-1134 c -1,-81 -10,-160 -27,-235 -7,-32 -14,-81 -42,-75 -21,3 -13,70 -11,83 11,73 26,104 58,169 8,17 16,37 22,58 z m 78,378 31,49 -49,62 -32,-47 50,-64 z m -101,213 22,53 -62,53 -21,-54 61,-52 z m -46,117 21,52 -61,53 -21,-54 61,-51 z m -384,404 -14,56 -79,7 12,-56 81,-7 z"
       id="path6426"
       inkscape:connector-curvature="0"
       style="fill:#b2c801;fill-rule:nonzero" /><path
       class="fil0"
       d="m -1732,11630 c 891,0 1614,-723 1614,-1614 0,-892 -723,-1614 -1614,-1614 -202,0 -395,37 -574,104 87,-17 176,-26 267,-26 750,0 1358,608 1358,1359 0,750 -608,1358 -1358,1358 -597,0 -1104,-386 -1286,-921 124,768 790,1354 1593,1354 z"
       id="path6428"
       inkscape:connector-curvature="0"
       style="fill:#b2c801" /><polygon
       class="fil3"
       points="-3601,9993 -3597,9987 -3395,9968 -3336,9866 -3529,9755 -3563,9815 -3419,9896 -3422,9902 -3624,9920 -3683,10023 -3491,10134 -3456,10075 "
       id="polygon6430"
       style="fill:#b2c801;fill-rule:nonzero" /><path
       id="1"
       class="fil3"
       d="m -3193,9618 39,-66 -251,-11 -53,92 134,213 39,-67 -24,-36 74,-127 42,2 z m -96,-6 -50,86 -51,-79 6,-12 95,5 z"
       inkscape:connector-curvature="0"
       style="fill:#b2c801;fill-rule:nonzero" /><path
       id="2"
       class="fil3"
       d="m -3213,9506 9,5 c 28,16 42,18 58,8 16,-9 32,-31 66,-89 34,-59 46,-84 48,-99 3,-23 -9,-40 -42,-59 -27,-16 -43,-18 -60,-9 -14,8 -23,20 -61,81 -25,42 -35,56 -39,61 -5,4 -10,5 -17,1 -14,-9 -13,-13 15,-63 26,-44 30,-50 36,-52 5,-2 8,-1 18,4 l 33,-57 c -4,-2 -8,-4 -9,-5 -24,-14 -39,-16 -54,-8 -16,9 -30,28 -61,82 -41,69 -49,87 -49,107 0,18 13,34 42,51 19,11 33,15 46,12 15,-3 27,-14 44,-41 3,-6 16,-26 29,-46 13,-20 24,-39 28,-45 11,-18 17,-21 28,-15 8,5 12,9 11,15 -1,7 -4,14 -30,58 -24,41 -28,47 -35,51 -5,3 -10,2 -21,-5 l -33,57 z"
       inkscape:connector-curvature="0"
       style="fill:#b2c801;fill-rule:nonzero" /><polygon
       id="3"
       class="fil3"
       points="-3109,9140 -3103,9130 -2917,9140 -2889,9092 -2991,8936 -2985,8926 -2842,9011 -2809,8953 -3001,8842 -3062,8948 -2970,9077 -3128,9062 -3190,9168 -2997,9279 -2964,9222 "
       style="fill:#b2c801;fill-rule:nonzero" /><path
       id="4"
       class="fil3"
       d="m -2669,8710 39,-66 -251,-11 -52,91 133,213 39,-67 -23,-35 73,-127 42,2 z m -96,-6 -49,86 -52,-79 7,-12 94,5 z"
       inkscape:connector-curvature="0"
       style="fill:#b2c801;fill-rule:nonzero" /><polygon
       id="5"
       class="fil3"
       points="-2594,8581 -2558,8519 -2702,8437 -2652,8351 -2701,8323 -2836,8555 -2787,8584 -2737,8498 "
       style="fill:#b2c801;fill-rule:nonzero" /><path
       class="fil1"
       d="m 619,10564 -44,-26 174,-301 117,68 -50,86 144,82 -142,246 -42,-2 -49,85 23,36 -113,195 -51,-30 36,56 -52,91 -68,-4 53,29 -73,127 -10,-6 c 0,3 0,6 -1,9 -4,32 -37,85 -53,113 -11,20 -26,47 -44,70 l -80,140 -42,-3 -50,85 23,36 -131,228 -110,10 78,44 -74,129 -261,-151 90,-155 108,-9 -78,-44 75,-128 128,74 -89,-142 76,-133 143,6 c -5,-2 -10,-5 -16,-8 -32,-18 -62,-46 -61,-86 0,-18 6,-34 13,-50 12,-26 27,-51 41,-76 18,-31 43,-77 76,-96 l 0,0 1,0 c 0,0 0,0 0,0 l -13,-8 94,-162 97,9 -56,-80 93,-161 119,68 -83,-131 77,-133 57,3 z m 95,4 118,4 -90,-52 -28,48 z"
       id="path6437"
       inkscape:connector-curvature="0"
       style="fill:#ffffff" /><polygon
       class="fil3"
       points="-136,11962 -132,11955 70,11937 128,11835 -64,11724 -99,11784 46,11865 42,11871 -159,11889 -219,11992 -26,12103 8,12043 "
       id="polygon6439"
       style="fill:#b2c801;fill-rule:nonzero" /><path
       id="path6441"
       class="fil3"
       d="m 272,11587 38,-67 -251,-10 -52,91 133,213 39,-67 -23,-35 73,-127 43,2 z m -96,-6 -50,86 -52,-80 7,-11 95,5 z"
       inkscape:connector-curvature="0"
       style="fill:#b2c801;fill-rule:nonzero" /><path
       id="path6443"
       class="fil3"
       d="m 252,11474 9,6 c 27,16 41,18 58,8 16,-10 32,-32 65,-89 34,-60 46,-85 48,-99 4,-23 -8,-40 -41,-59 -28,-16 -44,-18 -60,-9 -14,8 -24,20 -61,81 -26,41 -35,56 -40,60 -5,5 -10,5 -17,1 -14,-8 -13,-13 16,-62 25,-44 30,-51 36,-53 5,-1 8,-1 18,4 l 32,-56 c -3,-3 -7,-5 -9,-6 -23,-13 -39,-15 -54,-7 -16,9 -30,28 -61,81 -40,70 -48,87 -49,107 0,18 14,35 42,51 19,11 34,15 47,13 15,-3 26,-14 43,-42 4,-6 16,-25 29,-45 13,-20 25,-39 29,-45 11,-19 16,-22 28,-15 8,4 11,9 11,14 -1,7 -5,14 -30,59 -24,41 -29,47 -35,50 -6,3 -10,2 -22,-4 l -32,56 z"
       inkscape:connector-curvature="0"
       style="fill:#b2c801;fill-rule:nonzero" /><polygon
       id="polygon6445"
       class="fil3"
       points="356,11109 362,11098 548,11109 576,11060 474,10905 479,10895 622,10979 656,10922 463,10810 402,10916 494,11046 336,11031 275,11137 467,11248 501,11190 "
       style="fill:#b2c801;fill-rule:nonzero" /><path
       id="path6447"
       class="fil3"
       d="m 796,10679 38,-67 -250,-10 -53,91 134,213 38,-67 -23,-35 74,-128 42,3 z m -96,-6 -50,86 -51,-80 6,-11 95,5 z"
       inkscape:connector-curvature="0"
       style="fill:#b2c801;fill-rule:nonzero" /><polygon
       id="polygon6449"
       class="fil3"
       points="871,10549 906,10488 763,10405 812,10319 763,10291 629,10524 678,10552 727,10467 "
       style="fill:#b2c801;fill-rule:nonzero" /></g></svg>