<?xml version="1.0" encoding="UTF-8" standalone="no"?>
<!-- Creator: CorelDRAW X7 -->

<svg
   xmlns:dc="http://purl.org/dc/elements/1.1/"
   xmlns:cc="http://creativecommons.org/ns#"
   xmlns:rdf="http://www.w3.org/1999/02/22-rdf-syntax-ns#"
   xmlns:svg="http://www.w3.org/2000/svg"
   xmlns="http://www.w3.org/2000/svg"
   xmlns:sodipodi="http://sodipodi.sourceforge.net/DTD/sodipodi-0.dtd"
   xmlns:inkscape="http://www.inkscape.org/namespaces/inkscape"
   xml:space="preserve"
   width="7.8740005in"
   height="7.8740005in"
   version="1.1"
   style="clip-rule:evenodd;fill-rule:evenodd;image-rendering:optimizeQuality;shape-rendering:geometricPrecision;text-rendering:geometricPrecision"
   viewBox="0 0 7874.0005 7874.0005"
   id="svg3500"
   inkscape:version="0.91 r13725"
   sodipodi:docname="Haqqislam - Hassassin Barid - [N3] [Vyo].svg"><metadata
     id="metadata3520"><rdf:RDF><cc:Work
         rdf:about=""><dc:format>image/svg+xml</dc:format><dc:type
           rdf:resource="http://purl.org/dc/dcmitype/StillImage" /></cc:Work></rdf:RDF></metadata><sodipodi:namedview
     pagecolor="#ffffff"
     bordercolor="#666666"
     borderopacity="1"
     objecttolerance="10"
     gridtolerance="10"
     guidetolerance="10"
     inkscape:pageopacity="0"
     inkscape:pageshadow="2"
     inkscape:window-width="640"
     inkscape:window-height="480"
     id="namedview3518"
     showgrid="false"
     inkscape:zoom="0.23838384"
     inkscape:cx="736.83001"
     inkscape:cy="849.33005"
     inkscape:window-x="0"
     inkscape:window-y="0"
     inkscape:window-maximized="0"
     inkscape:current-layer="svg3500" /><defs
     id="defs3502"><style
       type="text/css"
       id="style3504"><![CDATA[
    .fil1 {fill:#B2C801}
    .fil0 {fill:#EECE00}
    .fil2 {fill:white}
   ]]></style></defs><g
     id="Layer_x0020_1"
     transform="translate(3937,-7063)"><metadata
       id="CorelCorpID_0Corel-Layer" /><circle
       class="fil0"
       cy="11000"
       r="3937"
       id="circle3508"
       cx="0"
       style="fill:#eece00" /><circle
       class="fil1"
       cy="11000"
       r="3819"
       id="circle3510"
       cx="0"
       style="fill:#b2c801" /><path
       class="fil2"
       d="m -689,10587 c -223,105 -374,508 -374,1043 0,748 591,1535 1693,1535 1260,0 2067,-1299 2067,-2263 0,-525 -181,-1085 -534,-1480 101,338 160,535 160,928 0,1290 -969,1930 -1772,1930 -830,0 -1545,-592 -1240,-1693 z"
       id="path3512"
       inkscape:connector-curvature="0"
       style="fill:#ffffff" /><path
       class="fil2"
       d="m 413,10311 c -105,-223 -508,-374 -1043,-374 -748,0 -1535,591 -1535,1693 0,1260 1299,2067 2263,2067 525,0 1085,-181 1480,-534 -338,101 -535,160 -928,160 -1290,0 -1930,-969 -1930,-1772 0,-830 592,-1545 1693,-1240 z"
       id="path3514"
       inkscape:connector-curvature="0"
       style="fill:#ffffff" /><path
       class="fil2"
       d="m 689,11413 c 223,-105 374,-508 374,-1043 0,-748 -591,-1535 -1693,-1535 -1260,0 -2067,1299 -2067,2263 0,525 181,1085 534,1480 -101,-338 -160,-535 -160,-928 0,-1290 969,-1930 1772,-1930 830,0 1545,592 1240,1693 z"
       id="path3516"
       inkscape:connector-curvature="0"
       style="fill:#ffffff" /></g></svg>