<?xml version="1.0" encoding="UTF-8" standalone="no"?>
<!-- Creator: CorelDRAW X7 -->

<svg
   xmlns:dc="http://purl.org/dc/elements/1.1/"
   xmlns:cc="http://creativecommons.org/ns#"
   xmlns:rdf="http://www.w3.org/1999/02/22-rdf-syntax-ns#"
   xmlns:svg="http://www.w3.org/2000/svg"
   xmlns="http://www.w3.org/2000/svg"
   xmlns:sodipodi="http://sodipodi.sourceforge.net/DTD/sodipodi-0.dtd"
   xmlns:inkscape="http://www.inkscape.org/namespaces/inkscape"
   xml:space="preserve"
   width="7.8740005in"
   height="7.8740005in"
   version="1.1"
   style="clip-rule:evenodd;fill-rule:evenodd;image-rendering:optimizeQuality;shape-rendering:geometricPrecision;text-rendering:geometricPrecision"
   viewBox="0 0 7874.0005 7874.0005"
   id="svg3656"
   inkscape:version="0.91 r13725"
   sodipodi:docname="Haqqislam - Khawarijs - [N3] [Vyo].svg"><metadata
     id="metadata3678"><rdf:RDF><cc:Work
         rdf:about=""><dc:format>image/svg+xml</dc:format><dc:type
           rdf:resource="http://purl.org/dc/dcmitype/StillImage" /></cc:Work></rdf:RDF></metadata><sodipodi:namedview
     pagecolor="#ffffff"
     bordercolor="#666666"
     borderopacity="1"
     objecttolerance="10"
     gridtolerance="10"
     guidetolerance="10"
     inkscape:pageopacity="0"
     inkscape:pageshadow="2"
     inkscape:window-width="640"
     inkscape:window-height="480"
     id="namedview3676"
     showgrid="false"
     inkscape:zoom="0.23838384"
     inkscape:cx="736.83001"
     inkscape:cy="849.33005"
     inkscape:window-x="0"
     inkscape:window-y="0"
     inkscape:window-maximized="0"
     inkscape:current-layer="svg3656" /><defs
     id="defs3658"><style
       type="text/css"
       id="style3660"><![CDATA[
    .fil1 {fill:#A6CC39}
    .fil0 {fill:#EECE00}
    .fil2 {fill:white}
   ]]></style></defs><g
     id="Layer_x0020_1"
     transform="translate(3937,-7063)"><metadata
       id="CorelCorpID_0Corel-Layer" /><circle
       class="fil0"
       cy="11000"
       r="3937"
       id="circle3664"
       cx="0"
       style="fill:#eece00" /><circle
       class="fil1"
       cy="11000"
       r="3819"
       id="circle3666"
       cx="0"
       style="fill:#a6cc39" /><polygon
       class="fil2"
       points="98,13283 0,13756 -98,13283 -20,11000 -98,8717 0,8244 98,8717 20,11000 "
       id="polygon3668"
       style="fill:#ffffff" /><path
       class="fil2"
       d="m 0,9524 c 859,0 1555,696 1555,1555 0,859 -696,1555 -1555,1555 -859,0 -1555,-696 -1555,-1555 0,-859 696,-1555 1555,-1555 z m 0,98 c 565,0 1024,458 1024,1024 0,565 -459,1023 -1024,1023 -565,0 -1024,-458 -1024,-1023 0,-566 459,-1024 1024,-1024 z"
       id="path3670"
       inkscape:connector-curvature="0"
       style="fill:#ffffff" /><polygon
       class="fil2"
       points="1684,12545 1949,12949 1545,12684 -14,11014 -1684,9455 -1949,9051 -1545,9316 14,10986 "
       id="polygon3672"
       style="fill:#ffffff" /><polygon
       class="fil2"
       points="-1545,12684 -1949,12949 -1684,12545 -14,10986 1545,9316 1949,9051 1684,9455 14,11014 "
       id="polygon3674"
       style="fill:#ffffff" /></g></svg>