<?xml version="1.0" encoding="UTF-8" standalone="no"?>
<!-- Creator: CorelDRAW X7 -->

<svg
   xmlns:dc="http://purl.org/dc/elements/1.1/"
   xmlns:cc="http://creativecommons.org/ns#"
   xmlns:rdf="http://www.w3.org/1999/02/22-rdf-syntax-ns#"
   xmlns:svg="http://www.w3.org/2000/svg"
   xmlns="http://www.w3.org/2000/svg"
   xmlns:sodipodi="http://sodipodi.sourceforge.net/DTD/sodipodi-0.dtd"
   xmlns:inkscape="http://www.inkscape.org/namespaces/inkscape"
   xml:space="preserve"
   width="7.8740005in"
   height="7.8740005in"
   version="1.1"
   style="clip-rule:evenodd;fill-rule:evenodd;image-rendering:optimizeQuality;shape-rendering:geometricPrecision;text-rendering:geometricPrecision"
   viewBox="0 0 7874.0005 7874.0005"
   id="svg3841"
   inkscape:version="0.91 r13725"
   sodipodi:docname="Haqqislam - Remote 2 Shihab Remotes - [N3] [Vyo].svg"><metadata
     id="metadata3873"><rdf:RDF><cc:Work
         rdf:about=""><dc:format>image/svg+xml</dc:format><dc:type
           rdf:resource="http://purl.org/dc/dcmitype/StillImage" /></cc:Work></rdf:RDF></metadata><sodipodi:namedview
     pagecolor="#ffffff"
     bordercolor="#666666"
     borderopacity="1"
     objecttolerance="10"
     gridtolerance="10"
     guidetolerance="10"
     inkscape:pageopacity="0"
     inkscape:pageshadow="2"
     inkscape:window-width="640"
     inkscape:window-height="480"
     id="namedview3871"
     showgrid="false"
     inkscape:zoom="0.23838384"
     inkscape:cx="736.83001"
     inkscape:cy="849.33005"
     inkscape:window-x="0"
     inkscape:window-y="0"
     inkscape:window-maximized="0"
     inkscape:current-layer="svg3841" /><defs
     id="defs3843"><style
       type="text/css"
       id="style3845"><![CDATA[
    .fil3 {fill:none}
    .fil0 {fill:#B2C801}
    .fil1 {fill:white}
    .fil2 {fill:#B2C801;fill-rule:nonzero}
   ]]></style></defs><g
     id="Layer_x0020_1"
     transform="translate(3937,-7063)"><metadata
       id="CorelCorpID_0Corel-Layer" /><circle
       class="fil0"
       cy="11000"
       r="3937"
       id="circle3849"
       cx="0"
       style="fill:#b2c801" /><circle
       class="fil1"
       cy="11000"
       r="3780"
       id="circle3851"
       cx="0"
       style="fill:#ffffff" /><circle
       class="fil0"
       cy="11000"
       r="2756"
       id="circle3853"
       cx="0"
       style="fill:#b2c801" /><polygon
       class="fil1"
       points="-2047,11000 0,8441 2047,11000 0,13559 "
       id="polygon3855"
       style="fill:#ffffff" /><polygon
       class="fil0"
       points="0,8567 -1946,11000 0,13433 "
       id="polygon3857"
       style="fill:#b2c801" /><polygon
       class="fil0"
       points="784,10543 903,10910 591,10683 278,10910 397,10543 85,10316 471,10316 591,9948 710,10316 1096,10316 "
       id="polygon3859"
       style="fill:#b2c801" /><polygon
       class="fil0"
       points="784,11527 903,11894 591,11667 278,11894 397,11527 85,11300 471,11300 591,10933 710,11300 1096,11300 "
       id="polygon3861"
       style="fill:#b2c801" /><path
       class="fil2"
       d="m -2500,8500 82,-73 130,146 143,-127 -130,-146 82,-73 344,388 -82,73 -151,-170 -142,126 151,170 -83,74 -344,-388 z m 671,-521 95,-53 444,346 -98,55 -91,-72 -205,114 13,115 -99,55 -59,-560 z m 115,94 19,193 135,-75 -154,-118 z m 962,-74 130,83 -125,38 -64,-41 c -34,32 -76,55 -125,70 -81,25 -157,20 -227,-15 -70,-34 -116,-87 -137,-158 -15,-48 -16,-95 -3,-142 13,-48 38,-90 75,-127 37,-37 81,-63 132,-79 77,-23 151,-18 222,15 71,34 118,87 141,160 20,67 14,133 -19,196 z m -89,-56 c 13,-36 14,-72 3,-108 -15,-47 -44,-82 -89,-104 -45,-22 -92,-25 -141,-10 -51,16 -89,45 -113,87 -24,42 -29,88 -14,137 17,55 52,92 105,111 41,14 83,15 126,2 25,-8 47,-19 66,-34 l -134,-85 125,-38 66,42 z m 788,-37 109,109 -130,10 -54,-54 c -40,23 -86,36 -136,40 -86,7 -159,-15 -219,-64 -60,-49 -94,-111 -99,-185 -4,-49 6,-96 29,-139 23,-44 57,-79 101,-107 44,-28 93,-44 146,-48 80,-6 152,15 213,64 62,48 96,111 102,187 5,70 -15,132 -62,187 z m -74,-75 c 21,-32 29,-67 27,-105 -4,-49 -25,-89 -64,-120 -39,-31 -84,-45 -136,-41 -52,4 -96,24 -129,60 -33,36 -48,79 -44,131 5,57 31,100 78,130 37,24 78,33 123,30 26,-2 49,-8 71,-18 l -112,-113 131,-10 55,56 z m 313,-359 107,8 -39,517 -108,-8 40,-517 z m 579,146 -90,51 c -22,-40 -47,-62 -76,-67 -14,-2 -26,0 -36,5 -10,5 -16,12 -17,21 -2,8 0,17 5,26 7,11 30,38 68,78 36,38 58,62 65,71 19,24 31,45 37,65 6,20 8,40 4,62 -7,42 -28,74 -65,96 -36,22 -80,29 -132,21 -40,-7 -73,-21 -100,-44 -27,-23 -48,-55 -63,-97 l 98,-35 c 20,50 48,78 83,83 19,3 35,1 49,-7 14,-7 22,-18 24,-30 2,-12 -1,-24 -8,-37 -8,-13 -26,-35 -54,-64 -54,-55 -88,-97 -102,-124 -14,-28 -19,-54 -15,-79 6,-35 26,-63 59,-84 34,-20 73,-27 117,-20 28,5 54,15 77,31 24,16 48,42 72,78 z m 226,-12 102,35 -137,402 151,52 -30,88 -253,-86 167,-491 z m 584,232 96,51 -48,561 -100,-52 11,-116 -207,-109 -90,73 -100,-53 438,-355 z m -16,148 -152,121 136,72 16,-193 z m 538,161 80,68 -135,361 337,-187 80,68 -266,456 -79,-68 167,-289 -305,170 -73,-62 122,-327 -260,208 -80,-69 412,-329 z"
       id="path3863"
       inkscape:connector-curvature="0"
       style="fill:#b2c801;fill-rule:nonzero" /><circle
       class="fil3"
       cy="11000"
       r="3898"
       id="circle3865"
       cx="0"
       style="fill:none" /><path
       class="fil2"
       d="m -2033,13242 -105,-8 c 9,-47 3,-80 -17,-101 -10,-10 -20,-16 -32,-17 -11,-1 -20,1 -27,8 -7,6 -11,15 -13,25 -2,14 -1,49 3,106 3,53 5,85 5,98 -1,30 -6,56 -14,76 -8,20 -20,39 -37,55 -33,32 -71,46 -115,44 -43,-2 -83,-21 -118,-58 -28,-29 -45,-61 -51,-95 -7,-35 -2,-75 13,-119 l 101,27 c -16,54 -13,93 11,119 13,13 28,20 44,22 16,1 29,-3 39,-12 10,-9 15,-21 18,-37 3,-15 2,-44 -1,-85 -7,-78 -6,-133 1,-164 7,-32 20,-57 40,-75 28,-27 62,-40 102,-37 40,2 76,18 106,49 19,21 33,44 41,71 8,27 10,63 6,108 z m 98,-36 81,64 -124,159 c 27,-2 51,1 72,6 21,6 40,15 57,28 32,26 50,58 55,98 4,34 -9,69 -38,107 l -169,214 -80,-63 112,-142 c 29,-38 47,-64 54,-80 7,-17 9,-31 5,-45 -3,-13 -11,-25 -24,-35 -16,-12 -35,-18 -55,-16 -21,1 -40,10 -60,25 -10,8 -28,29 -56,64 l -102,130 -81,-63 353,-451 z m 387,269 c 15,10 24,24 28,42 4,18 1,35 -9,50 -9,16 -23,26 -41,30 -18,4 -34,1 -50,-9 -15,-9 -25,-23 -29,-41 -4,-19 -1,-36 10,-52 9,-15 23,-25 41,-29 18,-3 34,-1 50,9 z m -135,115 87,56 -221,349 -88,-56 222,-349 z m 224,-44 92,47 -91,179 c 26,-6 50,-9 72,-7 22,2 43,7 61,16 37,19 61,47 73,85 10,33 5,70 -17,113 l -123,243 -91,-46 82,-162 c 21,-42 34,-72 38,-89 3,-17 2,-32 -4,-45 -6,-12 -16,-22 -30,-29 -19,-10 -38,-11 -58,-6 -19,6 -37,18 -53,37 -9,9 -23,34 -43,73 l -75,148 -92,-47 259,-510 z m 607,430 98,35 -137,389 -98,-34 15,-42 c -26,12 -50,18 -72,19 -22,1 -44,-2 -66,-10 -51,-18 -87,-52 -111,-104 -23,-52 -24,-107 -4,-165 21,-60 57,-103 106,-129 49,-25 99,-29 150,-11 23,8 43,20 61,36 17,16 32,36 43,59 l 15,-43 z m -131,44 c -30,-11 -59,-9 -87,6 -27,14 -47,38 -59,71 -11,34 -11,65 2,94 13,29 34,48 64,59 30,11 60,9 87,-5 28,-14 48,-39 60,-73 12,-34 12,-65 -1,-93 -13,-28 -35,-48 -66,-59 z m 416,-145 -35,203 c 22,-16 44,-26 67,-31 23,-6 47,-6 71,-2 53,9 95,37 125,83 31,47 40,101 29,164 -10,60 -38,108 -83,142 -46,34 -95,46 -147,37 -24,-4 -45,-12 -64,-24 -18,-11 -36,-28 -53,-51 l -7,44 -102,-18 97,-564 102,17 z m 66,260 c -32,-6 -61,0 -86,19 -25,18 -40,45 -46,80 -7,36 -1,67 16,93 18,26 42,42 74,48 32,5 60,-2 85,-21 25,-19 41,-46 47,-81 6,-35 0,-65 -17,-91 -17,-26 -41,-42 -73,-47 z m 512,-191 113,-3 c 61,-1 106,4 132,14 27,11 48,29 64,54 17,25 25,55 26,90 1,37 -7,68 -24,93 -18,25 -44,44 -79,57 l 137,246 -116,2 -130,-234 -11,1 5,236 -106,2 -11,-558 z m 110,216 34,-1 c 34,0 57,-5 70,-14 13,-9 19,-24 18,-45 0,-12 -3,-23 -10,-32 -6,-9 -15,-15 -26,-19 -11,-4 -30,-5 -59,-5 l -29,1 2,115 z m 731,67 -328,57 c 10,28 27,49 50,63 23,13 51,17 83,12 38,-7 68,-26 91,-57 l 92,26 c -16,34 -37,61 -65,80 -27,20 -61,34 -102,41 -64,11 -119,-1 -166,-34 -47,-33 -76,-80 -86,-140 -11,-62 0,-117 33,-165 33,-48 80,-77 140,-87 64,-11 120,0 167,34 47,34 76,84 88,151 l 3,19 z m -115,-62 c -11,-21 -27,-37 -50,-47 -22,-11 -46,-14 -72,-9 -29,5 -52,17 -71,36 -12,12 -22,32 -29,59 l 222,-39 z m 97,-170 97,-38 17,44 c 10,-24 23,-45 39,-62 17,-17 37,-30 61,-40 24,-9 48,-12 72,-8 24,4 47,15 67,33 7,-29 19,-53 36,-74 18,-21 40,-36 66,-47 28,-11 54,-14 80,-9 26,4 47,15 64,31 18,17 35,49 54,95 l 89,224 -96,39 -77,-194 c -17,-44 -34,-71 -52,-82 -17,-11 -36,-12 -58,-3 -17,6 -30,17 -39,32 -10,14 -14,31 -14,50 0,19 7,47 22,84 l 68,172 -96,38 -73,-185 c -14,-34 -26,-58 -38,-71 -11,-13 -23,-22 -36,-25 -13,-4 -27,-2 -42,3 -16,7 -29,17 -38,32 -10,15 -14,32 -14,52 0,19 8,48 23,84 l 67,170 -96,39 -153,-384 z m 781,-372 c 33,-21 69,-33 108,-35 40,-3 77,5 111,23 34,17 62,42 83,75 21,32 32,68 34,107 2,39 -5,76 -23,110 -18,34 -44,62 -78,84 -50,32 -104,42 -161,29 -59,-12 -104,-44 -137,-94 -34,-54 -44,-112 -27,-174 15,-54 45,-96 90,-125 z m 54,81 c -27,17 -44,41 -49,72 -6,30 0,60 19,89 20,30 44,49 74,56 30,7 58,2 86,-16 27,-17 43,-41 49,-72 6,-30 0,-61 -19,-90 -20,-30 -44,-48 -74,-55 -30,-7 -58,-2 -86,16 z m 107,-364 82,-64 93,121 49,-38 54,71 -48,38 198,255 -82,64 -198,-256 -42,32 -54,-70 41,-33 -93,-120 z m 712,-118 -240,230 c 24,18 50,26 77,24 27,-1 52,-14 75,-36 28,-27 42,-59 43,-98 l 91,-31 c 6,38 3,72 -8,104 -12,31 -33,62 -63,90 -46,45 -98,67 -156,66 -57,-2 -107,-24 -150,-69 -43,-45 -65,-97 -64,-155 0,-58 22,-108 67,-150 46,-45 99,-67 157,-66 58,2 111,27 158,77 l 13,14 z m -130,13 c -21,-12 -43,-15 -68,-12 -24,4 -46,15 -65,34 -21,20 -34,43 -38,70 -3,16 0,38 9,64 l 162,-156 z"
       id="path3867"
       inkscape:connector-curvature="0"
       style="fill:#b2c801;fill-rule:nonzero" /><circle
       class="fil3"
       cy="11000"
       r="3898"
       id="circle3869"
       cx="0"
       style="fill:none" /></g></svg>