<?xml version="1.0" encoding="UTF-8" standalone="no"?>
<!-- Creator: CorelDRAW X7 -->

<svg
   xmlns:dc="http://purl.org/dc/elements/1.1/"
   xmlns:cc="http://creativecommons.org/ns#"
   xmlns:rdf="http://www.w3.org/1999/02/22-rdf-syntax-ns#"
   xmlns:svg="http://www.w3.org/2000/svg"
   xmlns="http://www.w3.org/2000/svg"
   xmlns:sodipodi="http://sodipodi.sourceforge.net/DTD/sodipodi-0.dtd"
   xmlns:inkscape="http://www.inkscape.org/namespaces/inkscape"
   xml:space="preserve"
   width="7.8740005in"
   height="7.8740005in"
   version="1.1"
   style="clip-rule:evenodd;fill-rule:evenodd;image-rendering:optimizeQuality;shape-rendering:geometricPrecision;text-rendering:geometricPrecision"
   viewBox="0 0 7874.0005 7874.0005"
   id="svg4152"
   inkscape:version="0.91 r13725"
   sodipodi:docname="haqqislam_daylami_infantry.svg"><metadata
     id="metadata4178"><rdf:RDF><cc:Work
         rdf:about=""><dc:format>image/svg+xml</dc:format><dc:type
           rdf:resource="http://purl.org/dc/dcmitype/StillImage" /></cc:Work></rdf:RDF></metadata><sodipodi:namedview
     pagecolor="#ffffff"
     bordercolor="#666666"
     borderopacity="1"
     objecttolerance="10"
     gridtolerance="10"
     guidetolerance="10"
     inkscape:pageopacity="0"
     inkscape:pageshadow="2"
     inkscape:window-width="640"
     inkscape:window-height="480"
     id="namedview4176"
     showgrid="false"
     inkscape:zoom="0.23838384"
     inkscape:cx="736.83001"
     inkscape:cy="849.33005"
     inkscape:window-x="0"
     inkscape:window-y="0"
     inkscape:window-maximized="0"
     inkscape:current-layer="svg4152" /><defs
     id="defs4154"><style
       type="text/css"
       id="style4156"><![CDATA[
    .fil2 {fill:#B2C801}
    .fil0 {fill:#EECE00}
    .fil1 {fill:white}
    .fil4 {fill:white}
    .fil5 {fill:#B2C801;fill-rule:nonzero}
    .fil3 {fill:white;fill-rule:nonzero}
   ]]></style></defs><g
     id="Layer_x0020_1"
     transform="translate(3937,-7063)"><metadata
       id="CorelCorpID_0Corel-Layer" /><circle
       class="fil0"
       cy="11000"
       r="3937"
       id="circle4160"
       cx="0"
       style="fill:#eece00" /><polygon
       class="fil1"
       points="0,9248 -39,9878 -79,9976 -315,10232 -315,11039 138,11059 591,11039 591,10232 354,9976 315,9878 276,9248 306,8894 138,8894 -31,8894 "
       id="polygon4162"
       style="fill:#ffffff" /><circle
       class="fil2"
       cy="11000"
       r="3819"
       id="circle4164"
       cx="0"
       style="fill:#b2c801" /><path
       class="fil3"
       d="m -2250,13659 -37,-35 c -34,-32 -66,-57 -97,-75 -40,-22 -67,-26 -81,-11 -13,13 -24,30 -34,49 -10,20 -20,40 -30,60 -10,20 -21,37 -33,50 -8,8 -15,14 -22,19 -7,6 -17,12 -30,19 11,-22 22,-43 33,-65 21,-41 37,-72 48,-93 17,-33 29,-52 34,-58 24,-26 49,-40 73,-44 24,-3 50,2 79,17 23,12 54,33 94,63 0,-25 -1,-40 -2,-46 -2,-18 -9,-32 -20,-42 -6,-6 -15,-10 -25,-12 -8,-1 -19,-1 -34,0 l -5,-22 c 21,-9 39,-15 56,-17 27,-3 49,4 67,21 12,12 20,28 24,50 3,17 3,38 1,62 -1,12 -4,31 -9,57 l -50,53 z m 158,120 -46,-36 c -16,-12 -23,-28 -22,-47 0,-17 6,-37 19,-62 12,-24 30,-52 52,-84 18,-26 37,-52 56,-80 19,-27 33,-48 41,-64 9,-15 14,-29 17,-40 4,-15 4,-29 2,-44 l 91,-32 c -12,33 -31,70 -56,109 -16,25 -57,81 -122,168 -27,42 -41,71 -42,88 -1,15 2,25 9,30 l 46,37 -45,57 z m 530,-114 -60,34 -38,-66 59,-35 39,67 z m -114,391 -447,-285 39,-62 55,35 c 16,10 32,18 49,22 19,5 43,8 72,9 10,-8 21,-17 31,-27 10,-10 19,-21 26,-32 16,-25 32,-55 46,-88 11,-25 22,-54 34,-89 7,-18 14,-40 22,-66 l -15,-25 c 11,-13 22,-25 34,-37 12,-11 24,-21 38,-29 -4,13 -1,27 9,42 8,12 20,24 36,37 -18,23 -30,37 -35,43 -6,6 -13,12 -23,20 -1,-1 -5,-5 -11,-12 l -3,-4 c -9,33 -20,66 -34,98 -13,33 -26,59 -38,79 -11,17 -25,35 -41,53 -6,6 -16,16 -29,30 57,2 93,4 108,6 45,6 81,17 105,33 32,20 50,45 54,73 4,27 -5,55 -25,87 l -57,89 z m 1,-124 c 8,-12 7,-25 -1,-40 -9,-14 -24,-28 -48,-43 -17,-11 -39,-20 -66,-27 -23,-5 -48,-9 -75,-12 -21,-1 -42,-3 -65,-3 l 154,99 c 56,35 89,44 101,26 z m 385,-240 -56,39 -44,-63 55,-40 45,64 z m -125,491 -167,-85 c -14,-7 -25,-18 -32,-32 -7,-14 -8,-27 -2,-38 5,-9 10,-18 15,-25 5,-7 11,-15 18,-22 l 8,3 c -3,12 -1,22 4,30 4,7 11,13 22,18 l 145,74 c 22,-44 35,-83 36,-117 2,-42 -13,-78 -43,-108 l 43,-70 c 32,44 45,93 40,149 -5,45 -23,98 -53,158 l -34,65 z m 484,44 c -13,38 -29,64 -48,78 -29,23 -68,26 -118,9 -19,-7 -34,-16 -44,-29 -11,-13 -15,-28 -9,-45 6,-18 19,-38 36,-59 16,-18 32,-36 48,-54 l -6,-3 48,-59 c 39,41 62,67 69,77 24,33 32,62 24,85 z m -45,19 c 3,-10 -7,-28 -30,-55 -10,-11 -21,-23 -33,-35 -16,9 -26,15 -30,17 -11,8 -18,16 -21,26 -5,13 -4,25 0,35 5,10 14,18 27,22 15,5 32,7 53,4 20,-2 31,-7 34,-14 z m 303,169 -183,-42 c -15,-4 -28,-11 -39,-23 -10,-12 -14,-24 -11,-37 3,-10 5,-19 8,-27 3,-9 8,-17 13,-27 l 8,2 c 1,12 4,21 11,28 6,5 14,10 26,12 l 159,37 c 11,-49 13,-90 6,-123 -8,-41 -31,-72 -68,-94 l 25,-78 c 42,34 67,79 75,134 6,45 2,100 -13,167 l -17,71 z m 202,34 -59,-11 c -19,-3 -32,-13 -41,-30 -8,-15 -12,-36 -12,-64 -1,-27 1,-60 5,-99 3,-31 7,-63 11,-96 4,-33 6,-59 6,-76 0,-18 -1,-32 -4,-44 -4,-14 -10,-27 -19,-39 l 64,-72 c 6,35 6,76 3,123 -2,29 -11,98 -27,205 -4,50 -2,83 5,98 5,13 13,21 22,22 l 58,10 -12,73 z m 214,25 -237,-31 9,-73 208,27 c 4,-32 3,-58 -2,-76 -4,-13 -15,-31 -33,-57 l 42,-64 c 16,28 26,49 29,64 5,23 4,59 -2,108 l -14,102 z m -13,83 -40,56 -62,-45 38,-56 64,45 z m -100,25 -39,56 -63,-44 39,-56 63,44 z m 314,-5 -33,60 -68,-36 33,-61 68,37 z m -17,113 -32,61 -68,-38 34,-60 66,37 z m -80,-76 -32,59 -68,-37 33,-60 67,38 z m 106,-137 -240,-5 2,-73 209,4 c 1,-33 -3,-58 -10,-75 -5,-12 -18,-30 -39,-53 l 35,-68 c 19,26 31,46 36,60 7,22 10,58 9,108 l -2,102 z m 734,-274 c 1,9 2,18 1,28 0,9 0,16 0,20 -12,-12 -25,-20 -39,-25 -15,-6 -29,-8 -43,-6 -24,3 -48,21 -70,52 -22,29 -31,52 -29,67 1,5 4,9 10,11 7,2 17,2 32,0 l 33,-4 c 20,-3 35,-5 45,-6 10,0 21,-1 35,0 14,0 22,10 24,28 9,69 -15,126 -71,170 -51,41 -125,67 -220,79 -49,7 -88,2 -117,-14 -31,-17 -49,-46 -55,-88 -4,-29 -3,-60 3,-93 4,-25 10,-51 20,-79 0,-2 7,-20 20,-53 l 18,4 c -13,34 -23,64 -29,93 -5,28 -7,52 -4,73 4,34 19,58 45,72 25,14 60,18 104,12 33,-4 71,-16 113,-35 36,-16 68,-34 97,-54 28,-19 41,-33 40,-40 0,-5 -2,-9 -6,-10 -4,-1 -10,-1 -17,0 l -98,13 c -12,1 -23,-2 -34,-9 -10,-8 -16,-18 -18,-32 -2,-18 2,-45 13,-79 12,-37 29,-68 50,-95 24,-32 51,-50 80,-53 18,-3 33,1 45,11 13,10 20,24 22,42 z m -105,434 -24,64 -72,-27 23,-64 73,27 z m -90,49 -24,65 -72,-26 23,-65 73,26 z m 649,-394 c 9,29 5,64 -11,103 -14,34 -35,66 -62,96 -26,28 -49,45 -69,51 -19,5 -39,8 -63,9 -17,1 -39,0 -64,-2 -22,-2 -43,-4 -64,-5 l 2,-19 c 19,-1 38,-3 59,-5 20,-1 38,-4 54,-9 34,-10 67,-31 98,-64 29,-30 50,-64 66,-102 15,-37 19,-68 12,-93 -6,-22 -19,-42 -38,-62 -15,-16 -35,-32 -59,-46 l 5,-71 c 28,15 50,30 66,48 19,20 32,44 40,72 l 28,99 z m 184,-75 -55,22 c -18,7 -35,6 -51,-4 -15,-9 -29,-25 -44,-48 -14,-22 -30,-51 -47,-87 -14,-28 -27,-58 -41,-88 -14,-31 -26,-53 -35,-68 -9,-15 -18,-27 -26,-35 -11,-10 -23,-18 -37,-23 l 17,-95 c 23,27 45,61 67,103 13,26 41,89 84,189 23,45 42,72 56,81 11,8 22,11 30,7 l 55,-22 27,68 z m 197,-87 -218,99 -30,-67 191,-86 c -14,-30 -28,-52 -42,-64 -10,-9 -29,-19 -58,-31 l 2,-77 c 29,16 48,28 59,39 15,17 33,48 54,94 l 42,93 z m 2,111 -4,69 -76,-4 3,-69 77,4 z m 659,-526 -153,109 c -13,10 -28,14 -44,14 -15,0 -27,-5 -34,-16 -6,-8 -11,-16 -15,-24 -5,-8 -8,-17 -12,-27 l 7,-5 c 9,7 19,11 28,10 8,0 17,-4 26,-11 l 133,-94 c -29,-41 -58,-70 -87,-87 -37,-20 -75,-24 -116,-11 l -42,-70 c 54,-9 104,2 151,33 37,24 76,65 115,120 l 43,59 z m -327,-368 10,68 -77,11 -9,-69 76,-10 z m -56,87 10,67 -77,11 -9,-69 76,-9 z"
       id="path4166"
       inkscape:connector-curvature="0"
       style="fill:#ffffff;fill-rule:nonzero" /><path
       class="fil1"
       d="m 0,8126 c 1210,0 2245,747 2669,1806 l -1069,1068 1069,1068 c -424,1059 -1459,1806 -2669,1806 -1210,0 -2245,-747 -2669,-1806 L -1600,11000 -2669,9932 C -2245,8873 -1210,8126 0,8126 Z"
       id="path4168"
       inkscape:connector-curvature="0"
       style="fill:#ffffff" /><polygon
       class="fil4"
       points="-1555,12319 -1496,12417 -1294,12555 -1240,12555 -1240,12083 -1378,12083 -1516,12181 "
       id="polygon4170"
       style="fill:#ffffff" /><path
       class="fil2"
       d="m -276,11906 c 0,157 -315,172 -630,177 -170,2 -295,-20 -433,-20 -98,0 -236,118 -236,256 0,197 748,512 1240,512 237,0 886,-99 886,-729 l 0,-846 c 0,-59 59,-20 59,-99 l 0,-905 c 0,-118 -275,-197 -275,-413 l 0,-473 c 0,-157 236,-59 236,-197 0,-91 -236,-354 -295,-354 -79,0 -79,-98 -138,-98 -59,0 -59,98 -138,98 -59,0 -295,263 -295,354 0,138 236,40 236,197 l 0,473 c 0,216 -276,295 -276,413 l 0,905 c 0,79 59,40 59,99 l 0,650 z m -1139,221 116,0 0,-24 c -13,0 -26,-1 -40,-1 -25,0 -53,12 -76,25 z m 116,35 -161,0 c -12,10 -22,22 -31,34 l 192,0 0,-34 z m 0,69 -214,0 c 0,1 -1,2 -2,4 -5,9 -9,20 -12,30 l 228,0 0,-34 z m 0,69 -235,0 c -1,6 -1,12 -1,19 0,5 0,10 2,15 l 234,0 0,-34 z m 0,69 -215,0 c 10,13 21,24 29,33 l 2,1 184,0 0,-34 z m 0,69 -145,0 c 15,12 32,23 48,34 l 97,0 0,-34 z m 0,68 -42,0 c 5,3 10,6 15,9 9,5 18,10 27,15 l 0,-24 z M -20,9839 c 0,66 -22,125 -61,178 -5,7 -10,13 -15,19 -42,50 -91,89 -139,132 -20,18 -60,54 -60,84 l 0,728 433,20 433,-20 0,-728 c 0,-30 -41,-66 -61,-84 -47,-43 -97,-82 -138,-132 -48,-58 -77,-122 -77,-197 0,-40 -59,-59 -157,-59 -99,0 -158,19 -158,59 z m 158,-906 c 65,0 118,53 118,118 0,65 -53,118 -118,118 -65,0 -118,-53 -118,-118 0,-65 53,-118 118,-118 z"
       id="path4172"
       inkscape:connector-curvature="0"
       style="fill:#b2c801" /><path
       class="fil5"
       d="m -313,10528 c 167,19 309,29 451,29 142,0 284,-10 450,-29 l 5,39 c -168,20 -312,29 -455,29 -144,0 -287,-9 -455,-29 l 4,-39 z M 93,9957 c 10,0 19,9 19,19 0,11 -9,20 -19,20 -11,0 -20,-9 -20,-20 0,-10 9,-19 20,-19 z m 82,-87 c 11,0 20,9 20,20 0,11 -9,19 -20,19 -11,0 -19,-8 -19,-19 0,-11 8,-20 19,-20 z m -75,0 c 11,0 20,9 20,20 0,11 -9,19 -20,19 -10,0 -19,-8 -19,-19 0,-11 9,-20 19,-20 z m 83,87 c 11,0 20,9 20,19 0,11 -9,20 -20,20 -11,0 -20,-9 -20,-20 0,-10 9,-19 20,-19 z m 408,275 -119,-118 -118,-138 c 0,50 -42,86 -78,96 21,21 38,47 48,77 23,-17 51,-27 82,-27 76,0 137,62 137,138 0,29 -9,55 -24,78 27,10 45,31 72,71 l 0,-177 z m -906,0 118,-118 118,-138 c 0,50 42,86 79,96 -22,21 -38,47 -48,77 -23,-17 -51,-27 -82,-27 -76,0 -138,62 -138,138 0,29 9,55 24,78 -27,10 -44,31 -71,71 l 0,-177 z m 612,113 c -9,10 -14,23 -14,37 0,33 27,59 60,59 27,0 50,-18 56,-43 -41,-2 -78,-23 -102,-53 z m 148,47 c 1,21 18,37 39,37 22,0 40,-17 40,-39 0,-15 -8,-27 -20,-34 -16,17 -36,29 -59,36 z m -466,-47 c 8,10 13,23 13,37 0,33 -26,59 -59,59 -27,0 -50,-18 -57,-43 42,-2 79,-23 103,-53 z m -148,47 c -1,21 -19,37 -40,37 -21,0 -39,-17 -39,-39 0,-15 8,-27 19,-34 16,17 37,29 60,36 z m 385,1 c -4,40 -37,72 -78,72 -41,0 -75,-32 -79,-72 24,11 51,16 79,16 28,0 54,-5 78,-16 z m 207,56 c 17,0 30,13 30,29 0,17 -13,30 -30,30 -16,0 -29,-13 -29,-30 0,-16 13,-29 29,-29 z m -571,0 c 17,0 30,13 30,29 0,17 -13,30 -30,30 -16,0 -29,-13 -29,-30 0,-16 13,-29 29,-29 z m 414,12 c 16,0 29,13 29,29 0,16 -13,30 -29,30 -17,0 -30,-14 -30,-30 0,-16 13,-29 30,-29 z m -256,0 c 16,0 29,13 29,29 0,16 -13,30 -29,30 -16,0 -30,-14 -30,-30 0,-16 14,-29 30,-29 z m 325,271 c -22,0 -40,18 -40,40 0,21 18,39 40,39 21,0 39,-18 39,-39 0,-22 -18,-40 -39,-40 z m 153,-12 c -22,0 -39,18 -39,40 0,22 17,39 39,39 22,0 40,-17 40,-39 0,-22 -18,-40 -40,-40 z m -547,12 c 22,0 39,18 39,40 0,21 -17,39 -39,39 -22,0 -39,-18 -39,-39 0,-22 17,-40 39,-40 z m -154,-12 c 22,0 40,18 40,40 0,22 -18,39 -40,39 -21,0 -39,-17 -39,-39 0,-22 18,-40 39,-40 z m 351,20 c 22,0 39,18 39,40 0,21 -17,39 -39,39 -22,0 -40,-18 -40,-39 0,-22 18,-40 40,-40 z m -451,217 c 167,19 309,29 451,29 142,0 284,-10 450,-29 l 5,39 c -168,20 -312,30 -455,30 -144,0 -287,-10 -455,-30 l 4,-39 z m 0,-118 c 167,19 309,29 451,29 142,0 284,-10 450,-29 l 5,39 c -168,20 -312,29 -455,29 -144,0 -287,-9 -455,-29 l 4,-39 z m 0,-213 c 167,20 309,30 451,30 142,0 284,-10 450,-30 l 5,39 c -168,20 -312,30 -455,30 -144,0 -287,-10 -455,-30 l 4,-39 z"
       id="path4174"
       inkscape:connector-curvature="0"
       style="fill:#b2c801;fill-rule:nonzero" /></g></svg>