<?xml version="1.0" encoding="UTF-8" standalone="no"?>
<!-- Creator: CorelDRAW X7 -->

<svg
   xmlns:dc="http://purl.org/dc/elements/1.1/"
   xmlns:cc="http://creativecommons.org/ns#"
   xmlns:rdf="http://www.w3.org/1999/02/22-rdf-syntax-ns#"
   xmlns:svg="http://www.w3.org/2000/svg"
   xmlns="http://www.w3.org/2000/svg"
   xmlns:sodipodi="http://sodipodi.sourceforge.net/DTD/sodipodi-0.dtd"
   xmlns:inkscape="http://www.inkscape.org/namespaces/inkscape"
   xml:space="preserve"
   width="7.8740005in"
   height="7.8740005in"
   version="1.1"
   style="clip-rule:evenodd;fill-rule:evenodd;image-rendering:optimizeQuality;shape-rendering:geometricPrecision;text-rendering:geometricPrecision"
   viewBox="0 0 7874.0005 7874.0005"
   id="svg26269"
   inkscape:version="0.91 r13725"
   sodipodi:docname="image_8025.svg"><metadata
     id="metadata26289"><rdf:RDF><cc:Work
         rdf:about=""><dc:format>image/svg+xml</dc:format><dc:type
           rdf:resource="http://purl.org/dc/dcmitype/StillImage" /></cc:Work></rdf:RDF></metadata><sodipodi:namedview
     pagecolor="#ffffff"
     bordercolor="#666666"
     borderopacity="1"
     objecttolerance="10"
     gridtolerance="10"
     guidetolerance="10"
     inkscape:pageopacity="0"
     inkscape:pageshadow="2"
     inkscape:window-width="640"
     inkscape:window-height="480"
     id="namedview26287"
     showgrid="false"
     inkscape:zoom="0.23838384"
     inkscape:cx="736.83001"
     inkscape:cy="849.33005"
     inkscape:window-x="0"
     inkscape:window-y="0"
     inkscape:window-maximized="0"
     inkscape:current-layer="svg26269" /><defs
     id="defs26271"><style
       type="text/css"
       id="style26273"><![CDATA[
    .fil3 {fill:#003A3D}
    .fil0 {fill:#003A3D}
    .fil1 {fill:#13605E}
    .fil2 {fill:#D3D7BD}
    .fil4 {fill:white}
   ]]></style></defs><g
     id="Layer_x0020_1"
     transform="translate(3937,-7063)"><metadata
       id="CorelCorpID_0Corel-Layer" /><circle
       class="fil0"
       cy="11000"
       r="3898"
       id="circle26277"
       cx="0"
       style="fill:#003a3d" /><path
       class="fil1"
       d="m -354,9858 708,0 -77,-637 c 870,134 1536,885 1536,1792 0,228 -42,446 -119,647 l -528,-396 -354,614 610,260 c -332,420 -846,689 -1422,689 -576,0 -1090,-269 -1422,-689 l 610,-260 -354,-614 -528,396 c -77,-201 -119,-419 -119,-647 0,-907 666,-1658 1536,-1792 l -77,637 z m 2301,2504 871,372 c 47,20 119,30 148,-21 30,-52 -15,-109 -55,-140 l -759,-569 c 139,-302 217,-637 217,-991 0,-273 -47,-536 -132,-780 -28,-84 10,-221 44,-302 l 131,-310 -334,-42 c -88,-11 -227,-47 -285,-114 l -25,-28 1,1 C 1378,9000 828,8708 209,8654 L 93,7693 c -6,-51 -34,-118 -93,-118 -59,0 -87,67 -93,118 l -116,961 c -619,54 -1169,346 -1560,784 l 1,-1 -25,28 c -58,67 -197,103 -285,114 l -334,42 131,310 c 34,81 72,218 44,302 -85,244 -132,507 -132,780 0,354 78,689 217,991 l -759,569 c -40,31 -85,88 -55,140 29,51 101,41 148,21 l 871,-372 c 340,491 861,846 1466,971 l 0,0 2,0 c 2,1 4,1 7,2 l 28,5 c 87,17 187,119 240,190 l 204,268 204,-268 c 53,-71 153,-173 240,-190 l 28,-5 7,-2 2,0 0,0 c 605,-125 1126,-480 1466,-971 z"
       id="path26279"
       inkscape:connector-curvature="0"
       style="fill:#13605e" /><path
       class="fil2"
       d="m 0,7063 c 2174,0 3937,1763 3937,3937 0,2174 -1763,3937 -3937,3937 -2174,0 -3937,-1763 -3937,-3937 0,-2174 1763,-3937 3937,-3937 z m 508,7497 c 1056,-149 2035,-765 2610,-1760 574,-995 618,-2151 219,-3140 -133,-331 -579,-90 -613,-67 -661,396 -1057,817 -1108,871 -51,55 -138,236 -136,311 l 16,570 c 8,302 311,278 474,339 213,80 389,635 403,686 -52,13 -620,139 -796,-6 -134,-111 -265,-385 -530,-241 l -502,271 c -66,36 -179,201 -201,273 -22,72 -188,625 -201,1395 -3,42 11,548 365,498 z M -3337,9660 c -399,989 -355,2145 219,3140 575,995 1554,1611 2610,1760 354,50 368,-456 365,-498 -13,-770 -179,-1323 -201,-1395 -22,-72 -135,-237 -201,-273 l -502,-271 c -265,-144 -396,130 -530,241 -176,145 -744,19 -796,6 14,-51 190,-606 403,-686 163,-61 466,-37 474,-339 l 16,-570 c 2,-75 -85,-256 -136,-311 -51,-54 -447,-475 -1108,-871 -34,-23 -480,-264 -613,67 z M 2829,8780 C 2172,7940 1149,7400 0,7400 c -1149,0 -2172,540 -2829,1380 -220,281 211,547 248,565 674,374 1236,507 1309,524 73,17 273,1 337,-38 l 486,-299 c 257,-158 85,-408 56,-580 -37,-224 356,-654 393,-692 37,38 430,468 393,692 -29,172 -201,422 56,580 l 486,299 c 64,39 264,55 337,38 73,-17 635,-150 1309,-524 37,-18 468,-284 248,-565 z"
       id="path26281"
       inkscape:connector-curvature="0"
       style="fill:#d3d7bd" /><path
       class="fil3"
       d="m -578,11295 342,340 -251,251 -236,-236 -714,0 c -98,0 -177,-80 -177,-178 l 0,-1311 354,0 0,524 650,0 0,354 -650,0 0,256 682,0 z m 1119,-10 c 107,0 198,-71 227,-168 l 0,237 -532,0 c -266,0 -354,89 -354,355 l 0,177 354,0 0,-133 c 0,-22 22,-44 45,-44 l 487,0 0,177 354,0 0,-1772 -354,0 0,355 -532,0 c -266,0 -354,88 -354,354 l 0,177 354,0 0,-133 c 0,-22 22,-44 45,-44 l 193,0 c -98,29 -169,119 -169,226 0,131 106,236 236,236 z m 227,-303 c -23,-76 -83,-136 -159,-159 l 159,0 0,159 z m 413,-868 354,0 0,1772 -354,0 0,-1772 z"
       id="path26283"
       inkscape:connector-curvature="0"
       style="fill:#003a3d" /><path
       class="fil4"
       d="m -603,11354 -716,0 0,-374 650,0 0,-236 -650,0 0,-524 -236,0 0,1252 c 0,66 53,119 118,119 l 738,0 212,211 167,-167 -283,-281 z m 1144,-482 c 98,0 178,79 178,177 0,98 -80,177 -178,177 -98,0 -177,-79 -177,-177 0,-98 79,-177 177,-177 z m 699,-699 0,1654 236,0 0,-1654 -236,0 z m -413,0 0,355 -591,0 c -232,0 -295,63 -295,295 l 0,118 236,0 0,-74 c 0,-55 49,-103 104,-103 l 546,0 0,649 -591,0 c -232,0 -295,63 -295,296 l 0,118 236,0 0,-74 c 0,-55 49,-103 104,-103 l 546,0 0,177 236,0 0,-1654 -236,0 z"
       id="path26285"
       inkscape:connector-curvature="0"
       style="fill:#ffffff" /></g></svg>