<?xml version="1.0" encoding="UTF-8" standalone="no"?>
<!-- Creator: CorelDRAW X7 -->

<svg
   xmlns:dc="http://purl.org/dc/elements/1.1/"
   xmlns:cc="http://creativecommons.org/ns#"
   xmlns:rdf="http://www.w3.org/1999/02/22-rdf-syntax-ns#"
   xmlns:svg="http://www.w3.org/2000/svg"
   xmlns="http://www.w3.org/2000/svg"
   xmlns:sodipodi="http://sodipodi.sourceforge.net/DTD/sodipodi-0.dtd"
   xmlns:inkscape="http://www.inkscape.org/namespaces/inkscape"
   xml:space="preserve"
   width="7.8740005in"
   height="7.8740005in"
   version="1.1"
   style="clip-rule:evenodd;fill-rule:evenodd;image-rendering:optimizeQuality;shape-rendering:geometricPrecision;text-rendering:geometricPrecision"
   viewBox="0 0 7874.0005 7874.0005"
   id="svg4268"
   inkscape:version="0.91 r13725"
   sodipodi:docname="PanOceania - Knights of Santiago - [A6] [Vyo].svg"><metadata
     id="metadata4310"><rdf:RDF><cc:Work
         rdf:about=""><dc:format>image/svg+xml</dc:format><dc:type
           rdf:resource="http://purl.org/dc/dcmitype/StillImage" /></cc:Work></rdf:RDF></metadata><sodipodi:namedview
     pagecolor="#ffffff"
     bordercolor="#666666"
     borderopacity="1"
     objecttolerance="10"
     gridtolerance="10"
     guidetolerance="10"
     inkscape:pageopacity="0"
     inkscape:pageshadow="2"
     inkscape:window-width="640"
     inkscape:window-height="480"
     id="namedview4308"
     showgrid="false"
     inkscape:zoom="0.23838384"
     inkscape:cx="736.83001"
     inkscape:cy="849.33005"
     inkscape:window-x="0"
     inkscape:window-y="0"
     inkscape:window-maximized="0"
     inkscape:current-layer="svg4268" /><defs
     id="defs4270"><style
       type="text/css"
       id="style4272"><![CDATA[
    .fil4 {fill:none}
    .fil0 {fill:black}
    .fil1 {fill:#E2001A}
    .fil2 {fill:#E2001A;fill-rule:nonzero}
    .fil3 {fill:white;fill-rule:nonzero}
   ]]></style></defs><g
     id="Layer_x0020_1"
     transform="translate(3937,-7063)"><metadata
       id="CorelCorpID_0Corel-Layer" /><circle
       class="fil0"
       cy="11000"
       r="3937"
       id="circle4276"
       cx="0"
       style="fill:#000000" /><circle
       class="fil1"
       cy="11000"
       r="3858"
       id="circle4278"
       cx="0"
       style="fill:#e2001a" /><circle
       class="fil0"
       cy="11000"
       r="3780"
       id="circle4280"
       cx="0"
       style="fill:#000000" /><path
       class="fil2"
       d="m -1598,9031 1202,0 c -2,15 -3,29 -3,43 0,44 9,90 30,129 l -1229,0 c -54,0 -104,22 -141,58 -36,37 -58,87 -58,141 l 0,3196 c 0,54 22,104 58,141 37,36 87,58 141,58 l 1480,0 16,172 -1496,0 c -102,0 -194,-42 -262,-109 -67,-68 -109,-160 -109,-262 l 0,-3196 c 0,-102 42,-194 109,-262 68,-67 160,-109 262,-109 z m 443,1127 c 142,-42 256,-114 299,-214 43,-99 90,-214 186,-214 95,0 185,58 214,115 -229,0 -172,228 -58,228 l 428,0 0,-899 c 0,-43 -9,-63 -36,-91 -12,-11 -30,-11 -41,0 -11,11 -11,29 0,40 17,17 20,26 20,51 0,29 -42,71 -71,71 -71,0 -128,-71 -128,-171 0,-185 256,-299 342,-527 86,228 342,342 342,527 0,100 -57,171 -128,171 -29,0 -71,-42 -71,-71 0,-25 3,-34 20,-51 11,-11 11,-29 0,-40 -11,-11 -29,-11 -41,0 -27,28 -36,48 -36,91 l 0,899 428,0 c 114,0 171,-228 -58,-228 29,-57 119,-115 214,-115 96,0 143,115 186,214 43,100 157,172 299,214 -142,43 -256,115 -299,214 -43,100 -90,214 -186,214 -95,0 -185,-57 -214,-114 229,0 172,-228 58,-228 l -428,0 0,114 c 0,100 85,186 185,186 L 0,13454 -271,10544 c 100,0 185,-86 185,-186 l 0,-114 -428,0 c -114,0 -171,228 58,228 -29,57 -119,114 -214,114 -96,0 -143,-114 -186,-214 -43,-99 -157,-171 -299,-214 z m 1551,-1127 1202,0 c 102,0 194,42 262,109 67,68 109,160 109,262 l 0,3196 c 0,102 -42,194 -109,262 -68,67 -160,109 -262,109 l -1496,0 16,-172 1480,0 c 54,0 104,-22 141,-58 36,-37 58,-87 58,-141 l 0,-3196 c 0,-54 -22,-104 -58,-141 -37,-36 -87,-58 -141,-58 l -1229,0 c 21,-39 30,-85 30,-129 0,-14 -1,-28 -3,-43 z"
       id="path4282"
       inkscape:connector-curvature="0"
       style="fill:#e2001a;fill-rule:nonzero" /><polygon
       class="fil3"
       points="-3366,10103 -3329,9936 -3182,10208 -2925,10000 -2964,10177 -3156,10322 -3170,10384 -3018,10418 -3045,10538 -3443,10450 -3416,10330 -3266,10363 -3252,10300 "
       id="polygon4284"
       style="fill:#ffffff;fill-rule:nonzero" /><polygon
       id="1"
       class="fil3"
       points="-3151,9765 -2873,9893 -2922,10000 -3292,9829 -3210,9650 -2830,9556 -3107,9428 -3058,9321 -2688,9492 -2771,9671 "
       style="fill:#ffffff;fill-rule:nonzero" /><polygon
       id="2"
       class="fil3"
       points="-3010,9259 -2949,9150 -2594,9349 -2655,9458 "
       style="fill:#ffffff;fill-rule:nonzero" /><path
       id="3"
       class="fil3"
       d="m -2551,9028 -61,-48 172,-220 c 24,20 46,37 64,52 19,15 34,28 46,41 12,12 21,24 27,36 5,12 7,25 5,39 -2,14 -8,29 -18,47 -10,17 -24,37 -42,61 -8,10 -16,20 -25,30 -8,11 -16,21 -24,31 l -23,29 c -28,36 -53,65 -74,89 -22,23 -43,39 -64,47 -21,9 -44,10 -68,2 -23,-7 -52,-23 -84,-49 -10,-8 -23,-19 -40,-32 -16,-14 -35,-31 -58,-51 -10,-8 -18,-18 -24,-30 -7,-11 -11,-23 -13,-36 -2,-12 -3,-24 -1,-37 2,-12 6,-24 12,-34 12,-21 26,-42 40,-62 14,-20 28,-39 43,-59 21,-26 39,-49 55,-70 16,-20 32,-38 45,-53 14,-15 27,-27 39,-36 12,-9 24,-15 37,-18 11,-3 22,-4 31,-3 10,1 19,3 28,7 9,4 18,9 27,15 9,7 19,14 29,21 l -75,96 c -9,-6 -17,-10 -23,-12 -6,-1 -12,-1 -18,3 -7,3 -14,8 -21,17 -8,8 -17,19 -28,33 l -19,24 c -7,9 -13,17 -20,25 -7,9 -13,16 -18,23 -13,16 -23,30 -31,41 -7,10 -12,21 -12,31 -1,9 3,20 11,30 8,11 22,23 41,38 18,14 33,26 45,34 13,9 24,14 33,17 10,3 19,3 27,0 8,-3 17,-8 26,-17 10,-8 20,-20 31,-35 12,-14 26,-32 42,-53 12,-15 23,-28 32,-40 9,-11 15,-22 19,-31 4,-10 4,-18 2,-26 -2,-8 -9,-16 -19,-24 -2,-2 -4,-3 -5,-4 -1,0 -2,-1 -4,-3 l -97,124 z"
       inkscape:connector-curvature="0"
       style="fill:#ffffff;fill-rule:nonzero" /><polygon
       id="4"
       class="fil3"
       points="-1837,8530 -1932,8612 -2034,8495 -2246,8680 -2144,8797 -2239,8879 -2506,8572 -2412,8489 -2315,8600 -2104,8415 -2200,8305 -2105,8222 "
       style="fill:#ffffff;fill-rule:nonzero" /><polygon
       id="5"
       class="fil3"
       points="-1838,8166 -1991,8265 -2047,8180 -1638,7914 -1583,7999 -1733,8097 -1566,8353 -1671,8422 "
       style="fill:#ffffff;fill-rule:nonzero" /><path
       id="6"
       class="fil3"
       d="m -1177,7850 c -4,-9 -9,-15 -13,-19 -5,-4 -11,-6 -19,-6 -7,1 -17,3 -28,6 -11,4 -25,10 -42,17 -3,1 -5,2 -7,3 -2,0 -4,2 -7,3 -24,12 -44,21 -61,28 -16,7 -29,13 -39,19 -9,6 -15,12 -18,18 -3,7 -2,15 3,26 4,9 10,15 19,17 8,2 19,0 31,-4 17,-7 33,-14 49,-19 15,-6 29,-12 42,-18 8,-3 16,-6 25,-10 8,-4 16,-7 24,-10 31,-14 58,-24 82,-32 24,-8 44,-11 62,-10 18,2 34,9 48,21 13,12 26,33 37,60 9,20 14,37 16,52 1,15 0,29 -4,41 -5,12 -12,24 -22,34 -11,10 -24,19 -41,28 -9,6 -28,15 -57,29 -28,13 -65,30 -110,49 -44,18 -81,32 -110,41 -29,9 -52,12 -68,8 -12,-3 -21,-7 -29,-12 -7,-6 -13,-12 -19,-20 -5,-8 -9,-16 -13,-26 -4,-9 -9,-20 -13,-31 l 113,-47 c 2,4 4,8 5,13 2,4 5,8 8,11 4,2 8,4 14,5 7,1 15,-1 25,-4 5,-2 14,-5 28,-10 13,-6 30,-12 51,-21 26,-11 47,-20 64,-27 16,-8 29,-14 37,-21 9,-6 14,-12 15,-18 2,-6 1,-13 -3,-22 -4,-8 -8,-14 -13,-17 -6,-3 -12,-5 -19,-4 -7,1 -16,3 -24,6 -10,3 -19,7 -30,11 -37,15 -69,29 -98,41 -28,12 -53,22 -75,29 -22,7 -41,12 -57,14 -16,3 -30,2 -42,-3 -12,-5 -23,-13 -33,-25 -10,-12 -19,-28 -27,-48 -8,-19 -13,-36 -15,-50 -3,-15 -2,-29 1,-41 4,-12 11,-24 21,-34 10,-10 24,-20 41,-30 11,-6 30,-16 56,-29 27,-13 60,-27 101,-44 21,-9 40,-17 58,-24 17,-7 32,-13 46,-17 14,-4 27,-6 38,-8 12,-1 22,-1 32,2 11,2 20,6 27,11 8,4 14,10 20,17 6,7 11,15 15,24 5,9 9,19 14,30 l -112,47 z"
       inkscape:connector-curvature="0"
       style="fill:#ffffff;fill-rule:nonzero" /><path
       id="7"
       class="fil3"
       d="m -739,7781 c 3,20 6,38 9,52 3,13 7,25 11,34 4,8 9,15 16,19 6,4 14,6 24,7 10,0 23,0 38,-2 14,-2 32,-5 53,-9 42,-7 74,-13 97,-18 23,-5 39,-11 49,-20 10,-9 15,-21 15,-37 0,-16 -3,-38 -8,-66 -4,-24 -8,-42 -12,-55 -5,-13 -11,-22 -20,-28 -8,-5 -19,-7 -34,-7 -14,1 -33,3 -56,7 -42,8 -76,13 -102,18 -26,4 -46,10 -59,17 -13,8 -21,18 -24,31 -2,14 -2,32 3,57 z m -116,76 c -6,-38 -11,-71 -15,-98 -3,-28 -4,-52 0,-72 3,-20 11,-37 24,-50 12,-13 31,-25 56,-34 18,-6 50,-14 98,-23 47,-8 109,-19 186,-32 26,-4 48,-6 67,-5 19,2 36,6 50,13 14,8 26,18 36,32 10,14 18,32 25,53 3,11 6,26 10,44 3,18 7,39 11,63 5,29 7,54 7,75 0,21 -4,39 -10,54 -7,16 -16,28 -30,38 -13,10 -31,19 -52,27 -21,7 -47,14 -77,20 -29,6 -64,13 -104,19 -45,8 -83,13 -116,16 -32,3 -60,0 -82,-7 -22,-8 -40,-22 -54,-43 -13,-20 -23,-50 -30,-90 z"
       inkscape:connector-curvature="0"
       style="fill:#ffffff;fill-rule:nonzero" /><polygon
       id="8"
       class="fil3"
       points="185,7615 -124,7616 -124,7696 170,7695 170,7787 -123,7788 -123,7929 -246,7929 -247,7521 185,7520 "
       style="fill:#ffffff;fill-rule:nonzero" /><path
       id="9"
       class="fil3"
       d="m 713,7717 c 1,-9 1,-17 -1,-23 -2,-6 -6,-11 -13,-15 -6,-3 -15,-7 -26,-9 -12,-3 -26,-6 -44,-9 -4,-1 -6,-1 -8,-1 -2,-1 -5,-1 -8,-1 -27,-3 -48,-7 -66,-10 -18,-3 -32,-4 -43,-4 -12,0 -20,2 -26,6 -5,4 -9,11 -11,23 -2,10 1,18 7,24 6,6 16,11 29,13 18,4 35,7 51,10 16,4 31,6 45,9 9,1 17,3 26,4 9,1 18,3 26,4 33,6 62,11 86,17 24,6 43,15 58,26 14,10 24,25 29,42 5,18 4,42 -1,72 -3,20 -8,38 -15,52 -6,13 -15,24 -25,32 -10,8 -22,14 -36,17 -14,2 -31,3 -50,2 -11,0 -32,-3 -63,-6 -31,-4 -71,-10 -119,-18 -47,-8 -85,-16 -115,-24 -29,-8 -50,-18 -62,-30 -8,-8 -14,-17 -17,-26 -4,-8 -5,-17 -6,-26 0,-9 1,-19 3,-29 1,-11 3,-22 5,-34 l 121,21 c -1,4 -1,9 -2,14 -1,5 -1,9 1,13 1,4 4,9 9,12 4,4 12,8 23,10 5,2 14,4 29,6 14,3 32,7 53,10 28,5 51,9 69,11 18,3 32,4 43,3 10,0 17,-3 22,-7 4,-4 7,-11 9,-20 1,-9 1,-16 -2,-22 -3,-6 -7,-10 -14,-13 -6,-4 -14,-7 -23,-8 -10,-2 -20,-4 -31,-6 -39,-7 -74,-14 -105,-19 -30,-5 -57,-10 -79,-15 -22,-6 -40,-12 -55,-18 -15,-7 -26,-16 -34,-26 -8,-11 -13,-23 -14,-39 -2,-15 -1,-33 3,-55 3,-20 8,-37 13,-51 6,-14 14,-25 24,-33 10,-9 21,-15 35,-18 14,-3 31,-4 51,-3 13,0 34,2 63,6 29,3 65,8 108,16 23,4 44,7 62,11 18,3 34,7 48,11 14,4 26,8 37,13 10,5 19,11 26,18 7,8 13,16 17,24 4,8 6,17 7,26 1,9 1,18 0,28 -1,10 -2,21 -4,32 l -120,-20 z"
       inkscape:connector-curvature="0"
       style="fill:#ffffff;fill-rule:nonzero" /><path
       id="10"
       class="fil3"
       d="m 1229,8006 -24,-181 -139,120 163,61 z m 13,95 -246,-93 -64,55 -129,-48 356,-302 156,59 65,459 -128,-48 -10,-82 z"
       inkscape:connector-curvature="0"
       style="fill:#ffffff;fill-rule:nonzero" /><polygon
       id="11"
       class="fil3"
       points="1661,8049 1496,8307 1397,8244 1616,7900 1783,8006 1825,8395 1989,8138 2088,8201 1869,8544 1703,8438 "
       style="fill:#ffffff;fill-rule:nonzero" /><polygon
       id="12"
       class="fil3"
       points="2216,8447 2077,8328 2143,8251 2514,8568 2447,8645 2311,8528 2112,8761 2017,8680 "
       style="fill:#ffffff;fill-rule:nonzero" /><polygon
       id="13"
       class="fil3"
       points="2557,8636 2639,8731 2332,8998 2249,8903 "
       style="fill:#ffffff;fill-rule:nonzero" /><path
       id="14"
       class="fil3"
       d="m 2708,9237 82,-163 -183,20 101,143 z m -43,86 -152,-216 -83,10 -80,-113 464,-48 97,137 -206,416 -79,-112 39,-74 z"
       inkscape:connector-curvature="0"
       style="fill:#ffffff;fill-rule:nonzero" /><path
       id="15"
       class="fil3"
       d="m 2947,9679 70,-32 116,254 c -29,12 -54,24 -75,33 -22,10 -41,17 -58,22 -16,5 -31,8 -44,7 -13,-1 -26,-5 -37,-13 -12,-8 -23,-21 -33,-37 -11,-17 -23,-39 -35,-66 -6,-12 -11,-24 -16,-36 -5,-12 -11,-24 -16,-36 l -16,-34 c -18,-41 -33,-77 -44,-106 -11,-30 -15,-56 -13,-79 2,-23 12,-44 29,-61 17,-18 45,-36 83,-53 11,-5 27,-12 47,-20 20,-8 43,-18 71,-28 12,-5 25,-8 38,-8 13,0 26,1 38,5 12,4 23,9 33,16 11,8 19,16 26,27 13,21 25,42 36,64 11,21 22,43 32,66 14,30 26,57 37,81 11,23 20,45 27,64 7,19 11,37 14,52 3,14 2,28 -1,40 -2,12 -6,22 -12,30 -5,8 -11,15 -19,21 -7,6 -16,12 -26,17 -10,5 -20,10 -32,16 l -50,-111 c 9,-5 16,-10 20,-15 5,-4 7,-10 7,-17 0,-7 -2,-16 -5,-27 -4,-10 -10,-23 -17,-39 l -13,-29 c -5,-10 -9,-20 -13,-29 -4,-10 -8,-19 -12,-27 -9,-19 -16,-34 -22,-46 -6,-11 -13,-20 -22,-25 -8,-5 -19,-6 -32,-4 -13,2 -31,9 -53,19 -20,9 -37,17 -50,25 -14,7 -24,14 -31,21 -7,7 -11,15 -12,24 -1,8 0,19 3,31 3,12 9,27 16,44 8,16 17,37 28,61 8,18 16,33 22,47 6,13 12,24 19,31 6,8 14,13 22,14 8,2 18,0 30,-6 2,-1 4,-2 5,-3 1,0 3,-1 5,-2 l -65,-143 z"
       inkscape:connector-curvature="0"
       style="fill:#ffffff;fill-rule:nonzero" /><path
       id="16"
       class="fil3"
       d="m 3170,10084 c -20,5 -37,9 -51,13 -14,3 -25,8 -33,12 -9,5 -15,10 -18,17 -4,6 -6,15 -6,25 0,10 1,23 4,37 3,15 7,32 12,53 9,41 17,73 23,96 7,23 14,39 24,48 9,10 21,14 37,13 16,-1 38,-5 66,-12 23,-5 41,-10 54,-15 12,-6 21,-12 26,-21 5,-9 7,-20 5,-34 -2,-15 -5,-33 -10,-56 -10,-42 -18,-76 -23,-101 -6,-26 -13,-46 -22,-58 -8,-13 -18,-21 -32,-22 -13,-2 -32,-1 -56,5 z m -83,-111 c 38,-9 70,-16 98,-21 27,-5 51,-6 71,-4 20,2 37,9 51,21 14,11 27,30 38,55 7,17 16,49 28,96 11,47 25,108 43,185 6,25 8,47 8,66 0,19 -3,36 -10,51 -6,14 -16,27 -30,38 -13,10 -30,19 -51,27 -11,4 -25,9 -43,13 -17,4 -38,9 -62,14 -29,7 -54,11 -75,12 -21,1 -39,-1 -54,-7 -16,-6 -29,-15 -40,-28 -11,-12 -21,-29 -29,-50 -9,-21 -17,-46 -25,-76 -8,-29 -16,-64 -25,-103 -10,-44 -18,-83 -23,-115 -4,-33 -3,-60 3,-83 6,-23 19,-41 39,-56 20,-14 49,-26 88,-35 z"
       inkscape:connector-curvature="0"
       style="fill:#ffffff;fill-rule:nonzero" /><circle
       class="fil4"
       cy="10997"
       r="3898"
       id="circle4302"
       cx="0"
       style="fill:none" /><path
       class="fil3"
       d="m -3325,12068 49,120 148,-60 102,253 -149,60 49,120 391,-157 -48,-120 -139,56 -102,-254 139,-56 -48,-120 -392,158 z m 329,499 c -20,13 -34,27 -43,41 -10,14 -15,29 -16,43 -1,15 1,29 6,43 5,14 12,27 21,41 l 90,140 c 9,14 19,26 29,36 11,10 23,18 37,23 13,5 29,6 45,4 17,-3 36,-10 55,-23 l 60,-39 c 20,-12 34,-26 43,-40 10,-14 15,-29 16,-44 0,-14 -2,-29 -6,-42 -5,-14 -12,-28 -21,-41 l -91,-141 c -8,-13 -18,-25 -28,-35 -11,-10 -23,-18 -37,-23 -13,-5 -29,-7 -46,-4 -17,3 -35,10 -54,23 l -60,38 z m 102,68 c 18,-12 33,-14 46,-9 14,6 28,20 42,43 l 15,22 c 10,16 17,29 22,39 5,10 8,18 8,25 0,7 -1,14 -5,19 -4,5 -11,11 -20,16 l -34,23 c -9,5 -16,9 -23,10 -6,1 -12,0 -18,-3 -7,-3 -13,-9 -21,-17 -7,-9 -16,-21 -26,-36 l -14,-23 c -15,-22 -22,-41 -22,-56 1,-14 9,-27 27,-38 l 23,-15 z m 66,399 69,88 118,-92 c 16,-13 33,-18 50,-14 17,4 33,15 48,34 l 16,20 c 30,38 33,66 10,84 l -134,105 69,89 134,-106 c 24,-19 40,-38 48,-57 8,-19 11,-38 7,-55 -3,-18 -10,-34 -19,-50 -9,-15 -21,-31 -35,-50 -20,-25 -38,-42 -56,-53 -18,-10 -37,-13 -59,-8 l -1,-1 38,-29 -69,-89 -234,184 z m 375,279 c -16,17 -27,34 -32,50 -6,16 -8,31 -5,46 3,14 8,28 16,40 8,12 18,24 29,34 l 122,116 c 11,11 23,20 36,27 13,8 26,12 41,14 14,2 30,-1 45,-7 16,-6 32,-18 48,-35 l 49,-52 c 16,-17 27,-33 33,-49 5,-16 7,-32 4,-46 -2,-15 -8,-28 -16,-40 -8,-12 -18,-24 -29,-35 l -122,-115 c -11,-11 -23,-20 -36,-28 -12,-7 -26,-12 -41,-13 -14,-2 -29,0 -45,7 -16,6 -32,18 -48,35 l -49,51 z m 115,41 c 15,-15 29,-21 43,-18 15,2 32,12 51,31 l 19,18 c 14,13 24,24 31,32 8,9 12,17 14,23 2,7 2,13 -1,20 -2,6 -7,13 -15,20 l -28,30 c -7,7 -13,13 -19,15 -6,3 -12,4 -19,2 -7,-1 -15,-6 -24,-12 -9,-7 -21,-16 -34,-29 l -20,-18 c -19,-19 -30,-35 -33,-50 -4,-14 2,-28 16,-43 l 19,-21 z m 162,369 91,65 96,-134 c 9,-14 22,-21 36,-21 14,0 29,6 46,18 17,12 27,24 27,35 1,11 -4,25 -16,42 l 79,56 c 1,-2 2,-3 4,-5 6,-7 10,-13 12,-16 24,-34 34,-63 31,-88 -4,-26 -23,-50 -56,-74 -22,-16 -44,-26 -66,-29 -21,-4 -40,2 -58,16 l -1,0 33,-46 -86,-61 -172,242 z m 376,98 c -15,26 -24,49 -26,70 -3,21 0,39 7,55 8,15 18,29 32,40 13,12 29,23 48,33 l 72,43 c 19,11 37,19 53,26 17,6 32,10 47,11 15,1 29,-2 41,-8 13,-7 23,-18 32,-34 l 7,-11 -91,-53 c -3,5 -5,9 -8,11 -3,3 -7,5 -12,5 -5,1 -12,0 -20,-3 -8,-3 -19,-8 -32,-15 l -29,-18 c -22,-12 -35,-23 -42,-34 -6,-10 -5,-22 2,-35 l 9,-16 235,137 26,-43 c 13,-23 21,-43 23,-60 3,-18 1,-34 -5,-49 -7,-14 -19,-29 -35,-42 -16,-14 -37,-29 -64,-45 l -67,-39 c -19,-11 -37,-19 -53,-24 -16,-4 -32,-6 -48,-3 -15,2 -30,10 -45,22 -15,13 -29,31 -42,54 l -15,25 z m 124,10 c 5,-9 9,-15 14,-18 4,-4 9,-6 15,-5 6,0 14,2 23,7 10,4 23,11 40,21 29,17 46,30 53,40 6,9 5,22 -4,37 l -141,-82 z m 188,335 106,37 52,-148 c 8,-20 18,-33 31,-37 13,-4 32,-2 55,6 17,6 29,12 39,16 9,5 16,10 20,15 5,5 7,11 7,17 0,6 -2,14 -5,23 l -56,159 106,37 54,-154 c 7,-18 16,-29 30,-32 13,-3 33,0 59,9 29,10 48,21 54,32 4,5 5,12 5,19 0,7 -2,16 -6,26 l -53,151 105,37 56,-158 c 15,-42 16,-77 3,-106 -13,-28 -42,-51 -89,-67 l -33,-12 c -30,-10 -53,-14 -70,-9 -18,4 -35,17 -53,39 -4,-50 -31,-84 -81,-102 l -40,-14 c -27,-9 -50,-12 -70,-8 -20,5 -35,16 -44,35 l -1,-1 19,-55 -101,-35 -99,280 z m 971,275 129,17 56,-418 -129,-17 -56,418 z m 217,33 112,2 3,-150 c 1,-21 8,-37 21,-48 14,-11 33,-16 57,-15 l 26,0 c 48,1 72,16 71,45 l -3,171 112,2 3,-170 c 1,-31 -4,-55 -14,-74 -10,-18 -22,-32 -38,-40 -16,-9 -33,-14 -51,-17 -17,-2 -37,-3 -61,-4 -32,-1 -57,3 -76,10 -20,7 -34,21 -44,40 l -1,0 1,-48 -112,-2 -6,298 z m 472,13 111,-14 -21,-156 c -3,-22 0,-38 10,-47 10,-10 28,-16 52,-19 18,-3 31,-4 42,-4 10,0 19,1 25,4 6,2 11,6 13,12 3,5 5,13 7,23 l 22,167 111,-15 -22,-163 c -2,-19 2,-32 12,-41 11,-9 29,-15 57,-19 31,-4 52,-3 63,4 6,3 10,8 13,14 3,7 5,16 6,26 l 21,159 111,-15 -22,-166 c -6,-44 -21,-76 -45,-95 -25,-20 -61,-27 -110,-20 l -34,4 c -32,5 -54,13 -68,24 -13,12 -23,31 -28,59 -27,-43 -67,-61 -119,-54 l -42,6 c -28,3 -50,12 -66,25 -16,12 -24,29 -24,50 l -1,0 -8,-58 -106,15 40,294 z m 660,-180 c 10,31 25,49 47,54 21,6 50,3 85,-9 l 73,-24 c 14,-4 25,-8 33,-12 8,-4 15,-8 20,-13 6,-4 11,-10 15,-16 4,-7 9,-15 14,-26 l 10,32 101,-33 -61,-186 c -11,-33 -29,-55 -53,-66 -25,-11 -56,-10 -92,2 l -124,40 c -24,8 -43,16 -58,23 -15,7 -26,16 -34,26 -8,9 -13,21 -14,34 -1,14 2,30 8,48 l 103,-33 c -3,-10 -2,-17 3,-22 4,-4 14,-9 31,-15 l 62,-20 c 21,-7 35,-9 43,-5 8,3 15,12 20,26 l 8,25 c -13,-7 -28,-9 -44,-6 -17,2 -42,9 -75,20 -29,10 -53,18 -71,26 -17,7 -31,15 -42,25 -11,9 -18,20 -21,33 -3,14 -1,30 5,49 l 8,23 z m 163,-39 c -20,7 -36,10 -45,9 -10,-1 -16,-6 -19,-16 -4,-12 -3,-22 2,-29 6,-8 20,-15 41,-22 l 47,-15 c 28,-9 46,-13 55,-12 9,1 16,8 20,19 1,6 2,10 2,14 -1,4 -4,8 -8,13 -5,4 -12,9 -22,13 -10,5 -24,10 -42,16 l -31,10 z m 233,-152 c 13,27 27,48 42,62 16,14 32,22 49,25 17,3 34,2 51,-2 17,-4 36,-11 55,-19 l 104,-48 c 16,-7 30,-15 43,-24 12,-10 22,-21 31,-33 8,-12 12,-26 13,-41 1,-15 -2,-32 -10,-49 l -11,-24 -99,45 3,6 c 5,12 4,22 -4,31 -8,10 -20,18 -36,25 l -52,24 c -18,8 -33,10 -45,8 -13,-3 -23,-13 -30,-29 l -17,-36 c -6,-15 -6,-28 1,-39 7,-11 22,-22 43,-31 l 40,-18 c 22,-10 38,-14 50,-12 11,1 20,9 26,23 l 99,-45 -11,-24 c -14,-31 -35,-48 -63,-54 -27,-5 -61,1 -100,19 l -114,52 c -20,9 -37,19 -50,29 -14,11 -24,23 -31,37 -7,14 -9,31 -8,50 2,19 8,41 20,66 l 11,26 z m 647,-538 -94,61 81,126 c 11,18 15,35 9,51 -5,17 -18,32 -38,45 l -22,14 c -40,26 -68,27 -84,2 l -93,-143 -94,60 93,144 c 16,25 34,43 52,53 18,9 37,13 55,11 18,-1 35,-6 51,-14 15,-7 33,-17 53,-30 26,-17 46,-34 58,-51 12,-17 16,-36 13,-58 l 1,0 26,40 94,-61 -161,-250 z m 226,197 89,-68 -259,-334 -89,68 259,334 z m 88,-161 c 23,23 45,32 66,28 22,-4 47,-19 74,-45 l 55,-53 c 10,-10 18,-18 24,-25 6,-7 10,-14 13,-21 3,-6 5,-13 6,-21 1,-8 1,-17 1,-29 l 24,24 76,-73 -135,-141 c -24,-25 -50,-38 -77,-37 -27,1 -54,15 -82,42 l -94,90 c -18,17 -32,32 -43,45 -10,13 -16,26 -19,38 -4,12 -3,25 2,37 5,13 15,26 28,40 l 79,-75 c -7,-7 -9,-14 -7,-20 2,-6 9,-15 21,-27 l 48,-46 c 15,-15 27,-22 36,-23 9,-1 19,5 29,16 l 18,18 c -14,0 -29,4 -42,14 -14,9 -33,26 -58,50 -23,22 -41,40 -53,54 -13,14 -22,28 -28,41 -6,13 -7,27 -4,40 3,13 12,27 25,41 l 17,18 z m 131,-106 c -16,15 -28,24 -37,27 -9,3 -17,2 -24,-5 -9,-10 -12,-19 -10,-28 2,-9 11,-22 27,-37 l 36,-35 c 21,-20 36,-31 44,-34 9,-3 18,0 26,9 4,4 7,8 8,12 1,4 0,8 -2,14 -2,6 -6,13 -14,22 -7,9 -17,20 -31,33 l -23,22 z m 197,-249 c 15,13 30,21 45,25 14,4 29,4 42,0 14,-4 27,-10 39,-20 13,-9 25,-21 37,-34 l 29,-34 c 28,-32 42,-62 41,-90 0,-28 -11,-51 -34,-71 l -27,-24 -64,75 15,13 c 10,8 15,17 15,25 -1,8 -7,19 -19,33 -9,11 -18,18 -25,21 -7,3 -15,1 -23,-6 l -87,-75 114,-131 -61,-53 -114,131 -52,-45 -74,84 53,46 -36,43 61,52 36,-42 89,77 z m 271,-709 -60,95 127,80 c 17,11 27,26 29,43 3,17 -3,36 -16,56 l -13,22 c -26,41 -52,53 -76,38 l -145,-92 -60,95 145,91 c 25,16 49,25 69,26 21,1 39,-3 55,-12 16,-9 29,-21 40,-34 11,-14 23,-30 36,-50 17,-27 27,-50 31,-71 4,-20 0,-39 -12,-58 l 1,-1 40,26 60,-94 -251,-160 z m 289,98 47,-102 -143,-65 c -20,-9 -32,-21 -35,-34 -2,-14 1,-32 12,-54 7,-16 13,-29 19,-38 5,-8 11,-15 16,-19 6,-4 11,-5 18,-5 6,1 13,3 22,7 l 154,70 46,-102 -149,-68 c -17,-8 -27,-19 -29,-32 -2,-14 3,-33 14,-58 13,-29 26,-46 37,-52 6,-3 12,-4 19,-3 7,1 16,4 26,9 l 145,66 47,-102 -153,-69 c -40,-19 -75,-23 -105,-13 -29,11 -54,38 -75,83 l -14,31 c -13,29 -19,53 -16,70 3,18 14,36 35,56 -51,0 -87,23 -109,71 l -18,39 c -12,26 -16,49 -14,69 3,21 13,36 30,47 l 0,1 -53,-24 -45,97 271,124 z"
       id="path4304"
       inkscape:connector-curvature="0"
       style="fill:#ffffff;fill-rule:nonzero" /><circle
       class="fil4"
       cy="10997"
       r="3898"
       id="circle4306"
       cx="0"
       style="fill:none" /></g></svg>