<?xml version="1.0" encoding="UTF-8" standalone="no"?>
<!-- Creator: CorelDRAW X7 -->

<svg
   xmlns:dc="http://purl.org/dc/elements/1.1/"
   xmlns:cc="http://creativecommons.org/ns#"
   xmlns:rdf="http://www.w3.org/1999/02/22-rdf-syntax-ns#"
   xmlns:svg="http://www.w3.org/2000/svg"
   xmlns="http://www.w3.org/2000/svg"
   xmlns:sodipodi="http://sodipodi.sourceforge.net/DTD/sodipodi-0.dtd"
   xmlns:inkscape="http://www.inkscape.org/namespaces/inkscape"
   xml:space="preserve"
   width="7.8740005in"
   height="7.8740005in"
   version="1.1"
   style="clip-rule:evenodd;fill-rule:evenodd;image-rendering:optimizeQuality;shape-rendering:geometricPrecision;text-rendering:geometricPrecision"
   viewBox="0 0 7874.0005 7874.0005"
   id="svg3640"
   inkscape:version="0.91 r13725"
   sodipodi:docname="Aleph - Maruts - [N3] [Vyo].svg"><metadata
     id="metadata3658"><rdf:RDF><cc:Work
         rdf:about=""><dc:format>image/svg+xml</dc:format><dc:type
           rdf:resource="http://purl.org/dc/dcmitype/StillImage" /></cc:Work></rdf:RDF></metadata><sodipodi:namedview
     pagecolor="#ffffff"
     bordercolor="#666666"
     borderopacity="1"
     objecttolerance="10"
     gridtolerance="10"
     guidetolerance="10"
     inkscape:pageopacity="0"
     inkscape:pageshadow="2"
     inkscape:window-width="640"
     inkscape:window-height="480"
     id="namedview3656"
     showgrid="false"
     inkscape:zoom="0.23838384"
     inkscape:cx="736.83001"
     inkscape:cy="849.33005"
     inkscape:window-x="0"
     inkscape:window-y="0"
     inkscape:window-maximized="0"
     inkscape:current-layer="svg3640" /><defs
     id="defs3642"><style
       type="text/css"
       id="style3644"><![CDATA[
    .fil1 {fill:black}
    .fil0 {fill:white}
   ]]></style></defs><g
     id="Layer_x0020_1"
     transform="translate(3937,-7063)"><metadata
       id="CorelCorpID_0Corel-Layer" /><circle
       class="fil0"
       cy="11000"
       r="3937"
       id="circle3648"
       cx="0"
       style="fill:#ffffff" /><path
       class="fil1"
       d="m 741,7293 c 1733,345 3039,1873 3039,3707 0,2087 -1693,3780 -3780,3780 -2087,0 -3780,-1693 -3780,-3780 0,-1834 1306,-3362 3039,-3707 57,-11 113,26 124,83 12,58 -25,114 -83,125 l 0,0 c -1293,314 -2253,1479 -2253,2869 0,1631 1322,2953 2953,2953 1631,0 2953,-1322 2953,-2953 0,-1390 -960,-2555 -2253,-2869 l 0,0 c -58,-11 -95,-67 -83,-125 11,-57 67,-94 124,-83 z"
       id="path3650"
       inkscape:connector-curvature="0"
       style="fill:#000000" /><path
       class="fil1"
       d="m 410,7684 c 1306,198 2307,1325 2307,2686 0,1114 -671,2072 -1631,2491 l -303,-684 c 697,-303 1186,-998 1186,-1807 0,-840 -526,-1556 -1267,-1839 L 0,9760 -702,8531 c -741,283 -1267,999 -1267,1839 0,809 489,1504 1186,1807 l -303,684 c -960,-419 -1631,-1377 -1631,-2491 0,-1361 1001,-2488 2307,-2686 L 0,8402 410,7684 Z"
       id="path3652"
       inkscape:connector-curvature="0"
       style="fill:#000000" /><path
       class="fil1"
       d="m -833,8919 c 76,0 138,61 138,137 0,49 -25,92 -64,117 l 0,0 c -396,251 -658,694 -658,1197 0,539 300,1008 743,1247 l 0,0 c 43,24 73,69 73,122 0,76 -62,137 -138,137 -25,0 -49,-6 -69,-18 -527,-287 -885,-846 -885,-1488 0,-599 312,-1126 782,-1427 22,-15 49,-24 78,-24 z m 1744,24 c -22,-15 -49,-24 -78,-24 -76,0 -138,61 -138,137 0,49 25,92 64,117 l 0,0 c 396,251 658,694 658,1197 0,539 -300,1008 -743,1247 l 0,0 c -43,24 -73,69 -73,122 0,76 62,137 138,137 25,0 49,-6 69,-18 527,-287 885,-846 885,-1488 0,-599 -312,-1126 -782,-1427 z"
       id="path3654"
       inkscape:connector-curvature="0"
       style="fill:#000000" /></g></svg>