<?xml version="1.0" encoding="UTF-8" standalone="no"?>
<!-- Creator: CorelDRAW X7 -->

<svg
   xmlns:dc="http://purl.org/dc/elements/1.1/"
   xmlns:cc="http://creativecommons.org/ns#"
   xmlns:rdf="http://www.w3.org/1999/02/22-rdf-syntax-ns#"
   xmlns:svg="http://www.w3.org/2000/svg"
   xmlns="http://www.w3.org/2000/svg"
   xmlns:sodipodi="http://sodipodi.sourceforge.net/DTD/sodipodi-0.dtd"
   xmlns:inkscape="http://www.inkscape.org/namespaces/inkscape"
   xml:space="preserve"
   width="7.8740005in"
   height="7.8740005in"
   version="1.1"
   style="clip-rule:evenodd;fill-rule:evenodd;image-rendering:optimizeQuality;shape-rendering:geometricPrecision;text-rendering:geometricPrecision"
   viewBox="0 0 7874.0005 7874.0005"
   id="svg4870"
   inkscape:version="0.91 r13725"
   sodipodi:docname="PanOceania - Remote 1 Pathfinder Dronbots - [N3] [Vyo].svg"><metadata
     id="metadata4919"><rdf:RDF><cc:Work
         rdf:about=""><dc:format>image/svg+xml</dc:format><dc:type
           rdf:resource="http://purl.org/dc/dcmitype/StillImage" /></cc:Work></rdf:RDF></metadata><sodipodi:namedview
     pagecolor="#ffffff"
     bordercolor="#666666"
     borderopacity="1"
     objecttolerance="10"
     gridtolerance="10"
     guidetolerance="10"
     inkscape:pageopacity="0"
     inkscape:pageshadow="2"
     inkscape:window-width="640"
     inkscape:window-height="480"
     id="namedview4917"
     showgrid="false"
     inkscape:zoom="0.23838384"
     inkscape:cx="736.83001"
     inkscape:cy="849.33005"
     inkscape:window-x="0"
     inkscape:window-y="0"
     inkscape:window-maximized="0"
     inkscape:current-layer="svg4870" /><defs
     id="defs4872"><style
       type="text/css"
       id="style4874"><![CDATA[
    .fil4 {fill:none}
    .fil0 {fill:#00C0FF}
    .fil1 {fill:white}
    .fil2 {fill:white}
    .fil3 {fill:#00C0FF;fill-rule:nonzero}
   ]]></style></defs><g
     id="Layer_x0020_1"
     transform="translate(3937,-7063)"><metadata
       id="CorelCorpID_0Corel-Layer" /><circle
       class="fil0"
       cy="11000"
       r="3937"
       id="circle4878"
       cx="0"
       style="fill:#00c0ff" /><circle
       class="fil1"
       cy="11000"
       r="3780"
       id="circle4880"
       cx="0"
       style="fill:#ffffff" /><circle
       class="fil0"
       cy="11000"
       r="2795"
       id="circle4882"
       cx="0"
       style="fill:#00c0ff" /><polygon
       class="fil2"
       points="-2047,11000 0,8441 2047,11000 0,13559 "
       id="polygon4884"
       style="fill:#ffffff" /><polygon
       class="fil0"
       points="0,8567 -1946,11000 1946,11000 "
       id="polygon4886"
       style="fill:#00c0ff" /><rect
       class="fil0"
       x="-177"
       y="11000"
       width="354"
       height="748"
       id="rect4888"
       style="fill:#00c0ff" /><rect
       class="fil1"
       x="-177"
       y="10252"
       width="354"
       height="748"
       id="rect4890"
       style="fill:#ffffff" /><path
       class="fil3"
       d="m -2683,9630 -420,-235 92,-164 26,-47 c 14,-24 26,-42 35,-53 9,-10 21,-20 35,-27 16,-9 31,-14 47,-16 16,-1 34,2 53,8 19,6 42,17 68,31 33,19 59,37 77,54 18,17 29,35 33,53 4,19 2,39 -5,63 -1,4 -2,8 -3,10 -1,2 -3,6 -5,11 -3,6 -7,13 -11,22 l -9,15 -9,17 -2,6 -4,6 -3,6 -38,68 106,59 -63,113 z m -141,-227 40,-71 c 9,-17 14,-28 15,-32 2,-5 3,-9 3,-13 -1,-7 -5,-14 -12,-21 -7,-7 -19,-15 -36,-24 -22,-13 -40,-19 -53,-18 -12,1 -23,10 -32,26 l -8,13 -40,71 123,69 z"
       id="path4892"
       inkscape:connector-curvature="0"
       style="fill:#00c0ff;fill-rule:nonzero" /><path
       id="1"
       class="fil3"
       d="m -2566,9008 -68,86 -7,-5 c -15,-12 -26,-23 -32,-34 -7,-12 -9,-24 -8,-37 1,-12 7,-27 16,-44 9,-17 22,-36 40,-59 27,-34 51,-59 71,-73 21,-15 41,-20 61,-17 19,3 42,14 67,34 l 172,135 -67,86 -41,-37 -2,2 c 9,14 14,26 16,37 2,12 0,24 -6,36 -5,13 -15,28 -29,46 -13,17 -25,29 -37,38 -12,9 -24,14 -37,16 -12,2 -25,0 -38,-5 -13,-5 -27,-13 -42,-25 -15,-11 -26,-23 -33,-34 -7,-12 -11,-24 -12,-36 0,-13 3,-26 9,-40 6,-14 15,-30 29,-48 13,-16 24,-29 34,-37 9,-9 18,-14 27,-15 9,-2 19,-1 32,3 l 1,-2 -52,-41 c -12,-10 -24,-14 -34,-12 -10,2 -21,11 -33,26 -9,12 -14,22 -14,30 1,7 6,16 17,26 z m 100,31 c -12,15 -18,27 -18,36 -1,9 4,18 14,26 11,9 21,11 30,8 8,-3 20,-13 34,-32 12,-15 18,-27 18,-35 1,-9 -6,-18 -18,-27 -9,-8 -18,-10 -27,-7 -8,3 -19,14 -33,31 z"
       inkscape:connector-curvature="0"
       style="fill:#00c0ff;fill-rule:nonzero" /><path
       id="2"
       class="fil3"
       d="m -2254,8523 54,58 -92,87 94,100 c 12,12 21,20 28,22 6,2 13,0 20,-6 9,-9 12,-17 10,-25 -2,-8 -10,-20 -26,-36 l -5,-5 64,-61 c 3,3 5,5 6,6 1,1 2,3 3,5 22,23 36,40 42,49 6,10 10,21 11,33 1,10 0,20 -4,30 -4,10 -10,21 -20,33 -9,12 -21,25 -37,39 -22,21 -41,35 -58,42 -16,6 -33,7 -50,1 -8,-2 -16,-6 -23,-11 -7,-6 -16,-14 -26,-25 l -109,-115 -30,28 -54,-58 29,-28 -48,-51 80,-76 48,52 93,-88 z"
       inkscape:connector-curvature="0"
       style="fill:#00c0ff;fill-rule:nonzero" /><path
       id="3"
       class="fil3"
       d="m -2190,8278 130,166 2,-1 c -6,-19 -9,-34 -9,-47 0,-13 3,-25 10,-36 7,-11 18,-22 34,-34 29,-23 56,-33 81,-32 25,2 48,15 68,42 l 149,190 -86,67 -124,-158 c -9,-12 -17,-20 -24,-25 -7,-4 -14,-6 -20,-4 -7,1 -16,6 -26,14 -16,12 -24,25 -26,39 -1,13 5,29 18,46 l 119,152 -86,68 -296,-379 86,-68 z"
       inkscape:connector-curvature="0"
       style="fill:#00c0ff;fill-rule:nonzero" /><path
       id="4"
       class="fil3"
       d="m -1647,8479 -141,-215 -37,24 -43,-67 37,-24 -14,-20 c -13,-21 -23,-39 -27,-53 -5,-14 -6,-27 -3,-39 4,-16 13,-31 27,-46 14,-15 35,-32 65,-51 l 11,-7 11,-7 44,68 c -8,3 -16,7 -22,11 -15,10 -23,20 -25,29 -2,9 3,22 13,38 l 11,17 64,-42 43,67 -63,41 141,216 -92,60 z"
       inkscape:connector-curvature="0"
       style="fill:#00c0ff;fill-rule:nonzero" /><path
       id="5"
       class="fil3"
       d="m -1577,7883 38,72 -97,52 -38,-72 97,-52 z m 68,128 158,298 -97,51 -158,-297 97,-52 z"
       inkscape:connector-curvature="0"
       style="fill:#00c0ff;fill-rule:nonzero" /><path
       id="6"
       class="fil3"
       d="m -1420,7959 102,-43 21,63 2,-1 c -2,-27 1,-48 10,-63 9,-15 27,-28 52,-39 25,-10 47,-16 66,-16 19,0 35,5 48,16 14,11 25,27 34,49 l 93,220 -101,43 -75,-178 -5,-12 c -7,-17 -15,-27 -24,-32 -9,-4 -20,-3 -34,3 -37,15 -48,41 -33,76 l 77,182 -102,43 -131,-311 z"
       inkscape:connector-curvature="0"
       style="fill:#00c0ff;fill-rule:nonzero" /><path
       id="7"
       class="fil3"
       d="m -756,7578 138,461 -102,31 -15,-62 -1,0 c -1,27 -7,47 -18,60 -11,14 -31,25 -59,33 -21,7 -40,10 -57,10 -17,0 -32,-3 -45,-10 -10,-5 -19,-12 -26,-21 -7,-9 -14,-21 -21,-38 -7,-16 -14,-38 -23,-67 -6,-20 -11,-38 -14,-51 -4,-14 -6,-27 -7,-37 -1,-11 -1,-20 0,-27 1,-7 3,-15 7,-24 11,-29 39,-50 86,-64 25,-8 45,-9 61,-5 17,4 31,15 45,32 l 2,0 -57,-189 106,-32 z m -97,265 c -13,4 -23,7 -28,11 -6,4 -10,9 -12,16 -2,7 -1,15 1,26 2,10 6,26 12,47 5,18 10,32 15,43 5,11 10,19 15,24 6,4 12,7 20,7 7,0 17,-2 29,-5 15,-5 26,-10 33,-16 6,-6 9,-15 9,-25 0,-11 -3,-26 -8,-46 -10,-31 -17,-51 -21,-61 -4,-10 -9,-17 -15,-21 -10,-7 -27,-7 -50,0 z"
       inkscape:connector-curvature="0"
       style="fill:#00c0ff;fill-rule:nonzero" /><path
       id="8"
       class="fil3"
       d="m -359,7895 107,-15 0,6 c 5,31 2,56 -10,75 -9,15 -23,27 -41,35 -19,8 -46,15 -83,20 -22,3 -41,5 -56,6 -16,0 -30,-1 -42,-3 -13,-3 -24,-6 -32,-10 -9,-5 -17,-11 -25,-19 -5,-5 -10,-12 -14,-19 -4,-8 -8,-16 -11,-26 -3,-10 -6,-22 -9,-36 -3,-13 -6,-30 -8,-49 -5,-32 -6,-58 -4,-80 2,-21 9,-38 19,-52 10,-13 25,-24 44,-32 19,-8 45,-14 77,-19 43,-6 76,-6 101,0 24,6 43,19 56,40 13,21 22,52 28,95 l 4,31 -214,31 c 0,3 1,8 2,13 2,16 5,29 10,37 5,8 11,14 20,17 9,2 21,2 35,0 13,-1 23,-4 31,-7 7,-4 12,-8 14,-15 2,-6 2,-14 1,-24 z m -121,-81 109,-16 c 0,-3 -1,-6 -2,-11 -2,-17 -7,-28 -15,-32 -7,-4 -23,-4 -47,-1 -14,2 -25,5 -32,8 -6,3 -10,8 -12,14 -2,6 -2,16 -1,28 0,2 0,3 0,5 0,1 0,3 0,5 z"
       inkscape:connector-curvature="0"
       style="fill:#00c0ff;fill-rule:nonzero" /><path
       id="9"
       class="fil3"
       d="m -179,7653 110,0 -5,54 3,0 c 9,-21 20,-37 33,-45 12,-9 29,-13 51,-13 17,0 31,2 42,6 11,4 20,11 26,21 7,9 12,22 15,37 3,16 4,36 4,61 0,10 1,19 1,26 l -100,0 c 0,-2 1,-5 1,-8 0,-16 -1,-28 -3,-37 -1,-8 -4,-14 -8,-17 -5,-3 -12,-5 -21,-5 -12,0 -21,5 -28,13 -7,9 -11,22 -11,38 l 0,11 1,195 -111,0 0,-337 z"
       inkscape:connector-curvature="0"
       style="fill:#00c0ff;fill-rule:nonzero" /><path
       id="10"
       class="fil3"
       d="m 326,8001 79,-475 249,42 c 41,7 75,19 100,36 25,17 42,40 51,69 9,28 10,62 4,103 0,0 -3,12 -7,37 l -9,51 c -6,36 -13,63 -19,82 -6,19 -13,35 -22,47 -9,13 -20,23 -34,32 -17,12 -38,20 -61,22 -24,2 -53,0 -90,-6 l -241,-40 z m 146,-88 103,17 c 11,2 20,3 28,3 7,-1 13,-3 19,-6 5,-3 11,-8 16,-14 8,-9 14,-24 18,-44 1,-1 2,-9 6,-26 3,-11 5,-22 6,-33 7,-37 9,-64 9,-81 -1,-17 -6,-30 -14,-37 -9,-8 -24,-13 -46,-17 l -103,-17 -42,255 z"
       inkscape:connector-curvature="0"
       style="fill:#00c0ff;fill-rule:nonzero" /><path
       id="11"
       class="fil3"
       d="m 922,7774 105,36 -22,49 2,1 c 16,-17 31,-28 46,-32 15,-4 32,-3 53,4 16,6 29,12 38,19 9,8 15,17 18,28 4,11 4,25 2,41 -2,16 -7,35 -15,58 -3,10 -6,18 -8,26 l -96,-33 c 1,-2 3,-5 4,-8 5,-14 8,-26 9,-35 1,-9 1,-15 -3,-19 -3,-5 -8,-8 -17,-11 -11,-4 -22,-3 -31,3 -9,7 -16,17 -22,32 l -3,12 -62,184 -105,-35 107,-320 z"
       inkscape:connector-curvature="0"
       style="fill:#00c0ff;fill-rule:nonzero" /><path
       id="12"
       class="fil3"
       d="m 1411,7956 c 37,16 63,31 78,43 15,11 25,25 31,42 6,16 7,34 4,52 -3,19 -12,43 -26,73 -17,37 -32,66 -46,86 -14,20 -30,34 -46,41 -16,7 -35,9 -56,5 -22,-5 -49,-15 -81,-30 -23,-10 -41,-20 -56,-29 -15,-9 -27,-18 -36,-27 -8,-10 -15,-20 -20,-32 -4,-12 -6,-24 -6,-36 0,-11 3,-26 9,-43 5,-17 15,-40 28,-69 16,-35 31,-60 43,-75 13,-15 28,-25 45,-30 11,-4 23,-5 35,-4 11,0 25,3 41,8 15,5 35,13 59,25 z m -35,75 c -14,-7 -26,-10 -36,-10 -9,1 -18,6 -25,15 -8,9 -17,25 -27,46 -8,19 -15,33 -19,45 -3,12 -5,22 -4,30 0,8 4,15 10,20 5,5 15,11 27,17 15,6 27,9 36,8 9,-1 18,-8 26,-19 9,-13 20,-32 32,-59 9,-20 14,-35 16,-46 1,-11 -1,-20 -6,-27 -6,-7 -16,-14 -30,-20 z"
       inkscape:connector-curvature="0"
       style="fill:#00c0ff;fill-rule:nonzero" /><path
       id="13"
       class="fil3"
       d="m 1653,8081 92,59 -38,52 2,1 c 21,-17 40,-26 57,-27 18,-1 38,6 61,21 23,14 40,29 51,45 10,15 15,31 14,49 -2,17 -9,35 -21,55 l -129,201 -92,-58 105,-164 7,-11 c 9,-15 13,-27 12,-37 -2,-10 -9,-19 -22,-27 -33,-21 -60,-16 -81,16 l -107,168 -93,-59 182,-284 z"
       inkscape:connector-curvature="0"
       style="fill:#00c0ff;fill-rule:nonzero" /><path
       id="14"
       class="fil3"
       d="m 1802,8576 312,-366 84,72 -127,150 1,1 c 14,-7 27,-11 39,-11 11,-1 23,1 35,7 12,5 26,14 40,26 34,29 51,57 52,84 1,18 -3,35 -11,50 -9,16 -27,40 -55,73 -28,32 -48,54 -60,65 -13,10 -27,18 -43,24 -33,10 -69,-1 -110,-36 -12,-10 -21,-20 -27,-28 -7,-9 -12,-18 -14,-27 -2,-9 -3,-18 -2,-28 2,-10 5,-21 10,-33 l -2,-2 -38,51 -84,-72 z m 295,-85 c -17,-15 -32,-20 -45,-18 -13,3 -29,16 -48,38 -20,23 -33,41 -40,52 -6,12 -8,22 -6,31 3,8 10,18 22,28 14,12 26,19 35,21 9,3 18,0 27,-7 10,-7 24,-21 42,-43 17,-20 29,-35 34,-46 5,-10 6,-19 3,-28 -3,-8 -11,-17 -24,-28 z"
       inkscape:connector-curvature="0"
       style="fill:#00c0ff;fill-rule:nonzero" /><path
       id="15"
       class="fil3"
       d="m 2455,8714 c 27,29 46,52 56,69 9,16 14,33 13,51 -1,17 -6,34 -16,50 -10,16 -27,35 -51,58 -30,28 -55,49 -75,62 -21,14 -40,21 -58,22 -18,0 -36,-5 -54,-17 -18,-12 -40,-31 -64,-57 -17,-18 -31,-34 -41,-48 -11,-14 -18,-27 -23,-39 -4,-11 -7,-24 -7,-36 1,-13 3,-25 8,-36 4,-11 12,-23 24,-36 12,-14 29,-32 52,-54 28,-26 51,-44 68,-54 18,-9 35,-13 54,-12 11,1 22,4 33,9 11,5 22,13 35,23 12,11 28,26 46,45 z m -60,56 c -11,-12 -21,-19 -30,-22 -9,-3 -19,-1 -30,4 -10,6 -24,17 -42,34 -15,14 -26,26 -34,36 -9,9 -14,18 -16,25 -2,8 -2,16 2,23 3,7 9,15 19,25 11,12 21,20 30,22 9,2 20,-1 32,-9 13,-8 30,-22 52,-43 16,-15 27,-27 32,-37 6,-9 7,-19 5,-27 -3,-9 -9,-19 -20,-31 z"
       inkscape:connector-curvature="0"
       style="fill:#00c0ff;fill-rule:nonzero" /><path
       id="16"
       class="fil3"
       d="m 2779,9133 -64,46 -74,-105 -112,79 c -15,10 -24,19 -27,25 -3,6 -2,13 3,20 8,11 15,16 24,15 8,-1 21,-8 39,-21 l 6,-4 51,72 c -3,2 -5,4 -7,5 -1,0 -3,1 -5,2 -26,18 -44,30 -55,34 -10,5 -21,7 -34,6 -9,-1 -19,-3 -28,-8 -10,-6 -20,-14 -30,-25 -10,-11 -21,-25 -34,-42 -17,-25 -28,-46 -32,-63 -4,-18 -3,-34 5,-50 4,-8 9,-15 15,-21 6,-7 16,-14 29,-23 l 129,-91 -23,-33 64,-46 24,34 58,-41 63,90 -58,41 73,104 z"
       inkscape:connector-curvature="0"
       style="fill:#00c0ff;fill-rule:nonzero" /><path
       id="17"
       class="fil3"
       d="m 2897,9517 -50,-91 c 2,-2 3,-4 3,-4 6,-5 9,-10 11,-14 1,-4 1,-9 -2,-16 -2,-6 -7,-16 -15,-30 -8,-15 -16,-25 -22,-29 -7,-4 -15,-3 -25,3 -12,7 -17,16 -13,29 1,3 4,10 8,20 l 7,12 6,14 7,13 c 9,19 16,35 22,48 5,12 8,23 10,32 1,8 2,16 1,25 -2,12 -7,24 -15,34 -8,10 -20,20 -35,28 -20,11 -37,17 -53,19 -16,2 -31,0 -46,-7 -14,-8 -28,-20 -43,-37 -14,-17 -29,-39 -44,-67 -16,-28 -27,-52 -34,-71 -7,-19 -9,-35 -8,-49 2,-14 7,-27 17,-38 10,-11 24,-22 43,-33 l 54,98 -5,3 c -12,6 -17,13 -17,21 0,8 6,22 17,42 10,19 19,31 26,36 7,4 16,4 26,-1 8,-5 13,-9 16,-14 2,-4 3,-9 1,-16 -1,-7 -5,-16 -11,-28 -16,-30 -28,-53 -34,-67 -7,-14 -11,-28 -14,-40 -4,-21 -1,-39 8,-54 8,-15 25,-29 48,-43 19,-10 35,-16 49,-18 14,-2 27,1 40,7 12,7 25,19 38,35 13,16 27,39 43,68 20,34 32,62 37,84 5,21 4,39 -5,54 -8,14 -23,28 -47,42 z"
       inkscape:connector-curvature="0"
       style="fill:#00c0ff;fill-rule:nonzero" /><circle
       class="fil4"
       cy="11000"
       r="3898"
       id="circle4911"
       cx="0"
       style="fill:none" /><path
       class="fil3"
       d="m -2934,12934 90,115 95,-74 179,229 c 16,20 32,33 50,42 18,8 36,12 53,11 18,-1 36,-5 53,-13 17,-7 33,-17 48,-28 l 32,-26 c 20,-15 36,-31 48,-47 12,-16 20,-34 24,-53 3,-19 1,-40 -7,-63 -8,-22 -22,-47 -43,-74 l -246,-314 -376,295 z m 373,-106 133,169 c 13,17 19,32 18,44 -1,13 -8,24 -21,35 l -15,11 c -12,9 -24,14 -36,14 -12,-1 -23,-7 -33,-20 l -141,-179 95,-74 z m 9,592 123,108 88,-35 224,196 -22,93 123,108 117,-533 -143,-126 -510,189 z m 508,-43 -47,198 -141,-123 188,-75 z m 114,572 131,66 157,-310 2,1 88,434 202,103 216,-426 -130,-66 -157,309 -2,0 -88,-434 -202,-103 -217,426 z m 753,187 c -9,33 -12,61 -9,86 3,24 11,45 25,62 14,16 32,31 55,43 23,12 51,22 85,32 l 227,63 c 34,9 63,15 89,16 26,2 49,-1 70,-8 21,-8 39,-21 54,-40 15,-19 27,-45 36,-78 l 38,-138 c 9,-33 13,-62 10,-86 -3,-24 -12,-45 -26,-62 -14,-17 -32,-31 -55,-43 -23,-12 -51,-22 -85,-32 l -227,-63 c -34,-9 -63,-15 -89,-17 -26,-2 -49,1 -70,9 -20,7 -38,20 -53,40 -15,19 -28,45 -37,78 l -38,138 z m 171,-54 c 9,-31 21,-52 37,-64 17,-12 42,-13 77,-3 l 165,46 c 35,10 56,24 64,42 8,18 8,43 -1,75 l -14,49 c -10,35 -22,58 -36,68 -15,10 -38,11 -70,2 l -181,-50 c -32,-9 -52,-22 -59,-38 -7,-17 -6,-42 4,-77 l 14,-50 z m 548,244 c -1,34 3,63 12,85 9,23 23,41 40,54 18,13 39,22 64,28 26,6 56,9 91,10 l 236,4 c 36,1 65,-2 89,-9 23,-7 42,-16 55,-29 13,-12 22,-27 27,-44 5,-17 8,-36 8,-58 l 1,-45 -146,-3 c -1,15 -2,27 -5,36 -3,9 -8,15 -15,19 -6,5 -14,7 -25,8 -10,2 -24,2 -42,2 l -157,-3 c -33,-1 -55,-9 -66,-23 -11,-14 -16,-39 -16,-75 l 1,-51 c 1,-33 8,-57 20,-72 13,-16 38,-23 74,-22 l 160,3 c 22,0 40,4 51,11 11,7 17,18 16,35 l 0,13 147,3 c 0,-37 -2,-67 -7,-89 -6,-22 -16,-40 -32,-54 -16,-14 -39,-24 -69,-31 -31,-6 -72,-10 -123,-11 l -172,-4 c -36,0 -66,2 -91,6 -26,5 -47,13 -65,26 -19,12 -33,30 -42,52 -10,23 -16,51 -16,85 l -3,143 z m 758,177 524,-91 -20,-113 -379,66 -13,-76 351,-61 -16,-97 -352,61 -13,-76 371,-64 -19,-109 -515,89 81,471 z m 618,-97 152,-60 9,-95 276,-110 73,62 152,-60 -421,-347 -177,70 -64,540 z m 193,-472 155,132 -174,69 19,-201 z m 558,158 123,-80 -188,-291 1,-1 419,142 191,-123 -259,-401 -123,79 188,292 -1,1 -419,-143 -191,123 259,402 z m 656,-467 105,-102 -331,-344 -105,101 331,345 z m 196,-167 102,-128 -39,-87 185,-232 94,17 102,-128 -538,-92 -119,150 213,500 z m -67,-506 200,38 -117,146 -83,-184 z"
       id="path4913"
       inkscape:connector-curvature="0"
       style="fill:#00c0ff;fill-rule:nonzero" /><circle
       class="fil4"
       cy="11000"
       r="3898"
       id="circle4915"
       cx="0"
       style="fill:none" /></g></svg>