<?xml version="1.0" encoding="UTF-8" standalone="no"?>
<!-- Creator: CorelDRAW X7 -->

<svg
   xmlns:dc="http://purl.org/dc/elements/1.1/"
   xmlns:cc="http://creativecommons.org/ns#"
   xmlns:rdf="http://www.w3.org/1999/02/22-rdf-syntax-ns#"
   xmlns:svg="http://www.w3.org/2000/svg"
   xmlns="http://www.w3.org/2000/svg"
   xmlns:sodipodi="http://sodipodi.sourceforge.net/DTD/sodipodi-0.dtd"
   xmlns:inkscape="http://www.inkscape.org/namespaces/inkscape"
   xml:space="preserve"
   width="7.8740005in"
   height="7.8740005in"
   version="1.1"
   style="clip-rule:evenodd;fill-rule:evenodd;image-rendering:optimizeQuality;shape-rendering:geometricPrecision;text-rendering:geometricPrecision"
   viewBox="0 0 7874.0005 7874.0005"
   id="svg3422"
   inkscape:version="0.91 r13725"
   sodipodi:docname="Tohaa - Chaksa Servant - [N3] [Vyo].svg"><metadata
     id="metadata3475"><rdf:RDF><cc:Work
         rdf:about=""><dc:format>image/svg+xml</dc:format><dc:type
           rdf:resource="http://purl.org/dc/dcmitype/StillImage" /></cc:Work></rdf:RDF></metadata><sodipodi:namedview
     pagecolor="#ffffff"
     bordercolor="#666666"
     borderopacity="1"
     objecttolerance="10"
     gridtolerance="10"
     guidetolerance="10"
     inkscape:pageopacity="0"
     inkscape:pageshadow="2"
     inkscape:window-width="640"
     inkscape:window-height="480"
     id="namedview3473"
     showgrid="false"
     inkscape:zoom="0.23838384"
     inkscape:cx="736.83001"
     inkscape:cy="849.33005"
     inkscape:window-x="0"
     inkscape:window-y="0"
     inkscape:window-maximized="0"
     inkscape:current-layer="svg3422" /><defs
     id="defs3424"><style
       type="text/css"
       id="style3426"><![CDATA[
    .fil0 {fill:black}
    .fil7 {fill:#3F3F3F}
    .fil6 {fill:#4A523A}
    .fil5 {fill:#546535}
    .fil4 {fill:#5F772F}
    .fil3 {fill:#698A2A}
    .fil2 {fill:#749D25}
    .fil12 {fill:#80E010}
    .fil11 {fill:#99E640}
    .fil10 {fill:#B3EC70}
    .fil9 {fill:#CCF39F}
    .fil8 {fill:#E6F9CF}
    .fil1 {fill:white}
   ]]></style></defs><g
     id="Layer_x0020_1"
     transform="translate(3937,-7063)"><metadata
       id="CorelCorpID_0Corel-Layer" /><circle
       class="fil0"
       cy="11000"
       r="3937"
       id="circle3430"
       cx="0"
       style="fill:#000000" /><circle
       class="fil1"
       cy="11000"
       r="3858"
       id="circle3432"
       cx="0"
       style="fill:#ffffff" /><path
       class="fil2"
       d="m 0,10783 c 51,0 77,13 100,24 24,12 42,20 99,-13 l 0,0 34,-20 0,0 c 294,-169 442,-409 576,-627 113,-184 217,-353 391,-454 381,-219 1023,-178 1095,-173 l 0,0 c 65,4 79,-4 94,-13 l 0,0 153,-88 c 15,-9 30,-18 46,-41 17,-26 35,-70 56,-148 30,-110 93,-160 143,-199 25,-19 46,-36 55,-55 15,-30 28,-65 38,-101 9,-36 16,-72 18,-106 2,-32 -7,-69 -26,-110 -20,-41 -50,-86 -90,-131 -271,-305 -588,-560 -935,-758 -351,-201 -734,-343 -1133,-421 l 0,0 c -50,-8 -97,-10 -136,-5 -39,4 -71,15 -95,31 -28,19 -57,42 -83,69 -26,26 -50,54 -69,83 -11,17 -15,43 -19,74 -9,64 -21,143 -101,224 -41,40 -69,74 -92,100 -48,55 -71,83 -119,83 -48,0 -71,-28 -119,-83 -23,-26 -51,-59 -92,-100 -80,-81 -92,-160 -101,-224 -4,-31 -8,-57 -19,-74 -19,-29 -43,-57 -69,-83 -26,-27 -55,-50 -83,-69 -24,-16 -56,-27 -95,-31 -40,-5 -86,-3 -137,5 -398,78 -781,220 -1132,421 -347,198 -664,453 -935,758 -40,45 -70,90 -90,131 -19,41 -28,78 -26,110 2,34 9,70 18,106 10,36 23,71 38,101 l 0,0 c 9,19 30,36 54,55 51,39 114,89 144,199 21,78 39,122 56,148 16,23 31,32 46,41 l 153,88 c 15,9 29,17 94,13 72,-5 714,-46 1095,173 174,101 278,269 391,454 134,218 282,458 576,627 l 34,20 c 58,33 75,25 99,13 23,-11 50,-24 100,-24 z m -374,-784 c -26,-32 -26,-92 0,-124 l 327,-413 c 20,-25 74,-25 94,0 l 327,413 c 26,32 26,92 0,124 l -327,413 c -20,25 -74,25 -94,0 l -327,-413 z"
       id="path3434"
       inkscape:connector-curvature="0"
       style="fill:#749d25" /><g
       id="_778840704"><path
         class="fil3"
         d="m -712,7368 c -395,78 -776,219 -1125,419 -349,199 -663,454 -930,754 -34,38 -65,81 -87,127 -14,30 -26,66 -24,99 2,35 8,70 17,103 9,33 21,67 36,98 0,0 1,0 1,1 9,16 34,35 49,46 30,24 57,47 82,76 33,40 54,84 68,134 11,43 29,104 54,142 11,17 21,25 39,35 l 153,88 c 8,5 13,7 22,9 19,4 42,2 61,1 90,-6 180,-7 269,-5 162,3 328,19 486,53 120,27 243,66 350,128 183,105 292,286 399,461 70,114 140,226 226,329 98,118 210,215 342,291 l 35,20 c 17,10 45,26 66,19 5,-2 10,-4 15,-6 37,-19 66,-26 108,-26 42,0 71,7 108,26 5,2 10,4 15,6 21,7 48,-8 65,-18 1,-1 1,-1 1,-1 l 35,-20 c 0,0 0,0 1,0 132,-77 243,-174 341,-291 86,-103 156,-215 226,-329 107,-175 216,-355 398,-461 108,-62 230,-101 351,-128 158,-34 324,-49 486,-53 89,-2 179,-1 269,5 0,0 0,0 0,0 19,1 42,3 61,-1 9,-2 14,-4 22,-9 0,0 1,0 1,0 l 152,-88 c 18,-10 28,-18 39,-35 25,-38 43,-99 54,-142 14,-50 35,-94 68,-134 25,-29 52,-52 82,-76 15,-11 41,-31 50,-47 15,-31 27,-65 36,-98 9,-33 15,-68 17,-103 3,-33 -10,-69 -24,-99 -22,-46 -53,-89 -87,-127 -266,-300 -581,-555 -930,-754 -350,-200 -731,-341 -1126,-419 -43,-7 -88,-10 -131,-5 -29,4 -61,12 -86,28 -28,19 -55,42 -80,66 -24,25 -47,52 -66,81 -11,15 -14,48 -17,66 -5,38 -11,73 -24,109 -18,49 -46,90 -82,126 -32,32 -62,65 -91,99 -37,43 -72,90 -134,90 -62,0 -96,-47 -134,-90 -29,-34 -59,-67 -91,-99 -36,-36 -64,-77 -82,-126 -13,-36 -19,-71 -24,-109 -3,-18 -6,-51 -17,-66 -19,-29 -42,-56 -66,-81 -25,-24 -52,-47 -80,-66 -25,-16 -57,-24 -86,-28 -43,-5 -89,-2 -132,5 z m 323,2644 c -32,-40 -32,-110 0,-150 l 327,-413 c 27,-34 97,-34 124,0 l 327,413 c 32,40 32,110 0,150 l -327,413 c -27,34 -97,34 -124,0 l -327,-413 z"
         id="path3437"
         inkscape:connector-curvature="0"
         style="fill:#698a2a" /><path
         class="fil4"
         d="m -708,7388 c -393,77 -772,218 -1119,416 -347,198 -660,451 -925,750 -33,37 -63,78 -84,122 -13,27 -25,60 -23,90 2,33 9,67 17,99 9,32 20,64 35,94 0,0 0,1 0,1 7,12 33,31 44,40 31,24 60,48 85,79 35,41 58,89 72,141 11,41 27,100 51,136 10,15 18,20 33,29 l 153,88 c 6,4 9,5 16,7 17,3 39,2 56,1 90,-6 180,-8 271,-6 163,4 330,19 489,54 123,27 247,67 356,130 186,107 296,289 406,467 69,113 139,225 224,327 97,116 206,212 337,287 l 34,20 c 11,6 37,22 51,17 4,-1 8,-3 12,-5 40,-20 72,-28 117,-28 45,0 77,8 117,28 4,2 8,4 12,5 13,5 38,-9 49,-16 1,0 1,-1 2,-1 l 34,-20 c 0,0 1,0 1,-1 130,-75 240,-170 336,-286 85,-102 155,-214 224,-327 110,-178 220,-359 406,-467 109,-63 233,-103 356,-130 159,-35 326,-50 489,-54 90,-2 181,0 271,6 0,0 0,0 0,0 17,1 39,2 56,-1 7,-2 10,-3 16,-7 0,0 1,0 2,-1 l 151,-87 c 15,-9 23,-14 33,-29 24,-36 40,-95 51,-136 14,-52 37,-100 72,-141 25,-31 54,-55 85,-79 11,-9 38,-29 44,-41 15,-30 26,-62 35,-94 8,-32 15,-66 17,-99 2,-30 -10,-63 -23,-90 -21,-44 -51,-85 -84,-122 -265,-299 -578,-552 -925,-750 -347,-199 -726,-339 -1119,-417 -41,-6 -85,-9 -126,-4 -26,3 -55,10 -77,24 -27,19 -53,41 -77,64 -23,24 -46,50 -64,77 -8,12 -11,45 -13,59 -6,39 -12,76 -26,113 -19,51 -48,95 -86,133 -32,31 -61,64 -90,98 -42,48 -79,96 -149,96 -70,0 -107,-47 -149,-96 -29,-34 -58,-67 -90,-98 -38,-38 -67,-82 -86,-133 -14,-37 -20,-74 -26,-113 -2,-14 -5,-47 -13,-59 -19,-27 -41,-53 -64,-77 -24,-23 -50,-45 -77,-64 -22,-14 -52,-21 -77,-24 -42,-5 -85,-2 -126,5 z m 303,2636 c -37,-47 -37,-127 0,-174 l 327,-413 c 36,-44 120,-44 156,0 l 327,413 c 37,47 37,127 0,174 l -327,413 c -36,44 -120,44 -156,0 l -327,-413 z"
         id="path3439"
         inkscape:connector-curvature="0"
         style="fill:#5f772f" /><path
         class="fil5"
         d="m -705,7407 c -391,77 -767,217 -1113,414 -345,197 -656,449 -920,746 -31,35 -60,75 -81,118 -11,23 -22,54 -20,80 2,32 8,64 16,95 8,31 19,62 34,90 0,0 0,1 0,1 5,8 30,27 38,33 83,66 135,125 164,231 10,38 26,97 48,130 8,12 14,16 26,23 l 154,88 c 15,9 44,6 60,5 344,-22 825,6 1128,181 190,109 301,293 412,474 155,251 292,455 555,607 l 34,20 c 7,4 27,15 35,16 3,-1 7,-4 10,-5 42,-21 77,-30 125,-30 48,0 83,9 125,30 3,1 7,4 10,5 8,-1 25,-11 33,-15 1,0 1,-1 2,-1 l 34,-20 c 1,0 1,-1 2,-1 261,-152 399,-356 553,-606 111,-181 222,-364 412,-474 303,-175 784,-203 1128,-181 0,0 0,0 0,0 16,1 45,4 60,-5 1,0 1,-1 2,-1 l 152,-87 c 12,-7 18,-11 25,-23 23,-33 39,-92 49,-130 29,-106 80,-165 164,-231 8,-6 34,-26 38,-34 15,-28 26,-59 34,-90 8,-31 14,-63 16,-95 2,-26 -9,-57 -20,-80 -21,-43 -50,-83 -81,-118 -264,-297 -575,-549 -920,-746 -346,-197 -723,-337 -1114,-414 -39,-6 -80,-9 -119,-5 -23,3 -50,9 -69,22 -26,17 -51,39 -74,61 -23,23 -44,48 -62,74 -5,8 -9,41 -10,51 -15,105 -40,179 -118,257 -31,31 -60,63 -88,97 -47,54 -87,103 -164,103 -77,0 -117,-49 -164,-103 -28,-34 -57,-66 -89,-97 -77,-78 -102,-152 -117,-257 -1,-10 -6,-43 -10,-51 -18,-26 -39,-51 -62,-74 -23,-22 -48,-44 -74,-61 -19,-13 -46,-19 -69,-21 -39,-5 -81,-2 -120,4 z m 285,2629 c -43,-54 -43,-144 0,-198 l 327,-413 c 43,-54 143,-54 186,0 l 327,413 c 43,54 43,144 0,198 l -327,413 c -43,54 -143,54 -186,0 l -327,-413 z"
         id="path3441"
         inkscape:connector-curvature="0"
         style="fill:#546535" /><path
         class="fil6"
         d="m -702,7426 c -388,77 -762,216 -1106,412 -343,196 -653,447 -915,742 -30,34 -58,73 -78,113 -9,20 -20,48 -18,71 2,30 7,61 15,91 8,29 18,58 32,85 6,9 25,23 33,29 87,68 141,130 171,241 9,35 25,93 46,124 6,9 10,11 19,17 l 154,88 c 1,1 2,1 3,2 10,3 36,1 46,0 348,-22 832,7 1139,184 193,111 306,296 419,481 153,247 288,450 548,600 l 34,20 c 5,3 16,9 23,12 1,-1 2,-1 3,-2 46,-22 83,-31 134,-31 51,0 88,9 134,31 1,1 2,1 3,2 6,-3 15,-8 21,-11 1,0 1,-1 2,-1 l 34,-20 c 1,0 2,-1 2,-1 258,-150 394,-352 546,-599 113,-185 226,-369 419,-481 307,-177 791,-206 1139,-184 0,0 0,0 0,0 11,1 36,3 46,0 1,-1 2,-1 3,-2 1,0 2,-1 3,-1 l 151,-87 c 9,-6 13,-8 19,-17 21,-31 37,-89 46,-124 30,-111 84,-173 171,-241 8,-6 27,-21 33,-29 14,-27 24,-56 32,-85 8,-30 13,-61 15,-91 2,-23 -9,-51 -18,-71 -20,-40 -48,-79 -78,-113 -262,-295 -572,-546 -915,-742 -344,-196 -719,-335 -1107,-412 -37,-5 -77,-8 -114,-4 -19,2 -44,7 -60,18 -25,17 -49,38 -71,59 -21,22 -42,45 -58,70 -4,10 -7,34 -8,43 -16,110 -43,188 -124,269 -30,30 -59,62 -87,95 -51,59 -95,111 -179,111 -84,0 -128,-51 -179,-111 -28,-33 -57,-65 -87,-95 -81,-81 -108,-159 -124,-269 -1,-9 -4,-33 -8,-43 -16,-25 -37,-48 -58,-70 -22,-21 -46,-42 -71,-59 -16,-11 -41,-16 -60,-18 -37,-4 -77,-1 -115,4 z m 266,2622 c -48,-61 -48,-161 0,-222 l 328,-413 c 50,-64 166,-64 216,0 l 328,413 c 48,61 48,161 0,222 l -328,413 c -50,64 -166,64 -216,0 l -328,-413 z"
         id="path3443"
         inkscape:connector-curvature="0"
         style="fill:#4a523a" /><path
         class="fil7"
         d="m -698,7446 c -386,76 -758,214 -1100,409 -341,195 -649,444 -910,738 -29,33 -56,70 -75,109 -8,16 -18,42 -17,60 2,30 8,59 15,88 7,27 17,54 29,79 7,8 22,18 29,24 91,71 147,137 178,251 9,34 24,91 43,119 4,6 7,7 13,10 l 154,89 c 10,1 28,0 38,0 352,-23 839,6 1150,186 196,113 310,299 426,487 150,245 284,446 541,594 l 34,20 c 3,2 8,5 13,7 46,-21 85,-31 137,-31 52,0 91,10 137,31 4,-2 8,-4 11,-6 0,0 1,-1 2,-1 l 34,-20 c 1,0 2,-1 3,-1 254,-148 388,-349 538,-593 116,-188 230,-373 426,-487 311,-180 798,-209 1150,-186 0,0 0,0 1,0 9,0 27,1 37,0 1,0 2,-1 3,-1 l 151,-87 c 6,-4 9,-5 13,-11 19,-29 34,-85 43,-119 31,-114 87,-180 178,-251 7,-6 22,-16 29,-24 12,-25 22,-52 29,-79 7,-29 13,-58 15,-88 1,-18 -9,-44 -17,-60 -19,-39 -46,-76 -75,-109 -261,-294 -569,-543 -910,-738 -342,-195 -714,-333 -1101,-409 -35,-6 -73,-9 -108,-4 -15,1 -38,6 -51,14 -24,17 -47,36 -68,57 -20,20 -39,42 -55,65 -3,10 -5,28 -6,37 -16,114 -45,196 -129,280 -30,30 -58,62 -86,94 -56,64 -103,117 -194,117 -91,0 -138,-53 -193,-117 -29,-32 -57,-64 -87,-94 -84,-84 -113,-166 -129,-280 -1,-9 -3,-27 -6,-37 -16,-23 -35,-45 -55,-65 -21,-21 -44,-40 -68,-56 -13,-9 -36,-14 -51,-15 -36,-5 -74,-2 -109,4 z m 247,2614 c -54,-68 -54,-178 0,-246 l 327,-413 c 59,-75 189,-75 248,0 l 327,413 c 54,68 54,178 0,246 l -327,413 c -59,75 -189,75 -248,0 l -327,-413 z"
         id="path3445"
         inkscape:connector-curvature="0"
         style="fill:#3f3f3f" /></g><path
       class="fil1"
       d="m -374,9999 c -26,-32 -26,-92 0,-124 l 327,-413 c 20,-25 74,-25 94,0 l 327,413 c 26,32 26,92 0,124 l -327,413 c -20,25 -74,25 -94,0 l -327,-413 z"
       id="path3447"
       inkscape:connector-curvature="0"
       style="fill:#ffffff" /><g
       id="_778841216"><path
         class="fil8"
         d="m -359,9987 328,413 c 11,14 51,14 62,0 l 328,-413 c 20,-25 20,-75 0,-100 L 31,9474 c -11,-14 -51,-14 -62,0 l -328,413 c -20,25 -20,75 0,100 z"
         id="path3450"
         inkscape:connector-curvature="0"
         style="fill:#e6f9cf" /><path
         class="fil9"
         d="m -343,9975 327,412 c 5,5 27,5 32,1 l 327,-413 c 15,-18 15,-58 0,-76 L 16,9487 c -5,-5 -27,-5 -32,-1 l -327,413 c -15,18 -15,58 0,76 z"
         id="path3452"
         inkscape:connector-curvature="0"
         style="fill:#ccf39f" /><path
         class="fil10"
         d="m -4,10371 c 2,1 6,1 8,0 l 324,-408 c 8,-11 8,-41 0,-52 L 4,9503 c -2,-1 -6,-1 -8,0 l -324,408 c -8,11 -8,41 0,52 l 324,408 z"
         id="path3454"
         inkscape:connector-curvature="0"
         style="fill:#b3ec70" /><path
         class="fil11"
         d="m 0,10345 312,-394 c 3,-6 3,-22 0,-27 L 0,9529 -312,9923 c -3,6 -3,22 0,27 l 312,395 z"
         id="path3456"
         inkscape:connector-curvature="0"
         style="fill:#99e640" /><path
         class="fil12"
         d="m -295,9941 295,372 295,-372 c 0,-2 0,-6 0,-8 L 0,9561 -295,9933 c 0,2 0,6 0,8 z"
         id="path3458"
         inkscape:connector-curvature="0"
         style="fill:#80e010" /></g><path
       class="fil2"
       d="m 0,11217 c -29,0 -39,35 -39,59 l 0,39 c 0,261 -76,476 -194,705 -48,93 -100,184 -147,279 -42,84 -80,173 -99,266 -8,42 -13,85 -13,128 0,329 211,744 390,1013 24,35 56,70 102,70 46,0 78,-35 102,-70 179,-269 390,-684 390,-1013 0,-43 -5,-86 -13,-128 -19,-93 -57,-182 -99,-266 -47,-95 -99,-186 -147,-279 -118,-229 -194,-444 -194,-705 l 0,-39 c 0,-24 -10,-59 -39,-59 z"
       id="path3460"
       inkscape:connector-curvature="0"
       style="fill:#749d25" /><g
       id="_778829344"><path
         class="fil3"
         d="m 0,11236 c -16,0 -20,28 -20,40 l 0,39 c 0,264 -76,482 -195,714 -48,93 -101,184 -147,278 -42,84 -79,171 -98,262 -8,41 -12,82 -12,124 0,325 209,736 387,1002 19,29 47,61 85,61 38,0 66,-32 85,-61 178,-266 387,-677 387,-1002 0,-42 -4,-83 -12,-124 -19,-91 -56,-178 -98,-262 -46,-94 -99,-185 -147,-278 C 96,11797 20,11579 20,11315 l 0,-39 c 0,-12 -4,-40 -20,-40 z"
         id="path3463"
         inkscape:connector-curvature="0"
         style="fill:#698a2a" /><path
         class="fil4"
         d="m 0,11315 c 0,267 -77,489 -198,723 -48,93 -100,184 -147,278 -40,82 -77,167 -95,257 -8,40 -13,80 -13,120 0,320 209,729 384,991 15,23 39,52 69,52 30,0 54,-29 69,-52 175,-262 384,-671 384,-991 0,-40 -5,-80 -13,-120 -18,-90 -55,-175 -95,-257 -47,-94 -99,-185 -147,-278 C 77,11804 0,11582 0,11315 Z"
         id="path3465"
         inkscape:connector-curvature="0"
         style="fill:#5f772f" /><path
         class="fil5"
         d="m 0,11545 c -30,175 -94,335 -180,502 -48,93 -101,184 -147,278 -40,80 -76,164 -94,252 -8,38 -12,77 -12,116 0,316 208,721 380,980 11,16 31,44 53,44 22,0 42,-28 53,-44 172,-259 380,-664 380,-980 0,-39 -4,-78 -12,-116 -18,-88 -54,-172 -94,-252 -46,-94 -99,-185 -147,-278 C 94,11880 30,11720 0,11545 Z"
         id="path3467"
         inkscape:connector-curvature="0"
         style="fill:#546535" /><path
         class="fil6"
         d="m 0,11641 c -35,142 -91,276 -163,415 -48,93 -100,184 -147,278 -39,78 -74,161 -92,247 -7,37 -11,74 -11,112 0,311 207,714 377,969 6,9 24,35 36,35 12,0 30,-26 36,-35 170,-255 377,-658 377,-969 0,-38 -4,-75 -11,-112 -18,-86 -53,-169 -92,-247 -47,-94 -99,-185 -147,-278 C 91,11917 35,11783 0,11641 Z"
         id="path3469"
         inkscape:connector-curvature="0"
         style="fill:#4a523a" /><path
         class="fil7"
         d="m 0,11716 c -35,118 -85,232 -145,349 -48,93 -100,184 -147,277 -38,77 -73,158 -90,243 -8,35 -12,72 -12,108 0,307 207,707 374,958 4,5 13,18 20,24 7,-6 16,-19 20,-24 167,-251 374,-651 374,-958 0,-36 -4,-72 -12,-108 -17,-85 -52,-166 -90,-243 -47,-93 -99,-184 -147,-277 C 85,11948 35,11834 0,11716 Z"
         id="path3471"
         inkscape:connector-curvature="0"
         style="fill:#3f3f3f" /></g></g></svg>