<?xml version="1.0" encoding="UTF-8" standalone="no"?>
<!-- Creator: CorelDRAW X7 -->

<svg
   xmlns:dc="http://purl.org/dc/elements/1.1/"
   xmlns:cc="http://creativecommons.org/ns#"
   xmlns:rdf="http://www.w3.org/1999/02/22-rdf-syntax-ns#"
   xmlns:svg="http://www.w3.org/2000/svg"
   xmlns="http://www.w3.org/2000/svg"
   xmlns:sodipodi="http://sodipodi.sourceforge.net/DTD/sodipodi-0.dtd"
   xmlns:inkscape="http://www.inkscape.org/namespaces/inkscape"
   xml:space="preserve"
   width="7.8740005in"
   height="7.8740005in"
   version="1.1"
   style="clip-rule:evenodd;fill-rule:evenodd;image-rendering:optimizeQuality;shape-rendering:geometricPrecision;text-rendering:geometricPrecision"
   viewBox="0 0 7874.0005 7874.0005"
   id="svg2"
   inkscape:version="0.91 r13725"
   sodipodi:docname="Ariadna - 2nd Irregular Cameronians Reg v2 - [N3] [Vyo].svg"><metadata
     id="metadata36"><rdf:RDF><cc:Work
         rdf:about=""><dc:format>image/svg+xml</dc:format><dc:type
           rdf:resource="http://purl.org/dc/dcmitype/StillImage" /></cc:Work></rdf:RDF></metadata><sodipodi:namedview
     pagecolor="#ffffff"
     bordercolor="#666666"
     borderopacity="1"
     objecttolerance="10"
     gridtolerance="10"
     guidetolerance="10"
     inkscape:pageopacity="0"
     inkscape:pageshadow="2"
     inkscape:window-width="640"
     inkscape:window-height="480"
     id="namedview34"
     showgrid="false"
     inkscape:zoom="0.23838384"
     inkscape:cx="736.83001"
     inkscape:cy="849.33005"
     inkscape:window-x="0"
     inkscape:window-y="0"
     inkscape:window-maximized="0"
     inkscape:current-layer="svg2" /><defs
     id="defs4"><style
       type="text/css"
       id="style6"><![CDATA[
    .fil4 {fill:none}
    .fil6 {fill:black}
    .fil0 {fill:#015385}
    .fil3 {fill:#E32527}
    .fil2 {fill:#FFD600}
    .fil1 {fill:white}
    .fil5 {fill:white;fill-rule:nonzero}
   ]]></style></defs><g
     id="Layer_x0020_1"
     transform="translate(3937,-7063)"><metadata
       id="CorelCorpID_0Corel-Layer" /><circle
       class="fil0"
       cy="11000"
       r="3937"
       id="circle10"
       cx="0"
       style="fill:#015385" /><circle
       class="fil1"
       cy="11000"
       r="3858"
       id="circle12"
       cx="0"
       style="fill:#ffffff" /><circle
       class="fil0"
       cy="11000"
       r="3701"
       id="circle14"
       cx="0"
       style="fill:#015385" /><circle
       class="fil1"
       cy="11000"
       r="2598"
       id="circle16"
       cx="0"
       style="fill:#ffffff" /><circle
       class="fil2"
       cy="11000"
       r="2441"
       id="circle18"
       cx="0"
       style="fill:#ffd600" /><path
       class="fil1"
       d="m -491,9692 c -49,-19 -91,-58 -114,-103 -11,-22 -17,-54 -24,-77 -1,-7 -4,-18 -7,-27 -45,-10 -77,-43 -77,-94 0,-51 35,-87 87,-87 35,0 82,34 119,67 0,-15 -1,-29 -1,-45 0,-68 80,-124 143,-124 20,0 31,2 48,9 2,0 4,0 6,0 18,-2 38,-8 56,-13 22,-5 43,-10 65,-13 3,-29 11,-55 42,-71 30,-15 58,-14 90,-15 21,-1 42,2 63,7 22,5 44,12 66,19 3,1 8,3 13,4 6,-20 21,-34 40,-43 14,-7 29,-10 44,-10 3,0 7,1 10,1 18,-16 33,-35 53,-49 20,-16 41,-26 66,-31 21,-4 40,2 54,17 15,15 20,35 15,55 -4,14 -2,26 0,40 4,17 7,31 8,47 20,3 39,11 56,24 40,31 50,79 50,127 0,58 -9,92 -32,125 39,32 66,76 81,128 16,54 16,104 16,159 0,31 6,64 16,94 4,12 18,30 25,42 20,30 34,61 34,98 0,5 0,10 -2,15 19,-19 20,-83 20,-106 -1,-38 -7,-77 -13,-114 -4,-20 2,-38 16,-52 5,-5 10,-10 15,-14 -2,-8 -5,-15 -8,-23 -11,-22 -6,-48 12,-66 3,-3 6,-6 10,-9 -1,-11 -1,-22 1,-34 3,-17 12,-31 27,-40 1,-1 1,-1 2,-1 1,-3 2,-6 3,-9 7,-18 22,-31 40,-35 2,-3 3,-7 3,-10 3,-12 8,-22 17,-30 69,-70 170,-93 266,-93 217,0 339,173 339,377 0,82 -18,145 -58,210 64,33 111,95 119,171 4,39 -3,78 -20,113 -9,19 -26,30 -47,33 -20,2 -39,-6 -52,-22 -4,-5 -9,-10 -14,-15 18,45 26,96 26,146 0,25 -14,45 -37,55 -22,9 -47,4 -64,-13 -51,-51 -131,-76 -202,-76 -5,0 -12,0 -20,1 13,1 25,3 36,6 79,21 137,78 176,148 12,21 10,45 -4,65 -4,4 -7,8 -12,11 18,21 32,47 40,78 6,20 1,40 -14,55 0,1 -1,2 -2,3 15,9 25,24 27,43 0,2 1,4 1,6 41,21 65,66 68,125 2,32 -21,59 -53,62 -84,9 -146,53 -146,142 0,18 3,40 5,58 4,39 8,88 -16,121 6,49 -2,98 -31,142 -57,89 -177,127 -280,144 -42,74 -111,204 -108,271 0,16 19,40 30,51 9,9 37,33 51,33 55,0 69,7 107,45 30,30 45,44 45,89 0,25 0,49 0,74 0,22 -4,42 -19,59 -17,19 -34,20 -54,32 -2,1 -5,2 -7,3 6,14 19,36 23,44 22,39 39,78 39,124 0,57 -36,108 -80,141 -13,10 -28,14 -44,11 -10,87 -41,174 -106,223 -14,11 -31,14 -49,10 -6,-2 -13,-4 -18,-8 -1,8 -2,15 -3,23 -10,79 -41,169 -112,215 -44,29 -95,34 -146,23 -32,-7 -52,-38 -45,-70 1,-7 2,-14 2,-20 -50,20 -107,60 -141,87 -14,11 -29,15 -45,13 -17,-3 -31,-11 -40,-24 -41,-58 -45,-129 -19,-190 -23,-4 -47,0 -67,9 -19,8 -39,7 -56,-4 -17,-11 -27,-29 -27,-49 -1,-63 36,-119 79,-161 11,-11 24,-22 37,-32 -11,-3 -22,-6 -32,-8 -23,-4 -40,-20 -46,-42 -6,-22 1,-44 17,-60 112,-101 243,-107 368,-38 53,-25 109,-152 109,-198 0,-47 -27,-69 -58,-99 -5,-5 -11,-9 -18,-13 -15,-8 -33,-13 -49,-19 -25,-9 -49,-19 -71,-34 -58,-38 -88,-97 -104,-162 -10,0 -20,1 -32,7 -41,19 -65,33 -114,33 -61,0 -135,-14 -202,-34 22,61 58,127 83,167 20,31 14,66 -6,89 1,62 -9,121 -33,180 -20,49 -49,93 -68,140 -6,16 -18,27 -34,34 -13,5 -27,5 -40,0 -50,72 -136,134 -214,134 -19,0 -35,-8 -46,-21 -19,15 -37,40 -50,55 -11,12 -21,24 -32,34 -81,77 -174,124 -279,52 -18,-12 -28,-32 -26,-53 2,-22 13,-39 32,-49 3,-2 6,-8 7,-11 0,0 1,0 1,-1 -8,-1 -16,-2 -24,-2 -16,0 -50,4 -63,13 -18,13 -39,15 -59,6 -20,-9 -32,-26 -35,-48 -7,-72 4,-125 41,-170 -22,-11 -46,-16 -74,-20 -22,-3 -39,-17 -47,-38 -8,-20 -4,-42 10,-59 24,-29 62,-56 103,-77 -16,-8 -27,-22 -31,-40 -5,-22 2,-43 19,-58 81,-70 201,-51 290,-9 5,2 9,4 14,7 19,10 90,53 108,53 22,-2 81,-58 99,-76 10,-10 42,-41 56,-59 -3,-3 -5,-6 -7,-8 -12,-14 -24,-27 -35,-42 -60,-76 -144,-268 -144,-363 0,-92 94,-126 168,-142 8,-2 14,-4 20,-11 5,-5 10,-12 14,-19 8,-12 16,-24 25,-35 29,-36 65,-61 107,-81 58,-26 117,-38 181,-31 20,2 40,6 59,11 -1,-1 -3,-2 -5,-3 -83,-36 -167,-69 -251,-102 -35,-14 -67,-37 -90,-67 0,3 1,6 1,9 5,20 -1,40 -16,55 -15,14 -35,20 -56,15 -21,-6 -38,-18 -53,-34 -11,19 -27,38 -46,61 -8,9 -33,35 -33,46 0,21 -10,39 -28,51 -18,11 -39,12 -58,2 -23,-12 -41,-28 -54,-46 -2,1 -4,3 -6,4 -13,9 -17,14 -20,29 -3,15 -5,29 -9,44 -7,25 -19,47 -35,66 -57,68 -155,77 -218,14 -14,-14 -20,-32 -17,-52 2,-8 4,-15 9,-22 -16,4 -30,14 -38,30 -9,19 -27,31 -48,33 -22,1 -41,-8 -53,-25 -37,-54 -49,-116 -29,-178 -4,2 -9,5 -14,7 -18,11 -39,12 -57,2 -19,-9 -31,-27 -32,-48 -4,-46 5,-90 29,-126 -5,-2 -10,-5 -14,-8 -16,-11 -25,-28 -25,-48 0,-106 91,-209 200,-209 51,0 96,14 138,42 14,10 27,21 40,32 99,-50 212,-140 248,-246 -92,-44 -194,-144 -253,-204 -11,-11 -20,-24 -25,-39 -69,-18 -130,-57 -164,-126 -7,-14 -8,-29 -3,-44 -62,-17 -110,-62 -124,-140 -3,-21 4,-41 20,-55 17,-14 38,-18 59,-11 6,3 25,8 34,4 -3,-4 -10,-9 -12,-11 -11,-8 -25,-13 -38,-18 -19,-8 -39,-16 -57,-27 -57,-32 -89,-80 -99,-144 -4,-22 4,-42 21,-56 17,-14 39,-17 59,-9 5,2 10,4 14,5 -13,-18 -15,-44 -3,-64 4,-10 -8,-35 -13,-43 -7,-12 -19,-28 -32,-36 -20,-12 -31,-34 -28,-58 3,-24 19,-42 42,-49 32,-9 65,-12 96,-8 -4,-6 -8,-11 -12,-13 -22,-11 -34,-32 -33,-56 1,-24 16,-44 38,-52 24,-9 50,-14 75,-15 0,0 0,-1 0,-1 2,-23 16,-42 38,-50 63,-24 132,-27 188,18 61,50 78,140 78,215 0,38 -3,73 -8,109 -1,6 -2,16 -3,25 31,29 28,75 23,121 54,73 104,142 186,188 56,-43 121,-77 182,-102 21,-9 43,-17 66,-25 -5,-4 -9,-8 -14,-13 -26,-27 -31,-87 -32,-123 0,-17 1,-37 4,-57 z m 813,914 c 45,113 112,213 203,293 63,55 103,117 144,188 19,31 50,89 82,107 11,6 22,9 35,9 2,0 5,-1 7,-2 20,-6 36,-34 44,-51 16,-37 23,-81 23,-121 -1,-23 -4,-47 -10,-70 -12,-44 -28,-87 -45,-130 -35,-88 -72,-171 -95,-264 -40,-158 -11,-305 78,-436 -72,41 -161,9 -231,-34 2,4 4,8 7,12 6,10 14,17 21,27 11,13 17,27 23,43 6,17 4,34 -6,50 -9,15 -24,25 -42,27 -30,4 -60,5 -90,3 1,4 1,9 1,13 0,36 -9,53 -18,85 0,3 -1,6 -1,9 0,30 65,83 65,150 0,32 -26,59 -59,59 -36,0 -73,-4 -108,-14 -6,17 -15,33 -28,47 z m 543,-572 c 11,-13 22,-26 34,-40 -8,1 -16,2 -23,2 -3,12 -6,23 -10,33 0,2 -1,3 -1,5 z m 215,-315 c 1,-6 2,-13 2,-19 0,-41 -37,-91 -81,-91 -28,0 -54,13 -73,32 -11,11 -27,34 -27,50 0,10 5,39 15,43 26,0 42,-23 56,-41 13,-17 32,-26 53,-24 21,2 38,14 47,33 3,6 6,11 8,17 z"
       id="path20"
       inkscape:connector-curvature="0"
       style="fill:#ffffff" /><path
       class="fil3"
       d="m -954,9569 c 0,-103 -37,-234 -187,-178 47,29 66,66 57,113 -29,-47 -94,-75 -169,-47 38,19 75,93 66,168 -38,-37 -94,-56 -159,-37 46,28 93,112 65,159 28,19 47,56 47,75 -47,31 -84,28 -131,9 19,112 112,112 168,150 83,55 28,149 -75,112 17,90 94,112 178,93 0,28 -19,66 -56,75 28,56 84,94 168,103 -9,19 1,38 10,47 121,121 215,196 280,205 -18,169 -196,300 -327,356 -37,-28 -75,-84 -168,-84 -75,0 -141,74 -141,149 56,-19 94,-9 141,28 -38,0 -141,28 -131,150 46,-28 103,-28 159,-19 -38,28 -103,112 -38,206 19,-38 56,-66 113,-66 149,0 46,85 28,94 37,37 95,33 130,-9 47,-57 10,-103 75,-150 31,-22 47,-47 75,-75 -9,56 9,94 47,112 0,-37 32,-66 47,-84 47,-56 65,-75 56,-159 37,19 65,103 103,112 -11,-49 -7,-156 9,-177 28,-38 48,-51 103,-75 -78,107 -32,208 56,243 93,37 164,64 252,103 34,14 47,37 47,65 0,47 -9,56 -37,56 -38,0 -122,-46 -243,10 -123,57 -94,131 -178,149 -38,9 -122,28 -122,85 0,65 67,244 131,327 66,84 98,72 -18,187 -46,45 -101,93 -141,93 -42,0 -92,-40 -147,-66 -58,-27 -161,-55 -227,1 38,9 84,37 112,65 -46,10 -149,47 -196,103 66,10 112,28 159,75 -56,37 -84,75 -75,168 33,-23 150,-46 215,19 -37,9 -37,65 -74,83 84,57 152,5 205,-46 52,-48 84,-121 159,-121 10,9 10,28 10,37 84,0 177,-103 196,-168 19,0 19,28 37,37 38,-93 112,-168 94,-336 9,9 29,-3 18,-19 -50,-79 -112,-206 -112,-290 66,28 187,66 281,66 84,0 93,-66 196,-28 38,215 164,163 234,233 28,28 75,66 75,141 0,65 -75,252 -178,261 -103,-65 -215,-74 -318,19 47,9 103,28 140,66 -56,18 -177,102 -176,192 55,-24 127,-22 176,23 -37,37 -65,112 -18,177 46,-37 140,-103 215,-112 18,28 28,56 18,103 169,37 206,-187 187,-318 47,9 75,28 94,65 75,-56 93,-196 84,-299 38,10 56,28 66,66 37,-28 56,-64 56,-94 0,-75 -66,-130 -66,-177 0,-28 13,-30 41,-46 34,-20 43,-11 43,-39 0,-9 0,-54 0,-74 0,-19 0,-19 -28,-47 -28,-28 -28,-28 -65,-28 -56,0 -138,-80 -140,-140 -4,-87 74,-234 131,-328 130,-18 336,-75 280,-262 47,10 19,-102 19,-149 0,-103 65,-187 199,-201 -3,-61 -31,-89 -87,-80 0,-18 0,-37 19,-46 -47,-10 -113,-10 -150,18 0,-75 47,-131 140,-112 -28,-103 -140,-131 -224,-84 19,-66 131,-75 206,-56 -85,-150 -206,-131 -244,-112 -9,-103 37,-131 103,-131 97,0 187,37 243,93 0,-205 -130,-234 -187,-234 103,-74 244,19 281,66 47,-94 -19,-215 -140,-224 46,-66 93,-123 93,-244 0,-168 -93,-318 -280,-318 -103,0 -178,29 -225,75 -4,23 -18,56 -46,56 9,10 0,28 9,38 -13,5 -23,4 -38,0 -4,24 4,48 19,65 -19,0 -37,0 -47,10 13,28 19,56 19,84 -19,0 -28,9 -37,18 18,103 46,337 -123,289 216,151 263,-8 263,-92 150,28 252,-94 196,-206 -28,38 -56,66 -103,66 -46,0 -74,-53 -74,-103 0,-56 65,-141 159,-141 84,0 140,85 140,150 0,140 -209,339 -281,430 -84,108 -137,246 -93,421 36,144 103,258 140,393 38,135 -19,318 -121,318 -141,0 -150,-187 -300,-318 -125,-110 -188,-238 -220,-319 -3,3 -7,8 -11,13 -36,50 -49,95 -49,156 l 0,52 -49,-16 c -76,-26 -130,-97 -169,-166 -39,35 -53,76 -53,139 l 0,48 -47,-11 c -82,-21 -143,-106 -156,-189 -67,-1 -109,36 -137,102 l -17,39 -37,-22 c -52,-31 -82,-82 -92,-142 -4,-23 -4,-50 -1,-75 -32,3 -63,11 -85,34 l -27,26 -26,-26 c -46,-46 -67,-112 -67,-176 0,-48 17,-95 43,-134 10,-14 21,-29 34,-42 -27,-13 -60,-21 -87,-21 l -61,0 28,-54 c 19,-36 45,-68 75,-96 -98,-55 -149,-129 -219,-224 9,-84 9,-93 -19,-103 -9,-37 9,-84 9,-168 z M 150,9139 c 19,-9 39,3 56,-9 37,-28 56,-66 103,-75 -19,75 37,112 -19,159 84,-10 131,0 131,93 0,75 -19,94 -66,141 138,48 131,205 131,271 0,39 8,78 19,112 13,40 56,75 56,122 -65,9 -112,-10 -159,-38 38,47 91,192 112,225 19,28 28,28 38,56 -66,9 -122,0 -168,-19 24,31 28,56 28,93 0,43 -19,62 -19,94 0,56 65,103 65,150 -74,0 -121,-19 -149,-38 -19,122 -42,81 -84,140 -47,66 -57,122 -57,178 -84,-28 -140,-131 -168,-187 -56,37 -103,84 -103,196 -75,-18 -131,-109 -131,-187 -121,-18 -177,56 -205,122 -94,-56 -84,-178 -66,-224 -93,0 -131,18 -159,46 -37,-37 -56,-93 -56,-149 0,-84 66,-159 103,-178 -37,-37 -103,-56 -150,-56 103,-196 468,-290 627,-299 103,-6 243,-84 271,-187 -68,101 -150,140 -280,140 -57,0 -105,-19 -178,-19 -66,0 -37,76 -94,19 -15,-16 -28,-159 10,-168 64,-16 112,28 177,-10 28,-9 56,-93 56,-140 -58,-38 -133,-28 -196,-28 -47,0 -56,0 -65,-47 -6,-27 -10,-47 -10,-112 0,-32 52,-65 84,-65 29,0 23,9 47,9 47,0 89,-25 159,-28 42,-2 17,-64 38,-75 18,-9 39,-9 65,-9 90,-3 187,84 196,-10 1,-5 5,-7 10,-9 z m -703,423 c 20,38 61,73 104,82 7,-8 17,-15 29,-18 41,-10 70,-1 110,4 22,3 38,2 58,-9 l 3,-2 1,0 c 9,-10 21,-42 24,-53 3,-10 6,-21 7,-32 -47,-19 -109,-12 -157,-12 -5,0 -10,0 -15,0 -25,6 -47,6 -60,-9 -56,-65 -149,-150 -177,-150 -19,0 -28,10 -28,28 0,19 9,38 46,38 28,0 42,107 55,133 z"
       id="path22"
       inkscape:connector-curvature="0"
       style="fill:#e32527" /><circle
       class="fil4"
       cy="11000"
       r="3898"
       id="circle24"
       cx="0"
       style="fill:none" /><circle
       class="fil4"
       cy="11000"
       r="3898"
       id="circle26"
       cx="0"
       style="fill:none" /><path
       class="fil5"
       d="m -1828,8856 135,-105 c 12,-9 21,-17 26,-25 6,-7 9,-16 9,-25 -1,-9 -4,-20 -11,-32 -7,-12 -17,-27 -31,-45 -11,-13 -21,-25 -30,-34 -9,-9 -17,-16 -26,-20 -8,-3 -16,-4 -25,-3 -8,2 -18,7 -28,14 l -145,113 126,162 z m -21,140 -245,-315 232,-182 c 7,-5 16,-11 27,-18 10,-7 23,-14 36,-22 21,-13 45,-12 73,1 28,13 59,41 91,82 7,10 17,22 28,37 11,15 23,32 37,51 22,30 31,59 28,87 -3,29 -18,54 -44,75 l -263,204 z m 506,-555 -4,-7 c -5,-9 -10,-15 -15,-18 -4,-4 -10,-6 -16,-5 -6,0 -13,2 -21,5 -8,4 -17,8 -27,14 -11,6 -21,12 -29,17 -8,5 -14,10 -18,16 -5,5 -7,11 -7,18 -1,6 2,13 6,22 l 4,7 127,-69 z m -96,125 c 5,9 10,16 15,21 5,5 10,7 16,8 7,1 14,0 22,-2 8,-3 17,-8 28,-14 15,-8 26,-14 35,-19 9,-5 15,-10 19,-14 4,-5 6,-9 6,-14 -1,-5 -3,-11 -6,-18 l 75,-41 c 9,16 14,31 16,44 2,14 0,26 -6,38 -5,12 -14,23 -27,34 -13,10 -30,21 -51,32 -29,16 -54,29 -76,38 -22,9 -42,13 -59,12 -17,-1 -33,-7 -48,-20 -15,-12 -29,-32 -44,-60 -18,-32 -30,-59 -35,-80 -6,-21 -5,-39 2,-54 6,-15 19,-29 38,-43 19,-13 44,-28 75,-45 24,-13 44,-22 62,-28 18,-5 34,-6 49,-1 11,3 20,8 28,15 8,7 15,15 22,24 6,9 13,20 19,31 6,11 13,24 21,37 l -201,110 5,9 z m 330,-151 c 3,7 7,13 11,16 4,2 9,4 15,4 5,0 12,-2 19,-4 7,-3 15,-6 23,-9 14,-7 26,-12 36,-17 10,-4 17,-9 22,-14 5,-5 8,-10 9,-15 1,-5 0,-11 -3,-18 -3,-7 -6,-11 -10,-14 -4,-2 -9,-3 -15,-3 -6,1 -13,3 -21,6 -8,3 -17,6 -28,11 -11,4 -20,9 -28,13 -9,4 -16,8 -21,12 -5,4 -9,9 -11,14 -2,5 -1,11 2,18 z m 150,-13 c 2,11 1,20 -1,28 -2,8 -6,16 -12,23 -6,6 -14,13 -25,19 -10,6 -22,12 -37,18 -22,9 -40,16 -55,21 -16,4 -29,5 -41,3 -11,-2 -21,-8 -30,-18 -9,-10 -18,-25 -26,-45 -8,-19 -12,-36 -12,-50 1,-13 5,-25 13,-34 7,-10 19,-19 33,-27 15,-7 32,-15 51,-23 12,-6 23,-10 33,-14 9,-4 17,-7 25,-8 7,-2 14,-1 21,0 7,2 15,6 23,11 l -12,-28 c -4,-10 -9,-18 -13,-22 -5,-5 -10,-7 -18,-7 -7,0 -16,2 -27,7 -11,4 -25,10 -42,17 -15,6 -24,11 -29,16 -4,5 -5,12 -1,22 l -79,33 c -7,-18 -10,-33 -8,-46 2,-13 8,-26 19,-37 11,-11 27,-21 47,-32 21,-10 46,-21 76,-34 20,-9 38,-15 54,-18 15,-4 29,-4 41,-1 13,2 23,8 33,18 9,10 18,24 25,42 l 74,174 -82,34 -18,-42 z m 258,-141 c -22,5 -41,9 -59,12 -17,3 -32,3 -45,1 -13,-2 -24,-8 -32,-19 -9,-10 -16,-26 -21,-47 -3,-15 -4,-28 -3,-41 2,-13 6,-24 12,-32 8,-11 22,-21 44,-29 22,-8 51,-17 87,-25 27,-6 50,-11 68,-13 18,-3 33,-3 45,0 13,3 23,9 30,18 8,10 14,23 19,42 l -88,20 c -2,-4 -4,-7 -7,-9 -3,-2 -7,-4 -12,-4 -5,0 -11,0 -19,2 -7,1 -16,3 -27,5 -11,3 -21,5 -29,7 -9,3 -16,5 -21,8 -6,3 -10,6 -12,11 -2,4 -3,9 -1,15 1,5 3,9 6,11 3,2 7,3 13,3 6,0 13,-1 21,-3 8,-2 19,-4 31,-7 5,-1 10,-3 16,-4 6,-2 11,-3 16,-4 23,-5 42,-9 59,-12 17,-2 31,-2 43,1 12,4 21,10 29,20 7,10 13,24 18,43 5,21 6,38 4,52 -2,14 -8,26 -19,36 -11,10 -27,19 -47,26 -21,8 -48,15 -80,22 -25,6 -48,11 -67,14 -19,3 -35,3 -49,1 -14,-3 -26,-10 -35,-20 -10,-11 -17,-27 -22,-49 l 88,-21 c 1,7 4,12 7,15 3,3 8,5 14,6 6,0 13,0 22,-2 9,-1 19,-4 31,-6 14,-4 26,-6 35,-9 10,-2 18,-5 23,-8 6,-3 10,-7 12,-11 2,-5 2,-10 0,-17 -2,-10 -7,-15 -14,-15 -7,-1 -19,1 -34,4 l -50,12 z m 549,-127 0,-76 228,-1 c 0,31 0,58 0,81 0,23 -1,43 -3,60 -2,17 -5,32 -10,43 -5,11 -12,21 -22,28 -10,7 -23,12 -39,14 -16,3 -37,5 -61,5 -11,0 -21,0 -32,0 -11,0 -22,-1 -32,-1 l -31,1 c -37,0 -68,-1 -94,-4 -26,-2 -47,-9 -64,-20 -16,-11 -28,-28 -35,-51 -8,-23 -11,-54 -11,-95 -1,-13 0,-29 0,-50 1,-21 2,-46 3,-76 0,-12 3,-25 7,-37 4,-12 10,-22 17,-32 6,-9 14,-17 23,-23 9,-6 18,-10 28,-12 20,-3 40,-5 60,-6 20,-2 40,-2 60,-2 27,0 52,-1 73,-1 22,0 41,1 57,3 17,1 31,4 43,8 12,3 22,9 30,17 8,7 14,14 18,22 5,8 8,17 10,26 2,9 3,19 4,30 0,11 1,22 1,35 l -100,0 c 0,-10 -2,-18 -4,-24 -2,-6 -5,-10 -11,-13 -5,-3 -12,-5 -21,-6 -9,-1 -21,-1 -35,-1 l -26,0 c -9,0 -18,0 -26,0 -9,0 -17,0 -24,0 -17,0 -31,0 -42,1 -10,0 -19,3 -26,9 -7,6 -11,15 -14,27 -2,13 -4,31 -4,55 0,22 1,41 2,55 1,15 3,27 6,36 3,10 7,17 13,21 6,5 14,8 25,10 10,2 22,3 38,3 15,0 33,0 55,0 16,0 30,0 42,0 12,-1 22,-2 30,-5 8,-3 14,-7 17,-14 4,-7 6,-16 6,-30 0,-2 0,-4 0,-5 0,-1 0,-3 0,-5 l -129,0 z m 510,108 c -7,23 -19,38 -36,47 -18,8 -42,11 -74,9 -22,-2 -41,-6 -57,-11 -16,-6 -28,-14 -38,-25 -10,-11 -16,-24 -20,-41 -4,-17 -5,-38 -3,-63 l 12,-155 88,6 -11,146 c -1,13 -1,24 1,32 1,8 5,14 11,19 5,5 13,8 23,11 10,2 23,4 39,5 36,2 59,-11 67,-40 1,-4 2,-10 3,-17 1,-7 2,-14 2,-22 l 10,-123 86,7 -21,279 -87,-6 5,-58 z m 620,-57 c 4,-12 5,-22 4,-29 0,-7 -4,-12 -10,-17 -6,-5 -16,-10 -29,-14 -12,-4 -29,-9 -50,-16 -24,-7 -44,-13 -58,-17 -15,-4 -27,-5 -37,-2 -10,2 -18,9 -25,20 -6,10 -13,27 -20,49 -8,28 -15,50 -18,66 -3,16 -2,29 2,39 5,9 15,17 29,23 15,6 36,13 62,21 20,7 37,12 51,16 13,4 24,6 33,5 9,0 16,-4 21,-10 6,-7 11,-17 16,-32 l 95,29 c -1,3 -1,6 -2,9 -1,2 -1,5 -2,8 -6,19 -13,36 -19,51 -7,14 -15,25 -23,34 -8,9 -18,15 -28,18 -11,4 -22,4 -36,2 -21,-4 -41,-8 -60,-12 -19,-5 -36,-9 -51,-14 -50,-15 -96,-31 -138,-48 -17,-7 -30,-15 -39,-27 -10,-11 -16,-25 -19,-42 -2,-17 -2,-37 2,-60 3,-24 10,-51 19,-82 6,-19 12,-37 17,-53 6,-16 11,-31 18,-44 6,-13 13,-24 21,-34 8,-10 17,-18 28,-25 10,-7 22,-11 34,-12 12,-2 26,-2 41,0 15,2 32,6 50,11 18,5 39,11 61,18 40,12 72,23 96,33 25,10 43,21 55,34 12,14 18,31 18,51 0,21 -5,48 -15,82 l -94,-29 z m 167,246 c -3,7 -4,13 -4,18 1,6 3,10 7,14 4,4 9,8 16,11 6,4 14,8 22,12 14,6 26,11 36,15 10,4 19,7 26,7 7,1 12,0 17,-3 4,-3 8,-7 11,-14 3,-7 5,-12 4,-17 -1,-4 -4,-9 -8,-13 -4,-4 -10,-8 -18,-12 -7,-4 -17,-8 -27,-13 -11,-5 -20,-9 -29,-13 -8,-4 -16,-6 -23,-7 -6,-1 -12,-1 -17,1 -5,2 -9,7 -13,14 z m 110,103 c -6,8 -14,14 -21,17 -8,4 -16,6 -25,6 -9,0 -19,-1 -31,-5 -11,-3 -24,-9 -39,-15 -20,-10 -38,-19 -51,-28 -14,-8 -24,-17 -30,-27 -6,-11 -8,-22 -7,-35 2,-14 7,-30 16,-49 9,-20 19,-34 29,-42 10,-9 22,-14 34,-15 13,0 27,2 42,8 16,5 33,13 52,22 12,6 23,11 32,15 9,4 17,8 23,13 6,5 11,10 14,16 3,7 6,15 7,24 l 13,-27 c 5,-10 7,-19 7,-25 1,-6 -1,-12 -6,-17 -5,-6 -13,-11 -23,-16 -11,-6 -25,-12 -42,-20 -13,-7 -24,-10 -30,-10 -7,-1 -13,4 -18,13 l -77,-36 c 8,-18 18,-30 29,-37 11,-8 24,-11 40,-10 15,1 34,5 55,13 22,9 47,20 77,34 19,9 36,18 49,27 13,10 23,20 29,30 6,11 8,23 7,37 -1,13 -5,29 -13,47 l -81,171 -80,-38 19,-41 z m 471,13 -37,58 -119,-76 -48,74 c -3,6 -7,12 -10,18 -3,5 -5,11 -6,16 -1,5 0,10 3,15 2,5 8,10 16,15 7,5 14,8 20,9 5,1 10,0 14,-3 5,-2 9,-6 12,-11 4,-6 8,-12 13,-19 l 57,37 c -6,9 -11,17 -16,25 -6,7 -11,14 -15,21 -5,6 -11,12 -16,16 -6,5 -12,9 -18,12 -15,6 -29,6 -43,2 -14,-5 -30,-13 -48,-25 -18,-11 -33,-22 -45,-33 -12,-10 -20,-22 -25,-33 -5,-12 -7,-24 -4,-38 3,-13 9,-29 20,-46 l 65,-100 -38,-24 38,-59 37,25 38,-59 75,48 -38,59 118,76 z m 207,4 -109,128 c 10,-6 19,-10 27,-12 9,-2 17,-3 25,-1 9,2 18,5 27,11 9,6 19,13 30,23 15,13 28,26 39,38 10,13 16,28 19,44 3,17 1,34 -5,50 -7,17 -18,35 -35,55 l -102,118 -67,-57 91,-106 c 8,-10 14,-18 19,-26 5,-7 8,-14 8,-21 0,-7 -3,-14 -8,-22 -6,-8 -15,-17 -27,-27 -11,-10 -21,-17 -30,-21 -8,-5 -17,-7 -25,-7 -8,1 -16,4 -24,9 -9,6 -18,15 -27,26 -3,3 -4,5 -5,7 -2,2 -3,4 -5,6 l -76,89 -67,-58 260,-304 67,58 z"
       id="path28"
       inkscape:connector-curvature="0"
       style="fill:#ffffff;fill-rule:nonzero" /><path
       class="fil5"
       d="m -3187,11696 -46,8 -48,-283 185,131 c 23,16 42,28 59,34 16,7 31,9 43,7 17,-3 30,-11 38,-26 8,-14 10,-32 6,-53 -3,-19 -11,-34 -23,-45 -12,-11 -26,-16 -43,-15 l -11,-66 c 31,-5 59,3 82,25 23,23 38,55 46,98 7,41 3,75 -10,101 -14,27 -36,43 -66,48 -21,3 -44,0 -68,-10 -24,-9 -61,-33 -110,-70 l -61,-45 27,161 z m -13,137 222,-64 17,57 -37,11 c 19,8 35,19 46,33 12,15 22,34 28,57 6,20 8,38 7,53 -1,16 -5,29 -14,40 -4,6 -10,12 -18,16 -7,5 -21,10 -42,16 l -134,39 -18,-62 114,-33 c 29,-8 47,-18 54,-30 7,-11 8,-27 2,-49 -5,-14 -10,-27 -18,-36 -8,-10 -16,-17 -26,-21 -7,-3 -15,-5 -23,-4 -9,1 -23,4 -41,9 l -101,29 -18,-61 z m 301,497 c 22,-9 36,-23 42,-41 7,-18 6,-37 -4,-59 -10,-22 -24,-37 -43,-43 -18,-7 -38,-6 -60,4 -23,10 -37,24 -44,42 -7,17 -5,37 5,59 9,21 24,35 43,43 19,7 39,5 61,-5 z m 238,-109 26,58 -345,156 -26,-58 27,-13 c -17,-4 -31,-12 -43,-24 -12,-11 -23,-25 -31,-43 -16,-36 -18,-69 -7,-98 11,-30 34,-53 70,-69 33,-15 65,-17 95,-5 31,11 53,34 69,68 9,21 13,40 13,58 -1,18 -6,33 -17,46 l 169,-76 z m -160,502 300,-194 38,58 -300,195 -38,-59 z m 308,97 8,10 c 23,29 41,46 54,51 13,5 27,2 41,-9 16,-12 23,-26 21,-41 -2,-16 -13,-37 -35,-65 l -8,-10 -81,64 z m -38,24 -126,99 -40,-52 282,-220 59,76 c 18,23 30,41 38,55 7,15 11,28 12,42 2,15 -1,30 -7,44 -6,15 -16,27 -29,37 -22,17 -45,25 -68,22 -23,-4 -46,-17 -68,-40 l -37,216 -49,-62 38,-211 -5,-6 z m 255,241 8,9 c 26,26 46,41 59,45 14,4 27,-1 40,-13 14,-14 20,-28 17,-43 -4,-15 -18,-35 -42,-61 l -9,-9 -73,72 z m -36,28 -115,111 -45,-47 257,-248 67,69 c 20,21 34,38 43,52 9,13 14,26 17,39 3,16 2,31 -3,46 -5,14 -13,27 -24,38 -21,20 -43,30 -66,29 -23,0 -47,-11 -72,-32 l -15,219 -54,-57 16,-214 -6,-5 z m 96,321 236,-268 180,158 -33,37 -127,-112 -59,67 127,112 -34,39 -127,-113 -76,87 127,112 -34,39 -180,-158 z m 561,200 143,91 c -1,2 -3,5 -5,8 -6,11 -10,17 -12,21 -27,42 -62,66 -106,71 -44,5 -93,-9 -146,-43 -30,-18 -54,-39 -73,-61 -18,-22 -32,-46 -40,-71 -8,-26 -10,-51 -7,-77 3,-25 12,-49 26,-72 15,-22 33,-41 54,-54 22,-13 46,-22 74,-25 26,-3 54,-1 83,6 28,8 56,20 83,37 29,18 52,39 69,62 17,22 28,48 35,77 l -60,0 c -5,-19 -13,-37 -25,-52 -12,-16 -27,-29 -46,-41 -39,-25 -78,-35 -116,-30 -38,6 -68,25 -89,59 -22,34 -27,69 -15,106 11,37 37,68 76,93 34,22 65,32 92,31 28,-1 49,-13 63,-35 l 3,-5 -88,-55 27,-41 z m 281,-30 63,29 -90,198 c -14,29 -16,54 -6,77 9,22 30,40 62,55 32,15 60,19 83,11 23,-7 41,-25 55,-54 l 90,-198 64,29 -93,202 c -20,44 -49,71 -85,81 -37,9 -82,2 -136,-23 -54,-24 -88,-54 -105,-87 -16,-34 -15,-73 6,-117 l 92,-203 z m 288,512 121,-337 66,24 -103,287 146,53 -17,49 -213,-76 z m 407,-25 118,20 -30,-87 c -2,-6 -3,-12 -5,-19 -1,-8 -3,-15 -4,-24 -4,7 -7,14 -11,20 -4,6 -8,12 -11,17 l -57,73 z m 167,171 -33,-99 -168,-28 -64,82 -72,-12 266,-332 143,401 -72,-12 z m 224,-176 12,1 c 37,3 62,1 75,-5 12,-6 19,-19 21,-37 1,-19 -4,-34 -17,-43 -12,-9 -36,-15 -71,-17 l -12,-1 -8,102 z m -8,45 -12,159 -65,-5 27,-356 97,7 c 28,2 50,5 66,10 15,4 28,10 39,18 12,10 22,22 28,36 6,14 8,29 7,45 -2,29 -12,51 -30,66 -17,14 -43,22 -75,23 l 135,173 -79,-6 -130,-170 -8,0 z m 799,-134 c -21,-11 -43,-19 -66,-23 -23,-4 -46,-4 -70,-1 -46,6 -82,24 -108,53 -26,29 -36,63 -31,102 5,38 24,68 56,89 31,21 69,28 112,23 25,-4 48,-11 70,-21 22,-11 42,-25 61,-43 l 9,65 c -17,14 -36,25 -57,33 -22,9 -45,15 -70,18 -33,5 -63,4 -92,-1 -29,-5 -55,-15 -78,-29 -23,-14 -42,-32 -56,-53 -14,-22 -23,-46 -27,-72 -3,-26 -1,-51 7,-75 8,-24 21,-46 40,-67 19,-20 41,-36 67,-49 26,-13 55,-21 87,-26 25,-3 49,-3 72,0 24,3 47,9 70,18 l 4,59 z m 206,93 116,-26 -61,-70 c -3,-4 -7,-10 -12,-16 -4,-6 -8,-12 -13,-20 0,8 -1,16 -2,23 -1,7 -2,14 -4,20 l -24,89 z m 219,94 -68,-79 -165,38 -28,101 -72,17 119,-409 286,315 -72,17 z m 396,-333 c -2,-2 -6,-9 -12,-20 -6,-9 -10,-17 -14,-23 2,9 2,17 2,26 0,9 0,18 -2,28 l -33,218 -177,-139 c -7,-5 -14,-11 -20,-17 -5,-5 -11,-11 -16,-17 3,7 5,14 7,23 2,8 3,16 4,26 l 22,180 -59,24 -44,-384 201,163 c 3,2 8,7 15,13 7,6 15,14 25,23 0,-11 1,-25 3,-43 1,-5 1,-9 2,-11 l 31,-255 234,307 -60,24 -109,-146 z m 239,74 -176,-311 209,-118 24,43 -148,83 44,78 148,-83 25,45 -148,83 57,101 148,-84 25,45 -208,118 z m 234,-385 11,-7 c 30,-22 48,-39 53,-52 6,-13 4,-26 -7,-41 -11,-16 -25,-24 -40,-23 -15,1 -37,12 -66,32 l -10,8 59,83 z m 23,39 93,130 -53,38 -208,-291 79,-56 c 24,-17 43,-28 57,-35 15,-6 29,-10 42,-11 16,0 30,3 44,10 14,7 26,17 35,30 17,23 23,46 19,69 -4,23 -18,45 -43,67 l 215,46 -64,46 -209,-47 -7,4 z m 476,-427 c -13,-13 -28,-23 -45,-29 -17,-6 -35,-9 -54,-8 -19,1 -38,6 -57,14 -18,9 -35,20 -50,35 -15,15 -27,31 -36,49 -9,18 -15,37 -17,56 -2,19 0,38 6,55 5,17 15,32 27,45 13,13 28,23 44,29 17,6 35,9 55,7 19,-1 38,-5 56,-14 19,-8 36,-20 51,-35 15,-14 27,-30 36,-48 9,-18 14,-37 16,-56 2,-20 0,-38 -5,-55 -6,-17 -15,-32 -27,-45 z m 52,-51 c 18,19 30,40 38,64 7,24 9,50 6,78 -4,28 -12,55 -26,82 -13,26 -31,49 -53,70 -22,22 -46,39 -73,51 -27,13 -54,20 -82,23 -28,2 -54,-1 -78,-9 -23,-8 -44,-22 -62,-40 -18,-19 -30,-40 -38,-64 -7,-24 -10,-50 -6,-78 3,-28 12,-55 25,-81 14,-26 32,-50 54,-72 22,-21 46,-38 73,-50 26,-13 53,-20 81,-23 29,-2 55,1 79,9 24,9 44,22 62,40 z m 190,44 -290,-233 341,-76 c 10,-2 19,-3 30,-5 10,-2 21,-3 33,-4 l -193,-155 40,-50 290,232 -348,78 c -9,2 -18,4 -28,5 -10,1 -19,2 -29,2 l 194,156 -40,50 z m 300,-413 -311,-177 35,-60 310,177 -34,60 z m 14,-309 50,-108 -93,6 c -5,0 -12,0 -19,-1 -8,0 -16,-1 -24,-2 6,6 11,11 17,16 5,5 9,11 13,15 l 56,74 z m 208,-116 -104,5 -71,155 63,84 -31,66 -251,-344 425,-33 -31,67 z m 53,-131 -351,-121 295,-187 c 9,-4 17,-9 26,-14 9,-5 20,-10 31,-15 l -235,-81 21,-61 351,121 -300,190 c -9,5 -17,10 -26,15 -8,4 -17,8 -26,11 l 235,81 -21,61 z m 70,-475 -12,-59 c 17,-2 31,-10 41,-22 11,-13 18,-30 21,-51 4,-21 2,-38 -5,-52 -8,-13 -20,-21 -35,-24 -21,-4 -43,14 -66,53 -4,5 -6,9 -8,12 -27,43 -49,72 -67,84 -18,13 -38,18 -60,14 -29,-5 -50,-20 -64,-47 -14,-26 -18,-58 -11,-96 5,-31 15,-57 28,-76 14,-19 31,-31 51,-36 l 14,57 c -13,7 -22,15 -29,24 -7,9 -12,21 -14,34 -3,18 -1,34 5,46 6,12 16,19 29,22 21,3 45,-17 72,-62 2,-4 3,-6 4,-8 24,-39 44,-65 62,-78 18,-13 38,-18 61,-14 34,6 58,23 74,51 15,29 19,65 12,108 -6,36 -18,64 -36,85 -18,20 -40,32 -67,35 z"
       id="path30"
       inkscape:connector-curvature="0"
       style="fill:#ffffff;fill-rule:nonzero" /><path
       class="fil6"
       d="m -70,9262 c 24,4 41,-12 47,8 5,17 -19,23 -27,33 -7,9 -9,24 -25,22 -18,-2 -36,-19 -36,-37 0,-17 17,-30 41,-26 z"
       id="path32"
       inkscape:connector-curvature="0"
       style="fill:#000000" /></g></svg>