<?xml version="1.0" encoding="UTF-8" standalone="no"?>
<!-- Creator: CorelDRAW X7 -->

<svg
   xmlns:dc="http://purl.org/dc/elements/1.1/"
   xmlns:cc="http://creativecommons.org/ns#"
   xmlns:rdf="http://www.w3.org/1999/02/22-rdf-syntax-ns#"
   xmlns:svg="http://www.w3.org/2000/svg"
   xmlns="http://www.w3.org/2000/svg"
   xmlns:sodipodi="http://sodipodi.sourceforge.net/DTD/sodipodi-0.dtd"
   xmlns:inkscape="http://www.inkscape.org/namespaces/inkscape"
   xml:space="preserve"
   width="7.8740005in"
   height="7.8740005in"
   version="1.1"
   style="clip-rule:evenodd;fill-rule:evenodd;image-rendering:optimizeQuality;shape-rendering:geometricPrecision;text-rendering:geometricPrecision"
   viewBox="0 0 7874.0005 7874.0005"
   id="svg3711"
   inkscape:version="0.91 r13725"
   sodipodi:docname="Ariadna - Hardcases - [N3] [Vyo].svg"><metadata
     id="metadata3788"><rdf:RDF><cc:Work
         rdf:about=""><dc:format>image/svg+xml</dc:format><dc:type
           rdf:resource="http://purl.org/dc/dcmitype/StillImage" /></cc:Work></rdf:RDF></metadata><sodipodi:namedview
     pagecolor="#ffffff"
     bordercolor="#666666"
     borderopacity="1"
     objecttolerance="10"
     gridtolerance="10"
     guidetolerance="10"
     inkscape:pageopacity="0"
     inkscape:pageshadow="2"
     inkscape:window-width="640"
     inkscape:window-height="480"
     id="namedview3786"
     showgrid="false"
     inkscape:zoom="0.23838384"
     inkscape:cx="736.83001"
     inkscape:cy="849.33005"
     inkscape:window-x="0"
     inkscape:window-y="0"
     inkscape:window-maximized="0"
     inkscape:current-layer="svg3711" /><defs
     id="defs3713"><style
       type="text/css"
       id="style3715"><![CDATA[
    .fil5 {fill:none}
    .fil3 {fill:#356079}
    .fil0 {fill:#356079}
    .fil1 {fill:#FFD937}
    .fil4 {fill:#356079;fill-rule:nonzero}
    .fil2 {fill:#356079;fill-rule:nonzero}
   ]]></style></defs><g
     id="Layer_x0020_1"
     transform="translate(3937,-7063)"><metadata
       id="CorelCorpID_0Corel-Layer" /><circle
       class="fil0"
       cy="11000"
       r="3937"
       id="circle3719"
       cx="0"
       style="fill:#356079" /><circle
       class="fil1"
       cy="11000"
       r="3799"
       id="circle3721"
       cx="0"
       style="fill:#ffd937" /><circle
       class="fil0"
       cy="11000"
       r="3740"
       id="circle3723"
       cx="0"
       style="fill:#356079" /><circle
       class="fil1"
       cy="11000"
       r="3602"
       id="circle3725"
       cx="0"
       style="fill:#ffd937" /><circle
       class="fil0"
       cy="11000"
       r="2874"
       id="circle3727"
       cx="0"
       style="fill:#356079" /><polygon
       class="fil2"
       points="-2808,12262 -2769,12331 -2856,12379 -2770,12535 -2683,12488 -2645,12558 -2872,12682 -2910,12613 -2829,12568 -2915,12411 -2996,12456 -3035,12386 "
       id="polygon3729"
       style="fill:#356079;fill-rule:nonzero" /><path
       id="1"
       class="fil2"
       d="m -3001,12029 -81,83 115,23 -34,-106 z m 43,-44 50,160 53,11 26,84 -291,-61 -32,-101 205,-213 26,83 -37,37 z"
       inkscape:connector-curvature="0"
       style="fill:#356079;fill-rule:nonzero" /><path
       id="2"
       class="fil2"
       d="m -3103,11781 -27,-116 c 0,-2 0,-4 0,-5 -1,-1 -1,-3 -1,-5 -2,-9 -5,-16 -7,-21 -2,-5 -5,-8 -8,-10 -3,-2 -7,-3 -12,-3 -5,1 -11,2 -18,3 -6,2 -12,4 -15,6 -4,2 -6,5 -8,9 -1,4 -2,9 -1,14 1,6 2,13 4,21 l 28,122 65,-15 z m 61,-14 65,-15 18,78 -253,57 -54,-235 c -3,-15 -5,-29 -4,-40 0,-12 3,-21 8,-30 4,-8 12,-14 21,-20 10,-5 22,-9 36,-13 15,-3 28,-5 37,-4 10,0 17,2 23,6 7,3 12,8 16,14 4,7 8,14 13,22 0,-8 -1,-15 -1,-21 0,-7 1,-13 3,-18 2,-6 6,-10 12,-15 5,-4 14,-7 25,-10 l 46,-10 17,78 -33,7 c -11,3 -18,7 -22,12 -4,6 -5,16 -2,29 l 29,128 z"
       inkscape:connector-curvature="0"
       style="fill:#356079;fill-rule:nonzero" /><path
       id="3"
       class="fil2"
       d="m -3112,11388 -11,-133 c -1,-11 -3,-20 -5,-27 -2,-7 -5,-13 -10,-17 -6,-3 -13,-6 -22,-6 -9,-1 -21,-1 -35,0 -11,1 -21,2 -29,4 -8,2 -15,4 -20,8 -4,4 -8,9 -10,15 -2,6 -3,14 -2,24 l 12,143 132,-11 z m 69,74 -258,21 -19,-228 c 0,-7 0,-16 0,-25 0,-10 0,-21 0,-33 0,-19 9,-35 26,-47 17,-12 43,-20 77,-23 7,0 17,-1 29,-1 12,-1 26,-2 42,-2 23,-1 42,5 57,20 15,14 23,34 25,61 l 21,257 z"
       inkscape:connector-curvature="0"
       style="fill:#356079;fill-rule:nonzero" /><path
       id="4"
       class="fil2"
       d="m -3235,10829 c -8,0 -14,1 -18,3 -4,2 -7,6 -9,12 -2,5 -3,14 -3,24 0,11 0,24 -1,41 0,20 0,36 1,48 0,11 2,21 5,27 4,7 9,12 17,14 8,3 19,4 34,4 19,0 34,0 45,-2 10,-1 18,-4 23,-10 5,-6 8,-15 9,-27 1,-12 2,-29 2,-51 0,-16 0,-30 0,-41 0,-10 -1,-19 -3,-25 -2,-7 -5,-11 -10,-14 -6,-3 -13,-4 -23,-4 l 0,-78 c 2,0 4,0 6,0 2,0 3,0 6,0 13,0 24,1 34,2 11,2 19,5 26,9 7,5 13,10 17,17 4,7 6,16 7,26 2,17 3,33 4,48 1,15 1,28 1,41 0,41 -1,78 -4,114 -1,13 -4,25 -9,35 -5,9 -13,17 -23,23 -10,6 -23,10 -38,13 -15,2 -33,4 -54,3 -13,0 -25,0 -36,0 -11,-1 -21,-2 -30,-3 -9,-2 -18,-5 -25,-8 -8,-4 -15,-9 -21,-15 -6,-7 -11,-15 -14,-23 -4,-9 -6,-19 -7,-31 -2,-12 -3,-25 -3,-40 0,-14 0,-31 0,-49 0,-32 1,-58 2,-79 2,-20 5,-37 11,-49 6,-11 16,-20 28,-24 13,-5 31,-7 54,-7 l -1,76 z"
       inkscape:connector-curvature="0"
       style="fill:#356079;fill-rule:nonzero" /><path
       id="5"
       class="fil2"
       d="m -3124,10462 -110,40 94,70 16,-110 z m 57,-21 -24,166 43,32 -12,87 -236,-180 15,-105 276,-104 -12,86 -50,18 z"
       inkscape:connector-curvature="0"
       style="fill:#356079;fill-rule:nonzero" /><path
       id="6"
       class="fil2"
       d="m -3104,10034 c -6,-2 -11,-2 -15,-1 -3,1 -7,3 -10,7 -3,4 -5,9 -8,16 -2,7 -5,16 -8,27 -1,2 -1,4 -2,5 0,1 0,3 -1,5 -4,17 -7,30 -10,41 -3,11 -5,20 -6,27 -1,7 0,13 2,17 2,3 6,6 13,8 7,2 12,1 16,-2 5,-4 8,-10 11,-18 3,-11 6,-21 10,-31 3,-10 6,-20 8,-28 2,-6 3,-11 5,-17 1,-5 2,-11 4,-16 6,-20 12,-38 17,-53 5,-15 12,-26 20,-35 8,-8 17,-13 29,-15 11,-2 26,0 45,5 13,4 23,8 32,13 8,5 14,11 19,18 4,7 6,16 7,25 1,9 1,19 -1,31 -2,7 -4,20 -9,40 -4,19 -11,44 -19,74 -9,29 -17,53 -24,71 -7,18 -15,30 -23,37 -6,5 -12,8 -17,9 -6,2 -12,2 -18,2 -6,-1 -12,-2 -18,-4 -6,-1 -13,-3 -21,-5 l 22,-76 c 3,1 5,2 8,3 3,1 6,1 9,0 3,0 6,-2 8,-5 3,-2 6,-7 8,-14 1,-3 3,-9 6,-18 3,-8 6,-19 10,-33 5,-17 9,-32 12,-43 3,-11 4,-20 5,-26 0,-7 -1,-12 -3,-15 -3,-3 -7,-5 -13,-7 -5,-2 -10,-2 -13,0 -4,1 -7,3 -10,7 -2,4 -5,9 -7,15 -2,6 -4,12 -6,19 -7,24 -13,46 -18,65 -6,19 -11,35 -16,49 -5,14 -10,25 -15,34 -5,9 -12,15 -19,20 -7,4 -15,6 -25,6 -10,0 -21,-2 -35,-6 -12,-3 -23,-7 -31,-12 -8,-5 -15,-10 -19,-17 -5,-7 -8,-15 -9,-24 -1,-9 -1,-20 1,-32 2,-8 4,-22 8,-40 5,-18 10,-40 18,-67 4,-14 8,-27 11,-38 4,-12 7,-22 11,-30 3,-9 7,-16 11,-22 3,-7 8,-12 13,-15 6,-5 11,-8 17,-10 5,-2 10,-2 16,-2 6,0 12,0 18,1 6,2 13,3 20,5 l -21,75 z"
       inkscape:connector-curvature="0"
       style="fill:#356079;fill-rule:nonzero" /><polygon
       id="7"
       class="fil2"
       points="-2977,9624 -3051,9821 -3009,9837 -2940,9653 -2892,9671 -2961,9855 -2918,9871 -2844,9674 -2789,9694 -2891,9965 -3133,9874 -3032,9603 "
       style="fill:#356079;fill-rule:nonzero" /><path
       id="8"
       class="fil2"
       d="m -2808,9365 c -6,-3 -10,-5 -14,-5 -4,0 -8,2 -12,5 -3,3 -7,8 -11,14 -4,6 -9,14 -15,24 -1,2 -2,4 -2,5 -1,1 -2,2 -2,4 -8,15 -15,28 -20,38 -6,10 -10,18 -12,25 -3,6 -3,12 -2,16 1,4 5,8 11,12 6,3 11,3 16,1 6,-3 10,-7 15,-15 5,-10 11,-19 17,-28 5,-9 10,-18 14,-26 3,-4 6,-9 8,-15 3,-5 6,-10 8,-14 11,-19 21,-35 29,-48 9,-13 18,-23 28,-30 9,-6 20,-9 32,-8 11,1 25,6 42,16 12,6 21,13 28,20 7,7 12,14 14,22 3,8 3,16 2,25 -1,9 -4,19 -9,30 -3,7 -8,19 -17,37 -9,18 -21,40 -37,68 -15,26 -28,48 -39,64 -11,16 -21,26 -31,31 -7,3 -13,4 -19,5 -6,0 -11,-1 -17,-3 -5,-2 -11,-4 -17,-7 -6,-4 -12,-7 -19,-11 l 39,-68 c 2,2 5,3 7,5 3,1 6,2 9,2 2,0 5,-1 9,-3 3,-2 7,-6 11,-12 2,-3 5,-8 10,-16 4,-8 10,-18 17,-30 9,-16 16,-29 22,-39 5,-10 9,-19 11,-25 1,-7 2,-12 0,-15 -2,-4 -5,-7 -10,-10 -5,-3 -10,-4 -14,-3 -4,0 -7,2 -11,5 -3,3 -6,7 -10,12 -3,6 -6,11 -10,18 -12,22 -24,41 -33,59 -10,17 -18,32 -26,44 -8,12 -16,22 -23,29 -7,8 -15,13 -23,15 -8,3 -17,3 -26,1 -9,-3 -20,-7 -33,-14 -11,-6 -20,-13 -27,-19 -7,-7 -12,-14 -15,-21 -3,-8 -4,-16 -3,-25 1,-9 4,-20 9,-31 3,-8 8,-20 17,-37 8,-16 19,-37 32,-61 8,-13 14,-25 20,-35 6,-10 12,-19 17,-27 5,-7 11,-13 16,-19 5,-5 11,-9 16,-11 7,-3 13,-5 18,-5 6,-1 12,-1 17,1 6,1 11,3 17,6 6,2 12,5 19,9 l -38,68 z"
       inkscape:connector-curvature="0"
       style="fill:#356079;fill-rule:nonzero" /><path
       id="9"
       class="fil2"
       d="m -2598,9232 69,45 c 10,6 17,12 22,18 5,6 8,13 9,20 1,7 -1,15 -4,23 -3,9 -8,18 -14,29 -2,2 -4,5 -6,8 -2,3 -4,6 -5,8 l -35,-22 c 1,-1 2,-2 3,-3 1,-1 2,-2 2,-3 6,-8 7,-15 4,-20 -2,-6 -7,-11 -15,-16 l -11,18 -61,-39 42,-66 z"
       inkscape:connector-curvature="0"
       style="fill:#356079;fill-rule:nonzero" /><path
       id="10"
       class="fil2"
       d="m -2298,8885 38,34 -201,228 -48,-42 c -14,-13 -23,-24 -27,-34 -5,-10 -5,-21 -1,-32 3,-11 10,-23 19,-36 10,-14 22,-30 37,-48 13,-18 24,-32 32,-42 8,-11 13,-19 16,-26 3,-6 4,-12 2,-16 -1,-4 -5,-9 -11,-15 -5,-4 -10,-7 -15,-8 -4,0 -9,1 -14,5 -4,3 -10,9 -17,16 -6,7 -14,17 -24,27 -13,15 -23,28 -31,37 -7,9 -11,17 -11,24 0,4 0,7 1,9 1,3 3,5 5,7 1,3 3,5 6,7 2,2 5,4 7,7 l -47,54 -14,-13 c -14,-12 -23,-23 -28,-32 -6,-10 -6,-21 -2,-33 4,-13 13,-28 27,-45 14,-18 33,-41 58,-69 16,-18 30,-33 42,-45 12,-12 23,-21 34,-26 11,-4 22,-5 33,-2 11,4 24,12 38,25 19,15 30,30 36,44 5,14 3,28 -5,42 -8,13 -16,26 -27,40 -10,14 -21,28 -33,43 -14,18 -25,31 -32,41 -7,9 -11,17 -13,23 -1,5 0,10 3,13 3,4 7,8 13,13 l 154,-175 z"
       inkscape:connector-curvature="0"
       style="fill:#356079;fill-rule:nonzero" /><path
       id="11"
       class="fil2"
       d="m -2271,8723 c -4,-7 -6,-14 -6,-21 -1,-6 0,-13 3,-20 3,-7 7,-15 14,-23 6,-8 15,-17 26,-27 17,-17 34,-27 49,-31 16,-4 32,-2 47,6 6,3 12,7 17,12 5,5 10,10 15,15 l 66,70 -50,47 -66,-69 c -6,-6 -11,-10 -15,-13 -5,-3 -9,-4 -14,-3 -5,0 -10,3 -16,7 -6,4 -13,10 -22,18 -9,9 -15,17 -19,23 -4,7 -6,14 -6,20 0,6 2,11 6,17 3,6 8,12 14,18 l 56,59 -49,46 -125,-132 49,-46 26,27 z"
       inkscape:connector-curvature="0"
       style="fill:#356079;fill-rule:nonzero" /><path
       id="12"
       class="fil2"
       d="m -1990,8485 c -11,8 -19,15 -25,21 -5,6 -9,12 -10,17 -1,6 0,11 3,17 3,6 8,13 15,21 5,7 10,13 15,16 4,3 9,4 14,3 5,0 10,-2 17,-6 6,-4 13,-9 21,-16 12,-9 21,-17 28,-23 7,-6 11,-12 13,-18 3,-5 3,-11 0,-17 -2,-6 -7,-13 -13,-21 -6,-8 -12,-14 -17,-18 -6,-3 -11,-4 -17,-4 -6,1 -12,4 -19,9 -7,4 -16,11 -25,19 z m 111,36 c 3,8 5,15 5,22 0,7 -1,13 -4,20 -3,7 -8,13 -14,20 -7,7 -15,14 -24,22 -18,14 -33,24 -45,31 -13,7 -25,11 -36,11 -11,1 -21,-2 -31,-9 -10,-6 -20,-16 -31,-30 -12,-16 -21,-29 -27,-41 -7,-12 -10,-23 -9,-34 1,-11 7,-23 16,-34 9,-12 23,-25 42,-40 9,-7 17,-13 24,-18 8,-5 14,-8 21,-10 6,-3 13,-4 20,-3 7,0 14,1 23,4 l -66,-84 52,-41 160,205 -52,40 -24,-31 z"
       inkscape:connector-curvature="0"
       style="fill:#356079;fill-rule:nonzero" /><polygon
       id="13"
       class="fil2"
       points="-1822,8214 -1755,8170 -1614,8387 -1680,8431 "
       style="fill:#356079;fill-rule:nonzero" /><path
       id="14"
       class="fil2"
       d="m -1561,8206 104,-58 c 2,-1 4,-1 5,-2 1,0 2,-1 4,-2 8,-5 15,-9 19,-12 4,-4 7,-7 8,-11 1,-4 0,-8 -1,-12 -2,-4 -5,-10 -8,-16 -4,-6 -7,-11 -10,-14 -3,-3 -7,-4 -11,-5 -4,0 -8,1 -14,3 -5,3 -11,6 -19,10 l -109,60 32,59 z m 30,55 33,58 -70,38 -125,-227 211,-116 c 14,-7 27,-13 38,-15 11,-3 21,-3 30,-1 9,3 18,8 25,15 8,8 15,18 23,31 7,14 12,25 14,35 2,9 3,17 1,23 -2,7 -5,14 -10,19 -5,6 -10,12 -17,19 7,-3 14,-5 20,-7 6,-2 12,-3 18,-2 6,1 12,3 17,7 5,5 11,12 17,22 l 22,41 -70,38 -16,-30 c -5,-9 -11,-15 -18,-18 -6,-2 -16,0 -28,6 l -115,64 z"
       inkscape:connector-curvature="0"
       style="fill:#356079;fill-rule:nonzero" /><path
       id="15"
       class="fil2"
       d="m -1211,8034 109,-46 c 2,-1 4,-1 5,-2 1,0 3,-1 5,-2 8,-3 15,-6 19,-9 5,-3 8,-7 9,-10 2,-4 2,-8 1,-12 -2,-5 -4,-11 -6,-17 -3,-7 -6,-12 -9,-15 -3,-3 -6,-5 -10,-6 -4,0 -9,0 -14,2 -5,2 -12,4 -20,7 l -115,48 26,62 z m 24,58 26,61 -74,31 -100,-239 223,-93 c 15,-6 28,-10 39,-12 11,-1 21,0 30,3 9,4 17,9 24,18 6,8 13,19 18,33 6,15 10,26 11,36 2,9 1,17 -1,24 -3,6 -7,12 -12,17 -6,5 -12,11 -19,17 7,-2 14,-3 20,-5 7,-1 13,-1 19,0 5,1 11,4 16,9 5,5 9,13 14,24 l 18,43 -74,31 -13,-32 c -4,-10 -9,-17 -16,-20 -6,-3 -15,-2 -28,3 l -121,51 z"
       inkscape:connector-curvature="0"
       style="fill:#356079;fill-rule:nonzero" /><polygon
       id="16"
       class="fil2"
       points="-651,7791 -857,7838 -847,7882 -655,7838 -644,7888 -836,7932 -825,7977 -620,7930 -607,7987 -888,8052 -946,7799 -664,7734 "
       style="fill:#356079;fill-rule:nonzero" /><path
       id="17"
       class="fil2"
       d="m -422,7860 -7,-49 176,-25 c 3,20 5,37 7,52 2,15 3,28 3,39 0,11 -1,21 -4,29 -3,7 -8,14 -14,20 -7,5 -17,10 -29,13 -12,4 -28,7 -47,10 -8,1 -16,2 -24,3 -9,1 -17,2 -25,3 l -24,4 c -28,4 -53,6 -73,7 -20,2 -37,0 -50,-6 -14,-5 -24,-15 -32,-29 -8,-13 -14,-33 -17,-60 -1,-8 -3,-18 -4,-32 -1,-13 -3,-30 -4,-48 -1,-9 -1,-17 2,-25 2,-8 5,-16 10,-22 4,-7 9,-13 16,-18 6,-5 13,-8 20,-10 15,-4 31,-8 46,-11 15,-3 31,-5 46,-8 21,-3 39,-5 56,-8 17,-2 31,-3 44,-4 13,-1 24,-1 34,0 10,1 18,4 25,8 6,4 12,8 16,13 4,4 7,9 9,15 3,6 4,12 6,19 1,7 2,14 4,22 l -77,11 c -1,-7 -3,-12 -5,-15 -2,-4 -6,-6 -10,-7 -4,-2 -10,-2 -17,-2 -7,1 -16,2 -27,3 l -20,3 c -7,1 -13,2 -20,3 -7,0 -13,1 -19,2 -12,2 -23,4 -31,5 -9,2 -15,5 -20,9 -4,4 -7,11 -8,19 -1,8 0,20 2,36 2,14 4,26 6,35 2,10 4,17 8,23 3,5 7,9 12,11 5,3 11,4 19,4 8,0 18,0 30,-2 12,-2 26,-4 42,-6 13,-2 23,-3 33,-5 9,-1 17,-3 23,-6 5,-2 9,-6 12,-10 2,-5 3,-12 2,-20 -1,-2 -1,-3 -1,-4 0,0 -1,-1 -1,-3 l -99,14 z"
       inkscape:connector-curvature="0"
       style="fill:#356079;fill-rule:nonzero" /><path
       id="18"
       class="fil2"
       d="m 65,7671 80,0 1,163 c 0,25 -4,45 -13,59 -8,15 -22,26 -42,32 -11,4 -24,6 -40,7 -16,1 -34,1 -55,1 -21,0 -41,0 -58,0 -18,0 -33,0 -47,-2 -13,-2 -25,-4 -35,-8 -10,-4 -19,-10 -25,-18 -7,-8 -11,-17 -15,-29 -3,-12 -4,-27 -4,-44 l -1,-160 80,0 0,136 c 0,11 1,20 1,27 1,7 2,13 4,18 3,4 6,8 10,10 4,2 9,4 16,5 7,1 15,2 25,2 10,0 21,0 35,0 11,0 20,0 28,0 8,0 15,-1 21,-2 6,0 12,-1 16,-3 4,-2 8,-4 11,-8 4,-5 6,-12 7,-20 1,-7 1,-17 1,-29 l -1,-137 z"
       inkscape:connector-curvature="0"
       style="fill:#356079;fill-rule:nonzero" /><polygon
       id="19"
       class="fil2"
       points="456,7963 201,7926 237,7670 316,7681 289,7874 465,7899 "
       style="fill:#356079;fill-rule:nonzero" /><path
       id="20"
       class="fil2"
       d="m 742,7912 -32,-112 -77,88 109,24 z m 16,59 -163,-37 -36,41 -85,-19 197,-222 104,23 82,284 -85,-19 -14,-51 z"
       inkscape:connector-curvature="0"
       style="fill:#356079;fill-rule:nonzero" /><path
       id="21"
       class="fil2"
       d="m 1008,7960 112,38 c 2,1 4,1 5,2 1,0 3,1 5,2 9,3 16,4 21,5 6,1 10,0 13,-1 4,-2 7,-5 9,-9 2,-5 4,-10 6,-17 3,-7 4,-12 4,-16 0,-5 -2,-8 -4,-12 -3,-3 -7,-5 -12,-8 -5,-2 -12,-5 -20,-7 l -118,-40 -21,63 z m -20,60 -21,63 -76,-25 83,-246 228,77 c 15,5 28,11 37,17 10,6 17,14 21,22 5,8 7,18 6,29 0,10 -3,23 -8,37 -5,15 -10,26 -15,34 -5,8 -11,13 -17,17 -6,3 -13,5 -21,5 -7,0 -15,0 -24,0 6,4 12,7 18,11 6,3 10,7 14,11 3,5 5,11 6,18 0,7 -1,16 -5,27 l -15,44 -76,-25 11,-33 c 4,-10 4,-19 2,-25 -3,-7 -11,-12 -24,-16 l -124,-42 z"
       inkscape:connector-curvature="0"
       style="fill:#356079;fill-rule:nonzero" /><polygon
       id="22"
       class="fil2"
       points="1665,8180 1491,8089 1467,8134 1632,8221 1605,8272 1440,8186 1398,8265 1329,8228 1450,7998 1693,8126 "
       style="fill:#356079;fill-rule:nonzero" /><path
       id="23"
       class="fil2"
       d="m 1745,8313 98,67 c 2,1 3,2 4,3 1,1 3,2 4,3 8,5 14,9 19,11 5,2 10,3 14,2 3,-1 7,-3 10,-7 3,-3 7,-8 11,-14 4,-6 6,-11 7,-15 1,-4 1,-8 0,-12 -2,-3 -5,-7 -9,-11 -5,-3 -11,-7 -18,-12 l -103,-70 -37,55 z m -35,52 -38,56 -66,-45 146,-215 199,135 c 14,9 24,18 31,27 8,9 13,17 15,27 2,9 1,19 -2,29 -4,10 -9,22 -18,34 -9,13 -17,22 -24,28 -7,7 -14,10 -21,12 -6,2 -14,2 -21,0 -7,-2 -15,-4 -24,-7 5,5 10,10 15,15 5,5 8,10 10,15 2,6 3,12 1,19 -1,6 -5,15 -12,25 l -26,38 -66,-45 19,-28 c 7,-9 9,-17 9,-24 -1,-7 -7,-15 -19,-22 l -108,-74 z"
       inkscape:connector-curvature="0"
       style="fill:#356079;fill-rule:nonzero" /><path
       id="24"
       class="fil2"
       d="m 2057,8532 c -9,10 -16,18 -22,26 -5,7 -9,13 -12,19 -2,5 -3,10 -3,15 1,5 3,10 7,15 4,5 9,11 16,18 7,6 16,14 26,22 21,18 37,31 49,41 12,9 22,14 30,15 8,2 16,-1 24,-8 8,-6 17,-16 29,-30 10,-12 17,-21 22,-29 4,-7 6,-14 5,-21 0,-6 -4,-12 -10,-19 -6,-7 -15,-15 -27,-25 -20,-17 -37,-32 -50,-43 -13,-11 -24,-18 -33,-21 -9,-4 -17,-3 -25,1 -7,4 -16,12 -26,24 z m -85,-25 c 16,-19 30,-35 42,-48 12,-13 24,-23 35,-29 11,-7 22,-10 34,-9 12,0 25,5 40,14 10,6 27,19 51,38 23,20 54,46 92,78 12,11 22,21 30,31 7,10 11,20 14,30 2,10 2,20 -1,30 -3,11 -8,22 -16,34 -4,6 -10,14 -17,23 -7,9 -16,19 -26,31 -13,14 -24,26 -34,34 -10,9 -21,14 -31,17 -10,3 -20,4 -30,1 -11,-2 -22,-7 -35,-15 -12,-7 -26,-17 -41,-29 -15,-12 -32,-26 -52,-43 -22,-19 -40,-36 -55,-50 -15,-15 -25,-30 -30,-43 -6,-15 -6,-29 -1,-44 4,-15 15,-32 31,-51 z"
       inkscape:connector-curvature="0"
       style="fill:#356079;fill-rule:nonzero" /><polygon
       id="25"
       class="fil2"
       points="2398,8782 2251,8910 2202,8853 2398,8683 2480,8778 2436,9023 2583,8895 2632,8952 2436,9122 2354,9027 "
       style="fill:#356079;fill-rule:nonzero" /><polygon
       id="26"
       class="fil2"
       points="2681,9137 2614,9042 2667,9004 2845,9258 2792,9296 2727,9202 2567,9314 2522,9248 "
       style="fill:#356079;fill-rule:nonzero" /><polygon
       id="27"
       class="fil2"
       points="2874,9315 2913,9384 2687,9511 2648,9441 "
       style="fill:#356079;fill-rule:nonzero" /><polygon
       id="28"
       class="fil2"
       points="3021,9729 2933,9537 2892,9556 2974,9735 2928,9756 2846,9577 2804,9596 2891,9788 2838,9812 2718,9549 2954,9442 3074,9705 "
       style="fill:#356079;fill-rule:nonzero" /><path
       id="29"
       class="fil2"
       d="m 3009,9896 35,114 c 1,2 1,3 1,4 1,2 1,3 2,5 2,9 5,16 8,21 2,5 5,8 8,10 4,1 8,2 13,1 4,-1 10,-2 17,-4 7,-2 12,-4 15,-7 4,-3 6,-6 7,-10 1,-3 1,-8 0,-14 -1,-5 -3,-12 -5,-21 l -37,-119 -64,20 z m -60,19 -64,19 -23,-76 248,-76 70,230 c 5,16 8,29 8,40 1,12 -1,22 -6,30 -4,9 -10,16 -19,22 -9,6 -21,11 -36,15 -14,5 -27,7 -36,7 -9,1 -17,-1 -24,-4 -6,-3 -11,-7 -16,-13 -4,-6 -9,-13 -14,-20 0,7 1,14 2,21 1,6 0,12 -2,18 -1,5 -5,10 -10,15 -5,4 -14,8 -25,12 l -45,13 -23,-76 33,-10 c 10,-3 17,-7 21,-13 4,-6 4,-16 0,-29 l -39,-125 z"
       inkscape:connector-curvature="0"
       style="fill:#356079;fill-rule:nonzero" /><path
       id="30"
       class="fil2"
       d="m 3199,10398 c 6,-2 11,-4 14,-6 3,-3 4,-7 5,-12 1,-4 0,-10 -1,-18 -1,-7 -3,-16 -5,-28 -1,-2 -1,-3 -1,-5 -1,-1 -1,-2 -2,-4 -5,-17 -8,-30 -11,-41 -2,-12 -5,-20 -7,-27 -3,-7 -6,-11 -10,-13 -4,-3 -9,-3 -16,-1 -7,1 -11,4 -13,10 -2,5 -2,12 -1,20 3,11 5,22 7,32 2,11 4,20 6,29 1,5 3,11 4,17 2,5 3,11 4,16 5,21 8,39 11,55 2,15 2,29 -1,40 -3,11 -9,20 -18,27 -9,7 -23,13 -42,17 -13,4 -24,5 -34,4 -10,0 -18,-2 -25,-6 -7,-5 -14,-10 -19,-18 -5,-8 -9,-17 -13,-28 -3,-7 -7,-20 -12,-39 -6,-19 -12,-44 -19,-74 -7,-30 -11,-55 -14,-74 -2,-19 -2,-34 3,-44 2,-7 6,-12 10,-17 5,-4 9,-7 15,-9 5,-3 11,-5 17,-6 7,-1 14,-3 21,-5 l 18,76 c -3,1 -6,2 -9,2 -3,1 -6,2 -8,4 -2,2 -3,5 -5,8 -1,4 -1,10 0,16 1,4 2,10 4,19 1,9 4,20 7,34 4,18 8,32 10,43 3,11 6,20 9,26 3,6 6,10 10,11 3,2 8,2 14,1 5,-2 10,-4 12,-7 3,-3 4,-6 5,-11 0,-5 0,-10 -1,-16 -1,-6 -3,-13 -4,-20 -6,-24 -11,-46 -15,-66 -5,-19 -8,-36 -10,-50 -3,-14 -4,-27 -3,-37 0,-10 2,-19 6,-26 5,-7 11,-13 19,-18 9,-5 20,-9 34,-12 12,-3 23,-4 33,-4 9,0 18,2 25,5 8,4 14,10 19,17 5,7 10,17 15,29 2,8 6,21 12,38 5,18 10,41 17,68 3,14 6,27 8,39 3,11 5,22 6,31 1,9 1,17 1,25 -1,7 -2,13 -5,19 -2,7 -6,12 -10,16 -3,5 -8,8 -13,11 -5,2 -10,5 -16,7 -6,2 -13,3 -20,5 l -18,-75 z"
       inkscape:connector-curvature="0"
       style="fill:#356079;fill-rule:nonzero" /><polygon
       id="31"
       class="fil2"
       points="3275,10915 3069,10817 3064,10754 3252,10625 3055,10641 3049,10567 3307,10546 3317,10671 3154,10780 3333,10860 3343,10984 3084,11005 3078,10931 "
       style="fill:#356079;fill-rule:nonzero" /><polygon
       id="32"
       class="fil2"
       points="3253,11359 3271,11149 3225,11145 3209,11341 3158,11337 3175,11141 3128,11137 3111,11347 3053,11343 3077,11055 3335,11076 3311,11364 "
       style="fill:#356079;fill-rule:nonzero" /><polygon
       id="33"
       class="fil2"
       points="3227,11499 3035,11466 3048,11393 3303,11437 3282,11561 3064,11682 3256,11715 3243,11788 2988,11744 3009,11620 "
       style="fill:#356079;fill-rule:nonzero" /><path
       id="34"
       class="fil2"
       d="m 2973,11980 -47,134 c -2,5 -3,10 -4,14 -1,4 -1,8 0,11 0,4 2,7 4,10 3,2 7,5 12,6 9,3 15,3 20,-1 4,-4 9,-12 12,-23 l 48,-136 -45,-15 z m 94,32 -45,128 c -4,10 -5,18 -4,24 1,6 6,11 15,14 14,5 23,0 28,-15 l 48,-136 -42,-15 z m -123,-126 245,86 -82,231 c -9,26 -20,43 -34,52 -14,9 -33,10 -55,2 -10,-4 -18,-8 -24,-11 -6,-4 -10,-9 -13,-14 -3,-5 -5,-11 -5,-17 -1,-6 -1,-13 0,-22 -4,8 -8,15 -12,21 -4,6 -9,11 -14,14 -6,3 -12,5 -19,5 -8,0 -17,-2 -28,-6 -13,-4 -24,-10 -31,-16 -8,-6 -14,-14 -17,-22 -3,-9 -4,-19 -3,-30 2,-11 5,-24 10,-38 l 82,-235 z"
       inkscape:connector-curvature="0"
       style="fill:#356079;fill-rule:nonzero" /><polygon
       id="35"
       class="fil2"
       points="2953,12401 2780,12310 2815,12244 3045,12365 2986,12476 2741,12523 2914,12614 2879,12680 2649,12559 2708,12448 "
       style="fill:#356079;fill-rule:nonzero" /><polygon
       class="fil1"
       points="1051,11355 1701,13354 0,12118 -1701,13354 -1051,11355 -2752,10119 -650,10119 0,8119 650,10119 2752,10119 "
       id="polygon3766"
       style="fill:#ffd937" /><path
       class="fil1"
       d="m 0,8539 c 120,0 217,-97 217,-216 0,-120 -97,-217 -217,-217 -120,0 -217,97 -217,217 0,119 97,216 217,216 z m 2340,1701 c 37,113 159,176 273,139 114,-37 176,-159 139,-273 -37,-114 -159,-176 -273,-139 -114,37 -176,159 -139,273 z m -894,2751 c -96,70 -118,205 -48,302 71,97 206,118 303,48 97,-70 118,-206 48,-302 -71,-97 -206,-119 -303,-48 z m -2892,0 c -97,-71 -232,-49 -303,48 -70,96 -49,232 48,302 97,70 232,49 303,-48 70,-97 48,-232 -48,-302 z m -894,-2751 c 37,-114 -25,-236 -139,-273 -114,-37 -236,25 -273,139 -37,114 25,236 139,273 114,37 236,-26 273,-139 z"
       id="path3768"
       inkscape:connector-curvature="0"
       style="fill:#ffd937" /><path
       class="fil1"
       d="m 1929,10764 c 28,0 47,-9 70,-24 34,-22 60,-46 99,-62 21,-8 44,-13 67,-13 119,0 217,71 217,197 0,176 -150,276 -315,276 -181,0 -398,-149 -541,-250 -216,-152 -421,-317 -643,-461 -257,-168 -569,-333 -883,-333 -314,0 -626,165 -883,333 -222,144 -427,309 -643,461 -143,101 -360,250 -541,250 -165,0 -315,-100 -315,-276 0,-126 98,-197 217,-197 23,0 46,5 67,13 39,16 65,40 99,62 23,15 42,24 70,24 103,0 309,-205 379,-273 203,-196 395,-396 619,-570 269,-209 581,-378 931,-378 93,0 184,12 274,34 242,60 462,192 657,344 224,174 416,374 619,570 70,68 276,273 379,273 z"
       id="path3770"
       inkscape:connector-curvature="0"
       style="fill:#ffd937" /><path
       class="fil3"
       d="m 0,10016 c 827,0 1634,1043 2067,1043 138,0 236,-79 236,-197 0,-79 -59,-118 -138,-118 -83,0 -118,99 -236,99 -354,0 -1023,-1221 -1929,-1221 -906,0 -1575,1221 -1929,1221 -118,0 -153,-99 -236,-99 -79,0 -138,39 -138,118 0,118 98,197 236,197 433,0 1240,-1043 2067,-1043 z"
       id="path3772"
       inkscape:connector-curvature="0"
       style="fill:#356079" /><path
       class="fil4"
       d="m 1525,10684 -1378,1141 100,121 1378,-1141 -100,-121 z m -3050,0 1378,1141 -100,121 -1378,-1141 100,-121 z"
       id="path3774"
       inkscape:connector-curvature="0"
       style="fill:#356079;fill-rule:nonzero" /><polygon
       class="fil1"
       points="354,12371 197,12214 197,12634 0,12831 -197,12634 -197,12214 -354,12371 -354,11400 -197,11243 -197,9377 -358,9431 0,8298 358,9431 197,9377 197,11243 354,11400 "
       id="polygon3776"
       style="fill:#ffd937" /><polygon
       class="fil3"
       points="118,9268 118,11276 276,11433 276,12181 118,12024 118,12614 -118,12614 -118,12024 -276,12181 -276,11433 -118,11276 -118,9268 -236,9307 0,8559 236,9307 "
       id="polygon3778"
       style="fill:#356079" /><circle
       class="fil5"
       cy="11000"
       r="3898"
       id="circle3780"
       cx="0"
       style="fill:none" /><circle
       class="fil5"
       cy="11000"
       r="3898"
       id="circle3782"
       cx="0"
       style="fill:none" /><path
       class="fil2"
       d="m -2063,13447 82,-94 80,71 -229,261 -80,-70 87,-100 -180,-158 -87,100 -80,-71 229,-261 80,71 -82,94 180,157 z m 136,236 c -8,11 -13,20 -16,28 -3,8 -3,15 0,22 3,7 8,13 16,21 8,7 19,15 33,25 16,11 29,19 39,25 10,5 18,7 26,7 7,0 14,-3 20,-9 6,-6 13,-14 20,-25 7,-10 12,-18 15,-25 3,-7 4,-13 2,-20 -3,-7 -8,-15 -16,-23 -8,-8 -21,-18 -37,-30 -14,-10 -26,-17 -36,-22 -9,-4 -18,-7 -25,-6 -7,0 -14,3 -21,8 -6,6 -13,13 -20,24 z m -83,-40 c 11,-16 21,-29 30,-41 9,-12 18,-21 27,-27 9,-7 19,-11 29,-13 9,-2 21,-1 33,3 13,4 27,10 44,20 16,9 35,22 57,37 26,19 48,36 66,51 18,15 30,29 38,43 8,14 11,29 8,44 -2,15 -11,33 -25,52 -12,18 -23,33 -33,45 -10,12 -19,22 -29,29 -9,7 -19,11 -29,12 -11,2 -22,0 -36,-5 -13,-4 -29,-12 -46,-22 -17,-11 -38,-25 -62,-42 -24,-17 -45,-33 -61,-47 -16,-13 -27,-27 -34,-41 -6,-14 -8,-28 -4,-44 3,-15 12,-33 27,-54 z m 455,191 c 7,-8 15,-14 23,-18 8,-4 17,-6 28,-5 10,0 21,3 34,7 13,5 29,12 47,21 28,14 49,30 61,48 13,18 17,39 14,61 -2,10 -5,19 -9,27 -3,9 -7,18 -12,27 l -58,114 -82,-42 58,-114 c 5,-10 8,-18 9,-25 1,-7 1,-13 -2,-19 -3,-6 -9,-11 -16,-17 -8,-5 -19,-12 -33,-19 -15,-7 -28,-12 -38,-14 -11,-2 -20,-2 -27,1 -8,3 -14,8 -19,15 -6,7 -11,16 -17,27 l -49,97 -80,-41 110,-217 80,41 -22,45 z m 323,231 c -5,13 -8,24 -9,32 -1,8 1,15 5,21 5,6 12,11 21,16 10,5 23,10 38,16 19,7 33,12 44,15 11,3 20,3 27,1 7,-2 12,-7 17,-14 4,-7 9,-17 14,-30 4,-10 7,-19 8,-27 1,-7 0,-14 -4,-20 -3,-6 -10,-12 -20,-18 -10,-6 -25,-13 -43,-20 -17,-6 -30,-11 -40,-13 -11,-2 -20,-2 -27,0 -7,2 -13,7 -17,13 -5,7 -10,16 -14,28 z m -91,-18 c 7,-18 14,-34 20,-47 6,-14 12,-25 19,-33 7,-9 15,-15 24,-20 9,-4 21,-5 34,-5 13,1 29,4 47,9 18,5 39,12 64,22 31,12 56,23 77,33 21,10 37,21 48,32 11,12 17,26 18,41 1,15 -3,34 -11,57 -8,20 -15,37 -21,51 -7,14 -14,26 -21,35 -8,9 -16,16 -26,20 -10,3 -21,5 -36,4 -14,-2 -30,-5 -50,-11 -19,-6 -43,-14 -70,-25 -28,-11 -52,-21 -71,-30 -19,-10 -33,-20 -43,-32 -9,-12 -14,-26 -15,-41 0,-16 4,-36 13,-60 z m 488,75 c 4,-8 10,-15 16,-21 6,-5 13,-9 21,-12 8,-2 17,-4 28,-4 11,1 24,2 39,6 23,5 40,11 52,19 12,7 20,17 24,27 4,11 6,23 4,37 -1,14 -4,29 -8,47 l -83,-19 c 1,-6 2,-12 2,-18 1,-5 0,-10 -2,-14 -2,-4 -7,-8 -13,-12 -6,-3 -15,-6 -28,-9 -37,-8 -60,6 -68,43 l -28,120 -88,-20 54,-237 88,20 -10,47 z m 425,159 c -1,14 -1,25 1,33 2,8 5,15 11,19 6,4 14,7 25,9 10,2 24,3 41,5 20,1 35,2 46,1 11,0 20,-3 26,-7 6,-4 10,-10 12,-18 2,-8 4,-19 5,-32 1,-12 1,-21 0,-29 -1,-7 -4,-13 -9,-18 -6,-5 -14,-9 -25,-12 -11,-2 -27,-4 -47,-6 -18,-1 -32,-1 -42,-1 -11,1 -19,4 -25,8 -6,4 -11,10 -13,18 -3,8 -5,18 -6,30 z m -92,9 c 2,-19 4,-36 5,-51 2,-14 5,-27 9,-37 5,-10 11,-19 18,-25 8,-7 18,-12 30,-15 13,-3 29,-5 48,-5 19,-1 41,0 68,2 33,3 60,6 83,9 23,4 41,10 55,18 14,8 24,19 29,33 6,15 8,34 6,58 -2,21 -3,40 -5,55 -3,16 -6,29 -10,40 -5,11 -11,19 -19,26 -8,6 -19,11 -33,14 -14,3 -31,4 -51,4 -21,0 -46,-1 -75,-3 -30,-3 -55,-6 -76,-9 -21,-4 -38,-10 -51,-18 -12,-8 -21,-20 -26,-35 -5,-15 -6,-35 -5,-61 z m 499,8 c 1,12 2,22 4,30 1,8 5,14 10,19 6,4 13,8 23,9 9,2 22,3 37,2 21,0 39,-1 51,-2 13,-2 23,-5 29,-9 7,-5 11,-11 13,-20 2,-8 3,-19 3,-33 -1,-13 -2,-24 -4,-31 -3,-8 -7,-13 -13,-17 -7,-4 -15,-6 -26,-7 -11,-1 -25,-1 -42,-1 -18,1 -32,2 -43,3 -12,2 -20,5 -26,9 -7,4 -11,10 -13,18 -2,8 -3,18 -3,30 z m 4,125 -92,2 -6,-347 92,-2 3,144 c 4,-9 8,-16 14,-21 5,-6 12,-11 21,-15 8,-3 18,-6 31,-8 12,-2 28,-3 46,-3 32,-1 58,1 77,4 19,4 34,11 44,21 10,10 17,24 21,42 3,18 5,41 6,69 0,24 -2,44 -7,59 -5,15 -13,27 -23,35 -11,9 -26,15 -44,18 -18,3 -41,5 -67,5 -17,1 -32,1 -45,0 -12,-1 -23,-3 -32,-6 -9,-4 -17,-9 -23,-15 -6,-7 -12,-16 -17,-28 l 1,46 z m 375,-370 46,345 -91,12 -47,-345 92,-12 z m 170,80 42,240 -89,15 -41,-240 88,-15 z m -17,-103 11,66 -89,15 -11,-65 89,-16 z m 188,190 c 3,13 6,22 9,29 3,7 8,12 14,15 7,2 16,3 27,2 11,-1 26,-4 44,-8 15,-4 28,-7 38,-11 10,-3 18,-7 24,-12 5,-5 9,-10 10,-17 2,-6 2,-14 0,-23 -4,-16 -7,-28 -11,-36 -3,-9 -9,-15 -16,-18 -6,-3 -16,-4 -28,-2 -12,1 -29,5 -49,9 -17,4 -30,8 -39,12 -10,3 -17,8 -21,13 -4,5 -7,11 -6,19 0,7 1,17 4,28 z m 138,-152 88,-20 57,247 c 4,18 4,35 -1,52 -5,16 -14,30 -26,41 -10,10 -26,18 -46,26 -20,8 -46,15 -77,22 -25,6 -48,10 -68,13 -20,2 -37,2 -52,-1 -15,-3 -27,-9 -37,-19 -9,-10 -17,-24 -21,-43 l 89,-21 c 2,6 5,10 8,13 4,2 9,4 15,4 7,1 14,0 24,-1 9,-2 20,-4 32,-7 17,-4 30,-8 40,-12 10,-5 18,-10 23,-15 5,-6 8,-12 8,-20 1,-7 0,-16 -2,-27 l -11,-45 c -3,10 -6,19 -10,26 -3,8 -9,14 -16,20 -7,5 -16,10 -26,14 -11,5 -25,9 -41,12 -27,7 -50,11 -69,12 -20,2 -36,1 -50,-4 -14,-5 -25,-14 -35,-27 -9,-13 -16,-31 -21,-55 -2,-7 -4,-16 -5,-26 -2,-10 -4,-21 -6,-33 -8,-49 28,-84 110,-102 20,-5 37,-9 51,-12 13,-2 25,-3 35,-3 10,1 19,5 27,10 7,5 15,14 23,25 l -10,-44 z m 379,-35 -3,-7 c -3,-8 -6,-14 -10,-17 -5,-3 -10,-5 -16,-5 -6,0 -13,1 -22,4 -8,3 -18,6 -30,11 -12,5 -22,9 -31,13 -9,4 -17,9 -22,14 -5,4 -9,10 -10,15 -2,6 -1,13 2,21 l 3,6 139,-55 z m -119,107 c 4,8 7,15 11,19 4,4 9,7 15,8 6,1 14,1 22,-1 9,-2 19,-6 31,-11 16,-6 29,-11 39,-15 10,-4 17,-8 22,-12 5,-4 7,-8 8,-12 0,-4 -1,-10 -3,-16 l 83,-33 c 6,15 9,28 8,40 -1,12 -5,24 -12,34 -8,10 -20,19 -35,28 -15,9 -33,18 -56,27 -32,13 -60,23 -84,30 -23,7 -44,10 -61,8 -17,-2 -32,-9 -44,-20 -13,-12 -24,-31 -34,-56 -12,-30 -19,-54 -21,-73 -1,-19 3,-35 12,-48 10,-14 26,-26 47,-37 21,-10 49,-23 83,-36 26,-11 49,-18 68,-22 19,-4 35,-4 49,1 10,3 19,8 25,15 7,6 13,13 18,22 5,9 9,18 13,29 5,10 9,22 15,34 l -222,88 3,9 z m 402,-174 c -21,11 -39,20 -56,28 -16,8 -31,13 -44,14 -13,2 -25,0 -36,-6 -10,-6 -20,-17 -29,-35 -6,-11 -10,-23 -10,-34 -1,-12 1,-22 5,-31 6,-12 18,-24 38,-38 21,-14 48,-29 82,-48 25,-13 47,-23 64,-31 18,-8 33,-13 46,-14 12,-1 23,1 32,7 9,6 18,16 27,30 l -84,44 c -2,-3 -5,-5 -8,-6 -3,-1 -7,-1 -12,0 -5,2 -12,4 -19,7 -7,4 -16,8 -26,14 -10,5 -20,10 -28,14 -8,5 -14,9 -19,13 -5,4 -8,9 -10,13 -1,4 -1,8 2,13 2,5 5,7 8,8 4,1 8,0 14,-1 5,-2 12,-5 20,-9 8,-5 18,-10 29,-16 5,-2 10,-5 16,-8 5,-3 10,-6 15,-8 21,-12 40,-21 56,-28 16,-7 30,-11 42,-12 13,0 23,2 33,8 9,6 18,17 25,32 9,16 14,31 15,43 0,13 -4,25 -13,37 -8,12 -22,24 -42,37 -19,12 -44,26 -74,43 -24,12 -46,23 -64,31 -18,9 -35,14 -49,16 -14,2 -27,-1 -38,-7 -11,-6 -22,-18 -31,-35 l 83,-44 c 3,5 6,8 10,10 4,2 9,2 15,1 6,-1 13,-4 22,-8 8,-4 18,-9 29,-15 13,-7 24,-13 34,-18 9,-5 16,-10 21,-14 5,-4 8,-9 9,-13 1,-4 0,-9 -3,-14 -4,-8 -9,-11 -17,-9 -7,1 -18,6 -33,14 l -47,25 z m 555,-301 c 8,19 7,37 -2,55 -10,17 -28,35 -55,54 -19,14 -36,24 -52,30 -16,7 -31,10 -45,9 -14,-1 -27,-5 -40,-14 -12,-9 -25,-22 -37,-39 l -79,-111 75,-53 74,103 c 6,9 13,16 19,20 5,5 12,7 19,6 8,0 16,-3 25,-8 10,-6 21,-13 35,-23 30,-22 41,-45 31,-69 -1,-4 -4,-9 -7,-14 -3,-5 -7,-10 -11,-16 l -62,-87 74,-52 141,198 -73,52 -30,-41 z m 199,-227 c -17,16 -32,30 -46,43 -13,12 -26,20 -38,26 -13,5 -25,7 -36,4 -12,-3 -25,-11 -38,-25 -9,-10 -16,-20 -20,-31 -4,-11 -5,-21 -3,-31 2,-13 11,-28 26,-47 16,-19 38,-42 66,-69 20,-19 38,-35 52,-48 15,-12 28,-21 40,-25 12,-5 23,-6 33,-3 11,3 22,10 34,22 l -68,65 c -3,-2 -6,-3 -10,-3 -3,0 -7,1 -11,3 -5,3 -10,7 -16,12 -6,6 -13,12 -21,20 -9,8 -16,16 -23,22 -6,7 -11,13 -15,18 -4,5 -5,10 -6,15 0,4 2,8 6,12 3,4 6,5 10,5 3,0 7,-2 12,-5 5,-3 11,-8 17,-14 7,-6 15,-14 24,-23 4,-4 8,-8 12,-12 5,-5 9,-9 13,-12 17,-17 32,-31 46,-42 13,-12 26,-19 37,-24 12,-4 23,-4 34,-1 10,3 22,11 33,23 13,13 22,26 26,38 4,12 4,25 -2,39 -5,14 -15,29 -30,46 -15,18 -35,38 -60,63 -19,18 -37,34 -52,48 -15,13 -29,22 -43,28 -13,6 -26,7 -38,4 -13,-3 -26,-11 -40,-25 l 68,-66 c 4,5 8,7 12,8 5,0 9,-1 15,-4 5,-3 12,-7 18,-13 7,-6 15,-14 25,-23 10,-10 19,-19 27,-26 7,-8 13,-14 16,-20 4,-5 5,-10 5,-15 0,-4 -2,-9 -6,-13 -6,-6 -12,-7 -19,-4 -7,4 -16,12 -28,23 l -38,37 z"
       id="path3784"
       inkscape:connector-curvature="0"
       style="fill:#356079;fill-rule:nonzero" /></g></svg>