<?xml version="1.0" encoding="UTF-8" standalone="no"?>
<!-- Creator: CorelDRAW X7 -->

<svg
   xmlns:dc="http://purl.org/dc/elements/1.1/"
   xmlns:cc="http://creativecommons.org/ns#"
   xmlns:rdf="http://www.w3.org/1999/02/22-rdf-syntax-ns#"
   xmlns:svg="http://www.w3.org/2000/svg"
   xmlns="http://www.w3.org/2000/svg"
   xmlns:sodipodi="http://sodipodi.sourceforge.net/DTD/sodipodi-0.dtd"
   xmlns:inkscape="http://www.inkscape.org/namespaces/inkscape"
   xml:space="preserve"
   width="7.8740005in"
   height="7.8740005in"
   version="1.1"
   style="clip-rule:evenodd;fill-rule:evenodd;image-rendering:optimizeQuality;shape-rendering:geometricPrecision;text-rendering:geometricPrecision"
   viewBox="0 0 7874.0005 7874.0005"
   id="svg3495"
   inkscape:version="0.91 r13725"
   sodipodi:docname="Yu Jing - Guijia Squadron v2 - [N3] [Vyo].svg"><metadata
     id="metadata3529"><rdf:RDF><cc:Work
         rdf:about=""><dc:format>image/svg+xml</dc:format><dc:type
           rdf:resource="http://purl.org/dc/dcmitype/StillImage" /></cc:Work></rdf:RDF></metadata><sodipodi:namedview
     pagecolor="#ffffff"
     bordercolor="#666666"
     borderopacity="1"
     objecttolerance="10"
     gridtolerance="10"
     guidetolerance="10"
     inkscape:pageopacity="0"
     inkscape:pageshadow="2"
     inkscape:window-width="640"
     inkscape:window-height="480"
     id="namedview3527"
     showgrid="false"
     inkscape:zoom="0.23838384"
     inkscape:cx="736.83001"
     inkscape:cy="849.33005"
     inkscape:window-x="0"
     inkscape:window-y="0"
     inkscape:window-maximized="0"
     inkscape:current-layer="svg3495" /><defs
     id="defs3497"><style
       type="text/css"
       id="style3499"><![CDATA[
    .fil5 {fill:none}
    .fil1 {fill:black}
    .fil0 {fill:#E2001A}
    .fil2 {fill:white}
    .fil4 {fill:black;fill-rule:nonzero}
    .fil3 {fill:black;fill-rule:nonzero}
    .fil6 {fill:white;fill-rule:nonzero}
   ]]></style></defs><g
     id="Layer_x0020_1"
     transform="translate(3937,-7063)"><metadata
       id="CorelCorpID_0Corel-Layer" /><circle
       class="fil0"
       cy="11000"
       r="3937"
       id="circle3503"
       cx="0"
       style="fill:#e2001a" /><path
       class="fil1"
       d="m -2714,8513 c 26,-28 55,-2 29,27 -502,587 -768,1301 -840,2016 l -188,-188 c 132,-682 475,-1322 999,-1855 z m 232,213 c -520,526 -863,1191 -955,1918 l 95,95 125,-124 c 65,-676 324,-1344 764,-1863 25,-29 -2,-53 -29,-26 z m -901,2139 c -2,45 -3,90 -3,135 0,148 10,294 28,438 l -416,-223 c -3,-71 -6,-143 -6,-215 0,-169 12,-335 33,-499 l 364,364 z m 47,718 c 36,209 92,412 165,605 l -457,-125 c -67,-228 -112,-465 -135,-709 l 427,229 z m 219,743 c 118,275 271,533 454,765 l -486,0 c -183,-275 -331,-575 -437,-894 l 469,129 z m 551,883 c 55,64 112,126 172,185 219,219 468,409 741,561 l -549,117 c -167,-120 -325,-254 -471,-399 -143,-144 -275,-299 -394,-464 l 501,0 z m -290,-2789 c -21,108 -37,218 -47,330 l -382,636 c -14,-126 -22,-255 -22,-386 0,-44 1,-88 2,-131 l 449,-449 z m -57,576 c -1,127 7,255 24,381 l -224,742 c -63,-177 -112,-360 -145,-548 l 345,-575 z m 69,639 c 49,221 123,433 220,631 l 1,748 c -169,-219 -311,-460 -420,-718 l 199,-661 z m 338,851 c 124,210 274,403 446,574 97,97 200,187 310,269 l 142,562 c -269,-150 -514,-337 -730,-553 -58,-57 -114,-117 -168,-180 l 0,-672 z m -328,-2254 c 104,-448 297,-891 613,-1267 26,-30 -1,-54 -29,-26 -443,445 -736,980 -846,1554 l 262,-261 z"
       id="path3505"
       inkscape:connector-curvature="0"
       style="fill:#000000" /><path
       class="fil1"
       d="m 2714,8513 c -26,-28 -55,-2 -29,27 502,587 768,1301 840,2016 l 188,-188 C 3581,9686 3238,9046 2714,8513 Z m -232,213 c 520,526 863,1191 955,1918 l -95,95 -125,-124 c -65,-676 -324,-1344 -764,-1863 -25,-29 2,-53 29,-26 z m 901,2139 c 2,45 3,90 3,135 0,148 -10,294 -28,438 l 416,-223 c 3,-71 6,-143 6,-215 0,-169 -12,-335 -33,-499 l -364,364 z m -47,718 c -36,209 -92,412 -165,605 l 457,-125 c 67,-228 112,-465 135,-709 l -427,229 z m -219,743 c -118,275 -271,533 -454,765 l 486,0 c 183,-275 331,-575 437,-894 l -469,129 z m -551,883 c -55,64 -112,126 -172,185 -219,219 -468,409 -741,561 l 549,117 c 167,-120 325,-254 471,-399 143,-144 275,-299 394,-464 l -501,0 z m 290,-2789 c 21,108 37,218 47,330 l 382,636 c 14,-126 22,-255 22,-386 0,-44 -1,-88 -2,-131 l -449,-449 z m 57,576 c 1,127 -7,255 -24,381 l 224,742 c 63,-177 112,-360 145,-548 l -345,-575 z m -69,639 c -49,221 -123,433 -220,631 l -1,748 c 169,-219 311,-460 420,-718 l -199,-661 z m -338,851 c -124,210 -274,403 -446,574 -97,97 -200,187 -310,269 l -142,562 c 269,-150 514,-337 730,-553 58,-57 114,-117 168,-180 l 0,-672 z m 328,-2254 c -104,-448 -297,-891 -613,-1267 -26,-30 1,-54 29,-26 443,445 736,980 846,1554 l -262,-261 z"
       id="path3507"
       inkscape:connector-curvature="0"
       style="fill:#000000" /><path
       class="fil1"
       d="m 0,14780 c -763,0 -1473,-227 -2067,-615 l 617,-132 -152,-599 c 460,303 1010,479 1602,479 592,0 1142,-176 1602,-479 l -152,599 617,132 c -594,388 -1304,615 -2067,615 z"
       id="path3509"
       inkscape:connector-curvature="0"
       style="fill:#000000" /><path
       class="fil2"
       d="m 0,9189 c -333,0 -666,42 -964,103 l 100,172 288,499 1152,0 288,-499 100,-172 C 666,9231 333,9189 0,9189 Z m -1084,129 c -352,80 -642,183 -806,265 l 0,1437 59,0 577,0 288,-499 288,-499 -288,-499 -118,-205 z m -806,1820 0,256 c 0,458 374,984 842,1382 l 82,-141 288,-499 -576,-998 -577,0 -59,0 z m 935,1713 c 312,248 656,436 955,511 299,-75 643,-263 955,-511 l -91,-158 -288,-498 -576,0 -576,0 -288,498 -91,158 z m 2003,-75 c 468,-398 842,-924 842,-1382 l 0,-256 -59,0 -577,0 -576,998 288,499 82,141 z m 842,-1756 0,-1437 c -164,-82 -454,-185 -806,-265 l -118,205 -288,499 288,499 288,499 577,0 59,0 z m -1314,-939 -1152,0 -288,499 -289,499 577,998 576,0 576,0 577,-998 -289,-499 -288,-499 z"
       id="path3511"
       inkscape:connector-curvature="0"
       style="fill:#ffffff" /><path
       class="fil3"
       d="m 59,11413 0,414 c 0,32 -26,59 -59,59 -33,0 -59,-27 -59,-59 l 0,-414 -374,0 c -33,0 -59,-26 -59,-59 l 0,-866 c 0,-32 26,-59 59,-59 l 866,0 c 33,0 59,27 59,59 l 0,866 c 0,33 -26,59 -59,59 l -374,0 z m 0,-866 0,315 315,0 0,-315 -315,0 z m 315,433 -315,0 0,315 315,0 0,-315 z m -433,315 0,-315 -315,0 0,315 315,0 z m -315,-433 315,0 0,-315 -315,0 0,315 z"
       id="path3513"
       inkscape:connector-curvature="0"
       style="fill:#000000;fill-rule:nonzero" /><path
       class="fil3"
       d="m 0,8461 c 701,0 1336,284 1796,743 459,460 743,1095 743,1796 0,701 -284,1336 -743,1796 -460,459 -1095,743 -1796,743 -701,0 -1336,-284 -1796,-743 -459,-460 -743,-1095 -743,-1796 0,-701 284,-1336 743,-1796 460,-459 1095,-743 1796,-743 z m 1712,827 C 1274,8850 669,8579 0,8579 c -669,0 -1274,271 -1712,709 -438,438 -709,1043 -709,1712 0,669 271,1274 709,1712 438,438 1043,709 1712,709 669,0 1274,-271 1712,-709 438,-438 709,-1043 709,-1712 0,-669 -271,-1274 -709,-1712 z"
       id="path3515"
       inkscape:connector-curvature="0"
       style="fill:#000000;fill-rule:nonzero" /><path
       class="fil4"
       d="m -1556,7892 c 80,-104 142,-216 187,-338 l 81,-25 c -11,30 -22,59 -34,88 l 320,-97 18,60 c -27,45 -49,86 -67,122 l 211,-63 117,388 -286,86 19,63 c 13,41 41,55 86,42 l 171,-52 c 42,-13 62,-35 63,-68 -2,-32 -7,-73 -15,-124 28,4 52,6 73,5 7,50 11,90 11,122 2,60 -30,100 -96,120 l -206,62 c -78,24 -129,-2 -153,-79 l -21,-70 -203,61 11,40 -68,20 -117,-387 c -12,20 -25,39 -39,58 -19,-13 -40,-24 -63,-34 z m 135,-78 290,-87 c 22,-44 43,-85 61,-123 l -285,86 c -21,43 -43,84 -66,124 z m 612,173 -32,-105 -218,66 32,105 218,-66 z m -81,-268 -218,66 32,105 217,-66 -31,-105 z m -409,417 204,-62 -32,-105 -203,61 31,106 z m -49,-164 203,-62 -31,-104 -204,61 32,105 z"
       id="path3517"
       inkscape:connector-curvature="0"
       style="fill:#000000;fill-rule:nonzero" /><path
       id="1"
       class="fil4"
       d="m -416,8080 c 175,-50 314,-132 418,-245 -8,-17 -18,-33 -28,-48 -87,89 -206,158 -358,206 -8,-20 -19,-40 -31,-60 149,-41 265,-106 348,-195 -10,-10 -20,-19 -31,-28 -77,54 -171,99 -283,133 -11,-19 -24,-39 -39,-61 138,-31 248,-83 332,-155 l -219,0 0,-62 620,0 0,62 -315,0 c -15,16 -31,31 -48,45 45,37 81,78 106,123 90,-44 171,-89 241,-136 l 41,56 c -47,28 -98,56 -151,84 51,111 135,189 250,233 -19,22 -37,44 -54,67 -113,-58 -197,-148 -252,-271 -16,8 -33,16 -50,24 33,123 28,213 -16,269 -21,25 -60,37 -120,37 -23,0 -59,-1 -109,-2 -3,-23 -8,-47 -13,-72 45,5 85,8 121,8 62,3 93,-35 91,-113 -1,-26 -4,-51 -10,-75 -102,101 -239,179 -409,236 -9,-19 -19,-39 -32,-60 z m 19,-658 393,0 c -17,-26 -37,-53 -60,-82 l 61,-39 c 26,32 49,63 71,94 l -44,27 375,0 0,149 -69,0 0,-85 -657,1 0,84 -70,0 0,-149 z"
       inkscape:connector-curvature="0"
       style="fill:#000000;fill-rule:nonzero" /><path
       id="2"
       class="fil4"
       d="m 981,7958 c -15,105 -62,151 -138,139 -24,-4 -54,-14 -89,-29 3,-24 5,-50 5,-77 28,17 54,29 78,33 45,11 70,-20 75,-91 6,-49 -4,-107 -28,-174 57,-69 108,-135 153,-197 l -134,-45 -239,711 -65,-22 258,-769 270,91 -19,57 c -57,75 -107,137 -151,187 25,74 33,136 24,186 z m 324,-407 67,23 c -26,78 -51,147 -73,209 -53,262 -19,463 104,604 -28,15 -53,30 -76,45 -92,-129 -129,-289 -110,-480 -87,157 -219,265 -397,326 -7,-20 -18,-43 -31,-69 213,-65 362,-216 446,-454 16,-45 39,-113 70,-204 z"
       inkscape:connector-curvature="0"
       style="fill:#000000;fill-rule:nonzero" /><circle
       class="fil5"
       cy="11000"
       r="3898"
       id="circle3521"
       cx="0"
       style="fill:none" /><path
       class="fil6"
       d="m -777,13975 c 26,8 63,16 112,22 l 394,52 c 2,-1 13,-11 32,-31 24,-24 38,-36 42,-36 11,2 27,17 47,46 20,28 30,44 29,49 -1,9 -7,13 -18,11 l -284,-37 -32,249 109,14 c 3,-1 14,-11 33,-31 25,-24 38,-35 42,-35 11,2 26,16 46,45 21,28 30,45 30,51 -1,8 -7,12 -18,10 l -245,-32 -39,298 187,24 c 2,0 13,-11 33,-31 24,-23 37,-35 41,-34 11,1 27,16 47,44 20,28 30,45 29,50 -1,9 -7,12 -17,11 l -610,-80 c -48,-6 -81,-10 -101,-10 l -9,-33 c 26,8 63,15 113,21 l 203,27 39,-298 -120,-16 c -46,-6 -80,-9 -100,-10 l -9,-33 c 26,7 63,14 112,21 l 120,16 32,-249 -161,-21 c -47,-6 -80,-10 -100,-10 l -9,-34 z m 377,401 c 61,26 102,52 125,76 19,23 27,48 24,75 -2,12 -9,24 -22,34 -8,7 -18,10 -31,9 -16,-2 -29,-19 -37,-50 -10,-44 -32,-88 -67,-132 l 8,-12 z m 786,-428 c 33,-1 66,-1 98,2 19,-2 30,1 31,10 0,3 -5,9 -16,15 -11,8 -16,15 -16,22 l 9,62 184,-24 c 2,-1 9,-13 22,-36 16,-28 26,-43 30,-43 10,-1 29,9 54,30 26,21 39,34 40,39 1,9 -4,14 -14,15 l -594,78 c -44,6 -81,13 -109,22 l -18,-38 c 50,0 96,-2 137,-8 l 184,-24 -8,-55 c -2,-22 -7,-45 -14,-67 z m -166,222 c 34,4 68,12 104,22 l 301,-39 c 10,-13 19,-23 27,-33 7,-8 14,-12 20,-13 6,-1 21,4 44,14 29,14 43,24 44,30 1,7 -6,15 -19,24 -11,8 -15,16 -14,24 l 7,58 c 3,22 8,52 15,89 2,10 -10,18 -34,25 -11,4 -19,6 -24,7 -13,2 -20,-5 -22,-21 l -3,-19 -122,16 32,239 c 5,39 -7,66 -34,81 -25,15 -44,24 -57,26 -9,1 -16,-7 -23,-23 -11,-24 -44,-40 -99,-50 l 1,-13 c 39,-1 71,-3 98,-7 21,-2 31,-11 29,-26 l -28,-217 -133,18 3,19 c 1,9 -10,17 -33,25 -10,3 -17,5 -22,6 -15,2 -24,-5 -26,-20 -1,-25 -3,-50 -6,-74 l -9,-66 c -4,-35 -10,-69 -17,-102 z m 108,190 335,-44 -18,-142 -336,44 19,142 z m -20,75 c 23,8 43,16 61,24 24,7 36,15 37,21 1,8 -4,13 -15,15 -13,2 -20,5 -22,10 -19,30 -39,57 -62,82 -25,29 -68,62 -127,97 l -9,-12 c 33,-35 61,-71 85,-111 27,-46 44,-88 52,-126 z m 315,-26 c 61,10 112,24 152,42 54,23 83,51 88,85 2,14 -1,26 -7,35 -10,13 -20,20 -32,22 -12,1 -25,-7 -39,-26 -19,-25 -45,-53 -77,-83 -16,-16 -46,-37 -90,-65 l 5,-10 z"
       id="path3523"
       inkscape:connector-curvature="0"
       style="fill:#ffffff;fill-rule:nonzero" /><circle
       class="fil5"
       cy="11000"
       r="3898"
       id="circle3525"
       cx="0"
       style="fill:none" /></g></svg>