<?xml version="1.0" encoding="UTF-8" standalone="no"?>
<!-- Creator: CorelDRAW X7 -->

<svg
   xmlns:dc="http://purl.org/dc/elements/1.1/"
   xmlns:cc="http://creativecommons.org/ns#"
   xmlns:rdf="http://www.w3.org/1999/02/22-rdf-syntax-ns#"
   xmlns:svg="http://www.w3.org/2000/svg"
   xmlns="http://www.w3.org/2000/svg"
   xmlns:sodipodi="http://sodipodi.sourceforge.net/DTD/sodipodi-0.dtd"
   xmlns:inkscape="http://www.inkscape.org/namespaces/inkscape"
   xml:space="preserve"
   width="7.8740005in"
   height="7.8740005in"
   version="1.1"
   style="clip-rule:evenodd;fill-rule:evenodd;image-rendering:optimizeQuality;shape-rendering:geometricPrecision;text-rendering:geometricPrecision"
   viewBox="0 0 7874.0005 7874.0005"
   id="svg3500"
   inkscape:version="0.91 r13725"
   sodipodi:docname="PanOceania - Armbots Bulleteer - [N3] [Vyo].svg"><metadata
     id="metadata3544"><rdf:RDF><cc:Work
         rdf:about=""><dc:format>image/svg+xml</dc:format><dc:type
           rdf:resource="http://purl.org/dc/dcmitype/StillImage" /></cc:Work></rdf:RDF></metadata><sodipodi:namedview
     pagecolor="#ffffff"
     bordercolor="#666666"
     borderopacity="1"
     objecttolerance="10"
     gridtolerance="10"
     guidetolerance="10"
     inkscape:pageopacity="0"
     inkscape:pageshadow="2"
     inkscape:window-width="640"
     inkscape:window-height="480"
     id="namedview3542"
     showgrid="false"
     inkscape:zoom="0.23838384"
     inkscape:cx="736.83001"
     inkscape:cy="849.33005"
     inkscape:window-x="0"
     inkscape:window-y="0"
     inkscape:window-maximized="0"
     inkscape:current-layer="svg3500" /><defs
     id="defs3502"><style
       type="text/css"
       id="style3504"><![CDATA[
    .fil3 {fill:black}
    .fil0 {fill:#00C0FF}
    .fil1 {fill:white}
    .fil2 {fill:white;fill-rule:nonzero}
   ]]></style></defs><g
     id="Layer_x0020_1"
     transform="translate(3937,-7063)"><metadata
       id="CorelCorpID_0Corel-Layer" /><circle
       class="fil0"
       cy="11000"
       r="3937"
       id="circle3508"
       cx="0"
       style="fill:#00c0ff" /><polygon
       class="fil1"
       points="0,14268 -2830,12634 -2830,9366 0,7732 2830,9366 2830,12634 "
       id="polygon3510"
       style="fill:#ffffff" /><g
       id="_915385856"><path
         class="fil0"
         d="m -599,7799 -11,-20 450,-260 104,180 -128,75 136,235 -194,112 -136,-236 -59,35 43,74 c 14,25 26,53 31,82 4,27 1,55 -10,81 -10,24 -26,44 -45,62 -19,17 -41,32 -64,45 l -146,85 c -23,12 -46,24 -71,32 -25,8 -50,11 -75,8 -13,-1 -25,-4 -36,-9 -1,14 -4,27 -10,40 -8,18 -20,35 -35,48 -14,13 -29,24 -46,33 l -492,285 -42,-73 3,95 -130,75 -80,-50 42,72 -346,200 -47,-82 -78,46 47,81 -308,178 -61,-39 -121,70 5,71 -218,126 -26,-539 181,-105 240,153 -126,-219 327,-189 c 20,-11 43,-21 66,-25 18,-3 36,-3 53,1 l -20,-33 223,-129 153,99 -9,-182 496,-286 c 38,-22 84,-41 129,-37 18,2 34,7 48,16 1,-17 5,-33 11,-49 10,-24 26,-44 45,-61 20,-18 42,-32 64,-45 l 146,-85 c 23,-13 47,-24 72,-32 18,-6 36,-9 55,-10 z m -2,290 c -2,-4 -5,-9 -7,-12 l -19,-33 c -2,-3 -4,-8 -7,-11 -2,1 -4,2 -6,2 l -107,62 c -1,1 -3,2 -5,3 2,5 4,10 6,12 l 19,34 c 2,3 5,7 8,12 0,-1 0,-1 0,-1 l 117,-67 c 0,0 0,-1 1,-1 z"
         id="path3513"
         inkscape:connector-curvature="0"
         style="fill:#00c0ff" /></g><path
       class="fil2"
       d="m -2673,9456 102,-59 -5,-71 185,-106 60,39 102,-59 -345,-219 -119,69 20,406 z m 82,-368 127,84 -117,67 -10,-151 z"
       id="path3515"
       inkscape:connector-curvature="0"
       style="fill:#ffffff;fill-rule:nonzero" /><path
       id="1"
       class="fil2"
       d="m -2241,8893 143,-82 c 15,-9 27,-13 36,-13 9,1 17,8 25,21 l 6,11 c 6,11 9,21 6,29 -2,8 -9,16 -21,23 l -151,87 -44,-76 z m 45,288 91,-53 -47,-81 143,-83 c 15,-8 26,-11 35,-7 9,3 19,13 28,29 l 22,38 91,-53 -31,-53 c -7,-12 -14,-22 -21,-29 -8,-7 -15,-12 -22,-14 -8,-3 -15,-3 -23,-3 -7,1 -15,2 -23,5 l -1,0 c 17,-17 26,-33 26,-49 0,-16 -6,-35 -19,-58 l -12,-20 c -8,-15 -17,-27 -27,-36 -9,-10 -19,-17 -31,-21 -11,-4 -24,-5 -38,-3 -14,2 -30,9 -47,19 l -275,159 181,313 z"
       inkscape:connector-curvature="0"
       style="fill:#ffffff;fill-rule:nonzero" /><polygon
       id="2"
       class="fil2"
       points="-1810,8658 -1560,8814 -1492,8775 -1502,8480 -1502,8480 -1372,8705 -1283,8654 -1464,8340 -1604,8421 -1591,8683 -1811,8540 -1951,8621 -1770,8935 -1681,8884 -1811,8658 "
       style="fill:#ffffff;fill-rule:nonzero" /><path
       id="3"
       class="fil2"
       d="m -1221,8618 291,-168 c 14,-8 25,-16 35,-25 9,-9 16,-18 21,-29 5,-11 6,-23 4,-36 -2,-14 -8,-29 -17,-45 -14,-24 -29,-40 -44,-47 -15,-7 -33,-6 -54,3 l -1,-1 c 6,-7 11,-13 14,-18 4,-6 6,-13 7,-20 1,-7 0,-16 -3,-25 -3,-10 -8,-21 -16,-34 -17,-30 -38,-47 -62,-49 -25,-2 -56,7 -93,29 l -263,152 181,313 z m 19,-177 164,-94 c 11,-7 21,-10 28,-9 8,1 14,6 20,16 5,8 6,16 2,22 -4,7 -11,13 -22,19 l -163,95 -29,-49 z m -65,-114 161,-93 c 9,-5 17,-7 24,-6 7,1 12,6 17,15 5,9 7,16 4,23 -2,6 -8,12 -16,17 l -162,93 -28,-49 z"
       inkscape:connector-curvature="0"
       style="fill:#ffffff;fill-rule:nonzero" /><path
       id="4"
       class="fil2"
       d="m -854,8260 c 13,22 26,39 41,51 14,11 30,18 45,20 16,1 33,-1 51,-6 18,-6 37,-15 59,-28 l 147,-84 c 22,-13 40,-25 53,-38 14,-13 24,-26 31,-41 6,-15 8,-31 5,-50 -3,-18 -10,-38 -23,-60 l -54,-94 c -13,-22 -27,-39 -41,-51 -15,-12 -30,-18 -46,-20 -16,-2 -33,0 -51,6 -17,6 -37,15 -59,27 l -147,85 c -22,13 -39,25 -53,38 -14,12 -24,26 -30,40 -7,15 -9,32 -6,50 3,18 11,39 24,61 l 54,94 z m 57,-118 c -13,-21 -18,-40 -16,-54 2,-15 14,-29 37,-42 l 107,-62 c 22,-13 40,-16 54,-11 14,6 27,20 39,41 l 20,34 c 13,24 19,42 17,55 -1,13 -13,26 -33,38 l -117,67 c -21,12 -38,16 -50,11 -12,-5 -25,-20 -39,-43 l -19,-34 z"
       inkscape:connector-curvature="0"
       style="fill:#ffffff;fill-rule:nonzero" /><polygon
       id="5"
       class="fil2"
       points="-129,7988 -265,7752 -137,7678 -182,7600 -530,7801 -485,7879 -356,7805 -220,8040 "
       style="fill:#ffffff;fill-rule:nonzero" /><g
       id="_915389312"><path
         class="fil0"
         d="m 2557,12472 323,-186 c 20,-12 43,-22 66,-26 23,-3 46,-2 68,7 20,7 38,19 52,35 14,14 26,30 36,48 l 11,20 c 16,26 28,56 28,86 9,6 17,12 24,19 13,13 23,27 32,42 l 61,105 -193,111 -47,-82 -76,44 47,82 -953,550 -136,-236 -63,37 136,236 -192,111 -136,-236 -75,43 34,58 17,-10 103,177 -1089,629 -24,-43 c -1,2 -1,4 -2,6 -15,52 -56,89 -102,115 l -129,75 c -45,26 -98,43 -150,30 -10,-2 -18,-5 -26,-9 -1,16 -4,32 -10,47 -8,18 -20,34 -35,48 -13,13 -29,24 -45,33 l -337,195 -240,-416 310,-179 c 37,-22 82,-41 127,-36 5,1 9,1 13,2 l -20,-35 192,-111 134,232 c 1,1 2,2 3,4 l 87,-50 c -1,-2 -2,-4 -3,-5 l -134,-232 343,-198 135,233 138,-80 -135,-232 192,-111 135,233 138,-80 -135,-233 1502,-867 z"
         id="path3523"
         inkscape:connector-curvature="0"
         style="fill:#00c0ff" /></g><path
       class="fil2"
       d="m -204,14552 287,-165 c 13,-8 25,-17 34,-25 9,-9 16,-18 21,-29 4,-10 6,-22 4,-36 -2,-13 -8,-28 -18,-45 -14,-24 -28,-40 -43,-46 -15,-7 -33,-7 -54,2 l -1,-1 c 6,-7 11,-13 14,-18 4,-6 6,-13 7,-20 1,-7 0,-15 -3,-25 -3,-10 -8,-21 -16,-34 -17,-30 -38,-46 -62,-49 -24,-3 -55,7 -92,28 l -259,150 181,313 z m 18,-176 162,-93 c 10,-6 20,-9 27,-9 8,1 14,6 20,16 5,9 6,16 2,23 -3,6 -11,13 -21,19 l -161,93 -29,-49 z m -65,-114 159,-92 c 9,-5 16,-7 23,-5 7,1 12,6 17,15 5,8 7,16 5,22 -3,6 -8,12 -17,17 l -159,92 -28,-49 z"
       id="path3525"
       inkscape:connector-curvature="0"
       style="fill:#ffffff;fill-rule:nonzero" /><path
       id="path3527"
       class="fil2"
       d="m 162,14192 c 23,39 49,63 80,70 30,7 66,-1 107,-24 l 129,-75 c 41,-23 66,-50 74,-80 9,-30 2,-65 -21,-104 l -116,-202 -90,52 104,181 c 12,20 16,36 14,49 -3,13 -13,25 -32,35 l -89,52 c -18,10 -34,13 -46,9 -13,-4 -25,-16 -36,-36 l -105,-181 -90,52 117,202 z"
       inkscape:connector-curvature="0"
       style="fill:#ffffff;fill-rule:nonzero" /><polygon
       id="polygon3529"
       class="fil2"
       points="700,13923 566,13690 476,13742 657,14055 949,13887 902,13806 "
       style="fill:#ffffff;fill-rule:nonzero" /><polygon
       id="polygon3531"
       class="fil2"
       points="1030,13732 896,13499 806,13551 987,13865 1279,13696 1232,13615 "
       style="fill:#ffffff;fill-rule:nonzero" /><polygon
       id="polygon3533"
       class="fil2"
       points="1363,13547 1334,13497 1553,13370 1516,13305 1297,13432 1268,13381 1499,13248 1457,13175 1136,13361 1317,13674 1643,13486 1600,13410 "
       style="fill:#ffffff;fill-rule:nonzero" /><polygon
       id="polygon3535"
       class="fil2"
       points="1892,13342 1756,13106 1883,13033 1838,12955 1495,13153 1540,13231 1666,13158 1802,13394 "
       style="fill:#ffffff;fill-rule:nonzero" /><polygon
       id="6"
       class="fil2"
       points="2104,13119 2075,13069 2294,12942 2257,12878 2038,13004 2009,12954 2240,12820 2198,12748 1877,12933 2058,13246 2384,13058 2341,12983 "
       style="fill:#ffffff;fill-rule:nonzero" /><polygon
       id="7"
       class="fil2"
       points="2485,12899 2456,12849 2675,12723 2637,12658 2418,12784 2389,12734 2620,12601 2578,12528 2257,12713 2438,13027 2764,12838 2721,12763 "
       style="fill:#ffffff;fill-rule:nonzero" /><path
       id="8"
       class="fil2"
       d="m 2773,12520 140,-82 c 15,-8 27,-12 36,-12 9,1 17,8 25,21 l 6,11 c 6,11 8,21 6,29 -2,9 -9,16 -21,23 l -148,86 -44,-76 z m 46,287 90,-52 -47,-81 141,-82 c 14,-8 26,-10 34,-7 9,3 19,13 28,30 l 22,37 90,-52 -31,-53 c -7,-12 -14,-22 -22,-29 -7,-7 -14,-12 -22,-14 -7,-3 -14,-4 -21,-3 -8,0 -16,2 -24,5 l 0,-1 c 16,-16 25,-32 25,-48 0,-16 -7,-35 -20,-58 l -11,-20 c -9,-15 -18,-27 -27,-36 -9,-10 -20,-17 -31,-21 -11,-4 -24,-5 -38,-3 -13,2 -29,8 -46,18 l -271,157 181,313 z"
       inkscape:connector-curvature="0"
       style="fill:#ffffff;fill-rule:nonzero" /><path
       class="fil3"
       d="m 0,8677 c 631,0 1142,864 1142,1929 0,1066 -511,1929 -1142,1929 -631,0 -1142,-863 -1142,-1929 0,-1065 511,-1929 1142,-1929 z m 1625,489 c 217,499 344,1104 344,1755 0,636 -121,1227 -329,1719 l -305,-305 c 272,-528 437,-1218 437,-1973 0,-425 -53,-830 -147,-1196 z m -3265,3474 c -208,-492 -329,-1083 -329,-1719 0,-651 127,-1256 344,-1755 -94,366 -147,771 -147,1196 0,755 165,1445 437,1973 l -305,305 z M 1140,9471 c 174,405 277,907 277,1450 0,1348 -634,2441 -1417,2441 -783,0 -1417,-1093 -1417,-2441 0,-543 103,-1045 277,-1450 -101,325 -159,699 -159,1096 0,1261 581,2283 1299,2283 718,0 1299,-1022 1299,-2283 0,-397 -58,-771 -159,-1096 z M 0,8874 c 435,0 787,635 787,1417 0,783 -352,1418 -787,1418 -435,0 -787,-635 -787,-1418 0,-782 352,-1417 787,-1417 z"
       id="path3540"
       inkscape:connector-curvature="0"
       style="fill:#000000" /></g></svg>