<?xml version="1.0" encoding="UTF-8" standalone="no"?>
<!-- Creator: CorelDRAW X7 -->

<svg
   xmlns:dc="http://purl.org/dc/elements/1.1/"
   xmlns:cc="http://creativecommons.org/ns#"
   xmlns:rdf="http://www.w3.org/1999/02/22-rdf-syntax-ns#"
   xmlns:svg="http://www.w3.org/2000/svg"
   xmlns="http://www.w3.org/2000/svg"
   xmlns:sodipodi="http://sodipodi.sourceforge.net/DTD/sodipodi-0.dtd"
   xmlns:inkscape="http://www.inkscape.org/namespaces/inkscape"
   xml:space="preserve"
   width="7.8740005in"
   height="7.8740005in"
   version="1.1"
   style="clip-rule:evenodd;fill-rule:evenodd;image-rendering:optimizeQuality;shape-rendering:geometricPrecision;text-rendering:geometricPrecision"
   viewBox="0 0 7874.0005 7874.0005"
   id="svg16080"
   inkscape:version="0.91 r13725"
   sodipodi:docname="image_6035.svg"><metadata
     id="metadata16094"><rdf:RDF><cc:Work
         rdf:about=""><dc:format>image/svg+xml</dc:format><dc:type
           rdf:resource="http://purl.org/dc/dcmitype/StillImage" /></cc:Work></rdf:RDF></metadata><sodipodi:namedview
     pagecolor="#ffffff"
     bordercolor="#666666"
     borderopacity="1"
     objecttolerance="10"
     gridtolerance="10"
     guidetolerance="10"
     inkscape:pageopacity="0"
     inkscape:pageshadow="2"
     inkscape:window-width="640"
     inkscape:window-height="480"
     id="namedview16092"
     showgrid="false"
     inkscape:zoom="0.23838384"
     inkscape:cx="736.83001"
     inkscape:cy="849.33005"
     inkscape:window-x="0"
     inkscape:window-y="0"
     inkscape:window-maximized="0"
     inkscape:current-layer="svg16080" /><defs
     id="defs16082"><style
       type="text/css"
       id="style16084"><![CDATA[
    .fil0 {fill:black}
    .fil1 {fill:#F6E50D}
   ]]></style></defs><g
     id="Layer_x0020_1"
     transform="translate(3937,-7063)"><metadata
       id="CorelCorpID_0Corel-Layer" /><circle
       class="fil0"
       cy="11000"
       r="3937"
       id="circle16088"
       cx="0"
       style="fill:#000000" /><path
       class="fil1"
       d="m 3342,9320 c 134,265 237,549 305,846 l -2348,1346 118,1181 -472,787 -508,1235 c -144,16 -289,25 -437,25 -148,0 -293,-9 -437,-25 l -508,-1235 -472,-787 118,-1181 -2348,-1346 c 68,-297 171,-581 305,-846 l 2043,1759 c 165,142 294,341 354,551 l 315,1102 473,-1102 314,0 473,1102 315,-1102 c 60,-210 189,-409 354,-551 L 3342,9320 Z m -739,342 c -229,-298 -531,-555 -887,-752 l -1480,1696 40,788 354,826 197,-1181 1776,-1377 z m -5206,0 c 229,-298 531,-555 887,-752 l 1480,1696 -40,788 -354,826 -197,-1181 -1776,-1377 z m 2091,-1654 -315,1457 512,551 315,-1063 315,1063 512,-551 -315,-1457 -1024,0 z"
       id="path16090"
       inkscape:connector-curvature="0"
       style="fill:#f6e50d" /></g></svg>