<?xml version="1.0" encoding="UTF-8" standalone="no"?>
<!-- Creator: CorelDRAW X7 -->

<svg
   xmlns:dc="http://purl.org/dc/elements/1.1/"
   xmlns:cc="http://creativecommons.org/ns#"
   xmlns:rdf="http://www.w3.org/1999/02/22-rdf-syntax-ns#"
   xmlns:svg="http://www.w3.org/2000/svg"
   xmlns="http://www.w3.org/2000/svg"
   xmlns:sodipodi="http://sodipodi.sourceforge.net/DTD/sodipodi-0.dtd"
   xmlns:inkscape="http://www.inkscape.org/namespaces/inkscape"
   xml:space="preserve"
   width="7.8740005in"
   height="7.8740005in"
   version="1.1"
   style="clip-rule:evenodd;fill-rule:evenodd;image-rendering:optimizeQuality;shape-rendering:geometricPrecision;text-rendering:geometricPrecision"
   viewBox="0 0 7874.0005 7874.0005"
   id="svg7053"
   inkscape:version="0.91 r13725"
   sodipodi:docname="image_4002.svg"><metadata
     id="metadata7069"><rdf:RDF><cc:Work
         rdf:about=""><dc:format>image/svg+xml</dc:format><dc:type
           rdf:resource="http://purl.org/dc/dcmitype/StillImage" /></cc:Work></rdf:RDF></metadata><sodipodi:namedview
     pagecolor="#ffffff"
     bordercolor="#666666"
     borderopacity="1"
     objecttolerance="10"
     gridtolerance="10"
     guidetolerance="10"
     inkscape:pageopacity="0"
     inkscape:pageshadow="2"
     inkscape:window-width="640"
     inkscape:window-height="480"
     id="namedview7067"
     showgrid="false"
     inkscape:zoom="0.23838384"
     inkscape:cx="736.83001"
     inkscape:cy="849.33005"
     inkscape:window-x="0"
     inkscape:window-y="0"
     inkscape:window-maximized="0"
     inkscape:current-layer="svg7053" /><defs
     id="defs7055"><style
       type="text/css"
       id="style7057"><![CDATA[
    .fil1 {fill:#B2C801}
    .fil0 {fill:#EECE00}
    .fil2 {fill:white}
   ]]></style></defs><g
     id="Layer_x0020_1"
     transform="translate(3937,-7063)"><metadata
       id="CorelCorpID_0Corel-Layer" /><circle
       class="fil0"
       cy="11000"
       r="3937"
       id="circle7061"
       cx="0"
       style="fill:#eece00" /><circle
       class="fil1"
       cy="11000"
       r="3819"
       id="circle7063"
       cx="0"
       style="fill:#b2c801" /><path
       class="fil2"
       d="m 0,13323 c -1230,0 -2236,-956 -2317,-2166 l 869,0 c 78,731 697,1300 1448,1300 751,0 1370,-569 1448,-1300 l 869,0 C 2236,12367 1230,13323 0,13323 Z m 827,-2581 c 25,82 39,168 39,258 0,478 -388,866 -866,866 -478,0 -866,-388 -866,-866 0,-90 14,-176 39,-258 l 348,-1118 c -521,181 -908,651 -969,1219 l -869,0 c 76,-1148 987,-2068 2131,-2158 L 0,8087 186,8685 c 1144,90 2055,1010 2131,2158 l -869,0 C 1387,10275 1000,9805 479,9624 l 348,1118 z"
       id="path7065"
       inkscape:connector-curvature="0"
       style="fill:#ffffff" /></g></svg>