<?xml version="1.0" encoding="UTF-8" standalone="no"?>
<!-- Creator: CorelDRAW X7 -->

<svg
   xmlns:dc="http://purl.org/dc/elements/1.1/"
   xmlns:cc="http://creativecommons.org/ns#"
   xmlns:rdf="http://www.w3.org/1999/02/22-rdf-syntax-ns#"
   xmlns:svg="http://www.w3.org/2000/svg"
   xmlns="http://www.w3.org/2000/svg"
   xmlns:sodipodi="http://sodipodi.sourceforge.net/DTD/sodipodi-0.dtd"
   xmlns:inkscape="http://www.inkscape.org/namespaces/inkscape"
   xml:space="preserve"
   width="7.8740005in"
   height="7.8740005in"
   version="1.1"
   style="clip-rule:evenodd;fill-rule:evenodd;image-rendering:optimizeQuality;shape-rendering:geometricPrecision;text-rendering:geometricPrecision"
   viewBox="0 0 7874.0005 7874.0005"
   id="svg4482"
   inkscape:version="0.91 r13725"
   sodipodi:docname="Yu Jing - Tokusetsu Butai - [N3] [Vyo].svg"><metadata
     id="metadata4508"><rdf:RDF><cc:Work
         rdf:about=""><dc:format>image/svg+xml</dc:format><dc:type
           rdf:resource="http://purl.org/dc/dcmitype/StillImage" /></cc:Work></rdf:RDF></metadata><sodipodi:namedview
     pagecolor="#ffffff"
     bordercolor="#666666"
     borderopacity="1"
     objecttolerance="10"
     gridtolerance="10"
     guidetolerance="10"
     inkscape:pageopacity="0"
     inkscape:pageshadow="2"
     inkscape:window-width="640"
     inkscape:window-height="480"
     id="namedview4506"
     showgrid="false"
     inkscape:zoom="0.23838384"
     inkscape:cx="736.83001"
     inkscape:cy="849.33005"
     inkscape:window-x="0"
     inkscape:window-y="0"
     inkscape:window-maximized="0"
     inkscape:current-layer="svg4482" /><defs
     id="defs4484"><style
       type="text/css"
       id="style4486"><![CDATA[
    .fil0 {fill:#E2001A}
    .fil1 {fill:white}
   ]]></style></defs><g
     id="Layer_x0020_1"
     transform="translate(3937,-7063)"><metadata
       id="CorelCorpID_0Corel-Layer" /><circle
       class="fil0"
       cy="11000"
       r="3937"
       id="circle4490"
       cx="0"
       style="fill:#e2001a" /><circle
       class="fil1"
       cy="11000"
       r="3819"
       id="circle4492"
       cx="0"
       style="fill:#ffffff" /><circle
       class="fil0"
       cx="-866"
       cy="10134"
       r="591"
       id="circle4494"
       style="fill:#e2001a" /><circle
       class="fil0"
       cx="866"
       cy="10134"
       r="591"
       id="circle4496"
       style="fill:#e2001a" /><circle
       class="fil0"
       cx="-866"
       cy="11866"
       r="591"
       id="circle4498"
       style="fill:#e2001a" /><circle
       class="fil0"
       cx="866"
       cy="11866"
       r="591"
       id="circle4500"
       style="fill:#e2001a" /><path
       class="fil0"
       d="m 1772,11079 -906,0 c -435,0 -787,352 -787,787 l 0,906 -158,0 0,-906 c 0,-435 -352,-787 -787,-787 l -906,0 0,-158 906,0 c 435,0 787,-352 787,-787 l 0,-906 158,0 0,906 c 0,435 352,787 787,787 l 906,0 0,158 z"
       id="path4502"
       inkscape:connector-curvature="0"
       style="fill:#e2001a" /><path
       class="fil0"
       d="m 0,7850 0,-487 -1575,909 c -1506,870 -2022,2796 -1153,4303 583,1009 1641,1574 2728,1575 l 0,487 1575,-909 C 3081,12858 3597,10932 2728,9425 2145,8416 1088,7851 0,7850 Z m -1181,1104 c 1130,-652 2574,-265 3227,865 652,1130 265,2574 -865,3227 -1130,652 -2574,265 -3227,-865 -652,-1130 -265,-2574 865,-3227 z"
       id="path4504"
       inkscape:connector-curvature="0"
       style="fill:#e2001a" /></g></svg>