<?xml version="1.0" encoding="UTF-8" standalone="no"?>
<!-- Creator: CorelDRAW X7 -->

<svg
   xmlns:dc="http://purl.org/dc/elements/1.1/"
   xmlns:cc="http://creativecommons.org/ns#"
   xmlns:rdf="http://www.w3.org/1999/02/22-rdf-syntax-ns#"
   xmlns:svg="http://www.w3.org/2000/svg"
   xmlns="http://www.w3.org/2000/svg"
   xmlns:sodipodi="http://sodipodi.sourceforge.net/DTD/sodipodi-0.dtd"
   xmlns:inkscape="http://www.inkscape.org/namespaces/inkscape"
   xml:space="preserve"
   width="7.8740005in"
   height="7.8740005in"
   version="1.1"
   style="clip-rule:evenodd;fill-rule:evenodd;image-rendering:optimizeQuality;shape-rendering:geometricPrecision;text-rendering:geometricPrecision"
   viewBox="0 0 7874.0005 7874.0005"
   id="svg8894"
   inkscape:version="0.91 r13725"
   sodipodi:docname="Yu Jing - Su-Jian Immediate Action Unit - [A6] [Vyo].svg"><metadata
     id="metadata8930"><rdf:RDF><cc:Work
         rdf:about=""><dc:format>image/svg+xml</dc:format><dc:type
           rdf:resource="http://purl.org/dc/dcmitype/StillImage" /></cc:Work></rdf:RDF></metadata><sodipodi:namedview
     pagecolor="#ffffff"
     bordercolor="#666666"
     borderopacity="1"
     objecttolerance="10"
     gridtolerance="10"
     guidetolerance="10"
     inkscape:pageopacity="0"
     inkscape:pageshadow="2"
     inkscape:window-width="640"
     inkscape:window-height="480"
     id="namedview8928"
     showgrid="false"
     inkscape:zoom="0.23838384"
     inkscape:cx="736.83001"
     inkscape:cy="849.33005"
     inkscape:window-x="0"
     inkscape:window-y="0"
     inkscape:window-maximized="0"
     inkscape:current-layer="svg8894" /><defs
     id="defs8896"><style
       type="text/css"
       id="style8898"><![CDATA[
    .str0 {stroke:black;stroke-width:3}
    .fil3 {fill:none}
    .fil1 {fill:black}
    .fil0 {fill:#E32527}
    .fil4 {fill:white}
    .fil2 {fill:white;fill-rule:nonzero}
   ]]></style></defs><g
     id="Layer_x0020_1"
     transform="translate(3937,-7063)"><metadata
       id="CorelCorpID_0Corel-Layer" /><circle
       class="fil0"
       cy="11000"
       r="3937"
       id="circle8902"
       cx="0"
       style="fill:#e32527" /><circle
       class="fil1"
       cy="11000"
       r="3780"
       id="circle8904"
       cx="0"
       style="fill:#000000" /><circle
       class="fil0"
       cy="11000"
       r="3661"
       id="circle8906"
       cx="0"
       style="fill:#e32527" /><circle
       class="fil1"
       cy="11000"
       r="2520"
       id="circle8908"
       cx="0"
       style="fill:#000000" /><circle
       class="fil0"
       cy="11000"
       r="2402"
       id="circle8910"
       cx="0"
       style="fill:#e32527" /><circle
       class="fil1"
       cy="11000"
       r="2323"
       id="circle8912"
       cx="0"
       style="fill:#000000" /><path
       class="fil2"
       d="m -748,7697 -41,60 c -35,-30 -83,-59 -144,-86 l 39,-61 c 52,21 101,50 146,87 z m 579,359 -27,64 c -57,-34 -117,-64 -181,-92 l 21,133 -70,11 -23,-147 c -44,64 -94,119 -148,165 l -55,-51 c 76,-58 131,-117 164,-178 l -139,22 -32,-206 167,-27 -9,-54 -192,30 -11,-65 193,-30 -11,-70 70,-11 11,70 194,-30 11,65 -195,30 8,55 169,-27 32,207 -168,26 1,9 c 90,34 163,67 220,101 z m -132,-189 -13,-83 -99,15 13,84 99,-16 z m -169,27 -13,-84 -99,16 13,83 99,-15 z m 319,259 -9,75 c -33,6 -71,13 -115,20 -60,9 -121,18 -186,26 -65,9 -117,9 -156,2 -39,-7 -75,-21 -109,-41 -18,42 -37,79 -57,110 l -65,-36 c 58,-85 90,-171 96,-257 l -120,19 -10,-68 c 35,-51 65,-104 88,-157 l -122,19 -11,-67 205,-32 10,67 c -19,48 -46,100 -82,156 l 105,-16 11,69 c -2,42 -10,85 -24,129 60,40 131,53 215,40 112,-18 224,-37 336,-58 z m 831,-323 -60,35 -24,-45 -9,59 -271,-42 9,-55 c -23,14 -48,28 -75,42 l -32,-67 c 100,-46 190,-117 269,-212 l 63,31 c -4,7 -9,14 -16,22 68,97 117,175 146,232 z m -91,-22 c -34,-61 -69,-113 -102,-158 -51,51 -98,91 -142,119 l 244,39 z m 253,461 c -3,22 -13,39 -28,51 -16,12 -34,17 -54,13 l -102,-16 -6,-74 100,17 c 6,1 12,0 17,-4 5,-4 8,-10 9,-16 l 98,-624 67,11 -101,642 z m -133,-98 -69,-11 80,-510 69,11 -80,510 z m -104,51 c -143,7 -289,8 -436,2 l -5,-72 c 71,5 163,7 275,7 40,-63 82,-150 126,-260 l 62,33 c -37,91 -73,166 -108,224 28,1 58,0 89,-2 l -3,68 z m -154,-110 -71,7 c 10,-74 10,-150 1,-229 l 69,-5 c 7,101 7,176 1,227 z m -126,1 -69,6 c 4,-68 0,-149 -14,-243 l 69,-8 c 13,95 18,176 14,245 z"
       id="path8914"
       inkscape:connector-curvature="0"
       style="fill:#ffffff;fill-rule:nonzero" /><circle
       class="fil3"
       cy="11000"
       r="3898"
       id="circle8916"
       cx="0"
       style="fill:none" /><circle
       class="fil3"
       cy="11000"
       r="3898"
       id="circle8918"
       cx="0"
       style="fill:none" /><path
       class="fil4"
       d="m -2500,9215 c 75,-32 173,-103 282,-292 109,-188 122,-309 112,-390 -76,32 -174,103 -282,292 -109,188 -122,309 -112,390 z m -416,2983 c 12,-98 -3,-242 -134,-468 -130,-226 -248,-312 -338,-350 -12,97 3,242 134,468 130,226 248,311 338,350 z m 139,-974 c 44,69 83,184 64,400 -19,217 -78,323 -132,384 -44,-70 -83,-184 -64,-401 19,-216 77,-322 132,-383 z m -349,173 c 37,-91 60,-235 -8,-487 -67,-252 -159,-365 -236,-425 -37,91 -60,234 8,487 67,252 159,365 236,425 z m 387,-905 c 23,79 32,200 -43,404 -74,204 -158,291 -227,336 -23,-78 -32,-199 42,-403 75,-205 159,-292 228,-337 z m -382,78 c 59,-79 118,-212 118,-473 0,-261 -59,-393 -118,-472 -59,79 -119,211 -119,472 0,261 60,394 119,473 z m 607,-775 c 3,82 -20,201 -145,379 -125,179 -229,241 -307,266 -2,-82 21,-200 146,-378 124,-179 228,-241 306,-267 z m -389,-24 c 77,-60 169,-173 236,-425 68,-252 45,-396 9,-487 -78,60 -169,173 -237,425 -67,252 -45,396 -8,487 z m 787,-590 c -18,80 -72,188 -238,328 -167,140 -283,173 -365,178 19,-80 72,-189 238,-329 167,-139 283,-173 365,-177 z"
       id="path8920"
       inkscape:connector-curvature="0"
       style="fill:#ffffff" /><path
       class="fil4"
       d="m 2500,9215 c -75,-32 -173,-103 -282,-292 -109,-188 -122,-309 -112,-390 76,32 174,103 282,292 109,188 122,309 112,390 z m 416,2983 c -12,-98 3,-242 134,-468 130,-226 248,-312 338,-350 12,97 -3,242 -134,468 -130,226 -248,311 -338,350 z m -139,-974 c -44,69 -83,184 -64,400 19,217 78,323 132,384 44,-70 83,-184 64,-401 -19,-216 -78,-322 -132,-383 z m 349,173 c -37,-91 -60,-235 8,-487 67,-252 159,-365 236,-425 37,91 60,234 -8,487 -67,252 -159,365 -236,425 z m -387,-905 c -23,79 -32,200 43,404 74,204 158,291 227,336 23,-78 32,-199 -43,-403 -74,-205 -158,-292 -227,-337 z m 382,78 c -59,-79 -118,-212 -118,-473 0,-261 59,-393 118,-472 59,79 119,211 119,472 0,261 -60,394 -119,473 z m -607,-775 c -3,82 20,201 145,379 125,179 229,241 307,266 2,-82 -21,-200 -146,-378 -124,-179 -228,-241 -306,-267 z m 389,-24 c -77,-60 -169,-173 -236,-425 -68,-252 -45,-396 -9,-487 78,60 169,173 237,425 67,252 45,396 8,487 z m -787,-590 c 18,80 72,188 238,328 167,140 283,173 365,178 -19,-80 -72,-189 -238,-329 -167,-139 -283,-173 -365,-177 z"
       id="path8922"
       inkscape:connector-curvature="0"
       style="fill:#ffffff" /><path
       class="fil2"
       d="m -2804,12963 -47,-66 422,-297 47,66 -422,297 z m 382,471 -49,-57 245,-211 c 12,-10 25,-20 40,-31 -12,5 -30,12 -54,20 l -281,69 -11,-12 111,-269 c 8,-18 17,-35 27,-50 -21,19 -33,31 -38,35 l -245,210 -42,-49 391,-337 42,50 -129,327 341,-81 43,49 -391,337 z m 594,116 c -44,50 -86,57 -125,23 l -164,-144 -133,151 -60,-53 340,-388 225,197 c 39,35 37,77 -7,127 l -76,87 z m -39,-75 36,-41 c 18,-21 18,-39 0,-55 l -137,-120 -90,103 136,120 c 19,16 37,14 55,-7 z m 232,541 -304,-192 276,-436 301,190 -47,75 -233,-148 -61,98 136,86 -47,74 -136,-86 -69,108 236,149 -52,82 z m 488,225 -106,-49 -46,-235 -70,-32 -81,177 -73,-33 215,-469 271,124 c 48,22 58,63 30,123 l -50,110 c -20,43 -42,66 -68,67 -15,2 -44,-8 -87,-27 l 65,244 z m 31,-343 25,-56 c 12,-25 6,-42 -16,-53 l -165,-75 -60,131 165,75 c 22,11 39,3 51,-22 z m 148,388 -78,-21 138,-498 78,22 -138,497 z m 548,115 -89,-15 -23,-118 -217,-38 -59,105 -80,-14 281,-475 77,13 110,542 z m -129,-231 -39,-219 -112,193 151,26 z m 556,264 -341,-26 39,-514 81,6 -32,418 260,19 -7,97 z m 686,-196 c 6,42 5,72 -2,89 -9,24 -32,39 -68,44 l -214,28 c -38,5 -65,-3 -79,-26 -10,-16 -19,-48 -25,-97 l 68,-31 8,60 245,-33 -16,-117 -216,29 c -35,5 -61,-2 -76,-22 -11,-14 -20,-43 -26,-87 l -7,-57 c -6,-43 -6,-73 1,-91 10,-22 33,-36 68,-41 l 196,-26 c 37,-5 62,3 77,23 11,14 20,44 26,88 l -68,35 -8,-59 -226,30 15,110 215,-29 c 37,-4 62,4 77,24 11,15 20,44 25,86 l 10,70 z m 499,-18 -345,100 -143,-496 342,-99 24,85 -264,76 32,111 154,-45 25,85 -155,44 36,123 268,-77 26,93 z m 490,-221 -106,48 -208,-120 -70,31 80,178 -73,33 -212,-470 272,-123 c 48,-22 85,-2 113,59 l 50,110 c 19,43 21,75 6,95 -9,12 -35,28 -78,47 l 226,112 z m -238,-248 -25,-57 c -11,-25 -28,-32 -51,-22 l -165,75 59,131 166,-75 c 22,-10 28,-27 16,-52 z m 348,-447 119,538 -47,30 -449,-324 78,-50 321,236 -90,-386 68,-44 z m 393,335 -64,49 -316,-408 64,-50 316,409 z m 289,-449 c 32,30 51,54 56,71 7,24 -2,49 -27,75 l -143,151 c -25,26 -49,37 -73,31 -18,-4 -43,-22 -75,-52 l -197,-187 c -32,-30 -51,-54 -56,-72 -7,-24 2,-49 27,-75 l 143,-151 c 24,-26 49,-36 73,-30 18,4 43,21 75,52 l 35,33 -42,72 -71,-67 -150,159 237,224 150,-158 -80,-77 74,-41 44,42 z m 394,-313 -208,293 -421,-298 206,-291 72,51 -159,225 94,66 93,-131 71,51 -93,131 105,74 161,-228 79,57 z"
       id="path8924"
       inkscape:connector-curvature="0"
       style="fill:#ffffff;fill-rule:nonzero" /><path
       class="fil4 str0"
       d="m 1739,12052 c -10,18 -57,14 -149,-17 l -951,-322 c -123,-42 -246,-165 -127,-369 118,-205 285,-160 383,-74 l 754,662 c 73,64 100,103 90,120 z M 0,13028 c 20,0 40,-43 59,-138 l 295,-1477 c 22,-108 117,-192 201,-266 l 1131,-993 c 73,-65 99,-103 90,-121 -10,-17 -57,-13 -149,18 -374,126 -747,253 -1120,379 -79,27 -202,-21 -231,-99 -59,-158 -99,-315 -99,-433 0,-79 54,-253 87,-287 68,-68 110,-161 110,-265 0,-103 -42,-196 -110,-264 -67,-68 -146,-267 -264,-267 -118,0 -197,199 -264,267 -68,68 -110,161 -110,264 0,104 42,197 110,265 33,34 87,208 87,287 0,118 -40,275 -99,433 -29,78 -152,126 -231,99 l -1120,-379 c -92,-31 -139,-35 -149,-18 -9,18 17,56 90,121 l 1131,993 c 84,74 179,158 201,266 l 295,1477 c 19,95 39,138 59,138 z M 0,9533 c 114,0 207,-92 207,-206 0,-114 -93,-207 -207,-207 -114,0 -207,93 -207,207 0,114 93,206 207,206 z m 0,1782 c 239,0 433,-194 433,-433 0,-239 -194,-433 -433,-433 -239,0 -433,194 -433,433 0,239 194,433 433,433 z m -1739,737 c 10,18 57,14 149,-17 l 951,-322 c 123,-42 246,-165 127,-369 -118,-205 -285,-160 -383,-74 l -754,662 c -73,64 -100,103 -90,120 z"
       id="path8926"
       inkscape:connector-curvature="0"
       style="fill:#ffffff;stroke:#000000;stroke-width:3" /></g></svg>