<?xml version="1.0" encoding="UTF-8" standalone="no"?>
<!-- Creator: CorelDRAW X7 -->

<svg
   xmlns:dc="http://purl.org/dc/elements/1.1/"
   xmlns:cc="http://creativecommons.org/ns#"
   xmlns:rdf="http://www.w3.org/1999/02/22-rdf-syntax-ns#"
   xmlns:svg="http://www.w3.org/2000/svg"
   xmlns="http://www.w3.org/2000/svg"
   xmlns:sodipodi="http://sodipodi.sourceforge.net/DTD/sodipodi-0.dtd"
   xmlns:inkscape="http://www.inkscape.org/namespaces/inkscape"
   xml:space="preserve"
   width="7.8740005in"
   height="7.8740005in"
   version="1.1"
   style="clip-rule:evenodd;fill-rule:evenodd;image-rendering:optimizeQuality;shape-rendering:geometricPrecision;text-rendering:geometricPrecision"
   viewBox="0 0 7874.0005 7874.0005"
   id="svg23386"
   inkscape:version="0.91 r13725"
   sodipodi:docname="image_7034.svg"><metadata
     id="metadata23412"><rdf:RDF><cc:Work
         rdf:about=""><dc:format>image/svg+xml</dc:format><dc:type
           rdf:resource="http://purl.org/dc/dcmitype/StillImage" /></cc:Work></rdf:RDF></metadata><sodipodi:namedview
     pagecolor="#ffffff"
     bordercolor="#666666"
     borderopacity="1"
     objecttolerance="10"
     gridtolerance="10"
     guidetolerance="10"
     inkscape:pageopacity="0"
     inkscape:pageshadow="2"
     inkscape:window-width="640"
     inkscape:window-height="480"
     id="namedview23410"
     showgrid="false"
     inkscape:zoom="0.23838384"
     inkscape:cx="736.83001"
     inkscape:cy="849.33005"
     inkscape:window-x="0"
     inkscape:window-y="0"
     inkscape:window-maximized="0"
     inkscape:current-layer="svg23386" /><defs
     id="defs23388"><style
       type="text/css"
       id="style23390"><![CDATA[
    .fil2 {fill:none}
    .fil1 {fill:black}
    .fil0 {fill:white}
    .fil3 {fill:white;fill-rule:nonzero}
   ]]></style></defs><g
     id="Layer_x0020_1"
     transform="translate(3937,-7063)"><metadata
       id="CorelCorpID_0Corel-Layer" /><circle
       class="fil0"
       cy="11000"
       r="3937"
       id="circle23394"
       cx="0"
       style="fill:#ffffff" /><path
       class="fil1"
       d="m 741,7293 c 1733,345 3039,1873 3039,3707 0,2087 -1693,3780 -3780,3780 -2087,0 -3780,-1693 -3780,-3780 0,-1834 1306,-3362 3039,-3707 57,-11 113,26 124,83 12,58 -25,114 -83,125 l 0,0 c -1293,314 -2253,1479 -2253,2869 0,1631 1322,2953 2953,2953 1631,0 2953,-1322 2953,-2953 0,-1390 -960,-2555 -2253,-2869 l 0,0 c -58,-11 -95,-67 -83,-125 11,-57 67,-94 124,-83 z"
       id="path23396"
       inkscape:connector-curvature="0"
       style="fill:#000000" /><path
       class="fil1"
       d="m 177,9524 c 468,0 847,379 847,846 0,468 -379,847 -847,847 -467,0 -846,-379 -846,-847 0,-467 379,-846 846,-846 z m 0,98 c 413,0 748,335 748,748 0,413 -335,748 -748,748 -413,0 -748,-335 -748,-748 0,-413 335,-748 748,-748 z"
       id="path23398"
       inkscape:connector-curvature="0"
       style="fill:#000000" /><path
       class="fil1"
       d="m -1850,9740 c 78,79 236,158 354,158 394,0 748,-433 1732,-433 1024,0 1536,748 1536,1535 0,79 -80,118 -118,118 -79,0 -119,-79 -197,-79 -79,0 -748,355 -1496,355 -1260,0 -1733,-906 -1811,-1654 z m 196,276 c 40,39 158,39 197,39 512,0 827,-394 1614,-394 788,0 1182,473 1418,1260 -40,-39 -79,-39 -118,-39 -79,0 -670,275 -1457,275 -984,0 -1496,-551 -1654,-1141 z"
       id="path23400"
       inkscape:connector-curvature="0"
       style="fill:#000000" /><path
       class="fil1"
       d="m 0,7929 c 1370,0 2480,1111 2480,2480 0,1370 -1110,2481 -2480,2481 -1370,0 -2480,-1111 -2480,-2481 0,-1369 1110,-2480 2480,-2480 z m 0,236 c 1239,0 2244,1005 2244,2244 0,1240 -1005,2245 -2244,2245 -1239,0 -2244,-1005 -2244,-2245 0,-1239 1005,-2244 2244,-2244 z"
       id="path23402"
       inkscape:connector-curvature="0"
       style="fill:#000000" /><circle
       class="fil1"
       cx="177"
       cy="10370"
       r="354"
       id="circle23404"
       style="fill:#000000" /><circle
       class="fil2"
       cy="11000"
       r="3898"
       id="circle23406"
       cx="0"
       style="fill:none" /><path
       class="fil3"
       d="m -1234,14008 -1,2 c -14,30 -19,52 -15,65 3,13 18,29 45,48 l -10,22 -240,-110 10,-22 c 31,8 54,9 66,3 12,-6 25,-23 39,-54 l 1,-1 c -114,-55 -193,-112 -237,-169 -45,-58 -52,-119 -22,-184 60,-131 207,-147 443,-49 14,-31 18,-53 12,-66 -7,-13 -22,-27 -45,-43 l 10,-21 241,110 -10,22 c -27,-8 -48,-9 -62,-6 -13,3 -27,20 -41,51 l 0,0 c 103,48 180,101 230,161 50,60 60,123 30,187 -30,67 -81,105 -154,114 -72,9 -169,-11 -290,-60 z m 167,-365 -151,328 c 156,67 258,47 307,-59 49,-109 -2,-198 -156,-269 z m -256,281 151,-328 c -157,-65 -258,-46 -306,59 -25,55 -26,104 -2,147 24,43 77,84 157,122 z m 834,412 c -88,-11 -153,-40 -194,-86 -40,-46 -55,-107 -45,-185 7,-53 25,-96 55,-130 29,-33 66,-56 111,-68 44,-13 93,-15 147,-8 91,12 157,42 198,88 41,47 56,107 46,183 -7,53 -25,97 -53,130 -29,34 -65,57 -110,69 -45,13 -97,15 -155,7 z m -118,-265 c -9,67 -2,120 21,159 23,39 60,62 111,69 29,4 53,2 75,-6 21,-7 39,-19 54,-35 15,-16 26,-36 35,-58 9,-23 15,-47 18,-73 7,-47 5,-87 -4,-120 -10,-34 -26,-59 -47,-77 -22,-18 -48,-29 -78,-33 -51,-7 -93,5 -125,35 -32,30 -52,77 -60,139 z m 606,-174 110,-2 6,345 c 1,52 25,78 73,77 23,0 44,-7 64,-20 l 26,28 c -44,29 -88,44 -133,44 -92,2 -138,-38 -140,-121 l -6,-351 z m 229,-204 53,19 c -9,19 -19,35 -29,47 -9,13 -20,23 -31,30 -11,8 -22,13 -35,16 -12,4 -25,5 -39,6 -16,0 -34,-2 -54,-8 -20,-5 -39,-11 -59,-17 -20,-6 -39,-12 -56,-17 -18,-6 -32,-8 -43,-8 -8,0 -16,1 -24,3 -7,2 -14,5 -20,9 -7,4 -13,9 -19,16 -6,7 -11,16 -16,27 l -51,-16 c 7,-14 14,-26 20,-37 7,-10 13,-19 19,-25 12,-14 25,-24 41,-30 16,-6 34,-10 56,-10 15,0 32,2 52,7 20,6 40,11 60,17 20,7 39,12 57,18 17,5 32,8 43,8 32,-1 57,-19 75,-55 z m -4,208 156,-26 c 64,74 138,197 222,367 78,-117 110,-215 97,-293 -6,-38 -20,-70 -40,-96 l -4,-25 123,-21 c 8,21 14,42 18,63 10,57 2,117 -23,179 -25,62 -75,150 -150,262 l -84,15 c -60,-111 -112,-200 -157,-266 -44,-67 -76,-106 -94,-117 -19,-11 -39,-17 -60,-16 l -4,-26 z m 682,-147 104,-34 107,328 c 16,50 47,67 92,52 22,-7 40,-20 55,-38 l 34,19 c -34,40 -72,68 -114,82 -88,28 -144,3 -170,-75 l -108,-334 z m 752,374 c 50,-74 64,-130 44,-168 -8,-15 -19,-23 -32,-25 -13,-2 -37,3 -69,14 -88,32 -156,44 -204,37 -47,-7 -82,-32 -104,-74 -42,-79 -10,-162 96,-250 l -3,-5 c -101,29 -165,18 -193,-35 -29,-55 3,-119 97,-193 l -4,-7 -52,27 c -52,28 -92,42 -118,44 -26,1 -46,-11 -61,-37 l 99,-53 c 16,23 50,20 103,-7 l 206,-109 18,34 -25,15 c -69,40 -117,81 -146,121 -29,40 -35,76 -17,109 15,30 39,45 69,47 31,2 77,-13 136,-45 l 50,-26 21,42 -35,19 c -67,35 -114,75 -138,117 -25,44 -27,85 -5,127 15,29 37,47 65,54 28,8 73,1 135,-20 62,-21 106,-31 133,-30 27,0 48,14 62,40 16,31 16,67 1,108 -16,41 -42,88 -79,142 l -50,-13 z"
       id="path23408"
       inkscape:connector-curvature="0"
       style="fill:#ffffff;fill-rule:nonzero" /></g></svg>