<?xml version="1.0" encoding="UTF-8" standalone="no"?>
<!-- Creator: CorelDRAW X7 -->

<svg
   xmlns:dc="http://purl.org/dc/elements/1.1/"
   xmlns:cc="http://creativecommons.org/ns#"
   xmlns:rdf="http://www.w3.org/1999/02/22-rdf-syntax-ns#"
   xmlns:svg="http://www.w3.org/2000/svg"
   xmlns="http://www.w3.org/2000/svg"
   xmlns:sodipodi="http://sodipodi.sourceforge.net/DTD/sodipodi-0.dtd"
   xmlns:inkscape="http://www.inkscape.org/namespaces/inkscape"
   xml:space="preserve"
   width="7.8740005in"
   height="7.8740005in"
   version="1.1"
   style="clip-rule:evenodd;fill-rule:evenodd;image-rendering:optimizeQuality;shape-rendering:geometricPrecision;text-rendering:geometricPrecision"
   viewBox="0 0 7874.0005 7874.0005"
   id="svg18324"
   inkscape:version="0.91 r13725"
   sodipodi:docname="image_6053.svg"><metadata
     id="metadata18338"><rdf:RDF><cc:Work
         rdf:about=""><dc:format>image/svg+xml</dc:format><dc:type
           rdf:resource="http://purl.org/dc/dcmitype/StillImage" /></cc:Work></rdf:RDF></metadata><sodipodi:namedview
     pagecolor="#ffffff"
     bordercolor="#666666"
     borderopacity="1"
     objecttolerance="10"
     gridtolerance="10"
     guidetolerance="10"
     inkscape:pageopacity="0"
     inkscape:pageshadow="2"
     inkscape:window-width="640"
     inkscape:window-height="480"
     id="namedview18336"
     showgrid="false"
     inkscape:zoom="0.23838384"
     inkscape:cx="736.83001"
     inkscape:cy="849.33005"
     inkscape:window-x="0"
     inkscape:window-y="0"
     inkscape:window-maximized="0"
     inkscape:current-layer="svg18324" /><defs
     id="defs18326"><style
       type="text/css"
       id="style18328"><![CDATA[
    .fil0 {fill:black}
    .fil1 {fill:#F6E50D}
   ]]></style></defs><g
     id="Layer_x0020_1"
     transform="translate(3937,-7063)"><metadata
       id="CorelCorpID_0Corel-Layer" /><circle
       class="fil0"
       cy="11000"
       r="3937"
       id="circle18332"
       cx="0"
       style="fill:#000000" /><path
       class="fil1"
       d="m 0,7181 c 750,0 1449,216 2039,590 l -1291,2717 197,3229 1535,-3268 -823,19 762,-2423 c 855,700 1400,1764 1400,2955 0,1929 -1431,3524 -3289,3782 l -294,-947 433,-5197 -1378,0 433,5197 -292,942 c -1840,-275 -3251,-1861 -3251,-3777 0,-1191 545,-2255 1400,-2955 l 762,2423 -823,-19 1535,3268 197,-3229 -1291,-2717 C -1449,7397 -750,7181 0,7181 Z"
       id="path18334"
       inkscape:connector-curvature="0"
       style="fill:#f6e50d" /></g></svg>