<?xml version="1.0" encoding="UTF-8" standalone="no"?>
<!-- Creator: CorelDRAW X7 -->

<svg
   xmlns:dc="http://purl.org/dc/elements/1.1/"
   xmlns:cc="http://creativecommons.org/ns#"
   xmlns:rdf="http://www.w3.org/1999/02/22-rdf-syntax-ns#"
   xmlns:svg="http://www.w3.org/2000/svg"
   xmlns="http://www.w3.org/2000/svg"
   xmlns:sodipodi="http://sodipodi.sourceforge.net/DTD/sodipodi-0.dtd"
   xmlns:inkscape="http://www.inkscape.org/namespaces/inkscape"
   xml:space="preserve"
   width="7.8740005in"
   height="7.8740005in"
   version="1.1"
   style="clip-rule:evenodd;fill-rule:evenodd;image-rendering:optimizeQuality;shape-rendering:geometricPrecision;text-rendering:geometricPrecision"
   viewBox="0 0 7874.0005 7874.0005"
   id="svg19994"
   inkscape:version="0.91 r13725"
   sodipodi:docname="image_7015.svg"><metadata
     id="metadata20020"><rdf:RDF><cc:Work
         rdf:about=""><dc:format>image/svg+xml</dc:format><dc:type
           rdf:resource="http://purl.org/dc/dcmitype/StillImage" /></cc:Work></rdf:RDF></metadata><sodipodi:namedview
     pagecolor="#ffffff"
     bordercolor="#666666"
     borderopacity="1"
     objecttolerance="10"
     gridtolerance="10"
     guidetolerance="10"
     inkscape:pageopacity="0"
     inkscape:pageshadow="2"
     inkscape:window-width="640"
     inkscape:window-height="480"
     id="namedview20018"
     showgrid="false"
     inkscape:zoom="0.23838384"
     inkscape:cx="736.83001"
     inkscape:cy="849.33005"
     inkscape:window-x="0"
     inkscape:window-y="0"
     inkscape:window-maximized="0"
     inkscape:current-layer="svg19994" /><defs
     id="defs19996"><style
       type="text/css"
       id="style19998"><![CDATA[
    .fil0 {fill:none}
    .fil2 {fill:black}
    .fil1 {fill:white}
    .fil3 {fill:white;fill-rule:nonzero}
   ]]></style></defs><g
     id="Layer_x0020_1"
     transform="translate(3937,-7063)"><metadata
       id="CorelCorpID_0Corel-Layer" /><circle
       class="fil0"
       cy="11000"
       r="3937"
       id="circle20002"
       cx="0"
       style="fill:none" /><path
       class="fil0"
       d="m 741,7293 c 1733,345 3039,1873 3039,3707 0,2087 -1693,3780 -3780,3780 -2087,0 -3780,-1693 -3780,-3780 0,-1834 1306,-3362 3039,-3707 57,-11 113,26 124,83 12,58 -25,114 -83,125 l 0,0 c -1293,314 -2253,1479 -2253,2869 0,1631 1322,2953 2953,2953 1631,0 2953,-1322 2953,-2953 0,-1390 -960,-2555 -2253,-2869 l 0,0 c -58,-11 -95,-67 -83,-125 11,-57 67,-94 124,-83 z"
       id="path20004"
       inkscape:connector-curvature="0"
       style="fill:none" /><circle
       class="fil1"
       cy="11000"
       r="3937"
       id="circle20006"
       cx="0"
       style="fill:#ffffff" /><path
       class="fil2"
       d="m 741,7293 c 1733,345 3039,1873 3039,3707 0,2087 -1693,3780 -3780,3780 -2087,0 -3780,-1693 -3780,-3780 0,-1834 1306,-3362 3039,-3707 57,-11 113,26 124,83 12,58 -25,114 -83,125 l 0,0 c -1293,314 -2253,1479 -2253,2869 0,1631 1322,2953 2953,2953 1631,0 2953,-1322 2953,-2953 0,-1390 -960,-2555 -2253,-2869 l 0,0 c -58,-11 -95,-67 -83,-125 11,-57 67,-94 124,-83 z"
       id="path20008"
       inkscape:connector-curvature="0"
       style="fill:#000000" /><circle
       class="fil0"
       cy="10370"
       r="2795"
       id="circle20010"
       cx="0"
       style="fill:none" /><path
       class="fil2"
       d="M 2147,8907 0,9898 -2147,8907 c -83,121 -156,249 -217,384 l 1931,1355 186,2311 c 82,7 164,12 247,12 83,0 165,-5 247,-12 L 433,10646 2364,9291 c -61,-135 -134,-263 -217,-384 z M 247,12957 c 1319,-125 2351,-1235 2351,-2587 0,-385 -83,-750 -234,-1079 L 247,12957 Z M -2364,9291 c -151,329 -234,694 -234,1079 0,1352 1032,2462 2351,2587 L -2364,9291 Z"
       id="path20012"
       inkscape:connector-curvature="0"
       style="fill:#000000" /><circle
       class="fil0"
       cy="11000"
       r="3898"
       id="circle20014"
       cx="0"
       style="fill:none" /><path
       class="fil3"
       d="m -1397,13317 -14,20 c -23,-10 -40,-12 -51,-8 -11,4 -29,22 -51,55 l -245,345 c -22,31 -33,53 -34,66 0,12 8,28 24,46 l -14,20 -167,-119 13,-19 c 22,9 39,11 51,8 11,-4 29,-22 52,-56 l 289,-407 -211,-150 -289,408 c -24,33 -35,56 -34,68 0,12 8,27 24,45 l -14,19 -168,-119 14,-19 c 23,9 40,11 51,8 12,-4 29,-23 52,-55 l 244,-345 c 24,-33 35,-56 35,-68 -1,-12 -9,-27 -25,-45 l 14,-20 454,322 z m 213,800 c -45,13 -83,13 -114,-2 -46,-21 -54,-75 -25,-162 l -5,-2 c -78,64 -147,83 -206,56 -44,-20 -70,-54 -78,-102 -8,-47 3,-105 34,-172 32,-70 75,-117 129,-143 55,-25 107,-26 157,-3 37,17 62,39 75,67 13,27 18,65 14,114 l 7,3 81,-94 73,33 -10,22 c -37,23 -93,71 -169,143 -21,63 -35,111 -40,145 -6,34 1,56 19,64 12,6 30,5 52,-1 l 6,34 z m -102,-264 c 23,-70 33,-123 30,-157 -3,-35 -19,-59 -49,-72 -31,-15 -64,-9 -98,16 -35,26 -65,67 -91,124 -50,109 -48,176 7,201 57,27 125,-11 201,-112 z m 225,-436 -10,22 -178,121 -25,-31 134,-148 79,36 z m 251,435 -74,270 c -14,50 -1,80 37,91 18,5 39,2 65,-9 l 12,33 c -49,20 -89,26 -123,17 -36,-10 -60,-27 -73,-51 -12,-23 -12,-56 -1,-98 l 76,-275 -41,-12 c -25,-7 -45,-8 -61,-4 -15,4 -34,14 -54,30 l -23,-33 c 39,-32 71,-50 94,-55 24,-6 53,-4 87,5 l 277,77 -17,64 -181,-50 z m 274,436 -33,243 -83,-12 58,-427 c 23,-170 106,-245 251,-225 60,8 105,34 133,79 28,44 37,102 27,174 -11,82 -37,142 -80,181 -42,38 -95,53 -157,45 -48,-7 -86,-26 -116,-58 z m 24,-173 -11,79 c -4,28 4,52 23,73 20,21 45,34 75,38 82,11 131,-48 148,-176 19,-140 -8,-215 -81,-225 -82,-11 -134,59 -154,211 z m 631,255 c -68,1 -120,-18 -156,-57 -36,-40 -55,-98 -56,-176 -1,-54 7,-100 25,-137 18,-37 43,-66 76,-84 32,-19 69,-28 111,-29 69,-1 123,18 159,58 37,40 56,98 57,173 1,55 -7,100 -25,138 -17,37 -42,65 -74,84 -33,19 -72,29 -117,30 z M -1,14125 c 1,67 12,118 34,154 22,35 53,53 93,52 22,0 40,-6 55,-17 15,-10 28,-25 37,-43 9,-18 16,-39 20,-63 4,-23 5,-48 5,-74 -1,-48 -7,-87 -18,-118 -11,-32 -26,-55 -45,-69 -18,-15 -39,-22 -62,-22 -40,1 -70,19 -90,53 -21,35 -30,84 -29,147 z m 937,74 c -30,38 -63,62 -101,70 -22,6 -41,4 -59,-5 -17,-9 -37,-25 -58,-49 l -125,-141 c -10,14 -26,31 -48,51 l 45,193 -82,19 -75,-325 c -10,-42 -18,-67 -26,-78 -8,-10 -27,-15 -57,-13 l -6,-25 110,-31 30,-7 52,226 c 30,-32 65,-87 105,-166 26,-53 46,-86 60,-100 15,-13 32,-23 52,-27 18,-4 34,-5 50,-4 l 21,90 -38,9 c -11,-13 -24,-17 -39,-14 -14,3 -26,13 -38,28 -12,15 -34,52 -68,112 l 158,164 c 26,27 49,37 70,33 15,-4 29,-15 42,-34 l 25,24 z m 48,7 c 13,-43 22,-94 27,-153 l 32,-343 c -39,-54 -71,-91 -94,-110 -23,-19 -49,-23 -77,-12 -25,10 -45,33 -58,67 l -32,-15 c 24,-63 56,-102 97,-118 28,-12 53,-12 76,-2 22,10 45,30 70,61 25,31 67,94 127,187 78,122 130,198 158,227 28,29 52,40 71,32 14,-6 25,-16 33,-30 l 28,20 c -21,36 -43,58 -67,67 -34,14 -65,6 -93,-23 -29,-29 -86,-114 -173,-256 l -3,1 c -10,125 -17,253 -21,386 l -92,36 -9,-22 z m 703,-286 c -59,34 -114,42 -165,25 -50,-17 -95,-60 -133,-128 -27,-47 -41,-91 -43,-132 -2,-42 7,-79 26,-110 20,-32 48,-58 84,-79 61,-34 117,-42 168,-25 51,18 95,60 132,126 27,47 42,91 44,132 3,41 -5,78 -25,110 -20,32 -49,59 -88,81 z m -223,-157 c 33,58 68,98 104,118 36,21 72,22 106,2 19,-10 33,-24 41,-41 8,-17 12,-35 12,-56 -1,-20 -5,-41 -13,-64 -8,-23 -18,-45 -31,-68 -24,-41 -48,-73 -72,-95 -25,-23 -49,-36 -72,-40 -24,-4 -45,0 -66,12 -34,19 -52,49 -53,89 -2,40 13,88 44,143 z m 513,-611 55,72 -48,37 c -42,-28 -81,-28 -116,-1 -26,20 -38,49 -36,86 1,38 18,78 51,121 29,38 59,62 90,72 30,10 74,5 132,-15 38,-12 68,-18 90,-16 21,1 41,13 57,34 20,26 29,58 28,95 -1,38 -10,85 -27,140 l -44,-10 c 21,-72 18,-124 -7,-157 -11,-14 -23,-21 -36,-23 -13,-1 -31,2 -54,9 -72,24 -130,30 -174,19 -43,-11 -82,-39 -117,-85 -41,-52 -58,-108 -51,-166 6,-58 36,-108 90,-149 36,-28 75,-49 117,-63 z"
       id="path20016"
       inkscape:connector-curvature="0"
       style="fill:#ffffff;fill-rule:nonzero" /></g></svg>