<?xml version="1.0" encoding="UTF-8" standalone="no"?>
<!-- Creator: CorelDRAW X7 -->

<svg
   xmlns:dc="http://purl.org/dc/elements/1.1/"
   xmlns:cc="http://creativecommons.org/ns#"
   xmlns:rdf="http://www.w3.org/1999/02/22-rdf-syntax-ns#"
   xmlns:svg="http://www.w3.org/2000/svg"
   xmlns="http://www.w3.org/2000/svg"
   xmlns:sodipodi="http://sodipodi.sourceforge.net/DTD/sodipodi-0.dtd"
   xmlns:inkscape="http://www.inkscape.org/namespaces/inkscape"
   xml:space="preserve"
   width="7.8740005in"
   height="7.8740005in"
   version="1.1"
   style="clip-rule:evenodd;fill-rule:evenodd;image-rendering:optimizeQuality;shape-rendering:geometricPrecision;text-rendering:geometricPrecision"
   viewBox="0 0 7874.0005 7874.0005"
   id="svg6995"
   inkscape:version="0.91 r13725"
   sodipodi:docname="haqqislam_zhayedan_intervention_troops.svg"><metadata
     id="metadata7011"><rdf:RDF><cc:Work
         rdf:about=""><dc:format>image/svg+xml</dc:format><dc:type
           rdf:resource="http://purl.org/dc/dcmitype/StillImage" /></cc:Work></rdf:RDF></metadata><sodipodi:namedview
     pagecolor="#ffffff"
     bordercolor="#666666"
     borderopacity="1"
     objecttolerance="10"
     gridtolerance="10"
     guidetolerance="10"
     inkscape:pageopacity="0"
     inkscape:pageshadow="2"
     inkscape:window-width="640"
     inkscape:window-height="480"
     id="namedview7009"
     showgrid="false"
     inkscape:zoom="0.23838384"
     inkscape:cx="736.83001"
     inkscape:cy="849.33005"
     inkscape:window-x="0"
     inkscape:window-y="0"
     inkscape:window-maximized="0"
     inkscape:current-layer="svg6995" /><defs
     id="defs6997"><style
       type="text/css"
       id="style6999"><![CDATA[
    .fil1 {fill:#B2C801}
    .fil0 {fill:#EECE00}
    .fil2 {fill:white}
   ]]></style></defs><g
     id="Layer_x0020_1"
     transform="translate(3937,-7063)"><metadata
       id="CorelCorpID_0Corel-Layer" /><circle
       class="fil0"
       cy="11000"
       r="3937"
       id="circle7003"
       cx="0"
       style="fill:#eece00" /><circle
       class="fil1"
       cy="11000"
       r="3819"
       id="circle7005"
       cx="0"
       style="fill:#b2c801" /><path
       class="fil2"
       d="m 1149,9052 c 141,28 271,86 385,166 l -248,261 c -100,-59 -217,-93 -341,-93 -43,0 -84,4 -124,11 l 328,-345 z m -2271,3798 224,0 986,-1037 c 117,81 242,151 374,207 l -789,830 225,0 730,-768 c 153,49 315,81 482,94 l -641,674 224,0 637,-670 c 254,-9 497,-64 720,-157 l -786,827 224,0 1039,-1094 c -325,1089 -1333,1882 -2527,1882 -1457,0 -2638,-1181 -2638,-2638 0,-1157 746,-2141 1783,-2496 l -838,882 0,236 1142,-1202 c 178,-38 362,-58 551,-58 15,0 31,0 46,1 l -1739,1830 0,236 1092,-1149 c -108,235 -173,493 -184,765 l -908,955 0,236 911,-958 c 11,164 42,324 90,475 l -1001,1054 0,236 1064,-1119 c 53,128 120,249 197,363 l -1261,1327 0,236 1360,-1431 c 87,108 184,207 291,295 l -1080,1136 z M 1659,9322 c 102,99 183,219 236,352 l -286,301 c -18,-154 -89,-292 -194,-396 l 244,-257 z m 290,532 c 13,65 20,132 20,201 0,565 -459,1024 -1024,1024 -51,0 -101,-4 -149,-11 l 358,-377 c 212,-70 378,-243 437,-460 l 358,-377 z M 613,11024 c -136,-47 -260,-122 -364,-218 l 244,-257 c 109,99 250,163 406,174 l -286,301 z m -474,-338 c -86,-109 -150,-237 -186,-376 l 329,-345 c -4,29 -6,59 -6,90 0,137 41,264 111,370 l -248,261 z m -216,-579 c -1,-17 -2,-35 -2,-52 0,-565 458,-1023 1023,-1023 L -77,10107 Z"
       id="path7007"
       inkscape:connector-curvature="0"
       style="fill:#ffffff" /></g></svg>