<?xml version="1.0" encoding="UTF-8" standalone="no"?>
<!-- Creator: CorelDRAW X7 -->

<svg
   xmlns:dc="http://purl.org/dc/elements/1.1/"
   xmlns:cc="http://creativecommons.org/ns#"
   xmlns:rdf="http://www.w3.org/1999/02/22-rdf-syntax-ns#"
   xmlns:svg="http://www.w3.org/2000/svg"
   xmlns="http://www.w3.org/2000/svg"
   xmlns:sodipodi="http://sodipodi.sourceforge.net/DTD/sodipodi-0.dtd"
   xmlns:inkscape="http://www.inkscape.org/namespaces/inkscape"
   xml:space="preserve"
   width="7.8740005in"
   height="7.8740005in"
   version="1.1"
   style="clip-rule:evenodd;fill-rule:evenodd;image-rendering:optimizeQuality;shape-rendering:geometricPrecision;text-rendering:geometricPrecision"
   viewBox="0 0 7874.0005 7874.0005"
   id="svg3477"
   inkscape:version="0.91 r13725"
   sodipodi:docname="Tohaa - Clipsos Infiltrators - [N3] [Vyo].svg"><metadata
     id="metadata3621"><rdf:RDF><cc:Work
         rdf:about=""><dc:format>image/svg+xml</dc:format><dc:type
           rdf:resource="http://purl.org/dc/dcmitype/StillImage" /></cc:Work></rdf:RDF></metadata><sodipodi:namedview
     pagecolor="#ffffff"
     bordercolor="#666666"
     borderopacity="1"
     objecttolerance="10"
     gridtolerance="10"
     guidetolerance="10"
     inkscape:pageopacity="0"
     inkscape:pageshadow="2"
     inkscape:window-width="640"
     inkscape:window-height="480"
     id="namedview3619"
     showgrid="false"
     inkscape:zoom="0.23838384"
     inkscape:cx="736.83001"
     inkscape:cy="849.33005"
     inkscape:window-x="0"
     inkscape:window-y="0"
     inkscape:window-maximized="0"
     inkscape:current-layer="svg3477" /><defs
     id="defs3479"><style
       type="text/css"
       id="style3481"><![CDATA[
    .fil0 {fill:black}
    .fil7 {fill:#3F3F3F}
    .fil6 {fill:#4A523A}
    .fil5 {fill:#546535}
    .fil4 {fill:#5F772F}
    .fil3 {fill:#698A2A}
    .fil2 {fill:#749D25}
    .fil13 {fill:#C08030}
    .fil12 {fill:#C68D2D}
    .fil11 {fill:#CD9A2A}
    .fil10 {fill:#D3A626}
    .fil9 {fill:#DAB323}
    .fil8 {fill:#E0C020}
    .fil1 {fill:white}
   ]]></style></defs><g
     id="Layer_x0020_1"
     transform="translate(3937,-7063)"><metadata
       id="CorelCorpID_0Corel-Layer" /><circle
       class="fil0"
       cy="11000"
       r="3937"
       id="circle3485"
       cx="0"
       style="fill:#000000" /><circle
       class="fil1"
       cy="11000"
       r="3858"
       id="circle3487"
       cx="0"
       style="fill:#ffffff" /><path
       class="fil2"
       d="m 0,9228 c 978,0 1772,794 1772,1772 0,978 -794,1772 -1772,1772 -978,0 -1772,-794 -1772,-1772 0,-978 794,-1772 1772,-1772 z m 0,394 c 761,0 1378,617 1378,1378 0,761 -617,1378 -1378,1378 -761,0 -1378,-617 -1378,-1378 0,-761 617,-1378 1378,-1378 z"
       id="path3489"
       inkscape:connector-curvature="0"
       style="fill:#749d25" /><g
       id="_1138823280"><path
         class="fil3"
         d="M 1752,11000 C 1752,10032 968,9248 0,9248 c -968,0 -1752,784 -1752,1752 0,968 784,1752 1752,1752 968,0 1752,-784 1752,-1752 z M 0,9602 c 772,0 1398,626 1398,1398 0,772 -626,1398 -1398,1398 -772,0 -1398,-626 -1398,-1398 0,-772 626,-1398 1398,-1398 z"
         id="path3492"
         inkscape:connector-curvature="0"
         style="fill:#698a2a" /><path
         class="fil4"
         d="M 1732,11000 C 1732,10043 957,9268 0,9268 c -957,0 -1732,775 -1732,1732 0,957 775,1732 1732,1732 957,0 1732,-775 1732,-1732 z M 0,9583 c 783,0 1417,634 1417,1417 0,783 -634,1417 -1417,1417 -783,0 -1417,-634 -1417,-1417 0,-783 634,-1417 1417,-1417 z"
         id="path3494"
         inkscape:connector-curvature="0"
         style="fill:#5f772f" /><path
         class="fil5"
         d="M 1713,11000 C 1713,10054 946,9287 0,9287 c -946,0 -1713,767 -1713,1713 0,946 767,1713 1713,1713 946,0 1713,-767 1713,-1713 z M 0,9563 c 794,0 1437,643 1437,1437 0,794 -643,1437 -1437,1437 -794,0 -1437,-643 -1437,-1437 0,-794 643,-1437 1437,-1437 z"
         id="path3496"
         inkscape:connector-curvature="0"
         style="fill:#546535" /><path
         class="fil6"
         d="M 1693,11000 C 1693,10065 935,9307 0,9307 c -935,0 -1693,758 -1693,1693 0,935 758,1693 1693,1693 935,0 1693,-758 1693,-1693 z M 0,9543 c 804,0 1457,653 1457,1457 0,804 -653,1457 -1457,1457 -804,0 -1457,-653 -1457,-1457 0,-804 653,-1457 1457,-1457 z"
         id="path3498"
         inkscape:connector-curvature="0"
         style="fill:#4a523a" /><path
         class="fil7"
         d="M 1673,11000 C 1673,10076 924,9327 0,9327 c -924,0 -1673,749 -1673,1673 0,924 749,1673 1673,1673 924,0 1673,-749 1673,-1673 z M 0,9524 c 815,0 1476,661 1476,1476 0,815 -661,1476 -1476,1476 -815,0 -1476,-661 -1476,-1476 0,-815 661,-1476 1476,-1476 z"
         id="path3500"
         inkscape:connector-curvature="0"
         style="fill:#3f3f3f" /></g><path
       class="fil8"
       d="m 0,7220 c -236,1024 -787,1103 -787,1595 0,119 32,237 89,344 171,-65 352,-106 541,-121 11,-449 120,-901 157,-1424 37,523 146,975 157,1424 194,15 380,58 554,126 49,-108 76,-228 76,-349 C 787,8323 236,8244 0,7220 Z"
       id="path3502"
       inkscape:connector-curvature="0"
       style="fill:#e0c020" /><g
       id="_1138808560"><path
         class="fil9"
         d="m 0,7303 c -40,155 -92,305 -160,449 -61,127 -132,245 -215,358 -65,89 -135,171 -203,257 -55,70 -109,143 -144,225 -31,72 -46,145 -46,223 0,111 30,220 80,319 165,-61 337,-99 512,-114 7,-224 37,-447 68,-669 35,-246 71,-490 88,-738 l 2,-19 36,0 2,19 c 17,248 53,492 88,738 31,222 61,445 68,668 179,16 356,56 525,120 43,-102 67,-213 67,-324 0,-78 -15,-151 -46,-223 C 687,8510 633,8437 578,8367 510,8281 440,8199 375,8110 292,7997 221,7879 160,7752 92,7608 40,7458 0,7303 Z"
         id="path3505"
         inkscape:connector-curvature="0"
         style="fill:#dab323" /><path
         class="fil10"
         d="m 0,7378 c -37,131 -84,260 -143,383 -60,128 -133,247 -216,361 -65,88 -136,171 -204,257 -53,69 -106,141 -141,221 -30,69 -44,139 -44,215 0,102 26,203 70,295 156,-56 318,-93 483,-109 8,-218 37,-436 68,-653 34,-245 70,-489 88,-737 l 2,-36 74,0 2,36 c 18,248 54,492 88,737 31,217 60,435 68,653 169,17 335,55 495,113 38,-95 58,-197 58,-299 0,-76 -14,-146 -44,-215 C 669,8520 616,8448 563,8379 495,8293 424,8210 359,8122 276,8008 203,7889 143,7761 84,7638 37,7509 0,7378 Z"
         id="path3507"
         inkscape:connector-curvature="0"
         style="fill:#d3a626" /><path
         class="fil11"
         d="m 0,7448 c -11,36 -23,72 -36,107 l 72,0 C 23,7520 11,7484 0,7448 Z m -59,169 c -71,181 -163,351 -284,516 -65,89 -136,172 -204,259 -53,66 -105,137 -139,216 -29,67 -42,134 -42,207 0,93 22,185 60,270 147,-51 299,-85 454,-101 9,-214 37,-427 67,-638 35,-243 70,-484 88,-729 z m 118,0 c 18,245 53,486 88,729 30,211 58,424 67,638 158,16 314,52 465,105 32,-88 49,-181 49,-274 0,-73 -13,-140 -42,-207 C 652,8529 600,8458 547,8392 479,8305 408,8222 343,8133 222,7968 130,7798 59,7617 Z"
         id="path3509"
         inkscape:connector-curvature="0"
         style="fill:#cd9a2a" /><path
         class="fil12"
         d="m 0,7511 c -3,8 -5,16 -8,24 l 16,0 c -3,-8 -5,-16 -8,-24 z m -89,228 c -64,140 -142,275 -239,406 -65,89 -135,172 -204,259 -51,65 -103,135 -136,212 -28,64 -41,129 -41,199 0,85 19,168 52,246 137,-47 280,-79 424,-95 10,-209 38,-416 67,-623 28,-201 57,-402 77,-604 z m 178,0 c 20,202 49,403 77,604 29,207 57,414 67,623 148,17 293,49 434,98 27,-80 42,-164 42,-249 0,-70 -13,-135 -41,-199 C 635,8539 583,8469 532,8404 463,8317 393,8234 328,8145 231,8014 153,7879 89,7739 Z"
         id="path3511"
         inkscape:connector-curvature="0"
         style="fill:#c68d2d" /><path
         class="fil13"
         d="m -121,7848 c -54,106 -117,208 -191,309 -65,89 -136,172 -204,259 -51,64 -101,133 -134,208 -27,61 -39,124 -39,191 0,76 16,151 43,221 128,-42 260,-71 394,-88 11,-203 38,-406 66,-608 24,-164 47,-327 65,-492 z m 242,0 c 18,165 41,328 65,492 28,202 55,405 66,608 137,17 271,47 402,91 23,-72 35,-148 35,-224 0,-67 -12,-130 -39,-191 C 617,8549 567,8480 516,8416 448,8329 377,8246 312,8157 238,8056 175,7954 121,7848 Z"
         id="path3513"
         inkscape:connector-curvature="0"
         style="fill:#c08030" /></g><path
       class="fil2"
       d="m -2673,8327 c 557,891 223,1337 571,1685 85,84 191,144 307,180 95,-212 229,-410 403,-584 177,-177 380,-314 597,-409 -42,-112 -108,-215 -193,-301 -348,-348 -794,-14 -1685,-571 z"
       id="path3515"
       inkscape:connector-curvature="0"
       style="fill:#749d25" /><g
       id="_1138815824"><path
         class="fil3"
         d="m -2614,8386 c 81,137 151,281 204,431 47,132 80,266 101,405 17,108 26,216 39,325 10,88 24,178 57,261 29,73 70,135 125,190 79,79 177,135 282,170 98,-214 234,-408 400,-574 170,-169 367,-307 586,-406 -42,-103 -104,-197 -182,-276 -55,-55 -117,-96 -190,-125 -83,-33 -173,-47 -261,-57 -109,-13 -217,-22 -325,-39 -139,-21 -273,-54 -405,-101 -150,-53 -294,-123 -431,-204 z"
         id="path3518"
         inkscape:connector-curvature="0"
         style="fill:#698a2a" /><path
         class="fil4"
         d="m -2561,8439 c 66,119 124,243 170,371 47,134 80,269 102,409 16,108 25,217 38,326 10,86 24,175 56,256 28,70 68,129 121,183 72,72 162,125 258,159 98,-209 232,-399 396,-563 167,-166 361,-302 574,-402 -40,-93 -98,-180 -170,-252 -54,-53 -113,-93 -183,-121 -81,-32 -170,-46 -256,-56 -109,-13 -218,-22 -326,-38 -140,-22 -275,-55 -409,-102 -128,-46 -252,-104 -371,-170 z"
         id="path3520"
         inkscape:connector-curvature="0"
         style="fill:#5f772f" /><path
         class="fil5"
         d="m -2512,8488 c 120,229 201,463 242,728 17,109 26,217 39,326 10,85 23,172 54,252 27,67 65,124 117,176 66,66 147,115 234,149 99,-205 231,-392 392,-553 164,-163 354,-298 562,-397 -38,-85 -92,-163 -158,-229 -52,-52 -109,-90 -176,-117 -80,-31 -167,-44 -252,-54 -109,-13 -217,-22 -326,-39 -265,-41 -499,-122 -728,-242 z"
         id="path3522"
         inkscape:connector-curvature="0"
         style="fill:#546535" /><path
         class="fil6"
         d="m -2467,8533 c 106,214 179,434 217,680 16,109 25,218 38,327 10,83 23,169 54,246 26,66 62,120 112,170 60,60 132,106 210,138 99,-201 230,-383 388,-542 161,-160 346,-293 550,-392 -37,-76 -86,-146 -146,-206 -50,-50 -104,-86 -170,-112 -77,-31 -163,-44 -246,-54 -109,-13 -218,-22 -327,-38 -246,-38 -466,-111 -680,-217 z"
         id="path3524"
         inkscape:connector-curvature="0"
         style="fill:#4a523a" /><path
         class="fil7"
         d="m -2425,8575 c 94,200 159,407 194,635 17,109 26,218 39,328 9,81 22,165 52,241 25,63 60,115 108,163 53,54 117,96 187,126 98,-196 228,-374 383,-530 158,-157 339,-288 538,-387 -35,-68 -80,-130 -134,-183 -48,-48 -100,-83 -163,-108 -76,-30 -160,-43 -241,-52 -110,-13 -219,-22 -328,-39 -228,-35 -435,-100 -635,-194 z"
         id="path3526"
         inkscape:connector-curvature="0"
         style="fill:#3f3f3f" /></g><path
       class="fil2"
       d="m 2673,13673 c -557,-891 -223,-1337 -571,-1685 -85,-84 -191,-144 -307,-180 -95,212 -229,410 -403,584 -177,177 -380,314 -597,409 42,112 108,215 193,301 348,348 794,14 1685,571 z"
       id="path3528"
       inkscape:connector-curvature="0"
       style="fill:#749d25" /><g
       id="_1138804304"><path
         class="fil3"
         d="m 2614,13614 c -81,-137 -151,-281 -204,-431 -47,-132 -80,-266 -101,-405 -17,-108 -26,-216 -39,-325 -10,-88 -24,-178 -57,-261 -29,-73 -70,-135 -125,-190 -79,-79 -177,-135 -282,-170 -98,214 -234,408 -400,574 -170,169 -367,307 -586,406 42,103 104,197 182,276 55,55 117,96 190,125 83,33 173,47 261,57 109,13 217,22 325,39 139,21 273,54 405,101 150,53 294,123 431,204 z"
         id="path3531"
         inkscape:connector-curvature="0"
         style="fill:#698a2a" /><path
         class="fil4"
         d="m 2561,13561 c -66,-119 -124,-243 -170,-371 -47,-134 -80,-269 -102,-409 -16,-108 -25,-217 -38,-326 -10,-86 -24,-175 -56,-256 -28,-70 -68,-129 -121,-183 -72,-72 -162,-125 -258,-159 -98,209 -232,399 -396,563 -167,166 -361,302 -574,402 40,93 98,180 170,252 54,53 113,93 183,121 81,32 170,46 256,56 109,13 218,22 326,38 140,22 275,55 409,102 128,46 252,104 371,170 z"
         id="path3533"
         inkscape:connector-curvature="0"
         style="fill:#5f772f" /><path
         class="fil5"
         d="m 2512,13512 c -120,-229 -201,-463 -242,-728 -17,-109 -26,-217 -39,-326 -10,-85 -23,-172 -54,-252 -27,-67 -65,-124 -117,-176 -66,-66 -147,-115 -234,-149 -99,205 -231,392 -392,553 -164,163 -354,298 -562,397 38,85 92,163 158,229 52,52 109,90 176,117 80,31 167,44 252,54 109,13 217,22 326,39 265,41 499,122 728,242 z"
         id="path3535"
         inkscape:connector-curvature="0"
         style="fill:#546535" /><path
         class="fil6"
         d="m 2467,13467 c -106,-214 -179,-434 -217,-680 -16,-109 -25,-218 -38,-327 -10,-83 -23,-169 -54,-246 -26,-66 -62,-120 -112,-170 -60,-60 -132,-106 -210,-138 -99,201 -230,383 -388,542 -161,160 -346,293 -550,392 37,76 86,146 146,206 50,50 104,86 170,112 77,31 163,44 246,54 109,13 218,22 327,38 246,38 466,111 680,217 z"
         id="path3537"
         inkscape:connector-curvature="0"
         style="fill:#4a523a" /><path
         class="fil7"
         d="m 2425,13425 c -94,-200 -159,-407 -194,-635 -17,-109 -26,-218 -39,-328 -9,-81 -22,-165 -52,-241 -25,-63 -60,-115 -108,-163 -53,-54 -117,-96 -187,-126 -98,196 -228,374 -383,530 -158,157 -339,288 -538,387 35,68 80,130 134,183 48,48 100,83 163,108 76,30 160,43 241,52 110,13 219,22 328,39 228,35 435,100 635,194 z"
         id="path3539"
         inkscape:connector-curvature="0"
         style="fill:#3f3f3f" /></g><path
       class="fil2"
       d="m -2673,13673 c 891,-557 1337,-223 1685,-571 84,-85 144,-191 180,-307 -212,-95 -410,-229 -584,-403 -177,-177 -314,-380 -409,-597 -112,42 -215,108 -301,193 -348,348 -14,794 -571,1685 z"
       id="path3541"
       inkscape:connector-curvature="0"
       style="fill:#749d25" /><g
       id="_778829568"><path
         class="fil3"
         d="m -2614,13614 c 137,-81 281,-151 431,-204 132,-47 266,-80 405,-101 108,-17 216,-26 325,-39 88,-10 178,-24 261,-57 73,-29 135,-70 190,-125 79,-79 135,-177 170,-282 -214,-98 -408,-234 -574,-400 -169,-170 -307,-367 -406,-586 -103,42 -197,104 -276,182 -55,55 -96,117 -125,190 -33,83 -47,173 -57,261 -13,109 -22,217 -39,325 -21,139 -54,273 -101,405 -53,150 -123,294 -204,431 z"
         id="path3544"
         inkscape:connector-curvature="0"
         style="fill:#698a2a" /><path
         class="fil4"
         d="m -2561,13561 c 119,-66 243,-124 371,-170 134,-47 269,-80 409,-102 108,-16 217,-25 326,-38 86,-10 175,-24 256,-56 70,-28 129,-68 183,-121 72,-72 125,-162 159,-258 -209,-98 -399,-232 -563,-396 -166,-167 -302,-361 -402,-574 -93,40 -180,98 -252,170 -53,54 -93,113 -121,183 -32,81 -46,170 -56,256 -13,109 -22,218 -38,326 -22,140 -55,275 -102,409 -46,128 -104,252 -170,371 z"
         id="path3546"
         inkscape:connector-curvature="0"
         style="fill:#5f772f" /><path
         class="fil5"
         d="m -2512,13512 c 229,-120 463,-201 728,-242 109,-17 217,-26 326,-39 85,-10 172,-23 252,-54 67,-27 124,-65 176,-117 66,-66 115,-147 149,-234 -205,-99 -392,-231 -553,-392 -163,-164 -298,-354 -397,-562 -85,38 -163,92 -229,158 -52,52 -90,109 -117,176 -31,80 -44,167 -54,252 -13,109 -22,217 -39,326 -41,265 -122,499 -242,728 z"
         id="path3548"
         inkscape:connector-curvature="0"
         style="fill:#546535" /><path
         class="fil6"
         d="m -2467,13467 c 214,-106 434,-179 680,-217 109,-16 218,-25 327,-38 83,-10 169,-23 246,-54 66,-26 120,-62 170,-112 60,-60 106,-132 138,-210 -201,-99 -383,-230 -542,-388 -160,-161 -293,-346 -392,-550 -76,37 -146,86 -206,146 -50,50 -86,104 -112,170 -31,77 -44,163 -54,246 -13,109 -22,218 -38,327 -38,246 -111,466 -217,680 z"
         id="path3550"
         inkscape:connector-curvature="0"
         style="fill:#4a523a" /><path
         class="fil7"
         d="m -2425,13425 c 200,-94 407,-159 635,-194 109,-17 218,-26 328,-39 81,-9 165,-22 241,-52 63,-25 115,-60 163,-108 54,-53 96,-117 126,-187 -196,-98 -374,-228 -530,-383 -157,-158 -288,-339 -387,-538 -68,35 -130,80 -183,134 -48,48 -83,100 -108,163 -30,76 -43,160 -52,241 -13,110 -22,219 -39,328 -35,228 -100,435 -194,635 z"
         id="path3552"
         inkscape:connector-curvature="0"
         style="fill:#3f3f3f" /></g><path
       class="fil2"
       d="m 2673,8327 c -891,557 -1337,223 -1685,571 -84,85 -144,191 -180,307 212,95 410,229 584,403 177,177 314,380 409,597 112,-42 215,-108 301,-193 348,-348 14,-794 571,-1685 z"
       id="path3554"
       inkscape:connector-curvature="0"
       style="fill:#749d25" /><g
       id="_778842208"><path
         class="fil3"
         d="m 2614,8386 c -137,81 -281,151 -431,204 -132,47 -266,80 -405,101 -108,17 -216,26 -325,39 -88,10 -178,24 -261,57 -73,29 -135,70 -190,125 -79,79 -135,177 -170,282 214,98 408,234 574,400 169,170 307,367 406,586 103,-42 197,-104 276,-182 55,-55 96,-117 125,-190 33,-83 47,-173 57,-261 13,-109 22,-217 39,-325 21,-139 54,-273 101,-405 53,-150 123,-294 204,-431 z"
         id="path3557"
         inkscape:connector-curvature="0"
         style="fill:#698a2a" /><path
         class="fil4"
         d="m 2561,8439 c -119,66 -243,124 -371,170 -134,47 -269,80 -409,102 -108,16 -217,25 -326,38 -86,10 -175,24 -256,56 -70,28 -129,68 -183,121 -72,72 -125,162 -159,258 209,98 399,232 563,396 166,167 302,361 402,574 93,-40 180,-98 252,-170 53,-54 93,-113 121,-183 32,-81 46,-170 56,-256 13,-109 22,-218 38,-326 22,-140 55,-275 102,-409 46,-128 104,-252 170,-371 z"
         id="path3559"
         inkscape:connector-curvature="0"
         style="fill:#5f772f" /><path
         class="fil5"
         d="m 2512,8488 c -229,120 -463,201 -728,242 -109,17 -217,26 -326,39 -85,10 -172,23 -252,54 -67,27 -124,65 -176,117 -66,66 -115,147 -149,234 205,99 392,231 553,392 163,164 298,354 397,562 85,-38 163,-92 229,-158 52,-52 90,-109 117,-176 31,-80 44,-167 54,-252 13,-109 22,-217 39,-326 41,-265 122,-499 242,-728 z"
         id="path3561"
         inkscape:connector-curvature="0"
         style="fill:#546535" /><path
         class="fil6"
         d="m 2467,8533 c -214,106 -434,179 -680,217 -109,16 -218,25 -327,38 -83,10 -169,23 -246,54 -66,26 -120,62 -170,112 -60,60 -106,132 -138,210 201,99 383,230 542,388 160,161 293,346 392,550 76,-37 146,-86 206,-146 50,-50 86,-104 112,-170 31,-77 44,-163 54,-246 13,-109 22,-218 38,-327 38,-246 111,-466 217,-680 z"
         id="path3563"
         inkscape:connector-curvature="0"
         style="fill:#4a523a" /><path
         class="fil7"
         d="m 2425,8575 c -200,94 -407,159 -635,194 -109,17 -218,26 -328,39 -81,9 -165,22 -241,52 -63,25 -115,60 -163,108 -54,53 -96,117 -126,187 196,98 374,228 530,383 157,158 288,339 387,538 68,-35 130,-80 183,-134 48,-48 83,-100 108,-163 30,-76 43,-160 52,-241 13,-110 22,-219 39,-328 35,-228 100,-435 194,-635 z"
         id="path3565"
         inkscape:connector-curvature="0"
         style="fill:#3f3f3f" /></g><path
       class="fil8"
       d="m -3780,11000 c 1024,236 1103,787 1595,787 119,0 237,-32 344,-89 -65,-171 -106,-352 -121,-541 -449,-11 -901,-120 -1424,-157 523,-37 975,-146 1424,-157 15,-194 58,-380 126,-554 -108,-49 -228,-76 -349,-76 -492,0 -571,551 -1595,787 z"
       id="path3567"
       inkscape:connector-curvature="0"
       style="fill:#e0c020" /><g
       id="_778837888"><path
         class="fil9"
         d="m -1981,10824 c 16,-179 56,-356 120,-525 -102,-43 -213,-67 -324,-67 -78,0 -151,15 -223,46 -82,35 -155,89 -225,144 -86,68 -168,138 -257,203 -113,83 -231,154 -358,215 -144,68 -294,120 -449,160 155,40 305,92 449,160 127,61 245,132 358,215 89,65 171,135 257,203 70,55 143,109 225,144 72,31 145,46 223,46 111,0 220,-30 319,-80 -61,-165 -99,-337 -115,-512 -223,-7 -446,-37 -668,-68 -246,-35 -490,-71 -738,-88 l -19,-2 0,-36 19,-2 c 248,-17 492,-53 738,-88 222,-31 445,-61 668,-68 z"
         id="path3570"
         inkscape:connector-curvature="0"
         style="fill:#dab323" /><path
         class="fil10"
         d="m -1999,10805 c 17,-169 55,-335 113,-495 -95,-38 -197,-58 -299,-58 -76,0 -146,14 -215,44 -80,35 -152,88 -221,141 -86,68 -169,139 -257,204 -114,83 -233,156 -361,216 -123,59 -252,106 -383,143 131,37 260,84 383,143 128,60 247,133 361,216 88,65 171,136 257,204 69,53 141,106 221,141 69,30 139,44 215,44 102,0 203,-26 295,-70 -56,-156 -93,-318 -109,-483 -218,-8 -436,-37 -653,-68 -245,-34 -489,-70 -737,-88 l -36,-2 0,-74 36,-2 c 248,-18 492,-54 737,-88 217,-31 435,-60 653,-68 z"
         id="path3572"
         inkscape:connector-curvature="0"
         style="fill:#d3a626" /><path
         class="fil11"
         d="m -2016,10786 c 16,-158 52,-314 105,-465 -88,-32 -181,-49 -274,-49 -73,0 -140,13 -207,42 -79,34 -150,86 -216,139 -87,68 -170,139 -259,204 -165,121 -335,213 -516,284 245,-18 486,-53 729,-88 211,-30 424,-58 638,-67 z m -1429,178 c -35,13 -71,25 -107,36 36,11 72,23 107,36 l 0,-72 z m 62,95 c 181,71 351,163 516,284 89,65 172,136 259,204 66,53 137,105 216,139 67,29 134,42 207,42 93,0 185,-22 270,-60 -51,-147 -85,-299 -101,-454 -214,-9 -427,-37 -638,-67 -243,-35 -484,-70 -729,-88 z"
         id="path3574"
         inkscape:connector-curvature="0"
         style="fill:#cd9a2a" /><path
         class="fil12"
         d="m -2034,10767 c 17,-148 49,-293 98,-434 -80,-27 -164,-42 -249,-42 -70,0 -135,13 -199,41 -77,33 -147,85 -212,136 -87,69 -170,139 -259,204 -131,97 -266,175 -406,239 202,-20 403,-49 604,-77 207,-29 414,-57 623,-67 z m -1431,225 c -8,3 -16,5 -24,8 8,3 16,5 24,8 l 0,-16 z m 204,97 c 140,64 275,142 406,239 89,65 172,135 259,204 65,51 135,103 212,136 64,28 129,41 199,41 85,0 168,-19 246,-52 -47,-137 -79,-280 -95,-424 -209,-10 -416,-38 -623,-67 -201,-28 -402,-57 -604,-77 z"
         id="path3576"
         inkscape:connector-curvature="0"
         style="fill:#c68d2d" /><path
         class="fil13"
         d="m -2052,10748 c 17,-137 47,-271 91,-402 -72,-23 -148,-35 -224,-35 -67,0 -130,12 -191,39 -75,33 -144,83 -208,134 -87,68 -170,139 -259,204 -101,74 -203,137 -309,191 165,-18 328,-41 492,-65 202,-28 405,-55 608,-66 z m -1100,373 c 106,54 208,117 309,191 89,65 172,136 259,204 64,51 133,101 208,134 61,27 124,39 191,39 76,0 151,-16 221,-43 -42,-128 -71,-260 -88,-394 -203,-11 -406,-38 -608,-66 -164,-24 -327,-47 -492,-65 z"
         id="path3578"
         inkscape:connector-curvature="0"
         style="fill:#c08030" /></g><path
       class="fil8"
       d="m 0,14780 c 236,-1024 787,-1103 787,-1595 0,-119 -32,-237 -89,-344 -171,65 -352,106 -541,121 -11,449 -120,901 -157,1424 -37,-523 -146,-975 -157,-1424 -194,-15 -380,-58 -554,-126 -49,108 -76,228 -76,349 0,492 551,571 787,1595 z"
       id="path3580"
       inkscape:connector-curvature="0"
       style="fill:#e0c020" /><g
       id="_778838656"><path
         class="fil9"
         d="m 0,14697 c 40,-155 92,-305 160,-449 61,-127 132,-245 215,-358 65,-89 135,-171 203,-257 55,-70 109,-143 144,-225 31,-72 46,-145 46,-223 0,-111 -30,-220 -80,-319 -165,61 -337,99 -512,115 -7,223 -37,446 -68,668 -35,246 -71,490 -88,738 l -2,19 -36,0 -2,-19 c -17,-248 -53,-492 -88,-738 -31,-222 -61,-445 -68,-668 -179,-16 -356,-56 -525,-120 -43,102 -67,213 -67,324 0,78 15,151 46,223 35,82 89,155 144,225 68,86 138,168 203,257 83,113 154,231 215,358 68,144 120,294 160,449 z"
         id="path3583"
         inkscape:connector-curvature="0"
         style="fill:#dab323" /><path
         class="fil10"
         d="m 0,14622 c 37,-131 84,-260 143,-383 60,-128 133,-247 216,-361 65,-88 136,-171 204,-257 53,-69 106,-141 141,-221 30,-69 44,-139 44,-215 0,-102 -26,-203 -70,-295 -156,56 -318,93 -483,109 -8,218 -37,436 -68,653 -34,245 -70,489 -88,737 l -2,36 -74,0 -2,-36 c -18,-248 -54,-492 -88,-737 -31,-217 -60,-435 -68,-653 -169,-17 -335,-55 -495,-113 -38,95 -58,197 -58,299 0,76 14,146 44,215 35,80 88,152 141,221 68,86 139,169 204,257 83,114 156,233 216,361 59,123 106,252 143,383 z"
         id="path3585"
         inkscape:connector-curvature="0"
         style="fill:#d3a626" /><path
         class="fil11"
         d="m 0,14552 c 11,-36 23,-72 36,-107 l -72,0 c 13,35 25,71 36,107 z m 59,-169 c 71,-181 163,-351 284,-516 65,-89 136,-172 204,-259 53,-66 105,-137 139,-216 29,-67 42,-134 42,-207 0,-93 -22,-185 -60,-270 -147,51 -299,85 -454,101 -9,214 -37,427 -67,638 -35,243 -70,484 -88,729 z m -118,0 c -18,-245 -53,-486 -88,-729 -30,-211 -58,-424 -67,-638 -158,-16 -314,-52 -465,-105 -32,88 -49,181 -49,274 0,73 13,140 42,207 34,79 86,150 139,216 68,87 139,170 204,259 121,165 213,335 284,516 z"
         id="path3587"
         inkscape:connector-curvature="0"
         style="fill:#cd9a2a" /><path
         class="fil12"
         d="m 0,14489 c 3,-8 5,-16 8,-24 l -16,0 c 3,8 5,16 8,24 z m 89,-228 c 64,-140 142,-275 239,-406 65,-89 135,-172 204,-259 51,-65 103,-135 136,-212 28,-64 41,-129 41,-199 0,-85 -19,-168 -52,-246 -137,47 -280,79 -424,95 -10,209 -38,416 -67,623 -28,201 -57,402 -77,604 z m -178,0 c -20,-202 -49,-403 -77,-604 -29,-207 -57,-414 -67,-623 -148,-17 -293,-49 -434,-98 -27,80 -42,164 -42,249 0,70 13,135 41,199 33,77 85,147 136,212 69,87 139,170 204,259 97,131 175,266 239,406 z"
         id="path3589"
         inkscape:connector-curvature="0"
         style="fill:#c68d2d" /><path
         class="fil13"
         d="m 121,14152 c 54,-106 117,-208 191,-309 65,-89 136,-172 204,-259 51,-64 101,-133 134,-208 27,-61 39,-124 39,-191 0,-76 -16,-151 -43,-221 -128,42 -260,71 -394,88 -11,203 -38,406 -66,608 -24,164 -47,327 -65,492 z m -242,0 c -18,-165 -41,-328 -65,-492 -28,-202 -55,-405 -66,-608 -137,-17 -271,-47 -402,-91 -23,72 -35,148 -35,224 0,67 12,130 39,191 33,75 83,144 134,208 68,87 139,170 204,259 74,101 137,203 191,309 z"
         id="path3591"
         inkscape:connector-curvature="0"
         style="fill:#c08030" /></g><path
       class="fil8"
       d="m 3780,11000 c -1024,-236 -1103,-787 -1595,-787 -119,0 -237,32 -344,89 65,171 106,352 121,541 449,11 901,120 1424,157 -523,37 -975,146 -1424,157 -15,194 -58,380 -126,554 108,49 228,76 349,76 492,0 571,-551 1595,-787 z"
       id="path3593"
       inkscape:connector-curvature="0"
       style="fill:#e0c020" /><g
       id="_778831040"><path
         class="fil9"
         d="m 1981,11176 c -16,179 -56,356 -120,525 102,43 213,67 324,67 78,0 151,-15 223,-46 82,-35 155,-89 225,-144 86,-68 168,-138 257,-203 113,-83 231,-154 358,-215 144,-68 294,-120 449,-160 -155,-40 -305,-92 -449,-160 -127,-61 -245,-132 -358,-215 -89,-65 -171,-135 -257,-203 -70,-55 -143,-109 -225,-144 -72,-31 -145,-46 -223,-46 -111,0 -220,30 -319,80 61,165 99,337 115,512 223,7 446,37 668,68 246,35 490,71 738,88 l 19,2 0,36 -19,2 c -248,17 -492,53 -738,88 -222,31 -445,61 -668,68 z"
         id="path3596"
         inkscape:connector-curvature="0"
         style="fill:#dab323" /><path
         class="fil10"
         d="m 1999,11195 c -17,169 -55,335 -113,495 95,38 197,58 299,58 76,0 146,-14 215,-44 80,-35 152,-88 221,-141 86,-68 169,-139 257,-204 114,-83 233,-156 361,-216 123,-59 252,-106 383,-143 -131,-37 -260,-84 -383,-143 -128,-60 -247,-133 -361,-216 -88,-65 -171,-136 -257,-204 -69,-53 -141,-106 -221,-141 -69,-30 -139,-44 -215,-44 -102,0 -203,26 -295,70 56,156 93,318 109,483 218,8 436,37 653,68 245,34 489,70 737,88 l 36,2 0,74 -36,2 c -248,18 -492,54 -737,88 -217,31 -435,60 -653,68 z"
         id="path3598"
         inkscape:connector-curvature="0"
         style="fill:#d3a626" /><path
         class="fil11"
         d="m 2016,11214 c -16,158 -52,314 -105,465 88,32 181,49 274,49 73,0 140,-13 207,-42 79,-34 150,-86 216,-139 87,-68 170,-139 259,-204 165,-121 335,-213 516,-284 -245,18 -486,53 -729,88 -211,30 -424,58 -638,67 z m 1429,-178 c 35,-13 71,-25 107,-36 -36,-11 -72,-23 -107,-36 l 0,72 z m -62,-95 c -181,-71 -351,-163 -516,-284 -89,-65 -172,-136 -259,-204 -66,-53 -137,-105 -216,-139 -67,-29 -134,-42 -207,-42 -93,0 -185,22 -270,60 51,147 85,299 101,454 214,9 427,37 638,67 243,35 484,70 729,88 z"
         id="path3600"
         inkscape:connector-curvature="0"
         style="fill:#cd9a2a" /><path
         class="fil12"
         d="m 2034,11233 c -17,148 -49,293 -98,434 80,27 164,42 249,42 70,0 135,-13 199,-41 77,-33 147,-85 212,-136 87,-69 170,-139 259,-204 131,-97 266,-175 406,-239 -202,20 -403,49 -604,77 -207,29 -414,57 -623,67 z m 1431,-225 c 8,-3 16,-5 24,-8 -8,-3 -16,-5 -24,-8 l 0,16 z m -204,-97 c -140,-64 -275,-142 -406,-239 -89,-65 -172,-135 -259,-204 -65,-51 -135,-103 -212,-136 -64,-28 -129,-41 -199,-41 -85,0 -168,19 -246,52 47,137 79,280 95,424 209,10 416,38 623,67 201,28 402,57 604,77 z"
         id="path3602"
         inkscape:connector-curvature="0"
         style="fill:#c68d2d" /><path
         class="fil13"
         d="m 2052,11252 c -17,137 -47,271 -91,402 72,23 148,35 224,35 67,0 130,-12 191,-39 75,-33 144,-83 208,-134 87,-68 170,-139 259,-204 101,-74 203,-137 309,-191 -165,18 -328,41 -492,65 -202,28 -405,55 -608,66 z m 1100,-373 c -106,-54 -208,-117 -309,-191 -89,-65 -172,-136 -259,-204 -64,-51 -133,-101 -208,-134 -61,-27 -124,-39 -191,-39 -76,0 -151,16 -221,43 42,128 71,260 88,394 203,11 406,38 608,66 164,24 327,47 492,65 z"
         id="path3604"
         inkscape:connector-curvature="0"
         style="fill:#c08030" /></g><path
       class="fil8"
       d="m 0,11433 c 0,56 62,118 118,118 l 354,0 c 56,0 119,-62 119,-118 l 0,-905 c 0,-56 -63,-119 -119,-119 l -787,0 c -56,0 -118,63 -118,119 l 0,1063 c 0,142 -133,275 -276,275 l -236,0 0,-315 79,0 c 56,0 118,-62 118,-118 l 0,-1063 c 0,-143 133,-276 276,-276 l 1102,0 c 143,0 276,133 276,276 l 0,1221 c 0,142 -133,275 -276,275 l -669,0 c -143,0 -276,-133 -276,-275 l 0,-276 315,0 0,118 z"
       id="path3606"
       inkscape:connector-curvature="0"
       style="fill:#e0c020" /><g
       id="_778835168"><path
         class="fil9"
         d="m -20,11335 -275,0 0,256 c 0,131 124,255 256,255 l 669,0 c 132,0 256,-124 256,-255 l 0,-1221 c 0,-132 -124,-256 -256,-256 l -1102,0 c -132,0 -256,124 -256,256 l 0,1063 c 0,67 -72,138 -138,138 l -59,0 0,275 216,0 c 132,0 256,-124 256,-255 l 0,-1063 c 0,-67 71,-138 138,-138 l 787,0 c 67,0 138,71 138,138 l 0,905 c 0,67 -71,138 -138,138 l -354,0 c -66,0 -138,-71 -138,-138 l 0,-98 z"
         id="path3609"
         inkscape:connector-curvature="0"
         style="fill:#dab323" /><path
         class="fil10"
         d="m -39,11354 -237,0 0,237 c 0,121 116,236 237,236 l 669,0 c 121,0 236,-115 236,-236 l 0,-1221 c 0,-121 -115,-236 -236,-236 l -1102,0 c -121,0 -237,115 -237,236 l 0,1063 c 0,78 -80,158 -157,158 l -40,0 0,236 197,0 c 121,0 237,-115 237,-236 l 0,-1063 c 0,-78 80,-158 157,-158 l 787,0 c 78,0 158,80 158,158 l 0,905 c 0,78 -80,158 -158,158 l -354,0 c -77,0 -157,-80 -157,-158 l 0,-79 z"
         id="path3611"
         inkscape:connector-curvature="0"
         style="fill:#d3a626" /><path
         class="fil11"
         d="m -59,11374 -197,0 0,217 c 0,110 107,216 217,216 l 669,0 c 110,0 216,-106 216,-216 l 0,-1221 c 0,-110 -106,-216 -216,-216 l -1102,0 c -111,0 -217,106 -217,216 l 0,1063 c 0,88 -89,177 -177,177 l -20,0 0,197 177,0 c 110,0 217,-106 217,-216 l 0,-1063 c 0,-89 89,-178 177,-178 l 787,0 c 89,0 178,89 178,178 l 0,905 c 0,88 -89,177 -178,177 l -354,0 c -88,0 -177,-89 -177,-177 l 0,-59 z"
         id="path3613"
         inkscape:connector-curvature="0"
         style="fill:#cd9a2a" /><path
         class="fil12"
         d="m -79,11394 -157,0 0,197 c 0,99 97,196 197,196 l 669,0 c 99,0 197,-97 197,-196 l 0,-1221 c 0,-99 -98,-197 -197,-197 l -1102,0 c -100,0 -197,98 -197,197 l 0,1063 c 0,99 -98,197 -197,197 l 0,157 157,0 c 100,0 197,-97 197,-196 l 0,-1063 c 0,-100 98,-197 197,-197 l 787,0 c 100,0 197,97 197,197 l 0,905 c 0,99 -97,197 -197,197 l -354,0 c -99,0 -197,-98 -197,-197 l 0,-39 z"
         id="path3615"
         inkscape:connector-curvature="0"
         style="fill:#c68d2d" /><path
         class="fil13"
         d="m -98,11413 -119,0 0,178 c 0,88 89,177 178,177 l 669,0 c 88,0 177,-89 177,-177 l 0,-1221 c 0,-88 -89,-177 -177,-177 l -1102,0 c -89,0 -178,89 -178,177 l 0,1063 c 0,104 -94,204 -196,215 l 0,120 137,0 c 89,0 178,-89 178,-177 l 0,-1063 c 0,-111 106,-217 216,-217 l 787,0 c 111,0 217,106 217,217 l 0,905 c 0,110 -106,217 -217,217 l -354,0 c -110,0 -216,-107 -216,-217 l 0,-20 z"
         id="path3617"
         inkscape:connector-curvature="0"
         style="fill:#c08030" /></g></g></svg>