<?xml version="1.0" encoding="UTF-8" standalone="no"?>
<!-- Creator: CorelDRAW X7 -->

<svg
   xmlns:dc="http://purl.org/dc/elements/1.1/"
   xmlns:cc="http://creativecommons.org/ns#"
   xmlns:rdf="http://www.w3.org/1999/02/22-rdf-syntax-ns#"
   xmlns:svg="http://www.w3.org/2000/svg"
   xmlns="http://www.w3.org/2000/svg"
   xmlns:sodipodi="http://sodipodi.sourceforge.net/DTD/sodipodi-0.dtd"
   xmlns:inkscape="http://www.inkscape.org/namespaces/inkscape"
   xml:space="preserve"
   width="7.8740005in"
   height="7.8740005in"
   version="1.1"
   style="clip-rule:evenodd;fill-rule:evenodd;image-rendering:optimizeQuality;shape-rendering:geometricPrecision;text-rendering:geometricPrecision"
   viewBox="0 0 7874.0005 7874.0005"
   id="svg4313"
   inkscape:version="0.91 r13725"
   sodipodi:docname="Tohaa - Kotail Mobile Unit - [N3] [Vyo].svg"><metadata
     id="metadata4431"><rdf:RDF><cc:Work
         rdf:about=""><dc:format>image/svg+xml</dc:format><dc:type
           rdf:resource="http://purl.org/dc/dcmitype/StillImage" /></cc:Work></rdf:RDF></metadata><sodipodi:namedview
     pagecolor="#ffffff"
     bordercolor="#666666"
     borderopacity="1"
     objecttolerance="10"
     gridtolerance="10"
     guidetolerance="10"
     inkscape:pageopacity="0"
     inkscape:pageshadow="2"
     inkscape:window-width="640"
     inkscape:window-height="480"
     id="namedview4429"
     showgrid="false"
     inkscape:zoom="0.23838384"
     inkscape:cx="736.83001"
     inkscape:cy="849.33005"
     inkscape:window-x="0"
     inkscape:window-y="0"
     inkscape:window-maximized="0"
     inkscape:current-layer="svg4313" /><defs
     id="defs4315"><style
       type="text/css"
       id="style4317"><![CDATA[
    .fil0 {fill:black}
    .fil7 {fill:#3F3F3F}
    .fil6 {fill:#4A523A}
    .fil5 {fill:#546535}
    .fil4 {fill:#5F772F}
    .fil3 {fill:#698A2A}
    .fil2 {fill:#749D25}
    .fil13 {fill:#C08030}
    .fil12 {fill:#C68D2D}
    .fil11 {fill:#CD9A2A}
    .fil10 {fill:#D3A626}
    .fil9 {fill:#DAB323}
    .fil8 {fill:#E0C020}
    .fil1 {fill:white}
    .fil14 {fill:#C08030;fill-rule:nonzero}
   ]]></style></defs><g
     id="Layer_x0020_1"
     transform="translate(3937,-7063)"><metadata
       id="CorelCorpID_0Corel-Layer" /><circle
       class="fil0"
       cy="11000"
       r="3937"
       id="circle4321"
       cx="0"
       style="fill:#000000" /><circle
       class="fil1"
       cy="11000"
       r="3858"
       id="circle4323"
       cx="0"
       style="fill:#ffffff" /><g
       id="_1138809296"><path
         class="fil2"
         d="m 256,8989 c 447,56 860,259 1178,577 84,85 84,222 0,307 l -84,83 c -84,85 -221,85 -306,0 C 766,9678 393,9524 0,9524 c -393,0 -766,154 -1044,432 -85,85 -222,85 -306,0 l -84,-83 c -84,-85 -84,-222 0,-307 318,-318 732,-521 1178,-578 0,-2 0,-4 1,-6 l 137,-1339 c 7,-61 52,-117 118,-117 66,0 111,56 118,117 l 137,1339 c 1,2 1,4 1,7 z"
         id="path4326"
         inkscape:connector-curvature="0"
         style="fill:#749d25" /><path
         class="fil3"
         d="m 251,9008 c 443,55 853,257 1169,572 77,77 77,202 0,279 l -84,83 c -77,77 -201,77 -278,0 C 776,9661 398,9504 0,9504 c -398,0 -776,157 -1058,438 -77,77 -201,77 -278,0 l -84,-83 c -77,-77 -77,-202 0,-279 316,-315 726,-517 1169,-572 4,-1 9,-3 11,-5 2,-4 4,-15 4,-19 L -98,7645 c 5,-51 42,-100 98,-100 56,0 93,49 98,100 l 138,1339 c 1,14 3,20 15,24 z"
         id="path4328"
         inkscape:connector-curvature="0"
         style="fill:#698a2a" /><path
         class="fil4"
         d="m 247,9027 c 439,55 846,254 1159,567 69,69 69,181 0,251 l -84,83 c -69,69 -181,69 -250,0 C 787,9643 403,9484 0,9484 c -403,0 -787,159 -1072,444 -69,69 -181,69 -250,0 l -84,-83 c -69,-70 -69,-182 0,-251 313,-313 720,-513 1159,-567 25,-7 28,-14 31,-41 L -78,7647 c 4,-41 33,-82 78,-82 45,0 74,41 78,82 l 138,1339 c 3,23 9,35 31,41 z"
         id="path4330"
         inkscape:connector-curvature="0"
         style="fill:#5f772f" /><path
         class="fil5"
         d="m 243,9046 c 436,54 839,252 1149,562 61,62 61,161 0,223 l -84,83 c -61,62 -161,62 -222,0 C 797,9625 409,9465 0,9465 c -409,0 -797,160 -1086,449 -61,62 -161,62 -222,0 l -84,-83 c -61,-62 -61,-161 0,-223 310,-310 713,-508 1149,-562 34,-8 43,-23 46,-58 L -59,7650 c 3,-32 24,-65 59,-65 35,0 56,34 59,65 l 138,1338 c 3,31 16,50 46,58 z"
         id="path4332"
         inkscape:connector-curvature="0"
         style="fill:#546535" /><path
         class="fil6"
         d="m 240,9066 c 431,53 831,249 1138,556 54,54 54,141 0,195 l -83,83 c -54,54 -142,54 -195,0 C 807,9608 414,9445 0,9445 c -414,0 -807,163 -1100,455 -53,54 -141,54 -195,0 l -83,-83 c -54,-54 -54,-141 0,-195 307,-307 707,-503 1138,-556 44,-11 58,-32 63,-76 L -39,7652 c 2,-21 15,-48 39,-48 24,0 37,27 39,48 l 138,1338 c 4,40 23,66 63,76 z"
         id="path4334"
         inkscape:connector-curvature="0"
         style="fill:#4a523a" /></g><path
       class="fil7"
       d="m 236,9085 c -59,-14 -75,-57 -79,-93 L 20,7654 c -2,-15 -10,-30 -20,-30 -10,0 -18,14 -20,30 l -137,1338 c -5,46 -20,79 -79,93 -438,54 -831,254 -1128,551 l 0,0 c -46,46 -46,121 0,167 l 83,83 c 47,47 121,47 167,0 285,-285 679,-461 1114,-461 435,0 829,176 1114,461 46,47 120,47 167,0 l 83,-83 c 46,-46 46,-121 0,-167 l 0,0 C 1067,9339 674,9139 236,9085 Z"
       id="path4336"
       inkscape:connector-curvature="0"
       style="fill:#3f3f3f" /><g
       id="_1138818224"><path
         class="fil8"
         d="m 2160,13099 c -569,585 -1343,913 -2160,913 -817,0 -1591,-328 -2160,-913 -2,-2 -4,-5 -7,-7 -83,-86 -80,-223 6,-306 l 56,-55 c 85,-81 217,-80 301,0 2,2 4,4 6,6 472,489 1117,763 1798,763 681,0 1326,-274 1798,-763 2,-2 4,-4 6,-6 83,-80 216,-81 301,0 l 56,55 c 86,83 89,220 6,306 -3,2 -5,5 -7,7 z"
         id="path4339"
         inkscape:connector-curvature="0"
         style="fill:#e0c020" /><path
         class="fil9"
         d="m 2146,13085 c -565,581 -1335,907 -2146,907 -811,0 -1581,-326 -2146,-907 -2,-2 -4,-4 -6,-6 -76,-79 -74,-203 4,-279 l 57,-55 c 77,-73 198,-73 274,0 1,2 3,4 5,5 476,493 1126,770 1812,770 686,0 1336,-277 1812,-770 2,-1 3,-3 5,-4 76,-74 197,-75 274,-1 l 57,55 c 78,76 80,200 4,279 -2,2 -4,4 -6,6 z"
         id="path4341"
         inkscape:connector-curvature="0"
         style="fill:#dab323" /><path
         class="fil10"
         d="m 2132,13071 c -561,578 -1326,901 -2132,901 -806,0 -1571,-323 -2132,-901 -2,-2 -4,-4 -6,-6 -68,-71 -66,-183 4,-251 l 57,-54 c 69,-67 178,-66 246,0 2,1 3,3 4,4 481,497 1136,775 1827,775 691,0 1346,-278 1827,-775 1,-1 2,-3 3,-4 69,-66 178,-67 247,0 l 57,54 c 70,68 72,180 4,251 -2,2 -4,4 -6,6 z"
         id="path4343"
         inkscape:connector-curvature="0"
         style="fill:#d3a626" /><path
         class="fil11"
         d="m 2118,13057 c -557,574 -1317,896 -2118,896 -801,0 -1561,-322 -2118,-896 -2,-2 -4,-4 -6,-6 -60,-62 -59,-162 4,-222 l 56,-55 c 62,-60 160,-59 220,1 1,1 2,2 3,3 484,500 1144,781 1841,781 697,0 1357,-281 1841,-781 1,-1 2,-2 3,-3 60,-60 158,-61 220,-1 l 56,54 c 63,61 64,161 4,223 -2,2 -4,4 -6,6 z"
         id="path4345"
         inkscape:connector-curvature="0"
         style="fill:#cd9a2a" /><path
         class="fil12"
         d="m 2105,13043 c -554,570 -1309,890 -2105,890 -796,0 -1550,-320 -2105,-890 -1,-2 -3,-4 -5,-6 -53,-54 -51,-141 4,-194 l 56,-55 c 54,-52 140,-51 193,1 1,1 1,2 2,2 488,505 1153,788 1855,788 702,0 1367,-283 1855,-788 1,0 1,-1 2,-2 53,-52 139,-53 193,-1 l 56,55 c 55,53 57,140 4,194 -2,2 -4,4 -5,6 z"
         id="path4347"
         inkscape:connector-curvature="0"
         style="fill:#c68d2d" /></g><path
       class="fil13"
       d="m 2091,13029 c -530,545 -1271,884 -2091,884 -820,0 -1561,-339 -2091,-884 -2,-2 -3,-4 -5,-5 -45,-47 -44,-122 3,-167 l 1,-1 56,-54 c 47,-45 122,-44 167,3 l 0,0 c 472,489 1135,793 1869,793 734,0 1397,-304 1869,-793 l 0,0 c 45,-47 120,-48 167,-3 l 56,54 1,1 c 47,45 48,120 3,167 -2,1 -3,3 -5,5 z"
       id="path4349"
       inkscape:connector-curvature="0"
       style="fill:#c08030" /><g
       id="_1138828368"><path
         class="fil2"
         d="m -1870,11784 c -174,-415 -205,-874 -88,-1309 30,-115 150,-184 265,-153 l 114,31 c 115,30 184,150 153,265 -101,378 -48,781 147,1120 197,341 517,586 897,688 115,31 184,150 153,265 l -31,114 c -30,115 -150,184 -265,153 -434,-116 -817,-372 -1089,-730 -2,0 -4,1 -6,2 l -1228,550 c -57,25 -128,15 -161,-43 -33,-57 -7,-124 43,-161 l 1091,-788 c 1,-1 3,-3 5,-4 z"
         id="path4352"
         inkscape:connector-curvature="0"
         style="fill:#749d25" /><path
         class="fil3"
         d="m -1851,11779 c -174,-412 -204,-868 -88,-1299 28,-104 136,-167 241,-139 l 114,31 c 104,28 167,136 139,241 -103,383 -49,791 149,1135 199,345 524,594 909,697 104,28 167,137 139,241 l -31,114 c -28,105 -136,167 -241,139 -431,-115 -811,-369 -1080,-725 -3,-3 -7,-7 -10,-8 -4,0 -14,5 -18,6 l -1228,550 c -47,21 -108,14 -136,-35 -28,-48 -4,-104 38,-135 l 1090,-788 c 12,-9 16,-13 13,-25 z"
         id="path4354"
         inkscape:connector-curvature="0"
         style="fill:#698a2a" /><path
         class="fil4"
         d="m -1832,11772 c -173,-407 -203,-859 -88,-1287 25,-94 122,-150 217,-125 l 114,31 c 94,25 150,123 125,217 -104,388 -50,802 151,1150 202,349 531,602 921,706 94,25 150,123 125,217 l -31,114 c -25,94 -123,151 -217,125 -427,-114 -803,-366 -1070,-720 -18,-18 -27,-17 -51,-6 l -1228,550 c -38,17 -88,13 -111,-26 -22,-40 -1,-85 32,-110 l 1091,-788 c 18,-14 25,-26 20,-48 z"
         id="path4356"
         inkscape:connector-curvature="0"
         style="fill:#5f772f" /><path
         class="fil5"
         d="m -1814,11766 c -171,-404 -201,-852 -87,-1275 22,-84 109,-134 192,-112 l 115,31 c 83,22 133,109 111,193 -51,191 -65,390 -41,587 25,204 92,400 194,578 205,354 538,609 933,715 83,23 133,109 111,193 l -31,114 c -22,84 -109,134 -192,111 -424,-113 -797,-363 -1061,-713 -25,-26 -42,-26 -74,-12 l -1228,550 c -29,13 -68,12 -86,-18 -17,-30 2,-65 27,-84 l 1090,-788 c 26,-19 36,-39 27,-70 z"
         id="path4358"
         inkscape:connector-curvature="0"
         style="fill:#546535" /><path
         class="fil6"
         d="m -1795,11760 c -170,-401 -200,-845 -87,-1264 19,-74 95,-117 168,-98 l 114,31 c 74,19 117,95 98,169 -52,193 -66,395 -42,594 26,207 93,405 197,586 207,358 545,617 945,724 73,20 117,96 97,169 l -31,114 c -19,73 -95,117 -168,97 -420,-112 -790,-360 -1051,-707 -32,-33 -57,-35 -97,-17 l -1228,550 c -19,9 -49,11 -61,-10 -12,-21 5,-46 22,-58 l 1090,-788 c 32,-24 45,-53 34,-92 z"
         id="path4360"
         inkscape:connector-curvature="0"
         style="fill:#4a523a" /></g><path
       class="fil7"
       d="m -1776,11753 c 17,58 -12,93 -42,115 l -1090,788 c -11,8 -21,23 -16,32 5,9 22,8 36,2 l 1228,-550 c 42,-18 78,-22 120,22 265,353 635,593 1041,701 l 0,0 c 63,17 127,-20 144,-83 l 31,-114 c 17,-63 -21,-128 -84,-145 -389,-104 -738,-357 -956,-734 -217,-376 -261,-805 -157,-1195 17,-63 -21,-127 -84,-144 l -114,-31 c -63,-17 -128,21 -144,84 l 0,0 c -109,405 -86,846 87,1252 z"
       id="path4362"
       inkscape:connector-curvature="0"
       style="fill:#3f3f3f" /><g
       id="_1138822736"><path
         class="fil8"
         d="m 738,8080 c 791,200 1462,707 1870,1414 409,707 512,1542 290,2327 -1,3 -2,6 -3,9 -33,115 -153,182 -268,149 l -75,-22 c -113,-32 -179,-148 -151,-260 1,-3 1,-5 2,-8 187,-654 102,-1350 -238,-1939 -340,-589 -900,-1011 -1560,-1176 -3,0 -5,-1 -7,-2 -112,-31 -179,-147 -151,-260 l 19,-77 c 29,-116 147,-186 263,-157 3,0 6,1 9,2 z"
         id="path4365"
         inkscape:connector-curvature="0"
         style="fill:#e0c020" /><path
         class="fil9"
         d="m 732,8099 c 787,199 1454,702 1859,1405 406,703 509,1532 287,2312 0,3 -1,6 -2,9 -30,104 -139,165 -243,135 l -76,-22 c -102,-29 -162,-134 -137,-237 1,-2 1,-4 2,-7 189,-659 103,-1360 -240,-1954 -343,-594 -907,-1019 -1572,-1185 -3,0 -4,-1 -6,-1 -102,-29 -164,-134 -138,-237 l 19,-77 c 27,-105 133,-170 239,-143 3,0 6,1 8,2 z"
         id="path4367"
         inkscape:connector-curvature="0"
         style="fill:#dab323" /><path
         class="fil10"
         d="m 727,8118 c 782,197 1444,698 1847,1396 403,698 505,1522 285,2297 0,3 -1,6 -2,8 -27,94 -125,149 -219,122 l -76,-22 c -92,-26 -146,-121 -122,-214 0,-1 0,-3 1,-5 190,-664 104,-1371 -242,-1970 -345,-598 -914,-1027 -1585,-1194 -1,0 -3,-1 -5,-1 -92,-26 -147,-120 -124,-214 l 19,-76 c 24,-95 120,-153 215,-129 3,1 5,1 8,2 z"
         id="path4369"
         inkscape:connector-curvature="0"
         style="fill:#d3a626" /><path
         class="fil11"
         d="m 722,8137 c 776,196 1435,693 1835,1387 401,693 502,1512 283,2282 0,3 -1,5 -2,8 -24,83 -111,132 -194,108 l -76,-22 c -82,-23 -130,-108 -109,-191 0,-1 0,-2 1,-4 192,-669 105,-1381 -244,-1985 -348,-603 -921,-1034 -1597,-1203 -1,0 -2,-1 -4,-1 -82,-23 -131,-107 -111,-190 l 19,-76 c 22,-85 107,-136 191,-115 3,1 5,1 8,2 z"
         id="path4371"
         inkscape:connector-curvature="0"
         style="fill:#cd9a2a" /><path
         class="fil12"
         d="m 717,8156 c 771,194 1425,688 1823,1377 398,690 499,1503 281,2268 0,3 -1,5 -2,7 -21,74 -97,116 -170,95 l -76,-22 c -72,-20 -114,-95 -95,-168 0,0 0,-1 1,-2 193,-675 105,-1392 -246,-2000 -351,-608 -928,-1043 -1609,-1213 -1,0 -2,0 -3,-1 -72,-19 -116,-93 -98,-166 l 20,-77 c 18,-73 93,-118 167,-100 2,1 4,1 7,2 z"
         id="path4373"
         inkscape:connector-curvature="0"
         style="fill:#c68d2d" /></g><path
       class="fil13"
       d="m 711,8175 c 738,186 1402,658 1812,1368 410,711 487,1522 279,2253 0,3 -1,5 -1,7 -18,63 -84,99 -147,81 l 0,0 -75,-22 c -63,-18 -99,-83 -81,-146 l 0,0 C 2685,11062 2617,10336 2250,9701 1883,9065 1288,8644 629,8479 l 0,0 c -64,-16 -102,-80 -86,-143 l 18,-76 1,-1 c 15,-63 80,-102 143,-86 2,1 4,1 6,2 z"
       id="path4375"
       inkscape:connector-curvature="0"
       style="fill:#c08030" /><g
       id="_1138827664"><path
         class="fil2"
         d="m 1614,12228 c -272,358 -655,614 -1089,730 -115,31 -235,-38 -265,-153 l -31,-114 c -31,-115 38,-234 153,-265 380,-102 700,-347 897,-688 195,-339 248,-742 147,-1120 -31,-115 38,-235 153,-265 l 114,-31 c 115,-31 235,38 265,153 117,435 86,894 -88,1309 2,1 4,3 5,4 l 1091,788 c 50,37 76,104 43,161 -33,57 -105,68 -161,43 l -1228,-550 c -2,-1 -4,-2 -6,-2 z"
         id="path4378"
         inkscape:connector-curvature="0"
         style="fill:#749d25" /><path
         class="fil3"
         d="m 1600,12214 c -270,356 -649,610 -1080,725 -105,28 -213,-34 -241,-139 l -31,-114 c -28,-104 35,-213 139,-241 385,-103 710,-352 909,-697 198,-344 252,-752 149,-1135 -28,-105 35,-213 139,-241 l 114,-31 c 105,-28 213,35 241,139 116,431 86,888 -88,1299 -1,4 -2,9 -2,12 3,4 11,10 15,13 l 1090,788 c 42,31 66,87 38,135 -28,48 -89,56 -136,35 l -1228,-550 c -13,-6 -19,-7 -28,2 z"
         id="path4380"
         inkscape:connector-curvature="0"
         style="fill:#698a2a" /><path
         class="fil4"
         d="m 1585,12201 c -267,353 -643,605 -1070,719 -94,26 -192,-31 -217,-125 l -31,-114 c -25,-94 31,-192 125,-217 390,-104 719,-357 921,-706 201,-348 255,-762 151,-1150 -25,-94 31,-192 125,-217 l 114,-31 c 95,-25 192,31 217,125 115,428 85,880 -88,1288 -7,25 -1,31 20,47 l 1091,788 c 33,25 55,70 32,110 -23,39 -73,43 -111,26 l -1228,-550 c -21,-9 -35,-9 -51,7 z"
         id="path4382"
         inkscape:connector-curvature="0"
         style="fill:#5f772f" /><path
         class="fil5"
         d="m 1570,12188 c -264,350 -637,600 -1061,713 -83,23 -170,-27 -192,-111 l -31,-114 c -22,-84 28,-170 111,-193 395,-106 728,-361 933,-715 102,-178 169,-374 194,-578 24,-197 10,-396 -41,-587 -22,-84 28,-171 111,-193 l 115,-31 c 83,-22 170,28 192,112 114,423 84,871 -87,1275 -10,35 -2,49 27,70 l 1090,788 c 25,19 44,53 27,84 -17,30 -57,31 -86,18 l -1228,-550 c -29,-13 -51,-11 -74,12 z"
         id="path4384"
         inkscape:connector-curvature="0"
         style="fill:#546535" /><path
         class="fil6"
         d="m 1555,12175 c -261,347 -631,595 -1051,707 -73,20 -149,-24 -168,-97 l -31,-114 c -20,-73 24,-149 97,-169 400,-107 738,-366 945,-724 104,-181 171,-379 197,-586 24,-199 10,-401 -42,-594 -19,-74 24,-150 98,-169 l 114,-31 c 73,-19 149,24 168,98 113,419 83,863 -87,1264 -13,43 -1,66 34,92 l 1090,788 c 17,13 34,37 22,58 -12,20 -42,19 -61,10 l -1228,-550 c -37,-16 -68,-13 -97,17 z"
         id="path4386"
         inkscape:connector-curvature="0"
         style="fill:#4a523a" /></g><path
       class="fil7"
       d="m 1540,12162 c 42,-44 87,-36 120,-22 l 1228,550 c 13,6 31,7 36,-2 5,-9 -4,-23 -16,-32 l -1090,-788 c -37,-27 -59,-57 -42,-115 173,-406 196,-847 87,-1252 l 0,0 c -16,-63 -81,-101 -144,-84 l -114,31 c -63,17 -101,81 -84,144 104,390 60,819 -157,1195 -218,377 -567,630 -956,734 -63,17 -101,82 -84,145 l 31,114 c 17,63 81,100 144,83 l 0,0 c 406,-108 776,-348 1041,-701 z"
       id="path4388"
       inkscape:connector-curvature="0"
       style="fill:#3f3f3f" /><g
       id="_1138821200"><path
         class="fil8"
         d="m -2898,11821 c -222,-785 -119,-1620 290,-2327 408,-707 1079,-1214 1870,-1414 3,-1 6,-2 9,-2 116,-29 234,41 263,157 l 19,77 c 28,113 -39,228 -150,260 -2,1 -5,2 -8,2 -660,165 -1220,587 -1560,1176 -340,589 -425,1285 -238,1939 1,2 1,5 2,7 28,113 -38,229 -151,261 l -75,22 c -115,33 -235,-34 -268,-149 -1,-3 -2,-6 -3,-9 z"
         id="path4391"
         inkscape:connector-curvature="0"
         style="fill:#e0c020" /><path
         class="fil9"
         d="m -2878,11816 c -222,-780 -119,-1609 287,-2312 405,-703 1072,-1206 1859,-1405 2,-1 5,-2 8,-2 106,-27 212,38 239,143 l 19,77 c 26,103 -35,207 -137,236 -2,1 -4,2 -7,2 -665,166 -1229,591 -1572,1185 -343,594 -429,1295 -240,1954 1,3 1,5 2,7 26,102 -35,208 -137,237 l -76,22 c -104,30 -213,-31 -243,-135 -1,-3 -2,-6 -2,-9 z"
         id="path4393"
         inkscape:connector-curvature="0"
         style="fill:#dab323" /><path
         class="fil10"
         d="m -2859,11811 c -220,-775 -118,-1599 285,-2297 403,-698 1065,-1199 1847,-1396 2,-1 5,-1 8,-2 95,-24 191,34 215,129 l 19,76 c 23,93 -32,188 -124,214 -2,0 -3,1 -5,1 -671,167 -1240,596 -1585,1194 -346,599 -432,1306 -242,1970 1,2 1,3 1,5 24,92 -30,188 -122,214 l -76,22 c -94,27 -192,-28 -219,-122 -1,-2 -2,-5 -2,-8 z"
         id="path4395"
         inkscape:connector-curvature="0"
         style="fill:#d3a626" /><path
         class="fil11"
         d="m -2840,11806 c -219,-770 -118,-1589 283,-2282 400,-694 1059,-1191 1835,-1387 3,-1 5,-1 8,-2 84,-21 169,30 191,115 l 19,76 c 20,83 -29,167 -111,190 -1,0 -3,1 -4,1 -676,169 -1249,600 -1597,1203 -349,604 -436,1316 -244,1985 1,2 1,3 1,4 22,83 -27,168 -109,191 l -76,22 c -83,24 -170,-25 -194,-108 -1,-3 -2,-5 -2,-8 z"
         id="path4397"
         inkscape:connector-curvature="0"
         style="fill:#cd9a2a" /><path
         class="fil12"
         d="m -2821,11801 c -218,-765 -117,-1578 281,-2268 398,-689 1052,-1182 1823,-1377 3,-1 5,-1 7,-2 74,-18 149,27 167,100 l 20,77 c 18,73 -26,147 -98,166 -1,0 -2,1 -3,1 -681,170 -1258,605 -1609,1213 -351,608 -439,1325 -246,2000 1,1 1,1 1,2 19,73 -23,148 -95,168 l -76,22 c -73,21 -149,-21 -170,-95 -1,-2 -2,-4 -2,-7 z"
         id="path4399"
         inkscape:connector-curvature="0"
         style="fill:#c68d2d" /></g><path
       class="fil13"
       d="m -2802,11796 c -208,-731 -131,-1542 279,-2253 410,-710 1074,-1182 1812,-1368 2,-1 4,-1 6,-2 63,-16 128,23 143,86 l 1,1 18,76 c 16,63 -22,127 -86,143 l 0,0 c -659,165 -1254,586 -1621,1222 -367,635 -435,1361 -248,2015 l 0,0 c 18,63 -18,128 -81,146 l -75,22 0,0 c -63,18 -129,-18 -147,-81 0,-2 -1,-4 -1,-7 z"
       id="path4401"
       inkscape:connector-curvature="0"
       style="fill:#c08030" /><g
       id="_1138804208"><path
         class="fil8"
         d="m -256,10626 158,0 0,276 -433,0 0,-847 c 0,-87 43,-170 103,-231 61,-60 144,-104 231,-104 l 354,0 c 87,0 171,44 231,104 61,61 104,144 104,231 l 0,138 -275,0 0,-137 c -1,-11 -17,-29 -24,-37 -7,-7 -25,-22 -36,-23 l -353,0 c -11,1 -29,16 -37,23 -7,8 -22,26 -23,36 l 0,571 z"
         id="path4404"
         inkscape:connector-curvature="0"
         style="fill:#e0c020" /><path
         class="fil9"
         d="m -276,10646 158,0 0,236 -394,0 0,-827 c 0,-81 42,-160 98,-217 57,-56 136,-98 217,-98 l 354,0 c 82,0 161,42 217,98 57,57 98,136 98,217 l 0,118 -236,0 0,-118 c 0,-15 -18,-39 -29,-50 -10,-10 -34,-29 -50,-29 l -354,0 c -15,0 -39,19 -50,29 -10,11 -29,35 -29,50 l 0,591 z"
         id="path4406"
         inkscape:connector-curvature="0"
         style="fill:#dab323" /><path
         class="fil10"
         d="m -295,10661 c 1,2 2,3 4,4 l 153,0 0,197 -354,0 0,-807 c 0,-76 39,-150 92,-203 53,-53 127,-92 203,-92 l 354,0 c 77,0 150,39 203,92 53,53 93,127 93,203 l 0,99 -197,0 0,-99 c 0,-22 -20,-49 -35,-64 -15,-14 -42,-34 -64,-34 l -354,0 c -22,0 -49,20 -63,34 -15,15 -35,42 -35,64 l 0,606 z"
         id="path4408"
         inkscape:connector-curvature="0"
         style="fill:#d3a626" /><path
         class="fil11"
         d="m -157,10843 -315,0 0,-788 c 0,-71 37,-140 86,-189 49,-49 118,-86 189,-86 l 354,0 c 71,0 140,37 189,86 50,49 87,118 87,189 l 0,79 -157,0 0,-79 c 0,-28 -22,-59 -41,-77 -19,-19 -50,-41 -78,-41 l -354,0 c -28,0 -59,22 -77,41 -19,18 -41,49 -41,77 l 0,610 c 0,7 13,20 20,20 l 138,0 0,158 z"
         id="path4410"
         inkscape:connector-curvature="0"
         style="fill:#cd9a2a" /><path
         class="fil12"
         d="m -177,10823 -276,0 0,-768 c 0,-65 36,-129 81,-175 46,-45 110,-81 175,-81 l 354,0 c 66,0 130,36 175,81 46,46 81,110 81,175 l 0,59 -118,0 0,-59 c 0,-33 -23,-68 -46,-91 -23,-23 -58,-47 -92,-47 l -354,0 c -33,0 -68,24 -91,47 -23,23 -47,58 -47,91 l 0,610 c 0,17 23,40 40,40 l 118,0 0,118 z"
         id="path4412"
         inkscape:connector-curvature="0"
         style="fill:#c68d2d" /></g><path
       class="fil14"
       d="m -197,10803 -236,0 0,-748 c 0,-57 31,-117 75,-161 45,-44 104,-75 161,-75 l 354,0 c 58,0 117,31 162,75 44,44 75,104 75,161 l 0,39 -79,0 0,-39 c 0,-35 -21,-74 -52,-105 -31,-31 -70,-52 -106,-52 l -354,0 c -35,0 -74,21 -105,52 -31,31 -52,70 -52,105 l 0,610 c 0,28 31,59 59,59 l 98,0 0,79 z"
       id="path4414"
       inkscape:connector-curvature="0"
       style="fill:#c08030;fill-rule:nonzero" /><g
       id="_1138830416"><path
         class="fil8"
         d="m 178,12161 -709,0 0,-98 c 0,-335 0,-669 0,-1004 l 0,-98 275,0 0,413 512,0 0,276 -512,0 0,236 453,0 c 36,0 72,9 104,25 32,16 60,39 82,66 l 140,175 -215,172 -130,-163 z"
         id="path4417"
         inkscape:connector-curvature="0"
         style="fill:#e0c020" /><path
         class="fil9"
         d="m 188,12142 -700,0 0,-79 c 0,-335 0,-669 0,-1004 l 0,-79 236,0 0,414 512,0 0,236 -512,0 0,276 473,0 c 33,0 66,8 95,23 29,14 56,35 76,60 l 128,160 -185,148 -123,-155 z"
         id="path4419"
         inkscape:connector-curvature="0"
         style="fill:#dab323" /><path
         class="fil10"
         d="m 195,12122 -687,0 0,-59 c 0,-335 0,-669 0,-1004 l 0,-59 197,0 0,410 c 1,1 2,2 4,3 l 508,0 0,197 -508,0 c -2,1 -3,3 -4,4 l 0,307 c 1,2 2,3 4,4 l 488,0 c 30,0 60,8 87,21 26,14 50,33 68,56 l 116,144 -154,123 -115,-145 c -1,0 -2,-1 -3,-2 0,0 -1,0 -1,0 z"
         id="path4421"
         inkscape:connector-curvature="0"
         style="fill:#d3a626" /><path
         class="fil11"
         d="m 318,12241 -104,-129 c -2,-3 -6,-6 -9,-7 -3,-1 -6,-3 -8,-3 l -669,0 0,-39 c 0,-335 0,-669 0,-1004 l 0,-39 157,0 0,393 c 0,7 13,20 20,20 l 492,0 0,158 -492,0 c -7,0 -20,13 -20,19 l 0,315 c 0,7 13,19 20,20 l 492,0 c 27,0 54,7 78,19 24,12 45,29 62,50 l 103,129 -122,98 z"
         id="path4423"
         inkscape:connector-curvature="0"
         style="fill:#cd9a2a" /><path
         class="fil12"
         d="m 321,12214 -91,-114 c -5,-6 -11,-10 -17,-13 -5,-2 -11,-4 -16,-4 l -650,0 0,-20 c 0,-335 0,-669 0,-1004 l 0,-20 118,0 0,374 c 0,17 23,40 40,40 l 472,0 0,118 -472,0 c -17,0 -40,22 -40,39 l 0,315 c 0,17 23,40 40,40 l 492,0 c 24,0 48,6 69,17 21,10 41,26 56,44 l 91,114 -92,74 z"
         id="path4425"
         inkscape:connector-curvature="0"
         style="fill:#c68d2d" /></g><path
       class="fil14"
       d="m 324,12186 -79,-99 c -6,-7 -14,-13 -23,-18 -8,-4 -17,-6 -25,-6 l -630,0 c 0,-341 0,-663 0,-1004 l 79,0 0,354 c 0,28 31,59 59,59 l 452,0 0,79 -452,0 c -28,0 -59,31 -59,59 l 0,315 c 0,28 31,59 59,59 l 492,0 c 20,0 41,6 60,15 19,10 36,23 49,40 l 79,98 -61,49 z"
       id="path4427"
       inkscape:connector-curvature="0"
       style="fill:#c08030;fill-rule:nonzero" /></g></svg>