<?xml version="1.0" encoding="UTF-8" standalone="no"?>
<!-- Creator: CorelDRAW X7 -->

<svg
   xmlns:dc="http://purl.org/dc/elements/1.1/"
   xmlns:cc="http://creativecommons.org/ns#"
   xmlns:rdf="http://www.w3.org/1999/02/22-rdf-syntax-ns#"
   xmlns:svg="http://www.w3.org/2000/svg"
   xmlns="http://www.w3.org/2000/svg"
   xmlns:sodipodi="http://sodipodi.sourceforge.net/DTD/sodipodi-0.dtd"
   xmlns:inkscape="http://www.inkscape.org/namespaces/inkscape"
   xml:space="preserve"
   width="7.8740005in"
   height="7.8740005in"
   version="1.1"
   style="clip-rule:evenodd;fill-rule:evenodd;image-rendering:optimizeQuality;shape-rendering:geometricPrecision;text-rendering:geometricPrecision"
   viewBox="0 0 7874.0005 7874.0005"
   id="svg3788"
   inkscape:version="0.91 r13725"
   sodipodi:docname="Combined Army - Suryats Morat Assault Heavy Infantry - [N3] [Vyo].svg"><metadata
     id="metadata3806"><rdf:RDF><cc:Work
         rdf:about=""><dc:format>image/svg+xml</dc:format><dc:type
           rdf:resource="http://purl.org/dc/dcmitype/StillImage" /></cc:Work></rdf:RDF></metadata><sodipodi:namedview
     pagecolor="#ffffff"
     bordercolor="#666666"
     borderopacity="1"
     objecttolerance="10"
     gridtolerance="10"
     guidetolerance="10"
     inkscape:pageopacity="0"
     inkscape:pageshadow="2"
     inkscape:window-width="640"
     inkscape:window-height="480"
     id="namedview3804"
     showgrid="false"
     inkscape:zoom="0.23838384"
     inkscape:cx="736.83001"
     inkscape:cy="849.33005"
     inkscape:window-x="0"
     inkscape:window-y="0"
     inkscape:window-maximized="0"
     inkscape:current-layer="svg3788" /><defs
     id="defs3790"><style
       type="text/css"
       id="style3792"><![CDATA[
    .fil0 {fill:black}
    .fil1 {fill:#00C0FF}
    .fil3 {fill:white}
    .fil2 {fill:#E32527;fill-rule:nonzero}
   ]]></style></defs><g
     id="Layer_x0020_1"
     transform="translate(3937,-7063)"><metadata
       id="CorelCorpID_0Corel-Layer" /><circle
       class="fil0"
       cy="11000"
       r="3937"
       id="circle3796"
       cx="0"
       style="fill:#000000" /><polygon
       class="fil1"
       points="1909,12791 965,13244 1083,11217 551,9858 1791,9150 2598,10843 "
       id="polygon3798"
       style="fill:#00c0ff" /><path
       class="fil2"
       d="m -654,8837 c -179,829 -167,1521 41,2080 204,548 601,976 1196,1287 l -182,348 c -684,-358 -1143,-856 -1382,-1498 -235,-633 -253,-1397 -58,-2300 l 385,83 z m -2003,1612 1047,-1600 390,25 c -571,1713 -297,3198 1240,3898 l -985,610 -1279,-945 -413,-1988 z"
       id="path3800"
       inkscape:connector-curvature="0"
       style="fill:#e32527;fill-rule:nonzero" /><path
       class="fil3"
       d="m 197,8133 c 1495,101 2677,1346 2677,2867 0,1521 -1182,2766 -2677,2867 l 0,-553 c 164,-13 323,-44 476,-90 71,-262 165,-616 208,-1017 -190,266 -398,502 -619,701 -174,156 -356,289 -546,397 29,4 58,7 87,9 l 0,553 c -1495,-101 -2677,-1346 -2677,-2867 0,-1521 1182,-2766 2677,-2867 l 0,553 c -120,10 -237,29 -352,57 457,261 808,551 1076,856 162,-136 341,-261 529,-362 93,-51 188,-95 286,-133 C 1013,8871 621,8721 197,8686 l 0,-553 z m 932,4897 c 712,-397 1194,-1157 1194,-2030 0,-618 -242,-1180 -636,-1596 -150,38 -300,100 -445,179 -168,90 -328,203 -474,327 749,1102 556,2335 361,3120 z M 889,11454 c -83,-880 -536,-1843 -1932,-2530 -759,382 -1280,1168 -1280,2076 0,967 591,1795 1431,2145 314,-98 614,-280 891,-529 335,-302 637,-699 890,-1162 z"
       id="path3802"
       inkscape:connector-curvature="0"
       style="fill:#ffffff" /></g></svg>