<?xml version="1.0" encoding="UTF-8" standalone="no"?>
<!-- Creator: CorelDRAW X7 -->

<svg
   xmlns:dc="http://purl.org/dc/elements/1.1/"
   xmlns:cc="http://creativecommons.org/ns#"
   xmlns:rdf="http://www.w3.org/1999/02/22-rdf-syntax-ns#"
   xmlns:svg="http://www.w3.org/2000/svg"
   xmlns="http://www.w3.org/2000/svg"
   xmlns:sodipodi="http://sodipodi.sourceforge.net/DTD/sodipodi-0.dtd"
   xmlns:inkscape="http://www.inkscape.org/namespaces/inkscape"
   xml:space="preserve"
   width="7.8740005in"
   height="7.8740005in"
   version="1.1"
   style="clip-rule:evenodd;fill-rule:evenodd;image-rendering:optimizeQuality;shape-rendering:geometricPrecision;text-rendering:geometricPrecision"
   viewBox="0 0 7874.0005 7874.0005"
   id="svg8733"
   inkscape:version="0.91 r13725"
   sodipodi:docname="image_4033.svg"><metadata
     id="metadata8759"><rdf:RDF><cc:Work
         rdf:about=""><dc:format>image/svg+xml</dc:format><dc:type
           rdf:resource="http://purl.org/dc/dcmitype/StillImage" /></cc:Work></rdf:RDF></metadata><sodipodi:namedview
     pagecolor="#ffffff"
     bordercolor="#666666"
     borderopacity="1"
     objecttolerance="10"
     gridtolerance="10"
     guidetolerance="10"
     inkscape:pageopacity="0"
     inkscape:pageshadow="2"
     inkscape:window-width="640"
     inkscape:window-height="480"
     id="namedview8757"
     showgrid="false"
     inkscape:zoom="0.23838384"
     inkscape:cx="736.83001"
     inkscape:cy="849.33005"
     inkscape:window-x="0"
     inkscape:window-y="0"
     inkscape:window-maximized="0"
     inkscape:current-layer="svg8733" /><defs
     id="defs8735"><style
       type="text/css"
       id="style8737"><![CDATA[
    .fil3 {fill:none}
    .fil0 {fill:#B2C801}
    .fil1 {fill:white}
    .fil2 {fill:#B2C801;fill-rule:nonzero}
   ]]></style></defs><g
     id="Layer_x0020_1"
     transform="translate(3937,-7063)"><metadata
       id="CorelCorpID_0Corel-Layer" /><circle
       class="fil0"
       cy="11000"
       r="3937"
       id="circle8741"
       cx="0"
       style="fill:#b2c801" /><circle
       class="fil1"
       cy="11000"
       r="3780"
       id="circle8743"
       cx="0"
       style="fill:#ffffff" /><circle
       class="fil0"
       cy="11000"
       r="2756"
       id="circle8745"
       cx="0"
       style="fill:#b2c801" /><path
       class="fil2"
       d="m -2500,8500 82,-73 130,146 143,-127 -130,-146 82,-73 344,388 -82,73 -151,-170 -142,126 151,170 -83,74 -344,-388 z m 671,-521 95,-53 444,346 -98,55 -91,-72 -205,114 13,115 -99,55 -59,-560 z m 115,94 19,193 135,-75 -154,-118 z m 962,-74 130,83 -125,38 -64,-41 c -34,32 -76,55 -125,70 -81,25 -157,20 -227,-15 -70,-34 -116,-87 -137,-158 -15,-48 -16,-95 -3,-142 13,-48 38,-90 75,-127 37,-37 81,-63 132,-79 77,-23 151,-18 222,15 71,34 118,87 141,160 20,67 14,133 -19,196 z m -89,-56 c 13,-36 14,-72 3,-108 -15,-47 -44,-82 -89,-104 -45,-22 -92,-25 -141,-10 -51,16 -89,45 -113,87 -24,42 -29,88 -14,137 17,55 52,92 105,111 41,14 83,15 126,2 25,-8 47,-19 66,-34 l -134,-85 125,-38 66,42 z m 788,-37 109,109 -130,10 -54,-54 c -40,23 -86,36 -136,40 -86,7 -159,-15 -219,-64 -60,-49 -94,-111 -99,-185 -4,-49 6,-96 29,-139 23,-44 57,-79 101,-107 44,-28 93,-44 146,-48 80,-6 152,15 213,64 62,48 96,111 102,187 5,70 -15,132 -62,187 z m -74,-75 c 21,-32 29,-67 27,-105 -4,-49 -25,-89 -64,-120 -39,-31 -84,-45 -136,-41 -52,4 -96,24 -129,60 -33,36 -48,79 -44,131 5,57 31,100 78,130 37,24 78,33 123,30 26,-2 49,-8 71,-18 l -112,-113 131,-10 55,56 z m 313,-359 107,8 -39,517 -108,-8 40,-517 z m 579,146 -90,51 c -22,-40 -47,-62 -76,-67 -14,-2 -26,0 -36,5 -10,5 -16,12 -17,21 -2,8 0,17 5,26 7,11 30,38 68,78 36,38 58,62 65,71 19,24 31,45 37,65 6,20 8,40 4,62 -7,42 -28,74 -65,96 -36,22 -80,29 -132,21 -40,-7 -73,-21 -100,-44 -27,-23 -48,-55 -63,-97 l 98,-35 c 20,50 48,78 83,83 19,3 35,1 49,-7 14,-7 22,-18 24,-30 2,-12 -1,-24 -8,-37 -8,-13 -26,-35 -54,-64 -54,-55 -88,-97 -102,-124 -14,-28 -19,-54 -15,-79 6,-35 26,-63 59,-84 34,-20 73,-27 117,-20 28,5 54,15 77,31 24,16 48,42 72,78 z m 226,-12 102,35 -137,402 151,52 -30,88 -253,-86 167,-491 z m 584,232 96,51 -48,561 -100,-52 11,-116 -207,-109 -90,73 -100,-53 438,-355 z m -16,148 -152,121 136,72 16,-193 z m 538,161 80,68 -135,361 337,-187 80,68 -266,456 -79,-68 167,-288 -305,169 -73,-62 122,-327 -260,208 -80,-69 412,-329 z"
       id="path8747"
       inkscape:connector-curvature="0"
       style="fill:#b2c801;fill-rule:nonzero" /><ellipse
       class="fil3"
       transform="matrix(1.39409,0.804878,-1.04211,1.80498,1.55188e-4,11000)"
       rx="2421"
       ry="1870"
       id="ellipse8749"
       cx="0"
       cy="0"
       style="fill:none" /><path
       class="fil2"
       d="m -2899,11789 -481,195 59,146 184,-74 33,80 -97,290 90,222 123,-400 351,181 -91,-224 -254,-119 -32,-80 174,-70 -59,-147 z m 141,933 c 30,-15 38,-9 93,74 45,69 45,83 -3,114 l -16,11 -4,-5 c 8,-31 2,-50 -33,-103 -54,-82 -78,-114 -103,-136 -42,-37 -86,-38 -141,-1 -73,48 -75,94 -8,196 51,76 72,104 94,118 22,14 40,19 66,15 l 3,5 -43,28 73,110 185,-122 c 56,-37 75,-59 83,-92 9,-43 -2,-69 -68,-170 -63,-95 -104,-145 -135,-161 -41,-23 -72,-22 -119,4 l 76,115 z m -31,130 c 33,49 45,69 46,78 4,15 -1,28 -13,35 -27,18 -50,0 -103,-80 -41,-62 -45,-84 -21,-101 12,-7 24,-7 37,1 10,6 30,29 54,67 z m 348,160 -250,270 101,93 103,-111 c 42,-44 60,-58 83,-59 21,-1 47,13 77,40 28,27 42,49 42,67 0,19 -6,28 -45,70 l -116,126 101,93 103,-111 c 40,-44 59,-57 82,-59 21,-1 46,11 75,39 30,27 43,48 44,67 0,19 -3,25 -44,71 l -117,126 101,94 117,-127 c 64,-69 79,-96 78,-142 0,-46 -24,-88 -80,-139 -66,-61 -114,-76 -169,-51 16,-60 -6,-110 -70,-170 -59,-55 -108,-72 -153,-54 l -5,-4 37,-41 -95,-88 z m 837,973 c -22,25 -40,22 -114,-23 -42,-26 -66,-45 -72,-62 -6,-15 -3,-28 16,-60 l 308,186 c 9,-13 17,-28 20,-32 44,-74 55,-117 38,-158 -16,-38 -50,-67 -153,-129 -102,-62 -146,-79 -189,-76 -47,4 -76,29 -127,113 -48,80 -58,118 -41,160 15,38 54,72 145,127 169,102 225,107 286,25 l -117,-71 z m -131,-209 c 28,-44 53,-42 132,5 46,28 68,48 72,65 2,12 0,19 -14,44 l -190,-114 z m 695,447 c -16,29 -34,29 -116,0 -46,-17 -73,-31 -83,-46 -9,-14 -9,-27 4,-62 l 339,120 c 5,-15 11,-31 13,-35 29,-81 30,-125 5,-162 -23,-35 -61,-56 -175,-97 -112,-39 -159,-48 -201,-36 -45,13 -68,44 -101,136 -31,88 -34,127 -9,165 23,34 68,60 168,96 185,66 241,59 285,-34 l -129,-45 z m -170,-180 c 19,-47 43,-51 130,-20 51,18 76,33 84,49 5,11 4,18 -5,46 l -209,-75 z m 508,-140 -100,509 135,27 100,-509 -135,-27 z m 488,615 158,-8 -7,-131 223,-11 c 65,-4 77,-3 88,9 14,13 18,31 21,89 l 1,28 155,-8 -2,-49 c -3,-119 -18,-142 -99,-147 33,-7 47,-14 62,-27 24,-23 31,-53 27,-127 -5,-90 -18,-124 -59,-146 -35,-18 -35,-18 -213,-9 l -382,19 27,518 z m 144,-269 -6,-127 222,-11 c 73,-3 75,-4 86,1 16,7 23,22 24,55 2,34 -2,49 -15,59 -11,6 -11,6 -89,12 l -222,11 z m 958,19 c 2,33 -13,43 -97,64 -48,12 -78,15 -95,7 -15,-6 -22,-17 -31,-54 l 349,-86 c -3,-16 -7,-32 -8,-37 -21,-84 -44,-121 -85,-138 -39,-16 -83,-13 -200,17 -115,28 -159,47 -187,80 -31,36 -33,75 -9,170 22,90 42,124 83,142 39,16 90,13 193,-13 191,-48 234,-84 219,-185 l -132,33 z m -241,-56 c -11,-50 7,-67 97,-89 52,-13 82,-15 97,-5 10,6 13,13 21,41 l -215,53 z m 388,-219 168,327 122,-63 -69,-135 c -28,-54 -34,-76 -28,-98 7,-20 29,-40 65,-58 34,-18 60,-23 77,-17 18,6 24,15 50,66 l 79,153 122,-63 -69,-135 c -27,-53 -33,-75 -27,-97 6,-21 26,-40 62,-58 36,-19 59,-24 78,-18 18,6 23,11 51,66 l 79,153 122,-63 -78,-153 c -44,-85 -63,-108 -107,-123 -44,-15 -91,-7 -158,28 -80,41 -110,81 -106,141 -51,-35 -106,-32 -184,8 -72,37 -105,76 -102,125 l -7,3 -25,-49 -115,60 z m 972,-592 c -98,76 -136,116 -148,157 -12,42 1,78 53,145 65,85 93,107 137,108 45,1 88,-22 195,-105 107,-82 139,-118 150,-162 9,-42 -5,-76 -67,-155 -56,-73 -85,-93 -131,-92 -42,1 -90,27 -189,104 z m 64,81 c 32,-25 61,-42 79,-46 25,-7 42,3 72,41 47,62 41,83 -41,147 -36,28 -63,44 -82,48 -25,6 -40,-4 -69,-41 -48,-62 -41,-85 41,-149 z m 153,-387 65,55 -47,55 76,63 47,-55 82,69 c 36,30 36,30 45,37 32,23 52,31 79,28 38,-4 67,-26 123,-94 61,-73 78,-113 70,-156 -8,-34 -21,-52 -74,-99 l -81,97 11,10 c 34,27 35,42 6,76 -17,21 -30,28 -45,25 -11,-2 -16,-5 -46,-30 l -82,-69 140,-167 -76,-63 -140,167 -65,-54 -88,105 z m 749,-467 c 25,21 21,39 -24,114 -25,42 -45,65 -61,71 -16,7 -28,3 -60,-16 l 185,-308 c -13,-8 -27,-17 -31,-19 -74,-45 -117,-55 -158,-38 -39,15 -67,49 -130,152 -61,102 -79,146 -76,190 4,46 30,76 114,126 80,48 117,58 159,42 39,-16 73,-54 128,-146 101,-168 106,-224 24,-286 l -70,118 z m -210,130 c -43,-28 -42,-52 6,-132 28,-45 47,-67 65,-71 12,-3 18,-1 43,13 l -114,190 z m 332,-354 c 40,14 68,14 94,-1 39,-21 62,-61 107,-187 36,-101 52,-166 48,-202 -3,-42 -29,-71 -81,-89 -77,-28 -121,0 -157,100 -49,134 -57,155 -66,176 -9,20 -20,28 -34,23 -22,-8 -20,-35 9,-116 16,-44 29,-69 39,-78 4,-4 8,-4 20,-3 l 47,-132 c -43,-12 -64,-12 -85,1 -35,21 -58,61 -100,179 -34,95 -49,157 -48,190 2,43 28,73 80,92 74,26 119,-4 156,-102 45,-127 57,-159 65,-176 9,-19 22,-26 36,-21 25,9 24,36 -6,120 -29,81 -47,103 -77,94 l -47,132 z"
       id="path8751"
       inkscape:connector-curvature="0"
       style="fill:#b2c801;fill-rule:nonzero" /><circle
       class="fil3"
       cy="11000"
       r="3898"
       id="circle8753"
       cx="0"
       style="fill:none" /><path
       class="fil1"
       d="m -1671,9329 1037,778 0,259 -259,0 -778,-1037 z m 4033,1671 -1956,406 -406,1956 -406,-1956 -1956,-406 1956,-406 406,-1956 406,1956 1956,406 z m -691,-1671 -778,1037 -259,0 0,-259 1037,-778 z m 0,3342 -1037,-778 0,-259 259,0 778,1037 z m -3342,0 778,-1037 259,0 0,259 -1037,778 z"
       id="path8755"
       inkscape:connector-curvature="0"
       style="fill:#ffffff" /></g></svg>