<?xml version="1.0" encoding="UTF-8" standalone="no"?>
<!-- Creator: CorelDRAW X7 -->

<svg
   xmlns:dc="http://purl.org/dc/elements/1.1/"
   xmlns:cc="http://creativecommons.org/ns#"
   xmlns:rdf="http://www.w3.org/1999/02/22-rdf-syntax-ns#"
   xmlns:svg="http://www.w3.org/2000/svg"
   xmlns="http://www.w3.org/2000/svg"
   xmlns:sodipodi="http://sodipodi.sourceforge.net/DTD/sodipodi-0.dtd"
   xmlns:inkscape="http://www.inkscape.org/namespaces/inkscape"
   xml:space="preserve"
   width="7.8740005in"
   height="7.8740005in"
   version="1.1"
   style="clip-rule:evenodd;fill-rule:evenodd;image-rendering:optimizeQuality;shape-rendering:geometricPrecision;text-rendering:geometricPrecision"
   viewBox="0 0 7874.0005 7874.0005"
   id="svg6011"
   inkscape:version="0.91 r13725"
   sodipodi:docname="Yu Jing - Hsien Warriors - [A6] [Vyo].svg"><metadata
     id="metadata6048"><rdf:RDF><cc:Work
         rdf:about=""><dc:format>image/svg+xml</dc:format><dc:type
           rdf:resource="http://purl.org/dc/dcmitype/StillImage" /></cc:Work></rdf:RDF></metadata><sodipodi:namedview
     pagecolor="#ffffff"
     bordercolor="#666666"
     borderopacity="1"
     objecttolerance="10"
     gridtolerance="10"
     guidetolerance="10"
     inkscape:pageopacity="0"
     inkscape:pageshadow="2"
     inkscape:window-width="640"
     inkscape:window-height="480"
     id="namedview6046"
     showgrid="false"
     inkscape:zoom="0.23838384"
     inkscape:cx="736.83001"
     inkscape:cy="849.33005"
     inkscape:window-x="0"
     inkscape:window-y="0"
     inkscape:window-maximized="0"
     inkscape:current-layer="svg6011" /><defs
     id="defs6013"><style
       type="text/css"
       id="style6015"><![CDATA[
    .str0 {stroke:fuchsia;stroke-width:3}
    .fil3 {fill:none}
    .fil5 {fill:none;fill-rule:nonzero}
    .fil1 {fill:black}
    .fil0 {fill:#E32527}
    .fil2 {fill:white}
    .fil4 {fill:white;fill-rule:nonzero}
   ]]></style></defs><g
     id="Layer_x0020_1"
     transform="translate(3937,-7063)"><metadata
       id="CorelCorpID_0Corel-Layer" /><circle
       class="fil0"
       cy="11000"
       r="3937"
       id="circle6019"
       cx="0"
       style="fill:#e32527" /><circle
       class="fil1"
       cy="11000"
       r="3780"
       id="circle6021"
       cx="0"
       style="fill:#000000" /><circle
       class="fil0"
       cy="11000"
       r="3661"
       id="circle6023"
       cx="0"
       style="fill:#e32527" /><circle
       class="fil1"
       cy="11000"
       r="2520"
       id="circle6025"
       cx="0"
       style="fill:#000000" /><circle
       class="fil0"
       cy="11000"
       r="2402"
       id="circle6027"
       cx="0"
       style="fill:#e32527" /><circle
       class="fil1"
       cy="11000"
       r="2323"
       id="circle6029"
       cx="0"
       style="fill:#000000" /><path
       class="fil2"
       d="m -2500,9215 c 75,-32 173,-103 282,-292 109,-188 122,-309 112,-390 -76,32 -174,103 -282,292 -109,188 -122,309 -112,390 z m -416,2983 c 12,-98 -3,-242 -134,-468 -130,-226 -248,-312 -338,-350 -12,97 3,242 134,468 130,226 248,311 338,350 z m 139,-974 c 44,69 83,184 64,400 -19,217 -78,323 -132,384 -44,-70 -83,-184 -64,-401 19,-216 77,-322 132,-383 z m -349,173 c 37,-91 60,-235 -8,-487 -67,-252 -159,-365 -236,-425 -37,91 -60,234 8,487 67,252 159,365 236,425 z m 387,-905 c 23,79 32,200 -43,404 -74,204 -158,291 -227,336 -23,-78 -32,-199 42,-403 75,-205 159,-292 228,-337 z m -382,78 c 59,-79 118,-212 118,-473 0,-261 -59,-393 -118,-472 -59,79 -119,211 -119,472 0,261 60,394 119,473 z m 607,-775 c 3,82 -20,201 -145,379 -125,179 -229,241 -307,266 -2,-82 21,-200 146,-378 124,-179 228,-241 306,-267 z m -389,-24 c 77,-60 169,-173 236,-425 68,-252 45,-396 9,-487 -78,60 -169,173 -237,425 -67,252 -45,396 -8,487 z m 787,-590 c -18,80 -72,188 -238,328 -167,140 -283,173 -365,178 19,-80 72,-189 238,-329 167,-139 283,-173 365,-177 z"
       id="path6031"
       inkscape:connector-curvature="0"
       style="fill:#ffffff" /><path
       class="fil2"
       d="m 2500,9215 c -75,-32 -173,-103 -282,-292 -109,-188 -122,-309 -112,-390 76,32 174,103 282,292 109,188 122,309 112,390 z m 416,2983 c -12,-98 3,-242 134,-468 130,-226 248,-312 338,-350 12,97 -3,242 -134,468 -130,226 -248,311 -338,350 z m -139,-974 c -44,69 -83,184 -64,400 19,217 78,323 132,384 44,-70 83,-184 64,-401 -19,-216 -78,-322 -132,-383 z m 349,173 c -37,-91 -60,-235 8,-487 67,-252 159,-365 236,-425 37,91 60,234 -8,487 -67,252 -159,365 -236,425 z m -387,-905 c -23,79 -32,200 43,404 74,204 158,291 227,336 23,-78 32,-199 -43,-403 -74,-205 -158,-292 -227,-337 z m 382,78 c -59,-79 -118,-212 -118,-473 0,-261 59,-393 118,-472 59,79 119,211 119,472 0,261 -60,394 -119,473 z m -607,-775 c -3,82 20,201 145,379 125,179 229,241 307,266 2,-82 -21,-200 -146,-378 -124,-179 -228,-241 -306,-267 z m 389,-24 c -77,-60 -169,-173 -236,-425 -68,-252 -45,-396 -9,-487 78,60 169,173 237,425 67,252 45,396 8,487 z m -787,-590 c 18,80 72,188 238,328 167,140 283,173 365,178 -19,-80 -72,-189 -238,-329 -167,-139 -283,-173 -365,-177 z"
       id="path6033"
       inkscape:connector-curvature="0"
       style="fill:#ffffff" /><circle
       class="fil3"
       cy="11000"
       r="3898"
       id="circle6035"
       cx="0"
       style="fill:none" /><path
       class="fil4"
       d="m -2785,12990 -52,-74 422,-297 52,74 -422,297 z m 439,509 -57,-59 233,-225 c 11,-11 24,-21 38,-33 -12,6 -30,13 -55,21 l -286,75 -12,-13 85,-285 c 6,-20 13,-37 22,-53 -19,20 -31,32 -35,36 l -233,224 -51,-52 372,-358 51,53 -99,347 349,-87 50,52 -372,357 z m 637,129 c -41,52 -85,61 -130,25 l -192,-150 -124,158 -70,-55 319,-406 261,205 c 45,36 48,80 7,132 l -71,91 z m -50,-77 34,-44 c 17,-21 14,-40 -7,-57 l -159,-125 -85,108 159,125 c 22,16 41,14 58,-7 z m 307,566 -345,-202 261,-446 341,200 -44,76 -264,-154 -58,99 154,90 -44,76 -155,-90 -64,111 267,156 -49,84 z m 563,201 -121,-43 -82,-236 -80,-28 -66,183 -83,-29 172,-487 313,111 c 55,20 71,61 49,124 l -41,114 c -16,44 -37,68 -65,71 -16,2 -49,-5 -98,-23 l 102,243 z m -11,-348 20,-58 c 10,-26 1,-43 -24,-52 l -191,-68 -48,136 190,67 c 26,9 44,1 53,-25 z m 213,386 -88,-20 115,-503 87,20 -114,503 z m 618,72 -101,-7 -38,-117 -244,-18 -54,109 -90,-7 258,-498 87,7 182,531 z m -169,-219 -68,-216 -102,203 170,13 z m 643,194 -378,29 -40,-515 90,-7 32,418 289,-22 7,97 z m 796,-185 -97,28 -76,-96 -236,68 -12,121 -86,25 67,-556 84,-25 356,435 z m -235,-147 -139,-178 -24,225 163,-47 z m 665,-183 c 18,40 26,69 24,88 -4,25 -24,46 -61,63 l -243,109 c -37,17 -66,18 -87,5 -16,-11 -33,-36 -51,-76 l -112,-248 c -18,-40 -26,-70 -23,-88 4,-26 24,-46 60,-63 l 244,-110 c 38,-17 68,-18 89,-2 15,11 32,38 51,80 l -71,56 -24,-53 -256,115 134,298 256,-115 -47,-105 -134,61 -36,-81 214,-96 73,162 z m 512,-211 -326,232 -299,-420 322,-230 51,72 -249,177 67,94 145,-104 51,72 -145,104 74,104 252,-180 57,79 z m 433,-403 -44,43 -426,-33 c -20,-2 -37,-5 -52,-8 20,17 37,34 52,50 l 200,208 -58,56 -358,-372 45,-43 406,30 c 30,3 54,6 71,10 -31,-29 -52,-49 -62,-60 l -190,-197 58,-56 358,372 z m -4,-712 -104,146 346,245 -52,73 -346,-245 -103,145 -75,-53 259,-364 75,53 z"
       id="path6037"
       inkscape:connector-curvature="0"
       style="fill:#ffffff;fill-rule:nonzero" /><path
       class="fil4"
       d="m -841,7841 -341,144 c 33,119 44,218 32,295 -12,77 -49,166 -112,267 l -65,-32 c 57,-85 92,-166 104,-242 12,-76 4,-163 -24,-261 l -227,95 -27,-65 233,-97 c -15,-47 -35,-101 -60,-162 l 64,-26 c 19,43 39,96 61,161 l 335,-141 27,64 z m -118,-110 -18,65 c -58,-11 -117,-14 -175,-10 l 17,-68 c 64,-2 123,2 176,13 z m 252,393 c 6,15 12,40 19,74 7,35 8,58 4,71 -4,12 -10,23 -19,30 -9,8 -39,23 -92,45 -32,14 -61,25 -89,35 -27,10 -48,11 -63,5 -15,-6 -26,-18 -34,-37 l -14,-33 c -25,38 -60,79 -104,124 l -59,-36 c 58,-59 102,-114 131,-164 l -96,-230 64,-27 75,179 c 28,-62 53,-146 74,-250 l 67,7 c -26,135 -61,244 -105,328 l 22,53 c 6,14 17,18 33,11 16,-8 59,-26 128,-55 7,-3 12,-8 14,-15 2,-7 0,-22 -7,-46 -6,-24 -14,-48 -24,-71 l 75,2 z m 1074,65 -44,60 c -34,-20 -70,-48 -108,-83 -32,34 -62,61 -90,80 l -49,-54 c 37,-27 68,-54 90,-81 -49,-75 -82,-153 -97,-233 l -8,0 1,369 -73,0 -3,-713 354,-2 c 0,44 -3,86 -10,128 -7,41 -15,67 -24,77 -9,11 -20,19 -34,25 -13,6 -48,9 -104,9 l -29,-69 c 66,1 103,-3 109,-14 6,-9 11,-38 15,-85 l -204,1 1,203 275,-1 c -10,129 -36,229 -79,299 24,25 61,53 111,84 z m -109,-312 -115,0 c 10,55 32,111 65,168 21,-38 38,-94 50,-168 z m -326,310 c 0,17 -6,31 -19,43 -12,13 -48,18 -108,17 l -24,-73 c 17,2 33,3 46,3 14,0 23,-1 27,-4 4,-3 6,-7 6,-14 l -1,-178 -89,1 c -7,109 -26,199 -57,269 l -63,-40 c 33,-78 49,-179 48,-302 l -2,-370 232,-1 4,649 z m -74,-467 -1,-109 -88,0 0,109 89,0 z m 1,190 -1,-119 -88,1 0,118 89,0 z m 1599,259 -49,53 c -121,-65 -214,-131 -279,-198 -99,5 -214,-5 -343,-29 l -5,-71 c 125,26 223,37 293,35 -34,-40 -63,-87 -88,-141 -48,14 -89,22 -122,25 l -21,-67 c 100,-11 193,-38 280,-80 l 51,47 c -11,7 -22,13 -31,16 l 326,122 -23,63 c -95,35 -171,58 -230,68 68,59 148,112 241,157 z m -105,-260 -298,-111 -7,2 c 24,51 61,102 109,153 59,-6 124,-20 196,-44 z m 14,329 c -37,89 -67,152 -87,189 -21,37 -43,58 -66,64 -23,6 -54,2 -92,-12 -16,-6 -37,-14 -61,-24 l 6,-73 c 18,8 36,15 53,21 37,14 58,20 65,20 7,0 13,-3 18,-7 5,-4 16,-23 33,-55 17,-33 30,-60 38,-83 l -209,-78 c -38,54 -92,91 -161,112 -68,20 -144,23 -226,7 l -8,-76 c 148,30 256,7 325,-69 l -218,-81 24,-65 234,87 c 14,-26 26,-50 37,-74 l 66,25 c -15,33 -27,58 -36,74 l 265,98 z"
       id="path6039"
       inkscape:connector-curvature="0"
       style="fill:#ffffff;fill-rule:nonzero" /><path
       id="1"
       class="fil5 str0"
       d="m -841,7841 -341,144 c 33,119 44,218 32,295 -12,77 -49,166 -112,267 l -65,-32 c 57,-85 92,-166 104,-242 12,-76 4,-163 -24,-261 l -227,95 -27,-65 233,-97 c -15,-47 -35,-101 -60,-162 l 64,-26 c 19,43 39,96 61,161 l 335,-141 27,64 z m -118,-110 -18,65 c -58,-11 -117,-14 -175,-10 l 17,-68 c 64,-2 123,2 176,13 z m 252,393 c 6,15 12,40 19,74 7,35 8,58 4,71 -4,12 -10,23 -19,30 -9,8 -39,23 -92,45 -32,14 -61,25 -89,35 -27,10 -48,11 -63,5 -15,-6 -26,-18 -34,-37 l -14,-33 c -25,38 -60,79 -104,124 l -59,-36 c 58,-59 102,-114 131,-164 l -96,-230 64,-27 75,179 c 28,-62 53,-146 74,-250 l 67,7 c -26,135 -61,244 -105,328 l 22,53 c 6,14 17,18 33,11 16,-8 59,-26 128,-55 7,-3 12,-8 14,-15 2,-7 0,-22 -7,-46 -6,-24 -14,-48 -24,-71 l 75,2 z m 1074,65 -44,60 c -34,-20 -70,-48 -108,-83 -32,34 -62,61 -90,80 l -49,-54 c 37,-27 68,-54 90,-81 -49,-75 -82,-153 -97,-233 l -8,0 1,369 -73,0 -3,-713 354,-2 c 0,44 -3,86 -10,128 -7,41 -15,67 -24,77 -9,11 -20,19 -34,25 -13,6 -48,9 -104,9 l -29,-69 c 66,1 103,-3 109,-14 6,-9 11,-38 15,-85 l -204,1 1,203 275,-1 c -10,129 -36,229 -79,299 24,25 61,53 111,84 z m -109,-312 -115,0 c 10,55 32,111 65,168 21,-38 38,-94 50,-168 z m -326,310 c 0,17 -6,31 -19,43 -12,13 -48,18 -108,17 l -24,-73 c 17,2 33,3 46,3 14,0 23,-1 27,-4 4,-3 6,-7 6,-14 l -1,-178 -89,1 c -7,109 -26,199 -57,269 l -63,-40 c 33,-78 49,-179 48,-302 l -2,-370 232,-1 4,649 z m -74,-467 -1,-109 -88,0 0,109 89,0 z m 1,190 -1,-119 -88,1 0,118 89,0 z m 1599,259 -49,53 c -121,-65 -214,-131 -279,-198 -99,5 -214,-5 -343,-29 l -5,-71 c 125,26 223,37 293,35 -34,-40 -63,-87 -88,-141 -48,14 -89,22 -122,25 l -21,-67 c 100,-11 193,-38 280,-80 l 51,47 c -11,7 -22,13 -31,16 l 326,122 -23,63 c -95,35 -171,58 -230,68 68,59 148,112 241,157 z m -105,-260 -298,-111 -7,2 c 24,51 61,102 109,153 59,-6 124,-20 196,-44 z m 14,329 c -37,89 -67,152 -87,189 -21,37 -43,58 -66,64 -23,6 -54,2 -92,-12 -16,-6 -37,-14 -61,-24 l 6,-73 c 18,8 36,15 53,21 37,14 58,20 65,20 7,0 13,-3 18,-7 5,-4 16,-23 33,-55 17,-33 30,-60 38,-83 l -209,-78 c -38,54 -92,91 -161,112 -68,20 -144,23 -226,7 l -8,-76 c 148,30 256,7 325,-69 l -218,-81 24,-65 234,87 c 14,-26 26,-50 37,-74 l 66,25 c -15,33 -27,58 -36,74 l 265,98 z"
       inkscape:connector-curvature="0"
       style="fill:none;fill-rule:nonzero;stroke:#ff00ff;stroke-width:3" /><circle
       class="fil3 str0"
       cy="11000"
       r="3898"
       id="circle6042"
       cx="0"
       style="fill:none;stroke:#ff00ff;stroke-width:3" /><path
       class="fil2"
       d="m 553,11238 c 238,-213 594,-488 700,-535 50,-22 98,-12 107,-35 11,-32 -42,-52 -81,-76 -99,-61 -206,-167 -240,-213 -151,221 -413,494 -629,644 -96,-165 -162,-328 -209,-480 l 2,-452 c -360,23 -853,23 -1200,-1 l -1,309 c 132,-24 759,-55 880,-29 l 0,1732 c 0,152 -289,133 -395,135 80,121 119,259 126,355 564,-76 583,-155 584,-411 l 3,-1094 c 210,455 571,965 1119,1232 0,-118 81,-230 202,-348 -451,-192 -758,-456 -968,-733 z M -518,9668 c 259,86 554,206 796,338 L 446,9707 C 236,9602 -94,9483 -356,9408 l -162,260 z m -940,1426 c 295,-36 538,-43 831,-40 -52,434 -508,927 -894,1105 92,47 222,121 292,236 422,-293 934,-903 939,-1624 -408,18 -773,32 -1168,2 l 0,321 z"
       id="path6044"
       inkscape:connector-curvature="0"
       style="fill:#ffffff" /></g></svg>