<?xml version="1.0" encoding="UTF-8" standalone="no"?>
<!-- Creator: CorelDRAW X7 -->

<svg
   xmlns:dc="http://purl.org/dc/elements/1.1/"
   xmlns:cc="http://creativecommons.org/ns#"
   xmlns:rdf="http://www.w3.org/1999/02/22-rdf-syntax-ns#"
   xmlns:svg="http://www.w3.org/2000/svg"
   xmlns="http://www.w3.org/2000/svg"
   xmlns:sodipodi="http://sodipodi.sourceforge.net/DTD/sodipodi-0.dtd"
   xmlns:inkscape="http://www.inkscape.org/namespaces/inkscape"
   xml:space="preserve"
   width="7.8740005in"
   height="7.8740005in"
   version="1.1"
   style="clip-rule:evenodd;fill-rule:evenodd;image-rendering:optimizeQuality;shape-rendering:geometricPrecision;text-rendering:geometricPrecision"
   viewBox="0 0 7874.0005 7874.0005"
   id="svg3680"
   inkscape:version="0.91 r13725"
   sodipodi:docname="Haqqislam - Kum Motorized Troops - [N3] [Vyo].svg"><metadata
     id="metadata3749"><rdf:RDF><cc:Work
         rdf:about=""><dc:format>image/svg+xml</dc:format><dc:type
           rdf:resource="http://purl.org/dc/dcmitype/StillImage" /></cc:Work></rdf:RDF></metadata><sodipodi:namedview
     pagecolor="#ffffff"
     bordercolor="#666666"
     borderopacity="1"
     objecttolerance="10"
     gridtolerance="10"
     guidetolerance="10"
     inkscape:pageopacity="0"
     inkscape:pageshadow="2"
     inkscape:window-width="640"
     inkscape:window-height="480"
     id="namedview3747"
     showgrid="false"
     inkscape:zoom="0.23838384"
     inkscape:cx="736.83001"
     inkscape:cy="849.33005"
     inkscape:window-x="0"
     inkscape:window-y="0"
     inkscape:window-maximized="0"
     inkscape:current-layer="svg3680" /><defs
     id="defs3682"><style
       type="text/css"
       id="style3684"><![CDATA[
    .fil7 {fill:none}
    .fil0 {fill:black}
    .fil2 {fill:#FFF700}
    .fil4 {fill:white}
    .fil5 {fill:black;fill-rule:nonzero}
    .fil1 {fill:#50AF31;fill-rule:nonzero}
    .fil3 {fill:#E32527;fill-rule:nonzero}
    .fil8 {fill:#FFF700;fill-rule:nonzero}
    .fil6 {fill:white;fill-rule:nonzero}
   ]]></style></defs><g
     id="Layer_x0020_1"
     transform="translate(3937,-7063)"><metadata
       id="CorelCorpID_0Corel-Layer" /><circle
       class="fil0"
       cy="11000"
       r="3937"
       id="circle3688"
       cx="0"
       style="fill:#000000" /><path
       class="fil1"
       d="m 0,7299 c 1022,0 1947,414 2617,1084 670,670 1084,1595 1084,2617 0,1022 -414,1947 -1084,2617 -670,670 -1595,1084 -2617,1084 -1022,0 -1947,-414 -2617,-1084 -670,-670 -1084,-1595 -1084,-2617 0,-1022 414,-1947 1084,-2617 C -1947,7713 -1022,7299 0,7299 Z M 2366,8634 C 1761,8028 924,7654 0,7654 c -924,0 -1761,374 -2366,980 -606,605 -980,1442 -980,2366 0,924 374,1761 980,2366 605,606 1442,980 2366,980 924,0 1761,-374 2366,-980 606,-605 980,-1442 980,-2366 0,-924 -374,-1761 -980,-2366 z"
       id="path3690"
       inkscape:connector-curvature="0"
       style="fill:#50af31;fill-rule:nonzero" /><g
       id="_851456256"><path
         class="fil2"
         d="m 779,9697 23,-90 60,-38 201,-26 236,20 355,98 275,158 6,27 -49,30 201,100 413,276 166,90 129,48 325,101 460,147 42,47 -32,26 -362,-6 -393,-59 -298,-72 2,52 -86,23 -340,-58 -7,47 -98,8 -197,-20 -315,-98 -276,-138 175,235 -17,40 -189,118 -48,-12 -111,-134 35,158 -22,55 -219,82 -56,-30 -177,-453 -32,16 c -61,-74 -138,-133 -224,-176 l 0,-37 197,-20 177,-78 98,-99 24,-127 -52,-231 z"
         id="path3693"
         inkscape:connector-curvature="0"
         style="fill:#fff700" /><path
         class="fil3"
         d="m 1408,10611 c 10,13 10,31 4,46 -5,12 -14,24 -24,31 -1,2 -3,3 -5,4 l -188,109 c -13,8 -27,7 -41,2 -14,-5 -28,-15 -36,-25 l -53,-65 16,82 c 3,13 2,30 -3,44 -5,13 -14,25 -28,30 l -215,79 c -27,10 -66,-2 -77,-30 l -171,-448 c -72,26 -131,38 -174,38 l 0,-39 c 93,0 290,-57 431,-203 92,-94 160,-227 160,-408 l 0,-31 28,14 c 43,21 144,36 244,23 71,-9 140,-33 186,-79 l 6,-5 8,0 c 55,0 133,8 208,18 91,13 178,30 212,42 4,1 8,1 11,0 l 0,0 c 2,0 3,-1 3,-1 l 0,0 c 1,-1 1,-1 1,-2 1,-3 1,-7 -1,-12 -6,-21 -167,-114 -390,-185 -137,-44 -296,-77 -457,-77 -211,0 -261,46 -261,114 0,32 9,69 19,109 13,48 25,99 25,151 0,158 -104,242 -232,287 -123,43 -268,48 -358,48 l 0,-40 c 87,0 228,-5 345,-45 114,-40 206,-113 206,-250 0,-48 -12,-96 -24,-142 -10,-42 -21,-82 -21,-118 0,-91 58,-153 301,-153 165,0 328,34 469,78 235,75 408,185 416,211 4,14 4,26 1,36 -3,7 -7,14 -12,18 l 0,0 c -4,4 -8,6 -12,8 205,98 405,232 548,328 77,52 138,93 174,110 132,66 368,131 578,190 244,67 414,120 414,177 0,48 -78,55 -108,56 -77,2 -182,-3 -296,-14 -229,-21 -499,-65 -671,-119 2,9 1,18 -2,26 -4,11 -12,20 -25,26 -13,7 -32,10 -57,10 -119,0 -235,-18 -348,-49 0,4 -1,9 -3,13 -4,11 -12,20 -25,26 -13,7 -32,10 -57,10 -196,0 -384,-47 -557,-121 -74,-32 -146,-69 -214,-109 l 132,176 z m 367,-758 c -30,-6 -63,-11 -97,-16 -69,-10 -141,-17 -194,-18 -1,1 -3,3 -5,4 35,78 175,196 344,314 263,186 593,370 704,412 161,60 461,111 711,134 37,3 342,25 351,-5 6,-23 -149,-75 -374,-137 -213,-59 -450,-125 -586,-193 -38,-19 -99,-60 -177,-112 -172,-115 -434,-289 -677,-383 z m -327,-6 c -49,31 -108,49 -167,56 -51,7 -103,7 -148,2 157,172 385,377 653,525 212,116 448,196 694,196 19,0 32,-2 40,-6 3,-2 5,-3 6,-5 0,-2 0,-4 -1,-8 -3,-6 -8,-15 -16,-23 -118,-46 -447,-230 -709,-414 -167,-118 -308,-237 -352,-323 z m -377,48 c -10,-3 -20,-5 -28,-8 -4,109 -33,202 -76,279 150,127 333,253 539,341 168,73 351,119 541,119 19,0 32,-2 40,-6 3,-2 5,-3 6,-5 0,-2 0,-4 -1,-8 -1,-1 -1,-2 -2,-4 -112,-35 -220,-83 -323,-139 -291,-160 -536,-387 -696,-569 z m 293,763 c 7,-4 18,-17 11,-25 l -190,-255 c -87,-56 -166,-117 -238,-177 -23,34 -48,65 -75,93 -73,75 -167,127 -249,162 l 172,448 c 3,9 20,10 27,7 l 211,-77 c 12,-5 11,-26 10,-32 l -31,-159 c -6,-31 15,-40 34,-16 l 102,126 c 8,9 22,18 32,12 l 184,-107 z"
         id="path3695"
         inkscape:connector-curvature="0"
         style="fill:#e32527;fill-rule:nonzero" /></g><g
       id="_851456352"><path
         class="fil2"
         d="m -779,9697 -23,-90 -60,-38 -201,-26 -236,20 -355,98 -275,158 -6,27 49,30 -201,100 -413,276 -166,90 -129,48 -325,101 -460,147 -42,47 32,26 362,-6 393,-59 298,-72 -2,52 86,23 340,-58 7,47 98,8 197,-20 315,-98 276,-138 -175,235 17,40 189,118 48,-12 111,-134 -35,158 22,55 219,82 56,-30 177,-453 32,16 c 61,-74 138,-133 224,-176 l 0,-37 -197,-20 -177,-78 -98,-99 -24,-127 52,-231 z"
         id="path3698"
         inkscape:connector-curvature="0"
         style="fill:#fff700" /><path
         class="fil3"
         d="m -1408,10611 c -10,13 -10,31 -4,46 5,12 14,24 24,31 1,2 3,3 5,4 l 188,109 c 13,8 27,7 41,2 14,-5 28,-15 36,-25 l 53,-65 -16,82 c -3,13 -2,30 3,44 5,13 14,25 28,30 l 215,79 c 27,10 66,-2 77,-30 l 171,-448 c 72,26 131,38 174,38 l 0,-39 c -93,0 -290,-57 -431,-203 -92,-94 -160,-227 -160,-408 l 0,-31 -28,14 c -43,21 -144,36 -244,23 -71,-9 -140,-33 -186,-79 l -6,-5 -8,0 c -55,0 -133,8 -208,18 -91,13 -178,30 -212,42 -4,1 -8,1 -11,0 l 0,0 c -2,0 -3,-1 -3,-1 l 0,0 c -1,-1 -1,-1 -1,-2 -1,-3 -1,-7 1,-12 6,-21 167,-114 390,-185 137,-44 296,-77 457,-77 211,0 261,46 261,114 0,32 -9,69 -19,109 -13,48 -25,99 -25,151 0,158 104,242 232,287 123,43 268,48 358,48 l 0,-40 c -87,0 -228,-5 -345,-45 -114,-40 -206,-113 -206,-250 0,-48 12,-96 24,-142 10,-42 21,-82 21,-118 0,-91 -58,-153 -301,-153 -165,0 -328,34 -469,78 -235,75 -408,185 -416,211 -4,14 -4,26 -1,36 3,7 7,14 12,18 l 0,0 c 4,4 8,6 12,8 -205,98 -405,232 -548,328 -77,52 -138,93 -174,110 -132,66 -368,131 -578,190 -244,67 -414,120 -414,177 0,48 78,55 108,56 77,2 182,-3 296,-14 229,-21 499,-65 671,-119 -2,9 -1,18 2,26 4,11 12,20 25,26 13,7 32,10 57,10 119,0 235,-18 348,-49 0,4 1,9 3,13 4,11 12,20 25,26 13,7 32,10 57,10 196,0 384,-47 557,-121 74,-32 146,-69 214,-109 l -132,176 z m -367,-758 c 30,-6 63,-11 97,-16 69,-10 141,-17 194,-18 1,1 3,3 5,4 -35,78 -175,196 -344,314 -263,186 -593,370 -704,412 -161,60 -461,111 -711,134 -37,3 -342,25 -351,-5 -6,-23 149,-75 374,-137 213,-59 450,-125 586,-193 38,-19 99,-60 177,-112 172,-115 434,-289 677,-383 z m 327,-6 c 49,31 108,49 167,56 51,7 103,7 148,2 -157,172 -385,377 -653,525 -212,116 -448,196 -694,196 -19,0 -32,-2 -40,-6 -3,-2 -5,-3 -6,-5 0,-2 0,-4 1,-8 3,-6 8,-15 16,-23 118,-46 447,-230 709,-414 167,-118 308,-237 352,-323 z m 377,48 c 10,-3 20,-5 28,-8 4,109 33,202 76,279 -150,127 -333,253 -539,341 -168,73 -351,119 -541,119 -19,0 -32,-2 -40,-6 -3,-2 -5,-3 -6,-5 0,-2 0,-4 1,-8 1,-1 1,-2 2,-4 112,-35 220,-83 323,-139 291,-160 536,-387 696,-569 z m -293,763 c -7,-4 -18,-17 -11,-25 l 190,-255 c 87,-56 166,-117 238,-177 23,34 48,65 75,93 73,75 167,127 249,162 l -172,448 c -3,9 -20,10 -27,7 l -211,-77 c -12,-5 -11,-26 -10,-32 l 31,-159 c 6,-31 -15,-40 -34,-16 l -102,126 c -8,9 -22,18 -32,12 l -184,-107 z"
         id="path3700"
         inkscape:connector-curvature="0"
         style="fill:#e32527;fill-rule:nonzero" /></g><g
       id="_851473152"><path
         class="fil4"
         d="m 367,9506 c -74,-19 -119,-91 -100,-159 l 154,-575 c 11,-41 61,-50 83,-44 l 133,35 c 44,12 56,59 50,80 l -154,575 c -19,68 -93,108 -166,88 z"
         id="path3703"
         inkscape:connector-curvature="0"
         style="fill:#ffffff" /><path
         class="fil5"
         d="m 359,9535 0,0 c -44,-12 -80,-40 -102,-75 -22,-35 -30,-78 -19,-120 l 0,0 0,0 155,-576 c 7,-26 24,-44 44,-54 26,-14 56,-16 75,-11 l 133,36 0,0 0,0 c 32,9 51,30 62,52 11,23 13,48 9,63 l 0,1 -155,575 c -11,42 -40,76 -77,95 -37,19 -81,25 -125,14 l 0,0 z m -52,-106 c 15,23 38,41 67,49 l 0,0 0,0 c 29,7 59,4 82,-9 23,-12 41,-33 48,-58 l 148,-552 c 8,-30 -5,-62 -38,-72 l -102,-31 c -26,-8 -59,9 -66,38 l -151,561 0,0 0,0 c -7,26 -2,52 12,74 z"
         id="path3705"
         inkscape:connector-curvature="0"
         style="fill:#000000;fill-rule:nonzero" /><path
         class="fil4"
         d="M 155,9268 C 80,9258 26,9193 35,9124 l 79,-591 c 5,-42 53,-57 76,-54 l 137,18 c 45,6 62,51 60,72 l -79,591 c -9,69 -78,118 -153,108 z"
         id="path3707"
         inkscape:connector-curvature="0"
         style="fill:#ffffff" /><g
         id="g3709"><path
           class="fil5"
           d="m 151,9298 0,0 0,-1 C 106,9291 67,9269 41,9237 14,9205 1,9164 6,9121 l 0,0 0,0 0,-1 78,-591 c 4,-27 19,-46 37,-60 24,-16 54,-22 73,-19 l 136,18 0,0 c 33,4 56,22 69,43 l 0,0 c 14,21 19,46 17,62 l 0,0 -78,591 c -6,43 -30,80 -64,104 -34,24 -77,35 -123,30 l 0,0 z m 8,-59 0,0 0,0 c 30,4 59,-4 80,-19 22,-15 37,-38 40,-64 l 73,-551 c 7,-58 -11,-76 -69,-84 l -79,-11 c -36,-5 -60,20 -65,54 l -74,563 0,0 0,0 0,1 c -4,26 5,52 22,72 17,20 42,35 72,39 l 0,0 z m 160,-749 11,-22 -11,22 z"
           id="path3711"
           inkscape:connector-curvature="0"
           style="fill:#000000;fill-rule:nonzero" /></g></g><g
       id="g3713"><polygon
         class="fil4"
         points="650,9366 650,9839 591,9957 354,10114 335,10193 335,10449 -374,10449 -374,10134 -413,10075 -531,9957 -551,9858 -591,9051 98,9031 591,9268 "
         id="polygon3715"
         style="fill:#ffffff" /><path
         class="fil5"
         d="m -593,9022 617,-66 5,96 c 25,-47 91,-52 129,-34 l 446,223 c 24,13 42,34 55,59 13,27 20,58 20,86 l 0,433 c 0,31 -10,62 -25,89 -17,29 -40,55 -66,73 l -197,138 c -8,5 -14,13 -19,23 -5,10 -8,21 -8,31 l 0,276 0,29 -29,0 -709,0 -30,0 0,-29 0,-276 c 0,-12 0,-26 -2,-37 -1,-8 -4,-16 -9,-21 l 0,0 -118,-118 c -21,-21 -33,-49 -39,-78 -6,-26 -7,-54 -9,-79 l -39,-787 -1,-28 28,-3 z m 878,679 0,-277 -163,-74 C 94,9336 63,9314 41,9288 21,9264 8,9236 8,9206 l 0,-98 c 0,-17 3,-31 10,-43 6,-13 -16,-29 -6,-37 l 9,-12 -581,62 38,759 c 1,23 3,47 8,69 4,20 11,37 23,50 l 118,118 0,0 c 15,14 22,32 25,52 3,17 4,33 4,47 l 0,246 649,0 0,-246 c 0,-19 5,-39 14,-58 9,-17 22,-33 38,-45 l 197,-137 c 19,-14 36,-33 48,-54 11,-19 18,-40 18,-60 l 0,-433 c 0,-20 -5,-41 -14,-60 -7,-14 -17,-26 -29,-32 l -446,-223 0,0 0,0 c -4,-2 -9,-3 -15,-3 -8,0 -16,2 -23,5 -16,9 -26,21 -26,40 l 0,93 c 0,15 7,30 19,44 16,20 40,37 63,48 l 179,81 16,8 0,19 0,295 -59,0 z"
         id="path3717"
         inkscape:connector-curvature="0"
         style="fill:#000000;fill-rule:nonzero" /></g><g
       id="g3719"><path
         class="fil5"
         d="m -129,9251 c -2,175 -8,360 -20,540 -10,168 -26,331 -48,478 l -62,17 c 24,-151 40,-322 52,-498 12,-190 18,-386 19,-570 l 59,33 z m 328,1023 c -25,-195 -43,-383 -54,-567 -8,-133 -13,-264 -15,-394 l 59,30 c 3,119 8,239 15,361 12,190 30,385 57,588 l -62,-18 z"
         id="path3721"
         inkscape:connector-curvature="0"
         style="fill:#000000;fill-rule:nonzero" /><path
         class="fil4"
         d="m -337,9405 c -73,20 -147,-16 -164,-78 l -142,-533 c -10,-38 29,-69 51,-75 l 133,-36 c 44,-11 77,21 82,40 l 142,532 c 17,63 -29,131 -102,150 z"
         id="path3723"
         inkscape:connector-curvature="0"
         style="fill:#ffffff" /><path
         class="fil5"
         d="m -330,9434 0,0 c -43,11 -87,6 -123,-11 -37,-17 -65,-48 -76,-88 l 0,0 0,0 0,-1 -143,-532 c -6,-26 0,-49 13,-68 16,-22 41,-39 59,-43 l 133,-36 0,0 c 32,-8 59,-1 79,12 21,13 35,33 39,48 l 0,0 143,533 c 10,40 1,81 -22,115 -22,33 -58,59 -102,71 l 0,0 z m -97,-64 c 23,12 53,15 82,7 l 0,0 0,0 c 30,-8 54,-26 68,-47 14,-20 20,-44 14,-67 l -135,-505 c -7,-25 -26,-53 -69,-42 l -102,27 c -41,11 -47,39 -39,68 l 136,508 0,0 0,0 0,0 c 6,23 23,41 45,51 z"
         id="path3725"
         inkscape:connector-curvature="0"
         style="fill:#000000;fill-rule:nonzero" /><path
         class="fil4"
         d="m -91,9259 c -76,7 -142,-45 -148,-115 l -52,-594 c -4,-42 40,-67 63,-69 l 137,-12 c 46,-4 72,36 74,57 l 52,594 c 6,70 -51,133 -126,139 z"
         id="path3727"
         inkscape:connector-curvature="0"
         style="fill:#ffffff" /><g
         id="g3729"><path
           class="fil5"
           d="m -89,9289 0,0 c -45,4 -88,-10 -120,-35 -33,-26 -56,-64 -60,-107 l 0,0 0,0 -51,-594 c -3,-27 8,-50 23,-66 19,-22 48,-34 66,-36 l 138,-12 0,0 c 32,-2 58,11 76,28 18,17 28,40 30,57 l 0,0 51,594 c 4,43 -12,84 -40,115 -27,31 -67,52 -113,56 l 0,0 z m -84,-82 c 21,17 49,25 79,23 l 0,0 0,0 c 30,-3 57,-16 75,-36 17,-20 27,-45 24,-71 l -48,-552 c -6,-72 -34,-74 -70,-71 l -102,9 c -26,3 -48,22 -45,61 l 50,572 0,0 0,0 c 2,26 16,49 37,65 z m 186,-683 0,0 0,0 z"
           id="path3731"
           inkscape:connector-curvature="0"
           style="fill:#000000;fill-rule:nonzero" /></g><path
         class="fil0"
         d="m 487,11090 c 3,-23 5,-47 5,-70 0,-272 -220,-492 -492,-492 -272,0 -492,220 -492,492 0,23 2,47 5,70 4,28 -11,54 -38,64 -26,10 -54,0 -70,-23 -61,-92 -94,-198 -94,-308 0,-22 1,-43 4,-64 l 92,-248 c 129,-193 362,-298 593,-298 228,0 457,102 586,288 l 97,240 c 4,27 6,54 6,82 0,110 -33,216 -94,308 -16,23 -44,33 -70,23 -27,-10 -42,-36 -38,-64 z"
         id="path3733"
         inkscape:connector-curvature="0"
         style="fill:#000000" /><path
         class="fil4"
         d="m 546,11099 c 53,-82 84,-176 84,-276 0,-305 -282,-551 -630,-551 -348,0 -630,246 -630,551 0,100 31,194 84,276 -3,-26 -5,-53 -5,-79 0,-305 247,-551 551,-551 304,0 551,246 551,551 0,26 -2,53 -5,79 z"
         id="path3735"
         inkscape:connector-curvature="0"
         style="fill:#ffffff" /><path
         class="fil6"
         d="m 305,10634 0,2413 c 0,177 -67,373 -167,546 -107,183 -253,341 -399,425 l -44,25 0,-51 0,-1378 0,-29 29,0 c 25,0 47,-10 63,-26 16,-16 26,-38 26,-63 0,-24 -10,-47 -26,-63 -16,-16 -38,-26 -63,-26 l -29,0 0,-29 0,-87 0,-29 29,0 c 25,0 47,-10 63,-26 16,-16 26,-38 26,-63 0,-24 -10,-46 -26,-62 -16,-16 -38,-26 -63,-26 l -29,0 0,-30 0,-86 0,-30 29,0 c 25,0 47,-10 63,-26 16,-16 26,-38 26,-63 0,-24 -10,-46 -26,-62 -16,-16 -38,-26 -63,-26 l -29,0 0,-30 0,-86 0,-30 29,0 c 25,0 47,-10 63,-26 16,-16 26,-38 26,-62 0,-25 -10,-47 -26,-63 -16,-16 -38,-26 -63,-26 l -29,0 0,-30 0,-86 0,-30 29,0 c 25,0 47,-10 63,-26 16,-16 26,-38 26,-62 0,-25 -10,-47 -26,-63 -16,-16 -38,-26 -63,-26 l -29,0 0,-29 0,-87 0,-30 29,0 c 25,0 47,-9 63,-25 16,-16 26,-39 26,-63 0,-25 -10,-47 -26,-63 -16,-16 -38,-26 -63,-26 l -29,0 0,-29 0,-130 c 19,-15 38,-29 59,-41 l 0,144 c 29,6 55,20 75,40 27,27 43,64 43,105 0,41 -16,78 -43,104 -20,20 -46,35 -75,41 l 0,33 c 29,6 55,20 75,40 27,27 43,64 43,105 0,40 -16,77 -43,104 -20,20 -46,35 -75,40 l 0,34 c 29,6 55,20 75,40 27,27 43,64 43,105 0,40 -16,77 -43,104 -20,20 -46,34 -75,40 l 0,34 c 29,6 55,20 75,40 27,27 43,64 43,104 0,41 -16,78 -43,105 -20,20 -46,34 -75,40 l 0,34 c 29,5 55,20 75,40 27,27 43,63 43,104 0,41 -16,78 -43,105 -20,20 -46,34 -75,40 l 0,33 c 29,6 55,21 75,41 27,26 43,63 43,104 0,41 -16,78 -43,104 -20,21 -46,35 -75,41 l 0,1255 c 52,-89 98,-205 134,-329 52,-175 82,-366 82,-520 l 0,-2519 c 10,0 20,0 30,0 10,0 20,0 30,0 l 0,2519 c 0,159 -32,356 -85,537 -32,108 -71,210 -115,296 95,-82 185,-193 257,-317 96,-164 159,-350 159,-516 l 0,-2454 c 21,12 40,26 59,41 z"
         id="path3737"
         inkscape:connector-curvature="0"
         style="fill:#ffffff;fill-rule:nonzero" /></g><circle
       class="fil7"
       cy="11000"
       r="3898"
       id="circle3739"
       cx="0"
       style="fill:none" /><path
       class="fil8"
       d="m -2514,12843 282,-242 13,351 c 0,10 0,20 0,30 -1,10 -2,22 -3,34 l 189,-161 42,49 -282,242 -14,-358 c 0,-10 0,-19 1,-29 0,-10 1,-19 3,-29 l -189,162 -42,-49 z m 736,496 c 12,-14 21,-29 26,-47 4,-17 5,-36 3,-55 -3,-19 -9,-38 -19,-55 -10,-18 -23,-34 -39,-48 -16,-14 -33,-25 -52,-33 -19,-8 -38,-12 -57,-12 -20,-1 -38,2 -55,9 -16,7 -31,17 -43,31 -12,14 -20,29 -25,46 -5,17 -6,36 -3,55 3,20 9,38 19,56 10,18 23,34 39,48 16,14 33,25 51,32 19,8 38,12 58,12 20,1 38,-2 54,-9 17,-7 31,-17 43,-30 z m 55,48 c -17,19 -37,33 -61,43 -23,9 -49,13 -78,12 -28,-2 -56,-8 -83,-20 -27,-12 -52,-27 -75,-48 -23,-20 -42,-44 -57,-70 -15,-26 -25,-52 -29,-80 -5,-28 -4,-54 2,-78 7,-24 18,-46 35,-66 17,-19 38,-33 61,-42 24,-10 50,-14 78,-12 28,1 56,8 83,19 27,12 52,28 76,49 23,20 42,43 57,69 14,25 24,52 29,80 4,28 3,54 -3,79 -7,25 -18,46 -35,65 z m 146,50 11,7 c 32,19 54,29 69,30 14,0 26,-7 35,-23 11,-16 13,-32 6,-45 -7,-14 -25,-30 -55,-49 l -11,-7 -55,87 z m -27,36 -85,135 -56,-35 190,-303 83,52 c 24,16 42,29 54,40 12,11 21,22 26,34 7,15 10,30 9,45 -1,16 -6,30 -15,44 -15,24 -34,39 -57,44 -23,5 -49,0 -78,-15 l 40,217 -68,-42 -37,-212 -6,-4 z m 428,69 -129,279 -64,-29 130,-280 -105,-48 21,-45 272,126 -21,45 -104,-48 z m 51,356 124,-335 65,24 -45,124 200,74 45,-124 66,24 -124,335 -65,-24 60,-163 -200,-73 -60,162 -66,-24 z m 2089,-133 163,-52 c 1,2 2,5 3,9 4,11 7,18 8,22 15,48 11,91 -14,128 -25,37 -67,65 -128,84 -34,11 -65,16 -94,17 -29,0 -56,-5 -81,-15 -25,-11 -46,-25 -64,-44 -17,-19 -30,-41 -38,-66 -8,-26 -10,-51 -7,-77 4,-25 14,-49 29,-72 15,-23 35,-43 59,-60 24,-17 52,-30 83,-40 32,-10 63,-15 91,-13 29,1 57,9 83,23 l -39,46 c -18,-9 -37,-14 -57,-15 -19,-1 -40,2 -61,9 -45,14 -78,38 -98,70 -21,33 -25,68 -13,106 12,39 36,65 72,80 36,15 76,15 121,1 38,-12 66,-29 84,-51 17,-21 21,-45 13,-70 l -1,-5 -99,31 -15,-46 z m 326,-89 106,-57 -78,-51 c -4,-3 -10,-7 -15,-12 -6,-4 -12,-9 -18,-15 1,8 3,15 3,22 1,8 2,14 2,21 l 0,92 z m 238,32 -87,-58 -151,81 -1,105 -65,35 9,-426 360,228 -65,35 z m 61,-277 21,-16 c 28,-19 45,-36 52,-50 6,-14 5,-29 -6,-43 -11,-16 -24,-24 -39,-23 -15,1 -37,12 -66,33 l -22,15 60,84 z m 91,128 20,-14 c 20,-14 35,-25 44,-34 9,-8 15,-16 18,-24 5,-8 6,-18 6,-27 -1,-9 -4,-17 -10,-25 -7,-10 -15,-16 -24,-20 -10,-3 -20,-4 -32,-1 -7,1 -14,4 -22,8 -8,4 -17,10 -29,18 l -17,13 -20,14 66,92 z m -28,80 -207,-291 89,-63 c 25,-19 44,-31 58,-37 14,-7 27,-10 39,-11 16,-1 30,1 44,8 14,6 25,16 34,29 11,16 16,32 15,48 -1,17 -8,33 -22,49 22,-12 44,-16 65,-11 21,4 38,16 52,35 8,12 14,25 16,39 3,14 2,28 -1,42 -4,15 -12,29 -24,43 -12,13 -35,32 -68,56 l -90,64 z m 432,-506 56,-3 c 0,-18 -3,-35 -8,-49 -6,-15 -14,-28 -26,-40 -13,-13 -27,-23 -44,-29 -17,-6 -35,-8 -54,-7 -20,1 -39,6 -58,15 -19,9 -35,20 -50,35 -15,14 -28,31 -37,49 -9,19 -14,37 -16,57 -2,19 0,38 5,55 6,17 15,32 28,45 26,27 59,39 98,36 40,-3 76,-20 109,-52 9,-8 16,-17 23,-27 6,-9 12,-19 16,-30 l -103,4 61,-59 z m 118,-4 123,-5 -60,58 -75,3 c -8,20 -18,38 -29,55 -12,17 -25,33 -41,48 -21,20 -45,37 -72,49 -26,13 -53,21 -80,23 -28,3 -54,0 -78,-8 -24,-9 -45,-22 -63,-40 -18,-19 -30,-40 -38,-64 -7,-24 -9,-50 -6,-78 3,-28 12,-55 25,-81 14,-26 32,-50 55,-72 22,-22 47,-39 73,-52 27,-13 54,-21 82,-23 28,-3 54,0 78,8 24,9 45,22 63,40 17,18 29,38 37,62 7,24 9,49 6,77 z m 99,-253 76,-94 -91,-17 c -6,-1 -12,-3 -19,-5 -7,-2 -15,-4 -23,-7 4,6 9,13 12,19 4,6 7,12 9,18 l 36,86 z m 231,-63 -102,-20 -108,134 40,97 -46,57 -157,-396 420,70 -47,58 z m -63,-280 6,-11 c 19,-33 28,-56 28,-70 0,-14 -8,-26 -24,-35 -17,-10 -33,-11 -46,-3 -14,7 -29,26 -47,57 l -6,11 89,51 z m 37,26 139,79 -33,57 -310,-177 48,-85 c 14,-25 27,-44 37,-56 11,-12 22,-21 34,-28 14,-7 29,-10 44,-10 16,1 31,5 45,13 25,14 40,32 46,55 6,22 2,49 -12,79 l 215,-49 -39,69 -210,46 -4,7 z"
       id="path3741"
       inkscape:connector-curvature="0"
       style="fill:#fff700;fill-rule:nonzero" /><circle
       class="fil7"
       cy="11000"
       r="3898"
       id="circle3743"
       cx="0"
       style="fill:none" /><path
       class="fil8"
       d="m -2566,9982 -324,-151 27,-58 134,63 -74,-191 34,-71 77,209 254,-74 -35,74 -231,64 165,77 -27,58 z m -165,-486 34,-53 182,117 c 27,18 52,24 75,19 22,-5 42,-21 60,-49 18,-27 24,-52 19,-74 -5,-23 -21,-43 -48,-60 l -182,-118 34,-53 187,120 c 41,26 64,57 70,93 6,35 -6,76 -36,121 -29,46 -61,73 -95,83 -35,9 -72,1 -113,-25 l -187,-121 z m 597,-506 c -3,-1 -9,-6 -20,-13 -8,-6 -16,-10 -21,-14 4,6 9,14 13,21 4,8 8,16 11,25 l 73,204 -214,-54 c -8,-2 -17,-4 -24,-7 -8,-3 -15,-6 -22,-9 5,5 11,11 16,18 5,6 10,13 16,21 l 102,149 -39,44 -215,-319 245,65 c 4,1 11,3 19,6 9,3 19,6 32,10 -5,-9 -11,-22 -17,-39 -2,-4 -3,-8 -4,-10 l -92,-235 341,179 -40,44 -160,-86 z m 507,-429 c -3,-1 -8,-7 -16,-16 -7,-8 -13,-15 -18,-20 3,8 6,16 8,24 2,9 4,18 5,27 l 23,215 -195,-102 c -8,-4 -15,-8 -22,-12 -7,-5 -13,-9 -19,-14 4,6 8,13 11,21 4,7 7,15 11,24 l 65,169 -49,33 -134,-360 223,121 c 4,1 9,5 17,10 8,4 17,10 28,17 -2,-10 -5,-24 -7,-42 -1,-5 -1,-8 -2,-11 l -34,-249 289,253 -49,33 -135,-121 z m 430,-251 c -9,-16 -20,-29 -34,-40 -15,-10 -31,-18 -49,-22 -18,-5 -36,-6 -54,-3 -19,2 -36,8 -53,18 -17,9 -32,21 -44,35 -12,15 -21,31 -26,48 -6,18 -8,35 -7,53 2,18 7,35 16,51 9,15 21,29 35,39 14,11 30,18 48,23 18,4 36,5 55,3 18,-3 36,-9 53,-19 17,-9 31,-21 43,-35 12,-14 20,-30 26,-48 6,-18 8,-35 6,-53 -1,-18 -6,-34 -15,-50 z m 58,-32 c 13,22 20,45 22,70 1,25 -2,50 -11,75 -9,26 -22,49 -40,69 -18,21 -39,38 -63,52 -25,13 -51,22 -78,26 -27,5 -53,4 -79,-2 -26,-6 -49,-16 -69,-30 -20,-15 -36,-34 -49,-56 -12,-22 -19,-46 -21,-71 -2,-25 1,-50 10,-75 9,-25 22,-48 40,-69 17,-20 39,-37 64,-51 24,-14 50,-23 77,-27 26,-4 53,-4 79,2 26,6 49,17 70,31 20,15 36,34 48,56 z m 167,-187 88,295 -62,18 -87,-295 -100,29 -14,-47 261,-77 14,47 -100,30 z m 494,5 c -4,-17 -11,-33 -22,-47 -11,-15 -24,-26 -40,-36 -16,-9 -33,-15 -52,-17 -18,-3 -37,-2 -56,2 -19,4 -36,12 -51,22 -16,11 -29,24 -39,39 -11,15 -18,32 -21,49 -3,18 -3,35 1,53 4,18 12,33 22,47 11,15 24,26 40,36 16,9 34,15 52,17 19,3 37,2 56,-2 19,-5 36,-12 51,-22 16,-11 29,-24 39,-39 11,-16 17,-32 21,-49 3,-18 3,-35 -1,-53 z m 65,-15 c 6,25 6,50 1,74 -5,25 -16,48 -31,69 -16,22 -35,41 -58,56 -22,14 -47,25 -74,31 -28,7 -55,8 -83,5 -27,-4 -52,-12 -75,-25 -24,-12 -43,-29 -58,-48 -15,-20 -26,-42 -32,-67 -5,-25 -6,-50 -1,-74 5,-24 16,-48 31,-70 16,-21 35,-40 58,-54 22,-15 47,-26 75,-32 28,-6 55,-8 82,-5 26,4 52,12 75,25 24,13 43,29 58,49 16,20 26,42 32,66 z m 155,-33 11,-1 c 34,-3 56,-8 67,-16 10,-8 15,-21 13,-39 -1,-20 -8,-33 -21,-40 -12,-7 -34,-10 -66,-7 l -12,1 8,102 z m -1,45 12,160 -59,4 -27,-356 88,-7 c 26,-2 47,-2 61,0 15,2 28,6 38,12 13,8 23,19 31,32 8,13 12,28 13,44 2,28 -3,51 -17,69 -14,17 -36,28 -65,34 l 147,152 -72,5 -143,-150 -7,1 z m 253,151 1,-357 64,0 -1,357 -64,0 z m 107,-3 223,-292 -166,-12 4,-50 264,20 -221,290 200,15 -4,52 -300,-23 z m 347,38 55,-353 217,34 -8,49 -154,-24 -14,88 154,24 -8,51 -153,-24 -18,114 154,24 -8,51 -217,-34 z m 356,26 51,17 c 28,10 50,15 65,17 15,1 29,-1 42,-5 18,-6 33,-16 46,-30 12,-14 22,-32 30,-53 7,-22 10,-42 8,-61 -1,-18 -7,-35 -17,-51 -8,-12 -19,-22 -32,-30 -14,-9 -36,-18 -68,-29 l -21,-7 -22,-8 -82,240 z m -77,29 115,-338 82,27 c 53,18 89,34 109,46 20,12 36,27 49,44 16,22 26,47 29,74 3,27 0,56 -11,86 -10,30 -24,54 -43,74 -19,19 -42,33 -69,41 -20,5 -41,7 -64,5 -22,-2 -55,-11 -99,-26 l -17,-5 -81,-28 z m 779,-3 -151,269 -56,-32 152,-268 -91,-51 24,-44 237,134 -24,44 -91,-52 z m 141,207 10,6 c 28,19 49,29 62,29 13,0 25,-7 35,-22 11,-17 14,-31 8,-45 -5,-13 -21,-29 -48,-47 l -9,-6 -58,85 z m -28,35 -89,133 -50,-34 200,-296 74,49 c 21,15 37,28 48,38 10,11 17,22 21,34 6,14 7,28 5,43 -2,15 -8,29 -17,43 -16,24 -35,38 -56,43 -22,5 -46,0 -72,-14 l 21,211 -60,-40 -19,-206 -6,-4 z m 477,368 c 12,-13 21,-28 27,-45 6,-17 8,-35 7,-53 -1,-19 -6,-36 -14,-53 -8,-17 -19,-32 -33,-45 -14,-13 -30,-23 -47,-30 -18,-8 -36,-11 -54,-11 -19,0 -36,3 -52,10 -17,7 -31,17 -44,31 -12,13 -21,28 -27,44 -6,17 -8,35 -7,53 2,19 6,36 14,53 8,17 20,32 34,45 14,13 29,23 47,30 17,7 35,11 53,11 19,0 37,-3 53,-10 16,-7 31,-17 43,-30 z m 48,45 c -17,19 -37,33 -60,42 -23,9 -48,14 -75,13 -27,-1 -53,-6 -78,-17 -25,-11 -48,-25 -68,-44 -21,-20 -37,-42 -49,-66 -13,-25 -20,-50 -22,-76 -3,-27 0,-52 8,-76 7,-23 20,-44 38,-63 17,-19 37,-33 60,-42 24,-9 48,-14 75,-13 27,1 53,6 78,17 25,10 48,25 68,45 21,19 37,41 50,65 12,24 19,50 21,76 3,27 0,52 -8,76 -8,24 -20,45 -38,63 z m 269,340 c 15,-11 26,-24 35,-40 8,-15 14,-32 16,-51 2,-18 0,-36 -5,-54 -5,-18 -13,-35 -24,-50 -12,-16 -26,-28 -41,-38 -16,-10 -33,-17 -52,-20 -18,-4 -36,-3 -53,1 -17,4 -33,11 -48,22 -14,11 -26,24 -34,39 -9,16 -14,33 -16,51 -2,19 -1,37 4,55 5,18 14,34 25,50 12,15 25,28 41,38 16,10 33,16 51,20 18,3 36,3 54,-1 17,-4 33,-11 47,-22 z m 40,53 c -20,16 -43,26 -67,31 -25,5 -50,5 -76,-1 -26,-5 -51,-15 -74,-30 -22,-15 -42,-33 -59,-56 -17,-22 -29,-47 -37,-73 -8,-26 -10,-53 -8,-79 2,-27 9,-51 21,-73 12,-21 28,-40 48,-55 21,-16 43,-26 68,-31 24,-5 49,-5 76,0 26,6 50,16 73,31 23,14 42,33 59,56 17,23 30,47 37,73 8,25 11,52 9,78 -3,27 -10,52 -22,74 -12,22 -28,40 -48,55 z m 104,118 8,15 c 17,31 32,50 44,57 11,7 25,6 41,-2 16,-9 25,-21 26,-36 1,-15 -7,-37 -23,-67 l -8,-14 -88,47 z m -43,20 -141,77 -29,-52 314,-172 46,84 c 14,25 23,45 27,58 4,13 6,26 5,38 -2,15 -7,28 -16,41 -9,13 -21,24 -35,32 -15,8 -31,12 -47,13 -16,1 -30,-2 -43,-9 -11,-6 -20,-14 -29,-24 -9,-11 -21,-29 -34,-54 l -6,-11 -12,-21 z m 25,223 40,38 c -12,11 -20,24 -22,39 -2,15 1,32 9,50 8,18 18,29 32,36 13,6 27,6 42,-1 19,-8 28,-34 27,-75 0,-6 0,-11 0,-14 0,-47 4,-81 12,-100 8,-20 22,-34 43,-43 26,-12 52,-12 78,0 25,13 45,35 60,67 12,26 17,51 16,73 -1,22 -9,40 -23,55 l -42,-36 c 7,-12 11,-23 11,-34 1,-11 -1,-22 -6,-33 -7,-15 -16,-26 -28,-32 -11,-6 -23,-6 -36,-1 -19,9 -29,38 -27,86 0,4 0,7 0,9 1,42 -2,73 -11,92 -8,20 -23,35 -44,44 -31,14 -60,14 -88,1 -28,-13 -50,-38 -66,-74 -14,-31 -19,-59 -15,-84 4,-25 17,-46 38,-63 z"
       id="path3745"
       inkscape:connector-curvature="0"
       style="fill:#fff700;fill-rule:nonzero" /></g></svg>