<?xml version="1.0" encoding="UTF-8" standalone="no"?>
<!-- Creator: CorelDRAW X7 -->

<svg
   xmlns:dc="http://purl.org/dc/elements/1.1/"
   xmlns:cc="http://creativecommons.org/ns#"
   xmlns:rdf="http://www.w3.org/1999/02/22-rdf-syntax-ns#"
   xmlns:svg="http://www.w3.org/2000/svg"
   xmlns="http://www.w3.org/2000/svg"
   xmlns:sodipodi="http://sodipodi.sourceforge.net/DTD/sodipodi-0.dtd"
   xmlns:inkscape="http://www.inkscape.org/namespaces/inkscape"
   xml:space="preserve"
   width="7.8740005in"
   height="7.8740005in"
   version="1.1"
   style="clip-rule:evenodd;fill-rule:evenodd;image-rendering:optimizeQuality;shape-rendering:geometricPrecision;text-rendering:geometricPrecision"
   viewBox="0 0 7874.0005 7874.0005"
   id="svg5433"
   inkscape:version="0.91 r13725"
   sodipodi:docname="Yu Jing - Celestial Guard - [A6] [Vyo].svg"><metadata
     id="metadata5469"><rdf:RDF><cc:Work
         rdf:about=""><dc:format>image/svg+xml</dc:format><dc:type
           rdf:resource="http://purl.org/dc/dcmitype/StillImage" /></cc:Work></rdf:RDF></metadata><sodipodi:namedview
     pagecolor="#ffffff"
     bordercolor="#666666"
     borderopacity="1"
     objecttolerance="10"
     gridtolerance="10"
     guidetolerance="10"
     inkscape:pageopacity="0"
     inkscape:pageshadow="2"
     inkscape:window-width="640"
     inkscape:window-height="480"
     id="namedview5467"
     showgrid="false"
     inkscape:zoom="0.23838384"
     inkscape:cx="736.83001"
     inkscape:cy="849.33005"
     inkscape:window-x="0"
     inkscape:window-y="0"
     inkscape:window-maximized="0"
     inkscape:current-layer="svg5433" /><defs
     id="defs5435"><style
       type="text/css"
       id="style5437"><![CDATA[
    .fil3 {fill:none}
    .fil1 {fill:black}
    .fil0 {fill:#E32527}
    .fil4 {fill:white}
    .fil2 {fill:white;fill-rule:nonzero}
   ]]></style></defs><g
     id="Layer_x0020_1"
     transform="translate(3937,-7063)"><metadata
       id="CorelCorpID_0Corel-Layer" /><circle
       class="fil0"
       cy="11000"
       r="3937"
       id="circle5441"
       cx="0"
       style="fill:#e32527" /><circle
       class="fil1"
       cy="11000"
       r="3780"
       id="circle5443"
       cx="0"
       style="fill:#000000" /><circle
       class="fil0"
       cy="11000"
       r="3661"
       id="circle5445"
       cx="0"
       style="fill:#e32527" /><circle
       class="fil1"
       cy="11000"
       r="2520"
       id="circle5447"
       cx="0"
       style="fill:#000000" /><circle
       class="fil0"
       cy="11000"
       r="2402"
       id="circle5449"
       cx="0"
       style="fill:#e32527" /><circle
       class="fil1"
       cy="11000"
       r="2323"
       id="circle5451"
       cx="0"
       style="fill:#000000" /><path
       class="fil2"
       d="m -145,8175 -31,70 c -95,-38 -168,-77 -221,-120 -52,-42 -101,-98 -146,-168 -20,146 -109,274 -267,386 l -51,-58 c 156,-107 240,-235 251,-381 l -286,45 -11,-73 301,-47 c -5,-52 -12,-106 -20,-161 l -272,43 -12,-73 615,-97 11,74 -268,42 c 11,90 18,144 19,160 l 304,-47 11,72 -282,44 c 61,129 179,225 355,289 z m 893,-363 -342,-54 9,-58 78,12 24,-49 -74,-12 10,-60 89,14 20,-47 67,18 -17,40 125,19 -18,112 38,6 -9,59 z m -95,-75 8,-52 -74,-11 -23,49 89,14 z M 444,7565 c -68,85 -130,144 -187,176 l -23,-71 c 51,-32 101,-78 148,-139 l 62,34 z m 496,146 -161,-25 11,-68 161,25 -11,68 z m -542,59 -43,64 -66,423 -67,-10 49,-311 c -14,12 -30,26 -51,42 l -22,-76 c 43,-32 91,-89 144,-172 l 56,40 z m 520,161 -45,-7 -55,347 c -7,44 -38,62 -92,54 -8,-1 -16,-3 -25,-5 l -11,-72 c 4,1 19,4 45,8 11,2 17,-3 19,-13 l 51,-330 -68,-10 11,-70 181,28 -11,70 z m -227,299 -119,-18 -14,87 -68,-11 13,-87 -149,-24 42,-107 -41,-7 10,-60 165,26 7,-44 -131,-21 25,-158 282,44 -25,158 -82,-13 -7,45 102,16 -9,60 -103,-16 -8,52 119,19 -9,59 z m -61,-290 7,-44 -148,-24 -7,45 148,23 z m -117,201 8,-52 -58,-9 -19,50 69,11 z"
       id="path5453"
       inkscape:connector-curvature="0"
       style="fill:#ffffff;fill-rule:nonzero" /><circle
       class="fil3"
       cy="11000"
       r="3898"
       id="circle5455"
       cx="0"
       style="fill:none" /><circle
       class="fil3"
       cy="11000"
       r="3898"
       id="circle5457"
       cx="0"
       style="fill:none" /><path
       class="fil4"
       d="m -2500,9215 c 75,-32 173,-103 282,-292 109,-188 122,-309 112,-390 -76,32 -174,103 -282,292 -109,188 -122,309 -112,390 z m -416,2983 c 12,-98 -3,-242 -134,-468 -130,-226 -248,-312 -338,-350 -12,97 3,242 134,468 130,226 248,311 338,350 z m 139,-974 c 44,69 83,184 64,400 -19,217 -78,323 -132,384 -44,-70 -83,-184 -64,-401 19,-216 77,-322 132,-383 z m -349,173 c 37,-91 60,-235 -8,-487 -67,-252 -159,-365 -236,-425 -37,91 -60,234 8,487 67,252 159,365 236,425 z m 387,-905 c 23,79 32,200 -43,404 -74,204 -158,291 -227,336 -23,-78 -32,-199 42,-403 75,-205 159,-292 228,-337 z m -382,78 c 59,-79 118,-212 118,-473 0,-261 -59,-393 -118,-472 -59,79 -119,211 -119,472 0,261 60,394 119,473 z m 607,-775 c 3,82 -20,201 -145,379 -125,179 -229,241 -307,266 -2,-82 21,-200 146,-378 124,-179 228,-241 306,-267 z m -389,-24 c 77,-60 169,-173 236,-425 68,-252 45,-396 9,-487 -78,60 -169,173 -237,425 -67,252 -45,396 -8,487 z m 787,-590 c -18,80 -72,188 -238,328 -167,140 -283,173 -365,178 19,-80 72,-189 238,-329 167,-139 283,-173 365,-177 z"
       id="path5459"
       inkscape:connector-curvature="0"
       style="fill:#ffffff" /><path
       class="fil4"
       d="m 2500,9215 c -75,-32 -173,-103 -282,-292 -109,-188 -122,-309 -112,-390 76,32 174,103 282,292 109,188 122,309 112,390 z m 416,2983 c -12,-98 3,-242 134,-468 130,-226 248,-312 338,-350 12,97 -3,242 -134,468 -130,226 -248,311 -338,350 z m -139,-974 c -44,69 -83,184 -64,400 19,217 78,323 132,384 44,-70 83,-184 64,-401 -19,-216 -78,-322 -132,-383 z m 349,173 c -37,-91 -60,-235 8,-487 67,-252 159,-365 236,-425 37,91 60,234 -8,487 -67,252 -159,365 -236,425 z m -387,-905 c -23,79 -32,200 43,404 74,204 158,291 227,336 23,-78 32,-199 -43,-403 -74,-205 -158,-292 -227,-337 z m 382,78 c -59,-79 -118,-212 -118,-473 0,-261 59,-393 118,-472 59,79 119,211 119,472 0,261 -60,394 -119,473 z m -607,-775 c -3,82 20,201 145,379 125,179 229,241 307,266 2,-82 -21,-200 -146,-378 -124,-179 -228,-241 -306,-267 z m 389,-24 c -77,-60 -169,-173 -236,-425 -68,-252 -45,-396 -9,-487 78,60 169,173 237,425 67,252 45,396 8,487 z m -787,-590 c 18,80 72,188 238,328 167,140 283,173 365,178 -19,-80 -72,-189 -238,-329 -167,-139 -283,-173 -365,-177 z"
       id="path5461"
       inkscape:connector-curvature="0"
       style="fill:#ffffff" /><path
       class="fil2"
       d="m -2804,12963 -47,-66 422,-297 47,66 -422,297 z m 382,471 -49,-57 245,-211 c 12,-10 25,-20 40,-31 -12,5 -30,12 -54,20 l -281,69 -11,-12 111,-269 c 8,-18 17,-35 27,-50 -21,19 -33,31 -38,35 l -245,210 -42,-49 391,-337 42,50 -129,327 341,-81 43,49 -391,337 z m 594,116 c -44,50 -86,57 -125,23 l -164,-144 -133,151 -60,-53 340,-388 225,197 c 39,35 37,77 -7,127 l -76,87 z m -39,-75 36,-41 c 18,-21 18,-39 0,-55 l -137,-120 -90,103 136,120 c 19,16 37,14 55,-7 z m 232,541 -304,-192 276,-436 301,190 -47,75 -233,-148 -61,98 136,86 -47,74 -136,-86 -69,108 236,149 -52,82 z m 488,225 -106,-49 -46,-235 -70,-32 -81,177 -73,-33 215,-469 271,124 c 48,22 58,63 30,123 l -50,110 c -20,43 -42,66 -68,67 -15,2 -44,-8 -87,-27 l 65,244 z m 31,-343 25,-56 c 12,-25 6,-42 -16,-53 l -165,-75 -60,131 165,75 c 22,11 39,3 51,-22 z m 148,388 -78,-21 138,-498 78,22 -138,497 z m 548,115 -89,-15 -23,-118 -217,-38 -59,105 -80,-14 281,-475 77,13 110,542 z m -129,-231 -39,-219 -112,193 151,26 z m 556,264 -341,-26 39,-514 81,6 -32,418 260,19 -7,97 z m 686,-196 c 6,42 5,72 -2,89 -9,24 -32,39 -68,44 l -214,28 c -38,5 -65,-3 -79,-26 -10,-16 -19,-48 -25,-97 l 68,-31 8,60 245,-33 -16,-117 -216,29 c -35,5 -61,-2 -76,-22 -11,-14 -20,-43 -26,-87 l -7,-57 c -6,-43 -6,-73 1,-91 10,-22 33,-36 68,-41 l 196,-26 c 37,-5 62,3 77,23 11,14 20,44 26,88 l -68,35 -8,-59 -226,30 15,110 215,-29 c 37,-4 62,4 77,24 11,15 20,44 25,86 l 10,70 z m 499,-18 -345,100 -143,-496 342,-99 24,85 -264,76 32,111 154,-45 25,85 -155,44 36,123 268,-77 26,93 z m 490,-221 -106,48 -208,-120 -70,31 80,178 -73,33 -212,-470 272,-123 c 48,-22 85,-2 113,59 l 50,110 c 19,43 21,75 6,95 -9,12 -35,28 -78,47 l 226,112 z m -238,-248 -25,-57 c -11,-25 -28,-32 -51,-22 l -165,75 59,131 166,-75 c 22,-10 28,-27 16,-52 z m 348,-447 119,538 -47,30 -449,-324 78,-50 321,236 -90,-386 68,-44 z m 393,335 -64,49 -316,-408 64,-50 316,409 z m 289,-449 c 32,30 51,54 56,71 7,24 -2,49 -27,75 l -143,151 c -25,26 -49,37 -73,31 -18,-4 -43,-22 -75,-52 l -197,-187 c -32,-30 -51,-54 -56,-72 -7,-24 2,-49 27,-75 l 143,-151 c 24,-26 49,-36 73,-30 18,4 43,21 75,52 l 35,33 -42,72 -71,-67 -150,159 237,224 150,-158 -80,-77 74,-41 44,42 z m 394,-313 -208,293 -421,-298 206,-291 72,51 -159,225 94,66 93,-131 71,51 -93,131 105,74 161,-228 79,57 z"
       id="path5463"
       inkscape:connector-curvature="0"
       style="fill:#ffffff;fill-rule:nonzero" /><path
       class="fil2"
       d="m 1,11272 c 215,487 544,886 1272,1172 46,-105 105,-243 223,-336 C 769,11857 379,11404 212,11000 l 1048,0 0,-315 -1132,0 c 21,-173 32,-357 37,-551 l 1213,0 0,-315 -2756,0 0,315 1190,0 c -2,196 -10,380 -32,551 l -1040,0 0,315 981,0 c -135,508 -459,886 -1221,1149 111,79 190,217 240,308 729,-276 1085,-678 1261,-1185 z"
       id="path5465"
       inkscape:connector-curvature="0"
       style="fill:#ffffff;fill-rule:nonzero" /></g></svg>