<?xml version="1.0" encoding="UTF-8" standalone="no"?>
<!-- Creator: CorelDRAW X7 -->

<svg
   xmlns:dc="http://purl.org/dc/elements/1.1/"
   xmlns:cc="http://creativecommons.org/ns#"
   xmlns:rdf="http://www.w3.org/1999/02/22-rdf-syntax-ns#"
   xmlns:svg="http://www.w3.org/2000/svg"
   xmlns="http://www.w3.org/2000/svg"
   xmlns:sodipodi="http://sodipodi.sourceforge.net/DTD/sodipodi-0.dtd"
   xmlns:inkscape="http://www.inkscape.org/namespaces/inkscape"
   xml:space="preserve"
   width="7.8740005in"
   height="7.8740005in"
   version="1.1"
   style="clip-rule:evenodd;fill-rule:evenodd;image-rendering:optimizeQuality;shape-rendering:geometricPrecision;text-rendering:geometricPrecision"
   viewBox="0 0 7874.0005 7874.0005"
   id="svg4778"
   inkscape:version="0.91 r13725"
   sodipodi:docname="yu_jing_tiger_soldier.svg"><metadata
     id="metadata4819"><rdf:RDF><cc:Work
         rdf:about=""><dc:format>image/svg+xml</dc:format><dc:type
           rdf:resource="http://purl.org/dc/dcmitype/StillImage" /></cc:Work></rdf:RDF></metadata><sodipodi:namedview
     pagecolor="#ffffff"
     bordercolor="#666666"
     borderopacity="1"
     objecttolerance="10"
     gridtolerance="10"
     guidetolerance="10"
     inkscape:pageopacity="0"
     inkscape:pageshadow="2"
     inkscape:window-width="640"
     inkscape:window-height="480"
     id="namedview4817"
     showgrid="false"
     inkscape:zoom="0.23838384"
     inkscape:cx="736.83001"
     inkscape:cy="849.33005"
     inkscape:window-x="0"
     inkscape:window-y="0"
     inkscape:window-maximized="0"
     inkscape:current-layer="svg4778" /><defs
     id="defs4780"><style
       type="text/css"
       id="style4782"><![CDATA[
    .fil5 {fill:none}
    .fil1 {fill:black}
    .fil0 {fill:#E2001A}
    .fil2 {fill:white}
    .fil3 {fill:black;fill-rule:nonzero}
    .fil6 {fill:#E2001A;fill-rule:nonzero}
    .fil4 {fill:white;fill-rule:nonzero}
   ]]></style></defs><g
     id="Layer_x0020_1"
     transform="translate(3937,-7063)"><metadata
       id="CorelCorpID_0Corel-Layer" /><circle
       class="fil0"
       cy="11000"
       r="3937"
       id="circle4786"
       cx="0"
       style="fill:#e2001a" /><path
       class="fil1"
       d="m -2714,8513 c 26,-28 55,-2 29,27 -502,587 -768,1301 -840,2016 l -188,-188 c 132,-682 475,-1322 999,-1855 z m 5428,0 c -26,-28 -55,-2 -29,27 502,587 768,1301 840,2016 l 188,-188 C 3581,9686 3238,9046 2714,8513 Z m -232,213 c 520,526 863,1191 955,1918 l -95,95 -125,-124 c -65,-676 -324,-1344 -764,-1863 -25,-29 2,-53 29,-26 z m 901,2139 c 2,45 3,90 3,135 0,148 -10,294 -28,438 l 416,-223 c 3,-71 6,-143 6,-215 0,-169 -12,-335 -33,-499 l -364,364 z m -47,718 c -36,209 -92,412 -165,605 l 457,-125 c 67,-228 112,-465 135,-709 l -427,229 z m -219,743 c -118,275 -271,533 -454,765 l 486,0 c 183,-275 331,-575 437,-894 l -469,129 z m -551,883 c -55,64 -112,126 -172,185 -219,219 -468,409 -741,561 l 549,117 c 167,-120 325,-254 471,-399 143,-144 275,-299 394,-464 l -501,0 z m 290,-2789 c 21,108 37,218 47,330 l 382,636 c 14,-126 22,-255 22,-386 0,-44 -1,-88 -2,-131 l -449,-449 z m 57,576 c 1,127 -7,255 -24,381 l 224,742 c 63,-177 112,-360 145,-548 l -345,-575 z m -69,639 c -49,221 -123,433 -220,631 l -1,748 c 169,-219 311,-460 420,-718 l -199,-661 z m -338,851 c -124,210 -274,403 -446,574 -97,97 -200,187 -310,269 l -142,562 c 269,-150 514,-337 730,-553 58,-57 114,-117 168,-180 l 0,-672 z m 328,-2254 c -104,-448 -297,-891 -613,-1267 -26,-30 1,-54 29,-26 443,445 736,980 846,1554 l -262,-261 z M -2482,8726 c -520,526 -863,1191 -955,1918 l 95,95 125,-124 c 65,-676 324,-1344 764,-1863 25,-29 -2,-53 -29,-26 z m -901,2139 c -2,45 -3,90 -3,135 0,148 10,294 28,438 l -416,-223 c -3,-71 -6,-143 -6,-215 0,-169 12,-335 33,-499 l 364,364 z m 47,718 c 36,209 92,412 165,605 l -457,-125 c -67,-228 -112,-465 -135,-709 l 427,229 z m 219,743 c 118,275 271,533 454,765 l -486,0 c -183,-275 -331,-575 -437,-894 l 469,129 z m 551,883 c 55,64 112,126 172,185 219,219 468,409 741,561 l -549,117 c -167,-120 -325,-254 -471,-399 -143,-144 -275,-299 -394,-464 l 501,0 z m -290,-2789 c -21,108 -37,218 -47,330 l -382,636 c -14,-126 -22,-255 -22,-386 0,-44 1,-88 2,-131 l 449,-449 z m -57,576 c -1,127 7,255 24,381 l -224,742 c -63,-177 -112,-360 -145,-548 l 345,-575 z m 69,639 c 49,221 123,433 220,631 l 1,748 c -169,-219 -311,-460 -420,-718 l 199,-661 z m 338,851 c 124,210 274,403 446,574 97,97 200,187 310,269 l 142,562 c -269,-150 -514,-337 -730,-553 -58,-57 -114,-117 -168,-180 l 0,-672 z m -328,-2254 c 104,-448 297,-891 613,-1267 26,-30 -1,-54 -29,-26 -443,445 -736,980 -846,1554 l 262,-261 z"
       id="path4788"
       inkscape:connector-curvature="0"
       style="fill:#000000" /><path
       class="fil2"
       d="m 0,14780 c -763,0 -1473,-227 -2067,-615 l 617,-132 -152,-599 c 460,303 1010,479 1602,479 592,0 1142,-176 1602,-479 l -152,599 617,132 c -594,388 -1304,615 -2067,615 z"
       id="path4790"
       inkscape:connector-curvature="0"
       style="fill:#ffffff" /><path
       class="fil3"
       d="m 0,8461 c 701,0 1336,284 1796,743 459,460 743,1095 743,1796 0,701 -284,1336 -743,1796 -460,459 -1095,743 -1796,743 -701,0 -1336,-284 -1796,-743 -459,-460 -743,-1095 -743,-1796 0,-701 284,-1336 743,-1796 460,-459 1095,-743 1796,-743 z m 1712,827 C 1274,8850 669,8579 0,8579 c -669,0 -1274,271 -1712,709 -438,438 -709,1043 -709,1712 0,669 271,1274 709,1712 438,438 1043,709 1712,709 669,0 1274,-271 1712,-709 438,-438 709,-1043 709,-1712 0,-669 -271,-1274 -709,-1712 z"
       id="path4792"
       inkscape:connector-curvature="0"
       style="fill:#000000;fill-rule:nonzero" /><path
       class="fil4"
       d="m -1280,7913 -54,-117 -89,41 c -11,5 -20,11 -27,19 l -28,-23 c 11,-3 24,-7 37,-13 l 98,-44 -25,-56 c -13,-28 -24,-50 -33,-65 32,-8 57,-13 73,-14 16,-2 25,-1 26,2 2,4 -3,13 -15,28 l 35,77 55,-25 9,-49 c 1,-9 4,-15 9,-17 4,-2 12,-2 23,1 12,2 25,5 39,9 15,4 25,7 31,9 5,2 9,4 10,6 2,6 -3,12 -16,18 l -151,68 53,117 113,-51 10,-50 c 1,-9 5,-14 10,-16 5,-3 21,1 50,11 28,10 43,17 45,20 2,5 -5,10 -20,17 l -376,172 c -13,5 -22,11 -28,18 l -26,-24 c 11,-2 23,-6 37,-13 l 125,-56 z m -258,76 -62,28 c 5,63 3,121 -8,172 l -14,3 c -4,-88 -26,-187 -67,-297 8,-2 23,-5 44,-8 21,-3 34,-4 38,-4 4,0 7,2 8,5 2,3 0,6 -3,10 -4,4 -6,10 -8,17 -1,8 -1,17 1,28 2,10 4,27 7,51 l 55,-25 -64,-141 c -9,-20 -19,-39 -29,-58 64,-12 97,-14 101,-7 2,5 -4,15 -19,30 l 68,149 20,-9 5,-40 c 1,-8 4,-13 8,-15 5,-2 19,0 44,7 25,6 38,12 41,18 2,6 -2,11 -15,17 l -94,43 53,116 76,-80 12,12 -72,103 112,246 c 3,5 2,10 -1,16 -4,6 -10,14 -20,25 -10,11 -16,17 -19,18 -3,1 -5,0 -7,-4 l -14,-34 c -10,-24 -19,-45 -27,-63 l -65,-143 c -32,47 -49,75 -53,85 -3,9 -7,15 -10,16 -2,1 -7,0 -14,-3 -6,-3 -28,-16 -64,-40 39,-31 79,-66 120,-105 l -64,-139 z m 457,-33 27,-12 7,-40 c 1,-8 4,-12 9,-15 6,-2 22,1 48,10 27,8 41,15 43,19 1,2 -2,5 -11,9 l -113,52 86,188 c 6,15 9,27 8,38 -1,11 -8,26 -22,43 -14,17 -24,28 -31,31 -4,2 -8,-1 -13,-7 -10,-17 -22,-28 -35,-31 -14,-3 -41,-1 -80,5 l -2,-15 c 43,-14 71,-24 83,-29 12,-6 19,-11 21,-15 1,-4 0,-9 -3,-16 l -74,-164 -183,84 c -12,5 -22,11 -29,17 l -26,-24 c 11,-2 23,-7 37,-13 l 190,-87 c -22,-48 -35,-76 -40,-84 56,-17 86,-22 88,-17 2,4 -1,11 -9,22 l 24,51 z m -216,145 c 36,3 65,8 85,14 21,6 34,17 40,30 6,14 6,28 0,42 -6,15 -13,24 -20,27 -6,3 -11,4 -14,2 -3,-3 -9,-12 -18,-28 -8,-17 -19,-31 -30,-43 -12,-11 -27,-22 -46,-32 l 3,-12 z"
       id="path4794"
       inkscape:connector-curvature="0"
       style="fill:#ffffff;fill-rule:nonzero" /><path
       id="1"
       class="fil4"
       d="m -264,7375 c 64,4 97,11 98,21 1,6 -7,14 -24,26 l 78,552 c 3,23 3,40 0,50 -4,10 -16,22 -36,35 -21,14 -35,21 -43,22 -7,1 -10,-3 -12,-11 -4,-16 -13,-29 -28,-38 -15,-9 -41,-18 -78,-25 l 2,-19 c 49,3 80,3 94,1 14,-2 23,-5 28,-8 5,-4 7,-11 5,-22 l -73,-518 c -4,-25 -7,-47 -11,-66 z m -405,325 1,13 c 2,8 1,14 -1,17 -2,3 -10,9 -23,17 -13,8 -23,12 -29,14 -4,0 -7,-3 -7,-10 -1,-20 -3,-36 -5,-49 l -22,-158 c -3,-22 -7,-43 -12,-65 39,6 69,15 92,25 l 121,-17 14,-33 c 2,-6 5,-9 10,-10 4,0 18,5 41,15 23,11 35,19 35,23 1,4 -8,14 -26,28 l 17,114 7,45 c 1,4 -1,8 -6,12 -4,5 -12,10 -24,17 -12,7 -20,11 -25,11 -5,1 -8,-2 -8,-9 l -3,-21 -147,21 z m -24,-170 20,147 147,-20 -20,-148 -147,21 z m 301,-32 c 33,4 57,8 72,12 16,3 24,7 25,10 0,5 -8,14 -25,28 l 44,314 c 1,9 1,16 -1,21 -2,4 -9,10 -22,18 -13,8 -22,12 -27,13 -5,1 -8,-3 -9,-12 -1,-2 -2,-11 -3,-28 -2,-17 -4,-36 -7,-57 l -37,-259 c -3,-22 -6,-42 -10,-60 z m -172,334 c -3,66 -16,126 -39,179 -22,53 -68,107 -135,162 l -10,-11 c 38,-50 63,-88 75,-114 12,-26 23,-58 32,-94 9,-36 15,-74 16,-113 l -102,15 c -14,2 -24,5 -31,9 l -18,-32 c 11,1 24,1 38,-1 l 113,-16 c 0,-36 -2,-75 -7,-115 58,7 88,13 89,20 0,3 -2,6 -8,9 -5,4 -9,8 -10,12 -1,5 -1,13 -1,25 0,12 0,25 -1,40 l 66,-9 16,-35 c 4,-6 7,-9 10,-10 2,0 13,3 30,10 18,8 30,13 37,17 6,4 10,8 11,13 0,4 -9,13 -28,26 8,76 11,131 10,166 -1,35 -4,59 -10,71 -6,11 -19,25 -39,39 -21,15 -34,23 -40,24 -6,0 -10,0 -11,-2 -2,-2 -3,-7 -4,-14 -2,-13 -11,-25 -26,-33 -15,-9 -37,-17 -65,-24 l 1,-12 c 51,3 83,4 96,3 13,-2 20,-7 22,-16 2,-9 4,-28 6,-56 3,-28 1,-76 -4,-144 l -79,11 z"
       inkscape:connector-curvature="0"
       style="fill:#ffffff;fill-rule:nonzero" /><path
       id="2"
       class="fil4"
       d="m 298,7372 c 28,16 49,30 62,40 14,11 20,18 20,22 -1,3 -5,5 -13,5 -8,1 -15,2 -19,5 -5,3 -11,8 -20,16 -52,53 -121,105 -207,155 l -10,-11 c 74,-67 136,-144 187,-232 z m 369,148 32,-39 c 6,-8 11,-11 16,-11 6,1 14,8 24,22 11,14 21,27 30,38 10,11 15,20 14,25 -1,5 -7,7 -18,5 l -306,-44 c -14,-2 -25,-2 -33,1 l -9,-37 c 11,4 23,7 38,10 l 212,30 z m -467,235 c -32,23 -74,51 -128,83 l -8,-12 c 58,-50 104,-97 138,-140 35,-43 67,-94 97,-153 51,36 76,57 75,64 0,4 -4,6 -12,6 -8,0 -14,1 -18,3 -5,3 -14,14 -30,33 -15,19 -35,42 -59,67 26,12 38,21 37,27 -1,6 -9,11 -24,16 l -45,314 c -1,5 -3,9 -8,11 -4,3 -14,5 -30,8 -16,3 -27,4 -32,4 -3,-1 -4,-4 -3,-9 l 13,-72 c 4,-23 7,-44 10,-64 l 27,-186 z m 387,-28 -201,-29 c -14,-2 -25,-2 -33,1 l -9,-37 c 10,4 23,8 38,10 l 311,44 35,-39 c 7,-7 12,-11 15,-10 5,1 19,14 41,40 22,25 32,41 32,46 -1,5 -6,6 -17,4 l -140,-20 -46,321 c -3,20 -7,33 -14,40 -6,7 -22,16 -47,25 -25,8 -41,13 -46,12 -5,-1 -8,-7 -9,-19 0,-18 -7,-34 -19,-46 -12,-13 -36,-29 -72,-47 l 3,-17 c 54,17 88,26 102,28 15,2 24,2 27,0 4,-3 6,-7 7,-15 l 42,-292 z"
       inkscape:connector-curvature="0"
       style="fill:#ffffff;fill-rule:nonzero" /><path
       id="3"
       class="fil4"
       d="m 1500,7954 c -58,104 -116,180 -176,228 -60,49 -146,86 -258,111 l -3,-17 c 106,-41 184,-89 234,-142 50,-53 97,-123 143,-208 l -50,-23 c -13,-6 -24,-9 -32,-9 l 2,-39 c 9,7 20,14 34,20 l 59,27 c 25,-47 55,-106 88,-178 55,45 81,72 77,79 -1,3 -9,5 -22,6 -13,1 -22,6 -26,16 l -57,105 68,31 35,-19 c 5,-2 9,-3 13,-2 3,2 10,11 20,27 l 22,36 c 5,8 7,15 5,18 -2,4 -15,7 -41,8 -13,29 -37,76 -72,142 -34,67 -60,113 -76,139 -16,26 -33,45 -51,56 -19,12 -42,18 -70,19 -28,1 -44,1 -50,-2 -6,-3 -7,-9 -5,-19 5,-22 3,-42 -6,-59 -9,-17 -24,-36 -45,-55 l 11,-15 c 41,31 71,50 89,59 18,8 34,7 46,-4 13,-10 34,-41 63,-93 30,-51 65,-121 107,-208 l -76,-35 z m -201,-244 46,-28 c 6,-3 10,-4 14,-2 3,2 8,10 15,25 l 18,43 c 7,13 9,22 7,26 -2,5 -8,5 -17,1 l -208,-96 c -13,-6 -23,-9 -32,-9 l 1,-36 c 9,7 20,13 34,20 l 122,56 z m -145,423 c -75,-17 -125,-27 -152,-31 -26,-4 -45,-5 -57,-2 -5,0 -8,0 -11,-1 -2,-1 -4,-8 -5,-20 0,-12 0,-32 0,-59 17,3 32,1 45,-4 13,-6 38,-24 76,-54 38,-31 72,-62 102,-95 l -98,-45 c -13,-6 -23,-9 -32,-9 l 3,-39 c 9,7 20,13 34,19 l 201,93 43,-26 c 7,-4 13,-4 18,-2 5,2 9,6 12,13 4,6 8,17 14,31 5,15 9,26 11,34 2,9 2,15 0,19 -2,4 -7,4 -15,0 l -151,-70 c 22,23 32,37 30,43 -3,6 -9,7 -17,4 -7,-3 -14,-2 -20,3 -62,40 -124,77 -186,113 l 157,56 c 1,-29 -2,-59 -11,-91 l 14,-9 c 31,48 50,84 57,108 8,24 8,44 1,59 -8,16 -18,27 -33,35 -15,9 -27,10 -37,6 -10,-5 -12,-15 -6,-30 6,-15 10,-32 13,-49 z"
       inkscape:connector-curvature="0"
       style="fill:#ffffff;fill-rule:nonzero" /><circle
       class="fil5"
       cy="11000"
       r="3898"
       id="circle4799"
       cx="0"
       style="fill:none" /><path
       class="fil6"
       d="m -502,14055 -246,-32 c -15,-2 -26,-2 -35,1 l -10,-39 c 11,4 25,7 41,9 l 526,69 42,-45 c 6,-6 13,-9 20,-8 7,1 23,16 46,44 22,27 34,44 33,51 -1,3 -6,4 -16,3 l -323,-43 -29,223 159,21 42,-49 c 5,-6 9,-8 13,-8 4,1 11,6 21,15 10,9 22,21 36,36 14,15 22,25 25,30 3,4 4,8 3,11 -1,7 -7,10 -20,9 l -283,-38 -40,309 224,29 43,-41 c 6,-7 14,-9 21,-8 8,1 24,14 48,40 23,26 35,41 34,47 -1,5 -8,7 -22,5 l -712,-93 c -15,-2 -27,-2 -35,1 l -10,-38 c 11,4 24,7 40,9 l 290,38 41,-308 -208,-27 c -14,-2 -26,-2 -35,1 l -10,-39 c 11,4 25,8 41,10 l 215,28 30,-223 z m 120,338 c 51,40 86,69 103,90 18,20 26,38 24,53 -2,14 -8,28 -19,42 -10,14 -20,20 -28,19 -8,-1 -14,-4 -17,-8 -4,-4 -9,-20 -16,-48 -6,-29 -14,-53 -23,-74 -8,-21 -20,-41 -35,-62 l 11,-12 z m 822,-318 c -21,-57 -47,-97 -78,-120 l 5,-13 c 87,3 132,22 137,55 1,10 -2,23 -9,37 -7,15 -18,28 -34,38 l 227,-30 31,-61 c 5,-10 10,-15 16,-16 5,-1 12,1 19,6 7,4 20,13 36,26 17,13 29,22 35,28 6,5 9,11 10,15 0,5 -5,8 -16,10 l -695,91 c -15,2 -26,5 -34,10 l -19,-32 c 12,1 26,1 42,-1 l 327,-43 z m -107,124 271,-35 18,-35 c 3,-5 6,-8 9,-9 5,0 20,5 45,16 24,11 39,18 43,20 5,3 7,5 8,8 0,6 -11,17 -35,34 l 14,107 6,36 c 1,5 -1,10 -5,13 -3,3 -12,8 -25,14 -13,6 -23,9 -28,10 -5,1 -8,0 -10,-3 -1,-2 -2,-6 -3,-12 l -3,-20 -107,14 29,223 c 6,42 5,69 -3,82 -8,12 -21,23 -39,33 -19,9 -30,14 -34,15 -5,0 -9,-4 -13,-14 -7,-18 -17,-31 -32,-40 -14,-9 -41,-18 -80,-26 l 0,-14 c 56,2 90,2 103,0 13,-2 21,-5 24,-8 2,-4 2,-10 1,-19 l -29,-222 -121,16 c 1,12 1,20 -1,23 -3,3 -12,8 -27,15 -15,7 -25,11 -31,11 -5,1 -8,-3 -8,-10 0,-18 -1,-38 -4,-59 l -16,-124 c -3,-23 -7,-46 -12,-70 46,12 78,22 95,30 z m 302,118 -17,-132 -302,40 17,132 302,-40 z m -321,111 c 16,5 32,11 47,18 16,7 27,13 32,16 5,3 8,6 8,10 1,5 -2,8 -10,9 -7,2 -13,5 -16,8 -4,4 -18,22 -41,53 -24,31 -48,59 -73,84 -25,25 -63,57 -114,94 l -9,-10 c 53,-66 92,-118 115,-156 24,-38 44,-80 61,-126 z m 263,-21 c 62,15 120,33 173,53 53,21 81,48 86,81 2,16 0,33 -5,49 -5,16 -12,25 -22,27 -4,0 -8,-1 -12,-4 -3,-2 -9,-8 -16,-18 -30,-38 -60,-70 -91,-95 -31,-25 -71,-51 -119,-79 l 6,-14 z"
       id="path4801"
       inkscape:connector-curvature="0"
       style="fill:#e2001a;fill-rule:nonzero" /><circle
       class="fil5"
       cy="11000"
       r="3898"
       id="circle4803"
       cx="0"
       style="fill:none" /><path
       class="fil2"
       d="m 0,13028 c -354,0 -433,-335 -492,-434 l -276,-216 -19,-354 c 177,-59 374,-40 590,98 l 394,0 c 216,-138 413,-157 590,-98 l -19,354 -276,216 c -59,99 -138,434 -492,434 z m -571,-2382 c -138,0 -216,-79 -275,0 -36,47 -40,157 0,216 l 472,335 98,-79 c -177,-275 -78,-472 -295,-472 z m 1142,0 c 138,0 216,-79 275,0 36,47 40,157 0,216 l -472,335 -98,-79 c 177,-275 78,-472 295,-472 z m 1023,-926 -19,237 -197,551 -138,-256 c 138,-256 168,-405 217,-492 29,-53 85,-62 137,-40 z m -3188,0 19,237 197,551 138,-256 c -138,-256 -168,-405 -217,-492 -29,-53 -85,-62 -137,-40 z m 590,2087 c -39,-39 -79,-98 -98,-157 -40,39 -59,78 -79,118 -59,-158 -79,-315 -79,-492 -33,13 -65,26 -98,39 0,-98 19,-177 59,-295 -99,39 -145,118 -217,177 l -19,531 157,-157 98,413 178,296 107,-34 70,73 39,-118 c -20,-79 -20,-414 177,-650 -137,59 -236,158 -295,256 z m 2008,0 c 39,-39 79,-98 98,-157 40,39 59,78 79,118 59,-158 79,-315 79,-492 33,13 65,26 98,39 0,-98 -19,-177 -59,-295 99,39 145,118 217,177 l 19,531 -157,-157 -98,413 -178,296 -107,-34 -70,73 -39,-118 c 20,-79 20,-414 -177,-650 137,59 236,158 295,256 z m -1004,177 0,0 c 177,0 324,-85 335,-59 36,91 -118,86 -118,138 l -166,24 8,15 -59,-8 -59,8 8,-15 -166,-24 c 0,-52 -154,-47 -118,-138 11,-26 158,59 335,59 z"
       id="path4805"
       inkscape:connector-curvature="0"
       style="fill:#ffffff" /><path
       class="fil1"
       d="m 197,9504 c 197,39 394,98 492,236 -177,-79 -276,-79 -354,-79 -138,0 -256,-102 -335,-102 -79,0 -197,102 -335,102 -78,0 -177,0 -354,79 98,-138 295,-197 492,-236 -413,-79 -571,216 -768,216 -137,0 -315,-118 -531,-118 -98,158 -20,532 118,847 l 0,98 c -157,-256 -295,-807 -295,-846 0,-40 39,-158 118,-276 79,-118 295,99 590,99 434,0 414,-237 965,-237 551,0 531,237 965,237 295,0 511,-217 590,-99 79,118 118,236 118,276 0,39 -138,590 -295,846 l -59,-138 c 138,40 275,-649 177,-807 -216,0 -394,118 -531,118 -197,0 -355,-295 -768,-216 z"
       id="path4807"
       inkscape:connector-curvature="0"
       style="fill:#000000" /><path
       class="fil1"
       d="m 0,9701 c 79,0 130,39 197,39 118,0 413,132 472,295 C 531,9917 354,9839 197,9839 59,9839 79,9799 0,9799 c -79,0 -59,40 -197,40 -157,0 -334,78 -472,196 59,-163 354,-295 472,-295 67,0 118,-39 197,-39 z m -354,1437 c -59,0 -59,-118 -217,-158 -176,-44 -295,-162 -295,-295 0,-79 59,-216 138,-295 -158,59 -453,374 -433,590 19,-59 78,-137 137,-177 -59,138 -19,335 118,414 -39,-60 -78,-217 0,-217 99,0 108,119 197,177 67,44 177,99 276,59 39,118 -79,256 -177,335 98,-20 354,-177 315,-354 19,-20 59,-60 59,-119 0,-78 -59,-118 19,-255 -36,28 -98,98 -98,157 0,59 39,138 -39,138 z m 708,0 c 59,0 59,-118 217,-158 176,-44 295,-162 295,-295 0,-79 -59,-216 -138,-295 158,59 453,374 433,590 -19,-59 -78,-137 -137,-177 59,138 19,335 -118,414 39,-60 78,-217 0,-217 -99,0 -108,119 -197,177 -67,44 -178,99 -276,59 -39,118 79,256 177,335 -98,-20 -354,-177 -315,-354 -19,-20 -59,-60 -59,-119 0,-78 59,-118 -19,-255 36,28 98,98 98,157 0,59 -39,138 39,138 z M 0,10823 c 39,0 20,79 79,138 45,45 98,59 59,118 -20,-40 -79,-79 -138,-79 -59,0 -118,39 -138,79 -39,-59 18,-70 59,-118 49,-58 40,-138 79,-138 z m 0,-571 c 59,0 217,20 217,59 0,39 -178,177 -217,177 -39,0 -217,-138 -217,-177 0,-39 158,-59 217,-59 z m 0,-276 c 79,0 119,52 177,59 158,20 256,178 354,237 -236,-20 -216,-99 -531,-99 -315,0 -295,79 -531,99 98,-59 196,-217 354,-237 58,-7 98,-59 177,-59 z"
       id="path4809"
       inkscape:connector-curvature="0"
       style="fill:#000000" /><path
       class="fil2"
       d="m 630,11138 c 94,-48 151,-126 146,-134 -6,-10 -111,6 -185,55 -68,45 -87,65 -79,79 8,14 45,37 118,0 z"
       id="path4811"
       inkscape:connector-curvature="0"
       style="fill:#ffffff" /><path
       class="fil2"
       d="m -630,11138 c -94,-48 -151,-126 -146,-134 6,-10 111,6 185,55 68,45 87,65 79,79 -8,14 -45,37 -118,0 z"
       id="path4813"
       inkscape:connector-curvature="0"
       style="fill:#ffffff" /><path
       class="fil1"
       d="m 0,12949 c 28,69 98,79 98,-20 20,40 72,36 99,20 98,-57 200,-158 232,-297 -48,14 -94,21 -134,21 -118,0 -216,-39 -295,-157 -79,118 -177,157 -295,157 -40,0 -86,-7 -134,-21 32,139 134,240 232,297 27,16 79,20 99,-20 0,99 70,89 98,20 z m 945,-689 c 79,-99 138,-256 157,-394 24,70 -6,374 0,374 138,-197 237,-531 237,-807 78,59 157,177 177,236 -20,-216 -59,-492 -158,-649 59,19 99,59 138,98 -118,-354 -335,-669 -630,-905 158,59 276,137 394,256 -20,-99 -59,-217 -138,-394 217,216 453,787 591,1299 -40,-39 -79,-59 -138,-79 19,197 19,394 0,591 -36,-77 -118,-197 -177,-256 -40,256 -138,571 -374,787 16,-48 19,-137 0,-137 -40,0 -59,118 -138,196 17,-67 5,-178 -12,-233 -64,192 -220,318 -368,382 -71,312 -353,442 -506,442 -153,0 -435,-130 -506,-442 -145,-62 -297,-184 -364,-370 -12,87 -33,152 -16,221 -79,-78 -98,-196 -138,-196 -19,0 -16,89 0,137 -236,-216 -334,-531 -374,-787 -59,59 -141,179 -177,256 -19,-197 -19,-394 0,-591 -59,20 -98,40 -138,79 138,-512 374,-1083 591,-1299 -79,177 -118,295 -138,394 118,-119 236,-197 394,-256 -295,236 -512,551 -630,905 39,-39 79,-79 138,-98 -99,157 -138,433 -158,649 20,-59 99,-177 177,-236 0,276 99,610 237,807 6,0 -24,-304 0,-374 19,138 78,295 157,394 -20,-138 20,-414 79,-532 9,-17 118,-118 157,-137 l 0,0 0,0 c -59,118 -78,275 -78,374 19,-40 78,-99 137,-99 -196,236 -39,492 59,610 54,65 256,99 335,99 53,0 217,-40 217,-158 l 0,-118 c -13,0 -30,-4 -40,-19 57,-74 -19,-138 -59,-79 -101,-63 -216,-197 -216,-236 0,-79 177,98 354,98 177,0 354,-177 354,-98 0,39 -115,173 -216,236 -40,-59 -116,5 -59,79 -10,15 -27,19 -40,19 l 0,118 c 0,118 164,158 217,158 79,0 281,-34 335,-99 98,-118 255,-374 59,-610 59,0 118,59 137,99 0,-99 -19,-256 -78,-374 39,19 148,120 157,137 59,118 99,394 79,532 z m -1260,-748 c -98,59 -118,216 0,374 -29,-86 -30,-285 0,-374 z m 630,0 c 98,59 118,216 0,374 29,-86 30,-285 0,-374 z"
       id="path4815"
       inkscape:connector-curvature="0"
       style="fill:#000000" /></g></svg>