<?xml version="1.0" encoding="UTF-8" standalone="no"?>
<!-- Creator: CorelDRAW X7 -->

<svg
   xmlns:dc="http://purl.org/dc/elements/1.1/"
   xmlns:cc="http://creativecommons.org/ns#"
   xmlns:rdf="http://www.w3.org/1999/02/22-rdf-syntax-ns#"
   xmlns:svg="http://www.w3.org/2000/svg"
   xmlns="http://www.w3.org/2000/svg"
   xmlns:sodipodi="http://sodipodi.sourceforge.net/DTD/sodipodi-0.dtd"
   xmlns:inkscape="http://www.inkscape.org/namespaces/inkscape"
   xml:space="preserve"
   width="7.8740005in"
   height="7.8740005in"
   version="1.1"
   style="clip-rule:evenodd;fill-rule:evenodd;image-rendering:optimizeQuality;shape-rendering:geometricPrecision;text-rendering:geometricPrecision"
   viewBox="0 0 7874.0005 7874.0005"
   id="svg3469"
   inkscape:version="0.91 r13725"
   sodipodi:docname="Ariadna - Intel Spec-Ops - [N3] [Vyo].svg"><metadata
     id="metadata3727"><rdf:RDF><cc:Work
         rdf:about=""><dc:format>image/svg+xml</dc:format><dc:type
           rdf:resource="http://purl.org/dc/dcmitype/StillImage" /></cc:Work></rdf:RDF></metadata><sodipodi:namedview
     pagecolor="#ffffff"
     bordercolor="#666666"
     borderopacity="1"
     objecttolerance="10"
     gridtolerance="10"
     guidetolerance="10"
     inkscape:pageopacity="0"
     inkscape:pageshadow="2"
     inkscape:window-width="640"
     inkscape:window-height="480"
     id="namedview3725"
     showgrid="false"
     inkscape:zoom="0.23838384"
     inkscape:cx="736.83001"
     inkscape:cy="849.33005"
     inkscape:window-x="0"
     inkscape:window-y="0"
     inkscape:window-maximized="0"
     inkscape:current-layer="svg3469" /><defs
     id="defs3471"><style
       type="text/css"
       id="style3473"><![CDATA[
    .fil5 {fill:none}
    .fil0 {fill:black}
    .fil2 {fill:#E2001A}
    .fil1 {fill:#FFF700}
    .fil4 {fill:yellow}
    .fil6 {fill:white;fill-rule:nonzero}
    .fil3 {fill:white;fill-rule:nonzero}
   ]]></style></defs><g
     id="Layer_x0020_1"
     transform="translate(3937,-7063)"><metadata
       id="CorelCorpID_0Corel-Layer" /><circle
       class="fil0"
       cy="11000"
       r="3937"
       id="circle3477"
       cx="0"
       style="fill:#000000" /><circle
       class="fil1"
       cy="11000"
       r="3819"
       id="circle3479"
       cx="0"
       style="fill:#fff700" /><circle
       class="fil2"
       cy="11000"
       r="3701"
       id="circle3481"
       cx="0"
       style="fill:#e2001a" /><g
       id="_888124464"><path
         class="fil0"
         d="m 235,13620 c 11,-8 24,-11 37,-11 l 9,0 c 3,-5 6,-10 9,-15 7,-11 13,-24 18,-36 7,-17 12,-36 18,-54 7,-25 12,-52 17,-78 8,-37 14,-75 19,-113 7,-51 14,-102 20,-154 l 0,-1 c 2,-18 8,-37 20,-52 14,-16 34,-24 55,-24 l 323,0 c 21,0 41,7 55,22 16,16 21,37 21,58 l 0,447 15,0 c 19,0 37,7 49,22 l 1,1 0,1 c 9,12 13,27 13,43 l 0,226 c 0,11 -3,22 -10,31 -6,10 -16,16 -27,20 -8,3 -17,5 -26,6 -10,1 -22,1 -32,1 -11,0 -21,0 -32,-1 -8,-1 -17,-3 -25,-6 -10,-3 -20,-9 -27,-17 l 0,-1 -1,0 c -7,-10 -11,-21 -11,-33 l 0,-109 -342,0 0,109 c 0,12 -4,23 -11,33 l 0,0 -1,1 c -7,8 -16,14 -27,17 -8,3 -16,5 -25,6 -11,1 -21,1 -32,1 -11,0 -21,0 -32,-1 -9,-1 -17,-3 -26,-6 -11,-4 -21,-10 -28,-20 -6,-9 -10,-20 -10,-31 l 0,-107 c -13,1 -26,1 -39,1 -14,0 -27,0 -41,-1 -10,0 -21,-1 -31,-4 -11,-4 -22,-10 -29,-20 -6,-7 -9,-15 -12,-23 l -32,-99 -181,0 -31,96 c -2,8 -6,15 -10,22 -7,10 -17,17 -29,22 -10,4 -21,5 -31,6 -12,1 -25,1 -37,1 -13,0 -27,0 -40,-2 -16,-2 -32,-7 -43,-20 -11,-13 -15,-30 -12,-48 1,-11 5,-23 9,-34 l 194,-560 c 3,-9 8,-18 13,-25 8,-11 19,-18 32,-22 11,-3 22,-4 34,-5 14,-1 28,-1 42,-1 16,0 32,0 47,1 12,1 25,2 36,5 13,4 25,10 34,21 l 0,1 1,1 c 5,7 10,16 12,25 l 170,487 z m -1956,151 c -6,-7 -9,-15 -12,-23 l -32,-99 -181,0 -31,96 c -2,8 -6,15 -10,22 -7,10 -17,17 -29,22 -10,4 -21,5 -31,6 -12,1 -25,1 -37,1 -13,0 -27,0 -40,-2 -16,-2 -32,-7 -43,-20 -11,-13 -15,-30 -12,-48 1,-11 5,-23 9,-34 l 194,-560 c 3,-9 8,-18 13,-25 8,-11 19,-18 32,-22 11,-3 22,-4 34,-5 14,-1 28,-1 42,-1 16,0 32,0 47,1 12,1 25,2 36,5 13,4 25,10 34,21 l 0,1 1,1 c 5,7 10,16 12,25 l 196,561 c 3,11 7,22 9,34 2,18 -2,36 -15,49 l -1,1 -1,0 c -11,11 -26,15 -42,17 -13,1 -27,1 -41,1 -14,0 -27,0 -41,-1 -10,0 -21,-1 -31,-4 -11,-4 -22,-10 -29,-20 z m 410,-197 0,162 c 0,13 -4,24 -12,34 l 0,0 -1,1 c -7,8 -17,14 -27,18 -9,3 -18,4 -28,5 -11,2 -24,2 -35,2 -12,0 -24,0 -36,-2 -9,-1 -18,-2 -27,-5 l 0,0 -1,0 c -11,-4 -22,-11 -29,-21 -7,-9 -11,-20 -11,-32 l 0,-568 c 0,-24 7,-47 25,-63 16,-16 36,-23 58,-23 l 149,0 c 16,0 31,1 46,2 18,2 36,5 53,8 24,5 47,13 68,25 23,12 44,27 61,47 18,20 31,42 39,67 9,27 13,55 13,83 0,37 -5,74 -19,109 -14,32 -33,61 -59,84 -27,23 -59,40 -92,51 -39,12 -81,16 -121,16 l -14,0 z m 521,-468 c 7,9 11,20 11,32 l 0,267 195,-290 1,-1 c 3,-5 7,-9 12,-14 6,-6 14,-10 23,-14 l 1,0 0,0 c 8,-3 17,-5 25,-5 10,-1 20,-2 29,-2 12,0 23,0 35,2 8,1 17,2 26,5 l 1,0 0,1 c 11,4 21,10 28,19 7,10 10,21 10,33 l 0,598 c 0,13 -4,25 -13,34 -7,9 -16,14 -27,18 l -1,0 0,0 c -9,3 -18,5 -28,6 -11,1 -23,1 -35,1 -11,0 -23,0 -35,-1 -9,-1 -18,-3 -27,-6 l -1,0 c -11,-4 -21,-10 -28,-19 -8,-10 -11,-21 -11,-33 l 0,-267 -195,291 -1,1 c -4,4 -8,9 -12,14 -7,6 -16,11 -25,14 -8,3 -17,5 -26,5 -9,1 -18,1 -28,1 -11,0 -23,0 -34,-1 -10,-1 -19,-3 -27,-6 l -1,0 c -12,-5 -22,-12 -29,-23 -6,-9 -8,-19 -8,-30 l 0,-598 c 0,-13 4,-24 12,-34 8,-9 18,-14 28,-18 l 1,0 0,0 c 9,-3 18,-4 28,-5 11,-1 23,-2 34,-2 12,0 24,0 35,2 9,1 19,2 27,5 l 1,0 1,0 c 11,4 21,10 28,20 z m 2100,414 -158,0 0,216 c 0,12 -4,23 -11,32 -7,10 -17,17 -29,21 l 0,0 -1,0 c -8,3 -17,4 -26,5 -12,2 -24,2 -36,2 -12,0 -24,0 -36,-2 -9,-1 -18,-2 -26,-5 l -1,0 -1,0 c -10,-4 -20,-10 -27,-18 l 0,-1 -1,0 c -8,-10 -12,-21 -12,-34 l 0,-597 c 0,-12 4,-24 12,-33 l 1,-1 0,0 c 7,-9 17,-15 27,-18 9,-3 19,-5 28,-6 12,-1 24,-2 36,-2 12,0 24,1 36,2 9,1 18,3 26,5 l 1,1 0,0 c 12,4 22,10 29,20 7,9 11,20 11,32 l 0,193 158,0 0,-193 c 0,-12 4,-24 12,-33 l 1,-1 0,0 c 7,-9 16,-14 27,-18 l 0,0 1,-1 c 9,-2 18,-4 27,-5 12,-1 24,-2 36,-2 12,0 24,1 35,2 9,1 19,3 28,6 10,3 20,9 27,18 l 1,0 0,1 c 8,9 12,21 12,33 l 0,597 c 0,13 -4,24 -12,34 l 0,0 -1,1 c -7,8 -17,14 -27,18 l -1,0 0,0 c -9,3 -18,4 -27,5 -11,2 -23,2 -35,2 -12,0 -24,0 -36,-2 -9,-1 -18,-2 -27,-5 l -1,0 0,-1 c -11,-3 -20,-9 -27,-17 l 0,-1 -1,0 c -8,-10 -12,-21 -12,-34 l 0,-216 z m 668,251 c -5,-7 -9,-15 -11,-23 l -32,-99 -182,0 -30,96 c -3,8 -6,15 -11,22 -7,10 -17,17 -28,22 -10,4 -21,5 -31,6 -13,1 -25,1 -37,1 -14,0 -27,0 -40,-2 -16,-2 -32,-7 -43,-20 -11,-13 -15,-30 -13,-48 2,-11 6,-23 9,-34 l 195,-560 c 3,-9 7,-18 13,-25 8,-11 19,-18 32,-22 10,-3 22,-4 33,-5 14,-1 28,-1 42,-1 16,0 32,0 48,1 12,1 24,2 36,5 13,4 25,10 33,21 l 1,1 0,1 c 6,7 10,16 13,25 l 195,561 c 4,11 8,22 9,34 3,18 -2,36 -15,49 l 0,1 -1,0 c -12,11 -27,15 -42,17 -14,1 -28,1 -41,1 -14,0 -28,0 -41,-1 -10,0 -21,-1 -31,-4 -12,-4 -22,-10 -30,-20 z m -3835,-404 -34,104 69,0 -35,-104 z m 546,-107 0,136 19,0 c 12,0 26,-1 37,-5 7,-3 14,-7 19,-13 6,-6 10,-14 13,-22 3,-11 4,-22 4,-33 0,-12 -1,-26 -7,-36 -3,-6 -8,-13 -14,-17 -7,-4 -14,-7 -22,-8 -11,-1 -22,-2 -33,-2 l -16,0 z m 1244,107 -34,104 69,0 -35,-104 z m 717,-102 -73,0 c -4,32 -9,65 -14,97 -5,34 -11,67 -17,101 -6,25 -11,51 -19,76 -5,19 -11,38 -19,57 -2,4 -4,9 -6,13 l 148,0 0,-344 z m 1193,102 -34,104 68,0 -34,-104 z"
         id="path3484"
         inkscape:connector-curvature="0"
         style="fill:#000000" /></g><path
       class="fil3"
       d="m -1567,13706 c 4,12 7,21 8,28 1,7 -1,12 -4,15 -4,4 -10,6 -19,7 -9,0 -22,1 -38,1 -17,0 -30,0 -39,-1 -9,0 -16,-1 -21,-3 -5,-1 -8,-3 -10,-6 -2,-3 -4,-6 -5,-10 l -42,-127 -238,0 -40,123 c -1,5 -3,9 -5,12 -2,3 -5,5 -10,7 -5,2 -11,3 -20,4 -9,0 -20,1 -34,1 -15,0 -27,-1 -35,-2 -9,-1 -15,-3 -18,-7 -3,-4 -4,-9 -3,-16 1,-7 3,-16 7,-27 l 195,-561 c 2,-5 4,-10 7,-13 2,-4 6,-6 12,-8 6,-2 14,-3 24,-4 10,0 23,0 40,0 19,0 34,0 46,0 11,1 20,2 26,4 7,2 11,4 14,8 3,4 5,8 7,15 l 195,560 z m -290,-464 0,0 -88,269 177,0 -89,-269 z"
       id="path3486"
       inkscape:connector-curvature="0"
       style="fill:#ffffff;fill-rule:nonzero" /><path
       id="1"
       class="fil3"
       d="m -1045,13314 c 0,35 -6,67 -17,94 -11,28 -27,51 -48,69 -22,19 -48,33 -78,43 -31,10 -68,15 -109,15 l -53,0 0,201 c 0,4 -1,6 -3,9 -3,3 -6,5 -11,6 -5,2 -11,3 -19,4 -8,1 -19,2 -31,2 -13,0 -23,-1 -31,-2 -9,-1 -15,-2 -20,-4 -5,-1 -8,-3 -10,-6 -2,-3 -3,-6 -3,-9 l 0,-568 c 0,-16 4,-27 12,-35 8,-7 18,-11 31,-11 l 149,0 c 15,0 30,0 43,1 14,2 30,4 49,8 19,4 38,10 57,21 19,10 36,22 50,38 13,15 24,33 31,54 7,21 11,44 11,70 z m -134,9 c 0,-22 -4,-40 -12,-55 -8,-14 -18,-25 -29,-32 -12,-6 -24,-11 -36,-13 -13,-1 -26,-2 -39,-2 l -55,0 0,215 58,0 c 20,0 38,-3 52,-9 13,-5 25,-13 34,-23 9,-10 15,-22 20,-36 4,-13 7,-29 7,-45 z"
       inkscape:connector-curvature="0"
       style="fill:#ffffff;fill-rule:nonzero" /><path
       id="2"
       class="fil3"
       d="m -432,13737 c 0,3 -1,6 -3,9 -2,2 -6,4 -11,6 -5,1 -11,3 -20,4 -8,0 -18,1 -31,1 -12,0 -22,-1 -31,-1 -8,-1 -14,-3 -19,-4 -5,-2 -8,-4 -10,-6 -2,-3 -3,-6 -3,-9 l 0,-333 c 0,-13 0,-25 0,-37 1,-13 1,-23 2,-33 l -1,0 c -3,5 -6,10 -9,16 -4,6 -8,12 -12,19 -4,7 -8,14 -13,21 -5,7 -9,13 -14,20 l -219,328 c -3,3 -5,6 -8,9 -3,3 -6,5 -11,6 -4,2 -10,3 -16,3 -6,1 -15,1 -25,1 -12,0 -23,-1 -30,-1 -8,-1 -14,-3 -19,-4 -4,-2 -7,-4 -9,-6 -1,-3 -2,-6 -2,-10 l 0,-598 c 0,-3 1,-6 3,-8 2,-3 6,-5 11,-6 5,-2 11,-3 20,-4 8,-1 18,-1 30,-1 13,0 23,0 31,1 8,1 15,2 20,4 5,1 8,3 10,6 2,2 3,5 3,8 l 0,335 c 0,11 0,22 -1,34 0,11 0,23 -1,34 l 1,0 c 6,-10 13,-22 21,-35 9,-14 17,-27 26,-40 l 220,-328 c 3,-3 5,-6 8,-9 2,-2 6,-4 10,-6 4,-1 10,-3 16,-3 7,-1 15,-1 25,-1 13,0 23,0 30,1 8,1 14,2 19,4 4,1 7,3 9,6 2,2 3,5 3,9 l 0,598 z"
       inkscape:connector-curvature="0"
       style="fill:#ffffff;fill-rule:nonzero" /><path
       id="3"
       class="fil3"
       d="m 223,13706 c 4,12 7,21 8,28 1,7 -1,12 -4,15 -4,4 -10,6 -19,7 -9,0 -22,1 -38,1 -17,0 -30,0 -39,-1 -9,0 -16,-1 -21,-3 -5,-1 -8,-3 -10,-6 -2,-3 -4,-6 -5,-10 l -42,-127 -238,0 -40,123 c -1,5 -3,9 -5,12 -2,3 -5,5 -10,7 -5,2 -11,3 -20,4 -9,0 -20,1 -34,1 -15,0 -27,-1 -35,-2 -9,-1 -15,-3 -18,-7 -3,-4 -4,-9 -3,-16 1,-7 3,-16 7,-27 l 195,-561 c 2,-5 4,-10 7,-13 2,-4 6,-6 12,-8 6,-2 14,-3 24,-4 10,0 23,0 40,0 19,0 34,0 46,0 11,1 20,2 26,4 7,2 11,4 14,8 3,4 5,8 7,15 l 195,560 z m -290,-464 0,0 -88,269 177,0 -89,-269 z"
       inkscape:connector-curvature="0"
       style="fill:#ffffff;fill-rule:nonzero" /><path
       id="4"
       class="fil3"
       d="m 895,13902 c 0,3 -1,6 -3,8 -1,3 -4,5 -8,6 -5,2 -10,3 -17,4 -8,0 -17,1 -28,1 -11,0 -20,-1 -27,-1 -7,-1 -13,-2 -17,-4 -5,-1 -8,-3 -10,-5 -1,-3 -2,-6 -2,-9 l 0,-148 -421,0 0,148 c 0,3 -1,6 -3,9 -2,2 -5,4 -9,5 -5,2 -10,3 -18,4 -7,0 -16,1 -27,1 -11,0 -20,-1 -27,-1 -8,-1 -13,-2 -18,-4 -4,-1 -7,-3 -9,-6 -1,-2 -2,-5 -2,-8 l 0,-227 c -1,-9 1,-16 5,-20 4,-4 10,-6 18,-6 l 30,0 c 7,-11 15,-23 22,-34 7,-12 14,-26 20,-42 7,-16 13,-35 19,-58 7,-22 13,-49 19,-81 6,-33 13,-71 19,-115 6,-44 13,-96 20,-155 2,-15 5,-26 11,-32 6,-7 14,-10 25,-10 l 323,0 c 12,0 21,3 27,10 7,6 10,17 10,30 l 0,487 54,0 c 9,0 15,2 18,7 4,5 6,11 6,20 l 0,226 z m -206,-676 -147,0 c -6,49 -12,93 -18,130 -5,38 -11,71 -17,99 -6,28 -11,52 -17,73 -6,20 -12,38 -18,53 -6,15 -13,28 -19,39 -7,10 -14,20 -20,29 l 256,0 0,-423 z"
       inkscape:connector-curvature="0"
       style="fill:#ffffff;fill-rule:nonzero" /><path
       id="5"
       class="fil3"
       d="m 1478,13736 c 0,3 -1,6 -4,9 -2,3 -5,5 -10,6 -5,2 -11,3 -20,4 -8,1 -18,2 -30,2 -13,0 -23,-1 -32,-2 -8,-1 -14,-2 -19,-4 -5,-1 -8,-3 -10,-6 -2,-3 -3,-6 -3,-9 l 0,-255 -237,0 0,255 c 0,3 -1,6 -3,9 -2,3 -6,5 -11,6 -4,2 -11,3 -19,4 -8,1 -19,2 -31,2 -12,0 -23,-1 -31,-2 -8,-1 -15,-2 -20,-4 -5,-1 -8,-3 -10,-6 -2,-3 -3,-6 -3,-9 l 0,-597 c 0,-3 1,-6 3,-9 2,-2 5,-4 10,-6 5,-2 12,-3 20,-4 8,-1 19,-1 31,-1 12,0 23,0 31,1 8,1 15,3 19,4 5,2 9,4 11,6 2,3 3,6 3,9 l 0,233 237,0 0,-233 c 0,-3 1,-6 3,-9 2,-2 5,-4 10,-6 5,-1 11,-3 19,-4 9,-1 19,-1 32,-1 12,0 22,0 30,1 9,1 15,2 20,4 5,2 8,4 10,6 3,3 4,6 4,9 l 0,597 z"
       inkscape:connector-curvature="0"
       style="fill:#ffffff;fill-rule:nonzero" /><path
       id="6"
       class="fil3"
       d="m 2133,13706 c 4,12 6,21 7,28 1,7 0,12 -4,15 -3,4 -10,6 -19,7 -9,0 -21,1 -37,1 -17,0 -30,0 -39,-1 -9,0 -16,-1 -21,-3 -5,-1 -9,-3 -11,-6 -2,-3 -3,-6 -4,-10 l -42,-127 -238,0 -40,123 c -1,5 -3,9 -5,12 -2,3 -6,5 -10,7 -5,2 -12,3 -20,4 -9,0 -20,1 -34,1 -15,0 -27,-1 -36,-2 -8,-1 -14,-3 -17,-7 -3,-4 -5,-9 -4,-16 1,-7 4,-16 8,-27 l 194,-561 c 2,-5 5,-10 7,-13 3,-4 7,-6 13,-8 5,-2 13,-3 23,-4 10,0 24,0 40,0 20,0 35,0 46,0 12,1 21,2 27,4 6,2 11,4 14,8 2,4 5,8 7,15 l 195,560 z m -290,-464 -1,0 -88,269 178,0 -89,-269 z"
       inkscape:connector-curvature="0"
       style="fill:#ffffff;fill-rule:nonzero" /><path
       class="fil4"
       d="m 0,8126 c 1587,0 2874,1287 2874,2874 0,729 -274,1424 -770,1958 l -47,50 -4114,0 -47,-50 c -496,-534 -770,-1229 -770,-1958 0,-1587 1287,-2874 2874,-2874 z"
       id="path3494"
       inkscape:connector-curvature="0"
       style="fill:#ffff00" /><path
       class="fil0"
       d="m 0,8283 c 1500,0 2717,1217 2717,2717 0,715 -277,1365 -728,1850 l -3978,0 c -451,-485 -728,-1135 -728,-1850 0,-1500 1217,-2717 2717,-2717 z"
       id="path3496"
       inkscape:connector-curvature="0"
       style="fill:#000000" /><circle
       class="fil5"
       cy="11000"
       r="3898"
       id="circle3498"
       cx="0"
       style="fill:none" /><g
       id="_888127600"><path
         class="fil0"
         d="m 3105,11676 292,214 c 6,5 12,10 16,17 5,8 7,18 7,28 0,6 -1,13 -2,20 -1,7 -3,14 -5,21 -2,7 -5,14 -7,21 -3,6 -6,13 -10,19 -5,8 -11,14 -20,19 l 0,0 -1,0 c -7,4 -15,6 -23,6 l -468,29 c -8,0 -16,0 -25,-2 -14,-3 -25,-12 -32,-25 l 0,-1 -1,-2 c -4,-10 -5,-21 -3,-32 2,-7 4,-15 6,-22 2,-7 4,-14 6,-20 3,-7 6,-13 10,-19 6,-8 14,-14 23,-17 5,-2 9,-3 15,-4 l 1,0 96,-5 40,-135 -76,-53 c -5,-4 -10,-8 -13,-14 -6,-7 -8,-15 -10,-22 -1,-8 -1,-16 1,-24 1,-7 3,-14 5,-21 2,-7 4,-14 7,-21 5,-11 12,-20 23,-26 8,-5 16,-7 25,-6 -10,-18 -17,-38 -22,-58 -7,-32 -5,-69 0,-101 l 16,-113 c 2,-15 9,-28 20,-38 14,-14 34,-18 54,-15 l 418,59 c 19,3 37,12 47,29 8,13 10,27 8,42 l -34,243 c -1,9 -5,18 -10,24 -6,8 -15,14 -24,17 -7,2 -14,3 -21,3 -6,0 -12,0 -18,-1 -6,-1 -11,-2 -17,-4 -7,-2 -14,-5 -20,-9 l -1,-1 c -6,-5 -12,-11 -15,-18 -5,-9 -6,-19 -5,-29 l 24,-165 -69,-10 -7,47 c -4,28 -11,57 -23,83 -10,22 -24,41 -43,57 -17,15 -38,26 -61,32 -23,6 -47,7 -70,4 -2,-1 -3,-1 -4,-1 z M 2920,9861 c 0,0 0,0 0,0 2,2 8,4 10,5 11,3 25,4 36,5 23,1 46,-1 69,-3 34,-3 69,-8 104,-13 48,-8 96,-18 144,-27 l 1,-1 c 15,-2 31,-3 46,3 16,7 27,21 33,38 l 63,201 c 5,16 4,33 -5,49 -8,14 -23,24 -39,29 l -418,132 c -10,3 -20,3 -30,0 l -1,0 -1,-1 c -8,-3 -15,-8 -21,-15 l -1,-1 c -3,-5 -7,-11 -9,-17 -3,-6 -5,-12 -7,-18 -2,-7 -4,-13 -5,-20 -1,-6 -2,-12 -2,-19 l 0,-1 c 1,-9 4,-17 9,-25 l 0,0 1,-1 c 6,-8 14,-14 24,-17 l 354,-112 -17,-56 c -39,7 -77,14 -116,20 -38,6 -77,11 -116,14 -29,2 -60,4 -89,1 -24,-2 -48,-7 -70,-17 -21,-9 -39,-22 -53,-40 -13,-17 -22,-37 -28,-57 -3,-8 -3,-17 -2,-25 l 0,-1 c 1,-6 4,-13 7,-18 -4,-4 -8,-8 -12,-12 -12,-11 -22,-23 -32,-36 -11,-16 -21,-33 -29,-50 -14,-31 -23,-64 -24,-98 -1,-32 6,-64 19,-94 14,-31 35,-57 61,-80 28,-26 62,-45 97,-61 36,-17 74,-29 114,-33 35,-4 70,-2 104,8 33,10 62,26 87,49 26,23 46,52 60,83 6,15 12,30 15,45 4,14 6,29 7,43 1,13 1,27 0,40 -1,10 -3,21 -6,30 -3,7 -6,13 -9,18 -3,5 -7,9 -12,13 -4,3 -8,6 -12,8 -4,3 -9,5 -14,7 -5,3 -11,5 -17,7 -6,1 -12,3 -18,3 -8,0 -17,-1 -24,-5 -11,-5 -19,-13 -23,-23 -6,-14 -5,-28 -2,-42 2,-7 3,-15 4,-23 1,-10 0,-21 -1,-31 -1,-12 -5,-25 -10,-36 -6,-13 -14,-24 -25,-33 -10,-9 -22,-14 -35,-17 -18,-4 -35,-4 -53,-1 -23,3 -46,11 -67,21 -21,9 -42,21 -60,36 -12,10 -24,23 -32,37 -6,12 -9,24 -9,37 0,15 4,30 11,44 5,11 11,23 20,32 7,7 14,15 22,21 7,5 14,10 21,14 12,7 23,15 29,29 4,7 5,16 4,25 -1,11 -6,20 -14,27 l 0,1 c -2,2 -4,3 -6,5 z m -526,-857 75,-19 c 14,-4 27,-6 40,-8 12,-2 24,-3 35,-2 1,-12 2,-23 5,-34 4,-18 12,-33 22,-48 11,-15 24,-28 39,-38 19,-14 41,-24 64,-30 23,-5 46,-6 70,0 24,5 47,17 67,31 26,20 48,48 67,74 l 57,80 c 9,12 13,26 12,41 -1,20 -12,36 -28,48 l -358,255 c -8,6 -18,9 -28,9 l -1,0 -1,0 c -9,0 -17,-3 -25,-8 l 0,-1 c -6,-3 -10,-8 -15,-12 -4,-5 -8,-10 -12,-16 -4,-5 -8,-11 -11,-17 -3,-5 -5,-11 -7,-17 l 0,-1 -1,-2 c -1,-7 -1,-15 0,-22 l 1,-1 0,-1 c 3,-11 9,-20 18,-26 l 129,-92 -5,-7 c -4,-6 -13,-18 -20,-22 -4,-3 -9,-5 -14,-6 -6,-1 -13,-1 -20,1 -11,1 -22,4 -33,7 l -114,30 -1,0 c -5,2 -10,2 -16,2 -10,1 -20,-2 -28,-8 -6,-3 -12,-8 -16,-13 -5,-5 -9,-11 -13,-16 -4,-6 -9,-13 -12,-19 -3,-6 -5,-11 -7,-17 l 0,0 c -7,-3 -14,-7 -20,-12 -6,-5 -11,-11 -16,-16 -5,-5 -10,-10 -14,-16 -5,-5 -9,-11 -11,-18 -4,-9 -6,-19 -4,-28 1,-5 3,-10 5,-15 l 0,-1 44,-85 -96,-103 -84,38 c -6,3 -12,4 -19,5 -8,1 -17,0 -24,-3 -7,-3 -14,-8 -20,-13 -5,-4 -10,-9 -15,-14 -6,-6 -11,-12 -15,-18 -7,-10 -11,-20 -11,-32 0,-1 0,-1 0,-1 -1,0 -1,0 -1,0 -10,3 -21,2 -31,-1 -5,-2 -10,-5 -15,-8 -6,-3 -12,-7 -17,-12 -6,-4 -11,-9 -16,-14 -4,-5 -8,-9 -11,-14 -5,-9 -8,-19 -7,-29 1,-10 4,-20 11,-27 l 107,-133 -106,-86 -107,133 c -7,7 -15,13 -24,16 -10,3 -21,2 -31,-1 -5,-2 -10,-5 -15,-8 -6,-3 -12,-8 -18,-12 -5,-5 -10,-9 -15,-14 -4,-5 -8,-9 -11,-15 -5,-8 -8,-18 -7,-29 1,-10 4,-19 11,-27 l 286,-353 c 7,-8 15,-13 24,-16 10,-3 21,-2 31,1 5,2 10,5 15,8 7,3 12,8 18,12 5,5 10,9 15,14 4,5 8,9 11,14 5,9 8,20 7,30 -1,10 -5,19 -11,26 l -95,117 106,86 95,-117 c 6,-7 14,-13 24,-15 10,-4 21,-3 31,1 5,2 10,4 15,7 6,4 12,8 18,13 5,4 10,9 15,14 4,4 8,8 11,13 5,9 8,19 7,30 -1,10 -4,19 -11,27 l -254,313 414,-179 c 7,-3 14,-5 22,-5 10,0 19,3 28,8 6,3 11,8 16,12 6,5 11,10 15,15 5,6 11,11 15,17 5,5 9,11 12,17 4,9 6,18 6,28 l 0,0 0,1 c -1,8 -3,16 -7,23 l -191,376 z M 953,8027 c 0,0 0,0 0,0 9,-2 19,-1 27,2 3,1 6,2 9,2 3,-1 8,-4 10,-5 10,-7 19,-17 27,-25 14,-17 28,-37 40,-56 19,-29 37,-59 54,-90 23,-43 46,-86 68,-130 l 0,-1 c 7,-14 17,-26 31,-34 16,-8 33,-9 50,-2 l 196,74 c 17,6 30,18 36,34 6,16 5,33 -1,49 l -156,410 c -3,10 -9,18 -18,24 l -1,0 -1,1 c -7,4 -16,6 -25,6 l -1,0 c -6,0 -13,-1 -19,-2 -6,-2 -13,-4 -19,-6 -6,-3 -12,-5 -18,-8 -6,-3 -11,-7 -16,-11 l -1,-1 c -6,-6 -11,-13 -14,-22 l 0,0 -1,-1 c -2,-10 -2,-20 2,-30 l 131,-347 -54,-21 c -18,35 -37,69 -56,103 -19,34 -39,67 -61,100 -16,24 -34,49 -55,70 -16,18 -35,34 -56,45 -20,10 -42,16 -64,16 -22,0 -43,-5 -63,-12 -7,-3 -14,-8 -20,-14 -5,0 -11,0 -16,-2 l -218,-65 c -14,-5 -26,-13 -34,-25 -12,-17 -13,-37 -8,-56 l 122,-405 c 6,-19 18,-35 37,-42 13,-5 28,-6 42,-2 l 215,65 c 9,3 17,8 23,14 7,8 11,17 12,27 l 0,1 0,1 c 1,5 1,11 0,16 0,6 -2,13 -4,19 -2,6 -4,12 -7,18 -2,5 -5,9 -9,14 l -1,1 -1,1 c -6,6 -13,11 -22,14 l -1,0 0,0 c -9,2 -18,2 -27,0 l -140,-42 -20,66 114,35 c 10,3 18,8 25,16 l 0,1 0,0 c 5,6 8,13 10,21 1,7 1,15 0,22 -1,6 -2,12 -4,18 -1,5 -3,11 -6,16 -3,7 -7,13 -13,18 -6,6 -14,11 -23,13 l 0,0 -1,0 c -8,2 -17,2 -25,-1 l -115,-34 -26,87 143,42 c 6,2 12,6 17,10 z M -89,7822 34,7492 c 2,-7 6,-14 12,-19 7,-8 15,-12 24,-15 7,-2 14,-3 21,-4 7,0 14,0 21,0 7,0 15,0 22,1 7,0 14,2 21,4 9,2 17,7 24,14 l 0,1 0,0 c 6,6 10,13 13,20 l 154,443 c 3,8 5,16 5,24 0,15 -5,28 -16,38 l -1,1 -1,1 c -8,7 -19,10 -30,11 -8,1 -15,1 -23,1 -7,0 -14,0 -21,-1 -7,0 -14,-2 -21,-4 -9,-4 -17,-9 -22,-17 -3,-4 -6,-9 -8,-13 l 0,-2 -31,-91 -141,-1 -31,87 c -2,6 -5,11 -9,17 -5,6 -12,11 -19,15 -7,3 -15,5 -23,6 -7,0 -14,0 -21,0 -8,0 -16,0 -23,-1 -12,-2 -23,-6 -31,-15 -9,-8 -14,-19 -15,-31 -1,1 -2,2 -4,3 -12,11 -25,20 -39,28 -15,7 -30,13 -46,17 -18,5 -36,8 -54,9 l -124,9 c -14,1 -29,-2 -41,-10 -17,-11 -25,-30 -27,-50 l -31,-421 c -2,-20 3,-40 19,-53 10,-10 24,-16 38,-17 l 108,-8 c 26,-2 55,-2 81,4 22,4 43,13 62,26 18,13 32,30 42,50 10,20 15,42 17,64 1,14 1,29 -2,43 -3,14 -7,27 -13,40 -2,4 -5,7 -7,11 9,6 17,12 24,20 13,13 23,28 30,45 8,16 12,32 14,50 z m -932,247 -93,-402 c -2,-11 -1,-21 3,-31 4,-8 10,-15 18,-20 l 1,-1 1,-1 c 5,-3 10,-5 16,-7 6,-3 12,-4 19,-6 6,-1 13,-2 19,-3 7,-1 13,-1 19,0 l 1,0 c 10,2 19,6 27,12 7,7 12,15 14,25 l 32,136 25,-6 c 30,-7 62,-12 92,-11 25,1 50,7 72,18 23,10 42,26 57,45 7,9 13,18 18,28 l -61,-264 c -3,-11 -2,-21 3,-31 4,-8 10,-15 18,-20 l 1,-1 1,-1 c 5,-3 10,-5 16,-7 6,-3 12,-4 18,-6 7,-1 13,-2 20,-3 6,-1 13,-1 19,0 l 1,0 c 10,1 19,5 26,12 8,7 13,15 15,25 l 102,444 c 3,10 2,20 -2,29 l 0,1 -1,1 c -4,8 -10,15 -17,20 l -1,0 c -5,4 -11,7 -17,9 -6,2 -13,4 -19,5 -7,2 -13,3 -20,4 -6,0 -12,0 -18,0 l -1,0 -1,0 c -9,-2 -17,-5 -24,-11 l -1,0 -1,-1 c -7,-7 -12,-15 -15,-25 l -20,-90 c 0,8 -1,15 -2,23 -3,24 -11,47 -24,68 -14,23 -34,41 -56,56 -29,20 -67,32 -101,39 l -96,23 c -7,1 -14,2 -20,1 -10,0 -18,-3 -26,-8 -1,0 -2,-1 -3,-1 l 40,89 c 4,8 6,17 5,26 -2,11 -7,20 -15,28 l -1,1 0,0 c -4,3 -8,6 -12,9 -5,3 -11,6 -17,9 -6,2 -11,5 -17,6 -5,2 -10,3 -15,3 l 0,0 -1,0 c -10,1 -20,-1 -29,-6 -8,-5 -15,-12 -19,-21 l -31,-69 -253,114 31,69 c 4,9 5,19 3,29 -1,9 -6,18 -13,25 l -1,1 -1,1 c -4,3 -8,5 -12,8 -5,3 -10,6 -16,9 -6,2 -12,5 -18,6 -4,2 -9,3 -14,3 l -1,1 -1,0 c -10,0 -20,-2 -28,-7 -9,-5 -15,-12 -19,-21 l -28,-62 -180,118 c -13,8 -27,12 -41,10 -21,-1 -37,-13 -48,-30 l -231,-354 c -10,-17 -15,-36 -8,-56 5,-13 13,-25 26,-33 l 188,-123 c 8,-5 17,-8 26,-8 10,0 20,3 28,8 l 1,1 1,0 c 4,4 8,7 12,11 4,4 8,10 12,15 3,6 6,11 9,17 2,5 3,10 4,16 l 1,1 0,2 c 1,8 0,17 -4,26 l 0,0 0,1 c -4,8 -10,15 -18,20 l -123,80 38,58 101,-65 c 8,-5 18,-8 28,-8 l 1,0 0,0 c 8,1 15,3 22,6 7,4 12,9 18,14 4,5 7,10 10,15 3,5 6,10 9,15 3,7 5,14 5,21 1,9 -1,18 -5,26 l 0,1 0,0 c -4,8 -10,14 -17,19 l -101,65 50,76 125,-81 c 7,-5 16,-8 25,-8 6,-12 15,-20 27,-25 l 7,-4 c 1,-3 1,-7 2,-10 1,-10 2,-20 2,-30 -1,-14 -2,-29 -4,-43 -4,-21 -8,-42 -13,-63 -7,-30 -16,-60 -24,-90 -13,-42 -26,-83 -39,-124 l 0,-1 0,-1 c -4,-14 -5,-28 -2,-41 5,-18 17,-31 33,-38 l 200,-90 c 15,-7 32,-8 48,-2 l 0,1 1,0 c 16,7 27,20 34,35 l 146,324 7,-3 c 16,-7 33,-7 48,1 4,3 8,6 12,10 z m -1338,862 c 0,-12 4,-23 12,-32 9,-9 19,-14 31,-17 6,-2 13,-4 19,-6 8,-3 15,-7 22,-12 10,-6 19,-14 26,-22 8,-8 15,-17 19,-27 4,-7 7,-15 7,-23 1,-6 0,-11 -2,-17 -2,-5 -5,-9 -9,-13 -5,-5 -11,-9 -18,-12 -5,-2 -11,-2 -17,-1 -8,1 -16,4 -23,9 -12,6 -22,15 -30,24 l -39,41 c -6,6 -13,11 -21,14 -9,3 -18,4 -27,2 l 0,0 c -8,-2 -15,-5 -22,-10 -5,-3 -9,-7 -14,-11 -4,-5 -8,-9 -12,-14 -4,-5 -8,-11 -10,-18 l -1,-2 0,-1 c -2,-9 -2,-19 0,-28 3,-8 7,-15 13,-21 l 36,-38 c 7,-8 14,-17 20,-27 3,-7 6,-14 7,-22 0,-6 0,-11 -2,-16 -2,-6 -7,-11 -11,-15 -4,-3 -8,-7 -13,-9 -3,-1 -6,-1 -9,-1 -5,0 -10,2 -14,5 -7,4 -14,10 -20,16 -7,8 -13,16 -18,25 -4,8 -9,16 -11,24 -3,7 -5,14 -7,22 -2,11 -7,22 -15,30 -6,7 -15,12 -25,14 -9,2 -18,0 -26,-3 -6,-2 -12,-6 -16,-10 -4,-3 -8,-6 -12,-10 -3,-2 -6,-5 -8,-8 -4,-4 -7,-8 -9,-12 -3,-5 -6,-9 -7,-13 -3,-7 -4,-13 -4,-20 l 0,-1 0,-1 c 0,-9 2,-19 5,-27 3,-12 8,-23 13,-34 6,-12 13,-24 21,-36 10,-14 20,-27 32,-39 17,-18 36,-35 57,-47 20,-10 41,-18 63,-20 22,-2 43,1 63,9 20,8 38,20 54,34 14,14 26,29 35,46 8,16 13,33 15,51 0,3 0,6 0,9 8,-1 15,-1 23,-1 19,0 37,4 54,11 19,8 36,18 50,32 19,17 34,38 43,61 10,23 14,48 12,73 -2,26 -10,51 -21,75 -13,26 -32,50 -52,71 -11,13 -24,24 -37,34 -11,8 -23,15 -35,21 -8,4 -17,8 -25,11 0,0 0,1 0,1 l 0,1 0,2 c 0,11 -4,21 -10,31 -3,6 -8,12 -13,18 -4,6 -8,11 -13,16 -5,6 -10,10 -16,14 -9,5 -18,8 -28,8 -5,0 -10,-1 -15,-2 l -1,-1 -91,-30 -87,111 50,77 c 4,5 7,11 8,17 2,9 2,17 1,25 -2,8 -5,15 -10,22 -3,6 -8,11 -12,17 -5,6 -9,12 -15,17 -8,9 -18,15 -30,16 -14,2 -28,-2 -39,-11 -6,-6 -12,-13 -16,-20 l -249,-396 c -4,-7 -7,-14 -9,-22 -1,-10 0,-19 4,-28 2,-7 5,-13 9,-19 4,-5 8,-11 13,-17 4,-5 9,-11 14,-17 5,-5 10,-10 16,-14 7,-5 16,-9 25,-10 l 1,0 1,0 c 8,-1 16,0 23,3 l 379,124 z m -532,1259 c 1,2 1,3 1,5 l 1,1 0,1 c 1,7 1,13 0,19 -1,7 -2,14 -4,20 -1,8 -3,15 -6,22 -2,7 -6,13 -10,19 l -1,1 c -5,7 -12,12 -21,16 -6,3 -12,4 -18,5 l -122,16 c -11,2 -23,5 -35,9 -7,2 -14,6 -20,11 -6,4 -10,9 -13,15 -3,5 -5,10 -6,15 l 163,37 c 9,2 18,7 25,14 7,8 11,17 12,28 1,5 1,11 0,17 0,7 -1,14 -3,21 -2,7 -3,14 -6,20 -2,6 -5,11 -8,16 -5,9 -13,16 -23,20 -9,4 -19,4 -28,2 l -445,-100 c -9,-2 -18,-7 -24,-15 -7,-7 -11,-17 -13,-27 0,-6 0,-12 0,-18 1,-7 2,-14 3,-20 2,-7 4,-14 6,-21 2,-5 5,-11 8,-15 6,-9 14,-16 24,-20 9,-4 18,-5 27,-2 l 151,33 c 0,-4 0,-9 0,-13 -1,-6 -2,-12 -5,-18 -3,-6 -8,-12 -13,-17 -9,-8 -18,-14 -28,-20 l -92,-58 c -5,-2 -9,-6 -13,-9 l -1,-1 c -6,-6 -11,-15 -14,-24 l 0,-1 0,-1 c -2,-7 -2,-14 -1,-22 0,-7 2,-14 3,-22 2,-6 4,-13 6,-19 2,-6 5,-12 8,-17 l 1,-1 0,-1 c 7,-9 16,-15 27,-18 8,-2 16,-2 24,0 6,1 12,3 18,6 4,3 8,5 12,8 l 1,0 88,58 c 13,9 26,18 38,29 11,9 21,19 29,31 2,1 3,3 4,5 3,-3 7,-5 11,-7 13,-8 27,-14 42,-18 16,-5 32,-8 48,-10 l 81,-13 -326,-272 c -6,-5 -11,-11 -15,-18 -4,-8 -6,-18 -6,-28 1,-7 2,-13 4,-20 2,-7 4,-14 7,-20 2,-7 5,-14 8,-21 3,-6 6,-12 10,-18 6,-8 13,-14 22,-18 l 0,0 1,0 c 7,-4 16,-5 23,-5 l 469,1 c 8,0 17,1 25,4 13,4 24,14 30,27 l 0,1 1,1 c 4,11 3,22 1,33 -2,7 -5,14 -7,21 -3,7 -5,14 -8,20 -3,7 -6,13 -11,18 -6,8 -14,13 -24,16 -5,1 -10,2 -15,3 l -1,0 -96,-1 -48,132 71,58 c 5,4 10,9 13,14 5,8 7,16 8,23 1,8 0,16 -2,24 -1,7 -4,14 -6,20 -3,7 -6,15 -9,21 -2,4 -5,8 -8,12 z m -202,738 -388,-29 c -19,-1 -38,-10 -49,-27 -8,-12 -12,-26 -11,-41 l 9,-107 c 2,-27 6,-55 15,-80 8,-21 20,-41 36,-57 15,-16 34,-27 55,-34 22,-7 44,-9 67,-7 14,1 28,4 41,8 14,5 26,11 38,19 3,3 7,6 10,9 7,-8 15,-15 23,-21 15,-11 32,-18 49,-23 19,-6 39,-7 59,-6 17,2 35,5 51,12 16,6 31,14 44,24 12,10 23,22 32,36 9,13 16,28 21,43 5,15 9,32 11,48 1,18 1,36 0,55 l -9,123 c -2,15 -7,28 -17,39 -5,5 -10,9 -15,12 1,1 3,2 4,3 l 1,1 1,1 c 8,8 12,19 14,29 2,8 2,15 3,23 1,7 1,14 1,21 0,7 -1,14 -3,21 -2,9 -7,18 -15,24 -3,4 -8,6 -12,9 l -2,1 -87,38 10,141 89,23 c 7,2 13,4 18,7 7,5 13,12 17,18 4,7 6,15 8,23 1,7 2,14 2,21 1,7 1,15 1,22 -1,12 -4,24 -12,33 -9,11 -22,17 -36,17 -9,1 -17,-1 -25,-3 l -451,-125 c -8,-2 -15,-6 -21,-11 -8,-6 -14,-14 -17,-23 -3,-6 -4,-13 -5,-20 -1,-7 -2,-14 -2,-21 -1,-7 -2,-15 -2,-22 0,-7 1,-14 3,-21 1,-9 6,-18 12,-25 l 0,-1 1,0 c 5,-6 12,-11 19,-14 l 414,-186 z m -253,822 c 1,0 2,0 3,-1 6,-1 13,-1 18,0 8,1 17,3 24,8 9,6 16,15 19,26 4,14 1,28 -4,41 -2,8 -5,15 -7,23 -2,10 -3,20 -4,30 0,13 3,26 6,38 4,13 10,26 20,36 9,10 20,17 33,22 16,6 34,8 51,8 24,0 48,-5 70,-12 22,-6 44,-15 64,-27 14,-9 27,-19 37,-33 7,-10 12,-22 14,-35 2,-15 0,-30 -4,-45 -4,-11 -9,-24 -16,-34 -6,-8 -12,-17 -19,-24 -6,-6 -13,-12 -19,-17 -11,-8 -21,-18 -25,-32 -2,-8 -3,-17 0,-26 2,-10 9,-19 17,-25 l 1,-1 c 5,-3 10,-6 16,-8 5,-3 11,-4 17,-6 4,-1 9,-2 13,-3 5,-1 10,-2 15,-2 5,0 11,0 16,2 l 1,0 0,0 c 6,1 11,4 16,7 8,4 15,10 22,16 10,9 19,19 27,29 10,13 19,26 27,41 9,17 16,35 22,53 9,33 13,67 10,100 -4,33 -14,63 -32,91 -18,28 -43,52 -71,71 -32,21 -68,36 -104,47 -39,11 -78,18 -118,17 -35,-2 -70,-8 -102,-23 -31,-14 -58,-34 -80,-60 -22,-26 -38,-57 -47,-91 -5,-15 -8,-31 -9,-47 -2,-14 -2,-28 -1,-43 0,-13 2,-26 5,-39 3,-10 6,-21 11,-29 3,-6 6,-11 10,-16 -4,1 -7,1 -11,1 -6,0 -12,-1 -17,-2 l -1,-1 c -10,-2 -19,-8 -26,-16 -6,-7 -9,-15 -11,-23 l -53,-325 c -1,-9 0,-18 3,-26 3,-9 10,-17 17,-22 6,-5 13,-8 20,-10 6,-2 12,-3 17,-4 6,-1 12,-2 18,-2 8,0 15,1 22,3 l 1,1 c 8,3 16,8 22,15 5,7 9,15 10,23 l 16,93 367,-60 c 9,-1 19,0 27,4 10,4 18,12 23,21 3,5 5,11 7,16 2,7 3,14 4,21 2,7 2,14 3,21 0,6 -1,12 -2,17 -2,11 -6,20 -14,28 -7,6 -16,10 -26,12 l -367,60 15,92 c 2,9 1,18 -2,26 -2,4 -3,7 -5,10 z m 604,-2339 114,64 c 9,6 16,14 20,24 4,8 5,17 3,26 l 0,1 c -1,6 -2,12 -5,17 -2,7 -5,13 -9,19 -3,6 -7,12 -12,18 -3,5 -7,9 -11,13 -8,7 -18,11 -28,12 -10,1 -20,-2 -28,-6 l -381,-217 c -17,-9 -30,-24 -33,-45 -3,-15 0,-30 7,-43 l 50,-88 c 6,-10 12,-19 18,-29 7,-10 16,-20 24,-30 13,-13 27,-24 43,-33 17,-10 35,-17 54,-21 20,-3 40,-3 59,1 21,4 40,12 58,22 24,14 45,31 62,52 16,21 27,43 33,69 6,25 6,52 1,78 -5,29 -17,57 -32,83 l -7,13 z m 807,-1079 c 10,0 20,1 31,3 18,4 34,11 50,21 17,10 31,24 43,39 11,14 20,29 27,46 6,16 9,32 11,48 1,17 -1,33 -5,48 -4,16 -10,31 -18,45 -8,14 -17,28 -28,40 -12,14 -26,26 -40,37 l -98,77 c -11,9 -25,13 -40,13 -20,1 -37,-10 -50,-26 l -260,-333 c -12,-16 -19,-35 -13,-55 3,-14 11,-26 23,-35 l 85,-66 c 21,-17 44,-33 69,-43 21,-8 44,-12 66,-12 23,1 44,7 63,18 20,12 36,27 50,45 9,11 16,23 22,36 5,13 9,27 11,41 0,4 1,8 1,13 z M 684,7642 c -8,4 -17,5 -26,3 l -92,-13 -53,369 c -1,9 -5,18 -11,25 -7,8 -17,13 -27,15 -6,1 -12,2 -18,2 -7,0 -14,-1 -21,-2 -7,-1 -14,-2 -20,-4 -6,-2 -12,-4 -17,-7 -9,-5 -17,-12 -22,-22 -4,-8 -5,-18 -4,-27 l 52,-369 -93,-13 c -8,-1 -16,-4 -23,-10 -8,-6 -13,-14 -17,-23 l 0,-2 0,-1 c -2,-6 -2,-11 -3,-17 0,-6 1,-13 1,-19 1,-6 3,-13 5,-19 1,-5 4,-11 7,-15 l 0,-1 c 6,-9 14,-16 23,-20 8,-3 17,-5 26,-3 l 326,46 c 9,1 17,5 24,10 8,6 13,14 16,23 2,7 3,14 3,22 0,6 0,12 -1,18 -1,6 -2,11 -4,17 -2,7 -5,14 -9,20 l -1,1 c -5,7 -12,13 -21,16 z m 933,222 c 9,-4 18,-4 27,-3 l 2,0 1,0 c 5,1 11,3 17,5 6,3 11,6 17,9 6,3 12,7 17,11 5,4 10,8 14,13 l 1,1 c 6,7 10,16 11,26 1,10 -2,20 -6,28 l -69,120 28,16 c 27,15 55,34 76,55 18,18 32,39 42,62 9,24 12,48 10,73 -2,26 -11,52 -24,75 -12,20 -26,38 -43,53 -19,16 -40,28 -64,34 -26,8 -54,8 -80,4 -35,-5 -72,-23 -102,-40 l -91,-52 c -6,-3 -12,-7 -16,-12 -6,-7 -11,-14 -14,-22 l 0,-2 0,-1 c -2,-7 -3,-15 -3,-22 1,-10 4,-20 9,-29 l 217,-382 c 6,-9 14,-16 23,-20 z m 1323,2468 c 4,-6 9,-12 14,-16 4,-3 9,-6 14,-9 6,-2 11,-3 16,-5 5,-1 10,-2 16,-3 12,-2 24,-2 36,1 19,5 33,19 37,39 1,9 0,18 -3,26 l 0,1 c -1,3 -2,5 -3,8 l -1,1 c 0,1 0,3 -1,5 l 0,1 c 0,2 1,5 1,7 0,2 1,4 1,6 3,2 8,5 12,6 4,2 8,3 12,4 l 291,-210 1,0 c 7,-5 14,-9 22,-11 16,-5 32,-1 44,9 9,7 14,17 18,28 2,8 3,15 5,23 1,7 2,14 2,22 0,7 0,14 -2,21 -2,9 -6,17 -11,24 -4,5 -9,9 -14,12 l -157,111 c -8,5 -16,11 -24,17 11,2 21,4 32,7 l 177,38 c 7,1 13,3 19,7 8,5 14,12 18,19 3,6 6,13 8,20 1,7 2,14 3,20 2,8 3,16 3,24 0,10 -2,20 -7,29 -7,13 -19,21 -33,24 -9,1 -17,0 -25,-2 l -342,-79 c -26,-6 -53,-13 -78,-22 -20,-7 -39,-16 -56,-28 -16,-12 -29,-26 -38,-44 -8,-16 -13,-33 -16,-51 -1,-7 -1,-14 -2,-22 0,-7 0,-14 1,-20 1,-7 2,-13 3,-19 l 1,-1 0,-1 c 2,-6 3,-11 6,-17 z m 268,699 -167,2 c -10,0 -19,-3 -27,-9 -9,-5 -15,-13 -18,-22 l -1,-1 c -2,-5 -3,-11 -4,-17 -1,-7 -1,-14 -2,-21 0,-7 1,-14 2,-21 0,-6 2,-12 4,-17 l 0,-1 c 4,-10 10,-19 19,-24 8,-5 17,-7 26,-8 l 167,-1 c -1,-4 -2,-8 -3,-12 -2,-7 -5,-13 -10,-18 -4,-6 -10,-10 -16,-13 -9,-5 -19,-9 -28,-12 l -121,-38 -1,0 c -4,-2 -9,-4 -13,-6 l -1,-1 -1,0 c -7,-5 -13,-12 -17,-20 l -1,-1 0,-1 c -3,-7 -5,-14 -6,-21 -2,-7 -2,-15 -2,-22 0,-7 0,-14 1,-21 1,-6 2,-12 4,-18 l 0,-1 c 4,-10 10,-18 19,-24 8,-5 17,-8 27,-8 2,0 4,0 6,0 4,1 7,1 10,2 2,0 5,1 8,2 3,1 6,2 9,3 l 107,35 c 17,6 33,12 49,20 13,7 26,15 38,25 4,3 7,7 10,10 1,-1 2,-2 3,-3 11,-9 24,-17 37,-23 15,-8 30,-14 46,-19 l 98,-35 c 5,-1 10,-3 14,-4 7,-2 13,-3 19,-3 9,0 18,2 26,7 9,5 15,13 20,22 l 0,1 1,1 c 2,6 3,12 4,18 1,7 1,14 1,20 0,8 0,16 -1,23 -1,7 -2,14 -5,21 l -1,1 0,1 c -5,9 -13,17 -22,22 l -1,0 c -3,2 -5,3 -8,4 l -2,1 -113,36 c -10,3 -19,7 -28,11 -5,3 -9,7 -13,11 -3,4 -5,9 -6,14 -1,4 -2,7 -3,11 l 154,-1 c 9,0 17,2 25,6 10,6 16,14 20,24 l 1,1 c 2,6 3,11 4,17 1,7 2,14 2,21 0,7 0,14 -1,21 -1,6 -2,12 -4,17 l -1,1 c -3,10 -9,18 -18,24 -8,5 -17,8 -26,8 l -154,2 c 1,3 1,6 2,9 2,5 5,11 9,15 4,5 9,9 14,12 8,4 17,7 26,10 l 112,33 c 5,2 10,4 14,6 9,5 16,12 20,21 l 1,1 c 3,6 5,14 7,21 1,8 1,15 1,23 0,6 0,13 -1,20 -1,6 -2,12 -4,18 l 0,1 -1,1 c -4,10 -12,19 -22,24 -7,4 -14,6 -22,6 -7,0 -14,-1 -21,-3 -3,-1 -6,-2 -9,-2 l -2,-1 -99,-32 c -14,-5 -29,-11 -43,-17 -13,-6 -26,-14 -36,-23 -3,-1 -5,-3 -7,-5 -4,4 -8,8 -12,12 -12,10 -25,19 -39,26 -15,8 -31,14 -47,20 l -106,37 c -3,1 -6,2 -8,3 -4,1 -7,2 -10,3 -2,0 -3,1 -5,1 -4,1 -7,1 -11,1 -11,0 -21,-3 -30,-9 -7,-6 -12,-13 -16,-21 l 0,-1 c -2,-6 -4,-13 -5,-19 -1,-7 -1,-14 -1,-21 0,-7 0,-15 1,-22 1,-7 3,-14 6,-21 l 0,-1 c 4,-9 11,-17 20,-22 4,-3 8,-5 13,-6 l 0,-1 120,-40 c 10,-4 21,-8 30,-14 6,-4 12,-9 16,-14 4,-5 6,-11 8,-17 1,-4 2,-7 2,-11 z m -6525,151 79,21 -4,-54 -75,33 z m -88,-419 75,5 2,-32 c 0,-7 1,-18 -1,-24 -2,-5 -4,-9 -7,-12 -3,-3 -6,-5 -10,-7 -6,-2 -12,-4 -18,-4 -6,0 -13,0 -19,1 -3,1 -6,2 -8,4 -3,3 -5,8 -7,11 -3,9 -5,22 -5,32 l -2,26 z m 203,15 88,7 4,-52 c 1,-9 1,-18 -1,-26 -1,-6 -4,-11 -7,-16 -3,-4 -6,-7 -11,-9 -5,-3 -11,-5 -18,-5 -7,-1 -15,0 -22,2 -5,2 -9,4 -13,8 -5,5 -8,11 -10,17 -5,12 -6,26 -7,38 l -3,36 z m 73,-896 64,52 19,-51 -83,-1 z m 176,-591 97,55 9,-15 c 5,-9 11,-21 12,-31 1,-7 1,-15 -1,-21 -2,-7 -5,-13 -9,-18 -6,-7 -13,-12 -21,-16 -8,-5 -19,-10 -28,-10 -6,0 -13,1 -19,4 -6,3 -11,7 -15,13 -6,7 -11,14 -16,22 l -9,17 z m 310,-306 45,69 33,-43 -78,-26 z m 483,-631 46,59 25,-20 c 6,-4 14,-11 17,-17 3,-5 4,-9 5,-13 0,-4 -1,-9 -2,-13 -2,-5 -5,-11 -9,-15 -4,-5 -9,-10 -14,-13 -2,-2 -5,-3 -8,-4 -4,0 -9,1 -13,3 -9,3 -19,11 -27,17 l -20,16 z m 125,160 55,70 41,-32 c 7,-5 13,-11 18,-18 4,-5 6,-10 7,-16 1,-5 1,-10 0,-14 -1,-6 -5,-12 -9,-17 -4,-6 -10,-11 -16,-15 -5,-3 -10,-4 -15,-4 -7,0 -13,1 -20,4 -11,4 -23,13 -32,20 l -29,22 z m 699,-657 -60,27 c 9,27 17,55 25,82 8,29 16,59 23,88 5,22 10,44 13,67 2,16 4,33 5,49 l 113,-50 -119,-263 z m 421,41 23,101 25,-6 c 12,-3 35,-8 46,-16 5,-4 11,-9 14,-15 3,-5 4,-10 4,-16 1,-6 1,-13 -1,-19 -2,-8 -4,-17 -9,-23 -3,-5 -7,-9 -12,-11 -7,-4 -14,-5 -21,-6 -15,-1 -35,3 -49,6 l -20,5 z m 559,-297 5,74 33,-2 c 7,-1 17,-2 23,-5 5,-2 8,-5 11,-8 3,-4 4,-8 5,-12 2,-6 2,-12 2,-18 -1,-6 -2,-12 -4,-18 -2,-3 -3,-5 -6,-7 -3,-3 -8,-5 -12,-5 -9,-3 -22,-2 -32,-1 l -25,2 z m 15,203 7,88 52,-4 c 8,0 17,-2 25,-5 6,-2 11,-5 15,-9 3,-3 6,-7 7,-12 3,-6 3,-12 2,-19 0,-7 -2,-15 -5,-21 -2,-5 -5,-9 -10,-12 -5,-4 -12,-6 -19,-8 -11,-2 -26,-2 -38,-1 l -36,3 z m 449,-126 -28,77 54,1 -26,-78 z m 1477,510 -52,91 27,15 c 12,6 33,18 46,19 6,1 15,1 21,-1 5,-2 10,-4 14,-8 4,-5 9,-10 12,-16 4,-7 8,-15 9,-24 1,-5 1,-11 -1,-16 -3,-7 -7,-13 -12,-18 -10,-11 -29,-22 -41,-29 l -23,-13 z m 810,506 -75,34 37,39 38,-73 z m 388,328 -12,-17 c -7,-10 -19,-26 -29,-34 -5,-4 -11,-7 -17,-9 -4,0 -8,0 -12,1 -6,2 -11,4 -17,8 -5,4 -9,8 -13,13 -2,4 -4,9 -5,14 0,6 1,13 3,19 3,11 13,26 20,36 l 13,18 69,-49 z m 402,2414 -92,-13 -5,41 c -2,11 -3,25 -1,36 1,6 2,12 6,17 3,4 7,7 11,10 6,4 14,5 20,6 7,1 15,2 22,0 5,-1 9,-4 13,-7 5,-4 8,-9 11,-15 5,-10 8,-25 9,-36 l 6,-39 z m 13,475 -67,-48 -15,52 82,-4 z"
         id="path3501"
         inkscape:connector-curvature="0"
         style="fill:#000000" /></g><path
       class="fil6"
       d="m -3025,11695 c 4,-1 7,-2 10,-3 3,0 5,0 8,0 2,0 4,0 6,0 2,1 4,2 7,3 3,2 8,6 15,12 7,6 15,14 23,23 8,10 15,22 23,35 7,14 13,29 19,46 8,29 11,57 9,84 -3,27 -11,51 -26,74 -14,22 -34,42 -59,60 -25,17 -57,31 -93,42 -38,11 -73,17 -105,16 -33,-1 -62,-7 -87,-19 -26,-11 -48,-27 -66,-49 -18,-21 -31,-46 -40,-76 -4,-13 -7,-26 -8,-39 -1,-13 -2,-26 -1,-37 0,-12 2,-23 4,-32 3,-10 5,-17 7,-21 3,-4 5,-7 6,-8 1,-2 3,-3 5,-4 2,-1 5,-3 8,-4 2,-1 6,-3 10,-4 5,-1 9,-2 12,-3 4,0 7,0 9,0 3,0 5,1 6,2 1,1 2,2 3,4 1,3 0,9 -3,16 -2,7 -5,16 -8,27 -3,11 -4,23 -5,38 -1,15 2,31 7,50 6,20 16,37 29,51 13,14 29,24 48,31 19,7 41,11 66,11 24,-1 51,-5 80,-14 29,-9 53,-19 73,-32 20,-13 36,-27 48,-43 11,-16 18,-34 21,-53 2,-19 0,-39 -6,-61 -6,-18 -12,-33 -21,-45 -8,-12 -17,-22 -25,-30 -8,-7 -16,-14 -22,-18 -6,-5 -10,-9 -11,-13 0,-1 -1,-3 0,-4 0,-2 1,-3 3,-4 2,-2 4,-3 8,-4 3,-2 8,-3 13,-5 z"
       id="path3503"
       inkscape:connector-curvature="0"
       style="fill:#ffffff;fill-rule:nonzero" /><path
       id="path3505"
       class="fil6"
       d="m -3459,11390 c 5,-1 9,-2 12,-2 4,0 6,1 9,1 2,1 4,2 5,4 1,1 2,3 2,4 l 22,132 405,-67 c 2,-1 4,-1 5,0 2,1 3,2 5,5 1,2 2,5 4,9 1,4 2,9 3,15 1,5 1,10 2,15 0,4 -1,7 -1,10 -1,2 -1,4 -3,5 -1,1 -2,2 -4,3 l -406,67 22,132 c 1,1 0,3 0,5 -1,2 -2,3 -4,5 -2,1 -5,2 -8,3 -3,1 -7,2 -12,3 -4,1 -8,1 -12,1 -4,0 -7,0 -9,-1 -2,0 -4,-1 -5,-3 -1,-1 -2,-3 -3,-5 l -54,-325 c 0,-2 0,-3 1,-5 1,-2 2,-3 4,-5 2,-1 5,-3 8,-4 3,-1 7,-2 12,-2 z"
       inkscape:connector-curvature="0"
       style="fill:#ffffff;fill-rule:nonzero" /><path
       id="path3507"
       class="fil6"
       d="m -3066,10959 c 5,-3 9,-4 13,-5 3,0 6,1 7,3 2,1 4,5 4,9 1,5 2,11 3,18 0,8 1,14 1,18 0,5 -1,8 -1,11 -1,2 -2,4 -3,5 -2,1 -4,2 -6,3 l -111,50 15,197 117,29 c 2,1 4,1 6,3 2,1 3,2 4,5 2,2 3,5 4,9 1,4 1,10 2,17 0,7 0,13 0,17 0,5 -1,8 -2,10 -2,2 -4,3 -8,3 -3,0 -7,-1 -13,-2 l -451,-123 c -3,-1 -5,-2 -7,-3 -2,-2 -4,-4 -5,-7 -1,-3 -2,-7 -3,-11 -1,-5 -1,-11 -2,-18 0,-8 -1,-15 -1,-20 0,-5 0,-9 1,-12 1,-3 2,-6 4,-8 1,-2 4,-3 6,-4 l 426,-194 z m -371,234 0,1 242,62 -13,-164 -229,101 z"
       inkscape:connector-curvature="0"
       style="fill:#ffffff;fill-rule:nonzero" /><path
       id="path3509"
       class="fil6"
       d="m -3140,10572 c 15,1 29,4 41,9 12,4 23,11 32,18 10,8 18,17 25,27 6,10 12,22 16,34 4,13 7,26 8,40 2,14 2,29 0,47 l -10,123 c -1,6 -3,11 -7,16 -4,4 -11,6 -21,6 l -420,-35 c -10,-1 -16,-4 -20,-9 -3,-6 -4,-11 -4,-17 l 9,-107 c 2,-28 7,-51 14,-68 7,-18 16,-32 27,-43 11,-12 24,-20 40,-25 15,-4 32,-6 51,-5 11,1 21,4 31,7 10,4 19,8 28,14 8,6 15,14 21,22 6,8 11,18 15,29 3,-13 9,-25 16,-36 7,-10 16,-19 27,-27 11,-7 23,-13 37,-17 13,-4 28,-5 44,-3 z m -218,77 c -12,-1 -22,-1 -32,2 -9,2 -18,6 -25,13 -7,6 -12,14 -17,25 -4,11 -7,25 -8,43 l -6,65 153,13 6,-72 c 1,-16 0,-29 -3,-40 -4,-10 -9,-19 -15,-26 -7,-7 -15,-13 -24,-16 -9,-4 -19,-7 -29,-7 z m 217,-11 c -15,-1 -27,0 -38,4 -11,3 -21,9 -29,17 -8,8 -14,18 -19,31 -5,13 -8,29 -10,49 l -6,75 166,13 8,-91 c 1,-14 0,-27 -2,-38 -3,-11 -7,-20 -13,-29 -6,-9 -14,-16 -23,-21 -10,-6 -21,-9 -34,-10 z"
       inkscape:connector-curvature="0"
       style="fill:#ffffff;fill-rule:nonzero" /><path
       id="path3511"
       class="fil6"
       d="m -2937,10194 c 2,0 4,1 5,2 1,2 2,4 2,6 1,3 1,6 0,10 0,4 -1,9 -2,15 -2,7 -3,13 -5,17 -1,4 -3,7 -5,9 -1,2 -3,4 -5,5 -2,1 -5,1 -8,1 l -122,18 c -17,2 -31,6 -43,10 -13,5 -23,10 -32,18 -9,7 -17,16 -22,27 -6,11 -11,23 -14,38 l -6,25 203,45 c 1,1 3,1 4,3 1,1 2,3 3,5 0,3 0,6 0,10 -1,4 -2,9 -3,15 -1,6 -2,11 -4,15 -1,4 -3,7 -4,9 -2,2 -3,4 -5,4 -1,1 -3,1 -5,1 l -444,-99 c -2,0 -3,-1 -5,-2 -1,-2 -2,-4 -2,-6 0,-3 0,-6 0,-10 0,-4 1,-9 2,-15 2,-6 3,-11 5,-15 1,-4 2,-7 4,-9 1,-2 3,-3 4,-4 2,-1 4,-1 5,0 l 189,42 6,-26 c 3,-15 4,-27 3,-39 -1,-11 -4,-22 -9,-32 -5,-9 -12,-19 -21,-27 -10,-9 -21,-18 -34,-26 l -94,-57 c -2,-1 -4,-3 -5,-4 -2,-2 -3,-4 -4,-7 0,-2 -1,-6 0,-10 0,-5 1,-10 3,-17 1,-6 2,-11 4,-15 1,-3 2,-6 4,-8 1,-2 3,-4 4,-4 2,0 4,0 6,0 2,1 5,2 8,3 3,2 7,4 10,6 l 89,58 c 13,9 24,17 33,25 10,8 17,16 23,24 6,9 11,17 14,26 3,9 5,19 6,29 l 1,1 c 6,-11 13,-20 20,-27 8,-8 16,-14 25,-20 10,-6 21,-10 33,-14 13,-4 28,-7 44,-9 l 120,-20 c 7,-1 11,-1 14,-1 3,0 5,0 7,1 z"
       inkscape:connector-curvature="0"
       style="fill:#ffffff;fill-rule:nonzero" /><path
       id="path3513"
       class="fil6"
       d="m -2806,9783 c 6,0 10,0 13,1 4,1 6,3 7,5 0,3 0,6 -1,10 -1,5 -3,11 -5,18 -3,7 -5,12 -7,17 -2,4 -4,7 -5,9 -2,1 -3,3 -5,3 -2,1 -4,1 -6,1 l -123,-1 -67,185 94,76 c 2,1 3,3 4,4 1,2 2,4 2,7 0,2 0,6 -1,10 -1,4 -3,9 -5,16 -3,6 -5,12 -7,16 -2,4 -4,6 -6,8 -3,1 -5,1 -8,-1 -3,-1 -7,-3 -12,-7 l -359,-300 c -2,-2 -4,-4 -5,-6 -1,-2 -1,-5 -1,-8 0,-3 1,-7 2,-11 1,-5 3,-11 5,-18 3,-7 6,-13 8,-18 2,-4 4,-8 6,-11 2,-2 4,-4 6,-5 3,-1 5,-2 8,-2 l 468,2 z m -435,58 0,1 194,157 56,-155 -250,-3 z"
       inkscape:connector-curvature="0"
       style="fill:#ffffff;fill-rule:nonzero" /><path
       id="path3515"
       class="fil6"
       d="m -2820,9151 c 20,12 37,26 50,42 12,16 21,34 26,53 4,19 5,40 1,62 -4,22 -13,45 -28,71 l -26,47 149,83 c 1,1 3,3 3,4 1,2 1,4 1,7 -1,2 -2,5 -3,9 -1,4 -4,8 -7,14 -3,5 -5,9 -8,12 -2,4 -5,6 -7,8 -1,1 -3,2 -5,2 -2,1 -4,0 -5,-1 l -381,-214 c -9,-4 -14,-10 -15,-17 -1,-6 0,-12 3,-18 l 50,-88 c 5,-9 10,-17 16,-25 5,-8 12,-17 21,-26 8,-10 19,-19 33,-27 13,-8 26,-13 41,-15 14,-3 29,-3 44,0 16,3 31,9 47,17 z m -28,61 c -17,-10 -33,-15 -48,-15 -15,0 -27,3 -38,9 -11,7 -20,14 -27,23 -7,9 -13,19 -18,28 l -29,51 166,93 28,-50 c 9,-16 15,-31 17,-45 1,-13 1,-26 -3,-37 -3,-12 -9,-23 -17,-32 -9,-10 -19,-19 -31,-25 z"
       inkscape:connector-curvature="0"
       style="fill:#ffffff;fill-rule:nonzero" /><path
       id="7"
       class="fil6"
       d="m -2305,8991 c 6,2 10,3 12,5 3,2 4,5 5,7 0,3 -1,6 -4,10 -2,4 -6,8 -10,14 -5,6 -9,11 -12,14 -3,4 -6,6 -8,7 -2,2 -4,2 -6,2 -2,0 -4,0 -6,-1 l -116,-39 -121,155 65,101 c 2,2 3,4 3,5 1,2 1,5 0,7 -1,3 -2,6 -4,9 -2,4 -6,9 -10,14 -4,5 -8,10 -11,13 -4,3 -6,5 -9,5 -2,1 -5,0 -7,-2 -3,-2 -6,-6 -9,-11 l -248,-396 c -1,-2 -2,-5 -2,-7 -1,-2 0,-5 1,-8 1,-3 3,-7 5,-11 3,-4 7,-8 11,-14 5,-6 9,-11 12,-15 4,-4 7,-7 10,-9 2,-1 5,-3 8,-3 2,0 5,0 7,1 l 444,147 z m -431,-80 0,1 135,210 102,-130 -237,-81 z"
       inkscape:connector-curvature="0"
       style="fill:#ffffff;fill-rule:nonzero" /><path
       id="8"
       class="fil6"
       d="m -2159,8682 c 15,14 26,30 33,48 7,17 10,35 9,55 -2,19 -8,39 -18,60 -10,20 -25,41 -45,61 -11,12 -22,21 -32,29 -11,7 -20,13 -29,18 -9,4 -16,7 -22,9 -6,1 -10,2 -13,3 -2,0 -5,0 -7,-1 -2,0 -4,-1 -7,-3 -2,-1 -5,-3 -8,-6 -3,-2 -7,-5 -11,-9 -6,-5 -9,-10 -10,-12 -1,-3 0,-6 2,-8 2,-2 6,-4 12,-6 6,-1 13,-4 22,-7 9,-3 19,-8 30,-15 10,-7 22,-16 33,-29 11,-11 20,-23 26,-36 7,-12 10,-24 12,-36 1,-12 -1,-23 -4,-34 -4,-11 -11,-21 -20,-29 -9,-9 -20,-16 -31,-20 -11,-4 -23,-5 -36,-4 -12,2 -25,6 -38,14 -13,7 -26,18 -39,31 l -38,41 c -2,2 -4,3 -6,4 -2,0 -4,0 -6,0 -2,-1 -5,-2 -7,-4 -3,-2 -6,-4 -10,-8 -3,-3 -6,-6 -8,-8 -2,-3 -3,-5 -4,-7 0,-3 0,-5 0,-7 1,-2 2,-4 4,-6 l 36,-37 c 11,-12 20,-24 26,-36 7,-12 11,-24 12,-36 1,-12 0,-23 -4,-34 -4,-11 -11,-21 -21,-30 -7,-7 -16,-13 -25,-16 -9,-4 -18,-5 -27,-5 -10,1 -20,4 -29,10 -10,5 -20,13 -30,23 -11,12 -19,23 -25,34 -6,11 -11,21 -14,30 -3,10 -5,18 -7,24 -2,7 -4,12 -6,14 -1,1 -2,2 -3,2 -1,0 -3,0 -5,-1 -2,-1 -4,-2 -6,-4 -3,-2 -6,-5 -9,-8 -2,-2 -4,-4 -6,-7 -3,-2 -4,-4 -6,-6 -1,-2 -2,-5 -3,-7 -1,-2 -1,-4 -1,-7 0,-3 1,-8 3,-16 3,-8 6,-17 11,-27 5,-10 11,-21 19,-32 8,-11 17,-23 28,-34 16,-17 32,-30 48,-39 16,-8 32,-14 48,-15 15,-2 30,1 45,6 14,6 27,15 40,27 12,11 21,23 27,35 6,12 9,25 10,37 2,13 1,25 -3,37 -3,12 -8,23 -15,34 l 1,0 c 11,-9 24,-16 37,-21 14,-4 27,-7 41,-6 14,0 28,3 41,9 14,5 26,13 38,24 z"
       inkscape:connector-curvature="0"
       style="fill:#ffffff;fill-rule:nonzero" /><path
       id="9"
       class="fil6"
       d="m -1842,8420 c 9,11 16,23 21,36 4,12 7,24 8,36 1,12 0,24 -3,36 -3,12 -8,24 -14,35 -7,12 -15,23 -24,33 -9,11 -21,21 -35,32 l -97,77 c -5,3 -10,5 -16,5 -7,0 -13,-4 -18,-11 l -261,-333 c -6,-8 -8,-14 -6,-20 1,-6 5,-11 9,-15 l 85,-66 c 22,-18 42,-30 60,-37 17,-6 34,-10 50,-9 15,1 30,5 44,13 14,8 27,19 39,34 7,9 12,18 16,28 5,10 7,20 8,30 2,10 1,20 -1,30 -2,10 -6,21 -11,30 12,-6 24,-10 37,-11 13,-2 25,-2 38,1 13,3 26,8 38,15 12,8 23,18 33,31 z m -206,-109 c -7,-9 -14,-16 -22,-22 -9,-5 -17,-8 -27,-9 -9,-1 -19,1 -30,5 -11,4 -23,11 -38,23 l -51,40 95,121 56,-45 c 13,-10 22,-19 27,-29 6,-10 9,-19 9,-29 1,-10 0,-19 -4,-29 -3,-9 -8,-18 -15,-26 z m 156,152 c -9,-11 -18,-19 -29,-25 -10,-6 -21,-9 -32,-9 -11,-1 -23,2 -36,7 -12,5 -27,14 -42,26 l -60,46 103,132 72,-57 c 12,-9 21,-18 27,-27 6,-9 11,-19 13,-29 2,-11 2,-21 0,-32 -3,-11 -8,-21 -16,-32 z"
       inkscape:connector-curvature="0"
       style="fill:#ffffff;fill-rule:nonzero" /><path
       id="10"
       class="fil6"
       d="m -1486,8319 c 3,4 5,7 6,10 2,3 2,6 3,8 0,3 -1,5 -1,7 -1,1 -2,3 -4,4 l -190,124 c -5,3 -10,5 -17,4 -6,0 -12,-5 -17,-13 l -231,-353 c -5,-8 -7,-15 -5,-21 2,-5 6,-10 10,-13 l 188,-123 c 2,-1 4,-2 6,-2 2,0 3,1 5,2 2,1 5,3 7,6 2,2 5,5 8,10 2,3 4,7 5,10 1,3 2,5 2,8 1,2 1,4 0,6 -1,1 -2,3 -4,4 l -155,101 82,124 132,-87 c 2,-1 4,-1 6,-1 2,0 4,0 6,1 2,2 4,3 6,6 2,3 5,6 7,10 3,3 5,7 6,10 1,2 2,5 2,7 0,3 0,4 -1,6 -1,2 -2,3 -4,4 l -132,87 92,142 157,-103 c 2,-1 4,-2 6,-2 1,0 3,1 6,2 2,1 4,3 6,5 2,3 5,6 7,10 z"
       inkscape:connector-curvature="0"
       style="fill:#ffffff;fill-rule:nonzero" /><path
       id="11"
       class="fil6"
       d="m -983,8240 c 1,2 1,3 1,5 0,1 -1,3 -2,4 -2,2 -4,3 -7,5 -3,2 -7,4 -12,7 -5,2 -9,3 -12,4 -3,1 -6,2 -8,2 -2,0 -4,0 -6,-1 -1,-1 -2,-2 -3,-4 l -48,-105 -324,148 48,105 c 1,2 1,4 1,5 -1,2 -2,3 -3,5 -2,1 -4,3 -7,5 -3,1 -7,3 -11,6 -5,2 -10,4 -13,4 -3,1 -6,2 -8,2 -2,1 -4,0 -5,-1 -2,0 -3,-2 -3,-3 l -63,-137 c -3,-6 -4,-10 -3,-14 1,-4 4,-7 8,-9 l 26,-11 c 2,-11 4,-22 6,-33 1,-10 2,-23 2,-36 -1,-14 -2,-30 -5,-48 -3,-18 -7,-41 -14,-66 -6,-26 -14,-57 -25,-92 -10,-35 -23,-77 -39,-125 -2,-8 -3,-15 -1,-21 1,-5 5,-9 11,-12 l 199,-90 c 6,-3 12,-4 17,-1 6,2 10,7 14,15 l 163,359 43,-20 c 5,-2 9,-2 12,0 4,2 6,6 9,11 l 62,137 z m -335,-436 -128,59 c 14,43 26,81 35,114 10,32 17,61 23,86 6,24 11,46 13,63 3,18 5,33 5,46 1,13 0,25 -1,35 -1,9 -3,18 -6,27 l 211,-96 -152,-334 z"
       inkscape:connector-curvature="0"
       style="fill:#ffffff;fill-rule:nonzero" /><path
       id="12"
       class="fil6"
       d="m -539,8003 c 0,2 0,3 -1,5 0,1 -2,3 -4,4 -2,2 -5,3 -9,5 -4,1 -9,3 -15,4 -5,1 -10,2 -14,2 -4,1 -8,1 -10,0 -3,0 -5,-1 -6,-2 -1,-1 -2,-2 -3,-4 l -101,-444 c -1,-2 -1,-3 0,-5 1,-2 2,-3 5,-5 2,-1 5,-3 9,-4 4,-1 8,-3 14,-4 5,-1 10,-2 15,-3 4,0 7,0 10,0 2,1 4,2 5,3 2,1 3,2 3,4 l 102,444 z m -164,-105 c 4,19 5,38 3,56 -2,18 -8,36 -18,52 -11,16 -25,31 -45,44 -20,13 -49,25 -88,33 l -96,22 c -3,1 -6,1 -9,1 -3,0 -6,-1 -9,-2 -2,-2 -5,-4 -7,-7 -2,-3 -4,-7 -5,-11 l -98,-428 c 0,-1 0,-3 1,-5 1,-1 2,-3 4,-5 3,-1 6,-3 9,-4 4,-1 9,-3 14,-4 6,-1 11,-2 15,-3 4,0 8,0 10,0 3,1 5,2 6,3 1,1 2,3 3,4 l 40,175 63,-15 c 33,-8 61,-11 82,-10 21,1 40,6 56,14 17,8 31,20 43,35 12,15 21,33 26,55 z m -63,21 c -3,-15 -8,-27 -15,-37 -6,-10 -15,-18 -25,-23 -11,-6 -23,-10 -37,-11 -14,-1 -35,2 -60,8 l -59,13 41,178 63,-15 c 27,-6 47,-14 59,-23 13,-8 22,-18 27,-28 5,-11 8,-21 9,-32 0,-11 0,-21 -3,-30 z"
       inkscape:connector-curvature="0"
       style="fill:#ffffff;fill-rule:nonzero" /><path
       id="13"
       class="fil6"
       d="m -129,7830 c 1,15 0,29 -2,41 -3,13 -8,25 -14,35 -6,11 -13,20 -22,29 -9,8 -19,15 -31,21 -12,6 -24,11 -38,15 -13,4 -29,6 -47,8 l -123,10 c -6,0 -11,-1 -16,-5 -6,-3 -9,-9 -9,-19 l -35,-421 c 0,-10 2,-16 6,-21 5,-4 10,-6 16,-7 l 107,-8 c 28,-3 51,-2 70,2 18,4 34,11 47,20 13,9 23,21 30,35 7,15 12,31 13,50 1,11 1,22 -1,32 -2,11 -5,20 -10,29 -4,10 -10,18 -17,25 -8,8 -16,14 -26,19 13,2 25,5 37,11 12,5 22,13 31,22 9,9 17,20 23,33 6,13 10,28 11,44 z m -112,-204 c -1,-11 -3,-21 -7,-30 -4,-9 -9,-17 -17,-23 -7,-6 -16,-10 -28,-12 -11,-3 -26,-3 -44,-2 l -65,5 13,153 71,-6 c 17,-1 30,-4 39,-9 10,-5 18,-12 24,-19 6,-8 10,-17 12,-27 2,-9 3,-19 2,-30 z m 46,213 c -1,-14 -4,-26 -10,-37 -5,-10 -12,-19 -21,-25 -10,-7 -21,-11 -34,-14 -14,-3 -30,-3 -50,-2 l -75,6 13,167 92,-8 c 14,-1 26,-4 37,-8 10,-4 19,-10 27,-17 7,-8 13,-17 17,-27 4,-10 5,-22 4,-35 z"
       inkscape:connector-curvature="0"
       style="fill:#ffffff;fill-rule:nonzero" /><path
       id="14"
       class="fil6"
       d="m 308,7947 c 2,6 3,10 3,13 0,4 -1,6 -3,8 -2,2 -5,3 -9,3 -5,0 -11,1 -18,1 -8,0 -14,-1 -19,-1 -4,0 -7,-1 -10,-2 -2,-1 -4,-2 -5,-3 -1,-2 -2,-4 -3,-6 l -40,-115 -197,-1 -39,113 c -1,2 -2,4 -3,6 -1,1 -3,3 -5,4 -3,1 -6,2 -10,2 -5,1 -10,1 -17,1 -7,0 -13,-1 -17,-1 -5,-1 -8,-2 -10,-4 -2,-2 -3,-4 -2,-7 0,-4 1,-8 3,-13 L 68,7506 c 1,-3 2,-5 4,-7 1,-1 4,-3 7,-4 3,-1 7,-1 11,-2 5,0 11,0 19,0 7,0 14,0 19,1 5,0 9,1 13,2 3,1 5,2 7,4 1,2 3,4 4,7 l 156,440 z m -202,-389 0,0 -83,236 165,0 -82,-236 z"
       inkscape:connector-curvature="0"
       style="fill:#ffffff;fill-rule:nonzero" /><path
       id="15"
       class="fil6"
       d="m 681,7583 c -1,5 -2,9 -3,12 -1,3 -2,6 -3,8 -2,2 -3,3 -5,4 -2,1 -4,1 -6,1 l -131,-19 -59,406 c 0,2 -1,4 -2,5 -1,1 -3,2 -5,3 -3,0 -6,1 -10,1 -4,0 -10,-1 -16,-2 -5,0 -10,-1 -14,-3 -4,-1 -8,-2 -10,-3 -2,-1 -4,-3 -4,-4 -1,-2 -1,-4 -1,-6 l 58,-406 -132,-19 c -2,-1 -3,-1 -5,-2 -1,-2 -2,-3 -3,-6 -1,-2 -1,-5 -1,-8 0,-3 0,-8 1,-12 0,-5 1,-9 2,-12 1,-4 3,-6 4,-8 1,-2 3,-4 4,-4 2,-1 4,-1 6,-1 l 326,47 c 2,0 4,1 5,2 1,1 3,3 3,5 1,2 2,5 2,9 0,4 -1,8 -1,12 z"
       inkscape:connector-curvature="0"
       style="fill:#ffffff;fill-rule:nonzero" /><path
       id="16"
       class="fil6"
       d="m 929,8083 c -1,4 -3,8 -4,11 -2,3 -3,5 -5,7 -2,2 -4,3 -5,3 -2,1 -4,1 -6,0 l -218,-64 c -5,-2 -10,-5 -13,-11 -4,-5 -5,-12 -2,-21 l 120,-405 c 3,-9 7,-15 13,-17 6,-2 12,-2 17,-1 l 216,64 c 1,1 3,2 4,3 1,2 2,3 2,6 1,2 1,5 0,8 0,4 -1,8 -2,12 -1,5 -3,8 -4,11 -2,3 -3,6 -5,7 -1,2 -3,3 -5,4 -2,0 -4,0 -5,-1 l -178,-52 -42,142 152,45 c 2,1 3,2 5,4 1,1 2,3 2,5 1,2 1,5 0,8 0,4 -1,8 -3,12 -1,4 -2,8 -4,11 -1,3 -2,5 -4,7 -1,1 -3,2 -5,3 -2,0 -4,0 -5,-1 l -153,-45 -48,163 180,53 c 2,1 3,2 5,3 1,1 2,3 2,6 1,2 1,5 1,8 -1,3 -2,7 -3,12 z"
       inkscape:connector-curvature="0"
       style="fill:#ffffff;fill-rule:nonzero" /><path
       id="17"
       class="fil6"
       d="m 1308,8240 c 0,2 -1,3 -3,4 -1,1 -3,2 -6,2 -2,0 -6,-1 -10,-2 -4,-1 -8,-2 -14,-4 -6,-2 -10,-4 -14,-6 -4,-2 -6,-4 -8,-6 -2,-1 -3,-3 -4,-5 0,-1 0,-3 0,-5 l 144,-384 -125,-47 c -25,51 -49,95 -70,133 -21,38 -41,70 -59,97 -18,27 -35,49 -50,66 -16,16 -31,29 -46,37 -15,8 -30,12 -46,11 -15,0 -31,-3 -48,-9 -2,-1 -4,-2 -6,-4 -1,-2 -2,-4 -3,-6 0,-3 0,-6 0,-9 1,-3 2,-7 4,-12 2,-6 4,-10 6,-14 2,-3 4,-6 6,-8 1,-2 3,-3 5,-3 2,-1 4,0 5,0 9,3 18,5 26,4 9,-1 18,-4 29,-11 10,-7 22,-18 34,-33 13,-14 27,-34 44,-59 16,-25 34,-56 54,-93 20,-37 43,-81 69,-132 4,-9 9,-15 14,-18 5,-2 11,-2 18,0 l 197,74 c 6,2 10,6 12,11 3,6 2,12 -1,20 l -154,411 z"
       inkscape:connector-curvature="0"
       style="fill:#ffffff;fill-rule:nonzero" /><path
       id="18"
       class="fil6"
       d="m 1747,8333 c -10,17 -21,31 -35,44 -14,12 -30,21 -48,26 -19,5 -40,6 -64,3 -24,-4 -53,-15 -88,-35 l -92,-51 c -2,-2 -4,-4 -7,-6 -2,-2 -3,-5 -4,-8 -1,-2 -1,-6 -1,-9 0,-4 1,-8 4,-12 l 214,-382 c 1,-2 2,-3 4,-4 2,-1 4,-1 7,0 2,0 6,1 9,3 4,1 9,3 13,6 6,3 10,6 13,8 3,3 6,5 8,7 1,2 2,4 2,6 0,1 0,3 -1,4 l -87,155 63,35 c 30,17 52,33 68,48 15,16 26,32 33,49 7,17 9,35 8,54 -2,20 -8,39 -19,59 z m -60,-27 c 7,-13 12,-25 13,-37 2,-12 1,-24 -3,-35 -3,-11 -10,-22 -20,-33 -10,-10 -27,-22 -51,-35 l -57,-33 -90,160 62,34 c 25,14 45,22 61,24 15,2 28,1 39,-3 10,-4 20,-10 27,-18 8,-8 14,-16 19,-24 z"
       inkscape:connector-curvature="0"
       style="fill:#ffffff;fill-rule:nonzero" /><path
       id="19"
       class="fil6"
       d="m 2001,8707 c -1,1 -3,2 -5,3 -1,0 -3,0 -6,-1 -2,-1 -5,-2 -9,-4 -3,-2 -7,-5 -12,-9 -5,-4 -8,-7 -11,-10 -3,-3 -5,-6 -6,-8 -1,-2 -2,-4 -2,-6 0,-2 1,-3 2,-5 l 133,-163 -167,-136 -133,163 c -1,2 -3,3 -4,3 -2,1 -4,0 -7,0 -2,-1 -5,-3 -9,-5 -3,-2 -7,-5 -12,-9 -4,-3 -8,-7 -11,-10 -3,-3 -5,-6 -6,-8 -2,-2 -2,-4 -2,-6 0,-2 1,-3 2,-5 l 287,-352 c 2,-2 3,-3 5,-3 1,-1 3,-1 6,0 2,1 5,2 9,5 3,2 8,5 12,8 5,4 9,8 11,11 3,3 5,5 6,8 2,2 2,4 2,6 0,1 -1,3 -2,4 l -120,147 168,137 119,-147 c 2,-2 3,-3 5,-3 1,-1 4,-1 6,0 2,1 5,2 9,4 3,2 7,5 12,9 5,4 8,7 11,10 3,3 5,6 6,8 2,2 2,4 2,6 0,2 -1,4 -2,5 l -287,353 z"
       inkscape:connector-curvature="0"
       style="fill:#ffffff;fill-rule:nonzero" /><path
       id="20"
       class="fil6"
       d="m 2339,9026 c -2,5 -5,9 -7,11 -2,3 -5,4 -7,4 -3,-1 -6,-2 -9,-5 -4,-3 -8,-7 -13,-13 -5,-5 -10,-10 -12,-13 -3,-4 -5,-7 -6,-9 -1,-2 -1,-4 -1,-6 0,-2 1,-4 2,-6 l 56,-109 -136,-143 -109,50 c -2,1 -4,1 -6,2 -2,0 -5,0 -7,-1 -2,-1 -5,-3 -9,-6 -3,-3 -7,-7 -11,-12 -5,-5 -9,-9 -12,-13 -2,-3 -4,-7 -4,-9 0,-3 1,-5 4,-7 2,-2 6,-4 12,-7 l 428,-187 c 3,-1 6,-2 8,-2 2,0 5,1 8,3 2,1 6,3 9,7 4,3 8,7 13,13 5,5 10,10 13,14 3,4 6,7 7,10 1,3 2,6 2,9 0,2 -1,5 -2,7 l -211,418 z m 142,-415 0,0 -228,103 114,119 114,-222 z"
       inkscape:connector-curvature="0"
       style="fill:#ffffff;fill-rule:nonzero" /><path
       id="21"
       class="fil6"
       d="m 2536,9324 c -2,1 -4,1 -5,1 -2,0 -4,-1 -6,-2 -2,-1 -5,-4 -7,-7 -3,-3 -6,-7 -10,-12 -3,-5 -6,-9 -8,-13 -2,-3 -3,-6 -4,-9 0,-2 0,-4 0,-6 1,-2 2,-3 4,-4 l 161,-114 -27,-38 c -11,-16 -21,-27 -30,-33 -9,-6 -18,-10 -29,-12 -10,-1 -21,-1 -33,0 -11,2 -24,5 -37,8 l -113,29 c -3,1 -6,1 -8,2 -2,0 -5,-1 -7,-3 -3,-1 -5,-4 -8,-7 -3,-3 -6,-7 -9,-12 -5,-6 -8,-11 -10,-14 -1,-4 -3,-7 -3,-10 -1,-2 -1,-4 0,-5 1,-2 2,-3 4,-4 2,-2 4,-3 7,-4 3,-2 9,-3 16,-5 l 105,-26 c 13,-3 25,-5 35,-7 12,-1 22,-2 31,-1 10,0 18,2 27,5 8,2 16,6 23,11 -5,-14 -9,-28 -10,-41 -2,-14 -1,-26 3,-38 3,-13 8,-24 16,-35 8,-10 18,-20 30,-29 16,-11 33,-18 50,-22 17,-5 35,-5 52,0 18,4 35,12 52,25 18,13 37,35 58,65 l 57,80 c 3,5 5,11 4,17 0,6 -4,12 -12,17 l -359,253 z m 301,-289 -34,-49 c -14,-21 -27,-35 -37,-43 -11,-8 -22,-13 -32,-16 -10,-2 -21,-2 -31,1 -10,3 -20,8 -29,14 -9,7 -17,14 -23,23 -6,9 -10,19 -12,30 -1,11 0,23 4,36 4,13 12,28 25,47 l 36,51 133,-94 z"
       inkscape:connector-curvature="0"
       style="fill:#ffffff;fill-rule:nonzero" /><path
       id="22"
       class="fil6"
       d="m 2880,9838 c -3,2 -6,3 -9,4 -3,1 -5,1 -8,2 -2,0 -4,0 -6,0 -2,0 -5,-1 -8,-2 -3,-1 -9,-4 -16,-9 -8,-5 -17,-12 -26,-21 -9,-8 -18,-19 -27,-31 -10,-12 -18,-27 -25,-43 -13,-28 -20,-55 -21,-82 -1,-27 4,-52 15,-76 11,-25 28,-47 51,-68 23,-21 52,-39 87,-55 36,-16 69,-26 102,-30 32,-3 61,-1 88,7 28,8 51,21 72,39 21,19 38,42 51,70 5,13 10,26 13,38 3,13 5,25 6,37 1,12 1,22 0,32 -2,10 -3,17 -5,22 -1,4 -3,7 -4,9 -1,1 -2,3 -4,4 -2,2 -4,3 -7,5 -3,2 -6,3 -10,5 -5,2 -9,4 -12,5 -3,1 -6,1 -9,1 -2,1 -4,0 -6,-1 -1,0 -2,-2 -3,-3 -2,-4 -1,-9 0,-16 2,-8 4,-17 5,-28 1,-12 1,-24 0,-39 -2,-14 -7,-30 -14,-48 -9,-19 -21,-35 -36,-47 -15,-12 -32,-20 -52,-25 -20,-4 -42,-4 -66,-1 -24,4 -50,12 -78,25 -27,12 -50,26 -68,42 -19,15 -32,31 -41,49 -9,17 -14,36 -14,55 0,19 5,39 14,59 8,17 17,31 27,42 10,11 20,20 29,26 9,7 17,12 24,16 7,4 11,7 13,11 0,1 1,3 0,4 0,2 -1,3 -2,5 -2,1 -4,3 -7,5 -3,1 -8,4 -13,6 z"
       inkscape:connector-curvature="0"
       style="fill:#ffffff;fill-rule:nonzero" /><path
       id="23"
       class="fil6"
       d="m 2949,10243 c -2,0 -4,0 -6,0 -1,-1 -3,-2 -4,-4 -2,-2 -4,-5 -5,-9 -2,-3 -4,-8 -6,-14 -1,-6 -3,-11 -3,-15 -1,-4 -1,-7 -1,-10 0,-2 1,-4 2,-6 1,-1 2,-2 4,-2 l 392,-120 -39,-128 c -55,10 -105,19 -148,25 -43,6 -81,10 -113,13 -32,2 -60,2 -82,0 -23,-3 -42,-7 -58,-14 -15,-7 -28,-17 -37,-29 -9,-12 -16,-27 -22,-45 0,-2 0,-4 0,-6 0,-2 1,-5 3,-6 2,-2 4,-4 7,-6 3,-1 7,-3 12,-4 6,-2 11,-3 14,-4 4,0 8,0 10,0 3,0 5,1 6,2 2,1 3,3 3,5 3,8 7,16 13,22 6,7 15,12 26,16 12,4 28,7 47,8 19,1 44,0 74,-2 30,-3 65,-7 106,-13 42,-7 91,-15 147,-26 10,-2 18,-2 23,0 5,2 9,7 11,14 l 61,201 c 2,6 2,12 -1,17 -3,5 -9,9 -17,11 l -419,129 z"
       inkscape:connector-curvature="0"
       style="fill:#ffffff;fill-rule:nonzero" /><path
       id="24"
       class="fil6"
       d="m 3128,10518 c -29,-7 -54,-14 -73,-20 -20,-7 -35,-15 -47,-23 -11,-9 -20,-18 -25,-30 -6,-11 -10,-24 -13,-40 0,-5 -1,-10 -1,-16 0,-5 0,-11 0,-16 1,-5 2,-9 3,-13 1,-4 2,-7 3,-9 1,-2 2,-3 4,-5 1,-1 3,-2 5,-3 3,-1 5,-2 9,-3 4,0 8,-1 13,-2 9,-2 16,-2 20,-1 5,2 7,4 8,7 0,2 0,5 -1,8 -1,2 -3,6 -4,10 -1,3 -2,8 -3,14 0,5 0,11 1,18 1,6 3,12 5,17 2,5 6,9 11,13 5,4 12,8 21,12 8,3 20,7 34,11 l 306,-222 c 5,-3 9,-5 12,-6 3,-1 5,-1 7,1 2,2 4,5 5,10 2,4 3,10 4,18 2,7 2,12 2,17 1,4 0,7 0,10 -1,3 -2,5 -4,7 -1,2 -3,4 -6,6 l -156,111 c -18,13 -35,25 -51,36 -16,11 -33,22 -49,33 l 0,1 c 20,4 39,7 58,11 20,4 41,9 64,14 l 178,37 c 2,1 4,1 6,2 1,1 3,3 4,6 2,2 3,5 4,10 1,4 2,10 3,17 1,7 2,13 2,17 0,5 0,8 -2,10 -1,2 -2,4 -5,4 -2,0 -5,0 -9,-1 l -343,-78 z"
       inkscape:connector-curvature="0"
       style="fill:#ffffff;fill-rule:nonzero" /><path
       id="25"
       class="fil6"
       d="m 3040,11232 c -2,0 -4,0 -6,-1 -1,-2 -2,-3 -3,-6 -1,-2 -2,-5 -3,-9 0,-4 0,-10 0,-16 0,-7 0,-12 0,-17 1,-4 2,-7 3,-10 1,-2 3,-4 5,-5 2,-2 4,-3 7,-4 l 119,-39 c 15,-5 28,-11 38,-18 11,-6 19,-14 26,-23 7,-8 12,-19 15,-30 3,-12 5,-25 5,-39 l 0,-22 -207,1 c -2,0 -4,-1 -5,-2 -2,-1 -3,-2 -4,-5 -1,-2 -2,-5 -2,-9 -1,-4 -1,-9 -1,-15 0,-6 0,-11 1,-15 0,-4 1,-7 2,-10 1,-2 2,-4 3,-4 2,-1 3,-2 5,-2 l 208,-1 0,-21 c 0,-16 -2,-30 -6,-42 -4,-11 -10,-22 -17,-31 -7,-8 -16,-16 -26,-22 -11,-6 -23,-11 -36,-15 l -120,-38 c -3,-1 -5,-2 -7,-4 -1,-1 -3,-3 -4,-5 -2,-3 -2,-6 -3,-10 -1,-5 -1,-10 -1,-17 0,-7 0,-12 1,-16 0,-4 1,-7 2,-10 1,-2 2,-4 3,-5 2,-1 4,-1 6,-1 1,0 2,0 3,0 1,0 3,0 4,1 2,0 4,0 6,1 2,1 4,2 7,3 l 108,36 c 16,6 30,12 42,18 12,6 22,13 31,20 8,7 15,16 20,25 6,9 11,20 14,31 l 1,0 c 2,-10 5,-18 10,-26 5,-8 11,-16 19,-22 8,-7 17,-13 29,-19 11,-5 25,-11 41,-16 l 99,-34 c 4,-1 8,-3 12,-3 3,-1 6,-2 9,-2 1,0 3,1 5,1 1,1 2,3 3,5 1,3 2,6 3,10 0,4 0,9 0,15 0,7 0,12 -1,16 0,5 -1,8 -2,10 -2,3 -3,4 -5,5 -2,1 -4,2 -7,3 l -112,35 c -13,4 -24,9 -34,15 -10,5 -18,12 -25,20 -6,8 -11,17 -14,28 -3,11 -4,24 -4,40 l 0,21 194,0 c 1,0 3,0 4,1 2,1 3,2 4,5 1,2 2,5 2,9 1,4 1,9 1,15 0,6 0,11 -1,15 0,4 -1,7 -2,10 -1,2 -2,4 -3,5 -2,1 -3,1 -5,1 l -194,1 0,21 c 0,15 2,28 6,39 3,11 8,21 15,29 7,8 15,15 25,21 10,5 21,10 33,13 l 112,34 c 2,1 4,2 6,3 2,1 4,3 5,5 1,3 2,6 3,10 1,4 1,10 1,17 0,6 0,11 -1,15 0,4 -1,7 -2,10 -1,2 -2,3 -4,4 -1,1 -3,1 -5,1 -2,0 -5,0 -9,-1 -3,-1 -7,-2 -11,-3 l -97,-33 c -15,-5 -28,-10 -39,-15 -11,-5 -20,-11 -28,-18 -8,-6 -14,-13 -19,-22 -6,-8 -10,-17 -13,-28 l -1,0 c -4,12 -9,23 -15,32 -6,10 -13,18 -21,25 -9,8 -19,14 -31,20 -12,6 -26,12 -43,18 l -107,37 c -3,1 -5,1 -7,2 -2,1 -4,2 -6,2 -1,0 -3,1 -4,1 -1,0 -2,0 -3,0 z"
       inkscape:connector-curvature="0"
       style="fill:#ffffff;fill-rule:nonzero" /><path
       id="26"
       class="fil6"
       d="m 3114,11638 c -19,-2 -36,-8 -52,-16 -16,-8 -29,-19 -40,-34 -11,-14 -19,-33 -24,-55 -5,-22 -5,-51 1,-87 l 16,-114 c 1,-5 3,-10 8,-15 4,-4 11,-5 21,-4 l 418,60 c 9,1 16,5 19,10 3,5 4,11 3,16 l -35,244 c 0,2 -1,4 -2,5 -1,2 -3,3 -5,4 -3,1 -6,1 -9,1 -3,0 -7,0 -12,-1 -5,-1 -8,-2 -12,-3 -3,-1 -6,-2 -7,-3 -2,-1 -4,-3 -5,-5 0,-1 -1,-3 0,-6 l 29,-204 -147,-21 -12,86 c -4,29 -11,53 -20,71 -9,19 -20,33 -33,45 -13,11 -28,19 -45,24 -17,4 -36,5 -55,2 z m 4,-65 c 13,2 25,1 36,-1 11,-3 21,-8 29,-15 9,-7 16,-16 22,-28 6,-12 10,-28 13,-48 l 11,-78 -169,-24 -11,80 c -3,19 -4,35 -1,48 2,13 6,24 12,33 6,9 14,16 24,22 10,5 21,9 34,11 z"
       inkscape:connector-curvature="0"
       style="fill:#ffffff;fill-rule:nonzero" /><path
       id="27"
       class="fil6"
       d="m 2880,12030 c -6,0 -11,0 -14,-1 -3,-1 -5,-2 -6,-5 -1,-2 -1,-6 -1,-10 1,-5 3,-10 5,-18 2,-7 4,-13 6,-17 1,-4 3,-7 4,-9 2,-2 4,-3 5,-4 2,-1 4,-1 6,-1 l 123,-6 56,-189 -97,-70 c -2,-1 -4,-3 -5,-4 -1,-2 -2,-4 -2,-6 -1,-3 -1,-6 0,-11 1,-4 2,-9 4,-16 2,-6 4,-12 6,-16 2,-4 4,-7 6,-8 2,-1 5,-2 8,0 3,1 7,3 12,6 l 375,279 c 3,2 4,4 5,6 2,2 2,4 2,8 0,3 0,7 -1,12 -1,4 -3,10 -5,17 -2,8 -4,14 -6,18 -2,5 -4,9 -5,12 -2,3 -4,4 -7,6 -2,1 -4,1 -7,2 l -467,25 z m 430,-83 0,-1 -202,-146 -48,158 250,-11 z"
       inkscape:connector-curvature="0"
       style="fill:#ffffff;fill-rule:nonzero" /><g
       id="_820678656"><g
         id="g3539"><path
           class="fil0"
           d="m 626,11224 262,122 -32,39 c -12,16 -17,44 -19,63 -2,32 2,67 10,98 7,27 19,55 34,78 l 21,31 -29,23 c -48,38 -105,31 -159,6 -29,-13 -53,-33 -71,-59 -35,-47 -46,-108 -52,-165 -5,-40 -6,-80 -12,-119 -3,-18 -9,-49 -23,-61 -2,-2 -4,-4 -6,-5 l -36,-16 33,-72 79,37 z"
           id="path3541"
           inkscape:connector-curvature="0"
           style="fill:#000000" /></g><path
         class="fil4"
         d="m 731,11649 c -162,-76 -58,-360 -165,-409 l 98,45 c 43,98 13,182 88,276 -51,-102 -21,-166 -56,-261 l 130,61 c -46,56 -36,200 23,286 -31,24 -69,24 -118,2 z"
         id="path3543"
         inkscape:connector-curvature="0"
         style="fill:#ffff00" /><g
         id="g3545"><path
           class="fil0"
           d="m 822,11315 263,123 -32,39 c -13,16 -18,43 -20,63 -2,32 2,66 10,97 8,28 19,55 35,79 l 20,30 -28,23 c -49,38 -106,32 -159,7 -29,-14 -53,-33 -72,-59 -35,-48 -46,-108 -52,-166 -4,-39 -6,-80 -12,-119 -2,-17 -8,-48 -23,-61 -2,-2 -4,-3 -6,-4 l -36,-17 34,-71 78,36 z"
           id="path3547"
           inkscape:connector-curvature="0"
           style="fill:#000000" /></g><path
         class="fil4"
         d="m 927,11740 c -162,-75 -58,-359 -164,-409 l 97,45 c 43,99 14,183 88,276 -51,-102 -21,-166 -56,-260 l 130,60 c -46,57 -35,200 23,286 -31,25 -69,25 -118,2 z"
         id="path3549"
         inkscape:connector-curvature="0"
         style="fill:#ffff00" /><g
         id="g3551"><path
           class="fil0"
           d="m 1018,11407 263,122 -32,39 c -13,16 -18,44 -19,63 -3,32 1,67 10,98 7,27 18,55 34,78 l 21,31 -29,23 c -49,38 -106,31 -159,6 -29,-13 -53,-33 -72,-58 -35,-48 -46,-109 -52,-166 -4,-40 -5,-80 -11,-119 -3,-18 -9,-49 -23,-61 -2,-2 -4,-4 -7,-5 l -36,-16 34,-72 78,37 z"
           id="path3553"
           inkscape:connector-curvature="0"
           style="fill:#000000" /></g><path
         class="fil4"
         d="m 1123,11832 c -162,-76 -58,-360 -164,-409 l 97,45 c 43,98 14,182 89,276 -51,-102 -22,-166 -56,-261 l 129,61 c -46,56 -35,200 23,286 -31,24 -69,24 -118,2 z"
         id="path3555"
         inkscape:connector-curvature="0"
         style="fill:#ffff00" /><g
         id="g3557"><path
           class="fil0"
           d="m 1215,11498 262,123 -32,39 c -13,16 -18,43 -19,63 -3,32 1,66 10,97 7,28 18,56 34,79 l 21,30 -29,23 c -49,38 -105,32 -159,7 -29,-14 -53,-33 -72,-59 -34,-48 -46,-108 -52,-166 -4,-39 -5,-80 -11,-119 -3,-17 -9,-48 -23,-61 -2,-2 -4,-3 -7,-4 l -35,-17 33,-71 79,36 z"
           id="path3559"
           inkscape:connector-curvature="0"
           style="fill:#000000" /></g><path
         class="fil4"
         d="m 1320,11923 c -162,-75 -58,-359 -165,-409 l 97,46 c 43,98 14,182 89,275 -51,-102 -21,-166 -56,-260 l 130,60 c -47,57 -36,200 23,286 -32,25 -70,25 -118,2 z"
         id="path3561"
         inkscape:connector-curvature="0"
         style="fill:#ffff00" /><g
         id="g3563"><path
           class="fil0"
           d="m 1411,11590 262,122 -32,40 c -12,15 -17,43 -19,62 -2,32 2,67 10,98 7,27 18,55 34,78 l 21,31 -29,23 c -49,38 -105,31 -159,6 -29,-13 -53,-33 -71,-58 -35,-48 -46,-109 -52,-166 -5,-40 -6,-80 -12,-119 -3,-18 -9,-49 -23,-61 -2,-2 -4,-4 -6,-5 l -36,-16 33,-72 79,37 z"
           id="path3565"
           inkscape:connector-curvature="0"
           style="fill:#000000" /></g><path
         class="fil4"
         d="m 1516,12015 c -162,-76 -58,-360 -165,-409 l 98,45 c 43,98 13,182 88,276 -51,-102 -21,-166 -56,-261 l 130,61 c -46,56 -36,200 23,286 -31,24 -69,24 -118,2 z"
         id="path3567"
         inkscape:connector-curvature="0"
         style="fill:#ffff00" /><g
         id="g3569"><path
           class="fil0"
           d="m 1607,11682 262,122 -31,39 c -13,16 -18,43 -20,63 -2,32 2,66 10,98 7,27 19,55 35,78 l 20,30 -28,23 c -49,38 -106,32 -159,7 -29,-14 -53,-33 -72,-59 -35,-48 -46,-108 -52,-166 -4,-39 -6,-80 -12,-119 -2,-17 -8,-48 -23,-61 -2,-2 -4,-3 -6,-4 l -36,-17 33,-71 79,37 z"
           id="path3571"
           inkscape:connector-curvature="0"
           style="fill:#000000" /></g><path
         class="fil4"
         d="m 1712,12106 c -162,-75 -58,-359 -164,-409 l 97,46 c 43,98 14,182 88,275 -51,-102 -21,-166 -56,-260 l 130,60 c -46,57 -35,200 23,286 -31,25 -69,25 -118,2 z"
         id="path3573"
         inkscape:connector-curvature="0"
         style="fill:#ffff00" /><g
         id="g3575"><path
           class="fil0"
           d="m 1803,11773 263,122 -32,40 c -13,15 -18,43 -19,62 -3,32 1,67 9,98 8,27 19,55 35,78 l 21,31 -29,23 c -49,38 -106,31 -159,6 -29,-13 -53,-33 -72,-58 -35,-48 -46,-109 -52,-166 -4,-40 -5,-80 -11,-119 -3,-18 -9,-49 -23,-61 -2,-2 -4,-4 -7,-5 l -36,-16 34,-72 78,37 z"
           id="path3577"
           inkscape:connector-curvature="0"
           style="fill:#000000" /></g><path
         class="fil4"
         d="m 1908,12198 c -162,-76 -58,-360 -164,-409 l 97,45 c 43,98 14,182 89,276 -51,-102 -22,-166 -56,-261 l 129,61 c -46,56 -35,200 23,286 -31,24 -69,24 -118,2 z"
         id="path3579"
         inkscape:connector-curvature="0"
         style="fill:#ffff00" /><g
         id="g3581"><path
           class="fil0"
           d="m 710,11220 -146,-68 33,-72 36,17 c 2,1 5,2 7,2 19,3 47,-12 62,-22 34,-20 66,-45 98,-67 76,-52 162,-92 252,-50 54,25 95,64 97,126 l 1,37 -36,4 c -29,2 -57,12 -83,24 -29,13 -58,32 -81,55 -14,14 -32,35 -36,55 l -9,50 -195,-91 z"
           id="path3583"
           inkscape:connector-curvature="0"
           style="fill:#000000" /></g><path
         class="fil4"
         d="m 1035,10996 c -162,-76 -312,186 -419,137 l 98,45 c 102,-30 148,-107 268,-110 -111,27 -141,91 -236,125 l 130,61 c 13,-72 130,-156 234,-167 -2,-39 -26,-69 -75,-91 z"
         id="path3585"
         inkscape:connector-curvature="0"
         style="fill:#ffff00" /><g
         id="g3587"><path
           class="fil0"
           d="m 907,11311 -147,-68 33,-71 36,16 c 2,1 5,2 8,3 18,3 46,-13 61,-22 34,-21 66,-46 99,-68 76,-51 161,-92 251,-49 54,25 95,64 97,126 l 1,36 -36,4 c -28,3 -57,12 -82,24 -30,14 -59,33 -82,56 -14,13 -32,35 -35,54 l -10,50 -194,-91 z"
           id="path3589"
           inkscape:connector-curvature="0"
           style="fill:#000000" /></g><path
         class="fil4"
         d="m 1232,11087 c -162,-75 -313,187 -420,137 l 98,45 c 103,-30 148,-106 268,-109 -111,26 -141,91 -236,125 l 130,60 c 14,-72 130,-156 234,-166 -1,-40 -26,-69 -74,-92 z"
         id="path3591"
         inkscape:connector-curvature="0"
         style="fill:#ffff00" /><g
         id="g3593"><path
           class="fil0"
           d="m 1103,11403 -147,-68 34,-72 35,17 c 3,1 5,2 8,2 19,3 46,-12 61,-22 34,-20 66,-45 99,-67 76,-52 161,-92 252,-50 53,25 95,64 97,126 l 1,37 -37,4 c -28,2 -57,12 -82,24 -29,13 -58,32 -81,55 -14,14 -32,35 -36,55 l -10,50 -194,-91 z"
           id="path3595"
           inkscape:connector-curvature="0"
           style="fill:#000000" /></g><path
         class="fil4"
         d="m 1428,11179 c -162,-76 -313,186 -419,137 l 97,45 c 103,-30 149,-107 268,-110 -111,27 -141,91 -236,125 l 130,61 c 14,-72 131,-156 234,-167 -1,-39 -25,-69 -74,-91 z"
         id="path3597"
         inkscape:connector-curvature="0"
         style="fill:#ffff00" /><g
         id="g3599"><path
           class="fil0"
           d="m 1299,11494 -146,-68 33,-71 36,16 c 2,2 4,2 7,3 19,3 46,-13 62,-22 33,-21 65,-46 98,-68 76,-51 161,-92 252,-49 53,25 95,64 97,126 l 1,37 -37,3 c -28,3 -56,12 -82,24 -29,14 -58,33 -81,56 -14,13 -32,35 -36,54 l -9,50 -195,-91 z"
           id="path3601"
           inkscape:connector-curvature="0"
           style="fill:#000000" /></g><path
         class="fil4"
         d="m 1624,11270 c -162,-75 -313,187 -419,137 l 97,45 c 103,-30 149,-106 269,-109 -112,26 -141,91 -236,125 l 129,60 c 14,-72 131,-156 234,-166 -1,-40 -25,-69 -74,-92 z"
         id="path3603"
         inkscape:connector-curvature="0"
         style="fill:#ffff00" /><g
         id="g3605"><path
           class="fil0"
           d="m 1495,11586 -146,-68 33,-72 36,17 c 2,1 5,2 7,2 19,3 47,-12 62,-22 34,-20 66,-45 98,-67 76,-52 162,-92 252,-50 54,25 95,64 97,126 l 1,37 -36,4 c -29,2 -57,12 -83,24 -29,13 -58,32 -81,55 -14,14 -32,35 -36,55 l -9,50 -195,-91 z"
           id="path3607"
           inkscape:connector-curvature="0"
           style="fill:#000000" /></g><path
         class="fil4"
         d="m 1820,11362 c -162,-76 -312,186 -419,137 l 98,45 c 102,-30 148,-107 268,-110 -111,27 -141,91 -236,125 l 130,61 c 13,-72 130,-156 234,-166 -2,-40 -26,-70 -75,-92 z"
         id="path3609"
         inkscape:connector-curvature="0"
         style="fill:#ffff00" /><g
         id="g3611"><path
           class="fil0"
           d="m 1692,11677 -147,-68 33,-71 36,16 c 2,2 5,2 8,3 18,3 46,-13 61,-22 34,-20 66,-46 99,-68 76,-51 161,-92 251,-49 54,25 95,64 97,126 l 1,37 -36,3 c -28,3 -57,12 -82,24 -30,14 -59,33 -82,56 -14,13 -32,35 -35,55 l -10,49 -194,-91 z"
           id="path3613"
           inkscape:connector-curvature="0"
           style="fill:#000000" /></g><path
         class="fil4"
         d="m 2017,11453 c -163,-75 -313,187 -420,137 l 98,45 c 103,-30 148,-106 268,-109 -111,26 -141,91 -236,125 l 130,60 c 14,-72 130,-156 234,-166 -1,-40 -26,-69 -74,-92 z"
         id="path3615"
         inkscape:connector-curvature="0"
         style="fill:#ffff00" /><g
         id="g3617"><path
           class="fil0"
           d="m 1888,11769 -147,-68 34,-72 35,17 c 3,1 5,2 8,2 19,3 46,-12 61,-22 34,-20 66,-45 99,-67 76,-52 161,-92 252,-50 53,25 95,64 97,126 l 1,37 -37,4 c -28,3 -57,12 -82,24 -29,13 -58,32 -81,55 -14,14 -32,35 -36,55 l -10,50 -194,-91 z"
           id="path3619"
           inkscape:connector-curvature="0"
           style="fill:#000000" /></g><path
         class="fil4"
         d="m 2213,11545 c -162,-76 -313,186 -419,137 l 97,45 c 103,-30 149,-107 268,-109 -111,26 -141,90 -236,124 l 130,61 c 14,-72 131,-156 234,-166 -1,-40 -25,-70 -74,-92 z"
         id="path3621"
         inkscape:connector-curvature="0"
         style="fill:#ffff00" /><g
         id="g3623"><polygon
           class="fil0"
           points="-1330,10399 -1167,10892 -2328,9825 -764,10028 -1247,10220 2114,11787 2030,11966 "
           id="polygon3625"
           style="fill:#000000" /></g><polygon
         class="fil4"
         points="2061,11806 2011,11913 -1396,10324 -1252,10761 -2210,9880 -919,10047 -1346,10217 "
         id="polygon3627"
         style="fill:#ffff00" /></g><g
       id="_959391808"><g
         id="g3630"><path
           class="fil0"
           d="m -643,11188 -262,123 -9,-50 c -4,-20 -22,-41 -36,-55 -23,-23 -52,-42 -81,-55 -26,-12 -54,-22 -83,-24 l -36,-4 1,-37 c 2,-62 43,-101 97,-126 29,-13 59,-19 91,-17 59,4 113,34 161,67 32,22 64,47 98,67 15,10 43,25 62,22 2,0 5,-1 7,-2 l 36,-17 33,72 -79,36 z"
           id="path3632"
           inkscape:connector-curvature="0"
           style="fill:#000000" /></g><path
         class="fil4"
         d="m -1035,10996 c 162,-76 312,186 419,137 l -98,45 c -102,-30 -148,-107 -268,-110 111,27 141,91 236,125 l -130,61 c -13,-72 -130,-156 -234,-167 2,-39 26,-69 75,-91 z"
         id="path3634"
         inkscape:connector-curvature="0"
         style="fill:#ffff00" /><g
         id="g3636"><path
           class="fil0"
           d="m -839,11280 -262,122 -10,-50 c -3,-19 -21,-41 -35,-54 -23,-23 -52,-42 -82,-56 -25,-12 -54,-21 -82,-24 l -36,-4 1,-36 c 2,-62 43,-101 97,-126 29,-14 59,-20 91,-17 59,4 113,34 160,66 33,22 65,47 99,68 15,9 43,25 61,22 3,-1 6,-2 8,-3 l 36,-16 33,71 -79,37 z"
           id="path3638"
           inkscape:connector-curvature="0"
           style="fill:#000000" /></g><path
         class="fil4"
         d="m -1232,11087 c 162,-75 313,187 420,137 l -98,45 c -103,-30 -148,-106 -268,-109 111,26 141,91 236,125 l -130,60 c -14,-72 -130,-156 -234,-166 1,-40 26,-69 74,-92 z"
         id="path3640"
         inkscape:connector-curvature="0"
         style="fill:#ffff00" /><g
         id="g3642"><path
           class="fil0"
           d="m -1035,11371 -262,123 -10,-50 c -4,-20 -22,-41 -36,-55 -23,-23 -52,-42 -81,-55 -25,-12 -54,-22 -82,-24 l -37,-4 1,-37 c 2,-62 44,-101 97,-126 29,-13 60,-19 92,-17 58,4 112,34 160,67 33,22 65,47 99,67 15,10 42,25 61,22 3,0 5,-1 8,-2 l 35,-17 34,72 -79,36 z"
           id="path3644"
           inkscape:connector-curvature="0"
           style="fill:#000000" /></g><path
         class="fil4"
         d="m -1428,11179 c 162,-76 313,186 419,137 l -97,45 c -103,-30 -149,-107 -268,-110 111,27 141,91 236,125 l -130,61 c -14,-72 -131,-156 -234,-167 1,-39 25,-69 74,-91 z"
         id="path3646"
         inkscape:connector-curvature="0"
         style="fill:#ffff00" /><g
         id="g3648"><path
           class="fil0"
           d="m -1231,11463 -263,122 -9,-50 c -4,-19 -22,-41 -36,-54 -23,-23 -52,-42 -81,-56 -26,-12 -54,-21 -82,-24 l -37,-3 1,-37 c 2,-62 44,-101 97,-126 29,-14 60,-20 91,-17 59,4 113,34 161,66 33,22 65,47 98,68 16,9 43,25 62,22 3,-1 5,-1 7,-3 l 36,-16 33,71 -78,37 z"
           id="path3650"
           inkscape:connector-curvature="0"
           style="fill:#000000" /></g><path
         class="fil4"
         d="m -1624,11270 c 162,-75 313,187 419,137 l -97,45 c -103,-30 -149,-106 -269,-109 112,26 141,91 236,125 l -129,60 c -14,-72 -131,-156 -234,-166 1,-40 25,-69 74,-92 z"
         id="path3652"
         inkscape:connector-curvature="0"
         style="fill:#ffff00" /><g
         id="g3654"><path
           class="fil0"
           d="m -1428,11554 -262,123 -9,-50 c -4,-20 -22,-41 -36,-55 -23,-23 -52,-42 -81,-55 -26,-12 -54,-22 -83,-24 l -36,-4 1,-37 c 2,-62 43,-101 97,-126 29,-13 59,-19 91,-17 59,4 113,34 161,67 32,22 64,47 98,67 15,10 43,25 62,22 2,0 5,-1 7,-2 l 36,-17 33,72 -79,36 z"
           id="path3656"
           inkscape:connector-curvature="0"
           style="fill:#000000" /></g><path
         class="fil4"
         d="m -1820,11362 c 162,-76 312,186 419,137 l -98,45 c -102,-30 -148,-107 -268,-110 111,27 141,91 236,125 l -130,61 c -13,-72 -130,-156 -234,-166 2,-40 26,-70 75,-92 z"
         id="path3658"
         inkscape:connector-curvature="0"
         style="fill:#ffff00" /><g
         id="g3660"><path
           class="fil0"
           d="m -1624,11646 -262,122 -10,-49 c -3,-20 -21,-42 -35,-55 -23,-23 -52,-42 -82,-56 -25,-12 -54,-21 -82,-24 l -36,-3 1,-37 c 2,-62 43,-101 97,-126 29,-14 59,-20 91,-17 59,4 113,34 160,66 33,22 65,48 99,68 15,9 43,25 61,22 3,-1 6,-1 8,-3 l 36,-16 33,71 -79,37 z"
           id="path3662"
           inkscape:connector-curvature="0"
           style="fill:#000000" /></g><path
         class="fil4"
         d="m -2017,11453 c 163,-75 313,187 420,137 l -98,45 c -103,-30 -148,-106 -268,-109 111,26 141,91 236,125 l -130,60 c -14,-72 -130,-156 -234,-166 1,-40 26,-69 74,-92 z"
         id="path3664"
         inkscape:connector-curvature="0"
         style="fill:#ffff00" /><g
         id="g3666"><path
           class="fil0"
           d="m -1820,11737 -262,123 -10,-50 c -4,-20 -22,-41 -36,-55 -23,-23 -52,-42 -81,-55 -25,-12 -54,-21 -82,-24 l -37,-4 1,-37 c 2,-62 44,-101 97,-126 29,-13 60,-19 92,-17 58,4 112,35 160,67 33,22 65,47 99,67 15,10 42,25 61,22 3,0 5,-1 8,-2 l 35,-17 34,72 -79,36 z"
           id="path3668"
           inkscape:connector-curvature="0"
           style="fill:#000000" /></g><path
         class="fil4"
         d="m -2213,11545 c 162,-76 313,186 419,137 l -97,45 c -103,-30 -149,-107 -268,-109 111,26 141,90 236,124 l -130,61 c -14,-72 -131,-156 -234,-166 1,-40 25,-70 74,-92 z"
         id="path3670"
         inkscape:connector-curvature="0"
         style="fill:#ffff00" /><g
         id="g3672"><path
           class="fil0"
           d="m -694,11256 147,-69 33,72 -36,16 c -2,1 -4,3 -6,5 -14,12 -20,43 -23,61 -6,39 -7,79 -12,119 -9,91 -33,182 -123,224 -54,25 -111,32 -159,-6 l -29,-23 21,-31 c 15,-23 27,-51 34,-78 8,-31 12,-66 10,-98 -2,-19 -7,-47 -19,-63 l -32,-39 194,-90 z"
           id="path3674"
           inkscape:connector-curvature="0"
           style="fill:#000000" /></g><path
         class="fil4"
         d="m -731,11649 c 162,-76 58,-360 165,-409 l -98,45 c -43,98 -13,182 -88,276 51,-102 21,-166 56,-261 l -130,61 c 46,56 36,200 -23,286 31,24 69,24 118,2 z"
         id="path3676"
         inkscape:connector-curvature="0"
         style="fill:#ffff00" /><g
         id="g3678"><path
           class="fil0"
           d="m -890,11347 146,-68 34,71 -36,17 c -2,1 -4,2 -6,4 -15,13 -21,44 -23,61 -6,39 -8,80 -12,119 -9,91 -33,183 -124,225 -53,25 -110,31 -159,-7 l -28,-23 20,-30 c 16,-23 27,-51 35,-79 8,-31 12,-65 10,-97 -2,-20 -7,-47 -20,-63 l -32,-39 195,-91 z"
           id="path3680"
           inkscape:connector-curvature="0"
           style="fill:#000000" /></g><path
         class="fil4"
         d="m -927,11740 c 162,-75 58,-359 164,-409 l -97,45 c -43,99 -14,183 -88,276 51,-102 21,-166 56,-260 l -130,60 c 46,57 35,200 -23,286 31,25 69,25 118,2 z"
         id="path3682"
         inkscape:connector-curvature="0"
         style="fill:#ffff00" /><g
         id="g3684"><path
           class="fil0"
           d="m -1086,11439 146,-69 34,72 -36,16 c -3,1 -5,3 -7,5 -14,12 -20,43 -23,61 -6,39 -7,79 -11,119 -10,91 -33,182 -124,224 -53,25 -110,32 -159,-6 l -29,-23 21,-31 c 16,-23 27,-51 35,-78 8,-31 12,-66 9,-98 -1,-19 -6,-47 -19,-63 l -32,-39 195,-90 z"
           id="path3686"
           inkscape:connector-curvature="0"
           style="fill:#000000" /></g><path
         class="fil4"
         d="m -1123,11832 c 162,-76 58,-360 164,-409 l -97,45 c -43,98 -14,182 -89,276 51,-102 22,-166 56,-261 l -129,61 c 46,56 35,200 -23,286 31,24 69,24 118,2 z"
         id="path3688"
         inkscape:connector-curvature="0"
         style="fill:#ffff00" /><g
         id="g3690"><path
           class="fil0"
           d="m -1282,11530 146,-68 33,71 -35,17 c -3,1 -5,2 -7,4 -14,13 -20,44 -23,61 -6,39 -7,80 -11,119 -10,91 -34,183 -124,225 -54,25 -110,31 -159,-7 l -29,-23 21,-30 c 16,-23 27,-51 34,-78 9,-32 13,-66 10,-98 -1,-20 -6,-47 -19,-63 l -32,-39 195,-91 z"
           id="path3692"
           inkscape:connector-curvature="0"
           style="fill:#000000" /></g><path
         class="fil4"
         d="m -1320,11923 c 162,-75 58,-359 165,-409 l -97,46 c -43,98 -14,182 -89,275 51,-102 21,-166 56,-260 l -130,60 c 47,57 36,200 -23,286 32,25 70,25 118,2 z"
         id="path3694"
         inkscape:connector-curvature="0"
         style="fill:#ffff00" /><g
         id="g3696"><path
           class="fil0"
           d="m -1479,11622 147,-69 33,72 -36,16 c -2,1 -4,3 -6,5 -14,12 -20,43 -23,61 -6,39 -7,79 -12,119 -9,91 -33,182 -123,224 -54,25 -110,32 -159,-6 l -29,-23 21,-31 c 16,-23 27,-51 34,-78 8,-31 12,-66 10,-98 -2,-19 -7,-47 -19,-62 l -32,-40 194,-90 z"
           id="path3698"
           inkscape:connector-curvature="0"
           style="fill:#000000" /></g><path
         class="fil4"
         d="m -1516,12015 c 162,-76 58,-360 165,-409 l -98,45 c -43,98 -13,182 -88,276 51,-102 21,-166 56,-261 l -130,61 c 46,56 36,200 -23,286 31,24 69,24 118,2 z"
         id="path3700"
         inkscape:connector-curvature="0"
         style="fill:#ffff00" /><g
         id="g3702"><path
           class="fil0"
           d="m -1675,11713 147,-68 33,71 -36,17 c -2,1 -4,2 -6,4 -15,13 -21,44 -23,61 -6,39 -8,80 -12,119 -9,91 -33,183 -124,225 -53,25 -110,31 -159,-7 l -28,-23 20,-30 c 16,-23 28,-51 35,-78 8,-32 12,-66 10,-98 -2,-20 -7,-47 -20,-63 l -31,-39 194,-91 z"
           id="path3704"
           inkscape:connector-curvature="0"
           style="fill:#000000" /></g><path
         class="fil4"
         d="m -1712,12106 c 162,-75 58,-359 164,-409 l -97,46 c -43,98 -14,182 -88,275 51,-102 21,-166 56,-260 l -130,60 c 46,57 35,200 -23,286 31,25 69,25 118,2 z"
         id="path3706"
         inkscape:connector-curvature="0"
         style="fill:#ffff00" /><g
         id="g3708"><path
           class="fil0"
           d="m -1871,11805 146,-69 34,72 -36,16 c -3,1 -5,3 -7,5 -14,12 -20,43 -23,61 -6,39 -7,79 -11,119 -10,91 -33,182 -124,224 -53,25 -110,32 -159,-6 l -29,-23 21,-31 c 16,-23 27,-51 35,-78 8,-31 12,-66 9,-98 -1,-19 -6,-47 -19,-62 l -32,-40 195,-90 z"
           id="path3710"
           inkscape:connector-curvature="0"
           style="fill:#000000" /></g><path
         class="fil4"
         d="m -1908,12198 c 162,-76 58,-360 164,-409 l -97,45 c -43,98 -14,182 -89,276 51,-102 22,-166 56,-261 l -129,61 c 46,56 35,200 -23,286 31,24 69,24 118,2 z"
         id="path3712"
         inkscape:connector-curvature="0"
         style="fill:#ffff00" /><g
         id="g3714"><polygon
           class="fil0"
           points="1247,10220 764,10028 2328,9825 1167,10892 1330,10399 -2030,11966 -2114,11787 "
           id="polygon3716"
           style="fill:#000000" /></g><polygon
         class="fil4"
         points="-2011,11913 -2061,11806 1346,10217 919,10047 2210,9880 1252,10761 1396,10324 "
         id="polygon3718"
         style="fill:#ffff00" /></g><g
       id="_959396384"><path
         class="fil0"
         d="m 159,12524 7,19 c 8,26 18,51 28,76 l 11,28 -205,154 -205,-154 11,-28 c 10,-25 20,-50 28,-76 l 7,-19 4,-18 c 14,-55 17,-111 17,-167 0,-66 -18,-139 -32,-202 -22,-102 -42,-202 -53,-306 l -1,-4 0,0 -2,-16 -2,-24 0,0 c -4,-52 -7,-104 -8,-156 l 0,-1 0,0 0,-20 -1,-19 1,0 c 0,-53 0,-105 2,-158 l 0,0 1,-22 1,-17 0,0 0,-2 c 5,-89 15,-191 51,-274 l -252,0 0,-177 216,0 c 0,-365 2,-730 9,-1094 5,-244 11,-489 28,-732 6,-85 14,-169 24,-253 8,-64 18,-128 32,-191 17,-78 43,-171 93,-235 l 31,-39 31,39 c 50,64 76,157 93,235 14,63 24,127 32,191 10,84 18,168 24,253 17,243 23,488 28,732 7,364 9,729 9,1094 l 216,0 0,177 -252,0 c 36,83 46,185 51,274 l 0,2 0,0 1,17 1,22 0,0 c 2,53 2,105 2,158 l 1,0 -1,19 0,20 0,0 0,1 c -1,52 -4,104 -8,156 l 0,0 -2,24 -2,16 0,0 -1,4 c -11,104 -31,204 -53,306 -14,63 -32,136 -32,202 0,56 3,112 17,167 l 4,18 z"
         id="path3721"
         inkscape:connector-curvature="0"
         style="fill:#000000" /></g><path
       class="fil4"
       d="m -177,10941 157,0 0,-2028 c 0,-78 0,-157 20,-236 20,79 20,158 20,236 l 0,2028 157,0 C 177,9209 138,8638 0,8461 c -138,177 -177,748 -177,2480 z m -217,39 788,0 0,99 -788,0 0,-99 z m 256,138 276,0 c 28,57 46,134 54,276 l -384,0 c 8,-142 26,-219 54,-276 z m 332,315 c 2,46 3,98 3,158 l -394,0 c 0,-60 1,-112 3,-158 l 388,0 z m 3,197 c -1,56 -4,109 -9,157 l -376,0 c -5,-48 -8,-101 -9,-157 l 394,0 z m -13,197 c -26,243 -86,389 -86,512 0,76 7,129 19,177 l -234,0 c 12,-48 19,-101 19,-177 0,-123 -60,-269 -86,-512 l 368,0 z m -56,728 c 8,25 18,50 29,79 l -157,118 -157,-118 c 11,-29 21,-54 29,-79 l 256,0 z"
       id="path3723"
       inkscape:connector-curvature="0"
       style="fill:#ffff00" /></g></svg>