<?xml version="1.0" encoding="UTF-8" standalone="no"?>
<!-- Creator: CorelDRAW X7 -->

<svg
   xmlns:dc="http://purl.org/dc/elements/1.1/"
   xmlns:cc="http://creativecommons.org/ns#"
   xmlns:rdf="http://www.w3.org/1999/02/22-rdf-syntax-ns#"
   xmlns:svg="http://www.w3.org/2000/svg"
   xmlns="http://www.w3.org/2000/svg"
   xmlns:sodipodi="http://sodipodi.sourceforge.net/DTD/sodipodi-0.dtd"
   xmlns:inkscape="http://www.inkscape.org/namespaces/inkscape"
   xml:space="preserve"
   width="7.8740005in"
   height="7.8740005in"
   version="1.1"
   style="clip-rule:evenodd;fill-rule:evenodd;image-rendering:optimizeQuality;shape-rendering:geometricPrecision;text-rendering:geometricPrecision"
   viewBox="0 0 7874.0005 7874.0005"
   id="svg2"
   inkscape:version="0.91 r13725"
   sodipodi:docname="Yu Jing - Aragoto Senkenbutai - [N3] [Vyo].svg"><metadata
     id="metadata18"><rdf:RDF><cc:Work
         rdf:about=""><dc:format>image/svg+xml</dc:format><dc:type
           rdf:resource="http://purl.org/dc/dcmitype/StillImage" /></cc:Work></rdf:RDF></metadata><sodipodi:namedview
     pagecolor="#ffffff"
     bordercolor="#666666"
     borderopacity="1"
     objecttolerance="10"
     gridtolerance="10"
     guidetolerance="10"
     inkscape:pageopacity="0"
     inkscape:pageshadow="2"
     inkscape:window-width="640"
     inkscape:window-height="480"
     id="namedview16"
     showgrid="false"
     inkscape:zoom="0.23838384"
     inkscape:cx="736.83001"
     inkscape:cy="849.33005"
     inkscape:window-x="0"
     inkscape:window-y="0"
     inkscape:window-maximized="0"
     inkscape:current-layer="svg2" /><defs
     id="defs4"><style
       type="text/css"
       id="style6"><![CDATA[
    .fil0 {fill:#E32527}
    .fil1 {fill:white}
   ]]></style></defs><g
     id="Layer_x0020_1"
     transform="translate(3937,-7063)"><metadata
       id="CorelCorpID_0Corel-Layer" /><circle
       class="fil0"
       cy="11000"
       r="3937"
       id="circle10"
       cx="0"
       style="fill:#e32527" /><circle
       class="fil1"
       cy="11000"
       r="3819"
       id="circle12"
       cx="0"
       style="fill:#ffffff" /><path
       class="fil0"
       d="m 0,8283 c 744,0 1417,299 1908,783 l -333,333 0,1522 -3150,0 0,-1522 -333,-333 C -1417,8582 -744,8283 0,8283 Z m 876,1920 c 61,62 36,186 -56,278 -92,93 -217,118 -278,56 -62,-61 -37,-186 55,-278 93,-93 217,-117 279,-56 z m -1752,0 c 62,-61 186,-37 279,56 92,92 117,217 55,278 -61,62 -186,37 -278,-56 -92,-92 -117,-216 -56,-278 z m 2451,1033 0,341 779,779 c -130,226 -292,432 -480,610 l -667,-667 -2414,0 -667,667 c -188,-178 -350,-384 -480,-610 l 779,-779 0,-341 3150,0 z m -4077,823 c -109,-256 -179,-533 -204,-823 l 816,0 0,211 -612,612 z m -213,-1138 c 17,-612 237,-1174 596,-1621 l 229,230 0,1391 -825,0 z M 2119,9300 c 359,447 579,1009 596,1621 l -825,0 0,-1391 229,-230 z m 587,1936 c -25,290 -95,567 -204,823 l -612,-612 0,-211 816,0 z m -1073,1935 c -454,342 -1020,546 -1633,546 -613,0 -1179,-204 -1633,-546 l 556,-557 2154,0 556,557 z"
       id="path14"
       inkscape:connector-curvature="0"
       style="fill:#e32527" /></g></svg>