<?xml version="1.0" encoding="UTF-8" standalone="no"?>
<!-- Creator: CorelDRAW X7 -->

<svg
   xmlns:dc="http://purl.org/dc/elements/1.1/"
   xmlns:cc="http://creativecommons.org/ns#"
   xmlns:rdf="http://www.w3.org/1999/02/22-rdf-syntax-ns#"
   xmlns:svg="http://www.w3.org/2000/svg"
   xmlns="http://www.w3.org/2000/svg"
   xmlns:sodipodi="http://sodipodi.sourceforge.net/DTD/sodipodi-0.dtd"
   xmlns:inkscape="http://www.inkscape.org/namespaces/inkscape"
   xml:space="preserve"
   width="7.8740005in"
   height="7.8740005in"
   version="1.1"
   style="clip-rule:evenodd;fill-rule:evenodd;image-rendering:optimizeQuality;shape-rendering:geometricPrecision;text-rendering:geometricPrecision"
   viewBox="0 0 7874.0005 7874.0005"
   id="svg3490"
   inkscape:version="0.91 r13725"
   sodipodi:docname="Nomads - Corregidor Bandits.svg"><metadata
     id="metadata3538"><rdf:RDF><cc:Work
         rdf:about=""><dc:format>image/svg+xml</dc:format><dc:type
           rdf:resource="http://purl.org/dc/dcmitype/StillImage" /></cc:Work></rdf:RDF></metadata><sodipodi:namedview
     pagecolor="#ffffff"
     bordercolor="#666666"
     borderopacity="1"
     objecttolerance="10"
     gridtolerance="10"
     guidetolerance="10"
     inkscape:pageopacity="0"
     inkscape:pageshadow="2"
     inkscape:window-width="640"
     inkscape:window-height="480"
     id="namedview3536"
     showgrid="false"
     inkscape:zoom="0.23838384"
     inkscape:cx="736.83001"
     inkscape:cy="849.33005"
     inkscape:window-x="0"
     inkscape:window-y="0"
     inkscape:window-maximized="0"
     inkscape:current-layer="svg3490" /><defs
     id="defs3492"><style
       type="text/css"
       id="style3494"><![CDATA[
    .fil4 {fill:none}
    .fil0 {fill:black}
    .fil1 {fill:#FFA000}
    .fil2 {fill:white}
    .fil3 {fill:black;fill-rule:nonzero}
    .fil5 {fill:white;fill-rule:nonzero}
   ]]></style></defs><g
     id="Layer_x0020_1"
     transform="translate(3937,-7063)"><metadata
       id="CorelCorpID_0Corel-Layer" /><circle
       class="fil0"
       cy="11000"
       r="3937"
       id="circle3498"
       cx="0"
       style="fill:#000000" /><circle
       class="fil1"
       cy="11000"
       r="3760"
       id="circle3500"
       cx="0"
       style="fill:#ffa000" /><path
       class="fil0"
       d="m 2142,9504 -503,157 c -12,-90 -30,-177 -56,-262 282,-222 559,-846 559,-1194 0,-118 -40,-236 -118,-236 -154,0 -344,558 -861,770 -16,-14 -32,-28 -49,-41 -28,-24 -58,-46 -88,-67 221,-140 565,-221 565,-466 0,-196 -630,-669 -1182,-669 -393,0 630,394 630,591 0,122 -381,149 -606,285 -142,-33 -288,-49 -433,-49 -145,0 -291,16 -433,49 -225,-136 -606,-163 -606,-285 0,-197 1023,-591 630,-591 -552,0 -1182,473 -1182,669 0,245 344,326 565,466 -30,21 -60,43 -88,67 -17,13 -33,27 -49,41 -517,-212 -707,-770 -861,-770 -78,0 -118,118 -118,236 0,348 277,972 559,1194 -26,85 -44,172 -56,262 l -503,-157 c 79,223 158,446 236,669 -65,223 -131,446 -196,670 l 520,-228 c 24,134 54,268 88,400 -334,192 -608,795 -608,1245 0,106 0,275 78,275 140,0 192,-143 237,-275 37,-111 178,-397 490,-594 71,206 150,413 236,617 -143,206 -215,558 -215,1040 0,394 74,472 158,472 84,0 157,-78 157,-275 0,-220 27,-481 193,-609 34,66 69,131 104,195 97,176 204,359 326,519 78,101 198,249 338,249 140,0 260,-148 338,-249 122,-160 229,-343 326,-519 35,-64 70,-129 104,-195 166,128 193,389 193,609 0,197 73,275 157,275 84,0 158,-78 158,-472 0,-482 -72,-834 -215,-1040 86,-204 165,-411 236,-617 312,197 453,483 490,594 45,132 97,275 237,275 78,0 78,-169 78,-275 0,-450 -274,-1053 -608,-1245 34,-132 64,-266 88,-400 l 520,228 c -65,-224 -131,-447 -196,-670 78,-223 157,-446 236,-669 z"
       id="path3502"
       inkscape:connector-curvature="0"
       style="fill:#000000" /><path
       class="fil0"
       d="m 2260,8220 c 807,657 1323,1658 1323,2780 l -512,0 c 0,-871 -363,-1658 -946,-2217 80,-199 132,-402 135,-563 z m -4385,563 c -583,559 -946,1346 -946,2217 l -512,0 c 0,-1122 516,-2123 1323,-2780 3,161 55,364 135,563 z"
       id="path3504"
       inkscape:connector-curvature="0"
       style="fill:#000000" /><path
       class="fil1"
       d="m 0,8480 c 712,0 1496,433 1496,1418 0,1496 -1220,3819 -1496,3819 -276,0 -1496,-2323 -1496,-3819 0,-985 784,-1418 1496,-1418 z"
       id="path3506"
       inkscape:connector-curvature="0"
       style="fill:#ffa000" /><g
       id="_861343360"><path
         class="fil2"
         d="m 1347,10951 c -26,102 -54,205 -84,308 -226,100 -505,174 -672,174 -161,0 -322,-26 -397,-57 -19,-100 -37,-201 -53,-308 89,96 260,129 410,129 220,0 488,-63 796,-246 z"
         id="path3509"
         inkscape:connector-curvature="0"
         style="fill:#ffffff" /><path
         class="fil0"
         d="m 101,10730 c 74,19 197,34 332,34 236,0 669,-40 906,-158 l -394,-275 -433,-79 -431,143 c 4,120 11,231 20,335 z"
         id="path3511"
         inkscape:connector-curvature="0"
         style="fill:#000000" /><path
         class="fil2"
         d="m 153,10689 c 22,6 45,9 69,11 69,6 142,5 211,5 125,0 291,-11 453,-35 -74,-64 -145,-103 -256,-103 -179,0 -338,47 -477,122 z"
         id="path3513"
         inkscape:connector-curvature="0"
         style="fill:#ffffff" /><path
         class="fil2"
         d="m 1425,10593 c -10,57 -22,115 -35,174 -201,-257 -540,-436 -878,-436 -137,0 -329,122 -424,225 -4,-74 -7,-151 -8,-232 126,-127 334,-190 471,-190 385,0 676,217 874,459 z"
         id="path3515"
         inkscape:connector-curvature="0"
         style="fill:#ffffff" /></g><g
       id="_861339936"><path
         class="fil2"
         d="m -1347,10951 c 26,102 54,205 84,308 226,100 505,174 672,174 161,0 322,-26 397,-57 19,-100 37,-201 53,-308 -89,96 -260,129 -410,129 -220,0 -488,-63 -796,-246 z"
         id="path3518"
         inkscape:connector-curvature="0"
         style="fill:#ffffff" /><path
         class="fil0"
         d="m -101,10730 c -74,19 -197,34 -332,34 -236,0 -669,-40 -906,-158 l 394,-275 433,-79 431,143 c -4,120 -11,231 -20,335 z"
         id="path3520"
         inkscape:connector-curvature="0"
         style="fill:#000000" /><path
         class="fil2"
         d="m -153,10689 c -22,6 -45,9 -69,11 -69,6 -142,5 -211,5 -125,0 -291,-11 -453,-35 74,-64 145,-103 256,-103 179,0 338,47 477,122 z"
         id="path3522"
         inkscape:connector-curvature="0"
         style="fill:#ffffff" /><path
         class="fil2"
         d="m -1425,10593 c 10,57 22,115 35,174 201,-257 540,-436 878,-436 137,0 329,122 424,225 4,-74 7,-151 8,-232 -126,-127 -334,-190 -471,-190 -385,0 -676,217 -874,459 z"
         id="path3524"
         inkscape:connector-curvature="0"
         style="fill:#ffffff" /></g><path
       class="fil2"
       d="m 1496,9897 0,1 c 0,84 -4,171 -11,260 C 1212,9590 679,9169 0,9169 c -679,0 -1212,421 -1485,989 -7,-89 -11,-176 -11,-260 l 0,-1 c 295,-533 814,-905 1496,-905 682,0 1201,372 1496,905 z"
       id="path3526"
       inkscape:connector-curvature="0"
       style="fill:#ffffff" /><path
       class="fil2"
       d="m 0,12693 c 131,0 246,-56 307,-138 167,-21 332,-56 505,-99 49,-108 97,-220 145,-335 -231,68 -462,100 -693,112 -65,-56 -159,-91 -264,-91 -105,0 -199,35 -264,91 -230,-12 -462,-45 -693,-112 43,105 87,207 132,306 171,51 343,96 514,123 61,85 177,143 311,143 z"
       id="path3528"
       inkscape:connector-curvature="0"
       style="fill:#ffffff" /><path
       class="fil3"
       d="m 0,12053 c 204,0 453,120 453,345 0,224 -249,344 -453,344 -204,0 -453,-120 -453,-344 0,-225 249,-345 453,-345 z m 0,128 c -111,0 -295,84 -295,217 0,132 184,216 295,216 111,0 295,-84 295,-216 0,-133 -184,-217 -295,-217 z"
       id="path3530"
       inkscape:connector-curvature="0"
       style="fill:#000000;fill-rule:nonzero" /><circle
       class="fil4"
       cy="11000"
       r="3898"
       id="circle3532"
       cx="0"
       style="fill:none" /><path
       class="fil5"
       d="m -3142,11440 c -15,-84 -42,-122 -81,-116 l -256,45 c -45,8 -60,58 -44,150 l 48,276 c 3,18 -5,29 -24,32 -21,4 -33,-4 -36,-22 l -50,-286 c -23,-134 7,-209 90,-223 l 259,-45 c 78,-14 129,45 152,176 l 51,291 c 3,18 -5,29 -24,32 -20,4 -32,-4 -35,-22 l -50,-288 z m 145,847 c 49,-16 61,-64 35,-143 l -57,-173 c -28,-83 -66,-117 -115,-101 l -227,75 c -46,15 -56,65 -28,148 l 56,169 c 27,82 63,115 110,100 l 226,-75 z m -203,147 c -84,28 -150,-30 -198,-173 l -44,-134 c -47,-142 -28,-226 56,-254 l 232,-77 c 84,-27 149,30 196,172 l 44,134 c 47,142 29,228 -55,255 l -231,77 z m 517,396 c 38,-22 37,-70 -4,-142 l -163,-285 -163,93 169,296 c 37,65 72,88 103,70 l 58,-32 z m -15,94 c -70,40 -138,5 -202,-107 l -92,-163 37,350 c 0,15 -4,25 -14,31 -8,4 -17,6 -27,5 -9,-2 -17,-7 -22,-15 -2,-5 -3,-10 -3,-16 l -40,-486 -155,89 c -19,10 -34,5 -46,-17 -13,-22 -10,-39 8,-50 l 398,-226 c 13,-8 24,-5 32,10 l 183,320 c 69,122 67,205 -8,248 l -49,27 z m 410,380 c 34,-29 24,-75 -31,-138 l -214,-248 -142,122 223,259 c 49,56 87,72 114,49 l 50,-44 z m 5,96 c -62,53 -135,31 -219,-67 l -122,-141 104,336 c 3,15 0,25 -8,33 -7,6 -16,9 -26,10 -9,0 -18,-3 -24,-11 -3,-4 -5,-8 -6,-14 l -133,-469 -135,116 c -16,14 -33,12 -49,-7 -17,-20 -17,-37 -1,-51 l 346,-299 c 12,-10 23,-9 34,4 l 241,279 c 92,106 105,188 40,245 l -42,36 z m 80,114 353,276 c 14,11 14,25 2,41 -13,16 -26,19 -40,8 l -353,-277 -59,75 c -27,35 -8,77 57,128 l 256,201 c 14,11 16,25 4,40 -13,17 -27,19 -42,7 l -257,-201 c -104,-82 -131,-155 -80,-219 l 161,-206 c 52,-65 131,-56 238,28 l 70,55 c 14,11 15,24 3,40 -12,15 -25,18 -39,6 l -47,-36 c -83,-65 -138,-80 -165,-45 l -62,79 z m 865,729 c -37,74 -112,82 -225,25 l -185,-94 c -122,-63 -165,-131 -127,-204 l 120,-236 c 37,-72 117,-76 241,-13 l 72,37 c 16,8 19,21 11,38 -9,18 -22,23 -38,15 l -52,-27 c -92,-47 -147,-52 -166,-15 l -120,236 c -19,37 11,76 89,116 l 182,93 c 67,34 110,32 129,-4 l 62,-122 c 9,-18 25,-21 48,-9 23,11 30,26 20,44 l -61,120 z m 130,142 c -8,20 -24,25 -47,16 -24,-10 -32,-24 -25,-44 l 165,-422 c 8,-20 24,-25 49,-15 23,9 30,23 23,42 l -165,423 z m 698,-180 c 10,-43 -25,-74 -105,-92 l -328,-75 -87,379 326,75 c 81,18 127,4 138,-43 l 56,-244 z m 17,261 c -20,86 -94,115 -222,86 l -379,-87 c -16,-4 -22,-14 -18,-31 l 103,-449 c 3,-15 13,-20 29,-17 l 379,87 c 128,30 182,85 164,166 l -56,245 z m 581,-216 c 2,-51 -39,-78 -122,-80 l -183,-4 c -88,-2 -132,23 -133,75 l -5,238 c -1,49 42,75 130,76 l 178,4 c 86,2 129,-22 130,-71 l 5,-238 z m 71,241 c -2,89 -78,132 -228,128 l -141,-3 c -150,-3 -224,-49 -222,-137 l 5,-244 c 2,-88 78,-131 227,-128 l 141,3 c 151,4 225,49 223,137 l -5,244 z m 567,-321 c -5,-44 -50,-61 -132,-50 l -325,43 24,186 338,-45 c 74,-9 109,-32 104,-69 l -9,-65 z m 83,49 c 10,81 -49,130 -176,146 l -186,25 338,98 c 14,5 22,13 23,24 2,9 0,18 -5,27 -5,8 -13,13 -23,14 -5,1 -10,0 -15,-2 l -465,-147 23,177 c 3,21 -8,33 -33,36 -25,4 -40,-5 -43,-26 l -59,-454 c -2,-15 5,-24 22,-26 l 365,-48 c 140,-19 215,15 226,101 l 8,55 z m 286,-233 68,152 296,-134 c 65,-29 90,-61 75,-95 l -21,-47 c -16,-36 -55,-40 -116,-12 l -302,136 z m 156,357 320,-145 c 62,-28 86,-58 72,-90 l -20,-44 c -17,-37 -63,-38 -138,-4 l -300,136 66,147 z m 348,-478 c 19,42 10,82 -27,119 62,-8 104,12 126,60 l 10,23 c 34,75 -3,137 -111,186 l -367,166 c -15,7 -26,2 -33,-13 l -190,-420 c -6,-14 -2,-24 13,-31 l 350,-158 c 110,-50 182,-35 218,44 l 11,24 z m 235,28 251,-179 -265,-111 14,290 z m 321,-153 -318,226 4,152 c 0,7 -1,13 -4,18 -2,5 -5,9 -8,11 -9,6 -18,9 -29,9 -10,0 -18,-5 -25,-14 -3,-5 -5,-11 -6,-19 l -17,-526 c 0,-10 2,-20 7,-29 5,-9 11,-16 18,-21 16,-12 34,-14 54,-6 l 495,186 c 4,0 8,2 11,4 2,3 4,5 6,7 6,9 7,17 5,27 -3,9 -9,17 -17,23 -4,3 -9,5 -15,6 -6,1 -13,1 -20,-1 l -141,-53 z m 639,-492 c 12,12 19,24 18,36 0,13 -4,23 -13,32 -4,4 -8,8 -14,11 -6,3 -13,4 -21,4 l -602,50 279,265 c 16,15 15,32 -2,50 -17,17 -34,19 -49,4 l -317,-301 c -12,-11 -17,-23 -15,-35 1,-12 6,-22 14,-30 5,-5 10,-10 16,-13 7,-3 14,-5 22,-5 l 593,-52 -276,-262 c -15,-14 -14,-31 4,-50 16,-17 32,-18 47,-4 l 316,300 z m 63,-708 c -37,-23 -77,-1 -121,68 l -181,284 328,209 180,-282 c 45,-70 46,-118 6,-144 l -212,-135 z m 252,72 c 75,48 77,127 6,238 l -208,328 c -9,13 -21,16 -35,7 l -388,-248 c -13,-8 -16,-19 -7,-33 l 209,-328 c 71,-111 141,-144 212,-99 l 211,135 z m 155,-107 c 19,9 23,25 12,48 -10,23 -25,30 -44,22 l -413,-188 c -19,-9 -23,-25 -12,-49 10,-23 24,-30 44,-21 l 413,188 z m -261,-483 399,136 c 21,6 27,22 18,46 -8,24 -22,32 -42,25 l -399,-136 -68,199 c -6,18 -19,24 -39,17 -17,-6 -23,-18 -17,-36 l 160,-469 c 6,-17 17,-23 35,-17 20,7 27,19 21,36 l -68,199 z m 495,-682 c 77,13 105,83 83,209 l -58,333 c -4,19 -16,26 -37,22 -19,-3 -26,-14 -23,-32 l 60,-344 c 12,-69 -2,-106 -42,-113 l -43,-8 c -44,-8 -73,30 -87,111 l -27,152 c -22,131 -69,190 -139,178 l -51,-9 c -78,-14 -107,-78 -87,-192 l 14,-83 c 4,-19 15,-27 35,-23 19,3 27,14 24,33 l -17,95 c -10,57 7,89 50,96 l 38,7 c 36,6 60,-27 73,-100 l 27,-154 c 12,-70 31,-120 56,-151 25,-31 58,-43 98,-36 l 53,9 z"
       id="path3534"
       inkscape:connector-curvature="0"
       style="fill:#ffffff;fill-rule:nonzero" /></g></svg>