<?xml version="1.0" encoding="UTF-8" standalone="no"?>
<!-- Creator: CorelDRAW X7 -->

<svg
   xmlns:dc="http://purl.org/dc/elements/1.1/"
   xmlns:cc="http://creativecommons.org/ns#"
   xmlns:rdf="http://www.w3.org/1999/02/22-rdf-syntax-ns#"
   xmlns:svg="http://www.w3.org/2000/svg"
   xmlns="http://www.w3.org/2000/svg"
   xmlns:sodipodi="http://sodipodi.sourceforge.net/DTD/sodipodi-0.dtd"
   xmlns:inkscape="http://www.inkscape.org/namespaces/inkscape"
   xml:space="preserve"
   width="7.8740005in"
   height="7.8740005in"
   version="1.1"
   style="clip-rule:evenodd;fill-rule:evenodd;image-rendering:optimizeQuality;shape-rendering:geometricPrecision;text-rendering:geometricPrecision"
   viewBox="0 0 7874.0005 7874.0005"
   id="svg11026"
   inkscape:version="0.91 r13725"
   sodipodi:docname="image_6014.svg"><metadata
     id="metadata11040"><rdf:RDF><cc:Work
         rdf:about=""><dc:format>image/svg+xml</dc:format><dc:type
           rdf:resource="http://purl.org/dc/dcmitype/StillImage" /></cc:Work></rdf:RDF></metadata><sodipodi:namedview
     pagecolor="#ffffff"
     bordercolor="#666666"
     borderopacity="1"
     objecttolerance="10"
     gridtolerance="10"
     guidetolerance="10"
     inkscape:pageopacity="0"
     inkscape:pageshadow="2"
     inkscape:window-width="640"
     inkscape:window-height="480"
     id="namedview11038"
     showgrid="false"
     inkscape:zoom="0.23838384"
     inkscape:cx="736.83001"
     inkscape:cy="849.33005"
     inkscape:window-x="0"
     inkscape:window-y="0"
     inkscape:window-maximized="0"
     inkscape:current-layer="svg11026" /><defs
     id="defs11028"><style
       type="text/css"
       id="style11030"><![CDATA[
    .fil0 {fill:black}
    .fil1 {fill:white}
   ]]></style></defs><g
     id="Layer_x0020_1"
     transform="translate(3937,-7063)"><metadata
       id="CorelCorpID_0Corel-Layer" /><circle
       class="fil0"
       cy="11000"
       r="3937"
       id="circle11034"
       cx="0"
       style="fill:#000000" /><path
       class="fil1"
       d="m -1161,9445 -827,-315 216,748 807,335 -196,-768 z m 2657,728 669,-197 335,-905 c 669,394 1417,3464 -1181,4705 453,-729 335,-1615 138,-1772 177,-256 689,-1122 374,-1122 -256,0 -335,-379 -335,-709 z M 0,13382 c -79,0 -965,-1988 -965,-2362 119,0 197,-118 197,-315 0,-492 -552,-2238 -846,-2284 -59,-9 -52,-107 59,-177 194,-121 709,-315 1043,-275 -59,787 236,2637 473,2421 0,138 19,216 39,216 20,0 39,-78 39,-216 237,216 532,-1634 473,-2421 334,-40 849,154 1043,275 111,70 118,168 59,177 -294,46 -846,1792 -846,2284 0,197 78,315 197,315 0,374 -886,2362 -965,2362 z m -1496,-3209 -669,-197 -335,-905 c -669,394 -1417,3464 1181,4705 -453,-729 -335,-1615 -138,-1772 -177,-256 -689,-1122 -374,-1122 256,0 335,-379 335,-709 z m 2657,-728 827,-315 -216,748 -807,335 196,-768 z m -78,1673 452,-118 -196,551 -433,138 177,-571 z m -2166,0 -452,-118 196,551 433,138 -177,-571 z"
       id="path11036"
       inkscape:connector-curvature="0"
       style="fill:#ffffff" /></g></svg>