<?xml version="1.0" encoding="UTF-8" standalone="no"?>
<!-- Creator: CorelDRAW X7 -->

<svg
   xmlns:dc="http://purl.org/dc/elements/1.1/"
   xmlns:cc="http://creativecommons.org/ns#"
   xmlns:rdf="http://www.w3.org/1999/02/22-rdf-syntax-ns#"
   xmlns:svg="http://www.w3.org/2000/svg"
   xmlns="http://www.w3.org/2000/svg"
   xmlns:sodipodi="http://sodipodi.sourceforge.net/DTD/sodipodi-0.dtd"
   xmlns:inkscape="http://www.inkscape.org/namespaces/inkscape"
   xml:space="preserve"
   width="7.8740005in"
   height="7.8740005in"
   version="1.1"
   style="clip-rule:evenodd;fill-rule:evenodd;image-rendering:optimizeQuality;shape-rendering:geometricPrecision;text-rendering:geometricPrecision"
   viewBox="0 0 7874.0005 7874.0005"
   id="svg3540"
   inkscape:version="0.91 r13725"
   sodipodi:docname="Nomads - Corregidor Jaguars - [N3] [Vyo].svg"><metadata
     id="metadata3588"><rdf:RDF><cc:Work
         rdf:about=""><dc:format>image/svg+xml</dc:format><dc:type
           rdf:resource="http://purl.org/dc/dcmitype/StillImage" /></cc:Work></rdf:RDF></metadata><sodipodi:namedview
     pagecolor="#ffffff"
     bordercolor="#666666"
     borderopacity="1"
     objecttolerance="10"
     gridtolerance="10"
     guidetolerance="10"
     inkscape:pageopacity="0"
     inkscape:pageshadow="2"
     inkscape:window-width="640"
     inkscape:window-height="480"
     id="namedview3586"
     showgrid="false"
     inkscape:zoom="0.23838384"
     inkscape:cx="736.83001"
     inkscape:cy="849.33005"
     inkscape:window-x="0"
     inkscape:window-y="0"
     inkscape:window-maximized="0"
     inkscape:current-layer="svg3540" /><defs
     id="defs3542"><style
       type="text/css"
       id="style3544"><![CDATA[
    .fil2 {fill:none}
    .fil0 {fill:black}
    .fil1 {fill:#FFA000}
    .fil3 {fill:white;fill-rule:nonzero}
   ]]></style></defs><g
     id="Layer_x0020_1"
     transform="translate(3937,-7063)"><metadata
       id="CorelCorpID_0Corel-Layer" /><circle
       class="fil0"
       cy="11000"
       r="3937"
       id="circle3548"
       cx="0"
       style="fill:#000000" /><circle
       class="fil1"
       cy="11000"
       r="3780"
       id="circle3550"
       cx="0"
       style="fill:#ffa000" /><circle
       class="fil2"
       cy="11000"
       r="3898"
       id="circle3552"
       cx="0"
       style="fill:none" /><path
       class="fil3"
       d="m -3505,10573 c -10,72 2,110 35,115 l 219,30 c 39,6 65,-31 76,-110 l 32,-236 c 3,-15 12,-22 28,-20 18,3 26,12 24,27 l -34,245 c -16,115 -60,168 -132,158 l -221,-31 c -67,-9 -93,-70 -77,-183 l 34,-248 c 2,-16 12,-23 28,-20 17,2 24,11 22,27 l -34,246 z"
       id="path3554"
       inkscape:connector-curvature="0"
       style="fill:#ffffff;fill-rule:nonzero" /><path
       id="1"
       class="fil3"
       d="m -3236,9750 c -41,-15 -74,11 -98,78 l -52,146 c -25,71 -17,113 25,128 l 191,68 c 39,14 72,-14 97,-85 l 50,-142 c 25,-70 18,-111 -22,-125 l -191,-68 z m 214,7 c 71,26 85,99 42,220 l -40,113 c -43,120 -99,167 -171,142 l -196,-70 c -70,-25 -84,-97 -42,-217 l 40,-114 c 43,-120 100,-168 171,-143 l 196,69 z"
       inkscape:connector-curvature="0"
       style="fill:#ffffff;fill-rule:nonzero" /><path
       id="2"
       class="fil3"
       d="m -2949,9154 c -33,-19 -67,3 -102,65 l -136,243 139,78 142,-253 c 31,-55 33,-91 6,-106 l -49,-27 z m 76,-31 c 60,34 63,99 9,194 l -78,139 240,-181 c 10,-6 20,-7 28,-3 7,4 12,10 15,18 4,7 3,15 -1,22 -2,4 -5,7 -10,10 l -337,241 132,75 c 16,9 19,22 9,41 -11,19 -25,24 -41,15 l -339,-190 c -11,-7 -14,-16 -7,-29 l 154,-273 c 59,-104 120,-139 184,-103 l 42,24 z"
       inkscape:connector-curvature="0"
       style="fill:#ffffff;fill-rule:nonzero" /><path
       id="3"
       class="fil3"
       d="m -2542,8624 c -28,-25 -66,-11 -113,43 l -183,210 120,105 191,-219 c 42,-47 51,-82 27,-102 l -42,-37 z m 80,-15 c 52,46 42,110 -30,193 l -104,119 271,-127 c 11,-5 21,-4 28,2 6,6 10,12 11,20 2,9 0,16 -6,22 -3,4 -6,6 -11,7 l -380,168 115,100 c 14,12 14,26 -1,42 -14,17 -28,19 -42,7 l -293,-256 c -10,-9 -10,-19 -1,-29 l 206,-236 c 79,-90 146,-111 202,-63 l 35,31 z"
       inkscape:connector-curvature="0"
       style="fill:#ffffff;fill-rule:nonzero" /><path
       id="4"
       class="fil3"
       d="m -2306,8513 284,-255 c 11,-10 23,-9 35,4 11,13 11,25 0,35 l -284,255 54,61 c 25,27 64,18 116,-29 l 206,-185 c 12,-11 24,-10 35,2 12,14 12,26 0,37 l -208,186 c -84,75 -149,86 -195,34 l -149,-166 c -47,-53 -28,-118 59,-195 l 56,-51 c 11,-10 23,-9 34,4 11,12 11,24 0,34 l -38,34 c -66,59 -87,103 -62,131 l 57,64 z"
       inkscape:connector-curvature="0"
       style="fill:#ffffff;fill-rule:nonzero" /><path
       id="5"
       class="fil3"
       d="m -1371,8035 c 35,62 5,119 -89,172 l -153,86 c -102,58 -170,56 -205,-5 l -110,-196 c -34,-60 1,-119 104,-177 l 60,-34 c 13,-7 24,-4 32,11 8,15 6,26 -8,33 l -43,25 c -76,43 -106,80 -89,110 l 111,196 c 18,31 59,28 124,-8 l 152,-86 c 56,-31 75,-62 58,-93 l -57,-101 c -9,-15 -4,-28 16,-39 18,-11 32,-8 41,7 l 56,99 z"
       inkscape:connector-curvature="0"
       style="fill:#ffffff;fill-rule:nonzero" /><path
       id="6"
       class="fil3"
       d="m -1169,8046 c 7,16 0,29 -20,37 -20,8 -33,4 -40,-12 l -148,-358 c -7,-16 0,-29 21,-37 20,-8 33,-4 39,12 l 148,358 z"
       inkscape:connector-curvature="0"
       style="fill:#ffffff;fill-rule:nonzero" /><path
       id="7"
       class="fil3"
       d="m -717,7585 c -11,-36 -50,-44 -116,-25 l -275,82 94,318 273,-81 c 68,-20 96,-50 84,-90 l -60,-204 z m 121,186 c 22,73 -21,125 -129,157 l -317,94 c -13,4 -22,-1 -26,-15 l -111,-376 c -4,-13 1,-21 14,-25 l 318,-94 c 107,-32 171,-13 191,55 l 60,204 z"
       inkscape:connector-curvature="0"
       style="fill:#ffffff;fill-rule:nonzero" /><path
       id="8"
       class="fil3"
       d="m -62,7524 c -4,-44 -41,-63 -111,-57 l -155,13 c -75,6 -110,31 -107,74 l 17,203 c 3,41 42,59 117,53 l 151,-12 c 73,-6 108,-30 104,-71 l -16,-203 z m 81,198 c 6,75 -55,118 -183,129 l -120,10 c -126,10 -193,-23 -199,-98 l -17,-207 c -6,-75 55,-117 181,-128 l 120,-9 c 128,-11 195,21 201,96 l 17,207 z"
       inkscape:connector-curvature="0"
       style="fill:#ffffff;fill-rule:nonzero" /><path
       id="9"
       class="fil3"
       d="m 614,7575 c 6,-37 -27,-61 -97,-71 l -277,-38 -22,158 288,40 c 63,9 96,-2 101,-33 l 7,-56 z m 57,59 c -10,69 -69,96 -178,80 l -157,-21 255,156 c 10,8 15,16 13,25 -1,8 -4,15 -10,21 -6,6 -14,8 -22,7 -4,0 -8,-2 -12,-5 l -348,-226 -21,150 c -3,18 -15,26 -36,23 -22,-3 -31,-13 -29,-32 l 54,-385 c 2,-14 9,-19 23,-17 l 311,43 c 119,17 173,61 163,134 l -6,47 z"
       inkscape:connector-curvature="0"
       style="fill:#ffffff;fill-rule:nonzero" /><path
       id="10"
       class="fil3"
       d="m 1175,7939 c -27,79 -92,101 -196,66 l -34,-12 c -17,-6 -23,-17 -17,-34 5,-16 16,-21 33,-15 l 35,12 c 62,21 101,10 116,-34 l 92,-275 c 6,-17 19,-22 39,-15 21,7 29,19 23,36 l -91,271 z"
       inkscape:connector-curvature="0"
       style="fill:#ffffff;fill-rule:nonzero" /><path
       id="11"
       class="fil3"
       d="m 1412,7990 233,121 -19,-244 -214,123 z m 240,184 -295,-154 -114,62 c -5,3 -10,4 -15,4 -5,0 -8,0 -11,-2 -8,-4 -14,-10 -18,-18 -4,-8 -3,-16 1,-25 2,-4 6,-8 12,-11 l 393,-217 c 7,-4 15,-6 24,-6 9,0 17,2 23,6 15,8 23,20 26,38 l 50,447 c 1,4 1,7 0,10 0,3 -1,6 -2,8 -4,8 -11,12 -19,14 -8,1 -16,0 -23,-4 -4,-2 -8,-5 -11,-9 -3,-4 -6,-9 -7,-15 l -14,-128 z"
       inkscape:connector-curvature="0"
       style="fill:#ffffff;fill-rule:nonzero" /><path
       id="12"
       class="fil3"
       d="m 2220,8607 c -44,55 -109,49 -192,-19 l -138,-111 c -91,-73 -114,-138 -70,-192 l 142,-176 c 43,-53 110,-43 202,32 l 54,43 c 12,10 13,21 2,34 -10,13 -22,15 -34,5 l -39,-31 c -68,-55 -113,-69 -135,-42 l -141,176 c -23,28 -5,65 53,112 l 136,110 c 50,40 86,46 107,19 l 73,-90 c 12,-14 26,-14 43,0 17,14 20,27 9,41 l -72,89 z"
       inkscape:connector-curvature="0"
       style="fill:#ffffff;fill-rule:nonzero" /><path
       id="13"
       class="fil3"
       d="m 2654,9059 c -60,53 -137,26 -232,-80 l -65,-73 c -90,-100 -106,-177 -46,-230 l 217,-194 c 13,-12 27,-10 41,5 14,17 15,31 2,43 l -213,191 c -36,32 -26,80 31,144 l 79,88 c 62,69 111,87 147,55 l 213,-191 c 13,-12 27,-10 41,6 14,15 15,29 2,41 l -217,195 z"
       inkscape:connector-curvature="0"
       style="fill:#ffffff;fill-rule:nonzero" /><path
       id="14"
       class="fil3"
       d="m 2822,9242 129,229 118,-216 -247,-13 z m 101,285 -163,-289 -129,-10 c -6,-1 -11,-2 -15,-5 -4,-3 -7,-5 -9,-8 -4,-8 -6,-16 -5,-25 2,-9 6,-16 14,-20 5,-3 10,-4 17,-4 l 447,33 c 9,1 17,3 24,8 7,5 12,11 16,18 8,14 8,30 1,46 l -202,402 c -1,4 -3,7 -5,9 -2,2 -4,3 -6,4 -8,5 -16,5 -23,2 -8,-3 -14,-9 -18,-16 -2,-4 -4,-8 -4,-13 -1,-6 0,-11 2,-17 l 58,-115 z"
       inkscape:connector-curvature="0"
       style="fill:#ffffff;fill-rule:nonzero" /><path
       id="15"
       class="fil3"
       d="m 3359,10095 c 37,-12 44,-51 23,-119 l -84,-266 -152,48 87,277 c 19,60 43,86 73,77 l 53,-17 z m -29,76 c -66,21 -115,-21 -148,-126 l -48,-152 -32,298 c -3,12 -8,20 -17,23 -8,2 -16,2 -23,-1 -8,-3 -13,-8 -16,-16 -1,-4 -1,-9 0,-14 l 55,-411 -145,45 c -18,6 -30,-2 -36,-22 -7,-21 -1,-34 16,-40 l 372,-116 c 12,-4 21,0 25,14 l 94,299 c 36,114 19,183 -51,205 l -46,14 z"
       inkscape:connector-curvature="0"
       style="fill:#ffffff;fill-rule:nonzero" /><path
       id="16"
       class="fil3"
       d="m 3250,10780 c -66,10 -106,-40 -121,-147 l -39,-286 c -3,-16 5,-25 24,-27 16,-2 25,4 27,20 l 40,294 c 8,59 30,86 64,81 l 36,-5 c 38,-5 52,-42 42,-112 l -18,-131 c -15,-111 7,-171 68,-180 l 43,-6 c 67,-9 107,36 121,133 l 9,72 c 3,16 -5,25 -22,27 -16,3 -25,-4 -28,-20 l -11,-82 c -6,-48 -28,-70 -65,-65 l -33,4 c -31,5 -42,38 -33,100 l 18,133 c 8,59 6,105 -6,136 -13,32 -36,50 -70,55 l -46,6 z"
       inkscape:connector-curvature="0"
       style="fill:#ffffff;fill-rule:nonzero" /><circle
       class="fil2"
       cy="11000"
       r="3937"
       id="circle3572"
       cx="0"
       style="fill:none" /><circle
       class="fil2"
       cy="11000"
       r="3740"
       id="circle3574"
       cx="0"
       style="fill:none" /><path
       class="fil0"
       d="m 3583,11000 c 0,1893 -1468,3442 -3327,3573 l 0,-513 c 1576,-130 2815,-1450 2815,-3060 l 512,0 z m -3839,3573 c -1859,-131 -3327,-1680 -3327,-3573 l 512,0 c 0,1610 1239,2930 2815,3060 l 0,513 z"
       id="path3576"
       inkscape:connector-curvature="0"
       style="fill:#000000" /><path
       class="fil0"
       d="m 866,9012 c 197,0 276,98 315,334 13,77 39,453 827,453 240,0 315,0 512,0 433,0 393,414 393,1201 0,1093 -601,2045 -1492,2544 -95,-97 -202,-206 -316,-323 815,-407 1375,-1248 1375,-2221 0,-591 -59,-728 -413,-728 -199,0 -473,0 -709,0 -275,0 -302,-201 -413,-611 C 833,9252 787,9228 669,9228 l -1220,0 c -40,0 -35,-56 -20,-78 79,-119 197,-138 197,-296 -177,0 -276,158 -394,237 -39,26 -109,39 -157,39 -118,0 -247,-63 -355,0 -227,134 -472,315 -629,472 -20,20 -40,59 19,59 l 1359,0 c 241,0 469,259 531,493 l 701,2652 c -540,-550 -1110,-1097 -1331,-1097 -118,0 -335,177 -335,236 0,59 79,59 79,118 0,39 -79,79 -118,79 -59,0 -155,-41 -197,-118 l -453,-827 c 119,118 355,256 394,256 79,0 -59,-1260 -374,-1260 -157,0 -197,118 -197,276 0,133 20,275 59,413 l -590,-1063 c -26,-46 -23,-141 19,-177 296,-256 630,-453 945,-630 161,-90 394,-59 512,-40 27,5 60,0 79,-19 98,-99 374,-296 610,-276 0,118 -20,236 -79,335 l 1142,0 z m -2716,846 1004,0 c 195,0 398,186 452,374 l 315,1083 c 62,212 -197,98 -531,-394 -149,-218 -158,-433 -492,-689 137,256 275,591 275,866 0,98 -59,335 -98,256 -69,-137 -103,-627 -236,-925 -75,-165 -138,-413 -374,-413 -256,0 -276,177 -335,177 -59,0 -99,-99 -99,-197 0,-79 60,-138 119,-138 z"
       id="path3578"
       inkscape:connector-curvature="0"
       style="fill:#000000" /><path
       class="fil0"
       d="m -1102,9287 295,0 c -91,227 -433,414 -650,276 177,20 355,-39 355,-276 z"
       id="path3580"
       inkscape:connector-curvature="0"
       style="fill:#000000" /><path
       class="fil0"
       d="m -1614,9563 394,-295 c 0,157 -40,236 -217,216 l -177,79 z"
       id="path3582"
       inkscape:connector-curvature="0"
       style="fill:#000000" /><path
       class="fil0"
       d="m 633,11194 c 58,-70 33,-214 37,-228 9,-32 -21,-96 -56,-96 -29,0 -165,5 -184,25 -37,40 -15,137 61,78 25,-19 96,4 96,40 0,194 -40,125 -40,209 0,38 36,41 58,20 14,-13 18,-35 28,-48 z m -109,105 c 43,-25 17,-95 -54,-68 -26,9 -84,-45 -41,51 10,25 77,28 95,17 z m 902,760 c 2,1 64,95 118,-17 30,-64 109,-75 157,-122 11,-10 150,-94 159,-94 7,0 73,60 107,77 47,22 151,-58 151,-74 0,-194 -87,-70 -118,-76 -39,-9 -40,-2 -69,-34 -82,-89 -155,75 -252,61 -88,-12 -103,-31 -185,57 -21,23 -91,204 -68,222 z M 858,10594 c 34,-39 -60,-125 -60,-24 0,29 42,45 60,24 z m 21,1733 c 25,2 88,-57 39,-67 -5,-1 -65,-51 -65,9 0,14 5,57 26,58 z M -206,9597 c 50,-7 52,-65 6,-72 -27,-4 -56,-44 -56,24 0,17 32,50 50,48 z m 1368,2171 c 24,6 55,49 72,2 21,-58 -109,-89 -88,-30 4,10 2,25 16,28 z m 162,888 c -17,51 114,48 101,-9 -7,-25 -57,-30 -75,-19 -4,3 -24,22 -26,28 z M 909,11189 c -18,110 149,5 52,-43 -23,-11 -49,25 -52,43 z m 809,-541 c 51,77 107,11 67,-33 -50,-54 -21,-28 -79,-26 -25,1 7,50 12,59 z M 512,9663 c 20,6 30,30 58,0 55,-57 -71,-126 -92,-68 -5,14 19,63 34,68 z m 1366,1709 c 54,-52 -18,-46 -48,-49 -33,-2 -32,-45 -60,39 -11,35 71,46 108,10 z m -152,669 c 28,12 19,52 54,25 34,-27 55,-50 10,-84 -10,-7 -93,-43 -78,43 1,6 10,14 14,16 z M 304,11018 c 66,17 15,-30 63,-67 35,-27 -26,-98 -71,-59 -22,19 -26,117 8,126 z m 129,148 c 27,25 127,-5 104,-37 -8,-11 4,-40 -9,-48 -7,-5 -25,-52 -45,-27 -3,4 -95,20 -60,92 3,6 5,16 10,20 z M 326,9986 c 51,23 74,57 130,30 59,-28 -49,-100 -70,-111 -55,-28 -125,50 -60,81 z m 83,181 c -38,-73 -214,-185 -235,-179 -51,15 67,98 110,176 27,49 167,84 125,3 z m -30,633 c 50,9 157,-15 125,-85 -9,-19 17,-52 -54,-52 -37,0 -120,-158 -120,11 0,31 12,62 12,94 0,18 23,30 37,32 z M -114,9626 c 16,15 127,78 141,53 10,-18 34,-37 -3,-100 -17,-27 -21,-85 -58,-99 -42,-15 -3,-34 -89,-34 -84,0 36,100 12,121 -16,15 -16,44 -3,59 z m 2409,1369 c 44,42 78,-41 48,-98 -30,-59 69,-56 23,-109 -22,-25 -114,-130 -144,-62 -15,34 24,28 24,167 0,35 24,78 49,102 z M 514,9951 c 98,7 -64,-112 -117,-100 -37,9 -102,-73 -167,-63 -6,0 -146,-49 -103,74 11,32 29,135 76,67 25,-35 -30,-64 50,-64 42,0 83,-4 123,12 56,24 130,72 137,73 0,1 0,1 1,1 z m 792,1815 c 40,1 55,-19 80,-19 87,0 36,-105 2,-113 -26,-7 -36,-38 -67,-38 -25,0 -197,-48 -140,48 13,21 72,12 72,62 0,23 28,60 53,60 z m -573,-981 c 89,22 85,19 166,-17 147,-64 86,-192 -12,-112 -48,39 -130,-42 -163,52 -8,22 -28,67 9,77 z m -176,-325 c -73,-64 -147,-128 -242,-62 -24,16 -2,24 31,60 38,41 87,-5 169,95 33,40 66,109 89,12 11,-45 -15,-78 -47,-105 z M -64,9309 c -60,67 82,120 110,156 32,41 116,25 87,-36 -39,-81 54,-53 49,-132 -3,-51 -234,-20 -239,3 -1,5 -4,7 -7,9 z m 1543,3309 c 21,-11 26,-4 33,-31 5,-19 110,2 88,-95 -2,-6 -132,-60 -146,-60 -43,0 -117,8 -147,40 -89,97 39,72 82,91 25,11 54,74 90,55 z m -374,-1759 c 18,-9 39,81 100,60 119,-42 41,-83 -1,-170 -19,-40 -47,-92 -99,-58 -34,21 -42,70 -81,93 -96,53 -22,145 64,81 5,-4 11,-3 17,-6 z m 82,517 c -13,35 -80,68 -44,114 0,0 167,27 187,37 36,17 82,-40 57,-76 -29,-41 -76,-40 -19,-103 27,-29 -25,-62 -49,-62 -57,0 -123,66 -132,90 z M 630,10232 c 23,1 126,38 72,-84 -42,-97 -19,-67 -90,-153 -58,-71 -124,21 -61,52 28,14 53,99 -14,70 -70,-32 -98,94 -70,115 30,23 71,-32 151,-2 3,1 9,2 12,2 z m 1513,877 c 80,35 164,-9 86,-92 -23,-25 -91,-207 -143,-150 -38,43 30,115 -52,115 -41,0 -65,59 -44,90 23,33 102,15 153,37 z m -919,1332 c 81,28 147,-85 178,-70 32,15 70,-17 62,-48 -19,-76 -107,-2 -107,-91 0,-77 -137,-77 -137,-1 0,47 9,48 -18,89 -16,26 -31,102 22,121 z M -334,9642 c 120,61 42,-99 18,-142 -6,-10 -37,-126 29,-68 70,60 122,-42 28,-84 -2,-1 -119,-120 -171,-52 -38,52 -60,181 15,214 40,18 40,112 81,132 z m 1369,3090 c 12,17 48,128 153,91 47,-16 146,9 173,-4 28,-14 147,-19 59,-78 -53,-35 -70,-5 -168,-12 -133,-9 8,-87 4,-124 -3,-24 7,-48 -33,-48 -27,0 -49,56 -114,60 -40,3 -85,54 -81,92 0,4 4,19 7,23 z M 839,10476 c 35,-3 154,-56 135,21 -28,116 93,112 93,18 0,-17 95,-32 66,-91 -11,-23 -96,-29 -128,-61 -41,-38 -97,-10 -145,-18 -95,-15 -20,81 -105,81 -23,0 -46,-15 -69,-1 -26,15 -57,13 -29,84 14,35 73,13 90,-6 12,-14 74,-26 92,-27 z m 236,1284 c -2,-2 -119,-35 -70,-60 47,-24 154,-21 79,-90 -32,-30 -94,4 -162,-26 -41,-18 -78,51 -67,102 10,47 9,113 98,144 71,24 46,-20 144,71 53,48 172,12 115,-50 -29,-32 -87,-11 -111,-51 -7,-12 -17,-30 -26,-40 z m -193,-812 c -24,25 -62,4 -99,40 -17,17 -60,95 -81,123 -50,65 -12,147 57,178 32,15 97,-13 67,-57 -25,-35 52,-137 85,-144 35,-6 22,-29 73,-16 31,8 79,-20 67,-69 -6,-21 -124,-71 -142,-64 -8,2 -22,3 -27,9 z m -92,1489 c 74,-45 -26,-101 -26,-173 0,-102 76,-20 130,-174 46,-131 -114,-54 -135,-38 -20,15 -10,-14 -68,49 -41,46 -51,61 -51,124 0,41 1,212 68,212 26,0 57,15 82,0 z M 350,9786 c 20,8 37,31 61,31 32,0 90,51 117,26 7,-6 74,-7 96,-29 11,-11 58,-22 33,-51 -31,-34 -49,7 -179,-41 -112,-41 -116,-259 -184,-245 -79,17 -26,-18 -80,59 -62,89 58,173 113,228 6,7 14,19 23,22 z m 1645,1026 c 30,-35 29,-28 61,-70 63,-83 -154,-281 -222,-313 -18,-9 -108,-28 -125,-21 -34,15 -64,28 1,80 43,35 62,22 119,83 64,70 47,306 148,254 5,-3 14,-8 18,-13 z m -427,1480 c 67,45 45,30 124,10 46,-12 67,-66 116,-69 14,-1 141,-127 148,-170 20,-110 -19,-130 -39,-104 -15,20 -56,82 -61,85 -28,12 -49,82 -162,82 -30,0 -152,4 -169,25 -42,52 -2,98 37,134 3,3 2,5 6,7 z m 20,-703 c 9,1 79,9 85,11 66,25 288,-24 339,-122 18,-35 26,-104 -66,-48 -49,29 -78,17 -129,24 -72,9 -47,16 -132,-25 -25,-12 -43,-7 -63,-30 -76,-84 -133,24 -113,67 2,4 -5,68 39,103 13,10 22,20 40,20 z m -758,-83 c 14,-13 27,-20 38,-38 55,-91 151,-24 195,-87 20,-29 25,-66 49,-94 33,-38 172,-38 135,-114 -12,-24 -39,-218 -114,-149 -32,30 -1,132 -41,135 -39,2 -89,73 -92,117 -1,27 -83,50 -101,45 -113,-27 -176,129 -99,175 8,5 20,19 30,10 z m 158,729 c -42,34 53,114 -42,160 -50,24 -102,52 -112,114 -8,49 17,151 84,121 53,-23 45,-46 45,-122 0,-65 160,-61 127,-154 -21,-59 5,-106 49,-146 43,-40 28,-117 -14,-150 -27,-23 -60,-14 -86,-42 -18,-20 -64,-11 -64,60 0,68 83,90 13,159 z m 789,-1291 c 117,31 106,-81 -11,-132 -87,-39 -47,-65 -114,-127 -213,-198 -12,-163 -80,-255 -7,-9 -96,-20 -105,27 -4,22 -31,27 -31,56 0,37 -9,65 51,127 102,104 25,248 98,248 100,0 149,46 192,56 z m 385,463 c 73,-16 151,-99 79,-136 -64,-32 -104,49 -142,-91 -19,-69 -210,8 -249,-46 -31,-45 -148,-72 -189,-12 -44,62 -95,37 -128,101 -59,113 130,73 172,24 39,-43 101,-7 143,14 46,22 142,-40 169,18 14,27 20,54 38,80 19,27 73,55 107,48 z M 867,9845 c 20,-9 63,12 63,-50 0,-68 -103,-33 -86,-186 6,-54 -120,-80 -162,-161 -26,-50 7,-78 -91,-121 -35,-15 -93,32 -159,9 -146,-51 -101,110 -9,115 21,2 10,15 74,-4 60,-17 82,160 180,151 34,-3 41,102 27,122 -19,28 58,117 138,117 8,0 16,11 25,8 z"
       id="path3584"
       inkscape:connector-curvature="0"
       style="fill:#000000" /></g></svg>