<?xml version="1.0" encoding="UTF-8" standalone="no"?>
<!-- Creator: CorelDRAW X7 -->

<svg
   xmlns:dc="http://purl.org/dc/elements/1.1/"
   xmlns:cc="http://creativecommons.org/ns#"
   xmlns:rdf="http://www.w3.org/1999/02/22-rdf-syntax-ns#"
   xmlns:svg="http://www.w3.org/2000/svg"
   xmlns="http://www.w3.org/2000/svg"
   xmlns:sodipodi="http://sodipodi.sourceforge.net/DTD/sodipodi-0.dtd"
   xmlns:inkscape="http://www.inkscape.org/namespaces/inkscape"
   xml:space="preserve"
   width="7.8740005in"
   height="7.8740005in"
   version="1.1"
   style="clip-rule:evenodd;fill-rule:evenodd;image-rendering:optimizeQuality;shape-rendering:geometricPrecision;text-rendering:geometricPrecision"
   viewBox="0 0 7874.0005 7874.0005"
   id="svg12718"
   inkscape:version="0.91 r13725"
   sodipodi:docname="image_6025.svg"><metadata
     id="metadata12740"><rdf:RDF><cc:Work
         rdf:about=""><dc:format>image/svg+xml</dc:format><dc:type
           rdf:resource="http://purl.org/dc/dcmitype/StillImage" /></cc:Work></rdf:RDF></metadata><sodipodi:namedview
     pagecolor="#ffffff"
     bordercolor="#666666"
     borderopacity="1"
     objecttolerance="10"
     gridtolerance="10"
     guidetolerance="10"
     inkscape:pageopacity="0"
     inkscape:pageshadow="2"
     inkscape:window-width="640"
     inkscape:window-height="480"
     id="namedview12738"
     showgrid="false"
     inkscape:zoom="0.23838384"
     inkscape:cx="736.83001"
     inkscape:cy="849.33005"
     inkscape:window-x="0"
     inkscape:window-y="0"
     inkscape:window-maximized="0"
     inkscape:current-layer="svg12718" /><defs
     id="defs12720"><style
       type="text/css"
       id="style12722"><![CDATA[
    .fil1 {fill:#403273}
    .fil0 {fill:#FFF700}
   ]]></style></defs><g
     id="Layer_x0020_1"
     transform="translate(3937,-7063)"><metadata
       id="CorelCorpID_0Corel-Layer" /><circle
       class="fil0"
       cy="11000"
       r="3937"
       id="circle12726"
       cx="0"
       style="fill:#fff700" /><circle
       class="fil1"
       cy="11000"
       r="3780"
       id="circle12728"
       cx="0"
       style="fill:#403273" /><path
       class="fil0"
       d="m -959,12187 c 77,-4 192,90 192,320 0,384 -166,1024 -345,1433 319,0 769,-191 882,-512 141,-397 141,-793 141,-1177 0,-179 -307,-333 -486,-333 l -2123,0 -402,201 c 33,75 73,143 107,183 l 2034,-115 z"
       id="path12730"
       inkscape:connector-curvature="0"
       style="fill:#fff700" /><path
       class="fil0"
       d="m 959,12187 c -77,-4 -192,90 -192,320 0,384 166,1024 345,1433 -319,0 -769,-191 -882,-512 -141,-397 -141,-793 -141,-1177 0,-179 307,-333 486,-333 l 2123,0 402,201 c -33,75 -73,143 -107,183 L 959,12187 Z"
       id="path12732"
       inkscape:connector-curvature="0"
       style="fill:#fff700" /><path
       class="fil0"
       d="m -365,10599 c 4,101 -89,254 -318,254 -381,0 -1017,-220 -1423,-457 0,423 190,1016 508,1166 394,186 788,186 1169,186 178,0 331,-405 331,-642 l 0,-2803 -200,-531 c -74,43 -142,97 -182,141 l 115,2686 z"
       id="path12734"
       inkscape:connector-curvature="0"
       style="fill:#fff700" /><path
       class="fil0"
       d="m 365,10599 c -4,101 89,254 318,254 381,0 1017,-220 1423,-457 0,423 -190,1016 -508,1166 -394,186 -788,186 -1169,186 -178,0 -331,-405 -331,-642 l 0,-2803 200,-531 c 74,43 142,97 182,141 l -115,2686 z"
       id="path12736"
       inkscape:connector-curvature="0"
       style="fill:#fff700" /></g></svg>