<?xml version="1.0" encoding="UTF-8" standalone="no"?>
<!-- Creator: CorelDRAW X7 -->

<svg
   xmlns:dc="http://purl.org/dc/elements/1.1/"
   xmlns:cc="http://creativecommons.org/ns#"
   xmlns:rdf="http://www.w3.org/1999/02/22-rdf-syntax-ns#"
   xmlns:svg="http://www.w3.org/2000/svg"
   xmlns="http://www.w3.org/2000/svg"
   xmlns:sodipodi="http://sodipodi.sourceforge.net/DTD/sodipodi-0.dtd"
   xmlns:inkscape="http://www.inkscape.org/namespaces/inkscape"
   xml:space="preserve"
   width="7.8740005in"
   height="7.8740005in"
   version="1.1"
   style="clip-rule:evenodd;fill-rule:evenodd;image-rendering:optimizeQuality;shape-rendering:geometricPrecision;text-rendering:geometricPrecision"
   viewBox="0 0 7874.0005 7874.0005"
   id="svg5278"
   inkscape:version="0.91 r13725"
   sodipodi:docname="haqqislam_hunzakuts.svg"><metadata
     id="metadata5294"><rdf:RDF><cc:Work
         rdf:about=""><dc:format>image/svg+xml</dc:format><dc:type
           rdf:resource="http://purl.org/dc/dcmitype/StillImage" /></cc:Work></rdf:RDF></metadata><sodipodi:namedview
     pagecolor="#ffffff"
     bordercolor="#666666"
     borderopacity="1"
     objecttolerance="10"
     gridtolerance="10"
     guidetolerance="10"
     inkscape:pageopacity="0"
     inkscape:pageshadow="2"
     inkscape:window-width="640"
     inkscape:window-height="480"
     id="namedview5292"
     showgrid="false"
     inkscape:zoom="0.23838384"
     inkscape:cx="736.83001"
     inkscape:cy="849.33005"
     inkscape:window-x="0"
     inkscape:window-y="0"
     inkscape:window-maximized="0"
     inkscape:current-layer="svg5278" /><defs
     id="defs5280"><style
       type="text/css"
       id="style5282"><![CDATA[
    .fil1 {fill:#B2C801}
    .fil0 {fill:#EECE00}
    .fil2 {fill:#F8DB46}
   ]]></style></defs><g
     id="Layer_x0020_1"
     transform="translate(3937,-7063)"><metadata
       id="CorelCorpID_0Corel-Layer" /><circle
       class="fil0"
       cy="11000"
       r="3937"
       id="circle5286"
       cx="0"
       style="fill:#eece00" /><circle
       class="fil1"
       cy="11000"
       r="3819"
       id="circle5288"
       cx="0"
       style="fill:#b2c801" /><path
       class="fil2"
       d="m 2924,10199 c 357,1298 -188,2722 -1408,3426 -1450,837 -3304,341 -4141,-1109 -837,-1450 -341,-3304 1109,-4141 1220,-705 2726,-465 3672,493 -690,-570 -1688,-684 -2508,-210 -1055,608 -1416,1957 -807,3011 609,1055 1957,1416 3011,807 821,-473 1222,-1395 1072,-2277 z m -221,1394 c -152,746 -611,1427 -1322,1838 -1319,761 -3004,309 -3765,-1009 -761,-1318 -309,-3004 1009,-3765 630,-364 1345,-450 2003,-297 -597,-112 -1235,-19 -1803,309 -1261,728 -1694,2341 -965,3603 728,1262 2342,1694 3603,965 645,-372 1073,-975 1240,-1644 z"
       id="path5290"
       inkscape:connector-curvature="0"
       style="fill:#f8db46" /></g></svg>