<?xml version="1.0" encoding="UTF-8" standalone="no"?>
<!-- Creator: CorelDRAW X7 -->

<svg
   xmlns:dc="http://purl.org/dc/elements/1.1/"
   xmlns:cc="http://creativecommons.org/ns#"
   xmlns:rdf="http://www.w3.org/1999/02/22-rdf-syntax-ns#"
   xmlns:svg="http://www.w3.org/2000/svg"
   xmlns="http://www.w3.org/2000/svg"
   xmlns:sodipodi="http://sodipodi.sourceforge.net/DTD/sodipodi-0.dtd"
   xmlns:inkscape="http://www.inkscape.org/namespaces/inkscape"
   xml:space="preserve"
   width="7.8740005in"
   height="7.8740005in"
   version="1.1"
   style="clip-rule:evenodd;fill-rule:evenodd;image-rendering:optimizeQuality;shape-rendering:geometricPrecision;text-rendering:geometricPrecision"
   viewBox="0 0 7874.0005 7874.0005"
   id="svg3470"
   inkscape:version="0.91 r13725"
   sodipodi:docname="Aleph - Dactyl - [N3] [Vyo].svg"><metadata
     id="metadata3486"><rdf:RDF><cc:Work
         rdf:about=""><dc:format>image/svg+xml</dc:format><dc:type
           rdf:resource="http://purl.org/dc/dcmitype/StillImage" /></cc:Work></rdf:RDF></metadata><sodipodi:namedview
     pagecolor="#ffffff"
     bordercolor="#666666"
     borderopacity="1"
     objecttolerance="10"
     gridtolerance="10"
     guidetolerance="10"
     inkscape:pageopacity="0"
     inkscape:pageshadow="2"
     inkscape:window-width="640"
     inkscape:window-height="480"
     id="namedview3484"
     showgrid="false"
     inkscape:zoom="0.23838384"
     inkscape:cx="736.83001"
     inkscape:cy="849.33005"
     inkscape:window-x="0"
     inkscape:window-y="0"
     inkscape:window-maximized="0"
     inkscape:current-layer="svg3470" /><defs
     id="defs3472"><style
       type="text/css"
       id="style3474"><![CDATA[
    .fil1 {fill:black}
    .fil0 {fill:white}
   ]]></style></defs><g
     id="Layer_x0020_1"
     transform="translate(3937,-7063)"><metadata
       id="CorelCorpID_0Corel-Layer" /><circle
       class="fil0"
       cy="11000"
       r="3937"
       id="circle3478"
       cx="0"
       style="fill:#ffffff" /><path
       class="fil1"
       d="m 741,7293 c 1733,345 3039,1873 3039,3707 0,2087 -1693,3780 -3780,3780 -2087,0 -3780,-1693 -3780,-3780 0,-1834 1306,-3362 3039,-3707 57,-11 113,26 124,83 12,58 -25,114 -83,125 l 0,0 c -1293,314 -2253,1479 -2253,2869 0,1631 1322,2953 2953,2953 1631,0 2953,-1322 2953,-2953 0,-1390 -960,-2555 -2253,-2869 l 0,0 c -58,-11 -95,-67 -83,-125 11,-57 67,-94 124,-83 z"
       id="path3480"
       inkscape:connector-curvature="0"
       style="fill:#000000" /><path
       class="fil1"
       d="m 1555,11354 1004,0 c 0,138 -177,355 -374,355 -157,0 -216,-20 -394,-20 -197,0 -380,304 -531,492 -158,197 -374,315 -689,315 -315,0 -532,-177 -571,-236 -39,59 -256,236 -571,236 -315,0 -531,-118 -689,-315 -151,-188 -334,-492 -531,-492 -177,0 -237,20 -394,20 -197,0 -374,-217 -374,-355 l 1004,0 c -9,-77 -45,-145 -99,-177 -197,-118 -649,-295 -856,-442 -208,-148 -280,-486 -190,-641 l 1370,792 c 26,15 50,29 74,44 40,-176 -59,-290 -124,-376 -163,-217 -556,-552 -717,-805 -163,-254 -92,-656 75,-786 l 1153,1475 c 10,14 20,27 30,40 80,-98 74,-174 52,-265 -66,-264 -286,-759 -336,-1055 -50,-298 173,-640 377,-695 l 485,1809 c 111,414 5,492 -54,551 79,39 256,157 315,315 59,-158 236,-276 315,-315 -59,-59 -165,-137 -54,-551 L 746,8463 c 204,55 427,397 377,695 -50,296 -270,791 -336,1055 -22,91 -28,167 52,265 10,-13 20,-26 30,-40 L 2022,8963 c 167,130 238,532 75,786 -161,253 -554,588 -717,805 -65,86 -164,200 -124,376 24,-15 48,-29 74,-44 l 1370,-792 c 90,155 18,493 -190,641 -207,147 -659,324 -856,442 -54,32 -90,100 -99,177 z m -2146,79 c -157,-177 -157,-177 -177,-157 -19,19 -59,196 20,275 79,79 236,59 256,40 20,-20 22,-22 -99,-158 z m 1182,0 c 157,-177 157,-177 177,-157 19,19 59,196 -20,275 -79,79 -236,59 -256,40 -20,-20 -22,-22 99,-158 z"
       id="path3482"
       inkscape:connector-curvature="0"
       style="fill:#000000" /></g></svg>