<?xml version="1.0" encoding="UTF-8" standalone="no"?>
<!-- Creator: CorelDRAW X7 -->

<svg
   xmlns:dc="http://purl.org/dc/elements/1.1/"
   xmlns:cc="http://creativecommons.org/ns#"
   xmlns:rdf="http://www.w3.org/1999/02/22-rdf-syntax-ns#"
   xmlns:svg="http://www.w3.org/2000/svg"
   xmlns="http://www.w3.org/2000/svg"
   xmlns:sodipodi="http://sodipodi.sourceforge.net/DTD/sodipodi-0.dtd"
   xmlns:inkscape="http://www.inkscape.org/namespaces/inkscape"
   xml:space="preserve"
   width="7.8740005in"
   height="7.8740005in"
   version="1.1"
   style="clip-rule:evenodd;fill-rule:evenodd;image-rendering:optimizeQuality;shape-rendering:geometricPrecision;text-rendering:geometricPrecision"
   viewBox="0 0 7874.0005 7874.0005"
   id="svg12150"
   inkscape:version="0.91 r13725"
   sodipodi:docname="image_6024.svg"><metadata
     id="metadata12176"><rdf:RDF><cc:Work
         rdf:about=""><dc:format>image/svg+xml</dc:format><dc:type
           rdf:resource="http://purl.org/dc/dcmitype/StillImage" /></cc:Work></rdf:RDF></metadata><sodipodi:namedview
     pagecolor="#ffffff"
     bordercolor="#666666"
     borderopacity="1"
     objecttolerance="10"
     gridtolerance="10"
     guidetolerance="10"
     inkscape:pageopacity="0"
     inkscape:pageshadow="2"
     inkscape:window-width="640"
     inkscape:window-height="480"
     id="namedview12174"
     showgrid="false"
     inkscape:zoom="0.23838384"
     inkscape:cx="736.83001"
     inkscape:cy="849.33005"
     inkscape:window-x="0"
     inkscape:window-y="0"
     inkscape:window-maximized="0"
     inkscape:current-layer="svg12150" /><defs
     id="defs12152"><style
       type="text/css"
       id="style12154"><![CDATA[
    .fil1 {fill:#403273}
    .fil0 {fill:#FFF700}
   ]]></style></defs><g
     id="Layer_x0020_1"
     transform="translate(3937,-7063)"><metadata
       id="CorelCorpID_0Corel-Layer" /><circle
       class="fil0"
       cy="11000"
       r="3937"
       id="circle12158"
       cx="0"
       style="fill:#fff700" /><circle
       class="fil1"
       cy="11000"
       r="3780"
       id="circle12160"
       cx="0"
       style="fill:#403273" /><path
       class="fil0"
       d="m 1028,10598 c -82,5 -207,-96 -207,-344 0,-413 180,-1102 372,-1543 -344,0 -828,206 -950,551 -152,427 -152,854 -152,1268 0,192 331,358 524,358 l 2286,0 433,-217 c -35,-80 -79,-153 -115,-197 l -2191,124 z"
       id="path12162"
       inkscape:connector-curvature="0"
       style="fill:#fff700" /><path
       class="fil0"
       d="m -1028,10598 c 82,5 207,-96 207,-344 0,-413 -180,-1102 -372,-1543 344,0 828,206 950,551 152,427 152,854 152,1268 0,192 -331,358 -524,358 l -2286,0 -433,-217 c 35,-80 79,-153 115,-197 l 2191,124 z"
       id="path12164"
       inkscape:connector-curvature="0"
       style="fill:#fff700" /><path
       class="fil0"
       d="m 1028,11402 c -82,-5 -207,96 -207,344 0,413 180,1102 372,1543 -344,0 -828,-206 -950,-551 -152,-427 -152,-854 -152,-1268 0,-192 331,-358 524,-358 l 2286,0 433,217 c -35,80 -79,153 -115,197 l -2191,-124 z"
       id="path12166"
       inkscape:connector-curvature="0"
       style="fill:#fff700" /><path
       class="fil0"
       d="m -1028,11402 c 82,-5 207,96 207,344 0,413 -180,1102 -372,1543 344,0 828,-206 950,-551 152,-427 152,-854 152,-1268 0,-192 -331,-358 -524,-358 l -2286,0 -433,217 c 35,80 79,153 115,197 l 2191,-124 z"
       id="path12168"
       inkscape:connector-curvature="0"
       style="fill:#fff700" /><polygon
       class="fil0"
       points="0,7535 -354,8244 0,8953 354,8244 "
       id="polygon12170"
       style="fill:#fff700" /><polygon
       class="fil0"
       points="0,13047 -354,13756 0,14465 354,13756 "
       id="polygon12172"
       style="fill:#fff700" /></g></svg>