<?xml version="1.0" encoding="UTF-8" standalone="no"?>
<!-- Creator: CorelDRAW X7 -->

<svg
   xmlns:dc="http://purl.org/dc/elements/1.1/"
   xmlns:cc="http://creativecommons.org/ns#"
   xmlns:rdf="http://www.w3.org/1999/02/22-rdf-syntax-ns#"
   xmlns:svg="http://www.w3.org/2000/svg"
   xmlns="http://www.w3.org/2000/svg"
   xmlns:sodipodi="http://sodipodi.sourceforge.net/DTD/sodipodi-0.dtd"
   xmlns:inkscape="http://www.inkscape.org/namespaces/inkscape"
   xml:space="preserve"
   width="7.8740005in"
   height="7.8740005in"
   version="1.1"
   style="clip-rule:evenodd;fill-rule:evenodd;image-rendering:optimizeQuality;shape-rendering:geometricPrecision;text-rendering:geometricPrecision"
   viewBox="0 0 7874.0005 7874.0005"
   id="svg3949"
   inkscape:version="0.91 r13725"
   sodipodi:docname="Haqqislam - Saladin - [N3] [Vyo].svg"><metadata
     id="metadata3969"><rdf:RDF><cc:Work
         rdf:about=""><dc:format>image/svg+xml</dc:format><dc:type
           rdf:resource="http://purl.org/dc/dcmitype/StillImage" /></cc:Work></rdf:RDF></metadata><sodipodi:namedview
     pagecolor="#ffffff"
     bordercolor="#666666"
     borderopacity="1"
     objecttolerance="10"
     gridtolerance="10"
     guidetolerance="10"
     inkscape:pageopacity="0"
     inkscape:pageshadow="2"
     inkscape:window-width="640"
     inkscape:window-height="480"
     id="namedview3967"
     showgrid="false"
     inkscape:zoom="0.23838384"
     inkscape:cx="736.83001"
     inkscape:cy="849.33005"
     inkscape:window-x="0"
     inkscape:window-y="0"
     inkscape:window-maximized="0"
     inkscape:current-layer="svg3949" /><defs
     id="defs3951"><style
       type="text/css"
       id="style3953"><![CDATA[
    .fil0 {fill:black}
    .fil3 {fill:#B2C801}
    .fil2 {fill:white}
    .fil1 {fill:white;fill-rule:nonzero}
   ]]></style></defs><g
     id="Layer_x0020_1"
     transform="translate(3937,-7063)"><metadata
       id="CorelCorpID_0Corel-Layer" /><circle
       class="fil0"
       cy="11000"
       r="3937"
       id="circle3957"
       cx="0"
       style="fill:#000000" /><path
       class="fil1"
       d="m -2840,10889 675,-675 0,446 -341,340 1693,1692 -446,0 -1581,-1581 -111,-111 111,-111 z m 2499,2276 341,341 1693,-1693 0,445 -1582,1582 -111,111 -111,-111 -675,-675 445,0 z m 2506,-1825 341,-340 -1693,-1693 445,0 1582,1582 111,111 -111,111 -675,675 0,-446 z M 340,8835 0,8494 l -1693,1693 0,-445 1582,-1582 111,-111 111,111 675,675 -446,0 z"
       id="path3959"
       inkscape:connector-curvature="0"
       style="fill:#ffffff;fill-rule:nonzero" /><path
       class="fil2"
       d="m 0,10724 c 152,0 276,124 276,276 0,152 -124,276 -276,276 -152,0 -276,-124 -276,-276 0,-152 124,-276 276,-276 z M 0,9346 c 457,0 870,186 1169,485 299,299 485,712 485,1169 0,457 -186,870 -485,1169 -299,299 -712,485 -1169,485 -457,0 -870,-186 -1169,-485 -299,-299 -485,-712 -485,-1169 0,-457 186,-870 485,-1169 299,-299 712,-485 1169,-485 z m 915,572 C 684,9722 388,9598 64,9584 c 29,360 187,684 427,925 20,19 40,38 61,57 69,-245 195,-466 363,-648 z M -64,9584 c -324,14 -620,138 -851,334 168,182 294,403 363,648 21,-19 41,-38 61,-57 240,-241 398,-565 427,-925 z m -938,414 c -243,242 -398,572 -414,938 285,-23 547,-126 764,-288 -61,-247 -183,-469 -350,-650 z m -414,1066 c 16,366 171,696 414,938 167,-181 289,-403 350,-650 -217,-162 -479,-265 -764,-288 z m 501,1018 c 231,196 527,320 851,334 -29,-360 -187,-684 -427,-925 -20,-19 -40,-38 -61,-57 -69,245 -195,466 -363,648 z m 979,334 c 324,-14 620,-138 851,-334 -168,-182 -294,-403 -363,-648 -21,19 -41,38 -61,57 -240,241 -398,565 -427,925 z m 938,-414 c 243,-242 398,-572 414,-938 -285,23 -547,126 -764,288 61,247 183,469 350,650 z m 414,-1066 c -16,-366 -171,-696 -414,-938 -167,181 -289,403 -350,650 217,162 479,265 764,288 z m -2520,64 c 172,48 333,125 477,225 11,-74 17,-149 17,-225 0,-76 -6,-151 -17,-225 -144,100 -305,177 -477,225 z m 1625,305 c -19,-99 -29,-201 -29,-305 0,-104 10,-206 29,-305 -39,-33 -77,-67 -113,-103 -191,-191 -333,-429 -408,-696 -75,267 -217,505 -408,696 -36,36 -74,70 -113,103 19,99 29,201 29,305 0,104 -10,206 -29,305 39,33 77,67 113,103 191,191 333,429 408,696 75,-267 217,-505 408,-696 36,-36 74,-70 113,-103 z m 106,-530 c -11,74 -17,149 -17,225 0,76 6,151 17,225 144,-100 305,-177 477,-225 -172,-48 -333,-125 -477,-225 z"
       id="path3961"
       inkscape:connector-curvature="0"
       style="fill:#ffffff" /><path
       class="fil1"
       d="m -2087,12929 0,-953 315,315 0,481 2394,0 -315,315 -2236,0 -158,0 0,-158 z m 3377,-157 482,0 0,-2394 315,314 0,2237 0,158 -158,0 -954,0 315,-315 z m 482,-3063 0,-481 -2394,0 314,-315 2237,0 158,0 0,158 0,953 -315,-315 z m -3063,-481 -481,0 0,2394 -315,-314 0,-2237 0,-158 158,0 953,0 -315,315 z"
       id="path3963"
       inkscape:connector-curvature="0"
       style="fill:#ffffff;fill-rule:nonzero" /><path
       class="fil3"
       d="m 0,7142 c 2131,0 3858,1727 3858,3858 0,2131 -1727,3858 -3858,3858 -2131,0 -3858,-1727 -3858,-3858 0,-2131 1727,-3858 3858,-3858 z m 0,275 c 1979,0 3583,1604 3583,3583 0,1979 -1604,3583 -3583,3583 -1979,0 -3583,-1604 -3583,-3583 0,-1979 1604,-3583 3583,-3583 z"
       id="path3965"
       inkscape:connector-curvature="0"
       style="fill:#b2c801" /></g></svg>