<?xml version="1.0" encoding="UTF-8" standalone="no"?>
<!-- Creator: CorelDRAW X7 -->

<svg
   xmlns:dc="http://purl.org/dc/elements/1.1/"
   xmlns:cc="http://creativecommons.org/ns#"
   xmlns:rdf="http://www.w3.org/1999/02/22-rdf-syntax-ns#"
   xmlns:svg="http://www.w3.org/2000/svg"
   xmlns="http://www.w3.org/2000/svg"
   xmlns:sodipodi="http://sodipodi.sourceforge.net/DTD/sodipodi-0.dtd"
   xmlns:inkscape="http://www.inkscape.org/namespaces/inkscape"
   xml:space="preserve"
   width="7.8740005in"
   height="7.8740005in"
   version="1.1"
   style="clip-rule:evenodd;fill-rule:evenodd;image-rendering:optimizeQuality;shape-rendering:geometricPrecision;text-rendering:geometricPrecision"
   viewBox="0 0 7874.0005 7874.0005"
   id="svg3400"
   inkscape:version="0.91 r13725"
   sodipodi:docname="Nomads - Clockmakers - [N3] [Vyo].svg"><metadata
     id="metadata3462"><rdf:RDF><cc:Work
         rdf:about=""><dc:format>image/svg+xml</dc:format><dc:type
           rdf:resource="http://purl.org/dc/dcmitype/StillImage" /></cc:Work></rdf:RDF></metadata><sodipodi:namedview
     pagecolor="#ffffff"
     bordercolor="#666666"
     borderopacity="1"
     objecttolerance="10"
     gridtolerance="10"
     guidetolerance="10"
     inkscape:pageopacity="0"
     inkscape:pageshadow="2"
     inkscape:window-width="640"
     inkscape:window-height="480"
     id="namedview3460"
     showgrid="false"
     inkscape:zoom="0.23838384"
     inkscape:cx="736.83001"
     inkscape:cy="849.33005"
     inkscape:window-x="0"
     inkscape:window-y="0"
     inkscape:window-maximized="0"
     inkscape:current-layer="svg3400" /><defs
     id="defs3402"><style
       type="text/css"
       id="style3404"><![CDATA[
    .fil3 {fill:none}
    .fil0 {fill:#FFA000}
    .fil2 {fill:#FFD600}
    .fil1 {fill:white}
    .fil4 {fill:black;fill-rule:nonzero}
   ]]></style></defs><g
     id="Layer_x0020_1"
     transform="translate(3937,-7063)"><metadata
       id="CorelCorpID_0Corel-Layer" /><circle
       class="fil0"
       cy="11000"
       r="3937"
       id="circle3408"
       cx="0"
       style="fill:#ffa000" /><circle
       class="fil1"
       cy="11000"
       r="3740"
       id="circle3410"
       cx="0"
       style="fill:#ffffff" /><path
       class="fil0"
       d="m 0,8402 c 597,0 1147,201 1586,540 -61,23 -119,56 -171,100 -89,74 -150,170 -183,274 C 887,9063 461,8913 0,8913 c -1152,0 -2087,935 -2087,2087 0,331 77,643 214,921 -107,14 -212,58 -301,132 -53,44 -95,96 -128,152 -189,-360 -296,-770 -296,-1205 0,-1435 1163,-2598 2598,-2598 z m -1232,4282 c 345,253 771,403 1232,403 1152,0 2087,-935 2087,-2087 0,-331 -77,-643 -214,-921 107,-14 212,-58 301,-132 53,-44 95,-96 128,-152 189,360 296,770 296,1205 0,1435 -1163,2598 -2598,2598 -597,0 -1147,-201 -1586,-540 61,-23 119,-56 171,-100 89,-74 150,-170 183,-274 z"
       id="path3412"
       inkscape:connector-curvature="0"
       style="fill:#ffa000" /><circle
       class="fil0"
       cx="-1417"
       cy="11000"
       r="433"
       id="circle3414"
       style="fill:#ffa000" /><circle
       class="fil0"
       cx="1417"
       cy="11000"
       r="433"
       id="circle3416"
       style="fill:#ffa000" /><circle
       class="fil0"
       cy="9583"
       r="433"
       id="circle3418"
       cx="0"
       style="fill:#ffa000" /><circle
       class="fil0"
       cy="12417"
       r="433"
       id="circle3420"
       cx="0"
       style="fill:#ffa000" /><circle
       class="fil0"
       transform="matrix(0.819152,0.573576,-0.573576,0.819152,-1829.12,13612.3)"
       r="433"
       id="circle3422"
       cx="0"
       cy="0"
       style="fill:#ffa000" /><circle
       class="fil0"
       transform="matrix(-0.819152,-0.573576,0.573576,-0.819152,1829.12,8387.74)"
       r="433"
       id="circle3424"
       cx="0"
       cy="0"
       style="fill:#ffa000" /><circle
       class="fil2"
       transform="matrix(-0.642788,-0.766044,0.766044,-0.642788,1794.47,9494.26)"
       r="433"
       id="circle3426"
       cx="0"
       cy="0"
       style="fill:#ffd600" /><circle
       class="fil2"
       transform="matrix(0.642788,0.766044,-0.766044,0.642788,-1794.47,12505.7)"
       r="433"
       id="circle3428"
       cx="0"
       cy="0"
       style="fill:#ffd600" /><ellipse
       class="fil3"
       transform="matrix(-1.03473,1.23314,-1.5966,-1.3397,-2.22748e-4,11000)"
       rx="2421"
       ry="1870"
       id="ellipse3430"
       cx="0"
       cy="0"
       style="fill:none" /><path
       class="fil4"
       d="m -3542,11556 c 7,50 21,73 41,70 l 176,-27 c 25,-3 33,-33 24,-88 l -30,-198 c -4,-23 7,-37 31,-41 25,-3 39,6 43,30 l 31,205 c 16,106 -11,165 -81,176 l -185,28 c -67,10 -108,-37 -124,-142 l -32,-207 c -3,-24 7,-37 32,-41 25,-4 39,6 42,29 l 32,206 z"
       id="path3432"
       inkscape:connector-curvature="0"
       style="fill:#000000;fill-rule:nonzero" /><path
       id="1"
       class="fil4"
       d="m -3265,10984 c -3,123 -41,183 -113,181 l -251,-7 c -25,-1 -37,-15 -36,-44 1,-28 14,-42 39,-41 l 247,7 c 25,0 39,-31 41,-95 l 6,-212 c 0,-24 13,-35 39,-34 23,0 35,12 34,36 l -6,209 z"
       inkscape:connector-curvature="0"
       style="fill:#000000;fill-rule:nonzero" /><path
       id="2"
       class="fil4"
       d="m -3466,10277 c -28,-5 -46,16 -55,63 l -25,128 c -10,51 0,79 27,84 l 160,31 c 27,5 45,-18 55,-69 l 23,-124 c 10,-50 1,-77 -26,-83 l -159,-30 z m 180,-52 c 72,14 97,78 76,192 l -19,100 c -22,114 -69,165 -141,151 l -171,-32 c -72,-14 -97,-78 -76,-193 l 19,-99 c 22,-115 69,-165 142,-151 l 170,32 z"
       inkscape:connector-curvature="0"
       style="fill:#000000;fill-rule:nonzero" /><path
       id="3"
       class="fil4"
       d="m -3403,9870 c -17,47 -16,75 3,81 l 168,61 c 24,8 45,-14 64,-67 l 67,-188 c 8,-22 24,-29 47,-21 24,9 31,24 23,46 l -70,195 c -36,101 -88,140 -155,116 l -176,-63 c -63,-23 -77,-84 -41,-183 l 71,-198 c 8,-22 23,-29 46,-21 24,8 32,24 24,46 l -71,196 z"
       inkscape:connector-curvature="0"
       style="fill:#000000;fill-rule:nonzero" /><path
       id="4"
       class="fil4"
       d="m -3097,9440 230,-159 c 7,-5 14,-7 21,-7 6,-1 13,1 18,4 5,2 8,5 12,9 3,4 6,8 7,13 2,5 3,10 3,15 0,5 -2,10 -4,15 -2,3 -4,6 -6,9 -2,3 -5,5 -8,7 l -256,165 103,54 c 23,12 27,30 14,54 -13,25 -30,32 -53,20 l -286,-151 c -22,-11 -26,-30 -13,-55 13,-24 30,-30 52,-18 l 99,52 -10,-290 c 0,-8 1,-15 5,-22 2,-5 6,-9 10,-13 5,-3 10,-6 15,-7 5,-2 10,-3 16,-2 5,0 10,1 14,4 6,3 10,7 13,12 3,5 4,12 5,21 l -1,270 z"
       inkscape:connector-curvature="0"
       style="fill:#000000;fill-rule:nonzero" /><path
       id="5"
       class="fil4"
       d="m -2382,8699 c 20,16 20,35 2,57 -17,21 -35,24 -55,8 l -170,-139 69,283 c 4,21 0,38 -12,54 -14,16 -31,24 -51,23 l -294,-9 170,139 c 19,16 20,35 3,56 -18,22 -37,25 -56,9 l -244,-200 c -24,-20 -26,-41 -7,-65 12,-14 28,-21 50,-21 l 357,8 -83,-347 c -4,-18 0,-34 13,-49 19,-24 41,-26 65,-6 l 243,199 z"
       inkscape:connector-curvature="0"
       style="fill:#000000;fill-rule:nonzero" /><path
       id="6"
       class="fil4"
       d="m -2268,8411 141,-112 -157,-53 16,165 z m 218,-82 -204,164 9,101 c 1,7 -1,13 -4,19 -3,6 -7,11 -11,15 -4,3 -9,5 -14,7 -5,2 -11,2 -16,2 -6,0 -11,-1 -16,-3 -5,-2 -9,-6 -13,-10 -4,-6 -7,-13 -8,-21 l -32,-375 c -2,-11 0,-20 4,-29 4,-9 9,-16 16,-21 7,-6 15,-10 24,-11 10,-2 19,-1 29,2 l 358,112 0,0 c 9,3 16,7 21,13 3,5 5,9 6,15 2,5 2,10 0,15 -1,5 -2,10 -5,15 -3,5 -6,9 -11,12 -5,4 -11,7 -17,8 -6,2 -13,1 -21,-1 l -95,-29 z"
       inkscape:connector-curvature="0"
       style="fill:#000000;fill-rule:nonzero" /><path
       id="7"
       class="fil4"
       d="m -1790,8025 280,-6 c 8,0 15,1 21,5 6,3 10,8 13,13 2,5 4,9 5,14 0,5 0,10 -1,15 -1,5 -3,10 -6,14 -3,4 -7,8 -12,11 -3,1 -6,2 -9,4 -4,1 -8,1 -12,1 l -303,-2 56,101 c 12,22 6,40 -18,53 -25,14 -44,10 -56,-12 l -156,-283 c -12,-22 -5,-40 20,-54 24,-13 42,-8 54,13 l 54,98 150,-247 c 4,-7 10,-12 16,-16 5,-3 11,-4 16,-5 6,0 12,0 17,2 5,1 10,4 14,7 4,3 7,7 10,11 3,6 4,12 4,18 -1,6 -3,13 -8,20 l -149,225 z"
       inkscape:connector-curvature="0"
       style="fill:#000000;fill-rule:nonzero" /><path
       id="8"
       class="fil4"
       d="m -1364,7770 288,-99 c 21,-8 36,0 44,24 8,23 2,39 -20,46 l -287,100 16,45 c 7,22 34,25 80,9 l 218,-75 c 22,-8 37,0 45,24 8,23 1,38 -20,46 l -220,76 c -99,34 -160,19 -183,-46 l -60,-176 c -12,-33 -8,-62 12,-87 20,-26 55,-47 106,-65 l 60,-21 c 22,-7 37,1 45,25 8,23 1,38 -20,46 l -41,14 c -61,21 -87,42 -80,64 l 17,50 z"
       inkscape:connector-curvature="0"
       style="fill:#000000;fill-rule:nonzero" /><path
       id="9"
       class="fil4"
       d="m -562,7493 c -5,-23 -31,-30 -79,-20 l -215,42 20,99 223,-43 c 42,-9 62,-21 58,-39 l -7,-39 z m 90,22 c 13,67 -31,110 -131,130 l -59,11 173,39 c 8,2 15,6 20,11 5,6 8,12 9,18 1,5 1,11 0,16 -1,5 -3,10 -5,14 -3,5 -6,9 -10,12 -5,3 -9,5 -15,6 -6,1 -12,1 -18,-1 l 0,0 -314,-85 21,108 c 5,24 -7,40 -34,45 -28,6 -45,-4 -50,-29 l -62,-319 c -5,-22 4,-35 25,-39 l 259,-51 c 108,-21 169,4 183,75 l 8,39 z"
       inkscape:connector-curvature="0"
       style="fill:#000000;fill-rule:nonzero" /><path
       id="10"
       class="fil4"
       d="m 71,7632 c 0,66 -50,100 -150,100 l -241,1 c -24,0 -35,-12 -35,-38 -1,-24 11,-36 35,-36 l 247,-1 c 39,-1 59,-11 59,-33 l -1,-22 c 0,-24 -24,-35 -73,-35 l -110,0 c -104,1 -156,-30 -157,-91 l 0,-37 c 0,-68 46,-101 140,-102 l 61,0 c 24,0 35,12 35,38 1,24 -11,36 -35,36 l -69,1 c -31,0 -47,12 -47,34 l 0,17 c 1,21 22,31 64,31 l 111,-1 c 110,-1 165,33 166,99 l 0,39 z"
       inkscape:connector-curvature="0"
       style="fill:#000000;fill-rule:nonzero" /><ellipse
       class="fil3"
       transform="matrix(-0.140299,-1.60363,2.07628,-0.181651,1.16773e-5,11000)"
       rx="2421"
       ry="1870"
       id="ellipse3444"
       cx="0"
       cy="0"
       style="fill:none" /><path
       class="fil4"
       d="m 3455,11974 -83,-29 -69,204 c -14,40 -11,63 7,69 l 28,10 c 19,6 34,-9 46,-45 l 71,-209 z m -152,-54 -80,-27 -75,221 c -13,37 -11,58 5,63 l 26,9 c 20,7 37,-13 53,-59 l 71,-207 z m -15,381 c -28,-10 -44,-32 -50,-67 -28,32 -59,42 -91,31 l -17,-5 c -66,-23 -83,-79 -53,-170 l 93,-271 c 7,-21 21,-27 42,-20 l 310,105 c 21,7 28,21 21,42 l -88,260 c -16,45 -36,76 -61,93 -24,17 -54,19 -89,8 l -17,-6 z"
       id="path3446"
       inkscape:connector-curvature="0"
       style="fill:#000000;fill-rule:nonzero" /><path
       id="path3448"
       class="fil4"
       d="m 3071,12544 -86,158 165,-12 -79,-146 z m -169,161 126,-231 -47,-89 c -4,-6 -5,-13 -5,-19 1,-7 3,-13 5,-18 3,-4 6,-8 11,-12 4,-4 8,-6 14,-8 5,-2 10,-3 15,-3 6,0 11,1 16,4 6,4 11,9 16,16 l 174,333 c 5,9 7,19 7,28 0,10 -2,18 -6,26 -5,8 -11,15 -19,20 -7,5 -17,8 -27,9 l -374,35 1,0 c -9,1 -17,0 -24,-4 -5,-3 -9,-6 -12,-11 -3,-4 -5,-9 -6,-14 -1,-5 -1,-11 -1,-16 1,-5 3,-10 5,-15 4,-6 8,-11 13,-14 5,-4 12,-6 20,-7 l 98,-10 z"
       inkscape:connector-curvature="0"
       style="fill:#000000;fill-rule:nonzero" /><path
       id="path3450"
       class="fil4"
       d="m 2774,13083 -256,113 c -7,3 -15,4 -21,3 -7,-1 -12,-3 -18,-7 -3,-3 -7,-7 -9,-12 -3,-4 -4,-9 -5,-14 -1,-5 -1,-10 0,-15 1,-5 4,-10 7,-14 2,-3 5,-5 7,-7 3,-3 7,-4 11,-6 l 280,-114 -90,-73 c -20,-15 -21,-34 -4,-55 17,-22 36,-25 55,-10 l 253,202 c 19,15 20,34 3,56 -17,21 -35,24 -55,9 l -87,-70 -44,287 c -1,7 -4,14 -9,20 -3,5 -8,8 -13,11 -5,2 -10,4 -16,5 -5,0 -10,0 -15,-2 -6,-1 -10,-3 -14,-7 -5,-3 -8,-8 -10,-14 -2,-6 -2,-13 -1,-21 l 51,-265 z"
       inkscape:connector-curvature="0"
       style="fill:#000000;fill-rule:nonzero" /><path
       id="path3452"
       class="fil4"
       d="m 2131,13646 c -53,-56 -34,-128 59,-217 l 59,-57 c 88,-85 159,-100 213,-44 l 168,175 c 18,18 16,37 -4,57 -21,20 -40,21 -57,3 l -163,-170 c -23,-23 -56,-14 -100,28 l -71,67 c -47,47 -60,82 -38,105 l 163,170 c 18,18 16,37 -5,57 -20,19 -38,19 -55,1 l -169,-175 z"
       inkscape:connector-curvature="0"
       style="fill:#000000;fill-rule:nonzero" /><path
       id="path3454"
       class="fil4"
       d="m 1586,13920 c -4,-7 -7,-14 -8,-20 -1,-7 -1,-13 0,-19 2,-6 5,-12 8,-16 4,-5 8,-10 14,-13 5,-3 11,-6 18,-7 7,-2 13,-2 20,-1 l 389,64 -129,-202 c -13,-21 -8,-40 15,-55 24,-15 43,-12 57,9 l 168,263 c 4,6 6,13 7,19 1,7 1,13 -1,19 -1,6 -4,11 -8,16 -4,5 -8,9 -14,13 -5,3 -12,6 -19,8 -6,1 -13,1 -20,0 l -386,-61 128,199 c 13,21 8,39 -16,54 -24,15 -42,13 -56,-8 l -167,-262 z"
       inkscape:connector-curvature="0"
       style="fill:#000000;fill-rule:nonzero" /><path
       id="path3456"
       class="fil4"
       d="m 1391,13998 c -11,-23 -4,-40 21,-53 26,-13 44,-8 55,14 l 147,289 c 11,22 3,40 -23,53 -25,13 -43,8 -54,-14 l -146,-289 z"
       inkscape:connector-curvature="0"
       style="fill:#000000;fill-rule:nonzero" /><path
       id="path3458"
       class="fil4"
       d="m 843,14209 c -2,-8 -3,-15 -2,-22 0,-7 2,-13 5,-18 4,-5 7,-10 12,-14 5,-3 11,-6 17,-8 6,-2 12,-3 19,-2 7,0 14,2 20,4 l 358,166 -71,-229 c -7,-24 3,-40 29,-48 27,-9 45,-1 52,23 l 92,298 c 2,8 3,15 2,21 -1,7 -3,13 -6,18 -3,5 -7,10 -12,14 -5,3 -11,6 -17,8 -6,2 -13,3 -20,2 -7,0 -14,-2 -20,-5 l -355,-162 69,226 c 8,24 -2,40 -29,48 -27,8 -44,0 -51,-23 l -92,-297 z"
       inkscape:connector-curvature="0"
       style="fill:#000000;fill-rule:nonzero" /></g></svg>