<?xml version="1.0" encoding="UTF-8" standalone="no"?>
<!-- Creator: CorelDRAW X7 -->

<svg
   xmlns:dc="http://purl.org/dc/elements/1.1/"
   xmlns:cc="http://creativecommons.org/ns#"
   xmlns:rdf="http://www.w3.org/1999/02/22-rdf-syntax-ns#"
   xmlns:svg="http://www.w3.org/2000/svg"
   xmlns="http://www.w3.org/2000/svg"
   xmlns:sodipodi="http://sodipodi.sourceforge.net/DTD/sodipodi-0.dtd"
   xmlns:inkscape="http://www.inkscape.org/namespaces/inkscape"
   xml:space="preserve"
   width="7.8740005in"
   height="7.8740005in"
   version="1.1"
   style="clip-rule:evenodd;fill-rule:evenodd;image-rendering:optimizeQuality;shape-rendering:geometricPrecision;text-rendering:geometricPrecision"
   viewBox="0 0 7874.0005 7874.0005"
   id="svg3784"
   inkscape:version="0.91 r13725"
   sodipodi:docname="PanOceania - Crusader Brethren - [N3] [Vyo].svg"><metadata
     id="metadata3817"><rdf:RDF><cc:Work
         rdf:about=""><dc:format>image/svg+xml</dc:format><dc:type
           rdf:resource="http://purl.org/dc/dcmitype/StillImage" /></cc:Work></rdf:RDF></metadata><sodipodi:namedview
     pagecolor="#ffffff"
     bordercolor="#666666"
     borderopacity="1"
     objecttolerance="10"
     gridtolerance="10"
     guidetolerance="10"
     inkscape:pageopacity="0"
     inkscape:pageshadow="2"
     inkscape:window-width="640"
     inkscape:window-height="480"
     id="namedview3815"
     showgrid="false"
     inkscape:zoom="0.23838384"
     inkscape:cx="736.83001"
     inkscape:cy="849.33005"
     inkscape:window-x="0"
     inkscape:window-y="0"
     inkscape:window-maximized="0"
     inkscape:current-layer="svg3784" /><defs
     id="defs3786"><style
       type="text/css"
       id="style3788"><![CDATA[
    .fil3 {fill:none}
    .fil0 {fill:black}
    .fil2 {fill:#E2001A}
    .fil1 {fill:white}
    .fil4 {fill:white;fill-rule:nonzero}
   ]]></style></defs><g
     id="Layer_x0020_1"
     transform="translate(3937,-7063)"><metadata
       id="CorelCorpID_0Corel-Layer" /><circle
       class="fil0"
       cy="11000"
       r="3937"
       id="circle3792"
       cx="0"
       style="fill:#000000" /><circle
       class="fil1"
       cy="11000"
       r="2992"
       id="circle3794"
       cx="0"
       style="fill:#ffffff" /><path
       class="fil2"
       d="m 930,10016 -654,0 0,-734 192,-192 c 32,-32 32,-85 0,-117 L 58,8564 c -32,-33 -84,-33 -117,0 l -409,409 c -32,32 -32,85 0,117 l 192,192 0,734 -654,0 -193,-193 c -32,-32 -84,-32 -117,0 l -409,410 c -32,32 -32,85 0,117 l 409,409 c 33,33 85,33 117,0 l 193,-192 654,0 0,2151 -192,192 c -32,32 -32,85 0,117 l 410,409 c 32,33 84,33 116,0 l 410,-409 c 32,-32 32,-85 0,-117 l -192,-192 0,-2151 654,0 193,192 c 32,33 84,33 117,0 l 409,-409 c 32,-32 32,-85 0,-117 l -409,-410 c -33,-32 -85,-32 -117,0 l -193,193 z"
       id="path3796"
       inkscape:connector-curvature="0"
       style="fill:#e2001a" /><circle
       class="fil3"
       cy="11000"
       r="3898"
       id="circle3798"
       cx="0"
       style="fill:none" /><path
       class="fil4"
       d="m -3022,12113 -281,384 92,176 474,-11 -65,-126 -354,11 -11,-22 211,-285 -66,-127 z m 197,629 -254,164 61,95 254,-164 -61,-95 z m 104,-67 -71,46 61,95 71,-46 -61,-95 z m -185,331 c -27,22 -39,41 -41,66 -2,36 16,70 84,156 54,69 92,109 119,122 30,16 62,11 97,-17 53,-42 53,-84 0,-153 -72,-93 -83,-108 -93,-123 -11,-15 -11,-26 -2,-34 15,-12 33,2 77,58 23,29 35,50 37,61 1,4 -1,7 -7,15 l 71,90 c 27,-24 36,-39 37,-59 1,-34 -17,-67 -81,-148 -51,-65 -87,-103 -110,-116 -32,-18 -63,-13 -99,15 -51,39 -50,84 2,152 68,87 85,110 94,123 9,14 8,27 -2,34 -17,14 -35,1 -80,-57 -44,-55 -51,-77 -32,-95 l -71,-90 z m 780,726 c -42,47 -44,46 -151,-47 -103,-90 -103,-93 -32,-175 42,-48 63,-64 82,-63 18,1 37,15 98,67 22,20 50,46 64,60 20,20 26,29 25,38 -1,9 -3,14 -19,33 l 98,86 14,-16 c 46,-53 56,-86 39,-125 -13,-30 -41,-60 -123,-132 -165,-143 -209,-167 -262,-143 -24,12 -50,37 -114,111 -32,37 -55,65 -67,80 -28,40 -33,68 -20,100 14,37 51,76 174,183 73,64 112,92 145,106 44,17 78,4 122,-46 4,-5 10,-13 25,-31 l -98,-86 z m 220,-12 -162,255 95,61 67,-106 c 25,-39 37,-51 54,-58 16,-5 39,-1 60,12 20,13 32,27 34,39 2,10 -1,21 -12,39 l -2,2 0,1 90,57 11,-17 c 24,-38 32,-61 30,-85 -4,-29 -25,-56 -68,-83 -53,-34 -88,-39 -127,-18 l -4,-3 24,-38 -90,-58 z m 560,646 125,-275 -103,-47 -50,111 c -24,51 -34,64 -54,70 -18,5 -39,1 -75,-16 -38,-17 -54,-29 -60,-45 -6,-17 -3,-30 15,-70 l 57,-126 -103,-47 -57,126 c -34,75 -38,98 -25,135 13,36 43,62 107,91 69,31 108,33 139,5 l 5,3 -18,41 97,44 z m 391,8 c -16,31 -38,33 -99,12 -29,-10 -52,-22 -63,-32 -15,-14 -16,-31 -3,-67 13,-38 25,-54 43,-56 14,-2 40,4 70,14 62,22 80,40 72,74 l 109,38 c 17,-54 17,-80 0,-106 -20,-31 -59,-53 -153,-86 -96,-33 -137,-40 -172,-27 -32,12 -51,39 -75,108 -26,75 -28,109 -7,138 22,30 56,49 144,80 112,39 150,44 186,25 26,-12 39,-30 57,-77 l -109,-38 z m 212,-139 -67,295 110,25 68,-294 -111,-26 z m 28,-121 -19,83 110,26 19,-83 -110,-26 z m 238,266 c 7,-27 16,-29 96,-18 68,9 76,16 70,63 l -2,16 -5,-1 c -16,-21 -30,-27 -82,-34 -81,-11 -112,-13 -140,-9 -45,6 -69,33 -76,87 -10,71 18,97 118,110 74,10 103,11 123,5 21,-6 33,-15 45,-33 l 4,1 -5,41 107,14 24,-180 c 7,-55 4,-78 -12,-101 -22,-29 -45,-36 -143,-49 -93,-12 -146,-13 -173,-3 -36,14 -52,33 -61,76 l 112,15 z m 65,89 c 48,6 66,9 73,13 11,6 16,16 15,27 -4,27 -27,31 -106,21 -59,-8 -76,-17 -73,-41 1,-11 8,-19 20,-23 9,-3 34,-2 71,3 z m 284,36 -3,113 136,3 3,-113 -136,-3 z m 425,119 303,-53 c 141,-25 177,-37 204,-72 26,-34 28,-78 9,-188 -12,-68 -19,-94 -33,-122 -20,-37 -52,-56 -95,-57 -37,-1 -51,1 -158,19 l -303,53 73,420 z m 107,-129 -36,-208 177,-31 c 78,-13 95,-14 111,-1 15,12 24,34 33,86 16,95 9,103 -107,123 l -178,31 z m 764,-168 c 5,27 -7,36 -75,58 -38,13 -63,17 -77,12 -13,-4 -19,-13 -29,-42 l 280,-93 c -3,-12 -7,-26 -9,-29 -22,-67 -43,-97 -78,-108 -32,-11 -68,-5 -162,26 -93,31 -127,49 -149,78 -22,31 -22,63 4,139 24,73 42,99 77,111 32,11 74,5 157,-22 154,-51 187,-84 168,-166 l -107,36 z m -200,-31 c -12,-40 2,-55 74,-79 42,-14 66,-17 79,-10 9,5 12,10 20,32 l -173,57 z m 284,-219 124,276 103,-47 -124,-275 -103,46 z m -51,-113 35,78 103,-47 -35,-77 -103,46 z m 619,-117 46,72 144,-93 c 18,28 20,36 18,46 -4,15 -23,30 -116,90 l -67,41 c -30,18 -40,22 -53,20 -19,-1 -35,-19 -73,-78 -60,-93 -60,-94 69,-177 82,-53 109,-67 125,-67 10,1 14,5 28,25 l 109,-70 c -35,-53 -53,-72 -80,-80 -41,-13 -97,10 -230,96 -125,81 -179,125 -193,160 -16,40 -2,82 60,179 76,117 99,140 144,140 43,1 85,-19 207,-98 97,-62 134,-89 166,-120 37,-36 45,-76 22,-121 -9,-18 -47,-81 -70,-116 l -6,-9 -250,160 z m 242,-242 197,229 86,-74 -82,-95 c -31,-35 -39,-50 -40,-68 -1,-17 9,-37 28,-53 18,-16 35,-24 47,-22 11,1 20,7 34,23 l 2,2 0,0 81,-69 -14,-16 c -29,-34 -49,-48 -72,-53 -29,-5 -61,8 -99,41 -48,41 -63,73 -54,116 l -4,4 -30,-34 -80,69 z m 427,-266 c -18,-20 -15,-28 38,-89 45,-52 56,-55 91,-24 l 13,11 -4,3 c -26,1 -39,10 -74,50 -53,61 -72,87 -84,112 -20,41 -11,76 30,111 55,47 92,38 157,-38 49,-56 66,-80 73,-100 6,-20 5,-36 -3,-55 l 3,-4 31,28 71,-83 -138,-119 c -41,-36 -63,-46 -91,-45 -36,3 -54,17 -119,92 -61,71 -91,115 -97,143 -9,38 -1,62 29,93 l 74,-86 z m 110,-5 c 32,-36 45,-50 52,-53 11,-6 22,-5 30,2 21,18 12,40 -40,100 -40,46 -57,54 -75,39 -9,-8 -11,-18 -8,-29 3,-10 17,-30 41,-59 z m -1,-379 57,40 -35,49 66,46 35,-48 72,51 c 31,23 31,23 39,27 28,18 45,23 66,18 31,-5 53,-26 95,-84 45,-64 57,-98 47,-133 -8,-27 -21,-41 -67,-76 l -60,85 10,7 c 29,20 31,32 10,62 -13,18 -23,25 -35,24 -10,-2 -14,-4 -40,-22 l -72,-51 104,-146 -66,-47 -104,146 -57,-40 -65,92 z m 245,-241 262,150 57,-98 -262,-150 -57,98 z m -107,-62 73,43 57,-99 -74,-42 -56,98 z m 331,-147 c -24,-14 -23,-23 11,-97 28,-62 38,-67 81,-48 l 14,7 -2,4 c -25,9 -35,21 -57,69 -33,73 -45,103 -49,131 -8,45 11,76 60,98 66,30 99,11 140,-81 31,-68 41,-95 41,-116 0,-21 -4,-36 -18,-52 l 2,-4 38,17 45,-99 -166,-75 c -50,-23 -74,-27 -100,-18 -34,13 -48,32 -89,122 -39,85 -55,136 -53,165 2,38 17,59 55,80 l 47,-103 z m 104,-35 c 20,-45 28,-61 34,-66 9,-10 20,-12 30,-7 25,11 22,35 -11,107 -25,55 -38,68 -60,58 -11,-4 -16,-13 -16,-25 -1,-10 7,-34 23,-67 z"
       id="path3800"
       inkscape:connector-curvature="0"
       style="fill:#ffffff;fill-rule:nonzero" /><circle
       class="fil3"
       cy="11000"
       r="3898"
       id="circle3802"
       cx="0"
       style="fill:none" /><path
       class="fil4"
       d="m -2258,8583 84,-75 -60,-68 107,-94 c 61,-55 79,-74 91,-97 21,-41 10,-74 -44,-135 -64,-72 -99,-80 -160,-39 -16,11 -24,18 -74,62 l -190,169 246,277 z m -37,-212 -63,-71 105,-94 c 39,-33 39,-33 47,-36 14,-5 25,0 42,19 17,20 22,30 17,42 -3,10 -5,12 -43,46 l -105,94 z"
       id="path3804"
       inkscape:connector-curvature="0"
       style="fill:#ffffff;fill-rule:nonzero" /><path
       id="1"
       class="fil4"
       d="m -1551,8075 112,-64 -353,-225 -152,88 14,418 112,-64 -4,-70 213,-122 58,39 z m -133,-89 -143,82 -8,-158 19,-11 132,87 z"
       inkscape:connector-curvature="0"
       style="fill:#ffffff;fill-rule:nonzero" /><polygon
       id="2"
       class="fil4"
       points="-1409,7703 -1398,7698 -1114,7881 -932,7807 -1071,7464 -1178,7507 -1071,7762 -1082,7766 -1366,7583 -1549,7657 -1410,8001 -1303,7957 "
       style="fill:#ffffff;fill-rule:nonzero" /><path
       id="3"
       class="fil4"
       d="m -681,7382 c -152,24 -187,34 -211,60 -24,25 -27,65 -11,166 17,107 31,143 63,160 31,16 67,15 220,-9 150,-24 185,-35 210,-60 24,-26 27,-64 10,-169 -17,-105 -31,-140 -62,-157 -32,-16 -68,-15 -219,9 z m 15,95 c 102,-16 116,-17 130,-3 11,11 18,32 26,84 7,44 6,61 -5,73 -13,13 -32,19 -120,33 -91,14 -111,15 -127,6 -15,-8 -20,-22 -28,-68 -7,-48 -8,-69 -3,-83 8,-21 19,-25 127,-42 z"
       inkscape:connector-curvature="0"
       style="fill:#ffffff;fill-rule:nonzero" /><path
       id="4"
       class="fil4"
       d="m 36,7550 c 1,55 -1,56 -124,58 -120,1 -122,0 -123,-95 -1,-55 3,-78 17,-88 11,-10 32,-12 102,-13 25,-1 59,0 76,1 25,1 34,4 38,10 5,6 6,11 7,32 l 113,-1 0,-19 c -1,-61 -14,-88 -48,-103 -25,-12 -60,-15 -155,-14 -190,3 -232,13 -253,60 -9,21 -11,52 -10,137 1,43 3,75 4,91 5,42 17,64 45,77 31,15 77,19 218,17 85,-1 126,-6 156,-16 38,-15 53,-42 52,-100 0,-6 -1,-14 -1,-35 l -114,1 z"
       inkscape:connector-curvature="0"
       style="fill:#ffffff;fill-rule:nonzero" /><polygon
       id="5"
       class="fil4"
       points="627,7656 328,7616 336,7558 617,7595 628,7515 347,7477 354,7424 650,7463 661,7377 255,7323 206,7690 615,7744 "
       style="fill:#ffffff;fill-rule:nonzero" /><path
       id="6"
       class="fil4"
       d="m 1050,7863 123,37 -79,-410 -168,-51 -294,298 123,37 48,-51 235,71 12,69 z m -26,-158 -159,-48 109,-114 22,7 28,155 z"
       inkscape:connector-curvature="0"
       style="fill:#ffffff;fill-rule:nonzero" /><polygon
       id="7"
       class="fil4"
       points="1434,7705 1445,7710 1492,8045 1666,8135 1836,7805 1733,7753 1610,7999 1599,7994 1553,7660 1377,7570 1208,7899 1310,7952 "
       style="fill:#ffffff;fill-rule:nonzero" /><polygon
       id="8"
       class="fil4"
       points="2018,7924 1918,7861 1720,8174 1820,8237 "
       style="fill:#ffffff;fill-rule:nonzero" /><path
       id="9"
       class="fil4"
       d="m 2194,8518 100,80 79,-411 -137,-109 -384,167 101,81 64,-30 191,153 -14,69 z m 34,-157 -130,-103 144,-66 17,14 -31,155 z"
       inkscape:connector-curvature="0"
       style="fill:#ffffff;fill-rule:nonzero" /></g></svg>