<?xml version="1.0" encoding="UTF-8" standalone="no"?>
<!-- Creator: CorelDRAW X7 -->

<svg
   xmlns:dc="http://purl.org/dc/elements/1.1/"
   xmlns:cc="http://creativecommons.org/ns#"
   xmlns:rdf="http://www.w3.org/1999/02/22-rdf-syntax-ns#"
   xmlns:svg="http://www.w3.org/2000/svg"
   xmlns="http://www.w3.org/2000/svg"
   xmlns:sodipodi="http://sodipodi.sourceforge.net/DTD/sodipodi-0.dtd"
   xmlns:inkscape="http://www.inkscape.org/namespaces/inkscape"
   xml:space="preserve"
   width="7.8740005in"
   height="7.8740005in"
   version="1.1"
   style="clip-rule:evenodd;fill-rule:evenodd;image-rendering:optimizeQuality;shape-rendering:geometricPrecision;text-rendering:geometricPrecision"
   viewBox="0 0 7874.0005 7874.0005"
   id="svg8324"
   inkscape:version="0.91 r13725"
   sodipodi:docname="Yu Jing - Shang Ji Invincibles - [A6] [Vyo].svg"><metadata
     id="metadata8352"><rdf:RDF><cc:Work
         rdf:about=""><dc:format>image/svg+xml</dc:format><dc:type
           rdf:resource="http://purl.org/dc/dcmitype/StillImage" /></cc:Work></rdf:RDF></metadata><sodipodi:namedview
     pagecolor="#ffffff"
     bordercolor="#666666"
     borderopacity="1"
     objecttolerance="10"
     gridtolerance="10"
     guidetolerance="10"
     inkscape:pageopacity="0"
     inkscape:pageshadow="2"
     inkscape:window-width="640"
     inkscape:window-height="480"
     id="namedview8350"
     showgrid="false"
     inkscape:zoom="0.23838384"
     inkscape:cx="736.83001"
     inkscape:cy="849.33005"
     inkscape:window-x="0"
     inkscape:window-y="0"
     inkscape:window-maximized="0"
     inkscape:current-layer="svg8324" /><defs
     id="defs8326"><style
       type="text/css"
       id="style8328"><![CDATA[
    .fil4 {fill:none}
    .fil0 {fill:black}
    .fil2 {fill:#E2001A}
    .fil1 {fill:yellow}
    .fil3 {fill:yellow;fill-rule:nonzero}
   ]]></style></defs><g
     id="Layer_x0020_1"
     transform="translate(3937,-7063)"><metadata
       id="CorelCorpID_0Corel-Layer" /><circle
       class="fil0"
       cy="11000"
       r="3937"
       id="circle8332"
       cx="0"
       style="fill:#000000" /><path
       class="fil1"
       d="m -2714,8513 c 26,-28 55,-2 29,27 -502,587 -768,1301 -840,2016 l -188,-188 c 132,-682 475,-1322 999,-1855 z m 232,213 c -520,526 -863,1191 -955,1918 l 95,95 125,-124 c 65,-676 324,-1344 764,-1863 25,-29 -2,-53 -29,-26 z m -901,2139 c -2,45 -3,90 -3,135 0,148 10,294 28,438 l -416,-223 c -3,-71 -6,-143 -6,-215 0,-169 12,-335 33,-499 l 364,364 z m 47,718 c 36,209 92,412 165,605 l -457,-125 c -67,-228 -112,-465 -135,-709 l 427,229 z m 219,743 c 118,275 271,533 454,765 l -486,0 c -183,-275 -331,-575 -437,-894 l 469,129 z m 551,883 c 55,64 112,126 172,185 219,219 468,409 741,561 l -549,117 c -167,-120 -325,-254 -471,-399 -143,-144 -275,-299 -394,-464 l 501,0 z m -290,-2789 c -21,108 -37,218 -47,330 l -382,636 c -14,-126 -22,-255 -22,-386 0,-44 1,-88 2,-131 l 449,-449 z m -57,576 c -1,127 7,255 24,381 l -224,742 c -63,-177 -112,-360 -145,-548 l 345,-575 z m 69,639 c 49,221 123,433 220,631 l 1,748 c -169,-219 -311,-460 -420,-718 l 199,-661 z m 338,851 c 124,210 274,403 446,574 97,97 200,187 310,269 l 142,562 c -269,-150 -514,-337 -730,-553 -58,-57 -114,-117 -168,-180 l 0,-672 z m -328,-2254 c 104,-448 297,-891 613,-1267 26,-30 -1,-54 -29,-26 -443,445 -736,980 -846,1554 l 262,-261 z"
       id="path8334"
       inkscape:connector-curvature="0"
       style="fill:#ffff00" /><path
       class="fil1"
       d="m 2714,8513 c -26,-28 -55,-2 -29,27 502,587 768,1301 840,2016 l 188,-188 C 3581,9686 3238,9046 2714,8513 Z m -232,213 c 520,526 863,1191 955,1918 l -95,95 -125,-124 c -65,-676 -324,-1344 -764,-1863 -25,-29 2,-53 29,-26 z m 901,2139 c 2,45 3,90 3,135 0,148 -10,294 -28,438 l 416,-223 c 3,-71 6,-143 6,-215 0,-169 -12,-335 -33,-499 l -364,364 z m -47,718 c -36,209 -92,412 -165,605 l 457,-125 c 67,-228 112,-465 135,-709 l -427,229 z m -219,743 c -118,275 -271,533 -454,765 l 486,0 c 183,-275 331,-575 437,-894 l -469,129 z m -551,883 c -55,64 -112,126 -172,185 -219,219 -468,409 -741,561 l 549,117 c 167,-120 325,-254 471,-399 143,-144 275,-299 394,-464 l -501,0 z m 290,-2789 c 21,108 37,218 47,330 l 382,636 c 14,-126 22,-255 22,-386 0,-44 -1,-88 -2,-131 l -449,-449 z m 57,576 c 1,127 -7,255 -24,381 l 224,742 c 63,-177 112,-360 145,-548 l -345,-575 z m -69,639 c -49,221 -123,433 -220,631 l -1,748 c 169,-219 311,-460 420,-718 l -199,-661 z m -338,851 c -124,210 -274,403 -446,574 -97,97 -200,187 -310,269 l -142,562 c 269,-150 514,-337 730,-553 58,-57 114,-117 168,-180 l 0,-672 z m 328,-2254 c -104,-448 -297,-891 -613,-1267 -26,-30 1,-54 29,-26 443,445 736,980 846,1554 l -262,-261 z"
       id="path8336"
       inkscape:connector-curvature="0"
       style="fill:#ffff00" /><path
       class="fil2"
       d="m 0,13165 c 696,0 1260,564 1260,1260 0,48 -3,95 -8,142 -392,137 -813,213 -1252,213 -439,0 -860,-76 -1252,-213 -5,-47 -8,-94 -8,-142 0,-696 564,-1260 1260,-1260 z"
       id="path8338"
       inkscape:connector-curvature="0"
       style="fill:#e2001a" /><polygon
       class="fil1"
       points="271,14151 440,14669 0,14348 -440,14669 -271,14151 -711,13832 -167,13833 0,13316 167,13833 711,13832 "
       id="polygon8340"
       style="fill:#ffff00" /><path
       class="fil3"
       d="m -1300,7919 -24,57 c -29,-23 -55,-42 -77,-57 l 133,323 -55,23 -125,-302 c 0,68 -7,121 -20,157 l -54,-52 c 20,-58 28,-130 23,-216 l -91,37 -24,-58 96,-40 -46,-112 55,-23 46,112 85,-34 24,58 -85,35 6,15 c 50,24 95,49 133,77 z m 436,100 -14,63 c -47,-6 -94,-21 -143,-43 -26,56 -54,102 -83,137 l -53,-35 c 33,-38 61,-82 82,-133 -59,-39 -109,-94 -150,-163 42,141 51,263 27,366 l -62,-22 c 17,-72 17,-148 1,-226 -16,-79 -47,-175 -93,-289 l -54,22 -24,-59 308,-127 c 17,75 30,143 40,204 l 60,-25 c 34,105 41,202 20,290 41,20 87,34 138,40 z m -302,-421 -129,53 c 20,52 36,96 48,131 l 105,-44 c -4,-36 -13,-83 -24,-140 z m 104,175 -109,45 c 29,49 66,92 113,128 10,-50 9,-108 -4,-173 z m 976,156 -606,86 -9,-64 249,-36 -76,-543 65,-9 30,215 262,-37 9,63 -262,37 37,265 292,-41 9,64 z m 810,-62 c -14,59 -26,97 -36,114 -11,17 -23,28 -37,31 -13,3 -46,1 -97,-6 -33,-5 -62,-9 -86,-14 -25,-5 -41,-13 -48,-24 -8,-12 -10,-28 -7,-50 l 34,-243 -11,-2 c -57,149 -161,243 -313,284 l -33,-57 c 142,-40 235,-119 282,-236 l -238,-33 9,-61 250,35 c 14,-39 27,-95 39,-165 l -249,-36 8,-60 573,80 -9,61 -261,-37 c -9,56 -21,112 -37,166 l 290,41 -9,61 -229,-32 -33,232 c -1,6 1,11 7,14 5,3 28,8 68,13 43,6 67,9 72,7 5,-1 10,-4 14,-10 5,-5 10,-19 17,-42 6,-22 10,-44 13,-63 l 57,32 z m 733,393 -56,31 c -41,-57 -69,-108 -83,-153 -48,27 -102,46 -163,59 l -11,-61 c 61,-11 113,-31 159,-59 -8,-59 -6,-117 7,-174 l 59,1 c -9,39 -12,82 -10,129 51,-48 96,-118 136,-210 l -92,-35 c -47,59 -89,102 -128,131 l -25,-56 c 67,-58 132,-138 197,-240 l 49,33 c -11,19 -29,47 -55,82 l 180,68 -22,57 -48,-19 c -56,120 -116,206 -179,259 7,42 36,94 85,157 z m -170,-456 -106,-40 -40,104 82,31 -97,256 -56,-21 9,-25 -116,-44 -17,45 -55,-21 105,-276 90,35 40,-105 -121,-45 21,-54 120,45 29,-74 c -31,-7 -65,-16 -103,-29 l 2,-62 c 92,31 178,50 258,59 l 9,58 c -21,0 -58,-4 -109,-13 l -31,82 107,40 -21,54 z m -187,249 46,-122 -115,-44 -46,122 115,44 z"
       id="path8342"
       inkscape:connector-curvature="0"
       style="fill:#ffff00;fill-rule:nonzero" /><circle
       class="fil4"
       cy="11000"
       r="3898"
       id="circle8344"
       cx="0"
       style="fill:none" /><path
       class="fil2"
       d="M 1098,13528 C 2073,13104 2756,12132 2756,11000 2756,9478 1522,8244 0,8244 c -1522,0 -2756,1234 -2756,2756 0,1132 683,2104 1658,2528 260,-317 656,-520 1098,-520 442,0 838,203 1098,520 z"
       id="path8346"
       inkscape:connector-curvature="0"
       style="fill:#e2001a" /><path
       class="fil1"
       d="M 1535,10843 C 1535,9647 630,8677 0,8677 c -630,0 -1535,970 -1535,2166 0,691 320,1427 858,1870 473,-287 881,-287 1354,0 538,-443 858,-1179 858,-1870 z m -438,2214 c 636,-321 1068,-924 1068,-1703 0,-444 -183,-870 -458,-1229 25,253 25,502 25,718 0,613 -344,1496 -897,1978 93,69 181,149 262,236 z m -1932,-236 c -553,-482 -897,-1365 -897,-1978 0,-216 0,-465 25,-718 -275,359 -458,785 -458,1229 0,776 429,1388 1061,1711 83,-91 174,-173 269,-244 z m 262,-440 c 119,-65 241,-112 363,-138 -223,-263 -459,-885 -459,-1637 0,-630 165,-1169 351,-1481 -442,237 -942,902 -942,1718 0,660 328,1222 687,1538 z m 783,-138 c 122,26 244,73 362,138 360,-316 688,-878 688,-1538 0,-816 -500,-1481 -942,-1718 186,312 351,851 351,1481 0,752 -236,1374 -459,1637 z"
       id="path8348"
       inkscape:connector-curvature="0"
       style="fill:#ffff00" /></g></svg>