<?xml version="1.0" encoding="UTF-8" standalone="no"?>
<!-- Creator: CorelDRAW X7 -->

<svg
   xmlns:dc="http://purl.org/dc/elements/1.1/"
   xmlns:cc="http://creativecommons.org/ns#"
   xmlns:rdf="http://www.w3.org/1999/02/22-rdf-syntax-ns#"
   xmlns:svg="http://www.w3.org/2000/svg"
   xmlns="http://www.w3.org/2000/svg"
   xmlns:sodipodi="http://sodipodi.sourceforge.net/DTD/sodipodi-0.dtd"
   xmlns:inkscape="http://www.inkscape.org/namespaces/inkscape"
   xml:space="preserve"
   width="7.8740005in"
   height="7.8740005in"
   version="1.1"
   style="clip-rule:evenodd;fill-rule:evenodd;image-rendering:optimizeQuality;shape-rendering:geometricPrecision;text-rendering:geometricPrecision"
   viewBox="0 0 7874.0005 7874.0005"
   id="svg4313"
   inkscape:version="0.91 r13725"
   sodipodi:docname="Mercs - Yuan Yuan - [N3] [Vyo].svg"><metadata
     id="metadata4335"><rdf:RDF><cc:Work
         rdf:about=""><dc:format>image/svg+xml</dc:format><dc:type
           rdf:resource="http://purl.org/dc/dcmitype/StillImage" /></cc:Work></rdf:RDF></metadata><sodipodi:namedview
     pagecolor="#ffffff"
     bordercolor="#666666"
     borderopacity="1"
     objecttolerance="10"
     gridtolerance="10"
     guidetolerance="10"
     inkscape:pageopacity="0"
     inkscape:pageshadow="2"
     inkscape:window-width="640"
     inkscape:window-height="480"
     id="namedview4333"
     showgrid="false"
     inkscape:zoom="0.23838384"
     inkscape:cx="736.83001"
     inkscape:cy="849.33005"
     inkscape:window-x="0"
     inkscape:window-y="0"
     inkscape:window-maximized="0"
     inkscape:current-layer="svg4313" /><defs
     id="defs4315"><style
       type="text/css"
       id="style4317"><![CDATA[
    .fil1 {fill:#E2001A}
    .fil0 {fill:white}
   ]]></style></defs><g
     id="Layer_x0020_1"
     transform="translate(3937,-7063)"><metadata
       id="CorelCorpID_0Corel-Layer" /><circle
       class="fil0"
       cy="11000"
       r="3937"
       id="circle4321"
       cx="0"
       style="fill:#ffffff" /><circle
       class="fil1"
       cy="11000"
       r="3701"
       id="circle4323"
       cx="0"
       style="fill:#e2001a" /><path
       class="fil0"
       d="m 0,8008 c 891,0 1614,740 1614,1653 0,87 -6,173 -19,256 l 118,0 0,237 -170,0 c 21,108 32,220 32,334 0,341 -99,658 -267,921 l 137,79 -118,205 -161,-93 c -124,143 -272,263 -437,354 -75,333 -373,581 -729,581 -356,0 -654,-248 -729,-581 -165,-91 -313,-211 -437,-354 l -161,93 -118,-205 137,-79 c -168,-263 -267,-580 -267,-921 0,-114 11,-226 32,-334 l -170,0 0,-237 118,0 c -13,-83 -19,-169 -19,-256 0,-913 723,-1653 1614,-1653 z m 0,3149 c 348,0 630,283 630,630 0,348 -282,630 -630,630 -348,0 -630,-282 -630,-630 0,-347 282,-630 630,-630 z M -591,9839 c 229,0 414,211 414,472 0,261 -185,472 -414,472 -228,0 -413,-211 -413,-472 0,-261 185,-472 413,-472 z m 1182,0 c 228,0 413,211 413,472 0,261 -185,472 -413,472 -229,0 -414,-211 -414,-472 0,-261 185,-472 414,-472 z m -1990,-110 c 24,-824 641,-1485 1399,-1485 758,0 1375,661 1399,1485 C 1137,9198 609,8835 0,8835 c -609,0 -1137,363 -1399,894 z"
       id="path4325"
       inkscape:connector-curvature="0"
       style="fill:#ffffff" /><circle
       class="fil0"
       cy="11787"
       r="472"
       id="circle4327"
       cx="0"
       style="fill:#ffffff" /><path
       class="fil1"
       d="m 0,11404 c 60,0 108,48 108,108 0,6 0,12 -1,18 3,-5 7,-10 11,-14 43,-42 111,-42 153,0 43,42 43,111 0,153 -4,4 -8,8 -13,12 6,-1 12,-2 18,-2 59,0 108,49 108,108 0,60 -49,109 -108,109 -6,0 -12,-1 -18,-2 5,4 9,7 13,12 43,42 43,111 0,153 -42,42 -110,42 -153,0 -4,-4 -8,-9 -11,-14 1,6 1,12 1,18 0,60 -48,108 -108,108 -60,0 -108,-48 -108,-108 0,-6 0,-12 1,-18 -3,5 -7,10 -11,14 -43,42 -111,42 -153,0 -43,-42 -43,-111 0,-153 4,-5 8,-8 13,-12 -6,1 -12,2 -18,2 -59,0 -108,-49 -108,-109 0,-59 49,-108 108,-108 6,0 12,1 18,2 -5,-4 -9,-8 -13,-12 -43,-42 -43,-111 0,-153 42,-42 110,-42 153,0 4,4 8,9 11,14 -1,-6 -1,-12 -1,-18 0,-60 48,-108 108,-108 z m -213,295 c 28,20 46,52 46,88 0,37 -18,69 -46,88 34,-5 69,5 95,31 25,25 35,61 30,94 20,-27 52,-45 88,-45 36,0 68,18 88,45 -5,-33 5,-69 30,-94 26,-26 61,-36 95,-31 -28,-19 -46,-51 -46,-88 0,-36 18,-68 46,-88 -34,6 -69,-4 -95,-30 -25,-26 -35,-61 -30,-94 -20,27 -52,45 -88,45 -36,0 -68,-18 -88,-45 5,33 -5,68 -30,94 -26,26 -61,36 -95,30 z"
       id="path4329"
       inkscape:connector-curvature="0"
       style="fill:#e2001a" /><path
       class="fil0"
       d="m -1448,13068 c -67,-38 -152,-60 -245,-60 -217,0 -394,123 -394,275 0,79 47,149 122,200 -2,12 -4,24 -4,37 0,152 177,275 394,275 218,0 394,-123 394,-275 0,-40 -12,-78 -34,-112 l 1215,-371 1215,371 c -22,34 -34,72 -34,112 0,152 176,275 394,275 217,0 394,-123 394,-275 0,-13 -2,-25 -4,-37 75,-50 122,-121 122,-200 0,-152 -177,-275 -394,-275 -93,0 -178,22 -245,60 l -775,-237 494,-151 c 65,33 144,52 231,52 217,0 393,-123 393,-275 0,-79 -46,-149 -121,-200 2,-12 3,-24 3,-37 0,-152 -176,-275 -393,-275 -218,0 -394,123 -394,275 0,44 14,85 40,122 l -926,283 -926,-283 c 26,-37 40,-78 40,-122 0,-152 -176,-275 -394,-275 -217,0 -393,123 -393,275 0,13 1,25 3,37 -75,51 -121,121 -121,200 0,152 176,275 393,275 87,0 166,-19 231,-52 l 494,151 -775,237 z"
       id="path4331"
       inkscape:connector-curvature="0"
       style="fill:#ffffff" /></g></svg>