<?xml version="1.0" encoding="UTF-8" standalone="no"?>
<!-- Creator: CorelDRAW X7 -->

<svg
   xmlns:dc="http://purl.org/dc/elements/1.1/"
   xmlns:cc="http://creativecommons.org/ns#"
   xmlns:rdf="http://www.w3.org/1999/02/22-rdf-syntax-ns#"
   xmlns:svg="http://www.w3.org/2000/svg"
   xmlns="http://www.w3.org/2000/svg"
   xmlns:sodipodi="http://sodipodi.sourceforge.net/DTD/sodipodi-0.dtd"
   xmlns:inkscape="http://www.inkscape.org/namespaces/inkscape"
   xml:space="preserve"
   width="7.8740005in"
   height="7.8740005in"
   version="1.1"
   style="clip-rule:evenodd;fill-rule:evenodd;image-rendering:optimizeQuality;shape-rendering:geometricPrecision;text-rendering:geometricPrecision"
   viewBox="0 0 7874.0005 7874.0005"
   id="svg14960"
   inkscape:version="0.91 r13725"
   sodipodi:docname="image_6029.svg"><metadata
     id="metadata14976"><rdf:RDF><cc:Work
         rdf:about=""><dc:format>image/svg+xml</dc:format><dc:type
           rdf:resource="http://purl.org/dc/dcmitype/StillImage" /></cc:Work></rdf:RDF></metadata><sodipodi:namedview
     pagecolor="#ffffff"
     bordercolor="#666666"
     borderopacity="1"
     objecttolerance="10"
     gridtolerance="10"
     guidetolerance="10"
     inkscape:pageopacity="0"
     inkscape:pageshadow="2"
     inkscape:window-width="640"
     inkscape:window-height="480"
     id="namedview14974"
     showgrid="false"
     inkscape:zoom="0.23838384"
     inkscape:cx="736.83001"
     inkscape:cy="849.33005"
     inkscape:window-x="0"
     inkscape:window-y="0"
     inkscape:window-maximized="0"
     inkscape:current-layer="svg14960" /><defs
     id="defs14962"><style
       type="text/css"
       id="style14964"><![CDATA[
    .fil1 {fill:#403273}
    .fil0 {fill:#FFF700}
   ]]></style></defs><g
     id="Layer_x0020_1"
     transform="translate(3937,-7063)"><metadata
       id="CorelCorpID_0Corel-Layer" /><circle
       class="fil0"
       cy="11000"
       r="3937"
       id="circle14968"
       cx="0"
       style="fill:#fff700" /><circle
       class="fil1"
       cy="11000"
       r="3780"
       id="circle14970"
       cx="0"
       style="fill:#403273" /><path
       class="fil0"
       d="m 2402,11093 c 28,-72 -26,-213 -249,-285 -225,-74 -562,-117 -893,-130 l 0,1308 c 0,129 -111,351 -240,351 -276,0 -562,0 -848,-102 -65,-23 -123,-65 -172,-119 -49,54 -107,96 -172,119 -286,102 -572,102 -848,102 -129,0 -240,-222 -240,-351 l 0,-1308 c -331,13 -668,56 -893,130 -223,72 -277,213 -249,285 l 750,1929 c -29,45 -82,105 -143,160 l -321,-325 -666,-2050 c -56,-173 -4,-518 169,-574 370,-120 754,-245 1181,-233 345,9 671,383 771,692 -99,-10 -208,-16 -323,-18 l 0,1094 c 0,55 -9,98 157,98 158,0 373,-45 583,-107 l 87,-1979 c 3,-83 -67,-237 -315,-237 -414,0 -1104,212 -1545,405 0,-345 206,-828 551,-951 427,-151 854,-151 1268,-151 76,0 143,50 198,123 55,-73 122,-123 198,-123 414,0 841,0 1268,151 345,123 551,606 551,951 -441,-193 -1131,-405 -1545,-405 -248,0 -318,154 -315,237 l 87,1979 c 210,62 425,107 583,107 166,0 157,-43 157,-98 l 0,-1094 c -115,2 -224,8 -323,18 100,-309 426,-683 771,-692 427,-12 810,113 1181,233 173,56 225,401 169,574 l -666,2050 -321,325 c -61,-55 -114,-115 -143,-160 l 750,-1929 z m -5155,-1545 262,-353 126,422 -262,353 -126,-422 z m 2333,3251 -292,-329 -88,431 292,330 88,-432 z m 840,0 292,-329 88,431 -292,330 -88,-432 z m 2333,-3251 -262,-353 -126,422 262,353 126,-422 z"
       id="path14972"
       inkscape:connector-curvature="0"
       style="fill:#fff700" /></g></svg>