<?xml version="1.0" encoding="UTF-8" standalone="no"?>
<!-- Creator: CorelDRAW X7 -->

<svg
   xmlns:dc="http://purl.org/dc/elements/1.1/"
   xmlns:cc="http://creativecommons.org/ns#"
   xmlns:rdf="http://www.w3.org/1999/02/22-rdf-syntax-ns#"
   xmlns:svg="http://www.w3.org/2000/svg"
   xmlns="http://www.w3.org/2000/svg"
   xmlns:sodipodi="http://sodipodi.sourceforge.net/DTD/sodipodi-0.dtd"
   xmlns:inkscape="http://www.inkscape.org/namespaces/inkscape"
   xml:space="preserve"
   width="7.8740005in"
   height="7.8740005in"
   version="1.1"
   style="clip-rule:evenodd;fill-rule:evenodd;image-rendering:optimizeQuality;shape-rendering:geometricPrecision;text-rendering:geometricPrecision"
   viewBox="0 0 7874.0005 7874.0005"
   id="svg25705"
   inkscape:version="0.91 r13725"
   sodipodi:docname="image_8024.svg"><metadata
     id="metadata25727"><rdf:RDF><cc:Work
         rdf:about=""><dc:format>image/svg+xml</dc:format><dc:type
           rdf:resource="http://purl.org/dc/dcmitype/StillImage" /></cc:Work></rdf:RDF></metadata><sodipodi:namedview
     pagecolor="#ffffff"
     bordercolor="#666666"
     borderopacity="1"
     objecttolerance="10"
     gridtolerance="10"
     guidetolerance="10"
     inkscape:pageopacity="0"
     inkscape:pageshadow="2"
     inkscape:window-width="640"
     inkscape:window-height="480"
     id="namedview25725"
     showgrid="false"
     inkscape:zoom="0.23838384"
     inkscape:cx="736.83001"
     inkscape:cy="849.33005"
     inkscape:window-x="0"
     inkscape:window-y="0"
     inkscape:window-maximized="0"
     inkscape:current-layer="svg25705" /><defs
     id="defs25707"><style
       type="text/css"
       id="style25709"><![CDATA[
    .fil0 {fill:black}
    .fil1 {fill:#630808}
    .fil3 {fill:#E2001A}
    .fil4 {fill:#FF7B00}
    .fil2 {fill:white;fill-rule:nonzero}
   ]]></style></defs><g
     id="Layer_x0020_1"
     transform="translate(3937,-7063)"><metadata
       id="CorelCorpID_0Corel-Layer" /><circle
       class="fil0"
       cy="11000"
       r="3937"
       id="circle25713"
       cx="0"
       style="fill:#000000" /><path
       class="fil1"
       d="m 0,14622 c 1245,0 2344,-629 2996,-1586 -204,-93 -483,-217 -795,-346 -21,27 -43,55 -65,81 -405,487 -980,818 -1637,939 0,0 -13,7 -25,14 -12,6 -24,13 -31,16 -62,30 -182,189 -262,294 -16,21 -30,39 -59,76 l -122,153 -122,-153 c -29,-37 -43,-55 -59,-76 -80,-105 -200,-264 -262,-294 -7,-3 -19,-10 -31,-16 -12,-7 -24,-14 -25,-14 -657,-121 -1232,-452 -1637,-939 -22,-26 -44,-54 -65,-81 -312,129 -591,253 -795,346 652,957 1751,1586 2996,1586 z m 1816,-1961 c -84,-33 -169,-66 -254,-98 -29,-11 -58,-22 -87,-32 -382,368 -902,595 -1475,595 -573,0 -1093,-227 -1475,-595 -29,10 -58,21 -87,32 -85,32 -170,65 -254,98 353,381 831,641 1374,740 50,10 84,28 117,46 5,2 10,5 20,10 101,49 214,180 305,296 91,-116 204,-247 305,-296 10,-5 15,-8 20,-10 33,-18 67,-36 117,-46 543,-99 1021,-359 1374,-740 z m -576,-341 c -58,-20 -115,-39 -172,-58 -288,244 -661,392 -1068,392 -407,0 -780,-148 -1068,-392 -57,19 -114,38 -172,58 324,305 760,491 1240,491 480,0 916,-186 1240,-491 z m -549,-173 c -273,-76 -515,-123 -691,-123 -176,0 -418,47 -691,123 202,122 438,192 691,192 253,0 489,-70 691,-192 z m 2571,430 c 231,-477 360,-1012 360,-1577 0,-1911 -1480,-3476 -3356,-3612 21,227 54,539 99,882 606,85 1149,376 1563,791 511,510 828,1209 828,1939 0,383 -70,739 -197,1058 270,207 519,388 703,519 z M -365,8270 c 45,-343 78,-655 99,-882 -1876,136 -3356,1701 -3356,3612 0,565 129,1100 360,1577 184,-131 433,-312 703,-519 -127,-319 -197,-675 -197,-1058 0,-730 317,-1429 828,-1939 414,-415 957,-706 1563,-791 z m -1973,3466 c 68,-55 136,-109 203,-165 24,-19 48,-38 71,-58 -40,-164 -62,-336 -62,-513 0,-587 238,-1119 623,-1503 384,-385 916,-623 1503,-623 587,0 1119,238 1503,623 385,384 623,916 623,1503 0,177 -22,349 -62,513 23,20 47,39 71,58 67,56 135,110 203,165 67,-228 103,-475 103,-736 0,-644 -282,-1263 -735,-1717 C 1265,8843 663,8559 0,8559 c -663,0 -1265,284 -1706,724 -453,454 -735,1073 -735,1717 0,261 36,508 103,736 z m 574,-322 c 47,-40 92,-80 137,-120 -18,-95 -27,-194 -27,-294 0,-457 186,-870 485,-1169 170,-171 378,-304 610,-388 12,-58 24,-117 36,-177 -290,87 -549,245 -758,453 -327,328 -530,781 -530,1281 0,142 16,281 47,414 z m 426,-389 c 202,-199 363,-384 452,-537 88,-153 167,-385 238,-660 -110,61 -210,137 -299,225 -242,243 -392,577 -392,947 0,8 1,16 1,25 z M 523,9266 c 12,60 24,119 36,177 232,84 440,217 610,388 299,299 485,712 485,1169 0,100 -9,199 -27,294 45,40 90,80 137,120 31,-133 47,-272 47,-414 0,-500 -203,-953 -530,-1281 -209,-208 -468,-366 -758,-453 z m 125,562 c 71,275 150,507 238,660 89,153 250,338 452,537 0,-9 1,-17 1,-25 0,-370 -150,-704 -392,-947 -89,-88 -189,-164 -299,-225 z"
       id="path25715"
       inkscape:connector-curvature="0"
       style="fill:#630808" /><path
       class="fil2"
       d="m 443,11571 413,0 c 50,0 59,11 59,59 l 0,59 237,0 0,-59 c 0,-22 0,-88 -37,-156 -40,-73 -115,-139 -259,-139 l -413,0 0,-945 -236,0 0,1299 236,0 0,-118 z m -571,-728 -413,0 c -50,0 -59,11 -59,59 l 0,59 -237,0 0,-59 c 0,-22 0,-89 37,-156 40,-73 115,-140 259,-140 l 413,0 0,-216 236,0 0,1299 -236,0 0,-118 -413,0 c -50,0 -59,11 -59,59 l 0,59 -237,0 0,-59 c 0,-22 0,-88 37,-156 40,-73 115,-139 259,-139 l 413,0 0,-492 z"
       id="path25717"
       inkscape:connector-curvature="0"
       style="fill:#ffffff;fill-rule:nonzero" /><path
       class="fil3"
       d="m 0,7654 196,1704 c -64,-8 -130,-12 -196,-12 -66,0 -132,4 -196,12 L 0,7654 Z m 1520,3998 1378,1021 -1574,-682 c 78,-105 144,-218 196,-339 z m -2844,339 -1574,682 1378,-1021 c 52,121 118,234 196,339 z"
       id="path25719"
       inkscape:connector-curvature="0"
       style="fill:#e2001a" /><path
       class="fil4"
       d="m -38,9222 -298,-362 c -15,-17 -29,-41 -24,-63 l 50,-200 c 5,1 10,1 15,1 65,0 118,-52 118,-118 0,-50 -32,-94 -77,-110 l 51,-210 c 49,-14 85,-59 85,-113 0,-33 -14,-63 -36,-84 L 0,7339 154,7963 c -22,21 -36,51 -36,84 0,54 36,99 85,113 l 51,210 c -45,16 -77,60 -77,110 0,66 53,118 118,118 5,0 10,0 15,-1 l 50,200 c 5,22 -9,46 -24,63 L 38,9222 c -16,20 -60,20 -76,0 z m 1596,2634 463,-78 c 22,-3 50,-3 67,12 l 148,143 c -3,3 -6,8 -9,12 -32,57 -13,129 44,161 44,26 97,20 134,-11 l 155,149 c -11,50 10,103 56,130 29,17 62,20 91,11 l 464,446 -617,-179 c -8,-30 -27,-57 -56,-73 -46,-27 -103,-19 -140,16 l -207,-60 c 8,-47 -14,-96 -57,-122 -57,-32 -129,-13 -162,44 -2,4 -5,8 -7,13 l -197,-57 c -22,-6 -35,-31 -43,-52 l -164,-440 c -9,-23 13,-61 37,-65 z m -3079,65 -164,440 c -8,21 -21,46 -43,52 l -197,57 c -2,-5 -5,-9 -7,-13 -33,-57 -105,-76 -162,-44 -43,26 -65,75 -57,122 l -207,60 c -37,-35 -94,-43 -140,-16 -29,16 -48,43 -56,73 l -617,179 464,-446 c 29,9 62,6 91,-11 46,-27 67,-80 56,-130 l 155,-149 c 37,31 90,37 134,11 57,-32 76,-104 44,-161 -3,-4 -6,-9 -9,-12 l 148,-143 c 17,-15 45,-15 67,-12 l 463,78 c 24,4 46,42 37,65 z"
       id="path25721"
       inkscape:connector-curvature="0"
       style="fill:#ff7b00" /><path
       class="fil3"
       d="m 0,12339 c 253,0 489,-70 691,-192 -273,-76 -515,-123 -691,-123 -176,0 -418,47 -691,123 202,122 438,192 691,192 z m 1338,-1314 c 0,-9 1,-17 1,-25 0,-370 -150,-704 -392,-947 -89,-88 -189,-164 -299,-225 71,275 150,508 238,660 89,153 250,338 452,537 z M -648,9828 c -110,61 -210,137 -299,225 -242,243 -392,577 -392,947 0,8 1,16 1,25 202,-199 363,-384 452,-537 88,-152 167,-385 238,-660 z m 1849,35 c 71,14 131,0 184,-30 136,162 245,348 319,551 -53,31 -96,75 -119,143 -75,-251 -208,-478 -384,-664 z m -818,2746 c -47,54 -64,113 -64,174 -104,18 -210,28 -319,28 -109,0 -215,-10 -319,-28 0,-61 -17,-120 -64,-174 123,29 251,45 383,45 132,0 260,-16 383,-45 z m -1968,-2082 c -23,-68 -66,-112 -119,-143 74,-203 183,-389 319,-551 53,30 113,44 184,30 -176,186 -309,413 -384,664 z m 3202,-907 c 9,-8 18,-16 27,-24 57,-47 154,-73 263,-87 139,177 255,371 343,577 -67,91 -141,165 -212,192 -11,4 -22,8 -34,11 -87,-247 -220,-473 -387,-669 z M 387,13091 c 2,12 5,24 7,35 14,87 -24,207 -83,328 -2,1 -4,2 -6,3 -101,49 -214,180 -305,296 -91,-116 -204,-247 -305,-296 l -6,-3 c -59,-121 -97,-241 -83,-328 2,-11 5,-23 7,-35 126,23 255,35 387,35 132,0 261,-12 387,-35 z m -2391,-2802 c -12,-3 -23,-7 -34,-11 -71,-27 -145,-101 -212,-192 88,-206 204,-400 343,-577 109,14 206,40 263,87 9,8 18,16 27,24 -167,196 -300,422 -387,669 z m 4299,-780 c 105,11 187,28 211,44 2,29 -23,106 -66,201 -44,-84 -93,-166 -145,-245 z m -4735,245 c -43,-95 -68,-172 -66,-201 24,-16 106,-33 211,-44 -52,79 -101,161 -145,245 z"
       id="path25723"
       inkscape:connector-curvature="0"
       style="fill:#e2001a" /></g></svg>