<?xml version="1.0" encoding="UTF-8" standalone="no"?>
<!-- Creator: CorelDRAW X7 -->

<svg
   xmlns:dc="http://purl.org/dc/elements/1.1/"
   xmlns:cc="http://creativecommons.org/ns#"
   xmlns:rdf="http://www.w3.org/1999/02/22-rdf-syntax-ns#"
   xmlns:svg="http://www.w3.org/2000/svg"
   xmlns="http://www.w3.org/2000/svg"
   xmlns:sodipodi="http://sodipodi.sourceforge.net/DTD/sodipodi-0.dtd"
   xmlns:inkscape="http://www.inkscape.org/namespaces/inkscape"
   xml:space="preserve"
   width="7.8740005in"
   height="7.8740005in"
   version="1.1"
   style="clip-rule:evenodd;fill-rule:evenodd;image-rendering:optimizeQuality;shape-rendering:geometricPrecision;text-rendering:geometricPrecision"
   viewBox="0 0 7874.0005 7874.0005"
   id="svg3911"
   inkscape:version="0.91 r13725"
   sodipodi:docname="Haqqislam - Remote 4 Shaytaniyah Remotes - [N3] [Vyo].svg"><metadata
     id="metadata3947"><rdf:RDF><cc:Work
         rdf:about=""><dc:format>image/svg+xml</dc:format><dc:type
           rdf:resource="http://purl.org/dc/dcmitype/StillImage" /></cc:Work></rdf:RDF></metadata><sodipodi:namedview
     pagecolor="#ffffff"
     bordercolor="#666666"
     borderopacity="1"
     objecttolerance="10"
     gridtolerance="10"
     guidetolerance="10"
     inkscape:pageopacity="0"
     inkscape:pageshadow="2"
     inkscape:window-width="640"
     inkscape:window-height="480"
     id="namedview3945"
     showgrid="false"
     inkscape:zoom="0.23838384"
     inkscape:cx="736.83001"
     inkscape:cy="849.33005"
     inkscape:window-x="0"
     inkscape:window-y="0"
     inkscape:window-maximized="0"
     inkscape:current-layer="svg3911" /><defs
     id="defs3913"><style
       type="text/css"
       id="style3915"><![CDATA[
    .fil3 {fill:none}
    .fil0 {fill:#B2C801}
    .fil1 {fill:white}
    .fil2 {fill:#B2C801;fill-rule:nonzero}
   ]]></style></defs><g
     id="Layer_x0020_1"
     transform="translate(3937,-7063)"><metadata
       id="CorelCorpID_0Corel-Layer" /><circle
       class="fil0"
       cy="11000"
       r="3937"
       id="circle3919"
       cx="0"
       style="fill:#b2c801" /><circle
       class="fil1"
       cy="11000"
       r="3780"
       id="circle3921"
       cx="0"
       style="fill:#ffffff" /><circle
       class="fil0"
       cy="11000"
       r="2756"
       id="circle3923"
       cx="0"
       style="fill:#b2c801" /><polygon
       class="fil1"
       points="-2047,11000 0,8441 2047,11000 0,13559 "
       id="polygon3925"
       style="fill:#ffffff" /><polygon
       class="fil0"
       points="0,8567 -1946,11000 0,13433 "
       id="polygon3927"
       style="fill:#b2c801" /><polygon
       class="fil0"
       points="784,10543 903,10910 591,10683 278,10910 397,10543 85,10316 471,10316 591,9948 710,10316 1096,10316 "
       id="polygon3929"
       style="fill:#b2c801" /><polygon
       class="fil0"
       points="784,11527 903,11894 591,11667 278,11894 397,11527 85,11300 471,11300 591,10933 710,11300 1096,11300 "
       id="polygon3931"
       style="fill:#b2c801" /><path
       class="fil2"
       d="m -2500,8500 82,-73 130,146 143,-127 -130,-146 82,-73 344,388 -82,73 -151,-170 -142,126 151,170 -83,74 -344,-388 z m 671,-521 95,-53 444,346 -98,55 -91,-72 -205,114 13,115 -99,55 -59,-560 z m 115,94 19,193 135,-75 -154,-118 z m 962,-74 130,83 -125,38 -64,-41 c -34,32 -76,55 -125,70 -81,25 -157,20 -227,-15 -70,-34 -116,-87 -137,-158 -15,-48 -16,-95 -3,-142 13,-48 38,-90 75,-127 37,-37 81,-63 132,-79 77,-23 151,-18 222,15 71,34 118,87 141,160 20,67 14,133 -19,196 z m -89,-56 c 13,-36 14,-72 3,-108 -15,-47 -44,-82 -89,-104 -45,-22 -92,-25 -141,-10 -51,16 -89,45 -113,87 -24,42 -29,88 -14,137 17,55 52,92 105,111 41,14 83,15 126,2 25,-8 47,-19 66,-34 l -134,-85 125,-38 66,42 z m 788,-37 109,109 -130,10 -54,-54 c -40,23 -86,36 -136,40 -86,7 -159,-15 -219,-64 -60,-49 -94,-111 -99,-185 -4,-49 6,-96 29,-139 23,-44 57,-79 101,-107 44,-28 93,-44 146,-48 80,-6 152,15 213,64 62,48 96,111 102,187 5,70 -15,132 -62,187 z m -74,-75 c 21,-32 29,-67 27,-105 -4,-49 -25,-89 -64,-120 -39,-31 -84,-45 -136,-41 -52,4 -96,24 -129,60 -33,36 -48,79 -44,131 5,57 31,100 78,130 37,24 78,33 123,30 26,-2 49,-8 71,-18 l -112,-113 131,-10 55,56 z m 313,-359 107,8 -39,517 -108,-8 40,-517 z m 579,146 -90,51 c -22,-40 -47,-62 -76,-67 -14,-2 -26,0 -36,5 -10,5 -16,12 -17,21 -2,8 0,17 5,26 7,11 30,38 68,78 36,38 58,62 65,71 19,24 31,45 37,65 6,20 8,40 4,62 -7,42 -28,74 -65,96 -36,22 -80,29 -132,21 -40,-7 -73,-21 -100,-44 -27,-23 -48,-55 -63,-97 l 98,-35 c 20,50 48,78 83,83 19,3 35,1 49,-7 14,-7 22,-18 24,-30 2,-12 -1,-24 -8,-37 -8,-13 -26,-35 -54,-64 -54,-55 -88,-97 -102,-124 -14,-28 -19,-54 -15,-79 6,-35 26,-63 59,-84 34,-20 73,-27 117,-20 28,5 54,15 77,31 24,16 48,42 72,78 z m 226,-12 102,35 -137,402 151,52 -30,88 -253,-86 167,-491 z m 584,232 96,51 -48,561 -100,-52 11,-116 -207,-109 -90,73 -100,-53 438,-355 z m -16,148 -152,121 136,72 16,-193 z m 538,161 80,68 -135,361 337,-187 80,68 -266,456 -79,-68 167,-289 -305,170 -73,-62 122,-327 -260,208 -80,-69 412,-329 z"
       id="path3933"
       inkscape:connector-curvature="0"
       style="fill:#b2c801;fill-rule:nonzero" /><circle
       class="fil3"
       cy="11000"
       r="3898"
       id="circle3935"
       cx="0"
       style="fill:none" /><path
       class="fil2"
       d="m -2635,12478 -98,-37 c 21,-43 25,-77 12,-102 -7,-12 -15,-21 -26,-25 -11,-4 -20,-4 -28,0 -9,4 -15,11 -20,21 -5,12 -14,47 -27,102 -11,52 -19,84 -22,95 -10,29 -21,53 -34,70 -14,17 -31,31 -52,42 -40,21 -81,25 -122,11 -41,-15 -74,-44 -98,-90 -18,-35 -25,-70 -22,-105 4,-35 19,-72 46,-110 l 90,54 c -32,47 -39,86 -23,117 9,16 21,27 36,33 15,6 29,6 41,0 11,-6 20,-16 27,-30 7,-14 15,-42 23,-82 15,-77 31,-130 47,-158 15,-28 35,-49 59,-61 34,-18 70,-20 108,-7 39,13 68,39 88,77 13,25 19,52 20,80 0,28 -8,63 -25,105 z m 96,4 59,85 -165,116 c 26,6 49,15 68,27 19,12 34,26 46,43 24,34 32,70 25,109 -6,34 -29,64 -68,92 l -223,157 -58,-84 148,-104 c 39,-27 64,-48 75,-61 11,-14 17,-27 18,-41 0,-14 -4,-27 -14,-40 -12,-17 -28,-28 -48,-32 -20,-5 -41,-2 -64,7 -12,5 -36,20 -72,45 l -136,95 -59,-84 468,-330 z m 319,667 72,74 -298,286 -71,-74 31,-31 c -28,-1 -52,-6 -72,-15 -20,-9 -38,-22 -55,-39 -37,-39 -54,-86 -51,-143 2,-57 26,-106 70,-149 46,-44 97,-66 152,-67 56,-1 102,18 139,57 18,18 30,38 39,60 8,22 12,46 12,72 l 32,-31 z m -136,-20 c -23,-23 -49,-35 -80,-34 -31,0 -60,12 -85,37 -26,25 -39,53 -41,84 -2,32 8,59 30,82 23,23 50,35 81,35 31,-1 60,-13 86,-39 26,-25 40,-53 41,-84 1,-30 -10,-58 -32,-81 z m 216,119 84,66 -76,269 253,-130 83,65 -551,284 -83,-65 178,-91 112,-398 z m 470,170 88,56 -82,129 52,33 -48,75 -52,-33 -173,273 -88,-55 174,-273 -45,-29 48,-75 45,28 81,-129 z m 360,382 92,47 -187,368 -93,-47 20,-39 c -26,8 -51,11 -73,9 -22,-1 -43,-8 -64,-18 -48,-25 -80,-64 -96,-119 -16,-54 -10,-109 18,-163 28,-57 69,-95 121,-114 52,-19 102,-16 150,8 22,11 41,26 56,44 15,18 27,40 35,65 l 21,-41 z m -136,26 c -29,-14 -58,-16 -87,-6 -29,11 -51,32 -67,63 -17,32 -20,63 -11,93 8,31 27,53 55,67 29,15 58,17 88,7 29,-10 52,-32 69,-65 16,-32 20,-63 11,-92 -10,-30 -29,-52 -58,-67 z m 296,45 97,35 -14,40 c 29,-11 53,-17 74,-18 21,-1 40,2 59,9 39,13 67,38 84,75 15,31 14,69 -1,113 l -91,257 -97,-34 60,-170 c 17,-46 25,-78 27,-95 1,-16 -3,-31 -10,-42 -8,-12 -19,-20 -34,-26 -20,-7 -39,-6 -58,2 -19,9 -35,23 -49,45 -7,11 -18,37 -32,77 l -55,156 -97,-34 137,-390 z m 499,-24 c 17,4 31,14 41,30 10,16 12,32 8,51 -4,18 -14,31 -29,41 -15,10 -32,13 -50,9 -17,-4 -31,-14 -41,-30 -10,-16 -13,-33 -8,-51 4,-18 13,-32 29,-41 15,-10 32,-13 50,-9 z m -89,154 101,23 -92,403 -101,-23 92,-403 z m 131,34 105,14 72,271 152,-241 105,14 -331,525 -105,-14 107,-169 -105,-400 z m 759,51 103,-2 8,413 -103,2 -1,-44 c -20,20 -40,34 -60,43 -20,9 -42,13 -66,14 -54,1 -100,-19 -140,-59 -40,-41 -60,-92 -61,-153 -2,-64 16,-116 53,-158 37,-41 82,-62 136,-63 25,-1 48,4 70,12 22,9 43,23 62,41 l -1,-46 z m -108,87 c -32,1 -58,13 -79,36 -21,23 -31,52 -30,87 1,36 12,65 34,88 22,22 49,33 81,33 32,-1 59,-13 80,-36 21,-23 31,-53 30,-89 0,-36 -12,-65 -34,-87 -21,-22 -49,-32 -82,-32 z m 249,-250 102,-17 34,199 c 17,-21 35,-38 54,-50 18,-12 38,-19 58,-23 41,-7 77,1 109,24 28,20 46,54 54,101 l 46,268 -100,18 -31,-179 c -8,-47 -15,-78 -23,-94 -7,-16 -17,-27 -29,-33 -12,-7 -27,-9 -42,-6 -21,4 -37,14 -50,30 -12,16 -19,37 -21,61 -1,13 2,41 10,85 l 28,163 -102,17 -97,-564 z m 619,-115 105,-41 c 57,-23 100,-34 129,-34 28,1 55,10 79,28 24,18 43,43 56,75 13,34 16,66 9,96 -7,29 -25,56 -53,81 l 214,182 -108,43 -204,-174 -10,4 88,220 -99,39 -206,-519 z m 179,164 31,-12 c 32,-13 52,-26 61,-39 9,-13 9,-29 2,-48 -5,-11 -12,-20 -21,-26 -9,-6 -20,-9 -31,-9 -11,0 -30,6 -57,16 l -27,11 42,107 z m 720,-175 -289,164 c 19,23 41,37 68,42 27,5 54,0 82,-16 34,-19 56,-47 66,-85 l 96,-7 c -3,38 -15,70 -34,98 -19,28 -46,52 -83,73 -56,32 -112,40 -167,24 -55,-15 -98,-49 -129,-103 -31,-54 -39,-110 -24,-166 15,-56 49,-99 102,-130 57,-32 113,-40 169,-24 55,16 100,53 134,113 l 9,17 z m -130,-20 c -17,-16 -37,-25 -62,-27 -24,-3 -48,3 -71,16 -26,14 -44,33 -55,58 -7,15 -9,37 -7,64 l 195,-111 z m 47,-184 78,-68 32,37 c 0,-27 6,-51 16,-72 10,-22 25,-41 44,-58 20,-16 42,-27 66,-31 24,-4 49,-1 74,9 -3,-29 0,-56 10,-81 10,-26 25,-48 47,-66 22,-19 46,-31 72,-35 26,-5 50,-2 71,9 22,10 49,34 82,71 l 158,184 -79,67 -136,-158 c -31,-35 -56,-55 -75,-60 -20,-5 -39,0 -57,16 -13,11 -22,26 -26,43 -5,16 -3,34 3,52 6,18 22,42 48,72 l 121,140 -78,68 -130,-151 c -24,-28 -44,-46 -59,-55 -15,-9 -29,-13 -42,-12 -14,1 -27,7 -39,17 -13,11 -21,25 -25,42 -5,17 -3,35 3,54 7,18 23,42 49,72 l 120,139 -79,67 -269,-312 z m 636,-616 c 25,-30 56,-51 94,-64 37,-14 74,-17 112,-9 38,7 71,23 101,48 29,26 50,57 63,93 13,37 16,75 8,112 -7,38 -24,72 -50,103 -39,45 -88,69 -147,74 -60,4 -112,-14 -157,-53 -49,-42 -74,-95 -76,-159 -1,-56 16,-104 52,-145 z m 74,62 c -21,25 -30,52 -27,83 3,31 17,58 44,81 27,23 56,34 86,32 31,-1 57,-14 78,-39 21,-24 30,-52 28,-83 -3,-31 -18,-58 -45,-81 -27,-23 -55,-34 -86,-32 -30,1 -56,14 -78,39 z m -25,-355 56,-88 128,82 33,-52 76,48 -33,52 273,173 -55,88 -274,-174 -28,45 -75,-48 28,-45 -129,-81 z m 644,-349 -154,295 c 29,9 56,9 81,-2 25,-10 45,-30 59,-58 18,-34 21,-70 10,-107 l 76,-58 c 18,33 26,67 25,100 0,34 -10,69 -30,106 -29,58 -72,95 -127,112 -54,17 -109,12 -164,-16 -55,-29 -92,-71 -110,-126 -19,-56 -14,-110 14,-165 30,-57 73,-95 129,-112 55,-17 113,-10 173,21 l 18,10 z m -120,54 c -23,-4 -45,-1 -67,11 -22,11 -39,29 -51,52 -14,26 -18,52 -14,79 2,16 12,36 29,58 l 103,-200 z"
       id="path3937"
       inkscape:connector-curvature="0"
       style="fill:#b2c801;fill-rule:nonzero" /><circle
       class="fil3"
       cy="11000"
       r="3898"
       id="circle3939"
       cx="0"
       style="fill:none" /><polygon
       class="fil1"
       points="-397,10543 -278,10910 -591,10683 -903,10910 -784,10543 -1096,10316 -710,10316 -591,9948 -471,10316 -85,10316 "
       id="polygon3941"
       style="fill:#ffffff" /><polygon
       class="fil1"
       points="-397,11527 -278,11894 -591,11667 -903,11894 -784,11527 -1096,11300 -710,11300 -591,10933 -471,11300 -85,11300 "
       id="polygon3943"
       style="fill:#ffffff" /></g></svg>