<?xml version="1.0" encoding="UTF-8" standalone="no"?>
<!-- Creator: CorelDRAW X7 -->

<svg
   xmlns:dc="http://purl.org/dc/elements/1.1/"
   xmlns:cc="http://creativecommons.org/ns#"
   xmlns:rdf="http://www.w3.org/1999/02/22-rdf-syntax-ns#"
   xmlns:svg="http://www.w3.org/2000/svg"
   xmlns="http://www.w3.org/2000/svg"
   xmlns:sodipodi="http://sodipodi.sourceforge.net/DTD/sodipodi-0.dtd"
   xmlns:inkscape="http://www.inkscape.org/namespaces/inkscape"
   xml:space="preserve"
   width="7.8740005in"
   height="7.8740005in"
   version="1.1"
   style="clip-rule:evenodd;fill-rule:evenodd;image-rendering:optimizeQuality;shape-rendering:geometricPrecision;text-rendering:geometricPrecision"
   viewBox="0 0 7874.0005 7874.0005"
   id="svg4503"
   inkscape:version="0.91 r13725"
   sodipodi:docname="Nomads - Spektrs - [N3] [Vyo].svg"><metadata
     id="metadata4538"><rdf:RDF><cc:Work
         rdf:about=""><dc:format>image/svg+xml</dc:format><dc:type
           rdf:resource="http://purl.org/dc/dcmitype/StillImage" /></cc:Work></rdf:RDF></metadata><sodipodi:namedview
     pagecolor="#ffffff"
     bordercolor="#666666"
     borderopacity="1"
     objecttolerance="10"
     gridtolerance="10"
     guidetolerance="10"
     inkscape:pageopacity="0"
     inkscape:pageshadow="2"
     inkscape:window-width="640"
     inkscape:window-height="480"
     id="namedview4536"
     showgrid="false"
     inkscape:zoom="0.23838384"
     inkscape:cx="736.83001"
     inkscape:cy="849.33005"
     inkscape:window-x="0"
     inkscape:window-y="0"
     inkscape:window-maximized="0"
     inkscape:current-layer="svg4503" /><defs
     id="defs4505"><style
       type="text/css"
       id="style4507"><![CDATA[
    .fil2 {fill:none}
    .fil1 {fill:black}
    .fil0 {fill:#FFA000}
    .fil4 {fill:white}
    .fil3 {fill:white;fill-rule:nonzero}
   ]]></style></defs><g
     id="Layer_x0020_1"
     transform="translate(3937,-7063)"><metadata
       id="CorelCorpID_0Corel-Layer" /><circle
       class="fil0"
       cy="11000"
       r="3937"
       id="circle4511"
       cx="0"
       style="fill:#ffa000" /><circle
       class="fil1"
       cy="11000"
       r="3740"
       id="circle4513"
       cx="0"
       style="fill:#000000" /><circle
       class="fil2"
       cy="11000"
       r="3642"
       id="circle4515"
       cx="0"
       style="fill:none" /><path
       class="fil3"
       d="m -1002,13941 c 22,-101 110,-134 264,-100 l 367,82 c 37,8 50,31 42,69 -8,37 -30,52 -67,43 l -377,-84 c -60,-13 -94,-3 -101,30 l -8,34 c -8,37 25,64 100,80 l 167,38 c 160,35 229,100 209,193 l -13,57 c -23,102 -105,137 -248,106 l -92,-21 c -36,-8 -50,-31 -42,-69 8,-37 31,-52 67,-44 l 105,24 c 48,10 75,-1 83,-36 l 6,-25 c 7,-32 -22,-55 -86,-70 l -171,-38 c -168,-37 -241,-107 -218,-209 l 13,-60 z"
       id="path4517"
       inkscape:connector-curvature="0"
       style="fill:#ffffff;fill-rule:nonzero" /><path
       id="1"
       class="fil3"
       d="m -1784,13893 c -15,29 11,59 75,91 l 315,158 79,-157 -311,-156 c -67,-33 -109,-35 -124,-5 l -34,69 z m -79,-136 c 47,-93 146,-102 298,-26 l 301,151 69,-138 c 18,-35 47,-43 86,-23 40,20 52,47 34,83 l -227,454 c -16,31 -39,39 -70,24 l -379,-190 c -149,-74 -201,-156 -156,-246 l 44,-89 z"
       inkscape:connector-curvature="0"
       style="fill:#ffffff;fill-rule:nonzero" /><path
       id="2"
       class="fil3"
       d="m -2094,13550 -344,-329 c -25,-25 -25,-51 2,-79 27,-28 53,-30 79,-5 l 343,328 53,-54 c 24,-27 9,-66 -46,-119 l -260,-249 c -26,-25 -26,-52 1,-80 27,-28 53,-29 79,-4 l 263,251 c 118,113 140,208 66,286 l -201,210 c -37,39 -81,54 -130,45 -49,-9 -105,-43 -166,-101 l -72,-69 c -25,-25 -25,-51 3,-80 26,-27 52,-29 78,-4 l 49,47 c 73,69 121,91 146,64 l 57,-58 z"
       inkscape:connector-curvature="0"
       style="fill:#ffffff;fill-rule:nonzero" /><path
       id="3"
       class="fil3"
       d="m -2661,12858 -41,-435 c -1,-14 1,-25 6,-34 4,-9 11,-17 19,-22 7,-5 14,-7 22,-9 7,-2 15,-2 23,0 8,1 16,4 22,8 7,4 13,10 18,17 3,4 5,9 7,14 3,5 4,11 4,17 l 30,474 153,-99 c 33,-22 61,-15 84,22 25,37 20,66 -13,87 l -424,276 c -32,21 -61,13 -85,-25 -23,-35 -19,-64 14,-85 l 147,-95 -403,-206 c -11,-6 -20,-14 -27,-23 -4,-8 -8,-16 -9,-25 -2,-9 -1,-17 1,-26 2,-8 5,-15 9,-23 5,-6 10,-12 17,-16 8,-6 17,-8 26,-8 10,0 21,3 32,9 l 368,207 z"
       inkscape:connector-curvature="0"
       style="fill:#ffffff;fill-rule:nonzero" /><path
       id="4"
       class="fil3"
       d="m -3254,12100 423,-135 c 38,-12 63,3 77,45 13,43 1,70 -36,82 l -424,135 64,199 c 11,36 -2,59 -40,71 -36,12 -60,0 -71,-36 l -168,-526 c -11,-35 1,-58 37,-69 38,-13 63,-1 74,33 l 64,201 z"
       inkscape:connector-curvature="0"
       style="fill:#ffffff;fill-rule:nonzero" /><path
       id="5"
       class="fil3"
       d="m -3381,11105 c -37,3 -52,42 -46,118 l 28,342 158,-13 -29,-355 c -5,-67 -22,-100 -50,-97 l -61,5 z m 50,-136 c 105,-8 164,67 177,227 l 7,92 91,-261 c 5,-13 12,-23 22,-30 9,-6 19,-10 29,-10 8,-1 16,0 24,2 8,2 15,6 22,11 6,5 12,10 16,17 4,7 6,15 7,24 1,9 -1,18 -5,28 l 0,-1 -188,475 172,-14 c 39,-4 61,17 64,61 4,45 -14,69 -53,72 l -506,41 c -34,3 -53,-13 -56,-47 l -33,-410 c -14,-172 35,-263 148,-272 l 62,-5 z"
       inkscape:connector-curvature="0"
       style="fill:#ffffff;fill-rule:nonzero" /><path
       id="6"
       class="fil3"
       d="m -3097,9515 404,185 c 36,16 45,44 26,84 -18,41 -45,53 -81,37 l -404,-185 -87,190 c -16,34 -41,42 -78,25 -34,-15 -43,-40 -28,-74 l 229,-501 c 15,-33 40,-42 74,-26 37,16 47,41 32,74 l -87,191 z"
       inkscape:connector-curvature="0"
       style="fill:#ffffff;fill-rule:nonzero" /><path
       id="7"
       class="fil3"
       d="m -2189,8770 c 90,79 69,195 -64,347 l -84,96 c -127,145 -236,178 -327,99 l -285,-250 c -30,-25 -30,-55 -1,-88 30,-34 59,-38 88,-13 l 278,243 c 38,33 89,14 152,-57 l 101,-117 c 70,-79 85,-135 46,-169 l -277,-242 c -29,-26 -29,-55 0,-89 29,-32 58,-36 87,-10 l 286,250 z"
       inkscape:connector-curvature="0"
       style="fill:#ffffff;fill-rule:nonzero" /><path
       id="8"
       class="fil3"
       d="m -1423,8329 c 8,11 12,21 14,32 3,10 3,20 1,29 -2,10 -6,18 -12,26 -5,8 -12,15 -20,20 -8,6 -17,10 -28,13 -10,3 -21,4 -31,2 l -613,-77 213,308 c 23,32 16,61 -20,86 -36,25 -66,21 -88,-11 l -278,-401 c -7,-10 -11,-20 -13,-31 -2,-10 -1,-19 1,-29 2,-9 6,-18 11,-26 6,-8 13,-14 21,-20 9,-6 19,-10 29,-13 11,-3 22,-4 32,-2 l 607,74 -211,-304 c -22,-32 -15,-61 22,-86 36,-25 65,-21 87,11 l 276,399 z"
       inkscape:connector-curvature="0"
       style="fill:#ffffff;fill-rule:nonzero" /><path
       id="9"
       class="fil3"
       d="m -652,7948 c 35,103 -22,179 -170,230 l -218,74 c -160,54 -258,31 -292,-72 l -95,-277 c -35,-102 29,-180 190,-235 l 85,-29 c 35,-12 58,1 71,37 12,37 1,61 -34,72 l -60,21 c -93,32 -135,64 -124,96 l 91,267 c 11,33 55,36 133,10 l 216,-74 c 64,-22 91,-47 81,-75 l -48,-142 c -13,-37 2,-63 43,-77 43,-15 70,-3 83,34 l 48,140 z"
       inkscape:connector-curvature="0"
       style="fill:#ffffff;fill-rule:nonzero" /><path
       id="10"
       class="fil3"
       d="m 210,7888 c 0,120 -100,181 -302,183 l -128,0 c -192,2 -289,-57 -290,-177 l -3,-380 c 0,-39 22,-58 66,-59 45,0 67,19 67,58 l 3,368 c 1,51 49,76 144,75 l 154,-1 c 104,-1 157,-27 156,-78 l -2,-368 c -1,-38 22,-58 66,-58 44,-1 65,19 65,57 l 4,380 z"
       inkscape:connector-curvature="0"
       style="fill:#ffffff;fill-rule:nonzero" /><path
       id="11"
       class="fil3"
       d="m 987,8052 c -22,101 -110,135 -263,100 l -368,-81 c -36,-9 -50,-32 -41,-70 8,-37 30,-51 66,-43 l 378,84 c 59,13 93,3 100,-29 l 8,-35 c 8,-37 -25,-64 -100,-80 L 600,7861 C 440,7825 371,7761 392,7668 l 13,-57 c 22,-103 105,-138 247,-106 l 93,20 c 36,8 50,31 41,70 -8,36 -30,51 -66,43 l -106,-24 c -47,-10 -75,2 -83,37 l -5,25 c -7,32 21,55 86,69 l 171,38 c 168,38 241,107 218,209 l -14,60 z"
       inkscape:connector-curvature="0"
       style="fill:#ffffff;fill-rule:nonzero" /><path
       id="12"
       class="fil3"
       d="m 1376,8054 249,358 c 8,12 12,22 12,33 0,10 -2,20 -6,29 -4,6 -9,12 -15,18 -6,5 -13,9 -20,12 -8,2 -15,4 -24,3 -8,0 -15,-2 -23,-6 -4,-2 -9,-5 -13,-9 -5,-3 -9,-8 -12,-13 l -259,-397 -84,161 c -18,34 -46,42 -84,22 -39,-20 -50,-48 -32,-83 l 234,-447 c 18,-34 47,-41 86,-21 38,20 47,47 29,81 l -81,156 452,-19 c 13,0 25,2 35,7 8,5 15,10 20,17 6,7 10,14 12,23 2,8 3,16 3,24 -1,9 -3,16 -6,23 -5,9 -11,15 -19,20 -9,5 -20,7 -33,7 l -421,1 z"
       inkscape:connector-curvature="0"
       style="fill:#ffffff;fill-rule:nonzero" /><path
       id="13"
       class="fil3"
       d="m 2036,8522 203,194 50,-252 -253,58 z m 172,321 -296,-283 -153,34 c -11,2 -21,2 -31,-2 -9,-3 -17,-8 -24,-15 -6,-5 -11,-12 -14,-20 -4,-8 -6,-16 -7,-24 -1,-9 -1,-17 2,-25 2,-8 6,-15 13,-22 7,-8 18,-14 31,-17 l 572,-126 c 16,-4 31,-4 45,0 14,5 26,12 36,21 11,10 18,22 23,36 5,14 6,29 2,45 l -100,577 1,0 c -3,14 -8,25 -16,34 -7,7 -14,11 -21,14 -8,2 -16,4 -25,3 -8,-1 -16,-2 -24,-6 -7,-3 -14,-8 -20,-13 -8,-8 -13,-16 -17,-25 -3,-9 -4,-20 -2,-33 l 25,-153 z"
       inkscape:connector-curvature="0"
       style="fill:#ffffff;fill-rule:nonzero" /><path
       class="fil4"
       d="m -723,12508 c -484,-289 -961,-474 -1509,-611 -129,-32 -215,-148 -209,-281 7,-133 105,-240 237,-259 962,-137 1502,-786 1698,-1713 27,-129 34,-219 34,-219 l 944,0 c 0,0 7,90 34,219 196,927 736,1576 1698,1713 132,19 230,126 237,259 6,133 -80,249 -209,281 -547,137 -1024,321 -1507,609 -122,73 -278,42 -362,-72 -85,-114 -70,-272 35,-368 123,-112 193,-269 193,-436 0,-326 -265,-591 -591,-591 -326,0 -591,265 -591,591 0,167 70,325 194,437 105,96 121,254 36,368 -84,115 -240,146 -362,73 z"
       id="path4532"
       inkscape:connector-curvature="0"
       style="fill:#ffffff" /><path
       class="fil0"
       d="m -582,12271 c -481,-287 -953,-484 -1583,-641 826,-118 1653,-630 1929,-1929 l 472,0 c 276,1299 1103,1811 1929,1929 -630,157 -1102,354 -1581,640 173,-159 282,-387 282,-640 0,-478 -388,-866 -866,-866 -478,0 -866,388 -866,866 0,254 109,483 284,641 z"
       id="path4534"
       inkscape:connector-curvature="0"
       style="fill:#ffa000" /></g></svg>