<?xml version="1.0" encoding="UTF-8" standalone="no"?>
<!-- Creator: CorelDRAW X7 -->

<svg
   xmlns:dc="http://purl.org/dc/elements/1.1/"
   xmlns:cc="http://creativecommons.org/ns#"
   xmlns:rdf="http://www.w3.org/1999/02/22-rdf-syntax-ns#"
   xmlns:svg="http://www.w3.org/2000/svg"
   xmlns="http://www.w3.org/2000/svg"
   xmlns:sodipodi="http://sodipodi.sourceforge.net/DTD/sodipodi-0.dtd"
   xmlns:inkscape="http://www.inkscape.org/namespaces/inkscape"
   xml:space="preserve"
   width="7.8740005in"
   height="7.8740005in"
   version="1.1"
   style="clip-rule:evenodd;fill-rule:evenodd;image-rendering:optimizeQuality;shape-rendering:geometricPrecision;text-rendering:geometricPrecision"
   viewBox="0 0 7874.0005 7874.0005"
   id="svg13282"
   inkscape:version="0.91 r13725"
   sodipodi:docname="image_6026.svg"><metadata
     id="metadata13302"><rdf:RDF><cc:Work
         rdf:about=""><dc:format>image/svg+xml</dc:format><dc:type
           rdf:resource="http://purl.org/dc/dcmitype/StillImage" /></cc:Work></rdf:RDF></metadata><sodipodi:namedview
     pagecolor="#ffffff"
     bordercolor="#666666"
     borderopacity="1"
     objecttolerance="10"
     gridtolerance="10"
     guidetolerance="10"
     inkscape:pageopacity="0"
     inkscape:pageshadow="2"
     inkscape:window-width="640"
     inkscape:window-height="480"
     id="namedview13300"
     showgrid="false"
     inkscape:zoom="0.23838384"
     inkscape:cx="736.83001"
     inkscape:cy="849.33005"
     inkscape:window-x="0"
     inkscape:window-y="0"
     inkscape:window-maximized="0"
     inkscape:current-layer="svg13282" /><defs
     id="defs13284"><style
       type="text/css"
       id="style13286"><![CDATA[
    .fil1 {fill:#403273}
    .fil0 {fill:#FFF700}
   ]]></style></defs><g
     id="Layer_x0020_1"
     transform="translate(3937,-7063)"><metadata
       id="CorelCorpID_0Corel-Layer" /><circle
       class="fil0"
       cy="11000"
       r="3937"
       id="circle13290"
       cx="0"
       style="fill:#fff700" /><circle
       class="fil1"
       cy="11000"
       r="3780"
       id="circle13292"
       cx="0"
       style="fill:#403273" /><polygon
       class="fil0"
       points="0,12220 -591,11212 0,9150 591,11212 "
       id="polygon13294"
       style="fill:#fff700" /><path
       class="fil0"
       d="m 0,13402 2032,-937 c 85,-39 140,-254 0,-498 -235,-406 -708,-996 -1148,-1321 339,-195 1001,-224 1277,87 347,390 545,719 780,1126 109,190 -130,614 -325,715 l -2338,1212 -563,0 -2339,-1212 c -195,-101 -434,-525 -325,-715 235,-407 433,-736 780,-1126 276,-311 938,-282 1277,-87 -440,325 -913,915 -1147,1321 -141,244 -86,459 0,498 L 0,13402 Z"
       id="path13296"
       inkscape:connector-curvature="0"
       style="fill:#fff700" /><path
       class="fil0"
       d="m 2,8340 1275,588 c 53,24 88,159 0,312 -147,255 -444,625 -720,828 212,123 628,141 801,-54 218,-244 342,-451 489,-706 69,-119 -81,-385 -203,-448 l -1467,-761 -354,0 -1467,761 c -122,63 -272,329 -203,448 147,255 271,462 489,706 173,195 589,177 801,54 -276,-203 -573,-573 -720,-828 -88,-153 -53,-288 0,-312 L 2,8340 Z"
       id="path13298"
       inkscape:connector-curvature="0"
       style="fill:#fff700" /></g></svg>