<?xml version="1.0" encoding="UTF-8" standalone="no"?>
<!-- Creator: CorelDRAW X7 -->

<svg
   xmlns:dc="http://purl.org/dc/elements/1.1/"
   xmlns:cc="http://creativecommons.org/ns#"
   xmlns:rdf="http://www.w3.org/1999/02/22-rdf-syntax-ns#"
   xmlns:svg="http://www.w3.org/2000/svg"
   xmlns="http://www.w3.org/2000/svg"
   xmlns:sodipodi="http://sodipodi.sourceforge.net/DTD/sodipodi-0.dtd"
   xmlns:inkscape="http://www.inkscape.org/namespaces/inkscape"
   xml:space="preserve"
   width="7.8740005in"
   height="7.8740005in"
   version="1.1"
   style="clip-rule:evenodd;fill-rule:evenodd;image-rendering:optimizeQuality;shape-rendering:geometricPrecision;text-rendering:geometricPrecision"
   viewBox="0 0 7874.0005 7874.0005"
   id="svg13844"
   inkscape:version="0.91 r13725"
   sodipodi:docname="image_6027.svg"><metadata
     id="metadata13860"><rdf:RDF><cc:Work
         rdf:about=""><dc:format>image/svg+xml</dc:format><dc:type
           rdf:resource="http://purl.org/dc/dcmitype/StillImage" /></cc:Work></rdf:RDF></metadata><sodipodi:namedview
     pagecolor="#ffffff"
     bordercolor="#666666"
     borderopacity="1"
     objecttolerance="10"
     gridtolerance="10"
     guidetolerance="10"
     inkscape:pageopacity="0"
     inkscape:pageshadow="2"
     inkscape:window-width="640"
     inkscape:window-height="480"
     id="namedview13858"
     showgrid="false"
     inkscape:zoom="0.23838384"
     inkscape:cx="736.83001"
     inkscape:cy="849.33005"
     inkscape:window-x="0"
     inkscape:window-y="0"
     inkscape:window-maximized="0"
     inkscape:current-layer="svg13844" /><defs
     id="defs13846"><style
       type="text/css"
       id="style13848"><![CDATA[
    .fil1 {fill:#403273}
    .fil0 {fill:#FFF700}
   ]]></style></defs><g
     id="Layer_x0020_1"
     transform="translate(3937,-7063)"><metadata
       id="CorelCorpID_0Corel-Layer" /><circle
       class="fil0"
       cy="11000"
       r="3937"
       id="circle13852"
       cx="0"
       style="fill:#fff700" /><circle
       class="fil1"
       cy="11000"
       r="3780"
       id="circle13854"
       cx="0"
       style="fill:#403273" /><path
       class="fil0"
       d="m 0,11039 1850,-846 c 78,-36 128,-231 0,-453 -213,-369 -643,-906 -1043,-1201 308,-177 910,-204 1162,79 314,354 495,654 708,1024 100,172 -118,558 -295,649 l -2126,1103 -512,0 -2126,-1103 c -177,-91 -395,-477 -295,-649 213,-370 394,-670 708,-1024 252,-283 854,-256 1162,-79 -400,295 -830,832 -1043,1201 -128,222 -78,417 0,453 L 0,11039 Z m 0,827 -1480,673 c -62,28 -103,185 0,362 170,296 514,725 834,961 -246,142 -728,163 -929,-63 -252,-284 -396,-523 -567,-819 -79,-138 95,-446 236,-520 l 1701,-882 410,0 1701,882 c 141,74 315,382 236,520 -171,296 -315,535 -567,819 -201,226 -683,205 -929,63 320,-236 664,-665 834,-961 103,-177 62,-334 0,-362 L 0,11866 Z"
       id="path13856"
       inkscape:connector-curvature="0"
       style="fill:#fff700" /></g></svg>