<?xml version="1.0" encoding="UTF-8" standalone="no"?>
<!-- Creator: CorelDRAW X7 -->

<svg
   xmlns:dc="http://purl.org/dc/elements/1.1/"
   xmlns:cc="http://creativecommons.org/ns#"
   xmlns:rdf="http://www.w3.org/1999/02/22-rdf-syntax-ns#"
   xmlns:svg="http://www.w3.org/2000/svg"
   xmlns="http://www.w3.org/2000/svg"
   xmlns:sodipodi="http://sodipodi.sourceforge.net/DTD/sodipodi-0.dtd"
   xmlns:inkscape="http://www.inkscape.org/namespaces/inkscape"
   xml:space="preserve"
   width="7.8740005in"
   height="7.8740005in"
   version="1.1"
   style="clip-rule:evenodd;fill-rule:evenodd;image-rendering:optimizeQuality;shape-rendering:geometricPrecision;text-rendering:geometricPrecision"
   viewBox="0 0 7874.0005 7874.0005"
   id="svg3723"
   inkscape:version="0.91 r13725"
   sodipodi:docname="Mercs - Valerya Gromoz, Mercenary Hacker - [N3] [Vyo].svg"><metadata
     id="metadata3764"><rdf:RDF><cc:Work
         rdf:about=""><dc:format>image/svg+xml</dc:format><dc:type
           rdf:resource="http://purl.org/dc/dcmitype/StillImage" /></cc:Work></rdf:RDF></metadata><sodipodi:namedview
     pagecolor="#ffffff"
     bordercolor="#666666"
     borderopacity="1"
     objecttolerance="10"
     gridtolerance="10"
     guidetolerance="10"
     inkscape:pageopacity="0"
     inkscape:pageshadow="2"
     inkscape:window-width="640"
     inkscape:window-height="480"
     id="namedview3762"
     showgrid="false"
     inkscape:zoom="0.23838384"
     inkscape:cx="736.83001"
     inkscape:cy="849.33005"
     inkscape:window-x="0"
     inkscape:window-y="0"
     inkscape:window-maximized="0"
     inkscape:current-layer="svg3723" /><defs
     id="defs3725"><style
       type="text/css"
       id="style3727"><![CDATA[
    .fil0 {fill:#00A29D}
    .fil4 {fill:#80D2EA}
    .fil2 {fill:#81D1E8}
    .fil1 {fill:#B7E4F7}
    .fil3 {fill:white}
   ]]></style></defs><g
     id="Layer_x0020_1"
     transform="translate(3937,-7063)"><metadata
       id="CorelCorpID_0Corel-Layer" /><circle
       class="fil0"
       cy="11000"
       r="3937"
       id="circle3731"
       cx="0"
       style="fill:#00a29d" /><path
       class="fil1"
       d="m 0,7063 c 1905,0 3493,1353 3858,3150 l -282,0 C 3216,8569 1752,7339 0,7339 c -865,0 -1660,300 -2287,802 l -140,-241 C -1758,7375 -915,7063 0,7063 Z m 3898,3386 c 26,180 39,364 39,551 0,2174 -1763,3937 -3937,3937 -436,0 -855,-71 -1247,-202 l 141,-244 c 349,111 720,170 1106,170 2022,0 3661,-1639 3661,-3661 0,-187 -14,-371 -41,-551 l 278,0 z m -5370,4203 c -1445,-583 -2465,-1998 -2465,-3652 0,-1173 513,-2225 1326,-2947 l 141,244 c -732,670 -1191,1633 -1191,2703 0,1552 965,2878 2328,3411 l -139,241 z"
       id="path3733"
       inkscape:connector-curvature="0"
       style="fill:#b7e4f7" /><g
       id="_861523456"><path
         class="fil2"
         d="M 2096,10449 C 1781,9642 997,9071 79,9071 c -519,0 -994,182 -1367,486 l 515,892 2869,0 z"
         id="path3736"
         inkscape:connector-curvature="0"
         style="fill:#81d1e8" /><path
         class="fil3"
         d="M 3069,10213 C 2622,9017 1470,8165 118,8165 c -752,0 -1443,264 -1985,704 l 776,1344 4160,0 z"
         id="path3738"
         inkscape:connector-curvature="0"
         style="fill:#ffffff" /><path
         class="fil4"
         d="M 2953,10134 C 2479,8995 1363,8244 118,8244 c -685,0 -1343,226 -1882,645 l 718,1245 3999,0 z"
         id="path3740"
         inkscape:connector-curvature="0"
         style="fill:#80d2ea" /><path
         class="fil1"
         d="m -955,10134 2898,0 C 1566,9498 872,9071 79,9071 c -519,0 -994,182 -1367,486 l 333,577 z"
         id="path3742"
         inkscape:connector-curvature="0"
         style="fill:#b7e4f7" /></g><g
       id="_861517984"><path
         class="fil2"
         d="m -1526,9460 c -541,676 -643,1641 -184,2436 259,449 655,770 1104,941 l 515,-892 -1435,-2485 z"
         id="path3745"
         inkscape:connector-curvature="0"
         style="fill:#81d1e8" /><path
         class="fil3"
         d="m -2217,8736 c -812,985 -973,2408 -297,3579 376,652 950,1118 1602,1367 l 776,-1343 -2081,-3603 z"
         id="path3747"
         inkscape:connector-curvature="0"
         style="fill:#ffffff" /><path
         class="fil4"
         d="m -2227,8875 c -749,981 -841,2323 -219,3401 343,593 867,1050 1500,1308 l 719,-1245 -2000,-3464 z"
         id="path3749"
         inkscape:connector-curvature="0"
         style="fill:#80d2ea" /><path
         class="fil1"
         d="M -273,12260 -1721,9751 c -363,644 -386,1458 11,2145 259,449 655,770 1104,941 l 333,-577 z"
         id="path3751"
         inkscape:connector-curvature="0"
         style="fill:#b7e4f7" /></g><g
       id="_861521440"><path
         class="fil2"
         d="m -571,13091 c 856,131 1743,-263 2202,-1058 259,-449 340,-952 263,-1427 l -1030,0 -1435,2485 z"
         id="path3754"
         inkscape:connector-curvature="0"
         style="fill:#81d1e8" /><path
         class="fil3"
         d="m -853,14052 c 1259,211 2573,-362 3249,-1532 376,-652 493,-1382 382,-2071 l -1551,0 -2080,3603 z"
         id="path3756"
         inkscape:connector-curvature="0"
         style="fill:#ffffff" /><path
         class="fil4"
         d="m -727,13991 c 1224,158 2432,-433 3055,-1511 342,-593 476,-1276 383,-1952 l -1438,0 -2000,3463 z"
         id="path3758"
         inkscape:connector-curvature="0"
         style="fill:#80d2ea" /><path
         class="fil1"
         d="m 1227,10606 -1448,2510 c 739,-9 1456,-396 1852,-1083 259,-449 340,-952 263,-1427 l -667,0 z"
         id="path3760"
         inkscape:connector-curvature="0"
         style="fill:#b7e4f7" /></g></g></svg>