<?xml version="1.0" encoding="UTF-8" standalone="no"?>
<!-- Creator: CorelDRAW X7 -->

<svg
   xmlns:dc="http://purl.org/dc/elements/1.1/"
   xmlns:cc="http://creativecommons.org/ns#"
   xmlns:rdf="http://www.w3.org/1999/02/22-rdf-syntax-ns#"
   xmlns:svg="http://www.w3.org/2000/svg"
   xmlns="http://www.w3.org/2000/svg"
   xmlns:sodipodi="http://sodipodi.sourceforge.net/DTD/sodipodi-0.dtd"
   xmlns:inkscape="http://www.inkscape.org/namespaces/inkscape"
   xml:space="preserve"
   width="7.8740005in"
   height="7.8740005in"
   version="1.1"
   style="clip-rule:evenodd;fill-rule:evenodd;image-rendering:optimizeQuality;shape-rendering:geometricPrecision;text-rendering:geometricPrecision"
   viewBox="0 0 7874.0005 7874.0005"
   id="svg3837"
   inkscape:version="0.91 r13725"
   sodipodi:docname="Yu Jing - Kuang Shi - [N3] [Vyo].svg"><metadata
     id="metadata3851"><rdf:RDF><cc:Work
         rdf:about=""><dc:format>image/svg+xml</dc:format><dc:type
           rdf:resource="http://purl.org/dc/dcmitype/StillImage" /></cc:Work></rdf:RDF></metadata><sodipodi:namedview
     pagecolor="#ffffff"
     bordercolor="#666666"
     borderopacity="1"
     objecttolerance="10"
     gridtolerance="10"
     guidetolerance="10"
     inkscape:pageopacity="0"
     inkscape:pageshadow="2"
     inkscape:window-width="640"
     inkscape:window-height="480"
     id="namedview3849"
     showgrid="false"
     inkscape:zoom="0.23838384"
     inkscape:cx="736.83001"
     inkscape:cy="849.33005"
     inkscape:window-x="0"
     inkscape:window-y="0"
     inkscape:window-maximized="0"
     inkscape:current-layer="svg3837" /><defs
     id="defs3839"><style
       type="text/css"
       id="style3841"><![CDATA[
    .fil0 {fill:#E2001A}
    .fil1 {fill:white;fill-rule:nonzero}
   ]]></style></defs><g
     id="Layer_x0020_1"
     transform="translate(3937,-7063)"><metadata
       id="CorelCorpID_0Corel-Layer" /><circle
       class="fil0"
       cy="11000"
       r="3937"
       id="circle3845"
       cx="0"
       style="fill:#e2001a" /><path
       class="fil1"
       d="m 0,8008 c 826,0 1574,335 2116,876 541,542 876,1290 876,2116 0,826 -335,1574 -876,2116 -542,541 -1290,876 -2116,876 -826,0 -1574,-335 -2116,-876 -541,-542 -876,-1290 -876,-2116 0,-826 335,-1574 876,-2116 542,-541 1290,-876 2116,-876 z m -2341,2677 963,0 0,-1604 c -104,75 -202,158 -292,249 -358,357 -601,829 -671,1355 z m 963,630 -963,0 c 70,526 313,998 671,1355 90,91 188,174 292,249 l 0,-1604 z m 2756,-630 963,0 c -70,-526 -313,-998 -671,-1355 -90,-91 -188,-174 -292,-249 l 0,1604 z m 963,630 -963,0 0,1604 c 104,-75 202,-158 292,-249 358,-357 601,-829 671,-1355 z M 748,13241 748,8759 C 513,8680 261,8638 0,8638 c -261,0 -513,42 -748,121 l 0,4482 c 235,79 487,121 748,121 261,0 513,-42 748,-121 z"
       id="path3847"
       inkscape:connector-curvature="0"
       style="fill:#ffffff;fill-rule:nonzero" /></g></svg>