<?xml version="1.0" encoding="UTF-8" standalone="no"?>
<!-- Creator: CorelDRAW X7 -->

<svg
   xmlns:dc="http://purl.org/dc/elements/1.1/"
   xmlns:cc="http://creativecommons.org/ns#"
   xmlns:rdf="http://www.w3.org/1999/02/22-rdf-syntax-ns#"
   xmlns:svg="http://www.w3.org/2000/svg"
   xmlns="http://www.w3.org/2000/svg"
   xmlns:sodipodi="http://sodipodi.sourceforge.net/DTD/sodipodi-0.dtd"
   xmlns:inkscape="http://www.inkscape.org/namespaces/inkscape"
   xml:space="preserve"
   width="7.8740005in"
   height="7.8740005in"
   version="1.1"
   style="clip-rule:evenodd;fill-rule:evenodd;image-rendering:optimizeQuality;shape-rendering:geometricPrecision;text-rendering:geometricPrecision"
   viewBox="0 0 7874.0005 7874.0005"
   id="svg2"
   inkscape:version="0.91 r13725"
   sodipodi:docname="ariadna_devil_dogs.svg"><metadata
     id="metadata58"><rdf:RDF><cc:Work
         rdf:about=""><dc:format>image/svg+xml</dc:format><dc:type
           rdf:resource="http://purl.org/dc/dcmitype/StillImage" /></cc:Work></rdf:RDF></metadata><sodipodi:namedview
     pagecolor="#ffffff"
     bordercolor="#666666"
     borderopacity="1"
     objecttolerance="10"
     gridtolerance="10"
     guidetolerance="10"
     inkscape:pageopacity="0"
     inkscape:pageshadow="2"
     inkscape:window-width="640"
     inkscape:window-height="480"
     id="namedview56"
     showgrid="false"
     inkscape:zoom="0.23838384"
     inkscape:cx="736.83001"
     inkscape:cy="849.33005"
     inkscape:window-x="0"
     inkscape:window-y="0"
     inkscape:window-maximized="0"
     inkscape:current-layer="svg2" /><defs
     id="defs4"><style
       type="text/css"
       id="style6"><![CDATA[
    .fil2 {fill:none}
    .fil0 {fill:#0B2A4C}
    .fil1 {fill:white}
    .fil4 {fill:#A5A542;fill-rule:nonzero}
    .fil5 {fill:#E32527;fill-rule:nonzero}
    .fil3 {fill:white;fill-rule:nonzero}
   ]]></style></defs><g
     id="Layer_x0020_1"
     transform="translate(3937,-7063)"><metadata
       id="CorelCorpID_0Corel-Layer" /><circle
       class="fil0"
       cy="11000"
       r="3937"
       id="circle10"
       cx="0"
       style="fill:#0b2a4c" /><circle
       class="fil1"
       cy="11000"
       r="3858"
       id="circle12"
       cx="0"
       style="fill:#ffffff" /><circle
       class="fil0"
       cy="11000"
       r="3780"
       id="circle14"
       cx="0"
       style="fill:#0b2a4c" /><circle
       class="fil1"
       cy="11000"
       r="3031"
       id="circle16"
       cx="0"
       style="fill:#ffffff" /><circle
       class="fil2"
       cy="11000"
       r="3898"
       id="circle18"
       cx="0"
       style="fill:none" /><path
       class="fil3"
       d="m -3062,9768 -204,-93 c -7,-4 -13,-5 -16,-5 -3,0 -7,1 -10,5 -1,0 -3,1 -4,3 -8,7 -16,9 -22,6 -6,-2 -9,-6 -10,-10 0,-5 1,-11 5,-19 l 60,-132 c 5,-10 9,-16 13,-19 3,-2 8,-3 13,0 7,3 11,12 10,25 0,2 0,4 0,5 -1,5 0,9 1,11 2,3 6,6 13,9 l 6,3 219,99 c 18,8 31,12 39,10 8,-2 15,-8 22,-20 l 37,17 c -2,5 -5,12 -8,20 -3,8 -5,12 -6,14 -18,41 -40,67 -66,78 -26,12 -56,9 -92,-7 z m 178,-121 -35,-16 c 7,-23 6,-43 -2,-59 -8,-15 -26,-29 -54,-41 l -160,-74 c -9,-4 -18,-6 -25,-7 -8,0 -15,1 -22,4 -4,2 -8,5 -13,9 -10,7 -18,9 -24,6 -5,-3 -9,-6 -10,-11 -1,-4 0,-10 3,-17 l 35,-75 c 3,-7 7,-12 11,-14 4,-2 9,-2 14,1 6,2 10,9 11,19 1,10 2,18 4,22 2,7 7,13 12,17 6,5 17,11 32,18 l 135,62 c 43,19 71,41 84,65 14,24 15,54 4,91 z"
       id="path20"
       inkscape:connector-curvature="0"
       style="fill:#ffffff;fill-rule:nonzero" /><path
       id="1"
       class="fil3"
       d="m -3048,9170 -28,-16 c 8,-14 18,-27 31,-39 13,-11 19,-17 20,-18 2,-3 1,-8 -1,-15 -3,-6 -3,-12 0,-17 3,-5 6,-8 10,-9 4,0 9,1 16,5 l 80,45 c 9,5 14,10 16,14 2,4 1,8 -2,14 -4,8 -14,9 -30,6 -7,-2 -13,-3 -18,-4 -18,-2 -36,-1 -52,5 -16,6 -30,16 -42,29 z m 321,193 -33,-18 c 7,-15 10,-28 8,-38 -2,-10 -8,-18 -19,-24 -18,-10 -47,0 -88,30 l -4,2 c -39,30 -72,47 -97,52 -25,4 -50,-1 -76,-15 -34,-19 -55,-46 -65,-79 -9,-33 -5,-67 14,-100 l 2,-4 30,16 c -3,11 -4,21 0,31 3,9 10,17 19,22 17,9 46,-2 86,-34 l 7,-6 c 33,-27 64,-42 91,-47 26,-4 54,1 82,17 35,20 56,47 64,83 8,35 1,73 -21,112 z m -41,-3 32,17 c -8,14 -18,27 -31,39 -13,12 -20,19 -21,21 -2,4 -2,9 1,15 3,6 3,12 0,16 -3,5 -7,8 -12,9 -5,1 -11,0 -17,-4 l -89,-50 c -10,-5 -16,-10 -18,-15 -3,-4 -2,-9 1,-15 5,-8 15,-9 32,-5 8,2 15,4 20,4 20,3 38,2 56,-4 19,-6 34,-15 46,-28 z"
       inkscape:connector-curvature="0"
       style="fill:#ffffff;fill-rule:nonzero" /><path
       id="2"
       class="fil3"
       d="m -2610,9004 -51,64 -25,-34 38,-48 -208,-94 -20,-27 73,-92 310,140 c 2,1 4,1 6,2 3,1 4,2 5,2 4,4 11,3 21,-2 10,-5 17,-5 23,-1 5,4 7,9 7,14 -1,4 -5,12 -13,22 l -78,99 c -7,9 -13,15 -18,17 -5,1 -11,0 -16,-4 -5,-4 -6,-10 -5,-19 1,-9 -1,-15 -5,-19 -1,0 -2,-1 -3,-2 -2,0 -4,-1 -6,-3 l -35,-15 z m -164,-58 112,150 c 2,3 4,5 6,7 2,2 4,4 6,5 4,4 9,6 14,7 5,0 10,-1 15,-3 2,-1 5,-2 8,-4 9,-5 16,-5 22,0 5,4 7,8 7,13 -1,6 -4,12 -10,19 l -42,54 c -6,8 -11,12 -16,14 -4,1 -8,0 -13,-4 -7,-5 -8,-13 -4,-24 2,-5 3,-8 3,-10 1,-7 0,-14 -2,-21 -2,-7 -7,-16 -14,-25 l -154,-206 62,28 z"
       inkscape:connector-curvature="0"
       style="fill:#ffffff;fill-rule:nonzero" /><path
       id="3"
       class="fil3"
       d="m -2287,8781 -99,103 c -6,7 -11,10 -15,11 -5,1 -9,-1 -13,-5 -6,-5 -7,-12 -3,-22 1,-2 1,-4 2,-5 1,-5 1,-9 0,-11 -1,-3 -4,-8 -10,-14 l -4,-3 -193,-185 c -6,-5 -10,-9 -13,-10 -3,-1 -7,0 -12,1 -1,1 -2,1 -5,2 -9,4 -17,4 -22,-2 -4,-4 -6,-8 -5,-12 0,-4 4,-10 9,-16 l 95,-99 243,233 c 4,4 8,6 11,7 3,1 6,0 11,-1 1,0 3,-1 5,-2 10,-4 17,-3 23,2 4,4 6,8 5,12 -1,5 -4,10 -10,16 z m -144,-153 c 8,-9 11,-19 10,-28 -2,-10 -9,-20 -21,-32 l -37,-35 c -12,-11 -22,-18 -32,-19 -9,-1 -19,3 -28,11 l -24,-23 c 2,-2 3,-4 5,-6 2,-2 5,-5 9,-9 33,-35 64,-55 92,-61 28,-5 54,4 79,28 20,19 30,40 30,62 1,22 -9,47 -28,74 25,-22 47,-34 68,-37 20,-3 38,3 54,18 l 36,35 c 3,2 5,4 7,5 2,0 3,0 4,-2 2,-1 2,-5 1,-12 -1,-7 0,-12 3,-15 4,-3 8,-5 13,-5 5,0 9,1 13,5 11,10 15,26 13,47 -2,22 -12,41 -28,59 -20,20 -41,30 -62,30 -21,-1 -43,-13 -67,-36 l -24,-23 c -11,-11 -22,-17 -31,-18 -10,-1 -20,2 -31,11 l -24,-24 z"
       inkscape:connector-curvature="0"
       style="fill:#ffffff;fill-rule:nonzero" /><path
       id="4"
       class="fil3"
       d="m -2254,8213 c 6,-5 11,-9 16,-9 4,-1 9,1 13,5 5,6 5,14 1,23 -2,2 -2,4 -3,5 -2,5 -2,9 -1,12 1,3 4,7 9,14 l 3,3 179,199 c 4,6 8,9 11,10 2,1 5,2 9,1 1,0 4,-1 7,-2 11,-4 19,-3 24,3 4,4 5,9 4,13 -1,4 -5,10 -11,15 l -107,96 c -7,6 -12,9 -16,9 -4,1 -8,-1 -12,-5 -6,-6 -6,-14 -2,-23 1,-2 2,-4 2,-5 2,-5 2,-8 2,-11 -1,-3 -4,-8 -10,-14 l -3,-4 -177,-198 c -6,-6 -10,-10 -13,-11 -3,-1 -7,-1 -11,0 -2,0 -3,1 -6,2 -9,3 -17,1 -22,-4 -4,-5 -5,-9 -4,-13 1,-4 4,-9 11,-15 l 107,-96 z"
       inkscape:connector-curvature="0"
       style="fill:#ffffff;fill-rule:nonzero" /><path
       id="5"
       class="fil3"
       d="m -1848,8284 -68,46 -13,-39 50,-35 -172,-151 -10,-32 96,-67 256,225 c 1,2 3,3 5,5 2,1 3,2 4,3 3,4 10,6 20,4 11,-2 19,0 23,6 4,5 4,10 2,14 -2,5 -8,11 -19,18 l -103,72 c -10,7 -17,10 -22,10 -6,1 -10,-2 -14,-7 -4,-5 -4,-12 0,-20 4,-8 4,-15 1,-20 -1,0 -1,-1 -3,-2 -1,-2 -2,-3 -4,-5 l -29,-25 z m -140,-103 64,176 c 0,3 1,6 3,9 1,2 2,4 4,6 3,5 7,9 12,11 4,2 10,2 15,1 2,0 5,0 8,-1 10,-2 17,0 22,7 3,5 4,9 2,14 -2,5 -7,10 -15,15 l -56,39 c -8,6 -14,9 -18,9 -5,0 -9,-2 -12,-7 -5,-7 -4,-15 3,-25 3,-3 5,-6 6,-8 3,-7 4,-14 4,-21 0,-8 -2,-17 -6,-29 l -87,-241 51,45 z"
       inkscape:connector-curvature="0"
       style="fill:#ffffff;fill-rule:nonzero" /><path
       id="6"
       class="fil3"
       d="m -1461,8165 -16,-29 c 12,-8 18,-16 20,-24 1,-8 -3,-21 -13,-39 l -105,-196 c -9,-17 -18,-28 -26,-31 -8,-4 -18,-3 -30,3 l -16,-29 c 51,-23 98,-26 141,-11 43,16 79,49 106,100 28,51 36,99 25,144 -10,45 -39,82 -86,112 z m -136,73 c -7,4 -13,6 -17,5 -5,0 -8,-3 -11,-8 -4,-7 -2,-14 4,-22 2,-2 3,-3 3,-4 3,-4 4,-8 4,-11 0,-3 -2,-8 -6,-16 l -2,-4 -127,-235 c -4,-8 -7,-12 -10,-14 -2,-2 -6,-3 -11,-3 -1,0 -3,0 -5,1 -10,1 -17,-2 -21,-9 -2,-5 -3,-10 -1,-14 2,-3 7,-7 14,-11 l 121,-65 186,345 -121,65 z"
       inkscape:connector-curvature="0"
       style="fill:#ffffff;fill-rule:nonzero" /><path
       id="7"
       class="fil3"
       d="m -986,7954 -75,31 -315,-241 c -8,-6 -18,-9 -29,-8 -12,2 -19,-1 -22,-8 -2,-5 -2,-9 0,-13 2,-3 7,-6 14,-9 l 137,-57 240,184 50,121 z m -62,-150 -51,-38 -27,-67 c -7,-16 -12,-27 -17,-33 -5,-6 -10,-10 -16,-13 -5,-2 -12,-3 -23,-5 -10,-1 -16,-4 -19,-10 -2,-6 -2,-11 0,-15 2,-4 7,-8 15,-11 l 71,-29 c 7,-3 13,-4 18,-3 4,1 8,5 10,11 3,6 0,13 -6,21 -7,8 -11,14 -13,19 -2,6 -3,13 -2,20 0,7 4,19 12,36 l 48,117 z m -309,-27 50,38 61,148 c 4,9 8,17 13,22 4,6 10,10 15,13 5,2 12,3 23,4 10,1 16,5 19,11 2,6 2,11 0,15 -3,4 -7,8 -15,11 l -71,29 c -7,3 -13,4 -17,2 -5,-1 -9,-4 -11,-10 -2,-6 0,-13 6,-21 7,-8 11,-15 13,-19 3,-6 3,-13 3,-20 -1,-7 -5,-19 -12,-37 l -77,-186 z"
       inkscape:connector-curvature="0"
       style="fill:#ffffff;fill-rule:nonzero" /><path
       id="8"
       class="fil3"
       d="m -757,7801 -80,18 2,-42 60,-13 -103,-204 2,-34 114,-27 154,305 c 1,1 2,3 3,6 1,2 2,3 2,4 1,5 7,9 18,12 11,2 17,7 18,13 2,7 1,12 -3,15 -3,3 -11,6 -24,9 l -123,28 c -11,3 -19,3 -24,2 -5,-2 -9,-6 -10,-13 -2,-6 1,-12 8,-18 6,-6 9,-12 7,-18 0,0 0,-1 -1,-3 0,-2 -1,-4 -2,-6 l -18,-34 z m -91,-148 -7,187 c 0,3 0,6 0,9 0,3 0,6 1,8 1,6 4,11 7,14 4,4 8,6 14,7 2,1 5,1 8,2 10,2 16,7 18,14 1,6 0,11 -4,15 -3,3 -10,6 -19,8 l -67,16 c -9,2 -16,2 -20,1 -5,-2 -7,-6 -9,-12 -2,-8 2,-15 12,-21 5,-3 7,-5 9,-6 6,-5 9,-11 12,-18 2,-7 4,-16 5,-28 l 9,-257 31,61 z"
       inkscape:connector-curvature="0"
       style="fill:#ffffff;fill-rule:nonzero" /><path
       id="9"
       class="fil3"
       d="m -118,7422 137,-1 c 9,0 15,1 18,3 4,3 5,7 5,13 0,7 -4,13 -13,17 -3,1 -5,2 -6,3 -4,2 -6,4 -8,6 -1,3 -2,8 -2,15 l 0,8 3,271 c 0,6 0,10 2,13 1,2 4,5 8,7 1,0 3,1 5,2 10,4 14,10 14,18 1,5 -1,10 -5,12 -3,2 -9,4 -18,4 l -143,1 c -9,0 -15,-1 -19,-4 -3,-2 -5,-6 -5,-12 0,-8 4,-13 14,-18 2,-1 4,-1 5,-2 4,-2 7,-5 9,-8 1,-2 2,-8 2,-16 l -1,-5 -2,-327 z m -82,393 -17,0 -112,-324 c 0,-2 -1,-4 -2,-7 -5,-15 -11,-24 -19,-27 -2,-1 -6,-3 -11,-4 -10,-2 -15,-7 -15,-15 0,-5 2,-8 5,-11 3,-2 8,-3 16,-3 l 138,-1 53,154 29,-99 1,109 -66,228 z m -130,-280 33,93 1,96 c 0,11 1,19 3,26 2,7 6,13 10,18 4,3 10,7 19,12 9,5 14,11 14,17 0,6 -2,11 -6,14 -3,3 -9,4 -17,4 l -76,1 c -8,0 -14,-1 -18,-4 -4,-3 -6,-8 -6,-14 0,-6 5,-12 14,-17 9,-5 15,-9 19,-13 4,-5 8,-10 9,-17 2,-7 3,-20 3,-39 l -2,-177 z"
       inkscape:connector-curvature="0"
       style="fill:#ffffff;fill-rule:nonzero" /><path
       id="10"
       class="fil3"
       d="m 277,7725 -81,-6 14,-39 61,5 -36,-226 12,-32 117,10 54,336 c 0,2 1,5 1,7 1,3 1,4 1,5 0,5 4,11 14,16 9,6 14,12 13,19 0,7 -3,11 -7,13 -5,2 -13,3 -26,2 l -126,-11 c -12,-1 -20,-3 -24,-6 -4,-3 -6,-8 -6,-15 1,-6 5,-11 13,-15 8,-4 13,-9 13,-14 0,-1 0,-2 0,-4 0,-2 0,-4 -1,-6 l -6,-39 z m -42,-168 -63,177 c -1,3 -2,5 -3,8 -1,3 -1,5 -1,8 -1,6 0,11 2,16 3,4 6,8 11,11 2,1 4,2 7,4 9,5 13,11 13,19 -1,5 -3,10 -8,12 -4,2 -11,3 -21,2 l -68,-5 c -10,-1 -16,-3 -20,-6 -4,-2 -5,-7 -5,-13 1,-8 7,-14 19,-16 4,-1 8,-2 10,-3 6,-3 12,-8 16,-14 5,-6 9,-14 13,-26 l 87,-242 11,68 z"
       inkscape:connector-curvature="0"
       style="fill:#ffffff;fill-rule:nonzero" /><path
       id="11"
       class="fil3"
       d="m 641,7872 -140,-31 c -8,-2 -14,-4 -17,-8 -3,-3 -3,-7 -2,-13 2,-7 7,-12 18,-14 2,0 3,-1 5,-1 4,-1 8,-3 10,-5 2,-3 4,-8 5,-17 l 1,-4 58,-260 c 2,-9 3,-14 2,-17 -1,-3 -3,-6 -7,-10 -1,0 -2,-1 -4,-3 -8,-6 -12,-12 -10,-20 1,-6 4,-9 8,-11 4,-2 10,-1 18,0 l 134,30 -73,328 c -1,6 -1,10 0,13 1,3 3,6 6,9 1,1 3,2 5,3 8,6 11,13 10,21 -2,5 -4,9 -8,11 -4,1 -10,1 -19,-1 z m 56,-202 c 13,2 22,0 29,-7 7,-6 12,-17 16,-33 l 11,-50 c 4,-16 4,-29 0,-37 -4,-9 -11,-15 -23,-19 l 7,-32 c 3,0 5,1 8,1 3,1 7,2 12,3 47,10 80,26 99,47 19,21 25,48 17,82 -6,27 -18,46 -37,58 -19,12 -45,16 -77,14 31,10 53,23 66,39 13,15 17,34 12,56 l -11,49 c -1,3 -1,6 0,8 0,2 2,3 3,3 2,1 6,-1 11,-5 5,-4 10,-6 14,-5 5,1 8,4 11,8 3,4 4,9 3,13 -3,15 -15,27 -34,36 -19,9 -41,11 -64,6 -28,-6 -47,-19 -58,-37 -10,-18 -11,-43 -4,-75 l 7,-33 c 4,-16 4,-28 0,-36 -4,-9 -12,-16 -25,-21 l 7,-33 z"
       inkscape:connector-curvature="0"
       style="fill:#ffffff;fill-rule:nonzero" /><path
       id="12"
       class="fil3"
       d="m 1154,7608 c 8,3 13,6 16,9 3,4 3,8 1,14 -2,7 -8,11 -18,12 -3,0 -5,0 -6,0 -5,1 -8,3 -11,5 -2,2 -4,7 -7,15 l -2,5 -85,254 c -2,7 -3,12 -3,14 0,3 1,6 4,8 1,2 2,3 5,5 8,8 11,16 9,23 -2,5 -5,9 -9,10 -5,1 -11,0 -19,-2 l -136,-46 c -8,-3 -13,-6 -15,-9 -3,-3 -3,-8 -2,-13 3,-8 9,-12 19,-13 3,0 4,0 6,0 4,-1 8,-2 10,-5 2,-2 5,-7 7,-15 l 2,-4 85,-253 c 2,-9 4,-14 3,-17 0,-3 -2,-7 -5,-10 -1,-1 -3,-2 -4,-4 -8,-6 -10,-13 -8,-21 2,-5 5,-9 9,-10 4,-1 10,0 18,2 l 136,46 z"
       inkscape:connector-curvature="0"
       style="fill:#ffffff;fill-rule:nonzero" /><path
       id="13"
       class="fil3"
       d="m 1370,8107 -76,-29 -64,-391 c -1,-9 -7,-18 -16,-25 -9,-7 -13,-14 -10,-21 2,-5 5,-8 9,-9 3,-1 9,0 16,2 l 139,53 49,298 -47,122 z m 58,-151 -10,-62 25,-68 c 6,-16 10,-28 11,-36 1,-7 -1,-14 -3,-21 -2,-4 -7,-10 -14,-18 -6,-8 -9,-15 -6,-21 2,-6 5,-9 10,-11 4,-1 10,0 18,2 l 71,28 c 8,3 13,6 15,10 3,4 3,9 1,15 -2,6 -9,9 -19,11 -11,1 -18,3 -22,5 -6,3 -12,7 -16,13 -4,5 -10,17 -16,34 l -45,119 z m -207,-231 10,62 -56,149 c -4,9 -6,18 -7,25 0,7 1,14 4,20 2,4 6,10 13,18 7,8 9,15 7,21 -3,6 -6,9 -11,11 -4,1 -10,0 -18,-2 l -71,-28 c -7,-2 -12,-6 -15,-10 -3,-4 -3,-9 -1,-15 3,-6 9,-9 19,-11 11,-1 18,-3 23,-5 6,-2 11,-7 15,-12 4,-6 10,-18 16,-35 l 72,-188 z"
       inkscape:connector-curvature="0"
       style="fill:#ffffff;fill-rule:nonzero" /><path
       id="14"
       class="fil3"
       d="m 1673,8070 17,-31 c 9,2 16,2 21,1 5,-1 11,-3 16,-7 4,-3 9,-7 15,-13 10,-8 19,-11 25,-7 5,2 8,6 8,11 0,5 -3,13 -9,23 l -48,86 c -5,8 -10,14 -14,16 -4,3 -9,3 -14,0 -6,-4 -8,-12 -6,-26 1,-7 2,-13 2,-18 1,-7 1,-13 -1,-18 -2,-5 -6,-11 -12,-17 z m -90,160 17,-31 c 16,7 31,11 46,11 14,0 28,-4 41,-11 5,-3 11,-8 19,-15 12,-12 21,-16 29,-11 6,3 9,8 9,14 -1,6 -5,16 -13,30 l -41,73 -107,-60 z m -136,-76 c -7,-4 -12,-8 -14,-12 -2,-4 -1,-8 2,-13 3,-7 10,-10 21,-9 2,0 4,0 5,0 5,0 8,0 11,-2 2,-2 6,-6 10,-14 l 2,-4 131,-232 c 4,-8 6,-13 7,-16 0,-3 -2,-7 -4,-11 -1,-1 -2,-2 -3,-4 -6,-8 -8,-16 -4,-22 3,-5 7,-8 11,-9 4,0 10,2 17,6 l 120,67 -192,342 -120,-67 z m 328,-265 104,58 -51,91 c -3,4 -6,7 -10,8 -4,1 -8,1 -12,-1 -7,-4 -10,-14 -7,-30 1,-11 2,-19 1,-25 -1,-13 -5,-26 -12,-39 -8,-12 -18,-22 -30,-31 l 17,-31 z"
       inkscape:connector-curvature="0"
       style="fill:#ffffff;fill-rule:nonzero" /><path
       id="15"
       class="fil3"
       d="m 2027,8495 -25,31 c -40,-36 -60,-77 -61,-124 -1,-47 17,-94 55,-142 39,-48 80,-76 126,-85 46,-9 91,2 135,33 l -25,31 c -10,-7 -19,-9 -28,-6 -9,3 -18,10 -28,23 l -145,180 c -10,12 -15,23 -16,33 -1,9 3,18 12,26 z m -12,41 25,-30 c 12,7 24,12 36,14 13,3 24,3 35,1 9,-2 20,-7 32,-14 13,-8 22,-9 28,-4 4,3 6,7 6,12 1,5 -1,10 -5,15 -8,9 -20,16 -38,22 -18,6 -36,9 -55,7 -11,-1 -21,-3 -32,-7 -11,-4 -21,-9 -32,-16 z m 231,-287 24,-30 c 11,10 20,23 28,37 8,15 13,23 15,25 3,2 9,2 16,0 8,-2 15,-1 20,3 4,3 6,7 7,11 0,4 -3,9 -8,16 l -2,2 -65,80 c -7,9 -13,14 -18,16 -5,2 -10,1 -14,-2 -9,-7 -9,-19 -1,-38 6,-13 9,-23 11,-31 6,-20 7,-37 5,-52 -2,-15 -9,-27 -18,-37 z"
       inkscape:connector-curvature="0"
       style="fill:#ffffff;fill-rule:nonzero" /><path
       id="16"
       class="fil3"
       d="m 2360,8739 171,-163 c 15,-14 23,-25 25,-32 2,-8 0,-15 -6,-23 l 24,-24 c 34,42 48,85 42,131 -6,46 -30,89 -73,131 -44,41 -89,63 -135,67 -46,3 -89,-13 -128,-48 l 24,-23 c 8,7 16,9 23,7 8,-2 19,-10 33,-23 z m -49,-52 c -14,14 -22,24 -25,32 -2,7 0,15 7,24 l -25,23 c -33,-41 -47,-84 -41,-130 5,-46 30,-90 73,-131 44,-42 89,-64 135,-67 46,-4 88,12 128,47 l -24,23 c -8,-6 -16,-9 -24,-7 -8,2 -19,10 -33,23 l -171,163 z"
       inkscape:connector-curvature="0"
       style="fill:#ffffff;fill-rule:nonzero" /><path
       id="17"
       class="fil3"
       d="m 2526,9050 -88,-113 c -5,-6 -8,-12 -8,-16 0,-4 2,-8 7,-12 6,-5 14,-5 23,0 2,1 3,2 4,3 4,1 8,2 11,2 3,-1 8,-4 15,-9 l 4,-3 210,-163 c 7,-5 11,-9 12,-12 1,-3 2,-7 1,-11 -1,-2 -1,-3 -1,-6 -3,-10 -1,-17 5,-22 5,-3 9,-4 13,-3 4,1 9,5 14,12 l 84,108 -265,206 c -5,3 -8,7 -9,9 -1,3 -1,7 -1,11 1,2 1,3 2,6 2,10 0,17 -6,22 -5,3 -9,5 -13,3 -4,-1 -9,-5 -14,-12 z m 172,-120 c 8,9 17,14 27,13 9,0 20,-5 33,-15 l 40,-31 c 13,-11 21,-20 24,-29 3,-9 1,-19 -6,-29 l 26,-21 c 2,2 4,4 6,6 1,2 4,6 7,10 30,38 45,72 47,100 1,28 -12,53 -39,74 -22,17 -44,24 -66,21 -22,-3 -45,-16 -68,-39 17,28 26,52 26,73 0,20 -9,37 -27,51 l -39,30 c -3,3 -5,4 -5,6 -1,2 -1,4 0,5 1,1 5,2 12,2 6,1 11,3 14,6 3,4 4,8 3,13 0,5 -3,9 -6,12 -12,9 -28,11 -49,6 -21,-5 -39,-17 -53,-36 -18,-23 -25,-45 -21,-65 4,-21 19,-41 44,-61 l 27,-21 c 13,-9 20,-19 23,-28 2,-10 0,-20 -6,-32 l 26,-21 z"
       inkscape:connector-curvature="0"
       style="fill:#ffffff;fill-rule:nonzero" /><path
       id="18"
       class="fil3"
       d="m 3043,9272 c 15,-8 24,-17 28,-25 4,-9 3,-19 -2,-30 l 29,-16 6,10 c 24,43 34,81 28,113 -5,32 -25,58 -60,78 -34,19 -67,23 -97,11 -30,-12 -57,-40 -82,-83 l -5,-10 28,-17 c 7,11 15,17 25,18 9,1 21,-3 35,-11 l 67,-38 z m 47,-86 -294,167 c -8,4 -11,12 -9,23 0,1 0,1 1,2 1,7 1,12 0,16 -2,3 -4,6 -8,9 -5,2 -10,3 -14,0 -4,-2 -8,-8 -14,-17 l -71,-126 c -4,-8 -6,-13 -6,-18 1,-4 4,-7 9,-10 7,-4 14,-3 22,3 2,1 4,3 5,3 3,3 7,4 10,4 3,0 8,-2 16,-7 l 4,-2 232,-131 c 7,-4 11,-7 13,-10 2,-3 3,-6 3,-11 0,-1 -1,-3 -1,-5 -1,-10 2,-17 9,-21 5,-3 9,-4 13,-2 4,2 8,7 12,14 l 68,119 z"
       inkscape:connector-curvature="0"
       style="fill:#ffffff;fill-rule:nonzero" /><path
       id="19"
       class="fil3"
       d="m 3255,9560 30,-14 c 7,15 11,32 13,49 2,17 3,26 3,26 2,4 6,7 13,8 7,2 11,5 13,10 3,6 3,10 2,14 -2,3 -7,7 -14,10 l -83,38 c -9,4 -16,6 -20,5 -5,-1 -8,-4 -11,-10 -3,-8 1,-17 13,-28 6,-4 10,-8 13,-12 13,-13 22,-28 27,-45 5,-17 5,-34 1,-51 z m -345,145 33,-15 c 8,14 17,24 26,29 10,4 20,4 31,-1 19,-9 29,-38 28,-89 l 0,-5 c 0,-49 5,-86 16,-109 11,-23 30,-40 57,-52 35,-17 69,-19 102,-7 32,12 57,36 73,71 l 2,4 -31,14 c -7,-9 -15,-15 -25,-18 -9,-3 -19,-2 -28,3 -18,8 -26,38 -23,89 l 0,9 c 2,43 -3,76 -15,101 -13,25 -33,44 -63,57 -36,17 -71,18 -105,3 -33,-15 -59,-43 -78,-84 z m 26,-30 -32,15 c -7,-14 -11,-30 -13,-48 -2,-17 -4,-27 -5,-29 -2,-4 -6,-7 -13,-8 -6,-2 -11,-5 -13,-10 -2,-5 -2,-10 0,-15 2,-4 7,-8 14,-11 l 92,-43 c 10,-4 18,-6 23,-6 4,1 8,4 11,11 4,8 -1,17 -15,28 -6,6 -12,10 -15,14 -14,14 -24,30 -30,48 -6,18 -7,36 -4,54 z"
       inkscape:connector-curvature="0"
       style="fill:#ffffff;fill-rule:nonzero" /><circle
       class="fil2"
       cy="11000"
       r="3898"
       id="circle41"
       cx="0"
       style="fill:none" /><path
       class="fil3"
       d="m -3185,11163 -32,2 c -1,-7 -3,-12 -5,-15 -1,-3 -4,-5 -7,-4 -1,0 -3,2 -5,7 -9,18 -23,28 -42,29 -17,2 -31,-3 -43,-13 -11,-10 -18,-24 -19,-41 -1,-16 4,-30 14,-41 10,-12 25,-18 43,-19 23,-2 44,6 62,24 18,17 29,41 34,71 z m 2,17 c 0,2 1,5 1,7 0,3 1,7 1,11 3,38 -5,69 -24,94 -18,24 -45,38 -79,40 -22,2 -42,-2 -60,-12 -19,-10 -35,-25 -50,-46 -4,-6 -12,-22 -24,-47 -12,-25 -25,-45 -38,-59 -1,-8 -3,-17 -6,-25 -4,-9 -9,-19 -17,-30 16,5 34,18 52,38 18,20 30,33 35,37 13,11 27,19 41,23 14,4 35,5 62,3 24,-2 42,-6 54,-11 12,-5 19,-12 19,-21 l 33,-2 z m -288,-1 c 1,17 1,40 -2,68 -2,27 -3,46 -3,55 1,8 3,14 5,18 3,3 7,6 14,7 1,1 3,1 4,1 11,3 17,8 17,15 1,5 -1,9 -4,12 -3,2 -8,4 -15,5 -29,2 -56,-6 -82,-25 -25,-19 -39,-42 -41,-70 -1,-14 1,-36 8,-64 6,-28 8,-47 8,-58 -1,-8 -5,-15 -11,-22 -6,-7 -10,-12 -10,-16 0,-4 1,-7 3,-10 3,-3 6,-5 10,-5 27,-2 49,5 68,21 18,17 29,39 31,68 z m -33,574 -14,-80 304,-255 c 7,-6 12,-15 13,-27 2,-11 6,-18 14,-19 5,-1 9,0 12,3 2,3 5,8 6,15 l 25,147 -231,193 -129,23 z m 160,-28 48,-40 71,-13 c 17,-3 29,-6 36,-9 7,-3 12,-8 16,-13 3,-4 6,-11 10,-21 3,-10 8,-15 14,-16 7,-1 11,0 15,3 3,3 6,8 7,16 l 13,76 c 1,8 1,14 -1,18 -2,4 -7,7 -13,8 -6,1 -13,-3 -19,-11 -6,-8 -12,-14 -16,-17 -5,-3 -11,-5 -18,-6 -7,-1 -20,0 -38,3 l -125,22 z m 93,-296 -48,41 -157,27 c -10,2 -19,4 -25,8 -7,3 -12,7 -16,13 -2,3 -6,10 -9,20 -3,10 -8,15 -14,16 -7,1 -11,0 -15,-3 -3,-3 -6,-9 -7,-17 l -13,-75 c -2,-7 -1,-13 1,-18 2,-4 6,-7 13,-8 6,-1 12,3 19,11 6,8 12,14 15,17 6,3 12,6 19,6 7,1 20,0 38,-3 l 199,-35 z m -177,610 32,-9 c 5,13 11,21 19,24 8,3 21,2 40,-4 l 214,-61 c 19,-5 31,-12 36,-18 5,-7 6,-17 4,-31 l 32,-9 c 11,54 5,101 -20,140 -24,39 -64,67 -120,83 -56,16 -105,14 -146,-6 -42,-20 -72,-57 -91,-109 z m -43,-148 c -2,-8 -3,-14 -1,-18 1,-4 5,-7 10,-9 8,-2 15,1 21,9 2,2 3,3 4,4 3,3 6,5 9,6 3,1 9,0 17,-3 l 5,-1 256,-73 c 8,-3 13,-5 16,-7 2,-2 4,-6 4,-10 1,-1 1,-3 1,-6 2,-10 6,-16 13,-18 6,-2 11,-1 14,2 3,2 6,8 8,16 l 38,132 -377,108 -38,-132 z m 362,681 -38,-72 41,-9 28,54 172,-150 33,-7 54,104 -256,225 c -1,1 -3,3 -5,5 -2,2 -3,3 -3,3 -5,3 -7,9 -7,20 1,11 -2,18 -9,22 -5,3 -10,3 -14,0 -5,-2 -10,-9 -15,-21 l -59,-112 c -5,-10 -8,-18 -7,-23 0,-6 3,-10 9,-13 6,-3 12,-2 20,3 7,5 14,6 19,3 0,0 1,-1 3,-2 1,-1 3,-2 5,-4 l 29,-26 z m 120,-125 -183,41 c -3,0 -6,1 -9,2 -3,1 -5,2 -7,3 -6,3 -10,6 -12,11 -3,4 -4,9 -4,15 0,2 0,5 0,8 1,10 -2,17 -9,21 -5,2 -10,2 -14,0 -5,-3 -9,-8 -14,-17 l -31,-60 c -5,-9 -7,-16 -6,-20 0,-5 3,-8 8,-11 8,-4 16,-2 24,7 3,3 6,5 8,6 6,4 13,7 20,7 7,1 17,0 29,-3 l 251,-55 -51,45 z m 300,315 28,-18 c 9,14 15,29 19,46 5,16 7,25 7,25 2,4 7,6 14,7 7,0 12,3 15,7 3,5 4,10 3,14 -1,3 -5,7 -12,12 l -77,49 c -8,6 -15,8 -19,8 -5,0 -9,-3 -12,-8 -5,-7 -2,-17 9,-29 5,-6 9,-10 11,-14 11,-15 18,-32 20,-49 2,-17 0,-34 -6,-50 z m -321,193 32,-20 c 10,13 20,21 29,25 10,3 20,1 31,-6 17,-11 22,-42 15,-92 l -1,-4 c -7,-49 -7,-86 0,-110 8,-25 24,-45 49,-61 33,-21 66,-28 100,-21 34,7 61,27 82,60 l 3,4 -29,18 c -8,-8 -17,-13 -27,-14 -10,-2 -20,1 -28,6 -17,11 -20,42 -10,93 l 2,8 c 8,42 7,76 -1,102 -9,26 -27,48 -54,66 -33,21 -68,27 -103,17 -35,-9 -65,-33 -90,-71 z m 22,-34 -30,19 c -8,-13 -15,-28 -19,-45 -5,-17 -8,-26 -9,-28 -3,-4 -8,-6 -14,-7 -7,0 -12,-2 -15,-7 -3,-5 -3,-10 -2,-15 2,-5 6,-9 12,-13 l 86,-55 c 9,-7 16,-10 21,-10 5,0 9,3 13,9 5,7 1,18 -11,31 -5,6 -10,11 -13,15 -12,16 -19,33 -23,52 -3,19 -2,37 4,54 z m 492,106 26,-20 c 10,13 18,27 24,44 6,16 9,24 9,24 3,4 7,5 14,5 8,0 13,3 16,7 4,5 5,9 4,13 -1,3 -4,8 -10,13 l -73,56 c -8,7 -14,10 -18,10 -5,0 -9,-2 -12,-7 -6,-7 -4,-17 6,-30 4,-6 7,-11 10,-15 9,-16 14,-33 15,-50 1,-18 -3,-34 -11,-50 z m -301,222 29,-23 c 11,12 22,20 32,22 10,2 20,0 30,-8 16,-13 18,-44 6,-93 l -1,-5 c -12,-48 -15,-84 -10,-109 6,-25 20,-46 43,-65 31,-24 63,-34 98,-30 34,4 63,21 87,52 l 3,3 -27,22 c -9,-8 -18,-12 -28,-12 -11,-1 -20,2 -28,9 -15,12 -16,43 -1,93 l 3,8 c 11,41 14,75 8,102 -6,26 -22,50 -47,70 -32,24 -65,33 -101,27 -36,-6 -68,-27 -96,-63 z m 18,-35 -28,21 c -9,-12 -17,-26 -23,-43 -7,-16 -11,-25 -12,-27 -3,-4 -8,-6 -14,-5 -7,0 -12,-2 -15,-6 -4,-5 -5,-10 -4,-15 1,-5 5,-10 10,-14 l 81,-63 c 9,-7 15,-11 20,-11 5,-1 10,2 14,7 5,7 3,17 -8,31 -5,7 -9,13 -12,17 -10,17 -16,35 -17,54 -2,19 1,37 8,54 z m 314,248 -57,-59 37,-19 42,43 122,-192 31,-16 81,84 -183,288 c -1,2 -2,4 -3,7 -1,2 -2,3 -3,4 -4,3 -4,10 0,21 3,10 2,18 -3,23 -4,4 -9,6 -14,4 -5,-1 -11,-6 -20,-15 l -88,-92 c -8,-8 -12,-15 -13,-20 -1,-5 0,-10 5,-15 5,-4 11,-5 20,-3 8,3 15,2 19,-2 1,0 1,-1 2,-3 1,-1 3,-3 4,-5 l 21,-33 z m 79,-154 -164,91 c -2,1 -5,2 -7,4 -3,2 -5,3 -7,5 -4,4 -7,9 -8,14 -1,5 -1,10 1,15 0,2 1,5 2,8 4,10 3,17 -3,22 -4,5 -9,6 -14,5 -5,-2 -10,-6 -17,-12 l -47,-50 c -7,-7 -11,-13 -12,-17 -1,-4 1,-9 5,-13 6,-6 15,-6 25,0 4,2 7,4 9,4 7,2 15,3 22,1 7,-1 16,-5 27,-11 l 225,-124 -37,58 z m 93,308 138,-176 c 6,-7 9,-12 9,-15 1,-3 0,-6 -2,-11 -1,-1 -1,-2 -2,-5 -5,-9 -6,-16 -1,-22 4,-5 8,-7 12,-7 4,0 10,3 17,9 l 114,89 c 9,7 14,13 16,17 1,4 1,9 -3,13 -5,7 -14,8 -27,4 -2,-1 -3,-1 -4,-2 -6,-1 -9,-1 -12,-1 -3,1 -6,5 -11,10 l -4,6 -149,189 c -12,16 -18,27 -18,36 0,8 4,17 14,26 l -25,32 c -5,-3 -11,-7 -17,-12 -7,-5 -11,-8 -13,-9 -35,-28 -55,-56 -61,-83 -5,-28 5,-57 29,-88 z m 76,201 24,-30 c 21,13 40,17 57,12 17,-5 35,-19 53,-42 l 109,-139 c 6,-8 11,-15 13,-23 2,-7 3,-15 1,-22 -1,-4 -2,-9 -5,-15 -5,-11 -5,-19 -1,-24 4,-5 8,-7 13,-7 5,0 10,2 16,7 l 65,51 c 7,5 10,10 11,14 1,5 0,9 -4,14 -4,5 -11,7 -21,6 -10,-2 -18,-2 -23,-2 -7,1 -13,4 -19,9 -6,4 -15,13 -25,26 l -92,117 c -29,37 -57,59 -83,66 -26,8 -56,2 -89,-18 z m 310,214 20,-30 c 13,8 27,11 42,11 14,-1 28,-5 42,-13 7,-5 15,-11 25,-20 13,-11 22,-14 28,-10 6,3 9,8 8,14 -1,5 -6,16 -17,33 l -49,78 -99,-63 z m -130,-82 c -7,-5 -11,-9 -13,-13 -2,-4 -1,-8 2,-13 4,-7 12,-9 22,-8 2,1 4,1 5,1 5,0 8,0 11,-2 3,-2 6,-6 11,-13 l 2,-4 144,-225 c 4,-7 7,-12 7,-15 0,-4 -1,-7 -3,-11 -1,-1 -2,-3 -3,-5 -6,-8 -7,-16 -3,-22 4,-5 7,-8 12,-8 4,0 10,2 17,7 l 121,77 c 7,4 11,9 13,13 2,3 1,8 -2,13 -4,6 -11,9 -22,7 -2,0 -4,0 -5,0 -4,-1 -8,0 -11,1 -3,2 -6,6 -11,14 l -2,3 -176,276 -116,-73 z m 627,-88 -154,301 c -4,8 -2,17 6,25 l 1,1 c 5,5 8,9 9,13 1,4 0,8 -2,12 -3,5 -6,8 -11,8 -4,0 -11,-2 -21,-7 l -130,-66 c -9,-5 -16,-10 -18,-13 -2,-4 -2,-9 0,-14 4,-7 13,-10 26,-9 2,0 3,1 4,1 6,0 10,0 12,-1 2,-2 5,-6 9,-13 l 3,-6 149,-292 117,60 z m 85,44 -53,104 c -3,5 -7,9 -12,11 -5,2 -10,1 -15,-2 -10,-5 -13,-16 -7,-33 2,-5 3,-8 4,-11 4,-17 6,-32 5,-44 0,-12 -4,-21 -9,-28 l 17,-33 70,36 z m -292,-149 70,36 -17,33 c -8,-1 -18,2 -28,9 -10,7 -21,17 -32,30 -2,2 -4,5 -7,10 -11,14 -21,19 -31,13 -7,-3 -10,-7 -11,-12 -1,-5 2,-13 7,-23 l 49,-96 z m 510,652 -136,-48 c -8,-2 -13,-6 -16,-9 -2,-3 -3,-8 -1,-13 3,-8 9,-12 20,-13 2,0 4,0 5,0 4,-1 8,-2 10,-4 2,-3 5,-8 8,-16 l 1,-4 88,-252 c 3,-8 4,-13 4,-16 -1,-4 -3,-7 -6,-10 -1,-1 -2,-2 -4,-4 -7,-7 -10,-14 -7,-21 2,-6 5,-9 9,-10 4,-2 10,-1 18,2 l 130,45 -111,317 c -2,6 -2,10 -2,13 1,3 2,6 6,10 0,1 2,2 3,4 8,7 10,14 8,21 -2,6 -5,9 -9,10 -4,1 -10,0 -18,-2 z m 78,-195 c 12,3 22,2 30,-3 8,-6 14,-16 20,-32 l 16,-48 c 6,-15 7,-28 5,-37 -3,-9 -10,-16 -21,-21 l 11,-31 c 2,0 5,1 7,2 3,1 7,2 12,4 46,16 77,35 93,58 17,23 19,51 8,84 -9,26 -24,44 -44,53 -20,10 -46,11 -79,5 30,14 51,29 62,46 11,17 13,36 6,58 l -17,47 c -1,3 -2,6 -1,8 0,2 1,3 3,3 1,1 5,0 11,-4 6,-3 11,-4 15,-3 4,2 7,5 10,9 2,5 2,9 1,14 -5,14 -18,24 -38,31 -20,7 -42,7 -65,-1 -27,-10 -45,-24 -52,-43 -8,-20 -7,-45 4,-76 l 11,-32 c 5,-15 6,-27 4,-36 -3,-9 -11,-17 -23,-23 l 11,-32 z m 380,123 6,-36 c 8,-1 15,-3 20,-5 5,-3 9,-7 12,-13 3,-4 6,-10 10,-16 7,-12 14,-17 21,-16 6,1 9,4 11,9 1,4 1,12 -1,23 l -16,97 c -2,10 -5,17 -8,21 -3,3 -7,5 -13,4 -7,-1 -12,-9 -14,-22 -2,-7 -3,-13 -4,-18 -1,-7 -4,-12 -8,-16 -3,-5 -9,-9 -16,-12 z m -32,181 6,-36 c 18,2 33,0 47,-5 13,-4 25,-12 35,-24 4,-4 8,-11 13,-20 7,-15 15,-22 24,-21 7,2 11,5 13,11 1,6 1,17 -2,33 l -14,83 -122,-21 z m -153,-27 c -9,-1 -14,-4 -17,-7 -3,-3 -4,-7 -3,-13 1,-7 7,-12 17,-15 2,0 4,-1 5,-1 4,-2 7,-4 9,-6 2,-3 4,-8 5,-16 l 1,-5 46,-263 c 1,-8 1,-14 1,-17 -1,-3 -4,-6 -8,-9 0,0 -2,-1 -4,-3 -8,-5 -12,-12 -11,-19 1,-6 4,-10 8,-12 4,-2 10,-2 18,0 l 135,23 -67,387 -135,-24 z m 220,-360 118,21 -18,103 c -1,4 -3,8 -6,11 -3,2 -7,3 -12,2 -8,-1 -14,-10 -17,-25 -2,-11 -4,-18 -7,-24 -5,-13 -13,-24 -25,-33 -11,-8 -24,-15 -39,-19 l 6,-36 z m 307,446 2,-35 c 9,0 15,-3 19,-7 3,-4 6,-12 7,-23 l 6,-85 c 0,-7 0,-12 -1,-14 -1,-2 -4,-4 -8,-7 -1,0 -3,-1 -5,-2 -9,-5 -14,-11 -13,-20 0,-6 2,-9 6,-11 4,-2 10,-3 19,-2 l 120,9 c 7,0 12,2 15,5 4,3 5,7 5,13 -1,4 -2,7 -3,10 -2,2 -5,4 -10,6 -3,2 -5,4 -6,6 -2,2 -3,6 -3,11 l 0,5 -7,94 c -23,17 -45,29 -69,37 -24,8 -49,11 -74,10 z m -14,-35 -3,34 c -51,-9 -90,-33 -115,-70 -26,-38 -37,-86 -32,-146 4,-59 22,-105 53,-138 31,-33 73,-51 125,-52 l -3,33 c -10,1 -17,5 -21,11 -4,7 -7,20 -9,39 l -17,235 c -2,19 -1,33 2,40 3,7 10,12 20,14 z m 172,-242 0,5 c -1,11 -3,19 -7,23 -3,4 -9,6 -17,6 -11,-1 -19,-12 -24,-33 -4,-15 -8,-27 -13,-37 -8,-17 -18,-31 -30,-42 -12,-10 -25,-16 -39,-18 l 3,-33 c 16,2 34,8 51,15 18,8 28,12 30,12 5,1 10,-2 16,-8 6,-6 12,-9 20,-9 7,1 12,3 15,6 2,3 3,9 3,18 l -1,2 -7,93 z m 218,-111 c 8,0 14,1 18,3 4,3 6,7 6,13 0,7 -5,13 -14,17 -2,1 -4,2 -5,3 -4,2 -7,5 -8,7 -2,3 -2,9 -2,17 l 0,5 5,268 c 1,7 1,12 2,14 2,3 4,5 7,7 1,1 3,2 6,3 11,4 16,10 16,18 0,6 -1,10 -5,13 -4,2 -10,4 -18,4 l -144,3 c -8,0 -14,-1 -18,-4 -3,-2 -5,-6 -5,-12 0,-7 4,-14 14,-18 2,-1 3,-2 4,-2 4,-2 7,-5 9,-8 1,-3 2,-8 1,-17 l 0,-4 -5,-267 c 0,-8 -1,-14 -3,-17 -1,-3 -4,-5 -8,-7 -1,-1 -3,-1 -5,-2 -10,-4 -14,-10 -15,-18 0,-6 2,-10 5,-12 4,-3 10,-4 18,-4 l 144,-3 z m 304,-18 137,-10 c 9,-1 15,0 18,2 4,2 6,6 7,12 0,8 -4,14 -13,19 -3,1 -4,2 -5,2 -4,2 -7,5 -8,7 -1,3 -1,8 -1,15 l 1,8 20,270 c 1,6 2,11 3,13 2,2 5,5 9,6 1,1 3,2 5,2 10,4 15,9 16,17 0,6 -1,10 -4,13 -4,2 -10,4 -18,5 l -143,11 c -9,0 -15,-1 -19,-3 -4,-2 -6,-6 -6,-12 -1,-7 3,-14 13,-18 2,-1 4,-2 5,-3 4,-3 6,-5 8,-8 1,-3 1,-9 0,-17 l 0,-5 -25,-326 z m -54,398 -17,1 -134,-316 c -1,-1 -2,-4 -3,-7 -6,-14 -13,-23 -21,-26 -2,-1 -6,-1 -10,-2 -11,-2 -16,-6 -17,-14 0,-5 1,-9 4,-11 3,-3 9,-4 16,-5 l 138,-10 64,150 21,-101 9,109 -50,232 z m -149,-271 39,91 7,96 c 1,10 3,19 5,26 3,6 7,12 12,16 3,3 10,7 19,11 10,5 14,10 15,17 0,6 -1,10 -5,13 -3,4 -9,5 -17,6 l -76,6 c -8,0 -14,-1 -18,-3 -4,-3 -6,-7 -6,-13 -1,-7 3,-13 12,-18 9,-6 15,-11 18,-14 4,-6 7,-12 9,-19 1,-7 1,-19 0,-38 l -14,-177 z m 584,17 -9,-35 c 8,-4 13,-9 17,-13 3,-5 5,-10 6,-17 1,-4 2,-11 3,-18 2,-14 6,-21 13,-23 6,-1 10,0 14,4 3,3 6,11 8,22 l 22,96 c 3,10 3,17 2,21 -2,5 -5,8 -11,9 -7,2 -14,-3 -22,-14 -4,-6 -7,-11 -10,-15 -4,-6 -8,-10 -13,-13 -5,-2 -12,-4 -20,-4 z m 41,179 -8,-35 c 17,-6 30,-13 41,-23 10,-9 18,-21 23,-35 2,-6 3,-14 3,-24 2,-17 6,-26 15,-28 7,-2 12,0 16,4 4,5 7,15 11,31 l 19,82 -120,28 z m -152,35 c -8,2 -14,2 -18,0 -4,-1 -7,-5 -8,-10 -2,-8 1,-15 10,-21 2,-1 3,-2 4,-3 3,-3 6,-6 6,-9 1,-3 1,-9 -1,-17 l -1,-5 -60,-260 c -2,-8 -4,-13 -6,-16 -2,-2 -6,-4 -10,-5 -1,0 -3,-1 -5,-1 -10,-2 -16,-7 -18,-14 -1,-6 -1,-10 2,-14 3,-3 9,-5 17,-7 l 134,-31 88,382 -134,31 z m 64,-417 116,-27 24,102 c 1,5 0,9 -2,12 -2,4 -5,6 -10,7 -8,2 -17,-3 -25,-17 -6,-8 -11,-15 -16,-19 -10,-9 -22,-16 -35,-20 -14,-4 -29,-5 -44,-3 l -8,-35 z m 571,240 -77,25 -297,-263 c -7,-6 -17,-10 -28,-9 -12,0 -19,-4 -21,-11 -2,-5 -2,-9 1,-12 2,-3 7,-6 14,-8 l 141,-47 226,200 41,125 z m -51,-154 -47,-42 -23,-69 c -5,-16 -10,-28 -14,-34 -5,-6 -10,-11 -16,-14 -4,-2 -12,-5 -22,-6 -10,-2 -16,-6 -18,-12 -2,-6 -2,-11 1,-15 2,-4 7,-7 15,-10 l 73,-24 c 7,-2 14,-3 18,-1 4,1 8,5 9,11 3,6 0,13 -7,21 -7,7 -12,13 -14,18 -3,5 -4,12 -4,19 0,7 3,20 9,37 l 40,121 z m -306,-49 47,41 50,152 c 3,10 7,17 11,23 4,6 9,11 15,14 4,2 12,4 22,6 10,2 16,6 18,12 2,6 2,11 -1,15 -2,3 -8,7 -15,9 l -73,24 c -7,3 -13,3 -18,2 -4,-2 -7,-6 -9,-11 -2,-7 0,-14 7,-21 7,-8 12,-14 14,-18 3,-6 5,-13 4,-20 0,-7 -3,-19 -9,-37 l -63,-191 z m 495,-287 139,308 c 4,8 12,12 23,11 l 1,0 c 7,-1 13,0 16,1 4,2 6,5 8,9 2,5 2,10 0,13 -3,4 -9,8 -19,13 l -133,60 c -10,4 -17,6 -21,6 -5,-1 -8,-4 -11,-9 -3,-7 0,-16 9,-26 2,-1 3,-2 3,-3 4,-3 6,-7 7,-9 0,-3 -1,-8 -4,-15 l -3,-7 -135,-298 120,-54 z m 87,-39 48,107 c 3,5 3,11 2,16 -2,4 -6,8 -11,10 -10,5 -20,0 -30,-15 -3,-4 -5,-8 -7,-10 -10,-14 -21,-24 -30,-31 -10,-7 -19,-11 -28,-11 l -16,-34 72,-32 z m -299,135 72,-33 16,34 c -6,7 -10,16 -11,28 -1,12 0,27 3,44 1,3 2,6 4,12 4,17 1,28 -9,32 -6,3 -12,3 -16,1 -5,-3 -9,-9 -14,-20 l -45,-98 z m 830,-9 -20,-27 c 11,-9 16,-18 17,-26 0,-8 -6,-21 -17,-37 l -129,-181 c -12,-16 -21,-25 -30,-28 -8,-2 -18,0 -30,7 l -19,-27 c 48,-29 94,-38 139,-28 45,10 84,38 118,86 34,47 48,94 43,139 -6,46 -30,87 -72,122 z m -126,90 c -7,5 -12,7 -17,7 -4,0 -8,-2 -11,-7 -5,-6 -4,-14 1,-23 1,-2 2,-3 3,-4 2,-4 3,-8 2,-11 0,-3 -3,-8 -8,-15 l -3,-4 -154,-217 c -5,-7 -9,-11 -12,-13 -3,-1 -6,-2 -11,-1 -1,0 -3,1 -5,1 -10,2 -17,0 -22,-6 -3,-5 -4,-9 -3,-13 2,-4 6,-9 13,-14 l 111,-79 228,319 -112,80 z m 333,-483 -23,-28 c 4,-7 7,-13 8,-19 1,-5 0,-11 -2,-17 -1,-5 -3,-11 -6,-18 -5,-13 -5,-21 1,-26 4,-4 9,-5 13,-3 5,1 11,7 18,15 l 65,75 c 6,7 10,14 11,18 1,5 -1,9 -5,13 -6,5 -14,4 -26,-3 -6,-3 -12,-6 -16,-8 -6,-3 -12,-5 -18,-5 -6,0 -12,2 -20,6 z m 120,139 -23,-28 c 12,-12 21,-25 26,-39 5,-13 6,-27 3,-42 0,-5 -3,-13 -8,-23 -6,-15 -7,-26 0,-31 5,-5 11,-6 16,-4 6,3 14,10 25,22 l 55,64 -94,81 z m -118,102 c -6,5 -11,8 -16,8 -4,1 -8,-1 -12,-5 -5,-6 -5,-14 -1,-23 1,-2 2,-4 3,-5 1,-4 2,-8 1,-11 -1,-3 -4,-8 -9,-14 l -3,-4 -175,-202 c -5,-6 -9,-10 -12,-11 -3,-1 -7,-1 -12,0 -1,0 -2,1 -5,1 -9,3 -17,2 -22,-4 -4,-4 -5,-9 -4,-13 1,-4 5,-9 11,-14 l 104,-90 256,297 -104,90 z m -138,-399 90,-78 69,79 c 3,4 5,8 4,12 0,4 -2,8 -5,11 -7,5 -17,4 -31,-4 -9,-4 -17,-8 -22,-9 -14,-4 -27,-5 -41,-2 -14,3 -28,9 -40,18 l -24,-27 z m 487,-73 56,92 -51,55 -311,-158 c 0,-1 -1,-1 -3,-2 -11,-6 -21,-7 -28,-4 -6,3 -11,4 -14,4 -3,-1 -6,-2 -9,-5 -5,-4 -7,-9 -5,-14 1,-5 6,-12 15,-21 l 87,-92 c 8,-8 14,-13 20,-15 5,-1 10,1 15,5 4,4 5,11 3,20 -2,9 -1,16 3,20 1,1 2,2 4,2 1,1 2,2 5,3 l 213,110 z m -72,-55 -64,-106 c -2,-3 -3,-5 -5,-8 -2,-2 -4,-4 -5,-6 -5,-4 -9,-6 -15,-7 -5,-1 -10,-1 -15,1 -2,1 -5,2 -8,3 -9,4 -17,4 -22,-1 -5,-5 -6,-9 -5,-14 1,-5 4,-11 11,-18 l 47,-50 c 7,-7 13,-11 17,-12 4,-2 9,0 14,4 5,6 6,14 1,25 -3,4 -4,8 -5,10 -1,7 -1,14 1,22 1,7 5,16 11,26 l 98,160 -56,-29 z m 49,-375 c 5,-7 10,-11 14,-12 4,-1 9,0 13,3 6,5 8,12 5,22 0,3 -1,5 -1,6 -1,5 -1,8 1,11 1,3 5,7 11,12 l 4,3 210,167 c 6,4 10,7 12,8 3,0 6,0 9,-1 2,-1 4,-2 7,-3 10,-6 18,-6 24,-1 5,4 7,8 7,12 -1,5 -4,10 -9,17 l -89,112 c -5,7 -10,11 -14,12 -4,1 -9,0 -13,-4 -6,-4 -8,-12 -5,-22 0,-2 1,-4 1,-5 1,-4 1,-8 -1,-11 -1,-3 -5,-7 -12,-12 l -3,-3 -209,-166 c -7,-5 -12,-8 -15,-9 -3,0 -6,0 -11,2 -1,1 -2,1 -4,3 -9,4 -17,4 -23,0 -5,-4 -7,-8 -7,-12 1,-5 3,-10 9,-17 l 89,-112 z m 452,31 -31,-19 c 8,-14 12,-28 11,-42 0,-15 -4,-29 -13,-43 -4,-6 -11,-15 -19,-24 -11,-13 -15,-23 -11,-29 4,-6 9,-8 14,-8 6,1 17,7 33,17 l 78,50 -62,98 z m -83,130 c -4,7 -9,12 -13,13 -3,2 -8,1 -13,-2 -6,-4 -9,-11 -7,-21 0,-3 0,-4 0,-6 1,-4 0,-8 -1,-11 -2,-2 -6,-6 -14,-11 l -3,-2 -225,-143 c -7,-5 -13,-7 -16,-7 -3,-1 -7,0 -11,3 -1,0 -2,1 -4,3 -8,5 -16,6 -22,2 -6,-3 -8,-7 -8,-11 0,-5 2,-10 6,-17 l 77,-122 c 5,-7 9,-11 13,-13 4,-1 8,-1 14,3 6,4 8,11 7,21 -1,2 -1,4 -1,5 0,5 0,8 2,11 2,3 6,7 13,11 l 4,3 276,175 -74,116 z m 349,-627 -30,-14 c 4,-13 5,-24 1,-31 -4,-8 -15,-15 -33,-24 l -203,-92 c -18,-8 -31,-11 -39,-9 -8,2 -16,9 -23,21 l -30,-14 c 27,-49 62,-80 106,-94 44,-14 92,-9 145,15 53,25 89,58 107,100 19,42 18,89 -1,142 z m -64,140 c -3,7 -7,12 -11,14 -3,3 -8,3 -13,0 -7,-3 -11,-10 -11,-20 1,-2 1,-4 1,-5 -1,-5 -2,-9 -4,-11 -2,-3 -7,-6 -14,-9 l -4,-2 -243,-110 c -8,-4 -13,-6 -16,-6 -4,1 -7,2 -11,5 -1,1 -2,2 -4,4 -7,6 -15,8 -22,5 -5,-2 -8,-6 -9,-10 -1,-4 1,-10 4,-18 l 57,-125 357,163 -57,125 z m 142,-586 -227,-65 c -19,-5 -33,-7 -40,-5 -8,1 -13,7 -17,17 l -32,-10 c 18,-49 49,-83 91,-102 43,-18 92,-19 150,-2 58,16 100,43 126,82 26,38 34,82 23,134 l -32,-9 c 2,-10 0,-18 -5,-23 -5,-6 -18,-11 -37,-17 z m -19,68 c 18,6 32,7 39,6 8,-2 14,-8 18,-18 l 32,10 c -18,49 -49,83 -91,101 -43,19 -93,20 -151,3 -57,-16 -99,-44 -125,-82 -26,-38 -34,-83 -24,-135 l 32,10 c -2,10 0,18 6,23 5,6 17,12 36,17 l 228,65 z m 188,-419 -34,-6 c 0,-9 -1,-15 -5,-19 -4,-4 -12,-7 -23,-9 l -83,-15 c -7,-1 -12,-1 -14,0 -3,1 -5,3 -8,7 -1,1 -2,3 -3,5 -5,9 -12,13 -21,11 -5,-1 -9,-3 -11,-7 -1,-4 -1,-10 0,-19 l 21,-119 c 1,-6 3,-11 7,-14 3,-3 7,-4 13,-3 4,0 7,2 9,3 2,2 4,6 6,10 1,4 3,6 5,8 2,1 5,2 11,3 l 4,1 93,16 c 15,24 25,48 30,72 6,24 7,49 3,75 z m -36,10 33,6 c -13,50 -40,86 -80,108 -40,23 -89,28 -148,18 -58,-10 -103,-32 -133,-66 -30,-34 -43,-77 -40,-130 l 33,6 c 0,10 3,18 9,23 7,4 19,8 38,12 l 233,40 c 19,4 32,4 39,2 8,-3 13,-9 16,-19 z m -224,-195 5,1 c 11,2 18,5 22,9 4,4 6,10 4,18 -2,10 -13,17 -34,21 -16,2 -29,5 -39,9 -18,6 -33,15 -44,26 -11,11 -18,23 -22,37 l -33,-6 c 4,-17 11,-33 21,-50 9,-16 14,-26 14,-29 1,-4 -1,-10 -7,-16 -5,-6 -7,-13 -6,-21 1,-7 3,-12 7,-14 3,-2 9,-3 18,-1 l 2,0 92,16 z m -65,-220 -34,-3 c 2,-16 6,-32 12,-48 7,-16 11,-24 11,-25 0,-4 -3,-8 -8,-13 -5,-5 -7,-10 -7,-15 0,-6 2,-10 6,-13 3,-2 8,-3 16,-2 l 92,7 c 10,1 17,3 20,5 3,3 5,8 4,14 0,9 -8,15 -24,18 -8,1 -14,3 -18,4 -18,6 -33,15 -45,27 -12,12 -21,27 -25,44 z m 372,39 -38,-2 c 1,-17 -2,-30 -8,-38 -6,-9 -15,-13 -28,-14 -20,-2 -43,20 -67,64 l -3,4 c -23,44 -45,73 -66,88 -21,14 -46,20 -75,18 -39,-3 -70,-17 -93,-43 -22,-26 -32,-59 -29,-97 l 0,-5 34,3 c 2,11 6,20 13,27 7,8 16,12 26,12 20,2 41,-21 64,-67 l 4,-8 c 19,-39 40,-66 62,-81 23,-16 50,-22 82,-20 40,3 71,19 93,48 22,29 32,66 29,111 z m -38,14 35,3 c -1,15 -5,31 -11,48 -7,16 -10,26 -10,28 -1,4 2,9 7,13 5,5 7,10 7,15 -1,6 -3,10 -7,13 -5,3 -10,4 -18,4 l -102,-8 c -11,-1 -18,-3 -22,-6 -4,-3 -6,-8 -5,-14 0,-9 9,-15 27,-18 8,-2 15,-3 20,-5 19,-5 35,-15 49,-28 14,-12 24,-28 30,-45 z"
       id="path43"
       inkscape:connector-curvature="0"
       style="fill:#ffffff;fill-rule:nonzero" /><circle
       class="fil2"
       cy="11000"
       r="3898"
       id="circle45"
       cx="0"
       style="fill:none" /><path
       class="fil4"
       d="m -1406,13069 -80,-62 13,-16 c 10,-14 16,-23 18,-28 1,-5 -2,-10 -8,-15 -5,-4 -10,-5 -15,-4 -5,2 -11,6 -16,12 -7,10 -12,17 -14,22 -2,5 -2,13 1,23 2,10 9,28 21,53 17,33 24,59 24,76 -1,18 -10,38 -27,60 -19,24 -36,40 -52,47 -16,8 -34,9 -54,4 -20,-5 -40,-15 -61,-31 -23,-18 -40,-37 -51,-57 -10,-20 -14,-39 -11,-56 4,-17 15,-38 35,-63 l 11,-14 80,63 -14,19 c -13,16 -20,27 -22,33 -1,6 1,12 7,17 6,5 12,6 17,5 5,-1 12,-7 20,-17 11,-14 16,-25 16,-31 -1,-6 -10,-30 -28,-73 -15,-36 -21,-62 -17,-79 4,-16 12,-33 25,-50 19,-24 36,-39 51,-45 15,-7 32,-7 52,-1 20,5 40,16 60,31 19,16 34,31 44,47 10,16 15,31 16,45 1,14 0,25 -4,33 -4,8 -12,20 -23,35 l -14,17 z m 221,216 -128,-77 -42,71 c -9,14 -14,24 -14,30 -1,5 2,10 8,14 8,4 15,4 21,0 6,-4 13,-14 23,-30 l 26,-43 93,56 -14,24 c -12,21 -23,35 -32,44 -9,10 -22,17 -38,24 -17,7 -34,9 -52,6 -18,-2 -38,-10 -59,-23 -21,-12 -38,-26 -50,-42 -12,-16 -20,-31 -22,-47 -3,-16 -2,-31 2,-46 4,-15 14,-34 28,-58 l 57,-95 c 17,-28 35,-48 52,-60 18,-11 38,-17 60,-15 23,2 46,10 68,24 28,16 48,35 59,57 12,21 16,42 13,64 -3,22 -14,48 -33,80 l -26,42 z m -67,-111 15,-24 c 10,-17 15,-28 16,-34 1,-6 -1,-11 -6,-14 -7,-4 -13,-5 -17,-2 -4,3 -12,14 -23,32 l -14,24 29,18 z m 268,-6 -14,33 c 13,-10 27,-17 41,-19 14,-3 28,-1 43,5 29,10 47,32 53,65 14,-10 28,-16 42,-19 14,-2 28,-1 42,4 18,7 31,17 40,30 9,14 12,28 11,42 -1,14 -8,35 -18,64 l -94,252 -104,-38 86,-231 c 11,-31 17,-50 17,-58 1,-8 -2,-13 -10,-16 -8,-3 -14,-1 -19,5 -5,7 -13,25 -24,55 l -86,231 -104,-38 83,-225 c 13,-35 20,-56 21,-64 1,-7 -3,-13 -10,-16 -5,-1 -10,-1 -15,1 -4,3 -8,7 -10,12 -2,5 -7,16 -13,33 l -91,246 -105,-39 132,-354 106,39 z m 409,139 -9,32 c 13,-11 26,-18 39,-22 14,-4 28,-4 42,-1 17,4 31,12 42,24 11,12 16,25 17,38 0,13 -3,34 -10,63 l -34,156 c -8,33 -15,57 -22,70 -7,13 -18,23 -32,28 -15,6 -30,7 -48,3 -14,-3 -26,-9 -36,-18 -11,-9 -19,-22 -26,-37 l -19,85 -112,-25 94,-422 114,26 z m 8,114 c 5,-22 7,-36 7,-42 -1,-5 -5,-8 -13,-10 -7,-2 -12,0 -16,5 -3,5 -7,18 -12,40 l -34,153 c -5,22 -7,36 -6,42 1,6 5,10 12,12 8,1 13,0 16,-5 3,-5 6,-17 11,-36 l 35,-159 z m 407,153 -148,-22 -12,81 c -2,17 -3,28 -1,33 2,6 6,9 13,10 9,1 15,-1 19,-7 4,-6 7,-19 10,-38 l 7,-49 108,16 -4,28 c -3,23 -7,41 -12,52 -5,12 -14,25 -26,37 -13,13 -28,21 -46,26 -17,5 -39,5 -63,1 -24,-3 -45,-10 -63,-19 -17,-10 -30,-22 -38,-35 -9,-14 -14,-28 -16,-44 -1,-15 0,-36 4,-64 l 16,-109 c 5,-33 13,-58 25,-76 11,-17 28,-30 50,-37 21,-7 45,-8 71,-4 32,4 58,14 77,29 19,16 31,34 36,55 6,21 6,50 0,86 l -7,50 z m -105,-78 4,-27 c 3,-19 4,-32 3,-38 -2,-6 -6,-9 -12,-10 -8,-1 -14,0 -16,5 -3,4 -6,17 -9,38 l -4,27 34,5 z m 263,-123 -4,50 c 17,-36 41,-54 73,-56 l -1,133 c -21,0 -36,2 -46,8 -10,6 -16,14 -19,24 -2,10 -3,33 -3,70 l -1,149 -115,0 2,-378 114,0 z m 472,-126 9,59 -117,17 -9,-59 117,-17 z m -137,20 9,58 c -24,3 -38,6 -42,9 -4,3 -5,10 -4,20 l 2,12 49,-7 8,59 -27,4 45,305 -114,17 -45,-305 -23,4 -9,-60 23,-3 c -3,-25 -5,-42 -5,-50 1,-9 4,-17 10,-24 6,-8 14,-14 26,-19 11,-6 30,-10 55,-14 l 42,-6 z m 150,62 55,374 -117,17 -56,-374 118,-17 z m 246,-154 132,443 -110,32 -8,-26 c -8,14 -16,26 -26,35 -10,9 -22,15 -35,19 -17,5 -33,5 -48,0 -15,-5 -27,-14 -34,-24 -7,-11 -14,-30 -22,-57 l -51,-169 c -8,-28 -12,-48 -12,-61 0,-13 5,-26 15,-38 10,-13 24,-22 42,-27 14,-4 27,-5 40,-4 13,2 25,6 38,13 l -31,-103 110,-33 z m -59,204 c -4,-13 -8,-22 -12,-25 -3,-4 -9,-5 -15,-3 -7,2 -11,5 -12,10 -1,5 0,14 5,28 l 53,178 c 4,15 8,24 12,28 3,4 8,5 14,3 8,-2 12,-6 12,-12 1,-6 -1,-19 -7,-39 l -50,-168 z m 433,-48 -138,56 30,76 c 7,16 12,25 16,29 5,4 10,4 16,2 9,-4 13,-9 13,-16 0,-7 -3,-20 -10,-37 l -19,-47 101,-41 11,26 c 8,22 14,39 16,52 2,13 1,28 -4,45 -5,17 -14,32 -26,45 -13,13 -31,24 -54,34 -23,9 -44,14 -64,14 -20,1 -37,-3 -51,-10 -14,-8 -26,-17 -35,-30 -9,-12 -19,-31 -30,-57 l -41,-102 c -13,-31 -18,-57 -17,-78 1,-21 9,-40 24,-57 15,-17 35,-30 59,-40 30,-13 57,-17 81,-13 24,3 44,12 59,28 16,15 30,40 44,74 l 19,47 z m -130,-14 -10,-25 c -7,-19 -13,-30 -17,-34 -4,-5 -9,-6 -16,-3 -7,3 -11,7 -11,12 0,5 4,18 12,38 l 11,25 31,-13 z m 137,-312 224,403 -103,57 -225,-403 104,-57 z m 135,-80 33,50 -99,65 -33,-50 99,-65 z m 46,70 207,315 -99,65 -207,-315 99,-65 z m 303,-70 -81,61 -13,-17 c -10,-14 -18,-22 -22,-24 -4,-3 -10,-2 -16,3 -5,4 -8,9 -8,14 0,5 3,11 8,18 7,9 12,16 17,19 4,4 12,5 22,6 10,0 29,-2 57,-7 36,-7 63,-8 80,-2 17,5 34,19 50,41 18,24 29,45 32,63 3,17 0,35 -10,53 -10,18 -26,34 -47,50 -23,18 -46,29 -68,34 -22,5 -41,4 -56,-4 -16,-8 -33,-24 -52,-49 l -11,-15 82,-61 14,19 c 12,16 21,26 27,29 5,4 11,3 17,-1 7,-5 10,-10 10,-16 0,-5 -3,-13 -11,-23 -11,-15 -19,-22 -26,-24 -6,-1 -32,2 -77,8 -39,5 -66,3 -81,-5 -15,-8 -29,-20 -42,-37 -18,-24 -28,-45 -30,-61 -2,-16 2,-33 13,-51 10,-17 26,-34 46,-49 20,-15 39,-25 57,-30 18,-6 33,-7 47,-4 14,2 24,7 31,13 7,6 16,16 28,32 l 13,17 z"
       id="path47"
       inkscape:connector-curvature="0"
       style="fill:#a5a542;fill-rule:nonzero" /><path
       class="fil5"
       d="m 0,8618 c 620,0 1181,251 1587,657 406,407 657,968 657,1587 0,620 -251,1181 -657,1587 -406,406 -967,657 -1587,657 -620,0 -1181,-251 -1587,-657 -406,-406 -657,-967 -657,-1587 0,-619 251,-1180 657,-1587 406,-406 967,-657 1587,-657 z m 1174,472 c 75,63 146,133 212,208 11,12 23,25 34,39 l 61,0 c -94,-92 -197,-174 -307,-247 z m 365,306 -71,0 c 107,137 199,289 274,452 l 127,0 c -90,-165 -201,-317 -330,-452 z m 361,511 -132,0 c 58,138 104,283 136,434 l 157,0 c -38,-152 -92,-297 -161,-434 z m 175,493 -159,0 c 26,140 41,284 42,433 l 168,0 c -2,-149 -20,-294 -51,-433 z m 51,492 -168,0 c -1,148 -16,293 -42,433 l 159,0 c 31,-140 49,-285 51,-433 z m -65,492 -157,0 c -32,151 -78,296 -136,433 l 132,0 c 69,-137 123,-282 161,-433 z m -192,492 -127,0 c -75,164 -167,316 -274,453 l 71,0 c 129,-135 240,-288 330,-453 z m -388,512 -61,0 c -11,13 -23,26 -34,39 -66,75 -137,144 -212,208 110,-73 213,-156 307,-247 z m -2655,247 c -75,-64 -146,-133 -212,-208 -11,-13 -23,-26 -34,-39 l -61,0 c 94,91 197,174 307,247 z m -365,-306 71,0 c -107,-137 -199,-289 -274,-453 l -127,0 c 90,165 201,318 330,453 z m -361,-512 132,0 c -58,-137 -104,-282 -136,-433 l -157,0 c 38,151 92,296 161,433 z m -175,-492 159,0 c -26,-140 -41,-285 -42,-433 l -168,0 c 2,148 20,293 51,433 z m -51,-492 168,0 c 1,-149 16,-293 42,-433 l -159,0 c -31,139 -49,284 -51,433 z m 65,-492 157,0 c 32,-151 78,-296 136,-434 l -132,0 c -69,137 -123,282 -161,434 z m 192,-493 127,0 c 75,-163 167,-315 274,-452 l -71,0 c -129,135 -240,287 -330,452 z m 388,-511 61,0 c 11,-14 23,-27 34,-39 66,-75 137,-145 212,-208 -110,73 -213,155 -307,247 z m 2144,-495 -10,-4 c 13,9 27,17 40,26 l 21,0 c -17,-8 -34,-15 -51,-22 z m -460,-96 c -6,-1 -11,-1 -17,-2 30,33 59,73 87,120 l 128,0 c -63,-52 -129,-91 -198,-118 z m -110,-8 c -21,-1 -42,-1 -63,-2 l 0,128 176,0 c -36,-57 -74,-99 -113,-126 z m -123,-2 c -21,1 -42,1 -63,2 -39,27 -77,69 -113,126 l 176,0 0,-128 z m -156,8 c -6,1 -11,1 -17,2 -69,27 -135,66 -198,118 l 128,0 c 28,-47 57,-87 87,-120 z m -467,94 -10,4 c -17,7 -34,14 -51,22 l 21,0 c 13,-9 27,-17 40,-26 z m -10,4045 10,3 c -13,-8 -27,-17 -40,-26 l -21,0 c 17,8 34,15 51,23 z m 460,96 c 6,0 11,1 17,1 -30,-32 -59,-72 -87,-120 l -128,0 c 63,52 129,92 198,119 z m 110,7 c 21,1 42,2 63,2 l 0,-128 -176,0 c 36,57 74,100 113,126 z m 123,2 c 21,0 42,-1 63,-2 39,-26 77,-69 113,-126 l -176,0 0,128 z m 156,-8 c 6,0 11,-1 17,-1 69,-27 135,-67 198,-119 l -128,0 c -28,48 -57,88 -87,120 z m 467,-94 c 3,-1 7,-2 10,-3 17,-8 34,-15 51,-23 l -21,0 c -13,9 -27,18 -40,26 z m -1484,-85 55,0 c -133,-102 -255,-229 -361,-377 -9,-12 -18,-24 -26,-36 l -179,0 c 148,168 321,308 511,413 z m 156,0 126,0 c -95,-102 -181,-231 -257,-380 -5,-11 -11,-22 -16,-33 l -269,0 1,2 c 121,167 261,306 415,411 z m 208,0 162,0 c -52,-104 -100,-234 -141,-386 -2,-9 -5,-18 -7,-27 l -303,0 3,6 c 83,165 180,303 286,407 z m 227,0 210,0 0,-413 -362,0 3,12 c 44,162 94,298 149,401 z m 270,0 210,0 c 55,-103 105,-239 149,-401 l 3,-12 -362,0 0,413 z m 275,0 162,0 c 106,-104 203,-242 286,-407 l 3,-6 -303,0 c -2,9 -5,18 -7,27 -41,152 -89,282 -141,386 z m 244,0 126,0 c 154,-105 294,-244 415,-411 l 1,-2 -269,0 c -5,11 -11,22 -16,33 -76,149 -162,278 -257,380 z m 227,0 55,0 c 190,-105 363,-245 511,-413 l -179,0 c -8,12 -17,24 -26,36 -106,148 -228,275 -361,377 z m -196,59 -89,0 c -38,35 -77,67 -117,94 71,-25 140,-56 206,-94 z m -1071,0 -89,0 c 66,38 135,69 206,94 -40,-27 -79,-59 -117,-94 z m -89,-3996 89,0 c 38,-35 77,-66 117,-93 -71,24 -140,56 -206,93 z m 1071,0 89,0 c -66,-37 -135,-69 -206,-93 40,27 79,58 117,93 z m 340,59 -55,0 c 133,102 255,229 361,377 9,12 18,24 26,37 l 179,0 C 1194,9169 1021,9028 831,8923 Z m -156,0 -126,0 c 95,103 181,231 257,381 5,11 11,22 16,33 l 269,0 -1,-3 C 969,9167 829,9028 675,8923 Z m -208,0 -162,0 c 52,104 100,235 141,387 2,8 5,18 7,27 l 303,0 -3,-7 C 670,9165 573,9027 467,8923 Z m -227,0 -210,0 0,414 362,0 -3,-12 C 345,9162 295,9026 240,8923 Z m -270,0 -210,0 c -55,103 -105,239 -149,402 l -3,12 362,0 0,-414 z m -275,0 -162,0 c -106,104 -203,242 -286,407 l -3,7 303,0 c 2,-9 5,-19 7,-27 41,-152 89,-283 141,-387 z m -244,0 -126,0 c -154,105 -294,244 -415,411 l -1,3 269,0 c 5,-11 11,-22 16,-33 76,-150 162,-278 257,-381 z m -227,0 -55,0 c -190,105 -363,246 -511,414 l 179,0 c 8,-13 17,-25 26,-37 106,-148 228,-275 361,-377 z m -616,3406 190,0 c -88,-137 -164,-289 -225,-453 l -250,0 c 78,165 174,317 285,453 z m 260,0 282,0 c -61,-137 -114,-289 -157,-453 l -357,0 c 63,165 141,317 232,453 z m 347,0 317,0 c -33,-137 -62,-289 -85,-453 l -393,0 c 44,165 98,317 161,453 z m 378,0 377,0 0,-453 -463,0 c 23,165 52,317 86,453 z m 437,0 377,0 c 34,-136 63,-288 86,-453 l -463,0 0,453 z m 438,0 317,0 c 63,-136 117,-288 161,-453 l -393,0 c -23,164 -52,316 -85,453 z m 382,0 282,0 c 91,-136 169,-288 232,-453 l -357,0 c -43,164 -96,316 -157,453 z m 352,0 190,0 c 111,-136 207,-288 285,-453 l -250,0 c -61,164 -137,316 -225,453 z m 190,-2933 -190,0 c 88,137 164,289 225,452 l 250,0 c -78,-164 -174,-317 -285,-452 z m -260,0 -282,0 c 61,136 114,288 157,452 l 357,0 c -63,-164 -141,-316 -232,-452 z m -347,0 -317,0 c 33,136 62,288 85,452 l 393,0 C 902,9684 848,9532 785,9396 Z m -378,0 -377,0 0,452 463,0 c -23,-164 -52,-316 -86,-452 z m -437,0 -377,0 c -34,136 -63,288 -86,452 l 463,0 0,-452 z m -438,0 -317,0 c -63,136 -117,288 -161,452 l 393,0 c 23,-164 52,-316 85,-452 z m -382,0 -282,0 c -91,136 -169,288 -232,452 l 357,0 c 43,-164 96,-316 157,-452 z m -352,0 -190,0 c -111,135 -207,288 -285,452 l 250,0 c 61,-163 137,-315 225,-452 z m -502,2421 256,0 c -48,-137 -85,-282 -112,-433 l -284,0 c 34,151 81,296 140,433 z m 318,0 364,0 c -34,-137 -60,-282 -78,-433 l -400,0 c 27,151 66,296 114,433 z m 425,0 400,0 c -18,-137 -32,-282 -42,-433 l -438,0 c 19,151 46,296 80,433 z m 459,0 472,0 0,-433 -514,0 c 10,151 24,296 42,433 z m 532,0 472,0 c 18,-137 32,-282 42,-433 l -514,0 0,433 z m 531,0 400,0 c 34,-137 61,-282 80,-433 l -438,0 c -10,151 -24,296 -42,433 z m 461,0 364,0 c 48,-137 87,-282 114,-433 l -400,0 c -18,151 -44,296 -78,433 z m 426,0 256,0 c 59,-137 106,-282 140,-433 l -284,0 c -27,151 -64,296 -112,433 z m 256,-1910 -256,0 c 48,138 85,283 112,434 l 284,0 c -34,-152 -81,-297 -140,-434 z m -318,0 -364,0 c 34,138 60,283 78,434 l 400,0 c -27,-152 -66,-297 -114,-434 z m -425,0 -400,0 c 18,138 32,282 42,434 l 438,0 c -19,-152 -46,-297 -80,-434 z m -459,0 -472,0 0,434 514,0 c -10,-152 -24,-297 -42,-434 z m -532,0 -472,0 c -18,137 -32,282 -42,434 l 514,0 0,-434 z m -531,0 -400,0 c -34,137 -61,282 -80,434 l 438,0 c 10,-152 24,-296 42,-434 z m -461,0 -364,0 c -48,137 -87,282 -114,434 l 400,0 c 18,-151 44,-296 78,-434 z m -426,0 -256,0 c -59,137 -106,282 -140,434 l 284,0 c 27,-151 64,-296 112,-434 z m -408,1418 287,0 c -22,-140 -34,-285 -35,-433 l -295,0 c 1,148 16,293 43,433 z m 346,0 403,0 c -15,-140 -24,-285 -25,-433 l -413,0 c 1,148 14,293 35,433 z m 462,0 441,0 c -8,-140 -12,-285 -13,-433 l -453,0 c 1,148 10,293 25,433 z m 500,0 518,0 0,-433 -531,0 c 1,148 5,293 13,433 z m 578,0 518,0 c 8,-140 12,-285 13,-433 l -531,0 0,433 z m 577,0 441,0 c 15,-140 24,-285 25,-433 l -453,0 c -1,148 -5,293 -13,433 z m 500,0 403,0 c 21,-140 34,-285 35,-433 l -413,0 c -1,148 -10,293 -25,433 z m 462,0 287,0 c 27,-140 42,-285 43,-433 l -295,0 c -1,148 -13,293 -35,433 z m 287,-925 -287,0 c 22,140 34,284 35,433 l 295,0 c -1,-149 -16,-294 -43,-433 z m -346,0 -403,0 c 15,140 24,284 25,433 l 413,0 c -1,-149 -14,-294 -35,-433 z m -462,0 -441,0 c 8,140 12,284 13,433 l 453,0 c -1,-149 -10,-294 -25,-433 z m -500,0 -518,0 0,433 531,0 c -1,-149 -5,-294 -13,-433 z m -578,0 -518,0 c -8,139 -12,284 -13,433 l 531,0 0,-433 z m -577,0 -441,0 c -15,139 -24,284 -25,433 l 453,0 c 1,-149 5,-293 13,-433 z m -500,0 -403,0 c -21,139 -34,284 -35,433 l 413,0 c 1,-149 10,-293 25,-433 z m -462,0 -287,0 c -27,139 -42,284 -43,433 l 295,0 c 1,-149 13,-293 35,-433 z"
       id="path49"
       inkscape:connector-curvature="0"
       style="fill:#e32527;fill-rule:nonzero" /><g
       id="_806974016"><path
         class="fil0"
         d="m 1353,9899 -196,215 164,153 c 86,-45 195,-33 270,37 96,89 101,238 12,334 -89,95 -238,100 -334,11 -75,-70 -94,-178 -55,-267 l -162,-151 -1387,1533 c -265,292 261,1105 785,947 -91,-191 132,-199 272,-176 117,19 217,-105 271,-233 121,356 -131,696 -347,741 -131,27 -160,-82 -135,-167 -577,215 -915,116 -1397,-118 -180,-88 -519,-107 -628,-48 52,-113 9,-449 -92,-623 -266,-464 -389,-794 -215,-1386 -83,31 -193,10 -175,-123 29,-218 351,-493 714,-397 -124,63 -240,171 -213,286 33,138 40,361 -157,284 -121,534 727,1001 1000,717 L 780,9978 618,9827 c -86,45 -195,33 -270,-37 -96,-89 -101,-238 -12,-334 89,-95 239,-100 334,-11 75,70 94,177 55,267 l 164,152 202,-210 c -78,-169 -51,-375 83,-520 178,-190 477,-201 668,-23 191,178 201,477 23,668 -134,144 -338,185 -512,120 z M 589,9531 c 48,44 51,119 6,167 -44,48 -119,50 -167,6 -47,-45 -50,-120 -6,-167 45,-48 120,-51 167,-6 z m 922,859 c 47,45 50,119 6,167 -45,48 -120,50 -167,6 -48,-45 -51,-119 -6,-167 44,-48 119,-50 167,-6 z m 130,-1063 c 71,67 75,179 9,250 -67,72 -179,76 -251,9 -71,-67 -75,-179 -9,-250 67,-72 179,-76 251,-9 z"
         id="path52"
         inkscape:connector-curvature="0"
         style="fill:#0b2a4c" /><path
         class="fil0"
         d="m -1768,8731 c 81,-86 138,83 223,167 167,167 292,181 696,585 260,260 386,449 557,612 78,75 162,119 288,105 18,-3 36,-7 54,-11 32,-7 114,-31 120,-71 3,-22 23,-37 44,-34 22,3 37,23 34,45 -12,83 -108,121 -180,137 -51,12 -34,72 2,108 l 556,556 0,56 56,0 0,56 56,0 0,55 55,0 0,56 56,0 0,56 56,0 0,55 55,0 0,56 56,0 0,56 56,0 0,56 55,0 0,55 56,0 0,56 56,0 0,56 56,0 0,55 55,0 0,56 56,0 0,56 56,0 0,55 55,0 0,56 56,0 0,57 41,10 -13,54 54,13 -13,54 54,13 -13,54 54,13 -12,55 54,13 -13,54 54,13 c 111,181 231,351 365,516 l -598,-42 -1838,-1838 c 14,-94 -25,-189 -104,-270 -81,1 -154,16 -220,47 -60,28 -114,67 -166,121 -13,13 -26,27 -39,42 -14,17 -39,19 -55,5 -17,-14 -19,-39 -5,-56 49,-58 105,-98 155,-141 128,-109 171,-293 -53,-402 -212,-103 -424,-235 -598,-431 -163,-183 -251,-390 -418,-557 -57,-57 -161,-76 -264,-42 -167,56 -191,-30 -153,-69 l 403,-432 z"
         id="path54"
         inkscape:connector-curvature="0"
         style="fill:#0b2a4c" /></g></g></svg>