<?xml version="1.0" encoding="UTF-8" standalone="no"?>
<!-- Creator: CorelDRAW X7 -->

<svg
   xmlns:dc="http://purl.org/dc/elements/1.1/"
   xmlns:cc="http://creativecommons.org/ns#"
   xmlns:rdf="http://www.w3.org/1999/02/22-rdf-syntax-ns#"
   xmlns:svg="http://www.w3.org/2000/svg"
   xmlns="http://www.w3.org/2000/svg"
   xmlns:sodipodi="http://sodipodi.sourceforge.net/DTD/sodipodi-0.dtd"
   xmlns:inkscape="http://www.inkscape.org/namespaces/inkscape"
   xml:space="preserve"
   width="7.8740005in"
   height="7.8740005in"
   version="1.1"
   style="clip-rule:evenodd;fill-rule:evenodd;image-rendering:optimizeQuality;shape-rendering:geometricPrecision;text-rendering:geometricPrecision"
   viewBox="0 0 7874.0005 7874.0005"
   id="svg2"
   inkscape:version="0.91 r13725"
   sodipodi:docname="image_2048.svg"><metadata
     id="metadata40"><rdf:RDF><cc:Work
         rdf:about=""><dc:format>image/svg+xml</dc:format><dc:type
           rdf:resource="http://purl.org/dc/dcmitype/StillImage" /></cc:Work></rdf:RDF></metadata><sodipodi:namedview
     pagecolor="#ffffff"
     bordercolor="#666666"
     borderopacity="1"
     objecttolerance="10"
     gridtolerance="10"
     guidetolerance="10"
     inkscape:pageopacity="0"
     inkscape:pageshadow="2"
     inkscape:window-width="640"
     inkscape:window-height="480"
     id="namedview38"
     showgrid="false"
     inkscape:zoom="0.23838384"
     inkscape:cx="736.83001"
     inkscape:cy="849.33005"
     inkscape:window-x="0"
     inkscape:window-y="0"
     inkscape:window-maximized="0"
     inkscape:current-layer="svg2" /><defs
     id="defs4"><style
       type="text/css"
       id="style6"><![CDATA[
    .fil3 {fill:none}
    .fil1 {fill:black}
    .fil5 {fill:#E2001A}
    .fil0 {fill:#E32527}
    .fil4 {fill:white}
    .fil2 {fill:white;fill-rule:nonzero}
   ]]></style></defs><g
     id="Layer_x0020_1"
     transform="translate(3937,-7063)"><metadata
       id="CorelCorpID_0Corel-Layer" /><circle
       class="fil0"
       cy="11000"
       r="3937"
       id="circle10"
       cx="0"
       style="fill:#e32527" /><circle
       class="fil1"
       cy="11000"
       r="3780"
       id="circle12"
       cx="0"
       style="fill:#000000" /><circle
       class="fil0"
       cy="11000"
       r="3661"
       id="circle14"
       cx="0"
       style="fill:#e32527" /><circle
       class="fil1"
       cy="11000"
       r="2520"
       id="circle16"
       cx="0"
       style="fill:#000000" /><circle
       class="fil0"
       cy="11000"
       r="2402"
       id="circle18"
       cx="0"
       style="fill:#e32527" /><circle
       class="fil1"
       cy="11000"
       r="2323"
       id="circle20"
       cx="0"
       style="fill:#000000" /><path
       class="fil2"
       d="m -735,7604 c -3,29 -9,66 -19,111 l -15,65 84,541 -72,11 -64,-409 c -12,25 -27,52 -46,79 l -44,-69 c 54,-99 88,-211 103,-335 l 73,6 z m 469,221 -399,63 -44,-280 399,-62 44,279 z m -85,-59 -22,-138 -253,40 22,138 253,-40 z m 206,463 -102,16 c -16,2 -30,-1 -41,-10 -12,-9 -19,-23 -22,-40 l -49,-314 67,-10 44,280 c 1,3 3,7 8,11 4,5 8,6 11,6 l 73,-12 11,73 z m -223,41 -68,11 -59,-379 68,-10 59,378 z m -198,-356 c 4,21 8,42 11,64 14,88 17,157 8,207 -9,50 -30,93 -63,130 l -63,-37 c 28,-28 47,-63 55,-107 9,-44 6,-110 -8,-199 -2,-16 -5,-32 -8,-48 l 68,-10 z m 1507,-270 -60,267 c -20,91 -41,171 -62,242 -21,71 -35,112 -42,122 -7,11 -17,19 -29,27 -12,7 -26,12 -41,14 -15,2 -52,-1 -110,-10 -20,-3 -38,-7 -52,-10 l -16,-80 c 38,9 74,16 107,21 33,5 53,6 61,4 7,-3 14,-8 20,-16 5,-7 15,-36 30,-86 14,-50 31,-115 50,-194 19,-80 37,-161 53,-243 l -201,-31 c -32,157 -80,279 -145,364 -64,86 -158,158 -282,216 l -45,-64 c 135,-65 230,-136 282,-215 -36,-61 -89,-126 -159,-195 l 56,-52 c 59,59 107,117 143,172 34,-68 58,-147 74,-238 l -291,-46 12,-71 647,102 z"
       id="path22"
       inkscape:connector-curvature="0"
       style="fill:#ffffff;fill-rule:nonzero" /><circle
       class="fil3"
       cy="11000"
       r="3898"
       id="circle24"
       cx="0"
       style="fill:none" /><circle
       class="fil3"
       cy="11000"
       r="3898"
       id="circle26"
       cx="0"
       style="fill:none" /><path
       class="fil4"
       d="m -2500,9215 c 75,-32 173,-103 282,-292 109,-188 122,-309 112,-390 -76,32 -174,103 -282,292 -109,188 -122,309 -112,390 z m -416,2983 c 12,-98 -3,-242 -134,-468 -130,-226 -248,-312 -338,-350 -12,97 3,242 134,468 130,226 248,311 338,350 z m 139,-974 c 44,69 83,184 64,400 -19,217 -78,323 -132,384 -44,-70 -83,-184 -64,-401 19,-216 77,-322 132,-383 z m -349,173 c 37,-91 60,-235 -8,-487 -67,-252 -159,-365 -236,-425 -37,91 -60,234 8,487 67,252 159,365 236,425 z m 387,-905 c 23,79 32,200 -43,404 -74,204 -158,291 -227,336 -23,-78 -32,-199 42,-403 75,-205 159,-292 228,-337 z m -382,78 c 59,-79 118,-212 118,-473 0,-261 -59,-393 -118,-472 -59,79 -119,211 -119,472 0,261 60,394 119,473 z m 607,-775 c 3,82 -20,201 -145,379 -125,179 -229,241 -307,266 -2,-82 21,-200 146,-378 124,-179 228,-241 306,-267 z m -389,-24 c 77,-60 169,-173 236,-425 68,-252 45,-396 9,-487 -78,60 -169,173 -237,425 -67,252 -45,396 -8,487 z m 787,-590 c -18,80 -72,188 -238,328 -167,140 -283,173 -365,178 19,-80 72,-189 238,-329 167,-139 283,-173 365,-177 z"
       id="path28"
       inkscape:connector-curvature="0"
       style="fill:#ffffff" /><path
       class="fil4"
       d="m 2500,9215 c -75,-32 -173,-103 -282,-292 -109,-188 -122,-309 -112,-390 76,32 174,103 282,292 109,188 122,309 112,390 z m 416,2983 c -12,-98 3,-242 134,-468 130,-226 248,-312 338,-350 12,97 -3,242 -134,468 -130,226 -248,311 -338,350 z m -139,-974 c -44,69 -83,184 -64,400 19,217 78,323 132,384 44,-70 83,-184 64,-401 -19,-216 -78,-322 -132,-383 z m 349,173 c -37,-91 -60,-235 8,-487 67,-252 159,-365 236,-425 37,91 60,234 -8,487 -67,252 -159,365 -236,425 z m -387,-905 c -23,79 -32,200 43,404 74,204 158,291 227,336 23,-78 32,-199 -43,-403 -74,-205 -158,-292 -227,-337 z m 382,78 c -59,-79 -118,-212 -118,-473 0,-261 59,-393 118,-472 59,79 119,211 119,472 0,261 -60,394 -119,473 z m -607,-775 c -3,82 20,201 145,379 125,179 229,241 307,266 2,-82 -21,-200 -146,-378 -124,-179 -228,-241 -306,-267 z m 389,-24 c -77,-60 -169,-173 -236,-425 -68,-252 -45,-396 -9,-487 78,60 169,173 237,425 67,252 45,396 8,487 z m -787,-590 c 18,80 72,188 238,328 167,140 283,173 365,178 -19,-80 -72,-189 -238,-329 -167,-139 -283,-173 -365,-177 z"
       id="path30"
       inkscape:connector-curvature="0"
       style="fill:#ffffff" /><path
       class="fil2"
       d="m -2804,12963 -47,-66 422,-297 47,66 -422,297 z m 382,471 -49,-57 245,-211 c 12,-10 25,-20 40,-31 -12,5 -30,12 -54,20 l -281,69 -11,-12 111,-269 c 8,-18 17,-35 27,-50 -21,19 -33,31 -38,35 l -245,210 -42,-49 391,-337 42,50 -129,327 341,-81 43,49 -391,337 z m 594,116 c -44,50 -86,57 -125,23 l -164,-144 -133,151 -60,-53 340,-388 225,197 c 39,35 37,77 -7,127 l -76,87 z m -39,-75 36,-41 c 18,-21 18,-39 0,-55 l -137,-120 -90,103 136,120 c 19,16 37,14 55,-7 z m 232,541 -304,-192 276,-436 301,190 -47,75 -233,-148 -61,98 136,86 -47,74 -136,-86 -69,108 236,149 -52,82 z m 488,225 -106,-49 -46,-235 -70,-32 -81,177 -73,-33 215,-469 271,124 c 48,22 58,63 30,123 l -50,110 c -20,43 -42,66 -68,67 -15,2 -44,-8 -87,-27 l 65,244 z m 31,-343 25,-56 c 12,-25 6,-42 -16,-53 l -165,-75 -60,131 165,75 c 22,11 39,3 51,-22 z m 148,388 -78,-21 138,-498 78,22 -138,497 z m 548,115 -89,-15 -23,-118 -217,-38 -59,105 -80,-14 281,-475 77,13 110,542 z m -129,-231 -39,-219 -112,193 151,26 z m 556,264 -341,-26 39,-514 81,6 -32,418 260,19 -7,97 z m 686,-196 c 6,42 5,72 -2,89 -9,24 -32,39 -68,44 l -214,28 c -38,5 -65,-3 -79,-26 -10,-16 -19,-48 -25,-97 l 68,-31 8,60 245,-33 -16,-117 -216,29 c -35,5 -61,-2 -76,-22 -11,-14 -20,-43 -26,-87 l -7,-57 c -6,-43 -6,-73 1,-91 10,-22 33,-36 68,-41 l 196,-26 c 37,-5 62,3 77,23 11,14 20,44 26,88 l -68,35 -8,-59 -226,30 15,110 215,-29 c 37,-4 62,4 77,24 11,15 20,44 25,86 l 10,70 z m 499,-18 -345,100 -143,-496 342,-99 24,85 -264,76 32,111 154,-45 25,85 -155,44 36,123 268,-77 26,93 z m 490,-221 -106,48 -208,-120 -70,31 80,178 -73,33 -212,-470 272,-123 c 48,-22 85,-2 113,59 l 50,110 c 19,43 21,75 6,95 -9,12 -35,28 -78,47 l 226,112 z m -238,-248 -25,-57 c -11,-25 -28,-32 -51,-22 l -165,75 59,131 166,-75 c 22,-10 28,-27 16,-52 z m 348,-447 119,538 -47,30 -449,-324 78,-50 321,236 -90,-386 68,-44 z m 393,335 -64,49 -316,-408 64,-50 316,409 z m 289,-449 c 32,30 51,54 56,71 7,24 -2,49 -27,75 l -143,151 c -25,26 -49,37 -73,31 -18,-4 -43,-22 -75,-52 l -197,-187 c -32,-30 -51,-54 -56,-72 -7,-24 2,-49 27,-75 l 143,-151 c 24,-26 49,-36 73,-30 18,4 43,21 75,52 l 35,33 -42,72 -71,-67 -150,159 237,224 150,-158 -80,-77 74,-41 44,42 z m 394,-313 -208,293 -421,-298 206,-291 72,51 -159,225 94,66 93,-131 71,51 -93,131 105,74 161,-228 79,57 z"
       id="path32"
       inkscape:connector-curvature="0"
       style="fill:#ffffff;fill-rule:nonzero" /><path
       class="fil4"
       d="m 0,9819 170,-142 -141,891 c -10,-1 -19,-1 -29,-1 -10,0 -19,0 -29,1 L -170,9677 0,9819 Z m 321,-594 166,277 297,-127 -623,1223 c -18,-7 -36,-13 -55,-18 L 321,9225 Z m 982,528 -29,321 315,72 -1223,623 c -10,-16 -21,-31 -33,-46 l 970,-970 z m -97,677 -83,205 188,118 -891,141 c -5,-19 -11,-37 -18,-55 l 804,-409 z m 582,327 -213,243 213,243 -1356,-214 c 1,-10 1,-19 1,-29 0,-10 0,-19 -1,-29 l 1356,-214 z m -199,1097 -315,72 29,321 -970,-970 c 12,-15 23,-30 33,-46 l 1223,623 z m -674,116 -221,-14 -54,214 -409,-804 c 16,-10 31,-21 46,-33 l 638,637 z m -131,655 -297,-127 -166,277 -215,-1355 c 19,-5 37,-11 55,-18 l 623,1223 z m -1105,150 -166,-277 -297,127 623,-1223 c 18,7 36,13 55,18 l -215,1355 z m -319,-605 -54,-214 -221,14 638,-637 c 15,12 30,23 46,33 l -409,804 z m -663,77 29,-321 -315,-72 1223,-623 c 10,16 21,31 33,46 l -970,970 z m -485,-1004 213,-243 -213,-243 1356,214 c -1,10 -1,19 -1,29 0,10 0,19 1,29 l -1356,214 z m 477,-490 188,-118 -83,-205 804,409 c -7,18 -13,36 -18,55 l -891,-141 z m -278,-607 315,-72 -29,-321 970,970 c -12,15 -23,30 -33,46 l -1223,-623 z m 805,-771 297,127 166,-277 215,1355 c -19,5 -37,11 -55,18 L -784,9375 Z"
       id="path34"
       inkscape:connector-curvature="0"
       style="fill:#ffffff" /><path
       class="fil5"
       d="m 1145,9423 409,-33 -1277,1277 c -15,-12 -30,-23 -46,-33 l 820,-1610 94,399 z m 1059,1966 -351,213 158,379 -1609,-820 c 7,-18 13,-36 18,-55 l 1784,283 z M 311,13216 0,12949 l -311,267 282,-1784 c 10,1 19,1 29,1 10,0 19,0 29,-1 l 282,1784 z m -2322,-1235 158,-379 -351,-213 1784,-283 c 5,19 11,37 18,55 l -1609,820 z m 457,-2591 409,33 94,-399 820,1610 c -16,10 -31,21 -46,33 L -1554,9390 Z"
       id="path36"
       inkscape:connector-curvature="0"
       style="fill:#e2001a" /></g></svg>