<?xml version="1.0" encoding="UTF-8" standalone="no"?>
<!-- Creator: CorelDRAW X7 -->

<svg
   xmlns:dc="http://purl.org/dc/elements/1.1/"
   xmlns:cc="http://creativecommons.org/ns#"
   xmlns:rdf="http://www.w3.org/1999/02/22-rdf-syntax-ns#"
   xmlns:svg="http://www.w3.org/2000/svg"
   xmlns="http://www.w3.org/2000/svg"
   xmlns:sodipodi="http://sodipodi.sourceforge.net/DTD/sodipodi-0.dtd"
   xmlns:inkscape="http://www.inkscape.org/namespaces/inkscape"
   xml:space="preserve"
   width="7.8740005in"
   height="7.8740005in"
   version="1.1"
   style="clip-rule:evenodd;fill-rule:evenodd;image-rendering:optimizeQuality;shape-rendering:geometricPrecision;text-rendering:geometricPrecision"
   viewBox="0 0 7874.0005 7874.0005"
   id="svg20562"
   inkscape:version="0.91 r13725"
   sodipodi:docname="image_7029.svg"><metadata
     id="metadata20588"><rdf:RDF><cc:Work
         rdf:about=""><dc:format>image/svg+xml</dc:format><dc:type
           rdf:resource="http://purl.org/dc/dcmitype/StillImage" /></cc:Work></rdf:RDF></metadata><sodipodi:namedview
     pagecolor="#ffffff"
     bordercolor="#666666"
     borderopacity="1"
     objecttolerance="10"
     gridtolerance="10"
     guidetolerance="10"
     inkscape:pageopacity="0"
     inkscape:pageshadow="2"
     inkscape:window-width="640"
     inkscape:window-height="480"
     id="namedview20586"
     showgrid="false"
     inkscape:zoom="0.23838384"
     inkscape:cx="736.83001"
     inkscape:cy="849.33005"
     inkscape:window-x="0"
     inkscape:window-y="0"
     inkscape:window-maximized="0"
     inkscape:current-layer="svg20562" /><defs
     id="defs20564"><style
       type="text/css"
       id="style20566"><![CDATA[
    .fil2 {fill:none}
    .fil1 {fill:black}
    .fil0 {fill:white}
    .fil3 {fill:white;fill-rule:nonzero}
   ]]></style></defs><g
     id="Layer_x0020_1"
     transform="translate(3937,-7063)"><metadata
       id="CorelCorpID_0Corel-Layer" /><circle
       class="fil0"
       cy="11000"
       r="3937"
       id="circle20570"
       cx="0"
       style="fill:#ffffff" /><path
       class="fil1"
       d="m 741,7293 c 1733,345 3039,1873 3039,3707 0,2087 -1693,3780 -3780,3780 -2087,0 -3780,-1693 -3780,-3780 0,-1834 1306,-3362 3039,-3707 57,-11 113,26 124,83 12,58 -25,114 -83,125 l 0,0 c -1293,314 -2253,1479 -2253,2869 0,1631 1322,2953 2953,2953 1631,0 2953,-1322 2953,-2953 0,-1390 -960,-2555 -2253,-2869 l 0,0 c -58,-11 -95,-67 -83,-125 11,-57 67,-94 124,-83 z"
       id="path20572"
       inkscape:connector-curvature="0"
       style="fill:#000000" /><path
       class="fil1"
       d="m 177,9524 c 468,0 847,379 847,846 0,468 -379,847 -847,847 -467,0 -846,-379 -846,-847 0,-467 379,-846 846,-846 z m 0,98 c 413,0 748,335 748,748 0,413 -335,748 -748,748 -413,0 -748,-335 -748,-748 0,-413 335,-748 748,-748 z"
       id="path20574"
       inkscape:connector-curvature="0"
       style="fill:#000000" /><path
       class="fil1"
       d="m -1850,9740 c 78,79 236,158 354,158 394,0 748,-433 1732,-433 1024,0 1536,748 1536,1535 0,79 -80,118 -118,118 -79,0 -119,-79 -197,-79 -79,0 -748,355 -1496,355 -1260,0 -1733,-906 -1811,-1654 z m 196,276 c 40,39 158,39 197,39 512,0 827,-394 1614,-394 788,0 1182,473 1418,1260 -40,-39 -79,-39 -118,-39 -79,0 -670,275 -1457,275 -984,0 -1496,-551 -1654,-1141 z"
       id="path20576"
       inkscape:connector-curvature="0"
       style="fill:#000000" /><path
       class="fil1"
       d="m 0,7929 c 1370,0 2480,1111 2480,2480 0,1370 -1110,2481 -2480,2481 -1370,0 -2480,-1111 -2480,-2481 0,-1369 1110,-2480 2480,-2480 z m 0,236 c 1239,0 2244,1005 2244,2244 0,1240 -1005,2245 -2244,2245 -1239,0 -2244,-1005 -2244,-2245 0,-1239 1005,-2244 2244,-2244 z"
       id="path20578"
       inkscape:connector-curvature="0"
       style="fill:#000000" /><circle
       class="fil1"
       cx="177"
       cy="10370"
       r="354"
       id="circle20580"
       style="fill:#000000" /><circle
       class="fil2"
       cy="11000"
       r="3898"
       id="circle20582"
       cx="0"
       style="fill:none" /><path
       class="fil3"
       d="m -1275,13517 -66,104 -44,-28 c 3,-14 5,-27 5,-39 1,-11 0,-22 -1,-30 -2,-9 -5,-18 -9,-25 -4,-7 -9,-14 -17,-21 -7,-6 -17,-13 -29,-21 l -142,-90 -114,181 96,60 c 14,9 25,14 34,16 9,2 19,1 28,-3 9,-4 21,-12 35,-23 l 42,26 -83,132 -43,-26 c 5,-17 6,-30 6,-40 -1,-10 -4,-19 -9,-27 -5,-7 -15,-15 -29,-24 l -96,-61 -126,198 140,89 c 15,9 28,16 38,19 10,4 20,6 30,5 10,0 19,-2 29,-7 10,-4 19,-9 28,-15 8,-6 21,-15 37,-27 l 44,28 -85,116 -417,-264 11,-17 c 21,8 36,12 45,12 9,-1 17,-5 25,-12 7,-7 16,-19 26,-36 l 188,-297 c 10,-16 17,-28 20,-36 3,-8 4,-15 3,-22 -1,-6 -3,-12 -7,-18 -4,-6 -13,-15 -25,-27 l 11,-16 421,266 z m -77,205 -11,-30 c 44,-8 80,-6 109,5 29,11 47,26 53,47 7,20 4,47 -10,82 l -44,116 c -32,82 -10,137 66,166 39,15 74,15 106,0 32,-15 56,-44 73,-88 31,-81 32,-146 4,-196 l 8,-20 95,36 c 10,57 3,117 -22,182 -23,59 -62,100 -117,123 -56,23 -117,21 -184,-5 -63,-24 -103,-55 -121,-92 -18,-37 -17,-83 4,-137 l 42,-109 c 12,-30 17,-49 16,-58 -1,-9 -7,-15 -17,-19 -10,-4 -26,-5 -50,-3 z m 349,-153 c 1,19 -1,36 -7,51 -8,20 -22,35 -44,45 -21,10 -57,20 -108,28 l -17,-30 c 22,-8 38,-14 48,-20 9,-5 16,-11 22,-18 5,-7 11,-17 15,-29 5,-14 9,-29 11,-47 l 80,20 z m 184,73 -8,19 -168,99 -31,-27 119,-125 88,34 z m 212,296 c -39,-36 -65,-64 -76,-84 -12,-20 -16,-39 -13,-56 4,-28 23,-47 57,-59 33,-12 75,-14 126,-5 74,12 133,37 179,74 l -10,58 -50,-8 c -21,-51 -62,-82 -123,-92 -30,-5 -53,-4 -71,3 -17,8 -27,18 -29,32 -2,13 3,26 14,41 12,14 47,48 106,101 47,42 80,81 99,116 20,34 26,72 19,114 -9,53 -38,92 -88,117 -49,25 -107,32 -174,20 -67,-11 -119,-37 -155,-76 -36,-40 -50,-86 -41,-137 16,-94 92,-147 230,-159 z m 33,30 c -96,15 -151,66 -166,152 -7,41 -1,76 19,105 19,29 47,47 85,53 42,7 77,0 105,-22 28,-22 46,-55 54,-100 5,-33 0,-64 -15,-93 -16,-29 -43,-61 -82,-95 z m 651,332 c -28,47 -78,71 -148,72 -65,1 -115,-14 -152,-45 -37,-30 -56,-73 -57,-129 -2,-89 59,-166 183,-230 l 30,27 c -75,47 -112,115 -110,205 0,48 11,83 31,106 21,23 48,34 81,33 31,0 55,-10 72,-29 16,-19 24,-46 23,-80 l -2,-141 93,-2 2,141 c 1,35 10,62 27,80 17,18 41,27 72,27 35,-1 63,-14 82,-38 18,-24 28,-60 27,-105 -1,-48 -11,-87 -29,-117 -19,-31 -48,-59 -89,-84 l 30,-29 c 126,62 189,137 191,225 1,56 -18,100 -55,131 -37,31 -87,48 -150,49 -69,1 -119,-21 -152,-67 z m 592,-29 46,199 -90,20 -80,-350 c -33,-139 29,-226 184,-262 65,-15 119,-10 162,14 43,25 72,66 85,125 16,67 8,123 -23,168 -31,44 -80,74 -147,90 -51,12 -96,10 -137,-4 z m -33,-142 15,65 c 5,23 21,39 48,48 27,9 57,10 90,3 87,-20 118,-83 94,-188 -27,-115 -79,-163 -157,-145 -89,21 -119,93 -90,217 z m 727,-44 c -67,31 -125,39 -174,24 -49,-14 -87,-51 -114,-110 -18,-41 -25,-80 -19,-116 6,-37 22,-69 48,-98 26,-28 60,-51 101,-70 70,-31 129,-40 179,-25 49,15 87,51 113,108 18,42 25,80 20,116 -5,37 -21,69 -47,98 -26,28 -62,53 -107,73 z m -200,-135 c 23,51 51,85 85,103 33,17 70,17 109,-1 22,-9 39,-22 50,-37 12,-14 19,-31 23,-49 3,-18 3,-37 -1,-56 -4,-20 -10,-40 -19,-59 -16,-37 -35,-64 -57,-84 -21,-19 -43,-30 -66,-33 -24,-3 -47,1 -70,11 -39,18 -64,44 -73,80 -9,35 -3,77 19,125 z m 652,-567 41,64 -55,35 c -37,-23 -76,-21 -116,5 -30,19 -48,46 -54,80 -6,35 3,71 27,108 22,34 47,55 76,63 28,8 73,1 135,-19 40,-13 72,-20 93,-19 22,0 39,10 51,29 15,22 17,51 9,86 -9,34 -27,77 -55,128 l -42,-7 c 35,-66 43,-114 24,-143 -8,-12 -18,-19 -32,-19 -13,-1 -31,3 -55,10 -78,25 -137,33 -178,25 -41,-9 -75,-33 -101,-73 -30,-47 -36,-96 -17,-150 18,-54 58,-100 119,-141 42,-26 85,-47 130,-62 z"
       id="path20584"
       inkscape:connector-curvature="0"
       style="fill:#ffffff;fill-rule:nonzero" /></g></svg>