<?xml version="1.0" encoding="UTF-8" standalone="no"?>
<!-- Creator: CorelDRAW X7 -->

<svg
   xmlns:dc="http://purl.org/dc/elements/1.1/"
   xmlns:cc="http://creativecommons.org/ns#"
   xmlns:rdf="http://www.w3.org/1999/02/22-rdf-syntax-ns#"
   xmlns:svg="http://www.w3.org/2000/svg"
   xmlns="http://www.w3.org/2000/svg"
   xmlns:sodipodi="http://sodipodi.sourceforge.net/DTD/sodipodi-0.dtd"
   xmlns:inkscape="http://www.inkscape.org/namespaces/inkscape"
   xml:space="preserve"
   width="7.8740005in"
   height="7.8740005in"
   version="1.1"
   style="clip-rule:evenodd;fill-rule:evenodd;image-rendering:optimizeQuality;shape-rendering:geometricPrecision;text-rendering:geometricPrecision"
   viewBox="0 0 7874.0005 7874.0005"
   id="svg4852"
   inkscape:version="0.91 r13725"
   sodipodi:docname="Yu Jing - Bao Troops - [A6] [Vyo].svg"><metadata
     id="metadata4891"><rdf:RDF><cc:Work
         rdf:about=""><dc:format>image/svg+xml</dc:format><dc:type
           rdf:resource="http://purl.org/dc/dcmitype/StillImage" /></cc:Work></rdf:RDF></metadata><sodipodi:namedview
     pagecolor="#ffffff"
     bordercolor="#666666"
     borderopacity="1"
     objecttolerance="10"
     gridtolerance="10"
     guidetolerance="10"
     inkscape:pageopacity="0"
     inkscape:pageshadow="2"
     inkscape:window-width="640"
     inkscape:window-height="480"
     id="namedview4889"
     showgrid="false"
     inkscape:zoom="0.23838384"
     inkscape:cx="736.83001"
     inkscape:cy="849.33005"
     inkscape:window-x="0"
     inkscape:window-y="0"
     inkscape:window-maximized="0"
     inkscape:current-layer="svg4852" /><defs
     id="defs4854"><style
       type="text/css"
       id="style4856"><![CDATA[
    .fil3 {fill:none}
    .fil1 {fill:black}
    .fil5 {fill:#E2001A}
    .fil0 {fill:#E32527}
    .fil4 {fill:white}
    .fil2 {fill:white;fill-rule:nonzero}
   ]]></style></defs><g
     id="Layer_x0020_1"
     transform="translate(3937,-7063)"><metadata
       id="CorelCorpID_0Corel-Layer" /><circle
       class="fil0"
       cy="11000"
       r="3937"
       id="circle4860"
       cx="0"
       style="fill:#e32527" /><circle
       class="fil1"
       cy="11000"
       r="3780"
       id="circle4862"
       cx="0"
       style="fill:#000000" /><circle
       class="fil0"
       cy="11000"
       r="3661"
       id="circle4864"
       cx="0"
       style="fill:#e32527" /><circle
       class="fil1"
       cy="11000"
       r="2520"
       id="circle4866"
       cx="0"
       style="fill:#000000" /><circle
       class="fil0"
       cy="11000"
       r="2402"
       id="circle4868"
       cx="0"
       style="fill:#e32527" /><circle
       class="fil1"
       cy="11000"
       r="2323"
       id="circle4870"
       cx="0"
       style="fill:#000000" /><path
       class="fil2"
       d="m -581,7730 c -23,39 -55,81 -96,126 58,68 95,160 114,276 7,47 8,81 4,103 -5,21 -14,39 -30,52 -15,13 -43,23 -87,30 l -35,6 -38,-67 c 53,-7 87,-13 102,-17 15,-3 22,-19 21,-47 -1,-27 -5,-57 -12,-87 -37,54 -97,109 -179,165 l -50,-48 c 95,-61 165,-125 210,-192 -2,-13 -8,-28 -16,-44 -35,49 -89,100 -164,152 l -46,-52 c 83,-51 142,-104 179,-157 -5,-8 -11,-17 -20,-28 -36,34 -82,68 -139,103 l -46,-53 c 68,-38 131,-87 188,-147 -16,-27 -37,-53 -62,-78 -39,20 -77,38 -116,53 l -43,-57 c 115,-42 205,-92 269,-147 l 54,41 c -28,26 -64,52 -107,76 17,18 34,37 49,59 13,-15 25,-33 36,-54 l 60,33 z m 333,-86 c 25,157 42,282 51,376 10,94 12,149 7,166 -5,16 -15,31 -29,44 -14,14 -57,26 -127,38 l -43,6 -40,-71 c 34,-3 63,-7 85,-10 41,-6 64,-12 70,-17 6,-5 10,-12 12,-18 3,-7 2,-35 -3,-85 -4,-50 -10,-105 -18,-167 -9,-61 -17,-121 -26,-179 l -167,27 c -17,60 -37,114 -62,163 l -61,-42 c 46,-96 74,-204 84,-323 l 72,2 c -4,48 -9,89 -16,124 l 211,-34 z m -536,190 -51,40 c -19,-24 -37,-44 -55,-60 l 52,-39 c 18,13 36,33 54,59 z m 480,197 -53,51 c -35,-51 -82,-104 -139,-160 l 51,-50 c 52,47 99,100 141,159 z m 1188,99 -697,-109 11,-70 103,16 62,-391 c 202,29 372,41 512,35 l 26,73 c -135,6 -294,-3 -477,-27 l -13,86 490,77 -11,70 -157,-24 -26,165 188,29 -11,70 z m -250,-111 26,-165 -260,-41 -26,165 260,41 z m -172,116 c -79,45 -169,83 -271,113 l -35,-67 c 98,-26 183,-60 255,-101 l 51,55 z m 403,153 -50,57 C 756,8282 678,8222 579,8167 l 57,-50 c 82,46 158,103 229,171 z"
       id="path4872"
       inkscape:connector-curvature="0"
       style="fill:#ffffff;fill-rule:nonzero" /><circle
       class="fil3"
       cy="11000"
       r="3898"
       id="circle4874"
       cx="0"
       style="fill:none" /><circle
       class="fil3"
       cy="11000"
       r="3898"
       id="circle4876"
       cx="0"
       style="fill:none" /><path
       class="fil4"
       d="m -2500,9215 c 75,-32 173,-103 282,-292 109,-188 122,-309 112,-390 -76,32 -174,103 -282,292 -109,188 -122,309 -112,390 z m -416,2983 c 12,-98 -3,-242 -134,-468 -130,-226 -248,-312 -338,-350 -12,97 3,242 134,468 130,226 248,311 338,350 z m 139,-974 c 44,69 83,184 64,400 -19,217 -78,323 -132,384 -44,-70 -83,-184 -64,-401 19,-216 77,-322 132,-383 z m -349,173 c 37,-91 60,-235 -8,-487 -67,-252 -159,-365 -236,-425 -37,91 -60,234 8,487 67,252 159,365 236,425 z m 387,-905 c 23,79 32,200 -43,404 -74,204 -158,291 -227,336 -23,-78 -32,-199 42,-403 75,-205 159,-292 228,-337 z m -382,78 c 59,-79 118,-212 118,-473 0,-261 -59,-393 -118,-472 -59,79 -119,211 -119,472 0,261 60,394 119,473 z m 607,-775 c 3,82 -20,201 -145,379 -125,179 -229,241 -307,266 -2,-82 21,-200 146,-378 124,-179 228,-241 306,-267 z m -389,-24 c 77,-60 169,-173 236,-425 68,-252 45,-396 9,-487 -78,60 -169,173 -237,425 -67,252 -45,396 -8,487 z m 787,-590 c -18,80 -72,188 -238,328 -167,140 -283,173 -365,178 19,-80 72,-189 238,-329 167,-139 283,-173 365,-177 z"
       id="path4878"
       inkscape:connector-curvature="0"
       style="fill:#ffffff" /><path
       class="fil4"
       d="m 2500,9215 c -75,-32 -173,-103 -282,-292 -109,-188 -122,-309 -112,-390 76,32 174,103 282,292 109,188 122,309 112,390 z m 416,2983 c -12,-98 3,-242 134,-468 130,-226 248,-312 338,-350 12,97 -3,242 -134,468 -130,226 -248,311 -338,350 z m -139,-974 c -44,69 -83,184 -64,400 19,217 78,323 132,384 44,-70 83,-184 64,-401 -19,-216 -78,-322 -132,-383 z m 349,173 c -37,-91 -60,-235 8,-487 67,-252 159,-365 236,-425 37,91 60,234 -8,487 -67,252 -159,365 -236,425 z m -387,-905 c -23,79 -32,200 43,404 74,204 158,291 227,336 23,-78 32,-199 -43,-403 -74,-205 -158,-292 -227,-337 z m 382,78 c -59,-79 -118,-212 -118,-473 0,-261 59,-393 118,-472 59,79 119,211 119,472 0,261 -60,394 -119,473 z m -607,-775 c -3,82 20,201 145,379 125,179 229,241 307,266 2,-82 -21,-200 -146,-378 -124,-179 -228,-241 -306,-267 z m 389,-24 c -77,-60 -169,-173 -236,-425 -68,-252 -45,-396 -9,-487 78,60 169,173 237,425 67,252 45,396 8,487 z m -787,-590 c 18,80 72,188 238,328 167,140 283,173 365,178 -19,-80 -72,-189 -238,-329 -167,-139 -283,-173 -365,-177 z"
       id="path4880"
       inkscape:connector-curvature="0"
       style="fill:#ffffff" /><g
       id="_835984400"><path
         class="fil5"
         d="m 119,11000 c 0,-723 429,-1346 1047,-1627 180,129 337,287 466,467 -526,124 -917,596 -917,1160 l 0,700 c -156,159 -364,266 -596,294 l 0,-994 z m -238,0 c 0,-723 -429,-1346 -1047,-1627 -180,129 -337,287 -466,467 526,124 917,596 917,1160 l 0,700 c 156,159 364,266 596,294 l 0,-994 z"
         id="path4883"
         inkscape:connector-curvature="0"
         style="fill:#e2001a" /><path
         class="fil4"
         d="m 0,9189 c 311,0 605,79 860,217 -188,124 -354,281 -488,462 -117,-39 -242,-59 -372,-59 -130,0 -255,20 -372,59 -134,-181 -300,-338 -488,-462 255,-138 549,-217 860,-217 z m 1512,814 c 189,286 299,628 299,997 0,960 -747,1746 -1692,1807 l 0,-621 c 602,-60 1072,-568 1072,-1186 0,-223 -61,-431 -167,-609 120,-174 289,-310 488,-388 z m -1631,2804 c -945,-61 -1692,-847 -1692,-1807 0,-369 110,-711 299,-997 199,78 368,214 488,388 -106,178 -167,386 -167,609 0,618 470,1126 1072,1186 l 0,621 z"
         id="path4885"
         inkscape:connector-curvature="0"
         style="fill:#ffffff" /></g><path
       class="fil2"
       d="m -2804,12963 -47,-66 422,-297 47,66 -422,297 z m 382,471 -49,-57 245,-211 c 12,-10 25,-20 40,-31 -12,5 -30,12 -54,20 l -281,69 -11,-12 111,-269 c 8,-18 17,-35 27,-50 -21,19 -33,31 -38,35 l -245,210 -42,-49 391,-337 42,50 -129,327 341,-81 43,49 -391,337 z m 594,116 c -44,50 -86,57 -125,23 l -164,-144 -133,151 -60,-53 340,-388 225,197 c 39,35 37,77 -7,127 l -76,87 z m -39,-75 36,-41 c 18,-21 18,-39 0,-55 l -137,-120 -90,103 136,120 c 19,16 37,14 55,-7 z m 232,541 -304,-192 276,-436 301,190 -47,75 -233,-148 -61,98 136,86 -47,74 -136,-86 -69,108 236,149 -52,82 z m 488,225 -106,-49 -46,-235 -70,-32 -81,177 -73,-33 215,-469 271,124 c 48,22 58,63 30,123 l -50,110 c -20,43 -42,66 -68,67 -15,2 -44,-8 -87,-27 l 65,244 z m 31,-343 25,-56 c 12,-25 6,-42 -16,-53 l -165,-75 -60,131 165,75 c 22,11 39,3 51,-22 z m 148,388 -78,-21 138,-498 78,22 -138,497 z m 548,115 -89,-15 -23,-118 -217,-38 -59,105 -80,-14 281,-475 77,13 110,542 z m -129,-231 -39,-219 -112,193 151,26 z m 556,264 -341,-26 39,-514 81,6 -32,418 260,19 -7,97 z m 686,-196 c 6,42 5,72 -2,89 -9,24 -32,39 -68,44 l -214,28 c -38,5 -65,-3 -79,-26 -10,-16 -19,-48 -25,-97 l 68,-31 8,60 245,-33 -16,-117 -216,29 c -35,5 -61,-2 -76,-22 -11,-14 -20,-43 -26,-87 l -7,-57 c -6,-43 -6,-73 1,-91 10,-22 33,-36 68,-41 l 196,-26 c 37,-5 62,3 77,23 11,14 20,44 26,88 l -68,35 -8,-59 -226,30 15,110 215,-29 c 37,-4 62,4 77,24 11,15 20,44 25,86 l 10,70 z m 499,-18 -345,100 -143,-496 342,-99 24,85 -264,76 32,111 154,-45 25,85 -155,44 36,123 268,-77 26,93 z m 490,-221 -106,48 -208,-120 -70,31 80,178 -73,33 -212,-470 272,-123 c 48,-22 85,-2 113,59 l 50,110 c 19,43 21,75 6,95 -9,12 -35,28 -78,47 l 226,112 z m -238,-248 -25,-57 c -11,-25 -28,-32 -51,-22 l -165,75 59,131 166,-75 c 22,-10 28,-27 16,-52 z m 348,-447 119,538 -47,30 -449,-324 78,-50 321,236 -90,-386 68,-44 z m 393,335 -64,49 -316,-408 64,-50 316,409 z m 289,-449 c 32,30 51,54 56,71 7,24 -2,49 -27,75 l -143,151 c -25,26 -49,37 -73,31 -18,-4 -43,-22 -75,-52 l -197,-187 c -32,-30 -51,-54 -56,-72 -7,-24 2,-49 27,-75 l 143,-151 c 24,-26 49,-36 73,-30 18,4 43,21 75,52 l 35,33 -42,72 -71,-67 -150,159 237,224 150,-158 -80,-77 74,-41 44,42 z m 394,-313 -208,293 -421,-298 206,-291 72,51 -159,225 94,66 93,-131 71,51 -93,131 105,74 161,-228 79,57 z"
       id="path4887"
       inkscape:connector-curvature="0"
       style="fill:#ffffff;fill-rule:nonzero" /></g></svg>