<?xml version="1.0" encoding="UTF-8" standalone="no"?>
<!-- Creator: CorelDRAW X7 -->

<svg
   xmlns:dc="http://purl.org/dc/elements/1.1/"
   xmlns:cc="http://creativecommons.org/ns#"
   xmlns:rdf="http://www.w3.org/1999/02/22-rdf-syntax-ns#"
   xmlns:svg="http://www.w3.org/2000/svg"
   xmlns="http://www.w3.org/2000/svg"
   xmlns:sodipodi="http://sodipodi.sourceforge.net/DTD/sodipodi-0.dtd"
   xmlns:inkscape="http://www.inkscape.org/namespaces/inkscape"
   xml:space="preserve"
   width="7.8740005in"
   height="7.8740005in"
   version="1.1"
   style="clip-rule:evenodd;fill-rule:evenodd;image-rendering:optimizeQuality;shape-rendering:geometricPrecision;text-rendering:geometricPrecision"
   viewBox="0 0 7874.0005 7874.0005"
   id="svg15518"
   inkscape:version="0.91 r13725"
   sodipodi:docname="image_6030.svg"><metadata
     id="metadata15538"><rdf:RDF><cc:Work
         rdf:about=""><dc:format>image/svg+xml</dc:format><dc:type
           rdf:resource="http://purl.org/dc/dcmitype/StillImage" /></cc:Work></rdf:RDF></metadata><sodipodi:namedview
     pagecolor="#ffffff"
     bordercolor="#666666"
     borderopacity="1"
     objecttolerance="10"
     gridtolerance="10"
     guidetolerance="10"
     inkscape:pageopacity="0"
     inkscape:pageshadow="2"
     inkscape:window-width="640"
     inkscape:window-height="480"
     id="namedview15536"
     showgrid="false"
     inkscape:zoom="0.23838384"
     inkscape:cx="736.83001"
     inkscape:cy="849.33005"
     inkscape:window-x="0"
     inkscape:window-y="0"
     inkscape:window-maximized="0"
     inkscape:current-layer="svg15518" /><defs
     id="defs15520"><style
       type="text/css"
       id="style15522"><![CDATA[
    .fil1 {fill:#403273}
    .fil0 {fill:#FFF700}
   ]]></style></defs><g
     id="Layer_x0020_1"
     transform="translate(3937,-7063)"><metadata
       id="CorelCorpID_0Corel-Layer" /><circle
       class="fil0"
       cy="11000"
       r="3937"
       id="circle15526"
       cx="0"
       style="fill:#fff700" /><circle
       class="fil1"
       cy="11000"
       r="3780"
       id="circle15528"
       cx="0"
       style="fill:#403273" /><path
       class="fil0"
       d="m 1038,11430 c -84,-5 -210,97 -210,349 0,419 182,1118 378,1565 -350,0 -840,-209 -965,-559 -153,-433 -153,-866 -153,-1286 0,-195 335,-363 531,-363 l 2319,0 439,220 c -36,81 -80,155 -117,199 l -2222,-125 z"
       id="path15530"
       inkscape:connector-curvature="0"
       style="fill:#fff700" /><path
       class="fil0"
       d="m -1038,11430 c 84,-5 210,97 210,349 0,419 -182,1118 -378,1565 350,0 840,-209 965,-559 153,-433 153,-866 153,-1286 0,-195 -335,-363 -531,-363 l -2319,0 -439,220 c 36,81 80,155 117,199 l 2222,-125 z"
       id="path15532"
       inkscape:connector-curvature="0"
       style="fill:#fff700" /><polygon
       class="fil0"
       points="0,8047 -610,10130 0,11157 610,10130 "
       id="polygon15534"
       style="fill:#fff700" /></g></svg>