<?xml version="1.0" encoding="UTF-8" standalone="no"?>
<!-- Creator: CorelDRAW X7 -->

<svg
   xmlns:dc="http://purl.org/dc/elements/1.1/"
   xmlns:cc="http://creativecommons.org/ns#"
   xmlns:rdf="http://www.w3.org/1999/02/22-rdf-syntax-ns#"
   xmlns:svg="http://www.w3.org/2000/svg"
   xmlns="http://www.w3.org/2000/svg"
   xmlns:sodipodi="http://sodipodi.sourceforge.net/DTD/sodipodi-0.dtd"
   xmlns:inkscape="http://www.inkscape.org/namespaces/inkscape"
   xml:space="preserve"
   width="7.8740005in"
   height="7.8740005in"
   version="1.1"
   style="clip-rule:evenodd;fill-rule:evenodd;image-rendering:optimizeQuality;shape-rendering:geometricPrecision;text-rendering:geometricPrecision"
   viewBox="0 0 7874.0005 7874.0005"
   id="svg5011"
   inkscape:version="0.91 r13725"
   sodipodi:docname="image_3046.svg"><metadata
     id="metadata5037"><rdf:RDF><cc:Work
         rdf:about=""><dc:format>image/svg+xml</dc:format><dc:type
           rdf:resource="http://purl.org/dc/dcmitype/StillImage" /></cc:Work></rdf:RDF></metadata><sodipodi:namedview
     pagecolor="#ffffff"
     bordercolor="#666666"
     borderopacity="1"
     objecttolerance="10"
     gridtolerance="10"
     guidetolerance="10"
     inkscape:pageopacity="0"
     inkscape:pageshadow="2"
     inkscape:window-width="640"
     inkscape:window-height="480"
     id="namedview5035"
     showgrid="false"
     inkscape:zoom="0.23838384"
     inkscape:cx="736.83001"
     inkscape:cy="849.33005"
     inkscape:window-x="0"
     inkscape:window-y="0"
     inkscape:window-maximized="0"
     inkscape:current-layer="svg5011" /><defs
     id="defs5013"><style
       type="text/css"
       id="style5015"><![CDATA[
    .fil0 {fill:#CE0018}
    .fil1 {fill:#FFD600}
    .fil3 {fill:white}
    .fil2 {fill:white;fill-rule:nonzero}
   ]]></style></defs><g
     id="Layer_x0020_1"
     transform="translate(3937,-7063)"><metadata
       id="CorelCorpID_0Corel-Layer" /><circle
       class="fil0"
       cy="11000"
       r="3937"
       id="circle5019"
       cx="0"
       style="fill:#ce0018" /><circle
       class="fil1"
       cy="11000"
       r="3819"
       id="circle5021"
       cx="0"
       style="fill:#ffd600" /><circle
       class="fil0"
       cy="11000"
       r="3583"
       id="circle5023"
       cx="0"
       style="fill:#ce0018" /><path
       class="fil1"
       d="m 0,8235 c 1522,0 2756,1234 2756,2756 0,731 -285,1395 -749,1888 l -4014,0 c -464,-493 -749,-1157 -749,-1888 0,-1522 1234,-2756 2756,-2756 z m -1955,4526 3910,0 c 441,-486 683,-1113 683,-1770 C 2638,9534 1457,8353 0,8353 c -1457,0 -2638,1181 -2638,2638 0,657 242,1284 683,1770 z"
       id="path5025"
       inkscape:connector-curvature="0"
       style="fill:#ffd600" /><path
       class="fil2"
       d="m -1474,13629 -251,0 0,-25 c 12,-1 25,-3 41,-6 16,-4 24,-8 24,-13 0,-2 0,-4 0,-6 0,-2 -1,-5 -3,-9 l -39,-96 -160,0 c -4,9 -8,20 -13,32 -4,12 -8,22 -11,32 -4,12 -7,21 -7,26 -1,6 -2,9 -2,12 0,7 6,13 16,17 11,5 28,9 53,11 l 0,25 -189,0 0,-25 c 7,0 15,-1 24,-3 9,-2 16,-5 21,-8 9,-5 17,-12 23,-19 6,-8 11,-17 15,-27 25,-61 51,-122 76,-184 25,-61 53,-128 84,-202 l 65,0 c 42,104 75,187 99,248 24,61 45,111 62,151 3,7 6,13 11,18 4,5 10,10 18,15 6,4 13,6 21,8 8,2 16,3 22,3 l 0,25 z m -241,-186 -68,-169 -66,169 134,0 z m 721,-160 c 0,26 -5,49 -16,67 -11,19 -26,34 -45,46 -19,12 -42,21 -67,27 -25,5 -53,8 -84,8 l -38,0 0,130 c 0,7 1,14 4,20 3,6 9,10 17,14 5,1 12,3 22,5 10,2 18,3 25,4 l 0,25 -251,0 0,-25 c 6,-1 14,-1 25,-3 10,-1 17,-2 22,-4 8,-4 14,-8 16,-13 3,-5 5,-12 5,-21 l 0,-326 c 0,-7 -2,-14 -4,-19 -3,-6 -9,-10 -17,-14 -6,-3 -15,-5 -25,-7 -10,-2 -17,-4 -22,-4 l 0,-26 255,0 c 59,0 104,10 134,29 29,19 44,48 44,87 z m -127,17 c 0,-35 -7,-61 -21,-78 -14,-17 -39,-25 -75,-25 l -27,0 0,203 14,0 c 35,0 63,-8 81,-25 19,-16 28,-41 28,-75 z m 773,329 -248,0 0,-25 c 6,0 14,-1 24,-2 11,-1 18,-2 22,-4 8,-3 13,-8 16,-13 3,-5 5,-12 5,-20 l 0,-279 -207,343 -182,0 0,-25 c 6,0 14,-1 24,-2 11,-1 19,-3 23,-4 8,-3 14,-8 17,-13 3,-6 4,-13 4,-21 l 0,-327 c 0,-7 -1,-14 -4,-19 -2,-5 -8,-10 -17,-13 -6,-3 -14,-6 -24,-8 -11,-2 -18,-4 -23,-4 l 0,-26 248,0 0,26 c -7,0 -15,1 -24,3 -9,2 -17,3 -22,5 -8,3 -14,7 -16,13 -3,7 -4,13 -4,20 l 0,277 207,-344 181,0 0,26 c -7,0 -14,1 -23,3 -9,1 -17,3 -24,5 -8,3 -14,7 -16,13 -3,6 -5,13 -5,20 l 0,327 c 0,8 2,15 5,20 2,6 8,10 16,14 5,2 13,4 23,6 10,2 18,3 24,3 l 0,25 z m 588,0 -251,0 0,-25 c 12,-1 26,-3 42,-6 16,-4 24,-8 24,-13 0,-2 -1,-4 -1,-6 0,-2 -1,-5 -3,-9 l -39,-96 -160,0 c -4,9 -8,20 -12,32 -5,12 -9,22 -12,32 -4,12 -7,21 -7,26 -1,6 -1,9 -1,12 0,7 5,13 15,17 11,5 29,9 53,11 l 0,25 -189,0 0,-25 c 7,0 15,-1 24,-3 9,-2 16,-5 21,-8 9,-5 17,-12 23,-19 6,-8 11,-17 15,-27 25,-61 51,-122 76,-184 25,-61 53,-128 84,-202 l 65,0 c 42,104 76,187 100,248 24,61 44,111 61,151 3,7 6,13 11,18 4,5 10,10 18,15 6,4 13,6 21,8 8,2 16,3 22,3 l 0,25 z m -241,-186 -68,-169 -66,169 134,0 z m 594,124 0,-368 -120,0 c -2,66 -13,135 -33,207 -20,72 -47,136 -81,191 l 207,0 c 9,0 16,-3 20,-7 5,-5 7,-13 7,-23 z m -157,61 c -10,0 -20,0 -29,1 -9,0 -18,1 -27,3 -17,3 -35,17 -54,40 -19,24 -32,48 -39,73 l -24,0 0,-148 46,0 c 29,-44 56,-101 80,-169 24,-69 36,-128 36,-177 0,-13 -2,-23 -4,-30 -3,-7 -8,-12 -16,-17 -6,-3 -14,-6 -26,-7 -12,-2 -21,-4 -27,-4 l 0,-26 425,0 0,26 c -7,0 -15,1 -24,3 -9,1 -16,3 -23,5 -9,3 -14,7 -17,13 -3,6 -4,13 -4,20 l 0,331 c 0,11 3,20 11,25 7,6 17,9 31,9 l 30,0 0,146 -24,0 c -7,-25 -20,-49 -40,-72 -19,-24 -37,-38 -53,-41 -6,-2 -15,-3 -27,-3 -11,-1 -21,-1 -29,-1 l -172,0 z m 992,1 -250,0 0,-25 c 5,0 13,-1 23,-2 11,-1 18,-2 22,-4 8,-3 14,-7 17,-13 3,-5 4,-12 4,-20 l 0,-160 -198,0 0,156 c 0,8 2,14 5,20 3,6 9,11 16,14 4,2 11,4 21,6 10,1 19,3 25,3 l 0,25 -250,0 0,-25 c 5,0 13,-1 24,-2 10,-1 18,-3 23,-4 8,-3 13,-8 16,-13 3,-6 5,-13 5,-21 l 0,-327 c 0,-7 -1,-14 -4,-19 -3,-5 -9,-10 -17,-13 -6,-3 -15,-6 -25,-8 -10,-2 -18,-4 -22,-4 l 0,-26 250,0 0,26 c -7,0 -15,1 -24,3 -10,2 -17,3 -22,5 -8,3 -14,7 -17,13 -2,7 -4,13 -4,20 l 0,138 198,0 0,-135 c 0,-7 -1,-14 -4,-19 -3,-5 -9,-10 -17,-14 -6,-2 -13,-5 -23,-7 -9,-2 -17,-4 -22,-4 l 0,-26 250,0 0,26 c -7,0 -15,1 -24,3 -9,1 -17,3 -24,5 -8,3 -13,7 -16,13 -3,6 -4,13 -4,20 l 0,327 c 0,8 1,15 4,20 3,6 8,10 16,14 6,2 13,4 23,6 10,2 18,3 25,3 l 0,25 z m 587,0 -251,0 0,-25 c 12,-1 26,-3 42,-6 16,-4 24,-8 24,-13 0,-2 0,-4 -1,-6 0,-2 -1,-5 -2,-9 l -40,-96 -160,0 c -4,9 -8,20 -12,32 -5,12 -9,22 -12,32 -4,12 -6,21 -7,26 -1,6 -1,9 -1,12 0,7 5,13 16,17 10,5 28,9 52,11 l 0,25 -189,0 0,-25 c 7,0 15,-1 24,-3 9,-2 16,-5 22,-8 8,-5 16,-12 22,-19 6,-8 11,-17 16,-27 25,-61 50,-122 75,-184 25,-61 53,-128 84,-202 l 65,0 c 42,104 76,187 100,248 24,61 44,111 61,151 3,7 7,13 11,18 4,5 10,10 18,15 6,4 14,6 22,8 8,2 15,3 21,3 l 0,25 z m -241,-186 -68,-169 -66,169 134,0 z"
       id="path5027"
       inkscape:connector-curvature="0"
       style="fill:#ffffff;fill-rule:nonzero" /><path
       class="fil2"
       d="m -2956,11330 -364,53 17,119 c 66,-8 136,-6 210,3 74,9 141,27 200,53 l -29,-205 c -2,-9 -5,-15 -10,-19 -6,-4 -13,-5 -24,-4 z m 83,148 c 2,9 3,19 5,28 2,9 4,18 7,26 6,17 22,33 48,48 26,15 52,24 77,28 l 4,24 -147,21 -6,-45 c -48,-23 -108,-41 -179,-55 -72,-14 -132,-18 -181,-11 -12,2 -22,5 -28,8 -7,4 -11,10 -15,18 -2,6 -4,15 -4,27 0,12 0,21 0,28 l -25,3 -60,-420 25,-4 c 1,7 3,15 6,23 3,9 5,16 9,23 4,7 9,12 15,14 7,2 13,3 20,2 l 328,-48 c 11,-1 19,-6 24,-14 4,-8 5,-19 3,-32 l -4,-30 144,-21 4,24 c -23,10 -45,27 -66,49 -21,23 -32,42 -33,59 0,6 0,15 1,27 1,12 3,21 4,29 l 24,171 z m -14,-919 -18,248 -26,-2 c 0,-6 0,-14 0,-24 0,-11 -1,-18 -2,-22 -3,-8 -7,-14 -12,-18 -5,-3 -12,-5 -20,-6 l -278,-21 327,233 -14,181 -25,-2 c 0,-6 0,-14 0,-24 -1,-11 -2,-19 -3,-24 -2,-8 -6,-13 -11,-17 -6,-3 -13,-5 -20,-6 l -326,-25 c -8,0 -15,1 -20,3 -5,2 -10,8 -15,16 -3,6 -6,14 -9,24 -3,10 -5,17 -6,22 l -25,-2 18,-247 26,2 c 0,7 0,15 1,24 1,10 2,17 3,22 2,9 7,14 12,18 7,3 13,5 20,5 l 276,21 -327,-233 14,-180 25,1 c 0,7 0,15 1,24 1,9 2,17 3,24 3,8 7,14 12,18 6,3 13,5 20,5 l 326,25 c 8,1 15,0 21,-3 5,-2 10,-7 14,-15 3,-5 6,-13 8,-22 2,-10 4,-18 5,-24 l 25,1 z m 117,-520 -54,242 -25,-6 c 1,-5 2,-13 3,-22 1,-10 2,-17 1,-21 -2,-9 -5,-15 -9,-19 -5,-4 -11,-7 -19,-9 l -354,-80 -42,185 351,79 c 7,1 14,1 20,-1 7,-1 13,-6 17,-12 3,-4 6,-10 10,-19 4,-9 7,-16 9,-22 l 25,6 -55,242 -25,-6 c 1,-5 3,-13 4,-24 1,-10 1,-18 0,-23 -1,-9 -4,-15 -9,-19 -4,-4 -11,-7 -18,-9 l -319,-72 c -8,-1 -14,-1 -20,0 -6,2 -11,6 -17,13 -4,6 -9,14 -13,23 -5,10 -7,17 -9,21 l -25,-6 122,-542 25,5 c -1,7 -2,15 -3,24 0,9 0,17 1,24 1,9 4,15 9,19 5,4 11,7 18,9 l 320,72 c 7,1 14,1 20,0 6,-2 12,-6 17,-14 3,-4 7,-11 11,-20 4,-10 6,-17 8,-23 l 25,5 z m -328,-294 c -5,4 -11,12 -18,22 -7,10 -12,16 -14,19 l -23,-11 175,-375 23,11 c -3,6 -5,14 -7,22 -3,9 -4,17 -6,24 0,9 1,15 6,21 4,5 9,9 16,12 l 297,138 c 7,3 13,5 19,4 7,0 13,-3 20,-9 4,-4 9,-10 15,-18 5,-8 10,-15 13,-21 l 23,11 -106,228 -23,-11 c 2,-5 5,-13 9,-23 3,-10 5,-17 5,-22 1,-9 -1,-15 -4,-20 -4,-5 -9,-10 -17,-13 l -332,-154 -47,100 c 70,35 127,71 173,106 45,35 80,68 104,99 26,33 41,62 47,87 6,26 5,47 -3,64 -6,13 -13,23 -21,30 -7,6 -14,10 -22,12 -8,2 -15,3 -23,1 -8,-2 -15,-4 -20,-6 -19,-9 -31,-22 -35,-38 -5,-16 -4,-32 4,-47 4,-11 13,-20 25,-26 11,-7 25,-13 41,-17 -8,-13 -20,-28 -35,-46 -16,-17 -33,-35 -53,-52 -21,-19 -44,-36 -67,-52 -23,-16 -49,-31 -79,-45 -13,-6 -25,-10 -34,-12 -10,-1 -18,1 -26,7 z m 413,-711 c 30,-8 61,-10 93,-5 32,5 64,17 96,38 28,18 52,40 72,66 19,26 32,54 39,83 7,31 8,63 2,95 -5,33 -19,66 -42,101 -18,29 -40,52 -65,71 -26,20 -54,33 -84,41 -29,8 -60,9 -92,4 -32,-5 -63,-17 -94,-36 -31,-21 -57,-45 -75,-72 -19,-28 -32,-57 -38,-88 -6,-30 -6,-61 1,-93 7,-32 20,-63 39,-92 18,-29 40,-53 66,-73 26,-19 54,-33 82,-40 z m 234,249 c -12,-19 -27,-37 -46,-54 -18,-17 -41,-35 -67,-52 -23,-14 -46,-27 -69,-37 -24,-11 -46,-17 -68,-20 -21,-3 -41,-2 -60,5 -18,6 -34,19 -46,39 -21,33 -22,68 -1,105 20,38 59,75 116,112 24,15 49,28 73,38 24,10 46,17 68,19 21,2 40,0 58,-7 17,-7 31,-19 43,-38 12,-18 17,-36 16,-55 -1,-19 -6,-37 -17,-55 z m 573,-537 -171,182 -19,-17 c 5,-6 10,-13 17,-22 6,-9 10,-15 11,-19 3,-8 4,-15 2,-22 -2,-6 -6,-12 -12,-18 l -252,-237 188,394 -28,30 c -7,-4 -21,-10 -41,-19 -21,-9 -38,-16 -50,-21 l -312,-133 205,193 c 20,18 36,31 48,38 13,7 25,10 35,8 7,-1 17,-5 29,-12 13,-7 21,-13 26,-17 l 18,18 -136,145 -19,-17 c 3,-5 8,-12 15,-23 7,-10 11,-20 12,-30 2,-10 -2,-21 -10,-34 -9,-12 -23,-27 -42,-45 l -167,-157 c -10,-9 -20,-16 -29,-20 -9,-4 -18,-5 -27,-4 -11,2 -20,6 -28,11 -7,5 -14,11 -21,18 l -19,-18 147,-156 299,126 -114,-239 c -5,-8 -10,-18 -18,-29 -7,-11 -12,-18 -14,-21 l 140,-149 18,18 c -4,5 -8,11 -13,17 -4,7 -8,13 -11,20 -4,8 -4,15 -2,21 3,7 7,12 12,17 l 239,224 c 5,6 11,9 17,11 6,2 13,1 21,-3 5,-2 11,-6 19,-12 8,-6 14,-11 19,-14 l 18,17 z m 445,-296 -207,143 -14,-21 c 9,-7 19,-17 30,-29 12,-12 16,-20 13,-24 -1,-1 -2,-3 -4,-4 -1,-2 -4,-4 -7,-6 l -87,-57 -132,91 c 2,10 5,21 8,33 3,12 6,23 9,33 3,12 6,21 9,26 2,5 4,8 5,10 4,6 12,8 23,6 12,-2 28,-9 50,-22 l 14,21 -155,108 -15,-21 c 6,-4 12,-10 18,-17 7,-6 11,-12 13,-18 5,-9 7,-19 8,-29 1,-9 0,-20 -3,-31 -14,-64 -28,-129 -42,-193 -14,-65 -29,-137 -46,-215 l 53,-37 c 95,62 169,111 224,148 54,36 99,66 136,89 6,4 12,7 19,9 7,1 15,2 24,1 7,0 14,-2 22,-5 7,-3 14,-7 19,-10 l 15,21 z m -305,-16 -151,-101 41,177 110,-76 z m 474,-439 -22,13 c -16,-15 -35,-28 -59,-40 -24,-13 -42,-17 -54,-12 -6,2 -14,6 -23,10 -9,4 -17,8 -24,12 l -13,7 174,318 c 4,6 8,12 14,16 5,4 12,5 21,4 5,0 13,-2 23,-6 10,-3 19,-6 26,-9 l 12,23 -225,123 -12,-22 c 5,-4 12,-9 21,-15 10,-7 16,-12 19,-15 5,-8 8,-14 8,-21 -1,-6 -3,-13 -7,-20 l -175,-320 -14,7 c -6,3 -14,8 -22,13 -9,6 -16,11 -22,15 -10,7 -16,25 -18,51 -3,27 -2,51 2,71 l -22,12 -64,-115 392,-215 64,115 z m 668,140 -238,72 -7,-24 c 5,-2 13,-5 22,-9 10,-4 17,-8 20,-11 6,-5 11,-11 12,-17 1,-6 1,-13 -2,-21 l -85,-283 -94,406 -174,52 -7,-24 c 5,-2 13,-5 22,-9 10,-4 17,-8 21,-11 7,-5 11,-11 12,-17 1,-6 1,-13 -2,-21 l -94,-313 c -3,-7 -6,-13 -10,-17 -4,-4 -11,-7 -20,-8 -7,-1 -15,-1 -26,0 -10,0 -18,1 -22,2 l -8,-24 237,-72 8,24 c -7,3 -14,6 -22,11 -9,4 -15,8 -20,10 -7,6 -11,12 -12,18 0,7 0,14 2,20 l 79,266 94,-406 180,-36 7,24 c -6,2 -14,6 -22,9 -7,4 -14,8 -21,12 -7,6 -11,11 -12,18 -1,7 0,13 2,20 l 95,314 c 2,7 6,13 10,17 4,5 11,7 20,9 5,0 13,0 23,-1 10,-2 18,-3 24,-4 l 8,24 z m 268,-272 -21,-149 c -1,-8 -4,-14 -7,-19 -3,-4 -9,-8 -18,-11 -6,-1 -13,-3 -23,-3 -10,-1 -18,-2 -23,-2 l -3,-25 245,-35 4,25 c -7,1 -15,3 -23,6 -9,3 -16,5 -23,9 -8,3 -12,9 -14,15 -2,7 -3,13 -2,20 l 47,324 c 1,8 4,15 7,20 4,5 10,8 19,11 5,1 13,2 23,2 10,1 18,0 24,0 l 4,25 -250,36 -4,-25 c 6,-1 14,-3 25,-6 11,-3 18,-5 22,-8 8,-4 13,-9 15,-15 2,-5 2,-12 1,-21 l -20,-143 c -9,7 -19,15 -29,23 -10,7 -20,14 -31,20 -12,7 -24,12 -34,16 -10,4 -24,7 -40,10 -50,7 -87,2 -112,-16 -26,-18 -41,-48 -47,-91 l -15,-102 c -1,-7 -4,-13 -7,-18 -3,-5 -10,-8 -18,-11 -6,-2 -14,-3 -24,-4 -9,-1 -16,-1 -22,-1 l -4,-25 244,-35 3,25 c -7,1 -14,4 -23,6 -8,3 -15,6 -20,8 -8,4 -13,10 -14,16 -2,6 -2,13 -1,20 l 10,74 c 5,36 15,60 28,74 13,15 34,20 62,16 19,-3 36,-8 50,-15 15,-7 28,-14 39,-21 z m 641,-118 -26,0 c -6,-18 -17,-36 -32,-54 -15,-18 -30,-29 -45,-32 -7,-2 -16,-3 -28,-3 -11,-1 -21,-1 -28,-1 l -67,0 -2,178 48,1 c 12,0 23,-2 32,-4 10,-3 19,-8 27,-16 5,-5 10,-14 16,-27 5,-12 8,-23 10,-33 l 25,1 -1,192 -26,0 c -1,-9 -4,-21 -9,-34 -6,-14 -11,-24 -15,-29 -7,-8 -16,-13 -26,-16 -9,-3 -21,-5 -34,-5 l -47,0 -1,133 c 0,14 1,25 3,33 2,8 5,15 11,19 6,4 13,7 22,8 10,2 23,2 39,3 8,0 17,0 27,-1 11,0 20,0 28,-1 9,-1 18,-3 26,-5 8,-2 14,-5 18,-9 10,-11 22,-27 35,-49 14,-22 22,-38 27,-49 l 24,0 -10,144 -434,-3 0,-26 c 6,0 14,-1 25,-2 10,-1 18,-3 22,-4 8,-4 14,-8 17,-13 3,-6 4,-12 4,-21 l 3,-326 c 0,-8 -1,-14 -3,-19 -3,-5 -9,-10 -18,-14 -5,-3 -13,-5 -23,-7 -11,-3 -18,-4 -24,-5 l 1,-25 410,3 -1,118 z m 237,404 c -33,-5 -63,-15 -91,-31 -27,-16 -50,-35 -68,-59 -18,-24 -31,-52 -39,-83 -7,-32 -8,-66 -2,-101 5,-36 17,-67 34,-96 17,-28 39,-51 65,-70 25,-18 54,-30 87,-37 32,-7 66,-8 101,-2 25,4 48,10 68,20 19,9 36,19 49,29 l 23,-14 27,4 -24,167 -28,-4 c -8,-54 -21,-94 -40,-122 -18,-27 -44,-44 -76,-49 -40,-6 -74,7 -101,39 -26,32 -45,80 -55,144 -6,37 -7,68 -4,95 3,27 9,49 18,67 10,18 22,32 38,43 16,10 34,17 55,20 29,5 57,1 83,-12 27,-12 52,-33 76,-63 l 25,21 c -12,17 -25,32 -39,45 -14,13 -30,24 -47,32 -19,9 -39,15 -61,19 -21,3 -46,3 -74,-2 z m 658,183 -167,-57 c 0,-24 0,-47 0,-71 0,-24 -1,-46 -3,-67 -1,-15 -3,-28 -6,-39 -2,-12 -6,-22 -12,-31 -6,-9 -14,-18 -24,-25 -10,-6 -22,-12 -37,-18 l -46,136 c -3,6 -3,13 -2,20 1,6 4,12 11,18 3,3 9,7 18,12 9,5 16,9 22,11 l -8,24 -237,-80 8,-24 c 5,1 13,3 24,6 10,2 18,3 23,3 8,0 15,-3 20,-7 4,-5 8,-10 10,-18 l 106,-309 c 2,-8 3,-14 2,-20 -1,-6 -5,-12 -11,-18 -6,-5 -13,-10 -22,-16 -9,-5 -15,-9 -19,-11 l 8,-24 237,81 -9,24 c -6,-2 -14,-3 -24,-5 -9,-1 -16,-2 -22,-2 -8,0 -15,2 -20,7 -4,5 -8,11 -10,18 l -50,145 20,7 c 8,3 17,5 27,5 10,1 19,-1 29,-6 20,-10 36,-21 48,-33 13,-12 24,-25 35,-39 12,-15 22,-28 31,-38 9,-11 24,-21 43,-30 10,-5 21,-7 33,-8 12,0 24,1 36,6 21,7 36,17 44,32 8,15 10,30 4,46 -6,18 -15,30 -29,37 -13,6 -28,7 -43,2 -10,-4 -19,-10 -26,-19 -8,-9 -15,-24 -22,-44 -9,4 -18,12 -27,24 -9,11 -17,21 -24,30 -15,18 -28,30 -40,38 -11,8 -22,14 -35,18 l -2,5 c 27,18 46,38 59,62 13,24 21,51 24,80 2,12 3,26 5,40 1,14 2,26 3,36 2,15 5,26 10,33 5,6 9,10 12,12 5,3 10,6 17,9 6,3 12,6 16,8 l -8,24 z m 479,275 -216,-123 12,-22 c 5,3 13,6 22,10 10,5 17,7 21,7 9,2 16,1 21,-2 5,-4 10,-9 14,-16 l 138,-243 -350,197 -158,-89 12,-22 c 5,2 13,5 22,10 10,4 18,6 23,7 8,2 15,0 20,-3 6,-3 10,-9 14,-15 l 161,-285 c 4,-6 6,-13 6,-19 1,-5 -2,-12 -7,-20 -5,-5 -11,-12 -18,-19 -8,-7 -14,-12 -18,-14 l 13,-22 215,122 -12,22 c -6,-3 -14,-6 -23,-9 -9,-3 -16,-5 -21,-6 -9,-2 -16,-1 -21,3 -5,4 -10,9 -13,15 l -137,241 350,-196 158,89 -13,22 c -6,-3 -13,-6 -22,-9 -8,-3 -16,-6 -23,-7 -8,-2 -15,-1 -21,3 -5,4 -10,9 -13,15 l -162,285 c -4,7 -6,13 -6,20 0,6 2,12 8,20 3,4 9,10 17,16 7,6 14,11 19,15 l -12,22 z m 415,357 -188,-161 17,-20 c 4,4 10,8 19,14 9,6 15,10 19,11 8,3 15,3 21,1 6,-2 11,-6 17,-12 l 182,-212 -382,126 -137,-118 16,-19 c 5,3 11,8 20,14 9,6 16,10 20,11 8,3 15,4 21,1 6,-2 12,-6 17,-12 l 213,-248 c 5,-6 8,-12 9,-18 2,-5 0,-12 -4,-21 -3,-6 -7,-13 -14,-22 -6,-8 -11,-14 -14,-17 l 17,-20 188,162 -17,19 c -5,-4 -12,-9 -20,-13 -8,-5 -15,-8 -20,-11 -8,-3 -15,-3 -21,0 -6,3 -12,7 -16,12 l -181,210 382,-125 137,118 -16,19 c -6,-4 -12,-9 -20,-13 -7,-5 -15,-9 -21,-12 -8,-3 -16,-3 -22,0 -6,2 -11,7 -16,12 l -213,248 c -5,6 -8,12 -10,18 -1,6 0,13 4,21 2,5 7,12 13,20 7,7 12,14 17,18 l -17,19 z m 267,-522 c -5,5 -12,10 -22,14 -10,4 -21,6 -33,5 -15,-2 -30,-6 -45,-12 -16,-7 -35,-20 -57,-39 -20,-17 -35,-33 -45,-49 -10,-16 -16,-30 -19,-43 -3,-13 -4,-24 -1,-34 3,-10 6,-18 11,-23 7,-9 16,-13 26,-13 11,-1 21,3 30,10 10,9 16,18 18,29 3,10 0,19 -7,28 -4,4 -10,8 -17,12 -8,4 -14,7 -17,8 2,10 7,20 13,30 7,10 15,19 24,26 9,8 19,14 29,20 11,6 22,9 34,10 1,-5 3,-11 5,-19 3,-8 6,-14 10,-18 7,-9 16,-12 26,-11 11,1 21,5 31,13 9,8 14,17 15,28 1,10 -2,19 -9,28 z"
       id="path5029"
       inkscape:connector-curvature="0"
       style="fill:#ffffff;fill-rule:nonzero" /><path
       class="fil2"
       d="m 2525,9521 -103,-144 c 13,-19 27,-38 41,-57 14,-19 26,-38 37,-56 7,-13 14,-25 18,-35 5,-11 7,-22 8,-33 1,-11 -1,-22 -5,-33 -4,-12 -11,-24 -20,-37 l -116,83 c -6,4 -11,9 -13,15 -3,6 -4,13 -2,21 1,5 3,12 8,21 4,9 8,17 11,22 l -21,15 -145,-204 21,-14 c 3,4 8,10 15,18 7,8 13,13 17,16 7,5 14,7 20,6 7,-1 13,-4 20,-8 l 265,-190 c 7,-5 11,-10 14,-15 2,-5 3,-12 1,-21 -1,-7 -4,-15 -8,-25 -4,-10 -7,-17 -10,-21 l 21,-14 145,203 -20,15 c -5,-5 -10,-11 -17,-18 -7,-7 -13,-11 -17,-15 -7,-5 -14,-7 -20,-5 -7,1 -13,4 -19,8 l -125,89 12,17 c 5,7 11,14 19,20 7,6 16,10 27,12 22,4 41,4 58,1 18,-3 35,-6 51,-12 19,-5 35,-9 49,-12 13,-3 30,-3 51,1 11,2 21,6 31,12 10,7 19,15 27,26 13,18 18,35 17,52 -2,17 -10,30 -24,40 -15,11 -30,15 -45,13 -15,-3 -27,-11 -36,-24 -6,-9 -10,-19 -11,-30 0,-12 2,-28 8,-49 -9,-2 -21,0 -35,4 -14,4 -27,7 -38,10 -22,6 -40,8 -54,8 -14,0 -27,-2 -39,-6 l -4,3 c 11,30 15,58 11,85 -3,27 -12,53 -26,79 -6,11 -13,22 -20,35 -7,12 -13,22 -18,31 -8,14 -12,25 -12,32 0,8 1,14 3,18 2,5 5,10 8,17 4,6 7,11 9,16 l -20,14 z m 531,136 c -8,30 -21,58 -41,84 -19,26 -45,48 -78,66 -30,16 -61,27 -93,32 -32,4 -63,3 -92,-5 -31,-9 -59,-24 -85,-44 -25,-20 -48,-49 -68,-85 -16,-30 -27,-60 -31,-92 -5,-31 -3,-62 4,-92 7,-30 21,-58 40,-83 20,-26 45,-48 77,-65 33,-18 66,-29 99,-33 34,-3 65,0 95,9 30,9 57,25 82,46 25,21 46,47 62,78 17,30 28,61 32,93 5,32 4,62 -3,91 z m -331,86 c 23,-1 45,-5 70,-14 24,-8 49,-19 77,-35 24,-13 46,-27 66,-42 20,-16 37,-32 50,-50 13,-18 21,-36 24,-55 3,-20 -1,-39 -12,-59 -19,-35 -50,-52 -92,-52 -43,0 -94,16 -154,49 -25,14 -48,29 -68,45 -21,17 -37,34 -49,51 -12,18 -20,36 -22,54 -2,19 2,37 13,57 10,19 24,32 41,40 16,9 35,12 56,11 z m 448,472 c -25,8 -48,10 -69,5 -22,-5 -40,-14 -57,-29 -18,-15 -33,-34 -46,-56 -12,-22 -23,-48 -32,-78 l -12,-36 -124,38 c -7,3 -13,6 -18,11 -4,4 -7,11 -8,20 0,5 0,12 1,22 1,10 3,18 4,25 l -24,8 -75,-240 24,-8 c 3,6 6,14 10,23 5,10 8,16 11,20 6,7 12,11 17,12 6,1 13,1 21,-2 l 312,-97 c 7,-2 13,-5 17,-10 5,-4 7,-11 8,-20 1,-7 1,-15 0,-25 -1,-11 -2,-18 -3,-23 l 24,-8 76,244 c 18,57 22,102 13,136 -10,34 -33,57 -70,68 z m -54,-116 c 33,-10 56,-24 68,-43 12,-18 12,-45 2,-79 l -8,-26 -194,61 4,13 c 10,34 26,57 48,70 21,13 48,15 80,4 z m -198,736 -36,-245 25,-4 c 2,6 3,13 6,23 2,9 4,16 7,19 4,8 9,13 15,15 5,2 12,3 20,2 l 360,-52 -27,-188 -356,52 c -7,1 -14,3 -19,7 -5,4 -9,10 -11,18 -2,5 -2,12 -3,21 0,10 -1,18 0,24 l -25,3 -36,-245 25,-4 c 1,6 3,14 6,24 3,10 5,18 8,22 4,7 9,12 15,14 6,3 13,3 21,2 l 323,-47 c 8,-1 14,-3 19,-6 4,-4 8,-10 11,-19 2,-7 3,-15 4,-26 1,-10 1,-18 1,-22 l 25,-4 79,550 -25,4 c -1,-7 -3,-15 -6,-23 -3,-8 -6,-16 -9,-23 -4,-7 -9,-12 -15,-14 -7,-2 -14,-2 -21,-1 l -324,46 c -7,1 -14,4 -19,7 -5,4 -8,10 -11,19 -1,5 -2,13 -2,23 -1,10 -1,18 0,25 l -25,3 z m 427,463 c -1,-5 -2,-12 -4,-21 -2,-9 -5,-17 -9,-23 -4,-8 -10,-14 -17,-20 -7,-5 -16,-10 -25,-16 -34,-19 -78,-43 -132,-72 -53,-28 -93,-50 -118,-64 -32,-18 -57,-35 -76,-50 -18,-15 -32,-29 -42,-42 -8,-12 -14,-23 -17,-34 -4,-11 -5,-24 -5,-39 0,-25 6,-44 18,-58 12,-14 26,-21 42,-20 16,0 29,5 40,15 11,11 16,24 16,42 0,13 -5,27 -14,40 -10,13 -24,27 -45,42 6,10 14,20 25,28 11,8 23,16 36,23 48,-28 103,-61 167,-98 63,-36 103,-60 119,-70 7,-4 12,-9 18,-13 5,-4 10,-11 15,-21 4,-7 7,-15 8,-22 2,-7 3,-13 4,-20 l 25,0 -2,256 -25,0 c -1,-24 -3,-41 -6,-50 -3,-9 -7,-13 -10,-13 -3,0 -6,1 -10,3 -3,2 -6,3 -8,5 -17,10 -36,21 -58,33 -22,12 -64,37 -126,74 28,15 52,27 71,36 18,9 38,19 57,29 19,9 33,15 43,18 9,4 16,5 20,5 7,0 12,-5 16,-17 5,-11 8,-27 10,-46 l 25,0 -1,181 -25,-1 z m -480,137 c 5,-33 15,-64 30,-91 15,-28 35,-51 59,-70 23,-18 50,-31 82,-39 31,-8 65,-10 101,-4 35,5 67,16 96,32 28,17 52,38 71,64 18,25 31,54 39,86 7,33 8,66 3,102 -3,25 -10,47 -19,67 -9,20 -19,37 -29,50 l 15,23 -4,28 -167,-22 4,-28 c 54,-9 94,-23 121,-42 27,-19 43,-45 48,-77 6,-40 -8,-74 -40,-100 -33,-26 -81,-44 -146,-53 -36,-5 -68,-6 -95,-3 -26,4 -49,10 -66,19 -18,10 -32,23 -42,39 -10,16 -17,34 -20,55 -4,30 0,58 13,84 13,26 35,51 65,75 l -21,25 c -17,-12 -33,-25 -46,-39 -13,-14 -24,-29 -32,-46 -10,-19 -16,-39 -20,-61 -4,-21 -4,-46 0,-74 z"
       id="path5031"
       inkscape:connector-curvature="0"
       style="fill:#ffffff;fill-rule:nonzero" /><path
       class="fil3"
       d="m -498,9486 445,209 c 32,15 74,15 106,0 L 498,9486 0,10855 -498,9486 Z m 1675,22 183,184 c 42,42 77,-7 84,-15 54,-61 70,-110 83,-236 17,-152 112,-222 223,-250 -155,-60 -320,42 -403,153 -15,20 -22,25 -41,35 11,-74 82,-160 169,-191 -59,-25 -128,17 -156,45 -70,69 -59,138 -142,236 -10,11 -11,28 0,39 z m -2354,0 -183,184 c -42,42 -77,-7 -84,-15 -54,-61 -70,-110 -83,-236 -17,-152 -112,-222 -223,-250 155,-60 320,42 403,153 15,20 22,25 41,35 -11,-74 -82,-160 -169,-191 59,-25 128,17 156,45 70,69 59,138 142,236 10,11 11,28 0,39 z m 2893,3149 c -35,34 -91,34 -126,0 -25,-25 -31,-62 -20,-93 l -692,-657 c -11,10 -33,6 -50,-10 l -305,-289 -79,80 c -12,11 -34,14 -42,0 l -153,-265 c -8,-14 -12,-30 0,-41 l 31,-31 -152,-144 -79,-217 217,79 144,152 31,-31 c 11,-12 28,-8 41,0 l 265,153 c 14,8 11,30 0,41 l -80,80 289,305 c 15,16 20,39 10,50 l 657,692 c 31,-12 68,-5 93,20 34,35 34,91 0,126 z m -1844,-1450 -152,144 31,31 c 12,11 8,27 0,41 l -153,265 c -8,14 -30,11 -42,0 l -79,-80 -305,289 c -17,16 -39,20 -50,10 l -692,657 c 11,31 5,68 -20,93 -35,34 -91,34 -126,0 -34,-35 -34,-91 0,-126 25,-25 62,-32 93,-20 l 657,-692 c -10,-11 -5,-34 10,-50 l 289,-305 -80,-80 c -11,-11 -14,-33 0,-41 l 265,-153 c 13,-8 30,-12 41,0 l 31,31 144,-152 217,-79 -79,217 z m -172,-407 -699,-663 c -15,-15 -15,-40 0,-55 l 140,-140 c 15,-15 40,-15 55,0 l 663,699 92,251 -251,-92 z m 441,-159 663,-699 c 15,-15 40,-15 55,0 l 140,140 c 15,15 15,40 0,55 l -699,663 -251,92 92,-251 z m -1195,-1060 -306,306 c -16,15 -17,42 0,55 l 217,173 c 17,13 40,15 55,0 l 262,-262 c 15,-15 14,-38 0,-55 l -173,-217 c -13,-17 -40,-16 -55,0 z m -98,-42 -250,250 c -8,8 -8,20 0,28 l 14,14 c 7,8 20,8 28,0 l 250,-250 c 8,-8 8,-21 0,-28 l -14,-14 c -7,-8 -20,-8 -28,0 z m -392,-67 c -67,-111 -206,-102 -272,-63 97,14 193,88 207,158 11,53 28,91 56,119 41,41 79,47 133,37 -1,-1 -3,-2 -5,-3 -15,-8 -22,-18 -34,-30 -16,-18 -30,-37 -42,-58 -26,-48 -36,-106 -43,-160 z m 2598,109 306,306 c 16,15 17,42 0,55 l -217,173 c -17,13 -40,15 -55,0 L 826,9853 c -15,-15 -14,-38 0,-55 l 173,-217 c 13,-17 40,-16 55,0 z m 98,-42 250,250 c 8,8 8,20 0,28 l -14,14 c -7,8 -20,8 -28,0 l -250,-250 c -8,-8 -8,-21 0,-28 l 14,-14 c 7,-8 20,-8 28,0 z m 392,-67 c 67,-111 206,-102 272,-63 -97,14 -193,88 -207,158 -11,53 -28,91 -56,119 -41,41 -79,47 -133,37 1,-1 3,-2 5,-3 15,-8 22,-18 34,-30 16,-18 30,-37 42,-58 26,-48 36,-106 43,-160 z m -89,971 -209,444 c -16,33 -16,75 0,107 l 209,445 -1369,-498 1369,-498 z M 498,12396 53,12187 c -32,-16 -74,-16 -106,0 l -445,209 498,-1369 498,1369 z m -1953,-957 209,-445 c 16,-32 16,-74 0,-107 l -209,-444 1369,498 -1369,498 z"
       id="path5033"
       inkscape:connector-curvature="0"
       style="fill:#ffffff" /></g></svg>