<?xml version="1.0" encoding="UTF-8" standalone="no"?>
<!-- Creator: CorelDRAW X7 -->

<svg
   xmlns:dc="http://purl.org/dc/elements/1.1/"
   xmlns:cc="http://creativecommons.org/ns#"
   xmlns:rdf="http://www.w3.org/1999/02/22-rdf-syntax-ns#"
   xmlns:svg="http://www.w3.org/2000/svg"
   xmlns="http://www.w3.org/2000/svg"
   xmlns:sodipodi="http://sodipodi.sourceforge.net/DTD/sodipodi-0.dtd"
   xmlns:inkscape="http://www.inkscape.org/namespaces/inkscape"
   xml:space="preserve"
   width="7.8740005in"
   height="7.8740005in"
   version="1.1"
   style="clip-rule:evenodd;fill-rule:evenodd;image-rendering:optimizeQuality;shape-rendering:geometricPrecision;text-rendering:geometricPrecision"
   viewBox="0 0 7874.0005 7874.0005"
   id="svg2"
   inkscape:version="0.91 r13725"
   sodipodi:docname="tohaa_rasail_boarding_team.svg"><metadata
     id="metadata120"><rdf:RDF><cc:Work
         rdf:about=""><dc:format>image/svg+xml</dc:format><dc:type
           rdf:resource="http://purl.org/dc/dcmitype/StillImage" /></cc:Work></rdf:RDF></metadata><sodipodi:namedview
     pagecolor="#ffffff"
     bordercolor="#666666"
     borderopacity="1"
     objecttolerance="10"
     gridtolerance="10"
     guidetolerance="10"
     inkscape:pageopacity="0"
     inkscape:pageshadow="2"
     inkscape:window-width="640"
     inkscape:window-height="480"
     id="namedview118"
     showgrid="false"
     inkscape:zoom="0.23838384"
     inkscape:cx="736.83001"
     inkscape:cy="849.33005"
     inkscape:window-x="0"
     inkscape:window-y="0"
     inkscape:window-maximized="0"
     inkscape:current-layer="svg2" /><defs
     id="defs4"><style
       type="text/css"
       id="style6"><![CDATA[
    .fil0 {fill:black}
    .fil14 {fill:#3F3F3F}
    .fil16 {fill:#3F3F3F}
    .fil6 {fill:#4A523A}
    .fil5 {fill:#546535}
    .fil4 {fill:#5F772F}
    .fil3 {fill:#698A2A}
    .fil15 {fill:#749D25}
    .fil2 {fill:#749D25}
    .fil13 {fill:#C08030}
    .fil12 {fill:#C68D2D}
    .fil11 {fill:#CD9A2A}
    .fil10 {fill:#D3A626}
    .fil9 {fill:#DAB323}
    .fil8 {fill:#E0C020}
    .fil1 {fill:white}
    .fil7 {fill:#3F3F3F;fill-rule:nonzero}
   ]]></style></defs><g
     id="Layer_x0020_1"
     transform="translate(3937,-7063)"><metadata
       id="CorelCorpID_0Corel-Layer" /><circle
       class="fil0"
       cy="11000"
       r="3937"
       id="circle10"
       cx="0"
       style="fill:#000000" /><circle
       class="fil1"
       cy="11000"
       r="3858"
       id="circle12"
       cx="0"
       style="fill:#ffffff" /><g
       id="_954920976"><path
         class="fil2"
         d="m -1240,10961 433,0 0,275 -709,0 0,-531 c 0,-87 44,-170 104,-231 61,-60 144,-104 231,-104 l 689,0 c 87,0 170,44 231,104 60,61 104,144 104,231 l 0,1319 -276,0 0,-1319 c -1,-10 -16,-29 -23,-36 -8,-7 -26,-22 -36,-23 l -689,0 c -10,1 -29,16 -36,23 -7,7 -22,26 -23,36 l 0,256 z"
         id="path15"
         inkscape:connector-curvature="0"
         style="fill:#749d25" /><path
         class="fil3"
         d="m -1260,10980 433,0 0,237 -669,0 0,-512 c 0,-82 41,-160 98,-217 57,-57 135,-98 217,-98 l 689,0 c 81,0 160,41 217,98 56,57 98,135 98,217 l 0,1299 -236,0 0,-1299 c 0,-16 -19,-40 -29,-50 -11,-10 -35,-29 -50,-29 l -689,0 c -16,0 -39,19 -50,29 -10,10 -29,34 -29,50 l 0,275 z"
         id="path17"
         inkscape:connector-curvature="0"
         style="fill:#698a2a" /><path
         class="fil4"
         d="m -1280,10996 c 1,1 3,3 4,4 l 430,0 0,197 -630,0 0,-492 c 0,-76 39,-150 92,-203 53,-53 127,-93 203,-93 l 689,0 c 76,0 150,40 203,93 53,53 92,127 92,203 l 0,1279 -197,0 0,-1279 c 0,-22 -20,-49 -34,-64 -15,-15 -42,-35 -64,-35 l -689,0 c -22,0 -49,20 -64,35 -14,15 -35,42 -35,64 l 0,291 z"
         id="path19"
         inkscape:connector-curvature="0"
         style="fill:#5f772f" /><path
         class="fil5"
         d="m -866,11177 -591,0 0,-472 c 0,-71 38,-140 87,-189 49,-49 118,-87 189,-87 l 689,0 c 71,0 140,38 189,87 49,49 86,118 86,189 l 0,1260 -157,0 0,-1260 c 0,-28 -22,-59 -41,-78 -18,-19 -49,-40 -77,-40 l -689,0 c -28,0 -59,21 -78,40 -18,19 -40,50 -40,78 l 0,295 c 0,6 13,19 19,20 l 414,0 0,157 z"
         id="path21"
         inkscape:connector-curvature="0"
         style="fill:#546535" /><path
         class="fil6"
         d="m -886,11157 -551,0 0,-452 c 0,-66 35,-130 81,-175 45,-46 109,-81 175,-81 l 689,0 c 65,0 129,35 175,81 45,45 81,109 81,175 l 0,1240 -118,0 0,-1240 c 0,-34 -24,-69 -47,-92 -23,-23 -58,-46 -91,-46 l -689,0 c -34,0 -69,23 -92,46 -22,23 -46,58 -46,92 l 0,295 c 0,17 23,39 39,39 l 394,0 0,118 z"
         id="path23"
         inkscape:connector-curvature="0"
         style="fill:#4a523a" /></g><path
       class="fil7"
       d="m -906,11138 -511,0 0,-433 c 0,-58 30,-117 75,-161 44,-45 104,-75 161,-75 l 689,0 c 57,0 116,30 161,75 44,44 75,103 75,161 l 0,1220 -79,0 0,-1220 c 0,-36 -21,-75 -52,-106 -31,-30 -70,-52 -105,-52 l -689,0 c -36,0 -75,22 -105,52 -31,31 -53,70 -53,106 l 0,295 c 0,28 32,59 59,59 l 374,0 0,79 z"
       id="path25"
       inkscape:connector-curvature="0"
       style="fill:#3f3f3f;fill-rule:nonzero" /><g
       id="_952483168"><path
         class="fil8"
         d="m 2554,9343 c -300,188 -623,347 -958,465 -103,37 -208,70 -314,97 -51,14 -101,25 -151,37 -102,23 -127,19 -217,-33 L 463,9648 c -40,-22 -72,-54 -93,-95 -39,-77 -29,-165 -11,-247 17,-84 42,-166 56,-251 14,-88 -107,-271 -157,-339 -52,-71 -110,-141 -172,-204 -17,-17 -56,-56 -86,-79 -30,23 -69,62 -86,79 -62,63 -120,133 -172,204 -50,68 -171,251 -157,339 30,180 163,472 -48,593 l -451,261 c -91,52 -115,56 -217,32 -50,-11 -100,-22 -151,-36 -106,-27 -211,-60 -314,-97 -335,-118 -658,-277 -958,-465 -71,-37 -116,-111 -116,-191 0,-53 19,-103 53,-142 624,-818 1586,-1297 2617,-1297 1032,0 1994,480 2618,1299 33,39 52,88 52,140 0,80 -45,154 -116,191 z"
         id="path28"
         inkscape:connector-curvature="0"
         style="fill:#e0c020" /><path
         class="fil9"
         d="m 2545,9326 c -300,188 -622,346 -955,464 -103,36 -208,69 -313,96 -50,14 -100,25 -151,36 -96,23 -116,20 -202,-30 L 472,9631 c -36,-21 -65,-49 -85,-87 -37,-72 -25,-157 -9,-234 18,-84 42,-166 56,-252 16,-96 -106,-280 -160,-354 -53,-73 -113,-144 -177,-208 -18,-19 -66,-66 -97,-88 -31,22 -79,69 -97,88 -64,64 -124,135 -177,208 -54,74 -176,258 -160,354 28,169 159,460 -38,573 l -452,261 c -86,50 -106,53 -202,30 -51,-11 -101,-22 -151,-36 -105,-27 -210,-60 -313,-96 -333,-118 -655,-276 -955,-464 -64,-34 -105,-101 -105,-174 0,-48 17,-94 49,-130 619,-813 1576,-1290 2601,-1290 1026,0 1983,478 2603,1292 30,36 47,80 47,128 0,73 -41,140 -105,174 z"
         id="path30"
         inkscape:connector-curvature="0"
         style="fill:#dab323" /><path
         class="fil10"
         d="m 2535,9309 c -299,187 -620,345 -952,462 -102,36 -206,69 -311,96 -50,14 -100,25 -150,36 -92,21 -107,19 -188,-28 L 482,9614 c -33,-19 -60,-45 -77,-79 -35,-68 -23,-149 -8,-221 18,-85 42,-167 57,-253 17,-103 -106,-288 -164,-368 -55,-75 -117,-149 -182,-215 -19,-19 -77,-75 -108,-93 -31,18 -89,74 -108,93 -65,66 -127,140 -182,215 -58,80 -181,265 -164,368 8,46 20,91 31,136 33,133 88,332 -59,417 l -452,261 c -81,47 -96,49 -188,28 -50,-12 -100,-22 -150,-36 -105,-27 -209,-60 -311,-96 -333,-117 -653,-275 -952,-462 -58,-31 -95,-91 -95,-157 0,-43 16,-85 44,-117 616,-809 1567,-1283 2586,-1283 1020,0 1971,475 2587,1284 28,33 43,73 43,116 0,66 -37,126 -95,157 z"
         id="path32"
         inkscape:connector-curvature="0"
         style="fill:#d3a626" /><path
         class="fil11"
         d="m 2525,9292 c -298,186 -617,344 -949,461 -101,36 -205,68 -309,95 -50,13 -100,24 -150,36 -86,20 -96,18 -173,-26 L 492,9597 c -30,-17 -54,-40 -70,-71 -32,-63 -20,-141 -6,-208 18,-85 43,-167 57,-254 18,-111 -105,-297 -167,-383 -57,-78 -121,-154 -189,-222 -25,-24 -51,-49 -79,-71 -7,-5 -27,-20 -38,-25 -11,5 -31,20 -38,25 -28,22 -54,47 -79,71 -68,68 -132,144 -189,222 -62,86 -185,272 -167,383 8,47 20,93 31,138 25,99 66,247 8,340 -15,23 -34,42 -58,55 l -452,261 c -77,44 -87,46 -173,26 -51,-12 -100,-23 -150,-36 -104,-27 -208,-59 -310,-95 -331,-117 -650,-275 -948,-461 -52,-27 -85,-81 -85,-140 0,-39 14,-76 39,-105 612,-804 1558,-1275 2571,-1275 1014,0 1960,472 2572,1277 25,29 38,64 38,103 0,59 -33,113 -85,140 z"
         id="path34"
         inkscape:connector-curvature="0"
         style="fill:#cd9a2a" /><path
         class="fil12"
         d="m 2515,9275 c -296,186 -615,343 -945,459 -101,36 -204,68 -308,95 -50,13 -99,24 -149,36 -82,19 -87,18 -159,-24 L 502,9580 c -26,-15 -48,-35 -62,-63 -30,-58 -17,-134 -4,-195 18,-85 42,-168 56,-254 20,-119 -104,-307 -170,-398 -59,-82 -127,-162 -199,-232 -25,-25 -53,-50 -81,-72 -7,-5 -33,-23 -42,-23 -9,0 -35,18 -42,23 -28,22 -56,47 -81,72 -72,70 -140,150 -199,232 -66,91 -190,279 -170,398 7,46 19,93 31,139 23,91 64,239 10,325 -13,20 -30,36 -51,48 l -452,261 c -72,42 -77,43 -159,24 -50,-12 -99,-23 -149,-36 -104,-27 -207,-59 -308,-95 -330,-116 -649,-273 -945,-459 -47,-24 -76,-71 -76,-123 0,-34 13,-67 35,-92 609,-800 1549,-1269 2556,-1269 1008,0 1948,470 2557,1270 22,25 34,57 34,91 0,52 -29,99 -76,123 z"
         id="path36"
         inkscape:connector-curvature="0"
         style="fill:#c68d2d" /></g><path
       class="fil13"
       d="m 1108,9846 c -76,17 -76,17 -145,-22 L 512,9563 c -137,-79 -40,-256 0,-492 39,-236 -433,-748 -512,-748 -79,0 -551,512 -512,748 30,181 137,413 0,492 l -452,261 c -68,39 -68,39 -144,22 -77,-18 -671,-133 -1398,-588 -38,-20 -65,-60 -65,-106 0,-31 12,-59 31,-80 582,-766 1503,-1261 2540,-1261 1037,0 1958,495 2541,1262 19,22 30,49 30,79 0,46 -27,86 -65,106 -727,455 -1321,570 -1398,588 z"
       id="path38"
       inkscape:connector-curvature="0"
       style="fill:#c08030" /><path
       class="fil2"
       d="m -2297,11828 c -169,-491 -187,-1009 -52,-1492 32,-105 133,-153 196,-98 113,98 289,264 242,496 -57,411 17,844 240,1231 224,387 561,667 946,823 225,75 280,311 309,457 16,82 -76,146 -184,121 -486,-124 -925,-399 -1265,-791 -105,-121 -213,-57 -350,22 -136,79 -337,-33 -479,-42 63,-127 67,-357 204,-435 136,-79 246,-141 193,-292 z"
       id="path40"
       inkscape:connector-curvature="0"
       style="fill:#749d25" /><g
       id="_949661072"><path
         class="fil3"
         d="m -2665,12538 c 136,20 322,110 440,42 127,-73 256,-155 374,-18 332,382 766,660 1256,785 33,7 69,7 101,-6 23,-10 45,-27 55,-51 5,-13 6,-27 3,-41 -35,-184 -98,-377 -295,-443 l -1,0 -1,0 c -403,-164 -737,-455 -955,-832 -217,-376 -302,-811 -242,-1243 l 0,0 0,-1 c 41,-203 -94,-354 -235,-477 -11,-9 -24,-16 -38,-18 -25,-3 -51,7 -71,23 -28,21 -46,52 -56,84 -27,97 -48,196 -63,295 -59,399 -16,804 115,1185 59,170 -76,241 -203,315 -118,68 -132,274 -184,401 z"
         id="path43"
         inkscape:connector-curvature="0"
         style="fill:#698a2a" /><path
         class="fil4"
         d="m -2637,12523 c 53,9 108,26 159,39 74,19 173,41 244,1 136,-79 272,-160 398,-14 329,379 759,654 1245,779 29,6 61,6 89,-5 19,-8 37,-21 45,-40 3,-10 4,-20 2,-30 -34,-177 -93,-365 -283,-428 l -1,0 -1,-1 c -408,-165 -745,-459 -965,-840 -220,-380 -306,-820 -245,-1255 l 0,-1 1,-2 c 39,-195 -94,-340 -229,-458 -8,-7 -17,-12 -27,-13 -21,-3 -42,6 -57,18 -24,19 -40,46 -49,74 -27,96 -48,194 -62,293 -59,396 -16,798 114,1175 18,54 23,109 -1,162 -38,81 -136,134 -211,177 -9,5 -18,12 -26,19 -51,46 -77,128 -95,192 -14,51 -27,106 -45,158 z"
         id="path45"
         inkscape:connector-curvature="0"
         style="fill:#5f772f" /><path
         class="fil5"
         d="m -2292,10353 c -134,478 -110,987 51,1456 20,58 25,118 -1,176 -40,87 -140,140 -219,186 -8,4 -16,10 -23,16 -47,43 -72,123 -89,183 -13,45 -24,92 -38,138 46,10 93,24 138,35 67,17 164,40 229,3 79,-46 175,-106 270,-96 63,6 113,39 153,86 326,376 753,649 1235,773 33,7 95,4 110,-34 3,-6 3,-12 2,-18 -33,-169 -89,-353 -270,-413 l -2,-1 -1,-1 c -412,-166 -753,-463 -975,-848 -222,-384 -309,-828 -247,-1268 l 0,-2 0,-2 c 38,-187 -93,-327 -222,-440 -5,-4 -11,-7 -17,-8 -40,-6 -74,46 -84,79 z"
         id="path47"
         inkscape:connector-curvature="0"
         style="fill:#546535" /><path
         class="fil6"
         d="m -2273,10359 c -133,474 -109,979 51,1443 22,64 26,129 -3,191 -41,92 -142,146 -226,195 -7,4 -14,9 -20,14 -44,40 -67,118 -83,174 -11,38 -21,78 -32,117 40,10 79,21 118,31 60,16 155,38 214,5 84,-49 181,-109 282,-99 68,7 122,43 166,93 323,373 746,644 1225,766 22,5 77,6 87,-21 1,-2 1,-5 0,-8 -31,-161 -83,-340 -256,-398 l -3,0 -2,-1 c -416,-169 -760,-469 -984,-857 -224,-388 -312,-837 -250,-1281 l 1,-2 0,-2 c 36,-180 -93,-314 -216,-422 -2,-1 -4,-3 -7,-3 -28,-4 -55,42 -62,65 z"
         id="path49"
         inkscape:connector-curvature="0"
         style="fill:#4a523a" /><path
         class="fil14"
         d="m -2216,10314 c -17,3 -34,36 -38,50 -132,471 -108,971 51,1432 23,68 27,138 -4,205 -44,97 -146,153 -234,204 -6,3 -11,7 -16,12 -41,36 -64,113 -78,164 -9,32 -17,65 -27,98 33,8 66,18 98,26 55,14 148,37 200,7 88,-51 188,-112 294,-102 73,8 132,46 179,100 321,369 740,639 1214,760 15,3 52,5 64,-8 -30,-152 -79,-326 -244,-381 l -2,-1 -3,-1 c -420,-170 -767,-473 -994,-865 -226,-392 -315,-845 -252,-1293 l 0,-3 1,-3 c 34,-170 -91,-299 -209,-401 z"
         id="path51"
         inkscape:connector-curvature="0"
         style="fill:#3f3f3f" /></g><path
       class="fil15"
       d="m 1865,12575 c -340,392 -780,667 -1265,791 -108,25 -200,-39 -184,-121 29,-146 84,-382 309,-457 385,-156 722,-436 946,-823 223,-387 297,-820 240,-1231 -47,-232 129,-398 242,-496 63,-55 164,-7 196,98 135,483 117,1001 -52,1492 -53,151 57,213 193,292 137,78 141,308 204,435 -142,9 -343,121 -479,42 -137,-79 -245,-143 -350,-22 z"
       id="path53"
       inkscape:connector-curvature="0"
       style="fill:#749d25" /><g
       id="_814823056"><path
         class="fil3"
         d="m 2665,12538 c -52,-127 -66,-333 -184,-401 -127,-74 -262,-145 -203,-315 131,-379 173,-783 116,-1180 -15,-101 -36,-202 -64,-300 -10,-32 -28,-63 -55,-84 -21,-16 -47,-26 -72,-23 -14,2 -27,9 -38,18 -141,123 -276,274 -235,477 l 0,1 0,0 c 60,432 -25,867 -242,1243 -218,377 -552,668 -955,832 l -1,0 -1,0 c -197,66 -260,259 -295,443 -3,14 -2,28 3,41 10,24 32,41 55,51 32,13 68,13 101,6 491,-125 924,-403 1256,-785 118,-137 247,-55 374,18 118,68 304,-22 440,-42 z"
         id="path56"
         inkscape:connector-curvature="0"
         style="fill:#698a2a" /><path
         class="fil4"
         d="m 2637,12523 c -18,-52 -31,-107 -45,-158 -21,-73 -51,-171 -121,-211 -75,-43 -173,-96 -211,-177 -24,-53 -19,-108 -1,-162 130,-376 172,-776 115,-1170 -15,-101 -36,-200 -63,-297 -8,-29 -25,-56 -49,-75 -15,-12 -36,-21 -57,-18 -10,1 -19,6 -27,13 -135,118 -268,263 -229,458 l 1,2 0,1 c 61,435 -25,875 -245,1255 -220,381 -557,675 -965,840 l -1,1 -1,0 c -189,63 -249,251 -283,428 -2,10 -1,20 2,30 8,19 26,32 45,40 28,11 60,11 88,5 487,-125 917,-400 1246,-779 126,-146 262,-65 398,14 10,5 20,10 30,13 66,21 149,3 214,-14 51,-13 106,-30 159,-39 z"
         id="path58"
         inkscape:connector-curvature="0"
         style="fill:#5f772f" /><path
         class="fil5"
         d="m 2611,12508 c -14,-46 -25,-93 -38,-138 -19,-67 -48,-162 -112,-199 -79,-46 -179,-99 -219,-186 -26,-58 -21,-118 -1,-176 161,-469 185,-978 51,-1456 -10,-32 -44,-85 -84,-79 -6,1 -12,4 -17,8 -129,113 -260,253 -222,440 l 0,2 0,2 c 62,440 -25,884 -247,1268 -222,385 -563,682 -975,848 l -1,1 -2,1 c -181,60 -237,244 -270,413 -1,6 -1,12 2,18 15,38 76,41 110,34 482,-124 909,-398 1235,-773 40,-47 90,-80 153,-86 95,-10 191,50 270,96 9,5 17,8 26,11 61,20 143,1 203,-14 45,-11 92,-25 138,-35 z"
         id="path60"
         inkscape:connector-curvature="0"
         style="fill:#546535" /><path
         class="fil6"
         d="m 2586,12493 c -11,-39 -21,-79 -32,-117 -17,-61 -45,-154 -103,-188 -84,-49 -185,-103 -226,-195 -29,-62 -25,-127 -3,-190 160,-465 184,-970 51,-1444 -7,-23 -34,-69 -62,-65 -3,0 -5,2 -7,3 -123,108 -252,242 -216,422 l 0,2 1,2 c 62,444 -26,893 -250,1281 -224,388 -568,688 -984,857 l -2,1 -3,0 c -173,58 -225,237 -256,398 -1,3 -1,6 0,8 10,26 64,26 87,21 479,-122 902,-394 1225,-766 44,-50 98,-86 166,-93 101,-10 198,50 282,99 7,4 15,7 22,10 57,18 137,-1 192,-15 39,-10 78,-21 118,-31 z"
         id="path62"
         inkscape:connector-curvature="0"
         style="fill:#4a523a" /><path
         class="fil14"
         d="m 2562,12479 c -10,-33 -18,-66 -27,-98 -15,-54 -42,-146 -94,-176 -88,-51 -190,-107 -234,-204 -31,-67 -27,-137 -4,-205 159,-461 183,-961 52,-1432 -5,-14 -22,-47 -39,-50 -118,102 -243,231 -209,401 l 1,3 0,3 c 63,448 -26,901 -252,1293 -227,392 -574,695 -994,865 l -3,1 -2,1 c -165,55 -214,228 -244,381 12,13 49,11 64,8 474,-121 894,-391 1214,-760 47,-54 106,-92 179,-100 106,-10 206,51 294,102 6,3 12,6 18,8 52,17 130,-2 182,-15 32,-8 65,-18 98,-26 z"
         id="path64"
         inkscape:connector-curvature="0"
         style="fill:#3f3f3f" /></g><path
       class="fil2"
       d="m -47,13340 c 20,-25 74,-25 94,0 l 327,413 c 26,32 26,92 0,124 l -327,413 c -20,25 -74,25 -94,0 l -327,-413 c -26,-32 -26,-92 0,-124 l 327,-413 z"
       id="path66"
       inkscape:connector-curvature="0"
       style="fill:#749d25" /><g
       id="_952613888"><path
         class="fil3"
         d="m -31,13352 -328,413 c -20,25 -20,75 0,100 l 328,413 c 11,14 51,14 62,0 l 328,-413 c 20,-25 20,-75 0,-100 L 31,13352 c -11,-15 -51,-15 -62,0 z"
         id="path69"
         inkscape:connector-curvature="0"
         style="fill:#698a2a" /><path
         class="fil4"
         d="m -16,13364 -327,413 c -15,18 -15,58 0,76 l 327,412 c 5,5 27,5 32,1 l 327,-413 c 15,-18 15,-58 0,-76 L 16,13365 c -5,-5 -27,-5 -32,-1 z"
         id="path71"
         inkscape:connector-curvature="0"
         style="fill:#5f772f" /><path
         class="fil5"
         d="m -4,13381 -324,408 c -8,11 -8,41 0,52 l 324,408 c 2,1 6,1 8,0 l 324,-408 c 8,-11 8,-41 0,-52 L 4,13381 c -2,-1 -6,-1 -8,0 z"
         id="path73"
         inkscape:connector-curvature="0"
         style="fill:#546535" /><path
         class="fil6"
         d="m 0,13407 -312,394 c -3,6 -3,22 0,27 l 312,395 312,-394 c 3,-6 3,-22 0,-27 L 0,13407 Z"
         id="path75"
         inkscape:connector-curvature="0"
         style="fill:#4a523a" /><path
         class="fil14"
         d="m 0,13439 -295,372 c 0,2 0,6 0,8 l 295,372 295,-372 c 0,-2 0,-6 0,-8 L 0,13439 Z"
         id="path77"
         inkscape:connector-curvature="0"
         style="fill:#3f3f3f" /></g><g
       id="_815711376"><path
         class="fil2"
         d="m -827,11335 c 120,0 217,97 217,216 0,120 -97,217 -217,217 -119,0 -216,-97 -216,-217 0,-119 97,-216 216,-216 z"
         id="path80"
         inkscape:connector-curvature="0"
         style="fill:#749d25" /><path
         class="fil3"
         d="m -827,11354 c 109,0 197,88 197,197 0,109 -88,197 -197,197 -108,0 -197,-88 -197,-197 0,-109 89,-197 197,-197 z"
         id="path82"
         inkscape:connector-curvature="0"
         style="fill:#698a2a" /><path
         class="fil4"
         d="m -827,11374 c 98,0 177,79 177,177 0,98 -79,177 -177,177 -98,0 -177,-79 -177,-177 0,-98 79,-177 177,-177 z"
         id="path84"
         inkscape:connector-curvature="0"
         style="fill:#5f772f" /><path
         class="fil5"
         d="m -827,11394 c 87,0 158,70 158,157 0,87 -71,158 -158,158 -87,0 -157,-71 -157,-158 0,-87 70,-157 157,-157 z"
         id="path86"
         inkscape:connector-curvature="0"
         style="fill:#546535" /><path
         class="fil6"
         d="m -827,11413 c 76,0 138,62 138,138 0,76 -62,138 -138,138 -76,0 -138,-62 -138,-138 0,-76 62,-138 138,-138 z"
         id="path88"
         inkscape:connector-curvature="0"
         style="fill:#4a523a" /></g><circle
       class="fil16"
       cx="-827"
       cy="11551"
       r="118"
       id="circle90"
       style="fill:#3f3f3f" /><g
       id="_951073632"><path
         class="fil2"
         d="m 212,11709 c -45,-56 -74,-126 -74,-197 l 0,-827 c 0,-87 43,-170 104,-231 60,-60 144,-104 230,-104 l 571,0 c 87,0 171,44 231,104 60,61 104,144 104,231 l 0,315 c 0,87 -44,170 -104,231 -60,60 -144,104 -231,104 l -98,0 0,-276 98,0 c 10,-1 29,-16 36,-23 7,-7 22,-26 23,-36 l 0,-314 c -1,-11 -16,-30 -23,-37 -7,-7 -26,-22 -36,-23 l -570,0 c -11,1 -29,16 -36,23 -8,7 -23,26 -24,36 l 0,826 c 1,11 16,29 24,37 7,7 25,22 35,23 l 867,0 0,453 -276,0 0,-118 c -1,-11 -16,-29 -23,-36 -7,-7 -26,-23 -36,-24 l -531,0 c -11,1 -29,17 -36,24 -8,7 -23,25 -24,36 l 0,118 -275,0 0,-118 c 0,-72 29,-141 74,-197 z"
         id="path93"
         inkscape:connector-curvature="0"
         style="fill:#749d25" /><path
         class="fil3"
         d="m 237,11709 c -47,-55 -80,-125 -80,-197 l 0,-827 c 0,-81 42,-160 99,-217 56,-56 135,-98 216,-98 l 571,0 c 82,0 160,42 217,98 57,57 98,136 98,217 l 0,315 c 0,82 -41,160 -98,217 -57,56 -135,98 -217,98 l -78,0 0,-236 78,0 c 16,0 40,-19 50,-29 10,-11 29,-34 29,-50 l 0,-315 c 0,-16 -19,-39 -29,-50 -10,-10 -34,-29 -50,-29 l -571,0 c -15,0 -39,19 -49,29 -11,11 -29,34 -29,50 l 0,827 c 0,15 18,39 29,50 10,10 34,29 49,29 l 847,0 0,413 -236,0 0,-98 c 0,-16 -19,-40 -29,-50 -11,-11 -34,-29 -50,-29 l -532,0 c -15,0 -39,18 -49,29 -11,10 -29,34 -29,50 l 0,98 -237,0 0,-98 c 0,-73 33,-143 80,-197 z"
         id="path95"
         inkscape:connector-curvature="0"
         style="fill:#698a2a" /><path
         class="fil4"
         d="m 264,11709 c -50,-53 -87,-124 -87,-197 l 0,-827 c 0,-76 40,-150 93,-203 53,-53 126,-92 202,-92 l 571,0 c 77,0 150,39 203,92 53,53 93,127 93,203 l 0,315 c 0,76 -40,150 -93,203 -53,53 -126,92 -203,92 l -59,0 0,-197 59,0 c 22,0 49,-20 64,-34 15,-15 35,-42 35,-64 l 0,-315 c 0,-22 -20,-49 -35,-64 -15,-14 -42,-34 -64,-34 l -571,0 c -21,0 -49,20 -63,34 -15,15 -35,42 -35,64 l 0,827 c 0,22 20,49 35,63 14,15 42,35 63,35 l 827,0 0,374 -197,0 0,-78 c 0,-22 -20,-49 -34,-64 -15,-15 -42,-35 -64,-35 l -532,0 c -21,0 -49,20 -63,35 -15,15 -35,42 -35,64 l 0,78 -197,0 0,-78 c 0,-74 37,-145 87,-197 z"
         id="path97"
         inkscape:connector-curvature="0"
         style="fill:#5f772f" /><path
         class="fil5"
         d="m 292,11709 c -3,-3 -6,-6 -8,-8 -50,-49 -87,-118 -87,-189 l 0,-827 c 0,-71 37,-140 87,-189 49,-49 118,-87 188,-87 l 571,0 c 71,0 140,38 189,87 49,49 87,118 87,189 l 0,315 c 0,71 -38,140 -87,189 -49,49 -118,87 -189,87 l -39,0 0,-158 39,0 c 28,0 59,-22 78,-40 19,-19 40,-50 40,-78 l 0,-315 c 0,-28 -21,-59 -40,-78 -19,-18 -50,-40 -78,-40 l -571,0 c -27,0 -58,22 -77,40 -19,19 -41,50 -41,78 l 0,827 c 0,28 22,59 41,77 19,19 50,41 77,41 l 808,0 0,335 -158,0 0,-59 c 0,-28 -22,-59 -41,-78 -18,-19 -49,-41 -77,-41 l -532,0 c -27,0 -58,22 -77,41 -19,19 -41,50 -41,78 l 0,59 -157,0 0,-59 c 0,-71 37,-140 87,-189 2,-3 5,-6 8,-8 z"
         id="path99"
         inkscape:connector-curvature="0"
         style="fill:#546535" /><path
         class="fil6"
         d="m 322,11709 c -9,-7 -17,-15 -25,-22 -45,-46 -80,-110 -80,-175 l 0,-827 c 0,-66 35,-129 80,-175 46,-45 110,-81 175,-81 l 571,0 c 66,0 130,36 175,81 46,46 81,109 81,175 l 0,315 c 0,66 -35,130 -81,175 -45,45 -109,81 -175,81 l -19,0 0,-118 19,0 c 34,0 69,-24 92,-47 23,-22 46,-57 46,-91 l 0,-315 c 0,-34 -23,-69 -46,-91 -23,-23 -58,-47 -92,-47 l -571,0 c -33,0 -68,24 -91,47 -23,22 -46,57 -46,91 l 0,827 c 0,33 23,68 46,91 23,23 58,47 91,47 l 788,0 0,295 -118,0 0,-39 c 0,-34 -24,-69 -47,-92 -22,-23 -57,-46 -91,-46 l -532,0 c -33,0 -68,23 -91,46 -23,23 -46,58 -46,92 l 0,39 -118,0 0,-39 c 0,-66 35,-130 80,-175 8,-8 16,-15 25,-22 z"
         id="path101"
         inkscape:connector-curvature="0"
         style="fill:#4a523a" /></g><path
       class="fil7"
       d="m 236,11925 0,-19 c 0,-58 31,-117 75,-162 14,-13 28,-25 44,-35 -16,-11 -30,-23 -44,-36 -44,-45 -75,-104 -75,-161 l 0,-827 c 0,-57 31,-117 75,-161 45,-44 104,-75 161,-75 l 571,0 c 58,0 117,31 161,75 45,44 76,104 76,161 l 0,118 0,79 0,118 c 0,57 -31,117 -76,161 -44,44 -103,75 -161,75 l 0,-79 c 36,0 75,-21 106,-52 30,-30 52,-69 52,-105 l 0,-118 0,-79 0,-118 c 0,-35 -22,-75 -52,-105 -31,-31 -70,-52 -106,-52 l -571,0 c -35,0 -74,21 -105,52 -31,30 -52,70 -52,105 l 0,827 c 0,35 21,74 52,105 31,31 70,52 105,52 l 20,0 748,0 0,256 -79,0 0,-19 c 0,-36 -21,-75 -52,-106 -30,-31 -70,-52 -105,-52 l -512,0 -20,0 c -35,0 -74,21 -105,52 -31,31 -52,70 -52,106 l 0,19 -79,0 z"
       id="path103"
       inkscape:connector-curvature="0"
       style="fill:#3f3f3f;fill-rule:nonzero" /><g
       id="_950336784"><path
         class="fil2"
         d="m 689,10980 c 120,0 217,97 217,217 0,119 -97,216 -217,216 -120,0 -217,-97 -217,-216 0,-120 97,-217 217,-217 z"
         id="path106"
         inkscape:connector-curvature="0"
         style="fill:#749d25" /><path
         class="fil3"
         d="m 689,11000 c 109,0 197,88 197,197 0,109 -88,197 -197,197 -109,0 -197,-88 -197,-197 0,-109 88,-197 197,-197 z"
         id="path108"
         inkscape:connector-curvature="0"
         style="fill:#698a2a" /><path
         class="fil4"
         d="m 689,11020 c 98,0 177,79 177,177 0,98 -79,177 -177,177 -98,0 -177,-79 -177,-177 0,-98 79,-177 177,-177 z"
         id="path110"
         inkscape:connector-curvature="0"
         style="fill:#5f772f" /><path
         class="fil5"
         d="m 689,11039 c 87,0 157,71 157,158 0,87 -70,157 -157,157 -87,0 -158,-70 -158,-157 0,-87 71,-158 158,-158 z"
         id="path112"
         inkscape:connector-curvature="0"
         style="fill:#546535" /><path
         class="fil6"
         d="m 689,11059 c 76,0 138,62 138,138 0,76 -62,138 -138,138 -76,0 -138,-62 -138,-138 0,-76 62,-138 138,-138 z"
         id="path114"
         inkscape:connector-curvature="0"
         style="fill:#4a523a" /></g><circle
       class="fil16"
       cx="689"
       cy="11197"
       r="118"
       id="circle116"
       style="fill:#3f3f3f" /></g></svg>