<?xml version="1.0" encoding="UTF-8" standalone="no"?>
<!-- Creator: CorelDRAW X7 -->

<svg
   xmlns:dc="http://purl.org/dc/elements/1.1/"
   xmlns:cc="http://creativecommons.org/ns#"
   xmlns:rdf="http://www.w3.org/1999/02/22-rdf-syntax-ns#"
   xmlns:svg="http://www.w3.org/2000/svg"
   xmlns="http://www.w3.org/2000/svg"
   xmlns:sodipodi="http://sodipodi.sourceforge.net/DTD/sodipodi-0.dtd"
   xmlns:inkscape="http://www.inkscape.org/namespaces/inkscape"
   xml:space="preserve"
   width="7.8740005in"
   height="7.8740005in"
   version="1.1"
   style="clip-rule:evenodd;fill-rule:evenodd;image-rendering:optimizeQuality;shape-rendering:geometricPrecision;text-rendering:geometricPrecision"
   viewBox="0 0 7874.0005 7874.0005"
   id="svg4699"
   inkscape:version="0.91 r13725"
   sodipodi:docname="PanOceania - ORC Troops - [N3] [Vyo].svg"><metadata
     id="metadata4747"><rdf:RDF><cc:Work
         rdf:about=""><dc:format>image/svg+xml</dc:format><dc:type
           rdf:resource="http://purl.org/dc/dcmitype/StillImage" /></cc:Work></rdf:RDF></metadata><sodipodi:namedview
     pagecolor="#ffffff"
     bordercolor="#666666"
     borderopacity="1"
     objecttolerance="10"
     gridtolerance="10"
     guidetolerance="10"
     inkscape:pageopacity="0"
     inkscape:pageshadow="2"
     inkscape:window-width="640"
     inkscape:window-height="480"
     id="namedview4745"
     showgrid="false"
     inkscape:zoom="0.23838384"
     inkscape:cx="736.83001"
     inkscape:cy="849.33005"
     inkscape:window-x="0"
     inkscape:window-y="0"
     inkscape:window-maximized="0"
     inkscape:current-layer="svg4699" /><defs
     id="defs4701"><style
       type="text/css"
       id="style4703"><![CDATA[
    .fil5 {fill:none}
    .fil0 {fill:#00C0FF}
    .fil3 {fill:red}
    .fil2 {fill:white}
    .fil1 {fill:white}
    .fil4 {fill:#00C0FF;fill-rule:nonzero}
   ]]></style></defs><g
     id="Layer_x0020_1"
     transform="translate(3937,-7063)"><metadata
       id="CorelCorpID_0Corel-Layer" /><circle
       class="fil0"
       cy="11000"
       r="3937"
       id="circle4707"
       cx="0"
       style="fill:#00c0ff" /><circle
       class="fil1"
       cy="11000"
       r="3819"
       id="circle4709"
       cx="0"
       style="fill:#ffffff" /><circle
       class="fil0"
       cy="11000"
       r="2756"
       id="circle4711"
       cx="0"
       style="fill:#00c0ff" /><path
       class="fil2"
       d="m 0,8874 1,1 c 383,489 575,1066 589,1638 -175,-24 -353,-39 -533,-44 -778,-24 -1520,138 -2181,445 45,-1134 964,-2040 2124,-2040 z m 493,2423 c -711,293 -1321,787 -1756,1413 128,95 266,175 413,239 148,-76 291,-166 426,-272 463,-363 772,-850 917,-1380 z"
       id="path4713"
       inkscape:connector-curvature="0"
       style="fill:#ffffff" /><path
       class="fil3"
       d="m 0,8874 c 1174,0 2126,952 2126,2126 -461,-14 -907,52 -1323,184 -117,798 -593,1483 -1263,1892 148,33 302,50 460,50 1174,0 2126,-952 2126,-2126 -405,-208 -844,-361 -1306,-449 C 759,9896 456,9308 1,8875 l -1,-1 z"
       id="path4715"
       inkscape:connector-curvature="0"
       style="fill:#ff0000" /><path
       class="fil4"
       d="m -3394,10093 c 6,-21 13,-41 19,-58 6,-18 12,-32 19,-43 6,-11 13,-21 20,-30 34,-37 76,-54 127,-50 23,1 65,10 125,28 31,8 52,15 65,19 13,4 24,7 34,11 9,4 17,7 25,11 24,12 43,26 57,41 14,15 24,34 29,55 5,21 6,46 3,75 -3,29 -10,63 -22,102 -8,28 -15,51 -22,69 -7,17 -15,32 -23,45 -8,12 -18,23 -30,32 -17,15 -35,25 -53,31 -18,5 -39,7 -64,4 -24,-3 -56,-10 -97,-21 -47,-14 -84,-26 -110,-35 -26,-10 -47,-20 -61,-29 -15,-10 -27,-21 -36,-35 -8,-10 -14,-23 -19,-38 -5,-15 -8,-31 -9,-47 -1,-17 -1,-32 2,-47 4,-25 11,-55 21,-90 z m 181,162 16,5 c 5,1 11,3 17,5 8,3 12,4 13,4 2,1 3,1 4,1 34,10 60,16 76,19 16,3 29,2 39,-2 10,-4 19,-12 24,-23 6,-12 13,-31 21,-57 6,-21 9,-38 9,-50 0,-12 -4,-23 -12,-31 -7,-9 -20,-16 -38,-24 -17,-7 -43,-15 -75,-25 -37,-10 -62,-17 -76,-20 -13,-2 -25,-2 -35,0 -9,1 -16,4 -21,9 -6,5 -11,13 -16,24 -5,10 -9,24 -15,42 -8,30 -12,52 -10,66 2,13 10,25 24,35 9,7 27,14 55,22 z"
       id="path4717"
       inkscape:connector-curvature="0"
       style="fill:#00c0ff;fill-rule:nonzero" /><path
       id="1"
       class="fil4"
       d="m -2822,9975 -471,-216 109,-238 c 13,-29 24,-51 35,-66 10,-16 20,-27 30,-35 22,-17 44,-25 68,-25 24,0 53,8 89,25 36,16 62,30 77,43 16,12 25,27 28,43 4,16 3,39 -3,68 l 5,2 c 10,-19 22,-33 34,-43 13,-9 27,-14 43,-14 16,0 34,5 54,14 l 86,39 -59,129 -63,-28 c -22,-11 -40,-14 -53,-11 -13,4 -24,15 -33,35 l -43,94 125,57 -58,127 z m -174,-234 46,-100 c 6,-14 9,-25 9,-33 -1,-9 -6,-17 -14,-24 -9,-7 -25,-16 -47,-26 -17,-7 -29,-12 -38,-12 -9,-1 -17,2 -23,8 -7,6 -14,18 -21,34 l -43,93 131,60 z"
       inkscape:connector-curvature="0"
       style="fill:#00c0ff;fill-rule:nonzero" /><path
       id="2"
       class="fil4"
       d="m -2617,9178 74,-116 13,8 c 27,17 48,33 63,46 14,14 24,27 29,41 6,14 8,31 8,51 0,15 -2,29 -6,40 -3,12 -9,26 -18,42 -10,17 -24,40 -44,71 -16,25 -28,44 -38,57 -10,14 -19,24 -27,32 -8,8 -17,15 -28,21 -25,14 -51,21 -78,19 -27,-2 -57,-12 -90,-30 -14,-7 -40,-22 -79,-47 l -25,-14 -24,-15 c -34,-22 -59,-43 -76,-62 -17,-20 -28,-41 -33,-65 -5,-28 -3,-56 5,-82 9,-26 30,-65 63,-116 23,-37 42,-63 55,-78 13,-14 28,-25 45,-33 12,-6 24,-9 37,-9 14,-1 28,1 42,5 15,5 31,12 47,22 9,5 16,9 22,12 5,3 12,7 20,12 l -74,116 c -2,-2 -4,-3 -5,-3 -1,-1 -2,-1 -4,-2 -15,-9 -27,-14 -36,-14 -9,-1 -18,3 -28,11 -9,9 -20,23 -33,44 -13,21 -21,38 -22,51 -2,13 2,25 12,36 6,8 18,17 34,29 16,11 46,31 89,58 23,15 42,24 56,28 15,3 27,1 38,-6 11,-8 24,-22 37,-43 13,-20 21,-37 25,-49 3,-13 3,-24 -2,-33 -5,-9 -15,-18 -30,-28 -5,-3 -10,-5 -14,-7 z"
       inkscape:connector-curvature="0"
       style="fill:#00c0ff;fill-rule:nonzero" /><polygon
       id="3"
       class="fil4"
       points="-2163,8646 -2293,8770 -2153,8918 -2254,9014 -2611,8637 -2510,8542 -2375,8684 -2244,8560 -2379,8418 -2278,8323 -1922,8699 -2022,8794 "
       style="fill:#00c0ff;fill-rule:nonzero" /><path
       id="4"
       class="fil4"
       d="m -1770,8441 95,-66 4,6 c 19,28 28,54 26,78 -2,18 -9,36 -23,53 -14,16 -37,36 -70,59 -20,13 -37,24 -51,32 -15,8 -29,14 -43,18 -13,3 -25,5 -35,5 -11,0 -22,-2 -33,-6 -7,-3 -15,-6 -22,-12 -8,-5 -16,-12 -24,-20 -8,-8 -16,-18 -25,-29 -10,-12 -20,-27 -32,-44 -20,-29 -34,-54 -42,-75 -8,-22 -10,-41 -7,-60 3,-18 12,-35 26,-52 15,-17 37,-35 66,-55 38,-26 70,-43 97,-49 26,-6 50,-2 73,12 22,14 46,41 73,79 l 19,28 -191,132 c 2,3 4,7 7,12 11,15 20,25 28,31 9,6 18,7 28,6 10,-2 21,-7 34,-16 11,-8 20,-16 25,-22 6,-7 8,-14 7,-21 -1,-7 -4,-15 -10,-24 z m -155,-21 97,-67 c -2,-2 -5,-5 -8,-9 -10,-16 -21,-24 -30,-24 -9,0 -24,7 -45,22 -13,9 -22,16 -27,22 -5,7 -7,13 -5,20 1,7 5,16 12,28 1,1 2,2 3,4 1,1 2,3 3,4 z"
       inkscape:connector-curvature="0"
       style="fill:#00c0ff;fill-rule:nonzero" /><path
       id="5"
       class="fil4"
       d="m -1598,8174 -104,57 -5,-8 c -9,-18 -15,-33 -17,-47 -2,-14 1,-27 7,-39 7,-12 18,-25 34,-38 16,-13 38,-27 65,-42 41,-23 75,-37 101,-43 27,-6 49,-3 68,8 18,11 36,31 52,61 l 116,206 -103,57 -26,-53 -2,1 c 3,17 3,32 0,44 -3,12 -10,23 -20,33 -11,10 -27,22 -49,34 -19,11 -37,18 -53,22 -15,4 -30,4 -42,1 -13,-4 -25,-11 -36,-21 -11,-10 -22,-24 -32,-43 -10,-17 -16,-32 -18,-47 -3,-14 -2,-28 3,-41 5,-12 13,-25 25,-36 12,-12 28,-23 49,-35 20,-11 36,-19 49,-23 13,-5 24,-6 33,-4 10,2 20,7 30,15 l 3,-1 -35,-61 c -8,-15 -18,-24 -29,-26 -11,-2 -25,1 -43,12 -15,8 -24,16 -27,24 -3,8 -1,18 6,33 z m 86,71 c -18,11 -29,20 -33,29 -5,9 -3,19 4,32 7,14 16,21 26,21 10,0 26,-5 48,-18 18,-10 29,-19 33,-28 4,-8 1,-20 -7,-35 -7,-12 -15,-18 -25,-18 -9,0 -25,6 -46,17 z"
       inkscape:connector-curvature="0"
       style="fill:#00c0ff;fill-rule:nonzero" /><path
       id="6"
       class="fil4"
       d="m -1076,7810 58,369 -172,72 -232,-297 115,-48 85,118 c 20,28 48,68 86,121 l 2,-1 -2,-12 c -6,-26 -10,-46 -13,-60 -3,-14 -5,-23 -5,-27 -1,-5 -4,-20 -8,-45 l -27,-143 113,-47 z"
       inkscape:connector-curvature="0"
       style="fill:#00c0ff;fill-rule:nonzero" /><path
       id="7"
       class="fil4"
       d="m -710,7709 25,396 c 1,27 1,51 -2,70 -2,19 -8,36 -16,48 -9,13 -20,24 -35,34 -16,9 -35,17 -60,24 -12,4 -26,8 -40,11 l -23,-78 c 4,-1 10,-2 16,-4 14,-4 25,-10 33,-18 7,-7 12,-17 13,-30 1,-13 0,-28 -5,-46 l -62,18 -207,-317 119,-36 78,131 12,22 c 16,26 24,41 27,45 2,4 4,7 5,9 l 6,12 6,11 7,11 6,11 6,10 2,0 -1,-12 -2,-13 -1,-12 c -1,-7 -4,-44 -11,-112 l -13,-150 117,-35 z"
       inkscape:connector-curvature="0"
       style="fill:#00c0ff;fill-rule:nonzero" /><polygon
       id="8"
       class="fil4"
       points="-372,7624 -503,7635 -512,7517 -103,7483 -93,7602 -233,7613 -201,8012 -339,8023 "
       style="fill:#00c0ff;fill-rule:nonzero" /><path
       id="9"
       class="fil4"
       d="m 43,7752 -119,0 0,-10 c 0,-20 3,-37 8,-50 5,-13 14,-23 26,-31 12,-7 28,-12 48,-16 21,-3 46,-5 77,-4 47,0 84,4 110,12 26,8 44,22 55,40 10,19 15,46 15,80 l -2,236 -118,-1 4,-59 -3,0 c -5,16 -12,29 -21,38 -8,9 -20,16 -34,19 -15,4 -34,5 -59,5 -22,0 -41,-2 -57,-7 -15,-4 -28,-11 -37,-20 -10,-9 -17,-21 -21,-36 -5,-14 -7,-32 -7,-53 0,-19 3,-36 8,-50 5,-14 12,-25 23,-34 10,-8 23,-15 40,-19 15,-4 35,-6 59,-6 23,0 41,1 55,4 13,2 23,7 30,13 8,7 14,16 19,29 l 2,0 1,-71 c 0,-17 -4,-29 -12,-37 -8,-7 -23,-11 -44,-11 -17,0 -29,3 -35,8 -6,5 -10,16 -11,31 z m 40,106 c -21,0 -36,3 -44,8 -8,6 -12,16 -12,30 0,15 4,25 13,31 8,5 24,7 49,8 21,0 36,-3 43,-8 7,-6 11,-17 11,-34 0,-13 -4,-22 -12,-27 -8,-5 -25,-7 -48,-8 z"
       inkscape:connector-curvature="0"
       style="fill:#00c0ff;fill-rule:nonzero" /><path
       id="10"
       class="fil4"
       d="m 546,7910 113,20 c -5,30 -10,52 -15,65 -5,14 -12,26 -21,36 -14,15 -32,23 -52,26 -20,3 -49,1 -89,-5 -46,-8 -81,-18 -103,-29 -22,-11 -39,-26 -51,-47 -8,-15 -13,-33 -13,-53 -1,-21 2,-49 8,-86 7,-37 15,-67 24,-89 9,-23 21,-40 36,-51 14,-12 33,-19 55,-21 22,-2 50,0 83,6 48,8 82,18 105,30 22,12 37,28 43,49 6,21 6,50 0,88 l -113,-19 c 4,-20 3,-35 -2,-42 -5,-8 -17,-13 -36,-17 -19,-3 -33,-3 -41,-1 -9,2 -15,10 -20,21 -5,12 -10,32 -14,60 -6,31 -8,54 -8,67 0,14 3,24 10,29 7,6 20,10 38,14 15,2 27,3 34,1 8,-2 14,-6 18,-14 4,-7 8,-20 11,-38 z"
       inkscape:connector-curvature="0"
       style="fill:#00c0ff;fill-rule:nonzero" /><path
       id="11"
       class="fil4"
       d="m 1024,7800 -24,82 -132,-39 -42,142 c -5,18 -7,31 -6,38 2,7 7,12 17,15 13,4 23,3 29,-3 6,-6 13,-21 20,-44 l 2,-7 91,26 c -1,4 -2,7 -3,8 0,2 -1,4 -2,6 -10,33 -18,55 -23,66 -6,11 -14,20 -25,28 -9,6 -19,10 -30,12 -11,2 -25,2 -41,0 -16,-3 -35,-7 -57,-14 -32,-9 -55,-19 -70,-31 -15,-12 -25,-27 -29,-45 -2,-10 -3,-19 -2,-28 2,-10 4,-22 9,-39 l 48,-163 -42,-12 24,-82 42,12 22,-73 113,33 -21,74 132,38 z"
       inkscape:connector-curvature="0"
       style="fill:#00c0ff;fill-rule:nonzero" /><path
       id="12"
       class="fil4"
       d="m 1232,7709 -28,83 -113,-38 28,-83 113,38 z m -49,147 -116,344 -113,-38 116,-344 113,38 z"
       inkscape:connector-curvature="0"
       style="fill:#00c0ff;fill-rule:nonzero" /><path
       id="13"
       class="fil4"
       d="m 1371,8173 104,48 c -12,27 -23,47 -31,59 -9,12 -19,22 -30,29 -17,11 -36,15 -57,12 -20,-2 -48,-12 -84,-28 -43,-20 -74,-38 -93,-54 -18,-17 -31,-36 -37,-59 -4,-17 -4,-35 1,-55 4,-20 14,-46 30,-80 16,-35 31,-61 46,-81 14,-19 30,-32 47,-39 18,-8 37,-10 59,-6 22,4 48,13 80,27 43,20 74,39 93,56 19,18 29,37 29,59 1,22 -7,50 -23,85 l -104,-47 c 9,-19 12,-33 9,-42 -3,-8 -13,-17 -31,-25 -18,-8 -31,-12 -40,-12 -8,0 -17,5 -24,15 -8,10 -17,28 -29,54 -13,28 -22,49 -25,63 -4,13 -3,23 3,30 5,7 16,15 33,23 14,6 25,10 33,10 8,1 15,-2 21,-9 5,-6 12,-17 20,-33 z"
       inkscape:connector-curvature="0"
       style="fill:#00c0ff;fill-rule:nonzero" /><path
       id="14"
       class="fil4"
       d="m 1676,8216 -100,-64 6,-8 c 11,-17 22,-30 33,-38 11,-8 24,-12 38,-12 14,0 30,4 49,12 19,8 42,20 68,37 39,25 68,48 86,68 17,21 25,42 24,63 -1,22 -11,47 -29,76 l -127,199 -99,-63 35,-48 -3,-2 c -13,11 -26,18 -38,21 -12,4 -25,3 -39,-2 -14,-5 -31,-13 -52,-27 -19,-12 -34,-23 -44,-36 -11,-12 -18,-24 -21,-37 -3,-13 -3,-27 1,-41 4,-15 11,-31 23,-49 10,-16 21,-29 33,-38 11,-9 24,-15 37,-17 14,-1 28,0 44,5 16,5 34,14 54,26 19,13 33,23 43,33 10,9 17,18 19,27 3,10 3,21 1,35 l 2,1 38,-60 c 9,-14 12,-27 9,-37 -3,-11 -13,-22 -31,-33 -14,-9 -26,-13 -34,-12 -8,1 -16,8 -26,21 z m -22,110 c -18,-11 -32,-16 -41,-16 -10,1 -19,7 -26,19 -9,13 -11,24 -6,33 4,8 16,20 37,33 18,11 31,17 41,16 9,-1 18,-8 27,-23 7,-11 9,-21 4,-30 -4,-8 -16,-19 -36,-32 z"
       inkscape:connector-curvature="0"
       style="fill:#00c0ff;fill-rule:nonzero" /><polygon
       id="15"
       class="fil4"
       points="2089,8173 2182,8248 1856,8651 1763,8576 "
       style="fill:#00c0ff;fill-rule:nonzero" /><path
       id="16"
       class="fil4"
       d="m 2392,8746 160,170 -3,3 c -33,33 -59,60 -81,80 -28,27 -53,45 -75,54 -21,9 -44,12 -66,8 -11,-1 -21,-4 -30,-9 -10,-4 -21,-11 -34,-20 -12,-10 -26,-21 -39,-34 -13,-13 -31,-30 -52,-53 -24,-25 -42,-45 -54,-61 -12,-15 -21,-30 -26,-44 -6,-14 -10,-28 -11,-43 -2,-29 3,-56 17,-82 13,-26 35,-54 66,-84 0,0 11,-11 35,-31 12,-11 24,-22 34,-31 10,-9 19,-18 27,-25 8,-7 14,-12 18,-16 5,-3 10,-7 16,-11 51,-35 102,-41 154,-18 12,5 23,11 34,19 11,7 23,17 36,29 13,12 31,30 53,53 26,27 45,49 57,65 13,16 22,31 27,43 12,28 14,54 6,78 -8,24 -28,52 -61,85 l -97,-101 c 13,-16 19,-30 16,-42 -2,-12 -14,-29 -34,-51 -24,-25 -43,-41 -58,-47 -15,-7 -31,-6 -47,2 -10,3 -25,15 -45,34 l -11,10 -21,19 c -28,27 -48,47 -60,61 -12,15 -19,27 -22,38 -3,12 -1,23 5,34 6,11 17,25 34,43 17,18 32,31 45,38 13,8 25,10 36,7 11,-2 24,-10 38,-24 4,-4 8,-7 10,-10 l -66,-70 69,-66 z"
       inkscape:connector-curvature="0"
       style="fill:#00c0ff;fill-rule:nonzero" /><path
       id="17"
       class="fil4"
       d="m 2654,8943 67,97 -51,29 2,2 c 25,-5 45,-5 60,1 15,6 29,18 43,37 11,16 17,29 20,41 4,12 3,24 -1,36 -5,11 -13,23 -25,36 -12,12 -29,26 -50,41 -9,6 -16,12 -23,17 l -62,-88 c 3,-1 5,-3 8,-5 14,-9 24,-17 31,-24 7,-7 10,-13 10,-19 0,-5 -3,-12 -8,-20 -8,-11 -18,-17 -30,-17 -12,-1 -25,4 -39,13 l -10,8 -172,120 -68,-97 298,-208 z"
       inkscape:connector-curvature="0"
       style="fill:#00c0ff;fill-rule:nonzero" /><path
       id="18"
       class="fil4"
       d="m 2946,9385 c 21,37 35,66 40,86 6,20 6,39 1,56 -5,18 -15,34 -30,48 -15,15 -37,30 -68,48 -39,21 -70,36 -95,45 -25,8 -47,11 -66,7 -19,-4 -36,-14 -52,-32 -16,-17 -33,-42 -52,-76 -13,-23 -23,-43 -30,-60 -7,-18 -12,-33 -13,-47 -2,-14 -1,-27 2,-40 4,-14 10,-25 17,-35 8,-10 19,-21 35,-32 16,-11 39,-25 69,-42 36,-20 64,-33 84,-38 21,-5 41,-5 59,2 12,4 22,10 32,18 10,8 20,19 31,33 10,14 22,34 36,59 z m -77,42 c -8,-15 -17,-25 -26,-31 -8,-5 -19,-6 -31,-3 -13,3 -31,11 -53,24 -19,11 -34,20 -46,28 -11,8 -18,16 -23,23 -4,7 -5,15 -4,24 2,8 6,19 13,31 9,16 18,26 27,31 8,5 20,4 35,-1 16,-5 37,-15 66,-31 20,-12 34,-22 43,-30 8,-9 12,-18 12,-28 0,-10 -5,-22 -13,-37 z"
       inkscape:connector-curvature="0"
       style="fill:#00c0ff;fill-rule:nonzero" /><path
       id="19"
       class="fil4"
       d="m 3191,9939 -337,134 -43,-111 72,-21 -1,-3 c -29,3 -52,-1 -70,-14 -19,-12 -34,-32 -45,-60 -16,-39 -18,-71 -7,-97 11,-25 36,-46 74,-61 l 229,-91 44,110 -193,77 c -16,7 -26,11 -31,14 -4,2 -8,5 -11,9 -9,11 -10,26 -2,46 10,26 26,40 48,43 9,0 27,-5 54,-16 l 176,-70 43,111 z"
       inkscape:connector-curvature="0"
       style="fill:#00c0ff;fill-rule:nonzero" /><path
       id="20"
       class="fil4"
       d="m 3224,10040 27,115 -61,9 1,3 c 19,4 34,10 45,17 12,7 21,17 27,29 6,11 12,29 17,52 5,21 7,41 6,57 -1,17 -5,31 -12,43 -10,18 -24,33 -43,42 -20,10 -52,21 -98,31 -48,11 -87,16 -115,14 -28,-2 -49,-12 -65,-29 -15,-16 -27,-42 -35,-77 -5,-21 -7,-39 -6,-53 1,-14 5,-27 12,-37 8,-10 19,-19 34,-28 l 0,-2 -212,49 -27,-119 505,-116 z m -40,200 c -4,-17 -10,-30 -16,-37 -7,-8 -16,-12 -29,-13 -13,-1 -31,2 -57,8 -29,6 -50,13 -63,19 -13,6 -21,15 -24,25 -3,10 -2,24 2,43 4,16 9,28 16,35 7,8 17,11 30,12 13,0 33,-3 59,-9 27,-6 47,-12 60,-18 12,-6 20,-14 23,-24 3,-10 2,-23 -1,-41 z"
       inkscape:connector-curvature="0"
       style="fill:#00c0ff;fill-rule:nonzero" /><circle
       class="fil5"
       cy="11000"
       r="3740"
       id="circle4739"
       cx="0"
       style="fill:none" /><path
       class="fil4"
       d="m -2882,12937 87,110 90,-71 173,220 c 14,19 30,32 47,40 17,8 34,12 52,11 17,-1 34,-5 50,-12 16,-8 32,-17 46,-28 l 31,-24 c 19,-15 34,-30 46,-46 11,-16 19,-32 22,-51 4,-18 2,-38 -6,-60 -7,-22 -21,-45 -41,-71 l -237,-301 -360,283 z m 358,-102 127,162 c 13,16 19,31 18,43 -1,12 -8,23 -21,33 l -14,11 c -11,9 -23,13 -34,13 -12,-1 -23,-7 -32,-19 l -135,-172 91,-71 z m 22,578 118,103 85,-34 214,187 -20,90 118,103 112,-511 -138,-120 -489,182 z m 487,-42 -44,189 -136,-118 180,-71 z m 125,554 126,63 151,-296 1,0 84,417 194,99 208,-409 -125,-64 -151,297 -1,0 -84,-417 -194,-99 -209,409 z m 738,183 c -9,32 -12,59 -9,83 3,23 11,43 24,59 13,16 31,30 53,42 22,11 49,21 82,30 l 217,61 c 32,9 61,15 86,16 24,2 47,-1 67,-8 20,-7 37,-20 51,-38 15,-18 26,-43 35,-75 l 37,-132 c 9,-31 12,-59 9,-82 -2,-24 -10,-43 -24,-60 -13,-16 -31,-30 -53,-41 -22,-12 -49,-22 -82,-31 l -217,-61 c -32,-9 -61,-14 -86,-16 -24,-2 -47,0 -66,8 -20,7 -37,20 -52,38 -15,19 -26,44 -35,75 l -37,132 z m 164,-51 c 8,-30 21,-50 36,-61 16,-12 40,-13 74,-3 l 158,44 c 33,10 54,23 61,41 8,17 8,41 -1,71 l -13,48 c -10,33 -21,55 -35,65 -14,10 -36,10 -67,2 l -174,-49 c -30,-8 -49,-21 -56,-36 -7,-16 -6,-41 4,-74 l 13,-48 z m 541,236 c 0,33 3,60 12,82 9,22 21,39 38,52 17,12 38,21 62,27 24,5 53,9 87,9 l 226,5 c 35,1 63,-2 85,-9 23,-6 40,-15 53,-27 12,-12 21,-26 26,-42 5,-17 8,-35 8,-56 l 1,-43 -140,-3 c -1,14 -2,25 -5,34 -3,8 -8,14 -14,18 -6,5 -14,7 -24,8 -10,1 -24,2 -41,1 l -150,-3 c -32,-1 -53,-8 -64,-21 -10,-14 -15,-38 -14,-73 l 1,-49 c 0,-31 7,-54 19,-69 12,-15 36,-22 71,-21 l 153,3 c 22,1 38,4 49,11 11,7 16,18 16,33 l -1,13 141,3 c 1,-36 -1,-64 -6,-85 -5,-21 -16,-39 -31,-52 -15,-14 -37,-23 -66,-30 -29,-6 -69,-10 -118,-11 l -165,-3 c -34,-1 -63,1 -88,5 -24,5 -45,13 -62,24 -18,12 -31,29 -41,51 -9,21 -14,48 -15,81 l -3,137 z m 743,171 503,-87 -19,-109 -364,63 -13,-72 337,-59 -16,-93 -337,58 -12,-72 355,-62 -18,-105 -494,86 78,452 z m 609,-96 146,-57 8,-91 265,-105 71,59 145,-57 -403,-334 -170,68 -62,517 z m 186,-452 148,126 -167,67 19,-193 z m 550,147 118,-76 -180,-280 1,-1 402,137 183,-118 -248,-385 -118,76 180,280 -1,1 -402,-137 -184,118 249,385 z m 644,-455 101,-97 -317,-331 -102,97 318,331 z m 201,-169 98,-123 -38,-83 177,-223 91,16 97,-122 -516,-88 -114,144 205,479 z m -65,-485 192,36 -112,141 -80,-177 z"
       id="path4741"
       inkscape:connector-curvature="0"
       style="fill:#00c0ff;fill-rule:nonzero" /><circle
       class="fil5"
       cy="11000"
       r="3780"
       id="circle4743"
       cx="0"
       style="fill:none" /></g></svg>