<?xml version="1.0" encoding="UTF-8" standalone="no"?>
<!-- Creator: CorelDRAW X7 -->

<svg
   xmlns:dc="http://purl.org/dc/elements/1.1/"
   xmlns:cc="http://creativecommons.org/ns#"
   xmlns:rdf="http://www.w3.org/1999/02/22-rdf-syntax-ns#"
   xmlns:svg="http://www.w3.org/2000/svg"
   xmlns="http://www.w3.org/2000/svg"
   xmlns:sodipodi="http://sodipodi.sourceforge.net/DTD/sodipodi-0.dtd"
   xmlns:inkscape="http://www.inkscape.org/namespaces/inkscape"
   xml:space="preserve"
   width="7.8740005in"
   height="7.8740005in"
   version="1.1"
   style="clip-rule:evenodd;fill-rule:evenodd;image-rendering:optimizeQuality;shape-rendering:geometricPrecision;text-rendering:geometricPrecision"
   viewBox="0 0 7874.0005 7874.0005"
   id="svg3479"
   inkscape:version="0.91 r13725"
   sodipodi:docname="Ariadna - Caledonian Volunteers - [N3] [Vyo].svg"><metadata
     id="metadata3508"><rdf:RDF><cc:Work
         rdf:about=""><dc:format>image/svg+xml</dc:format><dc:type
           rdf:resource="http://purl.org/dc/dcmitype/StillImage" /></cc:Work></rdf:RDF></metadata><sodipodi:namedview
     pagecolor="#ffffff"
     bordercolor="#666666"
     borderopacity="1"
     objecttolerance="10"
     gridtolerance="10"
     guidetolerance="10"
     inkscape:pageopacity="0"
     inkscape:pageshadow="2"
     inkscape:window-width="640"
     inkscape:window-height="480"
     id="namedview3506"
     showgrid="false"
     inkscape:zoom="0.23838384"
     inkscape:cx="736.83001"
     inkscape:cy="849.33005"
     inkscape:window-x="0"
     inkscape:window-y="0"
     inkscape:window-maximized="0"
     inkscape:current-layer="svg3479" /><defs
     id="defs3481"><style
       type="text/css"
       id="style3483"><![CDATA[
    .fil2 {fill:none}
    .fil0 {fill:#015385}
    .fil1 {fill:white}
    .fil3 {fill:#FFCC00;fill-rule:nonzero}
    .fil4 {fill:white;fill-rule:nonzero}
   ]]></style></defs><g
     id="Layer_x0020_1"
     transform="translate(3937,-7063)"><metadata
       id="CorelCorpID_0Corel-Layer" /><circle
       class="fil0"
       cy="11000"
       r="3937"
       id="circle3487"
       cx="0"
       style="fill:#015385" /><circle
       class="fil1"
       cy="11000"
       r="3819"
       id="circle3489"
       cx="0"
       style="fill:#ffffff" /><circle
       class="fil0"
       cy="11000"
       r="3543"
       id="circle3491"
       cx="0"
       style="fill:#015385" /><path
       class="fil1"
       d="m 0,8559 c 1348,0 2441,1093 2441,2441 0,698 -293,1327 -762,1772 l -3358,0 c -469,-445 -762,-1074 -762,-1772 0,-1348 1093,-2441 2441,-2441 z m -907,4016 1814,0 -907,-907 -907,907 z m 2793,-358 c 232,-359 358,-780 358,-1217 0,-449 -132,-867 -359,-1217 L 668,11000 1886,12217 Z M 1217,9115 C 867,8888 449,8756 0,8756 c -449,0 -867,132 -1217,359 L 0,10332 1217,9115 Z m -3102,668 c -227,350 -359,768 -359,1217 0,437 126,858 358,1217 L -668,11000 -1885,9783 Z"
       id="path3493"
       inkscape:connector-curvature="0"
       style="fill:#ffffff" /><circle
       class="fil2"
       cy="11000"
       r="3898"
       id="circle3495"
       cx="0"
       style="fill:none" /><path
       class="fil3"
       d="m -2817,12008 c -11,5 -19,10 -24,15 -5,4 -7,11 -7,18 0,7 3,17 8,29 4,12 11,27 19,46 9,22 17,39 23,52 6,13 13,23 21,28 7,6 17,8 29,6 12,-2 29,-8 50,-16 26,-12 46,-21 60,-28 14,-8 23,-16 28,-26 4,-9 4,-21 -1,-35 -4,-14 -12,-33 -22,-58 -7,-18 -14,-33 -19,-45 -5,-12 -11,-21 -16,-27 -6,-6 -13,-9 -22,-9 -8,0 -19,2 -33,8 l -37,-86 c 3,-2 6,-3 8,-4 2,-1 5,-2 8,-3 18,-8 35,-14 49,-18 15,-4 28,-6 40,-5 12,0 22,3 31,9 9,5 17,13 23,24 10,18 20,35 28,51 8,16 15,31 21,45 19,46 36,89 49,129 5,16 7,31 4,45 -3,13 -9,26 -20,39 -11,12 -27,24 -46,36 -20,12 -44,24 -73,36 -18,8 -35,15 -50,21 -16,6 -30,11 -44,14 -13,4 -26,6 -38,7 -13,0 -24,-1 -36,-5 -12,-4 -22,-9 -31,-17 -8,-8 -17,-18 -24,-30 -8,-12 -15,-26 -23,-42 -7,-17 -16,-35 -24,-56 -15,-35 -27,-65 -35,-89 -7,-23 -10,-44 -7,-60 2,-17 11,-32 27,-45 15,-12 38,-25 70,-39 l 36,85 z m -23,-482 -135,100 165,32 -30,-132 z m 70,-52 46,198 76,15 24,103 -419,-83 -29,-126 341,-254 24,103 -63,44 z m -350,-290 292,-1 -1,-216 97,0 1,313 -389,1 0,-97 z m 383,-251 -388,-30 26,-349 88,7 -20,255 68,5 18,-238 77,5 -18,238 69,6 19,-255 87,6 -26,350 z m -31,-525 35,-157 c 3,-14 4,-25 4,-34 0,-9 -4,-17 -10,-23 -5,-7 -15,-12 -27,-17 -13,-5 -30,-10 -52,-15 -16,-3 -31,-6 -43,-7 -12,-2 -23,-1 -31,1 -9,2 -16,6 -21,13 -6,6 -9,15 -12,26 l -38,170 195,43 z m 71,115 -379,-85 60,-271 c 2,-8 5,-18 9,-29 3,-11 8,-24 13,-38 8,-22 26,-36 55,-43 29,-7 69,-5 119,6 11,3 26,6 43,11 18,4 38,9 60,15 35,9 60,25 75,47 16,23 20,50 13,81 l -68,306 z m -40,-627 c 18,8 33,15 46,20 12,6 23,9 32,11 9,2 17,2 23,0 6,-2 11,-6 17,-12 5,-6 10,-14 16,-24 5,-10 11,-23 18,-37 14,-30 24,-53 31,-70 7,-17 9,-31 7,-41 -3,-11 -10,-20 -23,-28 -13,-8 -32,-18 -57,-30 -20,-10 -36,-16 -49,-20 -13,-4 -23,-5 -31,-3 -8,3 -15,9 -22,18 -6,9 -12,22 -20,39 -14,29 -26,54 -34,72 -9,19 -13,34 -14,46 0,12 5,22 14,31 9,8 25,17 46,28 z m 7,111 c -33,-16 -62,-30 -85,-42 -24,-12 -43,-24 -58,-37 -14,-12 -24,-26 -29,-40 -5,-15 -5,-33 0,-53 3,-14 12,-38 27,-72 16,-34 36,-79 62,-133 8,-18 17,-33 27,-44 10,-11 22,-19 34,-25 13,-5 27,-7 42,-5 16,1 34,5 54,12 10,3 24,9 39,16 16,7 35,16 56,26 26,12 47,23 63,34 17,11 30,22 39,34 9,12 14,25 16,38 2,14 1,29 -3,46 -4,17 -10,37 -20,58 -9,22 -20,47 -33,75 -15,32 -29,59 -42,80 -13,22 -27,38 -44,48 -16,10 -36,14 -59,11 -22,-2 -51,-11 -86,-27 z m 271,-946 322,217 -85,126 -348,-6 243,163 -51,75 -322,-217 85,-127 347,7 -242,-163 51,-75 z m 146,-161 289,261 -65,71 -289,-260 65,-72 z m 438,-95 -153,-70 53,160 100,-90 z m 80,36 -152,136 24,73 -79,71 -129,-406 96,-87 387,176 -78,70 -69,-33 z m 335,-620 214,325 -127,83 -319,-140 161,244 -76,50 -213,-325 127,-84 318,140 -160,-244 75,-49 z m 691,-254 -58,423 -117,34 -269,-326 101,-30 200,247 41,-318 102,-30 z m 181,141 c 3,20 6,36 8,49 3,14 6,25 9,33 4,9 8,15 13,19 5,4 11,7 19,8 8,1 18,1 29,-1 11,-1 25,-3 41,-6 33,-5 58,-9 75,-13 18,-3 31,-9 39,-17 7,-8 11,-19 10,-35 0,-15 -3,-36 -7,-63 -3,-22 -7,-40 -11,-52 -3,-13 -8,-22 -15,-28 -7,-5 -15,-8 -27,-8 -11,1 -25,2 -43,5 -33,5 -59,9 -79,12 -21,3 -36,8 -46,15 -10,6 -16,16 -18,28 -2,13 -1,31 3,54 z m -88,68 c -6,-36 -10,-68 -14,-94 -3,-27 -3,-49 -1,-68 2,-19 8,-35 17,-47 10,-12 24,-22 44,-30 14,-5 39,-11 75,-17 37,-7 85,-15 145,-24 19,-3 36,-3 51,-1 15,2 28,6 40,14 11,7 20,18 28,32 8,14 15,31 20,51 3,11 6,25 9,42 2,17 6,37 9,60 5,28 7,52 7,72 0,20 -2,37 -7,51 -5,14 -12,26 -22,35 -10,9 -24,17 -40,23 -17,6 -36,12 -59,16 -23,5 -50,9 -81,14 -35,6 -65,9 -90,10 -25,2 -46,-2 -64,-10 -17,-8 -32,-22 -42,-42 -11,-20 -19,-49 -25,-87 z m 599,-301 1,292 216,-1 0,97 -312,1 -2,-389 97,0 z m 621,45 95,14 -36,242 c -6,38 -15,66 -29,86 -13,20 -32,34 -57,40 -14,3 -31,4 -50,2 -19,-1 -41,-4 -65,-8 -26,-4 -49,-7 -70,-10 -21,-4 -40,-8 -56,-13 -16,-5 -29,-11 -40,-19 -11,-8 -20,-18 -26,-30 -6,-13 -10,-28 -11,-46 -1,-19 1,-41 5,-67 l 35,-236 95,14 -30,202 c -2,16 -4,29 -5,40 0,11 0,20 1,27 2,7 5,13 9,17 4,4 10,8 18,11 8,2 18,5 30,7 12,2 26,4 43,6 12,2 23,4 33,5 9,2 18,2 25,3 8,0 14,-1 20,-3 5,-2 10,-5 14,-10 7,-7 11,-16 14,-27 2,-12 5,-26 7,-43 l 31,-204 z m 638,179 -126,368 -144,-49 -85,-338 -94,277 -85,-29 125,-368 144,49 85,337 94,-277 86,30 z m 263,239 -138,257 -85,-46 138,-257 -125,-66 46,-86 332,177 -46,86 -122,-65 z m 15,344 218,-322 290,196 -49,72 -212,-143 -38,56 198,134 -43,64 -198,-134 -38,58 212,143 -49,72 -291,-196 z m 327,240 266,-284 255,240 -59,63 -187,-174 -46,49 174,163 -53,56 -174,-163 -47,51 186,175 -60,64 -255,-240 z m 511,252 84,117 c 1,2 2,4 3,5 1,1 2,3 4,5 6,9 12,16 17,20 5,5 10,7 15,7 6,1 11,-1 17,-4 7,-4 14,-9 23,-15 8,-6 15,-12 19,-16 3,-5 6,-10 6,-16 0,-5 -1,-11 -5,-17 -3,-6 -8,-13 -14,-21 l -88,-123 -81,58 z m -77,55 -81,58 -56,-78 316,-227 170,238 c 11,16 19,30 23,44 4,13 5,26 2,39 -3,12 -10,24 -21,36 -10,12 -25,25 -43,38 -19,14 -35,23 -48,29 -12,5 -24,8 -33,8 -10,-1 -19,-3 -27,-8 -8,-4 -17,-10 -26,-16 3,8 6,16 9,24 3,7 5,15 4,22 -1,8 -4,16 -10,24 -6,8 -16,18 -31,28 l -56,41 -57,-79 42,-30 c 14,-9 22,-19 25,-28 4,-9 1,-20 -9,-34 l -93,-129 z m 492,462 c 8,-5 13,-10 17,-14 3,-4 5,-10 4,-16 0,-6 -2,-13 -6,-21 -4,-8 -9,-19 -16,-31 -1,-2 -2,-4 -3,-5 -1,-2 -2,-3 -3,-5 -11,-18 -20,-32 -27,-44 -7,-12 -13,-22 -18,-28 -6,-7 -12,-11 -18,-12 -6,-1 -13,2 -23,7 -8,5 -13,11 -15,18 -1,7 0,15 5,24 6,13 12,25 18,36 6,11 12,22 17,31 3,6 7,12 10,18 4,6 7,12 10,17 13,23 23,43 31,61 8,18 11,34 11,48 -1,15 -7,29 -18,42 -11,13 -29,26 -54,40 -18,10 -34,17 -47,21 -14,4 -27,5 -38,4 -11,-1 -21,-5 -31,-12 -9,-7 -18,-16 -27,-27 -5,-7 -15,-21 -28,-41 -13,-21 -29,-47 -47,-80 -18,-32 -31,-59 -41,-81 -9,-22 -12,-40 -9,-54 2,-9 6,-18 11,-25 5,-7 11,-13 17,-18 7,-5 15,-11 23,-15 9,-5 19,-10 29,-16 l 46,83 c -4,2 -8,4 -12,6 -4,2 -7,5 -10,8 -2,3 -4,7 -4,12 -1,5 1,12 4,20 2,3 5,10 10,20 5,10 12,22 20,37 11,19 20,35 27,47 7,12 14,21 20,27 5,5 11,8 17,9 5,0 12,-2 19,-7 8,-4 13,-8 16,-13 3,-5 4,-10 3,-16 -1,-6 -3,-12 -6,-19 -3,-6 -7,-13 -11,-21 -15,-27 -28,-51 -40,-72 -12,-20 -21,-39 -28,-55 -8,-16 -12,-30 -15,-43 -2,-12 -2,-24 2,-34 4,-11 11,-21 22,-31 11,-10 25,-20 44,-30 17,-9 32,-16 45,-21 14,-4 26,-6 38,-5 11,1 21,4 31,11 9,6 19,15 28,27 7,8 16,22 28,40 12,19 27,43 43,73 9,16 17,30 24,42 6,13 12,25 16,35 4,10 7,20 8,29 2,9 2,17 0,26 -2,9 -5,17 -10,24 -4,6 -9,13 -15,18 -6,6 -14,11 -22,16 -8,6 -17,11 -26,17 l -46,-82 z m 194,591 c 12,-4 20,-8 25,-12 5,-4 8,-10 9,-17 1,-8 -1,-18 -4,-30 -4,-12 -8,-28 -14,-48 -7,-23 -13,-41 -17,-54 -5,-14 -11,-24 -18,-30 -7,-7 -17,-10 -29,-9 -12,1 -29,4 -51,11 -28,8 -49,15 -63,21 -15,6 -25,13 -30,22 -6,9 -7,21 -4,35 3,15 8,35 16,60 6,19 10,35 14,47 4,13 8,22 13,29 6,6 12,10 21,11 8,1 19,-1 34,-5 l 27,90 c -3,1 -6,2 -8,3 -3,1 -6,2 -9,3 -19,5 -36,9 -51,12 -15,2 -28,2 -40,1 -11,-2 -21,-6 -29,-13 -9,-6 -16,-15 -21,-27 -8,-18 -16,-36 -22,-53 -6,-17 -12,-33 -16,-47 -14,-47 -26,-92 -35,-134 -3,-16 -3,-31 1,-44 4,-14 13,-26 25,-37 12,-11 29,-22 49,-31 21,-10 46,-19 77,-28 19,-6 36,-11 52,-15 16,-5 31,-8 45,-10 13,-2 26,-3 39,-2 12,1 23,4 35,9 11,4 20,11 28,20 8,9 15,19 21,32 7,13 13,28 18,45 6,17 12,36 18,57 11,37 20,68 25,93 5,24 6,45 1,61 -4,16 -15,30 -32,41 -16,11 -41,21 -74,31 l -26,-88 z m 7,269 c -19,3 -36,6 -49,8 -14,3 -25,6 -33,9 -9,3 -15,7 -19,12 -4,5 -7,12 -8,19 -1,8 -1,18 0,29 2,12 4,26 6,42 5,32 9,57 13,75 3,18 9,31 17,38 8,8 19,11 34,11 15,0 37,-2 64,-7 22,-3 40,-6 52,-10 13,-4 22,-9 27,-15 6,-7 9,-16 9,-27 0,-11 -2,-25 -5,-43 -4,-33 -8,-59 -11,-80 -3,-20 -8,-35 -14,-45 -7,-10 -16,-16 -29,-18 -12,-2 -30,-1 -54,2 z m -67,-88 c 36,-6 68,-10 94,-13 27,-3 49,-4 68,-1 19,2 35,8 47,17 12,10 22,25 30,44 5,14 11,39 17,76 6,36 13,85 22,144 3,20 3,37 1,52 -2,15 -7,28 -14,39 -8,11 -19,21 -32,28 -14,8 -31,15 -52,20 -10,3 -24,6 -42,8 -17,3 -37,6 -60,10 -28,4 -52,6 -72,6 -20,0 -37,-2 -51,-7 -14,-5 -26,-13 -35,-23 -9,-10 -16,-24 -22,-40 -7,-17 -12,-36 -16,-59 -5,-23 -9,-50 -14,-81 -5,-35 -8,-65 -9,-90 -1,-25 2,-47 10,-64 8,-17 23,-31 43,-42 20,-11 49,-19 87,-24 z m 89,616 -11,143 c 0,3 0,5 -1,6 0,2 0,4 -1,6 0,12 0,21 1,27 1,7 3,12 7,15 4,4 9,6 16,8 7,1 16,2 27,3 10,1 19,0 25,-1 6,-1 11,-4 14,-7 4,-4 6,-10 8,-16 1,-7 2,-16 3,-26 l 11,-150 -99,-8 z m -94,-7 -100,-8 7,-96 388,29 -22,292 c -2,19 -5,35 -11,48 -5,13 -13,23 -23,31 -11,8 -24,13 -39,15 -16,2 -35,3 -58,1 -23,-2 -41,-5 -55,-9 -13,-4 -23,-9 -31,-15 -7,-7 -12,-14 -16,-23 -3,-9 -6,-18 -9,-29 -3,8 -6,16 -8,24 -2,8 -6,14 -12,20 -5,5 -13,9 -23,12 -9,2 -23,3 -41,2 l -70,-6 7,-96 52,4 c 16,1 29,-1 37,-6 9,-4 13,-15 15,-32 l 12,-158 z m 36,486 -32,144 c -3,14 -2,25 4,33 6,8 18,14 37,18 18,4 32,4 41,1 10,-4 16,-14 20,-30 l 32,-143 -102,-23 z m -165,-136 380,85 -55,249 c -5,22 -11,40 -18,55 -7,15 -17,27 -32,35 -14,8 -31,11 -50,11 -20,0 -42,-4 -69,-9 -28,-7 -51,-14 -68,-21 -18,-8 -32,-17 -41,-28 -9,-11 -15,-25 -16,-41 -2,-15 0,-35 5,-57 1,-4 2,-7 2,-9 1,-3 2,-6 3,-9 l 32,-145 -94,-22 21,-94 z m 53,768 c 9,3 16,4 22,4 5,0 10,-2 15,-7 4,-4 8,-10 12,-18 4,-8 8,-19 13,-32 1,-3 1,-5 2,-6 0,-2 1,-4 2,-6 6,-20 11,-36 16,-49 5,-13 8,-24 9,-32 1,-9 0,-16 -3,-21 -3,-5 -9,-9 -20,-13 -9,-3 -17,-3 -23,0 -7,4 -12,10 -16,20 -5,13 -10,25 -15,37 -5,12 -9,23 -13,33 -2,6 -4,13 -7,19 -2,7 -4,13 -6,19 -9,25 -18,46 -26,63 -9,17 -18,30 -30,39 -12,9 -26,14 -43,14 -17,0 -39,-5 -66,-15 -19,-7 -35,-15 -47,-22 -12,-8 -21,-17 -27,-26 -6,-10 -10,-20 -11,-32 -1,-11 0,-24 3,-38 2,-9 6,-24 13,-48 7,-23 17,-52 30,-87 13,-35 25,-63 36,-84 10,-21 22,-35 34,-42 9,-4 18,-7 26,-8 9,-1 17,0 26,1 8,2 17,5 26,8 10,3 20,7 31,11 l -33,89 c -4,-1 -9,-3 -13,-5 -4,-1 -8,-2 -12,-2 -4,0 -9,2 -13,5 -4,3 -8,8 -11,15 -2,4 -5,11 -10,21 -4,11 -9,24 -15,40 -7,20 -13,37 -18,51 -4,13 -7,24 -7,32 -1,8 0,14 4,18 3,5 9,8 18,11 8,3 14,4 20,3 5,-1 10,-3 14,-7 4,-5 7,-10 10,-17 3,-7 6,-14 9,-23 11,-28 21,-54 29,-76 8,-23 16,-42 23,-58 8,-16 16,-29 24,-39 7,-10 17,-17 27,-21 11,-4 23,-5 37,-3 15,2 32,6 52,14 18,7 33,14 45,21 12,7 22,16 28,25 7,9 11,19 13,31 1,11 0,24 -3,39 -2,10 -6,26 -12,47 -7,22 -16,49 -28,81 -6,16 -11,31 -17,45 -5,13 -10,25 -15,35 -6,10 -11,18 -17,25 -6,7 -12,12 -20,16 -8,4 -16,7 -24,8 -8,2 -16,2 -24,1 -9,-1 -18,-3 -27,-6 -9,-3 -19,-6 -29,-10 l 32,-88 z"
       id="path3497"
       inkscape:connector-curvature="0"
       style="fill:#ffcc00;fill-rule:nonzero" /><path
       class="fil4"
       d="m -1316,13144 0,172 242,0 c 53,0 80,-19 80,-58 l 0,-53 c 0,-41 -25,-61 -75,-61 l -247,0 z m -4,403 263,0 c 51,0 76,-18 76,-54 l 0,-51 c 0,-41 -31,-62 -93,-62 l -246,0 0,167 z m 384,-303 c 0,49 -18,83 -55,101 45,20 67,57 67,111 l 0,26 c 0,86 -44,128 -133,128 l -301,0 c -12,0 -18,-8 -18,-26 l 0,-478 c 0,-16 6,-24 18,-24 l 288,0 c 89,0 134,45 134,135 l 0,27 z"
       id="path3499"
       inkscape:connector-curvature="0"
       style="fill:#ffffff;fill-rule:nonzero" /><path
       id="1"
       class="fil4"
       d="m -475,13614 c 0,74 -40,112 -121,112 l -66,0 c -13,0 -20,-11 -20,-31 0,-20 7,-29 20,-29 l 71,0 c 42,0 64,-17 64,-52 l 0,-4 -195,0 c -92,0 -138,-39 -138,-117 l 0,-262 c 0,-20 8,-30 26,-30 17,0 26,10 26,30 l 0,262 c 0,37 25,56 76,56 l 205,0 0,-318 c 0,-20 8,-30 26,-30 17,0 26,10 26,30 l 0,383 z"
       inkscape:connector-curvature="0"
       style="fill:#ffffff;fill-rule:nonzero" /><path
       id="2"
       class="fil4"
       d="m -64,13267 -206,0 c -54,0 -81,24 -81,72 l 0,145 c 0,43 26,65 77,65 l 123,0 c 58,0 87,-22 87,-65 l 0,-217 z m 53,225 c 0,79 -50,118 -149,118 l -99,0 c -97,0 -145,-37 -145,-111 l 0,-169 c 0,-83 48,-124 145,-124 l 195,0 0,-96 c 0,-21 9,-32 26,-32 18,0 27,11 27,32 l 0,382 z"
       inkscape:connector-curvature="0"
       style="fill:#ffffff;fill-rule:nonzero" /><path
       id="3"
       class="fil4"
       d="m 412,13388 -243,0 c -42,0 -62,18 -62,54 l 0,56 c 0,34 22,51 66,51 l 175,0 c 43,0 64,-26 64,-78 l 0,-83 z m 51,104 c 0,79 -42,118 -124,118 l -156,0 c -87,0 -130,-37 -130,-113 l 0,-53 c 0,-78 42,-117 128,-117 l 230,0 c -3,-40 -25,-60 -64,-60 l -64,0 c -13,0 -20,-11 -20,-31 0,-20 7,-30 20,-30 l 56,0 c 82,0 124,40 124,121 l 0,165 z"
       inkscape:connector-curvature="0"
       style="fill:#ffffff;fill-rule:nonzero" /><path
       id="4"
       class="fil4"
       d="m 915,13582 c 0,21 -9,32 -27,32 -18,0 -27,-11 -27,-32 l 0,-266 c 0,-33 -24,-49 -72,-49 l -133,0 c -49,0 -73,16 -73,49 l 0,266 c 0,21 -9,32 -26,32 -18,0 -26,-11 -26,-32 l 0,-266 c 0,-73 46,-110 140,-110 l 102,0 c 95,0 142,37 142,110 l 0,266 z"
       inkscape:connector-curvature="0"
       style="fill:#ffffff;fill-rule:nonzero" /><path
       id="5"
       class="fil4"
       d="m 1324,13267 -207,0 c -54,0 -81,24 -81,72 l 0,145 c 0,43 26,65 78,65 l 122,0 c 58,0 88,-22 88,-65 l 0,-217 z m 52,225 c 0,79 -50,118 -149,118 l -99,0 c -97,0 -145,-37 -145,-111 l 0,-169 c 0,-83 48,-124 145,-124 l 196,0 0,-96 c 0,-21 8,-32 25,-32 18,0 27,11 27,32 l 0,382 z"
       inkscape:connector-curvature="0"
       style="fill:#ffffff;fill-rule:nonzero" /></g></svg>