<?xml version="1.0" encoding="UTF-8" standalone="no"?>
<!-- Creator: CorelDRAW X7 -->

<svg
   xmlns:dc="http://purl.org/dc/elements/1.1/"
   xmlns:cc="http://creativecommons.org/ns#"
   xmlns:rdf="http://www.w3.org/1999/02/22-rdf-syntax-ns#"
   xmlns:svg="http://www.w3.org/2000/svg"
   xmlns="http://www.w3.org/2000/svg"
   xmlns:sodipodi="http://sodipodi.sourceforge.net/DTD/sodipodi-0.dtd"
   xmlns:inkscape="http://www.inkscape.org/namespaces/inkscape"
   xml:space="preserve"
   width="7.8740005in"
   height="7.8740005in"
   version="1.1"
   style="clip-rule:evenodd;fill-rule:evenodd;image-rendering:optimizeQuality;shape-rendering:geometricPrecision;text-rendering:geometricPrecision"
   viewBox="0 0 7874.0005 7874.0005"
   id="svg3437"
   inkscape:version="0.91 r13725"
   sodipodi:docname="Combined Army - Kornak Gazarot, Superior Warrior-Officer - [N3] [Vyo].svg"><metadata
     id="metadata3457"><rdf:RDF><cc:Work
         rdf:about=""><dc:format>image/svg+xml</dc:format><dc:type
           rdf:resource="http://purl.org/dc/dcmitype/StillImage" /></cc:Work></rdf:RDF></metadata><sodipodi:namedview
     pagecolor="#ffffff"
     bordercolor="#666666"
     borderopacity="1"
     objecttolerance="10"
     gridtolerance="10"
     guidetolerance="10"
     inkscape:pageopacity="0"
     inkscape:pageshadow="2"
     inkscape:window-width="640"
     inkscape:window-height="480"
     id="namedview3455"
     showgrid="false"
     inkscape:zoom="0.23838384"
     inkscape:cx="736.83001"
     inkscape:cy="849.33005"
     inkscape:window-x="0"
     inkscape:window-y="0"
     inkscape:window-maximized="0"
     inkscape:current-layer="svg3437" /><defs
     id="defs3439"><style
       type="text/css"
       id="style3441"><![CDATA[
    .fil0 {fill:black}
    .fil1 {fill:#1774BD}
    .fil3 {fill:#E32527}
    .fil2 {fill:#FFD600}
    .fil4 {fill:white}
   ]]></style></defs><g
     id="Layer_x0020_1"
     transform="translate(3937,-7063)"><metadata
       id="CorelCorpID_0Corel-Layer" /><circle
       class="fil0"
       cy="11000"
       r="3937"
       id="circle3445"
       cx="0"
       style="fill:#000000" /><polygon
       class="fil1"
       points="-1063,10134 -236,9760 -846,8461 -2028,9346 -2677,10724 -2303,11866 -1024,11610 -1280,10862 "
       id="polygon3447"
       style="fill:#1774bd" /><polygon
       class="fil2"
       points="453,12398 20,12063 689,11335 787,10409 1496,10528 1594,11807 "
       id="polygon3449"
       style="fill:#ffd600" /><polygon
       class="fil3"
       points="1969,12713 1024,13382 394,12535 1319,12043 1654,11433 1457,10528 2520,10449 2480,11610 "
       id="polygon3451"
       style="fill:#e32527" /><path
       class="fil4"
       d="m 197,8133 c 1495,101 2677,1346 2677,2867 0,1521 -1182,2766 -2677,2867 l 0,-553 c 150,-12 296,-39 437,-79 -343,-661 -742,-1073 -1192,-1260 -445,-184 -951,-149 -1511,81 356,697 1054,1190 1872,1258 l 0,553 c -1495,-101 -2677,-1346 -2677,-2867 0,-1521 1182,-2766 2677,-2867 l 0,553 c -89,7 -177,20 -263,37 189,564 491,971 918,1219 435,252 1008,346 1731,281 C 1891,9381 1121,8763 197,8686 l 0,-553 z m 806,4962 c 781,-374 1320,-1171 1320,-2095 0,-134 -11,-265 -33,-393 -216,22 -420,31 -614,28 118,225 177,442 183,645 7,194 -33,374 -111,536 -78,159 -194,299 -342,417 -191,154 -437,267 -718,328 110,160 215,338 315,534 z m -3221,-1402 c 327,-134 640,-211 939,-226 -123,-235 -185,-460 -192,-667 -6,-181 29,-349 102,-498 73,-150 182,-280 324,-387 164,-122 370,-213 614,-264 -168,-232 -302,-505 -406,-818 -869,335 -1486,1179 -1486,2167 0,241 37,474 105,693 z m 2629,517 c 305,-34 565,-134 751,-283 100,-80 179,-176 232,-284 51,-105 77,-223 73,-350 -7,-209 -93,-445 -277,-698 -95,-14 -186,-32 -274,-54 63,278 36,545 -61,788 -114,284 -326,531 -602,719 53,50 106,104 158,162 z m -484,-420 c 264,-151 465,-362 563,-607 96,-239 93,-516 -44,-805 -64,-30 -125,-62 -185,-96 -139,-81 -266,-174 -382,-280 -290,24 -524,104 -688,227 -91,68 -161,150 -206,243 -45,94 -67,200 -64,316 7,207 95,447 276,708 135,24 267,63 395,116 115,48 226,107 335,178 z"
       id="path3453"
       inkscape:connector-curvature="0"
       style="fill:#ffffff" /></g></svg>