<?xml version="1.0" encoding="UTF-8" standalone="no"?>
<!-- Creator: CorelDRAW X7 -->

<svg
   xmlns:dc="http://purl.org/dc/elements/1.1/"
   xmlns:cc="http://creativecommons.org/ns#"
   xmlns:rdf="http://www.w3.org/1999/02/22-rdf-syntax-ns#"
   xmlns:svg="http://www.w3.org/2000/svg"
   xmlns="http://www.w3.org/2000/svg"
   xmlns:sodipodi="http://sodipodi.sourceforge.net/DTD/sodipodi-0.dtd"
   xmlns:inkscape="http://www.inkscape.org/namespaces/inkscape"
   xml:space="preserve"
   width="7.8740005in"
   height="7.8740005in"
   version="1.1"
   style="clip-rule:evenodd;fill-rule:evenodd;image-rendering:optimizeQuality;shape-rendering:geometricPrecision;text-rendering:geometricPrecision"
   viewBox="0 0 7874.0005 7874.0005"
   id="svg14402"
   inkscape:version="0.91 r13725"
   sodipodi:docname="image_6028.svg"><metadata
     id="metadata14418"><rdf:RDF><cc:Work
         rdf:about=""><dc:format>image/svg+xml</dc:format><dc:type
           rdf:resource="http://purl.org/dc/dcmitype/StillImage" /></cc:Work></rdf:RDF></metadata><sodipodi:namedview
     pagecolor="#ffffff"
     bordercolor="#666666"
     borderopacity="1"
     objecttolerance="10"
     gridtolerance="10"
     guidetolerance="10"
     inkscape:pageopacity="0"
     inkscape:pageshadow="2"
     inkscape:window-width="640"
     inkscape:window-height="480"
     id="namedview14416"
     showgrid="false"
     inkscape:zoom="0.23838384"
     inkscape:cx="736.83001"
     inkscape:cy="849.33005"
     inkscape:window-x="0"
     inkscape:window-y="0"
     inkscape:window-maximized="0"
     inkscape:current-layer="svg14402" /><defs
     id="defs14404"><style
       type="text/css"
       id="style14406"><![CDATA[
    .fil1 {fill:#403273}
    .fil0 {fill:#FFF700}
   ]]></style></defs><g
     id="Layer_x0020_1"
     transform="translate(3937,-7063)"><metadata
       id="CorelCorpID_0Corel-Layer" /><circle
       class="fil0"
       cy="11000"
       r="3937"
       id="circle14410"
       cx="0"
       style="fill:#fff700" /><circle
       class="fil1"
       cy="11000"
       r="3780"
       id="circle14412"
       cx="0"
       style="fill:#403273" /><path
       class="fil0"
       d="m 0,8795 c -236,0 -1772,0 -1772,473 0,59 40,177 256,177 59,0 138,59 138,79 -118,-20 -197,19 -374,19 -453,0 -689,-177 -689,-374 0,-512 1957,-609 2441,-472 484,-137 2441,-40 2441,472 0,197 -236,374 -689,374 -177,0 -256,-39 -374,-19 0,-20 79,-79 138,-79 216,0 256,-118 256,-177 C 1772,8795 236,8795 0,8795 Z m -1398,3760 c 158,79 256,177 355,276 -79,216 -158,393 -276,571 -413,-237 -453,-532 -79,-847 z m -1417,-216 c 591,-99 1969,0 1969,-473 0,-88 -40,-197 -296,-197 -39,0 -78,-19 -78,-39 78,-39 157,-59 334,-59 453,0 689,177 689,374 0,492 -1181,433 -1791,531 -253,41 -650,-59 -827,-137 z m 4213,216 c -158,79 -256,177 -355,276 79,216 158,393 276,571 413,-237 453,-532 79,-847 z m 1417,-216 c -591,-99 -1969,0 -1969,-473 0,-88 40,-197 296,-197 39,0 78,-19 78,-39 -78,-39 -157,-59 -334,-59 -453,0 -689,177 -689,374 0,492 1181,433 1791,531 253,41 650,-59 827,-137 z m -5906,-1122 c 591,-99 1969,-40 1969,-414 0,-88 -20,-118 -158,-118 -98,0 -216,20 -393,20 -315,0 -512,-158 -512,-394 0,-492 1516,-531 2185,-492 669,-39 2185,0 2185,492 0,236 -197,394 -512,394 -177,0 -295,-20 -393,-20 -138,0 -158,30 -158,118 0,374 1378,315 1969,414 -178,78 -575,178 -827,137 -847,-137 -1792,-19 -1792,-630 0,-196 197,-334 512,-334 177,0 296,39 394,39 138,0 157,-29 157,-118 0,-295 -1141,-374 -1535,-374 -394,0 -1535,79 -1535,374 0,89 19,118 157,118 98,0 217,-39 394,-39 315,0 512,138 512,334 0,611 -945,493 -1792,630 -252,41 -649,-59 -827,-137 z"
       id="path14414"
       inkscape:connector-curvature="0"
       style="fill:#fff700" /></g></svg>