<?xml version="1.0" encoding="UTF-8" standalone="no"?>
<!-- Creator: CorelDRAW X7 -->

<svg
   xmlns:dc="http://purl.org/dc/elements/1.1/"
   xmlns:cc="http://creativecommons.org/ns#"
   xmlns:rdf="http://www.w3.org/1999/02/22-rdf-syntax-ns#"
   xmlns:svg="http://www.w3.org/2000/svg"
   xmlns="http://www.w3.org/2000/svg"
   xmlns:sodipodi="http://sodipodi.sourceforge.net/DTD/sodipodi-0.dtd"
   xmlns:inkscape="http://www.inkscape.org/namespaces/inkscape"
   xml:space="preserve"
   width="7.8740005in"
   height="7.8740005in"
   version="1.1"
   style="clip-rule:evenodd;fill-rule:evenodd;image-rendering:optimizeQuality;shape-rendering:geometricPrecision;text-rendering:geometricPrecision"
   viewBox="0 0 7874.0005 7874.0005"
   id="svg3809"
   inkscape:version="0.91 r13725"
   sodipodi:docname="Haqqislam - Remote 1 Rafiq Remotes - [N3] [Vyo].svg"><metadata
     id="metadata3839"><rdf:RDF><cc:Work
         rdf:about=""><dc:format>image/svg+xml</dc:format><dc:type
           rdf:resource="http://purl.org/dc/dcmitype/StillImage" /></cc:Work></rdf:RDF></metadata><sodipodi:namedview
     pagecolor="#ffffff"
     bordercolor="#666666"
     borderopacity="1"
     objecttolerance="10"
     gridtolerance="10"
     guidetolerance="10"
     inkscape:pageopacity="0"
     inkscape:pageshadow="2"
     inkscape:window-width="640"
     inkscape:window-height="480"
     id="namedview3837"
     showgrid="false"
     inkscape:zoom="0.23838384"
     inkscape:cx="736.83001"
     inkscape:cy="849.33005"
     inkscape:window-x="0"
     inkscape:window-y="0"
     inkscape:window-maximized="0"
     inkscape:current-layer="svg3809" /><defs
     id="defs3811"><style
       type="text/css"
       id="style3813"><![CDATA[
    .fil3 {fill:none}
    .fil0 {fill:#B2C801}
    .fil1 {fill:white}
    .fil2 {fill:#B2C801;fill-rule:nonzero}
   ]]></style></defs><g
     id="Layer_x0020_1"
     transform="translate(3937,-7063)"><metadata
       id="CorelCorpID_0Corel-Layer" /><circle
       class="fil0"
       cy="11000"
       r="3937"
       id="circle3817"
       cx="0"
       style="fill:#b2c801" /><circle
       class="fil1"
       cy="11000"
       r="3780"
       id="circle3819"
       cx="0"
       style="fill:#ffffff" /><circle
       class="fil0"
       cy="11000"
       r="2756"
       id="circle3821"
       cx="0"
       style="fill:#b2c801" /><polygon
       class="fil1"
       points="-2047,11000 0,8441 2047,11000 0,13559 "
       id="polygon3823"
       style="fill:#ffffff" /><polygon
       class="fil0"
       points="0,8567 -1946,11000 0,13433 "
       id="polygon3825"
       style="fill:#b2c801" /><polygon
       class="fil0"
       points="784,11054 903,11422 591,11195 278,11422 397,11054 85,10827 471,10827 591,10460 710,10827 1096,10827 "
       id="polygon3827"
       style="fill:#b2c801" /><path
       class="fil2"
       d="m -2500,8500 82,-73 130,146 143,-127 -130,-146 82,-73 344,388 -82,73 -151,-170 -142,126 151,170 -83,74 -344,-388 z m 671,-521 95,-53 444,346 -98,55 -91,-72 -205,114 13,115 -99,55 -59,-560 z m 115,94 19,193 135,-75 -154,-118 z m 962,-74 130,83 -125,38 -64,-41 c -34,32 -76,55 -125,70 -81,25 -157,20 -227,-15 -70,-34 -116,-87 -137,-158 -15,-48 -16,-95 -3,-142 13,-48 38,-90 75,-127 37,-37 81,-63 132,-79 77,-23 151,-18 222,15 71,34 118,87 141,160 20,67 14,133 -19,196 z m -89,-56 c 13,-36 14,-72 3,-108 -15,-47 -44,-82 -89,-104 -45,-22 -92,-25 -141,-10 -51,16 -89,45 -113,87 -24,42 -29,88 -14,137 17,55 52,92 105,111 41,14 83,15 126,2 25,-8 47,-19 66,-34 l -134,-85 125,-38 66,42 z m 788,-37 109,109 -130,10 -54,-54 c -40,23 -86,36 -136,40 -86,7 -159,-15 -219,-64 -60,-49 -94,-111 -99,-185 -4,-49 6,-96 29,-139 23,-44 57,-79 101,-107 44,-28 93,-44 146,-48 80,-6 152,15 213,64 62,48 96,111 102,187 5,70 -15,132 -62,187 z m -74,-75 c 21,-32 29,-67 27,-105 -4,-49 -25,-89 -64,-120 -39,-31 -84,-45 -136,-41 -52,4 -96,24 -129,60 -33,36 -48,79 -44,131 5,57 31,100 78,130 37,24 78,33 123,30 26,-2 49,-8 71,-18 l -112,-113 131,-10 55,56 z m 313,-359 107,8 -39,517 -108,-8 40,-517 z m 579,146 -90,51 c -22,-40 -47,-62 -76,-67 -14,-2 -26,0 -36,5 -10,5 -16,12 -17,21 -2,8 0,17 5,26 7,11 30,38 68,78 36,38 58,62 65,71 19,24 31,45 37,65 6,20 8,40 4,62 -7,42 -28,74 -65,96 -36,22 -80,29 -132,21 -40,-7 -73,-21 -100,-44 -27,-23 -48,-55 -63,-97 l 98,-35 c 20,50 48,78 83,83 19,3 35,1 49,-7 14,-7 22,-18 24,-30 2,-12 -1,-24 -8,-37 -8,-13 -26,-35 -54,-64 -54,-55 -88,-97 -102,-124 -14,-28 -19,-54 -15,-79 6,-35 26,-63 59,-84 34,-20 73,-27 117,-20 28,5 54,15 77,31 24,16 48,42 72,78 z m 226,-12 102,35 -137,402 151,52 -30,88 -253,-86 167,-491 z m 584,232 96,51 -48,561 -100,-52 11,-116 -207,-109 -90,73 -100,-53 438,-355 z m -16,148 -152,121 136,72 16,-193 z m 538,161 80,68 -135,361 337,-187 80,68 -266,456 -79,-68 167,-289 -305,170 -73,-62 122,-327 -260,208 -80,-69 412,-329 z"
       id="path3829"
       inkscape:connector-curvature="0"
       style="fill:#b2c801;fill-rule:nonzero" /><circle
       class="fil3"
       cy="11000"
       r="3898"
       id="circle3831"
       cx="0"
       style="fill:none" /><path
       class="fil2"
       d="m -1985,13185 89,70 c 49,38 80,69 94,94 14,25 19,53 16,82 -3,30 -16,59 -37,87 -23,29 -49,47 -78,56 -29,8 -61,7 -97,-5 l -49,277 -92,-72 47,-264 -8,-6 -146,186 -83,-65 344,-440 z m -51,237 26,21 c 27,21 48,32 64,33 16,1 30,-6 43,-23 7,-9 11,-20 12,-31 1,-11 -2,-21 -8,-31 -6,-10 -20,-23 -43,-41 l -23,-18 -71,90 z m 537,280 89,52 -208,357 -89,-52 22,-38 c -27,6 -51,8 -73,5 -22,-3 -43,-10 -64,-22 -46,-27 -76,-68 -89,-124 -13,-55 -3,-109 27,-162 32,-55 75,-91 128,-107 53,-16 103,-10 150,17 21,12 39,28 53,47 14,19 24,41 31,66 l 23,-39 z m -137,18 c -28,-16 -56,-19 -86,-11 -30,9 -54,29 -71,60 -18,30 -24,61 -17,92 7,31 25,54 52,70 28,16 57,20 87,11 30,-8 54,-28 73,-60 18,-31 23,-62 16,-92 -8,-30 -26,-53 -54,-70 z m 258,48 35,16 c 17,-38 36,-65 55,-80 20,-16 44,-24 72,-27 28,-2 58,5 89,19 28,13 50,28 66,46 16,18 26,38 31,59 4,21 3,45 -5,73 l -98,-45 c 1,-12 -1,-23 -6,-33 -6,-9 -14,-16 -25,-21 -10,-5 -21,-6 -31,-5 -11,2 -21,7 -30,15 -6,6 -14,19 -24,42 l 56,25 -37,80 -55,-25 -135,295 -95,-43 135,-295 -34,-16 36,-80 z m 230,105 94,43 -171,375 -94,-42 171,-376 z m 443,139 100,28 -151,543 -100,-27 52,-188 c -24,13 -48,21 -70,23 -21,3 -44,1 -67,-5 -51,-14 -90,-47 -117,-97 -26,-50 -31,-105 -15,-164 17,-61 49,-106 97,-135 47,-29 96,-37 148,-22 24,6 46,17 64,32 19,15 34,33 47,56 l 12,-44 z m -128,53 c -31,-9 -59,-5 -86,11 -26,16 -44,41 -54,75 -9,35 -7,66 8,94 15,28 37,46 68,54 31,9 60,6 87,-11 26,-15 45,-41 55,-77 9,-34 7,-65 -8,-92 -15,-27 -38,-45 -70,-54 z m 509,-127 113,2 c 62,1 106,7 132,19 26,11 47,30 62,56 15,26 23,56 22,91 -1,37 -10,67 -28,92 -18,24 -45,42 -80,54 l 127,251 -117,-2 -120,-239 -11,0 -5,236 -106,-2 11,-558 z m 102,220 34,1 c 34,0 57,-4 70,-12 13,-9 20,-24 21,-44 0,-12 -3,-23 -9,-32 -7,-10 -15,-16 -26,-20 -10,-5 -30,-7 -59,-7 l -29,-1 -2,115 z m 740,137 -331,26 c 7,29 22,51 44,67 22,16 49,22 81,20 38,-3 70,-19 96,-48 l 89,34 c -19,32 -43,57 -72,74 -29,17 -64,27 -106,31 -64,4 -118,-12 -162,-49 -43,-38 -68,-87 -72,-148 -5,-63 11,-117 49,-161 37,-45 86,-69 147,-74 65,-5 119,12 163,50 44,38 68,91 73,159 l 1,19 z m -108,-72 c -9,-22 -24,-40 -45,-52 -21,-13 -45,-18 -72,-16 -28,2 -53,12 -74,30 -12,10 -24,29 -34,55 l 225,-17 z m 115,-158 99,-29 14,46 c 11,-23 26,-43 44,-58 18,-15 40,-27 65,-34 24,-7 49,-7 72,-1 24,7 45,20 64,40 9,-28 23,-52 43,-70 19,-19 43,-33 70,-40 28,-9 55,-9 80,-2 26,7 46,19 62,38 15,18 30,51 43,99 l 67,232 -99,29 -58,-201 c -13,-44 -27,-73 -43,-86 -16,-12 -35,-15 -58,-9 -17,5 -31,14 -42,28 -11,14 -17,30 -19,49 -2,19 3,47 14,85 l 51,178 -99,29 -55,-191 c -11,-36 -21,-61 -31,-75 -9,-14 -21,-24 -33,-29 -13,-4 -27,-5 -42,0 -17,5 -31,14 -41,28 -11,13 -17,30 -19,50 -2,19 3,48 14,86 l 50,176 -99,29 -114,-397 z m 812,-288 c 34,-18 71,-27 111,-26 39,2 75,13 108,33 32,21 58,48 75,82 18,35 27,72 25,110 -1,39 -12,75 -33,108 -21,32 -49,58 -85,76 -52,28 -107,33 -164,15 -56,-18 -99,-53 -127,-106 -30,-58 -33,-116 -11,-176 19,-52 53,-91 101,-116 z m 46,85 c -28,15 -47,37 -56,67 -8,30 -4,60 12,91 16,32 39,53 68,62 29,10 58,8 87,-7 29,-16 47,-38 56,-68 9,-30 5,-60 -11,-92 -17,-31 -40,-51 -69,-61 -29,-10 -58,-7 -87,8 z m 139,-348 87,-57 83,129 51,-34 49,75 -52,34 176,271 -87,57 -176,-272 -44,28 -49,-75 45,-28 -83,-128 z m 728,-51 -262,204 c 21,20 46,31 73,32 27,1 53,-9 79,-28 30,-24 48,-55 53,-93 l 94,-21 c 2,37 -5,71 -19,102 -15,30 -39,58 -72,83 -51,40 -105,56 -162,49 -57,-8 -105,-36 -142,-84 -39,-50 -55,-103 -48,-161 7,-58 34,-105 83,-143 51,-40 105,-56 163,-48 58,8 107,38 149,92 l 11,16 z m -131,-1 c -19,-13 -41,-20 -65,-19 -25,2 -48,10 -69,27 -23,17 -38,39 -45,65 -5,16 -4,38 2,65 l 177,-138 z"
       id="path3833"
       inkscape:connector-curvature="0"
       style="fill:#b2c801;fill-rule:nonzero" /><circle
       class="fil3"
       cy="11000"
       r="3898"
       id="circle3835"
       cx="0"
       style="fill:none" /></g></svg>