<?xml version="1.0" encoding="UTF-8" standalone="no"?>
<!-- Creator: CorelDRAW X7 -->

<svg
   xmlns:dc="http://purl.org/dc/elements/1.1/"
   xmlns:cc="http://creativecommons.org/ns#"
   xmlns:rdf="http://www.w3.org/1999/02/22-rdf-syntax-ns#"
   xmlns:svg="http://www.w3.org/2000/svg"
   xmlns="http://www.w3.org/2000/svg"
   xmlns:sodipodi="http://sodipodi.sourceforge.net/DTD/sodipodi-0.dtd"
   xmlns:inkscape="http://www.inkscape.org/namespaces/inkscape"
   xml:space="preserve"
   width="7.8740005in"
   height="7.8740005in"
   version="1.1"
   style="clip-rule:evenodd;fill-rule:evenodd;image-rendering:optimizeQuality;shape-rendering:geometricPrecision;text-rendering:geometricPrecision"
   viewBox="0 0 7874.0005 7874.0005"
   id="svg22818"
   inkscape:version="0.91 r13725"
   sodipodi:docname="image_7033.svg"><metadata
     id="metadata22844"><rdf:RDF><cc:Work
         rdf:about=""><dc:format>image/svg+xml</dc:format><dc:type
           rdf:resource="http://purl.org/dc/dcmitype/StillImage" /></cc:Work></rdf:RDF></metadata><sodipodi:namedview
     pagecolor="#ffffff"
     bordercolor="#666666"
     borderopacity="1"
     objecttolerance="10"
     gridtolerance="10"
     guidetolerance="10"
     inkscape:pageopacity="0"
     inkscape:pageshadow="2"
     inkscape:window-width="640"
     inkscape:window-height="480"
     id="namedview22842"
     showgrid="false"
     inkscape:zoom="0.23838384"
     inkscape:cx="736.83001"
     inkscape:cy="849.33005"
     inkscape:window-x="0"
     inkscape:window-y="0"
     inkscape:window-maximized="0"
     inkscape:current-layer="svg22818" /><defs
     id="defs22820"><style
       type="text/css"
       id="style22822"><![CDATA[
    .fil2 {fill:none}
    .fil1 {fill:black}
    .fil0 {fill:white}
    .fil3 {fill:white;fill-rule:nonzero}
   ]]></style></defs><g
     id="Layer_x0020_1"
     transform="translate(3937,-7063)"><metadata
       id="CorelCorpID_0Corel-Layer" /><circle
       class="fil0"
       cy="11000"
       r="3937"
       id="circle22826"
       cx="0"
       style="fill:#ffffff" /><path
       class="fil1"
       d="m 741,7293 c 1733,345 3039,1873 3039,3707 0,2087 -1693,3780 -3780,3780 -2087,0 -3780,-1693 -3780,-3780 0,-1834 1306,-3362 3039,-3707 57,-11 113,26 124,83 12,58 -25,114 -83,125 l 0,0 c -1293,314 -2253,1479 -2253,2869 0,1631 1322,2953 2953,2953 1631,0 2953,-1322 2953,-2953 0,-1390 -960,-2555 -2253,-2869 l 0,0 c -58,-11 -95,-67 -83,-125 11,-57 67,-94 124,-83 z"
       id="path22828"
       inkscape:connector-curvature="0"
       style="fill:#000000" /><path
       class="fil1"
       d="m 177,9524 c 468,0 847,379 847,846 0,468 -379,847 -847,847 -467,0 -846,-379 -846,-847 0,-467 379,-846 846,-846 z m 0,98 c 413,0 748,335 748,748 0,413 -335,748 -748,748 -413,0 -748,-335 -748,-748 0,-413 335,-748 748,-748 z"
       id="path22830"
       inkscape:connector-curvature="0"
       style="fill:#000000" /><path
       class="fil1"
       d="m -1850,9740 c 78,79 236,158 354,158 394,0 748,-433 1732,-433 1024,0 1536,748 1536,1535 0,79 -80,118 -118,118 -79,0 -119,-79 -197,-79 -79,0 -748,355 -1496,355 -1260,0 -1733,-906 -1811,-1654 z m 196,276 c 40,39 158,39 197,39 512,0 827,-394 1614,-394 788,0 1182,473 1418,1260 -40,-39 -79,-39 -118,-39 -79,0 -670,275 -1457,275 -984,0 -1496,-551 -1654,-1141 z"
       id="path22832"
       inkscape:connector-curvature="0"
       style="fill:#000000" /><path
       class="fil1"
       d="m 0,7929 c 1370,0 2480,1111 2480,2480 0,1370 -1110,2481 -2480,2481 -1370,0 -2480,-1111 -2480,-2481 0,-1369 1110,-2480 2480,-2480 z m 0,236 c 1239,0 2244,1005 2244,2244 0,1240 -1005,2245 -2244,2245 -1239,0 -2244,-1005 -2244,-2245 0,-1239 1005,-2244 2244,-2244 z"
       id="path22834"
       inkscape:connector-curvature="0"
       style="fill:#000000" /><circle
       class="fil1"
       cx="177"
       cy="10370"
       r="354"
       id="circle22836"
       style="fill:#000000" /><circle
       class="fil2"
       cy="11000"
       r="3898"
       id="circle22838"
       cx="0"
       style="fill:none" /><path
       class="fil3"
       d="m -972,13585 c -16,-5 -28,-8 -36,-9 -8,-1 -15,0 -22,3 -6,2 -13,8 -21,16 -7,8 -16,22 -27,41 l -214,365 c -11,18 -18,33 -22,42 -3,10 -5,18 -5,25 1,7 3,14 8,22 5,7 14,17 27,29 l -13,20 -203,-119 13,-20 c 20,7 36,10 46,9 10,-1 19,-6 28,-14 8,-8 19,-24 32,-47 l 95,-161 c 24,-42 50,-85 77,-127 27,-43 46,-72 58,-86 l -9,-5 -437,304 -56,-33 70,-529 -9,-5 c -8,19 -25,51 -50,96 -25,46 -51,93 -79,140 l -90,154 c -11,19 -18,33 -22,43 -4,9 -5,18 -5,25 1,7 3,14 8,21 4,8 13,17 26,29 l -12,21 -177,-104 12,-21 c 22,8 39,11 49,9 10,-1 19,-7 27,-15 8,-9 18,-24 30,-45 l 214,-364 c 11,-20 19,-34 22,-44 4,-10 5,-18 4,-25 -1,-8 -3,-14 -8,-21 -4,-7 -13,-16 -26,-28 l 13,-21 173,102 -69,510 428,-300 164,96 -12,21 z m 415,714 c -47,19 -90,23 -128,12 -56,-15 -77,-68 -64,-159 l -6,-2 c -74,74 -147,101 -219,81 -54,-14 -91,-45 -110,-92 -20,-47 -19,-106 0,-178 21,-74 59,-127 114,-159 55,-32 113,-39 175,-22 45,12 78,32 99,58 21,26 35,63 41,113 l 8,2 70,-104 89,24 -6,24 c -36,27 -88,82 -158,164 -10,66 -14,116 -13,150 1,35 13,56 36,62 15,4 34,2 59,-7 l 13,33 z m -172,-253 c 10,-73 9,-127 -2,-161 -11,-35 -34,-57 -70,-67 -39,-10 -74,-1 -107,29 -33,30 -58,75 -74,135 -32,116 -15,183 51,202 71,19 138,-27 202,-138 z m 364,363 c -28,40 -53,79 -75,117 l -112,-8 2,-23 c 19,-16 56,-56 109,-119 l 159,-189 c -23,-79 -42,-137 -58,-175 -15,-39 -28,-64 -40,-75 -11,-11 -25,-18 -41,-19 -13,-1 -30,4 -52,15 l -21,-30 c 43,-25 82,-37 118,-34 37,3 64,20 81,51 18,31 40,104 65,220 l 89,-128 c 35,-51 59,-88 73,-111 l 111,8 -2,24 c -20,15 -56,54 -109,117 l -138,165 c 35,125 62,205 80,240 18,34 40,52 66,54 13,1 30,-5 51,-16 l 21,31 c -44,25 -82,37 -114,34 -41,-3 -70,-20 -88,-52 -17,-32 -40,-114 -68,-246 l -107,149 z m 1062,-146 c -36,35 -74,56 -114,61 -57,8 -97,-33 -121,-121 l -6,0 c -39,97 -96,151 -170,161 -55,8 -101,-6 -137,-42 -37,-35 -60,-90 -70,-163 -10,-76 4,-140 42,-191 39,-51 89,-81 152,-89 47,-7 85,-2 114,14 30,15 57,45 83,88 l 8,-1 23,-124 92,-12 3,24 c -22,39 -49,110 -81,213 17,64 33,112 48,143 15,32 34,46 57,43 15,-2 32,-12 51,-30 l 26,26 z m -258,-165 c -20,-72 -42,-121 -66,-148 -23,-28 -53,-39 -90,-34 -40,6 -69,29 -87,69 -19,40 -24,91 -15,153 16,120 58,174 126,165 73,-10 117,-78 132,-205 z m -40,-490 3,25 -103,199 -43,-12 44,-198 99,-14 z m 726,487 c -13,62 -55,104 -125,128 -65,21 -122,19 -170,-4 -49,-24 -83,-68 -104,-131 -33,-102 2,-208 104,-320 l 40,22 c -60,76 -73,166 -39,269 18,54 41,91 70,111 28,20 60,25 94,13 31,-10 51,-28 61,-55 10,-27 9,-60 -4,-99 l -52,-162 93,-30 52,161 c 13,40 32,68 56,83 24,16 51,18 82,8 36,-11 59,-34 70,-68 10,-34 7,-77 -10,-129 -18,-54 -41,-96 -71,-125 -30,-30 -70,-53 -120,-69 l 21,-42 c 149,32 239,98 272,198 21,65 18,121 -9,168 -26,48 -71,81 -134,102 -69,23 -128,13 -177,-29 z m 200,-501 118,-76 c 83,47 194,134 333,260 16,-132 2,-231 -41,-298 -21,-32 -45,-57 -72,-74 l -14,-21 92,-60 c 16,16 29,33 41,51 32,49 50,105 55,170 5,65 0,161 -15,288 l -63,41 c -95,-80 -175,-144 -238,-189 -64,-46 -106,-71 -126,-75 -20,-4 -39,-2 -56,5 l -14,-22 z"
       id="path22840"
       inkscape:connector-curvature="0"
       style="fill:#ffffff;fill-rule:nonzero" /></g></svg>