<?xml version="1.0" encoding="UTF-8" standalone="no"?>
<!-- Creator: CorelDRAW X7 -->

<svg
   xmlns:dc="http://purl.org/dc/elements/1.1/"
   xmlns:cc="http://creativecommons.org/ns#"
   xmlns:rdf="http://www.w3.org/1999/02/22-rdf-syntax-ns#"
   xmlns:svg="http://www.w3.org/2000/svg"
   xmlns="http://www.w3.org/2000/svg"
   xmlns:sodipodi="http://sodipodi.sourceforge.net/DTD/sodipodi-0.dtd"
   xmlns:inkscape="http://www.inkscape.org/namespaces/inkscape"
   xml:space="preserve"
   width="7.8740005in"
   height="7.8740005in"
   version="1.1"
   style="clip-rule:evenodd;fill-rule:evenodd;image-rendering:optimizeQuality;shape-rendering:geometricPrecision;text-rendering:geometricPrecision"
   viewBox="0 0 7874.0005 7874.0005"
   id="svg8175"
   inkscape:version="0.91 r13725"
   sodipodi:docname="image_4012.svg"><metadata
     id="metadata8191"><rdf:RDF><cc:Work
         rdf:about=""><dc:format>image/svg+xml</dc:format><dc:type
           rdf:resource="http://purl.org/dc/dcmitype/StillImage" /></cc:Work></rdf:RDF></metadata><sodipodi:namedview
     pagecolor="#ffffff"
     bordercolor="#666666"
     borderopacity="1"
     objecttolerance="10"
     gridtolerance="10"
     guidetolerance="10"
     inkscape:pageopacity="0"
     inkscape:pageshadow="2"
     inkscape:window-width="640"
     inkscape:window-height="480"
     id="namedview8189"
     showgrid="false"
     inkscape:zoom="0.23838384"
     inkscape:cx="736.83001"
     inkscape:cy="849.33005"
     inkscape:window-x="0"
     inkscape:window-y="0"
     inkscape:window-maximized="0"
     inkscape:current-layer="svg8175" /><defs
     id="defs8177"><style
       type="text/css"
       id="style8179"><![CDATA[
    .fil1 {fill:#B2C801}
    .fil0 {fill:#EECE00}
    .fil2 {fill:#F8DB46}
   ]]></style></defs><g
     id="Layer_x0020_1"
     transform="translate(3937,-7063)"><metadata
       id="CorelCorpID_0Corel-Layer" /><circle
       class="fil0"
       cy="11000"
       r="3937"
       id="circle8183"
       cx="0"
       style="fill:#eece00" /><circle
       class="fil1"
       cy="11000"
       r="3819"
       id="circle8185"
       cx="0"
       style="fill:#b2c801" /><path
       class="fil2"
       d="m 2120,8992 c -994,0 -1819,722 -1980,1670 -142,-38 -264,-61 -412,-72 -189,-912 -997,-1598 -1966,-1598 -17,0 -35,0 -52,1 611,332 1053,934 1166,1647 -532,99 -1063,331 -1317,754 462,-206 821,-328 1344,-334 -22,841 -498,1569 -1193,1947 17,1 35,1 52,1 1065,0 1935,-828 2004,-1875 118,18 236,39 355,57 96,1020 954,1818 1999,1818 17,0 34,0 52,-1 -636,-346 -1090,-986 -1178,-1737 596,3 1214,-129 1447,-664 -455,256 -808,348 -1458,245 51,-803 519,-1494 1189,-1858 -18,-1 -35,-1 -52,-1 z"
       id="path8187"
       inkscape:connector-curvature="0"
       style="fill:#f8db46" /></g></svg>