<?xml version="1.0" encoding="UTF-8" standalone="no"?>
<!-- Creator: CorelDRAW X7 -->

<svg
   xmlns:dc="http://purl.org/dc/elements/1.1/"
   xmlns:cc="http://creativecommons.org/ns#"
   xmlns:rdf="http://www.w3.org/1999/02/22-rdf-syntax-ns#"
   xmlns:svg="http://www.w3.org/2000/svg"
   xmlns="http://www.w3.org/2000/svg"
   xmlns:sodipodi="http://sodipodi.sourceforge.net/DTD/sodipodi-0.dtd"
   xmlns:inkscape="http://www.inkscape.org/namespaces/inkscape"
   xml:space="preserve"
   width="7.8740005in"
   height="7.8740005in"
   version="1.1"
   style="clip-rule:evenodd;fill-rule:evenodd;image-rendering:optimizeQuality;shape-rendering:geometricPrecision;text-rendering:geometricPrecision"
   viewBox="0 0 7874.0005 7874.0005"
   id="svg4168"
   inkscape:version="0.91 r13725"
   sodipodi:docname="image_2049.svg"><metadata
     id="metadata4184"><rdf:RDF><cc:Work
         rdf:about=""><dc:format>image/svg+xml</dc:format><dc:type
           rdf:resource="http://purl.org/dc/dcmitype/StillImage" /></cc:Work></rdf:RDF></metadata><sodipodi:namedview
     pagecolor="#ffffff"
     bordercolor="#666666"
     borderopacity="1"
     objecttolerance="10"
     gridtolerance="10"
     guidetolerance="10"
     inkscape:pageopacity="0"
     inkscape:pageshadow="2"
     inkscape:window-width="640"
     inkscape:window-height="480"
     id="namedview4182"
     showgrid="false"
     inkscape:zoom="0.23838384"
     inkscape:cx="736.83001"
     inkscape:cy="849.33005"
     inkscape:window-x="0"
     inkscape:window-y="0"
     inkscape:window-maximized="0"
     inkscape:current-layer="svg4168" /><defs
     id="defs4170"><style
       type="text/css"
       id="style4172"><![CDATA[
    .fil0 {fill:#E2001A}
    .fil1 {fill:white}
   ]]></style></defs><g
     id="Layer_x0020_1"
     transform="translate(3937,-7063)"><metadata
       id="CorelCorpID_0Corel-Layer" /><circle
       class="fil0"
       cy="11000"
       r="3937"
       id="circle4176"
       cx="0"
       style="fill:#e2001a" /><circle
       class="fil1"
       cy="11000"
       r="3661"
       id="circle4178"
       cx="0"
       style="fill:#ffffff" /><path
       class="fil0"
       d="m 0,13461 c -79,0 -120,42 -138,98 -197,610 -551,571 -733,544 -39,-5 -45,22 -15,47 217,177 663,236 886,236 223,0 669,-59 886,-236 30,-25 24,-52 -15,-47 -182,27 -536,66 -733,-544 -18,-56 -59,-98 -138,-98 z m 591,-571 c 157,-99 492,-374 629,-670 29,146 -59,808 -295,1024 -87,80 -236,68 -315,-20 -88,-97 -106,-280 -19,-334 z m -1182,0 c -157,-99 -492,-374 -629,-670 -29,146 59,808 295,1024 87,80 236,68 315,-20 88,-97 106,-280 19,-334 z M 0,10311 c 354,0 315,158 295,256 -78,-59 -216,-79 -295,-79 -79,0 -217,20 -295,79 -20,-98 -59,-256 295,-256 z m -1004,79 c -453,-59 -630,-177 -787,-374 157,945 499,934 1088,909 179,-7 258,97 329,252 -20,-630 -302,-744 -630,-787 z m 2008,0 c 453,-59 630,-177 787,-374 -157,945 -499,934 -1088,909 -179,-7 -258,97 -329,252 20,-630 302,-744 630,-787 z M -335,9799 c -122,0 -250,-24 -373,-62 -282,-612 -385,-1090 -434,-1906 -236,236 -260,829 -118,1338 39,139 94,266 157,387 -58,-36 -111,-74 -157,-111 -265,-217 -413,-532 -492,-1102 -39,39 -50,74 -59,137 -59,433 -4,890 138,1063 161,197 471,320 848,482 72,119 136,233 175,345 -156,-104 -332,-84 -570,-177 -808,-315 -670,-807 -1103,-1004 -54,-24 -92,10 -59,59 256,374 551,1083 571,1673 2,52 0,158 -39,158 -178,0 -344,-480 -512,-571 79,177 202,824 216,1043 40,591 335,1083 748,1083 62,0 117,-12 165,-31 -9,-49 -16,-98 -22,-147 -4,-42 -8,-84 -9,-126 -24,6 -48,9 -75,9 -459,0 -610,-532 -669,-867 -15,-87 -39,-236 -79,-354 118,79 178,236 414,236 157,0 256,-78 325,-233 7,-17 37,-35 55,-32 506,88 683,-148 899,187 32,49 92,58 99,0 19,-178 19,-256 19,-315 0,-120 178,-178 276,-178 l 0,0 0,0 c 98,0 276,58 276,178 0,59 0,137 19,315 7,58 67,49 99,0 216,-335 393,-99 899,-187 18,-3 48,15 55,32 69,155 168,233 325,233 236,0 296,-157 414,-236 -40,118 -64,267 -79,354 -59,335 -210,867 -669,867 -27,0 -51,-3 -75,-9 -1,42 -5,84 -9,126 -6,49 -13,98 -22,147 48,19 103,31 165,31 413,0 708,-492 748,-1083 14,-219 137,-866 216,-1043 -168,91 -334,571 -512,571 -39,0 -41,-106 -39,-158 20,-590 315,-1299 571,-1673 33,-49 -5,-83 -59,-59 -433,197 -295,689 -1103,1004 -238,93 -414,73 -570,177 39,-112 102,-226 175,-345 377,-162 687,-285 848,-482 142,-173 197,-630 138,-1063 -9,-63 -20,-98 -59,-137 -79,570 -227,885 -492,1102 -46,37 -99,75 -157,111 63,-121 118,-248 157,-387 142,-509 118,-1102 -118,-1338 -49,816 -153,1294 -434,1906 -123,38 -251,62 -373,62 -59,0 -79,41 -79,79 0,45 -7,123 7,203 -70,41 -172,53 -263,53 l 0,0 0,0 c -91,0 -193,-12 -263,-53 14,-80 7,-158 7,-203 0,-38 -20,-79 -79,-79 z m -691,2649 c 79,-91 132,-189 180,-228 39,40 138,127 293,132 120,3 117,-85 212,-85 138,0 203,174 203,249 0,19 40,59 138,59 l 0,0 0,0 c 98,0 138,-40 138,-59 0,-75 65,-249 203,-249 95,0 92,88 212,85 155,-5 254,-92 293,-132 48,39 101,137 180,228 44,-54 86,-112 121,-173 -272,-199 -326,-804 -655,-812 -256,-7 -224,263 -169,208 39,-40 46,-68 125,-71 359,-9 241,620 5,561 39,-98 -20,-118 -118,-118 -94,0 -237,99 -197,158 6,9 -99,59 -138,59 l 0,0 0,0 c -39,0 -144,-50 -138,-59 40,-59 -103,-158 -197,-158 -98,0 -157,20 -118,118 -236,59 -354,-570 5,-561 79,3 86,31 125,71 55,55 87,-215 -169,-208 -329,8 -383,613 -655,812 35,61 77,119 121,173 z M 0,13205 c 157,0 295,0 413,-79 -78,157 -216,177 -413,177 -197,0 -335,-20 -413,-177 118,79 256,79 413,79 z m 427,-406 c -42,-47 -106,-86 -171,-86 -99,0 -138,98 -256,98 l 0,0 c -118,0 -157,-98 -256,-98 -65,0 -129,39 -171,86 -50,8 -106,24 -164,44 7,4 14,9 21,13 51,32 72,89 74,148 64,-35 132,-68 201,-94 95,31 195,39 295,39 l 0,0 c 100,0 200,-8 295,-39 69,26 137,59 201,94 2,-59 23,-116 74,-148 7,-4 14,-9 21,-13 -58,-20 -114,-36 -164,-44 z m -1503,304 c -54,82 18,228 141,184 -6,-4 -11,-9 -17,-14 -49,-45 -90,-105 -124,-170 z m 2011,184 c 123,44 195,-102 141,-184 -34,65 -75,125 -124,170 -6,5 -11,10 -17,14 z"
       id="path4180"
       inkscape:connector-curvature="0"
       style="fill:#e2001a" /></g></svg>