<?xml version="1.0" encoding="UTF-8" standalone="no"?>
<!-- Creator: CorelDRAW X7 -->

<svg
   xmlns:dc="http://purl.org/dc/elements/1.1/"
   xmlns:cc="http://creativecommons.org/ns#"
   xmlns:rdf="http://www.w3.org/1999/02/22-rdf-syntax-ns#"
   xmlns:svg="http://www.w3.org/2000/svg"
   xmlns="http://www.w3.org/2000/svg"
   xmlns:sodipodi="http://sodipodi.sourceforge.net/DTD/sodipodi-0.dtd"
   xmlns:inkscape="http://www.inkscape.org/namespaces/inkscape"
   xml:space="preserve"
   width="7.8740005in"
   height="7.8740005in"
   version="1.1"
   style="clip-rule:evenodd;fill-rule:evenodd;image-rendering:optimizeQuality;shape-rendering:geometricPrecision;text-rendering:geometricPrecision"
   viewBox="0 0 7874.0005 7874.0005"
   id="svg24516"
   inkscape:version="0.91 r13725"
   sodipodi:docname="image_7046.svg"><metadata
     id="metadata24601"><rdf:RDF><cc:Work
         rdf:about=""><dc:format>image/svg+xml</dc:format><dc:type
           rdf:resource="http://purl.org/dc/dcmitype/StillImage" /></cc:Work></rdf:RDF></metadata><sodipodi:namedview
     pagecolor="#ffffff"
     bordercolor="#666666"
     borderopacity="1"
     objecttolerance="10"
     gridtolerance="10"
     guidetolerance="10"
     inkscape:pageopacity="0"
     inkscape:pageshadow="2"
     inkscape:window-width="640"
     inkscape:window-height="480"
     id="namedview24599"
     showgrid="false"
     inkscape:zoom="0.23838384"
     inkscape:cx="736.83001"
     inkscape:cy="849.33005"
     inkscape:window-x="0"
     inkscape:window-y="0"
     inkscape:window-maximized="0"
     inkscape:current-layer="svg24516" /><defs
     id="defs24518"><style
       type="text/css"
       id="style24520"><![CDATA[
    .fil2 {fill:none}
    .fil1 {fill:black}
    .fil0 {fill:white}
    .fil3 {fill:black;fill-rule:nonzero}
    .fil4 {fill:white;fill-rule:nonzero}
   ]]></style></defs><g
     id="Layer_x0020_1"
     transform="translate(3937,-7063)"><metadata
       id="CorelCorpID_0Corel-Layer" /><circle
       class="fil0"
       cy="11000"
       r="3937"
       id="circle24524"
       cx="0"
       style="fill:#ffffff" /><path
       class="fil1"
       d="m 741,7293 c 1733,345 3039,1873 3039,3707 0,2087 -1693,3780 -3780,3780 -2087,0 -3780,-1693 -3780,-3780 0,-1834 1306,-3362 3039,-3707 57,-11 113,26 124,83 12,58 -25,114 -83,125 l 0,0 c -1293,314 -2253,1479 -2253,2869 0,1631 1322,2953 2953,2953 1631,0 2953,-1322 2953,-2953 0,-1390 -960,-2555 -2253,-2869 l 0,0 c -58,-11 -95,-67 -83,-125 11,-57 67,-94 124,-83 z"
       id="path24526"
       inkscape:connector-curvature="0"
       style="fill:#000000" /><path
       class="fil2"
       d="m 741,7293 c 1733,345 3039,1873 3039,3707 0,2087 -1693,3780 -3780,3780 -2087,0 -3780,-1693 -3780,-3780 0,-1834 1306,-3362 3039,-3707 57,-11 113,26 124,83 12,58 -25,114 -83,125 l 0,0 c -1293,314 -2253,1479 -2253,2869 0,1631 1322,2953 2953,2953 1631,0 2953,-1322 2953,-2953 0,-1390 -960,-2555 -2253,-2869 l 0,0 c -58,-11 -95,-67 -83,-125 11,-57 67,-94 124,-83 z"
       id="path24528"
       inkscape:connector-curvature="0"
       style="fill:none" /><g
       id="_1090017328"><path
         class="fil1"
         d="m -2303,11118 c -7,-20 5,-43 25,-49 21,-7 43,4 50,25 19,58 40,115 64,173 23,57 49,112 77,167 10,19 2,43 -18,53 -19,9 -43,2 -52,-18 -29,-56 -55,-113 -80,-172 -24,-59 -46,-119 -66,-179 z"
         id="path24531"
         inkscape:connector-curvature="0"
         style="fill:#000000" /><path
         class="fil1"
         d="m -1841,11943 c -14,-17 -12,-42 4,-56 17,-14 42,-12 56,5 39,46 81,91 125,134 43,44 88,86 135,125 16,15 18,39 4,56 -14,16 -39,18 -56,4 -47,-41 -94,-84 -139,-129 -45,-45 -88,-92 -129,-139 z"
         id="path24533"
         inkscape:connector-curvature="0"
         style="fill:#000000" /><path
         class="fil1"
         d="m -1099,12528 c -20,-10 -27,-34 -17,-53 9,-20 33,-27 52,-18 55,28 110,54 168,77 57,24 114,45 172,64 21,7 32,29 25,50 -6,20 -29,32 -49,25 -60,-20 -120,-41 -179,-66 -59,-24 -116,-51 -172,-79 z"
         id="path24535"
         inkscape:connector-curvature="0"
         style="fill:#000000" /><path
         class="fil1"
         d="m -190,12784 c -22,-2 -38,-21 -36,-42 2,-22 21,-38 42,-37 61,5 122,8 184,8 62,0 123,-3 184,-8 21,-1 40,15 42,37 2,21 -14,40 -36,42 -63,5 -126,7 -190,7 -64,0 -127,-2 -190,-7 z"
         id="path24537"
         inkscape:connector-curvature="0"
         style="fill:#000000" /><path
         class="fil1"
         d="m 748,12673 c -20,7 -43,-5 -49,-25 -7,-21 4,-43 25,-50 58,-19 115,-40 172,-64 58,-23 113,-49 168,-77 19,-9 43,-2 52,18 10,19 3,43 -17,53 -56,28 -113,55 -172,79 -59,25 -119,46 -179,66 z"
         id="path24539"
         inkscape:connector-curvature="0"
         style="fill:#000000" /><path
         class="fil1"
         d="m 1573,12211 c -17,14 -42,12 -56,-4 -14,-17 -12,-41 4,-56 47,-39 92,-81 135,-125 44,-43 86,-88 125,-134 14,-17 39,-19 56,-5 16,14 18,39 4,56 -41,47 -84,94 -129,139 -45,45 -92,88 -139,129 z"
         id="path24541"
         inkscape:connector-curvature="0"
         style="fill:#000000" /><path
         class="fil1"
         d="m 2157,11469 c -9,20 -33,27 -52,18 -20,-10 -28,-34 -18,-53 28,-55 54,-110 77,-167 24,-58 45,-115 64,-173 7,-21 29,-32 50,-25 20,6 32,29 25,49 -20,60 -42,120 -66,179 -25,59 -51,116 -80,172 z"
         id="path24543"
         inkscape:connector-curvature="0"
         style="fill:#000000" /><path
         class="fil1"
         d="m 2414,10560 c -2,22 -21,38 -42,36 -22,-1 -38,-20 -37,-42 5,-61 8,-122 8,-184 0,-62 -3,-123 -8,-184 -1,-21 15,-40 37,-42 21,-2 40,14 42,36 5,63 7,126 7,190 0,64 -2,127 -7,190 z"
         id="path24545"
         inkscape:connector-curvature="0"
         style="fill:#000000" /><path
         class="fil3"
         d="m 1971,8732 c 22,28 45,57 69,89 23,32 45,63 65,93 28,42 55,86 82,131 26,45 51,91 74,136 l 0,0 c 22,43 25,92 12,135 l 0,0 c -14,43 -43,81 -87,104 -43,23 -91,26 -135,12 -43,-13 -81,-43 -104,-86 l 0,-1 c -21,-41 -42,-81 -65,-119 -22,-38 -46,-77 -72,-115 -19,-28 -37,-54 -55,-78 -17,-25 -37,-50 -57,-76 l 0,0 c -31,-37 -44,-84 -40,-128 4,-46 25,-89 63,-121 38,-31 84,-44 129,-40 46,4 89,26 121,63 l 0,1 z m 5,136 c -20,-29 -43,-57 -66,-87 l 0,0 c -18,-21 -42,-32 -67,-35 -25,-2 -51,5 -72,23 -21,17 -32,41 -35,66 -2,26 5,52 23,73 l 0,0 c 20,24 39,50 60,78 20,28 39,55 57,81 25,39 50,78 74,119 24,41 46,83 67,124 l 0,0 c 13,23 34,40 58,47 24,8 51,6 75,-7 24,-12 41,-34 48,-58 l 0,0 c 7,-24 6,-51 -7,-75 l 0,0 c -23,-45 -47,-89 -72,-132 -25,-42 -51,-85 -80,-127 -21,-32 -42,-62 -63,-90 z"
         id="path24547"
         inkscape:connector-curvature="0"
         style="fill:#000000;fill-rule:nonzero" /><path
         class="fil3"
         d="m 235,7818 c 36,4 73,9 112,15 40,6 77,12 112,19 49,10 99,22 150,35 51,13 101,28 149,44 46,14 83,46 104,86 21,40 27,89 12,135 l 0,0 c -15,47 -47,83 -87,104 -40,21 -88,27 -135,13 l 0,0 c -43,-15 -86,-27 -130,-39 -42,-11 -86,-21 -132,-30 -34,-7 -66,-13 -94,-17 -32,-5 -63,-9 -94,-12 l 0,0 c -48,-5 -91,-29 -120,-63 -29,-35 -44,-81 -40,-130 l 0,0 c 4,-48 28,-91 63,-120 35,-29 81,-44 129,-40 l 1,0 0,0 z m 100,92 c -34,-5 -71,-10 -108,-14 l -1,0 c -27,-2 -52,7 -71,23 -19,16 -32,39 -35,66 -2,27 7,53 23,72 16,20 39,33 66,35 l 5,1 c 31,4 62,8 93,12 36,6 68,12 98,17 45,9 90,20 137,32 45,12 90,25 134,40 26,8 52,5 75,-7 22,-12 40,-32 48,-58 l 0,0 c 8,-26 5,-53 -7,-75 -12,-22 -32,-40 -58,-48 l 0,-1 c -49,-15 -97,-30 -145,-42 -46,-12 -95,-24 -146,-34 -38,-7 -74,-14 -108,-19 z"
         id="path24549"
         inkscape:connector-curvature="0"
         style="fill:#000000;fill-rule:nonzero" /><path
         class="fil3"
         d="m -1638,8399 c 27,-22 57,-45 89,-68 32,-24 63,-46 93,-66 42,-28 86,-55 131,-82 45,-26 91,-51 136,-74 l 0,0 c 43,-22 92,-25 135,-12 l 0,0 c 43,14 81,44 104,87 22,43 26,91 12,135 -13,43 -43,81 -86,104 l -1,0 c -41,21 -81,42 -119,65 -38,22 -77,46 -115,72 -28,19 -54,37 -79,55 -24,17 -49,37 -75,57 l 0,0 c -37,31 -84,44 -129,40 -45,-4 -88,-25 -120,-63 -31,-38 -44,-84 -40,-129 4,-45 26,-89 63,-120 l 1,-1 z m 135,-5 c -28,21 -56,43 -86,67 l 0,-1 c -21,18 -32,42 -35,67 -2,25 5,51 23,72 17,21 41,33 66,35 26,2 52,-5 73,-23 l 0,0 c 24,-19 50,-39 78,-60 28,-20 55,-39 81,-57 38,-25 78,-50 119,-74 41,-24 83,-46 123,-67 l 0,0 c 24,-13 41,-34 48,-57 8,-25 6,-52 -7,-76 -12,-24 -34,-40 -58,-48 l 0,0 c -24,-7 -51,-6 -75,7 l 0,0 c -45,23 -89,47 -132,72 -42,25 -85,51 -127,80 -32,21 -62,42 -91,63 z"
         id="path24551"
         inkscape:connector-curvature="0"
         style="fill:#000000;fill-rule:nonzero" /><path
         class="fil3"
         d="m 2552,10605 c -4,36 -9,73 -15,112 -6,40 -12,77 -19,112 -10,49 -22,99 -35,150 -13,52 -28,101 -43,149 -15,46 -47,83 -87,104 -40,21 -89,27 -135,12 l 0,0 c -47,-14 -83,-46 -104,-86 -21,-41 -27,-89 -13,-135 l 1,-1 c 14,-43 27,-86 38,-130 11,-42 21,-86 30,-132 7,-34 13,-66 17,-94 5,-32 9,-63 13,-94 l -1,0 c 5,-48 29,-91 64,-120 34,-29 80,-44 129,-40 l 0,0 c 49,5 91,28 120,63 29,35 45,81 40,129 l 0,1 0,0 z m -92,100 c 5,-34 10,-70 14,-108 l 0,-1 c 2,-26 -7,-52 -23,-71 -16,-19 -39,-32 -66,-35 -27,-2 -53,7 -72,23 -20,16 -33,39 -35,66 l -1,5 c -3,31 -8,62 -12,94 -6,35 -11,67 -17,97 -9,45 -20,90 -32,137 -12,45 -25,90 -40,134 -8,26 -5,52 7,75 12,22 32,40 58,48 l 0,0 c 26,8 53,5 75,-7 22,-11 40,-32 48,-58 l 1,0 c 15,-49 30,-97 42,-145 12,-46 24,-95 34,-145 7,-39 14,-75 19,-109 z"
         id="path24553"
         inkscape:connector-curvature="0"
         style="fill:#000000;fill-rule:nonzero" /><path
         class="fil3"
         d="m -1971,12008 c -22,-27 -45,-57 -69,-89 -23,-32 -45,-63 -65,-93 -28,-42 -55,-86 -82,-131 -26,-45 -51,-91 -74,-136 l 0,0 c -22,-43 -25,-92 -12,-135 l 0,0 c 14,-43 43,-81 87,-104 43,-22 91,-25 135,-12 43,13 81,43 104,87 l 0,0 c 21,41 42,81 65,119 22,38 46,77 72,115 19,28 37,54 55,79 17,24 37,49 57,75 l 0,0 c 31,37 44,84 40,129 -4,45 -25,88 -63,120 -38,31 -84,44 -129,40 -46,-4 -89,-26 -121,-63 l 0,-1 z m -5,-135 c 20,28 43,57 66,86 l 0,0 c 18,21 42,32 67,35 25,2 51,-5 72,-23 21,-17 32,-41 35,-66 2,-26 -5,-52 -23,-73 l 0,0 c -20,-24 -39,-50 -60,-78 -20,-28 -39,-55 -57,-81 -25,-38 -50,-78 -74,-119 -24,-41 -46,-82 -67,-123 l 0,0 c -13,-24 -34,-41 -58,-48 -24,-8 -51,-6 -75,7 -24,12 -41,34 -48,58 l 0,0 c -7,24 -6,51 7,75 l 0,0 c 23,45 47,89 72,132 25,42 51,85 80,127 21,32 42,63 63,91 z"
         id="path24555"
         inkscape:connector-curvature="0"
         style="fill:#000000;fill-rule:nonzero" /><path
         class="fil3"
         d="m -235,12922 c -36,-4 -73,-9 -112,-15 -40,-6 -77,-12 -112,-19 -49,-10 -99,-21 -150,-35 -51,-13 -101,-28 -149,-43 -46,-15 -83,-47 -104,-87 -21,-40 -27,-88 -12,-135 l 0,0 c 15,-47 47,-83 87,-104 40,-21 88,-27 135,-13 l 0,1 c 43,14 86,27 130,38 42,11 86,21 132,30 34,7 66,13 94,17 32,5 63,9 94,13 l 0,0 c 48,4 91,28 120,63 29,34 44,80 40,129 l 0,0 c -4,49 -28,91 -63,120 -35,29 -81,45 -129,40 l -1,0 0,0 z m -100,-92 c 34,5 71,10 108,14 l 1,0 c 27,2 52,-7 71,-22 19,-17 32,-40 35,-67 2,-27 -7,-53 -23,-72 -16,-20 -39,-33 -66,-35 l -5,-1 c -31,-3 -62,-7 -93,-12 -36,-6 -68,-11 -98,-17 -45,-9 -90,-20 -137,-32 -45,-12 -90,-25 -134,-40 -26,-8 -52,-4 -75,7 -22,12 -40,32 -48,58 l 0,0 c -8,26 -5,53 7,75 12,23 32,40 58,49 l 0,0 c 49,16 97,30 145,42 46,13 95,24 146,34 38,8 74,14 108,19 z"
         id="path24557"
         inkscape:connector-curvature="0"
         style="fill:#000000;fill-rule:nonzero" /><path
         class="fil3"
         d="m 1638,12341 c -27,22 -57,45 -89,69 -32,23 -63,45 -93,65 -42,28 -86,55 -131,82 -45,26 -91,51 -136,74 l 0,0 c -43,23 -92,26 -135,12 l 0,0 c -43,-13 -81,-43 -104,-87 -22,-43 -26,-91 -12,-134 13,-44 43,-82 86,-105 l 1,0 c 41,-21 81,-42 119,-65 38,-22 77,-46 115,-72 28,-18 54,-37 79,-54 24,-18 49,-38 75,-58 l 0,0 c 37,-31 84,-44 129,-40 45,4 88,26 120,63 31,38 44,84 40,129 -4,46 -26,89 -63,121 l -1,0 z m -135,5 c 28,-20 56,-43 86,-66 l 0,0 c 21,-18 32,-42 35,-66 2,-26 -5,-52 -23,-73 -17,-21 -41,-32 -66,-35 -26,-2 -52,5 -73,23 l 0,0 c -24,20 -50,40 -78,60 -28,20 -55,39 -81,57 -38,25 -78,50 -119,74 -41,24 -83,46 -123,67 l 0,0 c -24,13 -41,34 -48,58 -8,24 -6,51 7,75 12,24 34,41 58,48 l 0,0 c 24,7 51,6 75,-7 l 0,0 c 45,-23 89,-47 132,-72 42,-25 85,-51 127,-80 32,-21 62,-42 91,-63 z"
         id="path24559"
         inkscape:connector-curvature="0"
         style="fill:#000000;fill-rule:nonzero" /><path
         class="fil3"
         d="m -2552,10135 c 4,-35 9,-73 15,-112 6,-40 12,-77 19,-112 10,-49 22,-99 35,-150 13,-51 28,-101 43,-148 15,-47 47,-83 87,-105 40,-21 89,-27 135,-12 l 0,0 c 47,15 83,47 104,87 21,40 27,88 13,135 l -1,0 c -14,43 -27,87 -38,130 -11,42 -21,86 -30,132 -7,34 -13,66 -17,95 -5,31 -9,62 -13,93 l 1,0 c -5,48 -29,91 -64,120 -34,29 -80,45 -129,40 l 0,0 c -49,-4 -91,-28 -120,-63 -29,-35 -45,-81 -40,-129 l 0,-1 0,0 z m 92,-100 c -5,34 -10,71 -14,108 l 0,1 c -2,27 7,52 23,71 16,19 39,32 66,35 27,2 53,-6 72,-23 20,-16 33,-39 35,-66 l 1,-4 c 3,-32 8,-63 12,-94 6,-35 11,-68 17,-98 9,-45 20,-90 32,-136 12,-46 25,-91 40,-134 8,-27 5,-53 -7,-76 -12,-22 -32,-40 -58,-48 l 0,0 c -26,-8 -53,-5 -75,7 -22,12 -40,32 -48,58 l -1,0 c -15,49 -30,97 -42,145 -12,46 -24,95 -34,146 -7,38 -14,75 -19,108 z"
         id="path24561"
         inkscape:connector-curvature="0"
         style="fill:#000000;fill-rule:nonzero" /><path
         class="fil3"
         d="m 2448,9611 c 10,34 20,70 29,109 9,38 18,75 25,110 10,50 18,101 25,153 7,52 13,103 17,154 l 0,0 c 4,48 -12,94 -40,129 l -1,0 c -29,35 -71,58 -119,63 -49,4 -95,-11 -130,-40 -35,-29 -59,-72 -63,-120 l 0,-1 c -4,-46 -8,-91 -14,-135 -6,-43 -14,-88 -23,-133 -6,-34 -13,-65 -20,-94 -7,-29 -16,-60 -25,-92 l 0,0 c -14,-46 -8,-94 13,-134 21,-40 57,-72 104,-86 47,-15 95,-9 135,12 40,21 72,57 87,104 l 0,1 z m -47,127 c -9,-34 -18,-69 -29,-105 l 0,0 c -8,-26 -25,-46 -48,-58 -22,-11 -49,-15 -75,-6 -26,8 -46,25 -58,48 -11,22 -15,49 -7,75 l 1,1 c 8,30 17,61 25,95 8,33 15,65 22,96 9,45 16,91 23,138 6,48 11,94 14,140 l 0,0 c 3,27 16,50 35,66 20,16 45,25 72,23 27,-3 51,-16 67,-35 l 0,-1 c 16,-19 25,-44 22,-71 l 0,-1 c -3,-50 -9,-100 -16,-150 -6,-48 -14,-97 -24,-147 -8,-38 -16,-74 -24,-108 z"
         id="path24563"
         inkscape:connector-curvature="0"
         style="fill:#000000;fill-rule:nonzero" /><path
         class="fil3"
         d="m 1194,8102 c 31,17 64,36 97,57 35,20 67,41 96,60 42,28 84,58 126,90 42,32 82,64 120,97 38,31 59,75 63,120 5,45 -8,92 -40,130 l 0,0 c -31,37 -75,58 -120,63 -45,4 -92,-9 -129,-41 l -1,0 c -34,-29 -69,-58 -105,-86 -35,-26 -71,-52 -110,-78 -29,-19 -56,-36 -81,-51 -27,-17 -54,-33 -81,-48 l 0,1 c -44,-23 -74,-61 -87,-105 -14,-43 -11,-91 12,-135 l 0,0 c 23,-43 61,-73 104,-86 44,-14 92,-11 135,12 l 1,0 0,0 z m 57,124 c -30,-18 -62,-37 -95,-55 l 0,0 c -24,-12 -51,-14 -74,-6 -24,7 -46,24 -58,48 -13,24 -15,51 -7,75 7,24 24,45 48,58 l 4,2 c 27,15 55,31 82,47 30,19 58,37 83,54 38,25 76,52 114,81 38,28 74,58 109,88 21,17 47,25 72,22 25,-2 49,-14 67,-35 l 0,0 c 17,-21 25,-47 22,-72 -2,-25 -14,-49 -35,-66 l 0,-1 c -39,-33 -78,-65 -117,-94 -39,-29 -79,-58 -122,-87 -33,-22 -64,-42 -93,-59 z"
         id="path24565"
         inkscape:connector-curvature="0"
         style="fill:#000000;fill-rule:nonzero" /><path
         class="fil3"
         d="m -759,7922 c 34,-10 70,-20 108,-29 39,-9 76,-18 111,-25 50,-10 101,-18 153,-25 52,-7 103,-13 154,-17 l 0,0 c 48,-4 94,12 129,41 l 0,0 c 35,29 58,71 63,119 4,49 -11,95 -40,130 -29,35 -72,59 -120,63 l -1,0 c -46,4 -91,8 -135,14 -44,6 -88,14 -134,23 -33,6 -64,13 -93,20 -29,8 -60,16 -92,25 l 0,0 c -46,14 -94,8 -134,-13 -40,-21 -72,-57 -87,-104 -14,-47 -8,-95 13,-135 21,-40 57,-72 104,-87 l 1,0 z m 127,47 c -34,9 -69,18 -105,29 l 0,0 c -26,8 -46,26 -58,48 -11,22 -15,49 -6,75 8,26 25,46 48,58 22,12 49,15 75,7 l 1,-1 c 29,-8 61,-17 94,-25 34,-8 66,-15 97,-21 45,-9 91,-17 138,-23 48,-7 94,-12 140,-15 l 0,0 c 27,-3 50,-16 66,-35 16,-20 25,-45 23,-72 -3,-27 -16,-51 -35,-67 l -1,0 c -19,-16 -45,-25 -71,-22 l -1,0 c -50,4 -100,9 -150,16 -48,6 -97,14 -147,24 -38,8 -74,16 -108,24 z"
         id="path24567"
         inkscape:connector-curvature="0"
         style="fill:#000000;fill-rule:nonzero" /><path
         class="fil3"
         d="m 2268,11564 c -17,31 -36,64 -56,98 -21,34 -42,66 -61,96 -28,41 -58,83 -90,125 -32,42 -64,82 -97,121 -31,37 -75,58 -120,63 -45,4 -92,-9 -130,-41 l 1,0 c -38,-31 -59,-75 -63,-120 -5,-45 8,-91 40,-129 l 0,-1 c 30,-34 58,-69 86,-105 26,-35 52,-71 78,-110 19,-29 36,-56 52,-81 16,-27 32,-54 47,-81 l 0,0 c 22,-44 61,-74 104,-87 43,-14 91,-11 135,12 l 0,0 c 43,23 73,61 86,105 14,43 11,91 -12,134 l 0,1 0,0 z m -124,57 c 18,-30 37,-61 55,-95 l 0,0 c 12,-24 14,-51 6,-74 -7,-24 -24,-46 -48,-58 -24,-13 -51,-15 -75,-7 -24,7 -45,24 -58,48 l -2,4 c -15,27 -31,55 -47,82 -19,30 -37,58 -53,83 -26,38 -53,76 -82,114 -28,38 -58,74 -88,109 -17,21 -25,47 -22,72 2,25 14,50 35,67 l 0,0 c 21,17 47,25 72,22 25,-2 49,-14 66,-35 l 1,0 c 33,-39 65,-78 94,-117 30,-39 58,-79 87,-122 22,-33 42,-64 59,-93 z"
         id="path24569"
         inkscape:connector-curvature="0"
         style="fill:#000000;fill-rule:nonzero" /><path
         class="fil3"
         d="m -2448,11129 c -10,-34 -20,-70 -29,-108 -9,-39 -18,-76 -25,-111 -10,-50 -18,-101 -25,-152 -7,-53 -13,-104 -17,-155 l 0,0 c -4,-48 12,-94 40,-129 l 1,0 c 29,-34 71,-58 119,-63 49,-4 95,12 130,41 35,29 59,71 63,119 l 0,1 c 4,46 8,91 14,135 6,44 14,88 23,134 6,33 13,64 20,93 7,29 16,60 25,92 l 0,0 c 14,46 8,94 -13,134 -21,40 -57,72 -104,87 -47,14 -95,8 -135,-13 -40,-21 -72,-57 -87,-104 l 0,-1 z m 47,-127 c 9,34 18,69 29,105 l 0,1 c 8,25 25,45 48,57 22,11 49,15 75,7 26,-8 46,-26 58,-49 11,-22 15,-49 7,-75 l -1,-1 c -8,-29 -17,-61 -25,-94 -8,-34 -15,-66 -22,-97 -9,-45 -16,-91 -23,-138 -6,-48 -11,-94 -14,-140 l 0,0 c -3,-27 -16,-50 -35,-66 -20,-16 -45,-25 -72,-22 -27,2 -51,15 -67,35 l 0,0 c -16,19 -25,45 -22,72 l 0,0 c 3,50 9,100 16,150 6,48 14,97 24,147 8,38 16,74 24,108 z"
         id="path24571"
         inkscape:connector-curvature="0"
         style="fill:#000000;fill-rule:nonzero" /><path
         class="fil3"
         d="m -1194,12638 c -31,-17 -64,-36 -97,-56 -35,-21 -67,-42 -96,-61 -42,-28 -84,-58 -126,-90 -42,-32 -82,-64 -120,-97 -38,-31 -59,-75 -63,-120 -5,-45 8,-92 40,-129 l 0,0 c 31,-38 75,-59 120,-63 45,-5 92,9 129,40 l 1,0 c 34,30 69,58 105,86 35,26 71,52 110,78 29,19 56,37 81,52 27,16 54,32 81,47 l 0,0 c 44,22 74,61 87,104 14,43 11,91 -12,135 l 0,0 c -23,43 -61,73 -104,87 -44,13 -92,10 -135,-13 l -1,0 0,0 z m -57,-123 c 30,18 62,36 95,54 l 0,0 c 24,12 51,14 74,7 24,-8 46,-25 58,-49 13,-24 15,-51 7,-75 -7,-24 -24,-45 -48,-58 l -4,-2 c -27,-15 -55,-31 -82,-47 -30,-19 -58,-36 -83,-53 -38,-26 -76,-53 -114,-82 -38,-28 -74,-58 -109,-88 -21,-17 -47,-25 -72,-22 -25,2 -49,14 -67,35 l 0,0 c -17,21 -25,47 -22,72 2,25 14,49 35,67 l 0,0 c 39,33 78,65 117,95 39,29 79,58 122,86 33,22 64,42 93,60 z"
         id="path24573"
         inkscape:connector-curvature="0"
         style="fill:#000000;fill-rule:nonzero" /><path
         class="fil3"
         d="m 759,12818 c -34,10 -70,20 -108,29 -39,10 -76,18 -111,25 -50,10 -101,18 -153,25 -52,8 -103,13 -154,17 l 0,0 c -48,4 -94,-12 -129,-40 l 0,0 c -35,-30 -58,-72 -63,-120 -4,-49 11,-95 40,-130 29,-35 72,-58 120,-63 l 1,0 c 46,-3 91,-8 135,-14 44,-6 88,-14 134,-23 33,-6 64,-13 93,-20 29,-7 60,-16 92,-25 l 0,0 c 46,-14 94,-8 134,13 40,21 72,57 87,104 14,47 8,95 -13,135 -21,40 -57,72 -104,87 l -1,0 z m -127,-47 c 34,-8 69,-18 105,-29 l 0,0 c 26,-8 46,-25 58,-47 11,-23 15,-50 6,-76 -8,-26 -25,-46 -48,-58 -22,-11 -49,-15 -75,-6 l -1,0 c -29,8 -61,17 -94,25 -34,8 -66,16 -97,22 -45,9 -91,16 -138,23 -48,6 -94,11 -140,14 l 0,0 c -27,3 -50,16 -66,35 -16,20 -25,45 -23,72 3,27 16,51 35,67 l 1,0 c 19,16 45,25 71,23 l 1,-1 c 50,-3 100,-9 150,-15 48,-7 97,-15 147,-25 38,-8 74,-16 108,-24 z"
         id="path24575"
         inkscape:connector-curvature="0"
         style="fill:#000000;fill-rule:nonzero" /><path
         class="fil3"
         d="m -2268,9176 c 17,-31 36,-64 56,-97 21,-35 42,-67 61,-96 28,-42 58,-84 90,-126 32,-42 64,-82 97,-120 31,-38 75,-59 120,-63 45,-5 92,9 130,40 l -1,0 c 38,31 59,75 63,120 5,45 -8,92 -40,129 l 0,1 c -30,34 -58,69 -86,105 -26,35 -52,71 -78,110 -19,29 -36,56 -52,81 -16,27 -32,54 -47,81 l 0,0 c -22,44 -61,74 -104,87 -43,14 -91,11 -135,-12 l 0,0 c -43,-23 -73,-61 -86,-104 -14,-44 -11,-92 12,-135 l 0,-1 0,0 z m 124,-57 c -18,30 -37,62 -55,95 l 0,0 c -12,24 -14,51 -6,75 7,24 24,45 48,57 24,13 51,15 75,7 24,-7 45,-24 58,-48 l 2,-4 c 15,-27 31,-55 47,-82 19,-30 37,-58 53,-83 26,-38 53,-76 82,-114 28,-38 58,-74 88,-109 17,-21 25,-47 22,-72 -2,-25 -14,-49 -35,-67 l 0,0 c -21,-17 -47,-24 -72,-22 -25,2 -49,14 -66,35 l -1,0 c -33,39 -65,78 -94,117 -30,39 -58,79 -87,122 -22,33 -42,64 -59,93 z"
         id="path24577"
         inkscape:connector-curvature="0"
         style="fill:#000000;fill-rule:nonzero" /><path
         class="fil1"
         d="m 2303,9622 c 7,21 -5,43 -25,49 -21,7 -43,-4 -50,-25 -19,-58 -40,-115 -64,-172 -23,-58 -49,-113 -77,-167 -10,-20 -2,-44 18,-53 19,-10 43,-3 52,17 29,56 55,113 80,173 24,59 46,118 66,178 z"
         id="path24579"
         inkscape:connector-curvature="0"
         style="fill:#000000" /><path
         class="fil1"
         d="m 1841,8798 c 14,16 12,41 -4,55 -17,14 -42,12 -56,-4 -39,-47 -81,-92 -125,-135 -43,-44 -88,-86 -135,-125 -16,-14 -18,-39 -4,-56 14,-16 39,-18 56,-4 47,41 94,84 139,129 45,45 88,92 129,140 z"
         id="path24581"
         inkscape:connector-curvature="0"
         style="fill:#000000" /><path
         class="fil1"
         d="m 1099,8213 c 20,10 27,33 17,53 -9,19 -33,27 -52,17 -55,-28 -110,-53 -168,-77 -57,-24 -114,-45 -172,-64 -21,-7 -32,-29 -25,-49 6,-21 29,-32 49,-26 60,20 120,42 179,66 59,25 116,51 172,80 z"
         id="path24583"
         inkscape:connector-curvature="0"
         style="fill:#000000" /><path
         class="fil1"
         d="m 190,7956 c 22,2 38,21 36,43 -2,21 -21,37 -42,36 -61,-5 -122,-7 -184,-7 -62,0 -123,2 -184,7 -21,1 -40,-15 -42,-36 -2,-22 14,-41 36,-43 63,-5 126,-7 190,-7 64,0 127,2 190,7 z"
         id="path24585"
         inkscape:connector-curvature="0"
         style="fill:#000000" /><path
         class="fil1"
         d="m -748,8067 c 20,-6 43,5 49,26 7,20 -4,42 -25,49 -58,19 -115,40 -172,64 -58,24 -113,49 -168,77 -19,10 -43,2 -52,-17 -10,-20 -3,-43 17,-53 56,-29 113,-55 172,-80 59,-24 119,-46 179,-66 z"
         id="path24587"
         inkscape:connector-curvature="0"
         style="fill:#000000" /><path
         class="fil1"
         d="m -1573,8529 c 17,-14 42,-12 56,4 14,17 12,42 -4,56 -47,39 -92,81 -135,125 -44,43 -86,88 -125,135 -14,16 -39,18 -56,4 -16,-14 -18,-39 -4,-55 41,-48 84,-95 129,-140 45,-45 92,-88 139,-129 z"
         id="path24589"
         inkscape:connector-curvature="0"
         style="fill:#000000" /><path
         class="fil1"
         d="m -2157,9271 c 9,-20 33,-27 52,-17 20,9 28,33 18,53 -28,54 -54,109 -77,167 -24,57 -45,114 -64,172 -7,21 -29,32 -50,25 -20,-6 -32,-28 -25,-49 20,-60 42,-119 66,-178 25,-60 51,-117 80,-173 z"
         id="path24591"
         inkscape:connector-curvature="0"
         style="fill:#000000" /><path
         class="fil1"
         d="m -2414,10180 c 2,-22 21,-38 42,-36 22,2 38,21 37,42 -5,61 -8,122 -8,184 0,62 3,123 8,184 1,22 -15,41 -37,42 -21,2 -40,-14 -42,-36 -5,-63 -7,-126 -7,-190 0,-64 2,-127 7,-190 z"
         id="path24593"
         inkscape:connector-curvature="0"
         style="fill:#000000" /></g><circle
       class="fil2"
       cy="11000"
       r="3898"
       id="circle24595"
       cx="0"
       style="fill:none" /><path
       class="fil4"
       d="m -1829,13828 14,-20 c 14,6 25,10 33,11 9,1 16,0 23,-4 7,-4 14,-10 21,-20 6,-9 12,-19 18,-31 5,-12 11,-26 16,-41 l 23,-62 -171,-121 -41,30 c -20,15 -35,27 -44,36 -9,8 -16,17 -22,25 -11,16 -16,30 -14,43 2,13 11,26 24,39 l -14,20 -157,-111 14,-20 c 15,7 34,7 54,0 21,-8 46,-22 75,-43 l 466,-333 58,42 -189,533 c -9,24 -15,44 -18,58 -3,14 -4,27 -2,37 2,11 8,22 17,32 l -14,20 -170,-120 z m 11,-316 154,109 112,-306 -266,197 z m 188,-370 c -7,22 -16,41 -28,58 -16,22 -36,37 -60,47 -24,9 -62,15 -113,20 l -3,-35 c 25,-6 43,-11 55,-16 11,-5 21,-11 29,-19 8,-8 17,-18 26,-32 11,-15 21,-33 31,-53 l 63,30 z m 201,391 101,47 c -3,91 -24,227 -66,409 105,-65 174,-133 207,-205 16,-35 25,-68 28,-100 l 10,-23 80,37 c -6,21 -14,42 -23,62 -24,52 -59,99 -105,141 -46,41 -120,94 -220,156 l -55,-25 c 23,-120 40,-219 50,-295 9,-76 11,-123 7,-141 -5,-17 -13,-31 -25,-40 l 11,-23 z m 546,260 c -27,-44 -44,-78 -50,-102 -7,-24 -7,-46 -2,-66 9,-32 29,-55 60,-68 31,-13 68,-14 110,-2 60,16 107,47 140,92 l -19,69 -42,-12 c -8,-60 -38,-98 -89,-112 -24,-6 -45,-6 -61,3 -16,8 -26,20 -31,36 -4,15 -2,31 5,48 7,18 32,58 73,122 33,52 54,98 64,140 11,41 9,86 -4,135 -17,62 -49,107 -96,135 -47,28 -98,35 -153,19 -56,-15 -96,-47 -120,-94 -24,-48 -27,-102 -10,-162 30,-110 105,-171 225,-181 z m 24,36 c -86,16 -142,74 -170,175 -13,48 -14,89 -3,124 11,35 33,56 63,65 35,10 67,2 95,-23 28,-26 49,-64 64,-116 10,-39 12,-76 4,-111 -8,-34 -26,-72 -53,-114 z m 283,453 -33,243 -77,-10 58,-427 c 23,-170 101,-246 234,-228 56,8 97,33 123,77 25,45 33,102 23,174 -11,82 -36,143 -76,182 -39,38 -88,54 -146,46 -44,-6 -79,-25 -106,-57 z m 23,-173 -10,80 c -4,27 3,52 21,73 18,20 41,32 69,36 75,10 121,-49 138,-177 19,-140 -5,-214 -72,-223 -77,-11 -125,60 -146,211 z m 581,262 c -63,1 -111,-18 -145,-57 -33,-39 -50,-98 -52,-176 -1,-54 7,-99 24,-137 16,-37 40,-65 69,-84 30,-18 64,-28 103,-29 64,-1 113,19 147,59 34,40 51,98 53,173 1,54 -7,100 -23,138 -16,37 -39,65 -69,84 -30,19 -66,29 -107,29 z m -112,-245 c 1,67 12,119 32,154 21,36 49,53 86,53 20,-1 37,-6 51,-17 14,-11 25,-25 34,-43 8,-18 14,-39 18,-63 4,-24 5,-48 5,-74 -1,-48 -7,-87 -17,-119 -10,-31 -24,-54 -41,-69 -17,-14 -37,-21 -58,-21 -37,1 -64,18 -83,53 -19,34 -28,83 -27,146 z m 507,14 c 11,61 23,99 38,115 15,16 36,22 63,17 21,-3 41,-18 59,-45 17,-26 24,-54 19,-82 l -51,-300 77,-13 61,361 c 7,38 20,55 42,51 13,-2 25,-11 38,-27 l 22,26 c -26,33 -55,52 -86,57 -44,8 -73,-15 -86,-70 l -4,0 c -36,61 -74,95 -115,102 -22,4 -44,-2 -65,-17 l -3,3 c 16,63 33,115 50,156 l 4,26 -34,35 -39,6 -111,-653 76,-13 45,265 z m 746,-57 c -35,68 -87,113 -156,135 -47,15 -86,17 -119,4 -33,-13 -56,-38 -68,-77 -9,-27 -8,-55 3,-83 11,-28 32,-53 63,-75 l -1,-4 c -68,2 -110,-23 -127,-76 -10,-31 -4,-62 18,-91 22,-29 59,-52 109,-68 36,-12 82,-18 139,-17 l 26,80 -44,14 c -32,-40 -71,-52 -116,-38 -22,8 -38,20 -48,37 -11,18 -12,38 -5,61 9,27 25,44 46,51 21,7 53,4 96,-10 l 24,-8 17,50 -39,13 c -37,12 -64,28 -78,49 -15,21 -17,45 -8,73 18,55 58,72 120,52 47,-15 84,-48 113,-97 l 35,25 z m -268,-600 7,23 -41,207 -36,-7 -6,-198 76,-25 z m 341,168 c -49,-17 -83,-32 -103,-46 -21,-14 -35,-31 -44,-50 -14,-31 -13,-61 2,-91 16,-30 43,-54 83,-72 58,-25 113,-32 167,-18 l 30,65 -40,18 c -45,-41 -92,-51 -140,-29 -23,10 -38,24 -46,40 -7,17 -7,33 0,48 6,14 18,26 35,34 16,9 61,24 133,47 59,19 105,41 139,66 35,25 63,61 84,107 26,59 30,114 12,165 -18,52 -53,89 -105,113 -53,24 -104,25 -153,4 -48,-22 -86,-61 -112,-118 -47,-104 -27,-198 58,-283 z m 42,13 c -56,66 -63,147 -19,243 20,45 46,77 77,97 31,19 61,22 90,9 33,-15 52,-41 58,-78 5,-38 -3,-81 -25,-130 -17,-37 -39,-66 -68,-87 -28,-22 -66,-40 -113,-54 z m 809,-71 c -8,43 -26,74 -52,93 -37,27 -86,6 -147,-63 l -4,3 c 20,98 5,164 -44,199 -36,26 -76,30 -120,12 -44,-18 -87,-58 -130,-118 -44,-62 -65,-122 -62,-180 2,-58 24,-102 66,-131 30,-22 60,-31 89,-28 29,3 63,19 103,47 l 5,-3 -43,-116 60,-43 14,20 c 3,42 18,113 46,214 43,49 78,85 104,107 26,23 47,28 62,17 10,-7 17,-21 23,-43 l 30,13 z m -267,-53 c -49,-55 -89,-90 -119,-106 -30,-15 -58,-14 -82,3 -26,19 -36,49 -29,90 6,42 27,88 64,139 69,98 127,131 171,99 48,-34 46,-109 -5,-225 z"
       id="path24597"
       inkscape:connector-curvature="0"
       style="fill:#ffffff;fill-rule:nonzero" /></g></svg>