<?xml version="1.0" encoding="UTF-8" standalone="no"?>
<!-- Creator: CorelDRAW X7 -->

<svg
   xmlns:dc="http://purl.org/dc/elements/1.1/"
   xmlns:cc="http://creativecommons.org/ns#"
   xmlns:rdf="http://www.w3.org/1999/02/22-rdf-syntax-ns#"
   xmlns:svg="http://www.w3.org/2000/svg"
   xmlns="http://www.w3.org/2000/svg"
   xmlns:sodipodi="http://sodipodi.sourceforge.net/DTD/sodipodi-0.dtd"
   xmlns:inkscape="http://www.inkscape.org/namespaces/inkscape"
   xml:space="preserve"
   width="7.8740005in"
   height="7.8740005in"
   version="1.1"
   style="clip-rule:evenodd;fill-rule:evenodd;image-rendering:optimizeQuality;shape-rendering:geometricPrecision;text-rendering:geometricPrecision"
   viewBox="0 0 7874.0005 7874.0005"
   id="svg6590"
   inkscape:version="0.91 r13725"
   sodipodi:docname="Yu Jing - Imperial Agent, Crane Rank - [A6] [Vyo].svg"><metadata
     id="metadata6626"><rdf:RDF><cc:Work
         rdf:about=""><dc:format>image/svg+xml</dc:format><dc:type
           rdf:resource="http://purl.org/dc/dcmitype/StillImage" /></cc:Work></rdf:RDF></metadata><sodipodi:namedview
     pagecolor="#ffffff"
     bordercolor="#666666"
     borderopacity="1"
     objecttolerance="10"
     gridtolerance="10"
     guidetolerance="10"
     inkscape:pageopacity="0"
     inkscape:pageshadow="2"
     inkscape:window-width="640"
     inkscape:window-height="480"
     id="namedview6624"
     showgrid="false"
     inkscape:zoom="0.23838384"
     inkscape:cx="736.83001"
     inkscape:cy="849.33005"
     inkscape:window-x="0"
     inkscape:window-y="0"
     inkscape:window-maximized="0"
     inkscape:current-layer="svg6590" /><defs
     id="defs6592"><style
       type="text/css"
       id="style6594"><![CDATA[
    .str0 {stroke:black;stroke-width:3}
    .fil3 {fill:none}
    .fil1 {fill:black}
    .fil0 {fill:#E32527}
    .fil2 {fill:white}
    .fil4 {fill:white;fill-rule:nonzero}
   ]]></style></defs><g
     id="Layer_x0020_1"
     transform="translate(3937,-7063)"><metadata
       id="CorelCorpID_0Corel-Layer" /><circle
       class="fil0"
       cy="11000"
       r="3937"
       id="circle6598"
       cx="0"
       style="fill:#e32527" /><circle
       class="fil1"
       cy="11000"
       r="3780"
       id="circle6600"
       cx="0"
       style="fill:#000000" /><circle
       class="fil0"
       cy="11000"
       r="3661"
       id="circle6602"
       cx="0"
       style="fill:#e32527" /><circle
       class="fil1"
       cy="11000"
       r="2520"
       id="circle6604"
       cx="0"
       style="fill:#000000" /><circle
       class="fil0"
       cy="11000"
       r="2402"
       id="circle6606"
       cx="0"
       style="fill:#e32527" /><circle
       class="fil1"
       cy="11000"
       r="2323"
       id="circle6608"
       cx="0"
       style="fill:#000000" /><path
       class="fil2"
       d="m -2500,9215 c 75,-32 173,-103 282,-292 109,-188 122,-309 112,-390 -76,32 -174,103 -282,292 -109,188 -122,309 -112,390 z m -416,2983 c 12,-98 -3,-242 -134,-468 -130,-226 -248,-312 -338,-350 -12,97 3,242 134,468 130,226 248,311 338,350 z m 139,-974 c 44,69 83,184 64,400 -19,217 -78,323 -132,384 -44,-70 -83,-184 -64,-401 19,-216 77,-322 132,-383 z m -349,173 c 37,-91 60,-235 -8,-487 -67,-252 -159,-365 -236,-425 -37,91 -60,234 8,487 67,252 159,365 236,425 z m 387,-905 c 23,79 32,200 -43,404 -74,204 -158,291 -227,336 -23,-78 -32,-199 42,-403 75,-205 159,-292 228,-337 z m -382,78 c 59,-79 118,-212 118,-473 0,-261 -59,-393 -118,-472 -59,79 -119,211 -119,472 0,261 60,394 119,473 z m 607,-775 c 3,82 -20,201 -145,379 -125,179 -229,241 -307,266 -2,-82 21,-200 146,-378 124,-179 228,-241 306,-267 z m -389,-24 c 77,-60 169,-173 236,-425 68,-252 45,-396 9,-487 -78,60 -169,173 -237,425 -67,252 -45,396 -8,487 z m 787,-590 c -18,80 -72,188 -238,328 -167,140 -283,173 -365,178 19,-80 72,-189 238,-329 167,-139 283,-173 365,-177 z"
       id="path6610"
       inkscape:connector-curvature="0"
       style="fill:#ffffff" /><path
       class="fil2"
       d="m 2500,9215 c -75,-32 -173,-103 -282,-292 -109,-188 -122,-309 -112,-390 76,32 174,103 282,292 109,188 122,309 112,390 z m 416,2983 c -12,-98 3,-242 134,-468 130,-226 248,-312 338,-350 12,97 -3,242 -134,468 -130,226 -248,311 -338,350 z m -139,-974 c -44,69 -83,184 -64,400 19,217 78,323 132,384 44,-70 83,-184 64,-401 -19,-216 -78,-322 -132,-383 z m 349,173 c -37,-91 -60,-235 8,-487 67,-252 159,-365 236,-425 37,91 60,234 -8,487 -67,252 -159,365 -236,425 z m -387,-905 c -23,79 -32,200 43,404 74,204 158,291 227,336 23,-78 32,-199 -43,-403 -74,-205 -158,-292 -227,-337 z m 382,78 c -59,-79 -118,-212 -118,-473 0,-261 59,-393 118,-472 59,79 119,211 119,472 0,261 -60,394 -119,473 z m -607,-775 c -3,82 20,201 145,379 125,179 229,241 307,266 2,-82 -21,-200 -146,-378 -124,-179 -228,-241 -306,-267 z m 389,-24 c -77,-60 -169,-173 -236,-425 -68,-252 -45,-396 -9,-487 78,60 169,173 237,425 67,252 45,396 8,487 z m -787,-590 c 18,80 72,188 238,328 167,140 283,173 365,178 -19,-80 -72,-189 -238,-329 -167,-139 -283,-173 -365,-177 z"
       id="path6612"
       inkscape:connector-curvature="0"
       style="fill:#ffffff" /><path
       class="fil2 str0"
       d="m 0,12929 c 542,0 1032,-224 1382,-583 -78,11 -183,14 -235,1 -143,-36 -298,-45 -437,18 73,-109 322,-141 473,-164 237,-36 381,-51 488,-236 l 0,0 c 127,-219 212,-466 244,-729 -62,93 -203,190 -368,219 -309,55 -528,200 -637,309 55,-145 382,-382 710,-600 228,-152 338,-312 243,-663 l 1,0 c -30,-111 -69,-218 -117,-320 -2,217 -20,219 -218,400 -143,131 -237,255 -310,437 0,-382 383,-655 383,-964 0,-79 -17,-157 -123,-292 C 1125,9339 594,9071 0,9071 c -594,0 -1125,268 -1479,691 -106,135 -123,213 -123,292 0,309 383,582 383,964 -73,-182 -167,-306 -310,-437 -198,-181 -216,-183 -218,-400 -48,102 -87,209 -117,320 l 1,0 c -95,351 15,511 243,663 328,218 655,455 710,600 -109,-109 -328,-254 -637,-309 -165,-29 -306,-126 -368,-219 32,263 117,510 244,729 l 0,0 c 107,185 251,200 488,236 151,23 400,55 473,164 -139,-63 -294,-54 -437,-18 -52,13 -157,10 -235,-1 350,359 840,583 1382,583 z M 127,9926 c 146,0 437,55 583,164 -419,-73 -856,-55 -856,200 0,374 523,605 475,1210 503,-143 872,-606 872,-1155 0,-664 -538,-1201 -1201,-1201 -663,0 -1201,537 -1201,1201 0,530 344,980 820,1139 48,-39 90,-93 90,-193 0,-236 -219,-710 -219,-1128 0,-346 273,-346 346,-346 188,0 273,36 291,109 z"
       id="path6614"
       inkscape:connector-curvature="0"
       style="fill:#ffffff;stroke:#000000;stroke-width:3" /><circle
       class="fil3"
       cy="11000"
       r="3898"
       id="circle6616"
       cx="0"
       style="fill:none" /><path
       class="fil4"
       d="m -2785,12990 -52,-74 422,-297 52,74 -422,297 z m 439,509 -57,-59 233,-225 c 11,-11 24,-21 38,-33 -12,6 -30,13 -55,21 l -286,75 -12,-13 85,-285 c 6,-20 13,-37 22,-53 -19,20 -31,32 -35,36 l -233,224 -51,-52 372,-358 51,53 -99,347 349,-87 50,52 -372,357 z m 637,129 c -41,52 -85,61 -130,25 l -192,-150 -124,158 -70,-55 319,-406 261,205 c 45,36 48,80 7,132 l -71,91 z m -50,-77 34,-44 c 17,-21 14,-40 -7,-57 l -159,-125 -85,108 159,125 c 22,16 41,14 58,-7 z m 307,566 -345,-202 261,-446 341,200 -44,76 -264,-154 -58,99 154,90 -44,76 -155,-90 -64,111 267,156 -49,84 z m 563,201 -121,-43 -82,-236 -80,-28 -66,183 -83,-29 172,-487 313,111 c 55,20 71,61 49,124 l -41,114 c -16,44 -37,68 -65,71 -16,2 -49,-5 -98,-23 l 102,243 z m -11,-348 20,-58 c 10,-26 1,-43 -24,-52 l -191,-68 -48,136 190,67 c 26,9 44,1 53,-25 z m 213,386 -88,-20 115,-503 87,20 -114,503 z m 618,72 -101,-7 -38,-117 -244,-18 -54,109 -90,-7 258,-498 87,7 182,531 z m -169,-219 -68,-216 -102,203 170,13 z m 643,194 -378,29 -40,-515 90,-7 32,418 289,-22 7,97 z m 796,-185 -97,28 -76,-96 -236,68 -12,121 -86,25 67,-556 84,-25 356,435 z m -235,-147 -139,-178 -24,225 163,-47 z m 665,-183 c 18,40 26,69 24,88 -4,25 -24,46 -61,63 l -243,109 c -37,17 -66,18 -87,5 -16,-11 -33,-36 -51,-76 l -112,-248 c -18,-40 -26,-70 -23,-88 4,-26 24,-46 60,-63 l 244,-110 c 38,-17 68,-18 89,-2 15,11 32,38 51,80 l -71,56 -24,-53 -256,115 134,298 256,-115 -47,-105 -134,61 -36,-81 214,-96 73,162 z m 512,-211 -326,232 -299,-420 322,-230 51,72 -249,177 67,94 145,-104 51,72 -145,104 74,104 252,-180 57,79 z m 433,-403 -44,43 -426,-33 c -20,-2 -37,-5 -52,-8 20,17 37,34 52,50 l 200,208 -58,56 -358,-372 45,-43 406,30 c 30,3 54,6 71,10 -31,-29 -52,-49 -62,-60 l -190,-197 58,-56 358,372 z m -4,-712 -104,146 346,245 -52,73 -346,-245 -103,145 -75,-53 259,-364 75,53 z"
       id="path6618"
       inkscape:connector-curvature="0"
       style="fill:#ffffff;fill-rule:nonzero" /><path
       class="fil4"
       d="m -731,7595 c -4,28 -11,63 -22,106 l -16,63 87,552 -74,11 -66,-417 c -11,27 -25,53 -41,81 l -47,-73 c 48,-91 83,-200 106,-327 l 73,4 z m 567,643 -71,11 -4,-30 -363,57 -93,-588 72,-12 81,516 109,-17 -97,-618 72,-11 97,618 110,-17 -81,-516 71,-12 97,619 z M 894,8013 c -11,70 -22,131 -33,181 -12,51 -21,82 -28,95 -8,13 -17,22 -29,28 -13,7 -30,9 -52,7 -22,-2 -46,-4 -71,-8 l -17,-73 c 57,9 90,12 98,9 9,-3 15,-10 19,-22 4,-11 16,-66 34,-163 l -233,-37 60,-385 73,11 c 13,-17 29,-41 46,-72 l 60,31 c -6,12 -18,30 -34,53 l 130,20 c -10,63 -20,119 -30,168 -10,49 -19,77 -28,84 -8,7 -18,13 -29,18 -11,5 -42,3 -92,-7 l -11,-69 c 21,4 36,7 46,9 18,3 31,-1 38,-10 7,-10 17,-56 30,-138 l -145,-23 -40,255 238,38 z m -367,246 -254,-40 -6,33 -64,-11 48,-305 c -12,10 -23,17 -31,23 l -21,-72 c 67,-47 123,-117 170,-211 l -51,-8 -12,78 -65,-10 23,-144 132,20 c 10,-24 19,-50 27,-76 l 59,20 c -5,24 -12,46 -20,67 l 140,22 -22,144 -64,-10 12,-78 -93,-14 c -16,34 -37,71 -63,113 l 51,8 c 1,-12 -1,-32 -5,-60 l 63,0 c 3,15 4,39 5,70 l 93,15 -9,59 -100,-16 -9,59 91,14 -9,55 -91,-14 -10,64 91,14 -9,57 -91,-14 -11,70 115,18 -10,60 z m -130,-334 9,-59 -76,-12 -9,59 76,12 z m -19,119 10,-64 -76,-12 -10,64 76,12 z m -20,127 11,-70 -76,-12 -11,70 76,12 z m 437,-319 -60,11 c -3,-33 -10,-66 -21,-101 l 60,-11 c 12,34 19,67 21,101 z m -28,343 -227,-36 11,-66 227,36 -11,66 z"
       id="path6620"
       inkscape:connector-curvature="0"
       style="fill:#ffffff;fill-rule:nonzero" /><circle
       class="fil3"
       cy="11000"
       r="3898"
       id="circle6622"
       cx="0"
       style="fill:none" /></g></svg>