<?xml version="1.0" encoding="UTF-8" standalone="no"?>
<!-- Creator: CorelDRAW X7 -->

<svg
   xmlns:dc="http://purl.org/dc/elements/1.1/"
   xmlns:cc="http://creativecommons.org/ns#"
   xmlns:rdf="http://www.w3.org/1999/02/22-rdf-syntax-ns#"
   xmlns:svg="http://www.w3.org/2000/svg"
   xmlns="http://www.w3.org/2000/svg"
   xmlns:sodipodi="http://sodipodi.sourceforge.net/DTD/sodipodi-0.dtd"
   xmlns:inkscape="http://www.inkscape.org/namespaces/inkscape"
   xml:space="preserve"
   width="7.8740005in"
   height="7.8740005in"
   version="1.1"
   style="clip-rule:evenodd;fill-rule:evenodd;image-rendering:optimizeQuality;shape-rendering:geometricPrecision;text-rendering:geometricPrecision"
   viewBox="0 0 7874.0005 7874.0005"
   id="svg21130"
   inkscape:version="0.91 r13725"
   sodipodi:docname="image_7030.svg"><metadata
     id="metadata21150"><rdf:RDF><cc:Work
         rdf:about=""><dc:format>image/svg+xml</dc:format><dc:type
           rdf:resource="http://purl.org/dc/dcmitype/StillImage" /></cc:Work></rdf:RDF></metadata><sodipodi:namedview
     pagecolor="#ffffff"
     bordercolor="#666666"
     borderopacity="1"
     objecttolerance="10"
     gridtolerance="10"
     guidetolerance="10"
     inkscape:pageopacity="0"
     inkscape:pageshadow="2"
     inkscape:window-width="640"
     inkscape:window-height="480"
     id="namedview21148"
     showgrid="false"
     inkscape:zoom="0.23838384"
     inkscape:cx="736.83001"
     inkscape:cy="849.33005"
     inkscape:window-x="0"
     inkscape:window-y="0"
     inkscape:window-maximized="0"
     inkscape:current-layer="svg21130" /><defs
     id="defs21132"><style
       type="text/css"
       id="style21134"><![CDATA[
    .fil3 {fill:none}
    .fil2 {fill:black}
    .fil1 {fill:black}
    .fil0 {fill:white}
    .fil4 {fill:white;fill-rule:nonzero}
   ]]></style></defs><g
     id="Layer_x0020_1"
     transform="translate(3937,-7063)"><metadata
       id="CorelCorpID_0Corel-Layer" /><circle
       class="fil0"
       cy="11000"
       r="3937"
       id="circle21138"
       cx="0"
       style="fill:#ffffff" /><path
       class="fil1"
       d="m 741,7293 c 1733,345 3039,1873 3039,3707 0,2087 -1693,3780 -3780,3780 -2087,0 -3780,-1693 -3780,-3780 0,-1834 1306,-3362 3039,-3707 57,-11 113,26 124,83 12,58 -25,114 -83,125 l 0,0 c -1293,314 -2253,1479 -2253,2869 0,1631 1322,2953 2953,2953 1631,0 2953,-1322 2953,-2953 0,-1390 -960,-2555 -2253,-2869 l 0,0 c -58,-11 -95,-67 -83,-125 11,-57 67,-94 124,-83 z"
       id="path21140"
       inkscape:connector-curvature="0"
       style="fill:#000000" /><path
       class="fil2"
       d="m 236,7585 c 1321,110 2381,1140 2539,2447 -138,-377 -500,-646 -925,-646 -543,0 -984,440 -984,984 0,544 441,984 984,984 425,0 787,-269 925,-646 -158,1307 -1218,2337 -2539,2447 l 0,-5570 z m -472,5570 c -1321,-110 -2381,-1140 -2539,-2447 138,377 500,646 925,646 543,0 984,-440 984,-984 0,-544 -441,-984 -984,-984 -425,0 -787,269 -925,646 158,-1307 1218,-2337 2539,-2447 l 0,5570 z"
       id="path21142"
       inkscape:connector-curvature="0"
       style="fill:#000000" /><circle
       class="fil3"
       cy="11000"
       r="3898"
       id="circle21144"
       cx="0"
       style="fill:none" /><path
       class="fil4"
       d="m -2371,13072 c -5,20 -10,37 -14,51 -4,15 -9,30 -16,47 l 5,5 c 12,-11 37,-33 74,-64 38,-32 73,-60 104,-84 l 67,-53 c 15,-11 25,-20 31,-27 6,-6 10,-12 11,-18 2,-6 1,-12 0,-19 -2,-7 -7,-18 -14,-33 l 16,-13 118,151 -16,13 c -12,-11 -22,-18 -28,-21 -6,-4 -12,-6 -18,-6 -6,-1 -13,1 -21,4 -8,4 -20,12 -36,24 l -359,281 -41,-52 116,-468 c 8,-29 13,-50 17,-63 3,-13 7,-25 12,-37 l -6,-7 c -15,15 -44,40 -86,74 -42,35 -85,69 -128,102 l -65,51 c -14,11 -24,20 -30,27 -5,6 -9,12 -11,18 -1,6 -1,13 1,21 2,8 7,19 14,34 l -16,12 -119,-153 15,-12 c 17,14 30,23 39,26 9,2 18,2 27,-3 9,-4 21,-12 37,-24 l 277,-218 c 15,-11 25,-20 31,-27 5,-7 9,-13 10,-19 1,-6 1,-13 -1,-20 -2,-7 -7,-18 -14,-33 l 16,-12 103,131 -102,414 z m 216,736 235,-301 c 36,-46 54,-80 54,-103 -1,-22 -13,-43 -38,-62 -18,-14 -44,-22 -78,-24 -33,-3 -57,6 -72,25 l -156,199 -73,-56 184,-235 c 23,-28 24,-51 4,-66 -13,-10 -29,-16 -50,-18 l -1,-32 c 46,6 82,20 109,41 42,33 50,69 25,108 l 2,3 c 76,-1 133,14 171,44 31,25 52,52 60,83 9,30 -5,69 -41,115 l -263,335 -72,-56 z m 797,-93 -1,3 c 48,68 54,132 18,193 -28,48 -69,75 -123,81 -54,6 -113,-9 -175,-46 -60,-35 -99,-77 -118,-127 -19,-51 -15,-99 13,-146 27,-47 62,-77 105,-90 43,-12 87,-12 133,1 45,14 97,38 156,72 l 186,109 -28,47 -166,-97 z m -60,-33 c -107,-63 -187,-49 -241,42 -24,41 -32,79 -26,113 7,34 28,61 64,82 79,47 144,28 193,-56 34,-57 37,-118 10,-181 z m 703,603 c -44,11 -84,10 -120,-3 -51,-18 -69,-65 -54,-140 l -5,-2 c -72,55 -141,71 -207,47 -50,-18 -83,-47 -100,-89 -16,-41 -14,-91 7,-149 21,-60 58,-101 111,-122 52,-22 107,-23 163,-2 43,15 73,34 91,58 19,24 30,57 35,99 l 7,3 69,-81 82,29 -7,19 c -34,20 -85,61 -152,123 -12,54 -17,96 -17,125 0,30 10,48 31,56 14,4 32,4 55,-1 l 11,30 z m -152,-230 c 12,-61 13,-106 4,-136 -9,-30 -30,-51 -63,-63 -36,-12 -69,-8 -101,14 -32,22 -56,58 -74,107 -33,94 -20,152 42,174 65,23 129,-9 192,-96 z m 338,-127 90,15 -48,284 c -7,43 9,67 48,74 18,3 37,1 55,-7 l 18,27 c -41,17 -80,22 -116,16 -76,-13 -108,-53 -96,-121 l 49,-288 z m 636,378 c -65,43 -140,64 -225,63 -59,-1 -104,-12 -135,-31 -32,-19 -48,-45 -47,-78 0,-25 12,-46 35,-65 23,-19 56,-33 99,-41 l 0,-4 c -76,-17 -114,-49 -113,-95 0,-28 19,-50 55,-66 36,-17 85,-25 147,-24 45,1 99,9 162,25 l -1,70 -54,-1 c -22,-40 -60,-61 -116,-61 -27,-1 -50,4 -68,15 -18,11 -27,26 -28,46 0,25 10,42 31,54 21,11 59,17 112,18 l 30,1 -1,44 -47,-1 c -47,-1 -83,5 -107,17 -24,12 -36,30 -36,55 -1,48 37,73 114,74 58,1 113,-14 163,-45 l 30,30 z m 723,-43 -5,-20 c 17,-6 29,-12 37,-17 7,-5 13,-11 16,-18 2,-7 3,-15 0,-24 -2,-9 -5,-19 -10,-28 -6,-10 -12,-21 -20,-33 l -31,-46 -242,55 -9,43 c -4,22 -7,38 -7,49 -1,10 0,20 2,28 3,16 11,26 24,31 12,5 29,6 52,4 l 4,19 -221,51 -5,-19 c 19,-7 34,-19 45,-37 11,-19 20,-43 27,-74 l 115,-488 82,-19 279,401 c 13,19 23,33 32,42 9,9 19,16 29,20 11,4 24,6 40,5 l 5,19 -239,56 z m -249,-168 217,-50 -158,-233 -59,283 z m 536,73 c 15,-40 27,-86 36,-137 l 50,-304 c -39,-42 -70,-70 -93,-83 -24,-14 -50,-14 -80,0 -28,12 -49,34 -65,66 l -32,-9 c 27,-57 63,-96 107,-116 30,-14 57,-18 80,-12 22,6 46,20 71,44 24,24 65,73 123,146 76,96 128,155 155,176 28,22 53,28 73,18 15,-6 27,-16 36,-30 l 29,14 c -24,33 -48,56 -74,67 -36,17 -68,14 -97,-7 -28,-22 -84,-88 -169,-200 l -2,1 c -17,110 -31,223 -42,339 l -98,45 -8,-18 z m 983,-557 c -20,44 -48,77 -83,99 -21,14 -40,20 -60,21 -19,0 -43,-5 -69,-16 l -158,-62 c -7,16 -18,36 -35,61 l 90,139 -77,50 -152,-234 c -19,-29 -33,-47 -44,-52 -10,-5 -29,-1 -59,13 l -12,-18 102,-71 28,-18 105,162 c 22,-39 44,-99 65,-180 13,-53 25,-88 37,-106 11,-17 26,-32 45,-44 16,-11 32,-19 48,-24 l 42,65 -36,23 c -13,-6 -27,-4 -41,5 -13,8 -23,21 -31,38 -9,18 -22,58 -42,120 l 196,68 c 32,11 57,10 77,-3 14,-10 26,-25 34,-45 l 30,9 z m 465,-166 -265,-275 c -41,-42 -72,-65 -94,-67 -22,-3 -45,7 -67,29 -17,16 -29,40 -35,73 -7,33 -2,58 15,75 l 176,183 -66,63 -207,-214 c -26,-26 -47,-31 -66,-13 -11,11 -19,27 -24,47 l -32,-3 c 13,-45 31,-79 56,-103 38,-37 75,-40 110,-10 l 3,-1 c 10,-75 33,-130 68,-163 28,-28 59,-44 90,-49 31,-4 67,15 108,58 l 296,307 -66,63 z m -27,-858 62,44 -38,53 c -43,-8 -79,8 -106,47 -21,29 -28,61 -21,95 7,34 29,64 66,90 33,23 63,33 93,30 29,-3 69,-25 118,-67 33,-28 60,-45 80,-53 20,-7 39,-5 58,9 22,15 35,41 40,76 5,35 4,82 -3,140 l -42,9 c 8,-75 -2,-122 -30,-142 -12,-8 -25,-11 -37,-6 -12,4 -28,14 -48,30 -62,52 -114,81 -156,89 -41,7 -81,-3 -120,-31 -45,-32 -69,-76 -72,-132 -3,-57 16,-115 59,-175 28,-40 61,-76 97,-106 z"
       id="path21146"
       inkscape:connector-curvature="0"
       style="fill:#ffffff;fill-rule:nonzero" /></g></svg>