<?xml version="1.0" encoding="UTF-8" standalone="no"?>
<!-- Creator: CorelDRAW X7 -->

<svg
   xmlns:dc="http://purl.org/dc/elements/1.1/"
   xmlns:cc="http://creativecommons.org/ns#"
   xmlns:rdf="http://www.w3.org/1999/02/22-rdf-syntax-ns#"
   xmlns:svg="http://www.w3.org/2000/svg"
   xmlns="http://www.w3.org/2000/svg"
   xmlns:sodipodi="http://sodipodi.sourceforge.net/DTD/sodipodi-0.dtd"
   xmlns:inkscape="http://www.inkscape.org/namespaces/inkscape"
   xml:space="preserve"
   width="7.8740005in"
   height="7.8740005in"
   version="1.1"
   style="clip-rule:evenodd;fill-rule:evenodd;image-rendering:optimizeQuality;shape-rendering:geometricPrecision;text-rendering:geometricPrecision"
   viewBox="0 0 7874.0005 7874.0005"
   id="svg17766"
   inkscape:version="0.91 r13725"
   sodipodi:docname="image_6052.svg"><metadata
     id="metadata17782"><rdf:RDF><cc:Work
         rdf:about=""><dc:format>image/svg+xml</dc:format><dc:type
           rdf:resource="http://purl.org/dc/dcmitype/StillImage" /></cc:Work></rdf:RDF></metadata><sodipodi:namedview
     pagecolor="#ffffff"
     bordercolor="#666666"
     borderopacity="1"
     objecttolerance="10"
     gridtolerance="10"
     guidetolerance="10"
     inkscape:pageopacity="0"
     inkscape:pageshadow="2"
     inkscape:window-width="640"
     inkscape:window-height="480"
     id="namedview17780"
     showgrid="false"
     inkscape:zoom="0.23838384"
     inkscape:cx="736.83001"
     inkscape:cy="849.33005"
     inkscape:window-x="0"
     inkscape:window-y="0"
     inkscape:window-maximized="0"
     inkscape:current-layer="svg17766" /><defs
     id="defs17768"><style
       type="text/css"
       id="style17770"><![CDATA[
    .fil1 {fill:black}
    .fil0 {fill:#E2001A}
   ]]></style></defs><g
     id="Layer_x0020_1"
     transform="translate(3937,-7063)"><metadata
       id="CorelCorpID_0Corel-Layer" /><circle
       class="fil0"
       cy="11000"
       r="3937"
       id="circle17774"
       cx="0"
       style="fill:#e2001a" /><circle
       class="fil1"
       cy="11000"
       r="3819"
       id="circle17776"
       cx="0"
       style="fill:#000000" /><path
       class="fil0"
       d="m 197,7693 c 315,236 649,610 787,1122 59,-394 414,216 414,866 0,272 -158,591 -433,847 334,-79 590,-493 590,-847 C 1555,8579 551,7811 197,7693 Z m -631,4096 c -53,75 178,13 178,77 0,59 -177,138 -275,256 l 531,2205 0,0 0,0 0,0 0,0 531,-2205 c -98,-118 -275,-197 -275,-256 0,-64 231,-2 178,-77 -99,-139 -139,-218 -139,-435 0,-244 138,-433 374,-433 167,0 601,193 610,597 158,-58 300,-128 424,-211 74,-52 167,-150 167,-386 0,-216 99,-590 236,-590 77,0 135,111 102,405 108,-223 164,-483 164,-781 0,-1158 -679,-1829 -1617,-2211 645,343 1243,1111 1243,1889 0,625 -450,1025 -973,1025 -373,0 -977,-326 -1023,-997 l -2,-48 0,0 -2,48 c -46,671 -650,997 -1023,997 -523,0 -973,-400 -973,-1025 0,-778 598,-1546 1243,-1889 -938,382 -1617,1053 -1617,2211 0,298 56,558 164,781 -33,-294 25,-405 102,-405 137,0 236,374 236,590 0,236 93,334 167,386 124,83 266,153 424,211 9,-404 443,-597 610,-597 236,0 374,189 374,433 0,217 -40,296 -139,435 z m 237,-4096 c -315,236 -649,610 -787,1122 -59,-394 -414,216 -414,866 0,272 158,591 433,847 -334,-79 -590,-493 -590,-847 0,-1102 1004,-1870 1358,-1988 z"
       id="path17778"
       inkscape:connector-curvature="0"
       style="fill:#e2001a" /></g></svg>