<?xml version="1.0" encoding="UTF-8" standalone="no"?>
<!-- Creator: CorelDRAW X7 -->

<svg
   xmlns:dc="http://purl.org/dc/elements/1.1/"
   xmlns:cc="http://creativecommons.org/ns#"
   xmlns:rdf="http://www.w3.org/1999/02/22-rdf-syntax-ns#"
   xmlns:svg="http://www.w3.org/2000/svg"
   xmlns="http://www.w3.org/2000/svg"
   xmlns:sodipodi="http://sodipodi.sourceforge.net/DTD/sodipodi-0.dtd"
   xmlns:inkscape="http://www.inkscape.org/namespaces/inkscape"
   xml:space="preserve"
   width="7.8740005in"
   height="7.8740005in"
   version="1.1"
   style="clip-rule:evenodd;fill-rule:evenodd;image-rendering:optimizeQuality;shape-rendering:geometricPrecision;text-rendering:geometricPrecision"
   viewBox="0 0 7874.0005 7874.0005"
   id="svg4517"
   inkscape:version="0.91 r13725"
   sodipodi:docname="Ariadna - Veteran Kazaks - [N3] [Vyo].svg"><metadata
     id="metadata4568"><rdf:RDF><cc:Work
         rdf:about=""><dc:format>image/svg+xml</dc:format><dc:type
           rdf:resource="http://purl.org/dc/dcmitype/StillImage" /></cc:Work></rdf:RDF></metadata><sodipodi:namedview
     pagecolor="#ffffff"
     bordercolor="#666666"
     borderopacity="1"
     objecttolerance="10"
     gridtolerance="10"
     guidetolerance="10"
     inkscape:pageopacity="0"
     inkscape:pageshadow="2"
     inkscape:window-width="640"
     inkscape:window-height="480"
     id="namedview4566"
     showgrid="false"
     inkscape:zoom="0.23838384"
     inkscape:cx="736.83001"
     inkscape:cy="849.33005"
     inkscape:window-x="0"
     inkscape:window-y="0"
     inkscape:window-maximized="0"
     inkscape:current-layer="svg4517" /><defs
     id="defs4519"><style
       type="text/css"
       id="style4521"><![CDATA[
    .fil3 {fill:none}
    .fil0 {fill:black}
    .fil1 {fill:#FFD600}
    .fil2 {fill:white;fill-rule:nonzero}
   ]]></style></defs><g
     id="Layer_x0020_1"
     transform="translate(3937,-7063)"><metadata
       id="CorelCorpID_0Corel-Layer" /><circle
       class="fil0"
       cy="11000"
       r="3937"
       id="circle4525"
       cx="0"
       style="fill:#000000" /><circle
       class="fil1"
       cy="11000"
       r="3858"
       id="circle4527"
       cx="0"
       style="fill:#ffd600" /><circle
       class="fil0"
       cy="11000"
       r="3661"
       id="circle4529"
       cx="0"
       style="fill:#000000" /><path
       class="fil1"
       d="m 0,8185 c 1555,0 2815,1260 2815,2815 0,747 -291,1425 -765,1929 l -4100,0 c -474,-504 -765,-1182 -765,-1929 0,-1555 1260,-2815 2815,-2815 z"
       id="path4531"
       inkscape:connector-curvature="0"
       style="fill:#ffd600" /><path
       class="fil0"
       d="m -1981,12772 3962,0 c 436,-488 676,-1115 676,-1772 C 2657,9532 1468,8343 0,8343 c -1468,0 -2657,1189 -2657,2657 0,657 240,1284 676,1772 z"
       id="path4533"
       inkscape:connector-curvature="0"
       style="fill:#000000" /><path
       class="fil2"
       d="m -2159,13769 218,-646 106,0 218,646 -91,0 -58,-179 -248,0 -58,179 -87,0 z m 368,-254 -99,-303 -100,303 199,0 z"
       id="path4535"
       inkscape:connector-curvature="0"
       style="fill:#ffffff;fill-rule:nonzero" /><path
       id="1"
       class="fil2"
       d="m -1079,13318 c 0,28 -6,55 -15,80 -10,25 -24,46 -42,64 -22,22 -48,38 -78,50 -30,11 -68,17 -114,17 l -72,0 0,240 -87,0 0,-646 162,0 c 39,0 71,3 98,10 27,6 50,16 71,31 24,16 43,37 56,62 14,26 21,56 21,92 z m -90,2 c 0,-22 -4,-41 -12,-57 -7,-17 -19,-30 -34,-40 -14,-10 -30,-16 -48,-19 -18,-4 -40,-6 -67,-6 l -70,0 0,256 58,0 c 34,0 62,-3 84,-9 21,-5 38,-15 53,-29 12,-13 21,-27 27,-43 6,-15 9,-33 9,-53 z"
       inkscape:connector-curvature="0"
       style="fill:#ffffff;fill-rule:nonzero" /><polygon
       id="2"
       class="fil2"
       points="-840,13769 -927,13769 -927,13123 -841,13123 -841,13628 -554,13123 -463,13123 -463,13769 -549,13769 -549,13256 "
       style="fill:#ffffff;fill-rule:nonzero" /><path
       id="3"
       class="fil2"
       d="m -332,13769 218,-646 106,0 218,646 -91,0 -58,-179 -248,0 -58,179 -87,0 z m 368,-254 -99,-303 -100,303 199,0 z"
       inkscape:connector-curvature="0"
       style="fill:#ffffff;fill-rule:nonzero" /><path
       id="4"
       class="fil2"
       d="m 865,13916 -82,0 0,-148 -419,0 0,148 -81,0 0,-223 35,0 c 38,-62 68,-142 91,-242 23,-100 35,-209 35,-328 l 360,0 0,570 61,0 0,223 z m -148,-223 0,-495 -193,0 c -4,104 -18,199 -39,284 -22,85 -50,155 -84,211 l 316,0 z"
       inkscape:connector-curvature="0"
       style="fill:#ffffff;fill-rule:nonzero" /><polygon
       id="5"
       class="fil2"
       points="1104,13453 1104,13769 1018,13769 1018,13123 1104,13123 1104,13377 1400,13377 1400,13123 1486,13123 1486,13769 1400,13769 1400,13453 "
       style="fill:#ffffff;fill-rule:nonzero" /><path
       id="6"
       class="fil2"
       d="m 1617,13769 218,-646 106,0 218,646 -91,0 -58,-179 -247,0 -59,179 -87,0 z m 369,-254 -100,-303 -99,303 199,0 z"
       inkscape:connector-curvature="0"
       style="fill:#ffffff;fill-rule:nonzero" /><circle
       class="fil3"
       cy="11000"
       r="3898"
       id="circle4543"
       cx="0"
       style="fill:none" /><path
       class="fil2"
       d="m -2444,9440 -53,100 -381,64 -26,48 270,144 -42,78 -587,-314 41,-78 265,142 c 16,-31 21,-60 16,-86 -5,-25 -18,-51 -39,-77 -9,-11 -18,-21 -27,-30 -9,-10 -16,-18 -22,-24 -37,-40 -57,-76 -61,-110 -4,-34 6,-72 29,-116 l 13,-24 70,37 -11,20 c -17,32 -23,58 -17,78 6,19 23,44 52,73 29,29 48,55 57,77 9,22 15,46 17,71 l 436,-73 z"
       id="path4545"
       inkscape:connector-curvature="0"
       style="fill:#ffffff;fill-rule:nonzero" /><path
       id="path4547"
       class="fil2"
       d="m -2448,9433 -387,-587 67,-87 664,233 -57,74 -183,-67 -158,202 109,162 -55,70 z m 28,-461 -312,-112 185,274 127,-162 z"
       inkscape:connector-curvature="0"
       style="fill:#ffffff;fill-rule:nonzero" /><path
       id="path4549"
       class="fil2"
       d="m -1996,8476 c 20,0 39,4 59,12 20,8 41,23 61,46 20,22 33,47 41,74 8,27 11,55 8,83 -3,29 -13,58 -30,87 -17,28 -40,56 -69,81 -31,28 -62,50 -93,66 -32,17 -58,29 -80,36 l -65,-74 4,-5 c 29,-3 60,-12 94,-25 33,-13 63,-31 89,-54 16,-14 30,-31 43,-49 12,-19 19,-38 21,-58 3,-19 1,-37 -4,-54 -5,-16 -15,-33 -31,-50 -15,-17 -31,-29 -47,-35 -17,-7 -34,-9 -52,-6 -17,2 -34,9 -52,19 -18,11 -36,24 -54,39 l -52,46 -48,-55 45,-40 c 35,-31 57,-63 66,-96 9,-33 1,-63 -23,-91 -11,-12 -23,-20 -36,-24 -13,-5 -27,-5 -42,-3 -16,3 -30,9 -43,17 -14,8 -27,18 -41,30 -14,12 -27,26 -37,42 -11,15 -21,31 -29,46 -7,15 -13,29 -17,42 -4,13 -7,24 -10,32 l -4,4 -65,-73 c 9,-21 24,-46 45,-75 20,-29 44,-55 69,-77 26,-23 50,-40 72,-52 22,-12 46,-20 70,-24 26,-3 50,-2 72,6 21,7 41,21 59,42 24,27 36,59 36,95 -1,36 -13,70 -36,102 l 4,4 c 13,-7 29,-15 46,-21 18,-6 36,-10 56,-10 z"
       inkscape:connector-curvature="0"
       style="fill:#ffffff;fill-rule:nonzero" /><path
       id="path4551"
       class="fil2"
       d="m -1724,8648 -124,-692 95,-52 518,475 -82,45 -142,-133 -223,122 37,192 -79,43 z m 206,-412 -241,-225 62,323 179,-98 z"
       inkscape:connector-curvature="0"
       style="fill:#ffffff;fill-rule:nonzero" /><path
       id="path4553"
       class="fil2"
       d="m -698,8189 -109,32 -312,-226 -53,16 87,293 -85,25 -190,-638 85,-26 86,288 c 33,-11 57,-27 72,-49 14,-21 24,-49 27,-82 1,-14 2,-28 3,-41 0,-13 1,-23 1,-32 2,-54 14,-94 35,-121 21,-26 56,-46 103,-60 l 26,-8 23,75 -22,6 c -35,11 -57,25 -67,43 -10,18 -15,48 -15,89 -1,41 -5,73 -15,95 -9,22 -22,42 -39,62 l 359,259 z"
       inkscape:connector-curvature="0"
       style="fill:#ffffff;fill-rule:nonzero" /><path
       id="path4555"
       class="fil2"
       d="m 119,7897 c 0,33 -5,63 -17,88 -13,26 -29,47 -50,64 -25,20 -52,34 -80,43 -29,8 -66,13 -111,14 l -191,2 -10,-666 177,-3 c 48,0 83,1 107,4 24,2 47,9 69,21 24,12 41,29 53,49 11,21 17,45 17,73 1,31 -7,59 -23,84 -16,25 -39,45 -68,60 l 0,3 c 40,10 71,30 93,58 22,28 33,63 34,106 z M -9,7601 c 0,-16 -3,-30 -9,-42 -5,-11 -14,-20 -26,-27 -14,-8 -30,-12 -48,-14 -17,-2 -42,-2 -73,-2 l -85,2 3,193 101,-1 c 27,-1 48,-2 61,-5 13,-3 26,-10 40,-19 13,-8 23,-20 28,-34 6,-14 8,-31 8,-51 z m 35,301 c 0,-25 -4,-46 -11,-62 -8,-16 -22,-30 -44,-40 -14,-8 -29,-12 -46,-14 -17,-2 -40,-3 -70,-2 l -101,1 4,245 72,-1 c 38,-1 69,-3 91,-7 22,-4 42,-11 59,-23 16,-12 28,-25 36,-40 7,-15 11,-34 10,-57 z"
       inkscape:connector-curvature="0"
       style="fill:#ffffff;fill-rule:nonzero" /><polygon
       id="polygon4557"
       class="fil2"
       points="724,7589 400,7540 373,7721 675,7766 663,7844 361,7799 324,8043 649,8092 637,8170 225,8108 324,7449 736,7511 "
       style="fill:#ffffff;fill-rule:nonzero" /><polygon
       id="7"
       class="fil2"
       points="893,7542 1401,7713 1376,7787 1164,7716 977,8273 893,8245 1081,7688 869,7616 "
       style="fill:#ffffff;fill-rule:nonzero" /><polygon
       id="8"
       class="fil2"
       points="1912,8078 1624,7918 1536,8077 1803,8226 1765,8296 1497,8146 1377,8361 1664,8522 1626,8591 1261,8387 1586,7806 1950,8009 "
       style="fill:#ffffff;fill-rule:nonzero" /><path
       id="9"
       class="fil2"
       d="m 2338,8576 c -19,22 -41,40 -65,53 -25,13 -50,20 -76,22 -32,3 -63,-2 -95,-13 -31,-11 -65,-32 -101,-63 l -57,-49 -161,189 -67,-57 431,-508 128,109 c 30,25 53,49 70,72 17,23 29,47 36,72 8,29 8,58 2,87 -6,29 -21,58 -45,86 z m -71,-58 c 14,-17 24,-35 29,-53 5,-18 5,-37 0,-55 -5,-17 -13,-32 -25,-47 -12,-15 -28,-32 -50,-50 l -56,-47 -172,202 46,39 c 28,24 52,40 72,50 21,10 42,14 63,12 18,-1 35,-6 50,-14 15,-9 29,-21 43,-37 z"
       inkscape:connector-curvature="0"
       style="fill:#ffffff;fill-rule:nonzero" /><path
       id="10"
       class="fil2"
       d="m 2071,8938 667,-220 66,87 -398,579 -56,-74 112,-159 -154,-204 -183,63 -54,-72 z m 437,147 190,-271 -314,106 124,165 z"
       inkscape:connector-curvature="0"
       style="fill:#ffffff;fill-rule:nonzero" /><polygon
       id="11"
       class="fil2"
       points="2780,9371 2493,9527 2450,9449 3036,9131 3079,9209 2849,9334 2995,9602 3224,9478 3267,9556 2681,9874 2638,9796 2926,9640 "
       style="fill:#ffffff;fill-rule:nonzero" /><path
       class="fil1"
       d="m 500,10094 296,512 365,633 217,-377 386,669 387,670 -773,0 -773,0 125,-217 -730,0 -730,0 125,217 -773,0 -773,0 387,-670 386,-669 217,377 365,-633 296,-512 -273,0 387,-669 386,-669 386,669 387,669 -273,0 z m -500,1634 -295,-511 -296,-512 591,0 591,0 -296,512 -295,511 z"
       id="path4564"
       inkscape:connector-curvature="0"
       style="fill:#ffd600" /></g></svg>