<?xml version="1.0" encoding="UTF-8" standalone="no"?>
<!-- Creator: CorelDRAW X7 -->

<svg
   xmlns:dc="http://purl.org/dc/elements/1.1/"
   xmlns:cc="http://creativecommons.org/ns#"
   xmlns:rdf="http://www.w3.org/1999/02/22-rdf-syntax-ns#"
   xmlns:svg="http://www.w3.org/2000/svg"
   xmlns="http://www.w3.org/2000/svg"
   xmlns:sodipodi="http://sodipodi.sourceforge.net/DTD/sodipodi-0.dtd"
   xmlns:inkscape="http://www.inkscape.org/namespaces/inkscape"
   xml:space="preserve"
   width="7.8740005in"
   height="7.8740005in"
   version="1.1"
   style="clip-rule:evenodd;fill-rule:evenodd;image-rendering:optimizeQuality;shape-rendering:geometricPrecision;text-rendering:geometricPrecision"
   viewBox="0 0 7874.0005 7874.0005"
   id="svg17204"
   inkscape:version="0.91 r13725"
   sodipodi:docname="image_6044.svg"><metadata
     id="metadata17224"><rdf:RDF><cc:Work
         rdf:about=""><dc:format>image/svg+xml</dc:format><dc:type
           rdf:resource="http://purl.org/dc/dcmitype/StillImage" /></cc:Work></rdf:RDF></metadata><sodipodi:namedview
     pagecolor="#ffffff"
     bordercolor="#666666"
     borderopacity="1"
     objecttolerance="10"
     gridtolerance="10"
     guidetolerance="10"
     inkscape:pageopacity="0"
     inkscape:pageshadow="2"
     inkscape:window-width="640"
     inkscape:window-height="480"
     id="namedview17222"
     showgrid="false"
     inkscape:zoom="0.23838384"
     inkscape:cx="736.83001"
     inkscape:cy="849.33005"
     inkscape:window-x="0"
     inkscape:window-y="0"
     inkscape:window-maximized="0"
     inkscape:current-layer="svg17204" /><defs
     id="defs17206"><style
       type="text/css"
       id="style17208"><![CDATA[
    .fil1 {fill:#403273}
    .fil0 {fill:#FFF700}
   ]]></style></defs><g
     id="Layer_x0020_1"
     transform="translate(3937,-7063)"><metadata
       id="CorelCorpID_0Corel-Layer" /><circle
       class="fil0"
       cy="11000"
       r="3937"
       id="circle17212"
       cx="0"
       style="fill:#fff700" /><circle
       class="fil1"
       cy="11000"
       r="3780"
       id="circle17214"
       cx="0"
       style="fill:#403273" /><path
       class="fil0"
       d="m -1936,9747 c 23,-112 166,-252 409,-185 405,112 1058,485 1422,864 60,-463 68,-1115 -228,-1373 -365,-320 -843,-456 -1248,-568 -189,-52 -470,367 -534,627 l -759,3077 61,642 c 91,-26 217,-104 272,-141 l 605,-2943 z"
       id="path17216"
       inkscape:connector-curvature="0"
       style="fill:#fff700" /><polygon
       class="fil0"
       points="0,10705 -512,11571 0,13343 512,11571 "
       id="polygon17218"
       style="fill:#fff700" /><path
       class="fil0"
       d="m 1936,9747 c -23,-112 -166,-252 -409,-185 -405,112 -1058,485 -1422,864 -60,-463 -68,-1115 228,-1373 365,-320 843,-456 1248,-568 189,-52 470,367 534,627 l 759,3077 -61,642 c -91,-26 -217,-104 -272,-141 L 1936,9747 Z"
       id="path17220"
       inkscape:connector-curvature="0"
       style="fill:#fff700" /></g></svg>