<?xml version="1.0" encoding="UTF-8" standalone="no"?>
<!-- Creator: CorelDRAW X7 -->

<svg
   xmlns:dc="http://purl.org/dc/elements/1.1/"
   xmlns:cc="http://creativecommons.org/ns#"
   xmlns:rdf="http://www.w3.org/1999/02/22-rdf-syntax-ns#"
   xmlns:svg="http://www.w3.org/2000/svg"
   xmlns="http://www.w3.org/2000/svg"
   xmlns:sodipodi="http://sodipodi.sourceforge.net/DTD/sodipodi-0.dtd"
   xmlns:inkscape="http://www.inkscape.org/namespaces/inkscape"
   xml:space="preserve"
   width="7.8740005in"
   height="7.8740005in"
   version="1.1"
   style="clip-rule:evenodd;fill-rule:evenodd;image-rendering:optimizeQuality;shape-rendering:geometricPrecision;text-rendering:geometricPrecision"
   viewBox="0 0 7874.0005 7874.0005"
   id="svg3697"
   inkscape:version="0.91 r13725"
   sodipodi:docname="Mercs - Senor Massacre - [N3] [Vyo].svg"><metadata
     id="metadata3721"><rdf:RDF><cc:Work
         rdf:about=""><dc:format>image/svg+xml</dc:format><dc:type
           rdf:resource="http://purl.org/dc/dcmitype/StillImage" /></cc:Work></rdf:RDF></metadata><sodipodi:namedview
     pagecolor="#ffffff"
     bordercolor="#666666"
     borderopacity="1"
     objecttolerance="10"
     gridtolerance="10"
     guidetolerance="10"
     inkscape:pageopacity="0"
     inkscape:pageshadow="2"
     inkscape:window-width="640"
     inkscape:window-height="480"
     id="namedview3719"
     showgrid="false"
     inkscape:zoom="0.23838384"
     inkscape:cx="736.83001"
     inkscape:cy="849.33005"
     inkscape:window-x="0"
     inkscape:window-y="0"
     inkscape:window-maximized="0"
     inkscape:current-layer="svg3697" /><defs
     id="defs3699"><style
       type="text/css"
       id="style3701"><![CDATA[
    .fil3 {fill:none}
    .fil0 {fill:black}
    .fil1 {fill:#E2001A}
    .fil2 {fill:white;fill-rule:nonzero}
   ]]></style></defs><g
     id="Layer_x0020_1"
     transform="translate(3937,-7063)"><metadata
       id="CorelCorpID_0Corel-Layer" /><circle
       class="fil0"
       cy="11000"
       r="3937"
       id="circle3705"
       cx="0"
       style="fill:#000000" /><path
       class="fil1"
       d="M 630,13885 C 1958,13596 2953,12414 2953,11000 2953,9586 1958,8404 630,8115 394,8087 315,8244 315,8441 l 0,1850 c 0,130 146,276 276,276 l 315,0 c 209,0 393,236 393,433 0,197 -184,433 -393,433 l -315,0 c -130,0 -276,146 -276,276 l 0,1850 c 0,197 79,354 315,326 z M -630,8115 c -1328,289 -2323,1471 -2323,2885 0,1414 995,2596 2323,2885 236,28 315,-129 315,-326 l 0,-5118 c 0,-197 -79,-354 -315,-326 z"
       id="path3707"
       inkscape:connector-curvature="0"
       style="fill:#e2001a" /><path
       class="fil2"
       d="m 610,13769 c 642,-141 1202,-499 1600,-993 391,-486 625,-1103 625,-1776 0,-673 -234,-1290 -625,-1776 -398,-494 -958,-852 -1600,-993 -11,-1 -22,-1 -33,-1 -47,0 -79,12 -98,34 -23,25 -37,66 -43,116 -2,19 -3,39 -3,61 l 0,1850 c 0,33 22,71 55,103 32,33 70,55 103,55 l 315,0 c 136,0 261,70 354,172 95,105 157,248 157,379 0,131 -62,274 -157,379 -93,102 -218,172 -354,172 l -315,0 c -33,0 -71,22 -103,55 -33,32 -55,70 -55,103 l 0,1850 c 0,22 1,42 3,61 6,50 20,91 43,116 19,22 51,34 98,34 11,0 22,0 33,-1 z m 1783,-845 c -432,537 -1041,925 -1738,1076 l -11,2 c -24,3 -46,4 -67,4 -120,0 -209,-41 -272,-111 -60,-65 -91,-151 -103,-247 -3,-29 -5,-59 -5,-89 l 0,-1850 c 0,-98 50,-197 124,-270 73,-73 172,-124 270,-124 l 315,0 c 64,0 129,-39 179,-94 58,-64 96,-148 96,-221 0,-73 -38,-157 -96,-221 -50,-55 -115,-94 -179,-94 l -315,0 c -98,0 -197,-51 -270,-124 -74,-73 -124,-172 -124,-270 l 0,-1850 c 0,-30 2,-60 5,-89 12,-96 43,-182 103,-247 63,-70 152,-111 272,-111 21,0 43,1 67,4 l 11,2 c 697,151 1306,539 1738,1076 424,527 678,1196 678,1924 0,728 -254,1397 -678,1924 z M -610,8231 c -642,141 -1202,499 -1600,993 -391,486 -625,1103 -625,1776 0,673 234,1290 625,1776 398,494 958,852 1600,993 11,1 22,1 33,1 47,0 79,-12 98,-34 23,-25 37,-66 43,-116 2,-19 3,-39 3,-61 l 0,-5118 c 0,-22 -1,-42 -3,-61 -6,-50 -20,-91 -43,-116 -19,-22 -51,-34 -98,-34 -11,0 -22,0 -33,1 z m -1783,845 c 432,-537 1041,-925 1738,-1076 l 11,-2 c 24,-3 46,-4 67,-4 120,0 209,41 272,111 60,65 91,151 103,247 3,29 5,59 5,89 l 0,5118 c 0,30 -2,60 -5,89 -12,96 -43,182 -103,247 -63,70 -152,111 -272,111 -21,0 -43,-1 -67,-4 l -11,-2 c -697,-151 -1306,-539 -1738,-1076 -424,-527 -678,-1196 -678,-1924 0,-728 254,-1397 678,-1924 z"
       id="path3709"
       inkscape:connector-curvature="0"
       style="fill:#ffffff;fill-rule:nonzero" /><circle
       class="fil3"
       cy="11000"
       r="3897"
       id="circle3711"
       cx="0"
       style="fill:none" /><ellipse
       class="fil3"
       transform="matrix(1.57988,-0.307098,0.397611,2.04553,3.02838e-4,11000)"
       rx="2421"
       ry="1870"
       id="ellipse3713"
       cx="0"
       cy="0"
       style="fill:none" /><path
       class="fil2"
       d="m -3093,9109 c -38,59 -48,95 -29,108 l 169,108 c 23,15 56,-11 99,-77 l 151,-237 c 18,-28 39,-34 62,-19 24,15 27,36 9,65 l -157,245 c -82,128 -157,170 -224,127 l -178,-114 c -63,-41 -55,-124 26,-249 l 159,-249 c 18,-28 39,-35 62,-20 24,15 27,37 9,65 l -158,247 z m 725,-795 c -22,-23 -58,-11 -108,36 l -133,126 c -53,51 -69,88 -47,111 l 125,132 c 21,22 58,8 112,-42 l 129,-123 c 52,-49 68,-85 47,-107 l -125,-133 z m 216,55 c 57,60 26,146 -94,259 l -104,99 c -119,113 -207,139 -264,79 l -135,-142 c -57,-60 -25,-147 94,-260 l 104,-98 c 119,-113 208,-140 265,-79 l 134,142 z m 516,-565 c -13,-23 -49,-18 -109,16 l -269,149 55,100 280,-156 c 53,-29 75,-53 65,-70 l -22,-39 z m 125,-20 c 37,67 -7,135 -133,206 l -73,40 238,-41 c 12,-1 22,0 30,3 8,4 13,9 17,16 3,5 4,10 5,16 0,7 -1,13 -3,19 -2,6 -5,12 -10,17 -4,6 -10,10 -17,14 -7,4 -15,7 -24,8 l 1,0 -439,59 60,108 c 14,24 4,46 -31,65 -35,20 -60,18 -74,-7 l -178,-320 c -12,-22 -5,-40 23,-55 l 323,-180 c 136,-76 224,-78 264,-7 l 21,39 z m 666,-272 c -7,-26 -44,-29 -110,-10 l -296,84 31,109 308,-87 c 58,-17 85,-34 79,-54 l -12,-42 z m 126,9 c 21,74 -38,130 -176,170 l -81,22 241,15 c 12,1 22,5 28,10 7,5 12,12 14,19 1,5 2,11 0,17 -1,6 -3,12 -6,18 -4,5 -8,10 -14,14 -6,5 -12,8 -20,10 -8,2 -16,3 -25,2 l 1,0 -441,-44 34,119 c 8,27 -8,46 -45,57 -40,11 -63,3 -71,-24 l -99,-353 c -7,-24 4,-40 34,-48 l 356,-101 c 150,-43 236,-24 258,54 l 12,43 z m 298,-32 427,-27 c 32,-2 49,11 51,39 1,28 -14,43 -46,45 l -427,27 4,55 c 1,26 37,37 105,32 l 324,-20 c 33,-2 50,11 52,39 1,28 -14,43 -46,45 l -328,20 c -146,10 -222,-24 -227,-102 l -13,-208 c -2,-40 14,-70 51,-93 36,-22 92,-35 168,-40 l 89,-6 c 33,-2 50,11 51,40 2,27 -13,42 -45,44 l -61,4 c -90,6 -134,21 -133,48 l 4,58 z m 1287,226 c -13,77 -89,104 -228,79 L 433,7759 C 282,7733 214,7681 227,7605 l 36,-209 c 13,-76 96,-101 247,-74 l 79,13 c 33,6 47,23 42,50 -5,28 -24,39 -56,33 l -56,-10 c -88,-15 -134,-11 -139,13 l -34,199 c -4,25 30,44 103,56 l 203,36 c 60,10 92,5 96,-16 l 18,-107 c 5,-28 27,-39 66,-32 40,7 57,24 53,52 l -19,106 z m 242,169 c -9,26 -33,33 -70,20 -38,-13 -53,-33 -44,-59 l 119,-344 c 9,-27 33,-33 72,-20 36,13 50,32 41,59 l -118,344 z m 778,62 c 13,-22 -10,-51 -69,-84 l -273,-156 -136,240 271,155 c 60,34 98,38 113,11 l 94,-166 z m 7,230 c -41,72 -125,72 -254,-1 l -337,-193 c -27,-15 -34,-34 -21,-56 l 182,-320 c 12,-22 32,-25 59,-10 l 339,194 c 127,72 171,143 132,212 l -100,174 z m 674,325 c 22,-23 9,-58 -41,-106 l -132,-127 c -53,-51 -90,-65 -112,-42 l -126,131 c -22,22 -6,59 47,110 l 128,124 c 52,49 88,63 110,41 l 126,-131 z m -44,219 c -58,59 -145,32 -264,-82 l -103,-99 c -118,-114 -149,-201 -92,-260 l 136,-142 c 58,-59 146,-32 264,82 l 103,99 c 119,114 149,201 92,261 l -136,141 z m 588,479 c 22,-14 14,-50 -24,-108 l -169,-257 -95,62 176,268 c 33,51 58,71 75,60 l 37,-25 z m 28,124 c -63,42 -135,2 -214,-118 l -46,-70 58,234 c 3,12 2,22 -1,30 -3,8 -7,14 -14,18 -4,3 -10,6 -16,6 -6,1 -12,1 -19,-1 -6,-2 -12,-5 -18,-9 -5,-4 -10,-9 -15,-15 -4,-8 -8,-15 -9,-24 l 0,1 -90,-434 -104,68 c -23,16 -46,7 -68,-26 -22,-34 -21,-59 3,-74 l 305,-201 c 21,-14 40,-8 57,18 l 203,310 c 86,130 94,217 26,262 l -38,25 z"
       id="path3715"
       inkscape:connector-curvature="0"
       style="fill:#ffffff;fill-rule:nonzero" /><path
       class="fil2"
       d="m -3697,11099 c -4,-172 35,-260 116,-261 l 282,-7 c 28,0 42,19 43,60 1,39 -12,60 -40,60 l -278,6 c -28,1 -41,46 -39,136 l 7,298 c 0,34 -14,51 -43,52 -27,0 -41,-16 -41,-50 l -7,-294 z m 297,1041 c -85,20 -147,-59 -188,-236 l -26,-112 c -39,-169 -16,-263 68,-283 l 267,-61 c 27,-7 46,10 55,48 9,40 -1,62 -28,69 l -258,59 c -36,8 -44,54 -25,138 l 31,135 c 22,92 50,134 86,125 l 258,-59 c 27,-6 46,10 55,49 8,38 -1,60 -28,67 l -267,61 z m 360,242 c -29,-64 -54,-92 -75,-83 l -182,83 c -26,11 -22,53 10,125 l 116,256 c 14,30 8,51 -17,63 -26,11 -46,2 -60,-29 l -119,-265 c -63,-138 -58,-224 15,-257 l 192,-87 c 69,-31 134,21 195,157 l 122,270 c 14,30 8,51 -17,62 -26,12 -46,3 -60,-28 l -120,-267 z m 322,1080 c -22,17 -46,10 -71,-21 -24,-31 -25,-55 -3,-72 l 109,-85 -257,-327 -108,85 c -22,18 -45,11 -70,-21 -25,-31 -26,-56 -4,-73 l 286,-225 c 22,-17 46,-10 71,22 24,31 25,55 3,73 l -111,87 256,327 112,-88 c 22,-17 44,-11 68,20 25,32 27,56 5,74 l -286,224 z m 366,140 191,165 8,-200 -199,35 z m 183,265 -279,-241 -121,20 c -8,1 -17,0 -25,-3 -9,-4 -16,-8 -22,-13 -6,-5 -10,-11 -14,-17 -4,-7 -7,-14 -9,-20 -2,-7 -3,-14 -2,-20 1,-6 4,-12 8,-17 5,-6 13,-10 23,-12 l 452,-74 c 13,-2 25,-1 37,3 13,4 23,10 33,18 9,9 17,18 23,30 6,11 8,23 8,36 l -7,458 0,-1 c 0,12 -3,21 -8,27 -5,5 -10,9 -16,10 -6,2 -12,2 -19,1 -7,0 -14,-2 -20,-5 -7,-3 -14,-7 -19,-12 -7,-7 -13,-13 -17,-21 -4,-7 -6,-16 -6,-26 l 0,-121 z m 4012,-28 c -13,-23 -49,-18 -109,16 l -268,153 57,99 278,-159 c 53,-30 74,-54 64,-71 l -22,-38 z m 125,-21 c 38,66 -6,135 -131,206 l -73,42 238,-44 c 12,-2 22,-1 30,3 7,3 13,8 17,15 3,5 5,11 5,17 0,6 0,12 -2,18 -3,6 -6,12 -10,18 -5,5 -10,10 -17,14 -7,4 -15,7 -24,8 l 1,0 -438,63 61,108 c 14,24 4,46 -30,66 -36,20 -60,18 -74,-7 l -182,-318 c -12,-21 -5,-40 22,-55 l 321,-184 c 135,-77 223,-80 264,-9 l 22,39 z m 155,-109 324,-280 c 24,-21 45,-21 63,0 19,21 16,42 -9,63 l -323,280 35,41 c 18,20 52,8 104,-37 l 246,-213 c 25,-21 46,-21 64,0 19,21 15,43 -9,64 l -248,214 c -111,96 -192,115 -243,56 l -136,-158 c -26,-30 -31,-64 -16,-104 16,-40 52,-84 110,-134 l 67,-59 c 25,-21 46,-21 65,1 18,21 15,42 -10,63 l -46,40 c -68,59 -94,98 -77,118 l 39,45 z m 892,-738 c 58,46 44,125 -44,235 l -209,266 c -21,26 -43,30 -65,12 -22,-17 -22,-38 -1,-64 l 215,-273 c 34,-43 42,-72 23,-87 l -19,-16 c -21,-16 -53,3 -96,56 l -95,121 c -91,115 -164,152 -218,109 l -33,-26 c -60,-47 -48,-122 33,-225 l 53,-67 c 21,-27 42,-31 65,-13 21,17 22,39 1,65 l -60,76 c -27,34 -31,59 -11,75 l 15,12 c 18,14 46,-2 82,-48 l 98,-123 c 95,-121 173,-159 232,-112 l 34,27 z m 178,-183 c 25,14 27,38 7,72 -20,35 -42,46 -66,32 l -316,-181 c -24,-14 -26,-39 -6,-75 19,-33 41,-43 66,-30 l 315,182 z m 235,-700 c 69,27 78,106 27,237 l -123,315 c -13,31 -32,42 -58,31 -26,-10 -33,-30 -21,-61 l 127,-324 c 20,-51 19,-81 -3,-90 l -24,-9 c -25,-10 -50,17 -75,81 l -56,144 c -53,137 -112,193 -176,167 l -39,-15 c -71,-27 -82,-103 -34,-225 l 31,-80 c 12,-31 31,-41 58,-31 25,10 32,31 20,62 l -35,90 c -16,41 -12,66 12,76 l 17,6 c 22,9 43,-14 65,-69 l 57,-147 c 56,-144 119,-202 189,-174 l 41,16 z m -167,-365 312,71 c 27,7 37,29 28,68 -9,39 -28,56 -55,49 l -312,-71 -42,183 c -7,33 -25,46 -53,39 -26,-6 -36,-25 -28,-58 l 111,-484 c 7,-32 24,-45 51,-39 28,6 38,26 31,57 l -43,185 z m 169,-378 10,-428 c 1,-32 15,-48 43,-47 28,1 42,17 41,49 l -10,428 55,1 c 26,1 40,-33 42,-102 l 7,-325 c 1,-32 15,-48 43,-48 28,1 42,18 41,50 l -8,328 c -3,147 -43,219 -121,217 l -209,-4 c -39,-1 -68,-21 -87,-59 -19,-38 -28,-95 -26,-171 l 2,-89 c 0,-33 15,-48 43,-48 28,1 41,17 41,49 l -2,61 c -2,91 10,136 36,137 l 59,1 z"
       id="path3717"
       inkscape:connector-curvature="0"
       style="fill:#ffffff;fill-rule:nonzero" /></g></svg>