<?xml version="1.0" encoding="UTF-8" standalone="no"?>
<!-- Creator: CorelDRAW X7 -->

<svg
   xmlns:dc="http://purl.org/dc/elements/1.1/"
   xmlns:cc="http://creativecommons.org/ns#"
   xmlns:rdf="http://www.w3.org/1999/02/22-rdf-syntax-ns#"
   xmlns:svg="http://www.w3.org/2000/svg"
   xmlns="http://www.w3.org/2000/svg"
   xmlns:sodipodi="http://sodipodi.sourceforge.net/DTD/sodipodi-0.dtd"
   xmlns:inkscape="http://www.inkscape.org/namespaces/inkscape"
   xml:space="preserve"
   width="7.8740005in"
   height="7.8740005in"
   version="1.1"
   style="clip-rule:evenodd;fill-rule:evenodd;image-rendering:optimizeQuality;shape-rendering:geometricPrecision;text-rendering:geometricPrecision"
   viewBox="0 0 7874.0005 7874.0005"
   id="svg4294"
   inkscape:version="0.91 r13725"
   sodipodi:docname="Yu Jing - Remote 4 Chaiyi Yaokong - [N3] [Vyo].svg"><metadata
     id="metadata4334"><rdf:RDF><cc:Work
         rdf:about=""><dc:format>image/svg+xml</dc:format><dc:type
           rdf:resource="http://purl.org/dc/dcmitype/StillImage" /></cc:Work></rdf:RDF></metadata><sodipodi:namedview
     pagecolor="#ffffff"
     bordercolor="#666666"
     borderopacity="1"
     objecttolerance="10"
     gridtolerance="10"
     guidetolerance="10"
     inkscape:pageopacity="0"
     inkscape:pageshadow="2"
     inkscape:window-width="640"
     inkscape:window-height="480"
     id="namedview4332"
     showgrid="false"
     inkscape:zoom="0.23838384"
     inkscape:cx="736.83001"
     inkscape:cy="849.33005"
     inkscape:window-x="0"
     inkscape:window-y="0"
     inkscape:window-maximized="0"
     inkscape:current-layer="svg4294" /><defs
     id="defs4296"><style
       type="text/css"
       id="style4298"><![CDATA[
    .fil2 {fill:none}
    .fil0 {fill:#E2001A}
    .fil1 {fill:white}
    .fil4 {fill:#E2001A;fill-rule:nonzero}
    .fil3 {fill:white;fill-rule:nonzero}
   ]]></style></defs><g
     id="Layer_x0020_1"
     transform="translate(3937,-7063)"><metadata
       id="CorelCorpID_0Corel-Layer" /><circle
       class="fil0"
       cy="11000"
       r="3937"
       id="circle4302"
       cx="0"
       style="fill:#e2001a" /><circle
       class="fil1"
       cy="11000"
       r="3819"
       id="circle4304"
       cx="0"
       style="fill:#ffffff" /><path
       class="fil0"
       d="M 0,8677 1850,11000 0,13323 -1850,11000 0,8677 Z M 0,8804 -1750,11000 0,13196 0,8804 Z"
       id="path4306"
       inkscape:connector-curvature="0"
       style="fill:#e2001a" /><circle
       class="fil2"
       cy="11000"
       r="3898"
       id="circle4308"
       cx="0"
       style="fill:none" /><path
       class="fil0"
       d="m -2659,8563 c 25,-28 54,-2 28,26 -491,576 -752,1276 -823,1976 l -184,-184 c 130,-669 466,-1295 979,-1818 z m 227,209 c -510,515 -846,1167 -936,1879 l 94,94 122,-123 c 64,-662 317,-1316 749,-1824 25,-29 -2,-53 -29,-26 z m -883,2096 c -2,44 -2,88 -2,132 0,145 9,289 27,429 l -407,-218 c -4,-70 -6,-140 -6,-211 0,-166 11,-329 32,-489 l 356,357 z m 47,703 c 35,205 89,403 161,593 l -448,-122 c -65,-224 -110,-456 -132,-695 l 419,224 z m 214,728 c 116,270 266,522 445,750 l -476,0 c -179,-270 -324,-564 -429,-876 l 460,126 z m 540,866 c 54,62 110,122 168,181 215,215 459,400 726,550 l -537,114 c -164,-118 -319,-249 -462,-391 -140,-141 -269,-293 -386,-454 l 491,0 z m -284,-2733 c -21,105 -37,213 -46,323 l -374,624 c -15,-125 -22,-251 -22,-379 0,-43 1,-86 2,-128 l 440,-440 z m -57,564 c 0,125 8,250 24,373 l -219,727 c -62,-173 -110,-352 -142,-537 l 337,-563 z m 68,626 c 49,217 121,424 216,619 l 1,732 c -166,-215 -304,-451 -412,-703 l 195,-648 z m 331,834 c 122,205 269,394 438,562 94,95 196,184 303,264 l 140,550 c -264,-147 -505,-329 -716,-541 -57,-56 -112,-115 -164,-176 l -1,-659 z m -321,-2209 c 102,-438 291,-873 601,-1241 25,-29 -1,-53 -28,-26 -435,437 -721,961 -829,1524 l 256,-257 z"
       id="path4310"
       inkscape:connector-curvature="0"
       style="fill:#e2001a" /><path
       class="fil0"
       d="m 2659,8563 c -25,-28 -54,-2 -28,26 491,576 752,1276 823,1976 l 184,-184 C 3508,9712 3172,9086 2659,8563 Z m -227,209 c 510,515 846,1167 936,1879 l -94,94 -122,-123 c -64,-662 -317,-1316 -749,-1824 -25,-29 2,-53 29,-26 z m 883,2096 c 2,44 2,88 2,132 0,145 -9,289 -27,429 l 407,-218 c 4,-70 6,-140 6,-211 0,-166 -11,-329 -32,-489 l -356,357 z m -47,703 c -35,205 -89,403 -161,593 l 448,-122 c 65,-224 110,-456 132,-695 l -419,224 z m -214,728 c -116,270 -266,522 -445,750 l 476,0 c 179,-270 324,-564 429,-876 l -460,126 z m -540,866 c -54,62 -110,122 -168,181 -215,215 -459,400 -726,550 l 537,114 c 164,-118 319,-249 462,-391 140,-141 269,-293 386,-454 l -491,0 z m 284,-2733 c 21,105 37,213 46,323 l 374,624 c 15,-125 22,-251 22,-379 0,-43 -1,-86 -2,-128 l -440,-440 z m 57,564 c 0,125 -8,250 -24,373 l 219,727 c 62,-173 110,-352 142,-537 l -337,-563 z m -68,626 c -49,217 -121,424 -216,619 l -1,732 c 166,-215 304,-451 412,-703 l -195,-648 z m -331,834 c -122,205 -269,394 -438,562 -94,95 -196,184 -303,264 l -140,550 c 264,-147 505,-329 716,-541 57,-56 112,-115 164,-176 l 1,-659 z m 321,-2209 c -102,-438 -291,-873 -601,-1241 -25,-29 1,-53 28,-26 435,437 721,961 829,1524 l -256,-257 z"
       id="path4312"
       inkscape:connector-curvature="0"
       style="fill:#e2001a" /><path
       class="fil0"
       d="m 0,14703 c -748,0 -1443,-221 -2025,-602 l 604,-129 -148,-587 c 450,297 989,470 1569,470 580,0 1119,-173 1569,-470 l -148,587 604,129 c -582,381 -1277,602 -2025,602 z"
       id="path4314"
       inkscape:connector-curvature="0"
       style="fill:#e2001a" /><circle
       class="fil2"
       cy="11000"
       r="3819"
       id="circle4316"
       cx="0"
       style="fill:none" /><path
       class="fil3"
       d="m -806,14463 324,42 34,-262 -274,-36 7,-59 275,37 26,-198 -294,-39 8,-58 662,87 -8,59 -303,-40 -26,197 284,38 -8,58 -284,-37 -34,262 332,44 -7,59 -722,-96 8,-58 z m 495,-130 52,-30 c 36,54 68,106 97,157 l -57,33 c -24,-46 -54,-100 -92,-160 z m 431,-200 538,-71 34,254 -59,8 -4,-30 -173,23 25,191 c 8,59 -16,93 -73,101 -36,5 -69,10 -99,14 -6,-22 -12,-41 -19,-60 34,-1 63,-4 88,-7 32,-3 45,-22 41,-55 l -23,-176 -188,24 5,34 -59,8 -34,-258 z m 486,-12 -421,56 16,120 421,-55 -16,-121 z m -600,-95 348,-46 c -18,-25 -38,-50 -60,-76 l 52,-34 c 24,27 47,56 71,86 l -28,19 354,-46 7,52 -737,98 -7,-53 z m 248,382 47,40 c -61,59 -122,114 -184,166 -12,-16 -26,-32 -42,-46 64,-49 123,-102 179,-160 z m 298,12 30,-50 c 74,31 145,64 214,97 l -33,57 c -58,-32 -129,-67 -211,-104 z"
       id="path4318"
       inkscape:connector-curvature="0"
       style="fill:#ffffff;fill-rule:nonzero" /><circle
       class="fil2"
       cy="11000"
       r="3898"
       id="circle4320"
       cx="0"
       style="fill:none" /><circle
       class="fil2"
       cy="11000"
       r="3898"
       id="circle4322"
       cx="0"
       style="fill:none" /><path
       class="fil4"
       d="m -931,8287 c -33,10 -65,14 -96,11 -31,-3 -60,-12 -86,-28 -27,-16 -51,-38 -71,-68 -21,-29 -38,-65 -51,-107 -13,-42 -18,-80 -17,-115 1,-34 9,-66 22,-95 14,-29 32,-53 56,-73 24,-21 53,-36 87,-46 17,-5 33,-8 49,-11 15,-1 30,-2 43,-2 12,0 25,1 37,2 13,2 26,4 39,7 l 24,80 -5,2 c -7,-3 -17,-8 -28,-12 -12,-5 -25,-9 -41,-12 -15,-3 -30,-5 -47,-5 -16,0 -34,3 -54,9 -21,7 -40,17 -57,32 -16,14 -29,32 -39,54 -9,21 -13,46 -13,74 0,28 4,58 14,90 10,35 23,63 39,85 16,23 34,40 53,53 19,12 39,20 61,22 21,3 43,1 64,-5 19,-6 36,-14 51,-23 15,-10 28,-20 39,-31 10,-11 19,-21 25,-31 7,-10 12,-19 16,-26 l 5,-1 24,80 c -9,8 -18,16 -27,24 -8,8 -18,16 -31,25 -13,9 -26,16 -38,23 -11,6 -27,12 -47,18 z m 613,-147 -70,11 -40,-254 -237,38 40,254 -69,11 -83,-519 69,-11 33,203 237,-37 -32,-204 69,-11 83,519 z m 72,-12 173,-527 87,0 180,524 -73,0 -49,-145 -201,1 -46,146 -71,1 z m 298,-209 -83,-246 -79,247 162,-1 z m 396,241 -202,-30 7,-52 67,9 60,-414 -66,-9 7,-53 203,29 -8,53 -67,-10 -60,414 67,10 -8,53 z m 92,-585 -215,-31 10,-68 214,32 -9,67 z m 489,168 -237,247 -51,227 -68,-15 49,-220 -108,-332 75,17 82,256 186,-196 72,16 z m 120,616 -191,-72 18,-50 63,24 147,-392 -63,-24 19,-50 191,72 -19,50 -62,-24 -147,392 63,24 -19,50 z m 161,-571 -50,-18 -43,-158 80,30 13,146 z"
       id="path4324"
       inkscape:connector-curvature="0"
       style="fill:#e2001a;fill-rule:nonzero" /><circle
       class="fil2"
       cy="11000"
       r="3898"
       id="circle4326"
       cx="0"
       style="fill:none" /><path
       class="fil1"
       d="m 630,11827 -1260,0 c -152,0 -276,-124 -276,-276 l 0,-1260 c 0,-152 124,-275 276,-275 l 1260,0 c 152,0 276,123 276,275 l 0,1260 c 0,152 -124,276 -276,276 z m -910,-1496 -311,0 0,721 c 187,-202 288,-450 311,-721 z m -311,1002 0,179 1182,0 0,-179 c -24,14 -51,21 -79,21 l -315,0 c -87,0 -158,-70 -158,-157 l 0,-866 -4,0 c -25,370 -169,711 -435,977 -52,52 -130,60 -191,25 z m 1182,-272 0,-730 -237,0 0,708 158,0 c 28,0 55,8 79,22 z"
       id="path4328"
       inkscape:connector-curvature="0"
       style="fill:#ffffff" /><path
       class="fil0"
       d="m 39,11748 -669,0 c -108,0 -197,-88 -197,-197 l 0,-1260 c 0,-108 89,-197 197,-197 l 1260,0 c 108,0 197,89 197,197 l 0,1260 c 0,109 -89,197 -197,197 l -591,0 z m -79,-1496 c -9,379 -146,730 -416,1001 -31,30 -81,30 -111,0 -31,-31 -31,-81 0,-112 240,-241 361,-551 370,-889 l -433,0 c -21,0 -39,18 -39,39 l 0,1260 c 0,22 18,40 39,40 l 591,0 669,0 c 21,0 39,-18 39,-40 l 0,-1260 c 0,-21 -18,-39 -39,-39 l -354,0 0,866 236,0 c 43,0 79,35 79,79 0,43 -36,79 -79,79 l -315,0 c -44,0 -79,-36 -79,-79 l 0,-945 -158,0 z"
       id="path4330"
       inkscape:connector-curvature="0"
       style="fill:#e2001a" /></g></svg>