<?xml version="1.0" encoding="UTF-8" standalone="no"?>
<!-- Creator: CorelDRAW X7 -->

<svg
   xmlns:dc="http://purl.org/dc/elements/1.1/"
   xmlns:cc="http://creativecommons.org/ns#"
   xmlns:rdf="http://www.w3.org/1999/02/22-rdf-syntax-ns#"
   xmlns:svg="http://www.w3.org/2000/svg"
   xmlns="http://www.w3.org/2000/svg"
   xmlns:sodipodi="http://sodipodi.sourceforge.net/DTD/sodipodi-0.dtd"
   xmlns:inkscape="http://www.inkscape.org/namespaces/inkscape"
   xml:space="preserve"
   width="7.8740005in"
   height="7.8740005in"
   version="1.1"
   style="clip-rule:evenodd;fill-rule:evenodd;image-rendering:optimizeQuality;shape-rendering:geometricPrecision;text-rendering:geometricPrecision"
   viewBox="0 0 7874.0005 7874.0005"
   id="svg3618"
   inkscape:version="0.91 r13725"
   sodipodi:docname="Haqqislam - Hassassin Ragiks - [N3] [Vyo].svg"><metadata
     id="metadata3634"><rdf:RDF><cc:Work
         rdf:about=""><dc:format>image/svg+xml</dc:format><dc:type
           rdf:resource="http://purl.org/dc/dcmitype/StillImage" /></cc:Work></rdf:RDF></metadata><sodipodi:namedview
     pagecolor="#ffffff"
     bordercolor="#666666"
     borderopacity="1"
     objecttolerance="10"
     gridtolerance="10"
     guidetolerance="10"
     inkscape:pageopacity="0"
     inkscape:pageshadow="2"
     inkscape:window-width="640"
     inkscape:window-height="480"
     id="namedview3632"
     showgrid="false"
     inkscape:zoom="0.23838384"
     inkscape:cx="736.83001"
     inkscape:cy="849.33005"
     inkscape:window-x="0"
     inkscape:window-y="0"
     inkscape:window-maximized="0"
     inkscape:current-layer="svg3618" /><defs
     id="defs3620"><style
       type="text/css"
       id="style3622"><![CDATA[
    .str0 {stroke:black;stroke-width:3}
    .fil2 {fill:black}
    .fil1 {fill:#B2C801}
    .fil0 {fill:#EECE00}
   ]]></style></defs><g
     id="Layer_x0020_1"
     transform="translate(3937,-7063)"><metadata
       id="CorelCorpID_0Corel-Layer" /><circle
       class="fil0"
       cy="11000"
       r="3937"
       id="circle3626"
       cx="0"
       style="fill:#eece00" /><circle
       class="fil1"
       cy="11000"
       r="3819"
       id="circle3628"
       cx="0"
       style="fill:#b2c801" /><path
       class="fil2 str0"
       d="m 0,8480 c 1239,0 2244,1005 2244,2244 0,1133 -839,2069 -1929,2222 l 0,574 -630,0 0,-574 c -1090,-153 -1929,-1089 -1929,-2222 0,-1239 1005,-2244 2244,-2244 z m 315,1777 0,-674 -630,0 0,674 c -323,-126 -552,-440 -552,-808 0,-478 388,-867 867,-867 479,0 867,389 867,867 0,368 -229,682 -552,808 z"
       id="path3630"
       inkscape:connector-curvature="0"
       style="fill:#000000;stroke:#000000;stroke-width:3" /></g></svg>