<?xml version="1.0" encoding="UTF-8" standalone="no"?>
<!-- Creator: CorelDRAW X7 -->

<svg
   xmlns:dc="http://purl.org/dc/elements/1.1/"
   xmlns:cc="http://creativecommons.org/ns#"
   xmlns:rdf="http://www.w3.org/1999/02/22-rdf-syntax-ns#"
   xmlns:svg="http://www.w3.org/2000/svg"
   xmlns="http://www.w3.org/2000/svg"
   xmlns:sodipodi="http://sodipodi.sourceforge.net/DTD/sodipodi-0.dtd"
   xmlns:inkscape="http://www.inkscape.org/namespaces/inkscape"
   xml:space="preserve"
   width="7.8740005in"
   height="7.8740005in"
   version="1.1"
   style="clip-rule:evenodd;fill-rule:evenodd;image-rendering:optimizeQuality;shape-rendering:geometricPrecision;text-rendering:geometricPrecision"
   viewBox="0 0 7874.0005 7874.0005"
   id="svg3529"
   inkscape:version="0.91 r13725"
   sodipodi:docname="Mercs - Druze Shock Teams - [N3] [Vyo].svg"><metadata
     id="metadata3567"><rdf:RDF><cc:Work
         rdf:about=""><dc:format>image/svg+xml</dc:format><dc:type
           rdf:resource="http://purl.org/dc/dcmitype/StillImage" /></cc:Work></rdf:RDF></metadata><sodipodi:namedview
     pagecolor="#ffffff"
     bordercolor="#666666"
     borderopacity="1"
     objecttolerance="10"
     gridtolerance="10"
     guidetolerance="10"
     inkscape:pageopacity="0"
     inkscape:pageshadow="2"
     inkscape:window-width="640"
     inkscape:window-height="480"
     id="namedview3565"
     showgrid="false"
     inkscape:zoom="0.23838384"
     inkscape:cx="736.83001"
     inkscape:cy="849.33005"
     inkscape:window-x="0"
     inkscape:window-y="0"
     inkscape:window-maximized="0"
     inkscape:current-layer="svg3529" /><defs
     id="defs3531"><style
       type="text/css"
       id="style3533"><![CDATA[
    .fil4 {fill:#514F3A}
    .fil1 {fill:#B3B880}
    .fil0 {fill:#FFA000}
    .fil5 {fill:white}
    .fil3 {fill:black;fill-rule:nonzero}
    .fil2 {fill:#514F3A;fill-rule:nonzero}
   ]]></style></defs><g
     id="Layer_x0020_1"
     transform="translate(3937,-7063)"><metadata
       id="CorelCorpID_0Corel-Layer" /><circle
       class="fil0"
       cy="11000"
       r="3937"
       id="circle3537"
       cx="0"
       style="fill:#ffa000" /><circle
       class="fil1"
       cy="11000"
       r="3858"
       id="circle3539"
       cx="0"
       style="fill:#b3b880" /><path
       class="fil2"
       d="m -1930,13570 0,14 c 0,42 8,60 30,72 21,12 58,16 146,16 92,0 128,-2 147,-10 29,-11 40,-37 40,-87 0,-43 -8,-63 -30,-76 -18,-11 -38,-13 -134,-16 -65,-2 -88,-3 -96,-5 -8,-3 -12,-9 -12,-19 0,-22 6,-24 82,-24 68,0 78,1 85,7 5,4 6,8 7,23 l 87,0 c 0,-6 0,-12 0,-14 0,-36 -8,-56 -27,-68 -21,-12 -52,-16 -135,-16 -107,0 -133,3 -156,15 -21,12 -31,38 -31,82 0,30 5,49 17,63 13,15 34,21 77,22 9,0 39,2 72,3 31,2 61,3 71,3 28,0 36,5 36,23 0,12 -4,19 -10,22 -9,3 -19,4 -87,4 -64,0 -74,-1 -82,-6 -7,-5 -9,-11 -9,-28 l -88,0 z"
       id="path3541"
       inkscape:connector-curvature="0"
       style="fill:#514f3a;fill-rule:nonzero" /><polygon
       id="1"
       class="fil2"
       points="-1441,13561 -1237,13561 -1237,13668 -1142,13668 -1142,13371 -1237,13371 -1237,13478 -1441,13478 -1441,13371 -1535,13371 -1535,13668 -1441,13668 "
       style="fill:#514f3a;fill-rule:nonzero" /><path
       id="2"
       class="fil2"
       d="m -903,13367 c -123,0 -151,4 -174,20 -22,18 -29,48 -29,131 0,86 6,116 29,134 23,17 51,20 175,20 122,0 151,-3 173,-20 23,-18 30,-47 30,-133 0,-84 -7,-114 -30,-132 -22,-16 -51,-20 -174,-20 z m 0,77 c 83,0 94,1 103,14 8,10 10,28 10,70 0,35 -3,49 -13,57 -11,9 -27,10 -99,10 -73,0 -89,-1 -101,-10 -11,-9 -13,-21 -13,-58 0,-39 2,-55 8,-66 9,-16 18,-17 105,-17 z"
       inkscape:connector-curvature="0"
       style="fill:#514f3a;fill-rule:nonzero" /><path
       id="3"
       class="fil2"
       d="m -382,13554 c -1,44 -2,44 -101,44 -95,0 -97,-1 -97,-77 0,-44 4,-62 14,-70 10,-8 26,-10 82,-10 21,0 47,1 62,2 19,1 26,4 30,8 3,5 4,9 5,27 l 90,0 0,-15 c 0,-49 -9,-71 -37,-84 -20,-9 -48,-12 -124,-12 -152,0 -186,8 -203,45 -7,17 -9,42 -9,110 0,34 1,59 2,73 3,33 13,50 35,61 24,13 62,16 175,16 68,0 100,-3 124,-11 31,-11 43,-33 43,-79 0,-5 0,-11 -1,-28 l -90,0 z"
       inkscape:connector-curvature="0"
       style="fill:#514f3a;fill-rule:nonzero" /><polygon
       id="4"
       class="fil2"
       points="-170,13555 -120,13555 13,13668 150,13668 -36,13517 135,13370 -3,13370 -120,13479 -170,13479 -170,13371 -260,13371 -260,13668 -170,13668 "
       style="fill:#514f3a;fill-rule:nonzero" /><polygon
       id="5"
       class="fil2"
       points="384,13668 478,13668 478,13447 610,13447 610,13371 252,13371 252,13447 384,13447 "
       style="fill:#514f3a;fill-rule:nonzero" /><polygon
       id="6"
       class="fil2"
       points="961,13597 720,13597 720,13550 947,13550 947,13484 720,13484 720,13441 959,13441 959,13371 631,13371 631,13668 961,13668 "
       style="fill:#514f3a;fill-rule:nonzero" /><path
       id="7"
       class="fil2"
       d="m 1311,13668 103,0 -156,-297 -140,0 -157,297 103,0 26,-50 196,0 25,50 z m -57,-115 -132,0 57,-113 18,0 57,113 z"
       inkscape:connector-curvature="0"
       style="fill:#514f3a;fill-rule:nonzero" /><polygon
       id="8"
       class="fil2"
       points="1514,13446 1530,13446 1641,13668 1716,13668 1828,13446 1843,13446 1841,13668 1930,13668 1930,13371 1767,13371 1678,13564 1590,13371 1427,13371 1427,13668 1516,13668 "
       style="fill:#514f3a;fill-rule:nonzero" /><path
       class="fil3"
       d="m -1966,13221 428,0 c 200,0 252,-9 298,-50 43,-40 56,-100 56,-255 0,-96 -3,-134 -16,-176 -18,-55 -57,-89 -116,-100 -51,-11 -71,-12 -222,-12 l -428,0 0,593 z m 178,-151 0,-293 250,0 c 110,0 134,3 153,25 17,19 24,52 24,125 0,134 -12,143 -175,143 l -252,0 z"
       id="path3551"
       inkscape:connector-curvature="0"
       style="fill:#000000;fill-rule:nonzero" /><path
       id="path3553"
       class="fil3"
       d="m -1112,13221 180,0 0,-150 255,0 c 75,0 88,2 101,16 14,15 17,36 17,103 l 0,31 178,0 0,-55 c 4,-137 -12,-164 -104,-174 37,-6 54,-13 72,-27 29,-25 38,-59 38,-144 0,-102 -13,-142 -58,-170 -39,-23 -39,-23 -243,-23 l -436,0 0,593 z m 180,-299 0,-145 254,0 c 84,1 86,1 99,7 17,8 24,26 24,64 0,38 -5,56 -21,66 -13,7 -13,7 -102,8 l -254,0 z"
       inkscape:connector-curvature="0"
       style="fill:#000000;fill-rule:nonzero" /><path
       id="path3555"
       class="fil3"
       d="m -313,12628 0,273 c 1,100 1,100 2,124 5,81 15,116 43,145 44,48 117,60 342,60 134,0 198,-4 251,-14 67,-14 113,-62 123,-129 5,-42 6,-52 8,-186 l 0,-273 -180,0 0,273 c 0,13 -1,44 -2,66 -3,51 -7,67 -21,83 -20,21 -58,26 -181,26 -154,0 -189,-10 -199,-57 -4,-24 -4,-25 -6,-118 l 0,-273 -180,0 z"
       inkscape:connector-curvature="0"
       style="fill:#000000;fill-rule:nonzero" /><polygon
       id="polygon3557"
       class="fil3"
       points="513,13082 513,13221 1247,13221 1247,13073 800,13079 1233,12764 1233,12628 523,12628 523,12777 942,12770 "
       style="fill:#000000;fill-rule:nonzero" /><polygon
       id="polygon3559"
       class="fil3"
       points="1966,13079 1484,13079 1484,12985 1938,12985 1938,12854 1484,12854 1484,12768 1962,12768 1962,12628 1306,12628 1306,13221 1966,13221 "
       style="fill:#000000;fill-rule:nonzero" /><path
       class="fil4"
       d="m 0,12457 -354,-197 c -17,-483 -197,-945 -276,-1103 -53,-105 -181,-209 -315,-236 -590,-118 -1135,-275 -1181,-1023 -236,0 -492,-398 -609,-597 -59,-101 42,-206 142,-171 216,75 534,149 714,171 76,74 154,142 226,202 25,516 540,671 963,786 137,37 162,68 226,195 28,56 50,121 69,181 27,85 49,174 63,262 10,63 17,127 17,191 l 0,49 315,157 315,-157 0,-49 c 0,-64 7,-128 17,-191 14,-88 36,-177 63,-262 19,-60 41,-125 69,-181 64,-127 89,-158 226,-195 423,-115 938,-270 963,-786 72,-60 150,-128 226,-202 180,-22 498,-96 714,-171 100,-35 201,70 142,171 -117,199 -373,597 -609,597 -46,748 -591,905 -1181,1023 -134,27 -262,131 -315,236 -79,158 -259,620 -276,1103 L 0,12457 Z"
       id="path3561"
       inkscape:connector-curvature="0"
       style="fill:#514f3a" /><path
       class="fil5"
       d="m 0,11236 -236,-118 c 0,-250 -100,-554 -158,-669 -78,-158 -124,-195 -275,-236 -465,-127 -906,-276 -906,-748 -196,-158 -438,-391 -554,-590 -60,-101 41,-206 142,-171 271,95 693,215 806,209 -137,-99 -207,-193 -304,-353 -39,-64 26,-139 95,-114 476,173 996,271 1390,271 394,0 914,-98 1390,-271 69,-25 134,50 95,114 -97,160 -167,254 -304,353 113,6 535,-114 806,-209 101,-35 202,70 142,171 -116,199 -358,432 -554,590 0,472 -441,621 -906,748 -151,41 -197,78 -275,236 -58,115 -158,419 -158,669 L 0,11236 Z"
       id="path3563"
       inkscape:connector-curvature="0"
       style="fill:#ffffff" /></g></svg>