<?xml version="1.0" encoding="UTF-8" standalone="no"?>
<!-- Creator: CorelDRAW X7 -->

<svg
   xmlns:dc="http://purl.org/dc/elements/1.1/"
   xmlns:cc="http://creativecommons.org/ns#"
   xmlns:rdf="http://www.w3.org/1999/02/22-rdf-syntax-ns#"
   xmlns:svg="http://www.w3.org/2000/svg"
   xmlns="http://www.w3.org/2000/svg"
   xmlns:sodipodi="http://sodipodi.sourceforge.net/DTD/sodipodi-0.dtd"
   xmlns:inkscape="http://www.inkscape.org/namespaces/inkscape"
   xml:space="preserve"
   width="7.8740005in"
   height="7.8740005in"
   version="1.1"
   style="clip-rule:evenodd;fill-rule:evenodd;image-rendering:optimizeQuality;shape-rendering:geometricPrecision;text-rendering:geometricPrecision"
   viewBox="0 0 7874.0005 7874.0005"
   id="svg3362"
   inkscape:version="0.91 r13725"
   sodipodi:docname="PanOceania - Akalis, Sikh Commandos v3 - [N3] [Vyo].svg"><metadata
     id="metadata3460"><rdf:RDF><cc:Work
         rdf:about=""><dc:format>image/svg+xml</dc:format><dc:type
           rdf:resource="http://purl.org/dc/dcmitype/StillImage" /></cc:Work></rdf:RDF></metadata><sodipodi:namedview
     pagecolor="#ffffff"
     bordercolor="#666666"
     borderopacity="1"
     objecttolerance="10"
     gridtolerance="10"
     guidetolerance="10"
     inkscape:pageopacity="0"
     inkscape:pageshadow="2"
     inkscape:window-width="640"
     inkscape:window-height="480"
     id="namedview3458"
     showgrid="false"
     inkscape:zoom="0.23838384"
     inkscape:cx="736.83001"
     inkscape:cy="849.33005"
     inkscape:window-x="0"
     inkscape:window-y="0"
     inkscape:window-maximized="0"
     inkscape:current-layer="svg3362" /><defs
     id="defs3364"><style
       type="text/css"
       id="style3366"><![CDATA[
    .fil4 {fill:none}
    .fil0 {fill:black}
    .fil2 {fill:white}
    .fil1 {fill:white}
    .fil3 {fill:white;fill-rule:nonzero}
   ]]></style></defs><g
     id="Layer_x0020_1"
     transform="translate(3937,-7063)"><metadata
       id="CorelCorpID_0Corel-Layer" /><circle
       class="fil0"
       cy="11000"
       r="3937"
       id="circle3370"
       cx="0"
       style="fill:#000000" /><circle
       class="fil1"
       cy="11000"
       r="3780"
       id="circle3372"
       cx="0"
       style="fill:#ffffff" /><circle
       class="fil0"
       cy="11000"
       r="3701"
       id="circle3374"
       cx="0"
       style="fill:#000000" /><circle
       class="fil2"
       cy="10997"
       r="2795"
       id="circle3376"
       cx="0"
       style="fill:#ffffff" /><path
       class="fil3"
       d="m -2977,11334 -30,-177 -466,354 41,243 557,183 -30,-178 -94,-29 -58,-338 80,-58 z m -182,132 38,228 -210,-66 -5,-30 177,-132 z"
       id="path3378"
       inkscape:connector-curvature="0"
       style="fill:#ffffff;fill-rule:nonzero" /><polygon
       id="1"
       class="fil3"
       points="-3138,10978 -3137,10943 -2989,10796 -2987,10614 -3186,10828 -3355,10637 -3357,10821 -3238,10948 -3238,10977 -3508,10976 -3509,11113 -2991,11117 -2990,10979 "
       style="fill:#ffffff;fill-rule:nonzero" /><path
       id="2"
       class="fil3"
       d="m -3189,10388 c -32,-11 -33,-22 -12,-118 18,-82 28,-91 85,-78 l 19,4 -2,6 c -27,17 -37,34 -51,96 -21,96 -27,135 -25,169 2,55 32,87 97,101 85,19 120,-12 146,-131 20,-89 24,-124 20,-149 -6,-26 -15,-42 -35,-58 l 1,-5 49,11 29,-129 -217,-48 c -65,-15 -94,-13 -123,4 -37,24 -49,50 -75,168 -25,111 -32,175 -22,209 13,45 35,67 86,82 l 30,-134 z m 114,-69 c 13,-57 19,-79 24,-87 9,-13 21,-18 35,-15 32,7 35,36 14,130 -16,72 -29,91 -58,85 -13,-3 -22,-12 -25,-27 -3,-11 1,-42 10,-86 z"
       inkscape:connector-curvature="0"
       style="fill:#ffffff;fill-rule:nonzero" /><polygon
       id="3"
       class="fil3"
       points="-3274,9729 -3321,9859 -2833,10034 -2786,9905 "
       style="fill:#ffffff;fill-rule:nonzero" /><path
       id="4"
       class="fil3"
       d="m -3091,9676 335,153 57,-125 -334,-153 -58,125 z m -137,-63 94,43 58,-125 -94,-43 -58,125 z"
       inkscape:connector-curvature="0"
       style="fill:#ffffff;fill-rule:nonzero" /><path
       id="5"
       class="fil3"
       d="m -2778,9571 c 37,23 64,28 93,20 42,-11 74,-45 146,-158 57,-90 87,-150 92,-186 6,-42 -13,-76 -60,-105 -69,-44 -117,-27 -175,62 -77,120 -90,138 -103,157 -14,18 -26,23 -39,15 -19,-13 -11,-39 35,-112 25,-38 44,-60 56,-66 4,-3 8,-2 19,1 l 76,-118 c -39,-21 -60,-26 -83,-18 -39,12 -70,47 -138,152 -54,85 -83,142 -88,174 -8,43 10,78 56,108 67,42 118,23 175,-64 72,-114 92,-143 103,-158 13,-16 28,-20 40,-12 22,14 15,41 -33,115 -46,73 -68,90 -96,75 l -76,118 z"
       inkscape:connector-curvature="0"
       style="fill:#ffffff;fill-rule:nonzero" /><path
       id="6"
       class="fil3"
       d="m -2355,8857 17,19 c 48,55 78,71 122,62 42,-9 95,-46 212,-148 121,-105 166,-150 181,-181 25,-48 11,-95 -47,-161 -49,-57 -82,-74 -126,-66 -37,7 -67,26 -196,132 -88,73 -120,97 -133,104 -14,6 -26,3 -38,-11 -25,-29 -19,-38 81,-126 90,-78 105,-88 121,-89 11,0 18,4 35,23 l 115,-100 c -6,-8 -13,-17 -15,-19 -42,-48 -75,-64 -114,-58 -42,8 -88,39 -197,134 -141,123 -172,156 -188,199 -15,39 2,86 53,144 34,39 63,58 93,63 35,5 70,-11 128,-59 13,-10 54,-43 99,-78 43,-35 83,-67 96,-78 39,-33 53,-35 74,-11 14,16 18,28 12,40 -7,15 -20,27 -110,106 -84,72 -98,83 -115,85 -15,3 -24,-3 -44,-26 l -116,100 z"
       inkscape:connector-curvature="0"
       style="fill:#ffffff;fill-rule:nonzero" /><path
       id="7"
       class="fil3"
       d="m -1903,8227 201,309 115,-76 -201,-308 -115,75 z m -82,-126 56,87 116,-75 -57,-87 -115,75 z"
       inkscape:connector-curvature="0"
       style="fill:#ffffff;fill-rule:nonzero" /><polygon
       id="8"
       class="fil3"
       points="-1468,8221 -1437,8204 -1237,8263 -1076,8175 -1361,8106 -1276,7865 -1437,7953 -1490,8119 -1516,8133 -1646,7895 -1767,7961 -1518,8416 -1397,8350 "
       style="fill:#ffffff;fill-rule:nonzero" /><path
       id="9"
       class="fil3"
       d="m -1183,7684 149,497 132,-40 -45,-150 c -28,-94 -15,-118 78,-146 86,-26 106,-16 129,60 l 52,172 131,-39 -51,-172 c -25,-83 -42,-112 -82,-135 -40,-22 -88,-21 -166,2 -84,25 -121,57 -130,108 l -6,2 -59,-199 -132,40 z"
       inkscape:connector-curvature="0"
       style="fill:#ffffff;fill-rule:nonzero" /><path
       id="10"
       class="fil3"
       d="m 237,7805 c -1,77 -4,78 -176,77 -168,-2 -170,-4 -169,-136 1,-78 7,-109 26,-124 16,-13 45,-16 143,-15 36,0 82,2 107,4 34,2 47,6 53,15 6,9 8,16 9,46 l 158,1 0,-26 c 1,-85 -16,-124 -64,-146 -34,-18 -84,-23 -217,-24 -266,-1 -325,11 -355,77 -13,29 -17,73 -18,192 0,59 1,104 2,127 6,58 23,89 61,109 43,22 108,28 305,30 119,0 177,-5 219,-18 54,-19 75,-57 76,-139 0,-8 -1,-20 -2,-49 l -158,-1 z"
       inkscape:connector-curvature="0"
       style="fill:#ffffff;fill-rule:nonzero" /><path
       id="11"
       class="fil3"
       d="m 790,7717 c -121,-27 -176,-30 -215,-13 -41,18 -60,50 -78,134 -23,104 -22,139 5,174 28,35 72,53 205,83 131,29 179,32 220,11 38,-19 55,-52 77,-150 20,-90 17,-125 -13,-160 -28,-32 -79,-52 -201,-79 z m -21,101 c 39,9 71,20 85,31 21,16 25,35 15,82 -17,76 -38,85 -139,63 -44,-10 -75,-21 -89,-33 -21,-15 -23,-33 -13,-79 17,-77 39,-86 141,-64 z"
       inkscape:connector-curvature="0"
       style="fill:#ffffff;fill-rule:nonzero" /><path
       id="12"
       class="fil3"
       d="m 1207,7834 -171,326 122,64 70,-135 c 29,-53 43,-71 64,-78 20,-7 50,0 85,19 35,18 54,36 58,53 6,19 2,28 -24,79 l -80,152 122,64 70,-134 c 28,-53 42,-70 64,-78 20,-7 47,-1 83,17 36,19 54,36 59,54 6,18 4,25 -24,80 l -80,152 122,64 80,-152 c 44,-84 52,-113 39,-158 -13,-44 -47,-78 -114,-113 -79,-42 -129,-44 -176,-6 -1,-62 -34,-105 -112,-146 -72,-37 -123,-41 -162,-12 l -6,-3 26,-49 -115,-60 z"
       inkscape:connector-curvature="0"
       style="fill:#ffffff;fill-rule:nonzero" /><path
       id="13"
       class="fil3"
       d="m 2063,8323 -254,266 99,95 105,-109 c 42,-44 61,-57 84,-58 20,-1 47,13 76,41 28,27 41,50 41,68 0,19 -6,27 -46,69 l -118,124 99,95 105,-109 c 41,-44 60,-56 83,-58 21,-1 46,12 75,40 29,28 42,48 42,68 0,19 -3,25 -45,70 l -119,124 100,95 118,-124 c 66,-69 81,-95 81,-141 0,-46 -23,-88 -78,-140 -65,-62 -113,-78 -167,-54 16,-60 -5,-111 -68,-171 -59,-56 -107,-74 -152,-56 l -5,-5 38,-40 -94,-90 z"
       inkscape:connector-curvature="0"
       style="fill:#ffffff;fill-rule:nonzero" /><path
       id="14"
       class="fil3"
       d="m 2707,9206 c 30,-15 38,-9 92,74 45,70 45,83 -3,115 l -17,10 -3,-5 c 7,-31 2,-50 -33,-103 -54,-83 -77,-114 -103,-136 -41,-38 -85,-39 -140,-3 -73,48 -75,95 -9,197 50,76 72,104 93,118 22,14 40,19 66,16 l 3,4 -43,28 73,110 185,-121 c 56,-36 76,-58 84,-91 9,-43 -2,-69 -68,-170 -62,-96 -103,-146 -134,-163 -41,-22 -72,-21 -118,4 l 75,116 z m -32,129 c 33,50 44,69 46,79 3,15 -2,27 -13,35 -28,18 -51,0 -103,-81 -40,-62 -45,-85 -20,-101 11,-7 24,-7 36,1 11,6 30,30 54,67 z"
       inkscape:connector-curvature="0"
       style="fill:#ffffff;fill-rule:nonzero" /><path
       id="15"
       class="fil3"
       d="m 3052,9572 -342,136 51,128 137,-54 c 63,-25 80,-29 103,-20 22,9 38,32 57,79 19,47 23,74 15,93 -7,19 -19,26 -73,48 l -156,62 51,128 155,-62 c 94,-37 118,-54 138,-98 19,-43 14,-90 -19,-171 -33,-82 -65,-115 -118,-121 l -3,-7 52,-20 -48,-121 z"
       inkscape:connector-curvature="0"
       style="fill:#ffffff;fill-rule:nonzero" /><path
       id="16"
       class="fil3"
       d="m 3507,10666 -23,-136 -197,33 -1,-5 c 42,-34 49,-67 32,-163 -15,-93 -28,-130 -55,-159 -32,-35 -78,-42 -170,-26 -90,15 -126,31 -148,65 -22,36 -25,86 -9,183 17,98 36,133 84,151 l 2,7 -48,8 22,128 511,-86 z m -283,-210 c 17,98 6,118 -69,131 -43,7 -63,4 -77,-10 -13,-15 -24,-51 -32,-99 -18,-101 -8,-119 72,-133 72,-12 88,5 106,111 z"
       inkscape:connector-curvature="0"
       style="fill:#ffffff;fill-rule:nonzero" /><path
       id="17"
       class="fil3"
       d="m 3370,11088 c 0,-124 -8,-179 -32,-213 -27,-36 -62,-48 -148,-48 -106,-1 -141,7 -169,41 -29,35 -37,83 -38,219 -1,134 7,182 35,217 27,33 63,43 163,44 92,0 126,-10 154,-47 25,-34 34,-88 35,-213 z m -104,1 c 0,40 -4,73 -12,90 -10,24 -29,31 -77,31 -78,0 -91,-18 -90,-123 0,-45 4,-77 13,-94 10,-23 27,-29 75,-29 78,1 92,20 91,125 z"
       inkscape:connector-curvature="0"
       style="fill:#ffffff;fill-rule:nonzero" /><path
       id="18"
       class="fil3"
       d="m 3092,11432 c -42,-8 -69,-5 -94,13 -36,25 -54,68 -83,199 -23,104 -31,170 -23,206 9,41 38,66 92,78 80,18 120,-15 143,-118 32,-139 38,-161 44,-183 7,-21 17,-30 31,-27 23,5 24,32 5,117 -10,44 -20,72 -29,81 -4,4 -8,5 -19,6 l -30,137 c 44,6 64,3 83,-12 33,-25 51,-68 78,-190 21,-98 29,-162 24,-194 -8,-43 -37,-69 -91,-81 -76,-17 -118,18 -142,119 -29,132 -37,166 -43,184 -6,19 -19,28 -33,25 -26,-6 -28,-33 -9,-120 19,-84 34,-108 66,-103 l 30,-137 z"
       inkscape:connector-curvature="0"
       style="fill:#ffffff;fill-rule:nonzero" /><circle
       class="fil4"
       cy="10997"
       r="3740"
       id="circle3398"
       cx="0"
       style="fill:none" /><path
       class="fil3"
       d="m -2882,12934 87,110 90,-71 173,220 c 14,18 30,32 47,40 17,8 34,12 52,11 17,-1 34,-5 50,-13 16,-7 32,-16 46,-27 l 31,-24 c 19,-15 34,-31 46,-46 11,-16 19,-33 22,-51 4,-18 2,-38 -6,-60 -7,-22 -21,-45 -41,-71 l -237,-301 -360,283 z m 358,-102 127,162 c 13,16 19,30 18,43 -1,12 -8,23 -21,32 l -14,11 c -11,10 -23,14 -34,14 -12,-1 -23,-7 -32,-19 l -135,-172 91,-71 z m 22,578 118,103 85,-34 214,187 -20,90 118,103 112,-511 -138,-121 -489,183 z m 487,-43 -44,190 -136,-118 180,-72 z m 125,555 126,63 151,-296 1,0 84,417 194,99 208,-409 -125,-64 -151,297 -1,0 -84,-417 -194,-99 -209,409 z m 738,183 c -9,32 -12,59 -9,83 3,23 11,43 24,59 13,16 31,30 53,42 22,11 49,21 82,30 l 217,61 c 32,9 61,15 86,16 24,2 47,-1 67,-8 20,-7 37,-20 51,-38 15,-18 26,-43 35,-75 l 37,-132 c 9,-32 12,-59 9,-82 -2,-24 -10,-44 -24,-60 -13,-16 -31,-30 -53,-41 -22,-12 -49,-22 -82,-31 l -217,-61 c -32,-9 -61,-15 -86,-16 -24,-2 -47,0 -66,8 -20,7 -37,20 -52,38 -15,18 -26,44 -35,75 l -37,132 z m 164,-51 c 8,-30 21,-50 36,-62 16,-11 40,-12 74,-2 l 158,44 c 33,9 54,23 61,41 8,17 8,41 -1,71 l -13,48 c -10,33 -21,55 -35,65 -14,10 -36,10 -67,2 l -174,-49 c -30,-9 -49,-21 -56,-37 -7,-15 -6,-40 4,-73 l 13,-48 z m 541,236 c 0,33 3,60 12,82 9,22 21,39 38,52 17,12 38,21 62,27 24,5 53,8 87,9 l 226,5 c 35,1 63,-2 85,-9 23,-6 40,-15 53,-27 12,-12 21,-26 26,-43 5,-16 8,-34 8,-55 l 1,-44 -140,-3 c -1,15 -2,26 -5,35 -3,8 -8,14 -14,18 -6,4 -14,7 -24,8 -10,1 -24,1 -41,1 l -150,-3 c -32,-1 -53,-8 -64,-21 -10,-14 -15,-38 -14,-73 l 1,-49 c 0,-31 7,-54 19,-69 12,-15 36,-22 71,-21 l 153,3 c 22,1 38,4 49,11 11,6 16,17 16,33 l -1,13 141,3 c 1,-36 -1,-64 -6,-85 -5,-22 -16,-39 -31,-52 -15,-14 -37,-24 -66,-30 -29,-6 -69,-10 -118,-11 l -165,-3 c -34,-1 -63,1 -88,5 -24,4 -45,12 -62,24 -18,12 -31,29 -41,50 -9,22 -14,49 -15,82 l -3,137 z m 743,171 503,-88 -19,-108 -364,63 -13,-72 337,-59 -16,-93 -337,58 -12,-72 355,-62 -18,-105 -494,86 78,452 z m 609,-96 146,-58 8,-90 265,-105 71,59 145,-58 -403,-333 -170,68 -62,517 z m 186,-452 148,126 -167,67 19,-193 z m 550,147 118,-76 -180,-280 1,-1 402,137 183,-118 -248,-385 -118,76 180,280 -1,0 -402,-137 -184,118 249,386 z m 644,-455 101,-97 -317,-331 -102,97 318,331 z m 201,-169 98,-123 -38,-83 177,-223 91,16 97,-123 -516,-87 -114,143 205,480 z m -65,-485 192,36 -112,141 -80,-177 z"
       id="path3400"
       inkscape:connector-curvature="0"
       style="fill:#ffffff;fill-rule:nonzero" /><circle
       class="fil4"
       cy="10997"
       r="3780"
       id="circle3402"
       cx="0"
       style="fill:none" /><path
       class="fil0"
       d="m -354,11315 236,197 c 22,19 39,49 39,79 l 0,315 c 0,18 -21,39 -39,39 l -354,0 c -665,0 -387,-1050 118,-630 z"
       id="path3404"
       inkscape:connector-curvature="0"
       style="fill:#000000" /><path
       class="fil0"
       d="m -669,8953 393,39 c 102,10 217,134 217,236 l 0,118 c 0,19 21,40 39,40 l 40,0 c 18,0 39,-21 39,-40 l 0,-118 c 0,-102 115,-226 217,-236 l 393,-39 C 433,9071 433,9465 79,9465 l -158,0 c -354,0 -354,-394 -590,-512 z"
       id="path3406"
       inkscape:connector-curvature="0"
       style="fill:#000000" /><path
       class="fil0"
       d="m -354,9465 c -158,-79 -260,-326 -433,-434 -114,-70 -197,-78 -394,-78 177,118 282,429 433,472 138,40 197,40 394,40 z"
       id="path3408"
       inkscape:connector-curvature="0"
       style="fill:#000000" /><path
       class="fil0"
       d="m -866,9465 c -40,39 -79,39 -118,39 -197,0 -315,-118 -591,-118 -138,0 -295,118 -394,315 0,-512 197,-748 512,-748 276,0 394,472 591,512 z"
       id="path3410"
       inkscape:connector-curvature="0"
       style="fill:#000000" /><path
       class="fil0"
       d="m -906,9583 c -236,78 -433,-99 -590,-99 -315,0 -473,335 -473,689 119,-197 276,-275 512,-315 233,-39 355,-39 551,-275 z"
       id="path3412"
       inkscape:connector-curvature="0"
       style="fill:#000000" /><path
       class="fil0"
       d="m -1496,10409 c 79,119 79,276 -39,434 -142,189 -276,236 -394,551 -40,-197 -40,-276 -40,-394 0,-276 355,-433 473,-591 z"
       id="path3414"
       inkscape:connector-curvature="0"
       style="fill:#000000" /><path
       class="fil0"
       d="m -1142,9898 c -197,118 -393,39 -630,196 -163,110 -197,394 -197,630 237,-315 356,-300 512,-433 151,-127 182,-208 315,-393 z"
       id="path3416"
       inkscape:connector-curvature="0"
       style="fill:#000000" /><path
       class="fil0"
       d="m -1378,10724 c 79,119 197,394 39,591 -198,248 -433,354 -511,748 -63,-361 -35,-647 157,-887 158,-197 276,-255 315,-452 z"
       id="path3418"
       inkscape:connector-curvature="0"
       style="fill:#000000" /><path
       class="fil0"
       d="m -315,12063 630,0 c 157,0 -39,354 -315,354 -276,0 -472,-354 -315,-354 z"
       id="path3420"
       inkscape:connector-curvature="0"
       style="fill:#000000" /><path
       class="fil0"
       d="m -1181,11157 c 79,119 197,512 -79,788 -157,157 -295,315 -197,827 -275,-237 -393,-670 -197,-945 147,-205 434,-394 473,-670 z"
       id="path3422"
       inkscape:connector-curvature="0"
       style="fill:#000000" /><path
       class="fil0"
       d="m -1024,11591 c 118,98 197,492 40,787 -104,194 -177,512 0,827 -394,-236 -475,-683 -355,-985 79,-196 315,-275 315,-629 z"
       id="path3424"
       inkscape:connector-curvature="0"
       style="fill:#000000" /><path
       class="fil0"
       d="m -787,11945 c 118,0 415,276 315,512 -63,146 -99,315 -99,472 0,149 29,306 177,473 -590,-79 -652,-508 -512,-906 55,-154 158,-236 119,-551 z"
       id="path3426"
       inkscape:connector-curvature="0"
       style="fill:#000000" /><path
       class="fil0"
       d="m -39,12654 c 0,354 -79,472 39,708 118,-236 41,-335 39,-708 -1,-197 197,-119 315,-315 0,236 118,236 118,590 0,236 -118,512 -472,512 -354,0 -472,-276 -472,-512 0,-354 118,-354 118,-590 118,196 315,118 315,315 z"
       id="path3428"
       inkscape:connector-curvature="0"
       style="fill:#000000" /><path
       class="fil0"
       d="m 358,11315 -240,197 c -23,18 -39,49 -39,79 l 0,315 c 0,18 21,39 39,39 l 359,0 c 664,0 389,-1046 -119,-630 z"
       id="path3430"
       inkscape:connector-curvature="0"
       style="fill:#000000" /><path
       class="fil0"
       d="m -276,11197 c 75,-25 197,-20 276,-20 79,0 201,-5 276,20 118,39 -237,275 -276,275 -39,0 -394,-236 -276,-275 z"
       id="path3432"
       inkscape:connector-curvature="0"
       style="fill:#000000" /><path
       class="fil0"
       d="m -571,10429 c 61,37 99,99 99,177 0,20 -20,40 -20,20 0,-79 -79,-138 -118,-138 -59,59 -99,118 -177,118 -142,0 -167,-132 -158,-216 118,13 276,-20 374,39 z"
       id="path3434"
       inkscape:connector-curvature="0"
       style="fill:#000000" /><path
       class="fil0"
       d="m 354,9465 c 158,-79 260,-326 433,-434 114,-70 197,-78 394,-78 -177,118 -282,429 -433,472 -138,40 -197,40 -394,40 z"
       id="path3436"
       inkscape:connector-curvature="0"
       style="fill:#000000" /><path
       class="fil0"
       d="m 866,9465 c 40,39 79,39 118,39 197,0 315,-118 591,-118 138,0 295,118 394,315 0,-512 -197,-748 -512,-748 -276,0 -394,472 -591,512 z"
       id="path3438"
       inkscape:connector-curvature="0"
       style="fill:#000000" /><path
       class="fil0"
       d="m 906,9583 c 236,78 433,-99 590,-99 315,0 473,335 473,689 -119,-197 -276,-275 -512,-315 -233,-39 -355,-39 -551,-275 z"
       id="path3440"
       inkscape:connector-curvature="0"
       style="fill:#000000" /><path
       class="fil0"
       d="m 1496,10409 c -79,119 -79,276 39,434 142,189 276,236 394,551 40,-197 40,-276 40,-394 0,-276 -355,-433 -473,-591 z"
       id="path3442"
       inkscape:connector-curvature="0"
       style="fill:#000000" /><path
       class="fil0"
       d="m 1142,9898 c 197,118 393,39 630,196 163,110 197,394 197,630 -237,-315 -356,-300 -512,-433 -151,-127 -182,-208 -315,-393 z"
       id="path3444"
       inkscape:connector-curvature="0"
       style="fill:#000000" /><path
       class="fil0"
       d="m 1378,10724 c -79,119 -197,394 -39,591 198,248 433,354 511,748 63,-361 35,-647 -157,-887 -158,-197 -276,-255 -315,-452 z"
       id="path3446"
       inkscape:connector-curvature="0"
       style="fill:#000000" /><path
       class="fil0"
       d="m 1181,11157 c -79,119 -197,512 79,788 157,157 295,315 197,827 275,-237 393,-670 197,-945 -147,-205 -434,-394 -473,-670 z"
       id="path3448"
       inkscape:connector-curvature="0"
       style="fill:#000000" /><path
       class="fil0"
       d="m 1024,11591 c -118,98 -197,492 -40,787 104,194 177,512 0,827 394,-236 475,-683 355,-985 -79,-196 -315,-275 -315,-629 z"
       id="path3450"
       inkscape:connector-curvature="0"
       style="fill:#000000" /><path
       class="fil0"
       d="m 787,11945 c -118,0 -415,276 -315,512 63,146 99,315 99,472 0,149 -29,306 -177,473 590,-79 652,-508 512,-906 -55,-154 -158,-236 -119,-551 z"
       id="path3452"
       inkscape:connector-curvature="0"
       style="fill:#000000" /><path
       class="fil0"
       d="m 571,10429 c -61,37 -99,99 -99,177 0,20 20,40 20,20 0,-79 79,-138 118,-138 59,59 99,118 177,118 142,0 167,-132 158,-216 -118,13 -276,-20 -374,39 z"
       id="path3454"
       inkscape:connector-curvature="0"
       style="fill:#000000" /><path
       class="fil0"
       d="m 0,11098 c -197,1 -374,0 -472,40 -40,-79 -40,-218 -20,-335 20,-118 98,-79 98,-236 0,-49 -58,-140 -118,-177 -157,-99 -433,-40 -531,-79 l 39,98 c -37,150 76,256 197,256 79,0 132,-19 197,-98 157,118 -2,276 19,551 -40,3 -99,14 -140,34 -118,59 -191,181 -219,309 l -389,-933 c -15,-37 -22,-86 0,-119 l 512,-748 c 27,-39 71,-78 118,-78 473,0 945,0 1418,0 47,0 91,39 118,78 l 512,748 c 22,33 15,82 0,119 l -389,933 c -28,-128 -101,-250 -219,-309 -41,-20 -100,-31 -140,-34 21,-275 -138,-433 19,-551 65,79 118,98 197,98 121,0 234,-106 197,-256 l 39,-98 c -98,39 -374,-20 -531,79 -60,37 -118,128 -118,177 0,157 78,118 98,236 20,117 20,256 -20,335 -98,-40 -275,-39 -472,-40 z"
       id="path3456"
       inkscape:connector-curvature="0"
       style="fill:#000000" /></g></svg>