<?xml version="1.0" encoding="UTF-8" standalone="no"?>
<!-- Creator: CorelDRAW X7 -->

<svg
   xmlns:dc="http://purl.org/dc/elements/1.1/"
   xmlns:cc="http://creativecommons.org/ns#"
   xmlns:rdf="http://www.w3.org/1999/02/22-rdf-syntax-ns#"
   xmlns:svg="http://www.w3.org/2000/svg"
   xmlns="http://www.w3.org/2000/svg"
   xmlns:sodipodi="http://sodipodi.sourceforge.net/DTD/sodipodi-0.dtd"
   xmlns:inkscape="http://www.inkscape.org/namespaces/inkscape"
   xml:space="preserve"
   width="7.8740005in"
   height="7.8740005in"
   version="1.1"
   style="clip-rule:evenodd;fill-rule:evenodd;image-rendering:optimizeQuality;shape-rendering:geometricPrecision;text-rendering:geometricPrecision"
   viewBox="0 0 7874.0005 7874.0005"
   id="svg7168"
   inkscape:version="0.91 r13725"
   sodipodi:docname="Yu Jing - Imperial Agent, Pheasant Rank - [A6] [Vyo].svg"><metadata
     id="metadata7204"><rdf:RDF><cc:Work
         rdf:about=""><dc:format>image/svg+xml</dc:format><dc:type
           rdf:resource="http://purl.org/dc/dcmitype/StillImage" /></cc:Work></rdf:RDF></metadata><sodipodi:namedview
     pagecolor="#ffffff"
     bordercolor="#666666"
     borderopacity="1"
     objecttolerance="10"
     gridtolerance="10"
     guidetolerance="10"
     inkscape:pageopacity="0"
     inkscape:pageshadow="2"
     inkscape:window-width="640"
     inkscape:window-height="480"
     id="namedview7202"
     showgrid="false"
     inkscape:zoom="0.23838384"
     inkscape:cx="736.83001"
     inkscape:cy="849.33005"
     inkscape:window-x="0"
     inkscape:window-y="0"
     inkscape:window-maximized="0"
     inkscape:current-layer="svg7168" /><defs
     id="defs7170"><style
       type="text/css"
       id="style7172"><![CDATA[
    .str0 {stroke:black;stroke-width:3}
    .fil3 {fill:none}
    .fil1 {fill:black}
    .fil0 {fill:#E32527}
    .fil4 {fill:white}
    .fil2 {fill:white;fill-rule:nonzero}
   ]]></style></defs><g
     id="Layer_x0020_1"
     transform="translate(3937,-7063)"><metadata
       id="CorelCorpID_0Corel-Layer" /><circle
       class="fil0"
       cy="11000"
       r="3937"
       id="circle7176"
       cx="0"
       style="fill:#e32527" /><circle
       class="fil1"
       cy="11000"
       r="3780"
       id="circle7178"
       cx="0"
       style="fill:#000000" /><circle
       class="fil0"
       cy="11000"
       r="3661"
       id="circle7180"
       cx="0"
       style="fill:#e32527" /><circle
       class="fil1"
       cy="11000"
       r="2520"
       id="circle7182"
       cx="0"
       style="fill:#000000" /><circle
       class="fil0"
       cy="11000"
       r="2402"
       id="circle7184"
       cx="0"
       style="fill:#e32527" /><circle
       class="fil1"
       cy="11000"
       r="2323"
       id="circle7186"
       cx="0"
       style="fill:#000000" /><path
       class="fil2"
       d="m -908,8302 c 60,-13 118,-27 176,-42 l -18,-115 -158,25 -8,-54 158,-25 -17,-105 -91,15 4,24 -55,8 -58,-368 348,-54 58,368 -55,8 -4,-24 -90,14 16,105 158,-25 9,55 -158,25 17,110 c 57,-14 113,-29 169,-44 0,14 2,34 5,59 -206,54 -336,88 -390,103 l -16,-63 z m 359,-370 -8,-56 167,-26 c -37,-32 -85,-70 -144,-113 l 34,-41 c 36,25 68,48 96,70 l 87,-144 -259,41 -8,-56 327,-51 10,63 -113,181 c 11,8 21,16 30,24 l -17,19 155,-24 7,47 c -8,49 -18,99 -31,150 -29,-4 -49,-7 -60,-8 12,-46 22,-87 29,-123 l -101,15 52,331 c 9,54 -15,85 -72,94 -30,5 -62,9 -96,14 -5,-19 -11,-40 -19,-63 38,-2 69,-5 94,-9 26,-4 37,-19 33,-46 l -49,-312 -144,23 z m -325,16 91,-14 -15,-95 -91,15 15,94 z m -23,-145 91,-14 -15,-95 -91,15 15,94 z m 170,122 91,-14 -15,-95 -91,14 15,95 z m 53,-254 -90,15 14,94 91,-14 -15,-95 z m 1306,44 -43,275 336,53 c -16,93 -30,170 -44,231 -17,85 -70,120 -157,107 l -144,-23 c 0,-23 -1,-46 -3,-68 53,13 104,23 153,30 51,8 83,-11 94,-56 12,-53 24,-111 35,-174 l -336,-52 61,-388 88,14 c 17,-29 30,-56 42,-83 l 60,27 c -11,18 -25,40 -42,65 l 203,32 c -12,70 -23,132 -33,185 -13,70 -50,100 -112,91 -32,-5 -67,-11 -105,-18 0,-22 0,-46 -2,-70 38,12 73,21 106,27 31,4 50,-10 57,-45 8,-38 16,-79 23,-123 l -237,-37 z m -356,26 c 26,57 52,117 79,179 37,-67 67,-140 90,-220 l -214,-34 9,-57 273,43 -9,57 c -29,103 -69,195 -120,278 24,56 48,113 74,173 l -58,28 c -19,-50 -38,-97 -56,-142 -50,70 -110,132 -179,185 -7,-18 -16,-37 -28,-57 71,-55 131,-119 181,-193 -34,-82 -66,-154 -95,-217 l 53,-23 z m 208,381 319,50 -9,55 -319,-50 9,-55 z m 185,-338 46,-31 c 17,21 38,51 66,92 l -51,32 c -24,-39 -44,-70 -61,-93 z"
       id="path7188"
       inkscape:connector-curvature="0"
       style="fill:#ffffff;fill-rule:nonzero" /><circle
       class="fil3"
       cy="11000"
       r="3898"
       id="circle7190"
       cx="0"
       style="fill:none" /><path
       class="fil4"
       d="m -2500,9215 c 75,-32 173,-103 282,-292 109,-188 122,-309 112,-390 -76,32 -174,103 -282,292 -109,188 -122,309 -112,390 z m -416,2983 c 12,-98 -3,-242 -134,-468 -130,-226 -248,-312 -338,-350 -12,97 3,242 134,468 130,226 248,311 338,350 z m 139,-974 c 44,69 83,184 64,400 -19,217 -78,323 -132,384 -44,-70 -83,-184 -64,-401 19,-216 77,-322 132,-383 z m -349,173 c 37,-91 60,-235 -8,-487 -67,-252 -159,-365 -236,-425 -37,91 -60,234 8,487 67,252 159,365 236,425 z m 387,-905 c 23,79 32,200 -43,404 -74,204 -158,291 -227,336 -23,-78 -32,-199 42,-403 75,-205 159,-292 228,-337 z m -382,78 c 59,-79 118,-212 118,-473 0,-261 -59,-393 -118,-472 -59,79 -119,211 -119,472 0,261 60,394 119,473 z m 607,-775 c 3,82 -20,201 -145,379 -125,179 -229,241 -307,266 -2,-82 21,-200 146,-378 124,-179 228,-241 306,-267 z m -389,-24 c 77,-60 169,-173 236,-425 68,-252 45,-396 9,-487 -78,60 -169,173 -237,425 -67,252 -45,396 -8,487 z m 787,-590 c -18,80 -72,188 -238,328 -167,140 -283,173 -365,178 19,-80 72,-189 238,-329 167,-139 283,-173 365,-177 z"
       id="path7192"
       inkscape:connector-curvature="0"
       style="fill:#ffffff" /><path
       class="fil4"
       d="m 2500,9215 c -75,-32 -173,-103 -282,-292 -109,-188 -122,-309 -112,-390 76,32 174,103 282,292 109,188 122,309 112,390 z m 416,2983 c -12,-98 3,-242 134,-468 130,-226 248,-312 338,-350 12,97 -3,242 -134,468 -130,226 -248,311 -338,350 z m -139,-974 c -44,69 -83,184 -64,400 19,217 78,323 132,384 44,-70 83,-184 64,-401 -19,-216 -78,-322 -132,-383 z m 349,173 c -37,-91 -60,-235 8,-487 67,-252 159,-365 236,-425 37,91 60,234 -8,487 -67,252 -159,365 -236,425 z m -387,-905 c -23,79 -32,200 43,404 74,204 158,291 227,336 23,-78 32,-199 -43,-403 -74,-205 -158,-292 -227,-337 z m 382,78 c -59,-79 -118,-212 -118,-473 0,-261 59,-393 118,-472 59,79 119,211 119,472 0,261 -60,394 -119,473 z m -607,-775 c -3,82 20,201 145,379 125,179 229,241 307,266 2,-82 -21,-200 -146,-378 -124,-179 -228,-241 -306,-267 z m 389,-24 c -77,-60 -169,-173 -236,-425 -68,-252 -45,-396 -9,-487 78,60 169,173 237,425 67,252 45,396 8,487 z m -787,-590 c 18,80 72,188 238,328 167,140 283,173 365,178 -19,-80 -72,-189 -238,-329 -167,-139 -283,-173 -365,-177 z"
       id="path7194"
       inkscape:connector-curvature="0"
       style="fill:#ffffff" /><circle
       class="fil3"
       cy="11000"
       r="3898"
       id="circle7196"
       cx="0"
       style="fill:none" /><path
       class="fil4 str0"
       d="m 20,9051 c 155,-1 203,57 354,158 118,78 295,118 413,98 -19,59 -78,118 -209,111 72,145 108,310 209,342 33,10 65,21 96,32 -340,13 -706,287 -706,657 0,101 40,256 217,413 187,167 247,217 531,217 229,0 800,-39 1097,-388 89,207 104,401 104,545 0,336 -156,707 -420,1030 -52,-538 -741,-794 -1214,-990 -354,-256 -669,-709 -661,-1024 9,-374 169,-472 177,-610 2,-43 -28,-118 -67,-118 -59,0 -158,-59 -177,-59 -40,0 -99,-59 -177,-59 -40,0 -79,39 -79,98 -118,-138 59,-177 138,-217 35,-17 49,-39 59,-59 59,-118 189,-176 315,-177 z m 1608,3306 c -83,91 -175,177 -275,257 25,-62 45,-154 45,-236 0,-265 -304,-704 -613,-907 -8,-6 -14,-24 -13,-33 301,130 655,374 744,507 93,140 129,260 112,412 z m -377,335 c -350,250 -782,414 -1251,414 -694,0 -1264,-264 -1645,-674 75,0 139,-19 192,-54 61,-40 106,-100 134,-172 81,88 173,165 276,231 -335,-413 -807,-1142 -433,-1732 -99,1220 846,1752 1476,1752 394,0 726,-146 886,-355 57,-74 79,-177 98,-354 79,59 158,236 256,354 78,94 99,215 99,315 0,108 -50,200 -88,275 z m -2933,-302 c -248,-283 -409,-632 -463,-1009 53,48 119,85 189,103 81,22 166,19 239,-18 73,264 194,509 368,708 -24,72 -67,133 -126,171 -55,36 -124,54 -207,45 z m -471,-1074 c -8,-72 -12,-144 -12,-218 0,-197 37,-411 107,-619 6,65 23,129 52,185 43,83 112,150 207,185 0,195 24,391 72,578 -65,36 -144,39 -219,19 -77,-20 -150,-64 -202,-123 -2,-3 -4,-5 -5,-7 z m 136,-949 c 50,-125 111,-247 183,-359 -2,50 3,98 12,143 15,73 44,135 81,171 -35,157 -55,320 -57,485 -79,-33 -136,-91 -173,-161 -42,-82 -57,-181 -46,-279 z m 228,-426 c 120,-172 265,-318 431,-417 -176,202 -301,464 -372,751 -23,-31 -42,-78 -53,-132 -13,-62 -16,-133 -6,-202 z m 2714,-83 c 256,0 545,196 781,366 66,48 144,138 164,185 138,-19 256,-59 335,-98 -40,98 -144,326 -374,472 -217,138 -571,237 -866,237 -131,0 -271,-51 -394,-138 -128,-91 -236,-177 -236,-413 0,-394 354,-611 590,-611 z"
       id="path7198"
       inkscape:connector-curvature="0"
       style="fill:#ffffff;stroke:#000000;stroke-width:3" /><path
       class="fil2"
       d="m -2785,12990 -52,-74 422,-297 52,74 -422,297 z m 439,509 -57,-59 233,-225 c 11,-11 24,-21 38,-33 -12,6 -30,13 -55,21 l -286,75 -12,-13 85,-285 c 6,-20 13,-37 22,-53 -19,20 -31,32 -35,36 l -233,224 -51,-52 372,-358 51,53 -99,347 349,-87 50,52 -372,357 z m 637,129 c -41,52 -85,61 -130,25 l -192,-150 -124,158 -70,-55 319,-406 261,205 c 45,36 48,80 7,132 l -71,91 z m -50,-77 34,-44 c 17,-21 14,-40 -7,-57 l -159,-125 -85,108 159,125 c 22,16 41,14 58,-7 z m 307,566 -345,-202 261,-446 341,200 -44,76 -264,-154 -58,99 154,90 -44,76 -155,-90 -64,111 267,156 -49,84 z m 563,201 -121,-43 -82,-236 -80,-28 -66,183 -83,-29 172,-487 313,111 c 55,20 71,61 49,124 l -41,114 c -16,44 -37,68 -65,71 -16,2 -49,-5 -98,-23 l 102,243 z m -11,-348 20,-58 c 10,-26 1,-43 -24,-52 l -191,-68 -48,136 190,67 c 26,9 44,1 53,-25 z m 213,386 -88,-20 115,-503 87,20 -114,503 z m 618,72 -101,-7 -38,-117 -244,-18 -54,109 -90,-7 258,-498 87,7 182,531 z m -169,-219 -68,-216 -102,203 170,13 z m 643,194 -378,29 -40,-515 90,-7 32,418 289,-22 7,97 z m 796,-185 -97,28 -76,-96 -236,68 -12,121 -86,25 67,-556 84,-25 356,435 z m -235,-147 -139,-178 -24,225 163,-47 z m 665,-183 c 18,40 26,69 24,88 -4,25 -24,46 -61,63 l -243,109 c -37,17 -66,18 -87,5 -16,-11 -33,-36 -51,-76 l -112,-248 c -18,-40 -26,-70 -23,-88 4,-26 24,-46 60,-63 l 244,-110 c 38,-17 68,-18 89,-2 15,11 32,38 51,80 l -71,56 -24,-53 -256,115 134,298 256,-115 -47,-105 -134,61 -36,-81 214,-96 73,162 z m 512,-211 -326,232 -299,-420 322,-230 51,72 -249,177 67,94 145,-104 51,72 -145,104 74,104 252,-180 57,79 z m 433,-403 -44,43 -426,-33 c -20,-2 -37,-5 -52,-8 20,17 37,34 52,50 l 200,208 -58,56 -358,-372 45,-43 406,30 c 30,3 54,6 71,10 -31,-29 -52,-49 -62,-60 l -190,-197 58,-56 358,372 z m -4,-712 -104,146 346,245 -52,73 -346,-245 -103,145 -75,-53 259,-364 75,53 z"
       id="path7200"
       inkscape:connector-curvature="0"
       style="fill:#ffffff;fill-rule:nonzero" /></g></svg>