<?xml version="1.0" encoding="UTF-8" standalone="no"?>
<!-- Creator: CorelDRAW X7 -->

<svg
   xmlns:dc="http://purl.org/dc/elements/1.1/"
   xmlns:cc="http://creativecommons.org/ns#"
   xmlns:rdf="http://www.w3.org/1999/02/22-rdf-syntax-ns#"
   xmlns:svg="http://www.w3.org/2000/svg"
   xmlns="http://www.w3.org/2000/svg"
   xmlns:sodipodi="http://sodipodi.sourceforge.net/DTD/sodipodi-0.dtd"
   xmlns:inkscape="http://www.inkscape.org/namespaces/inkscape"
   xml:space="preserve"
   width="7.8740005in"
   height="7.8740005in"
   version="1.1"
   style="clip-rule:evenodd;fill-rule:evenodd;image-rendering:optimizeQuality;shape-rendering:geometricPrecision;text-rendering:geometricPrecision"
   viewBox="0 0 7874.0005 7874.0005"
   id="svg25143"
   inkscape:version="0.91 r13725"
   sodipodi:docname="image_8023.svg"><metadata
     id="metadata25163"><rdf:RDF><cc:Work
         rdf:about=""><dc:format>image/svg+xml</dc:format><dc:type
           rdf:resource="http://purl.org/dc/dcmitype/StillImage" /></cc:Work></rdf:RDF></metadata><sodipodi:namedview
     pagecolor="#ffffff"
     bordercolor="#666666"
     borderopacity="1"
     objecttolerance="10"
     gridtolerance="10"
     guidetolerance="10"
     inkscape:pageopacity="0"
     inkscape:pageshadow="2"
     inkscape:window-width="640"
     inkscape:window-height="480"
     id="namedview25161"
     showgrid="false"
     inkscape:zoom="0.23838384"
     inkscape:cx="736.83001"
     inkscape:cy="849.33005"
     inkscape:window-x="0"
     inkscape:window-y="0"
     inkscape:window-maximized="0"
     inkscape:current-layer="svg25143" /><defs
     id="defs25145"><style
       type="text/css"
       id="style25147"><![CDATA[
    .fil2 {fill:#385161}
    .fil1 {fill:#385161}
    .fil0 {fill:#56656E}
    .fil3 {fill:#CCC9CA}
    .fil4 {fill:#385161;fill-rule:nonzero}
   ]]></style></defs><g
     id="Layer_x0020_1"
     transform="translate(3937,-7063)"><metadata
       id="CorelCorpID_0Corel-Layer" /><path
       class="fil0"
       d="m 0,7063 c 1087,0 2071,441 2784,1153 712,713 1153,1697 1153,2784 0,1087 -441,2071 -1153,2784 -713,712 -1697,1153 -2784,1153 -1087,0 -2071,-441 -2784,-1153 -712,-713 -1153,-1697 -1153,-2784 0,-1087 441,-2071 1153,-2784 713,-712 1697,-1153 2784,-1153 z"
       id="path25151"
       inkscape:connector-curvature="0"
       style="fill:#56656e" /><path
       class="fil1"
       d="m 2978,13485 c -691,884 -1768,1452 -2978,1452 -1210,0 -2287,-568 -2978,-1452 -232,-296 223,-576 261,-595 709,-394 1302,-534 1378,-551 77,-18 288,-2 355,39 l 512,315 c 270,166 89,429 59,610 -40,236 374,689 413,728 39,-39 453,-492 413,-728 -30,-181 -211,-444 59,-610 l 512,-315 c 67,-41 278,-57 355,-39 76,17 669,157 1378,551 38,19 493,299 261,595 z"
       id="path25153"
       inkscape:connector-curvature="0"
       style="fill:#385161" /><path
       class="fil2"
       d="m -3863,11349 c -136,-1114 224,-2278 1079,-3133 713,-712 1697,-1153 2784,-1153 1087,0 2071,441 2784,1153 855,855 1215,2019 1079,3133 -46,373 -565,249 -606,236 -779,-223 -1297,-543 -1364,-585 -67,-42 -204,-202 -223,-278 l -139,-585 c -73,-309 241,-367 390,-473 195,-139 223,-752 223,-808 -56,0 -669,28 -808,223 -106,149 -164,463 -473,390 L 278,9330 C 202,9311 42,9174 0,9107 c -42,67 -202,204 -278,223 l -585,139 c -309,73 -367,-241 -473,-390 -139,-195 -752,-223 -808,-223 0,56 28,669 223,808 149,106 463,164 390,473 l -139,585 c -19,76 -156,236 -223,278 -67,42 -585,362 -1364,585 -41,13 -560,137 -606,-236 z"
       id="path25155"
       inkscape:connector-curvature="0"
       style="fill:#385161" /><path
       class="fil3"
       d="m 503,13469 6,-1 3,0 0,0 c 602,-125 1126,-464 1487,-934 l -566,-242 c -353,391 -864,637 -1433,637 -569,0 -1080,-246 -1433,-637 l -566,242 c 361,470 885,809 1487,934 l 0,0 3,0 c 2,1 4,1 6,1 l 31,6 c 92,19 199,127 255,202 l 217,286 217,-286 c 56,-75 163,-183 255,-202 l 31,-6 z m -779,1002 c -19,-24 -19,-68 0,-92 l 242,-304 c 14,-18 54,-18 68,0 l 242,304 c 19,24 19,68 0,92 l -242,304 c -14,18 -54,18 -68,0 l -242,-304 z M -2364,8953 c 26,-4 58,15 68,40 l 123,309 c 7,18 -11,48 -30,51 l -329,49 c -26,3 -59,-15 -68,-40 l -123,-309 c -7,-18 10,-48 30,-51 l 329,-49 z m -355,614 c 26,-4 59,15 69,39 l 122,310 c 7,18 -10,48 -29,51 l -330,48 c -25,4 -58,-15 -68,-39 l -122,-309 c -8,-19 10,-49 29,-52 l 329,-48 z m -149,-541 c 30,-5 68,17 79,46 l 143,361 c 9,21 -12,56 -34,59 l -384,57 c -31,5 -69,-17 -80,-46 l -143,-361 c -8,-21 12,-56 35,-60 l 384,-56 z m 5823,950 c -10,24 -42,43 -68,39 l -330,-48 c -19,-3 -36,-33 -29,-51 l 122,-310 c 10,-24 43,-43 69,-39 l 329,48 c 19,3 37,33 29,52 l -122,309 z m -355,-614 c -9,25 -42,43 -68,40 l -329,-49 c -19,-3 -37,-33 -30,-51 l 123,-309 c 10,-25 42,-44 68,-40 l 329,49 c 20,3 37,33 30,51 l -123,309 z m 544,141 c -11,29 -49,51 -80,46 l -384,-57 c -22,-3 -43,-38 -34,-59 l 143,-361 c 11,-29 49,-51 79,-46 l 384,56 c 23,4 43,39 35,60 l -143,361 z m -3735,4568 c -16,-21 -16,-58 0,-79 l 207,-261 c 12,-15 47,-15 59,0 l 207,261 c 16,21 16,58 0,79 l -207,261 c -12,15 -47,15 -59,0 l -207,-261 z m 709,0 c -16,-21 -16,-58 0,-79 l 207,-261 c 12,-15 47,-15 59,0 l 207,261 c 16,21 16,58 0,79 l -207,261 c -12,15 -47,15 -59,0 L 118,14071 Z M 340,9583 281,9091 c 932,136 1648,939 1648,1909 0,208 -33,408 -94,595 l 493,370 c 124,-297 192,-623 192,-965 0,-291 -50,-570 -141,-830 -29,-90 12,-235 48,-321 l 139,-330 -356,-45 c -93,-12 -241,-50 -302,-121 l -27,-30 1,1 C 1463,8855 872,8543 208,8489 L 93,7535 c -6,-50 -34,-118 -93,-118 -59,0 -87,68 -93,118 l -115,954 c -664,54 -1255,366 -1674,835 l 1,-1 -27,30 c -61,71 -209,109 -302,121 l -356,45 139,330 c 36,86 77,231 48,321 -91,260 -141,539 -141,830 0,342 68,668 192,965 l 493,-370 c -61,-187 -94,-387 -94,-595 0,-970 716,-1773 1648,-1909 l -59,492 c -641,154 -1117,730 -1117,1417 0,144 21,283 60,414 l -1650,1238 c -41,30 -85,88 -56,139 30,51 102,42 149,22 l 1897,-810 c 266,279 641,454 1057,454 416,0 791,-175 1057,-454 l 1897,810 c 47,20 119,29 149,-22 29,-51 -15,-109 -56,-139 L 1397,11414 c 39,-131 60,-270 60,-414 0,-687 -476,-1263 -1117,-1417 z"
       id="path25157"
       inkscape:connector-curvature="0"
       style="fill:#ccc9ca" /><path
       class="fil4"
       d="m 492,10409 0,355 473,0 0,236 -473,0 0,236 521,0 202,202 -167,167 -132,-133 -463,0 c -51,0 -101,-24 -137,-60 l 0,0 c -36,-36 -60,-86 -60,-136 l 0,-867 236,0 z m -1319,1063 335,0 c 49,0 59,12 59,59 l 0,60 236,0 0,-60 c 0,-22 0,-88 -37,-155 -40,-73 -115,-140 -258,-140 l -335,0 0,-827 -236,0 0,1182 236,0 0,-119 z m 788,-1063 236,0 0,1182 -236,0 0,-1182 z"
       id="path25159"
       inkscape:connector-curvature="0"
       style="fill:#385161;fill-rule:nonzero" /></g></svg>