<?xml version="1.0" encoding="UTF-8" standalone="no"?>
<!-- Creator: CorelDRAW X7 -->

<svg
   xmlns:dc="http://purl.org/dc/elements/1.1/"
   xmlns:cc="http://creativecommons.org/ns#"
   xmlns:rdf="http://www.w3.org/1999/02/22-rdf-syntax-ns#"
   xmlns:svg="http://www.w3.org/2000/svg"
   xmlns="http://www.w3.org/2000/svg"
   xmlns:sodipodi="http://sodipodi.sourceforge.net/DTD/sodipodi-0.dtd"
   xmlns:inkscape="http://www.inkscape.org/namespaces/inkscape"
   xml:space="preserve"
   width="7.8740005in"
   height="7.8740005in"
   version="1.1"
   style="clip-rule:evenodd;fill-rule:evenodd;image-rendering:optimizeQuality;shape-rendering:geometricPrecision;text-rendering:geometricPrecision"
   viewBox="0 0 7874.0005 7874.0005"
   id="svg3724"
   inkscape:version="0.91 r13725"
   sodipodi:docname="Combined Army - Rasyat Diplomatic Division - [N3] [Vyo].svg"><metadata
     id="metadata3744"><rdf:RDF><cc:Work
         rdf:about=""><dc:format>image/svg+xml</dc:format><dc:type
           rdf:resource="http://purl.org/dc/dcmitype/StillImage" /></cc:Work></rdf:RDF></metadata><sodipodi:namedview
     pagecolor="#ffffff"
     bordercolor="#666666"
     borderopacity="1"
     objecttolerance="10"
     gridtolerance="10"
     guidetolerance="10"
     inkscape:pageopacity="0"
     inkscape:pageshadow="2"
     inkscape:window-width="640"
     inkscape:window-height="480"
     id="namedview3742"
     showgrid="false"
     inkscape:zoom="0.23838384"
     inkscape:cx="736.83001"
     inkscape:cy="849.33005"
     inkscape:window-x="0"
     inkscape:window-y="0"
     inkscape:window-maximized="0"
     inkscape:current-layer="svg3724" /><defs
     id="defs3726"><style
       type="text/css"
       id="style3728"><![CDATA[
    .fil0 {fill:black}
    .fil1 {fill:#00C0FF}
    .fil3 {fill:#E32527}
    .fil2 {fill:#FFCC00}
    .fil4 {fill:white}
   ]]></style></defs><g
     id="Layer_x0020_1"
     transform="translate(3937,-7063)"><metadata
       id="CorelCorpID_0Corel-Layer" /><circle
       class="fil0"
       cy="11000"
       r="3937"
       id="circle3732"
       cx="0"
       style="fill:#000000" /><polygon
       class="fil1"
       points="-2520,11472 -2579,10449 -1732,9189 -946,10809 -1850,12594 "
       id="polygon3734"
       style="fill:#00c0ff" /><polygon
       class="fil2"
       points="-99,12372 2382,11728 1378,13303 "
       id="polygon3736"
       style="fill:#ffcc00" /><path
       class="fil3"
       d="m 709,9484 787,-512 984,1182 59,1456 -1515,394 c 315,-197 531,-453 531,-847 0,-452 -295,-1122 -846,-1673 z m -169,-1 c 364,543 482,1051 415,1515 -76,516 -379,966 -831,1342 l -251,-302 c 379,-314 632,-683 692,-1096 54,-371 -46,-786 -351,-1241 l 326,-218 z"
       id="path3738"
       inkscape:connector-curvature="0"
       style="fill:#e32527" /><path
       class="fil4"
       d="m 197,8133 c 1495,101 2677,1346 2677,2867 0,1521 -1182,2766 -2677,2867 l 0,-553 c 210,-17 413,-63 604,-133 -1080,-404 -1513,-1183 -1806,-1953 -312,486 -469,988 -517,1527 361,313 820,517 1325,559 l 0,553 c -1495,-101 -2677,-1346 -2677,-2867 0,-1521 1182,-2766 2677,-2867 l 0,553 c -506,42 -967,247 -1328,562 320,281 489,702 653,1171 C -414,9919 217,9431 1064,8935 800,8799 507,8712 197,8686 l 0,-553 z m 1922,3819 c -211,134 -437,233 -672,303 -400,119 -824,153 -1239,128 275,233 627,422 1093,541 355,-240 641,-577 818,-972 z m -2314,-9 c 505,81 1041,81 1529,-65 358,-106 692,-292 970,-583 13,-96 19,-195 19,-295 0,-741 -347,-1401 -888,-1826 -997,564 -1694,1112 -2160,1674 131,371 285,754 530,1095 z M -1800,9531 c -327,401 -523,912 -523,1469 0,517 169,994 454,1380 97,-563 316,-1092 703,-1607 l -14,-40 c -170,-497 -324,-949 -620,-1202 z"
       id="path3740"
       inkscape:connector-curvature="0"
       style="fill:#ffffff" /></g></svg>