<?xml version="1.0" encoding="UTF-8" standalone="no"?>
<!-- Creator: CorelDRAW X7 -->

<svg
   xmlns:dc="http://purl.org/dc/elements/1.1/"
   xmlns:cc="http://creativecommons.org/ns#"
   xmlns:rdf="http://www.w3.org/1999/02/22-rdf-syntax-ns#"
   xmlns:svg="http://www.w3.org/2000/svg"
   xmlns="http://www.w3.org/2000/svg"
   xmlns:sodipodi="http://sodipodi.sourceforge.net/DTD/sodipodi-0.dtd"
   xmlns:inkscape="http://www.inkscape.org/namespaces/inkscape"
   xml:space="preserve"
   width="7.8740005in"
   height="7.8740005in"
   version="1.1"
   style="clip-rule:evenodd;fill-rule:evenodd;image-rendering:optimizeQuality;shape-rendering:geometricPrecision;text-rendering:geometricPrecision"
   viewBox="0 0 7874.0005 7874.0005"
   id="svg3871"
   inkscape:version="0.91 r13725"
   sodipodi:docname="PanOceania - Dragoes, Acontecimento Dragoons - [N3] [Vyo].svg"><metadata
     id="metadata3919"><rdf:RDF><cc:Work
         rdf:about=""><dc:format>image/svg+xml</dc:format><dc:type
           rdf:resource="http://purl.org/dc/dcmitype/StillImage" /></cc:Work></rdf:RDF></metadata><sodipodi:namedview
     pagecolor="#ffffff"
     bordercolor="#666666"
     borderopacity="1"
     objecttolerance="10"
     gridtolerance="10"
     guidetolerance="10"
     inkscape:pageopacity="0"
     inkscape:pageshadow="2"
     inkscape:window-width="640"
     inkscape:window-height="480"
     id="namedview3917"
     showgrid="false"
     inkscape:zoom="0.23838384"
     inkscape:cx="736.83001"
     inkscape:cy="849.33005"
     inkscape:window-x="0"
     inkscape:window-y="0"
     inkscape:window-maximized="0"
     inkscape:current-layer="svg3871" /><defs
     id="defs3873"><style
       type="text/css"
       id="style3875"><![CDATA[
    .fil4 {fill:none}
    .fil0 {fill:#009FE1}
    .fil1 {fill:white}
    .fil2 {fill:white}
    .fil3 {fill:#A0D211;fill-rule:nonzero}
    .fil5 {fill:white;fill-rule:nonzero}
   ]]></style></defs><g
     id="Layer_x0020_1"
     transform="translate(3937,-7063)"><metadata
       id="CorelCorpID_0Corel-Layer" /><circle
       class="fil0"
       cy="11000"
       r="3937"
       id="circle3879"
       cx="0"
       style="fill:#009fe1" /><circle
       class="fil1"
       cy="11000"
       r="3858"
       id="circle3881"
       cx="0"
       style="fill:#ffffff" /><circle
       class="fil0"
       cy="11000"
       r="3425"
       id="circle3883"
       cx="0"
       style="fill:#009fe1" /><g
       id="_883898480"><path
         class="fil2"
         d="m 2949,9201 9,19 c 12,-20 31,-38 59,-53 50,-27 103,-31 148,7 38,32 79,108 102,151 18,36 39,75 52,113 9,27 13,53 7,80 -7,39 -34,60 -66,80 l -36,23 -4,-8 c -11,22 -32,42 -63,59 -50,26 -101,32 -146,-3 -43,-32 -86,-114 -111,-160 -20,-37 -42,-79 -55,-119 -9,-28 -12,-56 -5,-85 4,-15 9,-27 17,-38 l -53,37 -110,-154 5,-4 c -27,-18 -50,-46 -70,-74 -36,-50 -68,-105 -56,-168 2,-12 5,-24 10,-35 5,-12 12,-23 21,-33 -35,24 -75,33 -117,15 -50,-19 -114,-86 -150,-124 -29,-31 -61,-65 -84,-100 -16,-26 -27,-51 -28,-81 0,-17 3,-33 9,-47 -26,16 -56,21 -89,13 -51,-13 -124,-70 -165,-103 -33,-27 -70,-56 -97,-88 -20,-23 -34,-46 -39,-76 -3,-22 -1,-41 6,-59 -12,11 -26,20 -41,26 -34,13 -68,8 -102,-2 -43,-14 -87,-39 -126,-61 -51,-29 -120,-69 -144,-125 -23,-54 -3,-105 23,-153 l -166,-64 16,-39 c 1,-3 3,-10 4,-14 -5,-4 -15,-9 -20,-10 -6,-3 -22,-7 -29,-4 -11,9 -22,40 -26,51 l -61,159 -173,-66 c -4,8 -8,16 -14,25 -24,38 -65,62 -109,67 -54,6 -115,-7 -167,-19 -62,-14 -142,-32 -182,-87 -15,-22 -23,-45 -25,-69 -18,38 -54,67 -96,78 -52,13 -114,10 -168,6 -64,-5 -145,-11 -192,-59 -29,-30 -39,-65 -40,-105 l -176,14 0,-4 c -37,16 -97,19 -134,22 -100,7 -178,-8 -187,-124 -2,-33 2,-64 16,-88 l -13,0 0,-42 c 0,-56 17,-93 64,-124 46,-29 143,-36 196,-40 48,-3 118,-12 162,13 8,5 15,10 22,16 l 1,1 0,0 c 38,34 44,78 47,126 l 7,91 c -1,-22 0,-44 2,-66 6,-76 21,-142 99,-169 42,-14 105,-11 148,-8 37,3 71,6 99,19 l 0,-3 190,14 -18,243 c 2,-18 6,-36 10,-54 17,-73 42,-136 123,-152 43,-8 105,5 147,14 36,8 69,17 95,34 l 1,-4 186,42 -65,282 101,-262 178,68 -2,6 c 28,-1 57,6 87,18 46,18 93,46 109,96 l 1,1 c 10,36 2,72 -10,106 26,-38 58,-70 110,-75 64,-6 134,36 187,66 33,19 70,40 100,64 22,18 39,37 50,62 26,60 -1,119 -31,172 -3,4 -5,9 -8,13 l 13,11 c 3,-23 13,-47 33,-72 35,-44 82,-69 139,-52 47,14 115,68 153,99 31,25 66,53 92,82 19,22 34,44 39,71 9,39 -7,69 -29,100 l -24,35 -7,-5 c -1,13 -4,27 -11,41 l 13,13 c 7,-26 23,-48 42,-66 42,-39 91,-57 145,-33 45,21 104,83 138,119 28,29 58,61 80,95 16,23 27,48 28,75 4,40 -16,67 -42,95 l -28,31 -7,-6 c -4,20 -13,38 -26,54 12,-10 24,-18 35,-26 l 149,-106 114,160 -149,106 c -5,4 -32,23 -34,30 -1,8 20,37 24,43 6,9 25,35 36,38 12,3 45,-23 54,-29 l 135,-97 114,161 -176,125 z M 534,7642 l -4,55 c 0,7 -1,13 -1,19 l 27,6 c -17,-25 -22,-52 -22,-80 z m -516,-51 6,83 28,2 c -22,-25 -31,-54 -34,-85 z m -1116,99 -49,-171 182,-53 2,6 c 22,-17 49,-29 81,-38 47,-14 102,-20 145,10 l 1,1 c 34,25 48,63 60,102 l 17,58 -183,53 -12,-41 c 0,-2 -2,-9 -4,-13 -7,0 -18,3 -23,4 -6,2 -21,8 -25,15 -4,13 7,45 10,57 l 47,163 -189,55 -26,-91 c 1,15 0,29 -5,44 -10,34 -35,58 -64,78 -38,25 -84,45 -126,62 -55,22 -128,51 -188,36 -29,-8 -50,-25 -67,-45 7,24 9,49 3,73 -15,63 -86,104 -139,134 -31,17 -61,33 -92,38 l 67,118 -172,97 -63,-113 -135,119 -123,-140 c -5,-7 -21,-25 -29,-31 0,0 0,0 0,0 -7,0 -28,17 -33,21 -6,6 -26,24 -26,33 0,11 26,40 33,48 l 112,127 -148,130 -123,-140 c -6,-6 -22,-26 -29,-31 -8,1 -26,15 -32,20 -6,6 -27,26 -28,34 0,10 28,42 34,48 l 112,128 -148,129 -260,-295 142,-126 5,5 c 14,-27 37,-52 61,-73 40,-36 84,-62 132,-63 6,-47 37,-86 77,-121 44,-39 94,-72 155,-66 65,5 100,46 141,93 l 68,77 -153,-271 166,-93 2,4 c 24,-27 57,-47 91,-66 51,-29 116,-63 175,-48 46,10 75,45 99,83 -19,-50 -30,-102 2,-152 34,-54 111,-83 168,-106 35,-15 74,-31 112,-39 27,-6 52,-8 79,-1 62,16 91,70 113,124 z m -1802,1415 c -3,-3 -6,-5 -9,-8 -51,-39 -102,-82 -99,-152 4,-64 55,-127 93,-176 24,-30 50,-63 78,-89 21,-19 42,-33 69,-41 63,-17 117,19 165,56 6,5 12,10 18,15 l 1,-1 25,23 10,9 0,1 c 21,20 39,44 46,74 8,35 -2,68 -17,100 -20,40 -51,80 -79,116 -36,46 -85,108 -145,124 -34,9 -64,3 -92,-10 32,28 52,63 48,113 -3,26 -14,54 -25,78 -20,47 -44,93 -68,138 -23,44 -47,91 -75,132 -17,25 -36,50 -61,67 -54,35 -104,18 -157,-10 l -54,-28 18,-34 0,0 c -42,10 -84,-5 -121,-24 -51,-27 -107,-69 -109,-133 0,-31 8,-57 19,-86 21,-51 49,-102 74,-151 21,-41 44,-84 70,-122 17,-24 35,-46 60,-61 l 0,-1 1,0 c 49,-29 99,-15 147,10 7,4 14,8 20,12 l 31,19 -8,15 c 43,-12 84,3 126,25 z m -187,367 c 0,0 0,1 0,1 7,-10 19,-31 29,-50 -8,13 -15,26 -22,38 -2,4 -5,8 -7,11 z m 1377,-1448 c -2,-9 -13,-27 -16,-33 -2,-5 -11,-19 -16,-23 -10,0 -45,19 -53,24 -9,5 -49,28 -54,38 0,7 11,27 14,32 2,4 11,20 16,22 11,2 49,-20 58,-24 10,-6 42,-25 51,-36 z M 219,7510 c -2,4 -4,19 -4,23 0,5 -1,22 1,27 8,6 50,10 60,10 13,1 51,3 65,-1 2,-6 3,-20 3,-25 1,-5 2,-19 0,-25 -14,-6 -44,-10 -58,-11 -10,0 -57,-4 -67,2 z m 527,72 c -4,4 -7,18 -8,23 -1,4 -5,21 -3,26 7,8 49,17 58,20 12,2 50,10 64,7 3,-5 6,-19 7,-23 1,-5 5,-19 4,-26 -13,-8 -42,-15 -56,-18 -10,-3 -56,-13 -66,-9 z"
         id="path3886"
         inkscape:connector-curvature="0"
         style="fill:#ffffff" /></g><path
       class="fil3"
       d="m -3175,9620 19,10 c 56,29 85,32 117,11 30,-21 61,-67 122,-185 62,-122 84,-173 86,-202 5,-47 -21,-79 -88,-114 -57,-29 -89,-32 -122,-12 -27,17 -44,42 -113,168 -47,85 -65,115 -73,124 -10,10 -20,11 -34,4 -29,-15 -28,-25 25,-126 46,-91 54,-104 67,-109 9,-4 15,-3 35,7 l 60,-117 c -7,-4 -16,-8 -18,-10 -49,-25 -80,-27 -109,-10 -31,20 -58,59 -114,169 -74,143 -88,179 -87,219 1,35 30,67 88,98 40,20 69,26 95,20 29,-7 52,-31 83,-87 6,-13 29,-52 53,-94 24,-42 46,-80 52,-93 21,-38 31,-44 55,-32 17,8 24,17 23,28 -1,14 -7,28 -54,119 -44,85 -52,97 -65,105 -10,6 -19,5 -43,-8 l -60,117 z"
       id="path3888"
       inkscape:connector-curvature="0"
       style="fill:#a0d211;fill-rule:nonzero" /><path
       id="1"
       class="fil3"
       d="m -2651,8860 c 19,21 14,35 -32,94 -26,33 -45,51 -60,55 -14,3 -24,-1 -50,-20 l 191,-242 c -10,-9 -22,-18 -25,-21 -58,-45 -93,-59 -130,-49 -35,10 -62,35 -126,117 -63,80 -83,115 -85,153 -2,40 17,67 83,119 63,50 94,62 131,52 35,-9 68,-38 124,-110 105,-132 114,-180 51,-240 l -72,92 z m -192,89 c -34,-28 -30,-49 19,-112 28,-36 47,-52 63,-54 10,-1 15,2 35,16 l -117,150 z"
       inkscape:connector-curvature="0"
       style="fill:#a0d211;fill-rule:nonzero" /><path
       id="2"
       class="fil3"
       d="m -2679,8533 209,236 88,-79 -86,-97 c -34,-39 -44,-56 -44,-75 2,-18 16,-39 41,-62 25,-22 45,-32 61,-31 16,2 23,7 56,44 l 98,110 88,-78 -87,-97 c -34,-38 -43,-55 -43,-75 1,-18 13,-38 39,-61 26,-23 45,-33 62,-32 16,1 21,5 56,44 l 98,110 88,-78 -98,-111 c -54,-60 -75,-75 -115,-79 -39,-3 -76,14 -125,57 -58,52 -74,91 -58,140 -50,-18 -94,-4 -151,46 -51,46 -70,86 -58,126 l -4,4 -32,-36 -83,74 z"
       inkscape:connector-curvature="0"
       style="fill:#a0d211;fill-rule:nonzero" /><path
       id="3"
       class="fil3"
       d="m -1831,8387 102,-58 -85,-150 4,-2 c 39,21 71,15 140,-24 136,-78 150,-117 82,-236 -40,-69 -61,-92 -95,-99 -35,-9 -76,4 -147,45 -79,45 -101,72 -100,116 l -5,2 -22,-36 -96,55 222,387 z m 14,-430 c 73,-42 93,-40 123,13 21,37 25,54 17,69 -6,14 -29,32 -66,54 -76,43 -97,41 -128,-12 -34,-61 -28,-77 54,-124 z"
       inkscape:connector-curvature="0"
       style="fill:#a0d211;fill-rule:nonzero" /><path
       id="4"
       class="fil3"
       d="m -1219,7815 c 6,28 -6,38 -75,66 -39,16 -64,22 -79,18 -14,-4 -21,-13 -33,-42 l 286,-116 c -5,-13 -10,-26 -12,-30 -28,-69 -52,-98 -89,-107 -34,-9 -71,-1 -167,38 -94,39 -129,60 -149,91 -22,34 -19,67 13,145 30,74 50,100 88,111 34,9 77,0 162,-35 156,-63 188,-99 164,-183 l -109,44 z m -211,-18 c -15,-41 -2,-58 72,-88 42,-17 67,-22 81,-15 10,4 13,9 23,31 l -176,72 z"
       inkscape:connector-curvature="0"
       style="fill:#a0d211;fill-rule:nonzero" /><path
       id="5"
       class="fil3"
       d="m -1099,7546 88,303 114,-33 -37,-126 c -14,-46 -15,-64 -9,-82 7,-16 26,-31 51,-38 24,-7 43,-7 54,-1 9,6 15,16 22,37 l 0,3 1,0 106,-31 -5,-20 c -14,-45 -26,-67 -47,-82 -25,-18 -61,-19 -111,-4 -64,18 -91,42 -101,87 l -6,2 -13,-46 -107,31 z"
       inkscape:connector-curvature="0"
       style="fill:#a0d211;fill-rule:nonzero" /><path
       id="6"
       class="fil3"
       d="m -326,7490 c 1,-29 9,-33 94,-40 71,-5 81,1 85,50 l 1,16 -5,1 c -21,-19 -37,-22 -91,-18 -85,7 -118,12 -145,22 -45,16 -64,49 -59,105 6,75 40,95 145,87 77,-7 107,-12 126,-22 20,-11 31,-22 39,-43 l 5,0 3,43 113,-9 -15,-190 c -5,-57 -13,-80 -35,-100 -29,-24 -53,-27 -156,-19 -98,8 -152,19 -177,35 -34,22 -46,46 -46,91 l 118,-9 z m 85,76 c 51,-4 70,-5 77,-2 13,3 21,12 22,24 2,28 -21,38 -104,45 -62,5 -81,-1 -83,-26 -1,-12 4,-21 15,-28 9,-5 35,-10 73,-13 z"
       inkscape:connector-curvature="0"
       style="fill:#a0d211;fill-rule:nonzero" /><path
       id="7"
       class="fil3"
       d="m 404,7400 -4,41 -5,-1 c -21,-41 -48,-53 -130,-60 -62,-5 -107,-3 -132,5 -48,16 -67,50 -74,134 -6,81 1,114 32,140 25,22 66,32 146,39 78,6 107,-2 134,-38 l 5,0 -2,28 c -4,44 -7,54 -19,65 -15,15 -38,18 -100,13 -62,-5 -79,-13 -83,-37 l -1,-4 -120,-10 c 0,38 8,63 28,84 27,28 68,40 167,48 74,6 119,5 155,-4 32,-8 59,-30 72,-59 12,-25 13,-33 18,-86 l 24,-289 -111,-9 z m -113,71 c 35,3 62,9 75,16 17,10 21,26 18,63 -2,33 -8,46 -22,55 -15,8 -45,10 -88,6 -87,-7 -102,-19 -97,-80 4,-58 23,-67 114,-60 z"
       inkscape:connector-curvature="0"
       style="fill:#a0d211;fill-rule:nonzero" /><path
       id="8"
       class="fil3"
       d="m 942,7497 -9,40 -5,-1 c -15,-44 -40,-60 -120,-78 -61,-14 -106,-18 -131,-13 -50,9 -74,40 -92,122 -18,79 -15,114 12,144 22,24 60,41 139,58 76,17 106,13 138,-19 l 5,1 -6,27 c -10,43 -14,52 -28,62 -17,13 -40,12 -101,-1 -60,-14 -76,-24 -77,-48 l -1,-4 -117,-26 c -5,37 0,63 16,86 23,32 62,49 159,71 72,17 118,22 154,18 33,-4 63,-22 80,-49 15,-23 17,-31 29,-83 l 64,-283 -109,-24 z m -121,55 c 34,8 60,18 72,27 15,12 18,28 10,64 -8,32 -15,44 -30,51 -16,6 -46,4 -89,-5 -84,-19 -98,-34 -85,-93 13,-57 33,-64 122,-44 z"
       inkscape:connector-curvature="0"
       style="fill:#a0d211;fill-rule:nonzero" /><path
       id="9"
       class="fil3"
       d="m 1158,7563 -113,294 110,43 47,-122 c 17,-46 27,-61 43,-71 16,-9 39,-9 63,0 23,9 39,21 44,33 3,10 3,22 -5,42 l -1,3 -1,0 104,40 8,-20 c 17,-43 20,-68 13,-92 -9,-30 -37,-53 -86,-72 -62,-23 -98,-21 -133,8 l -6,-2 17,-44 -104,-40 z"
       inkscape:connector-curvature="0"
       style="fill:#a0d211;fill-rule:nonzero" /><path
       id="10"
       class="fil3"
       d="m 1744,8070 c -18,23 -33,20 -98,-17 -37,-21 -57,-37 -63,-51 -6,-13 -3,-24 12,-52 l 268,152 c 8,-11 15,-24 17,-28 36,-64 44,-101 29,-136 -15,-32 -44,-56 -134,-107 -89,-50 -127,-64 -164,-61 -40,5 -65,27 -106,101 -39,69 -47,102 -32,137 15,33 48,61 128,106 146,83 195,86 245,14 l -102,-58 z m -117,-176 c 23,-38 44,-37 113,2 40,23 59,39 63,54 3,10 1,16 -10,38 l -166,-94 z"
       inkscape:connector-curvature="0"
       style="fill:#a0d211;fill-rule:nonzero" /><path
       id="11"
       class="fil3"
       d="m 1908,8162 c -22,29 -29,51 -25,76 6,38 32,68 122,139 71,57 120,88 150,95 35,9 66,-4 95,-41 44,-55 34,-98 -37,-155 -95,-77 -110,-89 -124,-102 -15,-13 -18,-24 -10,-34 12,-16 34,-6 92,40 31,24 48,42 52,53 2,4 1,8 -3,16 l 94,75 c 22,-31 27,-48 22,-69 -6,-34 -33,-64 -117,-131 -67,-53 -113,-83 -140,-91 -36,-11 -67,2 -97,39 -42,53 -30,98 39,155 90,71 113,91 125,102 12,12 15,25 7,35 -14,18 -36,9 -96,-39 -57,-46 -70,-66 -55,-89 l -94,-74 z"
       inkscape:connector-curvature="0"
       style="fill:#a0d211;fill-rule:nonzero" /><path
       id="12"
       class="fil3"
       d="m 2300,8472 c -26,26 -36,47 -35,73 1,37 23,71 102,154 63,66 107,103 136,114 33,14 65,5 99,-28 51,-48 47,-92 -16,-159 -84,-88 -96,-103 -109,-117 -12,-15 -14,-27 -5,-35 15,-14 35,-2 86,51 27,29 42,49 44,60 1,5 0,8 -5,16 l 83,87 c 26,-28 34,-44 32,-65 -2,-35 -25,-68 -99,-146 -59,-62 -101,-98 -127,-109 -34,-16 -66,-7 -100,25 -49,47 -44,93 17,159 80,83 100,105 110,118 11,14 11,27 2,36 -16,15 -37,3 -89,-52 -51,-53 -61,-75 -43,-95 l -83,-87 z"
       inkscape:connector-curvature="0"
       style="fill:#a0d211;fill-rule:nonzero" /><path
       id="13"
       class="fil3"
       d="m 2816,9248 255,-185 -69,-96 -102,74 c -48,35 -64,41 -85,36 -19,-4 -36,-19 -60,-53 -26,-35 -34,-53 -31,-72 3,-18 12,-28 49,-55 l 117,-85 -69,-95 -117,84 c -69,50 -85,69 -92,110 -7,39 7,78 50,137 46,64 80,86 123,77 l 4,5 -38,27 65,91 z"
       inkscape:connector-curvature="0"
       style="fill:#a0d211;fill-rule:nonzero" /><path
       id="14"
       class="fil3"
       d="m 2932,9254 c -32,18 -48,35 -54,60 -9,37 3,75 56,177 43,80 75,128 100,147 29,22 62,22 103,0 62,-33 70,-76 28,-157 -56,-108 -65,-126 -73,-143 -7,-18 -6,-29 5,-35 18,-10 34,8 68,73 19,35 27,58 27,70 0,4 -2,7 -9,14 l 56,106 c 32,-20 44,-34 48,-54 8,-35 -5,-73 -55,-167 -40,-76 -71,-122 -92,-140 -29,-24 -63,-25 -104,-3 -60,31 -67,77 -27,157 54,102 68,129 74,143 6,17 3,30 -8,36 -20,10 -36,-7 -72,-74 -34,-65 -38,-89 -15,-104 l -56,-106 z"
       inkscape:connector-curvature="0"
       style="fill:#a0d211;fill-rule:nonzero" /><circle
       class="fil4"
       cy="11000"
       r="3898"
       id="circle3904"
       cx="0"
       style="fill:none" /><g
       id="_883899280"><path
         class="fil2"
         d="m 3125,11969 c -1,-1 -2,-3 -2,-4 -9,-19 -13,-39 -13,-60 0,-19 2,-38 7,-56 l 39,-171 c 4,-19 10,-37 18,-54 9,-18 22,-35 38,-48 17,-15 39,-25 62,-29 25,-5 52,-3 78,3 l 73,17 c 25,6 51,15 72,31 18,14 33,32 43,53 8,19 12,39 12,60 0,19 -2,38 -6,56 l -39,171 c -5,19 -11,37 -19,54 -9,18 -22,34 -37,48 -18,15 -39,24 -62,29 -1,0 -2,0 -2,0 12,14 22,29 29,48 16,43 7,90 -10,131 l -16,44 c -8,19 -17,37 -28,54 -11,17 -25,32 -42,44 -18,13 -39,20 -61,22 -24,2 -48,-3 -71,-12 l -78,-31 -4,10 c 4,2 7,3 10,5 l 194,100 -90,174 -194,-100 c -1,0 -1,0 -1,0 -7,4 -19,23 -22,29 l -12,24 c -5,10 -11,23 -8,34 1,8 8,12 14,15 l 175,91 -90,174 -63,-33 c 0,1 1,2 1,3 9,21 11,43 8,65 -4,21 -11,41 -20,60 -10,20 -22,39 -35,58 l -51,71 c -13,19 -28,37 -44,53 -17,16 -37,29 -59,37 -20,8 -41,10 -62,8 l 63,66 -141,135 -143,-149 c -3,-3 -7,-7 -11,-10 -9,5 -25,19 -31,25 -5,5 -21,22 -25,30 2,3 5,6 6,7 l 146,153 -141,135 -150,-155 c -1,-1 -3,-3 -4,-5 -2,2 -5,3 -6,4 -10,8 -20,17 -29,26 -5,4 -18,18 -20,26 1,3 7,10 10,13 l 141,147 -142,136 -54,-57 40,51 -155,120 -52,-66 c 1,5 2,9 2,14 2,23 -2,45 -11,65 -9,18 -21,35 -35,49 -14,15 -30,27 -47,38 l -100,65 c -19,12 -39,23 -60,32 -22,9 -46,14 -69,13 -24,0 -46,-7 -66,-19 0,5 0,10 -1,15 -2,22 -12,43 -26,60 -13,16 -30,30 -47,41 -19,13 -39,23 -60,33 l -80,36 c -21,9 -42,17 -64,23 -23,5 -47,6 -70,2 -25,-4 -47,-15 -66,-31 -2,18 -7,36 -18,54 -23,39 -65,62 -107,76 l -44,15 c -19,6 -40,11 -60,13 -20,2 -40,1 -60,-4 -22,-6 -40,-18 -56,-34 -17,-17 -28,-39 -36,-61 l -26,-80 -3,1 c 1,3 1,7 2,11 l 37,215 -193,33 -37,-215 c 0,0 0,0 0,-1 -8,-3 -30,0 -37,1 l -27,5 c -10,1 -24,5 -32,14 -4,5 -4,14 -3,21 l 34,193 -193,34 -14,-80 c -1,2 -2,4 -3,6 -9,22 -22,41 -41,55 -16,12 -35,21 -55,27 -18,4 -37,7 -56,7 l -175,4 c -19,0 -38,-2 -56,-5 -21,-5 -39,-13 -56,-25 -19,-13 -34,-32 -44,-53 0,0 0,-1 0,-2 -2,4 -4,7 -6,10 -12,19 -29,35 -48,45 -18,9 -38,15 -58,18 -20,3 -40,4 -60,2 l -119,-9 c -23,-1 -46,-5 -68,-10 -23,-6 -44,-17 -62,-31 -8,-7 -15,-14 -21,-21 l 16,70 -232,-65 -19,-87 -219,-61 -60,65 -232,-65 412,-426 215,60 86,367 2,-27 c 2,-28 7,-58 18,-84 11,-23 25,-43 46,-57 19,-14 40,-22 63,-26 23,-3 46,-4 70,-2 l 131,10 c 44,3 89,14 124,42 12,10 21,21 28,33 8,-12 18,-23 30,-32 16,-13 34,-22 55,-27 18,-5 37,-7 56,-8 l 175,-3 c 19,-1 38,1 56,5 21,4 39,12 56,24 1,1 2,2 3,2 l -5,-31 193,-33 1,6 c 26,-13 55,-21 83,-26 23,-4 46,-7 69,-8 23,-1 46,2 68,8 1,0 1,1 2,1 l -4,-12 56,-18 -23,-70 186,-61 23,69 173,-57 13,40 c 1,-3 2,-7 4,-10 10,-21 25,-38 43,-52 18,-14 39,-26 60,-36 l 75,-33 c 27,-12 55,-24 84,-31 24,-6 49,-8 74,-3 11,2 21,6 31,10 1,-7 3,-14 5,-21 7,-22 19,-41 34,-58 16,-17 35,-31 55,-44 l 111,-72 c 36,-23 79,-42 123,-41 10,1 19,2 27,4 l -108,-139 155,-120 87,113 115,-110 3,4 c 10,-20 25,-38 41,-53 l 32,-31 c 32,-30 68,-47 107,-48 0,-9 1,-18 3,-27 7,-32 31,-60 53,-82 l 26,-25 c 36,-34 83,-65 135,-62 0,0 1,0 2,0 -5,-11 -7,-23 -8,-35 -2,-23 2,-45 10,-67 9,-21 21,-42 35,-61 l 47,-66 c 17,-24 36,-49 57,-69 18,-17 38,-32 62,-40 l -18,-10 90,-174 6,3 c 5,-28 16,-57 30,-82 10,-20 22,-40 34,-59 14,-20 30,-36 49,-50 5,-3 10,-7 15,-9 l -22,-9 21,-55 -68,-26 71,-183 68,27 66,-170 30,11 z m 110,79 -54,139 65,25 c 1,-2 1,-4 2,-6 1,-2 2,-5 3,-8 l -54,-21 49,-126 -8,-2 c -1,0 -2,0 -3,-1 z m -2055,2137 -142,47 22,66 c 2,-1 4,-2 5,-2 2,-1 6,-2 9,-3 l -19,-55 129,-43 c -1,-3 -3,-7 -4,-10 z m -1451,199 c -7,-3 -22,-4 -28,-5 l -45,-3 c -7,-1 -25,-1 -33,2 0,1 0,3 0,4 l -3,41 c 0,2 -1,7 0,10 5,3 16,4 22,5 l 59,4 c 7,1 16,1 24,0 l 1,-17 0,0 3,-40 c 0,0 0,-1 0,-1 z m 2100,-524 c -7,2 -20,10 -25,13 l -38,25 c -6,3 -21,14 -25,21 1,1 2,3 2,3 l 23,35 c 1,2 4,6 6,8 6,-1 16,-6 20,-9 l 51,-33 c 5,-3 13,-9 18,-14 l -31,-48 c 0,0 0,-1 -1,-1 z m -3591,-83 c 18,-10 39,-15 60,-13 19,2 38,7 56,14 20,8 39,18 57,29 l 71,41 c 28,17 57,34 83,54 18,14 37,32 49,52 11,19 17,41 13,63 -3,20 -11,40 -21,57 l -19,36 -4,-2 c 1,11 0,22 -3,34 -5,17 -13,33 -21,48 -11,19 -25,38 -42,52 -18,14 -39,22 -61,22 -23,1 -46,-5 -67,-13 -28,-11 -55,-26 -81,-41 l -96,-56 c -37,-21 -84,-53 -104,-94 -8,-18 -11,-37 -10,-55 -2,1 -5,2 -7,4 -21,8 -43,11 -66,7 -21,-3 -41,-10 -59,-20 -21,-10 -40,-22 -58,-35 l -72,-51 c -19,-13 -36,-27 -52,-44 -17,-17 -29,-36 -38,-59 -9,-25 -10,-52 -5,-79 1,-1 1,-1 1,-2 -3,1 -5,2 -8,4 -21,8 -44,12 -67,9 -21,-2 -40,-9 -58,-19 -16,-10 -31,-21 -45,-34 l -127,-121 c -14,-13 -26,-28 -37,-43 -11,-18 -19,-37 -22,-57 -4,-23 -2,-46 6,-68 1,-2 1,-4 2,-6 l -23,18 c -16,13 -33,24 -52,32 -21,8 -43,11 -66,8 -26,-3 -50,-15 -72,-30 -26,-18 -50,-44 -70,-69 l -80,-102 c -24,-31 -47,-69 -49,-109 -2,-35 14,-64 38,-87 l -8,4 -94,-165 1,-1 c -5,-5 -10,-11 -15,-18 -8,-11 -15,-23 -21,-34 l -40,-70 c -18,-32 -35,-70 -32,-108 2,-42 31,-72 66,-91 l 22,-13 c 5,-3 11,-6 16,-9 l -55,-123 36,-16 c 3,-2 11,-6 15,-9 -1,-5 -3,-11 -5,-14 -3,-8 -9,-19 -16,-23 -2,-1 -6,1 -8,2 l -193,87 -80,-179 99,-45 c -26,-1 -52,-8 -75,-23 -48,-32 -74,-95 -90,-149 l -123,-431 501,-144 123,431 c 16,54 28,121 3,174 -13,30 -37,52 -64,68 l 59,130 -6,3 c 18,19 31,41 42,65 18,39 28,84 12,126 -2,4 -4,8 -6,11 14,2 27,5 40,12 18,10 33,25 45,41 15,18 27,39 39,59 l 67,119 c 21,37 35,79 25,122 -1,7 -4,15 -6,21 11,0 23,1 35,4 44,11 81,47 108,83 l 43,53 c 8,12 17,23 24,35 4,7 7,13 10,20 l 2,-1 116,149 -20,15 c 2,0 4,1 5,1 21,2 40,9 58,19 17,10 32,22 45,35 l 128,120 c 13,13 26,28 36,44 11,17 19,36 23,56 2,14 2,27 0,41 9,-3 19,-5 28,-6 23,-2 46,2 67,11 22,8 42,20 61,34 l 67,47 c 24,17 48,36 68,57 18,18 32,39 41,62 4,12 6,24 7,36 z m -1142,-773 -28,16 17,21 c 2,-13 5,-25 11,-37 z m -306,-1266 -134,39 55,193 c 2,7 10,29 16,33 6,3 28,-2 34,-4 l 58,-17 c 6,-1 27,-8 31,-14 3,-7 -2,-30 -4,-36 l -56,-194 z m 556,1440 c 6,-1 14,-8 17,-10 4,-3 12,-10 16,-15 -3,-7 -13,-21 -16,-25 l -36,-46 c -4,-4 -14,-17 -21,-21 -5,2 -14,8 -18,11 -3,3 -11,9 -14,14 2,8 12,21 16,26 l 35,45 c 4,5 15,17 21,21 z m 315,365 c 2,-2 5,-5 6,-6 l 29,-31 c 2,-2 4,-4 6,-7 -2,-2 -4,-5 -5,-7 -9,-10 -19,-21 -29,-30 l -21,-19 c -6,-6 -23,-21 -32,-23 -3,1 -8,6 -10,8 l -20,21 c -2,2 -7,8 -8,11 2,9 18,25 24,31 l 21,19 c 9,10 20,20 31,27 2,2 5,4 8,6 z m 1509,681 -32,34 42,12 -10,-46 z m 1030,227 c 0,-3 0,-6 0,-8 l -1,-43 c 0,-2 0,-6 -1,-9 -3,0 -6,-1 -8,-1 -14,-1 -29,-1 -42,-1 l -28,1 c -9,0 -32,1 -39,6 -2,3 -2,11 -2,13 l 1,30 c 0,2 0,10 2,12 8,5 30,6 39,5 l 28,0 c 13,0 28,-1 41,-3 2,0 7,-1 10,-2 z m 3173,-2695 c -2,-1 -6,-1 -8,-2 l -41,-9 c -2,-1 -6,-1 -9,-2 -1,3 -2,6 -3,8 -5,13 -8,27 -11,41 l -7,27 c -2,9 -6,31 -3,39 2,2 10,4 13,5 l 28,7 c 3,0 11,2 13,1 7,-7 12,-28 14,-37 l 7,-27 c 3,-13 6,-28 7,-41 0,-2 0,-6 0,-10 z"
         id="path3907"
         inkscape:connector-curvature="0"
         style="fill:#ffffff" /></g><path
       class="fil3"
       d="m -3540,11651 113,393 c 19,65 43,107 74,127 30,20 72,22 125,7 l 129,-37 c 53,-15 88,-39 103,-72 15,-33 13,-82 -5,-147 l -113,-393 -426,122 z m 357,38 67,232 c 8,28 8,50 1,65 -8,14 -26,26 -55,34 l -58,17 c -29,8 -51,8 -65,0 -14,-9 -25,-27 -34,-56 l -66,-231 210,-61 z m -164,603 48,107 157,-71 c 16,-8 31,-8 44,0 13,8 23,21 32,40 9,21 12,36 6,47 -5,11 -17,20 -36,29 l 42,92 c 1,0 3,-1 5,-2 10,-3 16,-6 20,-8 40,-18 64,-39 74,-64 10,-25 7,-56 -11,-95 -12,-27 -27,-47 -44,-62 -17,-15 -38,-20 -61,-16 l -1,-1 54,-24 -45,-101 -284,129 z m 235,311 c -29,17 -45,36 -46,59 -1,24 8,52 27,87 l 40,69 c 7,13 14,24 19,31 6,8 11,14 17,19 6,4 13,8 21,11 7,3 17,6 29,9 l -31,17 55,97 178,-101 c 32,-18 51,-41 57,-69 6,-27 -1,-59 -21,-94 l -67,-118 c -13,-23 -25,-42 -36,-55 -10,-14 -21,-24 -33,-30 -12,-6 -24,-9 -38,-7 -14,2 -30,8 -48,18 l 56,99 c 9,-5 17,-5 22,-2 6,4 13,13 22,29 l 34,60 c 11,19 16,34 14,43 -1,9 -9,18 -23,25 l -24,14 c 5,-15 4,-30 -2,-47 -6,-16 -18,-40 -36,-72 -17,-28 -30,-51 -42,-67 -11,-17 -22,-29 -34,-39 -12,-9 -25,-14 -39,-14 -14,0 -31,5 -49,15 l -22,13 z m 74,160 c -12,-20 -18,-35 -19,-45 0,-10 4,-18 13,-23 11,-6 21,-8 30,-3 9,4 19,17 31,37 l 26,45 c 15,27 23,45 23,54 1,10 -5,18 -16,24 -5,3 -10,5 -14,5 -4,0 -8,-2 -14,-5 -5,-4 -11,-11 -18,-20 -7,-9 -16,-23 -26,-40 l -16,-29 z m 218,199 c -34,27 -53,56 -56,87 -3,30 12,67 46,110 l 38,49 c 19,23 34,39 46,47 13,8 27,13 45,15 l -17,13 c -20,16 -38,22 -53,19 -16,-3 -32,-16 -48,-36 l -53,-67 c -12,-15 -11,-28 1,-37 l -74,-96 c -30,23 -43,47 -42,71 1,24 15,53 41,86 l 80,102 c 22,28 42,48 62,62 19,13 37,21 54,23 16,2 32,0 46,-6 14,-6 29,-14 43,-26 l 230,-180 -68,-87 -34,27 0,-1 c 3,-13 6,-24 7,-32 1,-8 0,-16 -1,-24 -2,-7 -6,-15 -11,-24 -5,-8 -12,-18 -21,-30 l -43,-54 c -30,-39 -59,-62 -87,-69 -28,-8 -60,3 -97,32 l -34,26 z m 79,174 c -18,-23 -26,-40 -25,-53 1,-13 11,-27 30,-42 19,-15 35,-22 48,-20 13,2 28,15 46,37 l 36,45 c 17,23 25,41 24,54 -1,13 -11,27 -30,42 -19,15 -35,21 -48,19 -13,-2 -28,-15 -46,-37 l -35,-45 z m 196,222 c -16,18 -28,35 -34,52 -6,17 -7,33 -5,48 3,15 9,29 17,42 9,13 19,25 31,36 l 127,121 c 12,12 25,21 38,29 13,8 27,12 43,14 15,2 31,0 48,-7 16,-7 33,-19 50,-37 l 51,-54 c 17,-17 28,-35 34,-52 6,-16 8,-33 5,-48 -3,-15 -8,-29 -17,-42 -8,-12 -18,-25 -31,-36 l -127,-121 c -12,-11 -24,-21 -38,-29 -13,-7 -27,-12 -42,-14 -16,-2 -32,0 -48,7 -17,7 -33,19 -50,37 l -52,54 z m 121,43 c 15,-16 30,-22 45,-20 15,3 33,14 53,33 l 21,19 c 14,14 25,25 32,34 8,9 12,17 14,24 2,7 2,14 -1,20 -2,7 -8,14 -15,22 l -30,31 c -7,8 -14,13 -20,16 -6,3 -13,4 -20,2 -7,-2 -15,-6 -25,-13 -9,-6 -21,-17 -35,-30 l -21,-19 c -20,-20 -32,-37 -35,-52 -4,-15 2,-30 17,-46 l 20,-21 z m 238,264 c -18,26 -30,50 -34,71 -4,21 -3,41 3,58 6,17 16,32 29,45 13,13 28,26 47,39 l 71,51 c 19,13 37,24 53,32 17,8 33,14 48,16 16,3 30,1 44,-5 14,-6 26,-16 37,-31 l 8,-11 -90,-64 c -3,5 -7,8 -10,11 -3,2 -8,3 -13,4 -5,0 -12,-2 -21,-6 -8,-3 -18,-10 -31,-19 l -29,-20 c -21,-15 -35,-28 -40,-40 -6,-11 -4,-24 5,-37 l 11,-15 232,165 31,-43 c 16,-22 26,-43 30,-61 5,-18 4,-35 -1,-51 -6,-16 -17,-31 -32,-47 -15,-16 -36,-34 -63,-53 l -67,-47 c -18,-13 -36,-23 -53,-30 -16,-6 -33,-9 -49,-8 -16,2 -33,8 -49,19 -16,12 -33,29 -49,53 l -18,24 z m 128,22 c 6,-8 12,-14 16,-17 5,-4 10,-5 17,-4 6,1 14,4 23,9 10,5 23,14 40,26 28,20 45,36 51,46 6,11 4,24 -7,39 l -140,-99 z m 213,271 c -19,33 -23,61 -11,85 11,24 41,50 88,77 l 96,56 c 30,18 55,30 75,38 20,8 37,12 51,11 14,0 27,-5 38,-14 11,-9 22,-22 33,-41 8,-14 14,-27 17,-39 3,-11 3,-23 -1,-36 -4,-13 -14,-27 -29,-42 -15,-14 -37,-30 -66,-47 l -71,-41 c -25,-15 -41,-26 -47,-32 -6,-7 -8,-13 -4,-19 5,-10 13,-13 22,-10 10,3 29,13 59,30 16,9 29,17 37,22 9,6 16,11 20,15 4,5 7,9 8,12 1,4 1,8 0,13 l 102,59 c 9,-17 15,-31 16,-44 2,-12 -1,-25 -8,-37 -7,-13 -20,-26 -39,-41 -19,-14 -45,-31 -79,-51 l -71,-41 c -19,-11 -36,-20 -52,-26 -16,-7 -30,-11 -44,-12 -14,-1 -27,2 -40,9 -12,7 -23,18 -32,34 -11,19 -18,36 -21,50 -3,15 -2,28 3,41 5,12 15,24 28,36 14,12 33,25 57,40 l 95,55 c 18,10 28,19 32,25 4,7 4,15 -1,23 -4,8 -11,11 -21,9 -9,-2 -26,-10 -51,-24 l -36,-21 c -13,-8 -24,-15 -32,-21 -8,-7 -13,-12 -16,-17 -3,-4 -5,-8 -4,-12 0,-3 2,-7 4,-11 l -105,-61 z m 631,423 146,40 59,-64 265,74 20,87 145,40 -115,-491 -170,-48 -350,362 z m 407,-239 40,183 -167,-46 127,-137 z m 271,265 c -3,32 0,58 7,79 7,20 18,36 32,48 14,11 31,19 48,24 18,4 38,7 61,9 l 119,9 c 18,1 35,1 51,-2 17,-2 32,-7 45,-14 14,-7 25,-17 34,-31 8,-13 13,-30 15,-50 l 2,-27 -114,-9 0,8 c -1,13 -8,21 -20,26 -12,5 -27,6 -46,5 l -59,-5 c -20,-1 -35,-6 -45,-15 -11,-9 -15,-23 -14,-42 l 4,-41 c 1,-17 8,-29 20,-35 12,-7 30,-9 55,-7 l 45,3 c 25,2 43,6 52,14 10,7 14,19 13,34 l 113,9 2,-28 c 3,-35 -7,-62 -30,-81 -23,-18 -57,-29 -102,-33 l -131,-10 c -23,-1 -43,-1 -61,2 -17,3 -33,9 -46,19 -14,9 -24,23 -33,41 -8,19 -13,42 -15,71 l -2,29 z m 460,57 c 0,25 4,45 12,61 8,16 18,29 30,38 13,9 27,15 42,18 15,3 30,5 47,4 l 175,-3 c 17,-1 33,-3 48,-7 15,-3 28,-10 40,-19 12,-10 22,-23 29,-39 7,-17 10,-37 10,-62 l -2,-74 c 0,-24 -4,-45 -12,-61 -8,-16 -18,-29 -30,-37 -13,-9 -27,-15 -42,-19 -15,-3 -30,-4 -47,-4 l -176,4 c -16,0 -32,2 -47,6 -15,4 -28,10 -40,20 -13,9 -22,22 -29,39 -7,16 -10,36 -10,61 l 2,74 z m 116,-54 c -1,-21 5,-37 18,-46 12,-8 33,-13 61,-14 l 28,0 c 19,-1 35,0 47,1 11,1 20,4 27,7 6,4 11,9 13,15 3,7 4,15 4,26 l 1,43 c 0,11 -1,20 -3,26 -2,6 -7,12 -13,15 -6,4 -15,7 -26,9 -12,2 -28,3 -47,3 l -28,1 c -28,0 -49,-3 -62,-12 -12,-8 -19,-23 -20,-45 l 0,-29 z m 392,150 115,-20 -27,-155 c -3,-21 1,-39 13,-53 11,-14 30,-23 55,-27 l 26,-5 c 50,-8 77,2 83,32 l 30,177 116,-20 -31,-177 c -5,-31 -15,-55 -28,-72 -14,-17 -30,-29 -48,-34 -18,-6 -37,-8 -55,-7 -19,1 -40,4 -64,8 -33,5 -58,14 -77,25 -18,11 -30,28 -36,50 l -1,0 -9,-49 -116,20 54,307 z m 484,-199 c 6,20 15,35 26,47 11,11 24,19 38,23 15,3 30,4 46,3 16,-2 33,-6 52,-12 l 44,-14 c 42,-15 71,-34 85,-59 15,-25 17,-53 8,-82 l -12,-36 -98,32 7,20 c 4,13 4,24 -1,31 -4,7 -16,13 -33,19 -15,5 -26,7 -35,6 -8,-2 -14,-8 -17,-18 l -38,-114 173,-57 -26,-80 -173,57 -23,-70 -112,37 23,70 -55,18 26,80 56,-18 39,117 z m 320,-145 c 14,29 28,51 44,65 17,15 34,24 52,27 18,3 35,2 53,-2 18,-5 37,-12 58,-21 l 80,-36 c 21,-10 39,-19 54,-30 16,-10 29,-21 39,-33 10,-12 16,-25 17,-40 2,-15 -1,-31 -8,-48 l -6,-12 -100,45 c 2,5 4,10 4,14 1,4 -1,8 -3,13 -3,5 -8,10 -15,15 -7,6 -18,12 -32,18 l -33,15 c -24,10 -42,15 -54,14 -13,-1 -23,-8 -29,-23 l -8,-17 259,-117 -21,-48 c -11,-25 -24,-44 -37,-57 -13,-13 -28,-21 -45,-25 -16,-3 -36,-2 -57,4 -22,5 -47,14 -77,28 l -75,33 c -20,10 -38,20 -52,31 -14,11 -24,24 -32,38 -7,15 -10,33 -8,53 2,20 8,43 20,69 l 12,27 z m 84,-100 c -4,-9 -6,-17 -7,-22 -1,-6 1,-11 5,-16 4,-5 11,-11 20,-16 10,-6 24,-13 42,-21 32,-14 54,-21 66,-21 13,1 23,9 30,26 l -156,70 z m 312,-77 c 17,27 35,46 53,58 18,12 36,18 55,19 18,0 35,-3 52,-10 17,-7 35,-17 54,-29 l 101,-65 c 15,-10 28,-20 40,-32 11,-12 20,-25 27,-39 6,-14 9,-29 8,-44 -1,-16 -7,-33 -18,-49 l -15,-24 -96,62 4,6 c 7,11 7,22 1,33 -7,11 -18,21 -34,32 l -50,32 c -17,11 -32,16 -46,15 -13,-1 -25,-9 -35,-25 l -23,-35 c -9,-14 -11,-28 -5,-40 6,-13 19,-26 40,-39 l 38,-25 c 21,-14 38,-20 50,-20 12,0 22,6 30,20 l 96,-62 -15,-23 c -19,-30 -43,-45 -73,-46 -30,-1 -63,10 -101,35 l -111,71 c -19,12 -35,25 -47,38 -12,13 -21,27 -26,43 -5,15 -5,33 0,53 4,19 14,41 30,65 l 16,25 z m 387,-467 -93,72 192,246 92,-72 -191,-246 z m -80,-103 -93,72 56,72 93,-72 -56,-72 z m 342,306 85,-81 -114,-119 c -16,-17 -23,-32 -20,-46 2,-14 13,-31 32,-49 13,-12 24,-22 33,-28 9,-7 16,-11 23,-13 7,-1 13,-1 19,2 6,3 12,8 19,15 l 123,128 84,-81 -118,-124 c -14,-15 -20,-29 -16,-43 3,-14 15,-31 36,-51 24,-23 43,-35 56,-36 7,0 13,1 20,5 6,4 13,10 21,18 l 116,121 85,-82 -122,-126 c -32,-34 -64,-51 -97,-53 -33,-1 -68,16 -105,52 l -26,25 c -24,23 -39,43 -43,61 -4,18 0,41 13,68 -50,-20 -94,-11 -134,28 l -32,30 c -22,21 -35,42 -41,62 -5,21 -1,40 12,58 l -1,1 -43,-44 -80,77 215,225 z m 396,-604 c 26,19 49,30 71,34 21,5 40,4 57,-3 17,-6 32,-16 45,-29 14,-12 27,-28 40,-46 l 51,-72 c 13,-19 23,-36 32,-53 8,-17 13,-33 16,-48 2,-16 1,-30 -5,-44 -6,-13 -16,-26 -32,-36 l -11,-8 -63,90 c 4,3 8,6 10,9 3,4 4,8 4,13 0,6 -1,13 -5,21 -4,8 -10,19 -19,31 l -21,30 c -15,21 -28,34 -39,40 -12,5 -24,3 -37,-6 l -15,-11 164,-232 -42,-30 c -23,-16 -43,-26 -61,-31 -18,-4 -35,-4 -51,2 -16,5 -32,16 -48,31 -16,16 -33,37 -52,63 l -47,67 c -14,19 -23,36 -30,53 -7,16 -9,33 -8,49 1,17 7,33 19,49 12,17 29,33 52,50 l 25,17 z m 22,-128 c -9,-6 -14,-11 -18,-16 -3,-5 -4,-10 -4,-16 1,-7 5,-15 10,-24 5,-10 14,-23 25,-39 21,-29 36,-46 47,-52 11,-6 24,-3 39,7 l -99,140 z m 366,-171 54,-105 -140,-72 c -19,-10 -31,-24 -35,-42 -4,-17 0,-37 12,-60 l 12,-24 c 23,-45 49,-60 76,-46 l 159,82 54,-104 -159,-82 c -29,-15 -54,-22 -75,-21 -22,0 -41,6 -56,17 -16,11 -29,25 -39,40 -10,15 -21,34 -32,55 -16,30 -25,55 -27,77 -2,21 4,41 18,59 l 0,1 -45,-23 -54,105 277,143 z m 138,-509 c 19,8 37,11 53,10 15,-2 29,-7 41,-15 12,-9 23,-20 32,-34 9,-13 17,-29 24,-47 l 17,-43 c 16,-42 19,-76 9,-103 -10,-28 -29,-47 -59,-58 l -35,-14 -37,96 19,7 c 14,5 21,12 24,20 2,8 0,21 -6,39 -6,14 -12,24 -18,29 -7,6 -15,7 -25,3 l -112,-44 66,-170 -78,-30 -66,169 -69,-26 -42,109 68,27 -21,54 78,31 22,-55 115,45 z m 116,-336 c 24,6 45,7 62,3 18,-3 32,-10 44,-20 12,-10 21,-22 28,-36 6,-13 12,-28 15,-45 l 39,-171 c 4,-16 6,-32 6,-47 0,-15 -3,-30 -9,-44 -7,-14 -17,-27 -31,-38 -14,-10 -33,-18 -57,-24 l -73,-17 c -24,-5 -44,-6 -62,-3 -17,4 -32,11 -44,21 -11,10 -21,22 -27,36 -7,13 -12,28 -16,45 l -39,170 c -4,17 -6,33 -6,48 1,15 4,30 10,44 6,14 16,27 30,37 15,11 34,19 57,25 l 73,16 z m -24,-126 c -21,-4 -35,-14 -40,-28 -6,-14 -5,-35 1,-63 l 6,-27 c 5,-19 9,-34 13,-45 4,-11 8,-19 13,-25 5,-5 11,-8 18,-9 7,-1 16,0 27,2 l 41,10 c 11,2 19,5 25,9 5,4 9,9 11,16 3,7 3,17 2,28 -1,12 -4,27 -8,47 l -6,27 c -6,27 -15,46 -26,57 -12,10 -28,13 -49,8 l -28,-7 z"
       id="path3909"
       inkscape:connector-curvature="0"
       style="fill:#a0d211;fill-rule:nonzero" /><circle
       class="fil4"
       cy="11000"
       r="3898"
       id="circle3911"
       cx="0"
       style="fill:none" /><path
       class="fil5"
       d="m 906,11669 c -968,-388 -1693,-590 -1812,-433 -98,132 12,306 159,467 l 511,557 c 381,416 748,827 1417,827 354,0 839,-67 1110,-296 241,-204 386,-508 386,-925 0,-619 -342,-1360 -884,-1919 C 1317,9458 688,9110 0,9110 c -275,0 -479,70 -617,118 -104,36 -307,152 -362,105 -98,-82 199,-380 310,-380 39,0 40,50 0,78 -53,38 -133,177 27,122 143,-49 354,-122 642,-122 711,0 1360,358 1849,862 556,572 907,1334 907,1973 0,442 -156,766 -415,985 -285,242 -695,354 -1160,354 -748,0 -1302,-391 -1643,-761 l -1417,-1536 c -66,-71 -100,-128 -107,-172 -14,-89 53,-127 178,-126 100,0 244,26 414,70 699,177 1668,519 2339,871 91,48 41,151 -39,118 z"
       id="path3913"
       inkscape:connector-curvature="0"
       style="fill:#ffffff;fill-rule:nonzero" /><path
       class="fil3"
       d="m -2441,10134 c -57,-25 -116,-18 -136,-1 -31,28 -10,84 20,117 l 2035,2220 c 14,16 13,40 -3,55 -16,15 -40,13 -55,-2 l 0,0 -498,-543 c -170,-186 -379,-311 -457,-311 -158,0 -80,709 -40,827 25,72 -47,102 -79,39 -78,-157 -315,-1023 -354,-1378 -8,-72 -45,-242 -95,-296 l -642,-701 c -131,-142 -152,-210 -46,-210 129,0 232,26 330,87 52,32 76,69 59,97 -7,13 -25,6 -39,0 z"
       id="path3915"
       inkscape:connector-curvature="0"
       style="fill:#a0d211;fill-rule:nonzero" /></g></svg>