<?xml version="1.0" encoding="UTF-8" standalone="no"?>
<!-- Creator: CorelDRAW X7 -->

<svg
   xmlns:dc="http://purl.org/dc/elements/1.1/"
   xmlns:cc="http://creativecommons.org/ns#"
   xmlns:rdf="http://www.w3.org/1999/02/22-rdf-syntax-ns#"
   xmlns:svg="http://www.w3.org/2000/svg"
   xmlns="http://www.w3.org/2000/svg"
   xmlns:sodipodi="http://sodipodi.sourceforge.net/DTD/sodipodi-0.dtd"
   xmlns:inkscape="http://www.inkscape.org/namespaces/inkscape"
   xml:space="preserve"
   width="7.8740005in"
   height="7.8740005in"
   version="1.1"
   style="clip-rule:evenodd;fill-rule:evenodd;image-rendering:optimizeQuality;shape-rendering:geometricPrecision;text-rendering:geometricPrecision"
   viewBox="0 0 7874.0005 7874.0005"
   id="svg3841"
   inkscape:version="0.91 r13725"
   sodipodi:docname="Ariadna - Kazak Doktor - [N3] [Vyo].svg"><metadata
     id="metadata3899"><rdf:RDF><cc:Work
         rdf:about=""><dc:format>image/svg+xml</dc:format><dc:type
           rdf:resource="http://purl.org/dc/dcmitype/StillImage" /></cc:Work></rdf:RDF></metadata><sodipodi:namedview
     pagecolor="#ffffff"
     bordercolor="#666666"
     borderopacity="1"
     objecttolerance="10"
     gridtolerance="10"
     guidetolerance="10"
     inkscape:pageopacity="0"
     inkscape:pageshadow="2"
     inkscape:window-width="640"
     inkscape:window-height="480"
     id="namedview3897"
     showgrid="false"
     inkscape:zoom="0.23838384"
     inkscape:cx="736.83001"
     inkscape:cy="849.33005"
     inkscape:window-x="0"
     inkscape:window-y="0"
     inkscape:window-maximized="0"
     inkscape:current-layer="svg3841" /><defs
     id="defs3843"><style
       type="text/css"
       id="style3845"><![CDATA[
    .fil4 {fill:none}
    .fil0 {fill:black}
    .fil2 {fill:#E2001A}
    .fil1 {fill:white}
    .fil3 {fill:black;fill-rule:nonzero}
   ]]></style></defs><g
     id="Layer_x0020_1"
     transform="translate(3937,-7063)"><metadata
       id="CorelCorpID_0Corel-Layer" /><circle
       class="fil0"
       cy="11000"
       r="3937"
       id="circle3849"
       cx="0"
       style="fill:#000000" /><circle
       class="fil1"
       cy="11000"
       r="3858"
       id="circle3851"
       cx="0"
       style="fill:#ffffff" /><circle
       class="fil2"
       cy="11000"
       r="3661"
       id="circle3853"
       cx="0"
       style="fill:#e2001a" /><circle
       class="fil1"
       cy="11000"
       r="3583"
       id="circle3855"
       cx="0"
       style="fill:#ffffff" /><path
       class="fil0"
       d="m 0,8268 c 1500,0 2717,1216 2717,2717 0,720 -281,1375 -739,1861 l -3956,0 c -458,-486 -739,-1141 -739,-1861 0,-1501 1217,-2717 2717,-2717 z"
       id="path3857"
       inkscape:connector-curvature="0"
       style="fill:#000000" /><path
       class="fil1"
       d="m -1937,12722 3874,0 c 427,-477 661,-1089 661,-1732 C 2598,9555 1435,8392 0,8392 c -1435,0 -2598,1163 -2598,2598 0,643 234,1255 661,1732 z"
       id="path3859"
       inkscape:connector-curvature="0"
       style="fill:#ffffff" /><path
       class="fil3"
       d="m -2024,13675 204,-606 100,0 204,606 -85,0 -55,-168 -232,0 -55,168 -81,0 z m 345,-238 -93,-285 -93,285 186,0 z"
       id="path3861"
       inkscape:connector-curvature="0"
       style="fill:#000000;fill-rule:nonzero" /><path
       id="1"
       class="fil3"
       d="m -1012,13252 c 0,26 -5,51 -14,75 -9,23 -22,43 -39,60 -21,20 -45,36 -73,46 -28,11 -64,16 -107,16 l -68,0 0,226 -81,0 0,-606 152,0 c 36,0 66,3 91,9 26,6 48,16 67,29 23,16 40,35 53,59 13,24 19,52 19,86 z m -84,2 c 0,-21 -4,-39 -11,-54 -7,-16 -18,-28 -32,-38 -13,-8 -28,-14 -45,-17 -17,-4 -37,-6 -63,-6 l -66,0 0,240 55,0 c 32,0 58,-2 78,-8 20,-5 37,-14 50,-28 12,-12 20,-25 26,-39 5,-14 8,-31 8,-50 z"
       inkscape:connector-curvature="0"
       style="fill:#000000;fill-rule:nonzero" /><polygon
       id="2"
       class="fil3"
       points="-787,13675 -869,13675 -869,13069 -788,13069 -788,13542 -520,13069 -434,13069 -434,13675 -515,13675 -515,13194 "
       style="fill:#000000;fill-rule:nonzero" /><path
       id="3"
       class="fil3"
       d="m -312,13675 205,-606 99,0 205,606 -85,0 -55,-168 -232,0 -55,168 -82,0 z m 346,-238 -93,-285 -93,285 186,0 z"
       inkscape:connector-curvature="0"
       style="fill:#000000;fill-rule:nonzero" /><path
       id="4"
       class="fil3"
       d="m 811,13813 -77,0 0,-140 -392,0 0,140 -77,0 0,-210 33,0 c 36,-57 64,-133 85,-227 22,-94 33,-196 33,-307 l 337,0 0,534 58,0 0,210 z m -139,-210 0,-464 -181,0 c -4,98 -16,187 -37,267 -20,80 -46,145 -78,197 l 296,0 z"
       inkscape:connector-curvature="0"
       style="fill:#000000;fill-rule:nonzero" /><polygon
       id="5"
       class="fil3"
       points="1035,13378 1035,13675 954,13675 954,13069 1035,13069 1035,13307 1312,13307 1312,13069 1393,13069 1393,13675 1312,13675 1312,13378 "
       style="fill:#000000;fill-rule:nonzero" /><path
       id="6"
       class="fil3"
       d="m 1516,13675 204,-606 100,0 204,606 -85,0 -55,-168 -232,0 -54,168 -82,0 z m 346,-238 -94,-285 -93,285 187,0 z"
       inkscape:connector-curvature="0"
       style="fill:#000000;fill-rule:nonzero" /><circle
       class="fil4"
       cy="11000"
       r="3898"
       id="circle3869"
       cx="0"
       style="fill:none" /><polygon
       class="fil3"
       points="-3053,11396 -3045,11445 -3374,11652 -2858,11576 -2847,11650 -3446,11738 -3462,11630 -3151,11431 -3506,11335 -3522,11224 -2923,11136 -2911,11216 -3428,11292 "
       id="polygon3871"
       style="fill:#000000;fill-rule:nonzero" /><polygon
       id="polygon3873"
       class="fil3"
       points="-3416,10525 -3440,10823 -3275,10836 -3252,10558 -3181,10564 -3204,10842 -2981,10861 -2956,10563 -2884,10569 -2916,10947 -3519,10897 -3487,10519 "
       style="fill:#000000;fill-rule:nonzero" /><path
       id="path3875"
       class="fil3"
       d="m -2596,9980 -20,73 -134,-38 -107,379 134,38 -21,74 -201,-57 9,-32 c -46,-49 -111,-97 -196,-143 -84,-47 -180,-85 -287,-115 l 93,-326 514,145 16,-55 200,57 z m -237,76 -449,-127 -50,176 c 94,31 176,67 248,108 71,41 128,85 169,130 l 82,-287 z"
       inkscape:connector-curvature="0"
       style="fill:#000000;fill-rule:nonzero" /><polygon
       id="polygon3877"
       class="fil3"
       points="-2627,9741 -2665,9813 -3200,9528 -3163,9457 -2745,9679 -3036,9218 -2996,9143 -2461,9427 -2498,9498 -2923,9273 "
       style="fill:#000000;fill-rule:nonzero" /><polygon
       id="polygon3879"
       class="fil3"
       points="-2358,9268 -2810,8865 -2757,8805 -2358,9160 -2175,8955 -2573,8599 -2520,8539 -2121,8894 -2084,8853 -1928,8991 -1978,9047 -2080,8956 "
       style="fill:#000000;fill-rule:nonzero" /><polygon
       id="polygon3881"
       class="fil3"
       points="-1858,8755 -1923,8805 -2295,8326 -2232,8277 -1941,8651 -2018,8111 -1951,8059 -1579,8537 -1642,8586 -1937,8206 "
       style="fill:#000000;fill-rule:nonzero" /><polygon
       id="polygon3883"
       class="fil3"
       points="-1466,8136 -1343,8407 -1416,8440 -1667,7889 -1594,7855 -1496,8071 -1241,7956 -1340,7739 -1266,7706 -1015,8257 -1089,8291 -1212,8020 "
       style="fill:#000000;fill-rule:nonzero" /><path
       id="7"
       class="fil3"
       d="m -602,8159 c -39,8 -76,10 -111,5 -36,-6 -68,-19 -98,-39 -29,-20 -55,-48 -76,-84 -22,-35 -39,-77 -50,-127 -11,-49 -15,-94 -11,-134 4,-39 15,-75 33,-108 18,-32 41,-58 70,-80 29,-21 64,-36 104,-45 20,-5 38,-8 56,-9 18,-1 35,-1 51,0 14,1 28,3 43,6 14,3 29,7 44,11 l 21,95 -6,1 c -8,-5 -19,-10 -32,-17 -13,-6 -28,-12 -46,-17 -16,-5 -34,-8 -53,-9 -19,-1 -40,1 -64,6 -25,6 -47,17 -68,32 -20,16 -36,35 -48,59 -12,24 -19,52 -22,85 -2,32 1,68 10,106 9,40 22,74 38,101 17,27 36,48 57,64 21,16 44,26 68,31 25,5 50,5 75,-1 22,-5 43,-13 61,-23 18,-10 33,-21 46,-33 13,-11 24,-23 32,-34 9,-11 16,-20 20,-27 l 6,-2 22,94 c -12,9 -23,17 -33,26 -10,8 -23,16 -38,25 -16,10 -31,18 -45,24 -14,6 -33,12 -56,18 z"
       inkscape:connector-curvature="0"
       style="fill:#000000;fill-rule:nonzero" /><path
       id="8"
       class="fil3"
       d="m 168,8082 -102,1 -219,-274 -50,1 4,277 -81,1 -9,-605 81,-2 4,274 c 32,-2 57,-10 75,-25 18,-16 33,-37 44,-65 5,-13 9,-24 13,-35 4,-12 7,-21 9,-29 16,-46 36,-78 61,-96 25,-18 60,-28 105,-28 l 25,-1 1,72 -21,0 c -33,1 -56,8 -69,21 -13,13 -25,38 -36,74 -10,36 -22,62 -36,79 -13,17 -30,32 -49,45 l 250,315 z"
       inkscape:connector-curvature="0"
       style="fill:#000000;fill-rule:nonzero" /><path
       id="9"
       class="fil3"
       d="m 222,8084 300,-565 98,16 104,631 -84,-14 -27,-175 -229,-38 -82,158 -80,-13 z m 380,-179 -46,-298 -139,268 185,30 z"
       inkscape:connector-curvature="0"
       style="fill:#000000;fill-rule:nonzero" /><path
       id="10"
       class="fil3"
       d="m 1205,8334 -76,-28 83,-226 -86,-32 -253,165 -90,-34 269,-171 c -33,-27 -56,-58 -66,-92 -12,-35 -9,-76 8,-121 11,-29 26,-52 46,-68 20,-17 42,-29 67,-35 23,-6 47,-8 73,-4 26,4 54,11 83,22 l 151,55 -209,569 z m 30,-317 79,-214 -79,-29 c -22,-8 -40,-14 -55,-16 -14,-2 -28,-1 -41,2 -15,4 -28,12 -40,23 -12,12 -21,27 -27,44 -8,20 -12,38 -12,53 0,15 3,30 9,44 8,16 19,29 34,38 15,10 34,19 56,28 l 76,27 z"
       inkscape:connector-curvature="0"
       style="fill:#000000;fill-rule:nonzero" /><path
       id="11"
       class="fil3"
       d="m 1829,8747 c -30,-25 -54,-54 -71,-85 -17,-31 -27,-65 -29,-101 -2,-35 5,-73 20,-111 14,-39 38,-78 70,-118 33,-39 66,-69 100,-90 34,-20 69,-34 106,-40 36,-5 71,-3 106,7 34,10 67,28 99,54 16,13 29,27 41,40 12,14 22,27 31,40 8,12 15,24 21,38 7,13 13,27 19,41 l -62,75 -5,-4 c -2,-10 -4,-21 -7,-35 -2,-14 -7,-30 -14,-47 -6,-16 -15,-32 -26,-48 -10,-16 -25,-31 -43,-46 -20,-17 -42,-28 -67,-35 -24,-6 -50,-7 -76,-2 -26,5 -53,16 -80,34 -27,18 -53,42 -78,72 -26,32 -45,63 -56,92 -12,30 -17,58 -17,85 0,26 6,50 17,72 11,23 27,42 46,58 18,15 37,27 56,35 19,8 37,14 54,17 17,3 32,4 47,4 13,0 25,0 34,-1 l 4,4 -61,74 c -14,-3 -28,-7 -40,-10 -13,-3 -28,-8 -44,-14 -17,-7 -33,-14 -46,-21 -14,-7 -30,-19 -49,-34 z"
       inkscape:connector-curvature="0"
       style="fill:#000000;fill-rule:nonzero" /><path
       id="12"
       class="fil3"
       d="m 2374,9288 -53,-61 401,-352 -136,-155 c -24,20 -47,39 -70,57 -22,18 -43,34 -60,49 -45,36 -82,65 -113,86 -32,21 -59,37 -83,48 -23,10 -44,17 -62,20 -18,2 -34,3 -49,1 -17,-2 -32,-6 -45,-13 -13,-7 -26,-17 -38,-31 -4,-4 -7,-8 -11,-13 -3,-5 -6,-8 -8,-11 l 58,-51 4,4 c 2,2 3,4 4,6 1,1 3,4 5,7 7,7 14,13 22,17 7,4 16,7 24,7 26,2 59,-9 99,-33 41,-25 92,-61 153,-110 21,-17 48,-39 82,-67 33,-27 64,-53 92,-76 l 238,271 -454,400 z"
       inkscape:connector-curvature="0"
       style="fill:#000000;fill-rule:nonzero" /><path
       id="13"
       class="fil3"
       d="m 3207,9528 -552,54 c -23,2 -44,1 -61,-2 -16,-4 -31,-10 -43,-18 -12,-8 -21,-16 -29,-26 -8,-9 -15,-19 -21,-30 -5,-9 -11,-21 -17,-34 -7,-13 -11,-21 -13,-25 l 66,-36 3,5 c 1,3 4,9 7,17 4,7 8,17 14,28 3,5 7,11 12,18 4,7 9,13 16,17 7,5 15,9 24,12 8,3 20,4 35,2 l 35,-3 290,-403 44,78 -233,316 384,-42 39,72 z"
       inkscape:connector-curvature="0"
       style="fill:#000000;fill-rule:nonzero" /><path
       id="14"
       class="fil3"
       d="m 2925,10592 -28,-94 207,-274 -11,-37 -266,80 -24,-77 267,-81 -12,-38 -325,-112 -27,-91 365,129 c 6,-20 15,-39 28,-57 13,-18 36,-38 71,-62 30,-20 50,-38 59,-54 10,-16 10,-40 0,-74 l -5,-15 68,-21 6,20 c 13,44 15,80 6,109 -10,29 -34,57 -74,87 -10,7 -21,14 -30,22 -10,7 -18,13 -24,18 -24,19 -41,39 -49,59 -9,20 -11,42 -6,65 l 262,-80 23,78 -262,79 c 10,23 24,41 41,53 18,13 43,21 75,24 14,1 26,1 38,2 11,1 21,1 29,1 49,2 86,13 110,32 24,19 42,50 55,92 l 6,20 -68,21 -5,-16 c -10,-33 -23,-53 -40,-61 -17,-8 -43,-13 -80,-13 -37,0 -67,-5 -88,-14 -22,-9 -40,-20 -55,-33 l -237,313 z"
       inkscape:connector-curvature="0"
       style="fill:#000000;fill-rule:nonzero" /><path
       id="15"
       class="fil3"
       d="m 3105,11130 c -29,1 -56,-5 -80,-16 -24,-11 -43,-26 -59,-45 -18,-22 -31,-46 -39,-72 -8,-26 -12,-59 -13,-101 l -2,-175 605,-9 6,369 -72,1 -4,-288 -166,3 2,97 c 0,41 -2,74 -6,100 -4,26 -15,51 -33,74 -16,21 -35,36 -59,46 -23,11 -50,16 -80,16 z m -2,-84 c 20,0 38,-4 53,-11 15,-6 28,-17 37,-31 9,-16 15,-33 17,-52 2,-20 3,-47 2,-83 l -1,-71 -228,3 1,70 c 0,36 2,63 6,83 4,19 11,36 21,50 11,15 23,26 38,33 14,6 32,9 54,9 z"
       inkscape:connector-curvature="0"
       style="fill:#000000;fill-rule:nonzero" /><path
       id="16"
       class="fil3"
       d="m 2917,11213 565,300 -16,98 -631,103 14,-83 175,-27 38,-230 -158,-81 13,-80 z m 179,380 298,-47 -268,-138 -30,185 z"
       inkscape:connector-curvature="0"
       style="fill:#000000;fill-rule:nonzero" /><polygon
       class="fil2"
       points="669,8972 669,10114 1811,10114 1811,11453 669,11453 669,12594 -669,12594 -669,11453 -1811,11453 -1811,10114 -669,10114 -669,8972 "
       id="polygon3895"
       style="fill:#e2001a" /></g></svg>