<?xml version="1.0" encoding="UTF-8" standalone="no"?>
<!-- Creator: CorelDRAW X7 -->

<svg
   xmlns:dc="http://purl.org/dc/elements/1.1/"
   xmlns:cc="http://creativecommons.org/ns#"
   xmlns:rdf="http://www.w3.org/1999/02/22-rdf-syntax-ns#"
   xmlns:svg="http://www.w3.org/2000/svg"
   xmlns="http://www.w3.org/2000/svg"
   xmlns:sodipodi="http://sodipodi.sourceforge.net/DTD/sodipodi-0.dtd"
   xmlns:inkscape="http://www.inkscape.org/namespaces/inkscape"
   xml:space="preserve"
   width="7.8740005in"
   height="7.8740005in"
   version="1.1"
   style="clip-rule:evenodd;fill-rule:evenodd;image-rendering:optimizeQuality;shape-rendering:geometricPrecision;text-rendering:geometricPrecision"
   viewBox="0 0 7874.0005 7874.0005"
   id="svg3819"
   inkscape:version="0.91 r13725"
   sodipodi:docname="PanOceania - Cutters - [N3] [Vyo].svg"><metadata
     id="metadata3869"><rdf:RDF><cc:Work
         rdf:about=""><dc:format>image/svg+xml</dc:format><dc:type
           rdf:resource="http://purl.org/dc/dcmitype/StillImage" /></cc:Work></rdf:RDF></metadata><sodipodi:namedview
     pagecolor="#ffffff"
     bordercolor="#666666"
     borderopacity="1"
     objecttolerance="10"
     gridtolerance="10"
     guidetolerance="10"
     inkscape:pageopacity="0"
     inkscape:pageshadow="2"
     inkscape:window-width="640"
     inkscape:window-height="480"
     id="namedview3867"
     showgrid="false"
     inkscape:zoom="0.23838384"
     inkscape:cx="736.83001"
     inkscape:cy="849.33005"
     inkscape:window-x="0"
     inkscape:window-y="0"
     inkscape:window-maximized="0"
     inkscape:current-layer="svg3819" /><defs
     id="defs3821"><style
       type="text/css"
       id="style3823"><![CDATA[
    .fil4 {fill:none}
    .fil0 {fill:#0080B1}
    .fil1 {fill:white}
    .fil2 {fill:white}
    .fil3 {fill:#E2001A;fill-rule:nonzero}
   ]]></style></defs><g
     id="Layer_x0020_1"
     transform="translate(3937,-7063)"><metadata
       id="CorelCorpID_0Corel-Layer" /><circle
       class="fil0"
       cy="11000"
       r="3937"
       id="circle3827"
       cx="0"
       style="fill:#0080b1" /><circle
       class="fil1"
       cy="11000"
       r="3858"
       id="circle3829"
       cx="0"
       style="fill:#ffffff" /><circle
       class="fil0"
       cy="11000"
       r="3386"
       id="circle3831"
       cx="0"
       style="fill:#0080b1" /><circle
       class="fil1"
       cy="11000"
       r="1929"
       id="circle3833"
       cx="0"
       style="fill:#ffffff" /><g
       id="_879311136"><path
         class="fil2"
         d="m 875,7593 19,-56 39,13 23,-67 179,61 -23,67 121,41 -51,150 -121,-41 -13,38 135,46 -12,37 c -1,3 -3,7 -4,10 -1,2 -1,3 -2,5 -7,21 -16,46 -27,65 -9,16 -21,28 -37,38 -13,9 -28,14 -44,16 -17,3 -34,1 -51,-2 -20,-4 -39,-9 -58,-16 -26,-9 -55,-21 -76,-39 -21,-17 -34,-40 -39,-65 -2,-13 -3,-27 0,-41 2,-14 6,-28 11,-41 l 38,-112 -29,-10 -58,258 -178,-40 c -3,13 -8,25 -13,37 -11,24 -26,45 -48,60 -22,15 -48,22 -74,24 -31,3 -65,0 -96,-4 -26,-4 -54,-9 -79,-18 -21,-7 -41,-18 -57,-34 -16,-15 -26,-34 -30,-56 -3,-19 -1,-43 1,-64 l -180,-2 0,-5 c -18,6 -38,8 -57,8 -41,-1 -83,-10 -112,-41 -30,-30 -38,-72 -38,-113 l 2,-106 -62,5 20,257 -188,14 -20,-257 -18,2 0,2 -75,13 42,254 -186,31 -42,-254 -44,7 -26,-156 44,-7 c -2,-18 -4,-37 -2,-55 2,-21 8,-41 22,-58 15,-19 36,-33 59,-43 27,-12 59,-18 88,-23 l 65,-11 24,143 38,-3 c -1,-18 -1,-37 2,-54 4,-21 13,-40 27,-56 17,-18 39,-30 63,-38 28,-9 61,-12 90,-15 l 66,-5 11,149 4,-1 0,-3 189,3 -3,231 c 0,7 0,16 0,23 2,1 4,1 5,1 5,0 12,0 16,-5 2,-9 2,-26 2,-35 l 3,-215 190,3 -3,215 c 0,-7 1,-14 2,-21 4,-28 10,-56 19,-83 9,-22 20,-45 38,-61 16,-17 37,-27 60,-32 24,-5 50,-4 74,0 19,2 38,7 56,15 l 0,-4 191,26 -42,301 99,-434 184,41 -43,192 z m -640,165 -1,45 21,3 c -3,-4 -6,-8 -8,-13 l -1,-1 0,0 c -5,-11 -9,-22 -11,-34 z m -1954,232 c -3,-9 -5,-17 -6,-26 -3,-23 2,-45 13,-64 11,-20 28,-36 46,-50 22,-17 48,-32 73,-45 29,-16 63,-32 95,-40 28,-6 57,-5 82,10 25,14 43,39 56,63 l 20,35 -11,5 c 10,4 19,10 27,17 16,13 28,29 37,47 11,21 20,44 23,68 3,23 -2,46 -13,67 -11,22 -28,40 -47,56 -23,18 -48,34 -74,47 -25,14 -51,27 -77,36 -22,7 -45,11 -67,8 -22,-2 -42,-12 -58,-26 1,11 1,22 0,33 -4,27 -18,52 -37,72 -22,22 -49,42 -75,59 -19,12 -38,24 -59,34 -16,8 -34,14 -52,18 -17,3 -35,3 -52,0 l -1,0 c -17,-3 -33,-10 -47,-19 -3,-2 -6,-5 -9,-7 l 58,66 -214,189 -174,-93 122,139 -154,136 -370,-421 213,-188 173,92 -122,-137 155,-137 262,297 c -9,-13 -18,-26 -26,-39 -17,-26 -35,-57 -45,-86 -8,-25 -10,-51 -3,-77 5,-16 12,-30 21,-43 10,-15 23,-27 36,-38 18,-15 37,-28 56,-41 26,-16 57,-36 86,-46 24,-9 49,-11 74,-5 25,5 46,17 65,34 0,0 0,0 0,0 z m 76,103 c 1,1 2,3 3,4 l 3,-1 c -2,-1 -4,-2 -6,-3 z m -1434,1598 -204,-107 89,-170 2,2 c 4,-18 10,-34 19,-50 17,-32 40,-64 74,-79 -2,-12 -3,-25 -2,-37 3,-21 10,-41 20,-60 12,-23 28,-44 49,-61 19,-16 42,-27 68,-29 l 1,0 0,0 c 31,-1 63,13 90,27 l 235,123 -88,168 -203,-107 c -5,-2 -15,-8 -23,-10 -1,0 -1,1 -1,1 -1,2 -3,6 -3,9 2,3 9,6 12,8 l 211,111 -87,167 -212,-111 c -3,-2 -8,-5 -14,-7 -1,2 -4,8 -4,11 3,3 9,7 12,9 l 211,110 -88,168 -54,-28 c 5,5 9,11 13,17 14,23 19,50 17,76 -2,31 -13,65 -23,94 -7,19 -14,38 -23,56 -7,15 -16,30 -26,43 -10,12 -21,23 -33,32 -12,8 -25,14 -38,18 l -1,1 -2,0 c -10,3 -21,4 -32,4 -6,0 -12,0 -18,0 l 91,15 -47,281 -194,38 183,31 -34,202 -553,-92 47,-280 192,-38 -181,-30 34,-204 428,71 c -8,-2 -16,-4 -24,-6 -16,-5 -33,-11 -49,-17 -28,-9 -57,-22 -81,-38 -22,-15 -40,-33 -51,-57 -11,-23 -14,-49 -12,-74 2,-29 12,-60 21,-87 13,-35 30,-74 55,-102 23,-27 53,-42 89,-44 37,-3 78,9 112,21 l 30,11 z m 373,-481 c -18,-5 -36,-14 -51,-24 -22,-13 -44,-30 -64,-46 -24,-19 -52,-42 -71,-66 -16,-21 -25,-46 -27,-72 -1,-17 1,-32 5,-48 5,-17 13,-33 22,-48 12,-19 26,-38 40,-56 19,-24 42,-52 66,-72 20,-16 43,-26 69,-29 25,-3 49,1 72,11 26,12 51,30 73,47 27,21 55,45 78,70 19,21 34,45 39,73 6,27 1,55 -11,80 -13,28 -33,55 -52,80 -13,17 -28,35 -44,51 -13,13 -27,25 -43,34 -16,9 -32,15 -49,17 l -1,0 c -17,3 -35,2 -51,-2 z m 1732,-1599 2,7 197,-57 47,161 -197,57 4,15 215,-63 52,177 -415,121 -157,-538 411,-119 52,177 -211,62 z m -1760,1352 c 0,0 0,0 0,0 8,10 23,22 33,30 11,9 23,18 36,26 2,1 6,4 10,5 4,-4 8,-9 10,-12 2,-2 6,-7 8,-11 -1,-1 -2,-2 -3,-2 -12,-14 -30,-29 -45,-40 -8,-6 -21,-16 -30,-20 -4,3 -8,8 -10,11 -2,2 -7,9 -9,13 z m 863,-811 c 0,0 0,1 0,1 4,12 14,27 21,38 8,13 17,25 26,37 2,1 5,5 8,8 4,-2 10,-6 14,-8 2,-2 7,-5 10,-8 -1,-1 -1,-2 -1,-3 -8,-17 -20,-37 -30,-52 -6,-9 -15,-22 -23,-29 -4,1 -10,5 -12,7 -3,2 -10,6 -13,9 z M 435,7622 c -5,15 -7,34 -9,49 -2,12 -4,25 -4,37 0,1 0,2 0,4 5,1 11,2 15,3 3,0 10,1 15,1 3,-10 5,-24 6,-33 3,-17 6,-40 5,-57 -5,-2 -12,-3 -15,-3 -3,-1 -9,-1 -13,-1 z"
         id="path3836"
         inkscape:connector-curvature="0"
         style="fill:#ffffff" /></g><path
       class="fil3"
       d="m -3557,10055 474,83 -38,216 -212,39 c -37,7 -60,11 -68,12 -8,2 -15,3 -19,4 -5,0 -13,2 -25,4 -12,2 -33,5 -65,10 l -1,6 30,3 c 5,1 8,1 11,2 3,0 5,0 8,1 3,0 6,1 11,1 47,6 86,12 117,18 l 190,33 -22,125 -475,-83 38,-215 213,-40 c 47,-8 73,-14 81,-15 7,-1 37,-6 90,-15 l 1,-5 -29,-3 -14,-3 c -46,-5 -89,-12 -129,-19 l -190,-33 23,-126 z"
       id="path3838"
       inkscape:connector-curvature="0"
       style="fill:#e2001a;fill-rule:nonzero" /><path
       id="1"
       class="fil3"
       d="m -3092,9842 36,-101 6,2 c 29,10 50,25 62,44 9,15 13,32 11,52 -1,20 -8,48 -20,83 -8,21 -15,38 -21,52 -7,14 -14,26 -22,36 -8,10 -16,18 -24,24 -8,6 -18,10 -28,13 -7,2 -15,3 -24,4 -8,0 -18,-1 -28,-3 -10,-1 -22,-4 -36,-8 -13,-4 -29,-9 -47,-15 -31,-11 -55,-23 -72,-35 -18,-11 -31,-25 -38,-40 -7,-16 -10,-34 -8,-54 1,-21 8,-46 19,-77 14,-41 30,-71 46,-90 17,-19 37,-29 62,-31 24,-1 56,5 97,19 l 30,11 -72,203 c 3,2 7,4 12,5 16,6 29,9 38,9 10,-1 18,-4 25,-11 6,-6 12,-17 17,-30 4,-13 6,-23 7,-31 0,-8 -2,-14 -7,-19 -4,-5 -11,-9 -21,-12 z m -128,68 36,-103 c -3,0 -6,-1 -10,-3 -17,-6 -29,-6 -35,-1 -8,4 -15,18 -23,40 -5,14 -7,25 -8,32 0,7 2,13 7,18 4,4 12,9 24,13 2,1 3,2 4,2 2,1 3,1 5,2 z"
       inkscape:connector-curvature="0"
       style="fill:#e2001a;fill-rule:nonzero" /><path
       id="2"
       class="fil3"
       d="m -3229,9568 51,-98 45,27 1,-2 c -14,-15 -21,-31 -22,-49 -1,-18 4,-38 15,-61 31,-58 66,-78 107,-58 l 1,-2 c -12,-9 -21,-19 -26,-31 -5,-12 -7,-25 -5,-39 1,-14 6,-29 15,-46 11,-21 23,-37 38,-49 15,-13 30,-19 46,-20 18,-1 41,6 70,21 l 201,104 -51,98 -168,-87 c -23,-12 -40,-17 -50,-16 -11,1 -20,9 -28,24 -8,16 -10,29 -6,40 4,11 15,21 32,30 l 177,92 -50,97 -177,-92 c -21,-10 -35,-15 -44,-14 -8,2 -16,10 -23,24 -9,17 -11,31 -8,42 4,11 15,22 32,31 l 177,91 -51,98 -299,-155 z"
       inkscape:connector-curvature="0"
       style="fill:#e2001a;fill-rule:nonzero" /><path
       id="3"
       class="fil3"
       d="m -2818,8874 c 25,-31 45,-53 60,-65 15,-12 31,-19 48,-21 17,-2 35,1 52,9 17,7 39,21 65,42 32,25 56,47 73,65 16,18 26,36 29,54 4,17 1,36 -8,56 -10,20 -25,44 -47,72 -15,19 -29,35 -41,47 -13,12 -25,22 -36,28 -11,6 -23,10 -35,12 -13,2 -25,1 -36,-2 -12,-3 -25,-9 -40,-18 -15,-10 -35,-24 -60,-44 -31,-24 -51,-44 -63,-59 -12,-16 -19,-33 -20,-51 -1,-12 1,-23 4,-34 3,-12 9,-25 18,-38 8,-14 21,-32 37,-53 z m 65,52 c -10,12 -16,23 -18,33 -1,9 2,18 9,28 7,10 20,22 39,37 16,12 29,22 40,28 10,7 20,11 28,12 8,1 15,-1 21,-5 7,-5 14,-12 23,-23 10,-13 16,-24 17,-33 1,-9 -4,-19 -13,-31 -10,-11 -27,-25 -50,-44 -17,-13 -31,-22 -41,-26 -11,-4 -20,-4 -28,-1 -8,4 -17,12 -27,25 z"
       inkscape:connector-curvature="0"
       style="fill:#e2001a;fill-rule:nonzero" /><path
       id="4"
       class="fil3"
       d="m -2253,8089 321,359 -163,146 -192,-101 c -33,-17 -53,-28 -60,-32 -8,-4 -13,-7 -17,-9 -4,-2 -11,-6 -22,-12 -11,-6 -30,-17 -57,-32 l -5,3 22,22 c 3,3 5,6 7,8 2,2 4,3 6,5 2,3 4,5 7,8 34,35 61,63 82,87 l 128,143 -95,85 -321,-359 163,-145 192,100 c 42,22 66,35 72,38 7,3 34,18 81,44 l 3,-3 -20,-21 -10,-10 c -33,-33 -62,-65 -89,-95 l -128,-143 95,-86 z"
       inkscape:connector-curvature="0"
       style="fill:#e2001a;fill-rule:nonzero" /><path
       id="5"
       class="fil3"
       d="m -1922,8040 c 34,-22 59,-36 77,-42 19,-7 36,-8 53,-4 17,3 32,12 46,25 14,12 30,32 48,60 22,34 38,63 48,86 9,22 13,42 11,60 -3,18 -12,34 -27,50 -15,16 -37,34 -67,53 -21,14 -39,24 -55,32 -15,7 -29,12 -42,15 -12,2 -25,2 -37,0 -13,-3 -24,-7 -34,-14 -10,-6 -20,-16 -31,-30 -12,-14 -26,-34 -44,-61 -21,-33 -34,-58 -40,-77 -6,-18 -7,-37 -2,-54 3,-11 8,-22 15,-31 6,-10 16,-20 29,-30 12,-11 29,-23 52,-38 z m 44,69 c -13,9 -22,17 -27,26 -5,8 -5,18 -1,29 4,12 12,28 26,48 11,17 20,31 28,40 8,10 16,17 23,21 7,3 15,4 22,2 8,-2 17,-7 29,-14 14,-9 22,-18 26,-26 4,-9 3,-20 -2,-33 -6,-14 -17,-34 -34,-59 -12,-18 -22,-31 -30,-38 -9,-8 -18,-11 -27,-10 -9,1 -20,5 -33,14 z"
       inkscape:connector-curvature="0"
       style="fill:#e2001a;fill-rule:nonzero" /><path
       id="6"
       class="fil3"
       d="m -1395,7856 -92,50 c -2,-2 -3,-4 -3,-4 -6,-6 -10,-9 -14,-10 -4,-2 -10,-1 -16,1 -7,2 -17,7 -30,14 -16,9 -26,16 -30,23 -4,6 -3,14 2,24 7,13 16,17 29,14 3,-1 10,-4 20,-9 l 13,-6 14,-6 13,-7 c 18,-9 35,-16 47,-21 14,-5 24,-8 33,-10 8,-1 17,-1 25,0 12,2 24,7 34,15 10,9 20,21 28,36 11,20 17,37 18,53 2,16 -1,31 -8,46 -7,14 -20,28 -37,43 -18,14 -40,28 -68,43 -28,15 -52,26 -71,33 -19,6 -36,9 -50,7 -14,-2 -26,-7 -37,-18 -12,-10 -22,-24 -33,-43 l 99,-53 3,6 c 6,11 13,17 21,17 8,0 22,-6 42,-17 19,-10 31,-19 36,-26 5,-7 5,-16 -1,-26 -4,-7 -8,-13 -13,-15 -4,-3 -10,-4 -16,-2 -7,1 -16,5 -28,11 -31,16 -54,27 -68,33 -14,7 -28,11 -40,13 -21,4 -39,1 -54,-8 -15,-9 -29,-25 -42,-49 -10,-19 -16,-35 -18,-49 -1,-14 1,-28 8,-40 7,-12 19,-25 35,-38 17,-12 40,-26 69,-42 35,-19 63,-31 85,-36 21,-5 39,-3 54,6 14,8 28,24 41,47 z"
       inkscape:connector-curvature="0"
       style="fill:#e2001a;fill-rule:nonzero" /><polygon
       id="7"
       class="fil3"
       points="-776,7694 -972,7753 -946,7842 -732,7779 -701,7880 -1040,7980 -1176,7519 -842,7420 -812,7522 -1022,7584 -998,7667 -801,7609 "
       style="fill:#e2001a;fill-rule:nonzero" /><path
       id="8"
       class="fil3"
       d="m -618,7869 -44,-253 -44,8 -13,-79 43,-7 -4,-24 c -5,-25 -6,-45 -5,-60 2,-14 6,-27 13,-37 11,-13 25,-23 44,-31 18,-8 45,-15 79,-21 l 13,-3 13,-2 14,81 c -9,0 -17,0 -25,1 -17,3 -29,9 -34,17 -6,8 -7,21 -3,40 l 3,20 75,-13 14,78 -75,13 44,254 -108,18 z"
       inkscape:connector-curvature="0"
       style="fill:#e2001a;fill-rule:nonzero" /><path
       id="9"
       class="fil3"
       d="m -358,7828 -21,-257 -43,3 -7,-78 44,-4 -2,-24 c -2,-25 -2,-45 1,-60 3,-15 8,-27 16,-36 12,-12 27,-21 46,-28 19,-6 46,-10 81,-13 l 13,-1 13,-1 7,80 c -9,-1 -18,-1 -25,0 -18,1 -30,6 -36,13 -6,8 -8,21 -7,40 l 2,21 77,-6 6,79 -77,6 21,257 -109,9 z"
       inkscape:connector-curvature="0"
       style="fill:#e2001a;fill-rule:nonzero" /><path
       id="10"
       class="fil3"
       d="m 199,7476 -4,337 -111,-1 7,-70 -2,0 c -7,25 -20,44 -37,55 -17,12 -39,17 -68,17 -38,0 -67,-10 -85,-28 -18,-19 -27,-47 -26,-86 l 3,-228 110,1 -2,193 c 0,16 0,27 0,31 1,5 2,9 4,14 6,11 19,17 40,18 25,0 43,-9 53,-27 3,-7 5,-25 5,-52 l 3,-176 110,2 z"
       inkscape:connector-curvature="0"
       style="fill:#e2001a;fill-rule:nonzero" /><path
       id="11"
       class="fil3"
       d="m 632,7527 -45,327 c -4,31 -10,56 -19,75 -8,19 -20,33 -34,43 -14,10 -33,15 -55,18 -23,2 -52,0 -87,-4 -29,-4 -53,-10 -71,-16 -19,-7 -33,-15 -43,-25 -10,-10 -16,-21 -18,-35 -3,-11 -2,-33 1,-63 l 104,14 c -2,17 -1,28 5,34 5,5 17,10 37,12 23,4 40,2 49,-3 10,-6 16,-18 18,-36 l 11,-81 -2,-1 c -10,19 -23,32 -39,40 -17,7 -38,9 -62,6 -24,-3 -44,-10 -62,-20 -18,-11 -31,-23 -38,-38 -7,-13 -10,-29 -11,-49 0,-20 2,-50 7,-87 4,-30 10,-55 17,-76 8,-20 17,-36 28,-46 11,-11 24,-18 41,-22 16,-3 36,-3 60,0 30,4 52,12 65,24 14,12 23,31 28,57 l 2,0 4,-63 109,15 z m -179,56 c -18,-3 -30,-3 -38,0 -7,3 -13,10 -17,22 -4,12 -8,32 -12,60 -2,17 -3,31 -3,42 0,11 1,20 5,26 3,7 8,11 15,14 6,3 16,5 29,7 16,2 28,2 36,-1 8,-2 14,-9 19,-18 4,-10 7,-26 10,-47 4,-31 6,-53 5,-66 0,-13 -4,-22 -11,-28 -7,-5 -20,-9 -38,-11 z"
       inkscape:connector-curvature="0"
       style="fill:#e2001a;fill-rule:nonzero" /><path
       id="12"
       class="fil3"
       d="m 870,7431 -18,79 -108,-24 18,-79 108,24 z m -32,141 -73,328 -108,-24 74,-328 107,24 z"
       inkscape:connector-curvature="0"
       style="fill:#e2001a;fill-rule:nonzero" /><path
       id="13"
       class="fil3"
       d="m 1182,7675 -25,75 -121,-40 -43,130 c -6,16 -8,28 -7,35 1,7 6,12 15,15 12,4 21,3 27,-3 6,-5 13,-19 20,-40 l 2,-6 83,28 c -1,3 -2,5 -2,7 -1,2 -2,3 -3,5 -10,30 -18,50 -24,60 -6,10 -14,19 -24,25 -8,6 -17,9 -28,11 -11,1 -24,1 -38,-2 -15,-3 -33,-7 -53,-14 -29,-10 -50,-20 -63,-32 -14,-11 -22,-26 -26,-43 -2,-9 -2,-17 0,-26 1,-9 4,-21 9,-35 l 51,-150 -39,-13 25,-76 39,14 22,-68 105,36 -22,67 120,40 z"
       inkscape:connector-curvature="0"
       style="fill:#e2001a;fill-rule:nonzero" /><circle
       class="fil4"
       cy="11000"
       r="3898"
       id="circle3853"
       cx="0"
       style="fill:none" /><circle
       class="fil4"
       cy="11000"
       r="3898"
       id="circle3855"
       cx="0"
       style="fill:none" /><g
       id="_879305984"><path
         class="fil2"
         d="m 2285,9343 731,-422 c 94,-54 215,-22 269,72 l 79,136 c 54,94 22,215 -72,269 l -1720,993 c 48,13 91,45 118,91 l 79,136 c 54,94 21,215 -72,269 l -3802,2195 c -94,54 -215,22 -269,-72 l -79,-136 c -27,-47 -32,-100 -20,-148 l -543,314 c -94,54 -215,22 -269,-72 l -79,-137 c -54,-93 -22,-214 72,-268 l 1720,-993 c -48,-14 -91,-45 -118,-91 l -79,-137 c -54,-94 -21,-214 72,-269 L 1918,8987 c 93,-54 214,-22 268,72 l 79,136 c 27,47 33,99 20,148 z"
         id="path3858"
         inkscape:connector-curvature="0"
         style="fill:#ffffff" /></g><path
       class="fil0"
       d="m -1598,11244 3614,-2087 79,137 -3614,2086 -79,-136 z m -684,1531 3801,-2195 79,137 -3802,2195 -78,-137 z m -911,-42 6307,-3642 79,137 -6307,3641 -79,-136 z"
       id="path3860"
       inkscape:connector-curvature="0"
       style="fill:#0080b1" /><g
       id="_879315584"><path
         class="fil2"
         d="m 1864,13489 332,-286 223,-258 c 17,-19 36,-37 58,-50 14,-8 30,-14 47,-16 -1,-7 -1,-14 -1,-21 2,-21 8,-42 16,-61 9,-20 20,-40 30,-59 17,-32 36,-63 56,-94 11,-17 22,-34 33,-51 10,-15 21,-30 32,-43 10,-12 21,-23 34,-32 13,-11 28,-18 44,-22 15,-3 30,-5 46,-4 14,2 28,5 42,10 13,4 25,10 38,17 13,7 25,15 38,23 l 33,21 -18,28 c 22,-6 45,-6 68,0 32,7 66,25 94,43 21,14 42,29 61,47 15,16 29,33 37,54 8,19 12,40 10,61 -2,21 -9,41 -17,60 -9,19 -20,39 -30,58 -19,35 -40,69 -62,102 -21,34 -44,68 -69,98 -19,24 -44,46 -75,54 -9,3 -17,4 -26,5 l 42,36 -131,152 -81,-70 c -4,-4 -15,-12 -21,-15 -3,2 -6,6 -7,7 l -106,122 101,88 -131,152 -3,-3 -388,336 -258,-299 -102,66 210,327 -169,109 -210,-327 -150,96 -4,-7 -126,57 160,354 -183,83 -160,-354 -83,37 43,150 c 12,43 21,92 15,137 -6,41 -26,76 -59,103 -20,16 -43,27 -67,36 -27,10 -55,18 -82,26 -29,8 -58,16 -87,24 -25,7 -50,13 -76,16 -23,3 -46,2 -69,-2 -24,-5 -46,-16 -64,-32 -20,-18 -35,-40 -46,-63 -15,-28 -26,-59 -34,-90 l -28,-96 -191,14 -4,-38 c 0,-5 -1,-14 -3,-20 -6,-1 -15,0 -20,0 -21,1 -42,3 -63,4 -23,2 -46,4 -70,7 -6,1 -17,2 -22,6 -2,2 -3,9 -3,10 -3,19 -2,42 0,61 2,28 4,57 9,85 1,6 4,19 8,23 3,3 12,4 16,4 24,0 50,-1 74,-3 21,-2 41,-3 62,-5 7,0 18,-2 24,-5 0,0 0,0 0,0 2,-7 1,-23 1,-31 l -3,-39 197,-15 3,39 c 0,3 0,6 1,9 0,5 1,9 1,14 2,25 3,50 2,75 -1,21 -5,43 -12,64 -7,19 -18,37 -34,51 -16,14 -35,23 -56,27 -25,6 -50,11 -74,14 -22,4 -44,7 -66,8 -59,5 -118,7 -178,7 -26,-1 -51,-6 -74,-20 -23,-14 -41,-34 -53,-57 -15,-26 -24,-55 -30,-84 -8,-37 -12,-75 -15,-113 -2,-24 -4,-49 -5,-73 -1,-22 -2,-44 0,-66 1,-20 4,-39 9,-59 5,-19 14,-38 25,-55 12,-17 27,-32 45,-43 17,-10 36,-18 56,-23 21,-5 43,-9 65,-11 26,-3 52,-5 78,-7 40,-3 82,-6 123,-5 32,0 66,5 95,21 7,4 14,8 20,14 l -9,-33 193,-56 86,300 c 4,16 9,33 15,49 3,8 6,16 11,23 1,1 2,2 1,2 2,1 7,1 9,1 10,-1 21,-4 31,-6 17,-5 35,-10 52,-15 14,-4 27,-7 41,-11 8,-3 17,-6 25,-9 3,-2 7,-4 10,-6 0,0 0,-1 0,-2 l 0,0 1,-1 c 2,-6 1,-14 -1,-21 -4,-18 -9,-36 -14,-54 l -86,-301 187,-54 403,-182 0,0 387,-249 z m 962,-781 c -3,-1 -6,-3 -9,-4 -3,2 -5,5 -7,7 -8,11 -15,22 -23,33 -1,2 -2,5 -3,6 -1,1 -1,1 -1,2 l -1,2 -1,2 c -11,19 -22,39 -34,58 -6,8 -12,19 -16,29 2,1 4,2 5,3 0,0 0,0 0,0 1,-1 1,-1 1,-2 10,-14 19,-28 29,-42 8,-12 16,-24 24,-36 5,-7 9,-14 13,-21 5,-8 9,-15 14,-23 3,-5 6,-9 9,-14 z m -51,368 11,-17 c -5,1 -9,2 -14,2 0,0 0,0 0,0 1,5 2,10 2,15 1,0 1,0 1,0 z m 130,-126 c 3,2 7,5 11,7 0,0 1,-1 1,-1 6,-7 11,-15 16,-22 9,-14 19,-29 28,-43 12,-19 24,-38 35,-57 5,-7 11,-17 13,-26 -1,-1 -2,-1 -3,-2 -1,-1 -3,-2 -5,-3 -2,2 -4,4 -5,6 -6,8 -11,16 -16,24 -19,29 -37,57 -56,86 -6,11 -13,21 -19,31 z m -453,563 -11,-9 -215,186 9,11 217,-188 z m -149,-129 -9,-8 -194,168 7,9 196,-169 z m 176,-113 93,-107 c 3,-3 6,-7 9,-9 1,-1 1,-2 2,-2 4,-5 9,-11 12,-17 0,0 0,0 0,0 -7,-7 -15,-15 -23,-21 -4,-4 -11,-10 -16,-13 -7,6 -13,13 -19,20 l -99,114 41,35 z"
         id="path3863"
         inkscape:connector-curvature="0"
         style="fill:#ffffff" /></g><path
       class="fil3"
       d="m 428,14301 c -1,-16 -4,-28 -8,-36 -4,-8 -10,-13 -19,-16 -9,-3 -21,-4 -37,-3 -17,1 -38,2 -64,4 -29,2 -53,5 -71,7 -18,2 -32,7 -42,14 -10,8 -16,19 -18,36 -3,16 -3,39 -1,69 3,38 7,67 10,88 3,21 10,36 19,45 10,10 24,15 43,15 19,1 45,0 78,-3 25,-2 46,-3 62,-5 17,-1 30,-4 39,-9 10,-5 16,-12 19,-23 4,-10 5,-26 3,-46 l 119,-9 c 0,4 0,8 1,12 0,3 1,7 1,11 2,26 2,49 1,70 -1,20 -4,38 -9,52 -5,14 -13,26 -23,35 -10,9 -23,16 -39,19 -25,5 -49,10 -72,14 -22,3 -43,6 -62,7 -62,5 -120,7 -174,6 -21,0 -40,-4 -55,-14 -15,-9 -28,-23 -39,-42 -11,-19 -19,-44 -26,-74 -6,-29 -11,-65 -14,-107 -2,-26 -4,-50 -5,-72 -1,-22 -1,-43 0,-61 1,-19 4,-36 8,-52 4,-15 11,-30 20,-43 9,-13 19,-23 32,-31 13,-8 28,-14 46,-18 17,-5 37,-8 60,-11 22,-2 47,-5 76,-7 48,-3 88,-5 120,-5 32,0 57,6 76,16 19,11 33,28 42,53 9,25 16,60 20,105 l -117,9 z m 508,-300 117,-34 90,314 c 14,48 18,88 14,120 -5,31 -20,58 -45,78 -14,12 -33,22 -56,30 -23,8 -49,16 -79,25 -32,9 -60,17 -86,24 -26,7 -49,12 -70,15 -21,2 -40,2 -57,-2 -17,-3 -32,-11 -46,-23 -14,-12 -26,-29 -37,-51 -12,-21 -22,-49 -32,-83 l -87,-306 117,-34 75,262 c 6,21 11,38 16,51 5,14 10,25 16,33 5,8 12,13 19,16 7,3 16,4 27,3 10,-1 23,-3 37,-7 15,-4 32,-9 53,-15 15,-4 29,-8 40,-11 12,-4 22,-7 31,-11 9,-4 16,-9 21,-14 5,-5 9,-11 11,-19 4,-12 4,-26 1,-41 -4,-15 -8,-34 -15,-56 l -75,-264 z m 416,-21 160,355 -111,50 -161,-354 -162,73 -53,-119 432,-195 54,118 -159,72 z m 446,-247 211,327 -103,66 -210,-327 -150,96 -70,-109 399,-257 70,110 -147,94 z m 419,190 -339,-393 335,-289 76,88 -245,211 59,68 229,-197 67,78 -229,197 61,70 244,-211 77,88 -335,290 z m 266,-596 119,-137 c 2,-3 4,-5 5,-6 2,-1 4,-3 6,-6 9,-10 16,-20 19,-27 4,-8 5,-15 4,-21 -2,-7 -5,-14 -12,-21 -6,-7 -15,-15 -26,-24 -11,-9 -20,-16 -27,-19 -8,-4 -15,-5 -21,-4 -7,1 -14,4 -20,10 -7,6 -14,14 -23,24 l -124,144 100,87 z m 96,82 101,88 -80,92 -392,-339 241,-279 c 16,-19 32,-33 47,-41 16,-9 32,-13 49,-13 16,1 34,6 53,16 18,10 39,25 62,45 23,20 41,38 52,52 11,15 18,29 21,41 3,12 3,24 0,36 -3,11 -7,24 -12,37 10,-6 19,-12 27,-18 8,-6 18,-10 27,-11 10,-1 21,1 34,6 12,5 27,16 45,31 l 71,61 -80,93 -52,-45 c -16,-15 -31,-23 -44,-25 -12,-1 -26,6 -39,22 l -131,151 z m 268,-734 c -11,-6 -19,-10 -27,-11 -7,-2 -14,-1 -21,4 -6,4 -13,10 -20,19 -7,9 -15,21 -25,36 -2,3 -3,5 -4,7 -1,1 -2,4 -3,7 -13,22 -24,41 -33,55 -10,15 -16,28 -20,38 -4,10 -4,19 -2,26 3,8 10,15 23,23 11,7 21,9 30,7 9,-3 18,-9 25,-20 10,-14 19,-28 28,-42 10,-13 18,-25 25,-37 5,-7 9,-15 14,-22 4,-8 9,-15 13,-22 18,-27 34,-51 49,-70 15,-19 31,-33 48,-40 17,-8 37,-9 59,-4 22,5 49,18 82,38 22,15 40,29 54,42 14,14 23,27 29,41 6,14 8,28 7,43 -2,14 -6,30 -14,47 -4,10 -14,28 -29,55 -14,27 -34,60 -60,100 -25,40 -47,71 -66,94 -19,23 -37,37 -55,41 -13,4 -24,5 -35,3 -11,-2 -22,-5 -33,-9 -10,-5 -21,-11 -32,-18 -11,-7 -24,-15 -37,-23 l 65,-101 c 4,3 9,6 15,10 5,3 10,5 15,6 6,1 11,0 17,-2 6,-2 13,-7 19,-16 3,-4 9,-12 17,-23 8,-12 18,-27 29,-45 15,-23 27,-43 36,-58 9,-15 15,-28 18,-38 3,-10 2,-18 -1,-24 -3,-6 -10,-13 -20,-19 -10,-6 -18,-10 -26,-10 -7,-1 -14,1 -20,5 -6,4 -12,10 -17,18 -5,8 -11,16 -17,25 -21,33 -40,62 -56,87 -16,26 -31,48 -45,65 -13,18 -26,32 -39,42 -13,10 -26,16 -41,17 -14,2 -31,0 -49,-7 -18,-6 -39,-17 -63,-33 -21,-13 -39,-26 -53,-39 -14,-13 -24,-26 -30,-40 -7,-13 -9,-28 -8,-42 1,-15 5,-31 13,-49 5,-11 14,-30 27,-55 14,-25 32,-56 55,-92 12,-19 23,-36 33,-51 10,-15 20,-28 29,-39 9,-10 19,-19 28,-26 9,-7 19,-12 29,-14 12,-3 23,-4 34,-3 10,0 21,3 31,7 11,3 21,8 33,15 11,6 23,13 35,21 l -63,100 z"
       id="path3865"
       inkscape:connector-curvature="0"
       style="fill:#e2001a;fill-rule:nonzero" /></g></svg>