<?xml version="1.0" encoding="UTF-8" standalone="no"?>
<!-- Creator: CorelDRAW X7 -->

<svg
   xmlns:dc="http://purl.org/dc/elements/1.1/"
   xmlns:cc="http://creativecommons.org/ns#"
   xmlns:rdf="http://www.w3.org/1999/02/22-rdf-syntax-ns#"
   xmlns:svg="http://www.w3.org/2000/svg"
   xmlns="http://www.w3.org/2000/svg"
   xmlns:sodipodi="http://sodipodi.sourceforge.net/DTD/sodipodi-0.dtd"
   xmlns:inkscape="http://www.inkscape.org/namespaces/inkscape"
   xml:space="preserve"
   width="7.8740005in"
   height="7.8740005in"
   version="1.1"
   style="clip-rule:evenodd;fill-rule:evenodd;image-rendering:optimizeQuality;shape-rendering:geometricPrecision;text-rendering:geometricPrecision"
   viewBox="0 0 7874.0005 7874.0005"
   id="svg18880"
   inkscape:version="0.91 r13725"
   sodipodi:docname="image_6054.svg"><metadata
     id="metadata18896"><rdf:RDF><cc:Work
         rdf:about=""><dc:format>image/svg+xml</dc:format><dc:type
           rdf:resource="http://purl.org/dc/dcmitype/StillImage" /></cc:Work></rdf:RDF></metadata><sodipodi:namedview
     pagecolor="#ffffff"
     bordercolor="#666666"
     borderopacity="1"
     objecttolerance="10"
     gridtolerance="10"
     guidetolerance="10"
     inkscape:pageopacity="0"
     inkscape:pageshadow="2"
     inkscape:window-width="640"
     inkscape:window-height="480"
     id="namedview18894"
     showgrid="false"
     inkscape:zoom="0.23838384"
     inkscape:cx="736.83001"
     inkscape:cy="849.33005"
     inkscape:window-x="0"
     inkscape:window-y="0"
     inkscape:window-maximized="0"
     inkscape:current-layer="svg18880" /><defs
     id="defs18882"><style
       type="text/css"
       id="style18884"><![CDATA[
    .fil0 {fill:black}
    .fil1 {fill:#F6E50D}
   ]]></style></defs><g
     id="Layer_x0020_1"
     transform="translate(3937,-7063)"><metadata
       id="CorelCorpID_0Corel-Layer" /><circle
       class="fil0"
       cy="11000"
       r="3937"
       id="circle18888"
       cx="0"
       style="fill:#000000" /><polygon
       class="fil1"
       points="1705,13953 -1705,13953 -3410,11000 -1705,8047 1705,8047 3410,11000 "
       id="polygon18890"
       style="fill:#f6e50d" /><path
       class="fil0"
       d="m 0,14071 c 167,0 331,-13 491,-39 -17,-157 -62,-416 -82,-509 -8,-40 22,-86 56,-109 362,-249 637,-642 464,-1200 402,178 606,518 578,878 -2,23 -16,37 -35,27 -107,-59 -204,-74 -269,19 -82,116 92,281 156,326 64,45 61,67 51,89 -30,70 -64,119 -109,171 -15,17 -40,-1 -70,-37 -58,-72 -136,-145 -214,-91 -80,56 -27,175 25,249 16,26 47,27 85,12 966,-381 1692,-1238 1890,-2281 9,-50 -2,-63 -21,-65 -33,-4 -66,-4 -95,-2 -212,12 -173,215 -431,255 -390,61 -1053,63 -1236,-71 370,-20 1128,-142 1443,-496 48,-54 184,-125 306,-168 47,-17 90,-17 86,-135 -11,-313 -68,-614 -166,-897 -500,597 -1604,1542 -1941,1541 -52,-1 -114,-29 -150,-95 -228,-419 -402,-758 -182,-1073 403,-576 1028,-1355 1293,-1640 25,-27 80,-60 4,-121 C 1400,8184 730,7929 0,7929 c -730,0 -1400,255 -1927,680 -76,61 -21,94 4,121 265,285 890,1064 1293,1640 220,315 46,654 -182,1073 -36,66 -98,94 -150,95 -337,1 -1441,-944 -1941,-1541 -98,283 -155,584 -166,897 -4,118 39,118 86,135 122,43 258,114 306,168 315,354 1073,476 1443,496 -183,134 -846,132 -1236,71 -258,-40 -219,-243 -431,-255 -29,-2 -62,-2 -95,2 -19,2 -30,15 -21,65 198,1043 924,1900 1890,2281 38,15 69,14 85,-12 52,-74 105,-193 25,-249 -78,-54 -156,19 -214,91 -30,36 -55,54 -70,37 -45,-52 -79,-101 -109,-171 -10,-22 -13,-44 51,-89 64,-45 238,-210 156,-326 -65,-93 -162,-78 -269,-19 -19,10 -33,-4 -35,-27 -28,-360 176,-700 578,-878 -173,558 102,951 464,1200 34,23 64,69 56,109 -20,93 -65,352 -82,509 160,26 324,39 491,39 z"
       id="path18892"
       inkscape:connector-curvature="0"
       style="fill:#000000" /></g></svg>