<?xml version="1.0" encoding="UTF-8" standalone="no"?>
<!-- Creator: CorelDRAW X7 -->

<svg
   xmlns:dc="http://purl.org/dc/elements/1.1/"
   xmlns:cc="http://creativecommons.org/ns#"
   xmlns:rdf="http://www.w3.org/1999/02/22-rdf-syntax-ns#"
   xmlns:svg="http://www.w3.org/2000/svg"
   xmlns="http://www.w3.org/2000/svg"
   xmlns:sodipodi="http://sodipodi.sourceforge.net/DTD/sodipodi-0.dtd"
   xmlns:inkscape="http://www.inkscape.org/namespaces/inkscape"
   xml:space="preserve"
   width="7.8740005in"
   height="7.8740005in"
   version="1.1"
   style="clip-rule:evenodd;fill-rule:evenodd;image-rendering:optimizeQuality;shape-rendering:geometricPrecision;text-rendering:geometricPrecision"
   viewBox="0 0 7874.0005 7874.0005"
   id="svg9301"
   inkscape:version="0.91 r13725"
   sodipodi:docname="image_4042.svg"><metadata
     id="metadata9317"><rdf:RDF><cc:Work
         rdf:about=""><dc:format>image/svg+xml</dc:format><dc:type
           rdf:resource="http://purl.org/dc/dcmitype/StillImage" /></cc:Work></rdf:RDF></metadata><sodipodi:namedview
     pagecolor="#ffffff"
     bordercolor="#666666"
     borderopacity="1"
     objecttolerance="10"
     gridtolerance="10"
     guidetolerance="10"
     inkscape:pageopacity="0"
     inkscape:pageshadow="2"
     inkscape:window-width="640"
     inkscape:window-height="480"
     id="namedview9315"
     showgrid="false"
     inkscape:zoom="0.23838384"
     inkscape:cx="736.83001"
     inkscape:cy="849.33005"
     inkscape:window-x="0"
     inkscape:window-y="0"
     inkscape:window-maximized="0"
     inkscape:current-layer="svg9301" /><defs
     id="defs9303"><style
       type="text/css"
       id="style9305"><![CDATA[
    .fil1 {fill:#B2C801}
    .fil0 {fill:#EECE00}
    .fil2 {fill:white}
   ]]></style></defs><g
     id="Layer_x0020_1"
     transform="translate(3937,-7063)"><metadata
       id="CorelCorpID_0Corel-Layer" /><circle
       class="fil0"
       cy="11000"
       r="3937"
       id="circle9309"
       cx="0"
       style="fill:#eece00" /><circle
       class="fil1"
       cy="11000"
       r="3819"
       id="circle9311"
       cx="0"
       style="fill:#b2c801" /><path
       class="fil2"
       d="m 101,9192 c 568,31 1066,324 1376,760 -292,-335 -722,-546 -1201,-546 -50,0 -100,2 -148,6 59,456 142,856 261,1199 769,266 1820,356 3154,389 -1334,33 -2385,123 -3154,389 -119,343 -202,743 -261,1199 48,4 98,6 148,6 479,0 909,-211 1201,-546 -310,436 -808,729 -1376,760 -56,513 -85,1091 -101,1735 -16,-644 -45,-1222 -101,-1735 -920,-51 -1656,-787 -1707,-1707 -513,-56 -1091,-85 -1735,-101 644,-16 1222,-45 1735,-101 51,-920 787,-1656 1707,-1707 56,-513 85,-1091 101,-1735 16,644 45,1222 101,1735 z m -235,267 c -630,166 -1107,709 -1176,1373 342,-55 649,-127 921,-221 115,-332 196,-716 255,-1152 z m -1176,1709 c 69,664 546,1207 1176,1373 -59,-436 -140,-820 -255,-1152 -272,-94 -579,-166 -921,-221 z"
       id="path9313"
       inkscape:connector-curvature="0"
       style="fill:#ffffff" /></g></svg>