<?xml version="1.0" encoding="UTF-8" standalone="no"?>
<!-- Creator: CorelDRAW X7 -->

<svg
   xmlns:dc="http://purl.org/dc/elements/1.1/"
   xmlns:cc="http://creativecommons.org/ns#"
   xmlns:rdf="http://www.w3.org/1999/02/22-rdf-syntax-ns#"
   xmlns:svg="http://www.w3.org/2000/svg"
   xmlns="http://www.w3.org/2000/svg"
   xmlns:sodipodi="http://sodipodi.sourceforge.net/DTD/sodipodi-0.dtd"
   xmlns:inkscape="http://www.inkscape.org/namespaces/inkscape"
   xml:space="preserve"
   width="7.8740005in"
   height="7.8740005in"
   version="1.1"
   style="clip-rule:evenodd;fill-rule:evenodd;image-rendering:optimizeQuality;shape-rendering:geometricPrecision;text-rendering:geometricPrecision"
   viewBox="0 0 7874.0005 7874.0005"
   id="svg23954"
   inkscape:version="0.91 r13725"
   sodipodi:docname="image_7039.svg"><metadata
     id="metadata23974"><rdf:RDF><cc:Work
         rdf:about=""><dc:format>image/svg+xml</dc:format><dc:type
           rdf:resource="http://purl.org/dc/dcmitype/StillImage" /></cc:Work></rdf:RDF></metadata><sodipodi:namedview
     pagecolor="#ffffff"
     bordercolor="#666666"
     borderopacity="1"
     objecttolerance="10"
     gridtolerance="10"
     guidetolerance="10"
     inkscape:pageopacity="0"
     inkscape:pageshadow="2"
     inkscape:window-width="640"
     inkscape:window-height="480"
     id="namedview23972"
     showgrid="false"
     inkscape:zoom="0.23838384"
     inkscape:cx="736.83001"
     inkscape:cy="849.33005"
     inkscape:window-x="0"
     inkscape:window-y="0"
     inkscape:window-maximized="0"
     inkscape:current-layer="svg23954" /><defs
     id="defs23956"><style
       type="text/css"
       id="style23958"><![CDATA[
    .fil2 {fill:none}
    .fil1 {fill:black}
    .fil0 {fill:white}
    .fil3 {fill:white;fill-rule:nonzero}
   ]]></style></defs><g
     id="Layer_x0020_1"
     transform="translate(3937,-7063)"><metadata
       id="CorelCorpID_0Corel-Layer" /><circle
       class="fil0"
       cy="11000"
       r="3937"
       id="circle23962"
       cx="0"
       style="fill:#ffffff" /><path
       class="fil1"
       d="M -1364,12052 0,7063 1364,12052 c -372,302 -847,483 -1364,483 -517,0 -992,-181 -1364,-483 z"
       id="path23964"
       inkscape:connector-curvature="0"
       style="fill:#000000" /><path
       class="fil1"
       d="m 741,7293 c 1733,345 3039,1873 3039,3707 0,2087 -1693,3780 -3780,3780 -2087,0 -3780,-1693 -3780,-3780 0,-1834 1306,-3362 3039,-3707 57,-11 113,26 124,83 12,58 -25,114 -83,125 l 0,0 c -1293,314 -2253,1479 -2253,2869 0,1631 1322,2953 2953,2953 1631,0 2953,-1322 2953,-2953 0,-1390 -960,-2555 -2253,-2869 l 0,0 c -58,-11 -95,-67 -83,-125 11,-57 67,-94 124,-83 z"
       id="path23966"
       inkscape:connector-curvature="0"
       style="fill:#000000" /><circle
       class="fil2"
       cy="11000"
       r="3898"
       id="circle23968"
       cx="0"
       style="fill:none" /><path
       class="fil3"
       d="m -1772,12888 565,400 -118,166 -51,-36 c 11,-33 19,-60 23,-81 4,-21 4,-39 2,-53 -2,-14 -7,-27 -14,-37 -7,-10 -21,-22 -40,-36 l -66,-47 -347,490 c -13,19 -22,35 -28,47 -6,13 -9,24 -9,34 1,10 3,20 9,29 5,9 15,22 30,37 l -17,24 -238,-169 16,-24 c 12,6 23,10 33,13 10,3 19,5 26,4 8,0 15,-1 23,-5 7,-3 15,-9 24,-18 9,-8 20,-22 34,-41 l 347,-490 -66,-46 c -16,-12 -31,-20 -44,-25 -12,-4 -26,-5 -42,-3 -15,3 -33,10 -52,22 -19,11 -41,27 -66,48 l -52,-37 118,-166 z m 655,1207 c -97,25 -192,17 -285,-25 -63,-30 -107,-64 -131,-105 -24,-40 -25,-82 -5,-126 14,-32 40,-55 76,-69 36,-13 81,-16 132,-6 l 3,-6 c -74,-58 -97,-118 -69,-178 16,-36 49,-57 98,-62 50,-5 108,9 177,40 48,22 103,59 163,110 l -42,92 -59,-27 c 0,-64 -31,-109 -91,-137 -30,-14 -59,-18 -85,-12 -26,6 -45,22 -57,48 -14,32 -13,60 3,85 17,25 54,51 113,77 l 33,15 -27,58 -52,-24 c -51,-23 -93,-33 -127,-28 -33,5 -58,23 -72,55 -29,63 -2,114 83,152 63,30 132,36 205,19 l 16,54 z m 204,-353 -17,-38 c 51,-22 95,-30 131,-21 36,8 60,25 70,52 11,27 10,66 -2,118 l -39,174 c -29,124 5,196 99,218 49,11 92,2 129,-28 36,-29 62,-77 77,-142 27,-122 21,-215 -19,-277 l 7,-31 119,27 c 20,77 18,164 -4,262 -20,88 -63,156 -127,202 -64,47 -138,60 -222,41 -79,-18 -131,-51 -157,-99 -26,-48 -30,-112 -12,-194 l 37,-163 c 11,-46 15,-74 12,-86 -2,-12 -10,-20 -23,-23 -12,-2 -32,0 -59,8 z m 564,-191 47,35 c -14,20 -28,36 -41,48 -14,13 -26,22 -39,28 -13,6 -26,9 -39,10 -12,1 -26,0 -39,-3 -16,-4 -32,-11 -50,-22 -18,-11 -36,-22 -53,-34 -18,-12 -34,-23 -50,-34 -15,-10 -28,-17 -39,-19 -8,-2 -16,-3 -24,-3 -7,1 -15,2 -22,5 -8,4 -15,8 -23,15 -7,7 -15,16 -24,27 l -44,-30 c 11,-15 21,-28 30,-38 9,-11 18,-19 25,-25 15,-14 32,-22 49,-26 16,-3 35,-2 57,3 14,3 30,10 48,21 18,11 35,22 53,34 18,12 35,24 50,34 16,11 29,17 40,20 31,7 61,-8 88,-46 z m 736,761 c -49,37 -98,57 -148,57 -30,1 -54,-6 -74,-21 -20,-14 -41,-38 -61,-72 l -122,-196 c -17,14 -42,30 -75,48 l 4,238 -110,1 -6,-400 c -1,-51 -5,-83 -12,-98 -7,-14 -30,-24 -69,-29 l -1,-31 149,-9 40,-1 5,278 c 47,-30 107,-86 179,-169 48,-55 83,-89 105,-101 23,-13 47,-19 74,-20 23,0 45,2 64,8 l 2,111 -51,1 c -10,-18 -25,-26 -46,-26 -17,1 -36,8 -56,23 -19,15 -58,53 -117,114 l 157,233 c 25,38 52,56 80,55 21,0 42,-10 63,-28 l 26,34 z m 197,-35 66,287 -107,25 -116,-504 c -47,-201 23,-322 209,-365 78,-18 144,-9 198,28 53,38 90,98 110,183 22,97 16,176 -19,239 -36,62 -93,102 -174,121 -61,14 -117,9 -167,-14 z m -47,-204 21,94 c 8,33 28,57 62,71 33,15 69,18 108,9 104,-25 139,-112 104,-263 -38,-166 -104,-237 -198,-216 -106,25 -138,126 -97,305 z m 883,-10 c -81,36 -153,42 -215,18 -62,-24 -113,-79 -151,-165 -27,-58 -38,-113 -34,-164 4,-50 21,-95 51,-132 30,-37 69,-67 119,-89 83,-38 156,-44 219,-19 63,25 113,79 150,162 27,59 39,114 36,164 -3,50 -20,94 -50,132 -30,38 -72,69 -125,93 z m -261,-208 c 33,74 71,124 114,152 43,28 89,31 136,10 26,-12 46,-28 59,-48 13,-19 20,-42 23,-66 3,-25 1,-52 -6,-80 -6,-28 -16,-56 -29,-84 -24,-52 -50,-93 -78,-122 -28,-29 -57,-46 -86,-53 -29,-6 -57,-3 -85,10 -47,21 -75,56 -83,105 -8,49 4,107 35,176 z m 714,-727 64,88 -64,46 c -52,-33 -101,-33 -148,0 -35,25 -53,60 -55,107 -2,47 16,96 54,149 33,47 69,76 106,89 38,12 94,6 169,-19 50,-16 88,-23 116,-21 27,2 51,16 70,43 22,31 31,70 26,117 -5,47 -21,104 -48,172 l -55,-12 c 33,-89 35,-153 7,-193 -13,-17 -27,-27 -44,-28 -17,-2 -40,2 -70,11 -94,29 -168,38 -222,24 -54,-14 -101,-49 -141,-105 -46,-65 -62,-133 -48,-205 14,-72 57,-134 129,-185 48,-34 100,-61 154,-78 z"
       id="path23970"
       inkscape:connector-curvature="0"
       style="fill:#ffffff;fill-rule:nonzero" /></g></svg>