<?xml version="1.0" encoding="UTF-8" standalone="no"?>
<!-- Creator: CorelDRAW X7 -->

<svg
   xmlns:dc="http://purl.org/dc/elements/1.1/"
   xmlns:cc="http://creativecommons.org/ns#"
   xmlns:rdf="http://www.w3.org/1999/02/22-rdf-syntax-ns#"
   xmlns:svg="http://www.w3.org/2000/svg"
   xmlns="http://www.w3.org/2000/svg"
   xmlns:sodipodi="http://sodipodi.sourceforge.net/DTD/sodipodi-0.dtd"
   xmlns:inkscape="http://www.inkscape.org/namespaces/inkscape"
   xml:space="preserve"
   width="7.8740005in"
   height="7.8740005in"
   version="1.1"
   style="clip-rule:evenodd;fill-rule:evenodd;image-rendering:optimizeQuality;shape-rendering:geometricPrecision;text-rendering:geometricPrecision"
   viewBox="0 0 7874.0005 7874.0005"
   id="svg22254"
   inkscape:version="0.91 r13725"
   sodipodi:docname="image_7032.svg"><metadata
     id="metadata22276"><rdf:RDF><cc:Work
         rdf:about=""><dc:format>image/svg+xml</dc:format><dc:type
           rdf:resource="http://purl.org/dc/dcmitype/StillImage" /></cc:Work></rdf:RDF></metadata><sodipodi:namedview
     pagecolor="#ffffff"
     bordercolor="#666666"
     borderopacity="1"
     objecttolerance="10"
     gridtolerance="10"
     guidetolerance="10"
     inkscape:pageopacity="0"
     inkscape:pageshadow="2"
     inkscape:window-width="640"
     inkscape:window-height="480"
     id="namedview22274"
     showgrid="false"
     inkscape:zoom="0.23838384"
     inkscape:cx="736.83001"
     inkscape:cy="849.33005"
     inkscape:window-x="0"
     inkscape:window-y="0"
     inkscape:window-maximized="0"
     inkscape:current-layer="svg22254" /><defs
     id="defs22256"><style
       type="text/css"
       id="style22258"><![CDATA[
    .fil2 {fill:none}
    .fil1 {fill:black}
    .fil0 {fill:white}
    .fil3 {fill:white;fill-rule:nonzero}
   ]]></style></defs><g
     id="Layer_x0020_1"
     transform="translate(3937,-7063)"><metadata
       id="CorelCorpID_0Corel-Layer" /><circle
       class="fil0"
       cy="11000"
       r="3937"
       id="circle22262"
       cx="0"
       style="fill:#ffffff" /><path
       class="fil1"
       d="m 741,7293 c 1733,345 3039,1873 3039,3707 0,2087 -1693,3780 -3780,3780 -2087,0 -3780,-1693 -3780,-3780 0,-1834 1306,-3362 3039,-3707 57,-11 113,26 124,83 12,58 -25,114 -83,125 l 0,0 c -1293,314 -2253,1479 -2253,2869 0,1549 1193,2820 2711,2943 l 242,531 242,-531 C 1760,13190 2953,11919 2953,10370 2953,8980 1993,7815 700,7501 l 0,0 c -58,-11 -95,-67 -83,-125 11,-57 67,-94 124,-83 z"
       id="path22264"
       inkscape:connector-curvature="0"
       style="fill:#000000" /><polygon
       class="fil1"
       points="-1417,10449 -854,9213 0,11088 854,9213 1417,10449 0,13559 "
       id="polygon22266"
       style="fill:#000000" /><polygon
       class="fil1"
       points="-788,9074 0,7342 788,9074 0,10803 "
       id="polygon22268"
       style="fill:#000000" /><circle
       class="fil2"
       cy="11000"
       r="3898"
       id="circle22270"
       cx="0"
       style="fill:none" /><path
       class="fil3"
       d="m -1777,13872 10,-20 409,-293 58,30 -34,483 -10,19 -433,-219 z m 95,-13 275,139 29,-365 -304,226 z m 579,-25 72,27 -87,224 c -13,33 -4,56 27,68 15,6 30,7 47,4 l 10,25 c -37,7 -69,5 -98,-6 -59,-23 -79,-61 -58,-115 l 87,-227 z m 297,440 c -60,-14 -103,-38 -128,-72 -26,-34 -32,-78 -20,-131 8,-36 23,-65 46,-86 22,-22 49,-35 81,-41 31,-6 65,-4 102,4 62,14 106,39 131,73 26,35 33,78 21,129 -8,37 -23,66 -45,88 -22,21 -48,35 -80,40 -32,6 -68,5 -108,-4 z m -65,-191 c -10,45 -9,82 5,111 13,29 37,47 73,55 19,4 36,5 51,0 15,-4 29,-11 40,-21 11,-10 21,-23 28,-38 7,-15 13,-31 17,-49 7,-32 9,-60 4,-83 -4,-24 -13,-43 -27,-56 -14,-14 -32,-23 -52,-28 -35,-8 -65,-3 -88,16 -24,19 -41,50 -51,93 z m 493,125 c -4,42 0,70 11,84 11,13 30,21 56,23 21,2 44,-4 66,-19 23,-14 36,-31 37,-51 l 16,-211 76,6 -19,254 c -2,26 8,40 29,42 13,1 27,-3 42,-11 l 16,21 c -32,17 -64,25 -95,23 -44,-4 -66,-25 -67,-64 l -4,-1 c -48,34 -92,50 -132,47 -22,-2 -42,-10 -59,-24 l -3,2 c 1,45 6,83 14,113 l -2,19 -40,17 -39,-3 35,-459 76,5 -14,187 z m 696,288 -24,-317 c -3,-49 -12,-80 -24,-93 -13,-14 -33,-19 -59,-17 -19,1 -39,11 -61,28 -22,18 -32,36 -31,57 l 16,210 -76,6 -19,-248 c -2,-30 -14,-44 -35,-43 -13,1 -26,7 -40,18 l -19,-19 c 32,-23 62,-35 91,-37 43,-3 69,14 76,52 l 2,1 c 46,-43 90,-66 130,-69 33,-2 61,3 84,17 22,14 35,46 39,95 l 27,354 -77,5 z m -42,-648 1,17 -91,135 -33,-10 45,-136 78,-6 z m 346,150 c -41,-16 -70,-29 -85,-41 -16,-12 -25,-24 -28,-39 -6,-22 3,-44 25,-64 21,-20 53,-34 95,-44 61,-14 114,-14 162,0 l 11,48 -42,9 c -32,-32 -73,-43 -124,-31 -24,6 -42,14 -53,25 -11,12 -15,23 -12,34 2,11 10,20 24,27 13,7 51,22 113,44 50,17 88,36 114,57 26,20 43,48 51,82 10,44 0,83 -30,118 -30,35 -72,59 -127,72 -56,12 -103,9 -144,-10 -40,-18 -66,-49 -75,-92 -18,-77 24,-142 125,-195 z m 36,12 c -69,42 -96,99 -79,170 8,34 24,59 48,75 24,16 51,21 82,14 35,-8 59,-25 74,-51 15,-26 18,-58 9,-94 -6,-27 -20,-50 -41,-67 -21,-18 -52,-33 -93,-47 z m 681,237 -117,-295 c -19,-46 -36,-73 -52,-82 -16,-9 -37,-9 -61,1 -18,7 -34,22 -50,46 -15,23 -20,44 -12,63 l 78,196 -71,28 -92,-231 c -11,-28 -27,-38 -46,-30 -12,5 -24,14 -34,28 l -23,-12 c 23,-31 49,-51 75,-62 41,-16 70,-7 88,27 l 3,0 c 31,-54 66,-89 103,-104 31,-13 60,-16 85,-9 26,6 48,32 66,78 l 131,330 -71,28 z m 276,-657 31,55 -48,27 c -29,-21 -62,-22 -97,-2 -25,15 -42,36 -48,64 -7,29 -1,59 17,92 16,29 36,47 59,55 24,8 61,5 114,-9 34,-9 61,-12 78,-11 18,1 32,10 41,27 11,19 12,43 3,72 -9,28 -26,63 -52,104 l -34,-8 c 32,-54 41,-93 27,-118 -6,-10 -15,-16 -25,-17 -11,-2 -27,0 -48,6 -65,16 -114,20 -148,11 -34,-9 -61,-31 -80,-66 -23,-40 -25,-82 -8,-125 18,-44 54,-81 107,-111 36,-20 73,-36 111,-46 z"
       id="path22272"
       inkscape:connector-curvature="0"
       style="fill:#ffffff;fill-rule:nonzero" /></g></svg>