<?xml version="1.0" encoding="UTF-8" standalone="no"?>
<!-- Creator: CorelDRAW X7 -->

<svg
   xmlns:dc="http://purl.org/dc/elements/1.1/"
   xmlns:cc="http://creativecommons.org/ns#"
   xmlns:rdf="http://www.w3.org/1999/02/22-rdf-syntax-ns#"
   xmlns:svg="http://www.w3.org/2000/svg"
   xmlns="http://www.w3.org/2000/svg"
   xmlns:sodipodi="http://sodipodi.sourceforge.net/DTD/sodipodi-0.dtd"
   xmlns:inkscape="http://www.inkscape.org/namespaces/inkscape"
   xml:space="preserve"
   width="7.8740005in"
   height="7.8740005in"
   version="1.1"
   style="clip-rule:evenodd;fill-rule:evenodd;image-rendering:optimizeQuality;shape-rendering:geometricPrecision;text-rendering:geometricPrecision"
   viewBox="0 0 7874.0005 7874.0005"
   id="svg4737"
   inkscape:version="0.91 r13725"
   sodipodi:docname="Nomads - Tsyklon Sputniks - [N3] [Vyo].svg"><metadata
     id="metadata4761"><rdf:RDF><cc:Work
         rdf:about=""><dc:format>image/svg+xml</dc:format><dc:type
           rdf:resource="http://purl.org/dc/dcmitype/StillImage" /></cc:Work></rdf:RDF></metadata><sodipodi:namedview
     pagecolor="#ffffff"
     bordercolor="#666666"
     borderopacity="1"
     objecttolerance="10"
     gridtolerance="10"
     guidetolerance="10"
     inkscape:pageopacity="0"
     inkscape:pageshadow="2"
     inkscape:window-width="640"
     inkscape:window-height="480"
     id="namedview4759"
     showgrid="false"
     inkscape:zoom="0.23838384"
     inkscape:cx="736.83001"
     inkscape:cy="849.33005"
     inkscape:window-x="0"
     inkscape:window-y="0"
     inkscape:window-maximized="0"
     inkscape:current-layer="svg4737" /><defs
     id="defs4739"><style
       type="text/css"
       id="style4741"><![CDATA[
    .fil0 {fill:black}
    .fil2 {fill:#E2001A}
    .fil1 {fill:white}
    .fil3 {fill:white;fill-rule:nonzero}
   ]]></style></defs><g
     id="Layer_x0020_1"
     transform="translate(3937,-7063)"><metadata
       id="CorelCorpID_0Corel-Layer" /><path
       class="fil0"
       d="m 0,8087 c 1609,0 2913,1304 2913,2913 0,1609 -1304,2913 -2913,2913 -1609,0 -2913,-1304 -2913,-2913 0,-1609 1304,-2913 2913,-2913 z"
       id="path4745"
       inkscape:connector-curvature="0"
       style="fill:#000000" /><path
       class="fil1"
       d="M 2805,10075 C 2443,9384 1719,8913 886,8913 c -1196,0 -2166,970 -2166,2166 0,505 173,969 463,1338 369,319 824,541 1325,628 -739,-228 -1276,-916 -1276,-1730 0,-1000 811,-1811 1811,-1811 521,0 990,219 1320,571 l 442,0 z"
       id="path4747"
       inkscape:connector-curvature="0"
       style="fill:#ffffff" /><path
       class="fil2"
       d="m 0,7063 c 2174,0 3937,1763 3937,3937 0,2174 -1763,3937 -3937,3937 -2174,0 -3937,-1763 -3937,-3937 0,-2174 1763,-3937 3937,-3937 z m -3369,2717 1653,0 c 255,-1258 1367,-2205 2700,-2205 24,0 48,0 72,1 C 723,7473 368,7417 0,7417 c -1550,0 -2870,985 -3369,2363 z m 2522,0 3465,0 C 2223,9254 1594,8913 886,8913 c -709,0 -1338,341 -1733,867 z m 4424,1417 -4853,0 c 24,459 192,880 459,1220 -372,-322 -658,-742 -816,-1220 l -1944,0 c 102,1887 1664,3386 3577,3386 1913,0 3475,-1499 3577,-3386 z"
       id="path4749"
       inkscape:connector-curvature="0"
       style="fill:#e2001a" /><path
       class="fil3"
       d="m -2241,10356 0,444 c 0,39 -22,59 -66,59 -45,0 -67,-20 -67,-59 l 0,-444 -209,0 c -37,0 -56,-20 -56,-60 0,-37 19,-56 56,-56 l 553,0 c 36,0 54,19 54,56 0,40 -18,60 -54,60 l -211,0 z"
       id="path4751"
       inkscape:connector-curvature="0"
       style="fill:#ffffff;fill-rule:nonzero" /><path
       id="1"
       class="fil3"
       d="m -1246,10702 c 0,103 -79,154 -236,154 l -376,0 c -37,0 -55,-19 -55,-59 0,-38 18,-57 55,-57 l 386,0 c 62,0 92,-17 92,-50 l 0,-35 c 0,-37 -38,-56 -114,-56 l -171,0 c -164,0 -245,-48 -245,-143 l 0,-59 c 0,-105 73,-157 219,-157 l 95,0 c 37,0 56,19 56,59 0,38 -19,57 -56,57 l -108,0 c -49,0 -73,18 -73,54 l 0,25 c 0,33 33,49 99,49 l 174,0 c 172,0 258,52 258,157 l 0,61 z"
       inkscape:connector-curvature="0"
       style="fill:#ffffff;fill-rule:nonzero" /><path
       id="2"
       class="fil3"
       d="m -900,10497 234,-240 c 13,-13 28,-19 44,-19 9,0 17,2 26,5 8,3 16,7 22,13 6,6 11,12 16,19 3,8 6,15 6,24 0,14 -7,27 -19,39 l -262,263 -1,200 c -3,39 -25,58 -66,58 -45,0 -67,-20 -67,-59 l 0,-198 -263,-263 c -12,-12 -17,-25 -17,-39 0,-8 2,-15 5,-23 4,-7 9,-14 16,-20 6,-6 13,-10 21,-14 8,-3 16,-5 25,-5 7,0 15,2 22,4 7,3 14,8 21,15 l 237,240 z"
       inkscape:connector-curvature="0"
       style="fill:#ffffff;fill-rule:nonzero" /><path
       id="3"
       class="fil3"
       d="m -226,10543 387,202 c 12,7 20,14 25,23 6,9 8,19 8,29 0,7 -1,15 -4,22 -3,8 -7,15 -13,20 -5,6 -11,11 -19,15 -7,3 -15,5 -23,5 -5,0 -11,0 -16,-2 -6,-1 -11,-3 -17,-6 l -414,-232 0,181 c 0,39 -21,59 -64,59 -44,0 -66,-20 -66,-59 l 0,-505 c 0,-39 22,-58 67,-58 42,0 63,19 63,58 l 0,175 393,-225 c 11,-6 22,-10 34,-10 9,0 18,2 26,6 8,3 15,8 21,14 5,7 10,13 14,21 3,8 5,15 5,23 0,10 -3,18 -8,26 -5,9 -14,16 -26,22 l -373,196 z"
       inkscape:connector-curvature="0"
       style="fill:#ffffff;fill-rule:nonzero" /><path
       id="4"
       class="fil3"
       d="m 615,10856 c -191,0 -287,-56 -287,-168 l 0,-393 c 0,-39 23,-58 67,-58 44,0 66,19 66,58 l 0,386 c 0,39 50,59 150,59 l 331,0 c 38,0 56,20 56,60 0,38 -18,56 -56,56 l -327,0 z"
       inkscape:connector-curvature="0"
       style="fill:#ffffff;fill-rule:nonzero" /><path
       id="5"
       class="fil3"
       d="m 1623,10422 c 0,-44 -38,-66 -114,-66 l -203,0 c -82,0 -123,22 -123,66 l 0,253 c 0,43 41,65 123,65 l 198,0 c 79,0 119,-22 119,-65 l 0,-253 z m 134,262 c 0,115 -92,172 -274,172 l -159,0 c -183,0 -274,-57 -274,-171 l 0,-272 c 0,-116 91,-173 274,-173 l 159,0 c 182,0 274,57 274,173 l 0,271 z"
       inkscape:connector-curvature="0"
       style="fill:#ffffff;fill-rule:nonzero" /><path
       id="6"
       class="fil3"
       d="m 2639,10780 c 0,14 -3,25 -6,35 -5,9 -10,17 -17,24 -7,7 -15,11 -24,15 -9,3 -19,5 -28,5 -10,0 -20,-2 -31,-5 -10,-4 -19,-9 -26,-17 l -460,-412 0,375 c 0,39 -22,59 -65,59 -45,0 -67,-20 -67,-59 l 0,-487 c 0,-12 2,-22 6,-32 5,-9 10,-17 17,-24 7,-6 15,-11 25,-14 9,-3 19,-5 28,-5 11,0 21,2 32,6 10,3 19,9 27,16 l 457,405 0,-370 c 0,-39 22,-58 66,-58 44,0 66,19 66,58 l 0,485 z"
       inkscape:connector-curvature="0"
       style="fill:#ffffff;fill-rule:nonzero" /></g></svg>