<?xml version="1.0" encoding="UTF-8" standalone="no"?>
<!-- Creator: CorelDRAW X7 -->

<svg
   xmlns:dc="http://purl.org/dc/elements/1.1/"
   xmlns:cc="http://creativecommons.org/ns#"
   xmlns:rdf="http://www.w3.org/1999/02/22-rdf-syntax-ns#"
   xmlns:svg="http://www.w3.org/2000/svg"
   xmlns="http://www.w3.org/2000/svg"
   xmlns:sodipodi="http://sodipodi.sourceforge.net/DTD/sodipodi-0.dtd"
   xmlns:inkscape="http://www.inkscape.org/namespaces/inkscape"
   xml:space="preserve"
   width="7.8740005in"
   height="7.8740005in"
   version="1.1"
   style="clip-rule:evenodd;fill-rule:evenodd;image-rendering:optimizeQuality;shape-rendering:geometricPrecision;text-rendering:geometricPrecision"
   viewBox="0 0 7874.0005 7874.0005"
   id="svg3849"
   inkscape:version="0.91 r13725"
   sodipodi:docname="Tohaa - Gao-Rael Unit - [N3] [Vyo].svg"><metadata
     id="metadata3941"><rdf:RDF><cc:Work
         rdf:about=""><dc:format>image/svg+xml</dc:format><dc:type
           rdf:resource="http://purl.org/dc/dcmitype/StillImage" /></cc:Work></rdf:RDF></metadata><sodipodi:namedview
     pagecolor="#ffffff"
     bordercolor="#666666"
     borderopacity="1"
     objecttolerance="10"
     gridtolerance="10"
     guidetolerance="10"
     inkscape:pageopacity="0"
     inkscape:pageshadow="2"
     inkscape:window-width="640"
     inkscape:window-height="480"
     id="namedview3939"
     showgrid="false"
     inkscape:zoom="0.23838384"
     inkscape:cx="736.83001"
     inkscape:cy="849.33005"
     inkscape:window-x="0"
     inkscape:window-y="0"
     inkscape:window-maximized="0"
     inkscape:current-layer="svg3849" /><defs
     id="defs3851"><style
       type="text/css"
       id="style3853"><![CDATA[
    .fil0 {fill:black}
    .fil12 {fill:#3F3F3F}
    .fil11 {fill:#4A523A}
    .fil10 {fill:#546535}
    .fil9 {fill:#5F772F}
    .fil8 {fill:#698A2A}
    .fil7 {fill:#749D25}
    .fil6 {fill:#80E010}
    .fil5 {fill:#99E640}
    .fil4 {fill:#B3EC70}
    .fil3 {fill:#CCF39F}
    .fil2 {fill:#E6F9CF}
    .fil1 {fill:white}
   ]]></style></defs><g
     id="Layer_x0020_1"
     transform="translate(3937,-7063)"><metadata
       id="CorelCorpID_0Corel-Layer" /><circle
       class="fil0"
       cy="11000"
       r="3937"
       id="circle3857"
       cx="0"
       style="fill:#000000" /><circle
       class="fil1"
       cy="11000"
       r="3858"
       id="circle3859"
       cx="0"
       style="fill:#ffffff" /><path
       class="fil1"
       d="m -374,9999 c -26,-32 -26,-92 0,-124 l 327,-413 c 20,-25 74,-25 94,0 l 327,413 c 26,32 26,92 0,124 l -327,413 c -20,25 -74,25 -94,0 l -327,-413 z"
       id="path3861"
       inkscape:connector-curvature="0"
       style="fill:#ffffff" /><g
       id="_778834688"><path
         class="fil2"
         d="m -359,9987 328,413 c 11,14 51,14 62,0 l 328,-413 c 20,-25 20,-75 0,-100 L 31,9474 c -11,-14 -51,-14 -62,0 l -328,413 c -20,25 -20,75 0,100 z"
         id="path3864"
         inkscape:connector-curvature="0"
         style="fill:#e6f9cf" /><path
         class="fil3"
         d="m -343,9975 327,412 c 5,5 27,5 32,1 l 327,-413 c 15,-18 15,-58 0,-76 L 16,9487 c -5,-5 -27,-5 -32,-1 l -327,413 c -15,18 -15,58 0,76 z"
         id="path3866"
         inkscape:connector-curvature="0"
         style="fill:#ccf39f" /><path
         class="fil4"
         d="m -4,10371 c 2,1 6,1 8,0 l 324,-408 c 8,-11 8,-41 0,-52 L 4,9503 c -2,-1 -6,-1 -8,0 l -324,408 c -8,11 -8,41 0,52 l 324,408 z"
         id="path3868"
         inkscape:connector-curvature="0"
         style="fill:#b3ec70" /><path
         class="fil5"
         d="m 0,10345 312,-394 c 3,-6 3,-22 0,-27 L 0,9529 -312,9923 c -3,6 -3,22 0,27 l 312,395 z"
         id="path3870"
         inkscape:connector-curvature="0"
         style="fill:#99e640" /><path
         class="fil6"
         d="m -295,9941 295,372 295,-372 c 0,-2 0,-6 0,-8 L 0,9561 -295,9933 c 0,2 0,6 0,8 z"
         id="path3872"
         inkscape:connector-curvature="0"
         style="fill:#80e010" /></g><path
       class="fil1"
       d="m -680,11824 c -15,39 -66,69 -108,63 l -521,-77 c -31,-5 -58,-52 -47,-81 l 194,-490 c 16,-39 67,-69 108,-63 l 522,77 c 30,5 58,52 46,81 l -194,490 z"
       id="path3874"
       inkscape:connector-curvature="0"
       style="fill:#ffffff" /><g
       id="_778828448"><path
         class="fil2"
         d="m -698,11817 194,-490 c 7,-17 -13,-51 -31,-54 l -521,-77 c -33,-5 -75,20 -87,50 l -194,490 c -7,17 13,51 31,54 l 521,77 c 32,5 75,-20 87,-50 z"
         id="path3877"
         inkscape:connector-curvature="0"
         style="fill:#e6f9cf" /><path
         class="fil3"
         d="m -716,11810 194,-490 c 1,-7 -10,-25 -16,-28 l -521,-77 c -23,-3 -57,17 -66,38 l -194,490 c -1,7 9,25 16,28 l 521,77 c 23,3 57,-17 66,-38 z"
         id="path3879"
         inkscape:connector-curvature="0"
         style="fill:#ccf39f" /><path
         class="fil4"
         d="m -543,11318 c 0,-2 -2,-5 -3,-7 l -516,-76 c -14,-2 -40,12 -45,26 l -192,484 c 1,2 3,5 4,7 l 516,76 c 14,2 39,-12 45,-26 l 191,-484 z"
         id="path3881"
         inkscape:connector-curvature="0"
         style="fill:#b3ec70" /><path
         class="fil5"
         d="m -568,11328 -497,-74 c -6,0 -20,8 -23,14 l -186,467 497,74 c 7,0 21,-8 24,-14 l 185,-467 z"
         id="path3883"
         inkscape:connector-curvature="0"
         style="fill:#99e640" /><path
         class="fil6"
         d="m -770,11785 175,-441 -469,-70 c -3,1 -6,3 -7,4 l -175,441 469,70 c 2,-1 5,-3 7,-4 z"
         id="path3885"
         inkscape:connector-curvature="0"
         style="fill:#80e010" /></g><path
       class="fil1"
       d="m 1054,11176 c 41,-6 92,24 108,63 l 194,490 c 11,29 -16,76 -47,81 l -521,77 c -42,6 -93,-24 -108,-63 l -194,-490 c -12,-29 15,-76 46,-81 l 522,-77 z"
       id="path3887"
       inkscape:connector-curvature="0"
       style="fill:#ffffff" /><g
       id="_778827968"><path
         class="fil2"
         d="m 1056,11196 -521,77 c -18,3 -38,37 -31,54 l 194,490 c 12,30 55,55 87,50 l 521,-77 c 18,-3 38,-37 31,-54 l -194,-490 c -12,-30 -54,-55 -87,-50 z"
         id="path3890"
         inkscape:connector-curvature="0"
         style="fill:#e6f9cf" /><path
         class="fil3"
         d="m 1059,11215 -520,77 c -7,3 -18,21 -17,28 l 194,490 c 9,21 43,41 66,38 l 521,-77 c 7,-3 17,-21 16,-28 l -194,-490 c -9,-21 -43,-41 -66,-38 z"
         id="path3892"
         inkscape:connector-curvature="0"
         style="fill:#ccf39f" /><path
         class="fil4"
         d="m 546,11311 c -1,2 -3,5 -3,7 l 191,484 c 6,14 31,28 45,26 l 516,-76 c 1,-2 3,-5 4,-7 l -192,-484 c -5,-14 -31,-28 -45,-26 l -516,76 z"
         id="path3894"
         inkscape:connector-curvature="0"
         style="fill:#b3ec70" /><path
         class="fil5"
         d="m 568,11328 185,467 c 3,6 17,14 23,14 l 498,-74 -185,-467 c -4,-6 -18,-14 -24,-14 l -497,74 z"
         id="path3896"
         inkscape:connector-curvature="0"
         style="fill:#99e640" /><path
         class="fil6"
         d="m 1064,11274 -469,70 175,441 c 2,1 5,3 7,4 l 469,-70 -175,-441 c -1,-1 -4,-3 -7,-4 z"
         id="path3898"
         inkscape:connector-curvature="0"
         style="fill:#80e010" /></g><path
       class="fil7"
       d="m 0,11217 c -29,0 -39,35 -39,59 l 0,39 c 0,261 -76,476 -194,705 -48,93 -100,184 -147,279 -42,84 -80,173 -99,266 -8,42 -13,85 -13,128 0,329 211,744 390,1013 24,35 56,70 102,70 46,0 78,-35 102,-70 179,-269 390,-684 390,-1013 0,-43 -5,-86 -13,-128 -19,-93 -57,-182 -99,-266 -47,-95 -99,-186 -147,-279 -118,-229 -194,-444 -194,-705 l 0,-39 c 0,-24 -10,-59 -39,-59 z"
       id="path3900"
       inkscape:connector-curvature="0"
       style="fill:#749d25" /><g
       id="_778830272"><path
         class="fil8"
         d="m 0,11236 c -16,0 -20,28 -20,40 l 0,39 c 0,264 -76,482 -195,714 -48,93 -101,184 -147,278 -42,84 -79,171 -98,262 -8,41 -12,82 -12,124 0,325 209,736 387,1002 19,29 47,61 85,61 38,0 66,-32 85,-61 178,-266 387,-677 387,-1002 0,-42 -4,-83 -12,-124 -19,-91 -56,-178 -98,-262 -46,-94 -99,-185 -147,-278 C 96,11797 20,11579 20,11315 l 0,-39 c 0,-12 -4,-40 -20,-40 z"
         id="path3903"
         inkscape:connector-curvature="0"
         style="fill:#698a2a" /><path
         class="fil9"
         d="m 0,11315 c 0,267 -77,489 -198,723 -48,93 -100,184 -147,278 -40,82 -77,167 -95,257 -8,40 -13,80 -13,120 0,320 209,729 384,991 15,23 39,52 69,52 30,0 54,-29 69,-52 175,-262 384,-671 384,-991 0,-40 -5,-80 -13,-120 -18,-90 -55,-175 -95,-257 -47,-94 -99,-185 -147,-278 C 77,11804 0,11582 0,11315 Z"
         id="path3905"
         inkscape:connector-curvature="0"
         style="fill:#5f772f" /><path
         class="fil10"
         d="m 0,11545 c -30,175 -94,335 -180,502 -48,93 -101,184 -147,278 -40,80 -76,164 -94,252 -8,38 -12,77 -12,116 0,316 208,721 380,980 11,16 31,44 53,44 22,0 42,-28 53,-44 172,-259 380,-664 380,-980 0,-39 -4,-78 -12,-116 -18,-88 -54,-172 -94,-252 -46,-94 -99,-185 -147,-278 C 94,11880 30,11720 0,11545 Z"
         id="path3907"
         inkscape:connector-curvature="0"
         style="fill:#546535" /><path
         class="fil11"
         d="m 0,11641 c -35,142 -91,276 -163,415 -48,93 -100,184 -147,278 -39,78 -74,161 -92,247 -7,37 -11,74 -11,112 0,311 207,714 377,969 6,9 24,35 36,35 12,0 30,-26 36,-35 170,-255 377,-658 377,-969 0,-38 -4,-75 -11,-112 -18,-86 -53,-169 -92,-247 -47,-94 -99,-185 -147,-278 C 91,11917 35,11783 0,11641 Z"
         id="path3909"
         inkscape:connector-curvature="0"
         style="fill:#4a523a" /><path
         class="fil12"
         d="m 0,11716 c -35,118 -85,232 -145,349 -48,93 -100,184 -147,277 -38,77 -73,158 -90,243 -8,35 -12,72 -12,108 0,307 207,707 374,958 4,5 13,18 20,24 7,-6 16,-19 20,-24 167,-251 374,-651 374,-958 0,-36 -4,-72 -12,-108 -17,-85 -52,-166 -90,-243 -47,-93 -99,-184 -147,-277 C 85,11948 35,11834 0,11716 Z"
         id="path3911"
         inkscape:connector-curvature="0"
         style="fill:#3f3f3f" /></g><path
       class="fil7"
       d="m 188,10892 c 14,25 50,16 70,4 l 34,-19 c 227,-131 451,-173 708,-185 105,-5 210,-5 315,-12 94,-6 190,-18 280,-48 41,-14 80,-31 117,-52 285,-165 539,-555 682,-845 19,-38 33,-83 10,-123 -23,-40 -69,-50 -112,-53 -322,-21 -787,4 -1072,168 -37,22 -72,47 -104,76 -71,63 -129,140 -181,219 -59,87 -111,178 -168,266 -139,217 -288,390 -514,520 l -34,20 c -21,12 -46,38 -31,64 z"
       id="path3913"
       inkscape:connector-curvature="0"
       style="fill:#749d25" /><g
       id="_778839392"><path
         class="fil8"
         d="m 205,10882 c 7,13 34,3 44,-3 l 34,-19 c 228,-132 456,-176 716,-188 105,-5 210,-5 314,-12 93,-6 187,-17 276,-47 39,-13 77,-30 113,-50 281,-163 533,-550 674,-836 16,-32 30,-72 11,-105 -20,-33 -61,-41 -96,-43 -319,-21 -780,3 -1061,165 -36,21 -70,46 -101,73 -70,62 -127,138 -178,215 -58,88 -111,179 -167,267 -141,219 -293,395 -521,526 l -34,20 c -10,6 -32,23 -24,37 z"
         id="path3916"
         inkscape:connector-curvature="0"
         style="fill:#698a2a" /><path
         class="fil9"
         d="m 273,10843 c 231,-134 461,-178 725,-191 105,-5 209,-5 314,-11 91,-6 184,-17 271,-46 38,-13 75,-29 109,-49 278,-160 527,-546 667,-828 12,-25 26,-60 11,-86 -16,-27 -53,-32 -80,-34 -315,-20 -773,3 -1050,163 -35,21 -68,44 -98,71 -68,61 -124,135 -175,211 -58,88 -110,179 -167,267 -143,222 -296,399 -527,533 z"
         id="path3918"
         inkscape:connector-curvature="0"
         style="fill:#5f772f" /><path
         class="fil10"
         d="m 472,10727 c 166,-60 337,-85 525,-94 105,-5 209,-5 314,-12 89,-6 180,-16 265,-45 37,-12 73,-28 107,-47 273,-158 520,-541 658,-820 9,-17 23,-48 12,-67 -11,-19 -45,-23 -65,-24 -310,-20 -765,3 -1038,160 -34,20 -66,43 -95,69 -67,59 -122,133 -171,207 -58,87 -111,178 -167,266 -102,158 -209,294 -345,407 z"
         id="path3920"
         inkscape:connector-curvature="0"
         style="fill:#546535" /><path
         class="fil11"
         d="m 555,10680 c 140,-41 285,-60 441,-67 104,-5 209,-5 314,-12 87,-5 177,-16 260,-44 36,-12 70,-27 103,-45 269,-156 515,-537 650,-812 5,-9 18,-38 13,-48 -6,-11 -38,-14 -49,-14 -305,-20 -758,2 -1028,158 -32,18 -63,41 -91,66 -66,58 -119,130 -168,203 -58,87 -110,178 -167,266 -84,131 -173,248 -278,349 z"
         id="path3922"
         inkscape:connector-curvature="0"
         style="fill:#4a523a" /><path
         class="fil12"
         d="m 620,10642 c 120,-28 243,-42 375,-49 104,-5 209,-5 313,-11 86,-6 174,-16 256,-43 34,-12 68,-26 99,-44 266,-154 509,-533 643,-803 3,-6 9,-21 11,-30 -9,-3 -25,-4 -31,-5 -301,-19 -751,2 -1017,156 -31,18 -60,39 -88,63 -64,58 -117,128 -165,200 -57,87 -110,178 -166,266 -72,111 -146,211 -230,300 z"
         id="path3924"
         inkscape:connector-curvature="0"
         style="fill:#3f3f3f" /></g><path
       class="fil7"
       d="m -188,10892 c 15,-26 -10,-52 -31,-64 l -34,-20 c -226,-130 -375,-303 -514,-520 -57,-88 -109,-179 -168,-266 -52,-79 -110,-156 -181,-219 -32,-29 -67,-54 -104,-76 -285,-164 -750,-189 -1072,-168 -43,3 -89,13 -112,53 -23,40 -9,85 10,123 143,290 397,680 682,845 37,21 76,38 117,52 90,30 186,42 280,48 105,7 210,7 315,12 257,12 481,54 708,185 l 34,19 c 20,12 56,21 70,-4 z"
       id="path3926"
       inkscape:connector-curvature="0"
       style="fill:#749d25" /><g
       id="_778834848"><path
         class="fil8"
         d="m -205,10882 c 8,-14 -14,-31 -24,-37 l -34,-20 c -228,-131 -380,-307 -521,-526 -56,-88 -109,-179 -167,-267 -51,-77 -108,-153 -178,-215 -31,-27 -65,-52 -101,-73 -281,-162 -742,-186 -1061,-165 -35,2 -76,10 -96,43 -19,33 -5,73 11,105 141,286 393,673 674,836 36,20 74,37 113,50 89,30 183,41 276,47 104,7 209,7 314,12 260,12 488,56 716,188 l 34,19 c 10,6 37,16 44,3 z"
         id="path3929"
         inkscape:connector-curvature="0"
         style="fill:#698a2a" /><path
         class="fil9"
         d="m -273,10843 c -231,-134 -384,-311 -527,-533 -57,-88 -109,-179 -167,-267 -51,-76 -107,-150 -175,-211 -30,-27 -63,-50 -98,-71 -277,-160 -735,-183 -1050,-163 -27,2 -64,7 -80,34 -15,26 -1,61 11,86 140,282 389,668 667,828 34,20 71,36 109,49 87,29 180,40 271,46 105,6 209,6 314,11 264,13 494,57 725,191 z"
         id="path3931"
         inkscape:connector-curvature="0"
         style="fill:#5f772f" /><path
         class="fil10"
         d="m -472,10727 c -136,-113 -243,-249 -345,-407 -56,-88 -109,-179 -167,-266 -49,-74 -104,-148 -171,-207 -29,-26 -61,-49 -95,-69 -273,-157 -728,-180 -1038,-160 -20,1 -54,5 -65,24 -11,19 3,50 12,67 138,279 385,662 658,820 34,19 70,35 107,47 85,29 176,39 265,45 105,7 209,7 314,12 188,9 359,34 525,94 z"
         id="path3933"
         inkscape:connector-curvature="0"
         style="fill:#546535" /><path
         class="fil11"
         d="m -555,10680 c -105,-101 -194,-218 -278,-349 -57,-88 -109,-179 -167,-266 -49,-73 -102,-145 -168,-203 -28,-25 -59,-48 -91,-66 -270,-156 -723,-178 -1028,-158 -11,0 -43,3 -49,14 -5,10 8,39 13,48 135,275 381,656 650,812 33,18 67,33 103,45 83,28 173,39 260,44 105,7 210,7 314,12 156,7 301,26 441,67 z"
         id="path3935"
         inkscape:connector-curvature="0"
         style="fill:#4a523a" /><path
         class="fil12"
         d="m -620,10642 c -84,-89 -158,-189 -230,-300 -56,-88 -109,-179 -166,-266 -48,-72 -101,-142 -165,-200 -28,-24 -57,-45 -88,-63 -266,-154 -716,-175 -1017,-156 -6,1 -22,2 -31,5 2,9 8,24 11,30 134,270 377,649 643,803 31,18 65,32 99,44 82,27 170,37 256,43 104,6 209,6 313,11 132,7 255,21 375,49 z"
         id="path3937"
         inkscape:connector-curvature="0"
         style="fill:#3f3f3f" /></g></g></svg>