<?xml version="1.0" encoding="UTF-8" standalone="no"?>
<!-- Creator: CorelDRAW X7 -->

<svg
   xmlns:dc="http://purl.org/dc/elements/1.1/"
   xmlns:cc="http://creativecommons.org/ns#"
   xmlns:rdf="http://www.w3.org/1999/02/22-rdf-syntax-ns#"
   xmlns:svg="http://www.w3.org/2000/svg"
   xmlns="http://www.w3.org/2000/svg"
   xmlns:sodipodi="http://sodipodi.sourceforge.net/DTD/sodipodi-0.dtd"
   xmlns:inkscape="http://www.inkscape.org/namespaces/inkscape"
   xml:space="preserve"
   width="7.8740005in"
   height="7.8740005in"
   version="1.1"
   style="clip-rule:evenodd;fill-rule:evenodd;image-rendering:optimizeQuality;shape-rendering:geometricPrecision;text-rendering:geometricPrecision"
   viewBox="0 0 7874.0005 7874.0005"
   id="svg4763"
   inkscape:version="0.91 r13725"
   sodipodi:docname="Nomads - Tunguska Interventor - [N3] [Vyo].svg"><metadata
     id="metadata4806"><rdf:RDF><cc:Work
         rdf:about=""><dc:format>image/svg+xml</dc:format><dc:type
           rdf:resource="http://purl.org/dc/dcmitype/StillImage" /></cc:Work></rdf:RDF></metadata><sodipodi:namedview
     pagecolor="#ffffff"
     bordercolor="#666666"
     borderopacity="1"
     objecttolerance="10"
     gridtolerance="10"
     guidetolerance="10"
     inkscape:pageopacity="0"
     inkscape:pageshadow="2"
     inkscape:window-width="640"
     inkscape:window-height="480"
     id="namedview4804"
     showgrid="false"
     inkscape:zoom="0.23838384"
     inkscape:cx="736.83001"
     inkscape:cy="849.33005"
     inkscape:window-x="0"
     inkscape:window-y="0"
     inkscape:window-maximized="0"
     inkscape:current-layer="svg4763" /><defs
     id="defs4765"><style
       type="text/css"
       id="style4767"><![CDATA[
    .fil0 {fill:none}
    .fil1 {fill:black}
    .fil4 {fill:#FCB316}
    .fil3 {fill:white}
    .fil2 {fill:white;fill-rule:nonzero}
   ]]></style></defs><g
     id="Layer_x0020_1"
     transform="translate(3937,-7063)"><metadata
       id="CorelCorpID_0Corel-Layer" /><circle
       class="fil0"
       cy="11000"
       r="3937"
       id="circle4771"
       cx="0"
       style="fill:none" /><circle
       class="fil0"
       cy="11000"
       r="3740"
       id="circle4773"
       cx="0"
       style="fill:none" /><circle
       class="fil1"
       cy="11000"
       r="3937"
       id="circle4775"
       cx="0"
       style="fill:#000000" /><circle
       class="fil0"
       cy="11000"
       r="3937"
       id="circle4777"
       cx="0"
       style="fill:none" /><path
       class="fil2"
       d="m 1433,13861 c -17,-31 -8,-56 27,-75 36,-19 62,-14 79,17 l 218,400 c 17,31 7,56 -29,76 -34,19 -60,13 -77,-18 l -218,-400 z"
       id="path4779"
       inkscape:connector-curvature="0"
       style="fill:#ffffff;fill-rule:nonzero" /><path
       id="1"
       class="fil2"
       d="m 725,14141 c -4,-12 -5,-22 -4,-32 1,-9 3,-17 8,-25 4,-7 9,-14 16,-19 7,-6 14,-9 23,-12 8,-3 17,-4 27,-3 10,0 19,2 27,7 l 506,231 -100,-322 c -11,-34 3,-57 40,-68 38,-12 62,-1 73,33 l 130,418 c 3,10 4,20 3,29 -2,9 -4,17 -8,25 -5,7 -10,14 -17,19 -8,5 -15,9 -24,12 -9,2 -18,4 -28,3 -10,0 -19,-2 -27,-7 l -502,-225 99,318 c 11,33 -3,56 -41,67 -37,12 -61,1 -72,-32 l -129,-417 z"
       inkscape:connector-curvature="0"
       style="fill:#ffffff;fill-rule:nonzero" /><path
       id="2"
       class="fil2"
       d="m 375,14580 -55,-396 c -4,-35 13,-56 52,-61 40,-6 62,9 67,44 l 55,396 186,-25 c 33,-5 52,11 57,46 4,34 -10,53 -43,57 l -492,68 c -32,5 -51,-10 -55,-43 -5,-36 8,-56 41,-60 l 187,-26 z"
       inkscape:connector-curvature="0"
       style="fill:#ffffff;fill-rule:nonzero" /><path
       id="3"
       class="fil2"
       d="m -108,14474 -425,-35 c -33,-3 -47,-21 -44,-56 3,-34 20,-50 52,-48 l 426,36 6,-69 c 2,-32 -31,-51 -99,-57 l -323,-27 c -33,-3 -47,-21 -45,-56 3,-34 21,-50 53,-48 l 327,27 c 146,13 215,67 207,163 l -21,260 c -4,49 -26,84 -66,106 -39,22 -97,29 -173,23 l -89,-7 c -32,-3 -47,-22 -44,-57 3,-34 20,-50 53,-47 l 60,5 c 90,7 136,-5 139,-38 l 6,-75 z"
       inkscape:connector-curvature="0"
       style="fill:#ffffff;fill-rule:nonzero" /><path
       id="4"
       class="fil2"
       d="m -1268,14311 c -12,31 15,59 79,83 l 288,108 50,-135 -299,-112 c -57,-21 -90,-20 -98,4 l -20,52 z m -92,-93 c 33,-89 118,-108 253,-58 l 78,29 -178,-173 c -9,-9 -14,-19 -16,-29 -1,-10 0,-19 3,-28 2,-7 6,-13 11,-19 5,-5 11,-10 17,-13 7,-3 13,-6 21,-6 7,-1 14,0 21,3 8,3 15,8 22,15 l -1,-1 314,334 54,-145 c 13,-33 37,-42 74,-29 38,15 51,38 38,71 l -160,428 c -11,30 -31,39 -60,28 l -346,-130 c -145,-54 -200,-129 -164,-225 l 19,-52 z"
       inkscape:connector-curvature="0"
       style="fill:#ffffff;fill-rule:nonzero" /><path
       id="5"
       class="fil2"
       d="m -1644,13827 -430,222 c -10,5 -19,7 -29,6 -9,0 -18,-3 -26,-7 -6,-4 -12,-9 -17,-15 -5,-6 -9,-13 -12,-20 -2,-7 -3,-14 -3,-22 0,-7 2,-14 6,-21 5,-9 14,-16 26,-22 l 472,-229 c 14,-7 28,-10 40,-9 14,0 26,4 38,11 11,6 20,15 27,25 7,11 11,24 11,40 l 33,524 c 1,13 -2,24 -7,33 -4,6 -9,11 -15,15 -7,4 -14,7 -22,9 -7,1 -15,1 -23,0 -8,-1 -15,-4 -22,-8 -8,-5 -14,-11 -19,-19 -4,-7 -7,-17 -8,-28 l -20,-485 z"
       inkscape:connector-curvature="0"
       style="fill:#ffffff;fill-rule:nonzero" /><path
       id="6"
       class="fil2"
       d="m -2255,13645 -309,-295 c -24,-23 -23,-46 1,-72 24,-25 48,-26 71,-4 l 309,295 47,-49 c 23,-23 9,-59 -41,-107 l -234,-224 c -24,-22 -23,-46 1,-72 24,-25 48,-26 71,-4 l 237,227 c 106,101 126,187 59,257 l -180,188 c -34,36 -73,50 -118,41 -44,-8 -94,-38 -149,-91 l -64,-61 c -24,-23 -23,-47 2,-72 24,-25 47,-26 70,-4 l 44,42 c 66,62 109,82 132,58 l 51,-53 z"
       inkscape:connector-curvature="0"
       style="fill:#ffffff;fill-rule:nonzero" /><path
       id="7"
       class="fil2"
       d="m -2840,12528 c 10,-6 19,-10 29,-12 9,-2 18,-2 26,1 9,2 16,5 23,10 7,5 13,12 18,19 5,7 8,15 10,25 3,9 3,19 1,28 l -85,550 283,-184 c 30,-20 55,-13 76,20 22,33 18,59 -12,78 l -367,239 c -9,6 -18,10 -27,11 -9,2 -18,1 -27,-1 -8,-2 -16,-6 -22,-11 -7,-5 -13,-12 -18,-19 -5,-8 -9,-17 -11,-26 -3,-10 -3,-19 -1,-29 l 81,-543 -279,181 c -30,19 -55,12 -77,-21 -21,-32 -17,-58 13,-77 l 366,-239 z"
       inkscape:connector-curvature="0"
       style="fill:#ffffff;fill-rule:nonzero" /><path
       id="8"
       class="fil2"
       d="m -3359,12300 369,-153 c 33,-14 56,-2 72,35 15,37 7,62 -26,76 l -369,153 72,174 c 13,31 3,53 -30,67 -31,13 -53,4 -66,-27 l -191,-459 c -12,-30 -3,-52 28,-65 33,-14 56,-5 68,25 l 73,174 z"
       inkscape:connector-curvature="0"
       style="fill:#ffffff;fill-rule:nonzero" /><path
       id="9"
       class="fil2"
       d="m -3517,11428 c -39,6 -53,43 -42,111 l 31,180 c 12,72 38,105 77,98 l 225,-38 c 38,-6 51,-46 39,-118 l -30,-176 c -12,-70 -37,-102 -75,-95 l -225,38 z m 212,-157 c 101,-17 166,55 194,216 l 24,141 c 27,162 -10,251 -111,269 l -241,40 c -102,18 -167,-54 -194,-216 l -24,-140 c -28,-162 10,-252 112,-269 l 240,-41 z"
       inkscape:connector-curvature="0"
       style="fill:#ffffff;fill-rule:nonzero" /><path
       id="10"
       class="fil2"
       d="m -3522,10579 c -33,-3 -53,30 -59,98 l -25,307 142,12 27,-319 c 5,-61 -5,-92 -30,-94 l -55,-4 z m 64,-113 c 94,7 136,83 124,227 l -7,83 119,-219 c 6,-11 14,-19 23,-23 9,-4 19,-6 28,-5 7,0 14,2 21,5 6,4 12,8 17,13 6,6 9,12 12,18 3,7 4,14 3,22 -1,8 -3,17 -8,24 l 0,0 -236,393 154,13 c 35,3 51,24 48,64 -3,40 -23,59 -58,56 l -455,-38 c -31,-2 -45,-19 -43,-50 l 31,-368 c 13,-155 70,-228 171,-220 l 56,5 z"
       inkscape:connector-curvature="0"
       style="fill:#ffffff;fill-rule:nonzero" /><path
       id="11"
       class="fil2"
       d="m -3125,9214 349,196 c 31,17 37,43 17,78 -19,35 -45,43 -76,26 l -348,-196 -92,164 c -17,29 -40,34 -71,17 -30,-16 -36,-39 -20,-68 l 243,-433 c 17,-28 39,-34 68,-18 31,18 39,41 23,69 l -93,165 z"
       inkscape:connector-curvature="0"
       style="fill:#ffffff;fill-rule:nonzero" /><path
       id="12"
       class="fil2"
       d="m -2298,8594 c 82,71 62,175 -57,312 l -76,87 c -115,130 -212,160 -294,89 l -257,-225 c -26,-23 -26,-50 0,-80 26,-30 53,-34 79,-11 l 250,219 c 34,30 80,13 137,-52 l 91,-104 c 62,-72 76,-122 41,-153 l -249,-218 c -26,-23 -26,-50 0,-80 26,-29 52,-32 78,-9 l 257,225 z"
       inkscape:connector-curvature="0"
       style="fill:#ffffff;fill-rule:nonzero" /><path
       id="13"
       class="fil2"
       d="m -1605,8201 c 7,9 12,19 13,28 2,10 2,18 1,27 -2,8 -6,16 -11,23 -5,7 -11,13 -18,18 -7,5 -16,9 -25,12 -9,2 -19,3 -28,1 l -552,-69 192,277 c 20,29 14,55 -18,77 -33,23 -59,20 -79,-9 l -250,-362 c -7,-9 -10,-18 -12,-27 -2,-9 -1,-18 1,-26 1,-8 5,-16 10,-23 5,-7 12,-13 19,-19 8,-5 17,-9 26,-12 10,-2 19,-3 29,-1 l 546,67 -190,-274 c -20,-29 -13,-55 20,-77 32,-23 58,-19 78,9 l 248,360 z"
       inkscape:connector-curvature="0"
       style="fill:#ffffff;fill-rule:nonzero" /><path
       id="14"
       class="fil2"
       d="m -939,7816 c 38,90 -9,162 -139,216 l -192,80 c -141,59 -230,43 -267,-46 l -102,-244 c -36,-89 16,-163 158,-222 l 74,-31 c 31,-13 53,-3 66,29 13,32 5,55 -26,67 l -52,22 c -83,34 -118,66 -106,94 l 97,233 c 12,29 52,30 120,1 l 190,-79 c 57,-23 79,-47 69,-72 l -52,-125 c -14,-33 -2,-57 35,-72 37,-16 62,-7 76,26 l 51,123 z"
       inkscape:connector-curvature="0"
       style="fill:#ffffff;fill-rule:nonzero" /><path
       id="15"
       class="fil2"
       d="m -185,7683 c 15,107 -67,173 -247,198 l -114,15 c -171,24 -264,-18 -279,-125 l -47,-339 c -4,-34 13,-54 52,-60 40,-5 62,9 67,44 l 46,327 c 6,46 51,63 136,51 l 137,-19 c 93,-13 137,-42 130,-87 l -45,-328 c -5,-34 13,-54 53,-60 38,-5 60,9 64,44 l 47,339 z"
       inkscape:connector-curvature="0"
       style="fill:#ffffff;fill-rule:nonzero" /><path
       id="16"
       class="fil2"
       d="m 528,7745 c -7,92 -81,133 -222,121 l -337,-28 c -33,-3 -48,-22 -45,-57 3,-34 21,-49 54,-47 l 345,29 c 55,5 84,-8 86,-38 l 3,-31 c 3,-34 -30,-53 -98,-59 L 161,7622 C 14,7610 -55,7561 -48,7476 l 4,-53 c 8,-94 77,-136 208,-125 l 85,7 c 33,3 48,22 45,57 -3,34 -21,50 -54,47 l -96,-8 c -44,-4 -67,10 -70,42 l -2,24 c -2,29 26,46 85,51 l 157,13 c 153,12 227,66 219,159 l -5,55 z"
       inkscape:connector-curvature="0"
       style="fill:#ffffff;fill-rule:nonzero" /><path
       id="17"
       class="fil2"
       d="m 863,7673 283,273 c 9,8 14,17 16,26 3,9 3,18 0,26 -2,7 -5,13 -10,19 -4,6 -9,10 -15,14 -6,4 -13,6 -20,8 -7,1 -15,0 -22,-2 -4,-1 -9,-3 -14,-5 -4,-3 -8,-6 -12,-10 l -299,-305 -46,156 c -10,34 -33,46 -70,35 -38,-11 -52,-34 -42,-68 l 127,-436 c 10,-33 34,-44 73,-33 36,11 50,33 40,66 l -44,152 396,-96 c 11,-3 21,-2 31,1 8,2 15,6 21,11 6,5 11,11 15,18 3,7 6,14 7,21 1,8 0,15 -2,21 -2,9 -7,15 -13,21 -7,6 -16,10 -28,12 l -372,75 z"
       inkscape:connector-curvature="0"
       style="fill:#ffffff;fill-rule:nonzero" /><path
       id="18"
       class="fil2"
       d="m 1518,7962 220,123 -13,-231 -207,108 z m 222,240 -321,-181 -126,66 c -10,4 -19,6 -28,5 -9,-1 -18,-3 -25,-7 -6,-4 -12,-9 -17,-15 -5,-6 -8,-13 -11,-20 -3,-7 -4,-14 -4,-22 0,-7 3,-15 6,-22 6,-9 13,-16 24,-22 l 471,-239 c 13,-7 26,-10 40,-10 13,1 25,4 36,10 11,7 20,15 28,26 7,11 11,25 12,39 l 41,526 1,0 c 1,13 -1,24 -7,33 -4,7 -9,13 -15,17 -6,4 -13,7 -20,8 -8,2 -15,2 -22,0 -8,-1 -15,-3 -22,-7 -8,-4 -15,-10 -20,-18 -5,-7 -8,-16 -9,-28 l -12,-139 z"
       inkscape:connector-curvature="0"
       style="fill:#ffffff;fill-rule:nonzero" /><g
       id="_775869904"><path
         class="fil3"
         d="m 1053,8790 56,510 c 5,38 -12,73 -44,94 -33,21 -71,21 -104,1 C 670,9221 339,9130 0,9130 c -879,0 -1642,614 -1828,1472 -5,25 -17,44 -38,59 l -517,379 c -35,26 -81,26 -116,0 l -449,-329 c -30,-22 -44,-56 -40,-92 190,-1502 1473,-2631 2988,-2631 541,0 1069,144 1534,420 33,19 51,53 48,91 -2,37 -24,69 -58,84 l -471,207 z m 335,4227 -471,-206 c -35,-16 -57,-48 -58,-86 -2,-38 17,-72 50,-90 593,-331 961,-954 961,-1635 0,-529 -221,-1028 -612,-1383 -18,-17 -29,-38 -31,-63 l -70,-638 c -5,-43 18,-83 58,-100 l 510,-225 c 33,-14 70,-10 99,12 749,571 1188,1453 1188,2397 0,1091 -587,2090 -1534,2625 -33,18 -71,17 -103,-4 -31,-21 -48,-55 -43,-93 l 56,-511 z m -3829,-1824 415,-304 c 31,-23 69,-26 103,-8 34,17 54,50 53,89 0,10 0,20 0,30 0,1033 837,1870 1870,1870 193,0 385,-29 570,-88 23,-8 46,-7 69,3 l 587,259 c 40,17 63,57 58,100 l -61,555 c -4,36 -25,65 -59,80 -369,154 -764,233 -1164,233 -1663,0 -3012,-1349 -3012,-3012 0,-11 0,-21 1,-32 0,-38 20,-70 54,-87 34,-17 72,-14 102,8 l 414,304 z"
         id="path4800"
         inkscape:connector-curvature="0"
         style="fill:#ffffff" /></g><path
       class="fil4"
       d="m 0,8087 c 542,0 1049,148 1484,406 l -536,236 64,582 C 716,9134 370,9031 0,9031 c -943,0 -1732,664 -1924,1550 l -517,380 -449,-330 C -2709,9196 -1484,8087 0,8087 Z m 1764,595 c 699,532 1149,1372 1149,2318 0,1090 -598,2039 -1484,2539 l 64,-583 -536,-235 c 603,-337 1012,-981 1012,-1721 0,-577 -249,-1096 -645,-1456 l -69,-638 509,-224 z m -638,5006 c -347,145 -727,225 -1126,225 -1609,0 -2913,-1304 -2913,-2913 0,-10 0,-21 0,-31 l 472,346 473,-347 c 0,11 -1,21 -1,32 0,1087 882,1969 1969,1969 209,0 410,-33 599,-94 l 587,259 -60,554 z"
       id="path4802"
       inkscape:connector-curvature="0"
       style="fill:#fcb316" /></g></svg>