<?xml version="1.0" encoding="UTF-8" standalone="no"?>
<!-- Creator: CorelDRAW X7 -->

<svg
   xmlns:dc="http://purl.org/dc/elements/1.1/"
   xmlns:cc="http://creativecommons.org/ns#"
   xmlns:rdf="http://www.w3.org/1999/02/22-rdf-syntax-ns#"
   xmlns:svg="http://www.w3.org/2000/svg"
   xmlns="http://www.w3.org/2000/svg"
   xmlns:sodipodi="http://sodipodi.sourceforge.net/DTD/sodipodi-0.dtd"
   xmlns:inkscape="http://www.inkscape.org/namespaces/inkscape"
   xml:space="preserve"
   width="7.8740005in"
   height="7.8740005in"
   version="1.1"
   style="clip-rule:evenodd;fill-rule:evenodd;image-rendering:optimizeQuality;shape-rendering:geometricPrecision;text-rendering:geometricPrecision"
   viewBox="0 0 7874.0005 7874.0005"
   id="svg3406"
   inkscape:version="0.91 r13725"
   sodipodi:docname="Aleph - Ajax the Great - [N3] [Vyo].svg"><metadata
     id="metadata3428"><rdf:RDF><cc:Work
         rdf:about=""><dc:format>image/svg+xml</dc:format><dc:type
           rdf:resource="http://purl.org/dc/dcmitype/StillImage" /></cc:Work></rdf:RDF></metadata><sodipodi:namedview
     pagecolor="#ffffff"
     bordercolor="#666666"
     borderopacity="1"
     objecttolerance="10"
     gridtolerance="10"
     guidetolerance="10"
     inkscape:pageopacity="0"
     inkscape:pageshadow="2"
     inkscape:window-width="640"
     inkscape:window-height="480"
     id="namedview3426"
     showgrid="false"
     inkscape:zoom="0.23838384"
     inkscape:cx="736.83001"
     inkscape:cy="849.33005"
     inkscape:window-x="0"
     inkscape:window-y="0"
     inkscape:window-maximized="0"
     inkscape:current-layer="svg3406" /><defs
     id="defs3408"><style
       type="text/css"
       id="style3410"><![CDATA[
    .fil1 {fill:black}
    .fil0 {fill:white}
   ]]></style></defs><g
     id="Layer_x0020_1"
     transform="translate(3937,-7063)"><metadata
       id="CorelCorpID_0Corel-Layer" /><circle
       class="fil0"
       cy="11000"
       r="3937"
       id="circle3414"
       cx="0"
       style="fill:#ffffff" /><path
       class="fil1"
       d="m 741,7293 c 1733,345 3039,1873 3039,3707 0,2087 -1693,3780 -3780,3780 -2087,0 -3780,-1693 -3780,-3780 0,-1834 1306,-3362 3039,-3707 57,-11 113,26 124,83 12,58 -25,114 -83,125 l 0,0 c -1293,314 -2253,1479 -2253,2869 0,1631 1322,2953 2953,2953 1631,0 2953,-1322 2953,-2953 0,-1390 -960,-2555 -2253,-2869 l 0,0 c -58,-11 -95,-67 -83,-125 11,-57 67,-94 124,-83 z"
       id="path3416"
       inkscape:connector-curvature="0"
       style="fill:#000000" /><path
       class="fil1"
       d="m 177,9524 c 468,0 847,379 847,846 0,468 -379,847 -847,847 -467,0 -846,-379 -846,-847 0,-467 379,-846 846,-846 z m 0,98 c 413,0 748,335 748,748 0,413 -335,748 -748,748 -413,0 -748,-335 -748,-748 0,-413 335,-748 748,-748 z"
       id="path3418"
       inkscape:connector-curvature="0"
       style="fill:#000000" /><path
       class="fil1"
       d="m -1850,9740 c 78,79 236,158 354,158 394,0 748,-433 1732,-433 1024,0 1536,748 1536,1535 0,79 -80,118 -118,118 -79,0 -119,-79 -197,-79 -79,0 -748,355 -1496,355 -1260,0 -1733,-906 -1811,-1654 z m 196,276 c 40,39 158,39 197,39 512,0 827,-394 1614,-394 788,0 1182,473 1418,1260 -40,-39 -79,-39 -118,-39 -79,0 -670,275 -1457,275 -984,0 -1496,-551 -1654,-1141 z"
       id="path3420"
       inkscape:connector-curvature="0"
       style="fill:#000000" /><path
       class="fil1"
       d="m 0,7929 c 1370,0 2480,1111 2480,2480 0,1370 -1110,2481 -2480,2481 -1370,0 -2480,-1111 -2480,-2481 0,-1369 1110,-2480 2480,-2480 z m 0,236 c 1239,0 2244,1005 2244,2244 0,1240 -1005,2245 -2244,2245 -1239,0 -2244,-1005 -2244,-2245 0,-1239 1005,-2244 2244,-2244 z"
       id="path3422"
       inkscape:connector-curvature="0"
       style="fill:#000000" /><circle
       class="fil1"
       cx="177"
       cy="10370"
       r="354"
       id="circle3424"
       style="fill:#000000" /></g></svg>