<?xml version="1.0" encoding="UTF-8" standalone="no"?>
<!-- Creator: CorelDRAW X7 -->

<svg
   xmlns:dc="http://purl.org/dc/elements/1.1/"
   xmlns:cc="http://creativecommons.org/ns#"
   xmlns:rdf="http://www.w3.org/1999/02/22-rdf-syntax-ns#"
   xmlns:svg="http://www.w3.org/2000/svg"
   xmlns="http://www.w3.org/2000/svg"
   xmlns:sodipodi="http://sodipodi.sourceforge.net/DTD/sodipodi-0.dtd"
   xmlns:inkscape="http://www.inkscape.org/namespaces/inkscape"
   xml:space="preserve"
   width="7.8740005in"
   height="7.8740005in"
   version="1.1"
   style="clip-rule:evenodd;fill-rule:evenodd;image-rendering:optimizeQuality;shape-rendering:geometricPrecision;text-rendering:geometricPrecision"
   viewBox="0 0 7874.0005 7874.0005"
   id="svg3669"
   inkscape:version="0.91 r13725"
   sodipodi:docname="PanOceania - Clausewitz Uhlans - [N3] [Vyo].svg"><metadata
     id="metadata3704"><rdf:RDF><cc:Work
         rdf:about=""><dc:format>image/svg+xml</dc:format><dc:type
           rdf:resource="http://purl.org/dc/dcmitype/StillImage" /></cc:Work></rdf:RDF></metadata><sodipodi:namedview
     pagecolor="#ffffff"
     bordercolor="#666666"
     borderopacity="1"
     objecttolerance="10"
     gridtolerance="10"
     guidetolerance="10"
     inkscape:pageopacity="0"
     inkscape:pageshadow="2"
     inkscape:window-width="640"
     inkscape:window-height="480"
     id="namedview3702"
     showgrid="false"
     inkscape:zoom="0.23838384"
     inkscape:cx="736.83001"
     inkscape:cy="849.33005"
     inkscape:window-x="0"
     inkscape:window-y="0"
     inkscape:window-maximized="0"
     inkscape:current-layer="svg3669" /><defs
     id="defs3671"><style
       type="text/css"
       id="style3673"><![CDATA[
    .fil2 {fill:none}
    .fil0 {fill:#00C0FF}
    .fil5 {fill:#E2001A}
    .fil1 {fill:white}
    .fil3 {fill:white}
    .fil4 {fill:#E2001A;fill-rule:nonzero}
   ]]></style></defs><g
     id="Layer_x0020_1"
     transform="translate(3937,-7063)"><metadata
       id="CorelCorpID_0Corel-Layer" /><circle
       class="fil0"
       cy="11000"
       r="3937"
       id="circle3677"
       cx="0"
       style="fill:#00c0ff" /><circle
       class="fil1"
       cy="11000"
       r="3858"
       id="circle3679"
       cx="0"
       style="fill:#ffffff" /><circle
       class="fil0"
       cy="11000"
       r="3307"
       id="circle3681"
       cx="0"
       style="fill:#00c0ff" /><circle
       class="fil2"
       cy="11000"
       r="3898"
       id="circle3683"
       cx="0"
       style="fill:none" /><g
       id="_865443552"><path
         class="fil3"
         d="m 2529,8668 c 16,-12 35,-22 54,-28 22,-6 44,-5 65,3 20,7 37,20 52,34 17,17 33,37 48,56 l 86,112 c 26,35 46,76 42,121 -4,45 -30,80 -65,107 l -201,154 -118,-154 1,-1 c -7,-5 -13,-11 -19,-17 -10,-10 -19,-22 -27,-33 l -50,-65 c -23,-31 -46,-68 -48,-106 -1,-13 1,-26 4,-37 -5,0 -10,1 -15,1 -27,1 -53,-8 -76,-20 -30,-16 -57,-39 -82,-62 l -25,-24 c -19,-18 -38,-39 -49,-63 l -5,5 -140,-132 117,-124 -133,-92 22,-32 c 3,-4 9,-12 10,-18 -3,-4 -10,-9 -13,-11 -7,-5 -18,-11 -27,-11 -3,0 -6,4 -7,6 l -125,181 -165,-114 21,-31 c -10,3 -20,4 -31,4 -22,-1 -43,-5 -63,-12 -23,-8 -44,-18 -65,-28 l -80,-43 c -21,-11 -41,-23 -60,-37 -19,-15 -34,-34 -46,-56 -13,-24 -17,-52 -15,-80 2,-33 15,-65 30,-94 l 14,-27 c 14,-26 31,-52 52,-72 19,-17 41,-31 67,-36 23,-5 46,-4 69,1 24,6 46,15 67,27 l 76,39 c 26,14 54,30 77,49 21,16 38,35 50,58 12,23 16,49 13,75 -1,4 -2,8 -2,12 l 56,-82 159,110 -5,6 c 27,7 51,19 74,35 36,25 70,59 77,105 4,27 -2,53 -12,78 l 169,-180 146,138 -98,103 c 8,3 16,8 24,13 12,8 24,17 35,28 l 26,25 c 24,22 49,49 66,77 14,23 24,48 25,75 1,24 -5,47 -17,68 -3,5 -6,11 -10,16 z M 135,7585 l 21,-152 199,27 -2,8 c 30,-6 63,-4 92,0 24,3 47,7 70,13 23,7 45,17 65,30 24,17 40,41 50,68 12,31 12,67 8,100 l -31,225 -199,-28 31,-224 c 1,-1 1,-1 1,-2 -6,-6 -31,-11 -38,-12 l -28,-4 c -11,-1 -26,-2 -36,4 -8,5 -10,13 -11,22 l -28,201 -198,-27 5,-37 c -7,9 -15,17 -25,24 -16,13 -35,23 -56,28 -19,4 -38,7 -58,7 l -181,2 c -20,1 -40,-1 -59,-5 -20,-5 -40,-13 -57,-26 -11,-8 -20,-17 -27,-27 l 10,64 -197,33 -37,-223 c 0,-1 -1,-2 -1,-2 -7,-4 -32,-1 -39,0 l -28,4 c -11,2 -26,6 -33,15 -6,7 -6,16 -4,24 l 33,200 -197,33 -67,-399 198,-33 1,8 c 26,-15 58,-23 87,-28 24,-4 48,-7 71,-8 24,-1 48,3 71,10 27,9 50,26 68,49 14,18 24,40 30,63 0,-26 4,-52 14,-76 9,-22 23,-41 42,-56 17,-13 36,-22 57,-27 19,-5 38,-7 58,-7 l 181,-3 c 20,0 39,2 58,6 21,5 40,13 58,26 19,14 34,33 44,55 8,18 12,37 14,57 z m -1771,405 -1,-2 c -9,-21 -17,-43 -18,-66 -1,-23 5,-44 17,-63 12,-17 28,-31 46,-43 20,-13 43,-24 65,-34 l 128,-58 c 40,-18 85,-27 128,-13 42,14 71,47 89,87 l 104,231 -176,80 -1,-2 c -7,6 -14,11 -21,15 -12,7 -25,13 -38,19 l -75,34 c -35,16 -76,29 -114,23 -12,-2 -22,-6 -31,-11 -1,5 -2,10 -3,15 -13,46 -49,79 -87,104 l -40,26 c -18,12 -37,22 -57,29 -19,8 -40,12 -61,12 -23,-1 -44,-7 -64,-19 -21,-13 -38,-32 -52,-53 l -48,-75 -14,9 50,56 c 16,19 29,40 35,65 5,22 5,45 -2,67 -5,20 -15,39 -27,56 -12,17 -26,32 -42,45 l -93,83 c -17,15 -36,29 -56,41 -14,9 -30,16 -45,20 l -148,166 -90,-21 -157,177 34,85 -164,185 -213,-576 153,-172 415,96 c -4,-4 -7,-8 -10,-12 l -21,-23 c -19,-22 -37,-47 -49,-74 -9,-24 -14,-50 -10,-75 4,-24 13,-45 26,-65 14,-19 31,-37 49,-53 l 102,-90 c 34,-30 75,-56 120,-61 14,-2 27,-1 39,2 l -24,-38 51,-33 -42,-64 168,-109 41,64 159,-103 75,116 z m 12,27 -155,100 42,64 c 2,-2 5,-3 6,-4 2,-2 6,-4 9,-6 l -33,-51 139,-90 c 0,-2 0,-4 0,-5 0,-1 0,-2 1,-4 l -6,3 -3,-7 z m -493,337 c -8,3 -20,14 -25,18 l -35,31 c -6,5 -20,19 -23,27 1,1 3,3 3,4 l 29,33 c 2,2 7,7 8,7 7,0 17,-8 21,-12 l 47,-41 c 6,-5 13,-12 17,-20 l -40,-45 c 0,0 -1,-1 -2,-2 z m 3260,-542 124,-137 208,71 -312,321 -191,-64 -52,-445 209,71 14,183 z m -3770,940 20,51 33,-38 -53,-13 z M -63,7681 c 0,-3 0,-7 0,-10 l 0,-44 c -1,-3 -1,-7 -1,-11 -4,-1 -8,-1 -10,-2 -15,-1 -30,-1 -44,-1 l -29,0 c -10,1 -33,2 -41,8 -2,2 -2,12 -2,14 l 0,31 c 0,3 1,13 3,15 8,5 31,6 41,6 l 29,-1 c 14,0 29,0 43,-2 2,-1 7,-2 11,-3 z m 2326,801 c -4,1 -10,8 -12,10 l -22,23 c -3,3 -9,10 -10,14 3,7 15,20 20,25 l 52,49 c 4,3 12,11 18,14 4,-2 10,-8 12,-10 l 26,-28 c 3,-2 8,-8 10,-12 -4,-6 -12,-14 -15,-17 l -52,-49 c -5,-5 -19,-17 -27,-19 z"
         id="path3686"
         inkscape:connector-curvature="0"
         style="fill:#ffffff" /></g><path
       class="fil4"
       d="m -2651,9185 104,-118 -34,-85 189,-213 90,22 104,-117 -513,-118 -122,136 182,493 z m -41,-490 191,47 -119,135 -72,-182 z m 401,-125 c 22,25 43,42 64,52 21,10 40,13 59,11 19,-2 36,-8 53,-18 16,-10 33,-23 50,-38 l 93,-82 c 14,-12 26,-25 36,-39 10,-14 17,-29 22,-44 4,-15 4,-31 1,-47 -4,-17 -13,-32 -27,-48 l -19,-22 -88,78 5,6 c 9,10 11,21 6,34 -6,12 -16,24 -30,37 l -47,41 c -15,14 -30,21 -44,23 -13,1 -27,-6 -40,-21 l -29,-33 c -12,-13 -15,-26 -12,-40 4,-14 16,-30 35,-47 l 35,-30 c 20,-18 36,-27 48,-29 12,-2 24,4 35,16 l 88,-78 -20,-22 c -24,-27 -51,-39 -82,-36 -30,3 -63,20 -98,51 l -102,90 c -18,16 -32,32 -42,47 -11,15 -17,31 -20,48 -3,17 0,35 8,54 8,20 22,40 41,63 l 21,23 z m 426,-290 c 12,18 25,32 39,40 15,9 29,13 45,13 15,0 31,-3 47,-8 15,-6 31,-15 48,-26 l 40,-26 c 39,-25 63,-52 71,-81 8,-29 3,-58 -15,-85 l -22,-33 -89,58 12,18 c 8,12 11,23 8,31 -3,9 -12,18 -29,29 -13,8 -24,13 -33,14 -8,1 -16,-4 -22,-13 l -68,-105 158,-103 -48,-74 -158,103 -42,-65 -102,66 42,65 -51,33 48,74 51,-33 70,108 z m 311,-175 c 14,32 33,50 57,54 24,4 54,-3 91,-20 l 76,-34 c 14,-6 25,-12 34,-17 8,-5 15,-10 20,-16 6,-5 10,-12 14,-20 4,-7 8,-17 12,-29 l 15,34 105,-48 -88,-195 c -16,-35 -38,-57 -65,-66 -28,-9 -61,-5 -99,12 l -129,58 c -25,12 -45,22 -60,32 -15,9 -27,20 -34,31 -8,11 -11,25 -11,39 1,15 6,32 15,52 l 107,-49 c -4,-10 -4,-18 0,-23 4,-5 15,-12 32,-20 l 65,-29 c 21,-10 36,-13 46,-10 9,2 17,11 24,26 l 12,26 c -15,-6 -31,-6 -49,-2 -17,5 -43,15 -77,31 -32,14 -56,26 -74,36 -18,10 -32,20 -43,32 -11,11 -17,24 -19,39 -1,14 3,32 12,52 l 11,24 z m 172,-60 c -22,10 -38,14 -48,14 -11,0 -18,-5 -23,-15 -5,-12 -6,-23 0,-32 5,-9 19,-18 41,-28 l 49,-22 c 29,-13 48,-20 58,-19 10,0 18,7 23,19 3,5 4,10 4,15 0,4 -3,9 -7,14 -4,5 -12,11 -22,17 -10,7 -25,14 -44,22 l -31,15 z m 564,-142 120,-20 -27,-162 c -4,-23 0,-41 13,-55 12,-15 31,-24 57,-28 l 27,-5 c 52,-9 80,3 86,34 l 30,185 120,-20 -31,-185 c -5,-32 -15,-58 -29,-76 -14,-18 -31,-30 -49,-36 -19,-5 -38,-8 -57,-7 -19,1 -41,3 -66,7 -34,6 -61,15 -80,26 -19,12 -31,29 -38,52 l -1,0 -9,-51 -120,20 54,321 z m 468,-211 c 0,25 4,47 12,64 8,17 18,30 31,39 13,10 27,16 43,19 15,4 32,5 49,5 l 181,-2 c 18,-1 34,-3 49,-6 16,-4 30,-11 43,-21 12,-10 22,-23 30,-40 7,-17 11,-39 10,-64 l -1,-78 c 0,-26 -4,-47 -12,-64 -8,-17 -18,-30 -31,-39 -13,-10 -28,-16 -43,-20 -15,-3 -32,-5 -49,-4 l -182,2 c -17,0 -33,2 -49,6 -15,4 -29,11 -42,21 -12,9 -22,23 -30,40 -7,17 -11,38 -10,64 l 1,78 z m 120,-56 c 0,-23 6,-38 19,-48 13,-9 34,-13 63,-14 l 30,0 c 20,-1 36,0 48,1 12,2 21,4 28,8 6,4 11,9 14,16 2,6 4,16 4,27 l 0,45 c 1,11 0,20 -3,27 -2,7 -7,12 -13,16 -7,4 -16,7 -28,9 -12,1 -28,2 -48,3 l -29,0 c -30,1 -51,-4 -64,-12 -13,-9 -20,-25 -20,-47 l -1,-31 z m 375,164 120,17 23,-163 c 3,-23 13,-39 29,-49 16,-10 37,-13 63,-10 l 27,4 c 52,7 76,27 71,58 l -25,186 120,16 26,-185 c 4,-33 3,-60 -6,-81 -8,-22 -20,-38 -36,-49 -16,-12 -33,-20 -52,-25 -18,-5 -40,-9 -65,-12 -34,-5 -62,-5 -84,1 -21,5 -39,18 -52,38 l -1,0 7,-52 -120,-17 -45,323 z m 863,173 144,49 252,-259 -125,-42 -168,186 -19,-250 -126,-42 42,358 z m 358,-27 c -16,29 -24,55 -26,78 -2,23 2,42 11,59 9,17 21,31 36,43 15,11 32,23 53,33 l 81,43 c 21,11 40,19 58,25 18,7 36,10 52,10 16,1 31,-3 44,-11 13,-8 25,-21 34,-38 l 6,-13 -101,-53 c -2,6 -5,10 -8,13 -3,3 -8,5 -13,6 -6,1 -13,0 -22,-3 -9,-2 -21,-7 -35,-15 l -33,-17 c -23,-12 -39,-24 -46,-35 -7,-11 -7,-24 0,-39 l 10,-17 261,137 25,-49 c 13,-25 21,-48 23,-67 3,-19 0,-37 -8,-52 -8,-16 -21,-31 -39,-45 -18,-15 -42,-29 -72,-45 l -75,-40 c -21,-11 -40,-18 -58,-23 -18,-4 -35,-4 -52,-1 -17,4 -33,13 -48,27 -15,14 -30,35 -44,61 l -14,28 z m 135,4 c 4,-9 9,-16 13,-20 5,-5 10,-7 17,-6 7,0 15,2 26,6 10,4 25,11 43,21 32,16 52,30 60,40 7,11 6,24 -3,41 l -156,-82 z m 194,344 100,69 102,-148 c 11,-16 24,-24 40,-24 15,0 32,6 50,19 19,13 29,26 30,38 1,12 -5,27 -17,45 l 86,60 c 1,-1 3,-3 4,-5 7,-8 11,-14 14,-18 25,-37 36,-69 32,-97 -5,-27 -25,-54 -61,-79 -25,-17 -49,-27 -72,-31 -23,-4 -44,3 -63,19 l -1,0 35,-51 -94,-65 -185,268 z m 527,171 c 16,-17 31,-24 45,-22 14,1 31,11 50,29 l 52,49 c 19,19 29,34 29,45 -1,12 -8,25 -22,40 l -26,28 c -14,15 -27,23 -39,24 -12,1 -27,-8 -47,-26 l -52,-50 c -18,-17 -29,-33 -32,-47 -3,-14 4,-30 20,-47 l 22,-23 z m -206,52 83,78 41,-43 1,0 c -9,21 -11,41 -6,62 6,20 21,42 47,66 l 25,25 c 28,25 52,44 73,55 21,11 40,16 57,16 17,-1 32,-6 46,-15 14,-9 29,-22 45,-39 l 41,-42 c 16,-18 28,-33 36,-48 8,-14 12,-30 12,-47 -1,-17 -7,-35 -19,-56 -13,-20 -33,-43 -60,-69 l -26,-25 c -10,-9 -20,-17 -30,-24 -10,-6 -21,-11 -31,-14 -11,-4 -21,-5 -32,-3 -11,2 -21,6 -31,14 l -1,-1 135,-143 -88,-83 -318,336 z m 412,263 c -28,21 -42,44 -40,68 2,24 15,52 40,85 l 50,65 c 10,13 18,23 25,30 6,7 13,12 20,16 6,4 14,7 22,9 8,2 19,3 32,5 l -30,22 70,92 170,-130 c 31,-24 47,-50 50,-79 2,-30 -9,-61 -35,-94 l -85,-112 c -17,-22 -32,-39 -44,-51 -13,-13 -26,-22 -39,-26 -13,-5 -26,-6 -40,-2 -14,4 -30,13 -47,26 l 71,93 c 9,-6 17,-8 23,-5 6,3 15,12 26,27 l 44,56 c 14,19 21,33 20,43 0,9 -7,19 -20,29 l -23,18 c 2,-16 -1,-32 -9,-48 -9,-16 -24,-39 -47,-69 -21,-27 -38,-48 -52,-63 -14,-16 -27,-27 -41,-35 -13,-8 -28,-11 -42,-9 -15,2 -31,9 -48,23 l -21,16 z m 97,154 c -14,-19 -22,-34 -25,-44 -2,-10 1,-18 10,-25 11,-8 21,-11 31,-8 10,3 22,15 37,34 l 33,43 c 19,25 29,42 31,52 2,10 -2,19 -13,27 -5,4 -10,6 -14,7 -4,1 -9,0 -15,-4 -6,-3 -14,-8 -22,-17 -9,-9 -19,-21 -32,-38 l -21,-27 z"
       id="path3688"
       inkscape:connector-curvature="0"
       style="fill:#e2001a;fill-rule:nonzero" /><circle
       class="fil2"
       cy="11000"
       r="3898"
       id="circle3690"
       cx="0"
       style="fill:none" /><g
       id="_865447200"><path
         class="fil3"
         d="m 1588,13599 -10,-14 171,-122 87,121 c 19,-32 51,-59 83,-82 52,-37 112,-72 179,-61 67,11 102,56 139,109 l 120,168 -172,122 -120,-168 c -3,-5 -21,-30 -28,-31 -8,-2 -45,24 -51,28 -10,7 -45,32 -47,45 -2,12 21,45 28,54 l 108,151 -172,123 -198,-278 26,58 c 20,47 43,95 57,145 21,70 -7,138 -66,181 -23,16 -48,31 -74,44 -39,20 -79,39 -120,57 -37,17 -74,33 -111,48 -27,10 -54,20 -82,28 -40,10 -79,14 -119,-1 -52,-20 -78,-64 -102,-111 -16,-30 -30,-62 -45,-93 l -107,-238 210,-95 107,237 c 8,18 17,37 26,54 3,6 6,13 10,18 1,3 3,5 4,7 1,1 2,3 3,4 17,4 105,-36 120,-43 13,-5 105,-46 109,-60 3,-7 -8,-35 -10,-40 -7,-16 -13,-33 -20,-48 l -108,-238 175,-79 z m -1254,555 -1,-4 478,-82 27,155 -116,117 140,-25 29,166 -501,86 -24,-138 c -2,35 -9,65 -32,96 l -1,1 0,0 c -45,56 -121,60 -187,61 -59,1 -127,3 -173,-39 -30,-27 -39,-59 -42,-98 -2,-19 -2,-38 -2,-57 l -1,-60 -70,1 -1,-63 -23,308 -211,-16 23,-297 -191,284 -229,-52 -14,-128 -68,109 -226,-52 -41,-291 c -5,14 -11,28 -18,42 -4,9 -8,18 -12,26 l 1,1 -16,28 -6,11 0,0 c -17,27 -37,52 -66,67 -35,18 -73,16 -110,7 -50,-11 -102,-34 -148,-55 -58,-26 -138,-63 -171,-121 -36,-63 -9,-127 18,-188 29,-63 61,-127 135,-140 31,-5 59,-1 88,7 42,12 85,31 124,49 39,18 82,37 118,61 23,15 42,31 56,54 l 205,47 16,177 100,-151 175,40 26,179 94,-151 167,38 13,-160 210,16 -11,144 59,-2 -1,-78 211,-5 1,79 199,-4 z m 12,69 2,101 -209,5 1,60 c 0,6 0,19 1,28 4,0 10,0 12,0 3,0 9,0 14,-1 0,-3 0,-7 0,-10 l -1,-53 201,-4 -1,41 c 0,10 0,20 0,30 l 124,-129 -128,22 -16,-90 z m -3307,-1958 c -2,-7 -5,-17 -6,-21 -11,-32 -23,-64 -35,-95 -5,-11 -38,-96 -49,-102 -11,-5 -70,18 -81,23 -9,4 -65,25 -69,34 -6,13 30,99 36,112 6,16 38,100 52,117 8,-1 22,-7 27,-9 l 36,-14 86,213 -36,15 c -14,7 -28,14 -42,19 -72,29 -137,33 -191,-29 l -1,-1 c -18,-22 -33,-48 -46,-74 -21,-40 -38,-83 -55,-124 -25,-63 -52,-129 -71,-194 -11,-34 -20,-70 -17,-106 5,-62 40,-96 92,-124 l 1,-1 1,0 c 36,-17 74,-33 111,-48 38,-15 77,-31 116,-43 23,-7 47,-12 71,-11 l 1,0 c 13,0 25,2 36,6 45,14 72,51 95,90 16,28 30,58 44,88 19,43 37,86 54,129 18,44 36,90 49,135 8,28 14,56 13,84 -5,80 -60,115 -128,142 l -59,24 -84,-212 33,-16 c 4,-1 11,-4 16,-7 z m 274,120 104,183 -487,277 -104,-183 487,-277 z m -156,787 c -37,-25 -77,-84 -102,-120 -62,-88 -95,-169 8,-242 31,-22 64,-34 95,-33 l -9,-14 36,-22 c 52,-31 96,-35 150,-7 52,28 114,116 148,164 20,29 42,60 59,91 12,23 20,45 21,70 0,10 0,19 -2,28 l 0,1 0,1 c -10,53 -47,83 -90,113 l -200,141 -119,-168 5,-3 z m 420,452 c -36,-14 -69,-41 -98,-68 -48,-46 -95,-98 -97,-168 0,-13 0,-27 3,-40 10,-48 51,-90 84,-124 l 134,-142 153,145 -134,142 c -6,6 -31,31 -31,41 1,11 30,38 37,46 10,9 37,34 52,35 1,0 3,0 4,0 11,-1 42,-35 49,-42 l 122,-128 153,145 -290,305 -147,-140 6,-7 z m 312,39 c -1,-26 8,-54 30,-84 35,-50 84,-78 145,-63 53,13 132,69 176,100 36,26 76,54 108,86 22,21 39,44 47,73 12,41 -2,74 -24,109 l -21,36 -11,-8 c 2,29 -7,60 -31,94 -35,49 -81,78 -141,65 -58,-11 -142,-71 -189,-104 -39,-27 -81,-57 -114,-91 -23,-23 -40,-47 -48,-79 -11,-44 3,-80 28,-117 l 22,-33 23,16 z m 4116,-399 152,-147 389,405 -153,146 -388,-404 z m 800,-46 c -13,43 -59,98 -86,132 -68,85 -136,138 -234,60 -31,-24 -52,-51 -60,-82 l -10,13 -31,-29 c -44,-41 -60,-81 -49,-141 11,-58 79,-143 116,-188 22,-28 45,-58 71,-83 17,-17 36,-32 60,-40 10,-3 19,-5 28,-6 l 1,0 0,0 c 55,-5 94,22 134,54 l 192,153 -128,161 -4,-4 z m -85,-585 c 4,-38 21,-75 42,-112 33,-57 72,-117 140,-135 13,-4 27,-6 41,-6 49,-2 99,28 140,52 l 169,97 -105,183 -169,-97 c -7,-4 -36,-21 -44,-23 -1,0 -1,1 -2,1 -11,3 -33,40 -38,50 -7,11 -26,45 -22,59 1,1 1,3 2,4 4,10 44,32 53,37 l 153,87 -105,183 -365,-209 101,-176 9,5 z m 390,-235 c -25,8 -54,7 -89,-5 -58,-19 -99,-58 -101,-121 -3,-55 28,-146 46,-197 14,-42 30,-89 51,-128 14,-27 32,-50 57,-66 36,-23 71,-18 111,-8 l 41,11 -4,12 c 26,-10 59,-10 98,3 57,20 98,56 102,117 6,58 -27,156 -46,211 -15,44 -32,94 -54,135 -16,28 -34,52 -63,68 -39,23 -78,20 -120,6 l -38,-12 9,-26 z"
         id="path3693"
         inkscape:connector-curvature="0"
         style="fill:#ffffff" /></g><path
       class="fil4"
       d="m -3072,12361 c -67,26 -68,24 -130,-130 -60,-149 -58,-152 56,-198 67,-27 96,-32 115,-20 17,10 30,34 65,122 13,32 28,74 36,97 10,31 11,43 6,52 -5,8 -10,12 -36,24 l 56,141 22,-9 c 74,-30 101,-58 103,-108 3,-37 -11,-83 -59,-202 -95,-237 -127,-285 -194,-289 -30,-1 -69,11 -171,52 -52,20 -90,37 -109,46 -48,26 -68,52 -72,93 -3,45 15,106 86,282 42,106 67,156 94,188 36,41 77,47 147,19 7,-3 17,-8 42,-19 l -57,-141 z m 370,77 -419,238 66,115 418,-238 -65,-115 z m -16,445 c 27,-15 35,-8 90,69 46,66 46,78 3,109 l -15,11 -4,-5 c 6,-30 0,-47 -35,-98 -55,-77 -78,-106 -104,-127 -40,-35 -81,-35 -132,1 -66,46 -65,91 2,187 51,71 72,97 93,110 22,13 39,17 63,13 l 3,5 -39,27 73,104 169,-119 c 50,-36 67,-57 73,-89 7,-41 -5,-66 -71,-160 -64,-90 -104,-136 -135,-152 -39,-20 -68,-19 -110,6 l 76,108 z m -23,124 c 33,47 45,65 46,74 4,14 0,26 -10,34 -25,17 -48,0 -101,-76 -40,-57 -46,-79 -24,-94 11,-8 23,-8 35,-1 10,6 29,28 54,63 z m 458,708 235,-248 -96,-91 -94,100 c -44,46 -60,56 -84,55 -22,-2 -43,-15 -77,-47 -35,-34 -48,-52 -49,-73 -1,-19 7,-33 41,-69 l 108,-113 -96,-91 -108,113 c -64,67 -77,91 -76,136 2,44 26,84 85,140 64,61 106,78 151,60 l 5,5 -36,37 91,86 z m 159,-12 c -22,32 -28,57 -22,85 10,40 41,72 146,147 84,59 140,91 174,97 40,9 72,-7 102,-49 44,-62 29,-108 -54,-168 -111,-80 -128,-93 -145,-107 -17,-13 -22,-25 -14,-37 13,-17 37,-8 105,40 36,26 57,45 62,56 2,5 1,9 -2,18 l 110,78 c 21,-35 26,-54 19,-76 -10,-38 -42,-69 -140,-139 -79,-55 -132,-86 -162,-93 -41,-11 -74,5 -104,46 -42,60 -26,109 55,168 106,75 133,95 146,106 15,13 19,27 11,39 -14,20 -39,11 -109,-38 -67,-48 -83,-70 -68,-96 l -110,-77 z m 797,465 c -18,26 -35,24 -111,-11 -43,-19 -68,-35 -76,-50 -7,-14 -6,-26 8,-57 l 314,143 c 7,-13 14,-27 16,-31 33,-73 37,-114 16,-151 -19,-34 -55,-57 -160,-105 -104,-48 -148,-60 -189,-53 -44,8 -68,35 -106,117 -36,79 -41,115 -20,152 20,35 60,63 153,105 172,79 226,78 274,-4 l -119,-55 z m -150,-182 c 22,-43 45,-44 126,-7 47,21 70,37 76,53 4,11 3,18 -8,42 l -194,-88 z m 379,47 51,362 172,39 114,-180 23,211 176,41 203,-304 -136,-31 -136,219 -38,-259 -122,-28 -147,221 -24,-260 -136,-31 z m 789,153 -26,341 132,10 26,-341 -132,-10 z m 11,-140 -7,96 131,10 8,-96 -132,-10 z m 261,76 1,79 -69,1 2,92 69,-1 2,99 c 1,44 1,44 2,54 3,37 10,56 29,73 27,24 61,30 146,29 91,-2 131,-15 157,-47 20,-25 25,-47 25,-112 l -121,3 0,14 c 1,40 -9,50 -52,50 -26,1 -39,-4 -46,-16 -6,-9 -7,-14 -7,-50 l -2,-100 209,-4 -2,-92 -209,4 -2,-78 -132,2 z m 416,61 15,85 208,-36 -195,203 15,87 423,-73 -15,-88 -222,38 188,-190 -17,-96 -400,70 z m 635,-281 91,202 c 34,73 34,73 43,90 31,59 50,82 82,93 50,20 110,4 282,-74 103,-46 150,-71 187,-97 47,-34 66,-85 51,-138 -10,-33 -12,-41 -55,-141 l -91,-202 -139,63 92,202 c 4,10 14,32 20,49 15,39 17,52 12,69 -8,22 -36,39 -130,82 -118,53 -148,58 -171,27 -12,-17 -12,-17 -45,-86 l -91,-202 -138,63 z m 618,-308 280,393 108,-77 -85,-119 c -53,-74 -48,-100 28,-154 71,-50 91,-48 135,13 l 96,135 108,-76 -97,-136 c -46,-65 -71,-86 -113,-93 -43,-7 -86,9 -150,54 -68,49 -93,89 -86,137 l -4,3 -112,-157 -108,77 z m 429,-329 333,347 96,-91 -334,-348 -95,92 z m 432,-85 c -22,-23 -18,-32 41,-106 49,-63 62,-67 103,-33 l 15,11 -4,5 c -30,2 -45,13 -83,61 -59,75 -81,105 -94,135 -22,49 -10,88 38,127 63,50 106,37 179,-55 54,-68 73,-96 80,-120 6,-24 6,-42 -5,-64 l 3,-4 37,30 79,-100 -161,-128 c -49,-39 -74,-49 -106,-46 -41,6 -62,24 -134,114 -68,86 -101,138 -107,172 -9,43 0,71 37,104 l 82,-103 z m 125,-13 c 36,-45 50,-61 58,-65 13,-8 25,-8 35,0 24,19 14,45 -44,118 -43,55 -63,66 -84,49 -10,-8 -13,-19 -10,-32 3,-12 18,-36 45,-70 z m 46,-377 296,170 66,-115 -119,-68 c -54,-31 -66,-42 -73,-64 -6,-22 2,-48 26,-90 24,-42 42,-62 60,-68 19,-6 30,-1 78,26 l 135,77 66,-115 -135,-77 c -82,-47 -108,-54 -152,-42 -42,12 -74,44 -116,117 -42,74 -48,118 -22,160 l -3,6 -45,-26 -62,109 z m 487,-391 c 38,12 64,11 89,-3 36,-21 57,-60 99,-182 33,-97 48,-160 44,-194 -3,-40 -27,-67 -76,-84 -71,-24 -112,3 -146,100 -45,129 -52,149 -61,169 -8,20 -18,28 -31,23 -21,-7 -19,-33 8,-111 14,-42 27,-67 36,-75 4,-4 8,-4 18,-4 l 44,-127 c -40,-11 -59,-10 -79,3 -33,20 -54,60 -93,174 -31,91 -46,151 -44,182 2,42 26,70 74,86 69,24 112,-6 145,-100 42,-123 54,-154 61,-171 8,-17 21,-25 34,-21 23,8 22,35 -6,115 -27,79 -43,100 -72,93 l -44,127 z"
       id="path3695"
       inkscape:connector-curvature="0"
       style="fill:#e2001a;fill-rule:nonzero" /><g
       id="_865428896"><path
         class="fil3"
         d="M 0,8126 1053,9958 0,11664 -1053,9958 0,8126 Z m -1850,2050 1791,1664 0,1886 -1791,-1518 0,-2032 z m 3700,0 0,2032 -1791,1518 0,-1886 1791,-1664 z"
         id="path3698"
         inkscape:connector-curvature="0"
         style="fill:#ffffff" /></g><path
       class="fil5"
       d="M 0,8244 984,9957 0,11551 -984,9957 0,8244 Z m -1791,2067 1673,1555 0,1732 -1673,-1417 0,-1870 z m 3582,0 -1673,1555 0,1732 1673,-1417 0,-1870 z"
       id="path3700"
       inkscape:connector-curvature="0"
       style="fill:#e2001a" /></g></svg>