<?xml version="1.0" encoding="UTF-8" standalone="no"?>
<!-- Creator: CorelDRAW X7 -->

<svg
   xmlns:dc="http://purl.org/dc/elements/1.1/"
   xmlns:cc="http://creativecommons.org/ns#"
   xmlns:rdf="http://www.w3.org/1999/02/22-rdf-syntax-ns#"
   xmlns:svg="http://www.w3.org/2000/svg"
   xmlns="http://www.w3.org/2000/svg"
   xmlns:sodipodi="http://sodipodi.sourceforge.net/DTD/sodipodi-0.dtd"
   xmlns:inkscape="http://www.inkscape.org/namespaces/inkscape"
   xml:space="preserve"
   width="7.8740005in"
   height="7.8740005in"
   version="1.1"
   style="clip-rule:evenodd;fill-rule:evenodd;image-rendering:optimizeQuality;shape-rendering:geometricPrecision;text-rendering:geometricPrecision"
   viewBox="0 0 7874.0005 7874.0005"
   id="svg2"
   inkscape:version="0.91 r13725"
   sodipodi:docname="Tohaa - Kosuil Assault Pioneers - [N3] [Vyo].svg"><metadata
     id="metadata139"><rdf:RDF><cc:Work
         rdf:about=""><dc:format>image/svg+xml</dc:format><dc:type
           rdf:resource="http://purl.org/dc/dcmitype/StillImage" /></cc:Work></rdf:RDF></metadata><sodipodi:namedview
     pagecolor="#ffffff"
     bordercolor="#666666"
     borderopacity="1"
     objecttolerance="10"
     gridtolerance="10"
     guidetolerance="10"
     inkscape:pageopacity="0"
     inkscape:pageshadow="2"
     inkscape:window-width="640"
     inkscape:window-height="480"
     id="namedview137"
     showgrid="false"
     inkscape:zoom="0.23838384"
     inkscape:cx="736.83001"
     inkscape:cy="849.33005"
     inkscape:window-x="0"
     inkscape:window-y="0"
     inkscape:window-maximized="0"
     inkscape:current-layer="svg2" /><defs
     id="defs4"><style
       type="text/css"
       id="style6"><![CDATA[
    .fil0 {fill:black}
    .fil13 {fill:#3A5B3A}
    .fil12 {fill:#3B553B}
    .fil11 {fill:#3C503C}
    .fil10 {fill:#3D4A3D}
    .fil9 {fill:#3E453E}
    .fil8 {fill:#3F3F3F}
    .fil7 {fill:#CCCCCC}
    .fil2 {fill:#D6D6D6}
    .fil3 {fill:#E0E0E0}
    .fil4 {fill:#EBEBEB}
    .fil5 {fill:whitesmoke}
    .fil6 {fill:white}
    .fil1 {fill:#CCCCCC;fill-rule:nonzero}
   ]]></style></defs><g
     id="Layer_x0020_1"
     transform="translate(3937,-7063)"><metadata
       id="CorelCorpID_0Corel-Layer" /><circle
       class="fil0"
       cy="11000"
       r="3937"
       id="circle10"
       cx="0"
       style="fill:#000000" /><g
       id="_713671584"><path
         class="fil1"
         d="m 1063,10843 0,-197 c 0,-36 -21,-74 -52,-106 -32,-31 -70,-52 -105,-52 l -434,0 c -35,0 -73,21 -105,52 -31,32 -52,70 -52,106 l 0,826 276,0 0,315 -434,0 -157,0 0,-157 0,-984 c 0,-123 58,-241 145,-328 86,-87 205,-145 327,-145 l 434,0 c 122,0 241,58 327,145 87,87 145,205 145,328 l 0,197 -315,0 z"
         id="path13"
         inkscape:connector-curvature="0"
         style="fill:#cccccc;fill-rule:nonzero" /><g
         id="g15"><path
           class="fil2"
           d="m 1071,10835 299,0 0,-189 c 0,-121 -58,-238 -142,-323 -85,-84 -202,-142 -322,-142 l -434,0 c -120,0 -237,58 -322,142 -84,85 -142,202 -142,323 l 0,1134 575,0 0,-300 -276,0 0,-834 c 0,-42 26,-83 55,-111 28,-29 69,-55 110,-55 l 434,0 c 41,0 82,26 110,55 29,28 55,69 55,111 l 0,189 z"
           id="path17"
           inkscape:connector-curvature="0"
           style="fill:#d6d6d6" /><path
           class="fil3"
           d="m 1079,10827 283,0 0,-181 c 0,-119 -57,-234 -140,-317 -83,-83 -198,-140 -316,-140 l -434,0 c -118,0 -233,57 -316,140 -83,83 -140,198 -140,317 l 0,1126 559,0 0,-284 -276,0 0,-842 c 0,-44 27,-87 57,-117 30,-30 73,-57 116,-57 l 434,0 c 43,0 86,27 116,57 30,30 57,73 57,117 l 0,181 z"
           id="path19"
           inkscape:connector-curvature="0"
           style="fill:#e0e0e0" /><path
           class="fil4"
           d="m 1087,10819 267,0 0,-173 c 0,-117 -56,-230 -137,-311 -82,-82 -195,-138 -311,-138 l -434,0 c -116,0 -229,56 -311,137 -81,82 -137,195 -137,312 l 0,1118 543,0 0,-268 -276,0 0,-850 c 0,-46 28,-91 60,-122 31,-32 75,-59 121,-59 l 434,0 c 45,0 90,27 121,59 32,31 60,76 60,122 l 0,173 z"
           id="path21"
           inkscape:connector-curvature="0"
           style="fill:#ebebeb" /><path
           class="fil5"
           d="m 1094,10811 252,0 0,-165 c 0,-115 -55,-226 -135,-306 -80,-80 -191,-135 -305,-135 l -434,0 c -114,0 -225,55 -305,135 -80,80 -136,191 -136,306 l 0,1110 528,0 0,-252 -276,0 0,-858 c 0,-49 29,-95 62,-128 33,-33 79,-61 127,-61 l 434,0 c 48,0 94,28 127,61 33,33 61,79 61,128 l 0,165 z"
           id="path23"
           inkscape:connector-curvature="0"
           style="fill:#f5f5f5" /><path
           class="fil6"
           d="m 1102,10803 237,0 0,-157 c 0,-113 -55,-222 -133,-300 -79,-79 -188,-133 -300,-133 l -434,0 c -112,0 -221,54 -300,133 -78,78 -133,187 -133,300 l 0,1102 512,0 0,-236 -275,0 0,-866 c 0,-51 29,-99 63,-133 35,-35 83,-64 133,-64 l 434,0 c 50,0 98,29 133,64 34,34 63,82 63,133 l 0,157 z"
           id="path25"
           inkscape:connector-curvature="0"
           style="fill:#ffffff" /></g><circle
         class="fil7"
         cx="-610"
         cy="11020"
         r="157"
         id="circle27"
         style="fill:#cccccc" /><g
         id="g29"><path
           class="fil2"
           d="m -610,10870 c 82,0 149,67 149,150 0,82 -67,149 -149,149 -83,0 -150,-67 -150,-149 0,-83 67,-150 150,-150 z"
           id="path31"
           inkscape:connector-curvature="0"
           style="fill:#d6d6d6" /><path
           class="fil3"
           d="m -610,10878 c 78,0 141,63 141,142 0,78 -63,141 -141,141 -79,0 -142,-63 -142,-141 0,-79 63,-142 142,-142 z"
           id="path33"
           inkscape:connector-curvature="0"
           style="fill:#e0e0e0" /><path
           class="fil4"
           d="m -610,10886 c 74,0 134,60 134,134 0,74 -60,134 -134,134 -74,0 -134,-60 -134,-134 0,-74 60,-134 134,-134 z"
           id="path35"
           inkscape:connector-curvature="0"
           style="fill:#ebebeb" /><path
           class="fil5"
           d="m -610,10894 c 69,0 126,56 126,126 0,69 -57,126 -126,126 -70,0 -126,-57 -126,-126 0,-70 56,-126 126,-126 z"
           id="path37"
           inkscape:connector-curvature="0"
           style="fill:#f5f5f5" /><path
           class="fil6"
           d="m -610,10902 c 65,0 118,52 118,118 0,65 -53,118 -118,118 -65,0 -118,-53 -118,-118 0,-66 53,-118 118,-118 z"
           id="path39"
           inkscape:connector-curvature="0"
           style="fill:#ffffff" /></g><path
         class="fil1"
         d="m -394,10744 -472,0 c -35,0 -57,4 -66,13 -9,9 -13,31 -13,66 l 0,39 -315,0 0,-39 c 0,-122 35,-219 105,-289 70,-70 167,-105 289,-105 l 472,0 0,-256 315,0 0,1181 0,158 0,275 -315,0 0,-118 -472,0 c -35,0 -57,5 -66,13 -9,9 -13,31 -13,66 l 0,39 -315,0 0,-39 c 0,-122 35,-218 105,-288 70,-71 167,-106 289,-106 l 472,0 0,-610 z"
         id="path41"
         inkscape:connector-curvature="0"
         style="fill:#cccccc;fill-rule:nonzero" /><g
         id="g43"><path
           class="fil2"
           d="m -1252,11780 299,0 0,-32 c 0,-19 1,-57 15,-71 15,-15 53,-16 72,-16 l 480,0 0,119 299,0 0,-1599 -299,0 0,256 -480,0 c -106,0 -207,27 -283,103 -76,76 -103,177 -103,283 l 0,31 299,0 0,-31 c 0,-19 1,-57 15,-72 15,-14 53,-15 72,-15 l 480,0 0,626 -480,0 c -106,0 -207,27 -283,103 -76,76 -103,177 -103,283 l 0,32 z"
           id="path45"
           inkscape:connector-curvature="0"
           style="fill:#d6d6d6" /><path
           class="fil3"
           d="m -1244,11772 283,0 0,-24 c 0,-22 1,-60 18,-77 17,-17 55,-17 77,-17 l 488,0 0,118 284,0 0,-1583 -284,0 0,256 -488,0 c -104,0 -203,26 -278,100 -74,75 -100,174 -100,278 l 0,23 283,0 0,-23 c 0,-22 1,-60 18,-77 17,-17 55,-18 77,-18 l 488,0 0,642 -488,0 c -104,0 -203,26 -278,101 -74,74 -100,173 -100,277 l 0,24 z"
           id="path47"
           inkscape:connector-curvature="0"
           style="fill:#e0e0e0" /><path
           class="fil4"
           d="m -1236,11764 267,0 0,-16 c 0,-25 2,-64 20,-82 19,-19 58,-20 83,-20 l 496,0 0,118 268,0 0,-1567 -268,0 0,256 -496,0 c -102,0 -199,25 -272,98 -73,73 -98,170 -98,272 l 0,16 267,0 0,-16 c 0,-25 2,-64 20,-83 19,-18 58,-20 83,-20 l 496,0 0,658 -496,0 c -102,0 -199,25 -272,98 -73,74 -98,171 -98,272 l 0,16 z"
           id="path49"
           inkscape:connector-curvature="0"
           style="fill:#ebebeb" /><path
           class="fil5"
           d="m -1228,11756 252,0 0,-8 c 0,-27 1,-67 22,-88 20,-21 60,-22 88,-22 l 504,0 0,118 252,0 0,-1551 -252,0 0,256 -504,0 c -99,0 -195,24 -266,96 -72,71 -96,167 -96,266 l 0,8 252,0 0,-8 c 0,-28 1,-68 22,-88 20,-21 60,-22 88,-22 l 504,0 0,673 -504,0 c -99,0 -195,24 -266,96 -72,72 -96,167 -96,266 l 0,8 z"
           id="path51"
           inkscape:connector-curvature="0"
           style="fill:#f5f5f5" /><path
           class="fil6"
           d="m -1220,11748 236,0 c 0,-30 2,-71 24,-94 23,-22 64,-24 94,-24 l 512,0 0,118 236,0 0,-1535 -236,0 0,256 -512,0 c -97,0 -191,23 -261,93 -70,70 -93,164 -93,261 l 236,0 c 0,-30 2,-71 24,-94 23,-22 64,-24 94,-24 l 512,0 0,689 -512,0 c -97,0 -191,23 -261,93 -70,71 -93,164 -93,261 z"
           id="path53"
           inkscape:connector-curvature="0"
           style="fill:#ffffff" /></g></g><path
       class="fil8"
       d="m 2978,13327 c -691,884 -1768,1453 -2978,1453 -1210,0 -2287,-569 -2978,-1453 -232,-296 223,-575 261,-595 709,-393 1302,-533 1378,-551 77,-18 288,-2 355,39 l 512,315 c 270,167 108,410 78,591 -39,236 315,709 394,709 79,0 433,-473 394,-709 -30,-181 -192,-424 78,-591 l 512,-315 c 67,-41 278,-57 355,-39 76,18 669,158 1378,551 38,20 493,299 261,595 z"
       id="path55"
       inkscape:connector-curvature="0"
       style="fill:#3f3f3f" /><g
       id="_713665120"><path
         class="fil9"
         d="m 2972,13322 c 51,-65 75,-140 58,-222 -11,-53 -37,-101 -68,-144 -42,-57 -95,-107 -150,-150 -21,-16 -42,-32 -64,-46 -11,-7 -23,-15 -35,-21 -295,-164 -606,-304 -925,-416 -147,-51 -299,-99 -451,-134 -75,-18 -283,-2 -349,38 l -511,315 c -81,49 -138,115 -149,211 -14,128 53,249 73,372 20,117 -55,277 -110,376 -47,83 -102,165 -164,237 -22,26 -90,105 -127,105 -37,0 -105,-79 -127,-105 -62,-72 -117,-154 -164,-237 -55,-99 -130,-259 -110,-376 11,-67 36,-134 53,-200 44,-164 29,-286 -129,-383 l -511,-315 c -66,-40 -274,-56 -349,-38 -152,35 -304,83 -451,134 -319,112 -630,252 -925,416 -12,6 -24,14 -35,21 -22,14 -43,30 -64,46 -55,43 -108,93 -150,150 -86,118 -106,244 -10,366 716,916 1807,1450 2972,1450 1165,0 2256,-534 2972,-1450 z"
         id="path58"
         inkscape:connector-curvature="0"
         style="fill:#3e453e" /><path
         class="fil10"
         d="m 2966,13317 c 50,-63 73,-135 57,-215 -11,-52 -37,-100 -67,-142 -41,-56 -94,-106 -149,-148 -21,-16 -42,-31 -64,-45 -10,-7 -22,-15 -33,-21 l -1,0 c -295,-164 -605,-304 -924,-415 -146,-52 -298,-99 -450,-135 -73,-16 -279,-1 -342,38 l -512,315 c -78,48 -135,111 -145,205 -14,125 53,249 73,369 20,119 -55,281 -112,382 -46,83 -102,166 -164,238 -24,29 -92,107 -133,107 -41,0 -109,-78 -133,-107 -62,-72 -118,-155 -164,-238 -57,-101 -132,-263 -112,-382 11,-67 36,-134 54,-200 42,-161 28,-279 -126,-374 l -512,-315 c -63,-39 -269,-54 -342,-38 -152,36 -304,83 -450,135 -319,111 -629,251 -924,415 l -1,0 c -11,6 -23,14 -33,21 -22,14 -43,29 -64,45 -55,42 -108,92 -149,148 -84,116 -103,238 -10,357 715,915 1803,1447 2966,1447 1163,0 2251,-532 2966,-1447 z"
         id="path60"
         inkscape:connector-curvature="0"
         style="fill:#3d4a3d" /><path
         class="fil11"
         d="m 2960,13312 c 48,-61 71,-131 55,-209 -10,-50 -36,-97 -66,-138 -40,-55 -93,-105 -147,-147 -20,-16 -41,-31 -63,-45 -10,-6 -22,-14 -33,-20 l 0,0 -1,0 c -294,-164 -604,-304 -922,-415 -147,-51 -299,-99 -450,-134 -70,-16 -275,-1 -336,37 l -512,315 c -76,46 -131,108 -141,199 -14,122 53,248 73,367 20,121 -55,284 -113,387 -46,83 -103,167 -165,240 -26,31 -94,109 -139,109 -45,0 -113,-78 -139,-109 -62,-73 -119,-157 -165,-240 -58,-103 -133,-266 -113,-387 11,-67 37,-135 54,-201 42,-158 29,-273 -122,-365 l -512,-315 c -61,-38 -266,-53 -336,-37 -151,35 -303,83 -450,134 -318,111 -628,251 -922,415 l -1,0 0,0 c -11,6 -23,14 -33,20 -22,14 -43,29 -63,45 -54,42 -107,92 -147,147 -83,112 -102,231 -11,347 714,913 1800,1444 2960,1444 1160,0 2246,-531 2960,-1444 z"
         id="path62"
         inkscape:connector-curvature="0"
         style="fill:#3c503c" /><path
         class="fil12"
         d="m 2954,13308 c 46,-60 69,-128 53,-203 -10,-49 -35,-95 -64,-135 -40,-55 -92,-104 -146,-146 -20,-15 -41,-30 -62,-44 -10,-7 -22,-14 -33,-20 l 0,0 -1,0 c -294,-163 -603,-303 -921,-415 -146,-51 -298,-98 -449,-133 -68,-16 -271,-1 -330,35 l -512,315 c -74,46 -128,105 -137,194 -14,120 53,248 73,365 20,123 -55,287 -114,392 -47,84 -103,168 -166,241 -28,33 -97,112 -145,112 -48,0 -117,-79 -145,-112 -63,-73 -119,-157 -166,-241 -59,-105 -134,-269 -114,-392 12,-68 37,-135 54,-202 41,-154 30,-266 -118,-357 l -512,-315 c -59,-36 -262,-51 -330,-35 -151,35 -303,82 -449,133 -318,112 -627,252 -921,415 l -1,0 0,0 c -11,6 -23,13 -33,20 -21,14 -42,29 -62,44 -54,42 -106,91 -146,146 -80,109 -99,224 -11,338 713,910 1796,1440 2954,1440 1158,0 2241,-530 2954,-1440 z"
         id="path64"
         inkscape:connector-curvature="0"
         style="fill:#3b553b" /><path
         class="fil13"
         d="m 2947,13303 c 46,-58 68,-123 53,-197 -10,-48 -35,-92 -63,-132 -40,-54 -92,-102 -145,-143 -20,-16 -40,-31 -61,-44 -10,-7 -22,-14 -32,-19 l -1,-1 -1,0 c -293,-163 -603,-303 -919,-414 -146,-51 -298,-99 -448,-134 -67,-15 -267,0 -325,35 l -512,315 c -72,44 -124,101 -134,187 -12,118 54,248 74,364 20,125 -55,290 -115,397 -47,84 -104,168 -167,242 -31,36 -99,115 -151,115 -52,0 -120,-79 -151,-115 -63,-74 -120,-158 -167,-242 -60,-107 -135,-272 -115,-397 12,-69 37,-136 55,-203 40,-151 30,-259 -115,-348 l -512,-315 c -58,-35 -258,-50 -325,-35 -150,35 -302,83 -448,134 -316,111 -626,251 -919,414 l -1,0 -1,1 c -10,5 -22,12 -32,19 -21,13 -41,28 -61,44 -53,41 -105,89 -145,143 -78,107 -97,218 -10,329 710,908 1792,1437 2947,1437 1155,0 2237,-529 2947,-1437 z"
         id="path66"
         inkscape:connector-curvature="0"
         style="fill:#3a5b3a" /></g><path
       class="fil8"
       d="m 526,7257 c 1112,157 2142,806 2747,1853 605,1048 651,2265 231,3306 -140,348 -609,94 -646,70 -695,-416 -1112,-860 -1166,-917 -54,-58 -145,-248 -143,-327 l 17,-601 c 9,-317 300,-299 472,-363 224,-84 456,-627 417,-695 -39,-69 -626,-139 -811,13 -141,117 -271,378 -550,227 L 565,9537 C 496,9500 377,9326 354,9250 331,9175 155,8592 142,7781 c -3,-43 12,-576 384,-524 z"
       id="path68"
       inkscape:connector-curvature="0"
       style="fill:#3f3f3f" /><g
       id="_713714672"><path
         class="fil9"
         d="m 525,7265 c -82,-12 -159,5 -222,61 -40,35 -69,82 -90,131 -29,64 -46,136 -55,205 -4,26 -6,52 -7,78 -1,13 -2,28 -1,41 5,338 39,677 102,1009 29,153 64,309 109,458 22,73 140,246 208,282 l 528,286 c 83,45 169,62 257,23 118,-51 189,-170 285,-249 92,-75 268,-91 382,-92 95,-2 194,6 287,23 33,6 135,26 154,58 18,32 -16,130 -27,162 -32,89 -75,179 -123,260 -59,98 -160,243 -271,284 -64,24 -134,36 -200,54 -164,44 -262,118 -267,303 l -17,600 c -2,77 89,265 141,321 106,114 224,222 342,324 256,220 533,419 823,593 11,7 24,14 35,20 24,11 47,22 72,32 64,27 135,48 205,55 145,16 264,-31 322,-174 435,-1079 352,-2290 -231,-3299 C 2684,8105 1677,7427 525,7265 Z"
         id="path71"
         inkscape:connector-curvature="0"
         style="fill:#3e453e" /><path
         class="fil10"
         d="m 524,7273 c -80,-12 -154,4 -215,58 -39,35 -68,82 -89,129 -28,64 -45,135 -54,203 -4,26 -6,52 -8,78 0,12 -1,27 0,39 l 0,1 c 5,337 39,676 102,1008 28,152 63,308 109,457 21,71 138,242 203,278 l 529,285 c 81,44 164,61 250,23 115,-50 189,-170 283,-248 94,-77 271,-93 387,-94 95,-1 195,6 288,23 37,7 139,26 160,62 20,35 -14,133 -26,169 -32,89 -76,179 -125,261 -59,100 -161,245 -274,288 -64,24 -135,35 -201,53 -161,44 -256,115 -261,296 l -17,601 c -2,74 88,260 139,315 106,114 223,222 341,323 256,220 532,419 822,592 l 0,0 c 11,7 24,14 35,19 23,12 47,23 71,33 64,26 133,47 202,54 143,16 258,-29 315,-169 434,-1076 351,-2285 -230,-3292 C 2678,8111 1673,7435 524,7273 Z"
         id="path73"
         inkscape:connector-curvature="0"
         style="fill:#3d4a3d" /><path
         class="fil11"
         d="m 523,7281 c -78,-11 -150,4 -209,56 -38,35 -66,80 -87,126 -28,63 -44,133 -53,201 -4,26 -6,51 -8,77 0,12 -1,27 0,39 l 0,0 0,1 c 5,337 39,675 101,1006 29,152 64,308 109,456 21,70 137,239 200,274 l 529,285 c 78,43 159,60 243,23 112,-50 188,-171 281,-247 95,-78 273,-95 392,-96 95,-1 196,6 290,23 40,8 142,27 164,66 23,38 -11,137 -25,175 -32,90 -76,181 -125,263 -60,102 -164,248 -279,291 -64,24 -135,36 -201,54 -157,43 -250,111 -255,288 l -17,601 c -2,72 87,257 136,310 106,113 224,221 341,322 256,219 532,418 821,591 l 0,0 1,1 c 10,7 22,13 33,18 23,12 47,23 71,33 63,25 132,46 200,54 139,15 251,-28 307,-165 433,-1074 350,-2280 -230,-3285 C 2673,8117 1670,7442 523,7281 Z"
         id="path75"
         inkscape:connector-curvature="0"
         style="fill:#3c503c" /><path
         class="fil12"
         d="m 522,7288 c -75,-10 -145,4 -203,55 -37,34 -65,78 -85,124 -27,62 -43,131 -53,198 -3,26 -6,51 -7,77 -1,12 -1,25 -1,37 l 0,1 0,1 c 6,336 40,674 102,1005 29,152 63,307 109,455 20,67 134,235 196,269 l 528,285 c 77,42 155,59 237,23 110,-49 187,-171 279,-246 97,-80 276,-97 397,-98 96,-1 197,6 291,23 44,8 146,28 170,70 24,42 -10,140 -25,182 -32,90 -76,181 -125,264 -62,104 -166,251 -283,294 -64,25 -135,36 -202,54 -154,42 -245,108 -250,281 l -16,601 c -2,70 86,253 134,304 106,113 223,221 340,322 255,219 531,418 820,590 l 0,1 1,0 c 10,7 22,13 33,18 23,12 46,23 70,32 62,26 131,46 198,54 135,15 244,-26 298,-160 433,-1072 350,-2275 -229,-3278 C 2667,8123 1666,7450 522,7288 Z"
         id="path77"
         inkscape:connector-curvature="0"
         style="fill:#3b553b" /><path
         class="fil13"
         d="m 521,7296 c -73,-10 -141,3 -197,53 -36,33 -63,76 -82,121 -28,61 -44,130 -53,196 -3,25 -6,51 -7,76 -1,12 -1,25 -1,37 l 0,1 0,1 c 6,335 40,673 102,1003 28,152 63,307 108,455 20,65 133,232 193,264 l 528,286 c 74,39 150,56 229,21 109,-47 188,-170 278,-244 99,-81 279,-98 402,-100 96,-1 198,6 293,24 46,8 149,28 175,73 26,45 -8,144 -24,189 -33,91 -77,182 -126,265 -63,106 -168,253 -287,298 -65,24 -136,36 -203,54 -150,41 -239,104 -244,274 l -17,600 c -1,68 87,249 133,299 105,113 222,220 339,321 255,219 531,417 819,590 l 0,0 1,1 c 10,6 22,12 33,17 22,12 45,22 69,32 62,25 129,46 196,53 132,14 237,-25 290,-155 431,-1070 349,-2271 -229,-3271 C 2661,8129 1663,7457 521,7296 Z"
         id="path79"
         inkscape:connector-curvature="0"
         style="fill:#3a5b3a" /></g><path
       class="fil8"
       d="m -3504,12416 c -420,-1041 -374,-2258 231,-3306 605,-1047 1635,-1696 2747,-1853 372,-52 387,481 384,524 -13,811 -189,1394 -212,1469 -23,76 -142,250 -211,287 l -529,286 c -279,151 -409,-110 -550,-227 -185,-152 -772,-82 -811,-13 -39,68 193,611 417,695 172,64 463,46 472,363 l 17,601 c 2,79 -89,269 -143,327 -54,57 -471,501 -1166,917 -37,24 -506,278 -646,-70 z"
       id="path81"
       inkscape:connector-curvature="0"
       style="fill:#3f3f3f" /><g
       id="_713735056"><path
         class="fil9"
         d="m -3497,12413 c 31,77 83,135 163,161 51,17 106,19 159,13 70,-7 141,-28 205,-55 25,-10 48,-21 72,-32 11,-6 24,-13 35,-20 290,-174 567,-373 823,-593 118,-102 236,-210 342,-324 52,-56 143,-244 141,-321 l -17,-600 c -2,-94 -30,-177 -108,-234 -104,-76 -242,-79 -359,-123 -111,-41 -212,-186 -271,-284 -48,-81 -91,-171 -123,-260 -11,-32 -45,-130 -27,-162 19,-32 121,-52 154,-58 93,-17 192,-25 287,-23 114,1 290,17 382,92 52,43 97,98 146,146 120,120 233,168 396,80 l 528,-286 c 68,-36 186,-209 208,-282 45,-149 80,-305 109,-458 63,-332 97,-671 102,-1009 1,-13 0,-28 -1,-41 -1,-26 -3,-52 -7,-78 -9,-69 -26,-141 -55,-205 -59,-134 -159,-214 -312,-192 -1152,162 -2159,840 -2741,1849 -583,1009 -666,2220 -231,3299 z"
         id="path84"
         inkscape:connector-curvature="0"
         style="fill:#3e453e" /><path
         class="fil10"
         d="m -3490,12410 c 30,75 81,131 159,157 49,16 104,18 156,12 69,-7 138,-28 202,-54 24,-10 48,-21 71,-33 11,-5 24,-12 35,-19 l 0,0 c 290,-173 566,-372 822,-592 118,-101 235,-209 341,-323 51,-55 141,-241 139,-315 l -17,-601 c -2,-92 -29,-172 -105,-228 -101,-74 -242,-78 -357,-121 -113,-43 -215,-188 -274,-288 -49,-82 -93,-172 -125,-261 -12,-36 -46,-134 -26,-169 21,-36 123,-55 160,-62 93,-17 193,-24 288,-23 116,1 293,17 387,94 52,43 98,99 146,147 118,117 228,164 387,78 l 529,-285 c 65,-36 182,-207 203,-278 46,-149 81,-305 109,-457 63,-332 97,-671 102,-1008 l 0,-1 c 1,-12 0,-27 0,-39 -2,-26 -4,-52 -8,-78 -9,-68 -26,-139 -54,-203 -58,-131 -154,-208 -304,-187 -1149,162 -2154,838 -2736,1845 -581,1007 -664,2216 -230,3292 z"
         id="path86"
         inkscape:connector-curvature="0"
         style="fill:#3d4a3d" /><path
         class="fil11"
         d="m -3483,12407 c 30,73 79,128 154,152 49,17 102,18 153,13 68,-8 137,-29 200,-54 24,-10 48,-21 71,-33 11,-5 23,-11 33,-18 l 1,-1 0,0 c 289,-173 565,-372 821,-591 117,-101 235,-209 341,-322 49,-53 138,-238 136,-310 l -17,-601 c -2,-89 -28,-167 -102,-222 -99,-72 -241,-78 -354,-120 -115,-43 -219,-189 -279,-291 -49,-82 -93,-173 -125,-263 -14,-38 -48,-137 -25,-175 22,-39 124,-58 164,-66 94,-17 195,-24 290,-23 119,1 297,18 392,96 53,43 98,99 147,147 115,115 221,162 377,77 l 529,-285 c 63,-35 179,-204 200,-274 45,-148 80,-304 109,-456 62,-331 96,-669 101,-1006 l 0,-1 0,0 c 1,-12 0,-27 0,-39 -2,-26 -4,-51 -8,-77 -9,-68 -25,-138 -53,-201 -56,-127 -150,-203 -296,-182 -1147,161 -2150,836 -2730,1841 -580,1005 -663,2211 -230,3285 z"
         id="path88"
         inkscape:connector-curvature="0"
         style="fill:#3c503c" /><path
         class="fil12"
         d="m -3475,12404 c 28,70 75,124 149,148 47,16 99,17 149,12 67,-8 136,-28 198,-54 24,-9 47,-20 70,-32 11,-5 23,-11 33,-18 l 1,0 0,-1 c 289,-172 565,-371 820,-590 117,-101 234,-209 340,-322 48,-51 136,-234 134,-304 l -16,-601 c -3,-86 -27,-163 -99,-215 -98,-72 -242,-78 -353,-120 -117,-43 -221,-190 -283,-294 -49,-83 -93,-174 -125,-264 -15,-42 -49,-140 -25,-182 24,-42 126,-62 170,-70 94,-17 195,-24 291,-23 121,1 300,18 397,98 53,43 98,99 147,148 114,112 216,158 369,75 l 528,-285 c 62,-34 176,-202 196,-269 46,-148 80,-303 109,-455 62,-331 96,-669 102,-1005 l 0,-1 0,-1 c 0,-12 0,-25 -1,-37 -1,-26 -4,-51 -7,-77 -10,-67 -26,-136 -53,-198 -55,-125 -145,-199 -288,-179 -1144,162 -2145,835 -2724,1838 -579,1003 -662,2206 -229,3278 z"
         id="path90"
         inkscape:connector-curvature="0"
         style="fill:#3b553b" /><path
         class="fil13"
         d="m -3468,12401 c 28,68 73,120 144,143 47,16 98,17 146,12 67,-7 134,-28 196,-53 24,-10 47,-20 69,-32 11,-5 23,-11 33,-17 l 1,-1 0,0 c 288,-173 564,-371 819,-590 117,-101 234,-208 339,-321 46,-50 134,-231 133,-299 l -17,-600 c -3,-85 -26,-159 -96,-210 -96,-70 -241,-77 -351,-118 -119,-45 -224,-192 -287,-298 -49,-83 -93,-174 -126,-265 -16,-45 -50,-144 -24,-189 26,-45 129,-65 175,-73 95,-18 197,-25 293,-24 123,2 303,19 402,100 53,44 99,99 148,148 111,110 209,155 359,75 l 528,-286 c 60,-32 173,-199 193,-264 45,-148 80,-303 108,-455 62,-330 96,-668 102,-1003 l 0,-1 0,-1 c 0,-12 0,-25 -1,-37 -1,-25 -4,-51 -7,-76 -9,-66 -25,-135 -53,-196 -53,-121 -140,-193 -279,-174 -1142,161 -2140,833 -2718,1834 -578,1000 -660,2201 -229,3271 z"
         id="path92"
         inkscape:connector-curvature="0"
         style="fill:#3a5b3a" /></g><g
       id="_713706608"><path
         class="fil7"
         d="m -295,14396 c -21,-26 -21,-73 0,-99 l 258,-326 c 15,-19 59,-19 74,0 l 258,326 c 21,26 21,73 0,99 l -258,326 c -15,19 -59,19 -74,0 l -258,-326 z"
         id="path95"
         inkscape:connector-curvature="0"
         style="fill:#cccccc" /><g
         id="g97"><path
           class="fil2"
           d="m -289,14391 258,326 c 12,15 50,15 62,0 l 258,-326 c 18,-23 18,-66 0,-89 L 31,13976 c -12,-15 -50,-15 -62,0 l -258,326 c -18,23 -18,66 0,89 z"
           id="path99"
           inkscape:connector-curvature="0"
           style="fill:#d6d6d6" /><path
           class="fil3"
           d="m -283,14386 258,326 c 9,11 41,11 50,0 l 258,-326 c 16,-20 16,-59 0,-79 L 25,13981 c -9,-11 -41,-11 -50,0 l -258,326 c -16,20 -16,59 0,79 z"
           id="path101"
           inkscape:connector-curvature="0"
           style="fill:#e0e0e0" /><path
           class="fil4"
           d="m -277,14381 259,326 c 5,7 31,7 36,0 l 259,-326 c 13,-17 13,-52 0,-69 L 18,13986 c -5,-7 -31,-7 -36,0 l -259,326 c -13,17 -13,52 0,69 z"
           id="path103"
           inkscape:connector-curvature="0"
           style="fill:#ebebeb" /><path
           class="fil5"
           d="m -271,14376 258,326 c 5,4 21,4 25,0 l 259,-326 c 11,-14 11,-45 0,-59 L 13,13991 c -5,-4 -21,-4 -25,0 l -259,326 c -11,14 -11,45 0,59 z"
           id="path105"
           inkscape:connector-curvature="0"
           style="fill:#f5f5f5" /><path
           class="fil6"
           d="m -7,14696 c 3,1 11,1 14,0 l 257,-325 c 9,-11 9,-38 0,-49 L 7,13997 c -3,-1 -11,-1 -14,0 l -257,325 c -9,11 -9,38 0,49 l 257,325 z"
           id="path107"
           inkscape:connector-curvature="0"
           style="fill:#ffffff" /></g><path
         class="fil7"
         d="m -1083,13602 c -17,-23 -17,-63 0,-86 l 224,-282 c 13,-17 51,-17 64,0 l 224,282 c 18,23 18,63 0,86 l -224,282 c -13,17 -51,17 -64,0 l -224,-282 z"
         id="path109"
         inkscape:connector-curvature="0"
         style="fill:#cccccc" /><g
         id="g111"><path
           class="fil2"
           d="m -1077,13597 224,282 c 10,13 42,13 52,0 l 224,-282 c 15,-20 15,-56 0,-76 l -224,-282 c -10,-13 -42,-13 -52,0 l -224,282 c -15,20 -15,56 0,76 z"
           id="path113"
           inkscape:connector-curvature="0"
           style="fill:#d6d6d6" /><path
           class="fil3"
           d="m -1070,13592 224,282 c 6,9 32,9 39,0 l 224,-282 c 13,-17 13,-49 0,-66 l -224,-282 c -7,-9 -33,-9 -39,0 l -224,282 c -13,17 -13,49 0,66 z"
           id="path115"
           inkscape:connector-curvature="0"
           style="fill:#e0e0e0" /><path
           class="fil4"
           d="m -1064,13587 224,283 c 4,4 23,4 27,0 l 224,-283 c 10,-14 10,-42 0,-56 l -224,-282 c -4,-5 -23,-5 -27,0 l -224,282 c -11,14 -11,42 0,56 z"
           id="path117"
           inkscape:connector-curvature="0"
           style="fill:#ebebeb" /><path
           class="fil5"
           d="m -835,13864 c 4,2 13,2 16,0 l 223,-282 c 9,-11 9,-35 0,-46 l -223,-282 c -3,-2 -12,-2 -16,0 l -223,282 c -9,11 -9,35 0,46 l 223,282 z"
           id="path119"
           inkscape:connector-curvature="0"
           style="fill:#f5f5f5" /><path
           class="fil6"
           d="m -830,13857 c 2,1 5,1 6,0 l 222,-280 c 7,-8 7,-28 0,-36 l -222,-280 c -1,0 -4,0 -6,0 l -222,280 c -6,8 -6,28 0,36 l 222,280 z"
           id="path121"
           inkscape:connector-curvature="0"
           style="fill:#ffffff" /></g><path
         class="fil7"
         d="m 571,13602 c -18,-23 -18,-63 0,-86 l 224,-282 c 13,-17 51,-17 64,0 l 224,282 c 17,23 17,63 0,86 l -224,282 c -13,17 -51,17 -64,0 l -224,-282 z"
         id="path123"
         inkscape:connector-curvature="0"
         style="fill:#cccccc" /><g
         id="g125"><path
           class="fil2"
           d="m 577,13597 224,282 c 10,13 42,13 52,0 l 224,-282 c 15,-20 15,-56 0,-76 l -224,-282 c -10,-13 -42,-13 -52,0 l -224,282 c -15,20 -15,56 0,76 z"
           id="path127"
           inkscape:connector-curvature="0"
           style="fill:#d6d6d6" /><path
           class="fil3"
           d="m 583,13592 224,282 c 7,9 33,9 39,0 l 224,-282 c 13,-17 13,-49 0,-66 l -224,-282 c -6,-9 -32,-9 -39,0 l -224,282 c -13,17 -13,49 0,66 z"
           id="path129"
           inkscape:connector-curvature="0"
           style="fill:#e0e0e0" /><path
           class="fil4"
           d="m 589,13587 224,283 c 4,4 23,4 27,0 l 224,-283 c 11,-14 11,-42 0,-56 l -224,-282 c -4,-5 -23,-5 -27,0 l -224,282 c -10,14 -10,42 0,56 z"
           id="path131"
           inkscape:connector-curvature="0"
           style="fill:#ebebeb" /><path
           class="fil5"
           d="m 819,13864 c 3,2 12,2 16,0 l 223,-282 c 9,-11 9,-35 0,-46 l -223,-282 c -4,-2 -13,-2 -16,0 l -223,282 c -9,11 -9,35 0,46 l 223,282 z"
           id="path133"
           inkscape:connector-curvature="0"
           style="fill:#f5f5f5" /><path
           class="fil6"
           d="m 824,13857 c 1,1 4,1 6,0 l 222,-280 c 6,-8 6,-28 0,-36 l -222,-280 c -2,0 -5,0 -6,0 l -222,280 c -7,8 -7,28 0,36 l 222,280 z"
           id="path135"
           inkscape:connector-curvature="0"
           style="fill:#ffffff" /></g></g></g></svg>