<?xml version="1.0" encoding="UTF-8" standalone="no"?>
<!-- Creator: CorelDRAW X7 -->

<svg
   xmlns:dc="http://purl.org/dc/elements/1.1/"
   xmlns:cc="http://creativecommons.org/ns#"
   xmlns:rdf="http://www.w3.org/1999/02/22-rdf-syntax-ns#"
   xmlns:svg="http://www.w3.org/2000/svg"
   xmlns="http://www.w3.org/2000/svg"
   xmlns:sodipodi="http://sodipodi.sourceforge.net/DTD/sodipodi-0.dtd"
   xmlns:inkscape="http://www.inkscape.org/namespaces/inkscape"
   xml:space="preserve"
   width="7.8740005in"
   height="7.8740005in"
   version="1.1"
   style="clip-rule:evenodd;fill-rule:evenodd;image-rendering:optimizeQuality;shape-rendering:geometricPrecision;text-rendering:geometricPrecision"
   viewBox="0 0 7874.0005 7874.0005"
   id="svg3853"
   inkscape:version="0.91 r13725"
   sodipodi:docname="Yu Jing - Mech-Engineers (Zhanshi Gongcheng) - [N3] [Vyo].svg"><metadata
     id="metadata3890"><rdf:RDF><cc:Work
         rdf:about=""><dc:format>image/svg+xml</dc:format><dc:type
           rdf:resource="http://purl.org/dc/dcmitype/StillImage" /></cc:Work></rdf:RDF></metadata><sodipodi:namedview
     pagecolor="#ffffff"
     bordercolor="#666666"
     borderopacity="1"
     objecttolerance="10"
     gridtolerance="10"
     guidetolerance="10"
     inkscape:pageopacity="0"
     inkscape:pageshadow="2"
     inkscape:window-width="640"
     inkscape:window-height="480"
     id="namedview3888"
     showgrid="false"
     inkscape:zoom="0.23838384"
     inkscape:cx="736.83001"
     inkscape:cy="849.33005"
     inkscape:window-x="0"
     inkscape:window-y="0"
     inkscape:window-maximized="0"
     inkscape:current-layer="svg3853" /><defs
     id="defs3855"><style
       type="text/css"
       id="style3857"><![CDATA[
    .fil2 {fill:none}
    .fil0 {fill:#E2001A}
    .fil1 {fill:white}
    .fil4 {fill:#E2001A;fill-rule:nonzero}
    .fil3 {fill:white;fill-rule:nonzero}
   ]]></style></defs><g
     id="Layer_x0020_1"
     transform="translate(3937,-7063)"><metadata
       id="CorelCorpID_0Corel-Layer" /><circle
       class="fil0"
       cy="11000"
       r="3937"
       id="circle3861"
       cx="0"
       style="fill:#e2001a" /><circle
       class="fil1"
       cy="11000"
       r="3819"
       id="circle3863"
       cx="0"
       style="fill:#ffffff" /><circle
       class="fil2"
       cy="11000"
       r="3898"
       id="circle3865"
       cx="0"
       style="fill:none" /><path
       class="fil0"
       d="m -2659,8563 c 25,-28 54,-2 28,26 -491,576 -752,1276 -823,1976 l -184,-184 c 130,-669 466,-1295 979,-1818 z m 227,209 c -510,515 -846,1167 -936,1879 l 94,94 122,-123 c 64,-662 317,-1316 749,-1824 25,-29 -2,-53 -29,-26 z m -883,2096 c -2,44 -2,88 -2,132 0,145 9,289 27,429 l -407,-218 c -4,-70 -6,-140 -6,-211 0,-166 11,-329 32,-489 l 356,357 z m 47,703 c 35,205 89,403 161,593 l -448,-122 c -65,-224 -110,-456 -132,-695 l 419,224 z m 214,728 c 116,270 266,522 445,750 l -476,0 c -179,-270 -324,-564 -429,-876 l 460,126 z m 540,866 c 54,62 110,122 168,181 215,215 459,400 726,550 l -537,114 c -164,-118 -319,-249 -462,-391 -140,-141 -269,-293 -386,-454 l 491,0 z m -284,-2733 c -21,105 -37,213 -46,323 l -374,624 c -15,-125 -22,-251 -22,-379 0,-43 1,-86 2,-128 l 440,-440 z m -57,564 c 0,125 8,250 24,373 l -219,727 c -62,-173 -110,-352 -142,-537 l 337,-563 z m 68,626 c 49,217 121,424 216,619 l 1,732 c -166,-215 -304,-451 -412,-703 l 195,-648 z m 331,834 c 122,205 269,394 438,562 94,95 196,184 303,264 l 140,550 c -264,-147 -505,-329 -716,-541 -57,-56 -112,-115 -164,-176 l -1,-659 z m -321,-2209 c 102,-438 291,-873 601,-1241 25,-29 -1,-53 -28,-26 -435,437 -721,961 -829,1524 l 256,-257 z"
       id="path3867"
       inkscape:connector-curvature="0"
       style="fill:#e2001a" /><path
       class="fil0"
       d="m 2659,8563 c -25,-28 -54,-2 -28,26 491,576 752,1276 823,1976 l 184,-184 C 3508,9712 3172,9086 2659,8563 Z m -227,209 c 510,515 846,1167 936,1879 l -94,94 -122,-123 c -64,-662 -317,-1316 -749,-1824 -25,-29 2,-53 29,-26 z m 883,2096 c 2,44 2,88 2,132 0,145 -9,289 -27,429 l 407,-218 c 4,-70 6,-140 6,-211 0,-166 -11,-329 -32,-489 l -356,357 z m -47,703 c -35,205 -89,403 -161,593 l 448,-122 c 65,-224 110,-456 132,-695 l -419,224 z m -214,728 c -116,270 -266,522 -445,750 l 476,0 c 179,-270 324,-564 429,-876 l -460,126 z m -540,866 c -54,62 -110,122 -168,181 -215,215 -459,400 -726,550 l 537,114 c 164,-118 319,-249 462,-391 140,-141 269,-293 386,-454 l -491,0 z m 284,-2733 c 21,105 37,213 46,323 l 374,624 c 15,-125 22,-251 22,-379 0,-43 -1,-86 -2,-128 l -440,-440 z m 57,564 c 0,125 -8,250 -24,373 l 219,727 c 62,-173 110,-352 142,-537 l -337,-563 z m -68,626 c -49,217 -121,424 -216,619 l -1,732 c 166,-215 304,-451 412,-703 l -195,-648 z m -331,834 c -122,205 -269,394 -438,562 -94,95 -196,184 -303,264 l -140,550 c 264,-147 505,-329 716,-541 57,-56 112,-115 164,-176 l 1,-659 z m 321,-2209 c -102,-438 -291,-873 -601,-1241 -25,-29 1,-53 28,-26 435,437 721,961 829,1524 l -256,-257 z"
       id="path3869"
       inkscape:connector-curvature="0"
       style="fill:#e2001a" /><path
       class="fil0"
       d="m 0,14703 c -748,0 -1443,-221 -2025,-602 l 604,-129 -148,-587 c 450,297 989,470 1569,470 580,0 1119,-173 1569,-470 l -148,587 604,129 c -582,381 -1277,602 -2025,602 z"
       id="path3871"
       inkscape:connector-curvature="0"
       style="fill:#e2001a" /><circle
       class="fil2"
       cy="11000"
       r="3819"
       id="circle3873"
       cx="0"
       style="fill:none" /><path
       class="fil3"
       d="m -806,14463 324,42 34,-262 -274,-36 7,-59 275,37 26,-198 -294,-39 8,-58 662,87 -8,59 -303,-40 -26,197 284,38 -8,58 -284,-37 -34,262 332,44 -7,59 -722,-96 8,-58 z m 495,-130 52,-30 c 36,54 68,106 97,157 l -57,33 c -24,-46 -54,-100 -92,-160 z m 431,-200 538,-71 34,254 -59,8 -4,-30 -173,23 25,191 c 8,59 -16,93 -73,101 -36,5 -69,10 -99,14 -6,-22 -12,-41 -19,-60 34,-1 63,-4 88,-7 32,-3 45,-22 41,-55 l -23,-176 -188,24 5,34 -59,8 -34,-258 z m 486,-12 -421,56 16,120 421,-55 -16,-121 z m -600,-95 348,-46 c -18,-25 -38,-50 -60,-76 l 52,-34 c 24,27 47,56 71,86 l -28,19 354,-46 7,52 -737,98 -7,-53 z m 248,382 47,40 c -61,59 -122,114 -184,166 -12,-16 -26,-32 -42,-46 64,-49 123,-102 179,-160 z m 298,12 30,-50 c 74,31 145,64 214,97 l -33,57 c -58,-32 -129,-67 -211,-104 z"
       id="path3875"
       inkscape:connector-curvature="0"
       style="fill:#ffffff;fill-rule:nonzero" /><circle
       class="fil2"
       cy="11000"
       r="3898"
       id="circle3877"
       cx="0"
       style="fill:none" /><path
       class="fil4"
       d="m -1318,7873 82,-48 c -29,-58 -57,-116 -83,-174 l 92,-39 74,163 165,-97 38,72 -166,101 c 23,43 45,81 66,115 15,-45 28,-99 39,-160 l 94,18 c -20,81 -46,155 -76,223 24,29 47,52 70,67 7,3 13,4 17,2 5,-2 7,-8 7,-17 -6,-33 -17,-71 -33,-115 17,1 49,1 97,-2 23,94 32,154 25,179 -7,25 -25,43 -52,55 -53,22 -112,-4 -178,-77 -20,34 -40,66 -63,96 -13,-8 -29,-17 -47,-27 l 35,85 -83,35 -13,-32 -111,46 17,39 -83,35 -139,-328 80,-34 -124,-295 88,-37 42,100 123,-51 32,75 -123,52 50,119 109,-45 82,193 c 26,-33 49,-66 67,-99 -28,-41 -61,-96 -97,-165 l -75,45 -45,-73 z m 16,208 -111,46 60,141 110,-46 -59,-141 z m 142,-489 c 40,9 84,22 130,39 l -32,80 c -40,-17 -82,-33 -128,-46 l 30,-73 z"
       id="path3879"
       inkscape:connector-curvature="0"
       style="fill:#e2001a;fill-rule:nonzero" /><polygon
       id="1"
       class="fil4"
       points="-762,7783 -776,7684 -493,7643 -521,7445 -411,7429 -382,7627 -97,7586 -83,7685 -368,7727 -331,7980 -82,7944 -68,8042 -673,8129 -688,8031 -442,7996 -478,7742 "
       style="fill:#e2001a;fill-rule:nonzero" /><polygon
       id="2"
       class="fil4"
       points="146,7546 161,7447 767,7535 752,7634 504,7598 445,7998 729,8039 715,8138 36,8039 50,7940 331,7981 389,7581 "
       style="fill:#e2001a;fill-rule:nonzero" /><path
       id="3"
       class="fil4"
       d="m 934,7732 88,32 27,-72 c -27,-7 -54,-15 -81,-23 9,-34 16,-64 19,-89 71,23 153,42 246,60 l -10,90 c -29,-5 -58,-11 -86,-17 l -31,83 76,28 -29,78 -76,-28 -27,73 26,-11 c 15,26 34,63 57,109 l -80,35 c -9,-25 -17,-48 -26,-71 l -91,247 -85,-32 95,-254 c -35,43 -73,83 -113,119 5,-41 9,-82 9,-123 44,-29 90,-72 138,-128 l -75,-28 29,-78 z m 333,-67 344,128 -82,222 -345,-128 83,-222 z m 228,172 -169,-62 -25,68 168,63 26,-69 z m -472,341 174,64 21,-56 -129,-49 27,-74 130,48 20,-54 -141,-53 28,-77 381,142 -29,76 -148,-55 -21,55 131,49 -27,74 -131,-49 -21,57 164,61 -28,77 -430,-160 29,-76 z"
       inkscape:connector-curvature="0"
       style="fill:#e2001a;fill-rule:nonzero" /><circle
       class="fil2"
       cy="11000"
       r="3898"
       id="circle3884"
       cx="0"
       style="fill:none" /><path
       class="fil0"
       d="m -276,8402 552,0 202,607 c 212,51 411,134 592,245 l 572,-286 390,390 -286,572 c 111,181 194,380 245,592 l 607,202 0,552 -607,202 c -51,212 -134,411 -245,592 l 286,572 -390,390 -572,-286 c -181,111 -380,194 -592,245 l -202,607 -552,0 -202,-607 c -212,-51 -411,-134 -592,-245 l -572,286 -390,-390 286,-572 c -111,-181 -194,-380 -245,-592 l -607,-202 0,-552 607,-202 c 51,-212 134,-411 245,-592 l -286,-572 390,-390 572,286 c 181,-111 380,-194 592,-245 l 202,-607 z M 0,9504 c 826,0 1496,670 1496,1496 0,826 -670,1496 -1496,1496 -826,0 -1496,-670 -1496,-1496 0,-826 670,-1496 1496,-1496 z m 0,315 c 652,0 1181,529 1181,1181 0,652 -529,1181 -1181,1181 -652,0 -1181,-529 -1181,-1181 0,-652 529,-1181 1181,-1181 z m 0,-433 c 891,0 1614,723 1614,1614 0,891 -723,1614 -1614,1614 -891,0 -1614,-723 -1614,-1614 0,-891 723,-1614 1614,-1614 z"
       id="path3886"
       inkscape:connector-curvature="0"
       style="fill:#e2001a" /></g></svg>