<?xml version="1.0" encoding="UTF-8" standalone="no"?>
<!-- Creator: CorelDRAW X7 -->

<svg
   xmlns:dc="http://purl.org/dc/elements/1.1/"
   xmlns:cc="http://creativecommons.org/ns#"
   xmlns:rdf="http://www.w3.org/1999/02/22-rdf-syntax-ns#"
   xmlns:svg="http://www.w3.org/2000/svg"
   xmlns="http://www.w3.org/2000/svg"
   xmlns:sodipodi="http://sodipodi.sourceforge.net/DTD/sodipodi-0.dtd"
   xmlns:inkscape="http://www.inkscape.org/namespaces/inkscape"
   xml:space="preserve"
   width="7.8740005in"
   height="7.8740005in"
   version="1.1"
   style="clip-rule:evenodd;fill-rule:evenodd;image-rendering:optimizeQuality;shape-rendering:geometricPrecision;text-rendering:geometricPrecision"
   viewBox="0 0 7874.0005 7874.0005"
   id="svg2"
   inkscape:version="0.91 r13725"
   sodipodi:docname="aleph_hector_homeridaes_champion.svg"><metadata
     id="metadata22"><rdf:RDF><cc:Work
         rdf:about=""><dc:format>image/svg+xml</dc:format><dc:type
           rdf:resource="http://purl.org/dc/dcmitype/StillImage" /></cc:Work></rdf:RDF></metadata><sodipodi:namedview
     pagecolor="#ffffff"
     bordercolor="#666666"
     borderopacity="1"
     objecttolerance="10"
     gridtolerance="10"
     guidetolerance="10"
     inkscape:pageopacity="0"
     inkscape:pageshadow="2"
     inkscape:window-width="640"
     inkscape:window-height="480"
     id="namedview20"
     showgrid="false"
     inkscape:zoom="0.23838384"
     inkscape:cx="736.83001"
     inkscape:cy="849.33005"
     inkscape:window-x="0"
     inkscape:window-y="0"
     inkscape:window-maximized="0"
     inkscape:current-layer="svg2" /><defs
     id="defs4"><style
       type="text/css"
       id="style6"><![CDATA[
    .str0 {stroke:black;stroke-width:3}
    .fil2 {fill:none}
    .fil1 {fill:black}
    .fil0 {fill:white}
    .fil3 {fill:white;fill-rule:nonzero}
   ]]></style></defs><g
     id="Layer_x0020_1"
     transform="translate(3937,-7063)"><metadata
       id="CorelCorpID_0Corel-Layer" /><circle
       class="fil0"
       cy="11000"
       r="3937"
       id="circle10"
       cx="0"
       style="fill:#ffffff" /><path
       class="fil1 str0"
       d="m -1772,10232 c 0,-652 402,-1639 1282,-1851 273,-196 656,-307 1118,-249 -55,88 -97,183 -116,289 43,21 62,28 98,59 40,-118 99,-216 173,-321 321,74 603,254 713,597 -335,0 -630,118 -709,315 19,177 99,212 99,531 0,296 -177,607 -177,1024 0,157 -315,157 -315,0 0,-610 -394,-906 -453,-906 -98,0 -295,335 -295,689 0,670 1476,2441 1889,2638 -511,171 -1043,381 -1555,551 -466,-164 -931,-406 -1397,-570 452,-394 571,-532 295,-788 -551,-512 -650,-1260 -650,-2008 z"
       id="path12"
       inkscape:connector-curvature="0"
       style="fill:#000000;stroke:#000000;stroke-width:3" /><path
       class="fil1"
       d="m 741,7293 c 1733,345 3039,1873 3039,3707 0,2087 -1693,3780 -3780,3780 -2087,0 -3780,-1693 -3780,-3780 0,-1834 1306,-3362 3039,-3707 57,-11 113,26 124,83 12,58 -25,114 -83,125 l 0,0 c -1293,314 -2253,1479 -2253,2869 0,1631 1322,2953 2953,2953 1631,0 2953,-1322 2953,-2953 0,-1390 -960,-2555 -2253,-2869 l 0,0 c -58,-11 -95,-67 -83,-125 11,-57 67,-94 124,-83 z"
       id="path14"
       inkscape:connector-curvature="0"
       style="fill:#000000" /><circle
       class="fil2"
       cy="11000"
       r="3898"
       id="circle16"
       cx="0"
       style="fill:none" /><path
       class="fil3"
       d="m -1529,13051 -63,216 -46,-9 7,-246 15,-22 87,61 z m 164,111 -51,219 -48,-7 -5,-245 14,-23 90,56 z m 655,377 -59,153 -55,-21 c 1,-19 1,-36 0,-51 -1,-14 -3,-27 -6,-38 -4,-11 -8,-20 -14,-28 -5,-8 -13,-15 -23,-21 -9,-6 -21,-12 -36,-17 l -176,-68 -102,265 119,46 c 16,6 30,9 41,8 11,0 22,-4 31,-12 10,-8 22,-22 36,-41 l 53,20 -75,195 -53,-21 c 3,-22 3,-39 1,-52 -3,-13 -7,-23 -14,-31 -7,-8 -20,-15 -37,-21 l -119,-46 -113,292 173,66 c 19,7 34,12 46,13 13,2 24,1 35,-3 11,-4 22,-10 32,-19 11,-9 21,-18 30,-28 8,-11 21,-26 37,-46 l 55,21 -79,174 -515,-199 9,-25 c 26,4 43,4 54,0 10,-4 19,-11 26,-22 7,-11 15,-29 25,-54 l 168,-438 c 9,-24 15,-41 17,-52 3,-12 3,-21 1,-29 -2,-7 -6,-14 -12,-20 -5,-7 -16,-15 -32,-26 l 10,-25 521,201 z m 571,794 c -51,28 -99,38 -145,32 -27,-4 -49,-13 -66,-30 -16,-16 -31,-41 -46,-74 l -85,-197 c -17,10 -42,21 -75,33 l -30,219 -101,-14 49,-368 c 7,-47 8,-77 3,-91 -5,-14 -24,-26 -60,-37 l 4,-28 139,13 37,5 -35,255 c 48,-21 111,-64 190,-130 51,-43 88,-69 111,-78 22,-8 46,-11 71,-7 21,3 40,8 58,16 l -14,102 -47,-7 c -7,-17 -20,-27 -39,-29 -16,-3 -35,2 -55,13 -20,11 -61,40 -124,88 l 112,235 c 18,38 40,58 66,62 20,2 40,-4 63,-18 l 19,35 z m 377,-424 23,310 c 4,57 31,84 80,80 22,-1 46,-12 71,-34 l 27,30 c -47,40 -92,62 -134,65 -46,3 -81,-5 -105,-25 -23,-20 -37,-54 -41,-102 l -24,-317 -52,4 c -31,3 -55,9 -72,20 -16,10 -33,27 -50,52 l -40,-26 c 33,-48 62,-79 86,-94 25,-15 59,-24 102,-27 l 351,-27 5,73 -227,18 z m 811,201 c -12,69 -56,115 -130,140 -69,22 -130,20 -181,-7 -52,-27 -89,-76 -112,-146 -37,-113 -2,-231 105,-353 l 43,25 c -62,84 -75,182 -37,297 19,60 45,101 75,124 31,23 65,28 101,17 33,-11 54,-31 64,-61 10,-30 8,-66 -6,-110 l -58,-179 99,-32 58,179 c 14,44 35,75 60,93 26,17 55,21 88,10 38,-12 62,-37 73,-74 10,-38 6,-85 -13,-143 -19,-60 -45,-107 -77,-140 -32,-33 -75,-59 -129,-78 l 22,-46 c 158,38 256,112 292,224 24,71 21,133 -6,185 -28,52 -75,89 -141,111 -74,24 -137,12 -190,-36 z m 687,-271 148,229 -86,56 -260,-402 c -104,-160 -81,-288 69,-385 62,-41 123,-54 182,-38 59,15 110,56 154,123 50,78 69,149 58,214 -11,66 -50,119 -114,161 -49,32 -100,46 -151,42 z m -105,-163 48,75 c 17,26 42,41 76,43 34,2 66,-7 98,-28 84,-54 87,-142 9,-262 -86,-132 -166,-173 -241,-124 -86,55 -83,154 10,296 z"
       id="path18"
       inkscape:connector-curvature="0"
       style="fill:#ffffff;fill-rule:nonzero" /></g></svg>