<?xml version="1.0" encoding="UTF-8" standalone="no"?>
<!-- Creator: CorelDRAW X7 -->

<svg
   xmlns:dc="http://purl.org/dc/elements/1.1/"
   xmlns:cc="http://creativecommons.org/ns#"
   xmlns:rdf="http://www.w3.org/1999/02/22-rdf-syntax-ns#"
   xmlns:svg="http://www.w3.org/2000/svg"
   xmlns="http://www.w3.org/2000/svg"
   xmlns:sodipodi="http://sodipodi.sourceforge.net/DTD/sodipodi-0.dtd"
   xmlns:inkscape="http://www.inkscape.org/namespaces/inkscape"
   xml:space="preserve"
   width="7.8740005in"
   height="7.8740005in"
   version="1.1"
   style="clip-rule:evenodd;fill-rule:evenodd;image-rendering:optimizeQuality;shape-rendering:geometricPrecision;text-rendering:geometricPrecision"
   viewBox="0 0 7874.0005 7874.0005"
   id="svg4058"
   inkscape:version="0.91 r13725"
   sodipodi:docname="Ariadna - Minutemen - [N3] [Vyo].svg"><metadata
     id="metadata4114"><rdf:RDF><cc:Work
         rdf:about=""><dc:format>image/svg+xml</dc:format><dc:type
           rdf:resource="http://purl.org/dc/dcmitype/StillImage" /></cc:Work></rdf:RDF></metadata><sodipodi:namedview
     pagecolor="#ffffff"
     bordercolor="#666666"
     borderopacity="1"
     objecttolerance="10"
     gridtolerance="10"
     guidetolerance="10"
     inkscape:pageopacity="0"
     inkscape:pageshadow="2"
     inkscape:window-width="640"
     inkscape:window-height="480"
     id="namedview4112"
     showgrid="false"
     inkscape:zoom="0.23838384"
     inkscape:cx="736.83001"
     inkscape:cy="849.33005"
     inkscape:window-x="0"
     inkscape:window-y="0"
     inkscape:window-maximized="0"
     inkscape:current-layer="svg4058" /><defs
     id="defs4060"><style
       type="text/css"
       id="style4062"><![CDATA[
    .fil2 {fill:none}
    .fil0 {fill:black}
    .fil1 {fill:#EECE00}
    .fil5 {fill:white}
    .fil4 {fill:white}
    .fil3 {fill:white;fill-rule:nonzero}
   ]]></style></defs><g
     id="Layer_x0020_1"
     transform="translate(3937,-7063)"><metadata
       id="CorelCorpID_0Corel-Layer" /><circle
       class="fil0"
       cy="11000"
       r="3937"
       id="circle4066"
       cx="0"
       style="fill:#000000" /><circle
       class="fil1"
       cy="11000"
       r="3701"
       id="circle4068"
       cx="0"
       style="fill:#eece00" /><circle
       class="fil0"
       cy="11000"
       r="3504"
       id="circle4070"
       cx="0"
       style="fill:#000000" /><circle
       class="fil2"
       cy="11000"
       r="3898"
       id="circle4072"
       cx="0"
       style="fill:none" /><circle
       class="fil2"
       cy="11000"
       r="3898"
       id="circle4074"
       cx="0"
       style="fill:none" /><path
       class="fil3"
       d="m -3326,10475 77,6 -28,331 82,7 c -8,-7 -13,-14 -17,-22 -3,-7 -6,-15 -7,-24 -2,-9 -2,-20 -2,-33 1,-12 2,-27 3,-45 4,-44 8,-80 12,-109 4,-29 10,-52 20,-69 9,-17 22,-28 39,-34 17,-6 41,-7 71,-5 36,3 63,10 82,21 18,10 31,25 38,44 7,18 10,41 9,69 -1,27 -3,59 -6,95 -4,57 -10,103 -17,137 -6,35 -16,60 -29,74 -6,7 -13,12 -20,16 -7,4 -15,6 -22,8 -8,1 -16,2 -25,2 -9,0 -18,-1 -29,-1 l 9,-109 c 24,3 38,-7 42,-31 2,-16 5,-32 7,-48 1,-16 3,-31 4,-46 2,-22 4,-40 5,-55 1,-15 1,-27 -2,-36 -2,-9 -7,-16 -14,-20 -7,-5 -18,-8 -33,-9 -15,-1 -27,0 -35,4 -7,3 -13,11 -17,22 -5,11 -7,28 -9,48 -2,21 -4,48 -7,80 -1,14 -2,26 -2,35 0,10 0,18 1,24 1,7 3,12 6,15 3,4 7,6 14,8 l -9,99 -226,-24 35,-425 z"
       id="path4076"
       inkscape:connector-curvature="0"
       style="fill:#ffffff;fill-rule:nonzero" /><path
       id="1"
       class="fil3"
       d="m -3112,10047 66,15 -35,160 83,19 c 7,1 14,2 20,3 6,1 11,1 17,-1 5,-1 9,-4 13,-9 4,-5 7,-13 9,-24 3,-11 3,-19 2,-25 -1,-6 -3,-11 -7,-15 -3,-3 -8,-6 -14,-8 -6,-1 -14,-3 -22,-5 l 17,-77 c 11,2 20,4 29,7 9,2 17,4 24,6 8,3 14,6 20,10 6,4 12,9 17,14 10,13 14,28 14,45 0,17 -3,38 -8,63 -5,23 -11,44 -17,62 -7,17 -14,31 -24,42 -9,10 -20,17 -34,20 -13,4 -30,3 -49,-1 l -113,-25 -11,51 -66,-14 11,-51 -66,-15 23,-101 66,15 35,-161 z"
       inkscape:connector-curvature="0"
       style="fill:#ffffff;fill-rule:nonzero" /><path
       id="2"
       class="fil3"
       d="m -3143,9808 153,57 c -8,-7 -14,-15 -19,-23 -4,-8 -7,-16 -7,-26 -1,-10 0,-21 3,-33 2,-12 7,-26 13,-42 8,-22 17,-41 26,-58 9,-16 21,-30 36,-41 16,-10 32,-16 49,-17 18,0 39,4 62,13 l 143,52 -36,98 -128,-48 c -11,-4 -21,-7 -30,-9 -8,-2 -15,-1 -22,2 -7,2 -13,9 -19,18 -5,10 -12,23 -18,41 -6,16 -10,29 -12,40 -2,12 -2,21 1,30 3,8 8,15 16,21 8,6 19,12 33,17 2,1 5,2 7,2 2,0 5,1 8,2 l 106,40 -36,97 -365,-136 36,-97 z"
       inkscape:connector-curvature="0"
       style="fill:#ffffff;fill-rule:nonzero" /><polygon
       id="3"
       class="fil3"
       points="-2461,8841 -2334,9159 -2392,9234 -2730,9185 -2497,9367 -2566,9455 -2872,9216 -2756,9067 -2465,9113 -2581,8843 -2466,8695 -2159,8935 -2228,9023 "
       style="fill:#ffffff;fill-rule:nonzero" /><polygon
       id="4"
       class="fil3"
       points="-2344,8591 -2257,8509 -1990,8792 -2077,8874 "
       style="fill:#ffffff;fill-rule:nonzero" /><polygon
       id="5"
       class="fil3"
       points="-1995,8412 -1829,8653 -1922,8717 -2142,8396 -1987,8290 -1629,8398 -1794,8158 -1702,8094 -1482,8415 -1637,8521 "
       style="fill:#ffffff;fill-rule:nonzero" /><path
       id="6"
       class="fil3"
       d="m -1208,7853 109,-50 101,223 c 16,34 23,64 20,89 -3,25 -15,48 -38,69 -13,12 -30,24 -51,35 -21,10 -45,22 -73,35 -30,13 -56,25 -80,36 -24,11 -46,19 -66,25 -19,7 -37,10 -53,11 -16,0 -31,-3 -45,-9 -13,-6 -26,-17 -38,-31 -11,-14 -23,-34 -34,-58 l -99,-217 109,-50 85,186 c 6,15 12,27 18,36 5,9 11,17 16,22 6,5 12,8 19,8 7,1 16,0 25,-3 10,-3 22,-7 36,-13 13,-6 29,-13 48,-22 14,-6 27,-12 38,-17 11,-5 20,-10 28,-15 8,-4 15,-9 19,-14 5,-5 8,-11 10,-17 3,-10 2,-21 -2,-32 -4,-11 -9,-24 -17,-40 l -85,-187 z"
       inkscape:connector-curvature="0"
       style="fill:#ffffff;fill-rule:nonzero" /><polygon
       id="7"
       class="fil3"
       points="-757,7823 -927,7862 -949,7767 -495,7663 -474,7758 -641,7796 -576,8080 -692,8107 "
       style="fill:#ffffff;fill-rule:nonzero" /><polygon
       id="8"
       class="fil3"
       points="93,7729 -224,7729 -224,7797 72,7797 72,7874 -224,7874 -224,7943 93,7943 93,8031 -341,8031 -341,7642 93,7642 "
       style="fill:#ffffff;fill-rule:nonzero" /><polygon
       id="9"
       class="fil3"
       points="778,7816 561,8080 467,8065 349,7745 300,8037 190,8019 253,7635 439,7666 538,7943 719,7712 904,7742 841,8126 730,8108 "
       style="fill:#ffffff;fill-rule:nonzero" /><polygon
       id="10"
       class="fil3"
       points="1437,8037 1140,7927 1116,7991 1393,8094 1367,8166 1089,8063 1065,8128 1362,8238 1332,8320 925,8169 1060,7805 1467,7955 "
       style="fill:#ffffff;fill-rule:nonzero" /><polygon
       id="11"
       class="fil3"
       points="1665,8188 1508,8434 1414,8374 1623,8046 1781,8147 1822,8519 1978,8273 2073,8333 1864,8661 1705,8560 "
       style="fill:#ffffff;fill-rule:nonzero" /><path
       id="12"
       class="fil3"
       d="m 2176,8714 90,-85 c 12,-11 24,-20 35,-25 11,-4 21,-6 32,-5 11,1 22,6 33,13 11,8 23,18 36,32 3,3 7,7 10,12 3,4 6,8 9,11 l -44,42 c -2,-2 -3,-4 -4,-5 -1,-1 -3,-3 -4,-5 -10,-10 -19,-15 -28,-13 -8,1 -18,6 -28,15 l 23,24 -80,74 -80,-85 z m 104,110 90,-84 c 12,-12 24,-20 35,-25 11,-5 21,-7 32,-6 11,2 22,6 33,14 11,7 23,18 36,31 3,4 7,8 10,12 3,4 6,8 9,12 l -44,41 c -2,-2 -3,-3 -4,-5 -1,-1 -3,-2 -4,-4 -10,-11 -19,-15 -28,-14 -8,1 -18,7 -28,16 l 23,23 -79,75 -81,-86 z"
       inkscape:connector-curvature="0"
       style="fill:#ffffff;fill-rule:nonzero" /><path
       id="13"
       class="fil3"
       d="m 2537,9077 c -16,11 -29,21 -40,29 -11,8 -19,16 -25,23 -6,8 -9,15 -10,22 -1,7 1,15 4,24 4,9 9,20 17,31 8,12 18,26 29,43 23,33 42,58 56,76 13,18 26,30 38,35 11,5 24,4 37,-3 14,-7 32,-18 55,-34 18,-13 32,-24 41,-33 10,-9 15,-19 16,-28 2,-9 -1,-20 -8,-32 -6,-12 -16,-27 -29,-46 -23,-33 -42,-60 -57,-81 -14,-21 -27,-35 -39,-43 -12,-9 -24,-11 -37,-8 -12,3 -28,11 -48,25 z m -113,-69 c 30,-21 57,-39 79,-53 22,-15 43,-25 62,-30 18,-5 36,-5 53,0 16,5 34,17 52,35 13,13 33,38 60,75 27,38 62,87 105,148 14,20 24,39 31,56 7,17 10,33 9,48 0,16 -4,30 -13,45 -8,14 -20,28 -35,42 -8,8 -19,17 -34,27 -14,10 -30,22 -50,35 -23,17 -44,29 -62,38 -18,8 -35,12 -50,13 -16,1 -31,-3 -45,-10 -15,-7 -29,-19 -45,-34 -15,-16 -31,-35 -49,-58 -17,-23 -37,-51 -59,-82 -25,-36 -46,-67 -61,-94 -16,-27 -25,-52 -28,-74 -3,-22 2,-44 15,-64 12,-20 34,-41 65,-63 z"
       inkscape:connector-curvature="0"
       style="fill:#ffffff;fill-rule:nonzero" /><path
       id="14"
       class="fil3"
       d="m 3035,9543 -148,68 c 11,0 21,1 30,3 8,3 16,7 24,13 7,6 14,15 20,25 7,11 14,24 21,40 9,21 17,41 22,59 6,18 7,36 3,55 -3,18 -11,34 -23,47 -12,12 -29,24 -52,34 l -139,64 -42,-94 123,-57 c 12,-5 21,-10 28,-14 7,-5 12,-10 15,-17 2,-7 2,-16 0,-27 -3,-10 -8,-25 -16,-42 -7,-15 -14,-28 -20,-37 -6,-10 -14,-16 -21,-20 -8,-4 -17,-6 -27,-4 -10,1 -22,5 -35,11 -3,1 -5,2 -7,4 -2,1 -4,2 -7,3 l -103,47 -43,-93 355,-162 42,94 z"
       inkscape:connector-curvature="0"
       style="fill:#ffffff;fill-rule:nonzero" /><path
       id="15"
       class="fil3"
       d="m 3108,10054 -260,83 -31,-96 260,-83 31,96 z m 110,-36 -70,23 -31,-96 70,-23 31,96 z"
       inkscape:connector-curvature="0"
       style="fill:#ffffff;fill-rule:nonzero" /><path
       id="16"
       class="fil3"
       d="m 3035,10293 c -15,2 -27,6 -36,10 -8,4 -14,9 -17,17 -3,7 -4,17 -4,29 1,12 3,27 6,46 4,21 7,38 11,50 3,12 8,20 14,26 6,5 14,8 23,8 9,1 22,0 37,-3 12,-2 23,-4 31,-7 8,-3 14,-8 17,-15 4,-7 6,-17 6,-30 0,-13 -2,-31 -5,-53 -3,-19 -7,-34 -11,-45 -3,-12 -8,-20 -14,-26 -6,-5 -14,-8 -23,-9 -9,-1 -21,0 -35,2 z m -34,-97 c 22,-4 40,-7 57,-8 16,-2 31,-2 43,0 12,1 23,6 32,12 9,6 17,16 24,29 7,13 13,30 18,50 6,21 11,45 15,75 6,36 10,67 12,92 2,26 1,47 -4,65 -5,17 -15,31 -29,40 -14,10 -35,17 -61,22 -24,3 -44,6 -62,8 -17,2 -32,2 -45,0 -13,-2 -24,-7 -34,-14 -9,-7 -17,-18 -24,-32 -7,-14 -13,-32 -18,-54 -5,-22 -10,-50 -16,-82 -5,-33 -9,-62 -10,-85 -2,-24 0,-44 6,-60 6,-16 16,-28 31,-37 15,-10 37,-17 65,-21 z"
       inkscape:connector-curvature="0"
       style="fill:#ffffff;fill-rule:nonzero" /><path
       id="17"
       class="fil3"
       d="m 3369,10932 -123,10 c -17,1 -31,0 -43,-2 -11,-3 -21,-9 -28,-17 -8,-7 -13,-18 -17,-31 -4,-13 -7,-28 -9,-46 0,-5 0,-10 0,-16 0,-5 0,-10 0,-14 l 60,-5 c 0,2 0,4 0,6 0,2 1,4 1,6 1,15 5,24 13,28 8,4 18,6 32,6 l -3,-33 108,-9 9,117 z m -12,-151 -123,10 c -17,1 -31,0 -43,-2 -11,-4 -21,-9 -28,-17 -8,-7 -14,-18 -18,-31 -4,-13 -6,-28 -8,-46 0,-5 0,-10 0,-16 0,-5 0,-10 0,-14 l 60,-5 c 0,2 0,4 0,6 0,2 0,4 1,6 1,15 5,24 13,28 7,4 18,6 32,5 l -3,-32 108,-9 9,117 z"
       inkscape:connector-curvature="0"
       style="fill:#ffffff;fill-rule:nonzero" /><path
       class="fil3"
       d="m -2475,12805 115,147 c 2,3 4,5 5,7 1,1 2,3 4,6 9,12 17,20 24,26 6,5 12,8 18,9 6,1 13,-1 19,-4 6,-4 14,-9 23,-16 9,-7 15,-13 18,-19 4,-6 5,-12 5,-18 -1,-6 -3,-13 -8,-21 -5,-7 -12,-17 -20,-27 l -121,-154 -82,64 z m -78,61 -82,65 -78,-98 321,-252 234,299 c 15,19 27,38 34,54 7,17 9,32 8,47 -1,15 -7,29 -17,43 -10,14 -24,28 -43,42 -19,15 -35,26 -49,32 -14,5 -26,8 -37,7 -11,-1 -22,-5 -32,-11 -10,-6 -20,-13 -32,-22 5,11 10,21 15,30 5,9 7,18 8,27 0,10 -2,19 -7,28 -6,10 -16,21 -30,32 l -58,45 -77,-98 42,-33 c 14,-11 22,-22 24,-33 2,-11 -3,-24 -17,-41 l -127,-163 z m 527,467 6,-6 c 7,-7 11,-14 13,-20 1,-6 1,-12 -3,-19 -3,-6 -8,-14 -15,-21 -7,-8 -15,-17 -26,-27 -11,-10 -21,-19 -30,-27 -9,-7 -17,-13 -25,-16 -7,-4 -15,-5 -21,-4 -7,2 -14,6 -21,13 l -5,6 127,121 z m -172,-73 c -8,7 -13,14 -15,21 -3,6 -4,13 -2,20 2,7 6,14 13,23 6,8 15,17 26,28 15,13 26,24 36,33 9,8 17,14 23,17 6,3 12,4 17,3 5,-2 10,-5 16,-11 l 76,72 c -13,14 -26,23 -39,28 -14,6 -27,7 -42,4 -15,-4 -30,-11 -47,-23 -17,-11 -36,-27 -56,-47 -30,-27 -54,-52 -74,-74 -19,-21 -32,-42 -38,-61 -7,-19 -7,-38 -1,-57 7,-19 21,-41 43,-64 26,-27 48,-46 68,-58 19,-11 38,-14 57,-11 19,4 39,15 61,32 22,17 49,41 80,71 24,22 43,43 57,61 14,18 22,35 23,52 2,13 0,25 -3,35 -4,10 -9,20 -15,29 -7,10 -15,20 -24,29 -9,10 -19,20 -29,32 l -204,-192 -7,8 z m 304,285 c -5,7 -7,13 -7,19 0,5 3,11 6,16 4,6 10,11 17,17 8,5 16,11 25,18 15,11 29,20 40,27 11,7 20,12 28,14 8,3 15,4 20,2 6,-2 11,-6 15,-12 4,-6 6,-12 6,-17 0,-5 -3,-10 -8,-15 -4,-6 -11,-12 -19,-18 -8,-6 -18,-14 -30,-22 -11,-8 -22,-15 -31,-22 -10,-6 -19,-11 -26,-14 -8,-3 -14,-4 -20,-3 -6,0 -12,4 -16,10 z m 115,141 c -8,6 -17,10 -26,12 -9,1 -19,1 -30,-1 -10,-3 -22,-7 -34,-14 -13,-7 -27,-16 -44,-28 -23,-16 -41,-31 -56,-44 -15,-12 -26,-25 -31,-37 -6,-13 -7,-25 -4,-39 3,-14 10,-29 23,-47 13,-18 25,-30 38,-36 13,-6 27,-8 41,-5 15,3 31,9 48,20 17,10 36,23 57,38 13,9 25,18 35,25 10,7 18,14 25,20 7,7 11,14 15,21 3,8 5,17 5,28 l 18,-26 c 7,-9 10,-17 11,-23 2,-7 0,-14 -5,-21 -5,-7 -14,-15 -25,-23 -12,-9 -27,-20 -46,-33 -15,-11 -26,-17 -34,-20 -8,-2 -15,1 -21,10 l -86,-61 c 12,-16 24,-26 38,-31 13,-4 29,-4 47,2 18,5 38,15 62,30 24,15 52,34 85,57 21,15 39,29 53,43 14,13 24,27 30,40 6,13 8,27 5,41 -2,13 -9,28 -21,45 l -111,157 -88,-63 26,-37 z m 389,30 c -19,-9 -34,-16 -46,-20 -12,-4 -23,-5 -31,-3 -9,2 -16,8 -23,16 -6,8 -13,20 -20,35 -7,12 -11,23 -12,31 -1,9 0,16 4,23 5,7 11,13 21,19 9,6 21,13 36,21 21,11 39,19 52,24 14,5 25,8 34,7 9,0 17,-4 24,-12 7,-7 14,-18 22,-33 7,-14 12,-26 13,-36 2,-10 0,-19 -5,-26 -5,-8 -13,-15 -25,-22 -11,-7 -26,-15 -44,-24 z m 23,183 c -9,10 -18,18 -28,22 -9,5 -20,7 -31,7 -12,1 -25,-2 -39,-6 -14,-4 -29,-11 -47,-20 -30,-15 -55,-30 -74,-43 -18,-14 -32,-28 -39,-43 -8,-15 -11,-32 -8,-50 2,-18 10,-40 22,-64 14,-28 27,-50 40,-67 12,-17 27,-29 43,-35 17,-5 36,-6 59,0 22,5 51,16 84,33 17,8 31,16 42,23 12,7 21,14 29,22 7,8 13,17 17,26 5,10 8,22 10,37 l 76,-150 92,46 -184,364 -92,-46 28,-56 z m 615,-1 -279,279 c -10,9 -19,16 -27,21 -8,5 -17,8 -27,9 -10,1 -21,0 -33,-2 -13,-3 -27,-8 -45,-14 -6,-2 -12,-5 -19,-8 -6,-2 -11,-5 -16,-8 l 24,-67 c 6,2 12,5 17,7 5,1 10,3 14,4 8,3 14,4 20,4 6,-1 12,-2 17,-5 5,-3 11,-7 16,-13 5,-5 11,-12 18,-19 l -41,-15 -26,-313 111,40 7,227 158,-167 111,40 z m 225,35 -47,282 -104,-18 47,-281 104,17 z m 21,-120 -13,76 -105,-17 13,-77 105,18 z m 116,205 c 5,-11 11,-21 18,-29 7,-8 16,-14 27,-18 11,-4 25,-7 41,-8 16,-1 36,0 60,2 37,2 66,11 88,25 21,14 35,34 42,60 2,11 3,22 3,33 0,11 -1,22 -1,34 l -12,149 -108,-8 12,-149 c 1,-13 0,-23 -1,-31 -2,-9 -6,-15 -11,-20 -6,-5 -15,-9 -26,-11 -11,-3 -25,-5 -44,-6 -20,-1 -36,-1 -48,2 -12,2 -21,7 -28,13 -7,7 -11,15 -14,25 -3,10 -4,22 -6,36 l -9,128 -106,-8 22,-285 105,8 -4,58 z m 556,151 c 0,8 2,14 6,18 4,4 9,7 16,9 6,1 14,2 23,2 9,-1 19,-1 30,-2 19,-1 35,-3 48,-5 13,-1 24,-3 32,-7 8,-3 13,-6 16,-11 3,-5 5,-11 4,-19 -1,-7 -3,-13 -6,-16 -4,-4 -9,-6 -16,-8 -7,-1 -16,-1 -26,-1 -11,0 -23,1 -38,2 -14,1 -26,2 -37,4 -12,1 -21,3 -29,5 -8,3 -14,6 -18,10 -4,5 -6,11 -5,19 z m 178,34 c -3,10 -7,19 -13,26 -6,8 -13,14 -23,18 -10,5 -22,9 -36,12 -14,2 -31,4 -51,6 -28,2 -52,3 -71,3 -20,-1 -36,-4 -48,-10 -12,-5 -22,-15 -28,-27 -6,-12 -10,-29 -12,-51 -1,-22 1,-39 7,-52 6,-13 15,-23 28,-30 13,-7 29,-12 49,-15 20,-3 43,-6 68,-7 17,-2 31,-3 43,-4 13,-1 23,-1 33,0 9,1 17,3 24,7 8,4 15,10 22,18 l -2,-31 c -1,-12 -3,-20 -7,-26 -3,-5 -9,-9 -17,-12 -8,-2 -20,-3 -34,-2 -15,1 -33,2 -56,4 -19,1 -32,3 -39,7 -7,3 -11,10 -10,20 l -105,8 c -1,-19 2,-35 9,-47 8,-12 20,-22 37,-29 18,-8 40,-13 68,-17 27,-4 61,-7 101,-10 26,-2 49,-2 69,-1 19,1 36,5 49,12 13,6 22,15 29,28 7,12 11,28 13,48 l 14,192 -107,8 -4,-46 z m 669,-95 -102,29 -41,-143 c -3,-11 -7,-20 -10,-27 -3,-7 -8,-12 -15,-16 -6,-3 -14,-4 -25,-3 -10,1 -24,4 -41,9 -29,8 -48,18 -58,31 -10,12 -12,29 -5,51 l 41,143 -101,29 -80,-274 101,-29 15,51 c 2,-11 4,-20 8,-29 4,-9 9,-17 16,-24 8,-7 17,-14 29,-20 11,-5 26,-11 44,-16 34,-10 64,-14 87,-11 24,3 44,14 60,34 0,-9 1,-18 4,-26 2,-8 7,-17 15,-26 5,-6 15,-14 30,-22 15,-8 32,-15 52,-21 50,-15 89,-16 119,-4 30,12 51,40 64,83 l 45,157 -99,29 -40,-136 c -4,-13 -8,-23 -12,-31 -4,-8 -10,-14 -16,-17 -7,-4 -16,-5 -26,-4 -11,1 -25,4 -41,9 -17,4 -30,10 -39,16 -9,5 -15,12 -19,19 -4,8 -5,16 -5,26 1,9 3,20 7,32 l 38,131 z m 284,-421 117,260 -96,44 -117,-261 96,-43 z m -50,-111 32,70 -97,44 -32,-71 97,-43 z m 206,94 c -3,-13 -3,-24 -2,-34 2,-11 6,-21 13,-30 7,-10 17,-20 30,-29 13,-10 29,-21 50,-33 33,-18 62,-27 87,-28 26,0 48,9 69,27 8,8 15,16 20,25 6,10 12,19 18,30 l 73,130 -94,53 -73,-130 c -6,-11 -12,-20 -18,-25 -6,-6 -13,-10 -20,-11 -8,0 -17,1 -27,5 -11,4 -24,11 -40,20 -18,10 -31,19 -39,28 -9,9 -14,18 -16,27 -2,9 -2,18 2,28 3,10 8,21 15,33 l 63,112 -92,51 -140,-248 92,-52 29,51 z m 603,-205 c 10,22 9,43 -1,64 -10,20 -31,42 -62,66 -22,17 -41,29 -60,38 -18,8 -35,12 -52,12 -16,0 -32,-5 -47,-15 -15,-10 -30,-25 -46,-45 l -96,-126 85,-66 91,119 c 8,10 16,18 23,23 7,4 14,6 23,5 9,0 18,-4 29,-11 11,-6 24,-15 39,-27 36,-27 47,-55 34,-83 -1,-5 -4,-10 -8,-16 -4,-5 -9,-12 -14,-18 l -76,-99 84,-65 174,227 -84,64 -36,-47 z m 196,-507 52,48 -118,126 65,61 c 5,5 10,10 15,14 5,4 11,7 16,9 5,1 11,1 17,-2 7,-2 14,-8 22,-16 7,-8 13,-16 15,-22 2,-6 3,-11 2,-17 -2,-5 -5,-10 -9,-14 -5,-5 -11,-11 -17,-16 l 57,-61 c 8,8 16,15 22,21 7,7 13,13 18,20 6,6 10,12 13,19 4,7 6,14 7,22 2,17 -1,33 -11,48 -9,15 -23,33 -41,52 -18,18 -34,34 -49,46 -15,12 -30,21 -44,25 -14,5 -28,5 -41,0 -14,-4 -29,-13 -44,-28 l -88,-83 -38,40 -51,-48 38,-40 -52,-49 75,-79 51,49 118,-125 z m 267,-161 -7,-5 c -8,-6 -15,-10 -21,-11 -6,-1 -12,0 -19,4 -6,3 -13,9 -20,17 -7,7 -15,17 -24,28 -10,12 -18,22 -25,32 -6,9 -11,18 -14,26 -3,8 -3,15 -1,22 1,6 6,13 14,19 l 6,5 111,-137 z m -60,178 c 9,7 16,11 23,14 6,2 13,2 20,-1 7,-2 14,-7 21,-14 8,-7 16,-16 26,-29 13,-15 23,-28 30,-38 8,-9 13,-18 16,-24 3,-7 3,-13 1,-17 -2,-5 -6,-10 -12,-16 l 65,-81 c 15,12 26,24 32,37 6,13 9,26 7,41 -2,15 -8,31 -19,49 -10,17 -24,37 -42,60 -25,31 -48,58 -68,79 -20,20 -39,35 -58,43 -18,9 -38,10 -57,5 -20,-5 -42,-17 -67,-37 -29,-24 -50,-45 -63,-63 -12,-18 -17,-37 -15,-56 2,-19 11,-40 26,-64 16,-23 37,-52 64,-85 21,-26 40,-46 57,-62 17,-15 33,-24 50,-27 13,-3 24,-2 35,0 10,3 20,7 30,13 10,6 21,13 31,22 10,8 22,17 34,26 l -175,218 8,7 z"
       id="path4095"
       inkscape:connector-curvature="0"
       style="fill:#ffffff;fill-rule:nonzero" /><g
       id="_911885216"><polygon
         class="fil1"
         points="2638,11728 295,13354 295,13047 -354,13047 -354,13313 -2638,11728 -2638,9996 0,11866 2638,10035 "
         id="polygon4098"
         style="fill:#eece00" /><g
         id="g4100"><polygon
           class="fil4"
           points="-630,12772 571,12772 571,12827 2362,11584 2362,10562 -2,12203 -2362,10529 -2362,11584 -630,12786 "
           id="polygon4102"
           style="fill:#ffffff" /></g><circle
         class="fil1"
         cy="11807"
         r="1594"
         id="circle4104"
         cx="0"
         style="fill:#eece00" /><polygon
         class="fil5"
         points="501,11970 810,12922 0,12333 -810,12922 -501,11970 -1311,11381 -309,11381 0,10429 309,11381 1311,11381 "
         id="polygon4106"
         style="fill:#ffffff" /><circle
         class="fil0"
         cy="11807"
         r="276"
         id="circle4108"
         cx="0"
         style="fill:#000000" /></g><path
       class="fil3"
       d="m 614,8787 0,220 -950,0 0,234 c 19,-23 38,-40 58,-52 19,-12 42,-21 68,-28 26,-6 57,-10 92,-11 36,-2 79,-3 131,-3 125,0 230,3 314,7 84,4 151,18 201,41 50,23 85,58 105,105 21,47 31,113 31,199 0,104 -13,184 -39,239 -26,55 -65,95 -117,120 -51,25 -116,39 -195,43 -78,3 -169,5 -274,5 -162,0 -293,-6 -394,-16 -101,-11 -173,-33 -216,-66 -22,-17 -39,-35 -52,-54 -12,-20 -21,-40 -27,-62 -6,-22 -10,-45 -12,-70 -1,-25 -2,-52 -2,-82 l 310,0 c -2,69 31,106 100,111 46,4 93,6 138,8 46,1 90,2 132,2 63,0 116,0 158,0 42,0 76,-4 102,-12 25,-9 44,-24 55,-45 11,-22 17,-54 17,-96 0,-43 -7,-76 -19,-98 -12,-21 -35,-36 -68,-45 -33,-9 -80,-14 -139,-14 -60,0 -136,0 -230,0 -40,0 -73,1 -100,2 -28,1 -50,4 -69,8 -18,5 -32,12 -41,21 -8,10 -15,23 -18,41 l -285,0 15,-652 1220,0 z"
       id="path4110"
       inkscape:connector-curvature="0"
       style="fill:#ffffff;fill-rule:nonzero" /></g></svg>