<?xml version="1.0" encoding="UTF-8" standalone="no"?>
<!-- Creator: CorelDRAW X7 -->

<svg
   xmlns:dc="http://purl.org/dc/elements/1.1/"
   xmlns:cc="http://creativecommons.org/ns#"
   xmlns:rdf="http://www.w3.org/1999/02/22-rdf-syntax-ns#"
   xmlns:svg="http://www.w3.org/2000/svg"
   xmlns="http://www.w3.org/2000/svg"
   xmlns:sodipodi="http://sodipodi.sourceforge.net/DTD/sodipodi-0.dtd"
   xmlns:inkscape="http://www.inkscape.org/namespaces/inkscape"
   xml:space="preserve"
   width="7.8740005in"
   height="7.8740005in"
   version="1.1"
   style="clip-rule:evenodd;fill-rule:evenodd;image-rendering:optimizeQuality;shape-rendering:geometricPrecision;text-rendering:geometricPrecision"
   viewBox="0 0 7874.0005 7874.0005"
   id="svg26831"
   inkscape:version="0.91 r13725"
   sodipodi:docname="image_9023.svg"><metadata
     id="metadata26849"><rdf:RDF><cc:Work
         rdf:about=""><dc:format>image/svg+xml</dc:format><dc:type
           rdf:resource="http://purl.org/dc/dcmitype/StillImage" /></cc:Work></rdf:RDF></metadata><sodipodi:namedview
     pagecolor="#ffffff"
     bordercolor="#666666"
     borderopacity="1"
     objecttolerance="10"
     gridtolerance="10"
     guidetolerance="10"
     inkscape:pageopacity="0"
     inkscape:pageshadow="2"
     inkscape:window-width="640"
     inkscape:window-height="480"
     id="namedview26847"
     showgrid="false"
     inkscape:zoom="0.23838384"
     inkscape:cx="736.83001"
     inkscape:cy="849.33005"
     inkscape:window-x="0"
     inkscape:window-y="0"
     inkscape:window-maximized="0"
     inkscape:current-layer="svg26831" /><defs
     id="defs26833"><style
       type="text/css"
       id="style26835"><![CDATA[
    .fil0 {fill:black}
    .fil3 {fill:#940008}
    .fil1 {fill:#940008;fill-rule:nonzero}
    .fil2 {fill:white;fill-rule:nonzero}
   ]]></style></defs><g
     id="Layer_x0020_1"
     transform="translate(3937,-7063)"><metadata
       id="CorelCorpID_0Corel-Layer" /><circle
       class="fil0"
       cy="11000"
       r="3937"
       id="circle26839"
       cx="0"
       style="fill:#000000" /><path
       class="fil1"
       d="m 1048,13685 212,-283 0,0 -827,0 0,-1654 236,276 0,1141 827,0 0,315 -260,346 -188,-141 z m -2229,-5283 0,629 512,0 0,-275 236,0 0,275 354,0 0,237 -354,0 0,1023 -236,0 0,-1023 -512,0 0,748 -236,0 0,-1614 236,0 z m 1575,236 1141,0 0,236 -1141,0 0,-236 z m 0,354 1378,0 0,236 -220,0 -827,1024 -331,0 0,-236 219,0 636,-788 -855,0 0,-236 z m -1811,2953 1338,0 0,395 -927,1180 -411,0 0,-237 297,0 805,-1024 0,-78 -1102,0 0,-236 z"
       id="path26841"
       inkscape:connector-curvature="0"
       style="fill:#940008;fill-rule:nonzero" /><path
       class="fil2"
       d="m -301,11274 0,-179 469,-369 153,0 0,548 0,153 -231,178 0,-146 116,-91 0,-94 -507,0 z m -2684,0 -112,0 0,-548 623,0 0,120 -511,0 0,428 z m 698,-428 0,307 392,-307 -392,0 z m 512,305 0,123 -623,0 0,-548 623,0 0,178 -323,247 323,0 z m 187,123 0,-430 396,307 0,123 116,0 0,-181 -467,-367 -156,0 0,548 111,0 z m 699,-428 0,307 392,-307 -392,0 z m 512,305 0,123 -623,0 0,-548 623,0 0,178 -323,247 323,0 z m 1262,0 0,-305 -396,305 396,0 z m -29,-425 144,0 0,548 -623,0 0,-179 479,-369 z m 220,548 0,-179 512,-402 0,-120 111,0 0,701 -623,0 z m 507,-123 0,-305 -396,305 396,0 z m 303,-305 0,307 392,-307 -392,0 z m 512,305 0,123 -623,0 0,-548 623,0 0,178 -323,247 323,0 z m 76,-425 623,0 0,120 -512,0 0,94 512,0 0,334 -623,0 0,-123 507,0 0,-95 -507,0 0,-330 z m -2268,425 0,-305 -396,305 396,0 z"
       id="path26843"
       inkscape:connector-curvature="0"
       style="fill:#ffffff;fill-rule:nonzero" /><path
       class="fil3"
       d="m 0,7299 c 884,0 1695,310 2331,827 l -541,0 C 1271,7802 657,7614 0,7614 c -657,0 -1271,188 -1790,512 l -541,0 C -1695,7609 -884,7299 0,7299 Z m 2874,1370 c 517,636 827,1447 827,2331 0,884 -310,1695 -827,2331 l 0,-541 c 324,-519 512,-1133 512,-1790 0,-657 -188,-1271 -512,-1790 l 0,-541 z m -543,5205 c -636,517 -1447,827 -2331,827 -884,0 -1695,-310 -2331,-827 l 541,0 c 519,324 1133,512 1790,512 657,0 1271,-188 1790,-512 l 541,0 z m -5205,-543 c -517,-636 -827,-1447 -827,-2331 0,-884 310,-1695 827,-2331 l 0,541 c -324,519 -512,1133 -512,1790 0,657 188,1271 512,1790 l 0,541 z"
       id="path26845"
       inkscape:connector-curvature="0"
       style="fill:#940008" /></g></svg>