<?xml version="1.0" encoding="UTF-8" standalone="no"?>
<!-- Creator: CorelDRAW X7 -->

<svg
   xmlns:dc="http://purl.org/dc/elements/1.1/"
   xmlns:cc="http://creativecommons.org/ns#"
   xmlns:rdf="http://www.w3.org/1999/02/22-rdf-syntax-ns#"
   xmlns:svg="http://www.w3.org/2000/svg"
   xmlns="http://www.w3.org/2000/svg"
   xmlns:sodipodi="http://sodipodi.sourceforge.net/DTD/sodipodi-0.dtd"
   xmlns:inkscape="http://www.inkscape.org/namespaces/inkscape"
   xml:space="preserve"
   width="7.8740005in"
   height="7.8740005in"
   version="1.1"
   style="clip-rule:evenodd;fill-rule:evenodd;image-rendering:optimizeQuality;shape-rendering:geometricPrecision;text-rendering:geometricPrecision"
   viewBox="0 0 7874.0005 7874.0005"
   id="svg4437"
   inkscape:version="0.91 r13725"
   sodipodi:docname="Nomads - Securitate - [N3] [Vyo].svg"><metadata
     id="metadata4467"><rdf:RDF><cc:Work
         rdf:about=""><dc:format>image/svg+xml</dc:format><dc:type
           rdf:resource="http://purl.org/dc/dcmitype/StillImage" /></cc:Work></rdf:RDF></metadata><sodipodi:namedview
     pagecolor="#ffffff"
     bordercolor="#666666"
     borderopacity="1"
     objecttolerance="10"
     gridtolerance="10"
     guidetolerance="10"
     inkscape:pageopacity="0"
     inkscape:pageshadow="2"
     inkscape:window-width="640"
     inkscape:window-height="480"
     id="namedview4465"
     showgrid="false"
     inkscape:zoom="0.23838384"
     inkscape:cx="736.83001"
     inkscape:cy="849.33005"
     inkscape:window-x="0"
     inkscape:window-y="0"
     inkscape:window-maximized="0"
     inkscape:current-layer="svg4437" /><defs
     id="defs4439"><style
       type="text/css"
       id="style4441"><![CDATA[
    .fil0 {fill:none}
    .fil2 {fill:black}
    .fil1 {fill:#FFA000}
    .fil4 {fill:white}
    .fil3 {fill:white;fill-rule:nonzero}
   ]]></style></defs><g
     id="Layer_x0020_1"
     transform="translate(3937,-7063)"><metadata
       id="CorelCorpID_0Corel-Layer" /><path
       class="fil0"
       d="m -197,10921 c -118,-354 591,-512 827,-393 -236,78 -551,157 -433,551 118,393 -591,512 -827,393 236,-78 551,-196 433,-551 z"
       id="path4445"
       inkscape:connector-curvature="0"
       style="fill:none" /><circle
       class="fil1"
       cy="11000"
       r="3937"
       id="circle4447"
       cx="0"
       style="fill:#ffa000" /><circle
       class="fil2"
       cy="11000"
       r="3740"
       id="circle4449"
       cx="0"
       style="fill:#000000" /><circle
       class="fil0"
       cy="11000"
       r="3898"
       id="circle4451"
       cx="0"
       style="fill:none" /><path
       class="fil3"
       d="m -3156,12058 c -63,18 -109,-21 -136,-118 l -67,-231 c -7,-22 2,-37 27,-44 23,-7 38,1 45,24 l 68,237 c 11,38 27,54 47,48 l 21,-7 c 23,-6 28,-33 14,-80 l -30,-105 c -29,-100 -14,-159 45,-176 l 36,-10 c 64,-19 110,16 136,106 l 17,59 c 6,23 -3,37 -27,44 -23,7 -39,-1 -45,-24 l -19,-66 c -9,-30 -24,-42 -46,-35 l -16,4 c -20,6 -24,29 -12,69 l 31,108 c 30,105 13,167 -51,186 l -38,11 z m 172,89 125,277 c 10,21 3,37 -20,47 -22,10 -38,5 -48,-16 l -125,-277 -44,20 c -22,9 -22,36 -2,81 l 95,211 c 10,21 3,36 -20,47 -22,10 -39,4 -48,-17 l -96,-212 c -43,-95 -33,-157 30,-185 l 169,-77 c 32,-14 61,-13 89,4 27,17 51,50 74,100 l 26,58 c 9,21 3,36 -21,47 -22,10 -38,4 -47,-16 l -18,-40 c -26,-58 -50,-83 -71,-73 l -48,21 z m 312,436 c -27,-42 -49,-58 -66,-47 l -149,96 c -21,14 -16,44 14,91 l 108,168 c 13,20 9,36 -11,50 -21,13 -38,10 -51,-10 l -113,-173 c -58,-91 -58,-156 2,-195 l 157,-101 c 57,-37 114,-10 171,79 l 114,176 c 13,20 9,37 -12,50 -21,14 -38,11 -51,-9 l -113,-175 z m 290,721 c -58,50 -130,26 -214,-72 l -53,-62 c -81,-93 -92,-165 -33,-215 l 184,-159 c 19,-17 38,-14 56,8 19,21 19,40 0,56 l -179,154 c -24,21 -17,55 23,101 l 64,75 c 44,51 78,66 103,44 l 178,-153 c 19,-17 38,-14 57,8 18,21 17,39 -1,56 l -185,159 z m 454,180 c 16,-18 5,-43 -32,-75 l -164,-145 -67,76 171,151 c 32,28 54,36 66,22 l 26,-29 z m 38,85 c -45,51 -106,42 -183,-25 l -45,-40 75,160 c 4,9 5,17 3,24 -1,7 -4,13 -8,18 -4,4 -8,7 -12,9 -5,3 -10,4 -15,5 -5,0 -10,0 -15,-1 -5,-2 -10,-4 -14,-8 -5,-4 -8,-9 -11,-15 l 1,1 -125,-302 -73,83 c -16,19 -35,19 -56,0 -22,-19 -24,-38 -8,-57 l 215,-244 c 14,-17 30,-18 47,-3 l 197,173 c 84,73 101,137 53,192 l -26,30 z m -13,235 c -14,21 -33,23 -56,6 -23,-16 -28,-35 -13,-55 l 187,-264 c 14,-20 33,-22 57,-5 23,16 27,34 12,54 l -187,264 z m 404,-86 -144,245 c -12,22 -31,26 -55,12 -25,-15 -31,-33 -18,-55 l 143,-245 -115,-67 c -21,-12 -25,-29 -12,-51 12,-21 29,-26 49,-14 l 305,179 c 20,11 24,28 12,48 -13,23 -29,28 -49,16 l -116,-68 z m 163,254 168,64 -33,-161 -135,97 z m 181,147 -245,-95 -81,58 c -6,4 -13,6 -19,7 -7,0 -13,-1 -18,-3 -5,-2 -10,-5 -14,-9 -4,-3 -7,-8 -10,-12 -3,-5 -4,-10 -5,-16 0,-5 0,-10 2,-16 3,-6 8,-12 15,-17 l 307,-216 c 9,-7 18,-10 27,-11 9,-1 18,0 27,3 8,3 15,8 22,15 6,7 10,16 12,27 l 83,366 0,-1 c 2,9 2,17 -1,25 -2,5 -5,9 -9,13 -4,3 -8,6 -13,8 -5,1 -10,2 -16,2 -5,0 -11,-1 -16,-3 -6,-2 -11,-6 -15,-10 -5,-5 -8,-11 -10,-19 l -23,-96 z m 383,-111 -76,274 c -7,24 -24,33 -51,25 -28,-7 -38,-23 -31,-48 l 76,-273 -129,-36 c -23,-6 -31,-22 -24,-47 6,-23 21,-31 44,-25 l 340,94 c 23,7 31,21 24,45 -7,24 -21,34 -44,27 l -129,-36 z m 245,140 301,41 c 23,3 33,17 29,41 -3,25 -16,36 -38,33 l -302,-41 -7,48 c -3,23 20,38 69,45 l 228,31 c 23,3 33,16 30,41 -3,25 -17,36 -39,33 l -232,-31 c -103,-14 -150,-55 -141,-124 l 25,-184 c 4,-35 21,-59 50,-73 29,-14 70,-17 124,-10 l 63,8 c 23,4 32,18 29,43 -3,24 -16,35 -39,31 l -43,-5 c -64,-9 -97,-2 -100,21 l -7,52 z m 583,135 c -19,0 -28,-9 -28,-27 -1,-19 8,-28 27,-28 l 193,-4 c 17,0 26,9 27,27 0,18 -9,28 -26,28 l -193,4 z m 614,-251 63,277 c 6,24 -5,40 -32,46 -28,6 -45,-3 -51,-27 l -64,-277 -130,30 c -23,5 -37,-4 -43,-29 -6,-24 3,-38 26,-44 l 345,-79 c 23,-5 37,4 42,27 6,25 -3,40 -25,46 l -131,30 z m 676,-5 c 28,71 -17,131 -138,179 l -75,30 c -115,46 -186,33 -215,-39 l -90,-226 c -9,-23 -1,-40 26,-50 26,-11 44,-5 53,18 l 87,219 c 12,31 47,34 104,12 l 91,-37 c 62,-25 88,-52 75,-82 l -87,-219 c -9,-23 0,-40 27,-51 25,-10 43,-4 52,20 l 90,226 z m 513,-201 c 4,8 6,15 7,21 1,7 0,13 -1,19 -2,6 -5,11 -9,16 -4,5 -9,9 -14,12 -6,3 -12,5 -19,6 -6,1 -13,1 -20,0 l -386,-85 119,209 c 12,22 6,40 -18,53 -25,14 -44,10 -56,-11 l -153,-272 c -4,-6 -6,-13 -7,-20 -1,-6 0,-12 2,-18 2,-6 5,-11 9,-16 4,-5 9,-8 14,-12 6,-3 13,-5 20,-6 6,-2 13,-1 20,0 l 382,82 -117,-206 c -12,-22 -6,-40 19,-54 24,-14 43,-10 55,12 l 153,270 z m 404,-380 c 43,55 25,113 -55,175 l -117,90 c -86,67 -150,72 -192,18 l -115,-149 c -42,-54 -20,-115 66,-182 l 46,-35 c 18,-14 35,-11 51,8 15,20 13,37 -5,51 l -32,25 c -51,39 -69,67 -56,84 l 110,142 c 13,18 41,10 82,-22 l 117,-90 c 34,-26 45,-47 34,-62 l -59,-76 c -16,-20 -12,-39 10,-56 23,-18 42,-16 57,4 l 58,75 z m 339,-398 c 59,51 45,125 -39,223 l -53,61 c -81,94 -150,115 -209,65 l -184,-159 c -19,-17 -19,-36 0,-57 18,-22 37,-24 56,-8 l 178,154 c 25,21 57,9 97,-37 l 64,-75 c 44,-51 54,-87 29,-108 l -178,-154 c -19,-16 -19,-35 0,-57 18,-21 36,-23 55,-7 l 184,159 z m 314,-436 c 56,35 57,95 3,180 l -129,203 c -12,20 -29,23 -51,10 -20,-13 -25,-30 -12,-50 l 132,-209 c 21,-33 23,-55 5,-66 l -19,-12 c -20,-13 -43,1 -69,43 l -59,92 c -56,88 -110,116 -161,83 l -32,-19 c -57,-37 -60,-94 -10,-173 l 32,-52 c 13,-20 30,-23 51,-9 21,13 25,29 12,49 l -36,59 c -17,26 -16,45 3,58 l 14,8 c 18,12 38,-1 60,-36 l 60,-95 c 59,-92 117,-121 173,-85 l 33,21 z m -2,-228 221,-172 c 6,-5 13,-8 20,-8 6,-1 13,0 18,2 5,3 9,6 12,9 4,4 7,8 9,13 2,5 3,9 3,15 0,5 -1,10 -3,15 -2,3 -3,6 -5,9 -3,3 -5,5 -9,8 l -245,179 106,48 c 23,10 28,28 17,53 -12,26 -29,33 -52,23 l -294,-135 c -23,-10 -28,-28 -16,-54 11,-25 28,-32 51,-21 l 102,46 -27,-288 c -1,-8 0,-16 4,-23 2,-5 5,-9 10,-13 4,-4 9,-7 14,-9 5,-1 10,-2 15,-2 6,0 11,1 15,3 6,3 10,6 13,12 4,5 6,12 6,20 l 15,270 z m 198,-424 49,-173 -158,47 109,126 z m 130,-193 -73,252 65,76 c 5,6 8,12 9,19 0,6 0,12 -2,18 -1,5 -4,10 -7,14 -3,4 -7,8 -12,11 -4,3 -9,5 -14,6 -6,1 -11,1 -17,0 -7,-2 -13,-7 -19,-13 l -242,-287 c -7,-8 -11,-17 -13,-26 -2,-10 -2,-18 1,-27 2,-9 7,-16 13,-23 7,-7 15,-12 26,-15 l 357,-115 -1,0 c 9,-3 17,-3 25,-1 5,1 10,4 14,8 3,3 6,8 9,13 2,4 3,9 3,15 1,5 0,11 -1,16 -2,6 -5,12 -9,17 -4,4 -10,8 -18,10 l -94,32 z"
       id="path4453"
       inkscape:connector-curvature="0"
       style="fill:#ffffff;fill-rule:nonzero" /><path
       class="fil4"
       d="m -2165,10685 c 0,-159 37,-309 118,-447 380,-643 1564,-734 2244,-734 279,0 561,25 835,74 722,130 1658,492 1762,1329 8,59 -29,113 -87,128 -57,16 -116,-14 -139,-69 -118,-285 -383,-490 -651,-626 -335,-171 -728,-266 -1101,-305 -127,-13 -255,-19 -383,-19 -383,0 -807,57 -1160,212 -225,99 -483,268 -554,519 -12,44 -18,89 -18,135 0,85 6,188 51,263 80,130 323,210 459,255 53,18 86,69 80,125 -7,56 -50,99 -106,104 -245,25 -544,-43 -765,-146 -328,-152 -585,-417 -585,-798 z"
       id="path4455"
       inkscape:connector-curvature="0"
       style="fill:#ffffff" /><path
       class="fil1"
       d="m -2047,10685 c 0,-866 1260,-1063 2244,-1063 1023,0 2362,354 2480,1299 -275,-669 -1299,-1023 -2244,-1023 -1024,0 -1850,393 -1850,984 0,354 118,472 590,630 -393,39 -1220,-197 -1220,-827 z"
       id="path4457"
       inkscape:connector-curvature="0"
       style="fill:#ffa000" /><path
       class="fil4"
       d="m -197,10921 c -79,-275 512,-590 788,-433 -237,79 -355,158 -276,512 79,354 -709,591 -945,433 236,-79 512,-236 433,-512 z"
       id="path4459"
       inkscape:connector-curvature="0"
       style="fill:#ffffff" /><path
       class="fil4"
       d="m 2244,11315 c 0,145 -33,284 -103,411 -373,674 -1642,770 -2338,770 -258,0 -519,-21 -773,-64 -736,-124 -1678,-486 -1785,-1339 -7,-59 30,-113 87,-128 58,-16 117,14 139,69 126,305 410,518 699,658 358,173 778,262 1174,286 74,4 149,6 223,6 401,0 843,-62 1214,-221 229,-98 518,-275 583,-535 9,-36 14,-73 14,-110 0,-78 -10,-160 -53,-227 -94,-148 -379,-238 -536,-291 -53,-18 -86,-69 -80,-125 7,-56 50,-99 106,-104 247,-25 560,44 787,140 342,145 642,406 642,804 z"
       id="path4461"
       inkscape:connector-curvature="0"
       style="fill:#ffffff" /><path
       class="fil1"
       d="m 2126,11315 c 0,866 -1339,1063 -2323,1063 -1023,0 -2323,-354 -2441,-1299 276,669 1260,1023 2205,1023 1024,0 1929,-393 1929,-984 0,-354 -197,-472 -669,-630 393,-39 1299,197 1299,827 z"
       id="path4463"
       inkscape:connector-curvature="0"
       style="fill:#ffa000" /></g></svg>