<?xml version="1.0" encoding="UTF-8" standalone="no"?>
<!-- Creator: CorelDRAW X7 -->

<svg
   xmlns:dc="http://purl.org/dc/elements/1.1/"
   xmlns:cc="http://creativecommons.org/ns#"
   xmlns:rdf="http://www.w3.org/1999/02/22-rdf-syntax-ns#"
   xmlns:svg="http://www.w3.org/2000/svg"
   xmlns="http://www.w3.org/2000/svg"
   xmlns:sodipodi="http://sodipodi.sourceforge.net/DTD/sodipodi-0.dtd"
   xmlns:inkscape="http://www.inkscape.org/namespaces/inkscape"
   xml:space="preserve"
   width="7.8740005in"
   height="7.8740005in"
   version="1.1"
   style="clip-rule:evenodd;fill-rule:evenodd;image-rendering:optimizeQuality;shape-rendering:geometricPrecision;text-rendering:geometricPrecision"
   viewBox="0 0 7874.0005 7874.0005"
   id="svg3386"
   inkscape:version="0.91 r13725"
   sodipodi:docname="Combined Army - Fraacta Drop Unit - [N3] [Vyo].svg"><metadata
     id="metadata3419"><rdf:RDF><cc:Work
         rdf:about=""><dc:format>image/svg+xml</dc:format><dc:type
           rdf:resource="http://purl.org/dc/dcmitype/StillImage" /></cc:Work></rdf:RDF></metadata><sodipodi:namedview
     pagecolor="#ffffff"
     bordercolor="#666666"
     borderopacity="1"
     objecttolerance="10"
     gridtolerance="10"
     guidetolerance="10"
     inkscape:pageopacity="0"
     inkscape:pageshadow="2"
     inkscape:window-width="640"
     inkscape:window-height="480"
     id="namedview3417"
     showgrid="false"
     inkscape:zoom="0.23838384"
     inkscape:cx="736.83001"
     inkscape:cy="849.33005"
     inkscape:window-x="0"
     inkscape:window-y="0"
     inkscape:window-maximized="0"
     inkscape:current-layer="svg3386" /><defs
     id="defs3388"><style
       type="text/css"
       id="style3390"><![CDATA[
    .fil0 {fill:black}
    .fil1 {fill:#49494A}
    .fil7 {fill:#EE9245}
    .fil6 {fill:#F0A145}
    .fil5 {fill:#F2AF45}
    .fil4 {fill:#F4BE46}
    .fil3 {fill:#F6CC46}
    .fil2 {fill:#F8DB46}
   ]]></style></defs><g
     id="Layer_x0020_1"
     transform="translate(3937,-7063)"><metadata
       id="CorelCorpID_0Corel-Layer" /><circle
       class="fil0"
       cy="11000"
       r="3937"
       id="circle3394"
       cx="0"
       style="fill:#000000" /><circle
       class="fil1"
       cy="11000"
       r="3858"
       id="circle3396"
       cx="0"
       style="fill:#49494a" /><g
       id="_813002160"><polygon
         class="fil2"
         points="-1974,11859 -1974,11322 -3239,9130 -708,9130 -243,8861 0,8441 243,8861 708,9130 3239,9130 1974,11322 1974,11859 2216,12280 1731,12280 1265,12548 0,14740 -1265,12548 -1731,12280 -2216,12280 "
         id="polygon3399"
         style="fill:#f8db46" /><polygon
         class="fil3"
         points="-1954,11865 -1954,11316 -3205,9150 -703,9150 -228,8875 0,8480 228,8875 703,9150 3205,9150 1954,11316 1954,11865 2182,12260 1726,12260 1251,12534 0,14701 -1251,12534 -1726,12260 -2182,12260 "
         id="polygon3401"
         style="fill:#f6cc46" /><polygon
         class="fil4"
         points="-1934,11870 -1934,11311 -3171,9169 -698,9169 -214,8890 0,8520 214,8890 698,9169 3171,9169 1934,11311 1934,11870 2148,12240 1721,12240 1237,12520 0,14661 -1237,12520 -1721,12240 -2148,12240 "
         id="polygon3403"
         style="fill:#f4be46" /><polygon
         class="fil5"
         points="-1915,11875 -1915,11306 -3137,9189 -692,9189 -199,8904 0,8559 199,8904 692,9189 3137,9189 1915,11306 1915,11875 2114,12220 1715,12220 1222,12505 0,14622 -1222,12505 -1715,12220 -2114,12220 "
         id="polygon3405"
         style="fill:#f2af45" /><polygon
         class="fil6"
         points="-1895,11881 -1895,11301 -3103,9209 -687,9209 -185,8919 0,8598 185,8919 687,9209 3103,9209 1895,11301 1895,11881 2080,12201 1710,12201 1208,12491 0,14583 -1208,12491 -1710,12201 -2080,12201 "
         id="polygon3407"
         style="fill:#f0a145" /></g><polygon
       class="fil7"
       points="-2046,12181 -1875,11886 -1875,11295 -3069,9228 -682,9228 -170,8933 0,8638 170,8933 682,9228 3069,9228 1875,11295 1875,11886 2046,12181 1705,12181 1193,12476 0,14543 -1193,12476 -1705,12181 "
       id="polygon3409"
       style="fill:#ee9245" /><polygon
       class="fil1"
       points="0,10606 3239,9130 341,11197 0,14740 -341,11197 -3239,9130 "
       id="polygon3411"
       style="fill:#49494a" /><polygon
       class="fil1"
       points="0,13165 -1875,12083 -1875,9917 0,8835 1875,9917 1875,12083 "
       id="polygon3413"
       style="fill:#49494a" /><polygon
       class="fil7"
       points="0,8638 2046,12181 -2046,12181 "
       id="polygon3415"
       style="fill:#ee9245" /></g></svg>