<?xml version="1.0" encoding="UTF-8" standalone="no"?>
<!-- Creator: CorelDRAW X7 -->

<svg
   xmlns:dc="http://purl.org/dc/elements/1.1/"
   xmlns:cc="http://creativecommons.org/ns#"
   xmlns:rdf="http://www.w3.org/1999/02/22-rdf-syntax-ns#"
   xmlns:svg="http://www.w3.org/2000/svg"
   xmlns="http://www.w3.org/2000/svg"
   xmlns:sodipodi="http://sodipodi.sourceforge.net/DTD/sodipodi-0.dtd"
   xmlns:inkscape="http://www.inkscape.org/namespaces/inkscape"
   xml:space="preserve"
   width="7.8740005in"
   height="7.8740005in"
   version="1.1"
   style="clip-rule:evenodd;fill-rule:evenodd;image-rendering:optimizeQuality;shape-rendering:geometricPrecision;text-rendering:geometricPrecision"
   viewBox="0 0 7874.0005 7874.0005"
   id="svg19438"
   inkscape:version="0.91 r13725"
   sodipodi:docname="image_6055.svg"><metadata
     id="metadata19452"><rdf:RDF><cc:Work
         rdf:about=""><dc:format>image/svg+xml</dc:format><dc:type
           rdf:resource="http://purl.org/dc/dcmitype/StillImage" /></cc:Work></rdf:RDF></metadata><sodipodi:namedview
     pagecolor="#ffffff"
     bordercolor="#666666"
     borderopacity="1"
     objecttolerance="10"
     gridtolerance="10"
     guidetolerance="10"
     inkscape:pageopacity="0"
     inkscape:pageshadow="2"
     inkscape:window-width="640"
     inkscape:window-height="480"
     id="namedview19450"
     showgrid="false"
     inkscape:zoom="0.23838384"
     inkscape:cx="736.83001"
     inkscape:cy="849.33005"
     inkscape:window-x="0"
     inkscape:window-y="0"
     inkscape:window-maximized="0"
     inkscape:current-layer="svg19438" /><defs
     id="defs19440"><style
       type="text/css"
       id="style19442"><![CDATA[
    .fil0 {fill:black}
    .fil1 {fill:#F6E50D}
   ]]></style></defs><g
     id="Layer_x0020_1"
     transform="translate(3937,-7063)"><metadata
       id="CorelCorpID_0Corel-Layer" /><circle
       class="fil0"
       cy="11000"
       r="3937"
       id="circle19446"
       cx="0"
       style="fill:#000000" /><path
       class="fil1"
       d="m 924,13953 c 14,-64 21,-130 21,-197 0,-132 -27,-258 -76,-372 448,-287 745,-789 745,-1360 0,-78 -5,-155 -16,-230 -489,-301 -907,-707 -1224,-1186 -58,41 -117,81 -177,119 C 97,11789 65,12880 30,13953 l 466,0 8,-1654 87,0 -27,1654 360,0 z M 355,10279 C 782,9620 1401,9097 2133,8788 l -428,-741 -3410,0 -428,741 c 732,309 1351,832 1778,1491 125,-107 244,-221 355,-342 111,121 230,235 355,342 z m -729,329 c -317,479 -735,885 -1224,1186 -11,75 -16,152 -16,230 0,571 297,1073 745,1360 -49,114 -76,240 -76,372 0,67 7,133 21,197 l 360,0 -27,-1654 87,0 8,1654 466,0 c -35,-1073 -67,-2164 -167,-3226 -60,-38 -119,-78 -177,-119 z m -1921,-1539 -1050,1820 c 258,398 657,697 1126,827 68,-106 127,-218 177,-335 50,8 100,13 152,13 522,0 945,-423 945,-945 0,-522 -423,-945 -945,-945 -51,0 -102,4 -152,12 -68,-158 -153,-308 -253,-447 z m 4514,2647 c 469,-130 868,-429 1126,-827 L 2295,9069 c -100,139 -185,289 -253,447 -50,-8 -101,-12 -152,-12 -522,0 -945,423 -945,945 0,522 423,945 945,945 52,0 102,-5 152,-13 50,117 109,229 177,335 z"
       id="path19448"
       inkscape:connector-curvature="0"
       style="fill:#f6e50d" /></g></svg>