<?xml version="1.0" encoding="UTF-8" standalone="no"?>
<!-- Creator: CorelDRAW X7 -->

<svg
   xmlns:dc="http://purl.org/dc/elements/1.1/"
   xmlns:cc="http://creativecommons.org/ns#"
   xmlns:rdf="http://www.w3.org/1999/02/22-rdf-syntax-ns#"
   xmlns:svg="http://www.w3.org/2000/svg"
   xmlns="http://www.w3.org/2000/svg"
   xmlns:sodipodi="http://sodipodi.sourceforge.net/DTD/sodipodi-0.dtd"
   xmlns:inkscape="http://www.inkscape.org/namespaces/inkscape"
   xml:space="preserve"
   width="7.8740005in"
   height="7.8740005in"
   version="1.1"
   style="clip-rule:evenodd;fill-rule:evenodd;image-rendering:optimizeQuality;shape-rendering:geometricPrecision;text-rendering:geometricPrecision"
   viewBox="0 0 7874.0005 7874.0005"
   id="svg21692"
   inkscape:version="0.91 r13725"
   sodipodi:docname="image_7031.svg"><metadata
     id="metadata21712"><rdf:RDF><cc:Work
         rdf:about=""><dc:format>image/svg+xml</dc:format><dc:type
           rdf:resource="http://purl.org/dc/dcmitype/StillImage" /></cc:Work></rdf:RDF></metadata><sodipodi:namedview
     pagecolor="#ffffff"
     bordercolor="#666666"
     borderopacity="1"
     objecttolerance="10"
     gridtolerance="10"
     guidetolerance="10"
     inkscape:pageopacity="0"
     inkscape:pageshadow="2"
     inkscape:window-width="640"
     inkscape:window-height="480"
     id="namedview21710"
     showgrid="false"
     inkscape:zoom="0.23838384"
     inkscape:cx="736.83001"
     inkscape:cy="849.33005"
     inkscape:window-x="0"
     inkscape:window-y="0"
     inkscape:window-maximized="0"
     inkscape:current-layer="svg21692" /><defs
     id="defs21694"><style
       type="text/css"
       id="style21696"><![CDATA[
    .fil2 {fill:none}
    .fil1 {fill:black}
    .fil0 {fill:white}
    .fil3 {fill:white;fill-rule:nonzero}
   ]]></style></defs><g
     id="Layer_x0020_1"
     transform="translate(3937,-7063)"><metadata
       id="CorelCorpID_0Corel-Layer" /><circle
       class="fil0"
       cy="11000"
       r="3937"
       id="circle21700"
       cx="0"
       style="fill:#ffffff" /><path
       class="fil1"
       d="M -1364,12052 0,7063 1364,12052 c -372,302 -847,483 -1364,483 -517,0 -992,-181 -1364,-483 z"
       id="path21702"
       inkscape:connector-curvature="0"
       style="fill:#000000" /><path
       class="fil1"
       d="m 741,7293 c 1733,345 3039,1873 3039,3707 0,2087 -1693,3780 -3780,3780 -2087,0 -3780,-1693 -3780,-3780 0,-1834 1306,-3362 3039,-3707 57,-11 113,26 124,83 12,58 -25,114 -83,125 l 0,0 c -1293,314 -2253,1479 -2253,2869 0,1631 1322,2953 2953,2953 1631,0 2953,-1322 2953,-2953 0,-1390 -960,-2555 -2253,-2869 l 0,0 c -58,-11 -95,-67 -83,-125 11,-57 67,-94 124,-83 z"
       id="path21704"
       inkscape:connector-curvature="0"
       style="fill:#000000" /><circle
       class="fil2"
       cy="11000"
       r="3898"
       id="circle21706"
       cx="0"
       style="fill:none" /><path
       class="fil3"
       d="m -2121,13614 13,-15 c 18,12 31,20 41,24 10,5 19,7 26,5 8,-1 15,-5 22,-12 6,-7 11,-16 16,-26 4,-10 9,-22 13,-36 l 17,-55 -219,-193 -43,16 c -21,8 -37,14 -46,20 -9,5 -17,11 -22,18 -11,12 -14,25 -9,39 4,14 15,31 34,50 l -14,15 -200,-177 13,-15 c 19,14 40,21 63,21 23,0 50,-5 81,-16 l 494,-165 74,65 -140,482 c -6,22 -10,40 -12,53 -1,14 0,27 4,39 4,11 12,25 24,39 l -13,15 -217,-191 z m -35,-324 196,174 84,-276 -280,102 z m 717,378 -118,201 c -22,37 -11,69 34,95 20,12 45,19 77,20 l 10,34 c -59,-3 -108,-16 -146,-38 -42,-25 -69,-50 -80,-76 -12,-26 -9,-54 9,-86 l 121,-205 -48,-28 c -28,-16 -52,-26 -71,-29 -19,-4 -42,-3 -67,2 l -24,-39 c 50,-10 89,-12 118,-7 28,6 62,20 101,43 l 319,186 -28,48 -207,-121 z m 799,615 c -50,12 -96,13 -140,1 -61,-17 -88,-64 -80,-141 l -7,-1 c -75,57 -153,75 -233,53 -60,-16 -103,-45 -127,-87 -25,-41 -29,-92 -12,-151 17,-62 54,-104 112,-127 58,-24 121,-26 189,-7 51,14 89,33 113,56 25,24 42,57 53,100 l 9,2 69,-84 99,27 -5,20 c -37,21 -91,64 -161,129 -6,55 -7,97 -3,127 4,30 18,48 43,55 17,5 38,4 64,-2 l 17,30 z m -206,-228 c 5,-62 1,-108 -14,-138 -14,-30 -41,-51 -81,-62 -43,-12 -81,-6 -115,17 -34,23 -57,60 -71,110 -27,97 -3,155 70,175 79,22 149,-12 211,-102 z m 248,254 c 39,-27 76,-61 114,-102 l 220,-240 c -18,-55 -35,-95 -52,-118 -16,-24 -44,-37 -82,-40 -36,-2 -70,7 -104,27 l -29,-24 c 61,-37 119,-53 175,-49 39,3 69,13 90,29 20,16 37,40 49,73 12,33 28,96 48,188 25,121 47,198 64,230 17,33 39,50 65,52 20,1 38,-2 54,-9 l 22,26 c -43,18 -80,25 -113,23 -47,-4 -79,-22 -97,-54 -17,-33 -39,-119 -64,-258 l -4,0 c -78,88 -155,180 -230,275 l -127,-9 1,-20 z m 1359,-49 c -41,31 -84,50 -128,56 -63,9 -106,-24 -129,-97 l -7,0 c -47,83 -111,130 -194,142 -61,8 -112,-2 -150,-31 -39,-28 -63,-73 -71,-134 -9,-63 9,-117 53,-161 45,-45 102,-72 172,-81 52,-7 94,-5 126,8 31,12 61,35 87,70 l 9,-1 31,-104 102,-14 2,20 c -26,34 -58,94 -97,182 16,53 32,92 47,118 16,26 36,37 62,34 17,-3 36,-12 58,-27 l 27,20 z m -279,-128 c -20,-60 -42,-100 -67,-122 -25,-22 -58,-30 -99,-25 -44,6 -77,26 -99,61 -22,35 -29,78 -22,129 13,99 58,144 134,134 80,-11 131,-70 153,-177 z m -26,-409 2,20 -121,171 -47,-8 56,-168 110,-15 z m 230,184 148,-48 c 69,52 152,141 249,269 64,-111 86,-197 65,-260 -10,-31 -26,-55 -48,-74 l -6,-20 116,-37 c 10,15 18,32 24,49 14,46 13,97 -5,153 -18,55 -57,137 -118,243 l -80,26 c -68,-82 -127,-147 -177,-195 -49,-48 -83,-75 -102,-82 -20,-6 -39,-7 -59,-3 l -7,-21 z m 861,-301 115,203 c 21,38 54,44 99,19 20,-12 39,-31 56,-57 l 34,8 c -32,50 -68,85 -106,107 -42,24 -78,35 -106,32 -28,-3 -51,-20 -69,-52 l -117,-207 -48,27 c -29,16 -49,32 -61,47 -13,15 -23,34 -32,59 l -46,1 c 17,-48 35,-83 54,-105 19,-22 48,-44 87,-66 l 322,-182 27,48 -209,118 z m 932,-78 -265,-275 c -41,-42 -73,-64 -97,-65 -24,0 -49,12 -76,38 -19,18 -34,46 -45,82 -10,37 -6,63 10,81 l 176,182 -77,75 -207,-215 c -26,-26 -49,-29 -71,-8 -13,13 -23,31 -30,53 l -35,0 c 18,-50 41,-89 70,-117 45,-43 85,-50 122,-20 l 3,-2 c 17,-82 47,-143 88,-183 34,-33 68,-53 103,-60 34,-8 72,10 113,53 l 296,306 -78,75 z"
       id="path21708"
       inkscape:connector-curvature="0"
       style="fill:#ffffff;fill-rule:nonzero" /></g></svg>