<?xml version="1.0" encoding="UTF-8" standalone="no"?>
<!-- Creator: CorelDRAW X7 -->

<svg
   xmlns:dc="http://purl.org/dc/elements/1.1/"
   xmlns:cc="http://creativecommons.org/ns#"
   xmlns:rdf="http://www.w3.org/1999/02/22-rdf-syntax-ns#"
   xmlns:svg="http://www.w3.org/2000/svg"
   xmlns="http://www.w3.org/2000/svg"
   xmlns:sodipodi="http://sodipodi.sourceforge.net/DTD/sodipodi-0.dtd"
   xmlns:inkscape="http://www.inkscape.org/namespaces/inkscape"
   xml:space="preserve"
   width="7.8740005in"
   height="7.8740005in"
   version="1.1"
   style="clip-rule:evenodd;fill-rule:evenodd;image-rendering:optimizeQuality;shape-rendering:geometricPrecision;text-rendering:geometricPrecision"
   viewBox="0 0 7874.0005 7874.0005"
   id="svg7746"
   inkscape:version="0.91 r13725"
   sodipodi:docname="Yu Jing - Kuang Shi - [A6] [Vyo].svg"><metadata
     id="metadata7782"><rdf:RDF><cc:Work
         rdf:about=""><dc:format>image/svg+xml</dc:format><dc:type
           rdf:resource="http://purl.org/dc/dcmitype/StillImage" /></cc:Work></rdf:RDF></metadata><sodipodi:namedview
     pagecolor="#ffffff"
     bordercolor="#666666"
     borderopacity="1"
     objecttolerance="10"
     gridtolerance="10"
     guidetolerance="10"
     inkscape:pageopacity="0"
     inkscape:pageshadow="2"
     inkscape:window-width="640"
     inkscape:window-height="480"
     id="namedview7780"
     showgrid="false"
     inkscape:zoom="0.23838384"
     inkscape:cx="736.83001"
     inkscape:cy="849.33005"
     inkscape:window-x="0"
     inkscape:window-y="0"
     inkscape:window-maximized="0"
     inkscape:current-layer="svg7746" /><defs
     id="defs7748"><style
       type="text/css"
       id="style7750"><![CDATA[
    .fil3 {fill:none}
    .fil1 {fill:black}
    .fil0 {fill:#E32527}
    .fil4 {fill:white}
    .fil2 {fill:white;fill-rule:nonzero}
   ]]></style></defs><g
     id="Layer_x0020_1"
     transform="translate(3937,-7063)"><metadata
       id="CorelCorpID_0Corel-Layer" /><circle
       class="fil0"
       cy="11000"
       r="3937"
       id="circle7754"
       cx="0"
       style="fill:#e32527" /><circle
       class="fil1"
       cy="11000"
       r="3780"
       id="circle7756"
       cx="0"
       style="fill:#000000" /><circle
       class="fil0"
       cy="11000"
       r="3661"
       id="circle7758"
       cx="0"
       style="fill:#e32527" /><circle
       class="fil1"
       cy="11000"
       r="2520"
       id="circle7760"
       cx="0"
       style="fill:#000000" /><circle
       class="fil0"
       cy="11000"
       r="2402"
       id="circle7762"
       cx="0"
       style="fill:#e32527" /><circle
       class="fil1"
       cy="11000"
       r="2323"
       id="circle7764"
       cx="0"
       style="fill:#000000" /><path
       class="fil2"
       d="m -253,7582 -439,69 -8,-55 438,-69 9,55 z m -432,205 c 19,125 20,229 4,313 -17,84 -51,164 -103,238 l -65,-43 c 53,-82 86,-156 99,-221 -31,-26 -55,-45 -72,-54 -7,25 -13,44 -18,56 l -60,-59 c 33,-96 44,-201 33,-316 l -70,11 -11,-69 233,-36 11,68 -93,15 c 5,40 7,78 4,114 l 108,-17 z m -60,80 -50,8 c -1,16 -4,42 -11,75 23,12 45,26 65,40 3,-43 2,-84 -4,-123 z m 503,-47 -391,61 -31,-199 390,-61 32,199 z m -86,-109 -6,-34 -97,16 6,33 97,-15 z m -163,26 -5,-34 -94,15 6,33 93,-14 z m 174,50 -5,-36 -97,16 5,35 97,-15 z m -163,25 -6,-35 -92,15 5,35 93,-15 z m 277,89 -440,69 -8,-53 440,-69 8,53 z m 10,237 -391,61 -31,-198 391,-62 31,199 z m -87,-107 -6,-37 -95,15 6,37 95,-15 z m -162,25 -6,-37 -93,15 6,37 93,-15 z m 174,50 -6,-36 -95,15 6,36 95,-15 z m -163,25 -5,-35 -93,14 6,36 92,-15 z m 287,93 -465,73 -8,-52 464,-73 9,52 z m 1021,-27 c -7,36 -15,64 -25,84 -10,21 -24,34 -41,40 -17,6 -43,6 -79,1 -32,-5 -57,-10 -73,-13 -17,-4 -29,-13 -36,-28 -8,-14 -10,-32 -7,-52 l 47,-300 -154,-24 c -4,10 -11,26 -23,48 l 142,22 c -22,91 -58,158 -109,203 -51,45 -117,73 -200,83 l -32,-67 c 60,-4 109,-16 147,-38 -17,-24 -35,-46 -55,-66 -10,9 -23,17 -37,25 l -35,-56 c 53,-35 97,-90 132,-165 l -99,-16 c -30,165 -74,290 -131,374 l -51,-54 c 52,-82 89,-192 111,-332 l 52,-327 602,94 -32,206 -533,-84 -9,59 570,90 -10,64 -178,-28 -14,89 151,24 -10,64 -151,-23 -20,130 c -1,7 0,13 5,16 5,4 16,7 33,10 22,3 38,5 48,5 9,0 17,-9 23,-25 6,-17 12,-40 18,-71 l 63,38 z m -47,-435 12,-76 -462,-72 -12,76 462,72 z m -289,266 -93,-14 c -6,10 -14,20 -24,32 10,8 31,32 63,71 22,-25 40,-54 54,-89 z"
       id="path7766"
       inkscape:connector-curvature="0"
       style="fill:#ffffff;fill-rule:nonzero" /><circle
       class="fil3"
       cy="11000"
       r="3898"
       id="circle7768"
       cx="0"
       style="fill:none" /><circle
       class="fil3"
       cy="11000"
       r="3898"
       id="circle7770"
       cx="0"
       style="fill:none" /><path
       class="fil4"
       d="m -2500,9215 c 75,-32 173,-103 282,-292 109,-188 122,-309 112,-390 -76,32 -174,103 -282,292 -109,188 -122,309 -112,390 z m -416,2983 c 12,-98 -3,-242 -134,-468 -130,-226 -248,-312 -338,-350 -12,97 3,242 134,468 130,226 248,311 338,350 z m 139,-974 c 44,69 83,184 64,400 -19,217 -78,323 -132,384 -44,-70 -83,-184 -64,-401 19,-216 77,-322 132,-383 z m -349,173 c 37,-91 60,-235 -8,-487 -67,-252 -159,-365 -236,-425 -37,91 -60,234 8,487 67,252 159,365 236,425 z m 387,-905 c 23,79 32,200 -43,404 -74,204 -158,291 -227,336 -23,-78 -32,-199 42,-403 75,-205 159,-292 228,-337 z m -382,78 c 59,-79 118,-212 118,-473 0,-261 -59,-393 -118,-472 -59,79 -119,211 -119,472 0,261 60,394 119,473 z m 607,-775 c 3,82 -20,201 -145,379 -125,179 -229,241 -307,266 -2,-82 21,-200 146,-378 124,-179 228,-241 306,-267 z m -389,-24 c 77,-60 169,-173 236,-425 68,-252 45,-396 9,-487 -78,60 -169,173 -237,425 -67,252 -45,396 -8,487 z m 787,-590 c -18,80 -72,188 -238,328 -167,140 -283,173 -365,178 19,-80 72,-189 238,-329 167,-139 283,-173 365,-177 z"
       id="path7772"
       inkscape:connector-curvature="0"
       style="fill:#ffffff" /><path
       class="fil4"
       d="m 2500,9215 c -75,-32 -173,-103 -282,-292 -109,-188 -122,-309 -112,-390 76,32 174,103 282,292 109,188 122,309 112,390 z m 416,2983 c -12,-98 3,-242 134,-468 130,-226 248,-312 338,-350 12,97 -3,242 -134,468 -130,226 -248,311 -338,350 z m -139,-974 c -44,69 -83,184 -64,400 19,217 78,323 132,384 44,-70 83,-184 64,-401 -19,-216 -78,-322 -132,-383 z m 349,173 c -37,-91 -60,-235 8,-487 67,-252 159,-365 236,-425 37,91 60,234 -8,487 -67,252 -159,365 -236,425 z m -387,-905 c -23,79 -32,200 43,404 74,204 158,291 227,336 23,-78 32,-199 -43,-403 -74,-205 -158,-292 -227,-337 z m 382,78 c -59,-79 -118,-212 -118,-473 0,-261 59,-393 118,-472 59,79 119,211 119,472 0,261 -60,394 -119,473 z m -607,-775 c -3,82 20,201 145,379 125,179 229,241 307,266 2,-82 -21,-200 -146,-378 -124,-179 -228,-241 -306,-267 z m 389,-24 c -77,-60 -169,-173 -236,-425 -68,-252 -45,-396 -9,-487 78,60 169,173 237,425 67,252 45,396 8,487 z m -787,-590 c 18,80 72,188 238,328 167,140 283,173 365,178 -19,-80 -72,-189 -238,-329 -167,-139 -283,-173 -365,-177 z"
       id="path7774"
       inkscape:connector-curvature="0"
       style="fill:#ffffff" /><path
       class="fil2"
       d="m 0,9071 c 533,0 1015,216 1364,565 349,349 565,831 565,1364 0,533 -216,1015 -565,1364 -349,349 -831,565 -1364,565 -533,0 -1015,-216 -1364,-565 -349,-349 -565,-831 -565,-1364 0,-533 216,-1015 565,-1364 349,-349 831,-565 1364,-565 z m -1510,1726 622,0 0,-1034 c -68,48 -131,102 -189,160 -230,231 -387,535 -433,874 z m 622,406 -622,0 c 46,339 203,643 433,874 58,58 121,112 189,160 l 0,-1034 z m 1776,-406 622,0 c -46,-339 -203,-643 -433,-874 -58,-58 -121,-112 -189,-160 l 0,1034 z m 622,406 -622,0 0,1034 c 68,-48 131,-102 189,-160 230,-231 387,-535 433,-874 z m -1028,1242 0,-2890 c -151,-51 -313,-78 -482,-78 -169,0 -331,27 -482,78 l 0,2890 c 151,51 313,78 482,78 169,0 331,-27 482,-78 z"
       id="path7776"
       inkscape:connector-curvature="0"
       style="fill:#ffffff;fill-rule:nonzero" /><path
       class="fil2"
       d="m -2804,12963 -47,-66 422,-297 47,66 -422,297 z m 382,471 -49,-57 245,-211 c 12,-10 25,-20 40,-31 -12,5 -30,12 -54,20 l -281,69 -11,-12 111,-269 c 8,-18 17,-35 27,-50 -21,19 -33,31 -38,35 l -245,210 -42,-49 391,-337 42,50 -129,327 341,-81 43,49 -391,337 z m 594,116 c -44,50 -86,57 -125,23 l -164,-144 -133,151 -60,-53 340,-388 225,197 c 39,35 37,77 -7,127 l -76,87 z m -39,-75 36,-41 c 18,-21 18,-39 0,-55 l -137,-120 -90,103 136,120 c 19,16 37,14 55,-7 z m 232,541 -304,-192 276,-436 301,190 -47,75 -233,-148 -61,98 136,86 -47,74 -136,-86 -69,108 236,149 -52,82 z m 488,225 -106,-49 -46,-235 -70,-32 -81,177 -73,-33 215,-469 271,124 c 48,22 58,63 30,123 l -50,110 c -20,43 -42,66 -68,67 -15,2 -44,-8 -87,-27 l 65,244 z m 31,-343 25,-56 c 12,-25 6,-42 -16,-53 l -165,-75 -60,131 165,75 c 22,11 39,3 51,-22 z m 148,388 -78,-21 138,-498 78,22 -138,497 z m 548,115 -89,-15 -23,-118 -217,-38 -59,105 -80,-14 281,-475 77,13 110,542 z m -129,-231 -39,-219 -112,193 151,26 z m 556,264 -341,-26 39,-514 81,6 -32,418 260,19 -7,97 z m 686,-196 c 6,42 5,72 -2,89 -9,24 -32,39 -68,44 l -214,28 c -38,5 -65,-3 -79,-26 -10,-16 -19,-48 -25,-97 l 68,-31 8,60 245,-33 -16,-117 -216,29 c -35,5 -61,-2 -76,-22 -11,-14 -20,-43 -26,-87 l -7,-57 c -6,-43 -6,-73 1,-91 10,-22 33,-36 68,-41 l 196,-26 c 37,-5 62,3 77,23 11,14 20,44 26,88 l -68,35 -8,-59 -226,30 15,110 215,-29 c 37,-4 62,4 77,24 11,15 20,44 25,86 l 10,70 z m 499,-18 -345,100 -143,-496 342,-99 24,85 -264,76 32,111 154,-45 25,85 -155,44 36,123 268,-77 26,93 z m 490,-221 -106,48 -208,-120 -70,31 80,178 -73,33 -212,-470 272,-123 c 48,-22 85,-2 113,59 l 50,110 c 19,43 21,75 6,95 -9,12 -35,28 -78,47 l 226,112 z m -238,-248 -25,-57 c -11,-25 -28,-32 -51,-22 l -165,75 59,131 166,-75 c 22,-10 28,-27 16,-52 z m 348,-447 119,538 -47,30 -449,-324 78,-50 321,236 -90,-386 68,-44 z m 393,335 -64,49 -316,-408 64,-50 316,409 z m 289,-449 c 32,30 51,54 56,71 7,24 -2,49 -27,75 l -143,151 c -25,26 -49,37 -73,31 -18,-4 -43,-22 -75,-52 l -197,-187 c -32,-30 -51,-54 -56,-72 -7,-24 2,-49 27,-75 l 143,-151 c 24,-26 49,-36 73,-30 18,4 43,21 75,52 l 35,33 -42,72 -71,-67 -150,159 237,224 150,-158 -80,-77 74,-41 44,42 z m 394,-313 -208,293 -421,-298 206,-291 72,51 -159,225 94,66 93,-131 71,51 -93,131 105,74 161,-228 79,57 z"
       id="path7778"
       inkscape:connector-curvature="0"
       style="fill:#ffffff;fill-rule:nonzero" /></g></svg>