<?xml version="1.0" encoding="UTF-8" standalone="no"?>
<!-- Creator: CorelDRAW X7 -->

<svg
   xmlns:dc="http://purl.org/dc/elements/1.1/"
   xmlns:cc="http://creativecommons.org/ns#"
   xmlns:rdf="http://www.w3.org/1999/02/22-rdf-syntax-ns#"
   xmlns:svg="http://www.w3.org/2000/svg"
   xmlns="http://www.w3.org/2000/svg"
   xmlns:sodipodi="http://sodipodi.sourceforge.net/DTD/sodipodi-0.dtd"
   xmlns:inkscape="http://www.inkscape.org/namespaces/inkscape"
   xml:space="preserve"
   width="7.8740005in"
   height="7.8740005in"
   version="1.1"
   style="clip-rule:evenodd;fill-rule:evenodd;image-rendering:optimizeQuality;shape-rendering:geometricPrecision;text-rendering:geometricPrecision"
   viewBox="0 0 7874.0005 7874.0005"
   id="svg3600"
   inkscape:version="0.91 r13725"
   sodipodi:docname="Combined Army - Oznat, Morat Hunting Regiment - [N3] [Vyo].svg"><metadata
     id="metadata3616"><rdf:RDF><cc:Work
         rdf:about=""><dc:format>image/svg+xml</dc:format><dc:type
           rdf:resource="http://purl.org/dc/dcmitype/StillImage" /></cc:Work></rdf:RDF></metadata><sodipodi:namedview
     pagecolor="#ffffff"
     bordercolor="#666666"
     borderopacity="1"
     objecttolerance="10"
     gridtolerance="10"
     guidetolerance="10"
     inkscape:pageopacity="0"
     inkscape:pageshadow="2"
     inkscape:window-width="640"
     inkscape:window-height="480"
     id="namedview3614"
     showgrid="false"
     inkscape:zoom="0.23838384"
     inkscape:cx="736.83001"
     inkscape:cy="849.33005"
     inkscape:window-x="0"
     inkscape:window-y="0"
     inkscape:window-maximized="0"
     inkscape:current-layer="svg3600" /><defs
     id="defs3602"><style
       type="text/css"
       id="style3604"><![CDATA[
    .fil0 {fill:black}
    .fil1 {fill:#E32527}
    .fil2 {fill:white}
   ]]></style></defs><g
     id="Layer_x0020_1"
     transform="translate(3937,-7063)"><metadata
       id="CorelCorpID_0Corel-Layer" /><circle
       class="fil0"
       cy="11000"
       r="3937"
       id="circle3608"
       cx="0"
       style="fill:#000000" /><polygon
       class="fil1"
       points="2539,11551 1772,12870 295,11866 -2283,11492 -2402,10350 728,9839 2461,10232 "
       id="polygon3610"
       style="fill:#e32527" /><path
       class="fil2"
       d="m 197,8133 c 1495,101 2677,1346 2677,2867 0,1521 -1182,2766 -2677,2867 l 0,-553 c 428,-35 823,-187 1153,-424 -294,-331 -768,-611 -1379,-805 -603,-191 -1332,-294 -2149,-276 307,825 1069,1429 1981,1505 l 0,553 c -1495,-101 -2677,-1346 -2677,-2867 0,-1521 1182,-2766 2677,-2867 l 0,553 c -906,76 -1664,672 -1975,1488 829,-281 1709,-481 2526,-537 579,-40 1128,-6 1611,123 C 1586,9162 941,8748 197,8686 l 0,-553 z m -2124,2540 c 723,-153 1486,-196 2193,-138 791,65 1519,258 2055,567 1,-34 2,-68 2,-102 0,-189 -23,-373 -65,-549 -496,-243 -1151,-314 -1867,-265 -745,51 -1551,232 -2318,487 z m -87,584 c 810,-2 1539,109 2151,303 702,222 1259,556 1620,959 207,-239 366,-521 462,-831 -458,-329 -1184,-537 -1998,-604 -724,-60 -1509,-6 -2235,173 z"
       id="path3612"
       inkscape:connector-curvature="0"
       style="fill:#ffffff" /></g></svg>