<?xml version="1.0" encoding="UTF-8" standalone="no"?>
<!-- Creator: CorelDRAW X7 -->

<svg
   xmlns:dc="http://purl.org/dc/elements/1.1/"
   xmlns:cc="http://creativecommons.org/ns#"
   xmlns:rdf="http://www.w3.org/1999/02/22-rdf-syntax-ns#"
   xmlns:svg="http://www.w3.org/2000/svg"
   xmlns="http://www.w3.org/2000/svg"
   xmlns:sodipodi="http://sodipodi.sourceforge.net/DTD/sodipodi-0.dtd"
   xmlns:inkscape="http://www.inkscape.org/namespaces/inkscape"
   xml:space="preserve"
   width="7.8740005in"
   height="7.8740005in"
   version="1.1"
   style="clip-rule:evenodd;fill-rule:evenodd;image-rendering:optimizeQuality;shape-rendering:geometricPrecision;text-rendering:geometricPrecision"
   viewBox="0 0 7874.0005 7874.0005"
   id="svg3589"
   inkscape:version="0.91 r13725"
   sodipodi:docname="Mercs - Miyamoto Musashi - [N3] [Vyo].svg"><metadata
     id="metadata3653"><rdf:RDF><cc:Work
         rdf:about=""><dc:format>image/svg+xml</dc:format><dc:type
           rdf:resource="http://purl.org/dc/dcmitype/StillImage" /></cc:Work></rdf:RDF></metadata><sodipodi:namedview
     pagecolor="#ffffff"
     bordercolor="#666666"
     borderopacity="1"
     objecttolerance="10"
     gridtolerance="10"
     guidetolerance="10"
     inkscape:pageopacity="0"
     inkscape:pageshadow="2"
     inkscape:window-width="640"
     inkscape:window-height="480"
     id="namedview3651"
     showgrid="false"
     inkscape:zoom="0.23838384"
     inkscape:cx="736.83001"
     inkscape:cy="849.33005"
     inkscape:window-x="0"
     inkscape:window-y="0"
     inkscape:window-maximized="0"
     inkscape:current-layer="svg3589" /><defs
     id="defs3591"><style
       type="text/css"
       id="style3593"><![CDATA[
    .fil0 {fill:black}
    .fil1 {fill:white}
   ]]></style></defs><g
     id="Layer_x0020_1"
     transform="translate(3937,-7063)"><metadata
       id="CorelCorpID_0Corel-Layer" /><circle
       class="fil0"
       cy="11000"
       r="3937"
       id="circle3597"
       cx="0"
       style="fill:#000000" /><g
       id="_886453456"><polygon
         class="fil1"
         points="-1102,9189 0,7614 1102,9189 0,10764 "
         id="polygon3600"
         style="fill:#ffffff" /><polygon
         class="fil0"
         points="862,9189 0,7957 -862,9189 0,10421 "
         id="polygon3602"
         style="fill:#000000" /><polygon
         class="fil1"
         points="670,9189 0,8232 -670,9189 0,10146 "
         id="polygon3604"
         style="fill:#ffffff" /><polygon
         class="fil0"
         points="574,9189 0,8369 -574,9189 0,10009 "
         id="polygon3606"
         style="fill:#000000" /><polygon
         class="fil1"
         points="478,9189 0,8507 -478,9189 0,9871 "
         id="polygon3608"
         style="fill:#ffffff" /><polygon
         class="fil0"
         points="333,9189 0,8713 -333,9189 0,9665 "
         id="polygon3610"
         style="fill:#000000" /></g><g
       id="_886455344"><polygon
         class="fil1"
         points="-1102,12811 0,11236 1102,12811 0,14386 "
         id="polygon3613"
         style="fill:#ffffff" /><polygon
         class="fil0"
         points="862,12811 0,11579 -862,12811 0,14043 "
         id="polygon3615"
         style="fill:#000000" /><polygon
         class="fil1"
         points="670,12811 0,11854 -670,12811 0,13768 "
         id="polygon3617"
         style="fill:#ffffff" /><polygon
         class="fil0"
         points="574,12811 0,11991 -574,12811 0,13631 "
         id="polygon3619"
         style="fill:#000000" /><polygon
         class="fil1"
         points="478,12811 0,12129 -478,12811 0,13493 "
         id="polygon3621"
         style="fill:#ffffff" /><polygon
         class="fil0"
         points="333,12811 0,12335 -333,12811 0,13287 "
         id="polygon3623"
         style="fill:#000000" /></g><g
       id="_886448464"><polygon
         class="fil1"
         points="-2370,11000 -1268,9425 -165,11000 -1268,12575 "
         id="polygon3626"
         style="fill:#ffffff" /><polygon
         class="fil0"
         points="-406,11000 -1268,9768 -2130,11000 -1268,12232 "
         id="polygon3628"
         style="fill:#000000" /><polygon
         class="fil1"
         points="-598,11000 -1268,10043 -1938,11000 -1268,11957 "
         id="polygon3630"
         style="fill:#ffffff" /><polygon
         class="fil0"
         points="-694,11000 -1268,10180 -1841,11000 -1268,11820 "
         id="polygon3632"
         style="fill:#000000" /><polygon
         class="fil1"
         points="-790,11000 -1268,10318 -1745,11000 -1268,11682 "
         id="polygon3634"
         style="fill:#ffffff" /><polygon
         class="fil0"
         points="-934,11000 -1268,10524 -1601,11000 -1268,11476 "
         id="polygon3636"
         style="fill:#000000" /></g><g
       id="_886476528"><polygon
         class="fil1"
         points="165,11000 1268,9425 2370,11000 1268,12575 "
         id="polygon3639"
         style="fill:#ffffff" /><polygon
         class="fil0"
         points="2130,11000 1268,9768 406,11000 1268,12232 "
         id="polygon3641"
         style="fill:#000000" /><polygon
         class="fil1"
         points="1938,11000 1268,10043 598,11000 1268,11957 "
         id="polygon3643"
         style="fill:#ffffff" /><polygon
         class="fil0"
         points="1841,11000 1268,10180 694,11000 1268,11820 "
         id="polygon3645"
         style="fill:#000000" /><polygon
         class="fil1"
         points="1745,11000 1268,10318 790,11000 1268,11682 "
         id="polygon3647"
         style="fill:#ffffff" /><polygon
         class="fil0"
         points="1601,11000 1268,10524 934,11000 1268,11476 "
         id="polygon3649"
         style="fill:#000000" /></g></g></svg>