<?xml version="1.0" encoding="UTF-8" standalone="no"?>
<!-- Creator: CorelDRAW X7 -->

<svg
   xmlns:dc="http://purl.org/dc/elements/1.1/"
   xmlns:cc="http://creativecommons.org/ns#"
   xmlns:rdf="http://www.w3.org/1999/02/22-rdf-syntax-ns#"
   xmlns:svg="http://www.w3.org/2000/svg"
   xmlns="http://www.w3.org/2000/svg"
   xmlns:sodipodi="http://sodipodi.sourceforge.net/DTD/sodipodi-0.dtd"
   xmlns:inkscape="http://www.inkscape.org/namespaces/inkscape"
   xml:space="preserve"
   width="7.8740005in"
   height="7.8740005in"
   version="1.1"
   style="clip-rule:evenodd;fill-rule:evenodd;image-rendering:optimizeQuality;shape-rendering:geometricPrecision;text-rendering:geometricPrecision"
   viewBox="0 0 7874.0005 7874.0005"
   id="svg4287"
   inkscape:version="0.91 r13725"
   sodipodi:docname="Mercs - Yojimbo - [N3] [Vyo].svg"><metadata
     id="metadata4311"><rdf:RDF><cc:Work
         rdf:about=""><dc:format>image/svg+xml</dc:format><dc:type
           rdf:resource="http://purl.org/dc/dcmitype/StillImage" /></cc:Work></rdf:RDF></metadata><sodipodi:namedview
     pagecolor="#ffffff"
     bordercolor="#666666"
     borderopacity="1"
     objecttolerance="10"
     gridtolerance="10"
     guidetolerance="10"
     inkscape:pageopacity="0"
     inkscape:pageshadow="2"
     inkscape:window-width="640"
     inkscape:window-height="480"
     id="namedview4309"
     showgrid="false"
     inkscape:zoom="0.23838384"
     inkscape:cx="736.83001"
     inkscape:cy="849.33005"
     inkscape:window-x="0"
     inkscape:window-y="0"
     inkscape:window-maximized="0"
     inkscape:current-layer="svg4287" /><defs
     id="defs4289"><style
       type="text/css"
       id="style4291"><![CDATA[
    .fil0 {fill:#E2001A}
    .fil1 {fill:white}
   ]]></style></defs><g
     id="Layer_x0020_1"
     transform="translate(3937,-7063)"><metadata
       id="CorelCorpID_0Corel-Layer" /><circle
       class="fil0"
       cy="11000"
       r="3937"
       id="circle4295"
       cx="0"
       style="fill:#e2001a" /><path
       class="fil1"
       d="m 0,7181 c 2109,0 3819,1710 3819,3819 0,2109 -1710,3819 -3819,3819 -2109,0 -3819,-1710 -3819,-3819 0,-2109 1710,-3819 3819,-3819 z"
       id="path4297"
       inkscape:connector-curvature="0"
       style="fill:#ffffff" /><g
       id="_930161104"><path
         class="fil0"
         d="m -118,13753 c -1467,-62 -2638,-1271 -2638,-2753 0,-1482 1171,-2691 2638,-2753 l 0,630 c -1119,62 -2008,988 -2008,2123 l 0,0 c 0,3 0,6 0,9 l 0,0 c 5,192 162,345 354,345 14,0 27,0 40,-2 l 1732,2 c 0,435 -353,788 -787,788 l -1007,0 c 358,560 971,942 1676,981 l 0,630 z"
         id="path4300"
         inkscape:connector-curvature="0"
         style="fill:#e2001a" /><circle
         class="fil0"
         cx="-1063"
         cy="10252"
         r="433"
         id="circle4302"
         style="fill:#e2001a" /></g><g
       id="_930155696"><path
         class="fil0"
         d="m 118,8247 c 1467,62 2638,1271 2638,2753 0,1482 -1171,2691 -2638,2753 l 0,-630 c 1119,-62 2008,-988 2008,-2123 l 0,0 c 0,-3 0,-6 0,-9 l 0,0 c -5,-192 -162,-345 -354,-345 -14,0 -27,0 -40,2 L 0,10646 c 0,-435 353,-788 787,-788 l 1007,0 C 1436,9298 823,8916 118,8877 l 0,-630 z"
         id="path4305"
         inkscape:connector-curvature="0"
         style="fill:#e2001a" /><circle
         class="fil0"
         cx="1063"
         cy="11748"
         r="433"
         id="circle4307"
         style="fill:#e2001a" /></g></g></svg>