<?xml version="1.0" encoding="UTF-8" standalone="no"?>
<!-- Creator: CorelDRAW X7 -->

<svg
   xmlns:dc="http://purl.org/dc/elements/1.1/"
   xmlns:cc="http://creativecommons.org/ns#"
   xmlns:rdf="http://www.w3.org/1999/02/22-rdf-syntax-ns#"
   xmlns:svg="http://www.w3.org/2000/svg"
   xmlns="http://www.w3.org/2000/svg"
   xmlns:sodipodi="http://sodipodi.sourceforge.net/DTD/sodipodi-0.dtd"
   xmlns:inkscape="http://www.inkscape.org/namespaces/inkscape"
   xml:space="preserve"
   width="7.8740005in"
   height="7.8740005in"
   version="1.1"
   style="clip-rule:evenodd;fill-rule:evenodd;image-rendering:optimizeQuality;shape-rendering:geometricPrecision;text-rendering:geometricPrecision"
   viewBox="0 0 7874.0005 7874.0005"
   id="svg4244"
   inkscape:version="0.91 r13725"
   sodipodi:docname="Mercs - Wardrivers, Mercenary Hackers - [N3] [Vyo].svg"><metadata
     id="metadata4285"><rdf:RDF><cc:Work
         rdf:about=""><dc:format>image/svg+xml</dc:format><dc:type
           rdf:resource="http://purl.org/dc/dcmitype/StillImage" /></cc:Work></rdf:RDF></metadata><sodipodi:namedview
     pagecolor="#ffffff"
     bordercolor="#666666"
     borderopacity="1"
     objecttolerance="10"
     gridtolerance="10"
     guidetolerance="10"
     inkscape:pageopacity="0"
     inkscape:pageshadow="2"
     inkscape:window-width="640"
     inkscape:window-height="480"
     id="namedview4283"
     showgrid="false"
     inkscape:zoom="0.23838384"
     inkscape:cx="736.83001"
     inkscape:cy="849.33005"
     inkscape:window-x="0"
     inkscape:window-y="0"
     inkscape:window-maximized="0"
     inkscape:current-layer="svg4244" /><defs
     id="defs4246"><style
       type="text/css"
       id="style4248"><![CDATA[
    .fil5 {fill:none}
    .fil2 {fill:#0BA9A2}
    .fil3 {fill:#147D79}
    .fil1 {fill:#41615E}
    .fil0 {fill:#86CBCE}
    .fil4 {fill:#DCEAE9}
    .fil6 {fill:white;fill-rule:nonzero}
   ]]></style></defs><g
     id="Layer_x0020_1"
     transform="translate(3937,-7063)"><metadata
       id="CorelCorpID_0Corel-Layer" /><circle
       class="fil0"
       cy="11000"
       r="3937"
       id="circle4252"
       cx="0"
       style="fill:#86cbce" /><circle
       class="fil1"
       cy="11000"
       r="3858"
       id="circle4254"
       cx="0"
       style="fill:#41615e" /><circle
       class="fil2"
       cy="11000"
       r="3465"
       id="circle4256"
       cx="0"
       style="fill:#0ba9a2" /><circle
       class="fil3"
       cy="11000"
       r="3425"
       id="circle4258"
       cx="0"
       style="fill:#147d79" /><circle
       class="fil2"
       cy="11000"
       r="2795"
       id="circle4260"
       cx="0"
       style="fill:#0ba9a2" /><path
       class="fil4"
       d="m -1808,9246 c -20,-104 18,-213 100,-282 124,-104 311,-88 416,37 104,124 88,311 -37,416 -73,62 -172,83 -264,59 -394,411 -612,954 -612,1524 0,587 231,1144 646,1559 376,376 872,603 1402,640 l 0,-1347 c -173,-32 -331,-115 -455,-240 -163,-162 -254,-382 -254,-612 0,-230 91,-450 254,-612 124,-125 282,-208 455,-240 l 0,-1347 c -161,11 -319,40 -473,86 l 0,903 -20,11 c -108,61 -207,137 -295,225 -259,259 -403,607 -403,974 0,367 144,715 403,974 38,38 77,73 119,106 79,-30 168,-25 244,15 144,77 198,255 122,399 -77,144 -256,199 -399,122 -105,-55 -166,-168 -156,-284 -54,-42 -105,-87 -153,-135 -318,-318 -495,-747 -495,-1197 0,-450 177,-879 495,-1197 69,-69 144,-132 223,-188 l 0,-976 37,10 c 290,-112 597,-169 908,-169 671,0 1308,264 1782,738 474,474 738,1111 738,1782 0,658 -254,1283 -712,1754 20,104 -18,213 -100,282 -124,104 -311,88 -416,-37 -104,-124 -88,-311 37,-416 73,-62 172,-83 264,-59 394,-411 612,-954 612,-1524 0,-587 -231,-1144 -646,-1559 C 1183,9065 687,8838 157,8801 l 0,1347 c 173,32 331,115 455,240 163,162 254,382 254,612 0,230 -91,450 -254,612 -124,125 -282,208 -455,240 l 0,1347 c 161,-11 319,-40 473,-86 l 0,-872 21,-11 c 131,-66 250,-152 353,-256 259,-259 403,-607 403,-974 0,-367 -144,-715 -403,-974 -44,-44 -91,-85 -141,-123 -86,48 -192,49 -281,2 -144,-77 -198,-255 -122,-399 77,-144 255,-199 399,-122 91,48 149,139 156,240 76,54 146,114 212,179 318,318 495,747 495,1197 0,450 -177,879 -495,1197 -86,86 -180,162 -282,227 l 0,913 -25,9 c -293,116 -605,174 -920,174 -671,0 -1308,-264 -1782,-738 -474,-474 -738,-1111 -738,-1782 0,-658 254,-1283 712,-1754 z m 2198,1364 c -104,-103 -243,-161 -390,-161 -147,0 -286,58 -390,161 -103,104 -161,243 -161,390 0,147 58,286 161,390 104,103 243,161 390,161 147,0 286,-58 390,-161 103,-104 161,-243 161,-390 0,-147 -58,-286 -161,-390 z"
       id="path4262"
       inkscape:connector-curvature="0"
       style="fill:#dceae9" /><path
       class="fil0"
       d="m 1683,13006 c -108,90 -270,76 -361,-32 -90,-108 -76,-270 32,-360 72,-61 168,-75 251,-45 395,-405 639,-958 639,-1569 0,-620 -251,-1181 -657,-1587 C 1207,9033 691,8789 118,8759 l 0,1423 c 181,26 343,110 467,233 149,150 242,357 242,585 0,228 -93,435 -242,585 -124,123 -286,207 -467,233 l 0,1423 c 191,-10 376,-44 551,-98 l 0,-878 c 135,-68 257,-157 363,-263 256,-256 415,-611 415,-1002 0,-391 -159,-746 -415,-1002 -52,-52 -107,-99 -166,-143 -77,52 -178,62 -265,15 -125,-66 -172,-221 -106,-346 66,-125 221,-172 346,-106 87,46 136,135 136,227 79,55 153,117 222,186 299,299 484,712 484,1169 0,457 -185,870 -484,1169 -89,89 -187,167 -293,234 l 0,907 -1,0 c -280,110 -585,170 -905,170 -685,0 -1305,-277 -1754,-726 -449,-449 -726,-1069 -726,-1754 0,-679 273,-1294 715,-1742 -26,-94 3,-197 82,-264 108,-90 270,-76 361,32 90,108 76,270 -32,360 -72,61 -168,75 -251,45 -395,405 -639,958 -639,1569 0,620 251,1181 657,1587 380,380 896,624 1469,654 l 0,-1423 c -181,-26 -343,-110 -467,-233 -149,-150 -242,-357 -242,-585 0,-228 93,-435 242,-585 124,-123 286,-207 467,-233 l 0,-1423 c -191,10 -376,44 -551,98 l 0,910 c -112,63 -214,141 -304,231 -256,256 -415,611 -415,1002 0,391 159,746 415,1002 44,44 91,85 141,123 71,-34 156,-35 231,5 125,66 172,221 106,346 -66,125 -221,172 -346,106 -99,-53 -150,-162 -133,-267 -58,-45 -114,-94 -166,-146 -299,-299 -484,-712 -484,-1169 0,-457 185,-870 484,-1169 72,-72 151,-137 234,-195 l 0,-946 1,0 c 280,-110 585,-170 905,-170 685,0 1305,277 1754,726 449,449 726,1069 726,1754 0,679 -273,1294 -715,1742 26,94 -3,197 -82,264 z M 418,10582 c -107,-106 -255,-173 -418,-173 -163,0 -311,67 -418,173 -106,107 -173,255 -173,418 0,163 67,311 173,418 107,106 255,173 418,173 163,0 311,-67 418,-173 106,-107 173,-255 173,-418 0,-163 -67,-311 -173,-418 z"
       id="path4264"
       inkscape:connector-curvature="0"
       style="fill:#86cbce" /><circle
       class="fil5"
       cy="11000"
       r="3898"
       id="circle4266"
       cx="0"
       style="fill:none" /><circle
       class="fil5"
       cy="11000"
       r="3898"
       id="circle4268"
       cx="0"
       style="fill:none" /><path
       class="fil6"
       d="m -590,7701 95,214 c 4,10 8,20 12,30 5,11 9,23 14,37 1,-18 1,-32 1,-43 1,-11 2,-21 3,-29 l 19,-232 130,-21 -58,492 -119,19 -90,-192 c -3,-7 -9,-20 -18,-40 -3,-9 -6,-16 -8,-20 0,4 -1,11 -2,19 -1,22 -2,37 -4,46 l -25,210 -119,19 -208,-449 130,-21 90,216 c 4,12 8,23 13,34 4,11 8,23 12,34 1,-9 1,-19 2,-29 1,-10 2,-25 3,-44 l 24,-234 103,-16 z"
       id="path4270"
       inkscape:connector-curvature="0"
       style="fill:#ffffff;fill-rule:nonzero" /><path
       id="1"
       class="fil6"
       d="m -83,7947 129,-1 -51,-157 c -2,-5 -4,-12 -6,-23 -3,-11 -7,-24 -11,-41 -3,12 -5,23 -8,34 -2,10 -5,21 -8,30 l -45,158 z m -180,181 158,-479 163,-2 171,474 -129,2 -26,-85 -184,2 -24,86 -129,2 z"
       inkscape:connector-curvature="0"
       style="fill:#ffffff;fill-rule:nonzero" /><path
       id="2"
       class="fil6"
       d="m 274,8135 71,-471 134,20 c 53,8 89,16 109,24 20,8 37,19 50,32 15,16 26,34 32,55 6,22 7,44 3,68 -5,37 -19,65 -40,85 -21,20 -50,31 -85,34 l 100,209 -145,-22 -81,-201 -27,185 -121,-18 z m 158,-231 24,4 c 27,4 48,2 62,-5 14,-7 23,-21 26,-42 4,-23 0,-41 -10,-53 -10,-11 -30,-19 -58,-24 l -25,-3 -19,123 z"
       inkscape:connector-curvature="0"
       style="fill:#ffffff;fill-rule:nonzero" /><path
       id="3"
       class="fil6"
       d="m 698,8199 151,-451 94,32 c 70,23 119,43 146,60 27,16 48,36 65,58 22,30 35,63 40,99 4,36 -1,74 -14,114 -14,40 -33,73 -58,99 -25,26 -56,44 -91,55 -27,7 -55,10 -86,7 -30,-3 -74,-14 -133,-34 l -21,-7 -93,-32 z m 155,-60 21,7 c 48,16 87,18 115,6 29,-13 51,-41 65,-84 15,-43 14,-78 -1,-106 -15,-27 -47,-49 -95,-65 l -21,-7 -84,249 z"
       inkscape:connector-curvature="0"
       style="fill:#ffffff;fill-rule:nonzero" /><path
       id="4"
       class="fil6"
       d="m 1179,8371 225,-421 119,64 c 47,25 79,45 95,59 16,14 28,30 36,47 9,20 13,41 12,63 -2,22 -8,44 -20,65 -17,33 -39,55 -66,67 -27,12 -58,13 -92,3 l 24,231 -129,-69 -9,-217 -88,165 -107,-57 z m 226,-165 21,12 c 25,13 45,18 61,16 16,-2 29,-13 38,-31 12,-21 14,-38 9,-53 -6,-15 -22,-29 -47,-42 l -23,-12 -59,110 z"
       inkscape:connector-curvature="0"
       style="fill:#ffffff;fill-rule:nonzero" /><polygon
       id="5"
       class="fil6"
       points="1663,8655 1555,8580 1825,8188 1933,8262 "
       style="fill:#ffffff;fill-rule:nonzero" /><path
       id="6"
       class="fil6"
       d="m 1854,8802 157,-493 105,89 -100,265 c -1,3 -4,9 -9,19 -5,10 -12,24 -20,40 12,-8 23,-16 33,-23 9,-7 16,-12 21,-15 l 244,-141 106,89 -461,234 -76,-64 z"
       inkscape:connector-curvature="0"
       style="fill:#ffffff;fill-rule:nonzero" /><polygon
       id="7"
       class="fil6"
       points="2572,9006 2462,8882 2400,8937 2503,9054 2427,9121 2324,9005 2264,9058 2373,9182 2293,9253 2099,9034 2457,8718 2650,8937 "
       style="fill:#ffffff;fill-rule:nonzero" /><path
       id="8"
       class="fil6"
       d="m 2340,9325 398,-263 75,114 c 29,44 47,76 55,97 7,20 10,39 9,58 -1,22 -8,42 -20,61 -11,19 -27,35 -48,48 -31,20 -61,29 -90,27 -29,-2 -57,-16 -82,-41 l -89,214 -81,-122 96,-194 -156,103 -67,-102 z m 277,-37 13,20 c 15,24 31,38 46,43 15,6 31,3 48,-8 20,-13 31,-28 33,-43 2,-16 -5,-36 -21,-59 l -14,-22 -105,69 z"
       inkscape:connector-curvature="0"
       style="fill:#ffffff;fill-rule:nonzero" /><path
       id="9"
       class="fil6"
       d="m 2714,9643 c -12,27 -19,51 -21,73 -2,21 1,40 9,57 7,16 17,27 30,33 13,6 26,7 39,1 15,-7 24,-16 28,-28 3,-13 2,-36 -3,-71 -8,-47 -7,-84 3,-110 11,-26 32,-46 64,-61 41,-19 81,-20 120,-5 39,16 69,46 89,90 11,24 18,48 21,73 3,24 3,49 -2,74 l -101,1 c 5,-18 7,-36 7,-53 -1,-16 -4,-32 -11,-45 -6,-14 -15,-24 -25,-30 -11,-6 -22,-6 -33,-2 -11,5 -18,13 -20,24 -3,11 -3,28 1,53 l 1,6 c 9,54 9,93 1,115 -6,15 -16,29 -28,41 -12,12 -28,22 -46,30 -46,21 -90,23 -131,5 -42,-17 -74,-51 -97,-101 -14,-30 -21,-60 -22,-90 -1,-29 4,-60 15,-93 l 112,13 z"
       inkscape:connector-curvature="0"
       style="fill:#ffffff;fill-rule:nonzero" /><path
       class="fil6"
       d="m -3104,11276 c 3,-1 11,-3 25,-4 12,-2 21,-3 29,-5 -9,-1 -18,-3 -27,-6 -9,-3 -19,-7 -28,-11 l -213,-100 214,-108 c 9,-4 17,-8 25,-11 9,-4 17,-7 25,-9 -8,0 -17,-1 -26,-2 -9,-1 -19,-2 -29,-5 l -196,-39 -1,-59 415,87 -248,121 c -4,2 -11,5 -20,9 -9,3 -21,8 -34,14 11,3 26,9 44,17 4,2 8,3 11,4 l 252,111 -413,103 -1,-60 196,-47 z m -166,207 391,-66 37,218 -54,9 -26,-155 -98,17 26,155 -56,9 -26,-155 -127,22 27,155 -57,9 -37,-218 z m 303,338 4,11 c 9,33 19,53 30,62 11,8 26,10 45,4 21,-6 34,-16 40,-30 5,-14 3,-37 -6,-68 l -3,-11 -110,32 z m -49,10 -171,49 -16,-58 381,-111 25,87 c 7,25 11,45 12,60 1,15 -1,29 -6,41 -6,14 -15,27 -28,38 -12,10 -27,18 -45,23 -30,9 -56,9 -78,-1 -21,-10 -38,-29 -50,-57 l -135,182 -21,-70 134,-176 -2,-7 z m 321,505 c 7,-23 9,-46 8,-68 -1,-21 -6,-42 -16,-63 -18,-39 -45,-66 -81,-79 -37,-13 -75,-11 -116,7 -39,18 -66,44 -80,80 -15,36 -13,72 3,109 10,21 23,40 39,56 17,15 36,29 60,40 l -67,30 c -18,-11 -35,-24 -49,-40 -14,-16 -26,-35 -35,-57 -13,-28 -20,-55 -21,-83 -2,-28 2,-54 12,-80 9,-25 23,-48 42,-68 20,-20 43,-36 69,-48 27,-12 54,-19 81,-20 28,-1 55,4 80,14 26,9 49,24 69,43 19,19 35,42 47,69 10,21 16,43 19,65 2,22 1,45 -3,69 l -61,24 z m -211,238 346,-195 109,193 -48,27 -77,-137 -87,49 77,137 -49,27 -77,-137 -112,63 77,137 -50,29 -109,-193 z m 175,299 325,-255 -36,349 c -1,9 -2,19 -4,30 -2,10 -4,21 -7,33 l 217,-169 36,46 -325,255 36,-355 c 1,-10 3,-19 5,-29 2,-10 4,-19 7,-29 l -218,171 -36,-47 z m 480,331 80,76 33,-94 c 2,-6 5,-12 8,-19 3,-8 7,-15 12,-24 -8,5 -15,9 -22,13 -7,4 -13,7 -20,10 l -91,38 z m 22,236 38,-105 -115,-108 -103,42 -50,-46 424,-168 -144,432 -50,-47 z m 307,-36 10,7 c 26,22 47,32 61,33 13,1 26,-7 39,-23 13,-17 18,-33 14,-47 -4,-15 -19,-32 -44,-52 l -9,-7 -71,89 z m -34,37 -109,140 -48,-37 245,-313 71,56 c 21,16 36,30 45,42 9,11 16,23 19,36 4,15 3,31 -1,47 -4,16 -11,31 -22,45 -20,25 -41,40 -65,45 -23,5 -47,-1 -73,-17 l -4,227 -57,-45 5,-221 -6,-5 z m 198,357 97,-153 2,-254 57,36 -1,159 c 0,4 -1,9 -1,15 -1,7 -1,13 -2,20 5,-4 11,-7 16,-10 6,-4 11,-6 16,-9 l 143,-67 55,34 -231,110 -97,153 -54,-34 z m 452,241 142,-371 60,24 -52,136 182,71 53,-137 60,23 -143,371 -60,-23 69,-180 -182,-71 -69,180 -60,-23 z m 555,21 108,25 -19,-98 c -1,-6 -2,-13 -3,-21 -1,-8 -1,-16 -2,-26 -4,8 -8,15 -12,22 -4,7 -8,13 -12,19 l -60,79 z m 140,192 -21,-110 -154,-35 -68,90 -66,-15 279,-360 96,445 -66,-15 z m 484,-248 c -17,-17 -35,-30 -55,-39 -19,-10 -40,-15 -63,-17 -43,-3 -79,8 -109,34 -29,26 -45,60 -48,105 -4,42 7,79 31,108 24,30 57,47 97,50 23,1 46,-1 68,-8 22,-7 43,-17 64,-33 l -6,73 c -18,11 -38,19 -59,24 -20,4 -43,6 -66,4 -31,-3 -58,-10 -83,-21 -25,-12 -47,-29 -65,-49 -18,-21 -31,-44 -39,-71 -9,-26 -12,-54 -9,-83 2,-29 9,-56 21,-81 13,-24 29,-46 50,-63 22,-18 45,-31 71,-40 27,-8 54,-11 84,-8 23,1 45,7 66,15 20,8 40,20 59,35 l -9,65 z m 108,301 -6,-397 64,-1 3,164 140,-166 79,-2 -155,179 180,218 -83,2 -161,-201 3,203 -64,1 z m 394,-20 -54,-394 220,-30 8,55 -156,21 13,98 156,-21 8,56 -156,22 17,127 156,-22 8,58 -220,30 z m 353,-293 11,-3 c 34,-7 55,-16 64,-27 9,-10 11,-25 7,-45 -5,-21 -14,-35 -28,-41 -14,-6 -37,-5 -68,2 l -12,3 26,111 z m 7,49 40,174 -59,13 -89,-387 88,-20 c 25,-6 46,-9 61,-9 15,0 28,3 40,8 14,7 26,17 36,30 10,14 17,29 21,47 7,31 5,57 -6,78 -11,21 -30,36 -59,47 l 174,145 -71,16 -169,-143 -7,1 z m 280,30 39,-42 c 11,15 25,24 40,28 16,4 33,2 52,-6 18,-7 30,-17 36,-31 7,-15 7,-30 0,-46 -8,-22 -34,-34 -77,-37 -6,0 -11,-1 -14,-1 -48,-3 -83,-10 -102,-21 -20,-11 -35,-28 -44,-51 -12,-30 -12,-58 1,-85 13,-27 36,-47 69,-60 28,-11 52,-15 75,-12 22,3 41,13 56,30 l -37,43 c -12,-8 -24,-14 -35,-16 -11,-1 -22,0 -33,5 -16,6 -28,15 -34,28 -6,12 -6,25 -1,39 9,22 39,34 88,37 4,0 7,0 9,0 43,3 75,9 95,20 20,10 34,28 44,52 14,35 14,67 0,96 -14,29 -39,52 -77,67 -31,12 -60,15 -86,9 -25,-7 -47,-22 -64,-46 z"
       id="path4281"
       inkscape:connector-curvature="0"
       style="fill:#ffffff;fill-rule:nonzero" /></g></svg>