<?xml version="1.0" encoding="UTF-8" standalone="no"?>
<!-- Creator: CorelDRAW X7 -->

<svg
   xmlns:dc="http://purl.org/dc/elements/1.1/"
   xmlns:cc="http://creativecommons.org/ns#"
   xmlns:rdf="http://www.w3.org/1999/02/22-rdf-syntax-ns#"
   xmlns:svg="http://www.w3.org/2000/svg"
   xmlns="http://www.w3.org/2000/svg"
   xmlns:sodipodi="http://sodipodi.sourceforge.net/DTD/sodipodi-0.dtd"
   xmlns:inkscape="http://www.inkscape.org/namespaces/inkscape"
   xml:space="preserve"
   width="7.8740005in"
   height="7.8740005in"
   version="1.1"
   style="clip-rule:evenodd;fill-rule:evenodd;image-rendering:optimizeQuality;shape-rendering:geometricPrecision;text-rendering:geometricPrecision"
   viewBox="0 0 7874.0005 7874.0005"
   id="svg3465"
   inkscape:version="0.91 r13725"
   sodipodi:docname="Mercs - Cordelia Turner - [N3] [Vyo].svg"><metadata
     id="metadata3489"><rdf:RDF><cc:Work
         rdf:about=""><dc:format>image/svg+xml</dc:format><dc:type
           rdf:resource="http://purl.org/dc/dcmitype/StillImage" /></cc:Work></rdf:RDF></metadata><sodipodi:namedview
     pagecolor="#ffffff"
     bordercolor="#666666"
     borderopacity="1"
     objecttolerance="10"
     gridtolerance="10"
     guidetolerance="10"
     inkscape:pageopacity="0"
     inkscape:pageshadow="2"
     inkscape:window-width="640"
     inkscape:window-height="480"
     id="namedview3487"
     showgrid="false"
     inkscape:zoom="0.23838384"
     inkscape:cx="736.83001"
     inkscape:cy="849.33005"
     inkscape:window-x="0"
     inkscape:window-y="0"
     inkscape:window-maximized="0"
     inkscape:current-layer="svg3465" /><defs
     id="defs3467"><style
       type="text/css"
       id="style3469"><![CDATA[
    .fil3 {fill:black}
    .fil0 {fill:#4D4D4D}
    .fil2 {fill:#651762}
    .fil1 {fill:white}
    .fil4 {fill:black;fill-rule:nonzero}
   ]]></style></defs><g
     id="Layer_x0020_1"
     transform="translate(3937,-7063)"><metadata
       id="CorelCorpID_0Corel-Layer" /><circle
       class="fil0"
       cy="11000"
       r="3937"
       id="circle3473"
       cx="0"
       style="fill:#4d4d4d" /><circle
       class="fil1"
       cy="11000"
       r="3858"
       id="circle3475"
       cx="0"
       style="fill:#ffffff" /><path
       class="fil2"
       d="m 0,7732 c 1805,0 3268,1463 3268,3268 0,1805 -1463,3268 -3268,3268 -1805,0 -3268,-1463 -3268,-3268 0,-1805 1463,-3268 3268,-3268 z m -1361,1688 326,227 -105,82 c -77,59 -146,126 -208,201 -25,30 -48,61 -70,94 l -56,82 -297,-207 c -28,24 -57,45 -88,63 -106,61 -231,90 -353,71 -117,-18 -222,-80 -282,-184 -60,-104 -62,-226 -18,-337 44,-114 132,-208 238,-269 25,-15 52,-28 79,-38 l 0,-9 c -19,-198 63,-414 261,-487 33,-12 67,-19 101,-21 228,-14 415,172 488,373 40,110 21,243 -16,359 z m 2638,-158 c -16,-33 -28,-67 -37,-101 -32,-118 -28,-247 22,-359 47,-109 134,-195 251,-226 115,-31 234,0 330,70 98,73 166,182 198,300 8,28 13,57 16,87 l 9,1 c 196,33 384,168 403,379 3,34 1,69 -6,103 -45,223 -273,356 -486,375 -128,11 -263,-15 -372,-84 l -210,177 -64,-74 c -89,-104 -194,-192 -310,-264 l -115,-71 371,-313 z m 489,2339 c 27,-24 57,-44 88,-63 106,-60 231,-90 352,-71 118,18 223,80 283,184 60,104 61,227 18,337 -44,114 -132,208 -238,269 -25,15 -52,28 -80,38 l 1,9 c 19,198 -63,415 -261,487 -33,12 -67,19 -101,21 -228,14 -415,-172 -488,-372 -44,-121 -54,-258 -15,-381 l -542,-378 196,-58 c 142,-42 284,-111 399,-205 l 57,-48 331,231 z m -3048,637 c 15,33 28,67 37,102 32,117 27,246 -22,358 -47,109 -135,195 -251,226 -115,31 -234,0 -330,-70 -99,-73 -167,-182 -198,-300 -8,-28 -13,-57 -17,-87 l -8,-1 c -196,-33 -384,-168 -403,-379 -3,-34 -1,-69 6,-103 45,-223 273,-356 486,-375 117,-10 241,43 343,109 l 309,-260 60,37 c 7,4 15,9 22,13 123,72 267,122 408,147 l 206,37 -648,546 z"
       id="path3477"
       inkscape:connector-curvature="0"
       style="fill:#651762" /><path
       class="fil0"
       d="m 0,7535 1057,1912 -151,128 115,71 c 116,72 221,160 310,264 l 64,74 210,-177 c 109,69 244,95 372,84 126,-11 257,-62 352,-148 l 966,186 -1535,1643 3,27 -328,-229 -57,48 c -115,94 -257,163 -399,205 l -196,58 542,378 c -39,123 -29,260 15,381 73,200 260,386 488,372 28,-2 56,-7 84,-15 l 124,1006 -2036,-953 -2036,953 124,-1005 c 20,20 41,39 64,56 96,70 215,101 330,70 116,-31 204,-117 251,-226 49,-112 54,-241 22,-358 -9,-35 -22,-69 -37,-102 l 648,-546 -206,-37 c -141,-25 -285,-75 -408,-147 -7,-4 -15,-9 -22,-13 l -60,-37 -309,260 c -41,-27 -85,-51 -130,-70 l 9,-76 -1535,-1643 770,-148 c 8,23 18,46 31,68 60,104 165,166 282,184 122,19 247,-10 353,-71 31,-18 60,-39 88,-63 l 297,207 56,-82 c 22,-33 45,-64 70,-94 62,-75 131,-142 208,-201 l 105,-82 -173,-121 120,-23 L 0,7535 Z"
       id="path3479"
       inkscape:connector-curvature="0"
       style="fill:#4d4d4d" /><path
       class="fil1"
       d="m 0,7698 -1037,1875 -81,16 -243,-169 c 37,-116 56,-249 16,-359 -73,-201 -260,-387 -488,-373 -34,2 -68,9 -101,21 -198,73 -280,289 -261,487 l 0,9 c -27,10 -54,23 -79,38 -106,61 -194,155 -238,269 -44,111 -42,233 18,337 1,2 2,4 3,5 l -649,126 1463,1565 -17,140 c -90,-50 -191,-84 -288,-76 -213,19 -441,152 -486,375 -7,34 -9,69 -6,103 19,211 207,346 403,379 l 8,1 c 4,30 9,59 17,87 31,118 99,227 198,300 3,2 5,4 8,6 l -101,811 1941,-908 1941,908 -107,-859 c 32,-3 64,-10 95,-21 198,-72 280,-289 261,-487 l -1,-9 c 28,-10 55,-23 80,-38 106,-61 194,-155 238,-269 43,-110 42,-233 -18,-337 -60,-104 -165,-166 -283,-184 -121,-19 -246,11 -352,71 -31,19 -61,39 -88,63 l -86,-60 1460,-1561 -898,-174 c 109,-64 195,-162 221,-290 7,-34 9,-69 6,-103 -19,-211 -207,-346 -403,-379 l -9,-1 c -3,-30 -8,-59 -16,-87 -32,-118 -100,-227 -198,-300 -96,-70 -215,-101 -330,-70 -117,31 -204,117 -251,226 -50,112 -54,241 -22,359 9,34 21,68 37,101 L 996,9499 0,7698 Z"
       id="path3481"
       inkscape:connector-curvature="0"
       style="fill:#ffffff" /><path
       class="fil3"
       d="m 0,12654 c -354,0 -709,-197 -787,-355 l 236,-630 c -394,40 -1103,-197 -1103,-826 0,-906 670,-1457 1654,-1457 984,0 1654,551 1654,1457 0,629 -709,866 -1103,826 l 236,630 c -78,158 -433,355 -787,355 z m 787,-2560 c -157,0 -551,119 -551,749 0,260 40,433 315,433 433,0 827,-473 827,-827 0,-276 -418,-355 -591,-355 z M 0,11197 c 39,0 157,141 157,236 0,59 -98,79 -157,79 -59,0 -157,-20 -157,-79 0,-95 118,-236 157,-236 z m -787,-1103 c 157,0 551,119 551,749 0,260 -40,433 -315,433 -433,0 -827,-473 -827,-827 0,-276 418,-355 591,-355 z"
       id="path3483"
       inkscape:connector-curvature="0"
       style="fill:#000000" /><path
       class="fil4"
       d="m -1479,9457 278,194 c -80,63 -155,135 -223,216 -27,33 -52,67 -76,101 l -282,-197 0,0 c -34,41 -77,77 -127,105 -94,55 -197,74 -288,60 -91,-14 -168,-60 -212,-136 l 0,0 c -44,-76 -45,-166 -12,-252 34,-85 101,-165 196,-220 94,-54 198,-73 288,-59 28,4 54,11 79,22 -30,-81 -130,-115 -239,-104 -17,-176 58,-335 197,-385 174,-63 381,67 462,292 39,105 5,250 -41,363 z m 2552,105 330,-278 c -30,-43 -53,-93 -68,-149 -29,-105 -20,-210 17,-294 37,-84 102,-147 186,-170 l 0,0 c 84,-22 172,0 246,54 74,55 134,141 162,246 28,106 20,210 -17,294 -11,26 -25,49 -42,71 86,-9 145,-96 162,-205 175,30 309,144 321,291 17,184 -164,350 -402,371 -146,12 -281,-33 -366,-112 l -196,165 c -98,-114 -210,-207 -333,-284 z m 367,1932 337,235 0,0 c 34,-40 76,-76 126,-105 95,-55 198,-74 289,-60 90,14 168,60 212,136 l 0,0 c 44,76 45,167 12,252 -34,85 -102,165 -196,220 -94,54 -198,73 -288,59 -28,-4 -55,-11 -79,-21 30,80 129,114 239,103 17,176 -59,335 -197,385 -174,64 -381,-67 -463,-292 -50,-138 -41,-280 13,-383 l -438,-306 c 159,-47 312,-124 433,-223 z m -2298,258 -551,464 0,0 c 30,43 54,93 69,149 28,105 20,210 -17,294 -37,84 -102,147 -186,170 l 0,0 c -85,22 -173,0 -246,-54 -74,-55 -134,-141 -162,-246 -28,-105 -20,-210 17,-294 11,-26 25,-49 41,-71 -85,9 -144,96 -161,205 -175,-30 -309,-144 -322,-290 -16,-184 164,-351 403,-371 111,-10 242,59 339,134 l 312,-263 c 8,5 16,9 24,14 128,75 283,131 440,159 z"
       id="path3485"
       inkscape:connector-curvature="0"
       style="fill:#000000;fill-rule:nonzero" /></g></svg>