<?xml version="1.0" encoding="UTF-8" standalone="no"?>
<!-- Creator: CorelDRAW X7 -->

<svg
   xmlns:dc="http://purl.org/dc/elements/1.1/"
   xmlns:cc="http://creativecommons.org/ns#"
   xmlns:rdf="http://www.w3.org/1999/02/22-rdf-syntax-ns#"
   xmlns:svg="http://www.w3.org/2000/svg"
   xmlns="http://www.w3.org/2000/svg"
   xmlns:sodipodi="http://sodipodi.sourceforge.net/DTD/sodipodi-0.dtd"
   xmlns:inkscape="http://www.inkscape.org/namespaces/inkscape"
   xml:space="preserve"
   width="7.8740005in"
   height="7.8740005in"
   version="1.1"
   style="clip-rule:evenodd;fill-rule:evenodd;image-rendering:optimizeQuality;shape-rendering:geometricPrecision;text-rendering:geometricPrecision"
   viewBox="0 0 7874.0005 7874.0005"
   id="svg3569"
   inkscape:version="0.91 r13725"
   sodipodi:docname="Mercs - Kaplan Tactical Services - [N3] [Vyo].svg"><metadata
     id="metadata3587"><rdf:RDF><cc:Work
         rdf:about=""><dc:format>image/svg+xml</dc:format><dc:type
           rdf:resource="http://purl.org/dc/dcmitype/StillImage" /></cc:Work></rdf:RDF></metadata><sodipodi:namedview
     pagecolor="#ffffff"
     bordercolor="#666666"
     borderopacity="1"
     objecttolerance="10"
     gridtolerance="10"
     guidetolerance="10"
     inkscape:pageopacity="0"
     inkscape:pageshadow="2"
     inkscape:window-width="640"
     inkscape:window-height="480"
     id="namedview3585"
     showgrid="false"
     inkscape:zoom="0.23838384"
     inkscape:cx="736.83001"
     inkscape:cy="849.33005"
     inkscape:window-x="0"
     inkscape:window-y="0"
     inkscape:window-maximized="0"
     inkscape:current-layer="svg3569" /><defs
     id="defs3571"><style
       type="text/css"
       id="style3573"><![CDATA[
    .fil2 {fill:none}
    .fil1 {fill:#431E18}
    .fil0 {fill:white}
    .fil3 {fill:white;fill-rule:nonzero}
   ]]></style></defs><g
     id="Layer_x0020_1"
     transform="translate(3937,-7063)"><metadata
       id="CorelCorpID_0Corel-Layer" /><circle
       class="fil0"
       cy="11000"
       r="3937"
       id="circle3577"
       cx="0"
       style="fill:#ffffff" /><path
       class="fil1"
       d="m 3740,11015 c -337,-59 -822,-66 -1260,162 49,-170 276,-610 473,-728 -177,20 -591,157 -1004,413 256,-393 1220,-748 1653,-649 -275,118 -531,315 -571,452 156,-56 455,-103 684,-102 16,143 25,289 25,437 0,5 0,10 0,15 z M 3584,9930 c -490,-66 -1401,-31 -2423,145 276,-492 1044,-1162 1890,-1063 -512,-158 -1358,-197 -2126,98 118,-177 315,-393 571,-453 -1634,217 -2677,965 -3051,1654 -158,-39 -374,20 -374,79 0,50 79,39 79,118 -355,354 -1044,1358 -867,1732 -78,138 -137,394 -137,512 0,98 177,217 236,217 138,0 315,-552 275,-788 217,-98 335,-295 394,-453 0,237 -138,453 -275,552 19,511 -256,649 -256,787 0,118 315,256 472,256 -98,-79 -236,-276 -177,-354 33,-45 373,-77 728,196 256,197 237,335 158,433 -62,77 -109,99 -177,99 -99,0 -296,-99 -414,-236 20,295 276,433 532,433 59,0 118,59 354,59 59,0 94,-40 101,-100 49,-378 175,-733 361,-1047 41,-69 11,-152 -53,-153 -99,0 -744,-39 -744,-255 0,-79 99,-118 99,-178 0,-59 -374,-413 -217,-1181 -98,197 -157,502 -157,709 0,315 98,394 98,453 0,79 -98,98 -98,256 0,157 334,275 531,275 79,0 138,276 237,394 -158,-118 -217,-295 -335,-295 -79,0 -748,-59 -748,-315 0,-186 216,-236 216,-296 0,-39 -78,-196 -78,-472 0,-571 334,-1142 551,-1358 -79,197 -99,413 0,590 77,140 118,276 118,335 0,79 -39,157 0,157 39,0 59,-39 79,-118 295,79 846,276 846,571 0,207 -113,346 -134,574 92,-116 193,-224 302,-324 -91,148 -188,363 -188,597 0,689 611,1259 1044,1456 -118,-118 -256,-334 -335,-551 348,70 818,385 1113,702 -486,231 -1030,361 -1605,361 -2066,0 -3740,-1674 -3740,-3740 0,-2066 1674,-3740 3740,-3740 1694,0 3124,1126 3584,2670 z m -847,3619 c -144,-597 -860,-890 -1753,-797 -19,-591 355,-689 355,-846 0,-207 -502,-202 -837,-112 394,-217 847,-341 1329,-341 257,0 506,35 743,101 -487,37 -668,318 -704,568 381,-104 1190,-177 1701,-5 -169,540 -458,1028 -834,1432 z M 1319,10390 c -236,39 -473,197 -630,393 -158,-78 -532,-177 -728,-177 39,-413 334,-787 531,-886 -160,-12 -394,20 -590,138 157,-275 748,-452 1082,-374 -177,99 -590,551 -630,945 296,-98 748,-79 965,-39 z"
       id="path3579"
       inkscape:connector-curvature="0"
       style="fill:#431e18" /><circle
       class="fil2"
       cy="11000"
       r="3701"
       id="circle3581"
       cx="0"
       style="fill:none" /><path
       class="fil3"
       d="m -3195,11861 -19,-83 -105,25 -8,-37 78,-143 -27,-117 -103,195 -168,-114 26,112 125,81 9,38 -101,24 19,82 274,-63 z m -82,-360 -7,-94 -52,-21 -13,-171 48,-30 -7,-94 -270,173 9,109 292,128 z m -231,-187 101,-63 8,108 -109,-45 z m 201,-253 2,-85 -71,-1 3,-168 c 1,-14 -2,-27 -7,-37 -5,-10 -11,-18 -20,-25 -9,-6 -18,-10 -29,-13 -10,-3 -21,-5 -32,-5 l -24,0 c -15,0 -28,1 -40,4 -12,2 -22,7 -30,15 -9,7 -16,17 -21,30 -5,13 -7,29 -8,49 l -4,230 281,6 z m -210,-89 3,-124 c 0,-13 3,-21 8,-27 5,-5 13,-7 22,-7 l 11,0 c 9,0 17,2 22,7 5,5 8,12 8,21 l -3,131 -71,-1 z m 224,-287 36,-273 -71,-9 -25,188 -208,-27 -11,84 279,37 z m 37,-281 21,-93 -43,-35 38,-167 55,-15 21,-91 -308,85 -25,107 241,209 z m -165,-248 115,-30 -24,106 -91,-76 z m 272,-181 30,-79 -190,-74 0,0 248,-75 48,-122 -263,-102 -31,79 191,74 0,1 -248,74 -48,122 263,102 z m 58,-654 59,-103 183,105 42,-74 -183,-105 59,-103 -61,-35 -160,280 61,35 z m 331,-162 59,-74 -24,-51 107,-134 56,11 58,-74 -314,-57 -69,86 127,293 z m -42,-295 117,23 -67,85 -50,-108 z m 243,-113 c 14,14 28,23 42,29 13,5 26,6 39,4 12,-2 24,-8 37,-16 12,-9 25,-20 39,-35 l 94,-99 c 14,-15 24,-29 31,-42 6,-12 9,-24 8,-34 0,-11 -3,-21 -8,-30 -6,-8 -13,-17 -22,-26 l -20,-18 -58,61 c 7,6 11,11 14,16 2,5 3,10 3,14 -1,4 -3,9 -7,14 -3,5 -9,11 -16,19 l -62,65 c -13,14 -25,21 -35,20 -11,-1 -24,-9 -39,-24 l -22,-20 c -14,-14 -22,-26 -24,-38 -1,-11 5,-25 19,-40 l 64,-67 c 9,-9 17,-15 25,-17 7,-2 14,0 21,7 l 6,5 58,-61 c -16,-15 -30,-26 -41,-33 -12,-6 -24,-9 -36,-8 -12,1 -26,7 -40,18 -15,10 -33,26 -53,48 l -69,72 c -14,15 -25,28 -32,41 -8,13 -13,25 -15,38 -1,12 1,25 7,39 6,13 16,26 31,40 l 61,58 z m 211,-381 94,-73 131,166 66,-52 -130,-167 93,-73 -43,-55 -254,199 43,55 z m 419,-56 69,-48 -162,-231 -69,49 162,230 z m 64,-171 c 10,18 20,31 32,40 11,9 23,14 35,15 13,2 27,0 41,-4 14,-5 30,-12 48,-22 l 118,-68 c 18,-10 32,-20 42,-30 9,-11 15,-21 18,-31 3,-10 3,-20 0,-30 -2,-11 -7,-21 -13,-32 l -13,-23 -74,41 c 5,8 7,14 9,20 1,5 0,10 -2,14 -2,4 -5,8 -10,11 -5,4 -12,8 -21,14 l -78,44 c -17,10 -30,12 -40,9 -9,-4 -20,-16 -30,-34 l -15,-26 c -10,-17 -13,-31 -12,-43 2,-11 12,-22 30,-33 l 80,-45 c 12,-7 21,-10 29,-10 8,0 14,5 19,13 l 4,7 73,-42 c -11,-19 -21,-33 -30,-43 -9,-10 -20,-16 -32,-18 -12,-2 -26,-1 -43,5 -18,6 -39,16 -65,30 l -86,50 c -18,10 -33,19 -44,29 -11,10 -19,21 -24,32 -6,12 -7,25 -6,39 2,15 8,31 18,48 l 42,73 z m 382,-103 87,-39 2,-56 156,-70 44,34 86,-38 -254,-195 -100,46 -21,318 z m 98,-281 93,74 -99,44 6,-118 z m 309,109 264,-76 -20,-70 -183,53 -58,-201 -81,23 78,271 z m 468,-197 c 2,16 6,28 11,37 6,9 13,16 22,20 9,5 21,7 34,8 14,0 30,-1 50,-4 l 102,-13 c 29,-4 52,-8 69,-13 17,-4 30,-10 39,-17 9,-8 14,-17 17,-29 2,-12 2,-27 0,-47 -3,-20 -8,-36 -14,-47 -6,-11 -15,-19 -27,-23 -12,-5 -28,-6 -48,-6 -20,1 -48,4 -84,9 -24,3 -42,5 -55,6 -13,1 -23,2 -30,1 -7,-1 -11,-3 -13,-6 -3,-3 -4,-7 -5,-13 -1,-7 1,-13 6,-17 5,-4 13,-7 23,-9 l 92,-12 c 19,-2 30,-2 35,1 5,4 9,11 10,22 l 84,-11 -1,-9 c -2,-13 -5,-25 -8,-34 -4,-10 -10,-17 -17,-24 -8,-6 -20,-10 -34,-12 -15,-2 -35,-1 -58,2 l -117,16 c -25,3 -45,8 -60,14 -15,7 -25,14 -31,23 -6,9 -9,18 -10,28 0,11 1,23 3,39 2,18 6,32 10,42 5,10 12,18 22,22 10,5 24,8 43,8 18,0 44,-3 76,-7 31,-4 53,-7 67,-8 15,-1 26,-2 33,-1 8,0 13,2 16,5 3,3 5,8 6,14 1,10 -1,17 -7,21 -6,3 -15,6 -26,7 l -103,14 c -14,2 -23,1 -29,-2 -5,-3 -9,-11 -11,-25 l -84,11 2,19 z m 407,26 307,-6 -1,-68 -222,5 -1,-46 205,-4 -1,-58 -205,4 -1,-45 217,-4 -1,-65 -302,5 5,282 z m 458,-206 132,10 c 15,1 24,3 30,8 5,4 8,12 7,24 l -1,9 c -1,11 -4,18 -9,22 -5,4 -13,6 -24,5 l -140,-10 5,-68 z m -100,204 84,6 6,-72 133,10 c 13,1 22,4 26,10 5,6 6,17 5,31 l -2,34 84,7 4,-48 c 0,-11 0,-21 -2,-29 -1,-7 -4,-14 -8,-18 -4,-5 -8,-9 -13,-12 -6,-2 -12,-5 -19,-7 l 0,0 c 19,-3 32,-10 40,-20 7,-11 11,-26 13,-46 l 1,-18 c 1,-13 1,-25 -1,-35 -2,-10 -6,-19 -12,-27 -5,-8 -13,-14 -24,-19 -10,-4 -23,-7 -39,-8 l -255,-20 -21,281 z m 512,64 102,24 208,-242 -91,-20 -152,179 -58,-228 -90,-20 81,307 z m 280,70 80,27 90,-267 -80,-27 -90,267 z m 169,-49 c -7,18 -11,35 -11,49 1,15 4,27 11,38 7,11 17,20 29,28 13,8 29,16 48,23 l 127,50 c 19,7 36,11 50,12 14,1 26,-1 35,-5 10,-4 18,-11 24,-19 6,-8 12,-18 16,-31 l 10,-24 -79,-31 c -3,8 -7,15 -10,19 -3,4 -7,7 -12,8 -4,1 -9,1 -15,-1 -6,-1 -14,-4 -23,-7 l -85,-33 c -18,-7 -28,-15 -31,-25 -3,-10 -1,-25 7,-45 l 11,-28 c 7,-18 15,-30 25,-36 10,-6 25,-5 44,2 l 86,34 c 13,4 21,10 26,16 5,6 5,13 2,22 l -3,7 79,31 c 8,-20 13,-37 14,-50 2,-14 0,-26 -6,-37 -6,-10 -16,-21 -31,-30 -16,-10 -37,-20 -65,-31 l -92,-36 c -19,-7 -36,-12 -51,-15 -15,-2 -28,-2 -40,2 -13,3 -24,10 -34,20 -10,11 -18,25 -26,44 l -30,79 z m 345,247 266,152 34,-58 -193,-111 22,-39 179,102 29,-50 -179,-103 23,-39 188,108 33,-56 -262,-150 -140,244 z m 349,115 c -9,13 -15,24 -17,35 -2,10 -2,20 2,29 4,9 11,19 20,28 10,10 23,21 39,32 l 84,59 c 25,17 45,30 60,38 15,8 29,12 40,13 12,0 22,-3 32,-10 10,-7 20,-18 32,-34 12,-17 19,-32 22,-44 3,-12 1,-24 -5,-36 -5,-11 -16,-23 -31,-36 -15,-13 -38,-30 -67,-51 -20,-14 -35,-25 -46,-33 -10,-8 -18,-14 -22,-19 -4,-5 -6,-10 -6,-13 0,-4 2,-8 5,-13 4,-6 10,-9 17,-9 6,1 14,4 22,9 l 77,54 c 15,11 23,19 24,25 2,6 -1,13 -7,23 l 69,48 5,-7 c 8,-12 14,-22 18,-31 3,-10 4,-19 3,-29 -2,-10 -8,-21 -17,-32 -10,-12 -24,-24 -44,-38 l -96,-67 c -21,-15 -39,-25 -54,-30 -15,-5 -28,-7 -38,-4 -11,2 -20,7 -27,14 -7,7 -15,17 -24,30 -11,15 -18,28 -21,38 -4,11 -4,21 1,31 4,10 13,22 26,34 14,13 34,29 61,47 25,18 44,31 55,40 12,9 20,16 25,21 5,6 8,11 8,15 0,4 -2,8 -5,14 -6,8 -12,11 -19,10 -7,-1 -15,-5 -25,-11 l -85,-60 c -11,-8 -17,-15 -20,-21 -2,-6 1,-15 9,-26 l -69,-49 -11,16 z"
       id="path3583"
       inkscape:connector-curvature="0"
       style="fill:#ffffff;fill-rule:nonzero" /></g></svg>