<?xml version="1.0" encoding="UTF-8" standalone="no"?>
<!-- Creator: CorelDRAW X7 -->

<svg
   xmlns:dc="http://purl.org/dc/elements/1.1/"
   xmlns:cc="http://creativecommons.org/ns#"
   xmlns:rdf="http://www.w3.org/1999/02/22-rdf-syntax-ns#"
   xmlns:svg="http://www.w3.org/2000/svg"
   xmlns="http://www.w3.org/2000/svg"
   xmlns:sodipodi="http://sodipodi.sourceforge.net/DTD/sodipodi-0.dtd"
   xmlns:inkscape="http://www.inkscape.org/namespaces/inkscape"
   xml:space="preserve"
   width="7.8740005in"
   height="7.8740005in"
   version="1.1"
   style="clip-rule:evenodd;fill-rule:evenodd;image-rendering:optimizeQuality;shape-rendering:geometricPrecision;text-rendering:geometricPrecision"
   viewBox="0 0 7874.0005 7874.0005"
   id="svg3441"
   inkscape:version="0.91 r13725"
   sodipodi:docname="Mercs - Avicenna, Mercenary Doctor - [N3] [Vyo].svg"><metadata
     id="metadata3463"><rdf:RDF><cc:Work
         rdf:about=""><dc:format>image/svg+xml</dc:format><dc:type
           rdf:resource="http://purl.org/dc/dcmitype/StillImage" /></cc:Work></rdf:RDF></metadata><sodipodi:namedview
     pagecolor="#ffffff"
     bordercolor="#666666"
     borderopacity="1"
     objecttolerance="10"
     gridtolerance="10"
     guidetolerance="10"
     inkscape:pageopacity="0"
     inkscape:pageshadow="2"
     inkscape:window-width="640"
     inkscape:window-height="480"
     id="namedview3461"
     showgrid="false"
     inkscape:zoom="0.23838384"
     inkscape:cx="736.83001"
     inkscape:cy="849.33005"
     inkscape:window-x="0"
     inkscape:window-y="0"
     inkscape:window-maximized="0"
     inkscape:current-layer="svg3441" /><defs
     id="defs3443"><style
       type="text/css"
       id="style3445"><![CDATA[
    .fil1 {fill:#A6CC39}
    .fil0 {fill:#E32527}
   ]]></style></defs><g
     id="Layer_x0020_1"
     transform="translate(3937,-7063)"><metadata
       id="CorelCorpID_0Corel-Layer" /><circle
       class="fil0"
       cy="11000"
       r="3937"
       id="circle3449"
       cx="0"
       style="fill:#e32527" /><circle
       class="fil1"
       cy="11000"
       r="3858"
       id="circle3451"
       cx="0"
       style="fill:#a6cc39" /><path
       class="fil0"
       d="m -3268,9996 c 335,-887 1005,-1493 1544,-1777 740,-390 1645,-607 2590,-233 -905,-591 -2027,-532 -2854,-79 -701,384 -1221,1163 -1280,2089 z"
       id="path3453"
       inkscape:connector-curvature="0"
       style="fill:#e32527" /><path
       class="fil0"
       d="m -3430,11634 c 199,284 410,586 689,852 45,147 100,291 164,431 -428,-374 -739,-837 -853,-1283 z m 1307,1298 c 240,125 521,224 854,283 1843,325 3742,-1259 3981,-2616 77,1832 -1951,3353 -3778,3051 -286,-47 -562,-141 -819,-270 -22,-33 -44,-68 -65,-103 -68,-113 -125,-228 -173,-345 z"
       id="path3455"
       inkscape:connector-curvature="0"
       style="fill:#e32527" /><path
       class="fil0"
       d="m 421,14392 c 932,-175 1645,-730 2018,-1211 513,-661 884,-1515 679,-2511 425,995 172,2090 -418,2825 -499,623 -1356,1000 -2279,897 z"
       id="path3457"
       inkscape:connector-curvature="0"
       style="fill:#e32527" /><path
       class="fil0"
       d="m -1220,14268 c -552,-552 -1181,-1182 -1181,-2403 0,-1871 1889,-3466 3267,-3466 -1791,-394 -3641,1339 -3661,3190 -13,1166 748,2305 1575,2679 z"
       id="path3459"
       inkscape:connector-curvature="0"
       style="fill:#e32527" /></g></svg>