<?xml version="1.0" encoding="UTF-8" standalone="no"?>
<!-- Creator: CorelDRAW X7 -->

<svg
   xmlns:dc="http://purl.org/dc/elements/1.1/"
   xmlns:cc="http://creativecommons.org/ns#"
   xmlns:rdf="http://www.w3.org/1999/02/22-rdf-syntax-ns#"
   xmlns:svg="http://www.w3.org/2000/svg"
   xmlns="http://www.w3.org/2000/svg"
   xmlns:sodipodi="http://sodipodi.sourceforge.net/DTD/sodipodi-0.dtd"
   xmlns:inkscape="http://www.inkscape.org/namespaces/inkscape"
   xml:space="preserve"
   width="7.8740005in"
   height="7.8740005in"
   version="1.1"
   style="clip-rule:evenodd;fill-rule:evenodd;image-rendering:optimizeQuality;shape-rendering:geometricPrecision;text-rendering:geometricPrecision"
   viewBox="0 0 7874.0005 7874.0005"
   id="svg3655"
   inkscape:version="0.91 r13725"
   sodipodi:docname="Mercs - Saito Togan - [N3] [Vyo].svg"><metadata
     id="metadata3671"><rdf:RDF><cc:Work
         rdf:about=""><dc:format>image/svg+xml</dc:format><dc:type
           rdf:resource="http://purl.org/dc/dcmitype/StillImage" /></cc:Work></rdf:RDF></metadata><sodipodi:namedview
     pagecolor="#ffffff"
     bordercolor="#666666"
     borderopacity="1"
     objecttolerance="10"
     gridtolerance="10"
     guidetolerance="10"
     inkscape:pageopacity="0"
     inkscape:pageshadow="2"
     inkscape:window-width="640"
     inkscape:window-height="480"
     id="namedview3669"
     showgrid="false"
     inkscape:zoom="0.23838384"
     inkscape:cx="736.83001"
     inkscape:cy="849.33005"
     inkscape:window-x="0"
     inkscape:window-y="0"
     inkscape:window-maximized="0"
     inkscape:current-layer="svg3655" /><defs
     id="defs3657"><style
       type="text/css"
       id="style3659"><![CDATA[
    .str0 {stroke:black;stroke-width:3}
    .fil1 {fill:black}
    .fil0 {fill:white}
   ]]></style></defs><g
     id="Layer_x0020_1"
     transform="translate(3937,-7063)"><metadata
       id="CorelCorpID_0Corel-Layer" /><circle
       class="fil0"
       cy="11000"
       r="3937"
       id="circle3663"
       cx="0"
       style="fill:#ffffff" /><circle
       class="fil1"
       cy="11000"
       r="3504"
       id="circle3665"
       cx="0"
       style="fill:#000000" /><path
       class="fil0 str0"
       d="m -669,9701 1338,0 c 347,0 630,283 630,630 l 0,1338 c 0,347 -283,630 -630,630 l -1338,0 c -347,0 -630,-283 -630,-630 l 0,-1338 c 0,-347 283,-630 630,-630 z m 118,433 1102,0 c 173,0 315,142 315,315 l 0,1102 c 0,173 -142,315 -315,315 l -1102,0 c -173,0 -315,-142 -315,-315 l 0,-1102 c 0,-173 142,-315 315,-315 z"
       id="path3667"
       inkscape:connector-curvature="0"
       style="fill:#ffffff;stroke:#000000;stroke-width:3" /></g></svg>