<?xml version="1.0" encoding="UTF-8" standalone="no"?>
<!-- Creator: CorelDRAW X7 -->

<svg
   xmlns:dc="http://purl.org/dc/elements/1.1/"
   xmlns:cc="http://creativecommons.org/ns#"
   xmlns:rdf="http://www.w3.org/1999/02/22-rdf-syntax-ns#"
   xmlns:svg="http://www.w3.org/2000/svg"
   xmlns="http://www.w3.org/2000/svg"
   xmlns:sodipodi="http://sodipodi.sourceforge.net/DTD/sodipodi-0.dtd"
   xmlns:inkscape="http://www.inkscape.org/namespaces/inkscape"
   xml:space="preserve"
   width="7.8740005in"
   height="7.8740005in"
   version="1.1"
   style="clip-rule:evenodd;fill-rule:evenodd;image-rendering:optimizeQuality;shape-rendering:geometricPrecision;text-rendering:geometricPrecision"
   viewBox="0 0 7874.0005 7874.0005"
   id="svg3673"
   inkscape:version="0.91 r13725"
   sodipodi:docname="Mercs - Scarface Turner - [N3] [Vyo].svg"><metadata
     id="metadata3695"><rdf:RDF><cc:Work
         rdf:about=""><dc:format>image/svg+xml</dc:format><dc:type
           rdf:resource="http://purl.org/dc/dcmitype/StillImage" /></cc:Work></rdf:RDF></metadata><sodipodi:namedview
     pagecolor="#ffffff"
     bordercolor="#666666"
     borderopacity="1"
     objecttolerance="10"
     gridtolerance="10"
     guidetolerance="10"
     inkscape:pageopacity="0"
     inkscape:pageshadow="2"
     inkscape:window-width="640"
     inkscape:window-height="480"
     id="namedview3693"
     showgrid="false"
     inkscape:zoom="0.23838384"
     inkscape:cx="736.83001"
     inkscape:cy="849.33005"
     inkscape:window-x="0"
     inkscape:window-y="0"
     inkscape:window-maximized="0"
     inkscape:current-layer="svg3673" /><defs
     id="defs3675"><style
       type="text/css"
       id="style3677"><![CDATA[
    .fil3 {fill:black}
    .fil0 {fill:#4D4D4D}
    .fil2 {fill:#E2001A}
    .fil1 {fill:white}
   ]]></style></defs><g
     id="Layer_x0020_1"
     transform="translate(3937,-7063)"><metadata
       id="CorelCorpID_0Corel-Layer" /><circle
       class="fil0"
       cy="11000"
       r="3937"
       id="circle3681"
       cx="0"
       style="fill:#4d4d4d" /><circle
       class="fil1"
       cy="11000"
       r="3858"
       id="circle3683"
       cx="0"
       style="fill:#ffffff" /><circle
       class="fil2"
       cy="11000"
       r="3268"
       id="circle3685"
       cx="0"
       style="fill:#e2001a" /><polygon
       class="fil0"
       points="1760,11572 2036,13803 0,12850 -2036,13803 -1760,11572 -3295,9929 -1088,9503 0,7535 1088,9503 3295,9929 "
       id="polygon3687"
       style="fill:#4d4d4d" /><polygon
       class="fil1"
       points="-1677,11545 -1941,13671 0,12763 1941,13671 1677,11545 3140,9980 1037,9573 0,7698 -1037,9573 -3140,9980 "
       id="polygon3689"
       style="fill:#ffffff" /><path
       class="fil3"
       d="m -1969,10331 1339,-748 1260,0 1339,748 -463,1300 -246,-175 0,-495 -311,179 -634,-967 327,1144 -406,234 315,236 291,-129 510,408 -13,36 -315,118 -79,394 -276,158 -157,-512 -1024,0 -157,512 -276,-158 -79,-394 -315,-118 -129,-365 51,-68 -132,-157 -420,-1181 z m 709,630 1024,590 -315,236 -709,-315 0,-511 z"
       id="path3691"
       inkscape:connector-curvature="0"
       style="fill:#000000" /></g></svg>