<?xml version="1.0" encoding="UTF-8" standalone="no"?>
<!-- Creator: CorelDRAW X7 -->

<svg
   xmlns:dc="http://purl.org/dc/elements/1.1/"
   xmlns:cc="http://creativecommons.org/ns#"
   xmlns:rdf="http://www.w3.org/1999/02/22-rdf-syntax-ns#"
   xmlns:svg="http://www.w3.org/2000/svg"
   xmlns="http://www.w3.org/2000/svg"
   xmlns:sodipodi="http://sodipodi.sourceforge.net/DTD/sodipodi-0.dtd"
   xmlns:inkscape="http://www.inkscape.org/namespaces/inkscape"
   xml:space="preserve"
   width="7.8740005in"
   height="7.8740005in"
   version="1.1"
   style="clip-rule:evenodd;fill-rule:evenodd;image-rendering:optimizeQuality;shape-rendering:geometricPrecision;text-rendering:geometricPrecision"
   viewBox="0 0 7874.0005 7874.0005"
   id="svg2"
   inkscape:version="0.91 r13725"
   sodipodi:docname="mercs_father_lucien_sforza.svg"><metadata
     id="metadata26"><rdf:RDF><cc:Work
         rdf:about=""><dc:format>image/svg+xml</dc:format><dc:type
           rdf:resource="http://purl.org/dc/dcmitype/StillImage" /></cc:Work></rdf:RDF></metadata><sodipodi:namedview
     pagecolor="#ffffff"
     bordercolor="#666666"
     borderopacity="1"
     objecttolerance="10"
     gridtolerance="10"
     guidetolerance="10"
     inkscape:pageopacity="0"
     inkscape:pageshadow="2"
     inkscape:window-width="640"
     inkscape:window-height="480"
     id="namedview24"
     showgrid="false"
     inkscape:zoom="0.23838384"
     inkscape:cx="736.83001"
     inkscape:cy="849.33005"
     inkscape:window-x="0"
     inkscape:window-y="0"
     inkscape:window-maximized="0"
     inkscape:current-layer="svg2" /><defs
     id="defs4"><style
       type="text/css"
       id="style6"><![CDATA[
    .fil3 {fill:none}
    .fil0 {fill:black}
    .fil2 {fill:#452D7B}
    .fil1 {fill:white}
    .fil4 {fill:white;fill-rule:nonzero}
   ]]></style></defs><g
     id="Layer_x0020_1"
     transform="translate(3937,-7063)"><metadata
       id="CorelCorpID_0Corel-Layer" /><circle
       class="fil0"
       cy="11000"
       r="3937"
       id="circle10"
       cx="0"
       style="fill:#000000" /><circle
       class="fil1"
       cy="11000"
       r="3150"
       id="circle12"
       cx="0"
       style="fill:#ffffff" /><path
       class="fil2"
       d="m 113,10319 c 291,48 520,277 568,568 566,-54 1113,-175 1632,-354 l 325,467 -325,467 c -519,-179 -1066,-300 -1632,-354 -48,291 -277,520 -568,568 6,54 11,108 18,161 311,-48 567,-264 671,-553 l 0,0 c 213,523 497,928 1024,1537 -529,-458 -905,-733 -1337,-937 -103,57 -217,96 -337,114 64,452 170,890 315,1310 l -467,325 -467,-325 c 145,-420 251,-858 315,-1310 -120,-18 -234,-57 -337,-114 -432,204 -808,479 -1337,937 514,-593 797,-993 1008,-1497 l 6,-45 8,0 c 103,291 360,510 673,558 7,-53 12,-107 18,-161 -291,-48 -520,-277 -568,-568 -566,54 -1113,175 -1632,354 l -325,-467 325,-467 c 519,179 1066,300 1632,354 48,-291 277,-520 568,-568 -6,-54 -11,-108 -18,-161 -311,48 -567,264 -671,553 l 0,0 c -213,-523 -497,-928 -1024,-1537 529,458 905,733 1337,937 103,-57 217,-96 337,-114 -64,-452 -170,-890 -315,-1310 L 0,8362 467,8687 c -145,420 -251,858 -315,1310 120,18 234,57 337,114 432,-204 808,-479 1337,-937 -527,609 -811,1014 -1024,1537 l 0,0 c -104,-289 -360,-505 -671,-553 -7,53 -12,107 -18,161 z m 405,781 c -144,-11 -290,-17 -436,-18 1,146 7,292 18,436 211,-40 378,-207 418,-418 z m -600,-18 c -146,1 -292,7 -436,18 40,211 207,378 418,418 11,-144 17,-290 18,-436 z m -436,-182 c 144,11 290,17 436,18 -1,-146 -7,-292 -18,-436 -211,40 -378,207 -418,418 z m 600,18 c 146,-1 292,-7 436,-18 -40,-211 -207,-378 -418,-418 -11,144 -17,290 -18,436 z"
       id="path14"
       inkscape:connector-curvature="0"
       style="fill:#452d7b" /><circle
       class="fil3"
       cy="11000"
       r="3898"
       id="circle16"
       cx="0"
       style="fill:none" /><path
       class="fil4"
       d="m -3249,11226 3,122 -269,6 c -41,0 -74,-5 -98,-18 -24,-12 -42,-33 -53,-63 -6,-17 -10,-37 -12,-62 -2,-24 -3,-51 -4,-83 -1,-33 -1,-62 -2,-89 0,-27 1,-51 3,-72 3,-21 7,-39 13,-54 6,-16 16,-28 28,-39 12,-10 28,-17 48,-23 19,-5 44,-8 72,-8 l 262,-6 3,122 -223,5 c -18,0 -33,1 -45,2 -12,1 -21,4 -29,7 -7,3 -13,8 -17,14 -3,7 -6,15 -7,25 -2,11 -3,23 -2,38 0,15 0,34 0,55 1,16 1,30 1,42 1,13 1,23 3,33 1,9 3,17 6,23 3,7 7,12 13,16 9,7 20,11 33,11 12,1 28,1 48,1 l 225,-5 z m -235,325 c -14,2 -26,5 -35,9 -10,4 -17,9 -21,16 -5,7 -7,16 -8,27 0,11 1,25 4,42 4,24 8,44 12,58 4,14 10,24 17,31 6,6 15,10 25,10 10,1 24,0 41,-3 16,-3 29,-6 37,-11 9,-4 15,-10 18,-17 3,-8 5,-19 4,-31 -1,-13 -3,-28 -7,-48 -3,-19 -7,-36 -11,-48 -4,-12 -9,-21 -15,-27 -6,-6 -14,-10 -24,-11 -9,-1 -22,0 -37,3 z m -151,28 -18,-104 420,-73 18,103 -174,31 c 11,3 21,7 28,12 8,5 15,12 21,21 6,8 12,20 16,33 4,14 8,31 12,51 6,37 9,66 8,88 -1,23 -7,41 -18,54 -10,14 -26,24 -47,32 -21,7 -49,13 -83,19 -28,5 -52,7 -72,4 -19,-2 -34,-9 -46,-20 -13,-10 -22,-26 -30,-45 -7,-20 -13,-45 -18,-75 -4,-19 -6,-36 -7,-51 -1,-14 -1,-26 2,-37 2,-11 7,-20 14,-28 7,-9 17,-17 30,-25 l -56,10 z m 340,589 9,-3 c 9,-3 17,-7 21,-12 5,-5 7,-10 8,-17 0,-8 -1,-16 -3,-26 -2,-10 -6,-21 -10,-35 -5,-14 -9,-26 -14,-37 -4,-10 -8,-19 -14,-25 -5,-6 -11,-11 -18,-13 -6,-2 -15,-1 -25,3 l -8,2 54,163 z m -119,-141 c -10,3 -18,7 -24,12 -6,4 -10,10 -12,17 -1,6 -2,15 0,25 2,10 5,22 10,36 6,18 11,33 15,45 4,11 8,20 12,25 4,6 9,9 14,10 5,1 12,0 20,-2 l 32,96 c -19,7 -35,9 -50,8 -14,-1 -28,-6 -39,-16 -12,-9 -22,-22 -31,-40 -10,-18 -19,-40 -27,-66 -13,-38 -22,-70 -29,-98 -6,-27 -7,-50 -4,-70 4,-20 14,-37 29,-51 16,-13 40,-26 71,-36 38,-12 68,-19 91,-20 23,-2 42,4 57,15 16,12 29,30 40,55 11,25 23,58 36,97 10,31 17,57 20,79 4,22 2,41 -5,56 -6,12 -13,22 -21,29 -8,8 -18,14 -29,19 -11,6 -23,10 -36,15 -13,4 -28,9 -43,15 l -86,-259 -11,4 z m 278,390 c 11,-1 22,-2 31,0 10,1 19,5 27,10 9,6 17,13 24,23 8,10 15,23 22,39 11,24 17,45 18,61 1,16 -2,30 -10,41 -7,11 -18,22 -33,30 -15,9 -32,18 -52,27 l -40,-88 c 7,-4 13,-8 19,-11 6,-4 10,-8 13,-13 2,-5 3,-12 2,-20 -1,-8 -5,-18 -11,-32 -18,-40 -48,-50 -90,-31 l -138,63 -43,-94 272,-123 43,94 -54,24 z m 329,471 -62,40 -91,-141 -79,51 c -6,4 -12,8 -18,12 -5,4 -9,9 -12,14 -3,5 -4,10 -4,17 1,7 4,15 10,24 6,9 12,16 17,19 6,4 11,6 17,5 5,0 11,-2 17,-5 6,-4 13,-8 20,-13 l 44,68 c -10,6 -19,12 -27,17 -8,5 -16,10 -24,14 -8,4 -15,7 -23,8 -8,2 -15,3 -23,2 -17,-1 -32,-8 -45,-20 -12,-13 -25,-30 -39,-51 -14,-21 -24,-40 -32,-57 -8,-17 -13,-33 -13,-48 -1,-14 3,-28 11,-40 8,-13 22,-25 40,-37 l 106,-68 -29,-45 63,-40 29,45 62,-41 57,89 -62,40 90,141 z m -67,251 c -6,6 -11,11 -12,17 -2,5 -1,11 1,17 2,6 5,13 11,20 5,7 11,15 17,24 12,14 22,27 30,36 8,10 16,17 23,22 7,4 13,6 19,6 6,0 12,-3 18,-8 6,-4 10,-9 11,-14 1,-5 0,-11 -2,-18 -3,-6 -7,-13 -13,-22 -6,-8 -13,-18 -22,-29 -8,-10 -16,-20 -23,-28 -8,-9 -14,-16 -21,-20 -6,-5 -12,-8 -18,-9 -6,-1 -12,1 -19,6 z m 67,165 c -11,4 -21,6 -30,5 -10,0 -19,-3 -28,-8 -10,-5 -19,-12 -29,-22 -10,-10 -21,-23 -33,-38 -17,-22 -31,-40 -41,-57 -10,-16 -16,-30 -18,-44 -1,-13 2,-26 9,-38 8,-13 20,-26 38,-40 18,-14 34,-23 49,-25 14,-3 28,-1 41,5 13,7 26,17 39,31 13,15 28,32 43,51 10,13 19,24 26,34 8,9 13,18 17,26 5,8 7,16 8,24 0,8 -1,17 -4,28 l 26,-20 c 9,-8 15,-14 18,-20 4,-6 4,-13 1,-22 -2,-8 -8,-17 -16,-29 -8,-11 -19,-25 -33,-43 -11,-14 -20,-23 -27,-27 -7,-5 -15,-3 -24,3 l -63,-80 c 17,-13 32,-19 47,-20 14,-1 29,3 45,13 15,9 32,24 50,45 18,20 39,45 63,76 16,20 29,39 38,55 9,17 15,33 16,47 2,14 -1,28 -8,40 -7,13 -19,26 -35,39 l -159,124 -65,-83 39,-30 z m 296,228 c -19,-18 -36,-35 -50,-50 -15,-15 -25,-29 -32,-43 -6,-14 -8,-28 -5,-42 3,-15 13,-30 30,-48 10,-11 22,-20 35,-25 13,-6 25,-8 37,-7 15,1 34,10 56,26 22,17 49,41 82,71 23,23 42,42 57,58 15,16 25,31 31,44 5,14 7,27 3,40 -3,12 -12,26 -25,42 l -78,-75 c 2,-3 4,-7 4,-11 0,-4 -1,-9 -5,-14 -3,-5 -7,-11 -14,-17 -6,-7 -14,-15 -23,-24 -10,-9 -19,-17 -27,-24 -8,-7 -15,-13 -21,-16 -6,-4 -12,-6 -17,-6 -6,0 -10,3 -15,8 -4,4 -6,8 -6,12 0,4 2,9 6,14 4,6 10,12 17,19 8,7 17,16 27,26 5,4 10,9 15,14 6,4 10,9 15,13 19,19 36,36 50,51 13,14 22,29 27,42 6,13 6,26 2,39 -3,13 -12,27 -26,42 -16,17 -31,28 -45,34 -14,6 -29,7 -46,2 -16,-5 -35,-15 -55,-31 -21,-16 -46,-38 -74,-65 -23,-22 -42,-41 -58,-58 -15,-16 -27,-32 -34,-47 -7,-16 -9,-31 -5,-46 3,-15 13,-31 29,-49 l 79,74 c -5,5 -8,10 -9,15 -1,5 1,11 4,17 4,6 9,13 16,21 8,7 17,16 28,27 12,11 22,21 31,29 9,8 16,14 23,18 7,3 13,5 18,4 5,0 10,-3 15,-9 8,-7 9,-15 5,-22 -5,-8 -14,-18 -28,-31 l -44,-42 z m 1000,363 -416,241 -130,-83 53,-472 112,71 -42,355 309,-184 114,72 z m 110,307 4,-8 c 4,-9 6,-17 6,-24 0,-6 -3,-12 -8,-17 -5,-6 -11,-11 -20,-16 -9,-5 -20,-10 -33,-16 -13,-6 -25,-11 -36,-15 -10,-4 -20,-6 -28,-7 -8,0 -16,1 -21,5 -6,3 -12,10 -16,20 l -4,7 156,71 z m -184,-9 c -4,11 -7,19 -8,26 0,8 1,14 5,20 4,6 10,12 18,18 9,5 20,11 33,17 18,8 32,15 44,20 11,4 20,7 27,8 7,1 12,0 16,-4 5,-3 9,-8 12,-16 l 93,42 c -8,18 -18,32 -29,42 -10,10 -23,16 -38,18 -15,3 -31,1 -51,-4 -19,-5 -41,-14 -66,-25 -36,-17 -67,-32 -91,-46 -25,-14 -43,-29 -55,-45 -12,-16 -17,-35 -17,-55 1,-21 8,-47 21,-77 17,-36 32,-63 47,-81 15,-17 32,-28 51,-31 19,-3 41,0 67,8 26,9 58,22 96,40 29,13 53,26 71,39 19,12 31,26 38,42 5,12 7,24 7,35 0,11 -2,22 -6,34 -4,12 -8,24 -14,36 -6,13 -12,27 -18,42 l -248,-113 -5,10 z m 476,67 c 8,-10 16,-19 25,-25 8,-6 19,-10 30,-12 12,-1 25,0 41,3 15,2 34,8 56,15 34,12 60,28 76,47 17,19 24,43 24,71 -1,11 -3,22 -6,34 -3,11 -7,22 -11,34 l -51,148 -100,-35 52,-148 c 4,-12 6,-23 7,-31 1,-9 -1,-16 -5,-23 -4,-6 -11,-12 -21,-17 -10,-5 -23,-11 -40,-16 -18,-7 -33,-10 -46,-10 -12,-1 -22,1 -30,6 -8,5 -15,12 -20,22 -5,10 -10,21 -15,35 l -43,126 -98,-33 98,-282 97,33 -20,58 z m 409,254 c -2,8 -1,15 1,20 3,5 7,9 13,12 5,4 13,6 21,8 9,2 19,4 29,6 19,3 34,5 47,7 12,2 23,2 31,1 8,-1 14,-4 19,-8 4,-4 6,-10 8,-18 1,-8 1,-14 -2,-18 -2,-5 -7,-9 -13,-12 -6,-3 -14,-5 -24,-7 -10,-3 -22,-5 -36,-7 -13,-3 -26,-5 -37,-6 -11,-2 -20,-2 -28,-2 -8,1 -14,3 -19,6 -5,4 -9,10 -10,18 z m 159,78 c -5,10 -11,18 -18,24 -8,6 -17,10 -27,12 -10,3 -22,4 -36,3 -14,-1 -31,-3 -50,-6 -27,-5 -50,-10 -68,-15 -18,-5 -33,-12 -43,-21 -10,-9 -16,-21 -19,-35 -3,-14 -2,-32 2,-54 4,-23 10,-40 19,-52 9,-11 20,-19 34,-23 14,-4 31,-5 50,-3 20,2 42,5 66,9 16,3 30,5 42,7 12,2 22,5 30,8 9,3 16,8 22,13 6,6 11,14 16,24 l 5,-32 c 2,-12 3,-21 1,-28 -2,-7 -6,-12 -14,-16 -7,-5 -17,-8 -31,-11 -14,-3 -32,-6 -54,-10 -18,-3 -30,-4 -38,-3 -8,2 -13,8 -15,19 l -101,-18 c 4,-20 11,-35 21,-46 10,-10 24,-17 42,-20 18,-3 41,-3 68,0 27,3 60,8 98,14 25,5 47,10 65,16 18,6 32,14 43,24 11,10 18,22 21,36 3,14 3,31 0,52 l -35,198 -104,-18 8,-48 z m 521,-210 -1,74 -168,-4 -2,94 c 0,8 0,15 0,22 0,7 2,13 4,18 3,5 7,9 13,12 6,4 14,5 25,5 11,1 20,0 26,-3 6,-2 10,-6 13,-10 3,-5 5,-11 5,-18 0,-7 1,-15 1,-24 l 81,2 c -1,12 -1,22 -1,32 -1,10 -1,19 -2,27 -1,9 -3,17 -6,24 -3,8 -7,14 -12,21 -10,13 -24,22 -41,25 -18,3 -39,5 -64,4 -25,0 -47,-2 -66,-5 -19,-3 -34,-8 -47,-16 -12,-8 -21,-19 -27,-32 -6,-14 -9,-32 -8,-53 l 3,-127 -54,-1 2,-74 53,1 2,-74 105,2 -1,74 167,4 z m 169,149 c 2,16 4,30 7,39 4,10 9,17 16,21 7,4 17,6 30,7 12,0 28,-1 47,-2 22,-2 40,-4 52,-7 13,-2 22,-7 28,-13 6,-6 10,-14 11,-24 1,-10 1,-23 -1,-40 -1,-14 -2,-25 -5,-34 -2,-9 -6,-16 -13,-21 -7,-5 -17,-8 -31,-9 -13,-2 -31,-1 -54,0 -20,2 -35,4 -47,7 -12,3 -21,8 -27,14 -6,6 -10,14 -12,24 -2,10 -2,22 -1,38 z m -101,26 c -2,-23 -3,-44 -4,-62 -1,-18 1,-34 4,-47 3,-13 8,-24 15,-34 7,-9 18,-17 32,-23 13,-6 31,-11 52,-15 21,-3 47,-7 78,-9 37,-3 68,-4 95,-4 26,1 48,5 65,12 17,7 30,19 39,35 9,17 14,40 17,69 2,26 3,49 3,68 1,19 0,36 -4,50 -3,14 -8,25 -16,35 -8,9 -20,17 -35,23 -15,6 -34,11 -57,14 -23,4 -51,7 -84,9 -35,3 -64,4 -88,3 -25,0 -45,-4 -60,-12 -16,-8 -28,-21 -36,-38 -9,-18 -14,-42 -16,-74 z m 573,-172 c 1,-12 3,-22 7,-31 4,-9 10,-17 17,-24 7,-6 16,-12 28,-17 11,-5 26,-9 43,-12 26,-4 48,-5 63,-2 16,3 29,10 38,20 9,10 16,23 21,39 5,17 9,36 13,58 l -95,17 c -2,-8 -5,-15 -6,-22 -2,-6 -5,-11 -10,-15 -4,-4 -10,-6 -18,-7 -8,-1 -19,0 -34,2 -43,8 -60,34 -52,80 l 26,149 -102,18 -51,-294 101,-18 11,59 z m 560,-119 172,-68 c 18,-7 29,-15 33,-26 5,-10 3,-25 -5,-45 -7,-19 -16,-31 -26,-37 -10,-6 -25,-5 -44,2 l -172,69 42,105 z m -37,240 -157,-397 299,-118 c 27,-11 50,-18 70,-22 21,-4 40,-2 57,5 18,8 33,20 45,38 12,17 24,40 35,67 11,29 19,54 23,75 3,21 2,40 -4,56 -6,16 -17,29 -32,41 -16,12 -38,24 -65,35 -4,1 -8,2 -11,4 -3,1 -7,2 -11,4 l -174,69 39,98 -114,45 z m 672,-519 -4,-8 c -5,-9 -10,-15 -16,-19 -5,-3 -12,-4 -19,-4 -7,1 -15,4 -24,8 -9,4 -20,10 -32,17 -13,7 -24,14 -34,20 -9,6 -17,13 -22,19 -5,7 -8,13 -9,20 0,7 2,15 7,25 l 5,7 148,-85 z m -115,144 c 6,10 11,17 17,22 5,4 12,7 19,8 7,0 15,-1 25,-5 9,-4 20,-9 33,-17 17,-9 31,-17 41,-23 10,-7 18,-12 23,-17 5,-6 7,-11 7,-16 -1,-5 -3,-12 -7,-19 l 89,-51 c 10,18 16,33 17,48 2,14 -1,28 -8,42 -6,13 -18,26 -33,38 -15,13 -35,26 -59,40 -35,19 -65,35 -90,47 -26,11 -49,17 -69,17 -20,1 -38,-6 -55,-18 -17,-13 -33,-33 -50,-62 -19,-35 -32,-63 -38,-85 -5,-23 -4,-42 5,-60 8,-17 23,-34 46,-49 22,-16 51,-34 88,-55 28,-16 52,-28 73,-35 21,-8 40,-10 56,-6 13,3 24,8 33,15 8,6 17,15 24,24 7,10 15,21 21,33 7,12 15,25 23,39 l -236,135 5,10 z m 321,-344 c -5,-11 -7,-21 -8,-31 -1,-9 0,-19 4,-28 3,-10 8,-19 16,-29 8,-9 19,-20 33,-30 21,-17 39,-28 55,-32 15,-5 29,-5 42,-1 13,5 25,13 37,26 12,12 25,27 38,44 l -76,60 c -5,-6 -10,-11 -15,-16 -5,-5 -10,-8 -15,-9 -6,-2 -12,-1 -20,2 -8,3 -17,9 -29,18 -34,27 -37,59 -8,95 l 93,120 -81,63 -184,-235 81,-64 37,47 z m 303,-510 232,220 188,-197 77,73 -272,286 -309,-294 84,-88 z m 375,-240 234,185 -63,81 -234,-185 63,-81 z m -100,-79 64,50 -64,81 -64,-50 64,-81 z m 449,-121 56,-88 c 23,14 39,29 50,43 11,15 16,31 15,50 0,18 -6,39 -18,63 -11,24 -28,53 -49,86 -18,29 -36,52 -52,70 -16,17 -33,28 -50,34 -17,5 -36,5 -57,-2 -20,-6 -44,-17 -72,-35 -28,-18 -49,-36 -62,-53 -14,-17 -20,-35 -20,-55 0,-20 6,-41 18,-65 11,-24 27,-52 48,-84 18,-29 35,-53 50,-70 15,-17 30,-29 45,-35 15,-7 31,-8 47,-3 16,4 35,13 56,26 l -56,87 c -7,-3 -14,-5 -19,-5 -6,-1 -11,0 -17,4 -6,3 -12,9 -18,17 -6,8 -14,19 -23,33 -10,16 -18,29 -22,40 -5,12 -8,22 -7,30 0,9 4,17 10,24 6,8 16,15 28,23 14,9 26,15 36,17 10,2 19,1 27,-3 8,-3 16,-10 23,-19 8,-10 16,-21 25,-35 15,-24 24,-44 27,-58 3,-15 -1,-25 -13,-33 l -6,-4 z m 151,-429 -8,-4 c -10,-4 -18,-6 -24,-6 -7,0 -12,3 -18,8 -5,5 -10,11 -15,20 -5,9 -10,20 -16,33 -6,13 -11,25 -15,36 -5,10 -7,20 -7,28 -1,8 1,15 4,21 4,6 11,12 20,16 l 8,3 71,-155 z m -9,184 c 10,4 19,7 26,8 7,0 14,-1 20,-5 6,-4 12,-10 17,-18 6,-9 12,-20 18,-33 8,-18 14,-33 19,-44 5,-11 8,-20 9,-27 1,-7 -1,-12 -4,-16 -3,-5 -9,-9 -16,-12 l 42,-93 c 18,8 32,18 42,29 10,10 16,23 18,38 2,15 1,31 -5,51 -5,19 -13,41 -25,66 -16,36 -31,67 -45,91 -14,24 -29,43 -45,55 -16,12 -35,17 -56,17 -21,-1 -46,-8 -76,-21 -36,-17 -63,-32 -81,-47 -17,-15 -28,-32 -31,-51 -4,-19 -1,-41 8,-67 9,-26 22,-58 40,-96 13,-29 26,-53 38,-71 13,-19 27,-31 43,-38 12,-5 23,-7 34,-7 11,0 23,2 35,6 11,4 23,8 36,14 13,6 26,12 41,18 l -112,248 10,5 z m 67,-475 c -11,-8 -19,-16 -26,-24 -6,-9 -10,-19 -11,-31 -2,-11 -1,-25 2,-41 3,-15 8,-34 15,-56 12,-34 27,-60 46,-76 20,-17 43,-25 71,-24 12,1 23,3 34,6 11,3 23,6 34,10 l 148,51 -33,99 -149,-50 c -12,-4 -23,-7 -31,-7 -9,-1 -16,1 -23,5 -6,4 -12,11 -17,21 -5,10 -10,23 -16,40 -6,18 -10,33 -10,46 0,12 2,22 7,30 5,8 12,15 22,20 10,5 21,10 35,15 l 126,43 -33,97 -282,-96 33,-97 58,19 z m 95,-651 73,13 -29,165 93,17 c 7,1 14,2 21,3 7,1 13,0 18,-2 6,-1 11,-5 15,-10 4,-5 6,-14 8,-24 2,-11 3,-20 1,-26 -1,-7 -4,-12 -8,-15 -5,-4 -10,-6 -17,-8 -7,-1 -15,-2 -23,-4 l 14,-80 c 11,2 21,4 31,6 10,2 18,4 27,6 8,3 16,6 22,9 7,4 14,9 19,15 12,12 18,28 19,45 0,18 -1,39 -6,64 -4,25 -9,46 -15,64 -6,18 -13,33 -23,44 -9,11 -21,18 -36,22 -14,4 -32,4 -54,0 l -124,-22 -9,53 -73,-13 9,-53 -73,-13 18,-103 73,13 29,-166 z m 20,-178 296,39 -13,102 -296,-38 13,-103 z m -126,-16 80,10 -13,102 -81,-10 14,-102 z m 333,-153 c 9,0 15,-1 20,-5 5,-3 8,-7 10,-14 3,-6 4,-13 5,-22 0,-9 1,-19 1,-29 1,-19 1,-35 0,-47 0,-13 -2,-24 -4,-32 -2,-8 -6,-13 -10,-17 -5,-3 -11,-5 -19,-5 -8,0 -14,1 -18,4 -4,3 -7,8 -9,15 -2,7 -4,15 -4,25 -1,10 -2,22 -2,37 0,13 0,25 0,36 0,12 1,21 3,29 2,8 5,14 9,18 4,5 10,7 18,7 z m 54,-169 c 10,3 19,8 26,15 7,6 12,14 16,24 4,10 7,22 8,35 2,14 2,31 2,50 -1,28 -2,51 -5,70 -2,19 -7,34 -14,45 -7,12 -18,20 -31,25 -14,5 -32,7 -54,6 -23,0 -41,-4 -54,-11 -13,-7 -22,-17 -29,-30 -6,-14 -9,-30 -10,-49 -1,-20 -2,-42 -1,-67 0,-16 1,-30 1,-42 0,-12 1,-23 3,-31 2,-9 5,-17 10,-24 5,-6 11,-13 21,-19 l -33,-1 c -12,0 -21,1 -27,4 -7,3 -11,8 -14,16 -4,8 -5,18 -6,33 -1,14 -2,32 -2,54 0,18 1,31 3,38 3,8 10,12 21,12 l -3,103 c -20,-1 -36,-6 -48,-14 -12,-9 -21,-21 -27,-39 -6,-17 -9,-40 -10,-67 -1,-27 -1,-60 0,-99 0,-26 2,-48 6,-67 3,-18 9,-34 17,-46 7,-12 18,-20 32,-26 13,-5 30,-8 51,-7 l 202,4 -3,106 -48,-1 z"
       id="path18"
       inkscape:connector-curvature="0"
       style="fill:#ffffff;fill-rule:nonzero" /><circle
       class="fil3"
       cy="11000"
       r="3898"
       id="circle20"
       cx="0"
       style="fill:none" /><path
       class="fil4"
       d="m -3150,9870 36,-94 -85,-33 72,-187 c 6,-16 8,-30 6,-44 -1,-14 -6,-26 -14,-37 -8,-10 -18,-20 -29,-28 -12,-7 -24,-14 -38,-19 l -29,-11 c -17,-7 -34,-11 -49,-13 -15,-2 -30,-1 -43,3 -13,4 -26,13 -37,25 -11,13 -21,30 -29,51 l -99,257 338,130 z m -218,-192 53,-138 c 6,-14 13,-23 21,-26 8,-4 18,-3 30,1 l 13,5 c 11,4 19,10 24,18 4,7 4,16 0,27 l -56,146 -85,-33 z m 379,-189 56,-98 -41,-57 102,-178 71,4 56,-97 -404,-23 -66,115 226,334 z m -120,-350 150,11 -64,112 -86,-123 z m 158,-240 88,-112 214,168 62,-79 -214,-168 88,-112 -71,-55 -237,303 70,55 z m 498,-184 266,-252 -59,-63 -193,183 -40,-43 179,-168 -52,-55 -178,169 -40,-42 188,-178 -58,-61 -261,247 248,263 z m 253,-591 130,-91 c 14,-9 25,-14 33,-14 9,0 18,6 26,19 l 7,10 c 8,11 11,20 10,28 -1,9 -7,17 -18,24 l -137,96 -51,-72 z m 74,281 83,-58 -54,-77 130,-91 c 13,-10 23,-13 33,-10 9,2 19,12 29,27 l 25,36 83,-58 -35,-51 c -8,-11 -16,-20 -24,-27 -8,-6 -16,-11 -23,-12 -8,-2 -15,-2 -22,-1 -7,1 -14,3 -22,7 l -1,-1 c 15,-18 22,-34 20,-50 -1,-16 -10,-34 -25,-56 l -13,-18 c -10,-14 -20,-26 -30,-35 -10,-8 -20,-14 -32,-18 -11,-3 -24,-3 -37,0 -13,3 -28,10 -43,21 l -250,175 208,297 z m 624,-400 299,-135 -38,-85 -207,94 -111,-245 -92,41 149,330 z m 324,-283 c 13,44 33,73 60,87 27,15 63,16 107,3 l 139,-40 c 44,-13 74,-33 89,-60 15,-27 16,-62 4,-105 l -65,-224 -97,28 58,201 c 6,22 7,39 2,51 -6,11 -19,20 -38,26 l -96,28 c -20,5 -36,5 -47,-2 -10,-7 -19,-22 -25,-44 l -59,-201 -97,28 65,224 z m 500,-135 c 3,25 9,46 18,63 9,16 20,28 33,35 14,8 29,13 47,14 18,2 39,1 63,-2 l 161,-22 c 25,-3 45,-9 60,-16 15,-8 26,-17 34,-28 7,-11 12,-22 13,-36 2,-13 1,-28 -1,-44 l -4,-34 -100,14 c 1,11 1,20 0,27 -1,7 -3,12 -7,16 -4,4 -10,7 -16,9 -7,2 -17,4 -29,5 l -107,15 c -23,3 -39,0 -48,-10 -9,-9 -16,-27 -19,-54 l -5,-39 c -4,-24 -2,-43 5,-56 7,-13 23,-21 47,-24 l 110,-15 c 15,-2 27,-1 36,2 8,4 13,12 15,25 l 1,10 100,-14 c -3,-28 -8,-50 -14,-66 -7,-16 -16,-28 -28,-37 -13,-8 -29,-14 -51,-15 -21,-2 -50,0 -85,4 l -118,16 c -24,4 -44,8 -61,14 -17,7 -30,15 -41,27 -11,11 -19,25 -23,43 -4,18 -4,40 -1,66 l 15,107 z m 532,69 101,-2 -6,-362 -101,2 6,362 z m 197,-9 365,28 7,-87 -265,-20 5,-58 245,19 6,-75 -245,-19 4,-57 259,19 6,-84 -359,-27 -28,361 z m 450,33 98,22 59,-256 0,0 127,299 153,34 80,-352 -98,-23 -59,257 -1,-1 -126,-298 -153,-35 -80,353 z m 789,125 c -8,18 -13,34 -13,48 -1,13 1,25 8,36 6,10 16,20 29,30 13,9 31,19 53,29 l 111,51 c 32,15 58,25 78,31 20,6 37,8 51,6 14,-3 26,-9 36,-21 11,-11 21,-28 32,-51 11,-24 17,-44 18,-60 1,-16 -3,-30 -12,-43 -9,-13 -24,-25 -44,-37 -21,-13 -51,-28 -90,-46 -26,-12 -46,-21 -60,-28 -14,-7 -24,-14 -30,-19 -7,-5 -10,-10 -10,-14 -1,-5 0,-11 4,-18 3,-8 9,-13 18,-15 8,-1 17,1 28,6 l 102,46 c 20,9 31,17 34,24 3,7 1,17 -5,31 l 92,42 4,-11 c 8,-16 13,-30 16,-43 2,-12 2,-25 -2,-36 -4,-12 -12,-24 -26,-36 -14,-11 -33,-23 -59,-35 l -128,-59 c -28,-12 -51,-20 -70,-23 -19,-2 -35,0 -46,5 -12,6 -22,14 -30,25 -7,11 -15,25 -23,43 -10,22 -16,40 -18,54 -3,14 0,26 7,38 6,12 19,23 38,35 19,13 46,27 81,43 34,15 58,27 73,35 16,7 27,14 34,19 8,6 12,11 12,16 1,5 0,12 -4,20 -5,11 -12,17 -20,17 -9,1 -19,-2 -32,-8 l -112,-51 c -15,-7 -24,-14 -28,-21 -4,-7 -2,-19 5,-35 l -91,-42 -11,22 z m 409,309 85,54 66,-104 195,125 46,-70 -195,-125 36,-57 205,131 47,-73 -290,-186 -195,305 z m 432,137 c -17,20 -29,38 -35,56 -6,17 -8,33 -5,48 3,16 10,30 21,45 11,14 25,29 43,45 l 123,106 c 18,16 36,28 51,36 16,9 32,13 48,14 15,1 31,-3 47,-12 16,-9 33,-23 50,-42 l 70,-82 c 17,-20 29,-38 35,-55 7,-18 8,-34 5,-49 -3,-15 -10,-30 -21,-45 -10,-14 -25,-29 -43,-45 l -123,-106 c -18,-16 -35,-28 -51,-36 -16,-9 -31,-14 -47,-14 -16,-1 -32,3 -48,12 -16,9 -32,23 -49,42 l -71,82 z m 127,12 c 16,-18 31,-29 45,-33 14,-3 31,3 50,20 l 89,77 c 19,16 28,32 27,46 -1,15 -10,32 -26,50 l -26,30 c -17,20 -33,32 -45,35 -13,3 -28,-3 -46,-18 l -97,-85 c -18,-15 -26,-29 -25,-42 1,-13 10,-29 28,-50 l 26,-30 z m 456,343 104,118 c 11,13 17,24 18,32 1,9 -4,18 -16,28 l -9,8 c -10,9 -19,13 -27,13 -9,-1 -17,-6 -26,-16 l -110,-125 66,-58 z m -271,103 66,76 71,-62 105,119 c 10,12 15,23 13,32 -2,9 -10,20 -24,33 l -33,29 67,76 46,-41 c 11,-10 19,-19 25,-27 5,-9 9,-17 10,-24 1,-8 0,-15 -2,-22 -1,-7 -5,-14 -9,-21 l 1,-1 c 19,13 36,18 51,15 16,-4 33,-14 53,-31 l 17,-15 c 13,-12 23,-23 31,-34 8,-11 12,-22 15,-34 2,-11 0,-24 -4,-37 -5,-13 -13,-26 -26,-41 l -201,-229 -272,239 z m 301,371 213,328 73,-47 -131,-202 1,-1 285,96 73,-47 -206,-318 -73,47 124,193 0,1 -286,-97 -73,47 z m 230,369 46,102 71,1 84,187 -46,55 47,102 255,-314 -54,-120 -403,-13 z m 353,107 -97,116 -53,-118 150,2 z"
       id="path22"
       inkscape:connector-curvature="0"
       style="fill:#ffffff;fill-rule:nonzero" /></g></svg>