<?xml version="1.0" encoding="UTF-8" standalone="no"?>
<!-- Creator: CorelDRAW X7 -->

<svg
   xmlns:dc="http://purl.org/dc/elements/1.1/"
   xmlns:cc="http://creativecommons.org/ns#"
   xmlns:rdf="http://www.w3.org/1999/02/22-rdf-syntax-ns#"
   xmlns:svg="http://www.w3.org/2000/svg"
   xmlns="http://www.w3.org/2000/svg"
   xmlns:sodipodi="http://sodipodi.sourceforge.net/DTD/sodipodi-0.dtd"
   xmlns:inkscape="http://www.inkscape.org/namespaces/inkscape"
   xml:space="preserve"
   width="7.8740005in"
   height="7.8740005in"
   version="1.1"
   style="clip-rule:evenodd;fill-rule:evenodd;image-rendering:optimizeQuality;shape-rendering:geometricPrecision;text-rendering:geometricPrecision"
   viewBox="0 0 7874.0005 7874.0005"
   id="svg3491"
   inkscape:version="0.91 r13725"
   sodipodi:docname="Mercs - CSU - [N3] [Vyo].svg"><metadata
     id="metadata3527"><rdf:RDF><cc:Work
         rdf:about=""><dc:format>image/svg+xml</dc:format><dc:type
           rdf:resource="http://purl.org/dc/dcmitype/StillImage" /></cc:Work></rdf:RDF></metadata><sodipodi:namedview
     pagecolor="#ffffff"
     bordercolor="#666666"
     borderopacity="1"
     objecttolerance="10"
     gridtolerance="10"
     guidetolerance="10"
     inkscape:pageopacity="0"
     inkscape:pageshadow="2"
     inkscape:window-width="640"
     inkscape:window-height="480"
     id="namedview3525"
     showgrid="false"
     inkscape:zoom="0.23838384"
     inkscape:cx="736.83001"
     inkscape:cy="849.33005"
     inkscape:window-x="0"
     inkscape:window-y="0"
     inkscape:window-maximized="0"
     inkscape:current-layer="svg3491" /><defs
     id="defs3493"><style
       type="text/css"
       id="style3495"><![CDATA[
    .fil0 {fill:black}
    .fil2 {fill:#20A0C0}
    .fil3 {fill:#F99C10}
    .fil1 {fill:white}
    .fil5 {fill:#F99C10;fill-rule:nonzero}
    .fil4 {fill:white;fill-rule:nonzero}
   ]]></style></defs><g
     id="Layer_x0020_1"
     transform="translate(3937,-7063)"><metadata
       id="CorelCorpID_0Corel-Layer" /><circle
       class="fil0"
       cy="11000"
       r="3937"
       id="circle3499"
       cx="0"
       style="fill:#000000" /><circle
       class="fil1"
       cy="11000"
       r="3819"
       id="circle3501"
       cx="0"
       style="fill:#ffffff" /><circle
       class="fil2"
       cy="11000"
       r="3701"
       id="circle3503"
       cx="0"
       style="fill:#20a0c0" /><path
       class="fil1"
       d="m -2047,9189 c 0,-115 121,-236 236,-236 l 709,0 c 114,0 236,121 236,236 l 0,315 c 0,214 54,423 189,592 113,142 270,239 446,284 75,20 153,29 231,29 78,0 156,-9 231,-29 176,-45 333,-142 446,-284 135,-169 189,-378 189,-592 l 0,-315 c 0,-115 122,-236 236,-236 l 709,0 c 115,0 236,121 236,236 l 0,709 c 0,114 -121,236 -236,236 l -315,0 c -214,0 -423,54 -592,189 -142,113 -239,270 -284,446 -20,75 -29,153 -29,231 0,78 9,156 29,231 45,176 142,333 284,446 169,135 378,189 592,189 l 315,0 c 115,0 236,122 236,236 l 0,709 c 0,115 -121,236 -236,236 l -709,0 c -114,0 -236,-121 -236,-236 l 0,-315 c 0,-214 -54,-423 -189,-592 -113,-142 -270,-239 -446,-284 -75,-20 -153,-29 -231,-29 -78,0 -156,9 -231,29 -176,45 -333,142 -446,284 -135,169 -189,378 -189,592 l 0,315 c 0,115 -122,236 -236,236 l -709,0 c -115,0 -236,-121 -236,-236 l 0,-709 c 0,-114 121,-236 236,-236 l 315,0 c 214,0 423,-54 592,-189 142,-113 239,-270 284,-446 20,-75 29,-153 29,-231 0,-78 -9,-156 -29,-231 -45,-176 -142,-333 -284,-446 -169,-135 -378,-189 -592,-189 l -315,0 c -115,0 -236,-122 -236,-236 l 0,-709 z"
       id="path3505"
       inkscape:connector-curvature="0"
       style="fill:#ffffff" /><path
       class="fil3"
       d="m -1969,9189 0,709 c 0,71 87,157 158,157 l 315,0 c 232,0 457,60 641,206 156,124 262,296 312,488 21,82 31,167 31,251 0,84 -10,169 -31,251 -50,192 -156,364 -312,488 -184,146 -409,206 -641,206 l -315,0 c -71,0 -158,86 -158,157 l 0,709 c 0,71 87,158 158,158 l 709,0 c 71,0 157,-87 157,-158 l 0,-315 c 0,-232 60,-457 206,-641 124,-156 296,-262 488,-312 82,-21 167,-31 251,-31 84,0 169,10 251,31 192,50 364,156 488,312 146,184 206,409 206,641 l 0,315 c 0,71 86,158 157,158 l 709,0 c 71,0 158,-87 158,-158 l 0,-709 c 0,-71 -87,-157 -158,-157 l -315,0 c -232,0 -457,-60 -641,-206 -156,-124 -262,-296 -312,-488 -21,-82 -31,-167 -31,-251 0,-84 10,-169 31,-251 50,-192 156,-364 312,-488 184,-146 409,-206 641,-206 l 315,0 c 71,0 158,-86 158,-157 l 0,-709 c 0,-71 -87,-158 -158,-158 l -709,0 c -71,0 -157,87 -157,158 l 0,315 c 0,232 -60,457 -206,641 -124,156 -296,262 -488,312 -82,21 -167,31 -251,31 -84,0 -169,-10 -251,-31 -192,-50 -364,-156 -488,-312 -146,-184 -206,-409 -206,-641 l 0,-315 c 0,-71 -86,-158 -157,-158 l -709,0 c -71,0 -158,87 -158,158 z"
       id="path3507"
       inkscape:connector-curvature="0"
       style="fill:#f99c10" /><path
       class="fil1"
       d="m -2047,10646 c 0,-115 121,-237 236,-237 l 709,0 c 114,0 236,122 236,237 l 0,708 c 0,115 -122,237 -236,237 l -709,0 c -115,0 -236,-122 -236,-237 l 0,-708 z"
       id="path3509"
       inkscape:connector-curvature="0"
       style="fill:#ffffff" /><path
       class="fil1"
       d="m 866,10646 c 0,-115 122,-237 236,-237 l 709,0 c 115,0 236,122 236,237 l 0,708 c 0,115 -121,237 -236,237 l -709,0 c -114,0 -236,-122 -236,-237 l 0,-708 z"
       id="path3511"
       inkscape:connector-curvature="0"
       style="fill:#ffffff" /><path
       class="fil1"
       d="m -591,9189 c 0,-115 122,-236 237,-236 l 708,0 c 115,0 237,121 237,236 l 0,709 c 0,114 -122,236 -237,236 l -708,0 c -115,0 -237,-122 -237,-236 l 0,-709 z"
       id="path3513"
       inkscape:connector-curvature="0"
       style="fill:#ffffff" /><path
       class="fil1"
       d="m -591,12102 c 0,-114 122,-236 237,-236 l 708,0 c 115,0 237,122 237,236 l 0,709 c 0,115 -122,236 -237,236 l -708,0 c -115,0 -237,-121 -237,-236 l 0,-709 z"
       id="path3515"
       inkscape:connector-curvature="0"
       style="fill:#ffffff" /><path
       class="fil4"
       d="m -544,8479 c -9,136 -82,205 -219,205 l -415,0 c -147,0 -220,-78 -220,-235 l 0,-380 c 0,-157 73,-235 220,-235 l 415,0 c 146,0 219,68 219,204 l 0,1 -536,0 c -65,0 -98,30 -98,88 l 0,264 c 0,58 33,87 98,88 l 536,0 z"
       id="path3517"
       inkscape:connector-curvature="0"
       style="fill:#ffffff;fill-rule:nonzero" /><path
       id="1"
       class="fil4"
       d="m -202,7834 416,0 c 146,0 219,69 219,205 l -537,0 c -65,0 -97,20 -97,58 l 0,1 c 0,29 32,44 97,44 l 318,29 c 146,20 219,98 219,234 l 0,44 c 0,157 -73,235 -219,235 l -416,0 c -146,0 -219,-69 -219,-205 l 561,0 c 49,0 74,-20 74,-59 0,-29 -25,-44 -74,-44 l -342,-29 c -146,-20 -219,-98 -219,-234 l 0,-44 c 0,-157 73,-235 219,-235 z"
       inkscape:connector-curvature="0"
       style="fill:#ffffff;fill-rule:nonzero" /><path
       id="2"
       class="fil4"
       d="m 1190,7834 220,0 0,615 c 0,157 -73,235 -220,235 l -415,0 c -147,0 -220,-78 -220,-235 l 0,-615 220,0 0,557 c 0,58 33,87 98,88 l 219,0 c 65,0 98,-30 98,-88 l 0,-557 z"
       inkscape:connector-curvature="0"
       style="fill:#ffffff;fill-rule:nonzero" /><path
       class="fil0"
       d="m 3065,9860 260,-88 c 31,-10 65,6 75,37 l 44,130 c 10,30 -6,64 -37,75 l -261,88 40,116 c 3,10 4,20 2,29 l 261,-60 c 31,-7 63,12 70,44 l 31,133 c 6,28 -8,56 -33,67 29,2 53,25 56,55 l 9,121 c 4,57 -14,109 -52,152 -1,1 -1,2 -2,3 l -131,135 147,-11 c 32,-3 61,22 63,54 l 11,136 c 2,33 -22,61 -55,64 l -112,8 c 104,34 145,126 130,244 l -41,320 c -17,136 -96,220 -238,202 l -396,-50 c -32,-4 -55,-34 -51,-66 l 22,-170 c 4,-32 33,-55 66,-51 l 354,45 c 2,-5 3,-13 4,-17 l 21,-169 c 1,-4 1,-11 1,-17 l -355,-45 c -32,-4 -55,-34 -51,-66 l 22,-170 c 4,-32 34,-55 66,-51 l 54,7 -8,-96 c -4,-58 15,-109 52,-153 1,-1 1,-2 2,-3 l 132,-134 -148,11 c -32,2 -60,-22 -63,-55 l -10,-136 c -1,-5 0,-10 1,-15 -5,-7 -9,-14 -11,-23 l -31,-133 c -4,-17 0,-34 9,-47 -5,-6 -8,-12 -11,-20 l -161,-474 c -10,-31 7,-65 37,-75 l 101,-34 c 31,-11 65,6 75,37 l 40,116 z m -483,2774 61,-119 c 9,-16 22,-26 40,-30 l 151,-34 -61,-142 c -7,-17 -6,-34 2,-51 l 69,-135 c 11,-21 32,-33 55,-32 24,1 44,15 52,37 l 121,302 140,71 c 29,15 40,51 25,80 l -62,121 c -15,29 -51,41 -79,26 l -140,-71 -220,54 c 18,20 20,51 4,73 l -71,101 224,159 c 27,19 33,56 14,83 l -79,111 c -19,27 -56,33 -83,14 l -224,-159 -71,100 c -4,5 -8,9 -12,13 l 185,176 c 23,23 24,60 2,84 l -95,99 c -18,19 -48,23 -70,11 18,25 13,61 -12,81 l -108,84 c -25,20 -62,16 -82,-10 l -39,-49 c -1,0 -1,1 -1,1 l -120,94 c 0,0 -1,1 -1,1 l 38,49 c 21,26 16,63 -10,83 l -107,84 c -26,21 -63,16 -83,-9 l -29,-37 c 10,77 -34,140 -114,181 l -230,118 c -86,44 -169,39 -227,-27 7,88 -51,148 -139,178 l -244,83 c -86,29 -163,16 -211,-45 l 6,40 c 4,32 -19,62 -52,66 l -376,48 c -93,12 -157,-37 -168,-130 l -1,-4 c -26,111 -117,158 -238,149 l -322,-25 c -126,-9 -225,-70 -215,-208 3,-33 31,-57 63,-55 l 49,4 c -62,-38 -101,-98 -94,-186 l 2,-29 c 11,-142 109,-203 245,-192 l 322,24 c 98,7 180,46 207,127 20,-15 47,-25 79,-29 l 377,-48 c 20,-3 40,5 52,20 24,-24 56,-43 96,-56 l 244,-83 c 48,-17 96,-21 137,-10 2,-19 13,-38 32,-47 l 121,-62 c 29,-15 65,-4 80,25 l 125,245 c 1,0 1,0 2,-1 l 122,-62 c 0,0 1,0 1,-1 l -125,-245 c -15,-29 -4,-64 25,-79 l 122,-62 c 0,-1 1,-1 1,-1 4,-5 8,-10 13,-14 l 322,-253 c 41,-32 82,-50 123,-52 -13,-22 -10,-51 8,-71 l 95,-99 c 12,-13 30,-19 46,-18 l 290,-408 c 7,-9 16,-16 25,-20 z m -1350,1397 c -5,3 -9,5 -14,7 l -316,107 c -1,0 -1,0 -2,0 l 36,104 c 0,0 1,0 1,0 l 316,-107 c 12,-4 24,-5 35,-1 l -56,-110 z m -560,234 -19,-55 c 0,0 0,0 0,0 l -12,2 31,53 z m -548,-16 -6,-45 c 0,-1 0,-2 0,-3 -1,0 -3,0 -4,0 l -48,-3 c 23,14 43,31 58,51 z m -1128,-132 3,92 c 0,12 -3,22 -8,32 13,16 18,38 10,59 l -39,99 c -12,30 -47,45 -77,33 l -353,-139 c -87,-34 -119,-108 -85,-195 l 72,-182 c -5,-2 -9,-4 -13,-6 l -107,-61 -137,238 c -16,28 -53,38 -81,22 l -118,-68 c -29,-17 -38,-53 -22,-81 l 137,-238 -107,-62 c -28,-16 -38,-52 -22,-81 l 53,-92 c 17,-28 53,-38 81,-21 l 435,249 c 17,10 27,28 29,47 27,-5 57,-1 90,11 l 353,140 c 30,12 45,46 33,76 l -39,99 c -12,30 -46,45 -76,33 l -12,-4 z m -1509,-767 363,-145 c 21,-8 43,-5 60,10 l 115,100 c 17,14 24,36 19,58 l -116,482 c -5,21 -20,36 -40,43 -20,6 -40,2 -57,-12 l -103,-90 c -17,-14 -24,-35 -19,-57 l 11,-50 -80,-69 c -18,-16 -25,-40 -17,-63 l 0,-1 -88,32 c -21,8 -43,4 -59,-10 l -104,-90 c -16,-14 -23,-33 -19,-54 0,-1 0,-1 0,-1 -15,-2 -29,-10 -39,-22 l -85,-108 c -20,-26 -15,-63 10,-83 l 50,-39 c -1,0 -1,-1 -1,-1 l -94,-119 c -1,-1 -1,-1 -1,-2 l -50,39 c -25,20 -62,16 -82,-10 l -85,-107 c -20,-26 -16,-63 10,-83 l 42,-34 c -76,10 -138,-35 -179,-114 l -138,-271 c -53,-103 -36,-201 71,-256 l 14,-8 c -52,-18 -88,-68 -107,-134 l -61,-213 c 0,-1 0,-1 0,-2 l -60,17 c -32,9 -64,-9 -73,-40 l -38,-132 c -8,-29 7,-59 34,-70 -30,-1 -56,-24 -58,-55 l -11,-136 c -2,-33 22,-61 55,-64 l 62,-4 c 0,-1 0,-2 0,-2 l -11,-151 c 0,-1 -1,-2 -1,-2 l -62,5 c -32,2 -61,-22 -63,-55 l -11,-136 c -2,-33 22,-61 55,-63 l 54,-5 c -71,-31 -102,-102 -95,-192 l 23,-303 c 8,-109 67,-181 174,-182 -98,-56 -114,-156 -78,-264 l 104,-306 c 44,-129 138,-196 274,-150 l 233,79 c 136,46 170,156 126,286 l -103,306 c -33,96 -94,168 -186,168 12,30 16,66 13,106 l -23,302 c -4,52 -19,96 -46,127 18,9 31,27 32,49 l 31,408 c 4,44 -2,82 -16,114 15,7 27,21 32,38 l 112,394 c 18,63 14,119 -13,163 47,15 86,53 114,109 l 138,270 c 21,41 31,81 29,118 15,2 30,9 40,22 l 254,323 c 71,91 74,191 -21,265 l -72,57 c -17,13 -36,23 -55,28 -8,15 -20,29 -34,42 z m -799,-3048 132,10 c 17,1 33,4 48,8 l 131,-388 c 2,-3 4,-10 5,-16 l -156,-53 c -3,5 -5,12 -7,16 l -133,395 c -4,11 -11,21 -20,28 z m -41,252 c 0,1 0,1 0,2 l -14,182 c 0,0 0,1 0,1 l 110,8 c 0,0 0,-1 0,-1 l 14,-182 c 0,0 0,-1 0,-2 l -110,-8 z m 290,1876 c 1,0 1,1 1,1 l 83,162 c 0,1 1,1 1,2 l 98,-50 c -1,-1 -1,-1 -1,-2 l -83,-162 c 0,0 -1,-1 -1,-1 l -98,50 z"
       id="path3521"
       inkscape:connector-curvature="0"
       style="fill:#000000" /><path
       class="fil5"
       d="m -3348,10258 c -81,-35 -105,-103 -71,-204 l 104,-306 c 36,-108 102,-145 198,-113 l 234,79 c 96,33 126,103 89,211 l -103,306 c -37,107 -96,147 -180,118 l -1,0 134,-395 c 16,-48 6,-78 -30,-90 l -162,-55 c -35,-12 -61,6 -78,54 l -134,395 z m 271,260 -23,303 c -7,91 -50,134 -131,127 l -197,-15 c -81,-6 -118,-54 -111,-145 l 23,-303 c 7,-91 51,-133 132,-127 l 197,15 c 80,6 117,55 110,145 z m -151,-11 -136,-10 c -30,-3 -47,16 -50,57 l -14,181 c -3,41 10,62 41,64 l 136,11 c 30,2 47,-17 50,-57 l 14,-182 c 3,-41 -11,-62 -41,-64 z m -71,857 c 3,41 19,60 50,57 l 15,-1 c 30,-2 44,-23 41,-64 l -17,-212 -333,25 -10,-136 439,-33 31,409 c 7,91 -30,139 -111,145 l -90,7 c -31,2 -52,-6 -63,-26 -9,21 -28,33 -59,35 l -106,8 -10,-136 76,-6 c 30,-2 44,-23 41,-64 l -12,-151 103,-54 15,197 z m 351,604 c 25,88 -1,143 -79,165 l -88,25 c -68,19 -114,-12 -137,-94 l -60,-213 89,-73 54,190 c 11,39 31,54 61,46 l 14,-4 c 30,-8 39,-32 28,-71 l -59,-205 -321,92 -37,-132 423,-120 112,394 z m 105,285 139,270 c 41,81 26,140 -46,177 l -176,90 c -72,37 -129,15 -170,-66 l -139,-270 c -41,-81 -26,-141 46,-177 l 176,-90 c 72,-37 129,-15 170,66 z m -135,69 -121,62 c -27,14 -32,39 -13,75 l 83,163 c 18,36 41,47 68,33 l 122,-63 c 27,-13 31,-38 13,-74 l -84,-163 c -18,-36 -41,-47 -68,-33 z m 394,758 c 25,32 49,39 73,20 l 12,-9 c 24,-19 24,-44 -1,-76 l -132,-168 -263,207 -84,-108 346,-272 254,323 c 56,71 52,132 -11,182 l -72,57 c -24,18 -46,23 -67,13 5,22 -4,43 -29,62 l -83,65 -85,-107 60,-47 c 24,-19 23,-44 -2,-76 l -94,-119 56,-102 122,155 z m 393,465 29,-135 -325,119 -103,-89 460,-184 115,100 -116,482 -103,-90 18,-85 -106,-92 35,-110 96,84 z m 341,-32 434,250 -52,92 -435,-249 53,-93 z m 97,197 104,94 -144,250 -119,-68 159,-276 z m 467,120 353,139 -38,99 -311,-122 -84,212 311,122 -39,99 -353,-139 c -57,-22 -74,-62 -52,-118 l 95,-241 c 22,-56 62,-73 118,-51 z m 222,267 3,116 -226,-90 -4,-115 227,89 z m 700,-123 322,24 c 114,9 167,57 160,146 l -416,-32 c -51,-4 -77,7 -79,32 l 0,0 c -1,19 23,30 74,34 l 245,38 c 112,21 165,76 158,164 l -2,29 c -8,101 -68,147 -182,138 l -322,-24 c -113,-9 -167,-57 -160,-146 l 435,33 c 38,3 58,-8 61,-33 1,-19 -17,-30 -56,-33 l -263,-39 c -113,-21 -166,-76 -159,-164 l 2,-29 c 8,-101 68,-147 182,-138 z m 620,118 377,-47 13,105 -331,42 29,226 331,-42 13,105 -376,48 c -61,8 -95,-18 -102,-79 l -33,-256 c -7,-60 19,-94 79,-102 z m 323,128 58,100 -241,30 -58,-100 241,-30 z m 696,-20 c 18,69 -14,117 -95,144 l -244,83 c -87,29 -143,5 -169,-71 l -63,-187 c -26,-77 4,-130 91,-159 l 244,-83 c 86,-29 140,-10 163,56 l 0,1 -316,107 c -38,13 -53,34 -43,63 l 44,129 c 10,29 34,37 72,24 l 316,-107 z m 289,-519 121,-62 146,283 c 37,73 15,129 -66,171 l -230,118 c -81,41 -141,26 -177,-46 l -146,-284 122,-62 131,257 c 14,26 39,31 75,12 l 122,-62 c 36,-18 47,-41 33,-68 l -131,-257 z m 551,-126 c 32,-25 38,-50 19,-74 l -9,-12 c -19,-24 -44,-23 -76,2 l -167,131 206,263 -107,85 -272,-347 322,-253 c 72,-56 133,-53 183,11 l 56,72 c 19,24 23,46 13,67 23,-5 43,4 62,28 l 66,84 -108,84 -47,-59 c -18,-24 -44,-24 -76,1 l -119,94 -101,-55 155,-122 z m 52,-337 95,-99 319,304 -95,99 -319,-304 z m 149,-122 290,-409 87,62 -291,408 -86,-61 z m 204,-79 104,-93 236,167 -80,111 -260,-185 z m 396,-522 -88,-208 69,-135 130,322 159,82 -63,121 -159,-81 -337,83 70,-135 219,-49 z m 59,-1181 21,-170 396,51 c 100,12 144,75 129,188 l -41,321 c -14,113 -71,163 -172,150 l -395,-50 21,-170 358,46 c 37,4 60,-18 66,-69 l 22,-169 c 6,-50 -10,-78 -47,-83 l -358,-45 z m 133,-322 c -3,-40 9,-77 37,-110 l 240,-246 -302,23 -11,-137 439,-33 10,121 c 3,41 -10,77 -38,110 l -240,246 303,-23 10,137 -439,33 -9,-121 z m -44,-513 -31,-133 429,-100 31,134 -429,99 z m -33,-207 -161,-475 101,-34 160,475 -100,34 z m 56,-212 -15,-139 274,-92 43,129 -302,102 z"
       id="path3523"
       inkscape:connector-curvature="0"
       style="fill:#f99c10;fill-rule:nonzero" /></g></svg>