<?xml version="1.0" encoding="UTF-8" standalone="no"?>
<!-- Creator: CorelDRAW X7 -->

<svg
   xmlns:dc="http://purl.org/dc/elements/1.1/"
   xmlns:cc="http://creativecommons.org/ns#"
   xmlns:rdf="http://www.w3.org/1999/02/22-rdf-syntax-ns#"
   xmlns:svg="http://www.w3.org/2000/svg"
   xmlns="http://www.w3.org/2000/svg"
   xmlns:sodipodi="http://sodipodi.sourceforge.net/DTD/sodipodi-0.dtd"
   xmlns:inkscape="http://www.inkscape.org/namespaces/inkscape"
   xml:space="preserve"
   width="7.8740005in"
   height="7.8740005in"
   version="1.1"
   style="clip-rule:evenodd;fill-rule:evenodd;image-rendering:optimizeQuality;shape-rendering:geometricPrecision;text-rendering:geometricPrecision"
   viewBox="0 0 7874.0005 7874.0005"
   id="svg2"
   inkscape:version="0.91 r13725"
   sodipodi:docname="Mercs - Anaconda Mercenary TAG Squadron - [N3] [Vyo].svg"><metadata
     id="metadata79"><rdf:RDF><cc:Work
         rdf:about=""><dc:format>image/svg+xml</dc:format><dc:type
           rdf:resource="http://purl.org/dc/dcmitype/StillImage" /></cc:Work></rdf:RDF></metadata><sodipodi:namedview
     pagecolor="#ffffff"
     bordercolor="#666666"
     borderopacity="1"
     objecttolerance="10"
     gridtolerance="10"
     guidetolerance="10"
     inkscape:pageopacity="0"
     inkscape:pageshadow="2"
     inkscape:window-width="640"
     inkscape:window-height="480"
     id="namedview77"
     showgrid="false"
     inkscape:zoom="0.23838384"
     inkscape:cx="736.83001"
     inkscape:cy="849.33005"
     inkscape:window-x="0"
     inkscape:window-y="0"
     inkscape:window-maximized="0"
     inkscape:current-layer="svg2" /><defs
     id="defs4"><style
       type="text/css"
       id="style6"><![CDATA[
    .fil2 {fill:none}
    .fil0 {fill:black}
    .fil4 {fill:#40C040}
    .fil3 {fill:#E2001A}
    .fil1 {fill:white;fill-rule:nonzero}
   ]]></style></defs><g
     id="Layer_x0020_1"
     transform="translate(3937,-7063)"><metadata
       id="CorelCorpID_0Corel-Layer" /><circle
       class="fil0"
       cy="11000"
       r="3937"
       id="circle10"
       cx="0"
       style="fill:#000000" /><path
       class="fil1"
       d="m -2303,8807 108,-97 -22,-81 196,-175 80,29 107,-96 -455,-160 -125,112 111,468 z m 17,-451 168,63 -123,110 -45,-173 z"
       id="path12"
       inkscape:connector-curvature="0"
       style="fill:#ffffff;fill-rule:nonzero" /><polygon
       id="1"
       class="fil1"
       points="-1824,8038 -1461,8185 -1287,8086 -1494,7719 -1607,7783 -1456,8050 -1457,8050 -1820,7903 -1995,8001 -1787,8369 -1674,8305 -1825,8038 "
       style="fill:#ffffff;fill-rule:nonzero" /><path
       id="2"
       class="fil1"
       d="m -1243,8067 138,-44 13,-83 250,-80 61,58 137,-44 -350,-331 -160,52 -89,472 z m 198,-405 129,126 -158,50 29,-176 z"
       inkscape:connector-curvature="0"
       style="fill:#ffffff;fill-rule:nonzero" /><path
       id="3"
       class="fil1"
       d="m -623,7737 c 4,30 12,54 23,73 11,19 25,33 42,42 17,8 37,14 60,15 23,2 49,0 80,-4 l 207,-28 c 31,-4 57,-11 76,-20 20,-9 35,-20 44,-33 10,-13 16,-27 18,-42 2,-16 2,-33 -1,-52 l -5,-39 -128,17 c 1,13 2,24 0,32 -1,8 -5,14 -10,19 -5,4 -12,8 -21,10 -8,3 -21,5 -37,7 l -136,19 c -30,4 -50,1 -62,-10 -11,-11 -19,-32 -23,-64 l -7,-45 c -3,-29 -1,-50 8,-66 9,-15 30,-25 61,-29 l 140,-19 c 20,-3 35,-2 46,2 11,5 17,14 19,28 l 2,12 128,-18 c -4,-32 -10,-57 -18,-76 -7,-19 -19,-33 -35,-43 -16,-10 -37,-16 -65,-17 -27,-2 -63,1 -108,7 l -151,21 c -31,4 -57,10 -79,17 -21,8 -39,18 -53,31 -14,14 -24,31 -30,52 -5,21 -6,46 -2,76 l 17,125 z"
       inkscape:connector-curvature="0"
       style="fill:#ffffff;fill-rule:nonzero" /><path
       id="4"
       class="fil1"
       d="m 27,7674 c -3,30 -1,56 6,76 7,21 17,38 32,50 15,12 33,22 55,28 22,7 48,11 79,14 l 207,17 c 31,2 58,2 80,-1 23,-2 43,-9 60,-19 16,-10 30,-24 40,-43 9,-19 15,-44 18,-74 l 10,-125 c 3,-31 1,-56 -6,-77 -6,-20 -17,-37 -32,-49 -15,-12 -33,-22 -55,-28 -22,-7 -48,-11 -79,-14 l -207,-17 c -31,-3 -58,-3 -80,0 -23,3 -43,9 -59,19 -17,10 -30,24 -40,44 -10,19 -16,44 -19,74 l -10,125 z m 139,-74 c 2,-29 10,-50 22,-63 12,-12 34,-17 66,-15 l 151,13 c 32,2 52,11 62,26 10,14 14,36 12,65 l -4,45 c -3,32 -10,53 -20,65 -11,11 -31,16 -61,13 l -165,-14 c -29,-2 -48,-10 -57,-23 -9,-13 -12,-35 -10,-67 l 4,-45 z"
       inkscape:connector-curvature="0"
       style="fill:#ffffff;fill-rule:nonzero" /><polygon
       id="5"
       class="fil1"
       points="894,7631 1027,7999 1217,8063 1351,7663 1229,7621 1131,7912 1130,7912 997,7544 807,7480 673,7880 795,7921 893,7630 "
       style="fill:#ffffff;fill-rule:nonzero" /><path
       id="6"
       class="fil1"
       d="m 1305,8096 341,191 c 55,32 100,44 134,37 34,-7 64,-33 90,-79 l 63,-112 c 26,-46 33,-86 21,-118 -12,-33 -45,-65 -101,-96 l -341,-192 -207,369 z m 269,-214 200,113 c 24,14 39,28 44,43 5,15 0,35 -15,61 l -28,50 c -14,25 -29,40 -44,44 -15,3 -35,-2 -60,-16 l -200,-112 103,-183 z"
       inkscape:connector-curvature="0"
       style="fill:#ffffff;fill-rule:nonzero" /><path
       id="7"
       class="fil1"
       d="m 1831,8394 110,94 77,-32 199,170 -18,83 110,94 98,-472 -128,-110 -448,173 z m 448,-44 -39,175 -126,-107 165,-68 z"
       inkscape:connector-curvature="0"
       style="fill:#ffffff;fill-rule:nonzero" /><path
       class="fil1"
       d="m -3630,10223 -16,125 301,39 0,1 -323,129 -13,97 279,207 0,1 -301,-39 -16,125 419,54 26,-197 -251,-180 288,-110 26,-198 -419,-54 z m -79,789 35,468 102,-7 -26,-339 67,-6 24,315 87,-7 -24,-314 68,-5 25,331 98,-7 -35,-461 -421,32 z m 382,616 46,198 c 5,21 5,36 2,46 -4,10 -15,17 -32,21 l -14,4 c -15,3 -27,2 -35,-4 -9,-5 -15,-16 -19,-33 l -48,-209 100,-23 z m -338,-55 29,127 107,-25 46,198 c 4,20 3,35 -4,44 -6,9 -20,16 -42,21 l -49,12 29,126 70,-16 c 16,-4 29,-9 40,-15 10,-6 18,-13 23,-20 5,-8 8,-16 10,-25 2,-9 2,-19 2,-30 l 1,0 c 13,26 28,42 46,48 18,6 42,6 71,-1 l 27,-6 c 19,-5 35,-11 49,-18 14,-7 25,-17 34,-29 8,-11 13,-26 15,-43 3,-17 1,-38 -5,-62 l -88,-381 -411,95 z m 284,538 c -28,11 -50,25 -66,40 -15,15 -25,32 -30,51 -4,18 -5,39 -1,62 4,22 12,48 24,77 l 77,194 c 11,29 24,52 37,69 14,17 28,28 43,34 14,7 30,9 45,8 16,-2 32,-6 50,-14 l 37,-14 -48,-121 c -12,5 -22,8 -30,9 -8,0 -15,-2 -21,-5 -6,-4 -11,-10 -15,-18 -5,-8 -10,-20 -16,-34 l -51,-129 c -11,-27 -12,-48 -5,-62 8,-13 27,-26 56,-38 l 43,-17 c 26,-10 48,-13 65,-8 17,5 31,23 43,52 l 52,131 c 8,19 11,34 9,46 -2,12 -9,20 -23,25 l -10,5 47,120 c 31,-12 54,-24 70,-36 16,-12 28,-27 33,-44 6,-18 7,-40 2,-67 -5,-27 -16,-62 -33,-104 l -56,-142 c -12,-29 -24,-53 -36,-72 -13,-19 -27,-34 -43,-44 -17,-11 -36,-16 -57,-17 -22,0 -47,5 -75,17 l -117,46 z m 114,648 254,395 85,-55 -184,-286 57,-37 170,265 74,-47 -170,-265 57,-37 179,280 83,-53 -250,-389 -355,229 z m 306,472 84,98 232,-200 1,1 -73,384 131,152 320,-276 -85,-98 -232,201 -1,-1 73,-385 -131,-152 -319,276 z m 420,478 114,89 76,-35 207,162 -15,84 114,89 78,-476 -133,-104 -441,191 z m 447,-62 -32,177 -131,-103 163,-74 z m 376,267 175,101 c 19,11 31,21 36,31 4,9 2,22 -7,37 l -7,12 c -7,14 -16,22 -26,24 -10,2 -22,-1 -37,-9 l -186,-107 52,-89 z m -271,210 112,64 55,-95 176,102 c 18,11 28,21 30,32 2,12 -2,27 -13,46 l -26,44 112,65 36,-62 c 9,-15 14,-28 17,-40 3,-11 3,-22 0,-30 -2,-9 -5,-18 -11,-25 -5,-7 -12,-14 -20,-21 l 0,-1 c 28,8 51,8 67,-1 17,-9 33,-27 48,-53 l 13,-23 c 10,-17 17,-34 21,-49 4,-15 5,-30 2,-44 -2,-14 -9,-28 -21,-41 -11,-13 -27,-26 -48,-38 l -339,-196 -211,366 z m 720,353 122,42 48,-139 311,-184 -148,-51 -191,117 -78,-210 -148,-51 132,337 -48,139 z m 696,-129 182,14 -25,317 130,9 24,-316 181,14 8,-105 -492,-37 -8,104 z m 456,371 144,-11 32,-77 262,-20 45,71 144,-11 -263,-403 -168,13 -196,438 z m 287,-347 96,152 -166,12 70,-164 z m 359,152 c 7,29 16,53 29,70 13,18 28,30 46,38 18,7 38,10 61,10 23,-1 49,-4 80,-11 l 151,-35 c 42,-10 74,-19 97,-26 23,-7 41,-17 55,-29 15,-11 24,-26 27,-45 4,-18 3,-42 -4,-71 l -27,-117 -283,65 20,85 157,-36 2,12 c 3,9 3,18 0,25 -2,6 -6,12 -11,16 -5,5 -12,9 -19,11 -7,3 -16,6 -25,8 l -135,31 c -17,4 -30,6 -41,6 -10,0 -19,-3 -27,-8 -7,-4 -13,-12 -18,-22 -5,-11 -10,-25 -14,-43 l -12,-51 c -4,-18 -6,-33 -6,-45 0,-11 2,-21 7,-28 4,-8 11,-14 21,-19 9,-4 22,-9 39,-13 l 137,-31 c 22,-5 39,-6 51,-3 11,4 19,15 23,34 l 124,-29 -3,-13 c -5,-22 -12,-40 -19,-55 -8,-15 -18,-26 -32,-35 -14,-8 -32,-13 -56,-14 -23,-1 -52,2 -87,10 l -190,44 c -30,7 -55,15 -76,25 -21,9 -38,21 -51,35 -12,15 -21,33 -24,54 -4,22 -2,47 5,77 l 28,123 z m 885,-212 c 10,20 21,36 34,46 12,10 26,16 41,17 16,2 33,-1 53,-7 20,-6 43,-17 70,-31 l 140,-72 c 40,-21 71,-39 93,-54 22,-15 38,-30 47,-45 9,-15 12,-32 10,-49 -3,-18 -11,-40 -24,-66 -14,-28 -29,-48 -43,-60 -14,-13 -31,-19 -51,-19 -19,0 -44,6 -72,18 -28,11 -67,30 -116,55 -33,17 -59,30 -77,38 -18,9 -32,14 -42,16 -10,3 -17,3 -22,0 -5,-3 -10,-8 -14,-16 -5,-10 -5,-19 1,-28 5,-9 14,-17 28,-24 l 127,-66 c 25,-13 42,-18 51,-16 9,2 17,11 25,26 l 115,-59 -6,-12 c -9,-19 -19,-34 -29,-45 -10,-12 -22,-19 -36,-24 -15,-5 -33,-4 -56,1 -22,5 -49,15 -81,32 l -161,83 c -35,18 -61,36 -79,52 -17,17 -28,33 -33,48 -4,16 -4,31 1,46 4,14 11,32 22,53 13,25 25,43 37,55 11,11 25,18 42,19 17,2 39,-2 65,-12 27,-10 63,-26 107,-49 42,-22 73,-37 93,-47 20,-9 35,-15 46,-19 12,-3 20,-3 26,-1 5,3 10,9 15,18 7,13 7,24 0,32 -6,9 -17,17 -33,25 l -141,73 c -19,10 -33,14 -42,12 -10,-1 -20,-11 -30,-29 l -115,59 14,26 z m 560,-456 c -18,-22 -27,-43 -27,-60 1,-18 13,-37 38,-56 l 120,-94 c 25,-19 46,-27 63,-23 18,4 35,17 53,40 l 26,34 -142,16 10,101 142,-16 1,1 c -1,0 -3,2 -7,5 -3,3 -6,5 -8,7 l -131,102 c -23,18 -43,26 -58,22 -15,-3 -33,-18 -52,-43 l -28,-36 z m -53,150 c 19,24 38,41 57,51 19,11 38,16 57,15 19,-1 39,-6 60,-17 20,-10 43,-24 67,-43 l 164,-128 c 23,-19 43,-36 57,-53 15,-17 25,-34 31,-51 l 54,-7 -9,-100 -60,7 c -5,-9 -11,-20 -21,-31 l -77,-100 c -19,-23 -37,-41 -56,-52 -19,-10 -38,-15 -57,-14 -20,1 -40,7 -60,17 -21,10 -43,24 -68,44 l -163,127 c -25,19 -45,38 -60,55 -14,17 -25,35 -30,54 -6,18 -5,38 0,59 6,21 18,43 37,67 l 77,100 z m 507,-409 c 38,37 76,53 114,50 38,-3 77,-26 118,-68 l 127,-135 c 41,-43 62,-83 63,-121 1,-38 -17,-75 -56,-111 l -196,-188 -90,94 177,168 c 19,19 29,36 30,52 1,16 -8,33 -26,52 l -88,93 c -18,19 -36,29 -51,29 -16,0 -34,-9 -53,-28 l -177,-168 -89,94 197,187 z m 515,-330 78,-122 -43,-72 141,-221 85,6 77,-121 -481,-32 -90,142 233,420 z m -106,-438 179,15 -89,139 -90,-154 z m 480,-149 142,-364 c 24,-60 30,-106 18,-139 -11,-33 -41,-59 -91,-78 l -119,-47 c -49,-19 -89,-21 -120,-4 -31,16 -57,54 -81,114 l -142,364 393,154 z m -248,-237 83,-214 c 11,-26 23,-43 37,-50 14,-6 35,-4 62,6 l 53,21 c 28,11 44,23 50,38 6,14 3,35 -7,61 l -84,214 -194,-76 z m 204,-576 45,-197 c 5,-22 11,-36 19,-43 8,-8 20,-9 38,-5 l 13,3 c 15,3 26,9 31,18 5,9 6,22 2,38 l -48,209 -100,-23 z m 280,197 29,-126 -107,-25 46,-198 c 4,-20 12,-32 22,-38 10,-5 25,-5 47,0 l 49,11 29,-126 -69,-16 c -17,-4 -31,-6 -43,-5 -12,1 -22,4 -30,9 -7,4 -14,10 -20,18 -5,7 -10,15 -14,25 l -1,0 c 0,-29 -7,-50 -21,-63 -13,-14 -35,-24 -64,-31 l -27,-6 c -19,-4 -36,-6 -52,-5 -16,0 -30,4 -43,11 -12,7 -23,17 -33,32 -9,15 -17,34 -22,58 l -88,381 412,94 z m -11,-600 c 30,1 56,-3 76,-11 20,-8 36,-19 47,-35 12,-15 20,-34 25,-57 5,-22 8,-48 9,-80 l 5,-207 c 0,-31 -1,-58 -5,-81 -5,-22 -12,-41 -23,-58 -11,-16 -26,-28 -46,-37 -19,-8 -44,-13 -75,-14 l -126,-3 c -30,0 -55,3 -76,11 -20,8 -36,19 -47,35 -11,16 -20,35 -25,57 -5,22 -8,49 -9,80 l -4,208 c -1,31 0,58 4,80 4,22 12,42 23,58 11,16 26,28 46,37 20,9 45,13 75,14 l 126,3 z m -83,-135 c -28,-1 -50,-7 -63,-18 -14,-11 -20,-33 -19,-65 l 3,-151 c 1,-32 8,-54 22,-64 14,-11 36,-16 64,-16 l 46,1 c 32,1 54,7 66,17 12,10 18,30 17,59 l -4,166 c -1,30 -7,49 -20,59 -12,9 -34,14 -66,13 l -46,-1 z m 246,-535 -17,-128 -304,39 0,-1 273,-281 -26,-199 -419,55 17,128 304,-39 0,1 -273,281 26,199 419,-55 z"
       id="path21"
       inkscape:connector-curvature="0"
       style="fill:#ffffff;fill-rule:nonzero" /><circle
       class="fil2"
       cy="11000"
       r="3898"
       id="circle23"
       cx="0"
       style="fill:none" /><circle
       class="fil2"
       cy="11000"
       r="3898"
       id="circle25"
       cx="0"
       style="fill:none" /><circle
       class="fil3"
       cy="11000"
       r="2953"
       id="circle27"
       cx="0"
       style="fill:#e2001a" /><g
       id="_879561456"><path
         class="fil0"
         d="m -1328,9418 c -75,-63 210,-368 285,-469 67,-90 433,-626 1338,-626 748,0 1820,404 1752,472 -45,46 -453,-256 -1279,-256 -1122,0 -1945,1006 -2096,879 z"
         id="path30"
         inkscape:connector-curvature="0"
         style="fill:#000000" /><path
         class="fil0"
         d="m -2057,10820 c -98,9 -112,-408 -131,-533 -16,-111 -137,-749 504,-1389 529,-529 1573,-1001 1573,-905 0,64 -501,140 -1086,724 -793,794 -664,2087 -860,2103 z"
         id="path32"
         inkscape:connector-curvature="0"
         style="fill:#000000" /><path
         class="fil0"
         d="m -1582,12328 c -63,75 -368,-210 -469,-285 -90,-67 -626,-433 -626,-1338 0,-748 404,-1820 472,-1752 46,45 -256,453 -256,1279 0,1122 1006,1945 879,2096 z"
         id="path34"
         inkscape:connector-curvature="0"
         style="fill:#000000" /><path
         class="fil0"
         d="m -180,13057 c 9,98 -408,112 -533,131 -111,16 -749,137 -1389,-504 -529,-529 -1001,-1573 -905,-1573 64,0 140,501 724,1086 794,793 2087,664 2103,860 z"
         id="path36"
         inkscape:connector-curvature="0"
         style="fill:#000000" /><path
         class="fil0"
         d="m 1328,12582 c 75,63 -210,368 -285,469 -67,90 -433,626 -1338,626 -748,0 -1820,-404 -1752,-472 45,-46 453,256 1279,256 1122,0 1945,-1006 2096,-879 z"
         id="path38"
         inkscape:connector-curvature="0"
         style="fill:#000000" /><path
         class="fil0"
         d="m 2057,11180 c 98,-9 112,408 131,533 16,111 137,749 -504,1389 -529,529 -1573,1001 -1573,905 0,-64 501,-140 1086,-724 793,-794 664,-2087 860,-2103 z"
         id="path40"
         inkscape:connector-curvature="0"
         style="fill:#000000" /><path
         class="fil0"
         d="m 1582,9672 c 63,-75 368,210 469,285 90,67 626,433 626,1338 0,748 -404,1820 -472,1752 -46,-45 256,-453 256,-1279 0,-1122 -1006,-1945 -879,-2096 z"
         id="path42"
         inkscape:connector-curvature="0"
         style="fill:#000000" /><path
         class="fil0"
         d="m 180,8943 c -9,-98 408,-112 533,-131 111,-16 749,-137 1389,504 529,529 1001,1573 905,1573 -64,0 -140,-501 -724,-1086 C 1489,9010 196,9139 180,8943 Z"
         id="path44"
         inkscape:connector-curvature="0"
         style="fill:#000000" /></g><path
       class="fil0"
       d="m 1629,11066 c 65,0 97,66 113,120 17,57 26,121 33,181 6,43 10,87 14,130 3,31 5,63 9,93 3,17 6,35 9,52 5,29 9,58 11,88 7,87 4,174 -11,260 -49,286 -212,533 -415,736 -88,88 -185,169 -285,243 -224,167 -482,315 -738,427 -85,37 -177,74 -267,97 -26,7 -55,13 -82,15 -33,1 -70,-9 -86,-42 -5,-9 -7,-20 -7,-30 0,-59 67,-83 112,-101 67,-27 133,-53 199,-83 235,-109 442,-259 625,-442 310,-310 475,-685 560,-1110 14,-73 27,-147 38,-221 9,-60 17,-121 27,-181 12,-72 29,-200 110,-227 10,-3 20,-5 31,-5 z"
       id="path46"
       inkscape:connector-curvature="0"
       style="fill:#000000" /><path
       class="fil0"
       d="m 1105,12198 c 46,47 22,115 -5,165 -28,53 -67,105 -104,152 -27,34 -55,68 -83,101 -19,24 -40,48 -59,73 -10,14 -20,29 -30,43 -17,24 -35,47 -55,70 -56,66 -120,125 -191,175 -237,168 -528,228 -814,228 -125,0 -250,-11 -373,-29 -277,-41 -564,-119 -824,-221 -86,-34 -178,-73 -258,-120 -23,-14 -48,-29 -68,-47 -25,-23 -43,-56 -32,-91 4,-10 9,-19 17,-26 42,-42 106,-12 151,8 66,28 131,57 199,81 244,90 495,130 755,130 438,0 820,-149 1180,-389 62,-41 123,-85 183,-129 49,-37 98,-74 147,-109 60,-43 163,-121 239,-83 9,5 17,11 25,18 z"
       id="path48"
       inkscape:connector-curvature="0"
       style="fill:#000000" /><path
       class="fil0"
       d="m -66,12629 c 0,65 -66,97 -120,113 -57,17 -121,26 -181,33 -43,6 -87,10 -130,14 -31,3 -63,5 -93,9 -17,3 -35,6 -52,9 -29,5 -58,9 -88,11 -87,7 -174,4 -260,-11 -286,-49 -533,-212 -736,-415 -88,-88 -169,-185 -243,-285 -167,-224 -315,-482 -427,-738 -37,-85 -74,-177 -97,-267 -7,-26 -13,-55 -15,-82 -1,-33 9,-70 42,-86 9,-5 20,-7 30,-7 59,0 83,67 101,112 27,67 53,133 83,199 109,235 259,442 442,625 310,310 685,475 1110,560 73,14 147,27 221,38 60,9 121,17 181,27 72,12 200,29 227,110 3,10 5,20 5,31 z"
       id="path50"
       inkscape:connector-curvature="0"
       style="fill:#000000" /><path
       class="fil0"
       d="m -1198,12105 c -47,46 -115,22 -165,-5 -53,-28 -105,-67 -152,-104 -34,-27 -68,-55 -101,-83 -24,-19 -48,-40 -73,-59 -14,-10 -29,-20 -43,-30 -24,-17 -47,-35 -70,-55 -66,-56 -125,-120 -175,-191 -168,-237 -228,-528 -228,-814 0,-125 11,-250 29,-373 41,-277 119,-564 221,-824 34,-86 73,-178 120,-258 14,-23 29,-48 47,-68 23,-25 56,-43 91,-32 10,4 19,9 26,17 42,42 12,106 -8,151 -28,66 -57,131 -81,199 -90,244 -130,495 -130,755 0,438 149,820 389,1180 41,62 85,123 129,183 37,49 74,98 109,147 43,60 121,163 83,239 -5,9 -11,17 -18,25 z"
       id="path52"
       inkscape:connector-curvature="0"
       style="fill:#000000" /><path
       class="fil0"
       d="m -1629,10934 c -65,0 -97,-66 -113,-120 -17,-57 -26,-121 -33,-181 -6,-43 -10,-87 -14,-130 -3,-31 -5,-63 -9,-93 -3,-17 -6,-35 -9,-52 -5,-29 -9,-58 -11,-88 -7,-87 -4,-174 11,-260 49,-286 212,-533 415,-736 88,-88 185,-169 285,-243 224,-167 482,-315 738,-427 85,-37 177,-74 267,-97 26,-7 55,-13 82,-15 33,-1 70,9 86,42 5,9 7,20 7,30 0,59 -67,83 -112,101 -67,27 -133,53 -199,83 -235,109 -442,259 -625,442 -310,310 -475,685 -560,1110 -14,73 -27,147 -38,221 -9,60 -17,121 -27,181 -12,72 -29,200 -110,227 -10,3 -20,5 -31,5 z"
       id="path54"
       inkscape:connector-curvature="0"
       style="fill:#000000" /><path
       class="fil0"
       d="m 0,10370 c 32,0 110,-3 131,-34 5,-7 7,-16 7,-25 0,-22 -31,-71 -43,-89 -34,-48 -77,-94 -122,-132 -54,-45 -134,-96 -207,-96 -80,1 -206,75 -269,121 -61,44 -186,151 -186,235 0,43 73,89 105,105 25,12 38,39 31,66 -6,27 -30,46 -57,46 -52,0 -104,-3 -155,-10 -138,-18 -337,-74 -337,-246 0,-189 256,-319 256,-512 0,-140 68,-248 183,-325 390,-259 859,-443 1332,-443 473,0 868,235 1185,570 73,77 137,168 194,257 65,102 124,210 179,318 94,185 180,380 251,575 25,67 49,136 68,205 11,42 31,109 -4,145 -11,10 -23,17 -38,20 -38,6 -67,-19 -87,-48 -18,-25 -33,-53 -46,-80 -45,-85 -86,-171 -132,-255 -146,-269 -326,-520 -564,-716 -310,-255 -712,-479 -1124,-479 -155,0 -374,41 -374,237 0,214 217,351 217,570 0,19 -3,36 -10,53 -28,76 -108,118 -183,130 -83,14 -173,-4 -239,-58 -19,-17 -26,-42 -18,-66 9,-24 31,-39 56,-39 z"
       id="path56"
       inkscape:connector-curvature="0"
       style="fill:#000000" /><path
       class="fil0"
       d="m 1198,9895 c 47,-46 115,-22 165,5 53,28 105,67 152,104 34,27 68,55 101,83 24,19 48,40 73,59 14,10 29,20 43,30 24,17 47,35 70,55 66,56 125,120 175,191 168,237 228,528 228,814 0,125 -11,250 -29,373 -41,277 -119,564 -221,824 -34,86 -73,178 -120,258 -14,23 -29,48 -47,68 -23,25 -56,43 -91,32 -10,-4 -19,-9 -26,-17 -42,-42 -12,-106 8,-151 28,-66 57,-131 81,-199 90,-244 130,-495 130,-755 0,-438 -149,-820 -389,-1180 -41,-62 -85,-123 -129,-183 -37,-49 -74,-98 -109,-147 -43,-60 -121,-163 -83,-239 5,-9 11,-17 18,-25 z"
       id="path58"
       inkscape:connector-curvature="0"
       style="fill:#000000" /><g
       id="_714071424"><path
         class="fil4"
         d="m 0,10429 c 118,99 335,40 335,-79 0,-198 -217,-334 -217,-570 0,-197 177,-296 433,-296 335,0 738,145 1162,492 551,453 728,1142 787,1083 39,-39 -335,-1043 -689,-1417 -288,-304 -666,-551 -1142,-551 -531,0 -1004,236 -1299,433 -118,78 -157,177 -157,275 0,217 -256,355 -256,512 0,158 256,197 433,197 -79,-39 -138,-99 -138,-158 0,-177 354,-413 513,-415 196,-2 432,274 432,376 0,86 -79,118 -197,118 z"
         id="path61"
         inkscape:connector-curvature="0"
         style="fill:#40c040" /><path
         class="fil4"
         d="m 1240,9937 c 59,-59 324,189 414,256 78,59 492,295 492,1043 0,709 -374,1555 -433,1496 -40,-39 236,-374 236,-1063 0,-1043 -827,-1614 -709,-1732 z"
         id="path63"
         inkscape:connector-curvature="0"
         style="fill:#40c040" /><path
         class="fil4"
         d="m 1629,11125 c 83,0 95,363 111,474 14,97 139,556 -390,1085 -501,501 -1364,835 -1364,752 0,-56 432,-98 919,-585 737,-737 557,-1726 724,-1726 z"
         id="path65"
         inkscape:connector-curvature="0"
         style="fill:#40c040" /><path
         class="fil4"
         d="m 1063,12240 c 59,59 -189,324 -256,414 -59,78 -295,492 -1043,492 -709,0 -1555,-374 -1496,-433 39,-40 374,236 1063,236 1043,0 1614,-827 1732,-709 z"
         id="path67"
         inkscape:connector-curvature="0"
         style="fill:#40c040" /><path
         class="fil4"
         d="m -125,12629 c 0,83 -363,95 -474,111 -97,14 -556,139 -1085,-390 -501,-501 -835,-1364 -752,-1364 56,0 98,432 585,919 737,737 1726,557 1726,724 z"
         id="path69"
         inkscape:connector-curvature="0"
         style="fill:#40c040" /><path
         class="fil4"
         d="m -1240,12063 c -59,59 -324,-189 -414,-256 -78,-59 -492,-295 -492,-1043 0,-709 374,-1555 433,-1496 40,39 -236,374 -236,1063 0,1043 827,1614 709,1732 z"
         id="path71"
         inkscape:connector-curvature="0"
         style="fill:#40c040" /><path
         class="fil4"
         d="m -1629,10875 c -83,0 -95,-363 -111,-474 -14,-97 -139,-556 390,-1085 501,-501 1364,-835 1364,-752 0,56 -432,98 -919,585 -737,737 -557,1726 -724,1726 z"
         id="path73"
         inkscape:connector-curvature="0"
         style="fill:#40c040" /></g><path
       class="fil0"
       d="m -394,9563 c -39,0 -118,0 -157,39 -36,36 -40,79 -40,118 68,-27 134,-80 197,-157 z"
       id="path75"
       inkscape:connector-curvature="0"
       style="fill:#000000" /></g></svg>