<?xml version="1.0" encoding="UTF-8" standalone="no"?>
<!-- Creator: CorelDRAW X7 -->

<svg
   xmlns:dc="http://purl.org/dc/elements/1.1/"
   xmlns:cc="http://creativecommons.org/ns#"
   xmlns:rdf="http://www.w3.org/1999/02/22-rdf-syntax-ns#"
   xmlns:svg="http://www.w3.org/2000/svg"
   xmlns="http://www.w3.org/2000/svg"
   xmlns:sodipodi="http://sodipodi.sourceforge.net/DTD/sodipodi-0.dtd"
   xmlns:inkscape="http://www.inkscape.org/namespaces/inkscape"
   xml:space="preserve"
   width="7.8740005in"
   height="7.8740005in"
   version="1.1"
   style="clip-rule:evenodd;fill-rule:evenodd;image-rendering:optimizeQuality;shape-rendering:geometricPrecision;text-rendering:geometricPrecision"
   viewBox="0 0 7874.0005 7874.0005"
   id="svg4647"
   inkscape:version="0.91 r13725"
   sodipodi:docname="Nomads - Tomcats - [N3] [Vyo].svg"><metadata
     id="metadata4675"><rdf:RDF><cc:Work
         rdf:about=""><dc:format>image/svg+xml</dc:format><dc:type
           rdf:resource="http://purl.org/dc/dcmitype/StillImage" /></cc:Work></rdf:RDF></metadata><sodipodi:namedview
     pagecolor="#ffffff"
     bordercolor="#666666"
     borderopacity="1"
     objecttolerance="10"
     gridtolerance="10"
     guidetolerance="10"
     inkscape:pageopacity="0"
     inkscape:pageshadow="2"
     inkscape:window-width="640"
     inkscape:window-height="480"
     id="namedview4673"
     showgrid="false"
     inkscape:zoom="0.23838384"
     inkscape:cx="736.83001"
     inkscape:cy="849.33005"
     inkscape:window-x="0"
     inkscape:window-y="0"
     inkscape:window-maximized="0"
     inkscape:current-layer="svg4647" /><defs
     id="defs4649"><style
       type="text/css"
       id="style4651"><![CDATA[
    .fil0 {fill:black}
    .fil2 {fill:#FFA000}
    .fil1 {fill:white}
    .fil3 {fill:white;fill-rule:nonzero}
   ]]></style></defs><g
     id="Layer_x0020_1"
     transform="translate(3937,-7063)"><metadata
       id="CorelCorpID_0Corel-Layer" /><circle
       class="fil0"
       cy="11000"
       r="3937"
       id="circle4655"
       cx="0"
       style="fill:#000000" /><circle
       class="fil1"
       cy="11000"
       r="3780"
       id="circle4657"
       cx="0"
       style="fill:#ffffff" /><circle
       class="fil0"
       cy="11000"
       r="3406"
       id="circle4659"
       cx="0"
       style="fill:#000000" /><circle
       class="fil2"
       cy="11000"
       r="3268"
       id="circle4661"
       cx="0"
       style="fill:#ffa000" /><path
       class="fil3"
       d="m -2517,11699 0,390 c 0,35 -19,52 -58,52 -39,0 -59,-17 -59,-52 l 0,-390 -184,0 c -33,0 -49,-18 -49,-53 0,-33 16,-50 49,-50 l 486,0 c 32,0 48,17 48,50 0,35 -16,53 -48,53 l -185,0 z"
       id="path4663"
       inkscape:connector-curvature="0"
       style="fill:#ffffff;fill-rule:nonzero" /><path
       id="1"
       class="fil3"
       d="m -1717,11757 c 0,-39 -33,-58 -100,-58 l -179,0 c -72,0 -108,19 -108,58 l 0,222 c 0,38 36,57 108,57 l 174,0 c 70,0 105,-19 105,-57 l 0,-222 z m 117,230 c 0,101 -80,152 -241,152 l -140,0 c -160,0 -241,-51 -241,-151 l 0,-240 c 0,-101 81,-152 241,-152 l 140,0 c 161,0 241,51 241,152 l 0,239 z"
       inkscape:connector-curvature="0"
       style="fill:#ffffff;fill-rule:nonzero" /><path
       id="2"
       class="fil3"
       d="m -620,12089 c 0,35 -19,52 -59,52 -37,0 -56,-17 -56,-52 l 0,-301 -241,319 c -18,23 -40,34 -68,34 -28,0 -51,-11 -68,-34 l -246,-319 0,301 c 0,35 -19,52 -57,52 -39,0 -59,-17 -59,-52 l 0,-432 c 0,-42 21,-63 62,-63 26,0 47,11 66,33 l 303,386 297,-390 c 15,-19 36,-29 62,-29 43,0 64,21 64,64 l 0,431 z"
       inkscape:connector-curvature="0"
       style="fill:#ffffff;fill-rule:nonzero" /><path
       id="3"
       class="fil3"
       d="m -272,11699 c -69,0 -104,14 -104,41 l 0,245 c 0,34 39,51 116,51 l 274,0 c 33,0 49,17 49,51 0,34 -16,52 -49,52 l -284,0 c -149,0 -223,-49 -223,-147 l 0,-257 c 0,-93 73,-139 219,-139 l 288,0 c 33,0 49,17 49,51 0,34 -16,52 -49,52 l -286,0 z"
       inkscape:connector-curvature="0"
       style="fill:#ffffff;fill-rule:nonzero" /><path
       id="4"
       class="fil3"
       d="m 358,11904 247,0 -122,-191 -125,191 z m 305,99 -361,0 -76,115 c -6,8 -13,14 -21,18 -8,3 -17,5 -24,5 -8,0 -15,-1 -22,-4 -7,-3 -13,-7 -19,-11 -6,-5 -11,-11 -14,-17 -3,-7 -5,-14 -5,-22 0,-10 3,-20 9,-30 l 287,-429 c 8,-13 18,-22 30,-28 11,-6 23,-9 36,-9 12,0 24,3 35,9 12,6 22,15 30,28 l 287,428 0,-1 c 7,11 11,21 11,32 0,8 -2,15 -5,21 -4,7 -8,12 -13,17 -6,5 -12,8 -19,11 -7,3 -14,4 -22,4 -9,0 -18,-2 -25,-6 -8,-3 -15,-10 -22,-19 l -77,-112 z"
       inkscape:connector-curvature="0"
       style="fill:#ffffff;fill-rule:nonzero" /><path
       id="5"
       class="fil3"
       d="m 1135,11699 0,390 c 0,35 -19,52 -58,52 -39,0 -59,-17 -59,-52 l 0,-390 -184,0 c -33,0 -49,-18 -49,-53 0,-33 16,-50 49,-50 l 486,0 c 32,0 48,17 48,50 0,35 -16,53 -48,53 l -185,0 z"
       inkscape:connector-curvature="0"
       style="fill:#ffffff;fill-rule:nonzero" /><path
       id="6"
       class="fil3"
       d="m 1996,12003 c 0,90 -69,136 -207,136 l -331,0 c -32,0 -48,-18 -48,-52 0,-34 16,-51 48,-51 l 340,0 c 54,0 81,-15 81,-44 l 0,-30 c 0,-33 -34,-49 -101,-49 l -150,0 c -144,0 -216,-43 -216,-127 l 0,-51 c 0,-93 64,-139 193,-139 l 84,0 c 32,0 49,17 49,52 0,34 -17,51 -49,51 l -95,0 c -43,0 -65,15 -65,47 l 0,22 c 0,29 29,43 87,43 l 154,0 c 151,0 226,46 226,138 l 0,54 z"
       inkscape:connector-curvature="0"
       style="fill:#ffffff;fill-rule:nonzero" /><path
       class="fil0"
       d="m 0,7772 c 1783,0 3228,1445 3228,3228 0,1783 -1445,3228 -3228,3228 -1783,0 -3228,-1445 -3228,-3228 0,-1783 1445,-3228 3228,-3228 z m -1564,562 3021,3020 0,-3080 c 972,520 1634,1546 1634,2726 0,1707 -1384,3091 -3091,3091 -1560,0 -2850,-1156 -3060,-2658 l 4438,0 -3039,-3039 c 32,-21 64,-41 97,-60 z M 1184,8145 C 963,8819 639,9189 433,9189 230,9189 -3,9107 -276,8835 l -750,-751 c 321,-113 666,-175 1026,-175 419,0 819,84 1184,236 z m -4250,3244 c -16,-128 -25,-257 -25,-389 0,-893 380,-1698 986,-2263 l 963,964 c 272,272 355,505 355,708 0,310 -834,884 -2279,980 z"
       id="path4671"
       inkscape:connector-curvature="0"
       style="fill:#000000" /></g></svg>