<?xml version="1.0" encoding="UTF-8" standalone="no"?>
<!-- Creator: CorelDRAW X7 -->

<svg
   xmlns:dc="http://purl.org/dc/elements/1.1/"
   xmlns:cc="http://creativecommons.org/ns#"
   xmlns:rdf="http://www.w3.org/1999/02/22-rdf-syntax-ns#"
   xmlns:svg="http://www.w3.org/2000/svg"
   xmlns="http://www.w3.org/2000/svg"
   xmlns:sodipodi="http://sodipodi.sourceforge.net/DTD/sodipodi-0.dtd"
   xmlns:inkscape="http://www.inkscape.org/namespaces/inkscape"
   xml:space="preserve"
   width="7.8740005in"
   height="7.8740005in"
   version="1.1"
   style="clip-rule:evenodd;fill-rule:evenodd;image-rendering:optimizeQuality;shape-rendering:geometricPrecision;text-rendering:geometricPrecision"
   viewBox="0 0 7874.0005 7874.0005"
   id="svg3849"
   inkscape:version="0.91 r13725"
   sodipodi:docname="Nomads - Lizard Squadron - [N3] [Vyo].svg"><metadata
     id="metadata3889"><rdf:RDF><cc:Work
         rdf:about=""><dc:format>image/svg+xml</dc:format><dc:type
           rdf:resource="http://purl.org/dc/dcmitype/StillImage" /></cc:Work></rdf:RDF></metadata><sodipodi:namedview
     pagecolor="#ffffff"
     bordercolor="#666666"
     borderopacity="1"
     objecttolerance="10"
     gridtolerance="10"
     guidetolerance="10"
     inkscape:pageopacity="0"
     inkscape:pageshadow="2"
     inkscape:window-width="640"
     inkscape:window-height="480"
     id="namedview3887"
     showgrid="false"
     inkscape:zoom="0.23838384"
     inkscape:cx="736.83001"
     inkscape:cy="849.33005"
     inkscape:window-x="0"
     inkscape:window-y="0"
     inkscape:window-maximized="0"
     inkscape:current-layer="svg3849" /><defs
     id="defs3851"><style
       type="text/css"
       id="style3853"><![CDATA[
    .fil2 {fill:none}
    .fil0 {fill:#FFA000}
    .fil1 {fill:white}
    .fil3 {fill:black;fill-rule:nonzero}
   ]]></style></defs><g
     id="Layer_x0020_1"
     transform="translate(3937,-7063)"><metadata
       id="CorelCorpID_0Corel-Layer" /><circle
       class="fil0"
       cy="11000"
       r="3937"
       id="circle3857"
       cx="0"
       style="fill:#ffa000" /><circle
       class="fil1"
       cy="11000"
       r="3780"
       id="circle3859"
       cx="0"
       style="fill:#ffffff" /><ellipse
       class="fil2"
       transform="matrix(0,-1.60976,2.08421,0,3.80704e-5,11000)"
       rx="2421"
       ry="1870"
       id="ellipse3861"
       cx="0"
       cy="0"
       style="fill:none" /><path
       class="fil3"
       d="m -1652,8365 c -132,86 -223,91 -274,13 l -175,-269 c -18,-27 -11,-50 20,-71 31,-19 54,-16 72,11 l 173,265 c 17,27 60,18 128,-26 l 228,-148 c 26,-17 48,-12 66,16 16,25 12,47 -14,63 l -224,146 z"
       id="path3863"
       inkscape:connector-curvature="0"
       style="fill:#000000;fill-rule:nonzero" /><path
       id="1"
       class="fil3"
       d="m -1240,8095 c 13,29 3,51 -30,66 -34,16 -57,9 -70,-20 l -172,-378 c -14,-29 -3,-51 31,-67 32,-15 55,-8 69,21 l 172,378 z"
       inkscape:connector-curvature="0"
       style="fill:#000000;fill-rule:nonzero" /><path
       id="2"
       class="fil3"
       d="m -891,7589 -309,92 c -29,9 -48,-2 -58,-34 -8,-29 2,-48 30,-57 l 423,-126 c 8,-2 15,-2 22,-1 7,1 14,3 20,7 5,3 10,8 15,13 4,6 7,12 9,18 4,14 2,28 -6,40 l -259,411 324,-96 c 28,-9 47,2 56,32 9,31 -1,50 -29,59 l -421,125 c -9,3 -18,4 -26,3 -8,-1 -16,-4 -23,-7 -7,-4 -13,-8 -18,-14 -4,-6 -8,-13 -10,-20 -4,-15 -2,-29 8,-45 l 252,-400 z"
       inkscape:connector-curvature="0"
       style="fill:#000000;fill-rule:nonzero" /><path
       id="3"
       class="fil3"
       d="m -347,7685 230,-19 -128,-168 -102,187 z m 291,69 -335,27 -62,113 c -5,8 -11,14 -19,18 -7,4 -14,6 -22,7 -7,1 -13,0 -20,-2 -7,-2 -13,-5 -19,-9 -6,-4 -10,-9 -14,-15 -4,-6 -6,-13 -6,-20 -1,-9 1,-19 6,-28 l 235,-420 c 6,-12 14,-21 25,-28 10,-6 21,-10 32,-11 12,-1 23,1 34,6 11,5 21,12 29,23 l 300,376 0,-1 c 7,9 11,19 12,29 1,7 -1,14 -3,20 -3,6 -7,12 -11,16 -5,5 -11,9 -17,12 -6,3 -13,5 -20,5 -8,1 -16,0 -24,-3 -7,-3 -14,-8 -21,-16 l -80,-99 z"
       inkscape:connector-curvature="0"
       style="fill:#000000;fill-rule:nonzero" /><path
       id="4"
       class="fil3"
       d="m 757,7606 c 6,-30 -23,-50 -84,-61 l -276,-47 -22,128 287,50 c 54,9 83,3 87,-20 l 8,-50 z m 98,67 c -15,86 -87,117 -216,95 l -75,-13 189,125 c 10,7 16,15 19,23 3,9 4,17 3,26 -1,6 -3,13 -7,18 -3,6 -8,11 -13,15 -5,5 -11,8 -17,9 -7,2 -13,3 -20,2 -8,-2 -15,-5 -22,-10 l 1,0 -338,-245 -24,139 c -5,31 -26,44 -61,38 -37,-6 -52,-25 -47,-57 l 70,-410 c 5,-28 21,-40 49,-35 l 332,57 c 139,24 201,82 185,174 l -8,49 z"
       inkscape:connector-curvature="0"
       style="fill:#000000;fill-rule:nonzero" /><path
       id="5"
       class="fil3"
       d="m 1475,7839 c 11,-28 -13,-53 -70,-75 l -268,-101 -112,295 267,101 c 59,22 94,17 106,-15 l 77,-205 z m 23,248 c -34,88 -113,109 -239,61 L 928,8023 c -26,-10 -34,-28 -24,-55 l 149,-393 c 10,-26 28,-35 54,-25 l 333,126 c 124,47 171,113 139,197 l -81,214 z"
       inkscape:connector-curvature="0"
       style="fill:#000000;fill-rule:nonzero" /><path
       id="6"
       class="fil3"
       d="m 2265,8675 c -55,64 -132,55 -230,-29 l -234,-200 c -23,-20 -25,-42 -4,-67 21,-23 42,-25 65,-6 l 241,206 c 38,33 66,39 84,18 l 19,-22 c 20,-23 6,-55 -42,-96 l -106,-91 c -102,-87 -127,-160 -76,-220 l 31,-36 c 56,-66 129,-59 221,19 l 59,50 c 23,20 24,42 3,67 -20,23 -41,25 -64,5 l -68,-57 c -30,-26 -55,-28 -74,-6 l -14,16 c -17,21 -5,49 36,84 l 108,92 c 107,92 133,170 77,235 l -32,38 z"
       inkscape:connector-curvature="0"
       style="fill:#000000;fill-rule:nonzero" /><path
       id="7"
       class="fil3"
       d="m 2853,9004 c 24,-18 14,-57 -32,-116 l -94,-123 c -45,-57 -79,-76 -103,-58 l -175,135 c -26,20 -16,58 28,115 l 114,148 c 32,42 61,54 86,34 l 176,-135 z m -111,224 c -39,29 -81,35 -124,18 2,11 1,20 -3,28 -3,8 -8,14 -14,18 -5,4 -11,7 -17,8 -6,2 -13,2 -19,2 -6,-1 -12,-3 -18,-6 -7,-3 -12,-7 -16,-13 -3,-3 -5,-7 -7,-12 -2,-4 -3,-9 -4,-14 l -14,-107 -116,-150 c -80,-105 -84,-185 -10,-242 l 179,-138 c 73,-56 150,-32 231,72 l 118,154 c 82,106 86,187 14,242 l -180,140 z"
       inkscape:connector-curvature="0"
       style="fill:#000000;fill-rule:nonzero" /><path
       id="8"
       class="fil3"
       d="m 3084,9899 c -90,41 -169,-14 -238,-164 l -43,-95 c -65,-144 -53,-236 37,-277 l 284,-129 c 29,-14 51,-4 66,30 15,33 8,56 -21,70 l -275,125 c -38,18 -41,62 -9,133 l 53,115 c 35,78 72,108 110,91 l 276,-126 c 29,-13 51,-3 66,30 14,32 7,55 -22,68 l -284,129 z"
       inkscape:connector-curvature="0"
       style="fill:#000000;fill-rule:nonzero" /><path
       id="9"
       class="fil3"
       d="m 3249,10229 39,227 156,-142 -195,-85 z m -43,295 -56,-331 -118,-52 c -9,-4 -15,-9 -20,-17 -5,-7 -8,-14 -9,-21 -1,-7 -1,-13 1,-21 1,-7 4,-13 7,-19 4,-6 8,-11 13,-15 6,-4 12,-7 20,-8 9,-2 19,-1 29,4 l 438,196 c 12,6 22,13 30,23 7,9 11,20 13,31 2,11 2,23 -2,34 -4,12 -11,22 -21,32 l -347,330 0,0 c -8,9 -17,14 -27,15 -7,1 -14,1 -20,-1 -7,-2 -13,-6 -18,-10 -5,-4 -10,-10 -13,-15 -3,-6 -6,-13 -7,-20 -1,-8 -1,-16 1,-24 2,-8 7,-15 15,-22 l 91,-89 z"
       inkscape:connector-curvature="0"
       style="fill:#000000;fill-rule:nonzero" /><path
       id="10"
       class="fil3"
       d="m 3473,11298 c 30,0 46,-31 46,-92 l 3,-286 -316,-3 -2,285 c -1,62 16,93 51,94 l 218,2 z m -224,107 c -94,-1 -141,-68 -140,-202 l 3,-354 c 1,-28 15,-42 44,-42 l 419,4 c 28,0 42,15 42,43 l -3,355 c -1,133 -47,199 -137,198 l -228,-2 z"
       inkscape:connector-curvature="0"
       style="fill:#000000;fill-rule:nonzero" /><path
       id="11"
       class="fil3"
       d="m 3296,12106 c 29,8 52,-17 71,-77 l 80,-269 -125,-38 -84,280 c -16,53 -13,83 9,89 l 49,15 z m -79,89 c -83,-25 -106,-101 -68,-226 l 22,-73 -147,172 c -8,9 -17,14 -26,16 -8,2 -17,2 -25,0 -7,-2 -13,-5 -18,-9 -5,-5 -10,-9 -13,-15 -4,-6 -6,-12 -7,-18 -1,-7 -1,-14 1,-20 2,-8 6,-15 12,-20 l 0,0 285,-307 -135,-40 c -31,-10 -41,-31 -31,-66 11,-35 32,-48 62,-39 l 400,120 c 27,8 37,26 28,53 l -97,323 c -40,136 -105,190 -194,164 l -49,-15 z"
       inkscape:connector-curvature="0"
       style="fill:#000000;fill-rule:nonzero" /><path
       id="12"
       class="fil3"
       d="m 2985,12772 c 32,16 62,-3 91,-58 l 77,-148 c 31,-59 31,-97 -1,-114 l -184,-96 c -31,-16 -62,5 -93,65 l -75,144 c -30,57 -30,94 1,110 l 184,97 z m -241,-3 c -83,-43 -90,-131 -21,-264 l 60,-115 c 70,-133 146,-178 229,-134 l 197,103 c 84,43 91,132 22,264 l -60,116 c -70,132 -146,177 -230,133 l -197,-103 z"
       inkscape:connector-curvature="0"
       style="fill:#000000;fill-rule:nonzero" /><path
       id="13"
       class="fil3"
       d="m 2204,13302 c -8,-7 -14,-14 -18,-22 -4,-8 -6,-15 -7,-23 0,-8 1,-16 4,-23 3,-8 7,-14 12,-20 5,-7 12,-12 19,-16 8,-5 16,-7 25,-8 l 501,-67 -234,-200 c -24,-20 -25,-45 -2,-72 24,-27 48,-31 73,-10 l 304,260 c 7,6 13,14 16,21 4,8 6,16 6,24 0,7 -1,15 -4,23 -3,7 -7,14 -12,20 -6,7 -13,12 -20,17 -8,4 -17,7 -26,8 l -495,67 231,197 c 24,21 24,45 0,73 -23,27 -46,30 -71,10 l -302,-259 z"
       inkscape:connector-curvature="0"
       style="fill:#000000;fill-rule:nonzero" /><path
       id="14"
       class="fil3"
       d="m 1964,13933 -55,-98 -240,135 c -47,27 -64,50 -52,72 l 19,33 c 12,22 39,21 82,-3 l 246,-139 z m -99,-182 -53,-93 -261,147 c -43,24 -60,46 -49,65 l 17,30 c 13,23 47,19 101,-11 l 245,-138 z m -340,351 c -18,-33 -15,-68 10,-106 -55,7 -93,-10 -115,-48 l -11,-20 c -43,-77 -12,-146 95,-206 l 319,-180 c 25,-14 44,-8 58,17 l 206,365 c 14,25 8,44 -16,58 l -306,172 c -53,30 -98,43 -136,37 -39,-5 -69,-28 -92,-69 l -12,-20 z"
       inkscape:connector-curvature="0"
       style="fill:#000000;fill-rule:nonzero" /><path
       id="15"
       class="fil3"
       d="m 1115,14143 -220,65 159,138 61,-203 z m -298,-8 322,-96 38,-123 c 3,-9 7,-16 14,-22 6,-5 13,-9 20,-11 6,-2 13,-3 20,-2 8,1 14,2 21,5 6,3 12,7 16,12 5,5 9,11 11,18 2,9 2,18 -1,29 l -143,459 c -3,13 -10,24 -18,33 -9,8 -19,14 -30,17 -11,3 -23,4 -35,2 -11,-3 -23,-8 -33,-17 l -370,-307 0,1 c -9,-7 -15,-16 -18,-25 -2,-8 -2,-14 -1,-21 1,-6 4,-13 8,-18 3,-6 8,-11 13,-15 6,-4 12,-7 19,-9 8,-3 16,-4 24,-2 8,1 16,5 24,12 l 99,80 z"
       inkscape:connector-curvature="0"
       style="fill:#000000;fill-rule:nonzero" /><path
       id="16"
       class="fil3"
       d="M 369,14349 39,14209 c -10,-5 -18,-10 -23,-17 -4,-7 -7,-15 -8,-23 0,-6 0,-13 2,-19 2,-6 5,-12 9,-17 4,-5 9,-10 15,-13 5,-3 12,-5 19,-6 4,0 8,0 13,0 5,1 9,2 14,5 l 353,162 -12,-148 c -2,-33 14,-50 49,-53 36,-3 56,12 58,44 l 34,412 c 2,32 -15,49 -51,52 -35,3 -54,-12 -56,-43 l -12,-143 -306,211 c -8,5 -17,9 -27,10 -7,0 -14,-1 -21,-3 -7,-2 -13,-6 -18,-11 -6,-4 -10,-10 -13,-16 -4,-6 -5,-12 -6,-18 0,-8 1,-15 5,-22 4,-7 10,-14 19,-19 l 293,-185 z"
       inkscape:connector-curvature="0"
       style="fill:#000000;fill-rule:nonzero" /><path
       id="17"
       class="fil3"
       d="m -712,14187 c 14,-97 103,-134 267,-112 l 103,15 c 156,22 227,81 214,179 l -44,309 c -4,31 -24,45 -60,39 -36,-5 -52,-23 -48,-54 l 42,-299 c 6,-41 -30,-67 -107,-78 l -125,-18 c -85,-11 -130,3 -136,45 l -42,298 c -4,31 -25,45 -61,40 -35,-5 -50,-23 -46,-55 l 43,-309 z"
       inkscape:connector-curvature="0"
       style="fill:#000000;fill-rule:nonzero" /><path
       id="18"
       class="fil3"
       d="m -1397,13861 c 3,-10 8,-18 14,-24 6,-6 13,-11 20,-14 7,-3 15,-4 23,-4 7,0 15,1 22,4 8,3 15,7 22,13 6,5 11,12 15,20 l 234,449 109,-287 c 11,-30 34,-39 67,-26 34,12 45,34 33,64 l -141,374 c -3,9 -8,17 -14,23 -6,5 -13,10 -20,13 -7,3 -15,4 -23,4 -8,0 -15,-2 -23,-5 -8,-3 -15,-7 -22,-13 -7,-6 -12,-12 -16,-21 l -234,-443 -107,283 c -11,30 -33,39 -67,26 -33,-13 -44,-34 -33,-64 l 141,-372 z"
       inkscape:connector-curvature="0"
       style="fill:#000000;fill-rule:nonzero" /><path
       id="19"
       class="fil3"
       d="m -1605,13714 c 16,-27 40,-32 71,-13 32,18 40,41 24,69 l -210,358 c -16,28 -40,32 -73,13 -31,-18 -38,-41 -22,-68 l 210,-359 z"
       inkscape:connector-curvature="0"
       style="fill:#000000;fill-rule:nonzero" /><path
       id="20"
       class="fil3"
       d="m -2204,13299 c 7,-8 14,-15 21,-19 8,-4 15,-7 23,-7 8,-1 16,0 23,2 7,3 14,6 20,11 7,5 12,11 17,19 5,7 8,15 9,23 l 89,499 189,-241 c 20,-26 44,-27 72,-5 28,22 32,46 12,71 l -246,314 c -6,8 -13,14 -21,18 -7,3 -15,6 -22,6 -8,1 -16,0 -24,-2 -7,-3 -14,-7 -20,-12 -7,-5 -13,-12 -18,-19 -4,-8 -7,-16 -8,-25 l -90,-493 -187,239 c -20,25 -44,26 -72,4 -28,-22 -32,-45 -13,-70 l 246,-313 z"
       inkscape:connector-curvature="0"
       style="fill:#000000;fill-rule:nonzero" /><path
       class="fil0"
       d="m 589,12050 c -366,643 -1057,1076 -1849,1076 -792,0 -1483,-433 -1849,-1076 198,-21 387,-68 565,-138 235,330 594,566 1009,639 l 0,-1435 c 115,-166 208,-349 275,-544 67,195 160,378 276,544 l 0,1435 c 414,-73 773,-309 1008,-639 178,70 368,117 565,138 z M -1142,8877 c 1119,62 2008,988 2008,2123 0,292 -59,570 -165,823 -1029,-65 -1843,-920 -1843,-1965 0,-64 3,-128 9,-191 197,19 380,80 543,174 -1,5 -1,11 -1,17 0,599 371,1111 896,1318 7,-57 10,-116 10,-176 0,-830 -642,-1510 -1457,-1570 l 0,-553 z m -245,790 c 6,63 9,127 9,191 0,1045 -814,1900 -1843,1965 -106,-253 -165,-531 -165,-823 0,-1135 889,-2061 2008,-2123 l 0,553 c -815,60 -1457,740 -1457,1570 0,60 4,118 10,176 525,-207 896,-719 896,-1318 0,-6 0,-12 0,-17 162,-94 346,-155 542,-174 z"
       id="path3885"
       inkscape:connector-curvature="0"
       style="fill:#ffa000" /></g></svg>