<?xml version="1.0" encoding="UTF-8" standalone="no"?>
<!-- Creator: CorelDRAW X7 -->

<svg
   xmlns:dc="http://purl.org/dc/elements/1.1/"
   xmlns:cc="http://creativecommons.org/ns#"
   xmlns:rdf="http://www.w3.org/1999/02/22-rdf-syntax-ns#"
   xmlns:svg="http://www.w3.org/2000/svg"
   xmlns="http://www.w3.org/2000/svg"
   xmlns:sodipodi="http://sodipodi.sourceforge.net/DTD/sodipodi-0.dtd"
   xmlns:inkscape="http://www.inkscape.org/namespaces/inkscape"
   xml:space="preserve"
   width="7.8740005in"
   height="7.8740005in"
   version="1.1"
   style="clip-rule:evenodd;fill-rule:evenodd;image-rendering:optimizeQuality;shape-rendering:geometricPrecision;text-rendering:geometricPrecision"
   viewBox="0 0 7874.0005 7874.0005"
   id="svg3654"
   inkscape:version="0.91 r13725"
   sodipodi:docname="Nomads - Gecko Squad - [N3] [Vyo].svg"><metadata
     id="metadata3676"><rdf:RDF><cc:Work
         rdf:about=""><dc:format>image/svg+xml</dc:format><dc:type
           rdf:resource="http://purl.org/dc/dcmitype/StillImage" /></cc:Work></rdf:RDF></metadata><sodipodi:namedview
     pagecolor="#ffffff"
     bordercolor="#666666"
     borderopacity="1"
     objecttolerance="10"
     gridtolerance="10"
     guidetolerance="10"
     inkscape:pageopacity="0"
     inkscape:pageshadow="2"
     inkscape:window-width="640"
     inkscape:window-height="480"
     id="namedview3674"
     showgrid="false"
     inkscape:zoom="0.23838384"
     inkscape:cx="736.83001"
     inkscape:cy="849.33005"
     inkscape:window-x="0"
     inkscape:window-y="0"
     inkscape:window-maximized="0"
     inkscape:current-layer="svg3654" /><defs
     id="defs3656"><style
       type="text/css"
       id="style3658"><![CDATA[
    .fil3 {fill:none}
    .fil0 {fill:black}
    .fil1 {fill:#FFA000}
    .fil2 {fill:white}
    .fil4 {fill:black;fill-rule:nonzero}
   ]]></style></defs><g
     id="Layer_x0020_1"
     transform="translate(3937,-7063)"><metadata
       id="CorelCorpID_0Corel-Layer" /><circle
       class="fil0"
       cy="11000"
       r="3937"
       id="circle3662"
       cx="0"
       style="fill:#000000" /><circle
       class="fil1"
       cy="11000"
       r="3622"
       id="circle3664"
       cx="0"
       style="fill:#ffa000" /><path
       class="fil2"
       d="m 211,9400 c 435,56 815,286 1070,617 l -469,360 c 54,70 99,148 134,231 l 546,-226 c 53,128 90,265 108,407 l -585,77 c 6,44 9,89 9,134 0,45 -3,90 -9,134 l 585,77 c -18,142 -55,279 -108,407 l -546,-226 c -35,83 -80,161 -134,231 l 469,360 c -255,331 -635,561 -1070,617 l -77,-585 c -44,6 -89,9 -134,9 -45,0 -90,-3 -134,-9 l -77,586 c -435,-57 -815,-287 -1070,-618 l 469,-360 c -54,-70 -99,-148 -134,-231 l -546,226 c -53,-128 -90,-265 -108,-407 l 585,-77 c -6,-44 -9,-89 -9,-134 0,-45 3,-90 9,-134 l -585,-77 c 18,-142 55,-279 108,-407 l 546,226 c 35,-83 80,-161 134,-231 l -469,-360 c 255,-331 635,-561 1070,-618 l 77,586 c 44,-6 89,-9 134,-9 45,0 90,3 134,9 l 77,-585 z"
       id="path3666"
       inkscape:connector-curvature="0"
       style="fill:#ffffff" /><path
       class="fil2"
       d="m 1534,9001 c 517,398 876,991 964,1670 l -429,57 c -73,-562 -370,-1054 -799,-1383 l 264,-344 z m 964,2328 c -88,679 -447,1272 -964,1670 l -264,-344 c 429,-329 726,-821 799,-1383 l 429,57 z M 0,13441 c 0,-79 98,-349 272,-372 184,-24 361,-72 527,-141 l 165,400 c -200,83 -413,141 -635,170 -231,30 -290,179 -329,337 -39,-158 -98,-307 -329,-337 -222,-29 -435,-87 -635,-170 l 165,-400 c 166,69 343,117 527,141 174,23 272,293 272,372 z M -1270,9345 c -429,329 -726,821 -799,1383 l -429,-57 c 88,-679 447,-1272 964,-1670 l 264,344 z m -799,1927 c 73,562 370,1054 799,1383 l -264,344 c -517,-398 -876,-991 -964,-1670 l 429,-57 z M 0,8559 c 0,79 -98,349 -272,372 -184,24 -361,72 -527,141 l -165,-400 c 200,-83 413,-141 635,-170 231,-30 290,-179 329,-337 39,158 98,307 329,337 222,29 435,87 635,170 L 799,9072 C 633,9003 456,8955 272,8931 98,8908 0,8638 0,8559 Z"
       id="path3668"
       inkscape:connector-curvature="0"
       style="fill:#ffffff" /><circle
       class="fil3"
       cy="11000"
       r="3898"
       id="circle3670"
       cx="0"
       style="fill:none" /><path
       class="fil4"
       d="m -2454,9024 4,3 c 8,5 13,13 13,21 1,9 -1,17 -7,25 -5,8 -13,14 -22,17 -10,4 -19,4 -29,-1 l -90,-41 c 0,0 -2,-1 -6,-4 -8,-5 -12,-12 -13,-20 0,-8 2,-16 7,-23 4,-6 10,-11 18,-15 9,-3 18,-3 28,1 l 97,37 z m -64,90 c 0,0 2,1 5,3 8,6 12,13 13,22 0,9 -2,17 -7,25 -6,8 -14,14 -23,17 -9,4 -19,4 -29,-1 l -89,-41 c -1,0 -3,-1 -7,-4 -8,-5 -12,-12 -13,-20 0,-8 2,-16 7,-23 5,-7 11,-12 19,-15 8,-3 17,-3 28,0 l 96,37 z m -646,546 c -69,-35 -78,-103 -27,-202 l 76,-146 c 56,-107 117,-143 186,-108 l 185,96 c 68,36 74,107 18,215 l -29,57 c -12,23 -30,28 -55,15 -24,-13 -31,-30 -19,-54 l 21,-39 c 32,-63 38,-100 17,-111 l -178,-92 c -22,-12 -46,9 -73,61 l -75,145 c -22,42 -24,69 -5,78 l 95,50 c 25,13 30,33 16,61 -15,28 -35,36 -59,23 l -94,-49 z m 34,336 -91,326 c -7,24 -24,33 -51,25 -26,-7 -36,-23 -29,-48 l 92,-326 -53,-14 c -24,-7 -44,15 -59,68 l -70,247 c -7,25 -23,33 -50,26 -27,-8 -37,-24 -30,-49 l 71,-249 c 31,-112 84,-157 158,-137 l 198,56 c 38,11 62,33 73,67 11,34 8,80 -8,138 l -19,68 c -7,25 -24,33 -51,26 -27,-8 -36,-24 -29,-48 l 13,-47 c 19,-69 16,-106 -9,-113 l -56,-16 z m -44,730 c 4,-56 -5,-85 -28,-86 l -197,-15 c -27,-2 -44,28 -48,90 l -17,221 c -2,27 -17,39 -44,37 -28,-2 -41,-17 -39,-43 l 18,-230 c 9,-119 53,-176 132,-170 l 207,15 c 75,6 107,68 99,185 l -18,233 c -2,27 -17,39 -44,37 -28,-3 -41,-17 -39,-43 l 18,-231 z m -130,605 -107,292 c -3,9 -7,15 -13,20 -6,4 -13,7 -20,8 -5,1 -11,0 -16,-1 -6,-1 -11,-4 -15,-7 -5,-3 -9,-7 -12,-12 -3,-5 -5,-10 -6,-16 -1,-4 -1,-8 -1,-12 1,-4 2,-8 4,-12 l 125,-314 -128,17 c -28,4 -44,-9 -48,-40 -4,-31 8,-48 36,-52 l 356,-47 c 27,-4 43,10 47,42 4,30 -7,47 -35,50 l -124,16 196,257 c 6,7 9,14 10,23 1,6 0,12 -1,18 -2,6 -5,12 -9,17 -4,4 -8,8 -13,11 -5,3 -10,5 -16,6 -6,1 -13,0 -19,-3 -6,-3 -12,-8 -18,-16 l -173,-245 z m 289,854 c 30,-9 37,-40 20,-91 l -45,-138 c -18,-55 -42,-78 -72,-68 l -171,56 c -29,9 -35,42 -17,97 l 44,134 c 18,54 41,76 70,66 l 171,-56 z m -147,149 c -78,25 -137,-24 -177,-148 l -36,-107 c -40,-124 -22,-198 56,-224 l 184,-60 c 78,-25 137,24 178,147 l 35,108 c 40,123 22,198 -56,223 l -184,61 z m 291,180 c -10,2 -20,1 -27,-3 -8,-4 -14,-9 -18,-16 -4,-8 -5,-15 -4,-23 1,-8 6,-15 14,-20 5,-2 7,-3 7,-3 l 93,-32 c 11,-4 20,-3 29,1 9,5 16,12 21,20 5,8 6,16 5,25 -2,9 -6,16 -15,21 -3,1 -5,2 -5,2 l -100,28 z m 53,92 c -11,3 -20,2 -28,-2 -7,-4 -13,-10 -17,-16 -4,-8 -6,-16 -4,-24 1,-8 6,-14 14,-19 4,-2 7,-3 7,-3 l 93,-32 c 10,-4 20,-3 29,1 9,5 16,11 21,20 4,8 6,16 5,25 -2,9 -7,16 -15,20 -3,2 -5,3 -5,3 l -100,27 z m 506,941 c -53,50 -118,35 -196,-45 l -185,-193 c -18,-19 -17,-38 3,-58 20,-19 39,-19 57,0 l 190,199 c 30,31 54,39 71,22 l 18,-17 c 19,-18 10,-47 -28,-86 l -84,-88 c -81,-84 -96,-149 -47,-197 l 30,-28 c 54,-52 117,-41 189,35 l 47,48 c 18,19 17,38 -3,58 -20,19 -39,19 -57,0 l -53,-56 c -24,-25 -46,-28 -64,-11 l -13,13 c -17,16 -9,41 24,74 l 86,90 c 84,88 100,158 46,210 l -31,30 z m 622,201 c 15,-22 -5,-51 -60,-85 l -113,-73 c -53,-33 -87,-39 -101,-16 l -103,162 c -15,23 4,52 56,85 l 137,87 c 39,25 66,26 81,3 l 103,-163 z m -24,215 c -22,36 -54,53 -96,52 5,8 7,16 7,23 -1,7 -3,14 -6,20 -3,4 -7,8 -12,11 -4,3 -9,5 -15,7 -5,1 -11,1 -17,1 -5,-1 -11,-3 -16,-6 -3,-2 -6,-5 -9,-8 -3,-3 -5,-7 -7,-11 l -44,-83 -139,-88 c -97,-62 -124,-126 -80,-194 l 105,-166 c 43,-68 113,-71 210,-10 l 142,90 c 98,63 126,128 84,195 l -107,167 z m 684,299 c -31,80 -113,94 -247,42 l -85,-33 c -128,-49 -176,-114 -145,-194 l 98,-253 c 10,-25 30,-33 59,-21 30,11 40,30 29,56 l -94,244 c -14,34 12,63 75,88 l 102,39 c 70,27 111,24 124,-10 l 95,-244 c 10,-26 30,-33 60,-21 28,11 37,29 27,55 l -98,252 z m 394,30 197,34 -71,-169 -126,135 z m 230,121 -288,-50 -77,81 c -5,6 -12,10 -19,11 -7,2 -14,2 -20,1 -6,-1 -11,-3 -17,-6 -5,-3 -10,-7 -13,-12 -5,-4 -7,-10 -9,-15 -2,-6 -2,-12 -1,-18 1,-8 5,-16 12,-23 l 288,-302 c 8,-9 17,-15 27,-18 10,-3 20,-4 30,-2 9,1 19,5 27,12 8,6 15,15 19,26 l 171,381 0,-1 c 4,9 5,18 4,27 -1,6 -4,12 -7,16 -4,5 -8,9 -13,12 -5,3 -11,5 -17,6 -6,1 -12,1 -18,0 -7,-1 -13,-4 -19,-8 -6,-4 -10,-10 -14,-18 l -46,-100 z m 754,-205 c -2,-26 -30,-37 -83,-33 l -248,19 21,272 247,-19 c 54,-4 80,-21 78,-51 l -15,-188 z m 110,186 c 6,82 -49,127 -166,136 l -306,23 c -25,2 -38,-9 -40,-35 l -27,-363 c -2,-24 9,-38 34,-39 l 308,-24 c 115,-9 176,26 181,104 l 16,198 z m 681,-416 c -52,20 -74,41 -66,62 l 73,184 c 10,25 44,27 102,4 l 207,-82 c 24,-10 42,-2 52,23 10,26 3,44 -21,54 l -214,85 c -112,44 -183,30 -212,-44 l -77,-193 c -27,-70 14,-126 123,-170 l 218,-86 c 24,-10 41,-2 52,23 10,26 3,44 -22,54 l -215,86 z m 769,-361 c -17,-27 -48,-25 -93,4 l -122,79 c -49,31 -65,60 -48,87 l 98,151 c 16,25 49,22 98,-9 l 118,-77 c 48,-30 63,-58 47,-84 l -98,-151 z m 181,105 c 44,68 12,138 -97,209 l -95,61 c -110,70 -186,71 -231,3 l -105,-163 c -44,-69 -12,-139 98,-209 l 95,-61 c 109,-71 186,-72 230,-3 l 105,163 z m 329,-584 c -19,-18 -47,-8 -85,32 l -167,177 81,77 175,-183 c 33,-35 42,-59 28,-73 l -32,-30 z m 96,-39 c 55,52 43,120 -36,202 l -45,48 181,-76 c 9,-3 18,-4 26,-2 8,2 14,5 20,10 4,4 7,9 10,14 2,5 4,11 4,17 1,5 0,11 -2,17 -1,5 -4,10 -9,14 -4,5 -10,9 -17,11 l 1,0 -341,126 89,84 c 20,20 19,40 -2,63 -22,23 -43,25 -64,6 l -262,-249 c -18,-17 -19,-35 -2,-52 l 202,-213 c 85,-89 156,-106 215,-50 l 32,30 z m 299,-510 c -23,-14 -48,2 -78,48 l -130,206 95,60 136,-214 c 26,-40 30,-66 13,-76 l -36,-24 z m 86,-56 c 64,41 65,109 4,205 l -35,56 163,-109 c 8,-6 17,-8 25,-8 8,0 15,3 21,7 5,3 9,7 13,11 3,5 6,10 7,16 2,5 2,11 2,17 -1,5 -3,11 -6,16 -4,6 -9,10 -15,14 l 0,0 -310,189 104,65 c 23,15 27,36 10,62 -17,27 -38,33 -61,18 l -306,-194 c -21,-13 -25,-30 -11,-51 l 157,-247 c 66,-104 133,-134 201,-90 l 37,23 z m 122,-238 122,-315 c 9,-24 27,-31 53,-21 25,10 34,27 25,51 l -123,315 50,20 c 24,9 46,-11 66,-62 l 93,-239 c 10,-24 27,-31 53,-21 26,10 34,27 25,51 l -94,241 c -42,109 -99,149 -171,121 l -192,-75 c -36,-14 -58,-38 -66,-73 -7,-35 0,-81 21,-137 l 26,-66 c 9,-24 27,-30 53,-20 26,10 34,27 25,50 l -18,45 c -26,67 -27,105 -3,114 l 55,21 z m 408,-1010 c 76,13 105,75 86,184 l -28,163 c -21,119 -69,172 -145,159 l -206,-36 c -75,-13 -103,-80 -82,-199 l 11,-63 c 5,-26 20,-36 48,-31 27,4 38,19 34,45 l -8,44 c -12,70 -6,107 18,111 l 197,34 c 24,4 41,-22 51,-80 l 28,-161 c 8,-47 2,-73 -19,-76 l -106,-19 c -27,-5 -39,-22 -33,-53 5,-32 22,-45 49,-40 l 105,18 z m 74,-318 c 28,0 42,15 43,47 0,31 -13,48 -41,48 l -360,7 c -28,1 -42,-15 -42,-47 -1,-31 13,-47 40,-47 l 360,-8 z m -342,-626 c -26,5 -34,33 -25,86 l 42,245 269,-46 -42,-244 c -9,-54 -29,-78 -58,-73 l -186,32 z m 174,-126 c 81,-14 132,36 151,151 l 53,303 c 4,24 -6,38 -31,42 l -359,63 c -24,4 -39,-6 -43,-30 l -52,-305 c -20,-114 8,-177 86,-191 l 195,-33 z m -379,-539 c -29,12 -34,42 -14,93 l 54,134 c 21,55 47,76 76,64 l 167,-66 c 28,-11 32,-44 10,-98 l -52,-131 c -21,-53 -45,-74 -74,-62 l -167,66 z m 138,-157 c 76,-30 138,15 186,136 l 42,105 c 48,121 34,197 -42,227 l -180,71 c -76,30 -138,-15 -186,-136 l -42,-105 c -48,-121 -34,-196 42,-227 l 180,-71 z m -503,-455 c -22,14 -19,44 11,90 l 132,204 95,-61 -138,-213 c -26,-40 -47,-55 -64,-44 l -36,24 z m -15,-103 c 64,-41 126,-13 188,83 l 36,55 -31,-194 c -1,-10 0,-18 3,-25 4,-8 9,-13 15,-17 5,-3 10,-6 16,-7 6,-1 11,-1 17,0 6,1 11,3 16,6 5,3 9,7 13,12 3,5 5,12 6,19 l 0,0 42,360 103,-66 c 23,-15 43,-10 60,17 18,27 14,48 -9,63 l -304,196 c -21,13 -38,10 -51,-11 l -159,-246 c -67,-103 -66,-177 2,-221 l 37,-24 z"
       id="path3672"
       inkscape:connector-curvature="0"
       style="fill:#000000;fill-rule:nonzero" /></g></svg>