<?xml version="1.0" encoding="UTF-8" standalone="no"?>
<!-- Creator: CorelDRAW X7 -->

<svg
   xmlns:dc="http://purl.org/dc/elements/1.1/"
   xmlns:cc="http://creativecommons.org/ns#"
   xmlns:rdf="http://www.w3.org/1999/02/22-rdf-syntax-ns#"
   xmlns:svg="http://www.w3.org/2000/svg"
   xmlns="http://www.w3.org/2000/svg"
   xmlns:sodipodi="http://sodipodi.sourceforge.net/DTD/sodipodi-0.dtd"
   xmlns:inkscape="http://www.inkscape.org/namespaces/inkscape"
   xml:space="preserve"
   width="7.8740005in"
   height="7.8740005in"
   version="1.1"
   style="clip-rule:evenodd;fill-rule:evenodd;image-rendering:optimizeQuality;shape-rendering:geometricPrecision;text-rendering:geometricPrecision"
   viewBox="0 0 7874.0005 7874.0005"
   id="svg4331"
   inkscape:version="0.91 r13725"
   sodipodi:docname="Nomads - Reverend Healers - [N3] [Vyo].svg"><metadata
     id="metadata4351"><rdf:RDF><cc:Work
         rdf:about=""><dc:format>image/svg+xml</dc:format><dc:type
           rdf:resource="http://purl.org/dc/dcmitype/StillImage" /></cc:Work></rdf:RDF></metadata><sodipodi:namedview
     pagecolor="#ffffff"
     bordercolor="#666666"
     borderopacity="1"
     objecttolerance="10"
     gridtolerance="10"
     guidetolerance="10"
     inkscape:pageopacity="0"
     inkscape:pageshadow="2"
     inkscape:window-width="640"
     inkscape:window-height="480"
     id="namedview4349"
     showgrid="false"
     inkscape:zoom="0.23838384"
     inkscape:cx="736.83001"
     inkscape:cy="849.33005"
     inkscape:window-x="0"
     inkscape:window-y="0"
     inkscape:window-maximized="0"
     inkscape:current-layer="svg4331" /><defs
     id="defs4333"><style
       type="text/css"
       id="style4335"><![CDATA[
    .fil2 {fill:none}
    .fil0 {fill:#FFA000}
    .fil1 {fill:white}
    .fil3 {fill:black;fill-rule:nonzero}
   ]]></style></defs><g
     id="Layer_x0020_1"
     transform="translate(3937,-7063)"><metadata
       id="CorelCorpID_0Corel-Layer" /><circle
       class="fil0"
       cy="11000"
       r="3937"
       id="circle4339"
       cx="0"
       style="fill:#ffa000" /><circle
       class="fil1"
       cy="11000"
       r="3583"
       id="circle4341"
       cx="0"
       style="fill:#ffffff" /><circle
       class="fil2"
       cy="11000"
       r="3465"
       id="circle4343"
       cx="0"
       style="fill:none" /><path
       class="fil3"
       d="m -3023,10189 c 37,13 68,-16 92,-87 l 93,-275 -158,-54 -97,287 c -21,63 -17,100 14,110 l 56,19 z m -72,46 c -68,-23 -84,-89 -47,-198 l 53,-157 -211,232 c -9,9 -19,11 -28,8 -8,-2 -14,-7 -19,-15 -5,-7 -6,-15 -3,-23 1,-4 4,-8 8,-12 l 299,-313 -150,-51 c -18,-6 -24,-19 -16,-40 7,-22 20,-30 38,-24 l 385,130 c 13,5 17,14 13,28 l -105,310 c -41,119 -97,166 -170,141 l -47,-16 z m -52,115 -70,393 c -3,15 -13,21 -31,18 -18,-3 -26,-12 -23,-28 l 70,-392 -84,-15 c -38,-7 -63,26 -76,98 l -51,284 c -3,17 -13,23 -30,20 -18,-3 -26,-13 -23,-29 l 51,-287 c 21,-115 67,-166 139,-154 l 228,41 c 73,13 99,79 78,199 l -14,77 c -3,16 -13,22 -31,19 -17,-3 -24,-12 -21,-28 l 9,-52 c 17,-92 6,-141 -33,-148 l -88,-16 z m -260,676 389,235 c 11,6 17,15 17,27 0,9 -3,17 -9,24 -5,7 -12,11 -21,11 -4,0 -10,-2 -17,-5 l -393,-250 c -17,-11 -26,-25 -26,-43 -1,-17 7,-32 23,-43 l 380,-269 c 6,-4 12,-7 18,-7 9,0 16,3 22,10 6,7 9,14 9,23 0,11 -5,21 -15,28 l -377,259 z m 219,392 70,392 c 3,16 -5,25 -23,28 -18,3 -28,-3 -31,-18 l -70,-392 -84,15 c -38,6 -51,46 -38,118 l 51,284 c 3,17 -4,27 -21,30 -19,3 -29,-4 -32,-20 l -51,-286 c -21,-116 5,-180 76,-193 l 229,-41 c 73,-13 120,41 141,160 l 14,77 c 3,16 -4,26 -22,29 -17,3 -27,-4 -30,-19 l -9,-52 c -16,-92 -44,-135 -82,-128 l -88,16 z m 342,880 c 37,-15 41,-57 14,-126 l -107,-271 -155,61 112,283 c 24,61 51,86 81,74 l 55,-21 z m -25,81 c -67,27 -122,-14 -164,-120 l -61,-155 -11,313 c -2,13 -7,21 -16,25 -8,3 -16,3 -25,1 -8,-2 -14,-8 -17,-16 -2,-4 -2,-9 -1,-14 l 26,-433 -147,59 c -18,7 -31,0 -39,-21 -9,-21 -4,-36 14,-43 l 378,-149 c 13,-5 22,-1 27,13 l 120,305 c 46,116 34,189 -38,217 l -46,18 z m 30,125 199,345 c 8,14 4,25 -12,34 -16,9 -28,7 -35,-6 l -199,-346 -74,42 c -34,20 -32,61 5,125 l 143,250 c 9,15 6,26 -10,35 -16,9 -28,7 -36,-8 l -145,-252 c -59,-102 -56,-171 7,-207 l 201,-116 c 64,-37 127,-3 187,102 l 39,69 c 8,14 5,25 -11,34 -15,8 -26,6 -34,-8 l -27,-46 c -46,-81 -86,-111 -120,-92 l -78,45 z m 446,957 c -12,10 -23,14 -34,13 -11,-1 -20,-6 -27,-14 -3,-4 -6,-9 -8,-14 -2,-6 -3,-12 -3,-19 l 9,-537 -259,224 c -15,13 -29,11 -44,-6 -14,-17 -14,-31 0,-44 l 294,-254 c 11,-9 22,-13 32,-11 11,3 19,8 26,16 4,4 7,10 10,15 2,6 3,13 3,19 l -6,530 256,-221 c 14,-13 28,-10 44,7 13,16 13,30 -1,42 l -292,254 z m 641,132 c 25,-31 8,-68 -49,-113 l -235,-185 -214,272 234,184 c 58,45 100,51 127,17 l 137,-175 z m -85,216 c -49,63 -119,58 -211,-15 l -271,-213 c -12,-9 -13,-20 -4,-31 l 253,-322 c 9,-11 19,-12 30,-3 l 272,214 c 92,72 115,137 69,195 l -138,175 z m 775,468 c -7,18 -21,23 -42,15 -20,-8 -27,-21 -20,-39 l 63,-160 -379,-150 -63,160 c -7,18 -21,23 -43,14 -21,-8 -27,-21 -20,-39 l 147,-375 c 7,-17 22,-22 43,-13 21,8 28,21 21,38 l -65,164 380,150 64,-164 c 7,-18 21,-22 40,-15 22,9 29,22 22,39 l -148,375 z m 220,-175 388,90 c 16,3 21,14 17,31 -4,18 -14,25 -29,22 l -388,-90 -20,83 c -8,38 23,65 95,82 l 281,64 c 16,4 23,15 19,32 -4,18 -15,25 -31,21 l -283,-65 c -115,-27 -164,-75 -147,-146 l 52,-226 c 16,-73 84,-95 202,-68 l 77,18 c 15,3 21,14 17,31 -4,17 -13,24 -29,20 l -51,-12 c -91,-21 -141,-12 -150,26 l -20,87 z m 607,179 274,6 -130,-220 -144,214 z m 310,62 -347,-9 -78,110 c -4,5 -8,9 -13,11 -4,2 -8,3 -12,3 -9,0 -17,-3 -25,-9 -7,-5 -10,-13 -10,-23 0,-5 2,-11 6,-16 l 269,-384 c 5,-7 12,-13 20,-17 8,-3 16,-5 24,-5 18,1 32,9 42,24 l 252,397 c 3,3 5,6 5,9 1,3 1,6 1,8 0,9 -4,16 -11,22 -7,5 -15,7 -24,7 -4,0 -9,-1 -14,-4 -5,-2 -9,-6 -13,-11 l -72,-113 z m 406,88 c -139,17 -213,-12 -223,-89 l -39,-310 c -2,-19 8,-29 30,-32 22,-3 35,5 37,24 l 39,309 c 5,41 54,56 146,45 l 262,-34 c 17,-2 27,7 29,26 2,16 -5,26 -22,28 l -259,33 z m 331,-314 377,-127 c 15,-5 25,1 31,18 6,17 2,28 -13,33 l -378,128 28,81 c 12,37 53,43 122,20 l 274,-93 c 16,-5 27,0 32,17 6,17 1,29 -15,34 l -275,94 c -111,37 -179,21 -202,-48 l -74,-219 c -24,-71 21,-125 136,-164 l 75,-25 c 15,-6 25,0 31,17 6,17 1,27 -14,32 l -50,17 c -89,30 -126,64 -114,101 l 29,84 z m 845,-455 c -18,-35 -60,-36 -126,-2 l -260,133 76,148 270,-138 c 59,-30 81,-60 67,-89 l -27,-52 z m 83,16 c 33,65 -1,123 -103,176 l -148,75 312,-19 c 13,0 22,5 26,14 4,7 5,15 4,24 -2,8 -7,15 -14,19 -4,2 -9,2 -14,2 l -433,16 72,141 c 9,17 3,31 -16,41 -21,10 -36,7 -44,-10 l -186,-362 c -6,-12 -3,-22 10,-28 l 292,-149 c 111,-58 185,-52 220,17 l 22,43 z m 527,-186 c 44,55 21,117 -69,187 l -236,186 c -13,11 -26,8 -38,-7 -10,-13 -9,-25 4,-35 l 244,-192 c 49,-38 62,-71 40,-100 l -24,-30 c -24,-31 -66,-24 -124,22 l -108,84 c -92,73 -158,85 -197,35 l -28,-36 c -44,-56 -25,-115 56,-179 l 59,-46 c 13,-11 25,-9 36,5 11,13 10,26 -4,36 l -67,53 c -40,32 -49,63 -25,93 l 22,27 c 20,26 56,18 107,-22 l 110,-86 c 49,-39 91,-61 127,-67 35,-6 64,6 86,34 l 29,38 z m 67,-501 116,91 178,-226 c 40,-51 47,-86 20,-107 l -35,-28 c -28,-21 -60,-9 -97,38 l -182,232 z m 270,217 193,-246 c 37,-48 44,-81 19,-100 l -34,-27 c -28,-22 -65,-4 -110,54 l -181,230 113,89 z m 77,-520 c 33,26 43,61 28,105 46,-32 88,-33 124,-5 l 18,14 c 58,46 54,110 -12,193 l -221,282 c -9,11 -19,12 -31,2 l -322,-252 c -11,-9 -12,-19 -3,-30 l 212,-269 c 65,-84 129,-102 189,-54 l 18,14 z m 201,-103 125,-243 -255,21 130,222 z m 191,-252 -159,309 66,118 c 3,6 4,11 4,16 0,5 0,9 -2,13 -4,8 -11,14 -19,18 -8,4 -17,4 -25,-1 -5,-2 -9,-6 -13,-12 l -229,-409 c -4,-7 -6,-16 -6,-25 0,-9 2,-17 6,-24 8,-16 21,-25 40,-27 l 466,-56 c 4,-1 7,-2 10,-1 3,1 6,2 8,3 8,4 13,11 15,19 1,9 0,17 -4,25 -2,4 -5,8 -9,11 -5,4 -10,6 -16,8 l -133,15 z m 6,-332 263,-274 c 5,-4 9,-7 15,-9 5,-1 10,-1 13,0 8,2 14,7 19,14 4,7 5,14 3,22 -1,5 -5,10 -10,15 l -286,292 166,47 c 19,5 25,18 19,39 -6,21 -18,29 -37,24 l -388,-110 c -18,-5 -23,-18 -17,-40 6,-21 18,-29 35,-23 l 161,45 -89,-381 c -2,-7 -2,-13 0,-18 2,-9 7,-15 15,-20 8,-4 15,-5 22,-3 4,1 8,3 11,7 3,3 6,8 7,14 l 78,359 z m 277,-910 c 83,11 115,90 96,238 l -13,101 c -18,139 -68,204 -150,193 l -302,-38 c -18,-3 -26,-14 -23,-36 3,-23 13,-33 32,-31 l 296,38 c 50,6 81,-35 92,-123 l 16,-122 c 12,-96 -7,-148 -57,-154 l -297,-38 c -18,-2 -26,-14 -23,-36 3,-22 13,-32 32,-30 l 301,38 z m 36,-633 c 16,-1 28,2 35,10 8,7 13,16 14,27 0,5 -1,10 -2,16 -2,6 -5,11 -9,17 l -327,426 342,-26 c 19,-1 29,9 31,31 2,22 -7,34 -26,35 l -388,29 c -14,2 -25,-2 -32,-10 -7,-8 -11,-17 -11,-28 -1,-6 0,-12 1,-18 2,-6 5,-12 9,-17 l 320,-422 -337,25 c -19,2 -29,-9 -31,-32 -1,-21 7,-32 26,-34 l 385,-29 z m -28,-185 c 18,-4 29,5 35,27 5,22 -2,35 -20,40 l -393,90 c -18,4 -30,-5 -35,-28 -5,-21 1,-34 20,-38 l 393,-91 z m -206,-625 c 14,-5 27,-4 36,1 10,5 16,13 20,23 1,5 2,10 2,16 0,6 -2,12 -5,18 l -211,495 325,-110 c 18,-6 31,1 38,22 7,21 1,34 -17,40 l -368,125 c -13,5 -25,4 -33,-2 -9,-7 -15,-14 -19,-24 -2,-6 -3,-12 -3,-18 0,-7 2,-13 5,-19 l 205,-488 -320,108 c -18,6 -31,-2 -38,-24 -7,-20 -1,-33 16,-39 l 367,-124 z"
       id="path4345"
       inkscape:connector-curvature="0"
       style="fill:#000000;fill-rule:nonzero" /><path
       class="fil0"
       d="m 945,9819 c 394,-79 1023,78 1181,0 347,-174 551,-394 669,-866 -208,104 -551,157 -787,157 -512,0 -866,-79 -1299,-79 -315,0 -394,40 -473,158 197,0 355,157 276,551 197,-157 157,-354 118,-433 -25,-50 -79,-118 79,-118 590,0 945,118 1299,118 197,0 354,0 512,-79 -79,197 -237,315 -433,433 -151,91 -591,-39 -1142,158 z m -1890,0 c -394,-79 -1024,79 -1181,0 -347,-174 -551,-394 -669,-866 208,104 551,157 787,157 512,0 866,-79 1299,-79 315,0 394,40 473,158 -197,0 -355,157 -276,551 -197,-157 -157,-354 -118,-433 25,-50 79,-118 -79,-118 -590,0 -945,118 -1299,118 -197,0 -354,0 -512,-79 79,197 237,315 433,433 151,91 591,-39 1142,158 z m 551,275 c -197,197 -354,552 -354,709 0,313 364,659 707,1020 -62,67 -125,135 -185,205 -336,-371 -719,-732 -719,-1107 0,-472 354,-748 551,-827 z m 618,2024 c 187,228 327,461 327,693 0,354 -236,669 -433,866 118,-275 158,-551 158,-748 0,-202 -99,-397 -239,-588 58,-77 122,-151 187,-223 z M 0,9228 c 217,0 394,177 394,394 0,161 -98,301 -237,362 l 0,1632 -157,164 -157,-164 0,-1632 c -139,-61 -237,-201 -237,-362 0,-217 177,-394 394,-394 z m 394,866 c 197,197 354,552 354,709 0,591 -1299,1299 -1299,2008 0,354 236,669 433,866 -118,-275 -158,-551 -158,-748 0,-712 1221,-1338 1221,-2008 0,-472 -354,-748 -551,-827 z"
       id="path4347"
       inkscape:connector-curvature="0"
       style="fill:#ffa000" /></g></svg>