<?xml version="1.0" encoding="UTF-8" standalone="no"?>
<!-- Creator: CorelDRAW X7 -->

<svg
   xmlns:dc="http://purl.org/dc/elements/1.1/"
   xmlns:cc="http://creativecommons.org/ns#"
   xmlns:rdf="http://www.w3.org/1999/02/22-rdf-syntax-ns#"
   xmlns:svg="http://www.w3.org/2000/svg"
   xmlns="http://www.w3.org/2000/svg"
   xmlns:sodipodi="http://sodipodi.sourceforge.net/DTD/sodipodi-0.dtd"
   xmlns:inkscape="http://www.inkscape.org/namespaces/inkscape"
   xml:space="preserve"
   width="7.8740005in"
   height="7.8740005in"
   version="1.1"
   style="clip-rule:evenodd;fill-rule:evenodd;image-rendering:optimizeQuality;shape-rendering:geometricPrecision;text-rendering:geometricPrecision"
   viewBox="0 0 7874.0005 7874.0005"
   id="svg3891"
   inkscape:version="0.91 r13725"
   sodipodi:docname="Nomads - Lunokhod Sputniks - [N3] [Vyo].svg"><metadata
     id="metadata3916"><rdf:RDF><cc:Work
         rdf:about=""><dc:format>image/svg+xml</dc:format><dc:type
           rdf:resource="http://purl.org/dc/dcmitype/StillImage" /></cc:Work></rdf:RDF></metadata><sodipodi:namedview
     pagecolor="#ffffff"
     bordercolor="#666666"
     borderopacity="1"
     objecttolerance="10"
     gridtolerance="10"
     guidetolerance="10"
     inkscape:pageopacity="0"
     inkscape:pageshadow="2"
     inkscape:window-width="640"
     inkscape:window-height="480"
     id="namedview3914"
     showgrid="false"
     inkscape:zoom="0.23838384"
     inkscape:cx="736.83001"
     inkscape:cy="849.33005"
     inkscape:window-x="0"
     inkscape:window-y="0"
     inkscape:window-maximized="0"
     inkscape:current-layer="svg3891" /><defs
     id="defs3893"><style
       type="text/css"
       id="style3895"><![CDATA[
    .fil1 {fill:black}
    .fil2 {fill:#E2001A}
    .fil0 {fill:white}
    .fil3 {fill:white;fill-rule:nonzero}
   ]]></style></defs><g
     id="Layer_x0020_1"
     transform="translate(3937,-7063)"><metadata
       id="CorelCorpID_0Corel-Layer" /><circle
       class="fil0"
       cy="11000"
       r="3740"
       id="circle3899"
       cx="0"
       style="fill:#ffffff" /><path
       class="fil1"
       d="m 0,8087 c 1609,0 2913,1304 2913,2913 0,1350 -918,2486 -2165,2816 l 0,-5632 c -689,4292 -1279,5080 -2067,5080 -805,0 -1594,-1083 -1594,-2264 0,-1609 1304,-2913 2913,-2913 z"
       id="path3901"
       inkscape:connector-curvature="0"
       style="fill:#000000" /><path
       class="fil2"
       d="m 0,7063 c 2174,0 3937,1763 3937,3937 0,2174 -1763,3937 -3937,3937 -2174,0 -3937,-1763 -3937,-3937 0,-2174 1763,-3937 3937,-3937 z m -3375,5118 c 359,1005 1184,1883 2489,1910 646,13 1241,-673 1378,-1910 l -3867,0 z M 614,10764 c 47,-693 90,-1534 134,-2580 l 0,2580 2827,0 C 3453,8895 1899,7417 0,7417 c -1899,0 -3453,1478 -3575,3347 l 4189,0 z m 134,1417 0,2323 c 1230,-261 2227,-1154 2635,-2323 l -2635,0 z"
       id="path3903"
       inkscape:connector-curvature="0"
       style="fill:#e2001a" /><path
       class="fil3"
       d="m -3036,11821 c -191,0 -287,-56 -287,-169 l 0,-392 c 0,-39 22,-59 67,-59 44,0 66,20 66,58 l 0,386 c 0,39 50,59 150,59 l 331,0 c 38,0 56,20 56,61 0,37 -18,56 -56,56 l -327,0 z"
       id="path3905"
       inkscape:connector-curvature="0"
       style="fill:#ffffff;fill-rule:nonzero" /><path
       id="1"
       class="fil3"
       d="m -1854,11640 c 0,121 -101,181 -303,181 l -127,0 c -193,0 -289,-60 -289,-181 l 0,-380 c 0,-39 22,-59 66,-59 45,0 67,20 67,59 l 0,368 c 0,51 48,76 143,76 l 154,0 c 105,0 157,-25 157,-76 l 0,-368 c 0,-39 23,-59 68,-59 43,0 64,20 64,59 l 0,380 z"
       inkscape:connector-curvature="0"
       style="fill:#ffffff;fill-rule:nonzero" /><path
       id="2"
       class="fil3"
       d="m -970,11745 c 0,13 -3,24 -7,34 -4,10 -9,18 -16,25 -7,6 -15,11 -24,15 -10,3 -19,5 -28,5 -10,0 -20,-2 -31,-6 -10,-3 -19,-9 -26,-16 l -460,-412 0,375 c 0,39 -22,59 -65,59 -45,0 -67,-20 -67,-59 l 0,-487 c 0,-12 2,-23 6,-32 5,-9 10,-17 17,-24 7,-6 15,-11 25,-15 9,-3 19,-4 28,-4 11,0 21,2 32,5 10,4 19,9 27,17 l 457,405 0,-370 c 0,-39 22,-59 66,-59 44,0 66,20 66,59 l 0,485 z"
       inkscape:connector-curvature="0"
       style="fill:#ffffff;fill-rule:nonzero" /><path
       id="3"
       class="fil3"
       d="m -238,11387 c 0,-44 -38,-66 -114,-66 l -204,0 c -81,0 -122,22 -122,66 l 0,253 c 0,43 41,64 122,64 l 199,0 c 79,0 119,-21 119,-64 l 0,-253 z m 133,262 c 0,114 -91,172 -274,172 l -159,0 c -182,0 -274,-57 -274,-172 l 0,-272 c 0,-115 92,-173 274,-173 l 159,0 c 183,0 274,58 274,173 l 0,272 z"
       inkscape:connector-curvature="0"
       style="fill:#ffffff;fill-rule:nonzero" /><path
       id="4"
       class="fil3"
       d="m 270,11507 387,203 c 12,6 20,14 25,23 5,9 8,18 8,28 0,8 -1,16 -4,23 -3,7 -7,14 -13,20 -5,6 -12,11 -19,14 -7,4 -15,6 -24,6 -5,0 -10,-1 -16,-2 -5,-1 -11,-3 -16,-7 l -414,-232 0,182 c 0,39 -21,59 -64,59 -44,0 -66,-20 -66,-59 l 0,-505 c 0,-39 22,-59 66,-59 43,0 64,20 64,59 l 0,175 393,-225 c 11,-7 22,-10 34,-10 9,0 17,2 25,5 9,4 16,9 22,15 5,6 10,13 13,21 4,7 6,15 6,23 0,9 -3,18 -8,26 -5,8 -14,15 -26,22 l -373,195 z"
       inkscape:connector-curvature="0"
       style="fill:#ffffff;fill-rule:nonzero" /><path
       id="5"
       class="fil3"
       d="m 1560,11765 c 0,39 -22,59 -67,59 -43,0 -65,-20 -65,-59 l 0,-191 -461,0 0,191 c 0,39 -22,59 -67,59 -44,0 -66,-20 -66,-59 l 0,-505 c 0,-39 22,-59 67,-59 44,0 66,20 66,58 l 0,198 461,0 0,-198 c 0,-38 22,-58 65,-58 45,0 67,20 67,59 l 0,505 z"
       inkscape:connector-curvature="0"
       style="fill:#ffffff;fill-rule:nonzero" /><path
       id="6"
       class="fil3"
       d="m 2302,11387 c 0,-44 -38,-66 -114,-66 l -203,0 c -82,0 -123,22 -123,66 l 0,253 c 0,43 41,64 123,64 l 198,0 c 79,0 119,-21 119,-64 l 0,-253 z m 134,262 c 0,114 -92,172 -275,172 l -158,0 c -183,0 -274,-57 -274,-172 l 0,-272 c 0,-115 91,-173 274,-173 l 158,0 c 183,0 275,58 275,173 l 0,272 z"
       inkscape:connector-curvature="0"
       style="fill:#ffffff;fill-rule:nonzero" /><path
       id="7"
       class="fil3"
       d="m 3190,11376 c 0,-37 -38,-55 -113,-55 l -350,0 0,383 348,0 c 77,0 115,-21 115,-63 l 0,-265 z m 133,272 c 0,115 -82,173 -246,173 l -432,0 c -34,0 -51,-18 -51,-53 l 0,-512 c 0,-34 17,-52 51,-52 l 434,0 c 163,0 244,55 244,165 l 0,279 z"
       inkscape:connector-curvature="0"
       style="fill:#ffffff;fill-rule:nonzero" /></g></svg>