<?xml version="1.0" encoding="UTF-8" standalone="no"?>
<!-- Creator: CorelDRAW X7 -->

<svg
   xmlns:dc="http://purl.org/dc/elements/1.1/"
   xmlns:cc="http://creativecommons.org/ns#"
   xmlns:rdf="http://www.w3.org/1999/02/22-rdf-syntax-ns#"
   xmlns:svg="http://www.w3.org/2000/svg"
   xmlns="http://www.w3.org/2000/svg"
   xmlns:sodipodi="http://sodipodi.sourceforge.net/DTD/sodipodi-0.dtd"
   xmlns:inkscape="http://www.inkscape.org/namespaces/inkscape"
   xml:space="preserve"
   width="7.8740005in"
   height="7.8740005in"
   version="1.1"
   style="clip-rule:evenodd;fill-rule:evenodd;image-rendering:optimizeQuality;shape-rendering:geometricPrecision;text-rendering:geometricPrecision"
   viewBox="0 0 7874.0005 7874.0005"
   id="svg4307"
   inkscape:version="0.91 r13725"
   sodipodi:docname="Nomads - Reverend Custodiers - [N3] [Vyo].svg"><metadata
     id="metadata4329"><rdf:RDF><cc:Work
         rdf:about=""><dc:format>image/svg+xml</dc:format><dc:type
           rdf:resource="http://purl.org/dc/dcmitype/StillImage" /></cc:Work></rdf:RDF></metadata><sodipodi:namedview
     pagecolor="#ffffff"
     bordercolor="#666666"
     borderopacity="1"
     objecttolerance="10"
     gridtolerance="10"
     guidetolerance="10"
     inkscape:pageopacity="0"
     inkscape:pageshadow="2"
     inkscape:window-width="640"
     inkscape:window-height="480"
     id="namedview4327"
     showgrid="false"
     inkscape:zoom="0.23838384"
     inkscape:cx="736.83001"
     inkscape:cy="849.33005"
     inkscape:window-x="0"
     inkscape:window-y="0"
     inkscape:window-maximized="0"
     inkscape:current-layer="svg4307" /><defs
     id="defs4309"><style
       type="text/css"
       id="style4311"><![CDATA[
    .fil2 {fill:none}
    .fil0 {fill:#FCB316}
    .fil1 {fill:white}
    .fil3 {fill:black;fill-rule:nonzero}
   ]]></style></defs><g
     id="Layer_x0020_1"
     transform="translate(3937,-7063)"><metadata
       id="CorelCorpID_0Corel-Layer" /><circle
       class="fil0"
       cy="11000"
       r="3937"
       id="circle4315"
       cx="0"
       style="fill:#fcb316" /><circle
       class="fil1"
       cy="11000"
       r="3701"
       id="circle4317"
       cx="0"
       style="fill:#ffffff" /><circle
       class="fil2"
       cy="11000"
       r="3661"
       id="circle4319"
       cx="0"
       style="fill:none" /><path
       class="fil3"
       d="m -2970,9622 c 36,21 74,-2 113,-70 l 153,-267 -152,-88 -160,278 c -35,61 -37,99 -8,116 l 54,31 z m -83,34 c -67,-38 -70,-110 -9,-215 l 87,-152 -266,196 c -12,8 -22,9 -31,4 -8,-5 -13,-11 -17,-20 -3,-8 -3,-17 2,-25 2,-4 6,-7 11,-10 l 374,-263 -145,-84 c -17,-10 -20,-25 -9,-45 13,-21 27,-27 45,-17 l 373,214 c 12,7 15,18 7,31 l -172,300 c -66,115 -135,152 -205,112 l -45,-26 z m -67,95 -135,399 c -5,16 -17,20 -35,14 -19,-6 -25,-17 -20,-32 l 135,-399 -85,-29 c -39,-13 -70,17 -95,90 l -98,289 c -6,17 -18,22 -35,17 -19,-7 -25,-18 -19,-35 l 98,-291 c 40,-118 97,-164 170,-139 l 232,79 c 74,25 90,98 49,219 l -26,79 c -6,16 -17,21 -35,15 -18,-6 -24,-17 -18,-33 l 18,-52 c 31,-94 28,-147 -11,-160 l -90,-31 z m -392,659 353,326 c 10,9 14,19 11,32 -1,9 -6,17 -13,23 -8,6 -16,8 -25,6 -4,-1 -10,-4 -16,-8 l -354,-342 c -16,-15 -22,-32 -19,-50 4,-19 15,-32 34,-41 l 450,-197 c 7,-4 14,-5 20,-4 9,2 16,7 21,15 4,8 6,17 4,26 -2,12 -9,20 -21,26 l -445,188 z m 154,471 10,421 c 0,16 -9,25 -28,25 -20,1 -29,-7 -30,-24 l -10,-421 -90,2 c -41,1 -61,41 -59,118 l 8,305 c 0,18 -9,27 -27,28 -20,0 -30,-9 -30,-26 l -8,-308 c -3,-123 34,-186 111,-188 l 245,-6 c 79,-2 119,61 123,189 l 2,83 c 0,17 -9,26 -28,26 -18,1 -28,-8 -28,-25 l -1,-55 c -3,-99 -25,-148 -66,-147 l -94,3 z m 200,988 c 41,-7 55,-50 41,-127 l -54,-303 -173,31 56,315 c 12,69 35,101 69,95 l 61,-11 z m -42,79 c -76,14 -124,-39 -145,-159 l -31,-172 -77,321 c -5,13 -12,21 -22,22 -9,2 -17,1 -26,-4 -8,-4 -13,-11 -14,-20 -1,-4 -1,-9 1,-14 l 118,-443 -165,29 c -20,4 -32,-6 -36,-29 -4,-24 4,-38 24,-41 l 423,-76 c 14,-2 23,4 25,19 l 61,341 c 23,130 -5,203 -85,217 l -51,9 z m 12,114 154,392 c 6,15 0,26 -17,34 -18,7 -30,2 -36,-13 l -155,-392 -84,33 c -38,15 -43,59 -14,131 l 112,284 c 6,16 1,28 -16,35 -18,7 -31,2 -37,-14 l -113,-286 c -46,-115 -33,-187 39,-215 l 228,-90 c 73,-29 133,16 180,135 l 31,78 c 6,15 0,27 -17,34 -17,6 -29,2 -35,-14 l -21,-52 c -36,-91 -73,-130 -112,-115 l -87,35 z m 306,1069 c -14,9 -27,12 -38,9 -11,-3 -20,-9 -26,-19 -3,-4 -5,-9 -6,-16 -2,-6 -1,-12 0,-19 l 90,-561 -305,195 c -17,11 -32,7 -44,-13 -13,-19 -11,-34 6,-45 l 346,-222 c 13,-8 24,-10 35,-6 11,4 19,10 25,20 3,5 6,11 8,18 1,6 1,13 0,20 l -86,553 301,-193 c 17,-11 31,-6 45,15 12,18 9,33 -7,44 l -344,220 z m 638,240 c 29,-29 18,-71 -35,-126 l -218,-229 -265,252 217,227 c 54,57 97,69 130,38 l 171,-162 z m -122,213 c -61,58 -134,42 -219,-48 l -252,-264 c -10,-11 -10,-22 2,-33 l 313,-299 c 10,-10 21,-9 32,2 l 252,265 c 85,89 99,160 42,215 l -170,162 z m 564,60 c -67,-43 -111,-49 -131,-17 l -132,205 c -23,37 2,79 76,127 l 221,141 c 15,10 17,22 7,37 -10,17 -23,21 -38,11 l -229,-147 c -108,-69 -141,-137 -98,-204 l 133,-208 c 41,-63 113,-60 219,7 l 233,150 c 15,9 17,21 7,37 -10,16 -22,19 -37,9 l -231,-148 z m 686,682 c -36,80 -126,87 -269,23 l -98,-45 c -135,-61 -185,-132 -149,-212 l 133,-292 c 8,-18 22,-23 43,-13 23,10 30,24 22,42 l -131,288 c -22,48 10,92 96,131 l 118,54 c 94,42 151,38 173,-10 l 131,-288 c 8,-18 22,-22 44,-12 21,9 28,23 20,41 l -133,293 z m 579,153 c -17,72 -83,95 -200,68 l -310,-72 c -17,-4 -23,-15 -19,-35 4,-18 15,-24 32,-20 l 319,73 c 64,15 100,4 109,-33 l 9,-40 c 9,-41 -24,-70 -100,-87 l -141,-33 c -122,-28 -175,-75 -160,-140 l 11,-47 c 17,-73 78,-97 185,-72 l 77,18 c 18,4 24,15 20,33 -4,18 -15,25 -32,21 l -89,-21 c -53,-12 -83,2 -93,42 l -8,36 c -8,33 22,58 90,73 l 144,33 c 64,15 110,35 138,61 28,25 38,56 29,93 l -11,49 z m 242,-294 -30,395 c -2,20 -14,29 -38,27 -24,-1 -34,-12 -33,-32 l 30,-395 -197,-15 c -17,-2 -26,-12 -24,-32 1,-17 11,-25 29,-24 l 463,35 c 18,2 26,11 24,28 -1,20 -11,29 -28,28 l -196,-15 z m 703,64 c -3,-48 -44,-69 -122,-63 l -170,13 c -83,6 -122,33 -119,81 l 17,224 c 4,46 47,66 129,59 l 167,-12 c 80,-6 119,-32 115,-78 l -17,-224 z m 88,219 c 7,83 -61,130 -202,141 l -132,10 c -140,11 -213,-25 -219,-108 l -18,-229 c -6,-83 61,-129 201,-140 l 132,-10 c 141,-11 215,25 221,108 l 17,228 z m 528,-358 c -9,-40 -51,-51 -126,-34 l -308,71 82,356 306,-70 c 76,-18 109,-49 99,-93 l -53,-230 z m 122,214 c 19,81 -32,136 -153,164 l -355,82 c -15,3 -25,-3 -28,-18 l -98,-422 c -3,-14 3,-23 18,-26 l 356,-83 c 120,-27 189,-3 207,74 l 53,229 z m 190,14 c 8,18 0,32 -22,40 -22,9 -37,4 -44,-14 l -157,-396 c -7,-19 1,-33 24,-42 21,-8 36,-3 43,15 l 156,397 z m 64,-285 375,-192 c 14,-8 26,-3 35,14 9,17 6,29 -9,37 l -375,192 42,81 c 18,36 62,36 131,1 l 271,-139 c 16,-8 28,-4 37,12 9,18 5,30 -11,39 l -273,140 c -110,56 -183,50 -218,-18 l -112,-218 c -36,-70 3,-134 117,-193 l 74,-38 c 15,-7 27,-3 36,14 8,16 5,28 -10,36 l -50,25 c -88,45 -122,86 -103,123 l 43,84 z m 780,-618 c -26,-33 -70,-25 -131,23 l -243,190 109,139 252,-198 c 55,-43 72,-78 51,-105 l -38,-49 z m 90,0 c 47,60 23,128 -73,203 l -138,108 321,-83 c 13,-2 23,1 30,9 5,7 8,15 8,24 0,9 -4,17 -11,23 -4,2 -8,4 -14,5 l -446,104 104,132 c 12,16 9,31 -9,45 -19,15 -35,15 -48,-1 l -265,-338 c -9,-12 -7,-22 5,-32 l 272,-213 c 104,-82 181,-91 231,-27 l 33,41 z m 514,-287 c 55,48 44,117 -34,208 l -209,241 c -11,13 -24,13 -39,0 -14,-12 -15,-24 -4,-38 l 215,-247 c 43,-50 50,-87 21,-112 l -31,-27 c -32,-27 -73,-12 -124,47 l -95,110 c -81,94 -147,119 -198,76 l -36,-32 c -57,-49 -49,-114 22,-197 l 52,-60 c 12,-13 24,-14 39,-2 14,12 15,25 3,38 l -59,69 c -36,41 -38,75 -7,102 l 28,24 c 26,22 61,7 107,-46 l 96,-111 c 43,-50 83,-82 118,-94 35,-13 67,-7 96,17 l 39,34 z m -45,-478 139,71 139,-271 c 31,-60 31,-98 -1,-114 l -42,-22 c -33,-17 -64,3 -93,59 l -142,277 z m 323,170 151,-294 c 29,-57 29,-92 0,-107 l -41,-21 c -33,-18 -68,9 -103,78 l -141,275 134,69 z m -24,-554 c 39,20 56,54 50,103 42,-42 84,-52 128,-30 l 21,11 c 69,35 78,103 27,202 l -173,337 c -7,13 -17,16 -31,9 l -385,-197 c -13,-7 -16,-17 -9,-30 l 164,-322 c 52,-100 114,-132 186,-95 l 22,12 z m 205,-134 79,-279 -260,75 181,204 z m 145,-301 -100,353 92,109 c 4,5 6,10 7,15 2,6 2,10 1,14 -3,9 -8,17 -16,23 -8,6 -17,7 -27,4 -5,-1 -10,-5 -15,-10 l -321,-376 c -7,-7 -11,-16 -12,-25 -2,-10 -2,-19 1,-27 5,-17 17,-29 35,-36 l 473,-153 c 3,-3 7,-4 10,-4 3,1 6,1 8,2 10,2 16,8 20,17 3,8 4,17 1,26 -1,4 -4,9 -7,14 -4,4 -9,8 -15,10 l -135,44 z m -48,-349 232,-327 c 4,-5 9,-9 14,-12 5,-2 10,-3 14,-2 9,1 16,5 22,11 5,7 8,15 7,23 -1,6 -4,11 -8,17 l -253,350 181,23 c 20,3 29,15 26,38 -3,24 -15,34 -35,31 l -423,-54 c -19,-2 -27,-15 -24,-39 2,-22 14,-32 33,-30 l 176,23 -154,-384 c -3,-8 -4,-14 -3,-20 1,-9 6,-17 13,-22 7,-6 15,-8 23,-7 4,0 8,2 12,5 4,2 7,7 9,14 l 138,362 z m 123,-981 c 88,-7 137,68 149,225 l 9,108 c 11,148 -27,225 -115,232 l -320,24 c -20,2 -31,-9 -32,-32 -2,-24 7,-37 26,-39 l 315,-24 c 53,-4 77,-53 69,-146 l -9,-130 c -8,-102 -39,-152 -92,-147 l -315,23 c -20,2 -30,-9 -32,-32 -2,-24 7,-36 27,-38 l 320,-24 z m -56,-669 c 16,-3 28,-2 38,5 9,6 15,15 18,27 1,5 1,10 1,16 -1,7 -3,13 -7,19 l -274,498 353,-82 c 20,-4 32,5 38,28 5,22 -2,36 -22,40 l -400,93 c -15,3 -27,1 -35,-6 -9,-8 -15,-17 -17,-27 -2,-7 -2,-13 -1,-20 0,-7 3,-13 6,-19 l 267,-492 -348,80 c -19,5 -31,-5 -37,-29 -5,-21 2,-34 22,-39 l 398,-92 z m -66,-181 c 18,-7 32,1 41,23 8,22 4,37 -15,44 l -396,157 c -19,7 -32,-1 -41,-24 -9,-22 -4,-36 14,-43 l 397,-157 z m -317,-613 c 15,-8 28,-9 38,-5 11,4 19,11 25,21 2,5 4,10 4,17 1,6 0,12 -2,19 l -143,550 322,-166 c 18,-9 32,-3 43,18 11,20 7,35 -11,44 l -365,188 c -14,7 -26,8 -36,3 -10,-5 -18,-13 -23,-22 -3,-6 -5,-12 -6,-19 -1,-7 0,-13 2,-20 l 138,-542 -317,163 c -18,9 -32,2 -43,-19 -10,-20 -7,-34 11,-43 l 363,-187 z"
       id="path4321"
       inkscape:connector-curvature="0"
       style="fill:#000000;fill-rule:nonzero" /><path
       class="fil0"
       d="m 557,8421 c 1010,217 1804,1012 2022,2022 l 452,557 -452,557 c -217,1010 -1012,1804 -2022,2022 l -557,452 -557,-452 c -1010,-217 -1804,-1012 -2022,-2022 l -452,-557 452,-557 C -2361,9433 -1567,8638 -557,8421 L 0,7969 557,8421 Z m 30,290 -75,399 -1024,0 -75,-399 c -833,213 -1489,869 -1702,1702 l 399,75 0,1024 -399,75 c 213,833 869,1489 1702,1702 l 75,-399 1024,0 75,399 c 833,-213 1489,-869 1702,-1702 l -399,-75 0,-1024 399,-75 C 2076,9580 1420,8924 587,8711 Z"
       id="path4323"
       inkscape:connector-curvature="0"
       style="fill:#fcb316" /><path
       class="fil0"
       d="m 530,9350 c 698,224 1202,878 1202,1650 0,772 -504,1426 -1202,1650 l -241,-750 c 381,-122 656,-479 656,-900 0,-421 -275,-778 -656,-900 l 241,-750 z m -1060,3300 c -698,-224 -1202,-878 -1202,-1650 0,-772 504,-1426 1202,-1650 l 241,750 c -381,122 -656,479 -656,900 0,421 275,778 656,900 l -241,750 z"
       id="path4325"
       inkscape:connector-curvature="0"
       style="fill:#fcb316" /></g></svg>