<?xml version="1.0" encoding="UTF-8" standalone="no"?>
<!-- Creator: CorelDRAW X7 -->

<svg
   xmlns:dc="http://purl.org/dc/elements/1.1/"
   xmlns:cc="http://creativecommons.org/ns#"
   xmlns:rdf="http://www.w3.org/1999/02/22-rdf-syntax-ns#"
   xmlns:svg="http://www.w3.org/2000/svg"
   xmlns="http://www.w3.org/2000/svg"
   xmlns:sodipodi="http://sodipodi.sourceforge.net/DTD/sodipodi-0.dtd"
   xmlns:inkscape="http://www.inkscape.org/namespaces/inkscape"
   xml:space="preserve"
   width="7.8740005in"
   height="7.8740005in"
   version="1.1"
   style="clip-rule:evenodd;fill-rule:evenodd;image-rendering:optimizeQuality;shape-rendering:geometricPrecision;text-rendering:geometricPrecision"
   viewBox="0 0 7874.0005 7874.0005"
   id="svg3590"
   inkscape:version="0.91 r13725"
   sodipodi:docname="Nomads - Daktaris - [N3] [Vyo].svg"><metadata
     id="metadata3626"><rdf:RDF><cc:Work
         rdf:about=""><dc:format>image/svg+xml</dc:format><dc:type
           rdf:resource="http://purl.org/dc/dcmitype/StillImage" /></cc:Work></rdf:RDF></metadata><sodipodi:namedview
     pagecolor="#ffffff"
     bordercolor="#666666"
     borderopacity="1"
     objecttolerance="10"
     gridtolerance="10"
     guidetolerance="10"
     inkscape:pageopacity="0"
     inkscape:pageshadow="2"
     inkscape:window-width="640"
     inkscape:window-height="480"
     id="namedview3624"
     showgrid="false"
     inkscape:zoom="0.23838384"
     inkscape:cx="736.83001"
     inkscape:cy="849.33005"
     inkscape:window-x="0"
     inkscape:window-y="0"
     inkscape:window-maximized="0"
     inkscape:current-layer="svg3590" /><defs
     id="defs3592"><style
       type="text/css"
       id="style3594"><![CDATA[
    .fil2 {fill:none}
    .fil0 {fill:black}
    .fil4 {fill:#E2001A}
    .fil1 {fill:white}
    .fil3 {fill:#E2001A;fill-rule:nonzero}
   ]]></style></defs><g
     id="Layer_x0020_1"
     transform="translate(3937,-7063)"><metadata
       id="CorelCorpID_0Corel-Layer" /><circle
       class="fil0"
       cy="11000"
       r="3937"
       id="circle3598"
       cx="0"
       style="fill:#000000" /><circle
       class="fil1"
       cy="11000"
       r="3780"
       id="circle3600"
       cx="0"
       style="fill:#ffffff" /><circle
       class="fil2"
       cy="11000"
       r="3898"
       id="circle3602"
       cx="0"
       style="fill:none" /><path
       class="fil3"
       d="m -1780,13771 c 19,-27 1,-61 -56,-101 l -262,-186 -204,287 261,185 c 57,41 97,46 119,14 l 142,-199 z m -45,275 c -62,87 -154,86 -277,-1 l -324,-230 c -26,-18 -29,-41 -10,-67 l 272,-384 c 19,-26 41,-30 67,-11 l 325,231 c 122,86 154,171 95,253 l -148,209 z m 323,66 235,107 -34,-235 -201,128 z m 247,226 -343,-156 -123,77 c -8,5 -18,8 -27,8 -10,-1 -18,-2 -26,-6 -7,-3 -13,-7 -18,-13 -6,-6 -11,-12 -14,-19 -3,-7 -5,-15 -6,-22 0,-8 1,-16 5,-23 4,-10 12,-18 22,-25 l 459,-284 c 13,-9 26,-13 39,-14 14,0 27,2 38,7 12,6 22,14 31,24 8,11 13,24 16,39 l 88,532 1,-1 c 2,13 1,25 -4,35 -3,8 -8,14 -14,18 -6,5 -13,8 -20,11 -7,2 -15,2 -23,2 -7,-1 -15,-3 -22,-6 -9,-4 -16,-9 -22,-16 -6,-7 -9,-16 -12,-28 l -25,-140 z m 465,-13 318,245 c 10,8 17,16 20,25 3,9 4,18 2,27 -1,7 -3,13 -7,20 -4,6 -9,11 -15,16 -6,4 -12,8 -19,10 -7,2 -15,2 -23,1 -4,-1 -9,-2 -14,-4 -5,-2 -9,-5 -14,-9 l -338,-276 -29,164 c -6,36 -28,50 -67,44 -40,-8 -57,-29 -51,-65 l 81,-457 c 6,-35 29,-49 69,-42 39,7 55,28 49,63 l -28,159 392,-142 c 10,-4 21,-5 32,-3 8,1 16,4 22,9 7,4 13,10 17,16 4,7 7,14 9,21 2,8 3,15 1,22 -1,8 -5,16 -11,22 -6,7 -15,12 -27,16 l -369,118 z m 766,-86 -10,409 c -1,36 -21,53 -62,52 -41,-1 -61,-19 -60,-55 l 9,-408 -192,-5 c -34,-1 -51,-19 -50,-56 1,-35 18,-52 52,-51 l 508,11 c 34,1 50,19 49,54 -1,37 -18,54 -51,54 l -193,-5 z m 389,197 257,-33 -153,-182 -104,215 z m 330,61 -374,49 -64,129 c -5,10 -11,17 -19,22 -9,5 -17,8 -25,9 -8,1 -15,0 -23,-2 -8,-2 -15,-5 -21,-9 -7,-4 -13,-10 -17,-16 -4,-6 -7,-14 -8,-22 -2,-10 0,-21 6,-32 l 239,-484 c 7,-14 16,-24 27,-32 11,-8 23,-13 36,-14 13,-2 26,0 38,4 13,5 24,13 34,25 l 356,405 0,-1 c 9,10 14,21 16,32 1,8 0,16 -3,23 -3,7 -6,13 -12,19 -5,5 -11,10 -17,14 -7,3 -15,6 -23,7 -9,1 -18,0 -27,-3 -8,-3 -16,-8 -24,-17 l -95,-106 z m 664,-495 c -12,-31 -51,-34 -117,-8 l -292,116 53,135 305,-120 c 57,-23 82,-47 72,-70 l -21,-53 z m 134,7 c 36,91 -15,164 -152,218 l -80,31 254,10 c 13,1 24,4 32,11 8,6 14,14 17,23 3,7 5,14 5,21 0,8 -2,15 -4,22 -3,7 -6,14 -11,19 -5,6 -12,10 -19,13 -8,3 -17,4 -26,3 l 1,0 -468,-38 58,148 c 13,33 1,57 -36,72 -39,15 -65,6 -78,-28 l -172,-434 c -12,-30 -3,-51 26,-63 l 352,-139 c 148,-58 241,-39 280,58 l 21,53 z m 297,171 c 18,31 9,56 -26,77 -36,20 -63,15 -81,-16 l -230,-404 c -18,-31 -9,-57 27,-78 35,-20 61,-14 79,17 l 231,404 z m 556,-483 c 55,77 23,158 -94,241 l -282,201 c -28,20 -52,15 -73,-15 -21,-29 -17,-53 11,-72 l 289,-206 c 46,-33 60,-62 42,-87 l -18,-26 c -20,-28 -59,-21 -116,19 l -128,92 c -122,87 -209,94 -260,23 l -31,-44 c -56,-79 -30,-157 80,-235 l 71,-51 c 28,-20 52,-15 73,15 21,28 17,53 -11,73 l -81,57 c -36,26 -45,52 -26,79 l 14,19 c 17,25 50,19 100,-16 l 131,-93 c 128,-91 220,-98 276,-20 l 33,46 z"
       id="path3604"
       inkscape:connector-curvature="0"
       style="fill:#e2001a;fill-rule:nonzero" /><polygon
       class="fil4"
       points="-1159,13588 0,11181 1159,13588 0,12142 "
       id="polygon3606"
       style="fill:#e2001a" /><polygon
       class="fil0"
       points="1301,13520 142,11113 2746,11708 893,11712 "
       id="polygon3608"
       style="fill:#000000" /><polygon
       class="fil4"
       points="2781,11554 177,10960 2265,9294 1113,10746 "
       id="polygon3610"
       style="fill:#e2001a" /><polygon
       class="fil0"
       points="-2746,11708 -142,11113 -1301,13520 -893,11712 "
       id="polygon3612"
       style="fill:#000000" /><polygon
       class="fil4"
       points="-2265,9294 -177,10960 -2781,11554 -1113,10746 "
       id="polygon3614"
       style="fill:#e2001a" /><polygon
       class="fil0"
       points="-79,10836 -2167,9171 -495,9971 "
       id="polygon3616"
       style="fill:#000000" /><polygon
       class="fil4"
       points="-79,10836 -495,9971 -79,8165 "
       id="polygon3618"
       style="fill:#e2001a" /><polygon
       class="fil4"
       points="79,10836 79,8165 495,9971 "
       id="polygon3620"
       style="fill:#e2001a" /><polygon
       class="fil0"
       points="79,10836 495,9971 2167,9171 "
       id="polygon3622"
       style="fill:#000000" /></g></svg>