<?xml version="1.0" encoding="UTF-8" standalone="no"?>
<!-- Creator: CorelDRAW X7 -->

<svg
   xmlns:dc="http://purl.org/dc/elements/1.1/"
   xmlns:cc="http://creativecommons.org/ns#"
   xmlns:rdf="http://www.w3.org/1999/02/22-rdf-syntax-ns#"
   xmlns:svg="http://www.w3.org/2000/svg"
   xmlns="http://www.w3.org/2000/svg"
   xmlns:sodipodi="http://sodipodi.sourceforge.net/DTD/sodipodi-0.dtd"
   xmlns:inkscape="http://www.inkscape.org/namespaces/inkscape"
   xml:space="preserve"
   width="7.8740005in"
   height="7.8740005in"
   version="1.1"
   style="clip-rule:evenodd;fill-rule:evenodd;image-rendering:optimizeQuality;shape-rendering:geometricPrecision;text-rendering:geometricPrecision"
   viewBox="0 0 7874.0005 7874.0005"
   id="svg4126"
   inkscape:version="0.91 r13725"
   sodipodi:docname="Nomads - Pi-Well - [N3] [Vyo].svg"><metadata
     id="metadata4191"><rdf:RDF><cc:Work
         rdf:about=""><dc:format>image/svg+xml</dc:format><dc:type
           rdf:resource="http://purl.org/dc/dcmitype/StillImage" /></cc:Work></rdf:RDF></metadata><sodipodi:namedview
     pagecolor="#ffffff"
     bordercolor="#666666"
     borderopacity="1"
     objecttolerance="10"
     gridtolerance="10"
     guidetolerance="10"
     inkscape:pageopacity="0"
     inkscape:pageshadow="2"
     inkscape:window-width="640"
     inkscape:window-height="480"
     id="namedview4189"
     showgrid="false"
     inkscape:zoom="0.23838384"
     inkscape:cx="736.83001"
     inkscape:cy="849.33005"
     inkscape:window-x="0"
     inkscape:window-y="0"
     inkscape:window-maximized="0"
     inkscape:current-layer="svg4126" /><defs
     id="defs4128"><style
       type="text/css"
       id="style4130"><![CDATA[
    .fil2 {fill:none}
    .fil0 {fill:black}
    .fil4 {fill:#FFA000}
    .fil1 {fill:white}
    .fil3 {fill:white;fill-rule:nonzero}
   ]]></style></defs><g
     id="Layer_x0020_1"
     transform="translate(3937,-7063)"><metadata
       id="CorelCorpID_0Corel-Layer" /><circle
       class="fil0"
       cy="11000"
       r="3937"
       id="circle4134"
       cx="0"
       style="fill:#000000" /><circle
       class="fil1"
       cy="11000"
       r="3780"
       id="circle4136"
       cx="0"
       style="fill:#ffffff" /><ellipse
       class="fil2"
       transform="matrix(-0.524085,1.52205,-1.97066,-0.678553,-1.34046e-4,11000)"
       rx="2421"
       ry="1870"
       id="ellipse4138"
       cx="0"
       cy="0"
       style="fill:none" /><path
       class="fil3"
       d="m 3280,11161 12,-260 c 1,-24 15,-36 41,-35 24,1 36,14 35,38 l -16,355 c 0,7 -2,12 -4,17 -3,5 -6,10 -11,13 -4,4 -9,6 -14,8 -5,2 -11,2 -16,2 -12,0 -21,-5 -29,-14 l -244,-307 -12,273 c -1,24 -14,35 -39,34 -26,-1 -38,-14 -37,-37 l 15,-354 c 1,-8 2,-15 5,-21 3,-6 7,-11 12,-15 4,-5 9,-8 15,-10 6,-2 12,-3 18,-3 12,1 22,7 32,18 l 237,298 z"
       id="path4140"
       inkscape:connector-curvature="0"
       style="fill:#ffffff;fill-rule:nonzero" /><path
       id="1"
       class="fil3"
       d="m 3138,11807 c 29,6 48,-15 58,-64 l 28,-132 c 11,-53 2,-82 -27,-88 l -163,-34 c -28,-6 -47,18 -58,70 l -27,129 c -11,51 -2,80 25,85 l 164,34 z m -187,51 c -74,-15 -99,-82 -74,-200 l 21,-102 c 24,-118 74,-170 148,-154 l 175,36 c 75,16 100,82 75,200 l -21,103 c -25,118 -74,169 -149,154 l -175,-37 z"
       inkscape:connector-curvature="0"
       style="fill:#ffffff;fill-rule:nonzero" /><path
       id="2"
       class="fil3"
       d="m 2658,12409 c -8,-4 -14,-8 -19,-14 -5,-5 -8,-10 -10,-16 -2,-6 -3,-12 -3,-19 1,-6 2,-12 5,-18 2,-5 6,-11 11,-16 5,-5 11,-9 17,-12 l 373,-164 -225,-102 c -24,-11 -30,-29 -18,-55 12,-27 30,-35 53,-24 l 293,133 c 8,3 13,7 18,12 4,5 7,11 9,17 2,6 3,12 3,18 -1,7 -3,13 -5,19 -3,6 -7,12 -12,17 -5,5 -11,9 -17,12 l -368,164 222,101 c 24,11 30,29 17,56 -11,26 -29,33 -52,23 l -292,-132 z"
       inkscape:connector-curvature="0"
       style="fill:#ffffff;fill-rule:nonzero" /><path
       id="3"
       class="fil3"
       d="m 2572,12991 c 19,14 44,1 73,-40 l 133,-188 -207,-147 -133,187 c -29,42 -33,70 -10,86 l 144,102 z m -198,-32 c -62,-44 -62,-111 1,-199 l 165,-233 c 13,-18 29,-21 48,-7 l 276,195 c 18,14 21,30 8,48 l -166,234 c -62,88 -123,110 -182,68 l -150,-106 z"
       inkscape:connector-curvature="0"
       style="fill:#ffffff;fill-rule:nonzero" /><polygon
       class="fil4"
       points="-1890,12417 -1260,10252 -79,10252 -709,12417 "
       id="polygon4145"
       style="fill:#ffa000" /><polygon
       class="fil4"
       points="-315,12417 315,10252 1496,10252 866,12417 "
       id="polygon4147"
       style="fill:#ffa000" /><polygon
       class="fil4"
       points="-1732,10016 -1142,9189 1457,9189 2047,10016 "
       id="polygon4149"
       style="fill:#ffa000" /><path
       class="fil4"
       d="m 0,7378 c 2000,0 3622,1622 3622,3622 0,2000 -1622,3622 -3622,3622 -2000,0 -3622,-1622 -3622,-3622 0,-2000 1622,-3622 3622,-3622 z m 0,905 c 1500,0 2717,1217 2717,2717 0,1500 -1217,2717 -2717,2717 -1500,0 -2717,-1217 -2717,-2717 0,-1500 1217,-2717 2717,-2717 z"
       id="path4151"
       inkscape:connector-curvature="0"
       style="fill:#ffa000" /><path
       class="fil1"
       d="m 512,14427 c -167,25 -338,38 -512,38 -174,0 -345,-13 -512,-38 l 0,-2 c -108,0 -196,-88 -197,-197 l 0,0 0,0 0,-200 c 0,-108 88,-196 197,-196 l 0,-3 c 166,29 337,45 512,45 175,0 346,-16 512,-45 l 0,3 c 109,0 197,88 197,196 l 0,200 0,0 0,0 c -1,109 -89,197 -197,197 l 0,2 z"
       id="path4153"
       inkscape:connector-curvature="0"
       style="fill:#ffffff" /><path
       class="fil1"
       d="m 2712,8843 c 105,133 201,274 288,425 87,150 162,305 224,462 l -2,1 c 54,94 22,214 -72,269 l 0,0 0,0 -173,100 c -94,54 -215,22 -269,-73 l -3,2 c -57,-159 -129,-315 -216,-466 -87,-151 -186,-292 -295,-421 l 2,-1 c -54,-94 -22,-215 72,-269 l 173,-100 1,0 0,0 c 94,-54 214,-22 268,72 l 2,-1 z"
       id="path4155"
       inkscape:connector-curvature="0"
       style="fill:#ffffff" /><path
       class="fil1"
       d="m -3224,9730 c 62,-157 137,-312 224,-462 87,-151 183,-292 288,-425 l 2,1 c 54,-94 174,-126 268,-72 l 0,0 1,0 173,100 c 94,54 126,175 72,269 l 2,1 c -109,129 -208,270 -295,421 -87,151 -159,307 -216,466 l -3,-2 c -54,95 -175,127 -269,73 l -173,-100 0,0 0,0 c -94,-55 -126,-175 -72,-269 l -2,-1 z"
       id="path4157"
       inkscape:connector-curvature="0"
       style="fill:#ffffff" /><ellipse
       class="fil2"
       transform="matrix(-0.524085,1.52205,-1.97066,-0.678553,-1.34046e-4,11000)"
       rx="2421"
       ry="1870"
       id="ellipse4159"
       cx="0"
       cy="0"
       style="fill:none" /><path
       class="fil3"
       d="m 3280,11161 12,-260 c 1,-24 15,-36 41,-35 24,1 36,14 35,38 l -16,355 c 0,7 -2,12 -4,17 -3,5 -6,10 -11,13 -4,4 -9,6 -14,8 -5,2 -11,2 -16,2 -12,0 -21,-5 -29,-14 l -244,-307 -12,273 c -1,24 -14,35 -39,34 -26,-1 -38,-14 -37,-37 l 15,-354 c 1,-8 2,-15 5,-21 3,-6 7,-11 12,-15 4,-5 9,-8 15,-10 6,-2 12,-3 18,-3 12,1 22,7 32,18 l 237,298 z"
       id="path4161"
       inkscape:connector-curvature="0"
       style="fill:#ffffff;fill-rule:nonzero" /><path
       id="path4163"
       class="fil3"
       d="m 3138,11807 c 29,6 48,-15 58,-64 l 28,-132 c 11,-53 2,-82 -27,-88 l -163,-34 c -28,-6 -47,18 -58,70 l -27,129 c -11,51 -2,80 25,85 l 164,34 z m -187,51 c -74,-15 -99,-82 -74,-200 l 21,-102 c 24,-118 74,-170 148,-154 l 175,36 c 75,16 100,82 75,200 l -21,103 c -25,118 -74,169 -149,154 l -175,-37 z"
       inkscape:connector-curvature="0"
       style="fill:#ffffff;fill-rule:nonzero" /><path
       id="path4165"
       class="fil3"
       d="m 2658,12409 c -8,-4 -14,-8 -19,-14 -5,-5 -8,-10 -10,-16 -2,-6 -3,-12 -3,-19 1,-6 2,-12 5,-18 2,-5 6,-11 11,-16 5,-5 11,-9 17,-12 l 373,-164 -225,-102 c -24,-11 -30,-29 -18,-55 12,-27 30,-35 53,-24 l 293,133 c 8,3 13,7 18,12 4,5 7,11 9,17 2,6 3,12 3,18 -1,7 -3,13 -5,19 -3,6 -7,12 -12,17 -5,5 -11,9 -17,12 l -368,164 222,101 c 24,11 30,29 17,56 -11,26 -29,33 -52,23 l -292,-132 z"
       inkscape:connector-curvature="0"
       style="fill:#ffffff;fill-rule:nonzero" /><path
       id="path4167"
       class="fil3"
       d="m 2572,12991 c 19,14 44,1 73,-40 l 133,-188 -207,-147 -133,187 c -29,42 -33,70 -10,86 l 144,102 z m -198,-32 c -62,-44 -62,-111 1,-199 l 165,-233 c 13,-18 29,-21 48,-7 l 276,195 c 18,14 21,30 8,48 l -166,234 c -62,88 -123,110 -182,68 l -150,-106 z"
       inkscape:connector-curvature="0"
       style="fill:#ffffff;fill-rule:nonzero" /><ellipse
       class="fil2"
       transform="matrix(-1.0561,-1.2149,1.57297,-1.36737,-1.6885e-4,11000)"
       rx="2421"
       ry="1870"
       id="ellipse4169"
       cx="0"
       cy="0"
       style="fill:none" /><path
       class="fil3"
       d="m -1763,13773 227,127 c 21,12 25,30 12,53 -12,21 -29,26 -50,14 l -310,-173 c -5,-3 -10,-7 -13,-11 -3,-5 -6,-10 -7,-16 -1,-5 -1,-10 -1,-16 1,-5 3,-10 6,-15 6,-11 14,-17 26,-19 l 383,-81 -238,-133 c -21,-11 -25,-29 -13,-51 13,-22 29,-28 50,-16 l 309,172 c 7,4 12,9 16,14 4,5 7,11 9,17 2,6 2,12 2,18 -1,6 -3,12 -6,17 -6,11 -16,18 -30,21 l -372,78 z"
       id="path4171"
       inkscape:connector-curvature="0"
       style="fill:#ffffff;fill-rule:nonzero" /><path
       id="path4173"
       class="fil3"
       d="m -2266,13317 c -20,22 -11,50 27,83 l 101,88 c 40,36 70,43 89,21 l 111,-126 c 19,-21 8,-50 -33,-85 l -98,-87 c -39,-34 -68,-41 -87,-20 l -110,126 z m 48,-188 c 50,-57 120,-45 210,34 l 79,70 c 90,79 111,148 61,204 l -119,135 c -50,57 -120,45 -211,-34 l -78,-70 c -91,-79 -111,-148 -61,-205 l 119,-134 z"
       inkscape:connector-curvature="0"
       style="fill:#ffffff;fill-rule:nonzero" /><path
       id="path4175"
       class="fil3"
       d="m -2548,12596 c 7,-5 14,-9 20,-10 7,-2 13,-2 20,-1 6,1 12,3 17,7 5,3 10,7 14,12 4,6 7,12 9,18 2,7 3,14 2,21 l -37,407 199,-148 c 21,-15 40,-12 57,11 17,24 16,43 -5,59 l -259,192 c -6,5 -13,8 -19,10 -7,1 -13,1 -20,0 -6,-1 -12,-4 -17,-7 -5,-4 -10,-8 -14,-14 -4,-5 -7,-11 -9,-18 -3,-7 -3,-14 -2,-21 l 35,-403 -197,146 c -20,15 -39,11 -57,-12 -17,-23 -15,-42 5,-58 l 258,-191 z"
       inkscape:connector-curvature="0"
       style="fill:#ffffff;fill-rule:nonzero" /><path
       id="path4177"
       class="fil3"
       d="m -3005,12236 c -21,11 -21,39 0,83 l 101,207 228,-110 -100,-207 c -22,-45 -45,-61 -70,-49 l -159,76 z m 124,-157 c 68,-33 126,-1 173,96 l 124,256 c 10,20 5,35 -16,45 l -304,148 c -20,10 -36,5 -45,-16 l -125,-257 c -47,-96 -37,-160 28,-192 l 165,-80 z"
       inkscape:connector-curvature="0"
       style="fill:#ffffff;fill-rule:nonzero" /><ellipse
       class="fil2"
       transform="matrix(1.58018,-0.307156,0.397686,2.04592,3.02895e-4,11000)"
       rx="2421"
       ry="1870"
       id="ellipse4179"
       cx="0"
       cy="0"
       style="fill:none" /><path
       class="fil3"
       d="m -1447,8103 17,278 c 1,11 -2,21 -8,30 -6,9 -13,15 -22,20 -9,4 -19,7 -30,6 -10,0 -20,-5 -29,-12 l -274,-221 c -6,-6 -9,-10 -11,-13 -2,-5 -4,-10 -3,-16 0,-6 1,-11 3,-16 2,-5 5,-10 9,-14 4,-4 9,-8 14,-10 7,-4 14,-5 22,-5 8,0 15,3 22,9 l 226,190 -21,-281 c -1,-12 2,-23 8,-33 5,-9 13,-16 22,-20 9,-5 18,-7 28,-6 11,1 20,5 29,12 l 217,184 -21,-293 c -1,-9 1,-17 5,-23 5,-7 11,-12 18,-15 4,-2 10,-4 15,-5 6,0 12,0 18,1 5,2 10,4 15,7 5,3 8,7 11,12 2,3 2,6 3,9 1,3 1,5 1,8 l 15,351 c 1,12 -2,22 -8,31 -6,9 -14,16 -22,20 -10,5 -19,7 -30,6 -11,0 -20,-4 -29,-12 l -210,-179 z"
       id="path4181"
       inkscape:connector-curvature="0"
       style="fill:#ffffff;fill-rule:nonzero" /><path
       id="path4183"
       class="fil3"
       d="m -876,7927 305,-72 c 23,-5 38,5 43,29 6,25 -2,40 -25,46 l -306,71 12,50 c 5,23 33,29 82,18 l 232,-55 c 23,-5 37,4 43,29 6,25 -3,40 -26,45 l -234,55 c -105,25 -166,3 -182,-66 l -44,-186 c -8,-36 -1,-65 22,-89 23,-24 62,-43 116,-55 l 64,-15 c 23,-6 37,4 43,29 6,25 -3,40 -26,45 l -43,10 c -65,15 -94,35 -89,58 l 13,53 z"
       inkscape:connector-curvature="0"
       style="fill:#ffffff;fill-rule:nonzero" /><path
       id="path4185"
       class="fil3"
       d="m -195,8053 c -127,7 -192,-27 -196,-101 l -14,-258 c -1,-26 13,-40 42,-41 30,-2 45,10 46,36 l 14,254 c 1,26 35,38 100,34 l 219,-11 c 25,-2 38,11 39,37 1,24 -10,37 -35,39 l -215,11 z"
       inkscape:connector-curvature="0"
       style="fill:#ffffff;fill-rule:nonzero" /><path
       id="path4187"
       class="fil3"
       d="M 316,8060 C 191,8041 134,7995 145,7921 l 39,-256 c 4,-25 21,-36 50,-31 29,4 41,19 37,44 l -38,252 c -4,26 26,44 91,53 l 217,34 c 24,3 34,18 30,45 -3,24 -17,34 -42,31 l -213,-33 z"
       inkscape:connector-curvature="0"
       style="fill:#ffffff;fill-rule:nonzero" /></g></svg>