<?xml version="1.0" encoding="UTF-8" standalone="no"?>
<!-- Creator: CorelDRAW X7 -->

<svg
   xmlns:dc="http://purl.org/dc/elements/1.1/"
   xmlns:cc="http://creativecommons.org/ns#"
   xmlns:rdf="http://www.w3.org/1999/02/22-rdf-syntax-ns#"
   xmlns:svg="http://www.w3.org/2000/svg"
   xmlns="http://www.w3.org/2000/svg"
   xmlns:sodipodi="http://sodipodi.sourceforge.net/DTD/sodipodi-0.dtd"
   xmlns:inkscape="http://www.inkscape.org/namespaces/inkscape"
   xml:space="preserve"
   width="7.8740005in"
   height="7.8740005in"
   version="1.1"
   style="clip-rule:evenodd;fill-rule:evenodd;image-rendering:optimizeQuality;shape-rendering:geometricPrecision;text-rendering:geometricPrecision"
   viewBox="0 0 7874.0005 7874.0005"
   id="svg4407"
   inkscape:version="0.91 r13725"
   sodipodi:docname="Nomads - Salyut Zonds - [N3] [Vyo].svg"><metadata
     id="metadata4435"><rdf:RDF><cc:Work
         rdf:about=""><dc:format>image/svg+xml</dc:format><dc:type
           rdf:resource="http://purl.org/dc/dcmitype/StillImage" /></cc:Work></rdf:RDF></metadata><sodipodi:namedview
     pagecolor="#ffffff"
     bordercolor="#666666"
     borderopacity="1"
     objecttolerance="10"
     gridtolerance="10"
     guidetolerance="10"
     inkscape:pageopacity="0"
     inkscape:pageshadow="2"
     inkscape:window-width="640"
     inkscape:window-height="480"
     id="namedview4433"
     showgrid="false"
     inkscape:zoom="0.23838384"
     inkscape:cx="736.83001"
     inkscape:cy="849.33005"
     inkscape:window-x="0"
     inkscape:window-y="0"
     inkscape:window-maximized="0"
     inkscape:current-layer="svg4407" /><defs
     id="defs4409"><style
       type="text/css"
       id="style4411"><![CDATA[
    .fil2 {fill:none}
    .fil0 {fill:black}
    .fil3 {fill:#E2001A}
    .fil1 {fill:white}
   ]]></style></defs><g
     id="Layer_x0020_1"
     transform="translate(3937,-7063)"><metadata
       id="CorelCorpID_0Corel-Layer" /><circle
       class="fil0"
       cy="11000"
       r="3937"
       id="circle4415"
       cx="0"
       style="fill:#000000" /><circle
       class="fil1"
       cy="11000"
       r="3583"
       id="circle4417"
       cx="0"
       style="fill:#ffffff" /><circle
       class="fil2"
       cy="11000"
       r="2913"
       id="circle4419"
       cx="0"
       style="fill:none" /><path
       class="fil3"
       d="m -3448,11624 c 9,57 61,96 116,84 l 308,-65 c 54,-12 88,-64 78,-117 -32,-171 -46,-347 -46,-526 0,-179 15,-355 46,-526 10,-54 -23,-105 -78,-117 l -308,-65 c -55,-12 -107,27 -116,84 -35,203 -56,411 -56,624 0,213 21,421 56,624 z"
       id="path4421"
       inkscape:connector-curvature="0"
       style="fill:#e2001a" /><path
       class="fil3"
       d="m 3448,10376 c -9,-57 -61,-96 -116,-84 l -308,65 c -54,12 -88,64 -78,117 32,171 46,347 46,526 0,179 -15,355 -46,526 -10,54 23,105 78,117 l 308,65 c 55,12 107,-27 116,-84 35,-203 56,-411 56,-624 0,-213 -21,-421 -56,-624 z"
       id="path4423"
       inkscape:connector-curvature="0"
       style="fill:#e2001a" /><circle
       class="fil0"
       cy="11000"
       r="2913"
       id="circle4425"
       cx="0"
       style="fill:#000000" /><path
       class="fil3"
       d="m 0,13224 c 1229,0 2224,-995 2224,-2224 0,-1229 -995,-2224 -2224,-2224 -1229,0 -2224,995 -2224,2224 0,1229 995,2224 2224,2224 z m 236,-3960 0,3472 c 856,-115 1516,-849 1516,-1736 0,-887 -660,-1621 -1516,-1736 z m -472,3472 0,-3472 c -856,115 -1516,849 -1516,1736 0,887 660,1621 1516,1736 z"
       id="path4427"
       inkscape:connector-curvature="0"
       style="fill:#e2001a" /><path
       class="fil0"
       d="m 819,7677 c 9,25 37,36 61,27 24,-10 36,-38 26,-62 -9,-24 -37,-36 -61,-26 -25,10 -36,37 -26,61 z m -3421,1607 c 71,42 74,117 10,225 l -154,258 c -15,26 -36,30 -63,14 -27,-16 -32,-36 -17,-62 l 158,-265 c 25,-42 26,-70 3,-83 l -24,-15 c -25,-15 -54,4 -85,56 l -70,118 c -67,112 -133,148 -199,109 l -40,-24 c -72,-43 -78,-114 -19,-215 l 39,-65 c 16,-26 37,-30 64,-14 26,15 32,36 17,62 l -45,74 c -20,33 -17,57 7,72 l 18,10 c 22,14 47,-2 74,-48 l 71,-119 c 70,-118 141,-156 213,-113 l 42,25 z M 1294,7846 c 24,-9 36,-37 26,-61 -10,-24 -37,-36 -61,-26 l -524,212 0,0 -21,8 c -16,7 -26,17 -31,31 -3,7 -3,14 -3,21 0,8 2,15 6,22 3,6 8,13 14,18 6,6 14,10 22,13 l 406,140 c 27,9 46,-1 56,-30 10,-30 2,-49 -26,-58 l -312,-108 448,-182 z m -3753,1097 146,-171 -204,-28 58,199 z m 249,-152 -214,249 34,121 c 3,9 3,17 0,25 -2,8 -6,14 -11,20 -4,5 -9,9 -15,12 -6,4 -13,6 -19,7 -7,1 -14,1 -20,-1 -7,-1 -13,-4 -18,-9 -7,-6 -12,-14 -15,-24 l -127,-452 c -4,-13 -4,-25 -1,-37 2,-11 7,-21 15,-30 7,-8 16,-15 27,-19 11,-5 23,-6 36,-4 l 466,55 0,-1 c 11,1 20,5 28,11 5,5 9,11 12,17 2,6 3,12 3,19 0,6 -1,13 -3,19 -3,7 -6,12 -11,18 -5,6 -11,11 -19,14 -7,3 -15,4 -25,3 l -123,-13 z m 471,-225 c -124,89 -213,97 -265,23 l -182,-255 c -18,-26 -12,-49 17,-70 29,-20 52,-18 70,8 l 179,251 c 18,26 59,15 124,-31 l 216,-153 c 25,-18 46,-13 65,13 18,24 14,45 -10,63 l -214,151 z m 352,-539 92,-252 c 5,-14 13,-23 26,-29 6,-3 13,-4 20,-5 7,0 14,0 20,3 6,2 13,5 18,8 5,4 9,9 12,15 5,10 4,22 0,35 l -104,279 65,146 c 11,29 1,50 -29,64 -32,14 -55,7 -68,-21 l -66,-145 -278,-104 c -12,-5 -21,-12 -26,-22 -2,-6 -4,-13 -3,-19 0,-7 2,-14 4,-20 3,-6 7,-12 11,-17 5,-5 10,-9 17,-12 5,-3 11,-4 17,-4 7,-1 13,0 20,3 l 252,97 z m 1027,-168 c 23,94 -45,159 -202,197 l -99,24 c -150,36 -236,8 -259,-86 l -71,-296 c -7,-30 6,-50 41,-58 35,-8 55,3 63,33 l 69,286 c 9,40 51,51 125,33 l 120,-29 c 82,-20 118,-49 108,-89 l -69,-286 c -7,-31 6,-50 41,-58 34,-8 54,3 62,33 l 71,296 z m 482,-250 -8,355 c -1,32 -19,47 -54,46 -36,-1 -53,-17 -53,-48 l 8,-355 -167,-4 c -30,0 -44,-17 -44,-49 1,-30 16,-45 46,-44 l 442,9 c 29,1 43,17 42,47 0,32 -15,47 -44,47 l -168,-4 z m 1757,629 c 19,-30 3,-61 -48,-94 l -137,-88 c -55,-35 -92,-38 -111,-8 l -109,170 c -19,29 -1,61 54,96 l 134,86 c 53,34 89,37 108,8 l 109,-170 z m -23,234 c -50,77 -136,76 -259,-3 l -107,-68 c -123,-79 -160,-157 -110,-234 l 117,-183 c 50,-78 137,-77 259,2 l 107,68 c 123,79 160,157 110,235 l -117,183 z m 515,590 c -8,7 -16,12 -24,15 -8,3 -15,4 -23,4 -8,-1 -15,-3 -22,-6 -7,-3 -13,-8 -18,-13 -6,-6 -10,-13 -14,-21 -3,-8 -5,-16 -5,-25 l -12,-493 -218,205 c -23,22 -47,20 -70,-6 -25,-26 -25,-49 -3,-71 l 284,-267 c 7,-6 15,-11 22,-13 8,-3 16,-4 24,-4 7,1 14,3 21,6 7,4 13,9 19,15 5,6 10,13 14,21 3,8 5,16 5,25 l 14,488 216,-203 c 23,-21 46,-19 71,7 23,25 24,49 1,70 l -282,266 z m 617,417 c 25,-14 24,-48 -5,-101 l -135,-245 -269,148 134,244 c 30,54 59,72 89,56 l 186,-102 z m -140,198 c -80,45 -152,9 -216,-105 l -166,-303 c -13,-24 -8,-43 17,-57 l 359,-197 c 24,-13 43,-8 56,16 l 167,304 c 63,114 56,192 -21,235 l -196,107 z"
       id="path4429"
       inkscape:connector-curvature="0"
       style="fill:#000000" /><path
       class="fil0"
       d="m -819,14323 c -9,-25 -37,-36 -61,-27 -24,10 -36,38 -26,62 9,24 37,36 61,26 25,-10 36,-37 26,-61 z m 3421,-1607 c -71,-42 -74,-117 -10,-225 l 154,-258 c 15,-26 36,-30 63,-14 27,16 32,36 17,62 l -158,265 c -25,42 -26,70 -3,83 l 24,15 c 25,15 54,-4 85,-56 l 70,-118 c 67,-112 133,-148 199,-109 l 40,24 c 72,43 78,114 19,215 l -39,65 c -16,26 -37,30 -64,14 -26,-15 -32,-36 -17,-62 l 45,-74 c 20,-33 17,-57 -7,-72 l -18,-10 c -22,-14 -47,2 -74,48 l -71,119 c -70,118 -141,156 -213,113 l -42,-25 z m -3896,1438 c -24,9 -36,37 -26,61 10,24 37,36 61,26 l 524,-212 0,0 21,-8 c 16,-7 26,-17 31,-31 3,-7 3,-14 3,-21 0,-8 -2,-15 -6,-22 -3,-6 -8,-12 -14,-18 -6,-6 -14,-10 -22,-13 l -406,-140 c -27,-9 -46,1 -56,30 -10,30 -2,49 26,58 l 312,108 -448,182 z m 3753,-1097 -146,171 204,28 -58,-199 z m -249,152 214,-249 -34,-121 c -3,-9 -3,-17 0,-25 2,-8 6,-14 11,-20 4,-5 9,-9 15,-12 6,-4 13,-6 19,-7 7,-1 14,-1 20,1 7,1 13,4 18,9 7,6 12,14 15,24 l 127,452 c 4,13 4,25 1,37 -2,11 -7,21 -15,30 -7,8 -16,15 -27,19 -11,5 -23,6 -36,4 l -466,-55 0,1 c -11,-1 -20,-5 -28,-11 -5,-5 -9,-11 -12,-17 -2,-6 -3,-12 -3,-19 0,-6 1,-13 3,-19 3,-7 6,-12 11,-18 5,-6 11,-11 19,-14 7,-3 15,-4 25,-3 l 123,13 z m -471,225 c 124,-89 213,-97 265,-23 l 182,255 c 18,26 12,49 -17,70 -29,20 -52,18 -70,-8 l -179,-251 c -18,-26 -59,-15 -124,31 l -216,153 c -25,18 -46,13 -65,-13 -18,-24 -14,-45 10,-63 l 214,-151 z m -352,539 -92,252 c -5,14 -13,23 -26,29 -6,3 -13,4 -20,5 -7,0 -14,0 -20,-3 -6,-2 -13,-5 -18,-8 -5,-4 -9,-9 -12,-15 -5,-10 -4,-22 0,-35 l 104,-279 -65,-146 c -11,-29 -1,-50 29,-64 32,-14 55,-7 68,21 l 66,145 278,104 c 12,5 21,12 26,22 2,6 4,13 3,19 0,7 -2,14 -4,20 -3,6 -7,12 -11,17 -5,5 -10,9 -17,12 -5,3 -11,4 -17,4 -7,1 -13,0 -20,-3 l -252,-97 z m -1027,168 c -23,-94 45,-159 202,-197 l 99,-24 c 150,-36 236,-8 259,86 l 71,296 c 7,30 -6,50 -41,58 -35,8 -55,-3 -63,-33 l -69,-286 c -9,-40 -51,-51 -125,-33 l -120,29 c -82,20 -118,49 -108,89 l 69,286 c 7,31 -6,50 -41,58 -34,8 -54,-3 -62,-33 l -71,-296 z m -482,250 8,-355 c 1,-31 19,-47 54,-46 36,1 53,17 53,48 l -8,355 167,4 c 30,0 44,17 44,49 -1,30 -16,45 -46,44 l -442,-9 c -29,-1 -43,-17 -42,-47 0,-32 15,-47 44,-47 l 168,4 z m -1757,-629 c -19,30 -3,61 48,94 l 137,88 c 55,35 92,38 111,8 l 109,-170 c 19,-29 1,-61 -54,-96 l -134,-86 c -53,-34 -89,-37 -108,-8 l -109,170 z m 23,-234 c 50,-77 136,-76 259,3 l 107,68 c 123,79 160,157 110,234 l -117,183 c -50,78 -137,77 -259,-2 l -107,-68 c -123,-79 -160,-157 -110,-235 l 117,-183 z m -515,-590 c 8,-7 16,-12 24,-15 8,-3 15,-4 23,-4 8,1 15,3 22,6 7,3 13,8 18,13 6,6 10,13 14,21 3,8 5,16 5,25 l 12,493 218,-205 c 23,-22 47,-20 70,6 25,26 25,49 3,71 l -284,267 c -7,6 -15,11 -22,13 -8,3 -16,4 -24,4 -7,-1 -14,-3 -21,-6 -7,-4 -13,-9 -19,-15 -5,-6 -10,-13 -14,-21 -3,-8 -5,-16 -5,-25 l -14,-488 -216,203 c -23,21 -46,19 -71,-7 -23,-25 -24,-49 -1,-70 l 282,-266 z m -617,-417 c -25,14 -24,48 5,101 l 135,245 269,-148 -134,-244 c -30,-54 -59,-72 -89,-56 l -186,102 z m 140,-198 c 80,-45 152,-9 216,105 l 166,303 c 13,24 8,43 -17,57 l -359,197 c -24,13 -43,8 -56,-16 l -167,-304 c -63,-114 -56,-192 21,-235 l 196,-107 z"
       id="path4431"
       inkscape:connector-curvature="0"
       style="fill:#000000" /></g></svg>