<?xml version="1.0" encoding="UTF-8" standalone="no"?>
<!-- Creator: CorelDRAW X7 -->

<svg
   xmlns:dc="http://purl.org/dc/elements/1.1/"
   xmlns:cc="http://creativecommons.org/ns#"
   xmlns:rdf="http://www.w3.org/1999/02/22-rdf-syntax-ns#"
   xmlns:svg="http://www.w3.org/2000/svg"
   xmlns="http://www.w3.org/2000/svg"
   xmlns:sodipodi="http://sodipodi.sourceforge.net/DTD/sodipodi-0.dtd"
   xmlns:inkscape="http://www.inkscape.org/namespaces/inkscape"
   xml:space="preserve"
   width="7.8740005in"
   height="7.8740005in"
   version="1.1"
   style="clip-rule:evenodd;fill-rule:evenodd;image-rendering:optimizeQuality;shape-rendering:geometricPrecision;text-rendering:geometricPrecision"
   viewBox="0 0 7874.0005 7874.0005"
   id="svg3973"
   inkscape:version="0.91 r13725"
   sodipodi:docname="Nomads - Mobile Brigada - [N3] [Vyo].svg"><metadata
     id="metadata4033"><rdf:RDF><cc:Work
         rdf:about=""><dc:format>image/svg+xml</dc:format><dc:type
           rdf:resource="http://purl.org/dc/dcmitype/StillImage" /></cc:Work></rdf:RDF></metadata><sodipodi:namedview
     pagecolor="#ffffff"
     bordercolor="#666666"
     borderopacity="1"
     objecttolerance="10"
     gridtolerance="10"
     guidetolerance="10"
     inkscape:pageopacity="0"
     inkscape:pageshadow="2"
     inkscape:window-width="640"
     inkscape:window-height="480"
     id="namedview4031"
     showgrid="false"
     inkscape:zoom="0.23838384"
     inkscape:cx="736.83001"
     inkscape:cy="849.33005"
     inkscape:window-x="0"
     inkscape:window-y="0"
     inkscape:window-maximized="0"
     inkscape:current-layer="svg3973" /><defs
     id="defs3975"><style
       type="text/css"
       id="style3977"><![CDATA[
    .fil2 {fill:none}
    .fil0 {fill:black}
    .fil1 {fill:#FFA000}
    .fil4 {fill:white}
    .fil5 {fill:white}
    .fil3 {fill:white;fill-rule:nonzero}
   ]]></style></defs><g
     id="Layer_x0020_1"
     transform="translate(3937,-7063)"><metadata
       id="CorelCorpID_0Corel-Layer" /><circle
       class="fil0"
       cy="11000"
       r="3937"
       id="circle3981"
       cx="0"
       style="fill:#000000" /><circle
       class="fil1"
       cy="11000"
       r="3583"
       id="circle3983"
       cx="0"
       style="fill:#ffa000" /><circle
       class="fil2"
       cy="11000"
       r="3504"
       id="circle3985"
       cx="0"
       style="fill:none" /><path
       class="fil3"
       d="m -2913,10318 c 35,3 51,25 48,65 -3,38 -22,56 -58,53 l -306,-26 304,274 c 22,20 31,43 29,71 -2,30 -16,52 -40,68 l -346,223 307,26 c 35,3 51,23 48,62 -4,40 -23,58 -58,55 l -440,-36 c -43,-4 -63,-27 -59,-70 2,-25 15,-46 39,-63 l 419,-276 -372,-336 c -19,-17 -27,-39 -25,-66 4,-44 27,-64 71,-60 l 439,36 z"
       id="path3987"
       inkscape:connector-curvature="0"
       style="fill:#ffffff;fill-rule:nonzero" /><path
       id="1"
       class="fil3"
       d="m -2991,9576 c -38,-15 -68,10 -93,74 l -65,171 c -27,69 -21,111 16,125 l 213,81 c 36,14 67,-13 93,-82 l 64,-167 c 26,-67 20,-107 -16,-121 l -212,-81 z m 262,-27 c 96,36 115,132 56,285 l -51,134 c -58,153 -136,212 -232,175 l -228,-88 c -97,-37 -116,-132 -57,-286 l 51,-133 c 58,-153 136,-212 233,-175 l 228,88 z"
       inkscape:connector-curvature="0"
       style="fill:#ffffff;fill-rule:nonzero" /><path
       id="2"
       class="fil3"
       d="m -2795,9116 96,75 187,-238 c 36,-46 44,-77 23,-94 l -32,-25 c -22,-17 -49,-5 -82,37 l -192,245 z m 177,142 92,73 204,-259 c 33,-43 41,-72 22,-87 l -30,-23 c -23,-18 -55,0 -97,53 l -191,243 z m 197,-499 c 33,26 44,63 34,111 54,-29 99,-29 137,1 l 20,16 c 77,60 74,143 -9,248 l -249,317 c -19,24 -41,26 -66,7 l -361,-284 c -25,-20 -28,-41 -8,-66 l 237,-302 c 41,-53 82,-84 123,-95 41,-11 82,-1 122,31 l 20,16 z"
       inkscape:connector-curvature="0"
       style="fill:#ffffff;fill-rule:nonzero" /><path
       id="3"
       class="fil3"
       d="m -1959,8775 c 23,26 20,53 -10,79 -29,27 -56,27 -79,1 l -302,-339 c -24,-26 -20,-53 11,-80 29,-26 55,-26 78,0 l 302,339 z"
       inkscape:connector-curvature="0"
       style="fill:#ffffff;fill-rule:nonzero" /><path
       id="4"
       class="fil3"
       d="m -1618,8578 c -145,94 -245,98 -300,13 l -191,-296 c -19,-29 -11,-55 22,-77 34,-21 60,-18 79,12 l 189,291 c 19,30 66,20 141,-28 l 251,-162 c 28,-18 52,-12 72,18 18,28 13,51 -16,69 l -247,160 z"
       inkscape:connector-curvature="0"
       style="fill:#ffffff;fill-rule:nonzero" /><path
       id="5"
       class="fil3"
       d="m -1270,8006 404,-138 c 31,-10 52,1 63,34 11,33 1,54 -29,65 l -405,138 23,65 c 10,31 48,36 113,14 l 307,-105 c 31,-11 52,1 63,34 11,32 2,54 -29,64 l -310,106 c -139,48 -224,26 -255,-66 l -85,-247 c -15,-47 -10,-88 18,-124 27,-35 77,-65 149,-90 l 85,-29 c 30,-10 51,1 63,35 11,32 1,53 -29,64 l -58,19 c -86,30 -123,60 -112,91 l 24,70 z"
       inkscape:connector-curvature="0"
       style="fill:#ffffff;fill-rule:nonzero" /><path
       id="6"
       class="fil3"
       d="m 146,7624 -16,122 299,41 c 58,8 89,-2 92,-28 l 6,-42 c 4,-27 -21,-44 -73,-52 l -308,-41 z m -33,226 -16,116 326,44 c 54,8 82,-1 85,-24 l 6,-38 c 3,-29 -28,-48 -96,-57 l -305,-41 z m 528,-83 c -5,41 -31,70 -78,86 52,31 75,70 68,118 l -3,26 c -13,96 -86,135 -219,117 L 10,8060 c -30,-4 -44,-22 -39,-53 l 62,-457 c 4,-31 21,-44 52,-40 l 381,51 c 66,9 114,29 144,59 30,29 42,70 35,121 l -4,26 z"
       inkscape:connector-curvature="0"
       style="fill:#ffffff;fill-rule:nonzero" /><path
       id="7"
       class="fil3"
       d="m 1377,7978 c 12,-31 -14,-59 -78,-84 l -288,-110 -51,134 299,115 c 56,21 89,20 98,-3 l 20,-52 z m 91,93 c -34,89 -119,108 -253,56 l -78,-30 177,175 c 9,10 14,19 15,29 2,10 1,20 -2,28 -3,7 -7,13 -11,19 -5,5 -11,10 -18,13 -6,3 -13,5 -20,6 -7,1 -15,0 -22,-3 -8,-3 -15,-8 -21,-15 l 1,0 -312,-336 -56,145 c -12,32 -37,42 -74,28 -38,-15 -51,-39 -38,-72 l 163,-427 c 12,-29 32,-38 60,-27 l 346,132 c 145,56 199,132 163,227 l -20,52 z"
       inkscape:connector-curvature="0"
       style="fill:#ffffff;fill-rule:nonzero" /><path
       id="8"
       class="fil3"
       d="m 1541,8467 c -18,30 -44,35 -79,16 -35,-20 -44,-45 -27,-76 l 224,-396 c 17,-31 43,-36 79,-15 35,19 43,44 26,74 l -223,397 z"
       inkscape:connector-curvature="0"
       style="fill:#ffffff;fill-rule:nonzero" /><path
       id="9"
       class="fil3"
       d="m 2224,8874 c -63,74 -149,66 -255,-26 l -158,-135 c -116,-99 -142,-185 -79,-259 l 172,-201 c 63,-73 152,-60 270,40 l 61,53 c 25,21 26,45 3,72 -22,26 -46,28 -71,7 l -43,-37 c -68,-58 -112,-76 -132,-53 l -165,193 c -20,24 -3,60 53,108 l 156,133 c 46,39 78,49 95,28 l 88,-102 c 23,-27 50,-28 80,-2 31,26 35,53 12,80 l -87,101 z"
       inkscape:connector-curvature="0"
       style="fill:#ffffff;fill-rule:nonzero" /><path
       id="10"
       class="fil3"
       d="m 2514,9096 145,207 88,-215 -233,8 z m 96,313 -212,-302 -142,4 c -11,0 -20,-2 -28,-7 -8,-5 -14,-11 -19,-17 -4,-6 -7,-13 -9,-21 -2,-7 -2,-15 -2,-23 1,-7 3,-14 7,-21 3,-7 8,-12 15,-17 8,-6 18,-9 31,-10 l 527,-11 c 15,0 29,2 40,9 12,6 22,14 29,24 7,11 12,22 13,35 2,14 0,27 -5,41 l -190,492 0,0 c -4,12 -11,21 -20,27 -6,5 -13,7 -20,8 -8,1 -15,1 -22,-1 -8,-2 -14,-5 -21,-9 -6,-5 -11,-10 -16,-16 -5,-8 -8,-16 -10,-25 -1,-9 0,-18 4,-29 l 50,-131 z"
       inkscape:connector-curvature="0"
       style="fill:#ffffff;fill-rule:nonzero" /><path
       id="11"
       class="fil3"
       d="m 3195,10110 c 31,-10 37,-47 16,-112 l -95,-298 -330,105 95,297 c 20,66 49,92 85,81 l 229,-73 z m -198,188 c -98,32 -170,-23 -215,-163 l -117,-369 c -10,-30 1,-49 31,-59 l 438,-140 c 30,-9 49,1 59,30 l 118,372 c 44,139 19,223 -75,253 l -239,76 z"
       inkscape:connector-curvature="0"
       style="fill:#ffffff;fill-rule:nonzero" /><path
       id="12"
       class="fil3"
       d="m 3139,10653 20,252 185,-140 -205,-112 z m -76,319 -30,-368 -124,-68 c -9,-5 -15,-12 -20,-20 -4,-8 -6,-16 -7,-24 -1,-8 0,-15 3,-22 2,-8 5,-15 9,-21 5,-6 10,-12 17,-16 6,-4 13,-6 21,-7 10,0 21,2 31,8 l 461,257 c 14,7 24,16 31,27 7,11 11,24 12,36 1,13 -1,25 -6,37 -6,12 -14,23 -26,32 l -412,329 1,0 c -10,8 -21,12 -32,13 -8,1 -15,0 -22,-3 -7,-3 -13,-7 -18,-12 -5,-6 -10,-12 -13,-18 -3,-7 -5,-15 -6,-22 0,-10 1,-18 4,-27 3,-8 9,-16 18,-23 l 108,-88 z"
       inkscape:connector-curvature="0"
       style="fill:#ffffff;fill-rule:nonzero" /><path
       class="fil4"
       d="m -276,9489 c -356,65 -669,252 -894,517 l -595,-343 -555,-3 280,480 594,343 c -58,162 -89,336 -89,517 0,181 31,355 89,517 l -594,343 -280,480 555,-3 595,-343 c 225,265 538,452 894,517 l 0,686 276,482 276,-482 0,-686 c 356,-65 669,-252 894,-517 l 595,343 555,3 -280,-480 -594,-343 c 58,-162 89,-336 89,-517 0,-181 -31,-355 -89,-517 l 594,-343 280,-480 -555,3 -595,343 C 945,9741 632,9554 276,9489 l 0,-686 -276,-482 -276,482 0,686 z m 276,527 c -544,0 -984,440 -984,984 0,544 440,984 984,984 544,0 984,-440 984,-984 0,-544 -440,-984 -984,-984 z"
       id="path4001"
       inkscape:connector-curvature="0"
       style="fill:#ffffff" /><path
       class="fil0"
       d="m -157,9591 c -403,45 -755,258 -984,568 l -656,-378 -317,-1 160,274 655,378 c -76,174 -118,366 -118,568 0,202 42,394 118,568 l -655,378 -160,274 317,-1 656,-378 c 229,310 581,523 984,568 l 0,756 157,276 157,-276 0,-756 c 403,-45 755,-258 984,-568 l 656,378 317,1 -160,-274 -655,-378 c 76,-174 118,-366 118,-568 0,-202 -42,-394 -118,-568 l 655,-378 160,-274 -317,1 -656,378 C 912,9849 560,9636 157,9591 l 0,-756 -157,-276 -157,276 0,756 z M 0,9898 c -609,0 -1102,493 -1102,1102 0,609 493,1102 1102,1102 609,0 1102,-493 1102,-1102 C 1102,10391 609,9898 0,9898 Z"
       id="path4003"
       inkscape:connector-curvature="0"
       style="fill:#000000" /><circle
       class="fil5"
       cy="11000"
       r="472"
       id="circle4005"
       cx="0"
       style="fill:#ffffff" /><circle
       class="fil0"
       cy="11000"
       r="354"
       id="circle4007"
       cx="0"
       style="fill:#000000" /><circle
       class="fil2"
       cy="11000"
       r="3504"
       id="circle4009"
       cx="0"
       style="fill:none" /><path
       class="fil3"
       d="m 2981,12564 c 34,-61 39,-99 15,-113 l -219,-124 c -31,-17 -66,9 -104,78 l -138,244 c -16,29 -40,35 -70,18 -30,-17 -37,-40 -20,-69 l 143,-253 c 74,-132 155,-174 242,-125 l 229,129 c 82,46 86,134 13,264 l -145,257 c -16,29 -39,35 -69,18 -30,-17 -37,-40 -21,-69 l 144,-255 z"
       id="path4011"
       inkscape:connector-curvature="0"
       style="fill:#ffffff;fill-rule:nonzero" /><path
       id="path4013"
       class="fil3"
       d="m 2294,13374 c 29,28 66,17 113,-32 l 127,-132 c 50,-53 61,-93 33,-120 l -164,-157 c -28,-27 -67,-14 -118,39 l -123,128 c -49,52 -60,91 -32,117 l 164,157 z m -253,-75 c -74,-72 -55,-167 59,-285 l 98,-103 c 114,-118 208,-142 282,-71 l 176,169 c 75,72 56,167 -58,285 l -98,103 c -114,119 -208,142 -283,70 l -176,-168 z"
       inkscape:connector-curvature="0"
       style="fill:#ffffff;fill-rule:nonzero" /><path
       id="path4015"
       class="fil3"
       d="m 1605,13905 c 18,28 56,24 114,-14 l 258,-167 -78,-120 -268,174 c -51,33 -70,60 -56,81 l 30,46 z m -129,19 c -51,-80 -17,-159 104,-238 l 70,-45 -245,40 c -13,2 -24,0 -33,-4 -9,-5 -16,-11 -21,-19 -4,-6 -6,-13 -8,-20 -1,-7 -1,-14 0,-21 1,-8 3,-14 7,-21 4,-6 9,-11 15,-15 7,-5 15,-8 24,-9 l 0,0 455,-53 -84,-131 c -19,-29 -12,-55 21,-76 34,-22 61,-19 80,11 l 248,384 c 17,26 13,48 -13,64 l -311,201 c -130,84 -223,84 -278,-2 l -31,-46 z"
       inkscape:connector-curvature="0"
       style="fill:#ffffff;fill-rule:nonzero" /><path
       id="path4017"
       class="fil3"
       d="m 825,14213 c 10,32 48,37 113,17 l 293,-94 -44,-136 -304,97 c -57,18 -82,40 -75,63 l 17,53 z m -129,-16 c -29,-90 25,-157 162,-201 l 80,-25 -247,-27 c -13,-2 -23,-6 -30,-13 -8,-7 -13,-15 -16,-24 -2,-7 -3,-14 -3,-21 1,-8 2,-15 5,-22 3,-6 8,-12 13,-17 5,-5 11,-9 19,-11 8,-3 16,-3 25,-2 l 0,0 452,70 -47,-149 c -11,-33 3,-56 41,-68 39,-12 63,-2 74,32 l 139,435 c 9,30 -1,49 -30,59 l -352,112 c -148,47 -237,22 -268,-75 l -17,-53 z"
       inkscape:connector-curvature="0"
       style="fill:#ffffff;fill-rule:nonzero" /><path
       id="path4019"
       class="fil3"
       d="m 412,14218 -426,35 c -32,2 -50,-14 -53,-48 -2,-35 12,-53 44,-56 l 427,-35 -6,-69 c -3,-33 -38,-46 -107,-41 l -323,26 c -33,3 -50,-13 -53,-48 -3,-34 12,-53 44,-55 l 327,-27 c 146,-12 223,30 231,127 l 21,260 c 4,49 -11,87 -47,115 -36,28 -91,45 -167,51 l -89,7 c -32,3 -50,-14 -53,-49 -2,-34 12,-52 44,-55 l 61,-5 c 90,-7 134,-27 131,-59 l -6,-74 z"
       inkscape:connector-curvature="0"
       style="fill:#ffffff;fill-rule:nonzero" /><path
       id="path4021"
       class="fil3"
       d="m -850,13962 c 16,-96 93,-133 231,-110 l 205,33 c 151,24 218,84 203,180 l -42,260 c -15,95 -99,131 -251,106 l -79,-13 c -33,-5 -46,-25 -41,-59 6,-34 25,-48 57,-43 l 56,9 c 88,14 135,6 140,-24 l 40,-250 c 5,-31 -29,-52 -101,-64 l -203,-33 c -59,-9 -91,-1 -96,26 l -21,133 c -6,35 -28,50 -68,43 -40,-6 -57,-27 -51,-62 l 21,-132 z"
       inkscape:connector-curvature="0"
       style="fill:#ffffff;fill-rule:nonzero" /><path
       id="path4023"
       class="fil3"
       d="m -1056,13767 c 13,-33 37,-42 75,-28 37,15 50,39 37,71 l -162,425 c -13,33 -38,41 -77,27 -36,-14 -48,-38 -36,-70 l 163,-425 z"
       inkscape:connector-curvature="0"
       style="fill:#ffffff;fill-rule:nonzero" /><path
       id="path4025"
       class="fil3"
       d="m -1833,13758 c -17,28 4,60 62,95 l 268,161 178,-296 -267,-161 c -59,-35 -98,-37 -118,-4 l -123,205 z m 23,-272 c 54,-89 143,-95 270,-20 l 332,200 c 27,16 32,38 16,65 l -237,394 c -16,27 -37,32 -64,17 l -334,-201 c -126,-76 -163,-156 -112,-240 l 129,-215 z"
       inkscape:connector-curvature="0"
       style="fill:#ffffff;fill-rule:nonzero" /><path
       id="path4027"
       class="fil3"
       d="m -2481,13184 c -28,28 -19,66 28,115 l 128,132 c 51,53 91,66 120,38 l 164,-158 c 27,-27 16,-67 -35,-120 l -125,-128 c -49,-52 -88,-64 -116,-37 l -164,158 z m 86,-250 c 75,-71 169,-48 283,70 l 99,103 c 114,118 135,213 61,284 l -176,170 c -75,72 -169,49 -283,-69 l -100,-103 c -114,-118 -134,-213 -59,-285 l 175,-170 z"
       inkscape:connector-curvature="0"
       style="fill:#ffffff;fill-rule:nonzero" /><path
       id="path4029"
       class="fil3"
       d="m -2980,12462 c -29,16 -26,54 8,114 l 152,268 125,-71 -159,-278 c -30,-53 -56,-73 -78,-61 l -48,28 z m -11,-131 c 83,-47 160,-8 232,118 l 41,73 -26,-248 c -1,-13 2,-23 7,-32 5,-9 11,-15 20,-20 6,-4 13,-6 20,-7 7,-1 15,-1 22,0 7,2 14,5 19,9 7,4 12,9 15,16 5,7 7,16 7,25 l -1,0 29,458 134,-77 c 31,-17 56,-9 75,25 20,36 15,62 -16,80 l -397,226 c -27,16 -49,10 -64,-17 l -183,-322 c -78,-135 -71,-228 18,-279 l 48,-28 z"
       inkscape:connector-curvature="0"
       style="fill:#ffffff;fill-rule:nonzero" /></g></svg>