<?xml version="1.0" encoding="UTF-8" standalone="no"?>
<!-- Creator: CorelDRAW X7 -->

<svg
   xmlns:dc="http://purl.org/dc/elements/1.1/"
   xmlns:cc="http://creativecommons.org/ns#"
   xmlns:rdf="http://www.w3.org/1999/02/22-rdf-syntax-ns#"
   xmlns:svg="http://www.w3.org/2000/svg"
   xmlns="http://www.w3.org/2000/svg"
   xmlns:sodipodi="http://sodipodi.sourceforge.net/DTD/sodipodi-0.dtd"
   xmlns:inkscape="http://www.inkscape.org/namespaces/inkscape"
   xml:space="preserve"
   width="7.8740005in"
   height="7.8740005in"
   version="1.1"
   style="clip-rule:evenodd;fill-rule:evenodd;image-rendering:optimizeQuality;shape-rendering:geometricPrecision;text-rendering:geometricPrecision"
   viewBox="0 0 7874.0005 7874.0005"
   id="svg4469"
   inkscape:version="0.91 r13725"
   sodipodi:docname="Nomads - Sin-Eater Observants - [N3] [Vyo].svg"><metadata
     id="metadata4501"><rdf:RDF><cc:Work
         rdf:about=""><dc:format>image/svg+xml</dc:format><dc:type
           rdf:resource="http://purl.org/dc/dcmitype/StillImage" /></cc:Work></rdf:RDF></metadata><sodipodi:namedview
     pagecolor="#ffffff"
     bordercolor="#666666"
     borderopacity="1"
     objecttolerance="10"
     gridtolerance="10"
     guidetolerance="10"
     inkscape:pageopacity="0"
     inkscape:pageshadow="2"
     inkscape:window-width="640"
     inkscape:window-height="480"
     id="namedview4499"
     showgrid="false"
     inkscape:zoom="0.23838384"
     inkscape:cx="736.83001"
     inkscape:cy="849.33005"
     inkscape:window-x="0"
     inkscape:window-y="0"
     inkscape:window-maximized="0"
     inkscape:current-layer="svg4469" /><defs
     id="defs4471"><style
       type="text/css"
       id="style4473"><![CDATA[
    .fil2 {fill:none}
    .fil0 {fill:#FCB316}
    .fil1 {fill:white}
    .fil3 {fill:black;fill-rule:nonzero}
   ]]></style></defs><g
     id="Layer_x0020_1"
     transform="translate(3937,-7063)"><metadata
       id="CorelCorpID_0Corel-Layer" /><circle
       class="fil0"
       cy="11000"
       r="3937"
       id="circle4477"
       cx="0"
       style="fill:#fcb316" /><circle
       class="fil1"
       cy="11000"
       r="3504"
       id="circle4479"
       cx="0"
       style="fill:#ffffff" /><circle
       class="fil2"
       cy="11000"
       r="3465"
       id="circle4481"
       cx="0"
       style="fill:none" /><path
       class="fil3"
       d="m -2668,9364 c -57,-40 -53,-106 13,-199 l 173,-246 c 10,-14 22,-15 38,-4 14,10 16,21 6,35 l -178,253 c -36,51 -39,87 -10,108 l 32,22 c 32,23 70,4 112,-56 l 79,-113 c 68,-96 128,-126 180,-89 l 37,26 c 58,41 57,103 -2,187 l -44,62 c -10,14 -22,16 -36,5 -14,-10 -17,-22 -7,-35 l 50,-71 c 29,-41 28,-73 -4,-96 l -28,-20 c -26,-18 -59,-1 -97,53 l -80,114 c -36,51 -70,84 -102,100 -32,15 -63,13 -92,-8 l -40,-28 z m -150,114 c -16,-9 -19,-24 -8,-44 12,-19 25,-24 42,-15 l 349,200 c 17,10 19,25 7,45 -11,19 -24,24 -40,14 l -350,-200 z m -244,604 c -14,-6 -23,-14 -27,-24 -4,-10 -4,-20 0,-30 2,-5 4,-9 8,-14 4,-4 9,-8 16,-11 l 479,-243 -320,-124 c -17,-7 -22,-21 -14,-42 8,-20 21,-27 38,-20 l 363,141 c 13,6 21,13 24,24 3,10 2,20 -2,30 -2,5 -5,11 -9,16 -4,5 -9,8 -16,11 l -470,242 314,123 c 18,7 22,21 14,43 -8,19 -20,25 -38,19 l -360,-141 z m 167,198 -68,393 c -3,15 -13,21 -31,18 -18,-3 -26,-12 -23,-27 l 68,-393 -84,-15 c -38,-7 -63,26 -76,99 l -49,284 c -3,17 -13,23 -30,20 -19,-3 -27,-13 -24,-29 l 50,-287 c 21,-115 67,-167 138,-154 l 229,40 c 73,12 99,79 78,198 l -13,78 c -3,15 -13,22 -31,19 -17,-3 -24,-13 -21,-29 l 9,-51 c 16,-92 5,-142 -34,-148 l -88,-16 z m -152,619 -6,274 220,-131 -214,-143 z m -62,310 8,-347 -110,-78 c -5,-4 -9,-8 -11,-12 -3,-5 -4,-9 -4,-12 1,-10 4,-18 9,-25 6,-7 14,-11 24,-11 5,0 10,2 16,6 l 384,268 c 8,5 13,11 17,20 4,8 6,16 6,24 -1,18 -9,31 -24,42 l -396,253 c -3,3 -6,5 -9,6 -3,0 -6,1 -8,1 -9,-1 -16,-4 -22,-11 -5,-7 -7,-15 -7,-24 0,-5 1,-9 4,-14 2,-5 6,-10 10,-14 l 113,-72 z m 322,265 -369,65 c -19,3 -31,-6 -34,-29 -4,-22 3,-34 22,-37 l 369,-65 -32,-184 c -3,-16 5,-26 23,-30 17,-2 26,4 29,21 l 76,434 c 2,16 -4,25 -20,28 -19,3 -29,-3 -32,-19 l -32,-184 z m -87,315 126,379 c 4,15 -2,25 -19,30 -17,6 -28,2 -33,-13 l -125,-379 -81,27 c -37,12 -44,53 -21,123 l 91,274 c 5,16 -1,27 -17,32 -18,6 -29,1 -35,-15 l -91,-276 c -37,-112 -21,-179 49,-202 l 220,-72 c 70,-24 125,22 163,137 l 24,75 c 5,15 0,26 -17,31 -17,6 -28,1 -33,-14 l -16,-50 c -29,-89 -63,-127 -100,-115 l -85,28 z m 466,816 c 35,-20 33,-62 -3,-127 l -145,-253 -144,83 150,263 c 33,58 63,79 91,63 l 51,-29 z m -12,84 c -63,35 -123,4 -180,-96 l -82,-144 33,311 c 0,13 -4,22 -12,27 -8,4 -16,5 -24,4 -9,-1 -15,-5 -20,-13 -2,-4 -3,-9 -3,-14 l -35,-432 -138,79 c -17,9 -31,5 -42,-15 -11,-20 -8,-35 8,-44 l 353,-202 c 12,-6 22,-3 29,9 l 162,285 c 63,108 60,182 -7,220 l -42,25 z m 506,499 c 33,-32 24,-74 -27,-127 l -112,-117 c -54,-57 -98,-69 -131,-38 l -153,147 c -31,30 -20,74 34,130 l 110,114 c 53,55 95,68 126,38 l 153,-147 z m -107,196 c -57,55 -132,34 -224,-63 l -87,-90 c -92,-96 -110,-172 -53,-226 l 157,-150 c 57,-55 131,-34 223,62 l 87,91 c 92,96 110,172 54,226 l -157,150 z m 270,-147 -80,124 243,155 c 54,34 90,38 108,9 l 25,-38 c 18,-29 3,-60 -48,-92 l -248,-158 z m -189,289 263,168 c 51,33 85,36 102,10 l 23,-37 c 19,-30 -2,-65 -64,-104 l -247,-158 -77,121 z m 525,26 c -23,35 -57,48 -102,38 36,43 41,84 16,123 l -12,19 c -39,62 -103,65 -193,8 l -302,-193 c -12,-7 -13,-17 -5,-30 l 220,-345 c 7,-12 17,-14 29,-6 l 288,183 c 90,58 114,119 73,184 l -12,19 z m 411,422 c -28,64 -95,72 -198,25 l -274,-124 c -15,-7 -18,-19 -11,-37 7,-15 18,-19 33,-13 l 283,129 c 56,26 92,22 107,-11 l 16,-35 c 16,-36 -9,-69 -76,-100 l -125,-57 c -108,-48 -148,-102 -122,-160 l 19,-41 c 29,-64 91,-75 185,-32 l 68,31 c 16,7 20,19 12,35 -7,16 -18,20 -33,13 l -79,-36 c -46,-21 -77,-14 -94,21 l -14,32 c -13,29 10,58 70,85 l 127,58 c 57,26 96,53 117,82 21,28 24,59 9,92 l -20,43 z m 181,-110 388,89 c 15,4 21,15 17,32 -4,18 -14,25 -29,22 l -389,-89 -19,83 c -8,37 23,65 95,81 l 281,64 c 16,4 23,15 19,31 -4,19 -15,26 -31,22 l -283,-65 c -115,-26 -164,-75 -148,-146 l 52,-226 c 17,-72 84,-95 203,-68 l 76,18 c 16,3 22,14 18,31 -4,17 -14,24 -29,20 l -52,-12 c -91,-20 -141,-12 -149,26 l -20,87 z m 937,25 c 0,-39 -36,-60 -110,-62 l -292,-6 -3,167 303,6 c 66,2 100,-14 100,-46 l 2,-59 z m 65,54 c -1,73 -60,108 -174,105 l -166,-3 284,131 c 11,7 17,15 17,24 -1,9 -3,16 -9,23 -5,7 -13,10 -22,10 -4,0 -8,-1 -13,-4 l -388,-192 -4,159 c 0,19 -12,28 -34,28 -23,-1 -34,-11 -34,-30 l 9,-406 c 0,-14 8,-21 22,-21 l 328,8 c 125,2 187,42 185,119 l -1,49 z m 344,185 193,-411 c 6,-11 14,-18 26,-19 9,-1 17,1 25,6 7,5 12,11 13,20 0,4 -1,10 -3,17 l -208,417 c -9,18 -23,29 -40,31 -17,2 -33,-4 -46,-19 l -307,-350 c -5,-5 -8,-11 -8,-17 -2,-9 1,-16 7,-23 6,-6 14,-10 22,-11 11,-1 21,2 29,12 l 297,347 z m 356,-206 260,-86 -197,-164 -63,250 z m 313,-46 -330,109 -36,130 c -2,6 -4,11 -8,15 -3,3 -7,6 -10,7 -9,3 -18,3 -26,0 -9,-3 -15,-9 -18,-19 -2,-5 -2,-10 0,-17 l 123,-452 c 2,-9 6,-16 13,-23 6,-6 14,-10 21,-13 17,-5 32,-2 47,9 l 372,287 c 4,2 7,4 8,7 2,2 3,5 4,7 3,9 2,17 -3,24 -5,7 -12,12 -20,15 -4,2 -9,2 -15,2 -5,-1 -11,-3 -16,-6 l -106,-82 z m 681,-277 c 8,13 10,25 7,36 -4,10 -10,18 -20,23 -4,3 -9,5 -15,6 -6,1 -12,0 -19,-2 l -525,-112 170,298 c 9,16 4,30 -15,41 -19,11 -33,8 -43,-9 l -192,-337 c -7,-13 -9,-24 -4,-34 4,-10 11,-17 19,-22 6,-3 12,-5 18,-7 6,-1 13,-1 19,1 l 519,108 -168,-293 c -9,-16 -4,-30 16,-42 18,-10 32,-7 41,9 l 192,336 z m 23,-500 245,283 c 12,15 10,30 -7,44 -17,15 -31,15 -44,0 l -245,-283 -141,122 c -13,11 -25,9 -38,-5 -10,-12 -9,-24 3,-35 l 333,-288 c 13,-10 25,-9 35,3 12,14 12,27 0,37 l -141,122 z m 683,-326 c 55,44 47,110 -23,199 l -187,236 c -11,13 -23,13 -38,1 -13,-10 -15,-22 -5,-35 l 193,-243 c 38,-49 44,-84 15,-106 l -30,-24 c -31,-25 -69,-8 -115,49 l -85,108 c -74,92 -135,119 -185,79 l -35,-28 c -56,-44 -51,-106 13,-187 l 46,-59 c 11,-13 23,-14 37,-3 14,11 15,23 5,36 l -54,67 c -31,40 -32,72 -2,96 l 27,22 c 26,20 59,4 100,-47 l 86,-109 c 39,-50 75,-81 108,-95 33,-13 63,-9 92,14 l 37,29 z m -72,-454 135,61 119,-262 c 27,-58 25,-94 -5,-108 l -42,-19 c -32,-14 -60,6 -85,60 l -122,268 z m 314,147 129,-285 c 25,-55 24,-89 -5,-101 l -39,-18 c -33,-15 -64,11 -95,78 l -121,267 131,59 z m -48,-523 c 38,17 55,49 52,95 37,-42 77,-53 119,-34 l 21,10 c 67,30 78,93 34,190 l -148,326 c -6,13 -16,16 -29,10 l -373,-170 c -12,-6 -16,-15 -10,-28 l 142,-311 c 44,-97 101,-130 171,-98 l 21,10 z m 173,-140 61,-267 -242,83 181,184 z m 123,-291 -78,338 92,99 c 4,4 7,9 8,14 2,5 2,9 1,13 -2,9 -6,16 -13,22 -7,6 -16,8 -25,6 -6,-2 -11,-5 -15,-9 l -322,-340 c -7,-7 -11,-14 -13,-23 -2,-9 -2,-18 0,-25 3,-17 14,-29 32,-36 l 438,-168 c 4,-3 7,-4 10,-4 3,0 6,0 8,1 9,2 16,7 19,15 4,8 5,16 3,25 -1,4 -3,9 -7,13 -3,5 -7,8 -13,11 l -125,48 z m -76,-317 186,-331 c 3,-6 7,-10 12,-13 4,-2 9,-4 13,-4 8,1 15,4 21,9 6,6 9,13 9,21 0,5 -2,11 -6,17 l -203,354 173,4 c 19,0 28,12 28,33 -1,23 -11,33 -30,33 l -403,-9 c -19,0 -28,-12 -27,-34 0,-22 10,-32 28,-32 l 168,4 -183,-346 c -3,-7 -5,-13 -5,-18 0,-9 4,-17 10,-23 6,-6 13,-9 21,-8 4,0 8,1 12,3 4,2 7,6 10,12 l 166,328 z m 28,-938 c 82,-14 136,52 161,199 l 18,100 c 24,139 -5,215 -87,229 l -299,53 c -19,3 -30,-6 -34,-28 -3,-23 4,-36 22,-39 l 294,-51 c 50,-9 68,-57 52,-145 l -21,-121 c -17,-95 -50,-139 -100,-130 l -294,51 c -18,3 -30,-6 -33,-28 -4,-22 3,-34 21,-37 l 300,-53 z m -131,-616 c 14,-6 27,-6 36,-1 10,4 17,12 21,22 2,5 3,10 3,16 0,6 -1,12 -4,18 l -185,505 319,-127 c 17,-7 30,0 39,21 8,20 3,34 -15,41 l -361,143 c -14,5 -25,5 -34,-1 -9,-5 -16,-13 -19,-22 -3,-6 -4,-12 -4,-19 -1,-6 1,-12 3,-19 l 180,-498 -314,125 c -18,7 -30,0 -39,-22 -8,-19 -3,-32 15,-39 l 359,-143 z m -74,-168 c 17,-8 31,-3 41,17 10,20 7,35 -9,43 l -358,186 c -17,9 -30,3 -41,-18 -10,-19 -7,-33 10,-42 l 357,-186 z m -373,-534 c 13,-9 25,-13 35,-10 11,2 19,8 26,17 3,4 5,8 7,14 1,6 1,12 0,19 l -59,534 279,-199 c 16,-11 30,-7 43,11 12,17 11,32 -5,43 l -316,225 c -12,9 -23,11 -33,8 -10,-4 -18,-9 -24,-18 -4,-5 -7,-10 -9,-16 -1,-6 -2,-13 -1,-20 l 56,-526 -275,196 c -16,11 -30,7 -43,-12 -12,-17 -11,-31 4,-42 l 315,-224 z"
       id="path4483"
       inkscape:connector-curvature="0"
       style="fill:#000000;fill-rule:nonzero" /><path
       class="fil0"
       d="m 0,10134 c 1370,0 2480,388 2480,866 0,478 -1110,866 -2480,866 -1370,0 -2480,-388 -2480,-866 0,-478 1110,-866 2480,-866 z m 39,157 c 1305,0 2363,335 2363,748 0,413 -1058,748 -2363,748 -1304,0 -2283,-335 -2283,-748 0,-413 979,-748 2283,-748 z"
       id="path4485"
       inkscape:connector-curvature="0"
       style="fill:#fcb316" /><path
       class="fil0"
       d="m -224,10163 c 1323,-354 2496,-267 2620,195 124,462 -849,1124 -2172,1479 -1323,354 -2496,267 -2620,-195 -124,-462 849,-1124 2172,-1479 z m 79,142 c 1260,-337 2368,-288 2475,111 107,399 -828,997 -2088,1334 -1260,338 -2293,268 -2399,-131 -107,-399 751,-976 2012,-1314 z"
       id="path4487"
       inkscape:connector-curvature="0"
       style="fill:#fcb316" /><path
       class="fil0"
       d="m -433,10250 c 1186,-685 2342,-904 2581,-490 239,414 -529,1305 -1715,1990 -1186,685 -2342,904 -2581,490 -239,-414 529,-1305 1715,-1990 z m 113,117 c 1130,-653 2213,-891 2420,-534 206,358 -542,1177 -1672,1829 -1130,653 -2145,852 -2352,494 -206,-358 474,-1137 1604,-1789 z"
       id="path4489"
       inkscape:connector-curvature="0"
       style="fill:#fcb316" /><path
       class="fil0"
       d="m -612,10388 c 968,-969 2028,-1480 2366,-1142 338,338 -173,1398 -1142,2366 -968,969 -2028,1480 -2366,1142 -338,-338 173,-1398 1142,-2366 z m 139,83 c 922,-922 1907,-1433 2199,-1141 292,292 -219,1276 -1141,2199 -923,922 -1852,1378 -2144,1086 -292,-292 163,-1221 1086,-2144 z"
       id="path4491"
       inkscape:connector-curvature="0"
       style="fill:#fcb316" /><path
       class="fil0"
       d="M -750,10567 C -65,9381 826,8613 1240,8852 c 414,239 195,1395 -490,2581 -685,1186 -1576,1954 -1990,1715 -414,-239 -195,-1395 490,-2581 z m 156,45 C 58,9482 877,8733 1235,8940 c 358,206 119,1290 -533,2420 -653,1129 -1432,1810 -1790,1603 -358,-206 -158,-1222 494,-2351 z"
       id="path4493"
       inkscape:connector-curvature="0"
       style="fill:#fcb316" /><path
       class="fil0"
       d="M -837,10776 C -482,9453 180,8480 642,8604 c 462,124 549,1297 195,2620 -355,1323 -1017,2296 -1479,2172 -462,-124 -549,-1297 -195,-2620 z m 163,3 C -337,9518 261,8584 660,8690 c 399,107 448,1216 111,2476 -338,1260 -915,2119 -1314,2012 -399,-107 -469,-1139 -131,-2399 z"
       id="path4495"
       inkscape:connector-curvature="0"
       style="fill:#fcb316" /><path
       class="fil0"
       d="m -866,11000 c 0,-1370 388,-2480 866,-2480 478,0 866,1110 866,2480 0,1370 -388,2480 -866,2480 -478,0 -866,-1110 -866,-2480 z m 157,-39 c 0,-1305 335,-2363 748,-2363 413,0 748,1058 748,2363 0,1304 -335,2283 -748,2283 -413,0 -748,-979 -748,-2283 z"
       id="path4497"
       inkscape:connector-curvature="0"
       style="fill:#fcb316" /></g></svg>