<?xml version="1.0" encoding="UTF-8" standalone="no"?>
<!-- Creator: CorelDRAW X7 -->

<svg
   xmlns:dc="http://purl.org/dc/elements/1.1/"
   xmlns:cc="http://creativecommons.org/ns#"
   xmlns:rdf="http://www.w3.org/1999/02/22-rdf-syntax-ns#"
   xmlns:svg="http://www.w3.org/2000/svg"
   xmlns="http://www.w3.org/2000/svg"
   xmlns:sodipodi="http://sodipodi.sourceforge.net/DTD/sodipodi-0.dtd"
   xmlns:inkscape="http://www.inkscape.org/namespaces/inkscape"
   xml:space="preserve"
   width="7.8740005in"
   height="7.8740005in"
   version="1.1"
   style="clip-rule:evenodd;fill-rule:evenodd;image-rendering:optimizeQuality;shape-rendering:geometricPrecision;text-rendering:geometricPrecision"
   viewBox="0 0 7874.0005 7874.0005"
   id="svg4035"
   inkscape:version="0.91 r13725"
   sodipodi:docname="Nomads - Moderators - [N3] [Vyo].svg"><metadata
     id="metadata4076"><rdf:RDF><cc:Work
         rdf:about=""><dc:format>image/svg+xml</dc:format><dc:type
           rdf:resource="http://purl.org/dc/dcmitype/StillImage" /></cc:Work></rdf:RDF></metadata><sodipodi:namedview
     pagecolor="#ffffff"
     bordercolor="#666666"
     borderopacity="1"
     objecttolerance="10"
     gridtolerance="10"
     guidetolerance="10"
     inkscape:pageopacity="0"
     inkscape:pageshadow="2"
     inkscape:window-width="640"
     inkscape:window-height="480"
     id="namedview4074"
     showgrid="false"
     inkscape:zoom="0.23838384"
     inkscape:cx="736.83001"
     inkscape:cy="849.33005"
     inkscape:window-x="0"
     inkscape:window-y="0"
     inkscape:window-maximized="0"
     inkscape:current-layer="svg4035" /><defs
     id="defs4037"><style
       type="text/css"
       id="style4039"><![CDATA[
    .fil3 {fill:none}
    .fil0 {fill:#FFA000}
    .fil1 {fill:white}
    .fil4 {fill:black;fill-rule:nonzero}
    .fil2 {fill:url(#id0)}
   ]]></style><linearGradient
       id="id0"
       gradientUnits="userSpaceOnUse"
       x1="-21.122"
       y1="12380"
       x2="-21.122"
       y2="9026.3496"><stop
         offset="0"
         style="stop-opacity:1; stop-color:black"
         id="stop4042" /><stop
         offset="0.411765"
         style="stop-opacity:1; stop-color:#7F5000"
         id="stop4044" /><stop
         offset="1"
         style="stop-opacity:1; stop-color:#FFA000"
         id="stop4046" /></linearGradient></defs><g
     id="Layer_x0020_1"
     transform="translate(3937,-7063)"><metadata
       id="CorelCorpID_0Corel-Layer" /><circle
       class="fil0"
       cy="11000"
       r="3937"
       id="circle4050"
       cx="0"
       style="fill:#ffa000" /><circle
       class="fil1"
       cy="11000"
       r="3504"
       id="circle4052"
       cx="0"
       style="fill:#ffffff" /><path
       class="fil2"
       d="m -1020,10694 -24,-39 c -62,-100 -76,-211 -40,-324 154,-495 494,-1339 1123,-1339 494,0 789,484 861,920 23,137 -27,270 -125,358 l 46,-2 c 118,-3 220,40 300,127 352,382 913,1098 598,1643 -247,427 -813,441 -1227,286 -130,-49 -220,-159 -247,-287 l -22,40 c -56,103 -145,171 -260,196 -506,114 -1407,242 -1722,-303 -246,-428 26,-925 366,-1205 108,-89 248,-112 373,-71 z"
       id="path4054"
       inkscape:connector-curvature="0"
       style="fill:url(#id0)" /><circle
       class="fil3"
       cy="11000"
       r="3898"
       id="circle4056"
       cx="0"
       style="fill:none" /><path
       class="fil4"
       d="m -2120,13469 c -14,13 -29,11 -46,-6 -14,-15 -14,-29 -1,-42 l 238,-230 -418,50 c -20,3 -36,-3 -48,-16 -15,-14 -20,-31 -16,-50 l 61,-418 -237,229 c -14,13 -28,12 -43,-4 -16,-16 -16,-30 -3,-44 l 283,-272 c 18,-18 36,-18 54,0 12,13 17,29 14,48 l -65,466 466,-56 c 8,0 16,1 23,4 8,3 15,7 20,12 19,19 18,38 -1,57 l -281,272 z m 633,74 c 27,-37 10,-77 -50,-120 l -132,-93 c -64,-46 -109,-50 -136,-12 l -122,173 c -26,35 -6,76 58,121 l 129,91 c 62,44 106,49 131,13 l 122,-173 z m -67,213 c -46,64 -124,58 -233,-19 l -102,-73 c -109,-77 -140,-147 -95,-211 l 126,-178 c 45,-64 122,-57 230,20 l 103,72 c 109,77 141,148 96,212 l -125,177 z m 604,26 c 16,-35 -9,-68 -74,-98 l -272,-125 -145,314 270,124 c 67,31 110,27 128,-12 l 93,-203 z m -33,231 c -33,71 -102,83 -208,34 l -314,-144 c -14,-6 -17,-16 -11,-30 l 171,-372 c 6,-12 15,-15 29,-9 l 314,144 c 106,49 143,107 112,174 l -93,203 z m 172,-105 389,88 c 15,3 21,14 17,32 -4,18 -14,25 -29,21 l -389,-88 -19,83 c -8,38 23,65 95,81 l 281,64 c 17,4 23,14 19,31 -4,18 -14,25 -31,22 l -283,-65 c -115,-26 -164,-74 -148,-145 l 52,-227 c 16,-72 84,-95 202,-68 l 77,18 c 15,3 21,14 17,31 -4,17 -13,24 -29,20 l -51,-12 c -91,-20 -141,-12 -150,27 l -20,87 z m 936,18 c 1,-39 -36,-59 -110,-61 l -291,-4 -3,167 303,4 c 67,1 100,-14 100,-47 l 1,-59 z m 66,54 c -1,73 -59,108 -173,106 l -166,-2 284,129 c 12,7 17,15 17,25 0,8 -3,16 -8,22 -6,7 -13,11 -22,11 -4,-1 -9,-2 -13,-5 l -390,-189 -2,159 c 0,19 -12,28 -34,28 -23,-1 -34,-10 -34,-30 l 6,-406 c 0,-14 8,-21 22,-20 l 328,5 c 125,2 187,41 186,118 l -1,49 z m 181,86 272,-38 -164,-197 -108,235 z m 316,11 -344,48 -59,121 c -3,5 -7,9 -11,12 -4,3 -8,5 -11,6 -9,1 -18,-1 -26,-5 -8,-5 -13,-12 -14,-22 -1,-5 0,-11 3,-17 l 204,-421 c 4,-9 10,-15 17,-20 8,-5 16,-8 23,-9 18,-3 33,3 45,17 l 313,351 c 3,2 5,5 6,8 2,3 2,5 3,7 1,10 -2,17 -8,24 -6,6 -13,10 -22,11 -4,0 -9,0 -15,-2 -5,-1 -10,-4 -15,-8 l -89,-101 z m 220,-357 115,357 c 6,18 -2,30 -24,37 -21,7 -34,1 -40,-17 l -115,-356 -178,57 c -16,5 -27,-1 -33,-19 -5,-15 1,-26 17,-31 l 418,-135 c 16,-5 26,0 31,16 6,17 1,29 -14,34 l -177,57 z m 623,-210 c -22,-40 -65,-43 -130,-9 l -143,76 c -69,37 -93,76 -71,116 l 99,187 c 21,39 66,40 135,3 l 139,-74 c 68,-36 91,-74 71,-112 l -100,-187 z m 159,156 c 38,70 -3,136 -121,199 l -111,59 c -117,62 -194,59 -231,-11 l -102,-191 c -37,-69 3,-135 121,-198 l 110,-59 c 118,-62 196,-59 233,10 l 101,191 z m 308,-512 c -24,-31 -65,-24 -124,21 l -231,177 101,132 241,-184 c 53,-41 69,-74 49,-99 l -36,-47 z m 85,1 c 44,58 21,121 -70,191 l -132,101 304,-75 c 13,-2 23,1 28,9 6,6 8,14 8,23 0,8 -3,15 -10,21 -4,3 -8,4 -13,5 l -424,94 97,125 c 12,16 9,30 -9,43 -18,14 -33,14 -45,-1 l -248,-323 c -8,-11 -6,-21 5,-30 l 260,-199 c 99,-76 173,-84 219,-23 l 30,39 z m 475,-280 c 52,46 42,111 -32,197 l -197,228 c -11,13 -23,13 -38,0 -13,-11 -14,-22 -3,-35 l 203,-235 c 40,-47 47,-82 20,-106 l -30,-25 c -30,-26 -69,-11 -117,45 l -90,104 c -76,90 -139,113 -187,72 l -34,-30 c -54,-46 -47,-108 20,-186 l 49,-57 c 12,-13 24,-14 37,-2 13,11 14,23 3,36 l -56,65 c -33,39 -35,71 -6,96 l 26,23 c 25,21 59,7 102,-43 l 91,-106 c 41,-47 78,-77 111,-89 34,-12 64,-7 91,17 l 37,31 z"
       id="path4058"
       inkscape:connector-curvature="0"
       style="fill:#000000;fill-rule:nonzero" /><path
       class="fil1"
       d="m 1378,11841 c -138,239 -523,198 -747,114 87,5 234,-92 274,-160 59,-102 -123,-457 -430,-821 l -421,12 177,-307 601,-17 c 447,485 684,941 546,1179 z m -2796,-68 c -137,-239 91,-552 276,-704 -49,73 -38,249 1,317 59,102 457,122 926,39 l 201,-371 177,307 -286,528 c -644,145 -1157,123 -1295,-116 z M 39,9386 c 276,0 433,354 473,590 -40,-78 -197,-157 -276,-157 -118,0 -334,335 -496,782 l 221,360 -355,0 -315,-512 C -512,9819 -236,9386 39,9386 Z"
       id="path4060"
       inkscape:connector-curvature="0"
       style="fill:#ffffff" /><path
       class="fil0"
       d="m 0,8362 c 1457,0 2638,1181 2638,2638 0,1457 -1181,2638 -2638,2638 -1457,0 -2638,-1181 -2638,-2638 0,-1457 1181,-2638 2638,-2638 z m 0,118 c 1392,0 2520,1128 2520,2520 0,1392 -1128,2520 -2520,2520 -1392,0 -2520,-1128 -2520,-2520 0,-1392 1128,-2520 2520,-2520 z"
       id="path4062"
       inkscape:connector-curvature="0"
       style="fill:#ffa000" /><circle
       class="fil3"
       cy="11000"
       r="3898"
       id="circle4064"
       cx="0"
       style="fill:none" /><path
       class="fil4"
       d="m -1924,8395 81,123 240,-158 c 54,-36 71,-67 53,-95 l -25,-38 c -20,-29 -54,-27 -104,6 l -245,162 z m 187,290 260,-172 c 51,-33 68,-63 50,-89 l -24,-36 c -19,-29 -60,-24 -121,17 l -244,161 79,119 z m 237,-468 c 23,35 21,71 -6,108 53,-15 93,-3 118,35 l 13,19 c 40,61 16,121 -72,179 l -298,198 c -12,7 -22,5 -30,-8 l -226,-341 c -7,-11 -5,-21 7,-29 l 285,-188 c 89,-59 154,-56 197,8 l 12,19 z"
       id="path4066"
       inkscape:connector-curvature="0"
       style="fill:#000000;fill-rule:nonzero" /><path
       id="1"
       class="fil4"
       d="m -1186,8228 254,-104 -208,-150 -46,254 z m 309,-67 -321,131 -28,132 c -1,6 -3,11 -6,15 -4,4 -7,7 -10,8 -9,4 -18,4 -27,2 -8,-2 -15,-8 -18,-17 -2,-5 -3,-11 -2,-18 l 92,-459 c 2,-9 6,-16 12,-23 6,-7 13,-12 20,-15 16,-7 32,-5 48,6 l 390,261 c 4,1 7,3 9,6 1,3 3,5 4,7 3,8 3,17 -2,24 -4,8 -10,13 -18,17 -5,1 -9,2 -15,2 -6,0 -11,-2 -17,-5 l -111,-74 z"
       inkscape:connector-curvature="0"
       style="fill:#000000;fill-rule:nonzero" /><path
       id="2"
       class="fil4"
       d="m -542,7979 358,127 c 6,2 10,5 14,9 3,5 5,9 6,13 1,8 0,15 -5,22 -5,7 -11,11 -19,12 -5,1 -11,0 -18,-2 l -383,-140 25,171 c 3,19 -6,30 -27,33 -22,3 -35,-4 -38,-23 l -60,-399 c -3,-18 7,-29 29,-33 21,-3 33,5 36,23 l 25,166 310,-239 c 6,-5 11,-7 17,-8 8,-2 16,0 23,5 8,6 12,12 13,20 0,4 0,8 -2,12 -1,4 -5,8 -10,12 l -294,219 z"
       inkscape:connector-curvature="0"
       style="fill:#000000;fill-rule:nonzero" /><path
       id="3"
       class="fil4"
       d="m 456,8069 c -7,82 -84,118 -233,105 l -101,-8 C -18,8154 -85,8107 -78,8024 l 25,-302 c 2,-19 13,-27 35,-25 23,1 34,12 32,30 l -24,298 c -4,50 38,79 126,86 l 123,10 c 97,8 147,-13 151,-63 l 25,-298 c 1,-18 13,-27 35,-25 22,2 33,12 31,31 l -25,303 z"
       inkscape:connector-curvature="0"
       style="fill:#000000;fill-rule:nonzero" /><path
       id="4"
       class="fil4"
       d="m 1071,8317 c -5,15 -12,25 -22,30 -9,4 -20,5 -30,2 -5,-2 -10,-4 -14,-8 -5,-3 -9,-8 -12,-14 L 715,7867 614,8194 c -6,19 -19,24 -40,18 -21,-7 -29,-19 -23,-37 l 114,-372 c 5,-13 12,-22 22,-25 10,-4 20,-4 30,-1 6,1 11,4 17,8 5,4 9,8 12,15 l 276,452 100,-324 c 5,-17 19,-23 41,-16 20,6 27,18 22,36 l -114,369 z"
       inkscape:connector-curvature="0"
       style="fill:#000000;fill-rule:nonzero" /><path
       id="5"
       class="fil4"
       d="m 1226,8413 c -8,17 -22,20 -43,11 -20,-10 -27,-23 -19,-40 l 171,-365 c 8,-17 23,-21 44,-11 20,10 26,23 18,40 l -171,365 z"
       inkscape:connector-curvature="0"
       style="fill:#000000;fill-rule:nonzero" /><path
       id="6"
       class="fil4"
       d="m 1791,8728 c -9,13 -18,21 -29,22 -11,2 -21,0 -30,-6 -4,-2 -8,-6 -12,-11 -3,-4 -6,-10 -7,-17 l -145,-517 -184,289 c -11,16 -25,18 -44,6 -18,-12 -22,-25 -12,-42 l 209,-327 c 7,-12 17,-18 27,-19 11,-1 21,1 29,7 6,3 10,7 14,12 4,5 7,11 9,18 l 145,508 182,-284 c 10,-16 25,-18 44,-5 18,11 22,25 12,40 l -208,326 z"
       inkscape:connector-curvature="0"
       style="fill:#000000;fill-rule:nonzero" /></g></svg>