<?xml version="1.0" encoding="UTF-8" standalone="no"?>
<!-- Creator: CorelDRAW X7 -->

<svg
   xmlns:dc="http://purl.org/dc/elements/1.1/"
   xmlns:cc="http://creativecommons.org/ns#"
   xmlns:rdf="http://www.w3.org/1999/02/22-rdf-syntax-ns#"
   xmlns:svg="http://www.w3.org/2000/svg"
   xmlns="http://www.w3.org/2000/svg"
   xmlns:sodipodi="http://sodipodi.sourceforge.net/DTD/sodipodi-0.dtd"
   xmlns:inkscape="http://www.inkscape.org/namespaces/inkscape"
   xml:space="preserve"
   width="7.8740005in"
   height="7.8740005in"
   version="1.1"
   style="clip-rule:evenodd;fill-rule:evenodd;image-rendering:optimizeQuality;shape-rendering:geometricPrecision;text-rendering:geometricPrecision"
   viewBox="0 0 7874.0005 7874.0005"
   id="svg3678"
   inkscape:version="0.91 r13725"
   sodipodi:docname="Nomads - Grenzers, Grenz Security Team - [N3] [Vyo].svg"><metadata
     id="metadata3725"><rdf:RDF><cc:Work
         rdf:about=""><dc:format>image/svg+xml</dc:format><dc:type
           rdf:resource="http://purl.org/dc/dcmitype/StillImage" /></cc:Work></rdf:RDF></metadata><sodipodi:namedview
     pagecolor="#ffffff"
     bordercolor="#666666"
     borderopacity="1"
     objecttolerance="10"
     gridtolerance="10"
     guidetolerance="10"
     inkscape:pageopacity="0"
     inkscape:pageshadow="2"
     inkscape:window-width="640"
     inkscape:window-height="480"
     id="namedview3723"
     showgrid="false"
     inkscape:zoom="0.23838384"
     inkscape:cx="736.83001"
     inkscape:cy="849.33005"
     inkscape:window-x="0"
     inkscape:window-y="0"
     inkscape:window-maximized="0"
     inkscape:current-layer="svg3678" /><defs
     id="defs3680"><style
       type="text/css"
       id="style3682"><![CDATA[
    .fil2 {fill:none}
    .fil1 {fill:black}
    .fil4 {fill:#F99C10}
    .fil0 {fill:#FCB316}
    .fil3 {fill:white;fill-rule:nonzero}
   ]]></style></defs><g
     id="Layer_x0020_1"
     transform="translate(3937,-7063)"><metadata
       id="CorelCorpID_0Corel-Layer" /><circle
       class="fil0"
       cy="11000"
       r="3937"
       id="circle3686"
       cx="0"
       style="fill:#fcb316" /><circle
       class="fil1"
       cy="11000"
       r="3701"
       id="circle3688"
       cx="0"
       style="fill:#000000" /><circle
       class="fil2"
       cy="11000"
       r="3583"
       id="circle3690"
       cx="0"
       style="fill:none" /><path
       class="fil3"
       d="m -2211,8482 215,239 c 19,21 16,42 -7,63 -24,21 -45,22 -64,1 l -215,-239 -112,101 c -20,18 -39,16 -58,-5 -19,-20 -18,-39 2,-57 l 295,-266 c 20,-17 38,-16 56,4 20,21 19,41 0,58 l -112,101 z"
       id="path3692"
       inkscape:connector-curvature="0"
       style="fill:#ffffff;fill-rule:nonzero" /><path
       id="1"
       class="fil3"
       d="m -1389,8197 c 43,75 1,149 -125,221 l -80,45 c -121,69 -202,65 -245,-10 l -136,-238 c -14,-24 -7,-44 21,-60 28,-16 49,-12 63,12 l 131,231 c 18,32 57,31 117,-3 l 96,-55 c 65,-37 89,-72 71,-104 l -131,-231 c -14,-24 -7,-44 21,-60 27,-15 47,-11 61,13 l 136,239 z"
       inkscape:connector-curvature="0"
       style="fill:#ffffff;fill-rule:nonzero" /><path
       id="2"
       class="fil3"
       d="m -738,8030 c 3,9 5,17 4,24 0,8 -2,15 -5,21 -4,6 -8,11 -13,16 -6,4 -12,7 -18,10 -7,2 -14,3 -22,3 -8,0 -15,-2 -22,-5 l -408,-174 87,255 c 9,27 -1,46 -31,56 -30,10 -50,2 -59,-25 l -113,-331 c -3,-9 -4,-17 -3,-24 1,-7 3,-14 6,-20 3,-6 8,-11 13,-16 6,-4 12,-7 19,-9 7,-3 14,-4 22,-4 8,0 15,2 22,5 l 405,170 -86,-252 c -9,-27 1,-45 31,-55 30,-11 49,-2 58,24 l 113,331 z"
       inkscape:connector-curvature="0"
       style="fill:#ffffff;fill-rule:nonzero" /><path
       id="3"
       class="fil3"
       d="m -96,7876 c 11,78 -40,124 -151,139 l -165,22 c -121,16 -186,-14 -197,-92 l -28,-209 c -10,-77 46,-123 167,-139 l 64,-9 c 27,-3 41,9 45,37 4,27 -7,43 -34,46 l -44,6 c -72,10 -105,26 -102,51 l 27,200 c 3,25 34,34 92,26 l 164,-22 c 48,-6 70,-20 68,-42 l -15,-107 c -4,-28 10,-44 42,-48 32,-5 49,7 53,35 l 14,106 z"
       inkscape:connector-curvature="0"
       style="fill:#ffffff;fill-rule:nonzero" /><path
       id="4"
       class="fil3"
       d="m 562,7925 c -11,85 -89,118 -233,99 l -91,-12 C 101,7993 39,7941 50,7855 l 37,-271 c 4,-27 21,-39 53,-35 32,4 46,20 42,48 l -36,262 c -5,37 27,59 95,69 l 109,14 c 75,10 115,-3 120,-39 l 35,-262 c 4,-28 22,-40 54,-35 30,4 44,20 40,48 l -37,271 z"
       inkscape:connector-curvature="0"
       style="fill:#ffffff;fill-rule:nonzero" /><path
       id="5"
       class="fil3"
       d="m 1148,8109 c -24,71 -89,88 -196,52 l -257,-86 c -26,-9 -34,-26 -25,-53 9,-26 26,-35 51,-26 l 264,88 c 42,14 67,10 74,-13 l 8,-24 c 9,-25 -13,-47 -65,-64 L 885,7944 C 773,7906 729,7855 750,7790 l 14,-40 c 24,-72 86,-91 186,-58 l 65,22 c 25,9 33,26 24,53 -9,26 -26,35 -51,26 l -74,-25 c -33,-11 -54,-4 -62,20 l -6,18 c -7,22 12,40 57,56 l 119,39 c 117,40 164,95 140,167 l -14,41 z"
       inkscape:connector-curvature="0"
       style="fill:#ffffff;fill-rule:nonzero" /><path
       id="6"
       class="fil3"
       d="m 1463,8129 170,264 c 5,9 8,16 8,24 0,7 -2,14 -5,20 -3,5 -6,9 -11,13 -4,4 -9,6 -15,8 -5,2 -11,3 -17,2 -6,0 -11,-2 -16,-5 -4,-1 -7,-4 -10,-6 -3,-3 -6,-6 -8,-10 l -177,-292 -64,113 c -14,25 -34,30 -61,14 -28,-16 -35,-36 -21,-60 l 179,-317 c 14,-24 35,-28 63,-13 27,16 33,35 19,60 l -62,109 326,-2 c 9,0 17,2 25,6 5,3 10,8 14,13 4,5 6,10 8,16 1,6 2,12 1,18 -1,6 -2,12 -5,17 -3,5 -8,10 -14,13 -6,3 -14,5 -24,5 l -303,-10 z"
       inkscape:connector-curvature="0"
       style="fill:#ffffff;fill-rule:nonzero" /><path
       id="7"
       class="fil3"
       d="m 1956,8486 155,131 24,-184 -179,53 z m 139,223 -226,-190 -109,32 c -8,2 -15,2 -22,0 -8,-2 -14,-5 -19,-10 -4,-3 -8,-8 -11,-14 -3,-5 -5,-11 -6,-17 -1,-6 -1,-12 0,-18 2,-6 5,-11 9,-16 5,-6 12,-11 22,-14 l 406,-118 c 12,-3 23,-3 33,-1 10,2 19,7 27,13 8,7 14,15 18,25 4,9 5,20 4,32 l -47,420 0,0 c -1,10 -4,19 -10,25 -4,5 -9,9 -14,11 -6,2 -11,3 -17,3 -6,0 -12,-1 -18,-3 -6,-2 -11,-5 -16,-9 -5,-4 -10,-10 -12,-17 -3,-6 -4,-14 -4,-23 l 12,-111 z"
       inkscape:connector-curvature="0"
       style="fill:#ffffff;fill-rule:nonzero" /><path
       class="fil2"
       d="m 0,7415 c 1979,0 3583,1604 3583,3583 0,1978 -1604,3582 -3583,3582 -1979,0 -3583,-1604 -3583,-3582 0,-1979 1604,-3583 3583,-3583 z"
       id="path3701"
       inkscape:connector-curvature="0"
       style="fill:none" /><path
       class="fil3"
       d="m -3360,10890 c -78,-10 -109,-71 -95,-183 l 21,-165 c 16,-121 62,-177 140,-167 l 209,27 c 77,10 107,76 92,198 l -9,64 c -3,26 -19,37 -46,34 -28,-4 -40,-19 -37,-45 l 6,-45 c 9,-71 2,-108 -23,-111 l -200,-26 c -25,-3 -41,25 -48,83 l -22,164 c -6,49 2,74 23,77 l 108,14 c 28,3 40,21 36,53 -4,31 -21,46 -49,42 l -106,-14 z m 237,495 c 26,-2 38,-31 33,-86 l -18,-245 -114,8 20,256 c 3,48 15,72 35,70 l 44,-3 z m -36,98 c -76,5 -119,-49 -128,-164 l -5,-67 -65,188 c -4,9 -10,16 -16,21 -7,4 -14,7 -21,7 -6,1 -12,0 -18,-1 -5,-2 -10,-5 -15,-8 -5,-4 -9,-8 -12,-13 -2,-5 -4,-11 -5,-17 0,-7 1,-14 4,-20 l 0,0 136,-341 -123,10 c -28,2 -43,-13 -46,-44 -2,-33 11,-50 39,-52 l 365,-28 c 25,-2 38,10 40,35 l 23,295 c 9,124 -27,189 -109,195 l -44,4 z m -44,215 56,195 123,-139 -179,-56 z m -9,262 -81,-284 -108,-34 c -8,-2 -14,-7 -19,-12 -4,-6 -7,-12 -9,-18 -2,-6 -2,-12 -2,-18 1,-6 2,-12 5,-18 2,-6 6,-11 10,-15 5,-4 10,-7 16,-9 8,-2 16,-1 26,1 l 402,130 c 12,3 21,9 28,17 7,7 13,16 15,26 3,9 3,20 1,30 -2,10 -7,20 -15,29 l -272,323 0,-1 c -6,8 -14,14 -22,16 -6,2 -13,2 -18,1 -6,-1 -11,-4 -16,-7 -5,-3 -10,-7 -13,-12 -4,-5 -7,-11 -8,-17 -2,-7 -3,-14 -1,-21 1,-7 4,-14 10,-21 l 71,-86 z m 228,715 c -8,4 -16,6 -24,6 -8,0 -15,-1 -21,-4 -6,-3 -12,-6 -17,-11 -5,-5 -9,-11 -11,-17 -3,-7 -5,-14 -6,-21 -1,-8 0,-16 3,-23 l 134,-424 -246,111 c -26,12 -45,4 -58,-25 -13,-29 -7,-50 19,-61 l 319,-145 c 8,-3 16,-5 23,-5 7,0 14,2 21,4 6,3 12,7 17,12 4,5 8,11 11,17 3,7 5,15 6,22 0,8 0,16 -3,23 l -130,420 243,-110 c 25,-11 44,-2 58,27 12,28 6,48 -19,60 l -319,144 z m 111,184 c -24,15 -44,10 -61,-17 -18,-27 -15,-48 9,-63 l 306,-197 c 24,-15 44,-9 62,18 17,27 14,47 -10,63 l -306,196 z m 428,50 c -35,-45 -62,-60 -80,-46 l -157,123 c -22,18 -13,51 26,101 l 138,176 c 17,21 14,40 -8,58 -22,17 -41,15 -58,-6 l -143,-183 c -76,-95 -82,-168 -19,-218 l 166,-130 c 59,-46 126,-23 200,71 l 146,186 c 16,21 13,40 -9,57 -22,18 -41,16 -58,-5 l -144,-184 z m 204,475 153,133 27,-184 -180,51 z m 136,225 -224,-193 -108,30 c -8,2 -16,2 -23,0 -7,-3 -13,-6 -18,-10 -4,-4 -8,-9 -11,-14 -3,-6 -5,-12 -6,-18 -1,-6 -1,-12 1,-18 1,-5 4,-11 8,-16 6,-6 13,-10 22,-13 l 408,-112 c 11,-4 22,-4 32,-1 11,2 20,7 27,13 8,7 14,15 18,25 4,10 5,21 3,33 l -51,418 0,0 c -1,10 -4,19 -10,25 -4,5 -9,9 -15,11 -5,2 -11,3 -17,3 -6,0 -12,-1 -18,-3 -5,-2 -10,-5 -15,-9 -6,-5 -10,-11 -13,-17 -3,-7 -3,-15 -3,-24 l 13,-110 z m 642,174 c 14,-23 -4,-48 -51,-76 l -214,-123 -57,99 222,128 c 42,24 68,28 78,10 l 22,-38 z m 61,85 c -38,67 -107,71 -207,13 l -58,-33 118,160 c 5,8 8,17 8,25 0,8 -2,15 -6,21 -3,6 -6,10 -11,14 -4,3 -10,6 -15,8 -6,2 -11,3 -17,2 -6,0 -12,-2 -17,-5 -6,-3 -11,-8 -15,-14 l 1,0 -205,-305 -62,107 c -14,24 -34,29 -62,13 -28,-16 -35,-37 -21,-61 l 183,-317 c 13,-22 30,-26 51,-14 l 257,148 c 108,62 141,129 100,200 l -22,38 z m 49,276 c -11,26 -31,32 -60,19 -30,-14 -39,-33 -27,-59 l 150,-331 c 12,-26 32,-32 62,-18 29,13 37,32 26,57 l -151,332 z m 3278,-393 c 39,68 10,130 -88,186 l -144,83 c -106,61 -179,57 -218,-10 l -105,-184 c -38,-67 -4,-131 103,-192 l 56,-32 c 23,-13 41,-7 55,17 14,24 9,43 -14,56 l -39,23 c -62,35 -87,64 -75,85 l 100,175 c 13,22 45,18 96,-12 l 143,-82 c 43,-24 58,-45 48,-64 l -54,-94 c -14,-25 -7,-45 20,-61 28,-16 49,-11 63,13 l 53,93 z m 257,-485 c -18,-20 -47,-12 -89,24 l -186,162 75,86 193,-168 c 37,-32 49,-55 36,-70 l -29,-34 z m 100,-29 c 50,57 32,124 -55,200 l -51,44 190,-60 c 10,-2 19,-2 26,1 8,2 14,6 19,12 4,4 7,9 9,15 2,5 3,11 3,17 0,6 -2,11 -4,17 -2,5 -6,10 -10,14 -5,5 -11,8 -19,9 l 1,0 -355,94 81,93 c 18,22 16,43 -8,63 -25,22 -46,21 -65,0 l -240,-276 c -16,-19 -15,-37 4,-53 l 223,-194 c 94,-82 168,-92 222,-30 l 29,34 z m 101,-92 213,-269 c 16,-20 35,-21 57,-4 22,18 25,36 9,57 l -213,268 43,34 c 21,16 48,3 82,-40 l 162,-204 c 16,-20 35,-22 57,-4 22,17 25,36 8,56 l -163,206 c -72,92 -139,114 -200,65 l -164,-129 c -31,-25 -45,-55 -42,-91 4,-36 24,-78 62,-125 l 44,-57 c 16,-20 36,-21 58,-3 21,17 24,35 8,56 l -30,38 c -45,56 -57,93 -37,109 l 46,37 z m 715,-696 c 8,5 14,10 19,16 5,7 8,13 9,20 2,6 2,13 1,20 -1,7 -3,13 -7,19 -3,6 -8,12 -14,17 -6,5 -13,9 -20,11 l -422,139 234,135 c 25,14 29,35 13,62 -16,28 -36,34 -60,20 l -304,-174 c -8,-5 -14,-10 -18,-16 -4,-6 -7,-12 -9,-19 -1,-7 -1,-13 0,-20 1,-7 4,-14 7,-20 4,-6 9,-12 15,-17 6,-6 13,-9 20,-11 l 417,-140 -231,-133 c -25,-14 -29,-35 -13,-63 16,-27 36,-34 60,-20 l 303,174 z m 30,-750 59,-337 c 5,-25 21,-35 48,-30 28,5 40,20 35,45 l -59,337 53,10 c 26,4 44,-21 53,-75 l 46,-256 c 4,-25 20,-36 48,-31 27,5 39,20 34,46 l -45,258 c -21,116 -69,167 -145,153 l -206,-36 c -39,-7 -66,-27 -80,-60 -14,-33 -16,-80 -6,-139 l 13,-71 c 4,-25 21,-36 49,-31 27,5 38,20 34,46 l -9,48 c -12,71 -6,109 20,113 l 58,10 z m 20,-862 c -26,-1 -40,27 -42,82 l -5,246 114,3 6,-256 c 1,-49 -9,-73 -29,-74 l -44,-1 z m 46,-94 c 76,2 113,60 110,176 l -1,67 84,-181 c 5,-8 11,-15 18,-19 7,-4 14,-6 22,-5 5,0 11,1 16,3 6,2 11,6 15,9 4,5 8,9 10,14 3,6 4,11 4,18 -1,6 -2,13 -6,20 l 0,-1 -170,326 124,3 c 28,0 42,16 41,48 0,32 -15,48 -43,47 l -366,-8 c -25,-1 -37,-13 -37,-38 l 7,-296 c 3,-125 46,-186 127,-184 l 45,1 z m 65,-570 c 73,-13 120,36 139,148 l 47,266 c 5,26 -7,42 -35,47 -27,5 -43,-6 -47,-32 l -49,-274 c -7,-43 -23,-63 -46,-59 l -25,5 c -26,4 -35,34 -25,88 l 21,121 c 21,116 -3,180 -71,192 l -41,7 c -75,13 -121,-32 -140,-136 l -12,-67 c -4,-26 7,-42 36,-47 27,-5 43,6 47,32 l 14,77 c 6,34 22,49 47,45 l 18,-3 c 23,-4 30,-30 22,-76 l -22,-124 c -21,-122 5,-189 79,-202 l 43,-8 z"
       id="path3703"
       inkscape:connector-curvature="0"
       style="fill:#ffffff;fill-rule:nonzero" /><path
       class="fil3"
       d="m 2951,11957 c -15,-35 -31,-74 -40,-96 -8,-21 1,-48 23,-57 22,-10 48,4 56,24 l 162,395 96,-281 c 8,-25 26,-33 52,-24 27,9 36,26 27,51 l -124,366 c -3,7 -7,14 -11,19 -5,6 -11,10 -17,13 -6,3 -12,5 -19,6 -7,0 -13,-1 -19,-3 -13,-4 -22,-13 -28,-28 l -158,-385 z"
       id="path3705"
       inkscape:connector-curvature="0"
       style="fill:#ffffff;fill-rule:nonzero" /><path
       class="fil3"
       d="m -2350,12763 c 0,-9 3,-16 8,-21 6,-6 14,-9 23,-10 9,0 16,3 21,8 4,4 7,9 7,16 l 0,99 95,0 c 9,0 16,3 21,9 6,6 9,13 10,21 0,8 -2,15 -7,20 -3,3 -8,5 -12,5 l -141,0 c -6,0 -12,-3 -17,-8 -5,-5 -8,-11 -7,-16 l -1,-123 z"
       id="path3707"
       inkscape:connector-curvature="0"
       style="fill:#ffffff;fill-rule:nonzero" /><g
       id="_778795040"><path
         class="fil4"
         d="m -752,10776 c 20,0 39,5 55,13 l 0,0 24,13 c 77,41 471,354 472,787 l 4,1970 c -83,-395 -323,-894 -512,-1024 l -55,-37 0,0 c -64,-43 -106,-115 -106,-198 l 0,-1406 c 0,-66 53,-118 118,-118 z"
         id="path3710"
         inkscape:connector-curvature="0"
         style="fill:#f99c10" /><path
         class="fil4"
         d="m -1114,10568 c 75,39 125,118 125,208 l 1,223 0,1121 c 0,65 -53,118 -119,118 -24,0 -47,-8 -66,-20 l 0,0 -382,-262 0,0 c -62,-43 -103,-114 -103,-195 l 0,-1286 c 0,-65 53,-118 118,-118 20,0 39,5 56,14 l 0,0 370,197 0,0 z"
         id="path3712"
         inkscape:connector-curvature="0"
         style="fill:#f99c10" /><path
         class="fil4"
         d="m -1778,11581 c 0,64 -53,117 -118,117 -25,0 -48,-8 -67,-21 l 0,0 -128,-88 c -604,-414 -472,-1772 -354,-2520 0,552 278,940 512,1063 l 32,17 0,0 c 74,40 125,119 125,209 l 0,1221 -2,2 z"
         id="path3714"
         inkscape:connector-curvature="0"
         style="fill:#f99c10" /></g><g
       id="_778801280"><path
         class="fil4"
         d="m 752,10776 c -20,0 -39,5 -55,13 l 0,0 -24,13 c -77,41 -471,354 -472,787 l -4,1970 c 83,-395 323,-894 512,-1024 l 55,-37 0,0 c 64,-43 106,-115 106,-198 l 0,-1406 c 0,-66 -53,-118 -118,-118 z"
         id="path3717"
         inkscape:connector-curvature="0"
         style="fill:#f99c10" /><path
         class="fil4"
         d="m 1114,10568 c -75,39 -125,118 -125,208 l -1,223 0,1121 c 0,65 53,118 119,118 24,0 47,-8 66,-20 l 0,0 382,-262 0,0 c 62,-43 103,-114 103,-195 l 0,-1286 c 0,-65 -53,-118 -118,-118 -20,0 -39,5 -56,14 l 0,0 -370,197 0,0 z"
         id="path3719"
         inkscape:connector-curvature="0"
         style="fill:#f99c10" /><path
         class="fil4"
         d="m 1778,11581 c 0,64 53,117 118,117 25,0 48,-8 67,-21 l 0,0 128,-88 c 604,-414 472,-1772 354,-2520 0,552 -278,940 -512,1063 l -32,17 0,0 c -74,40 -125,119 -125,209 l 0,1221 2,2 z"
         id="path3721"
         inkscape:connector-curvature="0"
         style="fill:#f99c10" /></g></g></svg>