<?xml version="1.0" encoding="UTF-8" standalone="no"?>
<!-- Creator: CorelDRAW X7 -->

<svg
   xmlns:dc="http://purl.org/dc/elements/1.1/"
   xmlns:cc="http://creativecommons.org/ns#"
   xmlns:rdf="http://www.w3.org/1999/02/22-rdf-syntax-ns#"
   xmlns:svg="http://www.w3.org/2000/svg"
   xmlns="http://www.w3.org/2000/svg"
   xmlns:sodipodi="http://sodipodi.sourceforge.net/DTD/sodipodi-0.dtd"
   xmlns:inkscape="http://www.inkscape.org/namespaces/inkscape"
   xml:space="preserve"
   width="7.8740005in"
   height="7.8740005in"
   version="1.1"
   style="clip-rule:evenodd;fill-rule:evenodd;image-rendering:optimizeQuality;shape-rendering:geometricPrecision;text-rendering:geometricPrecision"
   viewBox="0 0 7874.0005 7874.0005"
   id="svg4808"
   inkscape:version="0.91 r13725"
   sodipodi:docname="Nomads - Vertigo Zond - [N3] [Vyo].svg"><metadata
     id="metadata4862"><rdf:RDF><cc:Work
         rdf:about=""><dc:format>image/svg+xml</dc:format><dc:type
           rdf:resource="http://purl.org/dc/dcmitype/StillImage" /></cc:Work></rdf:RDF></metadata><sodipodi:namedview
     pagecolor="#ffffff"
     bordercolor="#666666"
     borderopacity="1"
     objecttolerance="10"
     gridtolerance="10"
     guidetolerance="10"
     inkscape:pageopacity="0"
     inkscape:pageshadow="2"
     inkscape:window-width="640"
     inkscape:window-height="480"
     id="namedview4860"
     showgrid="false"
     inkscape:zoom="0.23838384"
     inkscape:cx="736.83001"
     inkscape:cy="849.33005"
     inkscape:window-x="0"
     inkscape:window-y="0"
     inkscape:window-maximized="0"
     inkscape:current-layer="svg4808" /><defs
     id="defs4810"><style
       type="text/css"
       id="style4812"><![CDATA[
    .fil2 {fill:none}
    .fil0 {fill:black}
    .fil4 {fill:#E2001A}
    .fil1 {fill:white}
    .fil3 {fill:black;fill-rule:nonzero}
   ]]></style></defs><g
     id="Layer_x0020_1"
     transform="translate(3937,-7063)"><metadata
       id="CorelCorpID_0Corel-Layer" /><circle
       class="fil0"
       cy="11000"
       r="3937"
       id="circle4816"
       cx="0"
       style="fill:#000000" /><circle
       class="fil0"
       cy="11000"
       r="3780"
       id="circle4818"
       cx="0"
       style="fill:#000000" /><path
       class="fil1"
       d="m 0,7378 c 2000,0 3622,1622 3622,3622 0,2000 -1622,3622 -3622,3622 -2000,0 -3622,-1622 -3622,-3622 0,-2000 1622,-3622 3622,-3622 z m 0,905 c 1500,0 2717,1217 2717,2717 0,1500 -1217,2717 -2717,2717 -1500,0 -2717,-1217 -2717,-2717 0,-1500 1217,-2717 2717,-2717 z"
       id="path4820"
       inkscape:connector-curvature="0"
       style="fill:#ffffff" /><path
       class="fil0"
       d="m 512,14427 c -167,25 -338,38 -512,38 -174,0 -345,-13 -512,-38 l 0,-2 c -108,0 -196,-88 -197,-197 l 0,0 0,0 0,-200 c 0,-108 88,-196 197,-196 l 0,-3 c 166,29 337,45 512,45 175,0 346,-16 512,-45 l 0,3 c 109,0 197,88 197,196 l 0,200 0,0 0,0 c -1,109 -89,197 -197,197 l 0,2 z"
       id="path4822"
       inkscape:connector-curvature="0"
       style="fill:#000000" /><path
       class="fil0"
       d="m 2712,8843 c 105,133 201,274 288,425 87,150 162,305 224,462 l -2,1 c 54,94 22,214 -72,269 l 0,0 0,0 -173,100 c -94,54 -215,22 -269,-73 l -3,2 c -57,-159 -129,-315 -216,-466 -87,-151 -186,-292 -295,-421 l 2,-1 c -54,-94 -22,-215 72,-269 l 173,-100 1,0 0,0 c 94,-54 214,-22 268,72 l 2,-1 z"
       id="path4824"
       inkscape:connector-curvature="0"
       style="fill:#000000" /><path
       class="fil0"
       d="m -3224,9730 c 62,-157 137,-312 224,-462 87,-151 183,-292 288,-425 l 2,1 c 54,-94 174,-126 268,-72 l 0,0 1,0 173,100 c 94,54 126,175 72,269 l 2,1 c -109,129 -208,270 -295,421 -87,151 -159,307 -216,466 l -3,-2 c -54,95 -175,127 -269,73 l -173,-100 0,0 0,0 c -94,-55 -126,-175 -72,-269 l -2,-1 z"
       id="path4826"
       inkscape:connector-curvature="0"
       style="fill:#000000" /><ellipse
       class="fil2"
       transform="matrix(1.58018,-0.307156,0.397686,2.04592,3.02895e-4,11000)"
       rx="2421"
       ry="1870"
       id="ellipse4828"
       cx="0"
       cy="0"
       style="fill:none" /><path
       class="fil3"
       d="m -1471,8338 24,-353 c 1,-8 3,-15 7,-21 4,-6 9,-10 15,-13 5,-3 10,-5 16,-6 5,0 11,0 17,1 5,1 10,3 15,6 4,3 8,7 10,12 4,6 5,14 4,24 l -35,383 c -1,11 -5,21 -10,29 -5,8 -12,14 -21,19 -8,4 -17,7 -27,7 -9,0 -18,-2 -28,-8 l -342,-179 c -8,-4 -14,-10 -18,-16 -2,-5 -4,-10 -4,-16 0,-6 1,-11 3,-16 2,-6 5,-11 9,-15 4,-5 8,-8 13,-11 6,-3 12,-5 19,-5 7,0 13,2 21,6 l 312,172 z"
       id="path4830"
       inkscape:connector-curvature="0"
       style="fill:#000000;fill-rule:nonzero" /><path
       id="1"
       class="fil3"
       d="m -1092,7996 300,-89 c 23,-7 38,2 45,26 8,25 0,40 -23,47 l -300,90 14,48 c 7,23 35,27 83,13 l 228,-68 c 23,-7 38,2 45,26 8,24 0,40 -23,47 l -230,69 c -103,31 -165,12 -185,-56 l -55,-184 c -11,-34 -5,-64 16,-90 21,-25 59,-46 112,-62 l 63,-19 c 23,-6 38,3 45,28 7,24 -1,39 -23,46 l -43,13 c -63,19 -92,40 -85,63 l 16,52 z"
       inkscape:connector-curvature="0"
       style="fill:#000000;fill-rule:nonzero" /><path
       id="2"
       class="fil3"
       d="m -248,7755 c -3,-24 -30,-32 -80,-26 l -224,31 14,103 233,-31 c 44,-6 65,-18 62,-36 l -5,-41 z m 91,28 c 10,70 -38,111 -143,125 l -60,9 175,50 c 9,3 15,8 20,13 4,6 7,12 8,19 1,6 0,11 -1,16 -1,5 -3,10 -6,15 -3,4 -7,8 -11,11 -5,3 -10,5 -15,6 -7,1 -13,0 -19,-2 l 0,-1 -319,-107 15,113 c 4,26 -9,40 -37,44 -30,4 -46,-7 -50,-32 l -44,-333 c -3,-22 6,-35 29,-38 l 268,-36 c 113,-16 175,14 185,88 l 5,40 z"
       inkscape:connector-curvature="0"
       style="fill:#000000;fill-rule:nonzero" /><path
       id="3"
       class="fil3"
       d="m 191,7721 -7,293 c -1,26 -16,39 -45,38 -30,-1 -44,-14 -43,-40 l 7,-293 -137,-4 c -25,0 -37,-14 -36,-40 1,-25 13,-37 38,-36 l 364,10 c 24,0 35,13 35,38 -1,26 -13,38 -37,38 l -139,-4 z"
       inkscape:connector-curvature="0"
       style="fill:#000000;fill-rule:nonzero" /><path
       id="4"
       class="fil3"
       d="m 524,8057 c -5,26 -21,36 -50,31 -29,-6 -42,-21 -37,-46 l 57,-329 c 5,-25 22,-35 52,-30 28,5 40,20 35,45 l -57,329 z"
       inkscape:connector-curvature="0"
       style="fill:#000000;fill-rule:nonzero" /><path
       id="5"
       class="fil3"
       d="m 1124,8140 c -20,68 -80,88 -179,59 L 800,8155 C 693,8123 649,8073 670,8005 l 55,-186 c 20,-68 84,-85 192,-53 l 57,17 c 23,6 31,22 24,47 -7,24 -23,33 -46,26 l -40,-12 c -63,-19 -97,-17 -104,4 l -53,178 c -6,22 16,41 68,56 l 144,43 c 43,13 67,10 72,-9 l 29,-95 c 7,-25 25,-33 53,-25 28,8 39,25 31,50 l -28,94 z"
       inkscape:connector-curvature="0"
       style="fill:#000000;fill-rule:nonzero" /><path
       id="6"
       class="fil3"
       d="m 1665,8218 c 14,-26 -1,-51 -44,-75 l -118,-66 c -47,-26 -77,-26 -91,-1 l -82,146 c -13,25 3,50 50,76 l 114,64 c 46,25 76,26 89,1 l 82,-145 z m -8,193 c -37,66 -108,70 -213,11 l -92,-51 c -105,-59 -139,-121 -102,-187 l 88,-157 c 37,-66 108,-70 213,-11 l 91,51 c 105,58 139,121 102,187 l -87,157 z"
       inkscape:connector-curvature="0"
       style="fill:#000000;fill-rule:nonzero" /><ellipse
       class="fil2"
       transform="matrix(-0.497442,1.53097,-1.9822,-0.644057,-1.29272e-4,11000)"
       rx="2421"
       ry="1870"
       id="ellipse4838"
       cx="0"
       cy="0"
       style="fill:none" /><path
       class="fil3"
       d="m -2429,13204 175,193 c 16,18 14,36 -5,53 -18,17 -36,16 -52,-2 l -239,-263 c -4,-4 -7,-9 -9,-15 -1,-6 -2,-11 -1,-16 0,-6 2,-11 4,-16 3,-5 6,-9 10,-13 9,-8 19,-11 31,-10 l 388,46 -183,-202 c -16,-18 -15,-35 4,-52 19,-17 37,-17 53,0 l 238,263 c 5,5 9,11 11,18 2,6 3,12 3,19 0,6 -2,12 -4,17 -3,6 -6,11 -11,15 -9,8 -21,11 -35,10 l -378,-45 z"
       id="path4840"
       inkscape:connector-curvature="0"
       style="fill:#000000;fill-rule:nonzero" /><path
       id="path4842"
       class="fil3"
       d="m -2785,12659 c -23,17 -21,45 8,86 l 77,111 c 31,44 58,57 82,41 l 137,-96 c 23,-16 19,-47 -12,-91 l -75,-107 c -30,-43 -56,-56 -80,-40 l -137,96 z m 91,-171 c 62,-44 128,-16 197,83 l 60,85 c 69,99 73,170 11,213 l -146,103 c -63,44 -128,16 -198,-82 l -60,-86 c -69,-99 -72,-170 -10,-213 l 146,-103 z"
       inkscape:connector-curvature="0"
       style="fill:#000000;fill-rule:nonzero" /><path
       id="path4844"
       class="fil3"
       d="m -2868,11880 c 8,-3 16,-4 23,-3 7,0 13,2 19,5 5,3 10,7 14,12 4,5 7,10 9,16 2,6 3,13 3,20 0,7 -1,14 -4,21 l -162,373 235,-79 c 24,-9 41,1 51,28 9,28 1,46 -23,54 l -305,103 c -7,2 -14,3 -21,3 -7,-1 -13,-3 -18,-6 -6,-3 -11,-7 -15,-12 -4,-5 -7,-11 -9,-17 -2,-7 -3,-14 -3,-21 0,-7 2,-14 5,-20 l 157,-370 -231,78 c -25,8 -41,-2 -51,-30 -9,-27 -2,-45 23,-53 l 303,-102 z"
       inkscape:connector-curvature="0"
       style="fill:#000000;fill-rule:nonzero" /><path
       id="path4846"
       class="fil3"
       d="m -3222,11411 c -24,4 -32,30 -24,79 l 38,227 251,-42 -38,-226 c -8,-49 -26,-72 -54,-67 l -173,29 z m 163,-117 c 75,-12 121,35 139,141 l 46,281 c 4,22 -5,35 -28,39 l -333,55 c -23,4 -36,-5 -40,-27 l -47,-282 c -17,-106 10,-164 81,-176 l 182,-31 z"
       inkscape:connector-curvature="0"
       style="fill:#000000;fill-rule:nonzero" /><ellipse
       class="fil2"
       transform="matrix(-0.900164,1.33455,-1.72789,-1.16548,-1.99971e-4,11000)"
       rx="2421"
       ry="1870"
       id="ellipse4848"
       cx="0"
       cy="0"
       style="fill:none" /><path
       class="fil3"
       d="m 3121,12016 88,-244 c 9,-23 25,-30 50,-21 23,8 31,24 23,47 l -121,334 c -2,6 -6,11 -10,14 -4,5 -9,8 -14,10 -5,2 -10,3 -16,3 -5,0 -10,-1 -15,-3 -12,-4 -19,-11 -24,-22 l -141,-365 -92,256 c -8,23 -25,30 -48,21 -25,-9 -33,-25 -25,-47 l 121,-333 c 3,-7 6,-13 11,-18 4,-5 10,-9 15,-11 6,-3 12,-4 18,-5 6,0 12,1 17,3 12,4 20,13 26,26 l 137,355 z"
       id="path4850"
       inkscape:connector-curvature="0"
       style="fill:#000000;fill-rule:nonzero" /><path
       id="path4852"
       class="fil3"
       d="m 2825,12592 c 26,14 50,-2 73,-47 l 60,-120 c 24,-48 23,-78 -3,-91 l -150,-76 c -25,-13 -50,5 -74,53 l -59,117 c -23,47 -22,76 3,89 l 150,75 z m -194,1 c -67,-34 -74,-105 -20,-212 l 47,-94 c 54,-107 115,-144 182,-110 l 160,80 c 68,34 75,105 21,213 l -47,93 c -54,108 -115,144 -183,110 l -160,-80 z"
       inkscape:connector-curvature="0"
       style="fill:#000000;fill-rule:nonzero" /><path
       id="path4854"
       class="fil3"
       d="m 2205,13049 c -7,-5 -12,-11 -15,-17 -4,-6 -5,-12 -6,-18 -1,-6 0,-13 2,-19 2,-6 5,-11 9,-16 4,-5 9,-10 15,-13 6,-4 12,-7 19,-8 l 401,-71 -194,-153 c -21,-16 -22,-35 -4,-57 17,-23 37,-26 57,-10 l 253,198 c 6,5 11,11 14,17 3,5 5,12 6,18 0,6 -1,12 -3,18 -2,6 -5,12 -9,17 -4,6 -9,10 -15,14 -6,4 -13,6 -20,7 l -397,73 192,150 c 20,16 21,35 3,58 -17,22 -36,26 -56,10 l -252,-198 z"
       inkscape:connector-curvature="0"
       style="fill:#000000;fill-rule:nonzero" /><path
       id="path4856"
       class="fil3"
       d="m 1957,13585 c 15,19 42,13 81,-18 l 181,-141 -157,-201 -180,142 c -40,31 -51,57 -34,79 l 109,139 z m -180,-88 c -47,-60 -28,-123 57,-189 l 223,-176 c 18,-14 34,-12 49,7 l 208,265 c 14,18 12,34 -6,48 l -225,176 c -84,66 -148,71 -193,14 l -113,-145 z"
       inkscape:connector-curvature="0"
       style="fill:#000000;fill-rule:nonzero" /><polygon
       class="fil4"
       points="0,11394 -2080,12201 -1040,10400 0,8598 1040,10400 2080,12201 "
       id="polygon4858"
       style="fill:#e2001a" /></g></svg>