<?xml version="1.0" encoding="UTF-8" standalone="no"?>
<!-- Creator: CorelDRAW X7 -->

<svg
   xmlns:dc="http://purl.org/dc/elements/1.1/"
   xmlns:cc="http://creativecommons.org/ns#"
   xmlns:rdf="http://www.w3.org/1999/02/22-rdf-syntax-ns#"
   xmlns:svg="http://www.w3.org/2000/svg"
   xmlns="http://www.w3.org/2000/svg"
   xmlns:sodipodi="http://sodipodi.sourceforge.net/DTD/sodipodi-0.dtd"
   xmlns:inkscape="http://www.inkscape.org/namespaces/inkscape"
   xml:space="preserve"
   width="7.8740005in"
   height="7.8740005in"
   version="1.1"
   style="clip-rule:evenodd;fill-rule:evenodd;image-rendering:optimizeQuality;shape-rendering:geometricPrecision;text-rendering:geometricPrecision"
   viewBox="0 0 7874.0005 7874.0005"
   id="svg4864"
   inkscape:version="0.91 r13725"
   sodipodi:docname="Nomads - Vortex - [N3] [Vyo].svg"><metadata
     id="metadata4890"><rdf:RDF><cc:Work
         rdf:about=""><dc:format>image/svg+xml</dc:format><dc:type
           rdf:resource="http://purl.org/dc/dcmitype/StillImage" /></cc:Work></rdf:RDF></metadata><sodipodi:namedview
     pagecolor="#ffffff"
     bordercolor="#666666"
     borderopacity="1"
     objecttolerance="10"
     gridtolerance="10"
     guidetolerance="10"
     inkscape:pageopacity="0"
     inkscape:pageshadow="2"
     inkscape:window-width="640"
     inkscape:window-height="480"
     id="namedview4888"
     showgrid="false"
     inkscape:zoom="0.23838384"
     inkscape:cx="736.83001"
     inkscape:cy="849.33005"
     inkscape:window-x="0"
     inkscape:window-y="0"
     inkscape:window-maximized="0"
     inkscape:current-layer="svg4864" /><defs
     id="defs4866"><style
       type="text/css"
       id="style4868"><![CDATA[
    .fil0 {fill:black}
    .fil1 {fill:#FFA000}
    .fil2 {fill:white}
   ]]></style></defs><g
     id="Layer_x0020_1"
     transform="translate(3937,-7063)"><metadata
       id="CorelCorpID_0Corel-Layer" /><circle
       class="fil0"
       cy="11000"
       r="3937"
       id="circle4872"
       cx="0"
       style="fill:#000000" /><circle
       class="fil1"
       cy="11000"
       r="3583"
       id="circle4874"
       cx="0"
       style="fill:#ffa000" /><circle
       class="fil2"
       cy="11000"
       r="3071"
       id="circle4876"
       cx="0"
       style="fill:#ffffff" /><path
       class="fil1"
       d="m -630,8795 c 1045,0 1672,753 1693,1536 10,368 -79,826 -394,1063 355,-1063 -354,-1733 -1181,-1733 -827,0 -2362,630 -1732,2953 -1299,-1850 79,-3819 1614,-3819 z"
       id="path4878"
       inkscape:connector-curvature="0"
       style="fill:#ffa000" /><path
       class="fil1"
       d="m -2205,11630 c 0,-1045 753,-1672 1536,-1693 368,-10 826,79 1063,394 -1063,-355 -1733,354 -1733,1181 0,827 630,2362 2953,1732 -1850,1299 -3819,-79 -3819,-1614 z"
       id="path4880"
       inkscape:connector-curvature="0"
       style="fill:#ffa000" /><path
       class="fil1"
       d="m 630,13205 c -1045,0 -1672,-753 -1693,-1536 -10,-368 79,-826 394,-1063 -355,1063 354,1733 1181,1733 827,0 2362,-630 1732,-2953 1299,1850 -79,3819 -1614,3819 z"
       id="path4882"
       inkscape:connector-curvature="0"
       style="fill:#ffa000" /><path
       class="fil1"
       d="m 2205,10370 c 0,1045 -753,1672 -1536,1693 -368,10 -826,-79 -1063,-394 1063,355 1733,-354 1733,-1181 0,-827 -630,-2362 -2953,-1732 1850,-1299 3819,79 3819,1614 z"
       id="path4884"
       inkscape:connector-curvature="0"
       style="fill:#ffa000" /><circle
       class="fil1"
       cy="11000"
       r="591"
       id="circle4886"
       cx="0"
       style="fill:#ffa000" /></g></svg>