<?xml version="1.0" encoding="UTF-8" standalone="no"?>
<!-- Creator: CorelDRAW X7 -->

<svg
   xmlns:dc="http://purl.org/dc/elements/1.1/"
   xmlns:cc="http://creativecommons.org/ns#"
   xmlns:rdf="http://www.w3.org/1999/02/22-rdf-syntax-ns#"
   xmlns:svg="http://www.w3.org/2000/svg"
   xmlns="http://www.w3.org/2000/svg"
   xmlns:sodipodi="http://sodipodi.sourceforge.net/DTD/sodipodi-0.dtd"
   xmlns:inkscape="http://www.inkscape.org/namespaces/inkscape"
   xml:space="preserve"
   width="7.8740005in"
   height="7.8740005in"
   version="1.1"
   style="clip-rule:evenodd;fill-rule:evenodd;image-rendering:optimizeQuality;shape-rendering:geometricPrecision;text-rendering:geometricPrecision"
   viewBox="0 0 7874.0005 7874.0005"
   id="svg3758"
   inkscape:version="0.91 r13725"
   sodipodi:docname="Nomads - Iguana - [N3] [Vyo].svg"><metadata
     id="metadata3794"><rdf:RDF><cc:Work
         rdf:about=""><dc:format>image/svg+xml</dc:format><dc:type
           rdf:resource="http://purl.org/dc/dcmitype/StillImage" /></cc:Work></rdf:RDF></metadata><sodipodi:namedview
     pagecolor="#ffffff"
     bordercolor="#666666"
     borderopacity="1"
     objecttolerance="10"
     gridtolerance="10"
     guidetolerance="10"
     inkscape:pageopacity="0"
     inkscape:pageshadow="2"
     inkscape:window-width="640"
     inkscape:window-height="480"
     id="namedview3792"
     showgrid="false"
     inkscape:zoom="0.23838384"
     inkscape:cx="736.83001"
     inkscape:cy="849.33005"
     inkscape:window-x="0"
     inkscape:window-y="0"
     inkscape:window-maximized="0"
     inkscape:current-layer="svg3758" /><defs
     id="defs3760"><style
       type="text/css"
       id="style3762"><![CDATA[
    .fil5 {fill:none}
    .fil0 {fill:black}
    .fil2 {fill:black}
    .fil1 {fill:#FFA000}
    .fil3 {fill:white}
    .fil4 {fill:black;fill-rule:nonzero}
   ]]></style></defs><g
     id="Layer_x0020_1"
     transform="translate(3937,-7063)"><metadata
       id="CorelCorpID_0Corel-Layer" /><circle
       class="fil0"
       cy="11000"
       r="3937"
       id="circle3766"
       cx="0"
       style="fill:#000000" /><circle
       class="fil1"
       cy="11000"
       r="3661"
       id="circle3768"
       cx="0"
       style="fill:#ffa000" /><path
       class="fil2"
       d="m -1148,13463 c -144,-68 -281,-147 -411,-238 l 480,-625 c 74,50 152,95 233,134 l -302,729 z"
       id="path3770"
       inkscape:connector-curvature="0"
       style="fill:#000000" /><path
       class="fil2"
       d="m 1148,13463 c 144,-68 281,-147 411,-238 l -480,-625 c -74,50 -152,95 -233,134 l 302,729 z"
       id="path3772"
       inkscape:connector-curvature="0"
       style="fill:#000000" /><path
       class="fil2"
       d="m 2707,10763 c 13,158 13,317 -1,474 l -781,-103 c 6,-89 6,-179 0,-268 l 782,-103 z"
       id="path3774"
       inkscape:connector-curvature="0"
       style="fill:#000000" /><path
       class="fil3"
       d="m 1559,8775 c -131,-92 -268,-171 -411,-237 l -302,728 c 80,39 158,84 233,134 l 480,-625 z"
       id="path3776"
       inkscape:connector-curvature="0"
       style="fill:#ffffff" /><path
       class="fil2"
       d="m -2707,10763 c -13,158 -13,317 1,474 l 781,-103 c -6,-89 -6,-179 0,-268 l -782,-103 z"
       id="path3778"
       inkscape:connector-curvature="0"
       style="fill:#000000" /><path
       class="fil4"
       d="m -1888,8048 c -15,-23 -9,-42 17,-59 26,-17 47,-14 62,9 l 191,297 c 15,23 9,43 -18,60 -25,17 -45,14 -60,-9 l -192,-298 z m -526,509 c -50,-58 -34,-123 49,-195 l 122,-106 c 89,-78 159,-89 209,-32 l 135,155 c 49,56 29,124 -61,203 l -47,41 c -19,17 -38,15 -56,-6 -18,-20 -17,-39 2,-56 l 33,-29 c 53,-46 71,-77 56,-95 l -129,-148 c -16,-18 -46,-9 -89,29 l -121,106 c -36,31 -47,54 -33,70 l 69,80 c 18,20 16,41 -8,61 -23,21 -44,21 -62,0 l -69,-78 z m -437,543 c -67,-52 -56,-134 31,-245 l 55,-70 c 83,-106 158,-134 224,-82 l 210,165 c 21,17 22,37 3,62 -19,24 -39,28 -61,11 l -202,-159 c -28,-22 -63,-6 -104,46 l -67,85 c -45,58 -54,97 -25,120 l 202,158 c 22,17 23,38 3,63 -18,23 -38,27 -60,10 l -209,-164 z m -126,338 -81,179 178,-25 -97,-154 z m -172,188 119,-261 -58,-93 c -4,-7 -6,-14 -6,-21 0,-7 2,-14 4,-20 3,-5 6,-10 10,-14 5,-4 10,-8 15,-10 5,-3 11,-4 17,-5 6,0 12,1 17,4 8,3 14,9 19,17 l 216,349 c 6,10 10,20 10,30 1,11 -1,20 -5,29 -4,9 -10,17 -19,23 -8,7 -17,11 -29,12 l -405,67 1,0 c -10,2 -19,1 -27,-2 -6,-3 -10,-6 -14,-11 -3,-5 -6,-10 -7,-15 -2,-6 -3,-11 -2,-17 0,-6 2,-12 4,-17 3,-7 7,-13 13,-17 5,-4 12,-7 21,-9 l 106,-19 z m -295,780 c -9,-2 -17,-5 -23,-9 -6,-4 -10,-9 -14,-15 -3,-6 -5,-12 -6,-19 -1,-7 -1,-13 1,-20 1,-7 4,-13 8,-20 4,-6 9,-11 15,-15 l 353,-250 -255,-58 c -27,-6 -37,-24 -30,-54 7,-30 23,-43 50,-36 l 332,76 c 9,2 16,5 21,9 6,4 10,10 14,15 3,6 5,12 6,19 1,7 0,14 -1,21 -2,7 -5,13 -9,20 -4,7 -9,12 -16,16 l -347,248 252,58 c 27,6 37,25 30,55 -7,30 -24,41 -50,35 l -331,-76 z m 93,380 -4,197 154,-94 -150,-103 z m -84,241 6,-287 -90,-63 c -6,-4 -11,-10 -14,-16 -2,-7 -4,-14 -4,-20 0,-6 2,-11 4,-17 2,-6 5,-11 9,-15 4,-5 9,-8 14,-11 5,-2 11,-4 18,-4 8,1 15,3 23,8 l 337,236 c 10,6 17,14 21,23 5,10 7,19 7,29 0,10 -3,19 -8,28 -5,9 -12,17 -22,23 l -345,222 0,0 c -8,6 -17,8 -25,8 -6,0 -12,-1 -17,-4 -5,-3 -9,-7 -13,-11 -4,-5 -7,-10 -9,-15 -2,-6 -3,-12 -2,-18 0,-7 1,-14 5,-20 3,-6 8,-11 15,-16 l 90,-60 z m 479,1729 c -64,34 -122,2 -173,-96 l -121,-233 c -12,-23 -6,-41 18,-53 24,-13 42,-8 54,15 l 125,240 c 20,38 40,51 61,41 l 21,-12 c 23,-12 22,-41 -2,-89 l -56,-106 c -53,-101 -49,-167 10,-198 l 36,-19 c 65,-34 122,-6 169,85 l 31,59 c 12,23 6,40 -19,53 -24,13 -41,7 -53,-16 l -35,-67 c -16,-30 -35,-39 -57,-28 l -16,9 c -20,10 -20,36 2,77 l 56,108 c 56,106 51,177 -14,210 l -37,20 z m 516,368 c 20,-16 11,-49 -28,-99 l -82,-104 c -38,-49 -67,-65 -88,-49 l -148,117 c -22,17 -14,49 24,98 l 98,125 c 28,36 53,46 75,29 l 149,-117 z m -93,191 c -33,26 -68,32 -106,17 2,9 1,17 -2,24 -2,6 -7,11 -12,16 -4,3 -9,5 -14,7 -5,1 -11,1 -16,1 -5,-1 -11,-2 -16,-5 -5,-2 -10,-6 -13,-11 -3,-3 -5,-6 -6,-10 -2,-3 -3,-8 -3,-12 l -14,-91 -100,-128 c -69,-89 -73,-157 -11,-206 l 153,-120 c 62,-48 128,-28 197,60 l 102,131 c 71,90 76,159 14,207 l -153,120 z m 537,461 c -52,66 -133,56 -244,-32 l -71,-55 c -106,-83 -133,-158 -81,-224 l 165,-210 c 16,-21 37,-22 61,-3 25,19 29,39 12,61 l -159,202 c -22,29 -7,63 46,104 l 85,67 c 57,45 97,54 119,26 l 159,-203 c 17,-21 38,-22 62,-3 24,19 28,39 11,60 l -165,210 z m 335,144 176,89 -18,-179 -158,90 z m 181,180 -256,-130 -96,54 c -7,4 -14,5 -21,5 -7,0 -14,-2 -19,-5 -5,-3 -10,-6 -14,-11 -4,-4 -7,-9 -10,-15 -2,-5 -3,-11 -3,-17 0,-6 1,-11 4,-17 4,-7 9,-13 18,-18 l 358,-201 c 10,-6 20,-9 31,-9 10,0 19,3 28,7 9,4 16,11 22,19 6,9 10,19 11,30 l 50,408 0,-1 c 1,10 0,19 -4,27 -3,5 -7,10 -11,13 -5,3 -10,6 -16,7 -5,1 -11,2 -17,1 -6,-1 -12,-2 -17,-5 -6,-3 -12,-8 -16,-13 -4,-6 -7,-13 -8,-22 l -14,-107 z m 752,52 c 7,-25 -15,-44 -66,-58 l -236,-66 -72,259 235,65 c 51,14 81,7 89,-21 l 50,-179 z m 38,209 c -21,77 -87,101 -198,70 l -291,-81 c -23,-7 -31,-22 -25,-46 l 97,-344 c 6,-24 21,-32 44,-26 l 293,82 c 109,30 154,83 133,157 l -53,188 z m 634,-125 c 2,-26 -24,-41 -78,-45 l -238,-18 -9,110 249,19 c 47,4 71,-4 72,-24 l 4,-42 z m 89,49 c -6,74 -65,107 -177,98 l -65,-5 171,91 c 9,5 15,11 18,18 4,7 5,15 4,22 0,5 -1,11 -4,16 -2,5 -6,10 -10,14 -4,4 -9,7 -14,9 -5,2 -11,3 -17,2 -6,0 -13,-2 -19,-6 l 1,0 -308,-181 -9,120 c -2,27 -18,40 -49,37 -31,-2 -46,-17 -44,-45 l 27,-354 c 2,-25 15,-36 39,-34 l 287,22 c 121,9 178,53 172,133 l -3,43 z m 536,-94 c -4,-31 -32,-42 -85,-35 l -141,18 c -57,8 -83,27 -79,57 l 23,176 c 4,30 34,41 91,33 l 138,-18 c 55,-7 81,-26 77,-55 l -24,-176 z m 117,169 c 11,80 -48,128 -174,145 l -111,15 c -126,16 -195,-15 -206,-94 l -25,-189 c -10,-80 48,-129 175,-145 l 110,-15 c 127,-17 195,15 206,95 l 25,188 z m 707,-145 c 3,9 4,17 3,24 0,8 -2,14 -5,20 -4,6 -8,11 -13,16 -6,4 -11,7 -18,9 -6,2 -13,3 -21,3 -8,0 -15,-2 -21,-5 l -397,-173 83,249 c 8,27 -2,44 -31,54 -29,10 -48,2 -57,-24 l -107,-324 c -2,-8 -3,-16 -3,-23 1,-7 3,-13 6,-19 4,-6 8,-11 13,-15 6,-4 12,-8 18,-10 7,-2 15,-3 22,-3 8,0 15,2 22,5 l 393,169 -82,-246 c -8,-26 2,-44 32,-54 29,-9 48,-1 56,25 l 107,322 z m 947,-1041 c -36,42 -46,70 -29,84 l 147,127 c 21,18 51,4 91,-43 l 143,-165 c 17,-20 36,-21 56,-3 21,18 23,37 6,56 l -148,172 c -77,89 -146,108 -205,58 l -154,-134 c -56,-48 -46,-116 30,-204 l 150,-174 c 17,-19 36,-20 56,-3 21,18 23,37 6,57 l -149,172 z m 511,-635 c -27,-16 -53,0 -80,46 l -71,124 c -28,49 -29,82 -2,97 l 154,88 c 26,15 53,-3 81,-52 l 69,-121 c 28,-48 29,-80 3,-94 l -154,-88 z m 205,10 c 70,40 73,115 10,226 l -56,96 c -63,111 -130,147 -199,107 l -165,-94 c -70,-41 -74,-116 -10,-227 l 55,-96 c 64,-111 130,-147 201,-107 l 164,95 z m 49,-641 c -24,-8 -45,13 -62,64 l -78,227 105,35 81,-235 c 15,-45 13,-70 -5,-77 l -41,-14 z m 70,-73 c 71,24 88,89 51,195 l -21,62 131,-143 c 7,-7 15,-11 22,-13 8,-1 15,-1 22,2 5,1 10,4 15,8 4,4 8,8 11,13 2,5 4,10 5,16 1,5 0,11 -2,17 -2,6 -6,12 -11,17 l 0,-1 -252,252 114,39 c 25,9 33,28 23,57 -10,30 -28,40 -54,31 l -337,-115 c -23,-8 -30,-23 -22,-46 l 93,-272 c 39,-115 96,-159 171,-133 l 41,14 z m 48,-557 c -25,-3 -42,22 -49,75 l -31,237 110,15 32,-247 c 6,-47 0,-71 -19,-74 l -43,-6 z m 54,-86 c 74,10 103,71 89,182 l -9,64 100,-165 c 6,-8 12,-14 19,-17 8,-3 15,-4 22,-3 6,1 11,2 16,5 5,3 10,6 13,11 4,4 7,9 9,14 1,6 2,11 1,17 -1,7 -3,13 -7,19 l 0,-1 -198,297 119,16 c 27,4 39,21 35,51 -4,31 -20,45 -47,42 l -353,-47 c -24,-3 -35,-17 -32,-41 l 38,-285 c 16,-120 63,-175 142,-164 l 43,5 z m 18,-237 -25,-332 c -2,-25 10,-38 37,-40 28,-2 42,9 44,34 l 25,332 53,-4 c 26,-2 36,-30 32,-83 l -19,-252 c -2,-25 11,-39 38,-41 27,-2 42,10 44,35 l 19,254 c 8,114 -25,174 -100,179 l -203,16 c -38,3 -68,-10 -89,-37 -21,-28 -35,-72 -39,-131 l -5,-69 c -2,-25 11,-39 38,-41 27,-2 41,10 43,35 l 4,47 c 5,70 20,104 46,102 l 57,-4 z m -207,-913 c -24,7 -29,36 -15,87 l 68,235 258,-74 -68,-234 c -14,-51 -36,-73 -64,-65 l -179,51 z m 158,-142 c 77,-22 132,22 163,132 l 84,291 c 6,23 -2,38 -26,44 l -344,99 c -23,7 -38,-1 -45,-24 l -84,-292 c -31,-109 -10,-175 64,-196 l 188,-54 z m -40,-320 c 24,-11 43,-2 56,26 13,28 7,48 -18,59 l -322,146 c -25,11 -44,3 -57,-27 -13,-27 -7,-47 18,-58 l 323,-146 z m -543,-414 c -22,14 -18,43 10,87 l 133,206 225,-146 -132,-204 c -29,-45 -55,-60 -80,-44 l -156,101 z m 109,-182 c 68,-44 133,-17 195,79 l 164,254 c 13,20 9,37 -12,51 l -300,194 c -21,13 -38,9 -51,-11 l -164,-255 c -62,-96 -61,-164 4,-206 l 164,-106 z m -535,-333 c -23,21 -16,51 21,89 l 98,104 c 39,41 70,52 93,30 l 128,-122 c 22,-20 13,-51 -26,-93 l -96,-101 c -38,-40 -68,-50 -90,-29 l -128,122 z m 68,-194 c 58,-55 132,-37 220,56 l 76,81 c 88,93 103,167 45,222 l -138,131 c -59,55 -132,37 -220,-56 l -77,-81 c -88,-93 -102,-167 -44,-222 l 138,-131 z m -609,-215 c -15,21 0,47 44,77 l 196,138 63,-91 -203,-143 c -39,-27 -64,-32 -75,-17 l -25,36 z m -51,-88 c 43,-61 110,-59 202,5 l 53,38 -100,-166 c -5,-8 -7,-16 -6,-24 0,-8 3,-15 7,-21 3,-5 7,-9 12,-12 5,-3 10,-5 15,-7 6,-1 11,-1 17,0 6,1 11,3 16,6 5,4 10,9 13,15 l 0,0 171,313 69,-98 c 16,-23 37,-25 62,-7 25,18 30,38 15,61 l -205,291 c -14,20 -31,23 -50,9 l -236,-166 c -99,-69 -126,-137 -80,-202 l 25,-35 z"
       id="path3780"
       inkscape:connector-curvature="0"
       style="fill:#000000;fill-rule:nonzero" /><path
       class="fil2"
       d="m -1749,12342 437,-335 c 261,339 651,575 1096,633 l 26,-196 c 62,9 126,13 190,13 64,0 128,-4 190,-13 l 26,196 c 445,-59 835,-294 1096,-633 l 437,335 c -117,153 -254,290 -407,407 l -215,-280 -24,-32 -31,23 c -54,39 -109,75 -166,108 -58,33 -117,63 -178,90 l -35,16 151,363 c -175,73 -362,124 -556,149 l 46,351 c -109,15 -221,22 -334,22 -113,0 -225,-7 -334,-22 l 46,-351 c -194,-25 -381,-76 -556,-149 l 135,-326 16,-37 -35,-16 c -61,-27 -120,-57 -178,-90 -57,-33 -112,-69 -166,-108 l -31,-23 -239,312 c -153,-117 -290,-254 -407,-407 z"
       id="path3782"
       inkscape:connector-curvature="0"
       style="fill:#000000" /><circle
       class="fil5"
       cy="11000"
       r="3898"
       id="circle3784"
       cx="0"
       style="fill:none" /><path
       class="fil3"
       d="m -1559,8775 c 131,-92 268,-171 411,-237 l 302,728 c -80,39 -158,84 -233,134 l -480,-625 z"
       id="path3786"
       inkscape:connector-curvature="0"
       style="fill:#ffffff" /><path
       class="fil3"
       d="m 2037,11844 -509,-211 c 163,-396 172,-851 0,-1266 l -182,75 c -24,-57 -52,-115 -84,-170 -33,-56 -68,-109 -106,-159 l 156,-120 C 1039,9637 640,9417 216,9361 l 72,-547 c 191,26 378,76 556,149 l -135,326 -16,37 35,16 c 61,27 120,57 178,90 57,33 112,69 166,108 l 31,23 239,-313 c 151,116 288,252 407,408 l 281,-216 c 67,88 130,180 186,278 57,99 106,199 148,301 l -327,135 c 75,181 125,368 149,556 l -350,46 -40,5 4,39 c 7,66 11,132 11,198 0,66 -4,132 -11,198 l -4,38 390,52 c -25,191 -75,378 -149,556 z"
       id="path3788"
       inkscape:connector-curvature="0"
       style="fill:#ffffff" /><path
       class="fil3"
       d="m -288,8814 72,547 c -424,56 -823,276 -1096,632 l 156,120 c -38,50 -73,103 -106,159 -32,55 -60,113 -84,170 l -182,-75 c -172,415 -163,870 0,1266 l -509,211 c -73,-178 -124,-365 -149,-556 l 350,-46 40,-5 -4,-39 c -7,-66 -11,-132 -11,-198 0,-66 4,-132 11,-198 l 4,-38 -390,-52 c 24,-188 74,-375 149,-556 l -327,-135 c 42,-102 91,-202 148,-301 56,-98 119,-190 186,-278 l 281,216 c 119,-156 256,-292 406,-408 l 216,281 24,32 31,-23 c 54,-39 109,-75 166,-108 58,-33 117,-63 178,-90 l 35,-16 -151,-363 c 178,-74 365,-124 556,-149 z"
       id="path3790"
       inkscape:connector-curvature="0"
       style="fill:#ffffff" /></g></svg>