<?xml version="1.0" encoding="UTF-8" standalone="no"?>
<!-- Creator: CorelDRAW X7 -->

<svg
   xmlns:dc="http://purl.org/dc/elements/1.1/"
   xmlns:cc="http://creativecommons.org/ns#"
   xmlns:rdf="http://www.w3.org/1999/02/22-rdf-syntax-ns#"
   xmlns:svg="http://www.w3.org/2000/svg"
   xmlns="http://www.w3.org/2000/svg"
   xmlns:sodipodi="http://sodipodi.sourceforge.net/DTD/sodipodi-0.dtd"
   xmlns:inkscape="http://www.inkscape.org/namespaces/inkscape"
   xml:space="preserve"
   width="7.8740005in"
   height="7.8740005in"
   version="1.1"
   style="clip-rule:evenodd;fill-rule:evenodd;image-rendering:optimizeQuality;shape-rendering:geometricPrecision;text-rendering:geometricPrecision"
   viewBox="0 0 7874.0005 7874.0005"
   id="svg4892"
   inkscape:version="0.91 r13725"
   sodipodi:docname="Nomads - Wildcats - [N3] [Vyo].svg"><metadata
     id="metadata4923"><rdf:RDF><cc:Work
         rdf:about=""><dc:format>image/svg+xml</dc:format><dc:type
           rdf:resource="http://purl.org/dc/dcmitype/StillImage" /></cc:Work></rdf:RDF></metadata><sodipodi:namedview
     pagecolor="#ffffff"
     bordercolor="#666666"
     borderopacity="1"
     objecttolerance="10"
     gridtolerance="10"
     guidetolerance="10"
     inkscape:pageopacity="0"
     inkscape:pageshadow="2"
     inkscape:window-width="640"
     inkscape:window-height="480"
     id="namedview4921"
     showgrid="false"
     inkscape:zoom="0.23838384"
     inkscape:cx="736.83001"
     inkscape:cy="849.33005"
     inkscape:window-x="0"
     inkscape:window-y="0"
     inkscape:window-maximized="0"
     inkscape:current-layer="svg4892" /><defs
     id="defs4894"><style
       type="text/css"
       id="style4896"><![CDATA[
    .fil0 {fill:black}
    .fil2 {fill:#FFA000}
    .fil1 {fill:white}
    .fil3 {fill:white;fill-rule:nonzero}
   ]]></style></defs><g
     id="Layer_x0020_1"
     transform="translate(3937,-7063)"><metadata
       id="CorelCorpID_0Corel-Layer" /><circle
       class="fil0"
       cy="11000"
       r="3937"
       id="circle4900"
       cx="0"
       style="fill:#000000" /><circle
       class="fil1"
       cy="11000"
       r="3780"
       id="circle4902"
       cx="0"
       style="fill:#ffffff" /><circle
       class="fil0"
       cy="11000"
       r="3406"
       id="circle4904"
       cx="0"
       style="fill:#000000" /><circle
       class="fil2"
       cy="11000"
       r="3268"
       id="circle4906"
       cx="0"
       style="fill:#ffa000" /><path
       class="fil3"
       d="m -2101,9718 -372,78 c -15,3 -29,1 -43,-5 -13,-7 -23,-15 -31,-26 -8,-12 -13,-25 -14,-39 -1,-15 2,-29 11,-42 l 245,-413 c 7,-9 12,-15 15,-17 7,-4 14,-7 22,-8 8,-1 15,0 22,1 8,2 14,5 21,10 6,5 12,10 16,17 6,8 10,18 11,28 1,11 -1,22 -8,32 l -213,342 375,-82 c 17,-4 33,-3 46,3 14,6 24,15 32,26 8,11 12,24 13,38 1,14 -2,27 -10,40 l -207,329 392,-85 c 12,-3 22,-2 32,3 10,5 18,12 24,20 4,7 7,13 9,21 2,8 3,16 2,23 -1,8 -2,15 -6,23 -3,7 -8,12 -15,17 -3,2 -7,4 -11,6 -3,1 -7,2 -10,2 l -471,89 c -17,3 -31,1 -44,-6 -14,-6 -24,-15 -32,-26 -8,-11 -12,-24 -13,-39 -2,-14 2,-28 10,-41 l 202,-319 z"
       id="path4908"
       inkscape:connector-curvature="0"
       style="fill:#ffffff;fill-rule:nonzero" /><path
       id="1"
       class="fil3"
       d="m -1983,10481 c -29,20 -55,13 -78,-19 -23,-34 -20,-60 9,-80 l 373,-262 c 29,-20 55,-13 79,20 23,32 19,59 -9,79 l -374,262 z"
       inkscape:connector-curvature="0"
       style="fill:#ffffff;fill-rule:nonzero" /><path
       id="2"
       class="fil3"
       d="m -1801,10827 c -99,-142 -107,-242 -24,-300 l 290,-203 c 28,-20 54,-13 78,20 22,33 20,59 -9,79 l -286,200 c -29,21 -18,67 33,141 l 172,244 c 19,28 14,52 -16,73 -27,19 -50,14 -69,-13 l -169,-241 z"
       inkscape:connector-curvature="0"
       style="fill:#ffffff;fill-rule:nonzero" /><path
       id="3"
       class="fil3"
       d="m -935,11365 c 27,-19 21,-56 -18,-112 l -179,-255 -284,198 179,255 c 39,56 74,73 105,52 l 197,-138 z m -132,239 c -85,60 -170,29 -254,-91 l -222,-318 c -18,-25 -14,-47 12,-65 l 376,-264 c 26,-18 48,-14 65,11 l 224,319 c 84,120 85,208 4,265 l -205,143 z"
       inkscape:connector-curvature="0"
       style="fill:#ffffff;fill-rule:nonzero" /><path
       id="4"
       class="fil3"
       d="m -621,11727 c -41,-58 -73,-79 -96,-63 l -206,145 c -29,20 -20,62 25,127 l 161,230 c 19,27 15,50 -14,70 -28,20 -52,16 -71,-11 l -167,-238 c -87,-125 -90,-216 -8,-274 l 215,-150 c 77,-54 158,-20 244,102 l 170,242 c 19,28 14,51 -14,71 -28,20 -52,16 -71,-11 l -168,-240 z"
       inkscape:connector-curvature="0"
       style="fill:#ffffff;fill-rule:nonzero" /><path
       id="5"
       class="fil3"
       d="m -425,12375 145,207 88,-215 -233,8 z m 96,313 -211,-302 -142,3 c -10,1 -19,-2 -27,-7 -8,-5 -14,-10 -19,-17 -4,-6 -7,-13 -9,-20 -2,-8 -2,-16 -2,-23 1,-8 3,-15 6,-22 4,-7 9,-12 16,-17 8,-6 18,-9 30,-9 l 529,-12 c 15,-1 28,2 40,8 12,6 21,15 28,25 8,10 12,22 14,35 2,13 0,27 -6,41 l -190,492 0,0 c -4,12 -11,21 -20,27 -7,5 -13,8 -21,9 -7,1 -15,0 -22,-2 -7,-2 -14,-5 -20,-9 -6,-4 -11,-10 -16,-16 -5,-8 -9,-16 -10,-25 -2,-8 0,-18 4,-29 l 48,-130 z"
       inkscape:connector-curvature="0"
       style="fill:#ffffff;fill-rule:nonzero" /><path
       id="6"
       class="fil3"
       d="m 204,12905 -328,230 c -29,20 -55,14 -78,-19 -23,-33 -20,-60 9,-80 l 327,-230 -107,-154 c -19,-27 -14,-51 15,-71 27,-20 51,-15 70,12 l 285,408 c 19,26 14,49 -13,68 -29,21 -53,18 -72,-9 l -108,-155 z"
       inkscape:connector-curvature="0"
       style="fill:#ffffff;fill-rule:nonzero" /><path
       id="7"
       class="fil3"
       d="m 454,13805 c -76,53 -155,22 -236,-94 L 24,13433 c -19,-27 -15,-51 14,-71 28,-20 52,-16 71,12 l 199,285 c 32,45 60,59 85,41 l 26,-18 c 28,-19 22,-57 -17,-113 l -89,-127 c -84,-120 -91,-205 -21,-254 l 43,-30 c 77,-54 153,-27 229,81 l 49,70 c 19,28 15,51 -14,72 -28,19 -52,15 -71,-12 l -55,-80 c -26,-36 -51,-44 -77,-26 l -19,13 c -24,17 -19,49 15,98 l 90,128 c 89,127 94,217 17,271 l -45,32 z"
       inkscape:connector-curvature="0"
       style="fill:#ffffff;fill-rule:nonzero" /><path
       class="fil0"
       d="m 0,7772 c 1783,0 3228,1445 3228,3228 0,1783 -1445,3228 -3228,3228 -1783,0 -3228,-1445 -3228,-3228 0,-1783 1445,-3228 3228,-3228 z m 0,137 c 1707,0 3091,1384 3091,3091 0,1707 -1384,3091 -3091,3091 -1707,0 -3091,-1384 -3091,-3091 0,-1707 1384,-3091 3091,-3091 z"
       id="path4917"
       inkscape:connector-curvature="0"
       style="fill:#000000" /><path
       class="fil0"
       d="m 79,10646 c 590,0 945,-512 1220,-1103 l 0,1142 -1023,1772 -2488,-3559 c 53,-55 107,-108 163,-159 1198,1567 1549,1907 2128,1907 z m 2519,0 c -590,0 -944,-512 -1220,-1103 l 0,1142 1024,1772 587,-841 c 41,-199 62,-405 62,-616 0,-149 -11,-295 -31,-438 -138,61 -272,84 -422,84 z"
       id="path4919"
       inkscape:connector-curvature="0"
       style="fill:#000000" /></g></svg>