<?xml version="1.0" encoding="UTF-8" standalone="no"?>
<!-- Creator: CorelDRAW X7 -->

<svg
   xmlns:dc="http://purl.org/dc/elements/1.1/"
   xmlns:cc="http://creativecommons.org/ns#"
   xmlns:rdf="http://www.w3.org/1999/02/22-rdf-syntax-ns#"
   xmlns:svg="http://www.w3.org/2000/svg"
   xmlns="http://www.w3.org/2000/svg"
   xmlns:sodipodi="http://sodipodi.sourceforge.net/DTD/sodipodi-0.dtd"
   xmlns:inkscape="http://www.inkscape.org/namespaces/inkscape"
   xml:space="preserve"
   width="7.8740005in"
   height="7.8740005in"
   version="1.1"
   style="clip-rule:evenodd;fill-rule:evenodd;image-rendering:optimizeQuality;shape-rendering:geometricPrecision;text-rendering:geometricPrecision"
   viewBox="0 0 7874.0005 7874.0005"
   id="svg4078"
   inkscape:version="0.91 r13725"
   sodipodi:docname="Nomads - Moran, Maasai Hunter - [N3] [Vyo].svg"><metadata
     id="metadata4124"><rdf:RDF><cc:Work
         rdf:about=""><dc:format>image/svg+xml</dc:format><dc:type
           rdf:resource="http://purl.org/dc/dcmitype/StillImage" /></cc:Work></rdf:RDF></metadata><sodipodi:namedview
     pagecolor="#ffffff"
     bordercolor="#666666"
     borderopacity="1"
     objecttolerance="10"
     gridtolerance="10"
     guidetolerance="10"
     inkscape:pageopacity="0"
     inkscape:pageshadow="2"
     inkscape:window-width="640"
     inkscape:window-height="480"
     id="namedview4122"
     showgrid="false"
     inkscape:zoom="0.23838384"
     inkscape:cx="736.83001"
     inkscape:cy="849.33005"
     inkscape:window-x="0"
     inkscape:window-y="0"
     inkscape:window-maximized="0"
     inkscape:current-layer="svg4078" /><defs
     id="defs4080"><style
       type="text/css"
       id="style4082"><![CDATA[
    .fil3 {fill:none}
    .fil0 {fill:black}
    .fil1 {fill:#FFA000}
    .fil2 {fill:white}
    .fil4 {fill:white;fill-rule:nonzero}
   ]]></style></defs><g
     id="Layer_x0020_1"
     transform="translate(3937,-7063)"><metadata
       id="CorelCorpID_0Corel-Layer" /><circle
       class="fil0"
       cy="11000"
       r="3937"
       id="circle4086"
       cx="0"
       style="fill:#000000" /><circle
       class="fil1"
       cy="11000"
       r="3740"
       id="circle4088"
       cx="0"
       style="fill:#ffa000" /><circle
       class="fil2"
       cy="11000"
       r="2638"
       id="circle4090"
       cx="0"
       style="fill:#ffffff" /><circle
       class="fil1"
       cy="11000"
       r="2480"
       id="circle4092"
       cx="0"
       style="fill:#ffa000" /><circle
       class="fil3"
       cy="11000"
       r="3898"
       id="circle4094"
       cx="0"
       style="fill:none" /><path
       class="fil4"
       d="m -3144,10664 c 27,1 40,16 40,46 0,29 -14,43 -40,43 l -233,-2 245,189 c 17,14 26,31 26,52 -1,22 -10,40 -27,53 l -248,188 232,2 c 27,0 40,15 40,44 0,31 -14,46 -41,46 l -333,-3 c -32,-1 -49,-17 -48,-49 0,-20 9,-36 26,-51 l 300,-231 -299,-232 c -15,-12 -22,-28 -22,-49 0,-33 17,-49 50,-49 l 332,3 z"
       id="path4096"
       inkscape:connector-curvature="0"
       style="fill:#ffffff;fill-rule:nonzero" /><path
       id="1"
       class="fil4"
       d="m -3288,10094 c -30,-7 -50,15 -61,65 l -30,136 c -12,54 -4,84 26,91 l 169,38 c 28,6 49,-18 61,-72 l 29,-132 c 12,-53 3,-82 -25,-89 l -169,-37 z m 193,-49 c 77,17 101,86 74,207 l -23,105 c -27,121 -78,173 -154,157 l -181,-41 c -76,-17 -101,-86 -74,-207 l 23,-105 c 27,-122 79,-174 155,-157 l 180,41 z"
       inkscape:connector-curvature="0"
       style="fill:#ffffff;fill-rule:nonzero" /><path
       id="2"
       class="fil4"
       d="m -3048,9458 c -23,-10 -46,8 -67,56 l -97,212 98,45 101,-221 c 19,-41 20,-66 3,-74 l -38,-18 z m 74,-64 c 66,30 76,95 31,194 l -27,57 141,-125 c 7,-6 15,-9 22,-10 8,-1 15,0 21,3 6,3 10,6 14,10 4,4 7,8 9,13 2,5 4,11 4,16 0,6 -1,11 -4,16 -2,6 -7,11 -12,15 l 0,0 -269,220 107,48 c 24,11 30,30 18,58 -13,27 -32,36 -56,25 l -314,-144 c -22,-10 -28,-26 -18,-47 l 116,-254 c 49,-107 109,-144 179,-112 l 38,17 z"
       inkscape:connector-curvature="0"
       style="fill:#ffffff;fill-rule:nonzero" /><path
       id="3"
       class="fil4"
       d="m -2754,9195 108,-157 -176,-5 68,162 z m 196,-151 -156,230 40,99 c 3,7 4,14 2,21 -1,7 -3,13 -7,18 -3,5 -7,9 -12,12 -5,3 -10,6 -15,8 -6,1 -12,2 -17,1 -6,-1 -11,-3 -17,-6 -6,-5 -11,-11 -15,-19 l -150,-370 c -4,-11 -6,-21 -5,-31 1,-10 5,-19 10,-27 5,-8 12,-14 21,-19 9,-5 19,-7 30,-7 l 399,2 0,0 c 10,0 18,2 25,7 5,3 9,8 11,13 3,5 5,10 5,15 1,6 1,12 -1,17 -1,6 -3,11 -7,16 -4,6 -9,10 -14,14 -6,3 -13,5 -22,5 l -105,1 z"
       inkscape:connector-curvature="0"
       style="fill:#ffffff;fill-rule:nonzero" /><path
       id="4"
       class="fil4"
       d="m -2002,8543 c 6,6 10,13 13,19 2,7 3,14 3,20 -1,7 -2,13 -5,19 -3,6 -7,11 -12,16 -5,4 -11,8 -17,11 -7,3 -14,5 -21,5 l -418,9 175,186 c 19,19 17,39 -5,60 -22,21 -42,21 -61,2 l -228,-241 c -6,-6 -10,-12 -12,-19 -2,-7 -3,-13 -3,-20 1,-6 3,-13 6,-19 3,-6 7,-11 12,-16 5,-5 11,-9 18,-12 7,-3 14,-4 22,-4 l 413,-11 -173,-183 c -19,-19 -17,-39 5,-60 22,-21 42,-21 60,-2 l 228,240 z"
       inkscape:connector-curvature="0"
       style="fill:#ffffff;fill-rule:nonzero" /><path
       id="5"
       class="fil4"
       d="m -1144,8037 c 13,23 6,42 -21,57 -25,14 -44,9 -57,-14 l -111,-205 -46,306 c -4,22 -15,38 -34,48 -19,11 -39,11 -59,2 l -284,-125 111,204 c 13,24 7,42 -19,56 -27,15 -46,10 -59,-13 l -160,-293 c -15,-29 -9,-51 19,-66 17,-9 36,-10 57,-2 l 348,150 57,-374 c 3,-19 13,-34 31,-43 29,-16 52,-10 67,20 l 160,292 z"
       inkscape:connector-curvature="0"
       style="fill:#ffffff;fill-rule:nonzero" /><path
       id="6"
       class="fil4"
       d="m -892,7826 186,-42 -125,-123 -61,165 z m 246,23 -271,62 -38,99 c -3,8 -7,13 -13,17 -5,4 -11,7 -17,9 -6,1 -11,1 -17,0 -6,-1 -11,-3 -17,-5 -5,-3 -9,-6 -13,-10 -3,-5 -6,-10 -7,-16 -2,-8 -1,-16 2,-24 l 142,-373 c 4,-10 9,-19 17,-25 8,-7 16,-11 25,-13 10,-2 19,-2 29,0 10,3 19,8 27,16 l 290,272 0,0 c 7,7 11,14 13,22 2,6 2,12 0,17 -1,5 -4,10 -7,15 -3,4 -7,8 -12,11 -5,4 -10,6 -16,7 -7,2 -14,2 -20,0 -7,-1 -13,-5 -19,-11 l -78,-70 z"
       inkscape:connector-curvature="0"
       style="fill:#ffffff;fill-rule:nonzero" /><path
       id="7"
       class="fil4"
       d="m -240,7713 191,-1 -95,-147 -96,148 z m 236,75 -279,1 -58,90 c -5,6 -10,11 -16,13 -7,3 -13,5 -19,5 -6,0 -11,-1 -17,-4 -5,-2 -10,-5 -15,-8 -4,-4 -8,-8 -11,-13 -2,-5 -4,-11 -4,-17 0,-8 3,-16 8,-23 l 220,-333 c 6,-10 13,-17 22,-22 9,-4 18,-7 28,-7 9,0 19,3 28,7 9,5 16,12 22,21 l 224,330 0,0 c 6,8 9,16 9,24 0,6 -1,12 -4,17 -3,4 -6,9 -10,13 -5,3 -9,6 -15,8 -5,2 -11,3 -17,3 -7,0 -13,-1 -19,-4 -6,-3 -12,-8 -17,-15 l -60,-86 z"
       inkscape:connector-curvature="0"
       style="fill:#ffffff;fill-rule:nonzero" /><path
       id="8"
       class="fil4"
       d="m 679,7848 c -9,69 -67,96 -173,82 l -253,-36 c -25,-3 -36,-19 -32,-45 3,-26 18,-37 43,-33 l 260,36 c 41,6 64,-2 67,-25 l 3,-24 c 4,-25 -20,-41 -72,-48 L 407,7738 C 296,7723 246,7683 255,7619 l 5,-39 c 10,-71 64,-100 163,-86 l 64,9 c 25,4 35,19 32,45 -4,26 -18,37 -43,34 l -73,-11 c -33,-4 -51,5 -54,29 l -2,18 c -4,21 17,36 61,42 l 118,16 c 116,16 169,60 159,130 l -6,42 z"
       inkscape:connector-curvature="0"
       style="fill:#ffffff;fill-rule:nonzero" /><path
       id="9"
       class="fil4"
       d="m 973,7852 181,61 -43,-170 -138,109 z m 199,148 -264,-89 -85,65 c -6,5 -12,8 -19,8 -7,1 -14,0 -19,-2 -6,-2 -10,-4 -15,-8 -5,-4 -8,-8 -11,-13 -4,-5 -6,-10 -6,-16 -1,-6 -1,-11 1,-17 3,-8 8,-14 15,-20 l 315,-244 c 9,-7 19,-11 29,-13 9,-1 19,0 28,3 9,3 17,8 24,15 7,7 12,16 15,27 l 105,385 0,-1 c 3,9 3,18 0,26 -2,6 -5,11 -9,15 -4,3 -9,6 -14,8 -5,2 -11,4 -16,4 -6,0 -12,-1 -17,-3 -7,-2 -13,-5 -17,-10 -5,-5 -9,-11 -11,-19 l -29,-101 z"
       inkscape:connector-curvature="0"
       style="fill:#ffffff;fill-rule:nonzero" /><path
       id="10"
       class="fil4"
       d="m 1451,8205 c -12,24 -32,29 -58,15 -27,-14 -35,-33 -22,-57 l 159,-305 c 12,-23 32,-28 60,-14 26,14 33,33 21,56 l -160,305 z"
       inkscape:connector-curvature="0"
       style="fill:#ffffff;fill-rule:nonzero" /><path
       id="11"
       class="fil4"
       d="m 2134,8676 c -17,20 -37,21 -61,2 -23,-18 -26,-38 -9,-59 l 82,-101 -244,-197 -82,101 c -17,21 -37,22 -61,2 -23,-19 -27,-38 -10,-59 l 216,-267 c 16,-21 37,-21 61,-2 23,19 26,39 10,59 l -85,104 244,198 84,-105 c 17,-20 37,-21 60,-3 23,19 27,39 10,60 l -215,267 z"
       inkscape:connector-curvature="0"
       style="fill:#ffffff;fill-rule:nonzero" /><path
       id="12"
       class="fil4"
       d="m 2623,9079 c -60,55 -137,31 -229,-71 l -57,-65 c -88,-98 -101,-174 -41,-228 l 193,-173 c 19,-17 39,-15 59,7 21,23 21,43 1,61 l -186,166 c -25,24 -17,59 27,107 l 69,78 c 48,53 85,68 110,45 l 186,-167 c 20,-17 40,-15 61,8 19,22 19,42 0,60 l -193,172 z"
       inkscape:connector-curvature="0"
       style="fill:#ffffff;fill-rule:nonzero" /><path
       id="13"
       class="fil4"
       d="m 2884,9675 c -8,4 -15,7 -22,8 -8,0 -14,0 -20,-2 -7,-2 -12,-5 -17,-10 -5,-4 -9,-9 -13,-14 -3,-6 -5,-13 -7,-20 -1,-7 -1,-15 1,-21 l 91,-410 -222,125 c -24,13 -42,7 -57,-19 -15,-27 -11,-46 13,-59 l 288,-163 c 7,-4 14,-6 21,-7 7,0 14,0 20,2 6,2 12,5 17,10 4,4 9,10 12,16 3,6 6,12 7,20 1,7 1,14 -1,22 l -87,405 219,-124 c 23,-13 42,-6 57,21 15,25 10,45 -13,58 l -287,162 z"
       inkscape:connector-curvature="0"
       style="fill:#ffffff;fill-rule:nonzero" /><path
       id="14"
       class="fil4"
       d="m 3280,9927 -288,90 c -26,8 -43,-3 -52,-31 -9,-29 -1,-47 25,-55 l 288,-90 -42,-135 c -8,-24 2,-40 28,-49 24,-7 40,1 48,25 l 111,358 c 7,24 -1,39 -26,47 -26,8 -43,0 -50,-23 l -42,-137 z"
       inkscape:connector-curvature="0"
       style="fill:#ffffff;fill-rule:nonzero" /><path
       id="15"
       class="fil4"
       d="m 3292,10322 54,318 c 4,24 -6,38 -32,42 -26,5 -41,-5 -45,-29 l -54,-318 -52,9 c -25,4 -33,31 -24,83 l 41,241 c 5,25 -6,39 -32,43 -26,5 -41,-5 -45,-30 l -42,-243 c -18,-110 8,-171 80,-183 l 195,-33 c 36,-6 66,3 89,28 24,25 40,66 50,122 l 11,67 c 4,24 -7,38 -33,43 -26,4 -40,-6 -44,-30 l -8,-45 c -12,-67 -30,-99 -54,-95 l -55,10 z"
       inkscape:connector-curvature="0"
       style="fill:#ffffff;fill-rule:nonzero" /><path
       id="16"
       class="fil4"
       d="m 3411,11223 c 25,0 38,-26 39,-78 l 2,-232 -109,-1 -2,242 c 0,46 9,68 28,69 l 42,0 z m -42,89 c -72,0 -107,-55 -106,-164 l 0,-63 -77,171 c -4,9 -9,15 -16,19 -7,3 -14,5 -21,5 -5,0 -11,-1 -16,-3 -5,-2 -10,-5 -14,-9 -4,-3 -7,-8 -9,-13 -3,-5 -4,-10 -4,-16 0,-6 2,-12 5,-19 l 0,1 156,-310 -117,-1 c -27,0 -40,-15 -40,-45 1,-31 14,-46 41,-46 l 345,3 c 23,1 35,12 35,36 l -3,280 c -1,117 -40,176 -117,175 l -42,-1 z"
       inkscape:connector-curvature="0"
       style="fill:#ffffff;fill-rule:nonzero" /><path
       class="fil2"
       d="m 0,9740 c 696,0 1260,564 1260,1260 0,26 -1,53 -3,79 l -2514,0 c -2,-26 -3,-53 -3,-79 0,-696 564,-1260 1260,-1260 z m 2018,2563 c -443,685 -1200,1099 -2018,1099 -818,0 -1575,-414 -2018,-1099 -16,-25 -17,-55 -3,-81 14,-26 40,-41 69,-41 l 1513,0 c -32,-12 -64,-25 -94,-39 l 1066,0 c -30,14 -62,27 -94,39 l 1513,0 c 29,0 55,15 69,41 14,26 13,56 -3,81 z m -798,-988 c -3,13 -7,26 -11,39 l -2418,0 c -4,-13 -8,-26 -11,-39 l 2440,0 z m -87,236 c -10,20 -20,40 -31,59 l -2204,0 c -11,-19 -21,-39 -31,-59 l 2266,0 z m -134,217 c -21,27 -43,53 -66,78 l -1866,0 c -23,-25 -45,-51 -66,-78 l 1998,0 z m -189,197 c -42,35 -87,68 -134,98 l -1352,0 c -47,-30 -92,-63 -134,-98 l 1620,0 z"
       id="path4114"
       inkscape:connector-curvature="0"
       style="fill:#ffffff" /><path
       class="fil0"
       d="m 1952,12260 c -414,639 -1134,1063 -1952,1063 -818,0 -1538,-424 -1952,-1063 l 3904,0 z"
       id="path4116"
       inkscape:connector-curvature="0"
       style="fill:#000000" /><circle
       class="fil3"
       cy="11000"
       r="3898"
       id="circle4118"
       cx="0"
       style="fill:none" /><path
       class="fil4"
       d="m -2742,12221 c -37,-72 -66,-102 -86,-92 l -172,91 c -24,13 -14,59 28,139 l 150,284 c 18,33 15,56 -9,69 -24,13 -45,2 -63,-31 l -156,-294 c -81,-154 -88,-249 -19,-285 l 181,-96 c 65,-35 137,24 217,174 l 158,299 c 18,33 15,57 -9,69 -24,13 -45,3 -63,-31 l -157,-296 z m 559,905 c 24,-20 10,-60 -41,-119 l -137,-159 c -55,-64 -94,-86 -117,-66 l -135,116 c -22,19 -6,61 49,125 l 133,155 c 53,61 91,83 114,63 l 134,-115 z m -49,223 c -61,53 -153,7 -276,-135 l -106,-124 c -123,-142 -154,-240 -93,-292 l 144,-124 c 62,-53 154,-8 276,135 l 107,123 c 122,143 153,241 92,293 l -144,124 z m 720,283 c 14,-21 -12,-53 -79,-95 l -297,-188 -60,93 310,196 c 59,37 93,47 104,31 l 22,-37 z m 93,109 c -40,63 -130,50 -269,-38 l -81,-51 179,204 c 8,11 13,21 15,30 1,9 0,16 -4,22 -3,5 -7,9 -13,12 -5,3 -12,5 -19,5 -7,1 -14,0 -21,-2 -8,-2 -16,-5 -23,-10 -8,-5 -16,-11 -22,-19 l 1,0 -314,-384 -64,101 c -15,24 -41,23 -80,-1 -39,-25 -51,-49 -36,-72 l 190,-301 c 13,-20 34,-21 64,-2 l 358,226 c 150,95 204,176 162,243 l -23,37 z m 654,208 c 9,-24 -24,-50 -98,-76 l -331,-119 -38,104 345,124 c 65,23 101,26 108,7 l 14,-40 z m 114,86 c -25,70 -115,77 -270,21 l -91,-32 219,161 c 11,8 18,17 21,25 4,8 4,16 1,23 -2,5 -5,10 -9,14 -5,4 -11,7 -17,9 -7,2 -14,3 -22,3 -8,0 -16,-2 -25,-4 -9,-4 -17,-9 -25,-15 l 1,1 -390,-307 -41,113 c -9,26 -35,31 -78,16 -43,-16 -60,-37 -51,-63 l 120,-335 c 8,-23 29,-28 62,-16 l 399,143 c 167,60 237,127 211,202 l -15,41 z m 206,30 487,37 c 37,3 54,18 52,45 -2,27 -21,39 -58,37 l -488,-37 -4,53 c -2,25 37,41 115,47 l 370,28 c 37,3 55,18 53,45 -2,27 -22,39 -59,36 l -374,-28 c -167,-13 -248,-57 -242,-132 l 15,-203 c 3,-38 27,-65 71,-81 45,-16 110,-21 197,-14 l 102,8 c 37,3 54,18 52,45 -2,27 -21,39 -58,36 l -70,-5 c -103,-8 -155,1 -157,26 l -4,57 z m 1391,51 c 12,75 -61,126 -220,153 l -234,40 c -172,29 -265,7 -278,-68 l -34,-202 c -13,-74 68,-126 241,-156 l 91,-15 c 37,-6 58,4 62,31 5,27 -11,43 -49,50 l -63,10 c -101,17 -150,38 -146,61 l 33,194 c 4,24 48,29 131,14 l 233,-39 c 68,-12 101,-28 98,-48 l -18,-104 c -5,-28 16,-45 60,-53 46,-7 71,3 75,30 l 18,102 z m 284,-45 c 10,25 -6,46 -48,63 -43,17 -70,13 -80,-12 l -131,-329 c -10,-25 7,-46 50,-64 42,-16 68,-12 78,13 l 131,329 z m 549,-609 c -14,-22 -53,-11 -119,31 l -301,195 146,226 300,-195 c 66,-43 91,-76 75,-101 l -101,-156 z m 219,85 c 44,68 -5,148 -147,239 l -373,242 c -29,19 -51,18 -64,-2 l -195,-301 c -13,-20 -5,-40 25,-59 l 374,-243 c 141,-91 232,-104 274,-40 l 106,164 z m 383,-651 c -24,-20 -61,-1 -112,59 l -137,158 c -55,64 -70,106 -47,126 l 134,116 c 23,19 62,-3 117,-66 l 133,-155 c 53,-62 69,-103 46,-122 l -134,-116 z m 228,16 c 61,52 30,150 -93,292 l -106,124 c -123,142 -215,187 -276,135 l -144,-125 c -61,-52 -30,-150 93,-292 l 106,-124 c 123,-142 215,-187 276,-134 l 144,124 z m 211,-757 c -23,-12 -52,17 -89,87 l -163,312 99,51 169,-324 c 32,-62 39,-97 22,-106 l -38,-20 z m 101,-101 c 65,35 60,125 -16,271 l -44,85 189,-195 c 10,-9 19,-15 28,-17 8,-2 16,-1 22,2 6,3 10,6 13,12 3,5 6,11 7,18 1,7 1,14 0,22 -1,8 -4,15 -8,23 -5,9 -10,17 -18,23 l 1,0 -358,344 107,56 c 24,13 26,39 5,79 -21,41 -44,55 -69,42 l -315,-164 c -22,-11 -24,-33 -8,-64 l 196,-375 c 82,-158 158,-218 229,-182 l 39,20 z"
       id="path4120"
       inkscape:connector-curvature="0"
       style="fill:#ffffff;fill-rule:nonzero" /></g></svg>