<?xml version="1.0" encoding="UTF-8" standalone="no"?>
<!-- Creator: CorelDRAW X7 -->

<svg
   xmlns:dc="http://purl.org/dc/elements/1.1/"
   xmlns:cc="http://creativecommons.org/ns#"
   xmlns:rdf="http://www.w3.org/1999/02/22-rdf-syntax-ns#"
   xmlns:svg="http://www.w3.org/2000/svg"
   xmlns="http://www.w3.org/2000/svg"
   xmlns:sodipodi="http://sodipodi.sourceforge.net/DTD/sodipodi-0.dtd"
   xmlns:inkscape="http://www.inkscape.org/namespaces/inkscape"
   xml:space="preserve"
   width="7.8740005in"
   height="7.8740005in"
   version="1.1"
   style="clip-rule:evenodd;fill-rule:evenodd;image-rendering:optimizeQuality;shape-rendering:geometricPrecision;text-rendering:geometricPrecision"
   viewBox="0 0 7874.0005 7874.0005"
   id="svg3356"
   inkscape:version="0.91 r13725"
   sodipodi:docname="Nomads - Bran do Castro, Triple Zero - [N3] [Vyo].svg"><metadata
     id="metadata3376"><rdf:RDF><cc:Work
         rdf:about=""><dc:format>image/svg+xml</dc:format><dc:type
           rdf:resource="http://purl.org/dc/dcmitype/StillImage" /></cc:Work></rdf:RDF></metadata><sodipodi:namedview
     pagecolor="#ffffff"
     bordercolor="#666666"
     borderopacity="1"
     objecttolerance="10"
     gridtolerance="10"
     guidetolerance="10"
     inkscape:pageopacity="0"
     inkscape:pageshadow="2"
     inkscape:window-width="640"
     inkscape:window-height="480"
     id="namedview3374"
     showgrid="false"
     inkscape:zoom="0.23838384"
     inkscape:cx="736.83001"
     inkscape:cy="849.33005"
     inkscape:window-x="0"
     inkscape:window-y="0"
     inkscape:window-maximized="0"
     inkscape:current-layer="svg3356" /><defs
     id="defs3358"><style
       type="text/css"
       id="style3360"><![CDATA[
    .fil1 {fill:none}
    .fil0 {fill:white}
    .fil3 {fill:black;fill-rule:nonzero}
    .fil2 {fill:#FFA000;fill-rule:nonzero}
   ]]></style></defs><g
     id="Layer_x0020_1"
     transform="translate(3937,-7063)"><metadata
       id="CorelCorpID_0Corel-Layer" /><path
       class="fil0"
       d="m 0,7260 c 862,0 1656,292 2289,782 l 669,669 c 490,633 782,1427 782,2289 0,2066 -1674,3740 -3740,3740 -862,0 -1656,-292 -2289,-782 l -669,-669 c -490,-633 -782,-1427 -782,-2289 0,-2066 1674,-3740 3740,-3740 z"
       id="path3364"
       inkscape:connector-curvature="0"
       style="fill:#ffffff" /><circle
       class="fil1"
       cy="11000"
       r="3898"
       id="circle3366"
       cx="0"
       style="fill:none" /><path
       class="fil2"
       d="m 0,9898 c 204,0 395,55 559,152 l -293,293 c -82,-33 -172,-52 -266,-52 -196,0 -373,80 -501,208 -128,128 -208,305 -208,501 0,94 19,184 52,266 l -293,293 c -97,-164 -152,-355 -152,-559 0,-304 123,-580 323,-779 199,-200 475,-323 779,-323 z m 950,543 c 97,164 152,355 152,559 0,304 -123,580 -323,779 -199,200 -475,323 -779,323 -204,0 -395,-55 -559,-152 l 293,-293 c 82,33 172,52 266,52 196,0 373,-80 501,-208 128,-128 208,-305 208,-501 0,-94 -19,-184 -52,-266 l 293,-293 z M 0,9150 c 411,0 791,134 1098,361 L 816,9793 C 583,9635 302,9543 0,9543 c -402,0 -766,163 -1030,427 -264,264 -427,628 -427,1030 0,302 92,583 250,816 l -282,282 c -227,-307 -361,-687 -361,-1098 0,-511 207,-974 542,-1308 334,-335 797,-542 1308,-542 z m 1489,752 c 227,307 361,687 361,1098 0,511 -207,974 -542,1308 -334,335 -797,542 -1308,542 -411,0 -791,-134 -1098,-361 l 282,-282 c 233,158 514,250 816,250 402,0 766,-163 1030,-427 264,-264 427,-628 427,-1030 0,-302 -92,-583 -250,-816 l 282,-282 z M 0,8402 c 618,0 1186,215 1632,576 l -281,280 C 978,8968 509,8795 0,8795 c -609,0 -1160,247 -1559,646 -399,399 -646,950 -646,1559 0,509 173,978 463,1351 l -280,281 c -361,-446 -576,-1014 -576,-1632 0,-718 290,-1367 761,-1837 470,-471 1119,-761 1837,-761 z m 2022,966 c 361,446 576,1014 576,1632 0,718 -290,1367 -761,1837 -470,471 -1119,761 -1837,761 -618,0 -1186,-215 -1632,-576 l 281,-280 c 373,290 842,463 1351,463 609,0 1160,-247 1559,-646 399,-399 646,-950 646,-1559 0,-509 -173,-978 -463,-1351 l 280,-281 z"
       id="path3368"
       inkscape:connector-curvature="0"
       style="fill:#ffa000;fill-rule:nonzero" /><path
       class="fil3"
       d="m 1062,8331 47,-140 -273,-93 c -60,-21 -96,-15 -107,17 l -14,42 c -11,34 11,60 68,79 l 279,95 z m 115,-327 -297,-100 c -57,-19 -90,-14 -100,15 l -14,41 c -12,34 17,62 87,86 l 277,94 47,-136 z m -516,100 c 13,-40 43,-60 89,-61 -45,-33 -60,-72 -45,-116 l 7,-21 c 24,-69 86,-87 186,-53 l 339,115 c 13,4 18,14 13,28 l -132,388 c -4,13 -13,17 -27,12 L 767,8287 C 666,8252 628,8199 653,8126 l 8,-22 z m -530,-41 c -6,39 28,64 102,74 l 289,39 22,-165 -300,-41 c -66,-9 -101,3 -105,35 l -8,58 z m -59,-61 c 10,-72 71,-100 185,-84 l 164,22 -267,-163 c -10,-8 -15,-16 -14,-26 2,-9 5,-16 12,-22 6,-6 13,-8 22,-7 4,0 9,2 13,6 l 364,234 21,-157 c 3,-19 15,-27 37,-24 23,4 33,15 31,34 l -55,402 c -2,14 -10,20 -25,18 L 236,8191 C 112,8174 55,8127 65,8051 l 7,-49 z m -165,-94 -274,20 152,207 122,-227 z m -315,-31 346,-27 67,-117 c 3,-5 7,-9 11,-12 5,-3 8,-4 12,-4 9,-1 18,1 26,6 7,5 11,12 12,22 1,5 -1,11 -4,17 l -229,409 c -4,8 -10,14 -18,18 -8,5 -16,8 -24,8 -17,2 -32,-5 -44,-20 l -290,-369 c -4,-2 -6,-5 -7,-8 -1,-3 -1,-6 -1,-8 -1,-9 2,-17 8,-23 7,-6 14,-9 23,-9 5,-1 10,0 15,2 5,2 10,5 14,9 l 83,106 z m -734,95 c -4,-15 -3,-27 2,-37 6,-9 14,-15 25,-18 4,-2 10,-2 16,-2 5,1 11,3 18,6 l 484,232 -95,-329 c -6,-18 2,-31 24,-37 21,-6 34,0 39,18 l 108,374 c 4,13 3,25 -3,33 -7,9 -15,14 -25,17 -6,2 -12,3 -18,3 -7,-1 -13,-3 -19,-6 l -479,-226 95,325 c 5,18 -4,30 -26,36 -20,6 -33,0 -38,-18 l -108,-371 z m -588,663 c 21,33 62,30 123,-10 l 251,-163 -189,-290 -249,162 c -62,40 -81,78 -58,114 l 122,187 z m -178,-150 c -43,-67 -15,-132 83,-195 l 290,-188 c 12,-8 22,-6 30,7 l 223,343 c 8,12 5,22 -7,30 l -290,188 c -98,63 -167,64 -207,2 l -122,-187 z m -253,518 c 32,34 74,25 128,-26 l 118,-111 c 56,-54 69,-97 38,-130 l -146,-154 c -30,-32 -73,-21 -130,33 l -115,108 c -55,53 -68,95 -38,126 l 145,154 z m -195,-108 c -54,-57 -33,-132 65,-224 l 91,-86 c 96,-91 172,-108 226,-51 l 149,158 c 54,57 32,131 -64,222 l -92,86 c -97,92 -172,109 -226,53 l -149,-158 z m -65,565 c 38,-65 41,-107 10,-125 l -200,-114 c -36,-20 -75,6 -116,78 l -123,216 c -8,14 -20,17 -35,8 -16,-9 -20,-21 -12,-35 l 128,-224 c 60,-106 123,-140 188,-102 l 203,116 c 61,35 63,104 4,207 l -130,227 c -8,15 -20,17 -35,9 -15,-9 -19,-21 -11,-35 l 129,-226 z m -425,334 -98,256 251,-48 -153,-208 z m -162,271 124,-324 -78,-110 c -3,-5 -5,-10 -6,-15 0,-6 0,-10 1,-13 3,-9 9,-16 17,-20 8,-5 16,-6 25,-2 5,2 10,5 14,11 l 271,381 c 6,8 9,16 9,25 1,9 0,17 -3,25 -6,16 -18,26 -37,31 l -457,105 c -4,2 -7,2 -11,2 -3,-1 -5,-1 -7,-2 -9,-3 -15,-9 -17,-18 -3,-8 -2,-16 1,-25 1,-4 4,-8 8,-12 4,-4 9,-7 15,-9 l 131,-30 z m -151,659 c -69,-11 -94,-73 -75,-185 l 50,-297 c 2,-16 13,-22 32,-19 17,2 24,12 21,28 l -52,306 c -10,61 3,95 38,101 l 38,6 c 39,7 65,-26 77,-99 l 23,-135 c 20,-117 61,-169 123,-159 l 45,8 c 70,11 96,68 79,170 l -13,74 c -2,17 -13,24 -30,21 -17,-3 -24,-13 -22,-30 l 15,-84 c 8,-51 -7,-79 -45,-86 l -34,-5 c -32,-6 -53,24 -64,89 l -23,137 c -11,62 -27,107 -49,135 -23,27 -52,38 -87,32 l -47,-8 z m 295,217 -375,-5 c -19,-1 -28,-12 -28,-35 0,-22 10,-33 29,-33 l 375,6 3,-187 c 0,-17 9,-25 28,-25 16,1 25,9 24,26 l -7,440 c 0,17 -8,25 -25,24 -18,0 -27,-8 -27,-25 l 3,-186 z m 0,701 c 39,-5 54,-44 44,-118 l -40,-289 -165,23 41,300 c 9,66 30,97 62,92 l 58,-8 z m -43,74 c -72,9 -116,-43 -131,-156 l -23,-165 -85,301 c -5,13 -12,20 -21,21 -9,1 -17,-1 -24,-5 -8,-4 -12,-11 -13,-20 -1,-4 0,-9 2,-13 l 128,-414 -157,21 c -19,3 -30,-7 -33,-29 -3,-23 5,-36 24,-38 l 403,-55 c 13,-2 21,4 23,19 l 44,324 c 17,124 -12,191 -88,202 l -49,7 z m 203,467 c 44,-14 54,-56 32,-126 l -49,-155 c -24,-74 -58,-105 -101,-91 l -202,64 c -42,14 -51,58 -27,132 l 48,151 c 23,72 55,102 97,89 l 202,-64 z m -182,128 c -76,24 -134,-27 -174,-155 l -38,-119 c -40,-127 -23,-202 52,-226 l 207,-66 c 75,-24 132,28 172,155 l 38,119 c 41,128 24,203 -51,227 l -206,65 z m 218,274 c -10,-15 -8,-27 5,-36 15,-9 27,-7 37,8 l 130,201 c 8,13 5,24 -8,33 -15,9 -26,7 -34,-6 l -130,-200 z m 547,352 -102,107 209,198 c 47,44 81,54 104,30 l 32,-33 c 24,-26 14,-59 -29,-100 l -214,-202 z m -241,248 227,215 c 44,42 77,51 98,29 l 30,-32 c 24,-26 10,-64 -44,-115 l -212,-201 -99,104 z m 511,125 c -29,31 -65,37 -108,18 28,49 25,90 -6,124 l -16,17 c -50,53 -114,43 -191,-30 l -260,-245 c -10,-10 -10,-21 0,-32 l 281,-297 c 10,-10 20,-10 30,0 l 249,235 c 77,73 89,137 37,193 l -16,17 z m 75,220 232,146 1,-256 -233,110 z m 234,212 -294,-185 -123,54 c -6,3 -11,3 -16,3 -5,0 -9,-1 -12,-3 -8,-5 -14,-12 -17,-20 -3,-9 -2,-18 3,-26 3,-4 7,-8 13,-11 l 428,-192 c 8,-4 16,-5 25,-4 9,1 17,4 24,8 15,9 23,23 23,42 l 14,470 c 1,4 1,7 0,10 -1,3 -2,6 -3,7 -5,8 -12,13 -21,14 -8,0 -17,-2 -24,-6 -4,-3 -7,-6 -10,-11 -4,-4 -5,-10 -6,-16 l -4,-134 z m 327,42 249,287 c 4,5 6,10 7,16 1,5 1,9 0,13 -3,8 -8,13 -16,17 -7,4 -15,4 -23,1 -4,-1 -9,-5 -13,-11 l -265,-310 -62,161 c -7,18 -21,23 -41,15 -21,-8 -28,-21 -21,-39 l 145,-376 c 6,-18 20,-22 41,-14 20,7 27,20 20,37 l -60,156 388,-55 c 7,0 13,0 18,2 9,3 15,9 18,17 4,8 4,15 2,22 -2,4 -4,7 -8,10 -3,3 -8,5 -15,6 l -364,45 z m 877,344 c -14,82 -94,111 -241,86 l -101,-17 c -138,-23 -200,-76 -187,-158 l 51,-300 c 3,-18 15,-25 37,-22 22,4 32,15 29,34 l -49,294 c -9,50 31,82 118,97 l 122,21 c 96,16 148,-1 156,-51 l 50,-295 c 3,-18 15,-25 37,-22 22,4 31,15 28,33 l -50,300 z m 630,91 c 1,15 -3,27 -11,34 -8,8 -18,12 -29,12 -5,0 -10,-1 -15,-3 -6,-2 -11,-5 -16,-10 l -406,-352 5,343 c 0,19 -11,28 -33,29 -22,0 -33,-9 -33,-28 l -6,-389 c 0,-14 4,-25 13,-31 8,-7 18,-10 28,-10 6,0 12,1 18,2 6,2 12,6 17,11 l 402,344 -6,-338 c 0,-18 12,-28 35,-28 21,-1 31,9 31,27 l 6,387 z m 188,-14 c 2,18 -8,29 -30,32 -23,3 -35,-4 -38,-23 l -54,-399 c -3,-19 7,-30 31,-33 21,-3 33,5 36,23 l 55,400 z m 633,-170 c 5,15 4,27 -2,36 -5,9 -13,16 -24,19 -5,1 -10,2 -16,1 -6,0 -12,-2 -18,-5 l -485,-232 96,329 c 5,18 -3,30 -24,36 -21,7 -34,0 -39,-18 l -109,-373 c -4,-14 -2,-25 4,-34 7,-8 15,-14 25,-17 6,-2 12,-2 18,-2 6,0 13,2 19,5 l 478,226 -94,-324 c -5,-18 3,-30 26,-37 20,-5 32,1 37,18 l 108,372 z m 282,-261 c -15,9 -27,6 -35,-8 -8,-15 -5,-27 11,-35 l 208,-117 c 14,-8 24,-5 32,10 9,14 6,26 -8,33 l -208,117 z m 525,-643 244,284 c 13,15 10,29 -7,44 -17,15 -31,15 -44,0 l -244,-284 -142,121 c -12,11 -25,10 -37,-4 -11,-13 -10,-24 3,-35 l 334,-287 c 12,-11 24,-10 35,2 12,15 12,27 -1,38 l -141,121 z m 501,-472 c -31,-25 -70,-8 -116,49 l -183,228 130,104 190,-237 c 42,-51 50,-87 25,-107 l -46,-37 z m 83,-19 c 56,45 48,113 -23,202 l -104,129 277,-145 c 12,-5 22,-4 29,2 7,5 11,12 13,21 2,8 1,16 -5,23 -3,3 -7,6 -11,7 l -389,192 123,99 c 15,12 16,27 2,44 -14,18 -29,21 -44,9 l -317,-254 c -11,-9 -12,-19 -2,-30 l 204,-256 c 79,-97 148,-122 208,-74 l 39,31 z m 286,10 c 16,9 19,24 8,44 -12,19 -25,24 -41,15 l -351,-200 c -16,-9 -18,-24 -7,-44 11,-19 25,-24 41,-15 l 350,200 z m -26,-667 c -32,-15 -63,10 -93,74 l -126,274 162,74 124,-270 c 31,-67 30,-107 -4,-123 l -63,-29 z m 94,-30 c 65,30 72,101 20,212 l -121,264 129,59 c 17,8 21,22 11,43 -9,20 -22,26 -40,18 l -369,-169 c -13,-6 -16,-16 -10,-29 l 141,-307 c 51,-110 107,-152 168,-124 l 71,33 z m 321,-187 c -31,136 -85,196 -161,178 l -304,-69 c -18,-4 -25,-17 -20,-39 5,-22 17,-31 35,-26 l 304,69 c 41,9 72,-32 92,-122 l 59,-258 c 4,-16 15,-22 33,-18 17,4 23,14 20,30 l -58,255 z m -179,-430 30,-398 c 1,-15 11,-23 29,-21 18,1 27,10 25,25 l -30,398 85,6 c 39,3 61,-32 66,-105 l 22,-288 c 2,-17 11,-25 28,-23 19,1 27,10 26,27 l -22,290 c -9,117 -49,173 -122,167 l -232,-17 c -74,-6 -106,-69 -97,-190 l 6,-79 c 1,-16 11,-23 29,-22 17,2 25,10 24,26 l -4,53 c -7,93 9,141 48,144 l 89,7 z m -222,-1062 82,357 c 4,16 -4,26 -22,30 -16,4 -26,-2 -29,-18 l -97,-419 c -2,-10 -1,-18 4,-25 6,-7 12,-12 21,-14 3,0 7,0 11,0 4,1 8,3 11,6 l 425,306 -85,-370 c -4,-16 3,-26 20,-30 18,-4 29,2 32,18 l 97,418 c 3,12 1,22 -5,31 -6,9 -13,15 -22,17 -9,2 -18,0 -27,-6 l -416,-301 z m 87,-239 -148,-370 c -6,-14 0,-25 17,-32 17,-6 28,-3 34,12 l 148,370 79,-32 c 36,-14 40,-55 13,-123 l -107,-268 c -6,-16 -1,-27 15,-34 17,-6 29,-2 35,14 l 108,269 c 44,109 32,177 -36,204 l -216,87 c -68,27 -125,-15 -170,-128 l -30,-73 c -6,-15 0,-26 16,-32 16,-7 27,-3 33,12 l 20,49 c 34,87 70,123 106,108 l 83,-33 z m -515,-792 c -33,21 -30,63 11,126 l 158,244 140,-91 -165,-254 c -36,-56 -68,-75 -95,-57 l -49,32 z m 8,-85 c 61,-39 122,-11 185,85 l 90,140 -51,-309 c -1,-13 2,-22 11,-28 7,-4 15,-6 23,-5 9,0 16,4 21,12 2,4 3,8 4,13 l 59,429 134,-86 c 16,-10 30,-6 42,12 12,20 11,35 -5,45 l -342,221 c -11,8 -21,6 -29,-7 l -178,-274 c -68,-105 -70,-179 -6,-221 l 42,-27 z m -376,-337 c -34,31 -25,74 26,128 l 111,117 c 54,57 97,70 130,38 l 155,-145 c 31,-30 20,-73 -33,-130 l -109,-115 c -52,-56 -95,-69 -126,-39 l -154,146 z m 108,-195 c 58,-54 132,-33 224,64 l 86,91 c 91,97 108,172 51,226 l -158,150 c -57,53 -131,32 -222,-65 l -86,-91 c -92,-97 -109,-173 -52,-226 l 157,-149 z m -306,-169 c 15,10 19,21 10,35 -9,14 -22,17 -37,7 l -200,-129 c -13,-8 -16,-19 -7,-33 9,-14 21,-17 34,-9 l 200,129 z"
       id="path3370"
       inkscape:connector-curvature="0"
       style="fill:#000000;fill-rule:nonzero" /><path
       class="fil2"
       d="m 0,7063 c 1087,0 2071,441 2784,1153 712,713 1153,1697 1153,2784 0,1087 -441,2071 -1153,2784 -713,712 -1697,1153 -2784,1153 -1087,0 -2071,-441 -2784,-1153 -712,-713 -1153,-1697 -1153,-2784 0,-1087 441,-2071 1153,-2784 C -2071,7504 -1087,7063 0,7063 Z M 2506,8494 C 1864,7853 978,7457 0,7457 c -978,0 -1864,396 -2506,1037 -641,642 -1037,1528 -1037,2506 0,978 396,1864 1037,2506 642,641 1528,1037 2506,1037 978,0 1864,-396 2506,-1037 641,-642 1037,-1528 1037,-2506 0,-978 -396,-1864 -1037,-2506 z"
       id="path3372"
       inkscape:connector-curvature="0"
       style="fill:#ffa000;fill-rule:nonzero" /></g></svg>