<?xml version="1.0" encoding="UTF-8" standalone="no"?>
<!-- Creator: CorelDRAW X7 -->

<svg
   xmlns:dc="http://purl.org/dc/elements/1.1/"
   xmlns:cc="http://creativecommons.org/ns#"
   xmlns:rdf="http://www.w3.org/1999/02/22-rdf-syntax-ns#"
   xmlns:svg="http://www.w3.org/2000/svg"
   xmlns="http://www.w3.org/2000/svg"
   xmlns:sodipodi="http://sodipodi.sourceforge.net/DTD/sodipodi-0.dtd"
   xmlns:inkscape="http://www.inkscape.org/namespaces/inkscape"
   xml:space="preserve"
   width="7.8740005in"
   height="7.8740005in"
   version="1.1"
   style="clip-rule:evenodd;fill-rule:evenodd;image-rendering:optimizeQuality;shape-rendering:geometricPrecision;text-rendering:geometricPrecision"
   viewBox="0 0 7874.0005 7874.0005"
   id="svg4597"
   inkscape:version="0.91 r13725"
   sodipodi:docname="Nomads - Szalamandra Squad - [N3] [Vyo].svg"><metadata
     id="metadata4645"><rdf:RDF><cc:Work
         rdf:about=""><dc:format>image/svg+xml</dc:format><dc:type
           rdf:resource="http://purl.org/dc/dcmitype/StillImage" /></cc:Work></rdf:RDF></metadata><sodipodi:namedview
     pagecolor="#ffffff"
     bordercolor="#666666"
     borderopacity="1"
     objecttolerance="10"
     gridtolerance="10"
     guidetolerance="10"
     inkscape:pageopacity="0"
     inkscape:pageshadow="2"
     inkscape:window-width="640"
     inkscape:window-height="480"
     id="namedview4643"
     showgrid="false"
     inkscape:zoom="0.23838384"
     inkscape:cx="736.83001"
     inkscape:cy="849.33005"
     inkscape:window-x="0"
     inkscape:window-y="0"
     inkscape:window-maximized="0"
     inkscape:current-layer="svg4597" /><defs
     id="defs4599"><style
       type="text/css"
       id="style4601"><![CDATA[
    .fil2 {fill:none}
    .fil1 {fill:black}
    .fil0 {fill:#FFA000}
    .fil4 {fill:white}
    .fil3 {fill:white;fill-rule:nonzero}
   ]]></style></defs><g
     id="Layer_x0020_1"
     transform="translate(3937,-7063)"><metadata
       id="CorelCorpID_0Corel-Layer" /><circle
       class="fil0"
       cy="11000"
       r="3937"
       id="circle4605"
       cx="0"
       style="fill:#ffa000" /><circle
       class="fil1"
       cy="11000"
       r="3740"
       id="circle4607"
       cx="0"
       style="fill:#000000" /><ellipse
       class="fil2"
       transform="matrix(0.140299,-1.60363,2.07628,0.181651,6.41737e-5,11000)"
       rx="2421"
       ry="1870"
       id="ellipse4609"
       cx="0"
       cy="0"
       style="fill:none" /><path
       class="fil3"
       d="m -769,14423 75,-348 c 6,-30 27,-42 62,-34 35,7 49,26 42,57 l -74,347 163,35 c 29,6 40,25 33,56 -6,30 -24,42 -53,35 l -432,-93 c -28,-6 -39,-23 -33,-53 7,-31 25,-44 53,-38 l 164,36 z"
       id="path4611"
       inkscape:connector-curvature="0"
       style="fill:#ffffff;fill-rule:nonzero" /><path
       id="1"
       class="fil3"
       d="m -1561,13873 c 38,-88 131,-100 280,-37 l 94,40 c 142,61 194,135 156,223 l -120,280 c -12,29 -34,36 -67,22 -32,-14 -43,-35 -31,-64 l 116,-271 c 16,-38 -11,-71 -81,-101 l -114,-49 c -77,-32 -123,-30 -140,7 l -115,271 c -12,29 -35,36 -68,22 -32,-13 -41,-34 -29,-63 l 119,-280 z"
       inkscape:connector-curvature="0"
       style="fill:#ffffff;fill-rule:nonzero" /><path
       id="2"
       class="fil3"
       d="m -2120,13361 c 6,-8 13,-14 21,-18 7,-4 15,-7 22,-7 8,-1 16,0 23,2 7,2 14,6 20,10 7,6 12,12 17,19 5,7 8,15 9,24 l 86,484 184,-237 c 19,-25 43,-27 71,-5 28,22 32,45 13,70 l -239,309 c -6,7 -13,13 -20,17 -7,3 -15,6 -23,6 -7,1 -15,0 -22,-3 -8,-2 -15,-6 -21,-11 -7,-5 -12,-11 -17,-19 -5,-7 -8,-15 -9,-24 l -88,-479 -181,234 c -19,25 -43,26 -71,4 -28,-21 -32,-44 -13,-69 l 238,-307 z"
       inkscape:connector-curvature="0"
       style="fill:#ffffff;fill-rule:nonzero" /><path
       id="3"
       class="fil3"
       d="m -2657,12858 c 67,-55 140,-33 219,64 l 117,143 c 85,106 94,186 27,240 l -182,148 c -66,54 -143,28 -229,-78 l -45,-56 c -18,-23 -16,-44 9,-63 23,-20 44,-18 63,5 l 32,39 c 50,62 85,84 106,67 l 176,-142 c 21,-18 12,-52 -30,-103 l -115,-142 c -34,-42 -61,-55 -79,-40 l -94,75 c -24,20 -48,16 -70,-11 -22,-28 -22,-51 3,-71 l 92,-75 z"
       inkscape:connector-curvature="0"
       style="fill:#ffffff;fill-rule:nonzero" /><path
       id="4"
       class="fil3"
       d="m -3029,12242 c 84,-47 165,1 243,143 l 50,89 c 74,135 69,226 -15,272 l -266,147 c -28,15 -50,7 -67,-24 -17,-32 -12,-55 15,-70 l 258,-142 c 36,-20 35,-63 -2,-130 l -59,-108 c -41,-74 -79,-101 -115,-81 l -258,142 c -27,15 -49,7 -67,-24 -16,-30 -11,-52 17,-67 l 266,-147 z"
       inkscape:connector-curvature="0"
       style="fill:#ffffff;fill-rule:nonzero" /><path
       id="5"
       class="fil3"
       d="m -3193,11569 c 80,-21 136,29 168,150 l 78,291 c 8,28 -3,47 -34,55 -29,8 -48,-3 -56,-31 l -80,-298 c -12,-48 -32,-68 -57,-61 l -28,7 c -28,8 -35,41 -19,100 l 35,132 c 34,127 14,200 -59,219 l -46,12 c -81,22 -136,-23 -167,-135 l -19,-74 c -8,-28 3,-47 34,-55 29,-8 48,2 56,31 l 22,83 c 10,38 29,53 56,46 l 20,-6 c 25,-6 31,-35 17,-86 l -36,-135 c -36,-133 -13,-211 68,-232 l 47,-13 z"
       inkscape:connector-curvature="0"
       style="fill:#ffffff;fill-rule:nonzero" /><path
       id="6"
       class="fil3"
       d="m -3350,11250 155,-313 c 4,-9 10,-16 17,-21 8,-4 15,-6 23,-6 6,0 12,0 18,3 6,2 12,5 16,9 5,5 9,10 12,15 3,6 5,12 5,19 0,4 0,8 -1,13 -1,4 -3,9 -5,13 l -178,335 145,-3 c 31,-1 47,16 48,50 1,36 -14,54 -46,54 l -403,9 c -31,1 -47,-16 -48,-52 0,-34 15,-51 46,-52 l 139,-3 -187,-310 c -6,-8 -8,-17 -9,-27 0,-7 1,-14 4,-21 3,-6 7,-12 11,-17 5,-4 11,-8 17,-11 6,-3 12,-4 18,-5 8,0 15,2 21,6 7,4 13,11 18,20 l 164,295 z"
       inkscape:connector-curvature="0"
       style="fill:#ffffff;fill-rule:nonzero" /><path
       id="7"
       class="fil3"
       d="m -3295,10574 38,-221 -190,80 152,141 z m 135,-257 -55,323 92,86 c 6,6 11,13 12,21 2,8 3,16 2,23 -2,6 -4,13 -8,19 -3,6 -7,11 -13,15 -5,5 -11,8 -17,10 -6,2 -13,2 -20,1 -9,-1 -17,-6 -25,-13 l -340,-323 c -10,-9 -17,-19 -20,-30 -4,-11 -5,-22 -3,-34 2,-11 7,-21 14,-30 7,-10 16,-17 29,-22 l 427,-192 -1,0 c 11,-5 21,-7 30,-5 7,1 13,4 18,8 6,4 10,9 13,14 4,6 6,12 7,19 2,6 2,13 1,20 -2,8 -5,16 -10,22 -4,6 -11,12 -20,16 l -113,52 z"
       inkscape:connector-curvature="0"
       style="fill:#ffffff;fill-rule:nonzero" /><path
       id="8"
       class="fil3"
       d="m -2766,9308 c 73,38 81,113 24,225 l -137,268 c -14,26 -34,32 -62,18 -27,-14 -34,-34 -21,-60 l 141,-275 c 23,-44 22,-72 -2,-84 l -25,-13 c -27,-14 -54,7 -82,61 l -62,122 c -60,116 -124,157 -192,122 l -41,-21 c -75,-38 -86,-109 -33,-213 l 35,-68 c 14,-26 34,-32 62,-18 27,14 34,34 20,60 l -39,77 c -18,35 -14,59 11,72 l 19,9 c 23,12 46,-6 71,-53 l 63,-124 c 63,-123 132,-165 206,-127 l 44,22 z"
       inkscape:connector-curvature="0"
       style="fill:#ffffff;fill-rule:nonzero" /><path
       id="9"
       class="fil3"
       d="m -2698,8755 -194,249 c -18,23 -40,25 -65,6 -23,-19 -26,-39 -8,-62 l 265,-340 c 4,-6 10,-11 16,-14 6,-3 13,-5 19,-5 7,-1 14,0 20,2 6,2 12,5 17,9 12,9 18,21 19,35 l 26,473 203,-260 c 18,-23 39,-25 63,-6 25,19 28,40 10,63 l -263,338 c -6,7 -12,13 -19,17 -8,4 -15,6 -23,8 -7,1 -14,0 -22,-2 -7,-2 -13,-5 -19,-9 -12,-9 -18,-23 -19,-40 l -26,-462 z"
       inkscape:connector-curvature="0"
       style="fill:#ffffff;fill-rule:nonzero" /><path
       id="10"
       class="fil3"
       d="m -2202,8510 174,-141 -196,-65 22,206 z m 272,-104 -255,207 13,125 c 0,10 -1,18 -5,25 -4,7 -8,13 -14,18 -5,4 -11,7 -18,9 -6,2 -13,3 -20,3 -7,0 -13,-1 -19,-4 -6,-2 -12,-7 -16,-12 -6,-7 -9,-16 -11,-27 l -43,-468 c -2,-14 0,-26 5,-36 4,-11 11,-20 20,-27 8,-7 19,-12 30,-14 12,-3 24,-2 36,2 l 449,138 0,0 c 11,3 19,8 26,16 4,6 7,12 8,18 2,7 2,13 0,20 -1,6 -3,12 -7,18 -3,6 -7,11 -13,15 -6,6 -13,9 -21,11 -7,2 -16,1 -26,-2 l -119,-35 z"
       inkscape:connector-curvature="0"
       style="fill:#ffffff;fill-rule:nonzero" /><path
       id="11"
       class="fil3"
       d="m -1471,8259 c -135,74 -224,72 -267,-7 l -151,-275 c -15,-27 -7,-49 24,-66 32,-18 55,-13 70,15 l 149,270 c 15,28 57,23 127,-16 l 232,-128 c 27,-14 47,-8 63,21 14,25 8,45 -18,60 l -229,126 z"
       inkscape:connector-curvature="0"
       style="fill:#ffffff;fill-rule:nonzero" /><path
       id="12"
       class="fil3"
       d="m -986,7822 217,-58 -153,-139 -64,197 z m 291,15 -317,85 -40,120 c -3,9 -7,15 -14,21 -6,5 -13,8 -20,10 -6,2 -13,2 -20,1 -7,0 -13,-2 -19,-5 -7,-3 -12,-7 -16,-12 -5,-5 -8,-11 -10,-18 -2,-8 -2,-18 1,-28 l 151,-444 c 4,-13 11,-23 19,-31 9,-8 19,-13 30,-16 10,-3 22,-3 33,-1 12,3 22,8 32,17 l 353,308 0,0 c 9,7 14,15 17,25 2,7 2,13 1,20 -2,6 -4,12 -8,17 -4,6 -9,11 -14,15 -6,4 -12,6 -18,8 -8,2 -16,3 -24,1 -8,-1 -15,-5 -23,-12 l -94,-81 z"
       inkscape:connector-curvature="0"
       style="fill:#ffffff;fill-rule:nonzero" /><path
       id="13"
       class="fil3"
       d="m 379,7850 c -1,31 -19,46 -54,46 -34,0 -51,-16 -51,-48 l 4,-273 -223,287 c -17,20 -37,30 -62,30 -26,0 -47,-11 -62,-32 l -220,-292 -3,273 c -1,32 -18,47 -53,47 -36,-1 -53,-17 -53,-48 l 5,-392 c 0,-39 20,-57 58,-57 22,0 42,11 59,31 l 270,354 275,-350 c 14,-18 33,-27 57,-27 39,1 58,21 58,59 l -5,392 z"
       inkscape:connector-curvature="0"
       style="fill:#ffffff;fill-rule:nonzero" /><path
       id="14"
       class="fil3"
       d="m 746,7759 217,57 -63,-196 -154,139 z m 246,157 -318,-84 -94,84 c -6,6 -14,10 -22,11 -8,1 -16,1 -23,-1 -6,-1 -12,-4 -18,-8 -5,-4 -10,-9 -14,-15 -4,-5 -7,-11 -8,-18 -2,-6 -2,-13 0,-20 3,-9 8,-17 16,-24 l 351,-311 c 10,-9 20,-15 32,-17 11,-3 22,-3 33,0 11,3 21,9 30,16 8,8 15,19 19,31 l 154,442 0,0 c 4,10 5,21 2,30 -1,7 -4,13 -9,18 -4,5 -10,8 -16,11 -5,3 -12,5 -19,6 -6,0 -13,0 -20,-2 -8,-2 -15,-6 -21,-11 -6,-5 -10,-12 -14,-22 l -41,-116 z"
       inkscape:connector-curvature="0"
       style="fill:#ffffff;fill-rule:nonzero" /><path
       id="15"
       class="fil3"
       d="m 1755,8343 c -5,10 -11,17 -17,22 -7,5 -14,9 -22,11 -7,1 -15,2 -22,1 -8,-2 -15,-4 -21,-7 -7,-5 -14,-10 -19,-16 -6,-7 -10,-14 -13,-22 l -162,-467 -146,261 c -15,28 -38,33 -68,16 -31,-17 -39,-39 -23,-66 l 189,-341 c 5,-9 11,-15 17,-20 7,-5 14,-8 21,-10 8,-2 15,-2 23,-1 8,2 15,4 22,8 7,4 14,9 19,16 6,7 10,14 13,22 l 162,462 144,-258 c 15,-27 38,-32 69,-15 30,17 38,39 23,66 l -189,338 z"
       inkscape:connector-curvature="0"
       style="fill:#ffffff;fill-rule:nonzero" /><path
       id="16"
       class="fil3"
       d="m 2438,8528 c 20,-22 8,-53 -37,-93 l -204,-187 -208,228 204,186 c 45,41 79,49 101,24 l 144,-158 z m -68,234 c -62,68 -141,58 -238,-30 l -254,-233 c -21,-18 -21,-38 -2,-59 l 275,-302 c 19,-20 38,-21 59,-3 l 256,233 c 96,88 114,164 55,229 l -151,165 z"
       inkscape:connector-curvature="0"
       style="fill:#ffffff;fill-rule:nonzero" /><path
       id="17"
       class="fil3"
       d="m 2938,9140 c 24,-18 18,-51 -18,-101 l -159,-221 -104,76 166,229 c 31,44 56,59 74,46 l 41,-29 z m 22,114 c -69,50 -140,23 -215,-80 l -44,-61 46,215 c 2,11 1,21 -2,29 -4,8 -9,15 -16,19 -5,4 -11,7 -17,9 -6,1 -13,2 -19,1 -7,0 -13,-2 -19,-5 -5,-3 -10,-8 -14,-13 -5,-6 -8,-13 -9,-21 l 1,0 -69,-401 -111,81 c -26,19 -49,14 -69,-15 -21,-29 -19,-53 6,-71 l 331,-239 c 22,-16 42,-13 58,9 l 192,267 c 81,112 84,194 10,247 l -40,29 z"
       inkscape:connector-curvature="0"
       style="fill:#ffffff;fill-rule:nonzero" /><path
       id="18"
       class="fil3"
       d="m 3028,9615 80,210 122,-166 -202,-44 z m 15,291 -117,-306 -124,-27 c -8,-2 -16,-6 -22,-12 -5,-6 -10,-12 -12,-19 -3,-6 -4,-13 -4,-19 0,-7 1,-14 4,-21 2,-6 5,-12 10,-17 4,-5 10,-9 16,-11 9,-4 18,-4 29,-2 l 457,103 c 13,3 24,9 33,16 9,8 15,17 19,28 4,10 6,21 4,33 -1,12 -6,23 -13,34 l -269,383 0,0 c -6,10 -14,16 -23,20 -7,2 -13,3 -20,2 -6,0 -12,-2 -18,-6 -6,-3 -11,-7 -16,-12 -4,-5 -8,-11 -10,-17 -3,-8 -4,-16 -4,-24 1,-7 4,-15 10,-24 l 70,-102 z"
       inkscape:connector-curvature="0"
       style="fill:#ffffff;fill-rule:nonzero" /><path
       id="19"
       class="fil3"
       d="m 3248,10963 c -82,8 -129,-50 -141,-175 l -29,-298 c -3,-30 11,-46 42,-49 30,-3 47,10 50,40 l 30,306 c 5,48 20,71 47,69 l 28,-3 c 29,-3 41,-35 35,-95 l -13,-136 c -13,-129 19,-198 95,-205 l 47,-5 c 83,-8 131,46 142,162 l 8,75 c 3,30 -11,46 -43,49 -30,3 -46,-10 -49,-40 l -9,-86 c -4,-38 -20,-56 -48,-54 l -21,2 c -26,3 -36,30 -31,83 l 14,138 c 13,137 -22,209 -105,218 l -49,4 z"
       inkscape:connector-curvature="0"
       style="fill:#ffffff;fill-rule:nonzero" /><path
       id="20"
       class="fil3"
       d="m 3411,11617 c 29,4 49,-30 60,-101 l 21,-150 c 10,-70 0,-107 -29,-111 l -214,-31 c -31,-4 -51,28 -61,98 l -26,180 c -7,52 4,80 35,84 l 214,31 z m -231,74 c -47,-6 -80,-31 -97,-74 -7,9 -14,15 -22,17 -7,3 -15,4 -23,3 -6,-1 -12,-3 -17,-6 -6,-4 -10,-8 -14,-13 -4,-5 -7,-10 -9,-17 -2,-6 -3,-13 -2,-19 1,-4 2,-9 4,-13 2,-4 4,-8 8,-12 l 66,-83 26,-184 c 19,-127 73,-185 162,-172 l 219,31 c 89,13 124,83 106,211 l -27,187 c -18,130 -72,189 -160,176 l -220,-32 z"
       inkscape:connector-curvature="0"
       style="fill:#ffffff;fill-rule:nonzero" /><path
       id="21"
       class="fil3"
       d="m 2952,12401 c -90,-34 -106,-127 -49,-278 l 36,-96 c 54,-144 127,-199 217,-165 l 284,107 c 29,11 37,34 25,67 -13,33 -34,45 -63,34 l -275,-104 c -38,-15 -71,14 -98,85 l -43,116 c -30,78 -26,125 12,139 l 275,104 c 29,11 38,33 25,67 -12,31 -33,42 -61,31 l -285,-107 z"
       inkscape:connector-curvature="0"
       style="fill:#ffffff;fill-rule:nonzero" /><path
       id="22"
       class="fil3"
       d="m 2835,12753 -130,183 206,9 -76,-192 z m -234,174 189,-268 -45,-117 c -4,-8 -4,-17 -3,-25 2,-8 5,-15 9,-21 4,-5 9,-10 14,-14 6,-3 13,-6 19,-8 7,-2 13,-2 20,-1 7,1 13,3 19,7 7,6 13,13 17,23 l 169,438 c 5,13 7,25 5,36 -1,12 -5,22 -12,32 -6,9 -15,16 -25,22 -11,5 -23,8 -36,7 l -469,-10 1,0 c -12,0 -22,-3 -30,-9 -5,-4 -10,-9 -13,-15 -3,-6 -5,-12 -5,-18 -1,-7 0,-14 1,-20 2,-7 5,-13 9,-18 5,-7 11,-13 17,-16 7,-4 16,-6 26,-6 l 123,1 z"
       inkscape:connector-curvature="0"
       style="fill:#ffffff;fill-rule:nonzero" /><path
       id="23"
       class="fil3"
       d="m 2221,13665 c 19,22 51,14 97,-26 l 211,-182 -201,-232 -210,181 c -46,40 -58,73 -36,98 l 139,161 z m -223,-95 c -61,-70 -41,-148 58,-233 l 261,-225 c 21,-18 40,-16 59,5 l 267,309 c 18,21 17,41 -4,59 l -262,226 c -98,85 -176,94 -233,28 l -146,-169 z"
       inkscape:connector-curvature="0"
       style="fill:#ffffff;fill-rule:nonzero" /><path
       id="24"
       class="fil3"
       d="m 1563,14095 c 15,25 49,23 102,-7 l 237,-135 -63,-111 -247,140 c -47,27 -65,50 -54,70 l 25,43 z m -117,10 c -41,-74 -7,-142 105,-205 l 64,-37 -219,22 c -11,0 -21,-1 -29,-6 -7,-5 -13,-11 -17,-18 -4,-5 -6,-11 -7,-18 -1,-7 -1,-13 1,-19 1,-7 4,-13 7,-18 4,-6 8,-10 15,-13 6,-4 14,-6 22,-6 l -1,1 407,-25 -68,-120 c -16,-27 -8,-49 22,-67 31,-17 55,-13 70,15 l 201,353 c 14,24 9,43 -15,57 l -285,162 c -121,69 -203,64 -248,-15 l -25,-43 z"
       inkscape:connector-curvature="0"
       style="fill:#ffffff;fill-rule:nonzero" /><path
       id="25"
       class="fil3"
       d="m 859,14348 c 10,34 44,42 103,26 l 157,-45 c 62,-18 89,-44 79,-79 l -56,-195 c -9,-32 -45,-40 -108,-22 l -153,44 c -61,18 -87,43 -78,76 l 56,195 z m -160,-172 c -25,-88 33,-152 173,-193 l 122,-35 c 141,-40 223,-16 249,72 l 59,208 c 26,89 -32,153 -172,194 l -122,35 c -140,40 -223,16 -249,-73 l -60,-208 z"
       inkscape:connector-curvature="0"
       style="fill:#ffffff;fill-rule:nonzero" /><path
       id="26"
       class="fil3"
       d="m -45,14190 c -1,-11 -1,-20 2,-28 2,-8 6,-15 11,-20 5,-6 11,-11 18,-14 7,-4 14,-6 22,-6 8,-1 16,-1 24,1 9,3 16,6 23,11 l 398,292 -29,-298 c -3,-31 13,-49 47,-52 35,-3 55,10 57,42 l 39,387 c 1,10 0,18 -3,26 -3,8 -7,15 -12,21 -4,5 -11,10 -18,13 -7,3 -14,5 -22,6 -8,1 -17,0 -25,-2 -9,-2 -16,-6 -23,-11 l -396,-287 29,295 c 3,31 -13,48 -48,52 -34,3 -53,-11 -56,-42 l -38,-386 z"
       inkscape:connector-curvature="0"
       style="fill:#ffffff;fill-rule:nonzero" /><path
       class="fil4"
       d="m -354,12454 0,-1363 14,-20 c 112,-162 202,-339 265,-525 l 75,-218 74,218 c 64,186 154,363 266,525 l 14,20 0,1363 c 349,-85 657,-294 866,-587 l 35,-50 58,22 c 174,68 358,113 544,133 l 120,13 -60,104 c -392,689 -1122,1116 -1917,1116 -795,0 -1525,-427 -1917,-1116 l -60,-104 120,-13 c 186,-20 370,-65 544,-133 l 58,-22 35,50 c 209,293 517,502 866,587 z m 1849,-1395 c 1,-19 1,-39 1,-59 0,-782 -604,-1434 -1384,-1492 l -73,-5 0,-709 83,5 c 1168,64 2083,1031 2083,2201 0,293 -58,583 -172,853 l -21,52 -56,-4 C 879,11833 39,10938 39,9858 c 0,-66 4,-132 10,-198 l 7,-78 79,7 c 202,19 398,82 574,183 l 40,24 -1,46 c 0,5 0,11 0,16 0,514 293,978 747,1201 z m -2990,0 c 454,-223 747,-687 747,-1201 0,-5 0,-11 0,-16 l -1,-46 40,-24 c 176,-101 372,-164 574,-183 l 79,-7 7,78 c 6,66 10,132 10,198 0,1080 -840,1975 -1917,2043 l -56,4 -21,-52 c -114,-270 -172,-560 -172,-853 0,-1170 915,-2137 2083,-2201 l 83,-5 0,709 -73,5 c -780,58 -1384,710 -1384,1492 0,20 0,40 1,59 z"
       id="path4639"
       inkscape:connector-curvature="0"
       style="fill:#ffffff" /><path
       class="fil0"
       d="m 1849,12050 c -366,643 -1057,1076 -1849,1076 -792,0 -1483,-433 -1849,-1076 197,-21 387,-68 565,-138 235,330 594,566 1008,639 l 0,-1435 c 116,-166 209,-349 276,-544 67,195 160,378 276,544 l 0,1435 c 414,-73 773,-309 1008,-639 178,70 368,117 565,138 z M 118,8877 c 1119,62 2008,988 2008,2123 0,292 -59,570 -165,823 -1029,-65 -1843,-920 -1843,-1965 0,-64 3,-128 9,-191 196,19 380,80 542,174 0,5 0,11 0,17 0,599 371,1111 896,1318 6,-57 10,-116 10,-176 0,-830 -642,-1510 -1457,-1570 l 0,-553 z m -245,790 c 6,63 9,127 9,191 0,1045 -814,1900 -1843,1965 -106,-253 -165,-531 -165,-823 0,-1135 889,-2061 2008,-2123 l 0,553 c -815,60 -1457,740 -1457,1570 0,60 4,118 10,176 525,-207 896,-719 896,-1318 0,-6 0,-12 0,-17 162,-94 346,-155 542,-174 z"
       id="path4641"
       inkscape:connector-curvature="0"
       style="fill:#ffa000" /></g></svg>