<?xml version="1.0" encoding="UTF-8" standalone="no"?>
<!-- Creator: CorelDRAW X7 -->

<svg
   xmlns:dc="http://purl.org/dc/elements/1.1/"
   xmlns:cc="http://creativecommons.org/ns#"
   xmlns:rdf="http://www.w3.org/1999/02/22-rdf-syntax-ns#"
   xmlns:svg="http://www.w3.org/2000/svg"
   xmlns="http://www.w3.org/2000/svg"
   xmlns:sodipodi="http://sodipodi.sourceforge.net/DTD/sodipodi-0.dtd"
   xmlns:inkscape="http://www.inkscape.org/namespaces/inkscape"
   xml:space="preserve"
   width="17.323in"
   height="5.9060001in"
   version="1.1"
   style="clip-rule:evenodd;fill-rule:evenodd;image-rendering:optimizeQuality;shape-rendering:geometricPrecision;text-rendering:geometricPrecision"
   viewBox="0 0 17323 5906.0001"
   id="svg3472"
   inkscape:version="0.91 r13725"
   sodipodi:docname="Other - Dire Foes Logo - [N3] [Vyo].svg"><metadata
     id="metadata3494"><rdf:RDF><cc:Work
         rdf:about=""><dc:format>image/svg+xml</dc:format><dc:type
           rdf:resource="http://purl.org/dc/dcmitype/StillImage" /></cc:Work></rdf:RDF></metadata><sodipodi:namedview
     pagecolor="#ffffff"
     bordercolor="#666666"
     borderopacity="1"
     objecttolerance="10"
     gridtolerance="10"
     guidetolerance="10"
     inkscape:pageopacity="0"
     inkscape:pageshadow="2"
     inkscape:window-width="640"
     inkscape:window-height="480"
     id="namedview3492"
     showgrid="false"
     inkscape:zoom="0.23838384"
     inkscape:cx="1161.99"
     inkscape:cy="760.77005"
     inkscape:window-x="0"
     inkscape:window-y="0"
     inkscape:window-maximized="0"
     inkscape:current-layer="svg3472" /><defs
     id="defs3474"><style
       type="text/css"
       id="style3476"><![CDATA[
    .str0 {stroke:black;stroke-width:3}
    .fil1 {fill:black}
    .fil0 {fill:white}
    .fil2 {fill:white;fill-rule:nonzero}
   ]]></style></defs><g
     id="Layer_x0020_1"
     transform="translate(8661,-8047)"><metadata
       id="CorelCorpID_0Corel-Layer" /><rect
       class="fil0"
       x="-8661"
       y="8047"
       width="17323"
       height="5906"
       id="rect3480"
       style="fill:#ffffff" /><path
       class="fil1 str0"
       d="m -6417,10232 236,-275 -512,-1339 -1772,-433 16930,0 -1772,433 -512,1339 236,275 -354,1181 591,158 -394,2244 -12520,0 -394,-2244 591,-158 -354,-1181 z m 13307,315 787,-472 -1023,118 236,354 z m -13780,0 -787,-472 1023,118 -236,354 z"
       id="path3482"
       inkscape:connector-curvature="0"
       style="fill:#000000;stroke:#000000;stroke-width:3" /><path
       class="fil2"
       d="m -5866,10837 2117,0 c 348,0 593,-62 735,-184 142,-123 213,-328 213,-616 l 0,-698 c 0,-288 -71,-493 -213,-616 -142,-122 -387,-184 -735,-184 l -2117,0 0,2298 z m 701,-1726 1246,0 c 153,0 261,29 323,87 63,58 94,166 94,325 l 0,311 c 0,159 -31,267 -94,325 -62,58 -170,88 -323,88 l -1246,0 0,-1136 z m 3216,1726 702,0 0,-2298 -702,0 0,2298 z m 2305,-1726 1097,0 c 118,0 201,15 250,47 48,32 72,96 72,194 l 0,76 c 0,85 -20,146 -60,184 -40,38 -106,57 -199,57 l -1160,0 0,-558 z m -701,1726 701,0 0,-597 1103,0 c 110,0 185,24 226,70 41,47 62,130 62,251 l 0,276 701,0 0,-390 c 0,-91 -9,-168 -28,-231 -19,-62 -46,-111 -81,-147 -34,-36 -74,-64 -118,-84 -44,-20 -96,-36 -155,-46 l 0,-7 c 154,-36 258,-97 311,-185 54,-88 81,-214 81,-379 l 0,-146 c 0,-108 -11,-203 -33,-286 -22,-82 -59,-153 -111,-213 -52,-59 -122,-104 -210,-136 -89,-32 -199,-48 -332,-48 l -2117,0 0,2298 z m 3667,0 2544,0 0,-552 -1842,0 0,-368 1706,0 0,-476 -1706,0 0,-369 1801,0 0,-533 -2503,0 0,2298 z"
       id="path3484"
       inkscape:connector-curvature="0"
       style="fill:#ffffff;fill-rule:nonzero" /><path
       class="fil2"
       d="m -5866,13421 691,0 0,-806 1586,0 0,-548 -1586,0 0,-440 1663,0 0,-568 -2354,0 0,2362 z m 6156,0 2507,0 0,-567 -1815,0 0,-379 1681,0 0,-489 -1681,0 0,-379 1775,0 0,-548 -2467,0 0,2362 z"
       id="path3486"
       inkscape:connector-curvature="0"
       style="fill:#ffffff;fill-rule:nonzero" /><path
       class="fil2"
       d="m -3190,12585 c 0,166 23,304 67,413 45,110 109,195 193,256 84,60 186,103 306,129 119,25 262,38 428,38 l 1109,0 c 166,0 309,-13 428,-38 119,-26 222,-69 307,-131 85,-62 149,-147 193,-255 43,-109 65,-246 65,-412 l 0,-690 c 0,-166 -22,-303 -65,-413 -44,-110 -108,-195 -193,-255 -85,-61 -188,-104 -307,-130 -119,-25 -262,-38 -428,-38 l -1109,0 c -166,0 -309,12 -428,37 -120,24 -222,67 -306,129 -84,62 -148,147 -193,257 -44,110 -67,247 -67,413 l 0,690 z m 710,-469 c 0,-158 30,-274 89,-350 59,-75 174,-113 344,-113 l 810,0 c 170,0 285,38 344,113 59,76 89,192 89,350 l 0,249 c 0,174 -26,295 -79,362 -53,67 -159,101 -316,101 l -885,0 c -158,0 -263,-34 -316,-101 -53,-67 -80,-188 -80,-362 l 0,-249 z"
       id="path3488"
       inkscape:connector-curvature="0"
       style="fill:#ffffff;fill-rule:nonzero" /><path
       class="fil2"
       d="m 3023,12799 c 0,125 16,229 49,309 34,81 85,144 155,189 69,44 158,76 267,96 109,19 246,28 410,28 l 838,0 c 243,0 435,-9 576,-27 141,-18 252,-52 332,-102 80,-50 136,-121 168,-214 32,-92 48,-220 48,-381 0,-171 -19,-304 -56,-399 -37,-96 -103,-169 -196,-217 -94,-49 -222,-82 -385,-98 -163,-16 -392,-24 -687,-24 -197,0 -349,-2 -456,-6 -107,-4 -187,-13 -240,-27 -53,-14 -87,-34 -104,-59 -17,-26 -25,-63 -25,-112 0,-60 23,-104 70,-134 47,-30 111,-45 192,-45 l 766,0 c 149,0 243,17 280,50 38,33 56,96 56,190 l 692,0 0,-74 c 0,-115 -10,-212 -28,-292 -19,-80 -57,-149 -114,-207 -57,-59 -145,-104 -263,-136 -119,-32 -274,-48 -467,-48 l -966,0 c -210,0 -377,18 -501,54 -125,37 -216,87 -274,152 -59,65 -95,138 -111,220 -16,82 -23,187 -23,315 0,153 13,273 39,359 26,86 76,154 152,202 76,49 189,84 340,104 150,20 359,31 627,31 252,0 436,2 553,6 117,4 207,13 268,25 61,13 102,33 121,60 20,26 30,67 30,122 0,81 -26,134 -78,158 -52,25 -124,37 -218,37 l -847,0 c -112,0 -189,-15 -232,-46 -43,-31 -65,-104 -67,-219 l -691,0 0,160 z"
       id="path3490"
       inkscape:connector-curvature="0"
       style="fill:#ffffff;fill-rule:nonzero" /></g></svg>