<?xml version="1.0" encoding="UTF-8" standalone="no"?>
<!-- Creator: CorelDRAW X7 -->

<svg
   xmlns:dc="http://purl.org/dc/elements/1.1/"
   xmlns:cc="http://creativecommons.org/ns#"
   xmlns:rdf="http://www.w3.org/1999/02/22-rdf-syntax-ns#"
   xmlns:svg="http://www.w3.org/2000/svg"
   xmlns="http://www.w3.org/2000/svg"
   xmlns:sodipodi="http://sodipodi.sourceforge.net/DTD/sodipodi-0.dtd"
   xmlns:inkscape="http://www.inkscape.org/namespaces/inkscape"
   xml:space="preserve"
   width="15.964001in"
   height="3.2280002in"
   version="1.1"
   style="clip-rule:evenodd;fill-rule:evenodd;image-rendering:optimizeQuality;shape-rendering:geometricPrecision;text-rendering:geometricPrecision"
   viewBox="0 0 15964.001 3228.0002"
   id="svg3551"
   inkscape:version="0.91 r13725"
   sodipodi:docname="Other - Infinity Logo - [N3] [Vyo].svg"><metadata
     id="metadata3567"><rdf:RDF><cc:Work
         rdf:about=""><dc:format>image/svg+xml</dc:format><dc:type
           rdf:resource="http://purl.org/dc/dcmitype/StillImage" /></cc:Work></rdf:RDF></metadata><sodipodi:namedview
     pagecolor="#ffffff"
     bordercolor="#666666"
     borderopacity="1"
     objecttolerance="10"
     gridtolerance="10"
     guidetolerance="10"
     inkscape:pageopacity="0"
     inkscape:pageshadow="2"
     inkscape:window-width="640"
     inkscape:window-height="480"
     id="namedview3565"
     showgrid="false"
     inkscape:zoom="0.23838384"
     inkscape:cx="1100.88"
     inkscape:cy="640.26005"
     inkscape:window-x="0"
     inkscape:window-y="0"
     inkscape:window-maximized="0"
     inkscape:current-layer="svg3551" /><defs
     id="defs3553"><style
       type="text/css"
       id="style3555"><![CDATA[
    .fil0 {fill:black}
    .fil1 {fill:white}
   ]]></style></defs><g
     id="Layer_x0020_1"
     transform="translate(7982,-9386)"><metadata
       id="CorelCorpID_0Corel-Layer" /><path
       class="fil0"
       d="m -6884,12217 c -101,100 -240,161 -390,161 l -157,0 c -304,0 -551,-247 -551,-551 l 0,-1221 c 0,-94 23,-185 68,-266 13,-23 21,-50 21,-79 0,-29 -8,-55 -21,-79 -45,-80 -68,-172 -68,-265 0,-285 221,-531 512,-531 l 236,0 c 290,0 512,246 512,531 0,82 -17,164 -54,236 -25,49 -13,110 33,143 50,36 119,24 155,-26 93,-130 245,-215 417,-215 l 236,0 c 116,0 227,39 315,109 27,21 61,34 98,34 38,0 72,-13 99,-34 88,-70 199,-109 315,-109 508,0 1017,0 1525,0 49,0 96,7 141,19 15,5 30,7 46,7 87,0 158,-70 158,-157 0,-2 0,-4 0,-7 0,-285 221,-531 512,-531 l 236,0 c 227,0 413,151 482,354 21,62 80,108 150,108 16,0 32,-3 47,-7 47,-15 96,-22 148,-22 l 767,0 c 159,0 316,50 430,164 l 557,565 c 15,14 35,24 57,24 43,0 78,-36 78,-79 l 0,-162 c 0,-282 230,-512 512,-512 l 40,0 c 83,0 165,20 238,59 23,12 49,20 77,20 27,0 53,-8 76,-20 73,-39 155,-59 238,-59 l 237,0 c 51,0 101,7 147,22 15,4 31,7 48,7 69,0 128,-46 149,-108 69,-203 255,-354 482,-354 l 237,0 c 290,0 512,246 512,531 0,3 -1,6 -1,10 0,1 0,2 0,3 0,87 71,157 158,157 18,0 35,-3 51,-8 49,-16 102,-24 156,-24 l 1476,0 c 131,0 253,49 346,132 29,25 65,41 106,41 40,0 76,-15 104,-39 98,-85 225,-134 359,-134 l 158,0 c 181,0 342,87 442,223 30,40 76,66 129,66 53,0 99,-26 128,-66 100,-136 262,-223 443,-223 l 157,0 c 304,0 551,247 551,551 l 0,591 c 0,289 -224,527 -507,549 -77,6 -137,65 -146,141 -29,276 -264,491 -548,491 l -157,0 c -284,0 -518,-215 -548,-491 -8,-76 -69,-135 -145,-141 -276,-21 -497,-247 -507,-526 -3,-86 -72,-154 -158,-154 -18,0 -35,3 -52,9 -37,12 -76,19 -116,22 -82,6 -147,74 -147,157 l 0,573 c 0,304 -248,551 -551,551 l -158,0 c -304,0 -551,-247 -551,-551 l 0,-573 c 0,-83 -65,-151 -147,-157 -40,-3 -80,-10 -117,-22 -16,-6 -33,-9 -51,-9 -87,0 -157,71 -157,158 l 0,603 c 0,304 -248,551 -552,551 l -157,0 c -82,0 -162,-18 -234,-52 -22,-11 -45,-17 -71,-17 -56,0 -105,30 -133,74 -91,139 -250,231 -428,231 l -768,0 c -158,0 -316,-50 -429,-164 l -558,-565 c -14,-14 -34,-24 -56,-24 -44,0 -79,36 -79,79 l 0,162 c 0,283 -230,512 -512,512 l -39,0 c -84,0 -166,-20 -239,-59 -22,-12 -48,-20 -76,-20 -28,0 -54,8 -77,20 -73,39 -154,59 -238,59 l -236,0 c -179,0 -337,-92 -428,-231 -29,-44 -78,-74 -134,-74 -25,0 -49,6 -70,17 -72,34 -152,52 -235,52 l -157,0 c -304,0 -551,-247 -551,-551 l 0,-218 c 0,-44 -35,-79 -79,-79 -25,0 -47,12 -61,30 -96,115 -240,188 -402,188 l -421,0 -3,0 c -84,-1 -152,67 -157,150 -16,268 -240,480 -511,480 l -236,0 c -117,0 -227,-39 -315,-109 -27,-21 -61,-34 -99,-34 -37,0 -71,13 -98,34 -88,70 -198,109 -315,109 l -354,0 c -138,0 -273,-60 -367,-160 -29,-30 -69,-50 -115,-50 -45,0 -84,19 -113,49 z"
       id="path3559"
       inkscape:connector-curvature="0"
       style="fill:#000000" /><path
       class="fil1"
       d="m -7751,10315 c 13,-14 21,-33 21,-54 0,-21 -8,-41 -22,-55 -70,-76 -112,-179 -112,-289 0,-220 169,-413 394,-413 l 236,0 c 225,0 393,193 393,413 0,110 -42,213 -112,289 -13,14 -22,34 -22,55 0,21 8,40 22,54 43,47 75,104 95,169 40,133 115,200 213,201 45,0 80,-35 80,-79 l 0,-39 c 0,-217 177,-394 394,-394 l 236,0 c 148,0 276,82 344,203 13,24 39,41 69,41 30,0 57,-17 70,-41 67,-121 196,-203 344,-203 508,0 1017,0 1525,0 163,0 303,97 367,235 12,28 40,47 72,47 31,0 58,-18 71,-44 17,-35 40,-67 66,-96 13,-14 21,-33 21,-54 0,-21 -8,-41 -22,-55 -70,-76 -112,-179 -112,-289 0,-220 169,-413 394,-413 l 236,0 c 225,0 394,193 394,413 0,110 -42,213 -112,289 -14,14 -23,34 -23,55 0,21 8,40 22,54 31,35 57,74 76,118 6,14 20,24 37,24 21,0 39,-18 39,-39 l 0,-87 c 0,-217 177,-394 394,-394 l 767,0 c 127,0 255,38 346,129 l 759,770 c 15,14 35,23 57,23 43,0 78,-35 78,-78 l 0,-450 c 0,-217 177,-394 394,-394 l 40,0 c 100,0 191,38 261,100 14,13 33,21 54,21 20,0 39,-8 53,-21 70,-62 161,-100 261,-100 l 237,0 c 217,0 393,177 393,394 l 0,87 c 0,21 18,39 40,39 16,0 30,-10 36,-24 19,-44 45,-83 77,-118 13,-14 21,-33 21,-54 0,-21 -8,-41 -22,-55 -70,-76 -112,-179 -112,-289 0,-220 169,-413 393,-413 l 237,0 c 225,0 393,193 393,413 0,110 -42,213 -112,289 -13,14 -22,34 -22,55 0,21 8,40 22,54 30,34 55,72 74,114 12,28 40,48 73,48 33,0 62,-21 73,-51 60,-148 205,-253 375,-253 l 1476,0 c 169,0 315,105 374,253 12,30 40,51 74,51 32,0 60,-20 72,-48 68,-151 220,-256 395,-256 l 158,0 c 239,0 433,195 433,433 l 0,296 c 0,76 62,137 138,137 76,0 138,-61 138,-137 l 0,-296 c 0,-238 194,-433 433,-433 l 157,0 c 239,0 433,195 433,433 l 0,591 c 0,238 -194,433 -433,433 l -59,0 c -87,0 -157,70 -157,157 l 0,40 c 0,238 -195,433 -434,433 l -157,0 c -239,0 -433,-195 -433,-433 l 0,-40 c 0,-87 -71,-157 -158,-157 l -59,0 c -238,0 -433,-195 -433,-433 l 0,-434 c 0,-32 -26,-59 -59,-59 -27,0 -49,18 -57,43 -64,138 -204,233 -366,233 l -69,0 c -87,0 -157,71 -157,158 l 0,689 c 0,238 -195,433 -433,433 l -158,0 c -239,0 -433,-195 -433,-433 l 0,-689 c 0,-87 -70,-158 -157,-158 l -69,0 c -165,0 -306,-98 -369,-240 -9,-21 -30,-36 -55,-36 -32,0 -59,27 -59,59 l 0,1064 c 0,238 -194,433 -433,433 l -157,0 c -152,0 -286,-79 -363,-198 -11,-16 -29,-28 -51,-28 -32,0 -59,27 -59,64 0,221 -176,398 -393,398 l -768,0 c -126,0 -255,-37 -345,-129 l -760,-769 c -14,-15 -34,-24 -56,-24 -44,0 -79,35 -79,79 l 0,449 c 0,217 -177,394 -394,394 l -39,0 c -100,0 -192,-38 -261,-99 -15,-14 -33,-22 -54,-22 -20,0 -38,8 -52,19 -69,64 -162,102 -263,102 l -236,0 c -217,0 -394,-177 -394,-394 l 0,-87 c 0,-21 -18,-39 -39,-39 -17,0 -31,10 -37,24 -67,153 -220,260 -397,260 l -157,0 c -239,0 -433,-195 -433,-433 l 0,-1066 c 0,-27 -22,-49 -49,-49 -21,0 -39,13 -46,32 -37,79 -98,145 -175,187 -25,13 -42,40 -42,70 0,14 3,27 10,38 29,56 46,120 46,187 0,223 -181,404 -404,404 l -541,0 c -87,0 -157,70 -157,157 l 0,79 c 0,217 -177,394 -394,394 l -236,0 c -160,0 -298,-96 -359,-233 -9,-21 -30,-35 -55,-35 -24,0 -45,14 -54,36 -62,136 -200,232 -359,232 l -354,0 c -126,0 -250,-67 -319,-171 l -133,-199 c -11,-16 -29,-27 -50,-27 -28,0 -52,20 -58,48 -39,198 -215,349 -425,349 l -157,0 c -239,0 -433,-195 -433,-433 l 0,-1221 c 0,-112 43,-214 113,-291 z"
       id="path3561"
       inkscape:connector-curvature="0"
       style="fill:#ffffff" /><path
       class="fil0"
       d="m -5108,10409 c 508,0 1017,0 1525,0 92,0 168,76 168,168 l 0,0 c 0,92 -76,167 -168,167 l -974,0 c -87,0 -158,71 -158,158 0,87 71,157 158,157 l 777,0 c 93,0 168,75 168,167 l 0,0 c 0,92 -76,168 -168,168 l -777,0 c -87,0 -158,70 -158,157 l 0,315 c 0,87 -70,158 -157,158 l -236,0 c -87,0 -158,-71 -158,-158 l 0,-1299 c 0,-87 71,-158 158,-158 z m -1610,597 192,289 c 27,40 79,79 119,79 39,0 78,-42 78,-79 l 0,-728 c 0,-87 71,-158 158,-158 l 236,0 c 87,0 157,71 157,158 l 0,1299 c 0,87 -70,158 -157,158 l -354,0 c -47,0 -97,-27 -123,-66 l -328,-492 c -14,-21 -22,-47 -22,-72 l 0,-374 c 0,-40 22,-46 44,-14 z m 10301,-597 1476,0 c 92,0 167,76 167,168 l 0,0 c 0,92 -75,167 -167,167 l -305,0 c -87,0 -158,71 -158,158 l 0,925 c 0,108 -88,197 -196,197 l -158,0 c -108,0 -197,-89 -197,-197 l 0,-925 c 0,-87 -70,-158 -157,-158 l -305,0 c -92,0 -168,-75 -168,-167 l 0,0 c 0,-92 76,-168 168,-168 z m 3395,1142 0,276 c 0,108 -88,197 -197,197 l -157,0 c -108,0 -197,-89 -197,-197 l 0,-276 c 0,-87 -70,-157 -157,-157 l -296,0 c -108,0 -196,-89 -196,-197 l 0,-591 c 0,-108 88,-197 196,-197 l 158,0 c 108,0 197,89 197,197 l 0,512 c 0,87 70,158 157,158 l 433,0 c 87,0 158,-71 158,-158 l 0,-512 c 0,-108 88,-197 197,-197 l 157,0 c 108,0 197,89 197,197 l 0,591 c 0,108 -89,197 -197,197 l -295,0 c -87,0 -158,70 -158,157 z m -6240,-1378 40,0 c 86,0 157,71 157,158 l 0,669 c 0,87 -71,157 -157,157 l -40,0 c -86,0 -157,-70 -157,-157 l 0,-669 c 0,-87 71,-158 157,-158 z m 669,0 237,0 c 86,0 157,71 157,158 l 0,1771 c 0,87 -71,158 -157,158 l -768,0 c -62,0 -133,-15 -177,-59 L -896,10587 c -27,-28 -60,-59 -98,-59 l -158,0 c -55,0 -118,62 -118,118 l 0,1456 c 0,87 -71,158 -157,158 l -236,0 c -87,0 -158,-71 -158,-158 l 0,-1771 c 0,-87 71,-158 158,-158 l 767,0 c 63,0 134,15 177,59 l 1595,1614 c 27,28 60,60 98,60 l 158,0 c 56,0 118,-63 118,-119 l 0,-1456 c 0,-87 71,-158 157,-158 z m -2204,1103 39,0 c 87,0 158,70 158,157 l 0,669 c 0,87 -71,158 -158,158 l -39,0 c -87,0 -158,-71 -158,-158 l 0,-669 c 0,-87 71,-157 158,-157 z M 2313,9917 c 0,-97 71,-177 157,-177 l 237,0 c 86,0 157,80 157,177 0,98 -71,177 -157,177 l -237,0 c -86,0 -157,-79 -157,-177 z m 197,492 157,0 c 109,0 197,89 197,197 l 0,1221 c 0,108 -88,197 -197,197 l -157,0 c -108,0 -197,-89 -197,-197 l 0,-1221 c 0,-108 89,-197 197,-197 z m -5394,-492 c 0,-97 71,-177 158,-177 l 236,0 c 86,0 157,80 157,177 0,98 -71,177 -157,177 l -236,0 c -87,0 -158,-79 -158,-177 z m 197,492 157,0 c 109,0 197,89 197,197 l 0,1221 c 0,108 -88,197 -197,197 l -157,0 c -108,0 -197,-89 -197,-197 l 0,-1221 c 0,-108 89,-197 197,-197 z m -4941,-492 c 0,-97 71,-177 158,-177 l 236,0 c 86,0 157,80 157,177 0,98 -71,177 -157,177 l -236,0 c -87,0 -158,-79 -158,-177 z m 197,492 157,0 c 109,0 197,89 197,197 l 0,1221 c 0,108 -88,197 -197,197 l -157,0 c -108,0 -197,-89 -197,-197 l 0,-1221 c 0,-108 89,-197 197,-197 z"
       id="path3563"
       inkscape:connector-curvature="0"
       style="fill:#000000" /></g></svg>