<?xml version="1.0" encoding="UTF-8" standalone="no"?>
<!-- Creator: CorelDRAW X7 -->

<svg
   xmlns:dc="http://purl.org/dc/elements/1.1/"
   xmlns:cc="http://creativecommons.org/ns#"
   xmlns:rdf="http://www.w3.org/1999/02/22-rdf-syntax-ns#"
   xmlns:svg="http://www.w3.org/2000/svg"
   xmlns="http://www.w3.org/2000/svg"
   xmlns:sodipodi="http://sodipodi.sourceforge.net/DTD/sodipodi-0.dtd"
   xmlns:inkscape="http://www.inkscape.org/namespaces/inkscape"
   xml:space="preserve"
   width="7.8740005in"
   height="7.8740005in"
   version="1.1"
   style="clip-rule:evenodd;fill-rule:evenodd;image-rendering:optimizeQuality;shape-rendering:geometricPrecision;text-rendering:geometricPrecision"
   viewBox="0 0 7874.0005 7874.0005"
   id="svg3496"
   inkscape:version="0.91 r13725"
   sodipodi:docname="Other - Green-A Combat Group - [N3] [Vyo].svg"><metadata
     id="metadata3549"><rdf:RDF><cc:Work
         rdf:about=""><dc:format>image/svg+xml</dc:format><dc:type
           rdf:resource="http://purl.org/dc/dcmitype/StillImage" /></cc:Work></rdf:RDF></metadata><sodipodi:namedview
     pagecolor="#ffffff"
     bordercolor="#666666"
     borderopacity="1"
     objecttolerance="10"
     gridtolerance="10"
     guidetolerance="10"
     inkscape:pageopacity="0"
     inkscape:pageshadow="2"
     inkscape:window-width="640"
     inkscape:window-height="480"
     id="namedview3547"
     showgrid="false"
     inkscape:zoom="0.23838384"
     inkscape:cx="736.83001"
     inkscape:cy="849.33005"
     inkscape:window-x="0"
     inkscape:window-y="0"
     inkscape:window-maximized="0"
     inkscape:current-layer="svg3496" /><defs
     id="defs3498"><style
       type="text/css"
       id="style3500"><![CDATA[
    .fil3 {fill:none}
    .fil0 {fill:black}
    .fil1 {fill:#0080B1}
    .fil5 {fill:#A0D211}
    .fil2 {fill:white}
    .fil4 {fill:#A0D211;fill-rule:nonzero}
    .fil6 {fill:white;fill-rule:nonzero}
   ]]></style></defs><g
     id="Layer_x0020_1"
     transform="translate(3937,-7063)"><metadata
       id="CorelCorpID_0Corel-Layer" /><circle
       class="fil0"
       cy="11000"
       r="3937"
       id="circle3504"
       cx="0"
       style="fill:#000000" /><circle
       class="fil1"
       cy="11000"
       r="3858"
       id="circle3506"
       cx="0"
       style="fill:#0080b1" /><circle
       class="fil2"
       cy="11000"
       r="2874"
       id="circle3508"
       cx="0"
       style="fill:#ffffff" /><circle
       class="fil3"
       cy="11000"
       r="3740"
       id="circle3510"
       cx="0"
       style="fill:none" /><path
       class="fil4"
       d="m -3468,11165 c -28,3 -52,10 -69,21 -18,10 -32,23 -40,40 -9,16 -14,35 -15,56 -2,22 -1,48 3,77 l 19,147 c 5,41 10,72 15,94 5,23 12,41 22,55 10,15 23,25 40,30 17,6 40,7 68,3 l 114,-15 -36,-274 -82,11 19,152 -11,1 c -9,1 -17,0 -24,-2 -6,-3 -11,-7 -15,-13 -3,-5 -6,-11 -8,-19 -2,-7 -4,-15 -5,-24 l -17,-131 c -2,-16 -2,-29 -1,-39 1,-10 4,-18 9,-25 5,-6 13,-11 23,-15 11,-4 25,-7 42,-9 l 50,-7 c 18,-2 32,-3 43,-2 11,1 20,4 26,9 7,5 12,13 16,22 3,9 6,22 8,38 l 17,133 c 3,22 2,38 -2,49 -5,10 -16,16 -34,19 l 15,120 13,-2 c 21,-3 40,-7 54,-13 15,-6 27,-15 36,-27 10,-12 16,-29 19,-51 3,-22 3,-50 -2,-84 l -24,-184 c -3,-29 -9,-54 -16,-75 -7,-20 -16,-37 -29,-51 -13,-13 -29,-23 -49,-28 -20,-6 -44,-6 -73,-3 l -119,16 z m 272,660 53,185 c 6,20 7,35 4,45 -3,10 -13,17 -29,21 l -13,4 c -14,4 -25,4 -34,-1 -8,-5 -15,-15 -19,-31 l -56,-196 94,-27 z m -324,-36 33,119 101,-29 53,187 c 5,18 5,32 -1,41 -6,9 -19,17 -39,23 l -47,13 34,119 66,-19 c 15,-5 28,-10 37,-16 10,-6 17,-13 21,-21 5,-7 8,-15 9,-24 1,-8 1,-18 0,-28 l 1,0 c 14,24 29,38 46,43 18,5 40,4 68,-4 l 25,-7 c 18,-6 33,-12 46,-20 13,-7 23,-17 31,-29 7,-11 11,-25 12,-42 2,-16 -1,-36 -8,-58 l -102,-358 -386,110 z m 178,562 184,408 88,-40 -133,-295 59,-27 123,274 76,-35 -124,-273 59,-26 131,288 85,-38 -182,-401 -366,165 z m 230,485 258,365 79,-56 -187,-264 52,-37 174,245 68,-49 -174,-244 53,-38 183,259 76,-54 -254,-359 -328,232 z m 306,440 86,90 211,-202 1,0 -52,370 133,138 290,-278 -85,-89 -211,202 -1,-1 51,-369 -132,-138 -291,277 z m 514,388 122,96 62,-79 -122,-96 -62,79 z m 109,215 116,74 68,-41 211,135 -6,80 116,74 30,-458 -135,-86 -400,222 z m 417,-100 -14,170 -133,-85 147,-85 z m 443,426 c -9,27 -13,51 -12,72 1,21 7,38 18,53 11,15 26,28 44,39 19,11 42,22 70,31 l 188,65 c 29,10 53,15 74,15 20,1 37,-2 51,-9 14,-6 25,-16 33,-28 9,-12 16,-27 22,-45 l 12,-35 -116,-40 c -4,12 -9,21 -14,27 -4,6 -10,10 -16,12 -6,2 -14,2 -22,0 -9,-2 -20,-5 -35,-10 l -124,-43 c -27,-9 -43,-21 -48,-35 -5,-14 -3,-35 7,-64 l 14,-41 c 9,-26 21,-43 35,-52 14,-9 36,-9 64,1 l 128,43 c 18,7 31,14 38,22 7,9 9,19 4,32 l -3,11 116,40 c 10,-30 16,-54 17,-73 2,-19 -2,-36 -11,-51 -9,-16 -25,-30 -48,-43 -22,-13 -54,-26 -95,-41 l -137,-47 c -28,-9 -53,-15 -75,-18 -21,-3 -41,-2 -58,3 -18,6 -34,16 -48,31 -13,16 -25,37 -34,65 l -39,113 z m 547,184 c -4,28 -3,53 3,73 5,20 15,36 28,48 14,12 31,22 51,29 21,8 46,13 75,17 l 196,25 c 30,4 55,5 77,3 22,-1 41,-7 57,-15 16,-9 30,-22 40,-40 10,-18 17,-41 21,-70 l 15,-119 c 4,-28 3,-53 -2,-72 -6,-20 -15,-37 -29,-49 -14,-12 -31,-22 -51,-29 -21,-7 -46,-13 -75,-17 l -196,-25 c -30,-4 -55,-5 -77,-3 -22,1 -41,6 -57,15 -16,9 -29,22 -40,40 -10,18 -17,41 -21,70 l -15,119 z m 136,-65 c 4,-27 11,-47 24,-58 12,-12 33,-16 63,-12 l 143,18 c 30,4 50,13 59,28 8,14 11,35 7,62 l -5,43 c -4,30 -11,51 -22,61 -11,10 -30,14 -58,10 l -157,-20 c -28,-4 -46,-12 -54,-25 -7,-13 -9,-34 -6,-64 l 6,-43 z m 482,282 120,-3 -7,-289 2,0 168,285 92,-2 155,-293 1,0 7,289 120,-3 -10,-402 -189,4 -133,263 -146,-256 -189,4 9,403 z m 754,-47 382,-88 c 19,-4 35,-10 48,-16 14,-6 25,-14 34,-24 9,-10 15,-23 17,-38 3,-15 2,-33 -3,-54 -7,-30 -18,-51 -32,-63 -14,-12 -35,-16 -62,-14 l 0,-1 c 9,-5 17,-10 22,-15 6,-5 11,-12 15,-19 3,-8 5,-17 5,-28 1,-12 -1,-25 -5,-42 -8,-37 -26,-61 -52,-71 -27,-11 -64,-10 -114,1 l -346,80 91,392 z m 84,-183 215,-50 c 15,-3 26,-3 34,0 9,3 14,11 17,23 3,11 1,19 -6,25 -6,6 -16,10 -30,14 l -216,49 -14,-61 z m -33,-142 213,-49 c 11,-3 21,-3 28,1 7,3 12,11 14,21 3,11 1,20 -3,26 -5,6 -14,10 -25,13 l -213,49 -14,-61 z m 501,200 126,-57 3,-79 228,-103 65,49 125,-57 -368,-275 -146,66 -33,456 z m 144,-404 136,105 -144,65 8,-170 z m 231,-87 146,-94 163,255 104,-67 -163,-254 145,-94 -54,-84 -395,254 54,84 z m 735,-315 c 20,21 40,36 59,44 19,8 37,11 55,8 19,-3 37,-10 55,-21 19,-12 39,-28 60,-48 l 107,-103 c 30,-28 52,-50 67,-68 15,-17 26,-34 32,-50 5,-16 5,-33 0,-50 -6,-17 -19,-36 -39,-57 l -79,-82 -200,191 58,60 111,-106 8,9 c 6,6 10,13 12,20 1,6 1,13 -1,19 -2,6 -6,12 -10,18 -5,6 -11,12 -17,19 l -96,91 c -11,11 -22,19 -30,24 -9,5 -18,8 -26,7 -8,0 -17,-3 -26,-9 -9,-6 -20,-16 -32,-29 l -35,-36 c -12,-13 -21,-24 -27,-33 -5,-10 -8,-19 -8,-27 0,-8 3,-16 8,-25 6,-8 14,-18 26,-30 l 97,-92 c 16,-15 29,-24 40,-27 11,-2 23,3 36,16 l 87,-83 -9,-10 c -15,-15 -29,-27 -42,-36 -13,-8 -28,-12 -43,-13 -16,0 -33,5 -53,16 -19,10 -41,27 -66,51 l -134,128 c -21,20 -38,39 -51,57 -12,18 -20,36 -24,54 -3,18 -1,37 6,56 8,19 22,40 42,60 l 82,87 z m 355,-609 112,-157 c 12,-17 22,-27 32,-31 9,-4 21,-1 35,9 l 11,8 c 12,9 19,18 20,27 1,10 -3,21 -12,35 l -118,166 -80,-57 z m 175,276 71,-101 -85,-60 112,-158 c 12,-16 23,-24 33,-26 11,-1 25,5 43,17 l 39,28 71,-101 -55,-39 c -13,-9 -25,-16 -36,-19 -11,-4 -21,-5 -29,-4 -9,2 -17,4 -24,9 -8,4 -15,10 -23,17 l -1,0 c 11,-26 13,-47 6,-64 -8,-16 -23,-33 -46,-50 l -21,-15 c -16,-11 -30,-19 -44,-24 -14,-5 -28,-7 -42,-6 -14,2 -27,7 -41,17 -13,9 -27,23 -40,42 l -216,304 328,233 z m 203,-544 c 26,13 49,21 70,22 20,2 39,-1 55,-10 16,-8 31,-21 45,-38 14,-17 27,-39 41,-65 l 90,-176 c 14,-26 23,-50 29,-71 6,-21 8,-40 5,-59 -3,-18 -11,-35 -24,-51 -13,-15 -33,-30 -58,-43 l -107,-55 c -26,-13 -49,-21 -69,-22 -21,-2 -39,1 -56,10 -16,9 -31,21 -45,38 -13,17 -27,39 -40,65 l -91,176 c -13,26 -23,50 -29,71 -6,21 -8,40 -5,59 3,18 11,35 24,51 13,15 33,30 58,43 l 107,55 z m -14,-150 c -25,-12 -40,-26 -47,-42 -7,-15 -4,-36 10,-63 l 66,-129 c 14,-27 29,-42 46,-45 16,-4 37,1 61,13 l 39,20 c 27,14 43,28 49,42 6,13 3,33 -10,58 l -72,140 c -13,25 -27,39 -41,42 -15,3 -36,-2 -63,-16 l -38,-20 z m 278,-403 c 49,14 88,11 119,-8 30,-19 53,-56 69,-110 l 48,-170 c 16,-54 16,-97 0,-130 -16,-32 -48,-55 -97,-69 l -249,-71 -33,118 223,64 c 25,7 41,17 48,30 8,13 8,32 1,56 l -33,117 c -7,25 -17,40 -30,47 -14,7 -33,7 -57,0 l -224,-64 -34,119 249,71 z m 292,-544 16,-123 -100,-13 31,-243 c 3,-20 1,-38 -4,-54 -5,-16 -14,-29 -25,-39 -11,-10 -24,-18 -39,-24 -14,-6 -29,-10 -45,-12 l -34,-4 c -21,-3 -40,-3 -57,-1 -17,3 -32,8 -46,18 -13,9 -24,22 -34,40 -9,18 -15,41 -19,70 l -43,333 399,52 z m -284,-161 24,-180 c 2,-18 7,-30 15,-37 8,-7 19,-9 33,-8 l 16,2 c 13,2 23,7 29,14 7,7 10,18 8,31 l -24,191 -101,-13 z"
       id="path3512"
       inkscape:connector-curvature="0"
       style="fill:#a0d211;fill-rule:nonzero" /><circle
       class="fil3"
       cy="11000"
       r="3740"
       id="circle3514"
       cx="0"
       style="fill:none" /><path
       class="fil5"
       d="m 0,8126 2519,4259 0,0 c -330,-363 -896,-646 -1582,-783 l 0,0 -937,-1586 -733,1240 c 521,0 910,89 1177,276 -145,-13 -293,-20 -444,-20 -1096,0 -2047,354 -2519,873 l 0,0 L 0,8126 Z"
       id="path3516"
       inkscape:connector-curvature="0"
       style="fill:#a0d211" /><path
       class="fil6"
       d="m -3564,10252 366,61 -28,166 -163,32 c -28,5 -46,9 -52,10 -7,1 -11,2 -15,2 -3,1 -9,2 -19,4 -9,1 -25,4 -50,8 l 0,5 23,2 c 3,1 6,1 8,1 2,0 4,1 6,1 2,0 5,1 9,1 36,5 66,9 90,13 l 146,24 -16,96 -365,-60 27,-166 164,-32 c 35,-7 56,-11 61,-12 6,-1 29,-6 70,-12 l 0,-4 -22,-3 -11,-2 c -35,-4 -68,-8 -99,-13 l -146,-24 16,-98 z"
       id="path3518"
       inkscape:connector-curvature="0"
       style="fill:#ffffff;fill-rule:nonzero" /><path
       id="1"
       class="fil6"
       d="m -3503,10003 c 4,-15 9,-29 13,-42 4,-12 9,-22 13,-30 5,-8 9,-15 15,-22 23,-27 53,-39 90,-37 16,1 46,7 89,19 22,6 37,10 47,13 9,3 17,5 24,8 6,2 12,5 18,8 17,8 31,17 41,28 10,11 17,24 21,39 4,16 5,33 3,54 -2,21 -7,45 -15,73 -5,20 -10,36 -15,49 -5,13 -11,23 -16,32 -6,9 -13,17 -21,24 -12,11 -25,18 -38,22 -13,4 -28,5 -45,4 -18,-2 -41,-7 -70,-15 -34,-9 -60,-17 -79,-24 -19,-7 -33,-13 -44,-20 -11,-7 -19,-15 -25,-25 -6,-7 -11,-16 -15,-27 -3,-10 -6,-21 -7,-33 0,-12 0,-23 2,-34 3,-18 7,-39 14,-64 z m 130,114 12,3 c 3,1 8,3 13,4 5,2 8,2 9,3 1,0 2,0 3,1 24,6 42,11 53,12 12,2 22,2 29,-1 7,-3 13,-9 17,-17 4,-8 8,-22 14,-41 4,-15 6,-27 6,-35 0,-9 -3,-17 -9,-23 -5,-5 -14,-11 -27,-16 -13,-5 -31,-11 -54,-17 -26,-8 -44,-12 -54,-14 -10,-1 -18,-2 -25,0 -6,1 -11,3 -15,7 -4,4 -8,9 -11,17 -3,7 -7,17 -10,30 -6,22 -9,37 -7,47 1,9 7,18 17,25 7,5 20,10 39,15 z"
       inkscape:connector-curvature="0"
       style="fill:#ffffff;fill-rule:nonzero" /><path
       id="2"
       class="fil6"
       d="m -3079,9905 -345,-134 68,-175 c 8,-21 15,-37 22,-48 7,-12 14,-20 21,-26 14,-13 30,-20 47,-21 17,-1 38,4 64,14 26,10 45,19 57,28 11,8 19,18 22,29 3,12 3,28 0,48 l 4,2 c 6,-14 14,-25 22,-32 9,-7 19,-11 30,-12 12,0 25,2 39,8 l 64,25 -37,94 -46,-18 c -17,-7 -30,-9 -39,-6 -9,4 -16,12 -22,27 l -27,69 92,35 -36,93 z m -134,-159 29,-74 c 4,-10 5,-18 5,-24 -1,-6 -5,-12 -11,-16 -7,-5 -18,-11 -35,-17 -12,-5 -21,-7 -28,-7 -6,-1 -11,2 -16,7 -4,4 -9,13 -13,25 l -27,69 96,37 z"
       inkscape:connector-curvature="0"
       style="fill:#ffffff;fill-rule:nonzero" /><path
       id="3"
       class="fil6"
       d="m -3019,9186 -47,82 -5,-3 c -14,-7 -24,-9 -31,-5 -8,3 -17,15 -28,34 -7,14 -12,24 -15,33 -2,8 -2,14 1,20 3,5 9,10 17,15 9,5 16,7 22,6 6,0 12,-4 17,-10 1,-1 2,-2 2,-3 1,-1 5,-7 13,-19 8,-12 15,-22 21,-31 15,-25 28,-42 37,-52 10,-11 20,-19 30,-24 8,-4 17,-6 25,-7 9,0 18,1 28,4 10,4 22,9 36,17 22,13 39,25 49,35 10,10 17,22 20,34 3,16 2,33 -4,50 -5,18 -17,42 -35,74 -17,31 -32,55 -45,71 -12,16 -24,27 -36,33 -11,6 -24,8 -39,7 -8,-1 -18,-4 -27,-8 -10,-4 -24,-11 -41,-20 l 47,-83 5,3 c 16,9 28,10 36,5 5,-4 9,-8 12,-12 3,-5 9,-14 17,-29 10,-18 16,-29 18,-35 2,-5 1,-11 -1,-17 -2,-7 -8,-13 -19,-19 -8,-5 -15,-7 -20,-7 -6,0 -11,3 -16,8 -4,4 -10,11 -17,22 l -6,10 -6,9 -6,9 c -18,27 -31,45 -40,55 -8,11 -17,19 -27,24 -12,8 -27,11 -42,9 -16,-2 -35,-10 -59,-23 -20,-12 -35,-23 -45,-34 -9,-11 -15,-23 -16,-37 -2,-14 1,-30 8,-49 7,-19 18,-42 34,-71 18,-30 32,-52 43,-65 11,-13 22,-22 34,-27 24,-11 53,-7 86,12 6,3 11,6 15,9 z"
       inkscape:connector-curvature="0"
       style="fill:#ffffff;fill-rule:nonzero" /><polygon
       id="4"
       class="fil6"
       points="-2968,9046 -3022,9123 -3091,9075 -2923,8834 -2854,8882 -2911,8964 -2677,9128 -2734,9210 "
       style="fill:#ffffff;fill-rule:nonzero" /><path
       id="5"
       class="fil6"
       d="m -2608,9020 -277,-247 125,-139 c 15,-17 27,-30 37,-38 11,-8 20,-14 29,-17 18,-7 35,-8 51,-3 16,5 35,17 56,36 21,18 35,34 43,45 8,12 12,24 11,36 -2,11 -7,27 -17,45 l 3,3 c 11,-11 22,-19 32,-22 11,-4 21,-4 32,-1 11,4 23,10 34,21 l 51,45 -67,75 -37,-32 c -13,-12 -25,-19 -34,-19 -10,0 -20,6 -30,17 l -49,55 73,65 -66,75 z m -70,-196 52,-59 c 8,-8 12,-15 14,-21 1,-6 -1,-12 -5,-19 -5,-7 -14,-16 -27,-28 -9,-8 -17,-14 -23,-16 -6,-3 -12,-2 -18,1 -5,3 -12,9 -21,18 l -49,55 77,69 z"
       inkscape:connector-curvature="0"
       style="fill:#ffffff;fill-rule:nonzero" /><path
       id="6"
       class="fil6"
       d="m -2256,8548 -96,92 32,58 -75,71 -176,-344 108,-104 338,189 -73,70 -58,-32 z m -64,-39 -145,-84 79,148 66,-64 z"
       inkscape:connector-curvature="0"
       style="fill:#ffffff;fill-rule:nonzero" /><polygon
       id="7"
       class="fil6"
       points="-1907,8343 -2107,8500 -2336,8209 -2257,8148 -2081,8372 -1959,8277 "
       style="fill:#ffffff;fill-rule:nonzero" /><polygon
       id="8"
       class="fil6"
       points="-2095,8027 -2014,7970 -1801,8273 -1883,8330 "
       style="fill:#ffffff;fill-rule:nonzero" /><path
       id="9"
       class="fil6"
       d="m -1597,8079 -116,64 16,65 -91,50 -82,-378 131,-73 279,269 -89,49 -48,-46 z m -51,-53 -119,-119 38,163 81,-44 z"
       inkscape:connector-curvature="0"
       style="fill:#ffffff;fill-rule:nonzero" /><path
       id="10"
       class="fil6"
       d="m -1119,7527 138,344 -156,63 -113,-123 c -19,-21 -31,-35 -35,-39 -5,-5 -8,-9 -10,-12 -2,-2 -7,-7 -13,-14 -6,-7 -17,-20 -33,-38 l -4,2 10,21 c 1,3 2,5 3,7 1,2 2,4 3,6 1,2 2,4 3,7 15,34 27,62 36,84 l 55,138 -90,36 -138,-344 155,-62 113,123 c 25,26 39,42 43,46 4,4 19,22 47,53 l 3,-1 -9,-20 -4,-11 c -15,-32 -29,-63 -40,-91 l -55,-138 91,-37 z"
       inkscape:connector-curvature="0"
       style="fill:#ffffff;fill-rule:nonzero" /><path
       id="11"
       class="fil6"
       d="m -851,7459 c 15,-4 30,-6 43,-8 13,-2 24,-3 33,-3 9,0 18,1 26,2 35,8 60,29 75,62 7,15 16,44 26,88 5,22 9,38 11,47 2,10 3,18 4,25 1,7 2,14 2,20 1,19 -1,36 -6,50 -5,14 -13,26 -24,37 -12,11 -27,20 -46,28 -20,8 -43,15 -72,21 -20,5 -37,8 -50,10 -14,2 -26,2 -36,1 -11,-1 -21,-3 -31,-7 -15,-6 -28,-13 -38,-23 -9,-9 -17,-22 -24,-38 -7,-16 -14,-39 -20,-68 -8,-35 -14,-62 -17,-82 -2,-19 -3,-36 -2,-48 0,-13 3,-24 9,-34 4,-9 9,-17 17,-25 8,-9 16,-16 26,-22 10,-7 20,-12 31,-15 17,-6 38,-12 63,-18 z m -39,169 3,12 c 0,3 1,8 2,13 1,5 2,8 2,9 0,1 1,2 1,3 5,25 10,43 14,54 4,11 9,19 15,24 6,5 14,7 23,7 9,-1 23,-3 43,-7 15,-4 26,-8 34,-12 8,-4 13,-10 15,-18 3,-7 4,-18 2,-32 -1,-13 -5,-32 -10,-56 -6,-26 -11,-44 -14,-54 -3,-9 -7,-16 -12,-22 -3,-5 -8,-8 -13,-10 -5,-2 -12,-2 -20,-2 -8,1 -19,3 -32,6 -22,5 -37,10 -44,16 -8,6 -13,15 -14,27 -1,8 0,22 5,42 z"
       inkscape:connector-curvature="0"
       style="fill:#ffffff;fill-rule:nonzero" /><path
       id="12"
       class="fil6"
       d="m -565,7779 -47,-367 186,-24 c 22,-3 39,-4 53,-4 13,1 24,3 33,6 18,6 31,17 40,31 9,15 15,36 18,64 4,28 5,49 3,63 -1,14 -6,25 -15,33 -9,9 -23,17 -42,24 l 0,4 c 16,-1 29,0 39,4 10,4 19,11 25,21 6,10 10,23 12,38 l 8,67 -100,13 -6,-49 c -3,-18 -7,-30 -14,-36 -7,-7 -18,-9 -34,-7 l -73,9 12,98 -98,12 z m 75,-193 79,-10 c 11,-1 19,-4 24,-7 5,-4 8,-10 9,-18 1,-8 0,-21 -2,-39 -2,-12 -4,-22 -7,-27 -3,-6 -8,-10 -14,-11 -6,-2 -16,-2 -28,0 l -74,9 13,103 z"
       inkscape:connector-curvature="0"
       style="fill:#ffffff;fill-rule:nonzero" /><polygon
       id="13"
       class="fil6"
       points="-138,7449 -232,7451 -234,7366 60,7361 61,7446 -39,7447 -34,7733 -133,7735 "
       style="fill:#ffffff;fill-rule:nonzero" /><polygon
       id="14"
       class="fil6"
       points="333,7604 205,7593 193,7738 94,7730 125,7360 223,7369 212,7509 340,7519 352,7379 451,7387 420,7757 321,7749 "
       style="fill:#ffffff;fill-rule:nonzero" /><polygon
       id="15"
       class="fil6"
       points="607,7412 571,7556 515,7547 527,7399 "
       style="fill:#ffffff;fill-rule:nonzero" /><path
       id="16"
       class="fil6"
       d="m 840,7695 96,21 -2,11 c -5,23 -10,41 -16,54 -5,13 -12,23 -20,29 -8,7 -19,13 -33,18 -10,3 -20,5 -28,6 -9,0 -20,0 -33,-3 -13,-2 -33,-6 -58,-12 -21,-4 -36,-8 -48,-11 -11,-4 -20,-7 -28,-11 -7,-4 -14,-8 -20,-13 -16,-14 -27,-30 -32,-48 -5,-19 -6,-42 -2,-69 2,-10 6,-32 13,-64 l 3,-20 5,-20 c 6,-28 14,-50 23,-67 9,-16 21,-28 36,-37 18,-11 36,-16 56,-16 20,-1 51,4 93,13 31,7 53,13 66,19 13,5 24,12 33,22 7,6 12,14 15,23 4,9 6,18 7,29 0,11 -1,24 -3,37 -1,8 -2,13 -3,18 -1,4 -2,10 -3,16 l -97,-21 c 1,-2 1,-4 1,-5 0,-1 0,-2 0,-2 3,-13 3,-22 1,-29 -1,-6 -6,-11 -14,-15 -8,-4 -20,-8 -37,-12 -18,-4 -31,-5 -40,-3 -9,2 -16,8 -21,17 -4,6 -7,16 -11,30 -4,13 -10,38 -18,74 -4,19 -6,34 -5,45 1,10 6,18 13,24 8,5 20,10 38,14 16,4 29,5 39,5 9,-1 16,-4 21,-9 5,-6 8,-15 11,-28 1,-4 2,-7 2,-10 z"
       inkscape:connector-curvature="0"
       style="fill:#ffffff;fill-rule:nonzero" /><polygon
       id="17"
       class="fil6"
       points="1230,7803 1081,7752 1058,7821 1221,7876 1195,7953 938,7867 1055,7515 1310,7601 1284,7678 1124,7624 1103,7687 1252,7737 "
       style="fill:#ffffff;fill-rule:nonzero" /><path
       id="18"
       class="fil6"
       d="m 1725,7784 -152,338 -154,-69 11,-167 c 2,-28 3,-46 4,-52 0,-7 1,-12 1,-15 0,-4 1,-10 2,-19 0,-9 2,-26 4,-51 l -4,-1 -8,21 c -2,4 -3,6 -3,8 -1,2 -2,4 -3,6 0,2 -1,4 -3,8 -13,34 -25,62 -35,84 l -61,135 -88,-40 151,-338 153,69 -11,166 c -2,36 -3,57 -3,63 -1,5 -3,29 -6,70 l 3,2 8,-21 5,-10 c 13,-34 25,-64 38,-92 l 61,-136 90,41 z"
       inkscape:connector-curvature="0"
       style="fill:#ffffff;fill-rule:nonzero" /><polygon
       id="19"
       class="fil6"
       points="1827,7950 1747,7900 1793,7828 2041,7985 1995,8057 1911,8003 1758,8244 1674,8191 "
       style="fill:#ffffff;fill-rule:nonzero" /><path
       id="20"
       class="fil6"
       d="m 1868,8309 229,-290 147,116 c 18,14 31,25 40,35 9,10 15,19 19,27 8,18 10,35 6,51 -5,17 -15,36 -33,58 -17,22 -32,37 -43,46 -11,9 -22,13 -34,12 -12,0 -27,-5 -46,-13 l -3,3 c 12,10 20,20 24,31 4,10 5,20 2,32 -3,11 -9,23 -18,35 l -43,53 -78,-62 30,-39 c 12,-14 17,-26 17,-36 -1,-9 -7,-19 -19,-28 l -58,-46 -61,77 -78,-62 z m 191,-81 62,49 c 9,7 16,11 22,12 6,1 12,-1 19,-6 6,-5 15,-14 26,-28 8,-10 13,-18 15,-25 2,-6 1,-12 -2,-17 -3,-6 -10,-12 -20,-20 l -58,-46 -64,81 z"
       inkscape:connector-curvature="0"
       style="fill:#ffffff;fill-rule:nonzero" /><path
       id="21"
       class="fil6"
       d="m 2353,8643 -95,-92 -57,34 -75,-72 338,-190 108,105 -176,345 -73,-70 30,-60 z m 36,-65 78,-148 -144,84 66,64 z"
       inkscape:connector-curvature="0"
       style="fill:#ffffff;fill-rule:nonzero" /><polygon
       id="22"
       class="fil6"
       points="2576,8980 2407,8788 2685,8543 2751,8617 2537,8807 2640,8923 "
       style="fill:#ffffff;fill-rule:nonzero" /><polygon
       id="23"
       class="fil6"
       points="2918,9246 2837,9120 2723,9193 2669,9110 2981,8910 3122,9130 3054,9174 2966,9037 2905,9076 2986,9203 "
       style="fill:#ffffff;fill-rule:nonzero" /><path
       id="24"
       class="fil6"
       d="m 2830,9360 328,-172 87,166 c 10,20 17,36 22,48 4,13 6,24 6,33 0,19 -5,36 -15,49 -11,14 -29,27 -54,40 -25,13 -44,21 -58,24 -14,4 -26,3 -36,-3 -11,-5 -23,-15 -37,-31 l -4,2 c 6,14 10,27 9,38 0,11 -3,21 -10,30 -7,9 -18,17 -32,25 l -60,31 -47,-90 44,-23 c 16,-8 26,-17 29,-26 4,-8 2,-20 -5,-33 l -34,-66 -87,46 -46,-88 z m 207,3 37,70 c 5,10 10,16 15,20 5,3 12,4 20,2 7,-2 19,-7 35,-15 11,-6 19,-11 24,-16 4,-5 6,-10 5,-17 0,-6 -4,-15 -10,-26 l -34,-66 -92,48 z"
       inkscape:connector-curvature="0"
       style="fill:#ffffff;fill-rule:nonzero" /><path
       id="25"
       class="fil6"
       d="m 3401,9697 c 6,15 11,29 15,41 4,13 6,23 8,32 1,9 1,18 1,26 -3,36 -19,64 -50,84 -14,9 -42,22 -83,39 -21,8 -36,14 -45,17 -10,3 -18,6 -24,8 -7,2 -14,4 -20,5 -19,3 -35,4 -50,1 -15,-2 -28,-9 -40,-18 -12,-10 -24,-24 -34,-42 -11,-17 -22,-40 -32,-67 -8,-19 -14,-35 -17,-48 -4,-13 -6,-25 -7,-36 0,-10 1,-21 3,-31 3,-16 9,-29 17,-40 8,-12 19,-22 34,-31 15,-9 37,-19 65,-30 33,-12 59,-22 78,-28 19,-5 34,-9 47,-10 12,-1 24,1 35,4 9,3 18,7 28,14 9,6 17,14 25,22 8,9 14,19 19,28 9,16 18,36 27,60 z m -173,-13 -11,4 c -3,1 -7,3 -12,5 -5,1 -8,3 -9,3 -1,1 -2,1 -3,1 -23,9 -40,17 -51,22 -10,6 -17,12 -21,18 -4,7 -5,15 -4,24 2,9 6,23 13,41 6,14 11,25 17,32 5,7 12,11 20,13 8,1 18,0 31,-3 14,-4 31,-10 54,-19 26,-10 43,-17 51,-22 9,-4 16,-9 21,-14 4,-5 7,-10 8,-15 1,-6 0,-12 -2,-20 -1,-8 -5,-18 -10,-30 -8,-21 -15,-35 -22,-42 -7,-7 -17,-10 -29,-9 -8,0 -22,3 -41,11 z"
       inkscape:connector-curvature="0"
       style="fill:#ffffff;fill-rule:nonzero" /><path
       id="26"
       class="fil6"
       d="m 3574,10305 -361,82 -38,-164 139,-92 c 24,-15 39,-25 45,-28 5,-4 9,-7 12,-8 3,-2 8,-6 16,-11 8,-5 22,-14 43,-26 l -1,-5 -22,7 c -3,1 -6,1 -8,2 -2,0 -4,1 -6,1 -2,1 -5,2 -8,3 -36,9 -65,17 -88,22 l -145,33 -22,-95 361,-82 38,163 -139,92 c -30,20 -48,32 -53,35 -4,3 -24,16 -59,37 l 0,4 22,-6 11,-2 c 34,-10 66,-18 96,-25 l 145,-33 22,96 z"
       inkscape:connector-curvature="0"
       style="fill:#ffffff;fill-rule:nonzero" /><polygon
       id="27"
       class="fil6"
       points="3514,10471 3502,10378 3586,10367 3623,10658 3539,10669 3526,10569 3243,10605 3230,10507 "
       style="fill:#ffffff;fill-rule:nonzero" /></g></svg>