<?xml version="1.0" encoding="UTF-8" standalone="no"?>
<!-- Creator: CorelDRAW X7 -->

<svg
   xmlns:dc="http://purl.org/dc/elements/1.1/"
   xmlns:cc="http://creativecommons.org/ns#"
   xmlns:rdf="http://www.w3.org/1999/02/22-rdf-syntax-ns#"
   xmlns:svg="http://www.w3.org/2000/svg"
   xmlns="http://www.w3.org/2000/svg"
   xmlns:sodipodi="http://sodipodi.sourceforge.net/DTD/sodipodi-0.dtd"
   xmlns:inkscape="http://www.inkscape.org/namespaces/inkscape"
   xml:space="preserve"
   width="7.8740005in"
   height="7.8740005in"
   version="1.1"
   style="clip-rule:evenodd;fill-rule:evenodd;image-rendering:optimizeQuality;shape-rendering:geometricPrecision;text-rendering:geometricPrecision"
   viewBox="0 0 7874.0005 7874.0005"
   id="svg3364"
   inkscape:version="0.91 r13725"
   sodipodi:docname="Other - Black-C Combat Group - [N3] [Vyo].svg"><metadata
     id="metadata3416"><rdf:RDF><cc:Work
         rdf:about=""><dc:format>image/svg+xml</dc:format><dc:type
           rdf:resource="http://purl.org/dc/dcmitype/StillImage" /></cc:Work></rdf:RDF></metadata><sodipodi:namedview
     pagecolor="#ffffff"
     bordercolor="#666666"
     borderopacity="1"
     objecttolerance="10"
     gridtolerance="10"
     guidetolerance="10"
     inkscape:pageopacity="0"
     inkscape:pageshadow="2"
     inkscape:window-width="640"
     inkscape:window-height="480"
     id="namedview3414"
     showgrid="false"
     inkscape:zoom="0.23838384"
     inkscape:cx="736.83001"
     inkscape:cy="849.33005"
     inkscape:window-x="0"
     inkscape:window-y="0"
     inkscape:window-maximized="0"
     inkscape:current-layer="svg3364" /><defs
     id="defs3366"><style
       type="text/css"
       id="style3368"><![CDATA[
    .fil3 {fill:none}
    .fil0 {fill:black}
    .fil1 {fill:#0080B1}
    .fil2 {fill:white}
    .fil6 {fill:white}
    .fil4 {fill:black;fill-rule:nonzero}
    .fil5 {fill:white;fill-rule:nonzero}
   ]]></style></defs><g
     id="Layer_x0020_1"
     transform="translate(3937,-7063)"><metadata
       id="CorelCorpID_0Corel-Layer" /><circle
       class="fil0"
       cy="11000"
       r="3937"
       id="circle3372"
       cx="0"
       style="fill:#000000" /><circle
       class="fil1"
       cy="11000"
       r="3858"
       id="circle3374"
       cx="0"
       style="fill:#0080b1" /><circle
       class="fil2"
       cy="11000"
       r="2913"
       id="circle3376"
       cx="0"
       style="fill:#ffffff" /><circle
       class="fil3"
       cy="11000"
       r="3740"
       id="circle3378"
       cx="0"
       style="fill:none" /><path
       class="fil4"
       d="m -3604,11212 50,389 c 3,19 7,36 12,50 5,14 12,26 20,36 9,10 21,16 36,21 15,4 33,4 54,2 30,-4 52,-13 66,-26 13,-13 20,-33 20,-60 l 1,0 c 5,9 9,17 13,24 5,6 10,11 18,16 7,4 16,7 27,8 11,1 25,1 42,-1 38,-5 63,-20 76,-45 13,-25 16,-63 10,-114 l -46,-352 -399,52 z m 174,102 28,219 c 2,15 1,26 -2,34 -4,8 -12,13 -25,14 -11,2 -19,-1 -24,-8 -5,-7 -9,-18 -11,-32 l -28,-219 62,-8 z m 145,-19 28,217 c 1,11 0,21 -4,27 -4,7 -12,11 -23,13 -11,1 -19,-1 -25,-7 -5,-5 -9,-14 -10,-25 l -28,-217 62,-8 z m -230,514 110,385 99,-28 -76,-267 288,-82 -34,-118 -387,110 z m 114,413 57,125 80,4 103,228 -49,64 56,125 276,-367 -66,-146 -457,-33 z m 404,144 -104,135 -65,-144 169,9 z m -17,365 c -24,16 -41,34 -52,51 -11,18 -17,35 -16,54 0,18 4,37 13,57 8,20 21,42 38,66 l 115,163 c 18,24 35,43 51,55 16,13 32,20 47,23 15,2 29,1 43,-4 14,-5 29,-13 44,-23 l 31,-22 -72,-101 c -10,7 -19,12 -26,15 -8,2 -14,2 -20,0 -7,-3 -13,-7 -19,-13 -5,-7 -13,-16 -22,-29 l -76,-107 c -16,-23 -22,-42 -18,-56 4,-15 18,-31 43,-48 l 36,-25 c 22,-16 41,-23 58,-22 17,1 34,13 52,38 l 78,110 c 11,16 17,29 18,40 1,11 -4,21 -15,29 l -9,6 71,101 c 25,-18 44,-35 56,-49 13,-15 20,-31 21,-49 2,-17 -3,-38 -14,-62 -10,-24 -28,-54 -53,-89 l -84,-118 c -17,-24 -34,-44 -50,-59 -15,-15 -32,-25 -49,-31 -18,-6 -37,-7 -57,-3 -20,5 -42,16 -65,32 l -98,70 z m 241,580 86,89 111,-107 38,40 11,235 121,126 -20,-318 293,22 -116,-122 -215,-10 -39,-42 106,-102 -85,-89 -291,278 z m 482,349 117,102 66,-76 -118,-102 -65,76 z m 204,113 c -16,24 -25,46 -29,67 -4,20 -2,39 5,56 7,17 18,33 34,48 15,15 36,31 61,47 l 167,107 c 25,16 48,27 68,32 20,5 37,7 52,3 15,-3 28,-10 39,-19 11,-10 21,-23 31,-39 l 21,-31 -104,-67 c -7,11 -13,19 -19,24 -6,5 -13,7 -19,7 -7,1 -14,-1 -22,-5 -8,-4 -18,-10 -31,-18 l -111,-71 c -24,-15 -36,-30 -38,-45 -2,-15 6,-35 22,-61 l 23,-36 c 15,-23 30,-37 46,-43 16,-5 37,0 63,17 l 113,72 c 16,10 27,20 32,30 5,10 4,21 -3,32 l -6,10 104,66 c 16,-26 28,-48 34,-66 6,-19 6,-36 1,-53 -5,-17 -18,-35 -37,-53 -19,-18 -46,-38 -83,-62 l -122,-78 c -25,-16 -48,-28 -68,-36 -20,-7 -39,-11 -58,-10 -18,1 -36,7 -53,19 -17,12 -33,30 -49,54 l -64,102 z m 744,425 c -9,28 -13,52 -12,72 2,21 8,39 19,54 10,14 25,27 44,39 18,11 42,21 70,31 l 188,64 c 28,10 53,15 73,16 21,0 38,-3 52,-9 13,-7 24,-17 33,-29 8,-12 16,-27 22,-44 l 12,-36 -117,-40 c -4,12 -8,21 -13,27 -5,6 -10,10 -16,12 -7,2 -14,2 -23,0 -8,-2 -20,-5 -34,-10 l -125,-43 c -26,-9 -42,-20 -47,-34 -6,-15 -3,-36 7,-65 l 14,-41 c 9,-26 20,-43 34,-52 15,-9 36,-9 65,1 l 127,44 c 18,6 31,13 38,22 8,8 9,19 5,32 l -4,10 117,40 c 10,-29 16,-53 17,-73 2,-19 -2,-36 -11,-51 -9,-15 -25,-29 -48,-42 -23,-14 -55,-27 -96,-41 l -137,-47 c -28,-10 -53,-16 -74,-19 -22,-3 -41,-2 -59,4 -18,5 -33,15 -47,31 -14,15 -25,37 -35,64 l -39,113 z m 547,188 c -4,29 -3,53 2,73 6,20 15,36 29,48 13,13 30,23 51,30 20,7 45,12 75,16 l 196,25 c 29,4 55,5 76,4 22,-2 41,-7 58,-16 16,-9 29,-22 40,-40 10,-17 17,-41 20,-69 l 16,-119 c 3,-29 3,-53 -3,-73 -5,-20 -15,-36 -28,-49 -14,-12 -31,-22 -52,-29 -20,-7 -45,-13 -75,-16 l -196,-26 c -29,-3 -55,-5 -76,-3 -22,1 -41,7 -57,15 -16,9 -30,22 -40,40 -10,18 -17,41 -21,70 l -15,119 z m 136,-65 c 3,-27 11,-46 23,-58 12,-12 33,-16 64,-12 l 143,19 c 30,4 49,13 58,27 9,15 12,35 8,63 l -5,43 c -4,30 -12,50 -23,60 -10,11 -30,14 -58,10 l -156,-20 c -28,-3 -46,-12 -54,-24 -8,-13 -10,-35 -6,-65 l 6,-43 z m 482,285 120,-3 -7,-289 1,0 168,285 93,-2 154,-292 2,0 6,288 120,-2 -9,-402 -189,4 -134,262 -145,-256 -190,5 10,402 z m 754,-42 382,-88 c 19,-5 35,-10 48,-16 14,-7 25,-15 34,-25 9,-10 15,-22 17,-37 3,-15 2,-33 -3,-54 -7,-30 -18,-51 -32,-63 -14,-12 -35,-17 -62,-14 l 0,-2 c 9,-5 17,-10 22,-15 6,-5 11,-11 15,-19 3,-7 5,-16 5,-28 1,-11 -1,-25 -5,-41 -9,-37 -26,-61 -52,-72 -27,-10 -65,-9 -114,2 l -346,80 91,392 z m 84,-183 215,-50 c 15,-3 26,-3 34,0 9,3 14,10 17,23 3,10 1,19 -6,25 -6,5 -16,10 -31,13 l -215,50 -14,-61 z m -33,-143 213,-49 c 11,-2 21,-2 28,2 7,3 12,10 14,21 3,11 1,19 -3,25 -5,6 -14,11 -25,13 l -213,50 -14,-62 z m 497,191 128,-50 8,-80 232,-92 62,52 127,-50 -353,-293 -149,59 -55,454 z m 163,-396 130,111 -146,58 16,-169 z m 226,-97 150,-86 150,262 107,-61 -150,-262 151,-87 -50,-86 -408,233 50,87 z m 731,-294 c 20,21 39,36 58,44 19,8 37,11 56,8 18,-2 36,-9 54,-21 19,-11 39,-27 60,-48 l 107,-102 c 30,-29 52,-51 67,-68 15,-18 26,-34 32,-51 6,-16 6,-33 0,-50 -6,-17 -19,-36 -38,-56 l -80,-83 -199,191 57,60 111,-106 8,9 c 6,6 10,13 12,20 1,7 1,13 -1,19 -2,7 -6,13 -10,19 -5,5 -11,12 -17,18 l -95,91 c -12,11 -22,19 -31,24 -9,6 -18,8 -26,8 -8,-1 -17,-4 -26,-10 -9,-6 -20,-16 -32,-28 l -35,-37 c -12,-12 -21,-24 -27,-33 -5,-9 -8,-18 -8,-27 0,-8 3,-16 8,-25 6,-8 14,-18 26,-29 l 97,-93 c 16,-15 29,-24 40,-27 11,-2 23,3 36,17 l 87,-84 -8,-9 c -15,-16 -30,-28 -43,-36 -13,-9 -28,-13 -43,-13 -16,-1 -33,4 -53,15 -19,10 -41,27 -66,51 l -134,128 c -21,20 -38,40 -51,57 -12,18 -20,36 -23,54 -4,18 -2,37 6,56 7,20 21,40 41,61 l 83,86 z m 357,-606 112,-157 c 12,-17 22,-27 32,-31 9,-4 21,-1 35,9 l 11,8 c 12,8 19,18 20,27 1,10 -3,21 -12,34 l -118,167 -80,-57 z m 175,276 71,-101 -85,-60 113,-159 c 11,-15 22,-24 33,-25 10,-1 24,5 42,17 l 39,28 71,-101 -55,-39 c -13,-10 -25,-16 -36,-20 -11,-3 -21,-4 -29,-3 -9,1 -17,4 -24,8 -8,5 -15,11 -23,18 l -1,-1 c 11,-25 13,-47 6,-63 -7,-17 -23,-33 -46,-50 l -21,-15 c -16,-11 -30,-19 -44,-24 -14,-5 -28,-7 -42,-6 -14,2 -27,7 -41,16 -13,10 -27,24 -40,43 l -216,304 328,233 z m 206,-543 c 25,14 49,21 69,23 21,1 39,-2 56,-11 16,-8 31,-21 44,-38 14,-17 28,-38 41,-65 l 91,-176 c 13,-26 23,-50 29,-70 6,-21 7,-41 5,-60 -3,-18 -11,-35 -24,-51 -13,-15 -33,-29 -59,-43 l -106,-55 c -26,-13 -49,-20 -70,-22 -20,-2 -39,2 -55,10 -16,9 -31,22 -45,39 -14,16 -27,38 -41,64 l -90,176 c -14,27 -24,50 -30,71 -6,21 -7,41 -4,59 2,18 10,35 24,51 13,16 32,30 58,43 l 107,55 z m -15,-150 c -24,-12 -40,-26 -47,-42 -7,-15 -3,-36 11,-63 l 66,-129 c 14,-27 29,-42 45,-45 17,-4 37,1 62,14 l 38,19 c 27,14 44,28 50,42 6,14 3,33 -10,58 l -72,140 c -13,25 -27,39 -42,42 -14,4 -35,-2 -62,-16 l -39,-20 z m 283,-401 c 48,14 88,11 118,-8 31,-19 54,-56 69,-110 l 49,-170 c 15,-54 15,-98 -1,-130 -16,-32 -48,-56 -96,-69 l -249,-71 -34,118 223,64 c 25,7 41,17 49,30 7,13 8,31 1,56 l -34,117 c -7,24 -17,40 -30,47 -13,7 -32,7 -57,0 l -223,-64 -34,119 249,71 z m 295,-544 15,-122 -100,-13 32,-243 c 2,-21 1,-39 -5,-55 -5,-15 -13,-28 -25,-38 -11,-11 -24,-19 -38,-24 -15,-6 -30,-10 -46,-12 l -34,-5 c -21,-2 -40,-2 -57,0 -17,2 -32,8 -45,17 -14,9 -25,23 -34,41 -9,18 -16,41 -19,69 l -43,334 399,51 z m -284,-161 23,-180 c 2,-18 7,-30 16,-37 8,-7 19,-9 33,-7 l 15,2 c 13,1 23,6 30,13 7,8 9,18 8,32 l -25,190 -100,-13 z"
       id="path3380"
       inkscape:connector-curvature="0"
       style="fill:#000000;fill-rule:nonzero" /><circle
       class="fil3"
       cy="11000"
       r="3740"
       id="circle3382"
       cx="0"
       style="fill:none" /><polygon
       class="fil5"
       points="-3550,10688 -3295,10533 -3276,10382 -3594,10341 -3607,10439 -3375,10469 -3375,10469 -3630,10624 -3649,10776 -3330,10816 -3318,10718 -3550,10689 "
       id="polygon3384"
       style="fill:#ffffff;fill-rule:nonzero" /><path
       id="1"
       class="fil5"
       d="m -3380,10313 c 22,6 41,8 58,6 16,-2 30,-8 41,-17 12,-9 21,-22 29,-37 8,-16 15,-35 22,-58 l 42,-152 c 6,-23 10,-43 11,-60 1,-18 -1,-33 -6,-47 -5,-14 -14,-26 -27,-36 -13,-10 -31,-18 -53,-25 l -93,-25 c -22,-6 -41,-8 -58,-6 -16,2 -30,7 -41,17 -11,9 -21,22 -29,37 -8,16 -15,35 -21,58 l -42,152 c -7,23 -10,43 -12,60 -1,18 1,33 6,47 5,14 14,26 27,36 13,10 31,18 53,25 l 93,25 z m -36,-115 c -21,-6 -36,-14 -44,-25 -8,-11 -8,-28 -2,-51 l 31,-112 c 6,-23 16,-38 28,-43 12,-5 29,-5 50,1 l 34,9 c 23,6 38,14 45,24 7,10 8,26 2,47 l -34,122 c -6,22 -14,35 -25,40 -11,5 -28,4 -52,-3 l -33,-9 z"
       inkscape:connector-curvature="0"
       style="fill:#ffffff;fill-rule:nonzero" /><path
       id="2"
       class="fil5"
       d="m -3325,9690 63,-140 c 6,-15 13,-25 20,-30 7,-4 16,-3 29,2 l 10,4 c 10,5 17,11 19,19 3,7 2,17 -4,28 l -66,149 -71,-32 z m 180,189 40,-90 -76,-34 63,-142 c 6,-14 14,-22 22,-25 8,-2 20,0 36,7 l 35,16 40,-90 -49,-23 c -12,-5 -22,-8 -32,-9 -9,-1 -16,-1 -23,2 -7,2 -12,6 -18,10 -5,5 -10,10 -14,17 l -1,0 c 4,-22 2,-39 -6,-51 -8,-11 -23,-22 -44,-31 l -19,-9 c -13,-6 -26,-10 -38,-12 -12,-2 -23,-1 -33,2 -11,3 -21,10 -30,19 -9,10 -18,23 -25,40 l -122,272 294,131 z"
       inkscape:connector-curvature="0"
       style="fill:#ffffff;fill-rule:nonzero" /><path
       id="3"
       class="fil5"
       d="m -3037,9444 c 15,9 29,14 41,15 12,2 23,0 34,-6 10,-5 20,-14 30,-26 10,-13 21,-29 33,-49 l 59,-104 c 17,-30 29,-55 37,-73 8,-19 11,-35 11,-49 -1,-13 -5,-25 -14,-35 -9,-11 -23,-21 -43,-32 -21,-12 -38,-19 -52,-21 -14,-2 -28,1 -40,10 -13,8 -26,22 -39,41 -13,19 -31,47 -51,83 -14,25 -25,44 -33,57 -8,13 -15,22 -20,27 -6,6 -11,9 -15,9 -4,1 -9,-1 -15,-4 -7,-4 -11,-10 -11,-18 -1,-8 2,-17 8,-27 l 54,-95 c 10,-19 19,-29 25,-31 7,-3 16,-1 27,6 l 49,-86 -9,-5 c -14,-8 -26,-14 -37,-17 -11,-3 -22,-3 -34,0 -11,3 -22,11 -35,23 -12,13 -25,31 -38,55 l -68,120 c -15,26 -25,48 -29,66 -4,18 -5,33 -1,44 4,12 10,22 19,29 9,8 21,16 36,25 19,10 34,17 47,20 12,2 24,1 35,-5 11,-6 23,-18 37,-35 13,-18 29,-43 47,-76 18,-31 31,-54 40,-69 9,-14 16,-24 22,-31 6,-7 11,-10 16,-11 4,-1 10,1 17,5 9,5 14,12 13,20 -1,8 -4,18 -11,29 l -60,106 c -7,13 -15,22 -21,25 -7,3 -18,1 -32,-7 l -48,86 19,11 z"
       inkscape:connector-curvature="0"
       style="fill:#ffffff;fill-rule:nonzero" /><polygon
       id="4"
       class="fil5"
       points="-2607,8934 -2796,8785 -2710,8676 -2774,8627 -3006,8922 -2943,8972 -2857,8863 -2668,9012 "
       style="fill:#ffffff;fill-rule:nonzero" /><path
       id="5"
       class="fil5"
       d="m -2612,8571 108,-111 c 11,-12 21,-19 29,-21 8,-2 17,2 27,12 l 7,7 c 9,8 13,16 13,24 0,8 -5,16 -14,26 l -113,117 -57,-54 z m 106,239 69,-71 -61,-58 108,-112 c 11,-11 20,-16 29,-16 9,0 19,7 31,18 l 28,27 69,-71 -40,-38 c -9,-9 -17,-15 -26,-19 -8,-4 -15,-6 -22,-6 -7,0 -14,1 -20,3 -7,3 -13,7 -20,12 l -1,-1 c 12,-19 16,-36 12,-50 -3,-14 -13,-29 -30,-45 l -15,-14 c -11,-11 -21,-19 -32,-24 -10,-6 -21,-9 -32,-10 -11,0 -22,2 -34,8 -12,6 -24,16 -37,29 l -207,215 231,223 z"
       inkscape:connector-curvature="0"
       style="fill:#ffffff;fill-rule:nonzero" /><path
       id="6"
       class="fil5"
       d="m -2223,8516 87,-68 -13,-63 158,-123 59,26 86,-68 -337,-144 -101,79 61,361 z m 35,-341 125,55 -99,78 -26,-133 z"
       inkscape:connector-curvature="0"
       style="fill:#ffffff;fill-rule:nonzero" /><polygon
       id="7"
       class="fil5"
       points="-1786,8095 -1902,7886 -1988,7934 -1832,8215 -1552,8060 -1592,7988 "
       style="fill:#ffffff;fill-rule:nonzero" /><polygon
       id="8"
       class="fil5"
       points="-1678,7761 -1530,8046 -1442,8001 -1591,7715 "
       style="fill:#ffffff;fill-rule:nonzero" /><path
       id="9"
       class="fil5"
       d="m -1428,7987 102,-41 6,-63 185,-75 50,42 102,-41 -284,-233 -119,48 -42,363 z m 129,-317 104,88 -117,46 13,-134 z"
       inkscape:connector-curvature="0"
       style="fill:#ffffff;fill-rule:nonzero" /><polygon
       id="10"
       class="fil5"
       points="-717,7511 -497,7711 -346,7686 -399,7369 -496,7385 -458,7616 -459,7616 -680,7416 -830,7441 -777,7758 -680,7742 -718,7512 "
       style="fill:#ffffff;fill-rule:nonzero" /><path
       id="11"
       class="fil5"
       d="m -310,7566 c 0,23 4,42 10,58 7,15 17,26 29,35 12,8 26,14 44,17 17,3 37,4 61,4 l 158,-3 c 23,0 44,-3 61,-6 17,-4 31,-11 43,-20 12,-8 21,-20 27,-36 6,-15 9,-34 8,-57 l -2,-96 c 0,-23 -4,-42 -10,-57 -7,-15 -16,-27 -28,-35 -12,-8 -27,-14 -44,-17 -17,-3 -38,-5 -61,-4 l -158,2 c -24,1 -44,3 -61,7 -17,4 -32,10 -44,19 -11,8 -20,20 -26,36 -7,15 -9,34 -9,57 l 2,96 z m 100,-67 c 0,-22 3,-38 12,-49 8,-10 24,-16 48,-16 l 116,-2 c 24,-1 40,4 49,14 9,11 13,27 14,49 l 0,34 c 1,25 -3,41 -10,51 -7,9 -22,14 -45,15 l -126,2 c -22,0 -37,-4 -45,-13 -8,-9 -12,-26 -12,-50 l -1,-35 z"
       inkscape:connector-curvature="0"
       style="fill:#ffffff;fill-rule:nonzero" /><path
       id="12"
       class="fil5"
       d="m 300,7439 153,19 c 17,2 28,6 34,11 6,6 9,15 7,29 l -1,10 c -2,12 -6,20 -12,25 -6,4 -16,6 -29,4 l -162,-20 10,-78 z m -128,227 98,13 10,-83 154,19 c 16,2 26,7 31,14 5,7 6,19 4,36 l -5,38 98,13 7,-55 c 1,-12 1,-23 0,-32 -2,-9 -5,-16 -9,-22 -4,-5 -9,-10 -15,-14 -6,-3 -13,-6 -21,-9 l 0,-1 c 22,-2 38,-9 47,-20 9,-11 15,-28 18,-51 l 2,-20 c 2,-15 2,-29 1,-41 -2,-11 -6,-22 -12,-31 -6,-9 -15,-17 -27,-23 -11,-6 -27,-10 -45,-12 l -296,-38 -40,319 z"
       inkscape:connector-curvature="0"
       style="fill:#ffffff;fill-rule:nonzero" /><polygon
       id="13"
       class="fil5"
       points="816,7772 869,7536 1005,7567 1022,7489 656,7406 638,7484 773,7515 720,7750 "
       style="fill:#ffffff;fill-rule:nonzero" /><polygon
       id="14"
       class="fil5"
       points="1302,7807 1258,7920 1350,7956 1467,7656 1375,7620 1333,7727 1140,7651 1182,7544 1090,7508 973,7808 1064,7844 1109,7731 "
       style="fill:#ffffff;fill-rule:nonzero" /><polygon
       id="15"
       class="fil5"
       points="1514,7952 1538,7906 1750,8019 1781,7960 1570,7847 1594,7802 1817,7920 1852,7854 1541,7689 1391,7974 1707,8141 1743,8073 "
       style="fill:#ffffff;fill-rule:nonzero" /><path
       id="16"
       class="fil5"
       d="m 1961,8016 126,89 c 14,9 22,18 25,25 3,8 1,17 -7,28 l -6,9 c -7,10 -14,15 -22,17 -8,1 -17,-2 -28,-10 l -133,-94 45,-64 z m -220,142 81,56 48,-68 127,89 c 13,9 19,17 20,26 1,9 -3,20 -13,34 l -22,31 81,57 31,-45 c 8,-10 13,-20 16,-28 2,-9 3,-17 2,-24 -1,-7 -3,-13 -7,-19 -3,-6 -8,-12 -14,-18 l 1,0 c 20,8 37,9 50,3 14,-5 27,-18 40,-37 l 12,-16 c 9,-13 15,-25 19,-36 4,-11 6,-22 5,-33 -2,-11 -6,-22 -14,-33 -7,-11 -19,-21 -34,-32 l -244,-171 -185,264 z"
       inkscape:connector-curvature="0"
       style="fill:#ffffff;fill-rule:nonzero" /><polygon
       id="17"
       class="fil5"
       points="2336,8310 2307,8607 2417,8713 2640,8481 2569,8413 2407,8581 2407,8580 2435,8284 2325,8178 2102,8409 2173,8478 2335,8310 "
       style="fill:#ffffff;fill-rule:nonzero" /><polygon
       id="18"
       class="fil5"
       points="2861,9090 2922,9046 2789,8863 2838,8828 2977,9020 3040,8975 2843,8703 2582,8891 2640,8971 2729,8907 "
       style="fill:#ffffff;fill-rule:nonzero" /><path
       id="19"
       class="fil5"
       d="m 3060,9164 75,134 c 8,15 11,26 11,34 -1,8 -7,16 -19,22 l -9,6 c -11,5 -19,7 -27,5 -7,-3 -14,-9 -20,-21 l -80,-143 69,-37 z m -259,31 47,86 73,-41 76,136 c 7,13 9,24 6,33 -2,8 -11,16 -26,24 l -34,19 48,86 48,-27 c 11,-6 20,-12 26,-19 7,-6 11,-13 13,-20 2,-6 3,-13 2,-20 -1,-7 -2,-14 -5,-22 l 1,-1 c 15,17 30,25 44,26 14,1 32,-4 52,-16 l 18,-10 c 13,-7 24,-15 32,-23 9,-8 15,-18 19,-28 4,-10 4,-22 2,-35 -2,-13 -8,-28 -17,-44 l -144,-261 -281,157 z"
       inkscape:connector-curvature="0"
       style="fill:#ffffff;fill-rule:nonzero" /><path
       id="20"
       class="fil5"
       d="m 3119,9530 c -22,8 -38,18 -50,30 -12,11 -20,24 -23,39 -4,14 -4,29 -1,47 3,17 8,36 17,58 l 57,148 c 9,22 18,40 28,55 9,14 20,26 33,34 12,8 26,12 43,13 16,0 35,-4 56,-12 l 90,-35 c 21,-9 38,-18 50,-30 12,-11 19,-24 23,-38 3,-15 4,-30 1,-48 -3,-17 -9,-36 -18,-58 l -57,-148 c -9,-22 -18,-40 -27,-55 -9,-15 -20,-26 -33,-34 -12,-8 -26,-12 -43,-13 -16,0 -35,4 -57,12 l -89,35 z m 97,71 c 21,-8 37,-10 50,-6 13,4 24,17 33,40 l 42,108 c 9,22 10,39 3,51 -7,12 -20,22 -41,30 l -32,12 c -23,9 -39,11 -51,8 -11,-4 -21,-16 -29,-37 l -46,-118 c -8,-21 -9,-36 -3,-47 5,-10 20,-20 42,-29 l 32,-12 z"
       inkscape:connector-curvature="0"
       style="fill:#ffffff;fill-rule:nonzero" /><polygon
       id="21"
       class="fil5"
       points="3438,10063 3252,10296 3286,10445 3600,10373 3578,10277 3350,10329 3350,10328 3536,10095 3502,9946 3189,10018 3211,10114 3438,10062 "
       style="fill:#ffffff;fill-rule:nonzero" /><polygon
       id="22"
       class="fil5"
       points="3314,10702 3554,10672 3571,10810 3651,10800 3604,10427 3525,10437 3542,10574 3302,10604 "
       style="fill:#ffffff;fill-rule:nonzero" /><path
       class="fil0"
       d="m -481,10942 c -567,51 -972,186 -1494,369 67,-285 144,-547 144,-842 0,-296 -77,-558 -144,-843 516,181 919,316 1478,367 -57,-564 -206,-990 -389,-1511 320,91 545,175 886,175 341,0 566,-84 886,-175 -183,521 -332,947 -389,1511 559,-51 962,-186 1477,-367 -66,285 -143,547 -143,843 0,295 77,557 143,842 -521,-183 -926,-318 -1493,-369 38,888 201,1711 388,2573 -304,-97 -541,-192 -869,-192 -328,0 -565,95 -869,192 187,-862 350,-1685 388,-2573 z"
       id="path3408"
       inkscape:connector-curvature="0"
       style="fill:#000000" /><path
       class="fil6"
       d="m 410,10079 c 546,-40 950,-154 1455,-331 -58,251 -113,457 -113,721 0,263 55,469 113,720 -509,-178 -916,-293 -1466,-332 29,874 179,1691 364,2541 -270,-86 -468,-154 -763,-154 -295,0 -493,68 -763,154 185,-850 335,-1667 364,-2541 -550,40 -957,154 -1466,332 58,-251 113,-457 113,-720 0,-264 -55,-470 -113,-721 505,177 909,291 1455,331 -45,-550 -172,-970 -351,-1479 281,80 457,136 761,136 304,0 480,-56 761,-136 -179,509 -306,929 -351,1479 z"
       id="path3410"
       inkscape:connector-curvature="0"
       style="fill:#ffffff" /><path
       class="fil0"
       d="m -1647,9991 c 408,143 888,234 1406,256 -24,-494 -118,-976 -271,-1412 138,39 314,59 512,59 198,0 374,-20 512,-59 -153,436 -247,918 -271,1412 518,-22 998,-113 1406,-256 -34,144 -53,306 -53,478 0,171 19,333 53,477 -409,-143 -890,-235 -1409,-256 13,906 160,1773 313,2475 -141,-45 -366,-78 -551,-78 -185,0 -410,33 -551,78 153,-702 300,-1569 313,-2475 -519,22 -1000,113 -1409,256 34,-144 53,-306 53,-477 0,-172 -19,-334 -53,-478 z"
       id="path3412"
       inkscape:connector-curvature="0"
       style="fill:#000000" /></g></svg>