<?xml version="1.0" encoding="UTF-8" standalone="no"?>
<!-- Creator: CorelDRAW X7 -->

<svg
   xmlns:dc="http://purl.org/dc/elements/1.1/"
   xmlns:cc="http://creativecommons.org/ns#"
   xmlns:rdf="http://www.w3.org/1999/02/22-rdf-syntax-ns#"
   xmlns:svg="http://www.w3.org/2000/svg"
   xmlns="http://www.w3.org/2000/svg"
   xmlns:sodipodi="http://sodipodi.sourceforge.net/DTD/sodipodi-0.dtd"
   xmlns:inkscape="http://www.inkscape.org/namespaces/inkscape"
   xml:space="preserve"
   width="7.8740005in"
   height="7.8740005in"
   version="1.1"
   style="clip-rule:evenodd;fill-rule:evenodd;image-rendering:optimizeQuality;shape-rendering:geometricPrecision;text-rendering:geometricPrecision"
   viewBox="0 0 7874.0005 7874.0005"
   id="svg2"
   inkscape:version="0.91 r13725"
   sodipodi:docname="Other - 0-12 Logo - [N3] [Vyo].svg"><metadata
     id="metadata36"><rdf:RDF><cc:Work
         rdf:about=""><dc:format>image/svg+xml</dc:format><dc:type
           rdf:resource="http://purl.org/dc/dcmitype/StillImage" /></cc:Work></rdf:RDF></metadata><sodipodi:namedview
     pagecolor="#ffffff"
     bordercolor="#666666"
     borderopacity="1"
     objecttolerance="10"
     gridtolerance="10"
     guidetolerance="10"
     inkscape:pageopacity="0"
     inkscape:pageshadow="2"
     inkscape:window-width="640"
     inkscape:window-height="480"
     id="namedview34"
     showgrid="false"
     inkscape:zoom="0.23838384"
     inkscape:cx="736.83001"
     inkscape:cy="849.33005"
     inkscape:window-x="0"
     inkscape:window-y="0"
     inkscape:window-maximized="0"
     inkscape:current-layer="svg2" /><defs
     id="defs4"><style
       type="text/css"
       id="style6"><![CDATA[
    .fil1 {fill:#27357E}
    .fil3 {fill:#FFCE00}
    .fil0 {fill:#FFF700}
    .fil2 {fill:#FFCE00;fill-rule:nonzero}
   ]]></style></defs><g
     id="Layer_x0020_1"
     transform="translate(3937,-7063)"><metadata
       id="CorelCorpID_0Corel-Layer" /><circle
       class="fil0"
       cy="11000"
       r="3937"
       id="circle10"
       cx="0"
       style="fill:#fff700" /><circle
       class="fil1"
       cy="11000"
       r="3780"
       id="circle12"
       cx="0"
       style="fill:#27357e" /><path
       class="fil0"
       d="m -1293,10670 -22,0 -522,448 -375,-447 679,-593 895,0 0,1825 -655,0 0,-1233 z m 1310,185 -355,0 -6,-72 c -2,-27 -3,-54 -3,-81 0,-151 4,-342 105,-464 80,-96 204,-132 323,-152 83,-13 167,-19 251,-22 110,-5 221,-6 332,-6 125,0 250,0 376,2 79,1 159,2 238,8 89,6 176,15 256,56 10,6 21,11 31,18 29,17 56,38 79,63 111,116 116,308 116,459 0,140 -5,297 -84,418 -113,173 -374,201 -561,213 -211,13 -422,25 -633,43 -40,3 -80,6 -119,12 -9,1 -25,3 -34,6 l -1,0 -2,1 c -3,1 -8,3 -13,6 l 1474,0 0,540 -2100,0 -6,-72 c -6,-68 -8,-129 -8,-197 0,-110 0,-224 9,-334 6,-64 15,-131 38,-192 56,-147 166,-216 297,-253 z m 288,-251 c -9,22 -11,95 -11,116 l 0,91 c 3,0 6,0 10,0 60,-6 119,-11 179,-15 l 1,0 1,-1 c 138,-7 276,-21 413,-32 31,-2 209,-15 234,-35 5,-10 5,-49 5,-59 0,-11 -1,-58 -8,-67 -2,-2 -10,-5 -13,-6 -23,-8 -60,-9 -84,-10 -88,-4 -177,-3 -265,-3 -112,0 -225,0 -336,6 -32,2 -94,5 -126,15 z"
       id="path14"
       inkscape:connector-curvature="0"
       style="fill:#fff700" /><path
       class="fil2"
       d="m -1504,10157 -598,522 275,328 483,-415 130,0 0,1232 497,0 0,-1667 -787,0 z m 1719,620 0,-58 c 3,-130 15,-170 59,-187 54,-20 189,-28 493,-28 260,0 331,3 375,18 56,20 74,55 74,147 0,138 -25,150 -312,173 -186,15 -324,27 -414,32 -155,13 -238,20 -255,23 -270,30 -385,92 -442,240 -32,82 -41,205 -41,497 0,80 0,105 7,190 l 1949,0 0,-382 -1493,0 0,-18 c 3,-82 20,-115 81,-140 32,-15 128,-22 814,-67 277,-15 429,-70 500,-178 52,-80 71,-180 71,-375 0,-272 -39,-385 -157,-455 -107,-65 -193,-72 -860,-72 -829,0 -932,62 -932,565 0,7 0,45 2,75 l 481,0 z"
       id="path16"
       inkscape:connector-curvature="0"
       style="fill:#ffce00;fill-rule:nonzero" /><path
       class="fil0"
       d="m 0,7614 c 1106,0 2088,531 2706,1351 -129,-28 -267,-9 -390,62 -145,83 -238,223 -267,376 C 1574,8793 833,8402 0,8402 c -930,0 -1746,489 -2205,1223 -45,-148 -151,-277 -304,-346 -130,-57 -270,-61 -395,-20 592,-985 1671,-1645 2904,-1645 z m 3116,2059 c 174,408 270,856 270,1327 0,681 -202,1316 -548,1847 -18,-130 -83,-255 -192,-346 -128,-108 -291,-147 -444,-121 251,-400 396,-873 396,-1380 0,-345 -67,-675 -189,-976 146,51 313,41 458,-43 123,-71 208,-182 249,-308 z m -805,3801 c -605,566 -1418,912 -2311,912 -1870,0 -3386,-1516 -3386,-3386 0,-346 52,-680 149,-994 53,121 149,223 279,281 153,68 320,60 460,-6 -65,228 -100,470 -100,719 0,1435 1163,2598 2598,2598 670,0 1280,-253 1741,-669 2,155 68,309 197,417 108,91 242,133 373,128 z"
       id="path18"
       inkscape:connector-curvature="0"
       style="fill:#fff700" /><path
       class="fil3"
       d="M -2191,9462 C -1692,8751 -878,8323 0,8323 c 779,0 1511,336 2019,918 53,-117 143,-216 257,-283 81,-46 169,-74 259,-82 C 1908,8128 985,7693 0,7693 c -1107,0 -2131,551 -2744,1460 91,-1 182,17 267,55 121,53 220,143 286,254 z m 5054,3194 c 292,-503 444,-1071 444,-1656 0,-388 -67,-771 -200,-1135 -52,75 -120,138 -201,184 -114,67 -245,94 -373,82 96,280 144,573 144,869 0,455 -114,899 -334,1295 129,11 253,61 354,146 71,59 127,133 166,215 z m -5473,-2255 c -126,25 -259,11 -380,-43 -85,-37 -159,-93 -219,-161 -65,262 -98,532 -98,803 0,1826 1481,3307 3307,3307 783,0 1533,-274 2128,-776 -88,-23 -170,-66 -241,-125 -101,-85 -172,-198 -204,-324 -476,386 -1067,595 -1683,595 -1479,0 -2677,-1198 -2677,-2677 0,-202 22,-403 67,-599 z"
       id="path20"
       inkscape:connector-curvature="0"
       style="fill:#ffce00" /><ellipse
       class="fil0"
       transform="matrix(-0.799351,-0.670735,0.701223,-0.835685,2292.1,12923.3)"
       rx="453"
       ry="433"
       id="ellipse22"
       cx="0"
       cy="0"
       style="fill:#fff700" /><ellipse
       class="fil0"
       transform="matrix(-0.903679,0.521739,-0.545455,-0.944755,2591.26,9503.94)"
       rx="453"
       ry="433"
       id="ellipse24"
       cx="0"
       cy="0"
       style="fill:#fff700" /><ellipse
       class="fil0"
       transform="matrix(0.953265,0.424421,-0.443713,0.996595,-2733.44,9782.99)"
       rx="453"
       ry="433"
       id="ellipse26"
       cx="0"
       cy="0"
       style="fill:#fff700" /><ellipse
       class="fil3"
       transform="matrix(-0.666125,-0.558946,0.58435,-0.696402,2292.1,12923.3)"
       rx="453"
       ry="433"
       id="ellipse28"
       cx="0"
       cy="0"
       style="fill:#ffce00" /><ellipse
       class="fil3"
       transform="matrix(-0.753065,0.434782,-0.454544,-0.787293,2591.26,9503.94)"
       rx="453"
       ry="433"
       id="ellipse30"
       cx="0"
       cy="0"
       style="fill:#ffce00" /><ellipse
       class="fil3"
       transform="matrix(0.794387,0.353684,-0.369759,0.830493,-2733.44,9782.99)"
       rx="453"
       ry="433"
       id="ellipse32"
       cx="0"
       cy="0"
       style="fill:#ffce00" /></g></svg>