<?xml version="1.0" encoding="UTF-8" standalone="no"?>
<!-- Creator: CorelDRAW X7 -->

<svg
   xmlns:dc="http://purl.org/dc/elements/1.1/"
   xmlns:cc="http://creativecommons.org/ns#"
   xmlns:rdf="http://www.w3.org/1999/02/22-rdf-syntax-ns#"
   xmlns:svg="http://www.w3.org/2000/svg"
   xmlns="http://www.w3.org/2000/svg"
   xmlns:sodipodi="http://sodipodi.sourceforge.net/DTD/sodipodi-0.dtd"
   xmlns:inkscape="http://www.inkscape.org/namespaces/inkscape"
   xml:space="preserve"
   width="7.8740005in"
   height="7.8740005in"
   version="1.1"
   style="clip-rule:evenodd;fill-rule:evenodd;image-rendering:optimizeQuality;shape-rendering:geometricPrecision;text-rendering:geometricPrecision"
   viewBox="0 0 7874.0005 7874.0005"
   id="svg3418"
   inkscape:version="0.91 r13725"
   sodipodi:docname="Other - Blue-S Combat Group - [N3] [Vyo].svg"><metadata
     id="metadata3470"><rdf:RDF><cc:Work
         rdf:about=""><dc:format>image/svg+xml</dc:format><dc:type
           rdf:resource="http://purl.org/dc/dcmitype/StillImage" /></cc:Work></rdf:RDF></metadata><sodipodi:namedview
     pagecolor="#ffffff"
     bordercolor="#666666"
     borderopacity="1"
     objecttolerance="10"
     gridtolerance="10"
     guidetolerance="10"
     inkscape:pageopacity="0"
     inkscape:pageshadow="2"
     inkscape:window-width="640"
     inkscape:window-height="480"
     id="namedview3468"
     showgrid="false"
     inkscape:zoom="0.23838384"
     inkscape:cx="736.83001"
     inkscape:cy="849.33005"
     inkscape:window-x="0"
     inkscape:window-y="0"
     inkscape:window-maximized="0"
     inkscape:current-layer="svg3418" /><defs
     id="defs3420"><style
       type="text/css"
       id="style3422"><![CDATA[
    .fil4 {fill:none}
    .fil0 {fill:black}
    .fil2 {fill:#0080B1}
    .fil3 {fill:#0B354D}
    .fil8 {fill:#1A97CF}
    .fil1 {fill:#1A97CF}
    .fil7 {fill:white}
    .fil5 {fill:#0080B1;fill-rule:nonzero}
    .fil6 {fill:white;fill-rule:nonzero}
   ]]></style></defs><g
     id="Layer_x0020_1"
     transform="translate(3937,-7063)"><metadata
       id="CorelCorpID_0Corel-Layer" /><circle
       class="fil0"
       cy="11000"
       r="3937"
       id="circle3426"
       cx="0"
       style="fill:#000000" /><circle
       class="fil1"
       cy="11000"
       r="3858"
       id="circle3428"
       cx="0"
       style="fill:#1a97cf" /><circle
       class="fil0"
       cy="11000"
       r="3780"
       id="circle3430"
       cx="0"
       style="fill:#000000" /><circle
       class="fil2"
       cy="11000"
       r="2992"
       id="circle3432"
       cx="0"
       style="fill:#0080b1" /><circle
       class="fil3"
       cy="11000"
       r="2874"
       id="circle3434"
       cx="0"
       style="fill:#0b354d" /><circle
       class="fil4"
       cy="11000"
       r="3740"
       id="circle3436"
       cx="0"
       style="fill:none" /><path
       class="fil5"
       d="m -3569,11554 89,383 c 4,18 9,34 15,47 7,14 15,25 25,34 10,9 22,15 37,18 15,2 33,1 54,-4 30,-7 51,-17 63,-32 12,-14 17,-35 14,-61 l 2,-1 c 5,9 10,17 15,23 5,6 11,10 19,14 7,3 16,5 28,6 11,0 25,-2 41,-6 38,-8 61,-26 72,-52 10,-26 9,-64 -2,-114 l -80,-346 -392,91 z m 183,84 50,216 c 3,14 4,25 1,34 -3,8 -11,14 -23,16 -11,3 -20,1 -25,-6 -6,-6 -11,-16 -14,-30 l -50,-216 61,-14 z m 143,-33 49,213 c 2,12 2,21 -1,28 -4,7 -11,12 -22,14 -11,3 -19,2 -25,-3 -6,-5 -11,-13 -13,-25 l -49,-213 61,-14 z m -180,535 148,372 96,-38 -103,-257 278,-111 -45,-114 -374,148 z m 298,362 c -43,25 -69,55 -77,91 -7,35 3,77 31,126 l 88,153 c 28,49 59,79 93,90 34,12 73,5 117,-20 l 225,-129 -62,-107 -201,116 c -22,12 -41,17 -55,13 -15,-3 -28,-16 -41,-38 l -61,-106 c -12,-22 -16,-40 -12,-54 4,-15 18,-28 40,-41 l 201,-115 -61,-107 -225,128 z m 188,588 276,352 76,-60 -200,-254 51,-40 185,236 65,-52 -185,-236 51,-39 195,249 74,-58 -272,-346 -316,248 z m 408,349 112,107 69,-72 -112,-108 -69,73 z m 177,161 c -13,17 -22,33 -26,48 -4,15 -4,29 1,43 5,14 14,28 28,42 13,15 31,31 54,49 l 118,93 c 34,27 62,46 83,60 22,13 41,20 58,22 16,2 32,-2 46,-11 15,-9 31,-24 48,-47 18,-23 30,-43 35,-60 5,-18 4,-35 -4,-52 -8,-17 -22,-35 -43,-55 -22,-21 -53,-47 -94,-79 -28,-22 -49,-39 -64,-51 -14,-13 -24,-23 -30,-31 -6,-7 -9,-14 -9,-19 1,-6 4,-12 9,-18 6,-8 14,-12 24,-11 10,1 20,6 32,15 l 107,85 c 21,16 33,29 34,37 2,9 -2,20 -12,32 l 97,77 8,-11 c 12,-15 21,-30 27,-43 6,-13 8,-26 6,-41 -1,-14 -9,-30 -22,-47 -13,-17 -33,-37 -60,-58 l -136,-106 c -29,-24 -55,-39 -76,-48 -21,-9 -39,-12 -55,-10 -15,3 -28,9 -39,18 -11,10 -23,23 -37,41 -16,21 -27,39 -33,53 -6,15 -6,30 0,45 5,15 17,32 36,51 19,20 47,44 85,74 35,27 61,48 77,61 16,14 27,25 35,33 7,9 10,16 10,22 0,6 -3,12 -9,20 -8,11 -18,15 -28,13 -10,-2 -21,-9 -34,-19 l -119,-93 c -16,-13 -25,-23 -28,-32 -2,-9 2,-22 14,-38 l -97,-76 -17,22 z m 712,456 c -12,26 -19,50 -19,71 -1,20 4,39 13,54 9,16 23,30 40,43 18,13 40,26 67,38 l 181,82 c 27,12 51,20 72,22 20,3 37,2 52,-4 14,-5 26,-13 35,-25 10,-11 19,-25 26,-42 l 16,-34 -113,-51 c -5,11 -10,20 -15,26 -5,5 -11,9 -18,10 -6,1 -14,0 -22,-2 -8,-3 -19,-7 -33,-14 l -120,-54 c -26,-12 -41,-25 -44,-39 -4,-15 0,-36 13,-63 l 18,-40 c 11,-25 24,-41 39,-49 15,-7 37,-5 64,8 l 123,55 c 17,8 29,17 36,26 6,9 7,19 1,32 l -5,10 113,51 c 13,-28 21,-52 24,-71 3,-19 1,-36 -7,-52 -7,-16 -22,-32 -43,-47 -21,-15 -52,-32 -91,-50 l -132,-59 c -27,-13 -51,-21 -72,-26 -22,-5 -41,-6 -59,-2 -18,3 -35,12 -50,26 -15,14 -29,35 -41,61 l -49,109 z m 526,239 c -7,28 -8,52 -5,73 4,20 12,37 24,51 12,13 28,25 48,34 20,9 44,17 73,23 l 192,45 c 29,6 55,10 76,10 22,1 42,-2 59,-9 17,-8 32,-19 43,-36 12,-17 21,-39 28,-67 l 27,-117 c 6,-28 8,-53 5,-73 -4,-20 -12,-37 -24,-51 -13,-14 -29,-25 -48,-34 -20,-9 -44,-17 -73,-24 l -193,-44 c -29,-7 -54,-10 -76,-11 -22,-1 -41,3 -58,10 -17,7 -32,19 -44,35 -12,17 -21,40 -27,68 l -27,117 z m 141,-51 c 7,-27 16,-46 30,-56 13,-10 34,-12 64,-6 l 141,33 c 29,7 48,18 55,33 7,15 8,36 2,63 l -10,42 c -7,30 -16,49 -28,58 -12,9 -31,11 -59,5 l -154,-36 c -27,-6 -44,-16 -51,-29 -6,-14 -6,-35 1,-65 l 9,-42 z m 453,328 119,9 22,-288 1,0 140,300 92,7 183,-275 1,0 -22,288 120,9 30,-401 -189,-15 -159,248 -119,-269 -189,-14 -30,401 z m 754,29 390,-50 c 18,-3 35,-6 49,-11 14,-5 26,-12 36,-21 10,-9 17,-21 21,-36 4,-14 4,-32 2,-54 -4,-30 -13,-52 -26,-66 -13,-13 -33,-20 -60,-20 l 0,-1 c 9,-4 17,-9 24,-13 6,-5 11,-10 16,-17 4,-7 7,-17 8,-28 2,-11 1,-25 -1,-41 -5,-39 -20,-64 -45,-77 -25,-13 -63,-16 -113,-9 l -352,45 51,399 z m 102,-174 219,-28 c 15,-2 26,-1 34,3 8,4 13,12 15,24 1,11 -2,19 -9,24 -7,6 -17,9 -32,11 l -219,28 -8,-62 z m -19,-145 217,-28 c 12,-1 21,0 27,4 7,4 11,12 13,23 1,11 -1,19 -6,25 -6,5 -14,9 -26,11 l -217,27 -8,-62 z m 476,238 132,-38 15,-78 241,-69 56,58 132,-38 -323,-326 -154,44 -99,447 z m 201,-379 119,123 -152,44 33,-167 z m 224,-56 154,-80 139,269 109,-57 -138,-269 154,-79 -46,-89 -418,216 46,89 z m 764,-242 c 18,22 36,39 54,49 18,10 36,15 54,14 19,-1 38,-6 57,-16 20,-10 41,-24 64,-42 l 117,-91 c 32,-25 57,-46 73,-61 17,-16 29,-32 37,-47 7,-16 9,-33 5,-50 -4,-18 -15,-38 -33,-60 l -70,-90 -218,170 51,66 121,-95 7,9 c 6,8 9,15 10,22 1,7 0,13 -3,19 -3,6 -7,12 -12,17 -5,5 -11,11 -19,17 l -103,81 c -13,10 -24,17 -33,21 -10,4 -18,6 -26,5 -9,-1 -17,-6 -25,-12 -9,-7 -19,-18 -30,-32 l -30,-39 c -11,-14 -19,-26 -24,-36 -5,-10 -7,-19 -6,-27 1,-9 5,-17 11,-25 6,-8 16,-17 29,-27 l 105,-82 c 18,-14 32,-21 43,-23 11,-1 22,5 34,20 l 95,-75 -8,-10 c -13,-17 -26,-30 -39,-40 -12,-9 -26,-15 -41,-17 -16,-2 -33,1 -54,10 -20,8 -44,23 -71,44 l -146,114 c -23,19 -42,36 -56,52 -14,17 -24,34 -29,52 -5,17 -5,36 0,56 6,20 17,41 35,64 l 74,95 z m 413,-569 126,-146 c 14,-16 26,-25 35,-28 10,-3 22,1 34,13 l 11,8 c 11,10 17,20 17,29 0,10 -5,21 -15,33 l -134,155 -74,-64 z m 148,291 81,-94 -79,-68 127,-147 c 12,-14 24,-22 35,-22 11,0 24,7 40,21 l 37,31 81,-93 -52,-45 c -12,-10 -23,-17 -34,-22 -10,-5 -20,-7 -29,-6 -8,0 -17,2 -24,6 -8,3 -16,9 -24,15 l -1,-1 c 13,-24 16,-45 11,-62 -5,-17 -19,-35 -41,-54 l -19,-17 c -14,-12 -28,-22 -42,-28 -13,-7 -27,-10 -41,-10 -13,0 -28,4 -42,12 -14,8 -29,21 -44,39 l -244,281 304,264 z m 257,-520 c 24,16 47,25 67,29 21,3 39,2 56,-5 17,-7 33,-19 48,-34 16,-16 31,-36 47,-61 l 107,-167 c 16,-25 27,-47 35,-67 8,-21 11,-40 10,-59 0,-18 -7,-36 -18,-53 -12,-17 -30,-33 -55,-48 l -101,-65 c -24,-15 -46,-25 -67,-29 -20,-3 -39,-2 -56,5 -17,7 -33,19 -48,34 -15,16 -31,36 -47,61 l -106,167 c -16,25 -28,47 -36,68 -8,20 -11,39 -10,58 1,18 7,36 19,53 12,17 30,33 54,48 l 101,65 z m -1,-151 c -23,-14 -37,-30 -42,-46 -6,-16 0,-36 16,-62 l 78,-122 c 16,-25 33,-39 50,-41 16,-2 36,5 59,20 l 37,23 c 25,16 41,32 45,46 5,14 0,33 -15,57 l -85,133 c -15,23 -30,36 -45,38 -15,1 -35,-6 -61,-22 l -37,-24 z m 320,-373 c 47,18 87,20 119,3 32,-16 58,-50 79,-103 l 64,-164 c 21,-53 25,-96 12,-129 -12,-34 -42,-60 -89,-79 l -241,-94 -45,115 216,84 c 24,10 39,21 45,35 7,14 5,32 -4,56 l -44,113 c -10,24 -21,38 -35,44 -14,6 -33,4 -57,-6 l -216,-84 -45,115 241,94 z m 346,-513 27,-120 -98,-23 55,-239 c 4,-20 5,-38 1,-54 -4,-16 -11,-30 -21,-41 -10,-12 -22,-21 -36,-28 -14,-7 -29,-13 -44,-16 l -34,-8 c -21,-5 -39,-7 -56,-6 -18,1 -33,5 -48,13 -14,7 -26,20 -37,37 -11,17 -20,39 -26,67 l -75,328 392,90 z m -267,-188 40,-177 c 5,-17 11,-29 20,-35 9,-6 20,-7 33,-4 l 16,3 c 12,3 22,9 28,17 6,8 7,18 4,32 l -43,187 -98,-23 z"
       id="path3438"
       inkscape:connector-curvature="0"
       style="fill:#0080b1;fill-rule:nonzero" /><circle
       class="fil4"
       cy="11000"
       r="3740"
       id="circle3440"
       cx="0"
       style="fill:none" /><path
       class="fil6"
       d="m -2973,9739 -338,-153 60,-132 17,-37 c 9,-20 16,-34 23,-43 6,-9 14,-16 25,-23 11,-8 23,-13 35,-15 12,-2 25,-2 41,2 15,4 33,10 53,19 27,13 48,25 63,37 15,11 24,24 29,38 4,14 4,30 0,48 0,4 -1,6 -1,8 -1,2 -2,5 -4,9 -1,5 -4,10 -7,17 l -5,13 -6,13 -1,5 -3,5 -2,5 -24,54 86,39 -41,91 z m -124,-166 26,-56 c 5,-14 9,-23 10,-26 1,-4 1,-7 0,-10 0,-6 -4,-11 -10,-15 -5,-5 -15,-10 -29,-17 -18,-8 -32,-11 -41,-9 -10,1 -18,9 -23,21 l -5,11 -26,57 98,44 z"
       id="path3442"
       inkscape:connector-curvature="0"
       style="fill:#ffffff;fill-rule:nonzero" /><path
       id="1"
       class="fil6"
       d="m -2763,9210 -71,113 44,49 -55,87 -254,-292 81,-127 373,103 -54,85 -64,-18 z m -72,-22 -160,-46 111,124 49,-78 z"
       inkscape:connector-curvature="0"
       style="fill:#ffffff;fill-rule:nonzero" /><path
       id="2"
       class="fil6"
       d="m -2629,9122 -292,-229 116,-148 c 14,-17 26,-30 36,-40 9,-9 18,-15 27,-19 17,-8 34,-10 51,-6 16,5 36,15 58,33 22,17 37,31 46,43 9,11 13,22 13,34 -1,12 -5,28 -14,47 l 3,2 c 10,-12 21,-19 31,-24 10,-4 21,-5 32,-2 11,2 23,9 35,18 l 53,42 -62,79 -39,-30 c -14,-11 -26,-17 -35,-16 -10,0 -19,6 -29,18 l -46,59 77,61 -61,78 z m -82,-191 49,-62 c 7,-9 11,-16 12,-22 1,-6 -1,-13 -6,-19 -5,-7 -14,-15 -28,-26 -11,-8 -19,-13 -25,-15 -6,-3 -12,-2 -18,1 -5,4 -12,10 -20,20 l -45,59 81,64 z"
       inkscape:connector-curvature="0"
       style="fill:#ffffff;fill-rule:nonzero" /><path
       id="3"
       class="fil6"
       d="m -2288,8633 -92,96 33,57 -71,74 -190,-337 104,-108 346,176 -71,73 -59,-31 z m -65,-36 -149,-78 85,145 64,-67 z"
       inkscape:connector-curvature="0"
       style="fill:#ffffff;fill-rule:nonzero" /><path
       id="4"
       class="fil6"
       d="m -2137,8574 -229,-292 152,-119 c 26,-20 50,-32 73,-38 23,-5 45,-3 66,7 20,9 40,27 60,51 0,0 6,8 17,24 l 25,31 c 17,22 29,40 37,53 8,14 13,26 15,37 3,12 3,24 0,36 -2,16 -8,31 -19,46 -11,14 -27,30 -50,48 l -147,116 z m 26,-128 63,-50 c 7,-5 12,-10 15,-15 4,-4 6,-9 7,-13 1,-5 1,-11 0,-17 -1,-9 -6,-20 -15,-33 0,0 -4,-6 -12,-17 -5,-7 -10,-14 -15,-20 -18,-23 -32,-39 -42,-47 -10,-9 -20,-13 -28,-12 -9,1 -20,7 -33,17 l -63,50 123,157 z"
       inkscape:connector-curvature="0"
       style="fill:#ffffff;fill-rule:nonzero" /><polygon
       id="5"
       class="fil6"
       points="-2033,8029 -1949,7976 -1748,8287 -1832,8341 "
       style="fill:#ffffff;fill-rule:nonzero" /><path
       id="6"
       class="fil6"
       d="m -1570,7885 -81,47 -3,-6 c -8,-13 -16,-20 -24,-20 -8,-1 -22,4 -41,15 -14,8 -24,15 -30,21 -6,6 -9,12 -10,18 0,6 2,13 7,22 5,8 10,14 16,16 5,3 12,3 20,0 1,0 2,-1 3,-1 1,-1 8,-4 21,-10 13,-7 24,-12 34,-17 26,-13 45,-21 59,-25 13,-5 26,-6 37,-6 10,1 18,3 25,7 8,4 15,10 22,18 7,8 14,19 22,32 13,23 22,42 25,56 4,14 4,27 0,39 -6,15 -15,29 -29,41 -13,13 -36,28 -67,46 -32,18 -57,31 -75,38 -19,8 -35,11 -48,10 -13,0 -25,-5 -37,-13 -7,-6 -14,-12 -20,-21 -6,-8 -15,-21 -24,-38 l 82,-47 3,5 c 9,15 18,23 28,22 6,0 12,-2 17,-4 5,-2 15,-8 30,-16 17,-10 28,-17 32,-21 5,-4 8,-9 9,-16 2,-7 0,-15 -6,-26 -5,-8 -10,-13 -15,-16 -5,-3 -11,-3 -18,-1 -6,1 -14,5 -25,10 l -11,6 -10,4 -10,6 c -28,13 -49,22 -62,27 -12,4 -24,7 -35,7 -15,0 -29,-5 -41,-15 -13,-9 -26,-26 -39,-49 -11,-20 -18,-37 -21,-52 -3,-14 -2,-28 4,-40 6,-13 16,-26 32,-38 16,-13 38,-27 66,-44 30,-17 54,-29 70,-35 16,-5 30,-7 43,-6 26,4 48,22 67,54 4,6 6,11 8,16 z"
       inkscape:connector-curvature="0"
       style="fill:#ffffff;fill-rule:nonzero" /><path
       id="7"
       class="fil6"
       d="m -1377,7670 c 14,-6 28,-11 41,-15 12,-4 23,-7 32,-8 9,-1 18,-2 26,-2 36,3 64,19 84,49 10,14 23,42 40,83 8,21 14,36 18,45 3,9 6,17 8,24 2,7 4,13 5,19 4,19 5,36 2,50 -3,15 -9,29 -18,41 -10,12 -24,24 -41,35 -18,11 -40,21 -68,32 -19,8 -35,14 -48,18 -13,4 -25,6 -35,7 -11,0 -21,0 -32,-3 -16,-3 -29,-8 -40,-16 -11,-8 -22,-19 -31,-34 -9,-15 -19,-36 -30,-64 -14,-33 -23,-59 -29,-78 -6,-19 -10,-35 -11,-47 -1,-13 0,-25 4,-35 2,-10 7,-19 13,-28 6,-10 14,-18 22,-26 9,-8 19,-14 28,-19 16,-9 36,-18 60,-28 z m -12,173 5,11 c 1,4 2,8 4,13 2,4 3,7 4,9 0,1 1,1 1,2 9,24 17,41 22,51 6,10 12,17 19,21 7,4 15,5 24,3 9,-1 22,-6 41,-13 14,-6 24,-12 31,-17 7,-5 11,-12 13,-20 1,-8 0,-19 -4,-32 -3,-13 -10,-31 -19,-53 -10,-26 -17,-43 -22,-51 -4,-9 -9,-16 -15,-20 -4,-5 -9,-7 -15,-8 -5,-1 -12,-1 -19,1 -8,2 -18,6 -31,11 -21,8 -34,16 -41,23 -7,7 -10,16 -9,28 0,9 4,22 11,41 z"
       inkscape:connector-curvature="0"
       style="fill:#ffffff;fill-rule:nonzero" /><path
       id="8"
       class="fil6"
       d="m -627,7451 82,361 -164,38 -92,-139 c -15,-24 -25,-39 -29,-45 -3,-5 -6,-9 -7,-12 -2,-3 -6,-8 -11,-16 -5,-8 -14,-22 -27,-43 l -4,1 6,22 c 1,4 2,6 3,8 0,2 1,4 1,6 1,2 2,5 3,8 9,36 17,65 22,88 l 33,145 -95,22 -83,-361 164,-38 92,139 c 20,30 32,48 35,53 3,5 15,24 37,59 l 4,0 -6,-22 -2,-11 c -10,-34 -19,-66 -25,-96 l -34,-145 97,-22 z"
       inkscape:connector-curvature="0"
       style="fill:#ffffff;fill-rule:nonzero" /><path
       id="9"
       class="fil6"
       d="m -271,7716 -131,16 -9,67 -103,13 63,-382 149,-19 159,353 -100,13 -28,-61 z m -28,-69 -67,-153 -24,165 91,-12 z"
       inkscape:connector-curvature="0"
       style="fill:#ffffff;fill-rule:nonzero" /><path
       id="10"
       class="fil6"
       d="m 86,7400 103,-2 -103,373 -153,2 -111,-369 101,-1 43,142 c 16,55 30,102 41,142 l 3,0 3,-12 2,-12 4,-12 c 4,-18 7,-31 8,-36 l 7,-24 7,-24 6,-24 39,-143 z"
       inkscape:connector-curvature="0"
       style="fill:#ffffff;fill-rule:nonzero" /><path
       id="11"
       class="fil6"
       d="m 424,7733 -132,-17 -25,62 -103,-14 158,-353 149,19 64,382 -100,-13 -11,-66 z m -10,-73 -26,-166 -66,155 92,11 z"
       inkscape:connector-curvature="0"
       style="fill:#ffffff;fill-rule:nonzero" /><polygon
       id="12"
       class="fil6"
       points="811,7871 562,7815 643,7454 741,7476 678,7754 830,7789 "
       style="fill:#ffffff;fill-rule:nonzero" /><path
       id="13"
       class="fil6"
       d="m 978,7916 134,-346 188,73 c 19,8 35,16 47,24 12,8 20,18 26,28 5,10 7,22 6,35 -1,13 -4,28 -11,45 -9,25 -21,42 -35,50 -14,9 -31,11 -53,6 l -1,1 c 16,8 28,16 34,25 8,9 11,20 10,33 0,13 -4,29 -11,48 -10,24 -20,41 -32,52 -12,11 -27,16 -44,16 -18,-1 -41,-6 -68,-17 l -190,-73 z m 173,-171 59,22 c 16,6 26,10 29,11 3,1 7,0 11,-1 8,-1 15,-10 21,-24 4,-11 5,-20 2,-25 -3,-6 -11,-11 -23,-16 l -75,-29 -24,62 z m -50,130 62,24 c 13,5 24,9 32,9 7,1 14,0 18,-3 5,-4 9,-10 12,-18 4,-10 6,-18 5,-24 0,-6 -3,-11 -8,-15 -2,-1 -11,-6 -28,-13 l -68,-26 -25,66 z"
       inkscape:connector-curvature="0"
       style="fill:#ffffff;fill-rule:nonzero" /><polygon
       id="14"
       class="fil6"
       points="1545,8162 1318,8046 1487,7716 1575,7761 1445,8016 1584,8087 "
       style="fill:#ffffff;fill-rule:nonzero" /><path
       id="15"
       class="fil6"
       d="m 1920,7952 c 13,8 25,16 36,24 11,8 19,15 25,22 7,6 12,13 16,20 20,30 23,62 10,97 -6,15 -21,42 -45,80 -12,19 -20,32 -26,41 -5,8 -10,15 -14,20 -4,6 -9,11 -13,15 -13,14 -26,25 -39,31 -14,7 -28,10 -44,9 -16,-1 -33,-5 -52,-13 -19,-8 -41,-20 -66,-36 -17,-11 -31,-21 -42,-29 -11,-8 -19,-17 -26,-25 -7,-8 -12,-17 -16,-27 -7,-14 -11,-28 -11,-42 0,-14 3,-28 10,-45 7,-16 19,-36 35,-62 18,-30 34,-52 46,-68 12,-16 23,-28 32,-36 10,-9 20,-14 31,-18 9,-3 19,-5 30,-5 11,-1 23,0 34,3 12,3 22,6 32,11 16,8 35,19 57,33 z m -147,91 -7,10 c -2,3 -4,6 -7,11 -3,4 -5,7 -5,8 -1,1 -1,2 -2,2 -13,21 -23,37 -28,48 -5,10 -7,20 -6,27 1,8 4,15 11,21 6,7 18,15 35,26 13,8 23,13 32,16 8,2 16,2 23,-2 8,-3 15,-10 24,-21 9,-10 19,-26 32,-46 15,-23 24,-39 29,-48 4,-8 7,-16 7,-24 1,-6 0,-11 -2,-16 -2,-5 -7,-10 -13,-15 -6,-6 -14,-12 -26,-19 -19,-12 -33,-19 -42,-20 -10,-2 -19,1 -29,9 -7,5 -16,16 -26,33 z"
       inkscape:connector-curvature="0"
       style="fill:#ffffff;fill-rule:nonzero" /><path
       id="16"
       class="fil6"
       d="m 2154,8408 78,62 -7,8 c -14,18 -27,32 -37,41 -11,10 -21,16 -32,19 -10,2 -22,3 -37,1 -11,-1 -20,-3 -28,-7 -8,-3 -17,-8 -28,-16 -11,-8 -27,-20 -48,-36 -16,-13 -29,-24 -38,-31 -8,-8 -15,-16 -20,-22 -5,-7 -10,-14 -13,-21 -9,-19 -11,-38 -8,-57 3,-19 12,-40 28,-63 6,-9 19,-26 39,-52 l 12,-17 12,-16 c 18,-22 35,-39 50,-50 15,-10 31,-16 49,-18 20,-2 39,2 57,10 18,8 44,25 78,52 25,20 43,35 52,45 9,11 16,22 20,35 4,9 5,18 4,27 0,10 -2,20 -7,30 -4,10 -10,21 -18,32 -4,6 -8,10 -10,14 -3,4 -6,8 -11,14 l -77,-62 c 1,-1 2,-2 3,-3 0,-1 0,-2 1,-3 7,-10 12,-18 13,-24 1,-7 -1,-14 -7,-21 -5,-7 -15,-16 -28,-27 -14,-11 -26,-17 -35,-19 -9,-3 -18,-1 -27,5 -5,5 -13,12 -22,22 -9,11 -26,31 -49,60 -12,15 -20,28 -23,38 -3,10 -3,19 2,27 4,9 13,19 28,30 13,10 24,17 32,21 9,3 17,4 24,1 7,-3 14,-10 22,-20 2,-3 5,-6 6,-9 z"
       inkscape:connector-curvature="0"
       style="fill:#ffffff;fill-rule:nonzero" /><polygon
       id="17"
       class="fil6"
       points="2601,8510 2684,8597 2462,8628 2424,8860 2340,8773 2374,8597 2352,8575 2247,8676 2178,8604 2445,8348 2514,8420 2413,8517 2434,8538 "
       style="fill:#ffffff;fill-rule:nonzero" /><path
       id="18"
       class="fil6"
       d="m 2660,9061 -80,-106 -62,24 -63,-82 362,-136 92,120 -227,314 -61,-80 39,-54 z m 45,-59 100,-135 -156,61 56,74 z"
       inkscape:connector-curvature="0"
       style="fill:#ffffff;fill-rule:nonzero" /><path
       id="19"
       class="fil6"
       d="m 2700,9215 322,-184 96,168 c 16,28 25,54 27,77 2,24 -3,45 -16,64 -12,19 -32,37 -59,52 0,1 -9,5 -26,14 l -34,20 c -25,14 -44,23 -59,29 -14,6 -27,9 -38,10 -12,1 -24,-1 -36,-5 -16,-4 -30,-13 -42,-25 -13,-13 -27,-32 -41,-56 l -94,-164 z m 123,44 41,70 c 4,8 8,14 12,18 4,4 8,7 13,9 4,1 10,2 16,2 9,1 21,-3 35,-10 1,0 7,-3 19,-9 7,-4 15,-8 22,-13 25,-14 43,-26 52,-34 10,-9 16,-18 16,-27 0,-9 -4,-21 -12,-35 l -41,-70 -173,99 z"
       inkscape:connector-curvature="0"
       style="fill:#ffffff;fill-rule:nonzero" /><polygon
       id="20"
       class="fil6"
       points="3137,9720 3071,9577 3006,9607 3077,9763 3003,9797 2890,9550 3227,9396 3339,9640 3264,9674 3194,9520 3133,9548 3199,9692 "
       style="fill:#ffffff;fill-rule:nonzero" /><path
       class="fil7"
       d="m 0,13520 -460,-1474 c -7,-25 -46,-44 -71,-34 l -1439,559 866,-1279 c 15,-21 5,-63 -18,-76 l -1335,-777 1540,-120 c 26,-2 53,-36 49,-62 L -1093,8730 -39,9858 c 17,20 60,19 78,0 L 1093,8730 868,10257 c -4,26 23,60 49,62 l 1540,120 -1335,777 c -23,13 -32,55 -18,76 l 866,1279 -1439,-559 c -24,-10 -63,9 -71,34 L 0,13520 Z"
       id="path3464"
       inkscape:connector-curvature="0"
       style="fill:#ffffff" /><path
       class="fil8"
       d="m 0,12793 253,-812 c 45,-145 216,-227 357,-171 l 792,308 -477,-704 c -85,-126 -43,-310 89,-386 l 734,-427 -848,-66 c -151,-12 -269,-160 -246,-310 l 124,-840 -580,621 c -104,111 -293,111 -396,0 l -580,-621 124,841 c 22,149 -96,298 -247,309 l -847,66 735,428 c 131,76 173,260 88,385 l -477,704 793,-308 c 141,-55 311,27 356,172 l 253,811 z"
       id="path3466"
       inkscape:connector-curvature="0"
       style="fill:#1a97cf" /></g></svg>