<?xml version="1.0" encoding="UTF-8" standalone="no"?>
<!-- Creator: CorelDRAW X7 -->

<svg
   xmlns:dc="http://purl.org/dc/elements/1.1/"
   xmlns:cc="http://creativecommons.org/ns#"
   xmlns:rdf="http://www.w3.org/1999/02/22-rdf-syntax-ns#"
   xmlns:svg="http://www.w3.org/2000/svg"
   xmlns="http://www.w3.org/2000/svg"
   xmlns:sodipodi="http://sodipodi.sourceforge.net/DTD/sodipodi-0.dtd"
   xmlns:inkscape="http://www.inkscape.org/namespaces/inkscape"
   xml:space="preserve"
   width="7.8740005in"
   height="7.8740005in"
   version="1.1"
   style="clip-rule:evenodd;fill-rule:evenodd;image-rendering:optimizeQuality;shape-rendering:geometricPrecision;text-rendering:geometricPrecision"
   viewBox="0 0 7874.0005 7874.0005"
   id="svg4190"
   inkscape:version="0.91 r13725"
   sodipodi:docname="PanOceania - Indigo Spec-Ops v2 - [N3] [Vyo].svg"><metadata
     id="metadata4243"><rdf:RDF><cc:Work
         rdf:about=""><dc:format>image/svg+xml</dc:format><dc:type
           rdf:resource="http://purl.org/dc/dcmitype/StillImage" /></cc:Work></rdf:RDF></metadata><sodipodi:namedview
     pagecolor="#ffffff"
     bordercolor="#666666"
     borderopacity="1"
     objecttolerance="10"
     gridtolerance="10"
     guidetolerance="10"
     inkscape:pageopacity="0"
     inkscape:pageshadow="2"
     inkscape:window-width="640"
     inkscape:window-height="480"
     id="namedview4241"
     showgrid="false"
     inkscape:zoom="0.23838384"
     inkscape:cx="736.83001"
     inkscape:cy="849.33005"
     inkscape:window-x="0"
     inkscape:window-y="0"
     inkscape:window-maximized="0"
     inkscape:current-layer="svg4190" /><defs
     id="defs4192"><style
       type="text/css"
       id="style4194"><![CDATA[
    .fil3 {fill:none}
    .fil2 {fill:#019CDC}
    .fil0 {fill:#426D9A}
    .fil1 {fill:white}
    .fil4 {fill:white;fill-rule:nonzero}
   ]]></style></defs><g
     id="Layer_x0020_1"
     transform="translate(3937,-7063)"><metadata
       id="CorelCorpID_0Corel-Layer" /><circle
       class="fil0"
       cy="11000"
       r="3937"
       id="circle4198"
       cx="0"
       style="fill:#426d9a" /><circle
       class="fil1"
       cy="11000"
       r="2913"
       id="circle4200"
       cx="0"
       style="fill:#ffffff" /><path
       class="fil2"
       d="m 0,7181 c 2109,0 3819,1710 3819,3819 0,2109 -1710,3819 -3819,3819 -2109,0 -3819,-1710 -3819,-3819 0,-2109 1710,-3819 3819,-3819 z m 0,788 c 1674,0 3031,1357 3031,3031 0,1674 -1357,3031 -3031,3031 -1674,0 -3031,-1357 -3031,-3031 0,-1674 1357,-3031 3031,-3031 z"
       id="path4202"
       inkscape:connector-curvature="0"
       style="fill:#019cdc" /><circle
       class="fil3"
       cy="11000"
       r="3898"
       id="circle4204"
       cx="0"
       style="fill:none" /><path
       class="fil4"
       d="m -3118,10016 -367,-128 50,-144 14,-40 c 7,-22 14,-37 20,-47 6,-10 14,-19 24,-27 11,-9 23,-15 35,-19 13,-3 27,-4 43,-2 16,3 35,8 58,16 29,10 52,20 69,31 16,11 28,24 34,38 5,14 7,31 4,50 0,4 0,7 0,9 -1,2 -2,5 -3,10 -2,4 -4,10 -6,18 l -4,14 -5,14 -1,5 -2,6 -2,5 -21,59 95,33 -35,99 z m -145,-162 21,-61 c 5,-16 8,-25 8,-29 1,-3 1,-7 0,-10 -1,-6 -5,-11 -12,-15 -6,-4 -17,-9 -31,-14 -20,-7 -35,-9 -45,-7 -10,3 -17,11 -22,25 l -4,12 -22,62 107,37 z"
       id="path4206"
       inkscape:connector-curvature="0"
       style="fill:#ffffff;fill-rule:nonzero" /><path
       id="1"
       class="fil4"
       d="m -2956,9456 -64,124 51,47 -49,97 -292,-282 72,-141 400,74 -49,94 -69,-13 z m -76,-16 -173,-34 129,120 44,-86 z"
       inkscape:connector-curvature="0"
       style="fill:#ffffff;fill-rule:nonzero" /><path
       id="2"
       class="fil4"
       d="m -2950,8827 328,209 -95,149 -171,-36 c -29,-7 -48,-11 -54,-12 -7,-2 -12,-3 -15,-4 -4,0 -10,-2 -20,-4 -9,-2 -27,-7 -52,-12 l -2,3 21,13 c 3,1 6,3 8,4 1,1 3,2 5,3 2,1 5,3 8,4 33,20 61,36 82,50 l 131,84 -54,85 -328,-209 94,-147 171,35 c 38,8 59,12 65,14 6,1 30,6 72,16 l 2,-3 -20,-12 -10,-6 c -32,-18 -62,-36 -90,-54 l -131,-83 55,-87 z"
       inkscape:connector-curvature="0"
       style="fill:#ffffff;fill-rule:nonzero" /><path
       id="3"
       class="fil4"
       d="m -2766,8608 c 11,-13 22,-24 32,-33 10,-10 19,-17 27,-23 7,-5 15,-10 23,-13 35,-14 69,-12 102,7 15,9 40,29 75,61 18,15 30,27 38,34 7,7 14,13 19,18 5,6 9,11 13,16 13,16 21,32 25,47 5,15 5,30 2,46 -3,16 -11,33 -23,52 -11,18 -27,38 -48,61 -14,16 -26,29 -37,39 -11,9 -21,17 -30,22 -10,6 -20,10 -31,13 -16,4 -31,5 -45,3 -15,-3 -29,-9 -45,-18 -15,-10 -35,-26 -58,-47 -28,-25 -49,-45 -63,-60 -15,-15 -25,-28 -32,-39 -7,-12 -11,-23 -13,-35 -2,-10 -2,-21 -1,-32 2,-12 5,-23 10,-35 4,-11 10,-22 17,-31 11,-15 25,-33 43,-53 z m 69,168 10,9 c 2,2 5,5 9,9 4,4 7,6 8,7 1,1 2,2 2,2 20,18 35,30 45,38 10,7 19,11 27,11 9,1 17,-2 24,-8 8,-5 19,-16 33,-31 10,-12 18,-23 22,-31 4,-8 5,-16 2,-25 -2,-8 -8,-17 -18,-28 -9,-11 -23,-25 -42,-42 -22,-19 -37,-32 -45,-38 -8,-6 -16,-10 -23,-12 -7,-2 -13,-2 -18,-1 -6,2 -12,6 -18,11 -7,5 -15,13 -24,24 -16,17 -25,31 -28,41 -4,9 -2,20 4,31 4,8 14,19 30,33 z"
       inkscape:connector-curvature="0"
       style="fill:#ffffff;fill-rule:nonzero" /><path
       id="4"
       class="fil4"
       d="m -2273,8450 74,-71 8,9 c 17,17 30,32 38,45 8,12 13,24 14,35 2,11 0,24 -3,38 -3,11 -7,21 -12,29 -4,7 -11,16 -21,27 -9,10 -24,25 -44,44 -16,15 -29,27 -38,34 -10,8 -18,15 -25,19 -8,4 -16,7 -24,10 -21,6 -42,6 -61,0 -19,-6 -39,-19 -61,-39 -8,-7 -24,-23 -48,-47 l -16,-16 -15,-15 c -21,-22 -36,-42 -45,-59 -8,-17 -12,-35 -12,-53 1,-22 8,-41 19,-59 11,-17 33,-42 66,-73 24,-23 42,-39 54,-47 12,-8 25,-13 39,-16 9,-2 19,-2 29,0 10,2 19,6 29,11 10,6 20,14 31,24 5,6 10,10 13,13 4,3 8,8 13,13 l -74,71 c -2,-2 -3,-3 -4,-4 0,0 -1,-1 -2,-1 -9,-10 -17,-15 -24,-18 -6,-2 -14,-1 -22,4 -8,5 -19,13 -32,26 -14,13 -22,24 -26,33 -3,9 -2,19 3,29 3,6 10,15 19,26 10,12 28,31 55,60 14,14 26,24 36,29 10,6 20,6 29,3 9,-3 21,-12 35,-25 13,-12 21,-22 26,-31 5,-8 7,-16 5,-24 -2,-7 -8,-16 -17,-26 -3,-3 -6,-6 -9,-8 z"
       inkscape:connector-curvature="0"
       style="fill:#ffffff;fill-rule:nonzero" /><polygon
       id="5"
       class="fil4"
       points="-1957,8178 -2088,8279 -2041,8340 -1898,8228 -1846,8295 -2070,8471 -2310,8165 -2088,7992 -2036,8059 -2175,8168 -2131,8224 -2001,8122 "
       style="fill:#ffffff;fill-rule:nonzero" /><path
       id="6"
       class="fil4"
       d="m -1647,8099 -121,69 17,68 -94,54 -91,-396 137,-78 295,279 -92,53 -51,-49 z m -55,-55 -126,-122 42,170 84,-48 z"
       inkscape:connector-curvature="0"
       style="fill:#ffffff;fill-rule:nonzero" /><path
       id="7"
       class="fil4"
       d="m -1302,7571 162,354 -161,74 -124,-123 c -21,-22 -34,-35 -39,-40 -4,-5 -8,-9 -11,-11 -2,-3 -7,-8 -14,-14 -6,-8 -19,-20 -36,-39 l -4,2 11,22 c 1,3 3,5 4,7 1,2 2,4 3,6 1,2 2,5 4,8 17,34 31,63 42,86 l 64,142 -92,42 -162,-354 159,-73 125,123 c 27,27 43,43 47,47 4,4 22,22 52,53 l 3,-1 -11,-21 -4,-11 c -18,-33 -33,-65 -47,-94 l -65,-142 94,-43 z"
       inkscape:connector-curvature="0"
       style="fill:#ffffff;fill-rule:nonzero" /><polygon
       id="8"
       class="fil4"
       points="-1206,7545 -1107,7514 -991,7886 -1091,7917 "
       style="fill:#ffffff;fill-rule:nonzero" /><path
       id="9"
       class="fil4"
       d="m -736,7747 -136,31 -3,69 -106,24 27,-405 153,-35 203,353 -104,23 -34,-60 z m -37,-69 -86,-154 -9,175 95,-21 z"
       inkscape:connector-curvature="0"
       style="fill:#ffffff;fill-rule:nonzero" /><polygon
       id="10"
       class="fil4"
       points="-506,7378 -402,7365 -352,7751 -455,7764 "
       style="fill:#ffffff;fill-rule:nonzero" /><path
       id="11"
       class="fil4"
       d="m 80,7343 5,390 -177,2 -63,-163 c -11,-29 -18,-46 -20,-52 -2,-7 -4,-12 -5,-15 -2,-3 -4,-10 -7,-19 -4,-9 -10,-26 -18,-50 l -5,0 1,25 c 1,3 1,6 1,8 0,2 0,4 0,7 0,2 1,5 1,9 2,38 3,70 3,95 l 2,156 -102,1 -5,-389 176,-2 64,163 c 14,36 22,56 24,62 2,5 10,28 25,69 l 4,0 -1,-23 0,-12 c -3,-37 -4,-72 -4,-105 l -2,-155 103,-2 z"
       inkscape:connector-curvature="0"
       style="fill:#ffffff;fill-rule:nonzero" /><path
       id="12"
       class="fil4"
       d="m 133,7732 32,-387 203,16 c 34,3 62,11 83,23 22,12 37,29 46,52 9,22 12,50 10,83 0,0 -1,10 -4,30 l -3,42 c -3,29 -6,51 -10,67 -3,16 -8,29 -14,40 -6,10 -15,19 -26,28 -13,10 -28,18 -47,21 -19,4 -43,4 -73,2 l -197,-17 z m 111,-80 85,7 c 9,1 17,1 23,0 6,-1 10,-3 15,-6 4,-3 8,-7 12,-13 6,-7 10,-19 12,-36 0,0 1,-8 3,-22 1,-8 2,-17 3,-26 2,-31 3,-53 1,-67 -2,-13 -7,-23 -14,-29 -8,-5 -20,-9 -38,-10 l -84,-7 -18,209 z"
       inkscape:connector-curvature="0"
       style="fill:#ffffff;fill-rule:nonzero" /><polygon
       id="13"
       class="fil4"
       points="582,7389 685,7406 623,7790 520,7773 "
       style="fill:#ffffff;fill-rule:nonzero" /><path
       id="14"
       class="fil4"
       d="m 896,7628 169,52 -2,4 c -9,33 -16,60 -23,82 -8,27 -18,48 -28,62 -11,14 -25,25 -41,30 -7,3 -15,5 -23,6 -8,0 -18,0 -29,-2 -12,-1 -25,-3 -38,-7 -14,-3 -32,-8 -54,-15 -25,-7 -44,-14 -58,-20 -14,-6 -25,-12 -34,-19 -9,-7 -16,-15 -23,-24 -12,-18 -18,-38 -19,-60 -1,-22 3,-48 12,-79 -1,0 3,-11 11,-33 4,-12 7,-23 10,-32 3,-10 6,-19 9,-26 3,-8 5,-14 6,-18 2,-4 4,-8 6,-13 20,-42 52,-65 94,-69 10,-1 19,-1 29,-1 10,1 21,3 35,6 13,4 31,9 54,16 27,8 47,15 62,21 14,6 25,12 33,18 18,13 29,29 33,48 4,19 1,45 -8,79 l -102,-31 c 3,-15 1,-26 -5,-33 -6,-7 -20,-14 -41,-20 -25,-7 -43,-11 -55,-9 -12,1 -22,7 -30,18 -5,6 -10,19 -16,39 l -4,10 -6,20 c -8,28 -14,48 -16,62 -3,14 -3,25 -1,33 2,8 8,15 16,20 8,5 20,10 38,15 18,6 32,9 43,9 11,0 20,-3 26,-9 7,-5 12,-15 16,-29 1,-4 2,-7 2,-10 l -69,-21 21,-70 z"
       inkscape:connector-curvature="0"
       style="fill:#ffffff;fill-rule:nonzero" /><path
       id="15"
       class="fil4"
       d="m 1339,7592 c 15,6 29,12 42,18 12,6 23,12 30,17 8,5 15,11 21,17 26,28 36,60 30,98 -2,18 -12,48 -29,92 -8,22 -15,38 -18,47 -4,10 -8,18 -11,25 -3,6 -7,12 -10,18 -11,17 -22,31 -34,40 -13,9 -27,16 -43,18 -17,3 -35,2 -57,-3 -21,-4 -46,-12 -75,-23 -20,-7 -36,-14 -49,-21 -13,-6 -24,-13 -32,-20 -9,-7 -16,-15 -23,-24 -10,-14 -16,-28 -19,-42 -3,-14 -3,-30 1,-48 4,-18 11,-41 22,-71 14,-35 25,-61 34,-80 9,-19 17,-34 26,-44 8,-11 17,-19 27,-24 9,-6 19,-10 30,-12 12,-3 24,-4 36,-4 13,0 24,2 35,5 19,4 40,12 66,21 z m -133,125 -4,12 c -2,3 -4,7 -6,13 -2,5 -3,8 -4,9 0,1 0,2 -1,3 -9,25 -15,43 -19,55 -3,12 -3,21 -1,29 3,8 8,15 16,20 8,5 22,11 41,19 15,5 28,9 37,9 9,1 17,-1 24,-6 6,-5 13,-14 20,-27 6,-13 14,-31 23,-55 11,-26 17,-45 20,-55 3,-9 4,-18 3,-26 -1,-6 -3,-12 -6,-16 -4,-5 -9,-9 -16,-13 -8,-5 -18,-9 -31,-14 -22,-9 -38,-12 -48,-12 -10,1 -19,6 -28,16 -6,6 -12,19 -20,39 z"
       inkscape:connector-curvature="0"
       style="fill:#ffffff;fill-rule:nonzero" /><path
       id="16"
       class="fil4"
       d="m 1910,8019 -86,-49 3,-6 c 8,-13 10,-24 6,-32 -4,-8 -16,-17 -36,-29 -14,-8 -26,-13 -34,-15 -9,-3 -16,-2 -21,0 -6,3 -11,9 -16,18 -5,9 -7,17 -7,23 1,7 5,13 11,18 1,1 2,2 3,2 1,1 8,6 20,14 13,8 24,15 33,21 25,17 44,30 55,40 11,10 19,20 24,31 5,9 7,18 8,27 0,8 -1,18 -5,28 -3,11 -9,23 -17,38 -14,24 -26,42 -37,52 -11,11 -22,18 -36,21 -16,3 -34,2 -52,-4 -19,-6 -45,-18 -78,-36 -33,-19 -57,-35 -74,-48 -17,-13 -29,-25 -35,-37 -6,-13 -9,-26 -7,-41 1,-9 3,-19 8,-29 4,-11 11,-25 21,-43 l 87,49 -3,6 c -9,16 -11,28 -5,37 4,5 8,9 13,13 4,3 14,9 30,18 19,10 31,17 36,18 6,2 12,2 19,0 7,-2 14,-9 20,-20 5,-9 7,-16 7,-22 0,-6 -3,-11 -9,-17 -4,-4 -12,-10 -23,-17 l -10,-6 -10,-7 -10,-6 c -27,-19 -46,-32 -57,-41 -11,-10 -20,-19 -26,-29 -8,-13 -11,-28 -9,-45 3,-16 11,-37 24,-61 12,-21 24,-37 36,-47 11,-10 24,-16 39,-18 14,-1 31,1 51,9 20,7 45,19 74,36 33,18 56,33 70,45 13,11 23,23 28,35 11,26 7,56 -13,90 -4,6 -7,12 -10,16 z"
       inkscape:connector-curvature="0"
       style="fill:#ffffff;fill-rule:nonzero" /><path
       id="17"
       class="fil4"
       d="m 1816,8281 220,-320 126,87 35,24 c 18,13 32,24 40,32 8,8 14,18 19,30 6,13 9,26 9,39 0,13 -3,27 -10,42 -6,15 -16,32 -30,52 -17,25 -33,45 -49,58 -15,13 -29,20 -45,22 -15,2 -31,-1 -49,-8 -4,-2 -7,-3 -9,-3 -1,-1 -4,-3 -8,-6 -4,-2 -10,-6 -16,-10 l -13,-8 -12,-9 -5,-2 -5,-3 -4,-4 -52,-35 -56,82 -86,-60 z m 193,-96 54,37 c 14,8 22,13 26,15 3,2 6,2 9,3 6,0 12,-3 18,-8 6,-5 14,-14 23,-27 12,-17 18,-31 18,-42 0,-10 -6,-19 -19,-28 l -10,-7 -54,-37 -65,94 z"
       inkscape:connector-curvature="0"
       style="fill:#ffffff;fill-rule:nonzero" /><polygon
       id="18"
       class="fil4"
       points="2411,8562 2291,8448 2239,8502 2369,8627 2310,8689 2104,8492 2373,8211 2576,8406 2517,8468 2389,8346 2340,8396 2460,8511 "
       style="fill:#ffffff;fill-rule:nonzero" /><path
       id="19"
       class="fil4"
       d="m 2601,8784 69,77 -9,8 c -18,16 -34,28 -46,36 -13,7 -25,12 -36,13 -11,1 -24,-1 -39,-5 -11,-4 -20,-8 -27,-12 -8,-5 -17,-13 -27,-23 -10,-10 -24,-25 -42,-45 -15,-17 -26,-30 -34,-40 -7,-9 -13,-18 -17,-26 -4,-7 -7,-15 -9,-24 -6,-21 -5,-41 2,-60 6,-19 20,-39 40,-60 8,-8 24,-24 50,-47 l 15,-15 16,-14 c 23,-20 43,-35 61,-43 17,-8 35,-12 53,-10 22,2 41,9 58,20 17,12 41,35 71,69 23,25 38,43 45,56 8,12 13,25 15,39 2,10 1,19 -1,29 -2,10 -6,19 -12,29 -7,10 -15,20 -26,30 -5,5 -9,10 -13,13 -3,3 -7,7 -13,12 l -68,-77 c 1,-1 2,-2 3,-3 1,-1 1,-1 2,-2 9,-9 15,-17 18,-24 2,-6 1,-13 -3,-22 -4,-8 -13,-19 -25,-32 -12,-15 -23,-23 -32,-27 -9,-4 -18,-4 -29,1 -6,3 -15,9 -27,19 -11,9 -32,26 -61,52 -15,14 -25,25 -31,35 -5,10 -6,19 -3,29 3,9 11,21 23,35 12,13 22,23 30,28 9,5 17,7 24,5 8,-2 17,-7 27,-16 3,-3 6,-6 8,-8 z"
       inkscape:connector-curvature="0"
       style="fill:#ffffff;fill-rule:nonzero" /><polygon
       id="20"
       class="fil4"
       points="2647,8890 2717,8837 2800,8948 2730,9001 "
       style="fill:#ffffff;fill-rule:nonzero" /><path
       id="21"
       class="fil4"
       d="m 3075,9015 c 9,14 17,27 23,39 7,13 12,23 15,32 3,9 6,18 7,27 5,37 -7,69 -34,96 -12,12 -38,31 -78,57 -19,13 -34,22 -42,27 -9,6 -17,10 -23,13 -7,4 -13,7 -19,9 -19,8 -36,12 -51,12 -16,1 -31,-3 -46,-10 -14,-8 -29,-20 -44,-36 -14,-16 -30,-37 -47,-63 -11,-18 -21,-33 -27,-46 -7,-13 -11,-24 -14,-35 -3,-11 -4,-22 -4,-33 0,-17 3,-32 9,-45 6,-13 15,-26 29,-38 14,-12 34,-27 60,-44 31,-20 56,-35 74,-45 19,-10 34,-17 47,-21 13,-3 25,-4 37,-3 10,1 20,4 31,8 11,5 21,11 31,18 10,8 18,16 25,25 13,14 26,33 41,56 z m -181,22 -11,7 c -3,2 -7,4 -11,7 -5,3 -8,5 -9,5 -1,1 -2,2 -2,2 -23,14 -39,25 -48,33 -10,8 -16,16 -19,24 -2,8 -2,16 2,25 3,9 11,22 22,40 9,13 17,23 24,29 7,6 14,9 23,9 8,0 19,-3 32,-10 13,-6 30,-16 51,-30 25,-15 41,-26 49,-33 8,-6 14,-13 18,-19 3,-6 5,-11 5,-17 0,-6 -2,-13 -6,-20 -3,-8 -9,-18 -17,-30 -13,-20 -23,-33 -32,-38 -8,-6 -19,-7 -31,-4 -9,2 -22,8 -40,20 z"
       inkscape:connector-curvature="0"
       style="fill:#ffffff;fill-rule:nonzero" /><path
       id="22"
       class="fil4"
       d="m 2855,9407 343,-182 72,134 20,38 c 11,20 18,35 21,46 3,11 4,23 3,36 0,15 -4,27 -10,39 -6,11 -15,22 -28,33 -13,10 -29,21 -50,32 -28,14 -51,24 -71,29 -19,5 -36,4 -50,-1 -15,-5 -28,-15 -41,-31 -2,-2 -4,-5 -6,-6 -1,-2 -3,-5 -5,-9 -2,-4 -5,-10 -9,-17 l -8,-12 -7,-13 -3,-5 -2,-5 -3,-5 -30,-55 -87,47 -49,-93 z m 216,3 31,58 c 8,14 13,22 15,25 3,3 5,5 8,7 5,3 12,3 19,1 8,-1 19,-6 32,-13 19,-10 31,-20 36,-29 4,-9 3,-20 -4,-33 l -5,-11 -31,-58 -101,53 z"
       inkscape:connector-curvature="0"
       style="fill:#ffffff;fill-rule:nonzero" /><path
       id="23"
       class="fil4"
       d="m 3376,9917 -37,-92 6,-3 c 15,-6 24,-13 25,-21 2,-9 -1,-24 -10,-46 -6,-15 -11,-27 -17,-34 -5,-7 -11,-11 -17,-13 -6,-1 -14,1 -23,4 -10,4 -17,9 -20,14 -4,5 -5,13 -3,21 0,1 0,3 1,4 0,1 2,9 7,23 5,14 9,27 12,38 9,29 15,50 18,65 2,15 2,28 -1,39 -2,10 -6,19 -11,26 -5,7 -12,13 -21,19 -10,6 -22,13 -38,19 -26,10 -46,16 -61,17 -15,2 -29,0 -41,-6 -15,-8 -28,-20 -39,-36 -11,-16 -23,-42 -37,-77 -14,-35 -23,-63 -28,-84 -5,-21 -6,-38 -3,-51 2,-14 9,-26 19,-36 7,-7 15,-13 25,-18 9,-6 24,-12 44,-20 l 36,93 -6,2 c -18,7 -27,16 -28,26 0,6 1,12 2,18 2,5 6,17 13,34 7,20 13,32 16,37 4,5 9,9 15,11 7,3 16,2 28,-3 10,-3 16,-7 19,-12 4,-5 5,-11 5,-19 -1,-6 -4,-15 -7,-28 l -4,-11 -4,-12 -4,-11 c -10,-32 -16,-54 -18,-68 -3,-14 -4,-27 -2,-38 2,-16 9,-29 21,-41 12,-11 31,-22 57,-32 23,-9 42,-14 57,-15 16,0 30,3 42,11 12,8 24,21 34,39 11,19 23,43 35,75 14,35 23,61 26,78 4,18 4,33 0,46 -8,26 -30,47 -66,62 -7,2 -13,4 -17,6 z"
       inkscape:connector-curvature="0"
       style="fill:#ffffff;fill-rule:nonzero" /><path
       class="fil4"
       d="m -2074,13975 116,91 88,-472 -159,-125 -440,196 116,91 74,-34 221,174 -16,79 z m 38,-180 -150,-118 165,-76 20,16 -35,178 z m 693,119 -97,-56 -83,142 -4,-3 c 1,-44 -17,-66 -86,-106 -67,-38 -97,-50 -129,-48 -39,2 -68,27 -106,94 -38,64 -47,95 -37,128 11,33 41,60 111,101 71,41 103,47 140,26 l 5,3 -20,35 93,53 213,-369 z m -280,69 c 70,41 77,59 45,113 -18,31 -30,42 -46,43 -16,0 -45,-11 -80,-31 -73,-43 -79,-58 -46,-116 31,-52 50,-53 127,-9 z m 421,-1 -53,189 c -19,69 -19,69 -22,86 -13,58 -13,83 1,109 22,42 70,64 226,108 92,26 137,36 176,39 49,3 90,-21 110,-66 11,-28 14,-34 42,-127 l 53,-188 -125,-35 -53,188 c -3,10 -9,30 -14,46 -12,35 -18,45 -31,53 -17,11 -45,7 -130,-17 -107,-30 -129,-43 -127,-78 2,-17 2,-18 19,-83 l 53,-189 -125,-35 z m 576,213 -9,69 -59,-8 -10,80 58,8 -11,87 c -5,39 -5,39 -6,48 -2,33 2,50 15,67 20,25 48,35 120,44 77,10 113,5 139,-20 20,-20 27,-38 36,-95 l -103,-13 -2,12 c -4,35 -14,42 -50,38 -22,-3 -33,-9 -38,-21 -3,-9 -3,-13 1,-45 l 12,-87 177,23 10,-80 -177,-24 9,-69 -112,-14 z m 315,117 -6,302 113,3 2,-126 c 1,-46 5,-63 16,-77 11,-13 33,-21 57,-21 24,1 42,6 50,15 7,8 10,19 9,40 l 0,3 0,0 107,3 0,-21 c 1,-44 -4,-68 -18,-88 -18,-23 -51,-35 -101,-36 -63,-1 -96,13 -117,51 l -6,0 1,-46 -107,-2 z m 807,282 -23,-302 -113,9 9,121 c 5,56 2,72 -13,87 -13,14 -34,20 -73,23 -42,3 -61,0 -75,-11 -13,-12 -17,-25 -20,-69 l -11,-137 -112,8 10,138 c 6,82 14,105 43,130 29,26 68,34 138,28 76,-5 110,-23 124,-62 l 6,-1 4,46 106,-8 z m 7,-303 68,294 110,-25 -28,-122 c -11,-48 -12,-67 -2,-83 9,-15 30,-26 63,-34 31,-7 52,-6 64,2 14,9 17,17 27,63 l 32,138 110,-26 -28,-121 c -11,-48 -11,-66 -2,-83 9,-15 29,-26 61,-34 33,-7 52,-7 66,2 13,8 16,14 28,63 l 32,137 110,-25 -32,-138 c -18,-76 -29,-98 -60,-119 -32,-21 -71,-24 -132,-10 -72,17 -104,43 -112,91 -34,-38 -78,-47 -149,-30 -64,14 -99,39 -106,79 l -6,1 -10,-44 -104,24 z m 1208,48 -176,-390 -97,44 17,38 -6,2 c -37,-25 -66,-23 -139,10 -140,63 -156,99 -99,225 28,62 49,87 79,97 33,11 71,3 149,-32 70,-32 89,-51 97,-95 l 4,-2 68,150 103,-47 z m -340,-230 c 79,-36 97,-33 123,24 26,58 17,74 -61,109 -35,16 -61,24 -77,22 -18,-2 -28,-12 -42,-43 -28,-63 -21,-77 57,-112 z m 700,-136 -164,-254 -95,61 66,102 c 30,48 36,63 30,84 -5,18 -21,33 -54,54 -35,23 -53,30 -71,26 -16,-4 -26,-13 -50,-50 l -75,-116 -95,61 75,116 c 44,69 62,85 100,94 37,9 76,-3 134,-41 64,-41 86,-72 80,-114 l 5,-3 24,38 90,-58 z m 226,-295 c 13,24 5,37 -51,81 -32,24 -54,37 -68,37 -14,0 -23,-6 -42,-31 l 233,-181 c -7,-10 -16,-22 -18,-25 -44,-55 -73,-76 -110,-75 -34,1 -66,18 -144,79 -77,60 -104,89 -114,123 -11,37 0,67 50,130 47,61 73,79 109,79 35,-1 72,-20 141,-74 128,-99 148,-141 103,-212 l -89,69 z m -199,38 c -25,-34 -16,-52 44,-99 34,-27 56,-38 70,-36 10,2 15,5 30,24 l -144,111 z"
       id="path4231"
       inkscape:connector-curvature="0"
       style="fill:#ffffff;fill-rule:nonzero" /><circle
       class="fil3"
       cy="11000"
       r="3898"
       id="circle4233"
       cx="0"
       style="fill:none" /><path
       class="fil0"
       d="m -239,13587 c -484,-96 -945,-476 -645,-1100 l 864,-1802 c 163,-339 396,-1176 -943,-2099 298,-119 623,-184 963,-184 81,0 161,-5 239,11 484,96 945,476 645,1100 L 20,11315 c -163,339 -396,1176 943,2099 -298,119 -623,184 -963,184 -81,0 -161,5 -239,-11 z"
       id="path4235"
       inkscape:connector-curvature="0"
       style="fill:#426d9a" /><path
       class="fil2"
       d="m -1930,9260 c 180,-176 380,-271 572,-268 423,6 780,389 599,707 -1209,2128 -1387,2403 -943,3264 -549,-476 -896,-1179 -896,-1963 0,-669 253,-1279 668,-1740 z"
       id="path4237"
       inkscape:connector-curvature="0"
       style="fill:#019cdc" /><path
       class="fil2"
       d="m 1930,12740 c -180,176 -380,271 -572,268 -423,-6 -780,-389 -599,-707 1209,-2128 1387,-2403 943,-3264 549,476 896,1179 896,1963 0,669 -253,1279 -668,1740 z"
       id="path4239"
       inkscape:connector-curvature="0"
       style="fill:#019cdc" /></g></svg>