<?xml version="1.0" encoding="UTF-8" standalone="no"?>
<!-- Creator: CorelDRAW X7 -->

<svg
   xmlns:dc="http://purl.org/dc/elements/1.1/"
   xmlns:cc="http://creativecommons.org/ns#"
   xmlns:rdf="http://www.w3.org/1999/02/22-rdf-syntax-ns#"
   xmlns:svg="http://www.w3.org/2000/svg"
   xmlns="http://www.w3.org/2000/svg"
   xmlns:sodipodi="http://sodipodi.sourceforge.net/DTD/sodipodi-0.dtd"
   xmlns:inkscape="http://www.inkscape.org/namespaces/inkscape"
   xml:space="preserve"
   width="7.8740005in"
   height="7.8740005in"
   version="1.1"
   style="clip-rule:evenodd;fill-rule:evenodd;image-rendering:optimizeQuality;shape-rendering:geometricPrecision;text-rendering:geometricPrecision"
   viewBox="0 0 7874.0005 7874.0005"
   id="svg4639"
   inkscape:version="0.91 r13725"
   sodipodi:docname="PanOceania - Neoterra Bolts - [N3] [Vyo].svg"><metadata
     id="metadata4697"><rdf:RDF><cc:Work
         rdf:about=""><dc:format>image/svg+xml</dc:format><dc:type
           rdf:resource="http://purl.org/dc/dcmitype/StillImage" /></cc:Work></rdf:RDF></metadata><sodipodi:namedview
     pagecolor="#ffffff"
     bordercolor="#666666"
     borderopacity="1"
     objecttolerance="10"
     gridtolerance="10"
     guidetolerance="10"
     inkscape:pageopacity="0"
     inkscape:pageshadow="2"
     inkscape:window-width="640"
     inkscape:window-height="480"
     id="namedview4695"
     showgrid="false"
     inkscape:zoom="0.23838384"
     inkscape:cx="736.83001"
     inkscape:cy="849.33005"
     inkscape:window-x="0"
     inkscape:window-y="0"
     inkscape:window-maximized="0"
     inkscape:current-layer="svg4639" /><defs
     id="defs4641"><style
       type="text/css"
       id="style4643"><![CDATA[
    .fil3 {fill:none}
    .fil0 {fill:#0080B1}
    .fil2 {fill:#E2001A}
    .fil1 {fill:white}
    .fil4 {fill:white}
    .fil5 {fill:#E2001A;fill-rule:nonzero}
   ]]></style></defs><g
     id="Layer_x0020_1"
     transform="translate(3937,-7063)"><metadata
       id="CorelCorpID_0Corel-Layer" /><circle
       class="fil0"
       cy="11000"
       r="3937"
       id="circle4647"
       cx="0"
       style="fill:#0080b1" /><circle
       class="fil1"
       cy="11000"
       r="3858"
       id="circle4649"
       cx="0"
       style="fill:#ffffff" /><circle
       class="fil0"
       cy="11000"
       r="3386"
       id="circle4651"
       cx="0"
       style="fill:#0080b1" /><polygon
       class="fil1"
       points="1227,10731 -1616,13273 -410,11033 -1229,10774 409,8491 2089,9094 452,10473 "
       id="polygon4653"
       style="fill:#ffffff" /><polygon
       class="fil2"
       points="747,10783 -1852,13106 -749,11059 -1497,10822 -1,8736 1534,9287 38,10547 "
       id="polygon4655"
       style="fill:#e2001a" /><circle
       class="fil3"
       cy="11000"
       r="3898"
       id="circle4657"
       cx="0"
       style="fill:none" /><g
       id="_883917008"><path
         class="fil4"
         d="m 2441,13475 -147,-140 -129,136 -152,-144 399,-419 0,0 c 2,-5 5,-11 8,-17 10,-20 22,-40 34,-59 20,-33 42,-64 64,-96 12,-17 25,-35 38,-52 10,-15 22,-30 35,-43 11,-12 23,-23 36,-32 13,-10 29,-17 45,-20 16,-4 31,-5 47,-3 15,1 29,5 42,10 13,6 26,12 38,20 12,7 24,16 36,24 l 33,23 -20,28 c 22,-5 45,-4 68,2 33,8 65,28 92,48 21,14 42,31 59,50 15,17 27,36 34,57 7,20 9,42 5,63 -3,21 -11,41 -21,60 -10,20 -23,40 -34,59 -22,36 -47,70 -71,104 -24,34 -49,68 -77,99 -21,24 -47,46 -79,54 -17,4 -35,5 -52,2 -15,-3 -29,-8 -42,-14 -13,-7 -26,-14 -38,-23 -11,-8 -23,-16 -35,-25 l -32,-22 26,-37 c -5,1 -10,2 -15,3 -23,2 -46,-3 -67,-12 -25,-10 -48,-24 -70,-40 0,0 0,0 0,0 l -63,66 282,268 -143,150 -46,-43 54,68 -391,304 -62,-81 c 1,7 2,14 3,22 2,25 -1,50 -12,74 -10,23 -26,43 -44,61 -21,21 -44,39 -68,56 -30,21 -61,42 -92,62 -35,22 -70,44 -107,62 -32,17 -66,28 -102,27 -29,-1 -55,-9 -78,-24 0,20 -3,39 -10,57 -10,23 -25,41 -44,56 -20,15 -43,26 -66,35 l -408,162 -220,-554 402,-160 c 41,-16 86,-25 128,-9 8,-26 25,-48 44,-67 23,-25 60,-48 88,-67 54,-36 108,-72 163,-107 22,-14 47,-27 72,-34 24,-7 49,-9 74,-5 0,0 1,0 2,1 l -30,-39 164,-127 239,308 213,-166 z m 277,-669 c -2,-1 -5,-3 -8,-5 -4,3 -7,7 -9,9 -9,11 -18,23 -26,34 -1,2 -3,5 -4,6 -1,1 -1,2 -2,3 l 0,1 -1,2 c -13,20 -26,40 -39,59 -7,9 -15,20 -19,31 0,0 0,0 0,1 1,1 3,2 4,3 1,-2 2,-3 3,-4 11,-14 21,-28 32,-42 9,-13 18,-25 27,-38 5,-7 10,-14 15,-21 5,-8 10,-15 16,-23 4,-5 7,-10 11,-16 z m 59,256 c 4,2 8,5 11,8 1,-1 2,-2 3,-3 6,-7 12,-15 17,-22 11,-15 22,-30 32,-44 14,-20 28,-39 41,-58 5,-8 12,-19 15,-29 -1,0 -2,-1 -3,-2 -1,-1 -3,-2 -4,-3 -3,2 -5,5 -7,7 -6,8 -12,17 -18,25 -21,29 -42,58 -63,88 -8,11 -16,22 -24,33 z m -2473,1432 117,-458 219,-39 361,544 -223,39 -55,-86 -215,37 -24,100 -181,32 0,4 -21,-1 -23,4 1,-4 -164,-4 2,-107 c 0,-5 0,-19 -2,-25 -4,-1 -10,-2 -13,-2 l -172,-3 -3,133 -207,-4 7,-300 c -8,17 -18,34 -32,47 -3,3 -7,6 -10,9 10,14 15,30 18,47 4,22 1,46 -3,68 l -23,131 -204,-36 19,-106 c 1,-5 2,-18 1,-25 -3,-1 -9,-3 -12,-3 l -169,-30 -23,132 -204,-35 70,-403 -299,-104 -4,11 300,104 -60,171 -300,-104 -4,13 321,112 -64,184 -515,-179 128,-366 -140,-81 -196,336 -179,-104 195,-336 -117,-68 c -8,12 -17,23 -25,35 -17,21 -34,43 -51,64 -21,27 -43,53 -67,77 -20,19 -42,36 -67,47 -24,10 -48,15 -74,13 -25,-2 -50,-11 -73,-22 -26,-13 -51,-29 -75,-46 -30,-21 -59,-44 -88,-66 -32,-26 -65,-53 -94,-81 -26,-25 -48,-54 -59,-88 -8,-25 -9,-50 -4,-75 l -68,58 -355,-411 -7,5 -142,-221 145,-320 -248,160 -108,-167 502,-324 143,221 -145,320 248,-160 62,96 1,-1 353,408 c 6,3 12,5 17,8 31,14 65,41 92,61 52,40 103,80 155,120 20,16 40,35 56,57 10,14 18,30 24,47 l 12,-21 459,266 501,174 0,0 368,64 c 25,5 52,12 75,25 19,10 36,25 48,43 l 1,-48 428,9 c 26,0 53,4 77,12 24,9 44,22 60,42 16,19 26,43 31,68 6,27 7,57 6,85 0,27 -2,56 -8,82 -5,20 -13,41 -26,57 -3,4 -6,8 -9,11 12,12 20,27 25,43 3,9 5,18 6,28 z m -2731,-1004 c 3,-3 5,-7 8,-11 l -188,-218 -10,9 190,220 z m 124,-155 c 2,-3 5,-6 7,-9 l -165,-191 -8,8 166,192 z m 112,190 c -14,17 -27,35 -40,52 -7,10 -15,21 -20,32 -1,3 -3,8 -3,10 0,1 2,5 3,6 5,7 13,14 19,20 14,12 28,23 42,34 26,20 53,41 80,60 6,4 21,14 29,14 5,0 12,-7 15,-10 19,-18 36,-40 52,-61 14,-17 28,-35 39,-54 2,-3 7,-13 7,-17 0,-2 -4,-7 -6,-8 -12,-12 -26,-24 -39,-35 -28,-22 -56,-43 -84,-65 -11,-9 -28,-21 -41,-24 -5,-1 -8,0 -12,3 -14,10 -30,29 -41,43 z m 1519,730 149,26 c 5,0 9,1 13,3 1,0 2,0 3,0 7,1 16,3 24,3 0,0 0,0 0,0 3,-10 5,-21 7,-31 1,-6 2,-14 2,-21 -1,0 -1,0 -1,0 -9,-3 -19,-4 -29,-6 l -159,-28 -9,54 z m 588,65 151,3 c 5,0 9,1 13,1 1,0 2,0 3,0 8,0 17,1 24,-1 0,0 0,0 0,0 2,-10 2,-21 2,-31 0,-6 1,-15 -1,-21 0,0 0,0 0,0 -10,-1 -20,-2 -30,-2 l -161,-3 -1,54 z m 696,4 -40,-61 -18,72 58,-11 z m 535,-263 166,-66 c 2,-1 7,-3 11,-6 -1,-2 -1,-4 -2,-6 0,-1 -1,-2 -2,-4 l -177,71 4,11 z m 73,183 177,-70 c 5,-2 10,-4 15,-7 -1,-3 -3,-7 -3,-10 -1,-1 -1,-2 -2,-3 -5,1 -11,3 -14,4 l -179,71 6,15 z m 440,-341 c 12,18 24,37 37,54 7,11 15,21 23,30 2,2 6,5 8,6 2,1 6,0 7,-1 9,-2 18,-7 26,-12 15,-9 30,-19 45,-28 28,-18 56,-36 83,-56 6,-4 20,-15 23,-23 1,-4 -3,-14 -4,-17 -12,-24 -27,-48 -41,-70 -12,-18 -24,-37 -38,-53 -3,-3 -11,-12 -15,-13 -2,0 -7,2 -9,3 -16,7 -31,17 -46,26 -29,19 -59,38 -89,58 -11,7 -28,19 -36,30 -3,4 -3,8 -1,12 4,18 18,39 27,54 z"
         id="path4660"
         inkscape:connector-curvature="0"
         style="fill:#ffffff" /></g><path
       class="fil5"
       d="m -2457,12914 -436,281 -109,-170 191,-423 -327,211 -66,-101 437,-281 109,170 -191,422 327,-210 65,101 z m -386,333 392,-339 305,353 -88,76 -223,-257 -68,59 207,240 -77,67 -208,-240 -70,60 222,258 -88,76 -304,-353 z m 621,254 c -17,21 -30,38 -41,53 -11,15 -19,27 -24,39 -5,11 -7,20 -7,29 1,8 4,17 10,25 7,9 15,18 27,28 12,10 26,22 43,35 34,27 61,47 81,61 20,14 37,21 52,21 14,0 29,-7 43,-21 14,-14 33,-35 55,-64 19,-24 33,-43 42,-59 8,-15 13,-28 12,-39 -1,-12 -6,-23 -16,-33 -10,-11 -25,-24 -44,-39 -35,-27 -63,-49 -84,-65 -21,-17 -40,-27 -55,-31 -16,-4 -30,-1 -44,8 -14,10 -31,27 -50,52 z m -146,-24 c 30,-39 57,-72 79,-99 23,-27 45,-48 65,-63 21,-15 41,-24 62,-26 20,-2 43,3 68,15 18,9 46,28 86,58 39,30 90,69 153,119 21,16 37,32 49,49 11,16 18,33 21,51 3,17 1,36 -5,56 -6,21 -17,43 -32,66 -7,13 -18,28 -33,47 -14,18 -31,40 -50,64 -23,30 -44,54 -63,72 -20,19 -38,32 -56,40 -18,8 -37,11 -55,10 -18,-2 -37,-8 -58,-18 -21,-10 -45,-25 -70,-43 -25,-18 -54,-40 -87,-65 -36,-29 -67,-55 -91,-79 -24,-23 -40,-47 -48,-71 -8,-24 -7,-51 3,-80 10,-29 30,-63 62,-103 z m 852,380 -195,336 -111,-64 195,-336 -162,-94 66,-113 432,251 -66,112 -159,-92 z m 77,477 171,-490 440,153 -39,110 -321,-111 -29,85 299,104 -33,97 -300,-104 -30,87 321,112 -39,110 -440,-153 z m 721,-47 189,32 c 3,1 5,2 7,2 2,1 5,1 8,2 15,3 27,4 36,3 9,-1 16,-3 21,-8 5,-4 9,-11 12,-20 2,-9 5,-21 7,-35 3,-14 4,-25 3,-33 -1,-9 -4,-15 -9,-21 -4,-5 -11,-9 -20,-12 -9,-2 -20,-5 -33,-7 l -198,-34 -23,131 z m -21,124 -23,132 -127,-23 89,-511 383,67 c 25,5 46,11 63,20 16,9 29,21 37,36 9,14 14,32 15,53 1,22 -1,47 -6,77 -5,30 -11,54 -18,72 -7,17 -16,30 -25,39 -9,9 -20,15 -32,18 -12,3 -25,6 -40,9 11,5 21,9 31,13 10,4 18,10 24,18 7,8 11,19 13,32 2,14 1,32 -3,55 l -16,92 -126,-22 12,-67 c 3,-22 3,-39 -3,-51 -5,-11 -19,-19 -40,-23 l -208,-36 z m 614,-53 191,5 c 4,0 6,0 9,0 2,0 4,1 8,1 15,0 26,-1 35,-3 9,-2 15,-5 20,-11 4,-5 7,-12 8,-22 2,-9 2,-21 3,-35 0,-14 -1,-25 -3,-33 -2,-8 -6,-15 -11,-19 -6,-5 -13,-8 -22,-9 -9,-1 -21,-2 -34,-2 l -201,-5 -3,133 z m -2,126 -3,134 -128,-3 11,-518 388,8 c 26,1 47,4 65,10 18,7 32,17 43,30 10,13 18,30 22,51 5,21 7,46 6,76 -1,31 -3,56 -8,74 -4,18 -10,32 -18,42 -8,10 -18,18 -29,23 -11,5 -24,10 -39,15 12,3 23,6 33,9 11,2 20,7 27,14 8,7 14,17 18,29 4,13 6,31 5,55 l -2,94 -128,-3 1,-69 c 1,-22 -2,-38 -9,-49 -8,-11 -22,-17 -44,-17 l -211,-5 z m 805,-131 -123,-187 -54,218 177,-31 z m 64,98 -266,46 -24,100 -140,24 140,-551 169,-29 314,472 -138,24 -55,-86 z m 456,-156 213,-84 c 8,-3 15,-7 21,-10 6,-4 11,-8 14,-13 4,-5 5,-11 5,-18 0,-8 -2,-17 -6,-27 -7,-17 -15,-26 -25,-29 -11,-2 -24,1 -42,8 l -215,85 35,88 z m -73,-183 203,-81 c 15,-6 26,-13 32,-22 6,-8 6,-22 -1,-40 -11,-27 -28,-36 -51,-27 l -216,86 33,84 z m -1,338 -191,-481 366,-146 c 41,-16 75,-18 102,-7 28,11 50,39 68,84 8,20 13,36 15,50 2,14 2,26 0,36 -3,11 -7,20 -14,28 -6,8 -15,17 -25,25 13,-2 26,-4 38,-5 12,-1 23,1 33,6 10,5 20,13 29,24 9,12 17,28 26,49 10,26 16,49 18,68 3,20 1,37 -6,52 -6,15 -16,28 -31,39 -15,12 -33,22 -56,31 l -372,147 z m 503,-526 c 14,22 27,41 37,56 11,15 20,27 29,35 9,9 17,14 25,16 8,2 17,2 28,-1 10,-3 22,-8 35,-16 13,-8 28,-18 47,-29 36,-24 64,-43 84,-57 20,-14 32,-28 37,-42 5,-13 3,-29 -6,-47 -9,-18 -23,-43 -43,-74 -16,-25 -30,-45 -41,-58 -12,-13 -23,-21 -34,-25 -11,-3 -23,-1 -36,5 -14,6 -31,16 -51,29 -37,24 -67,43 -89,58 -23,14 -39,28 -48,42 -9,13 -11,28 -6,44 4,16 15,38 32,64 z m -70,131 c -27,-42 -49,-78 -68,-108 -18,-31 -31,-58 -38,-82 -8,-24 -9,-47 -4,-67 5,-20 17,-40 37,-60 13,-13 40,-34 82,-61 41,-28 95,-63 162,-107 23,-14 43,-24 62,-29 20,-6 38,-7 56,-4 17,3 35,11 52,23 17,13 34,30 52,52 9,11 20,27 33,46 13,20 27,42 44,69 21,31 36,59 48,83 11,24 17,46 19,66 2,20 -1,38 -9,55 -7,16 -19,33 -36,49 -16,17 -38,34 -63,52 -25,18 -55,38 -90,61 -40,25 -74,45 -104,60 -30,16 -58,23 -83,23 -26,-1 -51,-10 -75,-29 -24,-19 -50,-50 -77,-92 z m 425,-667 239,308 227,-177 79,102 -328,256 -318,-410 101,-79 z m 399,-201 281,268 -88,93 -282,-268 -129,136 -94,-90 344,-362 94,89 -126,134 z m 360,-413 c -10,-7 -19,-11 -26,-12 -8,-2 -15,-1 -22,3 -7,4 -14,11 -22,20 -8,9 -17,21 -28,36 -2,3 -3,5 -5,7 -1,2 -2,4 -4,7 -14,23 -27,42 -37,57 -11,15 -19,28 -23,38 -5,11 -6,20 -4,28 2,7 9,15 21,24 11,7 21,10 30,8 10,-3 19,-9 27,-20 11,-15 22,-29 32,-43 11,-13 20,-26 28,-38 5,-7 11,-14 16,-22 5,-8 10,-15 15,-22 20,-28 38,-52 55,-72 17,-19 34,-32 52,-40 18,-7 38,-8 60,-2 22,6 48,20 80,42 22,15 39,30 52,44 13,15 21,29 26,43 5,15 6,29 3,45 -2,15 -8,31 -17,48 -5,10 -16,29 -33,56 -17,28 -40,62 -69,103 -28,40 -53,72 -74,95 -21,23 -41,37 -59,41 -13,3 -25,4 -36,2 -11,-2 -22,-6 -32,-11 -11,-5 -21,-11 -32,-19 -11,-7 -22,-16 -35,-25 l 73,-102 c 4,3 9,6 14,10 5,4 11,6 16,7 5,1 11,1 17,-1 6,-3 13,-8 21,-16 3,-5 9,-13 18,-24 9,-12 20,-27 34,-46 16,-23 30,-43 40,-59 11,-15 18,-28 21,-38 4,-10 4,-19 1,-26 -3,-6 -9,-13 -19,-20 -9,-7 -18,-10 -25,-11 -8,-1 -14,1 -21,5 -6,4 -13,10 -19,18 -6,8 -12,16 -19,26 -24,33 -45,62 -63,88 -19,27 -35,48 -50,66 -16,18 -30,32 -44,42 -13,10 -27,16 -42,18 -15,1 -32,-2 -49,-9 -18,-7 -39,-19 -62,-36 -21,-15 -38,-29 -51,-42 -13,-14 -22,-28 -28,-42 -5,-14 -7,-29 -5,-44 2,-15 8,-32 17,-50 6,-12 17,-31 32,-56 16,-26 37,-57 63,-94 14,-19 26,-37 37,-52 12,-15 22,-28 33,-39 10,-11 20,-20 29,-27 10,-7 21,-12 32,-14 12,-3 23,-3 34,-2 10,1 21,4 31,8 11,4 21,10 32,16 11,7 22,15 35,23 l -72,102 z"
       id="path4662"
       inkscape:connector-curvature="0"
       style="fill:#e2001a;fill-rule:nonzero" /><g
       id="_883910352"><path
         class="fil4"
         d="m 3287,10469 235,-33 27,192 -1,0 c 5,12 8,24 9,37 3,19 4,38 0,57 -5,19 -14,36 -29,49 -14,13 -31,22 -49,28 -21,7 -44,11 -66,14 -8,1 -16,2 -24,4 l -41,8 -24,-170 -188,26 -26,-188 99,-13 c -17,-1 -33,-5 -48,-12 -24,-12 -42,-32 -55,-55 -15,-27 -25,-61 -32,-91 -4,-20 -8,-40 -11,-60 -2,-17 -2,-34 -1,-51 2,-15 5,-30 11,-44 5,-13 13,-25 22,-36 l 1,-1 1,-1 c 4,-4 8,-8 12,-12 -13,0 -26,-2 -38,-7 -16,-6 -29,-15 -40,-26 -12,-12 -21,-27 -29,-42 -8,-18 -15,-37 -21,-56 -9,-27 -16,-57 -14,-85 1,-27 12,-51 29,-70 9,-10 20,-18 33,-25 12,-6 26,-11 39,-15 l 113,-36 -12,-39 150,-49 13,39 67,-21 58,180 -67,22 39,121 -151,48 -39,-121 -38,12 37,119 c 2,-1 3,-1 4,-1 29,-7 60,-12 89,-12 26,1 52,7 74,21 22,13 38,33 50,56 14,26 23,56 29,84 8,36 15,79 10,116 -6,35 -23,64 -51,85 -30,22 -71,34 -107,43 l -49,11 z m -237,-908 311,-140 78,172 -511,231 -78,-173 67,-30 c -6,0 -11,0 -16,0 -28,-2 -52,-13 -73,-32 -22,-21 -40,-51 -55,-77 -17,-31 -36,-68 -44,-102 -7,-29 -5,-59 5,-87 l 1,-1 0,-1 c 8,-18 19,-34 34,-48 -22,9 -45,14 -68,11 -28,-2 -53,-15 -74,-33 -23,-21 -44,-47 -62,-72 -13,-19 -25,-38 -36,-57 -9,-16 -17,-34 -21,-52 -4,-17 -5,-34 -2,-52 l 0,0 c 3,-17 8,-34 17,-49 10,-16 23,-30 37,-42 19,-17 41,-33 62,-48 25,-18 55,-38 84,-49 25,-9 51,-12 77,-6 15,4 30,10 44,19 15,9 28,21 39,34 16,17 30,36 43,55 18,25 38,55 50,83 10,24 13,49 9,74 -5,25 -15,47 -31,66 -12,14 -27,27 -42,39 13,-6 27,-11 41,-15 25,-7 51,-10 77,-4 26,5 48,19 67,38 20,21 37,47 51,72 18,31 37,70 44,105 6,32 2,63 -16,90 -19,27 -49,47 -77,63 l -32,18 z m -52,-183 c -1,-2 -2,-4 -2,-5 -2,-3 -5,-8 -8,-13 -13,5 -29,14 -40,20 -15,9 -33,19 -46,29 1,4 4,9 5,12 1,2 3,5 5,8 5,-3 11,-6 14,-8 l 32,-17 -1,-3 34,-19 c 2,-1 5,-3 7,-4 z m -538,-617 289,-255 125,142 -420,371 -126,-142 76,-67 c -14,9 -30,15 -47,17 -27,4 -53,-3 -76,-15 -28,-14 -55,-38 -77,-59 -15,-13 -29,-28 -42,-43 -11,-13 -21,-27 -29,-42 -7,-13 -13,-27 -16,-42 -3,-14 -3,-29 -2,-43 l 1,-1 0,-1 c 2,-11 5,-21 9,-31 4,-12 10,-22 17,-32 8,-12 16,-23 25,-33 11,-13 22,-26 34,-39 21,-21 43,-43 68,-58 22,-14 47,-24 73,-24 25,-1 50,6 73,19 25,14 49,34 71,54 26,25 56,57 71,91 15,32 17,66 5,99 -13,35 -40,68 -65,95 l -37,39 z M 1290,7881 c 1,-2 2,-4 3,-6 13,-26 30,-53 49,-75 18,-19 39,-35 64,-43 24,-8 50,-7 75,-1 28,6 57,20 83,33 33,17 69,40 94,68 23,27 34,59 31,94 -3,37 -20,76 -37,109 l -35,67 c -16,30 -39,58 -72,72 -25,11 -51,12 -77,7 -30,-7 -63,-22 -90,-36 -18,-10 -35,-20 -52,-31 -14,-9 -27,-20 -39,-32 -11,-11 -20,-23 -27,-37 -6,-13 -10,-26 -13,-40 l 0,-1 0,-2 c -1,-7 -1,-15 -1,-22 -9,13 -20,24 -33,33 -14,9 -29,14 -45,16 -17,3 -34,1 -51,-2 -19,-4 -39,-10 -57,-16 -27,-9 -56,-21 -77,-39 -20,-17 -34,-40 -38,-65 -3,-14 -3,-28 -1,-41 2,-14 7,-28 11,-41 l 38,-113 -37,-12 -56,247 -188,-43 1,-4 c -19,1 -39,-1 -58,-5 -40,-9 -79,-27 -101,-63 -11,-17 -16,-35 -18,-54 -6,12 -13,23 -21,33 -19,20 -42,34 -70,38 -29,6 -65,2 -95,-2 -34,-5 -75,-12 -107,-26 -28,-13 -50,-32 -67,-58 l 0,0 0,-1 c -12,-20 -18,-43 -19,-66 -2,-20 0,-42 2,-63 l -159,2 3,190 -189,3 -6,-416 193,-3 0,1 c 13,-3 26,-5 38,-5 19,0 39,2 57,8 18,7 33,18 45,34 11,16 17,34 21,53 5,22 6,45 7,67 0,1 0,2 0,3 3,-18 8,-37 15,-54 9,-24 23,-47 43,-64 20,-17 44,-27 71,-30 28,-4 59,-1 88,3 36,4 78,12 110,28 29,14 51,36 62,67 10,31 8,68 4,100 l 0,2 38,-170 185,42 -52,226 c -1,7 -3,15 -4,23 1,0 3,1 4,1 5,1 12,3 17,-1 4,-9 8,-26 9,-34 l 48,-210 185,42 -34,148 47,-139 39,13 23,-67 179,60 -23,68 121,41 -51,149 -121,-41 -13,39 131,44 z M 380,7611 c -2,0 -4,0 -6,0 -3,-1 -9,-2 -14,-2 -5,13 -7,31 -9,44 -2,17 -5,38 -5,54 5,2 10,2 13,3 2,0 6,1 9,1 2,-6 2,-12 3,-16 l 5,-36 -3,0 6,-39 c 0,-2 0,-6 1,-9 z m -984,-13 c 0,-1 1,-3 1,-4 2,-26 11,-51 26,-72 16,-21 37,-35 61,-45 27,-11 58,-17 87,-21 36,-5 79,-8 115,1 35,8 62,28 81,58 19,32 28,74 33,110 l 10,75 c 5,34 2,70 -16,100 -14,24 -35,40 -59,51 -28,12 -64,18 -94,23 -20,2 -40,4 -60,5 -17,1 -34,0 -51,-3 -15,-3 -30,-8 -43,-15 -13,-6 -24,-15 -34,-25 l -1,-1 -1,-1 c -7,-8 -13,-17 -18,-26 -6,-11 -11,-22 -15,-34 -4,-13 -7,-26 -10,-39 -3,-17 -6,-34 -8,-52 0,-1 0,-3 -1,-4 -2,22 -9,43 -22,61 -16,23 -40,40 -65,51 -4,2 -7,4 -11,6 -6,3 -12,4 -18,6 -8,2 -16,4 -23,5 l -18,5 -17,4 -6,2 -53,13 28,120 -203,47 -126,-546 274,-63 c 22,-6 47,-11 70,-12 20,0 40,4 58,10 21,7 40,18 57,33 17,15 30,35 39,57 11,24 19,51 25,78 3,13 6,28 8,42 z m -1809,1050 c -20,-22 -40,-46 -54,-71 -13,-23 -21,-48 -20,-74 1,-26 9,-50 23,-72 16,-24 37,-47 59,-67 27,-25 60,-53 95,-67 32,-13 66,-13 99,2 34,14 65,43 90,70 l 21,21 0,0 31,34 c 24,25 43,56 45,91 3,27 -5,52 -19,75 -16,27 -41,52 -63,73 -15,14 -30,28 -46,40 -13,10 -28,19 -43,26 -14,7 -28,12 -43,14 -15,2 -29,1 -43,-1 l -1,0 -1,-1 c -7,-1 -13,-3 -19,-5 6,10 10,22 12,35 3,15 2,31 -2,47 -5,16 -13,32 -22,46 -11,17 -24,32 -37,47 -18,21 -41,43 -66,55 -24,13 -50,16 -75,11 -13,-3 -26,-8 -37,-15 -12,-8 -24,-17 -34,-27 l -89,-78 -27,30 -119,-105 28,-30 -54,-47 126,-142 53,47 85,-96 118,105 -85,96 31,27 83,-94 z m -458,598 -169,-117 108,-156 190,132 c 6,4 13,9 20,13 1,-1 2,-3 2,-4 3,-4 8,-10 6,-16 -7,-7 -21,-16 -28,-21 l -177,-123 108,-155 342,236 -110,159 -4,-3 c -5,18 -14,36 -25,52 -23,33 -55,63 -96,71 -23,4 -45,1 -65,-6 9,9 17,19 24,31 13,24 18,51 13,79 -5,29 -21,62 -35,88 -16,31 -37,67 -61,92 -21,22 -47,37 -76,43 l -1,0 -1,1 c -23,4 -46,1 -68,-5 -23,-7 -47,-18 -69,-29 l -54,144 177,68 -67,177 -90,-34 c 14,8 27,19 37,33 15,22 22,48 22,74 0,31 -8,66 -16,96 -6,19 -11,38 -19,57 -6,16 -14,31 -23,45 -9,13 -19,25 -31,34 -11,9 -23,16 -36,21 l -1,1 -2,0 c -10,4 -21,6 -31,7 -12,1 -25,1 -37,-1 -13,-1 -27,-3 -40,-6 -17,-4 -34,-8 -50,-13 -29,-8 -59,-18 -84,-32 -23,-13 -42,-31 -55,-53 -13,-23 -18,-48 -17,-74 0,-29 7,-60 15,-88 10,-36 24,-76 47,-106 21,-28 50,-45 85,-50 37,-5 79,3 114,13 l 52,15 -229,-88 69,-180 0,0 c 2,-13 5,-25 10,-37 7,-18 16,-35 28,-50 13,-14 30,-24 48,-29 19,-4 39,-4 57,0 16,2 31,7 46,12 -6,-4 -11,-9 -16,-13 -20,-17 -37,-38 -46,-63 -10,-25 -10,-51 -5,-76 7,-29 20,-57 33,-83 17,-32 38,-69 64,-94 23,-22 52,-36 84,-35 33,1 67,15 95,30 l 33,17 1,-3 4,2 z m -131,144 c -1,2 -2,4 -2,5 -2,3 -5,8 -7,13 11,9 27,17 39,23 15,8 33,18 49,23 3,-4 5,-8 7,-11 1,-2 2,-5 4,-9 -5,-3 -11,-6 -14,-8 l -32,-16 -2,2 -35,-18 c -1,-1 -4,-3 -7,-4 z m -229,1051 c 0,4 1,9 1,13 0,6 0,12 -1,18 -1,8 -2,16 -3,23 l -2,19 -2,17 0,7 -8,54 123,17 -29,206 -555,-77 38,-278 c 4,-23 8,-48 15,-70 7,-18 17,-36 30,-50 14,-17 31,-32 51,-42 20,-10 44,-15 67,-16 27,-2 55,1 81,4 34,5 70,12 101,25 27,11 52,27 68,52 16,23 23,50 25,78 z m 1375,-2438 5,6 172,-111 91,140 -172,112 8,13 188,-122 101,155 -363,235 -305,-470 359,-233 100,155 -184,120 z m 464,-115 16,37 131,-59 16,36 c 1,3 3,7 4,10 1,2 1,3 2,5 9,20 19,44 24,65 5,18 4,36 0,54 -4,15 -11,30 -22,42 -10,13 -24,24 -38,33 -17,11 -35,20 -53,28 -26,11 -55,22 -83,24 -27,1 -52,-7 -73,-22 -11,-8 -20,-18 -28,-29 -8,-12 -14,-25 -20,-38 l -49,-108 -37,17 -65,-144 37,-17 -29,-65 172,-78 30,65 116,-53 65,145 -116,52 z m 3454,350 17,-14 25,-21 173,-140 177,122 -453,368 -213,-147 188,-552 175,121 -72,211 c -6,18 -11,35 -17,52 z m -5497,2328 6,-41 c 1,-8 2,-16 2,-24 -8,-3 -20,-5 -28,-6 -7,-1 -23,-3 -31,-1 -1,2 -1,5 -1,6 l -8,57 60,9 z m 2558,-2920 40,-9 c 8,-2 16,-4 24,-7 -1,-9 -3,-21 -5,-29 -2,-6 -6,-22 -10,-29 -2,0 -5,1 -7,1 l -56,13 14,60 z m 3644,1367 c 0,0 0,0 0,0 -12,4 -27,15 -37,23 -12,8 -25,17 -36,27 -1,2 -5,5 -7,8 2,5 6,10 8,14 2,2 5,6 8,10 1,-1 3,-2 3,-2 17,-8 36,-21 51,-32 9,-6 22,-15 28,-24 -2,-4 -6,-9 -7,-12 -2,-3 -7,-9 -11,-12 z"
         id="path4665"
         inkscape:connector-curvature="0"
         style="fill:#ffffff" /></g><path
       class="fil5"
       d="m -3185,10770 -477,-65 25,-186 7,-53 c 4,-28 8,-48 13,-62 5,-13 12,-26 23,-39 11,-13 24,-24 38,-31 14,-7 31,-11 52,-12 20,-2 44,0 74,4 38,5 68,12 91,22 23,9 39,21 50,37 11,15 17,35 18,60 1,5 1,8 1,11 0,2 0,6 -1,12 0,6 -1,14 -2,24 l -2,17 -2,19 -1,7 -1,7 -1,7 -10,76 122,17 -17,128 z m -216,-160 11,-80 c 2,-20 3,-32 3,-36 0,-5 -1,-9 -2,-13 -3,-6 -10,-11 -19,-15 -9,-4 -23,-7 -42,-10 -26,-3 -45,-2 -56,4 -12,5 -18,17 -21,35 l -2,15 -11,81 139,19 z"
       id="path4667"
       inkscape:connector-curvature="0"
       style="fill:#e2001a;fill-rule:nonzero" /><path
       id="1"
       class="fil5"
       d="m -3174,10082 28,-104 6,2 c 30,8 52,21 65,39 10,14 16,31 16,51 0,21 -4,49 -14,85 -6,21 -12,39 -17,53 -6,15 -12,27 -20,38 -7,11 -14,19 -22,25 -7,6 -16,12 -26,16 -7,2 -15,4 -24,5 -8,1 -18,1 -28,0 -10,-1 -22,-3 -36,-6 -14,-3 -30,-7 -48,-12 -32,-8 -57,-18 -76,-28 -18,-10 -32,-23 -40,-38 -9,-15 -13,-33 -13,-53 1,-21 5,-47 14,-78 11,-42 24,-73 39,-93 15,-21 35,-32 59,-36 24,-3 57,1 98,12 l 31,8 -56,209 c 3,1 7,3 12,4 17,4 30,6 39,5 10,-1 17,-5 23,-12 6,-7 11,-18 15,-32 3,-13 5,-23 5,-31 0,-8 -3,-14 -8,-18 -5,-5 -12,-9 -22,-11 z m -122,78 29,-106 c -3,0 -7,-1 -11,-2 -18,-5 -30,-4 -36,1 -7,5 -13,19 -20,43 -4,14 -5,25 -5,32 0,7 3,13 8,17 5,4 14,8 26,12 1,1 3,1 4,2 2,0 3,1 5,1 z"
       inkscape:connector-curvature="0"
       style="fill:#e2001a;fill-rule:nonzero" /><path
       id="2"
       class="fil5"
       d="m -3325,9826 39,-103 49,24 0,-3 c -16,-16 -27,-32 -30,-46 -3,-15 -1,-33 6,-53 6,-16 13,-28 21,-37 8,-9 17,-14 28,-17 11,-3 25,-3 41,0 16,3 35,8 57,17 10,3 18,6 25,9 l -36,94 c -2,-1 -4,-2 -7,-4 -15,-5 -26,-9 -35,-10 -8,-2 -15,-1 -19,1 -5,3 -8,9 -12,17 -4,12 -3,22 3,31 6,10 16,17 31,23 l 11,4 182,69 -39,104 -315,-120 z"
       inkscape:connector-curvature="0"
       style="fill:#e2001a;fill-rule:nonzero" /><path
       id="3"
       class="fil5"
       d="m -2910,9391 49,-94 c 25,13 43,23 54,31 11,9 19,18 25,29 9,17 12,34 9,53 -3,19 -13,44 -30,77 -20,39 -38,67 -54,83 -16,17 -34,28 -56,32 -16,3 -33,2 -51,-3 -18,-5 -42,-16 -73,-31 -31,-17 -55,-32 -73,-46 -17,-15 -28,-30 -35,-47 -6,-16 -6,-34 -2,-54 4,-20 14,-44 28,-73 21,-39 39,-67 56,-84 17,-16 36,-24 56,-24 20,0 46,9 78,25 l -49,94 c -17,-9 -30,-12 -38,-10 -8,3 -16,12 -25,28 -8,16 -12,28 -13,36 0,8 5,16 14,24 9,7 25,17 49,29 25,14 45,22 57,26 12,4 22,4 29,-1 6,-4 14,-15 22,-30 6,-13 10,-23 11,-30 1,-7 -2,-14 -7,-20 -6,-5 -16,-12 -31,-20 z"
       inkscape:connector-curvature="0"
       style="fill:#e2001a;fill-rule:nonzero" /><path
       id="4"
       class="fil5"
       d="m -2804,8854 278,190 -62,92 -54,-45 -1,2 c 16,20 25,41 25,61 0,21 -7,43 -23,66 -22,32 -46,50 -71,55 -26,5 -54,-3 -86,-25 l -188,-129 62,-91 159,108 c 14,9 22,15 27,17 4,2 8,4 13,4 13,2 25,-6 36,-22 15,-21 17,-41 7,-59 -4,-7 -17,-18 -39,-33 l -146,-100 63,-91 z"
       inkscape:connector-curvature="0"
       style="fill:#e2001a;fill-rule:nonzero" /><path
       id="5"
       class="fil5"
       d="m -2560,8571 60,52 -84,96 103,90 c 13,11 23,18 30,20 7,1 13,-1 19,-8 8,-10 11,-19 8,-26 -2,-8 -12,-19 -29,-34 l -5,-5 58,-66 c 2,2 4,4 5,5 2,2 3,3 4,5 24,21 40,36 47,45 7,9 11,20 14,32 2,9 1,19 -2,30 -2,10 -8,22 -16,34 -8,13 -19,27 -33,43 -20,23 -38,39 -54,47 -15,8 -32,10 -49,7 -9,-2 -17,-5 -25,-10 -7,-4 -17,-12 -28,-22 l -120,-104 -27,31 -59,-52 27,-31 -54,-47 73,-83 53,47 84,-96 z"
       inkscape:connector-curvature="0"
       style="fill:#e2001a;fill-rule:nonzero" /><path
       id="6"
       class="fil5"
       d="m -2182,8520 78,-75 5,5 c 21,23 33,45 35,67 1,18 -3,35 -13,52 -11,18 -29,40 -56,65 -16,15 -30,28 -43,37 -12,10 -24,17 -36,22 -11,6 -22,9 -32,11 -9,1 -20,1 -31,-1 -7,-1 -14,-4 -22,-8 -8,-3 -16,-8 -24,-14 -9,-7 -18,-15 -28,-24 -10,-10 -22,-21 -35,-35 -23,-24 -39,-45 -50,-63 -10,-19 -15,-36 -15,-54 1,-17 6,-34 17,-51 11,-18 28,-38 52,-61 31,-29 59,-49 82,-58 23,-10 46,-10 69,0 22,9 48,30 78,60 l 21,23 -156,149 c 2,3 5,7 9,10 11,13 22,21 30,25 9,4 18,5 26,2 9,-3 19,-10 29,-20 10,-9 16,-17 21,-24 3,-7 4,-13 3,-20 -2,-6 -7,-13 -14,-20 z m -145,3 79,-76 c -2,-2 -5,-4 -8,-7 -12,-13 -22,-18 -30,-17 -9,1 -21,10 -39,26 -11,11 -18,19 -21,25 -4,7 -4,13 -2,19 2,6 7,14 15,23 1,1 2,2 3,3 1,1 2,2 3,4 z"
       inkscape:connector-curvature="0"
       style="fill:#e2001a;fill-rule:nonzero" /><polygon
       id="7"
       class="fil5"
       points="-1643,8027 -1815,8139 -1764,8217 -1576,8096 -1518,8184 -1814,8377 -2076,7973 -1784,7783 -1726,7872 -1910,7991 -1863,8064 -1691,7953 "
       style="fill:#e2001a;fill-rule:nonzero" /><path
       id="8"
       class="fil5"
       d="m -1363,7743 33,72 -116,54 57,123 c 7,16 13,26 19,31 5,4 12,4 21,0 11,-5 17,-12 18,-20 1,-8 -4,-23 -13,-43 l -3,-6 81,-37 c 1,3 2,6 3,7 0,2 1,4 2,6 13,29 20,49 23,60 3,11 3,23 0,35 -3,9 -7,18 -14,27 -6,8 -16,16 -29,24 -13,8 -29,17 -48,26 -28,13 -51,19 -68,20 -18,1 -34,-3 -48,-14 -8,-5 -14,-11 -19,-18 -4,-7 -10,-18 -17,-32 l -65,-144 -37,17 -33,-72 37,-17 -30,-64 100,-46 30,65 116,-54 z"
       inkscape:connector-curvature="0"
       style="fill:#e2001a;fill-rule:nonzero" /><path
       id="9"
       class="fil5"
       d="m -980,7952 -107,-470 183,-42 52,-12 c 28,-6 48,-9 62,-10 15,0 29,3 45,8 17,6 31,14 43,25 11,10 21,25 30,44 8,18 15,42 22,70 9,38 12,69 12,94 -1,24 -7,44 -17,60 -11,15 -28,28 -50,38 -4,2 -7,4 -9,5 -3,1 -7,2 -12,4 -6,1 -14,3 -23,5 l -18,5 -18,4 -6,2 -7,2 -8,2 -75,17 28,120 -127,29 z m 74,-258 79,-18 c 19,-5 31,-9 35,-10 4,-2 8,-4 11,-7 5,-5 8,-13 8,-23 0,-10 -2,-24 -6,-43 -6,-26 -14,-43 -23,-51 -9,-9 -23,-11 -41,-7 l -14,3 -80,19 31,137 z"
       inkscape:connector-curvature="0"
       style="fill:#e2001a;fill-rule:nonzero" /><path
       id="10"
       class="fil5"
       d="m -336,7714 106,-14 1,6 c 5,31 1,56 -11,75 -9,15 -23,27 -41,35 -18,8 -46,14 -83,19 -22,3 -41,5 -56,5 -16,1 -30,0 -43,-3 -12,-2 -23,-6 -31,-10 -9,-5 -17,-11 -25,-19 -5,-5 -9,-12 -14,-19 -4,-8 -7,-17 -11,-27 -3,-10 -6,-21 -8,-35 -3,-14 -6,-30 -8,-49 -5,-33 -6,-59 -3,-80 2,-22 9,-39 19,-52 10,-14 25,-25 44,-33 19,-7 45,-13 77,-18 43,-6 77,-5 101,1 25,6 43,19 56,40 12,21 22,53 27,96 l 5,31 -215,29 c 0,4 1,8 1,13 3,17 6,29 11,38 4,8 11,14 20,16 8,3 20,3 35,1 13,-1 23,-4 30,-7 7,-3 12,-8 14,-14 3,-7 3,-15 2,-25 z m -120,-82 109,-15 c -1,-2 -2,-6 -2,-10 -3,-18 -8,-29 -15,-33 -7,-4 -23,-5 -47,-2 -15,2 -25,5 -32,8 -6,3 -11,8 -13,14 -1,6 -2,16 -1,28 1,2 1,4 1,5 0,1 0,3 0,5 z"
       inkscape:connector-curvature="0"
       style="fill:#e2001a;fill-rule:nonzero" /><path
       id="11"
       class="fil5"
       d="m -150,7476 110,-1 -5,54 3,0 c 9,-21 20,-37 33,-45 12,-9 29,-13 51,-13 17,0 31,2 42,6 11,4 20,10 26,20 7,9 12,22 15,37 3,16 5,36 5,60 0,11 1,19 1,27 l -100,1 c 0,-3 1,-5 1,-9 -1,-15 -1,-27 -3,-36 -2,-9 -5,-15 -9,-17 -4,-4 -11,-5 -20,-5 -12,0 -22,5 -29,13 -6,9 -10,22 -10,38 l 1,11 1,195 -110,1 -3,-337 z"
       inkscape:connector-curvature="0"
       style="fill:#e2001a;fill-rule:nonzero" /><path
       id="12"
       class="fil5"
       d="m 409,7701 106,14 c -3,28 -7,48 -11,61 -5,13 -11,24 -19,33 -13,14 -28,23 -47,26 -18,3 -46,3 -83,-2 -43,-6 -75,-14 -96,-23 -21,-10 -37,-24 -49,-43 -8,-14 -13,-30 -14,-49 -1,-19 1,-45 5,-79 5,-35 11,-63 19,-84 8,-21 19,-38 32,-49 13,-11 30,-18 50,-21 20,-2 46,-1 78,3 44,6 77,14 98,24 21,11 35,25 42,44 6,20 7,47 2,82 l -105,-15 c 3,-19 2,-32 -3,-39 -5,-7 -17,-11 -35,-14 -17,-2 -30,-2 -38,0 -8,3 -14,10 -18,21 -4,11 -8,30 -11,56 -4,30 -6,51 -6,64 1,13 4,22 11,27 7,5 19,9 36,11 14,2 25,2 32,0 7,-1 13,-6 16,-13 3,-7 6,-19 8,-35 z"
       inkscape:connector-curvature="0"
       style="fill:#e2001a;fill-rule:nonzero" /><path
       id="13"
       class="fil5"
       d="m 944,7595 -74,329 -107,-24 21,-67 -2,0 c -13,23 -29,38 -48,46 -19,8 -42,9 -70,2 -38,-8 -63,-23 -77,-45 -14,-22 -17,-51 -9,-89 l 50,-223 108,24 -42,188 c -4,16 -6,27 -6,31 -1,5 0,9 1,14 3,13 15,21 35,26 25,5 44,0 58,-16 5,-6 10,-22 16,-49 l 38,-171 108,24 z"
       inkscape:connector-curvature="0"
       style="fill:#e2001a;fill-rule:nonzero" /><path
       id="14"
       class="fil5"
       d="m 1293,7713 -25,75 -120,-40 -44,129 c -5,17 -8,29 -7,36 2,6 6,11 15,14 12,4 21,4 27,-2 6,-5 13,-19 20,-40 l 2,-7 84,28 c -2,4 -2,6 -3,8 -1,1 -2,3 -2,5 -11,30 -19,50 -25,60 -5,10 -13,18 -24,25 -8,6 -17,9 -28,11 -10,1 -23,0 -38,-2 -15,-3 -32,-8 -52,-14 -29,-10 -51,-21 -64,-32 -14,-11 -22,-26 -25,-43 -2,-9 -2,-18 -1,-26 1,-9 5,-21 10,-35 l 50,-150 -39,-14 25,-75 39,13 23,-67 105,35 -23,68 120,40 z"
       inkscape:connector-curvature="0"
       style="fill:#e2001a;fill-rule:nonzero" /><path
       id="15"
       class="fil5"
       d="m 1489,8051 96,50 -3,5 c -14,28 -32,46 -52,55 -16,7 -34,8 -54,4 -19,-4 -46,-14 -79,-31 -19,-10 -36,-20 -48,-28 -13,-9 -24,-18 -33,-27 -9,-9 -16,-18 -20,-27 -5,-9 -8,-18 -10,-29 -1,-8 -1,-15 0,-24 1,-9 3,-18 6,-28 3,-10 8,-21 14,-34 5,-13 13,-27 21,-44 15,-29 30,-52 44,-68 14,-15 29,-26 45,-31 17,-5 35,-6 55,-1 20,4 44,14 73,29 39,20 66,40 83,59 16,19 24,40 22,65 -2,24 -13,56 -33,94 l -14,28 -192,-99 c -2,3 -4,7 -6,11 -8,15 -12,27 -14,37 -1,9 2,17 7,25 6,7 15,14 28,21 12,6 21,9 29,11 8,2 15,0 20,-3 6,-4 11,-11 15,-20 z m -50,-136 97,51 c 1,-3 2,-6 4,-10 8,-16 11,-27 7,-35 -4,-7 -16,-17 -38,-28 -13,-7 -23,-11 -30,-12 -7,-1 -13,0 -18,4 -6,4 -11,11 -17,22 -1,2 -2,3 -3,4 0,1 -1,3 -2,4 z"
       inkscape:connector-curvature="0"
       style="fill:#e2001a;fill-rule:nonzero" /><path
       id="16"
       class="fil5"
       d="m 2278,8109 110,76 -388,318 -165,-113 159,-475 108,74 -61,183 c -24,71 -45,132 -63,182 l 3,2 12,-10 12,-11 13,-10 c 18,-16 31,-27 36,-32 l 25,-20 25,-20 24,-21 150,-123 z"
       inkscape:connector-curvature="0"
       style="fill:#e2001a;fill-rule:nonzero" /><path
       id="17"
       class="fil5"
       d="m 2342,8672 77,75 -4,4 c -22,23 -44,36 -66,39 -17,2 -34,-2 -52,-11 -18,-10 -40,-27 -67,-53 -16,-15 -29,-29 -39,-41 -10,-12 -18,-23 -24,-35 -6,-11 -10,-22 -12,-31 -1,-10 -2,-20 0,-31 1,-7 3,-15 6,-23 4,-8 8,-16 14,-25 6,-8 13,-18 22,-29 9,-10 21,-23 34,-36 22,-24 43,-41 61,-53 18,-11 35,-17 52,-17 17,-1 35,4 53,14 18,10 39,26 62,49 32,30 52,56 63,79 10,23 11,46 2,69 -8,23 -27,50 -57,81 l -22,23 -156,-149 c -3,2 -6,5 -9,9 -12,12 -20,23 -23,31 -4,9 -4,18 -1,26 4,9 11,18 21,28 10,9 18,16 25,19 7,4 14,5 20,3 6,-2 13,-7 20,-15 z m -10,-144 79,75 c 1,-2 4,-5 7,-8 12,-13 18,-23 16,-32 -1,-8 -11,-21 -28,-37 -11,-10 -19,-17 -26,-20 -6,-3 -13,-4 -19,-1 -6,2 -13,8 -22,16 -1,1 -2,3 -3,4 -1,0 -3,1 -4,3 z"
       inkscape:connector-curvature="0"
       style="fill:#e2001a;fill-rule:nonzero" /><polygon
       id="18"
       class="fil5"
       points="2743,8559 2817,8642 2458,8963 2384,8881 "
       style="fill:#e2001a;fill-rule:nonzero" /><path
       id="19"
       class="fil5"
       d="m 2877,8958 c 23,33 38,58 45,76 7,18 9,35 6,52 -3,17 -11,33 -23,47 -13,15 -32,31 -59,50 -34,24 -61,41 -84,51 -22,10 -42,15 -60,13 -18,-2 -35,-10 -51,-25 -16,-14 -35,-36 -55,-65 -14,-20 -25,-38 -33,-53 -9,-16 -14,-30 -17,-42 -3,-13 -3,-25 -1,-37 2,-13 6,-25 12,-35 6,-9 16,-20 29,-32 14,-12 34,-27 60,-45 31,-22 56,-37 75,-43 18,-7 36,-9 54,-4 11,2 22,7 32,13 10,7 20,16 31,28 11,12 24,29 39,51 z m -67,47 c -9,-14 -18,-22 -27,-27 -8,-4 -18,-4 -29,0 -12,5 -27,14 -47,28 -17,11 -30,21 -40,30 -9,8 -16,16 -19,23 -3,7 -4,15 -2,22 3,8 8,17 15,28 10,14 19,22 27,26 9,4 20,2 34,-4 13,-6 32,-18 57,-35 18,-13 30,-23 37,-32 7,-9 10,-18 9,-27 -1,-9 -6,-20 -15,-32 z"
       inkscape:connector-curvature="0"
       style="fill:#e2001a;fill-rule:nonzero" /><path
       id="20"
       class="fil5"
       d="m 2946,9455 53,93 c -24,14 -43,23 -56,27 -13,5 -25,7 -38,6 -18,-2 -35,-9 -49,-22 -14,-12 -30,-35 -48,-67 -21,-38 -35,-68 -40,-91 -5,-22 -4,-44 4,-64 6,-15 16,-28 30,-41 15,-12 37,-27 67,-44 30,-17 57,-29 78,-36 21,-6 41,-7 58,-4 17,4 32,13 47,28 14,14 29,35 45,63 22,39 35,70 40,93 4,23 1,43 -10,60 -11,17 -33,34 -64,51 l -52,-92 c 17,-9 27,-18 29,-26 3,-8 0,-20 -9,-36 -9,-16 -17,-26 -24,-31 -6,-4 -15,-5 -27,-1 -11,3 -28,11 -51,25 -26,14 -44,25 -54,34 -10,8 -15,16 -15,24 1,8 5,20 14,36 6,12 13,20 19,25 5,5 12,6 20,5 8,-2 19,-7 33,-15 z"
       inkscape:connector-curvature="0"
       style="fill:#e2001a;fill-rule:nonzero" /><path
       id="21"
       class="fil5"
       d="m 3386,9571 -74,34 -46,-100 74,-34 46,100 z m -132,60 -306,140 -46,-100 307,-140 45,100 z"
       inkscape:connector-curvature="0"
       style="fill:#e2001a;fill-rule:nonzero" /><path
       id="22"
       class="fil5"
       d="m 3378,9985 -76,24 -39,-121 -129,40 c -17,6 -28,11 -33,16 -4,4 -5,11 -3,20 4,12 10,19 18,21 8,2 23,-1 44,-8 l 7,-2 26,84 c -3,1 -6,2 -7,3 -2,0 -4,0 -6,1 -31,9 -52,14 -63,16 -11,1 -23,-1 -34,-5 -9,-4 -18,-9 -25,-17 -8,-8 -15,-18 -21,-32 -7,-14 -13,-31 -20,-51 -9,-29 -13,-52 -12,-70 2,-18 8,-33 20,-46 6,-7 13,-12 21,-16 8,-4 19,-8 34,-13 l 150,-47 -12,-39 76,-24 12,39 68,-21 33,105 -68,22 39,121 z"
       inkscape:connector-curvature="0"
       style="fill:#e2001a;fill-rule:nonzero" /><path
       id="23"
       class="fil5"
       d="m 3236,10330 24,105 -7,1 c -30,7 -55,6 -75,-4 -16,-7 -29,-20 -38,-38 -10,-17 -19,-45 -28,-81 -5,-21 -8,-40 -10,-55 -1,-15 -2,-30 -1,-42 2,-13 4,-24 8,-33 4,-9 9,-18 16,-26 5,-6 11,-11 18,-16 8,-5 16,-9 26,-13 9,-4 21,-8 34,-12 14,-4 30,-8 48,-12 32,-7 59,-11 80,-10 21,0 39,5 53,14 15,9 27,23 36,41 10,18 18,43 25,75 10,42 13,76 9,101 -4,25 -15,44 -35,59 -20,14 -51,26 -92,35 l -31,8 -48,-210 c -4,0 -8,1 -13,2 -17,4 -29,8 -37,13 -7,6 -12,13 -14,22 -2,9 -1,20 2,35 3,12 6,22 10,29 4,7 9,11 15,13 7,2 15,1 25,-1 z m 71,-126 24,106 c 3,-1 7,-2 11,-3 17,-4 27,-10 30,-17 4,-8 3,-24 -3,-47 -3,-14 -7,-25 -10,-31 -4,-6 -9,-10 -15,-11 -6,-2 -16,-1 -28,1 -1,1 -3,1 -4,1 -1,0 -3,0 -5,1 z"
       inkscape:connector-curvature="0"
       style="fill:#e2001a;fill-rule:nonzero" /><path
       id="24"
       class="fil5"
       d="m 3488,10482 15,109 -54,2 1,3 c 22,6 39,15 49,26 10,12 16,28 19,49 2,17 2,32 0,43 -3,11 -9,21 -17,28 -8,8 -20,15 -36,20 -15,5 -35,9 -59,12 -10,2 -18,3 -26,5 l -13,-99 c 2,0 5,0 8,-1 16,-2 28,-4 36,-7 9,-3 14,-6 16,-11 3,-4 4,-11 2,-20 -1,-13 -7,-21 -17,-27 -9,-6 -22,-7 -38,-5 l -12,1 -193,26 -15,-109 334,-45 z"
       inkscape:connector-curvature="0"
       style="fill:#e2001a;fill-rule:nonzero" /><circle
       class="fil3"
       cy="11000"
       r="3898"
       id="circle4693"
       cx="0"
       style="fill:none" /></g></svg>