<?xml version="1.0" encoding="UTF-8" standalone="no"?>
<!-- Creator: CorelDRAW X7 -->

<svg
   xmlns:dc="http://purl.org/dc/elements/1.1/"
   xmlns:cc="http://creativecommons.org/ns#"
   xmlns:rdf="http://www.w3.org/1999/02/22-rdf-syntax-ns#"
   xmlns:svg="http://www.w3.org/2000/svg"
   xmlns="http://www.w3.org/2000/svg"
   xmlns:sodipodi="http://sodipodi.sourceforge.net/DTD/sodipodi-0.dtd"
   xmlns:inkscape="http://www.inkscape.org/namespaces/inkscape"
   xml:space="preserve"
   width="7.8740005in"
   height="7.8740005in"
   version="1.1"
   style="clip-rule:evenodd;fill-rule:evenodd;image-rendering:optimizeQuality;shape-rendering:geometricPrecision;text-rendering:geometricPrecision"
   viewBox="0 0 7874.0005 7874.0005"
   id="svg2"
   inkscape:version="0.91 r13725"
   sodipodi:docname="PanOceania - Acontecimento Regulars - [N3] Vyo].svg"><metadata
     id="metadata34"><rdf:RDF><cc:Work
         rdf:about=""><dc:format>image/svg+xml</dc:format><dc:type
           rdf:resource="http://purl.org/dc/dcmitype/StillImage" /></cc:Work></rdf:RDF></metadata><sodipodi:namedview
     pagecolor="#ffffff"
     bordercolor="#666666"
     borderopacity="1"
     objecttolerance="10"
     gridtolerance="10"
     guidetolerance="10"
     inkscape:pageopacity="0"
     inkscape:pageshadow="2"
     inkscape:window-width="640"
     inkscape:window-height="480"
     id="namedview32"
     showgrid="false"
     inkscape:zoom="0.23838384"
     inkscape:cx="736.83001"
     inkscape:cy="849.33005"
     inkscape:window-x="0"
     inkscape:window-y="0"
     inkscape:window-maximized="0"
     inkscape:current-layer="svg2" /><defs
     id="defs4"><style
       type="text/css"
       id="style6"><![CDATA[
    .fil4 {fill:none}
    .fil0 {fill:#00C0FF}
    .fil5 {fill:#A0D211}
    .fil1 {fill:white}
    .fil2 {fill:white}
    .fil3 {fill:#A0D211;fill-rule:nonzero}
   ]]></style></defs><g
     id="Layer_x0020_1"
     transform="translate(3937,-7063)"><metadata
       id="CorelCorpID_0Corel-Layer" /><circle
       class="fil0"
       cy="11000"
       r="3937"
       id="circle10"
       cx="0"
       style="fill:#00c0ff" /><circle
       class="fil1"
       cy="11000"
       r="3858"
       id="circle12"
       cx="0"
       style="fill:#ffffff" /><path
       class="fil0"
       d="m 276,7586 c 1762,140 3149,1615 3149,3414 0,160 -11,318 -32,472 l -1364,0 c -61,-455 -272,-862 -581,-1172 -20,-19 -39,-38 -60,-56 l -320,457 c 265,270 428,639 428,1047 0,413 -167,787 -438,1058 -271,271 -645,438 -1058,438 -413,0 -787,-167 -1058,-438 -271,-271 -438,-645 -438,-1058 0,-408 163,-777 428,-1047 l -320,-457 c -21,18 -40,37 -60,56 -309,310 -520,717 -581,1172 l -1364,0 c -21,-154 -32,-312 -32,-472 0,-1799 1387,-3274 3149,-3414 l 0,2133 c -236,32 -459,104 -663,209 l 320,458 c 189,-86 398,-134 619,-134 221,0 430,48 619,134 L 939,9928 C 735,9823 512,9751 276,9719 l 0,-2133 z m 2994,4438 c -409,1307 -1581,2278 -2994,2390 l 0,-637 c 455,-61 862,-272 1172,-581 309,-310 520,-717 581,-1172 l 1241,0 z m -3546,2390 c -1413,-112 -2585,-1083 -2994,-2390 l 1241,0 c 61,455 272,862 581,1172 310,309 717,520 1172,581 l 0,637 z M 0,10803 c 261,0 497,106 668,277 171,171 277,407 277,668 0,261 -106,497 -277,668 -171,171 -407,277 -668,277 -261,0 -497,-106 -668,-277 -171,-171 -277,-407 -277,-668 0,-261 106,-497 277,-668 171,-171 407,-277 668,-277 z m 278,667 c -71,-72 -169,-116 -278,-116 -109,0 -207,44 -278,116 -72,71 -116,169 -116,278 0,109 44,207 116,278 71,72 169,116 278,116 109,0 207,-44 278,-116 72,-71 116,-169 116,-278 0,-109 -44,-207 -116,-278 z"
       id="path14"
       inkscape:connector-curvature="0"
       style="fill:#00c0ff" /><g
       id="_714256288"><path
         class="fil2"
         d="m 2846,9008 c 25,-9 51,-12 80,2 44,19 76,71 101,110 25,39 60,89 59,136 -1,51 -36,81 -75,107 -1,0 -2,1 -3,1 l 2,2 -33,17 -19,10 -1,-1 c -16,6 -32,10 -50,9 -61,-6 -106,-79 -136,-125 -24,-38 -56,-87 -55,-134 0,-12 2,-22 6,-32 l -33,25 -101,-131 107,-82 c 4,-3 11,-8 15,-12 -4,-8 -13,-20 -16,-24 -4,-5 -16,-20 -21,-24 -7,4 -20,14 -25,18 l -98,75 -89,-116 -4,3 -113,-120 2,-2 -104,-98 1,0 c -18,-11 -35,-25 -51,-40 -33,-31 -66,-68 -69,-116 -1,-14 1,-27 4,-39 l -1,2 c -16,23 -26,38 -50,54 -29,19 -66,23 -99,12 -38,-12 -77,-37 -109,-60 -40,-28 -91,-63 -105,-112 -8,-27 -5,-52 6,-76 l -127,-73 66,-117 c 3,-4 7,-11 10,-17 -7,-6 -20,-13 -25,-16 -5,-3 -22,-13 -28,-13 -5,5 -13,20 -16,25 l -61,108 -127,-73 0,2 -145,-66 c -28,-7 -62,-23 -85,-34 -52,-23 -94,-53 -96,-101 -16,15 -36,25 -63,27 -20,1 -42,-3 -62,-8 -36,-8 -73,-19 -109,-29 -46,-14 -130,-36 -166,-70 -37,-35 -35,-73 -21,-119 l 15,-51 15,4 c -4,-22 0,-44 6,-66 13,-45 38,-89 87,-97 23,-4 44,-2 67,3 40,7 81,20 120,32 46,13 119,33 154,67 l 1,1 c 31,32 31,71 19,111 -2,6 -3,11 -5,17 l -12,31 c 2,12 3,24 1,37 l 10,-18 c 21,-38 49,-55 93,-56 41,-1 105,28 142,45 35,16 84,36 105,70 4,5 7,11 9,17 l 0,0 1,1 c 9,24 8,45 1,67 l 44,-77 140,79 -1,1 c 20,6 39,15 58,26 41,23 82,50 96,97 8,26 6,47 0,67 26,-25 57,-37 100,-27 32,8 71,33 98,52 20,13 38,26 52,42 l 129,90 -78,112 91,-97 121,114 -93,98 c -3,3 -10,10 -13,15 4,6 15,16 19,20 4,4 19,17 25,20 6,-5 17,-17 21,-21 l 85,-90 119,113 61,-58 113,121 -135,127 84,-64 97,127 -1,1 c 17,12 31,29 44,46 28,37 56,78 51,127 -3,25 -11,43 -24,59 z M -4,7579 7,7433 l 160,12 0,1 c 19,-3 39,-3 58,-2 38,3 74,11 101,33 29,-18 66,-20 104,-17 44,3 89,12 120,47 33,36 31,74 27,121 l -10,137 -165,-12 11,-137 c 0,-5 1,-12 1,-18 -6,-2 -15,-3 -19,-3 -5,0 -17,-1 -23,1 -3,7 -4,22 -4,28 l -10,125 -164,-12 10,-137 c 0,-5 1,-12 1,-18 -6,-2 -14,-2 -17,-3 -6,0 -18,-1 -25,1 -2,7 -3,22 -4,28 l -9,125 -149,-11 -153,12 c -28,8 -65,10 -91,12 -47,4 -91,1 -118,-24 l 4,24 -158,27 0,-1 c -19,8 -41,13 -62,17 -45,7 -94,11 -134,-15 -12,-8 -22,-17 -29,-26 l 42,143 -159,46 -24,-84 c -17,9 -37,16 -58,22 -45,13 -98,28 -143,9 l -1,-1 c -41,-18 -56,-58 -68,-99 -11,-38 -21,-81 -2,-119 23,-46 85,-65 132,-78 22,-7 44,-13 64,-14 l 154,-44 28,99 -17,-102 163,-27 23,133 c 1,5 2,13 4,19 7,0 22,-2 27,-3 6,-1 25,-4 31,-8 0,-8 -2,-23 -3,-29 l -21,-122 163,-28 17,103 c 1,-43 16,-72 54,-94 35,-21 106,-26 147,-29 38,-3 90,-9 125,10 6,3 11,6 16,10 l 1,1 0,0 c 30,25 36,57 39,94 l 2,23 z m -1651,341 c -2,-21 2,-42 16,-63 26,-40 82,-64 124,-83 42,-19 97,-46 144,-38 50,9 74,48 94,91 0,1 0,1 1,2 l 2,-1 12,35 7,20 -1,1 c 4,16 5,33 1,50 -15,60 -94,94 -144,117 -41,18 -95,42 -140,34 -38,-7 -60,-30 -76,-59 l -118,66 -19,-34 c -2,1 -4,2 -6,3 -3,2 -8,5 -11,8 2,7 10,21 13,25 l 62,111 -144,81 -22,-39 c 1,10 0,21 -3,32 -14,50 -69,91 -108,121 -40,31 -93,76 -145,77 -11,0 -21,-1 -31,-4 l 31,32 -117,111 c -12,18 -28,34 -45,50 -33,31 -74,68 -121,72 l -1,0 c -9,0 -18,0 -26,-2 l 38,33 -106,120 -1,0 c -9,18 -23,36 -37,52 -31,34 -66,68 -114,73 -17,1 -32,0 -45,-5 19,24 29,52 21,89 -4,19 -14,39 -24,57 -18,33 -39,65 -59,96 -26,41 -72,115 -114,140 -43,25 -80,13 -120,-13 l -45,-29 9,-13 c -22,-2 -43,-12 -63,-25 -38,-25 -74,-61 -68,-110 2,-24 11,-43 21,-64 19,-36 43,-72 65,-106 26,-40 65,-105 108,-129 l 1,-1 c 39,-20 76,-10 112,13 5,4 10,7 14,10 l 27,21 c 11,0 22,3 33,7 l -91,-80 109,-124 102,90 c 3,2 10,8 15,12 6,-5 16,-16 19,-20 4,-4 17,-19 19,-26 -5,-6 -17,-16 -21,-20 l -93,-82 109,-124 56,49 c -13,-24 -19,-49 -10,-79 11,-41 45,-73 75,-101 16,-15 32,-29 48,-39 l -58,-62 120,-113 114,121 c -9,-22 -12,-46 -3,-73 15,-46 70,-87 106,-116 37,-29 91,-72 139,-76 42,-3 70,17 94,45 l -56,-100 140,-79 0,1 c 13,-12 28,-23 44,-32 34,-19 73,-34 112,-20 l 1,0 c 11,4 20,10 28,16 z m -741,637 c 1,2 4,5 5,6 2,2 5,6 9,9 8,-6 21,-19 26,-23 6,-6 20,-19 27,-29 -2,-2 -5,-5 -6,-7 -2,-1 -5,-5 -8,-7 -8,5 -21,18 -25,22 -6,5 -22,20 -28,29 z m 296,-259 c 2,3 5,7 7,9 1,2 3,4 5,7 10,-5 25,-17 32,-22 5,-4 21,-17 28,-24 -2,-4 -5,-7 -7,-9 -1,-2 -3,-5 -5,-7 -10,5 -25,16 -31,21 -6,4 -22,17 -29,25 z m 1104,-574 c 1,5 3,11 4,14 0,2 1,4 2,6 10,-1 28,-6 35,-8 7,-2 26,-8 36,-12 -1,-4 -2,-8 -3,-10 0,-3 -2,-7 -3,-10 -11,1 -31,7 -37,9 -7,2 -24,7 -34,11 z m 3036,539 c 1,-2 2,-3 3,-4 1,-1 2,-3 3,-5 -8,-8 -20,-17 -26,-21 -6,-4 -24,-17 -34,-21 -2,1 -3,3 -3,4 -1,1 -3,3 -4,5 7,8 23,19 29,22 6,5 21,15 32,20 z"
         id="path17"
         inkscape:connector-curvature="0"
         style="fill:#ffffff" /></g><path
       class="fil3"
       d="m -2977,9338 12,7 c 35,23 54,26 78,12 23,-13 48,-45 101,-127 54,-85 73,-120 78,-141 7,-33 -7,-57 -49,-84 -36,-23 -58,-27 -82,-14 -20,12 -34,29 -93,116 -40,59 -55,80 -62,86 -7,6 -14,7 -23,1 -19,-12 -16,-18 29,-89 40,-63 47,-72 56,-75 7,-2 11,-1 24,6 l 51,-81 c -4,-3 -10,-6 -11,-7 -31,-20 -52,-23 -73,-12 -23,13 -45,40 -94,116 -64,100 -77,125 -80,153 -3,26 14,49 51,73 25,16 44,22 62,19 20,-5 38,-21 65,-60 5,-8 24,-36 45,-65 20,-28 39,-55 44,-64 18,-26 26,-30 41,-21 10,7 14,13 13,21 -2,10 -8,20 -49,83 -37,59 -44,67 -53,72 -8,5 -14,3 -29,-7 l -52,82 z m 533,-566 -157,-139 -58,65 64,56 c 29,26 36,36 35,51 -1,14 -9,28 -29,51 -22,24 -33,33 -46,34 -13,2 -21,-3 -44,-23 l -72,-63 -58,65 73,63 c 43,38 57,45 86,42 28,-2 53,-19 88,-59 39,-44 49,-71 38,-99 l 3,-3 23,21 54,-62 z m 69,-484 -63,60 78,83 -2,2 c -31,-8 -50,1 -95,43 -43,40 -58,60 -64,83 -8,28 2,52 39,91 36,38 55,50 80,48 25,-2 52,-18 97,-61 45,-43 57,-64 52,-94 l 3,-3 19,20 59,-56 -203,-216 z m -20,211 c 45,-42 58,-44 88,-13 17,18 22,29 19,41 -3,11 -18,29 -41,51 -47,44 -59,46 -91,12 -28,-30 -25,-44 25,-91 z m 263,-303 c -62,48 -86,73 -94,97 -8,26 -2,47 29,85 37,48 53,60 80,60 28,-1 54,-16 121,-69 67,-52 88,-74 95,-100 7,-25 -1,-45 -37,-90 -32,-42 -49,-53 -77,-51 -26,2 -56,20 -117,68 z m 37,46 c 20,-16 37,-27 48,-30 16,-4 26,1 43,23 28,35 23,47 -28,88 -22,17 -40,28 -51,31 -15,4 -24,-1 -41,-22 -28,-36 -23,-50 29,-90 z m 169,-193 103,183 75,-42 -42,-76 c -16,-29 -20,-40 -18,-53 3,-12 14,-25 31,-34 16,-9 29,-13 38,-10 7,2 13,7 20,20 l 1,1 0,1 71,-40 -7,-13 c -15,-27 -27,-39 -43,-45 -20,-7 -46,-2 -79,17 -43,24 -59,45 -60,76 l -4,2 -15,-27 -71,40 z m 550,-131 c 5,18 -4,26 -54,48 -28,13 -46,18 -57,16 -10,-2 -15,-7 -24,-26 l 206,-93 c -3,-9 -7,-18 -8,-20 -21,-45 -38,-64 -65,-68 -25,-4 -51,3 -120,34 -69,31 -93,47 -108,70 -16,24 -13,46 10,97 22,49 37,65 63,70 26,5 57,-4 118,-31 112,-51 136,-77 117,-133 l -78,36 z m -152,-2 c -12,-27 -2,-39 51,-63 31,-13 49,-18 59,-14 7,2 9,5 16,20 l -126,57 z m 781,-52 -83,-286 -79,22 8,28 -4,1 c -25,-20 -47,-22 -105,-5 -113,33 -130,57 -103,149 13,46 25,65 47,75 23,10 53,7 116,-11 56,-16 73,-28 84,-58 l 4,-1 32,110 83,-24 z m -226,-189 c 63,-18 77,-14 89,28 12,42 4,52 -60,71 -28,8 -48,11 -60,8 -13,-2 -19,-10 -26,-33 -13,-46 -6,-56 57,-74 z m 571,39 -35,-207 -86,14 14,83 c 7,39 6,50 -5,62 -9,10 -24,16 -54,21 -32,5 -46,5 -57,-2 -11,-7 -15,-16 -20,-46 l -16,-95 -85,15 16,94 c 9,57 16,72 40,88 24,15 54,18 106,9 58,-10 83,-24 92,-53 l 4,-1 5,31 81,-13 z m 140,-156 c 1,-19 7,-22 69,-26 52,-4 59,0 62,32 l 1,11 -4,1 c -15,-13 -27,-15 -67,-12 -62,5 -86,8 -106,15 -33,11 -47,33 -44,70 4,50 29,64 105,58 57,-5 79,-8 93,-15 15,-7 23,-15 29,-29 l 3,0 2,29 83,-7 -9,-126 c -3,-38 -9,-54 -25,-67 -21,-16 -39,-18 -114,-12 -72,6 -111,13 -130,24 -25,14 -34,30 -34,60 l 86,-6 z m 62,51 c 37,-3 51,-4 56,-2 10,3 15,8 16,16 1,19 -16,26 -76,30 -46,4 -60,0 -61,-17 -1,-8 3,-14 11,-18 7,-4 25,-7 54,-9 z m 243,-134 -16,210 87,6 6,-86 c 3,-35 7,-47 17,-56 10,-8 28,-11 54,-9 24,2 39,7 47,15 7,9 8,15 5,48 l -7,97 86,7 7,-86 c 2,-35 6,-47 17,-56 10,-8 26,-11 52,-9 25,2 40,6 48,15 7,8 8,12 6,47 l -7,98 86,7 7,-98 c 4,-54 1,-71 -17,-92 -19,-20 -47,-31 -94,-34 -57,-5 -86,6 -103,36 -16,-32 -46,-48 -102,-52 -50,-4 -81,6 -95,30 l -5,0 3,-32 -82,-6 z m 712,196 -4,14 c -12,40 -9,59 11,78 19,18 57,34 150,61 97,28 136,37 157,36 34,-2 53,-23 68,-71 12,-41 9,-63 -11,-82 -16,-17 -36,-25 -137,-58 -67,-21 -91,-30 -99,-34 -8,-6 -11,-12 -8,-23 6,-21 13,-20 93,3 72,21 83,25 89,33 3,6 4,10 0,24 l 92,27 c 2,-5 4,-11 4,-13 11,-35 8,-55 -9,-73 -19,-18 -51,-32 -138,-58 -113,-33 -141,-38 -169,-34 -25,5 -44,27 -56,70 -8,28 -8,48 0,64 10,19 30,32 75,46 10,3 41,14 75,26 33,11 64,21 74,24 30,9 36,16 31,33 -3,12 -8,17 -16,18 -10,1 -21,-2 -93,-23 -67,-20 -77,-24 -85,-31 -6,-7 -6,-13 -1,-30 l -93,-27 z m 550,128 c 10,-16 17,-15 73,11 48,22 52,29 39,59 l -5,10 -4,-2 c -7,-18 -16,-26 -52,-42 -57,-26 -80,-35 -100,-39 -34,-7 -57,6 -73,40 -21,45 -6,70 64,102 52,23 73,31 89,32 16,0 27,-2 39,-12 l 3,2 -12,26 75,35 53,-115 c 16,-35 18,-52 11,-71 -10,-24 -25,-34 -94,-66 -65,-30 -103,-43 -125,-42 -29,0 -45,10 -59,36 l 78,36 z m 29,75 c 34,15 47,22 51,26 7,7 9,14 6,22 -8,17 -26,14 -82,-11 -41,-19 -52,-29 -45,-45 4,-7 10,-10 19,-10 8,0 26,6 51,18 z m 268,-10 -104,183 75,43 42,-73 c 19,-34 25,-41 40,-45 13,-3 30,2 58,18 28,15 41,27 45,38 4,12 1,19 -15,49 l -48,83 75,43 48,-83 c 28,-51 33,-67 24,-94 -8,-27 -30,-48 -77,-75 -49,-28 -77,-32 -104,-16 l -4,-2 16,-28 -71,-41 z m 535,337 -16,23 -3,-2 c 0,-32 -13,-50 -62,-84 -37,-26 -66,-42 -85,-46 -36,-8 -59,4 -91,50 -31,45 -37,67 -26,94 9,21 31,43 80,76 47,33 68,39 97,28 l 3,2 -11,15 c -17,24 -22,29 -33,31 -15,3 -30,-4 -68,-30 -37,-26 -45,-36 -40,-52 l 1,-3 -73,-50 c -12,22 -15,40 -9,59 7,26 29,48 89,90 45,31 74,48 99,56 23,7 48,4 66,-8 15,-10 19,-14 39,-44 l 110,-158 -67,-47 z m -95,0 c 21,14 36,28 43,37 7,12 4,23 -9,43 -13,18 -21,24 -33,24 -12,-1 -32,-11 -58,-29 -52,-37 -58,-50 -35,-83 22,-32 38,-30 92,8 z m 315,476 145,-153 -63,-59 -58,61 c -27,29 -37,35 -52,33 -14,-1 -28,-10 -50,-31 -23,-22 -32,-33 -33,-47 -1,-12 4,-21 25,-43 l 66,-70 -63,-59 -66,70 c -39,41 -47,56 -45,85 1,28 18,53 56,90 43,40 69,51 97,41 l 4,3 -22,23 59,56 z m 195,-98 -152,145 59,63 153,-145 -60,-63 z m 63,-59 -43,41 60,63 43,-41 -60,-63 z m 56,183 -166,128 52,69 67,-51 c 31,-24 40,-28 54,-26 14,2 28,13 47,39 20,25 27,41 27,53 -1,12 -6,18 -33,38 l -76,59 53,68 76,-58 c 46,-35 56,-48 59,-77 2,-28 -10,-55 -43,-99 -34,-44 -59,-59 -90,-55 l -2,-4 25,-19 -50,-65 z m 235,576 c -18,7 -26,0 -56,-46 -17,-26 -25,-43 -25,-54 1,-10 5,-16 23,-28 l 123,190 c 8,-5 16,-10 18,-11 42,-27 57,-47 58,-74 0,-26 -11,-51 -53,-114 -40,-63 -60,-85 -84,-97 -26,-11 -48,-6 -95,25 -45,29 -59,46 -60,73 0,26 12,55 49,111 67,104 96,123 149,97 l -47,-72 z m -22,-151 c 25,-15 39,-7 70,41 19,29 26,46 24,56 -2,7 -4,10 -18,20 l -76,-117 z"
       id="path19"
       inkscape:connector-curvature="0"
       style="fill:#a0d211;fill-rule:nonzero" /><circle
       class="fil4"
       cy="11000"
       r="3898"
       id="circle21"
       cx="0"
       style="fill:none" /><g
       id="_714260832"><path
         class="fil2"
         d="m 3097,12271 c -1,-1 -2,-2 -2,-3 -13,-15 -20,-33 -22,-52 -2,-17 0,-34 3,-51 4,-18 9,-36 15,-53 l 23,-67 c 9,-27 19,-54 31,-80 9,-18 21,-37 36,-51 15,-14 33,-23 53,-24 18,-2 36,2 53,8 l 34,11 c 7,-2 15,-2 22,-2 15,1 30,5 45,9 18,7 36,15 50,28 16,13 26,30 30,50 4,20 3,41 -1,61 -5,25 -13,50 -21,75 l -31,90 c -12,36 -31,81 -62,106 -31,25 -71,24 -108,12 l -20,-7 -62,135 -36,-16 c -1,-1 -4,-2 -7,-3 -2,2 -3,6 -4,7 -2,5 -6,13 -6,19 1,0 1,0 1,1 l 164,74 -74,164 -117,-54 109,70 -92,145 c -2,5 -4,10 -7,15 -5,11 -11,21 -18,31 l -37,58 c -17,27 -40,56 -70,70 -30,14 -62,9 -90,-7 l 76,61 -111,141 -345,-274 111,-141 132,104 c -1,0 -2,-1 -2,-2 -11,-17 -17,-35 -16,-55 0,-18 5,-36 13,-52 8,-19 19,-37 30,-54 l 63,-99 c 20,-31 47,-59 84,-70 9,-3 19,-5 28,-5 l -45,-21 72,-157 3,1 c 3,-20 10,-39 18,-57 16,-35 39,-69 76,-83 10,-3 21,-5 31,-6 z m -290,712 8,7 c 0,-1 -1,-2 -1,-2 l -7,-5 z m -498,372 101,-116 137,118 c 6,-4 15,-14 19,-17 l 15,-18 c 5,-6 12,-16 13,-24 0,-3 -4,-6 -6,-9 l -127,-109 117,-136 253,218 -118,136 -3,-3 c -9,21 -24,40 -39,57 -13,15 -26,30 -41,43 -15,14 -32,25 -51,33 -23,10 -47,12 -71,7 -29,-5 -54,-20 -75,-39 l -10,-8 65,75 c 12,13 22,28 29,44 8,18 11,38 9,58 -2,23 -12,45 -25,64 -15,24 -36,45 -58,63 l -84,73 c -26,22 -58,45 -92,49 -39,5 -71,-16 -96,-44 l -25,-30 18,-15 c -12,-3 -23,-7 -33,-13 8,16 13,33 13,50 0,21 -6,40 -17,57 -9,15 -22,29 -36,41 -14,13 -30,25 -47,35 l -64,41 c -16,11 -33,21 -51,28 -20,8 -40,13 -61,13 -24,0 -47,-8 -67,-21 -23,-14 -41,-36 -56,-59 l -13,-21 c -8,-12 -15,-26 -21,-39 3,12 5,26 3,39 0,3 0,7 -1,10 11,5 22,12 30,21 12,11 21,25 29,39 l 46,90 -173,90 -38,-73 c -1,-2 -4,-6 -6,-10 -2,2 -5,3 -7,4 l -127,66 43,84 -173,90 -204,-391 347,-181 c 20,-10 42,-19 65,-23 20,-3 40,-2 60,5 18,7 34,17 47,31 13,14 23,30 32,47 l 10,20 c 4,6 7,13 10,20 -1,-2 -1,-4 -2,-5 -4,-22 -4,-44 3,-65 7,-19 18,-36 32,-51 14,-14 30,-27 47,-38 l 59,-38 c 22,-14 45,-27 68,-37 20,-8 42,-14 64,-14 17,1 32,5 47,12 -4,-15 -5,-31 -1,-48 9,-39 40,-72 69,-97 l 45,-39 c 9,-8 19,-16 29,-23 4,-2 7,-4 11,-7 l 131,-113 3,3 z m -1758,967 c 0,-1 1,-2 1,-4 4,-20 13,-38 27,-54 12,-13 27,-24 43,-32 15,-7 31,-12 47,-16 l 147,-34 c 16,-4 32,-6 49,-6 18,0 36,3 53,10 19,8 35,21 48,37 14,18 22,40 28,62 l 13,59 c 5,23 7,46 2,69 -4,20 -13,38 -27,54 -12,13 -26,24 -43,32 -15,7 -30,12 -46,16 l -147,34 c -16,4 -33,6 -49,6 -19,0 -36,-3 -53,-10 -20,-8 -35,-21 -48,-37 -6,-7 -11,-15 -15,-23 -3,24 -13,46 -30,65 -27,30 -67,42 -106,47 l -40,6 c -17,2 -35,3 -53,1 -18,-1 -35,-5 -51,-12 -19,-9 -33,-21 -45,-38 -12,-17 -18,-38 -21,-59 l -8,-61 -19,3 c 0,1 0,1 0,2 l -4,186 -179,-4 4,-181 c -8,-2 -21,-3 -26,-3 l -23,-1 c -8,0 -20,1 -27,6 -3,2 -3,6 -3,10 l -3,168 -180,-4 2,-89 c -4,14 -11,27 -20,38 -13,15 -30,26 -49,32 -18,5 -36,8 -54,8 -20,1 -40,-1 -59,-4 l -75,-9 c -19,-3 -39,-7 -58,-13 -20,-6 -38,-16 -54,-29 -18,-16 -31,-36 -38,-59 -1,-6 -3,-12 -4,-18 l -28,101 -173,-49 48,-169 c 0,-2 1,-4 1,-6 -8,-4 -21,-8 -27,-10 -6,-1 -20,-5 -28,-5 -1,1 -1,1 -1,2 l -48,173 -173,-49 49,-175 c -1,0 -1,0 -1,-1 -10,-4 -21,-7 -31,-10 -5,-1 -17,-4 -24,-4 -1,3 -2,6 -2,7 l -47,168 -173,-48 62,-220 -77,196 -167,-65 50,-129 -6,13 c -10,19 -23,35 -41,47 -17,11 -36,18 -55,19 -18,1 -36,-1 -53,-5 -17,-5 -33,-11 -49,-19 l -92,-47 c -17,-9 -34,-19 -50,-31 -17,-12 -31,-27 -41,-45 -12,-21 -17,-45 -16,-69 0,-3 0,-6 1,-9 -9,8 -18,14 -29,18 -19,7 -39,9 -59,5 -18,-3 -35,-9 -51,-18 -18,-8 -35,-19 -51,-30 l -61,-44 c -16,-11 -32,-24 -46,-38 -14,-15 -26,-32 -34,-51 -9,-23 -10,-47 -6,-70 1,-4 2,-9 3,-13 -20,15 -43,22 -69,21 -40,0 -76,-22 -106,-48 l -30,-26 c -13,-12 -26,-25 -36,-39 -11,-14 -20,-30 -25,-47 -5,-19 -6,-39 -1,-58 5,-21 16,-39 30,-55 l 41,-46 -21,-19 -134,128 -124,-129 131,-126 c -4,-7 -12,-17 -16,-20 l -16,-17 c -5,-5 -14,-14 -22,-15 -4,0 -7,3 -10,5 l -121,116 -124,-129 86,-84 c -13,8 -28,14 -43,16 -20,4 -41,3 -60,-4 -18,-6 -33,-16 -47,-28 -12,-11 -23,-24 -32,-37 l -87,-123 c -10,-14 -18,-28 -24,-43 -7,-17 -11,-35 -11,-53 0,-21 6,-40 16,-58 4,-7 8,-12 12,-18 -10,3 -21,4 -32,4 -20,-1 -39,-6 -56,-17 -15,-9 -28,-21 -39,-35 -12,-13 -21,-28 -29,-44 l -48,-91 c -9,-17 -17,-35 -23,-54 -6,-20 -9,-41 -7,-61 2,-24 12,-46 27,-65 16,-22 40,-38 64,-50 l 21,-12 c 22,-11 45,-20 69,-23 22,-3 45,-1 65,9 18,8 34,20 47,36 14,15 25,33 34,51 l 52,100 c 18,34 32,73 27,111 -1,17 -7,32 -15,45 17,-2 34,0 50,6 18,6 33,15 47,28 12,11 23,23 32,37 l 87,123 c 10,13 18,28 24,43 7,17 11,35 11,53 0,11 -2,23 -5,33 l 27,-26 125,129 -3,3 c 20,12 38,28 53,44 14,14 27,29 39,45 13,16 22,34 28,54 6,16 7,33 5,50 l 29,-33 38,33 39,-45 136,118 -40,46 118,103 -39,44 c 13,-6 28,-10 43,-11 20,-1 40,3 59,11 18,7 36,18 53,30 l 57,40 c 21,15 42,31 60,49 15,16 28,34 36,55 6,15 8,30 7,46 11,-7 24,-12 37,-15 20,-4 40,-3 60,2 19,5 39,13 57,22 l 101,51 c 33,17 67,41 86,75 9,16 14,33 14,50 l 61,-156 167,65 -45,116 158,44 0,2 c 17,1 34,4 51,8 l 36,10 c 36,10 65,29 84,56 6,-3 12,-6 18,-8 28,-8 59,-3 86,5 l 30,8 c 42,12 86,33 108,73 6,11 10,22 13,34 10,-18 24,-33 42,-44 17,-10 36,-16 57,-18 20,-2 40,-1 61,2 l 69,9 c 26,4 52,8 76,16 21,6 41,16 57,31 12,10 20,21 27,35 l 1,-60 179,4 0,4 c 23,-6 47,-7 69,-7 20,1 40,2 60,5 20,3 39,9 58,18 7,4 15,9 21,14 l -3,-26 50,-6 -8,-60 178,-23 8,59 155,-20 10,78 z m -3559,-1662 c -2,-6 -6,-13 -8,-17 l -18,-34 c -2,-4 -7,-14 -12,-19 l -28,14 c 0,0 -1,1 -2,1 1,5 4,11 5,13 l 24,46 c 2,4 5,9 8,13 l 31,-17 z m 780,954 -1,-1 -28,32 c 1,0 1,0 1,1 l 28,-32 z m 661,443 c -6,-4 -13,-8 -17,-10 l -34,-17 c -4,-2 -14,-7 -21,-9 l -15,28 c 0,1 0,2 0,2 3,3 9,7 11,8 l 46,23 c 4,2 9,5 14,6 l 0,0 0,0 16,-31 z m 1974,354 -2,0 6,42 c 0,0 1,0 1,0 l -5,-42 z m -3722,-2104 -59,-180 -72,-13 -69,-210 497,100 61,188 -339,379 -69,-210 50,-54 z m 133,-145 -17,-3 5,16 12,-13 z m 321,802 c 2,8 11,21 14,26 l 14,20 c 6,9 14,19 21,27 1,1 2,2 3,3 0,0 0,0 0,0 l 29,-21 c 0,0 0,0 0,0 0,-1 -1,-2 -1,-3 -5,-10 -12,-20 -19,-30 l -14,-19 c -4,-5 -13,-18 -20,-22 -1,1 -3,2 -4,2 l -19,14 c -1,1 -3,2 -4,3 z m 3601,1428 c 8,1 23,-2 29,-3 l 24,-6 c 11,-2 23,-5 33,-9 1,0 2,-1 3,-1 0,-1 0,-1 0,-1 l -8,-34 c 0,0 0,0 0,-1 -1,0 -2,0 -2,1 -12,1 -24,3 -35,6 l -24,6 c -6,1 -21,5 -28,9 1,2 1,4 1,5 l 6,23 c 0,2 0,4 1,5 z m 644,-337 5,9 136,-71 c 0,-1 2,-1 3,-2 l -4,-8 c -5,2 -10,5 -13,6 l -127,66 z m 899,-462 c -2,-3 -5,-7 -6,-8 -2,-2 -5,-6 -8,-8 -6,3 -14,9 -17,12 l -38,33 c -3,3 -11,10 -15,15 2,3 5,7 7,9 1,1 4,5 7,7 6,-3 14,-10 17,-13 l 38,-32 c 3,-3 11,-10 15,-15 z"
         id="path24"
         inkscape:connector-curvature="0"
         style="fill:#ffffff" /></g><path
       class="fil3"
       d="m -3457,11956 41,124 72,12 73,224 -49,55 40,123 279,-312 -47,-144 -409,-82 z m 352,180 -105,115 -47,-142 152,27 z m -31,343 c -23,12 -40,25 -51,39 -11,14 -17,29 -19,44 -1,16 1,31 5,46 5,15 12,31 21,48 l 48,91 c 7,14 15,26 24,37 9,11 19,20 30,27 11,6 23,10 36,10 14,1 27,-3 42,-10 l 20,-11 -45,-86 -6,3 c -9,5 -18,4 -27,-3 -8,-7 -16,-17 -24,-32 l -24,-45 c -7,-16 -11,-29 -9,-40 1,-11 9,-20 23,-28 l 30,-15 c 12,-7 23,-7 33,-1 10,6 20,19 30,37 l 18,35 c 10,19 15,34 14,44 -1,10 -7,18 -18,24 l 45,87 20,-11 c 26,-13 40,-32 42,-57 3,-25 -5,-55 -22,-89 l -53,-100 c -9,-18 -18,-32 -28,-44 -10,-11 -22,-20 -34,-26 -13,-5 -27,-7 -44,-5 -16,2 -35,8 -55,19 l -22,12 z m 183,378 c -17,12 -28,24 -36,37 -7,13 -11,26 -11,39 1,13 3,25 8,37 5,13 12,24 20,36 l 87,123 c 8,12 17,22 27,31 10,9 21,15 33,20 12,4 26,5 40,3 15,-3 30,-10 46,-21 l 50,-36 c 17,-11 28,-23 36,-36 7,-13 10,-26 10,-39 0,-13 -2,-26 -7,-38 -5,-12 -12,-24 -20,-35 l -87,-123 c -8,-12 -17,-22 -27,-31 -10,-9 -21,-16 -33,-20 -12,-4 -26,-5 -40,-3 -15,3 -30,10 -46,21 l -50,35 z m 93,58 c 14,-10 27,-13 39,-8 12,5 25,17 39,37 l 14,20 c 10,14 17,25 22,34 5,8 7,16 8,22 1,6 -1,12 -4,17 -3,4 -8,9 -16,14 l -28,21 c -7,5 -14,8 -19,9 -6,2 -11,1 -17,-2 -5,-3 -12,-8 -18,-15 -7,-7 -16,-18 -25,-32 l -14,-19 c -14,-20 -21,-36 -22,-49 0,-13 7,-25 21,-35 l 20,-14 z m 94,375 70,73 93,-89 c 13,-13 27,-18 42,-16 15,2 30,11 45,27 l 16,17 c 30,31 36,55 18,72 l -105,102 69,73 106,-102 c 19,-18 31,-35 36,-53 5,-17 5,-34 0,-49 -5,-15 -12,-29 -22,-42 -10,-13 -22,-26 -36,-42 -20,-20 -38,-35 -55,-43 -16,-7 -34,-8 -52,-3 l -1,-1 30,-28 -70,-73 -184,177 z m 391,277 c -11,13 -19,26 -22,38 -3,13 -3,25 1,37 4,12 10,24 18,35 8,11 19,22 31,33 l 30,26 c 29,26 56,39 80,39 25,1 45,-9 62,-28 l 21,-23 -67,-58 -11,12 c -8,9 -15,13 -22,13 -7,-1 -17,-6 -29,-17 -10,-9 -16,-16 -19,-23 -3,-6 -1,-13 5,-20 l 64,-74 118,103 45,-52 -117,-103 39,-45 -76,-66 -39,45 -38,-33 -46,52 38,33 -66,76 z m 271,188 c -15,21 -25,40 -28,58 -3,18 -2,34 4,48 6,14 14,27 25,38 11,11 25,23 40,34 l 62,44 c 16,11 31,20 45,27 15,8 28,12 41,15 13,2 26,1 37,-4 12,-4 22,-13 31,-25 l 6,-9 -77,-55 c -3,4 -6,7 -8,9 -3,2 -7,3 -11,3 -5,0 -10,-2 -18,-5 -7,-3 -16,-9 -27,-16 l -25,-18 c -18,-13 -29,-24 -34,-34 -5,-10 -4,-20 4,-30 l 9,-13 199,142 25,-35 c 13,-19 21,-35 25,-50 3,-15 2,-29 -3,-43 -5,-13 -14,-26 -27,-40 -14,-14 -32,-28 -55,-45 l -57,-40 c -16,-12 -31,-20 -45,-26 -14,-6 -28,-8 -42,-8 -14,1 -28,6 -41,15 -14,10 -28,24 -41,43 l -14,20 z m 109,21 c 4,-7 9,-12 13,-15 4,-2 8,-3 13,-2 6,0 13,3 21,8 8,4 19,12 33,22 25,17 40,30 45,40 5,9 3,19 -6,32 l -119,-85 z m 218,207 c -12,23 -18,44 -19,62 -1,18 3,33 11,47 7,13 18,24 30,34 13,9 28,18 45,27 l 92,47 c 14,7 27,12 41,16 14,3 27,5 40,4 13,-1 25,-5 36,-12 11,-8 20,-19 28,-33 l 10,-20 -87,-45 -3,6 c -5,9 -13,14 -24,13 -11,0 -23,-4 -38,-11 l -45,-24 c -16,-8 -26,-16 -31,-26 -6,-10 -5,-22 2,-36 l 16,-31 c 6,-12 15,-18 27,-19 11,-1 27,3 46,13 l 34,17 c 20,10 32,19 37,28 5,9 5,19 -1,30 l 87,45 11,-21 c 13,-25 13,-49 1,-71 -13,-22 -36,-41 -70,-59 l -101,-51 c -18,-9 -34,-15 -49,-19 -15,-4 -29,-4 -42,-1 -14,2 -27,9 -39,20 -12,12 -23,28 -34,48 l -11,22 z m 532,103 -94,-37 -92,238 94,36 92,-237 z m 39,-100 -94,-37 -27,70 94,37 27,-70 z m -45,384 97,27 36,-129 c 5,-18 13,-30 25,-34 11,-4 28,-3 49,3 16,5 28,8 36,12 9,4 15,8 20,12 4,4 6,9 7,14 0,5 -1,12 -3,20 l -39,139 97,27 38,-135 c 5,-16 13,-25 24,-29 12,-3 30,-1 54,6 27,7 44,16 51,25 3,4 5,9 5,16 0,6 -1,13 -3,22 l -37,132 97,27 38,-138 c 11,-37 9,-67 -4,-91 -14,-24 -42,-42 -85,-54 l -30,-8 c -27,-8 -49,-10 -64,-5 -15,4 -29,16 -44,36 -7,-43 -34,-71 -79,-84 l -37,-10 c -25,-7 -46,-8 -63,-3 -18,4 -30,15 -38,31 l -1,0 14,-48 -93,-26 -68,245 z m 648,45 c -3,25 -2,47 3,64 5,17 14,31 26,41 11,10 25,17 40,22 15,4 32,8 51,11 l 75,9 c 20,3 37,4 53,4 16,0 30,-3 43,-7 13,-4 23,-10 31,-20 8,-9 13,-21 15,-37 l 1,-11 -93,-12 c -1,5 -2,9 -3,12 -2,3 -5,5 -9,7 -4,3 -9,4 -17,4 -8,1 -19,0 -32,-2 l -31,-4 c -21,-2 -37,-7 -46,-13 -9,-6 -12,-16 -10,-29 l 2,-15 242,32 6,-43 c 3,-22 2,-41 -2,-55 -4,-15 -11,-27 -22,-37 -10,-9 -25,-17 -43,-23 -18,-5 -41,-10 -69,-14 l -70,-9 c -19,-3 -36,-3 -52,-1 -15,1 -28,5 -40,12 -12,7 -22,18 -30,33 -7,14 -13,33 -16,56 l -3,25 z m 106,-33 c 1,-8 3,-14 5,-19 2,-4 6,-7 11,-8 5,-2 12,-3 22,-3 9,1 22,2 40,4 29,4 49,9 58,15 8,5 12,16 10,30 l -146,-19 z m 304,195 101,3 3,-129 c 0,-18 6,-32 19,-41 12,-9 29,-13 51,-13 l 23,0 c 43,1 64,14 64,39 l -3,147 101,2 3,-147 c 0,-26 -4,-46 -13,-62 -8,-16 -20,-28 -34,-35 -15,-7 -30,-12 -45,-14 -16,-2 -35,-4 -55,-4 -29,-1 -52,2 -69,8 -18,6 -31,18 -40,35 l -1,0 1,-41 -100,-3 -6,255 z m 467,-87 c 2,17 7,31 15,42 7,11 17,19 28,24 11,5 24,8 38,9 14,1 29,1 45,-1 l 40,-6 c 38,-5 65,-16 82,-34 16,-18 23,-40 20,-65 l -4,-31 -88,11 2,17 c 2,12 0,20 -5,25 -5,5 -16,9 -32,11 -13,2 -23,1 -30,-1 -6,-2 -10,-8 -11,-17 l -13,-97 155,-20 -9,-69 -155,21 -8,-60 -100,13 8,60 -50,6 9,69 50,-7 13,100 z m 332,-53 c 5,19 12,35 21,47 9,11 19,19 31,24 13,5 25,8 38,8 13,-1 27,-2 41,-5 l 147,-34 c 14,-4 27,-8 38,-14 12,-5 22,-13 31,-23 9,-9 15,-21 18,-36 3,-14 2,-31 -2,-51 l -14,-59 c -4,-20 -11,-35 -20,-47 -9,-11 -20,-20 -32,-24 -12,-5 -25,-8 -38,-8 -13,0 -27,2 -41,5 l -146,34 c -14,3 -27,8 -39,14 -12,5 -22,13 -31,23 -9,9 -14,21 -18,36 -3,14 -2,31 2,51 l 14,59 z m 89,-64 c -4,-17 -2,-31 7,-40 9,-9 26,-16 49,-22 l 24,-5 c 16,-4 29,-6 39,-8 10,-1 18,0 24,1 6,2 11,5 14,10 3,5 6,11 8,20 l 8,34 c 2,9 2,16 1,22 0,5 -3,10 -8,14 -4,4 -11,8 -21,12 -9,3 -22,7 -39,11 l -23,5 c -24,6 -41,6 -54,2 -12,-5 -20,-15 -24,-33 l -5,-23 z m 636,-334 162,-84 c 17,-10 31,-14 40,-13 9,1 18,8 25,21 l 5,11 c 7,12 8,22 5,30 -3,9 -12,17 -25,24 l -171,89 -41,-78 z m 23,295 103,-54 -43,-83 162,-85 c 16,-9 29,-11 38,-8 10,4 19,14 28,31 l 20,38 103,-54 -28,-54 c -7,-13 -14,-23 -21,-30 -8,-8 -15,-12 -23,-15 -8,-2 -15,-3 -23,-2 -8,0 -17,2 -27,5 l 0,-1 c 20,-17 31,-33 32,-50 2,-16 -3,-36 -15,-59 l -11,-20 c -8,-15 -17,-28 -26,-38 -9,-9 -20,-16 -32,-21 -12,-4 -25,-5 -40,-3 -16,3 -33,9 -53,19 l -312,163 168,321 z m 424,-358 c 15,22 29,37 44,47 15,10 31,14 46,14 16,0 31,-3 45,-9 15,-6 30,-14 46,-25 l 64,-41 c 16,-10 30,-21 42,-32 12,-10 22,-21 29,-32 7,-12 11,-23 11,-36 0,-12 -5,-24 -13,-37 l -6,-10 -79,52 c 2,4 4,7 5,10 1,4 0,7 -1,12 -2,4 -6,9 -11,14 -6,5 -15,12 -26,19 l -26,17 c -18,12 -33,18 -44,19 -11,1 -19,-4 -26,-15 l -9,-13 206,-132 -24,-36 c -12,-19 -24,-33 -36,-42 -13,-9 -26,-13 -41,-13 -14,-1 -30,3 -48,10 -17,8 -38,19 -61,34 l -59,38 c -17,11 -30,22 -41,33 -11,11 -18,23 -23,36 -4,13 -5,27 -1,43 3,17 12,34 24,54 l 13,21 z m 60,-94 c -4,-7 -7,-12 -8,-17 -1,-5 0,-9 2,-14 3,-5 8,-10 16,-16 7,-6 18,-13 33,-23 25,-16 43,-25 53,-26 10,-2 20,4 28,17 l -124,79 z m 273,-136 c 24,27 48,41 74,42 26,0 57,-15 92,-45 l 40,-35 c 20,-17 33,-30 39,-41 7,-11 11,-24 12,-38 l 11,13 c 14,16 20,30 17,43 -2,14 -12,28 -29,43 l -56,47 c -12,11 -23,11 -31,2 l -79,67 c 20,23 40,34 61,31 20,-3 44,-16 72,-40 l 84,-72 c 23,-20 39,-38 50,-55 11,-17 18,-33 19,-47 1,-14 -1,-26 -6,-38 -5,-11 -13,-23 -23,-34 l -156,-181 -71,62 23,26 -1,1 c -11,-3 -20,-4 -27,-4 -7,-1 -14,0 -20,2 -6,2 -13,5 -20,10 -7,5 -15,11 -25,20 l -45,38 c -32,28 -51,54 -56,77 -6,24 4,51 28,79 l 23,27 z m 145,-76 c -19,16 -33,24 -44,24 -11,0 -23,-8 -36,-23 -13,-15 -19,-28 -17,-39 1,-11 11,-24 30,-40 l 37,-32 c 18,-16 33,-24 44,-24 11,0 23,8 36,23 13,15 19,28 17,38 -1,11 -11,25 -30,41 l -37,32 z m 326,-571 -66,76 98,85 c 13,11 20,25 19,40 -1,16 -8,31 -22,48 l -16,17 c -28,33 -52,41 -70,25 l -111,-96 -66,77 111,95 c 19,17 38,27 56,31 17,3 34,1 49,-5 15,-7 28,-15 40,-26 11,-10 24,-23 38,-39 18,-22 31,-42 37,-59 6,-17 6,-34 -1,-52 l 0,-1 31,27 66,-76 -193,-167 z m 255,87 63,-79 -283,-225 -63,79 283,225 z m 54,-184 c 23,15 44,18 61,9 18,-8 36,-27 54,-55 l 37,-58 c 7,-11 12,-20 16,-28 4,-7 6,-14 7,-20 1,-6 2,-13 1,-20 0,-6 -2,-15 -4,-25 l 24,16 52,-81 -142,-90 c -25,-16 -49,-21 -72,-14 -23,7 -43,25 -62,54 l -63,99 c -12,19 -21,36 -27,49 -6,14 -10,26 -10,37 -1,11 3,22 9,31 7,10 17,19 31,28 l 53,-82 c -7,-5 -10,-10 -10,-16 1,-6 5,-15 13,-28 l 32,-50 c 11,-16 19,-26 27,-28 7,-3 16,-1 27,6 l 19,13 c -12,2 -23,9 -33,21 -10,11 -24,30 -40,56 -16,24 -27,44 -35,59 -8,15 -13,28 -16,41 -2,13 -1,24 4,35 5,11 15,20 29,30 l 18,11 z m 91,-121 c -10,17 -19,28 -26,32 -7,5 -14,5 -22,1 -9,-6 -13,-13 -13,-22 -1,-8 5,-21 16,-38 l 24,-37 c 14,-23 24,-36 31,-40 7,-4 15,-4 24,2 4,2 7,5 9,8 1,3 2,7 1,13 -1,5 -3,13 -8,22 -4,9 -11,21 -20,35 l -16,24 z m 199,-221 42,-92 -128,-59 c -14,-6 -21,-15 -23,-27 -2,-13 0,-27 8,-44 8,-17 17,-28 26,-31 9,-2 22,0 38,7 l 36,-79 c -1,-1 -3,-2 -4,-3 -8,-4 -13,-6 -16,-8 -32,-14 -59,-18 -80,-10 -21,8 -39,29 -54,62 -11,23 -16,44 -16,63 0,19 8,35 23,48 l 0,1 -45,-20 -39,86 232,106 z m 77,-360 c 30,11 53,9 71,-5 18,-14 34,-43 49,-88 l 31,-90 c 10,-28 16,-51 19,-70 4,-18 4,-33 2,-44 -3,-12 -8,-22 -17,-29 -9,-8 -22,-15 -38,-20 -13,-5 -24,-7 -34,-8 -10,0 -20,2 -29,8 -10,5 -20,16 -30,31 -10,15 -19,37 -29,64 l -22,66 c -8,24 -15,39 -19,46 -5,6 -9,8 -15,7 -8,-3 -12,-9 -11,-17 1,-9 6,-27 16,-55 5,-15 9,-27 12,-35 3,-8 6,-15 9,-19 3,-4 6,-7 9,-9 3,-2 6,-2 10,-2 l 33,-96 c -15,-5 -28,-7 -38,-6 -11,1 -20,5 -29,14 -9,8 -18,21 -27,40 -9,18 -19,43 -30,75 l -23,66 c -6,18 -10,35 -13,49 -3,14 -4,27 -3,39 2,12 6,22 13,31 7,9 18,16 33,21 17,6 31,9 43,9 13,-1 23,-4 32,-10 10,-7 18,-17 26,-30 7,-14 15,-32 23,-55 l 31,-90 c 5,-16 11,-26 16,-31 5,-4 11,-5 18,-3 7,2 11,8 11,16 -1,8 -5,24 -12,47 l -12,34 c -4,13 -9,23 -12,31 -4,7 -8,13 -11,16 -3,3 -6,5 -9,6 -3,0 -7,-1 -10,-2 l -34,98 z"
       id="path26"
       inkscape:connector-curvature="0"
       style="fill:#a0d211;fill-rule:nonzero" /><circle
       class="fil4"
       cy="11000"
       r="3898"
       id="circle28"
       cx="0"
       style="fill:none" /><circle
       class="fil5"
       cy="11748"
       r="394"
       id="circle30"
       cx="0"
       style="fill:#a0d211" /></g></svg>