<?xml version="1.0" encoding="UTF-8" standalone="no"?>
<!-- Creator: CorelDRAW X7 -->

<svg
   xmlns:dc="http://purl.org/dc/elements/1.1/"
   xmlns:cc="http://creativecommons.org/ns#"
   xmlns:rdf="http://www.w3.org/1999/02/22-rdf-syntax-ns#"
   xmlns:svg="http://www.w3.org/2000/svg"
   xmlns="http://www.w3.org/2000/svg"
   xmlns:sodipodi="http://sodipodi.sourceforge.net/DTD/sodipodi-0.dtd"
   xmlns:inkscape="http://www.inkscape.org/namespaces/inkscape"
   xml:space="preserve"
   width="7.8740005in"
   height="7.8740005in"
   version="1.1"
   style="clip-rule:evenodd;fill-rule:evenodd;image-rendering:optimizeQuality;shape-rendering:geometricPrecision;text-rendering:geometricPrecision"
   viewBox="0 0 7874.0005 7874.0005"
   id="svg3645"
   inkscape:version="0.91 r13725"
   sodipodi:docname="PanOceania - Bagh-Mari - [N3] [Vyo].svg"><metadata
     id="metadata3667"><rdf:RDF><cc:Work
         rdf:about=""><dc:format>image/svg+xml</dc:format><dc:type
           rdf:resource="http://purl.org/dc/dcmitype/StillImage" /></cc:Work></rdf:RDF></metadata><sodipodi:namedview
     pagecolor="#ffffff"
     bordercolor="#666666"
     borderopacity="1"
     objecttolerance="10"
     gridtolerance="10"
     guidetolerance="10"
     inkscape:pageopacity="0"
     inkscape:pageshadow="2"
     inkscape:window-width="640"
     inkscape:window-height="480"
     id="namedview3665"
     showgrid="false"
     inkscape:zoom="0.23838384"
     inkscape:cx="736.83001"
     inkscape:cy="849.33005"
     inkscape:window-x="0"
     inkscape:window-y="0"
     inkscape:window-maximized="0"
     inkscape:current-layer="svg3645" /><defs
     id="defs3647"><style
       type="text/css"
       id="style3649"><![CDATA[
    .fil0 {fill:black}
    .fil2 {fill:#E2001A}
    .fil1 {fill:white}
   ]]></style></defs><g
     id="Layer_x0020_1"
     transform="translate(3937,-7063)"><metadata
       id="CorelCorpID_0Corel-Layer" /><circle
       class="fil0"
       cy="11000"
       r="3937"
       id="circle3653"
       cx="0"
       style="fill:#000000" /><circle
       class="fil1"
       cy="11000"
       r="3622"
       id="circle3655"
       cx="0"
       style="fill:#ffffff" /><circle
       class="fil0"
       cy="11000"
       r="3307"
       id="circle3657"
       cx="0"
       style="fill:#000000" /><polygon
       class="fil2"
       points="0,10291 1765,9055 2217,9700 282,11055 -282,11055 -2217,9700 -1765,9055 "
       id="polygon3659"
       style="fill:#e2001a" /><polygon
       class="fil0"
       points="1953,12924 0,14460 -1953,12924 "
       id="polygon3661"
       style="fill:#000000" /><path
       class="fil1"
       d="m 0,7850 c 1305,0 2362,1058 2362,2363 0,1057 -695,1952 -1653,2253 l 0,787 897,-706 292,371 -1752,1378 -146,114 -146,-114 -1752,-1378 292,-371 897,706 0,-786 c -958,-301 -1653,-1197 -1653,-2254 0,-1305 1057,-2363 2362,-2363 z m 1958,2154 -1096,830 c -46,35 -81,88 -107,148 -31,74 -46,159 -46,238 l 0,829 c 737,-284 1260,-999 1260,-1836 0,-71 -4,-140 -11,-209 z m -1486,841 c 46,-102 113,-195 201,-262 l 1217,-922 c -42,-145 -101,-283 -174,-413 l -1090,826 c -46,35 -82,88 -107,148 -31,74 -47,159 -47,239 l 0,384 z m 760,-2168 -842,637 c -46,35 -82,88 -107,148 -32,74 -47,159 -47,239 l 0,385 c 46,-103 112,-196 201,-263 l 1104,-836 c -92,-114 -195,-218 -309,-310 z M 0,9326 C 46,9223 112,9130 201,9063 L 956,8491 C 673,8334 347,8244 0,8244 c -347,0 -673,90 -956,247 l 755,572 c 89,67 155,160 201,263 z m -1890,335 1217,922 c 88,67 155,160 201,262 l 0,-384 c 0,-80 -16,-165 -47,-239 -25,-60 -61,-113 -107,-148 l -1090,-826 c -73,130 -132,268 -174,413 z m 1181,2389 0,-830 c 0,-79 -15,-164 -46,-238 -26,-60 -61,-113 -107,-148 l -1096,-830 c -7,69 -11,138 -11,209 0,837 523,1552 1260,1837 z m 473,-1964 0,-385 c 0,-80 -15,-165 -47,-239 -25,-60 -61,-113 -107,-148 l -842,-637 c -114,92 -217,196 -309,310 l 1104,836 c 89,67 155,160 201,263 z"
       id="path3663"
       inkscape:connector-curvature="0"
       style="fill:#ffffff" /></g></svg>