<?xml version="1.0" encoding="UTF-8" standalone="no"?>
<!-- Creator: CorelDRAW X7 -->

<svg
   xmlns:dc="http://purl.org/dc/elements/1.1/"
   xmlns:cc="http://creativecommons.org/ns#"
   xmlns:rdf="http://www.w3.org/1999/02/22-rdf-syntax-ns#"
   xmlns:svg="http://www.w3.org/2000/svg"
   xmlns="http://www.w3.org/2000/svg"
   xmlns:sodipodi="http://sodipodi.sourceforge.net/DTD/sodipodi-0.dtd"
   xmlns:inkscape="http://www.inkscape.org/namespaces/inkscape"
   xml:space="preserve"
   width="7.8740005in"
   height="7.8740005in"
   version="1.1"
   style="clip-rule:evenodd;fill-rule:evenodd;image-rendering:optimizeQuality;shape-rendering:geometricPrecision;text-rendering:geometricPrecision"
   viewBox="0 0 7874.0005 7874.0005"
   id="svg4921"
   inkscape:version="0.91 r13725"
   sodipodi:docname="PanOceania - Remote 2 Sierra Dronbots - [N3] [Vyo].svg"><metadata
     id="metadata4972"><rdf:RDF><cc:Work
         rdf:about=""><dc:format>image/svg+xml</dc:format><dc:type
           rdf:resource="http://purl.org/dc/dcmitype/StillImage" /></cc:Work></rdf:RDF></metadata><sodipodi:namedview
     pagecolor="#ffffff"
     bordercolor="#666666"
     borderopacity="1"
     objecttolerance="10"
     gridtolerance="10"
     guidetolerance="10"
     inkscape:pageopacity="0"
     inkscape:pageshadow="2"
     inkscape:window-width="640"
     inkscape:window-height="480"
     id="namedview4970"
     showgrid="false"
     inkscape:zoom="0.23838384"
     inkscape:cx="736.83001"
     inkscape:cy="849.33005"
     inkscape:window-x="0"
     inkscape:window-y="0"
     inkscape:window-maximized="0"
     inkscape:current-layer="svg4921" /><defs
     id="defs4923"><style
       type="text/css"
       id="style4925"><![CDATA[
    .fil4 {fill:none}
    .fil0 {fill:#00C0FF}
    .fil1 {fill:white}
    .fil2 {fill:white}
    .fil3 {fill:#00C0FF;fill-rule:nonzero}
   ]]></style></defs><g
     id="Layer_x0020_1"
     transform="translate(3937,-7063)"><metadata
       id="CorelCorpID_0Corel-Layer" /><circle
       class="fil0"
       cy="11000"
       r="3937"
       id="circle4929"
       cx="0"
       style="fill:#00c0ff" /><circle
       class="fil1"
       cy="11000"
       r="3780"
       id="circle4931"
       cx="0"
       style="fill:#ffffff" /><circle
       class="fil0"
       cy="11000"
       r="2795"
       id="circle4933"
       cx="0"
       style="fill:#00c0ff" /><polygon
       class="fil2"
       points="-2047,11000 0,8441 2047,11000 0,13559 "
       id="polygon4935"
       style="fill:#ffffff" /><polygon
       class="fil0"
       points="0,8567 -1946,11000 1946,11000 "
       id="polygon4937"
       style="fill:#00c0ff" /><path
       class="fil3"
       d="m -2267,8537 -85,88 -6,-5 c -14,-14 -26,-20 -37,-17 -10,2 -26,14 -46,35 -14,15 -24,27 -29,37 -5,9 -7,18 -5,25 2,8 7,16 16,25 10,9 18,14 26,15 8,1 16,-1 25,-8 1,-1 3,-2 4,-2 1,-1 8,-8 22,-21 14,-13 26,-24 36,-33 28,-26 49,-43 64,-54 16,-10 30,-17 45,-20 12,-3 23,-3 34,-1 11,2 22,7 33,14 12,7 25,18 40,33 25,23 43,43 52,59 10,17 14,33 14,50 -1,21 -8,41 -20,62 -13,21 -35,48 -67,82 -33,34 -59,59 -79,75 -21,16 -39,27 -56,30 -17,4 -34,3 -51,-3 -11,-4 -22,-10 -33,-18 -11,-8 -26,-21 -45,-39 l 85,-89 6,6 c 17,16 31,21 44,17 7,-3 13,-7 18,-11 6,-5 16,-16 32,-32 18,-19 29,-32 33,-38 4,-6 5,-14 5,-23 -1,-9 -7,-19 -18,-30 -9,-8 -17,-13 -24,-15 -7,-1 -15,0 -23,5 -6,4 -16,12 -28,23 l -11,10 -11,10 -11,10 c -30,28 -52,47 -66,57 -14,10 -28,17 -42,22 -18,6 -37,5 -56,-3 -19,-8 -42,-24 -67,-48 -21,-20 -37,-39 -46,-56 -9,-17 -12,-34 -9,-52 2,-18 11,-38 25,-59 15,-22 37,-48 66,-79 32,-33 57,-56 74,-69 18,-14 35,-21 52,-24 34,-5 68,9 104,42 6,6 11,12 16,17 z"
       id="path4939"
       inkscape:connector-curvature="0"
       style="fill:#00c0ff;fill-rule:nonzero" /><path
       id="1"
       class="fil3"
       d="m -2200,8285 53,61 -83,73 -53,-61 83,-73 z m 95,109 221,254 -83,72 -221,-253 83,-73 z"
       inkscape:connector-curvature="0"
       style="fill:#00c0ff;fill-rule:nonzero" /><path
       id="2"
       class="fil3"
       d="m -1723,8395 88,-60 4,5 c 17,26 25,50 24,72 -2,17 -9,34 -22,49 -13,16 -34,34 -65,55 -18,13 -34,23 -48,30 -13,7 -26,13 -39,16 -12,4 -23,6 -33,5 -10,0 -20,-2 -31,-5 -6,-3 -13,-7 -20,-11 -7,-5 -15,-11 -22,-19 -7,-7 -15,-17 -24,-28 -8,-11 -18,-24 -29,-40 -18,-27 -31,-50 -39,-70 -7,-20 -9,-38 -6,-55 3,-17 12,-33 25,-49 14,-15 34,-32 61,-51 35,-24 66,-39 90,-45 25,-5 47,-2 68,12 21,13 43,37 67,72 l 18,27 -177,121 c 1,4 4,7 6,11 10,14 19,24 26,29 8,5 16,7 25,5 9,-1 20,-6 32,-14 11,-8 19,-14 24,-21 5,-6 7,-12 6,-18 -1,-7 -4,-14 -9,-23 z m -144,-20 90,-61 c -2,-3 -4,-5 -7,-9 -10,-14 -19,-21 -27,-21 -8,-1 -22,6 -42,20 -12,8 -21,15 -25,21 -5,5 -6,11 -5,18 1,6 4,14 11,24 1,2 2,3 2,4 1,1 2,3 3,4 z"
       inkscape:connector-curvature="0"
       style="fill:#00c0ff;fill-rule:nonzero" /><path
       id="3"
       class="fil3"
       d="m -1678,8102 97,-52 21,50 2,-1 c -2,-24 1,-42 8,-56 7,-13 20,-25 39,-35 15,-8 29,-13 40,-14 12,-1 22,0 33,6 10,5 20,14 30,26 10,13 21,29 32,51 5,9 9,16 13,23 l -88,47 c -1,-3 -2,-5 -3,-8 -8,-14 -14,-24 -19,-31 -6,-7 -11,-11 -16,-11 -5,-1 -12,1 -20,5 -11,6 -17,14 -19,25 -2,11 1,24 8,38 l 6,10 91,173 -97,51 -158,-297 z"
       inkscape:connector-curvature="0"
       style="fill:#00c0ff;fill-rule:nonzero" /><path
       id="4"
       class="fil3"
       d="m -1367,7937 101,-42 16,51 3,-1 c 0,-23 4,-41 13,-54 8,-13 22,-23 42,-32 16,-6 29,-10 41,-10 12,-1 22,2 32,8 10,6 19,16 28,30 9,13 18,31 27,53 4,10 8,17 11,24 l -92,39 c -1,-2 -2,-5 -3,-8 -6,-14 -11,-25 -16,-32 -5,-8 -10,-12 -15,-13 -5,-1 -12,0 -20,3 -11,5 -18,13 -21,24 -3,10 -1,23 5,38 l 4,11 76,180 -101,42 -131,-311 z"
       inkscape:connector-curvature="0"
       style="fill:#00c0ff;fill-rule:nonzero" /><path
       id="5"
       class="fil3"
       d="m -897,7875 -105,32 -3,-9 c -5,-18 -8,-33 -6,-46 1,-13 6,-25 14,-34 8,-10 21,-19 39,-28 17,-8 39,-17 67,-25 41,-12 75,-19 100,-18 25,0 45,7 59,20 15,14 27,37 36,67 l 63,210 -106,31 -12,-53 -3,1 c 0,16 -3,29 -8,39 -5,11 -13,19 -25,26 -12,8 -29,14 -51,21 -19,6 -37,9 -52,9 -15,1 -28,-2 -39,-8 -11,-5 -20,-14 -28,-26 -8,-11 -15,-27 -20,-45 -6,-18 -8,-33 -7,-47 0,-13 4,-26 11,-36 7,-11 17,-20 30,-28 13,-8 30,-16 51,-22 20,-6 36,-10 49,-11 13,-1 23,0 31,3 8,4 16,11 24,21 l 2,-1 -19,-63 c -4,-15 -11,-25 -20,-29 -9,-4 -23,-4 -41,2 -16,5 -25,10 -29,16 -4,7 -5,17 -2,31 z m 64,83 c -18,6 -30,12 -36,19 -5,7 -6,17 -2,30 4,14 10,22 19,24 9,2 24,0 46,-6 19,-6 30,-12 35,-19 5,-7 6,-18 1,-33 -3,-12 -10,-19 -18,-21 -9,-2 -24,0 -45,6 z"
       inkscape:connector-curvature="0"
       style="fill:#00c0ff;fill-rule:nonzero" /><path
       id="6"
       class="fil3"
       d="m -381,8007 -39,-480 251,-21 c 42,-3 78,0 106,11 29,11 51,29 67,54 15,26 25,59 28,99 0,0 1,13 3,38 l 4,52 c 2,36 3,64 2,84 -2,20 -5,37 -10,51 -6,14 -14,28 -26,40 -13,16 -31,27 -53,35 -22,8 -52,14 -89,17 l -244,20 z m 120,-121 104,-8 c 12,-1 21,-3 28,-5 7,-2 13,-6 18,-10 4,-5 8,-11 12,-18 5,-11 8,-26 7,-47 0,0 0,-9 -1,-27 0,-11 -1,-22 -2,-33 -3,-38 -7,-65 -11,-81 -5,-17 -13,-28 -24,-33 -10,-5 -26,-7 -48,-5 l -104,8 21,259 z"
       inkscape:connector-curvature="0"
       style="fill:#00c0ff;fill-rule:nonzero" /><path
       id="7"
       class="fil3"
       d="m 144,7651 110,9 -10,53 2,0 c 12,-21 24,-35 37,-42 13,-7 31,-10 52,-8 17,1 31,4 42,9 10,5 18,13 24,22 6,10 9,23 11,39 2,16 2,37 0,61 -1,10 -1,19 -2,26 l -99,-8 c 0,-3 1,-5 1,-9 2,-15 2,-27 1,-36 -1,-9 -3,-15 -7,-18 -4,-4 -11,-6 -20,-6 -12,-1 -22,2 -30,10 -7,9 -12,21 -13,37 l -1,11 -16,195 -110,-9 28,-336 z"
       inkscape:connector-curvature="0"
       style="fill:#00c0ff;fill-rule:nonzero" /><path
       id="8"
       class="fil3"
       d="m 654,7710 c 40,6 68,13 86,21 18,7 31,18 41,32 10,14 16,31 18,50 1,19 -1,44 -6,77 -7,40 -14,72 -23,95 -8,23 -19,41 -33,52 -13,11 -31,18 -53,19 -22,2 -50,-1 -85,-6 -25,-4 -45,-9 -62,-14 -17,-5 -30,-11 -41,-17 -11,-7 -20,-16 -28,-26 -7,-10 -12,-21 -15,-32 -3,-12 -4,-26 -3,-44 1,-18 4,-43 10,-75 6,-37 13,-65 21,-83 8,-18 20,-32 36,-42 9,-6 20,-10 32,-13 11,-2 25,-3 41,-2 16,0 38,3 64,8 z m -14,80 c -16,-2 -28,-2 -37,1 -9,3 -16,10 -21,21 -5,11 -9,29 -13,52 -4,20 -6,37 -6,49 -1,13 0,23 3,31 3,7 7,13 14,16 7,4 17,7 31,9 16,3 28,3 37,-1 8,-4 15,-12 20,-26 5,-14 10,-36 15,-66 4,-21 5,-38 4,-49 -2,-11 -6,-19 -13,-25 -7,-5 -18,-9 -34,-12 z"
       inkscape:connector-curvature="0"
       style="fill:#00c0ff;fill-rule:nonzero" /><path
       id="9"
       class="fil3"
       d="m 925,7775 105,36 -26,61 3,0 c 16,-21 33,-35 49,-40 17,-6 38,-4 64,5 26,9 46,19 60,32 14,12 23,27 26,43 3,17 0,37 -7,60 l -76,226 -104,-35 61,-183 4,-13 c 6,-16 7,-29 3,-39 -4,-9 -13,-16 -27,-20 -38,-13 -63,-1 -75,35 l -63,187 -104,-35 107,-320 z"
       inkscape:connector-curvature="0"
       style="fill:#00c0ff;fill-rule:nonzero" /><path
       id="10"
       class="fil3"
       d="m 1191,8222 224,-426 98,51 -92,175 2,1 c 12,-10 24,-17 35,-20 11,-3 23,-3 36,-1 13,3 28,9 44,18 39,20 62,43 69,69 5,18 5,35 0,52 -4,17 -17,44 -37,83 -20,37 -35,63 -45,76 -10,13 -22,24 -36,33 -30,17 -68,14 -115,-11 -14,-7 -25,-15 -33,-22 -8,-7 -15,-15 -19,-23 -5,-8 -7,-17 -8,-27 -1,-10 0,-21 2,-34 l -2,-1 -26,58 -97,-51 z m 268,-148 c -20,-10 -36,-13 -48,-7 -12,5 -25,21 -38,47 -14,27 -23,47 -27,59 -4,13 -4,24 1,31 4,8 13,15 27,23 17,9 29,13 39,13 9,1 17,-4 25,-13 8,-9 18,-26 31,-51 13,-23 20,-40 23,-52 3,-11 2,-20 -3,-27 -5,-8 -15,-15 -30,-23 z"
       inkscape:connector-curvature="0"
       style="fill:#00c0ff;fill-rule:nonzero" /><path
       id="11"
       class="fil3"
       d="m 1853,8204 c 34,21 57,39 70,52 14,14 22,30 26,47 3,16 2,34 -4,52 -6,18 -17,41 -35,69 -22,34 -41,60 -58,78 -17,19 -34,30 -51,35 -17,6 -35,5 -56,-3 -21,-7 -46,-20 -76,-39 -21,-13 -38,-25 -51,-36 -14,-12 -24,-22 -31,-33 -8,-10 -13,-21 -16,-34 -3,-12 -3,-24 -1,-36 1,-11 6,-25 14,-41 8,-16 21,-38 38,-65 21,-32 38,-55 53,-68 14,-14 31,-22 49,-25 11,-2 22,-1 34,1 12,2 25,6 39,13 15,8 33,18 56,33 z m -44,68 c -14,-8 -25,-13 -35,-14 -9,-1 -18,3 -27,12 -9,8 -20,22 -33,43 -11,17 -19,31 -25,43 -6,11 -9,21 -9,29 -1,8 2,15 7,21 5,6 13,13 24,20 14,9 26,13 35,13 9,1 19,-5 29,-16 10,-11 24,-29 40,-55 12,-18 19,-33 22,-43 3,-11 3,-20 -2,-28 -4,-8 -13,-16 -26,-25 z"
       inkscape:connector-curvature="0"
       style="fill:#00c0ff;fill-rule:nonzero" /><path
       id="12"
       class="fil3"
       d="m 2267,8530 -52,61 -97,-83 -87,104 c -12,13 -18,23 -20,30 -1,6 1,13 9,19 9,8 18,11 26,8 7,-3 18,-13 33,-30 l 4,-5 67,57 c -2,2 -4,4 -5,6 -1,1 -3,2 -4,4 -21,24 -36,40 -45,47 -9,7 -20,12 -32,14 -10,2 -20,2 -30,-1 -11,-2 -22,-7 -35,-15 -13,-9 -27,-19 -43,-33 -23,-20 -39,-38 -48,-53 -8,-16 -10,-32 -7,-50 2,-8 4,-16 9,-24 5,-8 12,-17 22,-29 l 102,-120 -31,-27 52,-61 31,27 46,-54 84,71 -46,54 97,83 z"
       inkscape:connector-curvature="0"
       style="fill:#00c0ff;fill-rule:nonzero" /><path
       id="13"
       class="fil3"
       d="m 2472,8878 -71,-75 c 1,-3 2,-4 3,-4 4,-7 6,-12 6,-17 1,-4 -1,-9 -5,-15 -4,-6 -11,-14 -22,-25 -12,-13 -22,-21 -29,-23 -7,-2 -15,1 -23,9 -11,10 -13,20 -6,32 2,3 6,8 13,17 l 9,11 10,11 10,11 c 13,16 24,29 32,41 9,11 14,20 18,28 4,8 6,16 7,24 2,13 0,25 -6,37 -5,12 -14,24 -27,36 -16,16 -32,26 -47,32 -14,6 -30,7 -46,4 -15,-4 -32,-12 -50,-25 -19,-13 -38,-31 -60,-53 -22,-24 -39,-44 -50,-61 -11,-17 -18,-32 -20,-45 -2,-14 1,-28 7,-41 7,-14 18,-28 34,-43 l 77,81 -5,4 c -10,10 -14,18 -11,26 2,7 11,20 26,36 15,16 26,25 35,28 8,3 16,0 25,-8 6,-6 10,-12 12,-17 2,-5 1,-10 -2,-16 -3,-6 -9,-14 -18,-25 -24,-25 -40,-44 -50,-56 -10,-12 -17,-24 -23,-36 -9,-19 -11,-37 -6,-53 5,-17 17,-35 36,-54 16,-14 30,-24 43,-29 13,-6 27,-7 40,-3 14,3 29,11 46,24 16,13 36,31 58,55 28,28 46,53 57,72 10,19 13,37 9,53 -5,16 -17,34 -36,52 z"
       inkscape:connector-curvature="0"
       style="fill:#00c0ff;fill-rule:nonzero" /><circle
       class="fil4"
       cy="11000"
       r="3898"
       id="circle4954"
       cx="0"
       style="fill:none" /><path
       class="fil3"
       d="m -2934,12934 90,115 95,-74 179,229 c 16,20 32,33 50,42 18,8 36,12 53,11 18,-1 36,-5 53,-13 17,-7 33,-17 48,-28 l 32,-26 c 20,-15 36,-31 48,-47 12,-16 20,-34 24,-53 3,-19 1,-40 -7,-63 -8,-22 -22,-47 -43,-74 l -246,-314 -376,295 z m 373,-106 133,169 c 13,17 19,32 18,44 -1,13 -8,24 -21,35 l -15,11 c -12,9 -24,14 -36,14 -12,-1 -23,-7 -33,-20 l -141,-179 95,-74 z m 9,592 123,108 88,-35 224,196 -22,93 123,108 117,-533 -143,-126 -510,189 z m 508,-43 -47,198 -141,-123 188,-75 z m 114,572 131,66 157,-310 2,1 88,434 202,103 216,-426 -130,-66 -157,309 -2,0 -88,-434 -202,-103 -217,426 z m 753,187 c -9,33 -12,61 -9,86 3,24 11,45 25,62 14,16 32,31 55,43 23,12 51,22 85,32 l 227,63 c 34,9 63,15 89,16 26,2 49,-1 70,-8 21,-8 39,-21 54,-40 15,-19 27,-45 36,-78 l 38,-138 c 9,-33 13,-62 10,-86 -3,-24 -12,-45 -26,-62 -14,-17 -32,-31 -55,-43 -23,-12 -51,-22 -85,-32 l -227,-63 c -34,-9 -63,-15 -89,-17 -26,-2 -49,1 -70,9 -20,7 -38,20 -53,40 -15,19 -28,45 -37,78 l -38,138 z m 171,-54 c 9,-31 21,-52 37,-64 17,-12 42,-13 77,-3 l 165,46 c 35,10 56,24 64,42 8,18 8,43 -1,75 l -14,49 c -10,35 -22,58 -36,68 -15,10 -38,11 -70,2 l -181,-50 c -32,-9 -52,-22 -59,-38 -7,-17 -6,-42 4,-77 l 14,-50 z m 548,244 c -1,34 3,63 12,85 9,23 23,41 40,54 18,13 39,22 64,28 26,6 56,9 91,10 l 236,4 c 36,1 65,-2 89,-9 23,-7 42,-16 55,-29 13,-12 22,-27 27,-44 5,-17 8,-36 8,-58 l 1,-45 -146,-3 c -1,15 -2,27 -5,36 -3,9 -8,15 -15,19 -6,5 -14,7 -25,8 -10,2 -24,2 -42,2 l -157,-3 c -33,-1 -55,-9 -66,-23 -11,-14 -16,-39 -16,-75 l 1,-51 c 1,-33 8,-57 20,-72 13,-16 38,-23 74,-22 l 160,3 c 22,0 40,4 51,11 11,7 17,18 16,35 l 0,13 147,3 c 0,-37 -2,-67 -7,-89 -6,-22 -16,-40 -32,-54 -16,-14 -39,-24 -69,-31 -31,-6 -72,-10 -123,-11 l -172,-4 c -36,0 -66,2 -91,6 -26,5 -47,13 -65,26 -19,12 -33,30 -42,52 -10,23 -16,51 -16,85 l -3,143 z m 758,177 524,-91 -20,-113 -379,66 -13,-76 351,-61 -16,-97 -352,61 -13,-76 371,-64 -19,-109 -515,89 81,471 z m 618,-97 152,-60 9,-95 276,-110 73,62 152,-60 -421,-347 -177,70 -64,540 z m 193,-472 155,132 -174,69 19,-201 z m 558,158 123,-80 -188,-291 1,-1 419,142 191,-123 -259,-401 -123,79 188,292 -1,1 -419,-143 -191,123 259,402 z m 656,-467 105,-102 -331,-344 -105,101 331,345 z m 196,-167 102,-128 -39,-87 185,-232 94,17 102,-128 -538,-92 -119,150 213,500 z m -67,-506 200,38 -117,146 -83,-184 z"
       id="path4956"
       inkscape:connector-curvature="0"
       style="fill:#00c0ff;fill-rule:nonzero" /><circle
       class="fil4"
       cy="11000"
       r="3898"
       id="circle4958"
       cx="0"
       style="fill:none" /><g
       id="_806919920"><rect
         class="fil0"
         x="138"
         y="11000"
         width="354"
         height="748"
         id="rect4961"
         style="fill:#00c0ff" /><rect
         class="fil1"
         x="138"
         y="10252"
         width="354"
         height="748"
         id="rect4963"
         style="fill:#ffffff" /></g><g
       id="_806915792"><rect
         class="fil0"
         x="-492"
         y="11000"
         width="354"
         height="748"
         id="rect4966"
         style="fill:#00c0ff" /><rect
         class="fil1"
         x="-492"
         y="10252"
         width="354"
         height="748"
         id="rect4968"
         style="fill:#ffffff" /></g></g></svg>