<?xml version="1.0" encoding="UTF-8" standalone="no"?>
<!-- Creator: CorelDRAW X7 -->

<svg
   xmlns:dc="http://purl.org/dc/elements/1.1/"
   xmlns:cc="http://creativecommons.org/ns#"
   xmlns:rdf="http://www.w3.org/1999/02/22-rdf-syntax-ns#"
   xmlns:svg="http://www.w3.org/2000/svg"
   xmlns="http://www.w3.org/2000/svg"
   xmlns:sodipodi="http://sodipodi.sourceforge.net/DTD/sodipodi-0.dtd"
   xmlns:inkscape="http://www.inkscape.org/namespaces/inkscape"
   xml:space="preserve"
   width="7.8740005in"
   height="7.8740005in"
   version="1.1"
   style="clip-rule:evenodd;fill-rule:evenodd;image-rendering:optimizeQuality;shape-rendering:geometricPrecision;text-rendering:geometricPrecision"
   viewBox="0 0 7874.0005 7874.0005"
   id="svg4146"
   inkscape:version="0.91 r13725"
   sodipodi:docname="PanOceania - Hexas - [N3] [Vyo].svg"><metadata
     id="metadata4188"><rdf:RDF><cc:Work
         rdf:about=""><dc:format>image/svg+xml</dc:format><dc:type
           rdf:resource="http://purl.org/dc/dcmitype/StillImage" /></cc:Work></rdf:RDF></metadata><sodipodi:namedview
     pagecolor="#ffffff"
     bordercolor="#666666"
     borderopacity="1"
     objecttolerance="10"
     gridtolerance="10"
     guidetolerance="10"
     inkscape:pageopacity="0"
     inkscape:pageshadow="2"
     inkscape:window-width="640"
     inkscape:window-height="480"
     id="namedview4186"
     showgrid="false"
     inkscape:zoom="0.23838384"
     inkscape:cx="736.83001"
     inkscape:cy="849.33005"
     inkscape:window-x="0"
     inkscape:window-y="0"
     inkscape:window-maximized="0"
     inkscape:current-layer="svg4146" /><defs
     id="defs4148"><style
       type="text/css"
       id="style4150"><![CDATA[
    .fil8 {fill:none}
    .fil6 {fill:#002598}
    .fil5 {fill:#003CAE}
    .fil4 {fill:#0062C5}
    .fil0 {fill:#00C0FF}
    .fil7 {fill:#010010}
    .fil3 {fill:#80B0E1}
    .fil2 {fill:#81D0F1}
    .fil1 {fill:white}
    .fil9 {fill:white}
    .fil10 {fill:#E2001A;fill-rule:nonzero}
   ]]></style></defs><g
     id="Layer_x0020_1"
     transform="translate(3937,-7063)"><metadata
       id="CorelCorpID_0Corel-Layer" /><circle
       class="fil0"
       cy="11000"
       r="3937"
       id="circle4154"
       cx="0"
       style="fill:#00c0ff" /><circle
       class="fil1"
       cy="11000"
       r="3858"
       id="circle4156"
       cx="0"
       style="fill:#ffffff" /><circle
       class="fil0"
       cy="11000"
       r="3425"
       id="circle4158"
       cx="0"
       style="fill:#00c0ff" /><polygon
       class="fil2"
       points="0,9402 -1384,10201 -1978,9858 0,8717 1978,9858 1384,10201 "
       id="polygon4160"
       style="fill:#81d0f1" /><polygon
       class="fil3"
       points="-1384,10201 0,9402 1384,10201 0,11000 "
       id="polygon4162"
       style="fill:#80b0e1" /><polygon
       class="fil4"
       points="-1384,11799 0,12598 0,13283 -1978,12142 -1978,9858 -1384,10201 "
       id="polygon4164"
       style="fill:#0062c5" /><polygon
       class="fil5"
       points="0,12598 -1384,11799 -1384,10201 0,11000 "
       id="polygon4166"
       style="fill:#003cae" /><polygon
       class="fil6"
       points="1384,11799 1384,10201 1978,9858 1978,12142 0,13283 0,12598 "
       id="polygon4168"
       style="fill:#002598" /><polygon
       class="fil7"
       points="1384,10201 1384,11799 0,12598 0,11000 "
       id="polygon4170"
       style="fill:#010010" /><circle
       class="fil8"
       cy="10998"
       r="3898"
       id="circle4172"
       cx="0"
       style="fill:none" /><g
       id="_810594144"><path
         class="fil9"
         d="m 433,14622 211,-629 272,-62 483,501 -276,64 -74,-79 -315,72 -34,105 -238,55 21,20 -356,-8 -172,-175 -180,168 -354,-8 336,-293 -201,-201 -27,99 -448,-126 -3,12 418,117 -49,174 -418,-117 -3,14 447,125 -53,188 -689,-193 129,-457 -218,427 -226,-116 89,-176 -279,-142 -90,176 -226,-116 271,-532 226,115 -84,167 279,142 85,-166 205,104 1,-1 646,181 261,5 162,173 170,-165 338,7 -313,290 276,261 z m 1437,-891 c 23,2 46,9 66,23 30,20 53,52 71,83 13,23 25,48 30,74 6,25 6,49 -1,73 -6,24 -18,45 -34,63 -17,20 -38,37 -59,52 -24,18 -51,34 -76,50 -48,30 -97,59 -147,87 -48,28 -98,55 -148,79 -34,15 -75,30 -112,28 -19,-1 -39,-5 -56,-14 -15,-7 -28,-17 -39,-30 -10,-11 -19,-23 -27,-37 -7,-12 -14,-25 -21,-37 l -20,-34 49,-28 c -4,0 -7,-1 -10,-1 -26,-5 -48,-17 -67,-35 -20,-18 -37,-42 -51,-66 -12,-22 -23,-46 -30,-71 -6,-23 -8,-47 -2,-71 5,-24 16,-46 32,-65 17,-20 38,-38 60,-54 24,-18 50,-34 75,-50 44,-28 89,-55 134,-80 25,-15 51,-29 77,-44 21,-11 43,-23 65,-32 18,-9 37,-16 56,-21 19,-5 38,-8 57,-6 18,1 35,4 51,11 15,7 29,15 41,26 10,10 20,22 29,34 8,12 16,25 24,38 l 19,34 -36,21 z m -204,63 c 0,0 0,0 0,0 -9,2 -19,7 -28,11 -18,9 -35,18 -53,28 -3,2 -6,4 -10,6 -1,1 -3,2 -5,4 l -1,0 -1,1 c -27,17 -54,34 -82,49 -15,9 -32,19 -46,30 -2,1 -5,4 -7,7 0,0 0,0 0,0 6,-1 14,-5 18,-7 22,-12 43,-23 64,-35 19,-10 38,-20 56,-31 11,-6 21,-12 32,-18 10,-7 21,-13 32,-19 12,-7 24,-13 35,-20 -1,-2 -2,-4 -4,-6 z m -130,308 c 1,4 3,7 5,10 5,-1 13,-4 17,-6 11,-6 23,-12 35,-19 22,-11 44,-24 66,-36 28,-16 56,-32 84,-49 14,-9 30,-19 43,-30 1,-1 3,-2 4,-4 0,0 0,-1 -1,-1 0,-1 0,-1 -1,-2 -1,0 -1,0 -2,0 -8,2 -16,6 -23,10 -13,6 -25,13 -38,20 -43,24 -86,49 -129,73 -20,12 -40,23 -60,34 z m -636,158 -71,-75 -32,99 103,-24 z"
         id="path4175"
         inkscape:connector-curvature="0"
         style="fill:#ffffff" /></g><path
       class="fil10"
       d="m -1380,13986 84,-166 157,79 -236,463 -156,-80 89,-176 -349,-178 -90,176 -156,-80 235,-462 156,79 -84,167 350,178 z m 160,432 140,-500 613,172 -32,112 -447,-125 -24,87 417,117 -27,99 -418,-117 -25,89 447,125 -31,112 -613,-171 z m 1592,-310 -272,253 281,266 -237,-5 -188,-191 -196,183 -237,-5 292,-254 -264,-265 232,5 178,190 187,-182 224,5 z m 605,175 -165,-173 -74,228 239,-55 z m 85,90 -359,83 -34,104 -188,44 193,-577 229,-53 420,436 -187,43 -74,-80 z m 642,-593 c -6,-10 -13,-17 -20,-21 -7,-4 -15,-5 -25,-3 -11,2 -23,6 -38,13 -15,7 -33,17 -55,30 -4,2 -8,4 -10,6 -2,1 -6,3 -9,6 -32,20 -58,36 -80,48 -22,12 -39,24 -51,33 -12,10 -20,19 -23,28 -3,9 -1,19 7,32 6,11 15,17 28,18 12,0 26,-4 42,-12 22,-13 44,-24 64,-35 21,-11 39,-22 57,-32 10,-6 21,-12 32,-18 11,-7 21,-13 31,-19 41,-23 78,-43 109,-58 31,-15 59,-24 84,-26 25,-2 47,4 67,17 20,13 40,36 59,69 13,24 22,45 26,64 4,19 4,37 -1,54 -4,16 -13,32 -26,47 -13,16 -30,31 -52,46 -12,9 -37,25 -74,49 -37,23 -86,52 -145,86 -59,33 -107,59 -146,77 -39,18 -70,26 -93,25 -16,-1 -29,-4 -40,-10 -11,-5 -20,-12 -28,-21 -8,-9 -15,-19 -22,-30 -6,-12 -13,-24 -21,-38 l 149,-85 c 3,5 6,10 9,16 3,5 7,9 12,12 5,3 12,4 20,4 9,0 20,-4 34,-11 6,-3 19,-9 36,-19 18,-9 41,-22 67,-37 35,-20 63,-36 85,-49 22,-13 38,-25 49,-34 11,-10 17,-19 18,-27 2,-8 -1,-17 -6,-27 -6,-10 -13,-17 -20,-20 -8,-3 -17,-3 -27,-1 -9,2 -20,6 -32,13 -12,6 -25,13 -39,21 -49,27 -92,51 -129,73 -38,22 -71,40 -100,54 -29,14 -54,24 -76,30 -21,7 -41,8 -58,5 -17,-3 -33,-12 -48,-25 -14,-13 -28,-32 -42,-57 -13,-22 -22,-42 -27,-61 -5,-18 -6,-36 -2,-53 4,-16 12,-32 24,-48 13,-15 31,-31 53,-47 15,-11 39,-27 74,-49 34,-22 78,-49 131,-79 29,-16 54,-31 77,-43 23,-13 43,-23 62,-31 18,-9 35,-15 51,-19 15,-4 29,-6 43,-5 15,1 28,4 39,8 11,5 20,11 29,19 8,8 16,17 23,27 8,11 15,23 22,36 l -148,84 z"
       id="path4177"
       inkscape:connector-curvature="0"
       style="fill:#e2001a;fill-rule:nonzero" /><circle
       class="fil8"
       cy="11000"
       r="3898"
       id="circle4179"
       cx="0"
       style="fill:none" /><g
       id="_810593376"><path
         class="fil9"
         d="m 1854,8022 c 1,-1 3,-2 4,-2 19,-11 40,-16 61,-15 31,1 65,16 91,31 41,23 81,50 120,76 29,21 58,41 86,63 21,16 42,35 57,56 14,20 23,43 23,68 -1,24 -11,48 -23,68 l -21,37 -8,-6 c 0,4 0,7 0,11 -1,25 -12,49 -26,69 -15,21 -34,41 -57,54 -24,13 -52,14 -79,8 -30,-6 -60,-20 -86,-36 -37,-21 -73,-45 -108,-70 -29,-20 -58,-40 -86,-61 -22,-17 -44,-37 -61,-59 -15,-20 -25,-42 -27,-66 -13,4 -25,6 -39,6 -26,0 -52,-7 -76,-16 -30,-11 -59,-25 -88,-39 -39,-21 -78,-42 -115,-66 -29,-18 -58,-40 -79,-66 -20,-26 -31,-55 -31,-88 0,-31 11,-61 24,-89 l -126,-43 7,-34 c 1,-6 2,-11 3,-17 0,0 0,-1 -1,-1 -8,-5 -21,-10 -31,-13 -10,-3 -29,-9 -39,-3 -7,4 -11,14 -13,20 l -64,187 -189,-64 -171,-39 86,-376 -289,340 -238,-33 -241,-561 259,35 135,320 224,-270 262,36 -12,15 135,30 -30,132 195,66 -3,8 c 12,-1 25,0 36,2 21,3 43,9 63,15 28,10 59,23 83,40 21,15 38,34 46,58 4,11 6,21 7,31 18,-11 39,-17 61,-17 34,-1 69,9 100,23 41,17 82,38 122,59 32,17 64,35 94,56 24,18 47,40 59,67 9,18 14,37 14,56 0,2 0,5 0,7 z M -655,7541 c 1,-5 4,-9 6,-13 14,-23 37,-39 62,-50 28,-13 60,-21 91,-27 42,-8 85,-14 127,-20 30,-4 60,-7 90,-7 25,-1 51,2 75,10 23,9 43,23 57,43 15,20 22,44 25,69 l 34,247 -211,29 -1,-6 c -15,7 -32,13 -49,17 -22,5 -44,9 -67,12 -30,4 -61,8 -91,9 -25,2 -51,0 -75,-8 -23,-8 -43,-22 -56,-43 -14,-21 -20,-46 -24,-70 -2,-15 -2,-31 -1,-46 l -132,39 -13,-32 c -3,-6 -5,-11 -7,-16 -1,0 -1,0 -2,0 -10,0 -23,4 -32,7 -11,3 -30,10 -34,20 -4,7 -2,17 0,24 l 56,190 -202,58 -5,-14 c -8,9 -18,17 -29,24 -25,16 -53,29 -80,40 -27,11 -55,21 -83,29 -24,7 -50,11 -75,10 -25,-2 -48,-10 -68,-26 -20,-16 -34,-39 -43,-63 l -35,-85 -14,5 111,209 -185,99 -199,-371 21,474 -197,137 -558,-248 214,-150 316,144 -20,-351 218,-152 1,32 142,-76 62,115 29,-12 -29,-72 197,-80 29,72 199,-81 3,8 171,-50 2,8 c 9,-8 20,-14 31,-19 19,-10 39,-17 60,-23 28,-8 61,-16 91,-15 26,0 51,6 71,21 10,7 18,15 26,25 z m -441,207 -154,63 22,54 c 3,6 5,12 8,17 4,-1 11,-3 15,-5 3,-1 10,-4 14,-7 -2,-5 -4,-11 -7,-17 l -15,-36 123,-50 -6,-19 z"
         id="path4182"
         inkscape:connector-curvature="0"
         style="fill:#ffffff" /></g><path
       class="fil10"
       d="m -1776,7761 23,527 -162,112 -474,-211 139,-97 355,161 -22,-393 141,-99 z m 226,54 147,275 -116,62 -147,-275 116,-62 z m -63,-117 40,74 -116,62 -40,-74 116,-62 z m 481,-61 30,72 -199,81 37,90 c 3,8 6,15 9,21 3,6 8,11 13,15 5,4 11,6 20,6 8,0 18,-3 32,-8 13,-6 22,-11 28,-16 6,-6 10,-11 12,-17 1,-6 0,-12 -2,-19 -3,-7 -6,-15 -9,-24 l 96,-39 c 4,12 8,22 12,31 3,10 6,19 9,28 2,8 3,17 3,25 0,9 -1,17 -5,26 -6,18 -19,33 -38,45 -19,12 -44,24 -74,36 -29,12 -56,22 -79,28 -23,7 -44,10 -61,8 -18,-1 -33,-6 -46,-17 -13,-10 -23,-25 -32,-46 l -50,-123 -63,26 -29,-72 63,-25 -29,-72 125,-51 29,72 198,-81 z m 186,15 c 1,-12 3,-23 7,-33 4,-11 11,-20 20,-28 8,-8 20,-16 34,-23 14,-7 31,-14 53,-20 33,-10 59,-14 80,-14 20,0 36,5 48,14 13,9 22,21 30,38 7,16 14,36 20,58 l -118,34 c -4,-8 -7,-15 -10,-21 -2,-6 -7,-11 -12,-14 -6,-4 -14,-5 -24,-4 -10,0 -24,3 -42,8 -54,16 -74,47 -60,93 l 44,152 -127,37 -86,-299 126,-37 17,59 z m 451,54 c 1,8 4,15 9,19 5,4 11,7 19,8 9,1 18,1 30,0 11,-1 23,-2 37,-4 24,-3 43,-6 59,-9 16,-3 29,-7 39,-11 9,-4 16,-8 20,-14 3,-5 5,-12 3,-21 -1,-8 -4,-13 -8,-17 -5,-4 -11,-6 -20,-7 -9,0 -20,0 -33,1 -13,2 -28,3 -46,6 -17,2 -33,5 -47,7 -14,2 -25,5 -35,9 -10,3 -17,7 -22,12 -5,5 -6,12 -5,21 z m 223,21 c -3,12 -8,22 -15,30 -7,9 -16,16 -27,22 -12,6 -27,11 -44,15 -17,5 -38,8 -63,12 -35,4 -64,8 -88,9 -25,1 -45,-1 -60,-6 -16,-5 -28,-14 -36,-27 -9,-13 -15,-31 -18,-55 -3,-24 -1,-43 5,-57 7,-15 18,-27 34,-36 16,-9 36,-15 60,-20 24,-5 52,-10 84,-14 21,-3 38,-6 53,-8 15,-2 29,-3 40,-2 12,0 22,2 31,5 10,4 19,9 28,17 l -5,-33 c -1,-13 -4,-22 -9,-28 -4,-5 -12,-9 -22,-11 -10,-2 -25,-2 -43,0 -17,3 -40,5 -68,9 -24,3 -40,7 -48,11 -9,4 -13,12 -12,24 l -130,18 c -2,-22 1,-39 10,-53 8,-14 23,-26 44,-35 21,-10 48,-18 82,-24 35,-7 76,-13 125,-20 33,-4 62,-7 86,-7 24,0 44,3 61,8 16,6 29,16 38,29 9,12 15,30 18,51 l 29,208 -133,19 -7,-51 z M 808,7403 467,7805 272,7778 68,7301 l 168,23 151,360 251,-304 170,23 z m 123,176 -69,304 -129,-29 69,-304 129,29 z m 29,-130 -19,83 -128,-29 19,-83 128,29 z m 142,251 c 7,-9 16,-17 25,-23 9,-6 20,-10 32,-12 12,-2 25,-2 41,1 15,2 34,7 55,14 33,11 57,22 73,34 17,12 27,25 32,39 5,15 6,31 2,48 -3,18 -9,38 -16,60 l -117,-40 c 2,-8 4,-16 5,-23 1,-7 0,-13 -2,-19 -3,-6 -9,-11 -17,-17 -9,-5 -22,-11 -40,-17 -53,-18 -87,-4 -102,42 l -51,149 -125,-42 100,-295 125,43 -20,58 z m 582,318 4,-8 c 5,-10 8,-18 7,-25 -1,-7 -4,-14 -10,-20 -6,-7 -15,-13 -26,-20 -11,-7 -24,-14 -40,-23 -17,-9 -32,-16 -45,-22 -13,-6 -25,-10 -35,-12 -10,-2 -19,-1 -26,2 -7,3 -14,9 -19,19 l -4,7 194,102 z m -227,-38 c -5,10 -8,19 -9,27 0,7 2,15 6,22 5,7 13,15 23,22 11,7 25,15 42,24 22,12 39,21 53,28 14,7 25,11 34,13 9,2 15,2 20,-1 5,-3 10,-8 15,-16 l 115,61 c -10,18 -21,32 -34,41 -13,9 -29,13 -47,13 -18,0 -39,-4 -63,-13 -23,-8 -51,-21 -82,-37 -45,-24 -83,-45 -113,-64 -31,-19 -53,-38 -69,-58 -15,-19 -23,-40 -22,-63 0,-22 8,-49 24,-80 19,-36 37,-63 55,-80 18,-17 38,-25 61,-26 24,-1 51,6 83,20 32,13 72,33 120,58 36,19 66,37 89,53 23,17 38,34 47,52 6,14 9,27 9,39 0,12 -2,24 -6,36 -4,12 -9,25 -16,38 -7,12 -14,26 -21,42 l -308,-162 -6,11 z m 507,307 c -28,-19 -53,-37 -74,-53 -21,-16 -38,-31 -50,-46 -11,-16 -17,-31 -18,-48 0,-16 7,-34 21,-55 9,-13 20,-24 34,-31 13,-7 27,-10 41,-10 18,1 42,10 73,27 31,17 70,41 117,74 34,23 62,44 84,61 22,17 38,33 49,48 10,15 16,30 15,44 0,14 -6,31 -17,49 l -113,-79 c 1,-4 2,-9 1,-13 -1,-5 -4,-10 -9,-15 -5,-5 -12,-12 -22,-19 -9,-7 -21,-15 -34,-25 -15,-9 -27,-18 -38,-25 -12,-8 -21,-13 -30,-17 -8,-4 -16,-6 -22,-5 -6,0 -11,3 -15,9 -4,5 -5,10 -3,15 1,4 5,9 11,15 6,6 15,13 26,20 10,8 24,17 39,27 7,5 14,10 21,15 8,5 15,10 21,14 29,20 53,38 74,54 20,15 35,31 45,45 9,15 14,30 13,44 0,15 -7,31 -19,49 -13,19 -28,33 -42,41 -15,8 -32,9 -53,5 -21,-4 -46,-15 -74,-32 -29,-16 -64,-39 -106,-68 -33,-22 -60,-43 -84,-60 -23,-18 -41,-35 -54,-52 -12,-17 -19,-33 -19,-50 -1,-18 6,-37 20,-58 l 113,79 c -4,6 -6,12 -5,17 0,6 4,12 9,19 6,7 15,14 25,22 11,8 24,17 40,28 18,13 33,23 45,31 13,9 24,15 33,19 8,3 16,5 22,4 6,-1 11,-5 15,-11 6,-9 6,-18 -1,-26 -8,-8 -21,-19 -41,-33 l -64,-44 z"
       id="path4184"
       inkscape:connector-curvature="0"
       style="fill:#e2001a;fill-rule:nonzero" /></g></svg>