<?xml version="1.0" encoding="UTF-8" standalone="no"?>
<!-- Creator: CorelDRAW X7 -->

<svg
   xmlns:dc="http://purl.org/dc/elements/1.1/"
   xmlns:cc="http://creativecommons.org/ns#"
   xmlns:rdf="http://www.w3.org/1999/02/22-rdf-syntax-ns#"
   xmlns:svg="http://www.w3.org/2000/svg"
   xmlns="http://www.w3.org/2000/svg"
   xmlns:sodipodi="http://sodipodi.sourceforge.net/DTD/sodipodi-0.dtd"
   xmlns:inkscape="http://www.inkscape.org/namespaces/inkscape"
   xml:space="preserve"
   width="7.8740005in"
   height="7.8740005in"
   version="1.1"
   style="clip-rule:evenodd;fill-rule:evenodd;image-rendering:optimizeQuality;shape-rendering:geometricPrecision;text-rendering:geometricPrecision"
   viewBox="0 0 7874.0005 7874.0005"
   id="svg3546"
   inkscape:version="0.91 r13725"
   sodipodi:docname="PanOceania - Armbots Peacemakers - [N3] [Vyo].svg"><metadata
     id="metadata3593"><rdf:RDF><cc:Work
         rdf:about=""><dc:format>image/svg+xml</dc:format><dc:type
           rdf:resource="http://purl.org/dc/dcmitype/StillImage" /></cc:Work></rdf:RDF></metadata><sodipodi:namedview
     pagecolor="#ffffff"
     bordercolor="#666666"
     borderopacity="1"
     objecttolerance="10"
     gridtolerance="10"
     guidetolerance="10"
     inkscape:pageopacity="0"
     inkscape:pageshadow="2"
     inkscape:window-width="640"
     inkscape:window-height="480"
     id="namedview3591"
     showgrid="false"
     inkscape:zoom="0.23838384"
     inkscape:cx="736.83001"
     inkscape:cy="849.33005"
     inkscape:window-x="0"
     inkscape:window-y="0"
     inkscape:window-maximized="0"
     inkscape:current-layer="svg3546" /><defs
     id="defs3548"><style
       type="text/css"
       id="style3550"><![CDATA[
    .fil0 {fill:#00C0FF}
    .fil1 {fill:white}
    .fil2 {fill:white;fill-rule:nonzero}
   ]]></style></defs><g
     id="Layer_x0020_1"
     transform="translate(3937,-7063)"><metadata
       id="CorelCorpID_0Corel-Layer" /><circle
       class="fil0"
       cy="11000"
       r="3937"
       id="circle3554"
       cx="0"
       style="fill:#00c0ff" /><polygon
       class="fil1"
       points="0,14268 -2830,12634 -2830,9366 0,7732 2830,9366 2830,12634 "
       id="polygon3556"
       style="fill:#ffffff" /><g
       id="_915379776"><path
         class="fil0"
         d="m -588,7855 -16,-28 428,-247 99,172 -120,69 121,209 -188,109 -121,-210 -68,40 35,60 c 14,23 24,49 28,76 4,27 0,53 -11,77 -10,22 -25,41 -43,57 -18,16 -39,30 -60,42 l -137,80 c -21,12 -44,23 -67,30 -23,8 -46,11 -70,9 -18,-1 -34,-6 -50,-14 1,18 -2,36 -10,53 -8,17 -20,32 -34,45 -13,12 -28,22 -43,31 l -483,279 -33,-57 1,75 -124,71 -64,-38 32,57 -348,201 -42,-72 -67,38 42,73 -312,180 -55,-34 -111,64 3,64 -213,122 -13,-500 172,-99 248,151 -127,-221 309,-178 c 19,-11 41,-21 63,-25 21,-4 43,-3 64,4 3,1 6,2 8,3 l -26,-45 213,-123 137,84 -5,-160 485,-280 c 35,-21 78,-39 120,-36 24,2 44,10 61,23 -1,-22 3,-43 12,-63 10,-23 25,-42 44,-58 18,-16 38,-29 59,-42 l 137,-79 c 21,-12 44,-23 67,-31 23,-7 46,-11 70,-9 1,0 2,1 3,1 z m -137,322 104,-60 c -1,-2 -2,-4 -2,-5 l -18,-30 c 0,-1 -1,-3 -2,-4 -1,0 -2,0 -3,1 l -100,58 c 0,0 -1,0 -2,1 1,2 2,3 3,5 l 17,30 c 1,1 2,3 3,4 z"
         id="path3559"
         inkscape:connector-curvature="0"
         style="fill:#00c0ff" /></g><path
       class="fil2"
       d="m -2632,9438 95,-55 -4,-64 174,-100 55,34 95,-55 -314,-190 -111,64 10,366 z m 82,-333 116,73 -109,63 -7,-136 z"
       id="path3561"
       inkscape:connector-curvature="0"
       style="fill:#ffffff;fill-rule:nonzero" /><path
       id="1"
       class="fil2"
       d="m -2203,8911 134,-77 c 14,-9 25,-13 33,-12 8,0 16,6 23,18 l 5,9 c 6,11 8,20 6,27 -3,7 -9,14 -21,21 l -141,81 -39,-67 z m 36,258 85,-49 -42,-72 134,-78 c 14,-7 25,-10 33,-7 8,3 16,11 25,26 l 19,33 86,-49 -28,-47 c -6,-11 -13,-20 -19,-26 -7,-6 -14,-10 -21,-12 -6,-2 -13,-3 -20,-2 -7,0 -14,2 -22,5 l 0,-1 c 16,-15 24,-30 25,-44 0,-15 -5,-32 -17,-52 l -10,-18 c -8,-13 -16,-23 -24,-32 -9,-8 -18,-14 -29,-18 -10,-3 -22,-4 -35,-2 -13,3 -27,9 -44,18 l -257,149 161,278 z"
       inkscape:connector-curvature="0"
       style="fill:#ffffff;fill-rule:nonzero" /><polygon
       id="2"
       class="fil2"
       points="-1781,8680 -1553,8815 -1490,8778 -1493,8513 -1492,8513 -1377,8713 -1294,8665 -1455,8386 -1586,8462 -1579,8697 -1779,8574 -1910,8649 -1749,8928 -1666,8880 -1782,8680 "
       style="fill:#ffffff;fill-rule:nonzero" /><path
       id="3"
       class="fil2"
       d="m -1217,8621 272,-157 c 13,-8 24,-16 33,-24 9,-8 16,-17 20,-26 5,-10 6,-21 5,-33 -2,-12 -7,-25 -16,-40 -12,-22 -25,-35 -39,-41 -13,-6 -30,-5 -50,4 l -1,-2 c 6,-6 11,-11 14,-16 3,-6 5,-12 6,-18 1,-7 1,-14 -2,-23 -2,-9 -7,-19 -13,-30 -16,-27 -35,-41 -57,-43 -23,-2 -52,8 -87,28 l -246,142 161,279 z m 22,-160 153,-88 c 10,-6 19,-9 26,-9 7,1 13,5 18,14 4,7 5,14 1,20 -3,6 -10,12 -20,18 l -153,88 -25,-43 z m -59,-101 152,-88 c 8,-4 15,-6 21,-5 7,1 12,5 16,13 5,8 6,14 4,20 -3,6 -8,11 -16,16 l -151,87 -26,-43 z"
       inkscape:connector-curvature="0"
       style="fill:#ffffff;fill-rule:nonzero" /><path
       id="4"
       class="fil2"
       d="m -852,8279 c 12,20 24,36 37,46 13,10 27,15 42,17 15,1 30,-1 47,-7 16,-5 35,-14 55,-26 l 137,-79 c 21,-11 37,-23 50,-35 13,-11 23,-24 29,-37 6,-14 8,-29 6,-45 -2,-16 -9,-34 -21,-54 l -48,-83 c -11,-20 -23,-35 -36,-46 -13,-10 -27,-15 -42,-17 -15,-1 -30,1 -47,7 -16,5 -35,14 -55,26 l -137,79 c -21,11 -38,23 -51,35 -13,11 -22,23 -28,37 -6,13 -8,28 -6,45 2,16 9,34 20,54 l 48,83 z m 55,-107 c -11,-19 -15,-35 -13,-48 2,-14 13,-26 34,-38 l 100,-58 c 22,-12 38,-16 51,-11 13,5 24,17 35,36 l 18,30 c 12,21 17,37 15,49 -2,12 -13,24 -32,35 l -109,63 c -20,11 -35,15 -46,10 -12,-4 -23,-17 -36,-38 l -17,-30 z"
       inkscape:connector-curvature="0"
       style="fill:#ffffff;fill-rule:nonzero" /><polygon
       id="5"
       class="fil2"
       points="-157,8009 -278,7799 -158,7730 -198,7661 -523,7849 -483,7918 -363,7849 -242,8058 "
       style="fill:#ffffff;fill-rule:nonzero" /><g
       id="_915366272"><path
         class="fil0"
         d="m 2592,12412 267,-154 c 17,-11 36,-19 56,-23 21,-5 42,-4 63,2 21,7 38,19 53,35 14,14 26,31 36,49 9,16 18,34 24,53 4,11 6,22 6,34 5,3 9,6 13,9 13,12 24,27 33,43 l 58,100 -174,100 -40,-70 -46,26 41,70 -568,329 -108,-29 39,68 -265,153 -51,-37 -84,49 6,63 -261,150 -23,-39 3,51 -120,69 -39,-26 21,36 -473,274 -5,-9 c -6,7 -13,13 -20,19 -14,10 -28,21 -43,31 -13,8 -26,17 -39,24 -36,21 -72,40 -108,58 -3,1 -6,2 -8,3 l 1,2 -191,110 -50,-37 -84,49 5,62 -450,260 -45,-78 c -2,3 -5,6 -7,9 -16,16 -34,29 -54,40 -3,2 -6,4 -10,6 -1,0 -2,1 -3,2 l -59,34 39,68 -173,100 -217,-376 239,-138 c 18,-10 36,-19 55,-26 8,-3 16,-4 24,-6 l -6,-10 361,-208 92,158 -17,-201 161,-93 150,105 c -5,-9 -10,-20 -14,-30 -5,-14 -9,-28 -12,-43 -2,-17 -2,-33 2,-50 3,-18 11,-35 21,-49 10,-14 21,-25 34,-36 12,-10 26,-19 40,-27 15,-10 30,-19 45,-28 25,-14 50,-28 76,-40 19,-10 39,-17 60,-19 l -6,-12 500,-288 116,81 -12,-141 195,-113 95,164 -17,-209 160,-93 171,120 -94,-164 172,-99 36,63 23,-97 404,-233 z m -221,319 -17,64 62,14 -45,-78 z m -2068,1220 -10,6 13,21 -3,-27 z m 532,-303 c -7,4 -14,8 -21,12 -11,6 -21,12 -31,19 1,3 3,6 5,9 5,10 11,20 18,30 10,-5 20,-11 29,-16 8,-5 16,-10 24,-14 l -4,-9 0,0 -20,-31 z"
         id="path3569"
         inkscape:connector-curvature="0"
         style="fill:#00c0ff" /></g><path
       class="fil2"
       d="m -230,14294 108,-63 c 12,-6 18,-13 20,-21 2,-8 -2,-18 -9,-32 -8,-13 -16,-21 -23,-25 -8,-3 -17,-2 -30,5 l -108,63 42,73 z m 6,175 -158,-273 189,-109 c 16,-9 31,-16 44,-21 14,-4 27,-5 40,-1 13,4 25,12 35,24 11,11 21,27 32,45 12,21 20,38 25,53 5,15 7,28 5,40 -2,12 -7,23 -17,33 -9,9 -22,19 -39,29 -3,2 -5,3 -7,4 -2,1 -4,2 -7,4 l -110,63 39,68 -71,41 z"
       id="path3571"
       inkscape:connector-curvature="0"
       style="fill:#ffffff;fill-rule:nonzero" /><polygon
       id="polygon3573"
       class="fil2"
       points="225,13928 36,14037 64,14084 240,13983 271,14037 95,14138 123,14187 312,14078 347,14139 88,14289 -69,14016 190,13867 "
       style="fill:#ffffff;fill-rule:nonzero" /><path
       id="path3575"
       class="fil2"
       d="m 541,13886 -112,-79 13,137 99,-58 z m 58,42 -150,86 6,63 -79,45 -28,-347 96,-55 284,200 -78,45 -51,-37 z"
       inkscape:connector-curvature="0"
       style="fill:#ffffff;fill-rule:nonzero" /><path
       id="path3577"
       class="fil2"
       d="m 875,13599 c -5,-8 -10,-14 -14,-17 -5,-4 -10,-5 -16,-4 -7,1 -14,5 -24,10 -9,5 -22,12 -37,21 -17,10 -31,18 -42,25 -10,7 -17,13 -21,20 -4,7 -5,16 -2,25 2,10 8,22 18,38 11,20 21,36 28,46 8,11 15,17 24,19 8,3 18,1 29,-4 12,-6 27,-14 47,-25 14,-9 26,-16 36,-21 10,-6 17,-11 21,-17 5,-5 7,-11 6,-18 -1,-7 -4,-16 -10,-26 l 70,-40 c 1,2 2,4 3,5 1,2 2,4 4,6 8,14 14,27 19,38 4,12 7,22 7,32 1,9 -1,18 -4,26 -4,8 -10,15 -19,22 -14,10 -27,20 -40,29 -13,8 -25,16 -36,22 -36,21 -71,40 -104,55 -13,7 -25,10 -37,9 -11,0 -23,-4 -34,-12 -12,-7 -23,-18 -35,-33 -11,-14 -24,-32 -36,-54 -8,-14 -16,-27 -22,-39 -6,-11 -12,-23 -16,-33 -4,-11 -7,-21 -8,-31 -2,-10 -1,-19 1,-29 2,-10 5,-19 11,-27 6,-8 14,-16 23,-24 9,-7 21,-15 34,-23 13,-8 27,-17 44,-27 28,-16 52,-29 71,-38 20,-9 36,-14 51,-14 14,0 27,6 39,17 12,11 25,28 39,52 l -68,39 z"
       inkscape:connector-curvature="0"
       style="fill:#ffffff;fill-rule:nonzero" /><polygon
       id="polygon3579"
       class="fil2"
       points="1217,13355 1029,13464 1056,13511 1232,13410 1264,13464 1087,13565 1115,13614 1304,13505 1340,13566 1081,13716 923,13443 1182,13294 "
       style="fill:#ffffff;fill-rule:nonzero" /><polygon
       id="polygon3581"
       class="fil2"
       points="1591,13144 1609,13411 1552,13444 1332,13294 1452,13502 1385,13540 1227,13268 1340,13203 1529,13334 1509,13105 1621,13040 1778,13313 1711,13352 "
       style="fill:#ffffff;fill-rule:nonzero" /><path
       id="6"
       class="fil2"
       d="m 1975,13058 -112,-79 12,137 100,-58 z m 58,42 -150,87 6,62 -79,46 -28,-348 95,-55 284,200 -77,45 -51,-37 z"
       inkscape:connector-curvature="0"
       style="fill:#ffffff;fill-rule:nonzero" /><polygon
       id="7"
       class="fil2"
       points="2239,12683 2337,12627 2282,12839 2509,12891 2405,12951 2241,12907 2205,12928 2265,13032 2195,13073 2037,12800 2107,12759 2167,12862 2203,12841 "
       style="fill:#ffffff;fill-rule:nonzero" /><polygon
       id="8"
       class="fil2"
       points="2662,12521 2473,12630 2501,12677 2677,12575 2708,12629 2532,12731 2560,12780 2749,12671 2784,12732 2526,12882 2368,12609 2627,12459 "
       style="fill:#ffffff;fill-rule:nonzero" /><path
       id="9"
       class="fil2"
       d="m 2822,12528 106,-61 c 2,-1 4,-2 5,-2 1,-1 3,-2 5,-3 8,-5 14,-9 18,-13 5,-4 7,-8 8,-12 1,-4 0,-9 -2,-14 -3,-6 -6,-12 -10,-20 -5,-7 -9,-12 -12,-16 -4,-3 -8,-5 -12,-6 -5,-1 -10,0 -15,3 -5,2 -12,6 -20,10 l -111,64 40,70 z m 39,66 40,71 -71,41 -158,-273 216,-124 c 14,-9 28,-14 39,-17 12,-2 23,-2 33,1 10,4 19,10 28,19 9,10 18,22 27,38 10,17 16,30 20,41 3,11 4,20 3,28 -1,8 -4,15 -9,21 -5,7 -10,14 -16,21 7,-2 14,-4 21,-6 6,-3 12,-3 19,-2 6,1 12,4 19,9 6,6 13,15 20,27 l 28,49 -71,41 -21,-36 c -6,-11 -13,-19 -21,-22 -7,-3 -17,-1 -29,6 l -117,67 z"
       inkscape:connector-curvature="0"
       style="fill:#ffffff;fill-rule:nonzero" /><path
       class="fil0"
       d="m 1134,9418 c 331,648 539,1575 539,2606 0,327 -21,645 -60,946 1,-53 1,-106 1,-159 0,-762 -89,-1473 -242,-2076 4,74 6,150 6,226 0,1304 -617,2362 -1378,2362 -761,0 -1378,-1058 -1378,-2362 0,-76 2,-152 6,-226 -153,603 -242,1314 -242,2076 0,53 0,106 1,159 -39,-301 -60,-619 -60,-946 0,-1031 208,-1958 539,-2606 -81,312 -126,661 -126,1031 0,1304 564,2362 1260,2362 696,0 1260,-1058 1260,-2362 0,-370 -45,-719 -126,-1031 z"
       id="path3587"
       inkscape:connector-curvature="0"
       style="fill:#00c0ff" /><path
       class="fil0"
       d="m 0,8677 c 631,0 1142,864 1142,1929 0,1066 -511,1929 -1142,1929 -631,0 -1142,-863 -1142,-1929 0,-1065 511,-1929 1142,-1929 z m 0,197 c 435,0 787,635 787,1417 0,783 -352,1418 -787,1418 -435,0 -787,-635 -787,-1418 0,-782 352,-1417 787,-1417 z"
       id="path3589"
       inkscape:connector-curvature="0"
       style="fill:#00c0ff" /></g></svg>