<?xml version="1.0" encoding="UTF-8" standalone="no"?>
<!-- Creator: CorelDRAW X7 -->

<svg
   xmlns:dc="http://purl.org/dc/elements/1.1/"
   xmlns:cc="http://creativecommons.org/ns#"
   xmlns:rdf="http://www.w3.org/1999/02/22-rdf-syntax-ns#"
   xmlns:svg="http://www.w3.org/2000/svg"
   xmlns="http://www.w3.org/2000/svg"
   xmlns:sodipodi="http://sodipodi.sourceforge.net/DTD/sodipodi-0.dtd"
   xmlns:inkscape="http://www.inkscape.org/namespaces/inkscape"
   xml:space="preserve"
   width="7.8740005in"
   height="7.8740005in"
   version="1.1"
   style="clip-rule:evenodd;fill-rule:evenodd;image-rendering:optimizeQuality;shape-rendering:geometricPrecision;text-rendering:geometricPrecision"
   viewBox="0 0 7874.0005 7874.0005"
   id="svg4617"
   inkscape:version="0.91 r13725"
   sodipodi:docname="PanOceania - Mulebots - [N3] [Vyo].svg"><metadata
     id="metadata4637"><rdf:RDF><cc:Work
         rdf:about=""><dc:format>image/svg+xml</dc:format><dc:type
           rdf:resource="http://purl.org/dc/dcmitype/StillImage" /></cc:Work></rdf:RDF></metadata><sodipodi:namedview
     pagecolor="#ffffff"
     bordercolor="#666666"
     borderopacity="1"
     objecttolerance="10"
     gridtolerance="10"
     guidetolerance="10"
     inkscape:pageopacity="0"
     inkscape:pageshadow="2"
     inkscape:window-width="640"
     inkscape:window-height="480"
     id="namedview4635"
     showgrid="false"
     inkscape:zoom="0.23838384"
     inkscape:cx="736.83001"
     inkscape:cy="849.33005"
     inkscape:window-x="0"
     inkscape:window-y="0"
     inkscape:window-maximized="0"
     inkscape:current-layer="svg4617" /><defs
     id="defs4619"><style
       type="text/css"
       id="style4621"><![CDATA[
    .fil0 {fill:#00C0FF}
    .fil1 {fill:white}
   ]]></style></defs><g
     id="Layer_x0020_1"
     transform="translate(3937,-7063)"><metadata
       id="CorelCorpID_0Corel-Layer" /><circle
       class="fil0"
       cy="11000"
       r="3937"
       id="circle4625"
       cx="0"
       style="fill:#00c0ff" /><polygon
       class="fil1"
       points="0,14268 -2830,12634 -2830,9366 0,7732 2830,9366 2830,12634 "
       id="polygon4627"
       style="fill:#ffffff" /><path
       class="fil0"
       d="m 487,13312 c 1071,-224 1875,-1174 1875,-2312 0,-313 -61,-611 -171,-884 -200,50 -383,144 -548,268 132,255 207,545 207,852 0,899 -640,1647 -1489,1815 l -1,8 127,253 z M 1912,9613 C 1558,9126 1023,8780 406,8673 l -36,750 c 349,71 663,240 910,477 186,-125 396,-223 632,-287 z M -406,8673 c -617,107 -1152,453 -1506,940 236,64 446,162 632,287 247,-237 561,-406 910,-477 l -36,-750 z m -1785,1443 c -110,273 -171,571 -171,884 0,1138 804,2088 1875,2312 l 127,-253 -1,-8 c -849,-168 -1489,-916 -1489,-1815 0,-307 75,-597 207,-852 -165,-124 -348,-218 -548,-268 z"
       id="path4629"
       inkscape:connector-curvature="0"
       style="fill:#00c0ff" /><path
       class="fil0"
       d="m -1983,9716 c 1288,325 1709,1674 1786,2623 l 40,964 -60,0 c -135,-1670 -923,-3033 -1927,-3297 47,-100 101,-197 161,-290 z m 3966,0 C 695,10041 274,11390 197,12339 l -40,964 60,0 c 135,-1670 923,-3033 1927,-3297 -47,-100 -101,-197 -161,-290 z"
       id="path4631"
       inkscape:connector-curvature="0"
       style="fill:#00c0ff" /><polygon
       class="fil0"
       points="-39,13854 -295,8520 295,8520 39,13854 "
       id="polygon4633"
       style="fill:#00c0ff" /></g></svg>