<?xml version="1.0" encoding="UTF-8" standalone="no"?>
<!-- Creator: CorelDRAW X7 -->

<svg
   xmlns:dc="http://purl.org/dc/elements/1.1/"
   xmlns:cc="http://creativecommons.org/ns#"
   xmlns:rdf="http://www.w3.org/1999/02/22-rdf-syntax-ns#"
   xmlns:svg="http://www.w3.org/2000/svg"
   xmlns="http://www.w3.org/2000/svg"
   xmlns:sodipodi="http://sodipodi.sourceforge.net/DTD/sodipodi-0.dtd"
   xmlns:inkscape="http://www.inkscape.org/namespaces/inkscape"
   xml:space="preserve"
   width="7.8740005in"
   height="7.8740005in"
   version="1.1"
   style="clip-rule:evenodd;fill-rule:evenodd;image-rendering:optimizeQuality;shape-rendering:geometricPrecision;text-rendering:geometricPrecision"
   viewBox="0 0 7874.0005 7874.0005"
   id="svg3595"
   inkscape:version="0.91 r13725"
   sodipodi:docname="PanOceania - Auxilia - [N3] [Vyo].svg"><metadata
     id="metadata3643"><rdf:RDF><cc:Work
         rdf:about=""><dc:format>image/svg+xml</dc:format><dc:type
           rdf:resource="http://purl.org/dc/dcmitype/StillImage" /></cc:Work></rdf:RDF></metadata><sodipodi:namedview
     pagecolor="#ffffff"
     bordercolor="#666666"
     borderopacity="1"
     objecttolerance="10"
     gridtolerance="10"
     guidetolerance="10"
     inkscape:pageopacity="0"
     inkscape:pageshadow="2"
     inkscape:window-width="640"
     inkscape:window-height="480"
     id="namedview3641"
     showgrid="false"
     inkscape:zoom="0.23838384"
     inkscape:cx="736.83001"
     inkscape:cy="849.33005"
     inkscape:window-x="0"
     inkscape:window-y="0"
     inkscape:window-maximized="0"
     inkscape:current-layer="svg3595" /><defs
     id="defs3597"><style
       type="text/css"
       id="style3599"><![CDATA[
    .fil5 {fill:none}
    .fil1 {fill:#00CCFF}
    .fil3 {fill:red}
    .fil2 {fill:white}
    .fil0 {fill:white}
    .fil4 {fill:red;fill-rule:nonzero}
   ]]></style></defs><g
     id="Layer_x0020_1"
     transform="translate(3937,-7063)"><metadata
       id="CorelCorpID_0Corel-Layer" /><circle
       class="fil0"
       cy="11000"
       r="3937"
       id="circle3603"
       cx="0"
       style="fill:#ffffff" /><circle
       class="fil1"
       cy="11000"
       r="3425"
       id="circle3605"
       cx="0"
       style="fill:#00ccff" /><path
       class="fil2"
       d="m 831,10016 c 114,59 193,178 193,315 l 0,354 c 0,151 124,276 275,276 l 355,0 c 195,0 354,159 354,354 l 0,354 c 0,195 -159,355 -354,355 l -355,0 c -137,0 -256,-79 -315,-193 -59,114 -178,193 -315,193 l -354,0 c -151,0 -276,124 -276,275 l 0,355 c 0,195 -159,354 -354,354 l -354,0 c -195,0 -355,-159 -355,-354 l 0,-355 c 0,-137 79,-256 193,-315 -114,-59 -193,-178 -193,-315 l 0,-354 c 0,-151 -124,-276 -275,-276 l -355,0 c -195,0 -354,-159 -354,-354 l 0,-354 c 0,-195 159,-355 354,-355 l 355,0 c 137,0 256,79 315,193 59,-114 178,-193 315,-193 l 354,0 c 151,0 276,-124 276,-275 l 0,-355 c 0,-195 159,-354 354,-354 l 354,0 c 195,0 355,159 355,354 l 0,355 c 0,137 -79,256 -193,315 z"
       id="path3607"
       inkscape:connector-curvature="0"
       style="fill:#ffffff" /><g
       id="_1138342016"><path
         class="fil3"
         d="m 315,9071 354,0 c 152,0 276,124 276,275 l 0,355 c 0,151 -124,275 -276,275 l -354,0 c -195,0 -354,160 -354,355 l 0,354 c 0,152 -124,276 -276,276 l -354,0 c -152,0 -276,-124 -276,-276 l 0,-354 c 0,-152 124,-276 276,-276 l 354,0 c 195,0 354,-159 354,-354 l 0,-355 c 0,-151 124,-275 276,-275 z"
         id="path3610"
         inkscape:connector-curvature="0"
         style="fill:#ff0000" /><path
         class="fil3"
         d="m 315,11039 354,0 c 152,0 276,124 276,276 l 0,354 c 0,152 -124,276 -276,276 l -354,0 c -195,0 -354,159 -354,354 l 0,355 c 0,151 -124,275 -276,275 l -354,0 c -152,0 -276,-124 -276,-275 l 0,-355 c 0,-151 124,-275 276,-275 l 354,0 c 195,0 354,-160 354,-355 l 0,-354 c 0,-152 124,-276 276,-276 z"
         id="path3612"
         inkscape:connector-curvature="0"
         style="fill:#ff0000" /><path
         class="fil3"
         d="m -1299,10055 c 151,0 275,124 275,276 l 0,354 c 0,195 160,354 355,354 l 354,0 c 195,0 354,-159 354,-354 l 0,-354 c 0,-152 124,-276 276,-276 l 354,0 c 152,0 276,124 276,276 l 0,354 c 0,195 159,354 354,354 l 355,0 c 151,0 275,124 275,276 l 0,354 c 0,152 -124,276 -275,276 l -355,0 c -151,0 -275,-124 -275,-276 l 0,-354 c 0,-195 -160,-354 -355,-354 l -354,0 c -195,0 -354,159 -354,354 l 0,354 c 0,152 -124,276 -276,276 l -354,0 c -152,0 -276,-124 -276,-276 l 0,-354 c 0,-195 -159,-354 -354,-354 l -355,0 c -151,0 -275,-124 -275,-276 l 0,-354 c 0,-152 124,-276 275,-276 l 355,0 z"
         id="path3614"
         inkscape:connector-curvature="0"
         style="fill:#ff0000" /></g><g
       id="_1138326720"><path
         class="fil2"
         d="m 2512,8550 70,-61 138,157 -8,7 c 32,13 60,38 87,69 37,41 70,94 60,152 l 0,1 c -10,47 -42,81 -77,111 l -48,43 -138,-157 33,-28 c 3,-3 12,-12 14,-16 -1,-8 -12,-22 -17,-27 -7,-8 -22,-21 -34,-21 -18,2 -46,29 -59,40 l -144,127 -143,-163 32,-28 c 0,0 -1,0 -2,0 -34,-1 -63,-12 -92,-30 -42,-25 -83,-61 -121,-93 -37,-33 -79,-69 -111,-107 -21,-26 -37,-53 -43,-87 -2,-8 -3,-16 -3,-25 -1,1 -2,1 -4,2 l 0,0 -1,0 c -71,23 -139,-17 -197,-54 -52,-33 -111,-71 -126,-135 -10,-41 2,-73 22,-109 10,-18 22,-35 33,-52 l 36,-57 -14,-9 -127,244 -192,-100 45,-87 c -35,28 -81,41 -130,35 -30,-4 -59,-11 -88,-19 -44,-12 -88,-27 -132,-42 -39,-13 -79,-27 -118,-43 -28,-11 -56,-23 -82,-37 -38,-21 -71,-46 -89,-86 -25,-53 -12,-106 3,-159 9,-36 22,-71 33,-106 l 90,-264 224,76 -90,263 c -6,21 -13,41 -19,62 -2,7 -4,14 -6,22 0,3 -1,6 -1,9 0,1 -1,5 0,6 1,4 16,13 19,14 31,17 70,29 103,40 14,5 112,39 126,32 9,-5 20,-35 23,-42 7,-17 13,-35 19,-53 l 90,-263 224,76 -90,264 c -2,7 -5,14 -7,21 l 130,-249 192,101 -67,127 27,17 46,-71 182,117 -46,71 184,118 -53,82 c 24,-14 51,-22 83,-19 33,2 62,16 90,33 40,25 80,59 116,90 36,31 75,65 106,101 21,25 39,52 46,84 7,32 4,60 -7,85 z m -498,-320 -163,-104 -36,57 c -4,6 -14,20 -18,28 4,3 10,7 12,8 3,2 9,6 13,8 3,-4 7,-9 8,-11 l 29,-46 133,85 c 1,-1 2,-2 4,-4 6,-7 12,-14 18,-21 z m -1900,-760 11,-83 72,10 11,-84 215,29 -12,84 216,30 -24,175 -216,-29 -9,67 c -1,7 -4,24 -4,33 5,1 11,2 14,3 4,0 10,1 16,1 1,-4 2,-10 2,-13 l 7,-54 204,28 -6,40 c -9,53 -16,97 -55,136 l -1,1 0,0 c -55,51 -133,44 -202,34 -61,-8 -130,-17 -171,-69 -26,-33 -29,-67 -26,-109 2,-20 5,-40 8,-60 l 9,-67 -29,-4 c 1,16 2,32 2,48 0,12 0,23 0,35 l 1,0 -2,32 -1,10 0,0 0,1 c -3,35 -11,70 -33,98 -25,31 -61,46 -99,55 -52,12 -110,13 -162,14 -67,1 -159,2 -215,-39 -62,-44 -64,-118 -66,-188 -1,-72 0,-149 64,-196 26,-19 54,-28 85,-34 45,-7 93,-8 138,-9 45,-1 94,-2 138,5 31,4 58,13 84,31 15,11 27,24 36,38 z m -1183,203 -26,-112 203,-47 2,10 c 28,-22 63,-35 102,-44 55,-12 117,-17 163,20 l 1,0 c 37,31 51,75 62,120 l 14,63 -203,47 -10,-42 c -1,-4 -4,-17 -7,-21 -7,-2 -25,1 -32,3 -10,2 -29,9 -34,19 -7,17 3,55 7,71 l 43,187 -211,49 -7,-30 c 0,0 0,0 0,0 -17,30 -40,51 -69,69 -42,25 -93,46 -138,64 -46,19 -97,40 -146,51 -33,7 -64,9 -97,-1 -9,-3 -18,-6 -26,-11 0,2 0,3 0,5 l -1,1 0,0 c -8,75 -72,120 -130,158 -52,33 -110,71 -174,59 -42,-9 -67,-32 -91,-66 -12,-16 -23,-33 -34,-50 l -37,-57 -24,15 167,189 -157,138 -7,-8 c -17,37 -48,68 -80,97 -52,45 -111,88 -183,83 -14,-1 -28,-3 -41,-7 -50,-16 -90,-64 -124,-102 l -98,-112 -65,74 289,256 -161,183 -290,-255 -153,173 -158,-140 467,-530 127,112 68,-59 137,155 c 7,9 30,38 43,39 13,0 43,-27 52,-35 11,-9 39,-35 42,-51 0,-1 0,-3 0,-4 -1,-13 -34,-50 -42,-59 l -124,-141 163,-143 10,12 45,-29 -46,-71 182,-118 46,71 183,-119 73,114 c -9,-40 -9,-81 15,-120 18,-28 43,-48 71,-65 41,-25 89,-44 133,-62 44,-18 92,-37 139,-48 31,-8 64,-11 96,-3 36,9 61,29 81,55 z m -522,285 -173,112 37,57 c 4,6 13,21 19,27 4,-2 10,-5 12,-7 3,-2 9,-5 13,-9 -2,-4 -5,-9 -7,-12 l -30,-45 142,-91 c -1,-2 -1,-3 -2,-4 -4,-9 -7,-19 -11,-28 z m 234,-7 c 1,1 2,1 3,1 l 1,0 1,0 c 17,1 58,-15 74,-21 11,-5 64,-26 68,-38 3,-7 -8,-35 -11,-41 -2,-6 -13,-31 -18,-35 -1,0 -3,0 -4,0 l -1,0 -1,0 c -16,-1 -56,14 -71,20 -11,5 -64,26 -69,39 -2,8 8,35 11,42 3,6 12,29 17,33 z m 3485,483 c 0,1 1,2 1,3 l 1,1 0,1 c 7,15 40,45 52,56 9,7 53,45 65,43 8,-1 27,-23 32,-28 4,-5 22,-26 22,-33 0,-1 -1,-2 -1,-3 l -1,-1 0,-1 c -7,-14 -38,-43 -51,-54 -9,-7 -52,-45 -65,-43 -9,1 -28,23 -33,29 -4,5 -20,23 -22,30 z"
         id="path3617"
         inkscape:connector-curvature="0"
         style="fill:#ffffff" /></g><polygon
       class="fil4"
       points="-2431,8940 -2321,8817 -2608,8559 -2454,8387 -2552,8298 -2972,8765 -2873,8854 -2719,8682 "
       id="polygon3619"
       style="fill:#ff0000;fill-rule:nonzero" /><path
       id="1"
       class="fil4"
       d="m -1860,8386 -244,-275 -103,92 98,110 c 46,51 55,69 52,95 -3,22 -19,43 -55,75 -38,34 -58,46 -80,45 -21,-2 -35,-11 -70,-51 l -112,-126 -103,92 112,125 c 67,75 90,91 138,95 47,3 90,-18 154,-75 69,-61 90,-103 74,-152 l 6,-5 36,42 97,-87 z"
       inkscape:connector-curvature="0"
       style="fill:#ff0000;fill-rule:nonzero" /><path
       id="2"
       class="fil4"
       d="m -2033,7979 46,71 -60,39 53,83 61,-39 58,90 c 26,40 26,40 32,49 24,32 41,45 67,50 37,8 72,-5 146,-53 79,-51 108,-85 113,-128 3,-35 -5,-57 -42,-116 l -106,68 8,12 c 24,37 20,51 -17,75 -23,15 -37,18 -51,11 -10,-6 -13,-10 -34,-42 l -59,-91 183,-118 -53,-83 -183,118 -46,-71 -116,75 z"
       inkscape:connector-curvature="0"
       style="fill:#ff0000;fill-rule:nonzero" /><path
       id="3"
       class="fil4"
       d="m -1370,7705 c -115,47 -163,75 -185,111 -23,38 -21,76 12,155 40,99 60,127 103,140 43,14 90,3 216,-48 125,-51 166,-76 187,-115 21,-38 16,-75 -22,-168 -34,-85 -57,-113 -101,-124 -41,-10 -95,2 -210,49 z m 39,96 c 38,-15 70,-24 88,-23 27,0 41,14 59,59 29,72 17,91 -79,130 -42,17 -73,26 -92,24 -25,-1 -37,-14 -55,-58 -30,-73 -17,-93 79,-132 z"
       inkscape:connector-curvature="0"
       style="fill:#ff0000;fill-rule:nonzero" /><path
       id="4"
       class="fil4"
       d="m -1047,7590 82,359 134,-31 -34,-149 c -13,-55 -13,-75 -5,-96 10,-19 32,-34 62,-41 28,-7 51,-5 63,3 10,7 17,19 23,44 l 1,3 0,1 126,-29 -5,-24 c -12,-53 -26,-80 -48,-99 -29,-22 -70,-26 -130,-12 -75,17 -109,43 -124,94 l -6,2 -13,-54 -126,29 z"
       inkscape:connector-curvature="0"
       style="fill:#ff0000;fill-rule:nonzero" /><path
       id="5"
       class="fil4"
       d="m -32,7696 c -5,32 -22,39 -109,40 -49,0 -80,-4 -94,-15 -13,-10 -17,-22 -18,-59 l 360,-5 c 0,-15 0,-32 0,-37 -1,-86 -15,-128 -51,-154 -34,-25 -77,-31 -198,-30 -119,2 -165,10 -201,35 -37,28 -49,65 -48,163 2,94 13,131 49,158 34,24 85,33 191,32 197,-3 247,-28 256,-130 l -137,2 z m -221,-110 c 0,-51 22,-63 115,-64 53,-1 82,4 95,17 8,9 10,16 11,45 l -221,2 z"
       inkscape:connector-curvature="0"
       style="fill:#ff0000;fill-rule:nonzero" /><path
       id="6"
       class="fil4"
       d="m 240,7357 -11,84 -71,-10 -13,98 71,10 -14,106 c -6,47 -6,47 -7,58 -3,40 2,61 18,82 24,29 58,42 145,53 94,13 138,6 170,-24 24,-24 33,-46 43,-115 l -124,-17 -2,15 c -6,43 -18,52 -62,46 -27,-4 -40,-11 -45,-25 -4,-11 -5,-16 1,-55 l 14,-106 215,29 14,-98 -216,-29 11,-84 -137,-18 z"
       inkscape:connector-curvature="0"
       style="fill:#ff0000;fill-rule:nonzero" /><path
       id="7"
       class="fil4"
       d="m 890,7386 -76,226 c -27,83 -27,83 -32,103 -19,69 -20,101 -5,133 24,51 81,82 267,145 112,37 165,52 212,58 60,7 111,-20 138,-73 16,-33 19,-41 59,-152 l 76,-226 -150,-50 -76,226 c -3,11 -13,36 -20,54 -17,42 -24,54 -40,63 -22,12 -56,6 -158,-29 -128,-42 -154,-60 -149,-102 3,-21 4,-22 28,-100 l 76,-226 -150,-50 z"
       inkscape:connector-curvature="0"
       style="fill:#ff0000;fill-rule:nonzero" /><polygon
       id="8"
       class="fil4"
       points="1749,7729 1627,7666 1389,8127 1512,8190 "
       style="fill:#ff0000;fill-rule:nonzero" /><path
       id="9"
       class="fil4"
       d="m 1822,7842 -46,71 -61,-39 -53,83 61,39 -58,91 c -25,40 -25,40 -30,49 -20,35 -25,56 -18,82 8,37 34,63 109,110 80,51 122,63 164,49 32,-12 49,-28 88,-86 l -107,-67 -8,12 c -23,37 -38,39 -75,16 -23,-15 -32,-27 -31,-42 1,-12 4,-16 24,-49 l 58,-91 184,117 53,-83 -184,-117 46,-72 -116,-73 z"
       inkscape:connector-curvature="0"
       style="fill:#ff0000;fill-rule:nonzero" /><path
       id="10"
       class="fil4"
       d="m 2341,8308 c -95,-81 -142,-110 -184,-113 -44,-3 -77,16 -132,81 -69,81 -85,113 -77,156 7,45 38,82 142,170 102,88 143,113 188,113 43,2 74,-20 139,-96 60,-69 74,-102 64,-147 -10,-41 -46,-83 -140,-164 z m -67,79 c 31,26 54,51 61,68 12,23 5,42 -26,79 -51,59 -73,57 -152,-10 -34,-30 -56,-53 -63,-71 -11,-23 -5,-40 26,-76 51,-60 75,-58 154,10 z"
       inkscape:connector-curvature="0"
       style="fill:#ff0000;fill-rule:nonzero" /><path
       id="11"
       class="fil4"
       d="m 2577,8543 -275,245 92,102 113,-101 c 43,-37 61,-48 83,-50 21,-1 45,11 66,34 19,22 28,42 27,57 -1,12 -9,24 -28,41 l -2,2 -1,1 87,97 18,-17 c 41,-36 58,-60 63,-89 6,-36 -10,-74 -51,-120 -51,-57 -90,-75 -142,-63 l -5,-5 41,-37 -86,-97 z"
       inkscape:connector-curvature="0"
       style="fill:#ff0000;fill-rule:nonzero" /><circle
       class="fil5"
       cy="11000"
       r="3740"
       id="circle3632"
       cx="0"
       style="fill:none" /><g
       id="_1138328032"><path
         class="fil2"
         d="m 993,14011 c 3,-11 8,-22 15,-32 14,-21 33,-37 54,-50 24,-16 52,-29 78,-41 l 159,-72 c 46,-21 99,-33 149,-17 50,16 83,55 104,102 l 124,273 -201,91 -2,-5 c -10,10 -21,18 -34,25 -14,9 -30,16 -45,23 l -93,42 c -41,19 -90,35 -135,28 -39,-6 -67,-32 -86,-64 l 27,95 -220,63 -176,-617 219,-63 63,219 z m 42,148 2,8 c 1,-3 2,-7 3,-10 l -5,2 z m -516,-78 59,456 -183,23 11,13 -292,6 -77,-103 -73,107 -235,5 0,1 -5,-1 -52,1 7,-9 -175,-31 2,-13 c -1,0 -3,1 -4,1 -38,8 -80,4 -118,-2 -28,-5 -57,-11 -84,-20 -27,-8 -52,-21 -75,-38 -27,-21 -45,-48 -56,-80 -14,-38 -12,-80 -5,-119 l 46,-263 225,40 -46,263 c -1,2 -1,5 0,7 4,11 42,20 52,21 l 34,6 c 16,3 37,4 52,-4 11,-7 16,-19 18,-31 l 41,-236 175,31 212,-5 57,77 54,-79 207,-5 -22,-171 226,-29 1,3 205,-47 144,625 -222,52 -104,-452 z m -215,116 -105,133 144,170 -39,-303 z m -559,299 123,-159 -79,-92 -44,251 z m -860,-193 -282,-110 -83,74 -264,-103 557,-471 253,99 95,726 -263,-103 -13,-112 z m -38,-323 -73,65 84,33 -11,-98 z m 2541,139 c -13,5 -27,11 -34,14 l -60,28 c -6,2 -19,8 -28,14 11,-3 25,-9 31,-12 l 39,-17 c 17,-8 34,-16 50,-26 1,0 1,0 2,-1 z"
         id="path3635"
         inkscape:connector-curvature="0"
         style="fill:#ffffff" /></g><path
       class="fil4"
       d="m -1668,14152 179,70 84,-74 326,127 13,112 179,70 -83,-637 -209,-82 -489,414 z m 546,-251 27,238 -206,-81 179,-157 z m 887,252 -147,-26 -34,197 c -5,27 -18,47 -38,58 -20,12 -46,15 -78,9 l -33,-6 c -64,-11 -92,-36 -85,-74 l 39,-224 -147,-26 -39,224 c -7,40 -6,73 3,99 9,26 23,47 43,61 19,15 40,26 62,33 23,6 49,12 80,18 42,7 76,8 103,3 26,-6 48,-21 65,-45 l 2,1 -11,62 147,26 68,-390 z m -11,395 189,-4 92,-136 98,132 189,-5 -174,-204 151,-192 -194,4 -73,109 -79,-105 -194,4 160,185 -165,212 z m 729,-439 -148,19 51,394 148,-19 -51,-394 z m -22,-165 -148,19 15,116 148,-19 -15,-116 z m 192,541 145,-33 -127,-549 -145,34 127,548 z m 296,-484 -144,41 109,381 144,-41 -109,-381 z m -46,-160 -143,41 32,112 143,-41 -32,-112 z m 199,432 c 18,39 41,61 70,66 30,4 67,-4 113,-25 l 93,-41 c 17,-8 31,-15 41,-21 11,-7 19,-13 26,-20 6,-7 12,-15 16,-24 5,-9 10,-22 15,-36 l 19,41 129,-59 -107,-237 c -20,-43 -46,-69 -81,-80 -34,-11 -74,-6 -121,15 l -158,71 c -31,14 -56,27 -74,39 -19,12 -33,25 -42,39 -9,13 -14,29 -13,47 1,18 6,39 17,63 l 132,-59 c -5,-13 -5,-22 0,-29 6,-7 19,-15 39,-24 l 80,-36 c 26,-12 45,-16 57,-13 11,3 21,14 29,32 l 14,32 c -18,-7 -37,-8 -59,-2 -22,6 -53,18 -95,37 -39,17 -69,32 -91,44 -22,13 -40,26 -53,40 -13,14 -21,30 -23,47 -2,18 3,39 14,63 l 13,30 z m 212,-74 c -27,12 -46,18 -59,18 -13,0 -22,-6 -28,-18 -7,-16 -7,-29 0,-40 6,-10 23,-22 51,-34 l 60,-27 c 35,-16 59,-24 71,-24 12,1 22,8 28,23 4,7 5,13 5,18 0,6 -3,11 -8,18 -6,6 -15,13 -28,21 -12,8 -30,17 -53,27 l -39,18 z"
       id="path3637"
       inkscape:connector-curvature="0"
       style="fill:#ff0000;fill-rule:nonzero" /><circle
       class="fil5"
       cy="11000"
       r="3780"
       id="circle3639"
       cx="0"
       style="fill:none" /></g></svg>