<?xml version="1.0" encoding="UTF-8" standalone="no"?>
<!-- Creator: CorelDRAW X7 -->

<svg
   xmlns:dc="http://purl.org/dc/elements/1.1/"
   xmlns:cc="http://creativecommons.org/ns#"
   xmlns:rdf="http://www.w3.org/1999/02/22-rdf-syntax-ns#"
   xmlns:svg="http://www.w3.org/2000/svg"
   xmlns="http://www.w3.org/2000/svg"
   xmlns:sodipodi="http://sodipodi.sourceforge.net/DTD/sodipodi-0.dtd"
   xmlns:inkscape="http://www.inkscape.org/namespaces/inkscape"
   xml:space="preserve"
   width="7.8740005in"
   height="7.8740005in"
   version="1.1"
   style="clip-rule:evenodd;fill-rule:evenodd;image-rendering:optimizeQuality;shape-rendering:geometricPrecision;text-rendering:geometricPrecision"
   viewBox="0 0 7874.0005 7874.0005"
   id="svg4359"
   inkscape:version="0.91 r13725"
   sodipodi:docname="PanOceania - Knights of Montesa - [N3] [Vyo].svg"><metadata
     id="metadata4414"><rdf:RDF><cc:Work
         rdf:about=""><dc:format>image/svg+xml</dc:format><dc:type
           rdf:resource="http://purl.org/dc/dcmitype/StillImage" /></cc:Work></rdf:RDF></metadata><sodipodi:namedview
     pagecolor="#ffffff"
     bordercolor="#666666"
     borderopacity="1"
     objecttolerance="10"
     gridtolerance="10"
     guidetolerance="10"
     inkscape:pageopacity="0"
     inkscape:pageshadow="2"
     inkscape:window-width="640"
     inkscape:window-height="480"
     id="namedview4412"
     showgrid="false"
     inkscape:zoom="0.23838384"
     inkscape:cx="736.83001"
     inkscape:cy="849.33005"
     inkscape:window-x="0"
     inkscape:window-y="0"
     inkscape:window-maximized="0"
     inkscape:current-layer="svg4359" /><defs
     id="defs4361"><style
       type="text/css"
       id="style4363"><![CDATA[
    .fil4 {fill:none}
    .fil0 {fill:black}
    .fil1 {fill:#00C0FF}
    .fil3 {fill:#CE0018}
    .fil2 {fill:white}
    .fil5 {fill:white;fill-rule:nonzero}
   ]]></style></defs><g
     id="Layer_x0020_1"
     transform="translate(3937,-7063)"><metadata
       id="CorelCorpID_0Corel-Layer" /><circle
       class="fil0"
       cy="11000"
       r="3937"
       id="circle4367"
       cx="0"
       style="fill:#000000" /><circle
       class="fil1"
       cy="11000"
       r="3858"
       id="circle4369"
       cx="0"
       style="fill:#00c0ff" /><circle
       class="fil0"
       cy="11000"
       r="3071"
       id="circle4371"
       cx="0"
       style="fill:#000000" /><circle
       class="fil2"
       cy="11000"
       r="2992"
       id="circle4373"
       cx="0"
       style="fill:#ffffff" /><path
       class="fil0"
       d="m 315,10685 905,0 c 276,-79 276,-472 -39,-276 197,-748 1142,-236 709,315 354,-157 433,197 787,276 -354,79 -433,433 -787,276 433,551 -512,1063 -709,315 315,196 315,-197 39,-276 l -905,0 0,905 c 79,276 472,276 276,-39 748,197 236,1142 -315,709 157,354 -197,433 -276,787 -79,-354 -433,-433 -276,-787 -551,433 -1063,-512 -315,-709 -196,315 197,315 276,39 l 0,-905 -905,0 c -276,79 -276,472 39,276 -197,748 -1142,236 -709,-315 -354,157 -433,-197 -787,-276 354,-79 433,-433 787,-276 -433,-551 512,-1063 709,-315 -315,-196 -315,197 -39,276 l 905,0 0,-905 c -79,-276 -472,-276 -276,39 -748,-197 -236,-1142 315,-709 -157,-354 197,-433 276,-787 79,354 433,433 276,787 551,-433 1063,512 315,709 196,-315 -197,-315 -276,-39 l 0,905 z"
       id="path4375"
       inkscape:connector-curvature="0"
       style="fill:#000000" /><polygon
       class="fil3"
       points="217,9701 217,10783 1299,10783 1299,11217 217,11217 217,12299 -217,12299 -217,11217 -1299,11217 -1299,10783 -217,10783 -217,9701 "
       id="polygon4377"
       style="fill:#ce0018" /><circle
       class="fil4"
       cy="11000"
       r="3898"
       id="circle4379"
       cx="0"
       style="fill:none" /><path
       class="fil5"
       d="m -2834,12479 -370,211 67,119 371,-212 -68,-118 z m -18,235 -247,174 66,93 98,-70 c 46,-32 59,-38 79,-35 19,3 36,18 60,52 24,34 33,55 31,71 -3,17 -10,25 -50,53 l -112,79 65,92 112,-79 c 68,-48 83,-66 91,-105 7,-38 -6,-74 -48,-133 -42,-59 -74,-79 -118,-74 l -3,-4 38,-27 -62,-87 z m 458,417 -294,309 99,94 106,-112 213,202 -106,112 98,94 294,-309 -99,-94 -105,111 -213,-202 106,-111 -99,-94 z m 539,612 c -84,-59 -124,-79 -159,-79 -37,1 -62,19 -102,77 -51,71 -61,98 -52,133 10,36 38,64 129,129 90,63 126,81 163,78 35,-2 59,-22 106,-89 44,-61 53,-89 41,-125 -11,-33 -43,-65 -126,-124 z m -49,70 c 27,19 48,38 55,51 11,18 7,34 -15,66 -37,52 -56,53 -126,3 -30,-21 -49,-39 -57,-53 -11,-18 -7,-32 16,-64 37,-53 57,-53 127,-3 z m 426,362 c -21,28 -43,28 -101,-2 -27,-14 -48,-28 -57,-40 -14,-16 -12,-33 5,-67 18,-36 33,-50 51,-49 14,0 39,9 67,23 59,30 74,51 62,83 l 102,52 c 24,-51 28,-76 15,-104 -16,-34 -52,-61 -140,-107 -91,-46 -130,-58 -166,-50 -34,7 -57,32 -90,97 -36,71 -42,104 -25,136 17,33 48,56 131,98 106,54 142,64 181,51 27,-9 43,-25 67,-69 l -102,-52 z m 323,116 -5,20 c -17,58 -14,86 12,112 25,25 74,44 197,79 127,35 178,46 206,42 45,-4 71,-35 90,-105 17,-59 13,-89 -12,-116 -21,-22 -48,-34 -179,-75 -89,-27 -121,-38 -131,-44 -11,-7 -14,-17 -10,-31 9,-31 18,-31 123,-1 94,26 108,31 116,42 5,8 5,14 0,35 l 120,34 c 3,-8 6,-17 6,-19 15,-51 11,-80 -11,-104 -25,-26 -66,-43 -181,-76 -148,-41 -185,-47 -221,-39 -34,8 -58,41 -75,102 -12,41 -12,69 -2,92 13,26 39,43 99,61 12,4 54,18 98,33 43,14 83,27 97,31 40,12 48,21 41,45 -5,17 -12,25 -22,27 -13,2 -28,-2 -122,-28 -88,-25 -102,-30 -111,-40 -8,-9 -9,-18 -2,-43 l -121,-34 z m 591,-21 -52,298 111,19 52,-297 -111,-20 z m 21,-122 -15,84 112,19 14,-83 -111,-20 z m 454,173 -3,40 -5,-1 c -21,-39 -47,-51 -125,-57 -60,-4 -103,-2 -127,6 -46,16 -63,49 -70,129 -5,78 2,110 32,134 24,21 63,31 140,37 75,5 103,-3 129,-38 l 4,0 -2,27 c -3,42 -6,51 -18,63 -14,14 -36,17 -95,12 -60,-4 -76,-11 -80,-35 l -1,-3 -115,-9 c 0,37 8,61 27,80 26,27 65,38 161,46 70,5 114,4 148,-5 31,-8 57,-30 69,-58 11,-24 12,-32 16,-82 l 21,-278 -106,-8 z m -108,70 c 34,2 60,8 72,15 16,9 21,24 18,59 -2,32 -7,45 -21,53 -14,8 -43,10 -84,7 -83,-6 -98,-18 -94,-76 4,-55 22,-65 109,-58 z m 250,-67 23,301 113,-8 -9,-121 c -4,-55 -3,-69 10,-85 12,-15 34,-22 75,-25 42,-4 65,0 78,10 13,11 15,22 19,70 l 10,137 113,-9 -10,-137 c -7,-82 -14,-105 -44,-131 -28,-26 -67,-33 -138,-28 -73,6 -107,23 -124,63 l -6,1 -3,-46 -107,8 z m 644,-86 c -99,23 -141,40 -164,66 -24,28 -26,59 -11,127 20,85 33,111 66,127 33,17 73,14 181,-11 108,-25 145,-40 167,-69 22,-28 23,-59 4,-139 -17,-73 -32,-99 -66,-114 -32,-13 -77,-10 -177,13 z m 20,83 c 33,-8 60,-11 75,-8 21,4 30,17 39,56 15,62 3,76 -81,95 -36,9 -62,11 -77,8 -21,-4 -29,-17 -38,-55 -14,-62 -1,-77 82,-96 z m 309,-277 367,301 182,-82 14,-474 -129,59 -9,353 -23,10 -272,-226 -130,59 z m 634,-170 150,263 98,-56 -150,-263 -98,56 z m -61,-108 42,74 98,-56 -42,-74 -98,56 z m 204,24 175,246 92,-65 -70,-99 c -32,-45 -38,-58 -35,-78 3,-19 18,-37 51,-61 34,-24 55,-33 72,-31 17,3 24,10 53,50 l 79,112 92,-66 -79,-112 c -49,-67 -67,-83 -106,-90 -37,-7 -74,7 -132,48 -60,42 -80,75 -74,118 l -4,4 -27,-38 -87,62 z m 695,-336 c 20,29 12,49 -35,94 -22,21 -43,37 -57,41 -19,8 -35,1 -62,-27 -27,-29 -36,-47 -29,-64 5,-13 21,-33 44,-55 48,-46 72,-54 99,-31 l 83,-80 c -41,-40 -63,-51 -94,-48 -37,3 -75,28 -147,97 -73,70 -97,103 -102,140 -4,35 12,64 62,116 55,58 85,75 120,69 37,-5 69,-27 136,-91 86,-82 108,-114 108,-155 1,-28 -10,-48 -43,-86 l -83,80 z m 317,-331 c 18,20 14,34 -31,90 -25,32 -43,49 -57,52 -14,4 -24,0 -48,-19 l 184,-232 c -10,-8 -21,-17 -24,-19 -56,-44 -89,-57 -125,-48 -33,9 -59,34 -121,111 -61,77 -80,111 -82,147 -2,38 16,65 80,115 60,47 89,59 125,50 33,-9 65,-36 119,-105 101,-127 110,-172 50,-230 l -70,88 z m -184,84 c -33,-27 -29,-47 18,-107 28,-34 46,-50 61,-51 10,-1 15,1 34,16 l -113,142 z m 289,-213 c 31,17 53,21 76,13 35,-11 60,-41 114,-136 44,-76 66,-126 68,-156 4,-35 -13,-61 -52,-84 -58,-33 -98,-18 -142,58 -58,101 -68,117 -79,132 -10,16 -20,20 -30,14 -17,-9 -11,-31 24,-92 19,-33 33,-52 43,-58 4,-2 7,-1 16,1 l 57,-100 c -33,-16 -49,-19 -68,-11 -32,11 -56,41 -107,130 -41,71 -63,119 -66,146 -5,36 11,63 50,86 56,32 98,14 141,-59 55,-96 70,-121 79,-134 10,-13 22,-17 32,-11 19,11 14,33 -22,96 -36,61 -53,76 -77,65 l -57,100 z"
       id="path4381"
       inkscape:connector-curvature="0"
       style="fill:#ffffff;fill-rule:nonzero" /><circle
       class="fil4"
       cy="11000"
       r="3898"
       id="circle4383"
       cx="0"
       style="fill:none" /><path
       class="fil5"
       d="m -3501,12011 c 38,133 51,163 77,182 25,18 61,16 149,-10 94,-27 124,-43 136,-73 11,-30 6,-63 -33,-196 -38,-131 -51,-162 -77,-181 -26,-19 -60,-16 -152,10 -92,27 -122,44 -133,74 -11,29 -6,61 33,194 z m 83,-24 c -27,-90 -28,-102 -18,-116 9,-11 27,-20 73,-33 38,-11 53,-12 65,-3 13,9 20,26 43,103 23,79 26,97 20,113 -6,14 -18,20 -57,32 -43,12 -61,16 -74,12 -21,-4 -25,-14 -52,-108 z"
       id="path4385"
       inkscape:connector-curvature="0"
       style="fill:#ffffff;fill-rule:nonzero" /><path
       id="1"
       class="fil5"
       d="m -3247,11650 -13,-101 -84,11 -18,-142 c -6,-42 -6,-49 1,-57 8,-9 19,-13 56,-18 l 18,-2 -13,-99 -31,4 c -76,8 -90,19 -89,71 -6,-21 -11,-30 -21,-39 -16,-14 -35,-17 -83,-10 -57,7 -78,17 -90,45 -10,23 -10,23 5,137 l 32,243 330,-43 z m -179,-79 -82,11 -18,-142 c -6,-47 -6,-48 -4,-56 4,-10 13,-15 34,-18 22,-3 32,-1 39,7 5,7 5,7 12,56 l 19,142 z"
       inkscape:connector-curvature="0"
       style="fill:#ffffff;fill-rule:nonzero" /><path
       id="2"
       class="fil5"
       d="m -3308,11197 4,-240 c 2,-113 -3,-142 -25,-168 -22,-25 -56,-33 -143,-35 -54,-1 -76,1 -99,8 -32,10 -51,31 -58,64 -6,29 -7,40 -8,125 l -4,241 333,5 z m -83,-101 -165,-3 2,-140 c 1,-62 3,-76 15,-86 11,-10 30,-13 71,-13 76,2 80,8 79,100 l -2,142 z"
       inkscape:connector-curvature="0"
       style="fill:#ffffff;fill-rule:nonzero" /><polygon
       id="3"
       class="fil5"
       points="-3327,10333 -3363,10601 -3415,10594 -3381,10341 -3454,10331 -3488,10585 -3536,10578 -3501,10311 -3578,10301 -3627,10667 -3296,10711 -3248,10343 "
       style="fill:#ffffff;fill-rule:nonzero" /><polygon
       id="4"
       class="fil5"
       points="-3453,10142 -3450,10131 -3164,10028 -3118,9857 -3439,9769 -3467,9869 -3226,9932 -3229,9942 -3515,10045 -3562,10217 -3240,10305 -3213,10205 "
       style="fill:#ffffff;fill-rule:nonzero" /><path
       id="5"
       class="fil5"
       d="m -3044,9687 110,-214 c 52,-100 61,-129 52,-162 -9,-32 -36,-54 -113,-94 -48,-24 -68,-32 -93,-36 -32,-6 -59,5 -80,32 -18,22 -24,32 -62,108 l -110,214 296,152 z m -30,-128 -146,-75 64,-125 c 28,-55 36,-66 52,-70 14,-4 32,1 68,20 68,34 69,43 27,124 l -65,126 z"
       inkscape:connector-curvature="0"
       style="fill:#ffffff;fill-rule:nonzero" /><polygon
       id="6"
       class="fil5"
       points="-2669,8907 -2824,9130 -2867,9100 -2722,8890 -2782,8848 -2928,9058 -2968,9030 -2814,8809 -2879,8764 -3089,9068 -2815,9258 -2604,8953 "
       style="fill:#ffffff;fill-rule:nonzero" /><path
       id="7"
       class="fil5"
       d="m -2580,8756 11,12 c 35,32 55,40 82,32 26,-8 58,-34 127,-106 72,-74 98,-106 106,-127 13,-32 2,-61 -39,-100 -34,-34 -57,-43 -84,-35 -24,6 -42,20 -118,96 -52,51 -71,69 -79,73 -9,5 -17,4 -26,-4 -17,-17 -14,-24 45,-85 53,-55 62,-63 72,-64 8,-1 12,1 24,12 l 68,-70 c -4,-5 -9,-10 -11,-11 -29,-29 -51,-37 -76,-31 -26,7 -54,30 -118,97 -84,86 -102,109 -110,138 -7,26 7,55 43,89 24,23 43,34 63,35 23,1 44,-11 79,-45 7,-7 32,-31 58,-56 26,-24 50,-47 58,-55 22,-23 32,-25 46,-11 10,9 13,17 10,25 -3,10 -11,18 -64,74 -50,51 -58,58 -69,61 -9,2 -15,-1 -30,-15 l -68,71 z"
       inkscape:connector-curvature="0"
       style="fill:#ffffff;fill-rule:nonzero" /><path
       id="8"
       class="fil5"
       d="m -1901,8289 91,-72 -343,-155 -125,98 67,371 91,-71 -12,-62 174,-136 57,27 z m -130,-63 -118,92 -27,-139 16,-13 129,60 z"
       inkscape:connector-curvature="0"
       style="fill:#ffffff;fill-rule:nonzero" /><polygon
       id="9"
       class="fil5"
       points="-1823,7946 -1814,7941 -1538,8069 -1385,7981 -1551,7692 -1640,7743 -1515,7958 -1524,7963 -1799,7834 -1953,7922 -1787,8212 -1698,8160 "
       style="fill:#ffffff;fill-rule:nonzero" /><polygon
       id="10"
       class="fil5"
       points="-1215,7922 -1117,7882 -1210,7652 -1073,7596 -1104,7517 -1478,7669 -1446,7748 -1309,7692 "
       style="fill:#ffffff;fill-rule:nonzero" /><path
       id="11"
       class="fil5"
       d="m -639,7753 113,-26 -245,-286 -154,35 -97,365 113,-26 15,-62 215,-49 40,49 z m -91,-112 -145,33 34,-138 20,-4 91,109 z"
       inkscape:connector-curvature="0"
       style="fill:#ffffff;fill-rule:nonzero" /><polygon
       id="12"
       class="fil5"
       points="-281,7448 -263,7448 -134,7696 -49,7694 73,7443 90,7443 91,7692 191,7691 186,7358 3,7360 -93,7578 -195,7363 -379,7366 -375,7699 -275,7698 "
       style="fill:#ffffff;fill-rule:nonzero" /><path
       id="13"
       class="fil5"
       d="m 602,7743 115,15 -129,-354 -157,-20 -219,307 115,15 36,-52 219,29 20,60 z m -46,-137 -148,-20 81,-117 20,3 47,134 z"
       inkscape:connector-curvature="0"
       style="fill:#ffffff;fill-rule:nonzero" /><path
       id="14"
       class="fil5"
       d="m 737,7768 97,29 25,-80 137,41 c 40,12 47,15 52,25 5,10 3,22 -7,58 l -6,17 96,29 9,-30 c 24,-73 20,-90 -28,-110 21,3 32,2 44,-3 19,-9 30,-25 44,-71 16,-55 15,-79 -4,-101 -17,-19 -17,-19 -127,-52 l -235,-71 -97,319 z m 146,-131 24,-79 137,41 c 44,14 45,15 52,20 7,7 8,18 2,39 -6,20 -12,29 -22,32 -8,1 -8,1 -56,-12 l -137,-41 z"
       inkscape:connector-curvature="0"
       style="fill:#ffffff;fill-rule:nonzero" /><path
       id="15"
       class="fil5"
       d="m 1292,7595 -120,311 99,38 120,-311 -99,-38 z m 166,-104 -135,61 13,41 144,-20 -22,-82 z"
       inkscape:connector-curvature="0"
       style="fill:#ffffff;fill-rule:nonzero" /><path
       id="16"
       class="fil5"
       d="m 1645,8124 103,53 -3,-376 -141,-72 -309,216 103,53 51,-38 196,101 0,63 z m 2,-144 -133,-68 116,-83 17,9 0,142 z"
       inkscape:connector-curvature="0"
       style="fill:#ffffff;fill-rule:nonzero" /><path
       id="17"
       class="fil5"
       d="m 1875,8264 188,150 c 88,70 114,84 149,82 33,-2 60,-24 114,-92 34,-43 45,-61 54,-84 12,-30 6,-59 -15,-84 -19,-23 -28,-30 -94,-83 l -188,-150 -208,261 z m 131,-4 103,-130 110,88 c 48,39 58,49 58,65 1,14 -7,31 -33,63 -47,59 -55,59 -127,2 l -111,-88 z"
       inkscape:connector-curvature="0"
       style="fill:#ffffff;fill-rule:nonzero" /><polygon
       id="18"
       class="fil5"
       points="2568,8782 2381,8586 2419,8550 2596,8735 2649,8684 2472,8499 2507,8466 2693,8660 2750,8606 2495,8339 2254,8569 2510,8838 "
       style="fill:#ffffff;fill-rule:nonzero" /><polygon
       id="19"
       class="fil5"
       points="2886,8912 2895,8928 2754,9168 2800,9239 3077,9209 3086,9224 2876,9357 2930,9441 3210,9260 3111,9106 2875,9140 3003,8940 2903,8785 2623,8966 2677,9050 "
       style="fill:#ffffff;fill-rule:nonzero" /><path
       id="20"
       class="fil5"
       d="m 3350,9552 c -58,-126 -75,-154 -103,-169 -28,-14 -62,-7 -146,31 -89,41 -116,62 -124,93 -7,31 3,62 61,189 57,124 74,152 102,167 29,15 62,8 149,-32 87,-39 115,-60 122,-91 6,-32 -3,-62 -61,-188 z m -79,36 c 39,85 43,96 34,112 -7,12 -23,23 -66,43 -37,17 -52,20 -65,13 -14,-8 -24,-23 -57,-96 -35,-75 -40,-93 -37,-108 4,-15 15,-24 53,-41 40,-18 57,-24 71,-23 21,2 27,11 67,100 z"
       inkscape:connector-curvature="0"
       style="fill:#ffffff;fill-rule:nonzero" /><polygon
       id="21"
       class="fil5"
       points="3407,9977 3410,9988 3221,10226 3270,10395 3590,10302 3561,10203 3324,10275 3321,10264 3510,10027 3460,9857 3140,9950 3169,10049 "
       style="fill:#ffffff;fill-rule:nonzero" /><polygon
       id="22"
       class="fil5"
       points="3279,10575 3293,10681 3540,10649 3559,10796 3643,10785 3591,10385 3506,10396 3526,10543 "
       style="fill:#ffffff;fill-rule:nonzero" /><polygon
       id="23"
       class="fil5"
       points="3383,11231 3388,10960 3441,10961 3437,11216 3510,11217 3514,10962 3563,10963 3558,11232 3637,11233 3643,10864 3309,10859 3303,11230 "
       style="fill:#ffffff;fill-rule:nonzero" /><path
       id="24"
       class="fil5"
       d="m 3412,11271 -15,-2 c -48,-7 -68,-1 -86,22 -16,22 -26,62 -39,161 -14,102 -16,143 -10,164 8,34 35,51 91,58 47,7 71,1 88,-22 16,-19 21,-41 39,-147 11,-72 16,-97 20,-106 4,-9 11,-13 23,-11 24,3 25,10 14,95 -10,76 -13,87 -20,94 -6,5 -10,6 -27,4 l -13,97 c 7,2 14,3 16,3 40,5 63,-1 79,-20 17,-22 26,-56 38,-149 16,-119 17,-148 6,-176 -9,-25 -38,-40 -87,-47 -33,-4 -55,-1 -71,10 -19,12 -29,35 -37,82 -2,11 -7,44 -14,80 -6,35 -12,68 -14,79 -4,32 -10,39 -30,36 -14,-1 -21,-6 -24,-14 -2,-10 -1,-21 9,-98 9,-70 12,-81 19,-90 6,-7 13,-8 32,-6 l 13,-97 z"
       inkscape:connector-curvature="0"
       style="fill:#ffffff;fill-rule:nonzero" /><path
       id="25"
       class="fil5"
       d="m 3139,12049 -32,111 369,-73 44,-152 -270,-263 -33,111 47,43 -63,212 -62,11 z m 142,-25 42,-143 104,98 -6,19 -140,26 z"
       inkscape:connector-curvature="0"
       style="fill:#ffffff;fill-rule:nonzero" /></g></svg>