<?xml version="1.0" encoding="UTF-8" standalone="no"?>
<!-- Creator: CorelDRAW X7 -->

<svg
   xmlns:dc="http://purl.org/dc/elements/1.1/"
   xmlns:cc="http://creativecommons.org/ns#"
   xmlns:rdf="http://www.w3.org/1999/02/22-rdf-syntax-ns#"
   xmlns:svg="http://www.w3.org/2000/svg"
   xmlns="http://www.w3.org/2000/svg"
   xmlns:sodipodi="http://sodipodi.sourceforge.net/DTD/sodipodi-0.dtd"
   xmlns:inkscape="http://www.inkscape.org/namespaces/inkscape"
   xml:space="preserve"
   width="7.8740005in"
   height="7.8740005in"
   version="1.1"
   style="clip-rule:evenodd;fill-rule:evenodd;image-rendering:optimizeQuality;shape-rendering:geometricPrecision;text-rendering:geometricPrecision"
   viewBox="0 0 7874.0005 7874.0005"
   id="svg4245"
   inkscape:version="0.91 r13725"
   sodipodi:docname="PanOceania - Joan of Arc - [N3] [Vyo].svg"><metadata
     id="metadata4259"><rdf:RDF><cc:Work
         rdf:about=""><dc:format>image/svg+xml</dc:format><dc:type
           rdf:resource="http://purl.org/dc/dcmitype/StillImage" /></cc:Work></rdf:RDF></metadata><sodipodi:namedview
     pagecolor="#ffffff"
     bordercolor="#666666"
     borderopacity="1"
     objecttolerance="10"
     gridtolerance="10"
     guidetolerance="10"
     inkscape:pageopacity="0"
     inkscape:pageshadow="2"
     inkscape:window-width="640"
     inkscape:window-height="480"
     id="namedview4257"
     showgrid="false"
     inkscape:zoom="0.23838384"
     inkscape:cx="736.83001"
     inkscape:cy="849.33005"
     inkscape:window-x="0"
     inkscape:window-y="0"
     inkscape:window-maximized="0"
     inkscape:current-layer="svg4245" /><defs
     id="defs4247"><style
       type="text/css"
       id="style4249"><![CDATA[
    .fil0 {fill:black}
    .fil1 {fill:#E2001A}
   ]]></style></defs><g
     id="Layer_x0020_1"
     transform="translate(3937,-7063)"><metadata
       id="CorelCorpID_0Corel-Layer" /><circle
       class="fil0"
       cy="11000"
       r="3937"
       id="circle4253"
       cx="0"
       style="fill:#000000" /><path
       class="fil1"
       d="m -2402,10055 670,0 0,-1457 -79,0 c -325,0 -591,266 -591,591 l 0,866 z M 0,7063 c 2174,0 3937,1763 3937,3937 0,2174 -1763,3937 -3937,3937 -2174,0 -3937,-1763 -3937,-3937 0,-2174 1763,-3937 3937,-3937 z m 0,197 c 2066,0 3740,1674 3740,3740 0,2066 -1674,3740 -3740,3740 -397,0 -780,-62 -1139,-177 l 40,-689 2910,0 c 585,0 1063,-478 1063,-1063 l 0,-3622 c 0,-585 -478,-1063 -1063,-1063 l -3622,0 c -585,0 -1063,478 -1063,1063 l 0,3622 c 0,557 434,1018 981,1060 l 21,368 c -1117,-647 -1868,-1855 -1868,-3239 0,-2066 1674,-3740 3740,-3740 z m -1260,1338 0,1457 2008,0 c 118,-236 0,-551 -197,-669 630,0 1024,433 669,669 355,0 552,39 749,236 -197,197 -394,237 -749,237 355,236 -39,669 -669,669 197,-118 315,-433 197,-669 l -2008,0 0,629 315,0 -128,2245 2884,0 c 325,0 591,-266 591,-591 l 0,-3622 c 0,-325 -266,-591 -591,-591 l -3071,0 z m -660,4793 -127,-2234 315,0 0,-629 -670,0 0,2283 c 0,288 209,529 482,580 z"
       id="path4255"
       inkscape:connector-curvature="0"
       style="fill:#e2001a" /></g></svg>