<?xml version="1.0" encoding="UTF-8" standalone="no"?>
<!-- Creator: CorelDRAW X7 -->

<svg
   xmlns:dc="http://purl.org/dc/elements/1.1/"
   xmlns:cc="http://creativecommons.org/ns#"
   xmlns:rdf="http://www.w3.org/1999/02/22-rdf-syntax-ns#"
   xmlns:svg="http://www.w3.org/2000/svg"
   xmlns="http://www.w3.org/2000/svg"
   xmlns:sodipodi="http://sodipodi.sourceforge.net/DTD/sodipodi-0.dtd"
   xmlns:inkscape="http://www.inkscape.org/namespaces/inkscape"
   xml:space="preserve"
   width="7.8740005in"
   height="7.8740005in"
   version="1.1"
   style="clip-rule:evenodd;fill-rule:evenodd;image-rendering:optimizeQuality;shape-rendering:geometricPrecision;text-rendering:geometricPrecision"
   viewBox="0 0 7874.0005 7874.0005"
   id="svg5204"
   inkscape:version="0.91 r13725"
   sodipodi:docname="PanOceania - Swiss Guard - [N3] Vyo].svg"><metadata
     id="metadata5242"><rdf:RDF><cc:Work
         rdf:about=""><dc:format>image/svg+xml</dc:format><dc:type
           rdf:resource="http://purl.org/dc/dcmitype/StillImage" /></cc:Work></rdf:RDF></metadata><sodipodi:namedview
     pagecolor="#ffffff"
     bordercolor="#666666"
     borderopacity="1"
     objecttolerance="10"
     gridtolerance="10"
     guidetolerance="10"
     inkscape:pageopacity="0"
     inkscape:pageshadow="2"
     inkscape:window-width="640"
     inkscape:window-height="480"
     id="namedview5240"
     showgrid="false"
     inkscape:zoom="0.23838384"
     inkscape:cx="736.83001"
     inkscape:cy="849.33005"
     inkscape:window-x="0"
     inkscape:window-y="0"
     inkscape:window-maximized="0"
     inkscape:current-layer="svg5204" /><defs
     id="defs5206"><style
       type="text/css"
       id="style5208"><![CDATA[
    .fil2 {fill:none}
    .fil0 {fill:#0080B1}
    .fil5 {fill:#E2001A}
    .fil1 {fill:white}
    .fil3 {fill:white}
    .fil4 {fill:#E2001A;fill-rule:nonzero}
   ]]></style></defs><g
     id="Layer_x0020_1"
     transform="translate(3937,-7063)"><metadata
       id="CorelCorpID_0Corel-Layer" /><circle
       class="fil0"
       cy="11000"
       r="3937"
       id="circle5212"
       cx="0"
       style="fill:#0080b1" /><circle
       class="fil1"
       cy="11000"
       r="3858"
       id="circle5214"
       cx="0"
       style="fill:#ffffff" /><circle
       class="fil0"
       cy="11000"
       r="3386"
       id="circle5216"
       cx="0"
       style="fill:#0080b1" /><circle
       class="fil2"
       cy="11000"
       r="3898"
       id="circle5218"
       cx="0"
       style="fill:none" /><circle
       class="fil2"
       cy="11000"
       r="3898"
       id="circle5220"
       cx="0"
       style="fill:none" /><g
       id="_994010304"><path
         class="fil3"
         d="m 1945,13465 -32,-34 280,-268 c 40,-38 90,-71 146,-66 57,5 107,46 144,85 l 106,110 c 37,40 76,91 78,147 3,57 -32,106 -71,144 l -281,268 -232,-243 c 13,24 25,49 28,75 2,10 2,19 0,29 3,1 6,2 8,3 16,6 30,16 42,28 14,14 27,30 37,47 l 68,105 -164,105 -54,-84 c -3,-5 -12,-19 -18,-24 -2,1 -4,2 -5,2 l -120,78 71,109 -163,106 -315,-489 326,-211 c 21,-13 44,-23 68,-26 18,-3 36,-1 53,4 z m -1357,903 6,72 c 2,31 3,67 -6,98 -7,26 -20,51 -42,68 -21,16 -44,25 -69,30 -31,6 -63,9 -94,11 l -138,11 c -28,2 -56,2 -83,-4 -26,-5 -50,-15 -70,-32 -23,-18 -38,-43 -49,-69 -12,-31 -18,-67 -20,-100 l -12,-150 c -2,-34 -2,-69 6,-102 6,-28 18,-55 37,-76 18,-20 40,-34 65,-43 26,-9 53,-13 81,-15 l 173,-13 c 30,-3 63,-2 92,6 15,4 28,10 40,18 l -5,-18 187,-54 91,317 c 3,10 11,35 19,42 4,3 15,0 19,-1 l 110,-32 c 3,0 15,-4 16,-8 4,-11 -3,-36 -5,-46 l -91,-317 187,-54 100,349 c 15,55 24,118 0,172 -24,53 -72,82 -125,97 l -159,46 c -54,15 -111,16 -158,-17 -49,-32 -75,-91 -91,-145 l -12,-41 z m -204,-113 c -6,-1 -14,-1 -18,-1 l -125,10 c -7,0 -18,1 -25,4 0,1 -1,1 -2,2 -2,3 -3,11 -3,15 -1,15 0,32 1,47 l 4,62 c 2,15 3,32 7,47 1,3 3,11 5,14 1,1 2,1 3,1 7,2 17,1 24,1 l 1,0 -13,-173 143,-11 0,-3 c 0,-4 -1,-11 -2,-15 z m -1156,-161 c 7,-15 17,-29 29,-41 19,-20 44,-31 71,-36 32,-6 67,-3 99,3 l 159,27 c 30,6 61,14 88,28 22,13 42,30 54,54 10,20 15,42 15,65 0,23 -3,47 -7,70 l -9,55 -27,-5 c 12,18 19,38 22,59 4,32 -1,67 -6,99 -5,29 -13,62 -25,90 -12,24 -29,45 -53,59 -23,13 -51,17 -78,17 -33,0 -69,-6 -102,-11 l -138,-24 c -25,-5 -51,-11 -75,-21 -21,-9 -40,-21 -55,-39 -16,-19 -24,-41 -28,-65 -3,-26 0,-54 4,-80 l 13,-73 36,7 c -11,-18 -17,-39 -19,-61 -1,-24 2,-50 6,-74 l -12,33 -25,-8 c 9,19 13,40 12,61 -2,32 -12,66 -22,96 -10,29 -22,60 -39,85 -16,23 -36,41 -61,50 -26,9 -54,9 -80,5 -33,-6 -68,-17 -99,-28 l -133,-46 c -24,-8 -49,-19 -70,-32 -20,-12 -37,-28 -49,-48 -12,-21 -17,-44 -16,-68 0,-27 7,-54 16,-78 l 24,-70 35,12 c -8,-20 -11,-41 -9,-63 3,-28 13,-58 22,-85 8,-23 17,-46 28,-68 11,-21 26,-39 45,-53 22,-16 49,-23 76,-24 33,-1 67,8 98,19 l 152,53 c 28,10 58,23 82,42 20,16 37,36 45,61 5,16 7,34 6,51 z m -414,173 c 4,1 7,3 9,3 l 134,47 c 2,0 6,2 10,2 0,0 0,-1 0,-2 1,0 1,-1 1,-2 -9,-6 -20,-10 -29,-14 -28,-11 -57,-21 -85,-31 -12,-4 -25,-9 -37,-13 -1,3 -2,7 -3,10 z m 208,-145 c 0,-1 1,-3 1,-4 -5,-3 -12,-5 -15,-6 l -121,-42 c -1,0 -3,-1 -5,-1 0,0 0,0 0,0 7,4 16,8 23,10 22,10 46,18 69,26 16,6 32,11 48,17 z m 340,293 c 3,1 7,2 9,2 l 139,25 c 3,0 7,1 10,1 1,-1 1,-2 1,-3 0,0 0,-1 0,-2 -9,-4 -22,-7 -31,-9 -29,-6 -60,-12 -89,-17 -13,-2 -26,-4 -39,-7 0,3 0,7 0,10 z m 181,-176 c 0,-1 0,-3 1,-4 -6,-2 -13,-3 -16,-4 l -127,-22 c -1,0 -2,0 -4,0 0,0 0,0 0,0 7,3 17,5 23,7 25,5 49,10 73,14 17,3 33,6 50,9 z m -961,-492 4,-7 177,80 -241,529 -177,-80 168,-369 -308,296 -164,-105 69,-216 -167,154 -164,-104 126,-371 -15,15 -19,-18 c 1,21 -5,42 -15,61 -14,28 -37,56 -59,79 -21,22 -45,45 -71,61 -23,14 -49,22 -76,20 -27,-2 -52,-14 -75,-29 -28,-19 -54,-43 -79,-66 l -101,-97 c -19,-17 -37,-37 -51,-58 -13,-19 -22,-41 -25,-63 -2,-25 3,-48 14,-70 11,-23 29,-45 47,-64 l 51,-54 27,26 c 0,-22 6,-42 17,-61 15,-24 35,-48 55,-68 17,-18 35,-36 54,-51 19,-15 40,-25 63,-30 27,-5 54,0 79,10 30,13 57,35 81,57 l 117,111 c 22,21 43,46 57,72 6,12 10,23 13,35 l 142,91 -85,231 182,-170 142,91 -77,237 174,-175 110,70 z m -1049,-300 c 2,3 5,6 7,7 l 102,98 c 2,1 5,4 8,6 1,0 1,-1 2,-1 0,-1 1,-2 2,-2 -6,-9 -15,-18 -22,-25 -21,-22 -43,-43 -65,-63 -9,-9 -18,-18 -27,-28 -3,3 -5,6 -7,8 z m 249,-46 c 1,-1 2,-2 3,-3 -4,-4 -9,-9 -12,-12 l -93,-88 c 0,-1 -2,-2 -3,-3 0,0 0,0 0,0 4,7 11,14 16,19 17,18 35,35 53,52 12,12 24,23 36,35 z m 3770,818 -164,74 6,95 -196,89 -24,-628 185,-83 458,431 -195,88 -70,-66 z m -177,-171 3,44 29,-13 -32,-31 z m 396,-284 24,36 127,-82 c 1,0 2,-1 2,-1 -1,-4 -4,-10 -6,-12 l -9,-14 c -1,-2 -5,-7 -7,-10 -4,2 -9,5 -12,6 l -119,77 z m 423,-320 118,123 120,-115 c 3,-3 13,-14 13,-19 -1,-9 -21,-32 -27,-38 l -47,-49 c -7,-7 -28,-28 -37,-29 -5,-1 -17,10 -20,12 l -120,115 z"
         id="path5223"
         inkscape:connector-curvature="0"
         style="fill:#ffffff" /></g><path
       class="fil4"
       d="m -2592,13352 c -18,20 -32,38 -40,55 -8,16 -11,32 -10,47 2,15 8,30 19,46 10,16 25,33 45,52 l 101,96 c 30,28 55,49 74,62 20,14 39,21 56,22 17,2 35,-3 52,-14 18,-11 39,-29 63,-55 26,-26 44,-49 53,-69 10,-19 13,-38 9,-57 -4,-18 -15,-38 -32,-59 -17,-22 -44,-49 -80,-83 -24,-23 -42,-41 -54,-54 -12,-13 -21,-23 -25,-32 -4,-8 -6,-15 -4,-21 2,-6 7,-13 14,-21 9,-9 18,-13 29,-13 10,1 20,6 29,15 l 93,89 c 18,17 27,30 27,40 -1,9 -8,21 -22,36 l 84,80 11,-12 c 17,-18 31,-34 40,-49 10,-15 16,-30 18,-46 2,-16 -2,-33 -12,-52 -9,-18 -26,-39 -49,-61 l -117,-111 c -26,-24 -49,-41 -69,-49 -21,-9 -39,-12 -56,-8 -17,3 -32,11 -47,22 -14,11 -30,27 -50,47 -23,24 -39,44 -49,61 -9,17 -13,33 -12,49 2,17 11,35 26,56 15,20 39,46 72,77 30,29 52,51 66,65 13,14 23,26 28,35 6,9 8,16 6,23 -1,6 -6,14 -15,23 -12,12 -23,18 -33,16 -10,-2 -20,-9 -32,-20 l -102,-97 c -14,-13 -21,-25 -22,-34 0,-10 8,-24 25,-42 l -84,-80 -24,25 z m 418,556 112,71 253,-232 1,0 -104,328 112,71 373,-358 -95,-61 -267,268 0,0 117,-363 -90,-58 -280,260 0,0 130,-355 -95,-61 -167,490 z m 571,341 105,48 209,-457 -106,-48 -208,457 z m 264,-18 c -9,26 -13,48 -14,67 0,18 3,34 11,47 8,13 20,24 35,34 16,10 37,20 63,29 l 132,46 c 39,13 70,22 93,26 24,4 44,3 60,-3 16,-6 30,-18 42,-35 12,-17 23,-42 35,-76 12,-35 18,-63 19,-85 1,-21 -4,-40 -15,-55 -11,-15 -29,-29 -54,-41 -25,-12 -60,-27 -107,-43 -31,-11 -55,-19 -71,-26 -17,-7 -29,-13 -36,-19 -8,-6 -12,-11 -13,-18 0,-6 1,-14 5,-24 4,-12 11,-20 20,-24 10,-3 21,-3 34,2 l 121,42 c 23,8 37,16 40,25 4,9 2,23 -4,42 l 109,38 5,-15 c 8,-23 14,-44 17,-61 2,-18 1,-34 -4,-49 -4,-15 -15,-29 -31,-43 -17,-13 -40,-24 -71,-35 l -152,-53 c -33,-12 -61,-17 -83,-16 -23,0 -41,6 -55,16 -13,10 -24,23 -33,39 -8,16 -17,37 -26,63 -11,32 -17,57 -19,76 -2,19 1,36 9,50 9,14 24,28 46,40 23,13 55,26 97,41 40,14 69,24 87,32 19,7 32,13 41,19 9,6 14,13 15,19 1,7 0,16 -4,27 -6,17 -14,26 -24,28 -10,3 -22,1 -37,-4 l -134,-47 c -17,-6 -29,-13 -33,-22 -5,-8 -3,-25 5,-48 l -109,-38 -12,32 z m 544,174 c -5,27 -6,49 -4,68 3,18 9,33 19,45 10,11 23,21 40,28 18,7 40,13 67,18 l 138,24 c 40,7 72,10 96,11 24,0 43,-4 58,-13 15,-8 27,-22 36,-41 9,-19 16,-46 22,-80 6,-37 8,-66 6,-87 -3,-22 -11,-39 -24,-52 -14,-14 -34,-24 -60,-32 -26,-8 -64,-17 -112,-25 -33,-6 -58,-11 -75,-15 -18,-4 -31,-8 -39,-12 -8,-5 -13,-10 -15,-16 -2,-6 -2,-14 0,-25 3,-13 8,-21 17,-26 9,-6 20,-7 33,-5 l 126,22 c 25,5 40,11 45,19 5,8 5,22 2,42 l 114,20 2,-15 c 5,-25 7,-46 7,-64 0,-17 -4,-33 -11,-48 -7,-14 -20,-26 -39,-36 -18,-10 -43,-18 -75,-24 l -159,-28 c -34,-6 -63,-7 -84,-2 -22,4 -39,12 -51,24 -12,12 -21,27 -27,44 -5,17 -10,40 -15,67 -6,33 -8,59 -7,78 1,19 7,35 17,48 11,13 28,23 52,32 24,9 58,17 103,24 41,8 71,13 90,18 20,4 34,8 44,13 9,4 15,10 17,16 3,6 3,15 1,27 -3,17 -10,28 -19,32 -10,4 -22,4 -37,1 l -140,-24 c -18,-3 -31,-9 -36,-17 -6,-7 -7,-24 -3,-48 l -114,-20 -6,34 z m 857,45 c 3,36 9,65 18,88 9,24 21,41 36,53 15,12 33,21 53,25 21,4 45,5 73,2 l 138,-10 c 38,-3 68,-6 89,-11 21,-4 39,-11 52,-22 14,-11 24,-27 29,-48 6,-20 7,-49 5,-84 l -11,-143 -259,20 8,104 143,-11 2,14 c 0,12 -1,21 -3,29 -3,8 -7,14 -12,18 -5,4 -12,7 -18,9 -7,2 -15,3 -24,4 l -123,9 c -15,1 -27,1 -37,-2 -9,-2 -17,-7 -23,-14 -6,-7 -10,-17 -13,-30 -4,-13 -6,-31 -8,-53 l -5,-62 c -1,-22 -1,-40 0,-54 1,-13 4,-24 9,-32 5,-8 12,-13 20,-17 9,-4 21,-6 37,-7 l 125,-10 c 21,-2 36,1 45,7 10,7 16,22 17,45 l 114,-9 -2,-16 c -2,-27 -5,-50 -10,-69 -5,-18 -14,-34 -25,-47 -11,-13 -27,-22 -47,-28 -21,-6 -47,-8 -79,-5 l -173,13 c -28,2 -52,7 -71,13 -20,7 -36,18 -49,32 -13,15 -22,34 -28,59 -6,24 -7,54 -4,90 l 11,150 z m 576,-52 c 17,61 42,102 75,124 32,22 74,26 125,11 l 159,-46 c 51,-14 84,-39 100,-75 16,-36 15,-84 -2,-145 l -89,-311 -112,32 80,279 c 9,31 11,54 5,70 -5,16 -20,27 -42,33 l -110,32 c -23,6 -41,4 -54,-6 -13,-11 -24,-31 -33,-62 l -80,-279 -111,32 89,311 z m 597,19 118,-54 -6,-94 213,-97 70,66 117,-53 -396,-373 -137,62 21,543 z m 95,-467 146,141 -134,61 -12,-202 z m 387,-198 152,-98 c 16,-10 30,-15 40,-13 11,1 22,11 33,29 l 9,14 c 10,15 15,28 14,39 -1,10 -8,20 -21,28 l -161,104 -66,-103 z m 107,380 98,-62 -71,-110 153,-99 c 15,-9 28,-12 39,-7 11,5 24,18 38,41 l 33,50 97,-62 -46,-72 c -11,-17 -21,-30 -31,-40 -10,-10 -20,-16 -29,-20 -9,-3 -18,-5 -26,-5 -9,1 -18,2 -27,6 l -1,-1 c 17,-21 24,-41 21,-62 -3,-21 -14,-47 -33,-77 l -18,-27 c -13,-20 -25,-37 -38,-50 -13,-13 -27,-23 -41,-29 -14,-6 -29,-8 -45,-6 -16,2 -33,9 -52,20 l -293,189 272,423 z m 493,-336 252,-242 c 41,-40 61,-77 59,-113 -2,-35 -24,-76 -68,-121 l -105,-111 c -44,-45 -84,-69 -119,-73 -36,-3 -74,15 -115,55 l -252,242 348,363 z m -178,-353 148,-142 c 18,-18 35,-25 52,-23 16,2 36,15 60,40 l 47,50 c 24,25 37,45 38,62 2,16 -7,33 -25,50 l -148,142 -172,-179 z"
       id="path5225"
       inkscape:connector-curvature="0"
       style="fill:#e2001a;fill-rule:nonzero" /><circle
       class="fil2"
       cy="11000"
       r="3898"
       id="circle5227"
       cx="0"
       style="fill:none" /><g
       id="_994012192"><path
         class="fil3"
         d="m 2614,8776 109,-83 101,132 -1,1 c 16,10 30,25 44,43 28,36 45,79 28,125 l 0,1 c -15,36 -45,62 -75,85 l -48,37 -102,-132 32,-24 2,-2 c 3,-2 9,-6 13,-10 -2,-3 -4,-6 -5,-8 -2,-2 -8,-7 -11,-8 -15,3 -42,25 -52,33 l -135,103 -104,-136 46,-35 c -8,2 -16,3 -24,3 -62,2 -117,-55 -157,-97 -36,-38 -78,-85 -77,-141 0,-14 2,-28 7,-40 -6,3 -13,6 -21,8 l -1,1 c -58,17 -104,-13 -147,-51 -37,-32 -73,-66 -71,-119 1,-35 17,-60 37,-87 11,-13 23,-26 34,-40 l 34,-39 -23,-21 -134,193 -140,-97 -130,-83 35,-54 c -6,4 -14,8 -21,11 -59,22 -129,-14 -180,-41 -47,-24 -102,-55 -119,-108 -5,-12 -6,-24 -6,-36 l -21,54 -155,-59 0,-1 c -23,-1 -48,-9 -74,-19 -49,-19 -103,-43 -123,-97 l 0,-1 c -3,-7 -5,-15 -6,-22 l -18,61 -164,-49 46,-157 -236,-40 -25,152 -183,-30 87,-517 441,74 -29,175 47,-159 165,49 -67,225 c 18,-29 41,-54 73,-65 48,-16 95,1 140,18 24,9 45,19 62,31 l 46,-119 160,61 -103,270 c 23,-41 53,-80 100,-92 56,-14 112,16 161,42 47,25 105,53 124,108 11,33 6,68 -6,101 l 132,-206 144,93 0,0 141,97 -71,102 37,32 47,-55 130,112 -47,55 111,95 -84,98 c 31,-24 66,-43 107,-40 58,5 102,52 139,92 37,39 82,85 82,142 0,41 -21,75 -48,105 z m -307,-276 -107,-92 -11,13 105,91 c 5,-4 9,-8 13,-12 z m -1445,-813 29,-97 -259,-43 -1,5 246,41 -15,94 z m -940,-88 3,41 16,-1 15,185 -466,35 -40,-522 464,-35 10,133 32,1 2,-73 171,3 -1,72 147,3 -3,163 -146,-2 -1,17 160,2 -2,40 c -1,45 -2,84 -26,122 l 0,1 c -34,51 -89,57 -145,56 -50,0 -99,-4 -132,-45 -22,-28 -26,-57 -27,-91 0,-17 0,-35 0,-52 l 1,-53 -32,0 z m -969,129 -37,-125 160,-46 0,1 c 15,-11 34,-20 56,-26 44,-13 90,-13 127,19 l 0,1 c 29,26 42,64 53,101 l 17,58 -160,46 -11,-38 0,-3 c -1,-3 -3,-10 -6,-15 -3,1 -7,2 -9,2 -3,1 -9,4 -11,8 -3,14 8,47 12,59 l 47,164 -165,48 -19,-67 c -1,8 -3,16 -6,24 -21,59 -93,90 -147,112 -49,19 -107,42 -159,21 -15,-6 -27,-14 -38,-24 1,6 1,12 0,19 l 0,1 c -5,61 -49,92 -99,119 -44,23 -88,44 -138,23 -32,-13 -50,-37 -67,-66 -9,-15 -17,-30 -25,-45 l -25,-47 -23,13 125,193 -144,93 -96,-148 -112,78 -24,-35 c -2,-3 -7,-9 -10,-12 -3,1 -6,3 -8,4 -3,2 -8,7 -8,11 2,14 22,42 30,53 l 97,139 -140,98 -35,-49 c 1,6 2,12 3,18 1,9 1,18 0,27 -6,55 -58,102 -96,137 -36,34 -76,72 -127,79 l -114,146 -77,-23 -110,140 41,70 -127,163 -278,-494 134,-172 399,112 c -11,-10 -22,-21 -31,-32 -37,-39 -81,-86 -80,-143 0,-62 50,-108 92,-148 41,-39 93,-86 154,-84 50,2 85,34 118,68 l 12,11 -104,-149 136,-95 1,1 c 11,-15 26,-29 44,-42 38,-26 80,-41 125,-24 l -94,-144 144,-93 70,108 36,-19 -34,-64 151,-81 34,64 130,-69 63,119 c -11,-38 -16,-77 2,-114 25,-52 85,-76 136,-96 49,-21 109,-46 162,-25 39,15 64,49 83,86 z m -373,176 -126,67 9,16 123,-66 c -2,-6 -4,-11 -6,-17 z m -853,567 c -7,2 -24,17 -28,21 -6,5 -18,18 -23,26 5,8 18,23 23,29 4,4 17,17 24,21 8,-3 23,-16 29,-22 4,-4 19,-18 22,-25 -1,-2 -3,-5 -4,-7 l -15,-20 -21,-18 c -2,-2 -5,-4 -7,-5 z m -364,349 -51,-15 26,46 25,-31 z M 1176,7807 c -4,5 -11,22 -13,28 -3,6 -11,27 -11,36 7,6 28,14 34,16 9,3 30,11 42,11 5,-7 11,-24 14,-29 2,-6 9,-26 9,-34 -6,-6 -26,-14 -32,-16 -8,-3 -33,-12 -43,-12 z"
         id="path5230"
         inkscape:connector-curvature="0"
         style="fill:#ffffff" /></g><path
       class="fil4"
       d="m -2393,8852 75,-96 -463,-130 -102,131 236,419 75,-95 -41,-70 142,-182 78,23 z m -177,-54 -97,123 -91,-157 13,-17 175,51 z m 371,-307 c 22,29 17,47 -22,84 -18,17 -36,29 -48,32 -18,4 -33,-4 -60,-33 -29,-31 -39,-49 -34,-64 3,-12 16,-29 35,-47 39,-37 61,-41 88,-17 l 68,-64 c -41,-43 -63,-56 -91,-57 -34,-1 -67,18 -126,74 -61,57 -80,85 -80,119 0,32 17,61 69,116 58,61 87,80 119,79 33,0 61,-17 116,-69 71,-67 88,-94 84,-132 -3,-27 -14,-47 -49,-86 l -69,65 z m 18,-265 180,259 76,-53 -75,-108 c -27,-39 -35,-55 -37,-73 0,-16 9,-33 26,-45 15,-11 30,-15 41,-11 10,3 18,11 31,29 l 1,2 1,0 72,-50 -13,-17 c -26,-39 -44,-56 -66,-66 -26,-11 -54,-4 -88,19 -43,30 -55,57 -47,100 l -4,3 -27,-39 -71,50 z m 282,-194 172,265 77,-51 -171,-264 -78,50 z m -71,-108 49,74 77,-50 -48,-75 -78,51 z m 215,-64 34,64 -42,23 39,75 43,-23 44,81 c 19,36 19,36 24,44 17,29 30,42 49,50 27,12 51,6 103,-22 56,-30 76,-53 79,-87 2,-28 -4,-47 -32,-100 l -74,40 6,11 c 17,33 15,44 -12,58 -16,9 -26,9 -36,2 -7,-6 -10,-10 -25,-40 l -44,-81 129,-69 -39,-75 -130,70 -34,-64 -82,43 z m 628,23 c 7,27 -1,37 -56,59 -30,12 -51,16 -63,11 -11,-5 -18,-13 -30,-43 l 224,-91 c -4,-13 -10,-27 -11,-30 -28,-69 -50,-99 -81,-111 -29,-11 -58,-5 -134,25 -74,31 -100,49 -115,77 -15,32 -10,64 22,142 30,74 49,101 80,114 29,11 64,5 130,-22 123,-50 146,-82 120,-166 l -86,35 z m -173,-33 c -16,-41 -6,-56 52,-79 33,-14 53,-17 65,-10 8,5 11,10 21,33 l -138,56 z m 265,-220 88,303 89,-26 -36,-126 c -14,-46 -16,-64 -12,-81 5,-16 19,-29 38,-35 19,-5 35,-4 44,3 8,6 13,16 19,37 l 1,3 0,1 84,-25 -6,-20 c -13,-45 -24,-68 -41,-83 -22,-19 -50,-23 -90,-11 -50,14 -71,36 -76,80 l -5,1 -13,-45 -84,24 z m 527,-256 34,443 387,-29 -8,-107 -283,22 -5,-71 267,-20 -8,-98 -267,21 -4,-65 280,-21 -7,-104 -386,29 z m 504,29 -1,73 -48,-1 -2,85 49,1 -1,92 c -1,40 -1,40 0,50 1,34 5,51 18,67 18,23 42,30 101,31 64,1 92,-9 112,-38 14,-24 18,-43 20,-103 l -85,-1 0,13 c -1,37 -8,45 -38,45 -18,0 -28,-5 -32,-16 -4,-9 -4,-14 -4,-47 l 2,-92 146,2 2,-85 -147,-2 1,-72 -93,-2 z m 516,-22 -73,438 105,18 25,-152 246,41 17,-100 -246,-42 14,-82 259,43 17,-103 -364,-61 z m 417,217 -89,302 89,27 89,-303 -89,-26 z m 37,-124 -25,85 89,26 25,-85 -89,-26 z m 501,174 -87,-33 -61,160 -3,-2 c -3,-43 -19,-61 -80,-84 -59,-23 -86,-27 -113,-18 -33,11 -55,43 -84,118 -28,73 -34,106 -23,135 11,30 38,51 100,74 63,24 91,23 121,-6 l 4,1 -15,39 82,31 159,-415 z m -234,134 c 62,24 69,40 45,101 -13,34 -23,49 -36,53 -14,4 -39,0 -70,-12 -64,-25 -71,-38 -46,-103 22,-59 39,-65 107,-39 z m 384,329 c -16,23 -29,22 -81,-5 -29,-15 -45,-28 -49,-41 -4,-12 -1,-23 14,-51 l 214,112 c 6,-11 13,-24 15,-28 34,-65 43,-101 33,-132 -11,-30 -34,-49 -106,-86 -71,-38 -101,-46 -133,-39 -33,9 -55,34 -94,108 -37,71 -46,103 -35,135 10,29 36,52 100,85 117,62 157,59 204,-16 l -82,-42 z m -86,-154 c 21,-39 39,-41 94,-12 32,17 47,30 49,44 2,9 0,15 -11,37 l -132,-69 z m 407,-55 -240,374 78,51 240,-375 -78,-50 z m 68,200 -179,259 76,53 179,-260 -76,-52 z m 74,-107 -51,73 76,53 51,-73 -76,-53 z m 148,177 -47,55 -37,-31 -55,64 37,31 -60,70 c -27,31 -27,31 -33,38 -21,27 -28,43 -29,64 -1,29 13,50 58,89 48,41 77,52 110,42 26,-9 42,-21 82,-66 l -65,-55 -8,10 c -24,28 -36,30 -58,10 -14,-12 -18,-22 -14,-33 3,-9 5,-13 27,-38 l 60,-70 111,96 55,-64 -111,-96 48,-55 -71,-61 z m 210,589 c -23,17 -34,12 -75,-31 -22,-24 -33,-41 -33,-55 0,-12 6,-21 29,-43 l 166,176 c 11,-9 21,-19 24,-22 54,-51 74,-82 74,-115 0,-31 -16,-56 -71,-115 -55,-59 -82,-77 -114,-80 -34,-2 -63,14 -124,71 -58,55 -77,83 -77,116 0,31 17,61 67,114 91,96 129,106 198,51 l -64,-67 z m -31,-174 c 32,-29 50,-25 92,20 25,26 35,44 33,58 -2,9 -5,14 -23,31 l -102,-109 z m 308,162 -250,191 56,74 104,-80 c 39,-29 54,-38 72,-40 16,-1 33,7 46,23 12,16 16,31 13,42 -3,9 -10,18 -28,32 l -2,1 0,1 53,69 17,-13 c 37,-28 54,-47 62,-69 10,-26 3,-55 -22,-87 -32,-42 -60,-53 -102,-42 l -3,-4 37,-29 -53,-69 z"
       id="path5232"
       inkscape:connector-curvature="0"
       style="fill:#e2001a;fill-rule:nonzero" /><path
       class="fil1"
       d="m -1319,8736 c 522,0 945,423 945,945 0,204 -65,393 -174,547 -102,-121 -200,-243 -292,-365 21,-57 33,-118 33,-182 0,-283 -229,-512 -512,-512 -283,0 -512,229 -512,512 0,283 229,512 512,512 64,0 125,-12 182,-33 122,92 244,190 365,292 -154,109 -343,174 -547,174 -522,0 -945,-423 -945,-945 0,-522 423,-945 945,-945 z"
       id="path5234"
       inkscape:connector-curvature="0"
       style="fill:#ffffff" /><path
       class="fil1"
       d="m -1319,11374 c 147,0 286,34 411,94 525,-390 1014,-882 1400,-1409 -51,-116 -79,-244 -79,-378 0,-522 423,-945 945,-945 522,0 945,423 945,945 0,522 -423,945 -945,945 -157,0 -306,-39 -436,-107 -522,383 -1005,868 -1390,1389 60,124 94,264 94,411 0,522 -423,945 -945,945 -522,0 -945,-423 -945,-945 0,-522 423,-945 945,-945 z m 182,466 c 714,-540 1437,-1263 1977,-1977 -21,-57 -33,-118 -33,-182 0,-283 229,-512 512,-512 283,0 512,229 512,512 0,283 -229,512 -512,512 -64,0 -125,-12 -182,-33 -714,540 -1437,1263 -1977,1977 21,57 33,118 33,182 0,283 -229,512 -512,512 -283,0 -512,-229 -512,-512 0,-283 229,-512 512,-512 64,0 125,12 182,33 z"
       id="path5236"
       inkscape:connector-curvature="0"
       style="fill:#ffffff" /><path
       class="fil5"
       d="m 1319,11374 c 522,0 945,423 945,945 0,522 -423,945 -945,945 -522,0 -945,-423 -945,-945 0,-204 65,-393 174,-547 102,121 200,243 292,365 -21,57 -33,118 -33,182 0,283 229,512 512,512 283,0 512,-229 512,-512 0,-283 -229,-512 -512,-512 -64,0 -125,12 -182,33 -122,-92 -244,-190 -365,-292 154,-109 343,-174 547,-174 z"
       id="path5238"
       inkscape:connector-curvature="0"
       style="fill:#e2001a" /></g></svg>