<?xml version="1.0" encoding="UTF-8" standalone="no"?>
<!-- Creator: CorelDRAW X7 -->

<svg
   xmlns:dc="http://purl.org/dc/elements/1.1/"
   xmlns:cc="http://creativecommons.org/ns#"
   xmlns:rdf="http://www.w3.org/1999/02/22-rdf-syntax-ns#"
   xmlns:svg="http://www.w3.org/2000/svg"
   xmlns="http://www.w3.org/2000/svg"
   xmlns:sodipodi="http://sodipodi.sourceforge.net/DTD/sodipodi-0.dtd"
   xmlns:inkscape="http://www.inkscape.org/namespaces/inkscape"
   xml:space="preserve"
   width="7.8740005in"
   height="7.8740005in"
   version="1.1"
   style="clip-rule:evenodd;fill-rule:evenodd;image-rendering:optimizeQuality;shape-rendering:geometricPrecision;text-rendering:geometricPrecision"
   viewBox="0 0 7874.0005 7874.0005"
   id="svg5141"
   inkscape:version="0.91 r13725"
   sodipodi:docname="PanOceania - Squalo - [N3] [Vyo].svg"><metadata
     id="metadata5165"><rdf:RDF><cc:Work
         rdf:about=""><dc:format>image/svg+xml</dc:format><dc:type
           rdf:resource="http://purl.org/dc/dcmitype/StillImage" /></cc:Work></rdf:RDF></metadata><sodipodi:namedview
     pagecolor="#ffffff"
     bordercolor="#666666"
     borderopacity="1"
     objecttolerance="10"
     gridtolerance="10"
     guidetolerance="10"
     inkscape:pageopacity="0"
     inkscape:pageshadow="2"
     inkscape:window-width="640"
     inkscape:window-height="480"
     id="namedview5163"
     showgrid="false"
     inkscape:zoom="0.23838384"
     inkscape:cx="736.83001"
     inkscape:cy="849.33005"
     inkscape:window-x="0"
     inkscape:window-y="0"
     inkscape:window-maximized="0"
     inkscape:current-layer="svg5141" /><defs
     id="defs5143"><style
       type="text/css"
       id="style5145"><![CDATA[
    .fil3 {fill:none}
    .fil2 {fill:#00A5E6}
    .fil0 {fill:#00A5E6}
    .fil1 {fill:white}
    .fil4 {fill:#00A5E6;fill-rule:nonzero}
   ]]></style></defs><g
     id="Layer_x0020_1"
     transform="translate(3937,-7063)"><metadata
       id="CorelCorpID_0Corel-Layer" /><circle
       class="fil0"
       cy="11000"
       r="3937"
       id="circle5149"
       cx="0"
       style="fill:#00a5e6" /><circle
       class="fil1"
       cy="11000"
       r="3780"
       id="circle5151"
       cx="0"
       style="fill:#ffffff" /><path
       class="fil2"
       d="m 177,8210 c 324,21 633,96 918,217 -326,661 -780,1926 -780,2573 l 0,2778 c -46,5 -92,9 -138,12 l 0,-5580 z m 1259,391 c 108,65 212,138 310,216 -347,652 -1057,2018 -1057,2970 l 0,1923 c -46,11 -91,22 -138,31 l 0,-2150 c 0,-1131 433,-2082 885,-2990 z m 560,442 c 494,504 799,1195 799,1957 0,1234 -799,2280 -1907,2651 l 18,-1864 c 6,-669 772,-2179 1090,-2744 z m -2173,4747 c -46,-3 -92,-7 -138,-12 l 0,-2778 c 0,-647 -454,-1912 -780,-2573 285,-121 594,-196 918,-217 l 0,5580 z m -374,-49 c -47,-9 -92,-20 -138,-31 l 0,-1923 c 0,-952 -710,-2318 -1057,-2970 98,-78 202,-151 310,-216 452,908 885,1859 885,2990 l 0,2150 z m -337,-90 c -1108,-371 -1907,-1417 -1907,-2651 0,-762 305,-1453 799,-1957 318,565 1084,2075 1090,2744 l 18,1864 z"
       id="path5153"
       inkscape:connector-curvature="0"
       style="fill:#00a5e6" /><circle
       class="fil3"
       cy="11000"
       r="3898"
       id="circle5155"
       cx="0"
       style="fill:none" /><path
       class="fil4"
       d="m -2925,12881 90,116 95,-74 179,229 c 16,19 32,33 50,41 18,9 35,13 53,12 18,-1 36,-6 53,-13 17,-8 33,-17 48,-29 l 32,-25 c 20,-16 36,-31 48,-48 12,-16 20,-34 23,-53 4,-19 2,-39 -6,-62 -8,-23 -22,-48 -43,-74 l -246,-314 -376,294 z m 373,-106 132,169 c 14,17 20,32 19,45 -1,12 -8,24 -21,34 l -15,12 c -12,9 -24,14 -36,13 -12,0 -23,-7 -33,-20 l -141,-179 95,-74 z m 5,597 123,108 88,-36 223,196 -21,94 123,107 117,-532 -143,-126 -510,189 z m 508,-43 -47,198 -141,-124 188,-74 z m 111,576 130,66 158,-309 1,1 88,434 202,103 217,-427 -131,-66 -157,310 -1,-1 -89,-434 -202,-103 -216,426 z m 751,190 c -9,33 -12,62 -9,86 3,24 11,45 25,62 14,17 32,31 55,43 23,12 52,22 85,32 l 227,63 c 34,9 64,15 89,16 26,2 50,-1 70,-8 21,-8 39,-21 54,-40 15,-19 27,-45 36,-78 l 38,-138 c 9,-33 13,-62 10,-86 -3,-24 -12,-45 -26,-62 -14,-17 -32,-31 -55,-43 -23,-12 -51,-22 -85,-32 l -227,-63 c -34,-9 -63,-15 -89,-17 -26,-2 -49,1 -70,9 -20,7 -38,21 -53,40 -16,19 -28,45 -37,79 l -38,137 z m 171,-53 c 9,-32 21,-53 37,-65 17,-12 42,-13 77,-3 l 165,46 c 35,10 56,24 64,42 8,19 8,43 -1,75 l -14,49 c -9,35 -22,58 -36,68 -15,10 -38,11 -70,2 l -181,-50 c -32,-9 -52,-22 -59,-38 -7,-16 -6,-42 4,-77 l 14,-49 z m 548,245 c -1,34 3,62 12,85 9,23 23,41 40,54 18,13 39,22 64,28 26,6 56,9 91,9 l 236,5 c 36,1 65,-3 89,-9 23,-7 42,-17 55,-29 13,-13 22,-28 27,-44 5,-17 8,-37 8,-59 l 1,-45 -147,-2 c 0,15 -1,27 -4,35 -4,9 -8,16 -15,20 -6,4 -15,7 -25,8 -10,1 -25,1 -43,1 l -156,-3 c -33,-1 -56,-8 -67,-22 -10,-14 -16,-39 -15,-75 l 1,-52 c 1,-32 7,-56 20,-72 13,-15 37,-22 74,-22 l 159,3 c 23,1 40,5 52,11 11,7 16,19 16,35 l 0,13 146,3 c 1,-37 -1,-67 -7,-89 -5,-22 -15,-40 -31,-54 -16,-14 -39,-24 -70,-30 -30,-7 -71,-11 -123,-12 l -172,-3 c -35,-1 -65,1 -91,6 -25,5 -47,13 -65,25 -18,13 -32,30 -42,53 -10,22 -15,51 -16,85 l -2,143 z m 758,175 524,-90 -20,-113 -379,65 -13,-75 351,-60 -16,-98 -352,60 -13,-75 371,-64 -19,-109 -515,88 81,471 z m 617,-98 153,-60 8,-95 276,-110 74,62 151,-60 -421,-347 -177,70 -64,540 z m 193,-472 155,132 -174,69 19,-201 z m 565,167 119,-85 -201,-283 1,-1 425,123 185,-132 -277,-389 -119,85 201,283 -1,1 -426,-123 -184,132 277,389 z m 644,-484 106,-101 -331,-345 -106,102 331,344 z m 193,-170 102,-128 -39,-86 185,-232 94,17 102,-127 -537,-93 -119,149 212,500 z m -66,-505 199,38 -117,146 -82,-184 z"
       id="path5157"
       inkscape:connector-curvature="0"
       style="fill:#00a5e6;fill-rule:nonzero" /><path
       class="fil4"
       d="m -1854,7995 105,-68 179,274 c 4,6 13,22 28,48 13,23 21,43 24,60 3,16 1,34 -4,54 -4,12 -10,24 -17,35 -7,10 -18,21 -31,33 -14,11 -33,24 -57,40 -23,15 -43,27 -60,36 -17,10 -31,16 -44,20 -13,4 -25,6 -37,7 -19,1 -35,-2 -48,-7 -13,-5 -26,-15 -39,-30 -14,-15 -30,-36 -49,-65 l -185,-283 105,-69 185,283 c 10,16 19,27 28,32 8,5 18,6 29,3 11,-3 27,-12 47,-25 14,-9 24,-16 31,-23 6,-6 11,-13 12,-20 2,-7 1,-15 -3,-24 -3,-9 -9,-20 -18,-34 l -181,-277 z m 302,-169 248,456 -94,51 -248,-456 94,-51 z m 398,-4 33,79 -115,47 56,136 c 8,17 14,29 19,34 6,5 13,5 21,2 11,-5 17,-12 18,-20 1,-9 -4,-24 -13,-46 l -3,-8 79,-32 c 2,3 3,6 3,8 1,2 2,4 2,6 13,32 21,54 24,66 2,12 2,24 -1,36 -2,10 -6,19 -13,28 -7,8 -16,16 -29,24 -12,7 -28,15 -47,23 -28,11 -50,17 -67,16 -18,0 -34,-6 -48,-18 -7,-6 -13,-13 -18,-21 -5,-8 -10,-20 -17,-36 l -65,-157 -36,15 -33,-79 37,-15 -29,-71 99,-41 29,71 114,-47 z m 144,-207 26,84 -102,32 -26,-84 102,-32 z m 46,149 107,347 -102,31 -107,-347 102,-31 z m 113,-45 106,-18 6,57 2,0 c 3,-22 11,-39 25,-51 13,-12 32,-20 56,-24 63,-10 99,8 109,56 l 1,0 c 0,-16 3,-30 9,-42 6,-12 15,-22 27,-29 12,-8 26,-13 44,-16 22,-4 43,-3 61,2 18,6 32,15 42,28 11,15 20,40 25,75 l 39,240 -105,17 -33,-201 c -5,-28 -10,-46 -17,-54 -7,-8 -19,-11 -35,-9 -17,3 -28,10 -34,20 -6,11 -8,26 -4,47 l 34,211 -105,17 -34,-211 c -4,-25 -9,-40 -15,-47 -7,-6 -17,-8 -33,-6 -18,3 -30,10 -37,20 -6,10 -8,26 -5,47 l 35,212 -106,17 -58,-358 z m 729,15 -107,1 0,-9 c 0,-21 2,-37 6,-50 5,-14 12,-24 23,-31 10,-8 25,-14 43,-17 19,-4 42,-6 69,-6 43,0 76,3 99,11 24,7 40,21 50,39 10,19 15,45 15,80 l 3,235 -107,2 3,-60 -3,0 c -4,17 -10,30 -18,39 -8,9 -18,16 -31,19 -13,4 -30,6 -52,6 -20,1 -37,-1 -51,-6 -15,-4 -26,-10 -35,-20 -8,-9 -15,-21 -19,-35 -4,-14 -7,-32 -7,-53 0,-20 2,-37 6,-50 4,-14 11,-26 20,-35 9,-9 21,-16 36,-20 14,-4 32,-7 53,-7 21,0 37,1 49,3 12,3 22,7 28,13 7,6 12,16 17,29 l 2,0 0,-71 c 0,-17 -4,-29 -12,-36 -7,-7 -20,-11 -39,-11 -16,1 -26,3 -32,9 -5,5 -8,16 -9,31 z m 37,105 c -18,0 -31,3 -38,9 -7,5 -11,15 -11,30 0,15 4,25 12,31 7,5 22,7 45,7 19,0 31,-3 38,-9 6,-6 10,-17 9,-33 0,-14 -4,-23 -11,-28 -8,-5 -22,-7 -44,-7 z m 409,161 84,-512 233,38 c 27,5 49,10 65,15 16,6 28,12 37,20 20,15 32,35 37,58 5,22 5,53 -2,92 -6,39 -13,68 -20,86 -8,18 -18,32 -31,39 -14,8 -34,14 -60,16 l -1,6 c 19,4 34,11 45,20 11,10 18,22 22,37 3,16 3,34 0,56 l -15,93 -126,-20 11,-68 c 4,-25 3,-43 -3,-54 -6,-11 -19,-19 -38,-22 l -92,-15 -22,135 -124,-20 z m 165,-231 98,16 c 14,2 24,1 32,-1 7,-3 13,-10 17,-20 5,-11 9,-28 13,-53 2,-18 3,-31 2,-40 -1,-9 -6,-15 -13,-20 -7,-4 -18,-8 -34,-10 l -92,-15 -23,143 z m 476,107 -101,-34 3,-10 c 7,-19 14,-34 23,-45 9,-11 19,-18 32,-22 12,-3 27,-4 46,-1 18,3 41,8 67,17 40,14 70,28 90,43 19,15 31,33 34,54 3,21 -1,48 -12,80 l -76,223 -101,-34 22,-55 -2,-1 c -10,14 -20,25 -30,31 -10,6 -22,8 -36,8 -13,-1 -30,-5 -51,-12 -19,-6 -35,-14 -47,-23 -11,-8 -20,-18 -25,-30 -5,-11 -8,-25 -7,-40 1,-15 5,-32 11,-52 7,-19 14,-34 23,-45 8,-12 18,-21 30,-26 12,-6 25,-8 40,-7 15,0 33,4 53,11 19,6 35,13 45,19 11,6 18,13 22,21 4,8 7,19 7,33 l 2,1 23,-67 c 5,-16 6,-29 1,-38 -5,-9 -16,-17 -34,-23 -14,-5 -25,-6 -32,-3 -7,4 -14,12 -20,27 z m 1,111 c -18,-6 -31,-7 -40,-4 -8,3 -15,11 -19,24 -5,15 -5,26 0,33 6,8 19,15 40,22 18,6 31,8 39,4 8,-3 15,-12 20,-28 5,-13 4,-23 -1,-30 -6,-7 -19,-14 -39,-21 z m 544,-10 -36,77 -113,-52 -62,134 c -7,17 -11,29 -11,36 0,8 4,13 12,17 11,5 20,5 27,0 7,-6 15,-19 25,-41 l 3,-7 78,36 c -2,3 -3,6 -4,8 -1,1 -2,3 -3,5 -15,31 -26,52 -33,62 -7,10 -16,18 -27,24 -9,6 -18,9 -29,9 -11,1 -23,-1 -37,-5 -14,-4 -31,-10 -49,-19 -27,-12 -46,-25 -58,-38 -12,-13 -18,-29 -18,-48 -1,-9 0,-18 3,-27 3,-9 8,-21 15,-36 l 71,-155 -36,-16 36,-78 36,17 32,-70 97,45 -32,70 113,52 z m 246,-40 -43,76 -93,-53 43,-76 93,53 z m -76,135 -180,316 -93,-53 179,-316 94,53 z m 215,129 c 33,22 55,40 67,54 12,15 19,31 22,48 2,18 -1,36 -8,55 -7,19 -21,43 -41,72 -25,37 -47,64 -65,83 -18,20 -36,32 -54,38 -17,5 -36,4 -56,-3 -20,-7 -44,-20 -73,-40 -20,-13 -36,-26 -48,-37 -13,-12 -23,-23 -29,-33 -7,-11 -11,-23 -13,-36 -2,-13 -1,-25 2,-38 2,-12 8,-26 18,-43 9,-17 23,-39 43,-68 23,-34 43,-58 58,-72 16,-14 33,-23 51,-27 12,-2 23,-2 35,1 11,2 24,6 38,13 14,8 32,18 53,33 z m -50,73 c -13,-9 -24,-14 -34,-14 -9,-1 -18,3 -28,12 -9,9 -22,24 -36,45 -13,18 -22,33 -28,45 -7,12 -11,22 -12,30 -1,9 1,16 6,22 4,7 12,13 23,21 13,9 24,13 33,13 10,0 20,-6 31,-17 11,-11 25,-30 44,-57 13,-19 21,-35 25,-46 4,-11 4,-21 0,-29 -3,-8 -11,-16 -24,-25 z"
       id="path5159"
       inkscape:connector-curvature="0"
       style="fill:#00a5e6;fill-rule:nonzero" /><circle
       class="fil3"
       cy="11000"
       r="3898"
       id="circle5161"
       cx="0"
       style="fill:none" /></g></svg>