<?xml version="1.0" encoding="UTF-8" standalone="no"?>
<!-- Creator: CorelDRAW X7 -->

<svg
   xmlns:dc="http://purl.org/dc/elements/1.1/"
   xmlns:cc="http://creativecommons.org/ns#"
   xmlns:rdf="http://www.w3.org/1999/02/22-rdf-syntax-ns#"
   xmlns:svg="http://www.w3.org/2000/svg"
   xmlns="http://www.w3.org/2000/svg"
   xmlns:sodipodi="http://sodipodi.sourceforge.net/DTD/sodipodi-0.dtd"
   xmlns:inkscape="http://www.inkscape.org/namespaces/inkscape"
   xml:space="preserve"
   width="7.8740005in"
   height="7.8740005in"
   version="1.1"
   style="clip-rule:evenodd;fill-rule:evenodd;image-rendering:optimizeQuality;shape-rendering:geometricPrecision;text-rendering:geometricPrecision"
   viewBox="0 0 7874.0005 7874.0005"
   id="svg4438"
   inkscape:version="0.91 r13725"
   sodipodi:docname="PanOceania - Knights of the Holy Sepulchre - [N3] [Vyo].svg"><metadata
     id="metadata4462"><rdf:RDF><cc:Work
         rdf:about=""><dc:format>image/svg+xml</dc:format><dc:type
           rdf:resource="http://purl.org/dc/dcmitype/StillImage" /></cc:Work></rdf:RDF></metadata><sodipodi:namedview
     pagecolor="#ffffff"
     bordercolor="#666666"
     borderopacity="1"
     objecttolerance="10"
     gridtolerance="10"
     guidetolerance="10"
     inkscape:pageopacity="0"
     inkscape:pageshadow="2"
     inkscape:window-width="640"
     inkscape:window-height="480"
     id="namedview4460"
     showgrid="false"
     inkscape:zoom="0.23838384"
     inkscape:cx="736.83001"
     inkscape:cy="849.33005"
     inkscape:window-x="0"
     inkscape:window-y="0"
     inkscape:window-maximized="0"
     inkscape:current-layer="svg4438" /><defs
     id="defs4440"><style
       type="text/css"
       id="style4442"><![CDATA[
    .fil2 {fill:none}
    .fil0 {fill:black}
    .fil4 {fill:#E2001A}
    .fil1 {fill:white}
    .fil3 {fill:white;fill-rule:nonzero}
   ]]></style></defs><g
     id="Layer_x0020_1"
     transform="translate(3937,-7063)"><metadata
       id="CorelCorpID_0Corel-Layer" /><circle
       class="fil0"
       cy="11000"
       r="3937"
       id="circle4446"
       cx="0"
       style="fill:#000000" /><circle
       class="fil1"
       cy="11000"
       r="3150"
       id="circle4448"
       cx="0"
       style="fill:#ffffff" /><circle
       class="fil2"
       cy="11000"
       r="3898"
       id="circle4450"
       cx="0"
       style="fill:none" /><path
       class="fil3"
       d="m -1850,14311 273,123 c 127,58 164,66 208,47 42,-20 72,-64 128,-187 35,-77 46,-108 53,-145 9,-49 -4,-88 -37,-114 -29,-23 -42,-29 -138,-73 l -272,-124 -215,473 z m 168,-69 106,-234 160,72 c 70,32 84,42 88,64 4,21 -4,49 -30,107 -48,107 -59,111 -163,63 l -161,-72 z m 710,289 c -13,30 -28,32 -95,13 -38,-10 -60,-21 -68,-35 -7,-13 -7,-25 3,-61 l 277,78 c 5,-15 9,-32 11,-36 23,-83 24,-126 4,-160 -19,-31 -51,-47 -143,-73 -92,-26 -130,-29 -164,-13 -37,18 -56,52 -83,146 -25,90 -27,128 -7,162 19,31 55,51 138,74 151,43 197,30 232,-66 l -105,-29 z m -139,-156 c 15,-49 35,-56 106,-35 41,11 62,23 68,38 4,10 4,17 -4,45 l -170,-48 z m 683,387 65,-363 -109,-19 -26,146 c -12,67 -19,86 -37,100 -16,12 -37,14 -75,7 -41,-7 -58,-15 -67,-32 -9,-17 -9,-34 0,-86 l 29,-166 -108,-19 -29,165 c -18,99 -17,128 3,166 20,38 54,57 121,69 73,13 111,1 135,-42 l 6,1 -10,55 102,18 z m 82,-109 c 0,43 7,69 24,90 26,30 62,39 169,42 85,2 139,-4 166,-19 31,-16 46,-50 47,-105 2,-82 -29,-115 -114,-117 -114,-4 -132,-5 -150,-7 -18,-2 -27,-10 -26,-25 0,-23 21,-30 91,-28 36,1 59,5 68,13 4,2 5,6 7,17 l 112,2 c -1,-44 -6,-63 -21,-79 -25,-27 -61,-36 -161,-38 -81,-2 -132,3 -156,15 -33,15 -49,49 -51,104 -2,79 32,112 116,116 107,2 135,4 150,6 16,2 26,13 25,27 0,27 -22,34 -93,32 -69,-1 -90,-11 -91,-43 l -112,-3 z m 556,-380 293,476 190,-34 110,-546 -136,24 -80,408 -24,4 -216,-356 -137,24 z m 1099,284 -101,-354 -106,30 40,142 c 19,66 21,86 11,107 -10,18 -28,28 -65,39 -39,11 -58,12 -74,0 -16,-11 -23,-26 -38,-77 l -46,-162 -106,30 46,162 c 28,96 41,122 76,147 34,25 74,28 139,9 71,-20 100,-47 103,-96 l 5,-2 16,53 100,-28 z m -112,-524 191,483 102,-41 -191,-482 -102,40 z m 197,-9 39,75 -51,27 45,87 51,-26 49,95 c 22,42 22,42 28,52 20,34 34,50 56,59 32,14 61,7 123,-25 68,-35 92,-61 96,-102 2,-32 -4,-54 -35,-116 l -90,46 7,13 c 20,39 17,52 -14,68 -20,10 -32,10 -43,1 -9,-7 -12,-12 -30,-46 l -49,-96 155,-79 -45,-88 -155,80 -39,-76 -98,51 z"
       id="path4452"
       inkscape:connector-curvature="0"
       style="fill:#ffffff;fill-rule:nonzero" /><circle
       class="fil2"
       cy="11000"
       r="3898"
       id="circle4454"
       cx="0"
       style="fill:none" /><path
       class="fil3"
       d="m -2391,13800 229,-242 -242,-230 -55,58 177,168 -37,39 -167,-158 -50,53 167,158 -33,35 -176,-166 -54,57 241,228 z m -382,-791 9,44 c -16,12 -34,26 -59,47 -74,64 -95,91 -95,121 1,30 17,55 98,149 81,94 103,113 132,118 30,5 60,-12 133,-74 72,-62 93,-89 93,-120 -1,-29 -17,-54 -96,-146 -85,-99 -104,-116 -137,-121 l -1,-38 -77,20 z m 35,263 77,-19 -20,-110 c 12,10 24,23 53,56 51,60 60,72 60,88 0,13 -9,25 -40,52 -33,28 -50,39 -62,42 -19,5 -27,-1 -85,-68 -54,-63 -60,-73 -56,-89 4,-14 17,-28 53,-59 2,-2 4,-4 9,-7 l 11,114 z m -265,-144 129,-83 c 47,-31 47,-31 57,-39 38,-27 52,-42 58,-63 10,-33 -5,-68 -67,-164 -36,-57 -55,-82 -75,-102 -26,-24 -60,-29 -95,-12 -21,10 -26,13 -90,53 l -129,83 50,77 129,-84 c 6,-4 20,-13 31,-19 26,-14 34,-18 45,-16 16,1 29,16 63,69 42,65 47,83 27,101 -10,9 -10,10 -54,39 l -129,83 50,77 z m -261,-417 303,-138 -137,-304 -73,33 101,222 -49,22 -94,-209 -67,30 94,209 -44,20 -100,-220 -71,32 137,303 z m 44,-433 16,-5 c 45,-15 62,-28 68,-53 6,-25 -1,-62 -28,-147 -28,-89 -43,-123 -56,-138 -22,-24 -52,-26 -106,-9 -46,15 -65,29 -72,55 -6,22 -3,42 24,135 18,63 24,86 24,94 0,9 -5,15 -17,19 -23,7 -27,2 -50,-71 -21,-66 -24,-76 -20,-85 4,-6 8,-9 23,-14 l -27,-84 c -6,1 -13,4 -15,4 -39,13 -57,27 -64,50 -6,24 -1,56 25,135 33,104 43,128 64,146 19,16 51,16 98,1 32,-10 50,-22 61,-37 12,-18 12,-40 1,-82 -3,-9 -11,-39 -19,-71 -9,-31 -16,-59 -19,-69 -9,-28 -6,-36 13,-42 13,-5 21,-4 27,2 6,6 10,16 31,82 20,61 22,71 18,81 -2,8 -8,12 -27,18 l 27,85 z m -338,-334 83,-19 -30,-130 242,-56 -21,-93 -243,56 -30,-131 -82,19 81,354 z m 240,-462 -7,-91 -84,7 -10,-129 c -3,-38 -2,-45 5,-51 8,-8 20,-11 57,-14 l 18,-1 -7,-90 -31,2 c -77,4 -91,14 -94,60 -4,-18 -9,-26 -17,-35 -15,-14 -35,-17 -82,-13 -58,4 -80,13 -93,37 -12,20 -12,20 -4,123 l 17,221 332,-26 z m -174,-78 -82,6 -10,-128 c -3,-42 -3,-43 0,-50 4,-9 14,-13 35,-15 22,-2 32,0 38,8 5,6 5,6 9,51 l 10,128 z m -185,-331 334,-6 -2,-96 -333,6 1,96 z m 218,-153 16,1 c 47,4 67,-2 83,-23 15,-21 22,-58 29,-147 7,-93 7,-130 0,-149 -11,-30 -38,-44 -95,-48 -47,-4 -71,3 -87,24 -14,18 -18,38 -28,134 -7,65 -11,88 -14,96 -3,9 -10,12 -22,11 -25,-2 -26,-8 -20,-85 5,-68 7,-79 14,-85 5,-5 10,-6 26,-5 l 7,-88 c -7,-1 -14,-2 -16,-2 -40,-3 -62,4 -77,22 -16,20 -23,51 -29,135 -8,108 -7,134 5,159 11,22 40,34 90,38 33,3 55,-1 71,-11 18,-12 26,-33 31,-76 1,-10 5,-40 9,-73 4,-31 8,-61 8,-71 3,-29 9,-36 29,-34 14,1 21,4 24,11 3,9 3,20 -2,89 -5,64 -7,74 -14,82 -5,7 -12,8 -32,6 l -6,89 z m -121,-793 c -28,121 -30,150 -17,177 14,26 46,41 136,61 95,22 129,23 154,5 24,-18 34,-46 62,-168 27,-120 30,-149 16,-176 -14,-27 -45,-41 -138,-62 -93,-21 -128,-22 -152,-4 -23,18 -34,45 -61,167 z m 84,19 c 19,-82 23,-92 39,-98 13,-5 32,-3 79,7 39,9 53,15 59,28 7,13 6,29 -10,100 -17,72 -22,88 -35,97 -11,8 -25,8 -66,-1 -43,-10 -60,-16 -71,-25 -15,-12 -14,-22 5,-108 z m 312,-189 33,-85 -79,-30 47,-121 c 13,-35 16,-41 26,-44 11,-4 23,-1 58,12 l 16,7 32,-84 -29,-11 c -71,-30 -88,-28 -110,14 4,-19 3,-29 -1,-40 -8,-19 -24,-30 -69,-47 -53,-21 -77,-22 -99,-7 -20,14 -20,14 -57,110 l -79,207 311,119 z m -124,-145 -76,-30 46,-120 c 16,-39 16,-40 22,-45 7,-6 17,-6 38,2 20,7 28,13 30,23 2,7 2,7 -14,50 l -46,120 z m 274,-244 107,-188 c 51,-88 59,-113 51,-145 -9,-30 -35,-53 -110,-96 -47,-27 -67,-36 -91,-41 -31,-8 -57,0 -78,22 -18,20 -23,28 -61,95 l -108,188 290,165 z m -29,-120 -143,-82 62,-110 c 28,-48 36,-58 51,-60 14,-2 32,4 67,24 66,38 67,45 26,117 l -63,111 z m 87,-621 c -71,102 -84,128 -82,158 3,29 28,55 104,108 80,56 111,69 140,62 29,-8 49,-30 121,-132 70,-102 84,-128 81,-158 -3,-30 -26,-54 -105,-109 -79,-55 -110,-68 -139,-61 -29,8 -48,30 -120,132 z m 71,49 c 48,-69 56,-77 73,-76 14,0 31,9 70,36 33,23 44,34 45,48 2,15 -6,30 -47,89 -43,61 -54,73 -69,77 -14,3 -26,-2 -60,-26 -36,-25 -50,-37 -57,-49 -9,-18 -5,-26 45,-99 z m 358,-224 11,12 c 33,34 52,44 78,38 25,-5 55,-27 120,-89 67,-63 92,-91 100,-110 12,-29 1,-58 -38,-99 -33,-35 -54,-46 -80,-41 -22,4 -39,16 -112,80 -49,44 -67,59 -74,62 -9,4 -16,2 -24,-7 -17,-17 -14,-23 42,-76 50,-47 58,-54 68,-54 7,0 11,3 23,14 l 64,-60 c -4,-5 -9,-10 -10,-12 -29,-30 -49,-40 -73,-36 -25,4 -51,23 -112,80 -79,75 -95,95 -103,121 -6,24 7,53 41,89 23,24 42,36 60,39 22,4 42,-6 74,-35 7,-6 31,-26 56,-47 24,-21 47,-41 54,-47 21,-20 30,-21 44,-7 9,10 12,18 10,25 -4,9 -11,16 -61,64 -47,44 -55,50 -65,52 -9,1 -15,-2 -28,-17 l -65,61 z m 631,-402 82,-64 -329,-166 -112,88 80,361 83,-65 -15,-60 156,-123 55,29 z m -125,-66 -106,82 -32,-135 14,-11 124,64 z m 69,-296 164,291 81,-46 -124,-215 8,-5 260,138 138,-78 -164,-290 -81,46 124,215 -8,5 -259,-139 -139,78 z m 793,-162 c 18,47 17,47 -76,85 -90,36 -91,35 -123,-43 -19,-47 -23,-67 -17,-80 6,-11 20,-19 73,-40 19,-8 45,-17 58,-22 19,-6 27,-6 32,-2 6,3 8,7 16,25 l 85,-34 -6,-16 c -21,-51 -39,-70 -70,-73 -23,-2 -51,6 -122,34 -143,58 -171,79 -171,124 0,21 8,47 37,118 15,36 26,62 33,76 17,33 34,47 59,51 28,3 64,-7 170,-50 64,-26 94,-41 113,-59 24,-23 26,-50 6,-99 -2,-5 -5,-12 -12,-29 l -85,34 z m 64,-235 24,82 128,-38 69,239 92,-27 -69,-238 129,-37 -24,-82 -349,101 z m 420,-106 56,329 95,-16 -56,-329 -95,16 z m 307,177 1,16 c 4,47 12,67 36,79 22,12 60,13 149,7 93,-7 129,-13 147,-23 28,-15 38,-44 33,-101 -3,-48 -13,-69 -36,-82 -20,-11 -40,-13 -137,-8 -66,3 -89,3 -97,1 -9,-2 -14,-9 -15,-21 -1,-24 5,-26 81,-32 69,-5 79,-5 87,1 5,4 7,9 9,25 l 88,-7 c 0,-6 -1,-13 -1,-15 -3,-41 -13,-62 -33,-74 -23,-12 -54,-14 -138,-8 -108,8 -134,13 -156,29 -20,15 -28,45 -25,95 3,33 10,54 22,68 15,16 37,21 80,20 10,-1 40,-2 73,-2 32,-1 62,-2 72,-3 29,-1 37,3 38,23 1,14 -1,22 -8,26 -8,4 -18,6 -87,11 -65,5 -75,4 -84,-1 -7,-4 -9,-11 -11,-31 l -88,7 z m 443,-249 -25,332 333,26 6,-80 -243,-18 4,-53 229,17 6,-73 -229,-18 3,-48 242,18 6,-78 -332,-25 z m 348,361 90,15 14,-80 114,19 c 65,11 86,12 107,7 37,-9 53,-35 65,-107 15,-86 3,-114 -54,-133 -15,-5 -24,-7 -77,-16 l -203,-34 -56,329 z m 118,-148 14,-84 113,20 c 40,7 41,7 47,11 10,7 12,17 8,40 -4,23 -9,32 -18,36 -9,3 -10,3 -51,-4 l -113,-19 z m 370,-101 -44,147 c -15,54 -15,54 -18,67 -11,45 -11,65 -2,85 14,31 47,49 156,81 66,19 97,26 125,28 35,2 64,-17 80,-52 9,-22 11,-27 33,-99 l 43,-148 -87,-25 -43,147 c -3,7 -8,23 -12,35 -10,27 -14,36 -23,42 -13,8 -32,6 -92,-12 -75,-22 -90,-32 -88,-59 2,-13 2,-14 16,-64 l 43,-148 -87,-25 z m 467,147 -139,304 281,128 35,-77 -193,-89 103,-226 -87,-40 z m 487,480 c -24,43 -26,43 -113,-7 -84,-48 -84,-50 -42,-124 25,-43 38,-59 52,-61 12,-3 28,3 77,31 18,11 41,25 53,33 17,11 22,17 22,23 0,7 -1,11 -10,29 l 79,45 9,-14 c 27,-48 30,-74 14,-100 -12,-20 -36,-37 -103,-75 -133,-76 -167,-86 -203,-58 -16,13 -32,36 -69,103 -20,33 -33,58 -40,72 -15,34 -16,56 -3,78 14,24 45,46 144,103 60,34 91,48 116,52 34,4 56,-11 82,-56 3,-5 6,-12 15,-28 l -80,-46 z m 54,181 71,57 53,-66 101,81 c 30,23 34,28 34,39 0,11 -6,21 -29,51 l -11,13 70,56 20,-24 c 49,-59 52,-75 20,-109 16,9 26,12 38,11 20,-2 35,-14 65,-51 36,-45 45,-67 37,-93 -7,-23 -7,-23 -88,-87 l -172,-138 -209,260 z m 176,-74 52,-64 100,80 c 33,27 34,28 37,35 3,9 0,19 -13,35 -14,17 -22,23 -32,23 -7,-1 -7,-1 -43,-29 l -101,-80 z m 377,94 -230,242 70,66 229,-242 -69,-66 z m 219,211 -251,220 64,72 90,-80 136,155 -90,80 63,72 251,-220 -64,-72 -89,79 -137,-155 90,-79 -63,-72 z m 308,375 -272,194 56,78 271,-194 -55,-78 z m 111,148 -291,164 165,291 69,-40 -120,-212 46,-26 113,200 64,-36 -113,-200 43,-24 119,211 68,-39 -163,-289 z m -104,488 37,84 77,-35 53,118 c 16,34 18,41 13,50 -5,10 -15,16 -49,32 l -16,7 37,82 28,-13 c 71,-30 82,-44 68,-88 11,16 18,22 29,27 19,8 38,4 82,-16 52,-24 70,-39 74,-66 4,-23 4,-23 -38,-118 l -91,-201 -304,137 z m 190,14 75,-33 53,117 c 17,39 17,40 17,47 -1,10 -8,17 -28,26 -19,9 -30,11 -38,5 -6,-4 -6,-4 -26,-44 l -53,-118 z m 359,467 c -34,-120 -46,-146 -71,-163 -25,-16 -60,-14 -149,12 -93,27 -124,43 -137,71 -11,27 -7,56 28,176 34,119 46,146 71,163 25,16 59,13 151,-13 92,-27 122,-43 134,-70 12,-28 8,-56 -27,-176 z m -83,24 c 24,81 25,92 14,105 -9,10 -27,18 -73,32 -38,11 -53,12 -65,4 -13,-8 -19,-23 -39,-93 -21,-71 -23,-87 -17,-101 6,-13 18,-20 58,-31 42,-12 61,-16 74,-13 20,4 24,12 48,97 z m -70,286 -15,3 c -47,7 -66,18 -76,42 -10,24 -8,62 7,150 16,91 25,127 36,144 18,27 48,33 104,24 47,-8 68,-20 79,-44 9,-21 8,-41 -5,-137 -9,-65 -11,-89 -10,-97 1,-9 7,-14 19,-16 24,-4 27,2 40,78 11,68 12,78 7,86 -4,6 -8,8 -25,11 l 15,87 c 7,-1 14,-2 16,-2 40,-7 60,-19 70,-40 10,-24 9,-55 -5,-138 -18,-107 -25,-132 -43,-153 -16,-18 -48,-24 -96,-15 -33,5 -54,14 -67,28 -14,16 -17,38 -12,81 2,10 6,40 9,73 4,31 7,61 9,71 5,29 1,37 -19,40 -14,2 -22,0 -26,-6 -6,-7 -8,-17 -19,-86 -11,-63 -12,-73 -7,-83 3,-8 9,-10 29,-14 l -15,-87 z m 301,618 c -2,-125 -6,-153 -26,-176 -20,-22 -54,-29 -147,-27 -97,1 -131,9 -150,32 -19,23 -22,52 -20,178 2,123 6,152 26,175 20,22 53,28 149,27 96,-2 129,-9 148,-32 19,-24 22,-52 20,-177 z m -86,1 c 1,85 0,95 -15,105 -11,8 -31,11 -78,12 -40,0 -55,-3 -64,-13 -10,-11 -13,-27 -14,-100 -1,-74 1,-90 10,-102 10,-11 23,-14 65,-15 44,-1 62,1 74,7 18,9 20,18 22,106 z m 81,283 -332,-25 -24,308 85,7 16,-213 248,19 7,-96 z m -20,275 -242,134 -116,-20 -16,93 117,20 185,198 19,-118 -116,-114 148,-74 21,-119 z m -91,501 -315,-108 -29,85 236,79 -5,15 -273,26 -24,72 199,188 -5,14 -235,-83 -30,85 316,109 53,-156 -175,-155 233,-14 54,-157 z m -206,558 -304,-139 -40,87 304,139 40,-87 z m -65,144 -73,-42 -67,116 -216,-123 -47,83 216,124 -67,116 74,42 180,-316 z m -652,411 -60,85 363,64 82,-116 -180,-322 -60,85 31,53 -115,162 -61,-11 z m 139,28 78,-110 69,121 -10,14 -137,-25 z m 23,302 -242,-229 -64,67 182,170 -7,7 -289,-56 -109,115 242,229 64,-67 -182,-170 6,-6 289,56 110,-116 z m -355,359 -218,-253 -72,62 217,253 73,-62 z"
       id="path4456"
       inkscape:connector-curvature="0"
       style="fill:#ffffff;fill-rule:nonzero" /><path
       class="fil4"
       d="m -945,8992 0,-551 1890,0 0,551 -669,0 0,1732 1732,0 0,-669 551,0 0,1890 -551,0 0,-669 -1732,0 0,1732 669,0 0,551 -1890,0 0,-551 669,0 0,-1732 -1732,0 0,669 -551,0 0,-1890 551,0 0,669 1732,0 0,-1732 -669,0 z m 1614,3012 335,0 0,-335 276,0 0,335 334,0 0,276 -334,0 0,334 -276,0 0,-334 -335,0 0,-276 z m -2283,0 334,0 0,-335 276,0 0,335 335,0 0,276 -335,0 0,334 -276,0 0,-334 -334,0 0,-276 z m 2283,-2284 335,0 0,-334 276,0 0,334 334,0 0,276 -334,0 0,335 -276,0 0,-335 -335,0 0,-276 z m -2283,0 334,0 0,-334 276,0 0,334 335,0 0,276 -335,0 0,335 -276,0 0,-335 -334,0 0,-276 z"
       id="path4458"
       inkscape:connector-curvature="0"
       style="fill:#e2001a" /></g></svg>