<?xml version="1.0" encoding="UTF-8" standalone="no"?>
<!-- Creator: CorelDRAW X7 -->

<svg
   xmlns:dc="http://purl.org/dc/elements/1.1/"
   xmlns:cc="http://creativecommons.org/ns#"
   xmlns:rdf="http://www.w3.org/1999/02/22-rdf-syntax-ns#"
   xmlns:svg="http://www.w3.org/2000/svg"
   xmlns="http://www.w3.org/2000/svg"
   xmlns:sodipodi="http://sodipodi.sourceforge.net/DTD/sodipodi-0.dtd"
   xmlns:inkscape="http://www.inkscape.org/namespaces/inkscape"
   xml:space="preserve"
   width="7.8740005in"
   height="7.8740005in"
   version="1.1"
   style="clip-rule:evenodd;fill-rule:evenodd;image-rendering:optimizeQuality;shape-rendering:geometricPrecision;text-rendering:geometricPrecision"
   viewBox="0 0 7874.0005 7874.0005"
   id="svg5084"
   inkscape:version="0.91 r13725"
   sodipodi:docname="PanOceania - Seraphs - [N3] [Vyo].svg"><metadata
     id="metadata5139"><rdf:RDF><cc:Work
         rdf:about=""><dc:format>image/svg+xml</dc:format><dc:type
           rdf:resource="http://purl.org/dc/dcmitype/StillImage" /></cc:Work></rdf:RDF></metadata><sodipodi:namedview
     pagecolor="#ffffff"
     bordercolor="#666666"
     borderopacity="1"
     objecttolerance="10"
     gridtolerance="10"
     guidetolerance="10"
     inkscape:pageopacity="0"
     inkscape:pageshadow="2"
     inkscape:window-width="640"
     inkscape:window-height="480"
     id="namedview5137"
     showgrid="false"
     inkscape:zoom="0.23838384"
     inkscape:cx="736.83001"
     inkscape:cy="849.33005"
     inkscape:window-x="0"
     inkscape:window-y="0"
     inkscape:window-maximized="0"
     inkscape:current-layer="svg5084" /><defs
     id="defs5086"><style
       type="text/css"
       id="style5088"><![CDATA[
    .fil3 {fill:none}
    .fil0 {fill:black}
    .fil2 {fill:#E2001A}
    .fil1 {fill:white}
    .fil4 {fill:white;fill-rule:nonzero}
   ]]></style></defs><g
     id="Layer_x0020_1"
     transform="translate(3937,-7063)"><metadata
       id="CorelCorpID_0Corel-Layer" /><circle
       class="fil0"
       cy="11000"
       r="3937"
       id="circle5092"
       cx="0"
       style="fill:#000000" /><circle
       class="fil1"
       cy="11000"
       r="3150"
       id="circle5094"
       cx="0"
       style="fill:#ffffff" /><path
       class="fil2"
       d="m 413,8461 c 959,0 1839,583 2082,1768 -134,-229 -315,-428 -547,-557 -62,-122 -139,-238 -230,-344 C 1481,9051 1136,8841 764,8835 668,8690 541,8549 413,8461 Z m -826,0 c -959,0 -1839,583 -2082,1768 134,-229 315,-428 547,-557 62,-122 139,-238 230,-344 237,-277 582,-487 954,-493 96,-145 223,-286 351,-374 z m -2185,2716 c 0,689 964,1654 1968,2126 -129,-120 -248,-252 -353,-390 -43,-25 -88,-54 -115,-74 -346,-257 -620,-610 -808,-996 -165,-340 -279,-739 -279,-1119 0,-67 2,-134 7,-201 -259,171 -420,416 -420,654 z m 1305,1245 c -155,-305 -242,-607 -242,-851 0,-571 472,-1043 629,-1142 -118,-98 -304,-138 -472,-138 -117,0 -230,14 -337,38 -27,56 -49,116 -66,176 -47,157 -69,332 -69,495 0,283 94,584 211,839 94,204 211,400 346,583 z m -702,-2653 c -335,220 -617,645 -741,1329 48,-123 125,-242 221,-349 98,-119 210,-217 344,-296 24,-236 80,-469 176,-684 z m 313,497 c 105,-22 208,-34 304,-34 107,0 227,16 335,54 0,-54 13,-137 43,-213 -73,-54 -152,-97 -220,-97 -221,0 -366,123 -462,290 z m 4280,911 c 0,689 -964,1654 -1968,2126 129,-120 248,-252 353,-390 43,-25 88,-54 115,-74 346,-257 620,-610 808,-996 165,-340 279,-739 279,-1119 0,-67 -2,-134 -7,-201 259,171 420,416 420,654 z m -1305,1245 c 155,-305 242,-607 242,-851 0,-571 -472,-1043 -629,-1142 118,-98 304,-138 472,-138 117,0 230,14 337,38 27,56 49,116 66,176 47,157 69,332 69,495 0,283 -94,584 -211,839 -94,204 -211,400 -346,583 z m 702,-2653 c 335,220 617,645 741,1329 -48,-123 -125,-242 -221,-349 -98,-119 -210,-217 -344,-296 -24,-236 -80,-469 -176,-684 z m -313,497 c -105,-22 -208,-34 -304,-34 -107,0 -227,16 -335,54 0,-54 -13,-137 -43,-213 73,-54 152,-97 220,-97 221,0 366,123 462,290 z"
       id="path5096"
       inkscape:connector-curvature="0"
       style="fill:#e2001a" /><path
       class="fil0"
       d="m 0,13835 c 32,-579 35,-2379 256,-2835 335,-689 728,-1083 964,-1083 552,0 689,689 689,1083 0,504 -295,1201 -846,1791 689,-511 1063,-1397 1063,-2067 0,-1181 -748,-1830 -1378,-1830 -177,0 -236,39 -236,98 0,118 236,315 295,315 138,0 236,40 236,138 0,236 -846,768 -1043,768 -197,0 -1043,-532 -1043,-768 0,-98 98,-138 236,-138 59,0 295,-197 295,-315 0,-59 -59,-98 -236,-98 -630,0 -1378,649 -1378,1830 0,670 354,1457 1024,2048 -552,-591 -807,-1268 -807,-1772 0,-394 137,-1083 688,-1083 237,0 630,394 965,1083 221,456 224,2256 256,2835 z"
       id="path5098"
       inkscape:connector-curvature="0"
       style="fill:#000000" /><circle
       class="fil3"
       cy="11000"
       r="3898"
       id="circle5100"
       cx="0"
       style="fill:none" /><path
       class="fil4"
       d="m -1951,13717 -27,413 149,86 343,-230 -107,-61 -254,173 -19,-11 22,-308 -107,-62 z m 573,425 c -81,-37 -119,-47 -149,-41 -31,7 -49,26 -74,82 -31,69 -36,94 -22,123 14,29 43,48 131,88 88,40 121,49 152,40 30,-8 47,-28 76,-93 27,-60 30,-86 15,-114 -15,-26 -48,-48 -129,-85 z m -30,68 c 26,12 47,24 55,34 13,14 12,28 -2,59 -23,51 -38,54 -106,24 -29,-14 -49,-26 -58,-36 -12,-14 -11,-27 3,-58 23,-51 40,-54 108,-23 z m 278,-77 -120,350 93,32 120,-350 -93,-32 z m 391,494 59,-256 -96,-22 -23,103 c -11,47 -18,60 -34,69 -14,8 -33,7 -67,-1 -35,-8 -50,-15 -59,-28 -8,-13 -8,-25 1,-62 l 27,-117 -96,-22 -27,117 c -16,70 -16,91 2,120 18,28 48,45 107,58 64,15 98,10 120,-19 l 5,1 -9,38 90,21 z m 111,-243 -34,261 98,12 13,-104 c 6,-48 10,-60 24,-71 13,-10 33,-13 69,-8 36,5 54,11 63,23 10,11 10,21 5,62 l -16,119 98,13 15,-119 c 9,-72 7,-92 -13,-120 -21,-27 -52,-40 -114,-48 -62,-8 -94,1 -116,32 l -5,0 5,-40 -92,-12 z m 434,-12 -1,61 -52,-1 -2,70 52,1 -2,77 c 0,34 0,34 0,42 1,28 6,43 19,56 19,20 45,26 107,27 68,2 98,-7 119,-31 15,-19 20,-35 22,-85 l -90,-2 0,11 c -1,31 -9,38 -41,37 -19,0 -29,-4 -34,-14 -4,-7 -4,-11 -3,-39 l 1,-76 156,3 1,-71 -155,-3 1,-61 -98,-2 z m 411,141 c 1,-24 8,-27 79,-32 59,-5 67,0 70,41 l 1,14 -4,0 c -17,-15 -31,-18 -76,-15 -70,6 -98,9 -121,18 -37,13 -53,40 -49,87 4,62 33,80 120,73 65,-5 90,-9 106,-18 16,-9 26,-18 32,-35 l 4,-1 3,36 94,-7 -12,-158 c -4,-47 -11,-67 -29,-83 -24,-21 -44,-23 -130,-17 -81,6 -126,15 -147,29 -29,18 -39,37 -39,75 l 98,-7 z m 71,64 c 42,-3 58,-4 64,-2 11,3 17,11 18,21 2,23 -17,31 -86,36 -52,4 -68,-1 -70,-22 -1,-10 4,-17 13,-22 7,-5 29,-9 61,-11 z m 242,1 c 5,30 15,47 33,59 27,16 60,17 155,0 75,-13 121,-26 142,-41 25,-17 33,-43 27,-82 -11,-58 -43,-75 -118,-62 -100,17 -116,19 -132,21 -16,1 -25,-3 -27,-13 -3,-17 15,-25 76,-35 32,-6 53,-7 62,-3 3,1 5,3 9,10 l 98,-17 c -8,-31 -15,-44 -31,-52 -25,-15 -58,-15 -146,1 -71,12 -115,25 -134,37 -27,17 -36,43 -30,82 10,55 45,73 118,61 95,-17 120,-20 133,-22 15,-1 24,5 26,16 3,18 -15,27 -77,38 -61,10 -80,7 -86,-15 l -98,17 z m 611,-49 248,-99 c 117,-46 145,-63 162,-97 16,-33 10,-72 -26,-161 -22,-56 -33,-78 -50,-99 -23,-28 -53,-38 -90,-32 -32,6 -44,10 -132,45 l -248,98 136,345 z m 68,-129 -67,-171 145,-57 c 64,-25 79,-29 95,-21 15,8 26,25 43,68 30,78 26,85 -69,123 l -147,58 z m 627,-284 c 8,22 0,32 -54,63 -31,17 -51,25 -64,23 -11,-1 -18,-8 -32,-31 l 223,-127 c -5,-10 -11,-21 -12,-24 -31,-53 -54,-75 -86,-78 -29,-4 -59,7 -134,50 -73,42 -100,63 -113,92 -14,30 -8,57 27,118 33,58 53,77 85,81 29,4 64,-8 130,-46 122,-70 145,-103 115,-170 l -85,49 z m -176,8 c -18,-32 -8,-47 49,-80 34,-19 53,-26 66,-22 8,2 11,6 22,24 l -137,78 z m 221,-247 142,221 83,-53 -142,-221 -83,53 z m -58,-91 39,62 83,-53 -40,-62 -82,53 z"
       id="path5102"
       inkscape:connector-curvature="0"
       style="fill:#ffffff;fill-rule:nonzero" /><circle
       class="fil3"
       cy="11000"
       r="3898"
       id="circle5104"
       cx="0"
       style="fill:none" /><polygon
       class="fil4"
       points="-3634,11278 -3621,11375 -3388,11452 -3386,11470 -3591,11605 -3579,11704 -3304,11520 -3322,11383 "
       id="polygon5106"
       style="fill:#ffffff;fill-rule:nonzero" /><path
       id="1"
       class="fil4"
       d="m -3345,10934 -1,-103 -294,159 2,141 298,152 -1,-103 -51,-24 -3,-196 50,-26 z m -114,58 2,133 -113,-56 -1,-18 112,-59 z"
       inkscape:connector-curvature="0"
       style="fill:#ffffff;fill-rule:nonzero" /><polygon
       id="2"
       class="fil4"
       points="-3389,10490 -3407,10700 -3627,10682 -3635,10776 -3339,10801 -3314,10497 "
       style="fill:#ffffff;fill-rule:nonzero" /><polygon
       id="3"
       class="fil4"
       points="-3578,10319 -3594,10412 -3301,10460 -3286,10367 "
       style="fill:#ffffff;fill-rule:nonzero" /><path
       id="4"
       class="fil4"
       d="m -3282,10308 57,-206 c 26,-97 29,-123 15,-150 -14,-27 -41,-41 -116,-62 -46,-12 -65,-16 -87,-15 -29,2 -50,16 -63,43 -12,23 -15,32 -35,105 l -57,206 286,79 z m -49,-106 -142,-39 33,-120 c 15,-53 20,-64 32,-70 12,-6 29,-5 64,4 65,18 67,25 46,104 l -33,121 z"
       inkscape:connector-curvature="0"
       style="fill:#ffffff;fill-rule:nonzero" /><path
       id="5"
       class="fil4"
       d="m -3432,9778 127,49 c 47,18 47,18 58,21 39,13 57,14 76,6 30,-12 49,-43 89,-148 24,-63 34,-93 39,-120 5,-34 -8,-63 -38,-80 -19,-10 -23,-12 -85,-38 l -127,-49 -33,84 127,49 c 7,3 20,9 31,13 23,11 30,15 34,25 7,13 2,32 -20,89 -28,72 -39,86 -62,82 -12,-2 -13,-2 -56,-18 l -128,-49 -32,84 z"
       inkscape:connector-curvature="0"
       style="fill:#ffffff;fill-rule:nonzero" /><path
       id="6"
       class="fil4"
       d="m -3073,9439 12,7 c 37,21 56,23 78,10 21,-12 42,-42 86,-119 45,-80 60,-113 63,-133 4,-30 -12,-53 -56,-78 -37,-21 -58,-24 -80,-11 -19,11 -31,27 -81,109 -33,55 -46,75 -52,80 -6,6 -13,7 -23,2 -18,-11 -17,-17 21,-83 33,-59 39,-68 47,-71 7,-2 11,-1 24,5 l 43,-75 c -5,-4 -11,-7 -12,-8 -32,-18 -52,-20 -72,-9 -21,12 -40,37 -81,109 -53,93 -63,117 -64,143 0,24 18,46 56,68 26,14 46,19 63,16 19,-4 35,-19 57,-56 5,-8 21,-34 39,-61 16,-27 32,-52 37,-60 14,-25 22,-29 37,-20 11,6 15,12 15,19 -1,9 -6,18 -40,78 -31,55 -37,63 -45,68 -8,4 -14,3 -29,-6 l -43,76 z"
       inkscape:connector-curvature="0"
       style="fill:#ffffff;fill-rule:nonzero" /><polygon
       id="7"
       class="fil4"
       points="-2558,8725 -2707,8915 -2744,8886 -2604,8707 -2655,8667 -2796,8845 -2829,8819 -2682,8631 -2737,8588 -2939,8845 -2706,9028 -2503,8769 "
       style="fill:#ffffff;fill-rule:nonzero" /><path
       id="8"
       class="fil4"
       d="m -2200,8389 -41,12 c -10,-14 -24,-29 -44,-50 -60,-63 -85,-79 -114,-76 -28,3 -51,21 -140,106 -88,84 -107,107 -111,135 -5,28 11,54 70,116 59,61 84,78 113,75 28,-4 51,-21 137,-104 93,-89 110,-109 114,-140 l 35,-5 -19,-69 z m -246,58 17,70 104,-30 c -9,12 -21,25 -53,56 -56,53 -67,62 -82,64 -13,1 -24,-6 -50,-32 -26,-28 -37,-42 -40,-54 -4,-17 2,-25 64,-85 60,-57 69,-64 85,-61 13,2 26,12 55,43 2,1 4,4 6,7 l -106,22 z"
       inkscape:connector-curvature="0"
       style="fill:#ffffff;fill-rule:nonzero" /><path
       id="9"
       class="fil4"
       d="m -2313,8174 78,111 c 29,41 29,41 37,50 25,32 39,44 59,48 32,6 65,-10 157,-74 55,-39 80,-58 99,-78 23,-25 28,-57 13,-88 -10,-18 -12,-23 -50,-78 l -78,-112 -74,52 78,111 c 4,6 13,18 19,28 13,22 16,29 15,40 -2,14 -16,27 -67,63 -63,44 -80,50 -97,33 -9,-8 -9,-9 -37,-46 l -78,-112 -74,52 z"
       inkscape:connector-curvature="0"
       style="fill:#ffffff;fill-rule:nonzero" /><polygon
       id="10"
       class="fil4"
       points="-1860,7866 -1939,7917 -1779,8166 -1699,8115 "
       style="fill:#ffffff;fill-rule:nonzero" /><polygon
       id="11"
       class="fil4"
       points="-1550,8035 -1466,7990 -1569,7795 -1452,7733 -1487,7667 -1805,7834 -1769,7901 -1653,7839 "
       style="fill:#ffffff;fill-rule:nonzero" /><path
       id="12"
       class="fil4"
       d="m -1051,7813 95,-38 -255,-217 -130,53 -34,333 95,-38 5,-56 182,-74 42,37 z m -96,-85 -123,49 11,-125 17,-7 95,83 z"
       inkscape:connector-curvature="0"
       style="fill:#ffffff;fill-rule:nonzero" /><polygon
       id="13"
       class="fil4"
       points="-852,7761 -760,7740 -810,7525 -681,7495 -698,7422 -1047,7502 -1030,7576 -902,7546 "
       style="fill:#ffffff;fill-rule:nonzero" /><path
       id="14"
       class="fil4"
       d="m -635,7410 18,135 c 7,49 7,49 9,61 8,41 15,57 31,70 25,20 62,22 173,7 67,-8 98,-14 124,-23 32,-11 52,-38 52,-72 0,-21 0,-26 -7,-92 l -18,-136 -89,12 17,135 c 1,7 3,22 4,33 1,26 0,34 -6,42 -8,12 -27,17 -88,25 -76,10 -94,7 -102,-15 -4,-12 -4,-12 -11,-58 l -17,-136 -90,12 z"
       inkscape:connector-curvature="0"
       style="fill:#ffffff;fill-rule:nonzero" /><path
       id="15"
       class="fil4"
       d="m -166,7552 0,15 c -1,42 6,60 28,73 21,12 58,17 146,18 92,2 128,0 146,-8 29,-11 41,-36 42,-86 1,-43 -7,-63 -28,-76 -19,-12 -39,-14 -134,-19 -65,-3 -88,-4 -96,-7 -8,-3 -12,-8 -12,-19 0,-22 7,-24 83,-22 67,1 78,2 85,8 5,4 6,8 6,23 l 87,2 c 1,-6 1,-12 1,-14 0,-37 -7,-56 -26,-68 -21,-13 -52,-18 -135,-19 -107,-2 -133,1 -156,13 -21,11 -32,37 -33,81 0,30 5,49 16,63 13,15 34,22 77,24 9,0 39,2 72,4 31,2 60,4 70,4 29,1 36,5 36,23 0,13 -4,19 -10,22 -9,4 -19,4 -88,3 -63,-1 -73,-2 -81,-8 -7,-4 -9,-10 -9,-28 l -87,-2 z"
       inkscape:connector-curvature="0"
       style="fill:#ffffff;fill-rule:nonzero" /><path
       id="16"
       class="fil4"
       d="m 667,7601 c -8,43 -9,43 -106,27 -95,-15 -96,-17 -84,-91 8,-44 14,-61 26,-67 10,-6 27,-6 82,4 20,3 46,8 60,11 19,5 26,8 29,13 3,6 3,10 1,27 l 89,15 2,-15 c 8,-48 2,-71 -23,-88 -18,-13 -45,-20 -120,-32 -150,-25 -185,-23 -208,11 -9,15 -16,40 -27,107 -5,33 -8,59 -10,72 -2,33 5,52 25,67 22,16 58,25 170,44 67,11 100,13 125,9 32,-6 47,-26 55,-72 0,-4 1,-11 3,-27 l -89,-15 z"
       inkscape:connector-curvature="0"
       style="fill:#ffffff;fill-rule:nonzero" /><path
       id="17"
       class="fil4"
       d="m 1093,7834 99,30 -64,-329 -134,-40 -236,238 99,30 39,-41 187,57 10,55 z m -21,-126 -127,-39 87,-91 18,5 22,125 z"
       inkscape:connector-curvature="0"
       style="fill:#ffffff;fill-rule:nonzero" /><polygon
       id="18"
       class="fil4"
       points="1549,7947 1330,7848 1349,7805 1556,7898 1583,7839 1376,7745 1394,7706 1612,7804 1641,7741 1342,7606 1220,7876 1520,8012 "
       style="fill:#ffffff;fill-rule:nonzero" /><polygon
       id="19"
       class="fil4"
       points="1861,8121 1678,8017 1787,7825 1705,7778 1559,8036 1824,8187 "
       style="fill:#ffffff;fill-rule:nonzero" /><polygon
       id="20"
       class="fil4"
       points="2100,8022 2022,7968 1853,8212 1931,8266 "
       style="fill:#ffffff;fill-rule:nonzero" /><polygon
       id="21"
       class="fil4"
       points="2067,8367 2141,8425 2278,8252 2382,8334 2429,8275 2148,8052 2101,8111 2204,8193 "
       style="fill:#ffffff;fill-rule:nonzero" /><path
       id="22"
       class="fil4"
       d="m 2486,8327 -98,94 c -36,35 -36,35 -44,44 -28,29 -37,45 -38,65 -2,33 19,63 97,145 46,48 69,70 91,85 29,20 61,20 89,0 17,-12 21,-16 70,-61 l 99,-94 -62,-65 -99,94 c -5,5 -16,15 -24,22 -20,17 -27,21 -37,21 -15,0 -30,-12 -73,-57 -53,-55 -61,-71 -48,-91 8,-10 8,-10 41,-43 l 99,-94 -63,-65 z"
       inkscape:connector-curvature="0"
       style="fill:#ffffff;fill-rule:nonzero" /><path
       id="23"
       class="fil4"
       d="m 2644,8788 -11,8 c -34,26 -44,42 -40,67 3,25 22,56 76,127 55,73 79,100 96,110 27,16 54,10 94,-20 34,-26 45,-45 42,-70 -2,-21 -12,-39 -68,-117 -37,-52 -50,-71 -53,-79 -3,-9 -1,-15 7,-22 18,-13 23,-9 69,52 41,54 46,62 46,72 -1,6 -3,10 -14,19 l 52,69 c 5,-3 10,-7 12,-8 29,-22 39,-40 37,-62 -3,-25 -19,-52 -69,-118 -64,-85 -82,-104 -106,-115 -22,-9 -49,-1 -84,25 -24,18 -36,34 -40,51 -4,20 4,40 29,75 5,8 23,32 41,59 18,26 35,50 40,58 18,23 18,32 4,43 -10,7 -17,9 -23,5 -8,-4 -15,-12 -56,-67 -39,-50 -44,-59 -45,-69 -1,-8 3,-13 17,-24 l -53,-69 z"
       inkscape:connector-curvature="0"
       style="fill:#ffffff;fill-rule:nonzero" /><path
       id="24"
       class="fil4"
       d="m 2961,9230 -12,7 c -38,19 -50,34 -51,59 0,25 13,59 55,138 42,80 62,111 77,124 23,20 51,19 96,-5 37,-20 51,-36 53,-61 1,-22 -6,-41 -48,-127 -29,-58 -39,-79 -40,-87 -2,-9 1,-15 11,-20 19,-10 23,-6 59,62 32,60 36,69 34,78 -2,7 -5,10 -18,17 l 41,77 c 5,-2 11,-5 12,-6 33,-17 46,-33 48,-56 1,-24 -10,-54 -49,-127 -50,-94 -64,-116 -86,-131 -20,-13 -48,-9 -87,11 -27,14 -41,28 -48,44 -7,19 -3,40 16,79 5,8 18,35 31,65 14,28 26,55 31,64 13,25 12,34 -3,42 -11,6 -19,6 -25,2 -7,-6 -12,-15 -44,-75 -30,-57 -33,-66 -32,-76 0,-8 4,-12 20,-21 l -41,-77 z"
       inkscape:connector-curvature="0"
       style="fill:#ffffff;fill-rule:nonzero" /><polygon
       id="25"
       class="fil4"
       points="3250,9922 3162,9697 3206,9680 3289,9892 3350,9868 3267,9656 3307,9641 3394,9863 3459,9838 3339,9532 3063,9641 3184,9948 "
       style="fill:#ffffff;fill-rule:nonzero" /><path
       id="26"
       class="fil4"
       d="m 3203,9990 20,88 73,-17 29,124 c 8,37 9,43 3,51 -6,8 -16,13 -48,20 l -15,3 20,87 26,-6 c 67,-14 79,-24 74,-70 6,17 12,25 21,32 15,11 33,12 74,2 50,-11 68,-22 76,-47 7,-21 7,-21 -16,-121 l -48,-212 -289,66 z m 166,54 71,-16 28,124 c 9,41 9,42 7,49 -2,9 -9,14 -28,19 -19,4 -28,3 -34,-4 -5,-5 -5,-5 -16,-48 l -28,-124 z"
       inkscape:connector-curvature="0"
       style="fill:#ffffff;fill-rule:nonzero" /><path
       id="27"
       class="fil4"
       d="m 3337,10715 13,101 274,-192 -18,-139 -314,-117 13,102 53,19 25,194 -46,32 z m 107,-72 -17,-131 118,42 3,18 -104,71 z"
       inkscape:connector-curvature="0"
       style="fill:#ffffff;fill-rule:nonzero" /><path
       id="28"
       class="fil4"
       d="m 3349,10847 -1,90 72,2 -2,113 c -1,66 0,87 8,107 12,34 38,46 102,47 78,1 101,-15 110,-74 2,-15 3,-24 4,-77 l 3,-203 -296,-5 z m 145,93 76,1 -2,113 c -1,40 -1,41 -4,47 -5,11 -13,15 -34,14 -21,0 -29,-3 -34,-12 -4,-8 -4,-9 -4,-50 l 2,-113 z"
       inkscape:connector-curvature="0"
       style="fill:#ffffff;fill-rule:nonzero" /><polygon
       id="29"
       class="fil4"
       points="3437,11357 3410,11559 3304,11545 3292,11639 3586,11678 3598,11584 3493,11570 3519,11368 3625,11382 3637,11288 3343,11249 3331,11343 "
       style="fill:#ffffff;fill-rule:nonzero" /></g></svg>