<?xml version="1.0" encoding="UTF-8" standalone="no"?>
<!-- Creator: CorelDRAW X7 -->

<svg
   xmlns:dc="http://purl.org/dc/elements/1.1/"
   xmlns:cc="http://creativecommons.org/ns#"
   xmlns:rdf="http://www.w3.org/1999/02/22-rdf-syntax-ns#"
   xmlns:svg="http://www.w3.org/2000/svg"
   xmlns="http://www.w3.org/2000/svg"
   xmlns:sodipodi="http://sodipodi.sourceforge.net/DTD/sodipodi-0.dtd"
   xmlns:inkscape="http://www.inkscape.org/namespaces/inkscape"
   xml:space="preserve"
   width="7.8740005in"
   height="7.8740005in"
   version="1.1"
   style="clip-rule:evenodd;fill-rule:evenodd;image-rendering:optimizeQuality;shape-rendering:geometricPrecision;text-rendering:geometricPrecision"
   viewBox="0 0 7874.0005 7874.0005"
   id="svg4507"
   inkscape:version="0.91 r13725"
   sodipodi:docname="PanOceania - Magister Knights - [N3] [Vyo].svg"><metadata
     id="metadata4561"><rdf:RDF><cc:Work
         rdf:about=""><dc:format>image/svg+xml</dc:format><dc:type
           rdf:resource="http://purl.org/dc/dcmitype/StillImage" /></cc:Work></rdf:RDF></metadata><sodipodi:namedview
     pagecolor="#ffffff"
     bordercolor="#666666"
     borderopacity="1"
     objecttolerance="10"
     gridtolerance="10"
     guidetolerance="10"
     inkscape:pageopacity="0"
     inkscape:pageshadow="2"
     inkscape:window-width="640"
     inkscape:window-height="480"
     id="namedview4559"
     showgrid="false"
     inkscape:zoom="0.23838384"
     inkscape:cx="736.83001"
     inkscape:cy="849.33005"
     inkscape:window-x="0"
     inkscape:window-y="0"
     inkscape:window-maximized="0"
     inkscape:current-layer="svg4507" /><defs
     id="defs4509"><style
       type="text/css"
       id="style4511"><![CDATA[
    .fil3 {fill:none}
    .fil1 {fill:#00C0FF}
    .fil0 {fill:#4060A0}
    .fil2 {fill:white}
    .fil4 {fill:white;fill-rule:nonzero}
   ]]></style></defs><g
     id="Layer_x0020_1"
     transform="translate(3937,-7063)"><metadata
       id="CorelCorpID_0Corel-Layer" /><circle
       class="fil0"
       cy="11000"
       r="3937"
       id="circle4515"
       cx="0"
       style="fill:#4060a0" /><circle
       class="fil1"
       cy="11000"
       r="3819"
       id="circle4517"
       cx="0"
       style="fill:#00c0ff" /><circle
       class="fil0"
       cy="11000"
       r="2992"
       id="circle4519"
       cx="0"
       style="fill:#4060a0" /><circle
       class="fil2"
       cy="11000"
       r="2874"
       id="circle4521"
       cx="0"
       style="fill:#ffffff" /><circle
       class="fil3"
       cy="11000"
       r="3898"
       id="circle4523"
       cx="0"
       style="fill:none" /><path
       class="fil4"
       d="m -3543,10949 4,213 c 2,100 7,126 28,149 21,21 51,27 128,26 48,-1 67,-4 88,-11 28,-9 44,-29 49,-58 5,-26 5,-36 4,-112 l -5,-213 -296,6 z m 77,87 147,-3 3,125 c 1,55 -1,67 -11,77 -10,9 -26,12 -63,13 -67,1 -71,-5 -73,-86 l -3,-126 z m 40,557 c -19,-1 -24,-10 -31,-60 -3,-27 -3,-45 2,-54 5,-8 12,-11 33,-14 l 27,204 c 9,-1 18,-2 21,-3 49,-6 72,-17 84,-39 11,-21 12,-46 3,-114 -9,-68 -17,-93 -33,-112 -19,-19 -41,-23 -96,-16 -53,7 -73,16 -86,38 -12,21 -13,51 -5,111 14,111 32,138 91,136 l -10,-77 z m 47,-133 c 29,-3 37,8 44,61 4,30 3,47 -4,55 -4,5 -8,7 -24,9 l -16,-125 z m -22,558 205,-48 -18,-76 -82,19 c -38,9 -50,8 -62,0 -10,-8 -16,-21 -22,-48 -7,-29 -7,-42 -1,-53 7,-10 15,-14 45,-21 l 94,-22 -18,-76 -94,21 c -55,13 -70,21 -85,44 -14,22 -16,50 -5,97 12,52 28,74 56,79 l 1,4 -31,7 17,73 z m 89,36 c -23,8 -36,18 -42,34 -11,23 -7,49 17,122 19,58 34,93 49,108 16,18 38,21 67,11 45,-14 55,-42 36,-100 -24,-77 -28,-90 -31,-102 -3,-13 -1,-20 7,-23 13,-4 21,9 36,56 9,25 12,42 10,49 -1,3 -2,5 -8,8 l 25,76 c 24,-9 33,-17 38,-30 9,-21 5,-48 -17,-116 -18,-54 -33,-88 -45,-102 -16,-19 -38,-24 -68,-14 -43,14 -53,44 -35,101 24,73 30,92 32,102 2,12 -1,20 -9,22 -14,5 -23,-8 -39,-56 -16,-47 -15,-63 2,-70 l -25,-76 z m 270,628 c -18,5 -25,-2 -49,-46 -13,-24 -18,-41 -16,-51 1,-9 7,-15 25,-25 l 96,182 c 8,-3 16,-8 19,-9 43,-23 61,-41 65,-66 4,-23 -4,-47 -36,-108 -32,-61 -48,-82 -70,-94 -24,-12 -46,-8 -95,18 -48,25 -64,40 -68,66 -4,23 5,51 33,105 52,100 78,119 132,97 l -36,-69 z m -1,-142 c 26,-12 38,-4 62,42 14,28 19,44 16,53 -2,7 -5,10 -20,18 l -58,-113 z m 66,254 c -20,14 -30,26 -33,43 -4,25 6,50 48,114 33,51 57,81 75,92 20,13 42,11 68,-6 40,-25 42,-54 10,-106 -44,-68 -51,-79 -57,-91 -6,-11 -6,-19 1,-23 12,-7 23,3 50,45 14,22 21,37 21,44 1,3 -1,5 -5,10 l 43,67 c 21,-15 28,-24 29,-38 3,-23 -7,-48 -46,-108 -31,-48 -54,-77 -69,-88 -20,-14 -43,-13 -69,4 -38,25 -40,56 -9,106 42,65 52,82 57,91 6,11 4,20 -3,24 -12,8 -24,-2 -52,-45 -27,-41 -30,-57 -16,-68 l -43,-67 z m 359,188 -38,29 -26,-32 -44,35 25,32 -48,38 c -21,17 -21,17 -26,21 -17,15 -24,25 -25,41 -2,21 7,40 38,80 33,42 54,57 79,57 19,0 31,-5 64,-29 l -45,-57 -7,5 c -19,16 -28,14 -43,-6 -10,-12 -12,-20 -9,-28 3,-6 5,-8 22,-22 l 49,-38 77,98 44,-35 -77,-98 38,-30 -48,-61 z m 206,321 -144,153 57,54 57,-61 c 27,-28 35,-34 49,-35 14,0 28,8 49,27 21,20 29,34 30,45 1,12 -4,18 -27,43 l -66,69 57,54 66,-69 c 40,-42 48,-56 48,-84 0,-27 -14,-50 -51,-84 -36,-35 -61,-45 -90,-35 l -3,-2 22,-24 -54,-51 z m 358,314 c -56,-44 -83,-60 -108,-61 -25,0 -43,12 -73,50 -38,48 -46,66 -40,91 5,25 24,46 85,94 61,47 85,60 111,60 24,-1 41,-13 76,-59 33,-41 40,-60 33,-85 -7,-23 -28,-47 -84,-90 z m -36,46 c 18,15 32,28 36,37 8,13 5,25 -12,46 -28,35 -41,35 -87,-2 -21,-16 -34,-29 -38,-39 -7,-12 -4,-22 13,-44 27,-35 41,-34 88,2 z m 102,191 c -12,20 -16,36 -11,52 7,25 26,43 91,84 51,32 85,50 106,52 24,4 43,-7 60,-34 25,-39 15,-67 -36,-100 -68,-44 -79,-51 -89,-59 -11,-8 -14,-15 -9,-22 7,-11 22,-6 64,20 22,14 34,25 38,32 1,2 1,5 -1,11 l 68,43 c 12,-23 14,-34 10,-48 -7,-22 -27,-40 -87,-78 -49,-31 -81,-47 -100,-51 -24,-4 -44,6 -61,33 -24,38 -13,67 37,100 64,41 81,52 90,58 9,8 11,16 7,23 -8,13 -24,9 -66,-18 -42,-27 -52,-39 -43,-56 l -68,-42 z m 402,23 -22,43 -37,-19 -26,51 37,19 -28,54 c -12,24 -12,24 -15,30 -9,21 -10,33 -5,48 7,20 23,33 68,56 48,25 73,29 96,19 18,-8 26,-18 45,-54 l -64,-32 -4,7 c -11,22 -19,25 -42,13 -14,-7 -20,-13 -20,-22 0,-6 1,-9 11,-29 l 28,-55 111,57 26,-51 -111,-56 22,-43 -70,-36 z m 196,158 -76,196 73,28 32,-81 c 11,-30 18,-40 28,-47 11,-6 26,-6 43,0 15,6 25,14 28,22 3,7 2,14 -3,28 l -1,2 0,0 69,27 6,-13 c 11,-29 13,-46 8,-62 -6,-20 -24,-35 -57,-48 -41,-16 -65,-14 -89,5 l -3,-1 11,-29 -69,-27 z m 474,388 56,-202 -76,-22 -22,82 c -11,37 -16,47 -30,54 -11,5 -26,4 -53,-3 -28,-8 -40,-14 -46,-25 -6,-10 -6,-20 3,-49 l 26,-93 -76,-21 -26,92 c -15,56 -16,72 -3,96 13,24 37,38 83,51 51,14 78,11 97,-11 l 4,1 -9,30 72,20 z m 100,-183 -35,207 77,14 15,-86 c 6,-34 11,-46 21,-54 10,-7 27,-8 49,-4 22,3 36,10 41,18 6,10 6,15 1,48 l -17,97 77,13 15,-85 c 6,-34 11,-46 21,-54 10,-7 26,-9 49,-5 22,4 35,10 41,19 7,9 7,13 1,47 l -17,97 78,14 17,-97 c 9,-54 8,-71 -7,-93 -15,-22 -39,-34 -81,-42 -51,-8 -79,-1 -97,28 -12,-33 -37,-51 -87,-59 -46,-8 -74,-2 -90,21 l -4,0 6,-31 -74,-13 z m 832,218 c -4,24 -18,30 -63,29 -22,0 -39,-3 -49,-7 -13,-7 -17,-18 -17,-44 1,-28 6,-41 17,-46 9,-5 27,-6 49,-6 46,1 62,9 64,33 l 80,2 c 0,-40 -6,-56 -22,-70 -20,-16 -51,-23 -120,-24 -71,-1 -99,3 -119,19 -19,15 -26,37 -27,87 -1,56 5,79 25,93 21,16 48,21 112,22 83,2 109,-3 129,-23 14,-13 19,-29 21,-64 l -80,-1 z m 267,-143 c -71,5 -102,12 -120,28 -19,16 -24,37 -21,86 5,61 11,80 32,94 21,15 48,18 126,12 77,-6 103,-13 122,-30 18,-17 22,-38 17,-95 -4,-53 -11,-72 -33,-86 -21,-12 -52,-15 -123,-9 z m 5,58 c 23,-1 42,-1 52,3 14,5 19,15 21,43 4,44 -6,52 -65,57 -26,2 -44,1 -55,-3 -13,-5 -18,-14 -20,-41 -3,-45 7,-54 67,-59 z m 186,-74 36,208 77,-14 -14,-83 c -7,-38 -7,-48 1,-59 8,-12 22,-18 51,-23 28,-5 44,-4 54,2 9,7 12,14 18,47 l 16,94 78,-13 -17,-94 c -10,-57 -16,-72 -38,-89 -22,-15 -49,-18 -98,-9 -50,8 -72,23 -82,52 l -4,0 -5,-31 -73,12 z m 333,-114 14,47 -40,11 15,54 40,-11 17,59 c 8,26 8,26 10,32 7,21 14,31 28,38 19,11 40,9 88,-5 52,-15 73,-28 83,-51 8,-19 7,-32 -3,-71 l -69,20 2,8 c 7,24 3,32 -22,39 -15,4 -23,3 -29,-3 -5,-5 -6,-8 -12,-29 l -17,-59 119,-34 -15,-54 -120,34 -13,-47 -76,22 z m 493,39 c 4,19 -4,26 -50,44 -26,11 -43,14 -53,12 -9,-3 -14,-9 -22,-29 l 191,-75 c -3,-9 -6,-18 -7,-20 -19,-46 -35,-66 -59,-72 -23,-6 -48,-1 -112,24 -63,26 -86,40 -100,60 -14,23 -13,45 8,97 20,50 33,67 58,74 23,6 52,1 108,-22 105,-41 127,-65 110,-121 l -72,28 z m -141,-13 c -10,-27 -1,-38 49,-58 28,-11 44,-14 54,-10 6,3 9,6 15,22 l -118,46 z m 393,-262 13,24 -3,2 c -27,-16 -46,-13 -95,12 -36,19 -61,36 -72,50 -22,26 -20,52 6,102 25,48 41,64 68,67 22,4 48,-5 96,-30 46,-24 60,-39 62,-69 l 3,-2 8,17 c 14,26 16,32 13,43 -3,14 -15,24 -52,43 -36,19 -49,21 -60,9 l -2,-2 -71,37 c 14,22 27,33 46,37 25,7 52,-1 111,-32 44,-23 69,-40 86,-57 15,-16 23,-39 20,-60 -3,-18 -5,-23 -21,-54 l -90,-172 -66,35 z m -38,80 c 21,-11 38,-17 49,-18 13,0 21,7 32,29 10,20 12,29 7,39 -5,10 -22,22 -47,35 -51,27 -65,26 -84,-10 -17,-35 -10,-47 43,-75 z m 265,-218 c -60,39 -83,60 -92,82 -9,24 -3,45 23,86 33,51 48,65 73,68 26,2 51,-8 116,-51 65,-41 85,-60 93,-84 8,-24 1,-44 -30,-92 -28,-44 -44,-57 -70,-59 -24,-1 -53,11 -113,50 z m 33,49 c 19,-12 36,-21 47,-22 14,-3 24,4 39,27 24,38 19,49 -31,82 -21,14 -38,22 -49,23 -14,2 -22,-4 -37,-27 -24,-38 -19,-50 31,-83 z m 655,-193 -195,-226 -56,49 19,21 -3,3 c -31,-9 -49,-3 -91,34 -81,69 -85,96 -22,169 31,36 50,49 72,50 24,0 48,-12 93,-51 40,-35 49,-52 46,-83 l 2,-2 75,87 60,-51 z m -273,-87 c 46,-40 59,-41 87,-8 29,33 26,46 -19,85 -21,17 -36,27 -47,29 -13,3 -21,-2 -37,-20 -31,-37 -29,-48 16,-86 z m 461,-232 -152,-145 -55,57 62,58 c 28,27 34,37 34,52 -1,13 -9,25 -28,45 -20,22 -31,29 -43,30 -12,0 -21,-5 -43,-26 l -69,-66 -55,57 70,66 c 42,39 56,48 83,47 27,0 51,-14 84,-49 37,-39 46,-64 35,-91 l 3,-3 23,22 51,-54 z m -18,-205 c -14,-13 -11,-19 24,-63 29,-37 37,-39 62,-19 l 9,7 -2,3 c -18,1 -27,8 -50,36 -35,44 -48,63 -55,81 -13,29 -6,53 24,76 39,31 65,24 108,-31 32,-41 43,-57 47,-71 4,-15 3,-26 -3,-39 l 2,-2 22,18 47,-60 -99,-78 c -30,-24 -45,-31 -65,-29 -25,3 -37,13 -80,67 -40,52 -60,83 -63,103 -5,26 1,42 23,63 l 49,-62 z m 76,-6 c 21,-27 29,-36 34,-39 8,-4 16,-4 22,1 14,12 9,27 -26,71 -26,32 -37,39 -50,28 -7,-5 -9,-11 -7,-19 2,-7 11,-22 27,-42 z m 104,-517 -42,67 96,61 -2,3 c -30,-2 -46,10 -76,56 -29,46 -38,66 -37,89 0,27 17,48 62,76 44,28 65,35 88,29 23,-7 43,-26 73,-74 31,-48 36,-70 23,-97 l 2,-3 23,15 40,-63 -250,-159 z m 40,197 c 30,-47 42,-52 79,-28 21,13 29,22 29,33 0,11 -9,31 -24,55 -32,49 -43,53 -82,28 -35,-22 -35,-35 -2,-88 z m 86,-354 45,20 -18,38 52,23 17,-38 56,26 c 24,11 24,11 30,13 21,8 34,10 48,4 20,-8 33,-25 53,-70 23,-50 26,-75 15,-97 -9,-18 -19,-26 -55,-43 l -30,65 7,4 c 23,10 26,18 15,41 -6,14 -12,20 -21,21 -6,0 -9,-1 -30,-10 l -55,-25 51,-113 -51,-24 -52,113 -44,-20 -33,72 z m 440,-404 -199,-68 -26,75 80,27 c 37,13 47,19 53,32 5,12 3,27 -6,53 -10,28 -16,39 -28,45 -10,5 -20,4 -49,-6 l -91,-31 -25,75 91,31 c 54,18 70,20 95,8 24,-11 40,-34 56,-80 17,-50 15,-77 -6,-97 l 1,-4 30,10 24,-70 z m -222,-145 47,11 -9,40 55,13 9,-40 60,13 c 27,7 27,7 33,7 22,4 34,3 47,-6 18,-11 27,-30 38,-79 13,-53 11,-78 -5,-98 -12,-15 -24,-21 -63,-31 l -16,70 8,2 c 25,6 29,13 23,38 -3,15 -8,22 -16,24 -7,2 -10,2 -31,-3 l -60,-14 28,-121 -55,-13 -28,121 -47,-10 -18,76 z m 280,-413 c 18,6 20,16 11,65 -4,28 -10,44 -17,51 -7,7 -15,8 -36,4 l 35,-202 c -8,-2 -18,-4 -21,-4 -48,-9 -73,-6 -92,12 -17,16 -25,40 -37,108 -11,67 -12,94 -1,117 11,24 31,34 87,44 52,9 74,6 93,-11 17,-17 27,-44 38,-104 19,-111 10,-142 -46,-158 l -14,78 z m -84,113 c -29,-6 -34,-20 -24,-72 5,-30 11,-46 19,-51 6,-4 10,-5 26,-2 l -21,125 z m -127,-266 295,22 6,-78 -295,-22 -6,78 z m 166,-208 c -19,-3 -21,-8 -20,-65 1,-47 6,-53 39,-53 l 11,0 0,4 c -14,12 -17,23 -18,59 -1,57 0,79 5,98 7,30 28,45 66,46 49,1 65,-21 67,-90 1,-52 0,-72 -6,-86 -6,-14 -13,-22 -26,-28 l 0,-3 29,0 1,-75 -126,-3 c -38,-1 -55,3 -69,16 -18,18 -22,34 -23,103 -1,65 2,101 11,119 12,24 27,34 57,37 l 2,-79 z m 57,-51 c 0,-34 1,-47 3,-52 4,-8 10,-12 18,-12 19,0 24,16 22,71 0,42 -6,54 -22,54 -8,0 -14,-4 -17,-12 -3,-6 -5,-23 -4,-49 z"
       id="path4525"
       inkscape:connector-curvature="0"
       style="fill:#ffffff;fill-rule:nonzero" /><circle
       class="fil3"
       cy="11000"
       r="3898"
       id="circle4527"
       cx="0"
       style="fill:none" /><path
       class="fil4"
       d="m -3163,10175 -376,-102 40,-147 12,-41 c 5,-22 11,-38 16,-48 5,-10 13,-20 22,-29 11,-10 22,-17 34,-21 12,-4 27,-6 43,-4 16,1 36,4 59,11 30,8 54,17 71,27 17,9 29,21 36,35 7,13 10,30 9,49 0,4 -1,7 -1,9 0,2 -1,5 -2,10 -1,5 -2,11 -4,19 l -4,14 -4,15 0,5 -2,5 -1,6 -17,60 96,27 -27,100 z m -156,-150 17,-63 c 4,-16 6,-26 6,-29 1,-4 0,-7 0,-11 -2,-5 -7,-10 -14,-14 -7,-4 -17,-8 -33,-12 -20,-6 -35,-7 -45,-3 -10,3 -16,12 -20,26 l -4,12 -17,64 110,30 z"
       id="path4529"
       inkscape:connector-curvature="0"
       style="fill:#ffffff;fill-rule:nonzero" /><path
       id="1"
       class="fil4"
       d="m -3032,9607 -57,127 54,45 -45,99 -306,-267 65,-144 403,53 -44,97 -70,-10 z m -76,-12 -174,-25 134,113 40,-88 z"
       inkscape:connector-curvature="0"
       style="fill:#ffffff;fill-rule:nonzero" /><path
       id="2"
       class="fil4"
       d="m -3056,8980 338,191 -87,154 -173,-27 c -30,-5 -48,-8 -55,-9 -6,-2 -11,-3 -15,-3 -3,-1 -10,-2 -20,-4 -9,-1 -27,-5 -52,-9 l -2,4 22,11 c 3,1 5,3 7,4 2,1 4,1 6,3 2,1 5,2 8,3 34,18 62,33 84,46 l 136,76 -50,89 -339,-191 87,-153 173,27 c 37,6 59,9 65,10 6,1 30,5 73,13 l 2,-3 -21,-11 -10,-6 c -34,-16 -65,-33 -93,-49 l -135,-76 51,-90 z"
       inkscape:connector-curvature="0"
       style="fill:#ffffff;fill-rule:nonzero" /><path
       id="3"
       class="fil4"
       d="m -2888,8755 c 10,-14 20,-25 29,-36 9,-10 18,-18 25,-24 8,-6 15,-11 23,-15 34,-17 68,-16 102,1 16,7 42,25 79,54 19,15 32,25 40,32 8,6 15,12 20,17 5,5 10,10 14,16 14,14 23,29 29,44 5,15 6,30 4,46 -2,17 -9,34 -19,53 -11,19 -25,41 -44,65 -14,17 -25,31 -35,41 -10,11 -20,19 -29,25 -9,6 -19,11 -30,15 -16,5 -31,7 -45,6 -14,-1 -30,-6 -46,-15 -16,-9 -36,-23 -61,-43 -29,-23 -52,-41 -67,-55 -15,-14 -27,-27 -34,-38 -8,-11 -13,-22 -15,-34 -3,-9 -3,-20 -3,-32 1,-12 4,-23 7,-35 4,-12 9,-23 16,-32 9,-16 23,-35 40,-56 z m 79,163 10,8 c 3,2 6,5 10,9 5,3 7,5 8,6 1,1 2,1 3,2 21,16 36,28 47,34 10,7 19,10 28,10 8,0 16,-3 23,-9 7,-7 17,-18 30,-34 10,-13 17,-24 21,-32 3,-9 3,-17 0,-25 -2,-8 -9,-17 -19,-27 -10,-10 -25,-23 -45,-39 -23,-18 -39,-29 -47,-35 -9,-5 -17,-9 -24,-11 -7,-1 -13,-1 -18,1 -5,2 -11,6 -17,12 -7,6 -14,14 -23,25 -14,19 -23,33 -25,43 -3,10 -1,20 6,31 5,8 15,18 32,31 z"
       inkscape:connector-curvature="0"
       style="fill:#ffffff;fill-rule:nonzero" /><path
       id="4"
       class="fil4"
       d="m -2396,8569 71,-74 8,8 c 18,17 31,32 40,44 8,12 14,23 16,34 1,11 1,24 -3,39 -2,11 -5,21 -9,28 -5,9 -11,18 -20,29 -10,10 -24,26 -43,46 -15,16 -27,28 -36,36 -9,9 -18,15 -25,20 -7,4 -15,8 -23,11 -21,7 -41,8 -61,3 -19,-6 -40,-18 -62,-36 -9,-7 -26,-22 -51,-46 l -16,-14 -16,-15 c -22,-21 -37,-40 -47,-57 -10,-17 -14,-34 -14,-52 0,-22 5,-42 15,-60 10,-18 31,-43 63,-76 23,-24 41,-41 52,-49 12,-9 25,-15 38,-18 10,-3 20,-3 29,-2 10,2 20,5 30,10 11,6 21,13 32,23 6,5 11,9 14,12 4,3 8,7 13,12 l -71,75 c -1,-2 -2,-3 -3,-4 -1,0 -2,-1 -3,-1 -9,-9 -18,-15 -24,-16 -7,-2 -14,-1 -22,4 -8,5 -18,14 -31,28 -13,13 -21,25 -24,34 -3,9 -2,19 3,28 4,7 11,15 21,26 10,11 29,30 57,57 15,14 27,23 38,28 10,5 19,5 28,1 10,-4 21,-13 34,-26 12,-13 21,-24 25,-33 5,-8 6,-16 3,-24 -2,-7 -8,-16 -18,-25 -3,-3 -6,-5 -8,-8 z"
       inkscape:connector-curvature="0"
       style="fill:#ffffff;fill-rule:nonzero" /><polygon
       id="5"
       class="fil4"
       points="-2101,8280 -2225,8390 -2175,8446 -2039,8326 -1982,8390 -2196,8580 -2454,8290 -2243,8102 -2186,8166 -2319,8284 -2273,8336 -2149,8226 "
       style="fill:#ffffff;fill-rule:nonzero" /><path
       id="6"
       class="fil4"
       d="m -1792,8188 -117,76 21,67 -91,58 -113,-390 133,-85 310,262 -89,58 -54,-46 z m -57,-52 -133,-115 51,168 82,-53 z"
       inkscape:connector-curvature="0"
       style="fill:#ffffff;fill-rule:nonzero" /><path
       id="7"
       class="fil4"
       d="m -1477,7644 183,343 -156,83 -131,-115 c -22,-21 -36,-33 -41,-38 -5,-4 -9,-8 -12,-10 -3,-2 -8,-7 -15,-14 -7,-6 -20,-18 -39,-36 l -4,2 13,21 c 2,4 3,6 4,8 1,2 2,3 4,6 1,1 2,4 4,7 19,33 35,61 47,83 l 73,138 -90,48 -182,-344 154,-82 132,115 c 29,25 45,40 50,44 4,4 23,21 54,50 l 4,-2 -12,-20 -5,-10 c -20,-32 -37,-63 -52,-91 l -74,-138 91,-48 z"
       inkscape:connector-curvature="0"
       style="fill:#ffffff;fill-rule:nonzero" /><polygon
       id="8"
       class="fil4"
       points="-1393,7616 -1296,7577 -1149,7937 -1245,7976 "
       style="fill:#ffffff;fill-rule:nonzero" /><path
       id="9"
       class="fil4"
       d="m -901,7787 -134,40 1,69 -104,31 3,-406 151,-45 223,341 -102,29 -38,-59 z m -41,-66 -94,-148 1,175 93,-27 z"
       inkscape:connector-curvature="0"
       style="fill:#ffffff;fill-rule:nonzero" /><path
       id="10"
       class="fil4"
       d="m -193,7338 51,386 -102,13 -15,-115 c -2,-13 -4,-29 -5,-49 -2,-20 -3,-34 -4,-42 l -2,-15 0,-15 -2,-15 -1,-15 -1,-15 -1,-15 -4,0 c -7,45 -12,71 -13,81 -2,9 -8,43 -20,102 l -24,125 -89,12 -57,-115 c -9,-19 -17,-36 -24,-50 -7,-14 -13,-26 -17,-35 -5,-10 -10,-22 -17,-36 -6,-14 -14,-30 -22,-47 l -3,1 3,15 2,15 4,15 2,15 3,14 c 10,50 15,85 18,105 l 15,115 -101,14 -51,-386 161,-21 51,105 c 11,24 24,52 38,85 l 4,10 5,11 5,10 4,11 4,0 5,-35 c 3,-29 6,-47 7,-52 1,-6 4,-22 8,-50 l 20,-115 165,-22 z"
       inkscape:connector-curvature="0"
       style="fill:#ffffff;fill-rule:nonzero" /><path
       id="11"
       class="fil4"
       d="m 139,7667 -140,-2 -19,67 -108,-2 121,-387 158,2 113,391 -106,-2 -19,-67 z m -20,-76 -46,-169 -50,168 96,1 z"
       inkscape:connector-curvature="0"
       style="fill:#ffffff;fill-rule:nonzero" /><path
       id="12"
       class="fil4"
       d="m 468,7543 174,23 -1,4 c -3,34 -6,63 -10,85 -3,28 -9,50 -18,66 -8,16 -19,28 -35,37 -7,4 -14,7 -21,9 -8,2 -18,3 -30,3 -11,1 -24,0 -38,-1 -14,-1 -33,-3 -56,-6 -25,-3 -45,-7 -60,-10 -14,-4 -27,-8 -36,-14 -10,-5 -19,-12 -27,-20 -15,-15 -24,-34 -29,-55 -5,-22 -5,-49 -1,-80 0,0 2,-12 6,-35 2,-12 3,-24 5,-34 1,-10 3,-19 4,-27 1,-8 2,-14 3,-18 1,-4 3,-9 4,-14 13,-44 40,-72 81,-83 10,-3 19,-4 29,-5 10,-1 22,-1 35,0 14,1 32,3 56,6 28,4 49,8 64,11 15,4 27,8 36,13 20,10 34,24 40,42 7,17 9,44 5,79 l -105,-14 c 1,-16 -3,-26 -10,-32 -7,-6 -22,-10 -44,-13 -26,-4 -44,-4 -56,-1 -12,4 -21,11 -27,23 -3,7 -7,21 -9,41 l -2,11 -3,21 c -4,29 -6,50 -7,64 0,14 2,25 6,33 3,8 9,13 18,17 9,3 22,6 41,9 18,2 33,3 44,1 11,-2 19,-6 24,-13 6,-7 9,-17 11,-32 1,-4 1,-8 1,-11 l -72,-9 10,-71 z"
       inkscape:connector-curvature="0"
       style="fill:#ffffff;fill-rule:nonzero" /><polygon
       id="13"
       class="fil4"
       points="733,7414 835,7437 749,7817 647,7794 "
       style="fill:#ffffff;fill-rule:nonzero" /><path
       id="14"
       class="fil4"
       d="m 1171,7661 -95,-29 2,-6 c 4,-15 4,-26 -2,-33 -5,-7 -19,-13 -41,-20 -16,-5 -28,-8 -37,-8 -9,0 -16,1 -21,5 -5,4 -9,11 -11,21 -4,10 -4,18 -2,24 2,6 7,11 15,15 1,1 2,1 3,2 1,0 8,3 23,9 14,5 26,10 37,14 28,10 49,19 62,27 13,7 23,15 31,24 6,8 10,16 13,25 2,8 3,18 2,29 -1,11 -4,24 -9,41 -8,26 -16,46 -25,59 -8,12 -18,22 -30,27 -16,7 -33,10 -52,8 -20,-1 -48,-8 -84,-19 -36,-11 -64,-21 -83,-30 -20,-8 -34,-18 -42,-29 -9,-10 -15,-23 -17,-38 -1,-9 0,-19 2,-30 2,-11 6,-27 12,-47 l 95,29 -2,7 c -6,17 -4,30 4,37 4,4 9,7 14,10 6,2 17,6 34,11 21,6 34,9 40,10 6,0 12,-1 18,-5 6,-3 11,-11 15,-23 3,-10 4,-17 2,-23 -1,-6 -5,-11 -12,-15 -5,-3 -14,-7 -26,-12 l -11,-4 -12,-4 -11,-4 c -31,-12 -52,-21 -65,-28 -12,-6 -23,-14 -31,-22 -11,-11 -17,-25 -18,-42 -2,-16 2,-38 10,-65 7,-23 15,-41 24,-53 9,-13 20,-22 34,-26 14,-5 31,-6 52,-3 21,3 48,9 81,19 36,11 61,21 77,29 16,8 28,17 36,28 16,23 18,53 7,91 -2,7 -4,13 -6,17 z"
       inkscape:connector-curvature="0"
       style="fill:#ffffff;fill-rule:nonzero" /><polygon
       id="15"
       class="fil4"
       points="1311,7681 1219,7646 1251,7562 1539,7672 1507,7756 1409,7718 1302,7998 1204,7960 "
       style="fill:#ffffff;fill-rule:nonzero" /><polygon
       id="16"
       class="fil4"
       points="1730,8033 1583,7957 1548,8024 1709,8107 1669,8183 1416,8052 1595,7707 1845,7836 1805,7912 1648,7831 1616,7893 1763,7969 "
       style="fill:#ffffff;fill-rule:nonzero" /><path
       id="17"
       class="fil4"
       d="m 1703,8203 220,-320 162,112 c 19,13 34,24 44,34 10,9 18,19 22,27 10,18 13,36 10,53 -4,18 -14,39 -30,63 -17,24 -31,41 -42,51 -11,10 -23,15 -36,15 -12,1 -29,-3 -49,-10 l -2,3 c 12,10 21,20 27,30 5,11 7,22 4,34 -2,12 -7,24 -17,38 l -40,58 -87,-60 29,-42 c 11,-16 16,-29 15,-39 -1,-10 -8,-19 -22,-28 l -64,-45 -58,85 -86,-59 z m 194,-98 69,47 c 9,7 17,10 24,11 6,1 12,-2 19,-7 6,-6 15,-16 25,-32 8,-11 13,-20 14,-26 2,-7 1,-13 -3,-19 -4,-5 -11,-12 -22,-19 l -64,-45 -62,90 z"
       inkscape:connector-curvature="0"
       style="fill:#ffffff;fill-rule:nonzero" /><polygon
       id="18"
       class="fil4"
       points="2418,8569 2299,8455 2246,8509 2377,8634 2317,8696 2112,8499 2381,8219 2584,8414 2524,8476 2396,8353 2348,8403 2468,8518 "
       style="fill:#ffffff;fill-rule:nonzero" /><path
       id="19"
       class="fil4"
       d="m 2644,8968 -71,7 -6,-48 c -12,-3 -24,-7 -36,-13 -11,-7 -23,-16 -36,-27 -12,-12 -27,-27 -43,-46 -21,-23 -37,-44 -47,-62 -10,-18 -16,-36 -17,-52 -1,-16 2,-33 10,-50 5,-12 13,-24 23,-36 9,-11 25,-26 47,-46 27,-24 49,-43 66,-56 17,-12 31,-21 43,-27 12,-5 24,-8 36,-9 17,0 32,2 46,7 14,5 28,13 44,26 16,13 33,31 53,53 19,21 33,39 42,52 8,13 14,25 17,38 11,36 5,69 -18,100 -6,8 -14,17 -25,28 -10,10 -27,26 -50,46 -23,21 -40,35 -50,43 -11,8 -22,15 -34,21 l 6,51 z m -97,-231 71,-8 7,67 c 7,-5 17,-14 31,-26 21,-19 36,-33 43,-40 6,-8 11,-15 14,-22 3,-6 3,-12 3,-18 -1,-5 -4,-12 -9,-19 -5,-7 -12,-16 -21,-26 -16,-18 -28,-29 -38,-33 -9,-5 -19,-4 -31,1 -7,2 -19,11 -37,25 l -11,10 -11,10 -11,10 c -18,15 -30,27 -39,37 -8,10 -13,18 -15,26 -1,8 1,16 5,24 5,9 14,20 26,34 12,13 22,22 31,28 l -8,-80 z"
       inkscape:connector-curvature="0"
       style="fill:#ffffff;fill-rule:nonzero" /><path
       id="20"
       class="fil4"
       d="m 3048,8974 61,85 -198,143 c -5,4 -16,11 -35,23 -17,10 -32,17 -45,19 -12,2 -27,1 -42,-3 -10,-3 -20,-8 -28,-14 -9,-6 -18,-14 -28,-25 -10,-11 -22,-26 -36,-46 -14,-18 -24,-34 -33,-48 -8,-14 -15,-25 -19,-36 -4,-10 -6,-20 -8,-30 -2,-15 -1,-27 2,-38 3,-10 10,-21 20,-32 10,-10 26,-23 47,-39 l 205,-149 61,85 -205,148 c -11,9 -19,16 -22,23 -4,7 -4,15 0,24 3,9 11,21 23,37 8,11 14,20 20,25 6,6 11,9 17,10 5,2 11,1 18,-2 6,-3 15,-8 25,-15 l 200,-145 z"
       inkscape:connector-curvature="0"
       style="fill:#ffffff;fill-rule:nonzero" /><polygon
       id="21"
       class="fil4"
       points="3150,9140 3202,9231 2864,9423 2812,9333 "
       style="fill:#ffffff;fill-rule:nonzero" /><polygon
       id="22"
       class="fil4"
       points="3184,9388 3138,9301 3217,9259 3362,9531 3283,9573 3234,9480 2969,9621 2920,9529 "
       style="fill:#ffffff;fill-rule:nonzero" /><polygon
       id="23"
       class="fil4"
       points="3379,9596 3417,9693 3056,9835 3018,9738 "
       style="fill:#ffffff;fill-rule:nonzero" /><path
       id="24"
       class="fil4"
       d="m 3424,10094 -30,-95 6,-2 c 15,-5 24,-11 26,-20 3,-8 0,-23 -7,-46 -5,-16 -10,-27 -15,-35 -5,-8 -10,-12 -16,-14 -6,-1 -14,-1 -24,2 -10,4 -17,8 -21,13 -3,5 -5,12 -4,21 1,1 1,2 1,3 0,1 2,9 6,24 3,15 7,28 9,39 8,29 12,51 14,66 1,15 0,28 -3,40 -3,9 -7,18 -13,24 -5,7 -13,13 -23,19 -9,5 -22,10 -38,15 -27,9 -47,13 -63,14 -15,1 -28,-2 -40,-9 -14,-9 -26,-22 -36,-39 -10,-16 -21,-43 -32,-79 -12,-36 -20,-65 -23,-86 -4,-21 -4,-38 0,-51 3,-13 11,-25 22,-35 7,-6 15,-11 25,-16 10,-5 25,-10 45,-17 l 31,95 -7,2 c -18,5 -27,13 -29,24 -1,6 0,12 1,18 1,6 5,17 10,35 7,20 11,33 15,38 3,5 7,9 14,12 6,3 16,3 28,-1 9,-3 16,-7 20,-11 4,-5 5,-11 5,-19 0,-6 -2,-15 -5,-28 l -3,-12 -3,-12 -3,-11 c -8,-32 -13,-55 -15,-69 -1,-14 -1,-27 1,-38 3,-16 11,-29 24,-39 13,-11 33,-21 59,-29 23,-7 43,-11 58,-11 16,0 29,5 41,14 11,8 22,22 32,41 9,19 19,45 30,77 11,36 18,62 21,80 2,18 1,33 -4,45 -9,26 -32,46 -70,58 -6,2 -12,4 -17,5 z"
       inkscape:connector-curvature="0"
       style="fill:#ffffff;fill-rule:nonzero" /><path
       class="fil0"
       d="m -2185,11945 -217,-354 c 237,-99 453,-296 453,-591 0,-295 -216,-492 -453,-591 l 217,-354 c 363,277 864,493 1781,541 -48,-917 -264,-1418 -541,-1781 l 354,-217 c 99,237 296,453 591,453 295,0 492,-216 591,-453 l 354,217 c -277,363 -493,864 -541,1781 917,-48 1418,-264 1781,-541 l 217,354 c -237,99 -453,296 -453,591 0,295 216,492 453,591 l -217,354 c -363,-277 -864,-493 -1781,-541 48,917 264,1418 541,1781 l -354,217 c -99,-237 -296,-453 -591,-453 -295,0 -492,216 -591,453 l -354,-217 c 277,-363 493,-864 541,-1781 -917,48 -1418,264 -1781,541 z"
       id="path4555"
       inkscape:connector-curvature="0"
       style="fill:#4060a0" /><path
       class="fil2"
       d="m -387,12299 141,87 c 49,-205 154,-244 246,-244 92,0 197,39 246,244 l 141,-87 c -82,-336 -117,-691 -127,-1039 348,10 703,45 1039,127 l 87,-141 c -205,-49 -244,-154 -244,-246 0,-92 39,-197 244,-246 l -87,-141 c -336,82 -691,117 -1039,127 10,-348 45,-703 127,-1039 l -141,-87 c -49,205 -154,244 -246,244 -92,0 -197,-39 -246,-244 l -141,87 c 82,336 117,691 127,1039 -348,-10 -703,-45 -1039,-127 l -87,141 c 205,49 244,154 244,246 0,92 -39,197 -244,246 l 87,141 c 336,-82 691,-117 1039,-127 -10,348 -45,703 -127,1039 z"
       id="path4557"
       inkscape:connector-curvature="0"
       style="fill:#ffffff" /></g></svg>