<?xml version="1.0" encoding="UTF-8" standalone="no"?>
<!-- Creator: CorelDRAW X7 -->

<svg
   xmlns:dc="http://purl.org/dc/elements/1.1/"
   xmlns:cc="http://creativecommons.org/ns#"
   xmlns:rdf="http://www.w3.org/1999/02/22-rdf-syntax-ns#"
   xmlns:svg="http://www.w3.org/2000/svg"
   xmlns="http://www.w3.org/2000/svg"
   xmlns:sodipodi="http://sodipodi.sourceforge.net/DTD/sodipodi-0.dtd"
   xmlns:inkscape="http://www.inkscape.org/namespaces/inkscape"
   xml:space="preserve"
   width="7.8740005in"
   height="7.8740005in"
   version="1.1"
   style="clip-rule:evenodd;fill-rule:evenodd;image-rendering:optimizeQuality;shape-rendering:geometricPrecision;text-rendering:geometricPrecision"
   viewBox="0 0 7874.0005 7874.0005"
   id="svg4416"
   inkscape:version="0.91 r13725"
   sodipodi:docname="PanOceania - Knights of Santiago - [N3] [Vyo].svg"><metadata
     id="metadata4436"><rdf:RDF><cc:Work
         rdf:about=""><dc:format>image/svg+xml</dc:format><dc:type
           rdf:resource="http://purl.org/dc/dcmitype/StillImage" /></cc:Work></rdf:RDF></metadata><sodipodi:namedview
     pagecolor="#ffffff"
     bordercolor="#666666"
     borderopacity="1"
     objecttolerance="10"
     gridtolerance="10"
     guidetolerance="10"
     inkscape:pageopacity="0"
     inkscape:pageshadow="2"
     inkscape:window-width="640"
     inkscape:window-height="480"
     id="namedview4434"
     showgrid="false"
     inkscape:zoom="0.23838384"
     inkscape:cx="736.83001"
     inkscape:cy="849.33005"
     inkscape:window-x="0"
     inkscape:window-y="0"
     inkscape:window-maximized="0"
     inkscape:current-layer="svg4416" /><defs
     id="defs4418"><style
       type="text/css"
       id="style4420"><![CDATA[
    .fil0 {fill:black}
    .fil1 {fill:#E2001A}
    .fil2 {fill:#E2001A;fill-rule:nonzero}
   ]]></style></defs><g
     id="Layer_x0020_1"
     transform="translate(3937,-7063)"><metadata
       id="CorelCorpID_0Corel-Layer" /><circle
       class="fil0"
       cy="11000"
       r="3937"
       id="circle4424"
       cx="0"
       style="fill:#000000" /><circle
       class="fil1"
       cy="11000"
       r="3858"
       id="circle4426"
       cx="0"
       style="fill:#e2001a" /><circle
       class="fil0"
       cy="11000"
       r="3780"
       id="circle4428"
       cx="0"
       style="fill:#000000" /><path
       class="fil1"
       d="m -1594,9839 c 196,-59 354,-158 413,-296 59,-137 124,-295 256,-295 131,0 256,79 295,158 -315,0 -236,314 -79,314 l 591,1 0,-1241 c 0,-59 -13,-87 -51,-126 -15,-15 -40,-15 -56,0 -15,15 -15,40 0,56 24,23 28,36 28,70 0,40 -59,99 -98,99 -99,0 -177,-99 -177,-236 0,-256 354,-414 472,-729 118,315 472,473 472,729 0,137 -78,236 -177,236 -39,0 -98,-59 -98,-99 0,-34 4,-47 28,-70 15,-16 15,-41 0,-56 -16,-15 -41,-15 -56,0 -38,39 -51,67 -51,126 l 0,1241 591,-1 c 157,0 236,-314 -79,-314 39,-79 164,-158 295,-158 132,0 197,158 256,295 59,138 217,237 413,296 -196,59 -354,157 -413,295 -59,138 -124,295 -256,295 -131,0 -256,-79 -295,-157 315,0 236,-315 79,-315 l -591,0 0,157 c 0,138 118,256 256,256 L 0,14386 -374,10370 c 138,0 256,-118 256,-256 l 0,-157 -591,0 c -157,0 -236,315 79,315 -39,78 -164,157 -295,157 -132,0 -197,-157 -256,-295 -59,-138 -217,-236 -413,-295 z"
       id="path4430"
       inkscape:connector-curvature="0"
       style="fill:#e2001a" /><path
       class="fil2"
       d="m -2205,8283 1659,0 c -4,20 -5,40 -5,60 0,60 13,123 42,177 l -1696,0 c -75,0 -144,31 -194,81 -50,50 -81,119 -81,194 l 0,4410 c 0,75 31,144 81,194 50,50 119,81 194,81 l 2042,0 22,237 -2064,0 c -141,0 -269,-58 -361,-151 -93,-92 -151,-220 -151,-361 l 0,-4410 c 0,-141 58,-269 151,-361 92,-93 220,-151 361,-151 z m 2751,0 1659,0 c 141,0 269,58 361,151 93,92 151,220 151,361 l 0,4410 c 0,141 -58,269 -151,361 -92,93 -220,151 -361,151 l -2064,0 22,-237 2042,0 c 75,0 144,-31 194,-81 50,-50 81,-119 81,-194 l 0,-4410 c 0,-75 -31,-144 -81,-194 -50,-50 -119,-81 -194,-81 l -1696,0 c 29,-54 42,-117 42,-177 0,-20 -1,-40 -5,-60 z"
       id="path4432"
       inkscape:connector-curvature="0"
       style="fill:#e2001a;fill-rule:nonzero" /></g></svg>