<?xml version="1.0" encoding="UTF-8" standalone="no"?>
<!-- Creator: CorelDRAW X7 -->

<svg
   xmlns:dc="http://purl.org/dc/elements/1.1/"
   xmlns:cc="http://creativecommons.org/ns#"
   xmlns:rdf="http://www.w3.org/1999/02/22-rdf-syntax-ns#"
   xmlns:svg="http://www.w3.org/2000/svg"
   xmlns="http://www.w3.org/2000/svg"
   xmlns:sodipodi="http://sodipodi.sourceforge.net/DTD/sodipodi-0.dtd"
   xmlns:inkscape="http://www.inkscape.org/namespaces/inkscape"
   xml:space="preserve"
   width="7.8740005in"
   height="5.7200003in"
   version="1.1"
   style="clip-rule:evenodd;fill-rule:evenodd;image-rendering:optimizeQuality;shape-rendering:geometricPrecision;text-rendering:geometricPrecision"
   viewBox="0 0 7874.0005 5720.0003"
   id="svg4789"
   inkscape:version="0.91 r13725"
   sodipodi:docname="PanOceania - Palbots - [N3] [Vyo].svg"><metadata
     id="metadata4868"><rdf:RDF><cc:Work
         rdf:about=""><dc:format>image/svg+xml</dc:format><dc:type
           rdf:resource="http://purl.org/dc/dcmitype/StillImage" /></cc:Work></rdf:RDF></metadata><sodipodi:namedview
     pagecolor="#ffffff"
     bordercolor="#666666"
     borderopacity="1"
     objecttolerance="10"
     gridtolerance="10"
     guidetolerance="10"
     inkscape:pageopacity="0"
     inkscape:pageshadow="2"
     inkscape:window-width="640"
     inkscape:window-height="480"
     id="namedview4866"
     showgrid="false"
     inkscape:zoom="0.23838384"
     inkscape:cx="736.83001"
     inkscape:cy="752.40005"
     inkscape:window-x="0"
     inkscape:window-y="0"
     inkscape:window-maximized="0"
     inkscape:current-layer="svg4789" /><defs
     id="defs4791"><style
       type="text/css"
       id="style4793"><![CDATA[
    .fil0 {fill:#00C0FF}
    .fil4 {fill:#E2001A}
    .fil1 {fill:white}
    .fil2 {fill:white}
    .fil3 {fill:#00C0FF;fill-rule:nonzero}
   ]]></style></defs><g
     id="Layer_x0020_1"
     transform="translate(3937,-8140)"><metadata
       id="CorelCorpID_0Corel-Layer" /><polygon
       class="fil0"
       points="-689,11891 -2854,11891 -3937,10016 -2854,8140 -689,8140 394,10016 "
       id="polygon4797"
       style="fill:#00c0ff" /><polygon
       class="fil1"
       points="-871,11576 30,10016 -871,8455 -2672,8455 -3573,10016 -2672,11576 "
       id="polygon4799"
       style="fill:#ffffff" /><polygon
       class="fil0"
       points="2854,13860 689,13860 -394,11984 689,10109 2854,10109 3937,11984 "
       id="polygon4801"
       style="fill:#00c0ff" /><polygon
       class="fil1"
       points="2832,13820 3892,11984 2832,10148 712,10148 -348,11984 712,13820 "
       id="polygon4803"
       style="fill:#ffffff" /><polygon
       class="fil0"
       points="2672,13545 3573,11984 2672,10424 871,10424 -30,11984 871,13545 "
       id="polygon4805"
       style="fill:#00c0ff" /><g
       id="_915377280"><path
         class="fil2"
         d="m -1172,8384 0,-29 314,0 0,129 -87,0 0,151 -140,0 0,-151 -58,0 0,41 c 0,17 -2,35 -9,51 -6,16 -17,29 -31,39 -12,9 -27,15 -42,18 -15,3 -31,4 -46,4 l -99,0 c -15,0 -31,-1 -46,-4 -15,-3 -29,-9 -42,-18 -12,-8 -21,-20 -28,-33 0,1 -1,1 -1,2 -5,13 -14,25 -26,33 -10,7 -22,12 -34,15 -11,2 -22,3 -33,3 l -592,0 -19,-36 -77,0 -18,36 -159,0 34,-64 c -2,1 -4,2 -7,4 -13,6 -28,9 -44,9 l -83,0 0,51 -140,0 0,-280 207,0 c 16,0 33,2 49,7 15,5 28,14 39,25 9,11 16,24 20,38 3,12 4,25 4,38 l 0,17 c 0,3 0,5 0,8 l 72,-133 127,0 97,177 0,-177 141,0 0,149 113,0 0,-149 217,0 c 26,0 56,4 78,19 16,11 26,26 31,44 0,-2 1,-3 1,-4 7,-16 17,-30 31,-39 13,-10 27,-15 42,-18 15,-3 31,-4 46,-4 l 99,0 c 15,0 31,1 46,4 15,3 30,9 42,17 4,3 8,6 11,10 z m -184,123 71,0 c 0,-1 0,-1 0,-1 l 0,-22 c 0,0 0,-1 0,-1 l -71,0 c 0,0 0,1 0,1 l 0,22 c 0,0 0,0 0,1 z"
         id="path4808"
         inkscape:connector-curvature="0"
         style="fill:#ffffff" /></g><path
       class="fil3"
       d="m -2646,8595 62,0 0,-50 122,0 c 11,0 19,-2 27,-6 7,-3 13,-8 18,-15 4,-6 7,-13 9,-20 2,-8 3,-16 3,-24 l 0,-17 c 0,-10 -1,-20 -3,-28 -3,-8 -6,-15 -12,-22 -5,-6 -13,-10 -22,-14 -10,-3 -22,-5 -36,-5 l -168,0 0,201 z m 62,-151 90,0 c 9,0 16,2 20,6 4,3 6,9 6,16 l 0,7 c 0,7 -2,12 -5,16 -4,4 -9,6 -15,6 l -96,0 0,-51 z"
       id="path4810"
       inkscape:connector-curvature="0"
       style="fill:#00c0ff;fill-rule:nonzero" /><path
       id="1"
       class="fil3"
       d="m -2379,8595 69,0 18,-35 125,0 19,35 68,0 -110,-201 -80,0 -109,201 z m 149,-154 40,76 -79,0 39,-76 z"
       inkscape:connector-curvature="0"
       style="fill:#00c0ff;fill-rule:nonzero" /><polygon
       id="2"
       class="fil3"
       points="-1969,8544 -1969,8394 -2030,8394 -2030,8595 -1830,8595 -1830,8544 "
       style="fill:#00c0ff;fill-rule:nonzero" /><path
       id="3"
       class="fil3"
       d="m -1776,8595 196,0 c 9,0 18,0 25,-2 7,-2 14,-4 19,-8 6,-4 10,-9 13,-16 3,-7 4,-16 4,-27 0,-15 -2,-27 -8,-34 -6,-8 -15,-12 -29,-14 l 0,-1 c 5,-1 10,-3 13,-5 3,-1 7,-4 9,-7 3,-3 5,-8 6,-13 1,-6 2,-13 2,-21 0,-19 -6,-33 -17,-41 -12,-8 -31,-12 -56,-12 l -177,0 0,201 z m 61,-79 111,0 c 7,0 13,1 16,3 4,3 6,7 6,13 0,6 -2,10 -6,12 -3,2 -9,3 -16,3 l -111,0 0,-31 z m 0,-73 109,0 c 6,0 11,1 14,3 3,3 4,7 4,12 0,6 -1,10 -4,12 -3,3 -8,4 -14,4 l -109,0 0,-31 z"
       inkscape:connector-curvature="0"
       style="fill:#00c0ff;fill-rule:nonzero" /><path
       id="4"
       class="fil3"
       d="m -1458,8525 c 0,14 2,26 6,36 4,9 9,17 17,22 7,5 16,9 27,11 11,3 23,4 38,4 l 99,0 c 15,0 28,-1 38,-4 11,-2 20,-6 28,-11 7,-5 13,-13 17,-22 4,-10 6,-22 6,-36 l 0,-60 c 0,-15 -2,-27 -6,-36 -4,-10 -10,-17 -17,-22 -8,-6 -17,-9 -28,-12 -10,-2 -23,-3 -38,-3 l -99,0 c -15,0 -27,1 -38,3 -11,2 -20,6 -27,12 -8,5 -13,12 -17,22 -4,9 -6,21 -6,36 l 0,60 z m 63,-41 c 0,-14 3,-24 8,-30 5,-7 15,-10 31,-10 l 72,0 c 15,0 25,3 30,10 6,6 8,16 8,30 l 0,22 c 0,15 -2,25 -7,31 -4,6 -14,9 -28,9 l -79,0 c -14,0 -23,-3 -28,-9 -5,-6 -7,-16 -7,-31 l 0,-22 z"
       inkscape:connector-curvature="0"
       style="fill:#00c0ff;fill-rule:nonzero" /><polygon
       id="5"
       class="fil3"
       points="-984,8595 -984,8444 -897,8444 -897,8394 -1132,8394 -1132,8444 -1046,8444 -1046,8595 "
       style="fill:#00c0ff;fill-rule:nonzero" /><g
       id="_915374112"><path
         class="fil2"
         d="m -1615,11465 c 7,-12 15,-21 26,-29 12,-9 27,-15 42,-18 15,-3 31,-4 46,-4 l 93,0 c 17,0 35,1 52,6 15,4 30,11 41,23 11,10 18,23 22,37 2,7 3,15 3,22 l 2,0 0,97 c 0,17 -2,34 -9,50 -8,16 -20,29 -36,36 -13,7 -28,10 -43,12 -16,1 -34,1 -51,1 l -74,0 c -15,0 -31,-1 -46,-4 -15,-3 -29,-8 -42,-17 -11,-8 -19,-18 -26,-29 l 0,48 -154,0 -58,-73 0,73 -428,0 0,-280 442,0 58,74 0,-74 140,0 0,49 z"
         id="path4818"
         inkscape:connector-curvature="0"
         style="fill:#ffffff" /></g><polygon
       class="fil3"
       points="-2154,11609 -2154,11576 -2004,11576 -2004,11535 -2154,11535 -2154,11502 -1996,11502 -1996,11456 -2216,11456 -2216,11657 -1992,11657 -1992,11609 "
       id="polygon4820"
       style="fill:#00c0ff;fill-rule:nonzero" /><polygon
       id="polygon4822"
       class="fil3"
       points="-1866,11511 -1750,11657 -1654,11657 -1654,11456 -1716,11456 -1716,11602 -1716,11602 -1832,11456 -1928,11456 -1928,11657 -1866,11657 -1866,11511 "
       style="fill:#00c0ff;fill-rule:nonzero" /><path
       id="path4824"
       class="fil3"
       d="m -1589,11586 c 0,15 1,27 5,36 4,10 10,17 18,23 7,5 16,9 27,11 11,2 23,3 38,3 l 74,0 c 21,0 37,0 48,-1 11,-1 21,-4 29,-8 7,-4 13,-10 17,-18 4,-8 6,-19 6,-33 l 0,-58 -139,0 0,42 77,0 0,6 c 0,4 -1,8 -3,11 -1,3 -4,5 -7,7 -3,1 -6,2 -10,3 -3,1 -8,1 -12,1 l -66,0 c -8,0 -15,-1 -20,-2 -4,-1 -8,-3 -11,-6 -3,-3 -5,-7 -6,-13 -2,-5 -2,-12 -2,-21 l 0,-25 c 0,-9 0,-16 2,-22 1,-5 3,-9 6,-12 3,-3 7,-5 11,-6 5,-1 12,-2 20,-2 l 67,0 c 11,0 19,1 24,4 5,3 7,9 7,18 l 61,0 0,-6 c 0,-11 -1,-20 -3,-28 -2,-7 -6,-14 -11,-19 -6,-6 -14,-10 -25,-13 -10,-3 -24,-4 -41,-4 l -93,0 c -15,0 -27,1 -38,3 -11,2 -20,6 -27,11 -8,5 -14,13 -18,22 -4,10 -5,22 -5,36 l 0,60 z"
       inkscape:connector-curvature="0"
       style="fill:#00c0ff;fill-rule:nonzero" /><g
       id="_915375520"><path
         class="fil2"
         d="m 2372,10234 0,-29 313,0 0,129 -86,0 0,151 -141,0 0,-151 -58,0 0,41 c 0,17 -2,35 -8,51 -7,16 -17,30 -31,39 -13,9 -27,15 -42,18 -15,3 -31,4 -47,4 l -98,0 c -16,0 -32,-1 -47,-4 -15,-3 -29,-9 -42,-17 -12,-9 -21,-20 -28,-34 0,1 0,2 0,2 -6,14 -15,25 -27,34 -10,7 -21,11 -33,14 -11,2 -23,3 -34,3 l -591,0 -20,-35 -77,0 -18,35 -159,0 35,-64 c -3,2 -5,3 -7,4 -14,7 -29,10 -44,10 l -84,0 0,50 -140,0 0,-280 207,0 c 17,0 34,2 49,8 15,5 29,13 39,25 9,11 16,23 20,37 3,13 5,26 5,39 l 0,17 c 0,2 -1,5 -1,7 l 72,-133 127,0 98,177 0,-177 140,0 0,150 114,0 0,-150 216,0 c 27,0 56,4 78,19 16,11 26,27 31,44 0,-1 1,-3 2,-4 6,-16 16,-29 30,-39 13,-9 27,-15 43,-18 15,-3 30,-4 46,-4 l 98,0 c 16,0 32,1 47,4 15,3 29,9 41,18 4,3 8,6 12,9 z m -184,123 70,0 c 0,0 0,-1 0,-1 l 0,-22 c 0,0 0,0 0,-1 l -70,0 c 0,1 0,1 0,1 l 0,22 c 0,0 0,1 0,1 z"
         id="path4827"
         inkscape:connector-curvature="0"
         style="fill:#ffffff" /></g><path
       class="fil3"
       d="m 897,10446 62,0 0,-51 123,0 c 10,0 19,-2 26,-5 8,-4 13,-9 18,-15 4,-6 7,-13 9,-21 2,-7 3,-15 3,-23 l 0,-17 c 0,-11 -1,-20 -3,-29 -2,-8 -6,-15 -12,-21 -5,-6 -12,-11 -22,-14 -9,-4 -21,-5 -36,-5 l -168,0 0,201 z m 62,-151 91,0 c 9,0 15,1 19,5 4,4 6,9 6,16 l 0,8 c 0,6 -2,12 -5,15 -3,4 -8,6 -15,6 l -96,0 0,-50 z"
       id="path4829"
       inkscape:connector-curvature="0"
       style="fill:#00c0ff;fill-rule:nonzero" /><path
       id="path4831"
       class="fil3"
       d="m 1164,10446 69,0 18,-36 125,0 19,36 69,0 -111,-201 -80,0 -109,201 z m 149,-155 40,76 -79,0 39,-76 z"
       inkscape:connector-curvature="0"
       style="fill:#00c0ff;fill-rule:nonzero" /><polygon
       id="polygon4833"
       class="fil3"
       points="1575,10394 1575,10245 1513,10245 1513,10446 1713,10446 1713,10394 "
       style="fill:#00c0ff;fill-rule:nonzero" /><path
       id="path4835"
       class="fil3"
       d="m 1767,10446 196,0 c 10,0 18,-1 25,-3 8,-1 14,-4 20,-8 5,-3 9,-9 12,-16 3,-7 5,-16 5,-27 0,-15 -3,-26 -9,-34 -5,-7 -15,-12 -28,-14 l 0,0 c 5,-2 9,-4 12,-5 4,-2 7,-5 9,-8 3,-3 5,-7 6,-13 2,-5 2,-12 2,-21 0,-19 -5,-32 -17,-40 -12,-8 -30,-12 -56,-12 l -177,0 0,201 z m 62,-80 110,0 c 8,0 13,1 17,4 3,2 5,6 5,13 0,5 -2,9 -5,11 -4,2 -10,3 -17,3 l -110,0 0,-31 z m 0,-73 109,0 c 6,0 10,1 13,4 3,2 5,6 5,12 0,5 -2,9 -5,12 -3,2 -7,3 -13,3 l -109,0 0,-31 z"
       inkscape:connector-curvature="0"
       style="fill:#00c0ff;fill-rule:nonzero" /><path
       id="path4837"
       class="fil3"
       d="m 2085,10375 c 0,15 2,27 6,36 4,10 10,17 17,22 8,6 17,9 27,12 11,2 24,3 39,3 l 98,0 c 15,0 28,-1 39,-3 10,-3 19,-6 27,-12 8,-5 13,-12 17,-22 4,-9 6,-21 6,-36 l 0,-60 c 0,-14 -2,-26 -6,-36 -4,-9 -9,-17 -17,-22 -8,-5 -17,-9 -27,-11 -11,-2 -24,-4 -39,-4 l -98,0 c -15,0 -28,2 -39,4 -10,2 -19,6 -27,11 -7,5 -13,13 -17,22 -4,10 -6,22 -6,36 l 0,60 z m 63,-41 c 0,-13 3,-23 8,-30 5,-7 16,-10 31,-10 l 72,0 c 15,0 25,3 31,10 5,7 8,17 8,30 l 0,22 c 0,15 -3,26 -7,32 -5,5 -15,8 -29,8 l -78,0 c -15,0 -24,-3 -29,-8 -4,-6 -7,-17 -7,-32 l 0,-22 z"
       inkscape:connector-curvature="0"
       style="fill:#00c0ff;fill-rule:nonzero" /><polygon
       id="polygon4839"
       class="fil3"
       points="2559,10446 2559,10295 2646,10295 2646,10245 2411,10245 2411,10295 2498,10295 2498,10446 "
       style="fill:#00c0ff;fill-rule:nonzero" /><g
       id="_915373472"><path
         class="fil2"
         d="m 1944,13384 c 6,-16 16,-29 30,-39 13,-9 27,-14 42,-17 15,-3 31,-4 46,-4 l 73,0 c 19,0 40,0 59,4 17,3 34,10 47,21 14,11 22,26 27,43 4,15 5,31 5,47 l 0,11 2,0 0,58 c 0,12 -1,24 -4,35 -4,14 -12,26 -22,36 -10,11 -24,18 -38,23 -16,4 -33,6 -49,6 l -100,0 c -15,0 -31,-1 -46,-4 -15,-3 -29,-9 -42,-18 -14,-10 -24,-23 -31,-38 -6,15 -16,28 -30,38 -13,9 -27,15 -42,18 -15,3 -31,4 -46,4 l -99,0 c -16,0 -31,-1 -46,-4 -15,-3 -30,-9 -42,-18 -14,-10 -24,-23 -31,-38 -5,12 -12,23 -23,32 -24,21 -59,26 -90,26 l -226,0 0,-280 226,0 c 31,0 66,5 90,25 11,10 18,21 23,33 7,-16 17,-29 30,-39 13,-9 28,-14 43,-17 15,-3 31,-4 46,-4 l 99,0 c 15,0 31,1 46,4 15,3 29,9 42,17 14,10 24,23 31,39 z m 188,70 -56,0 c 0,0 0,1 0,1 l 0,22 c 0,0 0,0 0,1 l 56,0 0,-24 z m -723,1 0,20 67,0 0,-20 -67,0 z m 331,23 71,0 c 0,-1 0,-1 0,-1 l 0,-22 c 0,0 0,-1 0,-1 l -71,0 c 0,0 0,1 0,1 l 0,22 c 0,0 0,0 0,1 z"
         id="path4842"
         inkscape:connector-curvature="0"
         style="fill:#ffffff" /></g><path
       class="fil3"
       d="m 1308,13566 186,0 c 30,0 52,-5 64,-16 13,-11 19,-28 19,-54 l 0,-61 c 0,-25 -6,-43 -19,-54 -12,-10 -34,-16 -64,-16 l -186,0 0,201 z m 61,-151 110,0 c 13,0 23,3 28,8 6,5 8,14 8,28 l 0,28 c 0,13 -2,23 -8,28 -5,5 -15,8 -28,8 l -110,0 0,-100 z"
       id="path4844"
       inkscape:connector-curvature="0"
       style="fill:#00c0ff;fill-rule:nonzero" /><path
       id="path4846"
       class="fil3"
       d="m 1637,13496 c 0,14 2,26 6,36 4,9 10,17 17,22 8,5 17,9 28,11 10,2 23,4 38,4 l 99,0 c 15,0 27,-2 38,-4 11,-2 20,-6 27,-11 8,-6 14,-13 17,-22 4,-10 6,-22 6,-36 l 0,-60 c 0,-15 -2,-27 -6,-36 -3,-10 -9,-17 -17,-22 -7,-6 -16,-9 -27,-12 -11,-2 -23,-3 -38,-3 l -99,0 c -15,0 -28,1 -38,3 -11,2 -20,6 -28,11 -7,6 -13,13 -17,23 -4,9 -6,21 -6,36 l 0,60 z m 64,-41 c 0,-14 2,-24 7,-30 6,-7 16,-10 31,-10 l 72,0 c 16,0 26,3 31,10 5,6 8,16 8,30 l 0,22 c 0,15 -2,25 -7,31 -5,6 -14,9 -28,9 l -79,0 c -14,0 -24,-3 -28,-9 -5,-6 -7,-16 -7,-31 l 0,-22 z"
       inkscape:connector-curvature="0"
       style="fill:#00c0ff;fill-rule:nonzero" /><path
       id="path4848"
       class="fil3"
       d="m 1974,13496 c 0,14 2,26 6,36 3,9 9,17 17,22 7,5 16,9 27,11 11,2 23,4 38,4 l 100,0 c 15,0 27,-2 37,-5 10,-3 17,-7 23,-13 5,-5 9,-11 11,-18 2,-8 3,-16 3,-25 l 0,-19 -62,0 c 0,6 -1,11 -2,15 -1,4 -3,7 -6,8 -2,2 -6,4 -10,4 -4,1 -10,1 -18,1 l -66,0 c -14,0 -23,-3 -28,-9 -5,-6 -7,-16 -7,-31 l 0,-22 c 0,-14 3,-24 8,-30 5,-7 15,-10 30,-10 l 68,0 c 9,0 17,1 21,4 5,3 8,7 8,14 l 0,6 61,0 c 0,-16 -1,-28 -3,-37 -3,-10 -7,-17 -14,-23 -7,-6 -17,-10 -30,-12 -12,-3 -30,-4 -51,-4 l -73,0 c -15,0 -27,1 -38,3 -11,2 -20,6 -27,11 -8,6 -14,13 -17,23 -4,9 -6,21 -6,36 l 0,60 z"
       inkscape:connector-curvature="0"
       style="fill:#00c0ff;fill-rule:nonzero" /><g
       id="_915368736"><path
         class="fil0"
         d="m -2017,9368 134,-36 22,84 c 29,-4 59,-7 89,-7 31,0 61,3 90,7 l 22,-84 133,36 -22,84 c 56,22 108,52 155,89 l 61,-61 97,97 -61,62 c 37,46 67,98 90,154 l 83,-22 36,133 -84,22 c 4,30 7,59 7,90 0,30 -3,60 -7,89 l 84,23 -36,133 -83,-23 c -23,56 -53,108 -90,155 l 61,61 -97,98 -61,-62 c -47,37 -99,68 -155,90 l 22,83 -133,36 -22,-84 c -29,5 -59,7 -90,7 -30,0 -60,-2 -89,-7 l -22,84 -134,-36 23,-83 c -56,-22 -108,-53 -155,-90 l -61,62 -98,-98 62,-61 c -37,-47 -68,-99 -90,-155 l -83,23 -36,-133 84,-23 c -5,-29 -7,-59 -7,-89 0,-31 2,-60 7,-90 l -84,-22 36,-133 83,22 c 22,-56 53,-108 90,-154 l -62,-62 98,-97 61,61 c 47,-37 99,-67 155,-89 l -23,-84 z m 245,1116 c 259,0 469,-210 469,-468 0,-259 -210,-469 -469,-469 -258,0 -468,210 -468,469 0,258 210,468 468,468 z"
         id="path4851"
         inkscape:connector-curvature="0"
         style="fill:#00c0ff" /><path
         class="fil4"
         d="m -1428,11350 c 595,-152 1034,-692 1034,-1334 0,-761 -617,-1378 -1378,-1378 -12,0 -23,0 -35,0 l 0,0 -75,579 386,0 11,-89 c 466,160 802,602 802,1122 0,499 -308,926 -745,1100 z"
         id="path4853"
         inkscape:connector-curvature="0"
         style="fill:#e2001a" /><path
         class="fil0"
         d="m -2116,8681 c -594,153 -1034,693 -1034,1335 0,761 617,1378 1378,1378 12,0 24,0 36,-1 l 0,0 75,-578 -386,0 -11,88 c -467,-159 -802,-601 -802,-1122 0,-498 308,-925 744,-1100 z"
         id="path4855"
         inkscape:connector-curvature="0"
         style="fill:#00c0ff" /></g><g
       id="_915383840"><polygon
         class="fil1"
         points="2953,12105 2953,11554 1218,11554 1218,13137 1766,13137 1766,12105 "
         id="polygon4858"
         style="fill:#ffffff" /><polygon
         class="fil4"
         points="1115,11290 1115,10831 1663,10831 1663,11841 591,11841 591,11290 "
         id="polygon4860"
         style="fill:#e2001a" /><polygon
         class="fil4"
         points="1115,12460 1115,12919 1663,12919 1663,11910 591,11910 591,12460 "
         id="polygon4862"
         style="fill:#e2001a" /><polygon
         class="fil4"
         points="2279,11290 2279,10831 1732,10831 1732,11841 2804,11841 2804,11290 "
         id="polygon4864"
         style="fill:#e2001a" /></g></g></svg>