<?xml version="1.0" encoding="UTF-8" standalone="no"?>
<!-- Creator: CorelDRAW X7 -->

<svg
   xmlns:dc="http://purl.org/dc/elements/1.1/"
   xmlns:cc="http://creativecommons.org/ns#"
   xmlns:rdf="http://www.w3.org/1999/02/22-rdf-syntax-ns#"
   xmlns:svg="http://www.w3.org/2000/svg"
   xmlns="http://www.w3.org/2000/svg"
   xmlns:sodipodi="http://sodipodi.sourceforge.net/DTD/sodipodi-0.dtd"
   xmlns:inkscape="http://www.inkscape.org/namespaces/inkscape"
   xml:space="preserve"
   width="7.8740005in"
   height="7.8740005in"
   version="1.1"
   style="clip-rule:evenodd;fill-rule:evenodd;image-rendering:optimizeQuality;shape-rendering:geometricPrecision;text-rendering:geometricPrecision"
   viewBox="0 0 7874.0005 7874.0005"
   id="svg4261"
   inkscape:version="0.91 r13725"
   sodipodi:docname="PanOceania - Jotums - [N3] [Vyo].svg"><metadata
     id="metadata4295"><rdf:RDF><cc:Work
         rdf:about=""><dc:format>image/svg+xml</dc:format><dc:type
           rdf:resource="http://purl.org/dc/dcmitype/StillImage" /></cc:Work></rdf:RDF></metadata><sodipodi:namedview
     pagecolor="#ffffff"
     bordercolor="#666666"
     borderopacity="1"
     objecttolerance="10"
     gridtolerance="10"
     guidetolerance="10"
     inkscape:pageopacity="0"
     inkscape:pageshadow="2"
     inkscape:window-width="640"
     inkscape:window-height="480"
     id="namedview4293"
     showgrid="false"
     inkscape:zoom="0.23838384"
     inkscape:cx="736.83001"
     inkscape:cy="849.33005"
     inkscape:window-x="0"
     inkscape:window-y="0"
     inkscape:window-maximized="0"
     inkscape:current-layer="svg4261" /><defs
     id="defs4263"><style
       type="text/css"
       id="style4265"><![CDATA[
    .fil3 {fill:none}
    .fil0 {fill:#00CCFF}
    .fil1 {fill:white}
    .fil2 {fill:white;fill-rule:nonzero}
   ]]></style></defs><g
     id="Layer_x0020_1"
     transform="translate(3937,-7063)"><metadata
       id="CorelCorpID_0Corel-Layer" /><circle
       class="fil0"
       cy="11000"
       r="3937"
       id="circle4269"
       cx="0"
       style="fill:#00ccff" /><circle
       class="fil1"
       cy="11000"
       r="3465"
       id="circle4271"
       cx="0"
       style="fill:#ffffff" /><polygon
       class="fil0"
       points="1063,13362 -1063,13362 -2283,12142 -2283,11157 -1299,11157 -1299,11945 -866,12378 866,12378 1299,11945 1299,11157 2283,11157 2283,12142 "
       id="polygon4273"
       style="fill:#00ccff" /><polygon
       class="fil0"
       points="-2285,10015 -1457,10016 -1063,10409 -1064,11944 -80,11944 -79,10252 -1299,9031 -2285,9031 "
       id="polygon4275"
       style="fill:#00ccff" /><polygon
       class="fil0"
       points="2283,10016 1455,10016 1062,10410 1063,11945 79,11945 78,10252 1298,9032 2283,9031 "
       id="polygon4277"
       style="fill:#00ccff" /><g
       id="_883910864"><path
         class="fil0"
         d="m 3070,9029 23,40 63,-36 101,180 -63,35 98,175 -142,80 -98,-175 -46,26 c -5,3 -14,8 -20,12 1,3 4,7 5,9 1,2 3,6 6,10 2,-1 4,-2 5,-3 l 45,-26 97,171 -36,19 c -43,23 -78,41 -128,32 l 0,0 -1,0 c -66,-14 -104,-77 -135,-132 -28,-49 -60,-106 -47,-164 8,-38 31,-60 62,-80 15,-10 31,-18 46,-27 l 46,-26 -14,-25 -189,135 -120,-167 50,-36 c -2,0 -4,0 -6,0 -5,-1 -10,-1 -16,-2 -30,-6 -55,-22 -79,-42 -35,-28 -67,-66 -97,-99 -43,-49 -99,-111 -107,-176 -2,-9 -2,-18 -1,-27 l -23,27 -152,-131 3,-4 c -40,-15 -90,-61 -121,-87 -77,-67 -130,-136 -52,-227 23,-26 48,-43 75,-50 l -10,-9 7,-7 -70,-49 -131,190 -169,-118 131,-189 -17,-12 c -3,6 -6,13 -10,19 -3,7 -7,15 -11,21 l 2,1 -19,29 -7,11 -1,0 c -16,24 -35,44 -62,56 -34,16 -71,12 -107,2 -47,-14 -97,-39 -140,-62 -54,-28 -130,-68 -159,-124 -4,-7 -7,-15 -9,-22 l -7,24 -197,-58 52,-179 c 2,-8 9,-30 10,-40 0,0 0,0 0,0 -4,-8 -33,-17 -41,-19 -10,-3 -39,-11 -47,-6 -11,6 -21,43 -24,53 l -48,162 -197,-58 53,-179 c 2,-8 10,-31 10,-40 0,0 0,0 0,0 -5,-8 -31,-16 -39,-19 -10,-2 -42,-10 -51,-6 -9,5 -20,44 -22,53 l -48,162 -197,-58 9,-32 c -25,24 -58,34 -92,38 -49,6 -104,3 -153,-1 -61,-5 -146,-11 -195,-52 -46,-37 -51,-90 -49,-144 l -154,2 0,-40 0,-2 c 0,-3 0,-10 -1,-14 -7,-2 -22,-3 -27,-3 -9,1 -27,3 -34,9 -7,12 -6,45 -6,57 l 3,170 -206,3 0,-15 c -39,40 -99,51 -152,60 -56,10 -120,21 -170,-11 -33,-21 -46,-49 -55,-86 -4,-17 -6,-35 -9,-52 l -9,-52 -66,11 -27,-161 66,-11 -12,-72 203,-34 12,72 198,-33 17,102 -2,-112 199,-3 0,7 c 28,-12 62,-16 97,-17 51,-1 109,7 145,47 l 0,1 c 9,9 15,19 19,30 11,-19 27,-35 49,-47 26,-14 53,-20 82,-22 42,-3 86,0 128,3 41,3 86,7 126,16 28,6 53,16 75,34 47,38 53,94 51,150 l 51,-174 190,56 -2,8 c 35,-3 71,4 105,14 54,16 104,40 133,84 47,-23 101,-15 155,1 58,17 116,42 147,98 25,44 22,85 11,128 26,-41 58,-75 113,-80 29,-3 56,2 83,12 40,13 80,34 116,53 37,19 77,40 110,64 23,17 42,36 56,61 7,14 11,28 13,42 l 32,-46 55,39 c 24,-30 49,-51 92,-54 62,-7 115,30 163,64 19,13 36,25 54,39 l 28,23 -75,109 8,6 -33,47 c 20,-4 42,-3 67,3 55,14 134,83 176,119 26,22 54,46 77,72 16,18 30,36 36,60 3,8 4,17 5,25 l 0,1 0,1 c 3,35 -8,64 -27,90 29,-16 59,-24 94,-17 31,6 56,21 79,40 34,28 65,63 94,95 43,50 107,121 113,190 2,26 -3,47 -12,67 l 161,-115 119,167 -104,74 z m -3451,-1493 -189,32 9,52 c 1,6 2,15 4,23 3,-1 8,-1 10,-2 3,0 7,-1 11,-2 0,-2 0,-5 -1,-6 l -8,-52 164,-27 0,-18 z m 3002,1178 c -7,3 -23,16 -27,20 -4,4 -17,15 -20,21 0,0 1,1 1,1 l 0,1 0,0 c 5,14 27,41 36,52 7,7 35,38 45,41 2,-1 5,-2 6,-3 l 20,-13 18,-20 c 1,-1 3,-3 3,-4 0,-11 -29,-46 -36,-53 -9,-10 -33,-37 -46,-43 z m -4128,-934 c -5,-39 6,-75 39,-106 38,-35 123,-70 172,-89 39,-17 83,-34 124,-44 29,-7 57,-9 84,-1 40,10 59,38 76,73 l 19,38 -8,4 c 22,13 40,35 54,69 21,53 19,105 -23,146 -39,40 -131,78 -182,99 -42,16 -88,35 -132,45 -30,7 -59,9 -89,-1 -12,-4 -23,-10 -33,-16 -1,12 -4,24 -9,37 -13,29 -33,50 -57,69 -36,29 -79,53 -119,75 -40,23 -84,48 -127,64 -29,11 -58,17 -89,13 -6,-1 -13,-2 -19,-4 l 26,33 -162,127 -112,-144 c -5,-6 -22,-28 -29,-33 0,0 0,0 -1,0 -10,-1 -43,24 -51,30 -9,8 -39,31 -41,44 0,1 0,3 0,4 1,8 27,41 32,48 l 102,130 -162,127 -243,-311 156,-122 5,7 c 18,-32 47,-58 78,-82 49,-39 106,-78 173,-71 13,1 26,3 39,8 19,7 35,19 50,33 -16,-38 -21,-77 0,-119 13,-27 35,-48 59,-66 35,-27 76,-51 114,-73 39,-21 80,-44 121,-60 28,-11 57,-19 87,-16 33,3 58,16 78,35 z m -1325,731 -2,-1 142,-150 380,360 -120,126 1,1 -136,154 -5,-4 -152,237 -342,27 232,145 -123,191 -441,-282 170,-265 340,-26 -231,-144 123,-192 272,175 -235,-208 127,-144 z m 1091,-450 c 1,0 1,0 1,0 l 1,0 1,0 c 16,-1 51,-21 65,-28 9,-6 53,-30 57,-41 0,-6 -10,-24 -12,-29 -3,-5 -12,-20 -17,-24 0,0 -1,0 -2,1 l 0,0 -1,0 c -15,1 -49,20 -62,27 -9,5 -55,31 -58,41 -1,6 10,26 12,30 3,5 11,18 15,23 z"
         id="path4280"
         inkscape:connector-curvature="0"
         style="fill:#00ccff" /></g><path
       class="fil2"
       d="m -3343,9303 374,240 80,-125 -281,-176 9,-13 415,-33 136,-213 -374,-240 -80,125 281,176 -8,12 -414,32 -138,215 z m 536,-566 237,209 84,-95 -237,-209 -84,95 z m -97,-85 67,58 84,-95 -67,-59 -84,96 z m 126,-144 323,306 87,-93 -323,-305 -87,92 z m 366,-195 195,248 99,-78 -77,-99 c -36,-46 -43,-59 -40,-81 3,-21 19,-41 56,-70 37,-29 60,-40 78,-39 18,1 26,9 58,49 l 88,113 100,-79 -88,-112 c -54,-69 -74,-84 -116,-88 -42,-4 -82,13 -145,63 -64,50 -86,87 -79,133 l -5,4 -30,-38 -94,74 z m 638,-457 c -100,56 -140,87 -157,121 -17,36 -12,68 24,132 45,80 66,101 106,107 40,5 81,-10 191,-72 108,-61 143,-88 159,-125 15,-36 7,-67 -35,-142 -38,-68 -62,-89 -102,-93 -38,-3 -86,15 -186,72 z m 45,77 c 32,-19 61,-31 77,-32 24,-4 38,7 58,43 33,58 24,76 -60,123 -36,20 -63,32 -81,33 -23,3 -35,-7 -55,-42 -33,-59 -23,-78 61,-125 z m 312,-17 c 14,34 31,51 56,59 38,13 80,3 194,-43 91,-37 146,-66 169,-89 28,-27 32,-61 14,-105 -26,-65 -71,-76 -162,-39 -122,48 -142,55 -162,62 -19,7 -31,4 -36,-7 -7,-19 13,-34 87,-64 39,-16 65,-22 77,-21 5,0 7,3 13,10 l 120,-48 c -17,-34 -29,-47 -51,-53 -35,-10 -77,0 -184,43 -85,35 -138,62 -160,82 -29,27 -35,61 -17,105 26,62 73,73 163,38 115,-46 145,-58 161,-63 18,-5 32,-1 36,11 9,21 -11,36 -87,67 -74,30 -99,31 -112,7 l -119,48 z m 650,-514 12,71 -66,11 15,84 65,-11 16,91 c 6,40 6,40 9,49 7,33 17,49 37,62 28,18 62,19 142,6 86,-15 123,-32 143,-65 16,-26 17,-46 9,-106 l -115,20 2,12 c 6,37 -2,47 -42,54 -25,4 -39,2 -47,-8 -6,-8 -8,-13 -13,-45 l -16,-91 199,-34 -15,-83 -198,33 -12,-71 -125,21 z m 423,1 5,315 127,-2 -2,-131 c -1,-48 3,-66 14,-81 12,-14 36,-23 64,-24 26,0 47,5 56,14 8,8 12,19 12,41 l 0,3 0,0 120,-2 0,-21 c -1,-47 -8,-71 -25,-91 -21,-23 -58,-34 -114,-33 -71,1 -107,17 -130,57 l -6,0 -1,-47 -120,2 z m 757,230 c -7,27 -23,31 -104,25 -45,-3 -72,-9 -84,-20 -12,-9 -15,-20 -12,-52 l 330,25 c 2,-13 3,-28 3,-32 6,-74 -4,-110 -35,-135 -29,-24 -68,-33 -179,-42 -110,-8 -153,-4 -188,14 -36,21 -50,52 -56,136 -6,80 2,112 33,138 29,24 75,35 173,43 181,13 229,-4 245,-91 l -126,-9 z M 218,7522 c 4,-44 25,-53 110,-46 50,4 76,10 86,22 8,8 9,14 7,39 l -203,-15 z m 447,-84 -89,303 121,36 37,-125 c 15,-50 24,-67 42,-77 17,-8 44,-7 80,4 34,10 55,22 62,36 9,15 8,24 -6,71 l -42,141 122,36 36,-124 c 15,-50 24,-66 42,-76 17,-9 42,-9 78,2 36,10 55,22 64,37 9,14 8,20 -6,71 l -42,141 122,36 42,-141 c 23,-78 24,-104 4,-140 -20,-36 -58,-59 -124,-79 -80,-24 -125,-18 -159,22 -13,-53 -52,-84 -130,-107 -71,-21 -118,-17 -147,14 l -6,-2 14,-45 -115,-34 z m 990,603 c -18,23 -34,20 -105,-17 -40,-21 -63,-37 -70,-52 -7,-13 -5,-24 10,-52 l 293,153 c 7,-11 14,-24 16,-28 34,-65 40,-103 21,-138 -17,-34 -50,-57 -149,-109 -97,-51 -138,-65 -177,-61 -42,4 -67,28 -106,102 -37,71 -43,104 -24,140 17,33 55,62 142,107 161,84 212,87 261,14 l -112,-59 z m -136,-179 c 22,-38 45,-38 120,2 44,23 65,39 70,55 4,10 2,16 -8,38 l -182,-95 z m 343,147 53,37 -131,189 104,73 131,-190 103,71 48,-69 -102,-71 c 16,-23 24,-28 36,-30 14,-1 33,7 63,28 7,5 8,6 28,20 l 44,-64 c -21,-17 -32,-25 -51,-38 -70,-48 -100,-61 -136,-57 -33,3 -48,14 -89,68 l -53,-37 -48,70 z m 384,301 c 22,-19 30,-15 99,44 59,50 62,62 30,99 l -11,13 -5,-4 c -2,-28 -12,-43 -56,-81 -69,-60 -98,-82 -126,-95 -45,-24 -83,-15 -120,28 -49,57 -37,97 48,171 64,55 90,74 112,81 23,8 39,8 60,-1 l 4,4 -28,32 92,80 124,-144 c 37,-43 48,-66 45,-96 -4,-39 -21,-60 -105,-132 -80,-69 -128,-103 -159,-111 -41,-10 -68,-3 -100,29 l 96,83 z m 10,118 c 41,36 57,50 60,58 8,12 7,24 -1,33 -18,21 -43,10 -110,-48 -51,-44 -62,-62 -45,-82 8,-9 18,-11 31,-7 10,3 33,19 65,46 z m 427,452 c -31,20 -53,9 -101,-45 -23,-26 -39,-50 -44,-66 -8,-22 0,-38 30,-64 31,-28 51,-36 69,-27 14,6 36,26 59,53 49,55 57,83 33,110 l 85,96 c 44,-40 56,-64 53,-97 -3,-40 -30,-84 -104,-168 -75,-85 -111,-115 -150,-122 -37,-8 -69,6 -126,57 -63,55 -81,85 -75,124 5,40 29,78 98,156 88,100 121,126 165,130 31,3 52,-7 93,-40 l -85,-97 z m 257,38 -257,183 74,103 257,-183 -74,-103 z m 105,-75 -72,51 74,104 72,-52 -74,-103 z m 96,244 -63,36 -33,-58 -74,41 33,58 -80,45 c -35,20 -35,20 -43,26 -29,18 -41,32 -46,56 -7,33 3,65 43,135 43,77 71,105 109,113 30,6 50,0 103,-28 l -57,-101 -12,6 c -32,19 -45,14 -65,-22 -12,-21 -14,-35 -7,-46 5,-9 8,-12 37,-28 l 81,-45 98,175 74,-42 -99,-175 64,-35 -63,-111 z"
       id="path4282"
       inkscape:connector-curvature="0"
       style="fill:#ffffff;fill-rule:nonzero" /><circle
       class="fil3"
       cy="11000"
       r="3858"
       id="circle4284"
       cx="0"
       style="fill:none" /><g
       id="_883914160"><path
         class="fil0"
         d="m 3155,12080 c -11,-12 -19,-27 -24,-43 -6,-21 -6,-43 -3,-65 3,-25 10,-51 17,-75 l 41,-143 c 12,-44 34,-86 74,-110 40,-25 85,-25 129,-13 l 252,72 -55,193 -2,-1 c 0,10 -1,20 -3,29 -2,15 -6,29 -10,44 l -24,84 c -11,37 -28,79 -58,105 -5,5 -11,9 -17,12 l 45,20 -85,188 -203,-91 c -4,-3 -11,-5 -17,-7 -8,8 -20,32 -23,40 -4,9 -15,34 -13,44 1,2 8,6 10,7 l 206,94 -85,188 -211,-96 c -2,-1 -6,-3 -9,-4 -2,3 -5,7 -6,9 -7,12 -14,25 -19,38 -4,8 -12,28 -11,37 2,4 14,10 18,11 l 199,91 -86,188 -23,-11 -111,174 -51,-33 c 0,0 0,0 0,1 9,22 10,46 5,69 -5,22 -13,43 -25,63 -12,21 -26,41 -41,61 l -60,75 c -15,19 -31,38 -50,54 -19,17 -41,29 -65,37 -21,6 -42,7 -63,5 l 54,57 -149,142 -162,-169 c -1,-1 -2,-2 -2,-2 -9,-1 -31,19 -37,24 l -21,20 c -9,9 -20,22 -21,35 -2,9 4,17 10,24 l 146,152 -149,143 -126,-132 -118,84 -23,-32 c -2,-4 -10,-14 -15,-17 -5,1 -14,7 -17,9 -8,6 -19,15 -22,25 -1,3 2,8 4,11 l 132,185 -161,114 2,4 -174,99 -1,-2 c -7,7 -15,14 -23,19 -12,9 -24,17 -37,24 l -76,43 c -34,20 -76,38 -116,35 -14,-1 -26,-4 -38,-10 l 16,36 -186,84 1,4 -190,64 -1,-3 c -8,6 -16,11 -25,15 -14,6 -28,11 -42,16 l -82,28 c -38,12 -82,22 -121,11 -43,-11 -68,-47 -81,-87 l -9,-27 c -4,-11 -7,-23 -8,-35 l -57,202 -207,36 -139,-194 c 2,14 3,28 3,42 1,30 -1,64 -10,93 -9,28 -27,51 -51,66 -26,17 -57,25 -86,29 -42,6 -86,8 -128,9 l -180,4 c -31,1 -63,0 -94,-5 -25,-3 -50,-10 -72,-23 -23,-14 -39,-33 -50,-57 -11,-24 -15,-52 -15,-79 l -2,-73 41,-1 c -14,-13 -25,-29 -31,-49 -9,-26 -12,-58 -12,-86 -1,-24 0,-49 4,-73 4,-25 15,-47 32,-66 19,-23 47,-36 75,-45 37,-11 80,-14 118,-15 l 207,-5 c 36,-1 75,1 110,9 27,7 55,17 75,37 18,17 30,38 36,61 2,8 4,16 5,25 l 118,-21 108,164 46,-191 176,-31 c 9,-6 18,-11 27,-16 23,-12 48,-21 72,-29 l 141,-47 c 43,-14 90,-20 133,-1 3,2 6,3 9,5 l -77,-171 188,-86 75,165 c 1,-5 4,-10 6,-15 11,-19 26,-35 43,-48 20,-16 43,-30 65,-42 l 129,-74 c 39,-23 85,-37 131,-27 0,0 0,0 0,0 l -22,-31 162,-115 6,8 c 16,-25 38,-45 62,-62 24,-18 53,-33 83,-39 l -105,-109 150,-143 105,110 c 14,-30 37,-56 61,-78 18,-17 36,-34 56,-49 20,-15 42,-26 66,-33 21,-7 43,-8 64,-4 -3,-12 -6,-25 -6,-38 -1,-24 5,-48 15,-70 10,-23 25,-45 40,-64 l 56,-70 c 19,-25 41,-50 65,-71 20,-18 43,-33 69,-40 5,-2 9,-3 14,-3 l -158,-101 111,-175 139,89 59,-131 7,3 c 1,-25 9,-50 19,-74 l 21,-44 c 20,-45 51,-76 91,-92 -5,-10 -8,-20 -10,-31 -6,-34 7,-71 21,-102 l 16,-36 c 22,-48 55,-95 106,-114 z M -29,14511 c 7,1 19,1 23,1 l 182,-4 c 5,0 13,-1 20,-2 -15,-2 -33,-3 -48,-3 -39,0 -78,0 -117,1 -20,1 -40,1 -61,1 0,2 1,4 1,6 z m 208,-200 c 0,0 0,0 0,0 -10,-2 -26,-1 -32,-1 l -139,3 c 32,0 64,0 95,-1 25,-1 51,-1 76,-1 z m -2091,-585 c 14,-5 29,-7 44,-6 21,2 42,7 61,15 21,9 42,20 62,32 l 77,44 c 31,18 62,37 90,59 20,15 40,33 53,55 12,20 18,43 14,66 -3,22 -12,43 -23,62 l -19,35 -7,-4 c 2,15 2,29 -2,43 -5,18 -14,36 -23,52 -12,20 -26,41 -45,56 -18,15 -40,23 -64,24 -25,1 -49,-6 -72,-15 -30,-12 -59,-28 -87,-44 l -105,-60 c -40,-24 -91,-58 -112,-101 -6,-12 -9,-23 -10,-35 l -40,46 -156,-136 146,-167 c 3,-4 8,-10 11,-15 -5,-10 -25,-28 -32,-34 -7,-6 -28,-23 -38,-25 -3,1 -8,6 -9,8 l -149,171 -156,-136 152,-175 c 2,-1 4,-4 6,-7 -2,-3 -5,-7 -7,-8 -9,-11 -20,-21 -30,-30 -7,-6 -24,-19 -33,-20 -4,1 -13,10 -16,13 l -144,165 -156,-136 7,-8 -124,-158 7,-6 c -28,-17 -52,-43 -72,-68 -15,-20 -30,-40 -43,-61 -13,-22 -22,-45 -26,-69 -6,-30 -2,-59 10,-87 0,-1 1,-3 1,-4 -22,4 -45,2 -69,-6 -46,-16 -79,-56 -102,-97 l -26,-44 c -10,-19 -20,-39 -26,-60 -7,-21 -10,-42 -9,-64 2,-24 10,-46 23,-65 15,-22 35,-38 57,-51 l 36,-20 -29,13 c -26,12 -54,20 -82,20 -25,0 -49,-5 -71,-17 -19,-11 -36,-25 -49,-43 -12,-16 -23,-34 -31,-52 l -79,-175 c -8,-18 -15,-38 -19,-58 -4,-21 -4,-43 1,-65 5,-24 17,-46 33,-64 7,-7 14,-14 22,-20 -3,0 -6,0 -9,-1 -29,-3 -56,-14 -78,-33 -22,-18 -38,-42 -50,-67 -14,-29 -25,-61 -34,-92 l -27,-93 c -15,-54 -28,-124 -4,-178 23,-53 76,-80 129,-96 l 93,-26 62,214 -79,22 c -2,1 -6,2 -8,3 -1,6 2,20 4,25 l 16,56 c 2,8 8,26 14,35 2,0 6,-1 7,-1 l 343,-98 62,218 -167,47 c 0,0 0,0 0,1 19,10 36,25 49,42 13,16 23,34 31,53 l 79,174 c 9,19 15,38 19,58 3,13 4,25 3,38 l 13,-7 31,55 70,-39 102,179 -69,40 67,118 1,0 128,162 -185,145 c -1,1 -2,1 -2,2 -2,9 16,33 20,39 l 18,23 c 8,10 20,22 33,25 9,2 17,-3 24,-9 l 166,-130 128,163 -2,1 89,77 -5,6 c 24,8 46,23 65,40 l 37,32 c 37,32 58,70 62,113 11,-1 22,-2 33,0 34,5 66,27 91,49 l 30,26 c 38,33 72,75 79,126 z m -945,-784 -80,-139 -72,40 c 2,4 4,7 5,9 1,3 4,7 7,11 0,0 0,0 1,0 l 53,-31 70,123 16,-13 z m 2019,1238 1,-3 58,10 c 10,-42 30,-82 71,-102 44,-22 101,-18 147,-10 20,4 39,8 58,13 9,2 18,4 27,6 l 39,7 -25,142 6,1 -29,164 -120,-21 -43,249 -204,-36 21,-116 c -7,13 -16,25 -26,37 -17,18 -38,32 -61,39 -21,7 -43,9 -65,7 -21,-3 -40,-7 -60,-14 l -181,-62 c -19,-7 -37,-16 -55,-26 -18,-12 -34,-27 -47,-46 -14,-20 -21,-44 -23,-68 -3,-28 3,-57 12,-84 l 27,-76 c 9,-27 22,-53 41,-74 17,-18 37,-32 61,-39 21,-7 43,-9 65,-7 20,2 40,7 59,14 l 181,62 c 20,7 38,15 55,26 4,2 7,5 10,7 z m -2358,-1708 c 3,-1 8,-3 10,-4 l 43,-20 c 3,-1 7,-3 11,-5 -1,-4 -2,-10 -3,-13 -5,-14 -11,-29 -17,-42 l -13,-28 c -4,-10 -16,-32 -25,-38 -3,-2 -14,3 -17,4 l -29,13 c -2,1 -13,7 -14,10 -2,11 8,34 12,44 l 13,27 c 6,14 13,28 21,41 1,3 5,8 8,11 z m 2186,1902 c 2,-3 4,-8 4,-11 l 16,-44 c 1,-2 2,-8 3,-11 -3,-3 -8,-5 -11,-7 -14,-6 -29,-12 -43,-17 l -29,-10 c -10,-3 -34,-10 -44,-7 -4,0 -8,12 -9,14 l -11,31 c 0,2 -4,14 -2,16 7,9 30,18 40,22 l 29,10 c 14,5 29,10 44,13 3,0 9,1 13,1 z"
         id="path4287"
         inkscape:connector-curvature="0"
         style="fill:#00ccff" /></g><path
       class="fil2"
       d="m -3453,11667 c -55,16 -89,40 -104,74 -15,34 -13,84 6,151 l 27,93 c 10,35 20,63 31,86 11,23 25,41 40,54 16,13 35,21 58,24 22,3 49,0 80,-9 l 317,-91 -41,-142 -305,87 c -20,6 -35,4 -44,-6 -10,-10 -19,-28 -26,-54 l -16,-56 c -6,-23 -7,-40 -2,-51 5,-12 16,-21 33,-26 l 41,-11 -40,-139 -55,16 z m 126,530 c -25,11 -43,23 -56,38 -13,15 -21,30 -25,47 -3,16 -3,32 0,49 3,16 8,33 16,49 l 79,175 c 7,16 16,31 26,44 10,14 23,24 37,33 15,8 32,12 52,12 19,0 41,-6 65,-17 l 75,-33 c 24,-11 42,-24 55,-39 13,-14 21,-30 25,-46 4,-17 4,-33 0,-49 -3,-17 -8,-33 -16,-50 l -78,-174 c -8,-17 -17,-32 -27,-45 -10,-13 -22,-24 -37,-32 -15,-8 -32,-12 -51,-12 -20,0 -42,5 -66,16 l -74,34 z m 104,93 c 22,-10 39,-10 54,-2 14,9 27,27 40,55 l 12,28 c 9,20 15,36 19,48 4,12 6,22 5,30 -1,8 -4,14 -10,20 -5,5 -13,10 -24,15 l -43,20 c -10,4 -20,7 -27,8 -7,0 -14,-2 -21,-7 -6,-4 -13,-12 -20,-23 -7,-11 -14,-26 -23,-45 l -13,-28 c -12,-28 -17,-50 -14,-67 2,-16 14,-29 36,-39 l 29,-13 z m 120,414 c -20,12 -35,24 -44,39 -10,14 -15,29 -16,45 -1,17 1,33 6,50 5,17 13,35 24,53 l 25,44 c 24,42 51,68 81,79 30,10 60,7 90,-10 l 35,-21 -55,-97 -20,11 c -13,8 -24,10 -33,7 -9,-4 -18,-15 -28,-32 -9,-15 -13,-27 -13,-36 -1,-9 4,-16 15,-22 l 113,-65 99,172 80,-45 -99,-173 70,-40 -64,-111 -69,40 -32,-56 -80,46 32,56 -117,66 z m 656,545 -79,-101 -134,106 c -19,15 -38,20 -58,16 -19,-4 -38,-17 -55,-39 l -18,-23 c -34,-43 -38,-75 -11,-96 l 153,-120 -79,-101 -153,120 c -28,22 -46,43 -55,65 -9,22 -12,43 -8,64 4,21 11,39 22,56 10,18 23,37 40,58 22,28 44,48 64,60 20,12 43,15 67,9 l 1,1 -43,34 79,101 267,-210 z m -228,265 97,84 117,-135 c 17,-19 33,-28 49,-26 16,1 34,11 56,29 15,14 26,25 34,34 8,8 13,17 16,24 2,7 2,14 0,21 -3,6 -8,14 -15,22 l -127,145 97,84 123,-141 c 14,-16 29,-23 44,-21 16,2 35,14 59,34 27,24 42,43 45,58 1,7 0,14 -3,21 -4,8 -9,16 -18,26 l -120,137 97,84 126,-144 c 33,-38 49,-75 47,-111 -1,-36 -23,-72 -66,-109 l -29,-26 c -28,-24 -52,-37 -72,-40 -20,-3 -44,4 -72,20 17,-56 2,-103 -43,-143 l -37,-32 c -24,-21 -48,-33 -71,-37 -23,-4 -44,2 -61,17 l -1,-1 43,-50 -92,-80 -223,256 z m 653,414 c -21,37 -25,68 -13,94 13,26 45,54 97,84 l 105,60 c 32,19 60,33 81,41 22,9 41,13 56,12 16,0 30,-5 42,-15 12,-10 23,-25 35,-45 9,-15 15,-29 19,-42 3,-12 3,-26 -2,-40 -4,-14 -14,-29 -31,-45 -16,-16 -40,-34 -72,-52 l -77,-44 c -28,-16 -45,-28 -52,-35 -7,-8 -8,-15 -4,-21 5,-10 13,-14 24,-11 10,3 32,14 64,33 18,10 32,18 41,24 9,6 16,12 21,16 5,5 8,10 9,14 1,4 1,8 0,14 l 111,64 c 10,-19 16,-35 18,-48 2,-14 -1,-27 -9,-41 -8,-14 -22,-28 -43,-44 -20,-16 -49,-34 -86,-56 l -77,-44 c -21,-13 -40,-22 -57,-29 -17,-7 -33,-11 -49,-12 -15,-2 -29,2 -42,9 -14,8 -25,20 -36,38 -12,21 -19,39 -22,54 -4,16 -2,31 3,44 6,14 16,27 31,40 15,13 36,27 62,43 l 104,60 c 19,11 30,20 35,28 4,7 4,15 -1,24 -5,9 -13,12 -23,10 -11,-2 -29,-11 -56,-26 l -39,-23 c -15,-8 -27,-16 -35,-23 -9,-7 -15,-13 -18,-18 -4,-5 -5,-9 -5,-13 1,-4 2,-8 5,-13 l -114,-66 z m 722,352 c -8,26 -12,48 -10,67 2,20 7,36 17,50 9,14 21,25 35,34 14,9 30,17 47,22 l 181,63 c 17,6 34,10 51,11 16,2 33,0 49,-5 16,-5 31,-14 44,-28 13,-15 24,-34 33,-60 l 27,-76 c 8,-26 12,-48 10,-67 -2,-20 -7,-36 -17,-50 -10,-14 -21,-26 -36,-34 -14,-9 -29,-17 -47,-23 l -180,-62 c -18,-6 -35,-10 -51,-12 -17,-1 -33,0 -49,5 -16,5 -31,15 -44,29 -14,14 -25,34 -33,59 l -27,77 z m 140,-12 c 7,-22 19,-35 35,-39 16,-5 39,-2 68,8 l 29,10 c 20,7 36,13 47,19 12,6 20,11 25,17 6,6 8,13 8,21 1,7 -1,17 -5,28 l -15,44 c -4,12 -9,20 -13,26 -5,5 -11,9 -19,11 -8,1 -18,1 -31,-2 -12,-2 -29,-7 -49,-14 l -29,-10 c -29,-10 -48,-22 -58,-35 -10,-13 -11,-31 -4,-53 l 11,-31 z m 354,300 126,22 44,-248 119,21 15,-87 -119,-21 2,-16 c 3,-17 10,-28 19,-32 9,-4 27,-4 51,0 7,1 18,3 32,7 5,1 11,2 19,4 l 15,-85 c -7,-2 -17,-4 -30,-7 -22,-5 -40,-9 -54,-12 -55,-9 -96,-7 -123,6 -27,14 -45,43 -53,87 l -4,26 -58,-10 -15,86 57,11 -43,248 z m 589,-34 c 1,26 5,48 12,64 8,17 19,30 34,39 15,9 34,15 58,19 23,3 52,4 87,4 l 180,-4 c 52,-2 93,-4 123,-9 30,-4 54,-12 70,-23 17,-11 29,-26 35,-45 7,-20 10,-46 9,-80 -1,-36 -5,-63 -14,-83 -8,-20 -23,-35 -43,-45 -20,-9 -48,-15 -83,-18 -35,-3 -84,-3 -147,-2 -42,1 -75,1 -97,1 -23,0 -40,-2 -52,-4 -11,-3 -19,-7 -22,-12 -4,-5 -6,-13 -6,-23 -1,-13 4,-22 14,-29 10,-6 24,-10 41,-10 l 164,-4 c 32,0 52,3 60,9 8,7 12,20 13,40 l 148,-4 0,-15 c -1,-24 -3,-44 -8,-61 -4,-16 -13,-31 -25,-43 -13,-12 -32,-21 -57,-27 -26,-6 -59,-8 -100,-7 l -207,4 c -45,1 -80,6 -107,14 -26,8 -46,19 -58,33 -12,14 -20,29 -23,46 -2,18 -4,40 -3,66 1,32 4,57 10,75 6,18 17,32 34,42 16,9 40,16 73,20 32,3 77,4 134,3 54,-1 93,-2 118,-1 26,0 45,1 58,4 13,2 22,6 26,11 5,6 7,14 7,26 0,17 -5,28 -16,33 -11,6 -26,9 -46,9 l -182,4 c -24,1 -40,-2 -50,-8 -9,-7 -14,-22 -15,-46 l -148,4 1,33 z m 801,73 158,-28 102,-363 -138,24 -60,255 -144,-219 -138,24 220,307 z m 300,-146 c 12,35 30,56 54,62 25,7 57,3 98,-11 l 83,-27 c 16,-6 28,-10 37,-15 10,-4 17,-9 24,-14 6,-5 11,-12 16,-19 5,-8 10,-18 16,-30 l 12,37 115,-39 -71,-211 c -12,-38 -33,-63 -61,-76 -28,-12 -63,-11 -105,3 l -141,47 c -27,9 -49,18 -66,26 -17,9 -30,18 -39,29 -10,11 -15,25 -16,40 -1,15 2,34 10,55 l 117,-39 c -3,-11 -2,-19 3,-25 5,-5 17,-11 35,-17 l 72,-24 c 23,-7 39,-9 49,-6 9,4 17,14 22,30 l 10,29 c -15,-8 -32,-10 -51,-7 -19,3 -47,11 -84,23 -35,12 -62,21 -82,30 -19,9 -36,18 -48,29 -13,11 -21,24 -24,39 -3,15 -1,33 6,55 l 9,26 z m 187,-45 c -24,8 -41,12 -52,10 -11,-1 -18,-7 -22,-17 -4,-14 -3,-25 3,-34 7,-9 22,-17 47,-25 l 53,-18 c 32,-11 53,-15 63,-14 11,2 18,9 22,22 2,7 3,12 3,16 -1,5 -4,9 -9,14 -5,5 -14,11 -25,16 -12,6 -28,12 -48,19 l -35,11 z m 335,-41 116,-53 -198,-440 -117,53 199,440 z m 127,-148 c 19,32 40,48 66,50 25,1 56,-9 94,-30 l 75,-43 c 15,-8 26,-16 34,-22 9,-6 15,-12 20,-18 5,-7 9,-14 13,-22 3,-9 6,-19 9,-32 l 20,33 105,-60 -111,-194 c -20,-35 -45,-55 -75,-62 -30,-6 -64,1 -102,23 l -129,74 c -26,14 -46,27 -60,39 -15,11 -26,23 -33,36 -7,13 -9,26 -7,42 2,15 8,32 20,52 l 107,-61 c -5,-11 -6,-19 -2,-25 4,-6 15,-14 32,-24 l 65,-37 c 21,-12 37,-17 47,-16 10,2 19,10 28,26 l 14,26 c -16,-5 -32,-4 -50,3 -18,6 -45,19 -79,39 -31,18 -56,33 -73,45 -18,12 -32,25 -43,38 -10,13 -15,27 -15,43 0,15 5,33 17,52 l 13,25 z m 175,-81 c -22,13 -38,19 -49,20 -11,1 -19,-3 -25,-13 -7,-13 -8,-24 -4,-34 5,-9 19,-20 41,-33 l 49,-28 c 29,-17 49,-25 59,-26 11,-1 19,5 26,17 3,6 5,11 5,16 1,4 -1,9 -5,15 -4,6 -11,13 -22,20 -10,8 -24,17 -43,28 l -32,18 z m 314,-101 105,-74 -109,-154 c -12,-16 -15,-31 -9,-47 5,-15 17,-29 36,-43 20,-14 36,-19 49,-16 12,3 25,14 38,33 l 90,-64 c -1,-2 -2,-4 -3,-6 -6,-9 -10,-15 -13,-19 -27,-39 -55,-61 -84,-66 -29,-6 -62,5 -99,32 -27,18 -46,38 -57,60 -12,22 -14,45 -4,69 l -2,1 -37,-53 -98,70 197,277 z m 346,-254 92,-88 -118,-124 c -17,-18 -24,-36 -22,-56 3,-20 14,-39 34,-58 l 21,-20 c 40,-38 71,-45 94,-21 l 135,141 93,-89 -135,-141 c -24,-25 -48,-41 -70,-48 -23,-7 -44,-8 -64,-2 -20,6 -38,15 -54,27 -16,12 -34,28 -53,46 -27,25 -45,49 -54,70 -10,21 -11,44 -3,68 l -1,0 -136,-142 -93,88 334,349 z m 243,-454 c 27,21 52,35 75,41 23,6 44,6 63,0 19,-6 36,-15 51,-29 15,-13 30,-29 46,-48 l 59,-76 c 15,-19 28,-38 38,-55 10,-18 17,-35 20,-52 4,-17 3,-33 -2,-48 -6,-15 -17,-29 -33,-42 l -11,-9 -75,94 c 5,4 9,8 11,12 3,3 4,8 4,14 0,6 -3,13 -7,22 -5,9 -12,20 -23,33 l -24,31 c -17,22 -32,36 -45,41 -13,6 -26,3 -40,-8 l -16,-12 193,-244 -45,-36 c -24,-18 -45,-30 -64,-36 -20,-6 -38,-7 -56,-1 -18,5 -36,15 -54,31 -18,16 -38,38 -60,66 l -56,70 c -15,20 -27,38 -35,56 -8,18 -12,35 -12,53 1,18 7,36 18,55 12,18 30,37 54,57 l 26,20 z m 31,-139 c -8,-6 -14,-13 -18,-18 -3,-5 -4,-11 -3,-18 1,-7 5,-15 11,-25 7,-10 17,-24 31,-42 23,-29 41,-47 53,-53 12,-6 26,-2 42,10 l -116,146 z m 177,-455 -69,108 286,183 69,-108 -286,-183 z m -121,-76 -69,108 85,53 69,-107 -85,-54 z m 465,207 53,-117 -164,-74 c -23,-10 -36,-23 -39,-39 -3,-15 1,-36 13,-61 8,-19 15,-33 22,-43 6,-10 12,-17 18,-22 6,-4 13,-6 20,-6 7,1 16,3 26,8 l 175,80 53,-117 -170,-77 c -20,-9 -31,-22 -33,-37 -3,-15 3,-38 16,-66 15,-33 29,-53 42,-59 6,-4 14,-5 22,-4 8,1 17,5 29,10 l 166,75 53,-116 -174,-79 c -46,-21 -86,-26 -120,-14 -34,11 -63,43 -86,94 l -16,36 c -15,33 -21,60 -18,80 3,20 16,41 40,63 -58,0 -100,28 -125,82 l -20,45 c -13,29 -18,56 -16,79 3,23 15,41 35,54 l -1,1 -60,-28 -51,111 310,141 z m 218,-737 c 36,10 63,7 82,-9 19,-17 34,-46 46,-87 l 24,-84 c 5,-16 8,-29 10,-39 1,-10 2,-19 1,-28 -1,-8 -3,-16 -7,-24 -3,-8 -8,-18 -15,-30 l 37,11 33,-117 -214,-61 c -39,-11 -71,-8 -97,8 -26,16 -45,46 -58,88 l -40,143 c -8,28 -14,51 -16,69 -3,19 -2,35 2,49 4,14 12,26 24,35 12,10 29,17 51,24 l 34,-120 c -11,-3 -17,-8 -19,-16 -1,-7 1,-20 6,-38 l 21,-73 c 6,-23 14,-38 22,-44 9,-5 21,-6 38,-1 l 29,8 c -15,8 -27,21 -35,38 -8,17 -17,45 -28,83 -10,34 -17,62 -21,84 -5,21 -6,40 -4,56 2,17 8,30 19,41 10,12 26,20 48,27 l 27,7 z m 69,-179 c -7,24 -14,40 -21,48 -8,9 -17,11 -27,8 -14,-4 -23,-11 -26,-21 -4,-10 -2,-28 5,-53 l 16,-54 c 9,-32 17,-52 24,-60 7,-7 17,-9 31,-6 6,2 11,5 14,8 3,3 6,8 7,15 1,7 1,17 -1,29 -2,13 -6,30 -12,51 l -10,35 z"
       id="path4289"
       inkscape:connector-curvature="0"
       style="fill:#ffffff;fill-rule:nonzero" /><circle
       class="fil3"
       cy="11000"
       r="3898"
       id="circle4291"
       cx="0"
       style="fill:none" /></g></svg>