<?xml version="1.0" encoding="UTF-8" standalone="no"?>
<!-- Creator: CorelDRAW X7 -->

<svg
   xmlns:dc="http://purl.org/dc/elements/1.1/"
   xmlns:cc="http://creativecommons.org/ns#"
   xmlns:rdf="http://www.w3.org/1999/02/22-rdf-syntax-ns#"
   xmlns:svg="http://www.w3.org/2000/svg"
   xmlns="http://www.w3.org/2000/svg"
   xmlns:sodipodi="http://sodipodi.sourceforge.net/DTD/sodipodi-0.dtd"
   xmlns:inkscape="http://www.inkscape.org/namespaces/inkscape"
   xml:space="preserve"
   width="7.8740005in"
   height="7.8740005in"
   version="1.1"
   style="clip-rule:evenodd;fill-rule:evenodd;image-rendering:optimizeQuality;shape-rendering:geometricPrecision;text-rendering:geometricPrecision"
   viewBox="0 0 7874.0005 7874.0005"
   id="svg5270"
   inkscape:version="0.91 r13725"
   sodipodi:docname="PanOceania - Tikbalangs - [N3] [Vyo].svg"><metadata
     id="metadata5304"><rdf:RDF><cc:Work
         rdf:about=""><dc:format>image/svg+xml</dc:format><dc:type
           rdf:resource="http://purl.org/dc/dcmitype/StillImage" /></cc:Work></rdf:RDF></metadata><sodipodi:namedview
     pagecolor="#ffffff"
     bordercolor="#666666"
     borderopacity="1"
     objecttolerance="10"
     gridtolerance="10"
     guidetolerance="10"
     inkscape:pageopacity="0"
     inkscape:pageshadow="2"
     inkscape:window-width="640"
     inkscape:window-height="480"
     id="namedview5302"
     showgrid="false"
     inkscape:zoom="0.23838384"
     inkscape:cx="736.83001"
     inkscape:cy="849.33005"
     inkscape:window-x="0"
     inkscape:window-y="0"
     inkscape:window-maximized="0"
     inkscape:current-layer="svg5270" /><defs
     id="defs5272"><style
       type="text/css"
       id="style5274"><![CDATA[
    .fil3 {fill:none}
    .fil0 {fill:#00C0FF}
    .fil2 {fill:#A0D211}
    .fil1 {fill:white}
    .fil4 {fill:white}
    .fil5 {fill:#A0D211;fill-rule:nonzero}
   ]]></style></defs><g
     id="Layer_x0020_1"
     transform="translate(3937,-7063)"><metadata
       id="CorelCorpID_0Corel-Layer" /><circle
       class="fil0"
       cy="11000"
       r="3937"
       id="circle5278"
       cx="0"
       style="fill:#00c0ff" /><circle
       class="fil1"
       cy="11000"
       r="3858"
       id="circle5280"
       cx="0"
       style="fill:#ffffff" /><circle
       class="fil0"
       cy="11000"
       r="3268"
       id="circle5282"
       cx="0"
       style="fill:#00c0ff" /><path
       class="fil1"
       d="m 901,11065 c 142,188 277,384 395,588 170,-115 369,-292 342,-494 -18,-133 -127,-247 -226,-328 -68,-56 -142,-106 -218,-151 -82,-50 -167,-96 -252,-140 -148,-75 -298,-143 -447,-213 l -123,-58 135,-17 c 233,-29 470,-48 706,-48 -15,-205 -67,-466 -256,-543 -124,-51 -277,-13 -397,32 -83,31 -163,70 -240,113 -85,46 -167,96 -247,149 -139,90 -273,186 -408,280 l -112,77 53,-125 c 91,-217 194,-431 311,-636 -184,-89 -437,-174 -598,-49 -106,82 -150,233 -171,360 -15,87 -21,176 -23,264 -2,96 1,192 6,288 9,165 25,329 39,494 l 11,135 -82,-108 c -142,-188 -277,-384 -395,-588 -170,115 -369,292 -342,494 18,133 127,247 226,328 68,56 142,106 218,151 82,50 167,96 252,140 148,75 298,143 447,213 l 123,58 -135,17 c -233,29 -470,48 -706,48 15,205 67,466 256,543 124,51 277,13 397,-32 83,-31 163,-70 240,-113 85,-46 167,-96 247,-149 139,-90 273,-186 408,-280 l 112,-77 -53,125 c -91,217 -194,431 -311,636 184,89 437,174 598,49 106,-82 150,-233 171,-360 15,-87 21,-176 23,-264 2,-96 -1,-192 -6,-288 -9,-165 -25,-329 -39,-494 l -11,-135 82,108 z m 478,736 c 101,191 189,395 243,604 83,319 88,666 -110,945 l -35,51 -31,-54 c -35,-60 -71,-120 -111,-178 -29,-43 -61,-86 -96,-124 -19,-21 -44,-45 -68,-59 -6,-4 -21,-11 -28,-9 -1,0 -1,0 -1,1 -1,0 -1,0 -1,0 -6,5 -7,22 -7,29 0,28 9,61 18,88 15,50 37,99 59,146 30,63 64,125 99,185 l 35,61 -70,-2 c -586,-16 -1025,-393 -1280,-890 -115,183 -247,361 -401,513 -235,231 -532,408 -873,377 l -62,-6 31,-53 c 35,-60 69,-122 99,-185 22,-47 44,-96 59,-146 9,-27 18,-60 18,-88 0,-7 -1,-24 -7,-29 0,0 0,0 -1,0 0,-1 0,-1 -1,-1 -7,-2 -22,5 -28,9 -24,14 -49,38 -68,59 -35,38 -67,81 -96,124 -40,58 -76,118 -111,178 l -35,61 -34,-62 c -94,-173 -148,-362 -159,-559 -11,-197 22,-394 86,-580 51,-146 121,-284 204,-414 -215,-8 -436,-33 -644,-91 -318,-88 -620,-256 -764,-567 l -25,-56 61,0 c 70,0 140,-2 210,-8 52,-4 105,-10 156,-21 27,-6 60,-15 85,-29 6,-3 20,-13 21,-20 0,0 1,-1 1,-1 0,0 -1,-1 -1,-1 -1,-7 -15,-17 -21,-20 -25,-14 -58,-23 -85,-29 -51,-11 -104,-17 -156,-21 -70,-6 -140,-8 -210,-8 l -70,0 37,-60 c 103,-168 239,-309 405,-417 297,-195 654,-263 1005,-245 -101,-191 -189,-395 -243,-604 -83,-319 -88,-666 110,-945 l 35,-51 31,54 c 35,60 71,120 111,178 29,43 61,86 96,124 19,21 44,45 68,59 6,4 21,11 28,9 1,0 1,0 1,-1 1,0 1,0 1,0 6,-5 7,-22 7,-29 0,-28 -9,-61 -18,-88 -15,-50 -37,-99 -59,-146 -30,-63 -64,-125 -99,-185 l -35,-61 70,2 c 586,16 1025,394 1280,890 115,-183 247,-361 401,-513 235,-231 532,-408 873,-377 l 62,6 -31,53 c -35,60 -69,122 -99,185 -22,47 -44,96 -59,146 -9,27 -18,60 -18,88 0,7 1,24 7,29 0,0 0,0 1,0 0,1 0,1 1,1 7,2 22,-5 28,-9 24,-14 49,-38 68,-59 35,-38 67,-81 96,-124 40,-58 76,-118 111,-178 l 35,-61 34,62 c 94,173 148,362 159,559 11,197 -22,394 -86,580 -51,146 -121,284 -204,414 215,8 436,33 644,91 318,88 620,256 764,567 l 25,56 -61,0 c -70,0 -140,2 -210,8 -52,4 -105,10 -156,21 -27,6 -60,15 -85,29 -6,3 -20,13 -21,20 0,0 -1,1 -1,1 0,0 1,1 1,1 1,7 15,17 21,20 25,14 58,23 85,29 51,11 104,17 156,21 70,6 140,8 210,8 l 70,0 -37,60 c -103,168 -239,309 -405,417 -297,195 -654,263 -1005,245 z"
       id="path5284"
       inkscape:connector-curvature="0"
       style="fill:#ffffff" /><path
       class="fil2"
       d="m 512,10291 c 271,-34 519,-49 743,-48 -64,-1185 -1017,-454 -1613,-41 107,-252 217,-474 330,-667 -1059,-537 -902,654 -842,1376 -165,-218 -302,-425 -413,-620 -995,649 115,1109 771,1418 -271,34 -519,49 -743,48 64,1185 1017,454 1613,41 -107,252 -217,474 -330,667 1059,538 902,-654 842,-1376 165,218 302,425 413,620 995,-649 -115,-1109 -771,-1418 z M -1,12513 c -404,670 -844,972 -1275,933 158,-273 222,-463 154,-503 -68,-39 -201,112 -358,385 -272,-504 -172,-1081 169,-1572 -782,-15 -1264,-246 -1445,-638 315,0 512,-39 512,-118 0,-79 -197,-118 -512,-118 300,-488 850,-689 1446,-639 -378,-685 -419,-1218 -170,-1571 157,273 290,424 358,385 68,-40 4,-230 -154,-503 572,16 1022,392 1277,933 404,-670 844,-972 1275,-933 -158,273 -222,463 -154,503 68,39 201,-112 358,-385 272,504 172,1081 -169,1572 782,15 1264,246 1445,638 -315,0 -512,39 -512,118 0,79 197,118 512,118 -300,488 -850,689 -1446,639 378,685 419,1218 170,1571 -157,-273 -290,-424 -358,-385 -68,40 -4,230 154,503 -572,-16 -1022,-392 -1277,-933 z"
       id="path5286"
       inkscape:connector-curvature="0"
       style="fill:#a0d211" /><circle
       class="fil3"
       cy="11000"
       r="3898"
       id="circle5288"
       cx="0"
       style="fill:none" /><g
       id="_807211760"><path
         class="fil4"
         d="m 1114,7840 75,-143 172,91 -3,5 c 24,3 46,12 67,23 l 41,21 c 41,22 69,53 82,91 9,-3 19,-6 28,-7 34,-3 69,11 97,26 l 33,17 c 46,24 90,59 105,111 13,50 -1,99 -24,143 l -103,197 -178,-93 100,-190 c 3,-4 5,-10 7,-15 -7,-8 -28,-19 -35,-23 -8,-4 -31,-15 -39,-15 -2,1 -5,7 -6,9 l -102,194 -178,-93 105,-199 c 1,-1 2,-4 3,-7 -2,-1 -5,-4 -6,-5 -11,-7 -23,-14 -35,-20 -7,-4 -26,-13 -32,-12 -4,2 -10,12 -12,16 l -98,187 -173,-91 c -8,3 -17,6 -26,8 -21,3 -43,3 -65,0 -23,-3 -46,-9 -68,-15 l -87,-26 c -23,-7 -45,-15 -66,-26 -22,-11 -40,-26 -56,-45 -9,-11 -16,-23 -21,-36 l -9,65 -198,-27 32,-225 c 0,0 0,-1 0,-2 -6,-6 -31,-11 -38,-12 l -28,-3 c -11,-2 -26,-3 -36,4 -8,4 -10,13 -11,21 l -28,201 -175,-24 -1,15 -200,-3 3,-246 -82,7 19,240 -200,16 -18,-241 -56,4 -12,-163 56,-4 c -1,-41 9,-83 42,-112 35,-30 89,-40 134,-44 19,-1 37,-1 56,-2 9,0 18,0 26,-1 l 40,-3 0,8 199,2 -4,343 31,-220 198,28 -1,7 c 30,-6 62,-4 92,0 23,4 47,8 70,14 23,6 44,16 64,30 24,17 40,40 50,67 7,17 10,35 10,53 7,-14 14,-28 23,-41 16,-21 35,-38 59,-48 22,-10 45,-13 68,-12 24,1 48,6 71,13 l 81,24 c 30,9 59,19 86,33 23,12 44,27 60,48 16,20 25,44 27,71 1,13 0,27 -2,41 z m -2261,132 c -2,-5 -4,-10 -5,-16 l -17,-56 c -6,-22 -11,-45 -12,-68 -1,-24 4,-47 15,-68 13,-23 34,-41 57,-55 28,-18 62,-30 94,-40 l 34,-10 c 15,-4 30,-7 44,-9 9,-1 18,-1 27,0 l -40,-137 192,-56 152,520 -185,54 -2,-7 c -21,16 -47,26 -72,34 l -34,10 c -32,9 -67,17 -100,17 -18,1 -36,-1 -53,-6 l -179,97 -77,-52 -209,113 3,91 -218,117 -1,-614 202,-109 384,250 z m -374,9 1,55 44,-24 -45,-31 z m 560,-75 c 7,0 18,-3 23,-5 l 68,-20 c 7,-2 24,-7 30,-13 0,-4 -2,-13 -3,-16 l -9,-31 c -1,-3 -4,-12 -6,-15 -8,-1 -26,3 -32,5 l -69,20 c -5,1 -16,5 -22,8 1,5 3,12 3,16 l 11,36 c 1,3 4,11 6,15 z"
         id="path5291"
         inkscape:connector-curvature="0"
         style="fill:#ffffff" /></g><path
       class="fil5"
       d="m -1692,8380 138,-75 -3,-91 251,-135 77,51 137,-74 -441,-288 -161,87 2,525 z m 130,-474 162,110 -158,85 -4,-195 z m 547,-40 c -6,-20 -6,-35 -1,-46 5,-10 20,-19 46,-27 l 69,-20 c 24,-7 43,-8 57,-4 13,5 23,19 30,41 l 9,31 c 6,22 5,39 -3,50 -9,12 -26,21 -51,28 l -68,20 c -26,8 -44,8 -54,2 -10,-6 -18,-19 -24,-39 l -10,-36 z m -100,79 c 7,23 14,41 23,56 8,14 20,25 34,33 15,9 34,12 58,12 24,0 54,-6 90,-16 l 34,-10 c 34,-10 57,-23 72,-38 14,-16 21,-35 22,-58 l 1,0 17,58 109,-32 -129,-444 -117,34 55,189 -1,0 c -5,-11 -12,-20 -21,-26 -9,-7 -19,-11 -30,-13 -11,-1 -22,-2 -34,0 -12,1 -25,3 -38,7 l -34,10 c -36,11 -64,22 -85,35 -20,13 -34,26 -42,41 -8,15 -12,30 -11,47 1,17 4,36 11,59 l 16,56 z m 815,-43 121,-9 -18,-241 115,-8 -6,-84 -115,8 -1,-15 c -2,-17 2,-28 9,-34 8,-7 23,-11 47,-13 7,0 17,-1 31,-1 5,0 11,0 19,0 l -7,-83 c -7,0 -16,1 -29,1 -22,0 -39,1 -53,2 -52,4 -90,15 -111,34 -22,19 -31,50 -28,94 l 2,24 -56,5 7,84 55,-5 18,241 z m 390,-337 -122,-2 -4,326 122,2 4,-326 z m 1,-137 -121,-1 -1,96 121,1 1,-96 z m 55,451 120,17 23,-163 c 3,-22 13,-39 29,-49 16,-10 37,-13 63,-9 l 27,3 c 52,8 76,27 71,59 l -25,185 120,17 26,-185 c 4,-33 3,-60 -5,-82 -9,-21 -21,-37 -37,-49 -16,-11 -33,-19 -52,-24 -18,-5 -40,-9 -65,-13 -34,-4 -62,-4 -84,1 -21,6 -39,18 -52,38 l -1,0 7,-52 -120,-17 -45,323 z m 510,-87 c -9,31 -13,59 -10,81 3,23 10,41 22,56 12,15 26,26 43,35 17,9 37,16 59,23 l 87,26 c 23,7 44,12 63,14 19,3 36,3 52,0 16,-3 30,-10 41,-20 12,-10 20,-25 26,-44 l 4,-13 -109,-33 c -2,6 -4,11 -6,14 -2,4 -6,6 -11,8 -6,2 -13,3 -22,2 -10,-1 -22,-3 -38,-8 l -35,-11 c -26,-7 -43,-16 -53,-25 -9,-10 -11,-22 -6,-38 l 5,-19 283,84 15,-52 c 9,-28 12,-51 11,-70 -2,-20 -8,-36 -19,-50 -11,-14 -26,-26 -47,-37 -20,-10 -46,-21 -79,-30 l -81,-24 c -23,-7 -43,-11 -62,-12 -18,-1 -35,2 -51,9 -15,7 -29,18 -42,35 -12,17 -22,40 -31,69 l -9,30 z m 133,-22 c 3,-10 6,-18 10,-23 3,-5 8,-8 15,-9 6,-1 15,-1 26,1 11,2 27,6 47,12 35,11 57,20 66,29 9,9 11,22 6,41 l -170,-51 z m 265,269 107,57 80,-153 c 12,-21 25,-33 39,-35 15,-3 35,3 58,15 17,9 30,17 39,23 10,7 16,13 20,19 4,6 5,13 5,20 -1,6 -4,14 -9,24 l -86,163 107,57 84,-159 c 9,-19 22,-28 37,-30 14,-1 35,5 61,19 31,16 48,30 54,43 3,7 4,14 2,21 -2,8 -5,17 -11,28 l -81,154 107,57 85,-162 c 23,-43 30,-81 21,-114 -9,-33 -38,-62 -85,-87 l -33,-17 c -31,-16 -55,-24 -75,-22 -19,2 -40,14 -62,35 3,-55 -20,-96 -71,-123 l -40,-21 c -28,-15 -52,-21 -75,-19 -22,1 -40,11 -53,30 l -1,-1 30,-56 -102,-54 -152,288 z"
       id="path5293"
       inkscape:connector-curvature="0"
       style="fill:#a0d211;fill-rule:nonzero" /><circle
       class="fil3"
       cy="11000"
       r="3898"
       id="circle5295"
       cx="0"
       style="fill:none" /><g
       id="_807225872"><path
         class="fil4"
         d="m 2078,13288 c -6,-20 -6,-41 0,-62 9,-31 24,-55 44,-80 35,-45 78,-89 118,-131 33,-35 68,-72 105,-102 23,-19 47,-36 76,-45 l 1,-1 0,0 c 56,-16 101,10 141,48 5,6 11,11 16,17 l 25,27 -12,13 c 45,-1 82,25 117,59 53,50 90,107 60,180 -10,25 -29,50 -46,70 -34,41 -72,81 -109,120 -36,38 -73,77 -113,111 -23,20 -50,40 -79,50 -53,17 -92,0 -129,-31 3,5 6,9 8,14 36,63 23,124 -26,176 -52,54 -120,101 -181,144 -47,33 -96,69 -146,96 -31,17 -61,29 -96,31 -12,0 -24,0 -36,-3 -30,-6 -53,-24 -74,-46 -14,-14 -27,-30 -40,-47 l 84,185 -279,126 -295,-164 114,246 -183,83 0,0 -2,1 -19,8 -2,-4 -223,52 -56,-64 -254,58 -22,83 -247,57 8,-28 -501,10 7,20 -248,-43 -27,-81 -257,-44 -52,67 -250,-43 376,-466 264,45 172,500 -10,-478 228,-4 7,331 331,-6 1,50 117,-406 261,-60 348,389 -186,-412 281,-127 292,164 -114,-244 204,-93 11,24 c 1,-4 3,-9 4,-13 13,-33 42,-63 68,-86 46,-41 99,-80 150,-116 51,-36 108,-77 164,-104 35,-16 73,-29 111,-21 z m 153,150 c 4,6 8,11 11,16 l 13,-12 c -8,-1 -16,-2 -24,-4 z m -223,68 c -27,12 -91,59 -105,70 -13,9 -92,63 -97,78 0,10 30,51 36,59 7,10 38,54 50,61 7,0 29,-15 33,-18 l 25,-17 -88,-123 149,-106 c -1,-1 -2,-3 -3,-4 z m 404,-159 c 9,-7 27,-25 43,-42 -11,10 -21,20 -31,30 -4,4 -8,8 -12,11 0,0 0,1 0,1 z m -3763,367 307,119 c 41,16 82,31 122,49 18,8 36,16 50,30 4,3 7,6 10,9 45,46 37,101 16,156 -14,35 -30,62 -54,79 18,34 14,73 -5,122 -23,59 -60,107 -129,106 l -1,0 -1,0 c -29,-1 -65,-13 -93,-23 l -1,0 0,-1 c -34,-13 -68,-26 -102,-39 l -298,-115 8,22 -291,-184 -86,-256 -20,-13 -91,144 -187,-119 166,-262 -193,221 -172,-150 205,-234 -115,-133 -251,217 -148,-173 250,-216 -135,-158 145,-125 382,443 12,-14 172,150 -10,10 159,101 -86,136 19,12 244,-39 202,128 z m -78,76 -241,29 111,307 130,-336 z m 926,462 -26,-77 -50,64 76,13 z m 1215,-38 -53,-62 -22,79 75,-17 z"
         id="path5298"
         inkscape:connector-curvature="0"
         style="fill:#ffffff" /></g><path
       class="fil5"
       d="m -2449,12842 -86,74 136,158 -251,216 97,113 251,-216 136,157 86,-74 -369,-428 z m 402,429 -293,335 112,98 293,-335 -112,-98 z m 143,142 -239,375 120,76 91,-143 66,41 86,256 182,116 -126,-349 347,-41 -184,-117 -244,40 -66,-42 87,-136 -120,-76 z m 373,750 313,122 c 63,23 97,37 102,39 40,14 66,20 82,21 42,0 70,-23 92,-81 26,-67 18,-98 -36,-129 48,5 72,-14 95,-73 22,-54 20,-86 -7,-113 -19,-21 -24,-23 -168,-79 l -313,-121 -160,414 z m 223,-202 25,-66 187,72 c 61,25 63,25 69,30 12,8 14,20 8,37 -6,15 -16,24 -28,23 -9,0 -29,-6 -74,-24 l -187,-72 z m -59,152 27,-69 187,72 c 78,30 78,30 84,35 13,9 15,20 8,39 -7,18 -16,25 -29,25 -12,0 -12,0 -90,-30 l -187,-72 z m 981,375 159,27 -165,-480 -218,-37 -319,396 160,27 52,-67 304,53 27,81 z m -59,-186 -206,-35 118,-151 28,5 60,181 z m 286,-241 8,444 481,-9 -2,-113 -332,6 -6,-331 -149,3 z m 1071,324 157,-36 -338,-378 -216,49 -140,489 158,-36 22,-83 301,-69 56,64 z m -127,-148 -203,47 50,-185 27,-6 126,144 z m 174,-313 183,405 132,-59 -140,-301 14,-6 361,200 225,-101 -183,-406 -132,60 139,301 -13,6 -359,-202 -227,103 z m 958,-299 51,73 152,-109 c 21,28 23,36 21,47 -4,16 -24,33 -122,103 l -72,50 c -31,20 -43,25 -57,25 -19,0 -37,-18 -80,-78 -67,-94 -67,-95 70,-193 87,-61 116,-79 132,-79 11,0 16,4 31,24 l 116,-83 c -39,-52 -59,-71 -88,-78 -45,-10 -105,18 -245,118 -133,95 -190,146 -204,184 -17,44 -1,87 69,185 85,119 110,141 159,138 46,-2 91,-26 221,-119 102,-73 141,-104 175,-140 40,-41 46,-83 21,-129 -11,-18 -53,-83 -78,-118 l -7,-10 -265,189 z m 366,-156 16,14 c 46,44 73,54 110,42 36,-12 81,-50 177,-151 99,-105 136,-149 147,-178 19,-45 4,-84 -51,-136 -46,-44 -77,-56 -114,-44 -33,10 -57,30 -164,136 -72,72 -99,97 -110,104 -12,7 -22,6 -34,-5 -24,-23 -19,-32 64,-118 73,-78 85,-89 99,-91 10,-1 16,2 33,16 l 94,-99 c -6,-7 -12,-13 -14,-15 -40,-38 -69,-48 -103,-39 -37,12 -75,43 -165,138 -116,122 -141,154 -152,193 -10,36 8,75 55,121 33,31 59,44 86,45 31,1 60,-17 109,-65 10,-10 44,-44 81,-79 36,-34 69,-67 79,-78 32,-32 45,-36 64,-17 14,12 18,23 14,34 -6,13 -16,25 -90,103 -69,73 -81,83 -96,87 -12,4 -21,0 -40,-18 l -95,100 z"
       id="path5300"
       inkscape:connector-curvature="0"
       style="fill:#a0d211;fill-rule:nonzero" /></g></svg>