<?xml version="1.0" encoding="UTF-8" standalone="no"?>
<!-- Creator: CorelDRAW X7 -->

<svg
   xmlns:dc="http://purl.org/dc/elements/1.1/"
   xmlns:cc="http://creativecommons.org/ns#"
   xmlns:rdf="http://www.w3.org/1999/02/22-rdf-syntax-ns#"
   xmlns:svg="http://www.w3.org/2000/svg"
   xmlns="http://www.w3.org/2000/svg"
   xmlns:sodipodi="http://sodipodi.sourceforge.net/DTD/sodipodi-0.dtd"
   xmlns:inkscape="http://www.inkscape.org/namespaces/inkscape"
   xml:space="preserve"
   width="7.8740005in"
   height="7.8740005in"
   version="1.1"
   style="clip-rule:evenodd;fill-rule:evenodd;image-rendering:optimizeQuality;shape-rendering:geometricPrecision;text-rendering:geometricPrecision"
   viewBox="0 0 7874.0005 7874.0005"
   id="svg5032"
   inkscape:version="0.91 r13725"
   sodipodi:docname="PanOceania - Remote 4 Fugazi Dronbots - [N3] [Vyo].svg"><metadata
     id="metadata5082"><rdf:RDF><cc:Work
         rdf:about=""><dc:format>image/svg+xml</dc:format><dc:type
           rdf:resource="http://purl.org/dc/dcmitype/StillImage" /></cc:Work></rdf:RDF></metadata><sodipodi:namedview
     pagecolor="#ffffff"
     bordercolor="#666666"
     borderopacity="1"
     objecttolerance="10"
     gridtolerance="10"
     guidetolerance="10"
     inkscape:pageopacity="0"
     inkscape:pageshadow="2"
     inkscape:window-width="640"
     inkscape:window-height="480"
     id="namedview5080"
     showgrid="false"
     inkscape:zoom="0.23838384"
     inkscape:cx="736.83001"
     inkscape:cy="849.33005"
     inkscape:window-x="0"
     inkscape:window-y="0"
     inkscape:window-maximized="0"
     inkscape:current-layer="svg5032" /><defs
     id="defs5034"><style
       type="text/css"
       id="style5036"><![CDATA[
    .fil4 {fill:none}
    .fil0 {fill:#00C0FF}
    .fil1 {fill:white}
    .fil2 {fill:white}
    .fil3 {fill:#00C0FF;fill-rule:nonzero}
    .fil5 {fill:white;fill-rule:nonzero}
   ]]></style></defs><g
     id="Layer_x0020_1"
     transform="translate(3937,-7063)"><metadata
       id="CorelCorpID_0Corel-Layer" /><circle
       class="fil0"
       cy="11000"
       r="3937"
       id="circle5040"
       cx="0"
       style="fill:#00c0ff" /><circle
       class="fil1"
       cy="11000"
       r="3780"
       id="circle5042"
       cx="0"
       style="fill:#ffffff" /><circle
       class="fil0"
       cy="11000"
       r="2795"
       id="circle5044"
       cx="0"
       style="fill:#00c0ff" /><polygon
       class="fil2"
       points="-2047,11000 0,8441 2047,11000 0,13559 "
       id="polygon5046"
       style="fill:#ffffff" /><polygon
       class="fil0"
       points="0,8567 -1946,11000 1946,11000 "
       id="polygon5048"
       style="fill:#00c0ff" /><polygon
       class="fil3"
       points="-2201,8693 -2337,8835 -2209,8956 -2298,9050 -2647,8718 -2411,8470 -2334,8543 -2481,8698 -2413,8762 -2278,8620 "
       id="polygon5050"
       style="fill:#00c0ff;fill-rule:nonzero" /><path
       id="1"
       class="fil3"
       d="m -1993,8307 208,265 -87,68 -38,-58 -1,1 c 9,25 11,47 5,66 -6,20 -20,38 -42,56 -31,23 -59,34 -84,31 -26,-4 -51,-20 -74,-51 l -141,-180 87,-67 119,152 c 10,13 17,21 20,24 3,4 7,6 11,8 12,6 26,2 42,-10 21,-16 29,-34 25,-55 -2,-8 -11,-22 -28,-44 l -109,-139 87,-67 z"
       inkscape:connector-curvature="0"
       style="fill:#00c0ff;fill-rule:nonzero" /><path
       id="2"
       class="fil3"
       d="m -1641,8072 181,276 c 17,26 29,49 35,69 6,20 7,38 2,55 -4,17 -14,34 -30,50 -16,17 -38,35 -68,54 -25,16 -46,28 -64,35 -19,7 -35,10 -49,9 -14,0 -26,-5 -37,-14 -9,-7 -22,-23 -40,-49 l 88,-57 c 9,14 18,21 25,22 8,1 20,-4 37,-14 20,-14 31,-25 35,-36 3,-10 0,-23 -10,-38 l -46,-69 -1,1 c 5,21 3,39 -4,56 -8,16 -22,31 -43,45 -20,13 -39,21 -60,25 -20,4 -38,3 -53,-2 -14,-6 -27,-16 -41,-31 -13,-15 -30,-38 -51,-70 -17,-25 -29,-48 -37,-68 -8,-20 -11,-38 -10,-53 2,-16 7,-30 17,-43 10,-14 26,-27 46,-40 25,-17 47,-25 65,-25 18,0 38,8 59,25 l 1,-1 -39,-51 92,-61 z m -98,161 c -15,10 -24,18 -28,25 -4,7 -3,17 1,28 5,12 15,29 31,53 9,14 17,25 24,33 7,8 14,14 21,16 7,3 13,3 20,1 7,-2 16,-7 27,-14 13,-9 22,-17 27,-25 4,-7 5,-16 1,-26 -3,-10 -10,-24 -22,-41 -17,-26 -30,-43 -39,-53 -9,-9 -18,-14 -26,-13 -9,1 -21,6 -37,16 z"
       inkscape:connector-curvature="0"
       style="fill:#00c0ff;fill-rule:nonzero" /><path
       id="3"
       class="fil3"
       d="m -1387,8059 -101,46 -3,-9 c -8,-17 -12,-32 -13,-45 -1,-13 3,-24 10,-35 7,-11 18,-22 34,-33 16,-10 37,-22 63,-33 40,-19 72,-29 97,-33 25,-3 45,1 62,13 16,12 31,32 44,61 l 90,199 -99,45 -20,-51 -2,1 c 1,16 1,29 -3,40 -4,11 -11,21 -22,29 -11,9 -26,18 -47,28 -19,8 -36,14 -50,16 -15,2 -28,1 -40,-3 -12,-4 -22,-11 -32,-21 -9,-11 -18,-25 -26,-42 -7,-17 -12,-32 -13,-45 -1,-14 1,-26 6,-38 5,-11 14,-22 26,-32 12,-9 28,-19 48,-28 19,-9 35,-15 47,-18 12,-3 23,-3 31,-1 9,3 18,8 27,17 l 2,-1 -27,-59 c -7,-15 -15,-24 -25,-27 -9,-2 -23,0 -41,8 -14,7 -23,13 -26,20 -4,7 -3,17 3,31 z m 74,73 c -18,8 -29,16 -33,24 -5,8 -4,18 1,30 6,13 13,20 23,21 9,1 24,-3 45,-13 17,-8 28,-16 32,-23 5,-8 3,-19 -3,-33 -5,-11 -12,-17 -21,-18 -9,-1 -24,3 -44,12 z"
       inkscape:connector-curvature="0"
       style="fill:#00c0ff;fill-rule:nonzero" /><polygon
       id="4"
       class="fil3"
       points="-959,8060 -803,8012 -780,8087 -1058,8173 -1085,8085 -983,7879 -1122,7922 -1145,7847 -879,7765 -854,7849 "
       style="fill:#00c0ff;fill-rule:nonzero" /><path
       id="5"
       class="fil3"
       d="m -731,7582 18,79 -107,25 -19,-80 108,-24 z m 32,140 76,329 -108,25 -75,-329 107,-25 z"
       inkscape:connector-curvature="0"
       style="fill:#00c0ff;fill-rule:nonzero" /><path
       id="6"
       class="fil3"
       d="m -372,8006 -38,-480 250,-20 c 43,-4 78,0 107,10 28,11 51,29 66,54 16,26 25,59 29,100 0,0 1,12 2,38 l 4,51 c 3,36 3,64 2,84 -1,21 -5,38 -10,52 -5,14 -14,27 -25,39 -14,16 -32,28 -54,36 -22,8 -52,13 -89,16 l -244,20 z m 120,-120 105,-9 c 11,-1 21,-2 28,-5 7,-2 12,-5 17,-10 5,-4 9,-10 12,-18 6,-10 8,-26 7,-47 0,0 0,-9 0,-27 -1,-11 -1,-22 -2,-33 -3,-37 -7,-64 -12,-81 -5,-17 -13,-28 -23,-33 -11,-5 -27,-7 -48,-5 l -105,9 21,259 z"
       inkscape:connector-curvature="0"
       style="fill:#00c0ff;fill-rule:nonzero" /><path
       id="7"
       class="fil3"
       d="m 153,7652 110,9 -10,53 3,0 c 11,-21 23,-35 36,-42 14,-8 31,-11 52,-9 18,2 32,5 42,10 10,5 19,12 24,22 6,10 10,23 12,39 1,16 1,36 -1,60 -1,10 -1,19 -1,27 l -100,-8 c 1,-3 1,-6 2,-9 1,-15 1,-27 0,-36 -1,-9 -3,-15 -7,-18 -4,-4 -11,-6 -20,-7 -12,-1 -22,3 -29,11 -8,8 -12,20 -14,36 l -1,12 -16,195 -110,-10 28,-335 z"
       inkscape:connector-curvature="0"
       style="fill:#00c0ff;fill-rule:nonzero" /><path
       id="8"
       class="fil3"
       d="m 664,7711 c 39,7 67,14 85,21 18,8 32,19 42,33 9,14 15,30 17,49 2,19 0,45 -6,77 -6,41 -14,72 -22,96 -9,23 -20,40 -33,52 -14,11 -32,17 -54,19 -21,1 -50,-1 -85,-7 -24,-4 -45,-8 -61,-13 -17,-5 -31,-11 -42,-18 -11,-7 -20,-15 -28,-25 -7,-11 -12,-22 -15,-33 -3,-11 -4,-26 -3,-44 1,-18 5,-42 10,-74 6,-38 13,-66 22,-84 8,-18 20,-32 35,-41 10,-6 20,-11 32,-13 12,-3 25,-4 42,-3 16,1 37,4 64,8 z m -15,81 c -16,-3 -28,-3 -37,0 -9,3 -16,10 -21,22 -5,11 -9,28 -13,52 -3,20 -5,36 -6,49 -1,13 0,23 3,30 3,8 8,13 15,17 7,4 17,7 30,9 16,3 28,2 37,-1 9,-4 15,-13 20,-27 5,-14 11,-36 16,-66 3,-21 4,-37 3,-48 -1,-11 -6,-20 -13,-25 -7,-6 -18,-10 -34,-12 z"
       inkscape:connector-curvature="0"
       style="fill:#00c0ff;fill-rule:nonzero" /><path
       id="9"
       class="fil3"
       d="m 934,7778 105,36 -26,61 3,0 c 16,-21 32,-35 49,-40 17,-6 38,-4 64,5 26,9 46,19 60,32 14,12 23,27 26,44 2,16 0,36 -7,59 l -76,226 -104,-35 61,-183 4,-12 c 6,-17 7,-30 3,-39 -4,-10 -13,-17 -27,-21 -38,-13 -63,-1 -75,35 l -63,187 -105,-35 108,-320 z"
       inkscape:connector-curvature="0"
       style="fill:#00c0ff;fill-rule:nonzero" /><path
       id="10"
       class="fil3"
       d="m 1199,8226 224,-426 98,52 -92,174 2,1 c 12,-10 24,-16 35,-19 11,-4 23,-4 36,-1 13,2 28,8 44,17 40,20 63,44 70,70 4,17 4,34 0,51 -5,17 -18,45 -38,83 -20,38 -35,63 -44,76 -10,14 -22,24 -37,33 -30,18 -68,14 -115,-11 -14,-7 -24,-14 -33,-21 -8,-7 -14,-15 -19,-23 -4,-8 -7,-17 -8,-27 0,-10 0,-22 2,-35 l -2,-1 -25,58 -98,-51 z m 269,-147 c -20,-11 -36,-14 -48,-8 -12,5 -25,21 -39,48 -14,26 -23,46 -27,59 -4,13 -3,23 1,31 4,7 13,15 27,22 17,9 30,14 39,14 9,0 17,-4 25,-13 8,-9 18,-26 31,-51 13,-24 21,-41 23,-52 3,-12 2,-21 -3,-28 -5,-7 -15,-15 -29,-22 z"
       inkscape:connector-curvature="0"
       style="fill:#00c0ff;fill-rule:nonzero" /><path
       id="11"
       class="fil3"
       d="m 1861,8209 c 34,21 57,39 70,53 14,13 22,29 26,46 3,16 2,34 -4,52 -6,18 -17,41 -35,69 -22,34 -41,61 -58,79 -17,18 -34,29 -51,34 -17,6 -36,5 -56,-3 -21,-7 -46,-20 -76,-39 -21,-13 -38,-25 -51,-36 -14,-11 -24,-22 -31,-33 -8,-10 -13,-21 -16,-34 -3,-12 -3,-24 -1,-36 1,-11 6,-25 14,-41 8,-16 21,-38 38,-65 21,-32 38,-55 53,-68 14,-14 31,-22 49,-25 11,-2 22,-1 34,1 12,2 25,7 39,14 15,7 33,17 56,32 z m -44,68 c -14,-8 -26,-13 -35,-14 -9,0 -18,3 -27,12 -9,8 -20,23 -33,43 -11,17 -20,31 -25,43 -6,11 -9,21 -9,29 -1,8 2,15 7,21 5,6 13,13 24,20 14,9 26,14 35,14 9,0 19,-6 29,-17 10,-11 23,-29 40,-55 11,-18 19,-33 22,-43 3,-11 3,-20 -2,-28 -4,-8 -13,-16 -26,-25 z"
       inkscape:connector-curvature="0"
       style="fill:#00c0ff;fill-rule:nonzero" /><path
       id="12"
       class="fil3"
       d="m 2274,8536 -52,61 -97,-83 -87,104 c -12,13 -18,23 -20,30 -1,6 2,13 9,19 9,8 18,11 26,8 7,-3 18,-13 33,-30 l 4,-5 67,57 c -2,2 -4,4 -5,6 -1,1 -3,2 -4,4 -21,24 -36,40 -45,47 -9,7 -20,12 -32,14 -9,2 -19,2 -30,0 -10,-3 -22,-8 -35,-16 -12,-8 -27,-19 -43,-33 -23,-20 -39,-38 -48,-53 -8,-16 -10,-32 -7,-50 2,-8 5,-16 9,-24 5,-7 12,-17 22,-29 l 102,-120 -31,-27 52,-61 31,27 46,-54 84,72 -46,54 97,82 z"
       inkscape:connector-curvature="0"
       style="fill:#00c0ff;fill-rule:nonzero" /><path
       id="13"
       class="fil3"
       d="m 2479,8885 -72,-75 c 2,-3 3,-4 3,-5 4,-6 6,-12 7,-16 0,-4 -2,-9 -6,-15 -4,-6 -11,-14 -21,-25 -13,-13 -23,-21 -30,-23 -7,-2 -15,1 -23,9 -11,10 -13,20 -6,31 2,3 6,9 13,17 l 10,11 10,12 9,11 c 14,16 25,29 33,40 8,12 14,21 18,29 3,8 6,16 7,24 1,12 -1,25 -6,37 -6,12 -15,24 -28,36 -16,15 -31,26 -46,32 -15,6 -30,7 -46,4 -16,-4 -33,-12 -51,-25 -18,-13 -38,-31 -60,-54 -22,-23 -38,-43 -49,-60 -12,-17 -18,-32 -20,-46 -2,-13 0,-27 7,-40 7,-14 18,-28 33,-43 l 77,81 -5,4 c -9,9 -13,18 -11,26 2,7 11,19 27,36 14,16 26,25 34,28 8,2 17,0 25,-8 7,-6 11,-12 12,-17 2,-5 1,-11 -2,-17 -3,-6 -9,-14 -18,-24 -23,-25 -40,-44 -50,-56 -10,-13 -17,-24 -22,-36 -9,-19 -11,-37 -7,-54 5,-16 17,-34 37,-53 15,-14 29,-24 42,-29 14,-6 27,-7 41,-3 14,3 29,11 45,24 17,12 36,31 59,54 27,29 46,53 56,73 10,19 13,37 9,53 -4,16 -16,34 -35,52 z"
       inkscape:connector-curvature="0"
       style="fill:#00c0ff;fill-rule:nonzero" /><circle
       class="fil4"
       cy="11000"
       r="3898"
       id="circle5065"
       cx="0"
       style="fill:none" /><path
       class="fil3"
       d="m -2934,12934 90,115 95,-74 179,229 c 16,20 32,33 50,42 18,8 36,12 53,11 18,-1 36,-5 53,-13 17,-7 33,-17 48,-28 l 32,-26 c 20,-15 36,-31 48,-47 12,-16 20,-34 24,-53 3,-19 1,-40 -7,-63 -8,-22 -22,-47 -43,-74 l -246,-314 -376,295 z m 373,-106 133,169 c 13,17 19,32 18,44 -1,13 -8,24 -21,35 l -15,11 c -12,9 -24,14 -36,14 -12,-1 -23,-7 -33,-20 l -141,-179 95,-74 z m 9,592 123,108 88,-35 224,196 -22,93 123,108 117,-533 -143,-126 -510,189 z m 508,-43 -47,198 -141,-123 188,-75 z m 114,572 131,66 157,-310 2,1 88,434 202,103 216,-426 -130,-66 -157,309 -2,0 -88,-434 -202,-103 -217,426 z m 753,187 c -9,33 -12,61 -9,86 3,24 11,45 25,62 14,16 32,31 55,43 23,12 51,22 85,32 l 227,63 c 34,9 63,15 89,16 26,2 49,-1 70,-8 21,-8 39,-21 54,-40 15,-19 27,-45 36,-78 l 38,-138 c 9,-33 13,-62 10,-86 -3,-24 -12,-45 -26,-62 -14,-17 -32,-31 -55,-43 -23,-12 -51,-22 -85,-32 l -227,-63 c -34,-9 -63,-15 -89,-17 -26,-2 -49,1 -70,9 -20,7 -38,20 -53,40 -15,19 -28,45 -37,78 l -38,138 z m 171,-54 c 9,-31 21,-52 37,-64 17,-12 42,-13 77,-3 l 165,46 c 35,10 56,24 64,42 8,18 8,43 -1,75 l -14,49 c -10,35 -22,58 -36,68 -15,10 -38,11 -70,2 l -181,-50 c -32,-9 -52,-22 -59,-38 -7,-17 -6,-42 4,-77 l 14,-50 z m 548,244 c -1,34 3,63 12,85 9,23 23,41 40,54 18,13 39,22 64,28 26,6 56,9 91,10 l 236,4 c 36,1 65,-2 89,-9 23,-7 42,-16 55,-29 13,-12 22,-27 27,-44 5,-17 8,-36 8,-58 l 1,-45 -146,-3 c -1,15 -2,27 -5,36 -3,9 -8,15 -15,19 -6,5 -14,7 -25,8 -10,2 -24,2 -42,2 l -157,-3 c -33,-1 -55,-9 -66,-23 -11,-14 -16,-39 -16,-75 l 1,-51 c 1,-33 8,-57 20,-72 13,-16 38,-23 74,-22 l 160,3 c 22,0 40,4 51,11 11,7 17,18 16,35 l 0,13 147,3 c 0,-37 -2,-67 -7,-89 -6,-22 -16,-40 -32,-54 -16,-14 -39,-24 -69,-31 -31,-6 -72,-10 -123,-11 l -172,-4 c -36,0 -66,2 -91,6 -26,5 -47,13 -65,26 -19,12 -33,30 -42,52 -10,23 -16,51 -16,85 l -3,143 z m 758,177 524,-91 -20,-113 -379,66 -13,-76 351,-61 -16,-97 -352,61 -13,-76 371,-64 -19,-109 -515,89 81,471 z m 618,-97 152,-60 9,-95 276,-110 73,62 152,-60 -421,-347 -177,70 -64,540 z m 193,-472 155,132 -174,69 19,-201 z m 558,158 123,-80 -188,-291 1,-1 419,142 191,-123 -259,-401 -123,79 188,292 -1,1 -419,-143 -191,123 259,402 z m 656,-467 105,-102 -331,-344 -105,101 331,345 z m 196,-167 102,-128 -39,-87 185,-232 94,17 102,-128 -538,-92 -119,150 213,500 z m -67,-506 200,38 -117,146 -83,-184 z"
       id="path5067"
       inkscape:connector-curvature="0"
       style="fill:#00c0ff;fill-rule:nonzero" /><circle
       class="fil4"
       cy="11000"
       r="3898"
       id="circle5069"
       cx="0"
       style="fill:none" /><g
       id="_807675088"><rect
         class="fil0"
         x="-1043"
         y="11000"
         width="354"
         height="748"
         id="rect5072"
         style="fill:#00c0ff" /><rect
         class="fil1"
         x="-1043"
         y="10252"
         width="354"
         height="748"
         id="rect5074"
         style="fill:#ffffff" /></g><polygon
       class="fil3"
       points="484,11748 -11,11748 -287,11000 90,11000 236,11397 382,11000 759,11000 "
       id="polygon5076"
       style="fill:#00c0ff;fill-rule:nonzero" /><path
       class="fil5"
       d="m -287,11000 -276,-748 378,0 275,748 -377,0 z m 1046,0 -377,0 276,-748 377,0 -276,748 z"
       id="path5078"
       inkscape:connector-curvature="0"
       style="fill:#ffffff;fill-rule:nonzero" /></g></svg>