<?xml version="1.0" encoding="UTF-8" standalone="no"?>
<!-- Creator: CorelDRAW X7 -->

<svg
   xmlns:dc="http://purl.org/dc/elements/1.1/"
   xmlns:cc="http://creativecommons.org/ns#"
   xmlns:rdf="http://www.w3.org/1999/02/22-rdf-syntax-ns#"
   xmlns:svg="http://www.w3.org/2000/svg"
   xmlns="http://www.w3.org/2000/svg"
   xmlns:sodipodi="http://sodipodi.sourceforge.net/DTD/sodipodi-0.dtd"
   xmlns:inkscape="http://www.inkscape.org/namespaces/inkscape"
   xml:space="preserve"
   width="7.8740005in"
   height="7.8740005in"
   version="1.1"
   style="clip-rule:evenodd;fill-rule:evenodd;image-rendering:optimizeQuality;shape-rendering:geometricPrecision;text-rendering:geometricPrecision"
   viewBox="0 0 7874.0005 7874.0005"
   id="svg4563"
   inkscape:version="0.91 r13725"
   sodipodi:docname="PanOceania - Military Order Father-Knights - [N3] [Vyo].svg"><metadata
     id="metadata4615"><rdf:RDF><cc:Work
         rdf:about=""><dc:format>image/svg+xml</dc:format><dc:type
           rdf:resource="http://purl.org/dc/dcmitype/StillImage" /></cc:Work></rdf:RDF></metadata><sodipodi:namedview
     pagecolor="#ffffff"
     bordercolor="#666666"
     borderopacity="1"
     objecttolerance="10"
     gridtolerance="10"
     guidetolerance="10"
     inkscape:pageopacity="0"
     inkscape:pageshadow="2"
     inkscape:window-width="640"
     inkscape:window-height="480"
     id="namedview4613"
     showgrid="false"
     inkscape:zoom="0.23838384"
     inkscape:cx="736.83001"
     inkscape:cy="849.33005"
     inkscape:window-x="0"
     inkscape:window-y="0"
     inkscape:window-maximized="0"
     inkscape:current-layer="svg4563" /><defs
     id="defs4565"><style
       type="text/css"
       id="style4567"><![CDATA[
    .fil1 {fill:none}
    .fil6 {fill:black}
    .fil4 {fill:black}
    .fil0 {fill:#4060A0}
    .fil5 {fill:#F43018}
    .fil3 {fill:white}
    .fil2 {fill:white;fill-rule:nonzero}
   ]]></style></defs><g
     id="Layer_x0020_1"
     transform="translate(3937,-7063)"><metadata
       id="CorelCorpID_0Corel-Layer" /><circle
       class="fil0"
       cy="11000"
       r="3937"
       id="circle4571"
       cx="0"
       style="fill:#4060a0" /><circle
       class="fil1"
       cy="11000"
       r="3780"
       id="circle4573"
       cx="0"
       style="fill:none" /><path
       class="fil2"
       d="m -2307,14010 293,188 c 137,87 176,104 225,96 48,-8 83,-44 151,-149 42,-66 57,-94 66,-128 12,-46 0,-86 -35,-120 -30,-29 -44,-39 -147,-105 l -293,-187 -260,405 z m 188,-25 129,-201 171,110 c 75,48 90,61 93,84 4,21 -6,46 -38,96 -59,92 -71,93 -183,21 l -172,-110 z m 738,419 c -17,25 -34,24 -107,-9 -42,-19 -66,-35 -74,-49 -7,-14 -5,-26 9,-57 l 304,137 c 7,-13 13,-27 15,-31 33,-73 38,-114 18,-150 -19,-34 -53,-56 -155,-103 -101,-45 -143,-56 -183,-49 -43,8 -67,36 -105,119 -35,79 -40,114 -20,151 18,34 58,61 148,102 166,75 218,73 266,-9 l -116,-52 z m -143,-179 c 21,-43 44,-45 122,-9 45,20 68,36 73,52 4,10 3,17 -8,42 l -187,-85 z m 583,72 c -112,-31 -162,-37 -199,-24 -39,15 -58,44 -80,120 -27,95 -28,128 -5,162 24,34 65,53 186,88 120,34 165,39 203,22 37,-16 54,-45 80,-135 23,-82 22,-115 -4,-149 -24,-31 -70,-52 -181,-84 z m -26,93 c 36,10 65,22 78,33 19,15 21,34 9,77 -20,70 -40,77 -133,50 -40,-11 -67,-23 -81,-35 -18,-15 -19,-31 -7,-74 20,-70 41,-78 134,-51 z m 386,-128 201,499 224,17 271,-463 -160,-12 -200,346 -28,-2 -147,-373 -161,-12 z m 682,173 9,342 128,-3 -9,-342 -128,3 z m -3,-140 2,96 128,-3 -3,-96 -127,3 z m 155,138 43,339 126,-17 -17,-135 c -8,-62 -7,-78 7,-97 13,-18 37,-27 84,-33 46,-6 72,-4 87,8 16,11 19,23 26,77 l 20,154 127,-16 -20,-154 c -12,-93 -22,-118 -56,-146 -34,-27 -78,-33 -158,-23 -82,10 -119,32 -137,78 l -6,1 -7,-52 -119,16 z m 879,-327 -123,35 51,179 -5,1 c -35,-35 -67,-38 -154,-13 -84,24 -117,39 -141,67 -29,33 -31,76 -7,160 23,81 41,113 75,130 36,17 82,14 170,-11 89,-25 119,-46 131,-92 l 7,-2 12,43 116,-33 -132,-464 z m -164,283 c 88,-25 108,-17 127,51 11,39 10,58 -2,72 -12,13 -44,27 -87,40 -92,26 -110,19 -130,-54 -19,-65 -5,-82 92,-109 z m 223,-163 125,318 119,-47 -125,-318 -119,47 z m -52,-131 36,90 119,-47 -36,-89 -119,46 z m 582,115 c 13,38 -2,58 -68,91 -31,16 -58,26 -75,26 -23,2 -38,-11 -58,-49 -20,-40 -24,-63 -11,-79 10,-13 34,-30 66,-46 66,-34 95,-34 117,-2 l 116,-59 c -32,-56 -52,-75 -86,-82 -41,-9 -91,6 -191,57 -102,53 -139,81 -156,119 -15,36 -8,73 30,146 41,80 67,108 107,114 42,6 84,-8 177,-55 120,-62 153,-89 167,-133 10,-30 5,-55 -19,-107 l -116,59 z m 423,-232 c 13,28 4,42 -62,89 -37,26 -63,39 -79,38 -16,0 -25,-7 -45,-36 l 271,-193 c -7,-12 -17,-25 -19,-29 -47,-65 -79,-90 -120,-91 -39,0 -76,18 -167,83 -90,64 -121,95 -135,133 -14,41 -3,75 50,150 50,70 78,93 120,94 39,1 82,-19 163,-77 149,-106 174,-152 126,-234 l -103,73 z m -227,34 c -27,-40 -16,-60 54,-110 40,-29 65,-40 82,-37 11,2 16,7 32,28 l -168,119 z"
       id="path4575"
       inkscape:connector-curvature="0"
       style="fill:#ffffff;fill-rule:nonzero" /><circle
       class="fil3"
       cy="11000"
       r="3110"
       id="circle4577"
       cx="0"
       style="fill:#ffffff" /><polygon
       class="fil4"
       points="536,9489 1364,8927 803,9755 1782,9553 947,10103 1772,10291 947,10480 1782,11030 803,10828 1364,11655 536,11094 738,12074 188,11238 0,12220 -188,11238 -738,12074 -536,11094 -1364,11655 -803,10828 -1782,11030 -947,10480 -1772,10291 -947,10103 -1782,9553 -803,9755 -1364,8927 -536,9489 -738,8509 -188,9345 0,8520 188,9345 738,8509 "
       id="polygon4579"
       style="fill:#000000" /><polygon
       class="fil5"
       points="354,8362 354,9937 1929,9937 1929,10646 354,10646 354,13795 -354,13795 -354,10646 -1929,10646 -1929,9937 -354,9937 -354,8362 "
       id="polygon4581"
       style="fill:#f43018" /><polygon
       class="fil6"
       points="197,8520 197,10094 1772,10094 1772,10488 197,10488 197,13638 -197,13638 -197,10488 -1772,10488 -1772,10094 -197,10094 -197,8520 "
       id="polygon4583"
       style="fill:#000000" /><circle
       class="fil1"
       cy="11000"
       r="3307"
       id="circle4585"
       cx="0"
       style="fill:none" /><path
       class="fil2"
       d="m -3229,11727 -20,-111 -89,16 -26,-140 c -14,-81 -21,-106 -35,-129 -24,-39 -58,-47 -137,-32 -95,17 -120,42 -117,116 1,19 2,30 14,96 l 45,250 365,-66 z m -201,-79 -93,17 -25,-139 c -8,-50 -8,-51 -6,-59 3,-15 12,-21 38,-25 26,-5 37,-3 45,7 6,8 7,10 16,61 l 25,138 z"
       id="path4587"
       inkscape:connector-curvature="0"
       style="fill:#ffffff;fill-rule:nonzero" /><path
       id="1"
       class="fil2"
       d="m -3313,10874 -4,-129 -364,206 5,175 377,184 -4,-128 -64,-30 -8,-245 62,-33 z m -142,75 6,166 -143,-67 -1,-23 138,-76 z"
       inkscape:connector-curvature="0"
       style="fill:#ffffff;fill-rule:nonzero" /><polygon
       id="2"
       class="fil2"
       points="-3286,10639 -3271,10522 -3544,10486 -3523,10322 -3616,10310 -3675,10754 -3582,10766 -3560,10603 "
       style="fill:#ffffff;fill-rule:nonzero" /><polygon
       id="3"
       class="fil2"
       points="-3221,9910 -3303,10200 -3360,10184 -3283,9911 -3361,9889 -3438,10162 -3490,10147 -3409,9860 -3493,9836 -3604,10231 -3248,10331 -3136,9935 "
       style="fill:#ffffff;fill-rule:nonzero" /><path
       id="4"
       class="fil2"
       d="m -3131,9898 47,-103 -85,-39 67,-145 c 19,-42 24,-49 35,-53 13,-4 26,0 63,17 l 18,8 47,-100 -32,-15 c -76,-38 -96,-36 -126,14 7,-23 7,-34 4,-48 -7,-23 -23,-37 -72,-60 -58,-26 -84,-29 -112,-11 -23,16 -23,16 -76,132 l -114,248 336,155 z m -122,-181 -83,-38 67,-144 c 22,-47 23,-48 30,-54 9,-8 20,-7 42,3 22,10 31,17 32,29 1,9 1,9 -22,60 l -66,144 z"
       inkscape:connector-curvature="0"
       style="fill:#ffffff;fill-rule:nonzero" /><path
       id="5"
       class="fil2"
       d="m -3038,9385 15,10 c 44,28 68,32 96,17 27,-14 56,-50 115,-144 61,-96 83,-137 87,-161 7,-38 -12,-67 -65,-101 -45,-28 -72,-33 -100,-19 -24,12 -40,32 -107,131 -45,67 -62,90 -70,97 -8,7 -17,8 -28,1 -23,-15 -21,-23 30,-103 45,-72 53,-82 64,-85 8,-3 13,-1 29,8 l 58,-92 c -6,-4 -12,-8 -14,-10 -39,-24 -64,-28 -90,-16 -27,14 -52,44 -107,131 -72,113 -86,142 -89,175 -2,30 20,59 66,88 32,20 55,27 77,24 25,-4 45,-22 76,-66 6,-10 27,-41 51,-74 23,-32 44,-63 50,-73 20,-30 29,-35 48,-23 13,9 18,16 17,25 -2,12 -8,23 -54,95 -43,67 -50,77 -61,82 -10,5 -17,3 -36,-9 l -58,92 z"
       inkscape:connector-curvature="0"
       style="fill:#ffffff;fill-rule:nonzero" /><polygon
       id="6"
       class="fil2"
       points="-2572,8660 -2726,8836 -2669,8886 -2516,8709 "
       style="fill:#ffffff;fill-rule:nonzero" /><polygon
       id="7"
       class="fil2"
       points="-2080,8311 -2308,8508 -2346,8463 -2131,8277 -2185,8216 -2399,8401 -2435,8360 -2208,8165 -2265,8099 -2576,8367 -2334,8647 -2022,8378 "
       style="fill:#ffffff;fill-rule:nonzero" /><path
       id="8"
       class="fil2"
       d="m -1575,7997 -53,5 c -10,-19 -23,-41 -42,-72 -58,-92 -84,-118 -120,-122 -36,-3 -68,13 -198,94 -130,82 -158,105 -170,138 -13,34 0,70 57,160 56,89 83,117 119,120 35,2 68,-13 194,-93 137,-86 162,-106 175,-143 l 44,3 -6,-90 z m -316,10 4,90 134,-10 c -14,12 -32,25 -78,54 -83,52 -99,60 -117,58 -17,-1 -28,-13 -53,-51 -25,-41 -35,-61 -35,-76 -1,-22 8,-30 99,-88 88,-55 100,-61 119,-54 15,5 29,22 57,67 1,2 3,5 6,10 l -136,0 z"
       inkscape:connector-curvature="0"
       style="fill:#ffffff;fill-rule:nonzero" /><path
       id="9"
       class="fil2"
       d="m -1682,7725 71,155 c 26,56 26,56 33,69 24,45 39,63 63,72 37,15 82,3 209,-55 77,-35 112,-54 139,-74 35,-25 48,-64 36,-105 -8,-25 -10,-31 -43,-108 l -71,-155 -103,47 71,155 c 4,8 11,25 17,38 11,30 13,40 9,53 -6,17 -26,30 -96,62 -87,40 -110,43 -127,19 -9,-12 -9,-13 -35,-65 l -71,-155 -102,47 z"
       inkscape:connector-curvature="0"
       style="fill:#ffffff;fill-rule:nonzero" /><polygon
       id="10"
       class="fil2"
       points="-1023,7468 -1137,7500 -1037,7857 -923,7825 "
       style="fill:#ffffff;fill-rule:nonzero" /><polygon
       id="11"
       class="fil2"
       points="-738,7777 -623,7751 -685,7482 -524,7445 -545,7353 -982,7453 -961,7545 -800,7508 "
       style="fill:#ffffff;fill-rule:nonzero" /><polygon
       id="12"
       class="fil2"
       points="-31,7595 -331,7620 -336,7561 -53,7538 -60,7457 -342,7480 -347,7426 -49,7402 -56,7315 -465,7348 -435,7717 -24,7684 "
       style="fill:#ffffff;fill-rule:nonzero" /><path
       id="13"
       class="fil2"
       d="m 10,7562 -2,18 c -4,52 3,75 29,93 26,17 71,26 181,35 114,9 160,10 183,2 37,-11 55,-41 60,-104 4,-53 -4,-79 -30,-97 -22,-16 -46,-21 -165,-34 -81,-9 -109,-13 -119,-17 -10,-4 -15,-12 -14,-25 3,-27 11,-29 105,-21 85,7 98,9 106,17 6,6 7,11 6,30 l 108,9 c 1,-7 2,-15 2,-17 4,-46 -4,-70 -27,-87 -25,-18 -63,-26 -166,-35 -134,-11 -166,-10 -196,3 -27,12 -43,44 -47,99 -3,37 1,62 14,79 15,21 40,30 94,37 11,0 49,5 89,11 39,5 76,9 88,10 36,4 44,10 42,32 -1,16 -5,24 -14,27 -11,4 -24,3 -109,-4 -79,-7 -91,-9 -101,-16 -9,-6 -10,-14 -8,-36 l -109,-9 z"
       inkscape:connector-curvature="0"
       style="fill:#ffffff;fill-rule:nonzero" /><path
       id="14"
       class="fil2"
       d="m 627,7751 110,25 20,-88 139,32 c 80,19 106,22 132,19 45,-7 66,-35 84,-114 22,-94 9,-127 -61,-153 -17,-7 -28,-10 -93,-25 l -247,-57 -84,361 z m 151,-153 22,-92 137,32 c 49,11 50,12 57,17 12,8 14,19 8,45 -5,25 -12,35 -24,38 -10,3 -12,3 -62,-8 l -138,-32 z"
       inkscape:connector-curvature="0"
       style="fill:#ffffff;fill-rule:nonzero" /><path
       id="15"
       class="fil2"
       d="m 1439,8025 116,53 -21,-417 -159,-74 -333,255 117,54 55,-44 222,102 3,71 z m -5,-161 -150,-69 124,-98 20,9 6,158 z"
       inkscape:connector-curvature="0"
       style="fill:#ffffff;fill-rule:nonzero" /><polygon
       id="16"
       class="fil2"
       points="1816,7908 1826,7914 1843,8252 2009,8357 2207,8044 2110,7982 1965,8217 1955,8211 1939,7874 1772,7768 1573,8081 1670,8142 "
       style="fill:#ffffff;fill-rule:nonzero" /><path
       id="17"
       class="fil2"
       d="m 2490,8284 c -112,-105 -141,-127 -176,-131 -35,-3 -68,19 -139,94 -74,78 -93,111 -88,147 6,34 29,62 141,168 111,105 141,126 176,130 35,4 67,-17 140,-95 73,-77 92,-110 86,-145 -6,-35 -29,-62 -140,-168 z m -66,70 c 75,71 84,82 81,101 -2,16 -14,34 -50,73 -31,32 -45,41 -61,40 -18,-2 -34,-14 -100,-75 -66,-63 -79,-79 -82,-97 -3,-16 5,-30 37,-63 34,-36 49,-49 64,-54 22,-6 31,0 111,75 z"
       inkscape:connector-curvature="0"
       style="fill:#ffffff;fill-rule:nonzero" /><path
       id="18"
       class="fil2"
       d="m 2778,8952 c -43,34 -45,33 -121,-64 -74,-94 -74,-96 0,-154 44,-35 64,-45 81,-41 14,3 29,18 72,73 16,20 36,47 46,61 14,21 17,29 15,37 -2,7 -5,11 -22,25 l 70,89 15,-12 c 47,-38 61,-64 53,-101 -6,-27 -25,-57 -84,-131 -118,-150 -151,-177 -201,-164 -22,6 -48,23 -115,75 -33,27 -58,47 -70,58 -30,30 -39,53 -34,83 7,33 33,73 120,184 53,66 81,96 108,113 34,22 65,17 111,-19 4,-4 10,-9 26,-23 l -70,-89 z"
       inkscape:connector-curvature="0"
       style="fill:#ffffff;fill-rule:nonzero" /><polygon
       id="19"
       class="fil2"
       points="3040,9478 2891,9216 2942,9187 3082,9434 3153,9393 3013,9147 3060,9120 3208,9380 3283,9336 3080,8980 2758,9164 2963,9522 "
       style="fill:#ffffff;fill-rule:nonzero" /><path
       id="20"
       class="fil2"
       d="m 3128,9927 46,120 276,-314 -63,-164 -416,-50 46,120 70,7 88,229 -47,52 z m 108,-118 -59,-155 157,17 8,21 -106,117 z"
       inkscape:connector-curvature="0"
       style="fill:#ffffff;fill-rule:nonzero" /><polygon
       id="21"
       class="fil2"
       points="3472,10111 3474,10123 3249,10375 3293,10566 3654,10483 3628,10371 3360,10435 3357,10424 3583,10173 3539,9981 3178,10063 3203,10175 "
       style="fill:#ffffff;fill-rule:nonzero" /><polygon
       id="22"
       class="fil2"
       points="3666,10708 3656,10590 3287,10620 3297,10738 "
       style="fill:#ffffff;fill-rule:nonzero" /><path
       id="23"
       class="fil2"
       d="m 3299,11191 -5,128 377,-181 6,-175 -364,-209 -4,129 62,34 -9,244 -63,30 z m 146,-66 5,-166 138,77 0,22 -143,67 z"
       inkscape:connector-curvature="0"
       style="fill:#ffffff;fill-rule:nonzero" /><polygon
       id="24"
       class="fil2"
       points="3312,11758 3366,11462 3424,11473 3373,11752 3454,11767 3504,11487 3557,11497 3504,11791 3590,11807 3663,11403 3299,11337 3225,11742 "
       style="fill:#ffffff;fill-rule:nonzero" /></g></svg>