<?xml version="1.0" encoding="UTF-8" standalone="no"?>
<!-- Creator: CorelDRAW X7 -->

<svg
   xmlns:dc="http://purl.org/dc/elements/1.1/"
   xmlns:cc="http://creativecommons.org/ns#"
   xmlns:rdf="http://www.w3.org/1999/02/22-rdf-syntax-ns#"
   xmlns:svg="http://www.w3.org/2000/svg"
   xmlns="http://www.w3.org/2000/svg"
   xmlns:sodipodi="http://sodipodi.sourceforge.net/DTD/sodipodi-0.dtd"
   xmlns:inkscape="http://www.inkscape.org/namespaces/inkscape"
   xml:space="preserve"
   width="7.8740005in"
   height="7.8740005in"
   version="1.1"
   style="clip-rule:evenodd;fill-rule:evenodd;image-rendering:optimizeQuality;shape-rendering:geometricPrecision;text-rendering:geometricPrecision"
   viewBox="0 0 7874.0005 7874.0005"
   id="svg4016"
   inkscape:version="0.91 r13725"
   sodipodi:docname="PanOceania - Guarda de Assalto - [N3] [Vyo].svg"><metadata
     id="metadata4144"><rdf:RDF><cc:Work
         rdf:about=""><dc:format>image/svg+xml</dc:format><dc:type
           rdf:resource="http://purl.org/dc/dcmitype/StillImage" /></cc:Work></rdf:RDF></metadata><sodipodi:namedview
     pagecolor="#ffffff"
     bordercolor="#666666"
     borderopacity="1"
     objecttolerance="10"
     gridtolerance="10"
     guidetolerance="10"
     inkscape:pageopacity="0"
     inkscape:pageshadow="2"
     inkscape:window-width="640"
     inkscape:window-height="480"
     id="namedview4142"
     showgrid="false"
     inkscape:zoom="0.23838384"
     inkscape:cx="736.83001"
     inkscape:cy="849.33005"
     inkscape:window-x="0"
     inkscape:window-y="0"
     inkscape:window-maximized="0"
     inkscape:current-layer="svg4016" /><defs
     id="defs4018"><style
       type="text/css"
       id="style4020"><![CDATA[
    .fil4 {fill:none}
    .fil0 {fill:#009FE1}
    .fil5 {fill:#A0D211}
    .fil1 {fill:white}
    .fil2 {fill:white}
    .fil3 {fill:#A0D211;fill-rule:nonzero}
   ]]></style></defs><g
     id="Layer_x0020_1"
     transform="translate(3937,-7063)"><metadata
       id="CorelCorpID_0Corel-Layer" /><circle
       class="fil0"
       cy="11000"
       r="3937"
       id="circle4024"
       cx="0"
       style="fill:#009fe1" /><circle
       class="fil1"
       cy="11000"
       r="3858"
       id="circle4026"
       cx="0"
       style="fill:#ffffff" /><circle
       class="fil0"
       cy="11000"
       r="3386"
       id="circle4028"
       cx="0"
       style="fill:#009fe1" /><g
       id="_1133886624"><path
         class="fil2"
         d="m 2753,8743 c 21,-4 43,-4 66,4 58,21 103,86 137,134 21,30 45,63 61,96 12,24 20,48 19,75 -1,63 -49,104 -97,138 -5,4 -11,8 -17,12 l 1,1 -30,17 -12,8 -1,0 c -24,13 -51,23 -80,21 -34,-2 -63,-20 -88,-43 -32,-30 -61,-69 -86,-104 -33,-46 -77,-108 -75,-168 0,-9 1,-18 3,-26 l 0,0 c -64,4 -111,-41 -152,-84 -36,-39 -76,-81 -76,-137 1,-18 4,-33 11,-47 -7,3 -14,5 -22,7 l -1,0 0,0 c -64,11 -115,-30 -161,-69 -39,-34 -83,-72 -89,-128 -1,-20 2,-36 8,-52 l -48,61 -150,-120 5,-6 -123,-70 90,-157 c 4,-7 15,-26 18,-35 -2,-6 -24,-19 -28,-22 -7,-4 -29,-15 -36,-13 -10,3 -28,36 -33,44 l -81,142 -167,-95 90,-157 c 4,-6 15,-26 18,-35 -4,-7 -21,-17 -27,-21 -7,-4 -31,-16 -38,-14 -9,2 -28,37 -32,44 l -82,143 -125,-72 -4,11 -179,-69 22,-58 c -3,2 -6,3 -9,5 -5,2 -10,5 -16,7 -29,10 -58,9 -88,4 -46,-7 -95,-21 -139,-35 l -333,-97 142,-484 332,97 c 54,16 109,29 159,56 47,25 75,65 80,117 l 32,-83 179,69 -63,163 33,-57 161,92 -3,5 c 29,4 57,17 83,32 45,26 82,57 98,100 45,-9 90,7 135,33 49,28 94,63 108,121 7,26 6,49 0,71 l 136,-170 150,120 -76,95 2,2 46,-53 145,125 -45,53 135,117 -3,3 12,13 51,-48 132,140 -51,48 123,129 -57,54 z m -78,37 -104,-111 -35,34 c -4,3 -11,9 -15,14 1,2 2,3 3,4 1,1 3,3 4,4 2,-1 3,-2 4,-3 l 37,-35 95,100 c 4,-2 8,-5 11,-7 z m -273,-289 -96,-83 -32,37 c -3,4 -9,10 -13,16 1,1 3,2 4,3 1,1 3,3 4,4 1,-1 3,-3 3,-4 l 34,-38 127,109 6,-5 -37,-39 z m -2652,-1030 2,-94 185,3 0,6 c 28,-10 59,-13 89,-12 51,1 99,10 134,40 34,-29 82,-36 133,-36 57,1 114,11 154,54 42,47 41,98 40,158 l -3,180 -192,-3 3,-180 c 0,-8 1,-30 -1,-40 -5,-4 -30,-5 -36,-5 -7,-1 -32,0 -38,5 -7,8 -7,45 -7,55 l -3,164 -192,-4 4,-180 c 0,-8 1,-31 -1,-40 -7,-4 -27,-5 -34,-5 -8,0 -35,0 -41,5 -6,7 -6,47 -6,55 l -3,164 -141,-3 0,2 -186,25 0,-2 c -35,16 -91,22 -126,27 -44,6 -83,7 -115,-4 l 2,4 -178,52 -2,-5 c -25,18 -56,29 -88,39 -56,16 -115,27 -168,-2 l 64,141 -175,79 -53,-117 c -21,20 -49,33 -81,48 -48,22 -107,48 -162,38 l 6,8 -161,104 -98,-151 c -5,-7 -16,-25 -23,-33 -7,-1 -28,13 -33,16 -6,4 -27,18 -28,25 -2,11 19,42 24,50 l 89,137 -161,105 -98,-152 c -4,-7 -16,-26 -23,-33 -7,1 -25,11 -31,15 -7,5 -28,20 -30,27 -2,9 20,43 25,49 l 89,138 -120,77 5,5 -135,128 -3,-4 c -14,28 -37,53 -61,75 -42,40 -91,78 -153,76 -1,0 -3,0 -4,-1 l 28,23 -176,224 -307,-15 199,153 -130,166 -398,-311 177,-226 305,16 -198,-152 130,-167 150,117 -41,-43 140,-131 121,128 c 5,5 25,26 31,28 0,0 1,0 1,0 7,0 32,-23 37,-28 6,-6 29,-28 30,-38 1,-10 -28,-39 -34,-46 l -110,-116 139,-132 71,75 -62,-97 155,-100 3,4 c 18,-23 42,-43 67,-59 44,-28 88,-46 135,-41 12,-44 47,-77 90,-104 48,-31 100,-55 158,-41 26,6 46,18 63,33 -3,-22 -2,-44 5,-64 21,-60 93,-93 146,-117 33,-15 63,-28 93,-30 l -1,-3 169,-77 11,25 -5,-18 184,-53 49,170 c 2,6 10,34 15,38 0,1 0,1 1,1 6,4 39,-6 45,-8 9,-2 39,-11 45,-20 5,-9 -7,-47 -10,-56 l -44,-154 184,-54 28,98 c 4,-37 20,-65 55,-89 42,-31 134,-43 185,-50 47,-6 113,-18 157,3 8,4 16,9 23,15 l 0,0 1,0 c 17,15 28,31 36,50 z m -1176,376 c 0,8 9,28 11,34 2,4 7,15 11,20 l 0,0 c 12,1 45,-14 56,-18 8,-4 44,-21 51,-29 0,-7 -7,-23 -10,-28 -2,-5 -9,-21 -14,-25 -11,-1 -48,15 -57,19 -8,4 -42,19 -48,27 z m 2254,-176 135,40 c 12,3 69,21 81,17 7,-7 18,-45 20,-54 3,-9 16,-53 11,-63 l 0,0 c 0,0 0,0 0,-1 -9,-7 -65,-23 -76,-26 l -134,-39 -37,126 z"
         id="path4031"
         inkscape:connector-curvature="0"
         style="fill:#ffffff" /></g><polygon
       class="fil3"
       points="-2959,8932 -2950,8921 -2562,8941 -2423,8764 -2758,8501 -2839,8605 -2588,8798 -2596,8809 -2983,8788 -3124,8967 -2789,9230 -2707,9126 "
       id="polygon4033"
       style="fill:#a0d211;fill-rule:nonzero" /><path
       id="1"
       class="fil3"
       d="m -2098,8457 -209,-218 -82,78 84,88 c 39,40 47,54 46,76 -2,18 -14,36 -43,63 -30,29 -46,40 -64,39 -17,0 -29,-8 -60,-39 l -95,-100 -82,78 96,100 c 57,59 77,72 116,73 39,1 74,-17 124,-65 55,-53 71,-89 56,-128 l 4,-4 32,33 77,-74 z"
       inkscape:connector-curvature="0"
       style="fill:#a0d211;fill-rule:nonzero" /><path
       id="2"
       class="fil3"
       d="m -2238,8174 163,254 95,-61 -67,-105 c -27,-42 -34,-60 -31,-78 4,-17 20,-35 48,-53 27,-17 48,-23 62,-20 15,4 21,10 47,50 l 76,119 95,-62 -67,-104 c -27,-42 -34,-59 -30,-77 3,-18 18,-35 46,-53 27,-18 46,-24 62,-20 15,3 19,7 47,49 l 77,119 95,-62 -77,-118 c -42,-66 -60,-83 -97,-92 -37,-9 -75,2 -127,35 -62,41 -83,76 -75,124 -45,-24 -89,-18 -150,21 -55,36 -79,71 -73,111 l -5,3 -25,-38 -89,58 z"
       inkscape:connector-curvature="0"
       style="fill:#a0d211;fill-rule:nonzero" /><path
       id="3"
       class="fil3"
       d="m -1054,8003 -178,-389 -97,45 17,37 -5,2 c -39,-25 -67,-23 -140,10 -139,64 -155,100 -97,226 28,62 49,87 79,97 33,11 71,3 149,-33 69,-32 89,-51 96,-95 l 5,-3 68,150 103,-47 z m -342,-229 c 79,-36 98,-33 124,24 26,58 17,74 -61,110 -35,16 -61,23 -77,21 -18,-1 -27,-11 -42,-42 -28,-63 -21,-78 56,-113 z"
       inkscape:connector-curvature="0"
       style="fill:#a0d211;fill-rule:nonzero" /><path
       id="4"
       class="fil3"
       d="m -678,7773 -85,-290 -108,31 34,117 c 15,54 16,70 5,88 -10,16 -29,26 -68,37 -40,12 -59,13 -75,4 -15,-8 -21,-20 -34,-62 l -38,-133 -109,32 39,132 c 23,80 35,100 69,119 33,19 73,19 140,-1 73,-21 103,-45 109,-86 l 6,-2 12,43 103,-29 z"
       inkscape:connector-curvature="0"
       style="fill:#a0d211;fill-rule:nonzero" /><path
       id="5"
       class="fil3"
       d="m -555,7549 c 0,-27 8,-31 89,-41 67,-9 77,-4 83,43 l 2,16 -5,1 c -20,-17 -36,-20 -88,-13 -80,10 -112,16 -138,27 -42,17 -58,50 -51,103 9,71 43,90 142,77 74,-10 102,-16 120,-26 19,-12 29,-23 35,-44 l 5,0 5,41 108,-14 -23,-180 c -7,-55 -16,-77 -38,-94 -29,-23 -52,-24 -150,-12 -93,12 -145,25 -168,42 -32,22 -42,45 -40,89 l 112,-15 z m 85,70 c 48,-6 67,-8 74,-6 13,3 20,11 22,23 3,26 -19,37 -97,47 -60,7 -78,3 -81,-21 -2,-12 3,-21 13,-27 8,-6 33,-11 69,-16 z"
       inkscape:connector-curvature="0"
       style="fill:#a0d211;fill-rule:nonzero" /><path
       id="6"
       class="fil3"
       d="m -209,7407 -6,302 113,2 3,-124 c 0,-50 5,-69 18,-82 12,-12 36,-18 69,-17 32,0 52,7 62,18 11,11 12,20 11,67 l -3,141 113,2 3,-124 c 1,-49 5,-67 18,-81 12,-13 34,-19 67,-18 34,1 53,6 64,18 11,11 12,17 11,67 l -2,141 113,3 2,-142 c 2,-77 -3,-102 -29,-130 -26,-28 -63,-40 -125,-41 -74,-2 -111,16 -131,61 -24,-46 -64,-65 -137,-66 -66,-2 -105,14 -123,50 l -5,0 1,-45 -107,-2 z"
       inkscape:connector-curvature="0"
       style="fill:#a0d211;fill-rule:nonzero" /><path
       id="7"
       class="fil3"
       d="m 626,7757 294,88 c 138,41 175,46 215,27 38,-18 60,-57 92,-164 20,-66 25,-93 25,-124 -1,-42 -21,-73 -59,-93 -33,-18 -47,-23 -151,-54 l -294,-88 -122,408 z m 153,-68 61,-202 172,52 c 76,23 91,30 100,49 8,17 5,41 -10,91 -27,92 -37,96 -150,62 l -173,-52 z"
       inkscape:connector-curvature="0"
       style="fill:#a0d211;fill-rule:nonzero" /><path
       id="8"
       class="fil3"
       d="m 1300,7653 -109,282 105,41 110,-282 -106,-41 z m 45,-116 -31,80 106,40 30,-79 -105,-41 z"
       inkscape:connector-curvature="0"
       style="fill:#a0d211;fill-rule:nonzero" /><path
       id="9"
       class="fil3"
       d="m 1484,7714 -149,263 99,55 61,-108 c 25,-43 37,-57 55,-63 16,-4 40,2 69,18 28,16 43,31 46,45 4,16 1,24 -22,65 l -70,122 99,56 61,-108 c 24,-43 36,-57 54,-62 17,-6 39,0 68,16 29,16 43,30 48,46 4,15 2,20 -22,65 l -70,122 98,56 70,-123 c 38,-68 45,-91 36,-128 -9,-37 -36,-66 -90,-96 -65,-37 -106,-39 -145,-9 1,-51 -25,-88 -88,-123 -58,-33 -100,-38 -132,-14 l -5,-3 22,-40 -93,-52 z"
       inkscape:connector-curvature="0"
       style="fill:#a0d211;fill-rule:nonzero" /><path
       id="10"
       class="fil3"
       d="m 2117,8096 -188,237 89,70 187,-237 -88,-70 z m 76,-97 -52,66 88,70 53,-66 -89,-70 z"
       inkscape:connector-curvature="0"
       style="fill:#a0d211;fill-rule:nonzero" /><path
       id="11"
       class="fil3"
       d="m 2314,8164 -45,52 -45,-38 -53,61 45,39 -57,67 c -26,30 -26,30 -31,37 -20,26 -26,42 -24,64 3,31 21,55 76,102 59,51 92,65 127,59 28,-6 43,-17 82,-60 l -79,-67 -8,9 c -23,27 -35,28 -63,4 -17,-14 -23,-25 -20,-37 2,-9 5,-13 25,-37 l 58,-67 135,116 53,-62 -135,-116 45,-53 -86,-73 z"
       inkscape:connector-curvature="0"
       style="fill:#a0d211;fill-rule:nonzero" /><path
       id="12"
       class="fil3"
       d="m 2603,8426 -51,48 -41,-43 -58,56 41,43 -64,61 c -28,27 -28,27 -34,34 -22,24 -30,39 -30,62 0,31 16,56 66,108 54,57 85,74 121,72 28,-3 44,-13 87,-52 l -72,-75 -9,9 c -25,25 -38,24 -63,-2 -15,-17 -20,-28 -16,-40 3,-8 6,-12 29,-34 l 63,-61 124,129 59,-56 -124,-129 50,-49 -78,-81 z"
       inkscape:connector-curvature="0"
       style="fill:#a0d211;fill-rule:nonzero" /><path
       id="13"
       class="fil3"
       d="m 2802,9097 c -25,12 -37,4 -79,-54 -24,-32 -35,-55 -34,-69 0,-14 6,-23 31,-41 l 173,239 c 11,-7 22,-15 25,-17 58,-42 79,-71 80,-107 0,-34 -16,-67 -74,-147 -57,-79 -85,-106 -119,-118 -36,-13 -67,-2 -132,45 -62,45 -82,70 -83,107 0,34 18,72 69,143 95,131 136,153 209,110 l -66,-91 z m -32,-200 c 35,-24 53,-15 98,47 26,36 36,57 33,72 -1,10 -5,14 -24,28 l -107,-147 z"
       inkscape:connector-curvature="0"
       style="fill:#a0d211;fill-rule:nonzero" /><circle
       class="fil4"
       cy="11000"
       r="3740"
       id="circle4048"
       cx="0"
       style="fill:none" /><g
       id="_1133877152"><path
         class="fil2"
         d="m 2598,12931 c 1,-10 4,-21 7,-31 7,-19 16,-36 26,-53 l 99,-154 c 10,-17 23,-32 37,-46 15,-15 33,-26 53,-34 22,-9 46,-10 70,-7 27,4 53,16 76,31 l 65,41 c 23,15 45,33 60,56 13,20 21,43 23,67 1,21 -1,42 -8,62 -7,19 -16,36 -27,53 l -98,154 c -11,17 -23,33 -37,46 -15,15 -33,27 -53,34 -16,6 -32,9 -48,9 3,10 4,20 4,31 0,48 -25,90 -55,125 l -32,37 c -14,16 -29,31 -46,44 -17,12 -36,22 -56,28 -22,6 -45,6 -67,0 -24,-7 -46,-20 -64,-36 l -3,-2 106,110 -129,123 2,4 -147,127 -1,-1 c -5,7 -11,14 -17,21 -9,10 -20,20 -31,29 l -63,55 c -29,25 -65,49 -103,54 -12,2 -24,1 -35,-1 -2,7 -4,14 -7,22 -10,21 -27,39 -45,55 -23,20 -49,38 -75,55 l -98,63 c -38,24 -90,53 -136,51 -12,0 -24,-2 -34,-6 -3,13 -8,25 -16,36 -13,20 -32,36 -51,48 -26,17 -55,31 -83,44 l -106,48 c -30,13 -67,28 -103,32 l 20,20 -239,68 -64,-67 -231,66 -18,90 -239,68 134,-601 222,-63 257,260 c -12,-16 -22,-34 -30,-51 -10,-22 -15,-46 -13,-70 3,-22 11,-42 26,-59 13,-16 28,-28 46,-39 18,-12 38,-22 59,-31 l 78,-35 c 31,-14 63,-28 96,-38 23,-7 49,-13 73,-10 7,0 13,1 20,3 3,-9 7,-18 12,-27 10,-17 24,-32 40,-45 16,-15 35,-28 53,-40 l 72,-46 c 29,-18 59,-37 90,-51 22,-11 47,-20 71,-21 8,-1 17,0 25,1 1,-5 2,-10 3,-15 7,-20 18,-38 32,-54 16,-19 35,-36 53,-52 l 108,-93 c 33,-29 74,-51 119,-50 2,0 4,0 7,0 l -124,-129 145,-139 40,41 111,-129 58,50 125,-144 9,8 z m 76,150 -83,96 57,49 c 2,-2 4,-4 5,-6 2,-2 5,-5 7,-8 l -46,-40 72,-83 -7,-4 c -2,-2 -4,-3 -5,-4 z m -1460,1134 9,9 2,-1 c -4,-2 -8,-5 -11,-8 z m -1255,22 c 13,-8 27,-13 42,-18 23,-6 48,-8 72,-9 l 86,-2 c 30,-1 62,0 92,5 26,4 51,12 72,27 22,14 38,35 48,59 11,26 14,56 15,84 l 2,96 c 1,24 -4,48 -16,70 -12,20 -29,35 -49,46 -20,10 -41,17 -62,21 -23,4 -47,6 -71,6 l -92,2 c -23,1 -47,0 -70,-4 -24,-4 -47,-12 -68,-25 -10,-7 -19,-15 -27,-23 l -4,54 -193,-15 1,-7 c -26,8 -55,8 -81,6 l -36,-2 c -33,-3 -69,-8 -101,-19 -25,-9 -49,-22 -67,-43 -15,-18 -25,-39 -29,-63 -4,-22 -4,-46 -2,-69 l 4,-59 c 2,-23 5,-46 12,-68 8,-23 21,-42 39,-58 21,-17 47,-27 73,-32 33,-6 69,-6 103,-3 l 36,3 c 15,1 30,3 45,7 9,2 17,5 26,9 l 11,-142 200,15 -11,151 z m -1082,-209 c 15,-1 31,0 46,3 24,4 48,12 71,20 l 135,46 c 41,14 81,38 103,78 22,39 20,83 5,125 l -82,239 -184,-63 0,-2 c -9,0 -17,-1 -26,-3 -14,-4 -28,-8 -41,-13 l -79,-27 c -36,-12 -75,-31 -99,-62 -1,-1 -2,-2 -3,-3 l -11,26 -177,-80 3,-6 c -27,-2 -54,-11 -78,-22 l -33,-15 c -30,-14 -62,-31 -88,-52 -20,-17 -39,-38 -48,-63 -9,-23 -11,-46 -7,-70 5,-22 13,-45 22,-65 l 4,-8 -96,-62 21,-33 c 2,-3 7,-13 9,-18 -4,-4 -11,-9 -14,-11 -7,-5 -19,-11 -28,-11 -3,1 -6,5 -7,7 l -118,185 -147,-93 -2,2 -153,-120 1,-2 c -8,-3 -16,-7 -24,-12 -12,-7 -23,-16 -34,-25 l -66,-51 c -30,-24 -61,-54 -73,-91 -1,-2 -2,-4 -2,-6 l -17,17 -140,-146 6,-5 c -27,-14 -52,-36 -73,-58 -17,-17 -33,-35 -47,-54 -14,-20 -25,-41 -32,-64 -8,-28 -7,-57 2,-85 0,0 0,-1 0,-1 -1,0 -3,1 -4,1 -29,5 -57,1 -83,-13 -24,-13 -45,-32 -63,-53 -24,-29 -47,-60 -69,-90 l -98,-139 c -19,-26 -36,-54 -49,-84 -11,-25 -18,-53 -18,-81 0,-30 9,-58 25,-83 17,-28 43,-51 70,-70 l 113,-80 c 26,-19 57,-36 89,-43 29,-7 58,-6 86,4 27,9 51,25 72,44 23,22 43,48 62,74 l 123,174 c 20,28 40,60 52,93 9,26 15,55 10,82 -4,25 -14,47 -31,66 -4,5 -9,10 -14,15 l 86,89 -164,157 c 0,0 -1,1 -1,1 1,9 18,28 23,34 l 19,20 c 8,8 20,19 32,20 9,1 16,-4 22,-10 l 147,-140 139,145 -1,1 c 8,4 17,8 25,13 21,12 42,27 61,42 l 112,88 c 28,22 53,50 65,84 l 11,-16 163,104 -5,7 c 27,6 53,18 76,32 36,23 70,55 81,97 20,-4 41,-3 61,0 33,5 67,19 98,32 l 33,15 c 14,7 27,14 40,23 7,5 14,10 21,17 l 59,-130 183,83 -58,129 z m -1739,-1124 130,-92 102,143 c 2,-1 5,-3 7,-5 -3,-9 -12,-23 -16,-28 l -89,-125 c -6,-10 -14,-20 -23,-28 -2,-1 -5,-4 -7,-4 -3,-1 -8,1 -11,2 -12,5 -24,14 -35,21 l -46,33 c -11,8 -23,17 -32,27 -1,1 -5,6 -6,8 0,3 1,7 2,9 4,10 12,22 18,31 l 6,8 z m 1347,1202 c 6,4 17,9 21,11 l 66,30 c 6,3 23,10 32,9 3,-2 7,-10 8,-13 l 13,-29 c 2,-4 5,-12 5,-16 -5,-6 -22,-15 -28,-18 l -66,-29 c -4,-3 -15,-7 -22,-9 -3,4 -6,11 -8,14 l -16,35 c -1,3 -4,10 -5,15 z m 1134,328 c 6,2 18,4 23,4 l 72,5 c 7,1 26,2 33,-2 2,-3 3,-12 3,-16 l 3,-31 c 0,-4 0,-13 -1,-17 -7,-4 -25,-6 -32,-7 l -72,-5 c -5,0 -17,-1 -24,0 -2,5 -2,12 -3,15 l -3,39 c 0,3 0,10 1,15 z m 1271,-243 -11,54 49,-14 -38,-40 z m 2027,-1346 c -3,-2 -6,-4 -8,-6 l -38,-24 c -2,-1 -6,-3 -9,-5 -3,2 -6,6 -7,8 -9,11 -18,24 -26,36 l -15,25 c -6,8 -18,28 -17,39 1,3 8,8 11,10 l 26,16 c 2,2 10,6 13,6 10,-4 23,-24 28,-32 l 16,-25 c 8,-11 16,-24 22,-37 1,-3 3,-7 4,-11 z"
         id="path4051"
         inkscape:connector-curvature="0"
         style="fill:#ffffff" /></g><path
       class="fil3"
       d="m -2990,12694 c -27,19 -47,39 -60,59 -12,20 -19,41 -19,62 0,21 5,43 15,66 10,23 25,48 45,76 l 99,139 c 27,38 49,67 66,87 17,20 34,35 52,45 17,9 36,12 57,8 20,-4 44,-15 70,-34 l 108,-76 -184,-260 -78,56 102,144 -11,7 c -9,7 -17,10 -25,11 -8,0 -15,-1 -22,-5 -7,-3 -13,-8 -19,-14 -6,-7 -12,-14 -18,-23 l -88,-123 c -11,-16 -18,-29 -23,-40 -4,-10 -5,-20 -3,-30 1,-9 7,-18 15,-28 8,-9 21,-20 38,-32 l 47,-33 c 16,-12 31,-20 42,-25 12,-5 22,-7 32,-5 9,1 18,6 27,13 9,8 19,20 29,35 l 89,125 c 15,21 23,38 24,51 1,13 -7,25 -24,38 l 80,113 12,-8 c 21,-15 37,-29 48,-42 12,-14 19,-30 22,-47 3,-18 1,-39 -8,-63 -9,-23 -24,-51 -47,-83 l -123,-175 c -20,-27 -39,-50 -57,-67 -18,-17 -37,-29 -57,-36 -20,-7 -42,-8 -65,-3 -23,6 -49,18 -76,37 l -112,80 z m 786,712 -85,-89 -118,114 c -17,16 -35,23 -54,20 -18,-2 -37,-13 -55,-32 l -20,-20 c -36,-38 -43,-68 -20,-90 l 135,-130 -84,-88 -136,129 c -24,23 -39,45 -46,67 -6,22 -7,42 -1,61 6,20 14,37 26,52 11,16 26,32 43,51 24,25 47,42 67,52 21,9 42,10 65,2 l 1,1 -38,36 85,89 235,-225 z m -159,181 c -22,28 -29,53 -21,76 8,23 28,47 60,73 l 66,51 c 12,10 23,18 31,23 9,5 17,9 24,11 8,2 16,3 24,3 9,0 19,-1 32,-3 l -23,29 92,72 132,-169 c 23,-30 33,-59 28,-88 -5,-30 -24,-57 -58,-83 l -112,-88 c -21,-17 -40,-30 -56,-39 -15,-9 -30,-15 -44,-16 -13,-2 -27,1 -39,8 -13,8 -26,20 -40,37 l 94,73 c 7,-8 14,-12 21,-10 7,1 17,7 32,19 l 57,45 c 18,14 29,26 31,35 2,10 -2,21 -13,34 l -17,23 c -2,-16 -9,-31 -21,-44 -13,-14 -34,-32 -64,-56 -27,-21 -49,-37 -66,-49 -18,-11 -34,-19 -49,-23 -15,-5 -30,-4 -44,1 -13,6 -27,17 -40,34 l -17,21 z m 134,126 c -18,-15 -30,-27 -35,-36 -5,-10 -4,-19 3,-27 8,-11 18,-16 28,-16 10,1 25,9 45,24 l 42,34 c 25,20 40,34 44,43 5,9 3,19 -5,29 -4,5 -8,9 -12,10 -4,2 -9,3 -16,1 -7,-1 -15,-5 -26,-12 -10,-6 -24,-16 -40,-28 l -28,-22 z m 190,235 104,66 96,-152 c 11,-16 23,-24 39,-25 16,-1 33,5 51,17 20,13 31,25 32,37 2,12 -3,28 -15,46 l 89,57 c 1,-1 3,-3 4,-5 6,-8 10,-14 13,-18 24,-38 34,-71 28,-98 -5,-28 -27,-54 -64,-77 -26,-17 -51,-27 -74,-29 -23,-3 -44,4 -63,21 l -1,-1 33,-52 -96,-62 -176,275 z m 509,92 c 9,-19 19,-31 29,-35 11,-5 29,-2 54,10 l 65,29 c 24,11 40,23 47,35 7,13 6,29 -4,51 l -13,29 c -10,21 -22,33 -36,36 -14,3 -33,-1 -56,-12 l -66,-30 c -25,-11 -39,-22 -43,-34 -3,-11 -1,-26 8,-44 l 15,-35 z m -128,-5 c -9,21 -16,40 -19,57 -3,16 -1,32 5,48 6,16 18,31 36,47 19,15 45,31 80,46 l 32,15 c 33,15 59,21 80,18 21,-3 39,-12 55,-29 l 1,1 -25,55 105,47 191,-421 -112,-51 -81,179 -1,0 c 3,-12 4,-23 1,-34 -2,-10 -7,-20 -15,-29 -7,-8 -16,-16 -26,-23 -10,-7 -21,-13 -33,-19 l -33,-15 c -35,-15 -64,-25 -88,-29 -24,-4 -43,-3 -59,3 -16,6 -29,16 -39,29 -11,13 -21,30 -31,51 l -24,54 z m 410,232 c -12,33 -10,59 5,78 15,19 42,36 81,49 l 79,27 c 15,5 27,9 37,11 9,2 18,3 26,3 8,-1 15,-2 23,-5 8,-3 18,-8 30,-14 l -12,35 110,38 69,-202 c 13,-36 12,-67 -3,-93 -14,-26 -41,-46 -81,-60 l -135,-46 c -26,-9 -48,-15 -66,-19 -17,-3 -33,-3 -46,0 -14,3 -25,10 -35,21 -10,11 -18,27 -25,48 l 112,38 c 4,-10 10,-16 17,-17 6,-1 19,2 36,8 l 69,23 c 22,8 36,16 41,24 5,8 4,20 -1,36 l -9,27 c -7,-14 -18,-26 -35,-35 -16,-8 -42,-19 -78,-31 -32,-11 -59,-19 -79,-25 -20,-5 -38,-7 -54,-6 -15,1 -29,6 -40,16 -11,10 -20,25 -28,45 l -8,26 z m 168,74 c -23,-8 -38,-15 -45,-22 -8,-8 -10,-16 -7,-27 5,-13 12,-21 22,-23 10,-3 27,0 50,8 l 52,17 c 30,11 48,19 55,26 7,8 9,17 4,30 -2,6 -4,10 -7,13 -3,3 -8,5 -15,6 -7,1 -16,0 -28,-2 -12,-3 -28,-8 -48,-14 l -33,-12 z m 662,36 c 2,-20 7,-34 15,-42 9,-8 26,-11 54,-9 l 72,5 c 26,2 44,8 55,17 11,9 16,25 14,49 l -2,31 c -2,24 -9,39 -22,47 -12,7 -31,10 -57,8 l -72,-6 c -27,-2 -44,-7 -51,-17 -8,-9 -10,-24 -9,-44 l 3,-39 z m -122,40 c -2,23 -1,43 1,60 3,16 10,31 21,43 11,13 28,24 51,32 22,8 52,13 90,16 l 36,3 c 35,3 62,-1 81,-10 19,-10 33,-25 42,-46 l 1,0 -5,60 115,9 35,-462 -122,-9 -15,196 -1,0 c -1,-12 -5,-23 -11,-32 -6,-9 -14,-16 -24,-22 -9,-6 -20,-10 -32,-13 -12,-3 -24,-5 -38,-6 l -36,-3 c -38,-3 -69,-2 -92,3 -24,4 -42,12 -55,23 -13,11 -22,25 -27,40 -5,16 -9,36 -11,59 l -4,59 z m 467,17 c 1,33 6,60 16,81 10,21 22,36 38,46 16,11 34,17 53,20 19,3 40,4 64,4 l 92,-2 c 23,-1 45,-3 64,-6 19,-4 36,-9 50,-17 15,-7 26,-18 34,-31 8,-13 11,-30 11,-50 l 0,-14 -115,3 c 0,6 -1,11 -2,15 -1,4 -4,8 -8,11 -5,4 -12,7 -21,9 -9,2 -22,3 -38,4 l -38,1 c -27,0 -46,-3 -58,-9 -12,-6 -18,-17 -18,-34 l -1,-20 298,-6 -1,-55 c -1,-29 -5,-52 -12,-70 -8,-18 -19,-32 -34,-42 -14,-10 -33,-16 -56,-20 -23,-4 -51,-5 -86,-5 l -85,2 c -24,1 -45,4 -63,8 -18,5 -33,13 -46,25 -13,11 -23,26 -30,46 -6,20 -9,45 -8,75 l 0,31 z m 122,-61 c -1,-11 0,-19 2,-25 2,-6 6,-10 11,-13 6,-4 15,-6 26,-7 11,-2 28,-3 49,-3 37,-1 61,1 72,7 12,5 18,17 18,37 l -178,4 z m 585,171 152,-43 18,-90 276,-79 65,67 152,-44 -371,-375 -178,51 -114,513 z m 232,-435 136,142 -174,50 38,-192 z m 388,144 c 16,37 38,57 65,62 28,5 68,-5 120,-28 l 106,-48 c 32,-15 58,-28 77,-41 19,-12 32,-24 41,-37 8,-12 12,-25 11,-40 -1,-15 -6,-33 -15,-53 -7,-16 -15,-28 -23,-38 -8,-9 -18,-17 -31,-21 -14,-5 -31,-5 -53,-1 -22,4 -49,13 -81,27 l -78,35 c -28,13 -46,20 -56,21 -9,2 -16,-1 -19,-8 -4,-10 -2,-18 6,-25 8,-6 28,-17 61,-32 18,-8 32,-14 42,-18 10,-4 18,-6 24,-7 7,-1 12,-1 15,0 4,2 8,4 12,8 l 112,-50 c -9,-19 -18,-33 -28,-42 -9,-9 -22,-14 -37,-15 -15,-2 -34,1 -58,9 -23,7 -54,19 -91,36 l -78,35 c -22,9 -40,19 -55,28 -15,10 -27,20 -36,31 -10,11 -15,24 -17,39 -1,14 2,31 10,48 9,21 19,37 30,49 10,11 22,18 36,21 13,3 30,3 48,-2 19,-4 41,-12 68,-24 l 105,-47 c 19,-9 33,-13 41,-12 8,1 15,5 19,14 4,9 2,17 -5,24 -8,7 -25,16 -52,28 l -39,18 c -16,7 -28,12 -38,15 -10,3 -18,4 -24,4 -6,0 -10,-1 -13,-4 -2,-2 -5,-6 -7,-11 l -115,52 z m 418,-190 c 21,33 46,50 74,51 28,1 66,-14 114,-45 l 97,-63 c 31,-20 54,-37 71,-52 17,-15 29,-29 35,-42 6,-14 8,-28 5,-42 -3,-15 -11,-31 -23,-50 -9,-14 -18,-26 -27,-34 -10,-9 -21,-14 -35,-17 -14,-2 -31,0 -52,7 -21,7 -47,20 -76,39 l -72,46 c -26,17 -43,26 -52,29 -10,3 -16,1 -20,-5 -6,-10 -6,-18 2,-26 7,-7 25,-21 56,-40 16,-11 29,-19 38,-24 9,-6 17,-9 23,-11 6,-2 11,-3 15,-2 4,1 9,3 13,6 l 103,-66 c -12,-17 -23,-29 -33,-37 -11,-7 -24,-11 -39,-10 -15,1 -34,7 -56,17 -23,11 -51,27 -85,49 l -72,46 c -20,13 -37,25 -50,37 -13,11 -24,23 -32,35 -7,13 -11,27 -10,41 0,15 6,30 16,47 13,19 25,34 37,43 12,10 25,15 39,16 14,1 30,-2 47,-9 18,-7 39,-18 64,-34 l 97,-62 c 18,-11 30,-17 39,-18 8,0 15,4 20,12 5,8 5,16 -1,24 -7,8 -22,20 -47,36 l -37,23 c -14,9 -25,16 -35,20 -9,5 -17,7 -23,8 -5,1 -10,0 -13,-2 -3,-2 -6,-5 -9,-10 l -106,69 z m 393,-229 c 23,27 47,39 71,35 23,-3 51,-18 82,-45 l 64,-55 c 12,-10 21,-19 28,-26 6,-7 11,-14 15,-21 3,-7 6,-15 8,-23 1,-9 2,-19 3,-32 l 24,28 88,-76 -140,-162 c -25,-29 -52,-44 -82,-45 -30,0 -60,13 -92,41 l -108,93 c -21,18 -37,34 -49,47 -12,14 -20,27 -24,41 -4,13 -4,26 1,40 5,14 14,29 28,46 l 90,-78 c -7,-9 -9,-16 -6,-23 2,-6 11,-15 25,-28 l 54,-47 c 18,-15 32,-23 41,-23 10,0 20,6 31,18 l 19,22 c -16,-1 -32,3 -47,12 -16,10 -38,27 -67,52 -26,22 -46,41 -61,56 -14,15 -25,29 -32,43 -7,14 -10,29 -7,43 3,15 11,30 25,47 l 18,20 z m 149,-108 c -18,16 -32,25 -42,28 -10,3 -19,0 -26,-8 -9,-10 -12,-21 -10,-31 3,-10 14,-23 32,-39 l 41,-35 c 25,-21 42,-33 51,-35 10,-3 19,1 28,11 4,5 7,9 8,13 1,5 0,10 -3,16 -3,6 -8,14 -16,23 -9,9 -21,21 -36,34 l -27,23 z m 271,-147 89,-84 -320,-335 -88,85 319,334 z m 67,-221 c 17,14 33,23 49,28 16,4 31,4 46,0 15,-5 30,-12 43,-22 14,-10 27,-23 40,-38 l 32,-37 c 31,-35 46,-68 46,-98 -1,-31 -13,-57 -38,-78 l -30,-26 -70,81 16,14 c 12,10 17,20 17,28 -1,9 -7,21 -20,36 -11,12 -20,20 -28,23 -8,3 -17,1 -25,-6 l -95,-82 125,-144 -67,-58 -125,144 -58,-50 -80,93 58,50 -40,46 67,58 40,-47 97,85 z m 214,-265 c 22,14 42,22 60,25 19,3 36,1 51,-4 15,-6 28,-15 39,-26 12,-11 22,-24 32,-39 l 98,-154 c 10,-15 17,-30 22,-45 6,-15 8,-31 7,-47 -1,-16 -7,-32 -17,-47 -10,-16 -26,-31 -48,-44 l -66,-42 c -21,-14 -41,-22 -60,-25 -18,-3 -35,-1 -50,5 -15,5 -28,14 -40,25 -11,11 -22,24 -31,39 l -99,154 c -9,15 -16,30 -22,45 -5,15 -7,31 -6,47 1,16 7,32 17,47 10,16 26,31 48,44 l 65,42 z m 21,-132 c -19,-12 -29,-26 -30,-42 0,-16 8,-37 23,-61 l 16,-25 c 11,-17 21,-31 28,-40 8,-10 16,-16 22,-20 7,-3 14,-4 21,-3 7,2 16,6 25,12 l 38,24 c 10,6 17,12 21,18 4,6 6,12 6,20 -1,8 -3,17 -8,28 -6,11 -14,25 -25,43 l -15,24 c -16,25 -31,41 -46,47 -15,6 -32,3 -51,-9 l -25,-16 z"
       id="path4053"
       inkscape:connector-curvature="0"
       style="fill:#a0d211;fill-rule:nonzero" /><circle
       class="fil4"
       cy="11000"
       r="3780"
       id="circle4055"
       cx="0"
       style="fill:none" /><circle
       class="fil1"
       cy="11000"
       r="394"
       id="circle4057"
       cx="0"
       style="fill:#ffffff" /><path
       class="fil2"
       d="m -591,11000 c 0,84 -15,174 -54,249 -28,56 -76,113 -141,123 -7,1 -14,2 -21,2 -7,0 -14,-1 -21,-2 -66,-10 -113,-67 -142,-123 -38,-75 -54,-165 -54,-249 0,-84 16,-174 54,-249 29,-56 76,-113 142,-123 7,-1 14,-2 21,-2 7,0 14,1 21,2 65,10 113,67 141,123 39,75 54,165 54,249 z m -689,0 c 0,60 -15,121 -46,172 -28,44 -70,82 -122,97 -15,4 -32,7 -48,7 -17,0 -33,-3 -49,-7 -51,-15 -93,-53 -121,-97 -32,-51 -47,-112 -47,-172 0,-60 15,-121 47,-172 28,-44 70,-82 121,-97 16,-4 32,-7 49,-7 16,0 33,3 48,7 52,15 94,53 122,97 31,51 46,112 46,172 z m -807,0 c 0,43 -9,89 -31,126 -19,33 -48,61 -85,69 -7,1 -14,2 -21,2 -7,0 -15,-1 -21,-2 -38,-8 -67,-36 -85,-69 -22,-37 -32,-83 -32,-126 0,-43 10,-89 32,-126 18,-33 47,-61 85,-69 6,-1 14,-2 21,-2 7,0 14,1 21,2 37,8 66,36 85,69 22,37 31,83 31,126 z m -728,0 c 0,53 -25,124 -83,136 -5,1 -10,2 -15,2 -6,0 -11,-1 -16,-2 -58,-12 -83,-83 -83,-136 0,-53 25,-124 83,-136 5,-1 10,-2 16,-2 5,0 10,1 15,2 58,12 83,83 83,136 z m 3406,0 c 0,-84 15,-174 54,-249 28,-56 76,-113 141,-123 7,-1 14,-2 21,-2 7,0 14,1 21,2 66,10 113,67 142,123 38,75 54,165 54,249 0,84 -16,174 -54,249 -29,56 -76,113 -142,123 -7,1 -14,2 -21,2 -7,0 -14,-1 -21,-2 -65,-10 -113,-67 -141,-123 -39,-75 -54,-165 -54,-249 z m 689,0 c 0,-60 15,-121 46,-172 28,-44 70,-82 122,-97 15,-4 32,-7 48,-7 17,0 33,3 49,7 51,15 93,53 121,97 32,51 47,112 47,172 0,60 -15,121 -47,172 -28,44 -70,82 -121,97 -16,4 -32,7 -49,7 -16,0 -33,-3 -48,-7 -52,-15 -94,-53 -122,-97 -31,-51 -46,-112 -46,-172 z m 807,0 c 0,-43 9,-89 31,-126 19,-33 48,-61 85,-69 7,-1 14,-2 21,-2 7,0 15,1 21,2 38,8 67,36 85,69 22,37 32,83 32,126 0,43 -10,89 -32,126 -18,33 -47,61 -85,69 -6,1 -14,2 -21,2 -7,0 -14,-1 -21,-2 -37,-8 -66,-36 -85,-69 -22,-37 -31,-83 -31,-126 z m 728,0 c 0,-53 25,-124 83,-136 5,-1 10,-2 15,-2 6,0 11,1 16,2 58,12 83,83 83,136 0,53 -25,124 -83,136 -5,1 -10,2 -16,2 -5,0 -10,-1 -15,-2 -58,-12 -83,-83 -83,-136 z m -2258,557 c 43,-43 98,-78 157,-93 50,-13 106,-11 151,17 9,5 18,12 26,20 8,8 14,16 20,26 28,45 30,101 17,151 -15,59 -50,114 -93,157 -43,43 -98,78 -157,93 -50,13 -106,11 -151,-17 -10,-6 -18,-12 -26,-20 -8,-8 -15,-17 -20,-26 -28,-45 -30,-101 -17,-151 15,-59 50,-114 93,-157 z m 431,431 c 31,-30 70,-55 112,-67 36,-9 76,-9 108,12 6,4 12,9 17,14 5,5 9,10 13,16 21,32 22,72 12,108 -11,42 -36,81 -67,112 -31,31 -70,56 -112,67 -36,10 -76,9 -108,-12 -6,-4 -11,-8 -16,-13 -5,-5 -10,-11 -14,-17 -21,-32 -21,-72 -12,-108 12,-42 37,-81 67,-112 z m 446,446 c 37,-38 105,-70 155,-38 4,3 8,6 12,10 3,4 7,8 9,12 33,50 0,118 -37,155 -37,37 -105,70 -155,37 -4,-2 -8,-6 -12,-9 -4,-4 -7,-8 -10,-12 -32,-50 0,-118 38,-155 z m 403,403 c 32,-32 90,-49 126,-14 35,36 18,94 -14,126 -32,32 -90,49 -126,14 -35,-36 -18,-94 14,-126 z M -557,11557 c 43,43 78,98 93,157 13,50 11,106 -17,151 -5,9 -12,18 -20,26 -8,8 -16,14 -26,20 -45,28 -101,30 -151,17 -59,-15 -114,-50 -157,-93 -43,-43 -78,-98 -93,-157 -13,-50 -11,-106 17,-151 6,-10 12,-18 20,-26 8,-8 17,-15 26,-20 45,-28 101,-30 151,-17 59,15 114,50 157,93 z m -431,431 c 30,31 55,70 67,112 9,36 9,76 -12,108 -4,6 -9,12 -14,17 -5,5 -10,9 -16,13 -32,21 -72,22 -108,12 -42,-11 -81,-36 -112,-67 -31,-31 -56,-70 -67,-112 -10,-36 -9,-76 12,-108 4,-6 8,-11 13,-16 5,-5 11,-10 17,-14 32,-21 72,-21 108,-12 42,12 81,37 112,67 z m -446,446 c 38,37 70,105 38,155 -3,4 -6,8 -10,12 -4,3 -8,7 -12,9 -50,33 -118,0 -155,-37 -37,-37 -70,-105 -37,-155 2,-4 6,-8 9,-12 4,-4 8,-7 12,-10 50,-32 118,0 155,38 z m -403,403 c 32,32 49,90 14,126 -36,35 -94,18 -126,-14 -32,-32 -49,-90 -14,-126 36,-35 94,-18 126,14 z M 557,10443 c -43,-43 -78,-98 -93,-157 -13,-50 -11,-106 17,-151 5,-9 12,-18 20,-26 8,-8 16,-14 26,-20 45,-28 101,-30 151,-17 59,15 114,50 157,93 43,43 78,98 93,157 13,50 11,106 -17,151 -6,10 -12,18 -20,26 -8,8 -17,15 -26,20 -45,28 -101,30 -151,17 -59,-15 -114,-50 -157,-93 z m 431,-431 c -30,-31 -55,-70 -67,-112 -9,-36 -9,-76 12,-108 4,-6 9,-12 14,-17 5,-5 10,-9 16,-13 32,-21 72,-22 108,-12 42,11 81,36 112,67 31,31 56,70 67,112 10,36 9,76 -12,108 -4,6 -8,11 -13,16 -5,5 -11,10 -17,14 -32,21 -72,21 -108,12 -42,-12 -81,-37 -112,-67 z m 446,-446 c -38,-37 -70,-105 -38,-155 3,-4 6,-8 10,-12 4,-3 8,-7 12,-9 50,-33 118,0 155,37 37,37 70,105 37,155 -2,4 -6,8 -9,12 -4,4 -8,7 -12,10 -50,32 -118,0 -155,-38 z m 403,-403 c -32,-32 -49,-90 -14,-126 36,-35 94,-18 126,14 32,32 49,90 14,126 -36,35 -94,18 -126,-14 z m -2394,1280 c -43,43 -98,78 -157,93 -50,13 -106,11 -151,-17 -9,-5 -18,-12 -26,-20 -8,-8 -14,-16 -20,-26 -28,-45 -30,-101 -17,-151 15,-59 50,-114 93,-157 43,-43 98,-78 157,-93 50,-13 106,-11 151,17 10,6 18,12 26,20 8,8 15,17 20,26 28,45 30,101 17,151 -15,59 -50,114 -93,157 z m -431,-431 c -31,30 -70,55 -112,67 -36,9 -76,9 -108,-12 -6,-4 -12,-9 -17,-14 -5,-5 -9,-10 -13,-16 -21,-32 -22,-72 -12,-108 11,-42 36,-81 67,-112 31,-31 70,-56 112,-67 36,-10 76,-9 108,12 6,4 11,8 16,13 5,5 10,11 14,17 21,32 21,72 12,108 -12,42 -37,81 -67,112 z m -446,-446 c -37,38 -105,70 -155,38 -4,-3 -8,-6 -12,-10 -3,-4 -7,-8 -9,-12 -33,-50 0,-118 37,-155 37,-37 105,-70 155,-37 4,2 8,6 12,9 4,4 7,8 10,12 32,50 0,118 -38,155 z m -403,-403 c -32,32 -90,49 -126,14 -35,-36 -18,-94 14,-126 32,-32 90,-49 126,-14 35,36 18,94 -14,126 z M 0,11591 c 84,0 174,15 249,54 56,28 113,76 123,141 1,7 2,14 2,21 0,7 -1,14 -2,21 -10,66 -67,113 -123,142 -75,38 -165,54 -249,54 -84,0 -174,-16 -249,-54 -56,-29 -113,-76 -123,-142 -1,-7 -2,-14 -2,-21 0,-7 1,-14 2,-21 10,-65 67,-113 123,-141 75,-39 165,-54 249,-54 z m 0,689 c 60,0 121,15 172,46 44,28 82,70 97,122 4,15 7,32 7,48 0,17 -3,33 -7,49 -15,51 -53,93 -97,121 -51,32 -112,47 -172,47 -60,0 -121,-15 -172,-47 -44,-28 -82,-70 -97,-121 -4,-16 -7,-32 -7,-49 0,-16 3,-33 7,-48 15,-52 53,-94 97,-122 51,-31 112,-46 172,-46 z m 0,807 c 43,0 89,9 126,31 33,19 61,48 69,85 1,7 2,14 2,21 0,7 -1,15 -2,21 -8,38 -36,67 -69,85 -37,22 -83,32 -126,32 -43,0 -89,-10 -126,-32 -33,-18 -61,-47 -69,-85 -1,-6 -2,-14 -2,-21 0,-7 1,-14 2,-21 8,-37 36,-66 69,-85 37,-22 83,-31 126,-31 z m 0,728 c 53,0 124,25 136,83 1,5 2,10 2,15 0,6 -1,11 -2,16 -12,58 -83,83 -136,83 -53,0 -124,-25 -136,-83 -1,-5 -2,-10 -2,-16 0,-5 1,-10 2,-15 12,-58 83,-83 136,-83 z m 0,-3406 c -84,0 -174,-15 -249,-54 -56,-28 -113,-76 -123,-141 -1,-7 -2,-14 -2,-21 0,-7 1,-14 2,-21 10,-66 67,-113 123,-142 75,-38 165,-54 249,-54 84,0 174,16 249,54 56,29 113,76 123,142 1,7 2,14 2,21 0,7 -1,14 -2,21 -10,65 -67,113 -123,141 -75,39 -165,54 -249,54 z m 0,-689 c -60,0 -121,-15 -172,-46 -44,-28 -82,-70 -97,-122 -4,-15 -7,-32 -7,-48 0,-17 3,-33 7,-49 15,-51 53,-93 97,-121 51,-32 112,-47 172,-47 60,0 121,15 172,47 44,28 82,70 97,121 4,16 7,32 7,49 0,16 -3,33 -7,48 -15,52 -53,94 -97,122 -51,31 -112,46 -172,46 z m 0,-807 c -43,0 -89,-9 -126,-31 -33,-19 -61,-48 -69,-85 -1,-7 -2,-14 -2,-21 0,-7 1,-15 2,-21 8,-38 36,-67 69,-85 37,-22 83,-32 126,-32 43,0 89,10 126,32 33,18 61,47 69,85 1,6 2,14 2,21 0,7 -1,14 -2,21 -8,37 -36,66 -69,85 -37,22 -83,31 -126,31 z m 0,-728 c -53,0 -124,-25 -136,-83 -1,-5 -2,-10 -2,-15 0,-6 1,-11 2,-16 12,-58 83,-83 136,-83 53,0 124,25 136,83 1,5 2,10 2,16 0,5 -1,10 -2,15 -12,58 -83,83 -136,83 z"
       id="path4059"
       inkscape:connector-curvature="0"
       style="fill:#ffffff" /><g
       id="_1133886016"><g
         id="g4062"><ellipse
           class="fil5"
           transform="matrix(0,1.05882,-1.11111,0,-807.087,11000)"
           rx="335"
           ry="177"
           id="ellipse4064"
           cx="0"
           cy="0"
           style="fill:#a0d211" /><ellipse
           class="fil5"
           transform="matrix(0,1,-1.11111,0,-1496.06,11000)"
           rx="256"
           ry="177"
           id="ellipse4066"
           cx="0"
           cy="0"
           style="fill:#a0d211" /><ellipse
           class="fil5"
           transform="matrix(0,1,-1,0,-2224.41,11000)"
           rx="177"
           ry="118"
           id="ellipse4068"
           cx="0"
           cy="0"
           style="fill:#a0d211" /><ellipse
           class="fil5"
           transform="matrix(0,1.2,-1,0,-2913.39,11000)"
           rx="98"
           ry="79"
           id="ellipse4070"
           cx="0"
           cy="0"
           style="fill:#a0d211" /></g><g
         id="g4072"><ellipse
           class="fil5"
           transform="matrix(0,-1.05882,1.11111,0,807.087,11000)"
           rx="335"
           ry="177"
           id="ellipse4074"
           cx="0"
           cy="0"
           style="fill:#a0d211" /><ellipse
           class="fil5"
           transform="matrix(0,-1,1.11111,0,1496.06,11000)"
           rx="256"
           ry="177"
           id="ellipse4076"
           cx="0"
           cy="0"
           style="fill:#a0d211" /><ellipse
           class="fil5"
           transform="matrix(0,-1,1,0,2224.41,11000)"
           rx="177"
           ry="118"
           id="ellipse4078"
           cx="0"
           cy="0"
           style="fill:#a0d211" /><ellipse
           class="fil5"
           transform="matrix(0,-1.2,1,0,2913.39,11000)"
           rx="98"
           ry="79"
           id="ellipse4080"
           cx="0"
           cy="0"
           style="fill:#a0d211" /></g><g
         id="g4082"><ellipse
           class="fil5"
           transform="matrix(0.707107,-0.707107,0.707107,0.707107,695.971,11696)"
           rx="256"
           ry="177"
           id="ellipse4084"
           cx="0"
           cy="0"
           style="fill:#a0d211" /><ellipse
           class="fil5"
           transform="matrix(0.636396,-0.636396,0.606092,0.606092,1085.72,12085.7)"
           rx="197"
           ry="138"
           id="ellipse4086"
           cx="0"
           cy="0"
           style="fill:#a0d211" /><ellipse
           class="fil5"
           transform="matrix(0.707107,-0.707107,0.707107,0.707107,1503.3,12503.3)"
           rx="118"
           ry="79"
           id="ellipse4088"
           cx="0"
           cy="0"
           style="fill:#a0d211" /><ellipse
           class="fil5"
           transform="matrix(0.707107,-0.707107,1.06066,1.06066,1893.04,12893)"
           rx="79"
           ry="39"
           id="ellipse4090"
           cx="0"
           cy="0"
           style="fill:#a0d211" /></g><g
         id="g4092"><ellipse
           class="fil5"
           transform="matrix(0.707107,0.707107,-0.707107,0.707107,-695.971,11696)"
           rx="256"
           ry="177"
           id="ellipse4094"
           cx="0"
           cy="0"
           style="fill:#a0d211" /><ellipse
           class="fil5"
           transform="matrix(0.636396,0.636396,-0.606092,0.606092,-1085.72,12085.7)"
           rx="197"
           ry="138"
           id="ellipse4096"
           cx="0"
           cy="0"
           style="fill:#a0d211" /><ellipse
           class="fil5"
           transform="matrix(0.707107,0.707107,-0.707107,0.707107,-1503.3,12503.3)"
           rx="118"
           ry="79"
           id="ellipse4098"
           cx="0"
           cy="0"
           style="fill:#a0d211" /><ellipse
           class="fil5"
           transform="matrix(0.707107,0.707107,-1.06066,1.06066,-1893.04,12893)"
           rx="79"
           ry="39"
           id="ellipse4100"
           cx="0"
           cy="0"
           style="fill:#a0d211" /></g><g
         id="g4102"><ellipse
           class="fil5"
           transform="matrix(-0.707107,-0.707107,0.707107,-0.707107,695.971,10304)"
           rx="256"
           ry="177"
           id="ellipse4104"
           cx="0"
           cy="0"
           style="fill:#a0d211" /><ellipse
           class="fil5"
           transform="matrix(-0.636396,-0.636396,0.606092,-0.606092,1085.72,9914.28)"
           rx="197"
           ry="138"
           id="ellipse4106"
           cx="0"
           cy="0"
           style="fill:#a0d211" /><ellipse
           class="fil5"
           transform="matrix(-0.707107,-0.707107,0.707107,-0.707107,1503.3,9496.7)"
           rx="118"
           ry="79"
           id="ellipse4108"
           cx="0"
           cy="0"
           style="fill:#a0d211" /><ellipse
           class="fil5"
           transform="matrix(-0.707107,-0.707107,1.06066,-1.06066,1893.04,9106.96)"
           rx="79"
           ry="39"
           id="ellipse4110"
           cx="0"
           cy="0"
           style="fill:#a0d211" /></g><g
         id="g4112"><ellipse
           class="fil5"
           transform="matrix(-0.707107,0.707107,-0.707107,-0.707107,-695.971,10304)"
           rx="256"
           ry="177"
           id="ellipse4114"
           cx="0"
           cy="0"
           style="fill:#a0d211" /><ellipse
           class="fil5"
           transform="matrix(-0.636396,0.636396,-0.606092,-0.606092,-1085.72,9914.28)"
           rx="197"
           ry="138"
           id="ellipse4116"
           cx="0"
           cy="0"
           style="fill:#a0d211" /><ellipse
           class="fil5"
           transform="matrix(-0.707107,0.707107,-0.707107,-0.707107,-1503.3,9496.7)"
           rx="118"
           ry="79"
           id="ellipse4118"
           cx="0"
           cy="0"
           style="fill:#a0d211" /><ellipse
           class="fil5"
           transform="matrix(-0.707107,0.707107,-1.06066,-1.06066,-1893.04,9106.96)"
           rx="79"
           ry="39"
           id="ellipse4120"
           cx="0"
           cy="0"
           style="fill:#a0d211" /></g><g
         id="g4122"><ellipse
           class="fil5"
           cy="11807"
           rx="354"
           ry="197"
           id="ellipse4124"
           cx="0"
           style="fill:#a0d211" /><ellipse
           class="fil5"
           cy="12496"
           rx="256"
           ry="197"
           id="ellipse4126"
           cx="0"
           style="fill:#a0d211" /><ellipse
           class="fil5"
           cy="13224"
           rx="177"
           ry="118"
           id="ellipse4128"
           cx="0"
           style="fill:#a0d211" /><ellipse
           class="fil5"
           cy="13913"
           rx="118"
           ry="79"
           id="ellipse4130"
           cx="0"
           style="fill:#a0d211" /></g><g
         id="g4132"><ellipse
           class="fil5"
           cy="10193"
           rx="354"
           ry="197"
           id="ellipse4134"
           cx="0"
           style="fill:#a0d211" /><ellipse
           class="fil5"
           cy="9504"
           rx="256"
           ry="197"
           id="ellipse4136"
           cx="0"
           style="fill:#a0d211" /><ellipse
           class="fil5"
           cy="8776"
           rx="177"
           ry="118"
           id="ellipse4138"
           cx="0"
           style="fill:#a0d211" /><ellipse
           class="fil5"
           cy="8087"
           rx="118"
           ry="79"
           id="ellipse4140"
           cx="0"
           style="fill:#a0d211" /></g></g></g></svg>