<?xml version="1.0" encoding="UTF-8" standalone="no"?>
<!-- Creator: CorelDRAW X7 -->

<svg
   xmlns:dc="http://purl.org/dc/elements/1.1/"
   xmlns:cc="http://creativecommons.org/ns#"
   xmlns:rdf="http://www.w3.org/1999/02/22-rdf-syntax-ns#"
   xmlns:svg="http://www.w3.org/2000/svg"
   xmlns="http://www.w3.org/2000/svg"
   xmlns:sodipodi="http://sodipodi.sourceforge.net/DTD/sodipodi-0.dtd"
   xmlns:inkscape="http://www.inkscape.org/namespaces/inkscape"
   xml:space="preserve"
   width="7.8740005in"
   height="7.8740005in"
   version="1.1"
   style="clip-rule:evenodd;fill-rule:evenodd;image-rendering:optimizeQuality;shape-rendering:geometricPrecision;text-rendering:geometricPrecision"
   viewBox="0 0 7874.0005 7874.0005"
   id="svg3977"
   inkscape:version="0.91 r13725"
   sodipodi:docname="PanOceania - Fusiliers - [N3] [Vyo].svg"><metadata
     id="metadata4014"><rdf:RDF><cc:Work
         rdf:about=""><dc:format>image/svg+xml</dc:format><dc:type
           rdf:resource="http://purl.org/dc/dcmitype/StillImage" /></cc:Work></rdf:RDF></metadata><sodipodi:namedview
     pagecolor="#ffffff"
     bordercolor="#666666"
     borderopacity="1"
     objecttolerance="10"
     gridtolerance="10"
     guidetolerance="10"
     inkscape:pageopacity="0"
     inkscape:pageshadow="2"
     inkscape:window-width="640"
     inkscape:window-height="480"
     id="namedview4012"
     showgrid="false"
     inkscape:zoom="0.23838384"
     inkscape:cx="736.83001"
     inkscape:cy="849.33005"
     inkscape:window-x="0"
     inkscape:window-y="0"
     inkscape:window-maximized="0"
     inkscape:current-layer="svg3977" /><defs
     id="defs3979"><style
       type="text/css"
       id="style3981"><![CDATA[
    .fil5 {fill:none}
    .fil2 {fill:#15C3F6}
    .fil0 {fill:#15C3F6}
    .fil3 {fill:white}
    .fil1 {fill:white}
    .fil4 {fill:#15C3F6;fill-rule:nonzero}
   ]]></style></defs><g
     id="Layer_x0020_1"
     transform="translate(3937,-7063)"><metadata
       id="CorelCorpID_0Corel-Layer" /><circle
       class="fil0"
       cy="11000"
       r="3937"
       id="circle3985"
       cx="0"
       style="fill:#15c3f6" /><circle
       class="fil1"
       cy="11000"
       r="3819"
       id="circle3987"
       cx="0"
       style="fill:#ffffff" /><circle
       class="fil2"
       cy="11000"
       r="2795"
       id="circle3989"
       cx="0"
       style="fill:#15c3f6" /><path
       class="fil3"
       d="m -394,8441 788,0 85,853 c 143,40 279,98 405,170 l 297,-236 591,591 -236,297 c 72,126 130,262 170,405 l 853,85 0,788 -853,85 c -40,143 -98,279 -170,405 l 236,297 -591,591 -297,-236 c -126,72 -262,130 -405,170 l -85,853 -788,0 -85,-853 c -143,-40 -279,-98 -405,-170 l -297,236 -591,-591 236,-297 c -72,-126 -130,-262 -170,-405 l -853,-85 0,-788 853,-85 c 40,-143 98,-279 170,-405 l -236,-297 591,-591 297,236 c 126,-72 262,-130 405,-170 l 85,-853 z"
       id="path3991"
       inkscape:connector-curvature="0"
       style="fill:#ffffff" /><path
       class="fil0"
       d="m 168,9632 c 627,76 1124,573 1200,1200 l -285,-285 c -65,-65 -172,-65 -237,0 l -334,335 c -65,65 -65,171 0,236 l 334,335 c 65,65 172,65 237,0 l 285,-285 c -76,627 -573,1124 -1200,1200 l 285,-285 c 65,-65 65,-172 0,-237 l -335,-334 c -65,-65 -171,-65 -236,0 l -335,334 c -65,65 -65,172 0,237 l 285,285 c -627,-76 -1124,-573 -1200,-1200 l 285,285 c 65,65 172,65 237,0 l 334,-335 c 65,-65 65,-171 0,-236 l -334,-335 c -65,-65 -172,-65 -237,0 l -285,285 c 76,-627 573,-1124 1200,-1200 l -285,285 c -65,65 -65,172 0,237 l 335,334 c 65,65 171,65 236,0 l 335,-334 c 65,-65 65,-172 0,-237 L 168,9632 Z"
       id="path3993"
       inkscape:connector-curvature="0"
       style="fill:#15c3f6" /><path
       class="fil4"
       d="m -1886,13887 128,74 83,-142 293,170 56,-97 -293,-170 45,-78 308,179 58,-100 -435,-254 -243,418 z m 1089,123 -121,-42 -57,161 c -8,23 -21,38 -40,45 -18,7 -41,5 -67,-4 l -27,-9 c -52,-19 -73,-43 -62,-75 l 65,-184 -121,-42 -65,184 c -11,33 -15,61 -11,84 4,23 14,43 28,58 14,15 31,27 48,36 18,9 40,17 65,26 34,12 63,18 87,17 23,-1 44,-11 61,-28 l 1,0 -18,52 121,42 113,-321 z m 11,241 c -7,41 0,72 21,92 21,20 61,35 119,45 l 120,21 c 37,7 68,10 91,10 23,1 42,-2 56,-8 15,-6 26,-15 34,-28 8,-14 14,-32 18,-54 3,-18 4,-34 3,-47 -2,-12 -7,-25 -15,-36 -9,-12 -24,-23 -45,-32 -21,-10 -50,-18 -86,-24 l -88,-15 c -31,-6 -52,-11 -60,-15 -9,-4 -13,-10 -12,-18 2,-11 8,-17 19,-18 11,-1 35,2 72,8 20,4 36,7 47,9 10,2 19,5 25,8 6,3 10,6 13,9 2,3 4,8 5,13 l 126,22 c 3,-21 4,-38 1,-51 -3,-14 -11,-25 -23,-35 -12,-10 -31,-19 -55,-27 -25,-8 -58,-15 -100,-22 l -88,-16 c -24,-4 -46,-6 -64,-7 -18,-1 -35,1 -50,5 -14,5 -27,12 -37,24 -9,12 -16,28 -20,48 -4,23 -5,43 -2,59 2,16 9,29 18,40 10,10 25,19 43,26 19,7 43,14 73,19 l 119,21 c 21,4 35,8 42,14 6,5 9,13 7,23 -2,10 -8,16 -18,17 -10,2 -31,0 -61,-5 l -45,-8 c -17,-3 -30,-6 -41,-9 -10,-4 -18,-7 -23,-11 -5,-3 -8,-7 -8,-11 -1,-4 -1,-8 0,-13 l -131,-23 z m 691,-149 -128,-3 -7,340 128,3 7,-340 z m 3,-143 -128,-3 -2,100 128,3 2,-100 z m 126,484 128,-3 -10,-482 -128,2 10,483 z m 346,-363 -127,17 45,337 126,-17 -44,-337 z m -19,-141 -127,17 14,99 126,-17 -13,-99 z m 141,320 c 8,34 19,60 33,79 15,19 31,32 50,40 18,7 37,10 57,9 20,-1 42,-4 66,-10 l 94,-22 c 24,-5 46,-12 64,-19 19,-8 35,-17 48,-28 14,-11 23,-24 28,-39 5,-15 5,-33 1,-53 l -4,-14 -116,27 c 1,6 1,11 1,16 0,4 -2,8 -6,13 -4,5 -10,9 -19,13 -9,4 -22,8 -39,12 l -38,9 c -27,6 -48,7 -61,4 -13,-4 -22,-14 -26,-31 l -5,-21 303,-69 -13,-56 c -6,-29 -15,-52 -27,-69 -11,-17 -26,-29 -43,-36 -17,-7 -37,-9 -62,-8 -24,1 -53,5 -88,13 l -87,20 c -24,6 -45,13 -62,22 -18,9 -32,20 -43,34 -10,14 -17,32 -20,54 -2,22 0,48 7,78 l 7,32 z m 111,-89 c -2,-10 -3,-19 -2,-25 0,-7 3,-12 8,-16 6,-5 14,-9 25,-13 11,-4 28,-8 49,-13 38,-9 63,-12 76,-8 13,3 22,14 26,33 l -182,42 z m 453,113 119,-47 -69,-175 c -7,-18 -6,-34 3,-47 9,-14 24,-25 45,-33 23,-9 40,-11 51,-5 11,6 21,20 30,41 l 103,-40 c -1,-2 -2,-4 -2,-7 -4,-10 -6,-17 -8,-22 -17,-44 -39,-72 -66,-84 -27,-12 -61,-9 -104,8 -30,11 -53,26 -70,44 -17,19 -24,41 -20,67 l -2,0 -24,-60 -111,44 125,316 z m 380,-265 c 21,36 45,55 74,57 29,3 69,-11 121,-40 l 106,-60 c 32,-19 58,-36 76,-50 19,-15 32,-29 39,-42 7,-14 10,-29 7,-44 -2,-15 -9,-33 -20,-53 -9,-16 -18,-28 -27,-37 -9,-10 -21,-16 -35,-19 -14,-4 -33,-2 -55,4 -22,6 -50,18 -82,36 l -77,44 c -28,16 -46,25 -56,27 -10,2 -17,0 -20,-6 -6,-11 -5,-19 3,-27 8,-7 28,-20 61,-39 17,-10 31,-18 41,-23 10,-5 18,-8 25,-10 6,-2 11,-2 16,-1 4,1 8,3 12,7 l 111,-63 c -11,-18 -21,-32 -32,-40 -11,-9 -24,-13 -40,-13 -16,0 -36,5 -59,15 -24,9 -55,25 -92,46 l -78,44 c -21,12 -39,24 -53,35 -15,11 -27,23 -35,36 -9,12 -13,26 -14,41 0,16 5,32 15,50 12,21 24,36 36,47 12,11 25,17 39,19 15,2 31,0 50,-7 19,-6 42,-17 69,-31 l 104,-60 c 19,-10 33,-16 41,-16 9,0 16,4 21,13 5,9 4,18 -3,25 -7,8 -24,20 -51,35 l -39,22 c -15,9 -28,15 -38,19 -10,4 -18,6 -24,7 -6,0 -11,-1 -14,-3 -3,-3 -6,-6 -8,-11 l -115,66 z"
       id="path3995"
       inkscape:connector-curvature="0"
       style="fill:#15c3f6;fill-rule:nonzero" /><circle
       class="fil5"
       cy="11000"
       r="3465"
       id="circle3997"
       cx="0"
       style="fill:none" /><path
       class="fil4"
       d="m -2096,8964 -344,-388 151,-134 43,-38 c 23,-20 41,-34 54,-42 13,-8 28,-13 46,-16 18,-3 36,-3 53,1 16,4 34,13 51,26 17,13 36,32 57,56 28,31 48,58 60,81 12,24 17,46 15,66 -2,20 -11,41 -27,62 -3,4 -5,7 -6,9 -2,2 -5,6 -10,10 -4,4 -11,10 -19,17 l -13,14 -16,13 -4,5 -6,6 -6,5 -62,55 88,99 -105,93 z m -63,-282 65,-58 c 16,-14 25,-24 28,-27 3,-4 5,-8 7,-12 2,-8 0,-16 -4,-26 -5,-9 -15,-22 -28,-37 -19,-21 -35,-34 -48,-37 -14,-3 -28,2 -42,15 l -13,11 -66,58 101,113 z"
       id="path3999"
       inkscape:connector-curvature="0"
       style="fill:#15c3f6;fill-rule:nonzero" /><path
       id="1"
       class="fil4"
       d="m -1540,8421 -156,101 28,89 -122,78 -151,-520 177,-114 414,350 -119,77 -71,-61 z m -77,-69 -177,-154 68,224 109,-70 z"
       inkscape:connector-curvature="0"
       style="fill:#15c3f6;fill-rule:nonzero" /><path
       id="2"
       class="fil4"
       d="m -1042,7720 189,482 -219,87 -156,-174 c -27,-30 -43,-48 -49,-55 -6,-7 -11,-12 -14,-16 -3,-3 -9,-10 -17,-20 -9,-10 -24,-28 -47,-54 l -5,3 13,29 c 2,5 4,8 5,11 1,2 2,5 3,8 2,3 3,6 5,10 21,47 38,87 50,118 l 76,193 -127,50 -189,-482 217,-86 157,173 c 34,37 54,59 59,65 6,6 27,31 65,75 l 5,-2 -13,-29 -6,-14 c -21,-46 -39,-89 -55,-128 l -75,-193 128,-51 z"
       inkscape:connector-curvature="0"
       style="fill:#15c3f6;fill-rule:nonzero" /><path
       id="3"
       class="fil4"
       d="m -644,7627 c 22,-4 42,-6 61,-8 18,-2 34,-2 46,-1 13,1 25,3 36,7 48,14 82,45 100,92 8,22 18,64 28,126 5,31 8,53 10,67 2,13 3,25 4,35 0,10 1,19 0,28 0,26 -5,49 -13,69 -8,19 -20,35 -37,49 -17,14 -40,25 -67,34 -28,10 -62,18 -102,24 -29,5 -53,7 -72,8 -19,2 -35,1 -50,-1 -15,-3 -29,-7 -42,-13 -21,-9 -38,-21 -51,-35 -12,-14 -23,-33 -30,-56 -8,-23 -15,-56 -22,-97 -8,-49 -13,-87 -15,-115 -2,-28 -2,-50 0,-68 3,-17 8,-33 17,-47 6,-11 15,-23 26,-33 11,-11 25,-20 39,-28 15,-8 29,-14 44,-18 24,-7 54,-14 90,-19 z m -70,232 3,17 c 0,5 1,11 2,18 1,7 1,12 2,13 0,2 0,3 0,4 6,35 11,60 15,76 4,16 11,28 19,35 8,7 18,11 31,12 13,0 33,-1 60,-6 22,-3 38,-8 49,-13 11,-5 19,-13 23,-23 5,-11 6,-25 5,-44 0,-19 -3,-46 -9,-79 -6,-38 -11,-63 -14,-77 -3,-13 -8,-23 -14,-32 -5,-7 -11,-12 -18,-15 -7,-3 -16,-4 -27,-4 -12,0 -26,2 -45,5 -31,4 -52,11 -64,18 -11,7 -18,19 -21,36 -3,11 -2,31 3,59 z"
       inkscape:connector-curvature="0"
       style="fill:#15c3f6;fill-rule:nonzero" /><path
       id="4"
       class="fil4"
       d="m 13,7892 138,-2 0,16 c 0,32 -1,58 -4,78 -4,19 -10,35 -18,47 -9,12 -22,23 -39,34 -13,8 -25,14 -37,18 -11,3 -26,6 -45,7 -19,1 -47,2 -83,3 -30,0 -53,0 -69,-1 -16,-1 -30,-3 -41,-5 -12,-3 -22,-7 -33,-12 -26,-13 -46,-31 -59,-55 -13,-23 -21,-54 -24,-92 -2,-15 -3,-46 -4,-91 l -2,-29 0,-29 c -1,-40 3,-73 10,-98 7,-25 19,-45 36,-62 21,-20 45,-34 71,-41 27,-7 71,-11 132,-12 44,0 76,1 95,4 19,3 37,9 53,19 11,7 20,16 28,27 8,11 14,23 18,38 5,15 7,32 8,51 1,11 2,19 2,25 0,6 1,14 1,24 l -138,1 c 0,-3 0,-5 0,-6 0,-1 -1,-2 -1,-4 -1,-17 -3,-30 -7,-38 -5,-8 -13,-14 -25,-17 -13,-2 -31,-4 -55,-3 -25,0 -43,3 -55,9 -11,5 -19,15 -24,29 -2,10 -4,25 -5,44 0,20 -1,55 0,107 0,27 3,48 8,62 5,14 14,23 26,28 12,5 31,8 56,7 24,0 42,-2 54,-6 13,-3 21,-10 26,-19 5,-9 7,-23 7,-41 0,-5 0,-11 -1,-15 z"
       inkscape:connector-curvature="0"
       style="fill:#15c3f6;fill-rule:nonzero" /><polygon
       id="5"
       class="fil4"
       points="577,7919 359,7890 345,7991 583,8023 568,8135 192,8085 261,7571 632,7620 617,7733 383,7702 371,7795 590,7825 "
       style="fill:#15c3f6;fill-rule:nonzero" /><path
       id="6"
       class="fil4"
       d="m 940,8148 -178,-54 -49,79 -138,-43 299,-450 202,61 0,542 -136,-41 0,-94 z m 4,-104 3,-234 -127,197 124,37 z"
       inkscape:connector-curvature="0"
       style="fill:#15c3f6;fill-rule:nonzero" /><path
       id="7"
       class="fil4"
       d="m 1793,8061 -238,461 -209,-108 28,-232 c 5,-40 8,-64 9,-73 1,-9 2,-16 3,-21 0,-5 1,-14 3,-26 2,-13 5,-37 10,-71 l -5,-2 -14,29 c -2,5 -3,8 -4,11 -2,2 -3,5 -4,8 -1,2 -3,6 -5,10 -22,47 -40,85 -56,115 l -95,185 -120,-63 238,-460 207,107 -27,232 c -5,50 -9,80 -10,88 -1,7 -5,40 -13,97 l 5,3 12,-29 8,-13 c 20,-46 40,-88 60,-126 l 95,-185 122,63 z"
       inkscape:connector-curvature="0"
       style="fill:#15c3f6;fill-rule:nonzero" /><polygon
       id="8"
       class="fil4"
       points="1899,8140 2013,8219 1719,8645 1605,8566 "
       style="fill:#15c3f6;fill-rule:nonzero" /><path
       id="9"
       class="fil4"
       d="m 2066,8815 -141,-121 -77,52 -110,-95 455,-293 161,138 -218,497 -107,-93 37,-85 z m 45,-94 96,-214 -194,130 98,84 z"
       inkscape:connector-curvature="0"
       style="fill:#15c3f6;fill-rule:nonzero" /><circle
       class="fil5"
       cy="11000"
       r="3780"
       id="circle4010"
       cx="0"
       style="fill:none" /></g></svg>