<?xml version="1.0" encoding="UTF-8" standalone="no"?>
<!-- Creator: CorelDRAW X7 -->

<svg
   xmlns:dc="http://purl.org/dc/elements/1.1/"
   xmlns:cc="http://creativecommons.org/ns#"
   xmlns:rdf="http://www.w3.org/1999/02/22-rdf-syntax-ns#"
   xmlns:svg="http://www.w3.org/2000/svg"
   xmlns="http://www.w3.org/2000/svg"
   xmlns:sodipodi="http://sodipodi.sourceforge.net/DTD/sodipodi-0.dtd"
   xmlns:inkscape="http://www.inkscape.org/namespaces/inkscape"
   xml:space="preserve"
   width="7.8740005in"
   height="7.8740005in"
   version="1.1"
   style="clip-rule:evenodd;fill-rule:evenodd;image-rendering:optimizeQuality;shape-rendering:geometricPrecision;text-rendering:geometricPrecision"
   viewBox="0 0 7874.0005 7874.0005"
   id="svg5244"
   inkscape:version="0.91 r13725"
   sodipodi:docname="PanOceania - Teutonic Knights - [N3] [Vyo].svg"><metadata
     id="metadata5268"><rdf:RDF><cc:Work
         rdf:about=""><dc:format>image/svg+xml</dc:format><dc:type
           rdf:resource="http://purl.org/dc/dcmitype/StillImage" /></cc:Work></rdf:RDF></metadata><sodipodi:namedview
     pagecolor="#ffffff"
     bordercolor="#666666"
     borderopacity="1"
     objecttolerance="10"
     gridtolerance="10"
     guidetolerance="10"
     inkscape:pageopacity="0"
     inkscape:pageshadow="2"
     inkscape:window-width="640"
     inkscape:window-height="480"
     id="namedview5266"
     showgrid="false"
     inkscape:zoom="0.23838384"
     inkscape:cx="736.83001"
     inkscape:cy="849.33005"
     inkscape:window-x="0"
     inkscape:window-y="0"
     inkscape:window-maximized="0"
     inkscape:current-layer="svg5244" /><defs
     id="defs5246"><style
       type="text/css"
       id="style5248"><![CDATA[
    .fil2 {fill:none}
    .fil0 {fill:black}
    .fil1 {fill:white}
    .fil3 {fill:black;fill-rule:nonzero}
   ]]></style></defs><g
     id="Layer_x0020_1"
     transform="translate(3937,-7063)"><metadata
       id="CorelCorpID_0Corel-Layer" /><circle
       class="fil0"
       cy="11000"
       r="3937"
       id="circle5252"
       cx="0"
       style="fill:#000000" /><circle
       class="fil1"
       cy="11000"
       r="3858"
       id="circle5254"
       cx="0"
       style="fill:#ffffff" /><circle
       class="fil2"
       cy="11000"
       r="3898"
       id="circle5256"
       cx="0"
       style="fill:none" /><path
       class="fil3"
       d="m -3220,12565 73,141 c 6,13 12,22 18,29 6,7 13,11 20,12 8,2 17,1 29,-3 11,-3 25,-10 41,-18 13,-7 24,-13 33,-19 9,-6 15,-13 19,-19 4,-7 6,-14 6,-22 0,-8 -3,-17 -9,-28 l -79,-152 -151,79 z m -116,-47 295,-154 127,244 c 4,8 8,17 12,27 5,11 10,24 15,37 8,21 5,43 -10,65 -14,22 -41,43 -80,63 -9,5 -20,11 -34,18 -14,6 -30,14 -48,23 -27,12 -53,15 -77,6 -24,-8 -43,-26 -58,-55 l -142,-274 z m 219,413 273,-192 199,283 -61,43 -146,-207 -47,34 136,193 -54,38 -136,-193 -49,34 146,207 -61,43 -200,-283 z m 690,349 63,72 -159,137 c -25,21 -47,34 -68,39 -21,4 -42,0 -64,-12 -12,-7 -25,-17 -38,-31 -13,-14 -27,-30 -43,-48 -17,-20 -33,-38 -46,-54 -14,-16 -25,-30 -34,-44 -9,-14 -15,-27 -19,-39 -4,-13 -5,-25 -3,-37 3,-13 9,-25 18,-38 9,-13 22,-27 39,-42 l 155,-134 63,73 -133,114 c -10,9 -19,17 -25,24 -7,6 -11,12 -14,18 -3,6 -4,12 -3,17 1,6 3,12 7,19 5,7 11,15 18,24 8,9 17,20 28,33 8,9 15,17 22,25 6,7 12,13 17,18 5,5 11,9 16,11 5,3 10,4 16,3 8,0 17,-3 25,-9 8,-6 17,-14 29,-24 l 133,-115 z m 186,290 -164,189 -72,-63 164,-188 -105,-92 55,-63 280,244 -55,63 -103,-90 z m 332,280 c 4,-7 6,-13 7,-18 1,-4 0,-9 -3,-14 -3,-5 -8,-10 -15,-16 -7,-6 -16,-13 -28,-21 -2,-1 -3,-2 -4,-3 -2,-1 -3,-2 -6,-3 -17,-11 -31,-21 -42,-28 -11,-8 -20,-14 -28,-18 -8,-3 -14,-5 -20,-4 -5,2 -10,6 -16,14 -5,6 -6,13 -4,20 2,6 7,13 15,19 11,8 22,16 32,23 10,8 20,15 28,21 6,4 11,8 17,12 6,4 11,7 16,11 21,15 39,28 54,41 14,12 25,24 31,37 6,12 7,26 4,40 -3,15 -11,32 -26,52 -10,14 -20,26 -29,34 -10,8 -19,13 -29,15 -10,3 -21,3 -31,0 -11,-2 -23,-7 -36,-13 -7,-4 -21,-13 -41,-26 -20,-12 -46,-30 -76,-51 -30,-21 -54,-40 -71,-55 -18,-15 -28,-29 -32,-42 -3,-9 -4,-17 -3,-24 1,-7 3,-15 6,-21 3,-7 7,-14 12,-21 5,-7 10,-14 16,-23 l 76,55 c -2,3 -4,6 -7,9 -2,3 -3,7 -4,10 0,4 0,7 2,12 2,4 6,9 12,15 4,2 9,7 18,13 9,7 20,15 34,25 18,13 32,23 44,30 11,8 21,13 28,16 8,3 14,4 18,2 5,-2 9,-6 14,-12 4,-6 6,-11 6,-16 0,-5 -1,-10 -4,-15 -4,-4 -8,-9 -14,-13 -6,-5 -12,-9 -19,-14 -25,-18 -47,-34 -66,-48 -19,-13 -36,-25 -49,-37 -13,-11 -24,-21 -32,-31 -8,-9 -12,-19 -14,-29 -2,-11 -1,-22 4,-33 4,-12 11,-25 22,-40 10,-14 19,-24 28,-33 9,-8 18,-13 28,-17 10,-3 20,-3 31,-1 11,2 23,7 36,14 9,4 23,13 42,24 19,12 42,28 69,47 15,10 28,20 39,28 11,8 21,16 29,24 9,7 15,14 21,21 5,7 9,14 11,22 3,8 4,16 3,23 0,7 -1,14 -4,21 -2,7 -6,14 -10,21 -4,7 -9,14 -15,22 l -75,-53 z m 360,233 c 5,-9 8,-16 8,-22 1,-6 -1,-12 -6,-17 -5,-5 -12,-11 -23,-18 -11,-6 -25,-15 -43,-25 -20,-12 -36,-21 -49,-28 -13,-6 -24,-10 -33,-10 -9,0 -17,3 -25,11 -7,7 -16,19 -25,36 -13,21 -22,38 -27,50 -6,13 -7,23 -5,33 3,9 11,17 23,26 12,8 29,19 52,32 16,10 31,18 42,24 11,7 21,11 29,12 8,2 15,1 21,-3 6,-4 12,-12 19,-23 l 80,47 c -1,2 -2,4 -3,6 -1,2 -2,4 -4,6 -8,15 -17,27 -25,38 -8,10 -17,18 -26,23 -8,5 -18,8 -28,9 -10,0 -20,-2 -32,-7 -18,-8 -36,-17 -52,-24 -16,-8 -30,-16 -43,-24 -42,-24 -81,-48 -116,-72 -13,-9 -24,-19 -30,-31 -7,-11 -10,-24 -10,-39 1,-15 4,-31 11,-50 7,-18 17,-39 31,-62 8,-15 16,-28 23,-40 8,-13 15,-23 23,-32 8,-10 16,-18 24,-24 9,-6 19,-11 29,-14 11,-3 22,-4 33,-2 11,1 23,4 36,10 14,5 28,12 43,20 16,9 33,18 52,29 33,20 60,36 81,50 20,14 35,28 43,41 9,14 11,29 8,46 -3,17 -12,39 -27,64 l -79,-46 z m 394,167 43,-112 89,35 -121,310 -89,-34 46,-119 -199,-77 -46,118 -89,-35 122,-311 88,35 -43,112 199,78 z m 71,257 74,-325 338,78 -17,73 -246,-57 -13,57 230,53 -15,64 -230,-53 -13,58 246,57 -17,73 -337,-78 z m 518,-58 140,18 c 3,0 5,1 6,1 2,1 4,1 6,1 11,2 20,2 27,2 6,-1 11,-3 15,-6 4,-3 6,-7 8,-13 1,-6 3,-13 4,-23 1,-9 1,-16 0,-21 -1,-5 -3,-10 -7,-13 -4,-3 -9,-6 -15,-7 -7,-2 -16,-3 -26,-5 l -147,-19 -11,85 z m -11,80 -11,85 -95,-12 43,-331 287,38 c 19,2 35,6 47,12 13,5 23,13 30,22 7,9 11,21 13,34 2,14 1,31 -1,50 -3,20 -6,35 -11,46 -4,11 -10,20 -16,26 -7,6 -14,10 -23,12 -9,2 -19,4 -29,6 8,3 16,6 23,9 8,2 14,6 19,11 5,5 9,12 11,20 2,9 2,21 0,36 l -7,59 -95,-12 6,-44 c 2,-14 0,-25 -4,-32 -5,-8 -15,-12 -31,-15 l -156,-20 z m 543,-49 c 0,17 1,32 2,43 0,12 2,21 4,29 2,8 5,13 10,17 4,4 10,7 18,9 7,2 17,3 28,3 11,0 25,0 41,-1 33,0 58,-1 76,-2 18,-2 31,-5 39,-11 9,-6 14,-15 15,-28 2,-13 2,-31 2,-55 -1,-19 -2,-34 -4,-46 -2,-11 -6,-19 -11,-24 -6,-6 -14,-9 -25,-10 -11,-1 -25,-2 -43,-1 -33,1 -59,1 -80,2 -20,0 -35,2 -46,7 -11,4 -18,12 -21,22 -4,11 -5,26 -5,46 z m -95,48 c -1,-31 -1,-59 -1,-81 0,-23 3,-43 8,-58 4,-16 12,-29 23,-38 11,-10 26,-16 47,-21 14,-3 39,-5 76,-6 37,-2 85,-3 144,-4 20,-1 37,1 51,4 15,3 27,9 37,17 10,7 17,17 23,30 6,12 10,28 13,46 1,9 2,21 3,36 0,15 1,32 1,52 1,25 0,45 -3,62 -2,17 -6,31 -13,43 -7,11 -16,20 -27,27 -11,7 -25,12 -42,15 -17,4 -37,6 -60,7 -23,2 -50,3 -81,3 -35,1 -64,1 -89,-1 -25,-1 -46,-7 -62,-15 -16,-9 -28,-23 -35,-41 -8,-19 -13,-44 -13,-77 z m 559,-61 141,-19 c 3,0 5,0 6,0 2,0 4,0 6,-1 11,-1 20,-3 26,-5 6,-2 11,-5 13,-9 3,-4 5,-9 5,-15 0,-6 -1,-14 -2,-23 -1,-9 -3,-16 -6,-21 -2,-5 -5,-8 -10,-11 -4,-2 -10,-3 -16,-3 -7,1 -16,1 -26,3 l -148,19 11,85 z m 11,80 11,85 -95,13 -43,-331 286,-37 c 19,-3 36,-3 49,-1 14,2 25,7 35,14 9,7 16,17 21,30 6,13 9,29 12,48 3,20 3,35 2,47 -2,12 -5,22 -10,29 -4,8 -11,14 -19,18 -8,4 -17,9 -27,14 9,0 18,1 26,2 7,0 15,2 21,6 6,3 11,9 16,17 4,7 7,19 9,34 l 8,59 -95,13 -6,-44 c -1,-14 -5,-24 -12,-30 -6,-6 -17,-8 -34,-6 l -155,20 z m 436,-74 153,-44 c 13,-4 23,-8 31,-12 8,-4 14,-10 17,-18 3,-7 4,-16 2,-28 -1,-11 -4,-26 -10,-45 -4,-13 -8,-25 -12,-35 -4,-10 -9,-18 -15,-23 -5,-5 -12,-9 -20,-10 -8,-1 -17,0 -29,3 l -164,47 47,165 z m -70,104 -91,-320 264,-76 c 8,-2 18,-4 29,-7 12,-2 25,-4 39,-7 22,-4 43,4 62,23 18,18 34,49 46,91 3,10 6,22 10,37 4,15 8,32 13,51 7,30 4,55 -9,77 -13,22 -35,37 -65,46 l -298,85 z m 448,-136 -123,-310 322,-127 28,69 -235,93 21,54 220,-87 24,62 -220,87 22,55 235,-93 28,70 -322,127 z m 585,-660 165,289 -130,75 -287,-125 125,217 -78,45 -165,-290 130,-75 286,125 -124,-217 78,-44 z m 296,-99 c -5,-6 -10,-10 -14,-12 -5,-2 -10,-2 -15,-1 -6,2 -12,5 -20,10 -7,5 -16,12 -27,20 -2,2 -4,3 -5,4 -1,1 -3,2 -5,4 -15,13 -28,24 -39,33 -10,8 -19,15 -24,22 -6,6 -9,12 -10,17 0,6 3,12 8,20 5,6 12,9 18,9 7,0 15,-3 23,-9 11,-8 22,-16 32,-23 10,-8 19,-15 28,-22 5,-4 10,-8 16,-12 5,-5 10,-9 15,-13 21,-15 39,-29 55,-39 15,-11 30,-17 44,-19 14,-2 27,0 40,7 13,7 27,21 43,40 10,14 18,26 23,38 5,11 7,22 7,32 -1,10 -4,20 -9,30 -6,10 -13,20 -24,30 -6,6 -18,17 -36,32 -18,16 -41,35 -71,58 -29,23 -53,40 -73,53 -19,12 -36,18 -49,18 -9,1 -17,-1 -24,-4 -7,-3 -13,-7 -19,-12 -5,-5 -11,-10 -16,-17 -5,-7 -11,-14 -17,-22 l 74,-57 c 2,2 4,5 7,9 2,3 5,5 8,7 3,1 7,2 12,1 5,0 11,-3 18,-7 3,-3 9,-7 18,-14 9,-6 20,-14 33,-25 17,-13 31,-24 42,-33 11,-9 18,-16 23,-23 5,-6 7,-12 7,-16 0,-5 -3,-11 -7,-17 -5,-6 -9,-9 -14,-11 -5,-1 -10,-1 -15,1 -5,1 -11,4 -17,9 -6,4 -12,9 -19,14 -24,18 -46,35 -64,49 -19,15 -35,27 -50,37 -14,10 -27,17 -39,21 -11,5 -22,7 -32,6 -11,-2 -21,-6 -31,-14 -10,-7 -20,-18 -32,-32 -10,-13 -17,-25 -23,-36 -5,-12 -8,-22 -8,-32 0,-11 3,-21 8,-30 5,-10 13,-20 23,-31 7,-7 19,-18 36,-33 17,-15 38,-32 65,-53 14,-11 26,-21 37,-29 12,-9 22,-16 32,-21 9,-6 18,-11 26,-14 8,-3 16,-5 24,-4 9,0 17,1 23,3 7,2 13,6 19,10 6,5 11,10 17,16 5,6 11,13 17,20 l -73,57 z m 251,-245 172,180 -68,66 -173,-180 -101,96 -58,-60 269,-257 57,60 -98,95 z m 337,-189 -143,-36 56,137 87,-101 z m 75,19 -132,152 26,63 -69,79 -139,-349 84,-96 363,90 -69,78 -64,-17 z m 204,-408 -147,-15 75,127 72,-112 z m 77,8 -108,169 34,59 -56,88 -188,-325 68,-108 372,37 -56,88 -66,-8 z m -19,-360 222,115 -44,85 -222,-115 -64,124 -74,-38 170,-331 74,39 -62,121 z"
       id="path5258"
       inkscape:connector-curvature="0"
       style="fill:#000000;fill-rule:nonzero" /><circle
       class="fil2"
       cy="11000"
       r="3898"
       id="circle5260"
       cx="0"
       style="fill:none" /><path
       class="fil3"
       d="m -3539,11374 c -12,2 -21,4 -26,7 -6,3 -10,7 -12,13 -2,6 -3,14 -1,24 1,11 3,24 5,40 2,19 5,34 7,46 2,11 6,20 12,26 6,5 15,9 27,9 12,1 29,0 51,-3 29,-4 51,-8 66,-11 16,-3 27,-8 34,-15 6,-6 10,-16 9,-28 0,-12 -1,-28 -4,-49 -2,-16 -4,-29 -6,-40 -1,-10 -4,-18 -8,-24 -4,-6 -9,-9 -17,-11 -8,-2 -20,-1 -35,1 l -10,-75 c 3,-1 6,-1 8,-2 3,0 6,-1 9,-1 19,-3 37,-4 52,-5 15,0 29,1 39,3 11,3 20,7 28,13 7,6 12,14 15,24 4,16 9,31 12,45 3,14 6,27 7,39 6,40 9,77 10,111 1,14 -2,26 -9,36 -6,10 -16,19 -30,27 -14,8 -32,14 -54,20 -22,6 -49,11 -80,15 -20,3 -38,5 -54,7 -17,2 -32,3 -46,3 -14,1 -27,0 -38,-2 -12,-2 -23,-5 -33,-10 -10,-5 -19,-12 -25,-19 -6,-8 -11,-17 -15,-28 -4,-11 -7,-24 -9,-38 -3,-14 -5,-30 -8,-48 -4,-31 -6,-56 -7,-77 -1,-20 2,-36 10,-49 7,-13 20,-23 38,-30 18,-7 44,-13 78,-18 l 10,74 z m -152,-203 163,-2 c -10,-3 -19,-6 -26,-10 -7,-3 -12,-8 -16,-14 -5,-5 -8,-12 -9,-20 -2,-8 -3,-18 -3,-29 0,-15 1,-29 3,-41 3,-12 9,-23 20,-33 10,-11 24,-18 40,-23 16,-4 37,-7 62,-7 l 152,-2 1,67 -136,2 c -12,0 -23,1 -31,1 -8,1 -15,3 -20,7 -5,3 -9,8 -11,16 -2,7 -3,16 -3,29 0,11 1,20 4,27 2,7 5,13 11,17 5,5 13,8 23,10 9,1 21,2 36,2 3,0 6,0 8,-1 2,0 5,0 8,0 l 113,-2 1,67 -389,6 -1,-67 z m 170,-292 c -10,-2 -19,-5 -26,-9 -8,-3 -14,-8 -19,-13 -5,-6 -8,-12 -11,-20 -2,-8 -3,-17 -3,-28 0,-17 3,-31 9,-40 5,-10 13,-17 23,-21 11,-5 24,-8 40,-8 15,-1 33,-2 53,-1 l -1,61 c -7,1 -14,1 -20,1 -6,1 -11,2 -15,4 -4,2 -7,6 -9,11 -3,5 -4,12 -4,21 0,28 20,42 63,43 l 138,2 -1,66 -272,-5 1,-65 54,1 z m -40,-244 272,20 -5,66 -272,-21 5,-65 z m -116,-9 74,5 -5,66 -74,-6 5,-65 z m 304,-123 c -3,17 -5,32 -8,45 -2,13 -7,23 -13,32 -6,8 -15,14 -27,17 -12,3 -29,3 -51,0 -14,-2 -27,-5 -38,-10 -11,-5 -20,-11 -25,-18 -8,-8 -12,-21 -13,-39 0,-18 1,-41 5,-69 3,-20 6,-38 9,-51 3,-14 8,-24 15,-32 6,-8 15,-13 26,-16 11,-2 26,-2 44,-1 l -9,69 c -5,0 -8,0 -11,2 -3,1 -5,3 -7,7 -2,3 -4,8 -5,13 -1,6 -2,13 -3,21 -1,9 -2,16 -3,23 -1,7 -1,12 0,17 1,5 3,9 6,11 3,3 8,5 14,6 5,1 9,0 12,-1 3,-2 5,-5 7,-9 2,-4 3,-9 4,-15 1,-7 2,-15 3,-24 0,-4 1,-8 1,-13 1,-4 1,-8 2,-12 2,-17 5,-32 8,-45 3,-12 8,-22 15,-30 6,-7 15,-12 27,-14 11,-3 26,-3 44,0 21,3 38,7 50,12 12,6 21,14 27,25 6,10 9,24 9,41 0,16 -2,37 -5,62 -3,20 -6,37 -9,51 -3,14 -8,26 -15,35 -7,9 -17,15 -29,19 -13,3 -30,3 -52,1 l 9,-68 c 7,1 12,0 16,-1 4,-1 7,-4 9,-8 3,-4 5,-9 6,-16 1,-7 3,-15 4,-24 1,-11 2,-20 3,-27 1,-8 1,-14 0,-19 -1,-5 -3,-8 -7,-11 -3,-3 -8,-5 -15,-5 -9,-2 -16,0 -18,5 -3,5 -6,14 -7,26 l -5,38 z m -92,-404 66,15 -24,104 84,19 c 7,2 13,3 19,4 6,1 12,2 17,1 5,-1 9,-2 12,-5 4,-4 6,-9 8,-15 1,-7 2,-13 0,-17 -1,-4 -4,-8 -8,-10 -3,-3 -8,-5 -15,-7 -6,-1 -13,-3 -21,-5 l 11,-50 c 11,2 20,4 29,7 9,2 17,4 24,6 8,2 14,5 21,8 6,3 12,7 17,11 10,9 16,20 17,31 1,12 0,25 -4,41 -3,16 -8,29 -13,40 -4,11 -11,20 -20,26 -8,6 -19,10 -32,11 -13,1 -29,0 -48,-5 l -113,-25 -7,33 -66,-15 7,-33 -66,-15 15,-66 66,15 24,-104 z m 266,-150 c 21,9 34,21 39,36 6,15 6,34 -1,58 -4,16 -10,29 -18,40 -7,10 -17,18 -28,23 -12,5 -26,7 -42,7 -17,-1 -37,-5 -60,-11 l -146,-41 18,-64 137,38 c 12,3 22,5 30,6 8,0 15,-1 20,-4 5,-4 10,-9 13,-16 3,-7 7,-16 10,-28 7,-27 -2,-46 -29,-58 -3,-2 -9,-4 -15,-6 -7,-2 -14,-4 -21,-6 l -115,-32 17,-64 263,74 -18,63 -54,-15 z m 32,-216 c -6,15 -12,29 -17,42 -6,12 -13,21 -21,28 -8,6 -18,10 -30,10 -13,1 -29,-3 -49,-11 -14,-5 -25,-11 -35,-19 -10,-7 -17,-15 -21,-23 -5,-10 -6,-24 -3,-41 3,-18 10,-40 20,-66 8,-19 15,-35 21,-48 6,-12 13,-22 22,-28 8,-6 17,-9 29,-9 11,1 25,4 43,10 l -25,64 c -4,-1 -8,-1 -11,-1 -3,1 -6,3 -8,5 -3,3 -5,8 -8,13 -2,5 -5,12 -8,19 -3,8 -6,16 -8,22 -2,6 -3,12 -4,17 0,4 1,9 3,12 3,3 7,6 13,8 5,2 9,3 12,2 3,-1 6,-3 8,-6 3,-4 5,-9 8,-15 2,-6 5,-13 8,-22 2,-4 3,-8 4,-12 2,-5 3,-9 5,-12 6,-16 12,-30 18,-42 6,-11 13,-20 21,-25 8,-6 18,-9 30,-8 11,0 26,3 43,10 20,8 35,15 45,24 11,8 18,18 21,29 3,12 3,26 -1,42 -3,17 -10,36 -19,60 -7,18 -14,34 -20,48 -6,13 -14,23 -23,30 -8,7 -19,11 -32,12 -14,0 -30,-4 -51,-11 l 24,-64 c 7,2 12,3 16,2 4,0 8,-2 11,-5 3,-3 6,-8 9,-14 3,-6 6,-14 10,-23 3,-10 7,-18 9,-26 3,-7 4,-13 4,-18 0,-5 -1,-9 -4,-12 -3,-4 -7,-6 -13,-9 -9,-3 -16,-3 -20,1 -4,4 -8,12 -12,24 l -14,36 z m 37,-701 268,315 -49,85 -404,-77 42,-73 304,59 -204,-235 43,-74 z m 155,-20 229,147 -35,55 -229,-147 35,-55 z m -98,-63 62,40 -35,55 -63,-40 36,-55 z m 209,0 c -8,-9 -14,-17 -18,-25 -5,-8 -7,-16 -7,-24 0,-8 2,-17 6,-26 4,-10 10,-20 18,-32 14,-20 29,-31 47,-36 17,-5 37,-3 61,7 9,4 18,9 27,15 9,5 18,12 27,18 l 118,82 -39,55 -117,-82 c -10,-7 -18,-12 -26,-15 -7,-3 -13,-4 -19,-4 -5,1 -11,4 -16,8 -5,5 -11,12 -18,22 -7,10 -11,19 -12,27 -2,8 -1,15 2,22 3,7 9,14 16,20 8,7 17,14 28,22 l 100,69 -38,54 -223,-155 37,-54 46,32 z m 341,-255 44,-50 c 18,16 32,31 41,44 8,14 13,27 13,40 -1,13 -5,27 -14,42 -9,14 -22,31 -39,50 -14,16 -28,29 -40,37 -13,9 -26,13 -40,12 -14,0 -29,-5 -46,-15 -17,-9 -36,-24 -58,-43 -24,-21 -41,-39 -51,-55 -11,-16 -17,-31 -17,-45 0,-14 4,-28 13,-43 9,-15 22,-31 38,-49 14,-17 28,-29 39,-38 12,-9 24,-13 36,-14 12,-1 25,2 38,9 13,7 28,19 45,33 l -43,50 c -6,-4 -12,-7 -16,-9 -5,-2 -9,-2 -13,-1 -5,1 -10,3 -15,8 -5,4 -11,10 -18,18 -8,9 -14,17 -17,24 -4,7 -6,13 -5,20 0,6 3,13 8,20 5,7 13,15 23,24 11,10 21,17 29,21 8,4 16,6 22,5 6,-1 12,-4 18,-9 6,-5 13,-11 20,-19 12,-14 19,-25 21,-35 2,-10 -2,-19 -11,-27 l -5,-5 z m -3,-230 197,187 -45,48 -198,-187 46,-48 z m -85,-80 54,51 -45,47 -54,-51 45,-47 z m 265,-89 46,49 -78,73 59,63 c 5,5 10,10 14,14 5,4 9,8 13,10 5,2 9,3 14,2 5,0 9,-3 15,-8 5,-5 8,-9 9,-14 1,-4 1,-8 -1,-13 -1,-4 -4,-8 -9,-13 -4,-5 -9,-10 -15,-16 l 38,-36 c 7,8 14,15 20,22 6,6 11,13 16,19 5,6 10,12 13,18 4,6 6,12 8,18 4,14 3,26 -3,36 -5,10 -14,20 -26,32 -11,11 -22,19 -33,26 -10,6 -20,10 -31,10 -10,1 -21,-2 -33,-8 -11,-7 -24,-17 -37,-31 l -79,-84 -25,23 -47,-49 25,-24 -46,-49 48,-46 47,49 78,-73 z m 198,46 82,93 c 11,13 20,25 25,35 6,10 9,19 9,28 0,8 -2,17 -6,24 -5,8 -12,16 -20,24 -3,2 -5,4 -8,7 -3,2 -5,4 -7,5 l -41,-46 c 2,0 3,-1 4,-1 1,-1 2,-2 3,-3 7,-6 10,-13 7,-21 -3,-7 -8,-16 -17,-27 l -16,14 -72,-81 57,-51 z m 222,-337 c -7,-9 -13,-16 -18,-20 -5,-4 -11,-6 -17,-5 -6,1 -14,5 -22,10 -9,6 -20,14 -33,23 -16,11 -28,20 -37,27 -10,8 -15,15 -18,23 -2,8 -1,17 4,28 5,11 14,26 27,45 16,23 29,41 39,53 10,13 20,20 29,23 9,3 19,2 29,-4 11,-6 25,-15 42,-27 13,-9 24,-17 33,-23 8,-6 14,-12 18,-18 3,-6 3,-13 1,-21 -2,-7 -7,-17 -16,-30 l 62,-43 c 2,2 3,4 5,6 2,2 3,5 5,7 11,16 21,31 28,45 7,13 13,25 15,36 3,11 3,21 1,30 -2,9 -6,17 -14,24 -12,12 -23,22 -34,32 -11,9 -22,17 -32,24 -32,23 -64,43 -94,60 -12,7 -23,9 -36,8 -12,-1 -24,-6 -38,-14 -13,-9 -27,-22 -43,-39 -15,-17 -31,-39 -49,-64 -12,-17 -22,-32 -31,-45 -10,-14 -17,-27 -24,-39 -7,-12 -12,-24 -16,-36 -3,-11 -5,-22 -6,-34 0,-11 2,-21 6,-30 4,-9 10,-18 18,-26 8,-9 18,-17 29,-26 12,-9 25,-18 40,-28 25,-18 47,-32 64,-42 18,-10 34,-15 49,-14 14,1 29,7 44,20 14,13 31,34 51,62 l -61,42 z m 106,-220 80,142 c -3,-10 -4,-20 -4,-27 0,-8 1,-15 4,-22 3,-6 8,-12 14,-17 6,-5 14,-11 24,-16 13,-8 26,-13 38,-17 12,-3 25,-3 38,1 14,5 27,13 39,25 12,12 24,29 36,51 l 75,133 -59,33 -66,-119 c -6,-11 -12,-20 -17,-27 -4,-6 -9,-11 -15,-14 -5,-3 -12,-4 -19,-2 -7,1 -16,5 -27,11 -9,6 -17,11 -22,16 -6,5 -9,12 -10,18 -1,7 0,15 3,25 3,9 8,20 15,33 2,3 3,5 4,7 2,1 3,3 4,6 l 56,99 -58,33 -192,-339 59,-33 z m 352,9 c -2,-10 -4,-19 -4,-27 0,-8 2,-16 5,-23 3,-6 7,-12 13,-18 6,-5 14,-10 24,-15 16,-7 29,-10 40,-9 11,1 21,5 29,13 9,7 17,18 24,32 8,13 16,29 24,48 l -56,25 c -4,-6 -7,-12 -10,-18 -3,-5 -6,-9 -10,-12 -4,-3 -8,-4 -13,-4 -6,0 -13,2 -21,6 -26,12 -30,37 -12,75 l 57,126 -60,27 -112,-248 60,-27 22,49 z m 197,-142 102,252 -61,25 -102,-253 61,-24 z m -44,-108 28,68 -61,25 -28,-69 61,-24 z m 246,216 c -16,5 -30,9 -43,12 -13,4 -25,4 -35,2 -10,-2 -19,-8 -27,-17 -8,-9 -16,-25 -22,-45 -5,-14 -7,-27 -7,-39 -1,-13 1,-23 5,-31 4,-10 14,-20 30,-28 16,-8 37,-17 64,-26 20,-6 37,-10 50,-13 14,-3 26,-3 35,-1 10,3 19,8 26,17 7,9 13,22 20,40 l -66,21 c -2,-4 -4,-7 -6,-9 -3,-2 -6,-4 -10,-4 -4,0 -9,1 -14,2 -6,1 -13,3 -21,6 -8,3 -15,5 -21,7 -7,2 -12,5 -16,8 -3,3 -6,6 -7,10 -2,4 -1,9 1,15 1,5 3,8 6,10 3,2 6,3 10,3 5,0 10,-1 16,-3 6,-2 14,-5 23,-8 4,-1 8,-2 12,-4 4,-2 8,-3 12,-4 17,-5 31,-9 44,-12 12,-2 23,-2 33,1 9,2 18,8 25,18 7,9 13,22 19,40 6,20 10,37 10,50 0,14 -3,25 -10,35 -7,10 -18,18 -33,26 -16,7 -35,14 -59,22 -19,6 -36,11 -50,14 -14,3 -27,4 -38,1 -11,-2 -21,-8 -29,-18 -9,-10 -17,-25 -24,-47 l 66,-20 c 2,6 4,11 7,13 3,3 7,5 12,6 4,0 10,0 16,-2 7,-2 15,-4 24,-7 10,-3 19,-6 26,-8 7,-3 12,-6 16,-9 4,-3 7,-7 8,-11 1,-4 0,-9 -2,-15 -3,-10 -7,-15 -13,-15 -6,0 -14,1 -26,5 l -37,12 z m 323,-261 15,66 -104,24 19,83 c 2,7 3,14 5,20 2,6 4,11 6,15 3,4 7,7 11,9 4,2 10,2 17,0 7,-1 12,-4 15,-7 3,-3 5,-7 6,-11 0,-5 0,-10 -1,-17 -2,-6 -3,-13 -5,-21 l 50,-12 c 3,11 5,20 7,29 2,9 3,17 4,24 2,8 2,16 2,23 0,7 -1,13 -2,20 -4,13 -11,23 -21,29 -10,6 -22,10 -38,14 -16,4 -30,6 -42,6 -12,1 -23,-2 -32,-7 -9,-4 -17,-12 -24,-24 -7,-11 -12,-26 -17,-45 l -26,-113 -33,8 -15,-66 33,-8 -15,-66 65,-15 16,66 104,-24 z m 251,175 c 1,22 -5,39 -16,51 -11,11 -28,19 -52,23 -17,3 -32,3 -44,1 -13,-2 -24,-8 -33,-16 -10,-8 -18,-20 -24,-35 -7,-15 -12,-35 -16,-59 l -25,-149 66,-11 24,140 c 2,12 4,22 7,29 3,8 7,13 12,17 6,3 12,5 20,5 8,0 18,-1 30,-3 27,-5 40,-21 40,-51 0,-4 -1,-10 -1,-16 -1,-7 -2,-14 -4,-22 l -20,-118 65,-11 45,269 -64,11 -10,-55 z m 208,-73 c -17,1 -32,2 -45,2 -13,0 -25,-2 -34,-6 -10,-4 -17,-12 -23,-23 -6,-11 -9,-28 -11,-49 -1,-15 0,-28 2,-40 3,-12 7,-22 12,-29 7,-9 19,-16 36,-20 18,-5 40,-8 69,-10 20,-2 38,-2 52,-2 13,0 25,3 34,8 9,5 16,12 20,22 5,10 9,25 11,43 l -69,6 c -1,-5 -2,-8 -4,-11 -2,-2 -5,-4 -8,-5 -4,-1 -9,-2 -15,-2 -6,0 -13,1 -21,1 -9,1 -16,2 -23,2 -7,1 -12,2 -17,4 -4,2 -7,5 -9,8 -3,4 -3,9 -3,15 1,5 2,9 4,11 2,3 5,4 9,5 5,1 10,1 17,1 6,-1 14,-1 23,-2 4,0 9,-1 13,-1 5,-1 9,-1 13,-1 17,-2 32,-2 45,-2 13,1 24,3 32,8 9,5 15,13 20,24 5,10 8,25 9,43 2,21 1,38 -1,51 -3,13 -9,24 -18,32 -10,8 -22,14 -39,17 -16,4 -37,6 -62,8 -20,2 -37,3 -51,2 -15,0 -28,-2 -38,-7 -10,-5 -18,-13 -24,-25 -6,-11 -10,-28 -12,-50 l 68,-5 c 1,6 2,11 4,15 3,3 6,6 10,7 5,2 10,3 17,3 7,0 15,-1 24,-2 11,0 20,-1 28,-2 7,-1 13,-2 18,-4 4,-2 7,-5 9,-9 2,-4 3,-9 2,-16 0,-9 -3,-15 -9,-17 -5,-2 -14,-2 -26,-1 l -39,3 z m 346,-101 116,2 c 2,0 4,0 5,0 1,0 3,1 5,1 9,0 16,-1 21,-2 6,-2 10,-5 12,-9 3,-4 5,-9 5,-16 1,-7 2,-16 2,-27 0,-11 -1,-19 -2,-25 -1,-6 -3,-11 -7,-14 -3,-3 -7,-5 -13,-6 -5,-1 -12,-2 -21,-2 l -121,-2 -2,100 z m -1,94 -2,101 -77,-1 6,-389 235,3 c 16,1 29,3 39,8 11,4 20,12 26,21 7,10 11,23 14,39 3,15 4,34 4,57 -1,23 -2,42 -5,55 -3,14 -6,24 -11,32 -5,8 -11,13 -18,17 -7,4 -14,8 -23,12 7,2 14,4 20,6 6,2 12,5 16,10 5,6 8,13 11,22 2,10 4,24 3,42 l -1,70 -78,-2 1,-51 c 1,-17 -1,-29 -6,-37 -4,-8 -13,-12 -26,-12 l -128,-3 z m 467,-31 2,-8 c 1,-9 1,-16 0,-22 -2,-5 -4,-10 -8,-13 -4,-3 -9,-5 -15,-7 -6,-1 -14,-3 -23,-4 -9,-1 -17,-2 -25,-3 -7,0 -13,1 -18,3 -6,2 -10,5 -13,10 -3,5 -5,12 -7,22 l -1,8 108,14 z m -116,47 c -2,10 -2,19 -1,25 0,6 2,12 6,16 3,4 8,7 14,9 6,3 13,4 23,6 12,1 22,2 30,3 8,1 14,1 18,0 5,-2 8,-4 10,-8 2,-5 4,-10 5,-18 l 64,9 c -2,18 -6,33 -11,44 -6,12 -13,21 -21,27 -9,6 -20,10 -33,11 -13,2 -28,1 -45,-1 -26,-4 -47,-8 -64,-13 -17,-4 -31,-12 -41,-22 -10,-11 -16,-25 -19,-43 -3,-18 -2,-42 2,-72 5,-36 11,-64 17,-83 7,-20 16,-34 27,-42 11,-8 26,-13 43,-13 18,0 40,2 66,6 21,3 38,7 51,12 13,5 23,14 30,25 5,9 8,18 9,28 2,10 2,20 2,31 -1,11 -2,23 -4,36 -1,12 -3,26 -5,40 l -172,-23 -1,10 z m 283,11 c -3,13 -5,24 -5,33 -1,8 0,15 3,21 3,5 8,9 16,12 7,4 18,7 31,10 11,2 21,4 29,4 7,1 14,0 19,-3 6,-2 10,-6 14,-12 4,-6 7,-14 9,-25 4,-17 6,-31 8,-41 1,-11 0,-19 -3,-25 -3,-6 -9,-11 -17,-14 -9,-3 -20,-6 -35,-9 -12,-3 -22,-5 -30,-5 -7,0 -13,2 -18,5 -5,4 -9,10 -12,17 -3,8 -6,19 -9,32 z m 149,-102 64,15 -63,277 c -4,20 -12,38 -21,53 -10,15 -21,25 -33,32 -10,6 -24,8 -40,8 -16,0 -35,-3 -58,-8 -18,-4 -34,-9 -48,-15 -14,-5 -24,-12 -33,-21 -8,-9 -13,-21 -15,-35 -3,-14 -1,-31 3,-53 l 65,15 c -1,7 -1,12 1,16 1,4 3,8 7,11 4,3 9,6 16,8 6,2 14,4 23,6 12,3 22,4 30,3 8,0 15,-2 21,-6 5,-3 10,-9 13,-16 3,-8 6,-17 9,-29 l 12,-51 c -6,10 -12,17 -17,23 -6,6 -12,11 -18,14 -7,2 -14,4 -23,4 -8,0 -19,-1 -31,-4 -19,-4 -35,-10 -48,-16 -14,-6 -24,-14 -30,-24 -7,-11 -11,-25 -11,-42 -1,-17 2,-38 8,-65 2,-8 4,-18 7,-29 3,-11 6,-23 10,-36 14,-54 51,-75 111,-61 14,3 27,6 37,9 9,3 17,6 23,11 6,5 11,12 13,21 3,8 5,20 5,35 l 11,-50 z m 176,105 c 6,-10 13,-18 19,-25 6,-6 13,-10 21,-12 8,-3 17,-3 27,-2 10,1 22,4 36,9 22,7 38,19 47,34 10,16 13,36 10,61 -1,10 -4,20 -7,30 -3,10 -6,21 -9,32 l -46,135 -64,-22 46,-135 c 4,-11 6,-21 7,-29 2,-7 1,-14 -1,-19 -2,-5 -7,-10 -13,-13 -6,-4 -14,-8 -25,-11 -12,-4 -22,-6 -30,-5 -8,1 -14,3 -20,8 -6,5 -11,12 -15,21 -5,9 -9,20 -13,33 l -39,115 -62,-21 87,-258 62,21 -18,53 z m 224,213 c -3,7 -4,13 -4,18 1,5 3,9 6,12 3,3 7,6 12,9 5,2 11,4 17,7 11,4 21,7 28,10 8,2 15,3 20,3 6,-1 10,-2 14,-6 4,-3 7,-8 9,-15 3,-6 4,-12 3,-16 0,-4 -2,-8 -6,-11 -3,-3 -8,-6 -14,-9 -5,-2 -13,-5 -21,-9 -8,-3 -16,-5 -22,-7 -7,-3 -13,-4 -18,-4 -5,0 -10,1 -14,4 -4,2 -7,7 -10,14 z m 85,82 c -5,8 -11,14 -17,19 -6,5 -13,8 -20,9 -7,1 -15,1 -24,-1 -9,-1 -19,-4 -30,-9 -17,-6 -30,-12 -41,-18 -11,-6 -18,-13 -23,-22 -4,-9 -6,-19 -5,-32 2,-13 6,-28 14,-48 7,-19 15,-34 23,-43 8,-10 18,-16 27,-18 10,-3 21,-2 33,1 12,3 26,7 41,13 9,4 18,7 25,10 7,2 13,6 18,9 4,3 8,8 11,13 2,6 4,13 5,22 l 10,-28 c 4,-10 6,-18 7,-24 0,-6 -2,-11 -5,-15 -4,-5 -10,-9 -18,-12 -9,-4 -19,-8 -33,-13 -10,-4 -18,-6 -24,-5 -5,0 -10,5 -13,15 l -61,-24 c 7,-17 15,-30 23,-39 9,-8 20,-13 32,-14 12,-2 27,0 43,5 17,5 37,11 60,20 16,6 28,13 39,19 10,7 17,15 22,25 5,9 7,20 6,33 -1,13 -5,28 -12,46 l -66,171 -63,-24 16,-41 z m 380,-65 -32,60 -95,-50 -39,76 c -4,6 -6,12 -9,18 -3,5 -4,11 -5,16 -1,4 0,9 2,13 2,4 6,8 12,11 7,4 12,5 17,5 4,0 8,-2 12,-5 3,-3 6,-7 9,-13 4,-6 7,-12 11,-19 l 45,24 c -4,9 -9,17 -13,25 -4,8 -9,15 -13,22 -4,7 -8,13 -13,18 -4,5 -9,10 -15,14 -11,8 -23,11 -34,9 -11,-2 -24,-7 -39,-15 -14,-7 -26,-15 -35,-22 -10,-8 -16,-16 -20,-26 -4,-10 -5,-21 -3,-34 3,-13 8,-28 17,-46 l 54,-102 -30,-16 31,-60 30,16 32,-60 59,31 -31,60 95,50 z m 22,200 -61,108 c -9,15 -17,26 -25,35 -8,8 -15,14 -23,17 -8,3 -17,4 -26,2 -9,-2 -18,-5 -29,-11 -3,-2 -5,-3 -8,-5 -3,-2 -6,-4 -8,-5 l 30,-53 c 1,1 2,2 3,2 1,1 2,2 3,3 8,5 16,4 22,-1 7,-5 13,-13 20,-25 l -18,-10 54,-94 66,37 z m 394,87 c 6,-10 11,-19 13,-25 1,-6 1,-12 -2,-17 -3,-6 -9,-12 -17,-18 -8,-6 -19,-13 -33,-23 -16,-11 -28,-19 -38,-25 -10,-6 -19,-9 -27,-9 -9,0 -17,5 -26,13 -8,9 -19,22 -32,41 -17,23 -29,42 -37,56 -8,13 -12,25 -11,34 0,10 5,18 14,26 9,8 22,18 39,30 13,9 24,17 33,23 9,6 16,10 23,11 7,1 14,-1 20,-6 7,-5 14,-13 23,-26 l 62,43 c -1,3 -3,5 -4,8 -2,2 -3,4 -5,7 -11,16 -22,30 -32,41 -10,12 -20,21 -29,27 -9,6 -19,10 -28,11 -9,2 -18,0 -27,-5 -15,-7 -29,-14 -42,-21 -13,-7 -24,-14 -34,-21 -32,-23 -62,-45 -88,-68 -10,-9 -17,-19 -20,-30 -4,-12 -3,-26 0,-41 4,-16 11,-34 22,-54 11,-20 25,-43 43,-69 11,-16 22,-31 32,-44 9,-14 19,-26 28,-36 9,-11 18,-19 28,-27 9,-7 19,-13 30,-17 10,-4 20,-6 30,-5 10,0 20,3 31,8 10,4 22,10 34,18 12,8 26,17 40,27 26,18 46,33 62,46 15,13 25,27 30,41 4,14 3,30 -5,48 -7,18 -20,42 -39,70 l -61,-42 z m 247,22 -107,124 c 9,-7 17,-11 24,-14 8,-2 15,-3 22,-3 7,1 14,3 21,7 7,4 15,10 23,17 12,10 21,20 29,30 7,10 11,22 12,37 0,15 -3,30 -10,45 -8,15 -20,32 -36,51 l -99,115 -51,-44 88,-103 c 9,-9 15,-17 20,-24 5,-7 8,-13 9,-19 1,-6 -1,-13 -5,-19 -4,-6 -10,-13 -20,-21 -8,-7 -16,-13 -22,-16 -7,-3 -14,-4 -21,-3 -7,1 -14,5 -22,11 -8,6 -16,14 -26,25 -2,3 -3,5 -5,7 -1,1 -2,4 -5,6 l -73,86 -51,-44 254,-295 51,44 z m 115,333 c 9,-5 17,-9 25,-12 8,-3 15,-4 22,-3 8,0 15,2 22,6 7,4 14,10 22,18 12,13 19,24 22,35 3,10 2,21 -3,32 -4,10 -11,21 -22,33 -10,11 -23,24 -38,38 l -42,-45 c 5,-5 10,-10 14,-15 4,-4 6,-9 8,-13 1,-5 1,-9 -1,-14 -2,-5 -6,-11 -12,-18 -19,-20 -44,-16 -75,13 l -101,95 -45,-48 198,-187 45,48 -39,37 z m 201,137 -205,180 -43,-50 205,-179 43,49 z m 88,-77 -56,49 -43,-50 55,-48 44,49 z m -119,299 c -11,-13 -19,-26 -27,-37 -7,-11 -12,-21 -13,-32 -2,-10 0,-20 7,-31 6,-11 17,-23 35,-36 11,-9 23,-16 34,-20 12,-5 22,-7 31,-6 11,1 23,7 36,19 13,12 29,29 46,52 13,16 23,30 30,42 7,12 12,23 12,33 1,10 -1,20 -7,30 -6,9 -16,20 -30,32 l -43,-55 c 4,-3 6,-6 7,-9 1,-3 1,-6 0,-10 -1,-4 -4,-8 -7,-13 -3,-5 -7,-10 -12,-17 -5,-7 -10,-13 -14,-18 -5,-5 -9,-9 -13,-12 -4,-2 -8,-4 -12,-3 -4,0 -9,2 -13,5 -5,4 -7,7 -8,10 -1,3 -1,6 1,11 2,4 4,8 8,13 4,6 9,12 15,19 2,3 5,7 8,10 3,4 6,7 8,10 11,14 19,26 26,37 7,11 10,22 11,32 0,10 -3,19 -9,29 -6,10 -17,20 -31,32 -17,13 -32,21 -44,26 -13,5 -25,6 -36,2 -12,-3 -24,-10 -36,-22 -12,-12 -25,-28 -41,-48 -12,-15 -22,-29 -30,-42 -8,-12 -12,-24 -14,-35 -2,-11 1,-23 7,-34 7,-11 19,-24 36,-38 l 42,55 c -5,4 -9,8 -10,12 -2,3 -3,7 -2,12 2,5 4,10 8,15 4,6 8,12 14,20 7,8 12,16 17,21 5,6 9,11 14,13 4,3 8,4 12,3 5,0 9,-2 15,-6 7,-6 10,-12 9,-18 -2,-5 -6,-13 -14,-22 l -23,-31 z m 354,200 -55,39 -62,-87 -70,50 c -6,4 -11,8 -16,12 -5,4 -9,8 -12,12 -3,4 -4,8 -4,13 0,4 2,10 6,15 4,6 8,10 13,12 4,1 8,2 12,1 5,-1 10,-4 15,-7 5,-4 11,-8 18,-13 l 30,42 c -9,6 -17,12 -24,17 -7,5 -14,10 -21,14 -6,4 -13,7 -20,10 -6,2 -13,4 -19,5 -14,2 -26,-1 -35,-8 -9,-6 -18,-16 -28,-30 -9,-13 -16,-25 -21,-36 -5,-11 -7,-22 -6,-32 0,-11 5,-21 13,-31 8,-11 20,-22 36,-33 l 94,-67 -20,-28 55,-39 20,27 55,-39 39,55 -55,39 62,87 z m -71,306 c -21,8 -39,9 -54,2 -14,-6 -27,-20 -39,-41 -9,-15 -14,-29 -16,-41 -2,-13 -1,-25 3,-37 5,-12 13,-23 25,-34 13,-11 29,-23 50,-35 l 132,-74 33,58 -124,70 c -11,6 -19,12 -25,17 -6,5 -10,11 -11,17 -2,6 -1,13 2,20 2,8 6,17 12,27 14,24 34,31 62,21 4,-2 9,-4 15,-7 6,-3 12,-7 19,-10 l 104,-59 32,57 -237,134 -32,-57 49,-28 z m 144,168 c -7,-15 -13,-29 -18,-42 -4,-12 -6,-24 -5,-34 0,-10 5,-20 14,-29 8,-9 22,-18 42,-27 13,-6 26,-10 38,-12 12,-2 23,-1 31,2 11,3 21,12 32,27 10,14 20,35 32,60 9,19 15,35 20,49 4,13 6,24 4,34 -1,11 -6,20 -14,27 -8,8 -20,16 -37,25 l -28,-63 c 3,-2 6,-5 8,-7 2,-3 3,-6 2,-10 0,-4 -1,-9 -3,-14 -2,-6 -5,-12 -8,-20 -4,-8 -7,-14 -10,-20 -3,-7 -6,-11 -9,-15 -4,-3 -7,-5 -11,-6 -4,-1 -9,0 -15,2 -5,3 -8,5 -10,8 -1,3 -2,6 -1,10 1,5 2,10 5,16 3,6 6,13 10,22 2,3 4,7 6,11 2,4 3,8 5,11 7,16 13,30 17,43 4,12 5,23 3,33 -2,9 -7,18 -15,26 -8,8 -21,16 -38,24 -19,9 -35,14 -49,16 -13,2 -25,0 -35,-6 -11,-6 -21,-16 -30,-30 -8,-15 -18,-33 -29,-56 -8,-18 -14,-34 -19,-48 -5,-14 -7,-26 -6,-38 1,-11 6,-21 15,-31 9,-10 23,-19 43,-28 l 29,62 c -6,3 -11,6 -13,9 -3,3 -4,7 -4,12 0,5 1,10 4,17 2,6 5,13 9,22 4,10 8,18 12,25 3,7 6,12 10,15 3,4 7,6 11,6 5,1 10,0 16,-3 9,-4 13,-9 13,-15 0,-5 -3,-14 -8,-25 l -16,-35 z m 397,207 -362,145 -28,-73 361,-144 29,72 z m -282,406 -19,-63 137,-40 c 11,-3 19,-6 26,-9 7,-2 12,-6 16,-10 3,-5 5,-10 5,-17 0,-7 -1,-15 -4,-26 -5,-18 -13,-29 -24,-35 -10,-5 -26,-5 -47,1 l -136,40 -19,-63 262,-76 18,63 -48,14 c 9,0 18,1 26,3 7,1 14,4 20,8 6,4 12,10 16,17 5,7 8,16 12,27 6,21 7,40 2,55 -5,16 -17,30 -37,42 9,-1 16,-1 24,0 7,1 15,3 23,7 5,3 11,9 17,18 7,9 12,19 15,32 9,31 7,56 -7,76 -14,21 -41,37 -83,49 l -150,43 -18,-61 130,-38 c 12,-4 23,-7 30,-11 8,-3 14,-7 18,-12 4,-5 5,-10 6,-17 0,-7 -2,-15 -5,-26 -3,-10 -7,-18 -11,-23 -5,-5 -10,-9 -17,-11 -7,-2 -14,-2 -23,0 -9,1 -19,3 -30,7 l -125,36 z m 269,285 c -3,-13 -5,-23 -8,-30 -3,-7 -7,-12 -13,-15 -6,-2 -15,-3 -26,-2 -11,1 -25,3 -43,6 -12,2 -22,5 -28,9 -7,3 -11,8 -14,14 -2,6 -3,14 -3,22 1,9 2,20 4,33 2,9 4,17 6,24 2,6 6,11 11,15 5,3 12,5 21,5 9,0 21,-1 37,-3 15,-3 27,-6 36,-9 8,-3 15,-7 19,-12 3,-6 5,-13 5,-22 -1,-9 -2,-21 -4,-35 z m 14,-58 c 11,1 19,3 26,6 8,2 14,6 18,11 5,6 9,13 12,21 3,9 5,19 7,32 4,19 5,36 4,50 -1,14 -5,26 -12,36 -7,10 -18,18 -33,25 -15,6 -35,12 -59,16 -28,5 -53,8 -74,10 -20,2 -38,1 -52,-3 -14,-4 -25,-12 -34,-24 -8,-12 -14,-30 -18,-53 -2,-11 -3,-21 -4,-30 -1,-9 -1,-18 1,-26 2,-7 6,-15 12,-22 6,-6 14,-13 26,-18 l -164,27 -11,-66 388,-65 11,66 -44,7 z m -8,415 8,-1 c 10,0 17,-2 22,-4 5,-2 9,-6 11,-10 2,-4 3,-10 4,-16 0,-7 0,-15 -1,-24 -1,-9 -2,-17 -3,-24 -1,-8 -3,-13 -6,-18 -3,-5 -7,-8 -13,-10 -5,-3 -13,-3 -22,-2 l -8,0 8,109 z m -70,-104 c -10,1 -18,2 -25,4 -6,2 -10,5 -14,9 -3,4 -5,9 -6,16 -1,6 -1,14 0,24 1,12 1,22 2,30 1,7 2,13 5,17 2,5 5,7 10,8 4,2 10,2 18,2 l 5,64 c -18,2 -34,1 -46,-2 -13,-2 -23,-7 -31,-15 -8,-7 -14,-17 -18,-29 -4,-13 -6,-28 -7,-45 -2,-25 -3,-47 -2,-65 1,-18 6,-33 14,-45 8,-12 20,-21 37,-27 17,-7 41,-11 71,-13 36,-3 65,-3 85,-1 21,2 36,8 47,18 10,9 18,22 21,39 4,17 7,39 9,66 1,20 1,38 -2,52 -2,14 -8,26 -18,34 -8,7 -16,12 -25,15 -9,4 -19,7 -30,8 -11,2 -23,4 -36,5 -12,1 -26,2 -41,3 l -13,-173 -10,1 z m 124,279 c 10,2 19,4 26,8 8,3 14,7 19,12 5,6 9,12 12,20 2,7 4,17 4,28 0,17 -2,31 -7,40 -6,10 -13,17 -24,22 -10,5 -23,8 -39,9 -15,2 -33,3 -53,3 l -1,-61 c 7,-1 14,-2 20,-2 6,-1 11,-2 15,-5 4,-2 7,-6 9,-11 2,-5 3,-12 3,-21 0,-28 -22,-41 -64,-41 l -139,2 -1,-65 273,-5 1,66 -54,1 z m -132,233 c -8,-1 -14,0 -18,2 -5,1 -8,4 -10,8 -3,4 -4,8 -5,14 -1,6 -1,12 -2,19 -1,12 -1,22 -1,30 0,8 1,14 3,20 1,5 4,9 9,11 4,3 9,4 17,5 7,0 12,0 16,-2 4,-2 7,-5 9,-9 2,-4 3,-9 4,-16 1,-6 2,-14 3,-23 0,-9 1,-16 1,-23 0,-8 -1,-14 -2,-19 -1,-5 -4,-9 -8,-12 -3,-3 -9,-5 -16,-5 z m -54,105 c -9,-3 -17,-7 -23,-11 -6,-5 -11,-10 -14,-17 -4,-6 -6,-14 -7,-23 -1,-9 -1,-19 0,-32 2,-17 4,-32 6,-44 3,-12 8,-21 15,-28 7,-7 16,-11 29,-14 12,-2 29,-2 49,-1 21,2 37,5 49,10 11,6 20,12 25,21 5,9 8,20 8,32 1,13 0,27 -1,43 -1,10 -1,19 -2,26 0,8 -2,15 -4,20 -2,6 -5,10 -9,14 -5,4 -11,8 -20,11 l 30,3 c 11,1 19,0 25,-1 6,-1 10,-4 13,-9 3,-5 6,-12 7,-21 1,-9 2,-20 3,-35 1,-11 0,-19 -2,-24 -2,-5 -8,-8 -18,-9 l 4,-65 c 19,2 34,5 44,11 11,6 19,15 24,27 4,11 7,25 7,43 0,17 0,38 -2,63 -2,16 -4,30 -8,42 -3,12 -9,21 -16,28 -8,8 -18,13 -31,15 -12,3 -28,4 -47,2 l -183,-14 5,-67 44,4 z m 188,332 -68,-9 15,-106 -85,-12 c -7,-1 -14,-2 -20,-2 -6,-1 -11,-1 -16,0 -5,1 -9,4 -12,7 -4,3 -6,9 -7,16 -1,7 0,12 2,16 1,4 4,7 8,10 4,2 9,4 16,5 6,1 13,2 21,3 l -6,51 c -11,-1 -21,-3 -29,-4 -9,-1 -17,-3 -25,-4 -8,-2 -15,-4 -21,-7 -7,-2 -13,-5 -18,-9 -12,-8 -18,-18 -20,-29 -2,-12 -2,-26 0,-42 2,-15 5,-29 9,-41 4,-11 10,-20 18,-27 8,-7 18,-12 31,-14 13,-2 29,-2 49,1 l 114,15 5,-34 67,9 -5,34 67,9 -9,67 -67,-9 -14,106 z"
       id="path5262"
       inkscape:connector-curvature="0"
       style="fill:#000000;fill-rule:nonzero" /><path
       class="fil0"
       d="m 0,7850 c 1739,0 3150,1411 3150,3150 0,1739 -1411,3150 -3150,3150 -1739,0 -3150,-1411 -3150,-3150 0,-1739 1411,-3150 3150,-3150 z m -1024,6046 0,-1872 -1872,0 c 309,872 1000,1563 1872,1872 z m -1969,-2207 2304,0 0,2304 c 39,9 79,17 118,25 l 0,-2388 0,-59 -59,0 -2388,0 c 8,39 16,79 25,118 z m -25,-1260 2388,0 59,0 0,-59 0,-2388 c -39,8 -79,16 -118,25 l 0,2304 -2304,0 c -9,39 -17,79 -25,118 z m 3589,-2447 0,2388 0,59 59,0 2388,0 c -8,-39 -16,-79 -25,-118 l -2304,0 0,-2304 c -39,-9 -79,-17 -118,-25 z m 2447,3589 -2388,0 -59,0 0,59 0,2388 c 39,-8 79,-16 118,-25 l 0,-2304 2304,0 c 9,-39 17,-79 25,-118 z m -5914,-1595 1872,0 0,-1872 c -872,309 -1563,1000 -1872,1872 z m 3920,-1872 0,1872 1872,0 C 2587,9104 1896,8413 1024,8104 Z m 1872,3920 -1872,0 0,1872 c 872,-309 1563,-1000 1872,-1872 z"
       id="path5264"
       inkscape:connector-curvature="0"
       style="fill:#000000" /></g></svg>