<?xml version="1.0" encoding="UTF-8" standalone="no"?>
<!-- Creator: CorelDRAW X7 -->

<svg
   xmlns:dc="http://purl.org/dc/elements/1.1/"
   xmlns:cc="http://creativecommons.org/ns#"
   xmlns:rdf="http://www.w3.org/1999/02/22-rdf-syntax-ns#"
   xmlns:svg="http://www.w3.org/2000/svg"
   xmlns="http://www.w3.org/2000/svg"
   xmlns:sodipodi="http://sodipodi.sourceforge.net/DTD/sodipodi-0.dtd"
   xmlns:inkscape="http://www.inkscape.org/namespaces/inkscape"
   xml:space="preserve"
   width="7.8740005in"
   height="7.8740005in"
   version="1.1"
   style="clip-rule:evenodd;fill-rule:evenodd;image-rendering:optimizeQuality;shape-rendering:geometricPrecision;text-rendering:geometricPrecision"
   viewBox="0 0 7874.0005 7874.0005"
   id="svg4542"
   inkscape:version="0.91 r13725"
   sodipodi:docname="Tohaa - Nikoul Ambush Unit - [N3] [Vyo].svg"><metadata
     id="metadata4701"><rdf:RDF><cc:Work
         rdf:about=""><dc:format>image/svg+xml</dc:format><dc:type
           rdf:resource="http://purl.org/dc/dcmitype/StillImage" /></cc:Work></rdf:RDF></metadata><sodipodi:namedview
     pagecolor="#ffffff"
     bordercolor="#666666"
     borderopacity="1"
     objecttolerance="10"
     gridtolerance="10"
     guidetolerance="10"
     inkscape:pageopacity="0"
     inkscape:pageshadow="2"
     inkscape:window-width="640"
     inkscape:window-height="480"
     id="namedview4699"
     showgrid="false"
     inkscape:zoom="0.23838384"
     inkscape:cx="736.83001"
     inkscape:cy="849.33005"
     inkscape:window-x="0"
     inkscape:window-y="0"
     inkscape:window-maximized="0"
     inkscape:current-layer="svg4542" /><defs
     id="defs4544"><style
       type="text/css"
       id="style4546"><![CDATA[
    .fil21 {fill:none}
    .fil0 {fill:black}
    .fil7 {fill:#3F3F3F}
    .fil6 {fill:#4A523A}
    .fil5 {fill:#546535}
    .fil4 {fill:#5F772F}
    .fil3 {fill:#698A2A}
    .fil2 {fill:#749D25}
    .fil14 {fill:#80E010}
    .fil13 {fill:#86E613}
    .fil12 {fill:#8DEC16}
    .fil11 {fill:#93F31A}
    .fil10 {fill:#9AF91D}
    .fil9 {fill:#A0FF20}
    .fil20 {fill:#C08030}
    .fil19 {fill:#C68D2D}
    .fil18 {fill:#CD9A2A}
    .fil17 {fill:#D3A626}
    .fil16 {fill:#DAB323}
    .fil15 {fill:#E0C020}
    .fil1 {fill:white}
    .fil8 {fill:#3F3F3F;fill-rule:nonzero}
   ]]></style></defs><g
     id="Layer_x0020_1"
     transform="translate(3937,-7063)"><metadata
       id="CorelCorpID_0Corel-Layer" /><circle
       class="fil0"
       cy="11000"
       r="3937"
       id="circle4550"
       cx="0"
       style="fill:#000000" /><circle
       class="fil1"
       cy="11000"
       r="3858"
       id="circle4552"
       cx="0"
       style="fill:#ffffff" /><g
       id="_1138832944"><path
         class="fil2"
         d="m -1042,13858 c 64,20 138,28 205,22 132,-12 242,-70 266,-210 l 181,-1023 c 25,-144 267,-109 253,35 l -124,1251 c -18,184 -76,417 -274,483 -63,20 -129,20 -193,6 -1612,-342 -2770,-1770 -2770,-3422 0,-367 58,-731 170,-1081 21,-62 53,-119 102,-163 156,-140 387,-73 556,4 l 1144,518 c 133,59 42,287 -95,237 l -977,-356 c -61,-22 -121,-23 -180,5 -111,53 -192,194 -218,310 -30,174 -45,350 -45,526 0,1279 800,2421 1999,2858 z"
         id="path4555"
         inkscape:connector-curvature="0"
         style="fill:#749d25" /><path
         class="fil3"
         d="m -1049,13877 c 68,21 144,28 214,22 141,-12 257,-77 284,-225 l 180,-1024 c 21,-119 226,-89 214,31 l -124,1250 c -17,175 -71,404 -260,466 -59,20 -122,19 -182,6 -1604,-341 -2755,-1761 -2755,-3403 0,-365 57,-727 169,-1075 19,-59 50,-113 96,-155 149,-133 374,-65 534,7 l 1145,518 c 109,50 33,242 -80,201 l -977,-355 c -66,-24 -131,-25 -195,5 -118,56 -202,202 -229,324 -31,175 -46,352 -46,530 0,1288 806,2437 2012,2877 z"
         id="path4557"
         inkscape:connector-curvature="0"
         style="fill:#698a2a" /><path
         class="fil4"
         d="m -1055,13895 c 70,22 149,30 222,24 149,-13 273,-84 301,-242 l 181,-1024 c 16,-94 184,-69 175,26 l -124,1250 c -17,166 -67,390 -247,449 -56,19 -115,18 -172,6 -659,-140 -1261,-470 -1735,-948 -646,-650 -1005,-1520 -1005,-2436 0,-363 57,-723 169,-1069 18,-55 46,-107 90,-146 142,-127 362,-58 513,10 l 1145,518 c 87,40 25,198 -66,165 l -976,-356 c -71,-26 -142,-26 -211,6 -123,58 -211,209 -240,338 -30,176 -46,355 -46,534 0,820 323,1598 902,2178 318,318 702,563 1124,717 z"
         id="path4559"
         inkscape:connector-curvature="0"
         style="fill:#5f772f" /><path
         class="fil5"
         d="m -1061,13914 c 72,23 154,31 230,25 158,-14 289,-92 318,-258 l 181,-1024 c 12,-70 143,-50 136,20 l -124,1250 c -15,157 -62,376 -234,433 -52,17 -108,16 -161,4 -655,-139 -1254,-467 -1725,-942 -642,-646 -999,-1511 -999,-2422 0,-361 57,-719 168,-1063 16,-52 43,-100 84,-137 135,-121 349,-52 492,13 l 1145,518 c 64,29 16,152 -51,128 l -977,-355 c -75,-28 -152,-28 -225,6 -129,61 -221,217 -251,352 -31,178 -46,358 -46,538 0,825 324,1609 907,2192 320,320 706,567 1132,722 z"
         id="path4561"
         inkscape:connector-curvature="0"
         style="fill:#546535" /><path
         class="fil6"
         d="m -1068,13933 c 75,23 160,32 238,25 168,-14 306,-98 337,-274 l 180,-1024 c 8,-44 102,-30 98,15 l -124,1250 c -15,147 -58,362 -221,416 -49,16 -101,15 -151,4 -651,-138 -1247,-464 -1715,-936 -638,-643 -993,-1503 -993,-2409 0,-359 56,-715 166,-1057 16,-48 41,-94 79,-129 128,-114 336,-44 471,17 l 1145,518 c 41,19 6,107 -36,92 l -977,-356 c -81,-29 -162,-29 -240,8 -135,63 -231,224 -262,366 -31,178 -47,360 -47,541 0,830 327,1619 913,2206 322,322 711,571 1139,727 z"
         id="path4563"
         inkscape:connector-curvature="0"
         style="fill:#4a523a" /></g><path
       class="fil7"
       d="m -707,14326 c 173,38 314,-55 348,-403 l 124,-1250 c 2,-20 -55,-29 -58,-9 l -181,1023 c -52,299 -392,330 -600,264 -1205,-439 -2066,-1594 -2066,-2951 0,-186 17,-368 47,-545 48,-214 244,-492 529,-388 l 977,355 c 18,7 39,-47 21,-55 l -1145,-518 c -318,-144 -469,-69 -523,100 -107,331 -166,684 -166,1051 0,1635 1155,3000 2693,3326 z"
       id="path4565"
       inkscape:connector-curvature="0"
       style="fill:#3f3f3f" /><g
       id="_1138830256"><path
         class="fil2"
         d="m 1954,8668 c -136,-113 -281,-214 -433,-302 -1108,-639 -2497,-517 -3475,302 -50,46 -93,106 -122,168 -55,119 -59,244 49,335 l 796,668 c 112,93 -40,285 -157,201 l -1022,-732 c -149,-108 -323,-275 -281,-479 14,-65 47,-121 91,-170 1103,-1226 2919,-1514 4349,-688 318,183 605,415 851,688 44,48 77,105 91,169 43,205 -131,372 -281,480 l -1022,732 c -117,84 -269,-108 -157,-201 l 796,-668 c 49,-42 80,-93 86,-158 10,-123 -72,-263 -159,-345 z"
         id="path4568"
         inkscape:connector-curvature="0"
         style="fill:#749d25" /><path
         class="fil3"
         d="m 1967,8654 c -137,-114 -283,-216 -436,-305 -1116,-644 -2514,-520 -3498,304 -52,48 -97,111 -126,175 -60,127 -62,261 53,358 l 797,668 c 92,77 -37,240 -134,170 l -1021,-732 c -143,-103 -314,-264 -273,-459 12,-61 44,-115 86,-161 453,-503 1043,-862 1697,-1035 431,-114 882,-144 1324,-89 460,58 902,208 1303,440 316,182 601,413 846,684 42,46 74,99 86,160 41,196 -130,357 -273,460 l -1021,732 c -97,70 -226,-93 -134,-170 l 797,-668 c 53,-45 86,-101 92,-171 11,-129 -73,-276 -165,-361 z"
         id="path4570"
         inkscape:connector-curvature="0"
         style="fill:#698a2a" /><path
         class="fil4"
         d="M 1980,8639 C 1842,8524 1695,8421 1540,8332 1183,8126 790,7993 381,7942 c -394,-49 -795,-20 -1178,82 -434,116 -838,326 -1183,615 -54,49 -100,114 -131,180 -64,136 -64,279 59,382 l 796,668 c 6,5 11,11 15,18 40,69 -56,170 -125,121 l -1021,-732 c -135,-98 -304,-253 -265,-439 12,-58 42,-108 81,-152 451,-500 1038,-857 1688,-1029 429,-113 877,-143 1317,-88 457,57 896,206 1295,437 315,181 598,411 842,680 39,43 69,94 81,151 39,187 -130,342 -265,440 l -1021,732 c -6,4 -13,8 -20,10 -34,11 -69,-8 -91,-34 -27,-34 -36,-84 1,-115 l 796,-668 c 58,-48 93,-109 100,-184 12,-136 -75,-288 -172,-378 z"
         id="path4572"
         inkscape:connector-curvature="0"
         style="fill:#5f772f" /><path
         class="fil5"
         d="M 1993,8624 C 1854,8508 1706,8405 1550,8315 1191,8108 795,7974 384,7923 c -397,-50 -800,-21 -1186,82 -437,117 -844,328 -1191,619 -56,51 -104,118 -136,187 -67,144 -66,296 64,405 l 796,668 c 54,45 -28,149 -85,108 l -1021,-732 c -128,-92 -295,-242 -258,-419 12,-54 40,-102 77,-143 448,-497 1031,-852 1678,-1023 426,-112 872,-143 1309,-88 455,58 892,206 1288,435 313,180 595,408 837,676 37,41 66,88 77,142 37,177 -130,328 -258,420 l -1021,732 c -57,41 -139,-63 -85,-108 l 796,-668 c 62,-52 100,-117 107,-197 12,-143 -77,-301 -179,-395 z"
         id="path4574"
         inkscape:connector-curvature="0"
         style="fill:#546535" /><path
         class="fil6"
         d="M 2006,8609 C 1866,8493 1717,8389 1560,8298 1198,8089 800,7955 386,7903 c -399,-49 -805,-21 -1193,83 -440,118 -850,330 -1199,623 -58,53 -108,122 -141,194 -71,152 -67,313 69,428 l 797,668 c 34,29 -25,103 -62,77 l -1021,-732 c -120,-87 -284,-232 -249,-399 10,-51 37,-95 72,-133 445,-495 1025,-848 1668,-1018 424,-112 867,-142 1302,-87 452,57 886,204 1281,432 311,179 591,406 831,672 35,38 62,83 73,133 35,168 -130,313 -250,400 l -1021,732 c -37,26 -96,-48 -62,-77 l 797,-668 c 65,-55 106,-125 113,-211 7,-74 -13,-150 -45,-218 -33,-71 -83,-140 -140,-193 z"
         id="path4576"
         inkscape:connector-curvature="0"
         style="fill:#4a523a" /></g><path
       class="fil7"
       d="m -2527,8725 c -119,131 -109,299 175,503 l 1021,732 c 16,11 52,-33 37,-46 l -796,-668 c -232,-195 -90,-504 71,-652 983,-824 2414,-991 3589,-313 161,93 311,198 449,313 161,148 303,457 71,652 l -796,668 c -15,13 21,57 37,46 l 1021,-732 c 284,-204 294,-372 175,-503 -233,-259 -510,-486 -827,-669 -1416,-818 -3176,-501 -4227,669 z"
       id="path4578"
       inkscape:connector-curvature="0"
       style="fill:#3f3f3f" /><g
       id="_1138820048"><path
         class="fil2"
         d="m 1042,13858 c 166,-61 326,-136 479,-224 701,-405 1207,-1065 1417,-1846 114,-429 135,-877 58,-1314 -15,-66 -45,-134 -84,-189 -75,-109 -181,-174 -314,-126 l -977,356 c -137,50 -228,-178 -95,-237 l 1144,-518 c 169,-77 400,-144 556,-4 49,43 81,101 101,163 210,646 226,1343 48,1999 -243,894 -824,1648 -1626,2111 -318,184 -662,316 -1021,393 -64,14 -130,15 -192,-6 -199,-65 -257,-299 -275,-483 L 137,12682 c -14,-144 228,-179 253,-35 l 181,1023 c 11,64 40,116 93,153 102,71 264,70 378,35 z"
         id="path4581"
         inkscape:connector-curvature="0"
         style="fill:#749d25" /><path
         class="fil3"
         d="m 1049,13876 c 166,-61 328,-136 482,-225 705,-407 1215,-1072 1426,-1858 115,-431 136,-883 59,-1323 -16,-69 -47,-139 -88,-197 -80,-115 -195,-184 -337,-132 l -977,355 c -113,41 -189,-151 -80,-201 l 1145,-518 c 160,-72 385,-140 534,-7 46,42 77,96 96,155 209,642 224,1336 47,1987 -241,889 -819,1640 -1617,2100 -316,183 -658,314 -1015,391 -61,13 -123,14 -182,-6 -190,-62 -244,-291 -261,-466 L 157,12681 c -12,-120 193,-150 214,-31 l 180,1024 c 13,69 44,125 102,166 107,74 276,74 396,36 z"
         id="path4583"
         inkscape:connector-curvature="0"
         style="fill:#698a2a" /><path
         class="fil4"
         d="m 1055,13895 c 168,-62 330,-138 485,-227 710,-410 1223,-1079 1436,-1870 116,-434 137,-889 59,-1332 -16,-71 -49,-144 -90,-204 -87,-123 -210,-195 -361,-140 l -976,356 c -91,33 -153,-125 -66,-165 l 1145,-518 c 151,-68 371,-137 512,-10 44,39 73,91 91,146 208,639 223,1328 47,1976 -240,884 -814,1630 -1608,2088 -314,182 -654,313 -1009,389 -57,12 -116,13 -172,-5 -181,-60 -231,-284 -248,-450 L 176,12679 c -9,-95 159,-120 175,-26 l 181,1024 c 13,74 48,135 110,179 112,78 287,78 413,39 z"
         id="path4585"
         inkscape:connector-curvature="0"
         style="fill:#5f772f" /><path
         class="fil5"
         d="m 1061,13914 c 170,-62 333,-139 489,-229 715,-412 1231,-1085 1445,-1882 117,-437 138,-895 59,-1341 -16,-74 -50,-149 -93,-211 -92,-131 -224,-205 -383,-147 l -977,355 c -67,24 -115,-99 -51,-128 l 1145,-518 c 143,-64 357,-134 491,-13 42,36 68,85 85,137 104,319 160,653 167,988 7,329 -34,659 -120,977 -239,879 -810,1621 -1599,2076 -312,181 -651,311 -1004,386 -53,12 -109,13 -161,-4 -172,-56 -219,-276 -234,-433 L 196,12677 c -7,-70 124,-90 136,-20 l 181,1024 c 14,79 51,145 118,191 117,81 298,83 430,42 z"
         id="path4587"
         inkscape:connector-curvature="0"
         style="fill:#546535" /><path
         class="fil6"
         d="m 1068,13932 c 170,-62 335,-139 492,-230 719,-415 1239,-1092 1454,-1894 118,-440 139,-901 60,-1350 -17,-76 -52,-154 -97,-218 -97,-138 -238,-216 -406,-155 l -977,356 c -42,15 -77,-73 -36,-92 l 1145,-518 c 135,-61 343,-131 470,-17 39,35 64,81 80,129 103,318 159,649 166,983 6,327 -34,655 -120,971 -237,874 -805,1611 -1589,2064 -311,180 -648,309 -999,384 -50,11 -102,12 -151,-4 -163,-53 -206,-269 -221,-416 L 215,12675 c -4,-45 90,-59 98,-15 l 180,1024 c 15,84 56,155 127,204 122,85 309,88 448,44 z"
         id="path4589"
         inkscape:connector-curvature="0"
         style="fill:#4a523a" /></g><path
       class="fil7"
       d="m 3234,9949 c -54,-169 -205,-244 -523,-100 l -1145,518 c -18,8 3,62 21,55 l 977,-355 c 285,-104 482,174 529,388 222,1263 -348,2586 -1523,3264 -161,93 -327,170 -496,232 -208,66 -548,35 -600,-264 L 293,12664 c -3,-20 -60,-11 -58,9 l 124,1250 c 34,348 175,441 348,403 341,-73 675,-199 993,-382 1416,-817 2021,-2500 1534,-3995 z"
       id="path4591"
       inkscape:connector-curvature="0"
       style="fill:#3f3f3f" /><g
       id="_1138801552"><path
         class="fil2"
         d="m -728,11728 -118,0 0,-275 118,0 0,-217 c 0,-87 43,-170 104,-230 60,-61 143,-104 230,-104 l 512,0 c 87,0 170,43 231,104 60,60 104,143 104,230 l 0,217 -276,0 0,-216 c -1,-11 -16,-29 -23,-37 -7,-7 -26,-22 -36,-23 l -511,0 c -11,1 -29,16 -36,23 -8,8 -23,26 -24,36 l 0,217 118,0 0,275 -118,0 0,276 236,0 0,276 -511,0 0,-552 z"
         id="path4594"
         inkscape:connector-curvature="0"
         style="fill:#749d25" /><path
         class="fil3"
         d="m -709,11709 -118,0 0,-237 118,0 0,-236 c 0,-81 42,-160 99,-217 56,-56 135,-98 216,-98 l 512,0 c 82,0 160,42 217,98 57,57 98,136 98,217 l 0,197 -236,0 0,-197 c 0,-15 -19,-39 -29,-49 -11,-11 -34,-30 -50,-30 l -512,0 c -15,0 -39,19 -49,30 -11,10 -29,34 -29,49 l 0,236 118,0 0,237 -118,0 0,315 236,0 0,236 -473,0 0,-551 z"
         id="path4596"
         inkscape:connector-curvature="0"
         style="fill:#698a2a" /><path
         class="fil4"
         d="m -689,11693 c -1,-1 -3,-3 -4,-4 l -114,0 0,-197 114,0 c 1,-1 3,-2 4,-4 l 0,-252 c 0,-76 40,-150 92,-203 53,-53 127,-92 203,-92 l 512,0 c 76,0 150,39 203,92 53,53 92,127 92,203 l 0,177 -196,0 0,-177 c 0,-22 -21,-49 -35,-63 -15,-15 -42,-35 -64,-35 l -512,0 c -22,0 -49,20 -63,35 -15,14 -35,41 -35,63 l 0,252 c 1,2 2,3 4,4 l 114,0 0,197 -114,0 c -2,1 -3,3 -4,4 l 0,346 c 1,2 2,3 4,4 l 232,0 0,197 -433,0 0,-547 z"
         id="path4598"
         inkscape:connector-curvature="0"
         style="fill:#5f772f" /><path
         class="fil5"
         d="m -276,12220 -393,0 0,-531 c -1,-6 -14,-19 -20,-20 l -98,0 0,-157 98,0 c 6,-1 19,-13 20,-20 l 0,-256 c 0,-71 37,-139 86,-189 50,-49 118,-86 189,-86 l 512,0 c 71,0 140,37 189,86 49,50 87,118 87,189 l 0,158 -158,0 0,-158 c 0,-28 -22,-58 -40,-77 -19,-19 -50,-41 -78,-41 l -512,0 c -28,0 -58,22 -77,41 -19,19 -41,49 -41,77 l 0,256 c 1,7 13,19 20,20 l 98,0 0,157 -98,0 c -6,1 -19,14 -20,20 l 0,354 c 1,7 13,20 20,20 l 216,0 0,157 z"
         id="path4600"
         inkscape:connector-curvature="0"
         style="fill:#546535" /><path
         class="fil6"
         d="m -295,12201 -355,0 0,-512 c 0,-17 -22,-39 -39,-39 l -79,0 0,-119 79,0 c 17,0 39,-22 39,-39 l 0,-256 c 0,-65 36,-129 81,-175 46,-45 110,-81 175,-81 l 512,0 c 66,0 130,36 175,81 46,46 81,110 81,175 l 0,138 -118,0 0,-138 c 0,-33 -24,-68 -46,-91 -23,-23 -58,-47 -92,-47 l -512,0 c -33,0 -68,24 -91,47 -23,23 -46,58 -46,91 l 0,256 c 0,17 22,39 39,39 l 79,0 0,119 -79,0 c -17,0 -39,22 -39,39 l 0,354 c 0,17 22,40 39,40 l 197,0 0,118 z"
         id="path4602"
         inkscape:connector-curvature="0"
         style="fill:#4a523a" /></g><path
       class="fil8"
       d="m -315,12181 -276,0 -39,0 0,-39 0,-453 c 0,-28 -31,-59 -59,-59 l -59,0 0,-79 59,0 c 28,0 59,-31 59,-59 l 0,-256 c 0,-57 31,-116 75,-161 45,-44 104,-75 161,-75 l 512,0 c 57,0 117,31 161,75 45,45 75,104 75,161 l 0,118 -78,0 0,-118 c 0,-35 -22,-74 -52,-105 -31,-31 -70,-52 -106,-52 l -512,0 c -35,0 -74,21 -105,52 -31,31 -52,70 -52,105 l 0,256 c 0,28 31,59 59,59 l 59,0 0,79 -59,0 c -28,0 -59,31 -59,59 l 0,354 c 0,28 31,59 59,59 l 177,0 0,79 z"
       id="path4604"
       inkscape:connector-curvature="0"
       style="fill:#3f3f3f;fill-rule:nonzero" /><g
       id="_1138825872"><polygon
         class="fil2"
         points="492,10902 768,10902 768,12339 492,12339 "
         id="polygon4607"
         style="fill:#749d25" /><polygon
         class="fil3"
         points="512,10921 748,10921 748,12319 512,12319 "
         id="polygon4609"
         style="fill:#698a2a" /><polygon
         class="fil4"
         points="531,10941 728,10941 728,12299 531,12299 "
         id="polygon4611"
         style="fill:#5f772f" /><polygon
         class="fil5"
         points="551,10961 709,10961 709,12280 551,12280 "
         id="polygon4613"
         style="fill:#546535" /><polygon
         class="fil6"
         points="571,10980 689,10980 689,12260 571,12260 "
         id="polygon4615"
         style="fill:#4a523a" /></g><polygon
       class="fil8"
       points="591,11000 669,11000 669,12240 591,12240 "
       id="polygon4617"
       style="fill:#3f3f3f;fill-rule:nonzero" /><path
       class="fil9"
       d="m 366,8641 c 434,84 823,291 1121,595 64,69 56,164 -11,187 -120,41 -317,100 -468,-33 C 730,9173 380,9044 0,9044 c -380,0 -730,129 -1008,346 -151,133 -348,74 -468,33 -67,-23 -75,-118 -11,-187 298,-305 687,-511 1121,-595 133,-26 132,-133 132,-267 0,-134 167,-234 234,-334 67,100 234,200 234,334 0,134 -1,241 132,267 z"
       id="path4619"
       inkscape:connector-curvature="0"
       style="fill:#a0ff20" /><g
       id="_1138827376"><path
         class="fil10"
         d="m 0,8073 c -31,40 -72,77 -107,113 -48,49 -108,115 -108,188 0,126 5,257 -148,286 -421,82 -809,283 -1109,590 -20,20 -34,47 -38,75 -3,21 0,43 13,60 7,9 17,15 28,19 149,52 317,87 448,-29 l 1,0 0,-1 c 293,-228 649,-350 1020,-350 371,0 727,122 1020,350 l 0,1 1,0 c 131,116 299,81 448,29 11,-4 21,-10 28,-19 13,-17 16,-39 13,-60 -4,-28 -18,-54 -37,-75 C 1172,8943 784,8742 363,8660 210,8631 215,8500 215,8374 c 0,-10 -2,-20 -4,-30 C 190,8243 68,8158 0,8073 Z"
         id="path4622"
         inkscape:connector-curvature="0"
         style="fill:#9af91d" /><path
         class="fil11"
         d="m 0,8104 c -29,33 -63,65 -93,95 -43,45 -102,108 -102,175 0,75 3,170 -42,234 -29,41 -73,62 -122,72 -417,80 -802,279 -1099,583 -16,18 -29,40 -33,65 -2,15 0,33 10,45 5,6 11,10 18,12 142,49 304,86 429,-25 l 1,-1 1,0 c 296,-231 657,-355 1032,-355 375,0 736,124 1032,355 l 1,0 1,1 c 125,111 287,74 429,25 7,-2 13,-6 18,-12 10,-13 12,-30 10,-45 -4,-24 -16,-47 -32,-64 -298,-305 -683,-504 -1100,-584 -49,-10 -93,-31 -122,-72 -45,-64 -42,-159 -42,-234 0,-8 -1,-17 -3,-26 -12,-56 -61,-109 -99,-149 -30,-30 -64,-62 -93,-95 z"
         id="path4624"
         inkscape:connector-curvature="0"
         style="fill:#93f31a" /><path
         class="fil12"
         d="m 0,8133 c -26,28 -53,54 -78,80 -40,40 -97,101 -97,161 0,80 3,177 -46,245 -32,46 -80,69 -134,80 -413,80 -794,277 -1089,578 -16,18 -40,61 -22,84 3,3 6,5 9,6 135,46 292,83 410,-21 l 2,-2 1,-1 c 299,-233 664,-358 1044,-358 380,0 745,125 1044,358 l 1,1 2,2 c 118,104 275,67 410,21 3,-1 6,-3 9,-6 18,-23 -6,-66 -22,-84 -295,-301 -676,-498 -1089,-578 -54,-11 -102,-34 -134,-80 -49,-68 -46,-165 -46,-245 0,-7 -1,-15 -2,-22 -11,-51 -59,-103 -94,-139 -26,-26 -53,-52 -79,-80 z"
         id="path4626"
         inkscape:connector-curvature="0"
         style="fill:#8dec16" /><path
         class="fil13"
         d="m 0,8162 c -21,22 -44,43 -64,65 -35,35 -92,94 -92,147 0,86 3,184 -49,257 -35,49 -88,76 -146,87 -410,79 -787,274 -1079,573 -9,10 -30,43 -21,57 1,0 1,0 1,0 127,44 278,82 390,-17 l 2,-2 2,-1 c 303,-236 672,-363 1056,-363 384,0 753,127 1056,363 l 2,1 2,2 c 112,99 263,61 390,17 0,0 0,0 1,0 9,-14 -12,-47 -21,-57 -292,-299 -670,-494 -1079,-573 -58,-11 -111,-38 -146,-87 -52,-73 -49,-171 -49,-257 0,-6 -1,-12 -2,-18 -10,-46 -58,-96 -90,-129 -20,-22 -43,-43 -64,-65 z"
         id="path4628"
         inkscape:connector-curvature="0"
         style="fill:#86e613" /><path
         class="fil14"
         d="m 0,8190 c -17,17 -34,34 -50,51 -30,30 -86,88 -86,133 0,91 2,191 -53,268 -38,54 -95,83 -159,95 -405,79 -778,272 -1067,567 -6,6 -15,19 -17,30 117,39 257,72 359,-18 l 2,-2 3,-2 c 306,-239 680,-367 1068,-367 388,0 762,128 1068,367 l 3,2 2,2 c 102,90 242,57 359,18 -2,-11 -11,-24 -17,-30 -289,-295 -662,-488 -1067,-567 -64,-12 -121,-41 -159,-95 -55,-77 -53,-177 -53,-268 0,-4 -1,-9 -2,-14 -8,-41 -55,-90 -84,-119 -16,-17 -33,-34 -50,-51 z"
         id="path4630"
         inkscape:connector-curvature="0"
         style="fill:#80e010" /></g><path
       class="fil15"
       d="m -2226,11862 c -144,-417 -160,-857 -45,-1268 28,-90 113,-130 167,-83 96,83 246,224 206,421 -49,350 14,717 204,1046 190,329 476,567 803,700 192,64 239,265 263,389 14,70 -64,124 -156,102 -413,-105 -787,-339 -1076,-672 -89,-103 -181,-48 -297,19 -116,67 -286,-28 -407,-36 54,-108 57,-303 173,-370 116,-67 209,-119 165,-248 z"
       id="path4632"
       inkscape:connector-curvature="0"
       style="fill:#e0c020" /><g
       id="_1138815504"><path
         class="fil16"
         d="m -2535,12463 c 51,8 103,24 151,37 67,17 154,35 217,-1 110,-63 220,-132 322,-15 281,324 650,560 1065,666 28,7 58,6 84,-5 20,-8 38,-22 46,-41 4,-11 5,-22 3,-33 -31,-156 -84,-319 -250,-374 l 0,-1 -1,0 c -344,-139 -628,-387 -813,-708 -186,-321 -258,-691 -207,-1058 l 0,-1 0,-1 c 35,-171 -79,-299 -199,-403 -8,-7 -18,-12 -30,-14 -21,-3 -42,6 -59,19 -22,17 -38,43 -46,69 -23,83 -41,167 -53,251 -50,339 -14,683 97,1006 51,147 -64,208 -173,271 -9,5 -17,11 -25,18 -76,69 -89,217 -129,318 z"
         id="path4635"
         inkscape:connector-curvature="0"
         style="fill:#dab323" /><path
         class="fil17"
         d="m -2508,12448 c 43,8 87,22 129,33 61,15 145,34 203,1 64,-38 145,-88 223,-81 50,5 90,33 123,70 279,321 643,555 1055,660 23,6 49,5 72,-4 14,-6 29,-16 35,-31 2,-7 3,-14 1,-22 -28,-147 -78,-306 -236,-359 l -1,0 -1,-1 c -348,-141 -636,-391 -823,-716 -188,-325 -261,-700 -209,-1071 l 0,-1 0,-1 c 33,-164 -79,-286 -193,-385 -6,-5 -12,-8 -20,-9 -15,-3 -32,5 -44,14 -19,15 -32,38 -39,60 -23,81 -40,164 -53,248 -49,335 -13,677 97,996 16,47 20,96 -1,142 -32,71 -117,116 -181,153 -8,4 -15,10 -22,16 -42,38 -64,107 -79,160 -11,41 -22,86 -36,128 z"
         id="path4637"
         inkscape:connector-curvature="0"
         style="fill:#d3a626" /><path
         class="fil18"
         d="m -2214,10611 c -113,405 -93,835 44,1232 17,52 21,105 -2,156 -35,76 -120,122 -190,162 -6,4 -12,8 -17,13 -39,35 -60,103 -74,151 -10,35 -18,72 -30,108 37,9 74,20 109,28 54,14 136,34 188,4 69,-40 151,-91 235,-83 55,5 100,35 136,76 276,318 637,549 1045,654 23,5 73,4 83,-23 2,-4 2,-7 1,-11 -27,-140 -73,-294 -223,-344 l -2,-1 -2,0 c -352,-143 -643,-397 -832,-725 -190,-329 -264,-708 -212,-1084 l 0,-2 1,-1 c 31,-156 -79,-272 -187,-366 -3,-2 -6,-4 -10,-5 -28,-4 -54,38 -61,61 z"
         id="path4639"
         inkscape:connector-curvature="0"
         style="fill:#cd9a2a" /><path
         class="fil19"
         d="m -2156,10570 c -16,-1 -35,33 -39,46 -112,402 -92,828 43,1221 20,56 23,115 -2,170 -37,81 -124,128 -198,171 -5,3 -10,7 -14,11 -36,32 -55,98 -68,142 -8,29 -15,58 -24,88 30,7 60,16 89,23 47,12 127,32 173,6 74,-43 158,-95 247,-86 60,6 109,38 149,83 273,315 630,544 1034,648 14,3 53,4 61,-11 0,0 0,0 0,0 -26,-132 -68,-282 -211,-329 l -2,-1 -2,-1 c -356,-144 -651,-401 -842,-733 -192,-333 -267,-716 -214,-1096 l 0,-3 0,-2 c 30,-147 -78,-259 -180,-347 0,0 0,0 0,0 z"
         id="path4641"
         inkscape:connector-curvature="0"
         style="fill:#c68d2d" /><path
         class="fil20"
         d="m -2159,10593 c -8,7 -15,21 -17,29 -111,397 -91,819 43,1208 21,62 24,125 -3,185 -40,87 -127,135 -206,180 -4,3 -8,5 -11,8 -32,29 -51,94 -62,133 -6,23 -12,46 -18,69 23,6 46,13 68,18 41,11 119,30 159,7 78,-45 164,-97 258,-88 66,7 120,41 162,90 271,312 625,539 1025,642 8,1 24,3 34,-1 -24,-121 -65,-258 -195,-302 l -3,-1 -3,-1 c -359,-146 -657,-405 -852,-742 -194,-336 -270,-724 -216,-1108 l 1,-3 0,-3 c 27,-134 -71,-238 -164,-320 z"
         id="path4643"
         inkscape:connector-curvature="0"
         style="fill:#c08030" /></g><path
       class="fil15"
       d="m 1860,12497 c -290,333 -663,567 -1076,672 -92,22 -170,-32 -156,-102 24,-124 71,-325 263,-389 327,-133 613,-371 803,-700 190,-329 253,-696 204,-1046 -40,-197 110,-338 206,-421 54,-47 139,-7 167,83 115,411 99,851 -45,1268 -44,129 49,181 165,248 116,67 119,262 173,370 -121,8 -291,103 -407,36 -116,-67 -208,-122 -297,-19 z"
       id="path4645"
       inkscape:connector-curvature="0"
       style="fill:#e0c020" /><g
       id="_884641904"><path
         class="fil16"
         d="m 2535,12464 c -19,-48 -31,-101 -44,-149 -19,-67 -46,-151 -110,-188 -109,-63 -224,-124 -173,-271 139,-405 159,-844 44,-1256 -8,-27 -24,-53 -46,-70 -17,-13 -38,-22 -59,-19 -12,2 -22,7 -30,14 -120,104 -234,232 -199,403 l 0,1 0,1 c 51,367 -21,737 -207,1058 -185,321 -469,569 -813,708 l -1,0 0,1 c -166,55 -219,218 -250,374 -2,11 -1,22 3,33 8,19 26,33 46,41 26,11 56,12 83,5 417,-106 785,-342 1066,-666 102,-117 212,-48 322,15 8,5 18,9 27,12 99,32 233,-31 341,-47 z"
         id="path4648"
         inkscape:connector-curvature="0"
         style="fill:#dab323" /><path
         class="fil17"
         d="m 2508,12448 c -14,-42 -25,-87 -36,-128 -17,-60 -43,-142 -101,-176 -64,-37 -149,-82 -181,-153 -21,-46 -17,-95 -1,-142 138,-400 158,-835 44,-1243 -7,-23 -20,-46 -39,-61 -12,-9 -29,-17 -44,-14 -8,1 -14,4 -20,9 -114,99 -226,221 -193,385 l 0,1 0,1 c 52,371 -21,746 -209,1071 -187,325 -475,575 -823,716 l -1,1 -1,0 c -158,53 -208,212 -236,359 -2,8 -1,15 1,22 6,15 21,25 35,31 23,9 48,10 71,4 413,-105 777,-339 1056,-660 33,-37 73,-65 123,-70 78,-7 159,43 223,81 8,4 16,8 25,10 54,18 124,2 178,-11 42,-11 86,-25 129,-33 z"
         id="path4650"
         inkscape:connector-curvature="0"
         style="fill:#d3a626" /><path
         class="fil18"
         d="m 770,13112 c 409,-105 769,-336 1045,-654 36,-41 81,-71 136,-76 84,-8 166,43 235,83 7,3 14,6 21,9 49,16 118,0 167,-13 35,-8 72,-19 109,-28 -12,-36 -20,-73 -30,-108 -15,-53 -39,-134 -91,-164 -70,-40 -155,-86 -190,-162 -23,-51 -19,-104 -2,-156 137,-397 157,-827 44,-1232 -7,-23 -33,-65 -61,-61 -4,1 -7,3 -10,5 -108,94 -218,210 -187,366 l 1,1 0,2 c 52,376 -22,755 -212,1084 -189,328 -480,582 -832,725 l -2,0 -2,1 c -150,50 -196,204 -223,344 -1,4 -1,7 1,11 10,27 59,28 83,23 z"
         id="path4652"
         inkscape:connector-curvature="0"
         style="fill:#cd9a2a" /><path
         class="fil19"
         d="m 705,13082 c 8,15 47,14 60,11 405,-104 762,-333 1035,-648 40,-45 89,-77 149,-83 89,-9 173,43 247,86 5,3 11,5 17,7 45,15 112,-1 156,-13 29,-7 59,-16 89,-23 -9,-30 -16,-59 -24,-88 -14,-48 -36,-126 -82,-153 -74,-43 -161,-90 -198,-171 -25,-55 -22,-114 -2,-170 135,-393 155,-820 43,-1220 -4,-14 -23,-48 -39,-47 0,0 0,0 0,0 -102,88 -210,200 -180,347 l 0,2 0,3 c 53,380 -22,763 -214,1096 -191,332 -486,589 -842,733 l -2,1 -2,0 c -143,48 -185,198 -211,330 0,0 0,0 0,0 z"
         id="path4654"
         inkscape:connector-curvature="0"
         style="fill:#c68d2d" /><path
         class="fil20"
         d="m 727,13073 c 10,4 26,2 34,1 400,-103 754,-330 1025,-642 42,-49 96,-83 162,-89 94,-10 180,42 258,87 4,3 8,5 13,6 40,13 106,-3 146,-13 22,-5 45,-12 68,-18 -6,-23 -12,-46 -18,-69 -12,-40 -34,-118 -73,-141 -79,-45 -166,-93 -206,-180 -27,-60 -24,-123 -3,-185 134,-389 154,-811 43,-1208 -2,-8 -9,-22 -17,-29 -93,82 -191,186 -164,320 l 0,3 1,3 c 54,384 -22,772 -216,1108 -195,337 -493,596 -852,742 l -3,1 -3,1 c -130,44 -171,181 -195,302 z"
         id="path4656"
         inkscape:connector-curvature="0"
         style="fill:#c08030" /></g><path
       class="fil21"
       d="m -354,9425 0,925 c 0,47 52,99 98,99 l 453,0 -453,0 c -46,0 -98,52 -98,98 l 0,99 0,0 0,-99 0,-197 0,99 551,0 c 93,0 197,104 197,197 l 0,118"
       id="path4658"
       inkscape:connector-curvature="0"
       style="fill:none" /><g
       id="_884615600"><path
         class="fil2"
         d="m -217,10311 414,0 c 87,0 170,44 231,104 60,60 103,144 103,231 l 0,98 -275,0 0,-98 c -1,-10 -16,-29 -23,-36 -8,-7 -26,-22 -36,-23 l -414,0 0,157 -275,0 0,-98 c 0,-407 0,-814 0,-1221 l 0,-98 275,0 0,984 z"
         id="path4661"
         inkscape:connector-curvature="0"
         style="fill:#749d25" /><path
         class="fil3"
         d="m -236,10331 433,0 c 81,0 160,41 217,98 56,57 98,135 98,217 l 0,78 -236,0 0,-78 c 0,-16 -19,-40 -29,-50 -11,-10 -35,-29 -50,-29 l -433,0 0,157 -236,0 0,-78 c 0,-407 0,-814 0,-1221 l 0,-79 236,0 0,985 z"
         id="path4663"
         inkscape:connector-curvature="0"
         style="fill:#698a2a" /><path
         class="fil4"
         d="m -256,10344 c 2,2 4,5 6,6 l 447,0 c 76,0 150,40 203,93 53,53 92,126 92,203 l 0,59 -197,0 0,-59 c 0,-22 -20,-49 -35,-64 -14,-15 -41,-35 -63,-35 l -447,0 c -2,2 -4,4 -6,7 l 0,151 -197,0 0,-59 c 0,-407 0,-814 0,-1221 l 0,-59 197,0 0,978 z"
         id="path4665"
         inkscape:connector-curvature="0"
         style="fill:#5f772f" /><path
         class="fil5"
         d="m -276,10349 c 3,7 15,19 21,21 l 452,0 c 71,0 140,38 189,87 49,49 86,118 86,189 l 0,39 -157,0 0,-39 c 0,-28 -22,-59 -41,-78 -18,-19 -49,-40 -77,-40 l -452,0 c -6,2 -18,14 -21,20 l 0,137 -157,0 0,-39 c 0,-407 0,-814 0,-1221 l 0,-39 157,0 0,963 z"
         id="path4667"
         inkscape:connector-curvature="0"
         style="fill:#546535" /><path
         class="fil6"
         d="m -295,9406 0,944 c 0,14 25,40 39,40 l 453,0 c 65,0 129,35 175,81 45,45 81,109 81,175 l 0,19 -118,0 0,-19 c 0,-34 -24,-69 -47,-92 -23,-23 -58,-46 -91,-46 l -453,0 c -14,0 -39,26 -39,39 l 0,118 -118,0 0,-19 c 0,-407 0,-814 0,-1221 l 0,-19 118,0 z"
         id="path4669"
         inkscape:connector-curvature="0"
         style="fill:#4a523a" /></g><path
       class="fil8"
       d="m -315,9425 0,925 c 0,25 34,59 59,59 l 453,0 c 57,0 116,31 161,76 44,44 75,103 75,161 l -20,0 -39,0 -20,0 c 0,-36 -21,-75 -52,-106 -31,-31 -70,-52 -105,-52 l -453,0 c -25,0 -59,35 -59,59 l 0,99 -79,0 c 0,-407 0,-814 0,-1221 l 79,0 z"
       id="path4671"
       inkscape:connector-curvature="0"
       style="fill:#3f3f3f;fill-rule:nonzero" /><g
       id="_884614288"><path
         class="fil2"
         d="m -10,9888 c 87,0 158,70 158,157 0,87 -71,158 -158,158 -87,0 -157,-71 -157,-158 0,-87 70,-157 157,-157 z"
         id="path4674"
         inkscape:connector-curvature="0"
         style="fill:#749d25" /><path
         class="fil3"
         d="m -10,9907 c 76,0 138,62 138,138 0,76 -62,138 -138,138 -76,0 -138,-62 -138,-138 0,-76 62,-138 138,-138 z"
         id="path4676"
         inkscape:connector-curvature="0"
         style="fill:#698a2a" /><path
         class="fil4"
         d="m -10,9927 c 65,0 118,53 118,118 0,66 -53,118 -118,118 -65,0 -118,-52 -118,-118 0,-65 53,-118 118,-118 z"
         id="path4678"
         inkscape:connector-curvature="0"
         style="fill:#5f772f" /><path
         class="fil5"
         d="m -10,9947 c 55,0 99,44 99,98 0,55 -44,99 -99,99 -54,0 -98,-44 -98,-99 0,-54 44,-98 98,-98 z"
         id="path4680"
         inkscape:connector-curvature="0"
         style="fill:#546535" /><path
         class="fil6"
         d="m -10,9967 c 44,0 79,35 79,78 0,44 -35,79 -79,79 -43,0 -79,-35 -79,-79 0,-43 36,-78 79,-78 z"
         id="path4682"
         inkscape:connector-curvature="0"
         style="fill:#4a523a" /></g><circle
       class="fil7"
       cx="-10"
       cy="10045"
       r="59"
       id="circle4684"
       style="fill:#3f3f3f" /><g
       id="_884613360"><path
         class="fil2"
         d="m -69,11433 c 87,0 158,71 158,158 0,87 -71,157 -158,157 -87,0 -157,-70 -157,-157 0,-87 70,-158 157,-158 z"
         id="path4687"
         inkscape:connector-curvature="0"
         style="fill:#749d25" /><path
         class="fil3"
         d="m -69,11453 c 76,0 138,61 138,138 0,76 -62,137 -138,137 -76,0 -138,-61 -138,-137 0,-77 62,-138 138,-138 z"
         id="path4689"
         inkscape:connector-curvature="0"
         style="fill:#698a2a" /><path
         class="fil4"
         d="m -69,11472 c 65,0 118,53 118,119 0,65 -53,118 -118,118 -65,0 -118,-53 -118,-118 0,-66 53,-119 118,-119 z"
         id="path4691"
         inkscape:connector-curvature="0"
         style="fill:#5f772f" /><path
         class="fil5"
         d="m -69,11492 c 54,0 99,44 99,99 0,54 -45,98 -99,98 -54,0 -98,-44 -98,-98 0,-55 44,-99 98,-99 z"
         id="path4693"
         inkscape:connector-curvature="0"
         style="fill:#546535" /><path
         class="fil6"
         d="m -69,11512 c 44,0 79,35 79,79 0,43 -35,78 -79,78 -43,0 -79,-35 -79,-78 0,-44 36,-79 79,-79 z"
         id="path4695"
         inkscape:connector-curvature="0"
         style="fill:#4a523a" /></g><circle
       class="fil7"
       cx="-69"
       cy="11591"
       r="59"
       id="circle4697"
       style="fill:#3f3f3f" /></g></svg>