<?xml version="1.0" encoding="UTF-8" standalone="no"?>
<!-- Creator: CorelDRAW X7 -->

<svg
   xmlns:dc="http://purl.org/dc/elements/1.1/"
   xmlns:cc="http://creativecommons.org/ns#"
   xmlns:rdf="http://www.w3.org/1999/02/22-rdf-syntax-ns#"
   xmlns:svg="http://www.w3.org/2000/svg"
   xmlns="http://www.w3.org/2000/svg"
   xmlns:sodipodi="http://sodipodi.sourceforge.net/DTD/sodipodi-0.dtd"
   xmlns:inkscape="http://www.inkscape.org/namespaces/inkscape"
   xml:space="preserve"
   width="7.8740005in"
   height="7.8740005in"
   version="1.1"
   style="clip-rule:evenodd;fill-rule:evenodd;image-rendering:optimizeQuality;shape-rendering:geometricPrecision;text-rendering:geometricPrecision"
   viewBox="0 0 7874.0005 7874.0005"
   id="svg2"
   inkscape:version="0.91 r13725"
   sodipodi:docname="tohaa_kerail_preceptors.svg"><metadata
     id="metadata197"><rdf:RDF><cc:Work
         rdf:about=""><dc:format>image/svg+xml</dc:format><dc:type
           rdf:resource="http://purl.org/dc/dcmitype/StillImage" /></cc:Work></rdf:RDF></metadata><sodipodi:namedview
     pagecolor="#ffffff"
     bordercolor="#666666"
     borderopacity="1"
     objecttolerance="10"
     gridtolerance="10"
     guidetolerance="10"
     inkscape:pageopacity="0"
     inkscape:pageshadow="2"
     inkscape:window-width="640"
     inkscape:window-height="480"
     id="namedview195"
     showgrid="false"
     inkscape:zoom="0.23838384"
     inkscape:cx="736.83001"
     inkscape:cy="849.33005"
     inkscape:window-x="0"
     inkscape:window-y="0"
     inkscape:window-maximized="0"
     inkscape:current-layer="svg2" /><defs
     id="defs4"><style
       type="text/css"
       id="style6"><![CDATA[
    .fil0 {fill:black}
    .fil6 {fill:#561A16}
    .fil5 {fill:#641D18}
    .fil4 {fill:#721F19}
    .fil3 {fill:#81221B}
    .fil2 {fill:#8F241C}
    .fil1 {fill:#9D271E}
    .fil7 {fill:#CCCCCC}
    .fil8 {fill:#D6D6D6}
    .fil9 {fill:#E0E0E0}
    .fil10 {fill:#EBEBEB}
    .fil11 {fill:whitesmoke}
    .fil12 {fill:white}
   ]]></style></defs><g
     id="Layer_x0020_1"
     transform="translate(3937,-7063)"><metadata
       id="CorelCorpID_0Corel-Layer" /><circle
       class="fil0"
       cy="11000"
       r="3937"
       id="circle10"
       cx="0"
       style="fill:#000000" /><circle
       class="fil1"
       cy="11000"
       r="3661"
       id="circle12"
       cx="0"
       style="fill:#9d271e" /><path
       class="fil1"
       d="m -2894,13242 c -200,-257 139,-526 177,-545 709,-394 1302,-534 1378,-552 77,-17 288,-2 355,40 l 512,315 c 270,166 108,409 78,590 -39,236 315,709 394,709 79,0 433,-473 394,-709 -30,-181 -192,-424 78,-590 l 512,-315 c 67,-42 278,-57 355,-40 76,18 669,158 1378,552 38,19 377,288 177,545 -670,864 -1717,1419 -2894,1419 -1177,0 -2224,-555 -2894,-1419 z"
       id="path14"
       inkscape:connector-curvature="0"
       style="fill:#9d271e" /><g
       id="_701281024"><path
         class="fil2"
         d="m -2888,13238 c 694,894 1754,1416 2888,1416 1134,0 2194,-522 2888,-1416 42,-55 65,-117 60,-186 -4,-60 -28,-117 -60,-168 -29,-45 -65,-88 -105,-125 -14,-13 -29,-26 -44,-38 -8,-5 -18,-13 -26,-18 -295,-164 -606,-304 -925,-416 -147,-51 -299,-99 -451,-134 -75,-17 -283,-2 -349,38 l -511,315 c -81,50 -138,115 -149,211 -14,128 53,249 73,372 20,117 -55,277 -110,377 -47,82 -102,165 -164,237 -22,25 -90,104 -127,104 -37,0 -105,-79 -127,-104 -62,-72 -117,-155 -164,-237 -55,-100 -130,-260 -110,-377 11,-67 36,-134 53,-200 44,-164 29,-286 -129,-383 l -511,-315 c -66,-40 -274,-55 -349,-38 -152,35 -304,83 -451,134 -319,112 -630,252 -925,417 -8,4 -18,12 -26,17 -15,12 -30,25 -44,38 -40,37 -76,80 -105,125 -32,51 -56,108 -60,168 -5,69 18,131 60,186 z"
         id="path17"
         inkscape:connector-curvature="0"
         style="fill:#8f241c" /><path
         class="fil3"
         d="m -2882,13233 c 692,892 1750,1413 2882,1413 1132,0 2190,-521 2882,-1413 41,-53 63,-113 59,-181 -4,-58 -28,-114 -59,-163 -29,-46 -65,-87 -104,-124 -14,-13 -29,-26 -44,-38 -7,-5 -17,-13 -24,-16 l -1,-1 c -295,-163 -605,-304 -924,-415 -146,-52 -298,-99 -450,-134 -73,-17 -279,-2 -342,37 l -512,315 c -78,48 -135,112 -145,205 -14,125 53,249 73,370 20,119 -55,280 -112,382 -46,82 -102,165 -164,238 -24,28 -92,107 -133,107 -41,0 -109,-79 -133,-107 -62,-73 -118,-156 -164,-238 -57,-102 -132,-263 -112,-382 11,-68 36,-135 54,-201 42,-161 28,-279 -126,-374 l -512,-315 c -63,-39 -269,-54 -342,-37 -152,35 -304,82 -450,134 -319,111 -629,252 -924,415 l -1,1 c -7,3 -17,11 -24,16 -15,12 -30,25 -44,38 -39,37 -75,78 -104,124 -31,49 -55,105 -59,163 -4,68 18,128 59,181 z"
         id="path19"
         inkscape:connector-curvature="0"
         style="fill:#81221b" /><path
         class="fil4"
         d="m -2876,13228 c 691,891 1747,1410 2876,1410 1129,0 2185,-519 2876,-1410 40,-52 61,-110 57,-175 -4,-57 -28,-112 -58,-160 -28,-45 -64,-86 -102,-122 -14,-13 -29,-26 -44,-37 -6,-5 -16,-13 -23,-16 l 0,-1 -1,0 c -294,-163 -604,-303 -922,-415 -147,-51 -299,-99 -450,-134 -70,-16 -275,-1 -336,37 l -512,315 c -76,46 -131,108 -141,199 -14,122 53,248 73,367 20,122 -55,284 -113,387 -46,84 -103,167 -165,240 -26,31 -94,109 -139,109 -45,0 -113,-78 -139,-109 -62,-73 -119,-156 -165,-240 -58,-103 -133,-265 -113,-387 11,-67 37,-134 54,-201 42,-157 29,-272 -122,-365 l -512,-315 c -61,-38 -266,-53 -336,-37 -151,35 -303,83 -450,134 -318,112 -628,252 -922,415 l -1,0 0,1 c -7,3 -17,11 -23,16 -15,11 -30,24 -44,37 -38,36 -74,77 -102,122 -30,48 -54,103 -58,160 -4,65 17,123 57,175 z"
         id="path21"
         inkscape:connector-curvature="0"
         style="fill:#721f19" /><path
         class="fil5"
         d="m -2869,13223 c 689,889 1742,1407 2869,1407 1127,0 2180,-518 2869,-1407 82,-105 67,-219 -1,-326 -28,-44 -63,-85 -101,-120 -14,-13 -28,-26 -43,-37 -6,-5 -15,-12 -22,-15 l 0,-1 -1,0 c -294,-163 -603,-303 -921,-414 -146,-52 -298,-99 -449,-134 -68,-16 -271,-1 -330,36 l -512,314 c -74,46 -128,105 -137,194 -14,120 53,248 73,365 20,123 -55,287 -114,392 -47,84 -103,168 -166,241 -28,34 -97,112 -145,112 -48,0 -117,-78 -145,-112 -63,-73 -119,-157 -166,-241 -59,-105 -134,-269 -114,-392 12,-68 37,-135 54,-202 41,-154 30,-266 -118,-357 l -512,-314 c -59,-37 -262,-52 -330,-36 -151,35 -303,82 -449,134 -318,111 -627,251 -921,414 l -1,0 0,1 c -7,3 -16,10 -22,15 -15,11 -29,24 -43,37 -38,35 -73,76 -101,120 -68,107 -83,221 -1,326 z"
         id="path23"
         inkscape:connector-curvature="0"
         style="fill:#641d18" /><path
         class="fil6"
         d="m -2863,13218 c 688,887 1739,1404 2863,1404 1124,0 2175,-517 2863,-1404 80,-102 65,-211 -1,-315 -27,-44 -62,-84 -99,-119 -13,-13 -28,-26 -42,-37 -6,-5 -15,-12 -22,-15 l -1,-1 -1,0 c -293,-163 -603,-303 -919,-414 -146,-51 -298,-98 -448,-133 -67,-16 -267,-1 -325,34 l -512,315 c -72,44 -124,102 -134,188 -12,118 54,247 74,363 20,125 -55,290 -115,397 -47,84 -104,168 -167,242 -31,36 -99,115 -151,115 -52,0 -120,-79 -151,-115 -63,-74 -120,-158 -167,-242 -60,-107 -135,-272 -115,-397 12,-68 37,-136 55,-203 40,-151 30,-259 -115,-348 l -512,-315 c -58,-35 -258,-50 -325,-34 -150,35 -302,82 -448,133 -316,111 -626,251 -919,414 l -1,0 -1,1 c -7,3 -16,10 -22,15 -14,11 -29,24 -42,37 -37,35 -72,75 -99,119 -66,104 -81,213 -1,315 z"
         id="path25"
         inkscape:connector-curvature="0"
         style="fill:#561a16" /></g><path
       class="fil1"
       d="m 3389,12385 c -123,302 -525,143 -562,119 -695,-417 -1112,-860 -1166,-917 -54,-58 -145,-248 -143,-327 l 17,-601 c 9,-317 300,-299 472,-363 224,-84 456,-627 417,-695 -39,-69 -626,-139 -811,13 -141,116 -271,378 -550,227 L 534,9555 C 465,9518 346,9343 323,9268 300,9193 124,8610 111,7799 c -3,-43 61,-471 384,-427 1083,148 2087,778 2676,1797 588,1020 631,2204 218,3216 z"
       id="path27"
       inkscape:connector-curvature="0"
       style="fill:#9d271e" /><g
       id="_701222016"><path
         class="fil2"
         d="M 3382,12382 C 3810,11334 3731,10155 3164,9173 2597,8191 1615,7534 494,7380 c -69,-9 -134,2 -191,41 -50,33 -88,83 -115,136 -25,47 -44,100 -56,153 -4,19 -8,38 -11,58 -1,9 -3,21 -2,31 5,338 39,677 102,1009 29,153 64,309 109,458 22,73 140,246 208,282 l 528,286 c 83,45 169,62 257,23 118,-51 189,-170 285,-249 92,-75 268,-91 382,-92 95,-2 194,5 287,22 33,7 135,27 154,59 18,32 -15,130 -27,162 -32,89 -75,179 -123,260 -59,98 -160,243 -271,284 -64,24 -134,36 -200,53 -164,45 -262,119 -267,304 l -17,600 c -2,77 89,265 141,321 106,114 224,222 342,324 256,220 533,419 823,593 8,5 19,10 28,13 18,8 37,14 55,20 52,15 107,26 161,28 60,3 121,-5 175,-31 63,-31 105,-82 131,-146 z"
         id="path30"
         inkscape:connector-curvature="0"
         style="fill:#8f241c" /><path
         class="fil3"
         d="M 3375,12379 C 3802,11334 3723,10157 3157,9177 2591,8197 1612,7541 493,7388 c -67,-9 -130,1 -186,39 -49,33 -85,82 -112,133 -25,47 -43,100 -55,152 -5,18 -8,38 -11,57 -1,8 -3,21 -2,29 l 0,1 c 5,337 39,676 102,1007 28,153 63,309 109,457 21,72 138,243 203,278 l 529,286 c 81,44 164,61 250,23 115,-50 189,-171 283,-248 94,-77 271,-93 387,-94 95,-2 195,6 288,23 37,7 139,26 160,62 20,35 -14,133 -26,169 -32,89 -76,179 -125,261 -59,100 -161,245 -274,288 -64,24 -135,35 -201,53 -161,44 -256,115 -261,296 l -17,600 c -2,75 88,261 139,316 106,114 223,222 341,323 256,220 532,418 822,592 l 0,0 c 7,5 19,10 27,13 18,7 36,14 55,19 51,16 105,26 158,28 59,3 119,-5 172,-31 60,-29 101,-78 127,-141 z"
         id="path32"
         inkscape:connector-curvature="0"
         style="fill:#81221b" /><path
         class="fil4"
         d="M 3367,12376 C 3793,11333 3715,10159 3150,9181 2586,8203 1608,7548 492,7396 c -65,-9 -126,1 -181,38 -47,32 -83,79 -109,130 -25,47 -43,98 -55,149 -4,19 -8,38 -10,57 -1,8 -3,20 -2,28 l 0,0 0,1 c 5,336 39,675 101,1006 29,152 64,308 109,456 21,69 137,239 200,273 l 529,286 c 78,43 159,60 243,23 112,-50 188,-171 281,-247 95,-78 273,-95 392,-96 95,-1 196,6 290,23 40,7 142,27 164,66 23,38 -11,137 -25,175 -32,90 -76,181 -125,263 -60,102 -164,248 -279,291 -64,24 -135,36 -201,54 -157,42 -250,111 -255,288 l -17,601 c -2,72 87,257 136,309 106,114 224,222 341,323 256,219 532,418 821,591 l 0,0 1,1 c 6,4 17,9 25,12 18,7 36,13 54,19 50,15 104,25 157,27 56,3 116,-4 167,-30 59,-28 99,-76 123,-137 z"
         id="path34"
         inkscape:connector-curvature="0"
         style="fill:#721f19" /><path
         class="fil5"
         d="M 3360,12373 C 3785,11332 3707,10161 3144,9185 2580,8209 1605,7556 491,7403 c -133,-18 -223,52 -282,164 -24,47 -42,98 -54,148 -4,18 -8,37 -10,56 -1,7 -3,19 -3,26 l 0,1 0,1 c 6,336 40,674 102,1005 29,152 64,307 109,455 20,67 134,235 196,269 l 529,285 c 76,41 154,58 236,23 110,-49 188,-171 279,-246 97,-80 276,-97 397,-98 96,-1 197,6 291,23 44,8 146,28 170,70 24,42 -10,140 -25,182 -32,90 -76,181 -125,264 -62,104 -166,250 -283,294 -64,24 -135,36 -202,54 -154,42 -245,108 -250,281 l -16,601 c -2,70 86,253 134,304 106,113 223,221 340,322 255,219 531,417 820,590 l 0,1 1,0 c 6,4 17,9 24,11 17,7 35,14 53,19 50,15 103,25 155,28 127,5 233,-39 283,-163 z"
         id="path36"
         inkscape:connector-curvature="0"
         style="fill:#641d18" /><path
         class="fil6"
         d="M 3353,12370 C 3777,11331 3699,10163 3137,9189 2575,8215 1601,7563 490,7411 c -129,-17 -216,50 -274,159 -24,45 -41,95 -53,145 -4,18 -8,37 -10,55 -1,8 -3,19 -3,27 l 0,1 0,1 c 6,335 40,673 102,1003 28,152 63,307 108,455 20,65 133,231 193,264 l 528,285 c 74,40 150,57 229,22 109,-47 188,-170 278,-244 99,-81 279,-98 402,-100 96,-1 198,6 293,24 46,8 149,28 175,73 26,45 -8,144 -24,188 -33,91 -77,183 -126,266 -63,106 -168,253 -287,298 -65,24 -136,36 -203,54 -150,41 -239,104 -244,273 l -17,601 c -1,68 87,249 133,299 106,113 222,220 339,321 255,219 531,417 819,590 l 0,0 1,0 c 7,5 17,9 24,12 18,7 35,13 53,18 49,15 102,25 153,27 123,4 225,-38 274,-158 z"
         id="path38"
         inkscape:connector-curvature="0"
         style="fill:#561a16" /></g><path
       class="fil1"
       d="m -495,7372 c 323,-44 387,384 384,427 -13,811 -189,1394 -212,1469 -23,75 -142,250 -211,287 l -529,286 c -279,151 -409,-111 -550,-227 -185,-152 -772,-82 -811,-13 -39,68 193,611 417,695 172,64 463,46 472,363 l 17,601 c 2,79 -89,269 -143,327 -54,57 -471,500 -1166,917 -37,24 -439,183 -562,-119 -413,-1012 -370,-2196 218,-3216 589,-1019 1593,-1649 2676,-1797 z"
       id="path40"
       inkscape:connector-curvature="0"
       style="fill:#9d271e" /><g
       id="_701220672"><path
         class="fil2"
         d="m -494,7380 c -1121,154 -2103,811 -2670,1793 -567,982 -646,2161 -218,3209 26,64 68,115 131,146 54,26 115,34 175,31 54,-2 109,-13 161,-28 18,-6 37,-12 55,-20 9,-3 20,-8 28,-13 290,-174 567,-373 823,-593 118,-102 236,-210 342,-324 52,-56 143,-244 141,-321 l -17,-600 c -2,-94 -30,-177 -108,-234 -104,-76 -242,-79 -359,-123 -111,-41 -212,-186 -271,-284 -48,-81 -91,-171 -123,-260 -12,-32 -45,-130 -27,-162 19,-32 121,-52 154,-59 93,-17 192,-24 287,-22 114,1 290,17 382,92 52,43 97,98 146,146 120,120 233,168 396,80 l 528,-286 c 68,-36 186,-209 208,-282 45,-149 80,-305 109,-458 63,-332 97,-671 102,-1009 1,-10 -1,-22 -2,-31 -3,-20 -7,-39 -11,-58 -12,-53 -31,-106 -56,-153 -27,-53 -65,-103 -115,-136 -57,-39 -122,-50 -191,-41 z"
         id="path43"
         inkscape:connector-curvature="0"
         style="fill:#8f241c" /><path
         class="fil3"
         d="m -493,7388 c -1119,153 -2098,809 -2664,1789 -566,980 -645,2157 -218,3202 26,63 67,112 127,141 53,26 113,34 172,31 53,-2 107,-12 158,-28 19,-5 37,-12 55,-19 8,-3 20,-8 27,-13 l 0,0 c 290,-174 566,-372 822,-592 118,-101 235,-209 341,-323 51,-55 141,-241 139,-316 l -17,-600 c -2,-92 -29,-172 -105,-228 -101,-74 -242,-79 -357,-121 -113,-43 -215,-188 -274,-288 -49,-82 -93,-172 -125,-261 -12,-36 -46,-134 -26,-169 21,-36 123,-55 160,-62 93,-17 193,-25 288,-23 116,1 293,17 387,94 52,43 98,99 146,147 118,117 228,164 387,78 l 529,-286 c 65,-35 182,-206 203,-278 46,-148 81,-304 109,-457 63,-331 97,-670 102,-1007 l 0,-1 c 1,-8 -1,-21 -2,-29 -3,-19 -6,-39 -11,-57 -12,-52 -30,-105 -55,-152 -27,-51 -63,-100 -112,-133 -56,-38 -119,-48 -186,-39 z"
         id="path45"
         inkscape:connector-curvature="0"
         style="fill:#81221b" /><path
         class="fil4"
         d="m -492,7396 c -1116,152 -2094,807 -2658,1785 -565,978 -643,2152 -217,3195 24,61 64,109 123,137 51,26 111,33 167,30 53,-2 107,-12 157,-27 18,-6 36,-12 54,-19 8,-3 19,-8 25,-12 l 1,-1 0,0 c 289,-173 565,-372 821,-591 117,-101 235,-209 341,-323 49,-52 138,-237 136,-309 l -17,-601 c -2,-89 -28,-168 -102,-222 -99,-73 -241,-78 -354,-120 -115,-43 -219,-189 -279,-291 -49,-82 -93,-173 -125,-263 -14,-38 -48,-137 -25,-175 22,-39 124,-59 164,-66 94,-17 195,-24 290,-23 119,1 297,18 392,96 53,43 98,99 147,147 115,115 221,162 377,77 l 529,-286 c 63,-34 179,-204 200,-273 45,-148 80,-304 109,-456 62,-331 96,-670 101,-1006 l 0,-1 0,0 c 1,-8 -1,-20 -2,-28 -2,-19 -6,-38 -10,-57 -12,-51 -30,-102 -55,-149 -26,-51 -62,-98 -109,-130 -55,-37 -116,-47 -181,-38 z"
         id="path47"
         inkscape:connector-curvature="0"
         style="fill:#721f19" /><path
         class="fil5"
         d="m -491,7403 c -1114,153 -2089,806 -2653,1782 -563,976 -641,2147 -216,3188 50,124 156,168 283,163 52,-3 105,-13 155,-28 18,-5 36,-12 53,-19 7,-2 18,-7 24,-11 l 1,0 0,-1 c 289,-173 565,-371 820,-590 117,-101 234,-209 340,-322 48,-51 136,-234 134,-304 l -16,-601 c -3,-86 -27,-163 -99,-215 -98,-72 -242,-78 -353,-120 -117,-44 -221,-190 -283,-294 -49,-83 -93,-174 -125,-264 -15,-42 -49,-140 -25,-182 24,-42 126,-62 170,-70 94,-17 195,-24 291,-23 121,1 300,18 397,98 53,43 98,99 147,147 113,113 216,159 368,76 l 529,-285 c 62,-34 176,-202 196,-269 45,-148 80,-303 109,-455 62,-331 96,-669 102,-1005 l 0,-1 0,-1 c 0,-7 -2,-19 -3,-26 -2,-19 -6,-38 -10,-56 -12,-50 -30,-101 -54,-148 -59,-112 -149,-182 -282,-164 z"
         id="path49"
         inkscape:connector-curvature="0"
         style="fill:#641d18" /><path
         class="fil6"
         d="m -490,7411 c -1111,152 -2085,804 -2647,1778 -562,974 -640,2142 -216,3181 49,120 151,162 274,158 51,-2 104,-12 153,-27 18,-5 35,-11 53,-18 7,-3 17,-7 24,-12 l 1,0 0,0 c 288,-173 564,-371 819,-590 117,-101 233,-208 339,-321 46,-50 134,-231 133,-299 l -17,-601 c -3,-84 -26,-158 -96,-209 -96,-70 -241,-77 -351,-118 -119,-45 -224,-192 -287,-298 -49,-83 -93,-175 -126,-266 -16,-44 -50,-143 -24,-188 26,-45 129,-65 175,-73 95,-18 197,-25 293,-24 123,2 303,19 402,100 53,43 99,99 148,148 111,110 209,155 359,74 l 528,-285 c 60,-33 173,-199 193,-264 45,-148 80,-303 108,-455 62,-330 96,-668 102,-1003 l 0,-1 0,-1 c 0,-8 -2,-19 -3,-27 -2,-18 -6,-37 -10,-55 -12,-50 -29,-100 -53,-145 -58,-109 -145,-176 -274,-159 z"
         id="path51"
         inkscape:connector-curvature="0"
         style="fill:#561a16" /></g><path
       class="fil7"
       d="m 610,10705 c 120,0 217,97 217,216 0,120 -97,217 -217,217 -119,0 -216,-97 -216,-217 0,-119 97,-216 216,-216 z m -1634,59 827,0 0,315 -827,0 0,354 c 0,31 9,39 40,39 l 787,0 0,315 -787,0 c -206,0 -355,-149 -355,-354 l 0,-1260 315,0 0,591 z m 1300,157 0,512 c 0,31 8,39 39,39 l 669,0 c 31,0 40,-8 40,-39 l 0,-866 -788,0 0,-315 788,0 0,-79 315,0 0,1260 c 0,205 -149,354 -355,354 l -669,0 c -205,0 -354,-149 -354,-354 l 0,-512 315,0 z"
       id="path53"
       inkscape:connector-curvature="0"
       style="fill:#cccccc" /><g
       id="_701218976"><path
         class="fil8"
         d="m 610,10713 c -115,0 -208,93 -208,208 0,116 93,209 208,209 115,0 209,-93 209,-209 0,-115 -94,-208 -209,-208 z m -1641,-532 -300,0 0,1252 c 0,201 146,347 347,347 l 779,0 0,-300 -779,0 c -35,0 -47,-12 -47,-47 l 0,-362 826,0 0,-299 -826,0 0,-591 z m 1299,748 -299,0 0,504 c 0,201 145,347 346,347 l 669,0 c 201,0 347,-146 347,-347 l 0,-1252 -300,0 0,79 -787,0 0,299 787,0 0,874 c 0,35 -12,47 -47,47 l -669,0 c -35,0 -47,-12 -47,-47 l 0,-504 z"
         id="path56"
         inkscape:connector-curvature="0"
         style="fill:#d6d6d6" /><path
         class="fil9"
         d="m 610,10720 c -111,0 -201,90 -201,201 0,111 90,201 201,201 111,0 201,-90 201,-201 0,-111 -90,-201 -201,-201 z m -1649,-531 -284,0 0,1244 c 0,197 142,339 339,339 l 771,0 0,-284 -771,0 c -40,0 -55,-15 -55,-55 l 0,-370 826,0 0,-283 -826,0 0,-591 z m 1299,748 -284,0 0,496 c 0,197 142,339 339,339 l 669,0 c 197,0 339,-142 339,-339 l 0,-1244 -284,0 0,79 -787,0 0,283 787,0 0,882 c 0,40 -15,55 -55,55 l -669,0 c -40,0 -55,-15 -55,-55 l 0,-496 z"
         id="path58"
         inkscape:connector-curvature="0"
         style="fill:#e0e0e0" /><path
         class="fil10"
         d="m 610,10728 c -106,0 -193,87 -193,193 0,107 87,193 193,193 107,0 193,-86 193,-193 0,-106 -86,-193 -193,-193 z m -1657,-531 -268,0 0,1236 c 0,192 138,331 331,331 l 764,0 0,-268 -764,0 c -44,0 -63,-19 -63,-63 l 0,-378 827,0 0,-268 -827,0 0,-590 z m 1299,748 -268,0 0,488 c 0,192 139,331 331,331 l 669,0 c 193,0 331,-139 331,-331 l 0,-1236 -268,0 0,79 -787,0 0,267 787,0 0,890 c 0,44 -19,63 -63,63 l -669,0 c -44,0 -63,-19 -63,-63 l 0,-488 z"
         id="path60"
         inkscape:connector-curvature="0"
         style="fill:#ebebeb" /><path
         class="fil11"
         d="m 610,10736 c -102,0 -185,83 -185,185 0,102 83,185 185,185 102,0 185,-83 185,-185 0,-102 -83,-185 -185,-185 z m -1665,-531 -252,0 0,1228 c 0,188 135,323 323,323 l 756,0 0,-252 -756,0 c -49,0 -71,-22 -71,-71 l 0,-386 827,0 0,-252 -827,0 0,-590 z m 1299,748 -252,0 0,480 c 0,188 135,323 323,323 l 669,0 c 188,0 323,-135 323,-323 l 0,-1228 -252,0 0,78 -787,0 0,252 787,0 0,898 c 0,49 -22,71 -71,71 l -669,0 c -48,0 -71,-22 -71,-71 l 0,-480 z"
         id="path62"
         inkscape:connector-curvature="0"
         style="fill:#f5f5f5" /><path
         class="fil12"
         d="m 610,10744 c -98,0 -177,79 -177,177 0,98 79,177 177,177 98,0 177,-79 177,-177 0,-98 -79,-177 -177,-177 z m -1673,-531 -236,0 0,1220 c 0,184 131,315 315,315 l 748,0 0,-236 -748,0 c -53,0 -79,-26 -79,-79 l 0,-394 827,0 0,-236 -827,0 0,-590 z m 1299,748 -236,0 0,472 c 0,184 131,315 315,315 l 669,0 c 184,0 315,-131 315,-315 l 0,-1220 -236,0 0,78 -787,0 0,237 787,0 0,905 c 0,53 -26,79 -79,79 l -669,0 c -53,0 -79,-26 -79,-79 l 0,-472 z"
         id="path64"
         inkscape:connector-curvature="0"
         style="fill:#ffffff" /></g><g
       id="_701122608"><path
         class="fil12"
         d="m -295,13037 c -21,26 -21,73 0,99 l 258,326 c 15,19 59,19 74,0 l 258,-326 c 21,-26 21,-73 0,-99 L 37,12711 c -15,-19 -59,-19 -74,0 l -258,326 z"
         id="path67"
         inkscape:connector-curvature="0"
         style="fill:#ffffff" /><g
         id="g69"><path
           class="fil11"
           d="m -289,13042 c -18,23 -18,66 0,89 l 258,326 c 12,15 50,15 62,0 l 258,-326 c 18,-23 18,-66 0,-89 L 31,12716 c -12,-15 -50,-15 -62,0 l -258,326 z"
           id="path71"
           inkscape:connector-curvature="0"
           style="fill:#f5f5f5" /><path
           class="fil10"
           d="m -283,13047 c -16,20 -16,59 0,79 l 258,326 c 9,11 41,11 50,0 l 258,-326 c 16,-20 16,-59 0,-79 L 25,12721 c -9,-11 -41,-11 -50,0 l -258,326 z"
           id="path73"
           inkscape:connector-curvature="0"
           style="fill:#ebebeb" /><path
           class="fil9"
           d="m -277,13052 c -13,17 -13,52 0,69 l 259,326 c 5,7 31,7 36,0 l 259,-326 c 13,-17 13,-52 0,-69 L 18,12726 c -5,-7 -31,-7 -36,0 l -259,326 z"
           id="path75"
           inkscape:connector-curvature="0"
           style="fill:#e0e0e0" /><path
           class="fil8"
           d="m -271,13057 c -11,14 -11,45 0,59 l 258,326 c 5,4 21,4 25,0 l 259,-326 c 11,-14 11,-45 0,-59 L 13,12731 c -5,-3 -21,-3 -25,0 l -259,326 z"
           id="path77"
           inkscape:connector-curvature="0"
           style="fill:#d6d6d6" /><path
           class="fil7"
           d="m -7,13436 c 3,1 11,1 14,0 l 257,-325 c 9,-11 9,-38 0,-49 L 7,12737 c -3,-1 -11,-1 -14,0 l -257,325 c -9,11 -9,38 0,49 l 257,325 z"
           id="path79"
           inkscape:connector-curvature="0"
           style="fill:#cccccc" /></g><path
         class="fil12"
         d="m -1043,13792 c -18,22 -18,63 0,85 l 224,283 c 13,17 50,17 64,0 l 224,-283 c 17,-22 17,-63 0,-85 l -224,-283 c -14,-16 -51,-16 -64,0 l -224,283 z"
         id="path81"
         inkscape:connector-curvature="0"
         style="fill:#ffffff" /><g
         id="g83"><path
           class="fil11"
           d="m -1037,13797 c -16,19 -16,56 0,75 l 224,283 c 10,13 41,13 51,0 l 224,-283 c 16,-19 16,-56 0,-75 l -224,-283 c -10,-12 -41,-12 -51,0 l -224,283 z"
           id="path85"
           inkscape:connector-curvature="0"
           style="fill:#f5f5f5" /><path
           class="fil10"
           d="m -1031,13802 c -13,16 -13,49 0,66 l 224,282 c 7,9 32,9 39,0 l 224,-282 c 13,-17 13,-50 0,-66 l -224,-283 c -7,-8 -32,-8 -39,0 l -224,283 z"
           id="path87"
           inkscape:connector-curvature="0"
           style="fill:#ebebeb" /><path
           class="fil9"
           d="m -1025,13807 c -11,13 -11,42 0,56 l 224,282 c 4,5 23,5 27,0 l 224,-282 c 11,-14 11,-43 0,-56 l -224,-283 c -4,-5 -23,-5 -27,0 l -224,283 z"
           id="path89"
           inkscape:connector-curvature="0"
           style="fill:#e0e0e0" /><path
           class="fil8"
           d="m -795,14139 c 3,2 12,2 16,0 l 223,-281 c 8,-11 8,-36 0,-46 l -223,-282 c -4,-2 -13,-2 -16,0 l -224,282 c -8,10 -8,35 0,46 l 224,281 z"
           id="path91"
           inkscape:connector-curvature="0"
           style="fill:#d6d6d6" /><path
           class="fil7"
           d="m -791,14133 c 2,0 5,0 7,0 l 222,-280 c 6,-8 6,-29 0,-37 l -222,-279 c -2,-1 -5,-1 -7,0 l -221,279 c -7,8 -7,29 0,37 l 221,280 z"
           id="path93"
           inkscape:connector-curvature="0"
           style="fill:#cccccc" /></g><path
         class="fil12"
         d="m 531,13792 c -17,22 -17,63 0,85 l 224,283 c 14,17 51,17 64,0 l 224,-283 c 18,-22 18,-63 0,-85 l -224,-283 c -13,-16 -50,-16 -64,0 l -224,283 z"
         id="path95"
         inkscape:connector-curvature="0"
         style="fill:#ffffff" /><g
         id="g97"><path
           class="fil11"
           d="m 538,13797 c -16,19 -16,56 0,75 l 224,283 c 10,13 41,13 51,0 l 224,-283 c 16,-19 16,-56 0,-75 l -224,-283 c -10,-12 -41,-12 -51,0 l -224,283 z"
           id="path99"
           inkscape:connector-curvature="0"
           style="fill:#f5f5f5" /><path
           class="fil10"
           d="m 544,13802 c -13,16 -13,49 0,66 l 224,282 c 7,9 32,9 39,0 l 224,-282 c 13,-17 13,-50 0,-66 l -224,-283 c -7,-8 -32,-8 -39,0 l -224,283 z"
           id="path101"
           inkscape:connector-curvature="0"
           style="fill:#ebebeb" /><path
           class="fil9"
           d="m 550,13807 c -11,13 -11,42 0,56 l 224,282 c 4,5 23,5 27,0 l 224,-282 c 11,-14 11,-43 0,-56 l -224,-283 c -4,-5 -23,-5 -27,0 l -224,283 z"
           id="path103"
           inkscape:connector-curvature="0"
           style="fill:#e0e0e0" /><path
           class="fil8"
           d="m 779,14139 c 4,2 13,2 16,0 l 224,-281 c 8,-11 8,-36 0,-46 l -224,-282 c -3,-2 -12,-2 -16,0 l -223,282 c -8,10 -8,35 0,46 l 223,281 z"
           id="path105"
           inkscape:connector-curvature="0"
           style="fill:#d6d6d6" /><path
           class="fil7"
           d="m 784,14133 c 2,0 5,0 7,0 l 221,-280 c 7,-8 7,-29 0,-37 l -221,-279 c -2,-1 -5,-1 -7,0 l -222,279 c -6,8 -6,29 0,37 l 222,280 z"
           id="path107"
           inkscape:connector-curvature="0"
           style="fill:#cccccc" /></g></g><g
       id="_748077632"><path
         class="fil12"
         d="m 1912,10237 c 33,5 73,-19 85,-49 l 153,-387 c 10,-23 -12,-60 -36,-64 l -412,-61 c -32,-4 -73,19 -85,50 l -153,386 c -9,23 12,61 37,64 l 411,61 z"
         id="path110"
         inkscape:connector-curvature="0"
         style="fill:#ffffff" /><g
         id="g112"><path
           class="fil11"
           d="m 1913,10229 c 29,4 66,-17 77,-44 l 153,-387 c 7,-18 -11,-50 -31,-53 l -411,-61 c -29,-4 -66,17 -77,44 l -153,387 c -7,18 11,51 31,53 l 411,61 z"
           id="path114"
           inkscape:connector-curvature="0"
           style="fill:#f5f5f5" /><path
           class="fil10"
           d="m 1914,10221 c 26,4 59,-15 69,-39 l 153,-387 c 5,-13 -10,-40 -25,-42 l -411,-61 c -25,-4 -59,16 -69,39 l -153,387 c -5,14 11,41 25,43 l 411,60 z"
           id="path116"
           inkscape:connector-curvature="0"
           style="fill:#ebebeb" /><path
           class="fil9"
           d="m 1916,10214 c 21,3 51,-15 59,-35 l 154,-387 c 3,-8 -10,-30 -19,-32 l -411,-60 c -22,-3 -52,14 -60,34 l -153,387 c -4,9 9,31 18,32 l 412,61 z"
           id="path118"
           inkscape:connector-curvature="0"
           style="fill:#e0e0e0" /><path
           class="fil8"
           d="m 1917,10206 c 18,3 44,-13 51,-30 l 153,-386 c 1,-6 -7,-20 -12,-22 l -412,-60 c -17,-3 -44,12 -51,29 l -153,386 c -1,6 7,20 12,22 l 412,61 z"
           id="path120"
           inkscape:connector-curvature="0"
           style="fill:#d6d6d6" /><path
           class="fil7"
           d="m 2113,9788 c 0,-3 -4,-10 -7,-12 l -410,-61 c -14,-2 -37,12 -43,25 l -152,385 c 0,4 4,10 7,13 l 410,60 c 14,2 37,-11 43,-25 l 152,-385 z"
           id="path122"
           inkscape:connector-curvature="0"
           style="fill:#cccccc" /></g><path
         class="fil12"
         d="m 2940,10508 c 28,4 63,-17 73,-43 l 133,-335 c 8,-20 -11,-53 -32,-56 l -356,-52 c -29,-5 -64,16 -74,42 l -133,335 c -8,20 11,53 32,56 l 357,53 z"
         id="path124"
         inkscape:connector-curvature="0"
         style="fill:#ffffff" /><g
         id="g126"><path
           class="fil11"
           d="m 2941,10500 c 24,3 56,-15 65,-38 l 133,-335 c 6,-15 -10,-43 -26,-45 l -357,-53 c -24,-3 -56,15 -65,38 l -133,335 c -6,15 10,43 26,45 l 357,53 z"
           id="path128"
           inkscape:connector-curvature="0"
           style="fill:#f5f5f5" /><path
           class="fil10"
           d="m 2942,10492 c 21,3 49,-13 57,-33 l 133,-335 c 4,-10 -9,-33 -20,-34 l -357,-53 c -21,-3 -49,13 -57,33 l -132,335 c -4,11 8,33 19,34 l 357,53 z"
           id="path130"
           inkscape:connector-curvature="0"
           style="fill:#ebebeb" /><path
           class="fil9"
           d="m 2943,10484 c 17,3 42,-12 49,-28 l 132,-335 c 2,-6 -7,-22 -13,-23 l -357,-53 c -17,-3 -42,12 -48,28 l -133,335 c -2,6 7,22 13,24 l 357,52 z"
           id="path132"
           inkscape:connector-curvature="0"
           style="fill:#e0e0e0" /><path
           class="fil8"
           d="m 3117,10119 c -1,-4 -5,-12 -8,-14 l -356,-52 c -14,-2 -35,10 -40,23 l -132,334 c 0,4 4,12 8,14 l 355,52 c 14,2 35,-10 40,-23 l 133,-334 z"
           id="path134"
           inkscape:connector-curvature="0"
           style="fill:#d6d6d6" /><path
           class="fil7"
           d="m 3108,10118 c 0,-1 -2,-4 -3,-5 l -353,-52 c -10,-2 -28,8 -32,18 l -131,332 c 0,2 2,4 3,5 l 353,53 c 10,1 28,-9 32,-19 l 131,-332 z"
           id="path136"
           inkscape:connector-curvature="0"
           style="fill:#cccccc" /></g><path
         class="fil12"
         d="m 2152,9144 c 28,4 64,-17 74,-43 l 133,-335 c 8,-20 -11,-52 -32,-56 l -357,-52 c -28,-4 -63,16 -74,42 l -132,336 c -8,19 10,52 32,55 l 356,53 z"
         id="path138"
         inkscape:connector-curvature="0"
         style="fill:#ffffff" /><g
         id="g140"><path
           class="fil11"
           d="m 2153,9136 c 25,4 57,-15 66,-38 l 132,-335 c 6,-15 -9,-42 -25,-45 l -357,-52 c -24,-4 -56,14 -65,37 l -133,336 c -6,15 10,42 26,44 l 356,53 z"
           id="path142"
           inkscape:connector-curvature="0"
           style="fill:#f5f5f5" /><path
           class="fil10"
           d="m 2154,9128 c 21,3 50,-13 57,-33 l 133,-335 c 4,-10 -9,-32 -19,-34 l -357,-53 c -21,-3 -49,14 -57,33 l -133,335 c -4,11 9,33 20,35 l 356,52 z"
           id="path144"
           inkscape:connector-curvature="0"
           style="fill:#ebebeb" /><path
           class="fil9"
           d="m 2156,9120 c 17,3 42,-11 48,-28 l 133,-335 c 2,-6 -8,-22 -14,-23 l -356,-53 c -18,-2 -42,12 -49,28 l -132,335 c -3,6 7,23 13,24 l 357,52 z"
           id="path146"
           inkscape:connector-curvature="0"
           style="fill:#e0e0e0" /><path
           class="fil8"
           d="m 2329,8755 c 0,-4 -4,-11 -8,-14 l -355,-52 c -14,-2 -35,10 -40,23 l -133,334 c 0,4 5,12 8,14 l 356,53 c 13,2 35,-11 40,-24 l 132,-334 z"
           id="path148"
           inkscape:connector-curvature="0"
           style="fill:#d6d6d6" /><path
           class="fil7"
           d="m 2321,8755 c -1,-2 -2,-5 -3,-6 l -354,-52 c -10,-2 -27,9 -31,18 l -132,332 c 1,2 2,4 4,6 l 353,52 c 10,1 28,-9 31,-18 l 132,-332 z"
           id="path150"
           inkscape:connector-curvature="0"
           style="fill:#cccccc" /></g></g><g
       id="_748085920"><path
         class="fil12"
         d="m -1617,9726 c -12,-31 -53,-54 -85,-50 l -412,61 c -24,4 -46,41 -36,64 l 153,387 c 12,30 52,54 85,49 l 411,-61 c 25,-3 46,-41 37,-64 l -153,-386 z"
         id="path153"
         inkscape:connector-curvature="0"
         style="fill:#ffffff" /><g
         id="g155"><path
           class="fil11"
           d="m -1624,9728 c -11,-27 -48,-48 -77,-44 l -411,61 c -20,3 -38,35 -31,53 l 153,387 c 11,27 48,48 77,44 l 411,-61 c 20,-2 38,-35 31,-53 l -153,-387 z"
           id="path157"
           inkscape:connector-curvature="0"
           style="fill:#f5f5f5" /><path
           class="fil10"
           d="m -1631,9731 c -10,-23 -44,-43 -69,-39 l -411,61 c -15,2 -30,29 -25,42 l 153,387 c 10,24 43,43 69,39 l 411,-60 c 14,-2 30,-29 25,-43 l -153,-387 z"
           id="path159"
           inkscape:connector-curvature="0"
           style="fill:#ebebeb" /><path
           class="fil9"
           d="m -1639,9734 c -8,-20 -38,-37 -60,-34 l -411,60 c -9,2 -22,24 -19,32 l 154,387 c 8,20 38,38 59,35 l 412,-61 c 9,-1 22,-23 18,-32 l -153,-387 z"
           id="path161"
           inkscape:connector-curvature="0"
           style="fill:#e0e0e0" /><path
           class="fil8"
           d="m -1646,9737 c -7,-17 -34,-32 -51,-29 l -412,60 c -5,2 -13,16 -12,21 l 153,387 c 7,17 33,33 51,30 l 411,-61 c 6,-2 14,-16 13,-21 l -153,-387 z"
           id="path163"
           inkscape:connector-curvature="0"
           style="fill:#d6d6d6" /><path
           class="fil7"
           d="m -2106,9776 c -3,2 -7,9 -7,12 l 152,385 c 6,14 29,27 43,25 l 410,-60 c 3,-3 7,-9 7,-13 l -152,-385 c -6,-13 -29,-27 -43,-25 l -410,61 z"
           id="path165"
           inkscape:connector-curvature="0"
           style="fill:#cccccc" /></g><path
         class="fil12"
         d="m -1896,8700 c -11,-26 -46,-46 -74,-42 l -357,52 c -21,4 -40,36 -32,56 l 133,335 c 10,26 46,47 74,43 l 356,-53 c 22,-3 40,-36 32,-55 l -132,-336 z"
         id="path167"
         inkscape:connector-curvature="0"
         style="fill:#ffffff" /><g
         id="g169"><path
           class="fil11"
           d="m -1904,8703 c -9,-23 -41,-41 -65,-37 l -357,52 c -16,3 -31,30 -25,45 l 132,335 c 9,23 41,42 66,38 l 356,-53 c 16,-2 32,-29 26,-44 l -133,-336 z"
           id="path171"
           inkscape:connector-curvature="0"
           style="fill:#f5f5f5" /><path
           class="fil10"
           d="m -1911,8706 c -8,-19 -36,-36 -57,-33 l -357,53 c -10,2 -23,24 -19,34 l 133,335 c 7,20 36,36 57,33 l 356,-52 c 11,-2 24,-24 20,-35 l -133,-335 z"
           id="path173"
           inkscape:connector-curvature="0"
           style="fill:#ebebeb" /><path
           class="fil9"
           d="m -1918,8709 c -7,-16 -31,-30 -49,-28 l -356,53 c -6,1 -16,17 -14,23 l 133,335 c 6,17 31,31 48,28 l 357,-52 c 6,-1 16,-18 14,-24 l -133,-335 z"
           id="path175"
           inkscape:connector-curvature="0"
           style="fill:#e0e0e0" /><path
           class="fil8"
           d="m -2321,8741 c -4,3 -8,10 -8,14 l 132,334 c 5,13 27,26 40,24 l 356,-53 c 3,-2 8,-10 8,-14 l -133,-334 c -5,-13 -26,-25 -40,-23 l -355,52 z"
           id="path177"
           inkscape:connector-curvature="0"
           style="fill:#d6d6d6" /><path
           class="fil7"
           d="m -2318,8749 c -1,1 -2,4 -3,6 l 132,332 c 3,9 21,19 31,18 l 353,-52 c 2,-2 3,-4 4,-6 l -132,-332 c -4,-9 -21,-20 -31,-18 l -354,52 z"
           id="path179"
           inkscape:connector-curvature="0"
           style="fill:#cccccc" /></g><path
         class="fil12"
         d="m -2684,10064 c -10,-26 -45,-47 -74,-42 l -356,52 c -21,3 -40,36 -32,56 l 133,335 c 10,26 45,47 73,43 l 357,-53 c 21,-3 40,-36 32,-56 l -133,-335 z"
         id="path181"
         inkscape:connector-curvature="0"
         style="fill:#ffffff" /><g
         id="g183"><path
           class="fil11"
           d="m -2691,10067 c -9,-23 -41,-41 -65,-38 l -357,53 c -16,2 -32,30 -26,45 l 133,335 c 9,23 41,41 65,38 l 357,-53 c 16,-2 32,-30 26,-45 l -133,-335 z"
           id="path185"
           inkscape:connector-curvature="0"
           style="fill:#f5f5f5" /><path
           class="fil10"
           d="m -2698,10070 c -8,-20 -36,-36 -57,-33 l -357,53 c -11,1 -24,24 -20,34 l 133,335 c 8,20 36,36 57,33 l 357,-53 c 11,-1 23,-23 19,-34 l -132,-335 z"
           id="path187"
           inkscape:connector-curvature="0"
           style="fill:#ebebeb" /><path
           class="fil9"
           d="m -2706,10073 c -6,-16 -31,-31 -48,-28 l -357,53 c -6,1 -15,17 -13,23 l 132,335 c 7,16 32,31 49,28 l 357,-52 c 6,-2 15,-18 13,-24 l -133,-335 z"
           id="path189"
           inkscape:connector-curvature="0"
           style="fill:#e0e0e0" /><path
           class="fil8"
           d="m -3109,10105 c -3,2 -7,10 -8,14 l 133,334 c 5,13 26,25 40,23 l 355,-52 c 4,-2 8,-10 8,-14 l -132,-334 c -5,-13 -26,-25 -40,-23 l -356,52 z"
           id="path191"
           inkscape:connector-curvature="0"
           style="fill:#d6d6d6" /><path
           class="fil7"
           d="m -3105,10113 c -1,1 -3,4 -3,5 l 131,332 c 4,10 22,20 32,19 l 353,-53 c 1,-1 3,-3 3,-5 l -131,-332 c -4,-10 -22,-20 -32,-18 l -353,52 z"
           id="path193"
           inkscape:connector-curvature="0"
           style="fill:#cccccc" /></g></g></g></svg>