<?xml version="1.0" encoding="UTF-8" standalone="no"?>
<!-- Creator: CorelDRAW X7 -->

<svg
   xmlns:dc="http://purl.org/dc/elements/1.1/"
   xmlns:cc="http://creativecommons.org/ns#"
   xmlns:rdf="http://www.w3.org/1999/02/22-rdf-syntax-ns#"
   xmlns:svg="http://www.w3.org/2000/svg"
   xmlns="http://www.w3.org/2000/svg"
   xmlns:sodipodi="http://sodipodi.sourceforge.net/DTD/sodipodi-0.dtd"
   xmlns:inkscape="http://www.inkscape.org/namespaces/inkscape"
   xml:space="preserve"
   width="7.8740005in"
   height="7.8740005in"
   version="1.1"
   style="clip-rule:evenodd;fill-rule:evenodd;image-rendering:optimizeQuality;shape-rendering:geometricPrecision;text-rendering:geometricPrecision"
   viewBox="0 0 7874.0005 7874.0005"
   id="svg4433"
   inkscape:version="0.91 r13725"
   sodipodi:docname="Tohaa - Kumotail Bioengineers - [N3] [Vyo].svg"><metadata
     id="metadata4511"><rdf:RDF><cc:Work
         rdf:about=""><dc:format>image/svg+xml</dc:format><dc:type
           rdf:resource="http://purl.org/dc/dcmitype/StillImage" /></cc:Work></rdf:RDF></metadata><sodipodi:namedview
     pagecolor="#ffffff"
     bordercolor="#666666"
     borderopacity="1"
     objecttolerance="10"
     gridtolerance="10"
     guidetolerance="10"
     inkscape:pageopacity="0"
     inkscape:pageshadow="2"
     inkscape:window-width="640"
     inkscape:window-height="480"
     id="namedview4509"
     showgrid="false"
     inkscape:zoom="0.23838384"
     inkscape:cx="736.83001"
     inkscape:cy="849.33005"
     inkscape:window-x="0"
     inkscape:window-y="0"
     inkscape:window-maximized="0"
     inkscape:current-layer="svg4433" /><defs
     id="defs4435"><style
       type="text/css"
       id="style4437"><![CDATA[
    .fil0 {fill:black}
    .fil7 {fill:#3F3F3F}
    .fil6 {fill:#4A523A}
    .fil5 {fill:#546535}
    .fil4 {fill:#5F772F}
    .fil3 {fill:#698A2A}
    .fil2 {fill:#749D25}
    .fil18 {fill:#80E010}
    .fil17 {fill:#83E312}
    .fil16 {fill:#86E613}
    .fil15 {fill:#8AE915}
    .fil14 {fill:#8DEC16}
    .fil13 {fill:#90F018}
    .fil12 {fill:#93F31A}
    .fil11 {fill:#96F61B}
    .fil10 {fill:#9AF91D}
    .fil9 {fill:#9DFC1E}
    .fil8 {fill:#A0FF20}
    .fil1 {fill:white}
   ]]></style></defs><g
     id="Layer_x0020_1"
     transform="translate(3937,-7063)"><metadata
       id="CorelCorpID_0Corel-Layer" /><circle
       class="fil0"
       cy="11000"
       r="3937"
       id="circle4441"
       cx="0"
       style="fill:#000000" /><circle
       class="fil1"
       cy="11000"
       r="3858"
       id="circle4443"
       cx="0"
       style="fill:#ffffff" /><g
       id="_1138819312"><path
         class="fil2"
         d="m -2715,10524 c -27,157 -41,316 -41,476 0,1159 725,2193 1811,2590 58,18 124,24 184,19 115,-10 212,-60 233,-183 l 164,-931 c 25,-142 262,-107 248,35 l -112,1137 c -17,171 -71,386 -256,447 -58,19 -120,18 -179,6 -1470,-312 -2526,-1614 -2526,-3120 0,-335 53,-667 155,-985 19,-58 49,-112 95,-153 145,-129 358,-69 515,2 l 1041,471 c 130,59 42,282 -94,232 l -888,-323 c -53,-19 -105,-20 -156,4 -99,47 -170,173 -194,276 z"
         id="path4446"
         inkscape:connector-curvature="0"
         style="fill:#749d25" /><path
         class="fil3"
         d="m -2734,10520 c -28,158 -42,319 -42,480 0,1167 731,2209 1825,2608 60,19 129,26 191,21 125,-11 228,-68 252,-200 l 164,-930 c 20,-117 220,-88 209,29 l -113,1137 c -16,162 -66,372 -242,430 -55,18 -113,17 -169,6 -1461,-311 -2510,-1605 -2510,-3101 0,-333 52,-663 154,-979 18,-55 46,-105 89,-144 138,-124 345,-62 494,5 l 1041,471 c 107,49 32,236 -79,196 l -888,-323 c -58,-22 -116,-22 -172,4 -104,50 -179,181 -204,290 z"
         id="path4448"
         inkscape:connector-curvature="0"
         style="fill:#698a2a" /><path
         class="fil4"
         d="m -2753,10516 c -28,160 -42,322 -42,484 0,744 292,1450 818,1976 288,288 636,511 1020,651 62,20 134,27 199,21 134,-11 244,-74 269,-215 l 164,-931 c 16,-92 179,-68 170,24 l -113,1137 c -15,153 -61,358 -228,413 -52,17 -106,16 -159,5 -600,-127 -1148,-428 -1580,-862 -588,-592 -915,-1385 -915,-2219 0,-331 52,-659 154,-973 16,-52 43,-99 83,-135 131,-118 333,-55 473,8 l 1041,471 c 84,38 24,191 -64,159 l -888,-323 c -63,-23 -126,-23 -187,5 -111,53 -189,188 -215,304 z"
         id="path4450"
         inkscape:connector-curvature="0"
         style="fill:#5f772f" /><path
         class="fil5"
         d="m -2773,10512 c -28,161 -42,324 -42,488 0,749 295,1460 824,1990 291,291 641,515 1027,656 66,20 140,28 208,22 142,-13 260,-82 286,-232 l 165,-930 c 12,-68 137,-49 130,19 l -112,1136 c -14,144 -57,345 -215,397 -48,16 -100,14 -149,4 -596,-127 -1141,-425 -1570,-857 -584,-588 -909,-1376 -909,-2205 0,-329 52,-654 153,-967 15,-48 40,-93 78,-127 123,-111 319,-48 451,12 l 1040,471 c 63,28 16,146 -49,123 l -888,-323 c -67,-25 -136,-25 -202,6 -116,54 -199,195 -226,317 z"
         id="path4452"
         inkscape:connector-curvature="0"
         style="fill:#546535" /><path
         class="fil6"
         d="m -2792,10508 c -28,163 -43,327 -43,492 0,754 297,1471 830,2004 293,293 646,519 1035,660 68,22 145,30 216,23 151,-13 276,-88 304,-247 l 164,-931 c 8,-43 96,-29 92,14 l -113,1136 c -13,135 -53,331 -201,380 -45,15 -93,14 -139,4 -592,-126 -1134,-423 -1560,-852 -580,-585 -903,-1367 -903,-2191 0,-327 51,-650 151,-961 15,-45 37,-87 73,-118 116,-105 306,-41 430,15 l 1040,471 c 40,18 7,101 -34,86 l -888,-323 c -73,-26 -147,-27 -217,7 -122,57 -209,203 -237,331 z"
         id="path4454"
         inkscape:connector-curvature="0"
         style="fill:#4a523a" /></g><path
       class="fil7"
       d="m -643,14024 c 158,34 285,-51 317,-367 l 112,-1136 c 2,-18 -50,-26 -53,-9 l -164,931 c -48,271 -356,300 -545,240 -1096,-399 -1878,-1450 -1878,-2683 0,-169 14,-335 43,-496 43,-194 221,-447 480,-352 l 888,323 c 17,6 35,-43 19,-50 l -1041,-471 c -289,-131 -426,-63 -475,91 -98,301 -151,622 -151,955 0,1486 1050,2727 2448,3024 z"
       id="path4456"
       inkscape:connector-curvature="0"
       style="fill:#3f3f3f" /><g
       id="_1138808848"><path
         class="fil2"
         d="m 1770,8887 c -123,-102 -254,-194 -392,-274 -1004,-579 -2262,-468 -3148,274 -45,41 -83,95 -109,149 -49,105 -53,214 42,294 l 724,607 c 10,9 18,18 24,29 60,105 -77,241 -178,169 l -929,-666 c -139,-100 -298,-255 -259,-445 13,-60 44,-113 85,-158 1005,-1117 2661,-1380 3964,-628 290,168 552,379 776,627 41,46 72,99 85,159 40,190 -120,345 -259,445 l -929,666 c -9,6 -19,11 -30,15 -49,15 -99,-7 -130,-45 -41,-50 -47,-123 6,-168 l 724,-607 c 43,-36 70,-80 75,-137 9,-109 -64,-234 -142,-306 z"
         id="path4459"
         inkscape:connector-curvature="0"
         style="fill:#749d25" /><path
         class="fil3"
         d="m 1783,8872 c -123,-103 -256,-195 -395,-276 -1011,-583 -2279,-472 -3171,276 -47,43 -87,99 -114,156 -52,113 -55,231 47,317 l 724,608 c 91,76 -34,234 -130,166 l -928,-666 c -133,-95 -289,-244 -251,-425 11,-56 41,-106 79,-149 1000,-1110 2645,-1372 3941,-624 288,167 547,377 770,624 39,42 69,92 81,149 38,181 -119,330 -252,425 l -928,666 c -96,68 -221,-90 -130,-166 l 724,-608 c 47,-39 76,-88 81,-150 10,-115 -66,-247 -148,-323 z"
         id="path4461"
         inkscape:connector-curvature="0"
         style="fill:#698a2a" /><path
         class="fil4"
         d="M 1796,8858 C 1672,8753 1538,8660 1398,8579 1074,8392 717,8272 346,8225 c -358,-44 -721,-18 -1069,75 -394,105 -761,295 -1073,557 -49,45 -91,103 -118,163 -57,121 -58,248 52,340 l 724,608 c 6,5 11,11 15,18 39,68 -55,164 -122,117 l -928,-666 c -125,-90 -279,-233 -243,-405 11,-53 39,-100 75,-140 410,-456 945,-780 1537,-937 390,-103 799,-131 1199,-80 417,52 816,188 1180,397 286,166 544,375 766,620 36,40 64,87 75,140 36,172 -118,315 -243,405 l -928,666 c -6,4 -13,7 -19,9 -34,11 -68,-7 -89,-32 -27,-33 -35,-82 1,-112 l 724,-608 c 51,-43 83,-96 89,-163 10,-122 -68,-259 -155,-339 z"
         id="path4463"
         inkscape:connector-curvature="0"
         style="fill:#5f772f" /><path
         class="fil5"
         d="M 1809,8843 C 1684,8738 1549,8644 1407,8562 1081,8374 722,8252 348,8206 c -360,-45 -726,-19 -1076,75 -397,106 -767,298 -1081,562 -51,46 -94,106 -123,169 -61,129 -59,266 57,363 l 724,608 c 53,44 -27,143 -82,104 l -928,-666 c -118,-85 -270,-222 -236,-385 10,-50 37,-93 71,-131 407,-453 938,-775 1527,-931 388,-102 794,-130 1192,-80 414,52 811,187 1172,395 285,165 541,372 761,616 34,38 61,81 71,131 34,163 -118,300 -236,385 l -928,666 c -55,39 -135,-60 -82,-104 l 724,-608 c 55,-46 89,-104 96,-177 11,-128 -70,-271 -162,-355 z"
         id="path4465"
         inkscape:connector-curvature="0"
         style="fill:#546535" /><path
         class="fil6"
         d="M 1822,8828 C 1696,8722 1560,8628 1417,8545 1089,8355 727,8233 351,8186 c -363,-45 -731,-19 -1084,76 -400,107 -772,300 -1089,566 -53,48 -98,111 -128,175 -64,138 -61,284 62,387 l 724,608 c 34,28 -23,98 -58,73 l -928,-666 c -110,-79 -260,-212 -228,-365 10,-46 35,-87 66,-122 405,-450 933,-770 1518,-925 386,-102 789,-129 1184,-79 411,51 806,185 1165,392 283,164 538,370 757,612 31,35 56,76 66,122 32,153 -118,286 -228,365 l -928,666 c -35,25 -92,-45 -58,-73 l 724,-608 c 59,-49 95,-113 102,-190 12,-135 -71,-283 -168,-372 z"
         id="path4467"
         inkscape:connector-curvature="0"
         style="fill:#4a523a" /></g><path
       class="fil7"
       d="m -2297,8932 c -109,119 -99,272 159,457 l 928,666 c 14,10 47,-31 34,-42 l -724,-608 c -211,-176 -82,-458 65,-592 893,-749 2194,-902 3262,-285 147,85 283,180 408,285 146,134 276,416 65,592 l -724,608 c -13,11 20,52 34,42 l 928,-666 c 258,-185 268,-338 159,-458 -212,-235 -463,-441 -752,-607 -1287,-744 -2886,-455 -3842,608 z"
       id="path4469"
       inkscape:connector-curvature="0"
       style="fill:#3f3f3f" /><g
       id="_1138815376"><path
         class="fil2"
         d="m 945,13589 c 150,-55 295,-122 433,-202 635,-367 1094,-965 1284,-1673 104,-388 123,-795 53,-1191 -13,-59 -40,-119 -75,-168 -66,-95 -158,-154 -275,-111 l -888,323 c -136,50 -224,-173 -94,-232 l 1041,-471 c 156,-71 370,-131 514,-2 46,41 77,94 95,153 192,588 206,1224 44,1822 -221,814 -751,1502 -1483,1925 -289,167 -603,288 -930,358 -60,13 -122,13 -180,-6 -184,-61 -239,-276 -256,-447 L 116,12530 c -14,-142 223,-177 248,-35 l 164,931 c 9,56 34,101 81,133 90,63 235,62 336,30 z"
         id="path4472"
         inkscape:connector-curvature="0"
         style="fill:#749d25" /><path
         class="fil3"
         d="m 951,13608 c 151,-55 297,-124 437,-204 639,-370 1102,-972 1293,-1685 105,-391 123,-801 53,-1199 -13,-62 -42,-125 -78,-176 -71,-103 -172,-164 -298,-118 l -888,323 c -111,40 -186,-147 -79,-196 l 1041,-471 c 149,-67 355,-128 493,-5 44,38 72,89 90,144 190,585 204,1217 43,1810 -220,810 -746,1494 -1473,1914 -289,166 -600,286 -926,356 -56,12 -114,12 -169,-6 -176,-57 -226,-268 -242,-430 L 135,12528 c -11,-117 189,-146 209,-29 l 164,930 c 11,61 39,111 90,147 95,66 246,65 353,32 z"
         id="path4474"
         inkscape:connector-curvature="0"
         style="fill:#698a2a" /><path
         class="fil4"
         d="m 957,13627 c 153,-56 300,-125 441,-206 644,-372 1109,-979 1302,-1697 105,-394 124,-807 54,-1208 -15,-65 -44,-130 -82,-184 -76,-110 -186,-174 -321,-125 l -888,323 c -88,32 -148,-121 -64,-159 l 1041,-471 c 140,-63 341,-126 472,-9 41,37 67,84 84,136 189,581 203,1209 43,1799 -219,805 -742,1485 -1464,1902 -287,165 -596,284 -920,353 -52,12 -107,13 -159,-4 -167,-55 -213,-261 -228,-414 L 155,12527 c -9,-93 154,-117 170,-25 l 164,931 c 12,66 42,120 98,159 100,69 257,70 370,35 z"
         id="path4476"
         inkscape:connector-curvature="0"
         style="fill:#5f772f" /><path
         class="fil5"
         d="m 964,13645 c 153,-56 302,-125 443,-207 649,-375 1118,-986 1312,-1709 106,-397 125,-813 54,-1217 -15,-67 -45,-135 -84,-191 -82,-117 -201,-185 -344,-132 l -888,323 c -65,23 -112,-95 -49,-123 l 1040,-471 c 132,-60 327,-123 451,-12 38,34 63,79 78,127 188,578 202,1202 43,1788 -217,800 -737,1475 -1455,1890 -285,164 -593,282 -914,351 -49,11 -100,12 -149,-4 -157,-52 -201,-253 -215,-397 L 175,12525 c -7,-68 118,-87 130,-19 l 165,930 c 12,71 46,130 105,172 106,73 270,75 389,37 z"
         id="path4478"
         inkscape:connector-curvature="0"
         style="fill:#546535" /><path
         class="fil6"
         d="m 970,13664 c 155,-57 305,-127 447,-209 654,-377 1126,-993 1321,-1721 107,-399 126,-818 54,-1226 -15,-70 -46,-140 -87,-198 -87,-125 -215,-195 -367,-140 l -888,323 c -41,15 -74,-68 -34,-86 l 1040,-471 c 124,-56 313,-119 430,-15 35,31 58,73 73,118 186,574 200,1194 42,1777 -216,795 -732,1466 -1446,1878 -283,163 -589,280 -908,349 -46,10 -94,11 -138,-4 -149,-49 -189,-245 -202,-380 L 194,12523 c -4,-43 84,-57 92,-14 l 164,931 c 14,76 50,139 114,184 111,77 281,79 406,40 z"
         id="path4480"
         inkscape:connector-curvature="0"
         style="fill:#4a523a" /></g><path
       class="fil7"
       d="m 2940,10045 c -49,-154 -186,-222 -475,-91 l -1041,471 c -16,7 2,56 19,50 l 888,-323 c 259,-95 438,158 481,352 202,1148 -317,2351 -1385,2968 -146,84 -297,154 -451,211 -189,59 -497,31 -545,-240 l -164,-931 c -3,-17 -55,-9 -53,9 l 112,1136 c 32,316 159,401 317,367 309,-66 614,-181 902,-348 1288,-743 1838,-2272 1395,-3631 z"
       id="path4482"
       inkscape:connector-curvature="0"
       style="fill:#3f3f3f" /><path
       class="fil8"
       d="m -760,10561 c -44,-120 -67,-250 -67,-388 0,-323 113,-584 316,-829 69,-84 145,-159 217,-239 123,-134 255,-349 294,-573 39,224 171,439 294,573 72,80 148,155 217,239 203,245 316,506 316,829 0,138 -23,268 -67,388 127,22 250,67 369,136 280,162 450,390 561,689 37,101 65,204 98,307 55,173 175,395 350,541 -214,-78 -466,-71 -644,-32 -105,23 -208,50 -315,68 -315,54 -596,21 -876,-141 -120,-69 -221,-153 -303,-252 -82,99 -183,183 -303,252 -280,162 -561,195 -876,141 -107,-18 -210,-45 -315,-68 -178,-39 -430,-46 -644,32 175,-146 295,-368 350,-541 33,-103 61,-206 98,-307 111,-299 281,-527 561,-689 119,-69 242,-114 369,-136 z"
       id="path4484"
       inkscape:connector-curvature="0"
       style="fill:#a0ff20" /><g
       id="_608618960"><path
         class="fil9"
         d="m -2061,12190 c 19,-5 38,-9 57,-13 164,-33 351,-30 514,6 105,23 209,50 314,68 311,53 588,20 864,-139 112,-65 214,-147 297,-247 l 15,-18 15,18 c 83,100 185,182 297,247 276,159 553,192 864,139 105,-18 209,-45 314,-68 163,-36 350,-39 514,-6 19,4 38,8 57,13 -133,-135 -237,-317 -292,-491 -32,-102 -60,-206 -98,-306 -109,-296 -276,-520 -551,-679 -113,-65 -235,-111 -363,-133 l -24,-4 8,-23 c 46,-122 66,-250 66,-381 C 807,9855 697,9599 496,9356 427,9274 351,9197 279,9118 156,8984 50,8802 0,8621 c -50,181 -156,363 -279,497 -72,79 -148,156 -217,238 -201,243 -311,499 -311,817 0,131 20,259 66,381 l 8,23 -24,4 c -128,22 -250,68 -363,133 -275,159 -442,383 -551,679 -38,100 -66,204 -98,306 -55,174 -159,356 -292,491 z"
         id="path4487"
         inkscape:connector-curvature="0"
         style="fill:#9dfc1e" /><path
         class="fil10"
         d="m -2003,12156 c 165,-32 353,-29 517,7 105,23 208,51 314,69 306,52 578,20 850,-137 110,-64 210,-144 292,-243 l 30,-36 30,36 c 82,99 182,179 292,243 272,157 544,189 850,137 106,-18 209,-46 314,-69 164,-36 352,-39 517,-7 -114,-130 -203,-294 -252,-451 -33,-102 -61,-205 -98,-306 -108,-291 -272,-511 -543,-668 -111,-63 -230,-109 -357,-131 l -47,-8 17,-44 c 44,-121 64,-247 64,-375 C 787,9860 679,9608 481,9369 412,9287 337,9210 265,9131 154,9010 56,8851 0,8687 c -56,164 -154,323 -265,444 -72,79 -147,156 -216,238 -198,239 -306,491 -306,804 0,128 20,254 64,375 l 17,44 -47,8 c -127,22 -246,68 -357,131 -271,157 -435,377 -543,668 -37,101 -65,204 -98,306 -49,157 -138,321 -252,451 z"
         id="path4489"
         inkscape:connector-curvature="0"
         style="fill:#9af91d" /><path
         class="fil11"
         d="m -1954,12128 c 158,-23 325,-16 472,16 104,23 208,50 313,68 302,51 569,21 837,-134 109,-63 206,-142 287,-238 l 45,-55 45,55 c 81,96 178,175 287,238 268,155 535,185 837,134 105,-18 209,-45 313,-68 147,-32 314,-39 472,-16 -99,-125 -177,-274 -222,-417 -32,-102 -61,-205 -98,-305 -106,-286 -267,-503 -534,-657 -109,-63 -226,-108 -350,-129 l -70,-12 24,-67 c 44,-118 64,-242 64,-368 C 768,9864 660,9617 465,9382 397,9299 322,9223 250,9145 149,9034 59,8892 0,8744 c -59,148 -149,290 -250,401 -72,78 -147,154 -215,237 -195,235 -303,482 -303,791 0,126 20,250 64,368 l 24,67 -70,12 c -124,21 -241,66 -350,129 -267,154 -428,371 -534,657 -37,100 -66,203 -98,305 -45,143 -123,292 -222,417 z"
         id="path4491"
         inkscape:connector-curvature="0"
         style="fill:#96f61b" /><path
         class="fil12"
         d="m -1910,12103 c 146,-16 298,-8 432,22 104,23 207,50 312,68 297,50 561,20 824,-132 107,-61 203,-139 281,-234 l 61,-73 61,73 c 78,95 174,173 281,234 263,152 527,182 824,132 105,-18 208,-45 312,-68 134,-30 286,-38 432,-22 -87,-119 -155,-255 -197,-386 -32,-101 -60,-204 -97,-304 -105,-282 -263,-495 -526,-647 -107,-62 -222,-106 -343,-127 l -94,-16 33,-89 c 43,-116 62,-237 62,-361 C 748,9869 642,9626 450,9394 382,9312 307,9236 235,9158 143,9056 59,8929 0,8795 c -59,134 -143,261 -235,363 -72,78 -147,154 -215,236 -192,232 -298,475 -298,779 0,124 19,245 62,361 l 33,89 -94,16 c -121,21 -236,65 -343,127 -263,152 -421,365 -526,647 -37,100 -65,203 -97,304 -42,131 -110,267 -197,386 z"
         id="path4493"
         inkscape:connector-curvature="0"
         style="fill:#93f31a" /><path
         class="fil13"
         d="m -1869,12079 c 135,-10 272,0 396,27 103,23 206,50 311,67 292,50 551,21 810,-129 105,-60 199,-136 276,-229 l 76,-92 76,92 c 77,93 171,169 276,229 259,150 518,179 810,129 105,-17 208,-44 311,-67 124,-27 261,-37 396,-27 -76,-111 -136,-235 -175,-356 -32,-101 -60,-204 -97,-303 -103,-278 -257,-488 -517,-637 -105,-61 -217,-104 -337,-125 l -117,-20 42,-111 c 42,-113 60,-233 60,-354 C 728,9874 624,9635 435,9407 367,9325 292,9250 221,9171 136,9078 58,8964 0,8842 c -58,122 -136,236 -221,329 -71,79 -146,154 -214,236 -189,228 -293,467 -293,766 0,121 18,241 60,354 l 42,111 -117,20 c -120,21 -232,64 -337,125 -260,149 -414,359 -517,637 -37,99 -65,202 -97,303 -39,121 -99,245 -175,356 z"
         id="path4495"
         inkscape:connector-curvature="0"
         style="fill:#90f018" /><path
         class="fil14"
         d="m -1831,12057 c 124,-6 249,5 362,30 103,22 206,49 310,67 288,49 542,21 797,-127 103,-59 195,-134 271,-225 l 91,-109 91,109 c 76,91 168,166 271,225 255,148 509,176 797,127 104,-18 207,-45 310,-67 113,-25 238,-36 362,-30 -67,-104 -120,-217 -156,-328 -31,-101 -59,-203 -96,-302 -102,-274 -253,-480 -509,-627 -102,-60 -213,-102 -330,-122 l -140,-24 49,-134 c 41,-111 60,-228 60,-347 C 709,9878 606,9644 420,9419 352,9338 278,9263 206,9184 128,9099 57,8996 0,8886 c -57,110 -128,213 -206,298 -72,79 -146,154 -214,235 -186,225 -289,459 -289,754 0,119 19,236 60,347 l 49,134 -140,24 c -117,20 -228,62 -330,122 -256,147 -407,353 -509,627 -37,99 -65,201 -96,302 -36,111 -89,224 -156,328 z"
         id="path4497"
         inkscape:connector-curvature="0"
         style="fill:#8dec16" /><path
         class="fil15"
         d="m -1794,12036 c 113,-2 225,8 329,31 103,23 205,50 309,68 284,48 533,20 784,-125 101,-58 192,-131 266,-221 l 106,-127 106,127 c 74,90 165,163 266,221 251,145 500,173 784,125 104,-18 206,-45 309,-68 104,-23 216,-33 329,-31 -58,-97 -105,-200 -137,-301 -32,-100 -60,-203 -97,-301 -99,-270 -248,-472 -500,-617 -100,-58 -209,-100 -323,-120 l -164,-28 58,-156 c 40,-109 58,-224 58,-340 C 689,9883 588,9653 405,9432 337,9351 263,9276 192,9198 120,9119 54,9027 0,8928 c -54,99 -120,191 -192,270 -71,78 -145,153 -213,234 -183,221 -284,451 -284,741 0,116 18,231 58,340 l 58,156 -164,28 c -114,20 -223,62 -323,120 -252,145 -401,347 -500,617 -37,98 -65,201 -97,301 -32,101 -79,204 -137,301 z"
         id="path4499"
         inkscape:connector-curvature="0"
         style="fill:#8ae915" /><path
         class="fil16"
         d="m -1760,12016 c 103,0 205,11 299,32 103,23 205,50 309,67 278,48 523,21 771,-122 98,-57 187,-128 260,-216 l 121,-146 121,146 c 73,88 162,159 260,216 248,143 493,170 771,122 104,-17 206,-44 309,-67 94,-21 196,-32 299,-32 -51,-89 -93,-183 -122,-275 -32,-100 -59,-202 -96,-301 -98,-265 -244,-463 -491,-606 -99,-57 -205,-98 -318,-117 l -187,-32 66,-178 c 40,-107 57,-220 57,-334 0,-285 -99,-511 -279,-729 C 323,9363 248,9289 177,9211 112,9140 52,9057 0,8968 c -52,89 -112,172 -177,243 -71,78 -146,152 -213,233 -180,218 -279,444 -279,729 0,114 17,227 57,334 l 66,178 -187,32 c -113,19 -219,60 -318,117 -247,143 -393,341 -491,606 -37,99 -64,201 -96,301 -29,92 -71,186 -122,275 z"
         id="path4501"
         inkscape:connector-curvature="0"
         style="fill:#86e613" /><path
         class="fil17"
         d="m -1726,11997 c 92,2 184,13 270,32 102,22 204,49 307,67 274,46 515,20 758,-120 96,-56 183,-126 255,-212 l 136,-164 136,164 c 72,86 159,156 255,212 243,140 484,166 758,120 103,-18 205,-45 307,-67 86,-19 178,-30 270,-32 -44,-82 -80,-167 -107,-250 -31,-100 -59,-202 -95,-300 -97,-260 -240,-456 -483,-596 -97,-56 -201,-96 -311,-115 l -210,-36 74,-200 c 38,-105 56,-215 56,-327 0,-281 -98,-502 -276,-716 C 308,9376 233,9302 163,9224 104,9160 48,9086 0,9007 c -48,79 -104,153 -163,217 -70,78 -145,152 -211,233 -178,214 -276,435 -276,716 0,112 18,222 56,327 l 74,200 -210,36 c -110,19 -214,59 -311,115 -243,140 -386,336 -483,596 -36,98 -64,200 -95,300 -27,83 -63,168 -107,250 z"
         id="path4503"
         inkscape:connector-curvature="0"
         style="fill:#83e312" /><path
         class="fil18"
         d="m -1694,11978 c 83,4 165,15 242,32 102,22 203,49 306,66 270,46 506,21 745,-117 95,-55 180,-123 250,-207 l 151,-183 151,183 c 70,84 155,152 250,207 239,138 475,163 745,117 103,-17 204,-44 306,-66 77,-17 159,-28 242,-32 -38,-74 -70,-150 -94,-225 -31,-100 -59,-201 -95,-299 -95,-256 -235,-448 -474,-586 -95,-55 -196,-94 -304,-113 l -234,-40 82,-222 c 38,-103 55,-211 55,-320 0,-276 -96,-493 -271,-704 C 293,9389 219,9315 148,9238 95,9179 45,9114 0,9044 c -45,70 -95,135 -148,194 -71,77 -145,151 -211,231 -175,211 -271,428 -271,704 0,109 17,217 55,320 l 82,222 -234,40 c -108,19 -209,58 -304,113 -239,138 -379,330 -474,586 -36,98 -64,199 -95,299 -24,75 -56,151 -94,225 z"
         id="path4505"
         inkscape:connector-curvature="0"
         style="fill:#80e010" /></g><path
       class="fil1"
       d="m -1694,11978 c 83,4 165,15 242,32 102,22 203,49 306,66 270,46 506,21 745,-117 95,-55 180,-123 250,-207 l 151,-183 151,183 c 70,84 155,152 250,207 239,138 475,163 745,117 103,-17 204,-44 306,-66 77,-17 159,-28 242,-32 -38,-74 -70,-150 -94,-225 -31,-100 -59,-201 -95,-299 -95,-256 -235,-448 -474,-586 -95,-55 -196,-94 -304,-113 l -234,-40 82,-222 c 38,-103 55,-211 55,-320 0,-276 -96,-493 -271,-704 C 293,9389 219,9315 148,9238 95,9179 45,9114 0,9044 c -45,70 -95,135 -148,194 -71,77 -145,151 -211,231 -175,211 -271,428 -271,704 0,109 17,217 55,320 l 82,222 -234,40 c -108,19 -209,58 -304,113 -239,138 -379,330 -474,586 -36,98 -64,199 -95,299 -24,75 -56,151 -94,225 z"
       id="path4507"
       inkscape:connector-curvature="0"
       style="fill:#ffffff" /></g></svg>