<?xml version="1.0" encoding="UTF-8" standalone="no"?>
<!-- Creator: CorelDRAW X7 -->

<svg
   xmlns:dc="http://purl.org/dc/elements/1.1/"
   xmlns:cc="http://creativecommons.org/ns#"
   xmlns:rdf="http://www.w3.org/1999/02/22-rdf-syntax-ns#"
   xmlns:svg="http://www.w3.org/2000/svg"
   xmlns="http://www.w3.org/2000/svg"
   xmlns:sodipodi="http://sodipodi.sourceforge.net/DTD/sodipodi-0.dtd"
   xmlns:inkscape="http://www.inkscape.org/namespaces/inkscape"
   xml:space="preserve"
   width="7.8740005in"
   height="7.8740005in"
   version="1.1"
   style="clip-rule:evenodd;fill-rule:evenodd;image-rendering:optimizeQuality;shape-rendering:geometricPrecision;text-rendering:geometricPrecision"
   viewBox="0 0 7874.0005 7874.0005"
   id="svg4703"
   inkscape:version="0.91 r13725"
   sodipodi:docname="Tohaa - Sakiel Regiment - [N3] [Vyo].svg"><metadata
     id="metadata4769"><rdf:RDF><cc:Work
         rdf:about=""><dc:format>image/svg+xml</dc:format><dc:type
           rdf:resource="http://purl.org/dc/dcmitype/StillImage" /></cc:Work></rdf:RDF></metadata><sodipodi:namedview
     pagecolor="#ffffff"
     bordercolor="#666666"
     borderopacity="1"
     objecttolerance="10"
     gridtolerance="10"
     guidetolerance="10"
     inkscape:pageopacity="0"
     inkscape:pageshadow="2"
     inkscape:window-width="640"
     inkscape:window-height="480"
     id="namedview4767"
     showgrid="false"
     inkscape:zoom="0.23838384"
     inkscape:cx="736.83001"
     inkscape:cy="849.33005"
     inkscape:window-x="0"
     inkscape:window-y="0"
     inkscape:window-maximized="0"
     inkscape:current-layer="svg4703" /><defs
     id="defs4705"><style
       type="text/css"
       id="style4707"><![CDATA[
    .fil0 {fill:black}
    .fil7 {fill:#3F3F3F}
    .fil6 {fill:#4A523A}
    .fil5 {fill:#546535}
    .fil4 {fill:#5F772F}
    .fil3 {fill:#698A2A}
    .fil2 {fill:#749D25}
    .fil13 {fill:#C08030}
    .fil12 {fill:#C68D2D}
    .fil11 {fill:#CD9A2A}
    .fil10 {fill:#D3A626}
    .fil9 {fill:#DAB323}
    .fil8 {fill:#E0C020}
    .fil1 {fill:white}
   ]]></style></defs><g
     id="Layer_x0020_1"
     transform="translate(3937,-7063)"><metadata
       id="CorelCorpID_0Corel-Layer" /><circle
       class="fil0"
       cy="11000"
       r="3937"
       id="circle4711"
       cx="0"
       style="fill:#000000" /><circle
       class="fil1"
       cy="11000"
       r="3858"
       id="circle4713"
       cx="0"
       style="fill:#ffffff" /><path
       class="fil2"
       d="m 0,14504 c 62,0 118,-79 118,-197 0,-551 210,-2300 564,-2913 429,-744 1764,-1670 2241,-1945 102,-59 142,-148 112,-201 -32,-54 -128,-63 -230,-4 -477,276 -2096,969 -2805,969 -859,0 -2328,-693 -2805,-969 -102,-59 -199,-49 -230,4 -31,54 10,142 112,201 477,275 1887,1331 2241,1945 430,744 564,2362 564,2913 0,118 57,197 118,197 z"
       id="path4715"
       inkscape:connector-curvature="0"
       style="fill:#749d25" /><g
       id="_1138824816"><path
         class="fil3"
         d="m 0,14484 c 29,0 51,-22 66,-45 24,-38 32,-88 32,-132 0,-92 5,-184 11,-276 8,-123 19,-245 32,-368 31,-296 71,-592 122,-885 47,-266 102,-534 173,-794 32,-113 67,-226 108,-335 34,-91 73,-182 121,-265 104,-180 245,-349 387,-500 166,-176 346,-341 531,-498 241,-204 494,-396 752,-578 107,-75 216,-149 326,-221 83,-53 167,-106 252,-155 39,-23 77,-55 98,-95 12,-23 21,-55 6,-79 -14,-25 -45,-34 -71,-35 -45,-1 -93,16 -131,38 -80,46 -162,88 -244,129 -111,54 -223,106 -335,156 -272,122 -549,234 -828,337 -254,93 -513,179 -774,247 -113,29 -228,56 -344,75 -95,15 -194,27 -290,27 -208,0 -424,-38 -626,-85 -236,-56 -469,-129 -697,-211 -297,-107 -590,-229 -877,-362 -119,-55 -237,-112 -354,-172 -88,-45 -175,-91 -261,-141 -38,-22 -86,-39 -131,-37 -26,1 -57,9 -71,34 -15,25 -7,56 6,79 21,40 59,73 98,95 79,46 157,96 233,147 103,68 203,139 303,211 241,175 477,358 706,549 207,173 411,354 600,547 83,84 163,170 237,261 62,74 121,153 169,237 104,180 180,386 239,585 70,232 123,471 166,709 56,311 97,626 125,940 12,131 21,262 28,393 5,98 9,197 9,296 0,45 8,94 33,132 14,22 37,45 65,45 z"
         id="path4718"
         inkscape:connector-curvature="0"
         style="fill:#698a2a" /><path
         class="fil4"
         d="m 0,14465 c 21,0 39,-20 49,-36 22,-35 30,-81 30,-122 0,-92 5,-185 11,-277 8,-123 19,-246 31,-369 31,-296 72,-593 123,-887 46,-266 101,-534 174,-795 31,-114 66,-227 107,-337 35,-91 74,-184 123,-268 104,-181 246,-351 389,-503 167,-177 348,-343 533,-500 242,-204 495,-397 753,-579 108,-76 217,-150 327,-221 83,-54 168,-107 253,-156 36,-21 72,-51 91,-87 8,-17 17,-42 6,-60 -10,-19 -36,-24 -55,-25 -41,-2 -85,15 -120,35 -80,46 -163,89 -246,129 -110,55 -222,107 -335,157 -272,122 -549,235 -829,337 -254,94 -514,180 -776,248 -114,30 -230,56 -346,75 -96,16 -196,28 -293,28 -209,0 -427,-38 -631,-86 -236,-56 -470,-129 -699,-212 -298,-106 -591,-229 -878,-362 -119,-55 -238,-113 -355,-173 -88,-45 -176,-91 -262,-141 -35,-20 -79,-36 -120,-35 -19,1 -45,7 -55,25 -11,18 -3,43 6,60 19,37 56,66 91,87 79,46 158,96 234,148 103,68 204,139 304,211 241,175 477,359 706,550 208,174 413,355 602,548 83,84 164,171 239,262 61,75 121,156 170,240 105,181 181,389 241,589 70,233 123,472 166,712 57,311 97,626 126,941 11,131 21,262 28,394 5,99 8,198 8,297 0,41 8,87 30,122 10,16 28,36 49,36 z"
         id="path4720"
         inkscape:connector-curvature="0"
         style="fill:#5f772f" /><path
         class="fil5"
         d="m 0,14445 c 13,0 26,-17 32,-27 20,-31 27,-74 27,-111 0,-93 5,-186 11,-278 8,-124 19,-247 32,-370 31,-297 72,-594 123,-888 46,-267 101,-536 174,-797 31,-114 66,-228 108,-339 35,-92 74,-185 124,-271 105,-182 248,-353 392,-507 167,-177 349,-343 535,-501 241,-205 495,-398 754,-580 108,-76 217,-150 327,-222 84,-54 168,-107 255,-156 31,-19 65,-46 82,-79 5,-10 14,-31 7,-41 -6,-12 -28,-15 -39,-15 -37,-2 -78,14 -110,32 -80,47 -163,89 -246,130 -111,55 -223,107 -336,157 -272,122 -550,235 -831,338 -254,93 -514,180 -777,248 -115,30 -231,56 -348,76 -97,16 -197,28 -296,28 -211,0 -430,-39 -635,-87 -237,-56 -472,-130 -702,-212 -298,-107 -592,-230 -879,-363 -120,-56 -238,-113 -356,-173 -88,-45 -176,-92 -262,-142 -32,-18 -73,-33 -110,-32 -11,1 -33,4 -39,15 -7,11 1,31 6,41 18,33 52,60 83,79 81,46 159,97 236,148 103,69 204,140 304,212 242,176 479,360 708,551 208,174 413,356 603,549 84,85 165,172 240,264 62,76 123,157 172,242 106,183 182,392 243,593 70,234 123,474 167,714 56,312 97,628 125,943 12,132 21,263 28,395 5,99 9,199 9,298 0,37 7,80 27,111 6,9 20,27 32,27 z"
         id="path4722"
         inkscape:connector-curvature="0"
         style="fill:#546535" /><path
         class="fil6"
         d="m 0,14425 c 7,-4 17,-19 20,-24 14,-28 19,-63 19,-94 0,-93 5,-187 11,-280 8,-123 19,-247 32,-370 31,-297 72,-595 123,-889 47,-268 102,-537 175,-800 55,-202 129,-431 234,-614 106,-184 250,-356 395,-510 167,-178 349,-345 536,-503 242,-205 496,-399 756,-581 188,-132 384,-265 583,-379 26,-16 54,-37 70,-64 4,-5 12,-21 12,-30 -7,-4 -24,-5 -31,-5 -31,2 -64,15 -91,30 -80,47 -164,90 -247,131 -111,55 -224,107 -337,157 -273,122 -551,235 -832,338 -255,94 -516,181 -779,249 -203,53 -439,104 -649,104 -212,0 -433,-38 -640,-87 -238,-56 -473,-130 -703,-212 -299,-108 -594,-231 -881,-364 -209,-97 -421,-201 -620,-316 -27,-15 -59,-28 -90,-29 -7,0 -25,0 -32,5 -1,8 7,23 11,29 16,26 45,48 71,64 81,46 160,97 237,149 103,69 204,140 305,213 242,175 479,359 708,551 209,174 415,357 605,550 148,150 310,328 415,510 106,184 184,395 245,598 70,234 124,475 167,716 57,312 97,629 126,945 20,228 37,464 37,694 0,31 5,65 19,93 3,6 13,21 20,25 z"
         id="path4724"
         inkscape:connector-curvature="0"
         style="fill:#4a523a" /><path
         class="fil7"
         d="m 0,14397 c 15,-23 20,-71 20,-90 0,-214 20,-439 43,-652 30,-298 72,-596 123,-891 47,-268 102,-538 175,-801 56,-204 130,-435 236,-619 107,-185 251,-358 397,-514 168,-178 351,-346 538,-504 243,-206 497,-399 757,-582 189,-133 385,-265 585,-380 17,-10 55,-38 68,-63 -28,0 -71,19 -88,28 -185,108 -390,202 -586,289 -273,122 -552,236 -833,339 -256,94 -517,181 -781,249 -205,53 -442,105 -654,105 -214,0 -436,-38 -644,-87 -239,-57 -475,-131 -706,-214 -299,-107 -594,-231 -883,-364 -209,-97 -422,-201 -621,-317 -17,-9 -60,-28 -88,-27 13,24 52,52 68,62 186,107 370,237 543,363 243,175 480,360 710,552 209,174 415,357 607,552 148,150 311,330 417,513 107,186 185,398 247,602 70,235 124,477 168,718 56,313 97,630 125,947 21,229 37,466 37,696 0,19 6,67 20,90 z"
         id="path4726"
         inkscape:connector-curvature="0"
         style="fill:#3f3f3f" /></g><path
       class="fil8"
       d="m 431,8597 c 510,99 968,342 1318,701 76,81 66,192 -13,219 -141,48 -373,118 -550,-39 C 858,9223 447,9071 0,9071 c -447,0 -858,152 -1186,407 -177,157 -410,87 -550,39 -79,-27 -89,-138 -13,-219 350,-359 808,-602 1318,-701 157,-30 155,-156 155,-314 0,-157 197,-275 276,-393 79,118 276,236 276,393 0,158 -2,284 155,314 z"
       id="path4728"
       inkscape:connector-curvature="0"
       style="fill:#e0c020" /><g
       id="_1138825264"><path
         class="fil9"
         d="m 0,7923 c -85,108 -256,224 -256,360 0,147 6,299 -171,333 -497,97 -954,333 -1308,695 -23,25 -40,56 -45,90 -4,26 0,53 17,74 8,11 20,19 33,23 83,29 168,53 256,57 103,4 197,-22 275,-92 l 1,0 0,0 c 344,-268 763,-412 1198,-412 435,0 854,144 1198,412 l 0,0 1,0 c 78,70 172,96 275,92 88,-4 173,-28 256,-57 13,-4 25,-12 33,-23 17,-21 21,-48 17,-74 -5,-34 -22,-65 -45,-89 C 1381,8949 924,8713 427,8616 250,8582 256,8430 256,8283 256,8147 85,8031 0,7923 Z"
         id="path4731"
         inkscape:connector-curvature="0"
         style="fill:#dab323" /><path
         class="fil10"
         d="m 0,7955 c -35,41 -77,80 -114,118 -53,54 -122,129 -122,210 0,157 2,316 -188,353 -492,95 -946,330 -1296,688 -21,22 -36,50 -41,80 -2,20 0,42 13,59 6,8 15,13 25,17 169,58 362,100 511,-31 l 1,-1 1,-1 c 347,-270 770,-416 1210,-416 440,0 863,146 1210,416 l 1,1 1,1 c 149,131 342,89 511,31 10,-4 19,-9 25,-17 13,-17 15,-39 13,-59 -4,-30 -20,-58 -40,-79 C 1370,8966 916,8731 424,8636 234,8599 236,8441 236,8283 c 0,-10 -1,-21 -3,-32 C 219,8184 161,8121 114,8073 77,8035 35,7996 0,7955 Z"
         id="path4733"
         inkscape:connector-curvature="0"
         style="fill:#d3a626" /><path
         class="fil11"
         d="m -1706,9338 c -23,25 -52,81 -27,112 4,6 10,9 16,11 162,56 349,99 492,-27 l 2,-1 1,-1 c 350,-274 778,-420 1222,-420 444,0 872,146 1222,420 l 1,1 2,1 c 143,126 330,83 492,27 6,-2 12,-5 16,-11 25,-31 -3,-86 -26,-112 -349,-356 -799,-588 -1287,-683 -61,-12 -115,-38 -152,-89 -55,-78 -51,-191 -51,-283 0,-9 -2,-18 -3,-28 -14,-62 -71,-124 -114,-168 -32,-33 -68,-67 -100,-102 -32,35 -68,69 -100,102 -48,49 -117,122 -117,196 0,92 4,205 -51,283 -37,51 -91,77 -152,89 -488,95 -938,327 -1286,683 z"
         id="path4735"
         inkscape:connector-curvature="0"
         style="fill:#cd9a2a" /><path
         class="fil12"
         d="m -1692,9352 c -16,17 -43,64 -25,86 2,2 4,4 6,4 155,54 337,98 473,-23 l 2,-2 2,-1 c 354,-276 785,-424 1234,-424 449,0 880,148 1234,424 l 2,2 2,1 c 136,121 318,77 473,23 2,0 4,-2 6,-4 18,-22 -9,-69 -25,-86 -345,-353 -792,-584 -1276,-678 -66,-12 -124,-42 -164,-97 -58,-82 -55,-197 -55,-294 0,-8 -1,-16 -3,-24 -12,-58 -68,-118 -108,-159 -28,-28 -58,-57 -86,-86 -28,29 -58,58 -86,86 -43,45 -111,116 -111,183 0,97 3,212 -55,294 -40,55 -98,85 -164,97 -484,94 -931,325 -1276,678 z"
         id="path4737"
         inkscape:connector-curvature="0"
         style="fill:#c68d2d" /><path
         class="fil13"
         d="m -1678,9365 c -10,12 -30,43 -24,59 146,51 322,95 451,-20 l 3,-2 2,-2 c 357,-278 793,-428 1246,-428 453,0 889,150 1246,428 l 2,2 3,2 c 129,115 305,71 451,20 6,-16 -14,-47 -24,-59 -343,-350 -786,-578 -1266,-671 -70,-14 -133,-46 -176,-106 -62,-86 -59,-203 -59,-305 0,-6 -1,-13 -2,-20 -11,-53 -67,-111 -103,-149 -24,-24 -48,-48 -72,-72 -24,24 -48,48 -72,72 -39,40 -105,109 -105,169 0,102 3,219 -59,305 -43,60 -106,92 -176,106 -480,93 -923,321 -1266,671 z"
         id="path4739"
         inkscape:connector-curvature="0"
         style="fill:#c08030" /></g><path
       class="fil8"
       d="m -2297,11828 c -169,-491 -187,-1009 -52,-1492 32,-105 133,-153 196,-98 113,98 289,264 242,496 -57,411 17,844 240,1231 224,387 561,667 946,823 225,75 280,311 309,457 16,82 -76,146 -184,121 -486,-124 -925,-399 -1265,-791 -105,-121 -213,-57 -350,22 -136,79 -337,-33 -479,-42 63,-127 67,-357 204,-435 136,-79 246,-141 193,-292 z"
       id="path4741"
       inkscape:connector-curvature="0"
       style="fill:#e0c020" /><g
       id="_1138801584"><path
         class="fil9"
         d="m -2665,12538 c 136,20 322,110 440,42 127,-73 256,-155 374,-18 332,382 766,660 1256,785 33,7 69,7 101,-6 23,-10 45,-27 55,-51 5,-13 6,-27 3,-41 -35,-184 -98,-377 -295,-443 l -1,0 -1,0 c -403,-164 -737,-455 -955,-832 -217,-376 -302,-811 -242,-1243 l 0,0 0,-1 c 41,-203 -94,-354 -235,-477 -11,-9 -24,-16 -38,-18 -25,-3 -51,7 -71,23 -28,21 -46,52 -56,84 -27,97 -48,196 -63,295 -59,399 -16,804 115,1185 59,170 -76,241 -203,315 -118,68 -132,274 -184,401 z"
         id="path4744"
         inkscape:connector-curvature="0"
         style="fill:#dab323" /><path
         class="fil10"
         d="m -2637,12523 c 53,9 108,26 159,39 74,19 173,41 244,1 136,-79 272,-160 398,-14 329,379 759,654 1245,779 29,6 61,6 89,-5 19,-8 37,-21 45,-40 3,-10 4,-20 2,-30 -34,-177 -93,-365 -283,-428 l -1,0 -1,-1 c -408,-165 -745,-459 -965,-840 -220,-380 -306,-820 -245,-1255 l 0,-1 1,-2 c 39,-195 -94,-340 -229,-458 -8,-7 -17,-12 -27,-13 -21,-3 -42,6 -57,18 -24,19 -40,46 -49,74 -27,96 -48,194 -62,293 -59,396 -16,798 114,1175 18,54 23,109 -1,162 -38,81 -136,134 -211,177 -9,5 -18,12 -26,19 -51,46 -77,128 -95,192 -14,51 -27,106 -45,158 z"
         id="path4746"
         inkscape:connector-curvature="0"
         style="fill:#d3a626" /><path
         class="fil11"
         d="m -2292,10353 c -134,478 -110,987 51,1456 20,58 25,118 -1,176 -40,87 -140,140 -219,186 -8,4 -16,10 -23,16 -47,43 -72,123 -89,183 -13,45 -24,92 -38,138 46,10 93,24 138,35 67,17 164,40 229,3 79,-46 175,-106 270,-96 63,6 113,39 153,86 326,376 753,649 1235,773 33,7 95,4 110,-34 3,-6 3,-12 2,-18 -33,-169 -89,-353 -270,-413 l -2,-1 -1,-1 c -412,-166 -753,-463 -975,-848 -222,-384 -309,-828 -247,-1268 l 0,-2 0,-2 c 38,-187 -93,-327 -222,-440 -5,-4 -11,-7 -17,-8 -40,-6 -74,46 -84,79 z"
         id="path4748"
         inkscape:connector-curvature="0"
         style="fill:#cd9a2a" /><path
         class="fil12"
         d="m -2273,10359 c -133,474 -109,979 51,1443 22,64 26,129 -3,191 -41,92 -142,146 -226,195 -7,4 -14,9 -20,14 -44,40 -67,118 -83,174 -11,38 -21,78 -32,117 40,10 79,21 118,31 60,16 155,38 214,5 84,-49 181,-109 282,-99 68,7 122,43 166,93 323,373 746,644 1225,766 22,5 77,6 87,-21 1,-2 1,-5 0,-8 -31,-161 -83,-340 -256,-398 l -3,0 -2,-1 c -416,-169 -760,-469 -984,-857 -224,-388 -312,-837 -250,-1281 l 1,-2 0,-2 c 36,-180 -93,-314 -216,-422 -2,-1 -4,-3 -7,-3 -28,-4 -55,42 -62,65 z"
         id="path4750"
         inkscape:connector-curvature="0"
         style="fill:#c68d2d" /><path
         class="fil13"
         d="m -2216,10314 c -17,3 -34,36 -38,50 -132,471 -108,971 51,1432 23,68 27,138 -4,205 -44,97 -146,153 -234,204 -6,3 -11,7 -16,12 -41,36 -64,113 -78,164 -9,32 -17,65 -27,98 33,8 66,18 98,26 55,14 148,37 200,7 88,-51 188,-112 294,-102 73,8 132,46 179,100 321,369 740,639 1214,760 15,3 52,5 64,-8 -30,-152 -79,-326 -244,-381 l -2,-1 -3,-1 c -420,-170 -767,-473 -994,-865 -226,-392 -315,-845 -252,-1293 l 0,-3 1,-3 c 34,-170 -91,-299 -209,-401 z"
         id="path4752"
         inkscape:connector-curvature="0"
         style="fill:#c08030" /></g><path
       class="fil8"
       d="m 1865,12575 c -340,392 -780,667 -1265,791 -108,25 -200,-39 -184,-121 29,-146 84,-382 309,-457 385,-156 722,-436 946,-823 223,-387 297,-820 240,-1231 -47,-232 129,-398 242,-496 63,-55 164,-7 196,98 135,483 117,1001 -52,1492 -53,151 57,213 193,292 137,78 141,308 204,435 -142,9 -343,121 -479,42 -137,-79 -245,-143 -350,-22 z"
       id="path4754"
       inkscape:connector-curvature="0"
       style="fill:#e0c020" /><g
       id="_1138801872"><path
         class="fil9"
         d="m 2665,12538 c -52,-127 -66,-333 -184,-401 -127,-74 -262,-145 -203,-315 131,-379 173,-783 116,-1180 -15,-101 -36,-202 -64,-300 -10,-32 -28,-63 -55,-84 -21,-16 -47,-26 -72,-23 -14,2 -27,9 -38,18 -141,123 -276,274 -235,477 l 0,1 0,0 c 60,432 -25,867 -242,1243 -218,377 -552,668 -955,832 l -1,0 -1,0 c -197,66 -260,259 -295,443 -3,14 -2,28 3,41 10,24 32,41 55,51 32,13 68,13 101,6 491,-125 924,-403 1256,-785 118,-137 247,-55 374,18 118,68 304,-22 440,-42 z"
         id="path4757"
         inkscape:connector-curvature="0"
         style="fill:#dab323" /><path
         class="fil10"
         d="m 2637,12523 c -18,-52 -31,-107 -45,-158 -21,-73 -51,-171 -121,-211 -75,-43 -173,-96 -211,-177 -24,-53 -19,-108 -1,-162 130,-376 172,-776 115,-1170 -15,-101 -36,-200 -63,-297 -8,-29 -25,-56 -49,-75 -15,-12 -36,-21 -57,-18 -10,1 -19,6 -27,13 -135,118 -268,263 -229,458 l 1,2 0,1 c 61,435 -25,875 -245,1255 -220,381 -557,675 -965,840 l -1,1 -1,0 c -189,63 -249,251 -283,428 -2,10 -1,20 2,30 8,19 26,32 45,40 28,11 60,11 88,5 487,-125 917,-400 1246,-779 126,-146 262,-65 398,14 10,5 20,10 30,13 66,21 149,3 214,-14 51,-13 106,-30 159,-39 z"
         id="path4759"
         inkscape:connector-curvature="0"
         style="fill:#d3a626" /><path
         class="fil11"
         d="m 2611,12508 c -14,-46 -25,-93 -38,-138 -19,-67 -48,-162 -112,-199 -79,-46 -179,-99 -219,-186 -26,-58 -21,-118 -1,-176 161,-469 185,-978 51,-1456 -10,-32 -44,-85 -84,-79 -6,1 -12,4 -17,8 -129,113 -260,253 -222,440 l 0,2 0,2 c 62,440 -25,884 -247,1268 -222,385 -563,682 -975,848 l -1,1 -2,1 c -181,60 -237,244 -270,413 -1,6 -1,12 2,18 15,38 76,41 110,34 482,-124 909,-398 1235,-773 40,-47 90,-80 153,-86 95,-10 191,50 270,96 9,5 17,8 26,11 61,20 143,1 203,-14 45,-11 92,-25 138,-35 z"
         id="path4761"
         inkscape:connector-curvature="0"
         style="fill:#cd9a2a" /><path
         class="fil12"
         d="m 2586,12493 c -11,-39 -21,-79 -32,-117 -17,-61 -45,-154 -103,-188 -84,-49 -185,-103 -226,-195 -29,-62 -25,-127 -3,-190 160,-465 184,-970 51,-1444 -7,-23 -34,-69 -62,-65 -3,0 -5,2 -7,3 -123,108 -252,242 -216,422 l 0,2 1,2 c 62,444 -26,893 -250,1281 -224,388 -568,688 -984,857 l -2,1 -3,0 c -173,58 -225,237 -256,398 -1,3 -1,6 0,8 10,26 64,26 87,21 479,-122 902,-394 1225,-766 44,-50 98,-86 166,-93 101,-10 198,50 282,99 7,4 15,7 22,10 57,18 137,-1 192,-15 39,-10 78,-21 118,-31 z"
         id="path4763"
         inkscape:connector-curvature="0"
         style="fill:#c68d2d" /><path
         class="fil13"
         d="m 2562,12479 c -10,-33 -18,-66 -27,-98 -15,-54 -42,-146 -94,-176 -88,-51 -190,-107 -234,-204 -31,-67 -27,-137 -4,-205 159,-461 183,-961 52,-1432 -5,-14 -22,-47 -39,-50 -118,102 -243,231 -209,401 l 1,3 0,3 c 63,448 -26,901 -252,1293 -227,392 -574,695 -994,865 l -3,1 -2,1 c -165,55 -214,228 -244,381 12,13 49,11 64,8 474,-121 894,-391 1214,-760 47,-54 106,-92 179,-100 106,-10 206,51 294,102 6,3 12,6 18,8 52,17 130,-2 182,-15 32,-8 65,-18 98,-26 z"
         id="path4765"
         inkscape:connector-curvature="0"
         style="fill:#c08030" /></g></g></svg>