<?xml version="1.0" encoding="UTF-8" standalone="no"?>
<!-- Creator: CorelDRAW X7 -->

<svg
   xmlns:dc="http://purl.org/dc/elements/1.1/"
   xmlns:cc="http://creativecommons.org/ns#"
   xmlns:rdf="http://www.w3.org/1999/02/22-rdf-syntax-ns#"
   xmlns:svg="http://www.w3.org/2000/svg"
   xmlns="http://www.w3.org/2000/svg"
   xmlns:sodipodi="http://sodipodi.sourceforge.net/DTD/sodipodi-0.dtd"
   xmlns:inkscape="http://www.inkscape.org/namespaces/inkscape"
   xml:space="preserve"
   width="7.8740005in"
   height="7.8740005in"
   version="1.1"
   style="clip-rule:evenodd;fill-rule:evenodd;image-rendering:optimizeQuality;shape-rendering:geometricPrecision;text-rendering:geometricPrecision"
   viewBox="0 0 7874.0005 7874.0005"
   id="svg4131"
   inkscape:version="0.91 r13725"
   sodipodi:docname="Tohaa - Hatail Spec-Ops - [N3] [Vyo].svg"><metadata
     id="metadata4197"><rdf:RDF><cc:Work
         rdf:about=""><dc:format>image/svg+xml</dc:format><dc:type
           rdf:resource="http://purl.org/dc/dcmitype/StillImage" /></cc:Work></rdf:RDF></metadata><sodipodi:namedview
     pagecolor="#ffffff"
     bordercolor="#666666"
     borderopacity="1"
     objecttolerance="10"
     gridtolerance="10"
     guidetolerance="10"
     inkscape:pageopacity="0"
     inkscape:pageshadow="2"
     inkscape:window-width="640"
     inkscape:window-height="480"
     id="namedview4195"
     showgrid="false"
     inkscape:zoom="0.23838384"
     inkscape:cx="736.83001"
     inkscape:cy="849.33005"
     inkscape:window-x="0"
     inkscape:window-y="0"
     inkscape:window-maximized="0"
     inkscape:current-layer="svg4131" /><defs
     id="defs4133"><style
       type="text/css"
       id="style4135"><![CDATA[
    .fil0 {fill:black}
    .fil13 {fill:#3F3F3F}
    .fil12 {fill:#4A523A}
    .fil11 {fill:#546535}
    .fil10 {fill:#5F772F}
    .fil9 {fill:#698A2A}
    .fil8 {fill:#749D25}
    .fil7 {fill:#C08030}
    .fil6 {fill:#C68D2D}
    .fil5 {fill:#CD9A2A}
    .fil4 {fill:#D3A626}
    .fil3 {fill:#DAB323}
    .fil2 {fill:#E0C020}
    .fil1 {fill:white}
   ]]></style></defs><g
     id="Layer_x0020_1"
     transform="translate(3937,-7063)"><metadata
       id="CorelCorpID_0Corel-Layer" /><circle
       class="fil0"
       cy="11000"
       r="3937"
       id="circle4139"
       cx="0"
       style="fill:#000000" /><circle
       class="fil1"
       cy="11000"
       r="3858"
       id="circle4141"
       cx="0"
       style="fill:#ffffff" /><path
       class="fil2"
       d="m -2294,9539 c -31,22 -55,29 -73,38 l 0,0 c -17,9 -29,21 -37,35 l 0,0 c -8,14 -12,30 -12,50 1,20 8,44 22,73 l 0,0 c 31,64 312,631 682,845 l 0,0 c 166,95 359,101 570,107 260,7 547,15 849,190 l 1,0 34,19 0,0 c 14,9 31,13 45,12 11,-1 20,-6 26,-16 l 0,0 c 7,-14 19,-31 37,-48 12,-13 28,-25 47,-35 l 1,-1 2,-1 c 8,-3 16,-7 27,-11 l 0,0 c 10,-4 21,-7 33,-9 11,-2 22,-3 35,-3 l 0,0 2,0 1,0 2,0 0,-1 c 13,0 26,2 38,4 13,2 25,5 37,9 l 0,0 c 9,4 17,8 25,11 l 1,1 1,0 c 19,11 35,23 48,36 18,17 30,34 37,48 6,10 15,15 26,16 14,1 31,-3 45,-12 l 0,0 34,-19 1,0 c 302,-175 589,-183 849,-190 211,-6 405,-12 570,-107 370,-214 651,-781 682,-845 l 0,0 c 14,-29 21,-53 22,-73 0,-20 -4,-36 -12,-50 -8,-14 -20,-26 -37,-35 l 0,0 c -18,-9 -42,-16 -73,-38 65,-15 80,-23 94,-31 l 1,-1 153,-88 0,0 c 15,-9 30,-18 46,-41 17,-26 35,-70 56,-148 30,-110 93,-160 143,-199 25,-19 46,-36 55,-55 15,-30 28,-65 38,-101 9,-36 16,-72 18,-106 2,-32 -7,-69 -26,-110 -20,-41 -50,-86 -90,-131 -271,-305 -588,-560 -935,-758 -351,-201 -734,-343 -1132,-421 l 0,0 c -51,-8 -97,-10 -137,-5 -39,4 -71,15 -95,31 l 0,0 c -28,19 -57,42 -83,69 -26,26 -50,54 -69,83 l 0,0 c -11,17 -15,43 -19,74 -9,64 -21,143 -101,224 -40,40 -69,74 -92,100 -48,55 -71,83 -119,83 -48,0 -71,-28 -119,-83 -23,-26 -52,-60 -92,-100 -80,-81 -92,-160 -101,-224 -4,-31 -8,-57 -19,-74 l 0,0 c -19,-29 -43,-57 -69,-83 -26,-27 -55,-50 -83,-69 l 0,0 c -24,-16 -56,-27 -95,-31 -39,-5 -86,-3 -136,5 l 0,0 c -399,78 -782,220 -1133,421 -347,198 -664,453 -935,758 -40,45 -70,90 -90,131 -19,41 -28,78 -26,110 2,34 9,70 18,106 10,36 23,71 38,101 9,19 30,36 55,55 50,39 113,89 143,199 21,78 39,122 56,148 16,23 31,32 46,41 l 0,0 153,88 c 8,4 15,9 27,11 13,3 34,4 68,21 z m 1349,63 c -65,-82 -65,-232 0,-315 l 827,-1043 c 49,-62 187,-62 236,0 l 827,1043 c 65,83 65,233 0,315 l -827,1044 c -49,61 -187,61 -236,0 L -945,9602 Z"
       id="path4143"
       inkscape:connector-curvature="0"
       style="fill:#e0c020" /><g
       id="_1138815728"><path
         class="fil3"
         d="m -2357,9594 c 0,0 0,0 -1,1 -12,6 -21,14 -28,26 0,0 -1,1 -1,1 -7,12 -10,25 -9,39 1,22 10,46 20,66 141,285 392,672 673,835 0,0 0,1 1,1 167,96 372,99 560,104 139,4 275,9 412,33 159,27 306,78 446,159 1,0 1,0 1,1 l 34,19 c 1,0 1,1 1,1 10,5 22,10 33,8 5,0 8,-2 10,-6 1,0 1,-1 1,-1 11,-19 25,-36 40,-51 15,-15 33,-28 52,-38 l 1,-1 c 0,0 0,0 0,0 l 3,-1 c 9,-5 17,-9 27,-12 0,-1 1,-1 1,-1 12,-4 24,-7 37,-10 12,-2 25,-3 38,-3 0,0 0,0 0,0 l 3,0 c 1,0 1,0 2,0 14,0 28,1 42,3 13,2 26,6 39,10 0,1 1,1 1,1 9,3 18,7 26,11 l 3,2 c 0,0 0,0 1,0 19,10 36,24 52,39 16,15 30,33 41,52 2,4 5,6 10,6 11,2 23,-3 33,-8 0,0 0,-1 1,-1 l 34,-19 c 0,-1 0,-1 1,-1 140,-81 287,-132 446,-159 137,-24 273,-29 412,-33 188,-5 393,-8 560,-104 282,-163 533,-551 674,-836 10,-20 19,-44 20,-66 1,-14 -2,-27 -9,-39 -7,-12 -17,-21 -29,-27 -1,-1 -1,-1 -1,-1 -10,-5 -20,-9 -30,-13 -16,-7 -30,-15 -45,-25 -6,-5 -9,-12 -8,-20 2,-8 7,-14 15,-16 30,-7 62,-14 89,-29 0,0 0,0 1,-1 l 153,-88 c 1,-1 1,-1 1,-1 17,-10 27,-17 38,-34 25,-38 43,-99 54,-142 14,-50 35,-94 68,-134 25,-29 52,-52 82,-76 15,-11 41,-31 50,-47 15,-31 27,-65 36,-98 9,-33 15,-68 17,-103 3,-33 -10,-69 -24,-99 -22,-46 -54,-89 -87,-127 -266,-300 -581,-555 -930,-754 -350,-200 -731,-341 -1126,-419 0,0 -1,0 -1,0 -42,-7 -87,-10 -130,-5 -29,4 -60,11 -85,27 0,1 0,1 -1,1 -28,19 -55,42 -80,66 -24,25 -47,52 -66,81 0,0 -1,0 -1,0 -10,16 -13,48 -16,66 -5,38 -11,73 -24,109 -18,49 -46,90 -82,126 -32,32 -62,65 -91,99 -37,43 -72,90 -134,90 -62,0 -97,-47 -134,-90 -29,-34 -59,-67 -91,-99 -36,-36 -64,-77 -82,-126 -13,-36 -19,-71 -24,-109 -3,-18 -6,-50 -16,-66 0,0 -1,0 -1,0 -19,-29 -42,-56 -66,-81 -25,-24 -52,-47 -80,-66 -1,0 -1,-1 -2,-1 -24,-16 -55,-23 -84,-27 -43,-5 -88,-2 -130,5 0,0 -1,0 -1,0 -395,78 -776,219 -1126,419 -349,199 -663,454 -930,754 -33,38 -65,81 -87,127 -14,30 -27,66 -24,99 2,35 8,70 17,103 9,33 21,67 36,98 9,16 35,36 50,47 30,24 57,47 82,76 33,40 54,84 68,134 11,43 29,104 54,142 11,17 21,24 38,34 0,0 0,0 1,1 l 153,88 c 7,4 13,7 21,9 9,2 18,3 27,5 16,4 31,10 46,18 7,3 10,9 11,16 0,7 -3,14 -8,18 -15,10 -29,18 -45,25 -10,4 -20,8 -30,13 z m 1397,21 c -71,-90 -71,-250 0,-340 l 826,-1043 c 57,-72 211,-72 268,0 l 826,1043 c 71,90 71,250 0,340 l -826,1043 c -57,72 -211,72 -268,0 L -960,9615 Z"
         id="path4146"
         inkscape:connector-curvature="0"
         style="fill:#dab323" /><path
         class="fil4"
         d="m -2347,9611 c 0,0 -1,1 -2,1 -8,5 -15,10 -20,19 0,0 0,0 -1,1 -5,9 -7,18 -6,28 0,19 9,41 17,58 139,281 388,666 665,827 0,0 1,0 2,1 163,94 367,96 551,101 139,4 277,9 415,33 161,28 310,80 452,162 0,0 1,0 1,1 l 34,19 c 1,0 1,1 1,1 5,3 13,6 18,6 12,-19 26,-37 42,-53 17,-16 36,-31 56,-42 l 1,0 c 1,-1 1,-1 2,-1 l 2,-1 c 9,-5 19,-9 28,-13 1,0 2,0 3,-1 13,-4 26,-8 39,-10 14,-2 27,-4 41,-4 0,0 1,0 1,0 l 2,0 c 0,0 0,0 0,0 1,0 2,0 3,0 15,0 30,1 45,4 14,2 28,6 42,11 1,0 1,0 2,1 10,3 19,7 28,12 l 2,1 c 0,0 0,0 0,0 l 1,0 c 0,0 1,1 1,1 21,11 40,25 57,42 16,15 30,33 42,53 5,0 13,-3 18,-6 0,0 0,-1 1,-1 l 34,-19 c 0,-1 1,-1 1,-1 142,-82 291,-134 452,-162 138,-24 276,-29 415,-33 184,-5 388,-7 552,-101 277,-160 526,-546 666,-828 8,-17 17,-39 17,-58 1,-10 -1,-19 -6,-28 -5,-9 -12,-15 -21,-20 -1,0 -2,-1 -2,-1 -9,-5 -19,-8 -28,-12 -17,-8 -33,-17 -48,-27 -13,-9 -19,-24 -16,-40 3,-16 14,-27 30,-31 27,-6 58,-13 83,-27 0,0 0,0 1,-1 l 153,-88 c 1,-1 1,-1 2,-1 14,-8 22,-14 31,-28 24,-36 40,-95 51,-136 14,-52 37,-100 72,-141 25,-31 54,-55 85,-79 11,-9 38,-29 44,-41 15,-30 26,-62 35,-94 8,-32 15,-66 17,-99 2,-30 -10,-63 -23,-90 -21,-44 -52,-85 -84,-122 -265,-299 -578,-552 -925,-750 -348,-199 -727,-340 -1120,-417 0,0 0,0 0,0 -41,-6 -84,-9 -125,-4 -25,3 -54,10 -76,24 0,0 0,0 -1,0 -27,19 -53,41 -77,64 -23,24 -45,50 -64,78 0,0 0,0 0,0 -8,13 -11,44 -13,58 -6,39 -12,76 -26,113 -19,51 -48,95 -86,133 -32,31 -61,64 -90,98 -42,49 -79,96 -149,96 -70,0 -107,-47 -149,-96 -29,-34 -58,-67 -90,-98 -38,-38 -67,-82 -86,-133 -14,-37 -20,-74 -26,-113 -2,-14 -5,-45 -13,-58 0,0 0,0 0,0 -19,-28 -41,-54 -64,-78 -24,-23 -50,-45 -77,-64 -1,0 -1,0 -2,-1 -21,-14 -50,-20 -75,-23 -41,-5 -84,-2 -125,4 0,0 0,0 0,0 -393,77 -772,218 -1120,417 -347,198 -660,451 -925,750 -32,37 -63,78 -84,122 -13,27 -25,60 -23,90 2,33 9,67 17,99 9,32 20,64 35,94 6,12 33,32 44,41 31,24 60,48 85,79 35,41 58,89 72,141 11,41 27,100 51,136 10,14 17,20 31,28 1,0 1,0 2,1 l 153,88 c 5,3 9,5 15,6 9,2 18,4 28,6 17,5 34,11 50,19 13,7 21,18 22,33 1,14 -5,27 -17,35 -15,10 -31,19 -48,27 -9,4 -19,7 -28,12 z m 1371,16 c -76,-97 -76,-267 0,-364 l 827,-1043 c 65,-82 233,-82 298,0 l 827,1043 c 76,97 76,267 0,364 l -827,1043 c -65,82 -233,82 -298,0 L -976,9627 Z"
         id="path4148"
         inkscape:connector-curvature="0"
         style="fill:#d3a626" /><path
         class="fil5"
         d="m -84,10737 c -32,-11 -60,-30 -80,-55 L -991,9639 c -82,-104 -82,-284 0,-388 l 827,-1044 c 72,-91 256,-91 328,0 l 827,1044 c 82,103 82,284 0,388 l -827,1043 c -20,25 -48,44 -80,55 3,1 6,2 9,3 1,0 2,1 3,1 10,4 20,8 29,13 l 2,1 c 0,0 1,0 1,0 l 1,1 c 0,0 1,0 1,1 23,12 43,27 61,45 14,13 26,28 37,44 0,-1 1,-1 1,-1 l 34,-19 c 1,-1 1,-1 2,-2 144,-82 295,-135 458,-163 139,-24 277,-29 418,-33 179,-5 382,-7 542,-99 273,-158 521,-542 658,-820 7,-14 15,-33 16,-50 0,-6 -1,-12 -4,-17 -4,-6 -8,-10 -14,-13 0,0 -1,0 -2,-1 -8,-4 -17,-7 -26,-11 -18,-8 -35,-18 -51,-29 -20,-14 -29,-36 -24,-60 4,-23 21,-41 44,-46 25,-6 55,-12 77,-25 1,0 2,0 2,-1 l 154,-88 c 0,-1 1,-1 2,-2 10,-6 16,-9 23,-21 23,-33 39,-92 49,-130 29,-106 81,-165 164,-231 8,-6 34,-26 38,-34 15,-28 26,-59 34,-90 8,-31 14,-63 16,-95 2,-26 -9,-57 -20,-80 -21,-43 -50,-83 -82,-118 -263,-297 -574,-549 -919,-746 -346,-197 -723,-338 -1115,-414 -38,-6 -80,-9 -118,-4 -22,2 -48,8 -68,20 0,0 0,0 -1,1 -26,18 -51,39 -74,61 -23,23 -44,48 -62,74 0,1 0,1 0,1 -5,9 -9,40 -10,50 -15,105 -40,179 -117,257 -32,31 -61,63 -89,97 -47,54 -87,103 -164,103 -77,0 -117,-49 -164,-103 -28,-34 -57,-66 -89,-97 -77,-78 -102,-152 -117,-257 -1,-10 -5,-41 -10,-50 0,0 0,0 0,-1 -18,-26 -39,-51 -62,-74 -23,-22 -48,-43 -74,-61 -1,-1 -1,-1 -2,-1 -19,-12 -45,-18 -67,-20 -38,-5 -80,-2 -118,4 -391,76 -768,217 -1115,414 -345,197 -656,449 -919,746 -31,35 -61,75 -82,118 -11,23 -22,54 -20,80 2,32 8,64 16,95 8,31 19,62 34,90 4,8 30,28 38,34 84,66 135,125 164,231 10,38 26,97 49,130 7,12 13,15 23,21 1,1 2,1 2,2 l 154,88 c 3,2 5,4 9,4 32,7 52,11 83,27 19,9 31,27 32,48 2,22 -7,41 -25,53 -16,11 -33,21 -51,29 -9,4 -18,7 -26,11 -1,1 -2,1 -2,1 -6,3 -10,7 -13,12 0,0 0,0 -1,1 -3,5 -4,11 -4,17 1,17 9,36 16,50 137,277 384,660 656,819 1,0 2,0 2,1 160,92 363,94 542,99 141,4 279,9 418,33 163,28 314,81 458,163 1,1 1,1 2,2 l 34,19 c 0,0 1,0 1,1 10,-16 23,-31 36,-44 18,-18 39,-33 61,-45 l 1,-1 c 1,0 1,0 2,-1 l 2,-1 c 10,-5 20,-9 30,-13 1,0 2,-1 3,-1 3,-1 6,-2 9,-3 z"
         id="path4150"
         inkscape:connector-curvature="0"
         style="fill:#cd9a2a" /><path
         class="fil6"
         d="m -133,10736 c -18,-11 -34,-25 -47,-41 l -827,-1044 c -88,-111 -88,-302 0,-413 l 827,-1043 c 81,-101 279,-101 360,0 l 827,1043 c 88,111 88,302 0,413 l -827,1044 c -13,16 -29,30 -47,41 0,0 0,0 1,0 l 2,1 c 0,0 0,0 1,1 l 0,0 c 1,0 2,1 3,1 24,13 46,29 65,49 10,9 20,20 29,32 l 19,-12 c 1,0 2,0 3,-1 145,-84 298,-137 464,-166 140,-24 279,-29 420,-33 176,-5 377,-6 533,-96 270,-156 515,-538 650,-812 6,-11 14,-28 14,-41 0,-3 0,-5 -1,-7 -2,-3 -3,-4 -6,-5 -1,-1 -1,-1 -2,-1 -8,-4 -17,-8 -25,-11 -19,-9 -37,-19 -54,-31 -26,-18 -39,-48 -33,-79 6,-31 29,-55 60,-62 22,-5 51,-11 72,-23 0,0 1,-1 1,-1 l 154,-88 c 1,-1 1,-1 2,-2 8,-4 12,-6 17,-15 21,-31 37,-89 46,-124 30,-111 84,-173 171,-241 8,-6 27,-21 33,-29 14,-27 24,-56 32,-85 8,-30 13,-61 15,-91 2,-23 -9,-51 -18,-71 -20,-41 -48,-79 -78,-113 -262,-295 -572,-546 -915,-742 -344,-196 -719,-336 -1108,-412 -37,-5 -76,-8 -113,-4 -19,2 -42,7 -59,17 0,1 -1,1 -1,1 -25,17 -49,38 -71,59 -21,22 -42,45 -58,70 -4,10 -7,34 -8,43 -16,110 -43,188 -124,269 -30,30 -59,62 -87,95 -51,60 -95,111 -179,111 -84,0 -128,-51 -179,-111 -28,-33 -57,-65 -87,-95 -81,-81 -108,-159 -124,-269 -1,-9 -4,-33 -8,-43 -16,-25 -37,-48 -58,-70 -22,-21 -46,-42 -71,-59 -1,0 -1,-1 -2,-1 -16,-10 -40,-15 -58,-17 -37,-4 -76,-1 -113,4 -389,76 -764,216 -1108,412 -343,196 -653,447 -915,742 -30,34 -58,72 -78,113 -9,20 -20,48 -18,71 2,30 7,61 15,91 8,29 18,58 32,85 6,8 25,23 33,29 87,68 141,130 171,241 9,35 25,93 46,124 5,9 9,11 17,15 1,1 1,1 2,2 l 154,88 c 1,1 2,1 3,2 34,7 55,12 88,28 25,13 41,36 43,65 2,28 -10,54 -34,70 -17,12 -35,22 -54,31 -8,3 -17,7 -25,11 -1,0 -1,0 -2,1 -2,1 -4,2 -5,4 0,0 0,0 -1,1 -1,2 -1,4 -1,7 0,13 8,30 14,41 135,274 379,654 648,810 1,1 1,1 2,2 156,90 357,91 533,96 141,4 280,9 420,33 166,29 319,82 464,166 1,1 2,1 3,1 l 19,12 c 9,-12 18,-22 28,-32 20,-19 42,-35 66,-48 l 0,-1 c 2,0 3,-1 4,-2 l 2,-1 c 0,0 1,0 1,0 z"
         id="path4152"
         inkscape:connector-curvature="0"
         style="fill:#c68d2d" /><path
         class="fil7"
         d="m -169,10734 c -10,-8 -18,-17 -26,-27 l -827,-1044 c -94,-118 -94,-319 0,-437 l 827,-1043 c 36,-45 93,-72 153,-81 -65,-13 -106,-59 -152,-113 -28,-32 -56,-64 -86,-94 -84,-84 -113,-166 -129,-280 -1,-9 -3,-27 -6,-37 -16,-23 -35,-45 -55,-65 -21,-21 -44,-40 -68,-56 -1,-1 -1,-1 -2,-2 -13,-8 -34,-12 -49,-13 -35,-4 -73,-2 -108,3 -386,76 -759,215 -1101,410 -341,195 -649,444 -910,738 -29,33 -56,70 -75,109 -8,16 -18,42 -17,60 2,30 8,59 15,88 7,27 17,54 29,79 7,8 22,18 29,24 91,71 147,137 178,251 9,34 24,90 43,119 3,5 5,6 9,8 1,1 3,2 4,3 l 154,88 c 0,0 0,0 0,0 34,7 57,13 90,30 31,16 51,45 53,80 3,36 -12,68 -41,88 -19,13 -38,23 -58,33 -7,3 -15,6 -22,9 2,10 8,23 11,30 133,269 376,647 641,801 0,1 1,1 2,2 153,88 352,89 524,93 329,10 599,33 893,202 1,0 2,1 3,1 l 5,3 c 6,-7 12,-14 19,-20 15,-15 32,-29 50,-40 z m 338,0 c 18,11 35,25 50,39 7,7 13,14 19,21 l 5,-3 c 1,0 2,-1 3,-1 294,-169 564,-192 893,-202 172,-4 372,-5 524,-93 266,-154 509,-533 643,-803 3,-7 9,-20 11,-30 -7,-3 -15,-6 -22,-9 -20,-10 -39,-20 -58,-33 -32,-22 -47,-60 -40,-99 7,-39 35,-68 74,-77 20,-5 48,-11 67,-21 0,0 1,-1 1,-1 l 154,-88 c 1,-1 3,-2 4,-3 4,-2 6,-3 9,-8 19,-29 34,-85 43,-119 31,-114 87,-180 178,-251 7,-6 22,-16 29,-24 12,-25 22,-52 29,-79 7,-29 13,-58 15,-88 1,-18 -9,-44 -17,-60 -19,-39 -46,-76 -75,-109 -261,-294 -568,-543 -910,-738 -342,-195 -715,-334 -1101,-409 -35,-6 -73,-8 -108,-4 -15,1 -36,5 -50,14 0,0 -1,0 -1,1 -24,16 -47,35 -68,56 -20,20 -39,42 -55,65 -3,10 -5,28 -6,37 -16,114 -45,196 -129,280 -30,30 -58,62 -86,94 -46,54 -87,100 -152,113 60,9 117,36 153,81 l 827,1043 c 94,118 94,319 0,437 l -827,1044 c -8,10 -16,19 -26,27 z"
         id="path4154"
         inkscape:connector-curvature="0"
         style="fill:#c08030" /></g><path
       class="fil8"
       d="m -187,11108 c -26,-43 -28,-73 -30,-98 -2,-27 -3,-46 -61,-80 l 0,0 -34,-19 0,0 c -294,-170 -576,-178 -831,-185 -217,-6 -414,-12 -589,-112 -380,-220 -665,-797 -697,-861 l 0,0 c -29,-59 -44,-67 -58,-75 l 0,0 -153,-89 c -15,-9 -30,-17 -59,-19 -31,-2 -78,4 -156,25 -110,30 -185,-1 -244,-24 -29,-12 -54,-22 -75,-21 -34,2 -70,9 -106,18 -36,10 -71,23 -101,38 -29,14 -57,41 -82,77 -26,38 -49,87 -69,144 -129,387 -191,789 -189,1189 2,404 70,807 202,1191 l 0,0 c 18,48 40,89 64,121 23,31 48,53 74,66 30,15 65,28 101,38 36,9 72,16 106,18 21,1 46,-9 75,-21 59,-23 134,-53 244,-24 55,15 98,23 133,30 71,13 107,20 131,61 24,41 12,76 -13,144 -11,33 -25,75 -40,130 -30,110 -93,160 -143,199 -25,19 -46,36 -55,55 -15,30 -28,65 -38,101 -9,36 -16,72 -18,106 -2,29 5,62 21,97 15,37 40,77 73,117 266,306 581,566 930,770 345,201 725,348 1124,430 59,12 113,16 159,12 44,-3 81,-14 108,-32 28,-19 57,-42 83,-69 26,-26 50,-54 69,-83 l 0,0 c 11,-17 15,-43 19,-74 9,-64 21,-143 101,-224 58,-57 86,-95 100,-123 13,-25 13,-42 13,-60 l 0,-177 c 0,-17 0,-33 -36,-88 -40,-59 -397,-595 -397,-1034 0,-201 94,-375 197,-566 121,-225 255,-473 255,-812 l 0,-39 c 0,-67 -16,-78 -38,-93 -21,-14 -45,-31 -70,-75 z m -551,1409 c -39,98 -169,173 -273,158 l -1317,-195 c -78,-11 -147,-131 -118,-204 l 490,-1238 c 39,-98 169,-173 273,-157 l 1317,194 c 78,11 147,131 118,204 l -490,1238 z"
       id="path4156"
       inkscape:connector-curvature="0"
       style="fill:#749d25" /><g
       id="_1138807696"><path
         class="fil9"
         d="m -287,10948 c 0,0 0,0 -1,-1 l -34,-19 c 0,0 -1,-1 -1,-1 -133,-76 -272,-124 -422,-150 -133,-23 -265,-28 -399,-31 -205,-6 -415,-10 -598,-115 -107,-62 -202,-149 -285,-240 -110,-119 -206,-255 -290,-393 -46,-77 -90,-156 -130,-237 -8,-16 -19,-37 -31,-52 -6,-6 -11,-10 -19,-14 0,0 -1,-1 -1,-1 l -152,-88 c -18,-10 -29,-15 -50,-16 -45,-3 -107,12 -150,24 -49,13 -99,17 -150,8 -37,-6 -71,-19 -106,-33 -18,-7 -48,-20 -66,-19 -35,2 -70,8 -103,17 -33,9 -67,21 -98,37 -30,14 -55,43 -74,70 -29,42 -50,91 -66,139 -127,381 -190,781 -188,1183 2,402 70,803 200,1184 16,40 36,81 62,116 17,24 40,47 66,60 31,16 65,28 98,37 33,9 68,15 103,17 18,1 48,-12 66,-19 35,-14 69,-27 106,-33 51,-9 101,-5 150,8 44,12 87,21 131,29 56,11 114,17 145,71 31,54 8,107 -11,161 -15,42 -29,85 -40,128 -14,50 -35,94 -68,134 -25,29 -52,52 -82,76 -15,11 -41,31 -50,47 -15,31 -27,65 -36,98 -9,33 -15,68 -17,103 -2,29 7,61 19,88 17,40 42,78 70,111 264,304 577,563 925,766 347,202 725,347 1118,428 50,10 103,16 153,12 33,-3 71,-10 99,-29 28,-19 55,-42 80,-66 24,-25 47,-52 66,-81 0,0 1,0 1,0 10,-16 13,-48 16,-66 5,-38 11,-73 24,-109 18,-49 46,-90 82,-126 32,-32 76,-77 96,-118 10,-18 11,-31 11,-51 l 0,-177 c 0,-9 -1,-15 -4,-23 -6,-18 -18,-38 -29,-54 -50,-74 -96,-152 -139,-230 -78,-142 -148,-293 -197,-448 -37,-117 -64,-243 -64,-367 0,-211 102,-395 199,-575 64,-118 126,-235 173,-361 52,-143 81,-289 81,-442 l 0,-39 c 0,-21 0,-53 -17,-67 -4,-4 -9,-7 -13,-10 -35,-23 -55,-44 -77,-81 -21,-37 -28,-65 -31,-106 -1,-6 -1,-11 -2,-17 -5,-21 -31,-37 -49,-47 z m -433,1576 c -42,106 -181,187 -294,170 l -1317,-194 c -48,-7 -89,-48 -113,-89 -24,-41 -38,-97 -20,-143 l 490,-1237 c 42,-106 181,-187 294,-170 l 1317,194 c 49,8 90,48 113,89 24,41 39,97 20,143 l -490,1237 z"
         id="path4159"
         inkscape:connector-curvature="0"
         style="fill:#698a2a" /><path
         class="fil10"
         d="m -296,10965 c -1,0 -1,0 -2,-1 l -34,-19 c 0,-1 -1,-1 -1,-1 -131,-75 -268,-122 -416,-148 -131,-23 -263,-27 -395,-31 -209,-5 -422,-10 -607,-117 -109,-63 -207,-151 -291,-243 -110,-121 -207,-258 -292,-397 -46,-77 -90,-157 -131,-238 -7,-15 -17,-35 -28,-48 -5,-5 -8,-7 -14,-10 0,0 -1,-1 -1,-1 l -152,-88 c -15,-8 -23,-13 -41,-14 -43,-2 -103,13 -144,24 -52,14 -104,18 -158,9 -39,-7 -74,-20 -111,-35 -13,-5 -43,-18 -57,-17 -33,2 -67,8 -99,16 -32,9 -64,20 -94,35 -27,13 -50,40 -67,65 -27,40 -48,87 -63,133 -127,379 -190,777 -188,1176 2,401 70,799 200,1178 15,39 34,78 58,111 16,21 36,43 60,55 30,15 62,26 94,35 32,8 66,14 99,16 14,1 44,-12 57,-17 37,-15 72,-28 111,-35 54,-9 106,-5 158,9 43,12 86,21 130,29 63,12 123,20 158,80 35,61 12,117 -9,177 -15,43 -29,84 -40,127 -14,52 -37,100 -72,141 -25,31 -54,55 -85,79 -11,9 -38,29 -44,41 -15,30 -26,62 -35,94 -8,32 -15,66 -17,99 -1,26 7,55 18,79 16,38 41,74 67,107 263,301 574,559 920,761 345,201 721,345 1112,425 48,10 99,16 148,12 29,-2 64,-9 89,-25 27,-19 53,-41 77,-64 23,-24 45,-50 64,-78 0,0 0,0 0,0 8,-13 11,-44 13,-58 6,-39 12,-76 26,-113 19,-51 48,-95 86,-133 30,-30 74,-74 93,-112 8,-16 8,-26 8,-43 l 0,-177 c 0,-7 0,-10 -2,-17 -6,-16 -18,-35 -27,-49 -50,-75 -97,-153 -140,-232 -79,-143 -149,-295 -198,-451 -38,-119 -66,-247 -66,-373 0,-215 103,-401 202,-585 63,-116 125,-232 171,-358 52,-141 80,-284 80,-435 l 0,-39 c 0,-12 0,-43 -10,-53 -3,-3 -8,-5 -11,-8 -37,-25 -60,-48 -83,-87 -22,-39 -31,-71 -34,-115 0,-4 -1,-9 -2,-14 -2,-13 -27,-27 -38,-34 z m -405,1567 c -46,114 -194,200 -315,182 l -1317,-195 c -55,-8 -101,-52 -128,-98 -27,-47 -42,-108 -21,-160 l 490,-1237 c 45,-115 193,-200 315,-182 l 1317,194 c 55,8 100,52 127,98 27,47 42,108 22,160 l -490,1238 z"
         id="path4161"
         inkscape:connector-curvature="0"
         style="fill:#5f772f" /><path
         class="fil11"
         d="m -186,11204 c 7,34 5,67 -7,97 l -490,1238 c -49,123 -205,213 -336,194 l -1317,-194 c -116,-17 -208,-176 -165,-285 l 490,-1238 c 49,-123 206,-213 337,-194 l 1317,194 c 31,5 61,21 87,43 -3,-14 -5,-29 -6,-45 0,-2 0,-7 -1,-10 -4,-7 -21,-17 -29,-21 0,-1 -1,-1 -2,-1 l -34,-20 c 0,-1 -1,-1 -1,-1 -263,-151 -508,-168 -802,-176 -213,-6 -427,-11 -616,-120 -304,-175 -569,-578 -721,-886 -8,-15 -19,-41 -35,-50 0,-1 -1,-1 -2,-1 l -151,-88 c -12,-7 -18,-10 -32,-11 -41,-2 -99,13 -138,23 -106,28 -183,13 -281,-27 -9,-3 -40,-16 -49,-16 -32,2 -64,8 -95,16 -31,9 -62,20 -90,34 -24,11 -45,37 -59,58 -27,38 -47,84 -62,129 -125,376 -188,772 -186,1169 2,399 69,795 198,1172 14,36 33,74 56,106 14,18 32,38 53,48 28,14 59,25 90,34 31,8 63,14 95,16 9,0 40,-13 49,-16 98,-40 175,-55 281,-27 43,11 85,20 129,28 70,14 132,24 171,91 39,67 16,126 -8,193 -14,42 -28,83 -39,125 -29,106 -80,165 -164,231 -8,6 -34,26 -38,34 -15,28 -26,59 -34,90 -8,31 -14,63 -16,95 -2,23 7,49 16,70 15,36 39,71 64,102 262,300 571,556 915,757 343,200 717,343 1106,423 46,9 95,15 142,12 26,-2 58,-8 80,-23 26,-17 51,-39 74,-61 23,-23 44,-48 62,-74 0,-1 0,-1 0,-1 5,-9 9,-40 10,-50 15,-105 40,-179 117,-257 28,-28 71,-71 89,-107 7,-13 7,-20 7,-34 l 0,-177 c 0,-18 -17,-41 -27,-55 -191,-286 -407,-717 -407,-1067 0,-219 104,-407 205,-594 140,-259 248,-480 248,-784 l 0,-39 c 0,-8 0,-31 -4,-38 -2,-2 -6,-5 -8,-7 -14,-9 -25,-17 -36,-27 z"
         id="path4163"
         inkscape:connector-curvature="0"
         style="fill:#546535" /><path
         class="fil12"
         d="m -162,11247 c -1,21 -5,42 -13,61 l -490,1238 c -52,132 -217,227 -357,206 l -1317,-194 c -128,-19 -228,-191 -180,-311 l 490,-1238 c 52,-132 218,-227 358,-206 l 1317,194 c 20,3 40,10 59,20 0,0 0,-1 0,-1 0,-1 0,-2 -1,-3 -5,-5 -14,-10 -19,-13 -1,-1 -2,-1 -2,-1 l -34,-20 c -1,-1 -2,-1 -3,-1 -258,-149 -501,-165 -791,-173 -217,-6 -433,-12 -626,-123 -307,-177 -574,-582 -729,-894 -4,-9 -16,-33 -23,-40 -1,-1 -2,-2 -3,-2 -1,-1 -2,-1 -3,-1 l -151,-88 c -9,-5 -13,-8 -24,-8 -37,-3 -95,12 -131,22 -110,30 -191,14 -293,-27 -10,-4 -32,-14 -42,-15 -30,2 -61,8 -90,15 -29,8 -59,19 -86,33 -21,9 -40,33 -52,51 -26,37 -45,81 -59,124 -125,375 -187,768 -185,1163 2,396 68,790 197,1165 13,35 31,71 53,101 11,15 28,34 46,43 27,13 57,24 86,32 29,7 60,13 90,15 10,-1 32,-11 42,-15 102,-41 183,-57 293,-27 42,11 84,20 127,28 77,15 143,27 185,100 42,73 20,136 -6,209 -15,42 -28,82 -39,124 -30,111 -84,173 -171,241 -8,6 -27,21 -33,29 -14,27 -24,56 -32,85 -8,30 -13,61 -15,91 -2,20 6,44 14,61 15,35 37,68 61,97 260,298 568,553 910,753 341,199 713,342 1100,421 44,9 92,15 137,11 22,-2 51,-7 70,-19 25,-17 49,-38 71,-59 21,-22 42,-45 58,-70 4,-10 7,-34 8,-43 16,-110 43,-188 124,-269 26,-26 68,-68 85,-102 4,-10 4,-14 4,-25 l 0,-177 c 0,-1 0,-2 0,-4 -3,-10 -17,-32 -23,-40 -193,-290 -410,-723 -410,-1078 0,-223 103,-413 206,-603 139,-256 247,-475 247,-775 l 0,-39 c 0,-6 -1,-18 -2,-27 -1,0 -2,-1 -2,-1 -1,0 -1,-1 -1,-1 z"
         id="path4165"
         inkscape:connector-curvature="0"
         style="fill:#4a523a" /><path
         class="fil13"
         d="m -411,10969 c -238,-123 -466,-137 -735,-145 -221,-6 -439,-12 -635,-125 -311,-180 -580,-586 -736,-903 -5,-8 -13,-24 -19,-33 -1,-1 -2,-1 -3,-2 l -151,-87 c -6,-3 -8,-5 -15,-6 -35,-2 -91,13 -125,22 -114,31 -199,15 -306,-28 -9,-4 -25,-11 -35,-13 -28,2 -57,7 -84,14 -28,8 -56,18 -83,31 -16,8 -34,30 -44,45 -24,36 -43,78 -56,119 -124,373 -187,764 -185,1157 2,394 69,786 196,1158 13,33 30,68 51,96 9,12 24,30 38,37 27,13 55,23 83,31 27,7 56,12 84,14 10,-2 26,-9 35,-13 107,-43 192,-59 306,-28 42,11 84,20 126,28 69,13 129,25 174,75 -24,-57 -29,-120 -7,-174 l 490,-1237 c 55,-140 229,-241 379,-219 l 1257,186 z m -2078,1516 c 21,63 2,121 -22,188 -14,41 -27,81 -38,123 -31,114 -87,180 -178,251 -7,6 -22,16 -29,24 -12,25 -22,52 -29,79 -7,29 -13,58 -15,88 -1,16 7,37 13,51 14,33 36,65 58,93 259,296 565,549 905,748 339,198 709,340 1094,419 42,8 88,14 131,10 18,-1 46,-5 61,-16 24,-16 47,-35 68,-56 20,-20 39,-42 55,-65 3,-10 5,-28 6,-37 16,-114 45,-196 129,-280 24,-24 65,-66 81,-97 3,-6 2,-9 2,-16 l 0,-177 c -4,-10 -14,-25 -19,-33 -196,-294 -414,-730 -414,-1089 0,-227 104,-419 209,-613 128,-236 230,-441 242,-708 l -467,1181 c -56,140 -230,241 -379,219 l -1317,-194 c -57,-9 -109,-45 -147,-93 z"
         id="path4167"
         inkscape:connector-curvature="0"
         style="fill:#3f3f3f" /></g><path
       class="fil8"
       d="m 188,11108 c -26,44 -50,61 -71,75 -23,15 -38,26 -38,93 l 0,0 0,39 0,0 c 0,339 134,587 255,812 103,190 197,365 197,566 0,439 -357,975 -397,1034 l 0,0 c -36,55 -36,71 -36,88 l 0,0 0,177 c 0,17 0,35 13,60 14,28 42,66 100,123 80,81 92,160 101,224 4,31 8,57 19,74 19,29 43,57 69,83 26,27 55,50 83,69 27,18 64,29 108,32 46,4 100,0 159,-12 400,-82 779,-229 1124,-430 349,-204 664,-464 931,-771 l 0,0 c 32,-40 57,-79 72,-116 16,-35 23,-68 21,-97 -2,-34 -8,-70 -18,-106 -10,-36 -22,-71 -38,-101 -9,-19 -30,-36 -55,-55 -50,-39 -113,-89 -143,-199 -14,-55 -29,-97 -40,-130 -24,-68 -37,-103 -13,-144 24,-41 60,-48 131,-62 35,-6 78,-14 133,-29 110,-30 185,1 244,24 29,12 54,22 75,21 34,-2 70,-9 106,-18 36,-10 71,-23 101,-38 26,-13 51,-35 74,-66 24,-33 46,-74 65,-122 131,-384 199,-786 201,-1190 2,-400 -60,-802 -189,-1189 -19,-57 -43,-106 -69,-144 -25,-36 -53,-63 -82,-77 -30,-15 -65,-28 -101,-38 -36,-9 -72,-16 -106,-18 l 0,0 c -21,-1 -46,9 -75,21 -59,23 -134,54 -244,24 -78,-21 -125,-27 -156,-25 -28,2 -43,10 -59,19 l -153,89 c -14,8 -29,16 -58,75 -31,64 -317,641 -697,861 -174,100 -372,106 -589,112 -255,7 -537,15 -831,185 l -34,19 c -58,34 -59,53 -61,80 -2,25 -4,55 -29,98 z m 1495,-227 c 104,-16 234,59 273,157 l 490,1238 c 29,73 -40,193 -118,204 l -1317,195 c -104,15 -234,-60 -273,-158 L 248,11279 c -29,-73 40,-193 118,-204 l 1317,-194 z"
       id="path4169"
       inkscape:connector-curvature="0"
       style="fill:#749d25" /><g
       id="_1138829904"><path
         class="fil9"
         d="m 98,11274 c 0,1 0,1 0,2 l 0,39 c 0,0 0,1 0,1 1,153 29,298 81,441 47,126 109,243 173,361 97,180 199,364 199,575 0,123 -27,250 -64,367 -49,155 -119,306 -197,448 -43,78 -89,156 -139,230 -11,16 -23,36 -29,54 -3,8 -4,14 -4,23 0,0 0,1 0,1 l 0,176 c 0,20 1,33 11,51 20,41 64,86 96,118 36,36 64,77 82,126 13,36 19,71 24,109 3,18 6,51 17,66 19,29 42,56 66,81 25,24 52,47 80,66 28,19 66,26 99,29 50,4 103,-2 153,-12 393,-81 771,-226 1118,-428 348,-204 661,-463 926,-766 27,-34 52,-72 69,-111 12,-27 21,-59 19,-88 -2,-35 -8,-70 -17,-103 -9,-33 -21,-67 -36,-98 -9,-16 -35,-36 -50,-47 -30,-24 -57,-47 -82,-76 -33,-40 -54,-84 -68,-134 -11,-43 -25,-85 -40,-128 -19,-54 -42,-107 -11,-161 31,-54 88,-60 145,-71 44,-8 87,-17 131,-29 49,-13 99,-17 150,-8 37,6 71,19 106,33 18,7 48,20 66,19 35,-2 70,-8 103,-17 33,-9 67,-21 98,-37 26,-13 49,-37 66,-60 26,-35 46,-76 62,-117 130,-380 198,-781 200,-1183 2,-402 -61,-802 -188,-1183 -16,-48 -37,-97 -66,-139 -19,-27 -44,-56 -74,-70 -31,-16 -65,-28 -98,-37 -33,-9 -68,-15 -103,-17 0,0 0,0 -1,0 -18,-1 -48,12 -64,19 -36,14 -70,27 -107,33 -51,9 -101,5 -150,-8 -43,-12 -105,-27 -150,-24 -21,1 -32,6 -50,16 l -153,89 c -8,4 -13,8 -19,14 -12,15 -23,36 -31,52 -40,81 -84,160 -130,236 -84,139 -180,275 -289,394 -83,91 -179,178 -286,240 -183,105 -393,109 -598,115 -134,3 -266,8 -398,31 -151,26 -291,74 -424,151 l -34,19 c -18,11 -45,27 -50,48 -1,6 -1,11 -2,17 -3,41 -10,69 -31,106 -22,37 -42,58 -77,81 -4,3 -9,6 -13,10 -16,14 -17,45 -17,65 z m 1582,-413 c 113,-17 252,64 294,170 l 490,1237 c 18,46 4,102 -20,143 -24,41 -65,82 -113,89 l -1317,194 c -113,17 -252,-64 -294,-170 L 230,11287 c -19,-46 -4,-102 20,-143 24,-41 64,-81 113,-89 l 1317,-194 z"
         id="path4172"
         inkscape:connector-curvature="0"
         style="fill:#698a2a" /><path
         class="fil10"
         d="m 118,11274 c 0,0 0,1 0,2 l 0,39 c 0,1 0,1 0,2 0,150 28,292 80,433 46,125 108,241 171,358 99,184 202,370 202,585 0,126 -28,254 -66,373 -49,156 -119,308 -198,451 -43,79 -90,157 -140,232 -9,14 -21,33 -27,49 -2,7 -2,10 -2,17 0,1 0,1 0,2 l 0,175 c 0,17 0,27 8,43 19,38 63,82 93,112 38,38 67,82 86,133 14,37 20,74 26,113 2,14 5,47 13,59 19,27 41,53 64,77 24,23 50,45 77,64 25,16 60,23 89,25 49,4 100,-2 148,-12 391,-80 767,-224 1112,-425 346,-202 657,-460 921,-762 26,-32 50,-68 66,-106 11,-24 19,-53 18,-79 -2,-33 -9,-67 -17,-99 -9,-32 -20,-64 -35,-94 -6,-12 -33,-32 -44,-41 -31,-24 -60,-48 -85,-79 -35,-41 -58,-89 -72,-141 -11,-43 -25,-84 -40,-127 -21,-60 -44,-116 -9,-177 35,-60 95,-68 158,-80 44,-8 87,-17 130,-29 52,-14 104,-18 158,-9 39,7 74,20 111,35 13,5 43,18 57,17 33,-2 67,-8 99,-16 32,-9 64,-20 94,-35 23,-12 44,-34 60,-55 24,-33 44,-73 59,-111 129,-379 197,-777 199,-1177 2,-400 -61,-798 -188,-1177 -15,-46 -36,-93 -63,-133 -17,-25 -40,-51 -67,-65 -30,-15 -62,-26 -94,-35 -32,-8 -66,-14 -99,-16 0,0 -1,0 -1,-1 -14,0 -43,13 -56,18 -37,15 -72,28 -111,35 -54,9 -106,5 -158,-9 -41,-11 -101,-26 -144,-24 -17,1 -26,6 -41,14 l -153,89 c -6,3 -9,5 -14,10 -11,13 -21,33 -28,48 -40,81 -84,160 -131,238 -85,139 -182,276 -292,397 -84,92 -182,180 -290,243 -186,107 -399,112 -608,117 -132,4 -264,8 -395,31 -149,26 -286,73 -417,149 l -34,19 c -11,7 -38,22 -41,35 0,5 -1,10 -1,14 -3,44 -12,76 -34,115 -23,39 -46,62 -83,87 -3,3 -8,5 -11,8 -10,9 -10,38 -10,51 z m 1559,-432 c 122,-18 270,67 315,182 l 490,1237 c 21,52 6,113 -21,160 -27,46 -73,90 -128,98 l -1317,195 c -121,18 -269,-68 -315,-182 L 211,11294 c -20,-52 -5,-113 22,-160 27,-46 72,-90 127,-98 l 1317,-194 z"
         id="path4174"
         inkscape:connector-curvature="0"
         style="fill:#5f772f" /><path
         class="fil11"
         d="m 270,11059 c 26,-22 56,-38 87,-43 l 1317,-194 c 131,-19 288,71 337,194 l 490,1238 c 43,109 -49,268 -165,285 l -1317,194 c -131,19 -287,-71 -336,-194 L 193,11301 c -12,-30 -14,-63 -7,-97 -11,10 -22,19 -36,28 -2,1 -6,4 -9,6 -3,7 -3,27 -3,36 0,0 0,1 0,2 l 0,39 c 0,1 0,1 0,2 0,303 108,524 248,782 101,187 204,375 204,594 0,350 -215,781 -406,1067 -10,14 -27,37 -27,55 0,1 0,1 0,2 l 0,175 c 0,14 0,21 7,34 18,36 60,79 89,107 77,78 102,152 117,257 1,10 6,43 10,51 18,26 39,51 62,74 23,22 48,44 74,61 22,15 54,21 80,23 47,3 96,-3 142,-12 389,-80 763,-223 1106,-423 344,-201 654,-457 916,-758 24,-30 48,-65 63,-101 9,-21 18,-47 16,-70 -2,-32 -8,-64 -16,-95 -8,-31 -19,-62 -34,-90 -4,-8 -30,-28 -38,-34 -84,-66 -135,-125 -164,-231 -11,-42 -25,-83 -39,-125 -24,-67 -47,-126 -8,-193 39,-67 101,-77 171,-91 44,-8 86,-17 129,-28 106,-28 183,-13 281,27 9,3 40,16 49,16 32,-2 64,-8 95,-16 31,-9 62,-20 90,-34 21,-10 39,-30 53,-49 24,-31 42,-69 56,-106 129,-377 196,-773 198,-1171 2,-397 -61,-793 -186,-1169 -15,-45 -35,-91 -62,-129 -14,-22 -35,-46 -59,-58 -28,-14 -59,-25 -90,-34 -31,-8 -63,-14 -95,-16 0,0 -1,0 -1,0 -10,0 -39,13 -48,16 -98,40 -175,55 -281,27 -38,-10 -98,-25 -138,-23 -14,1 -20,4 -32,11 l -153,89 c -16,9 -27,35 -35,50 -152,308 -417,711 -721,886 -189,109 -403,114 -616,120 -295,8 -540,25 -803,177 l -34,20 c -7,3 -26,15 -31,22 -1,3 -1,8 -1,10 -2,16 -3,31 -6,45 z"
         id="path4176"
         inkscape:connector-curvature="0"
         style="fill:#546535" /><path
         class="fil12"
         d="m 295,11017 c 19,-10 39,-17 59,-20 l 1317,-194 c 140,-21 306,74 358,206 l 490,1238 c 48,120 -52,292 -180,311 l -1317,194 c -140,21 -305,-74 -357,-206 L 175,11308 c -8,-19 -12,-40 -13,-61 0,0 0,1 -1,1 0,0 -1,1 -2,2 -1,7 -2,17 -2,23 0,1 0,2 0,3 l 0,39 c 0,1 0,2 0,3 1,298 109,516 247,772 103,190 206,380 206,603 0,355 -217,788 -410,1078 -6,8 -20,30 -23,40 0,2 0,3 0,4 0,1 0,2 0,3 l 0,174 c 0,11 0,15 5,25 16,34 58,76 84,102 81,81 108,159 124,269 1,9 4,33 8,43 16,25 37,48 58,70 22,21 46,42 71,59 19,12 49,17 70,19 45,4 93,-2 137,-11 387,-79 759,-222 1100,-421 342,-200 650,-455 911,-753 23,-29 45,-62 60,-97 8,-17 16,-41 14,-61 -2,-30 -7,-61 -15,-91 -8,-29 -18,-58 -32,-85 -6,-8 -25,-23 -33,-29 -87,-68 -141,-130 -171,-241 -11,-42 -24,-82 -39,-124 -26,-73 -48,-136 -6,-209 42,-73 108,-85 185,-100 43,-8 85,-17 127,-28 110,-30 191,-14 294,27 9,4 31,14 41,15 30,-2 61,-8 90,-15 29,-8 59,-19 86,-32 18,-9 35,-28 46,-43 23,-31 40,-67 54,-102 128,-374 194,-768 196,-1164 2,-395 -60,-788 -185,-1163 -14,-43 -33,-87 -59,-124 -12,-18 -31,-42 -52,-51 -27,-14 -57,-25 -86,-33 -29,-7 -60,-13 -90,-15 -10,1 -32,11 -41,15 -103,41 -184,57 -294,27 -36,-10 -94,-25 -131,-22 -11,0 -15,3 -24,8 l -154,89 c -1,1 -2,1 -3,2 -7,7 -19,31 -23,40 -155,312 -421,717 -729,894 -193,111 -409,117 -625,123 -291,8 -535,24 -794,174 l -35,20 c -5,3 -15,9 -22,14 0,1 0,2 0,3 0,0 0,1 0,1 z"
         id="path4178"
         inkscape:connector-curvature="0"
         style="fill:#4a523a" /><path
         class="fil13"
         d="m 178,11372 c 13,267 115,472 243,708 105,194 209,386 209,613 0,359 -218,795 -414,1089 -5,8 -15,23 -19,33 0,1 0,2 0,3 l 0,174 c 0,7 -1,10 2,16 16,31 57,73 81,97 84,84 113,166 129,280 1,9 3,27 6,37 16,23 35,45 55,65 21,21 44,40 68,56 15,11 43,15 61,16 43,4 89,-2 131,-10 385,-79 755,-221 1094,-419 340,-199 646,-452 905,-749 23,-28 44,-59 58,-92 6,-14 14,-35 13,-51 -2,-30 -8,-59 -15,-88 -7,-27 -17,-54 -29,-79 -7,-8 -22,-18 -29,-24 -91,-71 -147,-137 -178,-251 -11,-42 -24,-82 -38,-123 -24,-67 -43,-125 -22,-188 -38,48 -90,84 -147,93 l -1317,194 c -149,22 -323,-79 -379,-219 L 178,11372 Z m 2352,1041 c 45,-50 105,-62 174,-75 42,-8 84,-17 126,-28 114,-31 199,-15 306,28 9,4 25,11 35,13 28,-2 57,-7 84,-14 28,-8 56,-18 83,-31 14,-7 29,-25 38,-37 22,-29 38,-63 51,-97 127,-372 193,-763 196,-1157 2,-393 -61,-784 -185,-1157 -13,-41 -32,-83 -56,-119 -10,-15 -28,-37 -44,-45 -27,-13 -55,-23 -83,-31 -27,-7 -56,-12 -84,-14 -10,2 -26,9 -35,13 -107,43 -192,59 -306,28 -33,-9 -91,-24 -125,-22 -7,1 -9,3 -15,6 l -154,89 c -6,9 -14,25 -18,33 -157,317 -426,723 -737,903 -196,113 -414,119 -635,125 -269,8 -497,22 -735,145 l 1257,-186 c 150,-22 324,79 379,219 l 490,1237 c 22,54 17,117 -7,174 z"
         id="path4180"
         inkscape:connector-curvature="0"
         style="fill:#3f3f3f" /></g><path
       class="fil2"
       d="m 0,11217 c -29,0 -39,35 -39,59 l 0,39 c 0,261 -76,476 -194,705 -48,93 -100,184 -147,279 -42,84 -80,173 -99,266 -8,42 -13,85 -13,128 0,329 211,744 390,1013 24,35 56,70 102,70 46,0 78,-35 102,-70 179,-269 390,-684 390,-1013 0,-43 -5,-86 -13,-128 -19,-93 -57,-182 -99,-266 -47,-95 -99,-186 -147,-279 -118,-229 -194,-444 -194,-705 l 0,-39 c 0,-24 -10,-59 -39,-59 z"
       id="path4182"
       inkscape:connector-curvature="0"
       style="fill:#e0c020" /><g
       id="_1138816112"><path
         class="fil3"
         d="m 0,11236 c -16,0 -20,28 -20,40 l 0,39 c 0,264 -76,482 -195,714 -48,93 -101,184 -147,278 -42,84 -79,171 -98,262 -8,41 -12,82 -12,124 0,325 209,736 387,1002 19,29 47,61 85,61 38,0 66,-32 85,-61 178,-266 387,-677 387,-1002 0,-42 -4,-83 -12,-124 -19,-91 -56,-178 -98,-262 -46,-94 -99,-185 -147,-278 C 96,11797 20,11579 20,11315 l 0,-39 c 0,-12 -4,-40 -20,-40 z"
         id="path4185"
         inkscape:connector-curvature="0"
         style="fill:#dab323" /><path
         class="fil4"
         d="m 0,11315 c 0,267 -77,489 -198,723 -48,93 -100,184 -147,278 -40,82 -77,167 -95,257 -8,40 -13,80 -13,120 0,320 209,729 384,991 15,23 39,52 69,52 30,0 54,-29 69,-52 175,-262 384,-671 384,-991 0,-40 -5,-80 -13,-120 -18,-90 -55,-175 -95,-257 -47,-94 -99,-185 -147,-278 C 77,11804 0,11582 0,11315 Z"
         id="path4187"
         inkscape:connector-curvature="0"
         style="fill:#d3a626" /><path
         class="fil5"
         d="m 0,11545 c -30,175 -94,335 -180,502 -48,93 -101,184 -147,278 -40,80 -76,164 -94,252 -8,38 -12,77 -12,116 0,316 208,721 380,980 11,16 31,44 53,44 22,0 42,-28 53,-44 172,-259 380,-664 380,-980 0,-39 -4,-78 -12,-116 -18,-88 -54,-172 -94,-252 -46,-94 -99,-185 -147,-278 C 94,11880 30,11720 0,11545 Z"
         id="path4189"
         inkscape:connector-curvature="0"
         style="fill:#cd9a2a" /><path
         class="fil6"
         d="m 0,11641 c -35,142 -91,276 -163,415 -48,93 -100,184 -147,278 -39,78 -74,161 -92,247 -7,37 -11,74 -11,112 0,311 207,714 377,969 6,9 24,35 36,35 12,0 30,-26 36,-35 170,-255 377,-658 377,-969 0,-38 -4,-75 -11,-112 -18,-86 -53,-169 -92,-247 -47,-94 -99,-185 -147,-278 C 91,11917 35,11783 0,11641 Z"
         id="path4191"
         inkscape:connector-curvature="0"
         style="fill:#c68d2d" /><path
         class="fil7"
         d="m 0,11716 c -35,118 -85,232 -145,349 -48,93 -100,184 -147,277 -38,77 -73,158 -90,243 -8,35 -12,72 -12,108 0,307 207,707 374,958 4,5 13,18 20,24 7,-6 16,-19 20,-24 167,-251 374,-651 374,-958 0,-36 -4,-72 -12,-108 -17,-85 -52,-166 -90,-243 -47,-93 -99,-184 -147,-277 C 85,11948 35,11834 0,11716 Z"
         id="path4193"
         inkscape:connector-curvature="0"
         style="fill:#c08030" /></g></g></svg>