<?xml version="1.0" encoding="UTF-8" standalone="no"?>
<!-- Creator: CorelDRAW X7 -->

<svg
   xmlns:dc="http://purl.org/dc/elements/1.1/"
   xmlns:cc="http://creativecommons.org/ns#"
   xmlns:rdf="http://www.w3.org/1999/02/22-rdf-syntax-ns#"
   xmlns:svg="http://www.w3.org/2000/svg"
   xmlns="http://www.w3.org/2000/svg"
   xmlns:sodipodi="http://sodipodi.sourceforge.net/DTD/sodipodi-0.dtd"
   xmlns:inkscape="http://www.inkscape.org/namespaces/inkscape"
   xml:space="preserve"
   width="7.8740005in"
   height="7.8740005in"
   version="1.1"
   style="clip-rule:evenodd;fill-rule:evenodd;image-rendering:optimizeQuality;shape-rendering:geometricPrecision;text-rendering:geometricPrecision"
   viewBox="0 0 7874.0005 7874.0005"
   id="svg2"
   inkscape:version="0.91 r13725"
   sodipodi:docname="tohaa_igao_unit.svg"><metadata
     id="metadata57"><rdf:RDF><cc:Work
         rdf:about=""><dc:format>image/svg+xml</dc:format><dc:type
           rdf:resource="http://purl.org/dc/dcmitype/StillImage" /></cc:Work></rdf:RDF></metadata><sodipodi:namedview
     pagecolor="#ffffff"
     bordercolor="#666666"
     borderopacity="1"
     objecttolerance="10"
     gridtolerance="10"
     guidetolerance="10"
     inkscape:pageopacity="0"
     inkscape:pageshadow="2"
     inkscape:window-width="640"
     inkscape:window-height="480"
     id="namedview55"
     showgrid="false"
     inkscape:zoom="0.23838384"
     inkscape:cx="736.83001"
     inkscape:cy="849.33005"
     inkscape:window-x="0"
     inkscape:window-y="0"
     inkscape:window-maximized="0"
     inkscape:current-layer="svg2" /><defs
     id="defs4"><style
       type="text/css"
       id="style6"><![CDATA[
    .str0 {stroke:aqua;stroke-width:39.3701}
    .str1 {stroke:black;stroke-width:3}
    .fil0 {fill:none}
    .fil2 {fill:black}
    .fil3 {fill:#3F3F3F}
    .fil4 {fill:#4A523A}
    .fil5 {fill:#546535}
    .fil6 {fill:#5F772F}
    .fil7 {fill:#698A2A}
    .fil8 {fill:#749D25}
    .fil1 {fill:white}
   ]]></style></defs><g
     id="Layer_x0020_1"
     transform="translate(3937,-7063)"><metadata
       id="CorelCorpID_0Corel-Layer" /><circle
       class="fil0 str0"
       cy="11000"
       r="2756"
       id="circle10"
       cx="0"
       style="fill:none;stroke:#00ffff;stroke-width:39.37009811" /><g
       id="_852131456"><circle
         class="fil1"
         cy="11000"
         r="3937"
         id="circle13"
         cx="0"
         style="fill:#ffffff" /><path
         class="fil2"
         d="m 325,7076 c 2022,165 3612,1859 3612,3924 0,602 -135,1172 -376,1681 -33,-69 -87,-130 -159,-172 -188,-108 -429,-44 -538,145 -109,188 -44,429 144,537 72,42 151,58 228,52 -711,1024 -1895,1694 -3236,1694 -1341,0 -2525,-670 -3236,-1694 77,6 156,-10 228,-52 188,-108 253,-349 144,-537 -109,-189 -350,-253 -538,-145 -72,42 -126,103 -159,172 -241,-509 -376,-1079 -376,-1681 0,-2065 1590,-3759 3612,-3924 -43,64 -69,141 -69,223 0,218 177,394 394,394 217,0 394,-176 394,-394 0,-82 -26,-159 -69,-223 z"
         id="path15"
         inkscape:connector-curvature="0"
         style="fill:#000000" /><circle
         class="fil1"
         cy="11000"
         r="3858"
         id="circle17"
         cx="0"
         style="fill:#ffffff" /></g><circle
       class="fil3 str1"
       cy="11000"
       r="3701"
       id="circle19"
       cx="0"
       style="fill:#3f3f3f;stroke:#000000;stroke-width:3" /><g
       id="_851301088"><path
         class="fil3"
         d="m 404,10774 3444,0 0,452 -3444,0 c -81,143 -234,237 -404,237 -170,0 -323,-94 -404,-237 l -3444,0 0,-452 3444,0 c 81,-143 234,-237 404,-237 170,0 323,94 404,237 z"
         id="path22"
         inkscape:connector-curvature="0"
         style="fill:#3f3f3f" /><path
         class="fil4"
         d="m 386,10803 3433,0 0,394 -3433,0 c -73,142 -221,236 -386,236 -165,0 -313,-94 -386,-236 l -3433,0 0,-394 3433,0 c 73,-142 221,-236 386,-236 165,0 313,94 386,236 z"
         id="path24"
         inkscape:connector-curvature="0"
         style="fill:#4a523a" /><path
         class="fil5"
         d="m 367,10833 3422,0 0,334 -3422,0 c -64,142 -207,237 -367,237 -160,0 -303,-95 -367,-237 l -3422,0 0,-334 3422,0 c 64,-142 207,-237 367,-237 160,0 303,95 367,237 z"
         id="path26"
         inkscape:connector-curvature="0"
         style="fill:#546535" /><path
         class="fil6"
         d="m 348,10862 3412,0 0,276 -3412,0 c -56,141 -193,236 -348,236 -155,0 -292,-95 -348,-236 l -3412,0 0,-276 3412,0 c 56,-141 193,-236 348,-236 155,0 292,95 348,236 z"
         id="path28"
         inkscape:connector-curvature="0"
         style="fill:#5f772f" /><path
         class="fil7"
         d="m 327,10892 3403,0 0,216 -3403,0 c -46,140 -178,236 -327,236 -149,0 -281,-96 -327,-236 l -3403,0 0,-216 3403,0 c 46,-140 178,-236 327,-236 149,0 281,96 327,236 z"
         id="path30"
         inkscape:connector-curvature="0"
         style="fill:#698a2a" /></g><path
       class="fil8"
       d="m 0,10685 c 147,0 270,100 305,236 l 3396,0 0,158 -3396,0 c -35,136 -158,236 -305,236 -147,0 -270,-100 -305,-236 l -3396,0 0,-158 3396,0 c 35,-136 158,-236 305,-236 z"
       id="path32"
       inkscape:connector-curvature="0"
       style="fill:#749d25" /><g
       id="_647484640"><g
         id="g35"><path
           class="fil3"
           d="m -2266,11555 c 101,415 315,793 617,1094 439,439 1028,684 1649,684 621,0 1210,-245 1649,-684 302,-301 516,-679 617,-1094 55,-226 286,-366 512,-310 226,55 366,285 311,511 -138,565 -430,1081 -841,1492 -598,598 -1402,931 -2248,931 -846,0 -1650,-333 -2248,-931 -411,-411 -703,-927 -841,-1492 -55,-226 85,-456 311,-511 226,-56 457,84 512,310 z m 5355,-1311 c 55,226 -85,456 -311,511 -226,56 -457,-84 -512,-310 C 2165,10030 1951,9652 1649,9351 1210,8912 621,8667 0,8667 c -621,0 -1210,245 -1649,684 -302,301 -516,679 -617,1094 -55,226 -286,366 -512,310 -226,-55 -366,-285 -311,-511 138,-565 430,-1081 841,-1492 598,-598 1402,-931 2248,-931 846,0 1650,333 2248,931 411,411 703,927 841,1492 z"
           id="path37"
           inkscape:connector-curvature="0"
           style="fill:#3f3f3f" /><path
           class="fil4"
           d="m -2295,11562 c 103,420 319,803 625,1108 444,445 1041,692 1670,692 629,0 1226,-247 1670,-692 306,-305 522,-688 625,-1108 51,-210 266,-340 476,-289 210,52 340,266 289,476 -137,560 -426,1071 -833,1478 -592,593 -1389,923 -2227,923 -838,0 -1635,-330 -2227,-923 -407,-407 -696,-918 -833,-1478 -51,-210 79,-424 289,-476 210,-51 425,79 476,289 z m 5355,-1311 c 51,210 -79,424 -289,476 -210,51 -425,-79 -476,-289 C 2192,10018 1976,9635 1670,9330 1226,8885 629,8638 0,8638 c -629,0 -1226,247 -1670,692 -306,305 -522,688 -625,1108 -51,210 -266,340 -476,289 -210,-52 -340,-266 -289,-476 137,-560 426,-1071 833,-1478 592,-593 1389,-923 2227,-923 838,0 1635,330 2227,923 407,407 696,918 833,1478 z"
           id="path39"
           inkscape:connector-curvature="0"
           style="fill:#4a523a" /><path
           class="fil5"
           d="m -2324,11569 c 104,425 324,813 633,1122 450,450 1054,701 1691,701 637,0 1241,-251 1691,-701 309,-309 529,-697 633,-1122 23,-94 81,-174 164,-224 83,-51 182,-66 276,-43 94,23 174,82 224,164 51,83 66,182 43,276 -135,555 -421,1061 -825,1464 -587,587 -1376,914 -2206,914 -830,0 -1619,-327 -2206,-914 -404,-403 -690,-909 -825,-1464 -23,-94 -8,-193 43,-276 50,-82 130,-141 224,-164 94,-23 193,-8 276,43 83,50 141,130 164,224 z m 5355,-1311 c 23,94 8,193 -43,276 -50,82 -130,141 -224,164 -94,23 -193,8 -276,-43 -83,-50 -141,-130 -164,-224 C 2220,10006 2000,9618 1691,9309 1241,8859 637,8608 0,8608 c -637,0 -1241,251 -1691,701 -309,309 -529,697 -633,1122 -23,94 -81,174 -164,224 -83,51 -182,66 -276,43 -94,-23 -174,-82 -224,-164 -51,-83 -66,-182 -43,-276 135,-555 421,-1061 825,-1464 587,-587 1376,-914 2206,-914 830,0 1619,327 2206,914 404,403 690,909 825,1464 z"
           id="path41"
           inkscape:connector-curvature="0"
           style="fill:#546535" /><path
           class="fil6"
           d="m -2352,11576 c 105,430 327,823 640,1136 455,456 1068,709 1712,709 644,0 1257,-253 1712,-709 313,-313 535,-706 640,-1136 21,-86 75,-160 151,-206 76,-47 167,-61 254,-39 86,21 160,75 206,150 47,77 61,168 40,254 -135,549 -418,1051 -818,1450 -581,582 -1363,906 -2185,906 -822,0 -1604,-324 -2185,-906 -400,-399 -683,-901 -818,-1450 -21,-86 -7,-177 40,-254 46,-75 120,-129 206,-150 87,-22 178,-8 254,39 76,46 130,120 151,206 z m 5355,-1311 c 21,86 7,177 -40,254 -46,75 -120,129 -206,150 -87,22 -178,8 -254,-39 -76,-46 -130,-120 -151,-206 C 2247,9994 2025,9601 1712,9288 1257,8832 644,8579 0,8579 c -644,0 -1257,253 -1712,709 -313,313 -535,706 -640,1136 -21,86 -75,160 -151,206 -76,47 -167,61 -254,39 -86,-21 -160,-75 -206,-150 -47,-77 -61,-168 -40,-254 135,-549 418,-1051 818,-1450 581,-582 1363,-906 2185,-906 822,0 1604,324 2185,906 400,399 683,901 818,1450 z"
           id="path43"
           inkscape:connector-curvature="0"
           style="fill:#5f772f" /><path
           class="fil7"
           d="m -2381,11583 c 106,436 331,833 648,1150 461,461 1081,718 1733,718 652,0 1272,-257 1733,-718 317,-317 542,-714 648,-1150 19,-79 68,-146 138,-188 69,-42 152,-55 231,-36 79,20 146,69 188,138 42,69 55,152 36,231 -133,544 -414,1041 -810,1436 -575,576 -1349,897 -2164,897 -815,0 -1589,-321 -2164,-897 -396,-395 -677,-892 -810,-1436 -19,-79 -6,-162 36,-231 42,-69 109,-118 188,-138 79,-19 162,-6 231,36 70,42 119,109 138,188 z m 5355,-1311 c 19,79 6,162 -36,231 -42,69 -109,118 -188,138 -79,19 -162,6 -231,-36 -70,-42 -119,-109 -138,-188 C 2275,9981 2050,9584 1733,9267 1272,8806 652,8549 0,8549 c -652,0 -1272,257 -1733,718 -317,317 -542,714 -648,1150 -19,79 -68,146 -138,188 -69,42 -152,55 -231,36 -79,-20 -146,-69 -188,-138 -42,-69 -55,-152 -36,-231 133,-544 414,-1041 810,-1436 575,-576 1349,-897 2164,-897 815,0 1589,321 2164,897 396,395 677,892 810,1436 z"
           id="path45"
           inkscape:connector-curvature="0"
           style="fill:#698a2a" /></g><path
         class="fil8"
         d="m -2410,11590 c -36,-148 -185,-238 -333,-202 -148,36 -238,185 -202,333 133,548 416,1037 801,1423 549,548 1307,887 2144,887 837,0 1595,-339 2144,-887 385,-386 668,-875 801,-1423 36,-148 -54,-297 -202,-333 -148,-36 -297,54 -333,202 -110,448 -341,848 -656,1164 -449,449 -1069,726 -1754,726 -685,0 -1305,-277 -1754,-726 -315,-316 -546,-716 -656,-1164 z m 5355,-1311 c 36,148 -54,297 -202,333 -148,36 -297,-54 -333,-202 C 2300,9962 2069,9562 1754,9246 1305,8797 685,8520 0,8520 c -685,0 -1305,277 -1754,726 -315,316 -546,716 -656,1164 -36,148 -185,238 -333,202 -148,-36 -238,-185 -202,-333 133,-548 416,-1037 801,-1423 549,-548 1307,-887 2144,-887 837,0 1595,339 2144,887 385,386 668,875 801,1423 z"
         id="path47"
         inkscape:connector-curvature="0"
         style="fill:#749d25" /><path
         class="fil1"
         d="m -2410,11590 c -36,-148 -185,-238 -333,-202 -148,36 -238,185 -202,333 133,548 416,1037 801,1423 549,548 1307,887 2144,887 837,0 1595,-339 2144,-887 385,-386 668,-875 801,-1423 36,-148 -54,-297 -202,-333 -148,-36 -297,54 -333,202 -110,448 -341,848 -656,1164 -449,449 -1069,726 -1754,726 -685,0 -1305,-277 -1754,-726 -315,-316 -546,-716 -656,-1164 z m 5355,-1311 c 36,148 -54,297 -202,333 -148,36 -297,-54 -333,-202 C 2300,9962 2069,9562 1754,9246 1305,8797 685,8520 0,8520 c -685,0 -1305,277 -1754,726 -315,316 -546,716 -656,1164 -36,148 -185,238 -333,202 -148,-36 -238,-185 -202,-333 133,-548 416,-1037 801,-1423 549,-548 1307,-887 2144,-887 837,0 1595,339 2144,887 385,386 668,875 801,1423 z"
         id="path49"
         inkscape:connector-curvature="0"
         style="fill:#ffffff" /></g><path
       class="fil2 str1"
       d="m 0,7299 c 2044,0 3701,1657 3701,3701 0,2044 -1657,3701 -3701,3701 -2044,0 -3701,-1657 -3701,-3701 0,-2044 1657,-3701 3701,-3701 z m 0,40 c 2022,0 3661,1639 3661,3661 0,2022 -1639,3661 -3661,3661 -2022,0 -3661,-1639 -3661,-3661 0,-2022 1639,-3661 3661,-3661 z"
       id="path51"
       inkscape:connector-curvature="0"
       style="fill:#000000;stroke:#000000;stroke-width:3" /><path
       class="fil1"
       d="m 3693,10765 155,9 10,226 -10,226 -155,9 c 3,-52 6,-104 7,-156 l -3395,0 c -35,136 -158,236 -305,236 -147,0 -270,-100 -305,-236 l -3395,0 c 1,52 4,104 7,156 l -155,-9 -10,-226 10,-226 155,-9 c -3,52 -6,104 -7,156 l 3395,0 c 35,-136 158,-236 305,-236 147,0 270,100 305,236 l 3395,0 c -1,-52 -4,-104 -7,-156 z"
       id="path53"
       inkscape:connector-curvature="0"
       style="fill:#ffffff" /></g></svg>