<?xml version="1.0" encoding="UTF-8" standalone="no"?>
<!-- Creator: CorelDRAW X7 -->

<svg
   xmlns:dc="http://purl.org/dc/elements/1.1/"
   xmlns:cc="http://creativecommons.org/ns#"
   xmlns:rdf="http://www.w3.org/1999/02/22-rdf-syntax-ns#"
   xmlns:svg="http://www.w3.org/2000/svg"
   xmlns="http://www.w3.org/2000/svg"
   xmlns:sodipodi="http://sodipodi.sourceforge.net/DTD/sodipodi-0.dtd"
   xmlns:inkscape="http://www.inkscape.org/namespaces/inkscape"
   xml:space="preserve"
   width="7.8740005in"
   height="7.8740005in"
   version="1.1"
   style="clip-rule:evenodd;fill-rule:evenodd;image-rendering:optimizeQuality;shape-rendering:geometricPrecision;text-rendering:geometricPrecision"
   viewBox="0 0 7874.0005 7874.0005"
   id="svg3768"
   inkscape:version="0.91 r13725"
   sodipodi:docname="Tohaa - Ectros Regiment - [N3] [Vyo].svg"><metadata
     id="metadata3847"><rdf:RDF><cc:Work
         rdf:about=""><dc:format>image/svg+xml</dc:format><dc:type
           rdf:resource="http://purl.org/dc/dcmitype/StillImage" /></cc:Work></rdf:RDF></metadata><sodipodi:namedview
     pagecolor="#ffffff"
     bordercolor="#666666"
     borderopacity="1"
     objecttolerance="10"
     gridtolerance="10"
     guidetolerance="10"
     inkscape:pageopacity="0"
     inkscape:pageshadow="2"
     inkscape:window-width="640"
     inkscape:window-height="480"
     id="namedview3845"
     showgrid="false"
     inkscape:zoom="0.23838384"
     inkscape:cx="736.83001"
     inkscape:cy="849.33005"
     inkscape:window-x="0"
     inkscape:window-y="0"
     inkscape:window-maximized="0"
     inkscape:current-layer="svg3768" /><defs
     id="defs3770"><style
       type="text/css"
       id="style3772"><![CDATA[
    .fil0 {fill:black}
    .fil14 {fill:#3F3F3F}
    .fil13 {fill:#4A523A}
    .fil12 {fill:#546535}
    .fil11 {fill:#5F772F}
    .fil10 {fill:#698A2A}
    .fil9 {fill:#749D25}
    .fil8 {fill:#80E010}
    .fil6 {fill:#86E613}
    .fil5 {fill:#8DEC16}
    .fil4 {fill:#93F31A}
    .fil3 {fill:#9AF91D}
    .fil2 {fill:#A0FF20}
    .fil1 {fill:white}
    .fil7 {fill:#80E010;fill-rule:nonzero}
   ]]></style></defs><g
     id="Layer_x0020_1"
     transform="translate(3937,-7063)"><metadata
       id="CorelCorpID_0Corel-Layer" /><circle
       class="fil0"
       cy="11000"
       r="3937"
       id="circle3776"
       cx="0"
       style="fill:#000000" /><circle
       class="fil1"
       cy="11000"
       r="3858"
       id="circle3778"
       cx="0"
       style="fill:#ffffff" /><g
       id="_778835008"><path
         class="fil2"
         d="m -256,10114 610,0 c 87,0 171,44 231,104 60,61 104,144 104,231 l 0,905 c 0,87 -44,171 -104,231 -60,60 -144,104 -231,104 l -668,0 c -11,1 -30,16 -37,23 -7,7 -22,26 -23,36 l 0,177 -276,0 0,-177 c 0,-87 44,-170 104,-231 61,-60 144,-104 231,-104 l 669,0 c 10,-1 29,-16 36,-23 7,-7 22,-26 23,-36 l 0,-905 c -1,-10 -16,-29 -23,-36 -7,-7 -26,-22 -36,-23 l -610,0 0,-276 z"
         id="path3781"
         inkscape:connector-curvature="0"
         style="fill:#a0ff20" /><path
         class="fil3"
         d="m -236,10134 590,0 c 82,0 160,41 217,98 57,57 98,135 98,217 l 0,905 c 0,82 -41,160 -98,217 -57,57 -135,98 -217,98 l -669,0 c -16,0 -39,19 -50,29 -10,11 -29,34 -29,50 l 0,158 -236,0 0,-158 c 0,-82 42,-160 98,-217 57,-56 136,-98 217,-98 l 669,0 c 16,0 40,-19 50,-29 10,-10 29,-34 29,-50 l 0,-905 c 0,-16 -19,-40 -29,-50 -10,-10 -34,-29 -50,-29 l -590,0 0,-236 z"
         id="path3783"
         inkscape:connector-curvature="0"
         style="fill:#9af91d" /><path
         class="fil4"
         d="m -217,10154 571,0 c 77,0 150,39 203,92 53,53 93,127 93,203 l 0,905 c 0,77 -40,150 -93,203 -53,53 -126,93 -203,93 l -669,0 c -22,0 -49,20 -64,34 -14,15 -34,42 -34,64 l 0,138 -197,0 0,-138 c 0,-76 39,-150 92,-203 53,-53 127,-92 203,-92 l 669,0 c 22,0 49,-20 64,-35 15,-15 35,-42 35,-64 l 0,-905 c 0,-22 -20,-49 -35,-64 -15,-14 -42,-35 -64,-35 l -571,0 0,-196 z"
         id="path3785"
         inkscape:connector-curvature="0"
         style="fill:#93f31a" /><path
         class="fil5"
         d="m -197,10173 551,0 c 71,0 140,38 189,87 49,49 87,118 87,189 l 0,905 c 0,71 -38,140 -87,189 -49,49 -118,87 -189,87 l -669,0 c -28,0 -59,22 -78,40 -18,19 -40,50 -40,78 l 0,118 -158,0 0,-118 c 0,-71 38,-140 87,-189 49,-49 118,-87 189,-87 l 669,0 c 28,0 59,-21 78,-40 19,-19 40,-50 40,-78 l 0,-905 c 0,-28 -21,-59 -40,-78 -19,-19 -50,-40 -78,-40 l -551,0 0,-158 z"
         id="path3787"
         inkscape:connector-curvature="0"
         style="fill:#8dec16" /><path
         class="fil6"
         d="m -177,10193 531,0 c 66,0 130,35 175,81 46,45 81,109 81,175 l 0,905 c 0,66 -35,130 -81,175 -45,46 -109,81 -175,81 l -669,0 c -34,0 -69,24 -91,47 -23,22 -47,57 -47,91 l 0,98 -118,0 0,-98 c 0,-66 36,-130 81,-175 46,-45 109,-81 175,-81 l 669,0 c 34,0 69,-23 92,-46 23,-23 46,-58 46,-92 l 0,-905 c 0,-34 -23,-69 -46,-92 -23,-23 -58,-46 -92,-46 l -531,0 0,-118 z"
         id="path3789"
         inkscape:connector-curvature="0"
         style="fill:#86e613" /></g><path
       class="fil7"
       d="m -157,10213 511,0 c 58,0 117,30 161,75 45,44 76,104 76,161 l 0,905 c 0,58 -31,117 -76,161 -44,45 -103,76 -161,76 l -669,0 c -35,0 -75,21 -105,52 -31,30 -52,70 -52,105 l 0,79 -79,0 0,-79 c 0,-57 31,-117 75,-161 44,-44 104,-75 161,-75 l 669,0 c 36,0 75,-21 106,-52 31,-31 52,-70 52,-106 l 0,-905 c 0,-36 -21,-75 -52,-106 -31,-30 -70,-52 -106,-52 l -511,0 0,-78 z"
       id="path3791"
       inkscape:connector-curvature="0"
       style="fill:#80e010;fill-rule:nonzero" /><g
       id="_778829440"><path
         class="fil2"
         d="m -118,10744 c 119,0 216,97 216,217 0,119 -97,216 -216,216 -120,0 -217,-97 -217,-216 0,-120 97,-217 217,-217 z"
         id="path3794"
         inkscape:connector-curvature="0"
         style="fill:#a0ff20" /><path
         class="fil3"
         d="m -118,10764 c 109,0 197,88 197,197 0,108 -88,196 -197,196 -109,0 -197,-88 -197,-196 0,-109 88,-197 197,-197 z"
         id="path3796"
         inkscape:connector-curvature="0"
         style="fill:#9af91d" /><path
         class="fil4"
         d="m -118,10783 c 98,0 177,80 177,178 0,97 -79,177 -177,177 -98,0 -177,-80 -177,-177 0,-98 79,-178 177,-178 z"
         id="path3798"
         inkscape:connector-curvature="0"
         style="fill:#93f31a" /><path
         class="fil5"
         d="m -118,10803 c 87,0 157,71 157,158 0,87 -70,157 -157,157 -87,0 -158,-70 -158,-157 0,-87 71,-158 158,-158 z"
         id="path3800"
         inkscape:connector-curvature="0"
         style="fill:#8dec16" /><path
         class="fil6"
         d="m -118,10823 c 76,0 138,62 138,138 0,76 -62,137 -138,137 -76,0 -138,-61 -138,-137 0,-76 62,-138 138,-138 z"
         id="path3802"
         inkscape:connector-curvature="0"
         style="fill:#86e613" /></g><circle
       class="fil8"
       cx="-118"
       cy="10961"
       r="118"
       id="circle3804"
       style="fill:#80e010" /><g
       id="_778836864"><path
         class="fil9"
         d="m 2554,12657 c 71,37 116,111 116,191 0,52 -19,101 -52,140 -624,819 -1586,1299 -2618,1299 -1031,0 -1993,-479 -2617,-1297 -34,-39 -53,-89 -53,-142 0,-80 45,-154 116,-191 300,-188 623,-347 958,-465 103,-37 208,-70 314,-97 51,-14 101,-25 151,-37 102,-23 126,-19 217,33 l 451,261 c 211,121 78,413 48,593 -14,88 107,271 157,339 52,71 110,141 172,204 17,17 56,56 86,79 30,-23 69,-62 86,-79 62,-63 120,-133 172,-204 50,-68 171,-251 157,-339 -14,-85 -39,-167 -56,-251 -18,-82 -28,-170 11,-247 21,-41 53,-73 93,-95 l 451,-261 c 90,-52 115,-56 217,-33 50,12 100,23 151,36 106,28 211,61 314,98 335,118 658,277 958,465 z"
         id="path3807"
         inkscape:connector-curvature="0"
         style="fill:#749d25" /><path
         class="fil10"
         d="m 2545,12674 c 64,34 105,101 105,174 0,48 -17,92 -47,128 -620,814 -1577,1292 -2603,1292 -1025,0 -1982,-477 -2601,-1290 -32,-36 -49,-82 -49,-130 0,-73 41,-140 105,-174 300,-188 622,-346 955,-464 103,-36 208,-69 313,-96 50,-14 100,-25 151,-36 96,-23 116,-20 202,30 l 452,261 c 197,113 66,404 38,573 -16,96 106,280 160,354 53,73 113,144 177,208 18,19 66,66 97,88 31,-22 79,-69 97,-88 64,-64 124,-135 177,-208 54,-74 176,-258 160,-354 -14,-86 -38,-168 -56,-252 -16,-77 -28,-162 9,-234 20,-38 49,-66 85,-87 l 452,-261 c 86,-50 106,-53 202,-30 51,11 101,22 151,36 105,27 210,60 313,96 333,118 655,276 955,464 z"
         id="path3809"
         inkscape:connector-curvature="0"
         style="fill:#698a2a" /><path
         class="fil11"
         d="m 2535,12691 c 58,30 95,91 95,157 0,43 -15,83 -43,116 -616,809 -1567,1284 -2587,1284 -1019,0 -1970,-474 -2586,-1283 -28,-32 -44,-74 -44,-117 0,-66 37,-126 95,-157 299,-187 619,-345 952,-462 102,-36 206,-69 311,-96 50,-14 100,-24 150,-36 92,-21 107,-19 188,28 l 452,261 c 26,15 48,36 65,62 62,99 20,249 -6,355 -11,45 -23,90 -31,136 -17,103 106,288 164,368 55,75 117,149 182,215 19,19 77,75 108,93 31,-18 89,-74 108,-93 65,-66 127,-140 182,-215 58,-80 181,-265 164,-368 -15,-86 -39,-168 -57,-253 -15,-72 -27,-153 8,-221 17,-34 44,-60 77,-79 l 452,-261 c 81,-47 96,-49 188,-28 50,11 100,22 150,36 105,27 209,59 311,96 332,117 653,275 952,462 z"
         id="path3811"
         inkscape:connector-curvature="0"
         style="fill:#5f772f" /><path
         class="fil12"
         d="m 2525,12708 c 52,27 85,81 85,140 0,39 -13,74 -38,103 -612,805 -1558,1277 -2572,1277 -1013,0 -1959,-471 -2571,-1275 -25,-29 -39,-66 -39,-105 0,-59 33,-113 85,-140 298,-186 617,-344 948,-461 102,-36 206,-68 310,-95 50,-13 99,-24 150,-36 86,-20 96,-19 173,26 l 452,261 c 24,13 43,32 58,55 58,93 17,241 -8,340 -11,45 -23,91 -31,138 -18,111 105,297 167,383 57,78 121,154 189,222 25,24 51,49 79,71 7,5 27,20 38,25 11,-5 31,-20 38,-25 28,-22 54,-47 79,-71 68,-68 132,-144 189,-222 62,-86 185,-272 167,-383 -14,-87 -39,-169 -57,-254 -14,-67 -26,-145 6,-208 16,-31 40,-54 70,-71 l 452,-261 c 77,-44 87,-46 173,-26 50,12 100,23 150,36 104,27 208,59 309,95 332,117 651,275 949,461 z"
         id="path3813"
         inkscape:connector-curvature="0"
         style="fill:#546535" /><path
         class="fil13"
         d="m 2515,12725 c 47,24 76,71 76,123 0,34 -12,66 -34,91 -609,800 -1549,1270 -2557,1270 -1007,0 -1947,-469 -2556,-1269 -22,-25 -35,-58 -35,-92 0,-52 29,-99 76,-123 296,-186 615,-343 945,-459 101,-36 204,-68 308,-95 50,-13 99,-24 149,-36 82,-19 87,-18 159,24 l 452,261 c 21,12 38,28 51,48 54,86 13,234 -10,325 -12,46 -24,93 -31,139 -20,119 104,307 170,398 59,82 127,161 199,232 25,25 53,50 81,72 7,5 33,23 42,23 9,0 35,-18 42,-23 28,-22 56,-47 81,-72 72,-71 140,-150 199,-232 66,-91 190,-279 170,-398 -14,-86 -38,-169 -56,-254 -13,-61 -26,-137 4,-195 14,-28 36,-48 62,-63 l 452,-261 c 72,-42 77,-43 159,-24 50,12 99,23 149,36 104,27 207,59 308,95 330,116 649,273 945,459 z"
         id="path3815"
         inkscape:connector-curvature="0"
         style="fill:#4a523a" /></g><path
       class="fil14"
       d="m 1108,12154 c -76,-17 -76,-17 -145,22 l -451,261 c -137,79 -40,256 0,492 39,236 -433,748 -512,748 -79,0 -551,-512 -512,-748 30,-181 137,-413 0,-492 l -452,-261 c -68,-39 -68,-39 -144,-22 -77,18 -671,133 -1398,588 -38,20 -65,60 -65,106 0,31 12,59 31,80 582,766 1503,1261 2540,1261 1037,0 1958,-495 2541,-1262 19,-22 30,-49 30,-79 0,-46 -27,-86 -65,-106 -727,-455 -1321,-570 -1398,-588 z"
       id="path3817"
       inkscape:connector-curvature="0"
       style="fill:#3f3f3f" /><g
       id="_778832512"><path
         class="fil9"
         d="m 158,7959 c -3,-79 39,-155 108,-195 45,-26 96,-34 147,-25 1021,130 1918,724 2434,1617 220,381 362,800 416,1237 52,420 22,847 -87,1256 -39,144 -87,285 -144,422 -17,49 -51,91 -97,117 -69,40 -155,38 -223,-4 -313,-167 -612,-367 -882,-597 -83,-72 -164,-146 -241,-224 -37,-37 -71,-75 -107,-113 -71,-76 -80,-99 -80,-204 l 0,-521 c 0,-243 319,-275 490,-338 84,-32 181,-228 215,-305 36,-81 67,-166 90,-251 7,-24 21,-77 26,-115 -35,-14 -88,-28 -112,-34 -85,-22 -174,-38 -262,-48 -84,-9 -303,-23 -372,34 -66,55 -125,117 -189,175 -62,55 -133,109 -220,113 -46,3 -89,-9 -129,-32 L 488,9663 c -91,-52 -106,-72 -137,-171 -15,-50 -30,-99 -44,-149 -29,-106 -53,-213 -73,-321 -65,-349 -89,-708 -76,-1063 z"
         id="path3820"
         inkscape:connector-curvature="0"
         style="fill:#749d25" /><path
         class="fil10"
         d="m 177,7959 c -2,-72 35,-141 99,-178 41,-24 88,-31 134,-23 1015,130 1907,720 2420,1608 218,379 359,795 413,1229 52,418 22,843 -86,1249 -39,143 -87,283 -144,420 -15,45 -46,83 -87,107 -64,36 -142,35 -204,-4 -312,-166 -610,-365 -879,-595 -83,-71 -163,-145 -240,-223 -37,-37 -71,-75 -107,-112 -67,-73 -75,-91 -75,-191 l 0,-521 c 0,-228 317,-260 478,-320 91,-34 189,-232 226,-315 37,-83 68,-171 92,-258 7,-25 24,-90 27,-128 -34,-16 -98,-34 -124,-40 -87,-23 -179,-40 -269,-49 -91,-10 -311,-24 -386,38 -67,55 -126,117 -191,175 -58,52 -126,104 -207,109 -42,2 -82,-9 -118,-30 L 497,9646 c -85,-50 -98,-65 -127,-160 -15,-50 -30,-98 -44,-149 -29,-105 -53,-211 -73,-319 -65,-347 -88,-705 -76,-1059 z"
         id="path3822"
         inkscape:connector-curvature="0"
         style="fill:#698a2a" /><path
         class="fil11"
         d="m 197,7959 c -3,-65 31,-128 89,-161 37,-21 79,-28 121,-20 1009,128 1896,715 2406,1598 217,376 357,790 411,1222 51,415 22,837 -86,1241 -38,142 -86,282 -143,418 -14,41 -42,75 -79,97 -58,33 -129,31 -184,-4 -311,-165 -609,-364 -876,-593 -83,-71 -163,-145 -239,-222 -37,-37 -71,-74 -106,-112 -64,-69 -70,-83 -70,-177 l 0,-521 c 0,-31 7,-60 21,-87 55,-104 206,-143 310,-173 45,-13 90,-25 134,-42 98,-36 197,-235 237,-325 38,-86 70,-176 95,-266 7,-26 27,-104 27,-139 -31,-18 -109,-40 -135,-47 -90,-24 -184,-41 -277,-51 -98,-10 -320,-24 -401,43 -67,55 -126,117 -191,175 -54,49 -119,100 -195,104 -38,2 -74,-8 -107,-27 L 507,9629 c -81,-47 -91,-59 -118,-149 -15,-49 -30,-98 -44,-148 -29,-104 -53,-211 -72,-317 -65,-347 -89,-703 -76,-1056 z"
         id="path3824"
         inkscape:connector-curvature="0"
         style="fill:#5f772f" /><path
         class="fil12"
         d="m 217,7959 c -3,-58 27,-114 78,-144 34,-19 72,-25 109,-18 1003,128 1885,711 2392,1589 216,374 355,785 408,1214 52,413 22,832 -85,1234 -38,142 -86,281 -143,416 -12,37 -37,67 -70,87 -51,29 -115,27 -164,-4 -310,-165 -607,-363 -874,-591 -82,-70 -161,-144 -237,-221 -36,-36 -71,-74 -106,-111 -60,-65 -64,-75 -64,-164 l 0,-521 c 0,-28 6,-54 19,-78 51,-97 200,-135 298,-163 45,-13 91,-26 135,-42 105,-40 205,-240 248,-336 39,-88 73,-182 98,-275 9,-34 17,-69 22,-104 1,-9 4,-34 3,-45 -10,-8 -33,-17 -41,-21 -33,-13 -67,-23 -101,-32 -93,-25 -191,-43 -287,-53 -105,-12 -328,-25 -415,47 -68,55 -127,118 -192,176 -50,45 -112,95 -183,98 -34,2 -67,-7 -96,-25 L 517,9612 c -77,-45 -83,-53 -109,-138 -15,-49 -30,-97 -44,-147 -29,-104 -52,-210 -72,-316 -64,-345 -88,-701 -75,-1052 z"
         id="path3826"
         inkscape:connector-curvature="0"
         style="fill:#546535" /><path
         class="fil13"
         d="m 236,7959 c -2,-52 24,-101 69,-127 29,-17 63,-22 96,-16 997,127 1874,707 2378,1580 214,371 353,780 406,1207 51,410 21,827 -85,1226 -38,141 -85,279 -142,414 -11,32 -33,60 -62,77 -45,26 -101,24 -144,-4 -309,-164 -605,-362 -871,-589 -81,-70 -161,-143 -236,-219 -36,-37 -70,-74 -105,-112 -58,-61 -59,-66 -59,-150 l 0,-521 c 0,-24 5,-47 16,-69 48,-90 196,-127 286,-153 46,-13 92,-26 137,-43 112,-42 214,-243 259,-346 41,-92 76,-191 101,-288 9,-35 17,-71 22,-106 1,-9 4,-41 -1,-49 -4,-7 -33,-21 -41,-24 -33,-14 -69,-25 -103,-35 -97,-27 -200,-45 -300,-56 -112,-12 -337,-25 -430,51 -68,56 -127,119 -192,177 -46,42 -106,90 -171,94 -31,1 -59,-7 -85,-23 L 527,9595 c -72,-42 -76,-46 -100,-126 -15,-49 -31,-98 -44,-147 -28,-104 -52,-209 -72,-314 -64,-345 -87,-699 -75,-1049 z"
         id="path3828"
         inkscape:connector-curvature="0"
         style="fill:#4a523a" /></g><path
       class="fil14"
       d="m 446,9463 c 22,75 22,75 91,115 l 451,260 c 137,79 242,-94 427,-246 185,-152 864,1 903,69 40,69 -167,734 -391,818 -172,64 -427,88 -427,246 l 0,521 c 0,79 0,79 54,137 54,57 450,514 1208,916 36,24 84,27 124,4 27,-16 45,-40 54,-67 372,-887 340,-1933 -178,-2830 C 2243,8508 1354,7957 398,7836 c -28,-6 -57,-2 -83,13 -40,23 -61,67 -59,110 -31,857 167,1429 190,1504 z"
       id="path3830"
       inkscape:connector-curvature="0"
       style="fill:#3f3f3f" /><g
       id="_778832032"><path
         class="fil9"
         d="m -2712,12384 c -68,42 -154,44 -223,4 -45,-26 -78,-67 -96,-115 -64,-152 -116,-309 -156,-469 -210,-830 -88,-1706 340,-2448 515,-892 1412,-1486 2432,-1617 51,-10 104,-1 149,25 69,40 111,116 108,195 13,355 -11,714 -76,1063 -20,108 -44,215 -73,321 -14,50 -29,99 -44,149 -31,99 -46,119 -136,171 l -452,261 c -32,18 -67,29 -104,30 -172,6 -313,-186 -434,-286 -69,-57 -288,-43 -372,-34 -88,10 -177,26 -262,48 -24,6 -77,20 -112,34 5,38 19,91 26,115 23,85 54,170 90,251 34,77 131,273 215,305 81,30 164,50 246,77 79,26 161,60 208,133 25,38 36,82 36,128 l 0,521 c 0,104 -9,128 -80,204 -35,38 -70,76 -107,113 -77,78 -158,152 -241,224 -270,230 -569,430 -882,597 z"
         id="path3833"
         inkscape:connector-curvature="0"
         style="fill:#749d25" /><path
         class="fil10"
         d="m -2722,12367 c -62,39 -140,40 -204,4 -40,-24 -71,-61 -87,-105 -63,-151 -115,-307 -155,-466 -209,-826 -88,-1696 338,-2434 512,-887 1404,-1478 2418,-1608 47,-9 95,-1 136,23 63,37 101,106 99,178 12,354 -11,712 -76,1059 -20,107 -44,214 -73,319 -14,51 -29,99 -44,149 -29,95 -41,110 -127,160 l -452,261 c -197,113 -383,-145 -516,-254 -75,-62 -295,-48 -386,-38 -90,9 -182,26 -269,49 -26,6 -90,24 -124,40 3,38 20,103 27,128 24,87 55,175 92,258 37,83 135,281 226,315 81,30 165,50 247,77 74,25 153,57 197,126 23,35 34,75 34,117 l 0,521 c 0,99 -8,118 -75,190 -36,38 -70,76 -107,113 -76,78 -157,152 -240,223 -269,230 -567,429 -879,595 z"
         id="path3835"
         inkscape:connector-curvature="0"
         style="fill:#698a2a" /><path
         class="fil11"
         d="m -2732,12350 c -55,35 -126,37 -184,4 -37,-22 -64,-55 -78,-95 -63,-151 -115,-306 -155,-464 -207,-821 -87,-1686 336,-2419 509,-882 1396,-1469 2404,-1598 42,-9 86,-1 123,20 58,33 92,96 89,161 13,352 -11,709 -75,1056 -20,106 -44,212 -73,317 -14,50 -29,99 -44,148 -27,90 -37,102 -118,149 l -452,261 c -26,15 -55,24 -86,25 -117,4 -226,-107 -305,-182 -33,-33 -66,-66 -102,-95 -81,-67 -303,-53 -401,-43 -93,10 -187,27 -277,51 -26,7 -104,29 -135,47 0,35 20,113 27,139 25,90 57,180 95,266 40,90 139,289 237,325 82,31 165,51 248,78 69,23 146,54 187,117 21,32 30,69 30,107 l 0,521 c 0,94 -6,108 -70,177 -35,38 -69,75 -106,112 -76,77 -156,151 -239,222 -267,229 -565,427 -876,593 z"
         id="path3837"
         inkscape:connector-curvature="0"
         style="fill:#5f772f" /><path
         class="fil12"
         d="m -2742,12333 c -49,31 -113,33 -164,4 -33,-20 -57,-49 -70,-85 -63,-150 -114,-305 -154,-462 -100,-395 -124,-809 -71,-1213 55,-420 193,-824 405,-1191 507,-877 1388,-1461 2390,-1589 38,-7 77,-1 111,18 51,30 81,86 78,144 13,351 -10,707 -75,1052 -20,106 -43,212 -72,316 -14,50 -29,98 -44,147 -26,85 -32,93 -109,138 l -452,260 c -23,14 -49,22 -77,23 -109,4 -217,-106 -290,-177 -34,-32 -68,-66 -104,-95 -87,-72 -310,-59 -415,-47 -96,10 -194,28 -287,53 -34,9 -68,19 -101,32 -8,4 -31,13 -41,21 -1,11 2,36 3,45 5,35 13,70 22,104 25,93 59,187 98,275 43,96 143,296 248,336 82,30 166,51 249,78 64,21 138,50 176,109 19,29 27,61 27,96 l 0,521 c 0,89 -3,99 -64,164 -35,37 -69,75 -106,111 -76,77 -155,150 -237,221 -267,228 -563,426 -874,591 z"
         id="path3839"
         inkscape:connector-curvature="0"
         style="fill:#546535" /><path
         class="fil13"
         d="m -2752,12316 c -43,28 -99,30 -144,4 -29,-17 -50,-44 -62,-75 -62,-149 -113,-303 -153,-460 -99,-393 -124,-804 -71,-1205 55,-418 193,-819 403,-1184 504,-872 1380,-1453 2377,-1579 33,-7 67,-2 97,15 45,26 71,75 69,127 12,350 -11,704 -75,1048 -20,106 -43,211 -72,315 -13,49 -29,98 -44,147 -24,80 -27,84 -100,126 l -452,260 c -20,12 -43,19 -67,20 -102,4 -208,-105 -276,-171 -34,-33 -69,-66 -105,-97 -93,-76 -318,-63 -430,-51 -100,11 -203,29 -300,56 -34,10 -70,21 -103,35 -8,3 -37,17 -41,24 -5,8 -2,40 -1,49 5,35 13,71 22,106 25,97 60,196 101,288 45,103 147,304 259,346 83,31 166,51 249,79 60,19 132,46 167,101 17,25 23,54 23,85 l 0,521 c 0,84 -1,89 -58,150 -36,38 -70,75 -106,111 -75,77 -154,150 -236,220 -266,227 -561,425 -871,589 z"
         id="path3841"
         inkscape:connector-curvature="0"
         style="fill:#4a523a" /></g><path
       class="fil14"
       d="m -1554,11383 c 54,-58 54,-58 54,-137 l 0,-521 c 0,-158 -202,-162 -427,-246 -224,-84 -431,-749 -391,-818 39,-68 718,-221 903,-69 142,117 290,325 427,246 l 451,-260 c 69,-40 69,-40 92,-115 22,-75 220,-647 189,-1504 2,-43 -19,-87 -59,-110 -27,-15 -56,-19 -84,-13 -955,121 -1844,672 -2363,1570 -518,897 -550,1943 -177,2832 9,27 27,50 53,65 40,23 88,20 124,-4 758,-402 1154,-859 1208,-916 z"
       id="path3843"
       inkscape:connector-curvature="0"
       style="fill:#3f3f3f" /></g></svg>