<?xml version="1.0" encoding="UTF-8" standalone="no"?>
<!-- Creator: CorelDRAW X7 -->

<svg
   xmlns:dc="http://purl.org/dc/elements/1.1/"
   xmlns:cc="http://creativecommons.org/ns#"
   xmlns:rdf="http://www.w3.org/1999/02/22-rdf-syntax-ns#"
   xmlns:svg="http://www.w3.org/2000/svg"
   xmlns="http://www.w3.org/2000/svg"
   xmlns:sodipodi="http://sodipodi.sourceforge.net/DTD/sodipodi-0.dtd"
   xmlns:inkscape="http://www.inkscape.org/namespaces/inkscape"
   xml:space="preserve"
   width="7.8740005in"
   height="7.8740005in"
   version="1.1"
   style="clip-rule:evenodd;fill-rule:evenodd;image-rendering:optimizeQuality;shape-rendering:geometricPrecision;text-rendering:geometricPrecision"
   viewBox="0 0 7874.0005 7874.0005"
   id="svg4513"
   inkscape:version="0.91 r13725"
   sodipodi:docname="Tohaa - Makaul Troops - [N3] [Vyo].svg"><metadata
     id="metadata4540"><rdf:RDF><cc:Work
         rdf:about=""><dc:format>image/svg+xml</dc:format><dc:type
           rdf:resource="http://purl.org/dc/dcmitype/StillImage" /></cc:Work></rdf:RDF></metadata><sodipodi:namedview
     pagecolor="#ffffff"
     bordercolor="#666666"
     borderopacity="1"
     objecttolerance="10"
     gridtolerance="10"
     guidetolerance="10"
     inkscape:pageopacity="0"
     inkscape:pageshadow="2"
     inkscape:window-width="640"
     inkscape:window-height="480"
     id="namedview4538"
     showgrid="false"
     inkscape:zoom="0.23838384"
     inkscape:cx="736.83001"
     inkscape:cy="849.33005"
     inkscape:window-x="0"
     inkscape:window-y="0"
     inkscape:window-maximized="0"
     inkscape:current-layer="svg4513" /><defs
     id="defs4515"><style
       type="text/css"
       id="style4517"><![CDATA[
    .fil0 {fill:black}
    .fil7 {fill:#3F3F3F}
    .fil6 {fill:#4A523A}
    .fil5 {fill:#546535}
    .fil4 {fill:#5F772F}
    .fil3 {fill:#698A2A}
    .fil2 {fill:#749D25}
    .fil1 {fill:white}
   ]]></style></defs><g
     id="Layer_x0020_1"
     transform="translate(3937,-7063)"><metadata
       id="CorelCorpID_0Corel-Layer" /><circle
       class="fil0"
       cy="11000"
       r="3937"
       id="circle4521"
       cx="0"
       style="fill:#000000" /><circle
       class="fil1"
       cy="11000"
       r="3858"
       id="circle4523"
       cx="0"
       style="fill:#ffffff" /><path
       class="fil2"
       d="m -205,14071 -1160,-2010 -733,423 c -113,65 -258,26 -323,-86 -65,-113 -26,-258 87,-323 l 733,-423 -1161,-2010 c -42,-74 -43,-157 -3,-231 l 0,0 c 1,-2 2,-4 3,-5 1,-2 2,-4 3,-5 l 0,-1 c 44,-72 117,-113 202,-113 l 2321,0 0,-846 c 0,-130 106,-236 236,-236 130,0 236,106 236,236 l 0,846 2321,0 c 85,0 158,41 202,113 l 0,1 c 1,1 2,3 3,5 1,1 2,3 3,5 l 0,0 c 40,74 39,157 -3,231 l -1161,2010 733,423 c 113,65 152,210 87,323 -65,112 -210,151 -323,86 l -733,-423 -1160,2010 c -43,73 -115,116 -199,118 l 0,0 c -2,0 -4,0 -6,0 -2,0 -4,0 -6,0 l 0,0 c -84,-2 -156,-45 -199,-118 z m -1471,-4311 1440,831 0,-831 -1440,0 z m 2148,1240 720,416 720,-1247 -1440,831 z m 484,825 -720,-416 0,1662 720,-1246 z m -1428,-825 -1440,-831 720,1247 720,-416 z m 236,409 -720,416 720,1246 0,-1662 z m 472,-818 1440,-831 -1440,0 0,831 z"
       id="path4525"
       inkscape:connector-curvature="0"
       style="fill:#749d25" /><g
       id="_778835008"><path
         class="fil3"
         d="m -188,14061 c 39,67 105,106 182,108 2,0 4,0 6,0 2,0 4,0 6,0 77,-2 143,-41 182,-108 l 1170,-2027 750,433 c 103,60 236,24 296,-79 59,-103 24,-236 -80,-296 l -750,-433 1171,-2027 c 38,-67 40,-144 3,-212 l -1,0 c -1,-1 -1,-3 -2,-5 -1,-1 -2,-3 -3,-4 l 0,-1 c -41,-66 -107,-103 -185,-103 l -2340,0 0,-866 c 0,-119 -98,-217 -217,-217 -119,0 -217,98 -217,217 l 0,866 -2340,0 c -78,0 -144,37 -185,103 l 0,1 c -1,1 -2,3 -3,4 -1,2 -1,4 -2,5 l -1,0 c -37,68 -35,145 3,212 l 1171,2027 -750,433 c -104,60 -139,193 -80,296 60,103 193,139 296,79 l 750,-433 1170,2027 z m -1561,-4321 1532,0 0,885 -1532,-885 z m 2182,1260 1533,-885 -767,1327 -766,-442 z m 550,817 -766,1328 0,-1770 766,442 z m -1416,-817 -766,442 -767,-1327 1533,885 z m 216,375 0,1770 -766,-1328 766,-442 z m 434,-750 0,-885 1532,0 -1532,885 z"
         id="path4528"
         inkscape:connector-curvature="0"
         style="fill:#698a2a" /><path
         class="fil4"
         d="m -170,14051 c 35,61 94,97 165,99 2,0 3,0 5,0 2,0 3,0 5,0 71,-2 130,-38 165,-99 l 1181,-2044 767,443 c 94,54 215,22 269,-72 54,-94 21,-215 -72,-269 l -768,-443 1181,-2044 c 35,-61 36,-130 2,-192 l 0,0 c -1,-2 -2,-3 -2,-5 -1,-1 -2,-3 -3,-4 l 0,0 c -37,-61 -97,-94 -168,-94 l -2360,0 0,-886 c 0,-108 -89,-197 -197,-197 -108,0 -197,89 -197,197 l 0,886 -2360,0 c -71,0 -131,33 -168,94 l 0,0 c -1,1 -2,3 -3,4 0,2 -1,3 -2,5 l 0,0 c -34,62 -33,131 2,192 l 1181,2044 -768,443 c -93,54 -126,175 -72,269 54,94 175,126 269,72 l 767,-443 1181,2044 z m -1653,-4331 1626,0 0,939 -1626,-939 z m 2217,1280 1625,-939 -812,1408 -813,-469 z m 616,810 -813,1408 0,-1877 813,469 z m -1404,-810 -813,469 -812,-1408 1625,939 z m 197,341 0,1877 -813,-1408 813,-469 z m 394,-682 0,-939 1626,0 -1626,939 z"
         id="path4530"
         inkscape:connector-curvature="0"
         style="fill:#5f772f" /><path
         class="fil5"
         d="m -153,14041 c 31,56 84,87 148,89 2,0 3,0 5,0 2,0 3,0 5,0 64,-2 117,-33 148,-89 l 1190,-2061 785,453 c 84,49 193,19 242,-65 48,-84 19,-193 -65,-242 l -784,-453 1190,-2061 c 31,-55 33,-117 2,-173 l 0,0 c -1,-1 -2,-3 -2,-4 -1,-1 -2,-2 -3,-4 l 0,0 c -33,-55 -87,-85 -151,-85 l -2380,0 0,-905 c 0,-98 -79,-177 -177,-177 -98,0 -177,79 -177,177 l 0,905 -2380,0 c -64,0 -118,30 -151,85 l 0,0 c -1,2 -2,3 -3,4 0,1 -1,3 -2,4 l 0,0 c -31,56 -29,118 2,173 l 1190,2061 -784,453 c -84,49 -113,158 -65,242 49,84 158,114 242,65 l 785,-453 1190,2061 z m -1743,-4340 1719,0 0,992 -1719,-992 z m 2250,1299 1719,-992 -859,1488 -860,-496 z m 683,803 -860,1489 0,-1985 860,496 z m -1391,-803 -860,496 -859,-1488 1719,992 z m 177,307 0,1985 -860,-1489 860,-496 z m 354,-614 0,-992 1719,0 -1719,992 z"
         id="path4532"
         inkscape:connector-curvature="0"
         style="fill:#546535" /><path
         class="fil6"
         d="m -136,14031 c 28,50 75,78 132,79 1,0 3,0 4,0 1,0 3,0 4,0 57,-1 104,-29 132,-79 l 1200,-2078 801,463 c 75,43 172,17 216,-58 43,-75 17,-172 -58,-215 l -801,-462 1200,-2079 c 28,-49 29,-103 2,-153 l 0,0 c -1,-2 -2,-3 -2,-4 -1,-1 -2,-2 -2,-3 l -1,-1 c -29,-48 -77,-75 -134,-75 l -2400,0 0,-925 c 0,-87 -70,-158 -157,-158 -87,0 -157,71 -157,158 l 0,925 -2400,0 c -57,0 -105,27 -134,75 l -1,1 c 0,1 -1,2 -2,3 0,1 -1,2 -2,4 l 0,0 c -27,50 -26,104 2,153 l 1200,2079 -801,462 c -75,43 -101,140 -58,215 44,75 141,101 216,58 l 801,-463 1200,2078 z m -1833,-4350 1812,0 0,1046 -1812,-1046 z m 2284,1319 1812,-1046 -906,1569 -906,-523 z m 748,796 -906,1569 0,-2092 906,523 z m -1378,-796 -906,523 -906,-1569 1812,1046 z m 158,273 0,2092 -906,-1569 906,-523 z m 314,-546 0,-1046 1812,0 -1812,1046 z"
         id="path4534"
         inkscape:connector-curvature="0"
         style="fill:#4a523a" /><path
         class="fil7"
         d="m -119,14022 c 25,43 65,67 115,69 1,0 3,0 4,0 1,0 3,0 4,0 50,-2 90,-26 115,-69 l 1210,-2096 818,473 c 66,38 151,15 189,-51 37,-65 15,-150 -51,-188 l -818,-472 1209,-2095 c 25,-44 27,-91 3,-135 l -1,0 c 0,-1 -1,-2 -1,-3 -1,-1 -2,-2 -2,-3 l -1,-1 c -26,-42 -67,-65 -117,-65 l -2419,0 0,-945 c 0,-76 -62,-138 -138,-138 -76,0 -138,62 -138,138 l 0,945 -2419,0 c -50,0 -91,23 -117,65 l -1,1 c 0,1 -1,2 -2,3 0,1 -1,2 -1,3 l -1,0 c -24,44 -22,91 3,135 l 1209,2095 -818,472 c -66,38 -88,123 -51,188 38,66 123,89 189,51 l 818,-473 1210,2096 z m -1924,-4361 1905,0 0,1100 -1905,-1100 z m 2319,1339 1905,-1100 -953,1650 -952,-550 z m 814,789 -952,1649 0,-2199 952,550 z m -1366,-789 -952,550 -953,-1650 1905,1100 z m 138,239 0,2199 -952,-1649 952,-550 z m 276,-478 0,-1100 1905,0 -1905,1100 z"
         id="path4536"
         inkscape:connector-curvature="0"
         style="fill:#3f3f3f" /></g></g></svg>