<?xml version="1.0" encoding="UTF-8" standalone="no"?>
<!-- Creator: CorelDRAW X7 -->

<svg
   xmlns:dc="http://purl.org/dc/elements/1.1/"
   xmlns:cc="http://creativecommons.org/ns#"
   xmlns:rdf="http://www.w3.org/1999/02/22-rdf-syntax-ns#"
   xmlns:svg="http://www.w3.org/2000/svg"
   xmlns="http://www.w3.org/2000/svg"
   xmlns:sodipodi="http://sodipodi.sourceforge.net/DTD/sodipodi-0.dtd"
   xmlns:inkscape="http://www.inkscape.org/namespaces/inkscape"
   xml:space="preserve"
   width="7.8740005in"
   height="7.8740005in"
   version="1.1"
   style="clip-rule:evenodd;fill-rule:evenodd;image-rendering:optimizeQuality;shape-rendering:geometricPrecision;text-rendering:geometricPrecision"
   viewBox="0 0 7874.0005 7874.0005"
   id="svg4336"
   inkscape:version="0.91 r13725"
   sodipodi:docname="Yu Jing - Shang Ji Invincibles - [N3] [Vyo].svg"><metadata
     id="metadata4361"><rdf:RDF><cc:Work
         rdf:about=""><dc:format>image/svg+xml</dc:format><dc:type
           rdf:resource="http://purl.org/dc/dcmitype/StillImage" /></cc:Work></rdf:RDF></metadata><sodipodi:namedview
     pagecolor="#ffffff"
     bordercolor="#666666"
     borderopacity="1"
     objecttolerance="10"
     gridtolerance="10"
     guidetolerance="10"
     inkscape:pageopacity="0"
     inkscape:pageshadow="2"
     inkscape:window-width="640"
     inkscape:window-height="480"
     id="namedview4359"
     showgrid="false"
     inkscape:zoom="0.23838384"
     inkscape:cx="736.83001"
     inkscape:cy="849.33005"
     inkscape:window-x="0"
     inkscape:window-y="0"
     inkscape:window-maximized="0"
     inkscape:current-layer="svg4336" /><defs
     id="defs4338"><style
       type="text/css"
       id="style4340"><![CDATA[
    .fil1 {fill:black}
    .fil0 {fill:yellow}
   ]]></style></defs><g
     id="Layer_x0020_1"
     transform="translate(3937,-7063)"><metadata
       id="CorelCorpID_0Corel-Layer" /><g
       id="_868159936"><circle
         class="fil0"
         cy="11000"
         r="3937"
         id="circle4345"
         cx="0"
         style="fill:#ffff00" /><circle
         class="fil1"
         cy="11000"
         r="3819"
         id="circle4347"
         cx="0"
         style="fill:#000000" /><path
         class="fil0"
         d="m -482,10498 c -888,20 -1235,859 -1235,1582 0,1132 984,1602 2006,1602 1930,0 2933,-1659 2933,-2875 0,-887 -560,-1678 -1293,-1968 579,656 783,1225 791,1775 19,1351 -1100,2334 -2218,2334 -811,0 -1447,-636 -1447,-1359 0,-550 212,-878 463,-1091 z"
         id="path4349"
         inkscape:connector-curvature="0"
         style="fill:#ffff00" /><path
         class="fil0"
         d="m -1891,8897 c 927,-315 1959,-259 2759,135 816,402 1390,1157 1312,2238 413,-939 -63,-2065 -1003,-2624 -714,-424 -2026,-540 -3068,251 z"
         id="path4351"
         inkscape:connector-curvature="0"
         style="fill:#ffff00" /><path
         class="fil0"
         d="m -1852,10846 c 559,-811 1640,-1235 2643,-926 l -135,347 505,160 247,-797 C 193,9167 -1312,9437 -1852,10846 Z"
         id="path4353"
         inkscape:connector-curvature="0"
         style="fill:#ffff00" /><path
         class="fil0"
         d="m -3202,11617 c 270,-482 578,-752 829,-810 232,-733 733,-1331 1331,-1640 -1080,97 -1987,1119 -2160,2450 z"
         id="path4355"
         inkscape:connector-curvature="0"
         style="fill:#ffff00" /><polygon
         class="fil0"
         points="836,11700 984,12153 598,11873 213,12153 360,11700 -26,11419 451,11419 598,10966 745,11419 1222,11419 "
         id="polygon4357"
         style="fill:#ffff00" /></g></g></svg>