<?xml version="1.0" encoding="UTF-8" standalone="no"?>
<!-- Creator: CorelDRAW X7 -->

<svg
   xmlns:dc="http://purl.org/dc/elements/1.1/"
   xmlns:cc="http://creativecommons.org/ns#"
   xmlns:rdf="http://www.w3.org/1999/02/22-rdf-syntax-ns#"
   xmlns:svg="http://www.w3.org/2000/svg"
   xmlns="http://www.w3.org/2000/svg"
   xmlns:sodipodi="http://sodipodi.sourceforge.net/DTD/sodipodi-0.dtd"
   xmlns:inkscape="http://www.inkscape.org/namespaces/inkscape"
   xml:space="preserve"
   width="7.8740005in"
   height="7.8740005in"
   version="1.1"
   style="clip-rule:evenodd;fill-rule:evenodd;image-rendering:optimizeQuality;shape-rendering:geometricPrecision;text-rendering:geometricPrecision"
   viewBox="0 0 7874.0005 7874.0005"
   id="svg4182"
   inkscape:version="0.91 r13725"
   sodipodi:docname="Yu Jing - Remote 2 Husong Yaokong - [N3] [Vyo].svg"><metadata
     id="metadata4233"><rdf:RDF><cc:Work
         rdf:about=""><dc:format>image/svg+xml</dc:format><dc:type
           rdf:resource="http://purl.org/dc/dcmitype/StillImage" /></cc:Work></rdf:RDF></metadata><sodipodi:namedview
     pagecolor="#ffffff"
     bordercolor="#666666"
     borderopacity="1"
     objecttolerance="10"
     gridtolerance="10"
     guidetolerance="10"
     inkscape:pageopacity="0"
     inkscape:pageshadow="2"
     inkscape:window-width="640"
     inkscape:window-height="480"
     id="namedview4231"
     showgrid="false"
     inkscape:zoom="0.23838384"
     inkscape:cx="736.83001"
     inkscape:cy="849.33005"
     inkscape:window-x="0"
     inkscape:window-y="0"
     inkscape:window-maximized="0"
     inkscape:current-layer="svg4182" /><defs
     id="defs4184"><style
       type="text/css"
       id="style4186"><![CDATA[
    .fil2 {fill:none}
    .fil0 {fill:#E2001A}
    .fil1 {fill:white}
    .fil4 {fill:#E2001A;fill-rule:nonzero}
    .fil3 {fill:white;fill-rule:nonzero}
   ]]></style></defs><g
     id="Layer_x0020_1"
     transform="translate(3937,-7063)"><metadata
       id="CorelCorpID_0Corel-Layer" /><circle
       class="fil0"
       cy="11000"
       r="3937"
       id="circle4190"
       cx="0"
       style="fill:#e2001a" /><circle
       class="fil1"
       cy="11000"
       r="3819"
       id="circle4192"
       cx="0"
       style="fill:#ffffff" /><path
       class="fil0"
       d="M 0,8677 1850,11000 0,13323 -1850,11000 0,8677 Z M 0,8804 -1750,11000 0,13196 0,8804 Z"
       id="path4194"
       inkscape:connector-curvature="0"
       style="fill:#e2001a" /><circle
       class="fil2"
       cy="11000"
       r="3898"
       id="circle4196"
       cx="0"
       style="fill:none" /><path
       class="fil0"
       d="m -2659,8563 c 25,-28 54,-2 28,26 -491,576 -752,1276 -823,1976 l -184,-184 c 130,-669 466,-1295 979,-1818 z m 227,209 c -510,515 -846,1167 -936,1879 l 94,94 122,-123 c 64,-662 317,-1316 749,-1824 25,-29 -2,-53 -29,-26 z m -883,2096 c -2,44 -2,88 -2,132 0,145 9,289 27,429 l -407,-218 c -4,-70 -6,-140 -6,-211 0,-166 11,-329 32,-489 l 356,357 z m 47,703 c 35,205 89,403 161,593 l -448,-122 c -65,-224 -110,-456 -132,-695 l 419,224 z m 214,728 c 116,270 266,522 445,750 l -476,0 c -179,-270 -324,-564 -429,-876 l 460,126 z m 540,866 c 54,62 110,122 168,181 215,215 459,400 726,550 l -537,114 c -164,-118 -319,-249 -462,-391 -140,-141 -269,-293 -386,-454 l 491,0 z m -284,-2733 c -21,105 -37,213 -46,323 l -374,624 c -15,-125 -22,-251 -22,-379 0,-43 1,-86 2,-128 l 440,-440 z m -57,564 c 0,125 8,250 24,373 l -219,727 c -62,-173 -110,-352 -142,-537 l 337,-563 z m 68,626 c 49,217 121,424 216,619 l 1,732 c -166,-215 -304,-451 -412,-703 l 195,-648 z m 331,834 c 122,205 269,394 438,562 94,95 196,184 303,264 l 140,550 c -264,-147 -505,-329 -716,-541 -57,-56 -112,-115 -164,-176 l -1,-659 z m -321,-2209 c 102,-438 291,-873 601,-1241 25,-29 -1,-53 -28,-26 -435,437 -721,961 -829,1524 l 256,-257 z"
       id="path4198"
       inkscape:connector-curvature="0"
       style="fill:#e2001a" /><path
       class="fil0"
       d="m 2659,8563 c -25,-28 -54,-2 -28,26 491,576 752,1276 823,1976 l 184,-184 C 3508,9712 3172,9086 2659,8563 Z m -227,209 c 510,515 846,1167 936,1879 l -94,94 -122,-123 c -64,-662 -317,-1316 -749,-1824 -25,-29 2,-53 29,-26 z m 883,2096 c 2,44 2,88 2,132 0,145 -9,289 -27,429 l 407,-218 c 4,-70 6,-140 6,-211 0,-166 -11,-329 -32,-489 l -356,357 z m -47,703 c -35,205 -89,403 -161,593 l 448,-122 c 65,-224 110,-456 132,-695 l -419,224 z m -214,728 c -116,270 -266,522 -445,750 l 476,0 c 179,-270 324,-564 429,-876 l -460,126 z m -540,866 c -54,62 -110,122 -168,181 -215,215 -459,400 -726,550 l 537,114 c 164,-118 319,-249 462,-391 140,-141 269,-293 386,-454 l -491,0 z m 284,-2733 c 21,105 37,213 46,323 l 374,624 c 15,-125 22,-251 22,-379 0,-43 -1,-86 -2,-128 l -440,-440 z m 57,564 c 0,125 -8,250 -24,373 l 219,727 c 62,-173 110,-352 142,-537 l -337,-563 z m -68,626 c -49,217 -121,424 -216,619 l -1,732 c 166,-215 304,-451 412,-703 l -195,-648 z m -331,834 c -122,205 -269,394 -438,562 -94,95 -196,184 -303,264 l -140,550 c 264,-147 505,-329 716,-541 57,-56 112,-115 164,-176 l 1,-659 z m 321,-2209 c -102,-438 -291,-873 -601,-1241 -25,-29 1,-53 28,-26 435,437 721,961 829,1524 l -256,-257 z"
       id="path4200"
       inkscape:connector-curvature="0"
       style="fill:#e2001a" /><path
       class="fil0"
       d="m 0,14703 c -748,0 -1443,-221 -2025,-602 l 604,-129 -148,-587 c 450,297 989,470 1569,470 580,0 1119,-173 1569,-470 l -148,587 604,129 c -582,381 -1277,602 -2025,602 z"
       id="path4202"
       inkscape:connector-curvature="0"
       style="fill:#e2001a" /><circle
       class="fil2"
       cy="11000"
       r="3819"
       id="circle4204"
       cx="0"
       style="fill:none" /><path
       class="fil3"
       d="m -806,14463 324,42 34,-262 -274,-36 7,-59 275,37 26,-198 -294,-39 8,-58 662,87 -8,59 -303,-40 -26,197 284,38 -8,58 -284,-37 -34,262 332,44 -7,59 -722,-96 8,-58 z m 495,-130 52,-30 c 36,54 68,106 97,157 l -57,33 c -24,-46 -54,-100 -92,-160 z m 431,-200 538,-71 34,254 -59,8 -4,-30 -173,23 25,191 c 8,59 -16,93 -73,101 -36,5 -69,10 -99,14 -6,-22 -12,-41 -19,-60 34,-1 63,-4 88,-7 32,-3 45,-22 41,-55 l -23,-176 -188,24 5,34 -59,8 -34,-258 z m 486,-12 -421,56 16,120 421,-55 -16,-121 z m -600,-95 348,-46 c -18,-25 -38,-50 -60,-76 l 52,-34 c 24,27 47,56 71,86 l -28,19 354,-46 7,52 -737,98 -7,-53 z m 248,382 47,40 c -61,59 -122,114 -184,166 -12,-16 -26,-32 -42,-46 64,-49 123,-102 179,-160 z m 298,12 30,-50 c 74,31 145,64 214,97 l -33,57 c -58,-32 -129,-67 -211,-104 z"
       id="path4206"
       inkscape:connector-curvature="0"
       style="fill:#ffffff;fill-rule:nonzero" /><circle
       class="fil2"
       cy="11000"
       r="3898"
       id="circle4208"
       cx="0"
       style="fill:none" /><circle
       class="fil2"
       cy="11000"
       r="3898"
       id="circle4210"
       cx="0"
       style="fill:none" /><g
       id="_1122567568"><path
         class="fil1"
         d="m -827,10508 1654,0 c 108,0 197,88 197,197 0,108 -89,197 -197,197 l -1654,0 c -108,0 -197,-89 -197,-197 0,-109 89,-197 197,-197 z"
         id="path4213"
         inkscape:connector-curvature="0"
         style="fill:#ffffff" /><path
         class="fil0"
         d="m -827,10587 1654,0 c 65,0 118,53 118,118 0,65 -53,118 -118,118 l -1654,0 c -65,0 -118,-53 -118,-118 0,-65 53,-118 118,-118 z"
         id="path4215"
         inkscape:connector-curvature="0"
         style="fill:#e2001a" /></g><g
       id="_1122580976"><path
         class="fil1"
         d="m -827,11020 1654,0 c 108,0 197,88 197,197 0,108 -89,196 -197,196 l -1654,0 c -108,0 -197,-88 -197,-196 0,-109 89,-197 197,-197 z"
         id="path4218"
         inkscape:connector-curvature="0"
         style="fill:#ffffff" /><path
         class="fil0"
         d="m -827,11098 1654,0 c 65,0 118,53 118,119 0,65 -53,118 -118,118 l -1654,0 c -65,0 -118,-53 -118,-118 0,-66 53,-119 118,-119 z"
         id="path4220"
         inkscape:connector-curvature="0"
         style="fill:#e2001a" /></g><polygon
       class="fil4"
       points="-1410,8198 -1303,8432 -1367,8461 -1584,7983 -1521,7954 -1436,8141 -1215,8041 -1300,7854 -1237,7825 -1019,8303 -1083,8331 -1189,8097 "
       id="polygon4222"
       style="fill:#e2001a;fill-rule:nonzero" /><path
       id="1"
       class="fil4"
       d="m -717,8224 c -29,8 -56,12 -81,11 -24,-1 -46,-7 -66,-17 -23,-12 -42,-30 -57,-52 -14,-22 -27,-51 -38,-87 l -95,-313 67,-21 95,313 c 7,24 14,43 22,58 8,15 18,27 30,37 13,11 29,17 46,20 18,2 38,0 60,-7 21,-6 38,-16 52,-27 14,-12 24,-26 29,-43 4,-15 6,-31 4,-47 -2,-17 -6,-36 -13,-59 l -95,-314 67,-21 95,314 c 10,35 16,66 16,93 1,27 -5,52 -18,75 -11,20 -26,37 -45,51 -19,14 -44,26 -75,36 z m -112,-596 -50,15 -131,-98 82,-25 99,108 z"
       inkscape:connector-curvature="0"
       style="fill:#e2001a;fill-rule:nonzero" /><path
       id="2"
       class="fil4"
       d="m -267,8144 c -38,3 -70,2 -97,-4 -28,-5 -53,-13 -78,-22 l -7,-87 5,-1 c 25,20 52,34 82,44 30,9 59,13 85,11 39,-3 67,-14 86,-31 18,-18 26,-40 24,-66 -2,-21 -8,-38 -20,-50 -11,-12 -28,-21 -51,-25 -17,-3 -32,-6 -45,-8 -14,-2 -31,-5 -52,-8 -18,-4 -35,-8 -50,-14 -14,-6 -28,-15 -40,-26 -11,-10 -21,-23 -28,-38 -7,-15 -12,-33 -13,-53 -4,-43 10,-80 40,-111 31,-32 72,-49 123,-53 30,-3 58,-2 84,2 27,3 51,10 75,19 l 6,83 -5,0 c -18,-14 -40,-25 -67,-34 -27,-10 -55,-13 -83,-11 -33,3 -58,12 -77,29 -18,17 -27,38 -25,62 2,23 9,40 22,52 13,12 31,20 53,25 15,2 34,5 55,9 22,3 40,6 55,9 36,8 64,23 82,44 19,21 30,47 32,80 2,20 -1,41 -7,62 -7,20 -17,38 -31,53 -16,16 -34,30 -54,40 -21,10 -47,16 -79,18 z"
       inkscape:connector-curvature="0"
       style="fill:#e2001a;fill-rule:nonzero" /><path
       id="3"
       class="fil4"
       d="m 419,7685 c 18,24 31,54 40,89 8,35 10,74 7,117 -4,43 -12,81 -26,114 -14,33 -32,60 -54,82 -23,22 -50,38 -79,48 -29,9 -61,12 -95,9 -36,-3 -67,-11 -94,-26 -28,-14 -51,-34 -69,-59 -18,-25 -31,-55 -39,-89 -8,-35 -11,-74 -7,-117 3,-44 12,-82 26,-114 13,-33 31,-60 53,-82 23,-22 48,-37 78,-47 29,-10 61,-13 97,-10 35,3 67,12 94,26 28,15 51,35 68,59 z m -26,200 c 3,-34 2,-65 -3,-93 -6,-27 -14,-50 -26,-69 -13,-19 -28,-34 -47,-44 -19,-11 -41,-17 -65,-19 -25,-2 -48,0 -67,8 -20,7 -38,19 -54,36 -15,17 -28,38 -37,65 -10,26 -16,56 -19,90 -6,69 4,122 30,161 26,39 63,60 112,64 48,4 89,-11 120,-45 32,-34 51,-85 56,-154 z m -87,-335 -52,-5 -85,-139 85,7 52,137 z"
       inkscape:connector-curvature="0"
       style="fill:#e2001a;fill-rule:nonzero" /><polygon
       id="4"
       class="fil4"
       points="607,8178 545,8159 698,7657 793,7685 874,8145 996,7747 1058,7766 905,8268 830,8246 739,7745 "
       style="fill:#e2001a;fill-rule:nonzero" /><path
       id="5"
       class="fil4"
       d="m 1223,8408 c -33,-16 -62,-35 -85,-58 -23,-24 -40,-50 -50,-81 -10,-30 -14,-63 -10,-100 4,-36 16,-74 34,-115 18,-38 40,-70 65,-95 25,-26 52,-45 82,-57 29,-12 61,-17 94,-15 34,2 68,11 101,27 16,7 31,15 45,25 13,9 26,19 38,29 9,8 19,18 29,30 11,11 19,21 25,29 l -35,76 -6,-2 c -4,-11 -10,-21 -15,-32 -6,-10 -14,-22 -26,-36 -10,-13 -22,-25 -37,-37 -15,-12 -32,-22 -51,-31 -46,-21 -91,-21 -135,0 -45,21 -80,61 -107,118 -15,32 -24,62 -28,89 -3,28 -2,53 4,76 6,23 17,43 32,61 15,17 35,32 59,43 18,8 37,15 56,21 18,6 35,9 50,10 l 57,-123 -110,-51 26,-57 173,81 -97,208 c -10,0 -23,-1 -39,-1 -16,-1 -31,-3 -44,-5 -18,-3 -34,-6 -47,-9 -14,-3 -30,-9 -48,-18 z"
       inkscape:connector-curvature="0"
       style="fill:#e2001a;fill-rule:nonzero" /><circle
       class="fil2"
       cy="11000"
       r="3898"
       id="circle4229"
       cx="0"
       style="fill:none" /></g></svg>