<?xml version="1.0" encoding="UTF-8" standalone="no"?>
<!-- Creator: CorelDRAW X7 -->

<svg
   xmlns:dc="http://purl.org/dc/elements/1.1/"
   xmlns:cc="http://creativecommons.org/ns#"
   xmlns:rdf="http://www.w3.org/1999/02/22-rdf-syntax-ns#"
   xmlns:svg="http://www.w3.org/2000/svg"
   xmlns="http://www.w3.org/2000/svg"
   xmlns:sodipodi="http://sodipodi.sourceforge.net/DTD/sodipodi-0.dtd"
   xmlns:inkscape="http://www.inkscape.org/namespaces/inkscape"
   xml:space="preserve"
   width="7.8740005in"
   height="7.8740005in"
   version="1.1"
   style="clip-rule:evenodd;fill-rule:evenodd;image-rendering:optimizeQuality;shape-rendering:geometricPrecision;text-rendering:geometricPrecision"
   viewBox="0 0 7874.0005 7874.0005"
   id="svg3635"
   inkscape:version="0.91 r13725"
   sodipodi:docname="Yu Jing - Haramaki Zensenbutai - [N3] [Vyo].svg"><metadata
     id="metadata3655"><rdf:RDF><cc:Work
         rdf:about=""><dc:format>image/svg+xml</dc:format><dc:type
           rdf:resource="http://purl.org/dc/dcmitype/StillImage" /></cc:Work></rdf:RDF></metadata><sodipodi:namedview
     pagecolor="#ffffff"
     bordercolor="#666666"
     borderopacity="1"
     objecttolerance="10"
     gridtolerance="10"
     guidetolerance="10"
     inkscape:pageopacity="0"
     inkscape:pageshadow="2"
     inkscape:window-width="640"
     inkscape:window-height="480"
     id="namedview3653"
     showgrid="false"
     inkscape:zoom="0.23838384"
     inkscape:cx="736.83001"
     inkscape:cy="849.33005"
     inkscape:window-x="0"
     inkscape:window-y="0"
     inkscape:window-maximized="0"
     inkscape:current-layer="svg3635" /><defs
     id="defs3637"><style
       type="text/css"
       id="style3639"><![CDATA[
    .fil0 {fill:#E2001A}
    .fil1 {fill:white}
    .fil2 {fill:#E2001A;fill-rule:nonzero}
   ]]></style></defs><g
     id="Layer_x0020_1"
     transform="translate(3937,-7063)"><metadata
       id="CorelCorpID_0Corel-Layer" /><circle
       class="fil0"
       cy="11000"
       r="3937"
       id="circle3643"
       cx="0"
       style="fill:#e2001a" /><circle
       class="fil1"
       cy="11000"
       r="3819"
       id="circle3645"
       cx="0"
       style="fill:#ffffff" /><path
       class="fil2"
       d="m 157,9829 c 264,35 499,157 678,336 142,142 249,320 304,520 l 183,0 c -59,-249 -187,-471 -362,-645 C 750,9829 470,9687 157,9651 l 0,-159 c 356,37 675,197 915,436 239,240 399,559 436,915 -166,0 -331,0 -496,0 -34,-220 -138,-417 -288,-567 -150,-150 -347,-254 -567,-288 l 0,-159 z m -314,-178 c -313,36 -593,178 -803,389 -175,174 -303,396 -362,645 l 183,0 c 55,-200 162,-378 304,-520 179,-179 414,-301 678,-336 l 0,159 c -220,34 -417,138 -567,288 -150,150 -254,347 -288,567 -165,0 -330,0 -496,0 37,-356 197,-675 436,-915 240,-239 559,-399 915,-436 l 0,159 z m 1479,1664 -183,0 c -55,200 -162,378 -304,520 -179,179 -414,301 -678,336 l 0,-159 c 220,-34 417,-138 567,-288 150,-150 254,-347 288,-567 165,0 330,0 496,0 -37,356 -197,675 -436,915 -240,239 -559,399 -915,436 l 0,-159 c 313,-36 593,-178 803,-389 175,-174 303,-396 362,-645 z m -1479,856 c -264,-35 -499,-157 -678,-336 -142,-142 -249,-320 -304,-520 l -183,0 c 59,249 187,471 362,645 210,211 490,353 803,389 l 0,159 c -356,-37 -675,-197 -915,-436 -239,-240 -399,-559 -436,-915 166,0 331,0 496,0 34,220 138,417 288,567 150,150 347,254 567,288 l 0,159 z"
       id="path3647"
       inkscape:connector-curvature="0"
       style="fill:#e2001a;fill-rule:nonzero" /><path
       class="fil2"
       d="m 0,10134 c 239,0 456,97 612,254 122,121 208,278 240,455 l -242,0 c -28,-111 -86,-210 -165,-288 -114,-114 -271,-185 -445,-185 -174,0 -331,71 -445,185 -79,78 -137,177 -165,288 l -242,0 c 32,-177 118,-334 240,-455 156,-157 373,-254 612,-254 z m 852,1023 c -32,177 -118,334 -240,455 -156,157 -373,254 -612,254 -239,0 -456,-97 -612,-254 -122,-121 -208,-278 -240,-455 l 242,0 c 28,111 86,210 165,288 114,114 271,185 445,185 174,0 331,-71 445,-185 79,-78 137,-177 165,-288 l 242,0 z"
       id="path3649"
       inkscape:connector-curvature="0"
       style="fill:#e2001a;fill-rule:nonzero" /><path
       class="fil2"
       d="m 478,9365 c -62,-274 -2,-513 129,-693 35,-48 75,-91 118,-130 -5,-15 -10,-30 -15,-45 C 677,8414 630,8335 570,8267 434,8112 234,8008 0,8008 c -234,0 -434,104 -570,259 -60,68 -107,147 -140,230 -5,15 -10,30 -15,45 43,39 83,82 118,130 131,180 191,419 129,693 l -22,96 -74,-65 c -212,-185 -303,-413 -303,-636 0,-59 6,-118 19,-175 -13,-9 -26,-18 -39,-27 -75,-48 -160,-84 -248,-104 -201,-46 -424,-12 -614,125 -189,138 -290,340 -309,545 -8,90 0,182 23,268 4,16 8,31 13,45 59,6 116,18 172,36 213,69 402,227 512,485 l 39,91 -98,-9 c -280,-25 -488,-156 -620,-337 -34,-48 -63,-99 -87,-152 -16,0 -31,0 -47,1 -89,5 -179,26 -262,61 -190,82 -350,240 -423,462 -72,223 -35,445 71,623 46,78 106,147 176,203 12,10 24,20 37,29 50,-29 104,-54 160,-72 212,-69 458,-53 699,91 l 85,51 -85,51 c -241,144 -487,160 -699,91 -56,-18 -110,-43 -160,-72 -13,9 -25,19 -37,29 -70,56 -130,125 -176,203 -106,178 -143,400 -71,623 73,222 233,380 423,462 83,35 173,56 262,61 16,1 31,1 47,1 24,-53 53,-104 87,-152 132,-181 340,-312 620,-337 l 98,-9 -39,91 c -110,258 -299,416 -512,485 -56,18 -113,30 -172,36 -5,14 -9,29 -13,45 -23,86 -31,178 -23,268 19,205 120,407 309,545 190,137 413,171 614,125 88,-20 173,-56 248,-104 13,-9 26,-18 39,-27 -13,-57 -19,-116 -19,-175 0,-223 91,-451 303,-636 l 74,-65 22,96 c 62,274 2,513 -129,693 -35,48 -75,91 -118,130 5,15 10,30 15,45 33,83 80,162 140,230 136,155 336,259 570,259 234,0 434,-104 570,-259 60,-68 107,-147 140,-230 5,-15 10,-30 15,-45 -43,-39 -83,-82 -118,-130 -131,-180 -191,-419 -129,-693 l 22,-96 74,65 c 212,185 303,413 303,636 0,59 -6,118 -19,175 13,9 26,18 39,27 75,48 160,84 248,104 201,46 424,12 614,-125 189,-138 290,-340 309,-545 8,-90 0,-182 -23,-268 -4,-16 -8,-31 -13,-45 -59,-6 -116,-18 -172,-36 -213,-69 -402,-227 -512,-485 l -39,-91 98,9 c 280,25 488,156 620,337 34,48 63,99 87,152 16,0 31,0 47,-1 89,-5 179,-26 262,-61 190,-82 350,-240 423,-462 72,-223 35,-445 -71,-623 -46,-78 -106,-147 -176,-203 -12,-10 -24,-20 -37,-29 -50,29 -104,54 -160,72 -212,69 -458,53 -699,-91 l -85,-51 85,-51 c 241,-144 487,-160 699,-91 56,18 110,43 160,72 13,-9 25,-19 37,-29 70,-56 130,-125 176,-203 106,-178 143,-400 71,-623 -73,-222 -233,-380 -423,-462 -83,-35 -173,-56 -262,-61 -16,-1 -31,-1 -47,-1 -24,53 -53,104 -87,152 -132,181 -340,312 -620,337 l -98,9 39,-91 c 110,-258 299,-416 512,-485 56,-18 113,-30 172,-36 5,-14 9,-29 13,-45 23,-86 31,-178 23,-268 -19,-205 -120,-407 -309,-545 -190,-137 -413,-171 -614,-125 -88,20 -173,56 -248,104 -13,9 -26,18 -39,27 13,57 19,116 19,175 0,223 -91,451 -303,636 l -74,65 -22,-96 z M 0,7535 c 1913,0 3465,1552 3465,3465 0,1913 -1552,3465 -3465,3465 -1913,0 -3465,-1552 -3465,-3465 0,-1913 1552,-3465 3465,-3465 z m 703,1206 c -95,131 -147,298 -128,489 128,-144 184,-309 184,-470 0,-28 -1,-55 -5,-82 -18,20 -35,41 -51,63 z m 1228,893 c 16,-22 31,-45 44,-69 -26,5 -53,12 -79,21 -153,49 -293,154 -390,320 187,-41 330,-142 425,-272 z m 434,1396 c 26,-9 52,-19 77,-30 -25,-11 -51,-21 -77,-30 -153,-50 -328,-47 -504,30 176,77 351,80 504,30 z m -469,1384 c 26,9 53,16 79,21 -13,-24 -28,-47 -44,-69 -95,-130 -238,-231 -425,-272 97,166 237,271 390,320 z m -1193,845 c 16,22 33,43 51,63 4,-27 5,-54 5,-82 0,-161 -56,-326 -184,-470 -19,191 33,358 128,489 z m -1462,-19 c 0,28 1,55 5,82 18,-20 35,-41 51,-63 95,-131 147,-298 128,-489 -128,144 -184,309 -184,470 z m -1172,-874 c -16,22 -31,45 -44,69 26,-5 53,-12 79,-21 153,-49 293,-154 390,-320 -187,41 -330,142 -425,272 z m -434,-1396 c -26,9 -52,19 -77,30 25,11 51,21 77,30 153,50 328,47 504,-30 -176,-77 -351,-80 -504,-30 z m 469,-1384 c -26,-9 -53,-16 -79,-21 13,24 28,47 44,69 95,130 238,231 425,272 -97,-166 -237,-271 -390,-320 z m 1193,-845 c -16,-22 -33,-43 -51,-63 -4,27 -5,54 -5,82 0,161 56,326 184,470 19,-191 -33,-358 -128,-489 z"
       id="path3651"
       inkscape:connector-curvature="0"
       style="fill:#e2001a;fill-rule:nonzero" /></g></svg>