<?xml version="1.0" encoding="UTF-8" standalone="no"?>
<!-- Creator: CorelDRAW X7 -->

<svg
   xmlns:dc="http://purl.org/dc/elements/1.1/"
   xmlns:cc="http://creativecommons.org/ns#"
   xmlns:rdf="http://www.w3.org/1999/02/22-rdf-syntax-ns#"
   xmlns:svg="http://www.w3.org/2000/svg"
   xmlns="http://www.w3.org/2000/svg"
   xmlns:sodipodi="http://sodipodi.sourceforge.net/DTD/sodipodi-0.dtd"
   xmlns:inkscape="http://www.inkscape.org/namespaces/inkscape"
   xml:space="preserve"
   width="7.8740005in"
   height="7.8740005in"
   version="1.1"
   style="clip-rule:evenodd;fill-rule:evenodd;image-rendering:optimizeQuality;shape-rendering:geometricPrecision;text-rendering:geometricPrecision"
   viewBox="0 0 7874.0005 7874.0005"
   id="svg4725"
   inkscape:version="0.91 r13725"
   sodipodi:docname="Yu Jing - Zhanshi - [N3] [Vyo].svg"><metadata
     id="metadata4772"><rdf:RDF><cc:Work
         rdf:about=""><dc:format>image/svg+xml</dc:format><dc:type
           rdf:resource="http://purl.org/dc/dcmitype/StillImage" /></cc:Work></rdf:RDF></metadata><sodipodi:namedview
     pagecolor="#ffffff"
     bordercolor="#666666"
     borderopacity="1"
     objecttolerance="10"
     gridtolerance="10"
     guidetolerance="10"
     inkscape:pageopacity="0"
     inkscape:pageshadow="2"
     inkscape:window-width="640"
     inkscape:window-height="480"
     id="namedview4770"
     showgrid="false"
     inkscape:zoom="0.23838384"
     inkscape:cx="736.83001"
     inkscape:cy="849.33005"
     inkscape:window-x="0"
     inkscape:window-y="0"
     inkscape:window-maximized="0"
     inkscape:current-layer="svg4725" /><defs
     id="defs4727"><style
       type="text/css"
       id="style4729"><![CDATA[
    .fil1 {fill:none}
    .fil0 {fill:#E2001A}
    .fil2 {fill:white}
    .fil3 {fill:#E2001A;fill-rule:nonzero}
    .fil4 {fill:white;fill-rule:nonzero}
   ]]></style></defs><g
     id="Layer_x0020_1"
     transform="translate(3937,-7063)"><metadata
       id="CorelCorpID_0Corel-Layer" /><circle
       class="fil0"
       cy="11000"
       r="3937"
       id="circle4733"
       cx="0"
       style="fill:#e2001a" /><circle
       class="fil1"
       cy="11000"
       r="3937"
       id="circle4735"
       cx="0"
       style="fill:none" /><path
       class="fil2"
       d="m -2714,8513 c 26,-28 55,-2 29,27 -502,587 -768,1301 -840,2016 l -188,-188 c 132,-682 475,-1322 999,-1855 z m 232,213 c -520,526 -863,1191 -955,1918 l 95,95 125,-124 c 65,-676 324,-1344 764,-1863 25,-29 -2,-53 -29,-26 z m -901,2139 c -2,45 -3,90 -3,135 0,148 10,294 28,438 l -416,-223 c -3,-71 -6,-143 -6,-215 0,-169 12,-335 33,-499 l 364,364 z m 47,718 c 36,209 92,412 165,605 l -457,-125 c -67,-228 -112,-465 -135,-709 l 427,229 z m 219,743 c 118,275 271,533 454,765 l -486,0 c -183,-275 -331,-575 -437,-894 l 469,129 z m 551,883 c 55,64 112,126 172,185 219,219 468,409 741,561 l -549,117 c -167,-120 -325,-254 -471,-399 -143,-144 -275,-299 -394,-464 l 501,0 z m -290,-2789 c -21,108 -37,218 -47,330 l -382,636 c -14,-126 -22,-255 -22,-386 0,-44 1,-88 2,-131 l 449,-449 z m -57,576 c -1,127 7,255 24,381 l -224,742 c -63,-177 -112,-360 -145,-548 l 345,-575 z m 69,639 c 49,221 123,433 220,631 l 1,748 c -169,-219 -311,-460 -420,-718 l 199,-661 z m 338,851 c 124,210 274,403 446,574 97,97 200,187 310,269 l 142,562 c -269,-150 -514,-337 -730,-553 -58,-57 -114,-117 -168,-180 l 0,-672 z m -328,-2254 c 104,-448 297,-891 613,-1267 26,-30 -1,-54 -29,-26 -443,445 -736,980 -846,1554 l 262,-261 z"
       id="path4737"
       inkscape:connector-curvature="0"
       style="fill:#ffffff" /><path
       class="fil2"
       d="m 2714,8513 c -26,-28 -55,-2 -29,27 502,587 768,1301 840,2016 l 188,-188 C 3581,9686 3238,9046 2714,8513 Z m -232,213 c 520,526 863,1191 955,1918 l -95,95 -125,-124 c -65,-676 -324,-1344 -764,-1863 -25,-29 2,-53 29,-26 z m 901,2139 c 2,45 3,90 3,135 0,148 -10,294 -28,438 l 416,-223 c 3,-71 6,-143 6,-215 0,-169 -12,-335 -33,-499 l -364,364 z m -47,718 c -36,209 -92,412 -165,605 l 457,-125 c 67,-228 112,-465 135,-709 l -427,229 z m -219,743 c -118,275 -271,533 -454,765 l 486,0 c 183,-275 331,-575 437,-894 l -469,129 z m -551,883 c -55,64 -112,126 -172,185 -219,219 -468,409 -741,561 l 549,117 c 167,-120 325,-254 471,-399 143,-144 275,-299 394,-464 l -501,0 z m 290,-2789 c 21,108 37,218 47,330 l 382,636 c 14,-126 22,-255 22,-386 0,-44 -1,-88 -2,-131 l -449,-449 z m 57,576 c 1,127 -7,255 -24,381 l 224,742 c 63,-177 112,-360 145,-548 l -345,-575 z m -69,639 c -49,221 -123,433 -220,631 l -1,748 c 169,-219 311,-460 420,-718 l -199,-661 z m -338,851 c -124,210 -274,403 -446,574 -97,97 -200,187 -310,269 l -142,562 c 269,-150 514,-337 730,-553 58,-57 114,-117 168,-180 l 0,-672 z m 328,-2254 c -104,-448 -297,-891 -613,-1267 -26,-30 1,-54 29,-26 443,445 736,980 846,1554 l -262,-261 z"
       id="path4739"
       inkscape:connector-curvature="0"
       style="fill:#ffffff" /><path
       class="fil2"
       d="m 0,14780 c -763,0 -1473,-227 -2067,-615 l 617,-132 -152,-599 c 460,303 1010,479 1602,479 592,0 1142,-176 1602,-479 l -152,599 617,132 c -594,388 -1304,615 -2067,615 z"
       id="path4741"
       inkscape:connector-curvature="0"
       style="fill:#ffffff" /><path
       class="fil3"
       d="m -502,14055 -246,-32 c -15,-2 -26,-2 -35,1 l -10,-39 c 11,4 25,7 41,9 l 526,69 42,-45 c 6,-6 13,-9 20,-8 7,1 23,16 46,44 22,27 34,44 33,51 -1,3 -6,4 -16,3 l -323,-43 -29,223 159,21 42,-49 c 5,-6 9,-8 13,-8 4,1 11,6 21,15 10,9 22,21 36,36 14,15 22,25 25,30 3,4 4,8 3,11 -1,7 -7,10 -20,9 l -283,-38 -40,309 224,29 43,-41 c 6,-7 14,-9 21,-8 8,1 24,14 48,40 23,26 35,41 34,47 -1,5 -8,7 -22,5 l -712,-93 c -15,-2 -27,-2 -35,1 l -10,-38 c 11,4 24,7 40,9 l 290,38 41,-308 -208,-27 c -14,-2 -26,-2 -35,1 l -10,-39 c 11,4 25,8 41,10 l 215,28 30,-223 z m 120,338 c 51,40 86,69 103,90 18,20 26,38 24,53 -2,14 -8,28 -19,42 -10,14 -20,20 -28,19 -8,-1 -14,-4 -18,-8 -3,-4 -8,-20 -15,-48 -6,-29 -14,-53 -23,-74 -8,-21 -20,-41 -35,-62 l 11,-12 z m 822,-318 c -22,-57 -47,-97 -78,-120 l 5,-13 c 87,3 132,22 137,55 1,10 -2,23 -9,37 -7,15 -18,28 -34,38 l 227,-30 31,-61 c 5,-10 10,-15 16,-16 5,-1 12,1 19,6 7,4 20,13 36,26 17,13 29,22 35,28 6,5 9,11 10,15 0,5 -5,8 -16,10 l -695,91 c -15,2 -26,5 -34,10 l -19,-32 c 12,1 26,1 42,-1 l 327,-43 z m -107,124 271,-35 18,-35 c 3,-5 6,-8 9,-9 5,0 20,5 45,16 24,11 39,18 43,20 5,3 7,5 8,8 0,6 -11,17 -35,34 l 13,107 7,36 c 1,5 -1,10 -5,13 -3,3 -12,8 -25,14 -13,6 -23,9 -28,10 -5,1 -8,0 -10,-3 -1,-2 -2,-6 -3,-12 l -3,-20 -107,14 29,223 c 6,42 5,69 -3,82 -8,12 -21,23 -39,33 -19,9 -30,14 -34,15 -5,0 -9,-4 -13,-14 -7,-18 -17,-31 -32,-40 -14,-9 -41,-18 -80,-26 l 0,-14 c 56,2 90,2 103,0 13,-2 21,-5 24,-8 2,-4 2,-10 1,-19 l -29,-222 -121,16 c 1,12 1,20 -1,23 -3,3 -12,8 -27,15 -15,7 -25,11 -31,11 -5,1 -8,-3 -8,-10 0,-18 -1,-38 -4,-59 l -16,-124 c -3,-23 -7,-46 -12,-69 46,11 78,21 95,29 z m 302,118 -17,-132 -302,40 17,132 302,-40 z m -321,111 c 16,5 32,11 47,18 16,7 27,13 32,16 5,3 8,6 8,10 1,5 -2,8 -10,9 -7,2 -13,5 -16,8 -4,4 -18,22 -41,53 -24,31 -48,59 -73,84 -25,25 -63,57 -114,94 l -9,-10 c 53,-66 92,-118 115,-156 24,-38 44,-80 61,-126 z m 263,-21 c 62,15 120,33 173,53 53,21 81,48 86,81 2,16 0,33 -5,49 -5,16 -12,25 -22,27 -4,0 -8,-1 -12,-4 -3,-2 -9,-8 -16,-18 -30,-38 -60,-70 -91,-95 -31,-25 -71,-51 -119,-79 l 6,-14 z"
       id="path4743"
       inkscape:connector-curvature="0"
       style="fill:#e2001a;fill-rule:nonzero" /><circle
       class="fil1"
       cy="11000"
       r="3898"
       id="circle4745"
       cx="0"
       style="fill:none" /><circle
       class="fil1"
       cy="11000"
       r="3898"
       id="circle4747"
       cx="0"
       style="fill:none" /><circle
       class="fil1"
       cy="11000"
       r="3898"
       id="circle4749"
       cx="0"
       style="fill:none" /><polygon
       class="fil2"
       points="0,9765 2165,9765 1083,11640 0,13515 -1083,11640 -2165,9765 "
       id="polygon4751"
       style="fill:#ffffff" /><path
       class="fil4"
       d="m -2009,8338 -42,48 c -9,11 -17,23 -22,36 l -37,-10 c 8,-6 19,-17 34,-34 l 50,-58 c -27,-27 -54,-57 -82,-90 -29,-32 -58,-65 -88,-98 16,-9 33,-17 52,-26 18,-9 30,-13 34,-14 5,-1 9,0 11,3 2,3 0,14 -8,32 45,57 86,105 123,145 l 77,-90 -15,-47 c -2,-5 -1,-9 2,-12 3,-3 14,-6 33,-9 18,-4 34,-6 45,-6 11,-1 18,0 20,3 4,4 3,8 -2,14 l -143,165 c 52,57 99,99 140,126 -11,-53 -32,-110 -62,-173 24,-6 44,-11 60,-14 16,-3 26,-5 30,-4 3,0 6,1 8,4 2,2 0,7 -5,13 -5,7 -8,13 -8,18 -1,5 1,14 5,27 19,63 30,117 33,161 17,8 42,15 74,21 32,6 51,7 56,3 5,-5 7,-12 4,-21 -3,-10 -10,-29 -23,-57 -12,-29 -25,-55 -38,-81 l 15,-9 c 28,45 51,78 68,101 18,23 43,45 74,67 7,5 12,10 16,15 4,5 2,10 -5,16 -22,17 -56,28 -101,32 -45,4 -92,-2 -140,-19 -5,62 -32,141 -81,238 l -16,-7 c 35,-95 50,-180 46,-254 -55,-31 -119,-83 -192,-155 z m -148,222 -167,-213 c -23,-30 -38,-48 -44,-55 20,-11 37,-19 51,-24 13,-6 23,-9 29,-10 5,-2 10,-1 12,3 3,3 0,13 -9,29 l 72,93 54,-42 -4,-39 c -1,-9 1,-15 4,-18 3,-2 18,-2 43,0 25,3 39,7 43,11 3,4 3,8 -2,12 l -122,96 91,117 30,-24 -2,-30 c 0,-6 1,-10 4,-12 2,-2 12,-4 28,-6 17,-2 29,-4 38,-4 9,-1 14,0 15,1 3,3 1,15 -5,35 l 102,131 c 7,8 13,15 18,21 l 12,14 c 2,2 3,4 2,5 0,2 -2,9 -7,19 -4,10 -9,19 -15,26 -5,7 -8,11 -10,13 -2,1 -5,0 -8,-4 l -30,-38 -112,87 40,52 c 4,5 5,8 5,9 0,2 -3,7 -7,15 -4,8 -9,16 -15,24 -7,8 -10,13 -12,14 -1,1 -3,0 -5,-3 l -16,-21 c -5,-7 -10,-14 -15,-21 l -138,-176 c -13,-16 -26,-32 -41,-48 25,-11 49,-19 72,-24 l 21,-15 z m 206,85 -104,-133 -112,88 104,133 112,-88 z m -130,-519 c 32,-19 58,-31 79,-36 21,-5 36,-2 45,9 9,12 15,24 17,38 2,13 1,22 -5,26 -4,3 -8,5 -12,5 -4,-1 -11,-3 -22,-7 -31,-13 -64,-20 -99,-21 l -3,-14 z"
       id="path4753"
       inkscape:connector-curvature="0"
       style="fill:#ffffff;fill-rule:nonzero" /><path
       id="1"
       class="fil4"
       d="m -1318,7942 -174,73 c -13,5 -22,11 -27,17 l -26,-23 c 10,-1 22,-5 36,-11 l 182,-77 -70,-167 c -15,-35 -25,-57 -29,-64 56,-12 88,-18 98,-19 10,-2 16,0 17,4 2,5 -5,18 -23,40 l 75,178 125,-53 11,-56 c 2,-7 4,-12 6,-12 4,-2 21,3 52,13 30,11 47,18 48,22 2,4 -2,9 -13,13 l -221,93 127,301 173,-73 11,-65 c 1,-5 4,-9 7,-10 5,-2 24,3 57,15 33,13 50,21 51,24 2,4 -2,8 -12,12 l -576,242 c -13,5 -22,11 -27,17 l -26,-22 c 10,-2 22,-6 36,-11 l 238,-101 -126,-300 z"
       inkscape:connector-curvature="0"
       style="fill:#ffffff;fill-rule:nonzero" /><path
       id="2"
       class="fil4"
       d="m -422,7531 185,-26 26,-48 c 3,-5 6,-8 9,-8 5,-1 19,7 42,24 23,17 35,27 35,32 1,4 -5,7 -17,8 l -294,42 c -23,41 -49,78 -78,111 9,1 20,0 33,-1 l 47,-7 -1,-11 c -4,-24 -8,-46 -11,-65 11,0 25,2 43,4 17,2 27,4 30,5 3,2 5,4 6,7 0,3 -6,8 -17,16 l 5,36 105,-15 -2,-13 c -4,-25 -7,-47 -11,-66 25,2 44,4 57,6 13,2 20,5 20,8 0,4 -4,8 -13,14 l 7,43 16,-2 21,-41 c 2,-4 5,-6 7,-6 4,-1 16,6 37,19 20,13 30,23 31,28 1,6 -3,9 -11,10 l -98,14 33,236 12,-2 23,-45 c 3,-5 6,-9 11,-9 4,-1 17,7 38,24 22,16 33,26 33,31 1,4 -4,7 -14,8 l -376,53 c -13,2 -24,5 -30,10 l -18,-29 c 11,1 23,1 38,-1 l 66,-10 -34,-235 -40,6 c -13,2 -23,5 -30,9 l -16,-25 c -3,4 -9,10 -16,17 l -9,-7 c 17,-32 30,-58 39,-79 l -145,21 c 5,36 9,70 12,102 l 50,-8 13,-20 c 2,-3 5,-6 8,-6 3,0 14,3 33,11 20,8 30,14 30,18 1,5 -6,11 -20,20 10,89 18,157 22,206 4,48 4,79 2,91 -3,12 -7,22 -12,30 -6,8 -15,17 -29,28 -14,11 -24,17 -30,18 -6,0 -10,-3 -11,-10 -2,-15 -8,-25 -18,-31 -10,-7 -24,-12 -42,-17 l 1,-14 c 29,1 47,1 57,-1 9,-1 15,-4 18,-8 3,-4 5,-13 5,-27 1,-14 -1,-49 -5,-106 -5,-57 -11,-110 -18,-161 l -52,8 c 9,98 8,178 -5,239 -12,61 -40,118 -84,171 l -12,-7 c 32,-56 49,-117 53,-185 4,-68 -5,-179 -27,-333 l -49,7 c -13,2 -23,5 -30,10 l -18,-29 c 11,1 23,1 38,-1 l 184,-27 21,-40 c 3,-6 6,-9 8,-9 7,-1 27,13 61,42 17,-41 32,-95 44,-162 10,2 25,6 46,12 21,6 33,10 36,12 3,2 5,4 6,7 0,4 -4,8 -14,11 -9,2 -17,10 -22,21 -5,11 -14,27 -24,47 z m 151,127 -105,14 9,60 104,-14 -8,-60 z m 11,79 -105,15 9,63 105,-15 -9,-63 z m 22,156 -10,-72 -105,15 11,72 104,-15 z m -480,-430 c 28,8 53,17 75,27 22,10 34,23 36,36 2,14 -1,27 -9,40 -8,12 -18,19 -29,21 -5,1 -8,0 -10,-2 -2,-1 -5,-10 -10,-25 -4,-15 -11,-28 -20,-41 -10,-12 -23,-27 -41,-43 l 8,-13 z m 363,470 c 37,15 58,24 63,27 4,3 7,6 7,9 1,6 -3,10 -14,11 -5,1 -11,5 -16,11 -28,35 -53,63 -75,84 -22,21 -50,44 -84,68 l -8,-7 c 57,-66 99,-134 127,-203 z m 96,-5 c 62,17 105,33 128,47 23,13 36,29 38,45 3,17 2,30 -3,40 -4,10 -10,16 -17,17 -4,0 -9,-4 -17,-13 -23,-29 -43,-51 -61,-67 -18,-16 -43,-35 -75,-56 l 7,-13 z"
       inkscape:connector-curvature="0"
       style="fill:#ffffff;fill-rule:nonzero" /><path
       id="3"
       class="fil4"
       d="m 220,7555 41,5 14,-97 c 3,-25 6,-47 8,-66 55,21 83,35 82,41 -1,4 -10,8 -29,13 l -17,118 47,6 18,-19 c 4,-4 7,-6 11,-6 4,1 15,9 33,26 19,17 28,27 28,31 -1,4 -12,9 -34,16 l -33,230 c -2,17 -6,30 -11,38 -5,8 -16,15 -31,22 -16,7 -25,10 -30,9 -4,0 -6,-2 -6,-4 -1,-2 0,-7 1,-14 2,-20 -9,-37 -34,-49 l -18,126 c -2,17 -4,34 -6,53 l -3,25 c 0,3 -2,6 -4,8 -3,1 -12,4 -29,8 -16,4 -26,6 -29,5 -3,0 -5,-2 -4,-6 l 6,-34 c 3,-16 7,-39 11,-68 l 56,-390 -46,-7 -43,300 c -1,4 -2,7 -3,9 -1,1 -6,4 -14,7 -8,3 -17,5 -27,7 -10,2 -16,3 -19,2 -2,0 -3,-3 -2,-8 l 7,-35 c 4,-24 8,-46 11,-65 l 29,-209 c 4,-24 7,-46 8,-66 22,9 42,22 61,38 z m 61,283 c 9,3 17,4 24,5 18,3 28,-1 30,-11 l 33,-234 -52,-8 -35,248 z m 280,-315 120,17 23,-25 c 4,-5 8,-7 12,-6 4,1 15,10 33,28 18,19 27,30 26,34 0,4 -11,9 -31,17 l -31,217 c -2,10 -3,19 -3,27 l -2,21 c -1,5 -3,8 -7,11 -5,2 -14,4 -28,7 -14,2 -24,3 -29,2 -3,0 -3,-3 -3,-8 l 7,-48 -130,-19 -5,33 c 0,5 -1,9 -2,10 -1,1 -7,3 -17,5 -10,2 -19,3 -29,3 -9,0 -14,0 -16,0 -1,0 -1,-3 -1,-7 l 5,-28 c 2,-8 3,-17 5,-27 l 34,-240 c 3,-22 6,-45 8,-69 20,12 41,27 61,45 z m 90,272 33,-228 -130,-18 -33,228 130,18 z m -156,57 c 18,11 34,24 48,37 14,13 21,21 21,24 0,2 -4,4 -11,5 -7,1 -13,3 -18,6 -5,3 -12,9 -21,17 -40,41 -74,69 -100,86 -27,17 -72,39 -137,67 l -9,-15 c 52,-31 93,-62 124,-93 31,-30 65,-75 103,-134 z m 95,14 c 39,41 69,75 89,102 21,27 34,48 40,63 6,15 9,29 7,41 -3,18 -10,33 -21,43 -11,11 -22,16 -32,14 -4,0 -7,-3 -9,-6 -1,-4 -3,-14 -5,-30 -6,-42 -14,-79 -26,-109 -11,-31 -30,-69 -55,-115 l 12,-3 z"
       inkscape:connector-curvature="0"
       style="fill:#ffffff;fill-rule:nonzero" /><path
       id="4"
       class="fil4"
       d="m 1434,8034 60,-39 c 8,-5 14,-7 19,-5 4,1 14,19 30,52 15,34 22,53 20,58 -2,5 -8,6 -19,1 L 959,7883 c -13,-5 -23,-7 -31,-6 l -3,-37 c 9,6 21,11 34,16 l 475,178 z"
       inkscape:connector-curvature="0"
       style="fill:#ffffff;fill-rule:nonzero" /><path
       id="5"
       class="fil4"
       d="m 2011,8072 327,266 34,-10 c 6,-2 11,-2 14,0 3,3 9,17 18,42 9,25 12,39 9,43 -3,3 -14,2 -33,-4 l -315,388 -42,53 c -3,4 -7,6 -12,6 -5,0 -14,-3 -28,-8 -14,-5 -23,-9 -26,-12 -4,-3 -3,-7 2,-13 l 39,-48 -340,-278 -25,30 c -4,5 -9,8 -14,8 -5,0 -15,-3 -30,-8 -14,-5 -23,-9 -27,-12 -3,-3 -2,-7 4,-12 13,-13 28,-30 46,-52 l 327,-401 c 13,-16 26,-33 38,-51 16,31 28,56 34,73 z m 2,685 321,-394 -341,-278 -321,395 341,277 z m 130,-373 18,14 41,-9 c 9,-2 15,-2 18,1 3,2 6,16 9,42 3,25 4,40 1,43 -2,3 -8,1 -16,-6 l -85,-69 -161,198 c -11,14 -21,22 -29,27 -9,4 -22,5 -40,3 -18,-3 -30,-6 -34,-9 -2,-2 -1,-6 1,-13 7,-15 8,-30 4,-44 -4,-14 -16,-34 -36,-62 l 10,-8 c 27,29 45,47 54,55 9,7 16,11 21,10 4,-1 10,-5 16,-13 l 114,-140 c -99,32 -205,39 -318,20 l 1,-10 c 70,-5 129,-13 177,-23 49,-11 98,-28 147,-50 l -107,-87 c -10,-8 -19,-14 -27,-16 l 6,-35 c 6,9 15,18 26,27 l 142,116 33,-40 c 15,-19 29,-37 40,-53 13,16 24,31 33,44 9,14 14,22 15,25 0,3 0,5 -1,7 -4,3 -13,3 -28,-1 l -45,56 z"
       inkscape:connector-curvature="0"
       style="fill:#ffffff;fill-rule:nonzero" /><circle
       class="fil0"
       cy="11000"
       r="1929"
       id="circle4760"
       cx="0"
       style="fill:#e2001a" /><circle
       class="fil2"
       cy="11000"
       r="1811"
       id="circle4762"
       cx="0"
       style="fill:#ffffff" /><circle
       class="fil0"
       cy="11000"
       r="1181"
       id="circle4764"
       cx="0"
       style="fill:#e2001a" /><circle
       class="fil2"
       cy="11000"
       r="1063"
       id="circle4766"
       cx="0"
       style="fill:#ffffff" /><circle
       class="fil0"
       cy="11000"
       r="787"
       id="circle4768"
       cx="0"
       style="fill:#e2001a" /></g></svg>