<?xml version="1.0" encoding="UTF-8" standalone="no"?>
<!-- Creator: CorelDRAW X7 -->

<svg
   xmlns:dc="http://purl.org/dc/elements/1.1/"
   xmlns:cc="http://creativecommons.org/ns#"
   xmlns:rdf="http://www.w3.org/1999/02/22-rdf-syntax-ns#"
   xmlns:svg="http://www.w3.org/2000/svg"
   xmlns="http://www.w3.org/2000/svg"
   xmlns:sodipodi="http://sodipodi.sourceforge.net/DTD/sodipodi-0.dtd"
   xmlns:inkscape="http://www.inkscape.org/namespaces/inkscape"
   xml:space="preserve"
   width="7.8740005in"
   height="5.7880001in"
   version="1.1"
   style="clip-rule:evenodd;fill-rule:evenodd;image-rendering:optimizeQuality;shape-rendering:geometricPrecision;text-rendering:geometricPrecision"
   viewBox="0 0 7874.0005 5788.0001"
   id="svg5361"
   inkscape:version="0.91 r13725"
   sodipodi:docname="yu_jing_yao_zao.svg"><metadata
     id="metadata5392"><rdf:RDF><cc:Work
         rdf:about=""><dc:format>image/svg+xml</dc:format><dc:type
           rdf:resource="http://purl.org/dc/dcmitype/StillImage" /></cc:Work></rdf:RDF></metadata><sodipodi:namedview
     pagecolor="#ffffff"
     bordercolor="#666666"
     borderopacity="1"
     objecttolerance="10"
     gridtolerance="10"
     guidetolerance="10"
     inkscape:pageopacity="0"
     inkscape:pageshadow="2"
     inkscape:window-width="640"
     inkscape:window-height="480"
     id="namedview5390"
     showgrid="false"
     inkscape:zoom="0.23838384"
     inkscape:cx="736.83001"
     inkscape:cy="755.46005"
     inkscape:window-x="0"
     inkscape:window-y="0"
     inkscape:window-maximized="0"
     inkscape:current-layer="svg5361" /><defs
     id="defs5363"><style
       type="text/css"
       id="style5365"><![CDATA[
    .fil2 {fill:#CCCCCC}
    .fil0 {fill:#E32527}
    .fil1 {fill:white}
   ]]></style></defs><g
     id="Layer_x0020_1"
     transform="translate(3937,-8106)"><metadata
       id="CorelCorpID_0Corel-Layer" /><polygon
       class="fil0"
       points="-630,11925 -2835,11925 -3937,10016 -2835,8106 -630,8106 472,10016 "
       id="polygon5369"
       style="fill:#e32527" /><polygon
       class="fil1"
       points="-766,11689 200,10016 -766,8343 -2698,8343 -3664,10016 -2698,11689 "
       id="polygon5371"
       style="fill:#ffffff" /><polygon
       class="fil2"
       points="-789,11650 154,10016 -789,8382 -2676,8382 -3619,10016 -2676,11650 "
       id="polygon5373"
       style="fill:#cccccc" /><polygon
       class="fil0"
       points="2835,13894 630,13894 -472,11984 630,10075 2835,10075 3937,11984 "
       id="polygon5375"
       style="fill:#e32527" /><polygon
       class="fil1"
       points="2698,13657 3664,11984 2698,10311 766,10311 -200,11984 766,13657 "
       id="polygon5377"
       style="fill:#ffffff" /><polygon
       class="fil2"
       points="2676,13618 3619,11984 2676,10350 789,10350 -154,11984 789,13618 "
       id="polygon5379"
       style="fill:#cccccc" /><g
       id="_820455920"><path
         class="fil1"
         d="m 2343,12594 0,709 -552,0 0,-1260 1260,0 0,551 -708,0 z m -1221,0 -709,0 0,-551 1260,0 0,1260 -551,0 0,-709 z m 0,-1220 0,-709 551,0 0,1260 -1260,0 0,-551 709,0 z m 1221,0 708,0 0,551 -1260,0 0,-1260 552,0 0,709 z"
         id="path5382"
         inkscape:connector-curvature="0"
         style="fill:#ffffff" /><path
         class="fil0"
         d="m 3012,12083 -1181,0 0,1181 472,0 0,-709 709,0 0,-472 z m -2559,0 1181,0 0,1181 -473,0 0,-709 -708,0 0,-472 z m 0,-197 1181,0 0,-1181 -473,0 0,708 -708,0 0,473 z m 2559,0 -1181,0 0,-1181 472,0 0,708 709,0 0,473 z"
         id="path5384"
         inkscape:connector-curvature="0"
         style="fill:#e32527" /></g><path
       class="fil1"
       d="m -1776,9032 c 29,-1 58,-1 87,0 l 141,-373 335,90 -65,394 c 26,13 50,27 75,43 l 308,-253 246,245 -253,309 c 15,24 30,49 43,74 l 394,-64 90,335 -374,141 c 1,28 1,57 0,86 l 374,141 -90,335 -394,-65 c -13,26 -28,50 -43,75 l 253,309 -245,245 -309,-253 c -24,15 -49,30 -75,43 l 65,394 -335,90 -141,-374 c -29,1 -58,1 -87,0 l -140,374 -335,-90 64,-394 c -25,-13 -50,-28 -74,-43 l -309,253 -245,-245 253,-309 c -16,-24 -30,-49 -44,-75 l -393,65 -90,-335 373,-141 c -1,-29 -1,-58 0,-86 l -373,-141 90,-335 394,64 c 13,-25 27,-50 43,-74 l -253,-309 245,-245 309,253 c 24,-16 49,-30 74,-44 l -64,-393 335,-90 140,373 z m 44,1299 c 174,0 315,-141 315,-315 0,-174 -141,-315 -315,-315 -174,0 -315,141 -315,315 0,174 141,315 315,315 z"
       id="path5386"
       inkscape:connector-curvature="0"
       style="fill:#ffffff" /><path
       class="fil0"
       d="m -2207,8777 266,-71 139,367 c 47,-3 94,-3 140,0 l 138,-367 266,71 -64,388 c 42,20 83,43 121,70 l 304,-249 195,195 -249,303 c 26,38 49,79 70,121 l 387,-64 71,266 -367,139 c 4,47 4,94 0,140 l 367,138 -71,266 -387,-64 c -21,42 -44,83 -70,121 l 249,304 -195,195 -304,-249 c -38,26 -78,49 -121,70 l 64,387 -266,71 -138,-367 c -47,4 -94,4 -140,0 l -139,367 -266,-71 64,-387 c -42,-21 -82,-44 -121,-70 l -303,249 -195,-195 248,-304 c -26,-38 -49,-78 -69,-121 l -388,64 -71,-266 367,-138 c -3,-47 -3,-94 0,-140 l -367,-139 71,-266 388,64 c 20,-42 43,-82 70,-121 l -249,-303 195,-195 303,248 c 38,-26 79,-49 121,-69 l -64,-388 z m 475,1593 c 195,0 354,-159 354,-354 0,-196 -159,-355 -354,-355 -196,0 -355,159 -355,355 0,195 159,354 355,354 z"
       id="path5388"
       inkscape:connector-curvature="0"
       style="fill:#e32527" /></g></svg>