<?xml version="1.0" encoding="UTF-8" standalone="no"?>
<!-- Creator: CorelDRAW X7 -->

<svg
   xmlns:dc="http://purl.org/dc/elements/1.1/"
   xmlns:cc="http://creativecommons.org/ns#"
   xmlns:rdf="http://www.w3.org/1999/02/22-rdf-syntax-ns#"
   xmlns:svg="http://www.w3.org/2000/svg"
   xmlns="http://www.w3.org/2000/svg"
   xmlns:sodipodi="http://sodipodi.sourceforge.net/DTD/sodipodi-0.dtd"
   xmlns:inkscape="http://www.inkscape.org/namespaces/inkscape"
   xml:space="preserve"
   width="7.8740005in"
   height="7.8740005in"
   version="1.1"
   style="clip-rule:evenodd;fill-rule:evenodd;image-rendering:optimizeQuality;shape-rendering:geometricPrecision;text-rendering:geometricPrecision"
   viewBox="0 0 7874.0005 7874.0005"
   id="svg3657"
   inkscape:version="0.91 r13725"
   sodipodi:docname="Yu Jing - Hsien Warriors - [N3] [Vyo].svg"><metadata
     id="metadata3693"><rdf:RDF><cc:Work
         rdf:about=""><dc:format>image/svg+xml</dc:format><dc:type
           rdf:resource="http://purl.org/dc/dcmitype/StillImage" /></cc:Work></rdf:RDF></metadata><sodipodi:namedview
     pagecolor="#ffffff"
     bordercolor="#666666"
     borderopacity="1"
     objecttolerance="10"
     gridtolerance="10"
     guidetolerance="10"
     inkscape:pageopacity="0"
     inkscape:pageshadow="2"
     inkscape:window-width="640"
     inkscape:window-height="480"
     id="namedview3691"
     showgrid="false"
     inkscape:zoom="0.23838384"
     inkscape:cx="736.83001"
     inkscape:cy="849.33005"
     inkscape:window-x="0"
     inkscape:window-y="0"
     inkscape:window-maximized="0"
     inkscape:current-layer="svg3657" /><defs
     id="defs3659"><style
       type="text/css"
       id="style3661"><![CDATA[
    .fil3 {fill:none}
    .fil1 {fill:black}
    .fil5 {fill:#E2001A}
    .fil0 {fill:#E32527}
    .fil4 {fill:white}
    .fil2 {fill:white;fill-rule:nonzero}
   ]]></style></defs><g
     id="Layer_x0020_1"
     transform="translate(3937,-7063)"><metadata
       id="CorelCorpID_0Corel-Layer" /><circle
       class="fil0"
       cy="11000"
       r="3937"
       id="circle3665"
       cx="0"
       style="fill:#e32527" /><circle
       class="fil1"
       cy="11000"
       r="3780"
       id="circle3667"
       cx="0"
       style="fill:#000000" /><circle
       class="fil0"
       cy="11000"
       r="3661"
       id="circle3669"
       cx="0"
       style="fill:#e32527" /><circle
       class="fil1"
       cy="11000"
       r="2520"
       id="circle3671"
       cx="0"
       style="fill:#000000" /><circle
       class="fil0"
       cy="11000"
       r="2402"
       id="circle3673"
       cx="0"
       style="fill:#e32527" /><circle
       class="fil1"
       cy="11000"
       r="2323"
       id="circle3675"
       cx="0"
       style="fill:#000000" /><path
       class="fil2"
       d="m -1194,8435 c 47,-56 88,-111 123,-168 l -129,-308 -80,34 c 40,118 62,215 67,291 9,124 -22,241 -90,350 -19,-13 -42,-24 -69,-34 67,-100 97,-205 88,-315 -4,-69 -23,-158 -59,-266 l -214,90 -24,-57 217,-91 c -17,-47 -36,-97 -59,-150 l 63,-26 c 22,53 42,103 59,150 l 423,-178 24,57 -285,120 110,260 c 49,-93 82,-189 98,-286 l 67,14 c -22,121 -66,239 -131,354 l 19,44 c 18,44 46,58 83,43 l 88,-37 c 43,-18 60,-46 50,-85 -6,-28 -17,-67 -33,-119 24,0 48,-1 73,-2 14,56 23,98 29,126 9,62 -17,106 -81,133 l -116,48 c -68,29 -118,7 -148,-65 l -7,-16 c -28,43 -60,86 -95,128 -17,-15 -37,-28 -61,-39 z m -6,-669 18,-57 c 59,11 113,24 161,40 l -21,66 c -48,-18 -101,-34 -158,-49 z m 1151,-204 391,-2 c -3,44 -5,78 -6,104 -4,84 -46,125 -125,124 -21,0 -55,-1 -102,-3 -3,-21 -7,-42 -10,-64 39,5 74,8 105,9 45,1 70,-21 73,-68 2,-14 3,-29 4,-46 l -270,1 1,235 334,-2 1,48 c -21,95 -59,179 -115,249 46,45 102,79 170,103 -18,22 -33,42 -46,59 -65,-31 -120,-69 -165,-115 -40,41 -87,77 -142,109 -10,-18 -21,-36 -32,-54 52,-28 98,-61 136,-100 -52,-68 -87,-149 -103,-244 l -38,0 3,404 -61,1 -3,-748 z m -289,-2 223,-1 3,660 c 0,54 -24,81 -73,82 -27,0 -52,-1 -75,-3 -2,-16 -6,-35 -10,-57 27,4 50,6 70,6 21,0 32,-11 32,-34 l -1,-187 -111,1 c 3,124 -19,220 -64,286 -12,-16 -26,-31 -44,-46 35,-56 53,-135 52,-237 l -2,-470 z m 622,343 -180,1 c 17,78 46,145 88,199 44,-57 74,-123 92,-200 z m -564,73 111,0 -1,-157 -111,0 1,157 z m 109,-364 -111,1 1,156 111,-1 -1,-156 z m 1289,70 47,45 c -18,15 -37,29 -55,42 l 401,149 -19,51 c -68,41 -149,67 -245,81 72,62 164,118 276,168 -25,17 -47,33 -66,49 -122,-66 -219,-136 -291,-210 -114,6 -245,-4 -394,-31 -2,-19 -6,-40 -10,-64 131,26 249,38 353,37 -43,-57 -72,-115 -88,-176 -56,32 -115,60 -176,82 -9,-21 -17,-40 -25,-56 118,-40 216,-96 292,-167 z m -322,389 216,80 c 13,-23 26,-50 40,-79 l 60,22 c -15,29 -28,56 -41,79 l 299,112 c -38,89 -67,151 -85,186 -35,68 -90,89 -165,62 -29,-11 -73,-28 -130,-52 4,-20 8,-43 12,-68 55,27 101,47 138,61 43,15 74,1 94,-40 19,-36 37,-75 55,-118 l -247,-92 c -72,112 -197,167 -375,163 -6,-21 -11,-42 -18,-64 160,5 271,-35 333,-122 l -206,-76 20,-54 z m 617,-132 -331,-123 c 21,64 57,123 108,178 84,-8 158,-26 223,-55 z"
       id="path3677"
       inkscape:connector-curvature="0"
       style="fill:#ffffff;fill-rule:nonzero" /><circle
       class="fil3"
       cy="11000"
       r="3898"
       id="circle3679"
       cx="0"
       style="fill:none" /><circle
       class="fil3"
       cy="11000"
       r="3898"
       id="circle3681"
       cx="0"
       style="fill:none" /><path
       class="fil4"
       d="m -2500,9215 c 75,-32 173,-103 282,-292 109,-188 122,-309 112,-390 -76,32 -174,103 -282,292 -109,188 -122,309 -112,390 z m -416,2983 c 12,-98 -3,-242 -134,-468 -130,-226 -248,-312 -338,-350 -12,97 3,242 134,468 130,226 248,311 338,350 z m 139,-974 c 44,69 83,184 64,400 -19,217 -78,323 -132,384 -44,-70 -83,-184 -64,-401 19,-216 77,-322 132,-383 z m -349,173 c 37,-91 60,-235 -8,-487 -67,-252 -159,-365 -236,-425 -37,91 -60,234 8,487 67,252 159,365 236,425 z m 387,-905 c 23,79 32,200 -43,404 -74,204 -158,291 -227,336 -23,-78 -32,-199 42,-403 75,-205 159,-292 228,-337 z m -382,78 c 59,-79 118,-212 118,-473 0,-261 -59,-393 -118,-472 -59,79 -119,211 -119,472 0,261 60,394 119,473 z m 607,-775 c 3,82 -20,201 -145,379 -125,179 -229,241 -307,266 -2,-82 21,-200 146,-378 124,-179 228,-241 306,-267 z m -389,-24 c 77,-60 169,-173 236,-425 68,-252 45,-396 9,-487 -78,60 -169,173 -237,425 -67,252 -45,396 -8,487 z m 787,-590 c -18,80 -72,188 -238,328 -167,140 -283,173 -365,178 19,-80 72,-189 238,-329 167,-139 283,-173 365,-177 z"
       id="path3683"
       inkscape:connector-curvature="0"
       style="fill:#ffffff" /><path
       class="fil4"
       d="m 2500,9215 c -75,-32 -173,-103 -282,-292 -109,-188 -122,-309 -112,-390 76,32 174,103 282,292 109,188 122,309 112,390 z m 416,2983 c -12,-98 3,-242 134,-468 130,-226 248,-312 338,-350 12,97 -3,242 -134,468 -130,226 -248,311 -338,350 z m -139,-974 c -44,69 -83,184 -64,400 19,217 78,323 132,384 44,-70 83,-184 64,-401 -19,-216 -78,-322 -132,-383 z m 349,173 c -37,-91 -60,-235 8,-487 67,-252 159,-365 236,-425 37,91 60,234 -8,487 -67,252 -159,365 -236,425 z m -387,-905 c -23,79 -32,200 43,404 74,204 158,291 227,336 23,-78 32,-199 -43,-403 -74,-205 -158,-292 -227,-337 z m 382,78 c -59,-79 -118,-212 -118,-473 0,-261 59,-393 118,-472 59,79 119,211 119,472 0,261 -60,394 -119,473 z m -607,-775 c -3,82 20,201 145,379 125,179 229,241 307,266 2,-82 -21,-200 -146,-378 -124,-179 -228,-241 -306,-267 z m 389,-24 c -77,-60 -169,-173 -236,-425 -68,-252 -45,-396 -9,-487 78,60 169,173 237,425 67,252 45,396 8,487 z m -787,-590 c 18,80 72,188 238,328 167,140 283,173 365,178 -19,-80 -72,-189 -238,-329 -167,-139 -283,-173 -365,-177 z"
       id="path3685"
       inkscape:connector-curvature="0"
       style="fill:#ffffff" /><path
       class="fil2"
       d="m -2424,12532 -466,302 -57,-88 466,-302 57,88 z m 455,576 -422,363 -68,-80 229,-198 c 19,-15 40,-33 64,-52 l 33,-25 32,-26 -2,-2 -37,16 -38,16 c -33,14 -59,24 -75,30 l -317,112 -63,-73 155,-297 c 8,-16 22,-39 41,-70 l 21,-35 21,-35 -3,-2 -29,28 -29,28 c -23,22 -43,40 -60,55 l -230,197 -68,-79 421,-363 112,130 -130,243 c -10,17 -23,41 -41,71 l -21,34 -21,35 2,3 37,-16 37,-16 c 31,-14 56,-24 75,-30 l 259,-95 115,133 z m -297,466 343,-437 176,138 22,17 c 59,46 91,87 95,124 5,37 -16,85 -63,144 -46,59 -86,90 -121,94 -34,4 -82,-18 -142,-65 l -19,-14 -98,-77 -110,141 -83,-65 z m 248,-146 94,74 c 38,30 65,44 83,44 16,-1 38,-18 63,-50 29,-37 43,-64 42,-79 -2,-16 -20,-38 -56,-65 l -103,-81 -123,157 z m 531,127 -73,124 225,132 -39,67 -225,-132 -79,136 239,140 -44,76 -331,-193 281,-480 328,192 -45,76 -237,-138 z m 135,599 186,-524 258,92 c 64,22 104,49 120,80 17,31 14,75 -6,134 -19,53 -38,87 -57,102 -19,15 -48,20 -88,14 l -2,3 c 57,24 74,69 51,133 l -41,115 -99,-35 34,-96 c 19,-54 2,-90 -51,-109 l -143,-51 -63,177 -99,-35 z m 191,-225 143,51 c 34,12 59,14 74,5 16,-8 30,-30 43,-67 13,-38 17,-64 11,-78 -6,-14 -25,-27 -57,-38 l -150,-54 -64,181 z m 606,-113 -123,542 -103,-24 124,-541 102,23 z m 378,497 -239,-18 -43,104 -111,-9 226,-540 158,12 145,568 -109,-8 -27,-109 z m -19,-79 -74,-296 -116,282 190,14 z m 329,-368 35,460 260,-19 7,94 -364,27 -42,-554 104,-8 z m 971,264 -228,75 0,112 -106,35 3,-586 150,-49 352,469 -104,35 -67,-91 z m -47,-66 -182,-245 1,304 181,-59 z m 376,-283 217,-114 52,97 c 38,71 49,124 33,159 -16,34 -70,76 -163,125 -85,44 -148,60 -190,48 -42,-13 -85,-62 -130,-146 -56,-107 -87,-178 -91,-212 -4,-42 4,-76 26,-103 21,-27 66,-58 132,-93 88,-46 149,-66 184,-61 35,5 70,40 103,103 l -94,50 c -19,-31 -36,-48 -53,-49 -16,-1 -49,11 -99,38 -54,28 -85,53 -92,74 -8,21 2,56 28,106 l 25,49 34,63 c 26,49 50,76 71,82 22,6 59,-5 111,-33 51,-26 80,-49 88,-68 8,-18 1,-49 -22,-91 l -10,-21 -124,65 -36,-68 z m 273,-367 84,117 212,-151 45,63 -212,152 91,128 226,-161 51,72 -311,222 -323,-453 310,-221 51,72 -224,160 z m 555,-631 404,383 -123,129 -330,-94 c -17,-5 -45,-14 -84,-28 l -41,-15 -41,-15 -3,3 28,24 27,24 54,50 231,219 -72,77 -404,-383 123,-129 304,89 c 27,8 59,18 96,30 l 48,16 47,16 3,-3 -27,-24 -27,-24 -52,-48 -233,-220 72,-77 z m 231,-179 390,247 -57,88 -390,-247 -86,136 -79,-50 231,-365 79,51 -88,140 z"
       id="path3687"
       inkscape:connector-curvature="0"
       style="fill:#ffffff;fill-rule:nonzero" /><path
       class="fil5"
       d="m -886,9996 c 335,98 788,-354 1083,-354 125,0 177,59 177,138 0,177 -214,178 -236,472 -7,87 -18,241 -29,411 461,-40 872,-536 718,-864 157,0 197,276 354,217 118,295 -635,632 -866,708 413,59 886,886 1634,729 44,-10 53,15 20,39 -217,158 -573,217 -650,217 -162,0 -236,-40 -374,-178 -262,-261 -605,-733 -840,-801 -14,230 -26,476 -26,624 0,552 78,630 78,729 0,59 -19,78 -98,157 -59,59 -138,59 -177,59 -118,0 -453,-393 -591,-590 -22,-33 9,-64 40,-40 98,79 315,237 374,237 157,0 59,-1004 236,-1792 -138,118 -295,197 -394,197 -124,0 -413,-177 -433,-315 z m -571,689 c 99,39 235,59 315,59 256,0 327,-256 611,-256 78,0 157,20 157,158 0,275 -630,984 -1575,1417 -40,18 -70,-25 -20,-59 584,-401 1398,-1181 1359,-1221 -20,-19 -138,119 -492,119 -276,0 -355,-171 -355,-217 z M -374,9071 c 217,-39 827,98 827,315 0,79 -118,177 -276,177 -256,0 -300,-365 -551,-433 -38,-10 -39,-52 0,-59 z"
       id="path3689"
       inkscape:connector-curvature="0"
       style="fill:#e2001a" /></g></svg>