<?xml version="1.0" encoding="UTF-8" standalone="no"?>
<!-- Creator: CorelDRAW X7 -->

<svg
   xmlns:dc="http://purl.org/dc/elements/1.1/"
   xmlns:cc="http://creativecommons.org/ns#"
   xmlns:rdf="http://www.w3.org/1999/02/22-rdf-syntax-ns#"
   xmlns:svg="http://www.w3.org/2000/svg"
   xmlns="http://www.w3.org/2000/svg"
   xmlns:sodipodi="http://sodipodi.sourceforge.net/DTD/sodipodi-0.dtd"
   xmlns:inkscape="http://www.inkscape.org/namespaces/inkscape"
   xml:space="preserve"
   width="7.8740005in"
   height="7.8740005in"
   version="1.1"
   style="clip-rule:evenodd;fill-rule:evenodd;image-rendering:optimizeQuality;shape-rendering:geometricPrecision;text-rendering:geometricPrecision"
   viewBox="0 0 7874.0005 7874.0005"
   id="svg4235"
   inkscape:version="0.91 r13725"
   sodipodi:docname="Yu Jing - Remote 3 Son-Bae Yaokong - [N3] [Vyo].svg"><metadata
     id="metadata4292"><rdf:RDF><cc:Work
         rdf:about=""><dc:format>image/svg+xml</dc:format><dc:type
           rdf:resource="http://purl.org/dc/dcmitype/StillImage" /></cc:Work></rdf:RDF></metadata><sodipodi:namedview
     pagecolor="#ffffff"
     bordercolor="#666666"
     borderopacity="1"
     objecttolerance="10"
     gridtolerance="10"
     guidetolerance="10"
     inkscape:pageopacity="0"
     inkscape:pageshadow="2"
     inkscape:window-width="640"
     inkscape:window-height="480"
     id="namedview4290"
     showgrid="false"
     inkscape:zoom="0.23838384"
     inkscape:cx="736.83001"
     inkscape:cy="849.33005"
     inkscape:window-x="0"
     inkscape:window-y="0"
     inkscape:window-maximized="0"
     inkscape:current-layer="svg4235" /><defs
     id="defs4237"><style
       type="text/css"
       id="style4239"><![CDATA[
    .fil2 {fill:none}
    .fil0 {fill:#E2001A}
    .fil1 {fill:white}
    .fil4 {fill:#E2001A;fill-rule:nonzero}
    .fil3 {fill:white;fill-rule:nonzero}
   ]]></style></defs><g
     id="Layer_x0020_1"
     transform="translate(3937,-7063)"><metadata
       id="CorelCorpID_0Corel-Layer" /><circle
       class="fil0"
       cy="11000"
       r="3937"
       id="circle4243"
       cx="0"
       style="fill:#e2001a" /><circle
       class="fil1"
       cy="11000"
       r="3819"
       id="circle4245"
       cx="0"
       style="fill:#ffffff" /><path
       class="fil0"
       d="M 0,8677 1850,11000 0,13323 -1850,11000 0,8677 Z M 0,8804 -1750,11000 0,13196 0,8804 Z"
       id="path4247"
       inkscape:connector-curvature="0"
       style="fill:#e2001a" /><circle
       class="fil2"
       cy="11000"
       r="3898"
       id="circle4249"
       cx="0"
       style="fill:none" /><path
       class="fil0"
       d="m -2659,8563 c 25,-28 54,-2 28,26 -491,576 -752,1276 -823,1976 l -184,-184 c 130,-669 466,-1295 979,-1818 z m 227,209 c -510,515 -846,1167 -936,1879 l 94,94 122,-123 c 64,-662 317,-1316 749,-1824 25,-29 -2,-53 -29,-26 z m -883,2096 c -2,44 -2,88 -2,132 0,145 9,289 27,429 l -407,-218 c -4,-70 -6,-140 -6,-211 0,-166 11,-329 32,-489 l 356,357 z m 47,703 c 35,205 89,403 161,593 l -448,-122 c -65,-224 -110,-456 -132,-695 l 419,224 z m 214,728 c 116,270 266,522 445,750 l -476,0 c -179,-270 -324,-564 -429,-876 l 460,126 z m 540,866 c 54,62 110,122 168,181 215,215 459,400 726,550 l -537,114 c -164,-118 -319,-249 -462,-391 -140,-141 -269,-293 -386,-454 l 491,0 z m -284,-2733 c -21,105 -37,213 -46,323 l -374,624 c -15,-125 -22,-251 -22,-379 0,-43 1,-86 2,-128 l 440,-440 z m -57,564 c 0,125 8,250 24,373 l -219,727 c -62,-173 -110,-352 -142,-537 l 337,-563 z m 68,626 c 49,217 121,424 216,619 l 1,732 c -166,-215 -304,-451 -412,-703 l 195,-648 z m 331,834 c 122,205 269,394 438,562 94,95 196,184 303,264 l 140,550 c -264,-147 -505,-329 -716,-541 -57,-56 -112,-115 -164,-176 l -1,-659 z m -321,-2209 c 102,-438 291,-873 601,-1241 25,-29 -1,-53 -28,-26 -435,437 -721,961 -829,1524 l 256,-257 z"
       id="path4251"
       inkscape:connector-curvature="0"
       style="fill:#e2001a" /><path
       class="fil0"
       d="m 2659,8563 c -25,-28 -54,-2 -28,26 491,576 752,1276 823,1976 l 184,-184 C 3508,9712 3172,9086 2659,8563 Z m -227,209 c 510,515 846,1167 936,1879 l -94,94 -122,-123 c -64,-662 -317,-1316 -749,-1824 -25,-29 2,-53 29,-26 z m 883,2096 c 2,44 2,88 2,132 0,145 -9,289 -27,429 l 407,-218 c 4,-70 6,-140 6,-211 0,-166 -11,-329 -32,-489 l -356,357 z m -47,703 c -35,205 -89,403 -161,593 l 448,-122 c 65,-224 110,-456 132,-695 l -419,224 z m -214,728 c -116,270 -266,522 -445,750 l 476,0 c 179,-270 324,-564 429,-876 l -460,126 z m -540,866 c -54,62 -110,122 -168,181 -215,215 -459,400 -726,550 l 537,114 c 164,-118 319,-249 462,-391 140,-141 269,-293 386,-454 l -491,0 z m 284,-2733 c 21,105 37,213 46,323 l 374,624 c 15,-125 22,-251 22,-379 0,-43 -1,-86 -2,-128 l -440,-440 z m 57,564 c 0,125 -8,250 -24,373 l 219,727 c 62,-173 110,-352 142,-537 l -337,-563 z m -68,626 c -49,217 -121,424 -216,619 l -1,732 c 166,-215 304,-451 412,-703 l -195,-648 z m -331,834 c -122,205 -269,394 -438,562 -94,95 -196,184 -303,264 l -140,550 c 264,-147 505,-329 716,-541 57,-56 112,-115 164,-176 l 1,-659 z m 321,-2209 c -102,-438 -291,-873 -601,-1241 -25,-29 1,-53 28,-26 435,437 721,961 829,1524 l -256,-257 z"
       id="path4253"
       inkscape:connector-curvature="0"
       style="fill:#e2001a" /><path
       class="fil0"
       d="m 0,14703 c -748,0 -1443,-221 -2025,-602 l 604,-129 -148,-587 c 450,297 989,470 1569,470 580,0 1119,-173 1569,-470 l -148,587 604,129 c -582,381 -1277,602 -2025,602 z"
       id="path4255"
       inkscape:connector-curvature="0"
       style="fill:#e2001a" /><circle
       class="fil2"
       cy="11000"
       r="3819"
       id="circle4257"
       cx="0"
       style="fill:none" /><path
       class="fil3"
       d="m -806,14463 324,42 34,-262 -274,-36 7,-59 275,37 26,-198 -294,-39 8,-58 662,87 -8,59 -303,-40 -26,197 284,38 -8,58 -284,-37 -34,262 332,44 -7,59 -722,-96 8,-58 z m 495,-130 52,-30 c 36,54 68,106 97,157 l -57,33 c -24,-46 -54,-100 -92,-160 z m 431,-200 538,-71 34,254 -59,8 -4,-30 -173,23 25,191 c 8,59 -16,93 -73,101 -36,5 -69,10 -99,14 -6,-22 -12,-41 -19,-60 34,-1 63,-4 88,-7 32,-3 45,-22 41,-55 l -23,-176 -188,24 5,34 -59,8 -34,-258 z m 486,-12 -421,56 16,120 421,-55 -16,-121 z m -600,-95 348,-46 c -18,-25 -38,-50 -60,-76 l 52,-34 c 24,27 47,56 71,86 l -28,19 354,-46 7,52 -737,98 -7,-53 z m 248,382 47,40 c -61,59 -122,114 -184,166 -12,-16 -26,-32 -42,-46 64,-49 123,-102 179,-160 z m 298,12 30,-50 c 74,31 145,64 214,97 l -33,57 c -58,-32 -129,-67 -211,-104 z"
       id="path4259"
       inkscape:connector-curvature="0"
       style="fill:#ffffff;fill-rule:nonzero" /><circle
       class="fil2"
       cy="11000"
       r="3898"
       id="circle4261"
       cx="0"
       style="fill:none" /><circle
       class="fil2"
       cy="11000"
       r="3898"
       id="circle4263"
       cx="0"
       style="fill:none" /><g
       id="_1111267584"><path
         class="fil1"
         d="m -827,10685 1654,0 c 108,0 197,88 197,197 0,108 -89,197 -197,197 l -1654,0 c -108,0 -197,-89 -197,-197 0,-109 89,-197 197,-197 z"
         id="path4266"
         inkscape:connector-curvature="0"
         style="fill:#ffffff" /><path
         class="fil0"
         d="m -827,10764 1654,0 c 65,0 118,53 118,118 0,65 -53,118 -118,118 l -1654,0 c -65,0 -118,-53 -118,-118 0,-65 53,-118 118,-118 z"
         id="path4268"
         inkscape:connector-curvature="0"
         style="fill:#e2001a" /></g><g
       id="_1111268256"><path
         class="fil1"
         d="m -827,11197 1654,0 c 108,0 197,88 197,197 0,108 -89,197 -197,197 l -1654,0 c -108,0 -197,-89 -197,-197 0,-109 89,-197 197,-197 z"
         id="path4271"
         inkscape:connector-curvature="0"
         style="fill:#ffffff" /><path
         class="fil0"
         d="m -827,11276 1654,0 c 65,0 118,53 118,118 0,65 -53,118 -118,118 l -1654,0 c -65,0 -118,-53 -118,-118 0,-65 53,-118 118,-118 z"
         id="path4273"
         inkscape:connector-curvature="0"
         style="fill:#e2001a" /></g><path
       class="fil4"
       d="m -1275,8434 c -33,19 -64,31 -91,36 -27,6 -53,10 -80,11 l -42,-77 5,-2 c 30,8 61,10 93,6 31,-3 58,-11 82,-24 34,-19 56,-40 65,-63 10,-24 8,-47 -4,-70 -10,-19 -23,-31 -38,-38 -16,-6 -35,-7 -58,-2 -16,4 -31,7 -44,11 -13,4 -30,8 -50,13 -18,5 -36,7 -52,8 -16,0 -31,-2 -47,-7 -15,-5 -28,-13 -41,-24 -13,-10 -24,-25 -34,-43 -20,-37 -23,-76 -8,-118 16,-41 46,-73 91,-98 25,-14 51,-25 77,-32 26,-8 51,-12 76,-13 l 40,73 -5,2 c -22,-5 -47,-6 -75,-4 -29,3 -55,11 -80,25 -29,15 -48,34 -58,57 -11,23 -10,45 2,67 11,20 24,32 41,38 17,6 36,7 59,1 15,-3 33,-8 54,-14 21,-6 39,-10 53,-13 37,-8 68,-6 94,6 25,12 46,32 61,60 10,18 16,38 18,60 2,21 0,42 -6,61 -8,21 -19,41 -34,58 -14,18 -36,34 -64,49 z"
       id="path4275"
       inkscape:connector-curvature="0"
       style="fill:#e2001a;fill-rule:nonzero" /><path
       id="1"
       class="fil4"
       d="m -807,7753 c 26,16 49,39 69,68 21,29 37,65 50,107 12,41 18,79 18,115 0,36 -7,68 -20,97 -13,29 -32,54 -56,73 -24,20 -52,34 -85,44 -34,10 -66,14 -97,11 -31,-3 -59,-13 -86,-30 -26,-17 -49,-40 -69,-69 -21,-30 -37,-65 -50,-106 -12,-42 -18,-81 -18,-116 1,-35 8,-67 20,-96 13,-28 31,-52 55,-72 23,-20 52,-35 86,-46 34,-10 67,-13 98,-10 31,4 59,14 85,30 z m 50,196 c -10,-33 -23,-62 -38,-85 -15,-24 -32,-42 -50,-55 -18,-13 -38,-21 -60,-24 -21,-3 -44,-1 -67,6 -24,7 -44,18 -60,32 -16,14 -28,32 -36,54 -8,21 -12,46 -11,74 0,28 6,58 16,91 20,66 49,112 87,139 39,26 81,33 128,18 46,-14 78,-42 95,-86 17,-43 16,-98 -4,-164 z"
       inkscape:connector-curvature="0"
       style="fill:#e2001a;fill-rule:nonzero" /><polygon
       id="2"
       class="fil4"
       points="-448,8160 -512,8170 -590,7650 -492,7635 -221,8016 -282,7604 -218,7595 -140,8114 -218,8126 -515,7712 "
       style="fill:#e2001a;fill-rule:nonzero" /><polygon
       id="3"
       class="fil4"
       points="171,7868 170,7931 -29,7927 -27,7865 "
       style="fill:#e2001a;fill-rule:nonzero" /><path
       id="4"
       class="fil4"
       d="m 651,8029 c -4,25 -12,48 -25,66 -13,18 -28,32 -47,43 -22,12 -44,20 -68,23 -23,3 -52,2 -87,-4 l -149,-22 78,-519 137,21 c 37,5 65,11 83,16 18,5 35,14 51,25 17,13 28,28 34,45 7,18 8,38 5,59 -4,25 -14,46 -29,63 -16,17 -36,30 -61,37 l 0,3 c 30,13 51,32 65,57 14,24 18,54 13,87 z m -61,-247 c 2,-12 1,-24 -2,-33 -2,-10 -8,-18 -17,-25 -10,-8 -22,-14 -35,-17 -14,-4 -32,-7 -57,-11 l -66,-10 -23,151 79,12 c 21,3 38,5 48,4 11,-1 22,-4 34,-9 11,-5 20,-13 26,-23 6,-10 10,-23 13,-39 z m -11,238 c 3,-19 3,-36 -1,-49 -4,-13 -13,-26 -29,-37 -10,-8 -22,-13 -34,-17 -13,-3 -31,-7 -55,-10 l -78,-12 -29,190 56,9 c 30,5 54,7 72,7 18,-1 34,-4 49,-11 14,-7 25,-16 33,-27 8,-10 13,-24 16,-43 z"
       inkscape:connector-curvature="0"
       style="fill:#e2001a;fill-rule:nonzero" /><path
       id="5"
       class="fil4"
       d="m 664,8188 335,-441 81,27 1,554 -70,-23 2,-153 -191,-64 -91,123 -67,-23 z m 350,-100 1,-260 -155,209 154,51 z"
       inkscape:connector-curvature="0"
       style="fill:#e2001a;fill-rule:nonzero" /><polygon
       id="6"
       class="fil4"
       points="1657,8102 1428,7980 1361,8106 1574,8220 1545,8275 1332,8161 1240,8333 1468,8455 1439,8510 1149,8355 1396,7892 1687,8047 "
       style="fill:#e2001a;fill-rule:nonzero" /><circle
       class="fil2"
       cy="11000"
       r="3898"
       id="circle4283"
       cx="0"
       style="fill:none" /><g
       id="_1111258976"><path
         class="fil1"
         d="m -827,10173 1654,0 c 108,0 197,89 197,197 0,109 -89,197 -197,197 l -1654,0 c -108,0 -197,-88 -197,-197 0,-108 89,-197 197,-197 z"
         id="path4286"
         inkscape:connector-curvature="0"
         style="fill:#ffffff" /><path
         class="fil0"
         d="m -827,10252 1654,0 c 65,0 118,53 118,118 0,65 -53,118 -118,118 l -1654,0 c -65,0 -118,-53 -118,-118 0,-65 53,-118 118,-118 z"
         id="path4288"
         inkscape:connector-curvature="0"
         style="fill:#e2001a" /></g></g></svg>