<?xml version="1.0" encoding="UTF-8" standalone="no"?>
<!-- Creator: CorelDRAW X7 -->

<svg
   xmlns:dc="http://purl.org/dc/elements/1.1/"
   xmlns:cc="http://creativecommons.org/ns#"
   xmlns:rdf="http://www.w3.org/1999/02/22-rdf-syntax-ns#"
   xmlns:svg="http://www.w3.org/2000/svg"
   xmlns="http://www.w3.org/2000/svg"
   xmlns:sodipodi="http://sodipodi.sourceforge.net/DTD/sodipodi-0.dtd"
   xmlns:inkscape="http://www.inkscape.org/namespaces/inkscape"
   xml:space="preserve"
   width="7.8740005in"
   height="7.8740005in"
   version="1.1"
   style="clip-rule:evenodd;fill-rule:evenodd;image-rendering:optimizeQuality;shape-rendering:geometricPrecision;text-rendering:geometricPrecision"
   viewBox="0 0 7874.0005 7874.0005"
   id="svg3531"
   inkscape:version="0.91 r13725"
   sodipodi:docname="Yu Jing - Guilang Skirmishers [N3] [Vyo].svg"><metadata
     id="metadata3596"><rdf:RDF><cc:Work
         rdf:about=""><dc:format>image/svg+xml</dc:format><dc:type
           rdf:resource="http://purl.org/dc/dcmitype/StillImage" /></cc:Work></rdf:RDF></metadata><sodipodi:namedview
     pagecolor="#ffffff"
     bordercolor="#666666"
     borderopacity="1"
     objecttolerance="10"
     gridtolerance="10"
     guidetolerance="10"
     inkscape:pageopacity="0"
     inkscape:pageshadow="2"
     inkscape:window-width="640"
     inkscape:window-height="480"
     id="namedview3594"
     showgrid="false"
     inkscape:zoom="0.23838384"
     inkscape:cx="736.83001"
     inkscape:cy="849.33005"
     inkscape:window-x="0"
     inkscape:window-y="0"
     inkscape:window-maximized="0"
     inkscape:current-layer="svg3531" /><defs
     id="defs3533"><style
       type="text/css"
       id="style3535"><![CDATA[
    .str0 {stroke:black;stroke-width:19.685;stroke-linecap:round}
    .fil5 {fill:none}
    .fil7 {fill:none;fill-rule:nonzero}
    .fil0 {fill:black}
    .fil2 {fill:#3688B8}
    .fil4 {fill:#E32527}
    .fil3 {fill:#FFF700}
    .fil1 {fill:white}
    .fil8 {fill:white}
    .fil6 {fill:black;fill-rule:nonzero}
   ]]></style></defs><g
     id="Layer_x0020_1"
     transform="translate(3937,-7063)"><metadata
       id="CorelCorpID_0Corel-Layer" /><circle
       class="fil0"
       cy="11000"
       r="3937"
       id="circle3539"
       cx="0"
       style="fill:#000000" /><circle
       class="fil1"
       cy="11000"
       r="3819"
       id="circle3541"
       cx="0"
       style="fill:#ffffff" /><circle
       class="fil0"
       cy="11000"
       r="3071"
       id="circle3543"
       cx="0"
       style="fill:#000000" /><circle
       class="fil2"
       cy="11000"
       r="2992"
       id="circle3545"
       cx="0"
       style="fill:#3688b8" /><path
       class="fil3"
       d="m -1247,13102 141,303 -302,141 610,222 303,-141 -141,-303 -611,-222 z m 2444,-4233 333,-29 -29,-333 497,418 29,333 -332,29 -498,-418 z m 656,538 323,87 87,-323 324,562 -86,323 -323,-86 -325,-563 z m 433,730 274,192 192,-274 113,640 -192,273 -274,-191 -113,-640 z m 158,834 191,274 274,-192 -113,640 -273,192 -192,-274 113,-640 z m -138,838 87,322 322,-86 -324,562 -323,87 -87,-323 325,-562 z m -415,740 -30,332 333,30 -497,417 -333,-29 29,-333 498,-417 z m -644,553 -141,303 302,141 -610,222 -303,-141 141,-303 611,-222 z m -1345,536 196,0 0,236 -196,0 0,-236 z m 236,236 84,-336 217,-83 -104,419 -197,0 z m -276,0 -84,-336 -217,-83 104,419 197,0 z m -1059,-5005 -333,-29 29,-333 -497,418 -29,333 333,29 497,-418 z m -656,538 -323,87 -87,-323 -324,562 86,323 323,-86 325,-563 z m -433,730 -274,192 -192,-274 -113,640 192,273 274,-191 113,-640 z m -158,834 -191,274 -274,-192 113,640 273,192 192,-274 -113,-640 z m 138,838 -87,322 -322,-86 324,562 323,87 87,-323 -325,-562 z m 415,740 30,332 -333,30 497,417 333,-29 -29,-333 -498,-417 z"
       id="path3547"
       inkscape:connector-curvature="0"
       style="fill:#fff700" /><polygon
       class="fil3"
       points="300,8972 486,9543 0,9190 -486,9543 -300,8972 -786,8619 -186,8619 0,8047 186,8619 786,8619 "
       id="polygon3549"
       style="fill:#fff700" /><polygon
       class="fil4"
       points="-254,8957 -411,9440 0,9141 411,9440 254,8957 665,8658 157,8658 0,8175 -157,8658 -665,8658 "
       id="polygon3551"
       style="fill:#e32527" /><circle
       class="fil5"
       cy="11000"
       r="3898"
       id="circle3553"
       cx="0"
       style="fill:none" /><path
       class="fil6"
       d="m -3531,12069 -60,-264 c -9,-35 1,-60 29,-74 6,-4 14,-6 22,-8 l 297,-68 c 17,-4 34,-2 51,8 16,9 26,24 31,43 l 58,253 -66,15 -59,-253 -297,69 46,197 129,-30 -30,-131 66,-16 46,198 -263,61 z m 171,443 -25,-64 187,-74 -71,-177 -187,74 -25,-63 410,-164 25,64 -160,63 71,178 160,-64 25,63 -410,164 z m 284,385 c -39,22 -70,14 -93,-26 l -100,-175 c -18,-32 -16,-59 7,-80 5,-5 11,-9 18,-13 l 265,-152 c 16,-9 33,-11 51,-6 18,4 32,15 42,32 l 101,175 c 9,17 11,34 6,53 -5,18 -16,31 -32,41 l -265,151 z m -34,-59 265,-152 -100,-175 -265,151 100,176 z m 288,426 c -16,11 -32,16 -49,13 -19,-2 -34,-12 -46,-29 l -140,-198 56,-39 140,197 108,-76 -104,-147 c -9,-14 -14,-28 -14,-43 1,-15 6,-28 17,-40 4,-4 8,-8 14,-12 l 84,-60 c 15,-11 32,-14 50,-12 19,3 34,12 46,28 l 129,183 -55,40 -130,-184 -85,60 104,147 c 11,16 15,33 12,51 -3,19 -13,33 -28,44 l -109,77 z m 532,125 -94,-98 -270,258 -47,-49 270,-258 -93,-98 49,-47 234,245 -49,47 z m 706,458 -366,282 -55,-39 111,-274 -222,195 -55,-39 145,-439 58,41 -124,346 267,-244 41,29 -142,332 285,-230 57,40 z m 195,490 c -19,41 -49,52 -90,33 l -185,-83 c -33,-15 -47,-38 -41,-69 2,-7 4,-14 7,-22 l 127,-277 c 7,-17 20,-28 37,-36 18,-7 35,-6 53,2 l 184,83 c 18,8 30,21 36,39 7,17 6,35 -2,52 l -126,278 z m -62,-29 126,-277 -184,-84 -126,278 184,83 z m 408,226 -256,-89 144,-417 64,22 -121,353 192,66 -23,65 z m 450,-347 -231,400 -66,-15 -33,-461 69,16 17,367 175,-323 69,16 z m 300,486 -269,-35 57,-438 269,35 -8,68 -202,-27 -13,103 178,23 -9,68 -178,-23 -17,132 201,26 -9,68 z m 444,-58 c 0,20 -6,36 -18,48 -13,13 -30,20 -51,19 l -242,-5 1,-69 242,6 3,-133 -179,-4 c -18,-1 -32,-5 -43,-14 -12,-10 -19,-22 -22,-37 -2,-6 -2,-12 -2,-19 l 2,-104 c 1,-18 7,-33 20,-47 14,-13 30,-20 50,-19 l 224,5 -1,68 -225,-5 -2,104 180,4 c 19,0 35,7 48,21 13,13 19,29 18,48 l -3,133 z m 689,-95 c 3,19 0,36 -9,50 -10,16 -26,25 -47,29 l -238,42 -12,-68 239,-41 -23,-131 -177,31 c -17,3 -32,1 -45,-6 -13,-7 -23,-18 -29,-32 -2,-5 -4,-11 -5,-18 l -18,-102 c -3,-18 0,-34 10,-50 11,-16 26,-26 45,-29 l 221,-39 12,67 -221,39 18,102 177,-31 c 19,-3 36,1 51,11 15,11 25,26 28,45 l 23,131 z m 459,-73 -85,28 -228,-110 56,168 -65,21 -140,-418 65,-22 54,163 118,-220 85,-29 -153,281 293,138 z m 185,-78 -62,28 -182,-403 62,-28 182,403 z m 424,-221 -69,40 -252,-88 -14,8 100,175 -59,33 -219,-383 225,-128 c 16,-10 34,-12 52,-7 18,5 32,16 41,32 l 51,90 c 23,40 14,71 -25,93 l -87,50 256,85 z m -203,-194 -51,-90 -166,94 51,91 166,-95 z m 650,-113 -56,39 -156,-220 76,277 -59,43 -237,-164 156,221 -55,39 -256,-359 51,-37 331,223 -102,-386 51,-36 256,360 z m 157,-151 -49,47 -306,-319 50,-47 305,319 z m 267,-382 c 15,12 23,27 25,44 2,19 -4,36 -18,52 l -158,183 -52,-45 159,-183 -101,-87 -118,136 c -11,13 -24,21 -38,24 -14,3 -28,1 -42,-6 -6,-3 -11,-7 -16,-11 l -78,-68 c -14,-11 -22,-27 -24,-45 -2,-19 4,-36 17,-51 l 147,-170 51,45 -147,170 79,68 117,-136 c 13,-15 29,-23 47,-24 19,-1 35,4 50,17 l 100,87 z m 330,-330 -39,56 -164,-116 -111,155 164,117 -39,55 -360,-255 39,-56 141,100 110,-156 -140,-100 39,-55 360,255 z m 200,-365 -124,241 -392,-202 124,-241 61,31 -93,181 92,47 82,-160 61,32 -83,159 119,61 93,-180 60,31 z m 185,-440 -29,74 -251,89 -6,15 188,74 -25,63 -411,-161 94,-241 c 7,-18 19,-30 36,-38 18,-7 35,-7 52,0 l 97,37 c 42,17 55,46 39,89 l -37,93 253,-94 z m -280,-24 -97,-38 -69,178 97,38 69,-178 z m 328,-428 c 19,4 33,13 42,28 11,15 14,33 9,54 l -54,235 -67,-15 54,-236 -129,-30 -40,176 c -4,16 -12,29 -23,39 -11,9 -25,14 -40,14 -6,0 -13,-1 -19,-2 l -101,-23 c -18,-4 -32,-14 -42,-30 -11,-15 -14,-33 -10,-52 l 51,-219 66,15 -50,219 101,23 40,-175 c 5,-19 15,-33 31,-43 15,-10 33,-12 51,-8 l 130,30 z"
       id="path3555"
       inkscape:connector-curvature="0"
       style="fill:#000000;fill-rule:nonzero" /><path
       class="fil6"
       d="m -1294,7486 c 41,-4 62,-2 64,5 2,5 -8,12 -29,20 -5,20 -13,41 -23,61 l 257,-79 12,-33 c 17,4 31,10 40,16 5,2 7,5 8,7 1,4 -5,13 -17,27 l 39,127 c 9,31 16,51 20,60 4,12 8,21 10,28 2,6 1,12 -2,17 -5,4 -9,6 -13,8 -7,2 -12,1 -14,-5 l -3,-12 -135,42 61,198 c 1,3 3,6 5,9 2,2 5,3 9,4 4,0 9,0 16,0 11,-2 27,-6 47,-12 l 74,-23 c 21,-6 36,-11 45,-15 7,-4 13,-7 20,-10 5,-4 8,-7 10,-10 2,-4 3,-9 2,-15 0,-16 -3,-41 -10,-76 l 14,1 c 3,15 8,34 14,56 4,11 8,18 12,19 13,1 20,5 23,13 1,3 1,6 -1,9 -1,3 -4,7 -10,12 -7,5 -17,11 -31,17 -15,6 -41,15 -80,27 l -74,22 c -27,9 -47,13 -60,15 -11,2 -20,2 -28,1 -7,-3 -12,-6 -16,-11 -4,-5 -6,-9 -8,-13 l -64,-209 -73,22 c 7,34 11,61 11,81 0,19 -3,38 -7,57 -4,24 -11,44 -21,63 -10,18 -24,37 -43,58 -18,21 -42,44 -71,67 l -8,-12 c 26,-22 47,-43 60,-62 14,-16 26,-34 34,-53 9,-17 15,-35 20,-54 3,-19 4,-38 3,-56 0,-22 -4,-48 -10,-79 l -70,21 4,12 c 2,6 -1,9 -9,12 -4,1 -9,1 -16,0 -5,-2 -9,-6 -10,-12 -2,-7 -5,-17 -7,-29 -1,-10 -6,-31 -16,-61 l -43,-140 c -5,-16 -11,-30 -17,-40 l 45,15 58,-17 c 4,-16 7,-30 7,-44 0,-13 -2,-28 -5,-47 z m 4,333 145,-44 -30,-97 -145,45 30,96 z m 175,-53 164,-51 -30,-96 -164,50 30,97 z m -210,-61 145,-44 -29,-93 -144,45 28,92 z m 146,-146 29,93 164,-51 -28,-92 -165,50 z m 198,212 c 21,1 39,3 55,5 3,2 5,4 6,7 1,3 -2,6 -8,10 -7,4 -13,6 -17,7 -1,15 -4,30 -8,44 -5,13 -9,26 -14,38 -4,6 -8,13 -13,21 10,-5 22,-9 33,-14 23,-9 48,-20 74,-34 -5,-6 -10,-11 -15,-15 -6,-5 -15,-11 -25,-17 l 5,-9 c 12,3 22,8 31,13 10,3 18,8 25,13 7,4 12,8 15,12 4,3 6,7 8,12 2,6 2,12 1,16 -2,6 -6,9 -10,10 -2,1 -4,1 -6,-1 -2,0 -5,-4 -8,-9 -3,-5 -6,-9 -10,-13 -28,22 -61,44 -100,65 -2,18 -4,28 -6,29 -3,1 -6,-1 -9,-4 -10,-12 -20,-27 -31,-45 l 8,-2 c 6,-13 10,-24 12,-35 3,-11 5,-23 7,-36 1,-12 2,-24 3,-36 0,-10 -1,-20 -3,-32 z"
       id="path3557"
       inkscape:connector-curvature="0"
       style="fill:#000000;fill-rule:nonzero" /><path
       id="1"
       class="fil6"
       d="m -555,7310 c 21,4 40,9 58,15 3,2 4,4 5,6 0,4 -2,7 -7,10 -10,4 -19,7 -27,8 -9,18 -19,35 -31,51 -8,13 -18,27 -29,41 1,1 3,3 4,4 17,21 32,42 44,65 11,22 21,47 29,75 6,24 11,52 16,85 7,54 10,102 8,144 1,20 -1,35 -6,46 -5,12 -12,24 -22,34 -10,11 -24,20 -42,26 -1,-9 -4,-15 -8,-18 -4,-5 -10,-7 -19,-9 -11,-2 -26,-2 -44,0 l 2,-16 c 24,2 45,1 63,-1 16,-2 27,-7 33,-15 7,-9 11,-25 11,-51 2,-41 -1,-87 -7,-136 -5,-35 -10,-63 -15,-85 -11,25 -22,44 -33,59 -12,18 -26,34 -41,49 -15,15 -35,33 -61,55 l -9,-9 c 26,-26 46,-49 60,-67 13,-17 27,-37 40,-60 12,-22 22,-47 30,-75 -6,-13 -11,-26 -17,-39 -8,-14 -18,-29 -29,-45 -12,15 -25,28 -38,39 -12,14 -30,28 -53,43 l -11,-7 c 23,-17 42,-36 56,-55 11,-13 21,-26 30,-39 -16,-18 -40,-41 -72,-70 l 13,-10 c 29,26 53,47 71,65 2,-4 4,-8 6,-11 15,-22 26,-45 36,-67 3,-11 5,-23 6,-35 z m 201,-34 c 11,6 21,12 31,18 10,6 19,11 25,17 7,5 12,11 15,15 3,4 5,9 5,13 1,8 1,15 -1,20 -1,4 -3,6 -5,7 l 90,-12 16,-31 c 17,8 29,15 38,23 3,3 5,6 6,8 0,4 -7,12 -21,24 l 13,96 c 4,31 8,52 10,62 2,12 4,22 5,30 1,6 -1,11 -5,15 -5,4 -9,5 -13,6 -9,1 -14,-1 -14,-6 l -2,-14 -227,31 32,235 c 6,-3 12,-5 18,-7 15,-5 31,-12 49,-20 17,-8 37,-17 59,-30 l 5,13 c -17,14 -32,24 -44,33 -15,9 -28,17 -41,24 -11,8 -23,14 -36,20 -3,16 -5,24 -7,25 -4,0 -17,-16 -39,-48 3,-1 6,-1 8,-2 l -58,-437 c -3,-18 -6,-32 -12,-44 l 43,23 111,-15 c -2,-1 -4,-5 -7,-12 -3,-9 -8,-18 -14,-26 -6,-8 -12,-16 -18,-23 -6,-7 -15,-14 -25,-22 l 10,-9 z m -60,126 11,80 226,-30 -10,-81 -227,31 z m 13,98 11,80 227,-30 -11,-80 -227,30 z m 301,143 c -12,9 -26,17 -40,25 -13,8 -27,15 -40,21 -11,5 -22,10 -32,15 6,8 13,15 19,21 13,14 30,27 51,41 19,13 39,23 57,29 17,7 34,11 51,13 l 1,8 c -26,4 -40,13 -43,29 -25,-9 -45,-20 -61,-33 -22,-14 -41,-31 -58,-50 -20,-20 -38,-43 -53,-68 -15,-25 -30,-55 -44,-87 l 15,-8 c 15,32 29,57 42,76 5,7 10,13 15,19 11,-7 21,-14 29,-19 11,-8 21,-16 30,-26 9,-7 17,-15 23,-24 7,-8 12,-15 16,-23 35,16 53,27 54,32 1,5 -3,8 -11,9 -6,1 -13,1 -21,0 z"
       inkscape:connector-curvature="0"
       style="fill:#000000;fill-rule:nonzero" /><path
       id="2"
       class="fil6"
       d="m 271,7273 c 11,7 20,16 28,24 10,7 17,14 22,20 6,7 10,13 12,17 2,5 2,9 2,14 -1,7 -3,12 -6,16 -4,5 -9,7 -14,6 -3,0 -5,-1 -7,-3 -2,-2 -4,-6 -4,-12 -2,-8 -5,-17 -9,-26 -5,-8 -9,-16 -13,-24 -6,-8 -13,-16 -22,-26 l 11,-6 z m 269,29 c 19,8 37,18 53,29 2,3 3,5 3,7 -1,4 -4,6 -10,8 -10,1 -19,1 -28,0 -5,5 -10,10 -16,14 -6,4 -12,9 -19,14 -6,4 -12,7 -19,10 -6,3 -14,6 -24,9 l -9,-9 c 9,-6 17,-12 24,-19 7,-7 15,-14 22,-23 7,-9 13,-17 18,-26 2,-5 4,-9 5,-14 z m -431,44 c 18,7 42,13 74,18 l 446,60 36,-32 c 16,15 30,29 43,43 4,3 6,5 5,8 -1,7 -5,10 -11,10 l -522,-71 c -30,-4 -51,-6 -62,-6 l -9,-30 z m 51,82 33,28 151,21 24,-26 c 14,12 24,23 30,32 2,4 4,7 3,9 0,5 -10,10 -28,18 l -44,318 c -2,14 -6,25 -13,31 -6,6 -15,11 -25,14 -9,3 -17,5 -23,4 1,-10 0,-18 -4,-23 -4,-6 -13,-12 -24,-18 -14,-6 -29,-11 -46,-14 l 2,-15 c 30,11 58,18 83,22 9,1 15,0 18,-2 2,-2 5,-7 6,-17 l 16,-118 -159,-21 c -2,8 -4,17 -6,26 -3,18 -9,37 -15,56 -6,15 -13,29 -21,41 -7,12 -15,22 -26,32 -8,9 -19,17 -33,25 l -8,-6 c 9,-8 17,-16 23,-25 7,-9 13,-17 18,-27 6,-11 11,-23 16,-38 5,-16 10,-34 14,-51 6,-23 10,-50 14,-79 12,-82 20,-147 24,-197 z m 3,224 158,21 12,-82 -158,-21 -8,59 c -1,8 -2,16 -4,23 z m 15,-100 157,21 11,-77 -158,-21 -10,77 z m 302,-54 c 20,6 37,13 50,21 4,3 6,7 5,10 0,4 -2,7 -6,8 -7,3 -14,5 -22,5 l -31,231 c -1,9 -8,13 -20,11 -10,-1 -14,-7 -13,-17 1,-6 2,-13 5,-21 2,-9 3,-16 4,-23 l 23,-173 c 4,-23 5,-40 5,-52 z m 142,-22 c 23,6 43,14 60,24 4,3 6,5 6,8 -1,4 -4,7 -10,8 -9,2 -18,2 -28,2 l -47,347 c -2,14 -7,25 -14,31 -7,6 -16,11 -27,14 -10,3 -19,4 -26,3 l 1,-9 c 0,-6 -2,-10 -5,-14 -5,-5 -14,-12 -27,-18 -15,-6 -32,-11 -50,-15 l 2,-15 c 29,11 56,18 81,22 13,2 22,1 27,-1 5,-2 8,-8 10,-19 l 43,-316 c 3,-25 5,-42 4,-52 z"
       inkscape:connector-curvature="0"
       style="fill:#000000;fill-rule:nonzero" /><path
       id="3"
       class="fil6"
       d="m 973,7441 c 15,8 38,18 68,28 l 338,113 29,-20 c 11,14 19,26 23,37 3,4 3,7 2,10 -1,4 -11,8 -31,11 l -84,250 c -5,13 -11,23 -20,28 -8,5 -18,8 -29,8 -10,2 -19,1 -26,-1 4,-10 3,-17 -1,-23 -4,-7 -12,-15 -25,-24 -13,-9 -29,-17 -48,-25 l 5,-15 c 32,19 61,33 89,42 11,3 18,4 21,3 4,-1 8,-6 11,-15 l 83,-246 -197,-66 -148,441 217,73 44,-27 c 13,19 24,36 34,52 3,4 4,7 3,11 -2,6 -6,8 -13,6 L 822,7925 c -29,-9 -49,-15 -61,-17 l -3,-32 c 16,12 40,23 70,33 l 174,58 149,-442 -116,-38 c -33,-11 -53,-17 -60,-18 l -2,-28 z"
       inkscape:connector-curvature="0"
       style="fill:#000000;fill-rule:nonzero" /><path
       id="4"
       class="fil7 str0"
       d="m -1294,7486 c 41,-4 62,-2 64,5 2,5 -8,12 -29,20 -5,20 -13,41 -23,61 l 257,-79 12,-33 c 17,4 31,10 40,16 5,2 7,5 8,7 1,4 -5,13 -17,27 l 39,127 c 9,31 16,51 20,60 4,12 8,21 10,28 2,6 1,12 -2,17 -5,4 -9,6 -13,8 -7,2 -12,1 -14,-5 l -3,-12 -135,42 61,198 c 1,3 3,6 5,9 2,2 5,3 9,4 4,0 9,0 16,0 11,-2 27,-6 47,-12 l 74,-23 c 21,-6 36,-11 45,-15 7,-4 13,-7 20,-10 5,-4 8,-7 10,-10 2,-4 3,-9 2,-15 0,-16 -3,-41 -10,-76 l 14,1 c 3,15 8,34 14,56 4,11 8,18 12,19 13,1 20,5 23,13 1,3 1,6 -1,9 -1,3 -4,7 -10,12 -7,5 -17,11 -31,17 -15,6 -41,15 -80,27 l -74,22 c -27,9 -47,13 -60,15 -11,2 -20,2 -28,1 -7,-3 -12,-6 -16,-11 -4,-5 -6,-9 -8,-13 l -64,-209 -73,22 c 7,34 11,61 11,81 0,19 -3,38 -7,57 -4,24 -11,44 -21,63 -10,18 -24,37 -43,58 -18,21 -42,44 -71,67 l -8,-12 c 26,-22 47,-43 60,-62 14,-16 26,-34 34,-53 9,-17 15,-35 20,-54 3,-19 4,-38 3,-56 0,-22 -4,-48 -10,-79 l -70,21 4,12 c 2,6 -1,9 -9,12 -4,1 -9,1 -16,0 -5,-2 -9,-6 -10,-12 -2,-7 -5,-17 -7,-29 -1,-10 -6,-31 -16,-61 l -43,-140 c -5,-16 -11,-30 -17,-40 l 45,15 58,-17 c 4,-16 7,-30 7,-44 0,-13 -2,-28 -5,-47 z m 4,333 145,-44 -30,-97 -145,45 30,96 z m 175,-53 164,-51 -30,-96 -164,50 30,97 z m -210,-61 145,-44 -29,-93 -144,45 28,92 z m 146,-146 29,93 164,-51 -28,-92 -165,50 z m 198,212 c 21,1 39,3 55,5 3,2 5,4 6,7 1,3 -2,6 -8,10 -7,4 -13,6 -17,7 -1,15 -4,30 -8,44 -5,13 -9,26 -14,38 -4,6 -8,13 -13,21 10,-5 22,-9 33,-14 23,-9 48,-20 74,-34 -5,-6 -10,-11 -15,-15 -6,-5 -15,-11 -25,-17 l 5,-9 c 12,3 22,8 31,13 10,3 18,8 25,13 7,4 12,8 15,12 4,3 6,7 8,12 2,6 2,12 1,16 -2,6 -6,9 -10,10 -2,1 -4,1 -6,-1 -2,0 -5,-4 -8,-9 -3,-5 -6,-9 -10,-13 -28,22 -61,44 -100,65 -2,18 -4,28 -6,29 -3,1 -6,-1 -9,-4 -10,-12 -20,-27 -31,-45 l 8,-2 c 6,-13 10,-24 12,-35 3,-11 5,-23 7,-36 1,-12 2,-24 3,-36 0,-10 -1,-20 -3,-32 z"
       inkscape:connector-curvature="0"
       style="fill:none;fill-rule:nonzero;stroke:#000000;stroke-width:19.68499947;stroke-linecap:round" /><path
       id="5"
       class="fil7 str0"
       d="m -555,7310 c 21,4 40,9 58,15 3,2 4,4 5,6 0,4 -2,7 -7,10 -10,4 -19,7 -27,8 -9,18 -19,35 -31,51 -8,13 -18,27 -29,41 1,1 3,3 4,4 17,21 32,42 44,65 11,22 21,47 29,75 6,24 11,52 16,85 7,54 10,102 8,144 1,20 -1,35 -6,46 -5,12 -12,24 -22,34 -10,11 -24,20 -42,26 -1,-9 -4,-15 -8,-18 -4,-5 -10,-7 -19,-9 -11,-2 -26,-2 -44,0 l 2,-16 c 24,2 45,1 63,-1 16,-2 27,-7 33,-15 7,-9 11,-25 11,-51 2,-41 -1,-87 -7,-136 -5,-35 -10,-63 -15,-85 -11,25 -22,44 -33,59 -12,18 -26,34 -41,49 -15,15 -35,33 -61,55 l -9,-9 c 26,-26 46,-49 60,-67 13,-17 27,-37 40,-60 12,-22 22,-47 30,-75 -6,-13 -11,-26 -17,-39 -8,-14 -18,-29 -29,-45 -12,15 -25,28 -38,39 -12,14 -30,28 -53,43 l -11,-7 c 23,-17 42,-36 56,-55 11,-13 21,-26 30,-39 -16,-18 -40,-41 -72,-70 l 13,-10 c 29,26 53,47 71,65 2,-4 4,-8 6,-11 15,-22 26,-45 36,-67 3,-11 5,-23 6,-35 z m 201,-34 c 11,6 21,12 31,18 10,6 19,11 25,17 7,5 12,11 15,15 3,4 5,9 5,13 1,8 1,15 -1,20 -1,4 -3,6 -5,7 l 90,-12 16,-31 c 17,8 29,15 38,23 3,3 5,6 6,8 0,4 -7,12 -21,24 l 13,96 c 4,31 8,52 10,62 2,12 4,22 5,30 1,6 -1,11 -5,15 -5,4 -9,5 -13,6 -9,1 -14,-1 -14,-6 l -2,-14 -227,31 32,235 c 6,-3 12,-5 18,-7 15,-5 31,-12 49,-20 17,-8 37,-17 59,-30 l 5,13 c -17,14 -32,24 -44,33 -15,9 -28,17 -41,24 -11,8 -23,14 -36,20 -3,16 -5,24 -7,25 -4,0 -17,-16 -39,-48 3,-1 6,-1 8,-2 l -58,-437 c -3,-18 -6,-32 -12,-44 l 43,23 111,-15 c -2,-1 -4,-5 -7,-12 -3,-9 -8,-18 -14,-26 -6,-8 -12,-16 -18,-23 -6,-7 -15,-14 -25,-22 l 10,-9 z m -60,126 11,80 226,-30 -10,-81 -227,31 z m 13,98 11,80 227,-30 -11,-80 -227,30 z m 301,143 c -12,9 -26,17 -40,25 -13,8 -27,15 -40,21 -11,5 -22,10 -32,15 6,8 13,15 19,21 13,14 30,27 51,41 19,13 39,23 57,29 17,7 34,11 51,13 l 1,8 c -26,4 -40,13 -43,29 -25,-9 -45,-20 -61,-33 -22,-14 -41,-31 -58,-50 -20,-20 -38,-43 -53,-68 -15,-25 -30,-55 -44,-87 l 15,-8 c 15,32 29,57 42,76 5,7 10,13 15,19 11,-7 21,-14 29,-19 11,-8 21,-16 30,-26 9,-7 17,-15 23,-24 7,-8 12,-15 16,-23 35,16 53,27 54,32 1,5 -3,8 -11,9 -6,1 -13,1 -21,0 z"
       inkscape:connector-curvature="0"
       style="fill:none;fill-rule:nonzero;stroke:#000000;stroke-width:19.68499947;stroke-linecap:round" /><path
       id="6"
       class="fil7 str0"
       d="m 271,7273 c 11,7 20,16 28,24 10,7 17,14 22,20 6,7 10,13 12,17 2,5 2,9 2,14 -1,7 -3,12 -6,16 -4,5 -9,7 -14,6 -3,0 -5,-1 -7,-3 -2,-2 -4,-6 -4,-12 -2,-8 -5,-17 -9,-26 -5,-8 -9,-16 -13,-24 -6,-8 -13,-16 -22,-26 l 11,-6 z m 269,29 c 19,8 37,18 53,29 2,3 3,5 3,7 -1,4 -4,6 -10,8 -10,1 -19,1 -28,0 -5,5 -10,10 -16,14 -6,4 -12,9 -19,14 -6,4 -12,7 -19,10 -6,3 -14,6 -24,9 l -9,-9 c 9,-6 17,-12 24,-19 7,-7 15,-14 22,-23 7,-9 13,-17 18,-26 2,-5 4,-9 5,-14 z m -431,44 c 18,7 42,13 74,18 l 446,60 36,-32 c 16,15 30,29 43,43 4,3 6,5 5,8 -1,7 -5,10 -11,10 l -522,-71 c -30,-4 -51,-6 -62,-6 l -9,-30 z m 51,82 33,28 151,21 24,-26 c 14,12 24,23 30,32 2,4 4,7 3,9 0,5 -10,10 -28,18 l -44,318 c -2,14 -6,25 -13,31 -6,6 -15,11 -25,14 -9,3 -17,5 -23,4 1,-10 0,-18 -4,-23 -4,-6 -13,-12 -24,-18 -14,-6 -29,-11 -46,-14 l 2,-15 c 30,11 58,18 83,22 9,1 15,0 18,-2 2,-2 5,-7 6,-17 l 16,-118 -159,-21 c -2,8 -4,17 -6,26 -3,18 -9,37 -15,56 -6,15 -13,29 -21,41 -7,12 -15,22 -26,32 -8,9 -19,17 -33,25 l -8,-6 c 9,-8 17,-16 23,-25 7,-9 13,-17 18,-27 6,-11 11,-23 16,-38 5,-16 10,-34 14,-51 6,-23 10,-50 14,-79 12,-82 20,-147 24,-197 z m 3,224 158,21 12,-82 -158,-21 -8,59 c -1,8 -2,16 -4,23 z m 15,-100 157,21 11,-77 -158,-21 -10,77 z m 302,-54 c 20,6 37,13 50,21 4,3 6,7 5,10 0,4 -2,7 -6,8 -7,3 -14,5 -22,5 l -31,231 c -1,9 -8,13 -20,11 -10,-1 -14,-7 -13,-17 1,-6 2,-13 5,-21 2,-9 3,-16 4,-23 l 23,-173 c 4,-23 5,-40 5,-52 z m 142,-22 c 23,6 43,14 60,24 4,3 6,5 6,8 -1,4 -4,7 -10,8 -9,2 -18,2 -28,2 l -47,347 c -2,14 -7,25 -14,31 -7,6 -16,11 -27,14 -10,3 -19,4 -26,3 l 1,-9 c 0,-6 -2,-10 -5,-14 -5,-5 -14,-12 -27,-18 -15,-6 -32,-11 -50,-15 l 2,-15 c 29,11 56,18 81,22 13,2 22,1 27,-1 5,-2 8,-8 10,-19 l 43,-316 c 3,-25 5,-42 4,-52 z"
       inkscape:connector-curvature="0"
       style="fill:none;fill-rule:nonzero;stroke:#000000;stroke-width:19.68499947;stroke-linecap:round" /><path
       id="7"
       class="fil7 str0"
       d="m 973,7441 c 15,8 38,18 68,28 l 338,113 29,-20 c 11,14 19,26 23,37 3,4 3,7 2,10 -1,4 -11,8 -31,11 l -84,250 c -5,13 -11,23 -20,28 -8,5 -18,8 -29,8 -10,2 -19,1 -26,-1 4,-10 3,-17 -1,-23 -4,-7 -12,-15 -25,-24 -13,-9 -29,-17 -48,-25 l 5,-15 c 32,19 61,33 89,42 11,3 18,4 21,3 4,-1 8,-6 11,-15 l 83,-246 -197,-66 -148,441 217,73 44,-27 c 13,19 24,36 34,52 3,4 4,7 3,11 -2,6 -6,8 -13,6 L 822,7925 c -29,-9 -49,-15 -61,-17 l -3,-32 c 16,12 40,23 70,33 l 174,58 149,-442 -116,-38 c -33,-11 -53,-17 -60,-18 l -2,-28 z"
       inkscape:connector-curvature="0"
       style="fill:none;fill-rule:nonzero;stroke:#000000;stroke-width:19.68499947;stroke-linecap:round" /><circle
       class="fil5"
       cy="11000"
       r="3898"
       id="circle3566"
       cx="0"
       style="fill:none" /><path
       class="fil0"
       d="m 0,9681 c 20,-20 60,-33 98,-39 119,-20 379,-33 473,-20 236,-197 433,-276 689,-472 44,-34 98,0 98,39 0,315 -98,531 -98,905 111,45 216,76 315,60 0,59 -33,100 -118,157 89,67 216,177 216,295 -59,-19 -118,-19 -177,-19 59,59 62,160 118,216 101,101 414,295 414,414 -119,-20 -237,-40 -355,-20 59,236 20,472 79,709 -79,0 -158,-119 -256,-119 0,256 -177,532 -295,670 -59,-99 -177,-217 -256,-256 -79,138 -177,216 -276,354 -19,-20 -19,-59 -59,-79 -39,158 -98,256 -157,296 -22,55 -20,118 -20,177 -98,79 -193,179 -216,256 -11,33 -60,59 -79,118 -20,-40 -40,-59 -59,-79 -20,20 -59,59 -79,99 -20,-40 -59,-79 -79,-99 -19,20 -39,39 -59,79 -19,-59 -68,-85 -79,-118 -23,-77 -118,-177 -216,-256 0,-59 2,-122 -20,-177 -59,-40 -118,-138 -157,-296 -40,20 -40,59 -59,79 -99,-138 -197,-216 -276,-354 -79,39 -197,157 -256,256 -118,-138 -295,-414 -295,-670 -98,0 -177,119 -256,119 59,-237 20,-473 79,-709 -118,-20 -236,0 -355,20 0,-119 313,-313 414,-414 56,-56 59,-157 118,-216 -59,0 -118,0 -177,19 0,-118 127,-228 216,-295 -85,-57 -118,-98 -118,-157 99,16 204,-15 315,-60 0,-374 -98,-590 -98,-905 0,-39 54,-73 98,-39 256,196 453,275 689,472 94,-13 354,0 473,20 38,6 78,19 98,39 z"
       id="path3568"
       inkscape:connector-curvature="0"
       style="fill:#000000" /><path
       class="fil1"
       d="m 0,9898 c 39,-99 118,-197 256,-197 108,0 256,39 354,19 177,-177 374,-255 610,-472 37,-34 79,-39 79,0 -98,79 -127,206 -216,315 -70,85 -177,197 -177,295 0,99 109,218 255,296 39,20 96,5 138,19 59,20 159,23 177,20 -39,59 -137,39 -177,98 81,61 217,138 256,237 -53,-18 -157,-40 -216,-40 53,53 107,324 157,374 90,91 315,177 374,276 -79,-40 -236,-20 -295,0 79,118 19,374 98,649 -79,-19 -147,-98 -236,-98 0,230 -130,526 -236,650 -53,-89 -205,-201 -276,-237 -71,124 -177,217 -236,315 -18,-17 -20,-78 -20,-137 -39,19 -90,111 -98,137 -45,150 -93,212 -158,276 0,59 -15,107 -19,236 -88,20 -217,276 -394,276 -177,0 -306,-256 -394,-276 -4,-129 -19,-177 -19,-236 -65,-64 -113,-126 -158,-276 -8,-26 -59,-118 -98,-137 0,59 -2,120 -20,137 -59,-98 -165,-191 -236,-315 -71,36 -223,148 -276,237 -106,-124 -236,-420 -236,-650 -89,0 -157,79 -236,98 79,-275 19,-531 98,-649 -59,-20 -216,-40 -295,0 59,-99 284,-185 374,-276 50,-50 104,-321 157,-374 -59,0 -163,22 -216,40 39,-99 175,-176 256,-237 -40,-59 -138,-39 -177,-98 18,3 118,0 177,-20 42,-14 99,1 138,-19 146,-78 255,-197 255,-296 0,-98 -107,-210 -177,-295 -89,-109 -118,-236 -216,-315 0,-39 42,-34 79,0 236,217 433,295 610,472 98,20 246,-19 354,-19 138,0 217,98 256,197 z"
       id="path3570"
       inkscape:connector-curvature="0"
       style="fill:#ffffff" /><path
       class="fil0"
       d="m -256,12673 c 79,0 118,99 256,99 138,0 177,-99 256,-99 -99,59 -59,177 -256,177 -197,0 -157,-118 -256,-177 z"
       id="path3572"
       inkscape:connector-curvature="0"
       style="fill:#000000" /><path
       class="fil0"
       d="m -807,10370 c 79,0 98,79 157,79 59,0 115,-20 158,-20 138,0 275,177 275,433 -19,-39 -59,-79 -98,-79 -39,0 -79,99 -177,99 39,-20 98,-79 118,-118 -177,0 -231,-119 -236,-138 -20,-79 -79,-98 -99,-118 -23,-24 -59,-99 -98,-138 z"
       id="path3574"
       inkscape:connector-curvature="0"
       style="fill:#000000" /><path
       class="fil8"
       d="m -335,10705 c 0,-182 -118,-236 -236,-197 -20,59 38,222 236,197 z"
       id="path3576"
       inkscape:connector-curvature="0"
       style="fill:#ffffff" /><path
       class="fil0"
       d="m -1024,10488 c 0,99 -118,177 -118,276 0,79 211,61 236,216 20,118 138,276 197,276 59,0 59,-39 59,-118 0,-40 20,-99 79,-118 -20,39 -20,78 -20,137 0,196 272,236 468,237 l 2,-4 c -59,-58 -135,-123 -135,-213 0,-59 20,-138 256,-138 236,0 256,79 256,138 0,90 -76,155 -135,213 l 2,4 c 196,-1 468,-41 468,-237 0,-59 0,-98 -20,-137 59,19 79,78 79,118 0,79 0,118 59,118 59,0 177,-158 197,-276 25,-155 236,-137 236,-216 0,-99 -118,-177 -118,-276 59,118 177,177 177,295 0,85 -112,125 -177,178 -99,78 -20,177 -178,334 -19,20 -39,40 -59,99 -12,37 -118,157 -157,275 0,-138 139,-315 39,-315 -138,0 -78,355 -315,473 -19,59 0,118 0,197 0,137 -19,236 -39,393 -15,120 -79,197 -315,197 -236,0 -300,-77 -315,-197 -20,-157 -39,-256 -39,-393 0,-79 19,-138 0,-197 -237,-118 -177,-473 -315,-473 -100,0 39,177 39,315 -39,-118 -145,-238 -157,-275 -20,-59 -40,-79 -59,-99 -158,-157 -79,-256 -178,-334 -65,-53 -177,-93 -177,-178 0,-118 118,-177 177,-295 z"
       id="path3578"
       inkscape:connector-curvature="0"
       style="fill:#000000" /><path
       class="fil1"
       d="m 0,11138 c -79,0 -177,0 -177,-20 0,-39 147,-49 177,-49 30,0 177,10 177,49 0,20 -98,20 -177,20 z"
       id="path3580"
       inkscape:connector-curvature="0"
       style="fill:#ffffff" /><path
       class="fil1"
       d="m -138,11827 c 96,0 99,236 138,275 39,-39 43,-275 138,-275 59,0 59,39 59,98 0,99 -59,295 -197,295 -138,0 -197,-196 -197,-295 0,-59 0,-98 59,-98 z"
       id="path3582"
       inkscape:connector-curvature="0"
       style="fill:#ffffff" /><path
       class="fil1"
       d="m 394,11453 c -59,0 -79,39 -394,39 -315,0 -335,-39 -394,-39 -59,0 -59,19 -59,59 0,91 79,216 138,256 -20,-59 -20,-158 20,-197 l 98,98 79,-78 59,78 59,-59 59,59 59,-78 79,78 98,-98 c 40,39 40,138 20,197 59,-40 138,-165 138,-256 0,-40 0,-59 -59,-59 z"
       id="path3584"
       inkscape:connector-curvature="0"
       style="fill:#ffffff" /><path
       class="fil1"
       d="m -236,12260 c 0,59 19,138 79,197 l 39,-40 39,59 40,-39 39,39 39,-39 40,39 39,-59 39,40 c 60,-59 79,-138 79,-197 20,20 40,39 40,98 -1,211 -158,197 -276,197 l 0,0 c -118,0 -275,14 -276,-197 0,-59 20,-78 40,-98 z"
       id="path3586"
       inkscape:connector-curvature="0"
       style="fill:#ffffff" /><path
       class="fil0"
       d="m 807,10370 c -79,0 -98,79 -157,79 -59,0 -115,-20 -158,-20 -138,0 -275,177 -275,433 19,-39 59,-79 98,-79 39,0 79,99 177,99 -39,-20 -98,-79 -118,-118 177,0 231,-119 236,-138 20,-79 79,-98 99,-118 23,-24 59,-99 98,-138 z"
       id="path3588"
       inkscape:connector-curvature="0"
       style="fill:#000000" /><path
       class="fil8"
       d="m 335,10705 c 0,-182 118,-236 236,-197 20,59 -38,222 -236,197 z"
       id="path3590"
       inkscape:connector-curvature="0"
       style="fill:#ffffff" /><path
       class="fil0"
       d="m 157,10862 c -19,0 -41,3 -59,20 -17,17 -39,59 -19,79 11,11 19,-14 39,-40 23,-29 67,-59 39,-59 z m -314,0 c 19,0 41,3 59,20 17,17 39,59 19,79 -11,11 -19,-14 -39,-40 -23,-29 -67,-59 -39,-59 z m 54,-87 c 11,-4 25,-6 37,2 13,7 33,28 25,43 -5,9 -14,-5 -30,-17 -18,-13 -49,-24 -32,-28 z m 206,0 c -11,-4 -25,-6 -37,2 -13,7 -33,28 -25,43 5,9 14,-5 30,-17 18,-13 49,-24 32,-28 z"
       id="path3592"
       inkscape:connector-curvature="0"
       style="fill:#000000" /></g></svg>