<?xml version="1.0" encoding="UTF-8" standalone="no"?>
<!-- Creator: CorelDRAW X7 -->

<svg
   xmlns:dc="http://purl.org/dc/elements/1.1/"
   xmlns:cc="http://creativecommons.org/ns#"
   xmlns:rdf="http://www.w3.org/1999/02/22-rdf-syntax-ns#"
   xmlns:svg="http://www.w3.org/2000/svg"
   xmlns="http://www.w3.org/2000/svg"
   xmlns:sodipodi="http://sodipodi.sourceforge.net/DTD/sodipodi-0.dtd"
   xmlns:inkscape="http://www.inkscape.org/namespaces/inkscape"
   xml:space="preserve"
   width="7.8740005in"
   height="7.8740005in"
   version="1.1"
   style="clip-rule:evenodd;fill-rule:evenodd;image-rendering:optimizeQuality;shape-rendering:geometricPrecision;text-rendering:geometricPrecision"
   viewBox="0 0 7874.0005 7874.0005"
   id="svg4774"
   inkscape:version="0.91 r13725"
   sodipodi:docname="Yu Jing - Zhanshi Yisheng - [N3] [Vyo].svg"><metadata
     id="metadata4811"><rdf:RDF><cc:Work
         rdf:about=""><dc:format>image/svg+xml</dc:format><dc:type
           rdf:resource="http://purl.org/dc/dcmitype/StillImage" /></cc:Work></rdf:RDF></metadata><sodipodi:namedview
     pagecolor="#ffffff"
     bordercolor="#666666"
     borderopacity="1"
     objecttolerance="10"
     gridtolerance="10"
     guidetolerance="10"
     inkscape:pageopacity="0"
     inkscape:pageshadow="2"
     inkscape:window-width="640"
     inkscape:window-height="480"
     id="namedview4809"
     showgrid="false"
     inkscape:zoom="0.23838384"
     inkscape:cx="736.83001"
     inkscape:cy="849.33005"
     inkscape:window-x="0"
     inkscape:window-y="0"
     inkscape:window-maximized="0"
     inkscape:current-layer="svg4774" /><defs
     id="defs4776"><style
       type="text/css"
       id="style4778"><![CDATA[
    .fil2 {fill:none}
    .fil0 {fill:#E2001A}
    .fil1 {fill:white}
    .fil4 {fill:#E2001A;fill-rule:nonzero}
    .fil3 {fill:white;fill-rule:nonzero}
   ]]></style></defs><g
     id="Layer_x0020_1"
     transform="translate(3937,-7063)"><metadata
       id="CorelCorpID_0Corel-Layer" /><circle
       class="fil0"
       cy="11000"
       r="3937"
       id="circle4782"
       cx="0"
       style="fill:#e2001a" /><circle
       class="fil1"
       cy="11000"
       r="3819"
       id="circle4784"
       cx="0"
       style="fill:#ffffff" /><circle
       class="fil2"
       cy="11000"
       r="3898"
       id="circle4786"
       cx="0"
       style="fill:none" /><path
       class="fil0"
       d="m -2659,8563 c 25,-28 54,-2 28,26 -491,576 -752,1276 -823,1976 l -184,-184 c 130,-669 466,-1295 979,-1818 z m 227,209 c -510,515 -846,1167 -936,1879 l 94,94 122,-123 c 64,-662 317,-1316 749,-1824 25,-29 -2,-53 -29,-26 z m -883,2096 c -2,44 -2,88 -2,132 0,145 9,289 27,429 l -407,-218 c -4,-70 -6,-140 -6,-211 0,-166 11,-329 32,-489 l 356,357 z m 47,703 c 35,205 89,403 161,593 l -448,-122 c -65,-224 -110,-456 -132,-695 l 419,224 z m 214,728 c 116,270 266,522 445,750 l -476,0 c -179,-270 -324,-564 -429,-876 l 460,126 z m 540,866 c 54,62 110,122 168,181 215,215 459,400 726,550 l -537,114 c -164,-118 -319,-249 -462,-391 -140,-141 -269,-293 -386,-454 l 491,0 z m -284,-2733 c -21,105 -37,213 -46,323 l -374,624 c -15,-125 -22,-251 -22,-379 0,-43 1,-86 2,-128 l 440,-440 z m -57,564 c 0,125 8,250 24,373 l -219,727 c -62,-173 -110,-352 -142,-537 l 337,-563 z m 68,626 c 49,217 121,424 216,619 l 1,732 c -166,-215 -304,-451 -412,-703 l 195,-648 z m 331,834 c 122,205 269,394 438,562 94,95 196,184 303,264 l 140,550 c -264,-147 -505,-329 -716,-541 -57,-56 -112,-115 -164,-176 l -1,-659 z m -321,-2209 c 102,-438 291,-873 601,-1241 25,-29 -1,-53 -28,-26 -435,437 -721,961 -829,1524 l 256,-257 z"
       id="path4788"
       inkscape:connector-curvature="0"
       style="fill:#e2001a" /><path
       class="fil0"
       d="m 2659,8563 c -25,-28 -54,-2 -28,26 491,576 752,1276 823,1976 l 184,-184 C 3508,9712 3172,9086 2659,8563 Z m -227,209 c 510,515 846,1167 936,1879 l -94,94 -122,-123 c -64,-662 -317,-1316 -749,-1824 -25,-29 2,-53 29,-26 z m 883,2096 c 2,44 2,88 2,132 0,145 -9,289 -27,429 l 407,-218 c 4,-70 6,-140 6,-211 0,-166 -11,-329 -32,-489 l -356,357 z m -47,703 c -35,205 -89,403 -161,593 l 448,-122 c 65,-224 110,-456 132,-695 l -419,224 z m -214,728 c -116,270 -266,522 -445,750 l 476,0 c 179,-270 324,-564 429,-876 l -460,126 z m -540,866 c -54,62 -110,122 -168,181 -215,215 -459,400 -726,550 l 537,114 c 164,-118 319,-249 462,-391 140,-141 269,-293 386,-454 l -491,0 z m 284,-2733 c 21,105 37,213 46,323 l 374,624 c 15,-125 22,-251 22,-379 0,-43 -1,-86 -2,-128 l -440,-440 z m 57,564 c 0,125 -8,250 -24,373 l 219,727 c 62,-173 110,-352 142,-537 l -337,-563 z m -68,626 c -49,217 -121,424 -216,619 l -1,732 c 166,-215 304,-451 412,-703 l -195,-648 z m -331,834 c -122,205 -269,394 -438,562 -94,95 -196,184 -303,264 l -140,550 c 264,-147 505,-329 716,-541 57,-56 112,-115 164,-176 l 1,-659 z m 321,-2209 c -102,-438 -291,-873 -601,-1241 -25,-29 1,-53 28,-26 435,437 721,961 829,1524 l -256,-257 z"
       id="path4790"
       inkscape:connector-curvature="0"
       style="fill:#e2001a" /><path
       class="fil0"
       d="m 0,14703 c -748,0 -1443,-221 -2025,-602 l 604,-129 -148,-587 c 450,297 989,470 1569,470 580,0 1119,-173 1569,-470 l -148,587 604,129 c -582,381 -1277,602 -2025,602 z"
       id="path4792"
       inkscape:connector-curvature="0"
       style="fill:#e2001a" /><circle
       class="fil2"
       cy="11000"
       r="3819"
       id="circle4794"
       cx="0"
       style="fill:none" /><path
       class="fil3"
       d="m -806,14463 324,42 34,-262 -274,-36 7,-59 275,37 26,-198 -294,-39 8,-58 662,87 -8,59 -303,-40 -26,197 284,38 -8,58 -284,-37 -34,262 332,44 -7,59 -722,-96 8,-58 z m 495,-130 52,-30 c 36,54 68,106 97,157 l -57,33 c -24,-46 -54,-100 -92,-160 z m 431,-200 538,-71 34,254 -59,8 -4,-30 -173,23 25,191 c 8,59 -16,93 -73,101 -36,5 -69,10 -99,14 -6,-22 -12,-41 -19,-60 34,-1 63,-4 88,-7 32,-3 45,-22 41,-55 l -23,-176 -188,24 5,34 -59,8 -34,-258 z m 486,-12 -421,56 16,120 421,-55 -16,-121 z m -600,-95 348,-46 c -18,-25 -38,-50 -60,-76 l 52,-34 c 24,27 47,56 71,86 l -28,19 354,-46 7,52 -737,98 -7,-53 z m 248,382 47,40 c -61,59 -122,114 -184,166 -12,-16 -26,-32 -42,-46 64,-49 123,-102 179,-160 z m 298,12 30,-50 c 74,31 145,64 214,97 l -33,57 c -58,-32 -129,-67 -211,-104 z"
       id="path4796"
       inkscape:connector-curvature="0"
       style="fill:#ffffff;fill-rule:nonzero" /><circle
       class="fil2"
       cy="11000"
       r="3898"
       id="circle4798"
       cx="0"
       style="fill:none" /><path
       class="fil4"
       d="m -1023,7803 32,76 c -8,85 -32,165 -70,239 80,1 165,-13 255,-42 -6,39 -10,77 -12,117 -104,28 -205,35 -304,22 -58,77 -136,147 -232,210 -31,-27 -61,-49 -89,-68 87,-50 158,-105 212,-166 -63,-20 -124,-48 -185,-85 l 43,-60 -103,43 -34,-81 206,-86 -31,-74 -256,107 -33,-80 255,-108 -35,-82 100,-42 35,82 254,-107 34,80 -254,107 31,74 181,-76 z m -145,304 c 34,-55 56,-114 67,-176 l -247,104 c 56,35 116,59 180,72 z"
       id="path4800"
       inkscape:connector-curvature="0"
       style="fill:#e2001a;fill-rule:nonzero" /><path
       id="1"
       class="fil4"
       d="m -790,7611 73,-11 -17,-120 96,-14 17,120 63,-9 13,87 -63,10 15,106 51,-17 c 3,21 8,52 17,92 l -54,18 26,180 c 4,27 1,48 -7,64 -9,17 -24,27 -45,33 -21,6 -50,11 -86,16 -10,-29 -20,-59 -32,-90 25,-2 43,-4 53,-5 14,-2 19,-12 17,-31 l -20,-134 -68,25 -20,-98 c 23,-6 48,-14 74,-22 l -17,-124 -73,11 -13,-87 z m 247,67 175,-26 -8,-57 -140,20 -12,-83 140,-21 -12,-79 96,-14 12,80 143,-21 12,84 -143,20 8,58 187,-27 12,83 -458,66 -12,-83 z m 70,253 40,-40 -74,11 -12,-84 269,-39 -6,-43 96,-14 6,43 82,-11 12,83 -82,12 16,107 c 5,39 2,70 -12,94 -13,23 -34,38 -62,45 -28,7 -69,15 -122,23 -10,-32 -21,-62 -32,-88 33,-3 64,-7 91,-11 31,-4 44,-26 38,-64 l -13,-92 -159,23 c 33,26 61,51 86,76 l -66,62 c -25,-26 -57,-58 -96,-93 z"
       inkscape:connector-curvature="0"
       style="fill:#e2001a;fill-rule:nonzero" /><path
       id="2"
       class="fil4"
       d="m 165,7498 128,19 c -13,-25 -26,-50 -40,-74 l 90,-26 60,96 -47,13 140,21 c 33,-32 64,-64 91,-95 l 100,53 c -19,15 -43,35 -73,59 l 132,19 -51,347 -241,-35 -7,48 295,43 -12,86 -296,-43 -15,104 -98,-14 16,-104 -297,-44 12,-85 297,43 7,-48 -241,-36 50,-347 z m 477,153 -149,-22 -9,57 150,21 8,-56 z m -405,-2 150,22 8,-56 -149,-22 -9,56 z m 378,187 8,-57 -149,-22 -8,57 149,22 z m -396,-58 149,22 8,-57 -149,-22 -8,57 z"
       inkscape:connector-curvature="0"
       style="fill:#e2001a;fill-rule:nonzero" /><path
       id="3"
       class="fil4"
       d="m 1172,7723 174,64 c 0,-29 -1,-62 -4,-98 l 105,9 c 3,39 6,77 8,114 l -57,-6 200,75 -31,85 -427,-158 32,-85 z m -36,-134 75,57 c -35,40 -69,78 -102,114 l -183,492 -88,-32 114,-309 c -27,24 -54,46 -81,65 5,-34 10,-75 13,-124 72,-57 156,-145 252,-263 z m -137,558 222,82 c 74,-87 145,-183 212,-286 l 93,68 c -21,25 -92,109 -211,253 l 146,55 -31,85 -463,-172 32,-85 z m 237,-272 c 0,50 -2,146 -6,286 l -101,-5 c 9,-117 13,-213 14,-285 l 93,4 z"
       inkscape:connector-curvature="0"
       style="fill:#e2001a;fill-rule:nonzero" /><circle
       class="fil2"
       cy="11000"
       r="3898"
       id="circle4805"
       cx="0"
       style="fill:none" /><path
       class="fil0"
       d="m -906,10094 0,-1259 709,0 0,1968 -1968,0 0,-709 1259,0 z m 1812,0 1259,0 0,709 -1968,0 0,-1968 709,0 0,1259 z m 0,1812 0,1259 -709,0 0,-1968 1968,0 0,709 -1259,0 z m -1812,0 -1259,0 0,-709 1968,0 0,1968 -709,0 0,-1259 z"
       id="path4807"
       inkscape:connector-curvature="0"
       style="fill:#e2001a" /></g></svg>