<?xml version="1.0" encoding="UTF-8" standalone="no"?>
<!-- Creator: CorelDRAW X7 -->

<svg
   xmlns:dc="http://purl.org/dc/elements/1.1/"
   xmlns:cc="http://creativecommons.org/ns#"
   xmlns:rdf="http://www.w3.org/1999/02/22-rdf-syntax-ns#"
   xmlns:svg="http://www.w3.org/2000/svg"
   xmlns="http://www.w3.org/2000/svg"
   xmlns:sodipodi="http://sodipodi.sourceforge.net/DTD/sodipodi-0.dtd"
   xmlns:inkscape="http://www.inkscape.org/namespaces/inkscape"
   xml:space="preserve"
   width="7.8740005in"
   height="7.8740005in"
   version="1.1"
   style="clip-rule:evenodd;fill-rule:evenodd;image-rendering:optimizeQuality;shape-rendering:geometricPrecision;text-rendering:geometricPrecision"
   viewBox="0 0 7874.0005 7874.0005"
   id="svg3959"
   inkscape:version="0.91 r13725"
   sodipodi:docname="Yu Jing - Oniwaban Shinobu Kitsune - [N3] [Vyo].svg"><metadata
     id="metadata4062"><rdf:RDF><cc:Work
         rdf:about=""><dc:format>image/svg+xml</dc:format><dc:type
           rdf:resource="http://purl.org/dc/dcmitype/StillImage" /></cc:Work></rdf:RDF></metadata><sodipodi:namedview
     pagecolor="#ffffff"
     bordercolor="#666666"
     borderopacity="1"
     objecttolerance="10"
     gridtolerance="10"
     guidetolerance="10"
     inkscape:pageopacity="0"
     inkscape:pageshadow="2"
     inkscape:window-width="640"
     inkscape:window-height="480"
     id="namedview4060"
     showgrid="false"
     inkscape:zoom="0.23838384"
     inkscape:cx="736.83001"
     inkscape:cy="849.33005"
     inkscape:window-x="0"
     inkscape:window-y="0"
     inkscape:window-maximized="0"
     inkscape:current-layer="svg3959" /><defs
     id="defs3961"><style
       type="text/css"
       id="style3963"><![CDATA[
    .fil0 {fill:black}
    .fil1 {fill:white}
    .fil2 {fill:white}
   ]]></style></defs><g
     id="Layer_x0020_1"
     transform="translate(3937,-7063)"><metadata
       id="CorelCorpID_0Corel-Layer" /><circle
       class="fil0"
       cy="11000"
       r="3937"
       id="circle3967"
       cx="0"
       style="fill:#000000" /><circle
       class="fil1"
       cy="11000"
       r="3583"
       id="circle3969"
       cx="0"
       style="fill:#ffffff" /><circle
       class="fil0"
       cy="11000"
       r="2953"
       id="circle3971"
       cx="0"
       style="fill:#000000" /><g
       id="_883904496"><path
         class="fil1"
         d="m 0,8165 c 212,0 419,24 617,68 -99,28 -199,71 -299,129 -130,75 -241,191 -318,326 -77,-135 -188,-251 -318,-326 -100,-58 -200,-101 -299,-129 198,-44 405,-68 617,-68 z"
         id="path3974"
         inkscape:connector-curvature="0"
         style="fill:#ffffff" /><path
         class="fil2"
         d="m 258,9451 c 11,113 18,236 18,368 0,33 -1,65 -2,97 80,188 204,354 351,496 33,-157 46,-321 30,-481 -57,-58 -112,-122 -160,-194 -60,-89 -106,-180 -141,-272 l 0,0 c -33,0 -65,-5 -96,-14 z"
         id="path3976"
         inkscape:connector-curvature="0"
         style="fill:#ffffff" /><path
         class="fil2"
         d="m 685,9239 c 73,67 141,144 201,233 49,73 88,147 120,222 143,75 299,124 458,152 -60,-150 -141,-292 -243,-416 -80,-16 -162,-39 -242,-72 -104,-42 -198,-96 -282,-156 -4,12 -8,25 -12,37 z"
         id="path3978"
         inkscape:connector-curvature="0"
         style="fill:#ffffff" /><path
         class="fil2"
         d="m 396,9462 c 34,88 78,173 131,253 140,207 339,364 560,477 -22,-247 -94,-491 -233,-698 -54,-80 -117,-152 -187,-218 -53,101 -153,172 -271,186 z"
         id="path3980"
         inkscape:connector-curvature="0"
         style="fill:#ffffff" /><path
         class="fil2"
         d="m 561,8823 c 184,-7 391,15 595,97 80,33 155,73 223,117 44,-5 87,-12 130,-21 -52,-95 -130,-175 -229,-233 -255,-147 -468,-161 -726,-12 -13,7 -25,15 -36,25 15,8 30,17 43,27 z"
         id="path3982"
         inkscape:connector-curvature="0"
         style="fill:#ffffff" /><path
         class="fil2"
         d="m 705,9159 c 89,66 185,121 288,163 232,93 485,113 731,83 -156,-193 -352,-355 -583,-448 -170,-69 -352,-98 -535,-96 64,65 103,154 103,249 0,17 -1,33 -4,49 z"
         id="path3984"
         inkscape:connector-curvature="0"
         style="fill:#ffffff" /><path
         class="fil2"
         d="m -354,9465 c -35,92 -81,183 -141,272 -48,72 -103,136 -160,194 -16,160 -3,324 30,481 147,-142 271,-308 351,-496 -1,-32 -2,-64 -2,-97 0,-132 6,-255 18,-368 -31,9 -63,14 -96,14 l 0,0 z"
         id="path3986"
         inkscape:connector-curvature="0"
         style="fill:#ffffff" /><path
         class="fil2"
         d="m -697,9202 c -84,60 -178,114 -282,156 -80,33 -162,56 -242,72 -102,124 -183,266 -243,416 159,-28 315,-77 458,-152 32,-75 71,-149 120,-222 60,-89 128,-166 201,-233 -4,-12 -8,-25 -12,-37 z"
         id="path3988"
         inkscape:connector-curvature="0"
         style="fill:#ffffff" /><path
         class="fil2"
         d="m -667,9276 c -70,66 -133,138 -187,218 -139,207 -211,451 -233,698 221,-113 420,-270 560,-477 53,-80 97,-165 131,-253 -118,-14 -218,-85 -271,-186 z"
         id="path3990"
         inkscape:connector-curvature="0"
         style="fill:#ffffff" /><path
         class="fil2"
         d="m -1509,9016 c 43,9 86,16 130,21 68,-44 143,-84 223,-117 204,-82 411,-104 595,-97 13,-10 28,-19 43,-27 -11,-10 -23,-18 -36,-25 -258,-149 -471,-135 -726,12 -99,58 -177,138 -229,233 z"
         id="path3992"
         inkscape:connector-curvature="0"
         style="fill:#ffffff" /><path
         class="fil2"
         d="m -606,8861 c -183,-1 -365,27 -535,96 -231,93 -427,255 -583,448 246,30 499,10 731,-83 103,-42 199,-97 288,-163 -3,-16 -4,-32 -4,-49 0,-95 39,-184 103,-249 z"
         id="path3994"
         inkscape:connector-curvature="0"
         style="fill:#ffffff" /><path
         class="fil2"
         d="m -217,9437 c -14,128 -19,256 -19,382 0,240 19,490 77,724 33,129 83,275 159,390 76,-115 126,-261 159,-390 58,-234 77,-484 77,-724 0,-126 -5,-254 -19,-382 C 97,9386 9,9271 1,9132 l 0,-2 -2,0 0,2 c -8,139 -96,254 -216,305 z"
         id="path3996"
         inkscape:connector-curvature="0"
         style="fill:#ffffff" /><path
         class="fil1"
         d="m -445,8809 c -130,39 -224,159 -224,301 0,174 141,315 315,315 167,0 304,-130 314,-295 l 0,0 c 0,-4 0,-8 0,-11 l 1,-1 0,0 0,0 c 0,-3 0,-5 0,-8 l 0,0 0,0 c -1,-239 -152,-493 -358,-612 -354,-204 -685,-193 -1040,13 -295,170 -463,475 -466,813 -2,293 126,605 388,756 l 1463,845 c -61,-102 -114,-238 -153,-407 l -300,-173 c -48,53 -96,101 -143,143 -18,-76 -35,-161 -44,-251 l -198,-115 c -82,55 -165,100 -241,135 4,-79 14,-165 31,-256 l -243,-140 c -64,15 -125,27 -183,35 16,-42 33,-86 54,-131 -78,-83 -125,-197 -145,-311 -64,-4 -124,-11 -180,-20 49,-65 108,-135 177,-202 27,-202 138,-378 321,-483 270,-156 496,-167 765,-12 31,18 61,43 89,72 z"
         id="path3998"
         inkscape:connector-curvature="0"
         style="fill:#ffffff" /><path
         class="fil1"
         d="m 445,8809 c 130,39 224,159 224,301 0,174 -141,315 -315,315 -167,0 -304,-130 -314,-295 l 0,0 c 0,-4 0,-8 -1,-11 l 0,-1 0,0 0,0 c 0,-3 0,-5 0,-8 l 0,0 0,0 c 1,-239 152,-493 358,-612 354,-204 685,-193 1040,13 295,170 463,475 466,813 2,293 -126,605 -388,756 L 52,10925 c 61,-102 114,-238 153,-407 l 300,-173 c 48,53 96,101 143,143 18,-76 35,-161 44,-251 l 198,-115 c 82,55 165,100 241,135 -4,-79 -14,-165 -31,-256 l 243,-140 c 64,15 125,27 183,35 -16,-42 -33,-86 -54,-131 78,-83 125,-197 145,-311 64,-4 124,-11 180,-20 -49,-65 -108,-135 -177,-202 -27,-202 -138,-378 -321,-483 -270,-156 -496,-167 -765,-12 -31,18 -61,43 -89,72 z"
         id="path4000"
         inkscape:connector-curvature="0"
         style="fill:#ffffff" /></g><g
       id="_783315136"><path
         class="fil1"
         d="m -2455,12417 c -106,-183 -189,-374 -250,-568 74,72 161,137 261,195 130,75 286,113 441,112 -78,135 -123,288 -123,438 0,117 13,224 38,324 -137,-150 -261,-317 -367,-501 z"
         id="path4003"
         inkscape:connector-curvature="0"
         style="fill:#ffffff" /><path
         class="fil2"
         d="m -1470,11551 c 92,-67 195,-133 309,-199 29,-17 57,-33 85,-48 123,-163 205,-353 255,-551 -154,50 -301,121 -432,214 -22,79 -50,158 -88,236 -47,96 -104,181 -166,258 l 0,0 c 17,29 29,59 37,90 z"
         id="path4005"
         inkscape:connector-curvature="0"
         style="fill:#ffffff" /><path
         class="fil2"
         d="m -1868,11288 c 22,-97 55,-195 102,-292 38,-78 83,-150 132,-215 -7,-161 -42,-320 -98,-472 -99,127 -182,268 -238,419 26,77 47,159 59,245 16,111 16,220 5,323 13,-4 26,-6 38,-8 z"
         id="path4007"
         inkscape:connector-curvature="0"
         style="fill:#ffffff" /><path
         class="fil2"
         d="m -1530,11426 c 60,-74 111,-154 153,-240 110,-224 146,-475 134,-723 -203,142 -378,326 -488,550 -42,87 -73,178 -95,271 113,-4 225,47 296,142 z"
         id="path4009"
         inkscape:connector-curvature="0"
         style="fill:#ffffff" /><path
         class="fil2"
         d="m -2166,11602 c -98,-155 -182,-346 -213,-563 -12,-86 -15,-171 -11,-252 -26,-35 -53,-69 -83,-102 -56,93 -87,200 -87,315 0,295 94,486 352,635 13,7 26,14 40,19 -1,-17 0,-35 2,-52 z"
         id="path4011"
         inkscape:connector-curvature="0"
         style="fill:#ffffff" /><path
         class="fil2"
         d="m -1947,11310 c 13,-110 12,-221 -3,-331 -35,-247 -145,-476 -294,-675 -88,232 -131,482 -96,730 26,181 92,353 184,510 25,-87 82,-165 165,-213 14,-8 29,-15 44,-21 z"
         id="path4013"
         inkscape:connector-curvature="0"
         style="fill:#ffffff" /><path
         class="fil2"
         d="m -1153,12075 c 98,-16 200,-22 306,-15 87,6 170,21 249,42 146,-67 281,-160 401,-267 -196,-56 -402,-80 -604,-56 -27,17 -55,34 -84,50 -114,66 -224,122 -327,169 23,22 43,48 59,77 l 0,0 z"
         id="path4015"
         inkscape:connector-curvature="0"
         style="fill:#ffffff" /><path
         class="fil2"
         d="m -1209,12503 c 94,42 188,96 277,165 68,54 129,113 182,174 159,27 323,25 483,3 -104,-124 -225,-234 -361,-321 -81,10 -165,13 -252,7 -107,-7 -208,-28 -303,-57 -8,10 -17,19 -26,29 z"
         id="path4017"
         inkscape:connector-curvature="0"
         style="fill:#ffffff" /><path
         class="fil2"
         d="m -1159,12440 c 91,27 186,45 282,52 249,18 496,-42 721,-147 -209,-135 -444,-228 -694,-246 -95,-6 -190,-2 -284,13 47,109 35,231 -25,328 z"
         id="path4019"
         inkscape:connector-curvature="0"
         style="fill:#ffffff" /><path
         class="fil2"
         d="m -964,13299 c -13,-42 -29,-83 -46,-123 -73,-37 -145,-82 -213,-135 -173,-135 -296,-304 -382,-466 -16,-7 -31,-15 -45,-25 -2,15 -4,30 -4,45 0,298 119,474 374,622 99,57 208,84 316,82 z"
         id="path4021"
         inkscape:connector-curvature="0"
         style="fill:#ffffff" /><path
         class="fil2"
         d="m -1549,12595 c 90,158 205,302 350,415 197,153 435,242 680,281 -98,-228 -241,-438 -438,-592 -87,-68 -183,-124 -285,-168 -12,10 -26,19 -40,28 -83,47 -179,59 -267,36 z"
         id="path4023"
         inkscape:connector-curvature="0"
         style="fill:#ffffff" /><path
         class="fil2"
         d="m -1245,11970 c 117,-52 231,-112 340,-175 208,-120 415,-262 588,-429 96,-93 198,-209 259,-332 -138,-9 -289,20 -417,57 -232,67 -458,175 -666,295 -109,63 -218,132 -321,207 16,130 -40,264 -156,340 l -2,2 1,1 2,-2 c 124,-61 268,-43 372,36 z"
         id="path4025"
         inkscape:connector-curvature="0"
         style="fill:#ffffff" /><path
         class="fil1"
         d="m -1675,12481 c 99,93 250,115 373,44 151,-87 202,-280 115,-431 -83,-145 -265,-198 -413,-124 l 0,0 c -3,1 -6,3 -10,5 l 0,0 0,0 0,0 c -2,1 -5,3 -7,4 l 0,0 0,0 c -207,120 -351,378 -351,616 0,408 175,689 531,894 294,170 643,163 937,-3 255,-145 461,-411 461,-714 l 0,-1690 c -58,104 -149,218 -276,337 l 0,346 c 70,15 135,33 195,52 -56,54 -121,111 -195,164 l 0,229 c 89,43 168,92 237,141 -70,36 -150,71 -237,100 l 0,282 c 45,47 86,95 121,140 -44,8 -90,15 -139,20 -33,109 -108,206 -197,280 28,57 52,113 73,166 -82,-10 -171,-26 -264,-52 -188,77 -396,69 -578,-36 -270,-156 -394,-347 -394,-656 0,-37 6,-76 18,-114 z"
         id="path4027"
         inkscape:connector-curvature="0"
         style="fill:#ffffff" /><path
         class="fil1"
         d="m -2120,11710 c -31,-132 26,-274 149,-345 150,-87 343,-35 430,116 84,144 39,328 -99,419 l 0,0 c -3,2 -6,5 -9,6 l 0,1 0,0 -1,0 c -2,1 -4,2 -6,4 l 0,0 -1,0 c -207,119 -502,115 -708,-3 -354,-205 -509,-498 -509,-908 0,-340 180,-638 471,-810 253,-149 587,-193 849,-42 l 1463,845 c -119,-2 -263,20 -429,70 l -300,-173 c 22,-68 40,-133 53,-195 -76,22 -157,50 -240,87 l -198,-114 c 6,-99 4,-192 -4,-276 -66,43 -136,95 -205,155 l -244,-141 c -19,-62 -40,-121 -61,-175 -29,34 -58,71 -87,111 -111,-26 -233,-10 -341,31 -36,-54 -72,-103 -108,-147 -32,76 -62,162 -86,255 -161,124 -258,309 -258,519 0,312 103,514 372,669 31,18 68,32 107,41 z"
         id="path4029"
         inkscape:connector-curvature="0"
         style="fill:#ffffff" /></g><g
       id="_783313344"><path
         class="fil1"
         d="m 2455,12417 c -106,184 -230,351 -367,501 25,-100 38,-207 38,-324 0,-150 -45,-303 -123,-438 155,1 311,-37 441,-112 100,-58 187,-123 261,-195 -61,194 -144,385 -250,568 z"
         id="path4032"
         inkscape:connector-curvature="0"
         style="fill:#ffffff" /><path
         class="fil2"
         d="m 1212,11998 c -103,-47 -213,-103 -327,-169 -29,-16 -56,-33 -84,-50 -202,-24 -408,0 -604,56 120,107 255,200 401,267 79,-21 162,-36 249,-42 106,-7 208,-1 306,15 l 0,0 c 16,-29 36,-55 59,-77 z"
         id="path4034"
         inkscape:connector-curvature="0"
         style="fill:#ffffff" /><path
         class="fil2"
         d="m 1183,12474 c -95,29 -196,50 -303,57 -87,6 -171,3 -252,-7 -136,87 -257,197 -361,321 160,22 324,24 483,-3 53,-61 114,-120 182,-174 89,-69 183,-123 277,-165 -9,-10 -18,-19 -26,-29 z"
         id="path4036"
         inkscape:connector-curvature="0"
         style="fill:#ffffff" /><path
         class="fil2"
         d="m 1134,12112 c -94,-15 -189,-19 -284,-13 -250,18 -485,111 -694,246 225,105 472,165 721,147 96,-7 191,-25 282,-52 -60,-97 -72,-219 -25,-328 z"
         id="path4038"
         inkscape:connector-curvature="0"
         style="fill:#ffffff" /><path
         class="fil2"
         d="m 1605,12575 c -86,162 -209,331 -382,466 -68,53 -140,98 -213,135 -17,40 -33,81 -46,123 108,2 217,-25 316,-82 255,-148 374,-324 374,-623 0,-14 -2,-29 -4,-44 -14,10 -29,18 -45,25 z"
         id="path4040"
         inkscape:connector-curvature="0"
         style="fill:#ffffff" /><path
         class="fil2"
         d="m 1242,12531 c -102,44 -198,100 -285,168 -197,154 -340,364 -438,592 245,-39 483,-128 680,-281 145,-113 260,-257 350,-415 -88,23 -184,11 -267,-36 -14,-9 -28,-18 -40,-28 z"
         id="path4042"
         inkscape:connector-curvature="0"
         style="fill:#ffffff" /><path
         class="fil2"
         d="m 1507,11461 c -62,-77 -119,-162 -166,-258 -38,-78 -66,-157 -88,-236 -131,-93 -278,-164 -432,-214 50,198 132,388 255,551 28,15 56,31 85,48 114,66 217,132 309,199 8,-31 20,-61 37,-90 l 0,0 z"
         id="path4044"
         inkscape:connector-curvature="0"
         style="fill:#ffffff" /><path
         class="fil2"
         d="m 1906,11296 c -11,-103 -11,-212 5,-323 12,-86 33,-168 59,-245 -56,-151 -139,-292 -238,-419 -56,152 -91,311 -98,472 49,65 94,137 132,215 47,97 80,195 102,292 12,2 25,4 38,8 z"
         id="path4046"
         inkscape:connector-curvature="0"
         style="fill:#ffffff" /><path
         class="fil2"
         d="m 1826,11284 c -22,-93 -53,-184 -95,-271 -110,-224 -285,-408 -488,-550 -12,248 24,499 134,723 42,86 93,166 153,240 71,-95 183,-146 296,-142 z"
         id="path4048"
         inkscape:connector-curvature="0"
         style="fill:#ffffff" /><path
         class="fil2"
         d="m 2473,10685 c -30,33 -57,67 -83,102 4,81 1,166 -11,252 -31,217 -115,408 -213,563 2,17 3,35 2,52 14,-6 27,-12 40,-19 258,-149 352,-340 352,-635 0,-115 -31,-222 -87,-315 z"
         id="path4050"
         inkscape:connector-curvature="0"
         style="fill:#ffffff" /><path
         class="fil2"
         d="m 2156,11544 c 92,-157 158,-329 184,-510 35,-248 -8,-498 -96,-730 -149,199 -259,428 -294,675 -15,110 -16,221 -3,331 15,6 30,13 44,21 83,48 140,126 165,213 z"
         id="path4052"
         inkscape:connector-curvature="0"
         style="fill:#ffffff" /><path
         class="fil2"
         d="m 1462,11593 c -103,-75 -212,-144 -321,-207 -208,-120 -434,-228 -666,-295 -128,-37 -279,-66 -417,-57 61,123 163,239 259,332 173,167 380,309 588,429 109,63 223,123 340,175 104,-80 248,-97 372,-36 l 2,2 1,-1 -2,-2 c -116,-76 -172,-210 -156,-340 z"
         id="path4054"
         inkscape:connector-curvature="0"
         style="fill:#ffffff" /><path
         class="fil1"
         d="m 2120,11710 c 31,-132 -26,-274 -149,-345 -150,-87 -343,-35 -430,116 -84,144 -39,328 99,419 l 0,0 c 3,2 6,4 9,6 l 0,1 0,0 1,0 c 2,1 4,2 6,4 l 0,0 1,0 c 207,119 502,115 708,-3 354,-205 509,-498 509,-908 0,-340 -180,-638 -471,-810 -253,-149 -587,-193 -849,-42 L 91,10993 c 119,-2 263,20 429,70 l 300,-173 c -22,-68 -40,-133 -53,-195 76,22 157,50 240,87 l 198,-114 c -6,-99 -4,-192 4,-276 66,43 136,95 206,155 l 243,-141 c 19,-62 40,-121 61,-175 29,34 58,71 87,111 111,-26 233,-10 341,31 36,-54 72,-103 108,-147 32,76 62,162 86,255 161,124 258,309 258,519 0,312 -103,514 -372,669 -31,18 -68,32 -107,41 z"
         id="path4056"
         inkscape:connector-curvature="0"
         style="fill:#ffffff" /><path
         class="fil1"
         d="m 1675,12481 c -99,93 -250,115 -373,44 -151,-87 -202,-280 -115,-431 83,-145 265,-198 413,-124 l 0,0 c 3,1 6,3 10,5 l 0,0 0,0 0,0 c 2,1 5,3 7,4 l 0,0 0,0 c 207,120 352,378 352,615 0,409 -176,690 -532,895 -294,170 -643,163 -937,-3 -255,-145 -461,-411 -461,-714 l 0,-1690 c 58,104 149,218 276,337 l 0,346 c -70,15 -135,33 -195,52 56,54 121,111 195,164 l 0,229 c -89,43 -168,92 -237,141 70,35 150,71 237,100 l 0,282 c -45,47 -86,95 -121,140 44,8 90,15 139,20 33,109 108,206 197,280 -28,57 -52,113 -73,166 82,-10 171,-26 264,-52 188,77 396,69 578,-36 270,-156 394,-347 394,-657 0,-36 -6,-75 -18,-113 z"
         id="path4058"
         inkscape:connector-curvature="0"
         style="fill:#ffffff" /></g></g></svg>