<?xml version="1.0" encoding="UTF-8" standalone="no"?>
<!-- Creator: CorelDRAW X7 -->

<svg
   xmlns:dc="http://purl.org/dc/elements/1.1/"
   xmlns:cc="http://creativecommons.org/ns#"
   xmlns:rdf="http://www.w3.org/1999/02/22-rdf-syntax-ns#"
   xmlns:svg="http://www.w3.org/2000/svg"
   xmlns="http://www.w3.org/2000/svg"
   xmlns:sodipodi="http://sodipodi.sourceforge.net/DTD/sodipodi-0.dtd"
   xmlns:inkscape="http://www.inkscape.org/namespaces/inkscape"
   xml:space="preserve"
   width="7.8740005in"
   height="7.8740005in"
   version="1.1"
   style="clip-rule:evenodd;fill-rule:evenodd;image-rendering:optimizeQuality;shape-rendering:geometricPrecision;text-rendering:geometricPrecision"
   viewBox="0 0 7874.0005 7874.0005"
   id="svg3459"
   inkscape:version="0.91 r13725"
   sodipodi:docname="Yu Jing - Gui Feng Spec-Ops - [N3] [Vyo].svg"><metadata
     id="metadata3473"><rdf:RDF><cc:Work
         rdf:about=""><dc:format>image/svg+xml</dc:format><dc:type
           rdf:resource="http://purl.org/dc/dcmitype/StillImage" /></cc:Work></rdf:RDF></metadata><sodipodi:namedview
     pagecolor="#ffffff"
     bordercolor="#666666"
     borderopacity="1"
     objecttolerance="10"
     gridtolerance="10"
     guidetolerance="10"
     inkscape:pageopacity="0"
     inkscape:pageshadow="2"
     inkscape:window-width="640"
     inkscape:window-height="480"
     id="namedview3471"
     showgrid="false"
     inkscape:zoom="0.23838384"
     inkscape:cx="736.83001"
     inkscape:cy="849.33005"
     inkscape:window-x="0"
     inkscape:window-y="0"
     inkscape:window-maximized="0"
     inkscape:current-layer="svg3459" /><defs
     id="defs3461"><style
       type="text/css"
       id="style3463"><![CDATA[
    .fil0 {fill:#E32527}
    .fil1 {fill:white}
   ]]></style></defs><g
     id="Layer_x0020_1"
     transform="translate(3937,-7063)"><metadata
       id="CorelCorpID_0Corel-Layer" /><circle
       class="fil0"
       cy="11000"
       r="3937"
       id="circle3467"
       cx="0"
       style="fill:#e32527" /><path
       class="fil1"
       d="m 0,8126 c 1314,0 2422,882 2765,2087 l 857,0 -359,708 -2181,0 c 167,-212 303,-451 400,-708 l 536,0 C 1703,9406 918,8835 0,8835 c -918,0 -1703,571 -2018,1378 l 994,0 c 181,0 351,-51 494,-140 4,117 54,232 149,315 180,157 454,138 611,-42 l 0,0 c 2,-3 5,-6 7,-8 27,-32 48,-66 63,-102 74,-169 34,-373 -112,-501 -48,-41 -101,-70 -158,-87 257,-92 554,-49 777,140 331,282 372,779 90,1110 -4,6 -9,11 -14,17 -462,534 -1145,872 -1907,872 l -994,0 c 315,807 1100,1378 2018,1378 918,0 1703,-571 2018,-1378 l -2135,0 c 411,-147 775,-393 1065,-708 l 2235,0 -618,1219 c -474,935 -1445,1576 -2565,1576 -1314,0 -2422,-882 -2765,-2087 l -857,0 359,-708 2239,0 c 264,0 515,-57 741,-158 -73,-19 -144,-48 -211,-87 -166,57 -344,87 -530,87 l -2159,0 618,-1219 C -2091,8767 -1120,8126 0,8126 Z"
       id="path3469"
       inkscape:connector-curvature="0"
       style="fill:#ffffff" /></g></svg>