<?xml version="1.0" encoding="UTF-8" standalone="no"?>
<!-- Creator: CorelDRAW X7 -->

<svg
   xmlns:dc="http://purl.org/dc/elements/1.1/"
   xmlns:cc="http://creativecommons.org/ns#"
   xmlns:rdf="http://www.w3.org/1999/02/22-rdf-syntax-ns#"
   xmlns:svg="http://www.w3.org/2000/svg"
   xmlns="http://www.w3.org/2000/svg"
   xmlns:sodipodi="http://sodipodi.sourceforge.net/DTD/sodipodi-0.dtd"
   xmlns:inkscape="http://www.inkscape.org/namespaces/inkscape"
   xml:space="preserve"
   width="7.8740005in"
   height="7.8740005in"
   version="1.1"
   style="clip-rule:evenodd;fill-rule:evenodd;image-rendering:optimizeQuality;shape-rendering:geometricPrecision;text-rendering:geometricPrecision"
   viewBox="0 0 7874.0005 7874.0005"
   id="svg3598"
   inkscape:version="0.91 r13725"
   sodipodi:docname="Yu Jing - Hac Tao Special Unit v2 - [N3] [Vyo].svg"><metadata
     id="metadata3633"><rdf:RDF><cc:Work
         rdf:about=""><dc:format>image/svg+xml</dc:format><dc:type
           rdf:resource="http://purl.org/dc/dcmitype/StillImage" /></cc:Work></rdf:RDF></metadata><sodipodi:namedview
     pagecolor="#ffffff"
     bordercolor="#666666"
     borderopacity="1"
     objecttolerance="10"
     gridtolerance="10"
     guidetolerance="10"
     inkscape:pageopacity="0"
     inkscape:pageshadow="2"
     inkscape:window-width="640"
     inkscape:window-height="480"
     id="namedview3631"
     showgrid="false"
     inkscape:zoom="0.23838384"
     inkscape:cx="736.83001"
     inkscape:cy="849.33005"
     inkscape:window-x="0"
     inkscape:window-y="0"
     inkscape:window-maximized="0"
     inkscape:current-layer="svg3598" /><defs
     id="defs3600"><style
       type="text/css"
       id="style3602"><![CDATA[
    .fil4 {fill:none}
    .fil1 {fill:black}
    .fil0 {fill:#E2001A}
    .fil2 {fill:white}
    .fil5 {fill:black;fill-rule:nonzero}
    .fil3 {fill:black;fill-rule:nonzero}
   ]]></style></defs><g
     id="Layer_x0020_1"
     transform="translate(3937,-7063)"><metadata
       id="CorelCorpID_0Corel-Layer" /><circle
       class="fil0"
       cy="11000"
       r="3937"
       id="circle3606"
       cx="0"
       style="fill:#e2001a" /><path
       class="fil1"
       d="m -2714,8513 c 26,-28 55,-2 29,27 -502,587 -768,1301 -840,2016 l -188,-188 c 132,-682 475,-1322 999,-1855 z m 232,213 c -520,526 -863,1191 -955,1918 l 95,95 125,-124 c 65,-676 324,-1344 764,-1863 25,-29 -2,-53 -29,-26 z m -901,2139 c -2,45 -3,90 -3,135 0,148 10,294 28,438 l -416,-223 c -3,-71 -6,-143 -6,-215 0,-169 12,-335 33,-499 l 364,364 z m 47,718 c 36,209 92,412 165,605 l -457,-125 c -67,-228 -112,-465 -135,-709 l 427,229 z m 219,743 c 118,275 271,533 454,765 l -486,0 c -183,-275 -331,-575 -437,-894 l 469,129 z m 551,883 c 55,64 112,126 172,185 219,219 468,409 741,561 l -549,117 c -167,-120 -325,-254 -471,-399 -143,-144 -275,-299 -394,-464 l 501,0 z m -290,-2789 c -21,108 -37,218 -47,330 l -382,636 c -14,-126 -22,-255 -22,-386 0,-44 1,-88 2,-131 l 449,-449 z m -57,576 c -1,127 7,255 24,381 l -224,742 c -63,-177 -112,-360 -145,-548 l 345,-575 z m 69,639 c 49,221 123,433 220,631 l 1,748 c -169,-219 -311,-460 -420,-718 l 199,-661 z m 338,851 c 124,210 274,403 446,574 97,97 200,187 310,269 l 142,562 c -269,-150 -514,-337 -730,-553 -58,-57 -114,-117 -168,-180 l 0,-672 z m -328,-2254 c 104,-448 297,-891 613,-1267 26,-30 -1,-54 -29,-26 -443,445 -736,980 -846,1554 l 262,-261 z"
       id="path3608"
       inkscape:connector-curvature="0"
       style="fill:#000000" /><path
       class="fil1"
       d="m 2714,8513 c -26,-28 -55,-2 -29,27 502,587 768,1301 840,2016 l 188,-188 C 3581,9686 3238,9046 2714,8513 Z m -232,213 c 520,526 863,1191 955,1918 l -95,95 -125,-124 c -65,-676 -324,-1344 -764,-1863 -25,-29 2,-53 29,-26 z m 901,2139 c 2,45 3,90 3,135 0,148 -10,294 -28,438 l 416,-223 c 3,-71 6,-143 6,-215 0,-169 -12,-335 -33,-499 l -364,364 z m -47,718 c -36,209 -92,412 -165,605 l 457,-125 c 67,-228 112,-465 135,-709 l -427,229 z m -219,743 c -118,275 -271,533 -454,765 l 486,0 c 183,-275 331,-575 437,-894 l -469,129 z m -551,883 c -55,64 -112,126 -172,185 -219,219 -468,409 -741,561 l 549,117 c 167,-120 325,-254 471,-399 143,-144 275,-299 394,-464 l -501,0 z m 290,-2789 c 21,108 37,218 47,330 l 382,636 c 14,-126 22,-255 22,-386 0,-44 -1,-88 -2,-131 l -449,-449 z m 57,576 c 1,127 -7,255 -24,381 l 224,742 c 63,-177 112,-360 145,-548 l -345,-575 z m -69,639 c -49,221 -123,433 -220,631 l -1,748 c 169,-219 311,-460 420,-718 l -199,-661 z m -338,851 c -124,210 -274,403 -446,574 -97,97 -200,187 -310,269 l -142,562 c 269,-150 514,-337 730,-553 58,-57 114,-117 168,-180 l 0,-672 z m 328,-2254 c -104,-448 -297,-891 -613,-1267 -26,-30 1,-54 29,-26 443,445 736,980 846,1554 l -262,-261 z"
       id="path3610"
       inkscape:connector-curvature="0"
       style="fill:#000000" /><path
       class="fil2"
       d="m 0,14780 c -763,0 -1473,-227 -2067,-615 l 617,-132 -152,-599 c 460,303 1010,479 1602,479 592,0 1142,-176 1602,-479 l -152,599 617,132 c -594,388 -1304,615 -2067,615 z"
       id="path3612"
       inkscape:connector-curvature="0"
       style="fill:#ffffff" /><path
       class="fil3"
       d="m -502,14055 -246,-32 c -15,-2 -26,-2 -35,1 l -10,-39 c 11,4 25,7 41,9 l 526,69 42,-45 c 6,-6 13,-9 20,-8 7,1 23,16 46,44 22,27 34,44 33,51 -1,3 -6,4 -16,3 l -323,-43 -29,223 159,21 42,-49 c 5,-6 9,-8 13,-8 4,1 11,6 21,15 10,9 22,21 36,36 14,15 22,25 25,30 3,4 4,8 3,11 -1,7 -7,10 -20,9 l -283,-38 -40,309 224,29 43,-41 c 6,-7 14,-9 21,-8 8,1 24,14 48,40 23,26 35,41 34,47 -1,5 -8,7 -22,5 l -712,-93 c -15,-2 -27,-2 -35,1 l -10,-38 c 11,4 24,7 40,9 l 290,38 41,-308 -208,-27 c -14,-2 -26,-2 -35,1 l -10,-39 c 11,4 25,8 41,10 l 215,28 30,-223 z m 120,338 c 51,40 86,69 103,90 18,20 26,38 24,53 -2,14 -8,28 -19,42 -10,14 -20,20 -28,19 -8,-1 -14,-4 -18,-8 -3,-4 -8,-20 -15,-48 -6,-29 -14,-53 -23,-74 -8,-21 -20,-41 -35,-62 l 11,-12 z m 822,-318 c -22,-57 -47,-97 -78,-120 l 5,-13 c 87,3 132,22 137,55 1,10 -2,23 -9,37 -7,15 -18,28 -34,38 l 227,-30 31,-61 c 5,-10 10,-15 16,-16 5,-1 12,1 19,6 7,4 20,13 36,26 17,13 29,22 35,28 6,5 9,11 10,15 0,5 -5,8 -16,10 l -695,91 c -15,2 -26,5 -34,10 l -19,-32 c 12,1 26,1 42,-1 l 327,-43 z m -107,124 271,-35 18,-35 c 3,-5 6,-8 9,-9 5,0 20,5 45,16 24,11 39,18 43,20 5,3 7,5 8,8 0,6 -11,17 -35,34 l 13,107 7,36 c 1,5 -1,10 -5,13 -3,3 -12,8 -25,14 -13,6 -23,9 -28,10 -5,1 -8,0 -10,-3 -1,-2 -2,-6 -3,-12 l -3,-20 -107,14 29,223 c 6,42 5,69 -3,82 -8,12 -21,23 -39,33 -19,9 -30,14 -34,15 -5,0 -9,-4 -13,-14 -7,-18 -17,-31 -32,-40 -14,-9 -41,-18 -80,-26 l 0,-14 c 56,2 90,2 103,0 13,-2 21,-5 24,-8 2,-4 2,-10 1,-19 l -29,-222 -121,16 c 1,12 1,20 -1,23 -3,3 -12,8 -27,15 -15,7 -25,11 -31,11 -5,1 -8,-3 -8,-10 0,-18 -1,-38 -4,-59 l -16,-124 c -3,-23 -7,-46 -12,-69 46,11 78,21 95,29 z m 302,118 -17,-132 -302,40 17,132 302,-40 z m -321,111 c 16,5 32,11 47,18 16,7 27,13 32,16 5,3 8,6 8,10 1,5 -2,8 -10,9 -7,2 -13,5 -16,8 -4,4 -18,22 -41,53 -24,31 -48,59 -73,84 -25,25 -63,57 -114,94 l -9,-10 c 53,-66 92,-118 115,-156 24,-38 44,-80 61,-126 z m 263,-21 c 62,15 120,33 173,53 53,21 81,48 86,81 2,16 0,33 -5,49 -5,16 -12,25 -22,27 -4,0 -8,-1 -12,-4 -3,-2 -9,-8 -16,-18 -30,-38 -60,-70 -91,-95 -31,-25 -71,-51 -119,-79 l 6,-14 z"
       id="path3614"
       inkscape:connector-curvature="0"
       style="fill:#000000;fill-rule:nonzero" /><circle
       class="fil4"
       cy="11000"
       r="3898"
       id="circle3616"
       cx="0"
       style="fill:none" /><circle
       class="fil4"
       cy="11000"
       r="3898"
       id="circle3618"
       cx="0"
       style="fill:none" /><circle
       class="fil2"
       cy="11000"
       r="2362"
       id="circle3620"
       cx="0"
       style="fill:#ffffff" /><path
       class="fil1"
       d="m 1142,10705 c 163,0 295,132 295,295 0,163 -132,295 -295,295 -163,0 -296,-132 -296,-295 0,-163 133,-295 296,-295 z m 1141,295 c 0,1261 -1022,2283 -2283,2283 -1261,0 -2283,-1022 -2283,-2283 0,-631 511,-1142 1141,-1142 631,0 1142,511 1142,1142 0,631 511,1142 1142,1142 630,0 1141,-511 1141,-1142 z m -3425,-295 c 163,0 296,132 296,295 0,163 -133,295 -296,295 -163,0 -295,-132 -295,-295 0,-163 132,-295 295,-295 z"
       id="path3622"
       inkscape:connector-curvature="0"
       style="fill:#000000" /><circle
       class="fil4"
       cy="11000"
       r="3898"
       id="circle3624"
       cx="0"
       style="fill:none" /><path
       class="fil5"
       d="m -1254,7913 -51,-113 -86,39 c -11,5 -20,12 -26,19 l -27,-23 c 11,-2 23,-6 36,-12 l 94,-43 -24,-53 c -13,-27 -23,-48 -32,-63 31,-8 55,-13 70,-14 16,-1 25,0 26,3 1,3 -4,12 -15,26 l 34,75 53,-25 8,-46 c 2,-9 4,-15 9,-17 4,-1 12,-1 23,1 10,2 23,5 37,9 15,3 24,6 30,8 5,2 8,4 9,6 3,6 -2,11 -15,17 l -145,67 51,112 108,-49 10,-48 c 1,-9 5,-14 9,-16 5,-2 21,1 49,11 27,9 42,16 43,19 2,5 -4,10 -19,16 l -363,166 c -12,5 -21,11 -26,18 l -26,-23 c 11,-2 23,-6 36,-13 l 120,-54 z m -248,73 -60,28 c 5,60 3,116 -8,165 l -14,3 c -3,-85 -24,-181 -64,-287 8,-1 22,-4 43,-7 20,-3 33,-4 37,-4 4,0 6,2 7,5 2,2 1,6 -3,9 -3,4 -6,10 -7,17 -1,8 -1,16 1,27 1,10 3,26 6,49 l 53,-24 -62,-136 c -9,-19 -18,-38 -28,-56 62,-11 94,-14 97,-7 3,5 -3,15 -17,29 l 65,144 19,-8 5,-40 c 1,-7 4,-12 8,-14 5,-2 19,0 42,7 24,6 37,12 40,17 2,6 -2,11 -14,17 l -91,41 51,112 73,-77 12,11 -69,100 108,237 c 2,5 1,10 -2,16 -3,5 -9,13 -19,24 -10,10 -16,16 -18,17 -3,1 -5,0 -7,-4 l -14,-33 c -9,-23 -17,-43 -25,-61 l -63,-137 c -31,45 -48,72 -51,81 -4,10 -7,15 -9,16 -3,1 -8,0 -14,-3 -6,-3 -27,-16 -62,-38 37,-30 76,-64 115,-101 l -61,-135 z m 440,-31 26,-12 7,-39 c 1,-7 5,-12 10,-14 4,-2 20,1 46,9 25,8 39,15 41,19 1,2 -3,5 -11,9 l -109,49 83,182 c 6,14 9,26 8,37 -1,10 -8,24 -22,41 -13,17 -23,27 -29,30 -4,1 -8,-1 -12,-7 -10,-17 -22,-26 -35,-29 -13,-3 -39,-2 -77,4 l -2,-15 c 42,-13 69,-22 80,-27 12,-6 19,-11 20,-15 2,-3 1,-9 -2,-16 l -72,-157 -177,80 c -11,5 -20,11 -27,17 l -25,-23 c 11,-2 23,-6 36,-12 l 183,-84 c -21,-47 -34,-74 -38,-81 54,-17 82,-22 84,-17 2,4 -1,10 -8,21 l 22,50 z m -208,140 c 35,2 63,7 82,13 20,6 33,16 39,29 6,13 6,27 0,41 -6,14 -12,22 -19,25 -7,3 -11,4 -14,2 -3,-2 -9,-11 -17,-27 -8,-16 -18,-30 -30,-41 -11,-11 -26,-22 -43,-31 l 2,-11 z"
       id="path3626"
       inkscape:connector-curvature="0"
       style="fill:#000000;fill-rule:nonzero" /><path
       id="1"
       class="fil5"
       d="m -384,7622 -69,10 c -8,30 -23,70 -46,121 l -17,-6 c 15,-60 23,-141 22,-242 32,6 53,10 61,13 9,3 13,5 14,7 0,2 -2,5 -7,9 -5,4 -9,12 -12,26 -2,13 -5,29 -9,46 l 59,-9 -17,-123 c -3,-19 -7,-37 -11,-55 20,2 40,5 60,8 20,3 32,6 37,7 4,2 7,4 7,7 1,4 -9,13 -30,27 l 17,121 67,-10 23,-44 c 2,-5 5,-8 7,-9 4,0 18,8 41,26 24,17 36,27 36,31 1,4 -4,7 -15,8 l -155,22 18,128 98,-14 18,-39 c 2,-4 4,-7 8,-7 7,-1 22,6 46,22 24,16 36,26 37,30 0,4 -4,6 -13,7 l -163,24 c 29,58 60,101 93,128 34,28 77,48 131,61 l 2,13 c -23,3 -40,7 -51,12 -11,6 -21,15 -30,29 -2,3 -4,5 -6,5 -6,1 -22,-11 -49,-36 -26,-25 -49,-55 -67,-88 -19,-34 -33,-75 -45,-121 l -5,1 43,307 c 1,4 0,7 -2,10 -2,2 -11,8 -27,17 -15,9 -24,14 -28,14 -3,1 -5,-1 -5,-6 l -2,-25 c -2,-17 -4,-39 -8,-65 l -27,-190 c -23,57 -50,106 -82,147 -31,41 -74,86 -130,134 l -11,-10 c 88,-100 145,-206 171,-318 l -77,11 c -11,1 -20,4 -27,7 l -17,-31 c 11,0 22,-1 34,-2 l 128,-18 -18,-128 z m -289,70 66,-10 9,-18 c 2,-5 5,-7 9,-8 4,0 12,2 26,8 14,6 24,11 31,13 7,3 11,6 11,9 1,4 -2,7 -9,11 -6,3 -10,8 -13,14 -3,5 -5,17 -6,34 -5,64 -13,116 -24,156 -11,40 -30,78 -57,114 -26,36 -65,76 -117,120 l -10,-11 c 59,-59 99,-120 123,-183 22,-62 33,-140 32,-233 l -78,11 c -5,20 -11,39 -17,56 40,23 61,46 65,69 1,11 -1,23 -6,37 -6,13 -12,20 -20,21 -7,1 -12,0 -15,-5 -2,-5 -4,-12 -6,-23 -4,-29 -12,-56 -25,-78 -18,48 -37,87 -57,114 l -14,-8 c 39,-102 59,-210 60,-326 l -57,9 c -11,1 -18,4 -24,8 l -16,-32 c 9,1 19,1 30,-1 l 168,-24 19,-34 c 5,-8 9,-13 14,-13 4,-1 11,2 20,9 8,7 19,15 32,24 12,10 19,16 20,20 0,3 -4,6 -13,7 l -131,19 c -3,39 -10,80 -20,124 z"
       inkscape:connector-curvature="0"
       style="fill:#000000;fill-rule:nonzero" /><path
       id="2"
       class="fil5"
       d="m 1450,7687 c 30,33 51,60 64,84 12,24 14,44 7,59 -7,15 -17,25 -30,31 -14,6 -24,7 -30,4 -4,-2 -6,-4 -6,-8 -1,-4 0,-12 2,-24 2,-12 2,-32 -2,-62 -4,-29 -9,-55 -17,-79 l 12,-5 z m -345,144 c -55,31 -110,57 -165,76 l -3,-13 c 124,-65 238,-157 341,-278 39,53 56,84 53,91 -2,4 -8,4 -18,1 -7,-2 -15,-1 -24,4 -9,5 -26,16 -51,34 -25,18 -49,34 -73,49 24,20 35,32 33,36 -2,4 -10,6 -25,5 l -172,374 c -2,4 -6,7 -11,8 -6,2 -16,2 -32,1 -15,-1 -25,-2 -29,-4 -3,-1 -3,-4 -1,-8 l 22,-43 c 16,-32 29,-59 38,-79 l 117,-254 z m 454,100 50,-34 c 5,-3 9,-4 12,-3 4,2 13,18 25,49 13,30 18,48 16,53 -2,3 -8,2 -20,-4 l -362,-167 c -12,-5 -23,-8 -31,-8 l 0,-33 c 9,7 20,13 33,19 l 277,128 z m -270,365 91,42 44,-33 c 9,-7 16,-10 21,-7 5,2 8,6 11,11 3,6 9,19 17,40 7,22 12,36 14,43 2,7 2,12 0,14 -1,3 -6,3 -15,-2 l -404,-186 c -13,-6 -23,-9 -31,-9 l 0,-33 c 9,7 20,13 33,19 l 190,87 c 79,-100 157,-210 233,-329 25,26 42,46 53,60 11,14 16,23 14,27 -2,4 -8,5 -18,3 -4,-1 -9,0 -14,3 -6,4 -34,32 -85,86 l -154,164 z m -22,-410 c 24,127 26,211 7,253 -7,15 -17,28 -31,37 -14,9 -28,10 -42,3 -6,-2 -9,-6 -9,-12 0,-6 4,-19 13,-41 9,-21 19,-56 30,-105 10,-49 17,-93 18,-131 l 14,-4 z"
       inkscape:connector-curvature="0"
       style="fill:#000000;fill-rule:nonzero" /><path
       id="3"
       class="fil3"
       d="m 596,7861 -135,-20 -13,92 196,28 41,-41 c 5,-5 11,-7 16,-6 6,0 10,2 13,5 3,3 12,13 26,32 15,19 23,31 25,34 1,3 2,6 2,9 -1,7 -10,10 -27,8 l -296,-43 -9,64 c -2,17 -4,34 -6,53 l -3,26 c 0,3 -3,7 -8,9 -5,2 -15,5 -30,8 -14,3 -24,5 -30,4 -3,-1 -4,-5 -3,-13 l 7,-43 c 3,-13 5,-31 9,-53 l 9,-64 -262,-37 c -14,-2 -24,-2 -32,0 l -8,-37 c 10,4 22,7 36,9 l 270,38 13,-91 -135,-19 -4,26 c -1,4 -2,7 -3,9 -1,1 -7,4 -17,6 -10,3 -20,5 -29,6 -10,1 -16,1 -18,1 -2,0 -3,-3 -3,-6 l 7,-36 c 4,-25 8,-47 11,-66 l 24,-171 c 3,-21 6,-42 7,-64 27,14 51,30 73,49 l 184,26 c 40,-57 72,-109 96,-155 19,10 37,21 53,32 16,11 25,17 27,20 2,2 2,5 2,7 -1,6 -6,9 -15,9 -5,0 -10,0 -15,1 -4,2 -11,5 -19,11 -8,6 -21,16 -39,31 l -60,48 98,14 25,-30 c 3,-4 6,-6 9,-6 2,1 12,8 28,21 17,14 28,23 34,29 5,6 8,11 7,14 0,4 -11,10 -33,19 l -21,148 -9,75 c -1,4 -2,7 -3,9 -1,1 -6,3 -13,6 -8,2 -17,4 -29,6 -12,2 -19,2 -23,2 -3,-1 -4,-5 -3,-12 l 5,-31 z m -114,-162 134,19 12,-81 -135,-19 -11,81 z m -200,-29 135,20 12,-81 -135,-20 -12,81 z m 330,75 -134,-19 -13,90 134,19 13,-90 z m -199,-29 -135,-19 -13,90 135,20 13,-91 z m -99,-312 c 38,25 67,46 87,66 21,19 30,36 28,50 -2,14 -9,27 -20,37 -12,10 -23,14 -34,12 -6,-1 -10,-3 -12,-6 -2,-4 -3,-12 -4,-24 -2,-33 -20,-74 -53,-123 l 8,-12 z"
       inkscape:connector-curvature="0"
       style="fill:#000000;fill-rule:nonzero" /></g></svg>