<?xml version="1.0" encoding="UTF-8" standalone="no"?>
<!-- Creator: CorelDRAW X7 -->

<svg
   xmlns:dc="http://purl.org/dc/elements/1.1/"
   xmlns:cc="http://creativecommons.org/ns#"
   xmlns:rdf="http://www.w3.org/1999/02/22-rdf-syntax-ns#"
   xmlns:svg="http://www.w3.org/2000/svg"
   xmlns="http://www.w3.org/2000/svg"
   xmlns:sodipodi="http://sodipodi.sourceforge.net/DTD/sodipodi-0.dtd"
   xmlns:inkscape="http://www.inkscape.org/namespaces/inkscape"
   xml:space="preserve"
   width="7.8740005in"
   height="7.8740005in"
   version="1.1"
   style="clip-rule:evenodd;fill-rule:evenodd;image-rendering:optimizeQuality;shape-rendering:geometricPrecision;text-rendering:geometricPrecision"
   viewBox="0 0 7874.0005 7874.0005"
   id="svg4643"
   inkscape:version="0.91 r13725"
   sodipodi:docname="Yu Jing - Yaoxie Lu Duan - [N3] [Vyo].svg"><metadata
     id="metadata4682"><rdf:RDF><cc:Work
         rdf:about=""><dc:format>image/svg+xml</dc:format><dc:type
           rdf:resource="http://purl.org/dc/dcmitype/StillImage" /></cc:Work></rdf:RDF></metadata><sodipodi:namedview
     pagecolor="#ffffff"
     bordercolor="#666666"
     borderopacity="1"
     objecttolerance="10"
     gridtolerance="10"
     guidetolerance="10"
     inkscape:pageopacity="0"
     inkscape:pageshadow="2"
     inkscape:window-width="640"
     inkscape:window-height="480"
     id="namedview4680"
     showgrid="false"
     inkscape:zoom="0.23838384"
     inkscape:cx="736.83001"
     inkscape:cy="849.33005"
     inkscape:window-x="0"
     inkscape:window-y="0"
     inkscape:window-maximized="0"
     inkscape:current-layer="svg4643" /><defs
     id="defs4645"><style
       type="text/css"
       id="style4647"><![CDATA[
    .fil2 {fill:none}
    .fil0 {fill:#E2001A}
    .fil1 {fill:white}
    .fil4 {fill:#E2001A;fill-rule:nonzero}
    .fil3 {fill:white;fill-rule:nonzero}
   ]]></style></defs><g
     id="Layer_x0020_1"
     transform="translate(3937,-7063)"><metadata
       id="CorelCorpID_0Corel-Layer" /><circle
       class="fil0"
       cy="11000"
       r="3937"
       id="circle4651"
       cx="0"
       style="fill:#e2001a" /><circle
       class="fil1"
       cy="11000"
       r="3819"
       id="circle4653"
       cx="0"
       style="fill:#ffffff" /><circle
       class="fil2"
       cy="11000"
       r="3898"
       id="circle4655"
       cx="0"
       style="fill:none" /><path
       class="fil0"
       d="m -2659,8563 c 25,-28 54,-2 28,26 -491,576 -752,1276 -823,1976 l -184,-184 c 130,-669 466,-1295 979,-1818 z m 227,209 c -510,515 -846,1167 -936,1879 l 94,94 122,-123 c 64,-662 317,-1316 749,-1824 25,-29 -2,-53 -29,-26 z m -883,2096 c -2,44 -2,88 -2,132 0,145 9,289 27,429 l -407,-218 c -4,-70 -6,-140 -6,-211 0,-166 11,-329 32,-489 l 356,357 z m 47,703 c 35,205 89,403 161,593 l -448,-122 c -65,-224 -110,-456 -132,-695 l 419,224 z m 214,728 c 116,270 266,522 445,750 l -476,0 c -179,-270 -324,-564 -429,-876 l 460,126 z m 540,866 c 54,62 110,122 168,181 215,215 459,400 726,550 l -537,114 c -164,-118 -319,-249 -462,-391 -140,-141 -269,-293 -386,-454 l 491,0 z m -284,-2733 c -21,105 -37,213 -46,323 l -374,624 c -15,-125 -22,-251 -22,-379 0,-43 1,-86 2,-128 l 440,-440 z m -57,564 c 0,125 8,250 24,373 l -219,727 c -62,-173 -110,-352 -142,-537 l 337,-563 z m 68,626 c 49,217 121,424 216,619 l 1,732 c -166,-215 -304,-451 -412,-703 l 195,-648 z m 331,834 c 122,205 269,394 438,562 94,95 196,184 303,264 l 140,550 c -264,-147 -505,-329 -716,-541 -57,-56 -112,-115 -164,-176 l -1,-659 z m -321,-2209 c 102,-438 291,-873 601,-1241 25,-29 -1,-53 -28,-26 -435,437 -721,961 -829,1524 l 256,-257 z"
       id="path4657"
       inkscape:connector-curvature="0"
       style="fill:#e2001a" /><path
       class="fil0"
       d="m 2659,8563 c -25,-28 -54,-2 -28,26 491,576 752,1276 823,1976 l 184,-184 C 3508,9712 3172,9086 2659,8563 Z m -227,209 c 510,515 846,1167 936,1879 l -94,94 -122,-123 c -64,-662 -317,-1316 -749,-1824 -25,-29 2,-53 29,-26 z m 883,2096 c 2,44 2,88 2,132 0,145 -9,289 -27,429 l 407,-218 c 4,-70 6,-140 6,-211 0,-166 -11,-329 -32,-489 l -356,357 z m -47,703 c -35,205 -89,403 -161,593 l 448,-122 c 65,-224 110,-456 132,-695 l -419,224 z m -214,728 c -116,270 -266,522 -445,750 l 476,0 c 179,-270 324,-564 429,-876 l -460,126 z m -540,866 c -54,62 -110,122 -168,181 -215,215 -459,400 -726,550 l 537,114 c 164,-118 319,-249 462,-391 140,-141 269,-293 386,-454 l -491,0 z m 284,-2733 c 21,105 37,213 46,323 l 374,624 c 15,-125 22,-251 22,-379 0,-43 -1,-86 -2,-128 l -440,-440 z m 57,564 c 0,125 -8,250 -24,373 l 219,727 c 62,-173 110,-352 142,-537 l -337,-563 z m -68,626 c -49,217 -121,424 -216,619 l -1,732 c 166,-215 304,-451 412,-703 l -195,-648 z m -331,834 c -122,205 -269,394 -438,562 -94,95 -196,184 -303,264 l -140,550 c 264,-147 505,-329 716,-541 57,-56 112,-115 164,-176 l 1,-659 z m 321,-2209 c -102,-438 -291,-873 -601,-1241 -25,-29 1,-53 28,-26 435,437 721,961 829,1524 l -256,-257 z"
       id="path4659"
       inkscape:connector-curvature="0"
       style="fill:#e2001a" /><path
       class="fil0"
       d="m 0,14703 c -748,0 -1443,-221 -2025,-602 l 604,-129 -148,-587 c 450,297 989,470 1569,470 580,0 1119,-173 1569,-470 l -148,587 604,129 c -582,381 -1277,602 -2025,602 z"
       id="path4661"
       inkscape:connector-curvature="0"
       style="fill:#e2001a" /><circle
       class="fil2"
       cy="11000"
       r="3819"
       id="circle4663"
       cx="0"
       style="fill:none" /><path
       class="fil3"
       d="m -806,14463 324,42 34,-262 -274,-36 7,-59 275,37 26,-198 -294,-39 8,-58 662,87 -8,59 -303,-40 -26,197 284,38 -8,58 -284,-37 -34,262 332,44 -7,59 -722,-96 8,-58 z m 495,-130 52,-30 c 36,54 68,106 97,157 l -57,33 c -24,-46 -54,-100 -92,-160 z m 431,-200 538,-71 34,254 -59,8 -4,-30 -173,23 25,191 c 8,59 -16,93 -73,101 -36,5 -69,10 -99,14 -6,-22 -12,-41 -19,-60 34,-1 63,-4 88,-7 32,-3 45,-22 41,-55 l -23,-176 -188,24 5,34 -59,8 -34,-258 z m 486,-12 -421,56 16,120 421,-55 -16,-121 z m -600,-95 348,-46 c -18,-25 -38,-50 -60,-76 l 52,-34 c 24,27 47,56 71,86 l -28,19 354,-46 7,52 -737,98 -7,-53 z m 248,382 47,40 c -61,59 -122,114 -184,166 -12,-16 -26,-32 -42,-46 64,-49 123,-102 179,-160 z m 298,12 30,-50 c 74,31 145,64 214,97 l -33,57 c -58,-32 -129,-67 -211,-104 z"
       id="path4665"
       inkscape:connector-curvature="0"
       style="fill:#ffffff;fill-rule:nonzero" /><circle
       class="fil2"
       cy="11000"
       r="3898"
       id="circle4667"
       cx="0"
       style="fill:none" /><polygon
       class="fil4"
       points="-1514,7951 -1322,8373 -1108,8275 -1083,8331 -1360,8458 -1578,7980 "
       id="polygon4669"
       style="fill:#e2001a;fill-rule:nonzero" /><path
       id="1"
       class="fil4"
       d="m -854,8267 c -29,9 -56,13 -81,11 -24,-1 -46,-7 -67,-18 -22,-12 -41,-29 -55,-52 -15,-22 -27,-51 -38,-87 l -93,-315 67,-20 93,314 c 7,24 14,43 22,58 8,15 17,27 30,38 13,10 28,17 45,19 18,3 38,1 60,-6 21,-6 39,-15 53,-27 14,-11 23,-25 28,-42 5,-15 7,-31 5,-47 -2,-17 -6,-36 -12,-59 l -94,-316 67,-20 94,315 c 10,35 15,66 15,93 1,27 -5,52 -18,75 -12,20 -27,38 -46,52 -19,13 -44,25 -75,34 z m -108,-595 -50,14 -130,-99 82,-24 98,109 z"
       inkscape:connector-curvature="0"
       style="fill:#e2001a;fill-rule:nonzero" /><path
       id="2"
       class="fil4"
       d="m 37,7848 c 3,48 -3,92 -19,132 -16,39 -40,72 -70,96 -25,19 -51,32 -78,40 -27,8 -61,13 -104,17 l -120,9 -42,-523 119,-10 c 49,-4 88,-3 116,2 29,5 53,13 74,25 35,19 64,47 85,82 22,35 34,79 39,130 z m -73,5 c -3,-41 -12,-74 -28,-102 -16,-27 -37,-48 -65,-62 -19,-9 -39,-16 -61,-19 -21,-3 -48,-4 -79,-1 l -53,4 33,404 53,-5 c 30,-2 57,-7 80,-13 23,-7 43,-18 61,-33 23,-18 39,-42 49,-70 10,-28 14,-63 10,-103 z"
       inkscape:connector-curvature="0"
       style="fill:#e2001a;fill-rule:nonzero" /><path
       id="3"
       class="fil4"
       d="m 316,8153 c -30,-5 -57,-13 -78,-24 -22,-12 -39,-26 -53,-45 -15,-20 -25,-44 -29,-70 -3,-27 -2,-58 3,-95 l 49,-324 69,10 -48,323 c -4,24 -5,45 -5,61 1,17 4,33 11,47 7,15 18,28 33,37 15,10 34,17 57,20 22,3 41,3 59,-2 18,-5 33,-13 44,-26 11,-12 19,-25 24,-41 6,-16 10,-35 14,-58 l 49,-325 69,11 -49,323 c -5,36 -14,67 -25,91 -11,25 -27,45 -48,60 -19,14 -40,23 -63,27 -24,5 -51,5 -83,0 z"
       inkscape:connector-curvature="0"
       style="fill:#e2001a;fill-rule:nonzero" /><path
       id="4"
       class="fil4"
       d="m 552,8161 323,-451 82,26 16,553 -70,-21 -3,-153 -193,-59 -88,125 -67,-20 z m 347,-110 -5,-261 -151,214 156,47 z m 199,-447 c -12,34 -29,58 -49,71 -19,13 -41,16 -65,9 -12,-4 -22,-9 -31,-17 -8,-7 -16,-16 -23,-28 -7,-12 -13,-22 -19,-29 -6,-7 -12,-12 -19,-14 -11,-4 -20,-1 -28,8 -7,9 -14,22 -20,39 l -47,-15 c 12,-34 28,-57 49,-70 21,-13 43,-16 65,-9 12,3 22,9 30,16 8,7 16,17 23,28 7,12 14,21 20,28 6,7 13,11 19,14 11,3 20,0 28,-9 8,-8 15,-20 20,-36 l 47,14 z"
       inkscape:connector-curvature="0"
       style="fill:#e2001a;fill-rule:nonzero" /><polygon
       id="5"
       class="fil4"
       points="1082,8330 1022,8302 1244,7826 1334,7868 1350,8334 1525,7957 1584,7985 1363,8461 1292,8428 1273,7919 "
       style="fill:#e2001a;fill-rule:nonzero" /><circle
       class="fil2"
       cy="11000"
       r="3898"
       id="circle4676"
       cx="0"
       style="fill:none" /><path
       class="fil0"
       d="m -2441,11000 423,-733 365,210 c 179,104 408,42 511,-136 103,-179 42,-408 -137,-511 l -365,-211 424,-733 846,0 0,421 c 0,207 167,374 374,374 207,0 374,-167 374,-374 l 0,-421 846,0 424,733 -365,211 c -179,103 -240,332 -137,511 103,178 332,240 511,136 l 365,-210 423,733 -423,733 -365,-210 c -179,-104 -408,-42 -511,136 -103,179 -42,408 137,511 l 365,211 -424,733 -846,0 0,-421 c 0,-207 -167,-374 -374,-374 -207,0 -374,167 -374,374 l 0,421 -846,0 -424,-733 365,-211 c 179,-103 240,-332 137,-511 -103,-178 -332,-240 -511,-136 l -365,210 -423,-733 z"
       id="path4678"
       inkscape:connector-curvature="0"
       style="fill:#e2001a" /></g></svg>