<?xml version="1.0" encoding="UTF-8" standalone="no"?>
<!-- Creator: CorelDRAW X7 -->

<svg
   xmlns:dc="http://purl.org/dc/elements/1.1/"
   xmlns:cc="http://creativecommons.org/ns#"
   xmlns:rdf="http://www.w3.org/1999/02/22-rdf-syntax-ns#"
   xmlns:svg="http://www.w3.org/2000/svg"
   xmlns="http://www.w3.org/2000/svg"
   xmlns:sodipodi="http://sodipodi.sourceforge.net/DTD/sodipodi-0.dtd"
   xmlns:inkscape="http://www.inkscape.org/namespaces/inkscape"
   xml:space="preserve"
   width="7.8740005in"
   height="7.8740005in"
   version="1.1"
   style="clip-rule:evenodd;fill-rule:evenodd;image-rendering:optimizeQuality;shape-rendering:geometricPrecision;text-rendering:geometricPrecision"
   viewBox="0 0 7874.0005 7874.0005"
   id="svg3429"
   inkscape:version="0.91 r13725"
   sodipodi:docname="Yu Jing - Domaru Butai - [N3] [Vyo].svg"><metadata
     id="metadata3457"><rdf:RDF><cc:Work
         rdf:about=""><dc:format>image/svg+xml</dc:format><dc:type
           rdf:resource="http://purl.org/dc/dcmitype/StillImage" /></cc:Work></rdf:RDF></metadata><sodipodi:namedview
     pagecolor="#ffffff"
     bordercolor="#666666"
     borderopacity="1"
     objecttolerance="10"
     gridtolerance="10"
     guidetolerance="10"
     inkscape:pageopacity="0"
     inkscape:pageshadow="2"
     inkscape:window-width="640"
     inkscape:window-height="480"
     id="namedview3455"
     showgrid="false"
     inkscape:zoom="0.23838384"
     inkscape:cx="736.83001"
     inkscape:cy="849.33005"
     inkscape:window-x="0"
     inkscape:window-y="0"
     inkscape:window-maximized="0"
     inkscape:current-layer="svg3429" /><defs
     id="defs3431"><style
       type="text/css"
       id="style3433"><![CDATA[
    .str0 {stroke:black;stroke-width:3}
    .fil0 {fill:none}
    .fil1 {fill:#E2001A}
    .fil2 {fill:white}
    .fil3 {fill:#E2001A;fill-rule:nonzero}
   ]]></style></defs><g
     id="Layer_x0020_1"
     transform="translate(3937,-7063)"><metadata
       id="CorelCorpID_0Corel-Layer" /><circle
       class="fil0 str0"
       cx="20"
       cy="11059"
       r="2283"
       id="circle3437"
       style="fill:none;stroke:#000000;stroke-width:3" /><path
       class="fil0 str0"
       d="m -1542,11938 c -195,-339 -79,-773 260,-968 339,-196 772,-80 968,259 196,339 79,772 -259,968 -339,196 -773,80 -969,-259 z"
       id="path3439"
       inkscape:connector-curvature="0"
       style="fill:none;stroke:#000000;stroke-width:3" /><path
       class="fil0 str0"
       d="m 1561,11972 c -196,339 -629,455 -968,259 -339,-196 -455,-629 -259,-968 195,-339 629,-455 968,-259 339,195 455,629 259,968 z"
       id="path3441"
       inkscape:connector-curvature="0"
       style="fill:none;stroke:#000000;stroke-width:3" /><circle
       class="fil1"
       cy="11000"
       r="3937"
       id="circle3443"
       cx="0"
       style="fill:#e2001a" /><circle
       class="fil2"
       cy="11000"
       r="3819"
       id="circle3445"
       cx="0"
       style="fill:#ffffff" /><path
       class="fil3"
       d="m 0,8244 c 761,0 1450,309 1949,807 498,499 807,1188 807,1949 0,761 -309,1450 -807,1949 -499,498 -1188,807 -1949,807 -761,0 -1450,-309 -1949,-807 -498,-499 -807,-1188 -807,-1949 0,-761 309,-1450 807,-1949 499,-498 1188,-807 1949,-807 z m 1893,863 C 1409,8622 739,8323 0,8323 c -739,0 -1409,299 -1893,784 -485,484 -784,1154 -784,1893 0,739 299,1409 784,1893 484,485 1154,784 1893,784 739,0 1409,-299 1893,-784 485,-484 784,-1154 784,-1893 0,-739 -299,-1409 -784,-1893 z"
       id="path3447"
       inkscape:connector-curvature="0"
       style="fill:#e2001a;fill-rule:nonzero" /><path
       class="fil1"
       d="m -1449,12025 c -821,-803 -687,-2087 54,-2740 830,-729 2061,-603 2738,-133 -1619,-946 -3291,491 -2566,1719 257,-108 567,-58 777,152 276,277 276,726 0,1002 -277,277 -723,274 -1003,0 z"
       id="path3449"
       inkscape:connector-curvature="0"
       style="fill:#e2001a" /><path
       class="fil1"
       d="m -164,9233 c 1107,-310 2152,448 2346,1416 217,1084 -507,2087 -1253,2438 1628,-929 1220,-3095 -206,-3082 -35,278 -233,520 -520,597 -378,101 -767,-123 -868,-501 -101,-378 124,-763 501,-868 z"
       id="path3451"
       inkscape:connector-curvature="0"
       style="fill:#e2001a" /><path
       class="fil1"
       d="m 1612,11742 c -285,1113 -1464,1639 -2400,1323 -1046,-354 -1553,-1483 -1484,-2304 -10,1875 2071,2604 2772,1363 -223,-169 -334,-462 -257,-749 102,-378 490,-602 868,-501 378,101 599,489 501,868 z"
       id="path3453"
       inkscape:connector-curvature="0"
       style="fill:#e2001a" /></g></svg>