<?xml version="1.0" encoding="UTF-8" standalone="no"?>
<!-- Creator: CorelDRAW X7 -->

<svg
   xmlns:dc="http://purl.org/dc/elements/1.1/"
   xmlns:cc="http://creativecommons.org/ns#"
   xmlns:rdf="http://www.w3.org/1999/02/22-rdf-syntax-ns#"
   xmlns:svg="http://www.w3.org/2000/svg"
   xmlns="http://www.w3.org/2000/svg"
   xmlns:sodipodi="http://sodipodi.sourceforge.net/DTD/sodipodi-0.dtd"
   xmlns:inkscape="http://www.inkscape.org/namespaces/inkscape"
   xml:space="preserve"
   width="7.8740005in"
   height="7.8740005in"
   version="1.1"
   style="clip-rule:evenodd;fill-rule:evenodd;image-rendering:optimizeQuality;shape-rendering:geometricPrecision;text-rendering:geometricPrecision"
   viewBox="0 0 7874.0005 7874.0005"
   id="svg3777"
   inkscape:version="0.91 r13725"
   sodipodi:docname="Yu Jing - Karakuri Special Project - [N3] [Vyo].svg"><metadata
     id="metadata3793"><rdf:RDF><cc:Work
         rdf:about=""><dc:format>image/svg+xml</dc:format><dc:type
           rdf:resource="http://purl.org/dc/dcmitype/StillImage" /></cc:Work></rdf:RDF></metadata><sodipodi:namedview
     pagecolor="#ffffff"
     bordercolor="#666666"
     borderopacity="1"
     objecttolerance="10"
     gridtolerance="10"
     guidetolerance="10"
     inkscape:pageopacity="0"
     inkscape:pageshadow="2"
     inkscape:window-width="640"
     inkscape:window-height="480"
     id="namedview3791"
     showgrid="false"
     inkscape:zoom="0.23838384"
     inkscape:cx="736.83001"
     inkscape:cy="849.33005"
     inkscape:window-x="0"
     inkscape:window-y="0"
     inkscape:window-maximized="0"
     inkscape:current-layer="svg3777" /><defs
     id="defs3779"><style
       type="text/css"
       id="style3781"><![CDATA[
    .fil0 {fill:#E2001A}
    .fil1 {fill:white}
   ]]></style></defs><g
     id="Layer_x0020_1"
     transform="translate(3937,-7063)"><metadata
       id="CorelCorpID_0Corel-Layer" /><circle
       class="fil0"
       cy="11000"
       r="3937"
       id="circle3785"
       cx="0"
       style="fill:#e2001a" /><circle
       class="fil1"
       cy="11000"
       r="3819"
       id="circle3787"
       cx="0"
       style="fill:#ffffff" /><path
       class="fil0"
       d="m -1318,8717 1318,0 1318,0 520,902 C 1290,9290 606,8997 107,8925 l -559,1677 438,344 513,-1204 c 514,16 1248,265 1771,625 l 366,633 -659,1141 -659,1142 -1041,0 c 559,-311 1155,-757 1466,-1153 L 570,10807 54,11014 840,12061 c -270,437 -853,949 -1426,1222 l -732,0 -659,-1142 -659,-1141 521,-902 c -11,640 78,1379 265,1847 l 1732,-354 79,-552 -1300,158 c -243,-453 -395,-1213 -345,-1846 l 366,-634 z"
       id="path3789"
       inkscape:connector-curvature="0"
       style="fill:#e2001a" /></g></svg>