<?xml version="1.0" encoding="UTF-8" standalone="no"?>
<!-- Creator: CorelDRAW X7 -->

<svg
   xmlns:dc="http://purl.org/dc/elements/1.1/"
   xmlns:cc="http://creativecommons.org/ns#"
   xmlns:rdf="http://www.w3.org/1999/02/22-rdf-syntax-ns#"
   xmlns:svg="http://www.w3.org/2000/svg"
   xmlns="http://www.w3.org/2000/svg"
   xmlns:sodipodi="http://sodipodi.sourceforge.net/DTD/sodipodi-0.dtd"
   xmlns:inkscape="http://www.inkscape.org/namespaces/inkscape"
   xml:space="preserve"
   width="7.8740005in"
   height="7.8740005in"
   version="1.1"
   style="clip-rule:evenodd;fill-rule:evenodd;image-rendering:optimizeQuality;shape-rendering:geometricPrecision;text-rendering:geometricPrecision"
   viewBox="0 0 7874.0005 7874.0005"
   id="svg3795"
   inkscape:version="0.91 r13725"
   sodipodi:docname="Yu Jing - Keisotsu Butai - [N3] [Vyo].svg"><metadata
     id="metadata3815"><rdf:RDF><cc:Work
         rdf:about=""><dc:format>image/svg+xml</dc:format><dc:type
           rdf:resource="http://purl.org/dc/dcmitype/StillImage" /></cc:Work></rdf:RDF></metadata><sodipodi:namedview
     pagecolor="#ffffff"
     bordercolor="#666666"
     borderopacity="1"
     objecttolerance="10"
     gridtolerance="10"
     guidetolerance="10"
     inkscape:pageopacity="0"
     inkscape:pageshadow="2"
     inkscape:window-width="640"
     inkscape:window-height="480"
     id="namedview3813"
     showgrid="false"
     inkscape:zoom="0.23838384"
     inkscape:cx="736.83001"
     inkscape:cy="849.33005"
     inkscape:window-x="0"
     inkscape:window-y="0"
     inkscape:window-maximized="0"
     inkscape:current-layer="svg3795" /><defs
     id="defs3797"><style
       type="text/css"
       id="style3799"><![CDATA[
    .fil0 {fill:#E2001A}
    .fil1 {fill:white}
   ]]></style></defs><g
     id="Layer_x0020_1"
     transform="translate(3937,-7063)"><metadata
       id="CorelCorpID_0Corel-Layer" /><circle
       class="fil0"
       cy="11000"
       r="3937"
       id="circle3803"
       cx="0"
       style="fill:#e2001a" /><circle
       class="fil1"
       cy="11000"
       r="3819"
       id="circle3805"
       cx="0"
       style="fill:#ffffff" /><path
       class="fil0"
       d="m -703,8376 c 433,-115 865,-48 1258,164 473,255 731,807 586,1348 -169,630 -817,1004 -1447,836 -404,-109 -703,-415 -821,-787 -526,0 -1746,1062 -1227,2420 -230,-399 -363,-863 -363,-1357 0,-1257 854,-2316 2014,-2624 z"
       id="path3807"
       inkscape:connector-curvature="0"
       style="fill:#e2001a" /><path
       class="fil0"
       d="m -1921,12921 c -317,-318 -474,-725 -487,-1171 -16,-538 333,-1037 875,-1182 630,-169 1278,205 1446,835 109,405 -7,817 -270,1104 263,456 1793,982 2709,-147 -230,399 -566,745 -994,993 -1088,628 -2433,419 -3279,-432 z"
       id="path3809"
       inkscape:connector-curvature="0"
       style="fill:#e2001a" /><path
       class="fil0"
       d="m 2624,11703 c -117,433 -391,773 -771,1008 -457,282 -1064,229 -1461,-167 -461,-461 -461,-1209 0,-1671 297,-296 711,-402 1092,-317 263,-456 -47,-2044 -1482,-2273 461,0 928,117 1356,364 1089,629 1580,1898 1266,3056 z"
       id="path3811"
       inkscape:connector-curvature="0"
       style="fill:#e2001a" /></g></svg>