<?xml version="1.0" encoding="UTF-8" standalone="no"?>
<!-- Creator: CorelDRAW X7 -->

<svg
   xmlns:dc="http://purl.org/dc/elements/1.1/"
   xmlns:cc="http://creativecommons.org/ns#"
   xmlns:rdf="http://www.w3.org/1999/02/22-rdf-syntax-ns#"
   xmlns:svg="http://www.w3.org/2000/svg"
   xmlns="http://www.w3.org/2000/svg"
   xmlns:sodipodi="http://sodipodi.sourceforge.net/DTD/sodipodi-0.dtd"
   xmlns:inkscape="http://www.inkscape.org/namespaces/inkscape"
   xml:space="preserve"
   width="7.8740005in"
   height="7.8740005in"
   version="1.1"
   style="clip-rule:evenodd;fill-rule:evenodd;image-rendering:optimizeQuality;shape-rendering:geometricPrecision;text-rendering:geometricPrecision"
   viewBox="0 0 7874.0005 7874.0005"
   id="svg3346"
   inkscape:version="0.91 r13725"
   sodipodi:docname="Yu Jing - Bao Troops - [N3] [Vyo].svg"><metadata
     id="metadata3370"><rdf:RDF><cc:Work
         rdf:about=""><dc:format>image/svg+xml</dc:format><dc:type
           rdf:resource="http://purl.org/dc/dcmitype/StillImage" /></cc:Work></rdf:RDF></metadata><sodipodi:namedview
     pagecolor="#ffffff"
     bordercolor="#666666"
     borderopacity="1"
     objecttolerance="10"
     gridtolerance="10"
     guidetolerance="10"
     inkscape:pageopacity="0"
     inkscape:pageshadow="2"
     inkscape:window-width="640"
     inkscape:window-height="480"
     id="namedview3368"
     showgrid="false"
     inkscape:zoom="0.23838384"
     inkscape:cx="736.83001"
     inkscape:cy="849.33005"
     inkscape:window-x="0"
     inkscape:window-y="0"
     inkscape:window-maximized="0"
     inkscape:current-layer="svg3346" /><defs
     id="defs3348"><style
       type="text/css"
       id="style3350"><![CDATA[
    .fil0 {fill:none}
    .fil1 {fill:#644F34}
    .fil2 {fill:#FF7B00}
    .fil3 {fill:white}
   ]]></style></defs><g
     id="Layer_x0020_1"
     transform="translate(3937,-7063)"><metadata
       id="CorelCorpID_0Corel-Layer" /><path
       class="fil0"
       d="m -197,11000 c 0,-1631 -1322,-2953 -2953,-2953 l 0,985 c 1088,0 1969,881 1969,1968 l 0,1358 984,453 0,-1811 z"
       id="path3354"
       inkscape:connector-curvature="0"
       style="fill:none" /><path
       class="fil0"
       d="M 197,11000 C 197,9369 1519,8047 3150,8047 l 0,985 c -1088,0 -1969,881 -1969,1968 l 0,1358 -984,453 0,-1811 z"
       id="path3356"
       inkscape:connector-curvature="0"
       style="fill:none" /><path
       class="fil0"
       d="m 0,8008 c 1653,0 2992,1339 2992,2992 0,1653 -1339,2992 -2992,2992 -1653,0 -2992,-1339 -2992,-2992 0,-1653 1339,-2992 2992,-2992 z m 0,1023 c 1087,0 1969,882 1969,1969 0,1087 -882,1969 -1969,1969 -1087,0 -1969,-882 -1969,-1969 0,-1087 882,-1969 1969,-1969 z"
       id="path3358"
       inkscape:connector-curvature="0"
       style="fill:none" /><circle
       class="fil1"
       cy="11000"
       r="3937"
       id="circle3360"
       cx="0"
       style="fill:#644f34" /><circle
       class="fil2"
       cy="11000"
       r="3701"
       id="circle3362"
       cx="0"
       style="fill:#ff7b00" /><path
       class="fil1"
       d="m 197,11000 c 0,-1194 709,-2223 1729,-2688 297,213 558,474 770,772 -869,205 -1515,985 -1515,1916 l 0,1157 c -257,262 -600,439 -984,485 l 0,-1642 z m -394,0 c 0,-1194 -709,-2223 -1729,-2688 -297,213 -558,474 -770,772 869,205 1515,985 1515,1916 l 0,1157 c 257,262 600,439 984,485 l 0,-1642 z"
       id="path3364"
       inkscape:connector-curvature="0"
       style="fill:#644f34" /><path
       class="fil3"
       d="m 0,8008 c 515,0 999,130 1422,359 -312,205 -585,463 -807,763 -193,-64 -400,-99 -615,-99 -215,0 -422,35 -615,99 -222,-300 -495,-558 -807,-763 423,-229 907,-359 1422,-359 z m 2498,1344 c 312,473 494,1039 494,1648 0,1586 -1234,2884 -2795,2986 l 0,-1027 c 995,-99 1772,-938 1772,-1959 0,-368 -102,-712 -277,-1007 198,-286 478,-511 806,-641 z m -2695,4634 c -1561,-102 -2795,-1400 -2795,-2986 0,-609 182,-1175 494,-1648 328,130 608,355 806,641 -175,295 -277,639 -277,1007 0,1021 777,1860 1772,1959 l 0,1027 z"
       id="path3366"
       inkscape:connector-curvature="0"
       style="fill:#ffffff" /></g></svg>