<?xml version="1.0" encoding="UTF-8" standalone="no"?>
<!-- Creator: CorelDRAW X7 -->

<svg
   xmlns:dc="http://purl.org/dc/elements/1.1/"
   xmlns:cc="http://creativecommons.org/ns#"
   xmlns:rdf="http://www.w3.org/1999/02/22-rdf-syntax-ns#"
   xmlns:svg="http://www.w3.org/2000/svg"
   xmlns="http://www.w3.org/2000/svg"
   xmlns:sodipodi="http://sodipodi.sourceforge.net/DTD/sodipodi-0.dtd"
   xmlns:inkscape="http://www.inkscape.org/namespaces/inkscape"
   xml:space="preserve"
   width="7.8740005in"
   height="8.1880007in"
   version="1.1"
   style="clip-rule:evenodd;fill-rule:evenodd;image-rendering:optimizeQuality;shape-rendering:geometricPrecision;text-rendering:geometricPrecision"
   viewBox="0 0 7874.0005 8188.0007"
   id="svg4064"
   inkscape:version="0.91 r13725"
   sodipodi:docname="Yu Jing - Oniwaben - [N3] [Vyo].svg"><metadata
     id="metadata4118"><rdf:RDF><cc:Work
         rdf:about=""><dc:format>image/svg+xml</dc:format><dc:type
           rdf:resource="http://purl.org/dc/dcmitype/StillImage" /></cc:Work></rdf:RDF></metadata><sodipodi:namedview
     pagecolor="#ffffff"
     bordercolor="#666666"
     borderopacity="1"
     objecttolerance="10"
     gridtolerance="10"
     guidetolerance="10"
     inkscape:pageopacity="0"
     inkscape:pageshadow="2"
     inkscape:window-width="640"
     inkscape:window-height="480"
     id="namedview4116"
     showgrid="false"
     inkscape:zoom="0.23838384"
     inkscape:cx="736.83001"
     inkscape:cy="863.46005"
     inkscape:window-x="0"
     inkscape:window-y="0"
     inkscape:window-maximized="0"
     inkscape:current-layer="svg4064" /><defs
     id="defs4066"><style
       type="text/css"
       id="style4068"><![CDATA[
    .str0 {stroke:aqua;stroke-width:3}
    .fil0 {fill:none}
    .fil1 {fill:black}
    .fil2 {fill:white}
   ]]></style></defs><g
     id="Layer_x0020_1"
     transform="translate(3937,-6906)"><metadata
       id="CorelCorpID_0Corel-Layer" /><line
       class="fil0 str0"
       x1="0"
       y1="11000"
       x2="0"
       y2="15094"
       id="line4072"
       style="fill:none;stroke:#00ffff;stroke-width:3" /><line
       class="fil0 str0"
       x1="0"
       y1="11000"
       x2="3546"
       y2="8953"
       id="line4074"
       style="fill:none;stroke:#00ffff;stroke-width:3" /><line
       class="fil0 str0"
       x1="0"
       y1="11000"
       x2="-3546"
       y2="8953"
       id="line4076"
       style="fill:none;stroke:#00ffff;stroke-width:3" /><line
       class="fil0 str0"
       x1="0"
       y1="11000"
       x2="0"
       y2="6906"
       id="line4078"
       style="fill:none;stroke:#00ffff;stroke-width:3" /><line
       class="fil0 str0"
       x1="0"
       y1="11000"
       x2="3546"
       y2="13047"
       id="line4080"
       style="fill:none;stroke:#00ffff;stroke-width:3" /><line
       class="fil0 str0"
       x1="0"
       y1="11000"
       x2="-3546"
       y2="13047"
       id="line4082"
       style="fill:none;stroke:#00ffff;stroke-width:3" /><line
       class="fil0 str0"
       x1="2240"
       y1="14880"
       x2="0"
       y2="11000"
       id="line4084"
       style="fill:none;stroke:#00ffff;stroke-width:3" /><circle
       class="fil1"
       cy="11000"
       r="3937"
       id="circle4086"
       cx="0"
       style="fill:#000000" /><circle
       class="fil2"
       cy="11000"
       r="3583"
       id="circle4088"
       cx="0"
       style="fill:#ffffff" /><circle
       class="fil1"
       cy="11000"
       r="2953"
       id="circle4090"
       cx="0"
       style="fill:#000000" /><path
       class="fil2"
       d="m 1617,11979 c -151,-87 -343,-35 -430,115 -87,151 -36,343 115,430 123,72 274,50 373,-43 12,38 18,77 18,113 0,310 -124,501 -394,657 -210,121 -454,114 -663,-5 -167,-94 -321,-273 -321,-474 l 0,-1499 -276,159 0,1340 c 0,303 206,569 461,714 294,166 643,173 937,3 356,-205 532,-486 532,-895 0,-238 -145,-495 -352,-615 z"
       id="path4092"
       inkscape:connector-curvature="0"
       style="fill:#ffffff" /><path
       class="fil2"
       d="m 39,9110 c 0,174 141,315 315,315 174,0 315,-141 315,-315 0,-142 -94,-262 -224,-301 28,-29 58,-54 89,-72 269,-155 495,-144 765,12 210,122 326,337 328,577 2,192 -76,415 -250,515 l -1298,750 275,159 1161,-670 c 262,-151 390,-463 388,-756 -3,-338 -171,-643 -466,-813 C 1082,8305 751,8294 397,8498 190,8617 39,8871 39,9110 Z"
       id="path4094"
       inkscape:connector-curvature="0"
       style="fill:#ffffff" /><path
       class="fil2"
       d="m -1656,11911 c 150,-87 202,-280 115,-431 -87,-150 -279,-202 -430,-115 -123,71 -180,213 -149,345 -39,-9 -76,-23 -107,-41 -269,-155 -372,-357 -372,-669 0,-242 129,-450 336,-572 165,-98 397,-142 571,-41 l 1298,749 0,-318 -1160,-670 c -262,-151 -596,-107 -849,42 -291,172 -471,470 -471,810 0,410 155,703 509,908 206,119 502,122 709,3 z"
       id="path4096"
       inkscape:connector-curvature="0"
       style="fill:#ffffff" /><path
       class="fil2"
       d="m -1617,11979 c 151,-87 343,-35 430,115 87,151 36,343 -115,430 -123,72 -274,50 -373,-43 -12,38 -18,77 -18,113 0,310 124,501 394,657 210,121 454,114 663,-5 167,-94 321,-273 321,-474 l 0,-1908 276,159 0,1749 c 0,303 -206,569 -461,714 -294,166 -643,173 -937,3 -356,-205 -532,-486 -532,-895 0,-238 145,-495 352,-615 z"
       id="path4098"
       inkscape:connector-curvature="0"
       style="fill:#ffffff" /><path
       class="fil2"
       d="m -39,9110 c 0,174 -141,315 -315,315 -174,0 -315,-141 -315,-315 0,-142 94,-262 224,-301 -28,-29 -58,-54 -89,-72 -269,-155 -495,-144 -765,12 -210,122 -326,337 -328,577 -2,192 76,415 250,515 l 1653,954 -276,160 -1515,-875 c -262,-151 -390,-463 -388,-756 3,-338 171,-643 466,-813 355,-206 686,-217 1040,-13 207,119 358,373 358,612 z"
       id="path4100"
       inkscape:connector-curvature="0"
       style="fill:#ffffff" /><path
       class="fil2"
       d="m 1656,11911 c -150,-87 -202,-280 -115,-431 87,-150 279,-202 430,-115 123,71 180,213 149,345 39,-9 76,-23 107,-41 269,-155 372,-357 372,-669 0,-242 -129,-450 -336,-572 -165,-98 -397,-142 -571,-41 l -1653,954 0,-318 1515,-875 c 262,-151 596,-107 849,42 291,172 471,470 471,810 0,410 -155,703 -509,908 -206,119 -502,122 -709,3 z"
       id="path4102"
       inkscape:connector-curvature="0"
       style="fill:#ffffff" /><path
       class="fil2"
       d="m 0,9307 c 118,118 197,354 197,551 0,197 -79,433 -197,551 -118,-118 -197,-354 -197,-551 0,-197 79,-433 197,-551 z"
       id="path4104"
       inkscape:connector-curvature="0"
       style="fill:#ffffff" /><path
       class="fil2"
       d="m 572,13737 c -184,38 -376,58 -572,58 -196,0 -388,-20 -572,-58 57,-22 114,-49 169,-80 161,-91 302,-220 403,-375 101,155 242,284 403,375 55,31 112,58 169,80 z"
       id="path4106"
       inkscape:connector-curvature="0"
       style="fill:#ffffff" /><path
       class="fil2"
       d="m 2084,9136 c 125,141 239,296 337,466 98,170 176,346 235,525 -48,-39 -99,-74 -153,-106 -159,-94 -343,-152 -527,-162 84,-164 125,-352 124,-537 -1,-63 -6,-125 -16,-186 z"
       id="path4108"
       inkscape:connector-curvature="0"
       style="fill:#ffffff" /><path
       class="fil2"
       d="m -2656,10127 c 59,-179 137,-355 235,-525 98,-170 212,-325 337,-466 -10,61 -15,123 -16,186 -1,185 40,373 124,537 -184,10 -368,68 -527,162 -54,32 -105,67 -153,106 z"
       id="path4110"
       inkscape:connector-curvature="0"
       style="fill:#ffffff" /><path
       class="fil2"
       d="m -1466,11846 c 43,-161 208,-347 379,-446 170,-98 414,-148 576,-105 -44,162 -209,348 -379,446 -171,99 -415,149 -576,105 z"
       id="path4112"
       inkscape:connector-curvature="0"
       style="fill:#ffffff" /><path
       class="fil2"
       d="m 1466,11846 c -161,44 -405,-6 -576,-105 -170,-98 -335,-284 -379,-446 162,-43 406,7 576,105 171,99 336,285 379,446 z"
       id="path4114"
       inkscape:connector-curvature="0"
       style="fill:#ffffff" /></g></svg>