<?xml version="1.0" encoding="UTF-8" standalone="no"?>
<!-- Creator: CorelDRAW X7 -->

<svg
   xmlns:dc="http://purl.org/dc/elements/1.1/"
   xmlns:cc="http://creativecommons.org/ns#"
   xmlns:rdf="http://www.w3.org/1999/02/22-rdf-syntax-ns#"
   xmlns:svg="http://www.w3.org/2000/svg"
   xmlns="http://www.w3.org/2000/svg"
   xmlns:sodipodi="http://sodipodi.sourceforge.net/DTD/sodipodi-0.dtd"
   xmlns:inkscape="http://www.inkscape.org/namespaces/inkscape"
   xml:space="preserve"
   width="7.8740005in"
   height="7.8740005in"
   version="1.1"
   style="clip-rule:evenodd;fill-rule:evenodd;image-rendering:optimizeQuality;shape-rendering:geometricPrecision;text-rendering:geometricPrecision"
   viewBox="0 0 7874.0005 7874.0005"
   id="svg4857"
   inkscape:version="0.91 r13725"
   sodipodi:docname="Yu Jing - Zuyong Invincibles Teraacotta Soldiers - [N3] [Vyo].svg"><metadata
     id="metadata4885"><rdf:RDF><cc:Work
         rdf:about=""><dc:format>image/svg+xml</dc:format><dc:type
           rdf:resource="http://purl.org/dc/dcmitype/StillImage" /></cc:Work></rdf:RDF></metadata><sodipodi:namedview
     pagecolor="#ffffff"
     bordercolor="#666666"
     borderopacity="1"
     objecttolerance="10"
     gridtolerance="10"
     guidetolerance="10"
     inkscape:pageopacity="0"
     inkscape:pageshadow="2"
     inkscape:window-width="640"
     inkscape:window-height="480"
     id="namedview4883"
     showgrid="false"
     inkscape:zoom="0.23838384"
     inkscape:cx="736.83001"
     inkscape:cy="849.33005"
     inkscape:window-x="0"
     inkscape:window-y="0"
     inkscape:window-maximized="0"
     inkscape:current-layer="svg4857" /><defs
     id="defs4859"><style
       type="text/css"
       id="style4861"><![CDATA[
    .str0 {stroke:black;stroke-width:3}
    .fil4 {fill:none}
    .fil0 {fill:black}
    .fil2 {fill:#E2001A}
    .fil1 {fill:yellow}
    .fil3 {fill:yellow;fill-rule:nonzero}
   ]]></style></defs><g
     id="Layer_x0020_1"
     transform="translate(3937,-7063)"><metadata
       id="CorelCorpID_0Corel-Layer" /><circle
       class="fil0"
       cy="11000"
       r="3937"
       id="circle4865"
       cx="0"
       style="fill:#000000" /><path
       class="fil1"
       d="m -2714,8513 c 26,-28 55,-2 29,27 -502,587 -768,1301 -840,2016 l -188,-188 c 132,-682 475,-1322 999,-1855 z m 232,213 c -520,526 -863,1191 -955,1918 l 95,95 125,-124 c 65,-676 324,-1344 764,-1863 25,-29 -2,-53 -29,-26 z m -901,2139 c -2,45 -3,90 -3,135 0,148 10,294 28,438 l -416,-223 c -3,-71 -6,-143 -6,-215 0,-169 12,-335 33,-499 l 364,364 z m 47,718 c 36,209 92,412 165,605 l -457,-125 c -67,-228 -112,-465 -135,-709 l 427,229 z m 219,743 c 118,275 271,533 454,765 l -486,0 c -183,-275 -331,-575 -437,-894 l 469,129 z m 551,883 c 55,64 112,126 172,185 219,219 468,409 741,561 l -549,117 c -167,-120 -325,-254 -471,-399 -143,-144 -275,-299 -394,-464 l 501,0 z m -290,-2789 c -21,108 -37,218 -47,330 l -382,636 c -14,-126 -22,-255 -22,-386 0,-44 1,-88 2,-131 l 449,-449 z m -57,576 c -1,127 7,255 24,381 l -224,742 c -63,-177 -112,-360 -145,-548 l 345,-575 z m 69,639 c 49,221 123,433 220,631 l 1,748 c -169,-219 -311,-460 -420,-718 l 199,-661 z m 338,851 c 124,210 274,403 446,574 97,97 200,187 310,269 l 142,562 c -269,-150 -514,-337 -730,-553 -58,-57 -114,-117 -168,-180 l 0,-672 z m -328,-2254 c 104,-448 297,-891 613,-1267 26,-30 -1,-54 -29,-26 -443,445 -736,980 -846,1554 l 262,-261 z"
       id="path4867"
       inkscape:connector-curvature="0"
       style="fill:#ffff00" /><path
       class="fil1"
       d="m 2714,8513 c -26,-28 -55,-2 -29,27 502,587 768,1301 840,2016 l 188,-188 C 3581,9686 3238,9046 2714,8513 Z m -232,213 c 520,526 863,1191 955,1918 l -95,95 -125,-124 c -65,-676 -324,-1344 -764,-1863 -25,-29 2,-53 29,-26 z m 901,2139 c 2,45 3,90 3,135 0,148 -10,294 -28,438 l 416,-223 c 3,-71 6,-143 6,-215 0,-169 -12,-335 -33,-499 l -364,364 z m -47,718 c -36,209 -92,412 -165,605 l 457,-125 c 67,-228 112,-465 135,-709 l -427,229 z m -219,743 c -118,275 -271,533 -454,765 l 486,0 c 183,-275 331,-575 437,-894 l -469,129 z m -551,883 c -55,64 -112,126 -172,185 -219,219 -468,409 -741,561 l 549,117 c 167,-120 325,-254 471,-399 143,-144 275,-299 394,-464 l -501,0 z m 290,-2789 c 21,108 37,218 47,330 l 382,636 c 14,-126 22,-255 22,-386 0,-44 -1,-88 -2,-131 l -449,-449 z m 57,576 c 1,127 -7,255 -24,381 l 224,742 c 63,-177 112,-360 145,-548 l -345,-575 z m -69,639 c -49,221 -123,433 -220,631 l -1,748 c 169,-219 311,-460 420,-718 l -199,-661 z m -338,851 c -124,210 -274,403 -446,574 -97,97 -200,187 -310,269 l -142,562 c 269,-150 514,-337 730,-553 58,-57 114,-117 168,-180 l 0,-672 z m 328,-2254 c -104,-448 -297,-891 -613,-1267 -26,-30 1,-54 29,-26 443,445 736,980 846,1554 l -262,-261 z"
       id="path4869"
       inkscape:connector-curvature="0"
       style="fill:#ffff00" /><path
       class="fil2"
       d="M 1110,13609 C 859,13268 455,13047 0,13047 c -455,0 -859,221 -1110,562 -1014,-432 -1725,-1437 -1725,-2609 0,-1566 1269,-2835 2835,-2835 1566,0 2835,1269 2835,2835 0,1172 -711,2177 -1725,2609 z"
       id="path4871"
       inkscape:connector-curvature="0"
       style="fill:#e2001a" /><path
       class="fil3"
       d="m 79,9191 0,1258 1575,0 c 140,0 221,79 267,198 38,100 48,227 48,353 0,126 -10,253 -48,353 -46,119 -127,198 -267,198 l -1575,0 0,1258 c 330,-14 637,-116 897,-283 257,-165 469,-392 615,-660 l -915,0 -135,236 -137,-78 158,-276 22,-39 46,0 1088,0 123,0 -51,111 c -158,344 -413,635 -729,838 -306,196 -670,311 -1061,311 -391,0 -755,-115 -1061,-311 -316,-203 -571,-494 -729,-838 l -51,-111 123,0 1088,0 46,0 22,39 158,276 -137,78 -135,-236 -915,0 c 146,268 358,495 615,660 260,167 567,269 897,283 l 0,-1258 -1575,0 c -140,0 -221,-79 -267,-198 -38,-100 -48,-227 -48,-353 0,-126 10,-253 48,-353 46,-119 127,-198 267,-198 l 1575,0 0,-1258 c -330,14 -637,116 -897,283 -257,165 -469,392 -615,660 l 915,0 135,-236 137,78 -158,276 -22,39 -46,0 -1088,0 -123,0 51,-111 c 158,-344 413,-635 729,-838 306,-196 670,-311 1061,-311 391,0 755,115 1061,311 316,203 571,494 729,838 l 51,111 -123,0 -1088,0 -46,0 -22,-39 -158,-276 137,-78 135,236 915,0 C 1445,9866 1233,9639 976,9474 716,9307 409,9205 79,9191 Z m 0,1415 0,788 1575,0 c 61,0 98,-39 120,-97 29,-78 37,-187 37,-297 0,-110 -8,-219 -37,-297 -22,-58 -59,-97 -120,-97 l -1575,0 z m -158,788 0,-788 -1575,0 c -61,0 -98,39 -120,97 -29,78 -37,187 -37,297 0,110 8,219 37,297 22,58 59,97 120,97 l 1575,0 z"
       id="path4873"
       inkscape:connector-curvature="0"
       style="fill:#ffff00;fill-rule:nonzero" /><path
       class="fil2"
       d="m 0,13165 c 696,0 1260,564 1260,1260 0,48 -3,95 -8,142 -392,137 -813,213 -1252,213 -439,0 -860,-76 -1252,-213 -5,-47 -8,-94 -8,-142 0,-696 564,-1260 1260,-1260 z"
       id="path4875"
       inkscape:connector-curvature="0"
       style="fill:#e2001a" /><polygon
       class="fil1"
       points="271,14151 440,14669 0,14348 -440,14669 -271,14151 -711,13832 -167,13833 0,13316 167,13833 711,13832 "
       id="polygon4877"
       style="fill:#ffff00" /><path
       class="fil3"
       d="m -1680,8228 276,-125 -30,-65 50,-23 30,66 276,-125 22,49 -276,125 76,168 -50,22 -76,-168 -276,125 -22,-49 z m -122,-346 258,-117 c -19,-15 -43,-31 -71,-48 l 35,-42 c 28,16 53,32 76,49 l -28,35 275,-124 21,48 -545,246 -21,-47 z m 382,110 c 33,-78 46,-152 39,-222 l 47,-21 c 3,22 5,43 5,65 50,15 112,38 187,67 l -20,53 c -51,-25 -108,-48 -169,-69 -5,49 -17,97 -38,146 -19,-10 -36,-16 -51,-19 z m -271,140 c 40,-85 55,-165 43,-243 l 51,-23 c 3,26 4,51 3,77 47,14 93,29 139,45 l -21,54 c -46,-22 -86,-38 -122,-50 -6,53 -20,106 -41,160 -18,-8 -35,-15 -52,-20 z m 994,-595 24,-46 c 41,13 83,26 127,40 l 118,-98 -323,53 -8,-49 407,-67 8,49 -150,128 16,5 -10,17 174,-29 64,391 c 9,57 -10,90 -58,98 -34,5 -62,9 -84,12 -6,-18 -12,-36 -19,-54 31,-2 56,-5 74,-8 28,-5 40,-21 35,-49 l -10,-64 -139,22 24,145 -49,8 -24,-145 -138,23 27,162 -50,8 -79,-479 191,-31 c -57,-18 -106,-32 -148,-42 z m -238,241 c 40,-102 68,-220 83,-356 l 55,7 c -8,61 -19,119 -32,173 l 82,500 -50,8 -64,-390 c -13,41 -27,80 -43,116 -10,-21 -21,-41 -31,-58 z m 476,63 139,-23 -14,-87 -139,23 14,87 z m 103,-244 -139,23 14,87 139,-23 -14,-87 z m -312,140 139,-22 -15,-87 -138,22 14,87 z m 23,135 138,-23 -15,-87 -138,23 15,87 z m 930,-267 265,43 c 18,-46 32,-99 44,-158 l -231,-38 9,-55 550,91 -9,54 -262,-43 c -13,59 -28,112 -44,159 l 331,54 -9,54 -343,-56 c -60,151 -174,257 -342,318 -8,-17 -17,-36 -29,-55 146,-47 251,-138 314,-272 l -253,-42 9,-54 z m 330,161 54,9 -30,183 c -6,37 8,58 41,63 l 93,15 c 30,5 50,-6 58,-32 8,-26 17,-60 25,-102 17,9 34,19 54,30 -12,45 -22,79 -29,101 -14,46 -49,64 -108,54 l -117,-19 c -59,-10 -83,-47 -73,-111 l 32,-191 z m 1038,-52 44,31 c -29,37 -58,71 -88,102 l 214,99 -20,45 -53,-24 c -69,122 -143,209 -219,259 14,68 44,129 89,185 -23,13 -42,24 -57,35 -42,-63 -70,-126 -85,-190 -59,29 -127,49 -205,61 -3,-16 -8,-35 -15,-56 83,-12 153,-33 211,-64 -8,-77 5,-163 36,-257 -24,19 -49,35 -74,51 -2,-17 -6,-35 -12,-55 12,-7 23,-15 34,-23 l -117,-55 -50,108 103,47 -110,237 -206,-95 -21,43 -44,-21 129,-280 103,47 50,-107 -130,-60 21,-46 130,60 50,-108 c -40,-16 -80,-32 -120,-47 4,-15 8,-32 12,-49 85,35 180,72 283,111 l -11,49 c -39,-15 -78,-30 -117,-45 l -51,110 122,56 -19,41 c 73,-53 137,-118 193,-195 z m -398,471 68,-148 -162,-74 -68,147 162,75 z m 447,-240 -128,-60 c -39,105 -56,198 -52,279 64,-46 125,-119 180,-219 z"
       id="path4879"
       inkscape:connector-curvature="0"
       style="fill:#ffff00;fill-rule:nonzero" /><circle
       class="fil4 str0"
       cy="11000"
       r="3898"
       id="circle4881"
       cx="0"
       style="fill:none;stroke:#000000;stroke-width:3" /></g></svg>