<?xml version="1.0" encoding="UTF-8" standalone="no"?>
<!-- Creator: CorelDRAW X7 -->

<svg
   xmlns:dc="http://purl.org/dc/elements/1.1/"
   xmlns:cc="http://creativecommons.org/ns#"
   xmlns:rdf="http://www.w3.org/1999/02/22-rdf-syntax-ns#"
   xmlns:svg="http://www.w3.org/2000/svg"
   xmlns="http://www.w3.org/2000/svg"
   xmlns:sodipodi="http://sodipodi.sourceforge.net/DTD/sodipodi-0.dtd"
   xmlns:inkscape="http://www.inkscape.org/namespaces/inkscape"
   xml:space="preserve"
   width="7.8740005in"
   height="7.8740005in"
   version="1.1"
   style="clip-rule:evenodd;fill-rule:evenodd;image-rendering:optimizeQuality;shape-rendering:geometricPrecision;text-rendering:geometricPrecision"
   viewBox="0 0 7874.0005 7874.0005"
   id="svg3372"
   inkscape:version="0.91 r13725"
   sodipodi:docname="Yu Jing - Celestial Guard - [N3] [Vyo].svg"><metadata
     id="metadata3386"><rdf:RDF><cc:Work
         rdf:about=""><dc:format>image/svg+xml</dc:format><dc:type
           rdf:resource="http://purl.org/dc/dcmitype/StillImage" /></cc:Work></rdf:RDF></metadata><sodipodi:namedview
     pagecolor="#ffffff"
     bordercolor="#666666"
     borderopacity="1"
     objecttolerance="10"
     gridtolerance="10"
     guidetolerance="10"
     inkscape:pageopacity="0"
     inkscape:pageshadow="2"
     inkscape:window-width="640"
     inkscape:window-height="480"
     id="namedview3384"
     showgrid="false"
     inkscape:zoom="0.23838384"
     inkscape:cx="736.83001"
     inkscape:cy="849.33005"
     inkscape:window-x="0"
     inkscape:window-y="0"
     inkscape:window-maximized="0"
     inkscape:current-layer="svg3372" /><defs
     id="defs3374"><style
       type="text/css"
       id="style3376"><![CDATA[
    .fil0 {fill:#E2001A}
    .fil1 {fill:white}
   ]]></style></defs><g
     id="Layer_x0020_1"
     transform="translate(3937,-7063)"><metadata
       id="CorelCorpID_0Corel-Layer" /><circle
       class="fil0"
       cy="11000"
       r="3937"
       id="circle3380"
       cx="0"
       style="fill:#e2001a" /><path
       class="fil1"
       d="m 965,8657 c 112,0 210,3 265,-34 71,-48 98,-101 109,-162 19,-118 -315,-217 -512,-276 -222,-67 -177,79 -414,118 -463,77 -1175,227 -1633,335 -142,33 -362,-2 -374,59 -20,98 290,308 413,275 234,-61 449,-115 660,-160 67,65 127,162 127,357 0,227 -13,479 -55,744 -684,107 -1356,203 -1618,241 -50,7 -77,64 -59,98 53,101 324,248 433,217 348,-100 626,-171 1186,-262 -182,767 -631,1608 -1678,2269 -83,53 -15,164 59,138 1235,-430 1816,-1349 2084,-2149 210,406 1054,1749 1420,2189 40,47 79,78 157,78 334,0 827,-19 1201,-98 49,-10 57,-73 -14,-97 C 1689,12186 738,11169 32,10217 c 8,-30 16,-60 23,-90 847,-88 1923,-19 2032,-92 82,-54 98,-107 98,-177 0,-39 10,-57 -39,-98 -118,-99 -630,-276 -748,-276 -79,0 -118,118 -296,158 -238,53 -594,116 -983,181 58,-342 64,-611 58,-732 -5,-125 -55,-197 -177,-276 -23,-15 -66,-45 -110,-79 326,-51 666,-79 1075,-79 z"
       id="path3382"
       inkscape:connector-curvature="0"
       style="fill:#ffffff" /></g></svg>