<?xml version="1.0" encoding="UTF-8" standalone="no"?>
<!-- Creator: CorelDRAW X7 -->

<svg
   xmlns:dc="http://purl.org/dc/elements/1.1/"
   xmlns:cc="http://creativecommons.org/ns#"
   xmlns:rdf="http://www.w3.org/1999/02/22-rdf-syntax-ns#"
   xmlns:svg="http://www.w3.org/2000/svg"
   xmlns="http://www.w3.org/2000/svg"
   xmlns:sodipodi="http://sodipodi.sourceforge.net/DTD/sodipodi-0.dtd"
   xmlns:inkscape="http://www.inkscape.org/namespaces/inkscape"
   xml:space="preserve"
   width="7.8740005in"
   height="7.8740005in"
   version="1.1"
   style="clip-rule:evenodd;fill-rule:evenodd;image-rendering:optimizeQuality;shape-rendering:geometricPrecision;text-rendering:geometricPrecision"
   viewBox="0 0 7874.0005 7874.0005"
   id="svg3388"
   inkscape:version="0.91 r13725"
   sodipodi:docname="Yu Jing - Daofei Tactical Section [N3] [Vyo].svg"><metadata
     id="metadata3427"><rdf:RDF><cc:Work
         rdf:about=""><dc:format>image/svg+xml</dc:format><dc:type
           rdf:resource="http://purl.org/dc/dcmitype/StillImage" /></cc:Work></rdf:RDF></metadata><sodipodi:namedview
     pagecolor="#ffffff"
     bordercolor="#666666"
     borderopacity="1"
     objecttolerance="10"
     gridtolerance="10"
     guidetolerance="10"
     inkscape:pageopacity="0"
     inkscape:pageshadow="2"
     inkscape:window-width="640"
     inkscape:window-height="480"
     id="namedview3425"
     showgrid="false"
     inkscape:zoom="0.23838384"
     inkscape:cx="736.83001"
     inkscape:cy="849.33005"
     inkscape:window-x="0"
     inkscape:window-y="0"
     inkscape:window-maximized="0"
     inkscape:current-layer="svg3388" /><defs
     id="defs3390"><style
       type="text/css"
       id="style3392"><![CDATA[
    .str0 {stroke:black;stroke-width:19.685;stroke-linecap:round}
    .fil5 {fill:none}
    .fil7 {fill:none;fill-rule:nonzero}
    .fil0 {fill:black}
    .fil2 {fill:#3688B8}
    .fil4 {fill:#E32527}
    .fil3 {fill:#FFF700}
    .fil1 {fill:white}
    .fil6 {fill:black;fill-rule:nonzero}
   ]]></style></defs><g
     id="Layer_x0020_1"
     transform="translate(3937,-7063)"><metadata
       id="CorelCorpID_0Corel-Layer" /><circle
       class="fil0"
       cy="11000"
       r="3937"
       id="circle3396"
       cx="0"
       style="fill:#000000" /><circle
       class="fil1"
       cy="11000"
       r="3819"
       id="circle3398"
       cx="0"
       style="fill:#ffffff" /><circle
       class="fil0"
       cy="11000"
       r="3071"
       id="circle3400"
       cx="0"
       style="fill:#000000" /><circle
       class="fil2"
       cy="11000"
       r="2992"
       id="circle3402"
       cx="0"
       style="fill:#3688b8" /><path
       class="fil3"
       d="m -1247,13102 141,303 -302,141 610,222 303,-141 -141,-303 -611,-222 z m 2444,-4233 333,-29 -29,-333 497,418 29,333 -332,29 -498,-418 z m 656,538 323,87 87,-323 324,562 -86,323 -323,-86 -325,-563 z m 433,730 274,192 192,-274 113,640 -192,273 -274,-191 -113,-640 z m 158,834 191,274 274,-192 -113,640 -273,192 -192,-274 113,-640 z m -138,838 87,322 322,-86 -324,562 -323,87 -87,-323 325,-562 z m -415,740 -30,332 333,30 -497,417 -333,-29 29,-333 498,-417 z m -644,553 -141,303 302,141 -610,222 -303,-141 141,-303 611,-222 z m -1345,536 196,0 0,236 -196,0 0,-236 z m 236,236 84,-336 217,-83 -104,419 -197,0 z m -276,0 -84,-336 -217,-83 104,419 197,0 z m -1059,-5005 -333,-29 29,-333 -497,418 -29,333 333,29 497,-418 z m -656,538 -323,87 -87,-323 -324,562 86,323 323,-86 325,-563 z m -433,730 -274,192 -192,-274 -113,640 192,273 274,-191 113,-640 z m -158,834 -191,274 -274,-192 113,640 273,192 192,-274 -113,-640 z m 138,838 -87,322 -322,-86 324,562 323,87 87,-323 -325,-562 z m 415,740 30,332 -333,30 497,417 333,-29 -29,-333 -498,-417 z"
       id="path3404"
       inkscape:connector-curvature="0"
       style="fill:#fff700" /><path
       class="fil3"
       d="m -98,9465 -1122,2460 223,317 564,-1237 0,2039 335,476 0,-4055 z m 98,-1418 186,572 600,0 -486,353 186,571 -486,-353 -486,353 186,-571 -486,-353 600,0 186,-572 z m 98,1418 1122,2460 -223,317 -564,-1237 0,2039 -335,476 0,-4055 z"
       id="path3406"
       inkscape:connector-curvature="0"
       style="fill:#fff700" /><path
       class="fil4"
       d="m 0,8175 -157,483 -508,0 411,299 -157,483 L 0,9141 411,9440 254,8957 665,8658 157,8658 0,8175 Z m -138,1471 0,3749 -256,-363 0,-2208 -611,1340 -170,-243 1037,-2275 z m 276,0 0,3749 256,-363 0,-2208 611,1340 170,-243 L 138,9646 Z"
       id="path3408"
       inkscape:connector-curvature="0"
       style="fill:#e32527" /><circle
       class="fil5"
       cy="11000"
       r="3898"
       id="circle3410"
       cx="0"
       style="fill:none" /><path
       class="fil6"
       d="m -3200,12827 351,-226 78,121 c 18,28 30,50 36,66 8,23 10,46 8,68 -4,29 -15,55 -34,80 -18,25 -43,47 -74,68 -27,17 -53,29 -77,36 -25,7 -47,10 -67,9 -20,-1 -37,-5 -52,-12 -16,-6 -30,-16 -45,-30 -15,-14 -29,-32 -42,-53 l -82,-127 z m 71,20 49,75 c 14,24 28,40 41,51 13,10 26,17 39,19 18,4 38,3 61,-3 22,-5 47,-17 73,-34 37,-24 62,-48 74,-73 12,-24 15,-48 11,-69 -3,-16 -14,-37 -31,-65 l -48,-73 -269,172 z m 133,296 428,-132 37,48 -223,391 -39,-49 69,-116 -108,-139 -128,43 -36,-46 z m 209,-11 88,111 64,-105 c 20,-32 37,-58 50,-78 -25,13 -50,23 -77,32 l -125,40 z m 282,-81 -25,-33 22,-101 42,54 -39,80 z m -93,275 c 47,-50 98,-77 152,-79 54,-3 103,16 145,56 28,27 47,58 57,92 10,35 9,70 -2,105 -11,35 -31,68 -59,98 -30,30 -62,52 -97,64 -36,13 -71,14 -105,5 -35,-9 -65,-26 -91,-51 -29,-27 -48,-58 -57,-93 -10,-35 -9,-70 2,-105 11,-35 29,-65 55,-92 z m 40,40 c -34,36 -52,74 -52,114 0,40 14,73 44,102 30,28 65,41 104,39 40,-3 78,-24 115,-63 24,-24 40,-50 49,-76 9,-26 10,-52 4,-77 -6,-26 -20,-48 -40,-67 -28,-27 -61,-40 -100,-40 -39,0 -80,23 -124,68 z m 164,433 258,-329 221,174 -30,39 -178,-140 -80,102 154,121 -30,39 -155,-121 -117,149 -43,-34 z m 280,217 225,-352 254,162 -27,42 -207,-133 -69,108 194,124 -26,42 -194,-124 -77,120 216,137 -26,42 -263,-168 z m 387,-316 52,-24 50,31 -98,33 -46,-29 -8,-101 49,32 1,58 z m -49,525 189,-372 50,26 -190,372 -49,-26 z m 370,177 134,-343 -128,-50 18,-46 308,120 -18,46 -128,-50 -134,343 -52,-20 z m 147,68 267,-359 59,17 51,448 -61,-17 -12,-135 -170,-48 -77,110 -57,-16 z m 162,-133 137,39 -10,-123 c -3,-38 -5,-69 -6,-92 -12,24 -27,48 -44,71 l -77,105 z m 575,159 52,23 c -19,43 -45,73 -79,92 -34,18 -72,23 -115,16 -44,-8 -79,-23 -103,-46 -25,-23 -41,-53 -50,-90 -8,-36 -9,-74 -2,-114 7,-42 22,-78 44,-107 22,-29 49,-50 83,-61 33,-11 67,-14 104,-7 41,7 73,24 98,49 24,26 38,59 43,99 l -56,3 c -4,-31 -14,-56 -30,-72 -16,-17 -37,-28 -65,-33 -31,-5 -59,-2 -83,9 -24,11 -42,29 -55,53 -13,24 -22,50 -27,77 -6,35 -6,66 -1,94 6,28 18,50 38,67 19,17 41,27 66,32 30,5 57,1 82,-13 24,-14 43,-38 56,-71 z m 203,170 28,-367 -137,-11 4,-49 329,25 -3,49 -138,-10 -28,367 -55,-4 z m 259,13 10,-418 55,2 -9,417 -56,-1 z m 439,-164 56,10 c -8,46 -26,82 -54,108 -28,26 -64,40 -108,44 -44,3 -81,-3 -111,-19 -29,-16 -53,-41 -70,-75 -17,-33 -28,-70 -31,-110 -3,-43 3,-81 17,-115 14,-34 35,-60 65,-79 29,-19 62,-30 99,-33 41,-3 77,5 107,24 30,19 52,47 66,85 l -53,17 c -12,-30 -28,-51 -47,-63 -19,-13 -43,-18 -71,-16 -32,3 -58,13 -78,29 -20,17 -34,39 -41,66 -6,26 -9,53 -7,81 3,35 11,66 23,91 12,26 30,44 52,56 23,11 47,16 72,14 31,-2 56,-13 76,-33 20,-19 33,-47 38,-82 z m 89,139 85,-439 60,-10 240,382 -62,11 -70,-117 -173,31 -22,132 -58,10 z m 88,-189 141,-25 -63,-106 c -19,-33 -34,-60 -45,-81 -1,28 -4,55 -9,83 l -24,129 z m 337,108 -115,-402 53,-15 101,355 198,-57 13,47 -250,72 z m 374,-253 46,-26 c 10,18 23,31 36,40 14,9 32,13 52,13 21,-1 42,-6 64,-16 19,-8 35,-19 47,-31 12,-13 19,-25 22,-39 2,-13 1,-25 -4,-37 -5,-12 -14,-21 -25,-27 -11,-5 -25,-8 -44,-6 -12,0 -37,4 -76,12 -39,7 -67,10 -84,9 -23,-1 -42,-7 -57,-17 -15,-10 -27,-24 -35,-41 -8,-20 -11,-40 -8,-62 4,-22 14,-41 31,-60 17,-18 38,-33 64,-44 28,-13 55,-20 81,-20 25,-1 48,5 67,17 20,13 35,30 46,52 l -46,26 c -14,-23 -31,-37 -51,-43 -21,-5 -46,-2 -75,12 -31,13 -50,29 -59,47 -9,17 -10,34 -3,49 6,14 16,23 30,27 14,5 43,3 88,-7 46,-9 77,-14 96,-14 26,1 49,6 66,17 18,11 31,26 40,47 9,20 12,42 9,65 -4,23 -14,44 -31,64 -17,20 -40,36 -67,48 -34,16 -65,24 -93,24 -28,1 -53,-6 -75,-21 -22,-14 -40,-33 -52,-58 z m 426,-49 -207,-363 262,-149 24,42 -213,122 63,112 200,-114 25,42 -200,114 70,124 223,-127 24,43 -271,154 z m 492,-489 53,-21 c 17,44 20,84 9,121 -10,37 -33,68 -69,93 -36,26 -71,40 -105,41 -34,2 -66,-8 -99,-27 -32,-20 -59,-46 -82,-79 -26,-35 -41,-71 -46,-107 -5,-36 0,-70 15,-101 15,-31 38,-58 68,-79 34,-24 68,-36 104,-35 35,1 69,13 100,38 l -36,42 c -26,-19 -50,-29 -73,-29 -23,-1 -46,7 -69,23 -26,18 -43,40 -52,65 -8,25 -9,51 -1,77 8,26 20,50 36,73 21,29 43,51 67,67 23,15 48,22 73,20 26,-2 48,-10 69,-25 25,-18 41,-40 48,-67 8,-27 4,-57 -10,-90 z m 260,-30 -242,-279 -104,90 -32,-37 251,-217 32,38 -105,90 241,279 -41,36 z m 187,-180 -303,-287 38,-41 303,288 -38,40 z m -60,-219 c -54,-43 -85,-91 -93,-145 -7,-53 7,-103 44,-149 24,-31 52,-52 86,-65 34,-13 68,-16 104,-8 36,8 70,25 103,50 33,27 58,57 73,91 16,34 21,69 15,104 -6,35 -21,67 -43,96 -24,30 -54,52 -88,65 -34,12 -69,15 -104,7 -36,-8 -68,-23 -97,-46 z m 36,-44 c 40,31 79,45 119,41 39,-3 71,-20 97,-53 26,-32 35,-68 29,-107 -6,-39 -30,-76 -72,-109 -27,-21 -54,-35 -81,-41 -27,-7 -53,-6 -77,3 -25,8 -46,23 -63,45 -24,31 -34,65 -31,104 4,39 30,78 79,117 z m 413,-201 -352,-224 30,-48 394,-9 -276,-176 29,-45 352,225 -31,48 -394,8 276,177 -28,44 z"
       id="path3412"
       inkscape:connector-curvature="0"
       style="fill:#000000;fill-rule:nonzero" /><path
       class="fil6"
       d="m -1372,7523 c 24,-4 45,-6 63,-4 6,1 9,3 10,6 2,4 0,7 -5,11 -7,6 -15,11 -24,15 l 33,107 91,-28 21,-48 c 20,8 40,16 58,23 4,1 7,3 8,7 2,6 0,10 -7,12 l -166,51 47,154 89,-27 12,-34 c 18,5 32,11 41,17 4,2 6,4 7,7 1,4 -5,13 -19,27 l 49,159 c 9,3 18,6 26,10 3,1 5,2 5,4 2,6 1,9 -2,10 l -246,76 8,25 c 1,5 -2,8 -11,11 -3,1 -8,1 -14,1 -5,-2 -9,-6 -10,-12 -3,-7 -5,-17 -8,-29 -1,-11 -6,-31 -15,-62 l -39,-127 c -5,-16 -11,-30 -18,-41 l 46,16 69,-22 -81,-266 c -7,-22 -13,-38 -18,-49 z m 86,538 198,-61 -55,-181 -199,60 56,182 z m 362,-491 11,-41 53,16 c 2,1 4,2 5,5 1,4 -1,7 -5,10 l -167,75 c 4,9 7,17 11,25 19,46 36,82 51,107 10,20 21,37 32,51 4,-13 8,-26 12,-40 8,-31 14,-59 17,-86 3,-20 5,-45 5,-74 21,3 38,6 53,10 5,2 9,5 9,7 1,2 -2,5 -9,9 -8,5 -16,9 -24,11 -6,46 -13,83 -20,110 -8,27 -17,51 -27,71 14,18 31,32 49,45 18,14 36,25 54,32 8,5 15,7 20,5 2,0 5,-3 7,-7 1,-6 2,-44 0,-112 l 12,4 c 2,54 6,90 11,106 2,8 8,13 16,16 6,3 10,8 12,15 3,9 -1,15 -13,19 -6,2 -11,2 -17,0 -12,0 -28,-5 -46,-14 -26,-9 -49,-22 -71,-39 -19,-15 -35,-29 -48,-43 -10,20 -22,38 -34,55 -18,25 -37,44 -55,59 l -9,-9 c 23,-24 40,-44 51,-59 12,-19 23,-37 30,-56 2,-2 3,-4 3,-6 -15,-18 -32,-43 -50,-75 -20,-35 -38,-73 -54,-116 -2,-3 -3,-7 -4,-9 l -48,21 -19,12 -24,-17 34,-15 50,-21 c -15,-39 -27,-71 -35,-96 -14,-45 -25,-74 -32,-88 35,-2 54,-1 56,5 1,4 -4,9 -15,17 18,57 35,107 52,151 l 110,-46 z m -103,-126 c 15,4 28,8 39,12 13,3 23,7 31,11 9,4 15,8 19,12 4,4 6,8 8,13 2,7 3,13 2,17 -1,7 -5,11 -9,12 -4,1 -7,1 -10,0 -3,-1 -6,-4 -10,-11 -5,-7 -11,-15 -19,-22 -9,-6 -17,-12 -25,-18 -8,-5 -19,-10 -33,-15 l 7,-11 z"
       id="path3414"
       inkscape:connector-curvature="0"
       style="fill:#000000;fill-rule:nonzero" /><path
       id="1"
       class="fil6"
       d="m -688,7475 c 20,3 45,3 76,-1 l 173,-24 -13,-100 c -3,-23 -7,-41 -10,-52 21,0 39,3 54,7 5,2 8,5 9,9 0,3 -2,6 -6,8 -5,5 -11,9 -18,11 l 15,113 211,-28 25,-35 c 16,8 32,17 47,26 4,2 6,4 7,6 0,7 -2,10 -7,11 l -275,37 c 24,43 49,81 76,113 26,32 56,63 88,92 33,28 64,51 96,69 29,17 57,28 83,35 l 1,10 c -21,3 -36,11 -42,24 -30,-14 -57,-32 -84,-53 -28,-24 -54,-49 -76,-76 -24,-25 -49,-53 -72,-84 -23,-28 -47,-63 -72,-107 l 53,401 c 1,9 -4,13 -17,15 -10,2 -15,-3 -17,-13 0,-5 -1,-12 -1,-20 0,-10 -1,-17 -2,-24 l -43,-322 c -6,20 -13,39 -19,56 -15,39 -32,75 -53,109 -17,31 -37,62 -60,94 -24,30 -54,63 -89,99 l -8,-10 c 34,-39 63,-76 86,-111 23,-33 43,-69 60,-107 17,-32 30,-66 40,-101 10,-29 17,-57 21,-82 l -159,21 c -30,5 -50,8 -61,11 l -17,-27 z m 334,-173 c 21,5 41,10 57,16 16,5 30,10 40,14 9,3 16,7 21,10 4,2 7,5 9,8 2,2 4,5 4,8 2,14 -3,21 -13,23 -3,0 -6,0 -9,-1 -3,-2 -11,-7 -22,-18 -12,-9 -24,-18 -38,-26 -14,-8 -33,-16 -56,-25 l 7,-9 z"
       inkscape:connector-curvature="0"
       style="fill:#000000;fill-rule:nonzero" /><path
       id="2"
       class="fil6"
       d="m 269,7267 c 20,11 38,21 52,31 3,3 3,5 3,8 0,4 -5,6 -13,6 -10,1 -18,1 -22,0 -18,35 -38,68 -59,100 -7,9 -13,18 -19,26 18,12 27,20 26,24 0,5 -8,9 -23,14 l -43,321 c -2,15 -3,25 -2,32 1,7 2,12 1,16 -2,13 -10,19 -26,18 -9,-1 -13,-6 -12,-13 l 51,-377 c -6,6 -11,13 -16,18 -23,23 -49,46 -80,69 l -8,-9 c 27,-25 51,-49 71,-72 16,-20 33,-43 49,-69 16,-25 30,-49 42,-71 11,-22 20,-46 28,-72 z m 400,97 c 14,12 27,25 39,37 3,3 5,6 5,8 -1,7 -4,10 -10,9 l -208,-28 -10,67 124,17 24,-26 c 15,12 25,22 31,32 3,4 4,7 4,9 -1,5 -10,11 -27,18 l -23,173 c -4,32 -7,53 -7,63 -1,13 -2,22 -3,30 -1,6 -4,11 -9,14 -6,1 -11,1 -15,1 -8,-1 -12,-4 -11,-9 l 39,-287 -259,-35 -39,292 c -1,5 -5,7 -14,6 -3,-1 -8,-3 -14,-6 -3,-4 -5,-9 -4,-15 1,-7 3,-17 6,-30 3,-9 7,-30 12,-62 l 25,-191 c 3,-17 3,-32 2,-44 l 34,33 91,13 14,-103 c 3,-25 5,-43 5,-56 20,7 37,13 50,18 5,3 7,6 7,9 -1,3 -3,5 -7,6 -6,2 -12,4 -19,6 l -5,39 139,19 33,-27 z m -215,147 c 21,5 38,11 52,18 5,2 8,6 7,11 0,3 -4,6 -10,8 -6,3 -12,4 -18,6 l -12,85 c -5,38 -12,68 -22,89 -9,23 -21,42 -36,58 -13,17 -29,30 -49,40 -26,14 -50,24 -74,31 -28,8 -58,12 -89,14 l -6,-12 c 45,-6 80,-14 104,-24 22,-9 42,-21 60,-34 15,-12 29,-27 41,-45 10,-14 19,-32 25,-54 7,-21 12,-43 15,-67 l 2,-15 c 6,-44 10,-81 10,-109 z m 24,247 c 25,17 47,33 65,49 19,16 33,28 43,38 11,11 18,19 23,26 4,6 7,12 8,17 2,5 3,10 2,15 -2,12 -7,18 -16,17 -4,-1 -8,-2 -11,-5 -3,-3 -11,-15 -21,-36 -12,-20 -25,-38 -40,-54 -14,-18 -35,-37 -61,-60 l 8,-7 z"
       inkscape:connector-curvature="0"
       style="fill:#000000;fill-rule:nonzero" /><path
       id="3"
       class="fil6"
       d="m 1179,7447 c 8,8 15,15 21,22 6,7 11,14 14,19 4,6 6,11 7,15 1,4 1,7 0,10 -2,8 -6,14 -10,18 -3,2 -6,3 -8,3 l 220,74 23,-14 c 11,14 20,29 28,44 1,1 1,2 1,4 -1,3 -7,4 -16,3 -7,-1 -14,-1 -21,-2 -7,6 -16,10 -25,15 -10,6 -19,11 -29,14 l -7,-10 c 9,-7 17,-13 23,-19 7,-6 12,-12 17,-18 L 967,7474 c -3,9 -7,16 -11,23 -7,12 -13,21 -20,28 -5,6 -11,10 -18,14 -6,2 -12,4 -16,4 -5,0 -8,0 -12,-1 -10,-4 -14,-8 -12,-15 1,-3 6,-7 13,-10 17,-9 30,-17 39,-24 9,-6 17,-15 24,-25 7,-9 14,-23 21,-41 l 8,3 -9,27 215,72 c -1,-2 -1,-6 -1,-10 0,-7 -1,-14 -2,-22 -2,-8 -4,-15 -6,-21 -3,-8 -7,-16 -13,-25 l 12,-4 z m -130,72 c 16,11 30,22 42,34 2,3 2,5 2,8 -2,4 -5,6 -10,6 -9,-1 -17,-2 -24,-4 -7,5 -15,10 -22,15 l 84,28 27,-16 c 12,15 20,29 26,42 2,4 2,7 1,11 -1,2 -5,3 -12,3 -12,-1 -20,-2 -24,-4 -34,29 -63,51 -88,65 -25,15 -51,27 -75,35 -29,10 -60,18 -93,23 -30,4 -59,5 -88,3 l -3,-14 c 37,-1 70,-4 98,-11 27,-6 54,-14 81,-25 26,-11 50,-24 70,-38 22,-14 45,-34 69,-59 l -93,-31 c -10,5 -19,10 -28,14 10,10 19,18 25,25 7,8 13,15 15,22 3,5 3,9 2,13 -5,13 -11,18 -20,15 -2,-1 -5,-2 -7,-4 -1,-2 -2,-6 -3,-11 -3,-11 -7,-22 -11,-30 -4,-7 -9,-15 -16,-23 -10,5 -19,8 -29,11 -13,4 -28,8 -47,10 l -7,-10 c 20,-5 37,-12 51,-20 18,-8 34,-18 49,-29 16,-11 30,-22 43,-34 6,-6 11,-13 15,-20 z m -71,152 -1,12 c -35,12 -73,19 -113,20 -13,13 -21,19 -23,18 -2,-1 -4,-3 -4,-7 -1,-15 0,-31 1,-50 9,3 28,6 57,10 23,4 51,3 83,-3 z m 228,-42 c 15,9 38,18 68,28 l 74,25 25,-14 c 10,14 19,29 26,43 1,2 1,3 1,4 -1,4 -6,6 -15,5 -8,-1 -15,-2 -21,-2 -19,9 -40,18 -64,26 -19,8 -39,14 -58,19 11,14 22,29 33,42 19,22 39,42 60,60 20,16 40,30 58,41 l -3,10 c -20,-7 -36,-6 -48,3 -20,-17 -38,-34 -52,-51 -17,-20 -31,-39 -42,-58 -13,-18 -25,-39 -36,-60 -12,-23 -24,-50 -34,-84 l 14,-1 c 9,26 20,51 34,74 4,5 7,9 9,13 23,-7 43,-14 58,-22 21,-10 37,-20 50,-31 l -75,-25 c -32,-11 -52,-16 -60,-16 l -2,-29 z m -206,110 c 16,10 39,20 69,30 l 101,34 36,-17 c 10,14 19,27 28,40 3,3 4,6 3,8 -2,7 -6,10 -11,8 l -163,-55 c -29,-9 -49,-15 -60,-17 l -3,-31 z m -141,40 c 17,11 40,21 70,31 l 309,104 37,-20 c 11,15 22,29 31,43 3,4 4,7 3,9 -2,7 -6,10 -11,8 l -204,-69 -53,156 c -2,7 -11,8 -26,4 -5,-2 -7,-6 -5,-12 l 53,-158 -140,-47 c -29,-9 -49,-15 -60,-17 l -4,-32 z m 85,84 c 15,13 27,25 36,38 2,2 2,5 2,7 -1,3 -4,4 -8,4 -8,-1 -15,-2 -21,-3 -11,6 -24,10 -37,14 -15,4 -29,8 -45,11 -13,3 -30,5 -49,8 -18,1 -37,2 -56,3 l -5,-10 c 25,-4 47,-9 65,-14 19,-5 36,-11 51,-17 17,-7 32,-14 43,-21 11,-7 19,-14 24,-20 z m 199,79 c 22,15 44,31 66,49 21,19 37,34 47,46 10,11 16,20 19,27 3,7 5,14 7,20 0,5 -1,10 -3,15 -2,7 -7,10 -13,8 -3,-1 -6,-4 -9,-8 -4,-4 -8,-10 -11,-18 -8,-13 -15,-23 -22,-33 -9,-11 -20,-23 -33,-37 -14,-16 -33,-37 -59,-61 l 11,-8 z"
       inkscape:connector-curvature="0"
       style="fill:#000000;fill-rule:nonzero" /><path
       id="4"
       class="fil7 str0"
       d="m -1372,7523 c 24,-4 45,-6 63,-4 6,1 9,3 10,6 2,4 0,7 -5,11 -7,6 -15,11 -24,15 l 33,107 91,-28 21,-48 c 20,8 40,16 58,23 4,1 7,3 8,7 2,6 0,10 -7,12 l -166,51 47,154 89,-27 12,-34 c 18,5 32,11 41,17 4,2 6,4 7,7 1,4 -5,13 -19,27 l 49,159 c 9,3 18,6 26,10 3,1 5,2 5,4 2,6 1,9 -2,10 l -246,76 8,25 c 1,5 -2,8 -11,11 -3,1 -8,1 -14,1 -5,-2 -9,-6 -10,-12 -3,-7 -5,-17 -8,-29 -1,-11 -6,-31 -15,-62 l -39,-127 c -5,-16 -11,-30 -18,-41 l 46,16 69,-22 -81,-266 c -7,-22 -13,-38 -18,-49 z m 86,538 198,-61 -55,-181 -199,60 56,182 z m 362,-491 11,-41 53,16 c 2,1 4,2 5,5 1,4 -1,7 -5,10 l -167,75 c 4,9 7,17 11,25 19,46 36,82 51,107 10,20 21,37 32,51 4,-13 8,-26 12,-40 8,-31 14,-59 17,-86 3,-20 5,-45 5,-74 21,3 38,6 53,10 5,2 9,5 9,7 1,2 -2,5 -9,9 -8,5 -16,9 -24,11 -6,46 -13,83 -20,110 -8,27 -17,51 -27,71 14,18 31,32 49,45 18,14 36,25 54,32 8,5 15,7 20,5 2,0 5,-3 7,-7 1,-6 2,-44 0,-112 l 12,4 c 2,54 6,90 11,106 2,8 8,13 16,16 6,3 10,8 12,15 3,9 -1,15 -13,19 -6,2 -11,2 -17,0 -12,0 -28,-5 -46,-14 -26,-9 -49,-22 -71,-39 -19,-15 -35,-29 -48,-43 -10,20 -22,38 -34,55 -18,25 -37,44 -55,59 l -9,-9 c 23,-24 40,-44 51,-59 12,-19 23,-37 30,-56 2,-2 3,-4 3,-6 -15,-18 -32,-43 -50,-75 -20,-35 -38,-73 -54,-116 -2,-3 -3,-7 -4,-9 l -48,21 -19,12 -24,-17 34,-15 50,-21 c -15,-39 -27,-71 -35,-96 -14,-45 -25,-74 -32,-88 35,-2 54,-1 56,5 1,4 -4,9 -15,17 18,57 35,107 52,151 l 110,-46 z m -103,-126 c 15,4 28,8 39,12 13,3 23,7 31,11 9,4 15,8 19,12 4,4 6,8 8,13 2,7 3,13 2,17 -1,7 -5,11 -9,12 -4,1 -7,1 -10,0 -3,-1 -6,-4 -10,-11 -5,-7 -11,-15 -19,-22 -9,-6 -17,-12 -25,-18 -8,-5 -19,-10 -33,-15 l 7,-11 z"
       inkscape:connector-curvature="0"
       style="fill:none;fill-rule:nonzero;stroke:#000000;stroke-width:19.68499947;stroke-linecap:round" /><path
       id="5"
       class="fil7 str0"
       d="m -688,7475 c 20,3 45,3 76,-1 l 173,-24 -13,-100 c -3,-23 -7,-41 -10,-52 21,0 39,3 54,7 5,2 8,5 9,9 0,3 -2,6 -6,8 -5,5 -11,9 -18,11 l 15,113 211,-28 25,-35 c 16,8 32,17 47,26 4,2 6,4 7,6 0,7 -2,10 -7,11 l -275,37 c 24,43 49,81 76,113 26,32 56,63 88,92 33,28 64,51 96,69 29,17 57,28 83,35 l 1,10 c -21,3 -36,11 -42,24 -30,-14 -57,-32 -84,-53 -28,-24 -54,-49 -76,-76 -24,-25 -49,-53 -72,-84 -23,-28 -47,-63 -72,-107 l 53,401 c 1,9 -4,13 -17,15 -10,2 -15,-3 -17,-13 0,-5 -1,-12 -1,-20 0,-10 -1,-17 -2,-24 l -43,-322 c -6,20 -13,39 -19,56 -15,39 -32,75 -53,109 -17,31 -37,62 -60,94 -24,30 -54,63 -89,99 l -8,-10 c 34,-39 63,-76 86,-111 23,-33 43,-69 60,-107 17,-32 30,-66 40,-101 10,-29 17,-57 21,-82 l -159,21 c -30,5 -50,8 -61,11 l -17,-27 z m 334,-173 c 21,5 41,10 57,16 16,5 30,10 40,14 9,3 16,7 21,10 4,2 7,5 9,8 2,2 4,5 4,8 2,14 -3,21 -13,23 -3,0 -6,0 -9,-1 -3,-2 -11,-7 -22,-18 -12,-9 -24,-18 -38,-26 -14,-8 -33,-16 -56,-25 l 7,-9 z"
       inkscape:connector-curvature="0"
       style="fill:none;fill-rule:nonzero;stroke:#000000;stroke-width:19.68499947;stroke-linecap:round" /><path
       id="6"
       class="fil7 str0"
       d="m 269,7267 c 20,11 38,21 52,31 3,3 3,5 3,8 0,4 -5,6 -13,6 -10,1 -18,1 -22,0 -18,35 -38,68 -59,100 -7,9 -13,18 -19,26 18,12 27,20 26,24 0,5 -8,9 -23,14 l -43,321 c -2,15 -3,25 -2,32 1,7 2,12 1,16 -2,13 -10,19 -26,18 -9,-1 -13,-6 -12,-13 l 51,-377 c -6,6 -11,13 -16,18 -23,23 -49,46 -80,69 l -8,-9 c 27,-25 51,-49 71,-72 16,-20 33,-43 49,-69 16,-25 30,-49 42,-71 11,-22 20,-46 28,-72 z m 400,97 c 14,12 27,25 39,37 3,3 5,6 5,8 -1,7 -4,10 -10,9 l -208,-28 -10,67 124,17 24,-26 c 15,12 25,22 31,32 3,4 4,7 4,9 -1,5 -10,11 -27,18 l -23,173 c -4,32 -7,53 -7,63 -1,13 -2,22 -3,30 -1,6 -4,11 -9,14 -6,1 -11,1 -15,1 -8,-1 -12,-4 -11,-9 l 39,-287 -259,-35 -39,292 c -1,5 -5,7 -14,6 -3,-1 -8,-3 -14,-6 -3,-4 -5,-9 -4,-15 1,-7 3,-17 6,-30 3,-9 7,-30 12,-62 l 25,-191 c 3,-17 3,-32 2,-44 l 34,33 91,13 14,-103 c 3,-25 5,-43 5,-56 20,7 37,13 50,18 5,3 7,6 7,9 -1,3 -3,5 -7,6 -6,2 -12,4 -19,6 l -5,39 139,19 33,-27 z m -215,147 c 21,5 38,11 52,18 5,2 8,6 7,11 0,3 -4,6 -10,8 -6,3 -12,4 -18,6 l -12,85 c -5,38 -12,68 -22,89 -9,23 -21,42 -36,58 -13,17 -29,30 -49,40 -26,14 -50,24 -74,31 -28,8 -58,12 -89,14 l -6,-12 c 45,-6 80,-14 104,-24 22,-9 42,-21 60,-34 15,-12 29,-27 41,-45 10,-14 19,-32 25,-54 7,-21 12,-43 15,-67 l 2,-15 c 6,-44 10,-81 10,-109 z m 24,247 c 25,17 47,33 65,49 19,16 33,28 43,38 11,11 18,19 23,26 4,6 7,12 8,17 2,5 3,10 2,15 -2,12 -7,18 -16,17 -4,-1 -8,-2 -11,-5 -3,-3 -11,-15 -21,-36 -12,-20 -25,-38 -40,-54 -14,-18 -35,-37 -61,-60 l 8,-7 z"
       inkscape:connector-curvature="0"
       style="fill:none;fill-rule:nonzero;stroke:#000000;stroke-width:19.68499947;stroke-linecap:round" /><path
       id="7"
       class="fil7 str0"
       d="m 1179,7447 c 8,8 15,15 21,22 6,7 11,14 14,19 4,6 6,11 7,15 1,4 1,7 0,10 -2,8 -6,14 -10,18 -3,2 -6,3 -8,3 l 220,74 23,-14 c 11,14 20,29 28,44 1,1 1,2 1,4 -1,3 -7,4 -16,3 -7,-1 -14,-1 -21,-2 -7,6 -16,10 -25,15 -10,6 -19,11 -29,14 l -7,-10 c 9,-7 17,-13 23,-19 7,-6 12,-12 17,-18 L 967,7474 c -3,9 -7,16 -11,23 -7,12 -13,21 -20,28 -5,6 -11,10 -18,14 -6,2 -12,4 -16,4 -5,0 -8,0 -12,-1 -10,-4 -14,-8 -12,-15 1,-3 6,-7 13,-10 17,-9 30,-17 39,-24 9,-6 17,-15 24,-25 7,-9 14,-23 21,-41 l 8,3 -9,27 215,72 c -1,-2 -1,-6 -1,-10 0,-7 -1,-14 -2,-22 -2,-8 -4,-15 -6,-21 -3,-8 -7,-16 -13,-25 l 12,-4 z m -130,72 c 16,11 30,22 42,34 2,3 2,5 2,8 -2,4 -5,6 -10,6 -9,-1 -17,-2 -24,-4 -7,5 -15,10 -22,15 l 84,28 27,-16 c 12,15 20,29 26,42 2,4 2,7 1,11 -1,2 -5,3 -12,3 -12,-1 -20,-2 -24,-4 -34,29 -63,51 -88,65 -25,15 -51,27 -75,35 -29,10 -60,18 -93,23 -30,4 -59,5 -88,3 l -3,-14 c 37,-1 70,-4 98,-11 27,-6 54,-14 81,-25 26,-11 50,-24 70,-38 22,-14 45,-34 69,-59 l -93,-31 c -10,5 -19,10 -28,14 10,10 19,18 25,25 7,8 13,15 15,22 3,5 3,9 2,13 -5,13 -11,18 -20,15 -2,-1 -5,-2 -7,-4 -1,-2 -2,-6 -3,-11 -3,-11 -7,-22 -11,-30 -4,-7 -9,-15 -16,-23 -10,5 -19,8 -29,11 -13,4 -28,8 -47,10 l -7,-10 c 20,-5 37,-12 51,-20 18,-8 34,-18 49,-29 16,-11 30,-22 43,-34 6,-6 11,-13 15,-20 z m -71,152 -1,12 c -35,12 -73,19 -113,20 -13,13 -21,19 -23,18 -2,-1 -4,-3 -4,-7 -1,-15 0,-31 1,-50 9,3 28,6 57,10 23,4 51,3 83,-3 z m 228,-42 c 15,9 38,18 68,28 l 74,25 25,-14 c 10,14 19,29 26,43 1,2 1,3 1,4 -1,4 -6,6 -15,5 -8,-1 -15,-2 -21,-2 -19,9 -40,18 -64,26 -19,8 -39,14 -58,19 11,14 22,29 33,42 19,22 39,42 60,60 20,16 40,30 58,41 l -3,10 c -20,-7 -36,-6 -48,3 -20,-17 -38,-34 -52,-51 -17,-20 -31,-39 -42,-58 -13,-18 -25,-39 -36,-60 -12,-23 -24,-50 -34,-84 l 14,-1 c 9,26 20,51 34,74 4,5 7,9 9,13 23,-7 43,-14 58,-22 21,-10 37,-20 50,-31 l -75,-25 c -32,-11 -52,-16 -60,-16 l -2,-29 z m -206,110 c 16,10 39,20 69,30 l 101,34 36,-17 c 10,14 19,27 28,40 3,3 4,6 3,8 -2,7 -6,10 -11,8 l -163,-55 c -29,-9 -49,-15 -60,-17 l -3,-31 z m -141,40 c 17,11 40,21 70,31 l 309,104 37,-20 c 11,15 22,29 31,43 3,4 4,7 3,9 -2,7 -6,10 -11,8 l -204,-69 -53,156 c -2,7 -11,8 -26,4 -5,-2 -7,-6 -5,-12 l 53,-158 -140,-47 c -29,-9 -49,-15 -60,-17 l -4,-32 z m 85,84 c 15,13 27,25 36,38 2,2 2,5 2,7 -1,3 -4,4 -8,4 -8,-1 -15,-2 -21,-3 -11,6 -24,10 -37,14 -15,4 -29,8 -45,11 -13,3 -30,5 -49,8 -18,1 -37,2 -56,3 l -5,-10 c 25,-4 47,-9 65,-14 19,-5 36,-11 51,-17 17,-7 32,-14 43,-21 11,-7 19,-14 24,-20 z m 199,79 c 22,15 44,31 66,49 21,19 37,34 47,46 10,11 16,20 19,27 3,7 5,14 7,20 0,5 -1,10 -3,15 -2,7 -7,10 -13,8 -3,-1 -6,-4 -9,-8 -4,-4 -8,-10 -11,-18 -8,-13 -15,-23 -22,-33 -9,-11 -20,-23 -33,-37 -14,-16 -33,-37 -59,-61 l 11,-8 z"
       inkscape:connector-curvature="0"
       style="fill:none;fill-rule:nonzero;stroke:#000000;stroke-width:19.68499947;stroke-linecap:round" /><circle
       class="fil5"
       cy="11000"
       r="3898"
       id="circle3423"
       cx="0"
       style="fill:none" /></g></svg>