<?xml version="1.0" encoding="UTF-8" standalone="no"?>
<!-- Creator: CorelDRAW X7 -->

<svg
   xmlns:dc="http://purl.org/dc/elements/1.1/"
   xmlns:cc="http://creativecommons.org/ns#"
   xmlns:rdf="http://www.w3.org/1999/02/22-rdf-syntax-ns#"
   xmlns:svg="http://www.w3.org/2000/svg"
   xmlns="http://www.w3.org/2000/svg"
   xmlns:sodipodi="http://sodipodi.sourceforge.net/DTD/sodipodi-0.dtd"
   xmlns:inkscape="http://www.inkscape.org/namespaces/inkscape"
   xml:space="preserve"
   width="7.8740005in"
   height="7.8740005in"
   version="1.1"
   style="clip-rule:evenodd;fill-rule:evenodd;image-rendering:optimizeQuality;shape-rendering:geometricPrecision;text-rendering:geometricPrecision"
   viewBox="0 0 7874.0005 7874.0005"
   id="svg4142"
   inkscape:version="0.91 r13725"
   sodipodi:docname="Yu Jing - Remote 1 Weibing Yaokong - [N3] [Vyo].svg"><metadata
     id="metadata4180"><rdf:RDF><cc:Work
         rdf:about=""><dc:format>image/svg+xml</dc:format><dc:type
           rdf:resource="http://purl.org/dc/dcmitype/StillImage" /></cc:Work></rdf:RDF></metadata><sodipodi:namedview
     pagecolor="#ffffff"
     bordercolor="#666666"
     borderopacity="1"
     objecttolerance="10"
     gridtolerance="10"
     guidetolerance="10"
     inkscape:pageopacity="0"
     inkscape:pageshadow="2"
     inkscape:window-width="640"
     inkscape:window-height="480"
     id="namedview4178"
     showgrid="false"
     inkscape:zoom="0.23838384"
     inkscape:cx="736.83001"
     inkscape:cy="849.33005"
     inkscape:window-x="0"
     inkscape:window-y="0"
     inkscape:window-maximized="0"
     inkscape:current-layer="svg4142" /><defs
     id="defs4144"><style
       type="text/css"
       id="style4146"><![CDATA[
    .fil2 {fill:none}
    .fil0 {fill:#E2001A}
    .fil1 {fill:white}
    .fil4 {fill:#E2001A;fill-rule:nonzero}
    .fil3 {fill:white;fill-rule:nonzero}
   ]]></style></defs><g
     id="Layer_x0020_1"
     transform="translate(3937,-7063)"><metadata
       id="CorelCorpID_0Corel-Layer" /><circle
       class="fil0"
       cy="11000"
       r="3937"
       id="circle4150"
       cx="0"
       style="fill:#e2001a" /><circle
       class="fil1"
       cy="11000"
       r="3819"
       id="circle4152"
       cx="0"
       style="fill:#ffffff" /><path
       class="fil0"
       d="M 0,8677 1850,11000 0,13323 -1850,11000 0,8677 Z M 0,8804 -1750,11000 0,13196 0,8804 Z"
       id="path4154"
       inkscape:connector-curvature="0"
       style="fill:#e2001a" /><circle
       class="fil2"
       cy="11000"
       r="3898"
       id="circle4156"
       cx="0"
       style="fill:none" /><path
       class="fil0"
       d="m -2659,8563 c 25,-28 54,-2 28,26 -491,576 -752,1276 -823,1976 l -184,-184 c 130,-669 466,-1295 979,-1818 z m 227,209 c -510,515 -846,1167 -936,1879 l 94,94 122,-123 c 64,-662 317,-1316 749,-1824 25,-29 -2,-53 -29,-26 z m -883,2096 c -2,44 -2,88 -2,132 0,145 9,289 27,429 l -407,-218 c -4,-70 -6,-140 -6,-211 0,-166 11,-329 32,-489 l 356,357 z m 47,703 c 35,205 89,403 161,593 l -448,-122 c -65,-224 -110,-456 -132,-695 l 419,224 z m 214,728 c 116,270 266,522 445,750 l -476,0 c -179,-270 -324,-564 -429,-876 l 460,126 z m 540,866 c 54,62 110,122 168,181 215,215 459,400 726,550 l -537,114 c -164,-118 -319,-249 -462,-391 -140,-141 -269,-293 -386,-454 l 491,0 z m -284,-2733 c -21,105 -37,213 -46,323 l -374,624 c -15,-125 -22,-251 -22,-379 0,-43 1,-86 2,-128 l 440,-440 z m -57,564 c 0,125 8,250 24,373 l -219,727 c -62,-173 -110,-352 -142,-537 l 337,-563 z m 68,626 c 49,217 121,424 216,619 l 1,732 c -166,-215 -304,-451 -412,-703 l 195,-648 z m 331,834 c 122,205 269,394 438,562 94,95 196,184 303,264 l 140,550 c -264,-147 -505,-329 -716,-541 -57,-56 -112,-115 -164,-176 l -1,-659 z m -321,-2209 c 102,-438 291,-873 601,-1241 25,-29 -1,-53 -28,-26 -435,437 -721,961 -829,1524 l 256,-257 z"
       id="path4158"
       inkscape:connector-curvature="0"
       style="fill:#e2001a" /><path
       class="fil0"
       d="m 2659,8563 c -25,-28 -54,-2 -28,26 491,576 752,1276 823,1976 l 184,-184 C 3508,9712 3172,9086 2659,8563 Z m -227,209 c 510,515 846,1167 936,1879 l -94,94 -122,-123 c -64,-662 -317,-1316 -749,-1824 -25,-29 2,-53 29,-26 z m 883,2096 c 2,44 2,88 2,132 0,145 -9,289 -27,429 l 407,-218 c 4,-70 6,-140 6,-211 0,-166 -11,-329 -32,-489 l -356,357 z m -47,703 c -35,205 -89,403 -161,593 l 448,-122 c 65,-224 110,-456 132,-695 l -419,224 z m -214,728 c -116,270 -266,522 -445,750 l 476,0 c 179,-270 324,-564 429,-876 l -460,126 z m -540,866 c -54,62 -110,122 -168,181 -215,215 -459,400 -726,550 l 537,114 c 164,-118 319,-249 462,-391 140,-141 269,-293 386,-454 l -491,0 z m 284,-2733 c 21,105 37,213 46,323 l 374,624 c 15,-125 22,-251 22,-379 0,-43 -1,-86 -2,-128 l -440,-440 z m 57,564 c 0,125 -8,250 -24,373 l 219,727 c 62,-173 110,-352 142,-537 l -337,-563 z m -68,626 c -49,217 -121,424 -216,619 l -1,732 c 166,-215 304,-451 412,-703 l -195,-648 z m -331,834 c -122,205 -269,394 -438,562 -94,95 -196,184 -303,264 l -140,550 c 264,-147 505,-329 716,-541 57,-56 112,-115 164,-176 l 1,-659 z m 321,-2209 c -102,-438 -291,-873 -601,-1241 -25,-29 1,-53 28,-26 435,437 721,961 829,1524 l -256,-257 z"
       id="path4160"
       inkscape:connector-curvature="0"
       style="fill:#e2001a" /><path
       class="fil0"
       d="m 0,14703 c -748,0 -1443,-221 -2025,-602 l 604,-129 -148,-587 c 450,297 989,470 1569,470 580,0 1119,-173 1569,-470 l -148,587 604,129 c -582,381 -1277,602 -2025,602 z"
       id="path4162"
       inkscape:connector-curvature="0"
       style="fill:#e2001a" /><circle
       class="fil2"
       cy="11000"
       r="3819"
       id="circle4164"
       cx="0"
       style="fill:none" /><path
       class="fil3"
       d="m -806,14463 324,42 34,-262 -274,-36 7,-59 275,37 26,-198 -294,-39 8,-58 662,87 -8,59 -303,-40 -26,197 284,38 -8,58 -284,-37 -34,262 332,44 -7,59 -722,-96 8,-58 z m 495,-130 52,-30 c 36,54 68,106 97,157 l -57,33 c -24,-46 -54,-100 -92,-160 z m 431,-200 538,-71 34,254 -59,8 -4,-30 -173,23 25,191 c 8,59 -16,93 -73,101 -36,5 -69,10 -99,14 -6,-22 -12,-41 -19,-60 34,-1 63,-4 88,-7 32,-3 45,-22 41,-55 l -23,-176 -188,24 5,34 -59,8 -34,-258 z m 486,-12 -421,56 16,120 421,-55 -16,-121 z m -600,-95 348,-46 c -18,-25 -38,-50 -60,-76 l 52,-34 c 24,27 47,56 71,86 l -28,19 354,-46 7,52 -737,98 -7,-53 z m 248,382 47,40 c -61,59 -122,114 -184,166 -12,-16 -26,-32 -42,-46 64,-49 123,-102 179,-160 z m 298,12 30,-50 c 74,31 145,64 214,97 l -33,57 c -58,-32 -129,-67 -211,-104 z"
       id="path4166"
       inkscape:connector-curvature="0"
       style="fill:#ffffff;fill-rule:nonzero" /><circle
       class="fil2"
       cy="11000"
       r="3898"
       id="circle4168"
       cx="0"
       style="fill:none" /><path
       class="fil4"
       d="m -1123,7775 96,532 -72,33 -276,-354 85,440 -71,32 -338,-423 66,-30 274,353 -83,-439 65,-29 277,357 -85,-444 62,-28 z m 302,462 -118,-511 320,-74 14,60 -252,58 33,141 235,-55 14,61 -235,54 43,190 252,-58 14,60 -320,74 z m 75,-623 -51,12 -124,-108 84,-19 91,115 z m 526,513 -202,30 -8,-53 66,-10 -60,-414 -66,10 -8,-53 202,-29 8,53 -66,9 60,414 66,-10 8,53 z m 466,-161 c 0,27 -5,50 -15,70 -10,19 -24,36 -41,49 -19,15 -41,26 -63,32 -23,6 -52,9 -88,9 l -150,-1 4,-525 139,1 c 37,0 65,2 84,4 19,3 36,9 54,18 18,10 32,24 41,40 8,17 12,36 12,58 0,24 -7,46 -20,66 -13,19 -31,34 -54,45 l 0,3 c 31,9 55,25 72,47 17,23 25,51 25,84 z m -96,-235 c 0,-13 -2,-24 -6,-33 -4,-9 -11,-16 -20,-22 -11,-6 -24,-10 -38,-12 -14,-1 -33,-2 -57,-2 l -67,-1 -1,153 79,0 c 22,0 38,-1 48,-3 11,-2 21,-6 32,-13 11,-7 19,-16 23,-27 5,-11 7,-24 7,-40 z m 23,237 c 0,-19 -2,-35 -8,-48 -6,-13 -17,-24 -34,-33 -11,-6 -23,-10 -36,-11 -13,-2 -31,-3 -55,-3 l -79,-1 -2,193 57,0 c 30,1 54,-1 72,-3 18,-3 33,-9 47,-18 13,-9 22,-19 29,-31 6,-11 9,-26 9,-45 z m 345,202 -203,-29 8,-53 67,9 60,-413 -67,-10 8,-53 202,29 -7,53 -67,-9 -60,413 66,10 -7,53 z m 91,-584 -214,-32 10,-68 214,32 -10,68 z m 376,707 -75,-23 -90,-501 -132,433 -62,-19 153,-502 95,29 80,459 122,-397 62,18 -153,503 z m 313,153 c -33,-17 -61,-38 -82,-63 -22,-24 -38,-52 -46,-82 -9,-31 -10,-65 -4,-101 6,-36 19,-73 40,-113 20,-37 43,-68 69,-92 26,-24 55,-41 85,-52 30,-10 62,-13 95,-10 34,4 67,15 99,32 16,8 30,18 43,27 14,10 26,21 36,32 9,8 19,19 28,31 10,12 18,22 24,31 l -40,74 -5,-3 c -4,-11 -9,-21 -14,-32 -4,-10 -13,-23 -24,-38 -9,-13 -20,-25 -34,-38 -14,-13 -31,-24 -49,-34 -45,-24 -90,-26 -135,-7 -45,19 -83,56 -113,112 -16,31 -27,60 -32,87 -5,27 -5,52 0,76 4,23 14,44 28,62 14,18 33,34 57,46 17,10 35,17 53,24 19,7 35,11 50,12 l 63,-119 -106,-57 29,-54 168,89 -108,202 c -10,0 -23,-2 -39,-3 -16,-2 -31,-4 -44,-7 -17,-4 -33,-7 -46,-12 -14,-4 -29,-11 -46,-20 z"
       id="path4170"
       inkscape:connector-curvature="0"
       style="fill:#e2001a;fill-rule:nonzero" /><circle
       class="fil2"
       cy="11000"
       r="3898"
       id="circle4172"
       cx="0"
       style="fill:none" /><path
       class="fil1"
       d="m -827,10803 1654,0 c 108,0 197,88 197,197 0,109 -89,197 -197,197 l -1654,0 c -108,0 -197,-88 -197,-197 0,-109 89,-197 197,-197 z"
       id="path4174"
       inkscape:connector-curvature="0"
       style="fill:#ffffff" /><path
       class="fil0"
       d="m -827,10882 1654,0 c 65,0 118,53 118,118 0,65 -53,118 -118,118 l -1654,0 c -65,0 -118,-53 -118,-118 0,-65 53,-118 118,-118 z"
       id="path4176"
       inkscape:connector-curvature="0"
       style="fill:#e2001a" /></g></svg>