<?xml version="1.0" encoding="UTF-8" standalone="no"?>
<!-- Creator: CorelDRAW X7 -->

<svg
   xmlns:dc="http://purl.org/dc/elements/1.1/"
   xmlns:cc="http://creativecommons.org/ns#"
   xmlns:rdf="http://www.w3.org/1999/02/22-rdf-syntax-ns#"
   xmlns:svg="http://www.w3.org/2000/svg"
   xmlns="http://www.w3.org/2000/svg"
   xmlns:sodipodi="http://sodipodi.sourceforge.net/DTD/sodipodi-0.dtd"
   xmlns:inkscape="http://www.inkscape.org/namespaces/inkscape"
   xml:space="preserve"
   width="7.8740005in"
   height="7.8740005in"
   version="1.1"
   style="clip-rule:evenodd;fill-rule:evenodd;image-rendering:optimizeQuality;shape-rendering:geometricPrecision;text-rendering:geometricPrecision"
   viewBox="0 0 7874.0005 7874.0005"
   id="svg4447"
   inkscape:version="0.91 r13725"
   sodipodi:docname="Yu Jing - Sun Tze - [N3] [Vyo].svg"><metadata
     id="metadata4480"><rdf:RDF><cc:Work
         rdf:about=""><dc:format>image/svg+xml</dc:format><dc:type
           rdf:resource="http://purl.org/dc/dcmitype/StillImage" /></cc:Work></rdf:RDF></metadata><sodipodi:namedview
     pagecolor="#ffffff"
     bordercolor="#666666"
     borderopacity="1"
     objecttolerance="10"
     gridtolerance="10"
     guidetolerance="10"
     inkscape:pageopacity="0"
     inkscape:pageshadow="2"
     inkscape:window-width="640"
     inkscape:window-height="480"
     id="namedview4478"
     showgrid="false"
     inkscape:zoom="0.23838384"
     inkscape:cx="736.83001"
     inkscape:cy="849.33005"
     inkscape:window-x="0"
     inkscape:window-y="0"
     inkscape:window-maximized="0"
     inkscape:current-layer="svg4447" /><defs
     id="defs4449"><style
       type="text/css"
       id="style4451"><![CDATA[
    .fil3 {fill:none}
    .fil1 {fill:black}
    .fil0 {fill:#E2001A}
    .fil4 {fill:#E2001A;fill-rule:nonzero}
    .fil2 {fill:yellow;fill-rule:nonzero}
   ]]></style></defs><g
     id="Layer_x0020_1"
     transform="translate(3937,-7063)"><metadata
       id="CorelCorpID_0Corel-Layer" /><circle
       class="fil0"
       cy="11000"
       r="3937"
       id="circle4455"
       cx="0"
       style="fill:#e2001a" /><path
       class="fil1"
       d="m -2714,8513 c 26,-28 55,-2 29,27 -502,587 -768,1301 -840,2016 l -188,-188 c 132,-682 475,-1322 999,-1855 z m 232,213 c -520,526 -863,1191 -955,1918 l 95,95 125,-124 c 65,-676 324,-1344 764,-1863 25,-29 -2,-53 -29,-26 z m -901,2139 c -2,45 -3,90 -3,135 0,148 10,294 28,438 l -416,-223 c -3,-71 -6,-143 -6,-215 0,-169 12,-335 33,-499 l 364,364 z m 47,718 c 36,209 92,412 165,605 l -457,-125 c -67,-228 -112,-465 -135,-709 l 427,229 z m 219,743 c 118,275 271,533 454,765 l -486,0 c -183,-275 -331,-575 -437,-894 l 469,129 z m 551,883 c 55,64 112,126 172,185 219,219 468,409 741,561 l -549,117 c -167,-120 -325,-254 -471,-399 -143,-144 -275,-299 -394,-464 l 501,0 z m -290,-2789 c -21,108 -37,218 -47,330 l -382,636 c -14,-126 -22,-255 -22,-386 0,-44 1,-88 2,-131 l 449,-449 z m -57,576 c -1,127 7,255 24,381 l -224,742 c -63,-177 -112,-360 -145,-548 l 345,-575 z m 69,639 c 49,221 123,433 220,631 l 1,748 c -169,-219 -311,-460 -420,-718 l 199,-661 z m 338,851 c 124,210 274,403 446,574 97,97 200,187 310,269 l 142,562 c -269,-150 -514,-337 -730,-553 -58,-57 -114,-117 -168,-180 l 0,-672 z m -328,-2254 c 104,-448 297,-891 613,-1267 26,-30 -1,-54 -29,-26 -443,445 -736,980 -846,1554 l 262,-261 z"
       id="path4457"
       inkscape:connector-curvature="0"
       style="fill:#000000" /><path
       class="fil1"
       d="m 2714,8513 c -26,-28 -55,-2 -29,27 502,587 768,1301 840,2016 l 188,-188 C 3581,9686 3238,9046 2714,8513 Z m -232,213 c 520,526 863,1191 955,1918 l -95,95 -125,-124 c -65,-676 -324,-1344 -764,-1863 -25,-29 2,-53 29,-26 z m 901,2139 c 2,45 3,90 3,135 0,148 -10,294 -28,438 l 416,-223 c 3,-71 6,-143 6,-215 0,-169 -12,-335 -33,-499 l -364,364 z m -47,718 c -36,209 -92,412 -165,605 l 457,-125 c 67,-228 112,-465 135,-709 l -427,229 z m -219,743 c -118,275 -271,533 -454,765 l 486,0 c 183,-275 331,-575 437,-894 l -469,129 z m -551,883 c -55,64 -112,126 -172,185 -219,219 -468,409 -741,561 l 549,117 c 167,-120 325,-254 471,-399 143,-144 275,-299 394,-464 l -501,0 z m 290,-2789 c 21,108 37,218 47,330 l 382,636 c 14,-126 22,-255 22,-386 0,-44 -1,-88 -2,-131 l -449,-449 z m 57,576 c 1,127 -7,255 -24,381 l 224,742 c 63,-177 112,-360 145,-548 l -345,-575 z m -69,639 c -49,221 -123,433 -220,631 l -1,748 c 169,-219 311,-460 420,-718 l -199,-661 z m -338,851 c -124,210 -274,403 -446,574 -97,97 -200,187 -310,269 l -142,562 c 269,-150 514,-337 730,-553 58,-57 114,-117 168,-180 l 0,-672 z m 328,-2254 c -104,-448 -297,-891 -613,-1267 -26,-30 1,-54 29,-26 443,445 736,980 846,1554 l -262,-261 z"
       id="path4459"
       inkscape:connector-curvature="0"
       style="fill:#000000" /><path
       class="fil1"
       d="m 0,14780 c -763,0 -1473,-227 -2067,-615 l 617,-132 -152,-599 c 460,303 1010,479 1602,479 592,0 1142,-176 1602,-479 l -152,599 617,132 c -594,388 -1304,615 -2067,615 z"
       id="path4461"
       inkscape:connector-curvature="0"
       style="fill:#000000" /><path
       class="fil2"
       d="m -1583,8265 85,-57 c 21,27 44,44 68,49 24,5 50,0 78,-14 30,-16 49,-34 57,-55 8,-21 8,-39 -1,-56 -6,-11 -14,-18 -24,-23 -10,-4 -25,-5 -44,-2 -13,2 -41,9 -84,20 -56,14 -99,17 -128,10 -42,-10 -72,-33 -91,-69 -13,-24 -17,-49 -15,-76 2,-27 13,-53 32,-77 19,-23 46,-45 81,-63 58,-31 108,-41 150,-32 42,10 75,35 99,76 l -90,54 c -16,-22 -34,-34 -52,-37 -19,-4 -41,1 -67,15 -27,15 -45,31 -54,50 -6,13 -6,25 1,36 5,11 15,18 28,21 17,3 51,-2 101,-15 51,-13 89,-20 117,-20 27,0 52,6 75,20 23,13 42,34 57,62 14,27 20,55 17,86 -2,30 -13,58 -34,83 -21,26 -51,49 -90,70 -58,31 -110,41 -155,31 -45,-10 -84,-40 -117,-87 z"
       id="path4463"
       inkscape:connector-curvature="0"
       style="fill:#ffff00;fill-rule:nonzero" /><path
       id="1"
       class="fil2"
       d="m -1178,7688 100,-30 80,268 c 13,42 22,69 28,81 11,19 26,33 46,40 19,7 43,7 71,-1 28,-9 48,-21 59,-37 11,-16 15,-33 13,-51 -2,-17 -9,-46 -21,-85 l -82,-274 100,-30 78,260 c 18,60 28,103 30,129 2,26 -2,49 -11,71 -10,21 -25,40 -47,57 -21,18 -51,32 -90,44 -47,14 -85,20 -113,16 -27,-4 -51,-12 -70,-25 -20,-14 -35,-29 -45,-47 -15,-26 -31,-67 -47,-122 l -79,-264 z"
       inkscape:connector-curvature="0"
       style="fill:#ffff00;fill-rule:nonzero" /><polygon
       id="2"
       class="fil2"
       points="-207,7839 -235,7495 -138,7487 -96,8003 -201,8011 -436,7692 -409,8028 -505,8036 -547,7521 -446,7512 "
       style="fill:#ffff00;fill-rule:nonzero" /><polygon
       id="3"
       class="fil2"
       points="293,7496 700,7556 687,7642 536,7620 474,8045 370,8030 432,7605 281,7583 "
       style="fill:#ffff00;fill-rule:nonzero" /><polygon
       id="4"
       class="fil2"
       points="820,7671 845,7587 1207,7695 1184,7773 813,8026 1095,8110 1070,8193 668,8074 695,7983 1051,7739 "
       style="fill:#ffff00;fill-rule:nonzero" /><polygon
       id="5"
       class="fil2"
       points="1692,8023 1446,7893 1392,7994 1621,8116 1581,8193 1351,8071 1285,8195 1541,8331 1500,8408 1152,8224 1394,7767 1733,7946 "
       style="fill:#ffff00;fill-rule:nonzero" /><circle
       class="fil3"
       cy="11000"
       r="3898"
       id="circle4470"
       cx="0"
       style="fill:none" /><path
       class="fil2"
       d="m 89,8669 c 609,23 1158,279 1560,682 282,281 492,634 600,1029 -1499,0 -2999,0 -4498,0 108,-395 318,-748 600,-1029 402,-403 951,-659 1560,-682 0,452 0,904 0,1357 -544,0 -1089,0 -1633,0 88,-156 197,-299 323,-425 258,-258 588,-445 956,-530 0,200 0,400 0,600 l -177,0 0,-363 c -248,91 -470,235 -654,418 -39,39 -76,80 -111,122 l 1119,0 c 0,-329 0,-658 0,-987 -489,60 -927,284 -1258,615 -206,205 -370,452 -479,727 1335,0 2671,0 4006,0 -109,-275 -273,-522 -479,-727 -331,-331 -769,-555 -1258,-615 0,329 0,658 0,987 l 1119,0 c -35,-42 -72,-83 -111,-122 -184,-183 -406,-327 -654,-418 l 0,363 -177,0 c 0,-200 0,-400 0,-600 368,85 698,272 956,530 126,126 235,269 323,425 -544,0 -1089,0 -1633,0 0,-453 0,-905 0,-1357 z m -532,3660 c 0,200 0,400 0,600 -368,-85 -698,-272 -956,-530 -126,-126 -235,-269 -323,-425 l 147,0 60,0 1426,0 c 0,453 0,905 0,1357 -609,-23 -1158,-279 -1560,-682 -282,-281 -492,-634 -600,-1029 1499,0 2999,0 4498,0 -108,395 -318,748 -600,1029 -402,403 -951,659 -1560,682 0,-452 0,-904 0,-1357 544,0 1089,0 1633,0 -88,156 -197,299 -323,425 -258,258 -588,445 -956,530 0,-200 0,-400 0,-600 l 177,0 0,363 c 248,-91 470,-235 654,-418 39,-39 76,-80 111,-122 l -1119,0 c 0,329 0,658 0,987 489,-60 927,-284 1258,-615 206,-205 370,-452 479,-727 -1335,0 -2671,0 -4006,0 109,275 273,522 479,727 331,331 769,555 1258,615 0,-329 0,-658 0,-987 l -1119,0 c 35,42 72,83 111,122 184,183 406,327 654,418 l 0,-363 177,0 z m -1848,-886 c -11,-58 -20,-117 -27,-177 284,0 568,0 851,0 l 0,-177 c -169,0 -339,0 -509,0 -2,-30 -2,-59 -2,-89 0,-30 0,-59 2,-89 1317,0 2635,0 3952,0 2,30 2,59 2,89 0,30 0,59 -2,89 -170,0 -340,0 -509,0 l 0,177 c 283,0 567,0 851,0 -7,60 -16,119 -27,177 -1527,0 -3055,0 -4582,0 z m 1002,-177 2578,0 0,-177 -2578,0 0,177 z m 3580,-709 c 27,143 42,292 42,443 0,30 -1,59 -2,89 l -177,0 c 1,-30 2,-59 2,-89 0,-90 -6,-179 -17,-266 -1426,0 -2852,0 -4278,0 -11,87 -17,176 -17,266 0,30 1,59 2,89 l -177,0 c -1,-30 -2,-59 -2,-89 0,-151 15,-300 42,-443 1527,0 3055,0 4582,0 z"
       id="path4472"
       inkscape:connector-curvature="0"
       style="fill:#ffff00;fill-rule:nonzero" /><path
       class="fil4"
       d="m -777,13975 c 26,8 63,16 112,22 l 394,52 c 2,-1 13,-11 32,-31 24,-24 38,-36 42,-36 11,2 27,17 47,46 20,28 30,44 29,49 -1,9 -7,13 -18,11 l -284,-37 -32,249 109,14 c 3,-1 14,-11 33,-31 25,-24 38,-35 42,-35 11,2 26,16 46,45 21,28 30,45 30,51 -1,8 -7,12 -18,10 l -245,-32 -39,298 187,24 c 2,0 13,-11 33,-31 24,-23 37,-35 41,-34 11,1 27,16 47,44 20,28 30,45 29,50 -1,9 -7,12 -17,11 l -610,-80 c -48,-6 -81,-10 -101,-10 l -9,-33 c 26,8 63,15 113,21 l 203,27 39,-298 -120,-16 c -46,-6 -80,-9 -100,-10 l -9,-33 c 26,7 63,14 112,21 l 120,16 32,-249 -161,-21 c -47,-6 -80,-10 -100,-10 l -9,-34 z m 377,401 c 61,26 102,52 125,76 19,23 27,48 24,75 -2,12 -9,24 -22,34 -8,7 -18,10 -31,9 -16,-2 -29,-19 -37,-50 -10,-44 -32,-88 -67,-132 l 8,-12 z m 786,-428 c 33,-1 66,-1 98,2 19,-2 30,1 31,10 0,3 -5,9 -16,15 -11,8 -16,15 -16,22 l 9,62 184,-24 c 2,-1 9,-13 22,-36 16,-28 26,-43 30,-43 10,-1 29,9 54,30 26,21 39,34 40,39 1,9 -4,14 -14,15 l -594,78 c -44,6 -81,13 -109,22 l -18,-38 c 50,0 96,-2 137,-8 l 184,-24 -8,-55 c -2,-22 -7,-45 -14,-67 z m -166,222 c 34,4 68,12 104,22 l 301,-39 c 10,-13 19,-23 27,-33 7,-8 14,-12 20,-13 6,-1 21,4 44,14 29,14 43,24 44,30 1,7 -6,15 -19,24 -11,8 -15,16 -14,24 l 7,58 c 3,22 8,52 15,89 2,10 -10,18 -34,25 -11,4 -19,6 -24,7 -13,2 -20,-5 -22,-21 l -3,-19 -122,16 32,239 c 5,39 -7,66 -34,81 -25,15 -44,24 -57,26 -9,1 -16,-7 -23,-23 -11,-24 -44,-40 -99,-50 l 1,-13 c 39,-1 71,-3 98,-7 21,-2 31,-11 29,-26 l -28,-217 -133,18 3,19 c 1,9 -10,17 -33,25 -10,3 -17,5 -22,6 -15,2 -24,-5 -26,-20 -1,-25 -3,-50 -6,-74 l -9,-66 c -4,-35 -10,-69 -17,-102 z m 108,190 335,-44 -18,-142 -336,44 19,142 z m -20,75 c 23,8 43,16 61,24 24,7 36,15 37,21 1,8 -4,13 -15,15 -13,2 -20,5 -22,10 -19,30 -39,57 -62,82 -25,29 -68,62 -127,97 l -9,-12 c 33,-35 61,-71 85,-111 27,-46 44,-88 52,-126 z m 315,-26 c 61,10 112,24 152,42 54,23 83,51 88,85 2,14 -1,26 -7,35 -10,13 -20,20 -32,22 -12,1 -25,-7 -39,-26 -19,-25 -45,-53 -77,-83 -16,-16 -46,-37 -90,-65 l 5,-10 z"
       id="path4474"
       inkscape:connector-curvature="0"
       style="fill:#e2001a;fill-rule:nonzero" /><circle
       class="fil3"
       cy="11000"
       r="3898"
       id="circle4476"
       cx="0"
       style="fill:none" /></g></svg>