<?xml version="1.0" encoding="UTF-8" standalone="no"?>
<!-- Created with Inkscape (http://www.inkscape.org/) -->

<svg
   xmlns:dc="http://purl.org/dc/elements/1.1/"
   xmlns:cc="http://creativecommons.org/ns#"
   xmlns:rdf="http://www.w3.org/1999/02/22-rdf-syntax-ns#"
   xmlns:svg="http://www.w3.org/2000/svg"
   xmlns="http://www.w3.org/2000/svg"
   xmlns:xlink="http://www.w3.org/1999/xlink"
   xmlns:sodipodi="http://sodipodi.sourceforge.net/DTD/sodipodi-0.dtd"
   xmlns:inkscape="http://www.inkscape.org/namespaces/inkscape"
   id="svg3094"
   sodipodi:docname="hyper-cube-red_mod.svg"
   viewBox="0 0 120 120"
   version="1.1"
   inkscape:version="0.91 r13725">
  <defs
     id="defs3096">
    <radialGradient
       id="radialGradient4058"
       xlink:href="#linearGradient3054"
       gradientUnits="userSpaceOnUse"
       cy="730.17"
       cx="316.07"
       gradientTransform="matrix(.59604 -.80295 1.4623 1.0855 -940.08 189.33)"
       r="14.689"
       inkscape:collect="always" />
    <filter
       id="filter4044"
       color-interpolation-filters="sRGB"
       inkscape:collect="always">
      <feGaussianBlur
         id="feGaussianBlur4046"
         stdDeviation="1.0060264"
         inkscape:collect="always" />
    </filter>
    <radialGradient
       id="radialGradient4050"
       xlink:href="#linearGradient3054"
       gradientUnits="userSpaceOnUse"
       cy="730.17"
       cx="316.07"
       gradientTransform="matrix(.39736 .91766 -1.6713 .72367 1492.9 -231.28)"
       r="14.689"
       inkscape:collect="always" />
    <linearGradient
       id="linearGradient3054">
      <stop
         id="stop3056"
         style="stop-color:#ffffff"
         offset="0" />
      <stop
         id="stop3058"
         style="stop-color:#ffffff;stop-opacity:0"
         offset="1" />
    </linearGradient>
    <radialGradient
       id="radialGradient4038"
       xlink:href="#linearGradient3054"
       gradientUnits="userSpaceOnUse"
       cy="730.17"
       cx="316.07"
       gradientTransform="matrix(.59604 -.80295 1.4623 1.0855 -864.11 58.978)"
       r="14.689"
       inkscape:collect="always" />
    <filter
       id="filter3991"
       inkscape:collect="always"
       color-interpolation-filters="sRGB">
      <feGaussianBlur
         id="feGaussianBlur3993"
         stdDeviation="1.1616594"
         inkscape:collect="always" />
    </filter>
    <linearGradient
       id="linearGradient4004"
       y2="628.94"
       xlink:href="#linearGradient3054"
       gradientUnits="userSpaceOnUse"
       x2="401.99"
       gradientTransform="translate(14.593 -6.3366)"
       y1="637.8"
       x1="417.33"
       inkscape:collect="always" />
    <filter
       id="filter4006"
       inkscape:collect="always"
       color-interpolation-filters="sRGB">
      <feGaussianBlur
         id="feGaussianBlur4008"
         stdDeviation="0.9509691"
         inkscape:collect="always" />
    </filter>
    <filter
       id="filter4006-7"
       color-interpolation-filters="sRGB"
       inkscape:collect="always">
      <feGaussianBlur
         id="feGaussianBlur4008-3"
         stdDeviation="0.9509691"
         inkscape:collect="always" />
    </filter>
    <linearGradient
       id="linearGradient4027"
       y2="636.02"
       xlink:href="#linearGradient3054"
       gradientUnits="userSpaceOnUse"
       y1="650.2"
       gradientTransform="translate(48.348 -43.541)"
       x2="383.57"
       x1="395.85"
       inkscape:collect="always" />
    <filter
       id="filter4006-3"
       color-interpolation-filters="sRGB"
       inkscape:collect="always">
      <feGaussianBlur
         id="feGaussianBlur4008-1"
         stdDeviation="0.9509691"
         inkscape:collect="always" />
    </filter>
    <linearGradient
       id="linearGradient4067"
       y2="625.39"
       xlink:href="#linearGradient3054"
       gradientUnits="userSpaceOnUse"
       y1="646.65"
       gradientTransform="translate(-3.0686 -72.638)"
       x2="401.99"
       x1="395.85"
       inkscape:collect="always" />
    <filter
       id="filter4006-3-9"
       color-interpolation-filters="sRGB"
       inkscape:collect="always">
      <feGaussianBlur
         id="feGaussianBlur4008-1-6"
         stdDeviation="0.9509691"
         inkscape:collect="always" />
    </filter>
    <filter
       id="filter4006-7-7"
       color-interpolation-filters="sRGB"
       inkscape:collect="always">
      <feGaussianBlur
         id="feGaussianBlur4008-3-5"
         stdDeviation="0.9509691"
         inkscape:collect="always" />
    </filter>
    <linearGradient
       id="linearGradient4147"
       y2="636.02"
       gradientUnits="userSpaceOnUse"
       y1="637.8"
       gradientTransform="translate(-39.892 -30.118)"
       x2="389.71"
       x1="380.51"
       inkscape:collect="always">
      <stop
         id="stop3056-7"
         style="stop-color:#ffffff"
         offset="0" />
      <stop
         id="stop3058-8"
         style="stop-color:#ffffff;stop-opacity:0"
         offset="1" />
    </linearGradient>
    <filter
       id="filter4006-35"
       color-interpolation-filters="sRGB"
       inkscape:collect="always">
      <feGaussianBlur
         id="feGaussianBlur4008-2"
         stdDeviation="0.9509691"
         inkscape:collect="always" />
    </filter>
    <linearGradient
       id="linearGradient4187"
       y2="632.48"
       gradientUnits="userSpaceOnUse"
       y1="623.62"
       gradientTransform="translate(-46.029 1.7717)"
       x2="408.12"
       x1="405.05"
       inkscape:collect="always">
      <stop
         id="stop3056-6"
         style="stop-color:#ffffff"
         offset="0" />
      <stop
         id="stop3058-6"
         style="stop-color:#ffffff;stop-opacity:0"
         offset="1" />
    </linearGradient>
  </defs>
  <sodipodi:namedview
     id="base"
     bordercolor="#666666"
     inkscape:pageshadow="2"
     inkscape:window-y="-8"
     fit-margin-left="0"
     pagecolor="#ffffff"
     fit-margin-top="0"
     inkscape:window-maximized="1"
     inkscape:zoom="6.1020358"
     inkscape:window-x="-8"
     inkscape:window-height="1017"
     showgrid="false"
     borderopacity="1.0"
     inkscape:current-layer="svg3094"
     inkscape:cx="27.447986"
     inkscape:cy="54.173563"
     fit-margin-right="0"
     fit-margin-bottom="0"
     inkscape:window-width="1920"
     inkscape:pageopacity="0.0"
     inkscape:document-units="px">
    <inkscape:grid
       id="grid3953"
       enabled="true"
       visible="true"
       snapvisiblegridlinesonly="true"
       units="mm"
       type="axonomgrid"
       empspacing="5" />
  </sodipodi:namedview>
  <g
     id="layer1"
     inkscape:label="Layer 1"
     inkscape:groupmode="layer"
     transform="translate(-336.8 -534.49)">
    <path
       id="path3766-7"
       style="stroke:#000000;stroke-width:1px;fill:#ffffff"
       inkscape:connector-curvature="0"
       d="m367.48 611.97 30.686 17.717v-35.433l-30.686-17.717z" />
    <path
       id="path3768-2"
       style="stroke-linejoin:round;stroke:#000000;stroke-width:1.5;fill:#ffffff"
       inkscape:connector-curvature="0"
       d="m398.17 629.69v17.717l-46.029-26.575 15.343-8.8583z" />
    <path
       id="path3770-1"
       style="stroke-linejoin:round;stroke:#000000;stroke-width:1.5;fill:#ffffff"
       inkscape:connector-curvature="0"
       d="m367.48 611.97v-35.433l-15.343-8.8583v53.15z" />
    <path
       id="path3772-4"
       style="stroke-linejoin:round;stroke:#000000;stroke-width:1.5;fill:#ffffff"
       inkscape:connector-curvature="0"
       d="m367.48 576.54 30.686 17.717 30.686-17.717-30.686-17.717z" />
    <path
       id="path3774-4"
       style="stroke-linejoin:round;stroke:#000000;stroke-width:1.5;fill:#ffffff"
       inkscape:connector-curvature="0"
       d="m398.17 629.69 30.686-17.717v-35.433l-30.686 17.717z" />
    <path
       id="path3776-8"
       style="stroke-linejoin:round;stroke:#000000;stroke-width:1.5;fill:#ffffff"
       inkscape:connector-curvature="0"
       d="m398.17 629.69v17.717l46.029-26.575-15.343-8.8583z" />
    <path
       id="path3778-4"
       style="stroke-linejoin:round;stroke:#000000;stroke-width:1.5;fill:#ffffff"
       inkscape:connector-curvature="0"
       d="m428.85 611.97v-35.433l15.343-8.8583v53.15z" />
    <path
       id="path3780-9"
       style="stroke-linejoin:round;stroke:#000000;stroke-width:1.5;fill:#ffffff"
       inkscape:connector-curvature="0"
       d="m428.85 576.54l-30.686-17.717v-17.717l46.029 26.575z" />
    <path
       id="path3782-8"
       style="stroke-linejoin:round;stroke:#000000;stroke-width:1.5;fill:#ffffff"
       inkscape:connector-curvature="0"
       d="m367.48 576.54-15.343-8.8583 46.029-26.575v17.717z" />
    <path
       id="path3784-44"
       style="stroke:#d10000;stroke-width:2;fill:#ff0c0c"
       inkscape:connector-curvature="0"
       d="m401.24 546.42v10.63l27.617 15.945 9.2058-5.315z" />
    <path
       id="path3786-19"
       sodipodi:nodetypes="ccccc"
       d="m398.17 562.36-24.549 14.173 24.549 14.173 24.549-14.173z"
       style="stroke:#d10000;stroke-width:2;fill:#ff0c0c"
       inkscape:connector-curvature="0" />
    <path
       id="path3786-0-6"
       sodipodi:nodetypes="ccccc"
       d="m425.78 581.85-24.549 14.173v28.346l24.549-14.173z"
       style="stroke:#d10000;stroke-width:2;fill:#ff0d0d"
       inkscape:connector-curvature="0" />
    <path
       id="path3786-1-8"
       sodipodi:nodetypes="ccccc"
       d="m441.13 572.99-9.2058 5.315v31.89l9.2058 5.315z"
       style="stroke:#d10000;stroke-width:2;fill:#ff0c0c"
       inkscape:connector-curvature="0" />
    <path
       id="path3786-1-5-0"
       sodipodi:nodetypes="ccccc"
       d="m438.06 620.83-9.2058-5.315-27.617 15.945v10.63z"
       style="stroke:#d10000;stroke-width:2;fill:#ff0d0d"
       inkscape:connector-curvature="0" />
    <path
       id="path3786-0-4-9"
       sodipodi:nodetypes="ccccc"
       d="m370.55 581.85 24.549 14.173v28.346l-24.549-14.173z"
       style="stroke:#d10000;stroke-width:2;fill:#ff0d0d"
       inkscape:connector-curvature="0" />
    <path
       id="path3786-1-9-3"
       sodipodi:nodetypes="ccccc"
       d="m355.21 572.99 9.2058 5.315v31.89l-9.2058 5.315z"
       style="stroke:#d10000;stroke-width:2;fill:#ff0d0d"
       inkscape:connector-curvature="0" />
    <path
       id="path3786-1-5-7-6"
       sodipodi:nodetypes="ccccc"
       d="m358.28 567.68 9.2058 5.315 27.617-15.945v-10.63z"
       style="stroke:#d10000;stroke-width:2;fill:#ff0d0d"
       inkscape:connector-curvature="0" />
    <path
       id="path3784-4-3"
       style="stroke:#d10000;stroke-width:2;fill:#ff0d0d"
       inkscape:connector-curvature="0"
       d="m395.1 642.09v-10.63l-27.617-15.945-9.2058 5.315z" />
  </g>
  <g
     id="layer2"
     inkscape:label="Effects"
     inkscape:groupmode="layer"
     transform="translate(-336.8 -534.49)">
    <path
       id="path4048"
       sodipodi:nodetypes="ccccc"
       d="m422.72 576.54-24.549 14.173-24.549-14.173 24.549-14.173z"
       style="opacity:.7;filter:url(#filter3991);stroke:#0085d1;fill:url(#radialGradient4050)"
       inkscape:connector-curvature="0" />
    <path
       id="path4056"
       style="opacity:.7;filter:url(#filter4044);stroke:#0085d1;fill:url(#radialGradient4058)"
       d="m294.59 712.2 24.549 14.173v28.346l-24.549-14.173z"
       sodipodi:nodetypes="ccccc"
       transform="matrix(-1 0 0 1 720.37 -130.35)"
       inkscape:connector-curvature="0" />
    <path
       id="path3992"
       sodipodi:nodetypes="ccccc"
       inkscape:connector-curvature="0"
       style="opacity:.7;filter:url(#filter4044);stroke:#0085d1;fill:url(#radialGradient4038)"
       d="m370.55 581.85 24.549 14.173v28.346l-24.549-14.173z" />
    <path
       id="path3995"
       sodipodi:nodetypes="ccccc"
       inkscape:connector-curvature="0"
       style="opacity:.7;filter:url(#filter4006);stroke:#0085d1;fill:url(#linearGradient4004)"
       d="m438.06 620.83-9.2058-5.315-27.617 15.945v10.63z" />
    <path
       id="path3995-3"
       sodipodi:nodetypes="ccccc"
       inkscape:connector-curvature="0"
       style="opacity:.7;filter:url(#filter4006-7);stroke:#0085d1;fill:url(#linearGradient4027)"
       d="m441.13 572.99-9.2058 5.315v31.89l9.2058 5.315z" />
    <path
       id="path3995-9"
       style="opacity:.7;filter:url(#filter4006-3);stroke:#0085d1;fill:url(#linearGradient4067)"
       d="m420.4 554.53-9.2058-5.315-27.617 15.945v10.63z"
       sodipodi:nodetypes="ccccc"
       inkscape:connector-curvature="0"
       transform="matrix(1 0 0 -1 17.662 1122.2)" />
    <path
       id="path3995-9-1"
       style="opacity:.7;filter:url(#filter4006-3-9);stroke:#0085d1;fill:url(#linearGradient4067)"
       d="m420.4 554.53-9.2058-5.315-27.617 15.945v10.63z"
       sodipodi:nodetypes="ccccc"
       inkscape:connector-curvature="0"
       transform="matrix(-1 0 0 -1 778.67 1122.2)" />
    <path
       id="path3995-3-2"
       style="opacity:.7;filter:url(#filter4006-7-7);stroke:#0085d1;fill:url(#linearGradient4147)"
       d="m352.89 586.42-9.2058 5.315v31.89l9.2058 5.315z"
       sodipodi:nodetypes="ccccc"
       inkscape:connector-curvature="0"
       transform="matrix(-1 0 0 1 708.1 -13.423)" />
    <path
       id="path3995-37"
       style="opacity:.7;filter:url(#filter4006-35);stroke:#0085d1;fill:url(#linearGradient4187)"
       d="m377.44 628.94-9.2058-5.315-27.617 15.945v10.63z"
       sodipodi:nodetypes="ccccc"
       inkscape:connector-curvature="0"
       transform="matrix(-1 0 0 1 735.71 -8.1083)" />
  </g>
  <metadata
     id="metadata66">
    <rdf:RDF>
      <cc:Work>
        <dc:format>image/svg+xml</dc:format>
        <dc:type
           rdf:resource="http://purl.org/dc/dcmitype/StillImage" />
        <cc:license
           rdf:resource="http://creativecommons.org/licenses/publicdomain/" />
        <dc:publisher>
          <cc:Agent
             rdf:about="http://openclipart.org/">
            <dc:title>Openclipart</dc:title>
          </cc:Agent>
        </dc:publisher>
        <dc:title></dc:title>
        <dc:date>2011-06-05T18:09:14</dc:date>
        <dc:description>A red hyper cube.</dc:description>
        <dc:source>https://openclipart.org/detail/142603/hyper-cube-red-by-bnielsen</dc:source>
        <dc:creator>
          <cc:Agent>
            <dc:title>bnielsen</dc:title>
          </cc:Agent>
        </dc:creator>
        <dc:subject>
          <rdf:Bag>
            <rdf:li>3D</rdf:li>
            <rdf:li>3D Cube</rdf:li>
            <rdf:li>Cube</rdf:li>
            <rdf:li>Hyper Cube</rdf:li>
            <rdf:li>Red</rdf:li>
          </rdf:Bag>
        </dc:subject>
      </cc:Work>
      <cc:License
         rdf:about="http://creativecommons.org/licenses/publicdomain/">
        <cc:permits
           rdf:resource="http://creativecommons.org/ns#Reproduction" />
        <cc:permits
           rdf:resource="http://creativecommons.org/ns#Distribution" />
        <cc:permits
           rdf:resource="http://creativecommons.org/ns#DerivativeWorks" />
      </cc:License>
    </rdf:RDF>
  </metadata>
  <path
     style="fill:#b3b3b3"
     d="m 16.17306,59.704344 0,-25.06659 3.154685,1.825384 c 1.735077,1.003961 4.777094,2.762104 6.760039,3.906985 l 3.605354,2.0816 0,17.317714 0,17.317712 -6.637129,3.837916 c -3.650421,2.110853 -6.692439,3.839704 -6.760039,3.841892 -0.0676,0.0022 -0.12291,-11.275988 -0.12291,-25.062613 z m 1.608601,22.953838 c 0.151809,-0.08041 0.534127,-0.185999 0.849595,-0.234648 0.918272,-0.14161 1.802677,-0.440948 1.802677,-0.610137 0,-0.0859 0.06731,-0.156178 0.149576,-0.156178 0.08227,0 0.542517,-0.258782 1.022779,-0.575072 0.480262,-0.316291 1.021356,-0.621214 1.202432,-0.677608 0.181076,-0.05639 0.366102,-0.153523 0.411169,-0.215841 0.04507,-0.06232 1.091767,-0.685329 2.326,-1.384463 1.234233,-0.699134 2.432604,-1.445889 2.663046,-1.659456 l 0.418985,-0.388301 -0.0055,-16.928408 c -0.0051,-15.756109 -0.02494,-16.951105 -0.28679,-17.256167 -0.393848,-0.458835 -3.268831,-2.277134 -4.337361,-2.743187 -0.247868,-0.108111 -0.450669,-0.245197 -0.450669,-0.304635 0,-0.05944 -0.239674,-0.205011 -0.532609,-0.323497 -0.292935,-0.118485 -0.569482,-0.258262 -0.614549,-0.310616 -0.323533,-0.375845 -2.721356,-1.548788 -3.523414,-1.723547 -0.540803,-0.117836 -1.112334,-0.266687 -1.270068,-0.330781 -0.272326,-0.110657 -0.28679,1.045593 -0.28679,22.926101 0,12.673451 0.04172,23.042636 0.09271,23.042636 0.05099,0 0.21692,-0.06579 0.368729,-0.146195 z"
     id="path3394"
     inkscape:connector-curvature="0" />
  <path
     style="fill:#b3b3b3"
     d="M 59.977095,111.16173 C 59.688106,110.98552 50.101142,105.44604 38.67273,98.851769 27.244317,92.257496 17.698655,86.741944 17.460148,86.594987 l -0.433649,-0.267195 6.833752,-3.936926 6.833752,-3.936925 14.938625,8.607498 14.938626,8.607497 0.0066,7.907194 c 0.0036,4.34896 -0.01183,7.90693 -0.03436,7.90659 -0.02253,-3.3e-4 -0.277415,-0.14478 -0.566402,-0.32099 z m -0.539785,-2.28046 c 0,-0.2594 0.11258,-0.74107 0.250177,-1.07039 0.206942,-0.49528 0.247845,-1.4659 0.236675,-5.61638 -0.01675,-6.224336 0.06915,-5.943604 -2.289529,-7.481956 -0.58587,-0.38211 -1.489082,-0.913206 -2.007137,-1.180214 -0.518057,-0.267008 -0.942095,-0.540779 -0.942308,-0.608379 -1.64e-4,-0.0676 -0.07275,-0.12291 -0.161201,-0.12291 -0.08844,0 -1.139323,-0.56357 -2.335286,-1.252377 -3.686163,-2.123025 -5.042155,-2.905345 -7.336688,-4.232794 -8.19436,-4.740659 -12.598789,-7.258383 -12.995179,-7.428494 -0.25211,-0.108192 -0.73889,-0.196714 -1.081734,-0.196714 -1.035726,0 -1.148323,0.05287 -5.809247,2.72777 -0.526929,0.302404 -1.024714,0.549825 -1.106189,0.549825 -0.08147,0 -0.148136,0.06878 -0.148136,0.152836 0,0.08406 -0.15646,0.202495 -0.347689,0.263189 -0.675976,0.214546 -2.749877,1.630556 -2.913234,1.989086 -0.09109,0.19993 -0.349922,0.484265 -0.575172,0.631854 l -0.409546,0.268345 0.955416,0.982464 c 0.52548,0.540355 1.130456,1.076392 1.344392,1.191193 1.422458,0.763312 2.389503,1.312458 2.601352,1.477203 0.135201,0.105139 0.430184,0.279768 0.655519,0.388064 0.225334,0.108296 0.66781,0.354507 0.983278,0.547137 0.315469,0.192629 0.979182,0.571094 1.474918,0.841033 0.495736,0.26994 1.011957,0.576823 1.147158,0.681962 0.135201,0.105139 0.430184,0.282088 0.655519,0.393219 0.225334,0.111131 0.557191,0.29161 0.737459,0.401064 0.180267,0.109454 0.907648,0.530573 1.616401,0.93582 0.708753,0.405246 1.556831,0.899182 1.884617,1.097634 0.327786,0.198452 0.707669,0.419689 0.844184,0.491639 0.349141,0.184013 2.587084,1.470788 3.275205,1.883183 0.315469,0.189062 0.979182,0.564608 1.474918,0.834548 0.495736,0.269939 1.011957,0.576822 1.147158,0.681962 0.135201,0.105139 0.430184,0.279768 0.655519,0.388064 0.225335,0.108295 0.66781,0.354508 0.983278,0.547134 0.315469,0.19263 0.979182,0.5711 1.474918,0.84104 0.495736,0.26994 1.011957,0.57682 1.147158,0.68196 0.135201,0.10514 0.430184,0.28209 0.655519,0.39322 0.225335,0.11113 0.557191,0.29161 0.737459,0.40106 0.180267,0.10945 0.880853,0.51566 1.556857,0.90267 0.676004,0.38702 1.450336,0.83719 1.720737,1.00038 0.270402,0.1632 0.74975,0.4419 1.065219,0.61933 1.300548,0.73148 2.743773,1.5685 3.359534,1.94841 0.360536,0.22244 0.766138,0.4545 0.901339,0.51569 0.135201,0.0612 0.791547,0.43365 1.458546,0.82768 0.770743,0.45532 1.487464,0.74837 1.966557,0.80406 0.414607,0.0482 0.823889,0.15352 0.909516,0.23407 0.312745,0.29417 0.581773,0.14379 0.581773,-0.32519 z"
     id="path3396"
     inkscape:connector-curvature="0" />
  <path
     style="fill:#b3b3b3"
     d="M 23.761081,37.098772 17.009626,33.19446 37.834115,21.167449 C 49.287584,14.552593 59.092636,8.8936375 59.62312,8.5919934 l 0.964516,-0.5484438 -0.04256,7.9136604 -0.04255,7.913659 -14.831116,8.567855 c -8.157114,4.712321 -14.904862,8.567069 -14.994995,8.566108 -0.09013,-9.83e-4 -3.202035,-1.758688 -6.915336,-3.90606 z m 8.319922,2.440468 c 1.135669,-0.535363 2.02921,-1.011045 2.118828,-1.127972 0.04507,-0.0588 0.266304,-0.200511 0.491639,-0.314913 0.225335,-0.114401 0.557191,-0.297556 0.737459,-0.40701 0.180268,-0.109453 0.917726,-0.525278 1.638797,-0.924055 0.721071,-0.398777 1.347911,-0.767216 1.392978,-0.818753 0.08868,-0.101409 0.412153,-0.290275 1.802677,-1.052529 0.495736,-0.271752 1.233195,-0.700732 1.638797,-0.95329 0.405603,-0.252559 0.99557,-0.589366 1.311038,-0.748459 0.315469,-0.159092 0.598161,-0.34457 0.628205,-0.41217 0.03005,-0.0676 0.11469,-0.12291 0.188101,-0.12291 0.07341,0 0.601922,-0.282757 1.174472,-0.628349 0.572549,-0.345593 1.4466,-0.849432 1.942336,-1.119641 1.355336,-0.738752 1.712607,-0.946752 1.802677,-1.049496 0.06798,-0.07755 2.054393,-1.209449 5.098788,-2.905401 1.221247,-0.680325 1.376469,-0.772731 1.456401,-0.867016 0.04507,-0.05316 0.735235,-0.458697 1.533706,-0.901199 1.631872,-0.904358 2.465092,-1.716173 2.715361,-2.645599 0.09815,-0.364505 0.1743,-2.724886 0.180593,-5.597915 0.0092,-4.221127 -0.02725,-5.025854 -0.242833,-5.35488 -0.139541,-0.21297 -0.253713,-0.619651 -0.253713,-0.903736 0,-0.460928 -0.03968,-0.503975 -0.36873,-0.399972 -0.202801,0.0641 -0.700585,0.168967 -1.106188,0.233038 -0.405602,0.06407 -0.930599,0.223027 -1.16666,0.353236 -0.23606,0.13021 -0.752281,0.412765 -1.147158,0.627901 -0.394876,0.215135 -1.026228,0.602301 -1.403004,0.860368 -0.376774,0.258067 -0.717613,0.469213 -0.757419,0.469213 -0.07888,0 -2.199904,1.19977 -4.784964,2.706643 -1.829322,1.066342 -2.693286,1.563322 -5.080272,2.92234 -0.901338,0.513173 -1.749416,1.001524 -1.884616,1.085226 -0.93146,0.576657 -2.851436,1.643658 -2.95762,1.643658 -0.07083,0 -0.153364,0.06017 -0.183409,0.133719 -0.03004,0.07355 -0.644593,0.460421 -1.365664,0.859722 -0.721071,0.399302 -1.430093,0.80004 -1.575605,0.890529 -0.145513,0.09049 -0.587988,0.346344 -0.983279,0.568565 -0.395291,0.222221 -0.866203,0.496795 -1.04647,0.610165 -0.180268,0.113369 -0.58587,0.327006 -0.901339,0.474749 -0.315468,0.147742 -0.610452,0.315643 -0.655519,0.373113 -0.07844,0.100029 -0.419648,0.308436 -1.311038,0.800773 -0.225334,0.124459 -0.684498,0.38744 -1.020364,0.584402 -0.335866,0.196962 -0.999579,0.569166 -1.474918,0.827121 -0.475339,0.257953 -0.974871,0.557114 -1.110072,0.664801 -0.1352,0.107685 -0.430184,0.284398 -0.655519,0.392695 -0.225334,0.108295 -0.66781,0.35407 -0.983278,0.546167 -0.315469,0.192097 -0.905436,0.533894 -1.311038,0.759551 -0.405602,0.22566 -0.921823,0.531459 -1.147158,0.679556 -0.225335,0.148098 -0.630937,0.377229 -0.901339,0.509182 -0.661332,0.322722 -1.52749,1.063363 -2.162263,1.848926 -0.107639,0.133208 -0.288531,0.273136 -0.401982,0.310955 -0.182521,0.06084 1.633095,2.095086 1.869917,2.095086 0.07192,0 1.593014,0.869788 2.578945,1.474682 0.284831,0.174751 2.138858,1.235876 2.886413,1.651997 1.112065,0.619022 1.295594,0.727907 1.37446,0.815441 0.04507,0.05002 0.40398,0.240037 0.797585,0.422256 0.992822,0.45963 2.088105,0.481471 2.983258,0.05949 z"
     id="path3402"
     inkscape:connector-curvature="0" />
  <path
     style="fill:#b3b3b3"
     d="M 84.920608,36.989692 C 81.134986,34.789439 74.481276,30.941819 70.134585,28.439423 l -7.903074,-4.54981 -0.0041,-7.920563 -0.0041,-7.920563 0.532609,0.3243031 C 63.25125,8.6744218 81.522082,19.22715 98.192553,28.840038 c 3.964617,2.286162 7.263527,4.211798 7.330927,4.27919 0.13056,0.130561 -13.023763,7.794169 -13.461219,7.842401 -0.142287,0.01569 -3.356031,-1.771684 -7.141653,-3.971937 z m 9.363393,2.126423 c 0.798968,-0.413473 1.563289,-0.843803 1.698489,-0.956287 0.135201,-0.112486 0.485494,-0.299356 0.778429,-0.41527 0.292935,-0.115912 0.532609,-0.266948 0.532609,-0.335635 0,-0.06869 0.129055,-0.167212 0.28679,-0.218945 0.157734,-0.05173 0.581773,-0.277755 0.942308,-0.50227 0.713074,-0.444051 1.050358,-0.636626 2.294314,-1.309953 0.77076,-0.417194 1.72074,-1.27614 1.72074,-1.55584 0,-0.06934 0.18612,-0.225684 0.41361,-0.34743 l 0.41361,-0.221359 -0.45541,-0.420883 c -0.25047,-0.231486 -0.61146,-0.621561 -0.80221,-0.866833 -0.3215,-0.413413 -3.011593,-2.094187 -3.351759,-2.094187 -0.08303,0 -0.150955,-0.0648 -0.150955,-0.143997 0,-0.0792 -0.239674,-0.238837 -0.532609,-0.354749 -0.292935,-0.115914 -0.643228,-0.298891 -0.778429,-0.406614 -0.135201,-0.107723 -0.651422,-0.415051 -1.147158,-0.68295 -1.318812,-0.712699 -1.710958,-0.940465 -1.802677,-1.047028 -0.04507,-0.05236 -0.561288,-0.354551 -1.147158,-0.671532 -0.58587,-0.316981 -1.323329,-0.730064 -1.638797,-0.917961 -0.315469,-0.187897 -0.936401,-0.538244 -1.379848,-0.77855 -0.443449,-0.240305 -0.909628,-0.540277 -1.035954,-0.666604 -0.126327,-0.126327 -0.291652,-0.229685 -0.367391,-0.229685 -0.19711,0 -5.973382,-3.32797 -6.038999,-3.479339 -0.03005,-0.06931 -0.112579,-0.126015 -0.18341,-0.126015 -0.194458,0 -2.867536,-1.527725 -2.930305,-1.674737 -0.03005,-0.07037 -0.114274,-0.12794 -0.187175,-0.12794 -0.205322,0 -2.864944,-1.515667 -2.926541,-1.667779 -0.03004,-0.07419 -0.115142,-0.134898 -0.189106,-0.134898 -0.141224,0 -0.977692,-0.46419 -3.689381,-2.047386 -3.187267,-1.860859 -6.622174,-3.811518 -6.914545,-3.926722 -0.16289,-0.06418 -0.628019,-0.174709 -1.033622,-0.245612 -0.405602,-0.0709 -0.866514,-0.183279 -1.024248,-0.249725 -0.229705,-0.09676 -0.28679,-0.0377 -0.28679,0.29675 0,0.229658 -0.06709,0.459025 -0.149091,0.509705 -0.384505,0.237636 -0.538233,2.437429 -0.48164,6.892088 0.06156,4.845491 0.06092,4.841303 0.876551,5.729311 0.477304,0.519657 1.511434,1.18395 4.096993,2.631785 1.261874,0.706612 2.33119,1.32681 2.376256,1.378217 0.08001,0.09127 0.241151,0.186849 1.4564,0.863833 3.044396,1.695952 5.030809,2.827855 5.09879,2.905401 0.04507,0.05141 0.257971,0.192588 0.473121,0.313732 0.215151,0.121141 0.639189,0.360815 0.942309,0.532609 l 1.102252,0.624696 c 0.303121,0.171794 0.727159,0.411468 0.942309,0.532609 0.215151,0.121143 0.428055,0.257252 0.473122,0.302462 0.04507,0.04521 0.303178,0.192585 0.573579,0.327499 0.270402,0.134914 0.528513,0.287581 0.57358,0.339262 0.04507,0.05168 0.671906,0.419353 1.392977,0.817052 0.721071,0.397698 1.532276,0.855334 1.802677,1.016967 0.270402,0.161634 0.620695,0.337338 0.778429,0.390451 0.157734,0.05311 0.28679,0.153708 0.28679,0.223542 0,0.06984 0.276547,0.24691 0.614549,0.3935 0.338002,0.14659 0.909532,0.449993 1.270068,0.674228 0.360535,0.224235 0.913629,0.549003 1.229098,0.721706 0.315468,0.172703 0.905435,0.498668 1.311037,0.724368 1.197825,0.666535 2.118408,0.591182 3.873422,-0.317058 z"
     id="path3404"
     inkscape:connector-curvature="0" />
  <path
     style="fill:#b3b3b3"
     d="m 99.710816,80.93742 -6.841917,-3.950773 -6.2e-5,-17.219807 -6.2e-5,-17.219808 6.841979,-3.947267 6.841976,-3.947268 0.042,12.617242 c 0.0231,6.939482 0.0231,18.242514 0,25.117848 l -0.042,12.500606 -6.841914,-3.950773 z m 5.612824,-21.175679 c 0,-21.882392 -0.0144,-23.036519 -0.28679,-22.921155 -0.15774,0.06681 -0.58178,0.170902 -0.94231,0.231307 -0.75692,0.126816 -2.37626,0.823635 -2.37626,1.02253 0,0.07407 -0.10535,0.134667 -0.23411,0.134667 -0.12877,0 -0.33501,0.100889 -0.45832,0.224199 -0.1233,0.123309 -0.38625,0.275632 -0.58431,0.338495 -0.19806,0.06286 -0.455587,0.201647 -0.572273,0.30841 -0.246599,0.225628 -0.621515,0.447577 -2.0841,1.233783 -0.58587,0.314932 -1.102091,0.615445 -1.147158,0.667806 -0.04507,0.05236 -0.413796,0.273876 -0.819398,0.492255 -0.405603,0.218379 -0.958697,0.609869 -1.229098,0.869978 l -0.49164,0.472926 -0.04325,16.689461 c -0.02772,10.696147 0.01486,16.842304 0.118572,17.115084 0.206999,0.544446 0.874278,0.974701 6.397923,4.1253 0.76614,0.436993 1.42985,0.834546 1.47492,0.883453 0.24272,0.263389 1.65501,0.795737 2.0082,0.756967 0.22589,-0.0248 0.58548,0.05181 0.79908,0.170235 0.21361,0.118427 0.40681,0.217935 0.42935,0.221127 0.0225,0.0032 0.041,-10.363377 0.041,-23.036828 z"
     id="path3406"
     inkscape:connector-curvature="0" />
  <path
     style="fill:#b3b3b3"
     d=""
     id="path3408"
     inkscape:connector-curvature="0" />
  <path
     style="fill:#b3b3b3"
     d="M 57.470753,56.556916 C 55.442741,55.379502 49.174341,51.760223 43.540976,48.514074 37.90761,45.267926 33.09074,42.485433 32.836821,42.330757 l -0.461672,-0.281227 14.14563,-8.16262 c 7.780096,-4.489441 14.295528,-8.25998 14.478736,-8.378977 0.302949,-0.196769 1.629615,0.531997 14.653391,8.049426 7.876157,4.54618 14.387679,8.333178 14.470051,8.41555 0.09044,0.09044 -0.455903,0.495664 -1.379131,1.022913 -0.840897,0.480228 -7.312225,4.213289 -14.380732,8.295689 -7.068508,4.0824 -12.931306,7.418858 -13.028439,7.414352 -0.09713,-0.0045 -1.83589,-0.971534 -3.863902,-2.148947 z m 4.769028,0.994302 c 0.673487,-0.217088 1.998998,-0.842084 2.117256,-0.998316 0.0469,-0.06196 0.26814,-0.189623 0.491639,-0.283693 0.223501,-0.09407 0.775094,-0.396929 1.225763,-0.673018 0.450669,-0.27609 0.948454,-0.544194 1.106188,-0.595788 0.157734,-0.05159 0.28679,-0.151738 0.28679,-0.222543 0,-0.0708 0.202801,-0.207566 0.450669,-0.303916 0.247868,-0.09635 0.745653,-0.360891 1.106188,-0.587866 0.360536,-0.226977 0.803011,-0.48594 0.983279,-0.575474 0.180267,-0.08954 0.622743,-0.34358 0.983278,-0.564546 0.629496,-0.385807 1.480376,-0.861484 2.703891,-1.511589 0.315401,-0.167585 0.610385,-0.349649 0.655519,-0.404584 0.08522,-0.10373 1.845571,-1.109928 2.70414,-1.545662 0.270402,-0.137233 0.712877,-0.394809 0.983279,-0.572394 0.270401,-0.177583 0.712876,-0.435694 0.983278,-0.573579 0.270401,-0.137883 0.712877,-0.395994 0.983278,-0.573579 0.270402,-0.177583 0.712877,-0.435694 0.983279,-0.573579 0.270401,-0.137884 0.712877,-0.393956 0.983278,-0.56905 0.528219,-0.342038 1.723777,-1.016313 3.235874,-1.824977 0.517857,-0.276947 1.144697,-0.75937 1.392978,-1.072049 0.248281,-0.312679 0.664342,-0.786269 0.924582,-1.052421 0.260237,-0.266152 0.444602,-0.508627 0.409699,-0.538833 -0.0349,-0.03021 -0.229391,-0.141252 -0.432192,-0.246765 -0.202801,-0.105514 -0.368729,-0.287577 -0.368729,-0.404585 0,-0.36592 -1.106388,-1.339318 -2.089106,-1.837991 -0.51795,-0.262829 -1.039391,-0.570055 -1.158755,-0.682722 -0.119363,-0.112667 -0.322376,-0.20485 -0.451139,-0.20485 -0.128762,0 -0.234114,-0.07234 -0.234114,-0.160757 0,-0.08842 -0.184365,-0.20703 -0.409699,-0.263586 -0.225335,-0.05655 -0.4097,-0.172931 -0.4097,-0.258613 0,-0.08568 -0.06539,-0.115372 -0.14531,-0.06598 -0.07992,0.04939 -0.236442,-0.02 -0.347827,-0.154208 -0.111382,-0.134209 -0.304103,-0.244016 -0.428267,-0.244016 -0.124165,0 -0.225754,-0.05635 -0.225754,-0.12522 0,-0.06887 -0.276547,-0.256331 -0.614549,-0.416578 -0.733942,-0.347961 -1.565926,-0.815254 -1.679767,-0.943458 -0.06404,-0.07213 -10.204535,-5.935458 -12.946499,-7.485794 -0.315468,-0.178369 -0.979181,-0.565638 -1.474917,-0.860598 -1.423989,-0.847264 -2.256066,-1.148418 -3.168273,-1.146693 -1.054913,0.002 -1.626985,0.264723 -5.517353,2.533893 -1.667477,0.972604 -3.363632,1.955282 -3.769234,2.18373 -0.405603,0.228447 -3.76104,2.160042 -7.456528,4.292431 -3.695488,2.132389 -7.014053,4.041124 -7.374588,4.241633 -0.360536,0.200509 -0.839884,0.586094 -1.065218,0.856857 -0.225335,0.270762 -0.620409,0.723256 -0.877944,1.005543 l -0.468243,0.513249 0.427273,0.311247 c 0.235001,0.171185 0.427274,0.400748 0.427274,0.510139 0,0.470089 1.481023,1.502564 5.244152,3.655888 2.208279,1.263613 4.125672,2.345925 4.260873,2.40514 0.135201,0.05922 0.467057,0.249173 0.737459,0.422131 0.270401,0.172959 0.860368,0.5126 1.311038,0.754758 0.450669,0.242157 0.919446,0.520994 1.041726,0.619636 0.256198,0.206671 0.446623,0.316839 1.858034,1.074946 0.568344,0.305274 1.070226,0.601759 1.115293,0.658854 0.04507,0.0571 0.266305,0.191864 0.491639,0.299482 0.388131,0.18537 1.346852,0.727951 2.622076,1.483948 0.315469,0.187021 0.942309,0.537643 1.392978,0.779159 0.450669,0.241518 0.930017,0.523054 1.065218,0.625636 0.335985,0.254923 0.857299,0.548748 2.25399,1.270399 1.572018,0.81224 2.197567,0.934796 3.170557,0.621169 z"
     id="path3410"
     inkscape:connector-curvature="0" />
  <path
     style="fill:#b3b3b3"
     d="m 62.223265,76.947555 0,-16.707952 11.512552,-6.645307 C 80.06772,49.939377 86.59423,46.170047 88.239173,45.218008 l 2.990805,-1.730982 0,16.755447 0,16.755445 -0.450669,0.258965 c -0.247868,0.142429 -6.676016,3.852642 -14.284775,8.244915 -7.608759,4.392276 -13.932468,8.023698 -14.052688,8.06983 -0.181307,0.06958 -0.218581,-2.765247 -0.218581,-16.624073 z m 1.730385,14.46572 c 0.174962,-0.132333 0.576222,-0.244289 0.891691,-0.248788 0.625424,-0.0089 0.526542,0.04263 5.98161,-3.118621 2.073079,-1.201366 4.432947,-2.565472 5.244152,-3.031344 0.811204,-0.465874 2.433614,-1.40101 3.605354,-2.078079 1.17174,-0.677071 3.384116,-1.953259 4.916392,-2.835976 4.980043,-2.868913 5.470384,-3.246209 5.810518,-4.470916 0.110163,-0.39666 0.169583,-5.374939 0.170178,-14.257713 7.88e-4,-11.762483 -0.03305,-13.72954 -0.244905,-14.23658 -0.135201,-0.323581 -0.24582,-0.80056 -0.24582,-1.059955 0,-0.531605 -0.07524,-0.557523 -0.655519,-0.225806 -0.225335,0.128813 -0.616637,0.236819 -0.869561,0.240013 -0.410225,0.0052 -2.20899,0.784686 -2.648003,1.147528 -0.09335,0.07715 -2.05025,1.223154 -4.348663,2.546666 -2.298413,1.323511 -4.418608,2.546852 -4.711543,2.718533 -0.292935,0.171682 -0.790719,0.459641 -1.106188,0.639909 -0.315468,0.180267 -0.850126,0.487298 -1.188128,0.68229 -0.338002,0.194992 -0.798914,0.460016 -1.024248,0.588943 -0.225335,0.128927 -0.704683,0.408859 -1.065218,0.622072 -0.360536,0.213213 -0.91363,0.526649 -1.229098,0.696526 -1.069381,0.575851 -5.977647,3.463608 -6.663859,3.920653 -0.375236,0.249922 -0.927707,0.813888 -1.227713,1.253256 l -0.545465,0.798851 0.01172,13.959497 c 0.01066,12.697251 0.03647,14.009102 0.285405,14.508111 0.150527,0.301738 0.273685,0.758524 0.273685,1.015077 0,0.5258 0.123455,0.573607 0.583227,0.225853 z"
     id="path3412"
     inkscape:connector-curvature="0" />
  <path
     style="fill:#b3b3b3"
     d="M 55.504196,90.860936 C 52.755114,89.262927 46.24704,85.497572 41.04181,82.493478 l -9.464055,-5.461987 0,-16.697185 c 0,-9.183452 0.04342,-16.697185 0.09649,-16.697185 0.07341,0 15.960008,9.140514 27.882831,16.04267 l 1.02111,0.591123 0.0031,16.756703 c 0.0017,9.216186 -0.01529,16.752673 -0.03783,16.747747 -0.02253,-0.0049 -2.290219,-1.31642 -5.039302,-2.914428 l 8e-6,0 z m 3.933114,0.326486 c 0,-0.256553 0.113462,-0.693901 0.252137,-0.971882 0.220123,-0.441249 0.256537,-2.270334 0.286789,-14.405625 0.03296,-13.219013 0.0198,-13.932327 -0.268457,-14.555723 -0.453066,-0.97982 -0.964546,-1.454814 -2.482846,-2.305724 -0.180267,-0.101029 -0.563885,-0.324157 -0.852484,-0.49584 -0.288599,-0.171683 -3.596152,-2.082052 -7.350119,-4.245264 -3.753966,-2.163213 -7.138576,-4.117478 -7.521354,-4.342813 -0.382778,-0.225335 -1.525167,-0.889048 -2.538642,-1.474918 -1.013475,-0.58587 -2.03873,-1.190789 -2.278344,-1.344266 -0.805184,-0.515731 -1.90507,-0.974914 -2.648039,-1.105508 -0.405602,-0.07129 -0.866514,-0.18399 -1.024248,-0.250436 -0.237519,-0.100056 -0.28679,-0.03334 -0.28679,0.388361 0,0.280045 -0.06416,0.509172 -0.142582,0.509172 -0.07842,0 -0.240038,0.348081 -0.359151,0.773513 -0.241313,0.861883 -0.264808,3.170161 -0.189549,18.622001 0.04335,8.899607 0.06503,9.517437 0.353721,10.078604 0.421641,0.819598 1.464061,1.731843 2.836284,2.482093 0.247624,0.135386 0.837591,0.457209 1.311038,0.715164 0.473446,0.257954 0.97143,0.557114 1.106631,0.664801 0.135201,0.107686 0.430185,0.285261 0.655519,0.394611 0.225335,0.109351 0.684499,0.363284 1.020365,0.564297 0.335866,0.201013 0.999579,0.576532 1.474918,0.834487 0.475338,0.257954 0.974871,0.557114 1.110071,0.664801 0.135201,0.107686 0.430185,0.286719 0.655519,0.39785 0.225335,0.111131 0.557191,0.29161 0.737459,0.401064 0.180268,0.109454 0.907648,0.530574 1.616402,0.935821 0.708753,0.405246 1.55683,0.899181 1.884616,1.097633 0.327787,0.198452 0.70767,0.41969 0.844184,0.491639 0.324418,0.170983 2.665029,1.513146 3.371836,1.933495 0.303117,0.180267 0.940035,0.538812 1.415373,0.796766 0.47534,0.257954 0.974872,0.557114 1.110072,0.664801 0.135201,0.107686 0.430185,0.284583 0.655519,0.393102 0.225335,0.10852 0.630937,0.341393 0.901339,0.517496 0.988483,0.643764 2.219354,1.172102 3.028717,1.300047 0.456059,0.07209 0.876847,0.178725 0.935081,0.23696 0.228203,0.228202 0.379015,0.08473 0.379015,-0.36058 z"
     id="path3414"
     inkscape:connector-curvature="0" />
</svg>
