<?xml version="1.0" encoding="UTF-8" standalone="no"?>
<!-- Creator: CorelDRAW X7 -->

<svg
   xmlns:dc="http://purl.org/dc/elements/1.1/"
   xmlns:cc="http://creativecommons.org/ns#"
   xmlns:rdf="http://www.w3.org/1999/02/22-rdf-syntax-ns#"
   xmlns:svg="http://www.w3.org/2000/svg"
   xmlns="http://www.w3.org/2000/svg"
   xmlns:sodipodi="http://sodipodi.sourceforge.net/DTD/sodipodi-0.dtd"
   xmlns:inkscape="http://www.inkscape.org/namespaces/inkscape"
   xml:space="preserve"
   width="7.8770003in"
   height="7.8770003in"
   version="1.1"
   style="clip-rule:evenodd;fill-rule:evenodd;image-rendering:optimizeQuality;shape-rendering:geometricPrecision;text-rendering:geometricPrecision"
   viewBox="0 0 7877.0003 7877.0003"
   id="svg3978"
   inkscape:version="0.91 r13725"
   sodipodi:docname="Mercs - WarCors - [N3] [Vyo].svg"><metadata
     id="metadata4110"><rdf:RDF><cc:Work
         rdf:about=""><dc:format>image/svg+xml</dc:format><dc:type
           rdf:resource="http://purl.org/dc/dcmitype/StillImage" /></cc:Work></rdf:RDF></metadata><sodipodi:namedview
     pagecolor="#ffffff"
     bordercolor="#666666"
     borderopacity="1"
     objecttolerance="10"
     gridtolerance="10"
     guidetolerance="10"
     inkscape:pageopacity="0"
     inkscape:pageshadow="2"
     inkscape:window-width="640"
     inkscape:window-height="480"
     id="namedview4108"
     showgrid="false"
     inkscape:zoom="0.23838384"
     inkscape:cx="736.96501"
     inkscape:cy="849.46505"
     inkscape:window-x="0"
     inkscape:window-y="0"
     inkscape:window-maximized="0"
     inkscape:current-layer="svg3978" /><defs
     id="defs3980"><style
       type="text/css"
       id="style3982"><![CDATA[
    .str0 {stroke:black;stroke-width:3}
    .fil4 {fill:none}
    .fil0 {fill:black}
    .fil7 {fill:black}
    .fil3 {fill:#EF7F01}
    .fil2 {fill:#FCB316}
    .fil5 {fill:#FEF1BC}
    .fil1 {fill:#FF7B00}
    .fil6 {fill:#FEF1BC;fill-rule:nonzero}
   ]]></style></defs><g
     id="Layer_x0020_1"
     transform="translate(3938.5,-7061.5)"><metadata
       id="CorelCorpID_0Corel-Layer" /><circle
       class="fil0 str0"
       cy="11000"
       r="3937"
       id="circle3986"
       cx="0"
       style="fill:#000000;stroke:#000000;stroke-width:3" /><g
       id="_879553008"><polygon
         class="fil1"
         points="-1996,14174 -2317,14042 -2505,13816 2486,8825 2486,9691 "
         id="polygon3989"
         style="fill:#ff7b00" /><polygon
         class="fil2"
         points="-1318,14174 -1996,14174 2486,9691 2486,10369 "
         id="polygon3991"
         style="fill:#fcb316" /><polygon
         class="fil1"
         points="-452,14174 -1318,14174 2486,10369 2486,11235 "
         id="polygon3993"
         style="fill:#ff7b00" /><polygon
         class="fil1"
         points="1092,14174 226,14174 2486,11913 2486,12780 "
         id="polygon3995"
         style="fill:#ff7b00" /><polygon
         class="fil1"
         points="2151,14174 1770,14174 2486,13458 2486,13871 "
         id="polygon3997"
         style="fill:#ff7b00" /><polygon
         class="fil2"
         points="226,14174 -452,14174 2486,11235 2486,11913 "
         id="polygon3999"
         style="fill:#fcb316" /><polygon
         class="fil2"
         points="1770,14174 1092,14174 2486,12780 2486,13458 "
         id="polygon4001"
         style="fill:#fcb316" /><polygon
         class="fil2"
         points="-2505,13816 -2505,13138 2486,8147 2486,8825 "
         id="polygon4003"
         style="fill:#fcb316" /><polygon
         class="fil2"
         points="-2505,12271 -2505,11593 1262,7826 1940,7826 "
         id="polygon4005"
         style="fill:#fcb316" /><polygon
         class="fil2"
         points="-2505,10727 -2505,10049 -283,7826 396,7826 "
         id="polygon4007"
         style="fill:#fcb316" /><polygon
         class="fil2"
         points="-2505,9183 -2505,8504 -1827,7826 -1149,7826 "
         id="polygon4009"
         style="fill:#fcb316" /><polygon
         class="fil1"
         points="2486,8147 -2505,13138 -2505,12271 1940,7826 2317,7883 "
         id="polygon4011"
         style="fill:#ff7b00" /><polygon
         class="fil1"
         points="-2505,11593 -2505,10727 396,7826 1262,7826 "
         id="polygon4013"
         style="fill:#ff7b00" /><polygon
         class="fil1"
         points="-2505,10049 -2505,9183 -1149,7826 -283,7826 "
         id="polygon4015"
         style="fill:#ff7b00" /><polygon
         class="fil3"
         points="-2505,8504 -2505,8147 -2154,7826 -1827,7826 "
         id="polygon4017"
         style="fill:#ef7f01" /></g><g
       id="Radial_x0020_grid_x0020__x0028_2.5_x0020_deg_x0029_"><path
         class="fil4"
         d="m -1752,11141 95,0 m 339,0 169,0 m 2336,0 131,0 m 302,0 37,0"
         id="path4020"
         inkscape:connector-curvature="0"
         style="fill:none" /><line
         class="fil4"
         x1="-1505"
         y1="11207"
         x2="-1392"
         y2="11202"
         id="line4022"
         style="fill:none" /><line
         class="fil4"
         x1="-1501"
         y1="11273"
         x2="-1389"
         y2="11263"
         id="line4024"
         style="fill:none" /><line
         class="fil4"
         x1="-1484"
         y1="11403"
         x2="-1373"
         y2="11383"
         id="line4026"
         style="fill:none" /><line
         class="fil4"
         x1="-1471"
         y1="11467"
         x2="-1361"
         y2="11443"
         id="line4028"
         style="fill:none" /><line
         class="fil4"
         x1="-1437"
         y1="11594"
         x2="-1330"
         y2="11560"
         id="line4030"
         style="fill:none" /><line
         class="fil4"
         x1="-1112"
         y1="11850"
         x2="-969"
         y2="11759"
         id="line4032"
         style="fill:none" /><line
         class="fil4"
         x1="-1195"
         y1="12059"
         x2="-1106"
         y2="11990"
         id="line4034"
         style="fill:none" /><line
         class="fil4"
         x1="812"
         y1="10329"
         x2="932"
         y2="10209"
         id="line4036"
         style="fill:none" /><line
         class="fil4"
         x1="697"
         y1="9934"
         x2="753"
         y2="9836"
         id="line4038"
         style="fill:none" /><line
         class="fil4"
         x1="-527"
         y1="12812"
         x2="-499"
         y2="12722"
         id="line4040"
         style="fill:none" /><line
         class="fil4"
         x1="302"
         y1="9780"
         x2="326"
         y2="9670"
         id="line4042"
         style="fill:none" /><line
         class="fil4"
         x1="242"
         y1="9768"
         x2="262"
         y2="9657"
         id="line4044"
         style="fill:none" /><line
         class="fil4"
         x1="121"
         y1="9753"
         x2="131"
         y2="9640"
         id="line4046"
         style="fill:none" /><line
         class="fil4"
         x1="61"
         y1="9749"
         x2="66"
         y2="9636"
         id="line4048"
         style="fill:none" /><line
         class="fil4"
         x1="0"
         y1="9992"
         x2="0"
         y2="9823"
         id="line4050"
         style="fill:none" /><line
         class="fil4"
         x1="0"
         y1="9992"
         x2="0"
         y2="9823"
         id="line4052"
         style="fill:none" /><line
         class="fil4"
         x1="-242"
         y1="9768"
         x2="-262"
         y2="9657"
         id="line4054"
         style="fill:none" /><line
         class="fil4"
         x1="285"
         y1="12429"
         x2="257"
         y2="12300"
         id="line4056"
         style="fill:none" /><line
         class="fil4"
         x1="-297"
         y1="10031"
         x2="-307"
         y2="9995"
         id="line4058"
         style="fill:none" /><line
         class="fil4"
         x1="609"
         y1="12311"
         x2="548"
         y2="12194"
         id="line4060"
         style="fill:none" /><line
         class="fil4"
         x1="1065"
         y1="12411"
         x2="1041"
         y2="12382"
         id="line4062"
         style="fill:none" /><line
         class="fil4"
         x1="891"
         y1="12113"
         x2="776"
         y2="11988"
         id="line4064"
         style="fill:none" /><line
         class="fil4"
         x1="-1176"
         y1="10392"
         x2="-1271"
         y2="10332"
         id="line4066"
         style="fill:none" /><line
         class="fil4"
         x1="-1237"
         y1="10498"
         x2="-1337"
         y2="10445"
         id="line4068"
         style="fill:none" /><line
         class="fil4"
         x1="-1263"
         y1="10552"
         x2="-1366"
         y2="10504"
         id="line4070"
         style="fill:none" /><line
         class="fil4"
         x1="-1532"
         y1="10507"
         x2="-1619"
         y2="10471"
         id="line4072"
         style="fill:none" /><line
         class="fil4"
         x1="-1310"
         y1="10664"
         x2="-1416"
         y2="10626"
         id="line4074"
         style="fill:none" /><line
         class="fil4"
         x1="-1330"
         y1="10722"
         x2="-1437"
         y2="10688"
         id="line4076"
         style="fill:none" /><line
         class="fil4"
         x1="1307"
         y1="11313"
         x2="1139"
         y2="11291"
         id="line4078"
         style="fill:none" /><path
         class="fil4"
         d="m 1657,11141 -37,0 m -302,0 -131,0 m -2336,0 -169,0 m -339,0 -95,0"
         id="path4080"
         inkscape:connector-curvature="0"
         style="fill:none" /></g><g
       id="_879083920"><path
         class="fil5"
         d="m 468,9453 c 59,16 118,36 174,58 l -34,88 0,0 c 18,7 35,14 53,22 l 0,0 38,-86 c 46,20 92,42 137,67 l -45,82 0,0 c 21,12 42,24 63,36 l 0,0 48,-80 c 44,26 86,54 128,84 l -56,76 0,0 c 24,17 47,35 69,53 l 0,0 59,-73 c 36,29 70,59 104,91 l -65,68 0,0 c 21,20 41,40 61,61 l 0,0 69,-64 c 31,33 61,67 90,103 l -73,59 0,0 c 21,26 42,53 61,81 l 0,0 77,-55 c 21,29 41,59 60,89 l -80,50 0,0 c 20,33 39,66 58,100 l 0,0 83,-44 c 16,31 32,63 47,96 l -85,39 -1,0 c 16,35 31,70 45,107 l 0,0 88,-33 c 11,28 21,57 30,86 l -90,29 0,0 c 14,45 27,92 37,140 l 0,-1 92,-20 c 6,25 11,50 15,75 l -93,16 0,0 c 9,48 15,95 19,144 l 0,0 94,-8 c 2,20 3,40 4,61 l -94,5 0,0 c 2,28 2,57 2,86 l -37,0 c 0,498 -225,944 -579,1241 l 0,0 24,29 c -119,100 -253,184 -397,248 l 0,0 38,86 c -216,95 -455,148 -706,148 -184,0 -361,-28 -527,-81 l 28,-90 1,0 c -82,-25 -160,-57 -235,-94 l 0,0 -42,84 c -115,-56 -222,-125 -321,-205 l 59,-73 0,0 c -76,-61 -145,-128 -209,-200 l 0,0 -71,62 c -67,-76 -128,-159 -181,-246 l 81,-49 0,0 c -38,-61 -71,-126 -100,-192 l 0,0 -87,38 c -95,-216 -148,-455 -148,-706 l 95,0 c 0,-224 44,-439 125,-634 l 0,0 -87,-36 c 134,-322 360,-595 646,-786 l 52,78 0,0 c 264,-176 580,-279 921,-279 153,0 302,21 443,60 l 0,0 25,-91 z M 0,9635 c 22,0 44,0 66,1 l -5,113 0,0 c -20,-1 -41,-1 -61,-1 -83,0 -164,7 -242,21 l 0,-1 -20,-111 c 85,-15 173,-22 262,-22 z m -1176,757 c -5,9 -10,17 -16,26 l 0,0 -96,-58 c 5,-10 11,-19 17,-28 l 95,60 0,0 z m -46,79 c -5,9 -10,18 -14,27 l -1,0 -100,-53 c 5,-9 11,-19 16,-29 l 99,55 0,0 z m -41,81 c -5,9 -9,19 -13,28 l 0,0 -103,-46 c 4,-10 9,-20 13,-30 l 103,48 0,0 z m -36,84 c -4,9 -8,19 -11,28 l 0,0 -106,-38 c 4,-11 7,-21 11,-31 l 106,41 0,0 z m -31,86 c -41,132 -64,273 -64,419 0,21 1,41 2,61 l 0,0 -113,5 c -1,-22 -2,-44 -2,-66 0,-158 25,-310 70,-453 l 107,34 0,0 z m -58,541 c 0,10 1,20 3,30 l -1,0 -112,12 c -1,-11 -2,-21 -3,-32 l 112,-10 1,0 z m 10,90 c 2,10 4,20 5,30 l 0,0 -111,20 c -2,-11 -4,-22 -5,-33 l 111,-17 0,0 z m 17,90 c 2,10 5,20 7,30 l 0,0 -110,26 c -2,-10 -5,-21 -7,-32 l 110,-24 0,0 z m 23,88 c 3,10 6,20 9,30 l -1,-1 -107,34 c -4,-10 -7,-21 -10,-31 l 109,-32 0,0 z m 232,459 c 131,170 300,309 495,404 l 0,0 -50,102 c -210,-103 -393,-254 -534,-438 l 89,-68 0,0 z m 652,469 c 8,3 16,5 24,8 l -1,0 -35,107 c -8,-2 -16,-5 -25,-8 l 37,-107 0,0 z m 164,45 c 12,3 24,6 36,8 l 0,0 -21,111 c -13,-3 -25,-5 -38,-8 l 23,-110 0,-1 z m 180,27 c 17,1 33,2 49,3 l 0,0 -5,112 c -17,0 -35,-1 -52,-3 l 9,-112 -1,0 z m 183,2 c 20,-1 41,-2 61,-4 l 0,0 10,112 c -21,2 -43,4 -65,5 l -6,-113 0,0 z m 169,-19 c 24,-4 48,-9 72,-14 l 0,0 25,110 c -26,6 -51,11 -77,15 l -20,-111 0,0 z m 177,-43 c 23,-8 46,-15 69,-24 l 0,0 40,106 c -25,9 -50,18 -75,26 l -34,-108 0,0 z m 159,-61 c 26,-12 51,-25 76,-38 l 0,0 53,100 c -27,14 -54,28 -82,41 l -47,-103 0,0 z m 160,-87 c 28,-17 55,-35 81,-54 l 0,0 67,91 c -29,21 -58,40 -88,59 l -59,-96 -1,0 z m 148,-106 c 29,-24 56,-48 82,-73 l 0,0 79,81 c -29,27 -58,54 -89,79 l -71,-87 -1,0 z m 125,-116 c 28,-30 54,-60 80,-92 l 0,0 88,70 c -27,34 -56,68 -86,99 l -82,-77 0,0 z m 109,-131 c 29,-39 56,-79 81,-122 l 0,1 97,57 c -26,45 -56,89 -87,131 l -91,-67 0,0 z m 247,-557 c 18,-88 27,-179 27,-272 0,-243 -63,-471 -172,-670 l 0,0 99,-55 c 118,215 186,463 186,725 0,101 -10,199 -29,294 l -111,-22 0,0 z M 131,9640 c 11,1 22,2 33,3 l -12,113 0,0 c -10,-1 -20,-2 -31,-3 l 0,0 10,-113 z m 98,12 c 11,2 22,3 33,5 l -20,111 0,1 c -10,-2 -20,-4 -30,-5 l 0,0 17,-112 z m 97,18 c 11,2 22,5 32,7 l -27,110 0,0 c -9,-2 -19,-5 -29,-7 l 0,0 24,-110 z m 96,24 c 117,34 228,82 331,142 l -56,98 0,0 C 601,9879 498,9834 390,9803 l 0,0 32,-109 z M 0,9823 c 364,0 694,147 932,386 l -120,120 C 604,10121 317,9992 0,9992 l 0,-169 z m 1015,703 c 109,179 172,390 172,615 l 131,0 c 0,59 -3,116 -11,172 l -168,-22 0,0 0,0 0,0 c 7,-49 10,-99 10,-150 0,-218 -61,-422 -167,-596 l 0,0 33,-19 z m 234,1039 c -38,110 -89,214 -153,309 l -141,-94 0,0 c 56,-83 101,-173 133,-269 l 0,0 161,54 z m -358,548 c -85,78 -180,144 -282,198 l -61,-117 0,0 c -91,47 -188,83 -291,106 l 0,0 28,129 c -92,20 -187,31 -285,31 -271,0 -523,-82 -733,-222 l 74,-110 0,0 c -71,-47 -136,-102 -194,-163 l 27,-26 -1,0 c 209,217 502,351 827,351 299,0 572,-114 776,-302 l 0,0 26,28 0,0 89,97 z m -2003,-263 c -131,-205 -206,-448 -206,-709 l 169,0 c 0,227 66,439 180,618 l 0,0 -143,91 z m 815,-1819 c -372,99 -669,380 -791,741 l 0,0 -36,-12 c 127,-373 434,-663 817,-765 l 10,36 0,0 z"
         id="path4083"
         inkscape:connector-curvature="0"
         style="fill:#fef1bc" /><path
         class="fil0"
         d="m 0,10143 0,998 998,0 c 0,552 -447,998 -998,998 l 0,-998 -998,0 c 0,-551 447,-998 998,-998 z"
         id="path4085"
         inkscape:connector-curvature="0"
         style="fill:#000000" /></g><g
       id="_879085360"><path
         class="fil0"
         d="m -2279,9371 4558,0 0,-998 c 0,-188 -152,-339 -339,-339 l -3880,0 c -187,0 -339,151 -339,339 l 0,998 z"
         id="path4088"
         inkscape:connector-curvature="0"
         style="fill:#000000" /><path
         class="fil6"
         d="m -1986,8986 180,0 0,-147 357,0 c 31,0 57,-6 78,-16 22,-11 39,-26 52,-44 12,-18 22,-38 27,-60 6,-22 9,-45 9,-68 l 0,-51 c 0,-30 -3,-58 -10,-82 -6,-24 -17,-45 -33,-63 -16,-18 -38,-31 -65,-41 -28,-10 -63,-15 -105,-15 l -490,0 0,587 z m 180,-441 264,0 c 27,0 46,6 57,16 11,11 17,26 17,47 l 0,22 c 0,19 -5,34 -14,46 -10,11 -24,17 -44,17 l -280,0 0,-148 z"
         id="path4090"
         inkscape:connector-curvature="0"
         style="fill:#fef1bc;fill-rule:nonzero" /><path
         id="1"
         class="fil6"
         d="m -1006,8545 281,0 c 31,0 52,4 64,12 13,9 19,25 19,50 l 0,19 c 0,22 -5,38 -15,47 -11,10 -28,15 -51,15 l -298,0 0,-143 z m -180,441 180,0 0,-152 283,0 c 28,0 47,6 58,18 10,12 16,33 16,64 l 0,70 180,0 0,-99 c 0,-24 -3,-43 -8,-59 -5,-16 -11,-29 -20,-38 -9,-9 -19,-16 -31,-21 -11,-6 -24,-9 -39,-12 l 0,-2 c 39,-9 66,-25 79,-47 14,-23 21,-55 21,-97 l 0,-37 c 0,-28 -3,-52 -8,-73 -6,-21 -16,-39 -29,-55 -13,-15 -31,-26 -54,-34 -22,-9 -51,-13 -85,-13 l -543,0 0,587 z"
         inkscape:connector-curvature="0"
         style="fill:#fef1bc;fill-rule:nonzero" /><polygon
         id="2"
         class="fil6"
         points="-165,8845 -165,8751 272,8751 272,8630 -165,8630 -165,8536 297,8536 297,8399 -345,8399 -345,8986 307,8986 307,8845 "
         style="fill:#fef1bc;fill-rule:nonzero" /><path
         id="3"
         class="fil6"
         d="m 405,8835 c 0,32 5,58 13,78 9,21 22,37 40,48 18,11 42,20 70,24 28,5 64,8 107,8 l 218,0 c 63,0 113,-3 150,-7 36,-5 65,-13 86,-26 21,-13 35,-31 44,-54 8,-24 12,-56 12,-97 0,-43 -5,-77 -14,-102 -10,-24 -27,-42 -51,-55 -25,-12 -58,-20 -100,-24 -43,-4 -102,-7 -179,-7 -51,0 -91,0 -119,-1 -28,-1 -49,-4 -62,-7 -14,-4 -23,-9 -27,-15 -5,-6 -7,-16 -7,-28 0,-16 6,-27 18,-34 12,-8 29,-12 50,-12 l 200,0 c 38,0 63,4 72,13 10,8 15,24 15,48 l 180,0 0,-19 c 0,-29 -2,-54 -7,-74 -5,-20 -15,-38 -30,-52 -15,-15 -38,-27 -68,-35 -31,-8 -72,-12 -122,-12 l -251,0 c -55,0 -98,5 -131,14 -32,9 -56,22 -71,38 -15,17 -25,35 -29,56 -4,21 -6,48 -6,80 0,39 3,69 10,91 7,22 20,39 40,52 20,12 49,21 88,26 39,5 94,8 164,8 65,0 113,0 144,1 30,1 53,4 69,7 16,3 27,8 32,15 5,7 8,17 8,31 0,21 -7,34 -21,40 -13,6 -32,9 -56,9 l -221,0 c -29,0 -49,-3 -60,-11 -11,-8 -17,-27 -18,-56 l -180,0 0,41 z"
         inkscape:connector-curvature="0"
         style="fill:#fef1bc;fill-rule:nonzero" /><path
         id="4"
         class="fil6"
         d="m 1246,8835 c 0,32 4,58 13,78 8,21 22,37 40,48 18,11 41,20 70,24 28,5 64,8 106,8 l 218,0 c 64,0 114,-3 150,-7 37,-5 66,-13 87,-26 20,-13 35,-31 43,-54 9,-24 13,-56 13,-97 0,-43 -5,-77 -15,-102 -9,-24 -26,-42 -51,-55 -24,-12 -57,-20 -100,-24 -42,-4 -102,-7 -179,-7 -51,0 -90,0 -118,-1 -28,-1 -49,-4 -63,-7 -14,-4 -23,-9 -27,-15 -4,-6 -6,-16 -6,-28 0,-16 6,-27 18,-34 12,-8 29,-12 50,-12 l 199,0 c 39,0 63,4 73,13 10,8 15,24 15,48 l 180,0 0,-19 c 0,-29 -3,-54 -8,-74 -5,-20 -14,-38 -29,-52 -15,-15 -38,-27 -69,-35 -31,-8 -71,-12 -121,-12 l -252,0 c -54,0 -98,5 -130,14 -33,9 -56,22 -71,38 -16,17 -25,35 -29,56 -4,21 -6,48 -6,80 0,39 3,69 10,91 7,22 20,39 40,52 19,12 49,21 88,26 39,5 93,8 163,8 66,0 114,0 144,1 31,1 54,4 70,7 16,3 26,8 31,15 6,7 8,17 8,31 0,21 -7,34 -20,40 -14,6 -33,9 -57,9 l -220,0 c -30,0 -50,-3 -61,-11 -11,-8 -17,-27 -17,-56 l -180,0 0,41 z"
         inkscape:connector-curvature="0"
         style="fill:#fef1bc;fill-rule:nonzero" /><rect
         class="fil0"
         x="-2279"
         y="13100"
         width="942"
         height="377"
         id="rect4096"
         style="fill:#000000" /><rect
         class="fil0"
         x="1337"
         y="13100"
         width="942"
         height="377"
         id="rect4098"
         style="fill:#000000" /><rect
         class="fil0"
         x="-1074"
         y="13100"
         width="942"
         height="377"
         id="rect4100"
         style="fill:#000000" /><rect
         class="fil0"
         x="132"
         y="13100"
         width="942"
         height="377"
         id="rect4102"
         style="fill:#000000" /><path
         class="fil0"
         d="m -2279,13552 4558,0 0,75 c 0,188 -152,339 -339,339 l -3880,0 c -187,0 -339,-151 -339,-339 l 0,-75 z"
         id="path4104"
         inkscape:connector-curvature="0"
         style="fill:#000000" /></g><path
       class="fil7"
       d="m 2580,8373 0,5254 c 0,354 -287,641 -640,641 l -3880,0 c -353,0 -640,-287 -640,-641 l 0,-5254 c 0,-354 287,-641 640,-641 l 3880,0 c 353,0 640,287 640,641 z m -150,678 0,3427 0,1149 c 0,271 -220,490 -490,490 l -3880,0 c -270,0 -490,-219 -490,-490 l 0,-1149 0,-3427 0,-678 c 0,-271 220,-490 490,-490 l 3880,0 c 270,0 490,219 490,490 l 0,226 0,452 z"
       id="path4106"
       inkscape:connector-curvature="0"
       style="fill:#000000" /></g></svg>