<?xml version="1.0" encoding="UTF-8"?>
<!DOCTYPE svg PUBLIC "-//W3C//DTD SVG 1.1//EN" "http://www.w3.org/Graphics/SVG/1.1/DTD/svg11.dtd">
<!-- Creator: CorelDRAW X7 -->
<svg xmlns="http://www.w3.org/2000/svg" xml:space="preserve" width="8.5in" height="11in" version="1.1" style="shape-rendering:geometricPrecision; text-rendering:geometricPrecision; image-rendering:optimizeQuality; fill-rule:evenodd; clip-rule:evenodd"
viewBox="0 0 8500 11000"
 xmlns:xlink="http://www.w3.org/1999/xlink">
 <defs>
  <style type="text/css">
   <![CDATA[
    .fil0 {fill:black}
    .fil3 {fill:#940008}
    .fil1 {fill:#940008;fill-rule:nonzero}
    .fil2 {fill:white;fill-rule:nonzero}
   ]]>
  </style>
 </defs>
 <g id="Layer_x0020_1">
  <metadata id="CorelCorpID_0Corel-Layer"/>
  <circle class="fil0" cy="11000" r="3937"/>
  <path class="fil1" d="M1048 13685l212 -283 0 0 -827 0 0 -1654 236 276 0 1141 827 0 0 315 -260 346 -188 -141zm-2229 -5283l0 629 512 0 0 -275 236 0 0 275 354 0 0 237 -354 0 0 1023 -236 0 0 -1023 -512 0 0 748 -236 0 0 -1614 236 0zm1575 236l1141 0 0 236 -1141 0 0 -236zm0 354l1378 0 0 236 -220 0 -827 1024 -331 0 0 -236 219 0 636 -788 -855 0 0 -236zm-1811 2953l1338 0 0 395 -927 1180 -411 0 0 -237 297 0 805 -1024 0 -78 -1102 0 0 -236z"/>
  <path class="fil2" d="M-301 11274l0 -179 469 -369 153 0 0 548 0 153 -231 178 0 -146 116 -91 0 -94 -507 0zm-2684 0l-112 0 0 -548 623 0 0 120 -511 0 0 428zm698 -428l0 307 392 -307 -392 0zm512 305l0 123 -623 0 0 -548 623 0 0 178 -323 247 323 0zm187 123l0 -430 396 307 0 123 116 0 0 -181 -467 -367 -156 0 0 548 111 0zm699 -428l0 307 392 -307 -392 0zm512 305l0 123 -623 0 0 -548 623 0 0 178 -323 247 323 0zm1262 0l0 -305 -396 305 396 0zm-29 -425l144 0 0 548 -623 0 0 -179 479 -369zm220 548l0 -179 512 -402 0 -120 111 0 0 701 -623 0zm507 -123l0 -305 -396 305 396 0zm303 -305l0 307 392 -307 -392 0zm512 305l0 123 -623 0 0 -548 623 0 0 178 -323 247 323 0zm76 -425l623 0 0 120 -512 0 0 94 512 0 0 334 -623 0 0 -123 507 0 0 -95 -507 0 0 -330zm-2268 425l0 -305 -396 305 396 0z"/>
  <path class="fil3" d="M0 7299c884,0 1695,310 2331,827l-541 0c-519,-324 -1133,-512 -1790,-512 -657,0 -1271,188 -1790,512l-541 0c636,-517 1447,-827 2331,-827zm2874 1370c517,636 827,1447 827,2331 0,884 -310,1695 -827,2331l0 -541c324,-519 512,-1133 512,-1790 0,-657 -188,-1271 -512,-1790l0 -541zm-543 5205c-636,517 -1447,827 -2331,827 -884,0 -1695,-310 -2331,-827l541 0c519,324 1133,512 1790,512 657,0 1271,-188 1790,-512l541 0zm-5205 -543c-517,-636 -827,-1447 -827,-2331 0,-884 310,-1695 827,-2331l0 541c-324,519 -512,1133 -512,1790 0,657 188,1271 512,1790l0 541z"/>
 </g>
</svg>
