<?xml version="1.0" encoding="UTF-8" standalone="no"?>
<!-- Creator: CorelDRAW X7 -->

<svg
   xmlns:dc="http://purl.org/dc/elements/1.1/"
   xmlns:cc="http://creativecommons.org/ns#"
   xmlns:rdf="http://www.w3.org/1999/02/22-rdf-syntax-ns#"
   xmlns:svg="http://www.w3.org/2000/svg"
   xmlns="http://www.w3.org/2000/svg"
   xmlns:sodipodi="http://sodipodi.sourceforge.net/DTD/sodipodi-0.dtd"
   xmlns:inkscape="http://www.inkscape.org/namespaces/inkscape"
   xml:space="preserve"
   width="7.8740005in"
   height="7.8740005in"
   version="1.1"
   style="clip-rule:evenodd;fill-rule:evenodd;image-rendering:optimizeQuality;shape-rendering:geometricPrecision;text-rendering:geometricPrecision"
   viewBox="0 0 7874.0005 7874.0005"
   id="svg3569"
   inkscape:version="0.91 r13725"
   sodipodi:docname="Other - Red-K Combat Group - [N3] [Vyo].svg"><metadata
     id="metadata3629"><rdf:RDF><cc:Work
         rdf:about=""><dc:format>image/svg+xml</dc:format><dc:type
           rdf:resource="http://purl.org/dc/dcmitype/StillImage" /></cc:Work></rdf:RDF></metadata><sodipodi:namedview
     pagecolor="#ffffff"
     bordercolor="#666666"
     borderopacity="1"
     objecttolerance="10"
     gridtolerance="10"
     guidetolerance="10"
     inkscape:pageopacity="0"
     inkscape:pageshadow="2"
     inkscape:window-width="640"
     inkscape:window-height="480"
     id="namedview3627"
     showgrid="false"
     inkscape:zoom="0.23838384"
     inkscape:cx="736.83001"
     inkscape:cy="849.33005"
     inkscape:window-x="0"
     inkscape:window-y="0"
     inkscape:window-maximized="0"
     inkscape:current-layer="svg3569" /><defs
     id="defs3571"><style
       type="text/css"
       id="style3573"><![CDATA[
    .fil6 {fill:none}
    .fil0 {fill:#009FE1}
    .fil3 {fill:#426D9A}
    .fil1 {fill:#E2001A}
    .fil2 {fill:white}
    .fil4 {fill:white}
    .fil5 {fill:red;fill-rule:nonzero}
   ]]></style></defs><g
     id="Layer_x0020_1"
     transform="translate(3937,-7063)"><metadata
       id="CorelCorpID_0Corel-Layer" /><circle
       class="fil0"
       cy="11000"
       r="3937"
       id="circle3577"
       cx="0"
       style="fill:#009fe1" /><circle
       class="fil1"
       cy="11000"
       r="2992"
       id="circle3579"
       cx="0"
       style="fill:#e2001a" /><circle
       class="fil2"
       cy="11000"
       r="2874"
       id="circle3581"
       cx="0"
       style="fill:#ffffff" /><circle
       class="fil3"
       cy="11000"
       r="2756"
       id="circle3583"
       cx="0"
       style="fill:#426d9a" /><path
       class="fil2"
       d="m 1166,10471 c 68,8 137,23 200,50 20,9 40,20 59,31 1,1 2,2 3,2 33,-37 77,-72 122,-99 -119,-52 -214,-142 -267,-266 -5,-11 -5,-23 1,-33 5,-11 14,-18 25,-21 167,-42 364,87 484,201 105,-13 267,103 336,157 65,50 133,110 185,173 33,39 92,116 48,166 -12,13 -26,23 -43,29 -35,11 -71,2 -104,-11 -16,-6 -31,-13 -46,-19 -6,-2 -18,-8 -23,-8 -35,0 -72,5 -107,10 -34,6 -69,13 -103,19 -27,5 -57,10 -84,10 -19,7 -68,59 -82,74 -47,52 -92,108 -135,164 -41,51 -80,104 -121,156 -16,21 -33,42 -50,62 -12,15 -25,31 -39,44 -21,22 -43,34 -73,39 -13,2 -23,2 -35,8 -124,62 -199,150 -264,270 -26,47 -48,96 -75,142 -25,43 -54,84 -96,112 -35,22 -73,32 -114,32 -46,0 -88,-18 -116,-54 -48,-61 -39,-146 5,-206 11,-14 28,-19 44,-14 17,5 27,20 27,37 0,10 2,21 5,31 2,6 8,24 15,28 10,-6 20,-41 23,-51 10,-39 14,-84 16,-125 0,-13 0,-27 0,-40 0,-39 12,-82 22,-120 5,-19 19,-65 21,-97 -46,-1 -88,-4 -133,-12 -12,31 -30,58 -51,88 -25,35 -48,65 -56,109 -3,13 -3,28 -4,42 -1,22 -2,45 -2,67 0,57 1,115 2,172 2,81 5,162 5,243 0,22 5,44 14,64 26,58 93,117 154,134 181,53 359,111 537,171 51,16 102,34 154,48 25,7 59,16 85,16 113,0 219,34 272,140 5,10 5,20 2,31 -4,10 -11,18 -21,23 -112,49 -209,59 -328,34 -41,-8 -81,-19 -121,-29 -80,-19 -167,-29 -249,-38 -68,-8 -136,-16 -204,-26 -57,-9 -113,-16 -170,-23 -42,-6 -84,-10 -126,-17 -58,-8 -121,-20 -168,-56 -44,-35 -69,-86 -89,-137 -14,-35 -25,-72 -37,-108 -15,-49 -29,-98 -44,-147 -54,-180 -142,-571 -327,-654 -227,-102 -432,-270 -586,-465 -1,-1 -3,-4 -5,-6 -6,3 -14,10 -17,12 -27,23 -56,44 -84,65 -43,32 -87,63 -132,92 -114,77 -233,148 -356,210 -151,75 -346,154 -517,154 -175,0 -348,-61 -485,-170 -124,-101 -219,-243 -241,-403 -5,-40 -6,-80 -2,-120 2,-18 15,-31 32,-35 18,-3 35,6 43,22 92,185 217,328 440,323 454,-10 912,-522 1170,-856 256,-330 616,-611 1051,-611 201,0 391,135 531,268 97,91 185,195 264,302 47,63 94,131 135,200 z"
       id="path3585"
       inkscape:connector-curvature="0"
       style="fill:#ffffff" /><path
       class="fil1"
       d="m -2461,10862 c -34,330 296,650 689,650 374,0 945,-414 1063,-512 43,-36 58,-27 79,0 130,164 326,342 571,453 202,90 287,474 349,679 142,472 97,383 602,460 141,22 329,34 456,65 133,32 246,75 424,-3 -40,-79 -118,-119 -237,-119 -93,0 -315,-98 -787,-236 -78,-22 -197,-116 -197,-236 0,-138 -15,-451 0,-531 19,-102 99,-138 118,-237 79,20 138,20 197,20 20,59 -39,177 -39,256 0,119 -20,256 -79,256 -39,0 -59,-59 -59,-99 -62,84 -23,197 79,197 236,0 177,-374 531,-551 40,-20 59,0 99,-39 83,-83 374,-512 452,-512 59,0 197,-40 296,-40 39,0 137,79 187,23 62,-72 -415,-481 -552,-427 -108,-107 -305,-245 -462,-206 59,138 177,236 335,276 -84,30 -172,94 -217,157 -35,-19 -98,-78 -295,-98 -79,-138 -492,-768 -906,-768 -393,0 -745,242 -1019,597 -269,347 -733,860 -1201,871 -241,5 -378,-149 -477,-346 z"
       id="path3587"
       inkscape:connector-curvature="0"
       style="fill:#e2001a" /><polygon
       class="fil2"
       points="513,10571 553,10682 457,10614 381,10704 392,10587 276,10567 383,10517 342,10407 439,10474 514,10384 504,10501 619,10522 "
       id="polygon3589"
       style="fill:#ffffff" /><polygon
       class="fil2"
       points="43,10092 84,10203 -13,10135 -88,10225 -78,10108 -194,10088 -87,10038 -127,9928 -31,9995 44,9905 34,10022 150,10043 "
       id="polygon3591"
       style="fill:#ffffff" /><polygon
       class="fil2"
       points="288,11318 329,11429 233,11361 157,11451 167,11334 52,11314 158,11264 118,11154 214,11221 290,11131 279,11248 395,11268 "
       id="polygon3593"
       style="fill:#ffffff" /><polygon
       class="fil2"
       points="-310,10543 -270,10653 -366,10585 -442,10676 -431,10558 -547,10538 -440,10489 -481,10378 -385,10446 -309,10356 -319,10473 -204,10493 "
       id="polygon3595"
       style="fill:#ffffff" /><polygon
       class="fil2"
       points="-6,10839 23,10929 -53,10873 -130,10929 -100,10839 -177,10784 -82,10784 -53,10694 -24,10784 70,10784 "
       id="polygon3597"
       style="fill:#ffffff" /><g
       id="_878679600"><path
         class="fil4"
         d="m 2355,8298 c 12,-3 26,0 36,9 l 213,202 c 16,15 17,40 2,56 l -59,61 c -15,16 -40,17 -55,2 l -44,-42 -170,179 c -14,16 -39,16 -55,2 l -72,-69 c -16,-15 -17,-40 -2,-55 l 169,-179 -40,-38 c -3,-3 -6,-8 -8,-12 l -155,193 c -14,17 -39,20 -56,6 l -131,-105 c -13,-10 -18,-27 -13,-43 l 25,-76 -38,48 c -14,17 -39,19 -56,6 l -75,-61 c -17,-14 -20,-39 -6,-56 l 14,-17 c -1,0 -1,0 -1,0 -19,11 -40,16 -62,16 -23,0 -45,-6 -66,-13 -25,-10 -50,-22 -73,-36 -16,-9 -32,-18 -47,-29 -12,-9 -24,-18 -34,-29 -9,-10 -17,-22 -24,-35 -5,-11 -10,-22 -13,-34 l -4,8 c -9,20 -32,29 -52,20 l -92,-43 c -20,-9 -28,-32 -19,-52 l 20,-45 c 1,-2 3,-5 4,-8 -1,0 -1,-1 -2,-1 l -31,-14 -25,53 c -9,19 -32,28 -52,19 l -90,-41 c -20,-9 -29,-33 -20,-53 l 40,-86 c -8,3 -18,4 -27,1 l -105,-36 -31,91 c -7,20 -29,31 -50,24 l -94,-32 c -20,-7 -31,-29 -24,-50 l 119,-350 c 7,-21 29,-32 50,-25 l 249,84 c 20,7 31,30 24,50 l -1,3 5,-10 c 9,-20 33,-29 52,-20 l 170,78 c 18,9 37,18 53,28 13,9 25,19 34,31 17,21 26,46 26,73 0,10 -2,20 -4,31 12,-12 26,-20 42,-26 13,-6 27,-9 41,-10 14,-1 29,0 44,2 14,3 28,7 41,13 21,9 42,20 63,31 13,8 26,16 39,25 11,7 22,15 32,24 8,8 16,16 22,26 28,39 34,85 19,131 -8,27 -26,59 -41,85 l 112,-141 c 14,-16 39,-19 56,-6 l 130,105 c 13,11 18,27 13,43 l -25,76 38,-48 c 14,-16 39,-19 56,-6 l 76,62 c 11,9 16,22 15,35 z m -1167,-504 14,-31 c -7,3 -15,5 -24,4 7,7 10,17 10,27 z M 334,7682 447,7454 c 8,-16 25,-25 42,-22 l 149,25 c 17,3 30,16 32,34 l 50,384 c 1,13 -3,25 -12,34 -9,8 -21,12 -34,10 l -100,-17 c -17,-3 -30,-16 -32,-34 l -5,-37 -73,-12 -15,33 c -8,16 -24,25 -42,22 l -102,-17 c 0,0 -1,0 -1,0 -7,3 -14,5 -23,5 l -99,-8 c -11,-1 -20,-6 -27,-13 -6,4 -14,7 -22,7 l -102,2 c -21,0 -39,-17 -40,-39 l 0,-49 c 0,-2 0,-6 -1,-9 -1,0 -1,0 -2,0 l -34,0 1,59 c 0,21 -17,39 -39,40 l -100,1 c -21,1 -39,-17 -40,-38 l -4,-261 c -6,7 -14,12 -24,13 l -61,9 34,243 c 3,22 -12,42 -34,45 l -98,13 c -22,3 -42,-12 -45,-33 l -33,-244 -54,7 c -6,1 -12,0 -18,-2 l 55,238 c 5,21 -8,42 -29,47 l -164,38 c -17,3 -33,-3 -42,-17 l -45,-67 14,60 c 5,21 -8,42 -29,47 l -95,22 c -7,2 -14,1 -20,-1 -5,10 -13,17 -24,21 l -259,82 c -20,7 -42,-5 -49,-26 l -74,-232 c -4,8 -10,14 -19,18 l -55,25 101,224 c 9,20 1,43 -19,52 l -91,41 c -20,9 -43,0 -52,-20 l -101,-224 -50,22 c -4,2 -8,3 -13,4 3,3 5,6 7,10 15,22 29,47 37,73 8,23 11,47 5,71 -6,22 -20,41 -36,57 -2,3 -5,5 -7,8 -4,3 -8,7 -13,9 -5,4 -10,7 -14,10 l -11,8 c -1,1 -1,1 -2,1 l -10,7 -2,2 c -2,1 -3,1 -4,2 l -26,17 30,47 c 12,18 7,43 -11,54 l -84,54 c -9,6 -19,8 -29,6 -2,6 -7,12 -13,17 l -213,168 c -17,13 -42,10 -56,-7 l -3,-4 c 1,4 1,8 0,12 0,1 0,1 0,1 -2,24 -11,46 -24,65 -17,24 -40,47 -61,67 -21,20 -44,41 -68,58 -18,13 -38,24 -60,28 -21,4 -42,1 -62,-7 -12,-5 -23,-13 -34,-21 -12,-11 -25,-23 -36,-35 -12,-13 -14,-33 -5,-47 -11,-2 -22,-5 -32,-10 -23,-11 -44,-29 -61,-48 -15,-16 -30,-35 -40,-55 -9,-21 -12,-43 -8,-65 4,-22 16,-43 30,-61 17,-22 37,-43 58,-62 20,-19 42,-40 65,-55 18,-11 37,-20 58,-22 44,-5 82,18 111,49 5,5 9,10 13,15 9,11 11,24 8,36 6,1 12,1 18,3 4,1 9,2 13,4 l -108,-138 c -13,-17 -10,-42 7,-55 l 211,-166 c 17,-13 42,-10 55,7 l 51,64 c 10,13 10,31 2,45 12,0 23,5 30,15 l 42,54 c 9,11 10,25 6,37 5,-2 10,-4 16,-4 l -137,-211 c -12,-18 -6,-43 12,-55 l 156,-101 c 15,-9 32,-20 49,-27 15,-6 32,-9 47,-9 19,0 37,3 54,10 8,3 15,7 22,12 l -17,-39 c -9,-19 0,-43 20,-52 l 267,-121 c 17,-7 37,-2 48,13 l -1,-2 c -6,-20 5,-42 26,-49 l 256,-82 c 20,-6 43,5 49,26 l 20,61 -16,-70 c -5,-21 8,-42 29,-47 l 163,-37 c 16,-4 32,2 42,16 l 44,67 -14,-60 c -5,-21 9,-42 30,-47 l 96,-22 c 15,-4 31,3 40,15 6,-11 17,-20 31,-22 l 291,-40 c 21,-3 41,12 44,34 l 1,6 0,-1 c -1,-22 17,-40 38,-40 l 188,-3 c 19,0 40,0 59,3 15,2 31,6 44,13 24,11 43,29 55,54 7,15 11,33 13,50 l 6,-78 c 2,-22 21,-38 42,-37 l 99,8 c 22,1 38,20 37,42 l -18,226 z m -175,-38 c -4,7 -8,15 -13,21 3,5 7,10 10,15 l 3,-36 z m -1162,39 c -1,11 -6,21 -15,28 10,5 19,13 23,25 l 15,49 -23,-102 z m 30,132 c 0,8 -4,17 -9,23 5,0 10,0 15,1 l -6,-24 z m -786,263 c -2,-5 -5,-9 -7,-12 -2,-3 -6,-8 -9,-12 l -27,17 15,25 19,-12 c 3,-2 6,-4 9,-6 z m 1710,-488 39,0 c 0,-7 0,-15 0,-20 0,-1 0,-3 0,-5 -2,0 -3,0 -5,0 l -34,1 0,24 z m 1400,275 35,16 c 3,-6 6,-13 8,-17 1,-1 2,-3 2,-5 -1,0 -2,-1 -3,-2 l -32,-14 -10,22 z m 288,256 c 8,7 20,13 29,18 5,3 13,8 20,10 3,-3 6,-7 7,-9 11,-14 20,-30 28,-45 9,-14 18,-30 25,-45 1,-2 2,-5 3,-8 -1,0 -1,0 -2,-1 -6,-5 -14,-9 -22,-14 -5,-3 -18,-10 -26,-12 0,0 0,0 0,0 -1,0 -1,1 -1,1 -5,4 -12,17 -16,23 l -6,11 c 0,0 -1,1 -1,2 -2,3 -4,6 -6,9 -2,3 -3,6 -5,8 0,1 -1,2 -1,3 -8,14 -17,30 -24,45 0,1 -1,3 -2,4 z"
         id="path3600"
         inkscape:connector-curvature="0"
         style="fill:#ffffff" /></g><path
       class="fil5"
       d="m -2264,8401 -69,65 -4,-5 c -10,-11 -20,-15 -28,-14 -8,1 -20,10 -36,25 -12,11 -20,20 -24,27 -5,8 -6,14 -5,20 1,6 5,12 12,19 6,8 13,12 19,13 6,1 12,-1 20,-5 1,-1 1,-1 2,-2 1,-1 7,-5 18,-15 11,-9 21,-17 29,-24 22,-19 39,-32 51,-39 12,-7 24,-12 35,-14 10,-1 18,-1 27,1 8,2 16,6 25,12 8,6 18,15 29,26 19,19 31,35 38,48 7,13 10,26 9,39 -2,16 -8,31 -18,47 -10,15 -29,35 -55,60 -26,25 -47,43 -63,55 -17,12 -31,19 -44,21 -13,3 -26,1 -39,-4 -8,-4 -16,-9 -25,-15 -8,-7 -19,-18 -33,-32 l 69,-65 4,4 c 12,13 23,18 33,15 6,-2 10,-5 15,-8 4,-3 13,-11 25,-23 15,-14 24,-23 27,-28 3,-5 5,-11 5,-17 0,-7 -5,-15 -13,-24 -6,-7 -13,-11 -18,-12 -6,-2 -11,-1 -18,3 -5,3 -12,8 -22,16 l -9,8 -9,7 -8,7 c -24,20 -42,34 -53,41 -12,8 -23,13 -33,15 -15,4 -29,3 -44,-4 -14,-6 -30,-20 -49,-39 -16,-17 -27,-32 -33,-45 -6,-13 -8,-27 -6,-40 3,-14 10,-29 22,-45 13,-16 30,-35 54,-58 25,-24 45,-41 59,-50 15,-10 28,-15 41,-16 26,-3 52,9 78,36 5,5 9,9 12,13 z"
       id="path3602"
       inkscape:connector-curvature="0"
       style="fill:#ff0000;fill-rule:nonzero" /><polygon
       id="1"
       class="fil5"
       points="-1934,8269 -2058,8366 -2013,8423 -1878,8317 -1828,8381 -2041,8548 -2270,8257 -2059,8092 -2009,8156 -2141,8259 -2100,8313 -1976,8216 "
       style="fill:#ff0000;fill-rule:nonzero" /><path
       id="2"
       class="fil5"
       d="m -1783,8357 -201,-312 121,-78 34,-22 c 19,-12 33,-20 43,-24 10,-4 21,-6 34,-6 14,0 26,2 37,7 12,4 23,12 34,24 10,11 22,26 34,45 16,25 27,46 33,64 6,18 8,34 4,48 -4,14 -12,28 -26,41 -2,3 -4,5 -6,6 -1,1 -4,3 -7,6 -4,2 -9,6 -15,10 l -12,8 -12,8 -4,3 -4,3 -5,3 -50,32 51,80 -83,54 z m -15,-206 53,-34 c 12,-9 20,-14 22,-16 3,-3 5,-5 6,-8 2,-5 2,-12 0,-19 -2,-7 -8,-17 -16,-29 -11,-17 -21,-28 -30,-32 -9,-3 -19,-1 -31,6 l -10,7 -53,34 59,91 z"
       inkscape:connector-curvature="0"
       style="fill:#ff0000;fill-rule:nonzero" /><polygon
       id="3"
       class="fil5"
       points="-1541,7881 -1626,7920 -1661,7843 -1394,7721 -1359,7798 -1450,7840 -1331,8099 -1422,8141 "
       style="fill:#ff0000;fill-rule:nonzero" /><polygon
       id="4"
       class="fil5"
       points="-1010,7815 -1161,7862 -1140,7930 -975,7879 -951,7957 -1211,8038 -1321,7684 -1064,7604 -1040,7682 -1201,7732 -1182,7796 -1031,7749 "
       style="fill:#ff0000;fill-rule:nonzero" /><path
       id="5"
       class="fil5"
       d="m -627,7491 83,361 -164,38 -92,-139 c -16,-24 -25,-39 -29,-45 -3,-5 -6,-9 -8,-12 -2,-3 -5,-8 -10,-16 -5,-8 -14,-22 -27,-43 l -4,1 6,22 c 1,4 2,6 2,8 1,2 1,4 2,6 1,2 1,5 2,8 10,36 17,65 23,88 l 33,145 -95,22 -83,-361 163,-38 93,139 c 20,31 31,48 34,53 4,5 16,24 38,59 l 4,0 -6,-22 -3,-11 c -10,-34 -18,-66 -25,-96 l -33,-145 96,-22 z"
       inkscape:connector-curvature="0"
       style="fill:#ff0000;fill-rule:nonzero" /><polygon
       id="6"
       class="fil5"
       points="-454,7555 -547,7567 -558,7484 -267,7445 -256,7529 -356,7542 -319,7826 -417,7839 "
       style="fill:#ff0000;fill-rule:nonzero" /><path
       id="7"
       class="fil5"
       d="m -184,7814 -5,-371 188,-2 c 22,0 40,1 53,3 13,2 24,5 32,9 17,8 29,20 36,36 8,15 11,37 12,65 0,28 -2,49 -5,63 -3,14 -9,25 -19,32 -9,7 -24,13 -44,19 l 0,3 c 15,1 28,4 37,9 10,5 18,13 23,24 4,10 7,23 7,39 l 1,67 -101,1 -1,-49 c 0,-18 -3,-30 -9,-37 -7,-8 -17,-11 -33,-11 l -74,1 1,98 -99,1 z m 97,-183 79,-1 c 11,0 19,-2 25,-5 5,-3 9,-8 11,-16 1,-8 2,-21 2,-39 0,-13 -1,-22 -3,-28 -3,-6 -7,-10 -13,-13 -6,-2 -16,-3 -28,-3 l -74,1 1,104 z"
       inkscape:connector-curvature="0"
       style="fill:#ff0000;fill-rule:nonzero" /><polygon
       id="8"
       class="fil5"
       points="216,7446 315,7454 284,7823 185,7815 "
       style="fill:#ff0000;fill-rule:nonzero" /><path
       id="9"
       class="fil5"
       d="m 573,7795 -132,-21 -27,60 -103,-16 169,-348 149,24 52,384 -100,-17 -8,-66 z m -8,-74 -21,-166 -70,152 91,14 z"
       inkscape:connector-curvature="0"
       style="fill:#ff0000;fill-rule:nonzero" /><polygon
       id="10"
       class="fil5"
       points="1122,7868 979,7821 937,7949 842,7917 960,7566 1208,7649 1182,7727 1028,7675 1005,7743 1147,7791 "
       style="fill:#ff0000;fill-rule:nonzero" /><path
       id="11"
       class="fil5"
       d="m 1132,8009 153,-338 170,77 c 21,9 36,18 47,25 12,7 20,15 26,22 12,15 18,31 18,48 -1,17 -6,38 -18,64 -12,26 -22,44 -31,55 -8,11 -19,18 -30,20 -12,3 -28,2 -49,-1 l -1,3 c 13,7 24,15 30,24 7,9 10,19 10,31 0,11 -3,24 -9,38 l -28,62 -92,-42 20,-45 c 7,-16 10,-29 7,-38 -2,-9 -11,-17 -25,-23 l -67,-30 -40,89 -91,-41 z m 166,-125 72,32 c 10,5 18,7 24,6 6,0 12,-3 17,-10 5,-6 11,-17 18,-34 5,-11 8,-20 9,-27 1,-6 -2,-12 -6,-16 -5,-5 -13,-10 -24,-15 l -67,-30 -43,94 z"
       inkscape:connector-curvature="0"
       style="fill:#ff0000;fill-rule:nonzero" /><path
       id="12"
       class="fil5"
       d="m 1792,7920 c 14,8 27,16 38,23 11,7 19,14 26,21 7,6 12,12 17,19 21,29 26,61 15,96 -5,16 -19,44 -41,83 -11,19 -19,33 -24,41 -5,9 -9,16 -13,22 -4,6 -8,11 -13,16 -12,14 -24,25 -37,32 -13,8 -28,11 -43,11 -16,0 -34,-3 -53,-10 -20,-7 -42,-18 -68,-33 -17,-10 -32,-19 -43,-27 -11,-7 -20,-15 -28,-23 -7,-8 -13,-16 -17,-26 -8,-14 -12,-28 -13,-42 -1,-14 2,-29 8,-45 6,-16 16,-38 31,-64 17,-31 32,-54 43,-71 11,-16 21,-29 30,-37 9,-9 19,-15 30,-19 9,-4 19,-6 30,-7 11,-1 22,-1 34,1 12,2 23,6 33,10 16,7 36,17 58,29 z m -142,99 -6,11 c -2,2 -4,6 -7,11 -3,4 -4,7 -5,8 0,1 -1,2 -1,2 -13,22 -21,39 -26,49 -5,11 -6,20 -5,28 1,8 5,15 12,21 7,6 19,13 36,23 14,8 25,13 33,15 9,2 17,1 24,-3 7,-4 14,-11 22,-22 8,-11 18,-27 30,-48 14,-24 22,-40 26,-49 4,-9 7,-17 7,-24 0,-7 -1,-12 -3,-17 -3,-5 -7,-10 -14,-15 -6,-4 -15,-10 -27,-17 -19,-11 -34,-17 -44,-18 -9,-1 -19,3 -28,11 -6,5 -14,16 -24,34 z"
       inkscape:connector-curvature="0"
       style="fill:#ff0000;fill-rule:nonzero" /><path
       id="13"
       class="fil5"
       d="m 2316,8292 -231,290 -132,-105 52,-158 c 9,-28 15,-45 17,-51 2,-6 3,-10 4,-14 2,-3 4,-9 7,-18 3,-9 8,-24 17,-47 l -4,-3 -14,19 c -2,2 -3,5 -4,6 -1,2 -3,4 -4,5 -1,2 -3,4 -5,7 -22,30 -40,54 -55,73 l -92,116 -77,-61 231,-290 131,104 -51,159 c -11,35 -18,55 -20,60 -1,5 -9,28 -23,67 l 3,2 13,-18 7,-9 c 21,-29 41,-56 60,-80 l 93,-116 77,62 z"
       inkscape:connector-curvature="0"
       style="fill:#ff0000;fill-rule:nonzero" /><polygon
       id="14"
       class="fil5"
       points="2375,8464 2307,8399 2366,8338 2578,8542 2519,8603 2446,8533 2248,8739 2177,8670 "
       style="fill:#ff0000;fill-rule:nonzero" /><circle
       class="fil6"
       cy="11000"
       r="3740"
       id="circle3618"
       cx="0"
       style="fill:none" /><g
       id="_878679312"><path
         class="fil4"
         d="m 2929,12052 -3,-1 103,-361 c 8,-27 19,-55 35,-78 14,-20 32,-37 55,-48 20,-10 42,-14 65,-14 22,1 45,5 66,11 l 33,9 c 19,6 36,13 53,23 17,10 32,23 45,38 14,18 23,38 27,60 4,24 2,49 -5,72 l -56,198 97,28 -56,194 -160,-45 c 44,21 83,54 98,102 16,52 1,109 -20,157 l -74,161 c -21,48 -54,96 -104,118 -33,15 -68,15 -102,7 12,11 22,24 31,37 14,23 22,48 22,75 0,26 -6,50 -16,74 -11,25 -27,50 -43,73 l -114,161 c -17,23 -35,45 -55,65 -19,17 -40,31 -64,39 -25,9 -52,10 -78,4 -29,-7 -56,-21 -80,-38 l -31,-23 c 1,3 2,6 2,9 2,5 2,9 3,14 15,1 29,5 42,12 15,8 29,19 42,31 l 78,74 -139,146 -64,-60 c -2,-2 -8,-7 -12,-10 -3,2 -6,5 -8,7 l -106,111 75,72 -139,147 -81,-78 c 6,14 12,28 14,42 5,26 1,51 -11,75 -12,22 -29,41 -48,57 -24,21 -52,41 -78,60 l -121,86 c -23,16 -47,31 -73,42 -23,11 -48,17 -73,17 -27,0 -52,-8 -75,-22 -25,-16 -46,-39 -63,-62 l -69,-98 c -17,-24 -32,-51 -39,-80 -6,-26 -5,-52 4,-78 8,-24 22,-45 39,-64 20,-20 42,-38 65,-54 l 151,-108 c 25,-18 53,-35 82,-46 13,-4 26,-8 39,-10 l -11,-11 283,-298 c 17,-17 36,-33 57,-44 20,-10 41,-16 62,-15 11,1 22,2 32,6 -7,-17 -11,-35 -11,-54 0,-26 6,-51 16,-74 12,-25 27,-50 43,-73 l 115,-161 c 16,-23 34,-45 55,-64 17,-16 36,-29 58,-38 l -28,-13 84,-184 247,112 c 5,3 21,9 27,8 5,-3 12,-17 14,-21 l 50,-112 c 3,-4 8,-19 7,-24 -2,-5 -18,-13 -23,-16 l -247,-112 64,-142 z m -927,1539 c -2,1 -4,3 -6,4 l -109,77 c -7,6 -17,13 -23,20 0,0 -2,3 -2,3 0,2 1,5 2,7 4,10 11,20 17,29 l 29,41 c 7,9 14,19 22,26 1,1 4,4 5,4 2,0 4,-1 5,-1 9,-4 18,-10 26,-15 l 3,-2 -81,-114 112,-79 z m -1449,827 107,-388 202,-46 366,409 -221,51 -54,-61 -197,46 -19,77 -222,52 14,-52 c -5,7 -11,13 -18,19 -15,12 -32,21 -51,26 -19,6 -38,9 -58,10 l -431,33 -10,-134 -19,144 -197,-26 23,-177 -122,165 -138,-18 -76,-191 -23,178 -197,-26 15,-118 c -5,9 -12,18 -19,26 -18,20 -40,35 -65,43 -25,7 -50,8 -76,5 -27,-4 -55,-12 -82,-21 l -187,-64 c -26,-9 -53,-21 -77,-35 -22,-13 -41,-29 -56,-50 -16,-22 -24,-47 -25,-74 -1,-8 -1,-17 0,-26 -4,6 -9,12 -14,17 -15,16 -33,28 -54,34 -22,8 -47,8 -70,3 -29,-4 -57,-16 -82,-29 l -177,-90 c -25,-13 -50,-28 -72,-45 -20,-16 -37,-35 -49,-57 -12,-24 -16,-51 -14,-77 2,-30 12,-58 26,-85 l 54,-106 c 14,-27 31,-52 53,-71 21,-17 44,-29 71,-33 25,-4 51,-1 75,5 27,8 53,20 78,32 l 130,66 c 32,17 66,36 95,58 22,17 42,39 53,65 6,14 9,30 9,45 15,-12 31,-21 49,-26 24,-8 50,-8 75,-5 28,4 56,12 82,21 l 187,64 c 26,9 53,20 77,35 18,11 35,24 49,40 l 3,-24 250,33 87,228 143,-198 181,23 0,-4 393,-29 c 44,-4 96,-2 135,20 41,23 58,65 61,110 1,17 1,35 -2,51 -2,13 -6,25 -12,37 4,3 8,6 11,10 22,25 29,59 32,90 0,5 0,10 0,15 z m -1881,-336 7,-21 -158,-81 21,-42 c -5,-3 -13,-8 -16,-9 l -120,-61 c -5,-3 -23,-11 -29,-10 -9,4 -19,21 -23,29 l -20,39 c -3,6 -13,27 -12,35 3,6 16,13 21,16 l 118,59 c 8,5 18,10 28,13 0,0 0,0 1,1 3,-4 5,-10 7,-13 l 18,-35 157,80 z m -1101,-827 143,-151 146,139 -101,107 2,2 214,0 207,197 -350,-9 41,379 -215,-204 -22,-235 -1,0 -106,112 -146,-139 186,-196 -133,115 -153,-178 35,-30 c -38,20 -80,31 -123,19 -51,-15 -91,-64 -118,-108 l -223,-346 116,-75 -127,58 -217,-479 215,-97 c -9,-1 -17,-2 -25,-4 -5,-2 -10,-3 -14,-5 -8,12 -19,22 -31,30 -15,9 -31,16 -48,20 l -104,30 -55,-194 84,-24 c 4,-1 11,-4 15,-6 0,-3 -1,-8 -2,-10 l -42,-148 -101,28 -55,-194 462,-132 113,396 c 7,23 11,47 10,71 -1,20 -6,38 -15,55 l 31,-14 201,445 216,335 c 28,43 56,100 49,153 -7,52 -46,90 -88,117 l -11,8 140,162 z m -464,-689 -114,52 7,17 107,-69 z m 4248,1426 111,281 -188,74 -111,-281 -161,64 -66,-166 510,-202 66,166 -161,64 z m -4546,-2222 -18,6 45,158 c 0,1 1,3 2,6 1,-1 2,-1 2,-1 l 13,-4 c 1,0 1,0 2,0 -1,-6 -3,-14 -4,-17 l -42,-148 z m 408,966 -101,65 98,151 c 3,5 14,20 19,22 6,1 22,-8 27,-12 l 45,-29 c 5,-3 20,-13 22,-18 0,-7 -9,-23 -12,-28 l -98,-151 z m 1636,1466 c 4,5 18,10 24,12 l 149,52 c 5,1 19,6 26,5 6,-6 14,-27 17,-34 l 14,-41 c 3,-9 8,-27 5,-36 -3,-6 -22,-13 -28,-15 l -136,-48 c -6,-2 -25,-7 -31,-5 -8,5 -15,23 -18,32 l -15,41 c -2,7 -9,29 -7,37 z m 1958,17 -8,29 27,-6 -19,-23 z m 1481,-871 14,13 114,-119 c 1,-1 2,-3 4,-5 -1,0 -2,-1 -2,-1 l -10,-10 c 0,0 -1,0 -1,-1 -5,4 -10,9 -13,12 l -106,111 z m 459,-347 c 5,-3 15,-15 18,-20 l 91,-128 c 3,-5 12,-18 12,-24 -3,-8 -21,-21 -27,-26 l -36,-25 c -7,-5 -24,-15 -33,-15 -6,2 -19,17 -22,22 l -84,118 c -3,5 -14,22 -14,28 3,9 18,21 26,27 l 35,25 c 6,4 25,17 34,18 z m 402,-1095 22,6 42,-146 c 0,-1 0,-1 0,-1 -1,0 -3,-1 -3,-1 l -15,-4 c -1,0 -2,-1 -3,-1 -2,3 -3,8 -4,11 l -39,136 z"
         id="path3621"
         inkscape:connector-curvature="0"
         style="fill:#ffffff" /></g><path
       class="fil5"
       d="m -3164,11722 53,185 c 6,20 7,35 4,44 -3,10 -13,17 -29,22 l -13,4 c -14,4 -25,3 -34,-2 -8,-4 -15,-15 -19,-30 l -56,-196 94,-27 z m -324,-36 33,119 101,-29 53,186 c 5,19 5,33 -1,42 -6,9 -19,17 -39,22 l -46,14 33,118 66,-18 c 15,-5 28,-10 38,-16 9,-7 16,-13 20,-21 5,-8 8,-16 9,-24 1,-9 1,-18 0,-29 l 1,0 c 14,24 29,39 47,44 17,5 39,3 67,-5 l 25,-7 c 18,-5 33,-11 46,-19 13,-8 23,-17 31,-29 7,-12 11,-26 13,-42 1,-17 -2,-36 -8,-59 l -103,-357 -386,110 z m 166,566 184,408 88,-40 -133,-295 59,-27 123,274 76,-34 -123,-274 58,-26 131,288 85,-38 -181,-401 -367,165 z m 230,489 202,313 c 33,51 65,82 97,91 31,10 68,1 111,-27 l 102,-66 c 43,-27 66,-57 71,-89 4,-33 -10,-75 -43,-127 l -201,-313 -339,218 z m 321,-60 119,184 c 14,23 20,42 18,56 -3,15 -16,30 -39,45 l -46,30 c -24,15 -42,20 -57,17 -14,-4 -29,-17 -44,-40 l -118,-184 167,-108 z m 109,517 102,118 75,-65 -101,-118 -76,65 z m 100,253 90,85 106,-112 39,38 23,234 126,120 -34,-316 293,7 -122,-115 -214,0 -42,-40 102,-107 -90,-85 -277,291 z m 731,433 c -13,26 -21,49 -22,70 -2,20 2,39 10,55 9,16 22,31 39,45 17,14 38,27 65,41 l 177,90 c 26,14 50,22 70,26 20,3 38,3 52,-2 15,-5 27,-13 37,-23 10,-11 19,-25 28,-41 l 17,-34 -110,-56 c -5,11 -11,19 -17,25 -5,5 -11,9 -18,9 -6,1 -13,0 -22,-3 -8,-3 -19,-8 -32,-15 l -118,-59 c -25,-13 -39,-27 -42,-42 -3,-14 2,-35 16,-62 l 20,-39 c 12,-24 26,-40 42,-47 15,-7 36,-3 63,11 l 120,61 c 17,8 29,17 35,27 6,9 6,20 0,32 l -6,10 110,56 c 14,-28 24,-51 28,-70 4,-18 3,-36 -4,-52 -7,-16 -21,-33 -42,-49 -20,-16 -50,-34 -88,-54 l -130,-66 c -26,-13 -50,-23 -70,-29 -21,-6 -41,-7 -59,-4 -18,2 -35,10 -51,24 -16,13 -30,33 -44,58 l -54,107 z m 522,263 c -9,27 -13,51 -12,72 1,21 7,38 18,53 11,15 25,28 44,39 19,11 42,22 70,31 l 187,65 c 28,10 53,16 74,19 22,2 42,1 60,-4 17,-5 33,-16 47,-31 13,-15 25,-37 34,-64 l 39,-113 c 10,-28 14,-52 13,-72 -2,-21 -8,-38 -18,-53 -11,-15 -26,-28 -45,-39 -19,-12 -42,-22 -70,-32 l -187,-64 c -28,-10 -53,-16 -74,-19 -22,-3 -41,-2 -59,3 -18,6 -33,16 -47,32 -14,15 -25,36 -35,64 l -39,113 z m 146,-36 c 9,-26 21,-43 35,-52 14,-9 36,-9 65,1 l 136,47 c 29,10 46,23 52,39 5,16 4,37 -5,63 l -14,41 c -10,28 -21,47 -34,55 -13,8 -33,7 -59,-2 l -149,-52 c -27,-9 -43,-21 -48,-35 -5,-14 -3,-35 7,-64 l 14,-41 z m 419,364 119,16 37,-287 1,0 123,308 92,12 197,-266 2,0 -38,286 119,16 52,-399 -188,-24 -171,238 -105,-274 -188,-25 -52,399 z m 752,77 391,-30 c 19,-1 36,-4 50,-8 14,-5 27,-11 37,-19 10,-9 18,-20 23,-35 5,-14 6,-32 5,-54 -3,-30 -10,-53 -23,-67 -12,-14 -32,-22 -58,-23 l -1,-2 c 10,-3 18,-7 25,-11 6,-4 12,-10 17,-16 4,-7 8,-16 10,-27 2,-12 2,-25 1,-42 -3,-38 -17,-65 -41,-79 -25,-14 -62,-19 -113,-15 l -354,27 31,401 z m 110,-169 221,-16 c 15,-1 26,0 34,4 7,5 12,13 13,26 1,11 -3,19 -10,23 -7,5 -18,8 -32,9 l -221,17 -5,-63 z m -11,-145 218,-17 c 12,-1 21,1 27,6 7,4 11,12 11,23 1,11 -1,19 -7,25 -6,5 -14,8 -26,9 l -218,16 -5,-62 z m 463,266 135,-31 19,-77 243,-56 54,60 133,-30 -305,-343 -157,37 -122,440 z m 221,-368 112,130 -154,35 42,-165 z m 237,-57 161,-64 111,281 115,-45 -111,-281 161,-64 -37,-93 -437,173 37,93 z m 767,-182 c 17,23 34,41 52,51 17,11 35,17 54,17 18,0 37,-5 57,-14 20,-8 42,-21 66,-38 l 121,-86 c 33,-24 58,-43 76,-58 17,-15 30,-30 38,-46 8,-15 11,-31 7,-49 -3,-18 -13,-38 -29,-61 l -67,-94 -225,161 48,68 125,-89 7,9 c 5,8 8,15 9,22 0,7 -1,13 -4,19 -3,6 -7,11 -13,16 -5,6 -12,11 -19,16 l -107,77 c -14,9 -25,16 -34,19 -10,4 -19,5 -27,4 -8,-2 -16,-6 -24,-13 -8,-8 -18,-19 -28,-33 l -29,-41 c -10,-14 -17,-27 -22,-37 -4,-10 -5,-19 -4,-27 1,-9 5,-16 12,-24 6,-8 16,-16 29,-26 l 109,-77 c 19,-13 33,-20 44,-21 12,-1 22,6 33,21 l 99,-70 -8,-10 c -12,-18 -25,-32 -36,-42 -12,-10 -26,-17 -41,-19 -16,-3 -34,0 -54,7 -21,8 -45,21 -73,41 l -151,108 c -24,17 -44,33 -59,49 -15,16 -25,33 -31,50 -6,17 -7,36 -2,56 4,21 15,42 32,66 l 69,98 z m 442,-547 133,-140 c 14,-15 26,-24 36,-26 10,-3 21,2 33,14 l 10,9 c 11,10 16,20 16,30 0,10 -6,20 -17,32 l -140,148 -71,-67 z m 134,297 85,-89 -76,-72 134,-141 c 13,-14 25,-20 36,-20 11,0 24,8 39,22 l 35,34 85,-90 -49,-47 c -12,-11 -23,-19 -33,-24 -10,-5 -20,-7 -28,-7 -9,0 -18,1 -25,5 -8,3 -17,7 -25,14 l -1,-1 c 14,-24 19,-45 14,-62 -4,-18 -17,-36 -38,-56 l -19,-18 c -13,-13 -27,-23 -40,-30 -13,-7 -26,-11 -40,-12 -14,0 -28,3 -43,11 -15,7 -30,19 -46,36 l -257,270 292,277 z m 281,-507 c 24,17 46,28 66,32 20,5 39,4 56,-2 17,-6 34,-17 50,-31 16,-15 32,-35 50,-59 l 114,-161 c 17,-24 30,-46 39,-66 9,-20 13,-39 13,-58 0,-19 -5,-37 -16,-54 -11,-17 -28,-34 -52,-51 l -98,-69 c -23,-17 -45,-28 -65,-32 -20,-5 -39,-4 -56,2 -18,6 -35,17 -50,32 -16,14 -33,34 -50,58 l -115,161 c -17,24 -30,46 -39,66 -9,20 -13,39 -13,58 0,18 6,36 17,54 11,17 28,34 51,51 l 98,69 z m 7,-150 c -22,-16 -36,-32 -40,-48 -5,-16 1,-37 19,-62 l 84,-118 c 17,-24 34,-37 51,-38 17,-1 37,6 59,22 l 35,25 c 25,18 40,34 44,48 4,15 -2,33 -19,56 l -91,129 c -16,23 -32,35 -47,36 -15,1 -35,-7 -60,-25 l -35,-25 z m 335,-359 c 46,20 85,24 118,9 33,-14 61,-47 85,-99 l 73,-160 c 23,-52 29,-95 18,-129 -10,-34 -39,-62 -85,-83 l -235,-107 -51,112 211,97 c 23,10 38,22 43,36 6,14 4,33 -7,56 l -50,111 c -11,23 -23,37 -37,42 -14,5 -33,2 -56,-9 l -212,-96 -51,113 236,107 z m 367,-496 34,-119 -97,-28 67,-235 c 6,-20 7,-38 4,-55 -3,-16 -9,-30 -19,-42 -9,-12 -21,-21 -34,-29 -14,-8 -28,-14 -43,-19 l -34,-9 c -20,-6 -39,-9 -56,-9 -17,-1 -33,3 -47,10 -15,7 -28,18 -40,35 -11,16 -21,38 -29,66 l -92,323 386,111 z m -256,-202 49,-174 c 5,-18 12,-29 21,-35 10,-5 21,-6 34,-2 l 15,4 c 13,4 22,10 28,18 5,8 6,19 2,32 l -52,185 -97,-28 z"
       id="path3623"
       inkscape:connector-curvature="0"
       style="fill:#ff0000;fill-rule:nonzero" /><circle
       class="fil6"
       cy="11000"
       r="3780"
       id="circle3625"
       cx="0"
       style="fill:none" /></g></svg>