<?xml version="1.0" encoding="UTF-8" standalone="no"?>
<!-- Creator: CorelDRAW X7 -->

<svg
   xmlns:dc="http://purl.org/dc/elements/1.1/"
   xmlns:cc="http://creativecommons.org/ns#"
   xmlns:rdf="http://www.w3.org/1999/02/22-rdf-syntax-ns#"
   xmlns:svg="http://www.w3.org/2000/svg"
   xmlns="http://www.w3.org/2000/svg"
   xmlns:sodipodi="http://sodipodi.sourceforge.net/DTD/sodipodi-0.dtd"
   xmlns:inkscape="http://www.inkscape.org/namespaces/inkscape"
   xml:space="preserve"
   width="7.8740005in"
   height="7.8740005in"
   version="1.1"
   style="clip-rule:evenodd;fill-rule:evenodd;image-rendering:optimizeQuality;shape-rendering:geometricPrecision;text-rendering:geometricPrecision"
   viewBox="0 0 7874.0005 7874.0005"
   id="svg4464"
   inkscape:version="0.91 r13725"
   sodipodi:docname="PanOceania - Machinists - [N3] [Vyo].svg"><metadata
     id="metadata4505"><rdf:RDF><cc:Work
         rdf:about=""><dc:format>image/svg+xml</dc:format><dc:type
           rdf:resource="http://purl.org/dc/dcmitype/StillImage" /></cc:Work></rdf:RDF></metadata><sodipodi:namedview
     pagecolor="#ffffff"
     bordercolor="#666666"
     borderopacity="1"
     objecttolerance="10"
     gridtolerance="10"
     guidetolerance="10"
     inkscape:pageopacity="0"
     inkscape:pageshadow="2"
     inkscape:window-width="640"
     inkscape:window-height="480"
     id="namedview4503"
     showgrid="false"
     inkscape:zoom="0.23838384"
     inkscape:cx="736.83001"
     inkscape:cy="849.33005"
     inkscape:window-x="0"
     inkscape:window-y="0"
     inkscape:window-maximized="0"
     inkscape:current-layer="svg4464" /><defs
     id="defs4466"><style
       type="text/css"
       id="style4468"><![CDATA[
    .fil3 {fill:none}
    .fil0 {fill:#00C0FF}
    .fil4 {fill:#E2001A}
    .fil1 {fill:white}
    .fil2 {fill:white;fill-rule:nonzero}
   ]]></style></defs><g
     id="Layer_x0020_1"
     transform="translate(3937,-7063)"><metadata
       id="CorelCorpID_0Corel-Layer" /><circle
       class="fil0"
       cy="11000"
       r="3937"
       id="circle4472"
       cx="0"
       style="fill:#00c0ff" /><circle
       class="fil1"
       cy="11000"
       r="3819"
       id="circle4474"
       cx="0"
       style="fill:#ffffff" /><circle
       class="fil0"
       cy="11000"
       r="3661"
       id="circle4476"
       cx="0"
       style="fill:#00c0ff" /><circle
       class="fil1"
       cy="11000"
       r="2756"
       id="circle4478"
       cx="0"
       style="fill:#ffffff" /><path
       class="fil2"
       d="m -1409,7745 252,453 -120,67 -76,-136 c -8,-15 -18,-34 -30,-57 -12,-24 -20,-41 -25,-51 l -9,-18 -9,-18 -9,-18 -9,-18 -8,-18 -10,-18 -3,2 c 12,59 20,94 22,106 3,13 12,58 27,137 l 31,167 -104,58 -127,-115 c -20,-19 -39,-36 -54,-50 -16,-14 -29,-26 -39,-36 -11,-9 -23,-21 -38,-36 -16,-14 -32,-30 -50,-46 l -4,2 11,17 10,17 12,17 10,17 11,17 c 36,57 60,97 73,120 l 76,136 -120,67 -252,-453 190,-105 114,106 c 25,23 55,52 89,85 l 11,11 11,11 11,11 10,11 5,-3 -11,-44 c -10,-39 -16,-62 -17,-69 -2,-7 -6,-29 -14,-65 l -32,-153 194,-108 z"
       id="path4480"
       inkscape:connector-curvature="0"
       style="fill:#ffffff;fill-rule:nonzero" /><path
       id="1"
       class="fil2"
       d="m -1053,7903 -114,35 -3,-9 c -6,-19 -8,-36 -7,-50 1,-14 6,-26 15,-37 9,-10 23,-20 42,-29 18,-10 42,-19 71,-28 45,-13 81,-21 108,-21 28,0 49,8 65,22 15,15 28,39 38,72 l 70,226 -113,34 -14,-57 -3,1 c 0,17 -3,31 -8,42 -6,12 -15,21 -27,29 -13,8 -31,15 -55,22 -21,7 -40,10 -56,11 -16,0 -30,-3 -42,-9 -12,-6 -22,-15 -30,-27 -9,-13 -16,-29 -22,-49 -6,-19 -9,-36 -8,-50 0,-15 4,-28 11,-39 8,-12 18,-22 32,-31 14,-9 32,-17 55,-24 22,-6 40,-10 53,-12 14,-2 25,-1 33,3 9,4 18,12 27,22 l 2,0 -21,-68 c -5,-17 -13,-27 -23,-32 -10,-5 -24,-4 -44,2 -17,5 -27,11 -31,18 -5,7 -5,18 -1,33 z m 69,90 c -20,7 -32,13 -38,21 -6,8 -7,18 -3,32 4,14 11,23 21,25 9,3 26,1 50,-7 20,-6 32,-13 38,-20 5,-8 5,-19 0,-35 -4,-13 -10,-20 -20,-23 -9,-2 -25,0 -48,7 z"
       inkscape:connector-curvature="0"
       style="fill:#ffffff;fill-rule:nonzero" /><path
       id="2"
       class="fil2"
       d="m -525,7886 113,-19 c 5,29 8,52 7,66 0,15 -3,28 -8,40 -8,19 -22,33 -40,42 -18,10 -47,17 -86,24 -46,8 -82,10 -106,7 -25,-3 -46,-12 -64,-28 -13,-11 -23,-27 -30,-46 -7,-19 -14,-47 -20,-83 -6,-38 -9,-68 -7,-93 1,-24 7,-44 17,-59 10,-16 25,-29 45,-38 20,-9 47,-17 81,-22 47,-8 83,-10 108,-6 26,4 45,14 57,32 13,17 23,45 29,83 l -113,19 c -3,-21 -8,-34 -15,-39 -8,-6 -21,-7 -40,-4 -19,3 -32,7 -40,12 -7,5 -11,14 -11,27 -1,13 1,33 6,62 5,31 10,53 15,66 4,14 11,22 19,25 8,3 22,3 41,0 15,-3 25,-6 32,-10 7,-5 11,-11 12,-19 2,-9 1,-22 -2,-39 z"
       inkscape:connector-curvature="0"
       style="fill:#ffffff;fill-rule:nonzero" /><path
       id="3"
       class="fil2"
       d="m -277,7478 18,227 3,0 c 5,-21 12,-37 19,-48 8,-12 18,-20 31,-26 12,-6 29,-9 50,-11 39,-3 70,3 92,20 21,16 33,42 36,77 l 21,260 -117,9 -17,-215 c -2,-16 -4,-29 -8,-37 -3,-8 -8,-13 -15,-16 -7,-3 -18,-4 -32,-3 -21,2 -36,9 -45,20 -9,12 -13,29 -11,52 l 17,208 -118,10 -42,-517 118,-10 z"
       inkscape:connector-curvature="0"
       style="fill:#ffffff;fill-rule:nonzero" /><path
       id="4"
       class="fil2"
       d="m 171,7470 0,88 -119,-1 0,-87 119,0 z m -1,156 -1,363 -119,-1 1,-363 119,1 z"
       inkscape:connector-curvature="0"
       style="fill:#ffffff;fill-rule:nonzero" /><path
       id="5"
       class="fil2"
       d="m 280,7630 118,17 -15,69 2,0 c 13,-26 28,-43 45,-52 16,-8 39,-10 69,-6 29,4 52,11 70,22 17,10 29,24 36,41 6,18 7,39 4,64 l -37,254 -117,-17 30,-206 2,-14 c 3,-19 1,-33 -5,-42 -6,-9 -17,-14 -33,-16 -43,-7 -67,11 -73,51 l -30,212 -118,-17 52,-360 z"
       inkscape:connector-curvature="0"
       style="fill:#ffffff;fill-rule:nonzero" /><path
       id="6"
       class="fil2"
       d="m 855,7570 -19,86 -116,-26 19,-86 116,26 z m -33,152 -79,354 -116,-25 79,-355 116,26 z"
       inkscape:connector-curvature="0"
       style="fill:#ffffff;fill-rule:nonzero" /><path
       id="7"
       class="fil2"
       d="m 1188,7946 -107,-35 c 0,-4 0,-6 0,-6 1,-8 0,-15 -1,-19 -2,-4 -7,-8 -13,-11 -7,-4 -18,-8 -33,-13 -19,-6 -32,-9 -40,-7 -7,2 -13,8 -17,20 -5,15 -2,26 10,33 3,2 10,5 21,9 l 15,6 15,6 14,5 c 21,9 38,16 52,23 14,6 24,12 32,18 7,5 13,12 18,19 8,11 13,24 14,38 1,14 -2,30 -8,49 -8,22 -17,40 -28,53 -11,13 -25,22 -42,27 -17,5 -37,5 -61,2 -24,-3 -52,-10 -84,-21 -33,-11 -59,-22 -78,-32 -20,-10 -34,-22 -42,-34 -9,-12 -14,-26 -14,-42 -1,-16 3,-35 10,-57 l 114,38 -2,6 c -5,14 -4,24 2,30 6,6 20,13 44,21 21,7 37,10 46,9 10,-2 16,-8 20,-20 3,-9 4,-16 3,-22 -1,-5 -4,-10 -10,-14 -6,-4 -16,-9 -29,-14 -36,-12 -61,-22 -77,-29 -15,-6 -29,-14 -39,-22 -19,-14 -30,-30 -34,-48 -4,-19 -1,-42 8,-69 7,-22 16,-38 26,-50 10,-12 22,-20 37,-23 15,-4 33,-4 55,0 22,3 50,11 84,22 40,14 71,27 90,40 20,14 32,29 36,47 4,17 2,40 -7,67 z"
       inkscape:connector-curvature="0"
       style="fill:#ffffff;fill-rule:nonzero" /><path
       id="8"
       class="fil2"
       d="m 1558,7999 -36,78 -125,-57 -61,132 c -8,17 -11,29 -11,37 0,7 5,13 14,17 13,6 22,6 30,1 7,-5 15,-19 25,-41 l 4,-7 85,40 c -1,3 -2,6 -3,8 -1,2 -2,3 -4,5 -14,32 -25,52 -33,62 -7,10 -16,18 -28,24 -9,5 -20,7 -31,8 -12,0 -26,-2 -41,-7 -16,-4 -34,-11 -55,-21 -30,-14 -51,-28 -64,-41 -13,-14 -21,-30 -22,-50 -1,-9 -1,-18 2,-27 2,-9 7,-21 14,-36 l 71,-154 -40,-19 36,-78 40,19 32,-70 108,50 -32,70 125,57 z"
       inkscape:connector-curvature="0"
       style="fill:#ffffff;fill-rule:nonzero" /><path
       id="9"
       class="fil2"
       d="m 1857,8303 -94,-60 c 1,-3 1,-5 1,-6 3,-7 4,-14 3,-18 -1,-5 -4,-10 -10,-15 -5,-5 -15,-12 -29,-20 -16,-11 -28,-16 -37,-17 -8,0 -15,5 -21,16 -9,13 -8,24 2,34 2,3 8,8 18,15 l 12,9 14,9 12,9 c 19,13 34,24 45,34 12,9 21,18 26,25 6,7 11,15 14,23 5,13 6,26 3,40 -2,14 -8,29 -19,45 -13,20 -26,35 -40,45 -14,10 -30,16 -47,16 -17,1 -37,-3 -60,-12 -22,-9 -47,-22 -76,-41 -29,-18 -52,-35 -68,-50 -16,-14 -27,-28 -33,-42 -5,-14 -6,-29 -3,-45 4,-15 12,-33 24,-53 l 102,65 -4,5 c -8,12 -10,22 -5,30 4,7 16,18 37,31 20,13 34,19 43,20 10,1 18,-4 25,-15 5,-8 8,-15 8,-21 0,-5 -2,-11 -7,-16 -4,-6 -13,-13 -25,-21 -31,-20 -53,-36 -67,-46 -13,-10 -24,-21 -33,-31 -14,-18 -21,-36 -21,-55 1,-19 9,-41 24,-65 12,-19 25,-33 37,-42 12,-9 26,-14 41,-14 16,0 34,5 54,14 21,9 46,23 76,42 36,23 62,43 78,61 15,17 23,35 23,53 -1,18 -8,39 -23,64 z"
       inkscape:connector-curvature="0"
       style="fill:#ffffff;fill-rule:nonzero" /><circle
       class="fil3"
       cy="11000"
       r="3898"
       id="circle4491"
       cx="0"
       style="fill:none" /><path
       class="fil2"
       d="m -2925,12881 90,116 95,-74 179,229 c 16,19 32,33 50,41 18,9 35,13 53,12 18,-1 36,-6 53,-13 17,-8 33,-17 48,-29 l 32,-25 c 20,-16 36,-31 48,-48 12,-16 20,-34 23,-53 4,-19 2,-39 -6,-62 -8,-23 -22,-48 -43,-74 l -246,-314 -376,294 z m 373,-106 132,169 c 14,17 20,32 19,45 -1,12 -8,24 -21,34 l -15,12 c -12,9 -24,14 -36,13 -12,0 -23,-7 -33,-20 l -141,-179 95,-74 z m 5,597 123,108 88,-36 223,196 -21,94 123,107 117,-532 -143,-126 -510,189 z m 508,-43 -47,198 -141,-124 188,-74 z m 111,576 130,66 158,-309 1,1 88,434 202,103 217,-427 -131,-66 -157,310 -1,-1 -89,-434 -202,-103 -216,426 z m 751,190 c -9,33 -12,62 -9,86 3,24 11,45 25,62 14,17 32,31 55,43 23,12 52,22 85,32 l 227,63 c 34,9 64,15 89,16 26,2 50,-1 70,-8 21,-8 39,-21 54,-40 15,-19 27,-45 36,-78 l 38,-138 c 9,-33 13,-62 10,-86 -3,-24 -12,-45 -26,-62 -14,-17 -32,-31 -55,-43 -23,-12 -51,-22 -85,-32 l -227,-63 c -34,-9 -63,-15 -89,-17 -26,-2 -49,1 -70,9 -20,7 -38,21 -53,40 -16,19 -28,45 -37,79 l -38,137 z m 171,-53 c 9,-32 21,-53 37,-65 17,-12 42,-13 77,-3 l 165,46 c 35,10 56,24 64,42 8,19 8,43 -1,75 l -14,49 c -9,35 -22,58 -36,68 -15,10 -38,11 -70,2 l -181,-50 c -32,-9 -52,-22 -59,-38 -7,-16 -6,-42 4,-77 l 14,-49 z m 548,245 c -1,34 3,62 12,85 9,23 23,41 40,54 18,13 39,22 64,28 26,6 56,9 91,9 l 236,5 c 36,1 65,-3 89,-9 23,-7 42,-17 55,-29 13,-13 22,-28 27,-44 5,-17 8,-37 8,-59 l 1,-45 -147,-2 c 0,15 -1,27 -4,35 -4,9 -8,16 -15,20 -6,4 -15,7 -25,8 -10,1 -25,1 -43,1 l -156,-3 c -33,-1 -56,-8 -67,-22 -10,-14 -16,-39 -15,-75 l 1,-52 c 1,-32 7,-56 20,-72 13,-15 37,-22 74,-22 l 159,3 c 23,1 40,5 52,11 11,7 16,19 16,35 l 0,13 146,3 c 1,-37 -1,-67 -7,-89 -5,-22 -15,-40 -31,-54 -16,-14 -39,-24 -70,-30 -30,-7 -71,-11 -123,-12 l -172,-3 c -35,-1 -65,1 -91,6 -25,5 -47,13 -65,25 -18,13 -32,30 -42,53 -10,22 -15,51 -16,85 l -2,143 z m 758,175 524,-90 -20,-113 -379,65 -13,-75 351,-60 -16,-98 -352,60 -13,-75 371,-64 -19,-109 -515,88 81,471 z m 617,-98 153,-60 8,-95 276,-110 74,62 151,-60 -421,-347 -177,70 -64,540 z m 193,-472 155,132 -174,69 19,-201 z m 565,167 119,-85 -201,-283 1,-1 425,123 185,-132 -277,-389 -119,85 201,283 -1,1 -426,-123 -184,132 277,389 z m 644,-484 106,-101 -331,-345 -106,102 331,344 z m 193,-170 102,-128 -39,-86 185,-232 94,17 102,-127 -537,-93 -119,149 212,500 z m -66,-505 199,38 -117,146 -82,-184 z"
       id="path4493"
       inkscape:connector-curvature="0"
       style="fill:#ffffff;fill-rule:nonzero" /><circle
       class="fil3"
       cy="11000"
       r="3898"
       id="circle4495"
       cx="0"
       style="fill:none" /><path
       class="fil0"
       d="m -350,10075 190,-51 32,119 c 42,-6 85,-9 128,-9 43,0 86,3 128,9 l 32,-119 190,51 -32,119 c 80,32 154,75 221,128 l 87,-88 140,140 -88,87 c 53,67 96,141 128,221 l 119,-32 51,190 -119,32 c 6,42 9,85 9,128 0,43 -3,86 -9,128 l 119,32 -51,190 -119,-32 c -32,80 -75,154 -128,221 l 88,87 -140,140 -87,-88 c -67,53 -141,96 -221,128 l 32,119 -190,51 -32,-119 c -42,6 -85,9 -128,9 -43,0 -86,-3 -128,-9 l -32,119 -190,-51 32,-119 c -80,-32 -154,-75 -221,-128 l -87,88 -140,-140 88,-87 c -53,-67 -96,-141 -128,-221 l -119,32 -51,-190 119,-32 c -6,-42 -9,-85 -9,-128 0,-43 3,-86 9,-128 l -119,-32 51,-190 119,32 c 32,-80 75,-154 128,-221 l -88,-87 140,-140 87,88 c 67,-53 141,-96 221,-128 l -32,-119 z M 0,11669 c 370,0 669,-299 669,-669 0,-370 -299,-669 -669,-669 -370,0 -669,299 -669,669 0,370 299,669 669,669 z"
       id="path4497"
       inkscape:connector-curvature="0"
       style="fill:#00c0ff" /><path
       class="fil4"
       d="m 491,12907 c 850,-219 1478,-990 1478,-1907 0,-1087 -882,-1969 -1969,-1969 -17,0 -34,1 -51,1 l 0,0 -106,826 551,0 15,-126 c 667,228 1146,859 1146,1603 0,712 -440,1322 -1064,1572 z"
       id="path4499"
       inkscape:connector-curvature="0"
       style="fill:#e2001a" /><path
       class="fil0"
       d="m -491,9093 c -850,219 -1478,990 -1478,1907 0,1087 882,1969 1969,1969 17,0 34,-1 51,-1 l 0,0 106,-826 -551,0 -15,126 c -667,-228 -1146,-859 -1146,-1603 0,-712 440,-1322 1064,-1572 z"
       id="path4501"
       inkscape:connector-curvature="0"
       style="fill:#00c0ff" /></g></svg>